<svg width="690" height="350" viewBox="0 0 690 350" fill="none" xmlns="http://www.w3.org/2000/svg">
<g clip-path="url(#clip0_1812_247)">
<path d="M365.216 106.076H271.427C270.882 106.076 270.359 105.875 269.974 105.516C269.588 105.158 269.372 104.672 269.372 104.165V85.9265C269.372 85.4197 269.588 84.9337 269.974 84.5753C270.359 84.2169 270.882 84.0156 271.427 84.0156H365.216C365.761 84.0156 366.284 84.2169 366.669 84.5753C367.054 84.9337 367.271 85.4197 367.271 85.9265V104.165C367.271 104.672 367.054 105.158 366.669 105.516C366.284 105.875 365.761 106.076 365.216 106.076Z" fill="white"/>
<path d="M434.657 87.9757L428.448 110.668L447.096 115.078L453.305 92.3859L434.657 87.9757Z" fill="white"/>
<path d="M414.286 82.4052L388.876 85.084C387.949 85.1818 387.018 84.9331 386.287 84.3925C385.557 83.8519 385.088 83.0637 384.982 82.2013L382.101 58.5784C381.996 57.716 382.263 56.8501 382.845 56.1712C383.426 55.4922 384.274 55.0558 385.202 54.958L410.611 52.2787C411.539 52.1809 412.47 52.4297 413.2 52.9703C413.931 53.5109 414.4 54.2991 414.505 55.1614L417.387 78.7849C417.492 79.6473 417.225 80.5132 416.643 81.1922C416.062 81.8711 415.214 82.3075 414.286 82.4053L414.286 82.4052Z" fill="white"/>
<path d="M332.688 72.4579H304.895C303.962 72.4579 303.066 72.1131 302.406 71.4994C301.746 70.8857 301.375 70.0533 301.375 69.1853V43.3466C301.375 42.4787 301.746 41.6464 302.406 41.0327C303.066 40.419 303.962 40.0742 304.895 40.0742H332.688C333.15 40.0742 333.607 40.1588 334.034 40.3232C334.461 40.4876 334.85 40.7286 335.176 41.0324C335.503 41.3363 335.762 41.697 335.939 42.094C336.116 42.4909 336.207 42.9164 336.207 43.3461V69.1853C336.207 69.6151 336.116 70.0406 335.94 70.4376C335.763 70.8346 335.504 71.1954 335.177 71.4993C334.85 71.8032 334.462 72.0442 334.035 72.2087C333.608 72.3732 333.15 72.4579 332.688 72.4579H332.688Z" fill="white"/>
<path d="M379.612 72.4579H351.82C350.886 72.4579 349.991 72.1131 349.331 71.4994C348.671 70.8857 348.3 70.0533 348.3 69.1853V43.3466C348.3 42.4787 348.671 41.6464 349.331 41.0327C349.991 40.419 350.886 40.0743 351.82 40.0742H379.612C380.074 40.0742 380.532 40.1588 380.959 40.3233C381.386 40.4877 381.774 40.7287 382.101 41.0326C382.428 41.3364 382.687 41.6971 382.864 42.0941C383.041 42.4911 383.132 42.9167 383.132 43.3464V69.1853C383.132 70.0533 382.761 70.8857 382.101 71.4994C381.441 72.1131 380.546 72.4579 379.612 72.4579Z" fill="white"/>
<path d="M365.216 106.076H271.427C270.882 106.076 270.359 105.875 269.974 105.516C269.588 105.158 269.372 104.672 269.372 104.165V85.9265C269.372 85.4197 269.588 84.9337 269.974 84.5753C270.359 84.2169 270.882 84.0156 271.427 84.0156H365.216C365.761 84.0156 366.284 84.2169 366.669 84.5753C367.054 84.9337 367.271 85.4197 367.271 85.9265V104.165C367.271 104.672 367.054 105.158 366.669 105.516C366.284 105.875 365.761 106.076 365.216 106.076Z" fill="#FF6726"/>
<path d="M434.657 87.9757L428.448 110.668L447.096 115.078L453.305 92.3859L434.657 87.9757Z" fill="#0B58C8"/>
<path d="M414.286 82.4052L388.876 85.084C387.949 85.1818 387.018 84.9331 386.287 84.3925C385.557 83.8519 385.088 83.0637 384.982 82.2013L382.101 58.5784C381.996 57.716 382.263 56.8501 382.845 56.1712C383.426 55.4922 384.274 55.0558 385.202 54.958L410.611 52.2787C411.539 52.1809 412.47 52.4297 413.2 52.9703C413.931 53.5109 414.4 54.2991 414.505 55.1614L417.387 78.7849C417.492 79.6473 417.225 80.5132 416.643 81.1922C416.062 81.8711 415.214 82.3075 414.286 82.4053L414.286 82.4052Z" fill="#0B58C8"/>
<path d="M332.688 72.4579H304.895C303.962 72.4579 303.066 72.1131 302.406 71.4994C301.746 70.8857 301.375 70.0533 301.375 69.1853V43.3466C301.375 42.4787 301.746 41.6464 302.406 41.0327C303.066 40.419 303.962 40.0742 304.895 40.0742H332.688C333.15 40.0742 333.607 40.1588 334.034 40.3232C334.461 40.4876 334.85 40.7286 335.176 41.0324C335.503 41.3363 335.762 41.697 335.939 42.094C336.116 42.4909 336.207 42.9164 336.207 43.3461V69.1853C336.207 69.6151 336.116 70.0406 335.94 70.4376C335.763 70.8346 335.504 71.1954 335.177 71.4993C334.85 71.8032 334.462 72.0442 334.035 72.2087C333.608 72.3732 333.15 72.4579 332.688 72.4579H332.688Z" fill="#FF6726"/>
<path d="M379.612 72.4579H351.82C350.886 72.4579 349.991 72.1131 349.331 71.4994C348.671 70.8857 348.3 70.0533 348.3 69.1853V43.3466C348.3 42.4787 348.671 41.6464 349.331 41.0327C349.991 40.419 350.886 40.0743 351.82 40.0742H379.612C380.074 40.0742 380.532 40.1588 380.959 40.3233C381.386 40.4877 381.774 40.7287 382.101 41.0326C382.428 41.3364 382.687 41.6971 382.864 42.0941C383.041 42.4911 383.132 42.9167 383.132 43.3464V69.1853C383.132 70.0533 382.761 70.8857 382.101 71.4994C381.441 72.1131 380.546 72.4579 379.612 72.4579Z" fill="#FF6726"/>
<path d="M242.598 14.7936C244.149 30.1341 231.891 38.9873 226.417 51.9269L206.507 40.6419C216.79 30.5307 231.731 28.6483 236.462 13.8789" fill="#F02681"/>
<path d="M218.998 40.3609C231.614 44.7487 259.328 47.8545 272.339 50.7798C272.339 59.3724 267.016 66.32 262.482 73.4507C257.958 80.3822 253.813 87.5217 250.064 94.842C249.078 97.0359 245.333 107.823 243.361 109.285C234.554 107.178 224.24 103.618 215.764 97.5844C202.556 88.2601 192.319 78.0174 188.377 63.0249L196.22 51.9357L203.51 43.0555L213.732 38.3164H217.561L218.998 40.3609Z" fill="#F02681"/>
<path d="M201.194 72.6221C201.194 72.6221 200.449 67.6169 203.648 73.7899C205.829 82.0604 223.667 100.019 239.385 104.214C240.151 104.755 240.764 105.46 241.174 106.268C241.583 107.077 241.776 107.966 241.736 108.859C233.302 106.71 223.729 103.242 215.765 97.5731C209.812 93.5077 204.39 88.8093 199.611 83.5734C200.396 78.1541 201.194 72.6221 201.194 72.6221Z" fill="#F02681"/>
<g opacity="0.25">
<path opacity="0.25" d="M196.385 47.9023C186.487 57.855 175.397 84.8977 205.264 116.519C206.047 117.118 206.966 117.543 207.951 117.762C206.522 117.903 205.078 117.738 203.729 117.28C173.03 84.7771 186.048 56.9465 196.385 47.9023Z" fill="#628CD2"/>
</g>
<path d="M182.637 31.2078C182 31.9602 181.693 32.9091 181.778 33.8636C181.89 36.8274 184.347 41.2512 187.681 40.7324C188.205 40.6102 188.669 40.3268 188.998 39.9282C189.327 39.5296 189.501 39.0394 189.492 38.5372C189.519 37.5276 188.182 32.9198 188.944 33.0146C191.395 33.3183 200.424 37.37 209.904 30.5664C206.749 36.342 198.816 38.9624 191.449 36.3226C191.211 38.9701 194.541 41.3972 194.303 43.3827C193.828 46.251 189.822 46.4052 187.643 45.3685C183.018 43.1682 178.768 33.2944 182.637 31.2078Z" fill="#FF6726"/>
<path d="M182.49 31.1309C180.735 33.5898 181.898 37.0449 183.779 39.1888C184.164 39.6883 184.662 40.1034 185.239 40.4051C185.815 40.7068 186.455 40.8877 187.114 40.9352C187.789 40.9365 188.436 40.6887 188.915 40.2462C189.393 39.8037 189.663 39.2028 189.665 38.5754C189.665 38.54 189.664 38.5045 189.663 38.4692C189.56 37.3532 189.364 36.2463 189.077 35.1583C188.95 34.626 188.884 34.0825 188.881 33.5371C188.908 33.0478 189.141 33.2004 189.565 33.2967C192.06 33.9857 194.624 34.4345 197.217 34.6358C201.838 34.7528 206.357 33.3625 209.991 30.7058L209.758 30.4894C206.321 36.6383 198.176 38.5112 191.494 36.173C191.469 36.1668 191.443 36.1661 191.417 36.1709C191.391 36.1756 191.367 36.1858 191.347 36.2005C191.326 36.2152 191.309 36.2341 191.297 36.2558C191.286 36.2775 191.279 36.3014 191.279 36.3256C191.146 38.7003 193.256 40.288 193.993 42.3991C194.917 45.0432 191.515 46.0551 189.353 45.7171C187.323 45.2556 185.572 44.0656 184.484 42.4073C183.156 40.6997 182.19 38.7725 181.637 36.7288C181.19 35.0367 180.832 32.4261 182.723 31.3474C182.909 31.2411 182.739 30.9678 182.551 31.0742C180.914 32.0084 180.817 34.0013 181.055 35.592C181.445 37.8695 182.362 40.0412 183.742 41.9574C184.825 43.8003 186.6 45.2088 188.727 45.9152C190.663 46.3816 193.365 46.1076 194.244 44.1667C194.428 43.6351 194.47 43.07 194.368 42.5197C194.266 41.9695 194.022 41.4503 193.658 41.0067C192.762 39.5487 191.521 38.094 191.619 36.3251L191.404 36.477C198.222 38.8634 206.55 36.9126 210.051 30.6481C210.122 30.5216 209.965 30.3282 209.818 30.4317C206.563 32.8203 202.575 34.1842 198.431 34.3259C195.752 34.3159 193.089 33.9391 190.528 33.2076C190.149 33.1105 189.153 32.6904 188.771 32.8935C188.258 33.1658 188.602 34.3604 188.666 34.763C188.847 35.8932 189.16 37.0104 189.294 38.1463C189.35 38.5115 189.312 38.884 189.185 39.2333C189.057 39.5827 188.842 39.8991 188.559 40.1569C188.163 40.4312 187.69 40.5931 187.198 40.6227C186.705 40.6524 186.214 40.5486 185.783 40.3241C184.197 39.4548 183.027 38.0549 182.514 36.4105C182.109 35.6007 181.922 34.7114 181.969 33.8194C182.016 32.9273 182.296 32.0593 182.784 31.2902C182.906 31.1208 182.611 30.9626 182.49 31.1309Z" fill="#FF6726"/>
<path d="M365.216 106.076H271.427C270.882 106.076 270.359 105.875 269.974 105.516C269.588 105.158 269.372 104.672 269.372 104.165V85.9265C269.372 85.4197 269.588 84.9337 269.974 84.5753C270.359 84.2169 270.882 84.0156 271.427 84.0156H365.216C365.761 84.0156 366.284 84.2169 366.669 84.5753C367.054 84.9337 367.271 85.4197 367.271 85.9265V104.165C367.271 104.672 367.054 105.158 366.669 105.516C366.284 105.875 365.761 106.076 365.216 106.076Z" fill="#FF6726"/>
<path d="M434.657 87.9757L428.448 110.668L447.096 115.078L453.305 92.3859L434.657 87.9757Z" fill="#0B58C8"/>
<path d="M414.286 82.4052L388.876 85.084C387.949 85.1818 387.018 84.9331 386.287 84.3925C385.557 83.8519 385.088 83.0637 384.982 82.2013L382.101 58.5784C381.996 57.716 382.263 56.8501 382.845 56.1712C383.426 55.4922 384.274 55.0558 385.202 54.958L410.611 52.2787C411.539 52.1809 412.47 52.4297 413.2 52.9703C413.931 53.5109 414.4 54.2991 414.505 55.1614L417.387 78.7849C417.492 79.6473 417.225 80.5132 416.643 81.1922C416.062 81.8711 415.214 82.3075 414.286 82.4053L414.286 82.4052Z" fill="#0B58C8"/>
<path d="M332.688 72.4579H304.895C303.962 72.4579 303.066 72.1131 302.406 71.4994C301.746 70.8857 301.375 70.0533 301.375 69.1853V43.3466C301.375 42.4787 301.746 41.6464 302.406 41.0327C303.066 40.419 303.962 40.0742 304.895 40.0742H332.688C333.15 40.0742 333.607 40.1588 334.034 40.3232C334.461 40.4876 334.85 40.7286 335.176 41.0324C335.503 41.3363 335.762 41.697 335.939 42.094C336.116 42.4909 336.207 42.9164 336.207 43.3461V69.1853C336.207 69.6151 336.116 70.0406 335.94 70.4376C335.763 70.8346 335.504 71.1954 335.177 71.4993C334.85 71.8032 334.462 72.0442 334.035 72.2087C333.608 72.3732 333.15 72.4579 332.688 72.4579H332.688Z" fill="#FF6726"/>
<path d="M379.612 72.4579H351.82C350.886 72.4579 349.991 72.1131 349.331 71.4994C348.671 70.8857 348.3 70.0533 348.3 69.1853V43.3466C348.3 42.4787 348.671 41.6464 349.331 41.0327C349.991 40.419 350.886 40.0743 351.82 40.0742H379.612C380.074 40.0742 380.532 40.1588 380.959 40.3233C381.386 40.4877 381.774 40.7287 382.101 41.0326C382.428 41.3364 382.687 41.6971 382.864 42.0941C383.041 42.4911 383.132 42.9167 383.132 43.3464V69.1853C383.132 70.0533 382.761 70.8857 382.101 71.4994C381.441 72.1131 380.546 72.4579 379.612 72.4579Z" fill="#FF6726"/>
<path d="M254.693 11.1562H380.951C385.335 11.1563 389.54 12.7753 392.639 15.6572C395.739 18.5392 397.481 22.4479 397.481 26.5236V305.728C397.481 307.746 397.053 309.744 396.223 311.609C395.392 313.473 394.175 315.167 392.64 316.594C391.105 318.021 389.283 319.153 387.278 319.925C385.272 320.698 383.123 321.095 380.952 321.095H254.693C250.309 321.095 246.105 319.476 243.005 316.595C239.905 313.713 238.164 309.805 238.164 305.729V26.5236C238.164 22.4479 239.905 18.5392 243.005 15.6572C246.105 12.7753 250.309 11.1562 254.693 11.1562Z" fill="#3B4473" stroke="#8B4AC0" stroke-width="0.25" stroke-miterlimit="10"/>
<path d="M254.693 11.1562H380.951C385.335 11.1563 389.54 12.7753 392.639 15.6572C395.739 18.5392 397.481 22.4479 397.481 26.5236V305.728C397.481 307.746 397.053 309.744 396.223 311.609C395.392 313.473 394.175 315.167 392.64 316.594C391.105 318.021 389.283 319.153 387.278 319.925C385.272 320.698 383.123 321.095 380.952 321.095H254.693C250.309 321.095 246.105 319.476 243.005 316.595C239.905 313.713 238.164 309.805 238.164 305.729V26.5236C238.164 22.4479 239.905 18.5392 243.005 15.6572C246.105 12.7753 250.309 11.1562 254.693 11.1562Z" fill="#3B4473"/>
<path d="M254.693 11.1562H380.951C385.335 11.1563 389.54 12.7753 392.639 15.6572C395.739 18.5392 397.481 22.4479 397.481 26.5236V305.728C397.481 307.746 397.053 309.744 396.223 311.609C395.392 313.473 394.175 315.167 392.64 316.594C391.105 318.021 389.283 319.153 387.278 319.925C385.272 320.698 383.123 321.095 380.952 321.095H254.693C250.309 321.095 246.105 319.476 243.005 316.595C239.905 313.713 238.164 309.805 238.164 305.729V26.5236C238.164 22.4479 239.905 18.5392 243.005 15.6572C246.105 12.7753 250.309 11.1562 254.693 11.1562Z" fill="#3B4473" stroke="#8B4AC0" stroke-width="0.25" stroke-miterlimit="10"/>
<path d="M379.933 11.4296C384.291 11.4344 388.469 13.0459 391.55 15.9107C394.632 18.7756 396.365 22.6598 396.371 26.7113V304.54C396.365 308.592 394.632 312.476 391.55 315.341C388.469 318.206 384.291 319.817 379.933 319.822H256.711C252.353 319.817 248.175 318.206 245.094 315.341C242.012 312.476 240.279 308.592 240.274 304.54V26.7113C240.279 22.6598 242.012 18.7756 245.094 15.9107C248.176 13.0459 252.353 11.4344 256.711 11.4296H379.933ZM379.933 3.94922H256.711C250.218 3.94935 243.991 6.34754 239.399 10.6162C234.808 14.8849 232.228 20.6745 232.228 26.7113V304.54C232.228 307.53 232.861 310.489 234.092 313.251C235.322 316.013 237.126 318.522 239.399 320.636C241.673 322.749 244.372 324.426 247.342 325.57C250.312 326.714 253.496 327.303 256.711 327.303H379.933C383.148 327.303 386.332 326.714 389.302 325.57C392.273 324.426 394.972 322.749 397.245 320.636C399.519 318.522 401.322 316.013 402.553 313.251C403.783 310.49 404.416 307.53 404.416 304.54V26.7113C404.416 20.6744 401.837 14.8848 397.245 10.6162C392.654 6.34747 386.426 3.94922 379.933 3.94922Z" fill="black"/>
<path d="M230.93 60.0713H233.444V47.1367H230.93V60.0713ZM230.93 94.0441H233.444V69.8893H230.93V94.0441ZM403.2 79.3564V117.108H405.714V79.3564H403.2ZM230.93 124.745H233.444V100.589H230.93V124.745Z" fill="#D3D7DE"/>
<path d="M265.228 7.49609V11.3919H272.353C273.045 11.4008 273.706 11.665 274.189 12.1265C274.672 12.5881 274.938 13.2091 274.929 13.853C274.929 13.853 277.641 22.9012 282.228 22.9012H354.416C359.003 22.9012 361.715 13.853 361.715 13.853C361.706 13.2091 361.972 12.5881 362.455 12.1266C362.938 11.6651 363.599 11.4008 364.291 11.3919H371.416V7.49609H265.228Z" fill="black"/>
<path opacity="0.23" d="M339.1 15.2361C339.1 15.9843 338.78 16.7018 338.211 17.2307C337.642 17.7596 336.87 18.0567 336.065 18.0566C335.26 18.0565 334.488 17.7592 333.919 17.2302C333.35 16.7011 333.031 15.9835 333.031 15.2353C333.031 14.4872 333.35 13.7696 333.919 13.2405C334.488 12.7115 335.26 12.4142 336.065 12.4141C336.87 12.414 337.642 12.7111 338.211 13.24C338.78 13.7689 339.1 14.4864 339.1 15.2346V15.2361Z" fill="#395682"/>
<path opacity="0.23" d="M326.762 16.5953H307.737C307.392 16.5952 307.062 16.4679 306.818 16.2414C306.575 16.0149 306.438 15.7078 306.438 15.3875C306.438 15.0672 306.575 14.76 306.818 14.5335C307.062 14.307 307.392 14.1798 307.737 14.1797H326.762C327.107 14.1797 327.437 14.3069 327.681 14.5334C327.925 14.7599 328.061 15.0672 328.061 15.3875C328.061 15.7078 327.925 16.015 327.681 16.2415C327.437 16.468 327.107 16.5953 326.762 16.5953Z" fill="#395682"/>
<path d="M365.157 315.721H275.962C275.545 315.721 275.146 315.567 274.851 315.293C274.557 315.019 274.391 314.648 274.391 314.261C274.391 313.874 274.557 313.502 274.851 313.228C275.146 312.955 275.545 312.801 275.961 312.801H365.157C365.574 312.801 365.973 312.955 366.268 313.228C366.562 313.502 366.728 313.873 366.728 314.261C366.728 314.452 366.687 314.642 366.608 314.819C366.529 314.996 366.413 315.157 366.268 315.293C366.122 315.428 365.949 315.536 365.758 315.609C365.568 315.683 365.364 315.721 365.157 315.721H365.157Z" fill="#F5F5F5"/>
<path d="M259.193 108.303C259.194 108.702 259.321 109.091 259.559 109.422C259.797 109.753 260.135 110.011 260.531 110.163C260.927 110.315 261.362 110.355 261.782 110.277C262.202 110.2 262.588 110.008 262.891 109.726C263.194 109.444 263.4 109.086 263.483 108.695C263.567 108.305 263.524 107.9 263.36 107.532C263.196 107.164 262.918 106.85 262.562 106.628C262.206 106.407 261.787 106.289 261.359 106.289C261.075 106.289 260.793 106.341 260.53 106.442C260.267 106.544 260.029 106.692 259.827 106.879C259.626 107.066 259.467 107.288 259.358 107.533C259.249 107.777 259.193 108.039 259.193 108.303Z" fill="white" stroke="#FF6726" stroke-width="0.25" stroke-miterlimit="10"/>
<path d="M250.525 108.303C250.525 108.837 250.753 109.349 251.159 109.727C251.566 110.105 252.117 110.317 252.691 110.317C253.265 110.317 253.816 110.104 254.222 109.727C254.629 109.349 254.857 108.837 254.857 108.303C254.857 107.769 254.629 107.257 254.222 106.879C253.816 106.501 253.265 106.289 252.691 106.289C252.117 106.289 251.566 106.501 251.159 106.879C250.753 107.256 250.525 107.768 250.525 108.302V108.303Z" fill="white" stroke="#FF6726" stroke-width="0.25" stroke-miterlimit="10"/>
<path d="M241.854 108.303C241.853 108.702 241.981 109.091 242.219 109.422C242.457 109.754 242.795 110.012 243.191 110.164C243.587 110.317 244.022 110.357 244.443 110.279C244.863 110.202 245.249 110.01 245.552 109.728C245.855 109.447 246.061 109.088 246.145 108.697C246.229 108.306 246.186 107.901 246.022 107.533C245.858 107.165 245.581 106.85 245.225 106.629C244.869 106.408 244.45 106.289 244.021 106.289C243.737 106.289 243.455 106.341 243.192 106.442C242.929 106.543 242.69 106.692 242.489 106.879C242.287 107.066 242.128 107.288 242.019 107.532C241.91 107.777 241.854 108.039 241.854 108.303Z" fill="white" stroke="#FF6726" stroke-width="0.25" stroke-miterlimit="10"/>
<path d="M434.657 87.9757L428.448 110.668L447.096 115.078L453.305 92.3859L434.657 87.9757Z" fill="#0B58C8"/>
<path d="M414.286 82.4052L388.876 85.084C387.949 85.1818 387.018 84.9331 386.287 84.3925C385.557 83.8519 385.088 83.0637 384.982 82.2013L382.101 58.5784C381.996 57.716 382.263 56.8501 382.845 56.1712C383.426 55.4922 384.274 55.0558 385.202 54.958L410.611 52.2787C411.539 52.1809 412.47 52.4297 413.2 52.9703C413.931 53.5109 414.4 54.2991 414.505 55.1614L417.387 78.7849C417.492 79.6473 417.225 80.5132 416.643 81.1922C416.062 81.8711 415.214 82.3075 414.286 82.4053L414.286 82.4052Z" fill="#0B58C8"/>
<path d="M332.688 72.4579H304.895C303.962 72.4579 303.066 72.1131 302.406 71.4994C301.746 70.8857 301.375 70.0533 301.375 69.1853V43.3466C301.375 42.4787 301.746 41.6464 302.406 41.0327C303.066 40.419 303.962 40.0742 304.895 40.0742H332.688C333.15 40.0742 333.607 40.1588 334.034 40.3232C334.461 40.4876 334.85 40.7286 335.176 41.0324C335.503 41.3363 335.762 41.697 335.939 42.094C336.116 42.4909 336.207 42.9164 336.207 43.3461V69.1853C336.207 69.6151 336.116 70.0406 335.94 70.4376C335.763 70.8346 335.504 71.1954 335.177 71.4993C334.85 71.8032 334.462 72.0442 334.035 72.2087C333.608 72.3732 333.15 72.4579 332.688 72.4579H332.688Z" fill="#ECECEC"/>
<path d="M451.661 50.1828C454.185 53.9679 455.942 58.151 456.845 62.5248C457.08 63.0419 457.084 63.6245 456.857 64.1444C456.629 64.6644 456.189 65.079 455.633 65.2972C455.566 65.3235 455.498 65.3468 455.429 65.367C449.69 68.5054 443.609 71.0683 437.289 73.0125C439.243 71.8569 440.681 70.083 441.338 68.0185C441.995 65.954 441.826 63.7382 440.863 61.7803C440.599 61.2015 440.21 60.6792 439.72 60.2455C439.23 59.8117 438.65 59.4758 438.016 59.2585C437.108 59.089 436.165 59.1962 435.328 59.5642C434.49 59.9322 433.803 60.5413 433.368 61.3012C432.534 62.8481 432.253 64.6023 432.567 66.308C432.83 68.4289 433.511 70.4866 434.575 72.3785C431.58 71.0997 428.761 69.4899 426.179 67.5841C425.511 67.2074 424.967 66.6685 424.605 66.0253C424.243 65.3821 424.076 64.6592 424.124 63.9346C423.919 60.712 424.095 57.4782 424.65 54.2915C425.392 50.0382 427.12 45.5106 431.117 43.3324C438.863 39.109 447.286 44.0583 451.661 50.1828Z" fill="black"/>
<path d="M424.824 86.7435C424.824 86.7435 421.082 100.185 418.614 100.445C416.145 100.705 409.124 84.1094 409.124 84.1094L401.915 86.4782C401.915 86.4782 409.276 111.618 417.988 111.592C426.701 111.566 433.79 97.4786 433.79 97.4786L424.824 86.7435Z" fill="#0B58C8"/>
<path d="M428.481 121.875C428.481 121.875 424.103 156.326 424.862 163.401C425.621 170.477 429.838 210.646 429.838 210.646L437.832 209.905C437.832 209.905 442.984 178.141 440.956 165.484C440.676 163.735 446.365 152.635 447.865 144.875C449.304 137.384 449.584 129.74 448.695 122.176L428.481 121.875Z" fill="#455A64"/>
<path d="M422.246 214.171C424.68 212.824 427.217 211.647 429.838 210.648L437.835 209.906L437.895 212.927L437.948 215.44L418.618 216.685C419.733 215.735 420.949 214.893 422.246 214.171Z" fill="black"/>
<path d="M418.618 216.682L437.948 215.438L437.982 217.034L419.232 218.774C418.998 218.796 418.763 218.751 418.557 218.644C418.352 218.538 418.187 218.376 418.084 218.18C417.981 217.984 417.945 217.763 417.981 217.547C418.017 217.331 418.124 217.131 418.286 216.973C418.387 216.875 418.509 216.78 418.618 216.682Z" fill="white"/>
<path d="M442.268 121.772C442.268 121.772 446.501 156.239 448.985 162.964C451.468 169.689 465.476 207.891 465.476 207.891L473.076 205.467C473.076 205.467 469.109 173.361 465.164 161.561C464.6 159.874 467.262 147.903 466.809 140.03C466.362 132.432 464.749 124.932 462.019 117.758L442.268 121.772Z" fill="#455A64"/>
<path d="M458.956 212.933C460.993 211.104 463.172 209.417 465.477 207.887L473.079 205.461L473.881 208.389L474.375 210.18L455.955 216.279C456.823 215.067 457.83 213.945 458.956 212.933Z" fill="black"/>
<path d="M455.955 216.283L474.375 210.184L474.979 212.373L457.156 218.061C456.934 218.132 456.694 218.138 456.468 218.078C456.243 218.019 456.042 217.896 455.893 217.727C455.744 217.558 455.655 217.351 455.637 217.134C455.619 216.916 455.673 216.698 455.791 216.51C455.841 216.435 455.903 216.358 455.955 216.283Z" fill="white"/>
<path d="M444.127 50.9648L444.844 56.8428C444.99 57.9773 444.894 59.1274 444.562 60.2275C444.23 61.3276 443.668 62.3561 442.908 63.2543C442.148 64.1525 441.206 64.9028 440.134 65.4623C439.063 66.0219 437.883 66.3797 436.663 66.5154C435.442 66.6511 434.205 66.562 433.022 66.2533C431.838 65.9445 430.732 65.422 429.766 64.7158C428.8 64.0095 427.993 63.1332 427.391 62.137C426.789 61.1408 426.404 60.0441 426.258 58.9095L426.254 58.8749L426.252 58.8568L426.245 58.8043L425.528 52.9263C425.52 52.856 425.511 52.7862 425.507 52.7152C425.368 51.0949 425.912 49.4876 427.023 48.233C428.135 46.9783 429.728 46.1744 431.465 45.991L436.667 45.4425C438.405 45.2588 440.151 45.7103 441.538 46.7016C442.924 47.693 443.842 49.1465 444.097 50.7553C444.109 50.8247 444.118 50.8945 444.127 50.9648Z" fill="#FFB8B8"/>
<path d="M446.036 56.896C446.166 57.96 444.89 58.9489 444.626 59.9293L437.513 54.6631C435.629 55.7645 433.381 56.1965 431.181 55.8793C428.982 55.5622 426.98 54.5174 425.543 52.9371L425.527 52.9211C425.519 52.8508 425.51 52.781 425.506 52.71C425.494 52.6488 425.486 52.5826 425.478 52.5164C425.198 50.2245 425.909 47.9231 427.454 46.1184C428.999 44.3138 431.252 43.1537 433.717 42.8934H433.719C433.84 42.8808 433.961 42.8695 434.079 42.8585C435.763 42.7114 437.461 42.9181 439.048 43.4632C440.635 44.0083 442.07 44.8779 443.247 46.0079C444.424 47.1378 445.313 48.4991 445.848 49.9912C446.383 51.4834 446.551 53.0682 446.338 54.6286L446.036 56.896Z" fill="black"/>
<path d="M446.601 58.1847C446.663 58.6921 446.562 59.2051 446.31 59.6589C446.059 60.1128 445.668 60.4871 445.187 60.7345C444.707 60.9819 444.158 61.0913 443.611 61.0488C443.064 61.0063 442.542 60.814 442.113 60.496C441.683 60.178 441.364 59.7487 441.197 59.2623C441.03 58.776 441.021 58.2545 441.173 57.7637C441.325 57.273 441.629 56.835 442.049 56.5052C442.468 56.1754 442.983 55.9687 443.529 55.911C444.26 55.8338 444.995 56.0299 445.571 56.4563C446.148 56.8827 446.518 57.5044 446.601 58.1847Z" fill="#0B58C8"/>
<path d="M429.612 101.056L427.603 123.344C434.66 124.678 441.951 124.511 448.929 122.856L462.309 119.684C461.74 115.559 460.837 109.417 459.691 102.855C459.009 98.9639 458.518 94.2194 457.683 90.3661C455.606 80.7893 452.827 73.0612 450.175 70.8751L445.615 69.2578L428.361 71.9772C428.361 71.9772 419.887 86.6261 422.824 90.8245C425.761 95.0229 429.612 101.056 429.612 101.056Z" fill="#0B58C8"/>
<path d="M435.585 75.4828L436.174 80.311L441.323 78.3379C441.323 78.3379 441.976 77.4467 442.776 76.1834C444.09 74.0996 445.796 71.0103 445.614 69.257L443.155 68.3867L435.585 75.4828Z" fill="#0B58C8"/>
<path d="M428.36 71.977L430.885 77.416L432.416 80.7088L433.901 78.2563L435.586 75.4836L432.369 69.2891L428.36 71.977Z" fill="#0B58C8"/>
<path d="M434.657 87.9757L428.448 110.668L447.096 115.078L453.305 92.3859L434.657 87.9757Z" fill="#F0F0F0"/>
<path d="M448.463 71.3903C448.463 71.3903 444.92 74.3826 449.535 82.2338C454.149 90.0851 463.274 104.872 461.939 105.472C460.605 106.07 445.463 100.685 445.463 100.685L441.411 107.476C441.411 107.476 464.408 122.718 471.382 117.742C478.356 112.767 460.999 65.2017 448.463 71.3903Z" fill="#0B58C8"/>
<path d="M433.95 98.2631C433.942 97.1658 434.371 96.1047 435.155 95.2843C435.939 94.4639 437.022 93.9424 438.194 93.8203L440.001 94.543L440.062 94.5788C440.383 94.7774 440.656 95.0343 440.866 95.3342C441.077 95.634 441.219 95.9705 441.285 96.3231C441.724 97.7105 442.464 99 443.458 100.112L444.559 102.197L441.814 106.798L435.962 103.481C435.263 102.785 434.723 101.962 434.377 101.065C434.031 100.168 433.886 99.2144 433.95 98.2631Z" fill="#FFB8B8"/>
<path d="M408.323 84.3787C408.323 84.3787 411.521 78.9475 409.623 79.1476C409.054 79.2144 408.506 79.3865 408.01 79.6536C407.515 79.9208 407.082 80.2775 406.737 80.7029C406.737 80.7029 400.388 76.7254 397.69 77.457C394.992 78.1886 402.751 86.2094 402.751 86.2094L408.323 84.3787Z" fill="#FFB8B8"/>
<path d="M414.286 82.4052L388.876 85.084C387.949 85.1818 387.018 84.9331 386.287 84.3925C385.557 83.8519 385.088 83.0637 384.982 82.2013L382.101 58.5784C381.996 57.716 382.263 56.8501 382.845 56.1712C383.426 55.4922 384.274 55.0558 385.202 54.958L410.611 52.2787C411.539 52.1809 412.47 52.4297 413.2 52.9703C413.931 53.5109 414.4 54.2991 414.505 55.1614L417.387 78.7849C417.492 79.6473 417.225 80.5132 416.643 81.1922C416.062 81.8711 415.214 82.3075 414.286 82.4053L414.286 82.4052Z" fill="#0B58C8"/>
<path opacity="0.3" d="M414.286 82.4052L388.876 85.084C387.949 85.1818 387.018 84.9331 386.287 84.3925C385.557 83.8519 385.088 83.0637 384.982 82.2013L382.101 58.5784C381.996 57.716 382.263 56.8501 382.845 56.1712C383.426 55.4922 384.274 55.0558 385.202 54.958L410.611 52.2787C411.539 52.1809 412.47 52.4297 413.2 52.9703C413.931 53.5109 414.4 54.2991 414.505 55.1614L417.387 78.7849C417.492 79.6473 417.225 80.5132 416.643 81.1922C416.062 81.8711 415.214 82.3075 414.286 82.4053L414.286 82.4052Z" fill="white"/>
<path opacity="0.3" d="M105.208 70.1474L79.7979 72.8262C78.8703 72.924 77.9389 72.6753 77.2086 72.1347C76.4783 71.5941 76.0089 70.8059 75.9037 69.9435L73.0224 46.3206C72.9172 45.4582 73.1848 44.5923 73.7663 43.9133C74.3478 43.2344 75.1956 42.798 76.1232 42.7001L101.532 40.0209C102.46 39.9231 103.391 40.1718 104.122 40.7125C104.852 41.2531 105.321 42.0413 105.427 42.9036L108.308 66.5271C108.414 67.3895 108.146 68.2554 107.565 68.9344C106.983 69.6133 106.135 70.0497 105.208 70.1475L105.208 70.1474Z" fill="white"/>
<path opacity="0.3" d="M129.208 185.147L103.798 187.826C102.87 187.924 101.939 187.675 101.209 187.135C100.478 186.594 100.009 185.806 99.9037 184.944L97.0224 161.321C96.9172 160.458 97.1848 159.592 97.7663 158.913C98.3478 158.234 99.1956 157.798 100.123 157.7L125.532 155.021C126.46 154.923 127.391 155.172 128.122 155.712C128.852 156.253 129.321 157.041 129.427 157.904L132.308 181.527C132.414 182.389 132.146 183.255 131.565 183.934C130.983 184.613 130.135 185.05 129.208 185.148L129.208 185.147Z" fill="white"/>
<path d="M389.59 68.6883L389.847 70.7964C389.875 71.0316 390.003 71.2467 390.202 71.3944C390.402 71.542 390.656 71.6101 390.909 71.5837L392.822 71.382C393.031 71.85 393.295 72.2952 393.609 72.7096L392.411 74.1083C392.253 74.2936 392.179 74.53 392.208 74.7654C392.237 75.0008 392.365 75.216 392.564 75.3636L394.35 76.6857C394.55 76.8332 394.804 76.901 395.057 76.8743C395.31 76.8476 395.542 76.7286 395.701 76.5433L396.898 75.1448C397.403 75.3362 397.929 75.4756 398.466 75.5605L398.684 77.3401C398.698 77.4565 398.737 77.5693 398.798 77.6718C398.859 77.7744 398.941 77.8648 399.04 77.9379C399.138 78.0109 399.252 78.0652 399.373 78.0976C399.494 78.1301 399.621 78.14 399.746 78.1268L402.014 77.8876C402.268 77.8611 402.499 77.7422 402.658 77.5569C402.817 77.3716 402.891 77.1352 402.862 76.8997L402.644 75.1201C403.147 74.9251 403.626 74.6798 404.071 74.3886L405.577 75.5022C405.776 75.6497 406.03 75.7176 406.283 75.6909C406.537 75.6642 406.768 75.5451 406.927 75.3598L408.349 73.6995C408.508 73.5141 408.58 73.2778 408.552 73.0424C408.523 72.807 408.395 72.5918 408.196 72.4441L406.691 71.3305C406.896 70.8611 407.046 70.3723 407.138 69.8727L409.051 69.671C409.305 69.6442 409.536 69.525 409.695 69.3397C409.854 69.1543 409.927 68.9178 409.899 68.6822L409.642 66.5742C409.613 66.3386 409.484 66.1233 409.285 65.9757C409.085 65.828 408.831 65.7601 408.577 65.7868L406.664 65.9893C406.455 65.5214 406.191 65.0761 405.877 64.6615L407.076 63.263C407.234 63.0777 407.307 62.8413 407.278 62.6059C407.25 62.3705 407.122 62.1554 406.922 62.0077L405.137 60.6855C404.937 60.538 404.683 60.4701 404.43 60.4968C404.177 60.5235 403.945 60.6426 403.786 60.8279L402.588 62.2265C402.083 62.0353 401.558 61.8958 401.02 61.8105L400.804 60.0311C400.775 59.7956 400.647 59.5804 400.447 59.4328C400.248 59.2852 399.993 59.2173 399.74 59.244L397.472 59.483C397.219 59.5097 396.988 59.6288 396.829 59.814C396.67 59.9993 396.597 60.2356 396.626 60.4709L396.843 62.2497C396.339 62.4443 395.86 62.6897 395.414 62.9815L393.91 61.8678C393.711 61.7203 393.457 61.6524 393.204 61.6791C392.95 61.7057 392.719 61.8248 392.56 62.0101L391.138 63.6704C391.059 63.7622 391.001 63.8675 390.966 63.9802C390.931 64.093 390.921 64.211 390.935 64.3276C390.949 64.4441 390.988 64.557 391.049 64.6596C391.11 64.7623 391.193 64.8527 391.291 64.9258L392.795 66.0394C392.589 66.5087 392.439 66.9975 392.348 67.4971L390.434 67.6988C390.181 67.726 389.95 67.8455 389.792 68.0309C389.634 68.2164 389.561 68.4531 389.59 68.6883ZM395.744 69.1069C395.655 68.3713 395.802 67.6274 396.167 66.9694C396.532 66.3114 397.098 65.7688 397.795 65.4102C398.492 65.0516 399.287 64.8931 400.081 64.9548C400.874 65.0165 401.63 65.2955 402.253 65.7567C402.876 66.2179 403.338 66.8405 403.581 67.5457C403.823 68.2509 403.835 69.0071 403.615 69.7187C403.395 70.4303 402.953 71.0653 402.345 71.5433C401.737 72.0214 400.99 72.3211 400.199 72.4045C399.138 72.5162 398.073 72.2315 397.238 71.613C396.403 70.9946 395.865 70.0932 395.744 69.1069Z" fill="white"/>
<path d="M81.0063 56.45L81.2634 58.5581C81.292 58.7933 81.4199 59.0084 81.6189 59.1561C81.818 59.3037 82.072 59.3718 82.3251 59.3455L84.2384 59.1438C84.4478 59.6117 84.7118 60.0569 85.0255 60.4714L83.8277 61.87C83.669 62.0554 83.596 62.2917 83.6247 62.5271C83.6534 62.7626 83.7815 62.9777 83.9809 63.1253L85.7667 64.4474C85.9662 64.5949 86.2204 64.6627 86.4736 64.636C86.7268 64.6093 86.9583 64.4903 87.1171 64.305L88.3142 62.9065C88.8192 63.0979 89.3453 63.2373 89.8829 63.3223L90.1007 65.1018C90.1149 65.2183 90.1536 65.331 90.2146 65.4336C90.2756 65.5361 90.3577 65.6265 90.4563 65.6996C90.5549 65.7726 90.668 65.8269 90.7892 65.8594C90.9103 65.8918 91.0372 65.9017 91.1624 65.8885L93.4308 65.6494C93.6842 65.6229 93.9158 65.5039 94.0748 65.3186C94.2338 65.1333 94.3071 64.8969 94.2786 64.6614L94.0608 62.8819C94.5637 62.6869 95.0422 62.4416 95.488 62.1503L96.993 63.2639C97.1924 63.4115 97.4467 63.4793 97.6999 63.4526C97.9531 63.4259 98.1846 63.3069 98.3433 63.1215L99.7655 61.4612C99.9241 61.2758 99.997 61.0395 99.9683 60.8041C99.9396 60.5687 99.8116 60.3536 99.6124 60.2059L98.1072 59.0922C98.3127 58.6228 98.4627 58.134 98.5546 57.6344L100.468 57.4327C100.721 57.4059 100.953 57.2868 101.112 57.1014C101.271 56.916 101.344 56.6795 101.315 56.444L101.058 54.3359C101.029 54.1003 100.901 53.885 100.701 53.7374C100.502 53.5897 100.247 53.5218 99.9938 53.5485L98.0806 53.751C97.871 53.2831 97.6071 52.8379 97.2935 52.4233L98.4921 51.0248C98.6507 50.8394 98.7237 50.603 98.695 50.3676C98.6663 50.1322 98.5382 49.9171 98.339 49.7694L96.5531 48.4472C96.3537 48.2997 96.0995 48.2318 95.8463 48.2585C95.593 48.2852 95.3616 48.4043 95.2028 48.5896L94.0042 49.9882C93.4996 49.797 92.974 49.6575 92.4369 49.5722L92.2206 47.7928C92.1917 47.5573 92.0633 47.3421 91.8638 47.1945C91.6642 47.0469 91.4098 46.979 91.1564 47.0057L88.8889 47.2448C88.6357 47.2714 88.4044 47.3905 88.2457 47.5758C88.087 47.761 88.0139 47.9973 88.0426 48.2326L88.2596 50.0114C87.7558 50.206 87.2765 50.4514 86.8303 50.7432L85.3268 49.6296C85.1274 49.482 84.8732 49.4141 84.62 49.4408C84.3668 49.4675 84.1354 49.5865 83.9766 49.7718L82.5546 51.4321C82.476 51.5239 82.4176 51.6292 82.3827 51.7419C82.3479 51.8547 82.3373 51.9727 82.3515 52.0893C82.3657 52.2059 82.4045 52.3187 82.4656 52.4213C82.5267 52.524 82.609 52.6144 82.7077 52.6875L84.2114 53.8011C84.0055 54.2704 83.8555 54.7592 83.764 55.2588L81.8507 55.4606C81.5978 55.4877 81.3668 55.6072 81.2085 55.7927C81.0502 55.9781 80.9772 56.2148 81.0063 56.45ZM87.161 56.8687C87.0712 56.133 87.2181 55.3892 87.5831 54.7311C87.9481 54.0731 88.5148 53.5305 89.2115 53.1719C89.9082 52.8133 90.7036 52.6548 91.4971 52.7165C92.2907 52.7782 93.0468 53.0573 93.6698 53.5184C94.2927 53.9796 94.7546 54.6022 94.997 55.3074C95.2394 56.0127 95.2514 56.7689 95.0315 57.4804C94.8116 58.192 94.3697 58.827 93.7617 59.3051C93.1536 59.7831 92.4067 60.0828 91.6154 60.1663C90.5545 60.2779 89.4893 59.9932 88.6542 59.3748C87.819 58.7563 87.2813 57.855 87.161 56.8687Z" fill="black"/>
<path d="M242.265 169.575L215.005 225.619C214.512 226.636 214.238 227.732 214.201 228.847C214.163 229.962 214.362 231.072 214.786 232.115C215.21 233.158 215.851 234.114 216.672 234.926C217.493 235.739 218.479 236.394 219.572 236.853L219.578 236.855L303.967 272.333C305.059 272.794 306.238 273.05 307.437 273.087C308.636 273.124 309.831 272.941 310.953 272.549C312.076 272.157 313.105 271.563 313.98 270.802C314.856 270.04 315.562 269.125 316.058 268.11L316.061 268.104L343.321 212.059C344.318 210.006 344.397 207.67 343.541 205.563C342.685 203.456 340.964 201.752 338.756 200.825L338.75 200.823L254.361 165.345C252.155 164.414 249.642 164.336 247.374 165.128C245.107 165.92 243.27 167.517 242.269 169.568L242.265 169.575Z" fill="#8B4AC0"/>
<path opacity="0.3" d="M242.265 169.575L228.635 197.597L215.005 225.619C214.512 226.636 214.238 227.732 214.201 228.847C214.163 229.962 214.362 231.072 214.786 232.115C215.21 233.158 215.851 234.114 216.672 234.926C217.493 235.739 218.479 236.394 219.572 236.853L219.578 236.855L303.967 272.333C305.059 272.794 306.238 273.05 307.437 273.087C308.636 273.124 309.831 272.941 310.953 272.549C312.076 272.157 313.105 271.563 313.98 270.802C314.856 270.04 315.562 269.125 316.058 268.11L316.061 268.104L343.321 212.059C344.318 210.006 344.397 207.67 343.541 205.563C342.685 203.456 340.964 201.752 338.756 200.825L338.75 200.823L254.361 165.345C252.155 164.414 249.642 164.336 247.374 165.128C245.107 165.92 243.27 167.517 242.269 169.568L242.265 169.575Z" fill="white"/>
<path opacity="0.3" d="M43.2695 250.936L34.5745 280.86L25.8796 310.783C25.565 311.868 25.481 312.996 25.6324 314.101C25.7839 315.205 26.1677 316.266 26.762 317.223C27.3563 318.179 28.1495 319.012 29.0963 319.674C30.043 320.337 31.1248 320.815 32.2798 321.083L32.2863 321.084L121.46 341.78C122.614 342.05 123.819 342.103 125.007 341.937C126.195 341.771 127.341 341.389 128.382 340.813C129.422 340.236 130.335 339.477 131.07 338.578C131.804 337.679 132.345 336.659 132.662 335.574L132.664 335.567L150.055 275.72C150.69 273.528 150.373 271.212 149.173 269.28C147.973 267.349 145.988 265.96 143.656 265.42L143.649 265.418L54.4762 244.722C52.1448 244.178 49.6546 244.526 47.5536 245.69C45.4525 246.854 43.9127 248.738 43.2728 250.929L43.2695 250.936Z" fill="#ECECEC"/>
<path d="M200.857 342.588L200.658 339.668L208.438 339.797C211.051 340.567 213.6 341.516 216.062 342.637C217.175 343.151 218.243 343.745 219.256 344.414L200.984 344.499L200.857 342.588Z" fill="black"/>
<path d="M219.256 344.414C219.565 344.623 219.856 344.835 220.123 345.052C220.293 345.193 220.413 345.378 220.466 345.584C220.519 345.79 220.503 346.005 220.42 346.202C220.337 346.399 220.192 346.568 220.003 346.685C219.814 346.803 219.59 346.864 219.363 346.86L201.121 346.559L200.984 344.499L219.256 344.414Z" fill="white"/>
<path d="M169.686 342.575L170.038 339.668L177.674 341.058C180.103 342.24 182.434 343.588 184.648 345.091C185.648 345.778 186.588 346.536 187.46 347.36L169.452 344.478L169.686 342.575Z" fill="black"/>
<path d="M187.459 347.365C187.724 347.621 187.97 347.877 188.193 348.134C188.334 348.3 188.417 348.502 188.431 348.713C188.444 348.924 188.388 349.134 188.27 349.315C188.151 349.495 187.976 349.638 187.768 349.723C187.56 349.808 187.328 349.831 187.105 349.79L169.2 346.534L169.452 344.484L187.459 347.365Z" fill="white"/>
<path d="M179.025 304.248C178.697 303.534 167.092 237.843 167.092 237.843C179.041 236.67 190.884 234.705 202.531 231.961L218.625 300.192C218.625 300.192 213.351 319.005 211.037 328.711C209.592 334.863 208.436 339.795 208.436 339.795L200.653 339.671C200.653 339.671 201.466 334.106 202.499 327.448C203.923 318.203 205.768 306.87 206.429 305.402L192.015 265.547C192.015 265.547 192.278 304.655 191.971 305.226C191.694 305.741 186.464 318.932 182.39 329.245C179.857 335.671 177.762 340.978 177.6 341.386L177.591 341.413L170.037 339.671C170.037 339.671 171.596 334 173.413 327.19C176.071 317.227 179.303 304.826 179.025 304.248Z" fill="#455A64"/>
<path d="M213.31 185.645L210.937 187.783C210.913 188.722 210.781 189.655 210.544 190.567C210.088 191.102 209.675 191.667 209.305 192.256C208.687 193.263 208.284 194.337 208.958 194.8C210.396 195.794 217.606 196.793 218.757 196.711C219.118 196.686 219.649 196.142 220.201 195.409C220.493 195.017 220.796 194.576 221.083 194.128L221.077 194.127C221.949 192.771 222.569 191.581 222.569 191.581L213.31 185.645Z" fill="#FFB8B8" stroke="#8B4AC0" stroke-width="0.25" stroke-miterlimit="10"/>
<path d="M165.557 242.439C167.515 237.27 181.989 203.424 187.82 196.924C200.844 182.402 211.223 187.353 211.223 187.353C211.057 195.738 220.175 193.852 220.175 193.852C220.175 193.852 228.851 205.611 215.941 222.35C207.608 233.155 207.501 246.21 208.471 254.114C200.834 255.364 192.99 254.961 185.547 252.936C178.105 250.911 171.265 247.32 165.557 242.439Z" fill="#8B4AC0"/>
<path d="M234.406 175.897C234.406 175.897 232.704 194.318 222.411 191.541C212.118 188.763 210.287 180.884 212.219 176.913C214.151 172.941 217.146 164.838 226.31 166.057C235.474 167.276 234.406 175.897 234.406 175.897Z" fill="#FFB8B8" stroke="#8B4AC0" stroke-width="0.25" stroke-miterlimit="10"/>
<path d="M242.265 169.574L240.177 173.866L341.233 216.35L343.321 212.059C343.815 211.043 344.088 209.946 344.126 208.831C344.164 207.717 343.965 206.606 343.541 205.563C343.117 204.52 342.476 203.565 341.655 202.752C340.834 201.939 339.849 201.284 338.756 200.825L338.75 200.823L254.361 165.345C252.155 164.414 249.642 164.336 247.374 165.128C245.107 165.92 243.27 167.517 242.269 169.568L242.265 169.574Z" fill="#F5F5F5"/>
<path d="M334.026 208.075C334.026 208.544 334.227 208.994 334.584 209.326C334.941 209.658 335.425 209.845 335.93 209.845C336.435 209.844 336.919 209.658 337.276 209.326C337.633 208.994 337.834 208.544 337.834 208.075C337.834 207.605 337.633 207.155 337.276 206.823C336.919 206.491 336.435 206.305 335.93 206.305C335.425 206.305 334.941 206.491 334.584 206.823C334.227 207.155 334.026 207.605 334.026 208.074V208.075Z" stroke="#FF6726" stroke-width="0.25" stroke-miterlimit="10"/>
<path d="M327.416 205.384C327.416 205.825 327.605 206.249 327.94 206.561C328.276 206.873 328.732 207.048 329.207 207.048C329.681 207.048 330.137 206.873 330.472 206.56C330.808 206.248 330.997 205.825 330.997 205.383C330.997 204.942 330.808 204.519 330.472 204.206C330.137 203.894 329.681 203.719 329.207 203.719C328.732 203.719 328.276 203.894 327.94 204.206C327.605 204.518 327.416 204.941 327.416 205.383V205.384Z" stroke="#FF6726" stroke-width="0.25" stroke-miterlimit="10"/>
<path d="M320.803 202.697C320.66 203.001 320.618 203.337 320.681 203.663C320.743 203.99 320.909 204.291 321.156 204.53C321.403 204.769 321.721 204.934 322.07 205.005C322.418 205.076 322.781 205.049 323.113 204.928C323.445 204.808 323.731 204.598 323.935 204.326C324.139 204.054 324.251 203.732 324.258 203.4C324.265 203.069 324.166 202.743 323.974 202.464C323.781 202.184 323.504 201.965 323.178 201.832C322.961 201.744 322.727 201.696 322.49 201.692C322.253 201.687 322.018 201.727 321.798 201.807C321.577 201.887 321.376 202.007 321.205 202.16C321.034 202.313 320.898 202.495 320.803 202.697Z" stroke="#FF6726" stroke-width="0.25" stroke-miterlimit="10"/>
<path d="M316.777 234.653L241.55 203.027C241.053 202.818 240.666 202.435 240.474 201.96C240.281 201.486 240.299 200.96 240.524 200.499L247.486 186.186C247.71 185.724 248.123 185.364 248.633 185.185C249.143 185.007 249.708 185.023 250.205 185.232L325.432 216.858C325.929 217.067 326.316 217.45 326.508 217.925C326.701 218.399 326.682 218.925 326.458 219.386L319.496 233.699C319.271 234.161 318.859 234.521 318.349 234.699C317.839 234.878 317.273 234.862 316.777 234.653Z" fill="white"/>
<path d="M237.074 207.593L235.409 211.016L313.795 243.969L315.46 240.547L237.074 207.593Z" fill="white"/>
<path d="M232.973 216.001L231.315 219.426L309.636 252.51L311.294 249.085L232.973 216.001Z" fill="white"/>
<path d="M268.08 240.898L266.415 244.32L305.607 260.797L307.272 257.375L268.08 240.898Z" fill="white"/>
<path d="M46.8779 277.455L45.9902 281.156L129.637 296.435L130.525 292.734L46.8779 277.455Z" fill="white"/>
<path d="M44.6862 286.548L43.8057 290.25L127.418 305.671L128.298 301.969L44.6862 286.548Z" fill="white"/>
<path d="M84.3348 303.288L83.4473 306.988L125.27 314.628L126.157 310.927L84.3348 303.288Z" fill="white"/>
<path d="M203.071 216.687C203.071 216.687 231.626 238.867 242.264 245.061C242.264 245.061 249.904 242.09 249.073 243.652C248.177 244.942 247.039 246.071 245.714 246.988C245.714 246.988 257.366 252.503 250.414 254.449C243.462 256.395 240.029 248.95 240.029 248.95C240.029 248.95 199.008 231.557 193.78 224.953C188.552 218.35 184.74 195.308 196.016 191.545C207.291 187.781 208.413 202.052 203.071 216.687Z" fill="#FFB8B8" stroke="#8B4AC0" stroke-width="0.25" stroke-miterlimit="10"/>
<path d="M196.016 191.544C206.47 188.055 208.192 200.069 204.131 213.501L189.643 214.709C187.662 205.557 188.355 194.103 196.016 191.544Z" fill="#8B4AC0"/>
<path d="M210.61 183.459C212.566 183.459 214.151 181.985 214.151 180.167C214.151 178.349 212.566 176.875 210.61 176.875C208.655 176.875 207.069 178.349 207.069 180.167C207.069 181.985 208.655 183.459 210.61 183.459Z" fill="#8B4AC0" stroke="#8B4AC0" stroke-width="0.25" stroke-miterlimit="10"/>
<path d="M219.167 162.576C219.426 162.571 219.67 162.579 219.921 162.58C221.471 161.864 223.088 161.282 224.753 160.842C226.072 160.565 227.364 160.185 228.613 159.705C229.238 159.462 229.805 159.107 230.281 158.659C230.758 158.212 231.135 157.682 231.39 157.099C231.681 157.888 231.775 158.728 231.664 159.556C231.552 160.384 231.239 161.177 230.747 161.875C231.778 161.278 232.658 160.481 233.327 159.538C233.996 158.596 234.439 157.53 234.624 156.414C235.416 157.246 235.97 158.251 236.232 159.336C236.494 160.42 236.456 161.549 236.122 162.616C237.808 160.969 238.874 158.858 239.162 156.601C240.684 157.81 241.808 159.395 242.403 161.173C242.997 162.951 243.039 164.848 242.524 166.647C242.008 168.446 240.955 170.073 239.488 171.339C238.02 172.606 236.197 173.461 234.229 173.805C232.436 174.145 230.574 173.933 228.922 173.201C226.569 179.003 213.85 178.851 213.85 178.851C213.375 178.214 212.722 177.709 211.962 177.389C211.203 177.07 210.364 176.948 209.535 177.037C209.052 177.156 208.606 177.379 208.232 177.687C207.858 177.996 207.567 178.382 207.383 178.814C207.383 178.814 203.459 162.847 219.167 162.576Z" fill="black"/>
<path d="M409.489 218.086H492.689C492.741 218.086 492.79 218.105 492.827 218.139C492.863 218.173 492.884 218.219 492.884 218.267V224.014C492.884 224.062 492.863 224.108 492.827 224.142C492.79 224.176 492.741 224.195 492.689 224.195H409.489V218.086Z" fill="#FF6726"/>
<path opacity="0.6" d="M409.489 218.086H492.689C492.741 218.086 492.79 218.105 492.827 218.139C492.863 218.173 492.884 218.219 492.884 218.267V224.014C492.884 224.062 492.863 224.108 492.827 224.142C492.79 224.176 492.741 224.195 492.689 224.195H409.489V218.086Z" fill="white"/>
<path d="M491.556 224.203H411.365V225.736H491.556V224.203Z" fill="#A95C5C" stroke="#FF6726" stroke-width="0.25" stroke-miterlimit="10"/>
<path d="M417.805 224.254H411.236V319.794H417.805V224.254Z" fill="#A95C5C"/>
<path d="M491.477 224.254H484.907V319.794H491.477V224.254Z" fill="#A95C5C"/>
<path d="M379.089 189.151L385.964 217.228C386.049 217.575 385.982 217.94 385.778 218.241C385.574 218.543 385.25 218.757 384.876 218.836C384.838 218.845 384.799 218.851 384.76 218.856L363.36 221.713C363 221.761 362.635 221.682 362.336 221.49C362.036 221.299 361.826 221.01 361.745 220.681L354.87 192.604C354.785 192.257 354.852 191.892 355.056 191.591C355.26 191.289 355.584 191.075 355.958 190.996C355.996 190.988 356.035 190.981 356.074 190.976L377.474 188.119C377.833 188.071 378.199 188.151 378.498 188.342C378.797 188.533 379.008 188.822 379.089 189.151Z" fill="#FF6726"/>
<path d="M377.751 190.062L384.332 216.944L363.084 219.781L356.501 192.898L377.751 190.062Z" fill="#F1F3F7"/>
<path d="M358.752 194.872L376.81 192.461" stroke="#E2E2E2" stroke-miterlimit="10"/>
<path d="M359.36 197.411L377.417 195" stroke="#E2E2E2" stroke-miterlimit="10"/>
<path d="M366.878 199.522L378.162 198.016" stroke="#E2E2E2" stroke-miterlimit="10"/>
<path d="M367.68 201.702L378.964 200.195" stroke="#E2E2E2" stroke-miterlimit="10"/>
<path d="M368.482 203.889L379.767 202.383" stroke="#E2E2E2" stroke-miterlimit="10"/>
<path d="M364.344 215.96L375.629 214.453" stroke="#E2E2E2" stroke-miterlimit="10"/>
<path d="M387.324 217.562C386.153 216.948 385.139 216.106 384.349 215.095L381.799 212.271C381.422 211.931 381.169 211.491 381.074 211.011C382.499 210.903 383.418 212.624 384.843 212.726C384.178 210.541 383.227 208.441 382.011 206.471C381.827 206.255 381.695 206.003 381.624 205.734C381.554 205.465 381.546 205.186 381.603 204.914C383.126 205.518 384.481 206.438 385.564 207.603C386.353 208.393 387.071 209.242 387.71 210.141C389.53 212.835 390.829 215.803 391.551 218.912" fill="white"/>
<path d="M387.337 217.543C386.248 216.952 385.299 216.163 384.545 215.224C383.706 214.293 382.869 213.359 382.037 212.422C381.859 212.223 380.662 210.934 381.563 211.13C382.057 211.28 382.51 211.526 382.892 211.853C383.433 212.338 384.109 212.673 384.844 212.821C384.91 212.829 384.958 212.755 384.941 212.702C384.346 210.753 383.527 208.87 382.499 207.083C382.304 206.746 381.63 205.972 381.686 205.568C381.793 204.794 382.752 205.537 383.08 205.734C384.002 206.311 384.841 206.995 385.577 207.768C388.506 210.978 390.523 214.82 391.441 218.942C391.45 218.969 391.469 218.991 391.495 219.004C391.521 219.017 391.551 219.021 391.58 219.014C391.608 219.006 391.633 218.989 391.647 218.965C391.662 218.941 391.667 218.913 391.659 218.886C390.975 215.928 389.768 213.095 388.089 210.502C386.62 208.033 384.364 206.048 381.632 204.82C381.604 204.813 381.575 204.817 381.55 204.83C381.526 204.843 381.507 204.864 381.499 204.89C381.241 205.87 382.111 206.807 382.567 207.63C383.205 208.781 383.755 209.971 384.214 211.192C384.318 211.47 384.418 211.749 384.514 212.029C384.615 212.33 384.823 212.617 384.358 212.532C383.86 212.352 383.406 212.079 383.026 211.73C382.5 211.255 381.807 210.971 381.075 210.932C381.063 210.932 381.052 210.935 381.041 210.939C381.03 210.943 381.021 210.95 381.013 210.957C381.005 210.965 380.998 210.974 380.994 210.984C380.99 210.994 380.988 211.005 380.988 211.016L380.991 211.035C381.146 211.604 381.47 212.121 381.926 212.527C382.566 213.231 383.207 213.933 383.848 214.636C384.769 215.832 385.95 216.836 387.313 217.583C387.34 217.596 387.365 217.558 387.337 217.545L387.337 217.543Z" fill="#FF6726"/>
<path d="M393.458 240.177L408.739 228.191C408.739 228.191 415.85 237.158 413.171 245.809C411.854 250.063 410.2 252.172 409.483 254.191C408.812 256.076 404.213 282.769 404.555 284.72C404.898 286.672 407.368 292.132 408.31 297.874C409.444 304.781 409.251 327.283 410.13 333.249C411.009 339.215 405.083 340.224 404.757 338.206C401.972 320.954 394.615 294.07 393.585 285.445C392.556 276.82 392.974 261.026 393.458 240.177Z" fill="#FFB8B8"/>
<path d="M403.728 332.663C403.728 332.663 405.151 338.923 404.768 339.721C404.048 341.246 402.964 342.598 401.599 343.676C400.12 344.555 396.844 345.601 396.582 345.982C396.433 346.178 396.37 346.419 396.405 346.656C396.44 346.893 396.57 347.109 396.77 347.26C398.13 348.146 399.791 348.538 401.441 348.361C405.883 347.68 406.342 345.853 408.93 345.561C409.377 345.511 410.205 346.125 411.44 345.537C411.984 345.31 412.44 344.936 412.749 344.462C413.058 343.989 413.205 343.44 413.171 342.887C412.846 341.304 412.177 339.8 411.204 338.466C410.463 337.191 409.941 331.355 409.941 331.355" fill="#FFB8B8"/>
<path d="M396.424 347.564C396.1 347.049 396.018 346.27 396.319 346.079C397.205 345.511 398.129 344.994 399.084 344.532C399.946 344.164 401.312 343.839 400.831 344.08C400.349 344.322 401.235 345.226 402.042 345.18C404.826 345.021 406.879 343.301 408.466 342.932C409.28 342.647 410.009 342.185 410.591 341.585C411.174 340.984 411.593 340.263 411.814 339.48C412.533 340.36 413.088 341.345 413.458 342.395C413.748 343.104 413.864 343.864 413.797 344.62C413.555 345.303 413.468 346.026 413.543 346.741C413.04 347.027 412.48 347.214 411.898 347.293C411.311 347.377 410.715 347.385 410.126 347.317L409.929 345.981C409.453 345.976 408.979 346.019 408.513 346.11C407.744 346.317 407.014 346.633 406.35 347.049C406.032 347.402 405.778 348.045 405.357 348.242C404.219 348.764 402.974 349.053 401.705 349.089C398.719 349.251 396.977 348.445 396.424 347.564Z" fill="#455A64"/>
<path d="M372.593 347.312C372.922 346.975 376.461 346.439 378.122 345.795C379.737 345.018 381.08 343.829 381.993 342.366C382.301 340.089 382.381 337.789 382.232 335.497C381.901 323.213 379.459 293.194 379.106 286.004C378.492 273.509 380.236 260.611 385.407 240.552L404.663 226.812C404.663 226.812 410.055 236.133 408.25 245.044C407.203 250.214 402.59 251.01 401.81 253.019C401.03 255.028 389.38 287.426 389.38 287.426C390.819 292.21 391.625 297.139 391.778 302.104C391.89 308.654 388.695 328.413 388.103 335.94C388.033 337.412 387.761 340.933 388.227 342.054C388.798 343.427 390.254 345.04 390.181 346.774C390.128 347.33 389.888 347.857 389.496 348.28C389.103 348.703 388.577 349 387.993 349.131C386.629 349.524 385.868 348.791 385.399 348.773C382.684 348.668 381.932 350.404 377.246 350.403C375.517 350.326 373.871 349.69 372.593 348.604C372.411 348.432 372.309 348.2 372.309 347.958C372.309 347.717 372.411 347.485 372.593 347.312Z" fill="#FFB8B8"/>
<path d="M372.19 348.844C371.934 348.285 371.968 347.503 372.307 347.36C373.311 346.932 374.343 346.561 375.396 346.251C376.341 346.017 377.8 345.903 377.267 346.069C376.734 346.235 377.51 347.263 378.349 347.34C381.246 347.607 383.626 346.218 385.319 346.095C386.136 345.963 386.897 345.621 387.516 345.108C388.136 344.595 388.589 343.931 388.824 343.191C389.587 344.137 390.171 345.195 390.552 346.323C390.744 347.062 390.748 347.833 390.564 348.574C390.21 349.213 390.01 349.915 389.979 350.633C389.412 350.84 388.806 350.94 388.197 350.928C387.578 350.921 386.962 350.839 386.365 350.683V349.331C385.876 349.254 385.38 349.225 384.885 349.244C384.029 349.307 383.205 349.577 382.497 350.029C382.099 350.307 381.68 350.776 381.211 350.886C379.974 351.205 378.681 351.296 377.407 351.154C374.302 350.86 372.627 349.798 372.19 348.844Z" fill="#455A64"/>
<path d="M408.336 226.684C409.643 228.018 414.3 235.233 414.35 241.106C414.399 246.978 412.152 250.744 411.95 251.97C410.473 260.94 409.045 271.759 409.045 272.347C409.045 272.934 403.568 276.33 396.202 275.899C382.592 275.102 377.3 271.789 377.3 271.789C377.3 271.789 377.944 250.059 380.042 239.344C381.094 233.974 385.672 225.332 385.672 225.332" fill="#455A64"/>
<path d="M408.336 226.684C409.643 228.018 414.3 235.233 414.35 241.106C414.399 246.978 412.152 250.744 411.95 251.97C410.473 260.94 409.045 271.759 409.045 272.347C409.045 272.934 403.568 276.33 396.202 275.899C382.592 275.102 377.3 271.789 377.3 271.789C377.3 271.789 377.944 250.059 380.042 239.344C381.094 233.974 385.672 225.332 385.672 225.332" stroke="#FF6726" stroke-width="0.25" stroke-miterlimit="10"/>
<path d="M420.753 203.222C420.753 203.222 418.562 213.348 417.986 215.15C417.411 216.952 414.567 228.393 411.872 228.194C409.177 227.995 394.414 216.537 394.414 216.537L396.505 212.649L409.499 218.409C409.499 218.409 410.674 205.33 411.703 202.215" fill="#FFB8B8"/>
<path d="M415.729 209.449C414.354 213.969 411.534 218.734 410.691 222.239C410.522 222.943 401.523 219.901 401.503 216.759" fill="white"/>
<path d="M415.671 209.44C414.926 211.673 413.96 213.833 412.993 215.989C412.077 217.867 411.306 219.804 410.685 221.784C410.603 222.082 410.672 222.174 410.404 222.233C410.222 222.244 410.04 222.222 409.866 222.17C409.344 222.063 408.831 221.921 408.331 221.744C406.954 221.285 405.638 220.681 404.408 219.944C403.725 219.629 403.121 219.182 402.637 218.635C402.152 218.087 401.798 217.45 401.597 216.766C401.596 216.743 401.586 216.722 401.568 216.707C401.551 216.691 401.528 216.682 401.504 216.682C401.48 216.682 401.456 216.691 401.439 216.707C401.422 216.722 401.411 216.743 401.411 216.766C401.323 217.938 402.518 218.938 403.419 219.585C404.697 220.471 406.099 221.192 407.587 221.726C408.207 221.967 408.845 222.167 409.495 222.325C409.838 222.447 410.207 222.489 410.571 222.448C411.032 222.306 411.018 221.498 411.136 221.132C411.5 220.009 411.958 218.914 412.431 217.827C413.737 215.11 414.858 212.318 415.787 209.47C415.791 209.456 415.788 209.441 415.78 209.429C415.772 209.417 415.76 209.408 415.745 209.404C415.73 209.401 415.714 209.402 415.701 209.409C415.687 209.416 415.677 209.427 415.672 209.44H415.671Z" fill="#FF6726"/>
<path d="M411.951 189.184C411.951 189.184 416.26 189.61 418.445 191.165C424.016 195.128 419.704 209.514 419.704 209.514C419.704 209.514 419.979 210.281 416.239 210.086C413.947 209.96 411.682 209.562 409.5 208.902L410.58 197.114" fill="#F02681"/>
<path d="M416.883 197.332C416.883 197.332 417.356 205.789 415.709 210.057C414.681 210.031 413.658 209.907 412.658 209.684L416.883 197.332Z" fill="url(#paint0_linear_1812_247)"/>
<path d="M391.356 162.648C388.76 165.779 389.273 170.18 389.914 174.088C390.237 176.063 390.561 178.039 390.885 180.015C390.836 180.499 390.916 180.988 391.117 181.438C391.319 181.887 391.636 182.284 392.041 182.593C392.446 182.902 392.926 183.113 393.44 183.209C393.953 183.305 394.484 183.283 394.986 183.144L394.955 188.049C397.963 188.116 400.973 188.127 403.983 188.082C403.986 186.933 404.252 185.798 404.763 184.752C406.235 184.725 407.219 183.353 407.795 182.093C408.433 180.629 408.972 179.131 409.412 177.605C410.115 175.612 410.544 173.544 410.687 171.451C410.824 169.339 410.147 167.251 408.778 165.561C407.751 164.492 406.503 163.625 405.11 163.013C403.243 162.107 401.002 161.393 399.077 162.186" fill="white"/>
<path d="M390.123 175.982C389.413 171.631 388.186 166.425 391.321 162.626L399.044 162.07C401.615 161.084 404.523 162.405 406.679 163.709C407.655 164.273 408.5 165.011 409.164 165.882C409.829 166.753 410.3 167.738 410.55 168.781C410.993 171.157 410.823 173.597 410.054 175.901C409.53 178.382 408.647 180.786 407.429 183.046C407.038 183.749 406.421 184.321 405.663 184.682C405.47 184.76 405.165 184.761 404.992 184.852C404.66 185.028 404.506 185.681 404.415 185.99C404.219 186.672 404.115 187.374 404.105 188.08C404.105 188.11 404.092 188.138 404.069 188.16C404.046 188.181 404.015 188.193 403.983 188.194C400.973 188.235 397.964 188.222 394.955 188.156C394.924 188.155 394.894 188.143 394.872 188.123C394.85 188.103 394.837 188.075 394.837 188.046L394.854 185.593L394.86 184.674C394.862 184.429 395.008 183.643 394.868 183.447C394.616 183.094 393.837 183.269 393.391 183.203C392.877 183.144 392.388 182.959 391.977 182.667C391.294 182.025 390.885 181.175 390.824 180.274C390.566 178.847 390.356 177.412 390.123 175.982Z" fill="#FFB8B8"/>
<path d="M394.469 177.563C394.878 176.355 394.789 175.048 394.221 173.897C394.045 173.531 393.773 173.211 393.43 172.967C393.198 172.816 392.929 172.723 392.647 172.696C392.366 172.669 392.082 172.709 391.822 172.812C391.479 172.96 391.196 173.205 391.013 173.512C390.43 171.271 390.239 168.956 390.449 166.658C390.559 164.96 391.191 163.326 392.268 161.951C393.346 160.575 394.825 159.515 396.529 158.896C402.904 156.461 412.061 158.866 414.65 164.683C415.617 167.097 415.869 169.709 415.38 172.245C414.892 174.781 413.68 177.148 411.871 179.1C408.557 182.361 403.791 182.84 399.392 182.168C397.142 181.824 393.668 182.03 392.503 179.185C392.484 179.135 392.479 179.081 392.488 179.029C392.497 178.976 392.52 178.927 392.555 178.885C392.59 178.843 392.636 178.81 392.688 178.789C392.741 178.767 392.798 178.759 392.854 178.763C393.769 178.829 394.404 177.867 394.469 177.563Z" fill="black"/>
<path d="M394.634 177.606C394.871 176.89 394.939 176.136 394.835 175.393C394.73 174.651 394.455 173.938 394.028 173.303C393.848 173.062 393.605 172.867 393.322 172.737C393.038 172.606 392.724 172.545 392.409 172.558C392.093 172.571 391.786 172.658 391.517 172.811C391.247 172.964 391.023 173.178 390.867 173.433L391.178 173.471C390.265 170.491 390.245 167.337 391.119 164.348C391.559 163.184 392.255 162.118 393.163 161.218C394.072 160.318 395.171 159.604 396.393 159.122C398.638 158.288 401.062 157.957 403.47 158.156C405.877 158.354 408.201 159.076 410.253 160.264C412.286 161.404 413.848 163.147 414.687 165.212C415.535 167.544 415.701 170.044 415.168 172.456C414.71 174.933 413.49 177.234 411.656 179.081C409.587 180.982 406.836 182.105 403.93 182.234C402.4 182.313 400.866 182.236 399.354 182.005C398.259 181.856 397.146 181.806 396.065 181.578C395.438 181.459 394.836 181.247 394.281 180.951C393.796 180.679 392.925 180.07 392.837 179.502C392.739 178.871 393.65 178.812 394.033 178.477C394.312 178.24 394.519 177.94 394.633 177.606C394.644 177.567 394.637 177.524 394.614 177.489C394.592 177.453 394.556 177.428 394.513 177.417C394.47 177.406 394.425 177.411 394.386 177.43C394.347 177.45 394.318 177.483 394.305 177.522C394.085 178.23 393.486 178.434 392.809 178.613C392.463 178.705 392.27 178.864 392.339 179.229C392.515 179.721 392.803 180.173 393.182 180.553C393.561 180.934 394.023 181.235 394.538 181.436C395.536 181.826 396.595 182.061 397.675 182.133C399 182.278 400.323 182.493 401.656 182.563C404.548 182.798 407.445 182.18 409.938 180.799C412.251 179.341 413.979 177.213 414.853 174.746C416.602 170.165 416.137 164.394 411.983 161.06C410.04 159.59 407.747 158.573 405.296 158.092C402.845 157.612 400.306 157.682 397.89 158.297C396.453 158.637 395.112 159.26 393.959 160.125C392.805 160.99 391.865 162.076 391.204 163.309C390.569 164.649 390.236 166.096 390.224 167.56C390.128 169.576 390.338 171.595 390.849 173.556C390.858 173.586 390.877 173.612 390.902 173.632C390.927 173.652 390.958 173.664 390.991 173.668C391.024 173.672 391.057 173.667 391.087 173.654C391.117 173.641 391.142 173.62 391.16 173.594C391.271 173.408 391.425 173.248 391.612 173.126C391.799 173.003 392.013 172.922 392.238 172.886C392.463 172.851 392.694 172.864 392.914 172.923C393.133 172.983 393.335 173.087 393.505 173.229C393.908 173.612 394.197 174.086 394.343 174.604C394.591 175.565 394.577 176.568 394.304 177.523C394.264 177.721 394.592 177.806 394.634 177.606Z" fill="black"/>
<path d="M393.98 169.819C393.743 170.164 393.799 170.628 393.577 170.981C393.212 171.499 392.668 171.886 392.036 172.078C390.954 172.544 391.207 174.009 391.238 174.663C390.422 174.159 390.29 172.786 390.093 172.088C389.871 171.305 389.73 170.501 389.484 169.724C389.162 168.994 388.917 168.236 388.756 167.461C388.722 166.017 389.051 164.586 389.716 163.28C390.38 161.975 391.363 160.832 392.586 159.942C393.474 159.398 394.516 159.114 395.579 159.125C396.642 159.137 397.677 159.444 398.551 160.007C399.324 160.503 399.918 161.205 400.254 162.02C400.345 162.186 400.399 162.368 400.41 162.554C400.421 162.74 400.391 162.927 400.32 163.101" fill="black"/>
<path d="M393.953 169.8C393.796 170.247 393.607 170.685 393.388 171.109C392.978 171.52 392.474 171.84 391.914 172.047C391.686 172.183 391.497 172.367 391.361 172.584C391.225 172.801 391.146 173.045 391.131 173.296C391.087 173.628 391.084 173.963 391.122 174.296C391.147 174.521 391.223 174.515 391.093 174.433C390.848 174.204 390.673 173.918 390.586 173.605C390.292 172.71 390.054 171.801 389.874 170.88C389.443 169.728 389.095 168.549 388.834 167.353C388.769 166.313 388.947 165.272 389.355 164.301C389.692 163.267 390.252 162.309 391 161.483C391.748 160.657 392.669 159.981 393.707 159.496C394.996 159.082 396.407 159.145 397.647 159.671C398.843 160.163 400.704 161.666 400.215 163.07C400.171 163.196 400.377 163.244 400.425 163.124C401.029 161.629 399.027 159.99 397.739 159.469C396.925 159.12 396.031 158.967 395.137 159.023C394.244 159.079 393.38 159.343 392.624 159.79C391.14 160.823 390.001 162.225 389.338 163.835C388.971 164.655 388.743 165.523 388.663 166.408C388.625 167.38 388.818 168.347 389.227 169.241C389.619 170.384 389.928 171.551 390.153 172.732C390.229 173.494 390.598 174.204 391.192 174.733C391.213 174.744 391.239 174.747 391.262 174.741C391.286 174.735 391.306 174.721 391.318 174.701C391.326 174.688 391.33 174.674 391.33 174.659C391.267 173.62 391.138 172.594 392.294 172.046C392.765 171.865 393.179 171.577 393.497 171.208C393.818 170.781 393.779 170.293 394.008 169.83C394.024 169.796 393.972 169.766 393.952 169.8L393.953 169.8Z" fill="black"/>
<path d="M408.465 189.224C408.312 188.266 408.034 187.148 407.075 186.771C406.803 186.678 406.517 186.622 406.228 186.604C403.292 186.302 400.338 186.172 397.384 186.216C396.159 186.161 394.937 186.36 393.805 186.8C392.189 187.781 390.965 189.229 390.321 190.92" fill="#F02681"/>
<path d="M383.597 224.333C384.198 223.742 384.765 223.121 385.295 222.473C386.255 219.433 386.677 216.268 386.543 213.103C386.242 211.384 384.606 210.459 383.868 206.634C383.194 203.005 384.068 199.275 386.305 196.235C388.023 193.916 387.005 193.929 387.592 191.087C387.645 190.571 387.855 190.08 388.199 189.672C389.268 189.032 390.423 188.524 391.633 188.16C396.407 187.472 399.212 188.009 404.038 188.206C406.431 188.293 408.812 188.573 411.153 189.042C413.747 189.574 416.007 190.214 416.541 193.487C417.282 198.523 416.76 203.65 415.017 208.467C413.92 211.649 407.369 222.658 408.992 224.789C409.58 225.384 410.057 226.067 410.404 226.808C410.815 229.033 405.407 229.816 403.093 229.992C399.393 230.182 395.684 230.16 391.987 229.927C389.309 229.811 383.452 228.942 383.036 225.866C383.009 225.308 383.209 224.76 383.597 224.333Z" fill="#F02681"/>
<path d="M384.615 207.583C384.713 208.467 384.952 209.332 385.326 210.15C386.876 210.726 388.591 210.798 390.19 210.354C390.712 207.428 391.447 204.537 392.389 201.703C392.389 201.703 384.616 206.755 384.615 207.583Z" fill="url(#paint1_linear_1812_247)"/>
<path d="M406.898 180.116C407.839 179.952 408.811 180.038 409.702 180.363C410.593 180.689 411.368 181.241 411.938 181.956C413.351 183.53 413.963 185.975 412.642 187.616C412.117 188.209 411.465 188.693 410.726 189.036C408.573 190.273 406 190.717 403.513 190.281C402.285 190.033 401.178 189.42 400.359 188.535C399.541 187.649 399.054 186.54 398.975 185.374C399.001 183.268 400.655 181.509 402.328 180.088" fill="black"/>
<path d="M406.912 180.168C408.063 180.011 409.238 180.203 410.261 180.717C411.285 181.231 412.103 182.038 412.593 183.019C413.172 183.984 413.387 185.102 413.202 186.194C413.063 186.737 412.8 187.245 412.431 187.685C412.062 188.126 411.595 188.487 411.063 188.744C408.917 190.071 406.315 190.603 403.769 190.238C402.721 190.047 401.747 189.598 400.949 188.937C400.151 188.277 399.559 187.429 399.234 186.483C398.491 183.935 400.541 181.758 402.359 180.118C402.4 180.081 402.339 180.026 402.297 180.06C400.473 181.544 398.542 183.589 398.918 186.02C399.135 187.034 399.651 187.971 400.408 188.728C401.165 189.484 402.134 190.03 403.205 190.305C404.565 190.591 405.972 190.615 407.342 190.375C408.711 190.135 410.013 189.637 411.168 188.911C412.198 188.402 412.974 187.539 413.327 186.505C413.588 185.457 413.466 184.359 412.98 183.383C411.995 181.258 409.462 179.439 406.882 180.068C406.875 180.069 406.869 180.072 406.863 180.077C406.857 180.081 406.852 180.086 406.849 180.092C406.845 180.098 406.843 180.104 406.842 180.111C406.841 180.118 406.841 180.125 406.843 180.131C406.845 180.138 406.849 180.144 406.853 180.149C406.858 180.155 406.863 180.159 406.87 180.163C406.876 180.166 406.883 180.168 406.89 180.169C406.898 180.17 406.905 180.169 406.912 180.168L406.912 180.168Z" fill="black"/>
<path d="M387.304 208.544C387.304 208.544 374.706 227.303 370.88 227.303C368.098 227.303 359.215 210.527 359.215 210.527L363.527 208.629L370.412 216.396L378.835 202.875" fill="#FFB8B8"/>
<path d="M364.382 209.996C363.632 208.923 363.177 207.695 363.057 206.42C363.261 205.166 363.294 203.893 363.157 202.631C362.764 201.725 362.281 200.854 361.715 200.031C361.301 199.694 359.769 199.153 359.395 199.393C359.02 199.634 358.554 198.527 357.933 198.623C357.636 198.66 357.361 198.789 357.154 198.991C356.947 199.192 356.82 199.453 356.794 199.73C356.794 200.26 355.965 200.356 355.862 200.741C355.827 201.084 355.758 201.422 355.655 201.752C355.499 202.041 355.042 201.898 354.878 202.619C354.728 203.278 354.93 203.341 354.878 203.678C354.826 204.015 354.515 203.984 354.619 204.625C354.831 205.399 355.164 206.139 355.61 206.821C356.192 207.754 357.019 208.533 358.015 209.085C358.645 209.56 359.128 210.181 359.417 210.886" fill="#FFB8B8"/>
<path d="M396.145 187.857C393.849 187.968 387.163 186.878 383.448 190.49C380.336 193.517 378.552 201.452 377.3 204.67C380.417 207.624 383.421 210.008 388.146 209.048C388.324 208.925 390.668 202.067 392.374 201.456" fill="#F02681"/>
<path d="M376.89 72.4579H349.097C348.164 72.4579 347.269 72.1131 346.608 71.4994C345.948 70.8857 345.577 70.0533 345.577 69.1853V43.3466C345.577 42.4787 345.948 41.6464 346.608 41.0327C347.268 40.419 348.164 40.0743 349.097 40.0742H376.89C377.352 40.0742 377.81 40.1588 378.237 40.3233C378.664 40.4877 379.052 40.7287 379.379 41.0326C379.705 41.3364 379.965 41.6971 380.142 42.0941C380.319 42.4911 380.41 42.9167 380.41 43.3464V69.1853C380.41 70.0533 380.039 70.8857 379.379 71.4994C378.718 72.1131 377.823 72.4579 376.89 72.4579Z" fill="#ECECEC"/>
<path d="M220.375 155.504L202.666 135.591C202.071 134.922 201.786 134.061 201.874 133.197C201.962 132.333 202.416 131.537 203.136 130.984L224.555 114.52C224.911 114.246 225.322 114.04 225.763 113.914C226.205 113.788 226.67 113.744 227.13 113.784C227.59 113.825 228.037 113.949 228.445 114.15C228.854 114.352 229.216 114.626 229.51 114.957L247.219 134.87C247.814 135.539 248.099 136.4 248.011 137.264C247.923 138.128 247.469 138.924 246.75 139.477L225.331 155.941C224.611 156.494 223.685 156.759 222.756 156.677C221.826 156.595 220.97 156.173 220.375 155.505L220.375 155.504Z" fill="#8B4AC0"/>
<path opacity="0.3" d="M220.375 155.504L202.666 135.591C202.071 134.922 201.786 134.061 201.874 133.197C201.962 132.333 202.416 131.537 203.136 130.984L224.555 114.52C224.911 114.246 225.322 114.04 225.763 113.914C226.205 113.788 226.67 113.744 227.13 113.784C227.59 113.825 228.037 113.949 228.445 114.15C228.854 114.352 229.216 114.626 229.51 114.957L247.219 134.87C247.814 135.539 248.099 136.4 248.011 137.264C247.923 138.128 247.469 138.924 246.75 139.477L225.331 155.941C224.611 156.494 223.685 156.759 222.756 156.677C221.826 156.595 220.97 156.173 220.375 155.505L220.375 155.504Z" fill="white"/>
<path d="M209.945 113.896C211.027 117.028 212.567 116.265 214.169 118.053C216.023 120.12 218.518 122.25 216.761 124.527C216.49 124.879 215.616 124.945 215.613 123.878C215.378 124.075 214.686 125.473 214.396 125.682C213.27 126.491 212.442 127.276 211.15 125.773C210.15 125.452 209.252 124.906 208.535 124.184C207.818 123.461 207.304 122.585 207.041 121.633C206.643 120 207.618 119.086 206.731 117.456C205.844 115.825 203.098 114.386 201.625 113.031" fill="#FFB8B8"/>
<path d="M209.89 113.917C210.139 114.875 210.71 115.733 211.519 116.368C212.335 116.805 213.112 117.302 213.842 117.855C214.927 118.851 215.877 119.966 216.672 121.176C217.139 121.847 217.322 122.655 217.184 123.443C217.113 123.848 216.917 124.224 216.62 124.527C216.099 124.927 215.752 124.328 215.726 123.885C215.725 123.864 215.718 123.844 215.706 123.827C215.693 123.811 215.676 123.797 215.656 123.79C215.635 123.782 215.613 123.78 215.591 123.783C215.57 123.787 215.55 123.796 215.534 123.811C215.166 124.29 214.841 124.795 214.559 125.322C214.107 125.963 212.899 126.788 212.062 126.403C211.634 126.206 211.374 125.826 210.972 125.62C210.383 125.38 209.822 125.084 209.299 124.737C208.352 123.984 207.644 123.006 207.252 121.907C207.067 120.904 207.061 119.879 207.233 118.874C207.203 118.088 206.894 117.334 206.355 116.729C204.928 115.345 203.359 114.095 201.67 112.997C201.658 112.986 201.642 112.98 201.626 112.98C201.609 112.981 201.594 112.987 201.582 112.997C201.571 113.008 201.564 113.023 201.564 113.038C201.564 113.053 201.57 113.068 201.581 113.079C203.114 114.639 205.568 115.576 206.63 117.517C207.265 118.677 206.775 119.745 206.828 120.948C206.928 121.979 207.347 122.96 208.033 123.775C208.651 124.597 209.494 125.252 210.474 125.671C210.891 125.856 211.277 126.095 211.62 126.382C211.896 126.607 212.249 126.733 212.616 126.735C213.361 126.609 214.038 126.248 214.532 125.714C215.035 125.208 215.195 124.464 215.693 123.959L215.501 123.885C215.543 124.592 216.187 125.268 216.858 124.587C218.029 123.397 217.319 121.651 216.481 120.526C215.935 119.831 215.35 119.164 214.729 118.526C214.255 117.958 213.695 117.456 213.066 117.038C212.594 116.754 212.072 116.543 211.62 116.228C210.844 115.613 210.281 114.799 210.002 113.887C209.977 113.822 209.866 113.849 209.89 113.916V113.917Z" fill="#FF6726"/>
<path d="M203.919 71.8747C200.785 93.0752 203.51 103.302 211.609 115.281C210.797 117.853 207.043 118.362 203.729 117.281C168.925 80.4314 190.315 49.5708 200.281 45.3047" fill="#F02681"/>
<path d="M208.224 26.9102C208.678 30.6734 209.393 34.4054 210.366 38.0828C211.704 42.0552 214.649 45.7794 211.704 49.2554C204.476 58.4418 187.344 46.5243 187.344 37.8345" fill="#FFB8B8"/>
<path d="M208.166 26.9171C208.493 29.4002 208.847 31.8806 209.353 34.3384C209.613 35.6005 209.881 36.8801 210.272 38.1139C210.616 39.2008 211.113 40.2473 211.565 41.2978C212.475 43.412 213.479 45.8483 212.377 48.0717C211.581 49.5806 210.292 50.8166 208.695 51.6024C202.889 54.4437 195.682 50.2239 191.798 46.3111C189.328 44.0411 187.773 41.0505 187.393 37.8409C187.393 37.8288 187.388 37.8172 187.379 37.8086C187.37 37.8 187.357 37.7952 187.344 37.7952C187.331 37.7952 187.319 37.8 187.31 37.8086C187.3 37.8172 187.295 37.8288 187.295 37.8409C187.175 40.605 188.858 43.2931 190.657 45.3766C192.856 47.9382 195.663 49.9909 198.859 51.3734C201.614 52.7128 204.822 53.0026 207.804 52.1814C209.193 51.6965 210.421 50.8817 211.366 49.8181C212.065 49.1012 212.569 48.2386 212.835 47.303C213.101 46.3674 213.121 45.3861 212.894 44.4417C212.551 43.1306 212.08 41.8513 211.487 40.6199C210.877 39.2532 210.385 37.8436 210.016 36.4044C209.236 33.2716 208.777 30.0813 208.281 26.902C208.272 26.842 208.159 26.8555 208.166 26.9165L208.166 26.9171Z" fill="#FF6726"/>
<path d="M184.55 30.804C183.39 27.8663 182.433 24.5839 186.216 21.9788C196.22 15.0887 202.154 20.6551 205.246 20.6551C206.674 20.4342 209.475 15.2641 210.956 21.7581C213.572 33.2311 201.916 40.0707 191.45 36.3199C191.212 38.9674 194.542 41.3945 194.304 43.38C193.829 46.2484 189.823 46.4027 187.644 45.3658C182.419 42.8805 177.651 30.5836 184.55 30.804Z" fill="black"/>
<path d="M184.714 30.7632C183.786 28.3947 183.005 25.7022 184.787 23.4917C186.001 22.1857 187.499 21.1338 189.182 20.4052C190.49 19.7405 191.892 19.2506 193.347 18.9499C195.549 18.5357 197.827 18.6454 199.971 19.2689C201.431 19.6739 202.81 20.3378 204.286 20.684C204.708 20.8353 205.175 20.8422 205.602 20.7036C206.096 20.4245 206.547 20.083 206.94 19.6889C207.406 19.1844 208.028 18.8258 208.721 18.6623C209.775 18.5851 210.235 19.9201 210.476 20.6472C211.309 22.9377 211.421 25.4019 210.799 27.7496C210.176 30.0973 208.845 32.2309 206.963 33.8991C204.848 35.5463 202.292 36.6278 199.567 37.0275C196.842 37.4273 194.052 37.1304 191.494 36.1685C191.45 36.1578 191.404 36.1637 191.364 36.1851C191.325 36.2065 191.296 36.2414 191.285 36.2824C191.281 36.2948 191.279 36.3075 191.279 36.3203C191.303 37.57 191.725 38.7849 192.493 39.8108C193.168 40.8761 194.37 42.2046 194.103 43.5257C193.568 46.1732 189.627 46.1798 187.61 45.1715C185.746 44.072 184.253 42.5062 183.303 40.6538C182.17 38.8414 181.483 36.8177 181.293 34.7287C181.184 32.676 182.107 30.9179 184.55 30.963C184.594 30.9614 184.636 30.944 184.666 30.9145C184.697 30.885 184.714 30.8457 184.714 30.8048C184.714 30.764 184.697 30.7247 184.666 30.6952C184.636 30.6657 184.594 30.6483 184.55 30.6467C179.182 30.5472 181.118 37.1473 182.479 39.8408C183.435 41.961 184.985 43.8045 186.966 45.1799C188.833 46.3296 192.061 46.6498 193.7 44.96C194.135 44.4887 194.395 43.8997 194.442 43.2802C194.489 42.6607 194.32 42.0437 193.96 41.5205C193.057 39.85 191.508 38.3069 191.619 36.3207L191.404 36.4726C193.788 37.3548 196.368 37.681 198.919 37.4227C201.47 37.1644 203.914 36.3294 206.038 34.9907C208.055 33.6051 209.617 31.7248 210.549 29.5603C211.482 27.3959 211.747 25.0329 211.316 22.736C211.128 21.5481 210.64 18.0219 208.559 18.363C207.918 18.5351 207.339 18.8632 206.881 19.3132C206.432 19.6812 205.877 20.365 205.266 20.4901C204.588 20.4965 203.918 20.3488 203.316 20.0599C202.476 19.7733 201.651 19.4524 200.804 19.1849C198.729 18.4876 196.509 18.2451 194.317 18.4762C190.702 19.0264 187.363 20.6116 184.763 23.0108C182.644 25.3358 183.363 28.2395 184.386 30.8479C184.461 31.0371 184.79 30.9552 184.714 30.7632Z" fill="black"/>
<path d="M535.901 250.852C543.014 283.418 555.855 300.594 566.955 299.364L540.908 180.105C538.69 187.532 529.463 221.383 535.901 250.852Z" fill="#15BA75"/>
<path d="M576.463 249.811C565.601 275.576 566.229 292.985 574.59 296.79L614.368 202.438C609.207 206.699 586.293 226.495 576.463 249.811Z" fill="#15BA75"/>
<path d="M507.67 212.371C507.67 212.371 507.646 212.781 507.623 213.533L549.523 295.83C549.703 295.767 549.884 295.705 550.058 295.628C557.834 292.206 557.483 276.359 545.778 253.368C534.072 230.377 507.67 212.371 507.67 212.371Z" fill="#15BA75"/>
<path d="M617.169 342.471C617.169 345.977 593.236 348.811 563.716 348.8C534.196 348.79 510.267 345.938 510.268 342.431C510.269 338.924 534.202 336.091 563.722 336.102C593.242 336.112 617.171 338.964 617.169 342.471Z" fill="#ECECEC"/>
<path d="M541.367 178.609C541.367 178.609 541.195 179.134 540.906 180.103L566.953 299.362C567.208 299.333 567.464 299.306 567.718 299.258C578.986 297.13 583.984 276.461 576.706 243.146C569.429 209.83 541.367 178.609 541.367 178.609Z" fill="#15BA75"/>
<path d="M561.669 272.392C559.892 264.372 558.127 256.349 556.374 248.324C552.848 232.277 549.211 216.252 545.462 200.248C545.453 200.213 545.429 200.182 545.396 200.162C545.363 200.143 545.323 200.136 545.284 200.143C545.246 200.151 545.212 200.172 545.19 200.202C545.167 200.232 545.158 200.268 545.164 200.304C547.381 211.177 549.644 222.041 551.953 232.896C547.996 229.891 543.702 227.292 539.147 225.141C538.914 225.037 538.673 225.375 538.867 225.534C542.956 228.725 547.408 231.491 552.143 233.783C553.187 238.699 554.222 243.618 555.288 248.531C557.03 256.558 558.771 264.585 560.51 272.613C562.229 280.595 563.462 288.846 565.874 296.668C565.904 296.782 565.979 296.88 566.085 296.943C566.191 297.006 566.318 297.028 566.441 297.005C566.564 296.981 566.673 296.915 566.744 296.819C566.815 296.723 566.843 296.605 566.823 296.49C565.761 288.41 563.435 280.364 561.669 272.392Z" fill="white"/>
<path d="M559.047 262.423C552.33 257.485 545.167 253.094 537.638 249.3C537.602 249.279 537.558 249.272 537.516 249.281C537.474 249.29 537.438 249.313 537.414 249.346C537.39 249.38 537.381 249.42 537.389 249.459C537.397 249.498 537.421 249.533 537.455 249.557C544.149 254.522 551.291 258.941 558.802 262.765C558.851 262.793 558.909 262.802 558.966 262.791C559.022 262.779 559.071 262.748 559.102 262.704C559.134 262.659 559.146 262.605 559.136 262.553C559.125 262.5 559.094 262.454 559.047 262.423L559.047 262.423Z" fill="white"/>
<path d="M566.509 232.398C564.461 234.937 562.527 237.553 560.563 240.149C558.667 242.409 557.035 244.85 555.692 247.43C555.677 247.478 555.679 247.53 555.697 247.577C555.716 247.624 555.75 247.664 555.795 247.692C555.84 247.719 555.893 247.733 555.947 247.73C556.001 247.728 556.052 247.709 556.094 247.677C558.126 245.522 559.907 243.173 561.405 240.668C563.209 237.974 565.046 235.298 566.762 232.556C566.785 232.525 566.795 232.487 566.788 232.45C566.781 232.413 566.758 232.38 566.725 232.358C566.692 232.336 566.651 232.328 566.612 232.334C566.572 232.34 566.536 232.361 566.513 232.392L566.509 232.398Z" fill="white"/>
<path d="M572.758 262.979C569.124 267.317 565.812 271.879 562.845 276.635C562.825 276.663 562.811 276.694 562.804 276.727C562.797 276.761 562.797 276.795 562.805 276.828C562.812 276.861 562.826 276.892 562.846 276.92C562.867 276.948 562.893 276.972 562.923 276.991C562.953 277.009 562.987 277.022 563.023 277.029C563.058 277.035 563.095 277.035 563.13 277.028C563.166 277.022 563.2 277.008 563.23 276.99C563.26 276.971 563.286 276.947 563.306 276.918C566.858 272.523 570.086 267.909 572.965 263.107C572.982 263.081 572.988 263.051 572.981 263.021C572.974 262.992 572.955 262.966 572.928 262.949C572.901 262.932 572.868 262.926 572.836 262.932C572.805 262.937 572.776 262.954 572.758 262.979Z" fill="white"/>
<path d="M565.313 286.798C559.804 282.734 553.91 279.141 547.705 276.062C547.666 276.041 547.618 276.034 547.573 276.043C547.528 276.053 547.489 276.078 547.464 276.114C547.438 276.15 547.429 276.193 547.437 276.235C547.445 276.278 547.47 276.315 547.507 276.341C552.976 280.452 558.834 284.096 565.008 287.227C565.069 287.26 565.142 287.271 565.211 287.256C565.281 287.242 565.341 287.203 565.38 287.147C565.42 287.092 565.435 287.025 565.422 286.96C565.409 286.895 565.37 286.837 565.313 286.798V286.798Z" fill="white"/>
<path d="M615.416 201.586C615.416 201.586 615.041 201.881 614.368 202.437L574.591 296.79C574.783 296.878 574.975 296.967 575.176 297.04C584.092 300.288 597.638 287.934 608.749 261.575C619.86 235.216 615.416 201.586 615.416 201.586Z" fill="#15BA75"/>
<path d="M584.006 275.698C586.664 269.342 589.331 262.99 592.008 256.64C597.346 243.934 602.596 231.198 607.757 218.43C607.768 218.402 607.766 218.37 607.752 218.342C607.739 218.314 607.714 218.293 607.683 218.282C607.653 218.27 607.619 218.271 607.588 218.283C607.558 218.294 607.534 218.317 607.521 218.345C603.783 226.879 600.083 235.428 596.42 243.991C595.113 240.226 593.374 236.603 591.234 233.185C591.204 233.15 591.162 233.126 591.116 233.116C591.069 233.106 591.021 233.11 590.977 233.128C590.933 233.146 590.897 233.176 590.873 233.215C590.85 233.253 590.84 233.298 590.847 233.342C592.155 237.292 593.923 241.098 596.121 244.691C594.46 248.569 592.791 252.442 591.148 256.327C588.463 262.674 585.777 269.019 583.09 275.364C580.41 281.669 577.26 287.958 575.144 294.443C575.109 294.534 575.114 294.635 575.157 294.724C575.2 294.812 575.279 294.882 575.377 294.917C575.474 294.953 575.583 294.952 575.679 294.914C575.776 294.877 575.853 294.806 575.894 294.716C579.078 288.621 581.364 282.016 584.006 275.698Z" fill="white"/>
<path d="M587.021 267.627C584.725 261.35 581.851 255.269 578.432 249.451C578.416 249.422 578.388 249.4 578.355 249.39C578.322 249.379 578.286 249.381 578.254 249.394C578.222 249.407 578.197 249.431 578.183 249.461C578.17 249.491 578.168 249.524 578.18 249.555C580.447 255.84 583.293 261.933 586.685 267.765C586.707 267.803 586.744 267.832 586.788 267.846C586.832 267.86 586.88 267.858 586.922 267.84C586.965 267.823 586.998 267.791 587.017 267.752C587.035 267.712 587.037 267.667 587.021 267.627V267.627Z" fill="white"/>
<path d="M606.843 249.759C604.177 250.674 601.552 251.691 598.917 252.68C596.492 253.464 594.163 254.485 591.969 255.725C591.934 255.752 591.91 255.789 591.899 255.83C591.888 255.871 591.893 255.914 591.911 255.952C591.929 255.991 591.96 256.023 592 256.044C592.039 256.064 592.085 256.072 592.13 256.067C594.599 255.414 596.987 254.519 599.253 253.397C601.825 252.272 604.411 251.172 606.945 249.976C606.976 249.963 607 249.94 607.012 249.91C607.024 249.881 607.023 249.849 607.01 249.821C606.996 249.792 606.971 249.77 606.94 249.758C606.909 249.747 606.874 249.747 606.843 249.76V249.759Z" fill="white"/>
<path d="M596.34 273.779C591.689 275.285 587.154 277.084 582.766 279.163C582.712 279.187 582.67 279.229 582.65 279.281C582.629 279.333 582.63 279.391 582.654 279.441C582.678 279.492 582.722 279.533 582.778 279.554C582.833 279.575 582.895 279.575 582.95 279.555C587.573 277.974 592.074 276.103 596.423 273.955C596.446 273.943 596.464 273.924 596.472 273.901C596.481 273.878 596.479 273.853 596.469 273.831C596.458 273.809 596.439 273.791 596.415 273.781C596.391 273.772 596.364 273.771 596.34 273.779V273.779Z" fill="white"/>
<path d="M579.55 287.298C577.673 282.139 575.299 277.149 572.457 272.388C572.441 272.354 572.411 272.328 572.374 272.314C572.337 272.301 572.296 272.302 572.26 272.316C572.223 272.331 572.195 272.359 572.18 272.393C572.166 272.428 572.167 272.466 572.182 272.5C574.008 277.674 576.333 282.684 579.128 287.469C579.154 287.519 579.2 287.558 579.256 287.578C579.312 287.597 579.374 287.596 579.429 287.573C579.483 287.551 579.527 287.51 579.55 287.458C579.572 287.407 579.573 287.349 579.55 287.298H579.55Z" fill="white"/>
<path d="M517.615 265.75C529.058 288.223 541.695 298.563 549.521 295.821L507.621 213.523C507.442 219.286 507.262 245.414 517.615 265.75Z" fill="#15BA75"/>
<path d="M540.486 277.124C537.65 271.592 534.822 266.058 532.002 260.52C526.35 249.45 520.62 238.414 514.813 227.412C514.806 227.399 514.797 227.388 514.786 227.379C514.775 227.37 514.762 227.362 514.748 227.358C514.734 227.353 514.719 227.351 514.704 227.352C514.689 227.352 514.675 227.356 514.661 227.362C514.648 227.368 514.636 227.376 514.626 227.386C514.616 227.397 514.608 227.409 514.603 227.422C514.598 227.435 514.596 227.449 514.597 227.463C514.597 227.476 514.601 227.49 514.607 227.503C518.312 235.032 522.049 242.547 525.818 250.047C522.364 248.524 518.744 247.35 515.02 246.547C514.977 246.544 514.935 246.555 514.899 246.576C514.863 246.598 514.836 246.631 514.821 246.668C514.807 246.706 514.806 246.747 514.819 246.785C514.831 246.823 514.857 246.856 514.892 246.88C518.478 248.517 522.245 249.785 526.126 250.661C527.833 254.059 529.531 257.46 531.252 260.851C534.064 266.392 536.876 271.934 539.685 277.476C542.472 282.988 544.958 288.777 548.218 294.058C548.261 294.136 548.335 294.196 548.424 294.224C548.513 294.253 548.611 294.248 548.697 294.21C548.782 294.173 548.848 294.106 548.881 294.023C548.914 293.941 548.911 293.85 548.873 293.77C546.545 288.078 543.305 282.621 540.486 277.124Z" fill="white"/>
<path d="M536.661 270.321C530.83 267.852 524.78 265.856 518.58 264.353C518.55 264.344 518.517 264.347 518.488 264.36C518.46 264.373 518.438 264.396 518.427 264.424C518.416 264.452 518.417 264.483 518.43 264.51C518.443 264.537 518.467 264.559 518.497 264.57C524.316 267.062 530.356 269.083 536.549 270.61C536.57 270.617 536.592 270.62 536.613 270.619C536.635 270.618 536.656 270.613 536.676 270.605C536.696 270.596 536.713 270.584 536.728 270.569C536.742 270.554 536.754 270.537 536.761 270.518C536.768 270.499 536.772 270.479 536.771 270.458C536.77 270.438 536.764 270.418 536.755 270.4C536.746 270.382 536.733 270.365 536.717 270.352C536.701 270.338 536.682 270.328 536.661 270.321L536.661 270.321Z" fill="white"/>
<path d="M536.296 247.254C535.298 249.439 534.397 251.662 533.47 253.874C532.528 255.832 531.813 257.877 531.335 259.975C531.333 260.012 531.343 260.05 531.366 260.081C531.388 260.113 531.421 260.137 531.459 260.149C531.497 260.162 531.539 260.163 531.578 260.152C531.617 260.14 531.65 260.118 531.674 260.087C532.735 258.183 533.576 256.18 534.182 254.111C534.974 251.854 535.792 249.604 536.511 247.325C536.521 247.299 536.52 247.27 536.507 247.244C536.494 247.219 536.47 247.199 536.442 247.19C536.413 247.18 536.382 247.182 536.355 247.194C536.327 247.206 536.306 247.227 536.296 247.254Z" fill="white"/>
<path d="M546.728 268.44C544.924 272.196 543.398 276.063 542.158 280.012C542.14 280.06 542.142 280.113 542.166 280.159C542.189 280.205 542.231 280.24 542.283 280.258C542.334 280.275 542.391 280.272 542.441 280.251C542.491 280.229 542.529 280.19 542.547 280.142C544.282 276.357 545.737 272.467 546.903 268.499C546.908 268.489 546.911 268.477 546.911 268.466C546.911 268.454 546.908 268.443 546.903 268.432C546.898 268.421 546.891 268.412 546.882 268.404C546.873 268.395 546.863 268.389 546.851 268.385C546.84 268.381 546.827 268.379 546.815 268.379C546.802 268.379 546.79 268.382 546.779 268.387C546.768 268.391 546.757 268.398 546.749 268.407C546.74 268.415 546.734 268.425 546.73 268.436L546.728 268.44L546.728 268.44Z" fill="white"/>
<path d="M545.909 286.983C541.123 284.948 536.15 283.319 531.049 282.117C531.017 282.11 530.983 282.114 530.954 282.128C530.925 282.143 530.902 282.167 530.891 282.196C530.88 282.225 530.881 282.257 530.893 282.285C530.906 282.314 530.929 282.337 530.959 282.351C535.724 284.427 540.681 286.098 545.77 287.345C545.82 287.358 545.874 287.352 545.92 287.33C545.966 287.307 546.001 287.27 546.019 287.224C546.037 287.178 546.035 287.128 546.015 287.084C545.994 287.039 545.956 287.003 545.909 286.983Z" fill="white"/>
<path d="M524.483 289.379V320.002C524.483 326.421 527.226 332.576 532.107 337.115C536.989 341.653 543.61 344.203 550.514 344.203H575.685C577.548 343.806 579.387 343.316 581.193 342.734C582.438 342.485 583.662 342.151 584.855 341.735C584.876 341.731 584.934 341.716 584.95 341.715L584.941 341.707C589.872 339.964 594.116 336.869 597.112 332.832C600.108 328.796 601.714 324.008 601.716 319.103V289.379H524.483Z" fill="#263238"/>
<path opacity="0.2" d="M524.483 289.379V320.002C524.483 326.421 527.226 332.576 532.107 337.115C536.989 341.653 543.61 344.203 550.514 344.203H575.685C577.548 343.806 579.387 343.316 581.193 342.734C582.438 342.485 583.662 342.151 584.855 341.735C584.876 341.731 584.934 341.716 584.95 341.715L584.941 341.707C589.872 339.964 594.116 336.869 597.112 332.832C600.108 328.796 601.714 324.008 601.716 319.103V289.379H524.483Z" fill="white"/>
<path d="M214.006 135.45L214.263 137.558C214.292 137.793 214.42 138.008 214.619 138.156C214.818 138.304 215.072 138.372 215.325 138.345L217.238 138.144C217.448 138.612 217.712 139.057 218.026 139.471L216.828 140.87C216.669 141.055 216.596 141.292 216.625 141.527C216.653 141.763 216.782 141.978 216.981 142.125L218.767 143.447C218.966 143.595 219.22 143.663 219.474 143.636C219.727 143.609 219.958 143.49 220.117 143.305L221.314 141.907C221.819 142.098 222.345 142.237 222.883 142.322L223.101 144.102C223.115 144.218 223.154 144.331 223.215 144.434C223.276 144.536 223.358 144.627 223.456 144.7C223.555 144.773 223.668 144.827 223.789 144.859C223.91 144.892 224.037 144.902 224.162 144.889L226.431 144.649C226.684 144.623 226.916 144.504 227.075 144.319C227.234 144.133 227.307 143.897 227.279 143.661L227.061 141.882C227.564 141.687 228.042 141.442 228.488 141.15L229.993 142.264C230.192 142.411 230.447 142.479 230.7 142.453C230.953 142.426 231.185 142.307 231.343 142.122L232.765 140.461C232.924 140.276 232.997 140.039 232.968 139.804C232.94 139.569 232.812 139.354 232.612 139.206L231.107 138.092C231.313 137.623 231.463 137.134 231.555 136.634L233.468 136.433C233.721 136.406 233.953 136.287 234.112 136.101C234.271 135.916 234.344 135.68 234.315 135.444L234.058 133.336C234.029 133.1 233.901 132.885 233.701 132.737C233.502 132.59 233.247 132.522 232.994 132.549L231.081 132.751C230.871 132.283 230.607 131.838 230.293 131.423L231.492 130.025C231.651 129.839 231.724 129.603 231.695 129.368C231.666 129.132 231.538 128.917 231.339 128.769L229.553 127.447C229.354 127.3 229.099 127.232 228.846 127.258C228.593 127.285 228.362 127.404 228.203 127.59L227.004 128.988C226.5 128.797 225.974 128.658 225.437 128.572L225.221 126.793C225.192 126.557 225.063 126.342 224.864 126.194C224.664 126.047 224.41 125.979 224.156 126.006L221.889 126.245C221.636 126.271 221.404 126.391 221.246 126.576C221.087 126.761 221.014 126.997 221.043 127.233L221.26 129.011C220.756 129.206 220.277 129.451 219.83 129.743L218.327 128.63C218.127 128.482 217.873 128.414 217.62 128.441C217.367 128.467 217.135 128.587 216.977 128.772L215.555 130.432C215.476 130.524 215.418 130.629 215.383 130.742C215.348 130.855 215.337 130.973 215.351 131.089C215.366 131.206 215.404 131.319 215.466 131.421C215.527 131.524 215.609 131.614 215.708 131.687L217.211 132.801C217.005 133.27 216.855 133.759 216.764 134.259L214.851 134.461C214.598 134.488 214.367 134.607 214.209 134.793C214.05 134.978 213.977 135.215 214.006 135.45ZM220.161 135.869C220.071 135.133 220.218 134.389 220.583 133.731C220.948 133.073 221.515 132.531 222.211 132.172C222.908 131.813 223.704 131.655 224.497 131.717C225.291 131.778 226.047 132.057 226.67 132.518C227.293 132.98 227.755 133.602 227.997 134.307C228.239 135.013 228.251 135.769 228.032 136.48C227.812 137.192 227.37 137.827 226.762 138.305C226.154 138.783 225.407 139.083 224.615 139.166C223.555 139.278 222.489 138.993 221.654 138.375C220.819 137.756 220.281 136.855 220.161 135.869Z" fill="white"/>
<path d="M284.5 143.754C284.5 145.412 283.842 147.001 282.669 148.173C281.497 149.345 279.908 150.004 278.25 150.004C276.592 150.004 275.003 149.345 273.831 148.173C272.658 147.001 272 145.412 272 143.754V115.629C272 113.971 272.658 112.382 273.831 111.209C275.003 110.037 276.592 109.379 278.25 109.379C279.908 109.379 281.497 110.037 282.669 111.209C283.842 112.382 284.5 113.971 284.5 115.629V143.754Z" fill="#15BA75"/>
<path d="M372 143.754C372 145.412 371.342 147.001 370.169 148.173C368.997 149.345 367.408 150.004 365.75 150.004C364.092 150.004 362.503 149.345 361.331 148.173C360.158 147.001 359.5 145.412 359.5 143.754V115.629C359.5 113.971 360.158 112.382 361.331 111.209C362.503 110.037 364.092 109.379 365.75 109.379C367.408 109.379 368.997 110.037 370.169 111.209C371.342 112.382 372 113.971 372 115.629V143.754Z" fill="#15BA75"/>
<path d="M315.75 178.125C315.75 179.783 315.092 181.372 313.919 182.544C312.747 183.717 311.158 184.375 309.5 184.375C307.842 184.375 306.253 183.717 305.081 182.544C303.908 181.372 303.25 179.783 303.25 178.125V150C303.25 148.342 303.908 146.753 305.081 145.581C306.253 144.408 307.842 143.75 309.5 143.75C311.158 143.75 312.747 144.408 313.919 145.581C315.092 146.753 315.75 148.342 315.75 150V178.125Z" fill="#15BA75"/>
<path d="M340.75 178.125C340.75 179.783 340.092 181.372 338.919 182.544C337.747 183.717 336.158 184.375 334.5 184.375C332.842 184.375 331.253 183.717 330.081 182.544C328.908 181.372 328.25 179.783 328.25 178.125V150C328.25 148.342 328.908 146.753 330.081 145.581C331.253 144.408 332.842 143.75 334.5 143.75C336.158 143.75 337.747 144.408 338.919 145.581C340.092 146.753 340.75 148.342 340.75 150V178.125Z" fill="#15BA75"/>
<path d="M290.75 109.379V156.251C290.75 157.908 291.408 159.498 292.581 160.67C293.753 161.842 295.342 162.501 297 162.501H347C348.658 162.501 350.247 161.842 351.419 160.67C352.592 159.498 353.25 157.908 353.25 156.251V109.379H290.75Z" fill="#15BA75"/>
<path d="M322 78.125C303.25 78.125 291.828 89.5156 290.75 103.125H353.25C352.169 89.5156 340.75 78.125 322 78.125ZM309.5 95.6187C308.671 95.6187 307.876 95.2895 307.29 94.7035C306.704 94.1174 306.375 93.3225 306.375 92.4937C306.375 91.6649 306.704 90.8701 307.29 90.284C307.876 89.698 308.671 89.3687 309.5 89.3687C310.329 89.3687 311.124 89.698 311.71 90.284C312.296 90.8701 312.625 91.6649 312.625 92.4937C312.625 93.3225 312.296 94.1174 311.71 94.7035C311.124 95.2895 310.329 95.6187 309.5 95.6187ZM334.5 95.6187C333.671 95.6187 332.876 95.2895 332.29 94.7035C331.704 94.1174 331.375 93.3225 331.375 92.4937C331.375 91.6649 331.704 90.8701 332.29 90.284C332.876 89.698 333.671 89.3687 334.5 89.3687C335.329 89.3687 336.124 89.698 336.71 90.284C337.296 90.8701 337.625 91.6649 337.625 92.4937C337.625 93.3225 337.296 94.1174 336.71 94.7035C336.124 95.2895 335.329 95.6187 334.5 95.6187Z" fill="#15BA75"/>
<path d="M340.75 75L335.544 82.8094L340.75 75Z" fill="#15BA75"/>
<path d="M340.75 75L335.544 82.8094" stroke="#15BA75" stroke-width="2" stroke-linecap="round"/>
<path d="M303.25 75L307.416 81.5062L303.25 75Z" fill="#15BA75"/>
<path d="M303.25 75L307.416 81.5062" stroke="#15BA75" stroke-width="2" stroke-linecap="round"/>
</g>
<defs>
<linearGradient id="paint0_linear_1812_247" x1="416.946" y1="203.695" x2="412.658" y2="203.695" gradientUnits="userSpaceOnUse">
<stop stop-color="white"/>
<stop offset="0.6429" stop-color="#C6C0B9"/>
</linearGradient>
<linearGradient id="paint1_linear_1812_247" x1="-92031.7" y1="-22429.6" x2="-91987.3" y2="-22429.6" gradientUnits="userSpaceOnUse">
<stop stop-color="#FF8B7B"/>
</linearGradient>
<clipPath id="clip0_1812_247">
<rect width="690" height="350" fill="white"/>
</clipPath>
</defs>
</svg>
