<svg width="690" height="350" viewBox="0 0 690 350" fill="none" xmlns="http://www.w3.org/2000/svg">
<path d="M168.705 11.7052L179.248 11.48L184.6 11.3915C186.392 11.3915 188.184 11.3915 189.984 11.3516H190.337V11.7133L190.385 20.7073V21.1089H189.984L179.367 21.0528C175.815 21.0528 172.271 20.9642 168.727 20.9243H168.504V20.7073C168.504 19.1803 168.576 17.6696 168.608 16.167L168.705 11.7052ZM168.705 11.7052L168.817 16.2536C168.817 17.748 168.906 19.229 168.921 20.6978L168.704 20.4807C172.248 20.4807 175.792 20.3522 179.344 20.3522L189.984 20.2961L189.582 20.6978L189.622 11.7039L189.984 12.0657C188.226 12.0657 186.48 12.0657 184.72 12.0177L179.433 11.9291L168.705 11.7052Z" fill="#D7E8F7"/>
<path d="M180.573 0.369224L191.116 0.144039L196.468 0.0398991C198.26 0.0398991 200.06 0.0398978 201.852 0H202.206V0.361785L202.254 9.35569V9.75737H201.868L191.213 9.68096C187.66 9.68096 184.117 9.59237 180.573 9.55247H180.348V9.35974C180.348 7.83281 180.42 6.32211 180.452 4.81952L180.573 0.369224ZM180.573 0.369224L180.685 4.91757C180.685 6.41205 180.774 7.893 180.789 9.36177L180.572 9.1447C184.116 9.1447 187.66 9.01622 191.212 9.01622L201.868 8.96009L201.466 9.36177V0.369224L201.828 0.731009C200.076 0.731009 198.325 0.73101 196.564 0.682997L191.277 0.59441L180.573 0.369224Z" fill="#D7E8F7"/>
<path d="M201.21 115.901L211.753 115.676L217.104 115.587C218.896 115.587 220.697 115.587 222.489 115.539H222.842V115.901L222.89 124.895V125.296H222.489L211.849 125.24C208.296 125.24 204.753 125.152 201.209 125.112H200.984V124.895C200.984 123.368 201.057 121.852 201.089 120.346L201.21 115.901ZM201.21 115.901L201.322 120.441C201.322 121.936 201.41 123.423 201.426 124.893L201.209 124.668C204.753 124.628 208.296 124.547 211.849 124.539L222.489 124.491L222.087 124.893V115.899L222.449 116.252C220.69 116.252 218.945 116.252 217.185 116.213L211.897 116.124L201.21 115.901Z" fill="#EBEBEB"/>
<path d="M213.12 104.565L223.664 104.34L229.015 104.251C230.807 104.211 232.607 104.251 234.399 104.203H234.753V104.565L234.801 113.559V113.96H234.399L223.76 113.904C220.207 113.904 216.664 113.816 213.12 113.776H212.895V113.559C212.895 112.032 212.967 110.516 213.007 109.01L213.12 104.565ZM213.12 104.565L213.233 109.105C213.233 110.6 213.321 112.087 213.337 113.557L213.12 113.348C216.664 113.348 220.207 113.227 223.76 113.219L234.399 113.171L233.998 113.573V104.579L234.36 104.933H229.096L223.808 104.844L213.12 104.565Z" fill="#EBEBEB"/>
<path d="M156.866 0.368388L167.416 0.143202L172.729 0.0390625H178.465V0.400847L178.505 9.39475V9.79643H178.095L167.466 9.68215C163.922 9.68215 160.379 9.59356 156.826 9.55366H156.609V9.36094C156.609 7.834 156.682 6.3233 156.714 4.82071L156.866 0.368388ZM156.866 0.368388L156.987 4.91673C156.987 6.41121 157.075 7.89216 157.091 9.36094L156.866 9.14387C160.418 9.14387 163.961 9.01538 167.506 9.01538L178.145 8.95926L177.744 9.36094L177.76 0.367036L178.114 0.728821C176.361 0.728821 174.618 0.728821 172.858 0.680809L167.57 0.592222L156.866 0.368388Z" fill="#D7E8F7"/>
<path d="M472.899 195.67L462.356 195.887L457.005 195.983C455.213 195.983 453.421 195.983 451.62 196.023H451.267V195.662L451.219 186.668V186.258H451.62L462.26 186.306C465.813 186.306 469.356 186.394 472.9 186.434H473.125V186.651C473.125 188.17 473.053 189.689 473.021 191.192L472.899 195.67ZM472.899 195.67L472.787 191.121C472.787 189.627 472.699 188.146 472.683 186.677L472.9 186.894C469.356 186.934 465.813 187.023 462.26 187.023L451.62 187.079L452.022 186.677L451.982 195.671L451.62 195.309C453.379 195.309 455.124 195.309 456.884 195.357L462.172 195.446L472.899 195.67Z" fill="#EBEBEB"/>
<path d="M484.776 207.005L474.227 207.222L468.875 207.319C467.083 207.319 465.291 207.319 463.499 207.359H463.138V207.005L463.098 198.011V197.602H463.507L474.147 197.65C477.691 197.65 481.235 197.738 484.787 197.778H485.004V197.995C485.004 199.514 484.932 201.033 484.9 202.535L484.776 207.005ZM484.776 207.005L484.656 202.457C484.656 200.962 484.567 199.481 484.552 198.013L484.777 198.23C481.225 198.27 477.681 198.358 474.137 198.358L463.497 198.414L463.899 198.013L463.843 207.007L463.489 206.645C465.241 206.645 466.985 206.645 468.745 206.693L474.032 206.781L484.776 207.005Z" fill="#EBEBEB"/>
<path d="M190.161 207.005L179.618 207.222L174.266 207.319C172.474 207.319 170.674 207.319 168.882 207.359H168.528V207.005L168.48 198.011V197.602H168.919L179.559 197.65C183.111 197.65 186.655 197.738 190.199 197.778H190.424V197.995C190.424 199.514 190.351 201.033 190.311 202.535L190.161 207.005ZM190.161 207.005L190.049 202.457C190.049 200.962 189.96 199.481 189.945 198.013L190.162 198.23C186.618 198.27 183.074 198.358 179.522 198.358L168.919 198.414L169.321 198.013L169.281 207.007L168.919 206.645C170.671 206.645 172.423 206.645 174.183 206.693L179.471 206.781L190.161 207.005Z" fill="#EBEBEB"/>
<path d="M451.533 0.369294L462.082 0.144108L467.434 0.0555215C469.218 0.0555215 471.018 0.0555228 472.81 0.015625H473.172V0.374028L473.211 9.36793V9.77367H472.813L462.173 9.68508C458.629 9.68508 455.078 9.59649 451.533 9.5566H451.316V9.36387C451.316 7.83694 451.384 6.32623 451.421 4.82364L451.533 0.369294ZM451.533 0.369294L451.645 4.91764C451.685 6.41211 451.742 7.89306 451.749 9.36184L451.532 9.14477C455.076 9.14477 458.628 9.01629 462.172 9.01629L472.813 8.96219L472.411 9.36387L472.46 0.36997L472.813 0.731755C471.061 0.731755 469.31 0.731755 467.557 0.683743L462.238 0.595156L451.533 0.369294Z" fill="#EBEBEB"/>
<path d="M205.331 76.7734H164.363V117.741H205.331V76.7734Z" fill="white"/>
<path d="M162.234 74.6406V119.875H207.493V74.6406H162.234ZM205.331 117.746H164.348V76.762H205.331V117.746Z" fill="#D7E8F7"/>
<path d="M202.391 109.808V95.6484H170.456V109.808H202.391Z" fill="#D7E8F7" fill-opacity="0.47"/>
<path d="M193.027 105.44V89.0781H176.666V105.44H193.027Z" fill="#D7E8F7"/>
<path d="M209.213 74.6406H207.469V119.875H209.213V74.6406Z" fill="#C7C7C7"/>
<path d="M238.264 134.953H197.297V175.921H238.264V134.953Z" fill="white"/>
<path d="M215.04 141.5H204.344V172.398H215.04V141.5Z" fill="#D7E8F7"/>
<path d="M195.168 132.82V178.055H240.443V132.82H195.168ZM238.271 175.925H197.291V134.942H238.271V175.925Z" fill="#D7E8F7"/>
<path d="M225.967 147.258H209.605V163.619H225.967V147.258Z" fill="#EBEBEB"/>
<path d="M242.146 132.82H240.402V178.055H242.146V132.82Z" fill="#C7C7C7"/>
<path opacity="0.19" d="M183.942 40.8913C192.556 40.8913 199.54 33.9078 199.54 25.2933C199.54 16.6788 192.556 9.69531 183.942 9.69531C175.327 9.69531 168.344 16.6788 168.344 25.2933C168.344 33.9078 175.327 40.8913 183.942 40.8913Z" fill="#ECF4FB"/>
<path opacity="0.19" d="M195.502 27.8605C195.502 30.1475 194.824 32.3832 193.553 34.2848C192.283 36.1865 190.477 37.6686 188.364 38.5438C186.251 39.419 183.926 39.648 181.683 39.2019C179.44 38.7557 177.379 37.6543 175.762 36.0371C174.145 34.42 173.043 32.3595 172.597 30.1164C172.151 27.8733 172.38 25.5482 173.255 23.4353C174.13 21.3223 175.613 19.5163 177.514 18.2457C179.416 16.9751 181.652 16.2969 183.939 16.2969C185.457 16.2969 186.961 16.596 188.364 17.1771C189.767 17.7582 191.042 18.61 192.115 19.6838C193.189 20.7575 194.041 22.0323 194.622 23.4353C195.203 24.8382 195.502 26.3419 195.502 27.8605Z" fill="#ECF4FB"/>
<path d="M200.967 27.8594L190.191 46.2218H177.687L166.91 27.8594H200.967Z" fill="#ECF4FB"/>
<path d="M193.116 52.3982H174.762L177.69 46.2188H190.191L193.116 52.3982Z" fill="#ECF4FB"/>
<path d="M192.138 42.8984L190.193 46.2174H177.683L176.211 43.7099L192.138 42.8984Z" fill="#D7E8F7"/>
<path d="M409.07 317.096V33.7323C409.07 28.9182 405.168 25.0156 400.354 25.0156L216.541 25.0156C211.727 25.0156 207.824 28.9182 207.824 33.7323L207.824 317.096C207.824 321.91 211.727 325.813 216.541 325.813H400.354C405.168 325.813 409.07 321.91 409.07 317.096Z" fill="#2C2A6B"/>
<path d="M400.576 46.0703H216.543V304.943H400.576V46.0703Z" fill="white"/>
<path d="M330.34 37.9528V36.5172C330.34 36.0503 329.961 35.6719 329.495 35.6719H287.389C286.922 35.6719 286.544 36.0503 286.544 36.5172V37.9528C286.544 38.4197 286.922 38.7981 287.389 38.7981H329.495C329.961 38.7981 330.34 38.4197 330.34 37.9528Z" fill="#2C2A6B"/>
<path d="M308.443 320.784C311.572 320.784 314.108 318.248 314.108 315.119C314.108 311.99 311.572 309.453 308.443 309.453C305.314 309.453 302.777 311.99 302.777 315.119C302.777 318.248 305.314 320.784 308.443 320.784Z" fill="#2C2A6B"/>
<path d="M400.576 46.0703H216.543V304.943H400.576V46.0703Z" fill="white"/>
<path d="M400.576 46.0703H216.543V52.3944H400.576V46.0703Z" fill="#2C2A6B"/>
<path d="M222.199 49.2245C222.199 49.4868 222.121 49.7432 221.976 49.9613C221.83 50.1793 221.623 50.3493 221.38 50.4497C221.138 50.5501 220.871 50.5763 220.614 50.5251C220.357 50.474 220.121 50.3477 219.935 50.1622C219.75 49.9768 219.624 49.7405 219.572 49.4832C219.521 49.226 219.547 48.9594 219.648 48.7171C219.748 48.4747 219.918 48.2676 220.136 48.1219C220.354 47.9762 220.611 47.8984 220.873 47.8984C221.225 47.8984 221.562 48.0382 221.811 48.2868C222.059 48.5355 222.199 48.8728 222.199 49.2245Z" fill="#C7C7C7"/>
<path d="M227.586 49.2245C227.586 49.4868 227.508 49.7432 227.362 49.9613C227.217 50.1793 227.009 50.3493 226.767 50.4497C226.525 50.5501 226.258 50.5763 226.001 50.5251C225.744 50.474 225.507 50.3477 225.322 50.1622C225.137 49.9768 225.01 49.7405 224.959 49.4832C224.908 49.226 224.934 48.9594 225.035 48.7171C225.135 48.4747 225.305 48.2676 225.523 48.1219C225.741 47.9762 225.997 47.8984 226.26 47.8984C226.611 47.8984 226.949 48.0382 227.197 48.2868C227.446 48.5355 227.586 48.8728 227.586 49.2245Z" fill="white"/>
<path d="M233.031 49.2245C233.031 49.4868 232.953 49.7432 232.808 49.9613C232.662 50.1793 232.455 50.3493 232.212 50.4497C231.97 50.5501 231.704 50.5763 231.446 50.5251C231.189 50.474 230.953 50.3477 230.767 50.1622C230.582 49.9768 230.456 49.7405 230.404 49.4832C230.353 49.226 230.379 48.9594 230.48 48.7171C230.58 48.4747 230.75 48.2676 230.968 48.1219C231.186 47.9762 231.443 47.8984 231.705 47.8984C231.879 47.8984 232.052 47.9327 232.212 47.9994C232.373 48.066 232.52 48.1637 232.643 48.2868C232.766 48.41 232.864 48.5562 232.93 48.7171C232.997 48.8779 233.031 49.0504 233.031 49.2245Z" fill="#0091FF"/>
<path opacity="0.1" d="M384.15 83.7031H232.977V234.877H384.15V83.7031Z" fill="#0091FF"/>
<path d="M248.215 149.596L245.828 147.364L248.215 145.133L248.593 145.534L246.64 147.366L248.593 149.198L248.215 149.596Z" fill="#2C2A6B"/>
<path d="M247.741 151.348C246.946 151.348 246.169 151.112 245.508 150.671C244.848 150.229 244.333 149.602 244.029 148.867C243.724 148.133 243.645 147.325 243.8 146.546C243.955 145.766 244.338 145.05 244.9 144.489C245.462 143.927 246.177 143.544 246.957 143.389C247.736 143.234 248.544 143.313 249.279 143.617C250.013 143.922 250.64 144.437 251.082 145.097C251.523 145.758 251.759 146.535 251.759 147.33C251.759 147.857 251.655 148.38 251.453 148.867C251.251 149.355 250.955 149.798 250.582 150.171C250.209 150.544 249.766 150.84 249.279 151.042C248.791 151.244 248.269 151.348 247.741 151.348ZM247.741 144.112C247.742 143.261 248.081 142.445 248.683 141.844C249.286 141.243 250.102 140.906 250.953 140.906C251.804 140.907 252.62 141.245 253.222 141.847C253.823 142.449 254.161 143.265 254.161 144.116C254.161 144.967 253.823 145.784 253.222 146.385C252.62 146.987 251.804 147.326 250.953 147.326C250.102 147.327 249.286 146.99 248.683 146.388C248.081 145.787 247.742 144.971 247.741 144.12V144.112Z" fill="#2C2A6B"/>
<path d="M369.717 149.108L369.332 148.706L371.285 146.874L369.332 145.042L369.717 144.641L372.104 146.872L369.717 149.108Z" fill="#2C2A6B"/>
<path d="M370.19 150.864C369.395 150.864 368.618 150.628 367.958 150.186C367.297 149.745 366.782 149.117 366.478 148.383C366.174 147.649 366.094 146.841 366.249 146.062C366.404 145.282 366.787 144.566 367.349 144.004C367.911 143.442 368.627 143.059 369.406 142.904C370.186 142.749 370.994 142.829 371.728 143.133C372.462 143.437 373.09 143.952 373.531 144.613C373.973 145.274 374.208 146.051 374.208 146.845C374.208 147.373 374.104 147.896 373.902 148.383C373.7 148.871 373.404 149.314 373.031 149.687C372.658 150.06 372.215 150.356 371.728 150.558C371.24 150.76 370.718 150.864 370.19 150.864ZM370.19 143.628C370.191 142.777 370.53 141.961 371.132 141.36C371.735 140.759 372.551 140.421 373.402 140.422C374.253 140.422 375.069 140.761 375.671 141.363C376.272 141.965 376.61 142.781 376.61 143.632C376.61 144.483 376.272 145.299 375.671 145.901C375.069 146.503 374.253 146.841 373.402 146.842C372.551 146.843 371.735 146.505 371.132 145.904C370.53 145.303 370.191 144.487 370.19 143.636V143.628Z" fill="#2C2A6B"/>
<path d="M353.889 132.75H263.242V222.247H353.889V132.75Z" fill="#0091FF"/>
<path opacity="0.1" d="M339.32 157.086H345.508V154.474H339.32V157.086Z" fill="black"/>
<path opacity="0.1" d="M342.766 153.805H348.953V151.193H342.766V153.805Z" fill="black"/>
<path opacity="0.1" d="M335.863 153.805H342.051V151.193H335.863V153.805Z" fill="black"/>
<path opacity="0.1" d="M268.289 153.805H274.477V151.193H268.289V153.805Z" fill="black"/>
<path opacity="0.1" d="M268.289 210.141H274.477V207.529H268.289V210.141Z" fill="black"/>
<path opacity="0.1" d="M264.832 206.844H271.02V204.232H264.832V206.844Z" fill="black"/>
<path opacity="0.1" d="M342.766 210.133H348.953V207.521H342.766V210.133Z" fill="black"/>
<path opacity="0.1" d="M316.184 177.609H309.996V180.221H316.184V177.609Z" fill="black"/>
<path opacity="0.1" d="M312.727 180.914H306.539V183.526H312.727V180.914Z" fill="black"/>
<path d="M355.552 219.602H261.578V222.238H355.552V219.602Z" fill="#0091FF"/>
<path opacity="0.1" d="M355.552 219.602H261.578V222.238H355.552V219.602Z" fill="black"/>
<path d="M353.122 95.0703H264.002L259.43 133.007H357.694L353.122 95.0703Z" fill="#0091FF"/>
<path opacity="0.6" d="M353.122 95.0703H264.002L259.43 133.007H357.694L353.122 95.0703Z" fill="black"/>
<g opacity="0.1">
<path d="M260.004 128.272L272.146 128.175L284.289 128.143L308.574 128.07L332.859 128.143L345.009 128.175L357.152 128.272L345.009 128.376L332.859 128.408L308.574 128.476L284.289 128.408L272.149 128.369L260.004 128.272Z" fill="black"/>
<path d="M260.574 123.537L272.572 123.441L284.57 123.408L308.565 123.336L332.561 123.408L344.558 123.441L356.556 123.537L344.558 123.634L332.561 123.674L308.565 123.742L284.57 123.674L272.572 123.634L260.574 123.537Z" fill="black"/>
<path d="M261.145 118.803L272.998 118.706L284.851 118.674L308.565 118.602L332.271 118.669L344.124 118.709L355.985 118.806L344.124 118.902L332.271 118.942L308.565 119.01L284.851 118.942L272.998 118.902L261.145 118.803Z" fill="black"/>
<path d="M261.715 114.066L273.434 113.967L285.142 113.927L308.568 113.859L331.993 113.927L343.701 113.967L355.418 114.064L343.701 114.16L331.993 114.2L308.568 114.268L285.142 114.195L273.434 114.163L261.715 114.066Z" fill="black"/>
<path d="M262.285 109.337L273.857 109.24L285.42 109.2L308.565 109.133L331.7 109.2L343.272 109.24L354.844 109.337L343.272 109.434L331.7 109.466L308.565 109.539L285.42 109.466L273.857 109.434L262.285 109.337Z" fill="black"/>
<path d="M262.855 104.603L274.284 104.506L285.712 104.466L308.569 104.398L331.426 104.466L342.854 104.499L354.282 104.603L342.854 104.699L331.426 104.732L308.569 104.804L285.712 104.732L274.284 104.699L262.855 104.603Z" fill="black"/>
<path d="M263.426 99.8608L274.708 99.7641L286.001 99.7317L308.566 99.6641L331.132 99.7317L342.415 99.7641L353.708 99.8608L342.415 99.965L331.132 99.9974L308.566 100.065L286.001 99.9974L274.708 99.965L263.426 99.8608Z" fill="black"/>
</g>
<path d="M318.126 173.25H298.992V216.829H318.126V173.25Z" fill="#2C2A6B"/>
<path d="M317.451 195.789H315.715V200.538H317.451V195.789Z" fill="#0091FF"/>
<path opacity="0.32" d="M317.282 196.614C317.28 196.753 317.237 196.889 317.159 197.005C317.08 197.12 316.969 197.209 316.84 197.262C316.71 197.314 316.568 197.327 316.432 197.299C316.295 197.27 316.17 197.202 316.072 197.103C315.973 197.004 315.907 196.878 315.88 196.741C315.854 196.604 315.868 196.462 315.922 196.333C315.976 196.204 316.066 196.094 316.182 196.017C316.298 195.94 316.435 195.898 316.574 195.898C316.763 195.901 316.943 195.977 317.075 196.111C317.208 196.245 317.282 196.426 317.282 196.614Z" fill="black"/>
<path d="M307.287 175.688H301.477V181.433H307.287V175.688Z" fill="#C7C7C7"/>
<path d="M307.287 183.008H301.477V195.006H307.287V183.008Z" fill="#C7C7C7"/>
<path d="M307.287 196.578H301.477V211.324H307.287V196.578Z" fill="#C7C7C7"/>
<path d="M315.009 175.688H309.207V181.433H315.009V175.688Z" fill="#C7C7C7"/>
<path d="M315.009 183.008H309.207V195.006H315.009V183.008Z" fill="#C7C7C7"/>
<path d="M315.009 196.578H309.207V211.324H315.009V196.578Z" fill="#C7C7C7"/>
<path d="M328.227 219.305H288.898V222.206H328.227V219.305Z" fill="#DBDBDB"/>
<path d="M328.727 218.711H288.402V219.305H328.727V218.711Z" fill="#C7C7C7"/>
<path d="M325.6 215.805H291.527V218.706H325.6V215.805Z" fill="#DBDBDB"/>
<path d="M326.097 215.211H291.027V215.805H326.097V215.211Z" fill="#C7C7C7"/>
<path d="M300.023 112.62C300.023 110.355 300.923 108.182 302.525 106.58C304.127 104.978 306.3 104.078 308.566 104.078C310.831 104.079 313.003 104.979 314.604 106.581C316.205 108.183 317.105 110.355 317.105 112.62H300.023Z" fill="#0091FF"/>
<path d="M314.971 124.308H302.113V112.541C302.115 110.837 302.792 109.203 303.998 107.999C305.203 106.794 306.838 106.117 308.542 106.117C310.247 106.117 311.883 106.795 313.088 108C314.294 109.206 314.971 110.841 314.971 112.546V124.308Z" fill="#2C2A6B"/>
<path d="M313.931 112.548V123.292H303.195V112.548C303.195 111.124 303.761 109.759 304.768 108.752C305.774 107.745 307.14 107.18 308.563 107.18C309.987 107.18 311.352 107.745 312.359 108.752C313.366 109.759 313.931 111.124 313.931 112.548Z" fill="#C7C7C7"/>
<g opacity="0.3">
<path d="M313.264 109.932L303.195 120.002V114.955L310.573 107.586C311.243 107.853 311.85 108.255 312.357 108.767C312.712 109.112 313.017 109.504 313.264 109.932Z" fill="white"/>
<path d="M313.925 118.242V123.265H308.902L313.925 118.242Z" fill="white"/>
<path d="M313.924 116.016V117.084L307.744 123.264H306.676L313.924 116.016Z" fill="white"/>
<path d="M309.745 107.289L303.195 113.838V112.545C303.195 112.256 303.219 111.969 303.268 111.684L307.712 107.24C307.994 107.197 308.279 107.175 308.564 107.173C308.961 107.166 309.357 107.205 309.745 107.289Z" fill="white"/>
</g>
<path d="M313.924 115.406H303.195V116.451H313.924V115.406Z" fill="#2C2A6B"/>
<path d="M309.086 123.26V107.148H308.041V123.26H309.086Z" fill="#2C2A6B"/>
<path d="M316.351 124.312H300.785V127.013H316.351V124.312Z" fill="#0091FF"/>
<path opacity="0.1" d="M316.351 124.312H300.785V127.013H316.351V124.312Z" fill="black"/>
<path d="M327.48 112.62C327.48 110.355 328.38 108.182 329.982 106.58C331.584 104.978 333.757 104.078 336.023 104.078C338.288 104.078 340.461 104.978 342.063 106.58C343.665 108.182 344.565 110.355 344.565 112.62H327.48Z" fill="#0091FF"/>
<path d="M342.426 124.308H329.641V112.541C329.642 110.837 330.32 109.203 331.525 107.999C332.731 106.794 334.365 106.117 336.07 106.117C337.775 106.117 339.41 106.795 340.616 108C341.821 109.206 342.499 110.841 342.499 112.546L342.426 124.308Z" fill="#2C2A6B"/>
<path d="M341.392 112.548V123.292H330.656V112.548C330.656 111.124 331.222 109.759 332.228 108.752C333.235 107.745 334.601 107.18 336.024 107.18C337.448 107.18 338.813 107.745 339.82 108.752C340.827 109.759 341.392 111.124 341.392 112.548Z" fill="#C7C7C7"/>
<g opacity="0.3">
<path d="M340.725 109.935L330.656 120.004V114.957L338.033 107.586C338.703 107.853 339.31 108.255 339.817 108.767C340.173 109.112 340.478 109.505 340.725 109.935Z" fill="white"/>
<path d="M341.385 118.242V123.265H336.371L341.385 118.242Z" fill="white"/>
<path d="M341.385 116.016V117.084L335.213 123.263H334.137L341.385 116.016Z" fill="white"/>
<path d="M337.206 107.289L330.656 113.839V112.545C330.656 112.257 330.68 111.969 330.729 111.685L335.173 107.241C335.455 107.198 335.74 107.175 336.025 107.173C336.422 107.165 336.818 107.203 337.206 107.285L337.206 107.289Z" fill="white"/>
</g>
<path d="M341.385 115.406H330.656V116.451H341.385V115.406Z" fill="#2C2A6B"/>
<path d="M336.547 123.26V107.148H335.502V123.26H336.547Z" fill="#2C2A6B"/>
<path d="M343.812 124.312H328.246V127.013H343.812V124.312Z" fill="#0091FF"/>
<path opacity="0.1" d="M343.812 124.312H328.246V127.013H343.812V124.312Z" fill="black"/>
<path d="M272.176 112.62C272.176 111.498 272.397 110.386 272.827 109.349C273.257 108.313 273.887 107.371 274.681 106.577C275.475 105.784 276.417 105.155 277.455 104.726C278.492 104.297 279.604 104.077 280.726 104.078C282.992 104.078 285.164 104.978 286.766 106.58C288.368 108.182 289.268 110.355 289.268 112.62H272.176Z" fill="#0091FF"/>
<path d="M287.127 124.308H274.312V112.541C274.314 110.837 274.992 109.203 276.197 107.999C277.403 106.794 279.037 106.117 280.741 106.117C282.447 106.117 284.082 106.795 285.287 108C286.493 109.206 287.17 110.841 287.17 112.546L287.127 124.308Z" fill="#2C2A6B"/>
<path d="M286.088 112.548V123.292H275.359V112.548C275.359 111.124 275.925 109.759 276.932 108.752C277.938 107.745 279.304 107.18 280.727 107.18C282.15 107.182 283.513 107.748 284.518 108.755C285.523 109.761 286.087 111.125 286.087 112.548H286.088Z" fill="#C7C7C7"/>
<g opacity="0.3">
<path d="M285.444 109.935L275.383 120.004V114.957L282.754 107.586C283.427 107.851 284.037 108.253 284.546 108.767C284.898 109.113 285.2 109.506 285.444 109.935Z" fill="white"/>
<path d="M286.089 118.242V123.265H281.066L286.089 118.242Z" fill="white"/>
<path d="M286.089 116.016V117.084L279.91 123.263H278.84L286.089 116.016Z" fill="white"/>
<path d="M281.909 107.289L275.359 113.839V112.545C275.359 112.257 275.383 111.969 275.432 111.685L279.868 107.241C280.15 107.198 280.435 107.175 280.72 107.173C281.119 107.165 281.518 107.203 281.909 107.285L281.909 107.289Z" fill="white"/>
</g>
<path d="M286.088 115.406H275.359V116.451H286.088V115.406Z" fill="#2C2A6B"/>
<path d="M281.242 123.26V107.148H280.197V123.26H281.242Z" fill="#2C2A6B"/>
<path d="M288.507 124.312H272.941V127.013H288.507V124.312Z" fill="#0091FF"/>
<path opacity="0.1" d="M288.507 124.312H272.941V127.013H288.507V124.312Z" fill="black"/>
<path d="M289.099 163.503H272.344V146.218C272.345 143.995 273.228 141.864 274.8 140.292C276.371 138.72 278.503 137.837 280.726 137.836C281.826 137.836 282.916 138.053 283.932 138.474C284.949 138.895 285.872 139.513 286.65 140.291C287.427 141.07 288.044 141.994 288.464 143.011C288.885 144.028 289.101 145.118 289.099 146.218L289.099 163.503Z" fill="#2C2A6B"/>
<path d="M287.742 146.218V162.138H273.711V146.218C273.71 145.297 273.891 144.384 274.243 143.532C274.595 142.681 275.112 141.907 275.763 141.255C276.415 140.604 277.189 140.087 278.04 139.735C278.892 139.383 279.805 139.202 280.726 139.203C282.587 139.203 284.371 139.942 285.687 141.258C287.002 142.573 287.741 144.358 287.741 146.218H287.742Z" fill="#C7C7C7"/>
<g opacity="0.3">
<path d="M286.866 142.829L273.711 155.992V149.346L283.354 139.703C284.23 140.054 285.025 140.579 285.692 141.246C286.159 141.714 286.554 142.247 286.866 142.829Z" fill="white"/>
<path d="M287.743 153.695V160.341L285.951 162.133H279.305L287.743 153.695Z" fill="white"/>
<path d="M287.741 150.781V152.188L277.793 162.136H276.387L287.741 150.781Z" fill="white"/>
<path d="M282.27 139.367L273.711 147.902V146.212C273.708 145.835 273.738 145.458 273.8 145.086L279.61 139.276C279.977 139.218 280.348 139.189 280.719 139.188C281.241 139.189 281.761 139.25 282.27 139.367Z" fill="white"/>
</g>
<path d="M287.742 149.984H273.711V151.35H287.742V149.984Z" fill="#2C2A6B"/>
<path d="M281.402 162.138V139.203H280.036V162.138H281.402Z" fill="#2C2A6B"/>
<path opacity="0.1" d="M290.894 163.5H270.547V167.028H290.894V163.5Z" fill="black"/>
<path d="M316.947 163.503H300.184V146.218C300.184 143.995 301.068 141.864 302.64 140.292C304.211 138.72 306.343 137.837 308.566 137.836C310.788 137.837 312.92 138.72 314.491 140.292C316.063 141.864 316.947 143.995 316.947 146.218L316.947 163.503Z" fill="#2C2A6B"/>
<path d="M315.581 146.218V162.138H301.516V146.218C301.516 144.358 302.255 142.574 303.57 141.258C304.886 139.942 306.67 139.203 308.531 139.203C309.455 139.199 310.371 139.377 311.226 139.727C312.081 140.078 312.859 140.594 313.514 141.245C314.169 141.897 314.689 142.672 315.044 143.526C315.399 144.379 315.581 145.294 315.581 146.218Z" fill="#C7C7C7"/>
<g opacity="0.3">
<path d="M314.711 142.829L301.516 155.992V149.346L311.159 139.703C312.657 140.309 313.9 141.413 314.679 142.829H314.711Z" fill="white"/>
<path d="M315.579 153.695V160.341L313.787 162.133H307.141L315.579 153.695Z" fill="white"/>
<path d="M315.578 150.781V152.188L305.629 162.137H304.23L315.578 150.781Z" fill="white"/>
<path d="M310.114 139.367L301.516 147.902V146.212C301.515 145.834 301.548 145.458 301.612 145.086L307.414 139.276C307.784 139.218 308.157 139.188 308.532 139.188C309.064 139.186 309.595 139.246 310.115 139.364L310.114 139.367Z" fill="white"/>
</g>
<path d="M315.578 149.984H301.547V151.35H315.578V149.984Z" fill="#2C2A6B"/>
<path d="M309.246 162.138V139.203H307.88V162.138H309.246Z" fill="#2C2A6B"/>
<path opacity="0.1" d="M318.738 163.5H298.391V167.028H318.738V163.5Z" fill="black"/>
<path d="M344.782 163.503H328.035V146.218C328.036 143.995 328.919 141.864 330.491 140.292C332.063 138.72 334.194 137.837 336.417 137.836C338.64 137.837 340.771 138.72 342.343 140.292C343.915 141.864 344.798 143.995 344.799 146.218L344.782 163.503Z" fill="#2C2A6B"/>
<path d="M343.418 146.218V162.138H329.387V146.218C329.387 144.358 330.126 142.573 331.441 141.258C332.757 139.942 334.541 139.203 336.402 139.203C338.263 139.203 340.047 139.942 341.362 141.258C342.678 142.573 343.417 144.358 343.417 146.218H343.418Z" fill="#C7C7C7"/>
<g opacity="0.3">
<path d="M342.55 142.829L329.387 155.992V149.346L339.03 139.703C340.531 140.303 341.775 141.409 342.546 142.829H342.55Z" fill="white"/>
<path d="M343.419 153.695V160.341L341.626 162.133H334.98L343.419 153.695Z" fill="white"/>
<path d="M343.418 150.781V152.188L333.469 162.137H332.07L343.418 150.781Z" fill="white"/>
<path d="M337.953 139.368L329.387 147.902V146.212C329.386 145.834 329.419 145.458 329.483 145.086L335.286 139.276C335.655 139.218 336.029 139.189 336.403 139.188C336.925 139.19 337.445 139.25 337.953 139.368Z" fill="white"/>
</g>
<path d="M343.418 149.984H329.387V151.35H343.418V149.984Z" fill="#2C2A6B"/>
<path d="M337.086 162.13V139.195H335.72V162.13H337.086Z" fill="#2C2A6B"/>
<path opacity="0.1" d="M346.574 163.5H326.227V167.028H346.574V163.5Z" fill="black"/>
<path d="M289.099 198.908H272.344V181.655C272.345 179.433 273.228 177.301 274.8 175.729C276.371 174.158 278.503 173.274 280.726 173.273C281.826 173.273 282.916 173.49 283.932 173.912C284.949 174.333 285.872 174.95 286.65 175.729C287.427 176.507 288.044 177.431 288.464 178.448C288.885 179.465 289.101 180.555 289.099 181.655L289.099 198.908Z" fill="#2C2A6B"/>
<path d="M287.742 181.656V197.575H273.711V181.656C273.71 180.734 273.891 179.821 274.243 178.969C274.595 178.117 275.111 177.343 275.763 176.69C276.414 176.038 277.188 175.521 278.04 175.168C278.891 174.815 279.804 174.633 280.726 174.633C281.648 174.633 282.561 174.815 283.413 175.168C284.264 175.521 285.038 176.038 285.69 176.69C286.341 177.343 286.858 178.117 287.21 178.969C287.562 179.821 287.742 180.734 287.741 181.656H287.742Z" fill="#C7C7C7"/>
<g opacity="0.3">
<path d="M286.866 178.251L273.711 191.414V184.768L283.354 175.125C284.23 175.476 285.025 176.001 285.692 176.668C286.159 177.135 286.554 177.669 286.866 178.251Z" fill="white"/>
<path d="M287.743 189.117V195.763L285.951 197.555H279.305L287.743 189.117Z" fill="white"/>
<path d="M287.741 186.195V187.602L277.793 197.55H276.387L287.741 186.195Z" fill="white"/>
<path d="M282.27 174.786L273.711 183.353V181.657C273.708 181.278 273.738 180.899 273.8 180.524L279.61 174.722C279.977 174.664 280.348 174.634 280.719 174.633C281.24 174.626 281.76 174.678 282.27 174.786H282.27Z" fill="white"/>
</g>
<path d="M287.742 185.398H273.711V186.764H287.742V185.398Z" fill="#2C2A6B"/>
<path d="M281.402 197.552V174.617H280.036V197.552H281.402Z" fill="#2C2A6B"/>
<path opacity="0.1" d="M290.894 198.906H270.547V202.434H290.894V198.906Z" fill="black"/>
<path d="M344.782 198.908H328.035V181.655C328.036 179.433 328.919 177.301 330.491 175.729C332.063 174.158 334.194 173.274 336.417 173.273C338.637 173.279 340.764 174.164 342.332 175.735C343.901 177.306 344.782 179.435 344.783 181.655L344.782 198.908Z" fill="#2C2A6B"/>
<path d="M343.418 181.656V197.575H329.387V181.656C329.386 180.734 329.566 179.821 329.918 178.969C330.27 178.117 330.787 177.343 331.439 176.69C332.09 176.038 332.864 175.521 333.715 175.168C334.567 174.815 335.48 174.633 336.402 174.633C337.324 174.633 338.237 174.815 339.088 175.168C339.94 175.521 340.714 176.038 341.365 176.69C342.017 177.343 342.533 178.117 342.886 178.969C343.238 179.821 343.418 180.734 343.417 181.656H343.418Z" fill="#C7C7C7"/>
<g opacity="0.3">
<path d="M342.55 178.251L329.387 191.414V184.768L339.03 175.125C340.531 175.725 341.775 176.831 342.546 178.251H342.55Z" fill="white"/>
<path d="M343.419 189.117V195.763L341.626 197.555H334.98L343.419 189.117Z" fill="white"/>
<path d="M343.418 186.195V187.602L333.469 197.551H332.07L343.418 186.195Z" fill="white"/>
<path d="M337.953 174.786L329.387 183.353V181.657C329.386 181.278 329.419 180.898 329.483 180.524L335.286 174.722C335.655 174.664 336.029 174.635 336.403 174.633C336.924 174.626 337.444 174.678 337.954 174.786H337.953Z" fill="white"/>
</g>
<path d="M343.418 185.398H329.387V186.764H343.418V185.398Z" fill="#2C2A6B"/>
<path d="M337.086 197.544V174.609H335.72V197.544H337.086Z" fill="#2C2A6B"/>
<path opacity="0.1" d="M346.574 198.906H326.227V202.434H346.574V198.906Z" fill="black"/>
<path d="M344.942 256.031H272.184V277.391H344.942V256.031Z" fill="#0091FF"/>
<path d="M292.935 268.287C293.012 268.198 293.12 268.142 293.237 268.132C293.354 268.121 293.471 268.157 293.562 268.231C294.014 268.615 294.578 268.843 295.17 268.882C295.549 268.889 295.922 268.78 296.239 268.569C296.344 268.505 296.432 268.416 296.495 268.31C296.558 268.204 296.595 268.084 296.601 267.961C296.603 267.865 296.578 267.772 296.528 267.69C296.462 267.587 296.374 267.5 296.271 267.433C295.909 267.232 295.515 267.096 295.106 267.032C294.726 266.97 294.356 266.859 294.005 266.702C293.68 266.56 293.402 266.329 293.202 266.035C293.072 265.826 293.005 265.583 293.009 265.336C293.02 265.09 293.087 264.85 293.205 264.634C293.324 264.418 293.49 264.232 293.692 264.091C294.123 263.791 294.638 263.634 295.163 263.641C295.837 263.675 296.484 263.913 297.019 264.324C297.067 264.356 297.107 264.396 297.139 264.444C297.171 264.491 297.193 264.544 297.204 264.6C297.215 264.656 297.215 264.714 297.204 264.77C297.193 264.826 297.171 264.879 297.139 264.926C297.109 264.975 297.069 265.018 297.022 265.051C296.975 265.084 296.922 265.107 296.866 265.119C296.809 265.131 296.751 265.132 296.695 265.121C296.638 265.11 296.585 265.087 296.537 265.055C296.145 264.737 295.666 264.546 295.163 264.508C294.821 264.503 294.486 264.608 294.207 264.806C294.115 264.862 294.038 264.94 293.982 265.032C293.926 265.124 293.893 265.229 293.885 265.336C293.881 265.422 293.904 265.506 293.953 265.577C294.012 265.666 294.089 265.743 294.178 265.802C294.507 265.995 294.87 266.121 295.247 266.172C295.651 266.245 296.045 266.367 296.421 266.534C296.769 266.679 297.066 266.926 297.273 267.241C297.409 267.458 297.482 267.709 297.482 267.965C297.476 268.228 297.405 268.486 297.277 268.716C297.148 268.946 296.964 269.14 296.743 269.283C296.274 269.616 295.71 269.788 295.135 269.773C294.337 269.728 293.574 269.43 292.958 268.921C292.877 268.837 292.831 268.727 292.828 268.611C292.825 268.495 292.866 268.382 292.941 268.294L292.935 268.287Z" fill="white"/>
<path d="M298.81 269.301V264.278C298.809 264.217 298.821 264.156 298.844 264.099C298.867 264.042 298.901 263.99 298.944 263.947C298.988 263.903 299.04 263.869 299.097 263.846C299.154 263.823 299.215 263.811 299.276 263.813H302.065C302.189 263.813 302.307 263.862 302.395 263.949C302.482 264.036 302.531 264.155 302.531 264.278C302.531 264.403 302.482 264.522 302.395 264.611C302.308 264.699 302.189 264.75 302.065 264.752H299.759V266.311H301.744C301.87 266.311 301.99 266.36 302.079 266.449C302.167 266.538 302.217 266.658 302.217 266.784C302.217 266.909 302.167 267.03 302.079 267.119C301.99 267.207 301.87 267.257 301.744 267.257H299.759V268.865H302.066C302.19 268.867 302.309 268.917 302.396 269.006C302.483 269.095 302.532 269.214 302.532 269.338C302.53 269.462 302.48 269.58 302.393 269.668C302.307 269.756 302.189 269.807 302.066 269.811H299.301C299.234 269.815 299.166 269.805 299.104 269.78C299.041 269.755 298.984 269.717 298.937 269.668C298.891 269.619 298.855 269.561 298.833 269.497C298.812 269.433 298.804 269.365 298.811 269.298L298.81 269.301Z" fill="white"/>
<path d="M303.864 269.301V264.278C303.863 264.217 303.874 264.156 303.897 264.099C303.92 264.042 303.955 263.99 303.998 263.947C304.042 263.903 304.093 263.869 304.15 263.846C304.207 263.823 304.268 263.811 304.33 263.813C304.392 263.812 304.453 263.823 304.511 263.846C304.568 263.869 304.62 263.903 304.664 263.946C304.708 263.99 304.743 264.041 304.767 264.098C304.791 264.155 304.803 264.217 304.803 264.278V268.827H307.142C307.267 268.827 307.388 268.877 307.476 268.965C307.565 269.054 307.615 269.175 307.615 269.3C307.615 269.426 307.565 269.546 307.476 269.635C307.388 269.724 307.267 269.774 307.142 269.774H304.329C304.267 269.774 304.206 269.761 304.149 269.737C304.092 269.714 304.041 269.679 303.997 269.634C303.954 269.59 303.92 269.538 303.897 269.481C303.874 269.423 303.862 269.362 303.863 269.3L303.864 269.301Z" fill="white"/>
<path d="M308.659 269.301V264.278C308.658 264.217 308.669 264.156 308.692 264.099C308.715 264.042 308.749 263.99 308.793 263.947C308.836 263.903 308.888 263.869 308.945 263.846C309.002 263.823 309.063 263.811 309.125 263.813H311.905C312.03 263.813 312.149 263.861 312.238 263.949C312.326 264.036 312.377 264.154 312.379 264.278C312.377 264.403 312.326 264.522 312.238 264.611C312.149 264.699 312.03 264.75 311.905 264.752H309.599V266.311H311.584C311.709 266.311 311.829 266.36 311.918 266.449C312.007 266.538 312.057 266.658 312.057 266.784C312.057 266.909 312.007 267.03 311.918 267.119C311.829 267.207 311.709 267.257 311.584 267.257H309.599V268.865H311.905C312.031 268.865 312.151 268.915 312.24 269.003C312.329 269.092 312.379 269.213 312.379 269.338C312.379 269.464 312.329 269.584 312.24 269.673C312.151 269.762 312.031 269.811 311.905 269.811H309.149C309.082 269.815 309.014 269.805 308.951 269.78C308.888 269.755 308.832 269.717 308.785 269.668C308.738 269.619 308.703 269.561 308.681 269.497C308.659 269.433 308.652 269.365 308.659 269.298V269.301Z" fill="white"/>
<path d="M313.441 266.711C313.456 265.891 313.792 265.111 314.377 264.536C314.961 263.962 315.748 263.641 316.568 263.641C317.28 263.639 317.972 263.873 318.536 264.307C318.587 264.346 318.629 264.395 318.661 264.451C318.693 264.506 318.714 264.567 318.722 264.631C318.73 264.694 318.726 264.758 318.709 264.82C318.692 264.882 318.664 264.94 318.625 264.99C318.586 265.041 318.537 265.084 318.482 265.115C318.426 265.147 318.365 265.168 318.302 265.176C318.238 265.184 318.174 265.18 318.112 265.163C318.05 265.147 317.992 265.118 317.942 265.079C317.552 264.768 317.066 264.603 316.568 264.613C316 264.616 315.455 264.834 315.041 265.222C314.643 265.615 314.418 266.15 314.414 266.709C314.413 266.985 314.469 267.259 314.576 267.513C314.684 267.767 314.842 267.997 315.041 268.188C315.451 268.583 315.998 268.805 316.568 268.807C317.067 268.817 317.554 268.649 317.942 268.334C318.048 268.264 318.176 268.236 318.301 268.253C318.427 268.271 318.542 268.334 318.625 268.43C318.701 268.534 318.734 268.662 318.717 268.79C318.701 268.917 318.636 269.033 318.536 269.113C317.972 269.548 317.28 269.782 316.568 269.78C315.748 269.782 314.96 269.461 314.374 268.887C313.789 268.312 313.454 267.53 313.441 266.71V266.711Z" fill="white"/>
<path d="M323.92 264.752H322.567V269.3C322.568 269.362 322.557 269.423 322.534 269.481C322.511 269.538 322.477 269.59 322.434 269.634C322.39 269.679 322.339 269.714 322.282 269.737C322.225 269.761 322.163 269.774 322.102 269.774C321.976 269.774 321.856 269.724 321.767 269.635C321.678 269.546 321.628 269.426 321.628 269.3V264.752H320.286C320.16 264.752 320.04 264.702 319.951 264.613C319.862 264.524 319.813 264.404 319.813 264.278C319.812 264.217 319.825 264.155 319.849 264.098C319.873 264.041 319.908 263.99 319.952 263.946C319.996 263.903 320.048 263.869 320.105 263.846C320.163 263.823 320.224 263.812 320.286 263.813H323.918C323.98 263.812 324.041 263.823 324.098 263.846C324.156 263.869 324.208 263.903 324.252 263.946C324.296 263.99 324.331 264.041 324.355 264.098C324.379 264.155 324.391 264.217 324.391 264.278C324.389 264.403 324.338 264.522 324.25 264.611C324.162 264.699 324.043 264.75 323.918 264.752H323.92Z" fill="white"/>
<path d="M350.567 242.297H266.566V242.932H350.567V242.297Z" fill="#DBDBDB"/>
<path d="M346.63 248H270.496V248.635H346.63V248Z" fill="#DBDBDB"/>
<path d="M344.189 245.148H272.949V245.783H344.189V245.148Z" fill="#DBDBDB"/>
<path d="M359.192 70.3203H257.938V71.0838H359.192V70.3203Z" fill="#C7C7C7"/>
<path d="M351.502 73.7656H265.629V74.5291H351.502V73.7656Z" fill="#C7C7C7"/>
<path d="M304.225 280.3V268.512C304.225 265.298 308.243 265.53 308.243 268.512V278.275H308.341V274.128C308.312 273.874 308.336 273.616 308.413 273.372C308.491 273.127 308.619 272.902 308.789 272.711C308.959 272.519 309.168 272.366 309.402 272.261C309.636 272.156 309.889 272.102 310.146 272.102C310.402 272.102 310.655 272.156 310.889 272.261C311.123 272.366 311.332 272.519 311.502 272.711C311.672 272.902 311.8 273.127 311.878 273.372C311.955 273.616 311.979 273.874 311.95 274.128V278.275H312.046V275.012C312.046 272.375 315.719 272.248 315.719 275.237V279.344H315.831V277.03C315.831 274.153 319.512 274.048 319.512 277.118V287.975C319.512 290 318.548 292.362 314.289 292.362H306.651C304.69 292.362 303.236 287.227 302.263 285.234C301.291 283.241 299.322 281.417 298.036 279.529C296.75 277.641 298.84 275.776 300.873 277.297C302.075 278.2 303.196 279.206 304.224 280.302L304.225 280.3Z" fill="white"/>
<path d="M314.269 292.75H306.634C304.876 292.75 303.637 289.672 302.616 287.189C302.346 286.506 302.086 285.863 301.861 285.405C301.187 284.185 300.378 283.045 299.45 282.006C298.841 281.267 298.213 280.511 297.692 279.748C297.367 279.341 297.203 278.83 297.229 278.31C297.256 277.79 297.472 277.298 297.837 276.927C298.287 276.541 298.864 276.334 299.457 276.347C300.05 276.359 300.617 276.59 301.051 276.995C302.017 277.721 302.935 278.511 303.799 279.358V268.513C303.766 267.775 304.023 267.054 304.514 266.504C304.72 266.284 304.969 266.109 305.246 265.99C305.522 265.871 305.821 265.81 306.122 265.813C306.459 265.827 306.79 265.908 307.095 266.053C307.4 266.197 307.673 266.401 307.898 266.653C308.123 266.905 308.295 267.199 308.404 267.519C308.513 267.838 308.557 268.176 308.533 268.513V272.346C308.804 272.08 309.141 271.891 309.509 271.797C309.878 271.704 310.264 271.708 310.63 271.811C310.995 271.914 311.328 272.111 311.593 272.383C311.858 272.655 312.047 272.992 312.141 273.36C312.339 273.131 312.584 272.946 312.858 272.817C313.132 272.689 313.431 272.619 313.734 272.613C314.037 272.607 314.338 272.664 314.617 272.782C314.896 272.9 315.148 273.075 315.355 273.296C315.809 273.809 316.053 274.475 316.038 275.16C316.238 274.949 316.478 274.779 316.745 274.663C317.011 274.547 317.299 274.486 317.589 274.484C318.658 274.484 319.816 275.287 319.816 277.144V288C319.886 289.76 319.195 292.75 314.269 292.75ZM299.338 277.129C298.985 277.123 298.642 277.252 298.382 277.49C298.15 277.738 298.02 278.064 298.02 278.403C298.02 278.742 298.15 279.069 298.382 279.316C298.88 280.047 299.499 280.787 300.093 281.51C301.075 282.594 301.927 283.788 302.632 285.07C302.866 285.552 303.131 286.211 303.436 286.91C304.239 288.927 305.461 291.981 306.699 291.981H314.333C318.351 291.981 319.155 289.804 319.155 287.963V277.119C319.155 275.817 318.431 275.23 317.708 275.23C316.985 275.23 316.246 275.793 316.246 277.031V279.731H315.362V275.239C315.394 274.726 315.224 274.221 314.888 273.832C314.761 273.696 314.606 273.588 314.435 273.515C314.263 273.441 314.078 273.404 313.892 273.406C313.689 273.408 313.489 273.453 313.305 273.537C313.121 273.621 312.956 273.742 312.821 273.894C312.687 274.045 312.585 274.223 312.523 274.415C312.461 274.608 312.44 274.812 312.461 275.013V278.665H311.594V274.134C311.616 273.934 311.597 273.731 311.536 273.539C311.476 273.347 311.376 273.169 311.242 273.018C311.109 272.866 310.946 272.745 310.763 272.66C310.58 272.576 310.381 272.53 310.18 272.527C309.979 272.533 309.781 272.58 309.599 272.665C309.418 272.751 309.255 272.873 309.122 273.023C308.989 273.174 308.888 273.35 308.826 273.541C308.763 273.732 308.741 273.934 308.76 274.134V278.665H307.892V268.513C307.916 268.275 307.892 268.035 307.82 267.807C307.748 267.579 307.63 267.368 307.473 267.187C307.317 267.007 307.125 266.86 306.909 266.756C306.694 266.652 306.459 266.594 306.221 266.584C306.022 266.583 305.826 266.622 305.644 266.699C305.461 266.777 305.296 266.891 305.16 267.034C304.812 267.446 304.633 267.974 304.661 268.513V281.298L303.985 280.559C302.971 279.476 301.862 278.486 300.671 277.602C300.294 277.296 299.823 277.129 299.337 277.129H299.338Z" fill="#2C2A6B"/>
<path d="M307.734 264.695C307.785 263.653 308.197 262.661 308.9 261.891C308.888 262.409 308.773 262.92 308.561 263.393C308.372 263.876 308.092 264.319 307.734 264.695Z" fill="#2C2A6B"/>
<path d="M304.899 264.695C304.551 264.317 304.278 263.875 304.096 263.394C303.888 262.916 303.773 262.403 303.758 261.883C304.471 262.65 304.885 263.648 304.924 264.695H304.899Z" fill="#2C2A6B"/>
<path d="M302.898 266.696C301.852 266.658 300.854 266.244 300.086 265.531C300.606 265.547 301.119 265.662 301.597 265.869C302.078 266.062 302.519 266.343 302.898 266.696Z" fill="#2C2A6B"/>
<path d="M302.89 269.531C302.125 270.242 301.13 270.656 300.086 270.696C300.462 270.345 300.905 270.072 301.388 269.893C301.86 269.676 302.371 269.553 302.89 269.531Z" fill="#2C2A6B"/>
<path d="M309.738 269.54C310.258 269.553 310.771 269.664 311.249 269.869C311.732 270.049 312.174 270.322 312.551 270.672C312.03 270.657 311.517 270.543 311.04 270.334C310.559 270.155 310.117 269.885 309.738 269.539V269.54Z" fill="#2C2A6B"/>
<path d="M309.738 266.704C310.115 266.353 310.557 266.08 311.04 265.901C311.516 265.689 312.03 265.575 312.551 265.562C311.783 266.275 310.785 266.689 309.738 266.728V266.704Z" fill="#2C2A6B"/>
<path d="M459.111 41.3843C458.776 44.6001 457.553 47.6594 455.58 50.2208C453.607 52.7821 450.96 54.7447 447.937 55.8896C444.913 57.0344 441.63 57.3165 438.455 56.7043C435.281 56.092 432.338 54.6096 429.957 52.4225L421.254 53.7032L425.626 46.1572C424.533 43.4987 424.121 40.6094 424.428 37.7516C424.655 35.4631 425.333 33.2421 426.421 31.2163C427.51 29.1905 428.988 27.3997 430.771 25.9469C432.553 24.4942 434.606 23.408 436.81 22.751C439.013 22.0939 441.325 21.8789 443.613 22.1182C445.9 22.3575 448.117 23.0465 450.137 24.1456C452.157 25.2446 453.94 26.7321 455.384 28.5224C456.827 30.3128 457.903 32.3707 458.548 34.578C459.194 36.7853 459.397 39.0983 459.145 41.3843H459.111Z" fill="white"/>
<path d="M459.11 41.3877C458.775 44.6021 457.558 47.6612 455.594 50.2275C455.098 50.8699 454.561 51.4798 453.986 52.0533C453.403 52.607 452.789 53.1274 452.146 53.612C449.556 55.5598 446.483 56.7631 443.259 57.0919C442.457 57.1595 441.652 57.1755 440.848 57.1399C440.039 57.1183 439.233 57.0324 438.437 56.8829C435.219 56.2898 432.228 54.815 429.798 52.6227L430.007 52.6903L421.256 54.0164L420.621 54.1131L420.942 53.5586L425.277 45.9929V46.2904C424.254 43.7881 423.818 41.0844 424.003 38.3872C424.188 35.69 424.99 33.0713 426.345 30.7323C427.714 28.4185 429.584 26.4412 431.818 24.9465C434.601 23.0874 437.855 22.059 441.2 21.9813C444.545 21.9037 447.844 22.78 450.709 24.508C453.575 26.2359 455.889 28.744 457.382 31.7389C458.875 34.7339 459.484 38.0918 459.138 41.4202L459.11 41.3877ZM459.11 41.3877C459.452 38.0991 458.845 34.7813 457.36 31.8272C455.875 28.873 453.575 26.4061 450.731 24.7186C447.888 23.031 444.621 22.1933 441.316 22.3048C438.012 22.4163 434.808 23.4722 432.085 25.3475C429.952 26.8457 428.17 28.7896 426.862 31.0447C425.578 33.3068 424.823 35.8303 424.653 38.426C424.483 41.0216 424.903 43.622 425.882 46.0321L425.949 46.1849L425.861 46.3296L421.489 53.8757L421.176 53.4098L429.919 52.1885H430.039L430.128 52.269C432.459 54.4533 435.353 55.945 438.485 56.5766C439.264 56.7306 440.054 56.8247 440.848 56.8579C441.65 56.9149 442.456 56.9149 443.259 56.8579C444.852 56.733 446.421 56.3868 447.919 55.8294C449.427 55.2854 450.846 54.5218 452.13 53.5633C452.772 53.0844 453.387 52.5692 453.97 52.0201C454.544 51.4554 455.081 50.8541 455.578 50.22C457.549 47.6593 458.773 44.6024 459.114 41.3884L459.11 41.3877Z" fill="#2C2A6B"/>
<path d="M449.155 42.8662C447.196 45.4858 444.697 47.6536 441.826 49.2228C438.955 47.6559 436.455 45.4877 434.497 42.8662C431.91 39.4512 432.039 34.0988 435.719 32.9817C439.817 31.6637 441.826 37.8032 441.826 37.8032C441.826 37.8032 443.859 31.6157 447.917 32.9344C451.598 34.1394 451.735 39.4512 449.155 42.8662Z" fill="#FC335B"/>
<path opacity="0.02" d="M181.026 322.068C181.026 324.119 173.076 325.812 163.268 325.812C153.461 325.812 145.516 324.14 145.516 322.068C145.516 319.996 153.466 318.328 163.268 318.328C173.07 318.328 181.026 320.005 181.026 322.068Z" fill="#010101"/>
<path d="M169.801 249.377C169.801 249.377 168.298 235.999 174.494 225.049C180.69 214.098 201.582 206.758 201.582 206.758C201.582 206.758 189.061 230.517 183.28 237.303C179.263 241.829 174.74 245.88 169.801 249.377Z" fill="url(#paint0_linear_3603_28)"/>
<path d="M169.125 281.307C169.125 281.307 170.248 269.971 173.952 262.878C177.656 255.784 190.956 245.769 197.655 243.094C197.655 243.094 189.304 275.244 169.125 281.307Z" fill="url(#paint1_linear_3603_28)"/>
<path d="M156.123 271.568C156.123 271.568 146.5 265.654 141.289 255.062C136.078 244.47 135 229.492 135 229.492C135 229.492 158.37 248.389 156.123 271.568Z" fill="url(#paint2_linear_3603_28)"/>
<path d="M165.427 315.527C162.438 302.55 161.626 289.167 163.023 275.924C163.479 271.509 164.204 267.125 165.193 262.798C166.213 258.476 167.521 254.226 169.107 250.078L170.297 246.974C170.707 245.949 171.154 244.923 171.582 243.897L172.228 242.358C172.454 241.845 172.685 241.332 172.921 240.819C173.397 239.819 173.854 238.808 174.352 237.818C176.306 233.838 178.514 229.989 180.963 226.293C181.589 225.374 182.235 224.477 182.886 223.579C183.538 222.682 184.22 221.815 184.938 220.969C186.326 219.241 187.872 217.645 189.555 216.203C188.737 216.945 187.968 217.738 187.251 218.578C186.877 218.989 186.529 219.409 186.18 219.84C185.831 220.271 185.482 220.691 185.154 221.132C184.467 221.994 183.841 222.902 183.193 223.795C182.545 224.687 181.962 225.626 181.372 226.554C179.016 230.28 176.901 234.152 175.037 238.146C174.56 239.142 174.129 240.157 173.677 241.157L173.001 242.665L172.366 244.204C171.95 245.23 171.514 246.256 171.114 247.281L169.949 250.359C168.401 254.478 167.133 258.697 166.154 262.987C164.181 271.568 163.163 280.341 163.117 289.146C163.068 293.556 163.239 297.966 163.631 302.359C163.968 306.78 164.567 311.177 165.426 315.526L165.427 315.527Z" fill="#100E3A"/>
<path d="M148.773 207.648C150.153 211.619 151.389 215.64 152.615 219.666C153.841 223.693 154.939 227.756 156 231.833C156.513 233.885 157.052 235.911 157.513 237.963L158.216 241.04L158.872 244.118C159.708 248.247 160.509 252.386 161.036 256.577C161.564 260.767 161.949 264.952 162.288 269.148C162.627 273.344 162.934 277.545 163.135 281.746C163.335 285.947 163.524 290.153 163.647 294.359C163.77 298.565 163.863 302.766 163.868 306.977C163.642 302.776 163.437 298.575 163.165 294.379C162.893 290.183 162.652 285.988 162.365 281.792C161.756 273.411 161.129 265.021 160.052 256.7C158.881 248.388 157.28 240.143 155.256 231.997C154.286 227.894 153.227 223.842 152.137 219.784C151.047 215.727 149.943 211.706 148.773 207.648Z" fill="#100E3A"/>
<path d="M183.948 257.68C181.896 260.853 179.887 264.035 177.921 267.225C175.941 270.421 173.982 273.632 172.12 276.889C170.257 280.146 168.463 283.444 166.862 286.829C166.062 288.521 165.348 290.251 164.723 292.015C164.058 293.767 163.664 295.611 163.554 297.483C163.482 296.539 163.523 295.591 163.677 294.657L163.78 293.949L163.928 293.256L164.083 292.558L164.267 291.871C164.786 290.048 165.42 288.259 166.165 286.516C166.894 284.772 167.704 283.067 168.566 281.387C169.428 279.707 170.34 278.048 171.271 276.407C172.201 274.765 173.189 273.155 174.19 271.554C175.19 269.953 176.218 268.376 177.267 266.82C179.38 263.688 181.607 260.642 183.948 257.68Z" fill="#100E3A"/>
<path d="M144.941 247.094C147.308 251.223 149.491 255.459 151.523 259.763C153.554 264.067 155.451 268.447 157.165 272.894C158.898 277.339 160.368 281.883 161.566 286.502C162.153 288.818 162.615 291.164 162.951 293.529C163.297 295.893 163.378 298.288 163.192 300.669C163.188 298.297 162.95 295.931 162.479 293.606C162.043 291.277 161.453 288.989 160.827 286.701C160.202 284.414 159.463 282.162 158.689 279.926C157.914 277.689 157.109 275.453 156.254 273.257C155.399 271.061 154.526 268.841 153.617 266.646C152.708 264.451 151.775 262.276 150.831 260.096C148.917 255.747 146.954 251.413 144.941 247.094Z" fill="#100E3A"/>
<path d="M174.852 287.516L174.688 290.173L174.678 290.276L174.632 290.958V291.01L174.626 291.061L174.585 291.743L174.58 291.851L174.534 292.523L174.528 292.626L174.169 298.35L174.159 298.509L174.118 299.13L174.108 299.294L174.092 299.525L174.066 299.914L174.056 300.073L174.015 300.699L174.005 300.858L172.697 321.493H153.848L152.563 301.165L152.542 300.909L152.512 300.386L152.492 300.124L152.461 299.606L152.455 299.524L152.445 299.34L152.409 298.822L152.394 298.56L151.993 292.23L151.983 292.051L151.942 291.443L151.932 291.252L151.916 291.006L151.896 290.668L151.88 290.484L151.845 289.875L151.834 289.696L151.699 287.516L174.852 287.516Z" fill="#BEE1F4"/>
<path d="M174.628 291.011L174.623 291.062L174.582 291.744L174.576 291.852L174.53 292.524L174.525 292.627L174.166 298.351L174.156 298.51L174.114 299.131L174.104 299.295L174.089 299.526H152.449L152.439 299.341L152.403 298.823L152.388 298.561L151.987 292.232L151.977 292.053L151.936 291.444L151.926 291.254L151.91 291.008L174.628 291.011Z" fill="#BEE1F4"/>
<path d="M176.626 286.305H149.918V292.886H176.626V286.305Z" fill="#7AABBC"/>
<path d="M389.129 151.878C389.339 150.719 389.339 149.531 389.129 148.371C388.758 146.755 388.921 145.486 389.213 145.358C389.504 145.229 390.335 147.193 391.205 149.847C392.074 152.501 391.949 156.509 391.949 156.509L389.129 151.878Z" fill="#F699B3"/>
<path d="M427.639 161.517L418.418 167.499L395.606 154.651C395.606 154.651 390.438 145.739 388.995 144.622C387.553 143.505 383.428 139.976 382.379 140.172C381.329 140.368 382.906 142.336 382.906 142.336C382.906 142.336 380.286 140.375 379.696 140.827C379.107 141.278 380.875 143.515 380.875 143.515C380.875 143.515 379.562 142.729 379.107 143.054C378.653 143.379 379.955 145.15 379.955 145.15C379.955 145.15 379.04 144.623 379.008 145.802C378.976 146.98 383.751 150.849 384.801 152.614C385.85 154.379 387.764 157.58 389.004 158.692C389.921 159.448 390.956 160.049 392.068 160.471C392.068 160.471 410.851 178.182 416.199 180.337C421.548 182.493 434.011 172.98 434.011 172.98L427.639 161.517Z" fill="url(#paint3_linear_3603_28)"/>
<path d="M388.733 147.89C388.694 147.89 388.655 147.881 388.62 147.863C388.585 147.846 388.554 147.82 388.53 147.789C388.046 147.141 387.513 146.53 386.937 145.963C386.28 145.402 382.338 142.102 382.296 142.069C382.243 142.026 382.211 141.963 382.204 141.896C382.198 141.829 382.219 141.762 382.262 141.71C382.305 141.657 382.367 141.625 382.434 141.618C382.502 141.612 382.569 141.633 382.621 141.676C382.784 141.811 386.611 144.998 387.273 145.576C387.885 146.164 388.448 146.8 388.957 147.479C388.997 147.533 389.015 147.601 389.005 147.668C388.996 147.736 388.96 147.796 388.906 147.838C388.857 147.875 388.795 147.893 388.733 147.89Z" fill="#F9A3B8"/>
<path d="M386.343 148.845C386.3 148.845 386.257 148.835 386.219 148.814C386.18 148.794 386.148 148.764 386.124 148.727C385.74 148.121 385.308 147.547 384.833 147.01C384.188 146.326 380.31 143.278 380.271 143.25C380.218 143.207 380.185 143.144 380.177 143.076C380.17 143.008 380.189 142.94 380.231 142.886C380.252 142.859 380.278 142.837 380.307 142.821C380.337 142.805 380.369 142.794 380.403 142.791C380.436 142.787 380.47 142.79 380.502 142.8C380.534 142.809 380.564 142.825 380.59 142.847C380.747 142.97 384.519 145.944 385.209 146.663C385.706 147.223 386.158 147.822 386.562 148.453C386.58 148.481 386.592 148.513 386.598 148.547C386.604 148.58 386.603 148.614 386.595 148.647C386.587 148.68 386.573 148.711 386.553 148.739C386.532 148.766 386.507 148.789 386.478 148.806C386.438 148.833 386.39 148.847 386.342 148.846L386.343 148.845Z" fill="#F9A3B8"/>
<path d="M385.018 150.577C384.975 150.577 384.932 150.565 384.895 150.544C384.858 150.522 384.827 150.491 384.805 150.454C384.283 149.6 383.684 148.796 383.015 148.052C382.358 147.49 379.194 144.831 379.16 144.806C379.135 144.784 379.114 144.757 379.098 144.726C379.083 144.696 379.074 144.663 379.071 144.629C379.068 144.595 379.073 144.561 379.083 144.529C379.094 144.497 379.111 144.467 379.133 144.441C379.154 144.416 379.181 144.395 379.211 144.379C379.241 144.364 379.273 144.355 379.306 144.352C379.34 144.35 379.373 144.354 379.405 144.364C379.437 144.375 379.467 144.392 379.492 144.414C379.526 144.414 382.69 147.085 383.352 147.659C384.064 148.434 384.696 149.278 385.238 150.179C385.264 150.218 385.279 150.263 385.281 150.309C385.282 150.356 385.272 150.402 385.249 150.443C385.226 150.483 385.193 150.517 385.152 150.54C385.111 150.563 385.065 150.574 385.019 150.572L385.018 150.577Z" fill="#F9A3B8"/>
<path d="M417.606 131.492C417.606 131.492 413.437 131.997 413.678 132.649C413.919 133.3 418.022 133.108 418.344 133.154C418.667 133.199 421.711 134.68 421.711 134.68L417.606 131.492Z" fill="#EC82A3"/>
<path d="M419.466 130.709C419.466 130.709 413.995 128.15 413.159 128.464C412.177 128.857 416.313 131.04 416.313 131.04L421.1 134.166L419.466 130.709Z" fill="#EC82A3"/>
<path d="M447.412 162.008L439.959 166.722L429.218 141.311C429.218 141.311 423.199 132.192 420.749 129.133C418.299 126.075 417.3 123.853 416.518 123.982C415.736 124.111 417.478 128.522 418.522 130.155C419.566 131.788 421.327 135.711 421.327 136.923C421.327 138.135 420.329 138.359 416.619 136.542C413.779 135.145 415.166 137.574 416.619 138.971C417.556 139.869 424.436 144.516 424.436 144.516C424.436 144.516 429.627 175.865 433.69 179.793C437.754 183.721 455.577 172.851 455.577 172.851L447.412 162.008Z" fill="url(#paint4_linear_3603_28)"/>
<path d="M425.863 160.445L430.117 173.42L432.227 171.948L425.863 160.445Z" fill="url(#paint5_linear_3603_28)"/>
<path d="M450.575 315.313L447.04 317.395L441.574 314.934L442.275 306.211H451.86L450.575 315.313Z" fill="#F699B3"/>
<path d="M450.84 325.811H426.775C426.49 325.809 426.209 325.739 425.956 325.607C425.703 325.475 425.486 325.284 425.321 325.051C425.156 324.818 425.05 324.549 425.01 324.266C424.97 323.984 424.998 323.696 425.092 323.426L425.159 323.252C425.482 322.362 426.087 321.602 426.882 321.088C429.228 319.674 440.771 314.624 440.771 314.624C440.771 314.624 440.934 313.619 440.996 312.379C441.047 311.358 441.855 311.375 441.855 311.375C441.855 311.375 443.044 314.621 445.395 315.303C447.747 315.986 450.525 314.742 450.525 314.742L450.918 312.857C452.489 314.798 452.601 320.046 452.887 323.227C452.882 323.331 452.892 323.435 452.915 323.536C452.943 323.825 452.909 324.116 452.817 324.391C452.725 324.666 452.577 324.919 452.381 325.133C452.185 325.347 451.947 325.518 451.681 325.634C451.416 325.751 451.129 325.81 450.838 325.809L450.84 325.811Z" fill="#377DFF"/>
<path d="M474.278 201.414C475.7 205.778 476.479 210.326 476.59 214.915C476.59 221.721 459.126 269.528 459.126 269.528L453.889 308.259H440.27C440.27 308.259 441.314 266.205 442.711 257.731C444.108 249.257 451.095 201.414 451.095 201.414H474.278Z" fill="#377DFF"/>
<path d="M474.278 201.414C475.7 205.778 476.479 210.326 476.59 214.915C476.59 221.721 459.126 269.528 459.126 269.528L453.889 308.259H440.27C440.27 308.259 441.314 266.205 442.711 257.731C444.108 249.257 451.095 201.414 451.095 201.414H474.278Z" fill="#377DFF"/>
<path d="M477.027 315.313L473.492 317.395L468.861 315.313L466.656 306.211H476.174L477.027 315.313Z" fill="#FEAABE"/>
<path d="M477.293 325.811H453.225C452.939 325.809 452.659 325.739 452.406 325.607C452.153 325.474 451.935 325.284 451.77 325.051C451.605 324.818 451.499 324.548 451.459 324.266C451.419 323.983 451.447 323.695 451.541 323.426C451.565 323.369 451.585 323.311 451.603 323.252C451.927 322.361 452.534 321.601 453.331 321.088C455.677 319.674 467.22 314.623 467.22 314.623C467.22 314.623 467.007 313.366 466.956 312.418C466.906 311.47 468.157 311.391 468.157 311.391C468.157 311.391 469.488 314.637 471.844 315.319C474.201 316.001 476.973 314.758 476.973 314.758L476.794 312.864C478.365 314.806 479.039 320.059 479.336 323.24C479.331 323.344 479.34 323.448 479.364 323.549C479.389 323.836 479.354 324.124 479.261 324.397C479.168 324.67 479.02 324.92 478.825 325.132C478.63 325.345 478.394 325.514 478.13 325.63C477.866 325.745 477.581 325.805 477.293 325.805L477.293 325.811Z" fill="#377DFF"/>
<path d="M478.794 308.256H463.838C463.838 308.256 449.517 267.445 448.299 260.031C447.69 256.339 444.735 234.933 443.204 223.773C443.013 222.42 442.861 221.068 442.73 219.701C442.46 216.854 442.31 214.001 442.281 211.141V205.641L461.036 203.212L471.446 201.859C471.699 203.516 471.906 204.993 472.063 206.363C472.927 213.48 472.672 217.445 471.204 226.03L469.265 259.884L478.794 308.256Z" fill="url(#paint6_linear_3603_28)"/>
<path d="M471.839 308.259H471.095C470.204 305.222 462.007 277.255 460.073 269.327C458.036 260.975 452.623 208.453 452.562 207.925L453.287 207.867C453.337 208.397 458.755 260.884 460.781 269.202C462.751 277.279 471.252 306.249 471.839 308.259Z" fill="#2B9BF2"/>
<path opacity="0.17" d="M472.059 207.058C472.059 207.058 460.275 213.232 442.277 212.592V206.235L461.032 203.43C467.068 205.392 472.059 207.058 472.059 207.058Z" fill="url(#paint7_linear_3603_28)"/>
<path d="M449.64 115.661C449.64 115.661 447.227 111.519 447.395 107.72C447.564 103.921 453.748 101.828 453.748 101.828C453.748 101.828 453.226 95.868 463.636 97.1812C474.046 98.4945 476.015 109.23 476.015 109.23C476.015 109.23 478.26 109.342 478.305 114.073C478.35 119.124 477.261 121.469 472.934 125.403C468.855 129.118 468.372 131.778 468.372 131.778L449.64 115.661Z" fill="url(#paint8_linear_3603_28)"/>
<path d="M470.569 123.332C475.248 118.653 475.248 111.066 470.569 106.387C465.89 101.708 458.304 101.708 453.625 106.387C448.945 111.066 448.945 118.653 453.625 123.332C458.304 128.011 465.89 128.011 470.569 123.332Z" fill="url(#paint9_linear_3603_28)"/>
<path d="M450.487 111.859C449.167 115.119 448.505 118.607 448.539 122.123C448.472 128.42 448.079 137.449 456.071 136.007L455.482 141.31H468.709L468.4 131.77L462.092 123.969C462.092 123.969 466.548 124.037 466.217 119.317C465.909 114.934 461.245 117.288 461.049 119.648L459.02 122.724C459.02 122.724 456.775 121.287 456.992 115.849L450.487 111.859Z" fill="url(#paint10_linear_3603_28)"/>
<path d="M456.069 136.007C456.069 136.007 458.876 135.727 462.871 133.438C462.871 133.438 463.23 140.66 455.48 141.294L456.069 136.007Z" fill="url(#paint11_linear_3603_28)"/>
<path d="M478.901 156.261V156.99C478.901 160.627 478.733 164.767 478.469 168.994C478.472 169.037 478.472 169.08 478.469 169.123C478.476 169.332 478.463 169.54 478.43 169.746C478.122 174.455 477.678 179.286 477.251 183.602C477.223 183.877 477.195 184.163 477.173 184.422C476.679 189.17 476.18 193.305 475.843 196.067C475.815 196.342 475.775 196.628 475.742 196.858C475.518 198.665 475.378 199.714 475.378 199.714C475.378 199.714 477.734 201.959 477.474 202.986C477.214 204.013 475.229 206.656 475.229 206.656C464.358 208.16 451.861 208.626 442.242 206.235L442.422 194.401V193.621L442.635 179.591V178.826L442.764 170.15V169.993L438.157 172.237L437.456 172.586L433.567 174.471L432.742 172.972L428.534 165.382L427.153 162.88L425.711 160.276C425.711 160.276 426.272 159.856 427.153 159.154L430.077 156.881C430.257 156.735 430.465 156.595 430.639 156.432C431.761 155.553 433.018 154.586 434.32 153.587L438.81 150.152L439.41 149.703C442.553 147.336 445.314 145.292 446.56 144.484C446.891 144.271 447.228 144.074 447.574 143.895C447.857 143.727 448.151 143.577 448.453 143.446C450.076 142.708 451.768 142.133 453.504 141.729C454.402 141.505 455.059 141.404 455.294 141.365H455.378C455.378 141.365 467.113 138.721 473.763 142.041C473.86 142.08 473.953 142.131 474.038 142.192C474.092 142.202 474.144 142.223 474.189 142.254L474.279 142.31C474.459 142.405 474.628 142.518 474.807 142.63C475.437 143.035 476.004 143.531 476.491 144.1C476.871 144.541 477.194 145.03 477.45 145.553C478.486 147.422 478.901 151.345 478.901 156.261Z" fill="url(#paint12_linear_3603_28)"/>
<g opacity="0.45">
<path d="M474.9 142.582C474.563 142.363 474.212 142.164 473.851 141.987C467.698 142.781 461.457 142.561 455.376 141.336C455.146 141.37 454.483 141.482 453.586 141.7C457.859 142.688 462.231 143.187 466.617 143.188C469.39 143.187 472.159 142.984 474.902 142.58L474.9 142.582Z" fill="url(#paint13_linear_3603_28)"/>
<path d="M430.694 156.406L430.133 156.855C433.118 160.076 436.822 165.402 437.513 172.569L438.22 172.221C437.446 165.049 433.73 159.684 430.722 156.412L430.694 156.406Z" fill="url(#paint14_linear_3603_28)"/>
<path d="M447.871 167.582C447.981 164.148 447.279 160.738 445.821 157.627C444.364 154.516 442.194 151.793 439.486 149.68L438.891 150.134C441.596 152.219 443.758 154.926 445.193 158.026C446.628 161.126 447.292 164.526 447.131 167.938L447.871 167.582Z" fill="url(#paint15_linear_3603_28)"/>
<path d="M457.093 154.839C457.166 155.103 457.245 155.367 457.301 155.651C457.827 157.943 458.082 160.29 458.058 162.643H458.791C458.81 160.349 458.575 158.061 458.09 155.819C462.89 156.814 467.779 157.321 472.681 157.334C474.773 157.337 476.863 157.229 478.944 157.009V156.274C471.913 156.931 464.824 156.509 457.922 155.022C457.177 151.878 455.59 148.995 453.331 146.683C451.954 145.322 450.339 144.225 448.567 143.445C448.275 143.574 447.972 143.721 447.688 143.883C449.61 144.633 451.361 145.765 452.834 147.211C454.898 149.336 456.367 151.967 457.093 154.839Z" fill="url(#paint16_linear_3603_28)"/>
<path d="M454.485 167.321C452.801 166.894 451.55 166.49 450.753 166.227L449.793 166.681C450.304 166.866 451.785 167.382 453.951 167.96C459.442 169.446 465.101 170.221 470.789 170.267C473.354 170.273 475.916 170.097 478.455 169.74L478.506 168.996C468.957 170.396 459.788 168.695 454.485 167.321Z" fill="url(#paint17_linear_3603_28)"/>
<path d="M443.544 179.068L442.8 178.849L442.66 178.805V179.568C442.863 179.641 443.066 179.697 443.269 179.753C455.722 183.463 465.436 184.585 472.731 184.585C474.313 184.585 475.8 184.534 477.159 184.428C477.187 184.158 477.22 183.867 477.249 183.609C469.701 184.158 458.603 183.49 443.544 179.068Z" fill="url(#paint18_linear_3603_28)"/>
<path d="M442.457 193.625V194.405C449.533 196.733 456.923 197.963 464.372 198.053C468.172 198.069 471.963 197.665 475.674 196.847C475.708 196.605 475.742 196.336 475.775 196.066C462.766 199.08 449.752 196.022 442.457 193.625Z" fill="url(#paint19_linear_3603_28)"/>
</g>
<path opacity="0.5" d="M458.794 162.617L454.489 167.314L453.948 167.954L442.648 180.861L442.811 169.963L449.793 166.675L450.752 166.22L458.794 162.617Z" fill="url(#paint20_linear_3603_28)"/>
<path d="M473.849 141.992C473.946 142.031 474.039 142.082 474.124 142.143C472.716 141.492 463.949 141.352 453.214 145.622C443.831 149.348 427.647 163.687 427.647 163.687L425.738 160.25C425.738 160.25 426.3 159.829 427.181 159.127L430.105 156.855C430.285 156.708 430.492 156.568 430.666 156.405C431.789 155.526 433.046 154.559 434.347 153.561L438.837 150.126L439.437 149.677C442.58 147.31 445.341 145.266 446.587 144.458C446.919 144.245 447.255 144.048 447.602 143.869C447.885 143.7 448.178 143.55 448.481 143.42C450.103 142.681 451.795 142.106 453.531 141.703C454.429 141.478 455.087 141.378 455.321 141.338H455.406C455.406 141.338 467.212 138.678 473.849 141.992Z" fill="#FCA03D"/>
<rect x="223.586" y="79.1172" width="160.267" height="155.534" fill="white"/>
<rect x="223.586" y="79.1172" width="160.267" height="48.6888" fill="#D7E8F7"/>
<rect x="235.082" y="133.219" width="131.865" height="48.6888" fill="#D7E8F7"/>
<rect x="246.578" y="187.32" width="131.865" height="48.6888" fill="#D7E8F7"/>
<path d="M158.699 119.344H97.0036C96.2277 119.344 95.4834 119.036 94.9337 118.489C94.3839 117.941 94.0735 117.198 94.0703 116.422V86.2693C94.0734 85.4923 94.3835 84.748 94.9329 84.1985C95.4824 83.6491 96.2266 83.3391 97.0036 83.3359H158.699C159.476 83.3391 160.22 83.6491 160.769 84.1985C161.319 84.748 161.629 85.4923 161.632 86.2693V116.422C161.629 117.198 161.318 117.941 160.769 118.489C160.219 119.036 159.475 119.344 158.699 119.344ZM97.0036 84.2029C96.4556 84.2029 95.93 84.4206 95.5425 84.8081C95.1549 85.1956 94.9372 85.7212 94.9372 86.2693V116.422C94.9404 116.968 95.1595 117.491 95.5467 117.876C95.9339 118.261 96.4576 118.477 97.0036 118.477H158.699C159.244 118.477 159.766 118.26 160.151 117.875C160.537 117.49 160.753 116.967 160.753 116.422V86.2693C160.755 85.9985 160.703 85.73 160.6 85.4794C160.498 85.2288 160.347 85.0009 160.156 84.8088C159.965 84.6168 159.738 84.4644 159.488 84.3604C159.238 84.2564 158.969 84.2029 158.699 84.2029H97.0036Z" fill="#5E1DBB"/>
<path d="M161.194 90.1776H94.5114C94.4484 90.188 94.384 90.1846 94.3225 90.1677C94.261 90.1507 94.2039 90.1205 94.1553 90.0793C94.1066 90.038 94.0675 89.9867 94.0407 89.9288C94.0138 89.8709 94 89.8079 94 89.7441C94 89.6803 94.0138 89.6173 94.0407 89.5594C94.0675 89.5015 94.1066 89.4501 94.1553 89.4089C94.2039 89.3676 94.261 89.3375 94.3225 89.3205C94.384 89.3035 94.4484 89.3002 94.5114 89.3106H161.194C161.257 89.3002 161.322 89.3035 161.383 89.3205C161.445 89.3375 161.502 89.3676 161.55 89.4089C161.599 89.4501 161.638 89.5015 161.665 89.5594C161.692 89.6173 161.706 89.6803 161.706 89.7441C161.706 89.8079 161.692 89.8709 161.665 89.9288C161.638 89.9867 161.599 90.038 161.55 90.0793C161.502 90.1205 161.445 90.1507 161.383 90.1677C161.322 90.1846 161.257 90.188 161.194 90.1776Z" fill="#5E1DBB"/>
<path d="M292.383 66.1091V140.547C292.383 141.088 292.276 141.623 292.069 142.122C291.862 142.621 291.558 143.075 291.175 143.457C290.792 143.838 290.338 144.141 289.838 144.347C289.338 144.552 288.803 144.658 288.262 144.656H157.117C156.027 144.656 154.982 144.223 154.211 143.452C153.441 142.682 153.008 141.637 153.008 140.547V66.1091C153.008 65.0193 153.441 63.9741 154.211 63.2035C154.982 62.4329 156.027 62 157.117 62H288.262C288.803 61.9985 289.338 62.1036 289.838 62.3094C290.338 62.5152 290.792 62.8176 291.175 63.1993C291.558 63.581 291.862 64.0345 292.069 64.5339C292.276 65.0332 292.383 65.5685 292.383 66.1091Z" fill="#2C2A6B"/>
<path d="M292.383 66.1091V70.4675H153.008V66.1091C153.008 65.0193 153.441 63.9741 154.211 63.2035C154.982 62.4329 156.027 62 157.117 62H288.262C288.803 61.9985 289.338 62.1036 289.838 62.3094C290.338 62.5152 290.792 62.8176 291.175 63.1993C291.558 63.581 291.862 64.0345 292.069 64.5339C292.276 65.0332 292.383 65.5685 292.383 66.1091Z" fill="#110828"/>
<path d="M286.816 66.2202C286.818 66.6534 286.691 67.0775 286.452 67.4386C286.213 67.7998 285.872 68.0817 285.472 68.2486C285.072 68.4154 284.632 68.4597 284.207 68.3758C283.782 68.2918 283.392 68.0835 283.085 67.7772C282.779 67.4709 282.571 67.0804 282.487 66.6554C282.403 66.2304 282.447 65.7901 282.614 65.3903C282.781 64.9906 283.063 64.6494 283.424 64.4102C283.785 64.171 284.209 64.0446 284.642 64.0469C284.928 64.0469 285.21 64.1031 285.474 64.2123C285.738 64.3216 285.977 64.4816 286.179 64.6834C286.381 64.8853 286.541 65.1248 286.65 65.3885C286.759 65.6522 286.816 65.9348 286.816 66.2202Z" fill="#E2209E"/>
<path d="M279.843 66.2202C279.845 66.6528 279.719 67.0765 279.48 67.4374C279.242 67.7983 278.901 68.0802 278.502 68.2474C278.103 68.4146 277.663 68.4596 277.239 68.3766C276.814 68.2937 276.424 68.0865 276.117 67.7814C275.81 67.4763 275.601 67.0869 275.516 66.6627C275.43 66.2385 275.473 65.7986 275.638 65.3986C275.803 64.9986 276.083 64.6566 276.443 64.416C276.802 64.1753 277.225 64.0469 277.658 64.0469C278.235 64.0469 278.789 64.2755 279.199 64.6827C279.608 65.0899 279.84 65.6427 279.843 66.2202Z" fill="#9364ED"/>
<path d="M272.862 66.2202C272.865 66.6534 272.738 67.0775 272.499 67.4386C272.26 67.7998 271.919 68.0817 271.519 68.2486C271.119 68.4154 270.679 68.4597 270.254 68.3758C269.829 68.2918 269.438 68.0835 269.132 67.7772C268.826 67.4709 268.618 67.0804 268.534 66.6554C268.45 66.2304 268.494 65.7901 268.661 65.3903C268.828 64.9906 269.11 64.6494 269.471 64.4102C269.832 64.171 270.256 64.0446 270.689 64.0469C271.266 64.0469 271.818 64.2759 272.226 64.6834C272.633 65.091 272.862 65.6438 272.862 66.2202Z" fill="#5E1DBB"/>
<path d="M277.966 83.7891H167.426V90.2377H277.966V83.7891Z" fill="#07CBF5"/>
<path d="M215.931 103.758H170.803C170.689 103.758 170.58 103.713 170.5 103.632C170.42 103.552 170.375 103.443 170.375 103.33C170.375 103.216 170.42 103.106 170.499 103.023C170.579 102.941 170.688 102.894 170.803 102.891H215.931C216.045 102.894 216.154 102.941 216.234 103.023C216.314 103.106 216.358 103.216 216.358 103.33C216.358 103.443 216.313 103.552 216.233 103.632C216.153 103.713 216.044 103.758 215.931 103.758Z" fill="#9364ED"/>
<path d="M215.931 110.992H170.803C170.689 110.992 170.58 110.947 170.5 110.867C170.42 110.787 170.375 110.678 170.375 110.564C170.375 110.45 170.42 110.34 170.499 110.258C170.579 110.176 170.688 110.128 170.803 110.125H215.931C216.045 110.128 216.154 110.176 216.234 110.258C216.314 110.34 216.358 110.45 216.358 110.564C216.358 110.678 216.313 110.787 216.233 110.867C216.153 110.947 216.044 110.992 215.931 110.992Z" fill="#9364ED"/>
<path d="M215.929 118.218H170.801C170.698 118.201 170.605 118.149 170.538 118.069C170.471 117.99 170.434 117.889 170.434 117.785C170.434 117.681 170.471 117.58 170.538 117.501C170.605 117.422 170.698 117.369 170.801 117.352H215.929C216.032 117.369 216.125 117.422 216.192 117.501C216.26 117.58 216.297 117.681 216.297 117.785C216.297 117.889 216.26 117.99 216.192 118.069C216.125 118.149 216.032 118.201 215.929 118.218Z" fill="#9364ED"/>
<path d="M274.642 103.758H229.514C229.399 103.758 229.289 103.713 229.207 103.633C229.125 103.553 229.077 103.445 229.074 103.33C229.077 103.214 229.124 103.104 229.206 103.023C229.288 102.941 229.398 102.894 229.514 102.891H274.642C274.757 102.894 274.867 102.941 274.949 103.023C275.031 103.104 275.078 103.214 275.081 103.33C275.078 103.445 275.031 103.553 274.948 103.633C274.866 103.713 274.756 103.758 274.642 103.758Z" fill="#9364ED"/>
<path d="M274.642 110.992H229.514C229.399 110.992 229.289 110.947 229.207 110.867C229.125 110.788 229.077 110.679 229.074 110.564C229.077 110.449 229.124 110.339 229.206 110.257C229.288 110.175 229.398 110.128 229.514 110.125H274.642C274.757 110.128 274.867 110.175 274.949 110.257C275.031 110.339 275.078 110.449 275.081 110.564C275.078 110.679 275.031 110.788 274.948 110.867C274.866 110.947 274.756 110.992 274.642 110.992Z" fill="#9364ED"/>
<path d="M274.644 118.217H229.515C229.452 118.227 229.388 118.224 229.326 118.207C229.265 118.19 229.208 118.16 229.159 118.118C229.111 118.077 229.071 118.026 229.045 117.968C229.018 117.91 229.004 117.847 229.004 117.783C229.004 117.719 229.018 117.656 229.045 117.598C229.071 117.541 229.111 117.489 229.159 117.448C229.208 117.407 229.265 117.377 229.326 117.36C229.388 117.343 229.452 117.339 229.515 117.35H274.644C274.706 117.339 274.771 117.343 274.832 117.36C274.894 117.377 274.951 117.407 275 117.448C275.048 117.489 275.087 117.541 275.114 117.598C275.141 117.656 275.155 117.719 275.155 117.783C275.155 117.847 275.141 117.91 275.114 117.968C275.087 118.026 275.048 118.077 275 118.118C274.951 118.16 274.894 118.19 274.832 118.207C274.771 118.224 274.706 118.227 274.644 118.217Z" fill="#9364ED"/>
<defs>
<linearGradient id="paint0_linear_3603_28" x1="190.786" y1="239.489" x2="184.899" y2="242.212" gradientUnits="userSpaceOnUse">
<stop stop-color="#3AB764"/>
<stop offset="1" stop-color="#49D879"/>
</linearGradient>
<linearGradient id="paint1_linear_3603_28" x1="188.012" y1="272.442" x2="182.747" y2="274.868" gradientUnits="userSpaceOnUse">
<stop stop-color="#3AB764"/>
<stop offset="1" stop-color="#49D879"/>
</linearGradient>
<linearGradient id="paint2_linear_3603_28" x1="149.084" y1="261.806" x2="144.747" y2="263.16" gradientUnits="userSpaceOnUse">
<stop stop-color="#3AB764"/>
<stop offset="1" stop-color="#49D879"/>
</linearGradient>
<linearGradient id="paint3_linear_3603_28" x1="401.174" y1="170.451" x2="404.122" y2="157.385" gradientUnits="userSpaceOnUse">
<stop stop-color="#FEAABE"/>
<stop offset="1" stop-color="#FEC7C8"/>
</linearGradient>
<linearGradient id="paint4_linear_3603_28" x1="424.796" y1="163.817" x2="435.62" y2="156.214" gradientUnits="userSpaceOnUse">
<stop stop-color="#F699B3"/>
<stop offset="1" stop-color="#FEB5C2"/>
</linearGradient>
<linearGradient id="paint5_linear_3603_28" x1="430.082" y1="160.588" x2="419.552" y2="174.257" gradientUnits="userSpaceOnUse">
<stop stop-color="#EC72A1"/>
<stop offset="1" stop-color="#F699B3" stop-opacity="0.302"/>
</linearGradient>
<linearGradient id="paint6_linear_3603_28" x1="460.538" y1="201.859" x2="460.538" y2="308.256" gradientUnits="userSpaceOnUse">
<stop stop-color="#367CFF"/>
<stop offset="1" stop-color="#28A1FF"/>
</linearGradient>
<linearGradient id="paint7_linear_3603_28" x1="442.277" y1="208.034" x2="472.059" y2="208.034" gradientUnits="userSpaceOnUse">
<stop stop-color="#28A1FF"/>
<stop offset="1" stop-color="#56B5FF"/>
</linearGradient>
<linearGradient id="paint8_linear_3603_28" x1="464.64" y1="121.725" x2="459.791" y2="98.6249" gradientUnits="userSpaceOnUse">
<stop stop-color="#141415"/>
<stop offset="1" stop-color="#251919"/>
</linearGradient>
<linearGradient id="paint9_linear_3603_28" x1="467.943" y1="119.045" x2="448.711" y2="105.303" gradientUnits="userSpaceOnUse">
<stop stop-color="#000005"/>
<stop offset="1" stop-color="#4E4D50"/>
</linearGradient>
<linearGradient id="paint10_linear_3603_28" x1="468.648" y1="132.534" x2="449.979" y2="129.01" gradientUnits="userSpaceOnUse">
<stop stop-color="#FEAABE"/>
<stop offset="1" stop-color="#FEC7C8"/>
</linearGradient>
<linearGradient id="paint11_linear_3603_28" x1="459.894" y1="134.522" x2="456.561" y2="142.006" gradientUnits="userSpaceOnUse">
<stop stop-color="#EC72A1"/>
<stop offset="1" stop-color="#F699B3" stop-opacity="0.302"/>
</linearGradient>
<linearGradient id="paint12_linear_3603_28" x1="452.306" y1="140.367" x2="452.306" y2="207.906" gradientUnits="userSpaceOnUse">
<stop stop-color="#FCA03D"/>
<stop offset="1" stop-color="#FD6531"/>
</linearGradient>
<linearGradient id="paint13_linear_3603_28" x1="451.987" y1="133.288" x2="452.507" y2="183.053" gradientUnits="userSpaceOnUse">
<stop stop-color="#FED450"/>
<stop offset="1" stop-color="#FEB202" stop-opacity="0.302"/>
</linearGradient>
<linearGradient id="paint14_linear_3603_28" x1="423.445" y1="156.794" x2="488.445" y2="168.552" gradientUnits="userSpaceOnUse">
<stop stop-color="#FED450"/>
<stop offset="1" stop-color="#FEB202" stop-opacity="0.302"/>
</linearGradient>
<linearGradient id="paint15_linear_3603_28" x1="431.32" y1="150.154" x2="504.352" y2="162.951" gradientUnits="userSpaceOnUse">
<stop stop-color="#FED450"/>
<stop offset="1" stop-color="#FEB202" stop-opacity="0.302"/>
</linearGradient>
<linearGradient id="paint16_linear_3603_28" x1="438.029" y1="137.436" x2="502.429" y2="260.789" gradientUnits="userSpaceOnUse">
<stop stop-color="#FED450"/>
<stop offset="1" stop-color="#FEB202" stop-opacity="0.302"/>
</linearGradient>
<linearGradient id="paint17_linear_3603_28" x1="447.065" y1="155.499" x2="449.027" y2="227.08" gradientUnits="userSpaceOnUse">
<stop stop-color="#FED450"/>
<stop offset="1" stop-color="#FEB202" stop-opacity="0.302"/>
</linearGradient>
<linearGradient id="paint18_linear_3603_28" x1="438.406" y1="166.001" x2="441.913" y2="256.734" gradientUnits="userSpaceOnUse">
<stop stop-color="#FED450"/>
<stop offset="1" stop-color="#FEB202" stop-opacity="0.302"/>
</linearGradient>
<linearGradient id="paint19_linear_3603_28" x1="439.225" y1="180.862" x2="441.233" y2="263.007" gradientUnits="userSpaceOnUse">
<stop stop-color="#FED450"/>
<stop offset="1" stop-color="#FEB202" stop-opacity="0.302"/>
</linearGradient>
<linearGradient id="paint20_linear_3603_28" x1="452.109" y1="164.478" x2="394.732" y2="226.568" gradientUnits="userSpaceOnUse">
<stop stop-color="#FE7B03"/>
<stop offset="1" stop-color="#FE7B03" stop-opacity="0.302"/>
</linearGradient>
</defs>
</svg>
