<svg width="690" height="350" viewBox="0 0 690 350" fill="none" xmlns="http://www.w3.org/2000/svg">
<path d="M496.038 286.32L491.52 285.087L492.568 281.25L497.086 282.483L496.038 286.32Z" fill="#86D395"/>
<path d="M277.945 292.631C275.71 294.866 272.091 294.868 269.854 292.631C267.622 290.399 267.622 286.775 269.854 284.543C272.089 282.309 275.71 282.309 277.945 284.543C280.179 286.777 280.178 290.399 277.945 292.631Z" fill="white"/>
<path d="M300.334 332.299H421.01C422.575 332.299 423.842 331.03 423.842 329.465C423.842 327.902 422.575 326.633 421.01 326.633H300.334C298.767 326.633 297.5 327.902 297.5 329.465C297.5 331.03 298.767 332.299 300.334 332.299Z" fill="#E4E4E3"/>
<path d="M352.824 321.238L351.293 309.294L345.676 308.453L348.38 320.953L352.824 321.238Z" fill="#DADFEE"/>
<path d="M347.309 319.351C346.946 319.402 346.601 319.536 346.326 319.765C344.403 321.361 342.201 323.436 338.742 324.361C335.605 325.2 336.851 326.704 339.931 326.704C344.457 326.704 346.266 326.527 348.281 326.579C350.299 326.63 348.99 326.704 353.953 326.704C356.228 326.704 355.477 322.263 354.269 319.59C353.939 318.858 353.297 318.514 352.469 318.632L347.309 319.351Z" fill="#2A2742"/>
<path d="M328.816 321.238L327.285 309.294L321.668 308.453L324.374 320.953L328.816 321.238Z" fill="#DADFEE"/>
<path d="M323.298 319.35C322.934 319.4 322.591 319.534 322.317 319.763C320.392 321.359 314.547 324.213 311.546 324.645C308.329 325.11 308.165 326.702 312.69 326.702C317.214 326.702 320.533 326.297 322.55 326.351C324.568 326.402 324.044 326.702 329.005 326.702C332.812 326.702 331.621 321.845 330.258 319.588C329.844 318.901 329.286 318.513 328.458 318.63L323.298 319.35Z" fill="#2A2742"/>
<path d="M112.759 263.313C116.948 272.079 133.094 305.866 171.285 323.231C179.408 326.925 217.599 344.293 249.754 328.426C292.299 307.429 278.824 250.676 318.421 222.304C335.707 209.918 353.759 215.436 372.699 220.956C391.063 226.306 410.263 231.657 430.41 220.683C451.771 209.043 468.816 183.872 469.357 161.35C471.05 91.0618 313.791 -27.0155 198.076 30.1426C113.843 71.75 79.0063 192.683 112.759 263.313Z" fill="#FBF6FB"/>
<path d="M372.309 73.0294C358.38 73.0294 344.221 77.7448 335.538 86.0008C317.664 102.996 312.157 144.001 321.831 188.036C334.422 245.342 367.753 288.332 410.996 303.032C480.032 326.502 563.164 278.927 582.807 223.525C592.713 195.582 588.726 173.478 583.638 159.857C574.921 136.524 561.013 120.574 544.472 114.942C526.867 108.949 512.249 116.175 496.772 123.82C482.471 130.887 467.675 138.192 449.723 135.203C433.417 132.492 426.527 119.896 419.232 106.56C412.135 93.5864 404.795 80.1721 388.015 75.2072C383.034 73.7342 377.688 73.0294 372.309 73.0294ZM448.985 310.957C435.969 310.957 422.965 309.011 410.414 304.745C366.569 289.838 332.793 246.354 320.066 188.425C310.261 143.793 315.979 102.106 334.293 84.6905C346.761 72.836 370.079 68.0139 388.527 73.474C406.024 78.6503 413.543 92.3971 420.817 105.692C427.895 118.631 434.582 130.854 450.019 133.421C467.406 136.313 481.93 129.137 495.971 122.201C511.797 114.384 526.742 107.001 545.054 113.233C562.118 119.041 576.421 135.375 585.332 159.225C590.524 173.127 594.598 195.672 584.511 224.129C568.172 270.212 508.511 310.957 448.985 310.957Z" fill="#E9C6AF"/>
<path d="M273.426 75.0652C274.023 74.72 274.588 74.3007 275.1 73.7874C275.611 73.2777 276.031 72.712 276.378 72.1138C277.833 69.6033 277.833 66.4892 276.378 63.9806C276.031 63.3824 275.611 62.8166 275.102 62.3052C274.588 61.7937 274.023 61.3744 273.426 61.0274C270.916 59.5724 267.802 59.5724 265.291 61.0274C264.695 61.3744 264.127 61.7937 263.618 62.3052C263.106 62.8166 262.685 63.3824 262.34 63.9806C260.883 66.4892 260.883 69.6033 262.34 72.1138C262.685 72.712 263.106 73.2777 263.618 73.7874C264.127 74.3007 264.695 74.72 265.291 75.0652C267.802 76.5219 270.916 76.5219 273.426 75.0652ZM255.772 88.1921L249.213 81.6332L251.657 78.7992C250.539 76.9647 249.728 74.9929 249.235 72.9614L245.508 72.6849V63.4095L249.235 63.1329C249.728 61.0996 250.539 59.1296 251.657 57.2933L249.213 54.4612L255.772 47.9022L258.606 50.344C260.442 49.227 262.412 48.4173 264.445 47.9221L264.72 44.1953H273.995L274.274 47.9221C276.305 48.4173 278.275 49.227 280.112 50.344L282.944 47.9022L289.503 54.4612L287.063 57.2933C288.18 59.1296 288.988 61.0996 289.485 63.1329L293.21 63.4095V72.6849L289.485 72.9614C288.988 74.9929 288.18 76.9647 287.063 78.7992L289.503 81.6332L282.944 88.1921L280.112 85.7504C278.275 86.8673 276.305 87.677 274.274 88.1704L273.995 91.8991H264.72L264.445 88.1704C262.412 87.677 260.44 86.8673 258.606 85.7504L255.772 88.1921Z" fill="#9E9E9E"/>
<path d="M224.677 61.455L223.023 57.6324L224.772 56.7197C224.579 55.6009 224.566 54.4786 224.72 53.3869L222.945 52.5266L224.747 47.9811L226.629 48.5703C227.267 47.6684 228.046 46.8605 228.949 46.1773L228.304 44.3157L232.792 42.3746L233.706 44.1223C234.319 44.0175 234.934 43.9651 235.545 43.9651C236.047 43.9651 236.546 44.0012 237.039 44.0699L237.899 42.2969L242.445 44.0988L241.856 45.9803C242.756 46.6165 243.564 47.3955 244.247 48.301L246.11 47.6539L248.051 52.1434L246.304 53.058C246.494 54.1749 246.508 55.2973 246.356 56.3889L248.129 57.2493L246.976 60.1555L224.676 61.455H224.677ZM235.537 50.6108C235.327 50.6108 235.118 50.627 234.908 50.6577C234.548 50.7119 234.189 50.8059 233.84 50.9578C233.489 51.1096 233.173 51.3048 232.887 51.5307C231.685 52.4778 231.082 54.005 231.308 55.5178C231.36 55.8774 231.456 56.2371 231.608 56.5859C231.76 56.9365 231.955 57.251 232.18 57.5384C232.996 58.5722 234.243 59.165 235.539 59.165C235.747 59.165 235.956 59.1488 236.168 59.1181C236.527 59.0639 236.885 58.9699 237.236 58.8181C237.586 58.6662 237.903 58.471 238.188 58.2451C239.388 57.2981 239.994 55.7726 239.768 54.2581C239.714 53.8984 239.618 53.5405 239.468 53.1899C239.316 52.8393 239.119 52.5248 238.893 52.2392C238.08 51.2036 236.833 50.6108 235.537 50.6108Z" fill="#B7E7E8"/>
<path d="M380.193 36.9363C378.472 36.1284 376.742 35.3404 375 34.5686C375.152 33.0468 376.435 31.8594 377.997 31.8594C379.661 31.8594 381.011 33.2077 381.011 34.8722C381.011 35.6711 380.701 36.3977 380.193 36.9363Z" fill="#BAE6C7"/>
<path d="M377.997 37.8868C376.333 37.8868 374.984 36.5385 374.984 34.874C374.984 34.7727 374.995 34.6715 375 34.5703C376.743 35.3421 378.472 36.1301 380.193 36.938C379.644 37.5218 378.863 37.8868 377.997 37.8868" fill="#B5E5CA"/>
<path d="M171.364 187.61C168.776 187.61 166.672 185.505 166.672 182.919C166.672 180.332 168.776 178.227 171.364 178.227C173.95 178.227 176.054 180.332 176.054 182.919C176.054 185.505 173.95 187.61 171.364 187.61ZM171.364 180.034C169.773 180.034 168.479 181.328 168.479 182.919C168.479 184.509 169.773 185.803 171.364 185.803C172.954 185.803 174.246 184.509 174.246 182.919C174.246 181.328 172.954 180.034 171.364 180.034Z" fill="#B7E7E8"/>
<path d="M367.716 46.8691C366.944 46.8691 366.321 46.2455 366.321 45.4756V43.7712H364.618C363.846 43.7712 363.223 43.1477 363.223 42.3777C363.223 41.606 363.846 40.9825 364.618 40.9825H366.321V39.2781C366.321 38.5063 366.944 37.8828 367.716 37.8828C368.488 37.8828 369.109 38.5063 369.109 39.2781V40.9825H370.815C371.584 40.9825 372.209 41.606 372.209 42.3777C372.209 43.1477 371.584 43.7712 370.815 43.7712H369.109V45.4756C369.109 46.2455 368.488 46.8691 367.716 46.8691Z" fill="#B7E7E8"/>
<path d="M166.066 170.872C165.235 170.872 164.559 170.198 164.559 169.365C164.559 168.534 165.235 167.859 166.066 167.859C166.897 167.859 167.571 168.534 167.571 169.365C167.571 170.198 166.897 170.872 166.066 170.872Z" fill="#B5E5CA"/>
<path d="M521.16 262.262C521.489 267.888 517.194 272.714 511.568 273.043L403.788 279.316L393.937 279.895L387.322 280.274L377.327 280.853L361.513 281.775L348.428 282.532L342.861 282.859L329.812 283.618L226.443 289.638C220.815 289.967 215.991 285.673 215.662 280.047L204.688 91.4042L510.169 73.6016L521.16 262.262Z" fill="#524DAA"/>
<path d="M214.84 280.854C205.969 280.854 198.375 274.125 197.476 265.111L190.225 192.216L194.5 196.019L205.078 184.13L202.336 181.689C204.059 183.169 205.911 184.499 207.872 185.661C208.575 188.007 209.474 190.302 210.569 192.524C210.569 192.524 210.569 192.524 210.569 192.526L215.66 280.044C215.675 280.31 215.702 280.572 215.736 280.83C215.436 280.847 215.136 280.854 214.838 280.854L214.84 280.854ZM189.818 188.152L183.189 121.491C182.233 111.888 189.242 103.332 198.844 102.376L205.287 101.734L206.332 119.687C204.832 120.67 203.424 121.753 202.106 122.897C199.815 124.889 197.778 127.153 196.037 129.615C191.056 136.58 188.32 145.249 188.857 154.466C189.466 164.935 194.165 174.192 201.308 180.776L198.559 178.331L189.818 188.152Z" fill="#C2E3F7"/>
<path d="M215.737 280.827C215.703 280.569 215.675 280.307 215.661 280.041L210.57 192.523C212.439 196.36 214.884 199.946 217.881 203.194L213.722 207.866L212.752 207.023L211.49 208.325L212.473 225.222L221.196 214.537L220.223 213.673L224.406 208.999C227.225 211.054 230.227 212.738 233.343 214.054L233.672 219.695C233.735 220.792 234.221 221.8 235.044 222.531C235.803 223.208 236.766 223.572 237.775 223.572L238.021 223.564L239.703 223.467V230.356L238.422 230.43C237.323 230.494 236.316 230.982 235.584 231.802C234.852 232.625 234.485 233.68 234.55 234.779L235.808 256.386C235.873 257.483 236.36 258.492 237.182 259.222C237.914 259.874 238.834 260.236 239.803 260.261C240.451 264.548 244.149 267.834 248.617 267.834H327.384C327.478 268.447 327.574 269.076 327.671 269.714L216.592 280.764C216.307 280.793 216.021 280.813 215.738 280.827L215.737 280.827ZM340.641 268.423C340.61 268.226 340.579 268.029 340.551 267.834H346.165C346.165 267.846 346.165 267.861 346.175 267.874L340.646 268.423L340.641 268.423ZM390.637 263.451C390.825 262.379 390.987 261.394 391.123 260.514C391.683 256.863 392.081 251.441 392.37 245.531H398.497C398.099 250.935 397.629 255.815 397.141 259.086C396.978 260.185 396.787 261.456 396.574 262.86L390.637 263.451ZM406.456 261.877C406.531 261.398 406.599 260.942 406.666 260.514C407.208 256.881 407.733 251.459 408.166 245.531H409.07C410.046 241.32 410.841 216.938 411.166 204.54C412.829 205.516 414.329 206.13 414.582 206.221C414.926 206.365 415.269 206.419 415.631 206.419C416.769 206.419 417.835 205.733 418.287 204.612C418.604 203.786 418.511 202.899 418.11 202.178L498.365 206.741L501.166 234.898C502.07 243.984 495.844 252.135 487.036 253.794L464.506 246.07C464.182 245.957 463.851 245.905 463.526 245.905C462.535 245.905 461.596 246.398 461.035 247.224C460.361 247.535 459.801 248.092 459.501 248.835L456.233 256.926L406.456 261.877ZM239.708 258.244C238.702 258.136 237.877 257.317 237.816 256.269L236.556 234.661C236.525 234.099 236.712 233.557 237.088 233.136C237.462 232.715 237.98 232.465 238.543 232.433L239.708 232.364V258.244V258.244ZM237.811 221.565C236.706 221.565 235.743 220.707 235.678 219.577L235.403 214.863C236.82 215.38 238.257 215.825 239.708 216.194V221.459L237.91 221.563C237.876 221.565 237.843 221.565 237.811 221.565L237.811 221.565ZM239.709 203.776C237.966 203.154 236.265 202.382 234.622 201.457L234.42 197.97C234.387 197.408 234.576 196.866 234.951 196.447C235.326 196.024 235.843 195.774 236.405 195.742L239.709 195.55V203.776ZM232.54 200.177C231.283 199.34 230.07 198.406 228.909 197.374C226.692 195.402 224.805 193.193 223.252 190.82C224.689 190.983 226.148 191.066 227.623 191.066C228.385 191.066 229.148 191.044 229.92 190.999C233.325 190.8 236.605 190.166 239.709 189.156V193.54L236.289 193.739C235.192 193.803 234.183 194.291 233.453 195.111C232.719 195.933 232.353 196.989 232.418 198.088L232.54 200.177V200.177ZM410.944 191.175C410.424 183.979 409.417 171.767 408.04 162.175C409.558 164.182 411.025 166.267 412.249 168.23L410.944 191.175ZM412.777 158.953C409.775 154.964 406.97 151.808 406.341 151.114C405.762 150.482 404.967 150.174 404.172 150.174C403.829 150.066 403.467 149.994 403.088 149.994H392.822C392.785 148.62 392.84 147.246 392.948 146.036C400.846 145.746 407.172 139.276 407.172 131.305C407.172 131.305 411.347 119.793 396.382 114.461C395.822 114.262 395.279 114.117 394.719 113.973C394.34 112.852 393.581 111.714 392.189 110.448C390.242 108.679 387.69 107.866 385.082 107.866C382.861 107.866 380.598 108.457 378.632 109.548C377.598 109.131 376.47 108.901 375.288 108.901H358.666C358.648 108.869 358.627 108.836 358.608 108.804C358.879 107.882 359.06 106.906 359.132 106.038C359.386 102.803 359.114 99.2246 355.03 97.616C356.427 95.4273 351.955 91.1709 347.312 91.1709C346.55 91.1709 345.781 91.2866 345.035 91.5433C341.221 92.8645 338.595 93.3163 336.788 93.3181C332.833 93.3181 332.799 91.1457 332.799 91.1457C327.54 92.6819 327.034 97.5257 329.365 99.6584C328.009 101.448 327.919 103.815 328.1 106.038C328.136 106.49 328.227 107.032 328.335 107.611C328.293 108.037 328.25 108.464 328.234 108.901H248.617C244.552 108.901 241.122 111.621 240.05 115.341C236.154 114.027 231.993 113.318 227.684 113.318C226.925 113.318 226.161 113.34 225.392 113.385C224.37 113.445 223.327 113.553 222.334 113.684C216.54 114.473 211.201 116.523 206.561 119.536C206.483 119.585 206.408 119.633 206.334 119.684L205.289 101.731L417.223 80.6484L412.771 158.953L412.777 158.953ZM387.105 149.994H384.197V143.559C385.159 144.205 386.2 144.731 387.304 145.132C387.177 146.325 387.051 148.06 387.105 149.994Z" fill="#6A74C2"/>
<path d="M375.285 267.838H359.354C359.288 267.415 359.223 266.997 359.16 266.585L380.668 264.445C380.558 265.038 380.442 265.651 380.321 266.28C378.888 267.263 377.154 267.838 375.285 267.838Z" fill="#6A74C2"/>
<path d="M346.165 267.838H340.552C339.933 263.802 339.388 260.225 338.993 257.626C338.856 256.715 338.721 255.674 338.587 254.527L344.242 254.198C344.454 256.236 344.676 258.06 344.904 259.578C345.231 261.749 345.668 264.603 346.165 267.838ZM327.385 267.838H248.618C244.15 267.838 240.452 264.552 239.803 260.265C239.84 260.267 239.878 260.267 239.914 260.267L240.159 260.261L325.577 255.285C325.755 256.888 325.937 258.338 326.125 259.579C326.454 261.75 326.89 264.606 327.385 267.839V267.838ZM359.158 266.587C358.616 263.064 358.141 259.952 357.79 257.627C357.61 256.438 357.432 255.021 357.261 253.44L367.901 252.82C370.167 252.688 371.902 250.736 371.77 248.471L370.512 226.864C370.447 225.765 369.961 224.759 369.139 224.027C368.383 223.352 367.443 222.987 366.422 222.987C366.336 222.987 366.249 222.99 366.162 222.995L355.157 223.636C355.023 221.059 354.909 218.719 354.817 216.767L365.764 216.129C368.031 215.997 369.766 214.045 369.632 211.78L368.374 190.173C368.246 187.975 366.383 186.298 364.226 186.298C364.159 186.298 364.092 186.3 364.026 186.302L363.337 186.344C363.413 186.188 363.482 186.026 363.538 185.858C364.243 183.852 363.176 181.628 361.152 180.942L361.007 180.869C361.51 180.405 361.996 179.951 362.47 179.507L363.626 179.44C364.881 179.366 365.972 178.737 366.673 177.804C367.115 187.842 374.404 196.221 378.611 200.263C378.015 200.57 377.491 200.805 377.183 200.913C375.719 201.492 374.997 203.154 375.575 204.618C376.009 205.739 377.093 206.426 378.232 206.426C378.575 206.426 378.936 206.371 379.28 206.227C379.388 206.191 379.732 206.046 380.22 205.829C377.039 221.445 382.208 245.537 382.208 245.537H382.732C382.443 250.959 382.081 255.839 381.595 259.092C381.367 260.578 381.051 262.396 380.666 264.448L359.158 266.588V266.587ZM239.935 258.263C239.855 258.263 239.78 258.259 239.704 258.251V232.371L323.532 227.487C323.781 232.076 324.086 237.16 324.433 242.048L291.158 243.985L291.406 248.236L324.75 246.295C324.945 248.769 325.151 251.137 325.368 253.291L240.042 258.262C240.006 258.264 239.969 258.264 239.935 258.264L239.935 258.263ZM286.909 244.235L250.302 246.368L250.55 250.617L287.156 248.484L286.909 244.235ZM271.575 237.548L249.861 238.811L250.109 243.062L271.823 241.797L271.575 237.548ZM297.325 236.047L275.611 237.311L275.86 241.562L297.572 240.297L297.325 236.047ZM338.37 252.534C337.632 245.366 336.993 235.211 336.535 226.73L342.258 226.398C342.695 234.564 343.313 244.54 344.043 252.204L338.37 252.534ZM357.056 251.444C356.332 244.041 355.706 233.915 355.263 225.641L366.279 224.999L366.406 224.995C366.923 224.995 367.416 225.181 367.806 225.528C368.226 225.902 368.477 226.419 368.51 226.981L369.769 248.588C369.836 249.75 368.945 250.752 367.785 250.82L357.056 251.444L357.056 251.444ZM239.704 230.363V223.473L323.081 218.616C323.175 220.624 323.291 222.958 323.425 225.486L239.704 230.363ZM336.429 224.727C336.295 222.195 336.181 219.862 336.085 217.859L341.813 217.525C341.905 219.488 342.019 221.825 342.152 224.395L336.429 224.727ZM239.704 221.465V216.2C243.344 217.129 247.072 217.592 250.792 217.592C251.66 217.592 252.527 217.567 253.393 217.516C259.616 217.153 265.77 215.499 271.407 212.586L285.018 211.792L284.77 207.543L278.645 207.901C280.019 206.809 281.338 205.625 282.598 204.353L302.344 203.204L302.096 198.953L286.498 199.862C288.251 197.559 289.762 195.117 291.022 192.565L322.523 190.731C322.512 190.913 322.51 191.009 322.51 191.009C322.51 191.009 322.058 201.383 322.781 211.884C322.812 212.633 322.883 214.306 322.987 216.614L239.704 221.465V221.465ZM298.156 206.764L289.021 207.295L289.267 211.545L298.403 211.013L298.156 206.764ZM335.993 215.857C335.921 214.308 335.867 213.061 335.83 212.21H341.578C341.607 212.909 341.656 214.046 341.721 215.523L335.993 215.857ZM354.723 214.765C354.616 212.436 354.558 211.013 354.553 210.944C354.553 210.71 354.501 210.493 354.465 210.258C355.477 207.257 356.886 200.769 355.097 191.009C355.045 190.335 355.011 189.61 354.989 188.84L364.141 188.307L364.266 188.303C365.374 188.303 366.307 189.17 366.373 190.289L367.631 211.896C367.699 213.058 366.809 214.06 365.647 214.128L354.723 214.765L354.723 214.765ZM247.925 205.567C245.138 205.327 242.374 204.732 239.703 203.782V195.556L276.442 193.415C276.098 193.841 275.744 194.26 275.377 194.673C273.134 197.194 270.588 199.287 267.842 200.948L247.723 202.119L247.925 205.567ZM383.527 197.009C379.93 193.756 371.255 184.755 372.465 174.941C372.917 171.417 376.098 165.471 379.008 160.699C381.34 172.465 384.268 185.984 383.527 197.009ZM239.703 193.547V189.162C242.033 188.403 244.261 187.43 246.367 186.27L281.683 184.213C280.758 186.707 279.525 189.091 278.003 191.316L239.703 193.547ZM291.976 190.501C292.957 188.229 293.746 185.881 294.335 183.476L314.264 182.316C313.822 183.212 313.724 184.278 314.069 185.298C314.629 186.906 316.13 187.9 317.738 187.9C318.154 187.9 318.588 187.828 319.003 187.683C320.413 187.195 321.696 186.364 322.763 185.515C322.701 186.774 322.652 187.855 322.613 188.715L291.976 190.501ZM354.967 186.83C354.967 186.612 354.967 186.389 354.967 186.165C355.23 186.373 355.51 186.581 355.803 186.782L354.963 186.83L354.967 186.83ZM249.922 184.052C251.267 183.111 252.548 182.086 253.759 180.987C256.002 178.972 258.013 176.687 259.727 174.179C259.737 174.166 259.741 174.155 259.75 174.144L283.673 174.533C283.537 177.137 283.096 179.697 282.362 182.164L249.922 184.052L249.922 184.052ZM294.779 181.441C295.209 179.238 295.473 176.996 295.567 174.726L315.493 175.05C316.238 176.579 317.006 178.103 317.771 179.586C317.49 179.8 317.203 179.998 316.934 180.15L294.779 181.441ZM358.834 172.209L359.165 151.78L362 151.615L362.124 151.611C363.231 151.611 364.166 152.479 364.231 153.599L364.956 166.036C363.165 167.935 361.054 170.061 358.834 172.208L358.834 172.209ZM366.845 163.979L366.232 153.482C366.103 151.286 364.262 149.607 362.091 149.607C362.023 149.607 361.954 149.609 361.883 149.612L358.952 149.782C358.803 149.417 358.588 149.084 358.321 148.802C358.597 146.747 358.876 144.763 359.15 142.883L359.991 142.835C365.075 150.313 369.485 157.548 370.04 159.849C369.597 160.722 368.448 162.179 366.845 163.979V163.979ZM376.113 154.554C373.749 149.444 369.326 142.619 365.259 136.774L364.095 116.79C363.967 114.594 362.12 112.915 359.956 112.915C359.888 112.915 359.817 112.917 359.747 112.921L359.264 112.948C359.373 112.527 359.431 112.084 359.431 111.628C359.431 110.622 359.131 109.698 358.657 108.906H375.279C376.461 108.906 377.589 109.136 378.623 109.554C376.107 110.951 374.076 113.168 373.239 116.02C371.124 123.268 373.835 125.907 376.402 130.859C375.715 131.69 375.299 132.738 375.299 133.895C375.299 135.341 375.95 136.624 376.962 137.492L377.396 137.745C376.601 141.956 374.088 145.806 374.088 145.806C374.088 145.806 378.86 145.48 383.324 142.932C383.606 143.154 383.895 143.364 384.193 143.565V149.999H380.92C380.071 149.999 379.312 150.324 378.733 150.848L378.498 151.083L378.372 151.228L378.245 151.391C377.974 151.77 377.179 152.927 376.113 154.553V154.554ZM325.271 147.335L323.818 147.311C324.359 146.588 324.917 145.849 325.488 145.101C325.416 145.833 325.342 146.578 325.271 147.335V147.335ZM314.364 147.158L292.032 146.793L315.58 145.421C315.164 146.006 314.756 146.585 314.364 147.158ZM266.083 146.296C265.932 145.292 265.74 144.304 265.512 143.33C267.072 144.116 268.578 145.029 270.011 146.066L266.083 146.296ZM286.069 145.132C284.43 143.048 282.592 141.094 280.57 139.294C279.214 138.088 277.799 136.973 276.333 135.952L276.295 135.29L275.433 135.339C273.726 134.213 271.955 133.208 270.13 132.332L298.115 130.702L297.867 126.452L259.036 128.715C258.881 128.686 258.723 128.657 258.568 128.63C256.443 125.851 253.952 123.369 251.176 121.254L330.238 116.649C332.394 120.289 336.095 122.908 340.435 123.611C340.471 125.419 340.344 127.244 340.001 128.509H330.675C329.663 128.509 328.741 128.979 328.145 129.738C327.801 129.955 327.494 130.208 327.223 130.533C324.774 133.461 320.736 138.403 317.105 143.322L286.069 145.132L286.069 145.132ZM314.799 133.048L280.542 135.043L280.79 139.292L315.048 137.297L314.799 133.048ZM363.068 133.669C362.327 132.628 361.613 131.643 360.948 130.732C360.804 130.533 360.659 130.371 360.478 130.208C359.954 129.214 358.888 128.509 357.641 128.509H349.309C349.634 126.25 349.652 123.973 349.562 122.129C352.165 120.756 354.297 118.623 355.653 116.002C355.866 116.069 356.088 116.105 356.309 116.105C356.746 116.105 357.185 115.964 357.568 115.641C357.793 115.453 358 115.245 358.19 115.021L359.862 114.923L359.985 114.92C361.095 114.92 362.027 115.788 362.093 116.908L363.068 133.67L363.068 133.669ZM248.52 119.4C245.89 117.723 243.047 116.356 240.05 115.346C241.122 111.626 244.553 108.906 248.617 108.906H328.229C328.229 109.024 328.218 109.141 328.218 109.26C328.218 111.182 328.592 113.016 329.272 114.695L248.517 119.4" fill="#819FD9"/>
<path d="M510.163 73.6102L204.676 91.4055L203.249 66.9157C203.114 64.6004 204.883 62.6141 207.199 62.4786L504.299 45.1712C506.615 45.0374 508.601 46.805 508.737 49.1203L510.163 73.6102Z" fill="#414041"/>
<path d="M504.168 67.9261L209.971 85.0636L209.422 75.5984L503.615 58.4609L504.168 67.9261Z" fill="#F5F5F5"/>
<path d="M214.153 72.1288L209.235 72.4162L208.949 67.4965L213.867 67.2109L214.153 72.1288Z" fill="#FBF7EB"/>
<path d="M222.897 71.621L217.979 71.9084L217.691 66.9905L222.611 66.7031L222.897 71.621Z" fill="#FBF7EB"/>
<path d="M231.639 71.115L226.721 71.4005L226.434 66.4827L231.351 66.1953L231.639 71.115Z" fill="#FBF7EB"/>
<path d="M359.987 114.911L359.865 114.914L232.123 122.355C231.561 122.388 231.044 122.639 230.67 123.06C230.294 123.481 230.106 124.021 230.139 124.584L231.397 146.193C231.464 147.353 232.458 148.251 233.627 148.177L361.37 140.734C361.934 140.702 362.449 140.452 362.823 140.031C363.199 139.61 363.385 139.068 363.354 138.506L362.095 116.899C362.03 115.778 361.097 114.911 359.987 114.911V114.911ZM233.502 150.187C231.343 150.187 229.523 148.495 229.394 146.31L228.136 124.701C228.071 123.604 228.438 122.547 229.172 121.726C229.902 120.906 230.909 120.418 232.008 120.353L359.749 112.912C362.001 112.798 363.966 114.515 364.098 116.781L365.355 138.388C365.42 139.485 365.054 140.543 364.322 141.365C363.591 142.187 362.585 142.674 361.486 142.739L233.744 150.18L233.502 150.187" fill="#C3CDEC"/>
<path d="M362.124 151.606L362.001 151.61L234.26 159.051C233.096 159.119 232.206 160.119 232.273 161.281L233.533 182.888C233.6 184.05 234.603 184.95 235.763 184.873L363.507 177.431C364.667 177.363 365.556 176.363 365.489 175.201L364.231 153.594C364.166 152.473 363.232 151.606 362.124 151.606V151.606ZM235.639 186.882C233.477 186.882 231.657 185.19 231.531 183.005L230.273 161.396C230.141 159.132 231.876 157.181 234.142 157.048L361.884 149.607C364.143 149.495 366.1 151.21 366.232 153.476L367.492 175.083C367.626 177.35 365.889 179.3 363.622 179.434L235.879 186.875L235.639 186.881" fill="#C3CDEC"/>
<path d="M355.666 175.7L227.724 173.618C226.005 173.591 224.633 172.174 224.661 170.455L225.015 148.814C225.041 147.093 226.457 145.723 228.178 145.75L356.12 147.834C357.838 147.861 359.21 149.277 359.181 150.997L358.831 172.639C358.802 174.357 357.385 175.729 355.666 175.7Z" fill="#F9F4FB"/>
<path d="M364.263 188.294L364.138 188.299L236.397 195.74C235.835 195.772 235.318 196.022 234.944 196.445C234.568 196.864 234.38 197.406 234.412 197.968L235.67 219.575C235.737 220.739 236.756 221.614 237.902 221.562L365.644 214.12C366.806 214.052 367.695 213.05 367.628 211.888L366.37 190.281C366.303 189.162 365.371 188.295 364.263 188.295V188.294ZM237.772 223.569C236.764 223.569 235.8 223.206 235.041 222.528C234.219 221.798 233.733 220.789 233.669 219.692L232.41 198.085C232.345 196.986 232.711 195.931 233.445 195.108C234.175 194.288 235.184 193.8 236.281 193.737L364.022 186.294C366.262 186.185 368.239 187.899 368.371 190.165L369.629 211.772C369.763 214.037 368.028 215.989 365.761 216.121L238.018 223.562L237.772 223.569" fill="#C3CDEC"/>
<path d="M537.255 208.946C537.132 208.946 537.007 208.942 536.881 208.936L517.99 207.86L512.671 116.575C518.735 114.273 524.871 112.726 531.318 112.726C535.547 112.726 539.91 113.392 544.474 114.945C545.88 115.424 547.268 115.977 548.636 116.604L543.732 202.821C543.537 206.275 540.674 208.946 537.255 208.946V208.946ZM512.561 114.678L510.168 73.5996L508.735 49.1205C508.605 46.8884 506.754 45.1642 504.545 45.1642C504.464 45.1642 504.381 45.1677 504.297 45.1715L418.957 50.1435L419.682 37.4142C419.877 33.9585 422.74 31.2891 426.158 31.2891C426.282 31.2891 426.407 31.2926 426.534 31.2999L546.592 38.1245C550.174 38.3287 552.91 41.3977 552.708 44.9762L548.746 114.672C547.531 114.139 546.299 113.658 545.056 113.235C540.255 111.601 535.688 110.904 531.274 110.904C524.784 110.904 518.626 112.413 512.561 114.677" fill="#BCE8E4"/>
<path d="M548.638 116.599C547.269 115.972 545.881 115.419 544.475 114.94C539.912 113.387 535.549 112.72 531.319 112.72C524.872 112.72 518.737 114.267 512.673 116.57L512.562 114.672C518.628 112.408 524.786 110.898 531.276 110.898C535.69 110.898 540.257 111.596 545.057 113.23C546.301 113.653 547.533 114.134 548.748 114.667L548.638 116.599Z" fill="#A3DAE6"/>
<path d="M517.992 207.862L498.36 206.747L486.872 91.283C486.081 83.3143 480.051 77.1295 472.533 75.8047L510.162 73.6123V73.6016H510.173L512.566 114.679L512.676 116.577L517.995 207.862L517.992 207.862ZM417.227 80.6539L417.321 79.0201L456.714 76.7265L417.227 80.6539" fill="#5568BB"/>
<path d="M498.358 206.739L418.104 202.175C417.791 201.617 417.294 201.158 416.654 200.905C416.275 200.76 415.425 200.381 414.54 199.875C417.377 195.501 422.474 185.831 421.082 174.535C420.531 170.14 416.499 163.904 412.77 158.95L417.222 80.646L456.709 76.7186L472.531 75.7969C480.05 77.1217 486.079 83.3065 486.871 91.2752L498.358 206.739ZM411.16 194.344C411.1 193.455 411.026 192.385 410.938 191.172L412.242 168.228C413.961 170.987 415.196 173.509 415.407 175.24C416.365 182.994 413.527 190.025 411.16 194.344Z" fill="#6A9EDA"/>
<path d="M417.316 79.018L417.66 72.9669L504.166 67.9279L503.613 58.4627L418.202 63.4384L418.957 50.1434L504.298 45.1713C504.381 45.1678 504.464 45.1641 504.546 45.1641C506.754 45.1641 508.605 46.8883 508.735 49.1204L510.161 73.5994V73.6102L472.532 75.8026L456.71 76.7243L417.316 79.0179" fill="#9DD7CD"/>
<path d="M417.66 72.9651L418.202 63.4366L503.613 58.4609L504.166 67.9261L417.66 72.9651Z" fill="#B2E5DF"/>
<path d="M366.405 224.99L366.279 224.995L238.537 232.436C237.975 232.468 237.456 232.718 237.083 233.139C236.707 233.56 236.52 234.102 236.551 234.664L237.811 256.271C237.879 257.435 238.888 258.315 240.041 258.257L367.784 250.817C368.945 250.748 369.836 249.747 369.769 248.584L368.509 226.977C368.477 226.415 368.225 225.898 367.806 225.524C367.416 225.177 366.922 224.991 366.405 224.991V224.99ZM239.913 260.265C238.903 260.265 237.941 259.902 237.182 259.224C236.359 258.494 235.873 257.486 235.808 256.389L234.55 234.782C234.485 233.683 234.852 232.627 235.584 231.805C236.316 230.984 237.323 230.496 238.422 230.433L366.161 222.992C367.284 222.925 368.319 223.294 369.138 224.024C369.96 224.756 370.447 225.763 370.512 226.862L371.769 248.469C371.902 250.733 370.166 252.685 367.9 252.817L240.159 260.258L239.913 260.265" fill="#C3CDEC"/>
<path d="M278.133 154.433L266.488 154.243C266.51 153.829 266.525 153.413 266.532 152.996C266.543 152.363 266.543 151.723 266.521 151.078L275.67 151.228C276.559 152.249 277.382 153.319 278.134 154.433" fill="#B6DFF6"/>
<path d="M281.195 160.11L265.789 159.859C265.995 158.821 266.161 157.768 266.284 156.703L279.655 156.92C280.227 157.954 280.74 159.018 281.195 160.11Z" fill="#B6DFF6"/>
<path d="M323.801 166.589L320.106 166.53C319.212 164.522 318.443 162.684 317.887 161.182L317.975 155.741C318.594 154.695 319.441 153.406 320.453 151.953L324.86 152.025C324.46 156.791 324.108 161.805 323.801 166.589" fill="#B6DFF6"/>
<path d="M510.205 157.495L509.524 239.318L507.496 239.303L508.179 157.477L510.205 157.495Z" fill="#59C478"/>
<path d="M420.484 211.024L420.254 238.574L418.227 238.556L418.456 211.008L420.484 211.024" fill="#F1F7FD"/>
<path d="M465.372 181.26L464.889 238.941L462.863 238.924L463.344 181.242L465.372 181.26" fill="#F1F7FD"/>
<path d="M508.828 220.115H508.692C496.697 220.015 490.924 206.82 485.339 194.058C479.793 181.383 474.555 169.409 463.987 169.32H463.871C453.38 169.32 447.961 181.162 442.226 193.698C436.454 206.315 430.482 219.361 418.577 219.361H418.441L418.46 217.16H418.577C429.069 217.16 434.487 205.318 440.224 192.782C445.997 180.165 451.966 167.117 463.87 167.117L464.005 167.119C476.001 167.219 481.774 180.414 487.358 193.174C492.903 205.851 498.143 217.825 508.709 217.914H508.826C519.32 217.914 524.738 206.07 530.473 193.534C536.25 180.917 542.219 167.871 554.124 167.871H554.262L554.244 170.074H554.124C543.633 170.074 538.216 181.916 532.477 194.45C526.705 207.071 520.733 220.115 508.828 220.115" fill="#FBC038"/>
<path d="M481.414 155L481.913 146.203L499.506 147.204L499.005 156.001L481.414 155Z" fill="#ACE1B7"/>
<path d="M450.273 153.224L450.774 144.43L468.367 145.429L467.866 154.226L450.273 153.224Z" fill="#ACE1B7"/>
<path d="M419.141 151.461L419.64 142.664L437.234 143.665L436.732 152.462L419.141 151.461Z" fill="#ACE1B7"/>
<path d="M250.777 205.691C249.827 205.691 248.874 205.649 247.925 205.568L247.723 202.12L267.842 200.948C262.639 204.095 256.716 205.691 250.777 205.691V205.691ZM282.598 204.354C283.165 203.781 283.718 203.19 284.261 202.579C285.045 201.699 285.791 200.791 286.498 199.862L302.096 198.953L302.343 203.204L282.598 204.354Z" fill="#8AB6E5"/>
<path d="M271.402 212.582C273.935 211.273 276.36 209.71 278.641 207.897L284.766 207.539L285.014 211.788L271.402 212.582Z" fill="#8AB6E5"/>
<path d="M289.265 211.538L289.02 207.289L298.154 206.758L298.402 211.007L289.265 211.538Z" fill="#8AB6E5"/>
<path d="M270.133 132.333C266.612 130.644 262.887 129.428 259.039 128.716L297.87 126.453L298.118 130.702L270.133 132.333Z" fill="#8AB6E5"/>
<path d="M276.337 135.951C276.039 135.743 275.739 135.538 275.438 135.338L276.3 135.289L276.337 135.951" fill="#8AB6E5"/>
<path d="M280.794 139.284L280.547 135.034L314.804 133.039L315.053 137.288L280.794 139.284Z" fill="#8AB6E5"/>
<path d="M250.107 243.053L249.859 238.802L271.573 237.539L271.821 241.788L250.107 243.053Z" fill="#8AB6E5"/>
<path d="M275.859 241.553L275.609 237.302L297.323 236.039L297.571 240.288L275.859 241.553Z" fill="#8AB6E5"/>
<path d="M250.548 250.616L250.301 246.367L286.907 244.234L287.155 248.484L250.548 250.616Z" fill="#8AB6E5"/>
<path d="M291.4 248.228L291.152 243.977L324.428 242.039C324.529 243.478 324.636 244.898 324.744 246.286L291.4 248.228Z" fill="#8AB6E5"/>
<path d="M210.568 192.521C210.568 192.519 210.568 192.519 210.568 192.519C209.472 190.298 208.574 188.002 207.871 185.656C208.645 186.115 209.438 186.549 210.246 186.954L210.57 192.521" fill="#82A6D1"/>
<path d="M212.473 225.227L211.49 208.33L212.751 207.028L213.722 207.87L217.88 203.198C214.884 199.951 212.438 196.365 210.57 192.528L210.246 186.961C214.248 188.971 218.634 190.305 223.246 190.825C224.799 193.198 226.686 195.407 228.904 197.379C230.064 198.411 231.277 199.345 232.535 200.182L233.342 214.059C230.226 212.743 227.224 211.059 224.405 209.004L220.223 213.677L221.195 214.541L212.473 225.227ZM239.703 216.199C238.251 215.83 236.814 215.385 235.397 214.869L234.617 201.461C236.26 202.387 237.96 203.159 239.703 203.78V216.199Z" fill="#4D5AB2"/>
<path d="M250.791 217.584C247.072 217.584 243.343 217.121 239.703 216.192V203.773C242.374 204.724 245.138 205.319 247.925 205.559L247.972 206.362L282.597 204.345C281.337 205.617 280.018 206.801 278.644 207.892L248.163 209.667L248.411 213.918L271.406 212.577C265.769 215.491 259.615 217.144 253.392 217.508C252.526 217.558 251.659 217.584 250.791 217.584" fill="#5676C3"/>
<path d="M235.398 214.866C234.708 214.613 234.023 214.344 233.343 214.057L232.535 200.18C233.217 200.635 233.912 201.062 234.617 201.459L235.398 214.866Z" fill="#8296D3"/>
<path d="M267.839 200.948C270.584 199.287 273.131 197.194 275.374 194.673C275.74 194.261 276.095 193.841 276.438 193.415L291.018 192.565C289.758 195.117 288.247 197.559 286.494 199.862L267.839 200.948ZM278 191.317C279.522 189.092 280.754 186.708 281.679 184.214L294.331 183.476C293.742 185.882 292.954 188.23 291.972 190.501L278 191.317ZM282.363 182.164C283.096 179.697 283.537 177.138 283.673 174.533L295.567 174.727C295.473 176.997 295.21 179.238 294.779 181.441L282.363 182.164ZM270.011 146.067C268.578 145.03 267.072 144.117 265.513 143.331C265.267 142.281 264.981 141.249 264.652 140.235L276.541 139.541L276.333 135.953C277.799 136.974 279.214 138.089 280.57 139.295C282.592 141.095 284.43 143.049 286.07 145.133L270.011 146.067Z" fill="#5676C3"/>
<path d="M287.261 146.708L270.523 146.437C270.353 146.309 270.183 146.184 270.012 146.059L286.07 145.125C286.479 145.646 286.876 146.173 287.261 146.708Z" fill="#8296D3"/>
<path d="M281.684 184.202C281.933 183.526 282.161 182.843 282.367 182.153L294.784 181.43C294.65 182.111 294.5 182.791 294.335 183.465L281.684 184.202Z" fill="#8296D3"/>
<path d="M295.567 174.727L283.673 174.534C283.735 173.323 283.73 172.103 283.661 170.876C283.442 167.113 282.598 163.485 281.19 160.111L285.467 160.18L285.518 157.017L279.651 156.921C279.181 156.071 278.675 155.242 278.129 154.434L285.559 154.555L285.61 151.39L275.665 151.229C274.738 150.165 273.737 149.155 272.667 148.2C271.973 147.582 271.257 146.998 270.523 146.445L287.262 146.716C292.154 153.534 295.03 161.604 295.53 170.183C295.619 171.707 295.632 173.223 295.569 174.727" fill="#AAB5D0"/>
<path d="M276.441 193.413C276.993 192.732 277.513 192.031 278.003 191.315L291.976 190.5C291.676 191.196 291.357 191.884 291.021 192.564L276.441 193.413Z" fill="#8296D3"/>
<path d="M263.032 136.057C262.528 134.954 261.975 133.881 261.375 132.836L270.132 132.327C271.957 133.203 273.728 134.208 275.435 135.334L263.032 136.057ZM258.651 128.732C258.625 128.697 258.597 128.661 258.57 128.625C258.726 128.652 258.883 128.681 259.038 128.71L258.652 128.732" fill="#5676C3"/>
<path d="M285.562 154.552L278.131 154.431C277.379 153.318 276.557 152.248 275.668 151.227L285.612 151.387L285.562 154.552" fill="#79A2D2"/>
<path d="M285.468 160.173L281.192 160.104C280.737 159.012 280.224 157.948 279.652 156.914L285.519 157.01L285.468 160.173" fill="#79A2D2"/>
<path d="M247.973 206.368L247.926 205.565C248.875 205.647 249.827 205.688 250.778 205.688C256.717 205.688 262.64 204.092 267.843 200.946L286.499 199.859C285.792 200.788 285.046 201.696 284.261 202.576C283.719 203.187 283.166 203.778 282.599 204.351L247.973 206.368" fill="#5A87CD"/>
<path d="M248.412 213.924L248.164 209.673L278.645 207.898C276.365 209.711 273.939 211.275 271.407 212.583L248.412 213.924Z" fill="#5A87CD"/>
<path d="M261.376 132.845C260.554 131.415 259.643 130.045 258.652 128.74L259.039 128.719C262.887 129.431 266.612 130.647 270.133 132.335L261.376 132.845" fill="#5A87CD"/>
<path d="M264.656 140.23C264.195 138.801 263.651 137.407 263.035 136.059L275.437 135.336C275.739 135.537 276.039 135.741 276.337 135.949L276.545 139.536L264.656 140.23Z" fill="#5A87CD"/>
<path d="M187.98 190.225L194.499 196.025L205.078 184.136L198.561 178.336L187.98 190.225Z" fill="#344048"/>
<path d="M156.73 231.89C160.003 234.802 165.044 234.403 167.812 231.008L198.066 193.948L189.617 186.43L156.319 220.779C153.27 223.925 153.457 228.979 156.73 231.89Z" fill="#5F6070"/>
<path d="M227.618 191.068C226.143 191.068 224.685 190.984 223.248 190.822C216.04 179.809 216.033 165.246 223.636 154.172L224.909 155.303L224.661 170.454C224.634 172.173 226.006 173.59 227.725 173.617L230.99 173.672L231.534 183.007C231.661 185.192 233.481 186.883 235.643 186.883L235.883 186.877L239.704 186.655V189.158C236.601 190.168 233.32 190.803 229.915 191.001C229.143 191.047 228.38 191.068 227.618 191.068V191.068ZM235.628 184.878C234.527 184.878 233.6 184.005 233.537 182.89L233.002 173.705L239.704 173.813V184.645L235.767 184.874C235.72 184.879 235.673 184.879 235.628 184.879" fill="#A4BCE6"/>
<path d="M239.703 189.165V186.662L246.367 186.273C244.261 187.433 242.033 188.406 239.703 189.165ZM239.703 184.652V173.82L245.819 173.92L253.763 180.99C252.552 182.089 251.27 183.114 249.926 184.055L239.703 184.652" fill="#A8CEEF"/>
<path d="M235.64 186.884C233.479 186.884 231.659 185.192 231.532 183.007L230.988 173.672L233 173.704L233.535 182.889C233.598 184.005 234.525 184.878 235.626 184.878C235.671 184.878 235.718 184.878 235.765 184.873L239.702 184.644L249.924 184.047C248.784 184.848 247.594 185.589 246.365 186.265L239.702 186.654L235.881 186.876L235.64 186.882" fill="#C3E0F6"/>
<path d="M245.819 173.913L239.703 173.814L233.002 173.705L230.99 173.673L227.724 173.619C226.005 173.592 224.633 172.175 224.661 170.456L224.908 155.305L232.174 161.771L231.509 161.761L231.457 164.924L235.795 164.994L245.819 173.913" fill="#D8EFF9"/>
<path d="M235.795 164.991L231.457 164.921L231.508 161.758L232.173 161.769L235.795 164.991" fill="#BDE7F9"/>
<path d="M207.873 185.654C205.912 184.492 204.06 183.162 202.337 181.682L201.311 180.769C194.168 174.185 189.469 164.927 188.86 154.459C188.323 145.241 191.059 136.573 196.04 129.608C197.781 127.146 199.818 124.881 202.109 122.89C203.427 121.746 204.835 120.663 206.335 119.68L206.762 127.03L202.109 122.89C199.818 124.881 197.781 127.146 196.04 129.608L207.505 139.81L208.553 157.815C208.553 157.819 208.553 157.822 208.553 157.825C206.537 163.493 205.722 169.462 206.066 175.364C206.268 178.85 206.872 182.304 207.877 185.655" fill="#C2E9F9"/>
<path d="M208.55 157.821L207.502 139.816L214.688 146.211C212.024 149.826 209.974 153.746 208.55 157.821ZM220.764 139.498L206.759 127.036L206.332 119.686C206.406 119.635 206.482 119.586 206.56 119.538C211.199 116.525 216.538 114.475 222.333 113.685C223.325 113.555 224.368 113.447 225.391 113.387C226.159 113.342 226.924 113.32 227.683 113.32C231.991 113.32 236.152 114.029 240.049 115.343C239.823 116.127 239.702 116.957 239.702 117.815V119.91L232.008 120.358C231.418 120.393 230.856 120.55 230.349 120.814L222.333 113.685C216.538 114.475 211.199 116.525 206.56 119.538L225.1 136.037C223.592 137.094 222.145 138.251 220.764 139.498ZM239.702 129.131L232.091 122.364C232.102 122.362 232.112 122.362 232.124 122.361L239.702 121.92V129.132" fill="#A4BCE6"/>
<path d="M239.889 129.298L239.703 129.132V121.921L251.18 121.252C253.956 123.367 256.447 125.848 258.572 128.628C256.042 128.187 253.459 127.963 250.846 127.963C249.96 127.963 249.072 127.988 248.18 128.041C245.353 128.205 242.58 128.63 239.889 129.298V129.298ZM239.703 119.911V117.816C239.703 116.958 239.824 116.128 240.05 115.344C243.047 116.354 245.89 117.72 248.519 119.398L239.703 119.911Z" fill="#A8CEEF"/>
<path d="M232.094 122.366L230.352 120.815C230.859 120.552 231.421 120.394 232.011 120.36L239.705 119.912L248.521 119.398C249.434 119.98 250.321 120.599 251.182 121.253L239.705 121.922L232.126 122.363C232.116 122.365 232.105 122.365 232.093 122.366" fill="#C3E0F6"/>
<path d="M259.729 174.177L259.688 174.141L259.753 174.143C259.742 174.154 259.737 174.164 259.729 174.177" fill="#A8CEEF"/>
<path d="M259.757 174.142L259.692 174.14L249.67 165.22L255.368 165.314L255.407 163.004L262.551 169.363C261.727 171.043 260.78 172.638 259.757 174.141L259.757 174.142ZM254.427 162.133L246.048 161.998L243.23 159.489L251.61 159.625L254.427 162.133ZM247.987 156.402L239.607 156.265L236.789 153.758L245.17 153.893L247.987 156.402Z" fill="#D8EFF9"/>
<path d="M236.16 145.878L231.895 145.81C232.685 145.253 233.498 144.733 234.331 144.25L236.16 145.878" fill="#A4BCE6"/>
<path d="M241.545 150.661L233.165 150.526L229.73 147.469C230.434 146.882 231.157 146.327 231.899 145.805L236.165 145.873L241.545 150.661" fill="#D8EFF9"/>
<path d="M245.168 153.891L236.788 153.756L233.164 150.531L241.545 150.667L245.168 153.891Z" fill="#BDE7F9"/>
<path d="M251.608 159.626L243.229 159.49L239.605 156.266L247.986 156.403L251.608 159.626Z" fill="#BDE7F9"/>
<path d="M255.368 165.316L249.669 165.223L246.047 162L254.426 162.136L255.405 163.007L255.367 165.317" fill="#BDE7F9"/>
<path d="M265.065 146.354L258.949 146.253L252.945 140.914L257.912 140.625C260.551 141.207 263.099 142.114 265.514 143.329C265.741 144.303 265.933 145.292 266.085 146.295L265.065 146.354" fill="#A8CEEF"/>
<path d="M266.098 146.365L265.066 146.349L266.086 146.289C266.097 146.314 266.097 146.34 266.098 146.365" fill="#C3E0F6"/>
<path d="M266.517 151.074L264.333 151.04L258.949 146.25L265.065 146.351L266.097 146.368C266.274 147.542 266.399 148.735 266.47 149.944C266.491 150.32 266.506 150.698 266.517 151.074" fill="#D8EFF9"/>
<path d="M266.53 152.991L264.336 151.039L266.519 151.073C266.537 151.719 266.539 152.358 266.53 152.991" fill="#BDE7F9"/>
<path d="M252.946 140.914L251.77 139.867C253.853 139.927 255.91 140.182 257.913 140.624L252.946 140.914Z" fill="#AAD7F3"/>
<path d="M210.246 186.965C209.439 186.56 208.645 186.127 207.871 185.668C206.867 182.317 206.263 178.863 206.061 175.376C205.717 169.475 206.532 163.506 208.547 157.838C208.547 157.836 208.547 157.832 208.547 157.828L210.243 186.965" fill="#A9D0E6"/>
<path d="M223.246 190.817C218.634 190.296 214.248 188.962 210.246 186.953L208.551 157.816C209.975 153.74 212.024 149.82 214.689 146.206L223.635 154.167C216.031 165.241 216.039 179.805 223.246 190.817ZM231.896 145.806L231.374 145.797L231.118 141.385L234.333 144.246C233.5 144.728 232.686 145.249 231.896 145.806V145.806ZM229.364 145.764L228.177 145.744C228.159 145.744 228.143 145.744 228.127 145.744C228.018 145.744 227.912 145.749 227.807 145.76L220.765 139.492C222.146 138.245 223.594 137.089 225.101 136.031L229 139.501L229.365 145.764" fill="#95AFE0"/>
<path d="M231.375 145.803L229.365 145.77L229 139.508L231.118 141.391L231.375 145.803Z" fill="#AACAE7"/>
<path d="M229.73 147.476L227.809 145.766C227.913 145.756 228.02 145.75 228.128 145.75C228.144 145.75 228.16 145.75 228.179 145.75L229.366 145.77L231.376 145.802L231.898 145.812C231.155 146.334 230.432 146.889 229.729 147.477" fill="#B9D6E5"/>
<path d="M265.513 143.325C263.099 142.111 260.55 141.204 257.912 140.622L264.653 140.229C264.982 141.243 265.268 142.275 265.513 143.325ZM248.445 136.907L244.944 133.795L261.375 132.837C261.975 133.882 262.528 134.956 263.032 136.058L248.445 136.907ZM243.675 132.667L239.887 129.297C242.578 128.628 245.35 128.203 248.177 128.039C249.07 127.986 249.957 127.961 250.843 127.961C253.457 127.961 256.039 128.185 258.57 128.626C258.597 128.662 258.624 128.698 258.651 128.733L243.498 129.617L243.675 132.667" fill="#97BDE6"/>
<path d="M244.946 133.797L243.677 132.669L243.5 129.618L258.653 128.734C259.643 130.039 260.554 131.409 261.377 132.839L244.946 133.797Z" fill="#98C5E7"/>
<path d="M257.912 140.618C255.91 140.175 253.853 139.921 251.769 139.861L248.445 136.904L263.033 136.055C263.649 137.403 264.193 138.796 264.654 140.226L257.912 140.618Z" fill="#98C5E7"/>
<path d="M202.335 181.686C201.988 181.388 201.645 181.084 201.309 180.773L202.335 181.686Z" fill="#85A4AE"/>
<path d="M262.549 169.36L255.405 163.002L255.42 162.147L254.425 162.13L251.608 159.622L265.788 159.853C265.12 163.193 264.021 166.387 262.55 169.36L262.549 169.36ZM266.284 156.697L247.986 156.399L245.168 153.891L266.488 154.238C266.446 155.064 266.378 155.884 266.284 156.697Z" fill="#DDF4FA"/>
<path d="M239.702 145.939L236.161 145.881L234.332 144.253C236.042 143.264 237.838 142.431 239.702 141.766V145.939" fill="#B9D1EF"/>
<path d="M258.952 146.253L239.703 145.941V141.767C241.144 141.254 242.624 140.84 244.135 140.531L244.187 141.424L252.948 140.914L258.952 146.253Z" fill="#BBDEF5"/>
<path d="M264.337 151.043L241.545 150.671L236.164 145.883L239.705 145.941L258.953 146.253L264.337 151.043Z" fill="#DDF4FA"/>
<path d="M266.487 154.235L245.167 153.888L241.543 150.664L264.336 151.036L266.53 152.988C266.519 153.406 266.509 153.822 266.486 154.235" fill="#C9EEFA"/>
<path d="M265.787 159.852L251.607 159.621L247.984 156.398L266.282 156.697C266.159 157.761 265.993 158.815 265.787 159.852Z" fill="#C9EEFA"/>
<path d="M255.405 163.004L254.426 162.133L255.42 162.149L255.405 163.004" fill="#C9EEFA"/>
<path d="M244.185 141.42L244.133 140.528C245.682 140.209 247.265 140.002 248.87 139.908C249.522 139.87 250.175 139.852 250.824 139.852C251.14 139.852 251.455 139.855 251.769 139.864L252.946 140.911L244.185 141.42" fill="#BCE5F8"/>
<path d="M225.103 136.031L206.562 119.532C211.202 116.519 216.541 114.47 222.336 113.68L230.351 120.808C229.912 121.036 229.513 121.345 229.175 121.726C228.441 122.547 228.074 123.604 228.139 124.701L228.669 133.776C227.447 134.47 226.257 135.222 225.103 136.031ZM230.615 132.733L230.142 124.584C230.109 124.021 230.297 123.481 230.673 123.06C231.04 122.646 231.544 122.398 232.093 122.359L239.704 129.125V129.339C236.547 130.138 233.503 131.276 230.615 132.733Z" fill="#B9D1EF"/>
<path d="M239.703 129.346V129.133L239.889 129.299C239.826 129.315 239.764 129.33 239.703 129.346" fill="#BBDEF5"/>
<path d="M228.666 133.788L228.136 124.713C228.071 123.616 228.438 122.559 229.172 121.738C229.51 121.357 229.909 121.048 230.349 120.82L232.091 122.371C231.541 122.411 231.037 122.658 230.67 123.072C230.294 123.493 230.106 124.034 230.139 124.596L230.612 132.745C229.954 133.076 229.306 133.425 228.666 133.788Z" fill="#CEEAF9"/>
<path d="M234.334 144.251L231.118 141.39L230.614 132.738C233.502 131.281 236.546 130.143 239.703 129.344V141.764C237.84 142.429 236.043 143.262 234.334 144.251ZM229 139.507L225.102 136.036C226.256 135.227 227.446 134.475 228.668 133.781L229 139.507Z" fill="#AEC9EC"/>
<path d="M239.703 141.764V129.344C239.765 129.327 239.826 129.313 239.889 129.297L243.677 132.668L243.748 133.866L244.946 133.795L248.447 136.908L243.939 137.172L244.135 140.528C242.624 140.837 241.144 141.251 239.703 141.764" fill="#AFD1ED"/>
<path d="M231.119 141.394L229 139.511L228.668 133.785C229.308 133.422 229.957 133.073 230.614 132.742L231.119 141.394Z" fill="#BDDCEE"/>
<path d="M243.75 133.862L243.68 132.664L244.949 133.792L243.75 133.862" fill="#AFD8EE"/>
<path d="M244.133 140.526L243.938 137.17L248.445 136.906L251.769 139.863C251.455 139.854 251.14 139.85 250.824 139.85C250.175 139.85 249.522 139.868 248.87 139.906C247.265 140 245.682 140.208 244.133 140.526" fill="#AFD8EE"/>
<path d="M253.764 180.984L245.82 173.914L259.69 174.14L259.732 174.176C258.018 176.685 256.007 178.969 253.764 180.984" fill="#BBDEF5"/>
<path d="M259.69 174.137L245.821 173.912L235.797 164.992L249.668 165.218L259.69 174.137Z" fill="#DDF4FA"/>
<path d="M224.905 155.305L223.633 154.174C224.05 153.567 224.489 152.968 224.952 152.383L224.905 155.305Z" fill="#B9D1EF"/>
<path d="M246.047 161.997L232.176 161.771L224.91 155.304L224.957 152.382C225.355 151.881 225.769 151.388 226.199 150.903C227.301 149.665 228.481 148.521 229.73 147.477L233.164 150.533L231.695 150.509L231.644 153.674L236.788 153.757L239.605 156.264L231.602 156.134L231.552 159.299L243.229 159.488L246.047 161.997" fill="#DDF4FA"/>
<path d="M236.784 153.756L231.641 153.673L231.692 150.508L233.161 150.531L236.785 153.756" fill="#C9EEFA"/>
<path d="M243.228 159.487L231.551 159.298L231.601 156.133L239.604 156.263L243.228 159.487" fill="#C9EEFA"/>
<path d="M249.665 165.222L235.794 164.996L232.172 161.773L246.043 161.999L249.665 165.222Z" fill="#C9EEFA"/>
<path d="M207.503 139.819L196.039 129.616C197.779 127.155 199.816 124.89 202.108 122.898L206.76 127.039L207.503 139.819Z" fill="#CDEEFA"/>
<path d="M214.687 146.206L207.501 139.811L206.758 127.031L220.763 139.493C219.558 140.583 218.406 141.741 217.309 142.97C216.379 144.017 215.504 145.098 214.687 146.206Z" fill="#B9D1EF"/>
<path d="M223.634 154.174L214.688 146.213C215.504 145.105 216.379 144.024 217.31 142.977C218.407 141.748 219.558 140.59 220.764 139.5L227.806 145.768C226.258 145.925 225.038 147.221 225.013 148.815L224.953 152.383C224.491 152.969 224.051 153.567 223.634 154.174Z" fill="#AEC9EC"/>
<path d="M224.953 152.381L225.013 148.813C225.038 147.219 226.258 145.923 227.805 145.766L229.726 147.475C228.477 148.52 227.298 149.664 226.195 150.902C225.765 151.387 225.351 151.88 224.953 152.381Z" fill="#C7E3EE"/>
<path d="M227.704 119.273C227.055 119.273 226.401 119.293 225.747 119.331C216.968 119.842 208.915 123.741 203.07 130.311C197.223 136.879 194.286 145.33 194.797 154.108C195.309 162.887 199.207 170.94 205.777 176.787C219.336 188.853 240.184 187.637 252.252 174.08C258.097 167.51 261.036 159.059 260.524 150.28C260.013 141.502 256.114 133.448 249.544 127.603C243.466 122.194 235.774 119.273 227.704 119.273V119.273ZM227.636 196.992C217.032 196.992 206.392 193.263 197.867 185.676C179.404 169.245 177.752 140.86 194.181 122.4C202.139 113.457 213.105 108.149 225.055 107.453C237.027 106.755 248.515 110.757 257.456 118.715C266.399 126.673 271.709 137.638 272.403 149.588C273.098 161.54 269.099 173.046 261.141 181.991C252.299 191.924 239.993 196.992 227.636 196.992Z" fill="#FBC038"/>
<path d="M474.652 134.484C490.199 141.723 509.199 139.529 522.797 127.392C529.367 121.531 533.768 114.161 535.946 106.261L514.733 100.336C511.995 110.188 502.687 117.143 492.083 116.539C489.177 116.375 486.436 115.662 483.964 114.5L474.652 134.484Z" fill="#FBC038"/>
<path d="M460.342 123.835C460.665 124.2 461.007 124.549 461.347 124.9L477.284 109.698C473.199 105.407 470.832 99.5027 471.195 93.1064C471.889 80.8687 482.37 71.5174 494.607 72.2114C503.325 72.7084 510.59 78.1703 513.782 85.6998L534.062 77.0859C532.235 72.7428 529.66 68.6147 526.354 64.9114C510.093 46.6895 482.115 45.099 463.893 61.36C445.657 77.6335 444.081 105.615 460.342 123.835Z" fill="#F1F7FD"/>
<path d="M515.512 95.6259C515.419 97.2598 515.149 98.8358 514.733 100.331L535.947 106.255C538.621 96.714 538.038 86.3885 534.058 77.0859L513.777 85.6999C515.079 88.7345 515.711 92.107 515.512 95.6259Z" fill="#31C5FF"/>
<path d="M461.348 124.905C465.248 129.018 469.783 132.223 474.659 134.484L483.97 114.5C481.437 113.334 479.186 111.689 477.285 109.703L461.348 124.905Z" fill="#D7D8F0"/>
<path d="M430.07 63.7907C432.93 62.8364 436.201 63.5973 438.336 65.9867C439.366 67.1434 439.987 68.517 440.21 69.9394L436.389 70.5521C436.107 68.7755 434.619 67.3784 432.756 67.2699C432.246 67.241 431.753 67.3115 431.298 67.4651L430.07 63.7907Z" fill="#F1F7FD"/>
<path d="M427.361 65.3694L427.556 65.2031L430.036 68.1763C429.239 68.8432 428.707 69.8282 428.644 70.9524C428.52 73.1031 430.164 74.9448 432.315 75.0677C433.848 75.1527 435.223 74.3448 435.932 73.0941L439.3 75.0009C438.896 75.7238 438.364 76.3926 437.712 76.9745C434.511 79.832 429.593 79.5518 426.736 76.3492C423.876 73.1447 424.156 68.2269 427.361 65.3694Z" fill="#FBC038"/>
<path d="M436.43 71.3948C436.446 71.1074 436.43 70.8273 436.389 70.558L440.21 69.9453C440.486 71.6641 440.179 73.4552 439.299 75.0005L435.93 73.0938C436.217 72.5895 436.396 72.0129 436.43 71.3948" fill="#FBC038"/>
<path d="M427.555 65.1952C428.317 64.5554 429.174 64.0873 430.07 63.7891L431.298 67.4634C430.833 67.6171 430.407 67.8593 430.034 68.1683L427.555 65.1952Z" fill="#59C478"/>
<path d="M436.823 121.622C435.476 124.317 432.623 126.094 429.423 125.911C427.88 125.824 426.468 125.291 425.305 124.443L427.575 121.308C429.03 122.363 431.068 122.302 432.462 121.06C432.845 120.718 433.143 120.321 433.357 119.891L436.823 121.622Z" fill="#59C478"/>
<path d="M437.623 118.593L437.603 118.85L433.746 118.503C433.84 117.465 433.52 116.393 432.77 115.553C431.335 113.946 428.871 113.807 427.262 115.24C426.118 116.262 425.717 117.809 426.1 119.193L422.368 120.227C422.146 119.43 422.049 118.58 422.099 117.709C422.341 113.424 426.017 110.145 430.301 110.388C434.59 110.632 437.866 114.308 437.622 118.593" fill="#D7D8F0"/>
<path d="M426.951 120.75C427.142 120.965 427.352 121.153 427.573 121.312L425.303 124.448C423.891 123.428 422.843 121.943 422.371 120.229L426.103 119.195C426.257 119.756 426.539 120.287 426.951 120.75Z" fill="#F1F7FD"/>
<path d="M437.606 118.847C437.52 119.839 437.245 120.775 436.822 121.621L433.355 119.89C433.576 119.452 433.704 118.981 433.749 118.5L437.606 118.847Z" fill="#FBC038"/>
<path d="M427.729 101.618C425.033 100.272 423.256 97.4196 423.439 94.2206C423.525 92.6771 424.059 91.2637 424.906 90.1016L428.042 92.3716C426.987 93.8247 427.048 95.8653 428.29 97.2587C428.631 97.6401 429.029 97.9401 429.459 98.1516L427.729 101.618Z" fill="#D7D8F0"/>
<path d="M430.759 102.421L430.502 102.399L430.849 98.5437C431.887 98.6359 432.958 98.316 433.797 97.566C435.406 96.1327 435.545 93.6675 434.111 92.0607C433.09 90.9148 431.543 90.5136 430.159 90.8986L429.125 87.1663C429.924 86.9422 430.772 86.8464 431.643 86.8952C435.928 87.1392 439.206 90.8136 438.964 95.0971C438.72 99.386 435.044 102.663 430.759 102.421" fill="#59C478"/>
<path d="M428.598 91.7422C428.385 91.9337 428.199 92.1452 428.038 92.3657L424.902 90.0956C425.922 88.684 427.406 87.634 429.121 87.1641L430.154 90.8963C429.594 91.0499 429.061 91.3301 428.598 91.7422Z" fill="#FBC038"/>
<path d="M430.503 102.399C429.511 102.313 428.574 102.04 427.73 101.615L429.46 98.1484C429.897 98.3689 430.369 98.4991 430.85 98.5443L430.503 102.399Z" fill="#F1F7FD"/>
<path d="M489.828 297.254C489.452 297.254 489.071 297.184 488.701 297.034L449.652 281.263C448.107 280.639 447.362 278.884 447.986 277.339L448.232 276.732L450.856 276.578L450.704 277.023C450.164 278.599 451.001 280.309 452.577 280.851L492.413 294.509C492.581 294.567 492.749 294.608 492.919 294.636L492.623 295.367C492.149 296.542 491.021 297.254 489.828 297.254" fill="#D7D9DB"/>
<path d="M448.23 276.728L456.226 256.93L457.64 256.789L450.855 276.574L448.23 276.728Z" fill="#4A45A4"/>
<path d="M456.23 256.929L459.498 248.837C459.798 248.094 460.359 247.537 461.033 247.227C460.885 247.443 460.765 247.684 460.675 247.944L457.644 256.788L456.23 256.929Z" fill="#5863B8"/>
<path d="M493.395 294.666C493.238 294.666 493.079 294.654 492.922 294.628L501.402 273.628L502.787 273.547L496.244 292.629C495.816 293.88 494.646 294.666 493.395 294.666" fill="#E7ECEF"/>
<path d="M501.399 273.631L504.132 266.866C504.757 265.321 504.012 263.566 502.467 262.944L481.379 254.426L485.505 254.016C486.02 253.965 486.53 253.891 487.03 253.797L504.336 259.73C505.914 260.273 506.751 261.982 506.21 263.558L502.783 273.55L501.399 273.631" fill="#4D49A7"/>
<path d="M481.377 254.424L463.415 247.171C463.045 247.021 462.661 246.951 462.285 246.951C461.846 246.951 461.418 247.047 461.027 247.226C461.588 246.4 462.527 245.906 463.518 245.906C463.843 245.906 464.174 245.959 464.498 246.071L487.028 253.795C486.527 253.889 486.018 253.964 485.503 254.014L481.377 254.424Z" fill="#5E6ABC"/>
<path d="M492.918 294.633C492.748 294.605 492.58 294.564 492.412 294.506L452.576 280.848C451 280.306 450.163 278.596 450.703 277.02L450.855 276.575L501.398 273.633L492.918 294.633" fill="#BFC4CA"/>
<path d="M450.855 276.569L457.641 256.784L481.379 254.422L502.467 262.94C504.012 263.562 504.757 265.317 504.132 266.862L501.399 273.627L450.855 276.569Z" fill="#4541A1"/>
<path d="M457.641 256.789L460.671 247.945C460.762 247.685 460.881 247.445 461.029 247.228C461.42 247.049 461.848 246.953 462.287 246.953C462.663 246.953 463.046 247.024 463.417 247.174L481.379 254.427L457.641 256.789Z" fill="#515CB3"/>
<path d="M509.232 259.076L501.136 288.724C500.698 290.331 499.043 291.275 497.436 290.837L456.81 279.744C455.203 279.303 454.259 277.649 454.697 276.042L462.794 246.392C463.231 244.787 464.887 243.84 466.494 244.279L507.121 255.375C508.726 255.814 509.672 257.468 509.232 259.076Z" fill="#F1F7FD"/>
<path d="M509.235 259.076L507.439 265.653L461 252.971L462.797 246.392C463.234 244.787 464.89 243.84 466.496 244.279L507.124 255.375C508.729 255.814 509.674 257.468 509.235 259.076Z" fill="#31C5FF"/>
<path d="M506.857 267.797L460.418 255.117L461.002 252.977L507.44 265.659L506.857 267.797Z" fill="white"/>
<path d="M477.005 250.937C476.481 252.858 474.498 253.99 472.577 253.464C470.657 252.94 469.526 250.959 470.05 249.038C470.576 247.118 472.557 245.987 474.476 246.511C476.397 247.037 477.529 249.018 477.005 250.937Z" fill="#3BA560"/>
<path d="M501.647 257.673C501.123 259.593 499.142 260.724 497.221 260.2C495.302 259.676 494.17 257.693 494.695 255.774C495.219 253.853 497.2 252.721 499.121 253.245C501.04 253.769 502.172 255.752 501.647 257.673Z" fill="#3BA560"/>
<path d="M473.525 252.457C473.312 252.457 473.091 252.43 472.875 252.371C471.562 252.013 470.787 250.657 471.147 249.345L472.553 244.196C472.911 242.88 474.27 242.098 475.577 242.466C476.892 242.824 477.666 244.18 477.306 245.492L475.9 250.643C475.602 251.738 474.608 252.457 473.525 252.457" fill="#FBC038"/>
<path d="M498.17 259.186C497.954 259.186 497.736 259.159 497.517 259.1C496.207 258.74 495.432 257.384 495.791 256.072L497.199 250.919C497.557 249.605 498.907 248.826 500.226 249.192C501.539 249.549 502.312 250.905 501.952 252.219L500.546 257.372C500.246 258.467 499.254 259.186 498.17 259.186" fill="#FBC038"/>
<path d="M468.241 265.327L463.723 264.093L464.771 260.258L469.287 261.492L468.241 265.327Z" fill="#86D395"/>
<path d="M499.446 273.843L494.93 272.609L495.976 268.773L500.495 270.008L499.446 273.843Z" fill="#86D395"/>
<path d="M491.643 271.718L487.125 270.484L488.173 266.648L492.69 267.883L491.643 271.718Z" fill="#86D395"/>
<path d="M483.843 269.583L479.324 268.351L480.372 264.516L484.891 265.748L483.843 269.583Z" fill="#86D395"/>
<path d="M476.038 267.452L471.52 266.218L472.566 262.383L477.085 263.617L476.038 267.452Z" fill="#86D395"/>
<path d="M466.534 271.562L462.016 270.329L463.066 266.492L467.584 267.725L466.534 271.562Z" fill="#86D395"/>
<path d="M497.741 280.079L493.223 278.845L494.271 275.008L498.787 276.242L497.741 280.079Z" fill="#86D395"/>
<path d="M489.94 277.953L485.422 276.72L486.47 272.883L490.989 274.115L489.94 277.953Z" fill="#86D395"/>
<path d="M482.138 275.821L477.621 274.587L478.667 270.75L483.186 271.984L482.138 275.821Z" fill="#86D395"/>
<path d="M474.339 273.696L469.82 272.462L470.869 268.625L475.385 269.859L474.339 273.696Z" fill="#86D395"/>
<path d="M464.833 277.796L460.316 276.564L461.363 272.727L465.881 273.959L464.833 277.796Z" fill="#86D395"/>
<path d="M488.239 284.189L483.723 282.954L484.769 279.117L489.288 280.35L488.239 284.189Z" fill="#86D395"/>
<path d="M480.44 282.056L475.922 280.821L476.97 276.984L481.489 278.219L480.44 282.056Z" fill="#86D395"/>
<path d="M472.636 279.931L468.117 278.696L469.165 274.859L473.684 276.094L472.636 279.931Z" fill="#86D395"/>
<path d="M184.101 248.767L187.795 267.769C188.101 269.344 189.606 270.358 191.181 270.052L230.842 262.344C232.414 262.038 233.431 260.533 233.126 258.959L229.432 239.956C229.126 238.383 227.616 237.35 226.043 237.655L186.382 245.365C184.81 245.671 183.796 247.194 184.101 248.767Z" fill="#FBC038"/>
<path d="M184.1 248.755L184.301 249.786L205.946 258.148C208.267 259.045 210.896 258.535 212.711 256.834L229.632 240.975L229.435 239.961C229.127 238.387 227.604 237.356 226.029 237.664L186.385 245.37C184.818 245.674 183.797 247.19 184.1 248.755Z" fill="#FDDF9B"/>
<path d="M182.443 270.961C183.204 274.877 186.995 277.435 190.912 276.674C194.827 275.911 197.384 272.121 196.623 268.206C195.862 264.29 192.07 261.732 188.154 262.493C184.239 263.254 181.682 267.046 182.443 270.961Z" fill="#EF497A"/>
<path d="M285.703 300.386L273.9 312.192L262.094 300.386C255.578 293.871 255.578 283.297 262.094 276.78C268.613 270.261 279.184 270.261 285.703 276.78C292.224 283.301 292.219 293.871 285.703 300.386Z" fill="#EF497A"/>
<path d="M329.812 283.614C329.08 278.881 328.335 274.033 327.672 269.716L340.642 268.425C341.334 272.943 342.109 277.99 342.861 282.855L329.812 283.614ZM348.428 282.528C347.645 277.451 346.852 272.309 346.17 267.876L346.577 267.836H359.351C360.02 272.172 360.774 277.034 361.513 281.771L348.428 282.528" fill="#4441A1"/>
<path d="M327.67 269.717C327.573 269.079 327.477 268.45 327.383 267.837H340.549C340.578 268.032 340.609 268.229 340.64 268.426L327.67 269.717H327.67ZM346.169 267.877C346.169 267.864 346.169 267.85 346.158 267.837H346.57L346.163 267.877H346.169ZM358.654 108.904H328.222C328.238 108.467 328.281 108.04 328.323 107.614C328.215 107.035 328.124 106.493 328.088 106.041C327.907 103.818 327.997 101.45 329.353 99.6612C327.022 97.5285 327.528 92.6847 332.787 91.1484C332.787 91.1484 332.821 93.3209 336.776 93.3209C338.584 93.3188 341.21 92.8673 345.023 91.5461C345.77 91.2894 346.538 91.1737 347.3 91.1737C351.944 91.1737 356.415 95.4301 355.018 97.6188C359.103 99.2274 359.374 102.806 359.121 106.041C359.048 106.909 358.868 107.885 358.596 108.806C358.617 108.839 358.636 108.872 358.654 108.904" fill="#4D5AB2"/>
<path d="M359.349 267.838H346.574L359.155 266.586C359.218 266.998 359.284 267.416 359.349 267.838Z" fill="#4D5AB2"/>
<path d="M346.578 267.831H346.166C345.669 264.596 345.232 261.742 344.905 259.572C344.677 258.054 344.454 256.23 344.243 254.191L357.262 253.432C357.433 255.014 357.61 256.431 357.791 257.62C358.142 259.944 358.617 263.056 359.159 266.579L346.578 267.831ZM340.552 267.831H327.386C326.891 264.598 326.455 261.742 326.126 259.572C325.938 258.33 325.755 256.881 325.578 255.277L338.588 254.52C338.722 255.668 338.857 256.709 338.994 257.62C339.389 260.219 339.934 263.796 340.552 267.831ZM325.369 253.282C325.152 251.128 324.946 248.76 324.751 246.286L327.471 246.127L327.223 241.876L324.434 242.038C324.087 237.151 323.782 232.067 323.532 227.478L336.536 226.721C336.994 235.201 337.633 245.357 338.371 252.525L325.369 253.282ZM344.044 252.194C343.314 244.531 342.696 234.554 342.258 226.388L355.264 225.631C355.707 233.905 356.332 244.032 357.057 251.435L344.044 252.194ZM323.426 225.478C323.292 222.949 323.176 220.616 323.082 218.608L336.086 217.85C336.182 219.853 336.296 222.186 336.43 224.718L323.426 225.478ZM342.154 224.386C342.02 221.816 341.906 219.479 341.814 217.516L354.818 216.759C354.91 218.711 355.024 221.051 355.158 223.629L342.154 224.386ZM322.988 216.605C322.884 214.297 322.813 212.623 322.782 211.875C322.059 201.374 322.511 191 322.511 191C322.511 191 322.511 190.904 322.524 190.722L354.99 188.831C355.011 189.601 355.046 190.326 355.098 191C356.888 200.76 355.478 207.248 354.466 210.249C354.502 210.484 354.554 210.7 354.554 210.935C354.565 211.004 354.618 212.427 354.724 214.756L341.722 215.513C341.657 214.037 341.608 212.9 341.579 212.201H335.832C335.868 213.052 335.923 214.299 335.995 215.848L322.989 216.605H322.988ZM322.615 188.707C322.654 187.846 322.703 186.765 322.765 185.506C321.698 186.355 320.415 187.187 319.005 187.675C318.59 187.819 318.156 187.891 317.74 187.891C316.132 187.891 314.632 186.897 314.071 185.289C313.726 184.269 313.824 183.203 314.266 182.307L362.471 179.498C361.997 179.943 361.511 180.396 361.009 180.861L361.153 180.933C363.177 181.62 364.244 183.843 363.539 185.849C363.484 186.017 363.414 186.18 363.338 186.335L355.809 186.773C355.516 186.572 355.236 186.364 354.972 186.156C354.972 186.38 354.972 186.603 354.972 186.821L322.618 188.706L322.615 188.707ZM316.943 180.141C317.212 179.99 317.5 179.791 317.78 179.577C317.015 178.094 316.247 176.57 315.503 175.041L355.671 175.695C355.69 175.695 355.706 175.695 355.724 175.695C357.419 175.695 358.807 174.334 358.836 172.634L358.847 172.2C361.066 170.053 363.177 167.927 364.968 166.028L365.502 175.198C365.568 176.36 364.679 177.36 363.519 177.428L316.947 180.141H316.943ZM367.314 171.846L366.857 163.971C368.46 162.171 369.61 160.714 370.053 159.841C369.498 157.54 365.088 150.305 360.004 142.826L361.496 142.74C362.595 142.675 363.602 142.188 364.332 141.366C365.064 140.544 365.431 139.486 365.366 138.389L365.272 136.766C369.339 142.611 373.762 149.436 376.126 154.545C373.386 158.751 368.901 166.167 367.315 171.846L367.314 171.846ZM358.326 148.794C357.769 148.211 356.99 147.842 356.12 147.829L325.276 147.327C325.347 146.569 325.421 145.825 325.493 145.093C324.922 145.841 324.363 146.58 323.823 147.303L314.368 147.15C314.761 146.577 315.169 145.998 315.585 145.413L359.155 142.875C358.88 144.755 358.602 146.739 358.326 148.794ZM317.11 143.314C320.741 138.395 324.779 133.453 327.228 130.525C327.499 130.2 327.806 129.947 328.15 129.73C328.746 128.971 329.668 128.501 330.68 128.501H340.006C340.349 127.236 340.476 125.411 340.44 123.603C336.1 122.9 332.399 120.281 330.243 116.641L358.196 115.013C358.006 115.237 357.798 115.445 357.574 115.633C357.191 115.956 356.751 116.097 356.314 116.097C356.093 116.097 355.871 116.061 355.658 115.994C354.302 118.615 352.169 120.748 349.567 122.121C349.658 123.965 349.64 126.242 349.314 128.501H357.646C358.893 128.501 359.96 129.206 360.484 130.2C360.664 130.363 360.809 130.525 360.953 130.724C361.618 131.635 362.333 132.62 363.073 133.661L363.357 138.507C363.388 139.069 363.202 139.611 362.826 140.032C362.452 140.453 361.937 140.703 361.373 140.735L317.11 143.314V143.314ZM329.276 114.687C328.596 113.008 328.222 111.174 328.222 109.253C328.222 109.133 328.222 109.016 328.233 108.898H358.665C359.139 109.69 359.439 110.614 359.439 111.62C359.439 112.076 359.381 112.519 359.273 112.94L329.279 114.687" fill="#5676C3"/>
<path d="M315.582 145.418C316.079 144.722 316.589 144.023 317.108 143.32L361.37 140.741C361.934 140.708 362.449 140.459 362.823 140.038C363.199 139.617 363.385 139.074 363.355 138.512L363.071 133.667C363.779 134.657 364.515 135.698 365.261 136.772L365.355 138.395C365.42 139.492 365.054 140.549 364.322 141.372C363.591 142.194 362.585 142.68 361.486 142.745L359.993 142.832C359.765 142.498 359.537 142.161 359.306 141.827C359.255 142.174 359.205 142.525 359.152 142.881L315.582 145.418V145.418ZM330.24 116.647C329.871 116.023 329.548 115.371 329.273 114.693L359.266 112.945C359.065 113.721 358.693 114.427 358.193 115.018L330.24 116.647Z" fill="#8296D3"/>
<path d="M314.262 182.312C314.697 181.429 315.465 180.711 316.47 180.36C316.615 180.313 316.772 180.239 316.935 180.147L363.507 177.434C364.667 177.366 365.556 176.366 365.49 175.204L364.957 166.033C365.636 165.31 366.269 164.622 366.845 163.977L367.303 171.851C367.069 172.688 366.898 173.487 366.806 174.233C366.751 174.631 366.715 175.029 366.697 175.426C365.434 176.677 364.031 178.032 362.466 179.504L314.262 182.312Z" fill="#8296D3"/>
<path d="M355.716 175.702C355.698 175.702 355.682 175.702 355.664 175.702L315.495 175.048C311.805 167.478 308.676 159.826 309.278 156.576C309.652 154.527 311.703 151.024 314.365 147.156L323.82 147.31C322.58 148.967 321.438 150.54 320.451 151.955L318.035 151.915L317.973 155.743C317.44 156.645 317.077 157.368 316.923 157.859C316.98 158.526 317.328 159.689 317.884 161.183L317.798 166.493L320.104 166.531C321.078 168.715 322.202 171.098 323.375 173.475C323.504 171.276 323.646 168.96 323.798 166.591L332.376 166.732L332.615 152.154L324.857 152.027C324.991 150.428 325.128 148.859 325.273 147.333L356.118 147.836C356.987 147.849 357.766 148.217 358.323 148.801C357.175 157.303 356.056 167.003 355.438 175.427C356.579 174.364 357.721 173.284 358.836 172.206L358.825 172.64C358.797 174.341 357.408 175.702 355.713 175.702L355.716 175.702ZM334.999 152.192L334.762 166.77L349.34 167.008L349.579 152.428L334.999 152.192Z" fill="#AAB5D0"/>
<path d="M323.079 218.616C323.045 217.906 323.014 217.237 322.985 216.614L335.991 215.856C336.018 216.476 336.051 217.147 336.083 217.859L323.079 218.616H323.079ZM341.81 217.525C341.777 216.805 341.747 216.133 341.718 215.522L354.72 214.765C354.749 215.372 354.78 216.044 354.814 216.767L341.81 217.525H341.81ZM322.52 190.73C322.534 190.374 322.564 189.684 322.61 188.715L354.964 186.83C354.964 187.529 354.975 188.2 354.985 188.84L322.52 190.73ZM359.883 188.46C359.468 188.46 359.034 188.406 358.618 188.243C357.61 187.894 356.652 187.365 355.804 186.781L363.333 186.344C362.678 187.663 361.324 188.46 359.883 188.46Z" fill="#8296D3"/>
<path d="M325.579 255.282C325.508 254.64 325.438 253.975 325.369 253.286L338.371 252.529C338.444 253.223 338.516 253.89 338.588 254.524L325.579 255.282ZM344.243 254.195C344.176 253.548 344.109 252.883 344.044 252.198L357.057 251.439C357.125 252.131 357.193 252.797 357.262 253.436L344.243 254.195ZM323.533 227.483C323.496 226.805 323.46 226.136 323.426 225.482L336.43 224.723C336.464 225.379 336.499 226.047 336.536 226.725L323.533 227.483ZM342.259 226.393C342.222 225.711 342.186 225.043 342.154 224.39L355.158 223.633C355.192 224.285 355.226 224.954 355.265 225.635L342.259 226.393" fill="#8296D3"/>
<path d="M332.379 166.731L323.801 166.59C324.109 161.806 324.461 156.792 324.86 152.026L332.617 152.153L332.379 166.731V166.731ZM320.107 166.53L317.801 166.492L317.887 161.182C318.444 162.684 319.212 164.522 320.107 166.53L320.107 166.53ZM317.976 155.742L318.037 151.914L320.454 151.954C319.442 153.407 318.594 154.696 317.976 155.742" fill="#79A2D2"/>
<path d="M349.344 167.012L334.766 166.774L335.002 152.195L349.583 152.432L349.344 167.012Z" fill="#79A2D2"/>
<path d="M324.75 246.293C324.641 244.905 324.535 243.484 324.434 242.045L327.222 241.883L327.47 246.134L324.75 246.293Z" fill="#5A87CD"/>
<path d="M377.324 280.853C378.419 275.725 379.482 270.603 380.315 266.282C381.118 265.731 381.826 265.051 382.412 264.274L390.628 263.457C389.837 267.979 388.62 274.05 387.319 280.275L377.324 280.853ZM393.934 279.895C394.906 273.67 395.857 267.533 396.565 262.866L406.448 261.883C405.78 266.267 404.811 272.653 403.784 279.317L393.934 279.895Z" fill="#4441A1"/>
<path d="M382.413 264.27C383.532 262.781 384.195 260.928 384.195 258.92V149.995H387.103C387.049 148.061 387.176 146.326 387.302 145.133C386.198 144.732 385.157 144.206 384.195 143.561V117.815C384.195 114.075 381.891 110.873 378.625 109.55C380.591 108.458 382.854 107.867 385.075 107.867C387.683 107.867 390.235 108.68 392.182 110.45C393.574 111.715 394.333 112.854 394.712 113.974C395.273 114.119 395.815 114.263 396.375 114.462C411.34 119.794 407.165 131.307 407.165 131.307C407.165 139.277 400.839 145.748 392.941 146.037C392.833 147.248 392.778 148.622 392.815 149.995H403.08C403.46 149.995 403.821 150.067 404.165 150.176C404.96 150.176 405.755 150.483 406.334 151.116C406.963 151.81 409.768 154.965 412.77 158.954L412.242 168.232C411.018 166.269 409.551 164.183 408.033 162.177C409.41 171.769 410.417 183.981 410.937 191.176L410.706 195.255C410.503 198.836 413.24 201.903 416.822 202.105L418.103 202.179C418.505 202.901 418.597 203.788 418.28 204.614C417.829 205.735 416.762 206.421 415.624 206.421C415.262 206.421 414.919 206.367 414.575 206.223C414.322 206.132 412.822 205.518 411.16 204.542C410.834 216.94 410.039 241.322 409.063 245.533H408.159C407.725 251.461 407.201 256.883 406.659 260.516C406.592 260.944 406.523 261.4 406.449 261.879L396.567 262.862C396.78 261.458 396.972 260.187 397.134 259.088C397.622 255.817 398.092 250.937 398.49 245.533H392.363C392.074 251.443 391.676 256.865 391.116 260.516C390.98 261.396 390.818 262.381 390.63 263.453L382.413 264.27" fill="#4D5AB2"/>
<path d="M380.316 266.274C380.437 265.645 380.553 265.032 380.663 264.439L382.413 264.266C381.827 265.043 381.119 265.722 380.316 266.274Z" fill="#4D5AB2"/>
<path d="M380.664 264.44C381.05 262.389 381.366 260.571 381.594 259.085C382.08 255.832 382.441 250.952 382.73 245.53H382.206C382.206 245.53 377.037 221.438 380.218 205.822C379.73 206.039 379.387 206.183 379.278 206.22C378.935 206.364 378.573 206.418 378.23 206.418C377.091 206.418 376.007 205.732 375.573 204.611C374.995 203.147 375.718 201.484 377.182 200.906C377.489 200.797 378.013 200.562 378.61 200.255C374.402 196.214 367.113 187.835 366.672 177.797C367.239 177.045 367.554 176.094 367.494 175.082L367.305 171.847C368.891 166.168 373.375 158.753 376.115 154.547C377.182 152.92 377.977 151.763 378.248 151.384L378.375 151.221L378.501 151.077L378.736 150.842C379.314 150.318 380.073 149.992 380.923 149.992H384.196V258.917C384.196 260.925 383.533 262.778 382.414 264.267L380.664 264.44H380.664ZM379.007 160.692C376.097 165.463 372.916 171.41 372.464 174.934C371.253 184.748 379.929 193.749 383.525 197.002C384.267 185.977 381.339 172.458 379.007 160.692ZM374.091 145.799C374.091 145.799 376.603 141.949 377.398 137.738L376.965 137.485C375.953 136.618 375.302 135.334 375.302 133.889C375.302 132.732 375.718 131.684 376.404 130.852C373.838 125.9 371.127 123.261 373.242 116.014C374.078 113.162 376.11 110.944 378.626 109.547C381.892 110.87 384.196 114.073 384.196 117.812V143.558C383.898 143.357 383.609 143.148 383.327 142.925C378.863 145.474 374.091 145.799 374.091 145.799Z" fill="#5676C3"/>
<path d="M366.672 177.801C366.639 177.019 366.647 176.227 366.699 175.427C366.717 175.029 366.753 174.631 366.807 174.234C366.899 173.487 367.071 172.688 367.304 171.852L367.494 175.087C367.554 176.099 367.239 177.05 366.672 177.801" fill="#8296D3"/>
<path d="M418.103 202.186L416.822 202.112C413.24 201.91 410.504 198.842 410.706 195.262L410.937 191.183C411.026 192.395 411.1 193.465 411.16 194.355C413.527 190.035 416.365 183.004 415.407 175.251C415.195 173.519 413.961 170.998 412.242 168.238L412.77 158.961C416.499 163.915 420.531 170.15 421.082 174.546C422.474 185.842 417.377 195.511 414.539 199.885C415.425 200.391 416.275 200.771 416.654 200.915C417.294 201.168 417.791 201.628 418.103 202.186" fill="#4774C0"/>
<path d="M322.455 83.6857C325.797 83.0838 332.042 89.8344 324.263 99.84C318.727 106.956 315.774 97.8284 315.452 93.8359C315.112 89.6428 315.564 84.9291 322.455 83.6857Z" fill="black"/>
<path d="M320.609 120.882C318.76 119.336 316.006 119.584 314.462 121.438C308.742 128.295 295.318 144.885 294.236 150.808C293.348 155.664 300.448 168.967 306.548 179.169L311.95 175.894C304.93 165.804 304.59 156.541 302.864 152.245C303.878 149.002 313.58 138.437 321.688 128.715C323.232 126.864 322.462 122.427 320.609 120.882Z" fill="#FBC038"/>
<path d="M303.298 186.681C301.265 185.927 300.146 184.944 299.431 183.174C297.408 178.188 300.582 179.549 302.861 178.757C303.991 178.365 305.612 175.746 306.246 175.001C307.808 173.165 310.148 172.805 311.986 174.367C313.819 175.932 313.402 178.294 312.478 180.521C311.952 181.788 310.944 184.427 307.529 186.292C306.024 187.116 305.106 187.206 303.298 186.681Z" fill="#F8A075"/>
<path d="M339.713 114.264C339.713 118.023 339.189 122.632 337.129 125.903C334.472 130.096 333.948 130.964 333.894 131.054C332.918 132.663 331.219 133.548 329.466 133.548C328.562 133.548 327.658 133.313 326.827 132.825C324.387 131.361 323.591 128.217 325.038 125.759C325.038 125.759 325.453 125.054 328.399 120.391C328.905 119.595 329.176 118.095 329.303 116.378C329.465 114.047 329.339 111.318 329.05 109.42C328.616 106.619 330.568 103.98 333.388 103.564C336.189 103.148 338.828 105.082 339.243 107.902C339.388 108.769 339.713 111.263 339.713 114.264Z" fill="#F8A075"/>
<path d="M352.338 123.417C349.782 138.058 344.795 174.822 345.88 189.615H309.148C309.148 189.615 311.363 135.13 314.844 121.855C315.259 120.265 316.709 119.164 318.352 119.164H348.755C351.013 119.164 352.724 121.196 352.338 123.417Z" fill="#FBC038"/>
<path d="M344.285 213.525C344.285 213.525 348.758 205.323 345.883 189.617H309.151C309.151 189.617 308.631 201.571 309.473 213.525H344.285Z" fill="#2A2742"/>
<path d="M348.342 264.793C346.309 251.33 346.875 211.345 346.047 206.751C345.326 202.762 339.118 202.957 335.089 203.08C331.037 203.243 327.243 208.621 327.407 212.672C327.473 214.3 332.248 252.656 334.398 266.911C335.951 277.182 342.741 304.134 345.237 316.158L354.542 315.099C352.678 303.047 349.889 275.053 348.342 264.793Z" fill="#2A2742"/>
<path d="M327.737 264.723C326.634 250.929 326.143 211.946 326.126 211.555C325.962 207.505 320.496 204.922 316.466 205.043C312.414 205.208 309.263 208.625 309.428 212.676C309.493 214.304 311.065 252.66 313.216 266.915C314.769 277.186 318.519 305.049 321.456 317.136L329.815 316.081C327.953 304.031 328.563 275.066 327.737 264.723Z" fill="#2A2742"/>
<path d="M352.484 121.667C351.063 119.719 348.33 119.294 346.384 120.713C344.437 122.134 343.836 126.018 345.256 127.966C353.089 138.704 361.231 151.357 362.072 154.833C354.293 161.102 357.984 165.283 342.98 175.498L346.846 180.418C368.108 162.523 371.466 156.579 371.508 155.01C371.673 148.912 359.659 131.503 352.484 121.667Z" fill="#FBC038"/>
<path d="M339.716 114.264C337.276 115.71 334.439 116.523 331.402 116.523C330.697 116.523 329.992 116.487 329.306 116.378C329.468 114.047 329.342 111.318 329.053 109.42C328.619 106.619 330.571 103.98 333.39 103.564C336.192 103.148 338.83 105.082 339.246 107.902C339.391 108.769 339.716 111.263 339.716 114.264Z" fill="#ED7A51"/>
<path d="M316.27 97.7307C316.27 106.789 322.939 114.539 331.997 114.539C339.713 114.539 348.399 106.533 348.399 97.4722C348.399 88.4155 341.058 81.0703 331.997 81.0703C322.939 81.0703 316.27 88.6721 316.27 97.7307Z" fill="#F8A075"/>
<path d="M350.647 186.579C349.501 186.591 348.543 186.205 347.14 185.332C345.235 184.148 343.793 183.025 342.356 181.055C340.934 179.109 341.232 176.566 343.068 175.003C344.903 173.439 347.659 173.661 349.22 175.496C349.987 176.385 351.295 178.375 352.394 178.684C355.873 179.662 357.296 180.667 355.987 182.691C354.858 184.435 352.411 186.559 350.647 186.579Z" fill="#F8A075"/>
<path d="M343.418 83.6813C340.076 83.0794 333.204 90.8457 342.74 99.1939C347.976 103.777 350.1 97.8239 350.421 93.8315C350.761 89.6384 350.309 84.9247 343.418 83.6813Z" fill="black"/>
<path d="M334.534 77.5065C340.901 75.3033 348.57 82.2961 345.34 84.8679C343.917 86.0012 343.985 85.8295 340.37 86.9012C336.755 87.9748 321.618 89.1605 317.889 87.3531C314.163 85.5457 314.145 78.9759 320.752 77.0547C320.752 77.0547 320.828 82.2509 334.534 77.5065Z" fill="black"/>
<path d="M350.779 100.125C350.779 101.945 349.958 103.575 348.671 104.665C347.16 105.942 344.836 104.791 344.836 102.812V97.437C344.836 95.4597 347.16 94.3066 348.671 95.5844C349.958 96.6743 350.779 98.3045 350.779 100.125Z" fill="#F8A075"/>
<path d="M338.137 141.041L329.996 132.024C329.398 131.361 328.372 131.31 327.712 131.914L317.695 141.041H321.941L321.171 148.967C321.077 149.914 321.823 150.736 322.774 150.736H331.486C332.317 150.736 333.013 150.103 333.09 149.277L333.893 141.041H338.137Z" fill="#F1F7FD"/>
<path d="M325.026 119.164C324.176 122.126 326.976 123.872 331.881 123.182C335.306 122.699 338.982 121.149 341.793 119.164H325.026Z" fill="#F8A075"/>
<path d="M350.758 317.204C350.694 316.793 344.299 275.97 343.316 262.822C342.28 249.001 340.398 214.044 340.398 208.615V188.922H341.302V208.615C341.302 214.032 343.182 248.945 344.215 262.755C345.197 275.867 351.586 316.652 351.651 317.063L350.758 317.204Z" fill="#3F3966"/>
<path d="M326.305 213.755H327.208V188.922H326.305V213.755Z" fill="#3F3966"/>
<path d="M326.757 208.532C324.264 208.532 322.238 206.506 322.238 204.013V188.922H323.142V204.013C323.142 206.007 324.763 207.628 326.757 207.628V208.532Z" fill="#3F3966"/>
<path d="M401.722 98.8092C395.256 92.937 382.907 96.4126 380.374 105.09C377.838 113.767 381.438 116.585 384.482 122.887C387.524 129.191 381.328 138.653 381.328 138.653C381.328 138.653 400.399 137.35 400.383 120.523C400.371 110.038 409.595 105.956 401.722 98.8092Z" fill="black"/>
<path d="M405.994 159.519C405.47 159.826 404.91 159.989 404.35 159.989C403.247 159.989 402.181 159.429 401.584 158.416C401.548 158.362 401.042 157.531 398.277 153.157C396.036 149.578 395.837 143.976 396.036 140.198C396.144 138.174 396.343 136.674 396.415 136.276C396.686 134.505 398.331 133.312 400.066 133.565C401.837 133.836 403.048 135.463 402.777 137.216C402.596 138.445 402.452 139.999 402.434 141.662C402.361 144.717 402.651 148.024 403.735 149.723C406.681 154.404 407.115 155.109 407.115 155.109C408.019 156.645 407.513 158.615 405.994 159.519Z" fill="#F8A075"/>
<path d="M404.6 213.121C404.582 214.405 404.021 237.611 402.973 254.908C402.955 255.089 402.955 255.269 402.937 255.45C402.612 260.312 401.997 265.029 401.509 268.174C399.358 282.434 389.111 320.877 388.731 322.522L384.863 322.214C384.972 321.817 385.297 283.103 389.78 266.348C390.484 263.728 390.539 259.968 390.791 255.775C390.81 255.577 390.809 255.378 390.828 255.179C391.894 238.099 391.984 213.266 392.003 212.959C392.003 209.977 394.424 207.555 397.425 207.555H397.443C400.443 207.555 404.6 210.139 404.6 213.121Z" fill="#F8A075"/>
<path d="M421.86 213.194C421.805 214.46 420.847 237.811 419.42 255.017L419.401 255.18C418.986 260.222 418.534 264.722 418.046 267.976C416.383 278.983 407.907 310.666 406.135 322.052L402.195 321.221C402.195 288.706 405.195 275.259 407.111 267.56C407.78 264.885 407.491 259.698 407.364 255.342L407.346 254.908C406.84 236.835 407.635 222.52 407.527 213.755C407.653 210.754 413.6 207.501 416.654 207.555C419.654 207.682 421.986 210.194 421.859 213.194" fill="#F8A075"/>
<path d="M402.777 137.216C402.596 138.445 402.451 139.999 402.433 141.662C400.156 141.608 397.987 141.102 396.035 140.198C396.144 138.174 396.342 136.674 396.415 136.276C396.686 134.505 398.331 133.312 400.066 133.565C401.837 133.836 403.048 135.463 402.777 137.216Z" fill="#ED7A51"/>
<path d="M417.891 122.341C416.422 131.502 411.661 140.281 402.478 140.281C393.295 140.281 386.488 132.1 386.488 122.917C386.488 113.732 392.796 105.711 401.979 105.711C411.163 105.711 419.344 113.271 417.891 122.341Z" fill="#F8A075"/>
<path d="M429.751 200.976C428.153 200.484 426.888 201.431 424.967 199.058C430.878 189.154 435.865 183.79 434.289 171.064C433.179 162.11 419.261 146.419 417.676 144.658C416.486 143.337 414.453 143.232 413.132 144.42C411.811 145.609 411.704 147.644 412.892 148.965C418.35 155.034 427.251 166.614 427.9 171.854C429.666 186.116 420.014 198.268 419.922 198.384L419.795 198.574L419.611 198.856L419.481 199.131L419.36 199.432L419.288 199.729L419.23 200.038L419.215 200.34V200.654L419.257 200.949L419.317 201.263L419.415 201.542L419.54 201.842L419.69 202.1L419.876 202.378L420.077 202.602L420.245 202.79L420.37 202.893L420.386 202.912L420.398 202.917C422.932 205.158 425.136 206.008 425.548 206.168C425.935 206.32 426.333 206.393 426.725 206.393C428.008 206.393 430.416 205.259 430.915 203.992C431.563 202.335 431.446 201.5 429.749 200.976" fill="#F8A075"/>
<path d="M404.602 213.121C404.583 214.405 404.023 237.611 402.975 254.908C402.957 255.089 402.957 255.269 402.939 255.45L390.793 255.775C390.811 255.577 390.811 255.378 390.829 255.179C391.896 238.099 391.986 213.266 392.004 212.959C392.004 209.977 394.426 207.555 397.426 207.555H397.444C400.445 207.555 404.602 210.139 404.602 213.121Z" fill="#ED7A51"/>
<path d="M421.863 213.194C421.809 214.46 420.851 237.811 419.423 255.017L407.368 255.342L407.35 254.908C406.844 236.835 407.639 222.52 407.53 213.755C407.657 210.754 413.603 207.501 416.658 207.555C419.658 207.682 421.99 210.194 421.863 213.194" fill="#ED7A51"/>
<path d="M390.469 251.094C390.469 251.094 381.895 211.078 391.953 196.695H423.332C423.332 196.695 422.252 244.656 420.742 251.094H390.469Z" fill="#2A2742"/>
<path d="M423.201 194.899C423.292 196.057 423.327 196.706 423.327 196.706H391.952C391.988 196.112 392.024 195.515 392.06 194.899C392.06 194.72 392.078 194.539 392.078 194.357C392.151 192.17 392.096 189.911 391.952 187.599C391.933 187.364 391.933 187.127 391.915 186.876C391.861 186.026 391.807 185.159 391.716 184.291C391.698 184.037 391.662 183.803 391.644 183.55C391.427 181.398 391.156 179.213 390.83 177.008C390.812 176.807 390.776 176.61 390.74 176.411C390.613 175.508 390.469 174.604 390.324 173.7C390.306 173.536 390.27 173.393 390.233 173.228C389.872 170.953 389.456 168.658 389.022 166.398L389.004 166.342C388.805 165.332 388.625 164.302 388.426 163.288L388.39 163.091C387.956 160.92 387.54 158.77 387.106 156.693C387.052 156.386 386.98 156.095 386.925 155.807C386.799 155.119 386.654 154.434 386.528 153.763C386.455 153.347 386.365 152.915 386.293 152.5C385.968 150.855 385.679 149.265 385.408 147.71L385.371 147.385C385.299 146.59 385.48 145.831 385.859 145.198C386.492 144.132 387.667 143.391 389.04 143.391H414C415.319 143.391 416.53 144.095 417.163 145.198C417.343 145.469 417.47 145.794 417.56 146.118C417.669 146.57 417.795 147.042 417.886 147.53C418.175 148.759 418.464 150.148 418.735 151.65C419.368 151.847 419.946 152.138 420.488 152.5C421.103 152.896 421.663 153.403 422.133 153.964C422.603 154.506 422.983 155.139 423.254 155.807C423.416 156.169 423.543 156.546 423.633 156.926C423.76 157.47 423.832 158.048 423.832 158.625C423.832 160.308 423.272 161.862 422.314 163.091L422.097 163.344C421.681 163.886 421.157 164.356 420.579 164.754C420.633 165.26 420.705 165.784 420.741 166.306L420.759 166.398C421.013 168.621 421.247 170.881 421.464 173.104C421.482 173.301 421.5 173.501 421.518 173.7C421.609 174.568 421.681 175.417 421.753 176.247C421.771 176.502 421.808 176.755 421.826 177.008C422.006 179.195 422.205 181.309 422.35 183.297C422.386 183.641 422.422 183.964 422.441 184.291C422.495 185.087 422.567 185.844 422.603 186.569C422.64 186.912 422.676 187.255 422.694 187.599C422.893 190.165 423.037 192.316 423.128 193.889C423.164 194.268 423.182 194.592 423.2 194.899" fill="#59C478"/>
<path d="M423.127 193.88C412.771 193.681 402.415 193.826 392.077 194.35C392.149 192.163 392.095 189.904 391.95 187.59C391.932 187.355 391.932 187.12 391.914 186.867C402.144 186.397 412.374 186.289 422.603 186.56C422.64 186.904 422.676 187.247 422.694 187.59C422.893 190.157 423.037 192.308 423.128 193.88" fill="#59C478"/>
<path d="M422.35 183.284C412.102 183.013 401.872 183.085 391.642 183.537C391.425 181.386 391.154 179.199 390.829 176.994C390.811 176.795 390.775 176.596 390.738 176.398C401.058 175.982 411.415 175.928 421.753 176.235C421.771 176.488 421.807 176.741 421.825 176.994C422.006 179.181 422.205 181.296 422.349 183.284" fill="#59C478"/>
<path d="M421.464 173.095C411.054 172.77 400.643 172.806 390.233 173.221C389.871 170.944 389.456 168.649 389.022 166.39L389.004 166.335C399.577 165.956 410.168 165.938 420.741 166.299L420.76 166.39C421.013 168.613 421.247 170.872 421.464 173.095" fill="#59C478"/>
<path d="M423.831 158.615C423.831 160.295 423.271 161.85 422.313 163.079L422.096 163.332C410.872 162.898 399.649 162.88 388.425 163.278L388.389 163.079C387.955 160.91 387.539 158.759 387.105 156.681C399.269 156.283 411.451 156.355 423.632 156.916C423.759 157.458 423.831 158.036 423.831 158.615" fill="#59C478"/>
<path d="M422.133 153.951C410.277 153.427 398.402 153.355 386.528 153.752C386.455 153.337 386.365 152.903 386.293 152.487C385.968 150.842 385.678 149.252 385.407 147.698L385.371 147.372C396.215 147.029 407.06 147.083 417.886 147.517C418.175 148.746 418.464 150.138 418.735 151.638C419.368 151.837 419.946 152.126 420.488 152.487C421.103 152.885 421.663 153.391 422.133 153.951" fill="#59C478"/>
<path d="M394.61 201.808L394.762 201.404L394.827 201.213L394.894 200.81L394.923 200.604L394.91 200.181L394.899 199.991L394.805 199.579L394.758 199.387L394.608 199.044L394.498 198.809L394.316 198.551L394.118 198.285L394.09 198.245L393.867 198.046L393.683 197.871C393.524 197.746 379.258 185.523 379.504 171.516C379.613 165.4 388.255 152.962 391.274 148.662C392.295 147.209 391.944 145.201 390.489 144.18C389.038 143.158 387.03 143.505 386.007 144.962C384.802 146.677 374.201 161.971 373.115 170.724C371.501 183.772 384.415 194.273 389.725 199.36C387.589 201.394 386.096 200.604 384.818 200.794C383.059 201.056 382.94 202.339 383.325 204.076C383.592 205.283 383.95 205.874 384.417 206.496C385.476 207.907 387.213 207.19 387.579 206.995C389.094 206.19 391.182 205.164 393.714 202.932L393.733 202.914L393.879 202.791L394.169 202.469L394.252 202.384L394.27 202.357L394.518 201.959L394.608 201.808" fill="#F8A075"/>
<path d="M393.364 114.637C400.046 118.472 415.759 117.456 418.605 122.335C418.605 122.335 423.312 109.356 406.456 103.341C390.981 97.8175 384.068 109.302 393.364 114.637Z" fill="black"/>
<path d="M394.267 107.708C398.62 109.255 392.364 123.408 385.384 123.408C382.369 123.408 381.994 103.341 394.267 107.708Z" fill="black"/>
<path d="M383.617 125.222C383.617 126.852 384.351 128.312 385.506 129.288C386.86 130.434 388.942 129.4 388.942 127.629V122.814C388.942 121.041 386.86 120.009 385.506 121.153C384.351 122.129 383.617 123.59 383.617 125.222Z" fill="#F8A075"/>
<path d="M395.325 247.174L394.535 246.736L417.888 204.398L418.678 204.836L395.325 247.174Z" fill="#44BC69"/>
<path d="M407.034 247.104L406.18 246.811L418.775 209.953L419.628 210.246L407.034 247.104Z" fill="#44BC69"/>
<path d="M392.562 143.391L392.81 143.736C393.615 144.853 394.655 145.901 395.904 146.863C398.482 148.825 401.495 149.998 403.963 149.998C405.364 149.998 406.492 149.613 407.244 148.883C408.511 147.652 408.498 145.612 407.215 143.391H392.562Z" fill="white"/>
<path d="M393.711 143.391C394.409 144.361 395.35 145.325 396.505 146.208C400.163 148.999 404.564 149.874 406.337 148.151C407.438 147.083 407.273 145.276 406.11 143.391H393.711Z" fill="#F8A075"/>
<path d="M389.028 321.365C389.291 321.402 389.54 321.501 389.741 321.666C391.136 322.824 392.734 324.33 395.242 325.002C397.522 325.609 396.616 326.701 394.382 326.701C391.098 326.701 389.786 326.572 388.322 326.61C386.858 326.648 387.807 326.701 384.207 326.701C382.556 326.701 383.1 323.478 383.977 321.541C384.217 321.009 384.682 320.758 385.282 320.845L389.028 321.365Z" fill="#2E2B4A"/>
<path d="M406.335 321.364C406.597 321.4 406.848 321.5 407.047 321.664C408.444 322.823 412.686 324.894 414.862 325.208C417.196 325.545 417.315 326.7 414.033 326.7C410.747 326.7 408.339 326.407 406.877 326.443C405.414 326.483 405.793 326.7 402.195 326.7C399.431 326.7 400.295 323.177 401.284 321.54C401.585 321.039 401.99 320.757 402.592 320.844L406.335 321.364Z" fill="#2E2B4A"/>
<path d="M267.134 288.602C267.895 292.518 271.687 295.076 275.603 294.315C279.518 293.552 282.076 289.762 281.315 285.847C280.554 281.931 276.762 279.373 272.845 280.134C268.931 280.895 266.373 284.687 267.134 288.602Z" fill="white"/>
</svg>
