<svg width="690" height="350" viewBox="0 0 690 350" fill="none" xmlns="http://www.w3.org/2000/svg">
<path d="M144.469 139.414C144.362 139.364 144.256 139.311 144.147 139.26L145.353 138.083C145.455 138.132 145.556 138.181 145.658 138.23L144.469 139.414ZM136.951 134.861C134.855 133.302 132.864 131.557 131.035 129.676L132.773 128.872C134.543 130.691 136.466 132.376 138.488 133.881L136.951 134.861ZM126.281 123.964C124.881 121.979 123.68 119.925 122.707 117.858L124.698 117.413C125.641 119.417 126.809 121.409 128.165 123.334L126.281 123.964ZM476.345 123.92L474.313 123.579C474.32 123.556 475.148 121.202 476.197 117.254L478.255 117.513C477.193 121.508 476.352 123.895 476.345 123.92ZM120.434 111.456C119.928 109.344 119.672 107.237 119.672 105.195C119.672 105.088 119.672 104.981 119.674 104.873L121.767 104.885C121.765 104.988 121.765 105.09 121.765 105.193C121.765 107.158 122.011 109.185 122.499 111.22L120.434 111.456ZM479.796 111.084L477.726 110.872C478.183 108.749 478.597 106.591 478.956 104.46L481.033 104.626C480.673 106.773 480.256 108.947 479.796 111.084ZM122.743 98.5886L120.695 98.2893C121.369 96.0983 122.385 93.9773 123.713 91.9893L125.613 92.5913C124.35 94.4848 123.385 96.5026 122.743 98.5886ZM481.973 98.1441L479.888 98.0251C480.149 95.8638 480.358 93.6921 480.508 91.5728L482.598 91.6428C482.445 93.7778 482.235 95.9653 481.973 98.1441ZM130.365 87.2013L128.709 86.3193C130.624 84.6131 132.864 83.0048 135.363 81.5401L136.72 82.6373C134.332 84.0373 132.194 85.5738 130.365 87.2013ZM482.887 85.1293L480.794 85.1118C480.805 84.4643 480.812 83.8133 480.812 83.1588C480.812 81.6433 480.782 80.1261 480.718 78.6508L482.809 78.6088C482.872 80.0981 482.903 81.6293 482.903 83.1588C482.905 83.8203 482.898 84.4766 482.887 85.1293ZM144.243 78.9378L143.151 77.7093C145.945 76.5298 148.797 75.5096 151.632 74.6766L152.452 76.0031C149.711 76.8081 146.948 77.7951 144.243 78.9378ZM161.207 73.9853L160.707 72.5853C163.689 72.0796 166.77 71.7226 170.127 71.4916L170.336 72.9266C167.077 73.1488 164.09 73.4953 161.207 73.9853ZM189.04 72.6063C188.27 72.6046 187.503 72.6011 186.738 72.5976C184.348 72.5871 181.986 72.5783 179.642 72.5993L179.614 71.1573C181.973 71.1363 184.346 71.1451 186.751 71.1556C187.513 71.1591 188.28 71.1626 189.047 71.1643L189.04 72.6063ZM198.498 72.5206L198.417 71.0803C201.747 70.9911 204.784 70.8248 207.71 70.5746L207.97 72.0043C204.983 72.2598 201.886 72.4296 198.498 72.5206ZM480.241 72.2038C480.005 70.0233 479.695 67.8621 479.314 65.7831L481.389 65.6028C481.772 67.7063 482.09 69.8921 482.326 72.0971L480.241 72.2038ZM217.339 70.8633L216.867 69.4581C219.849 68.9821 222.853 68.3836 225.8 67.6818L226.483 69.0451C223.468 69.7643 220.39 70.3751 217.339 70.8633ZM235.307 66.6038L234.438 65.2931C237.173 64.4321 239.97 63.4521 242.749 62.3811L243.77 63.6393C240.94 64.7296 238.093 65.7271 235.307 66.6038ZM251.877 60.2496L250.729 59.0438C253.294 57.8853 255.852 56.6341 258.331 55.3251L259.603 56.4696C257.086 57.7996 254.486 59.0718 251.877 60.2496ZM477.879 59.4096C477.297 57.2571 476.621 55.1396 475.87 53.1183L477.896 52.7596C478.661 54.8123 479.347 56.9596 479.936 59.1453L477.879 59.4096ZM266.923 52.3221L265.542 51.2388C267.787 49.8791 270.025 48.4441 272.387 46.8498L273.85 47.8806C271.462 49.4923 269.197 50.9448 266.923 52.3221ZM473.208 46.9531C472.182 44.8846 471.039 42.8738 469.809 40.9733L471.719 40.3871C472.974 42.3261 474.14 44.3788 475.186 46.4876L473.208 46.9531ZM280.471 43.2378L278.958 42.2438C280.951 40.8018 282.927 39.3423 284.837 37.9283L285.389 37.5206L286.92 38.5041L286.369 38.9118C284.451 40.3276 282.473 41.7906 280.471 43.2378ZM465.596 35.2613C464.023 33.3853 462.306 31.5881 460.495 29.9203L462.172 29.0576C464.034 30.7708 465.794 32.6171 467.407 34.5421L465.596 35.2613ZM293.364 33.7948L291.858 32.7938C294.296 31.0508 296.486 29.5476 298.55 28.1966L299.991 29.2431C297.946 30.5783 295.779 32.0676 293.364 33.7948ZM454.481 25.0641C452.322 23.5381 450.001 22.1083 447.583 20.8133L448.865 19.6758C451.359 21.0111 453.752 22.4846 455.977 24.0578L454.481 25.0641ZM306.973 24.9836L305.647 23.8688C308.192 22.4303 310.684 21.1511 313.257 19.9541L314.427 21.1493C311.905 22.3201 309.47 23.5748 306.973 24.9836ZM322.383 17.8506L321.4 16.5783C324.166 15.5633 327.064 14.6323 330.01 13.8116L330.795 15.1486C327.917 15.9501 325.085 16.8601 322.383 17.8506ZM439.904 17.2608C437.271 16.2161 434.474 15.2693 431.594 14.4503L432.391 13.1186C435.355 13.9621 438.236 14.9351 440.948 16.0113L439.904 17.2608ZM339.57 13.0398L338.976 11.6573C341.917 11.0571 345.013 10.5233 348.173 10.0736L348.597 11.4858C345.493 11.9268 342.455 12.4501 339.57 13.0398ZM422.826 12.3748C419.923 11.8166 416.875 11.3493 413.761 10.9871L414.109 9.56606C417.294 9.93706 420.416 10.4148 423.39 10.9871L422.826 12.3748ZM357.786 10.4183L357.512 8.98856C360.532 8.71206 363.699 8.49156 366.925 8.33231L367.075 9.77081C363.89 9.92831 360.766 10.1453 357.786 10.4183ZM404.503 10.2048C401.323 10.0123 398.174 9.85306 395.143 9.73406L395.263 8.29556C398.313 8.41631 401.483 8.57556 404.686 8.76981L404.503 10.2048ZM385.776 9.47856C382.573 9.43131 379.424 9.43131 376.409 9.47506L376.363 8.03306C379.406 7.98756 382.586 7.98931 385.817 8.03656L385.776 9.47856Z" fill="#C2BEBC"/>
<path d="M189.296 102.938H188.133V198.895H189.296V102.938Z" fill="#78C2FF"/>
<path d="M328.62 112.32H153.305V113.122H328.62V112.32Z" fill="#78C2FF"/>
<path d="M170.843 107.309C165.662 107.309 161.445 104.404 161.445 100.834C161.445 97.2644 165.662 94.3594 170.843 94.3594C176.024 94.3594 180.241 97.2644 180.241 100.834C180.241 104.406 176.024 107.309 170.843 107.309ZM170.843 95.3236C166.431 95.3236 162.842 97.7964 162.842 100.836C162.842 103.876 166.431 106.349 170.843 106.349C175.255 106.349 178.844 103.876 178.844 100.836C178.844 97.7964 175.255 95.3236 170.843 95.3236Z" fill="#4DA8F2"/>
<path d="M533.023 295.585H525.391V294.864H531.977V290.328H533.023V295.585Z" fill="#4DA8F2"/>
<path d="M510.614 294.859H429.25V295.58H510.614V294.859Z" fill="#4DA8F2"/>
<path d="M421.849 295.585H414.219V290.328H415.265V294.864H421.849V295.585Z" fill="#4DA8F2"/>
<path d="M415.265 38.7109H414.219V280.83H415.265V38.7109Z" fill="#4DA8F2"/>
<path d="M415.265 33.9619H414.219V28.7031H421.849V29.4241H415.265V33.9619Z" fill="#4DA8F2"/>
<path d="M518.004 28.7031H436.641V29.4241H518.004V28.7031Z" fill="#4DA8F2"/>
<path d="M533.023 33.9619H531.977V29.4241H525.391V28.7031H533.023V33.9619Z" fill="#4DA8F2"/>
<path d="M533.039 43.4531H531.992V285.573H533.039V43.4531Z" fill="#4DA8F2"/>
<path d="M166.229 148.351L133.391 138L144.129 136.906L166.229 148.351Z" fill="#D6D6D6"/>
<path d="M166.213 148.352L155.284 138.18L147.156 138.482L166.213 148.352Z" fill="#E8E8E8"/>
<path d="M140.956 140.383L140.648 143.146L166.243 148.354L140.956 140.383Z" fill="#C2C2C2"/>
<path d="M264.601 32.7163L232.914 46.9375L234.246 48.3466L265.933 34.1254L264.601 32.7163Z" fill="#35A2FF"/>
<path d="M264.624 46.659L232.938 60.8828L234.27 62.2919L265.957 48.0681L264.624 46.659Z" fill="#35A2FF"/>
<path d="M264.624 60.6043L232.938 74.8281L234.27 76.2373L265.957 62.0134L264.624 60.6043Z" fill="#35A2FF"/>
<path d="M264.624 74.5418L232.938 88.7656L234.27 90.1748L265.957 75.9509L264.624 74.5418Z" fill="#35A2FF"/>
<path d="M378.464 280.466H301.289V64.9219H378.464V280.466ZM302.336 279.745H377.418V65.6429H302.336V279.745Z" fill="#4DA8F2"/>
<path d="M394.082 81.3047H317.953V296.128H394.082V81.3047Z" fill="url(#paint0_linear_2626_3254)"/>
<path d="M511.099 37.9062H419.594V296.124H511.099V37.9062Z" fill="url(#paint1_linear_2626_3254)"/>
<path d="M287.48 132.164H211.352V296.122H287.48V132.164Z" fill="url(#paint2_linear_2626_3254)"/>
<path d="M275.046 286.617H198.219V122.18H275.046V286.617ZM198.917 286.137H274.348V122.659H198.917V286.137Z" fill="#3197ED"/>
<path d="M180.887 182.039H104.758V296.129H180.887V182.039Z" fill="url(#paint3_linear_2626_3254)"/>
<path d="M166.827 288.53H90V173.961H166.827V288.53ZM90.6985 288.049H166.129V174.44H90.6985V288.049Z" fill="#35A2FF"/>
<path d="M544.172 74.5982C541.558 74.5982 539.059 74.9097 536.758 75.482C533.723 69.5092 526.182 65.2812 517.356 65.2812C507.546 65.2812 499.322 70.5085 497.112 77.5452C495.418 77.0255 493.572 76.7385 491.636 76.7385C483.471 76.7385 476.852 81.8415 476.852 88.1345H498.482H506.419H523.337H536.227H564.997C564.999 80.6585 555.675 74.5982 544.172 74.5982Z" fill="#DEDEDE"/>
<path d="M215.022 155.788C213.175 155.788 211.405 156.008 209.777 156.412C207.631 152.188 202.294 149.195 196.051 149.195C189.112 149.195 183.293 152.893 181.731 157.87C180.532 157.503 179.227 157.3 177.858 157.3C172.082 157.3 167.398 160.91 167.398 165.362H182.701H188.317H200.285H209.404H229.756C229.756 160.075 223.16 155.788 215.022 155.788Z" fill="#DEDEDE"/>
<path d="M442.918 138.843C440.507 138.843 438.199 139.132 436.075 139.659C433.274 134.146 426.312 130.242 418.166 130.242C409.112 130.242 401.52 135.067 399.483 141.561C397.918 141.082 396.214 140.817 394.428 140.817C386.892 140.817 380.781 145.527 380.781 151.337H400.748H408.075H423.693H435.59H462.145C462.143 144.438 453.535 138.843 442.918 138.843Z" fill="#DEDEDE"/>
<path d="M222.09 333.058L221.252 333.035L225.468 260.13H152.57L148.354 333.058L147.516 333.035L151.765 259.555H226.339L222.09 333.058Z" fill="#1A598C"/>
<path d="M228.923 333.058L224.707 260.13H151.809L156.025 333.035L155.187 333.058L150.938 259.555H225.512L229.761 333.035L228.923 333.058Z" fill="#1A598C"/>
<path d="M155.599 309.339H229.335L225.104 236.133H151.367L155.599 309.339Z" fill="#1A598C"/>
<path d="M219.588 309.339H145.852L150.083 236.133H223.822L219.588 309.339Z" fill="#E3F2FF"/>
<path d="M443.427 235.191C440.304 236.646 407.956 248.065 405.685 249.727C403.414 251.385 386.959 263.224 386.39 265.302C385.823 267.374 381.846 278.798 381.846 279.833C381.846 280.558 380.313 290.789 377.829 300.058C377.758 300.332 377.68 300.603 377.609 300.872C376.601 304.52 375.445 307.966 374.188 310.566C370.667 317.814 355.534 330.933 346.15 338H257V330.262C266.724 322.906 275.1 316.101 277.707 312.642C285.089 302.881 292.18 279.003 290.478 271.733C289.684 268.346 289.144 262.402 288.639 256.502C288.065 249.734 287.554 243.038 286.793 240.378C285.374 235.394 289.342 229.995 291.897 228.546C294.453 227.09 330.776 195.113 331.911 194.284C333.047 193.451 342.409 192 342.409 192C342.409 192 400.353 207.596 431.85 217.4C443.207 220.929 451.129 223.71 451.654 224.735C453.643 228.619 446.543 233.74 443.427 235.191Z" fill="url(#paint4_linear_2626_3254)"/>
<path d="M312.469 324.322C335.676 327.125 353.694 316.624 366.602 303.969C369.584 294.267 371.443 283.192 371.443 282.425C371.443 281.361 375.979 269.664 376.627 267.538C377.275 265.412 396.07 253.289 398.661 251.587C401.254 249.886 438.195 238.189 441.758 236.699C445.322 235.21 453.424 229.965 451.156 225.993C450.554 224.943 441.512 222.092 428.543 218.477C406.969 218.519 382.84 220.871 378.855 222.215C371.362 224.745 354.448 240.807 350.489 249.714C346.529 258.616 352.648 284.338 348.162 300.926C343.682 317.516 312.469 324.322 312.469 324.322Z" fill="url(#paint5_linear_2626_3254)"/>
<path d="M429.436 226C426.51 226.912 383.639 237.769 380.83 238.761C378.021 239.753 358.148 254.499 358.148 254.499C358.148 254.499 376.944 239.258 378.562 237.343C380.18 235.429 428.949 225.646 430.409 224.582C431.867 223.518 433.076 224.866 429.436 226Z" fill="url(#paint6_linear_2626_3254)"/>
<path d="M300.656 244.833C300.656 244.833 318.192 226.424 323.16 214.657C328.128 202.888 339.362 217.208 335.689 225.006C332.016 232.806 305.37 244.529 300.656 244.833Z" fill="url(#paint7_linear_2626_3254)"/>
<path d="M322 54.958V215.048C322 221.649 328.326 227 336.135 227H426.865C430.995 227 434.712 225.504 437.295 223.113C439.599 220.983 441 218.158 441 215.048V54.958C441 48.353 434.668 43 426.865 43H336.135C328.326 43 322 48.3511 322 54.958Z" fill="url(#paint8_linear_2626_3254)"/>
<path d="M333 52H431V199H333V52Z" fill="url(#paint9_linear_2626_3254)"/>
<path d="M378.727 212.957C378.727 216.936 385.424 220.163 393.687 220.163C401.949 220.163 408.646 216.936 408.646 212.957C408.646 208.977 401.949 205.75 393.687 205.75C385.424 205.75 378.727 208.977 378.727 212.957Z" fill="url(#paint10_linear_2626_3254)"/>
<path d="M397.182 199.344C397.182 199.344 400.892 203.845 397.182 211.501C393.471 219.157 381.482 226.742 381.482 226.742H368.844L397.182 199.344Z" fill="url(#paint11_linear_2626_3254)"/>
<path d="M384 43L437.88 223C439.82 220.871 441 218.048 441 214.94V54.9505C441 48.3497 435.668 43 429.098 43H384Z" fill="white"/>
<path d="M439.661 226.736L361.102 55.1797H372.988L451.548 226.736H439.661Z" fill="white"/>
<path opacity="0.18" d="M302.298 159.359H283.281V160.338H302.298V159.359Z" fill="url(#paint12_linear_2626_3254)"/>
<path opacity="0.18" d="M302.298 160.766H283.281V163.415H302.298V160.766Z" fill="url(#paint13_linear_2626_3254)"/>
<path d="M415.985 56.1791C415.664 54.9585 415.172 53.8036 414.537 52.7444L416.012 50.5623L413.968 48.5505L411.923 46.5387L409.705 47.9899C408.626 47.3654 407.454 46.8811 406.214 46.5653L405.689 44H402.796H399.904L399.379 46.5653C398.139 46.8811 396.965 47.3654 395.888 47.9899L393.67 46.5387L391.625 48.5505L389.58 50.5623L391.056 52.7444C390.421 53.8053 389.928 54.9585 389.607 56.1791L387 56.6953V59.5409V62.3866L389.607 62.9028C389.928 64.1234 390.421 65.2783 391.056 66.3374L389.58 68.5196L391.625 70.5314L393.67 72.5432L395.888 71.092C396.967 71.7164 398.139 72.2008 399.379 72.5166L399.904 75.0819H402.796H405.689L406.214 72.5166C407.454 72.2008 408.628 71.7164 409.705 71.092L411.923 72.5432L413.968 70.5314L416.012 68.5196L414.537 66.3374C415.172 65.2765 415.664 64.1234 415.985 62.9028L418.593 62.3866V59.5409V56.6953L415.985 56.1791ZM402.795 69.513C397.197 69.513 392.659 65.0477 392.659 59.5409C392.659 54.0342 397.197 49.5688 402.795 49.5688C408.392 49.5688 412.931 54.0342 412.931 59.5409C412.931 65.0495 408.392 69.513 402.795 69.513Z" fill="#78C2FF"/>
<path d="M399.347 60.2188H360.961V156.185H399.347V60.2188Z" fill="url(#paint14_linear_2626_3254)"/>
<path d="M380.153 34.6875C363.257 46.3285 360.961 60.22 360.961 60.22H380.153H399.347C399.347 60.2183 397.048 46.3268 380.153 34.6875Z" fill="#78C2FF"/>
<path d="M361.607 66.315C360.475 66.315 359.39 66.4427 358.389 66.6755C357.071 64.2325 353.8 62.5 349.969 62.5C345.713 62.5 342.141 64.6385 341.184 67.519C340.447 67.3072 339.647 67.19 338.806 67.19C335.263 67.19 332.391 69.2777 332.391 71.8537H341.778H345.225H352.568H358.163H370.65C370.647 68.7947 366.601 66.315 361.607 66.315Z" fill="#EBEBEB"/>
<path d="M401.909 59.6812C401.203 59.6812 400.525 59.7599 399.902 59.9069C399.082 58.3827 397.04 57.3047 394.652 57.3047C391.998 57.3047 389.773 58.6382 389.176 60.4337C388.717 60.3007 388.219 60.2289 387.696 60.2289C385.486 60.2289 383.695 61.5309 383.695 63.1357H389.547H391.696H396.273H399.76H407.545C407.545 61.2282 405.02 59.6812 401.909 59.6812Z" fill="#EBEBEB"/>
<path d="M422.176 78.7444C420.993 78.7444 419.86 78.8862 418.816 79.1452C417.439 76.4397 414.023 74.5234 410.025 74.5234C405.58 74.5234 401.854 76.8912 400.854 80.0797C400.087 79.8452 399.248 79.7139 398.372 79.7139C394.672 79.7139 391.672 82.0257 391.672 84.8782H401.473H405.07H412.735H418.575H431.61C431.612 81.4919 427.388 78.7444 422.176 78.7444Z" fill="#DEDEDE"/>
<path d="M365.143 156.477H356.781V180.933H365.143V156.477Z" fill="url(#paint15_linear_2626_3254)"/>
<path d="M384.33 156.477H375.969V180.933H384.33V156.477Z" fill="url(#paint16_linear_2626_3254)"/>
<path d="M403.533 156.477H395.172V180.933H403.533V156.477Z" fill="url(#paint17_linear_2626_3254)"/>
<path d="M387.064 159.007H373.234C373.234 156.375 376.331 154.242 380.148 154.242C383.968 154.242 387.064 156.375 387.064 159.007Z" fill="url(#paint18_linear_2626_3254)"/>
<path d="M406.268 159.007H392.438C392.438 156.375 395.534 154.242 399.351 154.242C403.171 154.242 406.268 156.375 406.268 159.007Z" fill="url(#paint19_linear_2626_3254)"/>
<path d="M412.525 174.875C410.183 174.875 407.943 175.139 405.878 175.622C403.158 170.574 396.397 167 388.485 167C379.692 167 372.318 171.417 370.337 177.365C368.818 176.926 367.162 176.685 365.428 176.685C358.108 176.685 352.172 180.997 352.172 186.318H371.564H378.681H393.849H405.406H431.196C431.199 179.997 422.837 174.875 412.525 174.875Z" fill="#EBEBEB"/>
<path d="M398.619 182.886C396.277 182.886 394.037 183.166 391.972 183.677C389.252 178.323 382.491 174.531 374.579 174.531C365.786 174.531 358.412 179.216 356.431 185.526C354.912 185.061 353.256 184.804 351.521 184.804C344.201 184.804 338.266 189.378 338.266 195.02H357.658H364.775H379.943H391.5H417.29C417.293 188.319 408.934 182.886 398.619 182.886Z" fill="#F5F5F5"/>
<path d="M432.979 187.758C430.348 187.758 427.829 188.026 425.51 188.514C422.452 183.402 414.852 179.781 405.96 179.781C396.077 179.781 387.789 184.256 385.562 190.28C383.855 189.835 381.993 189.59 380.045 189.59C371.818 189.59 365.148 193.958 365.148 199.346H386.943H394.942H411.99H424.976H453.964C453.967 192.945 444.569 187.758 432.979 187.758Z" fill="#DEDEDE"/>
<path d="M386.007 190.371C383.97 190.371 382.02 190.578 380.224 190.956C377.857 186.997 371.974 184.195 365.089 184.195C357.438 184.195 351.023 187.659 349.298 192.322C347.977 191.978 346.537 191.789 345.026 191.789C338.656 191.789 333.492 195.17 333.492 199.342H350.365H356.557H369.755H379.81H402.25C402.255 194.387 394.981 190.371 386.007 190.371Z" fill="#EBEBEB"/>
<path d="M367.885 159.007H354.055C354.055 156.375 357.151 154.242 360.968 154.242C364.789 154.242 367.885 156.375 367.885 159.007Z" fill="url(#paint20_linear_2626_3254)"/>
<path d="M396.718 205.864C398.425 202.616 397.798 198.207 394.666 195.868C392.416 194.186 387.262 193.824 384.542 193.752C383.455 193.724 382.406 194.007 381.654 194.524C378.175 196.921 367.588 204.098 363.016 205.862C357.507 207.988 347.787 210.328 346.489 212.242C345.194 214.157 310.521 242.017 301.771 244.357C293.245 246.637 300.722 270.533 344.909 268.988C346.888 268.918 348.458 267.868 348.521 266.569C348.732 262.296 349.397 252.837 351.348 246.271C353.941 237.551 369.171 228.691 373.382 225.996C377.6 223.302 393.477 212.031 396.718 205.864Z" fill="#EAA584"/>
<path d="M362.703 205.981C362.703 205.981 371.009 206.14 374.788 210.181C374.788 210.181 391.861 198.592 392.402 196.961C392.943 195.33 386.84 193.169 382.573 194.126C378.014 195.15 364.865 205.202 362.703 205.981Z" fill="url(#paint21_linear_2626_3254)"/>
<path d="M486.99 290.444C486.656 296.025 482.769 304.725 483.093 308.633C483.428 312.541 479.768 323.014 478.268 327.338C477.12 330.655 476.062 334.206 475.926 338H389.11C387.681 336.667 386.371 335.63 385.068 334.971C381.732 333.29 371.626 328.595 366.853 322.5C362.377 316.797 351.079 302.031 347.969 298.866C344.859 295.701 336.191 284.538 333.524 282.116C330.858 279.693 323.417 275.232 323.417 275.232C321.817 274.156 320.525 268.454 327.893 266.44C328.2 266.349 328.524 266.272 328.861 266.204C337.304 264.432 357.073 274.95 360.075 279.789C363.074 284.627 372.631 294.866 375.296 296.631C377.954 298.395 384.96 302.303 389.289 296.071C390.473 294.367 391.775 291.535 393.041 288.279C396.349 279.753 399.395 268.348 399.395 266.81V266.757C399.287 264.994 400.688 240.752 400.074 235.027C399.459 229.31 395.817 185.843 396.124 183.072C396.522 179.49 397.635 177.089 405.1 179.005C412.096 180.792 415.451 202.275 415.948 204.781C416.445 207.296 421.237 227.469 423.116 232.967C423.124 232.892 423.197 232.519 423.368 231.982C423.368 231.975 423.368 231.975 423.368 231.975C423.874 230.37 425.276 227.234 428.773 225.719C429.352 225.47 430.002 225.257 430.717 225.083C430.725 225.076 430.725 225.076 430.725 225.076C436.014 223.766 443.534 226.378 444.647 229.522C446.418 234.534 446.102 243.591 446.102 243.591C446.102 243.591 446.997 237.245 452.122 235.905C452.293 235.859 452.448 235.799 452.601 235.768C455.764 235.215 464.597 235.768 465.599 242.749C466.602 249.732 466.386 253.215 466.386 253.215C466.386 253.215 470.264 248.194 475.264 248.754C480.263 249.307 485.262 253.215 484.43 261.173C483.601 269.135 487.208 286.809 486.99 290.444Z" fill="url(#paint22_linear_2626_3254)"/>
<path d="M466.385 255.496C466.385 255.496 465.908 271.641 467.934 275.223C470.506 279.771 470.599 278.481 470.599 278.481C470.599 278.481 469.25 262.32 469.156 258.939C469.059 255.449 467.834 253.449 466.385 255.496Z" fill="url(#paint23_linear_2626_3254)"/>
<path d="M446.108 243.594C446.108 243.594 447.83 244.71 448.275 248.898C448.719 253.086 448.829 267.975 448.829 267.975L444.164 267.417C444.164 267.417 445.955 267.658 446.108 265.37C446.359 261.602 446.098 244.896 446.108 243.594Z" fill="url(#paint24_linear_2626_3254)"/>
<path d="M423.112 232.981C423.112 232.981 426.112 264.559 424.445 266.636C422.778 268.714 422.391 268.342 422.391 268.342C422.391 268.342 426.112 268.202 427.612 267.97C429.112 267.736 426.778 230.468 423.112 232.981Z" fill="url(#paint25_linear_2626_3254)"/>
<path d="M393.043 288.283C393.032 288.677 392.278 323.119 389.959 317.291C387.626 311.428 364.965 296.911 361.633 292.585C358.301 288.259 352.678 279.586 342.971 273.183C333.199 266.737 327.898 266.44 327.898 266.44C328.204 266.353 328.528 266.276 328.864 266.206C337.306 264.439 357.076 274.952 360.076 279.792C363.076 284.631 372.63 294.867 375.296 296.635C377.962 298.402 384.96 302.309 389.293 296.076C390.481 294.369 391.781 291.535 393.043 288.283Z" fill="url(#paint26_linear_2626_3254)"/>
<path d="M403.826 195.411C403.826 195.411 410.158 194.386 412.712 194.758C412.712 194.758 410.056 179.345 405.546 178.567C397.995 177.264 400.05 181.08 403.826 195.411Z" fill="url(#paint27_linear_2626_3254)"/>
<path d="M335.952 284.707C335.952 284.707 339.749 281.277 341.858 279.789C343.969 278.3 325.318 265.961 321.641 271.134C318.476 275.589 335.952 284.707 335.952 284.707Z" fill="url(#paint28_linear_2626_3254)"/>
<path d="M135.094 244.718L146.416 250.941L157.784 233.049L144.034 228.273L135.094 244.718Z" fill="#292C47"/>
<path d="M135.812 244.174L146.398 249.995L157.031 233.263L144.172 228.797L135.812 244.174Z" fill="#E3F2FF"/>
<path d="M131.938 241.048C131.938 241.048 133.908 240.106 134.773 239.613C135.637 239.121 137.863 238.444 138.042 238.283C138.222 238.122 144.637 237.726 145.026 237.39C145.414 237.054 145.794 238.178 144.13 238.542C142.467 238.906 140.154 239.796 140.026 240.446C139.9 241.095 141.734 241.249 141.92 241.784C142.105 242.32 141.867 242.199 141.605 242.315C141.342 242.43 139.422 241.366 138.579 241.669C137.735 241.97 136.446 241.553 135.798 241.774C135.151 241.996 132.006 243.053 132.006 243.053L131.938 241.048Z" fill="#EEA886"/>
<path d="M135.493 242.44L136.508 242.063C136.508 242.063 135.242 239.092 134.689 239.165C134.052 239.249 133.258 239.458 133.258 239.458L135.493 242.44Z" fill="#EAD8CF"/>
<path d="M135.725 242.955C135.596 242.859 133.567 238.969 133.567 238.969L129.234 239.557L131.576 244.165L135.725 242.955Z" fill="#DA9B5B"/>
<path d="M146.967 248.69C146.967 248.69 148.623 247.201 149.424 246.576C150.226 245.953 151.729 244.119 151.949 244.012C152.17 243.906 155.042 238.013 155.509 237.777C155.976 237.541 155.066 236.748 154.076 238.173C153.085 239.597 151.344 241.431 150.682 241.298C150.021 241.165 150.59 239.377 150.157 238.992C149.725 238.608 149.746 238.88 149.534 239.083C149.324 239.286 149.578 241.508 148.966 242.185C148.353 242.863 148.245 244.242 147.784 244.765C147.324 245.288 145.102 247.84 145.102 247.84L146.967 248.69Z" fill="#EEA886"/>
<path d="M111.321 328.329C111.321 328.329 110.962 330.814 110.919 331.188C110.873 331.561 106.936 330.968 106.936 330.968L106.617 328.009C106.615 328.009 110.829 327.977 111.321 328.329Z" fill="#424773"/>
<path d="M110.959 330.873C110.959 330.873 112.207 332.371 113.414 333.024C114.622 333.676 116.519 333.935 117.231 334.611C117.746 335.099 119.107 337.199 114.095 337.155C109.081 337.113 106.665 337.453 106.129 336.646C105.592 335.841 106.906 330.703 106.906 330.703C106.906 330.703 108.093 331.132 110.959 330.873Z" fill="#292C47"/>
<path d="M139.54 328.329C139.54 328.329 139.181 330.814 139.137 331.188C139.092 331.561 135.154 330.968 135.154 330.968L134.836 328.009C134.836 328.009 139.048 327.977 139.54 328.329Z" fill="#424773"/>
<path d="M139.176 330.871C139.176 330.871 140.424 332.369 141.631 333.022C142.839 333.675 147.28 334.21 147.994 334.887C148.509 335.376 149.366 337.339 142.314 337.155C137.302 337.024 134.883 337.453 134.348 336.646C133.811 335.841 135.125 330.703 135.125 330.703C135.125 330.703 136.241 331.158 139.176 330.871Z" fill="#292C47"/>
<path d="M114.581 264.461C114.581 264.461 110.88 270.341 111.157 275.656C111.433 280.97 109.815 286.773 109.26 292.326C108.64 298.516 106.103 313.171 106.012 316.482C105.919 319.793 106.406 330.366 106.406 330.366L111.482 330.482C111.482 330.482 115.747 304.863 116.851 302.249C117.955 299.634 123.433 280.998 123.617 278.907C123.799 276.816 114.581 264.461 114.581 264.461Z" fill="#292C47"/>
<path d="M134.064 265.255C134.064 265.255 136.853 279.822 137.221 283.075C137.588 286.328 137.835 298.818 138.019 300.851C138.202 302.885 139.245 327.457 140.227 330.477H133.736C133.736 330.477 128.754 312.613 128.754 304.162C128.754 295.712 124.904 285.787 122.419 280.212C119.934 274.635 114.247 274.503 112.719 264.157C112.721 264.157 131.997 261.973 134.064 265.255Z" fill="#292C47"/>
<path d="M120.758 215.025C120.758 215.025 125.727 213.17 128.016 216.95C130.306 220.732 130.086 228.303 127.582 229.232C125.077 230.163 121.317 229.676 120.034 227.31C118.751 224.944 117.594 221.523 117.65 219.238C117.706 216.954 119.453 215.687 120.758 215.025Z" fill="#EEA886"/>
<path d="M127.04 229.41C127.04 229.41 126.833 230.75 127.175 231.412C127.516 232.073 120.74 232.089 120.74 232.089C120.74 232.089 120.19 228.496 119.147 225.46C118.103 222.424 127.04 229.41 127.04 229.41Z" fill="#EEA886"/>
<path d="M119.148 225.457C119.148 225.457 119.615 226.229 121.525 225.929C123.434 225.63 125.763 223.089 126.561 222.811C127.359 222.533 127.366 222.064 127.366 222.064L127.865 222.793L128.712 222.848C128.712 222.848 127.94 220.574 129.104 219.649C130.269 218.721 127.895 212.293 121.771 214.434C121.771 214.434 117.067 215.73 117.239 218.404C117.41 221.078 118.096 224.125 119.148 225.457Z" fill="#3A3F47"/>
<path d="M127.58 231.327C127.58 231.327 127.559 230.065 126.986 229.943C126.414 229.822 120.671 229.269 119.969 229.545V231.015C119.967 231.017 121.322 231.848 127.58 231.327Z" fill="#E2D2CA"/>
<path d="M127.239 221.092C127.132 220.644 125.991 219.362 125.554 220.734C125.116 222.106 126.213 223.954 126.826 223.794C127.437 223.637 127.51 222.23 127.239 221.092Z" fill="#EEA886"/>
<path d="M150.376 246.244C150.372 246.242 150.371 246.242 150.367 246.244C150.406 246.261 150.413 246.263 150.376 246.244Z" fill="#323657"/>
<path d="M110.407 278.471C110.407 278.471 113.453 279.369 118.647 279.941C123.843 280.514 136.823 279.735 136.903 279.121C136.986 278.506 134.112 256.267 134.275 255.123C134.438 253.978 134.527 249.897 134.527 249.897C134.592 251.015 135.731 255.583 137.105 258.071C137.602 258.971 139.268 261.79 140.071 261.15C143.959 258.045 149.981 246.346 150.363 246.247C150.042 246.107 147.508 244.941 147.153 244.822C146.842 244.719 144.036 247.689 142.337 249.53C141.579 250.35 141.04 250.947 141.04 250.947C140.549 249.843 138.762 242.887 138.207 240.479C136.954 235.048 137.147 234.823 137.147 234.823C133.346 233.673 127.578 231.333 127.578 231.333L119.965 231.023C119.965 231.023 112.979 232.562 110.228 233.804C109.967 233.921 109.966 240.036 109.25 241.639L111.53 246.451C111.53 246.451 112.848 255.984 113.121 260.224C113.25 262.168 110.407 278.471 110.407 278.471Z" fill="#E8734D"/>
<path d="M108.937 249.571C109.136 250.214 110.038 250.754 110.624 250.992C110.998 251.145 111.42 251.194 111.842 251.115L112.139 251.059L117.356 250.091C117.356 250.091 118.497 236.947 110.23 233.797C110.011 233.869 107.11 243.686 108.937 249.571Z" fill="#E8734D"/>
<path d="M110.625 250.994C110.999 251.146 111.421 251.195 111.843 251.116L112.141 251.06L111.626 244.344L110.625 250.994Z" fill="#AD563A"/>
<path d="M141.039 250.947L141.676 253.647C141.676 253.647 142.367 250.938 142.334 249.531C141.578 250.35 141.039 250.947 141.039 250.947Z" fill="#AD563A"/>
<path d="M119.343 215.469C119.343 215.469 113.092 216.102 119.231 225.592L119.343 215.469Z" fill="#3A3F47"/>
<path d="M152.555 232.085L153.218 230.947L148.005 229.148L147.344 230.279L152.555 232.085Z" fill="#292C47"/>
<path d="M518.85 192.583C518.85 192.583 517.6 190.497 519.582 184.906C521.497 179.5 528.129 179.99 530.235 183.454C532.342 186.919 531.63 189.07 528.529 192.982C525.427 196.891 520.138 194.371 518.85 192.583Z" fill="#EEA886"/>
<path d="M534.219 288.781C534.219 288.781 534.547 291.076 534.587 291.422C534.628 291.767 538.238 291.219 538.238 291.219L538.529 288.485C538.531 288.485 534.671 288.457 534.219 288.781Z" fill="#EEA886"/>
<path d="M534.584 291.134C534.584 291.134 533.441 292.517 532.335 293.121C531.23 293.723 529.492 293.963 528.836 294.586C528.364 295.037 527.116 296.977 531.709 296.938C536.302 296.899 538.517 297.212 539.01 296.467C539.503 295.723 538.298 290.977 538.298 290.977C538.298 290.977 537.175 291.281 534.584 291.134Z" fill="#4DA8F2"/>
<path d="M509.234 288.781C509.234 288.781 509.562 291.076 509.603 291.422C509.644 291.767 513.253 291.219 513.253 291.219L513.545 288.485C513.545 288.485 509.684 288.457 509.234 288.781Z" fill="#EEA886"/>
<path d="M509.571 291.134C509.571 291.134 508.428 292.517 507.322 293.121C506.217 293.723 502.146 294.219 501.493 294.843C501.021 295.294 500.236 297.108 506.699 296.938C511.289 296.817 513.507 297.212 513.999 296.467C514.492 295.723 513.287 290.977 513.287 290.977C513.287 290.977 511.859 291.22 509.571 291.134Z" fill="#4DA8F2"/>
<path d="M533.013 231.609C533.013 231.609 534.864 237.098 534.62 241.827C534.376 246.557 535.576 251.732 536.066 256.675C536.613 262.183 538.853 275.225 538.935 278.17C539.016 281.118 538.587 290.527 538.587 290.527L534.104 290.63C534.104 290.63 530.341 267.832 529.364 265.506C528.388 263.18 523.555 246.595 523.393 244.733C523.23 242.874 533.013 231.609 533.013 231.609Z" fill="#2F4563"/>
<path d="M514.419 231.024C514.419 231.024 511.698 245.537 511.375 248.43C511.049 251.326 510.832 262.441 510.669 264.249C510.507 266.059 509.587 287.926 508.719 290.614H513.716C513.716 290.614 518.847 274.717 518.847 267.194C518.847 259.673 522.245 250.842 524.439 245.88C526.634 240.918 531.654 240.799 533.002 231.593C533.004 231.595 516.246 228.104 514.419 231.024Z" fill="#354C70"/>
<path d="M520.654 194.056C520.654 194.056 521.217 195.623 520.654 196.74C520.091 197.858 527.856 197.187 527.856 197.187C527.856 197.187 527.505 194.876 528.518 192.978C529.535 191.077 520.654 194.056 520.654 194.056Z" fill="#EEA886"/>
<path d="M533.396 232.798C533.396 232.798 530.602 235.536 514.203 232.371L514.452 231.031L533.095 231.702L533.396 232.798Z" fill="#2B3B57"/>
<path d="M519.475 197.105C519.475 197.105 516.606 197.383 515.786 197.534C514.965 197.685 509.45 196.594 508.318 196.482C507.185 196.369 502.359 193.213 502.203 192.842C502.048 192.469 499.267 185.75 499.111 184.298C498.955 182.846 496.403 183.595 496.623 184.596C497.032 186.469 497.558 191.015 497.846 192.333C498.157 193.755 498.989 196.978 499.459 197.375C499.927 197.772 504.272 200.926 508.526 202.268C512.78 203.61 515.982 205.584 515.982 205.584H536.947C536.947 205.584 545.102 194.458 545.276 192.781C545.451 191.105 539.58 179.964 538.41 178.568C537.239 177.172 535.546 179.023 535.546 179.023C535.546 179.023 539.054 188.848 539.522 190.244C539.99 191.64 535.442 197.778 534.192 197.798C532.942 197.817 529.737 197.424 528.313 197.368C526.889 197.312 525.386 196.717 525.386 196.717L519.475 197.105Z" fill="#EEA886"/>
<path d="M510.448 204.55C510.448 204.55 513.014 206.179 513.249 208.973C513.484 211.767 514.42 216.181 514.888 217.689C515.356 219.197 514.479 230.149 514.361 230.932C514.243 231.715 530.584 233.573 533.093 231.715C533.093 231.715 533.796 221.491 534.087 218.585C534.379 215.678 535.785 208.639 536.253 207.689C536.72 206.74 542.398 199.137 542.634 198.136C542.634 198.136 539.695 193.665 537.588 193.609C537.588 193.609 534.241 197.353 533.151 197.521C532.06 197.689 525.371 196.518 525.371 196.509C525.371 196.509 524.641 197.458 520.76 196.341C520.76 196.341 516.138 196.839 515.387 196.93C514.476 197.04 508.147 196.172 508.147 196.172C508.147 196.172 505.609 200.265 506.052 202.332L510.448 204.55Z" fill="#D4D8E8"/>
<path d="M499.264 185.191C499.264 185.191 498.69 182.602 499.381 181.858C499.775 181.435 500.719 180.313 500.805 180.149C500.891 179.985 501.906 179.429 501.906 179.161C501.906 178.894 500.914 178.564 500.05 179.325C499.187 180.087 498.649 180.251 498.303 180.169C497.957 180.087 497.462 177.349 497.419 176.669C497.376 175.99 497.101 174.199 496.658 174.322C496.212 174.445 496.235 175.228 496.235 175.228C496.235 175.228 495.717 173.869 495.372 174.136C495.026 174.404 495.069 175.062 495.069 175.062C495.069 175.062 494.422 174.3 494.248 174.857C494.076 175.414 494.248 175.908 494.248 175.908C494.248 175.908 493.579 175.558 493.536 176.421C493.493 177.284 493.731 179.817 494.205 180.723C494.68 181.629 496.457 183.998 496.667 184.924C496.877 185.85 499.264 185.191 499.264 185.191Z" fill="#EEA886"/>
<path d="M536.123 180.633C536.123 180.633 534.172 177.504 533.51 177.224C532.847 176.943 531.909 176.786 531.089 176.227C530.268 175.668 529.186 175.202 529.244 175.017C529.303 174.831 530.268 174.904 531.304 175.334C532.339 175.763 532.791 175.556 532.888 175.332C532.985 175.107 532.337 173.53 532.025 173.157C531.713 172.784 529.489 170.648 529.859 170.333C530.23 170.016 531.674 171.189 531.907 171.431C531.907 171.431 530.757 169.12 531.204 169.01C531.652 168.9 532.493 169.718 532.493 169.718C532.493 169.718 532.395 167.744 534.62 170.948C534.62 170.948 534.152 169.886 534.834 170.24C535.517 170.594 536.181 172.587 536.396 173.593C536.611 174.598 537.585 177.802 538.415 178.574C539.244 179.347 536.123 180.633 536.123 180.633Z" fill="#EEA886"/>
<path d="M528.508 192.988C528.508 192.988 527.48 193.074 525.296 192.354C523.113 191.633 522.948 187.985 522.476 188.419C521.51 189.301 520.6 188.693 520.236 188.17C520.236 188.17 521.303 186.828 520.807 186.183C520.312 185.538 519.508 185.066 519.508 185.066C519.508 185.066 521.045 177.994 528.041 181.217C536.236 184.992 528.508 192.988 528.508 192.988Z" fill="#353A3D"/>
<path d="M520.648 196.751L520.895 195.729C520.895 195.729 525.359 195.642 527.796 195.979L528.051 197.2C528.053 197.2 524.934 198.551 520.648 196.751Z" fill="#D4D8E8"/>
<path d="M521.742 187.516C522.147 186.874 523.648 186.44 523.824 188.261C523.96 189.674 521.143 191.216 521.118 189.9C521.093 188.584 521.471 187.944 521.742 187.516Z" fill="#EEA886"/>
<path d="M499.164 184.594C499.164 184.594 497.552 184.63 496.772 185.306C496.772 185.306 496.72 185.733 496.904 186.072C496.904 186.072 498.301 185.45 499.37 185.334C499.37 185.332 499.352 184.773 499.164 184.594Z" fill="#E55353"/>
<path d="M497.266 184.966C497.117 185.302 497.282 185.691 497.634 185.833C497.987 185.975 498.394 185.818 498.543 185.481C498.692 185.145 498.527 184.756 498.175 184.616C497.822 184.472 497.415 184.629 497.266 184.966Z" fill="#353A3D"/>
<path d="M511.807 338.418L497.438 296.297H544.048L558.281 338.017L556.991 338.418L543.063 297.591H499.307L513.097 338.017L511.807 338.418Z" fill="#FFB299"/>
<path d="M484.291 338.418L483 338.017L497.233 296.297H543.842L529.473 338.418L528.184 338.017L541.975 297.591H498.217L484.291 338.418Z" fill="#FFB299"/>
<path d="M547.143 309.031H493.586V310.326H547.143V309.031Z" fill="#FFB299"/>
<path d="M552.654 323.094H488.578V324.388H552.654V323.094Z" fill="#FFB299"/>
<path d="M190.427 254L185.094 263.237L179.76 254H162L185.094 294L208.188 254H190.427Z" fill="#41B883"/>
<path d="M190.424 254L185.091 263.238L179.757 254H171.234L185.091 278L198.947 254H190.424Z" fill="#34495E"/>
<defs>
<linearGradient id="paint0_linear_2626_3254" x1="356.9" y1="108.033" x2="355.596" y2="359.051" gradientUnits="userSpaceOnUse">
<stop stop-color="#18AFF5"/>
<stop offset="1" stop-color="#5156BD"/>
</linearGradient>
<linearGradient id="paint1_linear_2626_3254" x1="465.987" y1="108.594" x2="464.683" y2="359.614" gradientUnits="userSpaceOnUse">
<stop stop-color="#18AFF5"/>
<stop offset="1" stop-color="#5156BD"/>
</linearGradient>
<linearGradient id="paint2_linear_2626_3254" x1="250.583" y1="107.474" x2="249.278" y2="358.495" gradientUnits="userSpaceOnUse">
<stop stop-color="#18AFF5"/>
<stop offset="1" stop-color="#5156BD"/>
</linearGradient>
<linearGradient id="paint3_linear_2626_3254" x1="144.268" y1="106.927" x2="142.963" y2="357.946" gradientUnits="userSpaceOnUse">
<stop stop-color="#18AFF5"/>
<stop offset="1" stop-color="#5156BD"/>
</linearGradient>
<linearGradient id="paint4_linear_2626_3254" x1="339.467" y1="252.427" x2="305.702" y2="140.989" gradientUnits="userSpaceOnUse">
<stop stop-color="#EEA886"/>
<stop offset="0.7927" stop-color="#CF9174"/>
</linearGradient>
<linearGradient id="paint5_linear_2626_3254" x1="366.835" y1="316.474" x2="384.554" y2="217.448" gradientUnits="userSpaceOnUse">
<stop stop-color="#EEA886"/>
<stop offset="0.7927" stop-color="#CF9174"/>
<stop offset="0.8049" stop-color="#CC8E71"/>
<stop offset="0.9257" stop-color="#B4765A"/>
<stop offset="1" stop-color="#AB6D52"/>
</linearGradient>
<linearGradient id="paint6_linear_2626_3254" x1="381.84" y1="256.718" x2="396.059" y2="217.656" gradientUnits="userSpaceOnUse">
<stop stop-color="#CF9174"/>
<stop offset="1" stop-color="#91624C"/>
</linearGradient>
<linearGradient id="paint7_linear_2626_3254" x1="319.544" y1="232.691" x2="331.734" y2="190.322" gradientUnits="userSpaceOnUse">
<stop stop-color="#CF9174"/>
<stop offset="1" stop-color="#966A56"/>
</linearGradient>
<linearGradient id="paint8_linear_2626_3254" x1="381.499" y1="62.0185" x2="381.499" y2="221.643" gradientUnits="userSpaceOnUse">
<stop offset="0.0829" stop-color="#C3DFE8"/>
<stop offset="1" stop-color="#B3C4E8"/>
</linearGradient>
<linearGradient id="paint9_linear_2626_3254" x1="382" y1="99.674" x2="382" y2="188.857" gradientUnits="userSpaceOnUse">
<stop stop-color="#B6C4E3"/>
<stop offset="1" stop-color="#E8EFFF"/>
</linearGradient>
<linearGradient id="paint10_linear_2626_3254" x1="399.424" y1="209.003" x2="393.279" y2="217.922" gradientUnits="userSpaceOnUse">
<stop stop-color="#93A6CC"/>
<stop offset="0.956" stop-color="#6985BD"/>
</linearGradient>
<linearGradient id="paint11_linear_2626_3254" x1="398.831" y1="213.043" x2="368.844" y2="213.043" gradientUnits="userSpaceOnUse">
<stop offset="0.0829" stop-color="#C3DFE8"/>
<stop offset="1" stop-color="#C3CFE8"/>
</linearGradient>
<linearGradient id="paint12_linear_2626_3254" x1="283.28" y1="159.849" x2="302.296" y2="159.849" gradientUnits="userSpaceOnUse">
<stop stop-color="#D5E4FF"/>
<stop offset="1" stop-color="#EDFFFE"/>
</linearGradient>
<linearGradient id="paint13_linear_2626_3254" x1="283.28" y1="162.09" x2="302.296" y2="162.09" gradientUnits="userSpaceOnUse">
<stop stop-color="#D5E4FF"/>
<stop offset="1" stop-color="#EDFFFE"/>
</linearGradient>
<linearGradient id="paint14_linear_2626_3254" x1="381.091" y1="72.5395" x2="380.112" y2="150.923" gradientUnits="userSpaceOnUse">
<stop stop-color="#1C9BD6"/>
<stop offset="1" stop-color="#5156BD"/>
</linearGradient>
<linearGradient id="paint15_linear_2626_3254" x1="361.571" y1="157.1" x2="360.853" y2="185.988" gradientUnits="userSpaceOnUse">
<stop stop-color="#FFCE80"/>
<stop offset="1" stop-color="#FF8963"/>
</linearGradient>
<linearGradient id="paint16_linear_2626_3254" x1="380.732" y1="157.576" x2="380.015" y2="186.464" gradientUnits="userSpaceOnUse">
<stop stop-color="#FFCE80"/>
<stop offset="1" stop-color="#FF8963"/>
</linearGradient>
<linearGradient id="paint17_linear_2626_3254" x1="399.909" y1="158.053" x2="399.191" y2="186.94" gradientUnits="userSpaceOnUse">
<stop stop-color="#FFCE80"/>
<stop offset="1" stop-color="#FF8963"/>
</linearGradient>
<linearGradient id="paint18_linear_2626_3254" x1="379.819" y1="143.843" x2="380.014" y2="162.776" gradientUnits="userSpaceOnUse">
<stop stop-color="#1C9BD6"/>
<stop offset="1" stop-color="#5156BD"/>
</linearGradient>
<linearGradient id="paint19_linear_2626_3254" x1="399.019" y1="143.645" x2="399.214" y2="162.577" gradientUnits="userSpaceOnUse">
<stop stop-color="#1C9BD6"/>
<stop offset="1" stop-color="#5156BD"/>
</linearGradient>
<linearGradient id="paint20_linear_2626_3254" x1="360.644" y1="144.042" x2="360.84" y2="162.974" gradientUnits="userSpaceOnUse">
<stop stop-color="#1C9BD6"/>
<stop offset="1" stop-color="#5156BD"/>
</linearGradient>
<linearGradient id="paint21_linear_2626_3254" x1="364.371" y1="215.476" x2="375.686" y2="190.259" gradientUnits="userSpaceOnUse">
<stop stop-color="#DE9C7D"/>
<stop offset="1" stop-color="#FFE0D1"/>
</linearGradient>
<linearGradient id="paint22_linear_2626_3254" x1="423.964" y1="339.392" x2="375.918" y2="93.1612" gradientUnits="userSpaceOnUse">
<stop stop-color="#EEA886"/>
<stop offset="0.7927" stop-color="#CF9174"/>
</linearGradient>
<linearGradient id="paint23_linear_2626_3254" x1="470.081" y1="285.919" x2="467.023" y2="241.454" gradientUnits="userSpaceOnUse">
<stop stop-color="#CF9174"/>
<stop offset="1" stop-color="#966A56"/>
</linearGradient>
<linearGradient id="paint24_linear_2626_3254" x1="446.507" y1="267.418" x2="447.131" y2="242.472" gradientUnits="userSpaceOnUse">
<stop stop-color="#CF9174"/>
<stop offset="1" stop-color="#966A56"/>
</linearGradient>
<linearGradient id="paint25_linear_2626_3254" x1="425.534" y1="267.568" x2="423.861" y2="236.978" gradientUnits="userSpaceOnUse">
<stop stop-color="#CF9174"/>
<stop offset="1" stop-color="#966A56"/>
</linearGradient>
<linearGradient id="paint26_linear_2626_3254" x1="379.56" y1="298.193" x2="329.778" y2="220.773" gradientUnits="userSpaceOnUse">
<stop stop-color="#E3A080"/>
<stop offset="1" stop-color="#AB6D52"/>
</linearGradient>
<linearGradient id="paint27_linear_2626_3254" x1="405.738" y1="192.93" x2="407.686" y2="175.489" gradientUnits="userSpaceOnUse">
<stop stop-color="#DE9C7D"/>
<stop offset="1" stop-color="#FFE0D1"/>
</linearGradient>
<linearGradient id="paint28_linear_2626_3254" x1="342.394" y1="286.044" x2="325.654" y2="264.923" gradientUnits="userSpaceOnUse">
<stop stop-color="#DE9C7D"/>
<stop offset="1" stop-color="#FFE0D1"/>
</linearGradient>
</defs>
</svg>
