<svg width="690" height="350" viewBox="0 0 690 350" fill="none" xmlns="http://www.w3.org/2000/svg">
<path d="M330.61 350H130.148C127.574 350 125.469 347.895 125.469 345.321V344.601C125.469 342.027 127.574 339.92 130.148 339.92H330.61C333.184 339.92 335.29 342.027 335.29 344.601V345.321C335.29 347.895 333.184 350 330.61 350Z" fill="#293E79"/>
<path d="M522.433 350H375.206C371.702 350 368.836 347.134 368.836 343.63V342.649C368.836 339.145 371.702 336.279 375.206 336.279H522.433C525.937 336.279 528.804 339.145 528.804 342.649V343.63C528.804 347.134 525.937 350 522.433 350Z" fill="#293E79"/>
<path d="M251.776 41.9495C251.295 51.3711 249.703 69.093 249.703 69.093L271.315 69.1406L269.74 39.6652L261.855 35.5846L251.776 41.9495Z" fill="#56548C"/>
<path d="M297.438 89.4505C295.548 91.8803 280.419 82.2063 274.304 77.6223C268.189 73.0408 264.19 68.3371 266.497 65.3716C268.806 62.4049 274.347 65.127 280.292 69.9312C286.236 74.7328 299.33 87.0221 297.438 89.4505Z" fill="#FFC8AF"/>
<path d="M273.419 65.1562C276.63 66.7348 280.29 69.9372 280.29 69.9372L275.329 76.9922L272.703 66.9949L273.419 65.1562Z" fill="#F08879"/>
<path d="M270.695 168.366C274.962 168.539 278.218 144.935 278.821 134.817C279.423 124.698 278.007 116.617 272.796 116.405C267.585 116.195 265.518 124.136 265.303 134.271C265.088 144.404 266.426 168.194 270.695 168.366Z" fill="#FFC8AF"/>
<path d="M268.649 218.906C272.434 219.059 274.834 185.473 275.137 177.957C275.44 170.44 275.182 162.484 270.938 162.313C266.694 162.14 265.792 170.051 265.488 177.567C265.186 185.083 264.865 218.752 268.649 218.906Z" fill="#FFC8AF"/>
<path d="M250.77 168.347C255.026 168.736 259.477 145.328 260.595 135.254C261.711 125.18 260.708 117.035 255.514 116.559C250.32 116.084 247.852 123.91 247.122 134.02C246.391 144.129 246.516 167.957 250.77 168.347Z" fill="#FFC8AF"/>
<path d="M246.793 218.74C250.566 219.086 254.031 185.635 254.717 178.145C255.404 170.654 255.551 162.695 251.321 162.307C247.089 161.92 245.788 169.774 245.103 177.265C244.415 184.755 243.021 218.393 246.793 218.74Z" fill="#FFC8AF"/>
<path d="M248.604 124.172H278.627C278.627 124.172 276.021 110.825 275.886 106.011C275.775 102.054 274.2 89.4802 274.2 89.4802C274.2 89.4802 277.818 84.0257 277.799 81.1697C277.768 76.8574 270.484 65.0806 270.484 65.0806L259.934 61.8396L252.772 63.5419C248.293 64.3969 248.156 68.6487 248.156 73.2108C248.156 86.9886 253.939 96.3395 253.409 104.231C253.069 109.298 248.604 124.172 248.604 124.172Z" fill="#FFC8AF"/>
<path d="M256.516 52.9876V63.742C256.516 63.742 258.441 64.8906 262.946 64.8906C265.376 64.8906 265.921 63.742 265.921 63.742V60.3723L256.516 52.9876Z" fill="#FFC8AF"/>
<path d="M256.327 47.3282C256.348 47.6604 256.358 47.9694 256.38 48.2695C256.38 48.3763 256.368 48.4832 256.368 48.6017C256.144 54.0394 256.723 58.2474 262.899 60.43C264.022 60.5677 267.952 61.4189 269.44 59.781C271.184 57.8547 272.562 52.8895 272.562 51.1564V51.0817C272.541 49.391 272.298 48.9249 272.298 47.9514C272.298 47.193 272.706 44.8134 272.713 43.7807C272.725 42.0926 272.075 40.0131 271.32 38.5349C269.905 35.7664 267.461 34.1131 263.681 34.1131C254.979 34.1131 256.081 41.4836 256.327 47.3282Z" fill="#FFC8AF"/>
<path d="M258.453 45.8346C257.727 47.7815 254.509 53.1484 254.509 53.1484C254.509 53.1484 251.403 46.5673 251.782 41.9446C252.332 35.245 256.724 36.1103 256.724 36.1103C259.872 31.8328 267.458 32.8307 271.049 37.4083C272.933 39.8084 273.931 43.155 273.457 44.744C273.239 45.4779 272.317 47.5807 272.317 47.5807L272.563 45.89C271.871 42.0837 265.34 42.4365 261.705 39.2934C261.705 39.2934 259.286 43.607 258.453 45.8346Z" fill="#56548C"/>
<path d="M256.432 47.6573C255.741 47.495 254.112 46.9285 254.411 49.3466C254.928 53.525 257.377 53.2623 257.377 53.2623C257.231 52.67 257.012 51.8344 256.832 50.8635C257.495 50.4656 256.898 49.993 256.867 49.5076C256.831 49.4265 256.8 49.2076 256.8 49.0994C256.726 48.614 256.468 48.1955 256.432 47.6573Z" fill="#FFC8AF"/>
<path d="M256.589 49.1605C256.589 49.1605 255.824 48.4189 255.246 48.7137C254.666 49.0112 255.078 50.349 255.535 51.1461C255.992 51.9418 256.501 52.0101 256.589 51.7899C256.677 51.5697 255.66 51.101 256.021 50.725C256.381 50.349 256.751 50.2834 256.717 50.0632C256.684 49.8443 256.589 49.1605 256.589 49.1605Z" fill="#E5A288"/>
<path d="M258.448 45.2036C258.232 46.7784 256.959 50.125 256.959 50.125L256.18 47.1364L258.448 45.2036Z" fill="#56548C"/>
<path d="M264.839 60.6976C263.078 60.4568 260.016 59.4202 258.562 57.7747C258.562 57.7747 258.892 59.3649 260.454 60.1902C262.015 61.0156 264.839 60.6976 264.839 60.6976Z" fill="#E5A288"/>
<path d="M266.023 217.362L265.836 221.263C265.836 221.814 266.288 222.266 266.847 222.266H277.35C278.305 222.266 279.609 220.517 278.794 220.021C277.029 218.953 273.895 217.4 272.103 216.585C271.936 216.509 270.415 184.608 268.83 184.59C267.389 184.575 266.023 217.362 266.023 217.362Z" fill="#FFC8AF"/>
<path d="M244.422 217.127V217.612V220.806C244.422 221.146 246.19 222.605 246.93 222.915C249.576 224.042 253.675 223.351 253.877 222.436C254.078 221.52 251.308 218.241 251.308 218.232C250.574 217.316 250.17 216.487 250.17 216.487C250.17 216.487 248.741 184.541 247.239 184.587C245.603 184.641 244.422 217.127 244.422 217.127Z" fill="#FFC8AF"/>
<path d="M279.046 222.25H266.139C265.972 222.25 265.836 222.116 265.836 221.949V219.918C268.429 219.94 274.36 220.022 274.709 219.944C275.088 219.86 276.271 218.553 276.464 218.221C277.483 218.769 278.962 219.64 279.731 220.209C280.608 220.864 280.143 222.25 279.046 222.25Z" fill="#F08879"/>
<path d="M246.93 222.915C246.19 222.605 244.422 221.146 244.422 220.806V219.132L246.93 220.636C248.708 218.752 252.006 218.216 252.825 219.858C253.497 220.872 254.001 221.866 253.877 222.436C253.674 223.351 249.576 224.042 246.93 222.915Z" fill="#F08879"/>
<path d="M279.874 166.438C279.874 166.438 279.407 136.068 278.956 126.103C278.535 116.81 275.172 87.9235 275.172 87.9235C276.784 85.8285 278.155 82.6209 278.155 80.526C278.155 79.4752 276.709 75.7565 275.129 72.2078C274.666 71.1493 275.286 67.0211 273.428 65.1644C271.99 63.7261 265.921 63.757 265.921 63.757C269.428 64.7652 270.259 69.6222 269.746 69.9982C269.231 70.3742 262.47 70.266 261.22 69.9982C259.968 69.7303 257.689 63.6604 254.39 63.1634C254.39 63.1634 252.158 62.8672 249.707 64.3995C247.258 65.9292 246.272 70.239 246.272 70.239C246.272 70.239 255.307 70.0008 254.738 75.3162C254.725 75.4462 254.71 75.5775 254.69 75.714C253.98 81.1157 250.2 90.679 250.2 90.679C250.2 90.679 252.547 96.4644 251.729 102.761C250.714 110.541 239.859 166.438 239.859 166.438H279.874Z" fill="#F08879"/>
<path d="M279.874 166.438C279.874 166.438 279.407 136.068 278.956 126.103C278.535 116.81 275.172 87.9235 275.172 87.9235C276.784 85.8285 278.155 82.6209 278.155 80.526C278.155 79.4752 276.709 75.7565 275.129 72.2078C274.666 71.1493 275.286 67.0211 273.428 65.1644C271.99 63.7261 265.921 63.757 265.921 63.757C269.428 64.7652 270.259 69.6222 269.746 69.9982C269.231 70.3742 262.47 70.266 261.22 69.9982C259.968 69.7303 257.689 63.6604 254.39 63.1634C254.39 63.1634 252.158 62.8672 249.707 64.3995C247.258 65.9292 246.272 70.239 246.272 70.239C246.272 70.239 255.307 70.0008 254.738 75.3162C254.725 75.4462 254.71 75.5775 254.69 75.714C253.98 81.1157 250.2 90.679 250.2 90.679C250.2 90.679 252.547 96.4644 251.729 102.761C250.714 110.541 239.859 166.438 239.859 166.438H279.874Z" fill="#F08879"/>
<path d="M507.35 126.349C502.765 142.589 487.96 153.19 471.892 153.194C468.573 153.192 465.198 152.742 461.831 151.789C445.59 147.204 434.99 132.398 434.986 116.331C434.987 113.011 435.438 109.637 436.391 106.269C440.975 90.0283 455.78 79.4285 471.849 79.4259C475.168 79.4259 478.543 79.8766 481.91 80.8281C498.15 85.4134 508.751 100.219 508.754 116.287C508.754 119.608 508.302 122.983 507.35 126.349ZM456.758 169.719L457.182 168.217L456.758 169.719ZM532.719 112.656C532.165 103.419 529.511 94.5467 525.101 86.6367L532.647 82.4312C528.864 75.6428 523.951 69.4866 518.071 64.26L512.325 70.7253C505.685 64.8253 497.68 60.2593 488.569 57.6596L490.923 49.3852L490.816 49.3556C484.496 47.567 478.114 46.7107 471.837 46.7107C470.471 46.7107 469.111 46.7519 467.757 46.8318L468.266 55.4564C459.029 56.0037 450.153 58.6511 442.242 63.0535L438.042 55.5028C431.251 59.282 425.089 64.1905 419.859 70.066L426.319 75.8179C420.414 82.4518 415.844 90.4545 413.236 99.5633L404.963 97.2018L404.917 97.364C403.13 103.683 402.272 110.065 402.273 116.341C402.272 117.688 402.312 119.03 402.389 120.367L411.018 119.863C411.555 129.102 414.194 137.979 418.59 145.895L411.038 150.089C414.811 156.883 419.715 163.048 425.585 168.282L431.343 161.827C437.973 167.738 445.972 172.313 455.078 174.927L452.708 183.2L452.924 183.261C459.245 185.051 465.627 185.908 471.904 185.906C473.306 185.906 474.705 185.864 476.098 185.779L475.573 177.155C484.809 176.595 493.679 173.931 501.584 169.515L505.797 177.059C512.581 173.269 518.736 168.352 523.956 162.467L517.487 156.727C523.382 150.083 527.944 142.075 530.536 132.96L538.809 135.308L538.823 135.254C540.613 128.936 541.469 122.553 541.468 116.277C541.468 114.891 541.427 113.511 541.344 112.138L532.719 112.656Z" fill="#FBD15B"/>
<path d="M473.198 128.06V304.28C473.198 313.733 465.543 321.391 456.091 321.391H204.484C195.033 321.391 187.375 313.733 187.375 304.28V128.06C187.375 118.607 195.033 110.952 204.484 110.952H456.091C465.543 110.952 473.198 118.607 473.198 128.06Z" fill="#F9FBFC"/>
<path d="M204.482 112.241C195.759 112.241 188.661 119.339 188.661 128.061V304.283C188.661 313.007 195.759 320.104 204.482 320.104H456.088C464.812 320.104 471.909 313.007 471.909 304.283V128.061C471.909 119.339 464.812 112.241 456.088 112.241H204.482ZM456.088 322.68H204.482C194.338 322.68 186.086 314.427 186.086 304.283V128.061C186.086 117.919 194.338 109.666 204.482 109.666H456.088C466.231 109.666 474.484 117.919 474.484 128.061V304.283C474.484 314.427 466.231 322.68 456.088 322.68Z" fill="#56548C"/>
<path d="M334.583 249.164H333.18V174.664H334.583V249.164Z" fill="#F9FBFC"/>
<path d="M315.553 249.164H314.148V174.664H315.553V249.164Z" fill="#F9FBFC"/>
<path d="M296.53 249.164H295.125V174.664H296.53V249.164Z" fill="#F9FBFC"/>
<path d="M277.514 249.164H276.109V174.664H277.514V249.164Z" fill="#F9FBFC"/>
<path d="M258.491 249.164H257.086V174.664H258.491V249.164Z" fill="#F9FBFC"/>
<path d="M220.435 249.164H219.031V174.664H220.435V249.164Z" fill="#F9FBFC"/>
<path d="M239.467 249.164H238.062V174.664H239.467V249.164Z" fill="#F9FBFC"/>
<path d="M354.55 262.672H230.25V153.592H354.55V262.672Z" fill="#EC827D"/>
<path d="M299.631 203.461H292.047V195.877H299.631V203.461Z" fill="#EC827D"/>
<path d="M318.653 193.859H311.07V186.275H318.653V193.859Z" fill="#EC827D"/>
<path d="M337.669 183.438H330.086V175.855H337.669V183.438Z" fill="#EC827D"/>
<path d="M463.163 172.391H368.82V166.775H463.163V172.391Z" fill="#C7D7E2"/>
<path d="M463.163 186.648H368.82V181.033H463.163V186.648Z" fill="#C7D7E2"/>
<path d="M463.163 229.406H368.82V223.791H463.163V229.406Z" fill="#C7D7E2"/>
<path d="M463.163 200.898H368.82V195.282H463.163V200.898Z" fill="#C7D7E2"/>
<path d="M463.169 278.281H203.039V272.666H463.169V278.281Z" fill="#C7D7E2"/>
<path d="M463.169 292.523H203.039V286.908H463.169V292.523Z" fill="#C7D7E2"/>
<path d="M463.163 215.156H368.82V209.541H463.163V215.156Z" fill="#C7D7E2"/>
<path d="M463.163 243.664H368.82V238.047H463.163V243.664Z" fill="#C7D7E2"/>
<path d="M425.35 257.914H368.828V252.299H425.35V257.914Z" fill="#C7D7E2"/>
<path d="M473.198 128.06V143.266H187.375V128.06C187.375 118.607 195.033 110.952 204.484 110.952H456.091C465.543 110.952 473.198 118.607 473.198 128.06Z" fill="#56548C"/>
<path d="M460.989 127.111C460.989 130.911 457.908 133.992 454.106 133.992C450.307 133.992 447.227 130.911 447.227 127.111C447.227 123.31 450.307 120.229 454.106 120.229C457.908 120.229 460.989 123.31 460.989 127.111Z" fill="#F9FBFC"/>
<path d="M432.725 127.111C432.725 130.911 429.642 133.992 425.842 133.992C422.041 133.992 418.961 130.911 418.961 127.111C418.961 123.31 422.041 120.229 425.842 120.229C429.642 120.229 432.725 123.31 432.725 127.111Z" fill="#EDBA3A"/>
<path d="M404.459 127.111C404.459 130.911 401.378 133.992 397.576 133.992C393.777 133.992 390.695 130.911 390.695 127.111C390.695 123.31 393.777 120.229 397.576 120.229C401.378 120.229 404.459 123.31 404.459 127.111Z" fill="#EC827D"/>
<path d="M570.647 244.641H501.677C500.087 244.641 498.797 243.35 498.797 241.76V200.919C498.797 199.328 500.087 198.038 501.677 198.038H570.647C572.238 198.038 573.528 199.328 573.528 200.919V241.76C573.528 243.35 572.238 244.641 570.647 244.641Z" fill="#56548C"/>
<path d="M570.647 240.562H501.677C500.087 240.562 498.797 239.272 498.797 237.681V196.84C498.797 195.249 500.087 193.96 501.677 193.96H570.647C572.238 193.96 573.528 195.249 573.528 196.84V237.681C573.528 239.272 572.238 240.562 570.647 240.562Z" fill="#F9FBFC"/>
<path d="M501.679 194.273C500.268 194.273 499.12 195.421 499.12 196.831V237.671C499.12 239.084 500.268 240.231 501.679 240.231H570.649C572.059 240.231 573.208 239.084 573.208 237.671V196.831C573.208 195.421 572.059 194.273 570.649 194.273H501.679ZM570.649 240.875H501.679C499.914 240.875 498.477 239.438 498.477 237.671V196.831C498.477 195.066 499.914 193.629 501.679 193.629H570.649C572.414 193.629 573.851 195.066 573.851 196.831V237.671C573.851 239.438 572.414 240.875 570.649 240.875Z" fill="#56548C"/>
<path d="M557.508 233.695H563.15V200.81H557.508V233.695Z" fill="#C7D7E2"/>
<path d="M545.422 233.695H551.063V200.81H545.422V233.695Z" fill="#C7D7E2"/>
<path d="M533.344 233.695H538.985V200.81H533.344V233.695Z" fill="#C7D7E2"/>
<path d="M521.266 233.695H526.907V200.81H521.266V233.695Z" fill="#C7D7E2"/>
<path d="M509.172 233.695H514.813V200.81H509.172V233.695Z" fill="#C7D7E2"/>
<path d="M557.508 233.695H563.15V225.483H557.508V233.695Z" fill="#606BF1"/>
<path d="M545.422 233.695H551.063V214.53H545.422V233.695Z" fill="#606BF1"/>
<path d="M533.344 233.695H538.985V219.713H533.344V233.695Z" fill="#606BF1"/>
<path d="M521.266 233.695H526.907V209.97H521.266V233.695Z" fill="#606BF1"/>
<path d="M509.172 233.695H514.813V205.728H509.172V233.695Z" fill="#606BF1"/>
<path d="M114.703 229.852H200.727C202.711 229.852 204.319 228.243 204.319 226.259V175.319C204.319 173.334 202.711 171.725 200.727 171.725H114.703C112.719 171.725 111.109 173.334 111.109 175.319V226.259C111.109 228.243 112.719 229.852 114.703 229.852Z" fill="#56548C"/>
<path d="M114.703 225.031H200.727C202.711 225.031 204.319 223.422 204.319 221.437V170.497C204.319 168.513 202.711 166.903 200.727 166.903H114.703C112.719 166.903 111.109 168.513 111.109 170.497V221.437C111.109 223.422 112.719 225.031 114.703 225.031Z" fill="#F9FBFC"/>
<path d="M114.705 167.239C112.901 167.239 111.433 168.707 111.433 170.511V221.451C111.433 223.255 112.901 224.723 114.705 224.723H200.728C202.531 224.723 203.999 223.255 203.999 221.451V170.511C203.999 168.707 202.531 167.239 200.728 167.239H114.705ZM200.728 225.367H114.705C112.545 225.367 110.789 223.61 110.789 221.451V170.511C110.789 168.352 112.545 166.595 114.705 166.595H200.728C202.886 166.595 204.643 168.352 204.643 170.511V221.451C204.643 223.61 202.886 225.367 200.728 225.367Z" fill="#56548C"/>
<path d="M118.734 177.359H142.887V174.982H118.734V177.359Z" fill="#C7D7E2"/>
<path d="M118.734 182.852H142.887V180.473H118.734V182.852Z" fill="#C7D7E2"/>
<path d="M118.734 188.344H142.887V185.965H118.734V188.344Z" fill="#C7D7E2"/>
<path d="M118.734 193.82H142.887V191.442H118.734V193.82Z" fill="#C7D7E2"/>
<path d="M118.734 199.312H142.887V196.934H118.734V199.312Z" fill="#C7D7E2"/>
<path d="M118.734 204.805H142.887V202.426H118.734V204.805Z" fill="#C7D7E2"/>
<path d="M118.734 215.773H135.554V213.396H118.734V215.773Z" fill="#C7D7E2"/>
<path d="M118.734 210.289H142.887V207.911H118.734V210.289Z" fill="#C7D7E2"/>
<path d="M146.602 215.773H194.403V174.859H146.602V215.773Z" fill="#C7D7E2"/>
<path d="M154.549 180.033C154.549 181.231 153.578 182.203 152.379 182.203C151.182 182.203 150.211 181.231 150.211 180.033C150.211 178.835 151.182 177.862 152.379 177.862C153.578 177.862 154.549 178.835 154.549 180.033Z" fill="#EC827D"/>
<path d="M161.8 180.033C161.8 181.231 160.828 182.203 159.631 182.203C158.433 182.203 157.461 181.231 157.461 180.033C157.461 178.835 158.433 177.862 159.631 177.862C160.828 177.862 161.8 178.835 161.8 180.033Z" fill="#EC827D"/>
<path d="M169.042 180.033C169.042 181.231 168.07 182.203 166.872 182.203C165.675 182.203 164.703 181.231 164.703 180.033C164.703 178.835 165.675 177.862 166.872 177.862C168.07 177.862 169.042 178.835 169.042 180.033Z" fill="#EC827D"/>
<path d="M176.299 180.033C176.299 181.231 175.328 182.203 174.129 182.203C172.932 182.203 171.961 181.231 171.961 180.033C171.961 178.835 172.932 177.862 174.129 177.862C175.328 177.862 176.299 178.835 176.299 180.033Z" fill="#F9FBFC"/>
<path d="M183.535 180.033C183.535 181.231 182.563 182.203 181.365 182.203C180.167 182.203 179.195 181.231 179.195 180.033C179.195 178.835 180.167 177.862 181.365 177.862C182.563 177.862 183.535 178.835 183.535 180.033Z" fill="#F9FBFC"/>
<path d="M190.783 180.033C190.783 181.231 189.812 182.203 188.614 182.203C187.417 182.203 186.445 181.231 186.445 180.033C186.445 178.835 187.417 177.862 188.614 177.862C189.812 177.862 190.783 178.835 190.783 180.033Z" fill="#F9FBFC"/>
<path d="M154.549 187.673C154.549 188.872 153.578 189.844 152.379 189.844C151.182 189.844 150.211 188.872 150.211 187.673C150.211 186.475 151.182 185.503 152.379 185.503C153.578 185.503 154.549 186.475 154.549 187.673Z" fill="#FBD15B"/>
<path d="M161.8 187.673C161.8 188.872 160.828 189.844 159.631 189.844C158.433 189.844 157.461 188.872 157.461 187.673C157.461 186.475 158.433 185.503 159.631 185.503C160.828 185.503 161.8 186.475 161.8 187.673Z" fill="#FBD15B"/>
<path d="M169.042 187.673C169.042 188.872 168.07 189.844 166.872 189.844C165.675 189.844 164.703 188.872 164.703 187.673C164.703 186.475 165.675 185.503 166.872 185.503C168.07 185.503 169.042 186.475 169.042 187.673Z" fill="#FBD15B"/>
<path d="M176.299 187.673C176.299 188.872 175.328 189.844 174.129 189.844C172.932 189.844 171.961 188.872 171.961 187.673C171.961 186.475 172.932 185.503 174.129 185.503C175.328 185.503 176.299 186.475 176.299 187.673Z" fill="#FBD15B"/>
<path d="M183.535 187.673C183.535 188.872 182.563 189.844 181.365 189.844C180.167 189.844 179.195 188.872 179.195 187.673C179.195 186.475 180.167 185.503 181.365 185.503C182.563 185.503 183.535 186.475 183.535 187.673Z" fill="#F9FBFC"/>
<path d="M190.783 187.673C190.783 188.872 189.812 189.844 188.614 189.844C187.417 189.844 186.445 188.872 186.445 187.673C186.445 186.475 187.417 185.503 188.614 185.503C189.812 185.503 190.783 186.475 190.783 187.673Z" fill="#F9FBFC"/>
<path d="M154.549 195.315C154.549 196.514 153.578 197.484 152.379 197.484C151.182 197.484 150.211 196.514 150.211 195.315C150.211 194.116 151.182 193.145 152.379 193.145C153.578 193.145 154.549 194.116 154.549 195.315Z" fill="#878CF0"/>
<path d="M161.8 195.315C161.8 196.514 160.828 197.484 159.631 197.484C158.433 197.484 157.461 196.514 157.461 195.315C157.461 194.116 158.433 193.145 159.631 193.145C160.828 193.145 161.8 194.116 161.8 195.315Z" fill="#878CF0"/>
<path d="M169.042 195.315C169.042 196.514 168.07 197.484 166.872 197.484C165.675 197.484 164.703 196.514 164.703 195.315C164.703 194.116 165.675 193.145 166.872 193.145C168.07 193.145 169.042 194.116 169.042 195.315Z" fill="#878CF0"/>
<path d="M176.299 195.315C176.299 196.514 175.328 197.484 174.129 197.484C172.932 197.484 171.961 196.514 171.961 195.315C171.961 194.116 172.932 193.145 174.129 193.145C175.328 193.145 176.299 194.116 176.299 195.315Z" fill="#878CF0"/>
<path d="M183.535 195.315C183.535 196.514 182.563 197.484 181.365 197.484C180.167 197.484 179.195 196.514 179.195 195.315C179.195 194.116 180.167 193.145 181.365 193.145C182.563 193.145 183.535 194.116 183.535 195.315Z" fill="#878CF0"/>
<path d="M190.783 195.315C190.783 196.514 189.812 197.484 188.614 197.484C187.417 197.484 186.445 196.514 186.445 195.315C186.445 194.116 187.417 193.145 188.614 193.145C189.812 193.145 190.783 194.116 190.783 195.315Z" fill="#F9FBFC"/>
<path d="M154.549 202.963C154.549 204.162 153.578 205.133 152.379 205.133C151.182 205.133 150.211 204.162 150.211 202.963C150.211 201.764 151.182 200.793 152.379 200.793C153.578 200.793 154.549 201.764 154.549 202.963Z" fill="#56548C"/>
<path d="M161.8 202.963C161.8 204.162 160.828 205.133 159.631 205.133C158.433 205.133 157.461 204.162 157.461 202.963C157.461 201.764 158.433 200.793 159.631 200.793C160.828 200.793 161.8 201.764 161.8 202.963Z" fill="#56548C"/>
<path d="M169.042 202.963C169.042 204.162 168.07 205.133 166.872 205.133C165.675 205.133 164.703 204.162 164.703 202.963C164.703 201.764 165.675 200.793 166.872 200.793C168.07 200.793 169.042 201.764 169.042 202.963Z" fill="#56548C"/>
<path d="M176.299 202.963C176.299 204.162 175.328 205.133 174.129 205.133C172.932 205.133 171.961 204.162 171.961 202.963C171.961 201.764 172.932 200.793 174.129 200.793C175.328 200.793 176.299 201.764 176.299 202.963Z" fill="#56548C"/>
<path d="M183.535 202.963C183.535 204.162 182.563 205.133 181.365 205.133C180.167 205.133 179.195 204.162 179.195 202.963C179.195 201.764 180.167 200.793 181.365 200.793C182.563 200.793 183.535 201.764 183.535 202.963Z" fill="#F9FBFC"/>
<path d="M190.783 202.963C190.783 204.162 189.812 205.133 188.614 205.133C187.417 205.133 186.445 204.162 186.445 202.963C186.445 201.764 187.417 200.793 188.614 200.793C189.812 200.793 190.783 201.764 190.783 202.963Z" fill="#F9FBFC"/>
<path d="M154.549 210.588C154.549 211.787 153.578 212.758 152.379 212.758C151.182 212.758 150.211 211.787 150.211 210.588C150.211 209.389 151.182 208.418 152.379 208.418C153.578 208.418 154.549 209.389 154.549 210.588Z" fill="#BEE1F4"/>
<path d="M161.8 210.588C161.8 211.787 160.828 212.758 159.631 212.758C158.433 212.758 157.461 211.787 157.461 210.588C157.461 209.389 158.433 208.418 159.631 208.418C160.828 208.418 161.8 209.389 161.8 210.588Z" fill="#BEE1F4"/>
<path d="M169.042 210.588C169.042 211.787 168.07 212.758 166.872 212.758C165.675 212.758 164.703 211.787 164.703 210.588C164.703 209.389 165.675 208.418 166.872 208.418C168.07 208.418 169.042 209.389 169.042 210.588Z" fill="#BEE1F4"/>
<path d="M176.299 210.588C176.299 211.787 175.328 212.758 174.129 212.758C172.932 212.758 171.961 211.787 171.961 210.588C171.961 209.389 172.932 208.418 174.129 208.418C175.328 208.418 176.299 209.389 176.299 210.588Z" fill="#F9FBFC"/>
<path d="M183.535 210.588C183.535 211.787 182.563 212.758 181.365 212.758C180.167 212.758 179.195 211.787 179.195 210.588C179.195 209.389 180.167 208.418 181.365 208.418C182.563 208.418 183.535 209.389 183.535 210.588Z" fill="#F9FBFC"/>
<path d="M190.783 210.588C190.783 211.787 189.812 212.758 188.614 212.758C187.417 212.758 186.445 211.787 186.445 210.588C186.445 209.389 187.417 208.418 188.614 208.418C189.812 208.418 190.783 209.389 190.783 210.588Z" fill="#F9FBFC"/>
<path d="M207.22 221.904C210.259 221.121 207.341 203.045 205.533 195.466C203.725 187.886 200.946 182.237 197.237 183.195C193.526 184.151 193.826 190.439 195.909 197.949C197.993 205.456 204.181 222.687 207.22 221.904Z" fill="#FFC8AF"/>
<path d="M225.083 225.047C225.749 223.038 212.369 218 208.538 216.734C204.71 215.467 203.943 214.93 203.197 217.184C202.453 219.436 203.015 220.589 206.845 221.855C210.674 223.123 224.419 227.058 225.083 225.047Z" fill="#FFC8AF"/>
<path d="M189.976 338.706L189.789 342.605C189.789 343.157 190.241 343.609 190.8 343.609H201.303C202.259 343.609 202.664 342.4 201.901 341.83C200.313 340.654 198.096 339.267 196.044 338.894C195.863 338.859 194.368 305.951 192.783 305.934C191.342 305.919 189.976 338.706 189.976 338.706Z" fill="#FFC8AF"/>
<path d="M167.047 338.471V338.955V342.149C167.047 342.488 167.834 343.925 168.575 344.237C171.22 345.363 176.301 344.694 176.502 343.778C176.703 342.864 175.284 340.859 174.15 339.431C174.15 339.431 174.141 339.431 174.141 339.422C173.408 338.507 172.795 337.829 172.795 337.829C172.795 337.829 171.366 305.883 169.866 305.931C168.228 305.985 167.047 338.471 167.047 338.471Z" fill="#FFC8AF"/>
<path d="M192.571 288.32C196.964 288.32 199.327 263.935 199.527 253.514C199.726 243.093 197.934 234.848 192.571 234.848C187.209 234.848 185.417 243.093 185.616 253.514C185.815 263.935 188.179 288.32 192.571 288.32Z" fill="#FFC8AF"/>
<path d="M192.565 340.125C196.461 340.125 197.529 305.717 197.529 297.982C197.529 290.248 196.933 282.083 192.565 282.083C188.198 282.083 187.602 290.248 187.602 297.982C187.602 305.717 188.672 340.125 192.565 340.125Z" fill="#FFC8AF"/>
<path d="M173.719 288.292C178.093 288.692 182.672 264.622 183.82 254.263C184.969 243.904 183.937 235.531 178.596 235.043C173.256 234.553 170.72 242.6 169.968 252.995C169.216 263.39 169.346 287.89 173.719 288.292Z" fill="#FFC8AF"/>
<path d="M169.638 339.919C173.518 340.273 177.081 306.079 177.787 298.376C178.492 290.673 178.641 282.488 174.292 282.09C169.943 281.69 168.604 289.768 167.897 297.469C167.193 305.173 165.759 339.564 169.638 339.919Z" fill="#FFC8AF"/>
<path d="M170.311 242.867H199.301L200.494 196.243L198.338 183.09L184.287 178.773L176.181 180.32C171.573 181.198 168.294 185.307 168.459 189.995L171.413 222.992L170.311 242.867Z" fill="#FFC8AF"/>
<path d="M162.096 219.953C165.112 220.915 172.325 203.919 174.852 196.479C177.378 189.037 178.04 182.723 174.357 181.548C170.677 180.373 167.556 185.903 165.304 193.429C163.051 200.958 159.081 218.99 162.096 219.953Z" fill="#FFC8AF"/>
<path d="M181.25 172.535V181.903C181.25 181.903 183.229 183.086 187.863 183.086C190.36 183.086 190.922 181.903 190.922 181.903V178.44L181.25 172.535Z" fill="#FFC8AF"/>
<path d="M180.16 165.547C180.182 165.887 180.192 166.203 180.214 166.51C180.214 166.619 180.203 166.729 180.203 166.85C179.973 172.411 183.543 178.366 188.917 179.176C188.917 179.176 188.961 179.188 189.038 179.198C189.082 179.198 189.147 179.209 189.224 179.209C190.374 179.351 194.533 179.69 196.056 178.016C197.839 176.045 199.427 172.434 199.427 169.966C199.427 167.497 198.978 166.914 198.978 165.916C198.978 165.141 199.395 162.707 199.403 161.652C199.44 156.689 196.099 151.764 190.166 151.764C181.265 151.764 179.908 159.569 180.16 165.547Z" fill="#FFC8AF"/>
<path d="M182.774 165.623C182.068 165.457 180.403 164.879 180.709 167.351C181.237 171.625 183.741 171.356 183.741 171.356C183.593 170.75 183.369 169.896 183.183 168.904C183.864 168.496 182.993 167.967 182.961 167.471C182.923 167.387 182.923 167.277 182.923 167.166C182.849 166.67 182.812 166.176 182.774 165.623Z" fill="#FFC8AF"/>
<path d="M182.915 167.16C182.915 167.16 182.133 166.402 181.541 166.704C180.949 167.008 181.37 168.377 181.837 169.191C182.305 170.006 182.825 170.075 182.915 169.85C183.006 169.624 181.966 169.145 182.334 168.76C182.702 168.377 183.081 168.31 183.046 168.084C183.011 167.86 182.915 167.16 182.915 167.16Z" fill="#E5A288"/>
<path d="M192.215 179.304C189.52 179.432 185.928 176.797 184.936 175.6C183.945 174.401 183.428 171.335 183.428 171.335C183.428 171.335 182.636 171.444 182.023 170.622C182.023 170.622 182.097 171.962 182.622 172.418C183.146 172.874 183.489 172.972 183.603 173.299C183.715 173.627 184.332 177.845 186.566 179.033C188.803 180.218 192.215 179.304 192.215 179.304Z" fill="#E5A288"/>
<path d="M189.789 339.418V343.076C189.789 343.443 190.087 343.742 190.456 343.742H202.223C203.255 343.742 203.693 342.438 202.868 341.821C201.154 340.551 198.415 339.272 196.388 338.294C195.908 338.718 195.18 340.029 194.334 340.186C193.496 340.344 189.789 339.418 189.789 339.418Z" fill="#141B56"/>
<path d="M167.047 338.955V342.149C167.047 342.488 167.834 343.925 168.575 344.237C171.22 345.363 176.301 344.694 176.502 343.778C176.703 342.864 175.284 340.859 174.15 339.431C174.15 339.431 174.141 339.431 174.141 339.422C173.591 338.955 170.799 339.211 170.333 339.44C169.858 339.669 168.767 340.338 168.538 340.3C168.301 340.264 167.047 338.955 167.047 338.955Z" fill="#141B56"/>
<path d="M184.903 248.406V250.649L174.186 336.281H165.883L169.608 248.406H184.903Z" fill="#141B56"/>
<path d="M200.026 248.406L196.549 336.281H188.366L184.906 250.649V248.406H200.026Z" fill="#141B56"/>
<path d="M205.134 192.434C206.854 198.073 207.879 204.416 207.879 204.416C207.879 204.416 206.7 206.401 201.536 207.344H201.491C201.556 201.01 201.565 195.966 201.463 194.21C201.106 187.921 198.727 182.888 198.727 182.888C201.326 183.839 203.412 186.796 205.134 192.434Z" fill="#4E5FDD"/>
<path d="M173.47 180.746C177.203 181.131 179.154 184.554 177.9 189.854C176.445 195.985 171.53 207.344 171.53 207.344C171.218 207.288 170.917 207.224 170.623 207.161C163.154 205.613 162.102 203.235 162.102 203.235C164.198 194.129 167.749 184.215 170.652 182.083C171.419 181.515 172.418 181.085 173.47 180.746Z" fill="#4E5FDD"/>
<path d="M190.927 180.75L198.726 182.891C198.726 182.891 201.104 187.924 201.462 194.213C201.563 195.97 201.554 201.013 201.489 207.347C201.314 223.602 200.785 248.406 200.785 248.406H200.033H184.914H169.619H168.969C168.969 248.406 170.379 229.936 170.626 224.289C170.864 218.651 169.619 209.361 169.619 209.361L170.626 207.164C170.92 207.227 171.221 207.292 171.532 207.347C171.532 207.347 176.447 195.989 177.904 189.857C179.157 184.557 177.207 181.135 173.473 180.75C176.392 179.815 179.724 179.65 179.724 179.65C179.724 179.65 181.08 183.92 187.131 183.987C193.182 184.051 190.927 180.75 190.927 180.75Z" fill="#606BF1"/>
<g opacity="0.199997">
<g opacity="0.199997">
<path opacity="0.199997" d="M153.266 270.021L155.137 272.615L155.151 272.617L279.601 182.831L277.839 180.388L277.725 180.457L153.266 270.021Z" fill="#FBD15B"/>
</g>
</g>
<path d="M225.082 225.548C226.557 224.85 227.374 223.198 227.523 220.692C227.675 218.185 227.147 217.366 226.302 217.566C225.458 217.765 222.545 219.99 222.602 221.004C222.658 222.018 222.712 223.09 222.6 223.428C222.488 223.766 221.664 224.111 221.53 224.61C221.398 225.111 223.222 226.429 225.082 225.548Z" fill="#FFC8AF"/>
<path d="M181.262 172.756C180.794 173.056 180.235 173.092 179.895 172.843C179.419 172.494 179.32 171.539 179.984 170.863C179.853 170.841 178.758 170.639 178.268 169.673C177.798 168.747 178.08 167.503 179.016 166.724C178.662 166.562 178.084 166.227 177.695 165.581C177.043 164.494 177.203 162.988 178.091 161.75C177.99 161.667 177.566 161.293 177.52 160.694C177.47 160.054 177.87 159.417 178.532 159.109C178.397 158.975 177.736 158.288 177.784 157.305C177.835 156.26 178.666 155.309 179.852 155.016C179.419 154.142 179.436 153.132 179.941 152.419C180.655 151.409 182.275 151.096 183.595 151.935C183.597 151.092 184.082 150.333 184.827 149.997C185.848 149.538 186.789 150.133 186.853 150.173C187.042 149.791 187.278 149.563 187.468 149.425C188.399 148.752 189.962 148.985 191.385 149.997C191.769 149.491 192.172 149.268 192.442 149.161C193.718 148.656 195.469 149.381 196.756 151.01C197.552 150.476 198.593 150.517 199.309 151.099C199.948 151.615 200.225 152.479 200.014 153.299C200.739 153.387 201.336 153.915 201.511 154.619C201.689 155.34 201.388 156.103 200.763 156.513C200.892 157.259 200.571 157.998 199.97 158.361C199.241 158.803 198.222 158.617 197.637 157.877C197.606 157.935 197.331 158.445 196.756 158.538C196.259 158.617 195.744 158.355 195.48 157.877C195.325 158.118 194.81 158.848 193.896 159.066C192.733 159.342 191.398 158.683 190.681 157.393C190.61 157.573 190.343 158.18 189.669 158.538C188.734 159.035 187.804 158.633 187.688 158.581C187.777 158.822 187.942 159.376 187.777 160.034C187.478 161.213 186.374 161.694 186.235 161.75C186.626 162.461 186.549 163.311 186.059 163.865C185.516 164.476 184.714 164.443 184.607 164.436C184.607 164.436 184.353 168.263 183.924 168.297C183.494 168.331 182.54 165.594 182.54 165.594C182.54 165.594 181.161 165.169 180.776 166.057C180.391 166.945 180.747 168.621 181.247 169.471C181.75 170.321 182.021 170.626 182.021 170.626L181.262 172.756Z" fill="#56548C"/>
<path d="M166.312 252.076C169.109 251.844 168.172 231.198 167.69 225.386C167.21 219.575 166.274 213.475 163.137 213.735C160.002 213.995 160.08 220.166 160.56 225.977C161.042 231.788 163.514 252.308 166.312 252.076Z" fill="#FFC8AF"/>
<path d="M166.005 246.727C162.689 246.755 163.404 252.598 163.72 254.581C164.234 257.812 167.913 260.65 169.171 260.468C170.428 260.285 168.711 253.058 168.961 252.771C169.212 252.484 169.756 256.447 170.918 256.151C172.081 255.856 171.187 251.074 170.108 249.316C169.027 247.557 168.083 246.709 166.005 246.727Z" fill="#FFC8AF"/>
<path d="M231.212 96.6358C233.717 98.4256 245.457 84.8384 250.012 78.7015C254.566 72.5659 257.058 66.9158 254 64.7319C250.941 62.5468 246.406 66.7368 242.079 73.0359C237.752 79.3338 228.708 94.8473 231.212 96.6358Z" fill="#FFC8AF"/>
<path d="M226.975 128.898C229.664 129.372 233.886 109.72 234.871 104.136C235.855 98.5507 236.481 92.5824 233.467 92.0506C230.453 91.5201 229.002 97.3429 228.019 102.929C227.034 108.513 224.288 128.425 226.975 128.898Z" fill="#FFC8AF"/>
<path d="M231.222 127.248C230.641 125.327 229.963 124.297 228.003 123.8C224.878 123.007 223.736 129.454 223.534 131.398C223.355 133.13 225.596 136.913 226.823 137.052C228.049 137.194 228.764 130.6 229.131 130.545C229.448 130.496 229.556 130.831 229.602 131.289H231.414C231.572 129.869 231.514 128.209 231.222 127.248Z" fill="#FFC8AF"/>
<path d="M252.443 63.2935C248.803 64.0442 245.603 68.0603 241.648 71.9516C241.648 71.9516 244.131 75.5982 250.012 78.7014L248.387 80.817C248.387 80.817 248.906 85.8607 250.198 90.6739C251.491 95.4858 255.349 79.3568 255.349 79.3568L256.514 65.3614L252.443 63.2935Z" fill="#F08879"/>
<path d="M298.617 122.919C295.904 123.21 293.025 103.316 292.422 97.6757C291.821 92.0384 291.602 86.0393 294.645 85.7148C297.688 85.3903 298.74 91.298 299.341 96.9379C299.944 102.577 301.33 122.629 298.617 122.919Z" fill="#FFC8AF"/>
<path d="M294.457 122.014C295.038 120.093 295.718 119.063 297.676 118.566C300.802 117.772 301.944 124.22 302.146 126.164C302.325 127.896 300.084 131.679 298.857 131.818C297.63 131.96 296.915 125.366 296.548 125.31C296.232 125.261 296.125 125.596 296.077 126.055H294.265C294.107 124.634 294.166 122.975 294.457 122.014Z" fill="#FFC8AF"/>
<path d="M417.652 213.367C418.361 210.683 438.313 215.167 443.891 216.642C449.469 218.116 455.248 220.085 454.452 223.095C453.658 226.106 447.661 224.961 442.082 223.486C436.504 222.011 416.942 216.052 417.652 213.367Z" fill="#FFC8AF"/>
<path d="M422.814 214.581C422.212 217.806 416.644 216.099 414.767 215.448C411.709 214.388 410.191 209.872 410.585 208.678C410.98 207.485 416.865 210.888 417.189 210.691C417.512 210.497 413.994 209.245 414.482 208.163C414.972 207.082 419.476 208.779 421.003 210.136C422.528 211.494 423.191 212.559 422.814 214.581Z" fill="#FFC8AF"/>
<path d="M450.734 222.824C447.733 223.623 441.476 206.622 439.356 199.209C437.236 191.797 436.888 185.578 440.553 184.602C444.216 183.627 447.009 189.194 448.858 196.678C450.706 204.164 453.735 222.025 450.734 222.824Z" fill="#FFC8AF"/>
<path d="M440.359 184.386C443.142 184.386 445.202 187.664 445.729 193.89C446.255 200.116 445.729 214.289 445.729 214.289H435.576C435.576 214.289 434.81 197.29 434.714 192.645C434.619 188.001 436.571 184.386 440.359 184.386Z" fill="#FBD15B"/>
<path d="M435.579 214.302C435.579 214.302 429.273 212.553 428.184 212.533C427.095 212.512 423.391 212.533 423.391 212.533C423.391 212.533 422.673 214.307 421.711 216.805C421.711 216.805 423.506 217.831 423.891 218.215C424.275 218.6 423.891 218.856 426.325 220.01C428.759 221.163 438.82 225.969 442.408 225.649C445.997 225.328 445.62 218.018 445.732 214.302C445.844 210.585 438.307 209.629 438.307 209.629L435.579 214.302Z" fill="#FBD15B"/>
<g opacity="0.199997">
<g opacity="0.199997">
<path opacity="0.199997" d="M340.654 171.488C323.814 170.2 311.161 155.452 312.45 138.611C313.737 121.771 328.486 109.117 345.326 110.405C362.167 111.692 374.821 126.442 373.532 143.282C372.244 160.123 357.495 172.776 340.654 171.488Z" fill="#D1D3D4"/>
</g>
</g>
<path d="M468.466 243.734H439.784L438.602 197.603L440.736 184.588L454.637 180.317L462.657 181.846C467.217 182.717 470.462 186.783 470.299 191.421L467.374 224.071L468.466 243.734Z" fill="#FFC8AF"/>
<path d="M457.648 174.161V183.431C457.648 183.431 455.689 184.602 451.105 184.602C448.634 184.602 448.078 183.431 448.078 183.431V180.005L457.648 174.161Z" fill="#FFC8AF"/>
<path d="M446.725 165.794C445.783 166.051 445.411 169.194 445.578 169.18C445.748 169.165 446.34 166.667 447.169 166.282C447.999 165.899 446.725 165.794 446.725 165.794Z" fill="#E5A288"/>
<path d="M443.204 165.907C443.72 166.539 443.315 168.84 443.297 169.045C443.281 169.247 443.039 166.262 443.039 166.262L443.204 165.907Z" fill="#E5A288"/>
<path d="M450.709 165.917V166.287C450.709 166.287 446.755 166.298 446.727 166.271C446.7 166.244 446.583 165.92 446.727 165.795C447.481 165.139 450.709 165.917 450.709 165.917Z" fill="#414042"/>
<path d="M440.359 165.891V166.289C440.359 166.289 443.127 166.274 443.146 166.245C443.184 166.245 443.25 165.892 443.146 165.769C442.61 165.13 440.359 165.891 440.359 165.891Z" fill="#414042"/>
<path d="M449.241 168.384C449.241 168.824 448.886 169.18 448.445 169.18C448.005 169.18 447.648 168.824 447.648 168.384C447.648 167.944 448.005 167.587 448.445 167.587C448.886 167.587 449.241 167.944 449.241 168.384Z" fill="#414042"/>
<path d="M450.083 167.742C449.669 167.522 449.09 167.284 448.432 167.284C447.774 167.284 447.195 167.522 446.781 167.742H450.083Z" fill="#414042"/>
<path d="M442.687 168.384C442.687 168.824 442.33 169.18 441.891 169.18C441.45 169.18 441.094 168.824 441.094 168.384C441.094 167.944 441.45 167.587 441.891 167.587C442.33 167.587 442.687 167.944 442.687 168.384Z" fill="#414042"/>
<path d="M443.031 167.742C442.742 167.522 442.337 167.284 441.879 167.284C441.421 167.284 441.016 167.522 440.727 167.742H443.031Z" fill="#414042"/>
<path d="M444.239 172.394C445.035 172.394 445.681 172.328 445.681 172.546C445.681 172.763 445.035 173.023 444.239 173.023C443.443 173.023 442.797 172.763 442.797 172.546C442.797 172.328 443.443 172.394 444.239 172.394Z" fill="#FFC8AF"/>
<path d="M444.245 175.661C444.828 175.661 445.302 175.612 445.302 175.772C445.302 175.931 444.828 176.297 444.245 176.297C443.661 176.297 443.188 175.931 443.188 175.772C443.188 175.612 443.661 175.661 444.245 175.661Z" fill="#E5A288"/>
<path d="M441.557 174.363C441.477 174.363 441.405 174.414 441.382 174.495C441.355 174.592 441.41 174.692 441.507 174.719C441.562 174.736 442.887 175.109 444.219 175.109C445.55 175.109 446.917 174.736 446.975 174.721C447.072 174.693 447.129 174.594 447.103 174.496C447.074 174.4 446.977 174.343 446.879 174.369C446.865 174.373 445.5 174.745 444.219 174.745C442.937 174.745 441.62 174.374 441.606 174.37C441.589 174.365 441.574 174.363 441.557 174.363Z" fill="#E5A288"/>
<path d="M458.721 167.23C458.698 167.567 458.689 167.881 458.667 168.185C458.667 168.293 458.677 168.401 458.677 168.521C458.905 174.022 455.373 179.916 450.055 180.717C450.055 180.717 450.011 180.728 449.935 180.738C449.893 180.738 449.829 180.749 449.751 180.749C448.614 180.89 444.498 181.226 442.993 179.569C441.227 177.618 439.656 174.045 439.656 171.603C439.656 169.161 440.1 168.584 440.1 167.597C440.1 166.829 439.688 164.421 439.681 163.378C439.645 158.467 442.95 153.593 448.82 153.593C457.627 153.593 458.97 161.316 458.721 167.23Z" fill="#FFC8AF"/>
<path d="M454.665 167.74C454.272 165.725 452.624 164.979 452.411 163.757C452.199 162.535 452.093 160.838 451.614 159.64C451.136 158.442 446.752 158.708 445.303 158.973C443.855 159.239 440.885 159.371 439.66 158.748C438.435 158.124 437.494 155.148 438.601 153.818L439.129 154.346C439.129 154.346 441.22 151.906 443.468 151.586L443.042 152.808C443.042 152.808 449.276 152.118 451.561 152.436C453.846 152.755 455.865 154.776 455.865 154.776C455.865 154.776 458.524 153.818 459.691 156.582C460.349 158.134 463.195 165.801 457.643 175.648L455.865 167.956L454.665 167.74Z" fill="#112B46"/>
<path d="M456.136 167.309C456.836 167.145 458.483 166.572 458.181 169.018C457.658 173.246 455.18 172.981 455.18 172.981C455.326 172.381 455.548 171.536 455.732 170.555C455.059 170.151 455.92 169.629 455.951 169.136C455.99 169.054 455.99 168.946 455.99 168.836C456.062 168.346 456.1 167.855 456.136 167.309Z" fill="#FFC8AF"/>
<path d="M455.999 168.83C455.999 168.83 456.775 168.081 457.359 168.379C457.945 168.679 457.528 170.034 457.066 170.84C456.603 171.646 456.089 171.714 455.999 171.492C455.909 171.269 456.938 170.794 456.575 170.414C456.209 170.034 455.836 169.967 455.869 169.746C455.904 169.523 455.999 168.83 455.999 168.83Z" fill="#E5A288"/>
<path d="M454.562 165.527C454.783 167.122 454.562 172.617 454.562 172.617L455.277 172.597L456.405 166.791L454.562 165.527Z" fill="#112B46"/>
<path d="M446.781 180.855C449.448 180.981 453.002 178.374 453.984 177.189C454.964 176.004 455.477 172.97 455.477 172.97C455.477 172.97 456.26 173.078 456.865 172.263C456.865 172.263 456.793 173.589 456.274 174.041C455.755 174.493 455.416 174.589 455.303 174.914C455.191 175.238 454.582 179.412 452.371 180.586C450.159 181.759 446.781 180.855 446.781 180.855Z" fill="#E5A288"/>
<path d="M471.703 338.327V338.807V341.967C471.703 342.303 470.924 343.724 470.19 344.032C467.573 345.146 462.548 344.485 462.347 343.579C462.149 342.674 463.552 340.691 464.675 339.278C464.675 339.278 464.684 339.278 464.684 339.268C465.409 338.363 466.015 337.693 466.015 337.693C466.015 337.693 467.429 306.085 468.914 306.13C470.535 306.184 471.703 338.327 471.703 338.327Z" fill="#FFC8AF"/>
<path d="M446.444 288.703C442.098 288.703 439.76 264.575 439.561 254.264C439.364 243.954 441.138 235.795 446.444 235.795C451.75 235.795 453.523 243.954 453.326 254.264C453.128 264.575 450.79 288.703 446.444 288.703Z" fill="#FFC8AF"/>
<path d="M446.45 339.961C442.596 339.961 441.539 305.918 441.539 298.264C441.539 290.611 442.129 282.532 446.45 282.532C450.77 282.532 451.361 290.611 451.361 298.264C451.361 305.918 450.304 339.961 446.45 339.961Z" fill="#FFC8AF"/>
<path d="M465.099 288.683C460.772 289.079 456.24 265.264 455.104 255.015C453.968 244.765 454.989 236.479 460.273 235.995C465.557 235.511 468.067 243.473 468.812 253.759C469.555 264.045 469.427 288.285 465.099 288.683Z" fill="#FFC8AF"/>
<path d="M469.139 339.755C465.302 340.107 461.775 306.272 461.078 298.651C460.38 291.029 460.232 282.931 464.535 282.536C468.838 282.143 470.163 290.134 470.862 297.755C471.56 305.376 472.978 339.405 469.139 339.755Z" fill="#FFC8AF"/>
<path d="M449.006 338.562L449.19 342.421C449.19 342.967 448.743 343.414 448.191 343.414H437.798C436.853 343.414 436.452 342.218 437.207 341.653C438.777 340.491 440.971 339.118 443.002 338.75C443.181 338.715 444.66 306.154 446.229 306.137C447.654 306.123 449.006 338.562 449.006 338.562Z" fill="#FFC8AF"/>
<path d="M449.196 339.269V342.889C449.196 343.252 448.901 343.547 448.536 343.547H436.894C435.871 343.547 435.439 342.255 436.255 341.646C437.951 340.39 440.66 339.124 442.667 338.157C443.143 338.575 443.86 339.872 444.698 340.028C445.527 340.185 449.196 339.269 449.196 339.269Z" fill="#112B46"/>
<path d="M471.703 338.807V341.967C471.703 342.303 470.924 343.724 470.19 344.032C467.573 345.146 462.548 344.485 462.347 343.579C462.149 342.674 463.552 340.691 464.675 339.278C464.675 339.278 464.684 339.278 464.684 339.268C465.229 338.807 467.989 339.061 468.452 339.287C468.923 339.514 470.001 340.174 470.227 340.138C470.462 340.102 471.703 338.807 471.703 338.807Z" fill="#112B46"/>
<path d="M446.781 181.192L448.067 183.602V183.448V181.093L447.56 181.021L446.781 181.192Z" fill="#FBD15B"/>
<path d="M453.281 180.799L454.568 184.602C456.542 183.027 459.158 181.188 459.158 181.188L457.637 178.726L453.281 180.799Z" fill="#FBD15B"/>
<path d="M446.522 182.437L446.078 184.602L448.07 183.65V183.596L446.784 181.187L446.522 182.437Z" fill="#EFA954"/>
<path d="M446.092 184.602L446.536 182.438L440.368 184.395C440.368 184.395 438.015 189.376 437.66 195.597C437.561 197.336 437.57 202.327 437.633 208.592C437.805 224.676 438.331 249.219 438.331 249.219H439.074H454.034H469.166H469.81C469.81 249.219 469.195 230.844 468.951 225.257C468.43 213.332 470.641 201.366 471.305 189.461C471.357 188.546 471.402 187.617 471.191 186.723C470.712 184.698 468.834 183.921 467.175 183.022C465.736 182.245 464.107 181.778 462.494 181.54C461.866 181.448 459.661 180.842 459.168 181.189C459.163 181.194 456.549 183.029 454.578 184.602L453.291 180.8L449.968 187.574L448.084 183.445V183.652L446.092 184.602Z" fill="#EDBA3A"/>
<path d="M436.111 206.04C434.475 203.371 449.101 192.423 455.652 188.237C462.205 184.052 468.114 181.925 470.114 185.184C472.112 188.443 467.537 192.748 460.838 196.692C454.137 200.634 437.748 208.709 436.111 206.04Z" fill="#FFC8AF"/>
<path d="M404.831 194.036C405.674 191.39 425.377 196.865 430.875 198.618C436.374 200.368 442.047 202.622 441.102 205.589C440.158 208.555 434.225 207.112 428.728 205.361C423.229 203.611 403.989 196.683 404.831 194.036Z" fill="#FFC8AF"/>
<path d="M409.915 195.523C409.153 198.715 403.677 196.731 401.835 195.987C398.833 194.775 400.228 191.502 400.681 190.33C401.134 189.158 403.806 191.952 404.14 191.773C404.471 191.593 401.373 189.754 401.915 188.697C402.457 187.643 406.871 189.563 408.328 190.993C409.783 192.426 410.391 193.523 409.915 195.523Z" fill="#FFC8AF"/>
<path d="M454.061 249.211H469.194L472.879 336.156H464.666L454.061 251.429L450.639 336.156H442.542L439.102 249.211H454.061Z" fill="#56548C"/>
<path d="M470.753 185.674C468.734 181.856 464.231 182.817 458.743 185.674C453.255 188.532 439.703 198.576 439.414 198.768C439.126 198.96 427.313 197.259 423.566 195.79C419.981 194.385 417.451 193.998 414.64 193.822C414.458 193.81 411.116 193.303 410.845 193.19C410.845 193.19 409.837 195.441 408.875 198.181C408.875 198.181 410.579 198.962 411.125 199.305C411.407 199.481 411.685 199.31 412.742 200.992C413.8 202.673 434.545 208.331 437.774 208.956C441 209.58 452.918 204.486 461.473 199.537C470.027 194.587 472.825 189.593 470.753 185.674Z" fill="#FBD15B"/>
<path d="M449.672 14.7477H443.853C443.622 11.8853 441.234 9.60742 438.316 9.60742H429.593C429.772 8.96489 429.874 8.29145 429.874 7.59484C429.874 3.41643 426.457 -0.000972748 422.28 -0.000972748H408.903C404.726 -0.000972748 401.306 3.41643 401.306 7.59484C401.306 8.29145 401.411 8.96489 401.588 9.60742H400.397C397.48 9.60742 395.091 11.8853 394.86 14.7477H393.111C389.143 14.7477 385.898 17.9938 385.898 21.9598C385.898 25.927 389.143 29.1719 393.111 29.1719H449.672C453.639 29.1719 456.884 25.927 456.884 21.9598C456.884 17.9938 453.639 14.7477 449.672 14.7477Z" fill="#C7D7E2"/>
<path d="M145.577 132.173H143.001C142.646 132.173 142.358 131.884 142.358 131.529C142.358 131.174 142.646 130.885 143.001 130.885H145.577C145.932 130.885 146.22 131.174 146.22 131.529C146.22 131.884 145.932 132.173 145.577 132.173ZM150.727 132.173H148.152C147.797 132.173 147.508 131.884 147.508 131.529C147.508 131.174 147.797 130.885 148.152 130.885H150.727C151.083 130.885 151.371 131.174 151.371 131.529C151.371 131.884 151.083 132.173 150.727 132.173ZM155.878 132.173H153.302C152.947 132.173 152.659 131.884 152.659 131.529C152.659 131.174 152.947 130.885 153.302 130.885H155.878C156.233 130.885 156.522 131.174 156.522 131.529C156.522 131.884 156.233 132.173 155.878 132.173ZM161.028 132.173H158.453C158.098 132.173 157.809 131.884 157.809 131.529C157.809 131.174 158.098 130.885 158.453 130.885H161.028C161.384 130.885 161.672 131.174 161.672 131.529C161.672 131.884 161.384 132.173 161.028 132.173ZM166.179 132.173H163.604C163.248 132.173 162.96 131.884 162.96 131.529C162.96 131.174 163.248 130.885 163.604 130.885H166.179C166.534 130.885 166.823 131.174 166.823 131.529C166.823 131.884 166.534 132.173 166.179 132.173ZM171.33 132.173H168.754C168.399 132.173 168.11 131.884 168.11 131.529C168.11 131.174 168.399 130.885 168.754 130.885H171.33C171.685 130.885 171.973 131.174 171.973 131.529C171.973 131.884 171.685 132.173 171.33 132.173ZM176.48 132.173H173.905C173.549 132.173 173.261 131.884 173.261 131.529C173.261 131.174 173.549 130.885 173.905 130.885H176.48C176.835 130.885 177.124 131.174 177.124 131.529C177.124 131.884 176.835 132.173 176.48 132.173ZM180.74 132.173H179.055C178.7 132.173 178.412 131.884 178.412 131.529C178.412 131.174 178.7 130.885 179.055 130.885H180.74C181.095 130.885 181.383 131.174 181.383 131.529C181.383 131.884 181.095 132.173 180.74 132.173ZM142.605 136.927C142.249 136.927 141.961 136.64 141.961 136.283V133.708C141.961 133.352 142.249 133.064 142.605 133.064C142.961 133.064 143.249 133.352 143.249 133.708V136.283C143.249 136.64 142.961 136.927 142.605 136.927ZM142.605 142.077C142.249 142.077 141.961 141.79 141.961 141.434V138.858C141.961 138.503 142.249 138.214 142.605 138.214C142.961 138.214 143.249 138.503 143.249 138.858V141.434C143.249 141.79 142.961 142.077 142.605 142.077ZM142.605 147.228C142.249 147.228 141.961 146.941 141.961 146.584V144.009C141.961 143.653 142.249 143.365 142.605 143.365C142.961 143.365 143.249 143.653 143.249 144.009V146.584C143.249 146.941 142.961 147.228 142.605 147.228ZM142.605 152.379C142.249 152.379 141.961 152.091 141.961 151.735V149.159C141.961 148.804 142.249 148.516 142.605 148.516C142.961 148.516 143.249 148.804 143.249 149.159V151.735C143.249 152.091 142.961 152.379 142.605 152.379ZM142.605 157.529C142.249 157.529 141.961 157.242 141.961 156.885V154.31C141.961 153.955 142.249 153.666 142.605 153.666C142.961 153.666 143.249 153.955 143.249 154.31V156.885C143.249 157.242 142.961 157.529 142.605 157.529ZM142.605 162.68C142.249 162.68 141.961 162.393 141.961 162.036V159.461C141.961 159.105 142.249 158.817 142.605 158.817C142.961 158.817 143.249 159.105 143.249 159.461V162.036C143.249 162.393 142.961 162.68 142.605 162.68Z" fill="#C7D7E2"/>
<path d="M491.533 222.996H488.958C488.603 222.996 488.314 222.707 488.314 222.352C488.314 221.997 488.603 221.708 488.958 221.708H491.533C491.889 221.708 492.177 221.997 492.177 222.352C492.177 222.707 491.889 222.996 491.533 222.996ZM496.684 222.996H494.109C493.753 222.996 493.465 222.707 493.465 222.352C493.465 221.997 493.753 221.708 494.109 221.708H496.684C497.039 221.708 497.328 221.997 497.328 222.352C497.328 222.707 497.039 222.996 496.684 222.996ZM486.284 225.472C485.927 225.472 485.64 225.184 485.64 224.828V221.708H486.284C486.639 221.708 486.978 221.997 486.978 222.352C486.978 222.447 486.96 222.54 486.928 222.621V224.828C486.928 225.184 486.639 225.472 486.284 225.472ZM486.284 230.623C485.927 230.623 485.64 230.334 485.64 229.979V227.404C485.64 227.047 485.927 226.76 486.284 226.76C486.639 226.76 486.928 227.047 486.928 227.404V229.979C486.928 230.334 486.639 230.623 486.284 230.623ZM486.284 235.773C485.927 235.773 485.64 235.485 485.64 235.129V232.554C485.64 232.197 485.927 231.91 486.284 231.91C486.639 231.91 486.928 232.197 486.928 232.554V235.129C486.928 235.485 486.639 235.773 486.284 235.773ZM486.284 240.924C485.927 240.924 485.64 240.635 485.64 240.28V237.705C485.64 237.348 485.927 237.061 486.284 237.061C486.639 237.061 486.928 237.348 486.928 237.705V240.28C486.928 240.635 486.639 240.924 486.284 240.924ZM486.284 246.074C485.927 246.074 485.64 245.786 485.64 245.431V242.855C485.64 242.499 485.927 242.211 486.284 242.211C486.639 242.211 486.928 242.499 486.928 242.855V245.431C486.928 245.786 486.639 246.074 486.284 246.074ZM477.138 249.805H475.191C474.834 249.805 474.547 249.518 474.547 249.161C474.547 248.805 474.834 248.517 475.191 248.517H477.138C477.494 248.517 477.781 248.805 477.781 249.161C477.781 249.518 477.494 249.805 477.138 249.805ZM482.288 249.805H479.713C479.358 249.805 479.069 249.518 479.069 249.161C479.069 248.805 479.358 248.517 479.713 248.517H482.288C482.645 248.517 482.932 248.805 482.932 249.161C482.932 249.518 482.645 249.805 482.288 249.805ZM486.928 249.805H484.863C484.508 249.805 484.22 249.518 484.22 249.161C484.22 248.805 484.508 248.517 484.863 248.517H485.64V248.006C485.64 247.649 485.927 247.362 486.284 247.362C486.639 247.362 486.928 247.649 486.928 248.006V249.805Z" fill="#C7D7E2"/>
<path d="M130.812 108.857C130.812 113.677 122.086 127.609 122.086 127.609C122.086 127.609 113.359 113.677 113.359 108.857C113.359 104.039 117.266 100.132 122.086 100.132C126.905 100.132 130.812 104.039 130.812 108.857Z" fill="#F08879"/>
<path d="M126.781 108.864C126.781 111.46 124.677 113.562 122.083 113.562C119.487 113.562 117.383 111.46 117.383 108.864C117.383 106.268 119.487 104.165 122.083 104.165C124.677 104.165 126.781 106.268 126.781 108.864Z" fill="#F9FBFC"/>
<path d="M229.777 47.6711L220.438 42.2798V53.0625L229.777 47.6711Z" fill="#56548C"/>
<path d="M219.511 47.6711L210.172 42.2798V53.0625L219.511 47.6711Z" fill="#56548C"/>
<path d="M192.222 90.7125C191.867 90.7125 191.578 90.4241 191.578 90.0687V87.4934C191.578 87.138 191.867 86.8496 192.222 86.8496C192.577 86.8496 192.866 87.138 192.866 87.4934V90.0687C192.866 90.4241 192.577 90.7125 192.222 90.7125ZM192.222 95.8631C191.867 95.8631 191.578 95.5746 191.578 95.2192V92.644C191.578 92.2886 191.867 92.0001 192.222 92.0001C192.577 92.0001 192.866 92.2886 192.866 92.644V95.2192C192.866 95.5746 192.577 95.8631 192.222 95.8631ZM192.459 100.777H191.578V97.7945C191.578 97.4391 191.867 97.1507 192.222 97.1507C192.577 97.1507 192.866 97.4391 192.866 97.7945V99.6359C193.01 99.753 193.103 99.932 193.103 100.133C193.103 100.49 192.814 100.777 192.459 100.777ZM197.609 100.777H195.034C194.677 100.777 194.39 100.49 194.39 100.133C194.39 99.7775 194.677 99.4891 195.034 99.4891H197.609C197.965 99.4891 198.253 99.7775 198.253 100.133C198.253 100.49 197.965 100.777 197.609 100.777ZM202.76 100.777H200.185C199.828 100.777 199.541 100.49 199.541 100.133C199.541 99.7775 199.828 99.4891 200.185 99.4891H202.76C203.115 99.4891 203.404 99.7775 203.404 100.133C203.404 100.49 203.115 100.777 202.76 100.777ZM207.911 100.777H205.335C204.979 100.777 204.691 100.49 204.691 100.133C204.691 99.7775 204.979 99.4891 205.335 99.4891H207.911C208.266 99.4891 208.554 99.7775 208.554 100.133C208.554 100.49 208.266 100.777 207.911 100.777ZM213.061 100.777H210.486C210.129 100.777 209.842 100.49 209.842 100.133C209.842 99.7775 210.129 99.4891 210.486 99.4891H213.061C213.417 99.4891 213.705 99.7775 213.705 100.133C213.705 100.49 213.417 100.777 213.061 100.777ZM216.452 102.537C216.096 102.537 215.808 102.248 215.808 101.893V100.777H215.636C215.28 100.777 214.993 100.49 214.993 100.133C214.993 99.7775 215.28 99.4891 215.636 99.4891H217.095V101.893C217.095 102.248 216.808 102.537 216.452 102.537ZM216.452 107.688C216.096 107.688 215.808 107.399 215.808 107.044V104.468C215.808 104.112 216.096 103.825 216.452 103.825C216.808 103.825 217.095 104.112 217.095 104.468V107.044C217.095 107.399 216.808 107.688 216.452 107.688Z" fill="#C7D7E2"/>
<path d="M140.024 111.602H137.449C137.093 111.602 136.805 111.313 136.805 110.958C136.805 110.602 137.093 110.314 137.449 110.314H140.024C140.379 110.314 140.668 110.602 140.668 110.958C140.668 111.313 140.379 111.602 140.024 111.602ZM145.174 111.602H142.599C142.244 111.602 141.955 111.313 141.955 110.958C141.955 110.602 142.244 110.314 142.599 110.314H145.174C145.53 110.314 145.818 110.602 145.818 110.958C145.818 111.313 145.53 111.602 145.174 111.602ZM150.325 111.602H147.75C147.394 111.602 147.106 111.313 147.106 110.958C147.106 110.602 147.394 110.314 147.75 110.314H150.325C150.68 110.314 150.969 110.602 150.969 110.958C150.969 111.313 150.68 111.602 150.325 111.602ZM155.476 111.602H152.9C152.545 111.602 152.256 111.313 152.256 110.958C152.256 110.602 152.545 110.314 152.9 110.314H155.476C155.831 110.314 156.119 110.602 156.119 110.958C156.119 111.313 155.831 111.602 155.476 111.602ZM160.626 111.602H158.051C157.695 111.602 157.407 111.313 157.407 110.958C157.407 110.602 157.695 110.314 158.051 110.314H160.626C160.981 110.314 161.27 110.602 161.27 110.958C161.27 111.313 160.981 111.602 160.626 111.602ZM165.777 111.602H163.201C162.846 111.602 162.558 111.313 162.558 110.958C162.558 110.602 162.846 110.314 163.201 110.314H165.777C166.132 110.314 166.42 110.602 166.42 110.958C166.42 111.313 166.132 111.602 165.777 111.602ZM170.927 111.602H168.352C167.997 111.602 167.708 111.313 167.708 110.958C167.708 110.602 167.997 110.314 168.352 110.314H170.927C171.283 110.314 171.571 110.602 171.571 110.958C171.571 111.313 171.283 111.602 170.927 111.602ZM176.078 111.602H173.503C173.147 111.602 172.859 111.313 172.859 110.958C172.859 110.602 173.147 110.314 173.503 110.314H176.078C176.433 110.314 176.722 110.602 176.722 110.958C176.722 111.313 176.433 111.602 176.078 111.602ZM181.228 111.602H178.653C178.298 111.602 178.009 111.313 178.009 110.958C178.009 110.602 178.298 110.314 178.653 110.314H181.228C181.584 110.314 181.872 110.602 181.872 110.958C181.872 111.313 181.584 111.602 181.228 111.602ZM186.379 111.602H183.804C183.448 111.602 183.16 111.313 183.16 110.958C183.16 110.602 183.448 110.314 183.804 110.314H186.379C186.734 110.314 187.023 110.602 187.023 110.958C187.023 111.313 186.734 111.602 186.379 111.602ZM191.529 111.602H188.954C188.599 111.602 188.31 111.313 188.31 110.958C188.31 110.602 188.599 110.314 188.954 110.314H191.529C191.885 110.314 192.173 110.602 192.173 110.958C192.173 111.313 191.885 111.602 191.529 111.602ZM194.387 111.602H194.105C193.749 111.602 193.461 111.313 193.461 110.958C193.461 110.602 193.749 110.314 194.105 110.314H194.387C194.742 110.314 195.031 110.602 195.031 110.958C195.031 111.313 194.742 111.602 194.387 111.602Z" fill="#C7D7E2"/>
<path d="M294.722 36.6102C294.367 36.6102 294.078 36.3217 294.078 35.9663V33.391C294.078 33.0357 294.367 32.7472 294.722 32.7472C295.077 32.7472 295.366 33.0357 295.366 33.391V35.9663C295.366 36.3217 295.077 36.6102 294.722 36.6102ZM294.722 41.7607C294.367 41.7607 294.078 41.4723 294.078 41.1169V38.5416C294.078 38.1862 294.367 37.8978 294.722 37.8978C295.077 37.8978 295.366 38.1862 295.366 38.5416V41.1169C295.366 41.4723 295.077 41.7607 294.722 41.7607ZM294.722 46.9113C294.367 46.9113 294.078 46.6229 294.078 46.2675V43.6922C294.078 43.3368 294.367 43.0484 294.722 43.0484C295.077 43.0484 295.366 43.3368 295.366 43.6922V46.2675C295.366 46.6229 295.077 46.9113 294.722 46.9113ZM294.722 52.0619C294.367 52.0619 294.078 51.7734 294.078 51.418V48.8428C294.078 48.4874 294.367 48.1989 294.722 48.1989C295.077 48.1989 295.366 48.4874 295.366 48.8428V51.418C295.366 51.7734 295.077 52.0619 294.722 52.0619ZM294.722 57.2124C294.367 57.2124 294.078 56.924 294.078 56.5686V53.9933C294.078 53.6379 294.367 53.3495 294.722 53.3495C295.077 53.3495 295.366 53.6379 295.366 53.9933V56.5686C295.366 56.924 295.077 57.2124 294.722 57.2124ZM294.722 62.363C294.367 62.363 294.078 62.0746 294.078 61.7192V59.1439C294.078 58.7885 294.367 58.5001 294.722 58.5001C295.077 58.5001 295.366 58.7885 295.366 59.1439V61.7192C295.366 62.0746 295.077 62.363 294.722 62.363ZM294.722 67.5136C294.367 67.5136 294.078 67.2252 294.078 66.8698V64.2945C294.078 63.9391 294.367 63.6507 294.722 63.6507C295.077 63.6507 295.366 63.9391 295.366 64.2945V66.8698C295.366 67.2252 295.077 67.5136 294.722 67.5136ZM294.722 72.6642C294.367 72.6642 294.078 72.3757 294.078 72.0203V69.4451C294.078 69.0897 294.367 68.8012 294.722 68.8012C295.077 68.8012 295.366 69.0897 295.366 69.4451V72.0203C295.366 72.3757 295.077 72.6642 294.722 72.6642ZM294.722 76.9688C294.367 76.9688 294.078 76.6803 294.078 76.3249V74.5956C294.078 74.2402 294.367 73.9518 294.722 73.9518C295.077 73.9518 295.366 74.2402 295.366 74.5956V76.3249C295.366 76.6803 295.077 76.9688 294.722 76.9688Z" fill="#C7D7E2"/>
<path d="M402.269 38.8129C401.913 38.8129 401.625 38.5245 401.625 38.1691V35.5938C401.625 35.2384 401.913 34.95 402.269 34.95C402.624 34.95 402.913 35.2384 402.913 35.5938V38.1691C402.913 38.5245 402.624 38.8129 402.269 38.8129ZM402.269 43.9635C401.913 43.9635 401.625 43.6751 401.625 43.3197V40.7444C401.625 40.389 401.913 40.1006 402.269 40.1006C402.624 40.1006 402.913 40.389 402.913 40.7444V43.3197C402.913 43.6751 402.624 43.9635 402.269 43.9635ZM402.269 49.1141C401.913 49.1141 401.625 48.8256 401.625 48.4703V45.895C401.625 45.5396 401.913 45.2511 402.269 45.2511C402.624 45.2511 402.913 45.5396 402.913 45.895V48.4703C402.913 48.8256 402.624 49.1141 402.269 49.1141ZM402.269 54.2647C401.913 54.2647 401.625 53.9762 401.625 53.6208V51.0455C401.625 50.6902 401.913 50.4017 402.269 50.4017C402.624 50.4017 402.913 50.6902 402.913 51.0455V53.6208C402.913 53.9762 402.624 54.2647 402.269 54.2647ZM402.269 59.4152C401.913 59.4152 401.625 59.1268 401.625 58.7714V56.1961C401.625 55.8407 401.913 55.5523 402.269 55.5523C402.624 55.5523 402.913 55.8407 402.913 56.1961V58.7714C402.913 59.1268 402.624 59.4152 402.269 59.4152ZM402.269 64.5658C401.913 64.5658 401.625 64.2774 401.625 63.922V61.3467C401.625 60.9913 401.913 60.7029 402.269 60.7029C402.624 60.7029 402.913 60.9913 402.913 61.3467V63.922C402.913 64.2774 402.624 64.5658 402.269 64.5658ZM402.269 69.7164C401.913 69.7164 401.625 69.4279 401.625 69.0726V66.4973C401.625 66.1419 401.913 65.8534 402.269 65.8534C402.624 65.8534 402.913 66.1419 402.913 66.4973V69.0726C402.913 69.4279 402.624 69.7164 402.269 69.7164ZM402.269 74.8669C401.913 74.8669 401.625 74.5785 401.625 74.2231V71.6478C401.625 71.2924 401.913 71.004 402.269 71.004C402.624 71.004 402.913 71.2924 402.913 71.6478V74.2231C402.913 74.5785 402.624 74.8669 402.269 74.8669ZM402.269 80.0175C401.913 80.0175 401.625 79.7291 401.625 79.3737V76.7984C401.625 76.443 401.913 76.1546 402.269 76.1546C402.624 76.1546 402.913 76.443 402.913 76.7984V79.3737C402.913 79.7291 402.624 80.0175 402.269 80.0175ZM407.367 80.0703H404.791C404.436 80.0703 404.147 79.7819 404.147 79.4265C404.147 79.0711 404.436 78.7827 404.791 78.7827H407.367C407.722 78.7827 408.01 79.0711 408.01 79.4265C408.01 79.7819 407.722 80.0703 407.367 80.0703ZM412.517 80.0703H409.942C409.586 80.0703 409.298 79.7819 409.298 79.4265C409.298 79.0711 409.586 78.7827 409.942 78.7827H412.517C412.873 78.7827 413.161 79.0711 413.161 79.4265C413.161 79.7819 412.873 80.0703 412.517 80.0703ZM416.215 80.0703H415.092C414.737 80.0703 414.449 79.7819 414.449 79.4265C414.449 79.0711 414.737 78.7827 415.092 78.7827H416.215C416.571 78.7827 416.859 79.0711 416.859 79.4265C416.859 79.7819 416.571 80.0703 416.215 80.0703Z" fill="#C7D7E2"/>
<path d="M530.125 150.777H527.55C527.195 150.777 526.906 150.488 526.906 150.133C526.906 149.777 527.195 149.489 527.55 149.489H530.125C530.481 149.489 530.769 149.777 530.769 150.133C530.769 150.488 530.481 150.777 530.125 150.777ZM535.276 150.777H532.701C532.345 150.777 532.057 150.488 532.057 150.133C532.057 149.777 532.345 149.489 532.701 149.489H535.276C535.631 149.489 535.92 149.777 535.92 150.133C535.92 150.488 535.631 150.777 535.276 150.777ZM540.427 150.777H537.851C537.496 150.777 537.207 150.488 537.207 150.133C537.207 149.777 537.496 149.489 537.851 149.489H540.427C540.782 149.489 541.07 149.777 541.07 150.133C541.07 150.488 540.782 150.777 540.427 150.777ZM545.577 150.777H543.002C542.646 150.777 542.358 150.488 542.358 150.133C542.358 149.777 542.646 149.489 543.002 149.489H545.577C545.932 149.489 546.221 149.777 546.221 150.133C546.221 150.488 545.932 150.777 545.577 150.777ZM547.136 154.368C546.781 154.368 546.493 154.079 546.493 153.724V151.149C546.493 150.793 546.781 150.505 547.136 150.505C547.492 150.505 547.78 150.793 547.78 151.149V153.724C547.78 154.079 547.492 154.368 547.136 154.368ZM547.136 159.518C546.781 159.518 546.493 159.23 546.493 158.875V156.299C546.493 155.944 546.781 155.655 547.136 155.655C547.492 155.655 547.78 155.944 547.78 156.299V158.875C547.78 159.23 547.492 159.518 547.136 159.518ZM547.136 164.669C546.781 164.669 546.493 164.381 546.493 164.025V161.45C546.493 161.094 546.781 160.806 547.136 160.806C547.492 160.806 547.78 161.094 547.78 161.45V164.025C547.78 164.381 547.492 164.669 547.136 164.669ZM547.136 169.82C546.781 169.82 546.493 169.531 546.493 169.176V166.6C546.493 166.245 546.781 165.957 547.136 165.957C547.492 165.957 547.78 166.245 547.78 166.6V169.176C547.78 169.531 547.492 169.82 547.136 169.82ZM547.136 174.97C546.781 174.97 546.493 174.682 546.493 174.326V171.751C546.493 171.396 546.781 171.107 547.136 171.107C547.492 171.107 547.78 171.396 547.78 171.751V174.326C547.78 174.682 547.492 174.97 547.136 174.97ZM547.136 180.121C546.781 180.121 546.493 179.832 546.493 179.477V176.902C546.493 176.546 546.781 176.258 547.136 176.258C547.492 176.258 547.78 176.546 547.78 176.902V179.477C547.78 179.832 547.492 180.121 547.136 180.121ZM547.136 185.271C546.781 185.271 546.493 184.983 546.493 184.627V182.052C546.493 181.697 546.781 181.408 547.136 181.408C547.492 181.408 547.78 181.697 547.78 182.052V184.627C547.78 184.983 547.492 185.271 547.136 185.271ZM547.136 190.422C546.781 190.422 546.493 190.133 546.493 189.778V187.203C546.493 186.847 546.781 186.559 547.136 186.559C547.492 186.559 547.78 186.847 547.78 187.203V189.778C547.78 190.133 547.492 190.422 547.136 190.422Z" fill="#C7D7E2"/>
<path d="M535.474 271.546L537.578 273.744C539.623 271.788 542.375 270.584 545.427 270.584C548.481 270.584 551.233 271.788 553.277 273.744L555.381 271.545C552.793 269.068 549.292 267.539 545.427 267.539C541.564 267.539 538.061 269.068 535.474 271.546ZM545.427 261.059C539.825 261.061 534.742 263.27 530.992 266.861L533.096 269.061C536.305 265.992 540.638 264.107 545.427 264.106C550.218 264.107 554.551 265.992 557.76 269.061L559.864 266.861C556.113 263.27 551.031 261.061 545.427 261.059ZM539.842 276.108L541.945 278.307C542.854 277.438 544.071 276.905 545.427 276.905C546.784 276.905 548.001 277.438 548.911 278.307L551.014 276.108C549.561 274.719 547.596 273.86 545.427 273.858C543.258 273.86 541.293 274.719 539.842 276.108ZM545.427 279.555C544.107 279.555 543.037 280.625 543.037 281.945C543.037 283.266 544.107 284.336 545.427 284.336C546.748 284.336 547.818 283.266 547.818 281.945C547.818 280.625 546.748 279.555 545.427 279.555Z" fill="#606BF1"/>
<path d="M487.61 278.242C488.338 278.242 489.054 277.946 489.569 277.428C490.087 276.913 490.382 276.199 490.382 275.469C490.382 274.737 490.087 274.024 489.569 273.506C489.054 272.991 488.338 272.694 487.61 272.694C486.879 272.694 486.165 272.991 485.648 273.506C485.131 274.024 484.836 274.737 484.836 275.469C484.836 276.199 485.131 276.913 485.648 277.428C486.165 277.946 486.879 278.242 487.61 278.242Z" fill="#C7D7E2"/>
<path d="M516.203 278.242H516.217C517.748 278.242 518.99 277 518.99 275.469C518.99 273.936 517.748 272.694 516.217 272.694H516.203C514.672 272.694 513.43 273.936 513.43 275.469C513.43 277 514.672 278.242 516.203 278.242Z" fill="#C7D7E2"/>
<path d="M501.899 278.242H501.913C503.444 278.242 504.685 277 504.685 275.469C504.685 273.936 503.444 272.694 501.913 272.694H501.899C500.368 272.694 499.125 273.936 499.125 275.469C499.125 277 500.368 278.242 501.899 278.242Z" fill="#C7D7E2"/>
<path d="M487.61 266.844C488.338 266.844 489.054 266.548 489.569 266.031C490.087 265.515 490.382 264.8 490.382 264.07C490.382 263.339 490.087 262.625 489.569 262.108C489.054 261.593 488.338 261.295 487.61 261.295C486.879 261.295 486.165 261.593 485.648 262.108C485.131 262.625 484.836 263.339 484.836 264.07C484.836 264.8 485.131 265.515 485.648 266.031C486.165 266.548 486.879 266.844 487.61 266.844Z" fill="#C7D7E2"/>
<path d="M516.203 266.844H516.217C517.748 266.844 518.99 265.601 518.99 264.07C518.99 262.538 517.748 261.295 516.217 261.295H516.203C514.672 261.295 513.43 262.538 513.43 264.07C513.43 265.601 514.672 266.844 516.203 266.844Z" fill="#C7D7E2"/>
<path d="M501.899 266.844H501.913C503.444 266.844 504.685 265.601 504.685 264.07C504.685 262.538 503.444 261.295 501.913 261.295H501.899C500.368 261.295 499.125 262.538 499.125 264.07C499.125 265.601 500.368 266.844 501.899 266.844Z" fill="#C7D7E2"/>
<path d="M487.61 289.633C488.338 289.633 489.054 289.338 489.569 288.82C490.087 288.304 490.382 287.589 490.382 286.861C490.382 286.129 490.087 285.416 489.569 284.898C489.054 284.382 488.338 284.086 487.61 284.086C486.879 284.086 486.165 284.382 485.648 284.898C485.131 285.416 484.836 286.129 484.836 286.861C484.836 287.589 485.131 288.304 485.648 288.82C486.165 289.338 486.879 289.633 487.61 289.633Z" fill="#C7D7E2"/>
<path d="M516.203 289.633H516.217C517.748 289.633 518.99 288.392 518.99 286.861C518.99 285.328 517.748 284.086 516.217 284.086H516.203C514.672 284.086 513.43 285.328 513.43 286.861C513.43 288.392 514.672 289.633 516.203 289.633Z" fill="#C7D7E2"/>
<path d="M501.899 289.633H501.913C503.444 289.633 504.685 288.392 504.685 286.861C504.685 285.328 503.444 284.086 501.913 284.086H501.899C500.368 284.086 499.125 285.328 499.125 286.861C499.125 288.392 500.368 289.633 501.899 289.633Z" fill="#C7D7E2"/>
<path d="M151.129 244.664C148.237 244.664 146.787 243.002 145.507 241.534C144.329 240.184 143.399 239.117 141.452 239.117C139.505 239.117 138.575 240.184 137.396 241.534C136.116 243.002 134.666 244.664 131.774 244.664C128.882 244.664 127.432 243.002 126.153 241.534C124.974 240.184 124.046 239.117 122.1 239.117C120.152 239.117 119.221 240.184 118.043 241.534C116.763 243.002 115.311 244.664 112.418 244.664C109.522 244.664 108.071 243.002 106.79 241.535C105.61 240.184 104.679 239.117 102.729 239.117C100.779 239.117 99.8482 240.184 98.6687 241.534C97.3875 243.002 95.935 244.664 93.0404 244.664C92.4648 244.664 92 244.199 92 243.624C92 243.049 92.4648 242.585 93.0404 242.585C94.9899 242.585 95.9222 241.517 97.1016 240.166C98.3816 238.7 99.834 237.037 102.729 237.037C105.623 237.037 107.076 238.7 108.357 240.168C109.536 241.517 110.469 242.585 112.418 242.585C114.365 242.585 115.297 241.517 116.476 240.168C117.755 238.7 119.207 237.037 122.1 237.037C124.991 237.037 126.441 238.7 127.721 240.168C128.897 241.518 129.828 242.585 131.774 242.585C133.72 242.585 134.651 241.518 135.829 240.168C137.109 238.7 138.56 237.037 141.452 237.037C144.344 237.037 145.794 238.7 147.075 240.168C148.252 241.518 149.182 242.585 151.129 242.585C151.703 242.585 152.169 243.049 152.169 243.624C152.169 244.199 151.703 244.664 151.129 244.664Z" fill="#C7D7E2"/>
<path d="M144.622 294.364V287.092H140.585V294.364H133.312V298.401H140.585V305.672H144.622V298.401H151.893V294.364H144.622Z" fill="#FBD15B"/>
<path d="M119.452 258.121C122.317 255.257 126.977 255.257 129.84 258.121C132.704 260.986 132.704 265.646 129.84 268.509C126.977 271.374 122.315 271.374 119.45 268.511C116.587 265.647 116.587 260.986 119.452 258.121ZM117.3 255.969C113.742 259.527 113.311 265.043 116.002 269.079L109.359 275.722C109.078 276.002 109.078 276.455 109.359 276.736L111.225 278.602C111.505 278.883 111.96 278.883 112.239 278.602L118.885 271.959C123.19 274.832 129.184 274.147 132.681 269.901C135.761 266.166 135.808 260.639 132.785 256.858C128.854 251.937 121.626 251.643 117.3 255.969Z" fill="#EC827D"/>
<path d="M507.281 311.096L524.922 300.911V321.281L507.281 311.096Z" fill="#FBD15B"/>
<path d="M522.156 316.555H540.876V305.634H522.156V316.555Z" fill="#FBD15B"/>
<path d="M507.872 48.767H511.99V44.6504H507.872V48.767ZM513.279 50.0547H506.586V43.3628H513.279V50.0547Z" fill="#C7D7E2"/>
<path d="M522.701 49.4062H517.297V44.0021H522.701V49.4062Z" fill="#C7D7E2"/>
<path d="M532.068 49.4062H526.664V44.0021H532.068V49.4062Z" fill="#C7D7E2"/>
<path d="M123.239 323.447H127.357V319.329H123.239V323.447ZM128.646 324.734H121.953V318.041H128.646V324.734Z" fill="#C7D7E2"/>
<path d="M138.068 324.086H132.664V318.68H138.068V324.086Z" fill="#C7D7E2"/>
<path d="M147.436 324.086H142.031V318.68H147.436V324.086Z" fill="#C7D7E2"/>
<path d="M252.372 207.816L276.119 221.294V230.729L248.008 212.485V206.95L252.372 207.816ZM276.119 196.745L252.407 210.416L248.008 211.089V205.506L276.119 187.311V196.745Z" fill="white"/>
<path d="M308.32 170.078L287.46 246.18H281.995L302.89 170.078H308.32Z" fill="white"/>
<path d="M339.489 209.742L315.055 196.408V187.214L344.404 205.409V211.041L339.489 209.742ZM315.055 221.487L339.558 207.864L344.404 206.854V212.437L315.055 230.68V221.487Z" fill="white"/>
</svg>
