<svg width="690" height="350" viewBox="0 0 690 350" fill="none" xmlns="http://www.w3.org/2000/svg">
<g clip-path="url(#clip0_2458_6686)">
<path d="M599 291.5C599 226.92 572.924 164.985 526.509 119.32C480.094 73.6544 417.141 48 351.5 48C285.859 48 222.906 73.6544 176.491 119.319C130.076 164.985 104 226.92 104 291.5H123.413C123.413 231.985 147.444 174.908 190.218 132.825C232.993 90.7416 291.008 67.0995 351.5 67.0995C411.992 67.0995 470.007 90.7416 512.782 132.825C555.556 174.908 579.587 231.985 579.587 291.5H599Z" fill="#C4C4C4"/>
<path d="M423.531 230.797L439.494 347.408" stroke="#213033" stroke-width="1.0124" stroke-miterlimit="10"/>
<path d="M375.775 233.414L360.074 348.158" stroke="#213033" stroke-width="1.0124" stroke-miterlimit="10"/>
<path d="M434.063 234.979H366.386C363.063 234.979 360.355 232.291 360.355 228.949V228.874C360.355 225.551 363.044 222.844 366.386 222.844H434.063C437.386 222.844 440.094 225.532 440.094 228.874V228.949C440.094 232.291 437.386 234.979 434.063 234.979Z" fill="#000103"/>
<path d="M286.182 295.055L274.383 321.64L290.308 327.353L305.393 299.031L286.182 295.055Z" fill="#FFAD9E"/>
<path d="M273.578 317.312L246.283 319.777C244.285 319.945 242.642 321.476 242.344 323.492L290.792 343.375L292.154 324.65L273.578 317.312Z" fill="#000103"/>
<path d="M289.635 348.566L239.824 328.123L241.766 323.25L291.595 343.675L289.635 348.566Z" fill="#FEFEFF"/>
<path d="M347.267 242.091L301.713 317.983L274.586 305.12L313.96 226.091C318.422 215.524 331.211 211.51 340.807 217.653C348.91 222.861 351.71 233.484 347.267 242.091Z" fill="#262626"/>
<path d="M433.747 189.648C433.747 189.648 445.266 211.996 428.071 222.208C425.57 223.683 422.732 224.486 419.857 224.691L346.28 237.685L320.684 203.109L375.572 189.779L433.747 189.648Z" fill="#262626"/>
<path d="M347.922 291.544L362.951 316.393L376.598 306.349L362.017 277.766L347.922 291.544Z" fill="#FFAD9E"/>
<path d="M358.955 314.62L345.531 338.778C344.542 340.552 344.859 342.774 346.334 344.155L389.928 314.956L375.421 303.25L358.955 314.62Z" fill="#000103"/>
<path d="M393.532 318.895L348.706 348.897L345.812 344.51L390.638 314.508L393.532 318.895Z" fill="#FEFEFF"/>
<path d="M341.013 212.574L377.195 293.47L351.375 308.835L309.125 231.337C303.02 221.629 306.96 208.71 317.415 204.173C326.245 200.327 336.514 203.986 341.013 212.574Z" fill="#262626"/>
<path d="M351.804 236.715L339.762 230.797" stroke="#3A933C" stroke-width="0.7475" stroke-miterlimit="10"/>
<path d="M314.371 167.232L327.085 166.242L326.693 179.087H315.697L314.371 167.232Z" fill="#FCC3CB"/>
<path d="M315.325 167.231C315.325 167.231 286.2 155.88 289.43 179.068H317.378L315.325 167.231Z" fill="#FFC9BD"/>
<path d="M358.415 114.359C358.415 114.359 345.291 141.71 342.471 169.715C342.154 172.851 345.309 175.969 347.755 177.948C353.262 182.392 362.504 177.948 364.558 171.488C364.558 171.488 380.427 118.877 378.709 117.664C378.298 117.365 358.415 114.359 358.415 114.359Z" fill="#4CAF52"/>
<path d="M350.107 159.894L309.93 158.867L312.935 179.497L353.131 179.703C354.644 179.777 356.174 179.441 357.5 178.676C361.999 176.006 363.922 170.106 361.346 165.122C359.218 161.014 354.606 158.849 350.107 159.894Z" fill="#4CAF52"/>
<path d="M389.628 103.789L362.52 111.126C359.757 111.481 357.778 114.001 358.058 116.802L375.57 189.8C375.57 189.8 385.483 200.983 433.744 189.651L427.005 115.14C427.341 112.265 423.812 107.766 420.974 107.448L389.628 103.789Z" fill="#4CAF52"/>
<path d="M368.419 158.401C368.98 160.847 362.819 133.907 362.781 133.664" stroke="#5E4C3F" stroke-width="0.7625" stroke-miterlimit="10"/>
<path d="M374.6 180.785H328.691V175.539H374.6C376.038 175.539 377.195 176.715 377.195 178.153C377.195 179.609 376.038 180.785 374.6 180.785Z" fill="#9198AA"/>
<path d="M334.739 180.782H270.142C266.633 180.782 263.571 178.43 262.619 175.013L250.203 129.907C249.438 127.107 251.51 124.344 254.385 124.344H316.088C318.422 124.344 320.476 125.931 321.073 128.227L334.739 180.782Z" fill="#AFB4C3"/>
<path d="M287.039 158.494C290.215 158.494 292.79 155.886 292.79 152.669C292.79 149.452 290.215 146.844 287.039 146.844C283.864 146.844 281.289 149.452 281.289 152.669C281.289 155.886 283.864 158.494 287.039 158.494Z" stroke="white" stroke-width="0.6139" stroke-miterlimit="10"/>
<path d="M402.363 122.254C402.363 122.254 417.131 151.827 433.822 175.668C435.689 178.338 440.113 179.664 443.343 179.533C450.643 179.216 453.742 171.262 450.979 164.803C450.979 164.803 427.399 110.101 424.151 109.204C423.647 109.055 402.363 122.254 402.363 122.254Z" fill="#4CAF52"/>
<path d="M385.484 168.935L398.198 167.945L397.788 180.809H386.791L385.484 168.935Z" fill="#FFC9BD"/>
<path d="M386.418 168.934C386.418 168.934 357.294 157.583 360.524 180.771H388.472L386.418 168.934Z" fill="#FFC9BD"/>
<path d="M440.189 159.636L394.523 161.018L395.42 181.685L442.859 180.677C449.618 179.762 453.725 172.668 451.223 166.264C449.468 161.765 444.931 159.039 440.189 159.636Z" fill="#4CAF52"/>
<path d="M411.176 133.664L423.255 160.138L394.541 161.015L394.504 167.942" stroke="#5E4C3F" stroke-width="0.7625" stroke-miterlimit="10"/>
<path d="M423.254 160.141L429.62 163.314" stroke="#5E4C3F" stroke-width="0.7625" stroke-miterlimit="10"/>
<path d="M359.121 53.5312C358.86 53.83 345.455 58.7588 359.159 74.5719L369.67 55.6409L359.121 53.5312Z" fill="black"/>
<path d="M365.153 57.0009C365.153 57.0009 358.974 59.3533 358.395 63.4419L357.835 56.6648C357.835 56.6648 353.634 48.0208 360.617 43.0173C369.111 36.931 377.345 41.6171 379.865 43.5401C382.385 45.4817 393.867 53.2856 393.867 53.2856C393.867 53.2856 403.295 56.0674 395.267 70.163L388.304 71.1338L384.178 60.7535L373.685 57.1689L365.153 57.0009Z" fill="black"/>
<path d="M368.831 77.4478C369.466 80.883 367.207 84.2062 363.809 84.8409C360.411 85.4757 357.125 83.198 356.509 79.7628C355.874 76.3276 358.133 73.0044 361.531 72.3696C364.929 71.7162 368.196 73.9939 368.831 77.4478Z" fill="#EFB2A8"/>
<path d="M372.285 86.8574L377.009 109.074C378.11 115.329 382.161 115.067 387.837 114.003C392.691 113.088 396.556 110.773 396.22 105.452L391.926 81.3125L372.285 86.8574Z" fill="#FFC9BD"/>
<path d="M375.81 103.471C375.81 103.471 390.597 96.806 389.514 85.4922L373.309 91.8025L375.81 103.471Z" fill="#DD9790"/>
<path d="M382.775 94.0794L375.643 95.4236C368.362 96.7865 361.398 91.783 360.296 84.3712L357.795 67.6992C356.563 59.4472 362.014 51.6993 370.135 50.1684C378.443 48.6188 387.872 53.8836 389.421 62.285L391.942 81.3094C392.726 87.3397 388.712 92.9592 382.775 94.0794Z" fill="#FFC9BD"/>
<path d="M367.148 78.6406L367.223 81.7958C367.242 82.4492 367.802 82.9533 368.437 82.8973L370.061 82.7666" stroke="#131314" stroke-width="0.4495" stroke-miterlimit="10" stroke-linecap="round" stroke-linejoin="round"/>
<path d="M374.503 66.6359C374.503 66.6359 371.086 66.748 371.329 68.5589C371.329 68.5589 371.534 69.7911 374.503 69.6044C377.471 69.4364 378.199 69.0443 378.274 67.8495C378.367 66.6733 376.089 66.4306 374.503 66.6359Z" fill="black"/>
<path d="M361.492 70.7999C361.492 70.7999 364.199 70.0158 364.703 71.6961C364.703 71.6961 365.02 72.8349 362.63 73.4324C360.241 74.0485 359.382 73.7497 359.008 72.8536C358.579 71.8268 360.185 71.024 361.492 70.7999Z" fill="black"/>
<path d="M372.747 75.7303C372.897 76.4211 373.569 76.8318 374.241 76.6825C374.913 76.5331 375.342 75.861 375.193 75.1702C375.044 74.4794 374.372 74.0687 373.7 74.2181C373.009 74.3861 372.579 75.0582 372.747 75.7303Z" fill="black"/>
<path d="M361.64 77.3709C361.789 78.0617 362.461 78.4724 363.134 78.3231C363.806 78.1737 364.235 77.5016 364.086 76.8109C363.936 76.1201 363.264 75.7093 362.592 75.8587C361.901 76.0081 361.491 76.6988 361.64 77.3709Z" fill="black"/>
<path d="M386.472 74.1376C386.472 74.1376 380.274 73.4842 383.242 62.1144C383.242 62.1144 368.605 65.1575 364.965 54.7025L371.649 47.6641L386.584 50.3338L391.55 59.8367L390.86 68.2194L386.472 74.1376Z" fill="black"/>
<path d="M398.796 71.8249C399.431 75.2601 397.172 78.5833 393.774 79.2181C390.376 79.8529 387.09 77.5752 386.474 74.14C385.839 70.7047 388.098 67.3815 391.496 66.7468C394.894 66.112 398.18 68.3897 398.796 71.8249Z" fill="#FFC9BD"/>
<path d="M390.822 75.2442C390.822 75.2442 390.001 70.7262 394.407 70.6328" stroke="#131314" stroke-width="0.4495" stroke-miterlimit="10" stroke-linecap="round" stroke-linejoin="round"/>
<path d="M364.963 54.6895C364.963 54.6895 360.389 55.5296 358.41 60.4584L360.352 46.9603L369.313 43.8984L376.09 46.1201L374.933 54.7828L364.963 54.6895Z" fill="black"/>
<path d="M373.329 108.214L382.906 105.376L395.321 104.461L399.279 104.928C399.279 104.928 398.719 114.599 381.711 116.335C366.869 117.847 373.329 108.214 373.329 108.214Z" fill="#FFC9BD"/>
<path d="M567.831 348.156H122" stroke="#213033" stroke-width="1.0124" stroke-miterlimit="10"/>
<path d="M224.458 187.538L199.18 348.097H206.76L242.661 184.477L224.458 187.538Z" fill="#435D60"/>
<path d="M457.026 187.538L482.305 348.097H474.725L438.805 184.477L457.026 187.538Z" fill="#435D60"/>
<path d="M506.615 180.781H172.391V194.727H506.615V180.781Z" fill="#213033"/>
<path d="M246.302 155.99C246.302 155.99 250.054 179.233 232.71 180.092C215.348 180.951 219.455 155.766 219.455 155.766L246.302 155.99Z" fill="#FEFEFF"/>
<path d="M217.571 174.957C213.053 175.088 209.263 171.485 209.132 166.91C209.002 162.336 212.568 158.509 217.086 158.378C221.604 158.248 225.394 161.851 225.524 166.425C225.674 170.98 222.108 174.808 217.571 174.957ZM217.16 161.011C214.08 161.104 211.653 163.718 211.746 166.817C211.839 169.935 214.416 172.381 217.496 172.287C220.577 172.194 223.004 169.58 222.911 166.481C222.817 163.382 220.241 160.918 217.16 161.011Z" fill="#FEFEFF"/>
<path d="M235.996 139.522C235.996 139.522 244.192 127.424 234.111 120.106C221.845 111.219 239.189 94.2109 239.189 94.2109" stroke="#FEFEFF" stroke-width="0.7927" stroke-miterlimit="10"/>
<path d="M221.062 105.188C221.062 105.188 210.943 121.505 222.911 128.693C233.758 135.208 225.786 144.58 225.786 144.58" stroke="#FEFEFF" stroke-width="0.7927" stroke-miterlimit="10"/>
<circle cx="204" cy="106" r="29.5" fill="white" stroke="#58AA50"/>
<path d="M194.398 91.6016V119.502V120.402L214.498 120.102V115.902H198.898V108.102H209.398V103.302H198.898V97.0016H214.498V91.6016H194.398Z" fill="#F5942E"/>
<circle cx="119" cy="237" r="29.5" fill="white" stroke="#58AA50"/>
<path fill-rule="evenodd" clip-rule="evenodd" d="M120.038 261.005L118.76 260.568C118.76 260.568 118.916 254.054 116.579 253.587C115.021 251.779 116.829 176.912 122.439 253.337C122.439 253.337 120.506 254.303 120.163 255.956C119.789 257.576 120.038 261.005 120.038 261.005Z" fill="white"/>
<path fill-rule="evenodd" clip-rule="evenodd" d="M120.038 261.005L118.76 260.568C118.76 260.568 118.916 254.054 116.579 253.587C115.021 251.779 116.829 176.912 122.439 253.337C122.439 253.337 120.506 254.303 120.163 255.956C119.789 257.576 120.038 261.005 120.038 261.005Z" fill="#A6A385"/>
<path fill-rule="evenodd" clip-rule="evenodd" d="M120.725 254.703C120.725 254.703 131.915 247.348 129.297 232.044C126.772 220.917 120.819 217.27 120.164 215.868C119.448 214.87 118.762 213.125 118.762 213.125L119.23 244.075C119.23 244.106 118.263 253.55 120.726 254.704" fill="white"/>
<path fill-rule="evenodd" clip-rule="evenodd" d="M120.725 254.703C120.725 254.703 131.915 247.348 129.297 232.044C126.772 220.917 120.819 217.27 120.164 215.868C119.448 214.87 118.762 213.125 118.762 213.125L119.23 244.075C119.23 244.106 118.263 253.55 120.726 254.704" fill="#499D4A"/>
<path fill-rule="evenodd" clip-rule="evenodd" d="M118.107 255.108C118.107 255.108 107.602 247.94 108.226 235.317C108.818 222.694 116.236 216.491 117.67 215.369C118.605 214.372 118.636 213.997 118.699 213C119.353 214.403 119.229 233.977 119.322 236.283C119.602 245.166 118.823 253.426 118.107 255.108Z" fill="white"/>
<path fill-rule="evenodd" clip-rule="evenodd" d="M118.107 255.108C118.107 255.108 107.602 247.94 108.226 235.317C108.818 222.694 116.236 216.491 117.67 215.369C118.605 214.372 118.636 213.997 118.699 213C119.353 214.403 119.229 233.977 119.322 236.283C119.602 245.166 118.823 253.426 118.107 255.108Z" fill="#58AA50"/>
<circle cx="512" cy="104" r="29.5" fill="white" stroke="#58AA50"/>
<path d="M511.695 85.4017L494.598 91.5934L497.299 114.645L511.713 122.797L526.201 114.534L528.902 91.4838L511.695 85.4017Z" fill="#B3B3B3"/>
<path d="M527.198 92.8105L511.656 87.3568V120.844L524.681 113.426L527.198 92.8105Z" fill="#AF2B2D"/>
<path d="M496.516 92.9091L498.831 113.525L511.654 120.844V87.3562L496.516 92.9091Z" fill="#DF2E31"/>
<path d="M515.26 104.021L511.685 96.3406L508.539 104.021H515.26ZM516.622 107.251H507.148L505.029 112.706L501.086 112.781L511.657 88.5814L522.597 112.781H518.943L516.622 107.251Z" fill="#F2F2F2"/>
<path d="M511.656 88.5788L511.684 96.338L515.255 104.025H511.664L511.656 107.243L516.621 107.248L518.942 112.78L522.714 112.852L511.656 88.5788Z" fill="#B3B3B3"/>
<circle cx="579" cy="234" r="29.5" fill="white" stroke="#58AA50"/>
<path d="M579.298 259.195C578.655 259.195 578.017 259.027 577.453 258.702L571.581 255.226C570.704 254.735 571.132 254.562 571.421 254.462C572.591 254.052 572.828 253.96 574.076 253.251C574.207 253.176 574.379 253.203 574.513 253.282L579.024 255.959C579.187 256.047 579.418 256.047 579.569 255.959L597.158 245.806C597.321 245.714 597.427 245.524 597.427 245.331V225.034C597.427 224.832 597.321 224.651 597.155 224.55L579.573 214.406C579.41 214.309 579.194 214.309 579.031 214.406L561.453 224.55C561.283 224.647 561.174 224.836 561.174 225.03V245.326C561.174 245.52 561.28 245.705 561.447 245.797L566.264 248.58C568.879 249.888 570.477 248.347 570.477 246.797V226.764C570.477 226.478 570.702 226.258 570.988 226.258H573.216C573.493 226.258 573.722 226.478 573.722 226.764V246.806C573.722 250.293 571.82 252.296 568.514 252.296C567.497 252.296 566.695 252.296 564.459 251.195L559.845 248.536C558.704 247.875 558 246.643 558 245.326V225.03C558 223.709 558.704 222.476 559.845 221.825L577.451 211.668C578.565 211.038 580.044 211.038 581.15 211.668L598.734 221.829C599.87 222.485 600.579 223.713 600.579 225.034V245.331C600.579 246.647 599.87 247.875 598.734 248.536L581.15 258.693C580.586 259.019 579.948 259.186 579.296 259.186" fill="#689F63"/>
<path d="M584.724 245.206C577.028 245.206 575.414 241.673 575.414 238.71C575.414 238.428 575.641 238.203 575.923 238.203H578.195C578.446 238.203 578.658 238.386 578.697 238.634C579.041 240.949 580.062 242.117 584.716 242.117C588.423 242.117 589.999 241.279 589.999 239.313C589.999 238.182 589.55 237.341 583.791 236.777C578.975 236.302 575.998 235.241 575.998 231.388C575.998 227.84 578.992 225.727 584.007 225.727C589.638 225.727 592.429 227.681 592.781 231.882C592.795 232.027 592.742 232.168 592.645 232.273C592.548 232.375 592.412 232.436 592.271 232.436H589.986C589.748 232.436 589.541 232.269 589.493 232.04C588.942 229.605 587.613 228.826 583.998 228.826C579.952 228.826 579.481 230.235 579.481 231.292C579.481 232.573 580.036 232.947 585.495 233.669C590.902 234.387 593.468 235.399 593.468 239.199C593.468 243.029 590.272 245.226 584.698 245.226L584.724 245.206Z" fill="#689F63"/>
<path d="M81.7376 108.654V110.667H71.9541V108.654H81.7376ZM72.449 92V110.667H70V92H72.449ZM80.4433 100.026V102.038H71.9541V100.026H80.4433ZM81.6107 92V94.0256H71.9541V92H81.6107Z" fill="black"/>
<path d="M86.0012 96.7949L89.0085 101.846L92.0539 96.7949H94.8075L90.3155 103.641L94.9471 110.667H92.2316L89.0593 105.462L85.887 110.667H83.1588L87.7776 103.641L83.2983 96.7949H86.0012Z" fill="black"/>
<path d="M99.6548 99.4615V116H97.2946V96.7949H99.4518L99.6548 99.4615ZM108.905 103.615V103.885C108.905 104.893 108.787 105.829 108.55 106.692C108.313 107.547 107.966 108.291 107.509 108.923C107.061 109.556 106.507 110.047 105.847 110.397C105.187 110.748 104.43 110.923 103.576 110.923C102.704 110.923 101.935 110.778 101.266 110.487C100.598 110.197 100.031 109.774 99.566 109.218C99.1007 108.662 98.7285 107.996 98.4493 107.218C98.1786 106.44 97.9925 105.564 97.891 104.59V103.154C97.9925 102.128 98.1828 101.209 98.462 100.397C98.7412 99.5855 99.1092 98.8932 99.566 98.3205C100.031 97.7393 100.594 97.2991 101.254 97C101.913 96.6923 102.675 96.5385 103.538 96.5385C104.401 96.5385 105.166 96.7094 105.834 97.0513C106.503 97.3846 107.065 97.8632 107.522 98.4872C107.979 99.1111 108.322 99.859 108.55 100.731C108.787 101.594 108.905 102.556 108.905 103.615ZM106.545 103.885V103.615C106.545 102.923 106.473 102.274 106.329 101.667C106.186 101.051 105.961 100.513 105.657 100.051C105.361 99.5812 104.98 99.2137 104.515 98.9487C104.05 98.6752 103.495 98.5385 102.852 98.5385C102.26 98.5385 101.744 98.641 101.304 98.8462C100.873 99.0513 100.505 99.3291 100.2 99.6795C99.8959 100.021 99.6463 100.415 99.4518 100.859C99.2657 101.295 99.1261 101.748 99.033 102.218V105.538C99.2022 106.137 99.4391 106.701 99.7436 107.231C100.048 107.752 100.454 108.175 100.962 108.5C101.469 108.816 102.108 108.974 102.878 108.974C103.512 108.974 104.058 108.842 104.515 108.577C104.98 108.303 105.361 107.932 105.657 107.462C105.961 106.991 106.186 106.453 106.329 105.846C106.473 105.231 106.545 104.577 106.545 103.885Z" fill="black"/>
<path d="M114.247 98.9744V110.667H111.9V96.7949H114.184L114.247 98.9744ZM118.536 96.7179L118.524 98.9231C118.329 98.8803 118.143 98.8547 117.965 98.8462C117.796 98.8291 117.602 98.8205 117.382 98.8205C116.84 98.8205 116.362 98.906 115.948 99.0769C115.533 99.2479 115.182 99.4872 114.895 99.7949C114.607 100.103 114.379 100.47 114.209 100.897C114.049 101.316 113.943 101.778 113.892 102.282L113.232 102.667C113.232 101.829 113.313 101.043 113.473 100.308C113.643 99.5726 113.901 98.9231 114.247 98.359C114.594 97.7863 115.034 97.3419 115.567 97.0256C116.109 96.7009 116.751 96.5385 117.496 96.5385C117.665 96.5385 117.86 96.5598 118.08 96.6026C118.3 96.6368 118.452 96.6752 118.536 96.7179Z" fill="black"/>
<path d="M126.15 110.923C125.194 110.923 124.327 110.761 123.549 110.436C122.779 110.103 122.115 109.637 121.556 109.038C121.007 108.44 120.584 107.731 120.288 106.91C119.991 106.09 119.843 105.192 119.843 104.218V103.679C119.843 102.551 120.008 101.547 120.338 100.667C120.668 99.7778 121.117 99.0256 121.683 98.4103C122.25 97.7949 122.893 97.3291 123.612 97.0128C124.331 96.6966 125.076 96.5385 125.845 96.5385C126.827 96.5385 127.673 96.7094 128.383 97.0513C129.102 97.3932 129.69 97.8718 130.147 98.4872C130.604 99.094 130.942 99.812 131.162 100.641C131.382 101.462 131.492 102.359 131.492 103.333V104.397H121.239V102.462H129.145V102.282C129.111 101.667 128.984 101.068 128.764 100.487C128.552 99.906 128.214 99.4274 127.749 99.0513C127.284 98.6752 126.649 98.4872 125.845 98.4872C125.312 98.4872 124.822 98.6026 124.373 98.8333C123.925 99.0556 123.54 99.3889 123.219 99.8333C122.897 100.278 122.648 100.821 122.47 101.462C122.292 102.103 122.204 102.842 122.204 103.679V104.218C122.204 104.876 122.292 105.496 122.47 106.077C122.656 106.65 122.923 107.154 123.27 107.59C123.625 108.026 124.052 108.368 124.551 108.615C125.059 108.863 125.634 108.987 126.277 108.987C127.106 108.987 127.808 108.816 128.383 108.474C128.959 108.132 129.462 107.675 129.893 107.103L131.314 108.244C131.018 108.697 130.642 109.128 130.185 109.538C129.728 109.949 129.166 110.282 128.497 110.538C127.838 110.795 127.055 110.923 126.15 110.923Z" fill="black"/>
<path d="M142.227 106.987C142.227 106.645 142.151 106.329 141.999 106.038C141.855 105.739 141.555 105.47 141.098 105.231C140.65 104.983 139.973 104.769 139.068 104.59C138.306 104.427 137.617 104.235 136.999 104.013C136.39 103.791 135.87 103.521 135.438 103.205C135.016 102.889 134.69 102.517 134.461 102.09C134.233 101.662 134.119 101.162 134.119 100.59C134.119 100.043 134.237 99.5256 134.474 99.0385C134.719 98.5513 135.062 98.1197 135.502 97.7436C135.95 97.3675 136.487 97.0726 137.113 96.859C137.739 96.6453 138.437 96.5385 139.207 96.5385C140.307 96.5385 141.246 96.735 142.024 97.1282C142.802 97.5214 143.399 98.047 143.813 98.7051C144.228 99.3547 144.435 100.077 144.435 100.872H142.088C142.088 100.487 141.973 100.115 141.745 99.7564C141.525 99.3889 141.199 99.0855 140.768 98.8462C140.345 98.6068 139.825 98.4872 139.207 98.4872C138.556 98.4872 138.027 98.5897 137.621 98.7949C137.223 98.9915 136.932 99.2436 136.745 99.5513C136.568 99.859 136.479 100.184 136.479 100.526C136.479 100.782 136.521 101.013 136.606 101.218C136.699 101.415 136.86 101.598 137.088 101.769C137.317 101.932 137.638 102.085 138.052 102.231C138.467 102.376 138.996 102.521 139.639 102.667C140.764 102.923 141.69 103.231 142.418 103.59C143.145 103.949 143.687 104.389 144.042 104.91C144.397 105.432 144.575 106.064 144.575 106.808C144.575 107.415 144.448 107.97 144.194 108.474C143.949 108.979 143.589 109.415 143.116 109.782C142.65 110.141 142.092 110.423 141.441 110.628C140.798 110.825 140.074 110.923 139.271 110.923C138.061 110.923 137.037 110.705 136.2 110.269C135.362 109.833 134.728 109.269 134.296 108.577C133.865 107.885 133.649 107.154 133.649 106.385H136.01C136.043 107.034 136.229 107.551 136.568 107.936C136.906 108.312 137.321 108.581 137.811 108.744C138.302 108.897 138.788 108.974 139.271 108.974C139.914 108.974 140.451 108.889 140.882 108.718C141.322 108.547 141.656 108.312 141.885 108.013C142.113 107.714 142.227 107.372 142.227 106.987Z" fill="black"/>
<path d="M155.652 106.987C155.652 106.645 155.576 106.329 155.424 106.038C155.28 105.739 154.98 105.47 154.523 105.231C154.075 104.983 153.398 104.769 152.493 104.59C151.732 104.427 151.042 104.235 150.425 104.013C149.815 103.791 149.295 103.521 148.864 103.205C148.441 102.889 148.115 102.517 147.887 102.09C147.658 101.662 147.544 101.162 147.544 100.59C147.544 100.043 147.662 99.5256 147.899 99.0385C148.145 98.5513 148.487 98.1197 148.927 97.7436C149.376 97.3675 149.913 97.0726 150.539 96.859C151.165 96.6453 151.863 96.5385 152.632 96.5385C153.732 96.5385 154.671 96.735 155.449 97.1282C156.228 97.5214 156.824 98.047 157.239 98.7051C157.653 99.3547 157.86 100.077 157.86 100.872H155.513C155.513 100.487 155.399 100.115 155.17 99.7564C154.95 99.3889 154.625 99.0855 154.193 98.8462C153.77 98.6068 153.25 98.4872 152.632 98.4872C151.981 98.4872 151.452 98.5897 151.046 98.7949C150.649 98.9915 150.357 99.2436 150.171 99.5513C149.993 99.859 149.904 100.184 149.904 100.526C149.904 100.782 149.947 101.013 150.031 101.218C150.124 101.415 150.285 101.598 150.513 101.769C150.742 101.932 151.063 102.085 151.478 102.231C151.892 102.376 152.421 102.521 153.064 102.667C154.189 102.923 155.115 103.231 155.843 103.59C156.57 103.949 157.112 104.389 157.467 104.91C157.822 105.432 158 106.064 158 106.808C158 107.415 157.873 107.97 157.619 108.474C157.374 108.979 157.014 109.415 156.541 109.782C156.075 110.141 155.517 110.423 154.866 110.628C154.223 110.825 153.5 110.923 152.696 110.923C151.486 110.923 150.463 110.705 149.625 110.269C148.788 109.833 148.153 109.269 147.722 108.577C147.29 107.885 147.075 107.154 147.075 106.385H149.435C149.469 107.034 149.655 107.551 149.993 107.936C150.331 108.312 150.746 108.581 151.237 108.744C151.727 108.897 152.214 108.974 152.696 108.974C153.339 108.974 153.876 108.889 154.307 108.718C154.747 108.547 155.081 108.312 155.31 108.013C155.538 107.714 155.652 107.372 155.652 106.987Z" fill="black"/>
<path d="M557.099 91.6483L551.35 108.463H549L555.62 90.0137H557.135L557.099 91.6483ZM561.918 108.463L556.157 91.6483L556.121 90.0137H557.636L564.279 108.463H561.918ZM561.619 101.633V103.635H551.863V101.633H561.619Z" fill="black"/>
<path d="M568.478 97.6797V108.463H566.271V94.7527H568.358L568.478 97.6797ZM567.953 101.088L567.034 101.05C567.042 100.113 567.174 99.2467 567.428 98.4526C567.682 97.6501 568.04 96.9532 568.502 96.3619C568.963 95.7706 569.511 95.3144 570.148 94.9934C570.792 94.664 571.503 94.4992 572.283 94.4992C572.919 94.4992 573.491 94.5922 574 94.778C574.509 94.9554 574.942 95.2426 575.3 95.6396C575.666 96.0367 575.944 96.552 576.135 97.1855C576.326 97.8106 576.421 98.5751 576.421 99.479V108.463H574.203V99.4536C574.203 98.7356 574.103 98.1612 573.905 97.7304C573.706 97.2911 573.416 96.9743 573.034 96.78C572.652 96.5773 572.183 96.4759 571.627 96.4759C571.078 96.4759 570.577 96.5984 570.124 96.8434C569.678 97.0884 569.293 97.4263 568.967 97.8571C568.649 98.2879 568.398 98.7821 568.215 99.3396C568.04 99.8887 567.953 100.472 567.953 101.088Z" fill="black"/>
<path d="M588.134 94.7527H590.138V108.171C590.138 109.379 589.907 110.41 589.446 111.263C588.985 112.116 588.341 112.762 587.514 113.202C586.695 113.649 585.749 113.873 584.675 113.873C584.23 113.873 583.705 113.797 583.101 113.645C582.504 113.502 581.916 113.252 581.336 112.898C580.763 112.551 580.282 112.082 579.892 111.491L581.049 110.097C581.59 110.79 582.155 111.271 582.743 111.542C583.339 111.812 583.928 111.947 584.508 111.947C585.208 111.947 585.812 111.808 586.321 111.529C586.83 111.25 587.224 110.836 587.502 110.287C587.788 109.747 587.931 109.079 587.931 108.285V97.7684L588.134 94.7527ZM579.248 101.76V101.494C579.248 100.446 579.364 99.4959 579.594 98.6427C579.833 97.781 580.171 97.0419 580.608 96.4252C581.053 95.8086 581.59 95.3355 582.218 95.0061C582.846 94.6682 583.554 94.4992 584.341 94.4992C585.152 94.4992 585.86 94.6513 586.464 94.9554C587.077 95.2511 587.594 95.6861 588.015 96.2605C588.444 96.8265 588.782 97.5107 589.029 98.3132C589.275 99.1157 589.446 100.024 589.542 101.038V102.203C589.454 103.208 589.283 104.112 589.029 104.915C588.782 105.717 588.444 106.402 588.015 106.968C587.594 107.534 587.077 107.969 586.464 108.273C585.852 108.568 585.136 108.716 584.317 108.716C583.546 108.716 582.846 108.543 582.218 108.197C581.598 107.85 581.065 107.365 580.62 106.739C580.175 106.114 579.833 105.379 579.594 104.535C579.364 103.682 579.248 102.757 579.248 101.76ZM581.455 101.494V101.76C581.455 102.444 581.518 103.086 581.646 103.686C581.781 104.286 581.984 104.813 582.254 105.27C582.532 105.726 582.886 106.085 583.316 106.347C583.745 106.6 584.258 106.727 584.854 106.727C585.586 106.727 586.19 106.562 586.667 106.233C587.144 105.903 587.522 105.468 587.8 104.928C588.087 104.387 588.309 103.8 588.468 103.166V100.113C588.381 99.6479 588.246 99.2002 588.063 98.7694C587.888 98.3301 587.657 97.9415 587.371 97.6036C587.093 97.2573 586.747 96.9828 586.333 96.78C585.92 96.5773 585.435 96.4759 584.878 96.4759C584.274 96.4759 583.753 96.6111 583.316 96.8814C582.886 97.1433 582.532 97.5065 582.254 97.9711C581.984 98.4273 581.781 98.9595 581.646 99.5677C581.518 100.167 581.455 100.809 581.455 101.494Z" fill="black"/>
<path d="M601.386 105.295V94.7527H603.604V108.463H601.493L601.386 105.295ZM601.803 102.406L602.722 102.381C602.722 103.293 602.63 104.138 602.447 104.915C602.272 105.684 601.986 106.351 601.589 106.917C601.191 107.483 600.67 107.926 600.026 108.247C599.382 108.56 598.599 108.716 597.676 108.716C597.048 108.716 596.472 108.619 595.947 108.425C595.43 108.23 594.985 107.931 594.611 107.525C594.237 107.12 593.947 106.592 593.74 105.941C593.541 105.291 593.442 104.509 593.442 103.597V94.7527H595.649V103.622C595.649 104.239 595.712 104.75 595.839 105.156C595.975 105.553 596.154 105.869 596.376 106.106C596.607 106.334 596.861 106.495 597.14 106.587C597.426 106.68 597.72 106.727 598.022 106.727C598.96 106.727 599.704 106.537 600.253 106.157C600.801 105.768 601.195 105.249 601.433 104.598C601.68 103.939 601.803 103.208 601.803 102.406Z" fill="black"/>
<path d="M609.365 89V108.463H607.147V89H609.365Z" fill="black"/>
<path d="M620.517 106.119V99.0608C620.517 98.5202 620.414 98.0514 620.207 97.6543C620.009 97.2489 619.706 96.9363 619.301 96.7167C618.895 96.497 618.394 96.3872 617.798 96.3872C617.241 96.3872 616.752 96.4886 616.331 96.6913C615.917 96.8941 615.591 97.1602 615.353 97.4896C615.122 97.8191 615.007 98.1738 615.007 98.554H612.8C612.8 98.064 612.92 97.5783 613.158 97.0968C613.397 96.6153 613.739 96.1803 614.184 95.7917C614.637 95.3947 615.178 95.0821 615.806 94.854C616.442 94.6175 617.15 94.4992 617.929 94.4992C618.868 94.4992 619.694 94.6682 620.41 95.0061C621.134 95.344 621.698 95.855 622.104 96.5393C622.517 97.2151 622.724 98.064 622.724 99.0862V105.472C622.724 105.929 622.76 106.414 622.831 106.93C622.911 107.445 623.026 107.888 623.177 108.26V108.463H620.875C620.764 108.192 620.677 107.833 620.613 107.386C620.549 106.93 620.517 106.507 620.517 106.119ZM620.899 100.151L620.923 101.798H618.693C618.064 101.798 617.504 101.853 617.011 101.962C616.518 102.064 616.104 102.22 615.77 102.431C615.436 102.643 615.182 102.909 615.007 103.23C614.832 103.542 614.745 103.91 614.745 104.332C614.745 104.763 614.836 105.156 615.019 105.51C615.202 105.865 615.476 106.148 615.842 106.359C616.216 106.562 616.673 106.663 617.214 106.663C617.889 106.663 618.486 106.511 619.003 106.207C619.52 105.903 619.929 105.532 620.231 105.092C620.541 104.653 620.708 104.226 620.732 103.812L621.674 104.94C621.619 105.295 621.468 105.688 621.221 106.119C620.975 106.549 620.645 106.963 620.231 107.36C619.826 107.749 619.341 108.074 618.776 108.336C618.219 108.589 617.591 108.716 616.892 108.716C616.017 108.716 615.25 108.535 614.59 108.171C613.937 107.808 613.429 107.322 613.063 106.714C612.705 106.097 612.526 105.409 612.526 104.649C612.526 103.914 612.661 103.268 612.932 102.71C613.202 102.144 613.592 101.675 614.1 101.304C614.609 100.923 615.222 100.636 615.937 100.442C616.653 100.248 617.452 100.151 618.335 100.151H620.899Z" fill="black"/>
<path d="M628.402 96.9067V108.463H626.195V94.7527H628.342L628.402 96.9067ZM632.433 94.6766L632.421 96.8561C632.238 96.8138 632.063 96.7885 631.896 96.78C631.737 96.7631 631.554 96.7547 631.348 96.7547C630.839 96.7547 630.39 96.8392 630 97.0081C629.61 97.1771 629.28 97.4136 629.01 97.7177C628.74 98.0218 628.525 98.385 628.366 98.8074C628.215 99.2213 628.115 99.6775 628.068 100.176L627.447 100.556C627.447 99.7282 627.523 98.951 627.674 98.2245C627.833 97.4981 628.076 96.8561 628.402 96.2985C628.728 95.7326 629.141 95.2933 629.642 94.9807C630.151 94.6597 630.755 94.4992 631.455 94.4992C631.614 94.4992 631.797 94.5204 632.004 94.5626C632.21 94.5964 632.354 94.6344 632.433 94.6766Z" fill="black"/>
<path d="M633.029 107.221C633.029 106.824 633.145 106.49 633.375 106.22C633.614 105.941 633.956 105.802 634.401 105.802C634.846 105.802 635.184 105.941 635.415 106.22C635.654 106.49 635.773 106.824 635.773 107.221C635.773 107.61 635.654 107.939 635.415 108.209C635.184 108.48 634.846 108.615 634.401 108.615C633.956 108.615 633.614 108.48 633.375 108.209C633.145 107.939 633.029 107.61 633.029 107.221Z" fill="black"/>
<path d="M639.494 94.7527H641.713V110.097C641.713 110.934 641.586 111.643 641.331 112.226C641.085 112.809 640.711 113.248 640.21 113.544C639.717 113.848 639.093 114 638.337 114C638.138 114 637.908 113.979 637.645 113.937C637.375 113.894 637.148 113.844 636.966 113.785L636.977 111.897C637.129 111.93 637.3 111.956 637.49 111.973C637.681 111.998 637.848 112.011 637.991 112.011C638.317 112.011 638.592 111.947 638.814 111.821C639.037 111.694 639.204 111.491 639.315 111.212C639.435 110.934 639.494 110.562 639.494 110.097V94.7527ZM639.268 91.1161C639.268 90.7359 639.379 90.4149 639.602 90.1531C639.824 89.8912 640.146 89.7603 640.568 89.7603C640.997 89.7603 641.323 89.8912 641.546 90.1531C641.768 90.4149 641.88 90.7359 641.88 91.1161C641.88 91.4793 641.768 91.7919 641.546 92.0537C641.323 92.3071 640.997 92.4339 640.568 92.4339C640.146 92.4339 639.824 92.3071 639.602 92.0537C639.379 91.7919 639.268 91.4793 639.268 91.1161Z" fill="black"/>
<path d="M652.793 104.826C652.793 104.488 652.722 104.176 652.579 103.888C652.444 103.593 652.161 103.327 651.732 103.09C651.31 102.845 650.674 102.634 649.823 102.457C649.108 102.296 648.46 102.106 647.879 101.886C647.307 101.667 646.818 101.401 646.412 101.088C646.015 100.776 645.708 100.408 645.494 99.9858C645.279 99.5634 645.172 99.0693 645.172 98.5033C645.172 97.9627 645.283 97.4516 645.506 96.9701C645.736 96.4886 646.058 96.062 646.472 95.6903C646.893 95.3186 647.398 95.0272 647.987 94.816C648.575 94.6048 649.231 94.4992 649.955 94.4992C650.988 94.4992 651.871 94.6935 652.603 95.0821C653.334 95.4707 653.895 95.9902 654.284 96.6406C654.674 97.2826 654.869 97.9965 654.869 98.7821H652.662C652.662 98.4019 652.555 98.0345 652.34 97.6797C652.133 97.3164 651.827 97.0166 651.422 96.78C651.024 96.5435 650.535 96.4252 649.955 96.4252C649.342 96.4252 648.845 96.5266 648.464 96.7293C648.09 96.9236 647.816 97.1728 647.641 97.4769C647.474 97.781 647.39 98.102 647.39 98.4399C647.39 98.6934 647.43 98.9214 647.51 99.1242C647.597 99.3185 647.748 99.5001 647.963 99.669C648.177 99.8295 648.48 99.9816 648.869 100.125C649.259 100.269 649.756 100.412 650.36 100.556C651.418 100.809 652.288 101.114 652.972 101.468C653.656 101.823 654.165 102.258 654.499 102.773C654.833 103.289 655 103.914 655 104.649C655 105.249 654.881 105.798 654.642 106.296C654.412 106.794 654.074 107.225 653.628 107.588C653.191 107.943 652.666 108.222 652.054 108.425C651.45 108.619 650.77 108.716 650.014 108.716C648.877 108.716 647.915 108.501 647.128 108.07C646.341 107.639 645.744 107.082 645.339 106.397C644.933 105.713 644.73 104.991 644.73 104.231H646.949C646.981 104.873 647.156 105.384 647.474 105.764C647.792 106.135 648.181 106.402 648.643 106.562C649.104 106.714 649.561 106.79 650.014 106.79C650.619 106.79 651.124 106.706 651.529 106.537C651.943 106.368 652.257 106.135 652.471 105.84C652.686 105.544 652.793 105.206 652.793 104.826Z" fill="black"/>
<path d="M15.3951 233.054V252.241H13.0749L4.30827 237.442V252.241H2V233.054H4.30827L13.1108 247.893V233.054H15.3951Z" fill="black"/>
<path d="M18.5645 245.27V244.967C18.5645 243.939 18.7001 242.986 18.9711 242.107C19.2422 241.22 19.6329 240.451 20.1432 239.801C20.6535 239.142 21.2714 238.633 21.997 238.273C22.7226 237.904 23.5359 237.719 24.4368 237.719C25.3458 237.719 26.1631 237.904 26.8886 238.273C27.6222 238.633 28.2441 239.142 28.7544 239.801C29.2726 240.451 29.6673 241.22 29.9384 242.107C30.2095 242.986 30.345 243.939 30.345 244.967V245.27C30.345 246.298 30.2095 247.251 29.9384 248.13C29.6673 249.008 29.2726 249.777 28.7544 250.436C28.2441 251.086 27.6262 251.596 26.9006 251.965C26.183 252.325 25.3697 252.505 24.4608 252.505C23.5518 252.505 22.7345 252.325 22.009 251.965C21.2834 251.596 20.6615 251.086 20.1432 250.436C19.6329 249.777 19.2422 249.008 18.9711 248.13C18.7001 247.251 18.5645 246.298 18.5645 245.27ZM20.7771 244.967V245.27C20.7771 245.982 20.8528 246.654 21.0043 247.286C21.1558 247.91 21.3831 248.464 21.6861 248.947C21.997 249.43 22.3837 249.812 22.8462 250.093C23.3086 250.366 23.8468 250.502 24.4608 250.502C25.0667 250.502 25.5969 250.366 26.0514 250.093C26.5139 249.812 26.8966 249.43 27.1996 248.947C27.5026 248.464 27.7298 247.91 27.8813 247.286C28.0408 246.654 28.1205 245.982 28.1205 245.27V244.967C28.1205 244.264 28.0408 243.601 27.8813 242.977C27.7298 242.345 27.4986 241.787 27.1876 241.304C26.8846 240.812 26.5019 240.425 26.0395 240.144C25.585 239.863 25.0508 239.722 24.4368 239.722C23.8309 239.722 23.2967 239.863 22.8342 240.144C22.3797 240.425 21.997 240.812 21.6861 241.304C21.3831 241.787 21.1558 242.345 21.0043 242.977C20.8528 243.601 20.7771 244.264 20.7771 244.967Z" fill="black"/>
<path d="M41.2764 249.474V232H43.501V252.241H41.4678L41.2764 249.474ZM32.5696 245.27V244.993C32.5696 243.904 32.6892 242.916 32.9284 242.028C33.1756 241.132 33.5224 240.364 33.9689 239.722C34.4234 239.081 34.9616 238.589 35.5835 238.246C36.2134 237.895 36.915 237.719 37.6884 237.719C38.5017 237.719 39.2113 237.877 39.8173 238.194C40.4313 238.501 40.9495 238.954 41.3721 239.551C41.8027 240.14 42.1415 240.851 42.3887 241.686C42.6359 242.52 42.8073 243.465 42.903 244.519V245.731C42.8153 246.777 42.6438 247.717 42.3887 248.551C42.1415 249.386 41.8027 250.098 41.3721 250.686C40.9495 251.275 40.4313 251.727 39.8173 252.044C39.2034 252.351 38.4858 252.505 37.6645 252.505C36.9071 252.505 36.2134 252.325 35.5835 251.965C34.9616 251.604 34.4234 251.099 33.9689 250.449C33.5224 249.799 33.1756 249.035 32.9284 248.156C32.6892 247.269 32.5696 246.307 32.5696 245.27ZM34.7941 244.993V245.27C34.7941 245.982 34.8579 246.649 34.9855 247.273C35.121 247.897 35.3284 248.446 35.6074 248.92C35.8865 249.395 36.2413 249.768 36.6718 250.041C37.1024 250.304 37.6167 250.436 38.2147 250.436C38.9482 250.436 39.5502 250.265 40.0206 249.922C40.499 249.579 40.8817 249.127 41.1688 248.565C41.4558 248.002 41.6791 247.392 41.8385 246.733V243.557C41.7429 243.074 41.6033 242.608 41.4199 242.16C41.2445 241.703 41.0133 241.299 40.7263 240.948C40.4472 240.588 40.1004 240.302 39.6858 240.091C39.2791 239.88 38.7967 239.775 38.2386 239.775C37.6326 239.775 37.1104 239.916 36.6718 240.197C36.2413 240.469 35.8865 240.847 35.6074 241.33C35.3284 241.804 35.121 242.358 34.9855 242.99C34.8579 243.614 34.7941 244.282 34.7941 244.993Z" fill="black"/>
<path d="M52.3154 252.505C51.4145 252.505 50.5972 252.338 49.8637 252.004C49.1381 251.661 48.5122 251.183 47.9859 250.568C47.4677 249.953 47.069 249.224 46.79 248.38C46.5109 247.537 46.3714 246.614 46.3714 245.613V245.059C46.3714 243.9 46.5268 242.867 46.8378 241.962C47.1488 241.049 47.5713 240.276 48.1055 239.643C48.6398 239.011 49.2457 238.532 49.9235 238.207C50.6012 237.882 51.3028 237.719 52.0284 237.719C52.9533 237.719 53.7506 237.895 54.4204 238.246C55.0981 238.598 55.6523 239.09 56.0828 239.722C56.5134 240.346 56.8323 241.084 57.0396 241.936C57.2469 242.78 57.3506 243.702 57.3506 244.703V245.797H47.6869V243.807H55.138V243.623C55.1061 242.99 54.9865 242.375 54.7792 241.778C54.5799 241.181 54.2609 240.689 53.8224 240.302C53.3839 239.916 52.7859 239.722 52.0284 239.722C51.5261 239.722 51.0636 239.841 50.641 240.078C50.2185 240.306 49.8557 240.649 49.5527 241.106C49.2497 241.563 49.0145 242.121 48.8471 242.78C48.6796 243.438 48.5959 244.198 48.5959 245.059V245.613C48.5959 246.289 48.6796 246.926 48.8471 247.524C49.0225 248.112 49.2736 248.631 49.6005 249.079C49.9354 249.527 50.3381 249.878 50.8085 250.133C51.2869 250.388 51.8291 250.515 52.435 250.515C53.2164 250.515 53.8782 250.339 54.4204 249.988C54.9626 249.636 55.437 249.166 55.8436 248.578L57.1831 249.751C56.9041 250.216 56.5493 250.66 56.1187 251.082C55.6881 251.503 55.1579 251.846 54.528 252.109C53.9061 252.373 53.1686 252.505 52.3154 252.505Z" fill="black"/>
<path d="M59.9698 250.95C59.9698 250.537 60.0854 250.19 60.3166 249.909C60.5558 249.619 60.8987 249.474 61.3452 249.474C61.7917 249.474 62.1306 249.619 62.3618 249.909C62.601 250.19 62.7206 250.537 62.7206 250.95C62.7206 251.354 62.601 251.697 62.3618 251.978C62.1306 252.259 61.7917 252.399 61.3452 252.399C60.8987 252.399 60.5558 252.259 60.3166 251.978C60.0854 251.697 59.9698 251.354 59.9698 250.95Z" fill="black"/>
<path d="M66.4521 237.983H68.6766V253.941C68.6766 254.811 68.5491 255.549 68.2939 256.155C68.0467 256.761 67.672 257.218 67.1697 257.526C66.6753 257.842 66.0494 258 65.292 258C65.0926 258 64.8614 257.978 64.5983 257.934C64.3272 257.89 64.1 257.837 63.9166 257.776L63.9285 255.812C64.08 255.848 64.2515 255.874 64.4428 255.892C64.6342 255.918 64.8016 255.931 64.9451 255.931C65.272 255.931 65.5471 255.865 65.7704 255.733C65.9936 255.602 66.1611 255.391 66.2727 255.101C66.3923 254.811 66.4521 254.424 66.4521 253.941V237.983ZM66.2248 234.201C66.2248 233.805 66.3365 233.472 66.5597 233.199C66.783 232.927 67.1059 232.791 67.5285 232.791C67.959 232.791 68.2859 232.927 68.5092 233.199C68.7324 233.472 68.8441 233.805 68.8441 234.201C68.8441 234.578 68.7324 234.904 68.5092 235.176C68.2859 235.439 67.959 235.571 67.5285 235.571C67.1059 235.571 66.783 235.439 66.5597 235.176C66.3365 234.904 66.2248 234.578 66.2248 234.201Z" fill="black"/>
<path d="M79.7874 248.459C79.7874 248.108 79.7157 247.783 79.5721 247.484C79.4366 247.177 79.1535 246.9 78.723 246.654C78.3004 246.399 77.6625 246.179 76.8094 245.995C76.0918 245.828 75.442 245.63 74.8599 245.402C74.2858 245.174 73.7955 244.897 73.3888 244.572C72.9902 244.247 72.6832 243.865 72.4679 243.425C72.2526 242.986 72.145 242.472 72.145 241.883C72.145 241.321 72.2566 240.79 72.4799 240.289C72.7111 239.788 73.034 239.344 73.4486 238.958C73.8712 238.571 74.3775 238.268 74.9676 238.049C75.5576 237.829 76.2154 237.719 76.9409 237.719C77.9775 237.719 78.8625 237.921 79.596 238.325C80.3296 238.73 80.8917 239.27 81.2824 239.946C81.6731 240.614 81.8684 241.356 81.8684 242.173H79.6558C79.6558 241.778 79.5482 241.396 79.3329 241.027C79.1256 240.649 78.8187 240.337 78.412 240.091C78.0134 239.845 77.523 239.722 76.9409 239.722C76.327 239.722 75.8287 239.828 75.446 240.039C75.0712 240.241 74.7961 240.5 74.6207 240.816C74.4533 241.132 74.3696 241.466 74.3696 241.818C74.3696 242.081 74.4094 242.318 74.4892 242.529C74.5769 242.731 74.7284 242.92 74.9436 243.096C75.1589 243.263 75.4619 243.421 75.8526 243.57C76.2433 243.72 76.7416 243.869 77.3476 244.018C78.408 244.282 79.2811 244.598 79.9668 244.967C80.6525 245.336 81.1628 245.788 81.4977 246.324C81.8326 246.86 82 247.51 82 248.275C82 248.898 81.8804 249.47 81.6412 249.988C81.41 250.506 81.0711 250.954 80.6246 251.332C80.1861 251.701 79.6598 251.991 79.0459 252.202C78.4399 252.404 77.7582 252.505 77.0007 252.505C75.8606 252.505 74.8958 252.281 74.1064 251.833C73.3171 251.385 72.7191 250.805 72.3124 250.093C71.9058 249.382 71.7025 248.631 71.7025 247.84H73.927C73.9589 248.508 74.1343 249.039 74.4533 249.434C74.7722 249.821 75.1629 250.098 75.6254 250.265C76.0878 250.423 76.5463 250.502 77.0007 250.502C77.6067 250.502 78.113 250.414 78.5197 250.238C78.9343 250.063 79.2492 249.821 79.4645 249.513C79.6798 249.206 79.7874 248.855 79.7874 248.459Z" fill="black"/>
</g>
<defs>
<clipPath id="clip0_2458_6686">
<rect width="690" height="350" fill="white"/>
</clipPath>
</defs>
</svg>
