<svg width="690" height="350" viewBox="0 0 690 350" fill="none" xmlns="http://www.w3.org/2000/svg">
<g clip-path="url(#clip0_2378_254)">
<path d="M405.47 52.0262V26.9141H139.106V38.0815V104.183H94.5625V188.286H149.953" stroke="#0024A8" stroke-width="1.07" stroke-miterlimit="10" stroke-dasharray="3.2 3.2"/>
<path d="M117.695 239.307V237.969" stroke="#0024A8" stroke-width="1.07" stroke-miterlimit="10"/>
<path d="M117.695 235.445V206.352" stroke="#0024A8" stroke-width="1.07" stroke-miterlimit="10" stroke-dasharray="3.02 3.02"/>
<path d="M117.697 205.08V203.75H116.359" stroke="#0024A8" stroke-width="1.07" stroke-miterlimit="10"/>
<path d="M113.829 203.75H74.6094" stroke="#0024A8" stroke-width="1.07" stroke-miterlimit="10" stroke-dasharray="3.03 3.03"/>
<path d="M73.3371 203.745H72V202.406" stroke="#0024A8" stroke-width="1.07" stroke-miterlimit="10"/>
<path d="M72 199.693V157.625" stroke="#0024A8" stroke-width="1.07" stroke-miterlimit="10" stroke-dasharray="3.24 3.24"/>
<path d="M72 156.26V154.922H73.3371" stroke="#0024A8" stroke-width="1.07" stroke-miterlimit="10"/>
<path d="M75.9219 154.922H126.215" stroke="#0024A8" stroke-width="1.07" stroke-miterlimit="10" stroke-dasharray="3.09 3.09"/>
<path d="M127.5 154.917H128.837V153.578" stroke="#0024A8" stroke-width="1.07" stroke-miterlimit="10"/>
<path d="M128.836 150.944V41.3438" stroke="#0024A8" stroke-width="1.07" stroke-miterlimit="10" stroke-dasharray="3.16 3.16"/>
<path d="M128.836 40.0337V38.6953H130.173" stroke="#0024A8" stroke-width="1.07" stroke-miterlimit="10"/>
<path d="M132.867 38.6953H223.124" stroke="#0024A8" stroke-width="1.07" stroke-miterlimit="10" stroke-dasharray="3.22 3.22"/>
<path d="M224.469 38.6978H225.806V37.3594" stroke="#0024A8" stroke-width="1.07" stroke-miterlimit="10"/>
<path d="M225.805 34.7098V9.65625" stroke="#0024A8" stroke-width="1.07" stroke-miterlimit="10" stroke-dasharray="3.15 3.15"/>
<path d="M225.805 8.33842V7H227.133" stroke="#0024A8" stroke-width="1.07" stroke-miterlimit="10"/>
<path d="M229.812 7H271.339" stroke="#0024A8" stroke-width="1.07" stroke-miterlimit="10" stroke-dasharray="3.21 3.21"/>
<path d="M272.68 7H274.017V8.33842" stroke="#0024A8" stroke-width="1.07" stroke-miterlimit="10"/>
<path d="M274.016 11.1172V37.459" stroke="#0024A8" stroke-width="1.07" stroke-miterlimit="10" stroke-dasharray="3.31 3.31"/>
<path d="M274.016 38.8359V40.1744H275.353" stroke="#0024A8" stroke-width="1.07" stroke-miterlimit="10"/>
<path d="M278.055 40.1797H319.974" stroke="#0024A8" stroke-width="1.07" stroke-miterlimit="10" stroke-dasharray="3.24 3.24"/>
<path d="M321.328 40.1797H322.665V41.5181" stroke="#0024A8" stroke-width="1.07" stroke-miterlimit="10"/>
<path d="M322.664 44.5781V49.1622" stroke="#0024A8" stroke-width="1.07" stroke-miterlimit="10" stroke-dasharray="3.66 3.66"/>
<path d="M322.664 50.6953V52.0337H324.001" stroke="#0024A8" stroke-width="1.07" stroke-miterlimit="10"/>
<path d="M326.578 52.0312H402.836" stroke="#0024A8" stroke-width="1.07" stroke-miterlimit="10" stroke-dasharray="3.09 3.09"/>
<path d="M404.133 52.0312H405.47V53.3697" stroke="#0024A8" stroke-width="1.07" stroke-miterlimit="10"/>
<path d="M405.469 55.7969V69.1727" stroke="#0024A8" stroke-width="1.07" stroke-miterlimit="10" stroke-dasharray="2.91 2.91"/>
<path d="M405.469 70.3828V71.7212H406.798" stroke="#0024A8" stroke-width="1.07" stroke-miterlimit="10"/>
<path d="M409.617 71.7188H447.6" stroke="#0024A8" stroke-width="1.07" stroke-miterlimit="10" stroke-dasharray="3.37 3.37"/>
<path d="M449.008 71.7188H450.345V73.0572" stroke="#0024A8" stroke-width="1.07" stroke-miterlimit="10"/>
<path d="M450.344 75.7578V112.322" stroke="#0024A8" stroke-width="1.07" stroke-miterlimit="10" stroke-dasharray="3.24 3.24"/>
<path d="M450.345 113.68V115.01H449.008" stroke="#0024A8" stroke-width="1.07" stroke-miterlimit="10"/>
<path d="M446.107 115.008H418.562" stroke="#0024A8" stroke-width="1.07" stroke-miterlimit="10" stroke-dasharray="3.47 3.47"/>
<path d="M417.111 115.008H415.773V116.346" stroke="#0024A8" stroke-width="1.07" stroke-miterlimit="10"/>
<path d="M415.773 118.969V217" stroke="#0024A8" stroke-width="1.07" stroke-miterlimit="10" stroke-dasharray="3.13 3.13"/>
<path d="M415.773 218.305V219.643" stroke="#0024A8" stroke-width="1.07" stroke-miterlimit="10"/>
<path d="M444.62 301H97.8438V313.999H444.62V301Z" fill="#4779F6"/>
<path d="M400.57 254.984H141.894L97.8438 301.001H444.62L400.57 254.984Z" fill="#072BDB"/>
<path d="M269.628 290.849C340.305 290.849 397.6 285.483 397.6 278.862C397.6 272.242 340.305 266.875 269.628 266.875C198.951 266.875 141.656 272.242 141.656 278.862C141.656 285.483 198.951 290.849 269.628 290.849Z" fill="#0024A8"/>
<path d="M243.992 236.789L238.477 275.093H303.979L297.778 236.789H243.992Z" fill="#054DDD"/>
<path d="M326.742 280.617H215.727V283.378H326.742V280.617Z" fill="#054DDD"/>
<path d="M238.475 275.094L215.719 280.615H326.734L303.978 275.094H238.475Z" fill="#4779F6"/>
<path d="M153.855 73.5938H388.596C391.407 73.5938 394.102 74.7113 396.089 76.7005C398.077 78.6897 399.193 81.3876 399.193 84.2007V217.064H143.258V84.2007C143.258 81.3876 144.374 78.6897 146.362 76.7005C148.349 74.7113 151.044 73.5938 153.855 73.5938Z" fill="#130751"/>
<path d="M143.258 217.062H399.193V231.049C399.193 233.851 398.081 236.538 396.102 238.52C394.122 240.501 391.437 241.614 388.638 241.614H153.804C151.007 241.612 148.324 240.498 146.346 238.517C144.369 236.536 143.258 233.85 143.258 231.049V217.062Z" fill="#4779F6"/>
<path d="M389.76 81.875H152.703V208.18H389.76V81.875Z" fill="#B6CEFF"/>
<path d="M276.232 228.355C276.232 229.348 275.938 230.318 275.387 231.143C274.836 231.969 274.052 232.612 273.136 232.992C272.22 233.372 271.212 233.471 270.239 233.278C269.266 233.084 268.373 232.606 267.672 231.904C266.971 231.202 266.493 230.308 266.299 229.334C266.106 228.361 266.205 227.351 266.585 226.434C266.964 225.517 267.607 224.733 268.432 224.182C269.256 223.63 270.226 223.336 271.217 223.336C272.547 223.336 273.823 223.865 274.763 224.806C275.703 225.747 276.232 227.024 276.232 228.355Z" fill="#130751"/>
<path d="M274.017 96.2891H190.078V194.362H274.017V96.2891Z" fill="#4779F6"/>
<path d="M261.881 109.664H202.203V115.018H261.881V109.664Z" fill="#E4EAFE"/>
<path d="M261.881 119.469H202.203V124.814H261.881V119.469Z" fill="#E4EAFE"/>
<path d="M261.881 129.281H202.203V134.635H261.881V129.281Z" fill="#E4EAFE"/>
<path d="M261.881 139.086H202.203V144.44H261.881V139.086Z" fill="#E4EAFE"/>
<path d="M261.881 148.891H202.203V154.236H261.881V148.891Z" fill="#E4EAFE"/>
<path d="M261.881 158.703H202.203V164.057H261.881V158.703Z" fill="#E4EAFE"/>
<path d="M261.881 168.508H202.203V173.861H261.881V168.508Z" fill="#E4EAFE"/>
<path d="M261.881 178.32H202.203V183.674H261.881V178.32Z" fill="#E4EAFE"/>
<path d="M330.533 131.859V123.319H325.218C324.777 121.403 324.032 119.57 323.011 117.89L326.797 114.1L320.763 108.061L317.003 111.817C315.338 110.779 313.518 110.014 311.612 109.55V104.188H303.071V109.508C301.159 109.945 299.33 110.691 297.656 111.716L293.87 107.927L287.828 113.966L291.589 117.731C290.548 119.396 289.781 121.218 289.316 123.126H283.992V131.642H289.307C289.752 133.554 290.497 135.384 291.514 137.062L287.728 140.852L293.77 146.891L297.522 143.136C299.186 144.175 301.006 144.941 302.913 145.402V150.773H311.454V145.453C313.364 145.009 315.192 144.264 316.869 143.244L320.663 147.034L326.697 140.986L322.936 137.23C323.979 135.562 324.747 133.738 325.209 131.826L330.533 131.859ZM307.25 135.707C305.627 135.707 304.04 135.226 302.691 134.323C301.341 133.42 300.289 132.137 299.668 130.636C299.047 129.135 298.884 127.484 299.201 125.89C299.518 124.297 300.299 122.833 301.447 121.684C302.595 120.535 304.057 119.753 305.649 119.436C307.241 119.119 308.891 119.282 310.39 119.903C311.89 120.525 313.172 121.578 314.073 122.929C314.975 124.28 315.457 125.868 315.457 127.493C315.457 128.571 315.244 129.64 314.832 130.636C314.419 131.633 313.815 132.539 313.053 133.301C312.291 134.064 311.386 134.669 310.39 135.082C309.395 135.495 308.328 135.707 307.25 135.707Z" fill="#130751"/>
<path d="M362.386 158.077V151.385H358.207C357.859 149.879 357.273 148.439 356.469 147.119L359.452 144.133L354.697 139.373L351.739 142.334C350.435 141.506 349.007 140.89 347.51 140.511V136.328H340.825V140.511C339.318 140.861 337.877 141.448 336.554 142.251L333.571 139.273L328.824 144.024L331.782 146.985C330.961 148.296 330.358 149.731 329.994 151.235H325.773V157.927H329.952C330.298 159.433 330.885 160.874 331.69 162.193L328.707 165.179L333.462 169.939L336.42 166.978C337.731 167.796 339.164 168.398 340.666 168.76V172.984H347.351V168.802C348.858 168.451 350.299 167.864 351.622 167.062L354.597 170.04L359.352 165.288L356.394 162.327C357.214 161.016 357.818 159.581 358.182 158.077H362.386ZM344.05 161.106C342.77 161.107 341.519 160.729 340.454 160.018C339.389 159.307 338.558 158.296 338.068 157.113C337.577 155.929 337.448 154.627 337.698 153.37C337.947 152.113 338.563 150.959 339.468 150.053C340.373 149.147 341.527 148.53 342.782 148.28C344.038 148.031 345.339 148.16 346.521 148.651C347.703 149.142 348.714 149.973 349.424 151.039C350.134 152.105 350.512 153.358 350.51 154.639C350.508 156.354 349.827 157.997 348.616 159.209C347.405 160.421 345.763 161.103 344.05 161.106Z" fill="#130751"/>
<path d="M325.581 173.644V168.868H322.614C322.369 167.799 321.954 166.776 321.386 165.839L323.5 163.723L320.157 160.377L318.06 162.477C317.13 161.898 316.115 161.472 315.051 161.213V158.219H310.279V161.188C309.212 161.434 308.19 161.849 307.254 162.418L305.14 160.302L301.797 163.648L303.894 165.747C303.317 166.678 302.891 167.694 302.632 168.759H299.641V173.535H302.607C302.852 174.604 303.267 175.626 303.836 176.563L301.722 178.68L305.064 182.026L307.162 179.926C308.091 180.505 309.107 180.931 310.171 181.189V184.184H314.917V181.248C315.985 181.003 317.006 180.587 317.943 180.018L320.057 182.135L323.4 178.789L321.302 176.689C321.88 175.759 322.306 174.742 322.564 173.677L325.581 173.644ZM312.577 175.785C311.672 175.785 310.786 175.517 310.033 175.013C309.28 174.509 308.693 173.793 308.346 172.956C308 172.118 307.909 171.196 308.086 170.307C308.262 169.418 308.699 168.601 309.339 167.96C309.98 167.319 310.796 166.882 311.684 166.705C312.572 166.529 313.493 166.619 314.33 166.966C315.167 167.313 315.882 167.901 316.385 168.655C316.888 169.408 317.157 170.295 317.157 171.201C317.157 172.417 316.675 173.583 315.816 174.443C314.957 175.303 313.792 175.785 312.577 175.785Z" fill="#130751"/>
<path opacity="0.24" d="M265.196 81.875L214.227 208.172H242.44L292.95 81.875H265.196Z" fill="white"/>
<path opacity="0.24" d="M310.499 81.875L262.914 208.172H274.246L322.659 81.875H310.499Z" fill="white"/>
<path d="M353.045 55.219C352.755 55.2146 352.47 55.146 352.21 55.0182C351.643 54.7651 351.029 54.6344 350.409 54.6344C349.788 54.6344 349.175 54.7651 348.608 55.0182C348.143 55.2426 347.608 55.2754 347.119 55.1096C346.63 54.9438 346.225 54.5926 345.992 54.1315C345.76 53.6739 345.718 53.1433 345.874 52.6547C346.031 52.1661 346.373 51.7589 346.828 51.5216C347.936 51.0031 349.144 50.7344 350.367 50.7344C351.59 50.7344 352.798 51.0031 353.906 51.5216C354.305 51.713 354.627 52.0343 354.82 52.4328C355.013 52.8314 355.066 53.2837 354.969 53.7158C354.872 54.1479 354.631 54.5343 354.286 54.8119C353.942 55.0895 353.513 55.2418 353.07 55.244L353.045 55.219Z" fill="#054DDD"/>
<path d="M357.804 49.8995C357.4 49.8998 357.006 49.7741 356.676 49.5398C350.383 45.1231 344.349 49.4729 344.291 49.5398C344.084 49.6925 343.849 49.8029 343.6 49.8648C343.35 49.9266 343.091 49.9386 342.837 49.9002C342.582 49.8617 342.338 49.7736 342.118 49.6407C341.898 49.5078 341.706 49.3328 341.554 49.1258C341.401 48.9187 341.291 48.6836 341.229 48.4338C341.167 48.1841 341.155 47.9246 341.194 47.6702C341.232 47.4158 341.32 47.1715 341.453 46.9512C341.586 46.7309 341.761 46.5389 341.968 46.3862C344.452 44.6449 347.412 43.7109 350.446 43.7109C353.479 43.7109 356.439 44.6449 358.924 46.3862C359.264 46.6263 359.519 46.9682 359.652 47.3626C359.785 47.757 359.79 48.1836 359.665 48.5809C359.541 48.9782 359.294 49.3256 358.959 49.5731C358.625 49.8206 358.22 49.9554 357.804 49.9581V49.8995Z" fill="#054DDD"/>
<path d="M362.546 44.9186C362.114 44.9181 361.693 44.7739 361.351 44.5087C349.693 35.4911 340.183 44.0319 339.79 44.4C339.404 44.7179 338.912 44.8765 338.413 44.8437C337.914 44.8108 337.447 44.5889 337.106 44.2231C336.765 43.8573 336.576 43.3752 336.578 42.875C336.58 42.3748 336.772 41.894 337.116 41.5307C337.241 41.4136 349.417 30.3131 363.75 41.4136C364.073 41.6639 364.309 42.0091 364.426 42.4007C364.543 42.7924 364.534 43.2108 364.402 43.5974C364.269 43.9839 364.019 44.3192 363.686 44.5562C363.353 44.7931 362.955 44.9199 362.546 44.9186Z" fill="#054DDD"/>
<path d="M426.973 93.2357C438.85 81.3479 438.85 62.0739 426.973 50.1861C415.097 38.2983 395.841 38.2983 383.965 50.1861C372.089 62.0739 372.089 81.3479 383.965 93.2357C395.841 105.124 415.097 105.124 426.973 93.2357Z" fill="#FCA232"/>
<path d="M382.288 52.0312C377.184 57.9769 374.569 65.6655 374.989 73.4938C375.41 81.3221 378.833 88.6858 384.545 94.0495C390.257 99.4132 397.817 102.363 405.648 102.283C413.48 102.204 420.979 99.1012 426.581 93.6226C391.74 88.6956 383.818 65.8588 382.288 52.0312Z" fill="#F98816"/>
<path d="M427.597 260.15H429.836C435.753 259.746 441.295 257.108 445.343 252.77C449.391 248.432 451.643 242.718 451.643 236.782C451.643 230.846 449.391 225.132 445.343 220.794C441.295 216.456 435.753 213.818 429.836 213.414H427.613C421.708 213.833 416.181 216.476 412.146 220.812C408.111 225.147 405.867 230.852 405.867 236.778C405.867 242.703 408.111 248.409 412.146 252.744C416.181 257.079 421.708 259.723 427.613 260.142L427.597 260.15ZM413.482 251.91C414.973 250.826 416.575 249.903 418.262 249.158C419.878 252.523 422.151 255.529 424.947 258C420.593 257.194 416.59 255.068 413.482 251.91ZM427.939 258.151C424.545 255.608 421.804 252.293 419.942 248.481C422.512 247.55 425.209 247.014 427.939 246.891V258.151ZM427.939 245.084C424.958 245.206 422.015 245.793 419.215 246.824C418.144 244.155 417.512 241.33 417.343 238.459H427.939V245.084ZM427.939 236.644H417.292C417.298 233.698 417.789 230.772 418.747 227.986C421.681 229.143 424.788 229.802 427.939 229.935V236.644ZM432.469 258.059C435.372 255.5 437.714 252.367 439.347 248.857C441.157 249.598 442.88 250.535 444.486 251.651C441.278 255.031 437.061 257.279 432.469 258.059ZM445.681 250.254C443.926 249.012 442.033 247.976 440.04 247.167C441.128 244.377 441.771 241.433 441.946 238.442H450.386C450.051 242.766 448.41 246.886 445.681 250.254ZM446.358 224.205C448.972 227.82 450.39 232.164 450.411 236.627H441.946C441.934 233.567 441.435 230.529 440.467 227.626C442.558 226.722 444.536 225.574 446.358 224.205ZM445.238 222.783C443.573 224.039 441.766 225.098 439.856 225.937C438.22 221.94 435.69 218.371 432.46 215.505C437.448 216.358 441.974 218.947 445.238 222.816V222.783ZM429.753 215.606C433.482 218.464 436.388 222.259 438.177 226.606C435.471 227.575 432.626 228.098 429.753 228.153V215.606ZM429.753 229.969C432.838 229.908 435.892 229.343 438.795 228.296C439.686 230.995 440.146 233.818 440.157 236.661H429.753V229.969ZM429.753 238.451H440.099C439.936 241.225 439.344 243.956 438.344 246.548C435.572 245.621 432.675 245.122 429.753 245.068V238.451ZM429.753 246.866C432.434 246.92 435.093 247.371 437.642 248.205C435.824 252.035 433.119 255.376 429.753 257.95V246.866ZM427.939 215.422V228.137C425.006 228 422.114 227.382 419.382 226.305C421.225 221.985 424.177 218.23 427.939 215.422ZM424.914 215.564C421.812 218.34 419.361 221.768 417.735 225.602C415.954 224.754 414.272 223.711 412.721 222.49C415.899 218.884 420.191 216.446 424.914 215.564ZM411.543 223.87C413.241 225.21 415.086 226.352 417.042 227.275C415.995 230.291 415.455 233.46 415.445 236.652H407.247C407.272 232.035 408.791 227.551 411.576 223.87H411.543ZM407.347 238.459H415.537C415.705 241.562 416.38 244.617 417.535 247.502C415.67 248.326 413.902 249.353 412.261 250.564C409.401 247.141 407.682 242.909 407.347 238.459Z" fill="#4779F6"/>
<path d="M168.945 145.328H102.648V159.323H168.945V145.328Z" fill="#4779F6"/>
<path d="M114.212 151.567C114.212 152.422 113.958 153.258 113.483 153.97C113.009 154.681 112.334 155.235 111.544 155.563C110.755 155.89 109.886 155.976 109.048 155.809C108.21 155.642 107.44 155.23 106.836 154.625C106.232 154.02 105.82 153.25 105.653 152.411C105.487 151.572 105.572 150.702 105.899 149.912C106.226 149.122 106.78 148.446 107.491 147.971C108.201 147.496 109.036 147.242 109.891 147.242C110.459 147.241 111.021 147.352 111.546 147.569C112.07 147.786 112.547 148.105 112.949 148.506C113.35 148.908 113.668 149.385 113.885 149.911C114.102 150.436 114.213 150.999 114.212 151.567Z" fill="white"/>
<path d="M111.392 149.982C111.394 150.282 111.307 150.576 111.141 150.827C110.975 151.077 110.739 151.272 110.463 151.388C110.186 151.503 109.881 151.534 109.587 151.476C109.293 151.418 109.022 151.274 108.81 151.061C108.598 150.849 108.454 150.578 108.396 150.284C108.338 149.989 108.368 149.684 108.484 149.407C108.599 149.13 108.795 148.894 109.045 148.728C109.295 148.563 109.588 148.475 109.888 148.477C110.086 148.477 110.281 148.516 110.464 148.591C110.646 148.667 110.812 148.778 110.952 148.918C111.092 149.057 111.202 149.223 111.278 149.406C111.354 149.589 111.392 149.785 111.392 149.982Z" fill="#4779F6"/>
<path d="M109.406 151.602H110.375C111.04 151.602 111.678 151.866 112.148 152.337C112.618 152.807 112.882 153.446 112.882 154.111V155.96H106.898V154.111C106.898 153.446 107.163 152.807 107.633 152.337C108.103 151.866 108.741 151.602 109.406 151.602Z" fill="#4779F6"/>
<path d="M160.453 148.891H116.328V149.56H160.453V148.891Z" fill="white"/>
<path d="M160.453 150.906H116.328V151.575H160.453V150.906Z" fill="white"/>
<path d="M160.453 152.914H116.328V153.583H160.453V152.914Z" fill="white"/>
<path d="M160.453 154.922H116.328V155.591H160.453V154.922Z" fill="white"/>
<path d="M168.945 164.18H102.648V178.175H168.945V164.18Z" fill="#4779F6"/>
<path d="M114.212 170.419C114.212 171.274 113.958 172.11 113.483 172.821C113.009 173.532 112.334 174.087 111.544 174.414C110.755 174.741 109.886 174.827 109.048 174.66C108.21 174.493 107.44 174.081 106.836 173.477C106.232 172.872 105.82 172.101 105.653 171.262C105.487 170.423 105.572 169.554 105.899 168.764C106.226 167.973 106.78 167.298 107.491 166.823C108.201 166.347 109.036 166.094 109.891 166.094C110.459 166.093 111.021 166.204 111.546 166.421C112.07 166.638 112.547 166.956 112.949 167.358C113.35 167.76 113.668 168.237 113.885 168.762C114.102 169.287 114.213 169.85 114.212 170.419Z" fill="white"/>
<path d="M111.392 168.834C111.394 169.134 111.307 169.428 111.141 169.678C110.975 169.928 110.739 170.124 110.463 170.239C110.186 170.355 109.881 170.386 109.587 170.328C109.293 170.269 109.022 170.125 108.81 169.913C108.598 169.701 108.454 169.43 108.396 169.136C108.338 168.841 108.368 168.536 108.484 168.259C108.599 167.982 108.795 167.746 109.045 167.58C109.295 167.414 109.588 167.326 109.888 167.328C110.286 167.33 110.668 167.49 110.949 167.772C111.231 168.053 111.39 168.435 111.392 168.834Z" fill="#4779F6"/>
<path d="M109.406 170.453H110.375C111.04 170.453 111.678 170.718 112.148 171.188C112.618 171.659 112.882 172.297 112.882 172.963V174.811H106.898V172.963C106.898 172.297 107.163 171.659 107.633 171.188C108.103 170.718 108.741 170.453 109.406 170.453Z" fill="#4779F6"/>
<path d="M160.453 167.75H116.328V168.419H160.453V167.75Z" fill="white"/>
<path d="M160.453 169.758H116.328V170.427H160.453V169.758Z" fill="white"/>
<path d="M160.453 171.766H116.328V172.435H160.453V171.766Z" fill="white"/>
<path d="M160.453 173.773H116.328V174.443H160.453V173.773Z" fill="white"/>
<path d="M196.034 49.71H195.424C195.828 48.0335 196.033 46.3151 196.034 44.5905C196.035 40.5309 194.896 36.5527 192.746 33.1102C190.597 29.6676 187.523 26.8995 183.877 25.1217C180.231 23.344 176.159 22.6283 172.126 23.0563C168.092 23.4843 164.261 25.0389 161.068 27.5424C159.149 23.445 155.996 20.0523 152.052 17.8407C148.107 15.6291 143.57 14.7098 139.077 15.2119C134.584 15.7139 130.361 17.6121 127.001 20.6399C123.641 23.6677 121.313 27.6729 120.344 32.093C117.311 31.0268 114.079 30.6505 110.883 30.9917C107.687 31.333 104.607 32.383 101.867 34.0656C99.1267 35.7481 96.7959 38.0208 95.0438 40.7184C93.2917 43.4159 92.1624 46.4705 91.7379 49.6598H91.5457C88.6238 49.6582 85.7537 50.4314 83.2273 51.9007C80.701 53.3701 78.6086 55.4832 77.1632 58.0249C76.9924 58.3277 76.9039 58.6699 76.9063 59.0176C76.9087 59.3652 77.0021 59.7062 77.177 60.0065C77.352 60.3068 77.6024 60.5561 77.9035 60.7294C78.2046 60.9028 78.5458 60.9942 78.8931 60.9946H208.695C209.043 60.9952 209.384 60.9043 209.686 60.731C209.987 60.5577 210.238 60.308 210.412 60.007C210.587 59.7061 210.679 59.3645 210.68 59.0166C210.68 58.6687 210.59 58.3267 210.417 58.0249C208.967 55.4908 206.872 53.3864 204.346 51.9258C201.819 50.4653 198.952 49.7007 196.034 49.71Z" fill="white"/>
<path d="M143.452 65.5344L128.836 40.1797L114.211 65.5344H123.955V97.188H133.708V65.5344H143.452Z" fill="#4779F6"/>
<path d="M144.133 71.8333L158.758 97.188L173.374 71.8333H163.63V40.1797H153.877V71.8333H144.133Z" fill="#FCA232"/>
<g opacity="0.51">
<path opacity="0.51" d="M474.001 126.398H373.758V180.822H474.001V126.398Z" fill="#4779F6"/>
<path opacity="0.51" d="M461.792 131.938H378.305V135.852H461.792V131.938Z" fill="#E4EAFE"/>
<path opacity="0.51" d="M436.67 138.297H378.305V142.212H436.67V138.297Z" fill="#E4EAFE"/>
<path opacity="0.51" d="M449.733 144.648H378.305V148.563H449.733V144.648Z" fill="#E4EAFE"/>
<path opacity="0.51" d="M461.792 151.008H378.305V154.923H461.792V151.008Z" fill="#E4EAFE"/>
<path opacity="0.51" d="M455.348 157.375H378.305V161.29H455.348V157.375Z" fill="#E4EAFE"/>
<path opacity="0.51" d="M446.774 163.734H378.305V167.649H446.774V163.734Z" fill="#E4EAFE"/>
<path opacity="0.51" d="M456.995 170.094H378.305V174.009H456.995V170.094Z" fill="#E4EAFE"/>
</g>
<path d="M149.946 222.82H85.4375V260.413H149.946V222.82Z" fill="#FCA232"/>
<path d="M85.4375 260.41L117.696 239.305L149.954 260.41H85.4375Z" fill="#FFB564"/>
<path d="M85.4375 222.82L117.696 248.744L149.954 222.82H85.4375Z" fill="#F98816"/>
<path d="M275.964 19.2656H258.414C256.296 19.2656 254.578 20.9847 254.578 23.1052V57.2516C254.578 59.3722 256.296 61.0912 258.414 61.0912H275.964C278.082 61.0912 279.8 59.3722 279.8 57.2516V23.1052C279.8 20.9847 278.082 19.2656 275.964 19.2656Z" fill="#130751"/>
<path d="M274.506 21.25H259.865C258.097 21.25 256.664 22.6844 256.664 24.4538V52.9371C256.664 54.7065 258.097 56.1409 259.865 56.1409H274.506C276.274 56.1409 277.707 54.7065 277.707 52.9371V24.4538C277.707 22.6844 276.274 21.25 274.506 21.25Z" fill="#B6CEFF"/>
<path d="M252.352 47.976L276.086 16.0547H281.777L252.352 56.1404V47.976Z" fill="white"/>
<path d="M254.578 60.5995L282.767 21.25V24.9641L254.578 65.0498V60.5995Z" fill="white"/>
<path d="M268.427 58.363C268.427 58.6079 268.354 58.8473 268.218 59.0509C268.082 59.2544 267.889 59.4131 267.663 59.5068C267.437 59.6005 267.189 59.6251 266.949 59.5773C266.709 59.5295 266.488 59.4116 266.315 59.2385C266.142 59.0653 266.025 58.8447 265.977 58.6046C265.929 58.3644 265.954 58.1155 266.047 57.8893C266.141 57.663 266.299 57.4697 266.503 57.3336C266.706 57.1976 266.945 57.125 267.19 57.125C267.518 57.125 267.833 57.2554 268.065 57.4876C268.297 57.7198 268.427 58.0347 268.427 58.363Z" fill="white"/>
<path d="M308.152 28.7891H274.281V54.5536H308.152V28.7891Z" fill="white"/>
<path d="M284.772 49.1585L277.484 41.8557L284.872 34.4609L286.117 35.699L279.958 41.8557L286.017 47.912L284.772 49.1585Z" fill="#054DDD"/>
<path d="M297.292 49.1585L296.055 47.912L302.205 41.7553L296.155 35.699L297.392 34.4609L304.688 41.7553L297.292 49.1585Z" fill="#054DDD"/>
<path d="M292.965 35.3211L287.625 48.2188L289.246 48.8913L294.586 35.9936L292.965 35.3211Z" fill="#054DDD"/>
<path d="M308.152 25.7969H274.281V28.8H308.152V25.7969Z" fill="#054DDD"/>
<path d="M518.352 262.337C513.946 265.901 510.651 270.615 508.071 275.533C505.385 280.669 503.281 286.098 501.587 291.617C499.747 297.583 498.623 303.728 497.419 309.834C495.91 317.448 494.587 325.1 493.33 332.765C491.927 341.389 490.736 350.037 489.704 358.712C489.519 360.27 492.351 360.653 492.562 359.082C494.693 343.918 497.061 328.78 499.827 313.718C500.991 307.394 502.129 301.083 503.519 294.798C504.736 289.279 506.245 283.709 508.56 278.523C511.088 272.85 514.422 267.344 519.252 263.205C519.887 262.682 518.988 261.826 518.352 262.337Z" fill="#130751"/>
<path d="M547.628 264.506C539.318 273.653 536.116 285.917 533.919 297.606C532.636 304.505 531.776 311.505 530.929 318.455C530.042 325.749 529.248 333.057 528.534 340.364C527.726 348.681 527.144 356.997 526.681 365.327C526.641 366.144 527.435 366.847 528.256 366.847C529.156 366.847 529.764 366.144 529.83 365.327C530.968 350.84 532.278 336.353 533.919 321.917C534.713 314.878 535.534 307.839 536.46 300.825C537.227 294.923 537.876 288.996 539.517 283.247C541.343 276.821 544.188 270.6 548.621 265.451C549.176 264.8 548.224 263.842 547.628 264.506Z" fill="#130751"/>
<path d="M601.129 263.305C609.889 271.941 613.422 283.758 615.817 295.306C618.728 309.282 621.679 323.245 624.207 337.285C625.662 345.41 627.118 353.535 628.454 361.686C628.587 362.49 629.632 362.95 630.386 362.746C631.299 362.503 631.604 361.698 631.485 360.881C629.394 346.177 626.774 331.575 623.783 317.024C623.042 313.421 622.248 309.819 621.441 306.229C620.687 302.869 619.986 299.497 619.086 296.175C617.511 290.286 615.672 284.473 613.25 278.839C610.617 272.733 607.071 266.984 602.122 262.372C601.46 261.759 600.494 262.692 601.129 263.305Z" fill="#130751"/>
<path d="M504.597 255.801C507.879 252.786 512.338 251.304 516.692 250.129C520.873 249.004 525.134 248.097 529.421 247.42C531.472 247.088 533.616 246.794 535.363 245.696C538.115 243.971 539.293 240.701 540.179 237.635C543.554 225.958 545.38 213.911 548.251 202.12C551.123 190.316 555.159 178.563 562.397 168.662C569.635 158.761 580.486 150.828 592.898 149.04C596.616 148.503 600.493 148.529 604.053 149.704C613.765 152.91 618.489 163.399 620.924 173.018C626.416 194.774 625.9 217.463 625.344 239.857C625.185 246.117 624.815 252.952 620.514 257.64C615.208 263.427 606.117 263.721 598.111 263.696C578.355 263.657 558.612 264.449 538.896 265.561C529.13 266.11 519.365 266.736 509.599 267.388C505.1 267.682 501.302 269.419 500.601 264.322C500.204 261.32 502.44 257.781 504.597 255.801Z" fill="#B6CEFF"/>
<path d="M590.609 150.109C583.119 153.137 577.006 158.183 572.295 164.545C566.962 171.737 563.482 180.207 560.73 188.588C557.647 198.003 555.768 207.776 555.106 217.625C554.431 227.679 554.683 237.861 551.838 247.634C550.911 250.789 549.681 253.919 547.643 256.576C545.658 259.157 542.932 261.048 539.955 262.453C539.068 262.874 538.155 263.245 537.229 263.59C536.422 263.896 536.779 265.174 537.586 264.867C540.841 263.628 543.991 262.044 546.545 259.693C548.86 257.56 550.488 254.89 551.652 252.041C555.238 243.303 555.463 233.645 555.874 224.383C556.085 219.35 556.376 214.329 557.064 209.321C557.753 204.339 558.771 199.395 560.082 194.541C562.503 185.585 565.811 176.541 570.773 168.582C575.021 161.786 580.817 155.935 588.082 152.115C588.995 151.629 589.934 151.182 590.887 150.773C591.284 150.607 591.006 149.956 590.609 150.109Z" fill="#686868"/>
<path d="M473.893 314.537C473.893 314.537 475.707 322.103 471.243 324.024C467.702 325.375 464.345 327.333 461.278 329.834C459.564 331.447 440.333 341.171 437.941 336.57C435.55 331.969 441.309 326.751 442.784 325.139C444.259 323.526 457.352 310.055 457.352 310.055L473.893 314.537Z" fill="#111114"/>
<path d="M496.425 326.841C496.425 326.841 498.648 335.699 493.15 337.913C488.818 339.504 484.705 341.778 480.933 344.667C478.831 346.549 455.252 357.898 452.344 352.556C449.436 347.214 456.473 341.096 458.257 339.214C460.041 337.332 476.119 321.609 476.119 321.609L496.425 326.841Z" fill="#111114"/>
<g opacity="0.1">
<path opacity="0.1" d="M426.667 310.965C404.549 322.253 404.424 340.57 426.416 351.857C448.408 363.144 484.092 363.144 506.234 351.857C528.377 340.57 528.452 322.253 506.485 310.965C484.518 299.678 448.759 299.678 426.667 310.965Z" fill="black"/>
</g>
<path d="M487.711 199.945V205.334C488.299 205.496 488.863 205.72 489.391 205.999V200.588C488.859 200.321 488.296 200.106 487.711 199.945Z" fill="#B8387B"/>
<path d="M521.278 139.015C523.907 139.186 526.361 140.247 528.127 141.978C529.893 143.709 530.835 145.976 530.757 148.307C531.258 157.177 525.516 196.561 515.485 205.032C505.454 213.503 504 195.208 504 195.208C504 195.208 505.304 138.261 521.278 139.015Z" fill="#BAD1DE"/>
<path d="M466.616 205.075C466.616 205.075 454.554 208.002 445.903 205.541C437.251 203.079 439.233 202.68 439.784 201.505C440.938 198.977 452.047 198.844 454.053 198.223C456.059 197.602 452.172 196.427 451.219 195.251C450.266 194.076 448.21 192.768 448.837 192.302C449.464 191.836 451.119 191.304 454.429 193.278C458.078 195.064 461.906 196.548 465.864 197.713L466.616 205.075Z" fill="#EFB185"/>
<path d="M463.955 196.714C464.545 198.255 464.907 199.858 465.033 201.481C465.203 203.444 464.779 205.411 463.805 207.18C463.805 207.18 504.429 211.327 514.158 206.027C514.158 206.027 522.734 191.946 507.388 189.484L463.955 196.714Z" fill="#BAD1DE"/>
<path d="M510.8 207.25C511.988 207.175 513.12 206.772 514.035 206.097C514.5 205.813 514.936 205.494 515.339 205.144C525.369 196.673 531.112 157.378 530.61 148.419C530.544 146.975 530.152 145.558 529.457 144.25C527.125 154.451 516.166 201.219 511.577 202.372C507.365 203.436 476.019 204.079 464.735 204.279C464.55 205.327 464.186 206.344 463.656 207.295C463.656 207.295 497.384 210.599 510.8 207.25Z" fill="#A3C1CE"/>
<path d="M518.047 212.898C518.047 212.898 458.691 245.896 456.986 254.278C455.28 262.66 455.631 312.111 455.631 312.111C455.631 312.111 470.828 317.899 478.2 314.329L484.344 267.761C484.344 267.761 531.061 237.269 533.118 236.16C535.174 235.052 518.047 212.898 518.047 212.898Z" fill="#072BDB"/>
<path d="M533.065 236.124C531.009 237.232 484.291 267.724 484.291 267.724L478.147 314.292C474.612 316.044 469.245 315.578 464.656 314.669C466.738 300.521 471.427 269.387 473.132 261.448C475.339 251.136 523.285 226.766 523.285 226.766L533.04 234.815C533.24 235.525 533.316 235.968 533.065 236.124Z" fill="#0024A8"/>
<path d="M517.97 214.141C517.97 214.141 524.815 232.169 528.376 236.094C528.376 236.094 480.957 258.27 478.524 269.025C476.092 279.78 473.133 325.683 473.133 325.683C476.895 327.539 481.07 328.647 485.366 328.931C489.662 329.214 493.977 328.666 498.009 327.324C498.009 327.324 503.325 292.043 503.877 277.851C503.877 277.851 575.62 261.064 570.304 226.315C570.304 226.315 542.871 235.983 517.97 214.141Z" fill="#072BDB"/>
<path d="M503.878 277.966C503.327 292.158 498.01 327.44 498.01 327.44C495.754 328.147 493.416 328.63 491.039 328.881C491.44 323.359 491.942 316.13 492.569 306.595C495.076 270.981 501.145 271.668 501.145 271.668C546.659 253.507 555.862 236.188 555.862 236.188L570.456 228.227C573.114 261.623 503.878 277.966 503.878 277.966Z" fill="#0024A8"/>
<path d="M548.59 142.319C548.59 142.319 571.159 152.519 571.786 154.072C572.413 155.624 578.23 159.327 569.855 176.912C569.855 176.912 558.621 196.028 564.238 215.121C565.837 220.866 567.916 226.5 570.457 231.974C570.457 231.974 560.426 245.146 532.165 235.966C526.447 234.103 516.868 227.228 513.959 221.707C515.507 209.899 515.203 197.96 513.057 186.226C509.546 167.133 507.54 142.385 519.802 139.081C519.802 139.17 522.887 135.843 548.59 142.319Z" fill="#BAD1DE"/>
<path d="M513.059 186.312C515.205 198.045 515.508 209.985 513.961 221.792C516.87 227.314 526.5 234.188 532.167 236.051C535.032 236.967 537.964 237.708 540.944 238.269C539.005 233.645 537.332 228.938 535.928 224.165C530.286 205.072 541.52 185.957 541.52 185.957C549.921 168.372 544.028 164.668 543.476 163.116C542.925 161.564 520.281 151.385 520.281 151.385C517.046 150.565 514.187 149.899 511.629 149.367C509.247 159.058 510.777 173.871 513.059 186.312Z" fill="#CAE0EA"/>
<path d="M546.796 135.547C546.796 135.547 530.346 143.22 537.668 154.174L529.944 157.944C529.944 157.944 522.346 138.74 546.796 135.547Z" fill="#FEFFFF"/>
<path d="M557.352 127.828C557.352 127.828 550.431 137.12 555.923 143.351C558.982 146.855 551.76 155.193 539.422 154.439C539.422 154.439 533.93 153.241 534.407 151.489C535.686 147.476 533.88 145.214 531.899 142.131C529.918 139.049 557.352 127.828 557.352 127.828Z" fill="#EFB185"/>
<path d="M555.925 143.399C556.279 143.822 556.503 144.319 556.577 144.841C551.938 140.672 543.086 140.406 543.086 140.406L554.797 128.941L555.975 128.453L556.326 129.473C554.646 132.356 551.838 138.72 555.925 143.399Z" fill="#DD9569"/>
<path d="M534.487 151.6C535.666 145.235 533.961 145.324 531.98 142.242C531.428 141.399 533.108 140.024 535.816 138.25C536.618 138.8 537.298 139.477 537.822 140.246C542.612 146.765 542.587 151.844 541.985 154.549C541.152 154.634 540.311 154.634 539.478 154.549C537.973 154.349 534.136 153.551 534.487 151.6Z" fill="#F2B78F"/>
<path d="M559.911 122.598C559.911 122.598 556.902 134.905 547.373 140.493C538.872 145.438 528.992 148.698 527.187 139.739C525.732 132.621 521.795 114.503 528.892 110.911C538.045 106.232 541.43 100.444 552.012 103.904C551.987 103.837 564.124 108.782 559.911 122.598Z" fill="#EFB185"/>
<path d="M559.912 122.6C559.269 126.191 557.831 129.634 555.679 132.732C553.527 135.829 550.705 138.521 547.374 140.651C544.872 142.183 542.18 143.455 539.35 144.443C542.556 142.387 545.381 139.904 547.725 137.081C551.211 133.511 542.71 134.863 548.478 125.794C550.459 122.689 540.654 126.681 538.447 126.636C525.407 126.348 526.385 119.718 526.109 116.946C526.357 115.782 526.718 114.64 527.188 113.531L528.441 111.313L528.868 110.759C530.18 109.312 531.595 107.942 533.106 106.656C538.698 106.767 554.596 107.078 554.922 107.122C555.248 107.166 557.856 110.47 560.389 113.575C561.066 116.573 560.902 119.672 559.912 122.6Z" fill="#E6A376"/>
<path d="M554.193 134.527C554.193 134.527 564.776 125.945 561.089 113.638C560.341 110.661 558.544 107.972 555.957 105.956C553.371 103.939 550.128 102.7 546.696 102.417C540.727 101.796 529.318 102.106 524.779 112.728C523.374 116.01 524.352 123.284 539.022 119.891C541.154 119.403 546.721 118.76 548.702 120.334C549.643 121.285 550.258 122.454 550.476 123.702C550.693 124.951 550.504 126.229 549.93 127.386C549.103 129.604 551.31 129.826 551.611 129.36C551.911 128.894 554.745 122.707 557.378 125.058C560.011 127.408 554.444 134.105 554.193 134.527Z" fill="#341C09"/>
<path d="M554.195 134.524C554.445 134.103 559.787 127.295 557.379 125.056C554.972 122.816 551.913 128.892 551.612 129.358C551.311 129.823 549.104 129.602 549.932 127.384C550.505 126.227 550.694 124.949 550.477 123.7C550.259 122.451 549.644 121.283 548.703 120.332C546.897 118.891 542.008 119.645 539.023 119.889C541.531 118.514 546.321 118.026 548.076 114.434C548.756 112.628 549.887 110.981 551.384 109.614C552.882 108.248 554.708 107.197 556.727 106.539C558.893 108.504 560.403 110.96 561.091 113.635C564.777 125.943 554.195 134.524 554.195 134.524Z" fill="#221101"/>
<path d="M554.222 140.383C553.207 143.824 551.116 146.943 548.189 149.383C545.262 151.822 541.617 153.483 537.672 154.176L541.684 162.847C541.684 162.847 566.886 151.692 554.222 140.383Z" fill="#FEFFFF"/>
<path d="M571.785 154.078C572.362 155.63 578.23 159.333 569.854 176.918C569.854 176.918 560.4 195.878 565.315 214.949C567.422 223.132 568.425 221.159 571.961 228.1C573.992 232.091 564.438 238.234 555.084 238.965C550.27 228.853 551.599 228.942 549.567 217.854C546.834 202.686 548.765 190.224 562.808 175.011C575.17 161.706 569.98 156.428 570.331 152.836C570.916 153.147 571.413 153.571 571.785 154.078Z" fill="#9DBCC9"/>
<path d="M524.783 112.728C524.783 112.728 522.627 124.547 539.679 120.267C542.268 119.579 544.668 118.424 546.726 116.874C548.785 115.324 550.458 113.414 551.64 111.264C552.103 110.206 552.857 109.267 553.833 108.532C554.81 107.796 555.978 107.287 557.232 107.051C557.232 107.051 552.693 101.352 540.958 102.061C535.416 102.416 529.673 107.162 528.269 107.938C526.865 108.714 529.147 113.659 524.783 112.728Z" fill="#341C09"/>
<path d="M547.514 237.133L547.689 239.018L516.544 258.665L516.344 256.758L547.514 237.133Z" fill="#B4B9BC"/>
<path d="M516.342 256.764L516.542 258.671L458.365 235.032L458.164 233.125L516.342 256.764Z" fill="#7D8183"/>
<path d="M547.512 237.138L516.342 256.763L458.164 233.124L489.309 213.477L547.512 237.138Z" fill="#E3E5E5"/>
<path d="M507.008 224.142L509.315 222.234L519.019 256.673L516.712 258.558L507.008 224.142Z" fill="#BDBBBB"/>
<path d="M446.203 199.438L448.51 197.531L509.321 222.235L507.014 224.142L446.203 199.438Z" fill="#D2D0D0"/>
<path d="M507.014 224.141L516.718 258.557L455.883 233.832L446.203 199.438L507.014 224.141Z" fill="#D5DFE6"/>
<path d="M507.014 224.141L455.883 233.832L446.203 199.438L507.014 224.141Z" fill="#E9F0F4"/>
<path d="M536.826 239.227C536.826 239.227 525.617 251.202 512.075 251.135C512.075 251.135 511.448 248.119 517.091 246.035C518.807 245.493 520.333 244.563 521.517 243.337C522.7 242.112 523.5 240.633 523.836 239.049C523.661 238.451 519.022 238.894 516.99 239.049C514.959 239.205 511.975 237.253 516.99 236.144C522.006 235.036 529.98 231.931 534.97 232.042C534.77 232.131 540.562 235.834 536.826 239.227Z" fill="#EFB185"/>
<path d="M562.404 151.164C562.404 151.164 573.814 151.563 578.302 159.613C582.791 167.663 595.229 205.738 589.863 217.003C584.496 228.268 536.525 241.84 536.525 241.84C537.108 239.73 537.035 237.52 536.316 235.444C535.596 233.367 534.257 231.501 532.438 230.042L571.457 207.201C571.457 207.201 552.674 156.619 562.404 151.164Z" fill="#BAD1DE"/>
<path d="M571.457 207.206L532.438 230.047C533.255 230.707 533.979 231.452 534.594 232.265C544.073 227.475 575.268 211.531 577.851 207.251C580.685 202.594 563.256 160.017 560.523 153.453C555.708 164.873 571.457 207.206 571.457 207.206Z" fill="#CAE0EA"/>
</g>
<defs>
<clipPath id="clip0_2378_254">
<rect width="690" height="350" fill="white"/>
</clipPath>
</defs>
</svg>
