<svg width="690" height="350" viewBox="0 0 690 350" fill="none" xmlns="http://www.w3.org/2000/svg">
<path d="M100.273 348.99C100.273 348.99 56.8834 180.98 63.7334 155.85C70.5834 130.72 268.523 14.2603 365.973 8.16034C463.423 2.06034 618.733 171.84 625.583 206.1C632.433 240.36 571.533 348.99 571.533 348.99H100.273Z" fill="#FFF6DF"/>
<path d="M246.414 349.906C246.414 350.06 246.414 350.024 246.414 349.797C246.425 349.833 246.425 349.871 246.414 349.906Z" fill="#3F405A"/>
<path d="M214.059 307.491C212.357 311.539 211.032 315.333 211.628 319.831H163.288C162.728 319.831 161.586 320.014 161.294 319.479C161.002 318.944 161.877 317.546 161.926 316.938C161.869 315.439 161.611 313.955 161.16 312.524C160.771 310.615 160.418 308.488 161.403 306.798C162.558 304.828 165.209 304.074 166.266 302.044C167.677 299.357 165.573 296.16 165.683 293.132C165.713 291.969 166.077 290.839 166.731 289.876C167.385 288.913 168.302 288.158 169.372 287.701C170.443 287.244 171.622 287.104 172.77 287.297C173.917 287.491 174.985 288.009 175.847 288.792C176.771 289.619 177.488 290.749 178.668 291.151C179.346 291.304 180.051 291.283 180.719 291.09C181.387 290.896 181.994 290.536 182.485 290.044C183.543 289.144 184.382 288.002 185.488 287.175C186.014 286.718 186.66 286.421 187.35 286.32C188.039 286.219 188.743 286.317 189.379 286.603C191.348 287.758 190.996 291.065 192.929 292.281C194.218 293.096 195.895 292.573 197.306 292.002C198.716 291.43 200.345 290.786 201.695 291.527C202.285 291.933 202.778 292.463 203.14 293.081C203.501 293.699 203.722 294.389 203.786 295.102C203.901 296.521 204.416 297.878 205.269 299.017C206.485 300.233 208.345 300.366 210.047 300.5C211.586 300.476 213.076 301.037 214.217 302.068C214.332 302.207 214.438 302.353 214.534 302.506C215.397 303.989 214.74 305.886 214.059 307.491Z" fill="#0BB8A6"/>
<path d="M200.975 309.386C200.195 312.81 199.868 316.321 200.002 319.83H167.346L166.398 309.982C166.267 309.413 166.254 308.823 166.359 308.248C166.463 307.673 166.683 307.126 167.006 306.639C168.075 305.423 170.057 305.812 171.431 304.985C172.416 304.27 173.097 303.212 173.34 302.019C173.569 300.844 173.979 299.712 174.556 298.663C174.864 298.144 175.336 297.743 175.897 297.523C176.459 297.303 177.078 297.276 177.656 297.447C178.957 297.994 179.297 299.745 180.489 300.499C181.911 301.411 183.771 300.499 185.206 299.575C186.641 298.651 188.489 297.727 189.935 298.627C191.638 299.684 191.419 302.529 193.109 303.611C195.127 304.827 197.972 302.614 200.039 303.879C200.445 304.172 200.776 304.557 201.005 305.003C201.233 305.449 201.352 305.943 201.352 306.444C201.358 307.437 201.232 308.427 200.975 309.386Z" fill="#008FA7"/>
<path d="M213.272 310.602V340.279H157.941L157.188 310.602H213.272Z" fill="#3F405A"/>
<path d="M214.398 310.539H186.07V340.278H214.398V310.539Z" fill="#2E2D44"/>
<path d="M188.273 252.142C186.476 252.469 184.78 253.214 183.325 254.318C182.79 254.756 182.23 255.162 181.647 255.534C179.6 256.72 177.227 257.219 174.875 256.957C176.339 254.983 178.397 253.53 180.748 252.811C181.513 252.602 182.301 252.484 183.094 252.458C184.046 252.416 184.989 252.257 185.903 251.984C186.352 251.85 186.814 251.729 187.264 251.631C187.316 251.619 187.363 251.594 187.402 251.559C187.441 251.523 187.469 251.477 187.485 251.427C187.501 251.377 187.504 251.323 187.493 251.272C187.482 251.22 187.457 251.172 187.422 251.133C187.021 250.72 186.62 250.33 186.206 249.917H186.109C183.708 249.802 181.315 250.265 179.131 251.267C178.461 251.582 177.775 251.862 177.076 252.106C174.359 252.955 171.444 252.92 168.748 252.008C170.975 250.07 173.767 248.898 176.711 248.665C177.655 248.609 178.602 248.666 179.532 248.835C180.735 249.053 181.961 249.114 183.179 249.017C183.629 249.017 184.079 249.017 184.529 249.017C184.589 249.013 184.647 248.992 184.695 248.957C184.744 248.921 184.781 248.872 184.803 248.816C184.824 248.76 184.83 248.698 184.818 248.639C184.806 248.58 184.777 248.526 184.735 248.482C183.811 247.595 182.887 246.732 181.988 245.881C181.964 245.856 181.936 245.838 181.904 245.825C181.873 245.812 181.839 245.807 181.805 245.808H181.696C179.571 245.727 177.456 246.144 175.52 247.024C174.872 247.336 174.207 247.608 173.526 247.838C170.973 248.618 168.239 248.562 165.72 247.68C167.805 245.873 170.411 244.779 173.161 244.555C174.053 244.51 174.946 244.571 175.824 244.738C176.903 244.924 178.002 244.977 179.094 244.896H180.164C180.226 244.895 180.286 244.876 180.337 244.84C180.387 244.804 180.425 244.754 180.447 244.696C180.468 244.638 180.471 244.574 180.455 244.515C180.439 244.455 180.406 244.401 180.358 244.361C179.398 243.473 178.45 242.622 177.526 241.783C177.477 241.746 177.417 241.724 177.355 241.723H176.942C174.894 241.673 172.861 242.089 170.997 242.938C170.35 243.251 169.684 243.523 169.003 243.753C166.472 244.564 163.747 244.534 161.234 243.668C163.316 241.865 165.918 240.771 168.662 240.543C169.554 240.498 170.448 240.559 171.325 240.726C172.405 240.912 173.503 240.965 174.596 240.884C174.96 240.884 175.313 240.884 175.678 240.884C175.74 240.887 175.802 240.871 175.854 240.837C175.906 240.803 175.946 240.753 175.968 240.694C175.99 240.636 175.992 240.572 175.975 240.512C175.958 240.452 175.922 240.399 175.872 240.361C174.778 239.4 173.732 238.476 172.723 237.613C172.687 237.595 172.648 237.586 172.608 237.586C172.568 237.586 172.528 237.595 172.492 237.613C171.652 237.809 170.799 237.943 169.939 238.014C168.978 238.106 168.033 238.327 167.131 238.671C166.277 238.936 165.396 239.103 164.504 239.169C161.851 239.414 159.189 238.805 156.906 237.431C159.161 236.199 161.75 235.717 164.298 236.057C165.16 236.2 166.012 236.395 166.851 236.641C168.16 237 169.529 237.096 170.875 236.92H171.179C171.237 236.911 171.291 236.886 171.335 236.846C171.378 236.807 171.41 236.756 171.425 236.7C171.441 236.643 171.439 236.584 171.422 236.528C171.404 236.472 171.37 236.423 171.325 236.385C169.477 234.805 167.824 233.431 166.462 232.3C166.399 232.277 166.33 232.277 166.267 232.3C165.462 232.422 164.65 232.491 163.836 232.507C163.013 232.508 162.194 232.627 161.404 232.859C160.542 233.138 159.647 233.297 158.742 233.334C156.242 233.379 153.793 232.625 151.751 231.182C153.946 230.181 156.404 229.909 158.766 230.404C159.61 230.617 160.442 230.877 161.258 231.182C162.333 231.569 163.473 231.743 164.614 231.692H164.833C164.895 231.69 164.956 231.668 165.006 231.63C165.056 231.592 165.092 231.539 165.111 231.479C165.13 231.419 165.129 231.355 165.11 231.295C165.091 231.235 165.053 231.183 165.003 231.145C164.383 230.647 163.787 230.209 163.398 229.869C162.479 229.131 161.508 228.461 160.492 227.863C158.9 226.914 157.368 226.039 156.225 225.431C153.368 223.79 152.346 223.352 150 218.367C151.937 218.494 153.818 219.073 155.491 220.06C157.163 221.046 158.581 222.411 159.629 224.045L159.897 224.434C161.287 226.306 162.922 227.983 164.76 229.419L166.182 230.562C166.236 230.601 166.301 230.622 166.368 230.622C166.434 230.622 166.499 230.601 166.553 230.561C166.607 230.522 166.647 230.467 166.668 230.404C166.689 230.341 166.689 230.272 166.669 230.209C166.282 229.173 165.691 228.226 164.93 227.425C164.304 226.779 163.715 226.097 163.167 225.382C161.701 223.391 160.928 220.974 160.966 218.501C163.103 219.793 164.769 221.736 165.72 224.045C166.037 224.891 166.249 225.773 166.352 226.671C166.452 227.487 166.665 228.285 166.985 229.042C167.372 229.957 167.678 230.905 167.897 231.875C167.902 231.895 167.902 231.916 167.897 231.935C169.112 232.908 170.438 234.039 171.933 235.303C171.98 235.344 172.039 235.369 172.101 235.376C172.163 235.382 172.226 235.369 172.28 235.338C172.335 235.308 172.379 235.261 172.406 235.205C172.433 235.148 172.442 235.085 172.431 235.024V234.938C172.222 233.869 171.809 232.849 171.216 231.935C170.664 231.135 170.161 230.303 169.708 229.443C168.618 227.119 168.299 224.508 168.796 221.99C170.795 223.752 172.176 226.109 172.735 228.714C172.918 229.667 172.971 230.64 172.893 231.607C172.844 232.452 172.918 233.3 173.112 234.124C173.294 234.925 173.424 235.737 173.501 236.556C173.501 236.589 173.508 236.621 173.523 236.651C173.538 236.681 173.56 236.706 173.586 236.726L177.112 239.814C177.157 239.851 177.212 239.875 177.27 239.882C177.329 239.889 177.388 239.879 177.44 239.854C177.493 239.828 177.537 239.788 177.567 239.737C177.598 239.687 177.613 239.629 177.611 239.571C177.617 239.474 177.617 239.376 177.611 239.279C177.515 237.872 177.134 236.498 176.492 235.242C176.072 234.454 175.699 233.642 175.374 232.811C174.505 230.301 174.462 227.578 175.252 225.042C177.099 227.064 178.26 229.616 178.571 232.337C178.645 233.315 178.6 234.299 178.438 235.267C178.292 236.175 178.267 237.099 178.365 238.014C178.484 238.97 178.524 239.934 178.486 240.896C178.484 240.935 178.49 240.973 178.505 241.009C178.52 241.045 178.542 241.077 178.571 241.103C179.828 242.237 181.116 243.417 182.437 244.641C182.483 244.68 182.538 244.705 182.598 244.714C182.657 244.723 182.717 244.715 182.772 244.691C182.827 244.666 182.874 244.627 182.907 244.577C182.94 244.528 182.959 244.469 182.96 244.41C182.93 242.89 182.577 241.394 181.927 240.021C181.532 239.21 181.183 238.378 180.881 237.528C180.073 234.998 180.098 232.274 180.954 229.759C182.757 231.838 183.855 234.434 184.091 237.176C184.137 238.141 184.067 239.108 183.884 240.057C183.702 240.986 183.653 241.935 183.738 242.878C183.817 243.849 183.817 244.825 183.738 245.796C183.738 245.877 183.768 245.955 183.824 246.014C184.857 246.975 185.89 247.972 186.948 248.993V249.054C186.827 248.385 186.741 247.704 186.681 247.024C186.585 245.819 186.34 244.63 185.951 243.486C185.643 242.596 185.439 241.674 185.343 240.738C185.124 237.791 185.853 234.852 187.422 232.349C188.744 234.872 189.225 237.752 188.796 240.568C188.664 241.293 188.494 242.012 188.285 242.72C187.632 245.031 187.541 247.466 188.018 249.82C188.023 249.864 188.023 249.909 188.018 249.954C188.016 249.997 188.024 250.04 188.041 250.08C188.057 250.12 188.083 250.156 188.115 250.185C188.626 250.707 189.161 251.255 189.696 251.826C189.735 251.868 189.784 251.898 189.839 251.913C189.894 251.927 189.952 251.927 190.007 251.91C190.061 251.894 190.11 251.862 190.147 251.819C190.185 251.777 190.209 251.724 190.219 251.668C190.439 250.189 190.339 248.68 189.927 247.242C189.707 246.524 189.529 245.793 189.392 245.054C189.056 242.709 189.482 240.318 190.608 238.233C191.903 240.315 192.504 242.755 192.322 245.2C192.232 246.052 192.036 246.889 191.738 247.692C191.443 248.531 191.267 249.407 191.216 250.294C191.143 251.149 191.013 251.998 190.826 252.835C190.806 252.87 190.796 252.91 190.796 252.951C190.796 252.991 190.806 253.031 190.826 253.066L192.516 254.914C192.551 254.953 192.595 254.982 192.645 254.998C192.694 255.015 192.747 255.017 192.798 255.006C192.849 254.995 192.896 254.97 192.934 254.935C192.972 254.9 193 254.855 193.015 254.805C193.454 253.461 193.599 252.039 193.44 250.634C193.343 249.86 193.29 249.081 193.282 248.3C193.341 245.938 194.15 243.655 195.592 241.783C196.512 244.053 196.687 246.557 196.091 248.932C195.854 249.756 195.52 250.548 195.094 251.291C194.662 252.075 194.335 252.913 194.121 253.783C193.943 254.469 193.724 255.142 193.465 255.802C193.441 255.844 193.429 255.893 193.429 255.941C193.429 255.99 193.441 256.038 193.465 256.081C194.061 256.738 194.681 257.406 195.252 258.099C195.287 258.141 195.333 258.172 195.385 258.19C195.437 258.208 195.492 258.211 195.546 258.2C195.599 258.189 195.649 258.164 195.689 258.127C195.73 258.09 195.759 258.042 195.775 257.99C196.134 256.923 196.266 255.792 196.164 254.671C196.089 253.96 196.056 253.246 196.067 252.531C196.164 250.471 196.913 248.496 198.206 246.89C198.968 248.893 199.07 251.086 198.498 253.151C198.27 253.871 197.956 254.561 197.562 255.206C197.185 255.85 196.895 256.541 196.699 257.261C196.545 257.826 196.359 258.382 196.14 258.926C196.114 258.968 196.1 259.017 196.1 259.066C196.1 259.115 196.114 259.164 196.14 259.206C197.185 260.422 198.243 261.637 199.325 262.926C199.363 262.968 199.412 262.998 199.466 263.014C199.52 263.029 199.577 263.029 199.631 263.014C199.685 262.999 199.734 262.969 199.773 262.928C199.811 262.887 199.837 262.835 199.848 262.78C200.079 261.572 200.046 260.327 199.75 259.133C199.581 258.464 199.447 257.786 199.349 257.102C199.121 255.058 199.546 252.993 200.565 251.206C201.594 253.056 202.019 255.181 201.781 257.285C201.665 258.038 201.453 258.774 201.149 259.473C200.875 260.176 200.695 260.912 200.614 261.662C200.527 262.38 200.389 263.091 200.2 263.789C200.18 263.829 200.169 263.873 200.169 263.917C200.169 263.961 200.18 264.005 200.2 264.045L202.206 266.476C202.24 266.516 202.282 266.546 202.331 266.565C202.379 266.583 202.431 266.589 202.482 266.582C202.533 266.574 202.581 266.554 202.623 266.523C202.664 266.492 202.696 266.451 202.717 266.403C203.209 265.252 203.442 264.007 203.398 262.756C203.359 262.072 203.359 261.386 203.398 260.701C203.599 258.653 204.451 256.722 205.829 255.194C206.465 257.236 206.439 259.428 205.756 261.455C205.491 262.15 205.144 262.811 204.723 263.425C204.29 264.083 203.942 264.794 203.69 265.54C203.499 266.115 203.267 266.676 202.997 267.218C202.968 267.266 202.952 267.32 202.952 267.376C202.952 267.432 202.968 267.486 202.997 267.534C213.939 280.786 224.553 294.829 224.711 295.048L223.762 295.765C223.58 295.522 210.267 277.905 198.133 263.558C198.105 263.528 198.072 263.504 198.034 263.487C197.996 263.471 197.956 263.462 197.915 263.461C196.322 263.387 194.735 263.691 193.282 264.349C192.748 264.611 192.195 264.835 191.629 265.017C189.646 265.646 187.512 265.612 185.55 264.92C187.172 263.516 189.199 262.665 191.337 262.488C192.025 262.461 192.714 262.51 193.392 262.634C194.254 262.788 195.132 262.833 196.006 262.768H196.772C196.832 262.77 196.891 262.754 196.941 262.722C196.992 262.69 197.032 262.644 197.057 262.59C197.082 262.535 197.09 262.474 197.08 262.415C197.07 262.356 197.043 262.301 197.003 262.257C196.273 261.406 195.556 260.555 194.839 259.741C194.807 259.705 194.768 259.677 194.723 259.66C194.679 259.643 194.631 259.638 194.583 259.644C193.074 259.816 191.626 260.336 190.352 261.163C189.85 261.49 189.33 261.79 188.796 262.063C186.935 262.951 184.839 263.22 182.814 262.829C184.223 261.216 186.11 260.096 188.2 259.631C188.893 259.5 189.599 259.451 190.304 259.485C191.149 259.506 191.993 259.428 192.82 259.254C193.1 259.254 193.38 259.133 193.671 259.096C193.727 259.089 193.78 259.067 193.824 259.032C193.867 258.997 193.901 258.95 193.919 258.897C193.938 258.844 193.942 258.787 193.931 258.732C193.919 258.677 193.892 258.627 193.854 258.586C192.966 257.564 192.091 256.592 191.24 255.644C191.208 255.612 191.17 255.589 191.128 255.574C191.086 255.559 191.041 255.554 190.997 255.558C189.345 255.834 187.773 256.464 186.389 257.406C185.732 257.82 185.076 258.209 184.626 258.428C182.492 259.444 180.089 259.751 177.769 259.303C179.381 257.46 181.541 256.181 183.933 255.656C184.733 255.5 185.55 255.443 186.365 255.486C187.324 255.516 188.283 255.431 189.222 255.23C189.647 255.145 190.061 255.06 190.437 255.011C190.493 255.002 190.545 254.978 190.589 254.941C190.632 254.905 190.664 254.857 190.683 254.804C190.702 254.75 190.706 254.693 190.694 254.638C190.683 254.582 190.658 254.531 190.62 254.489C189.915 253.723 189.222 252.993 188.553 252.3C188.528 252.248 188.488 252.205 188.438 252.177C188.388 252.149 188.331 252.136 188.273 252.142Z" fill="#008FA7"/>
<path d="M180.701 195.151C182.378 198.19 183.679 201.655 183.132 205.084C182.281 209.947 177.71 213.959 178.269 218.883C178.646 222.628 181.916 225.388 184.968 227.552C188.02 229.716 191.497 231.941 192.725 235.503C193.856 238.798 192.834 242.384 191.995 245.752C191.157 249.12 190.609 252.95 192.482 255.88C194.354 258.81 198.099 259.88 200.907 261.959C202.62 263.292 203.991 265.015 204.906 266.983C205.821 268.951 206.255 271.109 206.172 273.278C206.05 278.068 207.387 280.573 212.068 282.785C214.074 283.758 215.01 286.08 215.412 288.269C215.813 290.457 215.874 292.743 216.846 294.737C217.596 296.172 218.77 297.341 220.208 298.085C221.646 298.829 223.278 299.111 224.883 298.895L225.296 298.749L225.564 298.688C226.519 298.436 227.413 297.989 228.189 297.376C228.965 296.764 229.607 295.998 230.074 295.127C230.542 294.256 230.825 293.298 230.907 292.312C230.988 291.327 230.866 290.336 230.548 289.399C228.98 285.059 227.533 281.545 229.333 276.865C230.548 273.558 233.077 270.615 233.199 267.138C233.454 259.527 222.792 254.688 223.472 247.114C223.959 242.056 229.551 238.384 229.381 233.315C229.284 230.117 226.865 227.467 224.299 225.57C221.734 223.673 218.792 222.141 216.786 219.649C212.287 214.069 217.248 207.406 216.384 201.303C215.071 191.99 202.293 195.029 197.625 188.962C195.108 185.704 195.655 181.011 193.892 177.278C193.055 175.572 191.763 174.131 190.158 173.114C188.553 172.097 186.698 171.544 184.798 171.516C177.005 171.516 173.236 179.309 175.704 186.02C176.932 189.327 179.023 192.111 180.701 195.151Z" fill="#5453A3"/>
<path d="M188.262 186.433C188.214 186.344 188.132 186.278 188.035 186.25C187.938 186.221 187.834 186.233 187.745 186.281C187.657 186.329 187.591 186.411 187.562 186.508C187.534 186.605 187.545 186.709 187.593 186.798C191.97 195.636 200.055 211.32 206.548 227.138C217.879 254.724 222.791 284.28 224.785 298.87L225.295 298.748C223.423 250.481 198.633 203.916 188.262 186.433Z" fill="#272660"/>
<path d="M212.999 241.777C212.999 241.777 195.978 240.184 195.844 240.707C195.711 241.23 213.863 243.625 213.863 243.625L212.999 241.777Z" fill="#272660"/>
<path d="M219.012 262.275C219.012 262.275 205.189 259.625 204.994 260.136C204.8 260.646 219.681 264.196 219.681 264.196L219.012 262.275Z" fill="#272660"/>
<path d="M201.515 213.468C201.515 213.468 184.494 211.863 184.36 212.386C184.226 212.909 202.366 215.316 202.366 215.316L201.515 213.468Z" fill="#272660"/>
<path d="M200.648 212.069C200.648 212.069 205.621 195.728 206.156 195.789C206.691 195.85 202.034 213.564 202.034 213.564L200.648 212.069Z" fill="#272660"/>
<path d="M211.156 237.959C211.156 237.959 216.129 221.619 216.664 221.68C217.199 221.741 212.542 239.455 212.542 239.455L211.156 237.959Z" fill="#272660"/>
<path d="M221.82 276.144C221.82 276.144 227.413 261.189 227.899 261.25C228.386 261.311 222.343 278.624 222.343 278.624L221.82 276.144Z" fill="#272660"/>
<path d="M222.751 214.989C224.73 213.67 226.992 212.837 229.353 212.558C230.232 212.46 231.104 212.314 231.967 212.12C234.957 211.358 237.621 209.652 239.566 207.257C236.418 206.747 233.19 207.254 230.35 208.704C229.444 209.199 228.6 209.799 227.833 210.491C226.91 211.323 225.885 212.034 224.782 212.606C224.239 212.882 223.704 213.186 223.177 213.518C223.117 213.552 223.049 213.569 222.98 213.569C222.911 213.568 222.843 213.55 222.783 213.516C222.723 213.482 222.673 213.432 222.638 213.373C222.602 213.314 222.583 213.247 222.581 213.178C222.581 212.432 222.581 211.715 222.581 211.026C224.722 208.744 227.377 207.005 230.326 205.956C231.236 205.648 232.129 205.291 233 204.886C236.313 203.22 239.009 200.541 240.696 197.239C236.857 197.46 233.187 198.895 230.216 201.336C229.298 202.142 228.482 203.056 227.785 204.059C226.861 205.323 225.787 206.471 224.587 207.476C224.137 207.853 223.7 208.242 223.286 208.692C223.229 208.748 223.156 208.785 223.077 208.799C222.998 208.813 222.916 208.803 222.843 208.771C222.769 208.738 222.708 208.684 222.665 208.615C222.623 208.547 222.602 208.468 222.605 208.388C222.666 206.722 222.739 205.081 222.812 203.524C222.824 203.44 222.858 203.361 222.909 203.293L223.019 203.196C224.931 201.187 227.294 199.662 229.912 198.746C230.921 198.382 231.882 198.005 232.514 197.701C235.601 196.141 238.112 193.642 239.687 190.564C236.122 190.779 232.716 192.12 229.961 194.394C229.088 195.158 228.308 196.023 227.639 196.971C226.796 198.126 225.816 199.176 224.721 200.096C224.368 200.388 224.028 200.692 223.687 201.008C223.629 201.06 223.556 201.095 223.477 201.106C223.399 201.117 223.32 201.105 223.248 201.072C223.177 201.038 223.117 200.984 223.076 200.916C223.035 200.849 223.015 200.77 223.019 200.692C223.116 198.989 223.213 197.324 223.335 195.719C223.337 195.638 223.367 195.561 223.42 195.5L223.797 195.111C225.672 193.207 227.96 191.759 230.484 190.88C231.375 190.584 232.248 190.235 233.098 189.835C236.183 188.285 238.695 185.794 240.271 182.722C236.708 182.93 233.303 184.262 230.545 186.528C229.671 187.292 228.892 188.157 228.222 189.105C227.386 190.262 226.405 191.308 225.304 192.217C224.94 192.521 224.587 192.838 224.247 193.154C224.19 193.208 224.117 193.244 224.039 193.257C223.96 193.269 223.88 193.258 223.809 193.223C223.738 193.189 223.678 193.133 223.639 193.065C223.6 192.996 223.583 192.916 223.59 192.838C223.736 190.953 223.882 189.19 224.04 187.427C224.041 187.373 224.056 187.32 224.084 187.273C224.112 187.226 224.151 187.187 224.198 187.16C225.163 186.582 226.085 185.936 226.958 185.227C227.925 184.386 229.001 183.679 230.156 183.123C231.228 182.659 232.24 182.067 233.171 181.36C235.873 179.184 237.81 176.203 238.703 172.85C235.481 173.734 232.627 175.626 230.557 178.248C229.884 179.165 229.263 180.119 228.697 181.105C227.811 182.637 226.619 183.969 225.195 185.02L224.867 185.263C224.804 185.308 224.73 185.333 224.653 185.337C224.576 185.341 224.5 185.322 224.433 185.284C224.367 185.245 224.313 185.189 224.277 185.12C224.242 185.052 224.227 184.975 224.235 184.898C224.539 181.737 224.842 178.953 225.11 176.643C225.115 176.599 225.129 176.557 225.153 176.519C225.176 176.481 225.207 176.449 225.244 176.424C226.125 175.794 226.962 175.103 227.748 174.357C228.518 173.616 229.39 172.99 230.338 172.497C231.386 171.96 232.366 171.299 233.256 170.528C235.629 168.3 237.23 165.374 237.827 162.175C234.856 163.222 232.298 165.195 230.532 167.804C229.927 168.762 229.383 169.757 228.903 170.783C228.256 172.122 227.351 173.32 226.241 174.309L226.01 174.503C225.947 174.556 225.871 174.589 225.789 174.597C225.708 174.605 225.626 174.588 225.555 174.548C225.484 174.509 225.426 174.448 225.39 174.375C225.354 174.302 225.341 174.219 225.353 174.139C225.487 173.117 225.596 172.218 225.694 171.488C225.896 169.967 226.197 168.46 226.593 166.977C227.225 164.655 227.87 162.443 228.344 160.813C229.56 156.692 230.095 155.354 227.748 148.57C226.075 150.451 224.864 152.697 224.212 155.129C223.56 157.56 223.484 160.11 223.991 162.576C223.991 162.783 223.991 162.99 224.089 163.184C224.49 166.174 224.49 169.204 224.089 172.193C223.991 172.886 223.894 173.677 223.785 174.552C223.776 174.64 223.738 174.722 223.677 174.787C223.616 174.851 223.536 174.893 223.448 174.907C223.361 174.921 223.272 174.906 223.194 174.863C223.116 174.821 223.055 174.754 223.019 174.674C222.448 173.356 222.142 171.939 222.119 170.503C222.113 169.329 222.044 168.156 221.912 166.99C221.427 163.885 219.967 161.015 217.742 158.795C216.922 161.951 217.131 165.286 218.338 168.315C218.806 169.393 219.411 170.406 220.137 171.33C220.785 172.182 221.305 173.124 221.681 174.126C222.152 175.333 222.725 176.496 223.396 177.604V177.664C223.165 179.646 222.934 181.932 222.691 184.461C222.68 184.542 222.645 184.619 222.591 184.681C222.537 184.743 222.465 184.787 222.385 184.808C222.306 184.829 222.221 184.826 222.144 184.798C222.066 184.771 221.998 184.721 221.949 184.655V184.558C221.179 183.359 220.65 182.021 220.393 180.619C220.165 179.387 219.869 178.17 219.505 176.971C218.417 173.813 216.346 171.087 213.596 169.19C213.342 172.648 214.194 176.096 216.028 179.038C216.72 180.085 217.537 181.044 218.46 181.895C219.273 182.635 219.977 183.486 220.551 184.424C221.104 185.343 221.717 186.225 222.387 187.062C222.416 187.093 222.438 187.129 222.451 187.169C222.463 187.209 222.466 187.252 222.46 187.293C222.289 189.214 222.131 191.245 221.973 193.372C221.967 193.452 221.938 193.528 221.889 193.59C221.84 193.653 221.774 193.699 221.698 193.724C221.622 193.749 221.541 193.751 221.465 193.729C221.388 193.708 221.32 193.664 221.268 193.603L221.025 193.312C219.833 191.916 218.943 190.29 218.411 188.534C218.073 187.404 217.667 186.295 217.195 185.214C215.732 182.081 213.303 179.499 210.265 177.847C210.369 181.431 211.612 184.889 213.815 187.719C214.635 188.695 215.57 189.569 216.599 190.321C217.561 191.035 218.42 191.878 219.153 192.825C219.913 193.825 220.75 194.764 221.657 195.634C221.692 195.669 221.72 195.711 221.738 195.757C221.757 195.803 221.767 195.852 221.766 195.901C221.621 198.09 221.475 200.363 221.353 202.71C221.349 202.788 221.322 202.864 221.276 202.928C221.229 202.991 221.165 203.04 221.091 203.067C221.017 203.094 220.937 203.099 220.86 203.081C220.784 203.063 220.714 203.022 220.66 202.965C219.309 201.518 218.278 199.803 217.633 197.932C217.289 196.816 216.883 195.72 216.417 194.649C214.876 191.552 212.383 189.029 209.305 187.452C209.51 191.015 210.843 194.421 213.11 197.178C213.935 198.122 214.874 198.959 215.906 199.67C216.915 200.38 217.82 201.227 218.593 202.187C219.389 203.172 220.263 204.091 221.207 204.935C221.246 204.972 221.276 205.018 221.295 205.068C221.314 205.119 221.321 205.173 221.317 205.226C221.244 207.062 221.171 208.935 221.11 210.844V210.953C220.616 210.213 220.084 209.499 219.517 208.813C218.514 207.597 217.664 206.262 216.988 204.837C216.468 203.73 215.824 202.686 215.067 201.725C212.599 198.777 209.256 196.69 205.523 195.768C206.573 199.324 208.733 202.451 211.688 204.692C212.47 205.253 213.281 205.773 214.119 206.248C216.831 207.814 219.128 210.007 220.818 212.643V212.704C220.844 212.749 220.877 212.79 220.915 212.825C220.958 212.864 220.991 212.911 221.014 212.963C221.037 213.016 221.049 213.072 221.049 213.129C221.049 214.09 221.049 215.074 221.049 216.108C221.047 216.18 221.025 216.251 220.986 216.312C220.947 216.373 220.892 216.423 220.828 216.455C220.763 216.487 220.69 216.502 220.618 216.496C220.546 216.491 220.476 216.466 220.417 216.424C218.865 215.246 217.587 213.744 216.672 212.023C216.226 211.153 215.73 210.308 215.189 209.494C213.388 206.986 210.832 205.12 207.894 204.169C208.565 207.288 210.213 210.112 212.599 212.229C213.46 212.949 214.408 213.558 215.42 214.041C216.449 214.563 217.405 215.217 218.265 215.986C219.094 216.732 219.985 217.408 220.928 218.005C220.974 218.036 221.012 218.078 221.039 218.126C221.066 218.174 221.082 218.229 221.086 218.284C221.086 219.342 221.086 220.424 221.171 221.53C221.175 221.599 221.16 221.668 221.128 221.729C221.097 221.791 221.05 221.843 220.992 221.88C220.933 221.917 220.866 221.938 220.798 221.94C220.729 221.943 220.66 221.928 220.599 221.895C218.972 221.039 217.546 219.845 216.417 218.394C215.772 217.581 215.082 216.806 214.35 216.071C212.157 213.914 209.333 212.513 206.289 212.071C207.502 215.038 209.632 217.539 212.368 219.208C213.333 219.761 214.362 220.194 215.432 220.497C216.549 220.842 217.616 221.333 218.605 221.956C219.389 222.435 220.201 222.866 221.037 223.245C221.097 223.27 221.148 223.312 221.185 223.366C221.222 223.42 221.242 223.483 221.244 223.549C221.244 224.691 221.353 225.859 221.414 227.05C221.417 227.12 221.402 227.19 221.37 227.253C221.338 227.316 221.29 227.369 221.231 227.407C221.172 227.445 221.104 227.467 221.033 227.471C220.963 227.474 220.893 227.459 220.83 227.427C219.525 226.756 218.374 225.82 217.45 224.679C216.879 223.951 216.266 223.257 215.615 222.6C213.661 220.756 211.169 219.585 208.502 219.257C209.611 221.805 211.501 223.934 213.9 225.336C214.762 225.808 215.682 226.168 216.636 226.406C217.572 226.662 218.468 227.047 219.298 227.549C219.956 227.933 220.634 228.282 221.329 228.594C221.389 228.62 221.442 228.662 221.48 228.716C221.519 228.769 221.542 228.832 221.548 228.898C221.657 230.965 221.791 233.093 221.937 235.257C221.945 235.332 221.931 235.408 221.896 235.475C221.861 235.543 221.808 235.599 221.742 235.636C221.676 235.673 221.601 235.691 221.525 235.686C221.45 235.681 221.377 235.655 221.317 235.609C220.025 234.706 218.946 233.532 218.156 232.169C217.633 231.305 217.086 230.43 216.684 229.907C215.027 227.796 212.74 226.268 210.156 225.543C210.859 228.24 212.405 230.642 214.569 232.4C215.359 233 216.22 233.498 217.134 233.883C218.011 234.291 218.828 234.814 219.566 235.439C220.299 236.026 221.07 236.562 221.876 237.044C221.93 237.072 221.975 237.114 222.007 237.165C222.039 237.216 222.057 237.275 222.058 237.336C222.156 238.685 222.265 240.035 222.362 241.396C222.368 241.464 222.356 241.532 222.328 241.594C222.3 241.655 222.255 241.708 222.2 241.748C222.145 241.787 222.08 241.811 222.013 241.818C221.945 241.825 221.877 241.813 221.815 241.786C220.337 241.157 219.011 240.22 217.925 239.038C217.334 238.373 216.705 237.744 216.04 237.153C213.984 235.425 211.427 234.402 208.745 234.235C209.999 236.722 212.008 238.748 214.484 240.023C215.36 240.431 216.283 240.733 217.232 240.922C218.234 241.143 219.203 241.494 220.113 241.968C220.814 242.325 221.537 242.638 222.277 242.904C222.347 242.928 222.409 242.971 222.454 243.03C222.5 243.088 222.527 243.159 222.532 243.232C224.332 265.518 227.14 288.217 227.189 288.618L228.721 288.424C228.721 288.035 225.146 259.512 223.481 235.111C223.478 235.003 223.517 234.898 223.59 234.819C225.012 233.311 226.77 232.161 228.721 231.463C229.453 231.209 230.171 230.916 230.873 230.588C233.268 229.373 235.214 227.427 236.429 225.032C233.647 225.199 230.99 226.247 228.842 228.023C228.172 228.626 227.573 229.303 227.055 230.041C226.378 230.939 225.599 231.755 224.733 232.473L223.991 233.141C223.937 233.195 223.868 233.231 223.794 233.247C223.719 233.263 223.641 233.257 223.57 233.23C223.498 233.204 223.436 233.157 223.39 233.096C223.344 233.035 223.317 232.962 223.311 232.886C223.213 231.427 223.128 229.98 223.055 228.57C223.05 228.507 223.061 228.445 223.087 228.387C223.112 228.33 223.151 228.28 223.201 228.242C224.764 227.038 226.581 226.206 228.514 225.81C229.282 225.668 230.041 225.481 230.788 225.251C233.333 224.39 235.536 222.737 237.073 220.533C234.297 220.311 231.522 220.975 229.146 222.43C228.378 222.937 227.672 223.533 227.043 224.205C226.279 224.996 225.422 225.69 224.49 226.272C224.162 226.467 223.858 226.673 223.554 226.892C223.493 226.933 223.423 226.957 223.351 226.962C223.278 226.967 223.205 226.953 223.14 226.921C223.074 226.889 223.019 226.84 222.978 226.779C222.938 226.719 222.914 226.649 222.909 226.576C222.828 224.825 222.755 223.123 222.691 221.47C222.689 221.411 222.701 221.353 222.726 221.3C222.752 221.247 222.789 221.201 222.836 221.166C224.702 219.697 226.883 218.682 229.207 218.199C230.078 218.038 230.938 217.827 231.785 217.567C234.696 216.577 237.217 214.687 238.982 212.169C235.802 211.908 232.621 212.666 229.9 214.333C229.011 214.895 228.194 215.565 227.469 216.327C226.606 217.231 225.634 218.023 224.575 218.685C224.101 218.977 223.639 219.281 223.189 219.609C223.13 219.651 223.06 219.676 222.988 219.682C222.916 219.687 222.843 219.673 222.778 219.64C222.714 219.608 222.659 219.559 222.62 219.497C222.581 219.436 222.559 219.366 222.557 219.293C222.557 217.944 222.557 216.631 222.557 215.378C222.545 215.301 222.557 215.223 222.592 215.153C222.627 215.083 222.683 215.026 222.751 214.989Z" fill="#008FA7"/>
<path d="M252.954 251.729C252.151 250.146 250.984 248.776 249.55 247.729C249.013 247.354 248.497 246.948 248.006 246.514C246.333 244.932 245.209 242.858 244.796 240.593C247.039 241.413 248.963 242.924 250.291 244.909C250.703 245.563 251.034 246.266 251.276 247C251.579 247.858 251.987 248.675 252.492 249.432C252.747 249.821 252.991 250.21 253.209 250.647C253.235 250.693 253.272 250.731 253.317 250.757C253.361 250.784 253.413 250.798 253.465 250.798C253.517 250.798 253.568 250.784 253.613 250.757C253.658 250.731 253.695 250.693 253.72 250.647L254.486 249.225C253.92 246.97 252.819 244.885 251.276 243.146C250.741 242.514 250.231 241.93 249.927 241.456C248.375 239.161 247.596 236.431 247.702 233.663C250.123 235.213 251.991 237.49 253.039 240.167C253.344 241.029 253.552 241.922 253.659 242.83C253.793 243.994 254.071 245.138 254.486 246.234C254.644 246.647 254.79 247.061 254.912 247.45C254.935 247.505 254.974 247.551 255.024 247.584C255.073 247.617 255.132 247.635 255.191 247.635C255.251 247.635 255.309 247.617 255.359 247.584C255.408 247.551 255.447 247.505 255.471 247.45C256.042 246.331 256.589 245.237 257.124 244.155C257.148 244.097 257.148 244.031 257.124 243.973V243.863C256.596 241.861 255.609 240.009 254.243 238.453C253.773 237.933 253.334 237.385 252.93 236.812C251.468 234.668 250.739 232.109 250.851 229.517C253.113 230.962 254.855 233.092 255.823 235.596C256.116 236.413 256.312 237.262 256.407 238.125C256.528 239.187 256.786 240.229 257.173 241.225C257.294 241.553 257.404 241.869 257.513 242.198C257.534 242.253 257.571 242.302 257.62 242.336C257.669 242.37 257.727 242.388 257.787 242.388C257.846 242.388 257.905 242.37 257.953 242.336C258.002 242.302 258.04 242.253 258.06 242.198L259.677 238.83C259.695 238.77 259.695 238.707 259.677 238.647C259.677 238.526 259.617 238.392 259.58 238.258C259.047 236.333 258.078 234.557 256.747 233.067C256.225 232.459 255.726 231.851 255.434 231.438C253.977 229.292 253.244 226.735 253.343 224.143C255.612 225.584 257.36 227.714 258.328 230.222C258.626 231.038 258.822 231.887 258.911 232.751C259.038 233.812 259.296 234.853 259.677 235.851C259.799 236.179 259.921 236.508 260.03 236.836C260.051 236.892 260.088 236.94 260.137 236.974C260.186 237.008 260.244 237.026 260.304 237.026C260.363 237.026 260.421 237.008 260.47 236.974C260.519 236.94 260.556 236.892 260.577 236.836C261.173 235.547 261.732 234.319 262.255 233.188C262.275 233.153 262.286 233.114 262.286 233.073C262.286 233.032 262.275 232.993 262.255 232.958C261.837 232.226 261.471 231.467 261.161 230.684C260.807 229.816 260.341 228.999 259.775 228.252C259.24 227.562 258.794 226.806 258.449 226.003C257.483 223.6 257.304 220.952 257.939 218.441C259.719 220.194 260.894 222.468 261.294 224.933C261.399 225.78 261.456 226.633 261.465 227.486C261.485 228.808 261.775 230.111 262.316 231.316C262.316 231.413 262.401 231.499 262.449 231.584C262.472 231.636 262.51 231.68 262.557 231.711C262.605 231.742 262.66 231.759 262.717 231.759C262.774 231.759 262.829 231.742 262.877 231.711C262.924 231.68 262.962 231.636 262.984 231.584C263.945 229.407 264.759 227.486 265.416 225.882C265.44 225.819 265.44 225.75 265.416 225.687C265.065 224.956 264.768 224.2 264.528 223.426C264.297 222.66 263.958 221.931 263.519 221.261C263.018 220.533 262.609 219.745 262.304 218.915C261.545 216.601 261.545 214.105 262.304 211.79C263.848 213.559 264.789 215.773 264.99 218.113C265.038 218.959 265.038 219.807 264.99 220.654C264.92 221.763 265.073 222.875 265.44 223.924L265.513 224.131C265.537 224.186 265.576 224.232 265.625 224.265C265.675 224.298 265.733 224.316 265.793 224.316C265.853 224.316 265.911 224.298 265.96 224.265C266.01 224.232 266.049 224.186 266.073 224.131L266.826 222.271C267.25 221.205 267.603 220.112 267.884 219C268.31 217.249 268.699 215.572 268.99 214.331C269.72 211.207 269.842 210.137 273.854 206.562C274.276 208.403 274.259 210.318 273.805 212.151C273.351 213.984 272.472 215.685 271.24 217.116L270.948 217.48C269.593 219.283 268.485 221.257 267.653 223.353L266.984 225.006C266.954 225.066 266.946 225.135 266.961 225.2C266.976 225.266 267.013 225.324 267.066 225.366C267.119 225.407 267.184 225.429 267.251 225.428C267.318 225.427 267.383 225.402 267.434 225.359C268.298 224.702 269.019 223.874 269.55 222.927C269.98 222.159 270.455 221.416 270.972 220.702C272.414 218.851 274.413 217.513 276.674 216.885C276.061 219.239 274.711 221.335 272.82 222.866C272.125 223.405 271.36 223.847 270.547 224.179C269.814 224.491 269.127 224.9 268.504 225.395C267.745 226.014 266.931 226.564 266.073 227.037C265.489 228.41 264.857 229.991 264.054 231.73C264.031 231.786 264.025 231.849 264.038 231.909C264.051 231.969 264.082 232.024 264.127 232.066C264.172 232.108 264.229 232.136 264.289 232.145C264.35 232.155 264.412 232.145 264.468 232.119H264.541C265.471 231.616 266.297 230.939 266.972 230.125C267.572 229.399 268.209 228.705 268.881 228.046C270.748 226.387 273.094 225.365 275.58 225.128C274.492 227.479 272.682 229.422 270.413 230.672C269.57 231.105 268.675 231.428 267.75 231.632C266.948 231.816 266.177 232.119 265.465 232.532C264.77 232.923 264.052 233.268 263.313 233.565C263.25 233.592 263.199 233.64 263.167 233.699C262.583 235.012 261.951 236.398 261.282 237.845C261.257 237.897 261.247 237.956 261.256 238.014C261.264 238.072 261.289 238.126 261.329 238.169C261.368 238.213 261.419 238.243 261.476 238.257C261.533 238.27 261.592 238.267 261.647 238.246L261.915 238.149C263.199 237.666 264.373 236.93 265.367 235.985C265.997 235.371 266.658 234.79 267.349 234.246C269.453 232.748 271.976 231.952 274.559 231.973C273.185 234.27 271.115 236.071 268.65 237.116C267.759 237.459 266.827 237.688 265.878 237.796C264.989 237.912 264.121 238.153 263.301 238.514C262.438 238.886 261.548 239.191 260.638 239.426C260.602 239.435 260.568 239.451 260.539 239.474C260.509 239.497 260.485 239.526 260.468 239.559C259.775 241.043 259.033 242.574 258.255 244.155C258.227 244.207 258.216 244.266 258.222 244.324C258.228 244.382 258.252 244.437 258.29 244.482C258.328 244.527 258.379 244.559 258.436 244.574C258.492 244.589 258.552 244.588 258.608 244.568C260.016 244.121 261.313 243.379 262.413 242.392C263.063 241.796 263.745 241.236 264.456 240.714C266.6 239.252 269.157 238.515 271.75 238.611C270.308 240.881 268.178 242.632 265.671 243.608C264.784 243.924 263.861 244.128 262.924 244.216C262.01 244.312 261.114 244.533 260.261 244.872C259.383 245.231 258.476 245.516 257.55 245.723C257.51 245.732 257.473 245.75 257.442 245.775C257.41 245.801 257.385 245.833 257.367 245.869C256.76 247.085 256.152 248.301 255.459 249.602V249.687C256.05 249.377 256.659 249.101 257.282 248.86C258.376 248.434 259.413 247.874 260.37 247.194C261.13 246.662 261.946 246.214 262.802 245.857C265.49 244.837 268.433 244.7 271.203 245.468C269.212 247.402 266.657 248.654 263.908 249.042C263.198 249.122 262.484 249.163 261.769 249.164C259.425 249.2 257.124 249.796 255.057 250.903H254.936C254.854 250.93 254.785 250.986 254.741 251.061C254.401 251.681 254.048 252.277 253.659 252.994C253.631 253.041 253.617 253.095 253.619 253.15C253.62 253.205 253.637 253.259 253.667 253.304C253.698 253.35 253.741 253.386 253.791 253.409C253.841 253.431 253.897 253.439 253.951 253.432C255.395 253.234 256.778 252.72 258 251.924C258.611 251.521 259.244 251.152 259.896 250.818C262.007 249.864 264.369 249.617 266.632 250.112C265.056 251.902 262.953 253.145 260.626 253.663C259.798 253.795 258.957 253.828 258.121 253.76C257.26 253.721 256.397 253.799 255.556 253.991C254.756 254.171 253.943 254.289 253.124 254.343C253.084 254.344 253.044 254.355 253.01 254.377C252.975 254.398 252.948 254.429 252.93 254.465C252.529 255.146 252.115 255.839 251.714 256.556C251.689 256.6 251.675 256.649 251.675 256.7C251.674 256.75 251.687 256.8 251.712 256.844C251.736 256.888 251.771 256.925 251.815 256.951C251.858 256.977 251.907 256.992 251.957 256.994C253.33 257.033 254.696 256.772 255.957 256.228C256.747 255.9 257.562 255.583 258.097 255.425C260.316 254.82 262.671 254.935 264.82 255.754C262.956 257.243 260.663 258.095 258.279 258.185C257.46 258.192 256.644 258.098 255.848 257.906C254.993 257.727 254.118 257.658 253.246 257.699C252.562 257.742 251.875 257.742 251.191 257.699C251.143 257.693 251.094 257.701 251.051 257.723C251.008 257.744 250.972 257.778 250.948 257.821L249.562 260.045C249.535 260.09 249.519 260.142 249.518 260.194C249.516 260.247 249.528 260.299 249.552 260.345C249.577 260.392 249.613 260.431 249.657 260.46C249.702 260.488 249.753 260.505 249.805 260.507C250.903 260.543 251.997 260.349 253.015 259.936C253.655 259.674 254.308 259.447 254.972 259.255C256.92 258.769 258.972 258.914 260.832 259.669C259.181 260.94 257.165 261.647 255.082 261.687C254.346 261.688 253.615 261.589 252.905 261.395C252.198 261.221 251.47 261.143 250.741 261.164C250.173 261.174 249.605 261.154 249.039 261.103C248.991 261.097 248.942 261.105 248.899 261.127C248.856 261.149 248.82 261.183 248.796 261.225C247.986 262.538 247.122 263.875 246.206 265.237C246.176 265.283 246.159 265.338 246.158 265.394C246.158 265.449 246.173 265.504 246.202 265.551C246.232 265.599 246.274 265.636 246.324 265.66C246.375 265.684 246.431 265.694 246.486 265.687C247.657 265.566 248.788 265.197 249.805 264.605C250.381 264.253 250.978 263.936 251.592 263.656C253.443 262.884 255.492 262.722 257.44 263.194C255.998 264.693 254.116 265.694 252.067 266.051C251.328 266.142 250.581 266.142 249.842 266.051C249.111 265.986 248.375 266.019 247.653 266.149C246.962 266.271 246.263 266.34 245.562 266.355C245.515 266.354 245.468 266.366 245.428 266.39C245.387 266.413 245.353 266.448 245.331 266.489L243.653 269.018C243.626 269.06 243.611 269.109 243.607 269.159C243.604 269.209 243.612 269.259 243.633 269.304C243.653 269.35 243.685 269.39 243.724 269.421C243.764 269.451 243.811 269.472 243.86 269.48C245.057 269.611 246.268 269.483 247.41 269.103C248.115 268.872 248.845 268.653 249.319 268.556C251.296 268.184 253.34 268.453 255.155 269.322C253.429 270.489 251.377 271.077 249.295 271C248.571 270.95 247.856 270.811 247.167 270.586C246.433 270.362 245.672 270.239 244.906 270.222C244.319 270.198 243.734 270.137 243.155 270.039C243.1 270.028 243.042 270.033 242.99 270.055C242.938 270.077 242.894 270.114 242.863 270.161C233.562 284.045 223.41 297.869 223.264 298.124L222.328 297.431C222.51 297.2 235.216 279.863 245.209 264.544C245.228 264.51 245.237 264.473 245.237 264.434C245.237 264.396 245.228 264.359 245.209 264.325C244.825 262.825 244.097 261.434 243.082 260.264C242.694 259.834 242.329 259.383 241.988 258.915C240.872 257.246 240.314 255.267 240.395 253.261C242.152 254.381 243.503 256.034 244.249 257.979C244.47 258.616 244.617 259.277 244.687 259.948C244.787 260.781 244.991 261.598 245.295 262.38C245.38 262.611 245.465 262.854 245.538 263.085C245.552 263.141 245.583 263.191 245.626 263.23C245.67 263.268 245.723 263.293 245.781 263.301C245.838 263.309 245.896 263.299 245.948 263.274C246 263.248 246.044 263.208 246.073 263.158C246.668 262.246 247.288 261.334 247.811 260.447C247.835 260.406 247.847 260.36 247.847 260.313C247.847 260.266 247.835 260.22 247.811 260.179C247.227 258.823 246.341 257.617 245.222 256.653C244.723 256.216 244.237 255.778 244.006 255.438C242.643 253.951 241.791 252.068 241.574 250.064C243.474 250.925 245.047 252.374 246.061 254.197C246.375 254.808 246.62 255.453 246.79 256.118C246.998 256.915 247.305 257.683 247.702 258.404C247.836 258.647 247.969 258.89 248.091 259.146C248.118 259.191 248.156 259.229 248.202 259.255C248.248 259.281 248.3 259.295 248.352 259.295C248.405 259.295 248.457 259.281 248.503 259.255C248.549 259.229 248.587 259.191 248.614 259.146C249.307 258.027 249.988 256.945 250.62 255.887C250.638 255.847 250.647 255.804 250.647 255.76C250.647 255.716 250.638 255.672 250.62 255.632C249.944 253.988 248.89 252.526 247.544 251.365C246.972 250.866 246.425 250.368 246.097 250.015C244.559 248.301 243.605 246.142 243.374 243.851C245.544 244.847 247.341 246.508 248.504 248.593C248.867 249.273 249.145 249.996 249.331 250.745C249.559 251.652 249.902 252.526 250.352 253.346C250.559 253.711 250.753 254.076 250.924 254.453C250.948 254.501 250.985 254.542 251.031 254.571C251.077 254.6 251.131 254.615 251.185 254.615C251.239 254.615 251.293 254.6 251.339 254.571C251.385 254.542 251.422 254.501 251.446 254.453C251.969 253.577 252.456 252.726 252.918 251.912C252.949 251.857 252.962 251.793 252.954 251.729Z" fill="#0BB8A6"/>
<path d="M258.123 212.341C256.696 214.801 256.147 217.674 256.567 220.487C257.442 224.402 261.309 227.465 261.09 231.429C260.932 234.493 258.427 236.851 255.996 238.724C253.564 240.596 250.877 242.541 250.014 245.484C249.211 248.183 250.196 251.052 250.999 253.763C251.801 256.474 252.397 259.538 250.999 261.982C249.601 264.426 246.61 265.435 244.409 267.234C243.07 268.379 242.023 269.827 241.355 271.457C240.687 273.087 240.417 274.853 240.567 276.608C240.859 280.486 239.838 282.541 236.154 284.547C235.427 285.073 234.83 285.759 234.408 286.551C233.987 287.343 233.752 288.222 233.722 289.119C233.657 290.919 233.346 292.703 232.798 294.419C232.241 295.604 231.333 296.589 230.198 297.241C229.063 297.893 227.756 298.182 226.452 298.067L226.026 298.006H225.807C225.027 297.838 224.289 297.512 223.64 297.049C222.99 296.585 222.442 295.993 222.03 295.31C221.618 294.627 221.35 293.866 221.242 293.075C221.135 292.284 221.191 291.48 221.406 290.711C222.513 287.137 223.558 284.231 221.941 280.499C220.81 277.872 218.671 275.635 218.427 272.73C217.929 266.566 226.391 262.237 225.503 256.122C224.908 252.049 220.251 249.277 220.178 245.18C220.178 242.578 221.99 240.316 224.008 238.699C226.026 237.082 228.336 235.709 229.868 233.617C233.297 228.924 229.017 223.709 229.479 218.736C230.184 211.125 240.664 213.107 244.215 208.013C246.135 205.265 245.503 201.484 246.792 198.396C247.403 196.979 248.395 195.759 249.656 194.871C250.918 193.982 252.401 193.46 253.941 193.362C260.251 193.058 263.607 199.247 261.868 204.779C260.812 207.39 259.56 209.918 258.123 212.341Z" fill="#8884BF"/>
<path d="M251.605 205.564C251.649 205.505 251.712 205.464 251.783 205.447C251.854 205.429 251.928 205.437 251.994 205.468C252.06 205.5 252.113 205.553 252.144 205.62C252.175 205.686 252.182 205.761 252.164 205.831C248.955 213.126 242.997 226.196 238.341 239.266C230.219 262.062 227.399 286.196 226.329 298.135L225.903 298.074C225.563 258.828 243.873 220.141 251.605 205.564Z" fill="#5453A3"/>
<path d="M233.675 251.332C233.675 251.332 247.401 249.386 247.535 249.8C247.669 250.213 233.055 252.864 233.055 252.864L233.675 251.332Z" fill="#5453A3"/>
<path d="M229.599 268.252C229.599 268.252 240.699 265.577 240.87 265.979C241.04 266.38 229.125 269.833 229.125 269.833L229.599 268.252Z" fill="#5453A3"/>
<path d="M241.901 227.999C241.901 227.999 255.616 226.041 255.761 226.467C255.907 226.892 241.281 229.531 241.281 229.531L241.901 227.999Z" fill="#5453A3"/>
<path d="M242.546 226.829C242.546 226.829 237.89 213.771 237.452 213.844C237.014 213.917 241.476 228.093 241.476 228.093L242.546 226.829Z" fill="#5453A3"/>
<path d="M235.017 248.204C235.017 248.204 230.361 235.146 229.935 235.219C229.509 235.292 233.947 249.468 233.947 249.468L235.017 248.204Z" fill="#5453A3"/>
<path d="M227.85 279.584C227.85 279.584 222.743 267.67 222.306 267.743C221.868 267.815 227.473 281.615 227.473 281.615L227.85 279.584Z" fill="#5453A3"/>
<path d="M254.605 274.562L248.028 340.276H201.718L195.141 274.562H254.605Z" fill="#3F405A"/>
<path d="M254.608 274.562L248.03 340.276H223.714L222.438 274.562H254.608Z" fill="#2E2D44"/>
<path d="M207.53 340.276H201.718L195.141 274.562H203.943L207.53 340.276Z" fill="#55607D"/>
<path d="M350.009 119.016H267.298C264.169 119.016 261.633 121.552 261.633 124.681C261.633 127.81 264.169 130.347 267.298 130.347H350.009C353.138 130.347 355.675 127.81 355.675 124.681C355.675 121.552 353.138 119.016 350.009 119.016Z" fill="#3F405A"/>
<path d="M267.969 121.547H349.537C350.365 121.547 351.16 121.876 351.746 122.462C352.332 123.048 352.661 123.843 352.661 124.671C352.661 125.5 352.332 126.295 351.746 126.881C351.16 127.467 350.365 127.796 349.537 127.796H267.969" fill="#171826"/>
<path d="M316.734 124.671C316.736 125.082 316.656 125.489 316.5 125.869C316.343 126.249 316.113 126.594 315.823 126.884C315.532 127.175 315.187 127.405 314.807 127.562C314.428 127.718 314.021 127.798 313.61 127.796H267.969C267.557 127.803 267.147 127.726 266.765 127.572C266.383 127.417 266.036 127.187 265.745 126.896C265.453 126.604 265.223 126.257 265.069 125.875C264.914 125.493 264.838 125.084 264.844 124.671C264.842 124.262 264.922 123.857 265.078 123.479C265.235 123.101 265.465 122.759 265.756 122.471C266.045 122.178 266.39 121.946 266.77 121.787C267.15 121.629 267.557 121.547 267.969 121.547H313.695C314.509 121.569 315.282 121.908 315.85 122.492C316.417 123.075 316.735 123.857 316.734 124.671Z" fill="#8BC53F"/>
<path d="M272.626 121.547L271.288 127.796H267.969C267.711 127.799 267.454 127.771 267.203 127.711L268.516 121.547H272.626Z" fill="#37B34A"/>
<path d="M280.83 121.555L279.504 127.804H275.383L276.72 121.555H280.83Z" fill="#37B34A"/>
<path d="M289.048 121.555L287.711 127.804H283.602L284.927 121.555H289.048Z" fill="#37B34A"/>
<path d="M297.255 121.555L295.93 127.804H291.82L293.146 121.555H297.255Z" fill="#37B34A"/>
<path d="M305.478 121.555L304.141 127.804H300.031L301.369 121.555H305.478Z" fill="#37B34A"/>
<path d="M313.697 121.547L312.359 127.796H308.25L309.587 121.547H313.697Z" fill="#37B34A"/>
<path d="M349.522 6.39265e-06H262.167C260.649 5.55177e-06 259.147 0.299167 257.744 0.880373C256.342 1.46158 255.069 2.31344 253.996 3.38725C252.923 4.46106 252.073 5.73577 251.493 7.1385C250.913 8.54122 250.616 10.0444 250.617 11.5622V64.3522C250.616 65.87 250.913 67.3732 251.493 68.7759C252.073 70.1787 252.923 71.4534 253.996 72.5272C255.069 73.601 256.342 74.4529 257.744 75.0341C259.147 75.6153 260.649 75.9144 262.167 75.9144H352.586L361.097 85.2639V11.5622C361.097 10.0428 360.797 8.53836 360.215 7.13477C359.634 5.73118 358.781 4.45602 357.706 3.38221C356.631 2.30839 355.355 1.45699 353.951 0.876644C352.547 0.296302 351.042 -0.00159129 349.522 6.39265e-06Z" fill="#3F405A"/>
<path d="M351.873 11H300.127C299.828 11 299.541 10.8426 299.33 10.5626C299.119 10.2825 299 9.90257 299 9.50645C298.999 9.30924 299.027 9.11363 299.083 8.93093C299.139 8.74823 299.222 8.58206 299.327 8.44201C299.431 8.30195 299.556 8.19077 299.693 8.11491C299.831 8.03905 299.978 7.99999 300.127 8H351.873C352.022 7.99999 352.169 8.03905 352.307 8.11491C352.444 8.19077 352.569 8.30195 352.673 8.44201C352.778 8.58206 352.861 8.74823 352.917 8.93093C352.973 9.11363 353.001 9.30924 353 9.50645C353 9.90257 352.881 10.2825 352.67 10.5626C352.459 10.8426 352.172 11 351.873 11Z" fill="#E9575D"/>
<path d="M346.866 69.8207H324.41C324.036 69.8207 323.678 69.6721 323.413 69.4076C323.149 69.1431 323 68.7844 323 68.4103C323 68.0363 323.149 67.6776 323.413 67.4131C323.678 67.1486 324.036 67 324.41 67H346.866C347.24 67 347.599 67.1486 347.863 67.4131C348.128 67.6776 348.276 68.0363 348.276 68.4103C348.276 68.7844 348.128 69.1431 347.863 69.4076C347.599 69.6721 347.24 69.8207 346.866 69.8207Z" fill="#E9575D"/>
<path d="M355.165 43H316.835C316.613 43 316.401 42.8426 316.244 42.5625C316.088 42.2824 316 41.9026 316 41.5064C315.999 41.3092 316.02 41.1136 316.061 40.9309C316.103 40.7482 316.164 40.582 316.242 40.442C316.319 40.3019 316.412 40.1908 316.514 40.1149C316.615 40.039 316.724 40 316.835 40H355.165C355.276 40 355.385 40.039 355.486 40.1149C355.588 40.1908 355.681 40.3019 355.758 40.442C355.836 40.582 355.897 40.7482 355.939 40.9309C355.98 41.1136 356.001 41.3092 356 41.5064C356 41.9026 355.912 42.2824 355.756 42.5625C355.599 42.8426 355.387 43 355.165 43Z" fill="#E9575D"/>
<path d="M298.714 49.9188H279.832C279.646 49.9188 279.462 49.8819 279.29 49.8103C279.118 49.7387 278.962 49.6337 278.831 49.5014C278.7 49.3692 278.596 49.2123 278.526 49.0398C278.456 48.8673 278.42 48.6825 278.422 48.4963C278.422 48.1223 278.571 47.7636 278.835 47.4991C279.099 47.2346 279.458 47.086 279.832 47.086H298.714C298.9 47.0844 299.085 47.1197 299.257 47.1898C299.43 47.26 299.586 47.3636 299.719 47.4948C299.851 47.6259 299.956 47.7819 300.028 47.9538C300.099 48.1257 300.136 48.3101 300.136 48.4963C300.136 48.8736 299.986 49.2354 299.719 49.5022C299.453 49.7689 299.091 49.9188 298.714 49.9188Z" fill="#E9575D"/>
<path d="M355.407 16.8329H314.422C314.045 16.8329 313.683 16.683 313.417 16.4162C313.15 16.1495 313 15.7876 313 15.4104C313 15.2241 313.037 15.0397 313.109 14.8678C313.18 14.6959 313.285 14.5399 313.417 14.4088C313.55 14.2777 313.707 14.1741 313.879 14.1039C314.052 14.0337 314.236 13.9984 314.422 14.0001H355.395C355.77 14 356.13 14.1482 356.396 14.4124C356.663 14.6765 356.814 15.0352 356.817 15.4104C356.817 15.7856 356.669 16.1455 356.405 16.4119C356.141 16.6784 355.782 16.8297 355.407 16.8329Z" fill="#8BC53F"/>
<path d="M353.407 22.8329H312.422C312.045 22.8329 311.683 22.683 311.417 22.4162C311.15 22.1495 311 21.7876 311 21.4104C311 21.2241 311.037 21.0397 311.109 20.8678C311.18 20.6959 311.285 20.5399 311.417 20.4088C311.55 20.2777 311.707 20.1741 311.879 20.1039C312.052 20.0337 312.236 19.9984 312.422 20.0001H353.395C353.77 20 354.13 20.1482 354.396 20.4124C354.663 20.6765 354.814 21.0352 354.817 21.4104C354.817 21.7856 354.669 22.1455 354.405 22.4119C354.141 22.6784 353.782 22.8297 353.407 22.8329Z" fill="#8BC53F"/>
<path d="M352.407 28.8329H311.422C311.045 28.8329 310.683 28.683 310.417 28.4162C310.15 28.1495 310 27.7876 310 27.4104C310 27.2241 310.037 27.0397 310.109 26.8678C310.18 26.6959 310.285 26.5399 310.417 26.4088C310.55 26.2777 310.707 26.1741 310.879 26.1039C311.052 26.0337 311.236 25.9984 311.422 26.0001H352.395C352.77 26 353.13 26.1482 353.396 26.4124C353.663 26.6765 353.814 27.0352 353.817 27.4104C353.817 27.7856 353.669 28.1455 353.405 28.4119C353.141 28.6784 352.782 28.8297 352.407 28.8329Z" fill="#8BC53F"/>
<path d="M353.407 54.8328H312.422C312.236 54.8344 312.052 54.7991 311.879 54.729C311.707 54.6588 311.55 54.5552 311.417 54.4241C311.285 54.2929 311.18 54.1369 311.109 53.965C311.037 53.7931 311 53.6087 311 53.4225C311 53.0452 311.15 52.6834 311.417 52.4167C311.683 52.1499 312.045 52 312.422 52H353.395C353.772 52 354.134 52.1499 354.401 52.4167C354.667 52.6834 354.817 53.0452 354.817 53.4225C354.814 53.7955 354.665 54.1524 354.401 54.4162C354.137 54.68 353.78 54.8296 353.407 54.8328Z" fill="#8BC53F"/>
<path d="M352.407 61.8328H311.422C311.236 61.8344 311.052 61.7991 310.879 61.729C310.707 61.6588 310.55 61.5552 310.417 61.4241C310.285 61.2929 310.18 61.1369 310.109 60.965C310.037 60.7931 310 60.6087 310 60.4225C310 60.0452 310.15 59.6834 310.417 59.4166C310.683 59.1499 311.045 59 311.422 59H352.395C352.772 59 353.134 59.1499 353.401 59.4166C353.667 59.6834 353.817 60.0452 353.817 60.4225C353.814 60.7955 353.665 61.1524 353.401 61.4162C353.137 61.68 352.78 61.8296 352.407 61.8328Z" fill="#8BC53F"/>
<path d="M346.419 36.8329H305.422C305.045 36.8329 304.683 36.683 304.417 36.4162C304.15 36.1495 304 35.7876 304 35.4104C304 35.2241 304.037 35.0397 304.109 34.8678C304.18 34.6959 304.285 34.5399 304.417 34.4088C304.55 34.2777 304.707 34.174 304.879 34.1039C305.052 34.0337 305.236 33.9984 305.422 34.0001H346.395C346.77 34 347.13 34.1482 347.396 34.4124C347.663 34.6765 347.814 35.0352 347.817 35.4104C347.814 35.7825 347.667 36.1389 347.406 36.4043C347.145 36.6698 346.791 36.8234 346.419 36.8329Z" fill="#8884BF"/>
<path d="M293.623 81.6641H316.091C317.696 81.6641 318.073 82.2233 319.204 83.0744C320.757 84.5013 322.038 86.1985 322.985 88.0835C323.18 88.9345 323.362 109.798 322.985 111.184C322.882 111.999 322.473 112.745 321.841 113.271C321.209 113.796 320.401 114.063 319.581 114.016H293.623C292.019 114.016 291.07 113.348 291.07 111.743V83.6458C291.07 82.3328 291.265 81.6641 293.623 81.6641Z" fill="#3F405A"/>
<path d="M321.242 88.3174V110.019C321.242 110.297 321.187 110.572 321.081 110.829C320.975 111.086 320.819 111.319 320.623 111.515C320.426 111.712 320.193 111.868 319.936 111.974C319.68 112.08 319.404 112.135 319.127 112.135H294.713C294.235 112.132 293.777 111.939 293.44 111.6C293.103 111.261 292.914 110.802 292.914 110.323V84.7916C292.914 84.3144 293.104 83.8567 293.441 83.5192C293.779 83.1818 294.236 82.9922 294.713 82.9922H298.239L300.257 85.0104H309.181L310.92 82.9922H316.78L321.242 88.3174Z" fill="#3F405A"/>
<path d="M321.242 88.3139V93.8093C314.944 100.01 306.13 108.618 302.531 112.131H294.713C294.235 112.128 293.777 111.936 293.44 111.596C293.103 111.257 292.914 110.798 292.914 110.32V107.864L316.732 83.0859L321.242 88.3139Z" fill="#2E2D44"/>
<path d="M310.871 83.0547H298.227V88.8419H310.871V83.0547Z" fill="white"/>
<path d="M312.052 99.7902C312.059 101.089 311.68 102.361 310.962 103.445C310.245 104.528 309.222 105.373 308.023 105.874C306.824 106.374 305.504 106.507 304.229 106.256C302.954 106.004 301.783 105.379 300.865 104.46C299.946 103.542 299.321 102.371 299.069 101.096C298.818 99.8215 298.951 98.5009 299.451 97.302C299.952 96.1031 300.797 95.08 301.88 94.3627C302.964 93.6455 304.236 93.2663 305.535 93.2735C307.261 93.2799 308.915 93.9686 310.136 95.1893C311.356 96.41 312.045 98.0639 312.052 99.7902Z" fill="white"/>
<path d="M307.807 99.79C307.81 100.247 307.676 100.695 307.424 101.077C307.172 101.458 306.812 101.756 306.39 101.933C305.968 102.11 305.503 102.157 305.054 102.069C304.605 101.982 304.193 101.763 303.868 101.44C303.544 101.117 303.323 100.706 303.233 100.257C303.143 99.8089 303.188 99.3438 303.362 98.921C303.537 98.4982 303.833 98.1367 304.213 97.8823C304.593 97.628 305.04 97.4922 305.497 97.4922C306.108 97.4922 306.694 97.7339 307.127 98.1645C307.559 98.5951 307.804 99.1795 307.807 99.79Z" fill="#3F405A"/>
<path d="M308.502 84.375H307.518C307.189 84.375 306.922 84.6417 306.922 84.9707V86.9282C306.922 87.2572 307.189 87.5239 307.518 87.5239H308.502C308.831 87.5239 309.098 87.2572 309.098 86.9282V84.9707C309.098 84.6417 308.831 84.375 308.502 84.375Z" fill="#3F405A"/>
<path d="M321.243 101.508V110.018C321.243 110.296 321.189 110.571 321.082 110.828C320.976 111.085 320.82 111.318 320.624 111.514C320.427 111.711 320.194 111.867 319.937 111.973C319.681 112.079 319.406 112.134 319.128 112.134H310.617C311.894 110.869 318.143 104.596 321.243 101.508Z" fill="#3F405A"/>
<path d="M447.996 28.4108V54.283H403.242V27.8516L447.996 28.4108Z" fill="#FFCE08"/>
<path d="M447.996 28.4108V31.3044L426.282 46.356L403.242 30.4899V27.8516L426.087 43.7056L447.996 28.4108Z" fill="#F39E24"/>
<path d="M418.44 39.649L405.856 54.2872H403.242L416.738 38.3359L418.44 39.649Z" fill="#F39E24"/>
<path d="M447.989 54.2826H444.39L432.609 39.9727L434.956 38.8906L447.989 54.2826Z" fill="#F39E24"/>
<path d="M381.406 286.938H391.133V336.785C391.133 337.02 391.086 337.252 390.995 337.468C390.904 337.685 390.771 337.881 390.603 338.045C390.436 338.209 390.237 338.338 390.019 338.425C389.801 338.511 389.568 338.553 389.333 338.548H383.169C382.702 338.548 382.253 338.362 381.923 338.032C381.592 337.701 381.406 337.253 381.406 336.785V286.938Z" fill="#2E2D44"/>
<path d="M386.425 330.359L347.617 333.192V341.131H386.425H425.234V333.192L386.425 330.359Z" fill="#171826"/>
<path d="M377.465 270.273H395.046V293.434C395.046 294.286 394.708 295.102 394.106 295.704C393.504 296.306 392.687 296.644 391.836 296.644H380.663C379.812 296.644 378.995 296.306 378.393 295.704C377.791 295.102 377.453 294.286 377.453 293.434V270.273H377.465Z" fill="#3F405A"/>
<path d="M371.703 262.664V271.248C371.703 272.215 372.087 273.143 372.771 273.827C373.455 274.511 374.383 274.895 375.351 274.895H397.612C398.579 274.895 399.507 274.511 400.191 273.827C400.875 273.143 401.259 272.215 401.259 271.248V262.664H371.703Z" fill="#2E2D44"/>
<path d="M461.489 132.361C461.489 139.157 454.693 230.087 452.14 241.418C449.587 252.749 441.38 262.378 433.733 265.211C426.085 268.044 333.745 266.062 329.502 266.062C325.94 266.062 322.791 263.631 321.685 259.254C321.457 258.329 321.322 257.384 321.283 256.433C320.992 250.196 321.089 242.731 324.675 240.847C330.061 238.014 377.076 239.996 377.076 239.996C377.076 239.996 391.24 143.948 391.666 132.081C391.71 130.341 391.951 128.612 392.383 126.926C394.45 119.388 400.626 117.492 407.727 116.787C416.237 115.936 441.429 116.495 450.498 117.638C459.568 118.78 461.489 125.565 461.489 132.361Z" fill="#3F405A"/>
<path d="M453.866 140.86C453.015 149.079 447.921 230.939 441.125 244.203C434.328 257.468 426.669 259.206 413.076 259.206H321.685C321.457 258.282 321.322 257.337 321.283 256.385C320.992 250.148 321.089 242.683 324.675 240.799C330.061 237.966 377.076 239.948 377.076 239.948C377.076 239.948 391.24 143.9 391.666 132.034C391.71 130.294 391.951 128.564 392.383 126.879C394.535 124.921 397.891 123.365 403.131 123.061C419.337 122.113 444.808 123.474 449.076 125.237C453.866 127.316 454.693 132.642 453.866 140.86Z" fill="#2E2D44"/>
<path d="M419.964 123.67C419.21 128.047 413.083 136.947 407.186 141.506C405.894 142.547 404.44 143.368 402.882 143.938C401.661 143.213 400.52 142.361 399.478 141.397C392.852 135.318 390.031 126.005 390.031 126.005L394.894 123.257L410.846 120.898C413.956 121.572 417.006 122.499 419.964 123.67Z" fill="#FFF6DF"/>
<path d="M407.193 141.523C405.901 142.564 404.447 143.385 402.889 143.954C401.668 143.23 400.527 142.378 399.484 141.413C399.764 137.511 400.615 131.213 400.615 131.213L403.922 130.836L407.193 141.523Z" fill="#2A3150"/>
<path d="M398.398 128.403C398.398 128.403 399.152 132.367 401.888 132.646C404.101 132.877 406.216 130.993 407.043 129.826C407.178 129.647 407.245 129.425 407.229 129.202C407.213 128.978 407.117 128.768 406.958 128.61C406.198 127.893 405.194 127.493 404.149 127.491C402.599 127.766 401.002 127.554 399.578 126.883C398.775 126.847 398.398 128.403 398.398 128.403Z" fill="#2A3150"/>
<path d="M399.011 117.862C399.011 117.862 394.731 120.695 393.978 123.212C393.224 125.728 395.424 132.087 395.424 132.087C395.424 132.087 399.643 127.431 400.592 127.807C401.207 128.096 401.729 128.551 402.099 129.121C402.099 129.121 403.728 127.674 404.798 127.905C405.868 128.136 409.333 133.376 409.333 133.376C409.333 133.376 417.576 125.887 417.017 121.923C414.05 118.969 411.984 116.452 409.394 116.634C406.804 116.817 399.011 117.862 399.011 117.862Z" fill="white"/>
<path d="M298.45 336.303L297.32 340.279H236.141C236.141 340.279 236.141 335.415 241.527 331.209C246.913 327.002 263.897 322.99 269.004 314.188C291.946 321.3 298.45 336.303 298.45 336.303Z" fill="#171826"/>
<path d="M265.602 316.192C265.602 316.192 293.638 332.338 298.428 336.301C304.945 302.028 318.55 249.627 318.55 249.627C318.55 249.627 369.248 245.104 378.598 244.533C387.947 243.961 395.874 244.533 399.838 238.587C403.801 232.642 405.503 210.539 404.701 211.11C403.899 211.682 370.999 210.539 370.999 210.539L365.333 220.46C365.333 220.46 312.641 217.335 301.31 220.46C289.978 223.585 275.535 299.195 275.535 299.195L265.602 316.192Z" fill="#2E2D44"/>
<path d="M317.692 245.252C317.692 245.252 313.728 234.687 310.895 234.31C308.062 233.933 310.895 241.799 317.692 245.252Z" fill="#171826"/>
<path d="M315.994 247.273C315.435 247.273 302.961 245.571 304.286 249.352C305.611 253.133 315.994 247.273 315.994 247.273Z" fill="#171826"/>
<path d="M431.542 211.962C431.542 211.962 431.262 235.463 423.651 244.533C416.041 253.603 371.798 251.609 371.798 251.609C371.798 251.609 372.089 273.421 372.089 280.509C372.089 287.597 372.369 331.487 367.007 341.408C343.056 332.059 333.5 326.393 333.5 326.393L341.111 290.697C341.111 290.697 342.242 279.378 342.521 274.563C342.801 269.749 341.087 232.922 344.442 227.014C347.798 221.105 353.463 220.205 358.254 219.646C363.044 219.087 391.226 220.205 391.226 220.205L392.636 209.445L431.542 211.962Z" fill="#3F405A"/>
<path d="M371.691 249.228C371.813 248.717 369.466 237.228 372.068 233.617C375.083 237.143 371.691 249.228 371.691 249.228Z" fill="#2E2D44"/>
<path d="M373.156 249.041C373.497 248.652 376.731 237.369 380.706 235.375C381.752 239.886 373.156 249.041 373.156 249.041Z" fill="#2E2D44"/>
<path d="M376.054 248.471C375.664 248.544 379.081 243.426 384.236 242.672C383.519 246.951 379.032 247.888 376.054 248.471Z" fill="#2E2D44"/>
<path d="M367.01 341.412H313.758C313.758 341.412 314.536 336.67 317.624 334.336C320.712 332.001 345.587 315.442 351.046 315.065C357.636 314.615 367.727 328.67 367.01 341.412Z" fill="#2E2D44"/>
<path d="M390.963 152.97C386.817 167.961 373.662 195.596 368.884 199.402C368.772 199.5 368.65 199.586 368.519 199.657C365.48 201.408 332.823 206.405 327.182 204.423C321.541 202.441 322.781 196.204 323.06 194.222C323.34 192.241 354.282 179.183 354.282 179.183L370.805 145.043L375.242 135.876C375.716 134.884 376.444 134.035 377.351 133.413C378.258 132.792 379.313 132.421 380.41 132.338C393.321 131.402 393.431 144.01 390.963 152.97Z" fill="#217BB7"/>
<path d="M390.962 152.97C386.816 167.961 373.661 195.596 368.883 199.402C369.807 192.508 373.175 177.189 373.175 177.189L370.743 145.043L375.181 135.876C375.655 134.884 376.382 134.035 377.289 133.413C378.196 132.792 379.251 132.421 380.348 132.338C393.32 131.402 393.43 144.01 390.962 152.97Z" fill="#2166A3"/>
<path d="M320.249 193.071C320.249 193.071 328.383 189.788 329.903 189.484C331.119 189.253 336.371 194.444 337.258 200.499C337.623 202.931 336.59 206.469 334.486 206.578C328.821 206.943 325.368 207.332 323.848 205.192C322.328 203.052 318.912 196.353 320.249 193.071Z" fill="#2166A3"/>
<path d="M314.594 198.382C314.594 198.382 324.819 193.835 326.606 194.735C328.388 196.178 329.752 198.071 330.557 200.218C331.518 202.65 330.071 205.373 327.907 205.337C323.044 205.264 316.588 205.531 316.588 205.531L314.594 198.382Z" fill="#F6AB9D"/>
<path d="M301.805 201.254C301.805 201.254 306.668 204.901 309.209 205.582C311.75 206.263 319.543 206.421 319.969 205.023C320.394 203.625 315.349 195.102 311.166 195.382C306.984 195.661 302.084 199.151 301.805 201.254Z" fill="#EF505E"/>
<path d="M319.966 205.019C319.674 206.357 311.456 206.053 308.55 206.101C305.121 206.162 304.149 205.092 305.255 204.022C306.641 202.673 308.902 202.989 310.726 202.807C312.866 202.588 316.015 202.588 316.015 202.588C316.015 202.588 310.726 196.679 313.279 195.731C315.832 194.782 320.696 201.566 319.966 205.019Z" fill="#EF9188"/>
<path d="M309.753 194.969L304.208 202.519H303.26H301.923H300.439C299.85 202.547 299.258 202.51 298.677 202.41C297.923 202.166 297.157 197.376 297.789 196.878C298.421 196.379 299.552 196.999 299.552 196.999C299.655 196.183 299.96 195.406 300.439 194.738C300.78 194.276 301.473 194.288 302.117 194.434C302.618 194.556 303.104 194.736 303.564 194.969L303.649 194.787C303.949 194.2 304.362 193.68 304.865 193.255C305.728 192.574 309.753 194.969 309.753 194.969Z" fill="#F6AB9D"/>
<path d="M318.374 199.561C317.365 197.421 312.903 193.081 311.007 192.886C309.11 192.692 303.274 201.19 304.21 202.515C305.146 203.84 311.505 198.114 311.505 198.114C311.505 198.114 315.785 202.637 317.171 202.576C318.557 202.515 319.383 201.701 318.374 199.561Z" fill="#EF9188"/>
<path d="M303.686 194.859C303.665 194.923 303.637 194.984 303.601 195.041C302.927 197.476 302.815 200.033 303.273 202.518H301.936C301.411 199.845 301.477 197.09 302.13 194.445L303.686 194.859Z" fill="#EF9188"/>
<path d="M300.439 202.624C299.85 202.652 299.258 202.616 298.677 202.515C297.923 202.272 297.157 197.481 297.789 196.983C298.421 196.484 299.552 197.105 299.552 197.105C299.508 198.983 299.808 200.854 300.439 202.624Z" fill="#EF9188"/>
<path d="M390.033 126.103C390.033 126.103 381.948 128.049 378.167 131.575C374.386 135.1 375.529 143.416 375.736 146.93C375.942 150.444 376.611 177.775 376.611 177.775C376.611 177.775 368.733 214.565 368.477 214.443C368.222 214.322 437.109 216.498 437.109 216.498C437.109 216.498 441.073 182.942 441.194 164.438C441.316 145.933 440.939 134.043 438.422 130.699C435.905 127.356 419.966 123.672 419.966 123.672C419.966 123.672 413.109 139.818 402.884 143.964C394.289 137.556 390.033 126.103 390.033 126.103Z" fill="#3986C5"/>
<path d="M391.254 125.777C392.141 128.938 395.521 139.309 402.852 142.664C413.989 134.992 417.722 126.178 418.658 123.479C418.733 123.257 418.892 123.072 419.101 122.966C419.31 122.859 419.552 122.838 419.776 122.907L421.904 123.564C422.022 123.604 422.131 123.668 422.224 123.753C422.316 123.837 422.39 123.939 422.442 124.053C422.493 124.167 422.52 124.29 422.522 124.415C422.524 124.54 422.499 124.664 422.451 124.78C420.798 128.366 414.257 141.242 403.46 146.093C393.904 142.652 388.652 130.871 387.473 127.09C387.405 126.88 387.418 126.652 387.507 126.45C387.597 126.248 387.758 126.087 387.959 125.996C388.652 125.679 389.479 125.363 390.099 125.145C390.216 125.104 390.34 125.088 390.464 125.098C390.588 125.109 390.708 125.145 390.817 125.204C390.925 125.264 391.021 125.346 391.096 125.444C391.171 125.543 391.225 125.656 391.254 125.777Z" fill="#2166A3"/>
<path d="M405.671 204.324C406.254 204.324 433.926 206.002 440.345 196.932C449.087 184.58 445.962 133.492 437.914 131.413C429.865 129.334 423.555 180.811 423.555 180.811L402.133 191.753L405.671 204.324Z" fill="#217BB7"/>
<path d="M425.655 182.306C427.223 183.217 431.612 185.771 434.019 187.29C434.123 187.364 434.249 187.4 434.376 187.391C434.503 187.382 434.623 187.329 434.715 187.242C434.808 187.154 434.866 187.036 434.881 186.91C434.896 186.783 434.867 186.656 434.798 186.549C433.314 183.971 429.047 180.3 426.226 180.227C425.981 180.227 425.744 180.308 425.549 180.456C425.355 180.605 425.214 180.813 425.149 181.049C425.085 181.285 425.099 181.535 425.19 181.762C425.281 181.989 425.445 182.18 425.655 182.306Z" fill="#2166A3"/>
<path d="M426.172 179.292C427.549 179.219 428.921 179.512 430.148 180.143C432.129 181.176 435.242 185.334 435.242 184.665C435.242 183.997 435.144 179.194 431.278 177.492C428.98 176.483 426.172 179.292 426.172 179.292Z" fill="#2166A3"/>
<path d="M403.738 203.369C401.601 203.419 399.463 203.265 397.355 202.907C393.878 202.445 390.328 201.861 390.328 201.861L392.31 194.494C393.918 194.186 395.541 193.963 397.173 193.825C399.23 193.527 401.327 193.689 403.313 194.299C407.289 196.147 405.805 202.992 403.738 203.369Z" fill="#F6AB9D"/>
<path d="M397.355 202.902C393.878 202.44 390.328 201.857 390.328 201.857L392.31 194.489C393.918 194.181 395.541 193.958 397.173 193.82C397.897 195.219 398.29 196.765 398.321 198.34C398.353 199.915 398.022 201.476 397.355 202.902Z" fill="#EF9188"/>
<path d="M367.883 196.486C367.299 197.459 368.843 200.243 370.776 200.778C372.709 201.313 378.399 199.489 378.399 199.489C378.399 199.489 380.223 201.313 381.84 201.313C383.036 201.268 384.223 201.089 385.378 200.778C385.378 200.778 388.709 202.808 390.849 202.492C392.989 202.176 395.141 200.887 394.825 198.31C394.509 195.732 387.627 193.264 384.089 193.908C380.551 194.553 372.928 197.13 372.928 197.13C372.928 197.13 368.527 195.404 367.883 196.486Z" fill="#EF505E"/>
<path d="M393.718 200.534C389.949 202.418 387.298 195.063 387.298 195.063C387.298 195.063 385.134 199.026 384.186 199.208C383.238 199.391 382.581 198.175 382.581 198.175C382.167 198.328 381.733 198.418 381.292 198.443C380.89 198.485 380.483 198.422 380.112 198.26C379.742 198.098 379.419 197.843 379.177 197.519C378.659 197.686 378.107 197.719 377.572 197.616C376.999 197.435 376.493 197.086 376.122 196.613C375.751 196.14 375.532 195.565 375.493 194.965C375.583 193.356 375.903 191.767 376.441 190.248L375.226 189.154L374.545 188.546C374.545 188.546 370.204 191.087 369.256 191.379C368.308 191.671 367.457 192.084 367.834 190.163C368.21 188.242 374.496 184.777 376.101 184.68C377.001 184.68 377.536 185.178 378.411 186.345C378.799 186.962 379.23 187.551 379.7 188.108C379.965 187.989 380.257 187.941 380.547 187.968C380.837 187.996 381.115 188.099 381.353 188.266C381.723 188.518 382.031 188.851 382.253 189.239C382.473 188.985 382.749 188.785 383.059 188.655C383.369 188.524 383.704 188.466 384.04 188.485C384.472 188.477 384.895 188.6 385.256 188.838C385.655 189.119 385.95 189.526 386.095 189.993C386.18 189.823 386.545 189.324 387.87 189.397C392.587 189.579 397.499 198.649 393.718 200.534Z" fill="#F6AB9D"/>
<path d="M379.701 188.107C379.421 188.107 377.974 188.107 376.442 190.296L375.227 189.202C375.493 188.516 375.922 187.905 376.477 187.422C377.032 186.939 377.696 186.599 378.412 186.43C378.803 187.017 379.234 187.578 379.701 188.107Z" fill="#EF9188"/>
<path d="M379.177 197.52C378.659 197.687 378.107 197.721 377.572 197.618C377.337 195.538 377.682 193.434 378.569 191.539C379.308 190.266 380.267 189.134 381.402 188.195C381.772 188.447 382.079 188.78 382.301 189.168C381.171 190.224 380.301 191.528 379.758 192.977C379.216 194.426 379.017 195.981 379.177 197.52Z" fill="#EF9188"/>
<path d="M382.586 198.178C382.172 198.332 381.737 198.422 381.297 198.446C381.318 196.602 381.659 194.775 382.306 193.048C382.977 191.421 384.013 189.969 385.333 188.805C385.733 189.086 386.028 189.493 386.172 189.96C384.987 190.965 384.048 192.229 383.426 193.653C382.804 195.078 382.517 196.626 382.586 198.178Z" fill="#EF9188"/>
<path d="M395.641 193.991C395.641 193.991 396.65 191.086 396.99 191.061C397.621 191.143 398.244 191.281 398.85 191.475C398.85 191.475 403.252 189.043 403.714 189.238C405.117 190.132 406.326 191.301 407.268 192.673C408.21 194.046 408.866 195.594 409.197 197.225C410.413 202.575 407.653 205.128 407.118 205.408C406.583 205.687 398.607 205.067 397.999 204.374C397.625 203.973 397.406 203.451 397.379 202.903L400.2 203.025C400.2 203.025 401.61 198.83 400.358 196.289C399.965 195.415 399.277 194.706 398.415 194.286C397.553 193.866 396.572 193.762 395.641 193.991Z" fill="#2166A3"/>
<path d="M414.092 94.917C413.506 96.0027 412.755 96.9911 411.867 97.8471C405.375 104.084 392.706 102.37 387.405 101.312C387.026 101.243 386.653 101.15 386.286 101.032C381.423 99.5735 381.897 95.7924 381.423 93.3243C380.949 90.8562 383.636 87.756 383.636 87.756C383.636 87.756 380.536 82.7225 385.752 80.9475C393.861 78.2849 409.435 83.0751 412.353 88.2423C414.955 92.8623 414.384 94.3577 414.092 94.917Z" fill="#171826"/>
<path d="M411.869 97.848C405.377 104.085 392.708 102.371 387.407 101.313C387.029 101.244 386.655 101.151 386.289 101.033C384.562 98.9787 383.334 96.924 383.273 95.8663C383.395 93.5333 383.875 91.2328 384.696 89.0457C384.696 89.0457 383.699 84.7174 386.605 83.7205C389.51 82.7235 406.787 84.3648 409.267 88.5837C411.492 92.4499 412.428 95.2948 411.869 97.848Z" fill="#171826"/>
<path d="M387.407 101.309C387.407 101.309 385.815 97.6612 383.346 98.2326C381.182 98.7554 382.799 102.853 383.626 104.032C384.635 105.467 386.751 107.351 388.149 106.099C389.547 104.847 387.407 101.309 387.407 101.309Z" fill="#F6AB9D"/>
<path d="M413.171 120.377C412.04 122.638 406.557 128.024 402.229 127.356C400.884 127.138 399.648 126.484 398.71 125.496C397.772 124.508 397.185 123.239 397.037 121.885C396.94 121.131 398.642 119.246 398.74 118.869C398.705 118.496 398.64 118.126 398.545 117.763C398.034 115.538 396.758 110.748 396.758 110.748L408.369 101.398C408.502 104.313 408.848 107.215 409.402 110.079C409.993 113.72 411.273 117.215 413.171 120.377Z" fill="#F6AB9D"/>
<path d="M409.39 110.079C408.476 112.466 406.755 114.458 404.527 115.708C402.607 116.594 400.603 117.282 398.545 117.763C398.034 115.538 396.758 110.748 396.758 110.748L408.369 101.398C408.498 104.313 408.84 107.214 409.39 110.079Z" fill="#F6AB9D"/>
<path d="M390.644 91.5595C390.24 91.1567 389.722 90.8882 389.16 90.7908C388.598 90.6933 388.019 90.7716 387.504 91.0149C386.988 91.2582 386.559 91.6547 386.277 92.1504C385.995 92.646 385.873 93.2166 385.927 93.7844C386.534 99.9607 388.358 111.559 389.452 113.006C391.154 115.669 394.461 116.447 398.595 115.255C404.127 113.675 408.394 110.392 409.355 108.435C410.17 106.757 410.17 102.356 410.17 102.356L409.756 94.6477C406.243 96.2344 402.449 97.1064 398.595 97.213C395.215 97.1157 393.987 97.0185 392.358 93.9546C391.9 93.0811 391.323 92.2751 390.644 91.5595Z" fill="#F6AB9D"/>
<path d="M394.433 98.5625C394.635 100.318 394.528 102.096 394.117 103.815C393.716 104.743 393.248 105.641 392.719 106.502C393.72 105.832 394.573 104.963 395.223 103.948C396.026 102.137 394.433 98.5625 394.433 98.5625Z" fill="#EF505E"/>
<path d="M394 106.929C394 106.929 396.152 106.491 396.261 106.929C396.371 107.367 395.508 107.743 394 106.929Z" fill="#EF9188"/>
<path d="M393.891 109.081C394.273 109.774 394.85 110.339 395.55 110.709C396.25 111.078 397.042 111.235 397.83 111.16C401.635 110.491 401.477 106.516 401.477 106.516C399.288 108.16 396.629 109.059 393.891 109.081Z" fill="#171826"/>
<path d="M393.32 108.986C394.724 109.575 396.29 109.653 397.746 109.205C398.579 109.015 399.362 108.652 400.045 108.138C400.728 107.625 401.295 106.974 401.709 106.227C401.709 106.227 397.661 109.205 393.32 108.986Z" fill="#EF505E"/>
<path d="M401.431 101.267C401.396 101.107 401.343 100.952 401.273 100.805C401.152 100.586 400.976 100.403 400.763 100.272C400.55 100.142 400.306 100.07 400.057 100.063C399.795 100.055 399.536 100.116 399.305 100.239C399.075 100.363 398.88 100.545 398.742 100.767C398.604 100.989 398.526 101.244 398.517 101.505C398.507 101.767 398.567 102.026 398.689 102.257C398.812 102.489 398.993 102.684 399.214 102.823C399.435 102.963 399.69 103.042 399.951 103.052C400.213 103.063 400.472 103.004 400.704 102.883C400.936 102.762 401.132 102.582 401.273 102.361C401.456 102.063 401.525 101.709 401.467 101.364V101.267H401.431Z" fill="#171826"/>
<path d="M399.763 96.8519C398.207 96.8519 397.672 98.7728 397.672 98.7728C398.347 98.3109 399.122 98.0151 399.933 97.9096C400.661 97.9588 401.36 98.2115 401.951 98.6391C401.857 98.1306 401.585 97.6721 401.184 97.345C400.784 97.0178 400.28 96.8431 399.763 96.8519Z" fill="#171826"/>
<path d="M411.006 96.6323L410.897 95.6719L403.942 98.602C403.535 97.6248 402.803 96.8187 401.869 96.3205C400.935 95.8224 399.857 95.6629 398.819 95.8691C397.78 96.0753 396.845 96.6346 396.173 97.4519C395.5 98.2692 395.131 99.2941 395.128 100.353C394.922 100.363 394.717 100.4 394.52 100.462C394.31 99.331 393.67 98.3252 392.734 97.6559C391.798 96.9866 390.64 96.7057 389.501 96.8722C388.363 97.0387 387.333 97.6397 386.628 98.549C385.923 99.4583 385.598 100.605 385.721 101.749C385.843 102.893 386.404 103.945 387.286 104.685C388.167 105.424 389.301 105.793 390.449 105.715C391.596 105.636 392.669 105.116 393.442 104.264C394.215 103.412 394.627 102.293 394.593 101.143C394.795 101.168 394.999 101.168 395.201 101.143C395.369 102.289 395.966 103.329 396.871 104.051C397.777 104.774 398.922 105.126 400.077 105.037C401.232 104.947 402.31 104.423 403.093 103.569C403.876 102.715 404.306 101.596 404.295 100.438C404.291 100.16 404.263 99.8836 404.21 99.6111L411.006 96.6323ZM390.022 104.888C389.283 104.89 388.56 104.673 387.945 104.264C387.329 103.856 386.849 103.274 386.565 102.592C386.28 101.91 386.205 101.159 386.347 100.434C386.49 99.7096 386.844 99.0434 387.366 98.5202C387.887 97.997 388.552 97.6403 389.277 97.4953C390.001 97.3502 390.752 97.4235 391.435 97.7056C392.118 97.9877 392.701 98.4661 393.112 99.0802C393.523 99.6943 393.742 100.416 393.742 101.155C393.744 101.645 393.649 102.13 393.462 102.583C393.276 103.035 393.002 103.447 392.657 103.794C392.311 104.14 391.9 104.416 391.448 104.603C390.996 104.791 390.511 104.888 390.022 104.888ZM399.748 104.085C399.01 104.085 398.288 103.866 397.674 103.456C397.061 103.046 396.582 102.463 396.3 101.781C396.017 101.099 395.943 100.349 396.087 99.6245C396.231 98.9005 396.587 98.2354 397.109 97.7134C397.631 97.1914 398.296 96.8359 399.02 96.6919C399.744 96.5479 400.494 96.6218 401.176 96.9043C401.858 97.1868 402.441 97.6652 402.851 98.279C403.262 98.8928 403.48 99.6145 403.48 100.353C403.481 100.846 403.383 101.334 403.193 101.79C403.003 102.245 402.725 102.658 402.374 103.005C402.024 103.352 401.608 103.626 401.151 103.812C400.694 103.997 400.205 104.09 399.712 104.085H399.748Z" fill="#171826"/>
<path d="M391.539 102.297C391.507 102.14 391.454 101.989 391.381 101.847C391.262 101.628 391.086 101.445 390.872 101.316C390.659 101.188 390.415 101.119 390.165 101.117C389.925 101.124 389.69 101.187 389.479 101.301C389.268 101.415 389.086 101.577 388.949 101.774C388.824 101.999 388.758 102.252 388.758 102.509C388.758 102.767 388.824 103.02 388.949 103.245C389.071 103.467 389.248 103.655 389.463 103.789C389.678 103.923 389.924 103.999 390.177 104.01C390.43 104.021 390.682 103.966 390.908 103.851C391.134 103.737 391.326 103.565 391.466 103.354C391.649 103.065 391.718 102.719 391.661 102.382V102.297H391.539Z" fill="#171826"/>
<path d="M389.863 97.9353C389.35 98.0439 388.882 98.3034 388.518 98.6804C388.154 99.0574 387.911 99.5347 387.82 100.051C388.437 99.5155 389.207 99.1879 390.021 99.1147C390.723 99.0512 391.425 99.2269 392.015 99.6131C392.015 99.6131 391.577 97.6922 389.863 97.9353Z" fill="#171826"/>
<path d="M409.415 97.8561C409.354 97.5887 411.226 92.8835 412.77 92.7863C415.275 92.6282 415.968 96.2513 415.53 98.1722C415.092 100.093 413.402 103.814 411.749 103.923C410.517 103.982 409.302 103.626 408.296 102.914C408.187 102.695 409.415 97.8561 409.415 97.8561Z" fill="#F6AB9D"/>
<path d="M414.218 97.1892C414.218 97.1892 413.403 96.3381 412.819 96.715C412.364 97.0671 411.956 97.4757 411.604 97.9308L410.789 97.7363C410.789 97.7363 412.066 95.1588 412.844 94.9886C413.622 94.8184 414.218 96.4962 414.218 97.1892Z" fill="#EF9188"/>
<path d="M414.218 97.193C414.218 97.193 414.364 94.8952 413.355 94.4575C412.345 94.0198 410.801 97.0106 410.461 98.1049C411.786 97.7888 413.294 99.5395 410.595 101.485V102.567C410.595 102.567 413.415 101.436 413.026 99.2477C412.956 98.8065 412.739 98.402 412.41 98.0996C412.082 97.7973 411.66 97.6149 411.215 97.5821C411.215 97.5821 412.248 95.6125 412.856 95.6368C413.464 95.6611 414.218 97.193 414.218 97.193Z" fill="#EF505E"/>
<path d="M237.683 241.797H231.203V340.483H237.683V241.797Z" fill="#171826"/>
<path d="M465.965 241.797H459.484V340.277H465.965V241.797Z" fill="#171826"/>
<path d="M529.879 241.797H523.398V340.277H529.879V241.797Z" fill="#171826"/>
<path d="M532.428 210.055H521.328V267.963H532.428V210.055Z" fill="#2E2D44"/>
<path d="M468.725 210.055H457.625V267.963H468.725V210.055Z" fill="#2E2D44"/>
<path d="M240.006 210.055H228.906V267.963H240.006V210.055Z" fill="#2E2D44"/>
<path d="M536.17 204.617H225.352V225.894H536.17V204.617Z" fill="#92D4ED"/>
<path d="M536.177 204.617H461.758V225.894H536.177V204.617Z" fill="#6BC1DD"/>
<path d="M536.17 204.617H225.352V220.641H536.17V204.617Z" fill="#B6E4F9"/>
<path d="M536.177 204.617H461.758V220.641H536.177V204.617Z" fill="#92D4ED"/>
<path d="M283.359 153.046L285.256 151.344L354.836 151.538L362.484 203.088L283.359 153.046Z" fill="#3F405A"/>
<path d="M283.359 153.047L293.536 202.615H360.599L352.66 153.047H283.359Z" fill="#2E2D44"/>
<path d="M293.539 201.801V204.622H386.462V201.68L293.539 201.801Z" fill="#2E2D44"/>
<path d="M329.013 179.389C329.013 180.707 328.622 181.996 327.889 183.092C327.156 184.188 326.115 185.042 324.897 185.546C323.679 186.05 322.339 186.181 321.046 185.923C319.753 185.665 318.566 185.029 317.635 184.096C316.703 183.163 316.07 181.975 315.814 180.681C315.558 179.388 315.692 178.048 316.198 176.831C316.704 175.614 317.56 174.574 318.657 173.843C319.755 173.113 321.044 172.724 322.362 172.727C323.237 172.727 324.102 172.899 324.91 173.234C325.718 173.569 326.451 174.06 327.069 174.679C327.687 175.298 328.176 176.032 328.51 176.84C328.843 177.649 329.014 178.515 329.013 179.389Z" fill="white"/>
<path d="M515.265 166.624V203.196H463.156C463.156 203.196 464.117 159.074 463.655 144.387C463.638 143.781 463.744 143.178 463.964 142.613C464.185 142.048 464.516 141.533 464.939 141.098C465.361 140.663 465.866 140.316 466.425 140.08C466.983 139.843 467.583 139.72 468.19 139.719H493.466C494.061 139.719 494.65 139.836 495.2 140.064C495.749 140.292 496.248 140.626 496.668 141.048C497.089 141.469 497.421 141.969 497.648 142.519C497.875 143.069 497.99 143.659 497.989 144.254V162.102H510.743C511.942 162.102 513.092 162.578 513.941 163.426C514.789 164.274 515.265 165.425 515.265 166.624Z" fill="#3F405A"/>
<path d="M468.19 143.597V194.478C468.197 196.629 467.378 198.7 465.904 200.266L463.156 203.208H479.861V143.184L481.624 139.281L472.068 139.597C471.028 139.629 470.042 140.064 469.318 140.811C468.594 141.558 468.189 142.557 468.19 143.597Z" fill="#2E2D44"/>
<path d="M515.263 166.624V203.196H479.859V144.254C479.859 143.051 480.337 141.897 481.188 141.047C482.038 140.197 483.192 139.719 484.394 139.719H493.464C494.059 139.719 494.648 139.836 495.198 140.064C495.747 140.292 496.246 140.626 496.667 141.048C497.087 141.469 497.42 141.969 497.646 142.519C497.873 143.069 497.989 143.659 497.987 144.254V162.102H510.741C511.94 162.102 513.091 162.578 513.939 163.426C514.787 164.274 515.263 165.425 515.263 166.624Z" fill="#3F405A"/>
<path d="M491.746 139.82V162.3H479.953V143.188L482.117 139.918L491.746 139.82Z" fill="#2E2D44"/>
<path d="M479.859 166.344H506.911C507.878 166.344 508.806 166.728 509.49 167.412C510.174 168.096 510.558 169.024 510.558 169.991V203.207H479.859V166.344Z" fill="#2E2D44"/>
<path d="M510.743 160.68H499.412V144.254C499.412 142.676 498.786 141.163 497.671 140.046C496.557 138.929 495.045 138.3 493.467 138.297H468.19C467.392 138.294 466.6 138.453 465.865 138.764C465.129 139.076 464.465 139.533 463.911 140.108C463.353 140.678 462.917 141.356 462.63 142.1C462.344 142.845 462.213 143.64 462.245 144.437C462.683 158.917 461.747 202.722 461.734 203.16V204.619H516.725V166.625C516.725 165.841 516.57 165.065 516.269 164.341C515.968 163.618 515.527 162.961 514.971 162.408C514.415 161.856 513.755 161.418 513.03 161.122C512.304 160.825 511.527 160.675 510.743 160.68ZM493.467 141.142C494.29 141.145 495.079 141.474 495.66 142.058C496.241 142.641 496.567 143.431 496.567 144.254V160.68H481.284V144.254C481.284 143.429 481.612 142.637 482.196 142.054C482.78 141.47 483.571 141.142 484.397 141.142H493.467ZM464.604 201.774C464.762 194.017 465.491 157.397 465.078 144.352C465.065 143.935 465.136 143.52 465.286 143.131C465.437 142.742 465.664 142.387 465.954 142.088C466.245 141.788 466.592 141.55 466.976 141.388C467.36 141.225 467.773 141.142 468.19 141.142H479.327C478.748 142.077 478.44 143.155 478.439 144.254V201.774H464.604ZM513.843 201.774H481.284V163.525H510.743C511.565 163.525 512.354 163.851 512.935 164.433C513.517 165.014 513.843 165.803 513.843 166.625V201.774Z" fill="#171826"/>
<path d="M520.061 280.123V340.281H470.359V280.123C470.359 277.672 471.333 275.322 473.066 273.589C474.799 271.856 477.149 270.883 479.599 270.883H510.809C513.261 270.883 515.612 271.856 517.347 273.588C519.082 275.321 520.058 277.671 520.061 280.123Z" fill="#3F405A"/>
<path d="M479.606 270.883L478.39 340.281H470.414V280.123C470.414 277.672 471.388 275.322 473.12 273.589C474.853 271.856 477.204 270.883 479.654 270.883H479.606Z" fill="#55607D"/>
<path d="M520.064 280.123V340.281H502.945V270.883H510.812C513.263 270.883 515.615 271.856 517.35 273.588C519.084 275.321 520.061 277.671 520.064 280.123Z" fill="#2E2D44"/>
<path d="M520.053 263.367H470.352V278.856H520.053V263.367Z" fill="white"/>
<path d="M520.056 263.367H502.938V278.856H520.056V263.367Z" fill="#FFF6DF"/>
<path d="M288.845 14.1748C287.117 14.5879 285.475 15.4049 284.006 16.5982C281.538 18.5993 279.964 21.913 280.204 24.6026L280.271 25.3828L281.001 25.3186C282.94 25.1717 284.774 24.419 286.483 23.0604C288.038 21.8396 289.45 19.6457 290.055 17.5345C290.208 16.9929 290.275 16.433 290.304 15.3957L290.352 14.0004L289.939 14.0096C289.709 14.0096 289.219 14.0831 288.845 14.1748Z" fill="white"/>
<path d="M271.565 25.0262C266.995 25.4026 262.406 29.1018 260.86 33.6548C259.861 36.6105 259.727 40.2914 260.485 44.0182C261.186 47.4238 262.531 50.71 264.518 53.8401C266.63 57.163 268.791 59.4212 270.797 60.3942C271.738 60.844 272.449 61 273.582 61C274.734 61 275.444 60.8348 277.009 60.1922C279.045 59.3569 280.302 59.0723 281.983 59.0723C283.596 59.0723 284.709 59.3294 286.678 60.1463C288.319 60.8256 289.02 61 290.153 61C291.229 61 292.045 60.7981 293.024 60.2932C295.463 59.0264 298.66 55.1619 300.983 50.6733C301.511 49.6635 301.963 48.7548 301.991 48.6538C302.039 48.4978 301.905 48.3968 301.051 47.9929C298.429 46.717 296.615 44.6883 295.674 41.9988C295.223 40.6953 295.098 39.7774 295.165 38.1985C295.223 36.7023 295.482 35.665 296.087 34.4258C296.922 32.7185 298.333 31.1855 299.956 30.2217C300.311 30.0106 300.609 29.7995 300.609 29.7627C300.609 29.625 299.601 28.5878 298.881 27.9911C297.546 26.8804 295.866 25.9258 294.464 25.4943C293.283 25.1272 292.448 24.9987 291.104 24.9987C289.203 24.9987 288.07 25.2281 285.391 26.1828C283.24 26.9447 282.002 27.1007 280.379 26.807C279.957 26.7336 278.728 26.3847 277.652 26.0359C274.791 25.1088 273.37 24.8793 271.565 25.0262Z" fill="white"/>
</svg>
