<svg width="690" height="350" viewBox="0 0 690 350" fill="none" xmlns="http://www.w3.org/2000/svg">
<path fill-rule="evenodd" clip-rule="evenodd" d="M116.707 129.861V128.869C116.707 128.869 116.45 127.032 114.87 127.032H76.1139C75.1396 127.032 74.2052 127.419 73.5163 128.108C72.8274 128.797 72.4403 129.732 72.4403 130.706V164.319C72.4424 164.997 72.6323 165.662 72.9889 166.239C73.3455 166.816 73.855 167.283 74.4608 167.589C73.3955 167.864 72.3485 168.121 71.375 168.397V0.53267H71.8709V0H434.49V0.53267H435.022V25.9355H433.939V4.77565C433.939 3.80135 433.552 2.86696 432.863 2.17803C432.174 1.4891 431.239 1.10207 430.265 1.10207H393.309C392.335 1.10207 391.4 1.4891 390.711 2.17803C390.022 2.86696 389.635 3.80135 389.635 4.77565V25.9906H388.552V4.77565C388.552 3.80135 388.165 2.86696 387.476 2.17803C386.787 1.4891 385.852 1.10207 384.878 1.10207H348.032C347.058 1.10207 346.123 1.4891 345.434 2.17803C344.745 2.86696 344.358 3.80135 344.358 4.77565V25.9906H343.293V4.77565C343.293 3.80135 342.906 2.86696 342.217 2.17803C341.528 1.4891 340.594 1.10207 339.62 1.10207H302.718C301.744 1.10207 300.81 1.4891 300.121 2.17803C299.432 2.86696 299.045 3.80135 299.045 4.77565V25.9906H297.961V4.77565C297.961 3.80135 297.574 2.86696 296.885 2.17803C296.196 1.4891 295.262 1.10207 294.288 1.10207H257.387C256.412 1.10207 255.478 1.4891 254.789 2.17803C254.1 2.86696 253.713 3.80135 253.713 4.77565V25.9906H252.629V4.77565C252.629 3.80135 252.242 2.86696 251.553 2.17803C250.864 1.4891 249.93 1.10207 248.956 1.10207H212.073C211.099 1.10207 210.164 1.4891 209.475 2.17803C208.786 2.86696 208.399 3.80135 208.399 4.77565V18.4414C208.05 18.4414 207.683 18.6067 207.334 18.7169V4.77565C207.334 3.80135 206.947 2.86696 206.258 2.17803C205.569 1.4891 204.635 1.10207 203.66 1.10207H166.759C165.785 1.10207 164.851 1.4891 164.162 2.17803C163.473 2.86696 163.086 3.80135 163.086 4.77565V15.08L162.002 14.9882V4.77565C162.002 3.80135 161.615 2.86696 160.926 2.17803C160.237 1.4891 159.303 1.10207 158.329 1.10207H121.464C120.49 1.10207 119.556 1.4891 118.867 2.17803C118.178 2.86696 117.791 3.80135 117.791 4.77565V20.9761L116.707 21.3618V4.83075C116.707 3.85645 116.32 2.92206 115.631 2.23313C114.942 1.54421 114.008 1.15717 113.033 1.15717H76.1139C75.1396 1.15717 74.2052 1.54421 73.5163 2.23313C72.8274 2.92206 72.4403 3.85645 72.4403 4.83075V38.444C72.4403 39.4183 72.8274 40.3527 73.5163 41.0416C74.2052 41.7305 75.1396 42.1175 76.1139 42.1175H101.26V43.2012H76.1139C75.1396 43.2012 74.2052 43.5883 73.5163 44.2772C72.8274 44.9661 72.4403 45.9005 72.4403 46.8748V80.5064C72.4403 81.4807 72.8274 82.4151 73.5163 83.104C74.2052 83.793 75.1396 84.18 76.1139 84.18H100.966V85.2637H76.1139C75.1396 85.2637 74.2052 85.6507 73.5163 86.3397C72.8274 87.0286 72.4403 87.963 72.4403 88.9373V122.33C72.4403 123.304 72.8274 124.239 73.5163 124.928C74.2052 125.617 75.1396 126.004 76.1139 126.004H120.362C121.007 126.003 121.641 125.831 122.199 125.508C122.456 126.371 122.713 127.345 122.952 128.189C122.614 127.845 122.211 127.57 121.767 127.381C121.322 127.191 120.845 127.092 120.362 127.087H118.948C118.529 127.481 118.205 127.966 118.002 128.504C117.798 129.042 117.719 129.619 117.772 130.192V160.223H116.689V130.192C116.652 130.084 116.652 129.968 116.689 129.861H116.707ZM227.722 251.952H249.011C249.985 251.952 250.919 251.565 251.608 250.876C252.297 250.187 252.684 249.253 252.684 248.279V214.665C252.684 213.691 252.297 212.757 251.608 212.068C250.919 211.379 249.985 210.992 249.011 210.992H224.692V209.927H249.084C250.059 209.927 250.993 209.539 251.682 208.851C252.371 208.162 252.758 207.227 252.758 206.253V192.201H253.842V206.345C253.842 207.319 254.229 208.253 254.918 208.942C255.606 209.631 256.541 210.018 257.515 210.018H294.471C295.446 210.018 296.38 209.631 297.069 208.942C297.758 208.253 298.145 207.319 298.145 206.345V188.454H299.229V206.437C299.229 207.411 299.616 208.345 300.305 209.034C300.993 209.723 301.928 210.11 302.902 210.11H339.84C340.814 210.11 341.749 209.723 342.438 209.034C343.126 208.345 343.514 207.411 343.514 206.437V184.597L344.579 184.505V206.308C344.579 207.282 344.966 208.217 345.655 208.906C346.344 209.595 347.278 209.982 348.252 209.982H385.19C386.165 209.982 387.099 209.595 387.788 208.906C388.477 208.217 388.864 207.282 388.864 206.308V180.777H389.948V206.4C389.948 207.374 390.335 208.309 391.024 208.997C391.712 209.686 392.647 210.073 393.621 210.073H430.577C431.552 210.073 432.486 209.686 433.175 208.997C433.864 208.309 434.251 207.374 434.251 206.4V177.011H435.335V252.65H434.802V253.201H227.796V252.118L227.722 251.952ZM433.939 248.279V214.665C433.939 213.691 433.552 212.757 432.863 212.068C432.174 211.379 431.239 210.992 430.265 210.992H393.309C392.335 210.992 391.4 211.379 390.711 212.068C390.022 212.757 389.635 213.691 389.635 214.665V248.279C389.635 249.253 390.022 250.187 390.711 250.876C391.4 251.565 392.335 251.952 393.309 251.952H430.265C431.239 251.952 432.174 251.565 432.863 250.876C433.552 250.187 433.939 249.253 433.939 248.279ZM388.625 248.279V214.665C388.625 213.691 388.238 212.757 387.549 212.068C386.86 211.379 385.926 210.992 384.951 210.992H348.032C347.058 210.992 346.123 211.379 345.434 212.068C344.745 212.757 344.358 213.691 344.358 214.665V248.279C344.358 249.253 344.745 250.187 345.434 250.876C346.123 251.565 347.058 251.952 348.032 251.952H384.97C385.944 251.952 386.879 251.565 387.567 250.876C388.256 250.187 388.643 249.253 388.643 248.279H388.625ZM343.311 248.279V214.665C343.311 213.691 342.924 212.757 342.236 212.068C341.547 211.379 340.612 210.992 339.638 210.992H302.718C301.744 210.992 300.81 211.379 300.121 212.068C299.432 212.757 299.045 213.691 299.045 214.665V248.279C299.045 249.253 299.432 250.187 300.121 250.876C300.81 251.565 301.744 251.952 302.718 251.952H339.656C340.631 251.952 341.565 251.565 342.254 250.876C342.943 250.187 343.33 249.253 343.33 248.279H343.311ZM297.98 248.279V214.665C297.98 213.691 297.593 212.757 296.904 212.068C296.215 211.379 295.28 210.992 294.306 210.992H257.387C256.412 210.992 255.478 211.379 254.789 212.068C254.1 212.757 253.713 213.691 253.713 214.665V248.279C253.713 249.253 254.1 250.187 254.789 250.876C255.478 251.565 256.412 251.952 257.387 251.952H294.343C295.317 251.952 296.251 251.565 296.94 250.876C297.629 250.187 298.016 249.253 298.016 248.279H297.98ZM230.68 169.021V167.956H213.653V169.021H230.68ZM230.68 127.032V126.004H217.473V127.087L230.68 127.032ZM230.68 85.0433V83.9596H216.867C216.775 84.3086 216.702 84.6759 216.628 85.0433H230.68ZM230.68 43.0543V41.9706H228.843L229.118 43.0543H230.68Z" fill="white"/>
<path d="M580.893 33.6641H255.139C244.974 33.6641 236.734 41.9041 236.734 52.0687V267.212C236.734 277.376 244.974 285.616 255.139 285.616H580.893C591.058 285.616 599.298 277.376 599.298 267.212V52.0687C599.298 41.9041 591.058 33.6641 580.893 33.6641Z" fill="white"/>
<path fill-rule="evenodd" clip-rule="evenodd" d="M260.154 204.688H378.957C380.242 204.692 381.472 205.205 382.381 206.113C383.289 207.021 383.802 208.252 383.806 209.537C383.802 210.821 383.289 212.052 382.381 212.96C381.472 213.868 380.242 214.381 378.957 214.386H260.154C258.869 214.381 257.639 213.868 256.73 212.96C255.822 212.052 255.31 210.821 255.305 209.537C255.31 208.252 255.822 207.021 256.73 206.113C257.639 205.205 258.869 204.692 260.154 204.688Z" fill="#2D334D"/>
<path fill-rule="evenodd" clip-rule="evenodd" d="M260.154 221.219H314.706C315.991 221.224 317.222 221.736 318.13 222.644C319.038 223.553 319.551 224.783 319.556 226.068C319.551 227.352 319.038 228.583 318.13 229.491C317.222 230.4 315.991 230.912 314.706 230.917H260.154C258.869 230.912 257.639 230.4 256.73 229.491C255.822 228.583 255.31 227.352 255.305 226.068C255.31 224.783 255.822 223.553 256.73 222.644C257.639 221.736 258.869 221.224 260.154 221.219Z" fill="#2D334D"/>
<path fill-rule="evenodd" clip-rule="evenodd" d="M329.755 221.219H355.801C357.086 221.224 358.316 221.736 359.225 222.644C360.133 223.553 360.645 224.783 360.65 226.068C360.645 227.352 360.133 228.583 359.225 229.491C358.316 230.4 357.086 230.912 355.801 230.917H329.755C328.471 230.912 327.24 230.4 326.332 229.491C325.424 228.583 324.911 227.352 324.906 226.068C324.911 224.783 325.424 223.553 326.332 222.644C327.24 221.736 328.471 221.224 329.755 221.219Z" fill="#879AEC"/>
<path d="M572.762 204.688H414.339C409.936 204.688 406.367 208.257 406.367 212.659V269.398C406.367 273.8 409.936 277.369 414.339 277.369H572.762C577.164 277.369 580.733 273.8 580.733 269.398V212.659C580.733 208.257 577.164 204.688 572.762 204.688Z" fill="#699B9F"/>
<path fill-rule="evenodd" clip-rule="evenodd" d="M427.594 213.727C429.391 213.723 431.147 214.253 432.642 215.248C434.137 216.244 435.303 217.661 435.992 219.319C436.681 220.978 436.863 222.804 436.513 224.566C436.164 226.328 435.299 227.946 434.029 229.216C432.759 230.486 431.14 231.351 429.379 231.701C427.617 232.05 425.791 231.869 424.132 231.18C422.473 230.491 421.056 229.325 420.061 227.83C419.065 226.335 418.535 224.578 418.539 222.782C418.544 220.382 419.5 218.081 421.197 216.384C422.894 214.687 425.194 213.731 427.594 213.727Z" fill="#2D334D"/>
<path d="M556.669 213.727H450.117C448.067 213.727 446.406 215.384 446.406 217.428C446.406 219.472 448.067 221.129 450.117 221.129H556.669C558.718 221.129 560.379 219.472 560.379 217.428C560.379 215.384 558.718 213.727 556.669 213.727Z" fill="white"/>
<path d="M485.53 224.453H450.117C448.067 224.453 446.406 226.11 446.406 228.154C446.406 230.198 448.067 231.855 450.117 231.855H485.53C487.579 231.855 489.24 230.198 489.24 228.154C489.24 226.11 487.579 224.453 485.53 224.453Z" fill="white"/>
<path d="M515.064 224.453H497.156C495.107 224.453 493.445 226.11 493.445 228.154C493.445 230.198 495.107 231.855 497.156 231.855H515.064C517.113 231.855 518.775 230.198 518.775 228.154C518.775 226.11 517.113 224.453 515.064 224.453Z" fill="#2D334D"/>
<path fill-rule="evenodd" clip-rule="evenodd" d="M427.594 238.25C429.39 238.246 431.146 238.776 432.641 239.77C434.135 240.765 435.301 242.181 435.991 243.839C436.68 245.496 436.862 247.321 436.514 249.083C436.166 250.844 435.304 252.463 434.035 253.733C432.767 255.004 431.15 255.87 429.39 256.222C427.629 256.573 425.804 256.395 424.145 255.709C422.486 255.022 421.067 253.859 420.07 252.367C419.072 250.874 418.539 249.119 418.539 247.324C418.539 244.92 419.493 242.615 421.19 240.914C422.888 239.213 425.191 238.255 427.594 238.25Z" fill="#2D334D"/>
<path d="M538.429 238.25H450.117C448.067 238.25 446.406 239.907 446.406 241.951C446.406 243.995 448.067 245.652 450.117 245.652H538.429C540.478 245.652 542.14 243.995 542.14 241.951C542.14 239.907 540.478 238.25 538.429 238.25Z" fill="#2D334D"/>
<path d="M507.369 248.977H450.117C448.067 248.977 446.406 250.634 446.406 252.678C446.406 254.722 448.067 256.379 450.117 256.379H507.369C509.418 256.379 511.08 254.722 511.08 252.678C511.08 250.634 509.418 248.977 507.369 248.977Z" fill="#2D334D"/>
<path d="M460.605 259.258H450.117C448.067 259.258 446.406 260.915 446.406 262.959C446.406 265.003 448.067 266.66 450.117 266.66H460.605C462.654 266.66 464.315 265.003 464.315 262.959C464.315 260.915 462.654 259.258 460.605 259.258Z" fill="#2D334D"/>
<path d="M553.874 248.977H518.46C516.411 248.977 514.75 250.634 514.75 252.678C514.75 254.722 516.411 256.379 518.46 256.379H553.874C555.923 256.379 557.584 254.722 557.584 252.678C557.584 250.634 555.923 248.977 553.874 248.977Z" fill="white"/>
<path fill-rule="evenodd" clip-rule="evenodd" d="M393.835 163.231V183.822C393.826 187.375 392.414 190.781 389.906 193.299C387.399 195.817 383.998 197.243 380.445 197.267H268.75C265.187 197.257 261.773 195.838 259.253 193.318C256.734 190.799 255.314 187.385 255.305 183.822V148.721L287.246 130.353C288.982 129.329 291.01 128.916 293.007 129.179C295.004 129.442 296.856 130.366 298.267 131.804L330.999 164.536L365.549 144.588C367.285 143.567 369.312 143.156 371.309 143.419C373.305 143.682 375.157 144.604 376.569 146.039L393.835 163.231Z" fill="white"/>
<path fill-rule="evenodd" clip-rule="evenodd" d="M351.387 92.9375C354.827 92.9375 358.19 93.9577 361.05 95.869C363.911 97.7803 366.14 100.497 367.457 103.675C368.773 106.854 369.118 110.351 368.447 113.725C367.776 117.1 366.119 120.199 363.686 122.632C361.254 125.064 358.154 126.721 354.78 127.392C351.406 128.063 347.908 127.719 344.73 126.402C341.552 125.086 338.835 122.856 336.924 119.996C335.012 117.135 333.992 113.772 333.992 110.332C333.992 108.048 334.442 105.786 335.316 103.675C336.19 101.565 337.472 99.6474 339.087 98.0322C340.702 96.417 342.62 95.1357 344.73 94.2616C346.84 93.3874 349.102 92.9375 351.387 92.9375Z" fill="white"/>
<path d="M567.288 74.7188H419.812C412.387 74.7188 406.367 80.7384 406.367 88.164V183.842C406.367 191.268 412.387 197.288 419.812 197.288H567.288C574.714 197.288 580.733 191.268 580.733 183.842V88.164C580.733 80.7384 574.714 74.7188 567.288 74.7188Z" fill="#F2D266"/>
<path fill-rule="evenodd" clip-rule="evenodd" d="M418.643 137.907C430.362 142.334 434.237 136.658 438.572 130.303C442.907 123.948 447.425 117.317 459.144 117.317C470.165 117.317 474.463 126.832 478.614 136.163C482.288 144.483 485.961 152.694 494.484 152.694C503.007 152.694 507.801 141.912 512.999 130.542C518.858 117.684 525.048 104.184 537.318 103.1C550.175 101.962 555.392 110.723 560.314 118.878C564.208 125.344 567.863 131.405 575.009 131.038L575.119 133.187C566.725 133.609 562.757 127.015 558.588 119.999C553.996 112.395 549.092 104.239 537.612 105.305C526.591 106.278 520.676 119.227 515.074 131.479C509.472 143.73 504.366 154.898 494.594 154.898C484.822 154.898 480.763 146.1 476.759 137.118C472.902 128.43 468.953 119.558 459.254 119.558C448.674 119.558 444.376 125.858 440.446 131.607C435.633 138.697 431.262 145.034 418 140.001L418.643 137.907Z" fill="#2D334D"/>
<path fill-rule="evenodd" clip-rule="evenodd" d="M418.339 143.578C419.187 143.575 420.016 143.822 420.722 144.29C421.428 144.759 421.98 145.426 422.307 146.207C422.633 146.989 422.721 147.85 422.558 148.681C422.395 149.513 421.988 150.277 421.391 150.878C420.793 151.478 420.03 151.887 419.2 152.054C418.369 152.221 417.507 152.137 416.724 151.814C415.941 151.49 415.272 150.942 414.801 150.237C414.33 149.533 414.078 148.705 414.078 147.858C414.078 146.726 414.526 145.64 415.325 144.838C416.124 144.036 417.208 143.583 418.339 143.578Z" fill="#2D334D"/>
<path fill-rule="evenodd" clip-rule="evenodd" d="M494.28 161C495.126 161 495.954 161.251 496.657 161.721C497.361 162.192 497.91 162.86 498.234 163.642C498.558 164.424 498.642 165.284 498.477 166.115C498.312 166.945 497.904 167.707 497.306 168.306C496.707 168.904 495.945 169.312 495.115 169.477C494.284 169.642 493.424 169.558 492.642 169.234C491.86 168.91 491.192 168.361 490.721 167.657C490.251 166.954 490 166.126 490 165.28C490 164.145 490.451 163.056 491.254 162.253C492.056 161.451 493.145 161 494.28 161Z" fill="#2D334D"/>
<path fill-rule="evenodd" clip-rule="evenodd" d="M540.28 113C541.127 113 541.955 113.252 542.659 113.723C543.363 114.194 543.912 114.863 544.235 115.646C544.559 116.429 544.642 117.291 544.476 118.121C544.309 118.952 543.9 119.715 543.299 120.312C542.699 120.91 541.935 121.316 541.103 121.479C540.272 121.643 539.411 121.555 538.629 121.228C537.848 120.902 537.18 120.35 536.712 119.644C536.244 118.938 535.996 118.109 536 117.261C536 116.7 536.111 116.145 536.326 115.626C536.541 115.108 536.857 114.638 537.255 114.242C537.652 113.846 538.124 113.532 538.643 113.319C539.162 113.106 539.719 112.998 540.28 113Z" fill="#2D334D"/>
<path fill-rule="evenodd" clip-rule="evenodd" d="M488.451 173H501.896C502.089 173 502.279 173.038 502.456 173.112C502.633 173.186 502.794 173.295 502.929 173.431C503.064 173.568 503.171 173.73 503.242 173.908C503.314 174.087 503.35 174.277 503.348 174.469V174.782C503.348 174.972 503.31 175.161 503.237 175.337C503.164 175.513 503.057 175.673 502.923 175.808C502.788 175.942 502.628 176.049 502.452 176.122C502.276 176.195 502.087 176.233 501.896 176.233H488.451C488.066 176.233 487.697 176.08 487.425 175.808C487.153 175.536 487 175.167 487 174.782V174.469C486.998 174.277 487.033 174.087 487.105 173.908C487.177 173.73 487.284 173.568 487.419 173.431C487.554 173.295 487.714 173.186 487.892 173.112C488.069 173.038 488.259 173 488.451 173ZM488.451 177.849H497.36C497.749 177.849 498.123 178.004 498.399 178.28C498.674 178.555 498.829 178.929 498.829 179.319V179.631C498.824 180.017 498.667 180.386 498.392 180.658C498.117 180.93 497.746 181.082 497.36 181.082H488.451C488.066 181.082 487.697 180.929 487.425 180.657C487.153 180.385 487 180.016 487 179.631V179.319C486.998 179.126 487.033 178.936 487.105 178.758C487.177 178.579 487.284 178.417 487.419 178.281C487.554 178.144 487.714 178.035 487.892 177.961C488.069 177.887 488.259 177.849 488.451 177.849Z" fill="#2D334D"/>
<path fill-rule="evenodd" clip-rule="evenodd" d="M546.97 128H533.451C533.259 128 533.069 128.038 532.892 128.112C532.714 128.186 532.554 128.295 532.419 128.431C532.284 128.568 532.177 128.73 532.105 128.909C532.033 129.087 531.998 129.277 532 129.469V129.837C532 130.222 532.153 130.591 532.425 130.863C532.697 131.135 533.066 131.288 533.451 131.288H546.97C547.162 131.29 547.353 131.255 547.531 131.183C547.709 131.111 547.871 131.004 548.008 130.869C548.145 130.734 548.253 130.574 548.327 130.396C548.401 130.219 548.439 130.029 548.439 129.837V129.525C548.439 129.135 548.285 128.761 548.009 128.485C547.733 128.21 547.36 128.055 546.97 128.055V128ZM546.97 132.849H538.061C537.675 132.854 537.306 133.011 537.034 133.286C536.763 133.561 536.61 133.932 536.61 134.319V134.631C536.615 135.014 536.77 135.38 537.041 135.652C537.312 135.923 537.678 136.077 538.061 136.082H546.97C547.356 136.082 547.727 135.93 548.003 135.658C548.278 135.386 548.435 135.017 548.439 134.631V134.319C548.43 133.935 548.271 133.571 547.996 133.303C547.722 133.036 547.353 132.886 546.97 132.886V132.849Z" fill="#2D334D"/>
<path fill-rule="evenodd" clip-rule="evenodd" d="M415.469 156H428.988C429.378 156 429.752 156.155 430.027 156.43C430.303 156.706 430.458 157.08 430.458 157.469V157.782C430.453 158.168 430.296 158.537 430.021 158.809C429.746 159.08 429.375 159.233 428.988 159.233H415.469C415.083 159.233 414.712 159.08 414.437 158.809C414.162 158.537 414.005 158.168 414 157.782V157.469C414 157.276 414.038 157.085 414.112 156.907C414.186 156.729 414.294 156.567 414.43 156.43C414.567 156.294 414.729 156.186 414.907 156.112C415.085 156.038 415.276 156 415.469 156ZM415.469 160.849H424.378C424.761 160.854 425.128 161.008 425.399 161.279C425.67 161.55 425.824 161.917 425.829 162.3V162.631C425.824 163.014 425.67 163.381 425.399 163.652C425.128 163.923 424.761 164.077 424.378 164.082H415.469C415.083 164.082 414.712 163.93 414.437 163.658C414.162 163.386 414.005 163.017 414 162.631V162.3C414.005 161.914 414.162 161.545 414.437 161.273C414.712 161.001 415.083 160.849 415.469 160.849Z" fill="#2D334D"/>
<path fill-rule="evenodd" clip-rule="evenodd" d="M421.904 82.0625H458.254C459.537 82.0625 460.767 82.5709 461.676 83.4763C462.585 84.3817 463.098 85.6104 463.103 86.8933C463.103 88.1793 462.592 89.4127 461.683 90.3221C460.773 91.2315 459.54 91.7424 458.254 91.7424H421.904C420.618 91.7424 419.384 91.2315 418.475 90.3221C417.566 89.4127 417.055 88.1793 417.055 86.8933C417.06 85.6104 417.573 84.3817 418.481 83.4763C419.39 82.5709 420.621 82.0625 421.904 82.0625Z" fill="white"/>
<path fill-rule="evenodd" clip-rule="evenodd" d="M421.022 94.3125H444.184C445.235 94.3173 446.241 94.7369 446.984 95.4799C447.727 96.2229 448.147 97.2292 448.151 98.28C448.147 99.3307 447.727 100.337 446.984 101.08C446.241 101.823 445.235 102.243 444.184 102.247H421.022C419.97 102.247 418.961 101.829 418.217 101.085C417.473 100.341 417.055 99.3322 417.055 98.28C417.055 97.2277 417.473 96.2186 418.217 95.4745C418.961 94.7305 419.97 94.3125 421.022 94.3125Z" fill="white"/>
<path fill-rule="evenodd" clip-rule="evenodd" d="M471.568 82.0625H482.001C483.282 82.0625 484.511 82.5715 485.417 83.4774C486.323 84.3833 486.832 85.6121 486.832 86.8933C486.832 88.1762 486.323 89.4068 485.418 90.3156C484.512 91.2245 483.284 91.7375 482.001 91.7424H471.568C470.282 91.7424 469.048 91.2315 468.139 90.3221C467.23 89.4127 466.719 88.1793 466.719 86.8933C466.724 85.6104 467.237 84.3817 468.146 83.4763C469.054 82.5709 470.285 82.0625 471.568 82.0625Z" fill="white"/>
<path fill-rule="evenodd" clip-rule="evenodd" d="M253.706 33.6641H582.308C586.809 33.6786 591.122 35.4733 594.306 38.6565C597.489 41.8396 599.283 46.1527 599.298 50.6544V66.5609H236.734V50.6911C236.744 46.1877 238.533 41.8708 241.713 38.6813C244.892 35.4917 249.203 33.6883 253.706 33.6641Z" fill="#2D334D"/>
<path fill-rule="evenodd" clip-rule="evenodd" d="M261.862 40.4219C263.78 40.4219 265.656 40.9907 267.25 42.0563C268.845 43.122 270.088 44.6367 270.822 46.4088C271.556 48.1809 271.748 50.1309 271.374 52.0122C271 53.8934 270.076 55.6215 268.72 56.9778C267.364 58.3341 265.636 59.2578 263.754 59.632C261.873 60.0062 259.923 59.8142 258.151 59.0801C256.379 58.3461 254.864 57.1031 253.799 55.5082C252.733 53.9133 252.164 52.0383 252.164 50.1201C252.162 48.8459 252.411 47.5837 252.897 46.4059C253.384 45.2282 254.098 44.1581 254.999 43.257C255.9 42.356 256.97 41.6417 258.148 41.1552C259.326 40.6687 260.588 40.4195 261.862 40.4219Z" fill="#DF6175"/>
<path fill-rule="evenodd" clip-rule="evenodd" d="M293.735 40.4219C295.654 40.4183 297.53 40.9839 299.128 42.0474C300.725 43.1108 301.971 44.6242 302.708 46.396C303.445 48.1678 303.639 50.1184 303.267 52.0009C302.895 53.8833 301.973 55.6131 300.617 56.9713C299.262 58.3294 297.534 59.2549 295.652 59.6306C293.77 60.0063 291.819 59.8154 290.046 59.0819C288.273 58.3484 286.757 57.1054 285.69 55.5101C284.624 53.9148 284.055 52.039 284.055 50.1201C284.052 48.8474 284.301 47.5867 284.786 46.4101C285.272 45.2336 285.984 44.1643 286.883 43.2635C287.782 42.3627 288.85 41.6481 290.026 41.1605C291.202 40.6729 292.462 40.4219 293.735 40.4219Z" fill="#F2D266"/>
<path fill-rule="evenodd" clip-rule="evenodd" d="M325.62 40.4219C327.538 40.4219 329.413 40.9907 331.008 42.0563C332.603 43.122 333.846 44.6367 334.58 46.4088C335.314 48.1809 335.506 50.1309 335.132 52.0122C334.758 53.8934 333.834 55.6215 332.478 56.9778C331.121 58.3341 329.393 59.2578 327.512 59.632C325.631 60.0062 323.681 59.8142 321.909 59.0801C320.137 58.3461 318.622 57.1031 317.556 55.5082C316.491 53.9133 315.922 52.0383 315.922 50.1201C315.919 48.8459 316.169 47.5837 316.655 46.4059C317.142 45.2282 317.856 44.1581 318.757 43.257C319.658 42.356 320.728 41.6417 321.906 41.1552C323.084 40.6687 324.346 40.4195 325.62 40.4219Z" fill="#699B9F"/>
<path fill-rule="evenodd" clip-rule="evenodd" d="M231.925 284.404C231.925 284.404 228.435 182.756 215.1 177.613C201.764 172.47 78.3139 160.604 61.8379 180.037C45.362 199.471 81.0691 250.148 78.369 296.82L231.925 284.404Z" fill="white"/>
<path fill-rule="evenodd" clip-rule="evenodd" d="M57.7281 190.028C54.6607 213.686 80.7063 256.74 78.4103 296.819L118.82 293.55C116.737 277.906 113.44 262.449 108.956 247.318C105.429 235.213 72.9367 153.164 57.7281 190.028Z" fill="#6672D9"/>
<path fill-rule="evenodd" clip-rule="evenodd" d="M271.856 301.135C271.856 301.135 251.633 203.142 224.32 201.655C197.007 200.167 227.056 317.262 227.056 317.262C227.056 317.262 235.671 323.323 253.451 316.711C271.231 310.099 271.856 301.135 271.856 301.135Z" fill="white"/>
<path fill-rule="evenodd" clip-rule="evenodd" d="M121.807 168.248C116.297 182.097 133.213 208.841 159.351 208.4C185.488 207.959 200.568 181.822 180.492 163.895C168.921 153.554 127.354 154.362 121.807 168.248Z" fill="#F2D266"/>
<path fill-rule="evenodd" clip-rule="evenodd" d="M181.117 176.218L219.855 196.294C225.733 199.343 263.038 263.833 265.206 349.978H102.705C102.705 349.978 70.9101 217.233 73.8122 208.949C76.7144 200.666 136.759 174.602 136.759 174.602L181.117 176.218Z" fill="#F2D266"/>
<path fill-rule="evenodd" clip-rule="evenodd" d="M248.656 255.344C253.216 269.171 256.861 283.284 259.566 297.59C262.848 314.878 264.734 332.403 265.205 349.993H102.705C102.705 349.993 91.684 303.853 83.1797 264.289C104.156 287.488 136.447 311.641 181.154 314.543C193.773 315.352 211.332 315.388 226.633 303.357C247.076 287.249 248.472 260.799 248.656 255.344Z" fill="#D28434"/>
<path fill-rule="evenodd" clip-rule="evenodd" d="M134.578 193.578C145.783 207.74 184.888 228.844 187.496 198.758C187.496 198.758 189.223 218.32 171.975 221.571C154.728 224.822 134.578 193.578 134.578 193.578Z" fill="#D28434"/>
<path fill-rule="evenodd" clip-rule="evenodd" d="M122.195 105.796C129.26 128.232 134.138 151.3 136.761 174.675C136.761 174.675 170.136 210.162 179.742 194.88C189.348 179.598 161.87 111.82 161.87 111.82C156.156 107.854 149.609 105.248 142.732 104.204C135.855 103.159 128.829 103.704 122.195 105.796Z" fill="#EBB2A1"/>
<path fill-rule="evenodd" clip-rule="evenodd" d="M180.754 173.759C176.162 148.282 163.635 111.877 163.837 111.877C159.628 108.549 154.758 106.155 149.551 104.857C144.344 103.558 138.92 103.384 133.641 104.347L137.718 133.515C137.718 133.515 147.178 174.824 180.754 173.759Z" fill="#D37B83"/>
<path fill-rule="evenodd" clip-rule="evenodd" d="M122.308 99.1822C122.308 99.1822 118.212 74.8447 109.634 55.5401C101.057 36.2354 111.141 34.564 119.535 42.5724C119.535 42.5724 126.606 23.1759 131.492 23.3779C136.378 23.58 128.113 35.3171 128.113 35.3171C128.113 35.3171 166.685 2.64059 195.872 25.6372C225.058 48.6338 215.874 23.8004 208.105 26.4637C209.262 20.9534 219.034 21.7983 225.315 28.4842C231.597 35.1701 243.793 70.2344 208.674 78.0775C173.555 85.9206 122.308 99.1822 122.308 99.1822Z" fill="#2D334D" stroke="#2D334D" stroke-width="0.22" stroke-miterlimit="2.61"/>
<path fill-rule="evenodd" clip-rule="evenodd" d="M212.034 58.1348C212.034 58.1348 219.032 93.0337 216.35 116.563C213.669 140.092 200.297 154.621 187.549 156.054C182.351 156.623 158.785 159.232 142.089 144.758C134.301 137.98 128.001 127.474 125.797 111.273C125.797 111.273 109.541 118.841 103.902 96.1195C98.3917 73.6924 119.276 70.4045 124.566 84.1621C125.409 87.4029 125.98 90.7083 126.274 94.044C133.75 81.6824 132.372 62.3043 132.372 62.3043C132.372 62.3043 161.118 42.4853 212.034 58.1348Z" fill="#EBB2A1"/>
<path fill-rule="evenodd" clip-rule="evenodd" d="M212.031 58.1354C212.031 58.1354 212.894 62.4886 213.868 69.1562C208.944 66.4533 204.728 62.6271 201.561 57.9885C182.22 87.0465 135.878 67.9439 135.878 67.9439C135.672 77.4888 132.278 86.6904 126.234 94.0814C133.71 81.7198 132.333 62.3417 132.333 62.3417C132.333 62.3417 161.115 42.486 212.031 58.1354Z" fill="#D37B83"/>
<path fill-rule="evenodd" clip-rule="evenodd" d="M125.794 111.303C125.794 111.303 109.539 118.871 103.9 96.1499C102.651 91.0987 102.063 84.6332 109.41 84.3577C117.033 84.0638 120.964 94.4233 120.964 94.4233C114.976 94.4233 115.821 106.95 125.354 105.683L125.794 111.303Z" fill="#D37B83"/>
<path fill-rule="evenodd" clip-rule="evenodd" d="M205.949 50.5074C205.949 50.5074 200.586 79.896 130.861 65.6058L127.5 52.8952L169.746 47.1094L205.949 50.5074Z" fill="#2D334D"/>
<path fill-rule="evenodd" clip-rule="evenodd" d="M200.609 52.8047C200.609 52.8047 185.529 77.6013 147.508 73.3032C147.508 73.3032 184.28 86.7853 200.609 52.8047Z" fill="#2D334D"/>
<path fill-rule="evenodd" clip-rule="evenodd" d="M199.742 47.2031C199.742 47.2031 212.085 80.1 223.529 67.4078C234.972 54.7156 199.742 47.2031 199.742 47.2031Z" fill="#2D334D"/>
<path fill-rule="evenodd" clip-rule="evenodd" d="M184.023 111.438C184.023 111.438 191.499 115.314 200.904 109.602C200.904 109.602 198.203 119.171 193.685 119.502C189.166 119.832 184.023 111.438 184.023 111.438Z" fill="#D37B83"/>
<path fill-rule="evenodd" clip-rule="evenodd" d="M201.933 124.898C201.933 124.898 185.09 129.417 168.742 124.898C168.742 124.898 169.238 140.713 183.804 141.981C198.37 143.248 201.933 124.898 201.933 124.898Z" fill="#D37B83"/>
<path fill-rule="evenodd" clip-rule="evenodd" d="M172.117 135.353C173.401 137.309 175.128 138.936 177.157 140.1C179.187 141.265 181.462 141.935 183.799 142.057C185.564 142.222 187.343 142.066 189.052 141.598C186.922 138.2 181.595 132.046 172.117 135.353Z" fill="#B85263"/>
<path fill-rule="evenodd" clip-rule="evenodd" d="M201.453 125.008C192.087 127.196 182.385 127.533 172.891 126C173.105 127.641 173.846 129.169 175.003 130.353C176.968 131.547 191.534 134.688 198.312 129.839C199.955 128.705 201.084 126.969 201.453 125.008Z" fill="white"/>
<path fill-rule="evenodd" clip-rule="evenodd" d="M173.754 93.2672C175.323 94.6793 176.575 96.4069 177.428 98.3368C177.428 98.3368 170.209 102.635 157.352 99.6042C157.315 99.6042 159.777 88.6753 173.754 93.2672Z" fill="white"/>
<path fill-rule="evenodd" clip-rule="evenodd" d="M168.39 91.1954C169.742 91.1202 171.068 91.5849 172.078 92.4874C173.087 93.3898 173.696 94.656 173.772 96.0078C173.802 96.8131 173.636 97.6137 173.287 98.3402C172.938 99.0667 172.417 99.6973 171.77 100.177C169.954 100.52 168.108 100.686 166.26 100.673C165.456 100.279 164.774 99.6753 164.285 98.925C163.797 98.1748 163.521 97.3063 163.486 96.4119C163.451 95.0716 163.947 93.7718 164.865 92.795C165.784 91.8182 167.05 91.2433 168.39 91.1954Z" fill="#879AEC"/>
<path fill-rule="evenodd" clip-rule="evenodd" d="M168.427 92.2031C169.509 92.274 170.519 92.7692 171.238 93.5809C171.957 94.3926 172.326 95.4553 172.266 96.5379C172.311 97.213 172.211 97.8899 171.973 98.5234C171.736 99.1568 171.366 99.7324 170.888 100.212C169.59 100.486 168.266 100.622 166.939 100.616C166.327 100.183 165.826 99.6105 165.478 98.9463C165.13 98.2822 164.945 97.5449 164.937 96.7951C164.806 95.7258 165.097 94.6474 165.749 93.7897C166.401 92.9319 167.362 92.3626 168.427 92.2031Z" fill="#2D334D"/>
<path fill-rule="evenodd" clip-rule="evenodd" d="M177.389 98.3413C175.423 84.8225 158.764 85.7593 157.312 99.6087C157.312 99.6087 160.986 92.886 167.782 92.9411C169.717 92.919 171.623 93.4063 173.309 94.3543C174.995 95.3022 176.402 96.6773 177.389 98.3413Z" fill="#2D334D"/>
<path fill-rule="evenodd" clip-rule="evenodd" d="M164.2 95.2344C165.522 95.2344 166.624 95.7119 166.643 96.3916C166.661 97.0712 165.614 97.6773 164.292 97.7324C162.969 97.7875 161.867 97.2548 161.867 96.612C161.867 95.9691 162.877 95.2895 164.2 95.2344Z" fill="white"/>
<path fill-rule="evenodd" clip-rule="evenodd" d="M157.148 84.6356L175.002 83.9376C175.002 83.9376 176.104 81.4028 171.494 78.2987C171.494 78.2436 162.64 79.4375 157.148 84.6356Z" fill="#2D334D"/>
<path fill-rule="evenodd" clip-rule="evenodd" d="M198.718 92.2952C197.369 93.8468 196.356 95.6603 195.742 97.6219C195.742 97.6219 202.704 101.295 214.349 97.3831C214.349 97.3831 211.263 86.6747 198.718 92.2952Z" fill="white"/>
<path fill-rule="evenodd" clip-rule="evenodd" d="M203.493 89.8368C202.849 89.8766 202.218 90.0432 201.638 90.3271C201.058 90.611 200.54 91.0067 200.114 91.4913C199.687 91.976 199.36 92.5402 199.152 93.1514C198.944 93.7627 198.859 94.409 198.901 95.0533C198.927 95.8432 199.136 96.6164 199.512 97.3114C199.888 98.0064 200.421 98.6043 201.069 99.0575C202.791 99.2277 204.526 99.2277 206.248 99.0575C206.977 98.5716 207.566 97.9046 207.959 97.1222C208.352 96.3397 208.535 95.4685 208.489 94.5941C208.451 93.303 207.905 92.0793 206.969 91.1885C206.034 90.2978 204.785 89.8121 203.493 89.8368Z" fill="#879AEC"/>
<path fill-rule="evenodd" clip-rule="evenodd" d="M203.547 90.8458C202.517 91.047 201.604 91.6397 201.001 92.4993C200.399 93.359 200.152 94.4187 200.314 95.4561C200.324 96.1241 200.467 96.7835 200.735 97.3954C201.003 98.0073 201.391 98.5595 201.876 99.0195C203.091 99.2098 204.325 99.2468 205.549 99.1297C206.091 98.6321 206.513 98.0183 206.783 97.3344C207.053 96.6504 207.165 95.914 207.11 95.1806C207.019 92.7193 205.421 90.7723 203.547 90.8458Z" fill="#2D334D"/>
<path fill-rule="evenodd" clip-rule="evenodd" d="M195.742 97.6216C196.55 84.011 211.979 83.6987 214.349 97.3828C214.349 97.3828 210.492 90.954 204.191 91.5234C202.368 91.6973 200.624 92.354 199.139 93.4258C197.654 94.4977 196.482 95.9459 195.742 97.6216Z" fill="#2D334D"/>
<path fill-rule="evenodd" clip-rule="evenodd" d="M207.66 93.5664C206.448 93.5664 205.474 94.2093 205.492 94.8889C205.511 95.5685 206.539 96.1012 207.77 96.0461C209.001 95.991 209.974 95.4032 209.937 94.7236C209.901 94.044 208.89 93.5113 207.66 93.5664Z" fill="white"/>
<path fill-rule="evenodd" clip-rule="evenodd" d="M213.389 82.4536L196.858 83.0965C196.858 83.0965 195.646 80.6535 199.687 77.2188C199.687 77.2188 207.934 77.6963 213.389 82.4536Z" fill="#2D334D"/>
<path fill-rule="evenodd" clip-rule="evenodd" d="M167.384 74.8123C172.299 74.8169 177.028 76.6943 180.607 80.0623C184.187 83.4303 186.348 88.0358 186.652 92.9414C187.481 92.6579 188.376 92.6259 189.224 92.8495C189.463 87.8246 191.659 83.0928 195.341 79.665C199.023 76.2373 203.9 74.3856 208.929 74.5055C213.958 74.6254 218.741 76.7075 222.255 80.3068C225.77 83.9062 227.737 88.7373 227.737 93.7679C227.737 98.7985 225.77 103.63 222.255 107.229C218.741 110.828 213.958 112.91 208.929 113.03C203.9 113.15 199.023 111.299 195.341 107.871C191.659 104.443 189.463 99.7112 189.224 94.6863C188.824 94.5162 188.391 94.4409 187.957 94.4664C187.524 94.4919 187.102 94.6175 186.725 94.8332C186.592 98.6268 185.345 102.297 183.141 105.387C180.936 108.477 177.871 110.85 174.327 112.211C170.783 113.571 166.917 113.858 163.211 113.037C159.505 112.216 156.123 110.322 153.486 107.592C150.848 104.862 149.072 101.416 148.38 97.6839C147.687 93.9518 148.107 90.0983 149.589 86.6035C151.071 83.1088 153.548 80.1273 156.713 78.0306C159.877 75.9338 163.588 74.8146 167.384 74.8123ZM220.945 81.7553C218.081 78.9009 214.316 77.1275 210.291 76.7369C206.266 76.3463 202.23 77.3626 198.87 79.613C195.511 81.8633 193.035 85.2085 191.864 89.079C190.694 92.9496 190.901 97.1062 192.45 100.841C193.999 104.576 196.795 107.659 200.362 109.565C203.929 111.47 208.045 112.08 212.011 111.292C215.977 110.503 219.548 108.365 222.114 105.24C224.681 102.115 226.085 98.1973 226.088 94.1536C226.095 91.8494 225.643 89.5668 224.76 87.4384C223.878 85.31 222.581 83.3783 220.945 81.7553ZM179.782 81.7553C176.916 78.8823 173.141 77.0924 169.102 76.6906C165.063 76.2888 161.01 77.3001 157.634 79.5519C154.257 81.8038 151.765 85.1569 150.584 89.0399C149.403 92.9229 149.604 97.0954 151.155 100.846C152.705 104.597 155.508 107.695 159.086 109.61C162.665 111.526 166.796 112.142 170.778 111.352C174.759 110.563 178.343 108.417 180.92 105.281C183.496 102.145 184.905 98.2124 184.907 94.1536C184.908 91.8486 184.453 89.5661 183.567 87.4381C182.681 85.31 181.382 83.3786 179.746 81.7553H179.782Z" fill="white"/>
<path fill-rule="evenodd" clip-rule="evenodd" d="M149.217 92.4594L125.871 91.7247L125.688 89.9062L149.272 90.6593L149.217 92.4594Z" fill="white"/>
<path fill-rule="evenodd" clip-rule="evenodd" d="M116.229 309.68C116.229 309.68 103.592 207.592 76.3339 205.938C49.0759 204.285 71.4848 326.836 71.4848 326.836C71.4848 326.836 80.1177 333.265 97.8978 326.248C115.678 319.232 116.229 309.68 116.229 309.68Z" fill="white"/>
<path fill-rule="evenodd" clip-rule="evenodd" d="M120.08 311.608C59.3007 271.823 30.8672 366.492 108.674 344.45L120.08 311.608Z" fill="white"/>
<path fill-rule="evenodd" clip-rule="evenodd" d="M201.927 284.093L200.844 281.926C214.987 261.428 216.016 270.005 225.714 257.699C230.949 251.068 233.153 263.319 228.616 268.903C221.599 273.22 201.927 284.093 201.927 284.093Z" fill="#D37B83"/>
<path fill-rule="evenodd" clip-rule="evenodd" d="M79.6177 321.654C67.1827 348.673 93.7427 348.875 110.108 344.063C126.474 339.251 206.815 303.121 206.815 303.121L199.027 283.32C168.243 290.612 92.0712 294.635 79.6177 321.654Z" fill="#EBB2A1"/>
<path fill-rule="evenodd" clip-rule="evenodd" d="M79.6177 321.655C67.1827 348.674 93.7427 348.876 110.108 344.064C111.211 343.733 112.606 343.274 114.223 342.686C105.535 343.568 96.4611 342.686 91.6487 337.176C84.4301 328.837 88.6915 316.365 92.4936 308.742C86.4506 312.379 81.9321 316.622 79.6177 321.655Z" fill="#D37B83"/>
<path fill-rule="evenodd" clip-rule="evenodd" d="M226.742 274.635L228.377 268.078L251.888 274.195L249.886 295.373L230.948 297.779L226.742 274.635Z" fill="#D37B83"/>
<path fill-rule="evenodd" clip-rule="evenodd" d="M195.281 287.508L198.955 282.843L228.343 268.148C228.343 268.148 233.67 285.194 230.915 297.849C230.915 297.849 216.919 304.517 206.78 303.194L195.281 287.508Z" fill="#EBB2A1"/>
<path fill-rule="evenodd" clip-rule="evenodd" d="M265.21 349.976H153.882C152.705 349.971 151.577 349.501 150.745 348.669C149.912 347.836 149.442 346.708 149.438 345.531C149.442 344.354 149.912 343.226 150.745 342.393C151.577 341.561 152.705 341.091 153.882 341.086H265.21C266.391 341.086 267.523 341.554 268.36 342.387C269.196 343.22 269.669 344.35 269.674 345.531C269.669 346.712 269.196 347.842 268.36 348.675C267.523 349.508 266.391 349.976 265.21 349.976Z" fill="#879AEC"/>
<path fill-rule="evenodd" clip-rule="evenodd" d="M261.15 237.253H409.434C409.973 237.229 410.509 237.335 410.999 237.562C411.488 237.789 411.916 238.13 412.245 238.557C412.575 238.984 412.797 239.484 412.893 240.015C412.988 240.545 412.955 241.091 412.795 241.607L389.064 345.624C388.753 346.824 388.066 347.893 387.105 348.676C386.143 349.459 384.957 349.915 383.719 349.977H235.435C234.897 349.997 234.363 349.888 233.876 349.66C233.389 349.432 232.963 349.091 232.634 348.665C232.306 348.239 232.083 347.741 231.986 347.212C231.888 346.683 231.918 346.139 232.074 345.624L255.805 241.607C256.116 240.406 256.803 239.337 257.764 238.554C258.725 237.771 259.912 237.315 261.15 237.253Z" fill="#879AEC"/>
<path fill-rule="evenodd" clip-rule="evenodd" d="M266.033 237.253H414.317C414.856 237.229 415.392 237.335 415.882 237.562C416.371 237.789 416.798 238.13 417.128 238.557C417.458 238.984 417.68 239.484 417.775 240.015C417.871 240.545 417.838 241.091 417.678 241.607L393.947 345.624C393.635 346.824 392.949 347.893 391.988 348.676C391.026 349.459 389.84 349.915 388.602 349.977H240.318C239.78 349.997 239.246 349.888 238.759 349.66C238.271 349.432 237.846 349.091 237.517 348.665C237.188 348.239 236.966 347.741 236.869 347.212C236.771 346.683 236.801 346.139 236.956 345.624L260.688 241.607C260.999 240.406 261.685 239.337 262.647 238.554C263.608 237.771 264.794 237.315 266.033 237.253Z" fill="#6672D9"/>
<path fill-rule="evenodd" clip-rule="evenodd" d="M336.069 277.664C338.069 277.594 340.058 277.985 341.883 278.805C343.708 279.626 345.319 280.855 346.594 282.398C347.868 283.94 348.771 285.755 349.233 287.702C349.695 289.648 349.703 291.675 349.257 293.626C348.39 298.007 346.067 301.966 342.666 304.86C339.265 307.754 334.985 309.414 330.522 309.569C328.525 309.639 326.538 309.249 324.715 308.43C322.893 307.61 321.283 306.382 320.01 304.841C318.737 303.301 317.836 301.488 317.375 299.543C316.914 297.599 316.906 295.574 317.352 293.626C318.215 289.245 320.534 285.284 323.931 282.386C327.329 279.488 331.607 277.824 336.069 277.664Z" fill="#879AEC"/>
<path fill-rule="evenodd" clip-rule="evenodd" d="M147.841 349.98H198.775C198.775 349.98 193.706 332.861 178.111 332.384C162.517 331.906 145.912 332.035 147.841 349.98Z" fill="#6672D9"/>
<path fill-rule="evenodd" clip-rule="evenodd" d="M149.01 349.983H176.746C170.115 328.455 146.898 331.945 149.01 349.983Z" fill="#2D334D"/>
<path fill-rule="evenodd" clip-rule="evenodd" d="M180.093 338.845C179.454 337.748 178.635 336.767 177.669 335.943C177.437 335.716 177.27 335.433 177.184 335.121C177.097 334.808 177.095 334.479 177.177 334.166C177.259 333.852 177.423 333.566 177.651 333.337C177.879 333.107 178.164 332.941 178.477 332.857C179.199 332.744 179.939 332.815 180.627 333.064C181.314 333.313 181.928 333.732 182.41 334.282C182.892 334.832 183.227 335.495 183.384 336.209C183.541 336.924 183.515 337.666 183.308 338.368C183.213 338.699 183.026 338.998 182.769 339.228C182.513 339.459 182.196 339.613 181.856 339.672C181.513 339.733 181.159 339.686 180.844 339.538C180.528 339.39 180.266 339.148 180.093 338.845Z" fill="#879AEC"/>
<path fill-rule="evenodd" clip-rule="evenodd" d="M362.727 349.979H599.287C599.287 349.979 573.571 293.884 540.013 321.931C506.455 349.979 495.545 347.261 481.016 332.034C466.487 316.807 436.253 316.237 422.569 335.046C408.885 353.855 390.738 327.772 362.727 349.979Z" fill="#2D334D"/>
<path fill-rule="evenodd" clip-rule="evenodd" d="M123.758 349.979H22C22 349.979 33.5166 323.896 52.4907 325.347C71.4647 326.799 76.1485 347.389 90.402 343.881C104.655 340.372 110.937 328.764 123.758 349.979Z" fill="#2D334D"/>
<path fill-rule="evenodd" clip-rule="evenodd" d="M651.727 163.968L665.503 172.252C665.987 172.53 666.39 172.932 666.67 173.415C666.95 173.899 667.097 174.448 667.097 175.007C667.097 175.566 666.95 176.115 666.67 176.599C666.39 177.082 665.987 177.484 665.503 177.762L651.727 186.046C651.245 186.34 650.692 186.495 650.129 186.495C649.565 186.495 649.012 186.34 648.531 186.046C648.035 185.773 647.623 185.371 647.339 184.883C647.054 184.395 646.907 183.838 646.914 183.273V166.741C646.915 166.18 647.066 165.628 647.349 165.143C647.633 164.659 648.04 164.258 648.529 163.981C649.018 163.705 649.572 163.563 650.133 163.571C650.695 163.578 651.245 163.734 651.727 164.023V163.968Z" fill="#FDFDFD"/>
<path d="M295.785 122.594C282.6 126.372 274 132.844 274 140.233C274 151.938 296.025 161.483 323.251 161.483C326.951 161.483 329.551 161.266 333.001 160.944" stroke="#879AEC" stroke-width="5" stroke-linecap="round" stroke-linejoin="round"/>
<path d="M313.493 160.668C311.428 157.357 309.463 154.373 307.593 150.668C293.838 123.446 290.153 96.3901 299.443 90.2623C305.193 86.3901 314.678 91.6679 324.314 102.785" stroke="#879AEC" stroke-width="5" stroke-linecap="round" stroke-linejoin="round"/>
<path d="M296.456 157.817C292.946 172.75 293.656 184.017 299.256 187.789C308.171 193.789 326.192 176.911 339.472 149.989C341.272 146.267 342.887 142.606 344.312 139" stroke="#879AEC" stroke-width="5" stroke-linecap="round" stroke-linejoin="round"/>
<path d="M324 175.014C333.64 186.125 343.085 191.403 348.89 187.531C358.14 181.408 354.495 154.353 340.725 127.125C338.805 123.364 336.84 120.436 334.825 117.125" stroke="#879AEC" stroke-width="5" stroke-linecap="round" stroke-linejoin="round"/>
<path d="M351.925 156.014C364.986 152.197 373.626 145.736 373.626 138.369C373.626 126.647 351.585 117.125 324.4 117.125C320.665 117.125 318.07 117.286 314.625 117.608" stroke="#879AEC" stroke-width="5" stroke-linecap="round" stroke-linejoin="round"/>
<path d="M303.688 138.999C305.113 135.332 306.723 131.732 308.528 128.01C321.763 101.099 339.793 84.1764 348.758 90.2264C354.308 93.9987 355.068 105.26 351.558 120.188" stroke="#879AEC" stroke-width="5" stroke-linecap="round" stroke-linejoin="round"/>
<path d="M325.038 138.941H324.988C324.938 139.663 324.388 140.274 323.688 140.274C323.353 140.256 323.037 140.096 322.805 139.827C322.572 139.559 322.441 139.202 322.438 138.83C322.438 138.052 322.988 137.441 323.638 137.441H323.588C324.238 137.385 324.838 138.052 324.838 138.774" stroke="#879AEC" stroke-width="5" stroke-linecap="round" stroke-linejoin="round"/>
</svg>
