<svg width="690" height="350" viewBox="0 0 690 350" fill="none" xmlns="http://www.w3.org/2000/svg">
<g clip-path="url(#clip0_1872_2776)">
<path d="M243.919 83.2804V73.4064C243.919 72.4431 243.139 71.6532 242.166 71.6532H239.623C238.881 71.6532 238.216 71.1523 238.052 70.4202C237.176 66.5862 235.673 62.9834 233.65 59.7467C233.245 59.1013 233.323 58.2632 233.862 57.7237L235.654 55.932C236.338 55.248 236.338 54.1402 235.654 53.4563L228.67 46.4722C227.986 45.7883 226.878 45.7883 226.194 46.4722L224.412 48.2544C223.872 48.7938 223.034 48.8709 222.389 48.4663C219.143 46.4433 215.549 44.9406 211.715 44.064C210.993 43.9002 210.482 43.2355 210.482 42.4938V39.9603C210.482 38.9969 209.702 38.207 208.729 38.207H198.855C197.892 38.207 197.102 38.9873 197.102 39.9603V42.4938C197.102 43.2355 196.601 43.9002 195.869 44.064C192.035 44.9406 188.432 46.4433 185.186 48.4663C184.54 48.8709 183.702 48.7938 183.163 48.2544L181.381 46.4722C180.697 45.7883 179.589 45.7883 178.905 46.4722L171.921 53.4563C171.237 54.1402 171.237 55.248 171.921 55.932L173.703 57.7141C174.243 58.2535 174.32 59.0916 173.915 59.737C171.892 62.9834 170.399 66.5766 169.513 70.4105C169.349 71.133 168.684 71.6436 167.943 71.6436H165.399C164.436 71.6436 163.646 72.4239 163.646 73.3968V83.2708C163.646 84.2341 164.427 85.024 165.399 85.024H167.943C168.684 85.024 169.349 85.5249 169.513 86.257C170.389 90.091 171.892 93.6938 173.915 96.9305C174.32 97.5759 174.243 98.414 173.703 98.9535L171.911 100.745C171.228 101.429 171.228 102.537 171.911 103.221L178.895 110.205C179.579 110.889 180.687 110.889 181.371 110.205L183.163 108.413C183.702 107.874 184.54 107.797 185.186 108.201C188.423 110.224 192.025 111.717 195.859 112.594C196.582 112.758 197.092 113.422 197.092 114.164V116.707C197.092 117.671 197.873 118.461 198.846 118.461H208.72C209.683 118.461 210.473 117.68 210.473 116.707V114.164C210.473 113.422 210.983 112.758 211.706 112.594C215.54 111.717 219.133 110.215 222.379 108.201C223.025 107.797 223.863 107.874 224.402 108.413L226.194 110.205C226.878 110.889 227.986 110.889 228.67 110.205L235.654 103.221C236.338 102.537 236.338 101.429 235.654 100.745L233.862 98.9535C233.323 98.414 233.245 97.5759 233.65 96.9305C235.673 93.6938 237.166 90.091 238.052 86.257C238.216 85.5345 238.881 85.024 239.623 85.024H242.166C243.139 85.024 243.919 84.2437 243.919 83.2804ZM203.807 106.178C188.432 106.178 175.986 93.7034 175.986 78.329C175.986 62.9738 188.432 50.5085 203.807 50.5085C219.181 50.5085 231.627 62.9834 231.627 78.329C231.627 93.7034 219.181 106.178 203.807 106.178Z" stroke="#DEE3FC" stroke-width="0.7896" stroke-miterlimit="10"/>
<path d="M289.33 116.697V109.963C289.33 109.308 288.8 108.769 288.135 108.769H286.401C285.891 108.769 285.447 108.422 285.332 107.931C284.735 105.32 283.713 102.864 282.336 100.658C282.057 100.215 282.114 99.6462 282.48 99.2802L283.694 98.0664C284.157 97.604 284.157 96.843 283.694 96.3806L278.935 91.6218C278.473 91.1594 277.712 91.1594 277.25 91.6218L276.036 92.8356C275.67 93.2017 275.101 93.2595 274.658 92.9801C272.452 91.6026 269.996 90.5815 267.385 89.9842C266.894 89.8686 266.547 89.4255 266.547 88.9149V87.1906C266.547 86.5356 266.017 85.9961 265.353 85.9961H258.619C257.964 85.9961 257.425 86.5259 257.425 87.1906V88.9149C257.425 89.4255 257.078 89.8686 256.587 89.9842C253.976 90.5815 251.52 91.6026 249.314 92.9801C248.87 93.2595 248.302 93.2017 247.936 92.8356L246.722 91.6218C246.26 91.1594 245.499 91.1594 245.036 91.6218L240.278 96.3806C239.815 96.843 239.815 97.604 240.278 98.0664L241.491 99.2802C241.858 99.6462 241.915 100.215 241.636 100.658C240.258 102.864 239.237 105.32 238.64 107.931C238.524 108.422 238.081 108.769 237.571 108.769H235.837C235.182 108.769 234.642 109.299 234.642 109.963V116.697C234.642 117.352 235.172 117.891 235.837 117.891H237.571C238.081 117.891 238.524 118.238 238.64 118.729C239.237 121.34 240.258 123.796 241.636 126.002C241.915 126.446 241.858 127.014 241.491 127.38L240.278 128.594C239.815 129.056 239.815 129.817 240.278 130.28L245.036 135.038C245.499 135.501 246.26 135.501 246.722 135.038L247.946 133.815C248.312 133.449 248.88 133.391 249.323 133.67C251.529 135.048 253.986 136.069 256.596 136.666C257.088 136.782 257.434 137.225 257.434 137.736V139.47C257.434 140.125 257.964 140.664 258.629 140.664H265.362C266.017 140.664 266.557 140.134 266.557 139.47V137.736C266.557 137.225 266.904 136.782 267.395 136.666C270.006 136.069 272.462 135.048 274.668 133.67C275.111 133.391 275.679 133.449 276.045 133.815L277.269 135.038C277.731 135.501 278.492 135.501 278.955 135.038L283.713 130.28C284.176 129.817 284.176 129.056 283.713 128.594L282.49 127.37C282.124 127.004 282.066 126.436 282.346 125.993C283.723 123.787 284.744 121.33 285.341 118.72C285.457 118.229 285.9 117.882 286.411 117.882H288.145C288.8 117.891 289.33 117.362 289.33 116.697ZM261.991 131.233C252.107 131.233 244.102 123.209 244.102 113.325C244.102 103.451 252.107 95.4366 261.991 95.4366C271.874 95.4366 279.879 103.461 279.879 113.325C279.889 123.218 271.884 131.233 261.991 131.233Z" fill="#DEE3FC"/>
<path d="M162.625 294.863C164.429 294.863 165.891 293.401 165.891 291.598C165.891 289.794 164.429 288.332 162.625 288.332C160.822 288.332 159.36 289.794 159.36 291.598C159.36 293.401 160.822 294.863 162.625 294.863Z" fill="#A4AFFF"/>
<path d="M599.612 205.738C601.416 205.738 602.878 204.276 602.878 202.473C602.878 200.669 601.416 199.207 599.612 199.207C597.809 199.207 596.347 200.669 596.347 202.473C596.347 204.276 597.809 205.738 599.612 205.738Z" fill="#A4AFFF"/>
<path d="M593.091 89.2617C594.894 89.2617 596.356 87.7997 596.356 85.9961C596.356 84.1925 594.894 82.7305 593.091 82.7305C591.287 82.7305 589.825 84.1925 589.825 85.9961C589.825 87.7997 591.287 89.2617 593.091 89.2617Z" fill="#A4AFFF"/>
<path d="M475.808 48.4555C476.935 48.4555 477.85 47.5412 477.85 46.4133C477.85 45.2854 476.935 44.3711 475.808 44.3711C474.68 44.3711 473.765 45.2854 473.765 46.4133C473.765 47.5412 474.68 48.4555 475.808 48.4555Z" fill="#A4AFFF"/>
<path d="M175.389 19.1634C175.389 20.2905 174.474 21.2056 173.347 21.2056C172.22 21.2056 171.305 20.2905 171.305 19.1634C171.305 18.0363 172.22 17.1212 173.347 17.1212C174.474 17.1115 175.389 18.0267 175.389 19.1634Z" fill="#A4AFFF"/>
<path d="M220.675 145.156C220.675 146.283 219.759 147.198 218.632 147.198C217.505 147.198 216.59 146.283 216.59 145.156C216.59 144.028 217.505 143.113 218.632 143.113C219.759 143.113 220.675 144.028 220.675 145.156Z" fill="#A4AFFF"/>
<path d="M145.613 294.863C145.613 295.99 144.698 296.905 143.571 296.905C142.444 296.905 141.529 295.99 141.529 294.863C141.529 293.735 142.444 292.82 143.571 292.82C144.698 292.82 145.613 293.735 145.613 294.863Z" fill="#A4AFFF"/>
<path d="M551.765 296.797C553.568 296.797 555.03 295.335 555.03 293.531C555.03 291.728 553.568 290.266 551.765 290.266C549.961 290.266 548.499 291.728 548.499 293.531C548.499 295.335 549.961 296.797 551.765 296.797Z" fill="#A4AFFF"/>
<path d="M621.123 296.797C622.927 296.797 624.389 295.335 624.389 293.531C624.389 291.728 622.927 290.266 621.123 290.266C619.319 290.266 617.857 291.728 617.857 293.531C617.857 295.335 619.319 296.797 621.123 296.797Z" fill="#A4AFFF"/>
<path d="M231.627 13.5273C233.431 13.5273 234.893 12.0653 234.893 10.2617C234.893 8.45816 233.431 6.99609 231.627 6.99609C229.824 6.99609 228.362 8.45816 228.362 10.2617C228.362 12.0653 229.824 13.5273 231.627 13.5273Z" fill="#A4AFFF"/>
<path d="M456.686 158.668C456.686 161.077 454.73 163.032 452.322 163.032C449.914 163.032 447.958 161.077 447.958 158.668C447.958 156.26 449.914 154.305 452.322 154.305C454.73 154.305 456.686 156.26 456.686 158.668Z" fill="#A4AFFF"/>
<path d="M134.776 104.704C134.776 107.112 132.82 109.067 130.412 109.067C128.004 109.067 126.048 107.112 126.048 104.704C126.048 102.295 128.004 100.34 130.412 100.34C132.82 100.34 134.776 102.286 134.776 104.704Z" fill="#A4AFFF"/>
<path d="M122.494 39.5554H117.003C116.646 39.5554 116.367 39.2664 116.367 38.9196V33.4288C116.367 33.0723 116.656 32.793 117.003 32.793H122.494C122.85 32.793 123.129 33.082 123.129 33.4288V38.9196C123.139 39.2664 122.85 39.5554 122.494 39.5554Z" fill="white"/>
<path d="M131.549 39.5554H126.058C125.701 39.5554 125.422 39.2664 125.422 38.9196V33.4288C125.422 33.0723 125.711 32.793 126.058 32.793H131.549C131.905 32.793 132.185 33.082 132.185 33.4288V38.9196C132.185 39.2664 131.905 39.5554 131.549 39.5554Z" fill="white"/>
<path d="M140.604 39.5554H135.113C134.757 39.5554 134.477 39.2664 134.477 38.9196V33.4288C134.477 33.0723 134.766 32.793 135.113 32.793H140.604C140.96 32.793 141.24 33.082 141.24 33.4288V38.9196C141.24 39.2664 140.96 39.5554 140.604 39.5554Z" fill="white"/>
<path d="M583.515 277.235H578.024C577.668 277.235 577.389 276.946 577.389 276.599V271.108C577.389 270.752 577.678 270.473 578.024 270.473H583.515C583.872 270.473 584.151 270.762 584.151 271.108V276.599C584.161 276.946 583.872 277.235 583.515 277.235Z" fill="#DEE3FC"/>
<path d="M592.57 277.235H587.08C586.723 277.235 586.444 276.946 586.444 276.599V271.108C586.444 270.752 586.733 270.473 587.08 270.473H592.57C592.927 270.473 593.206 270.762 593.206 271.108V276.599C593.206 276.946 592.927 277.235 592.57 277.235Z" fill="#DEE3FC"/>
<path d="M601.626 277.235H596.135C595.778 277.235 595.499 276.946 595.499 276.599V271.108C595.499 270.752 595.788 270.473 596.135 270.473H601.626C601.982 270.473 602.261 270.762 602.261 271.108V276.599C602.261 276.946 601.973 277.235 601.626 277.235Z" fill="#DEE3FC"/>
<path d="M164.995 273.524H159.504C159.148 273.524 158.868 273.235 158.868 272.888V267.398C158.868 267.041 159.157 266.762 159.504 266.762H164.995C165.351 266.762 165.631 267.051 165.631 267.398V272.888C165.631 273.235 165.342 273.524 164.995 273.524Z" fill="#DEE3FC"/>
<path d="M174.04 273.524H168.549C168.193 273.524 167.914 273.235 167.914 272.888V267.398C167.914 267.041 168.203 266.762 168.549 266.762H174.04C174.397 266.762 174.676 267.051 174.676 267.398V272.888C174.686 273.235 174.397 273.524 174.04 273.524Z" fill="#DEE3FC"/>
<path d="M183.095 273.524H177.605C177.248 273.524 176.969 273.235 176.969 272.888V267.398C176.969 267.041 177.258 266.762 177.605 266.762H183.095C183.452 266.762 183.731 267.051 183.731 267.398V272.888C183.741 273.235 183.452 273.524 183.095 273.524Z" fill="#DEE3FC"/>
<path d="M410.35 331.69H280.014C268.657 331.69 259.448 322.48 259.448 311.123V21.012C259.448 9.65457 268.657 0.445312 280.014 0.445312H410.35C421.708 0.445312 430.917 9.65457 430.917 21.012V311.123C430.917 322.49 421.708 331.69 410.35 331.69Z" fill="black"/>
<path d="M409.686 326.99H280.669C270.718 326.99 262.655 318.927 262.655 308.976V21.3694C262.655 11.4184 270.718 3.35547 280.669 3.35547H409.686C419.637 3.35547 427.699 11.4184 427.699 21.3694V308.976C427.699 318.927 419.637 326.99 409.686 326.99Z" fill="#D7D7D7"/>
<path d="M420.475 20.801V308.08C420.475 314.813 415.013 320.275 408.279 320.275H282.076C275.342 320.275 269.88 314.813 269.88 308.08V20.801C269.88 14.0675 275.342 8.60548 282.076 8.60548H303.124C304.29 8.60548 305.359 9.26053 305.879 10.3105L308.114 14.7707C309.135 16.8322 311.235 18.123 313.518 18.123H376.827C379.11 18.123 381.21 16.8322 382.231 14.7707L384.466 10.3105C384.986 9.27017 386.056 8.60548 387.221 8.60548H408.269C415.013 8.59585 420.475 14.0578 420.475 20.801Z" fill="white"/>
<path d="M371.75 12.8901H320.762C319.577 12.8901 318.614 11.9268 318.614 10.7419C318.614 9.55706 319.577 8.59375 320.762 8.59375H371.75C372.935 8.59375 373.898 9.55706 373.898 10.7419C373.898 11.9268 372.935 12.8901 371.75 12.8901Z" fill="#DEE3FC"/>
<path d="M400.448 310.303H286.979C282.519 310.303 278.906 306.691 278.906 302.23V262.166C278.906 257.706 282.519 254.094 286.979 254.094H400.448C404.908 254.094 408.52 257.706 408.52 262.166V302.23C408.52 306.691 404.908 310.303 400.448 310.303Z" stroke="#698BD1" stroke-miterlimit="10" stroke-linecap="round" stroke-linejoin="round" stroke-dasharray="2.84 2.84"/>
<path d="M394.697 172.367H338.41C335.193 172.367 332.592 169.757 332.592 166.549V138.729C332.592 135.511 335.202 132.91 338.41 132.91H394.697C397.914 132.91 400.515 135.521 400.515 138.729V166.549C400.515 169.766 397.914 172.367 394.697 172.367Z" stroke="#698BD1" stroke-miterlimit="10" stroke-linecap="round" stroke-linejoin="round" stroke-dasharray="2.84 2.84"/>
<path d="M406.815 244.74H290.563C286.729 244.74 283.627 241.638 283.627 237.804V188.772C283.627 184.938 286.729 181.836 290.563 181.836H406.815C410.649 181.836 413.751 184.938 413.751 188.772V237.804C413.751 241.638 410.649 244.74 406.815 244.74Z" fill="white" fill-opacity="0.34"/>
<path d="M408.52 183.676V232.738C408.52 236.562 405.418 239.654 401.594 239.654H285.833C282.008 239.654 278.906 236.562 278.906 232.738V183.676C278.906 179.852 282.008 176.75 285.833 176.75H401.594C405.418 176.75 408.52 179.852 408.52 183.676Z" fill="#00B47F"/>
<path d="M323.681 234.539H289.58C286.998 234.539 284.898 232.439 284.898 229.857V195.756C284.898 193.174 286.998 191.074 289.58 191.074H323.681C326.263 191.074 328.363 193.174 328.363 195.756V229.857C328.363 232.439 326.263 234.539 323.681 234.539Z" fill="white"/>
<path d="M364.102 196.565H334.066C333.247 196.565 332.582 195.9 332.582 195.081C332.582 194.262 333.247 193.598 334.066 193.598H364.102C364.921 193.598 365.585 194.262 365.585 195.081C365.576 195.91 364.911 196.565 364.102 196.565Z" fill="#B2C1F9"/>
<path d="M350.413 202.471H334.066C333.247 202.471 332.582 201.806 332.582 200.987C332.582 200.169 333.247 199.504 334.066 199.504H350.413C351.232 199.504 351.897 200.169 351.897 200.987C351.887 201.816 351.222 202.471 350.413 202.471Z" fill="#B2C1F9"/>
<path d="M400.659 202.471H356.424C355.605 202.471 354.941 201.806 354.941 200.987C354.941 200.169 355.605 199.504 356.424 199.504H400.659C401.478 199.504 402.143 200.169 402.143 200.987C402.143 201.816 401.478 202.471 400.659 202.471Z" fill="#B2C1F9"/>
<path d="M359.353 208.373H334.056C333.237 208.373 332.573 207.709 332.573 206.89C332.573 206.071 333.237 205.406 334.056 205.406H359.353C360.171 205.406 360.836 206.071 360.836 206.89C360.836 207.709 360.171 208.373 359.353 208.373Z" fill="#B2C1F9"/>
<path d="M380.825 208.373H364.921C364.102 208.373 363.437 207.709 363.437 206.89C363.437 206.071 364.102 205.406 364.921 205.406H380.825C381.644 205.406 382.308 206.071 382.308 206.89C382.308 207.709 381.644 208.373 380.825 208.373Z" fill="#B2C1F9"/>
<path d="M400.659 208.373H386.017C385.198 208.373 384.533 207.709 384.533 206.89C384.533 206.071 385.198 205.406 386.017 205.406H400.659C401.478 205.406 402.143 206.071 402.143 206.89C402.143 207.709 401.478 208.373 400.659 208.373Z" fill="#B2C1F9"/>
<path d="M400.659 214.279H334.056C333.237 214.279 332.573 213.615 332.573 212.796C332.573 211.977 333.237 211.312 334.056 211.312H400.659C401.478 211.312 402.143 211.977 402.143 212.796C402.143 213.615 401.478 214.279 400.659 214.279Z" fill="#B2C1F9"/>
<path d="M370.72 220.186H334.066C333.247 220.186 332.582 219.521 332.582 218.702C332.582 217.883 333.247 217.219 334.066 217.219H370.72C371.539 217.219 372.203 217.883 372.203 218.702C372.194 219.521 371.539 220.186 370.72 220.186Z" fill="#B2C1F9"/>
<path d="M400.659 220.186H376.625C375.806 220.186 375.141 219.521 375.141 218.702C375.141 217.883 375.806 217.219 376.625 217.219H400.659C401.478 217.219 402.143 217.883 402.143 218.702C402.143 219.521 401.478 220.186 400.659 220.186Z" fill="#B2C1F9"/>
<path d="M355.596 226.092H334.056C333.237 226.092 332.573 225.427 332.573 224.608C332.573 223.79 333.237 223.125 334.056 223.125H355.596C356.414 223.125 357.079 223.79 357.079 224.608C357.079 225.427 356.414 226.092 355.596 226.092Z" fill="#B2C1F9"/>
<path d="M382.963 226.092H361.424C360.605 226.092 359.94 225.427 359.94 224.608C359.94 223.79 360.605 223.125 361.424 223.125H382.963C383.782 223.125 384.447 223.79 384.447 224.608C384.447 225.427 383.782 226.092 382.963 226.092Z" fill="#B2C1F9"/>
<path d="M400.659 226.092H388.165C387.346 226.092 386.682 225.427 386.682 224.608C386.682 223.79 387.346 223.125 388.165 223.125H400.659C401.478 223.125 402.143 223.79 402.143 224.608C402.143 225.427 401.478 226.092 400.659 226.092Z" fill="#B2C1F9"/>
<path d="M364.102 231.994H334.066C333.247 231.994 332.582 231.33 332.582 230.511C332.582 229.692 333.247 229.027 334.066 229.027H364.102C364.921 229.027 365.585 229.692 365.585 230.511C365.576 231.33 364.911 231.994 364.102 231.994Z" fill="#B2C1F9"/>
<path d="M400.659 196.565H370.623C369.805 196.565 369.14 195.9 369.14 195.081C369.14 194.262 369.805 193.598 370.623 193.598H400.659C401.478 193.598 402.143 194.262 402.143 195.081C402.143 195.91 401.478 196.565 400.659 196.565Z" fill="#B2C1F9"/>
<path d="M408.52 183.676V185.738H278.906V183.676C278.906 179.852 282.008 176.75 285.833 176.75H401.594C405.418 176.75 408.52 179.852 408.52 183.676Z" fill="#00B47F"/>
<path d="M384.091 181.402C384.091 182.288 383.368 183.01 382.482 183.01C381.596 183.01 380.873 182.288 380.873 181.402C380.873 180.515 381.596 179.793 382.482 179.793C383.368 179.793 384.091 180.515 384.091 181.402Z" fill="#DEE3FC"/>
<path d="M392.298 181.402C392.298 182.288 391.576 183.01 390.689 183.01C389.803 183.01 389.081 182.288 389.081 181.402C389.081 180.515 389.803 179.793 390.689 179.793C391.576 179.793 392.298 180.515 392.298 181.402Z" fill="#DEE3FC"/>
<path d="M400.515 181.402C400.515 182.288 399.792 183.01 398.906 183.01C398.02 183.01 397.297 182.288 397.297 181.402C397.297 180.515 398.02 179.793 398.906 179.793C399.802 179.793 400.515 180.515 400.515 181.402Z" fill="#DEE3FC"/>
<path d="M319.028 172.366H293.375C289.57 172.366 286.488 169.283 286.488 165.478V139.825C286.488 136.02 289.57 132.938 293.375 132.938H319.028C322.833 132.938 325.916 136.02 325.916 139.825V165.478C325.916 169.283 322.833 172.366 319.028 172.366Z" stroke="#FF6726" stroke-width="0.8956" stroke-miterlimit="10"/>
<path d="M300.051 146.953L294.377 152.627L300.099 158.359" stroke="#FF6726" stroke-width="1.6716" stroke-miterlimit="10" stroke-linecap="round" stroke-linejoin="round"/>
<path d="M312.352 146.953L318.036 152.627L312.314 158.359" stroke="#FF6726" stroke-width="1.6716" stroke-miterlimit="10" stroke-linecap="round" stroke-linejoin="round"/>
<path d="M308.865 146.953L303.548 158.359" stroke="#FF6726" stroke-width="1.6716" stroke-miterlimit="10" stroke-linecap="round" stroke-linejoin="round"/>
<path d="M408.52 36.7041V116.919C408.52 121.273 404.994 124.799 400.64 124.799H286.786C282.442 124.799 278.906 121.273 278.906 116.919V36.7041C278.906 32.3499 282.442 28.8242 286.786 28.8242H400.64C404.994 28.8242 408.52 32.3499 408.52 36.7041Z" fill="#00B47F"/>
<path d="M382.27 72.952C392.644 72.952 401.054 64.5418 401.054 54.1674C401.054 43.793 392.644 35.3828 382.27 35.3828C371.895 35.3828 363.485 43.793 363.485 54.1674C363.485 64.5418 371.895 72.952 382.27 72.952Z" fill="#F0F4FF"/>
<path d="M355.095 124.798H286.786C282.442 124.798 278.906 121.272 278.906 116.918V104.289L308.798 52.5106C310.359 49.8037 314.27 49.8037 315.83 52.5106L338.401 91.6018L355.162 120.636C355.971 122.023 355.846 123.603 355.095 124.798Z" fill="white"/>
<path d="M384.553 124.799H319.231L338.401 91.6033L348.727 73.7146C350.134 71.2774 353.65 71.2774 355.056 73.7146L384.553 124.799Z" fill="#F0F4FF"/>
<path d="M514.118 273.848H463.756V349.525H514.118V273.848Z" fill="#3B47BC"/>
<path d="M514.106 349.523H533.392V273.846H514.106V349.523Z" fill="#FF6726"/>
<path d="M531.034 276.75H516.873V279.168H531.034V276.75Z" fill="#B2C1F9"/>
<path d="M531.034 281.941H516.873V284.359H531.034V281.941Z" fill="#B2C1F9"/>
<path d="M531.034 287.133H516.873V289.551H531.034V287.133Z" fill="#B2C1F9"/>
<path d="M531.034 292.316H516.873V294.734H531.034V292.316Z" fill="#B2C1F9"/>
<path d="M531.034 297.508H516.873V299.926H531.034V297.508Z" fill="#B2C1F9"/>
<path d="M531.034 302.691H516.873V305.109H531.034V302.691Z" fill="#B2C1F9"/>
<path d="M531.034 307.883H516.873V310.301H531.034V307.883Z" fill="#B2C1F9"/>
<path d="M531.034 313.078H516.873V315.496H531.034V313.078Z" fill="#B2C1F9"/>
<path d="M531.034 318.258H516.873V320.676H531.034V318.258Z" fill="#B2C1F9"/>
<path d="M531.034 323.453H516.873V325.871H531.034V323.453Z" fill="#B2C1F9"/>
<path d="M531.034 328.645H516.873V331.062H531.034V328.645Z" fill="#B2C1F9"/>
<path d="M531.034 333.828H516.873V336.246H531.034V333.828Z" fill="#B2C1F9"/>
<path d="M531.034 339.02H516.873V341.437H531.034V339.02Z" fill="#B2C1F9"/>
<path d="M531.034 344.199H516.873V346.617H531.034V344.199Z" fill="#B2C1F9"/>
<path d="M455.578 349.526H481.173C481.173 349.526 482.599 344.969 479.507 339.324C479.507 339.324 477.445 340.972 471.28 339.854C471.28 339.854 468.708 342.041 466.926 342.898C465.124 343.765 454.884 345.769 455.578 349.526Z" fill="#281616"/>
<path d="M457.36 277.356C459.017 287.221 466.637 320.59 469.921 340.299C475.913 340.81 478.794 340.126 480.316 339.769C480.017 332.891 479.429 316.448 479.497 309.242C479.612 297.056 480.181 280.988 474.815 272.164L456.772 273.58C456.878 274.534 456.984 275.304 457.071 275.863C457.158 276.403 457.263 276.894 457.36 277.356Z" fill="#002C54"/>
<path d="M409.281 349.526H434.876C434.876 349.526 436.302 344.969 433.21 339.324C433.21 339.324 431.148 340.972 424.983 339.854C424.983 339.854 422.411 342.041 420.629 342.898C418.837 343.765 408.597 345.769 409.281 349.526Z" fill="#281616"/>
<path d="M424.232 339.729C429.125 340.943 432.661 340.818 434.337 340.635C435.695 332.707 437.843 315.281 439.78 307.102C442.785 294.396 445.723 276.931 443.681 270.698L425.937 266.238C425.889 266.807 424.444 320.27 424.232 339.729Z" fill="#052635"/>
<path d="M494.862 248.053C494.505 244.547 494.091 241.984 494.091 241.984L474.266 246.839L457.427 250.673C451.185 252.061 443.642 253.737 436.996 255.24C429.53 256.935 424.579 262.599 426.216 270.075L428.085 279.139C438.518 278.995 487.589 274.294 491.779 272.175C496.519 269.776 497.944 261.318 494.862 248.053Z" fill="#052635"/>
<path d="M524.455 248.05C524.098 244.544 522.393 240.777 522.393 240.777L503.869 246.827L487.03 250.661C480.788 252.048 473.245 253.724 466.598 255.227C459.132 256.922 454.181 262.587 455.819 270.062L457.688 279.127C468.12 278.982 511.739 277.46 521.382 272.162C526.025 269.609 527.537 261.315 524.455 248.05Z" fill="#002C54"/>
<path d="M468.958 219.644C468.958 219.644 477.763 215.666 480.191 219.654C481.52 221.841 480.595 225.896 477.599 227.601C474.594 229.306 457.63 236.483 441.61 240.481C441.61 240.481 440.926 238.255 439.818 235.915C439.818 235.915 447.004 232.938 454.143 227.919C461.29 222.891 468.958 219.644 468.958 219.644Z" fill="#E5918F"/>
<path d="M471.164 192.141L463.622 222.283C463.622 222.283 464.402 229.902 472.099 226.165C479.796 222.427 484.892 198.412 484.892 198.412L471.164 192.141Z" fill="#E5918F"/>
<path d="M483.928 208.998C482.994 208.777 482.107 208.526 481.24 208.266C480.364 208.006 479.526 207.736 478.726 207.457C471.559 205 467.677 202.043 467.677 202.043C469.931 192.246 472.648 185.657 475.066 181.322C475.133 181.216 475.191 181.12 475.249 181.004C475.316 180.898 475.374 180.792 475.441 180.686C476.742 178.529 478.611 176.718 480.691 175.224C480.903 175.07 481.106 174.935 481.327 174.781L482.213 190.522L482.367 192.14L483.928 208.998Z" fill="#7C1DC9"/>
<path d="M483.928 208.999C482.994 208.778 482.107 208.527 481.24 208.267C480.364 208.007 479.526 207.737 478.726 207.458C480.229 196.861 481.597 190.195 481.597 190.195L482.367 192.141L483.928 208.999Z" fill="#7C1DC9"/>
<path d="M528.481 181.785C528.298 186.447 527.479 193.922 526.776 201.436C526.555 203.816 526.333 206.214 526.15 208.517C526.025 209.952 523.857 217.629 523.771 219.007C523.385 225.577 520.168 230.49 523.212 240.499C523.944 242.897 524.127 244.13 524.127 245.113C524.127 245.797 523.241 246.519 522.884 246.712C521.603 247.454 519.098 247.964 516.045 248.34H516.035C510.034 249.072 501.942 249.207 497.058 249.207C490.498 249.207 480.653 248.166 479.41 246.51C478.273 244.997 479.323 242.791 479.863 239.757C482.281 226.049 481.423 218.901 481.269 208.998C481.269 208.748 481.26 208.507 481.26 208.247C481.009 192.978 480.007 179.916 480.711 175.205C480.922 175.051 481.125 174.916 481.346 174.762C482.387 174.049 483.408 173.423 484.39 172.864C484.477 172.826 484.583 172.758 484.689 172.691C484.988 172.518 485.306 172.354 485.595 172.2C485.7 172.132 485.816 172.084 485.941 172.026C488.167 170.938 491.403 169.782 493.262 169.136C493.503 169.059 493.715 168.982 493.898 168.934C495.651 168.828 497.549 168.809 499.601 168.857C501.383 168.915 504.109 169.146 507.076 169.531C507.086 169.531 507.086 169.531 507.086 169.531C510.438 169.965 514.099 170.591 517.008 171.391C517.008 171.391 517.037 171.4 517.066 171.41C517.615 171.583 521.17 172.913 524.869 176.872C526.073 178.211 527.344 179.82 528.481 181.785Z" fill="#7C1DC9"/>
<path d="M523.212 240.51C523.944 242.909 524.127 244.142 524.127 245.125C524.127 245.808 523.241 246.531 522.884 246.724C521.603 247.465 519.099 247.976 516.045 248.352C517.297 248.197 519.465 246.213 519.465 244.412C519.465 243.15 517.837 234.653 518.28 229.172C518.732 223.7 519.619 214.982 517.923 207.998C516.218 201.024 514.619 191.844 514.619 191.844L524.185 197.624C524.185 197.624 525.418 199.348 526.776 201.448C526.555 203.827 526.333 206.226 526.15 208.528C526.025 209.964 520.158 230.501 523.212 240.51Z" fill="#7C1DC9"/>
<path d="M481.135 141.441C481.135 141.441 481.963 151.441 485.277 152.115C488.591 152.789 487.781 148.541 487.781 148.541L487.319 143.792L481.135 141.441Z" fill="#002C54"/>
<path d="M496.422 177.702C489.93 176.931 492.357 170.622 493.243 169.167C493.484 169.09 494.592 168.753 494.679 168.695C494.688 168.685 494.698 168.685 494.698 168.685C494.91 168.512 495.074 168.252 495.199 167.934C495.835 166.268 495.546 162.954 495.517 162.742C495.517 162.732 495.517 162.732 495.517 162.732V162.135C495.623 161.74 495.729 161.364 495.815 161.008L499.226 158.32L506.45 152.637C506.45 152.637 504.533 162.135 506.075 168.127C506.19 168.58 506.431 169.215 507.028 169.562C507.028 169.572 507.038 169.562 507.038 169.562C507.231 169.687 507.471 169.774 507.76 169.822C509.552 170.651 507.086 178.964 496.422 177.702Z" fill="#E5918F"/>
<path d="M502.154 158.668C502.154 158.668 502.096 165.007 495.208 167.925C495.844 166.268 495.555 162.955 495.536 162.743L498.416 160.479L502.154 158.668Z" fill="#CC6362"/>
<path d="M482.714 142.868C482.714 142.868 484.217 163.628 489.824 165.391C489.824 165.391 496.962 166.065 502.087 159.168C503.56 157.183 505.429 156.73 506.036 154.332C507.028 150.43 508.425 143.244 506.643 138.909C504.11 132.744 482.955 127.841 482.714 142.868Z" fill="#E5918F"/>
<path d="M506.739 135.489C506.643 131.722 502.828 130.306 502.828 130.306C499.033 128.524 491.134 129.295 482.994 131.116C481.086 131.539 478.688 130.374 477.358 131.299C475.75 132.416 477.349 137.522 477.349 137.522C480.489 147.03 492.039 143.937 495.517 142.762C496.345 145.209 496.239 148.609 498.291 150.372C499.466 151.374 501.499 151.403 503.58 151.056C503.84 151.538 504.793 151.971 504.986 152.636C505.641 154.861 505.545 158.339 505.526 161.017L506.508 160.535C506.633 159.803 516.767 135.797 506.739 135.489Z" fill="#002C54"/>
<path d="M488.465 149.854C488.754 151.579 487.907 153.158 486.568 153.39C485.229 153.621 483.899 152.407 483.61 150.683C483.321 148.958 484.169 147.379 485.508 147.147C486.847 146.926 488.176 148.13 488.465 149.854Z" stroke="white" stroke-width="0.501" stroke-miterlimit="10"/>
<path d="M495.237 148.591C495.526 150.315 494.679 151.895 493.34 152.126C492.001 152.357 490.671 151.143 490.382 149.419C490.093 147.695 490.941 146.115 492.28 145.884C493.619 145.653 494.948 146.866 495.237 148.591Z" stroke="white" stroke-width="0.501" stroke-miterlimit="10"/>
<path d="M488.465 149.851C488.465 149.851 488.764 149.369 490.325 149.504" stroke="white" stroke-width="0.501" stroke-miterlimit="10"/>
<path d="M495.295 149.003L501.085 148.078" stroke="white" stroke-width="0.501" stroke-miterlimit="10"/>
<path d="M501.509 155.428C505.497 156.96 506.739 147.144 502.954 146.71C500.083 146.383 499.967 150.39 499.967 150.39C499.967 150.39 499.235 154.552 501.509 155.428Z" fill="#E5918F"/>
<g opacity="0.5">
<g opacity="0.5">
<path opacity="0.5" d="M502.828 148.184C502.828 148.184 502.568 148.453 502.337 148.887C502.096 149.32 501.894 149.918 501.855 150.563C501.817 150.881 501.826 151.208 501.846 151.517C501.855 151.825 501.894 152.124 501.913 152.374C501.942 152.634 501.961 152.856 501.981 153.01C502 153.164 502 153.26 502 153.26C502 153.26 501.942 153.193 501.855 153.058C501.778 152.923 501.634 152.74 501.528 152.49C501.412 152.239 501.297 151.941 501.239 151.603C501.162 151.266 501.143 150.891 501.171 150.505C501.21 150.129 501.306 149.754 501.46 149.426C501.615 149.099 501.836 148.839 502.038 148.646C502.453 148.261 502.828 148.184 502.828 148.184Z" fill="#CC6362"/>
</g>
<g opacity="0.5">
<path opacity="0.5" d="M503.445 150.044C503.445 150.044 503.281 150.063 503.06 150.15C502.838 150.227 502.559 150.391 502.356 150.593C502.144 150.805 502.009 151.055 501.942 151.257C501.865 151.46 501.846 151.595 501.846 151.595L501.191 151.363C501.191 151.363 501.268 151.2 501.432 150.978C501.586 150.757 501.846 150.487 502.154 150.313C502.462 150.14 502.799 150.053 503.05 150.044C503.291 150.024 503.445 150.044 503.445 150.044Z" fill="#CC6362"/>
</g>
</g>
<path d="M539.839 223.612C539.839 223.612 539.839 223.612 539.839 223.622C538.085 225.654 531.439 227.138 528.24 224.325C527.239 223.429 526.102 221.069 524.984 218.14C522.152 210.655 519.465 199.452 519.465 199.452L534.348 191.852C534.348 191.852 536.265 200.435 537.912 208.594C537.912 208.594 537.931 208.681 537.96 208.825C538.5 211.436 539.001 214.008 539.386 216.214C539.405 216.272 539.405 216.329 539.415 216.387C539.8 219.007 540.051 221.753 539.839 223.612Z" fill="#E5918F"/>
<path d="M513.849 189.031C515.284 195.003 519.802 206.332 519.802 206.332C522.962 206.852 527.21 206.274 530.726 205.012C534.781 203.558 537.681 200.494 537.681 200.494C537.681 200.494 534.685 192.075 531.997 186.025C529.589 180.592 528.135 178.569 527.094 177.49C525.524 175.843 522.981 173.955 521.189 173.098L513.849 189.031Z" fill="#7C1DC9"/>
<path d="M532.662 192.933L523.934 189.166L517.056 171.441C517.056 171.441 518.318 171.827 519.975 172.491C519.975 172.491 519.975 172.491 519.985 172.491C520.014 172.511 520.091 172.53 520.206 172.578C520.245 172.597 520.293 172.607 520.332 172.636C521.815 173.33 527.566 176.72 531.554 189.041C531.583 189.147 531.622 189.253 531.651 189.349C532.074 190.765 532.383 191.912 532.556 192.499C532.575 192.557 532.585 192.615 532.604 192.673C532.624 192.769 532.633 192.856 532.662 192.933Z" fill="#7C1DC9"/>
<path d="M539.839 223.613C539.839 223.613 539.839 223.613 539.839 223.622C539.713 224.711 539.415 225.491 538.875 225.771C538.789 225.828 537.565 226.551 537.478 226.609C535.658 227.716 532.363 229.614 528.26 231.377C518.309 235.673 503.849 240.663 496.056 242.946C496.056 242.946 495.285 240.74 494.081 238.448C494.081 238.448 501.133 235.172 508.059 229.865C514.995 224.566 524.984 218.132 524.984 218.132L527.508 215.165C527.508 215.165 536.467 206.919 537.912 208.575C537.912 208.575 537.931 208.662 537.96 208.807C538.172 209.664 538.885 212.833 539.386 216.195C539.405 216.253 539.405 216.311 539.415 216.369C539.8 219.008 540.051 221.754 539.839 223.613Z" fill="#E5918F"/>
<path d="M495.112 237.949C495.112 237.949 493.359 239.008 491.577 238.633C490.585 238.421 490.19 238.026 489.458 237.891C488.725 237.766 486.78 237.525 485.816 237.053C484.853 236.581 484.477 236.523 484.516 237.496C484.554 238.459 486.452 239.297 486.963 239.567C487.483 239.837 488.128 240.694 488.196 240.8C488.263 240.906 485.026 242.601 484.159 242.255C484.159 242.255 483.899 243.035 484.044 243.468C484.188 243.902 484.853 244.056 484.911 244.278C484.959 244.499 484.757 244.942 484.901 245.289C485.046 245.636 485.643 245.636 485.884 246.204C486.124 246.773 485.864 246.773 486.038 247.37C486.211 247.957 486.963 248.063 487.107 248.362C487.252 248.661 487.174 249.017 487.492 249.229C487.81 249.441 490.719 248.507 491.779 248.044C492.839 247.591 495.681 243.497 498.821 242.11L495.112 237.949Z" fill="#E5918F"/>
<path d="M509.986 256.192H487.348V253.977H509.986C510.593 253.977 511.094 254.468 511.094 255.084C511.094 255.701 510.593 256.192 509.986 256.192Z" fill="#375F84"/>
<path d="M497.742 256.192H441.061C440.387 256.192 439.789 255.739 439.606 255.084L428.008 213.324C427.748 212.4 428.451 211.484 429.405 211.484H484.208C485.489 211.484 486.606 212.332 486.943 213.565L498.503 255.171C498.648 255.691 498.262 256.192 497.742 256.192Z" fill="#375F84"/>
<path d="M495.69 256.192H439.019C438.344 256.192 437.747 255.739 437.564 255.084L425.966 213.324C425.706 212.4 426.409 211.484 427.363 211.484H482.165C483.446 211.484 484.564 212.332 484.901 213.565L496.461 255.171C496.596 255.691 496.22 256.192 495.69 256.192Z" fill="#162C47"/>
<path d="M271.065 229.208L277.635 222.475C277.635 222.475 277.866 219.469 278.222 218.843C278.579 218.207 279.504 215.866 279.966 215.606C280.428 215.346 281.343 215.606 281.343 215.606C281.343 215.606 282.259 215.298 282.663 215.298C283.068 215.298 283.838 215.674 283.838 215.674C283.838 215.674 284.821 215.606 285.226 215.606C285.63 215.606 285.765 215.722 285.765 215.722C285.765 215.722 287.345 213.901 288.116 213.285C288.886 212.668 290.052 211.541 290.399 211.551C290.726 211.551 290.871 212.129 290.63 212.745C290.389 213.362 289.349 214.344 289.349 214.344L286.362 218.882C286.362 218.882 286.873 218.679 287.143 218.506C287.412 218.333 289.243 216.628 289.349 216.56C289.455 216.493 290.273 215.944 290.755 216.493C291.237 217.042 287.624 221.357 287.046 221.945C286.468 222.523 283.155 224.209 283.155 224.209C283.155 224.209 279.648 230.509 279.311 230.913C278.964 231.328 271.065 229.208 271.065 229.208Z" fill="#E49191"/>
<path d="M277.24 198.143C277.24 198.143 273.57 219.384 270.121 219.875C270.121 219.875 256.346 220.434 253.273 203.711C250.614 189.213 261.287 186.121 266.287 187.228C271.277 188.346 278.319 189.068 277.24 198.143Z" fill="#E49191"/>
<path d="M265.064 216.484C265.064 216.484 263.137 219.085 262.453 225.385C262.453 225.385 256.712 226.204 251.423 223.477C251.423 223.477 254.275 214.586 254.621 204.934" fill="#E49191"/>
<path d="M261.181 183.684C253.648 185.35 254.255 190.041 254.255 190.041C250.729 190.918 249.968 192.373 249.997 198.875C250.026 205.387 252.377 213.2 253.677 213.835C254.978 214.471 262.337 214.5 262.954 214.278C263.57 214.057 266.142 208.084 265.545 207.034C264.948 205.984 265.574 201.852 267.289 201.698C269.004 201.543 268.666 204.202 268.666 204.202L270.073 203.894L271.161 201.226C281.112 201.813 283.684 190.475 283.684 190.475C281.295 188.914 268.715 182.017 261.181 183.684Z" fill="#002C54"/>
<path d="M177.585 327.487L185.195 328.585L182.672 337.476L174.426 335.395C174.426 335.395 171.073 330.849 176.14 327.487C176.391 327.332 177.19 327.4 177.585 327.487Z" fill="#E5918F"/>
<path d="M234.421 304.656L223.198 270.68C223.198 270.68 219.797 269.466 218.054 270.68C218.054 270.68 206.359 276.97 207.612 294.888C208.556 308.403 211.407 323.055 212.563 328.932L182.623 327.824C182.623 327.824 178.934 332.216 181.323 337.929C181.323 337.929 218.95 348.044 224.248 348.978C228.554 349.739 233.274 350.327 235.548 348.371C239.545 344.942 234.421 304.656 234.421 304.656Z" fill="black"/>
<path d="M213.045 327.487L220.655 328.585L218.131 337.476L209.885 335.395C209.885 335.395 206.533 330.849 211.6 327.487C211.841 327.332 212.64 327.4 213.045 327.487Z" fill="#E5918F"/>
<path d="M210.28 332.149C210.107 333.902 211.638 335.473 211.359 335.916C211.08 336.349 205.964 344.942 205.964 344.942C205.964 344.942 209.827 346.628 209.201 349.055H199.414C199.414 349.055 196.861 346.753 196.919 343.449C196.919 343.449 197.584 339.644 199.327 336.282C201.071 332.92 205.04 325.319 205.04 325.319C205.04 325.319 206.244 324.828 208.305 325.377C210.714 326.023 213.035 327.496 213.035 327.496C213.035 327.496 210.694 327.824 210.28 332.149Z" fill="#FF6726"/>
<path d="M288.665 341.244C286.247 332.228 263.522 293.743 255.825 283.349C240.027 276.49 223.198 270.672 223.198 270.672C216.233 272.338 212.804 286.364 216.753 295.718C219.46 302.134 236.646 318.279 247.175 327.787L217.967 327.748C217.967 327.748 214.528 332.892 217.649 337.776C217.649 337.776 266.219 348.816 270.477 349.442C274.735 350.068 284.301 349.442 284.301 349.442C284.301 349.442 290.697 348.835 288.665 341.244Z" fill="#002C54"/>
<path d="M174.83 332.149C174.657 333.902 176.188 335.473 175.909 335.916C175.63 336.349 170.514 344.942 170.514 344.942C170.514 344.942 174.377 346.628 173.751 349.055H163.964C163.964 349.055 161.411 346.753 161.469 343.449C161.469 343.449 162.134 339.644 163.877 336.282C165.621 332.92 169.59 325.319 169.59 325.319C169.59 325.319 170.794 324.828 172.855 325.377C175.264 326.023 177.585 327.496 177.585 327.496C177.585 327.496 175.244 327.824 174.83 332.149Z" fill="#FF6726"/>
<path d="M325.232 222.668L309.568 250.219L298.346 239.035L289.06 252.858L291.757 254.149L290.784 254.958C290.784 254.958 312.43 265.497 315.03 263.175C317.622 260.854 329.711 225.799 329.711 225.799L325.232 222.668Z" fill="#E49191"/>
<path d="M300.35 240.798C300.35 240.798 297.392 253.273 291.477 259.188L276.344 253.427C276.344 253.427 269.321 265.237 262.453 274.293C259.813 277.789 258.937 282.712 255.835 283.357C255.642 283.29 255.459 283.232 255.267 283.184C246.857 280.66 234.449 283.338 224.209 279.533C212.9 275.323 215.096 272.954 215.096 272.954C215.096 272.954 221.955 260.594 225.847 247.503C227.581 241.713 228.785 236.348 229.585 232.157C231.02 224.74 236.964 218.941 244.458 217.929C244.545 217.92 244.622 217.9 244.709 217.891C253.282 216.802 275.727 219.451 280.091 221.32C284.455 223.189 300.35 240.798 300.35 240.798Z" fill="#95009D"/>
<path d="M276.344 253.426C276.344 253.426 269.321 265.236 262.453 274.291C259.813 277.788 258.937 282.71 255.835 283.356C257.193 282.874 259.447 275.726 260.247 274.118C261.056 272.518 262.337 270.91 265.112 265.294C267.876 259.668 271.633 251.422 271.633 251.422L276.344 253.426Z" fill="#5996EF"/>
<path d="M247.175 327.786C247.175 327.786 247.416 327.728 247.83 327.68C248.254 327.632 248.851 327.545 249.573 327.516C251.018 327.439 252.955 327.497 254.872 327.757C255.825 327.892 256.779 328.065 257.665 328.287C258.552 328.499 259.361 328.739 260.045 328.99C260.729 329.221 261.278 329.481 261.673 329.655C262.058 329.828 262.27 329.944 262.27 329.944C262.27 329.944 262.029 329.915 261.615 329.847C261.201 329.76 260.603 329.683 259.9 329.558C258.484 329.317 256.615 329.019 254.737 328.768C253.802 328.624 252.858 328.518 251.972 328.402C251.086 328.287 250.257 328.19 249.554 328.094C248.128 327.921 247.175 327.786 247.175 327.786Z" fill="black"/>
<path d="M336.936 212.535C336.686 212.506 335.077 213.797 334.306 214.433L335.202 212.718C335.202 212.718 336.387 211.581 336.811 210.955C337.235 210.329 337.013 209.703 336.676 209.674C336.445 209.655 335.029 210.772 334.21 211.437L334.393 211.09C334.393 211.09 335.578 209.953 336.002 209.327C336.426 208.701 336.204 208.075 335.867 208.036C335.53 208.007 332.813 210.281 332.813 210.281L331.493 212.053L332.495 210.117C332.495 210.117 333.025 209.472 333.372 208.778C333.719 208.075 333.468 207.863 333.276 207.632C333.083 207.401 331.253 208.759 330.781 209.308C330.318 209.857 328.835 212.063 328.719 212.371L327.187 215.531C327.091 214.616 326.937 213.046 326.831 212.044C326.677 210.608 325.367 210.262 325.328 210.965C325.28 211.668 324.558 215.107 324.721 216.976C324.885 218.845 325.203 220.068 325.319 221.118C325.434 222.168 324.346 224.268 324.346 224.268C324.346 224.268 328.709 226.975 329.422 226.166C330.145 225.357 331.677 223.555 332.418 222.341C333.439 220.675 334.123 218.488 334.123 218.488L335.482 215.579C335.482 215.579 336.666 214.442 337.09 213.816C337.495 213.19 337.273 212.564 336.936 212.535Z" fill="#E49191"/>
<path d="M587.156 124.797H536.043C532.768 124.797 530.109 127.456 530.109 130.731V142.811C530.109 145.836 532.373 148.331 535.292 148.697C535.716 148.754 536.043 149.111 536.043 149.544V156.153C536.043 156.538 536.534 156.692 536.756 156.384L541.967 149.101C542.131 148.87 542.391 148.745 542.671 148.745H587.166C590.441 148.745 593.1 146.086 593.1 142.811V130.731C593.09 127.456 590.432 124.797 587.156 124.797Z" stroke="white" stroke-width="0.8956" stroke-miterlimit="10"/>
<path d="M543.884 136.752C543.884 137.831 543.008 138.708 541.929 138.708C540.85 138.708 539.973 137.831 539.973 136.752C539.973 135.673 540.85 134.797 541.929 134.797C543.008 134.797 543.884 135.673 543.884 136.752Z" stroke="white" stroke-width="0.8956" stroke-miterlimit="10"/>
<path d="M553.72 136.752C553.72 137.831 552.843 138.708 551.764 138.708C550.685 138.708 549.809 137.831 549.809 136.752C549.809 135.673 550.685 134.797 551.764 134.797C552.843 134.797 553.72 135.673 553.72 136.752Z" stroke="white" stroke-width="0.8956" stroke-miterlimit="10"/>
<path d="M563.546 136.752C563.546 137.831 562.669 138.708 561.59 138.708C560.511 138.708 559.635 137.831 559.635 136.752C559.635 135.673 560.511 134.797 561.59 134.797C562.679 134.797 563.546 135.673 563.546 136.752Z" stroke="white" stroke-width="0.8956" stroke-miterlimit="10"/>
<path d="M573.381 136.752C573.381 137.831 572.504 138.708 571.426 138.708C570.347 138.708 569.47 137.831 569.47 136.752C569.47 135.673 570.347 134.797 571.426 134.797C572.514 134.797 573.381 135.673 573.381 136.752Z" stroke="white" stroke-width="0.8956" stroke-miterlimit="10"/>
<path d="M583.216 136.752C583.216 137.831 582.34 138.708 581.261 138.708C580.182 138.708 579.305 137.831 579.305 136.752C579.305 135.673 580.182 134.797 581.261 134.797C582.349 134.797 583.216 135.673 583.216 136.752Z" stroke="white" stroke-width="0.8956" stroke-miterlimit="10"/>
<path d="M183.24 177.742H234.353C237.629 177.742 240.287 180.401 240.287 183.676V195.756C240.287 198.781 238.024 201.276 235.105 201.642C234.681 201.7 234.353 202.056 234.353 202.49V209.098C234.353 209.483 233.862 209.637 233.64 209.329L228.429 202.047C228.265 201.815 228.005 201.69 227.726 201.69H183.23C179.955 201.69 177.296 199.031 177.296 195.756V183.676C177.306 180.391 179.965 177.742 183.24 177.742Z" stroke="white" stroke-width="0.8956" stroke-miterlimit="10"/>
<path d="M226.512 189.686C226.512 190.765 227.389 191.642 228.467 191.642C229.546 191.642 230.423 190.765 230.423 189.686C230.423 188.607 229.546 187.73 228.467 187.73C227.389 187.74 226.512 188.607 226.512 189.686Z" stroke="white" stroke-width="0.8956" stroke-miterlimit="10"/>
<path d="M216.677 189.686C216.677 190.765 217.553 191.642 218.632 191.642C219.711 191.642 220.588 190.765 220.588 189.686C220.588 188.607 219.711 187.73 218.632 187.73C217.553 187.74 216.677 188.607 216.677 189.686Z" stroke="white" stroke-width="0.8956" stroke-miterlimit="10"/>
<path d="M206.841 189.686C206.841 190.765 207.718 191.642 208.797 191.642C209.876 191.642 210.752 190.765 210.752 189.686C210.752 188.607 209.876 187.73 208.797 187.73C207.718 187.74 206.841 188.607 206.841 189.686Z" stroke="white" stroke-width="0.8956" stroke-miterlimit="10"/>
<path d="M197.006 189.686C197.006 190.765 197.882 191.642 198.961 191.642C200.04 191.642 200.917 190.765 200.917 189.686C200.917 188.607 200.04 187.73 198.961 187.73C197.882 187.74 197.006 188.607 197.006 189.686Z" stroke="white" stroke-width="0.8956" stroke-miterlimit="10"/>
<path d="M187.17 189.686C187.17 190.765 188.047 191.642 189.126 191.642C190.205 191.642 191.081 190.765 191.081 189.686C191.081 188.607 190.205 187.73 189.126 187.73C188.047 187.74 187.17 188.607 187.17 189.686Z" stroke="white" stroke-width="0.8956" stroke-miterlimit="10"/>
<path d="M491.943 96.9393H398.771C393.637 96.9393 389.466 92.7778 389.466 87.6337C389.466 82.4993 393.627 78.3281 398.771 78.3281H491.943C497.077 78.3281 501.248 82.4896 501.248 87.6337C501.248 92.7778 497.087 96.9393 491.943 96.9393Z" fill="white" stroke="#FF6726" stroke-width="0.8956" stroke-miterlimit="10"/>
<path d="M490.584 86.9983C490.584 89.7341 488.369 91.9497 485.633 91.9497C482.897 91.9497 480.682 89.7341 480.682 86.9983C480.682 84.2625 482.897 82.0469 485.633 82.0469C488.369 82.0469 490.584 84.2625 490.584 86.9983Z" stroke="#FF6726" stroke-width="1.6716" stroke-miterlimit="10"/>
<path d="M489.13 90.4961L491.866 93.2223" stroke="#FF6726" stroke-width="1.6716" stroke-miterlimit="10" stroke-linecap="round"/>
<path d="M350.818 349.973H327.38C323.277 349.973 319.953 346.65 319.953 342.546V319.119C319.953 315.015 323.277 311.691 327.38 311.691H350.818C354.922 311.691 358.245 315.015 358.245 319.119V342.556C358.245 346.65 354.912 349.973 350.818 349.973Z" fill="#193091"/>
<path d="M343.834 349.973H320.396C316.293 349.973 312.969 346.65 312.969 342.546V319.119C312.969 315.015 316.293 311.691 320.396 311.691H343.834C347.937 311.691 351.261 315.015 351.261 319.119V342.556C351.261 346.65 347.937 349.973 343.834 349.973Z" fill="#FF6726"/>
<path d="M327.592 323.608L338.584 329.956C339.258 330.351 339.258 331.324 338.584 331.719L327.592 338.067C326.918 338.462 326.07 337.971 326.07 337.191V324.504C326.07 323.704 326.918 323.213 327.592 323.608Z" fill="white"/>
<path d="M593.264 349.973H562.631C557.275 349.973 552.92 345.629 552.92 340.263V309.62C552.92 304.264 557.265 299.91 562.631 299.91H593.274C598.63 299.91 602.984 304.255 602.984 309.62V340.263C602.974 345.629 598.63 349.973 593.264 349.973Z" fill="#193091"/>
<path d="M584.141 349.973H553.498C548.142 349.973 543.788 345.629 543.788 340.263V309.62C543.788 304.264 548.133 299.91 553.498 299.91H584.141C589.497 299.91 593.852 304.255 593.852 309.62V340.263C593.852 345.629 589.507 349.973 584.141 349.973Z" fill="#FF6726"/>
<path d="M574.836 312.202C574.836 315.526 572.148 318.214 568.825 318.214C565.501 318.214 562.814 315.516 562.814 312.202C562.814 308.879 565.501 306.191 568.825 306.191C572.148 306.191 574.836 308.889 574.836 312.202Z" fill="white"/>
<path d="M581.358 332.568V341.45C581.358 342.249 580.712 342.904 579.903 342.904H557.737C556.938 342.904 556.282 342.249 556.282 341.45V332.568C556.282 325.642 561.899 320.035 568.815 320.035C575.751 320.035 581.358 325.642 581.358 332.568Z" fill="white"/>
<path d="M456.888 107.662H437.207C436.389 107.662 435.724 106.998 435.724 106.179C435.724 105.36 436.389 104.695 437.207 104.695H456.888C457.707 104.695 458.371 105.36 458.371 106.179C458.371 106.998 457.707 107.662 456.888 107.662Z" fill="#F0F4FF"/>
<path d="M476.578 107.662H462.34C461.521 107.662 460.857 106.998 460.857 106.179C460.857 105.36 461.521 104.695 462.34 104.695H476.578C477.397 104.695 478.061 105.36 478.061 106.179C478.052 106.998 477.397 107.662 476.578 107.662Z" fill="#F0F4FF"/>
<path d="M445.569 114.166H437.207C436.389 114.166 435.724 113.502 435.724 112.683C435.724 111.864 436.389 111.199 437.207 111.199H445.569C446.388 111.199 447.052 111.864 447.052 112.683C447.052 113.502 446.388 114.166 445.569 114.166Z" fill="#F0F4FF"/>
<path d="M476.578 114.166H450.54C449.721 114.166 449.056 113.502 449.056 112.683C449.056 111.864 449.721 111.199 450.54 111.199H476.578C477.397 111.199 478.061 111.864 478.061 112.683C478.052 113.502 477.397 114.166 476.578 114.166Z" fill="#F0F4FF"/>
<path d="M463.149 120.666H437.207C436.389 120.666 435.724 120.002 435.724 119.183C435.724 118.364 436.389 117.699 437.207 117.699H463.149C463.968 117.699 464.633 118.364 464.633 119.183C464.633 120.002 463.968 120.666 463.149 120.666Z" fill="#F0F4FF"/>
<path d="M476.578 120.666H468.216C467.398 120.666 466.733 120.002 466.733 119.183C466.733 118.364 467.398 117.699 468.216 117.699H476.578C477.397 117.699 478.061 118.364 478.061 119.183C478.052 120.002 477.397 120.666 476.578 120.666Z" fill="#F0F4FF"/>
<path d="M207.698 258.699H138.995C136.962 258.699 135.315 257.052 135.315 255.019V220.34C135.315 218.307 136.962 216.66 138.995 216.66H207.698C209.731 216.66 211.378 218.307 211.378 220.34V255.019C211.378 257.052 209.731 258.699 207.698 258.699Z" fill="#193091"/>
<path d="M138.542 222.336H208.142" stroke="white" stroke-width="0.8956" stroke-miterlimit="10" stroke-linecap="round"/>
<path d="M206.311 220.293C206.78 220.293 207.159 219.914 207.159 219.445C207.159 218.977 206.78 218.598 206.311 218.598C205.843 218.598 205.464 218.977 205.464 219.445C205.464 219.914 205.843 220.293 206.311 220.293Z" fill="white"/>
<path d="M201.909 220.293C202.377 220.293 202.757 219.914 202.757 219.445C202.757 218.977 202.377 218.598 201.909 218.598C201.441 218.598 201.061 218.977 201.061 219.445C201.061 219.914 201.441 220.293 201.909 220.293Z" fill="white"/>
<path d="M197.516 220.293C197.984 220.293 198.364 219.914 198.364 219.445C198.364 218.977 197.984 218.598 197.516 218.598C197.048 218.598 196.668 218.977 196.668 219.445C196.668 219.914 197.048 220.293 197.516 220.293Z" fill="white"/>
<path d="M151.518 227.987H139.708C139.062 227.987 138.542 227.467 138.542 226.822C138.542 226.176 139.062 225.656 139.708 225.656H151.518C152.163 225.656 152.684 226.176 152.684 226.822C152.684 227.467 152.163 227.987 151.518 227.987Z" fill="#6589D1"/>
<path d="M151.518 233.374H139.708C139.062 233.374 138.542 232.854 138.542 232.209C138.542 231.563 139.062 231.043 139.708 231.043H151.518C152.163 231.043 152.684 231.563 152.684 232.209C152.684 232.854 152.163 233.374 151.518 233.374Z" fill="#6589D1"/>
<path d="M151.518 238.749H139.708C139.062 238.749 138.542 238.229 138.542 237.584C138.542 236.938 139.062 236.418 139.708 236.418H151.518C152.163 236.418 152.684 236.938 152.684 237.584C152.684 238.229 152.163 238.749 151.518 238.749Z" fill="#6589D1"/>
<path d="M151.518 244.124H139.708C139.062 244.124 138.542 243.604 138.542 242.959C138.542 242.313 139.062 241.793 139.708 241.793H151.518C152.163 241.793 152.684 242.313 152.684 242.959C152.684 243.604 152.163 244.124 151.518 244.124Z" fill="#6589D1"/>
<path d="M151.518 249.507H139.708C139.062 249.507 138.542 248.987 138.542 248.341C138.542 247.696 139.062 247.176 139.708 247.176H151.518C152.163 247.176 152.684 247.696 152.684 248.341C152.684 248.987 152.163 249.507 151.518 249.507Z" fill="#6589D1"/>
<path d="M151.518 254.882H139.708C139.062 254.882 138.542 254.362 138.542 253.716C138.542 253.071 139.062 252.551 139.708 252.551H151.518C152.163 252.551 152.684 253.071 152.684 253.716C152.684 254.362 152.163 254.882 151.518 254.882Z" fill="#6589D1"/>
<path d="M206.986 227.987H156.094C155.448 227.987 154.928 227.467 154.928 226.822C154.928 226.176 155.448 225.656 156.094 225.656H206.986C207.631 225.656 208.151 226.176 208.151 226.822C208.142 227.467 207.621 227.987 206.986 227.987Z" fill="#3B5FB7"/>
<path d="M206.986 233.374H156.094C155.448 233.374 154.928 232.854 154.928 232.209C154.928 231.563 155.448 231.043 156.094 231.043H206.986C207.631 231.043 208.151 231.563 208.151 232.209C208.142 232.854 207.621 233.374 206.986 233.374Z" fill="#3B5FB7"/>
<path d="M206.986 238.749H156.094C155.448 238.749 154.928 238.229 154.928 237.584C154.928 236.938 155.448 236.418 156.094 236.418H206.986C207.631 236.418 208.151 236.938 208.151 237.584C208.142 238.229 207.621 238.749 206.986 238.749Z" fill="#3B5FB7"/>
<path d="M206.986 244.124H156.094C155.448 244.124 154.928 243.604 154.928 242.959C154.928 242.313 155.448 241.793 156.094 241.793H206.986C207.631 241.793 208.151 242.313 208.151 242.959C208.142 243.604 207.621 244.124 206.986 244.124Z" fill="#3B5FB7"/>
<path d="M206.986 249.507H156.094C155.448 249.507 154.928 248.987 154.928 248.341C154.928 247.696 155.448 247.176 156.094 247.176H206.986C207.631 247.176 208.151 247.696 208.151 248.341C208.142 248.987 207.621 249.507 206.986 249.507Z" fill="#3B5FB7"/>
<path d="M206.986 254.882H156.094C155.448 254.882 154.928 254.362 154.928 253.716C154.928 253.071 155.448 252.551 156.094 252.551H206.986C207.631 252.551 208.151 253.071 208.151 253.716C208.142 254.362 207.621 254.882 206.986 254.882Z" fill="#3B5FB7"/>
<path d="M564.319 39.0479C568.349 22.2275 557.98 5.32499 541.16 1.29502C524.34 -2.73496 507.437 7.63368 503.407 24.4541C499.377 41.2745 509.746 58.1771 526.566 62.2071C543.387 66.2371 560.289 55.8683 564.319 39.0479Z" stroke="#DEE3FC" stroke-width="0.7896" stroke-miterlimit="10"/>
<path d="M544.88 56.6751C558.63 50.592 564.844 34.5145 558.761 20.765C552.678 7.01558 536.601 0.800779 522.851 6.88392C509.102 12.9671 502.887 29.0446 508.97 42.794C515.053 56.5435 531.131 62.7583 544.88 56.6751Z" fill="#3945BA"/>
<path d="M536.332 31.7609C536.332 33.1288 535.224 34.2366 533.857 34.2366C532.489 34.2366 531.381 33.1288 531.381 31.7609C531.381 30.393 532.489 29.2852 533.857 29.2852C535.224 29.2852 536.332 30.393 536.332 31.7609Z" fill="white"/>
<path d="M533.587 31.268C533.211 31.4799 532.739 31.345 532.537 30.9693L524.532 16.5293C524.32 16.1536 524.454 15.6816 524.83 15.4793C525.206 15.2674 525.678 15.4022 525.88 15.7779L533.885 30.218C534.097 30.5937 533.962 31.0657 533.587 31.268Z" fill="white"/>
<path d="M534.252 32.1576C534.55 31.8589 535.041 31.8589 535.35 32.1576L542.276 39.0838C542.575 39.3824 542.575 39.8737 542.276 40.1819C541.977 40.4806 541.486 40.4806 541.178 40.1819L534.252 33.2557C533.953 32.9475 533.953 32.4562 534.252 32.1576Z" fill="white"/>
<path d="M534.03 9.9706V6.83984" stroke="white" stroke-width="2" stroke-miterlimit="10" stroke-linecap="round"/>
<path d="M555.646 31.9258H558.777" stroke="white" stroke-width="2" stroke-miterlimit="10" stroke-linecap="round"/>
<path d="M533.693 53.5508V56.6815" stroke="white" stroke-width="2" stroke-miterlimit="10" stroke-linecap="round"/>
<path d="M512.066 31.5977H508.936" stroke="white" stroke-width="2" stroke-miterlimit="10" stroke-linecap="round"/>
<g opacity="0.5">
<path opacity="0.5" d="M523.106 12.8046L521.545 10.0977" stroke="#DEE3FC" stroke-miterlimit="10" stroke-linecap="round"/>
<path opacity="0.5" d="M552.814 21.0137L555.521 19.4531" stroke="#DEE3FC" stroke-miterlimit="10" stroke-linecap="round"/>
<path opacity="0.5" d="M544.607 50.7188L546.177 53.4257" stroke="#DEE3FC" stroke-miterlimit="10" stroke-linecap="round"/>
<path opacity="0.5" d="M514.908 42.5117L512.192 44.0819" stroke="#DEE3FC" stroke-miterlimit="10" stroke-linecap="round"/>
</g>
<g opacity="0.5">
<path opacity="0.5" d="M515.072 20.7246L512.355 19.1641" stroke="#DEE3FC" stroke-miterlimit="10" stroke-linecap="round"/>
<path opacity="0.5" d="M544.896 12.9783L546.466 10.2617" stroke="#DEE3FC" stroke-miterlimit="10" stroke-linecap="round"/>
<path opacity="0.5" d="M552.641 42.8008L555.358 44.3614" stroke="#DEE3FC" stroke-miterlimit="10" stroke-linecap="round"/>
<path opacity="0.5" d="M522.817 50.5469L521.257 53.2634" stroke="#DEE3FC" stroke-miterlimit="10" stroke-linecap="round"/>
</g>
<path d="M161.816 189.342H127.435C122.349 189.342 118.216 185.219 118.216 180.123V145.742C118.216 140.656 122.339 136.523 127.435 136.523H161.816C166.902 136.523 171.035 140.646 171.035 145.742V180.123C171.035 185.219 166.912 189.342 161.816 189.342Z" fill="#00B47F"/>
<path d="M159.562 184.766H121.511C117.436 184.766 114.122 181.461 114.122 177.377V139.326C114.122 135.251 117.426 131.938 121.511 131.938H159.562C163.637 131.938 166.95 135.242 166.95 139.326V177.377C166.941 181.461 163.637 184.766 159.562 184.766Z" fill="#00B47F" stroke="#DEE3FC" stroke-miterlimit="10"/>
<path d="M149.678 152.313H149.399V149.288C149.399 144.318 145.363 140.281 140.392 140.281C135.421 140.281 131.385 144.318 131.385 149.288V152.313H131.327C129.93 152.313 128.803 153.44 128.803 154.837V166.243C128.803 167.639 129.93 168.766 131.327 168.766H149.678C151.075 168.766 152.202 167.639 152.202 166.243V154.837C152.212 153.44 151.075 152.313 149.678 152.313ZM133.678 149.288C133.678 145.579 136.693 142.564 140.401 142.564C144.11 142.564 147.125 145.579 147.125 149.288V152.313H133.678V149.288Z" fill="#DEE3FC"/>
<path d="M143.475 158.171C143.475 156.35 141.818 154.915 139.93 155.291C138.822 155.512 137.897 156.427 137.666 157.535C137.386 158.874 138.022 160.098 139.053 160.704C139.265 160.83 139.38 161.061 139.323 161.292L138.812 163.18C138.504 164.298 139.352 165.405 140.517 165.405C141.683 165.405 142.521 164.298 142.222 163.18L141.721 161.311C141.654 161.07 141.779 160.839 141.991 160.714C142.868 160.213 143.475 159.269 143.475 158.171Z" fill="#00B47F"/>
<path d="M151.123 172.763H129.892C129.295 172.763 128.803 172.281 128.803 171.674C128.803 171.077 129.285 170.586 129.892 170.586H151.123C151.72 170.586 152.212 171.068 152.212 171.674C152.212 172.281 151.72 172.763 151.123 172.763Z" fill="#DEE3FC"/>
<path d="M151.123 176.443H129.892C129.295 176.443 128.803 175.961 128.803 175.354C128.803 174.757 129.285 174.266 129.892 174.266H151.123C151.72 174.266 152.212 174.747 152.212 175.354C152.212 175.951 151.72 176.443 151.123 176.443Z" fill="#DEE3FC"/>
<path d="M577.889 251.438H557.65C554.654 251.438 552.227 249.01 552.227 246.014V225.775C552.227 222.779 554.654 220.352 557.65 220.352H577.889C580.885 220.352 583.313 222.779 583.313 225.775V246.014C583.313 249.01 580.885 251.438 577.889 251.438Z" fill="#00B47F"/>
<path d="M576.56 248.738H554.153C551.755 248.738 549.809 246.793 549.809 244.394V221.997C549.809 219.598 551.755 217.652 554.153 217.652H576.55C578.949 217.652 580.895 219.598 580.895 221.997V244.394C580.904 246.793 578.959 248.738 576.56 248.738Z" fill="#00B47F" stroke="#DEE3FC" stroke-miterlimit="10"/>
<path d="M559.076 242.477C558.989 242.477 558.903 242.467 558.816 242.438C558.305 242.294 558.007 241.764 558.151 241.253L562.852 224.607C562.997 224.097 563.536 223.798 564.037 223.943C564.548 224.087 564.846 224.617 564.702 225.128L560.001 241.774C559.885 242.197 559.49 242.477 559.076 242.477Z" fill="white"/>
<path d="M566.936 242.477C566.85 242.477 566.763 242.467 566.676 242.438C566.166 242.294 565.867 241.764 566.012 241.253L570.712 224.607C570.857 224.097 571.396 223.798 571.897 223.943C572.408 224.087 572.707 224.617 572.562 225.128L567.861 241.774C567.746 242.197 567.36 242.477 566.936 242.477Z" fill="white"/>
<path d="M573.68 230.376H557.034C556.504 230.376 556.07 229.942 556.07 229.413C556.07 228.883 556.504 228.449 557.034 228.449H573.68C574.209 228.449 574.643 228.883 574.643 229.413C574.643 229.942 574.209 230.376 573.68 230.376Z" fill="white"/>
<path d="M573.68 237.989H557.034C556.504 237.989 556.07 237.556 556.07 237.026C556.07 236.496 556.504 236.062 557.034 236.062H573.68C574.209 236.062 574.643 236.496 574.643 237.026C574.643 237.556 574.209 237.989 573.68 237.989Z" fill="white"/>
<path d="M202.487 152.655H190.445C189.713 152.655 189.126 152.067 189.126 151.335C189.126 150.603 189.713 150.016 190.445 150.016H202.487C203.219 150.016 203.807 150.603 203.807 151.335C203.807 152.058 203.219 152.655 202.487 152.655Z" fill="#F0F4FF"/>
<path d="M214.615 158.511H190.445C189.713 158.511 189.126 157.923 189.126 157.191C189.126 156.459 189.713 155.871 190.445 155.871H214.615C215.347 155.871 215.935 156.459 215.935 157.191C215.935 157.923 215.347 158.511 214.615 158.511Z" fill="#F0F4FF"/>
<path d="M193.297 164.37H190.445C189.713 164.37 189.126 163.782 189.126 163.05C189.126 162.318 189.713 161.73 190.445 161.73H193.297C194.029 161.73 194.617 162.318 194.617 163.05C194.626 163.782 194.029 164.37 193.297 164.37Z" fill="#F0F4FF"/>
<path d="M214.615 164.37H197.786C197.054 164.37 196.466 163.782 196.466 163.05C196.466 162.318 197.054 161.73 197.786 161.73H214.615C215.347 161.73 215.935 162.318 215.935 163.05C215.935 163.782 215.347 164.37 214.615 164.37Z" fill="#F0F4FF"/>
<path d="M214.615 152.655H207.313C206.581 152.655 205.993 152.067 205.993 151.335C205.993 150.603 206.581 150.016 207.313 150.016H214.615C215.347 150.016 215.935 150.603 215.935 151.335C215.935 152.058 215.347 152.655 214.615 152.655Z" fill="#F0F4FF"/>
<path d="M146.721 332.721C145.151 332.721 143.686 333.154 142.424 333.896C141.923 329.397 138.109 325.91 133.475 325.91C128.505 325.91 124.468 329.937 124.468 334.917C124.468 335.254 124.488 335.582 124.526 335.9C124.112 335.823 123.688 335.784 123.255 335.784C119.459 335.784 116.376 338.867 116.376 342.662C116.376 346.458 119.459 349.54 123.255 349.54H146.711C151.354 349.54 155.121 345.774 155.121 341.13C155.13 336.487 151.364 332.721 146.721 332.721Z" fill="white"/>
<path d="M87.0532 296.624C86.822 295.362 86.8605 294.081 87.1688 292.848C88.2284 288.705 89.4422 280.903 86.7449 272.483C82.2462 258.429 64.0107 245.992 64.0107 245.992C64.0107 245.992 68.9622 266.723 73.0273 275.556C76.004 282.02 81.2155 289.38 84.1151 293.252C84.9146 294.331 85.4637 295.564 85.7045 296.884C88.6523 313.202 88.2284 325.831 88.2188 326.024L89.5867 326.082C89.5963 325.87 90.0298 313.106 87.0532 296.624Z" fill="#DEE3FC"/>
<path d="M101.59 283.407C105.212 271.953 106.897 258.457 106.897 258.457C106.897 258.457 90.55 271.953 89.2014 282.386C88.3826 288.782 89.4037 293.907 90.3188 296.932C90.7041 298.213 90.8486 299.552 90.7041 300.881C89.0472 316.246 90.3477 328.018 90.367 328.201L91.6 328.056C91.5808 327.883 90.3766 316.93 91.7927 302.413C91.9853 300.428 92.7849 298.55 94.0468 296.989C96.3877 294.109 99.74 289.283 101.59 283.407Z" fill="#B4C1EF"/>
<path d="M118.216 257.926C118.216 257.926 100.597 264.467 95.9927 278.849C93.1895 287.605 94.5092 295.697 95.6074 299.888C95.9157 301.063 95.8964 302.296 95.6074 303.471C91.4844 320.03 91.417 337.168 91.417 337.389H92.8234C92.8234 337.168 92.8909 320.435 96.8693 304.203C97.2643 302.595 97.9675 301.073 98.9597 299.743C101.965 295.697 107.08 288.415 110.038 281.989C114.199 272.953 118.216 257.926 118.216 257.926Z" fill="#DEE3FC"/>
<path d="M87.1303 318.635C86.6968 312.614 85.0495 307.191 83.0651 302.644C82.6701 301.729 82.5257 300.736 82.6509 299.754C82.9013 297.856 82.9977 294.899 82.2367 291.152C80.811 284.09 71.4379 268.841 57.8745 267.945C57.8745 267.945 62.5562 275.469 64.9645 281.769C68.0085 289.735 72.3627 298.068 79.5779 301.266C80.8495 301.825 81.8417 302.885 82.3715 304.166C84.1055 308.385 85.5023 313.308 85.8972 318.731L87.1303 318.635Z" fill="#B4C1EF"/>
<path d="M77.9498 349.529H100.337L106.146 314.031C106.406 312.461 105.192 311.035 103.603 311.035H74.6938C73.1044 311.035 71.8906 312.461 72.1507 314.031L77.9498 349.529Z" fill="#DEE3FC"/>
<path d="M32 349.527H658.365" stroke="white" stroke-width="1.1144" stroke-miterlimit="10" stroke-linecap="round"/>
</g>
<defs>
<clipPath id="clip0_1872_2776">
<rect width="690" height="350" fill="white"/>
</clipPath>
</defs>
</svg>
