<svg width="690" height="350" viewBox="0 0 690 350" fill="none" xmlns="http://www.w3.org/2000/svg">
<g clip-path="url(#clip0_2385_3406)">
<path d="M621.338 72.25H505.07V150.128H621.338V72.25Z" fill="#F5F5F5"/>
<path d="M621.338 72.25H505.07V80.029H621.338V72.25Z" fill="#EBEBEB"/>
<path d="M510.113 76.1428C510.113 76.6212 509.696 77.0199 509.174 77.0199C508.651 77.0199 508.234 76.63 508.234 76.1428C508.234 75.6643 508.66 75.2656 509.174 75.2656C509.687 75.2745 510.113 75.6643 510.113 76.1428Z" fill="white"/>
<path d="M513.144 76.1428C513.144 76.6212 512.728 77.0199 512.205 77.0199C511.682 77.0199 511.266 76.63 511.266 76.1428C511.266 75.6643 511.691 75.2656 512.205 75.2656C512.728 75.2745 513.144 75.6643 513.144 76.1428Z" fill="white"/>
<path d="M516.175 76.1428C516.175 76.6212 515.759 77.0199 515.236 77.0199C514.713 77.0199 514.297 76.63 514.297 76.1428C514.297 75.6643 514.722 75.2656 515.236 75.2656C515.759 75.2745 516.175 75.6643 516.175 76.1428Z" fill="white"/>
<path d="M481.807 8.28125H263.562V154.46H481.807V8.28125Z" fill="#E0E0E0"/>
<path d="M481.807 8.28125H263.562V22.8823H481.807V8.28125Z" fill="#E0E0E0"/>
<path d="M273.018 15.5844C273.018 16.4881 272.23 17.2235 271.255 17.2235C270.281 17.2235 269.492 16.4881 269.492 15.5844C269.492 14.6807 270.281 13.9453 271.255 13.9453C272.221 13.9453 273.018 14.6807 273.018 15.5844Z" fill="white"/>
<path d="M278.706 15.5844C278.706 16.4881 277.917 17.2235 276.943 17.2235C275.968 17.2235 275.18 16.4881 275.18 15.5844C275.18 14.6807 275.968 13.9453 276.943 13.9453C277.917 13.9453 278.706 14.6807 278.706 15.5844Z" fill="white"/>
<path d="M284.401 15.5844C284.401 16.4881 283.613 17.2235 282.638 17.2235C281.664 17.2235 280.875 16.4881 280.875 15.5844C280.875 14.6807 281.664 13.9453 282.638 13.9453C283.604 13.9453 284.401 14.6807 284.401 15.5844Z" fill="white"/>
<path d="M611.278 137.727H447.344V247.527H611.278V137.727Z" fill="#E0E0E0"/>
<path d="M611.278 137.727H447.344V148.695H611.278V137.727Z" fill="#E0E0E0"/>
<path d="M454.439 143.208C454.439 143.89 453.846 144.44 453.11 144.44C452.375 144.44 451.781 143.89 451.781 143.208C451.781 142.526 452.375 141.977 453.11 141.977C453.846 141.977 454.439 142.526 454.439 143.208Z" fill="white"/>
<path d="M458.72 143.208C458.72 143.89 458.127 144.44 457.391 144.44C456.656 144.44 456.062 143.89 456.062 143.208C456.062 142.526 456.656 141.977 457.391 141.977C458.127 141.977 458.72 142.526 458.72 143.208Z" fill="white"/>
<path d="M463.002 143.208C463.002 143.89 462.408 144.44 461.673 144.44C460.937 144.44 460.344 143.89 460.344 143.208C460.344 142.526 460.937 141.977 461.673 141.977C462.408 141.977 463.002 142.526 463.002 143.208Z" fill="white"/>
<path d="M355.909 220.188H239.641V298.066H355.909V220.188Z" fill="#F5F5F5"/>
<path d="M355.909 220.188H239.641V227.966H355.909V220.188Z" fill="#EBEBEB"/>
<path d="M244.683 224.08C244.683 224.559 244.267 224.957 243.744 224.957C243.221 224.957 242.805 224.568 242.805 224.08C242.805 223.602 243.221 223.203 243.744 223.203C244.258 223.212 244.683 223.602 244.683 224.08Z" fill="white"/>
<path d="M247.714 224.08C247.714 224.559 247.298 224.957 246.775 224.957C246.252 224.957 245.836 224.568 245.836 224.08C245.836 223.602 246.252 223.203 246.775 223.203C247.289 223.212 247.714 223.602 247.714 224.08Z" fill="white"/>
<path d="M250.745 224.08C250.745 224.559 250.329 224.957 249.806 224.957C249.284 224.957 248.867 224.568 248.867 224.08C248.867 223.602 249.292 223.203 249.806 223.203C250.329 223.212 250.745 223.602 250.745 224.08Z" fill="white"/>
<path d="M185.268 33.1562H69V111.034H185.268V33.1562Z" fill="#F5F5F5"/>
<path d="M185.268 33.1562H69V40.9352H185.268V33.1562Z" fill="#EBEBEB"/>
<path d="M74.0345 37.049C74.0345 37.5274 73.6181 37.9261 73.0954 37.9261C72.5727 37.9261 72.1562 37.5363 72.1562 37.049C72.1562 36.5706 72.5815 36.1719 73.0954 36.1719C73.6181 36.1719 74.0345 36.5617 74.0345 37.049Z" fill="white"/>
<path d="M77.0736 37.049C77.0736 37.5274 76.6572 37.9261 76.1345 37.9261C75.6117 37.9261 75.1953 37.5363 75.1953 37.049C75.1953 36.5706 75.6117 36.1719 76.1345 36.1719C76.6483 36.1719 77.0736 36.5617 77.0736 37.049Z" fill="white"/>
<path d="M80.1049 37.049C80.1049 37.5274 79.6884 37.9261 79.1657 37.9261C78.643 37.9261 78.2266 37.5363 78.2266 37.049C78.2266 36.5706 78.643 36.1719 79.1657 36.1719C79.6884 36.1719 80.1049 36.5617 80.1049 37.049Z" fill="white"/>
<path d="M242.063 0H129.047V75.6898H242.063V0Z" fill="#E0E0E0"/>
<path d="M242.063 0H129.047V7.55746H242.063V0Z" fill="#E0E0E0"/>
<path d="M133.95 3.78023C133.95 4.24981 133.543 4.63078 133.038 4.63078C132.533 4.63078 132.125 4.24981 132.125 3.78023C132.125 3.31066 132.533 2.92969 133.038 2.92969C133.543 2.92969 133.95 3.31066 133.95 3.78023Z" fill="white"/>
<path d="M136.895 3.78023C136.895 4.24981 136.488 4.63078 135.983 4.63078C135.478 4.63078 135.07 4.24981 135.07 3.78023C135.07 3.31066 135.478 2.92969 135.983 2.92969C136.488 2.92969 136.895 3.31066 136.895 3.78023Z" fill="white"/>
<path d="M139.841 3.78023C139.841 4.24981 139.433 4.63078 138.928 4.63078C138.423 4.63078 138.016 4.24981 138.016 3.78023C138.016 3.31066 138.423 2.92969 138.928 2.92969C139.433 2.92969 139.841 3.31066 139.841 3.78023Z" fill="white"/>
<path d="M465.237 23.25H246.992V169.429H465.237V23.25Z" fill="#F5F5F5"/>
<path d="M465.237 23.25H246.992V37.8511H465.237V23.25Z" fill="#EBEBEB"/>
<path d="M256.448 30.5531C256.448 31.4568 255.66 32.1922 254.685 32.1922C253.71 32.1922 252.922 31.4568 252.922 30.5531C252.922 29.6494 253.71 28.9141 254.685 28.9141C255.66 28.9141 256.448 29.6406 256.448 30.5531Z" fill="white"/>
<path d="M262.143 30.5531C262.143 31.4568 261.355 32.1922 260.38 32.1922C259.406 32.1922 258.617 31.4568 258.617 30.5531C258.617 29.6494 259.406 28.9141 260.38 28.9141C261.355 28.9141 262.143 29.6406 262.143 30.5531Z" fill="white"/>
<path d="M267.839 30.5531C267.839 31.4568 267.05 32.1922 266.076 32.1922C265.101 32.1922 264.312 31.4568 264.312 30.5531C264.312 29.6494 265.101 28.9141 266.076 28.9141C267.041 28.9141 267.839 29.6406 267.839 30.5531Z" fill="white"/>
<path d="M403.042 55.5625H184.797V201.741H403.042V55.5625Z" fill="#F5F5F5"/>
<path d="M403.042 55.5625H184.797V70.1636H403.042V55.5625Z" fill="#EBEBEB"/>
<path d="M194.245 62.8656C194.245 63.7693 193.456 64.5047 192.482 64.5047C191.507 64.5047 190.719 63.7693 190.719 62.8656C190.719 61.9619 191.507 61.2266 192.482 61.2266C193.456 61.2266 194.245 61.9619 194.245 62.8656Z" fill="white"/>
<path d="M199.94 62.8656C199.94 63.7693 199.152 64.5047 198.177 64.5047C197.203 64.5047 196.414 63.7693 196.414 62.8656C196.414 61.9619 197.203 61.2266 198.177 61.2266C199.152 61.2266 199.94 61.9619 199.94 62.8656Z" fill="white"/>
<path d="M205.636 62.8656C205.636 63.7693 204.847 64.5047 203.872 64.5047C202.898 64.5047 202.109 63.7693 202.109 62.8656C202.109 61.9619 202.898 61.2266 203.872 61.2266C204.838 61.2266 205.636 61.9619 205.636 62.8656Z" fill="white"/>
<path d="M560.128 348.691C560.128 348.815 454.589 348.922 324.429 348.922C194.224 348.922 88.7031 348.815 88.7031 348.691C88.7031 348.567 194.224 348.461 324.429 348.461C454.589 348.461 560.128 348.558 560.128 348.691Z" fill="#263238"/>
<path d="M469.238 115.949C469.238 115.949 462.965 109.623 462.061 108.073C457.392 100.063 436.846 65.625 436.846 65.625L425.461 73.3331C425.461 73.3331 448.922 115.55 453.742 121.354C458.561 127.157 465.313 132.933 465.313 132.933L469.238 115.949Z" fill="#FFBE9D"/>
<path d="M206.914 84.3253C206.941 84.3341 214.737 70.7608 218.653 71.5316C222.569 72.3024 226.025 75.1376 226.025 75.1376L216.057 86.8503L206.914 84.3253Z" fill="#B78876"/>
<path d="M161.359 117.299L189.569 106.587L207.041 80.0078L217.797 85.5807L197.463 121.818L164.035 134.487L161.359 117.299Z" fill="#00B47F"/>
<path d="M440.107 36.8594H218.734V185.129H440.107V36.8594Z" fill="#031260"/>
<path d="M440.107 36.8594H218.734V51.6731H440.107V36.8594Z" fill="#3A8CFF"/>
<path d="M228.322 44.2672C228.322 45.1886 227.524 45.9329 226.532 45.9329C225.54 45.9329 224.742 45.1886 224.742 44.2672C224.742 43.3458 225.54 42.6016 226.532 42.6016C227.515 42.6016 228.322 43.3458 228.322 44.2672Z" fill="#3A8CFF"/>
<path d="M234.095 44.2672C234.095 45.1886 233.298 45.9329 232.305 45.9329C231.313 45.9329 230.516 45.1886 230.516 44.2672C230.516 43.3458 231.313 42.6016 232.305 42.6016C233.289 42.6016 234.095 43.3458 234.095 44.2672Z" fill="#3A8CFF"/>
<path d="M239.868 44.2672C239.868 45.1886 239.071 45.9329 238.079 45.9329C237.095 45.9329 236.289 45.1886 236.289 44.2672C236.289 43.3458 237.086 42.6016 238.079 42.6016C239.071 42.6016 239.868 43.3458 239.868 44.2672Z" fill="#3A8CFF"/>
<path d="M440.111 185.133C440.111 183.627 440.04 127.189 439.925 36.8632L440.111 37.0492C379.111 37.0581 302.154 37.0758 218.756 37.0935H218.738L218.969 36.8632C218.96 89.6857 218.951 139.921 218.951 185.133L218.738 184.92C349.129 185.044 438.224 185.133 440.111 185.133C438.224 185.133 349.129 185.222 218.738 185.346H218.526V185.133C218.517 139.921 218.517 89.6857 218.508 36.8632V36.6328H218.738H218.756C302.154 36.6505 379.111 36.6683 440.111 36.6771H440.297V36.8632C440.182 127.181 440.111 183.627 440.111 185.133Z" fill="#263238"/>
<path d="M282.577 111.343H280.141V110.9H282.134V108.906H282.577V111.343Z" fill="#263238"/>
<path d="M275.581 111.349H271.019V110.906H275.581V111.349ZM266.456 111.349H261.893V110.906H266.456V111.349ZM257.321 111.349H252.758V110.906H257.321V111.349ZM248.196 111.349H243.633V110.906H248.196V111.349Z" fill="#263238"/>
<path d="M239.069 111.343H236.633V108.906H237.076V110.9H239.069V111.343Z" fill="#263238"/>
<path d="M237.076 104.346H236.633V99.7832H237.076V104.346ZM237.076 95.2204H236.633V90.6576H237.076V95.2204ZM237.076 86.0947H236.633V81.5319H237.076V86.0947ZM237.076 76.9691H236.633V72.4062H237.076V76.9691Z" fill="#263238"/>
<path d="M237.076 67.8349H236.633V65.3984H239.069V65.8414H237.076V67.8349Z" fill="#263238"/>
<path d="M275.581 65.8414H271.019V65.3984H275.581V65.8414ZM266.456 65.8414H261.893V65.3984H266.456V65.8414ZM257.321 65.8414H252.758V65.3984H257.321V65.8414ZM248.196 65.8414H243.633V65.3984H248.196V65.8414Z" fill="#263238"/>
<path d="M282.577 67.8349H282.134V65.8414H280.141V65.3984H282.577V67.8349Z" fill="#263238"/>
<path d="M282.584 104.346H282.141V99.7832H282.584V104.346ZM282.584 95.2204H282.141V90.6576H282.584V95.2204ZM282.584 86.0947H282.141V81.5319H282.584V86.0947ZM282.584 76.9691H282.141V72.4062H282.584V76.9691Z" fill="#263238"/>
<path d="M284.645 119.609H234.312V122.976H284.645V119.609Z" fill="#3A8CFF"/>
<path d="M349.661 72.8594H299.328V76.2261H349.661V72.8594Z" fill="#3A8CFF"/>
<path d="M424.527 85.4022C424.527 85.5263 396.494 85.6326 361.932 85.6326C327.352 85.6326 299.328 85.5263 299.328 85.4022C299.328 85.2782 327.352 85.1719 361.932 85.1719C396.503 85.1719 424.527 85.2693 424.527 85.4022Z" fill="#3A8CFF"/>
<path d="M424.527 92.7621C424.527 92.8862 396.494 92.9925 361.932 92.9925C327.352 92.9925 299.328 92.8862 299.328 92.7621C299.328 92.6381 327.352 92.5318 361.932 92.5318C396.503 92.5229 424.527 92.6292 424.527 92.7621Z" fill="#3A8CFF"/>
<path d="M424.527 100.105C424.527 100.229 396.494 100.336 361.932 100.336C327.352 100.336 299.328 100.229 299.328 100.105C299.328 99.9813 327.352 99.875 361.932 99.875C396.503 99.875 424.527 99.9813 424.527 100.105Z" fill="#3A8CFF"/>
<path d="M424.527 107.457C424.527 107.581 396.494 107.687 361.932 107.687C327.352 107.687 299.328 107.581 299.328 107.457C299.328 107.333 327.352 107.227 361.932 107.227C396.503 107.227 424.527 107.333 424.527 107.457Z" fill="#3A8CFF"/>
<path d="M424.527 114.808C424.527 114.933 396.494 115.039 361.932 115.039C327.352 115.039 299.328 114.933 299.328 114.808C299.328 114.684 327.352 114.578 361.932 114.578C396.503 114.578 424.527 114.684 424.527 114.808Z" fill="#3A8CFF"/>
<path d="M348.199 122.168C348.199 122.292 337.257 122.398 323.764 122.398C310.27 122.398 299.328 122.292 299.328 122.168C299.328 122.044 310.27 121.938 323.764 121.938C337.257 121.938 348.199 122.044 348.199 122.168Z" fill="#3A8CFF"/>
<path d="M423.611 136.441C423.611 136.565 405.191 136.672 382.466 136.672C359.74 136.672 341.32 136.565 341.32 136.441C341.32 136.317 359.74 136.211 382.466 136.211C405.191 136.211 423.611 136.308 423.611 136.441Z" fill="#3A8CFF"/>
<path d="M423.611 144.246C423.611 144.371 405.191 144.477 382.466 144.477C359.74 144.477 341.32 144.371 341.32 144.246C341.32 144.122 359.74 144.016 382.466 144.016C405.191 144.007 423.611 144.114 423.611 144.246Z" fill="#3A8CFF"/>
<path d="M423.611 152.043C423.611 152.167 405.191 152.273 382.466 152.273C359.74 152.273 341.32 152.167 341.32 152.043C341.32 151.919 359.74 151.813 382.466 151.813C405.191 151.812 423.611 151.919 423.611 152.043Z" fill="#3A8CFF"/>
<path d="M423.611 159.848C423.611 159.972 405.191 160.078 382.466 160.078C359.74 160.078 341.32 159.972 341.32 159.848C341.32 159.724 359.74 159.617 382.466 159.617C405.191 159.617 423.611 159.724 423.611 159.848Z" fill="#3A8CFF"/>
<path d="M284.775 135.683C284.775 135.808 273.789 135.914 260.251 135.914C246.704 135.914 235.727 135.808 235.727 135.683C235.727 135.559 246.704 135.453 260.251 135.453C273.789 135.453 284.775 135.559 284.775 135.683Z" fill="#3A8CFF"/>
<path d="M284.775 141.816C284.775 141.94 273.789 142.047 260.251 142.047C246.704 142.047 235.727 141.94 235.727 141.816C235.727 141.692 246.704 141.586 260.251 141.586C273.789 141.586 284.775 141.692 284.775 141.816Z" fill="#3A8CFF"/>
<path d="M284.775 147.949C284.775 148.073 273.789 148.179 260.251 148.179C246.704 148.179 235.727 148.073 235.727 147.949C235.727 147.825 246.704 147.719 260.251 147.719C273.789 147.719 284.775 147.825 284.775 147.949Z" fill="#3A8CFF"/>
<path d="M284.775 154.074C284.775 154.198 273.789 154.304 260.251 154.304C246.704 154.304 235.727 154.198 235.727 154.074C235.727 153.95 246.704 153.844 260.251 153.844C273.789 153.844 284.775 153.941 284.775 154.074Z" fill="#3A8CFF"/>
<path d="M284.775 160.207C284.775 160.331 273.789 160.437 260.251 160.437C246.704 160.437 235.727 160.331 235.727 160.207C235.727 160.083 246.704 159.977 260.251 159.977C273.789 159.977 284.775 160.074 284.775 160.207Z" fill="#3A8CFF"/>
<path d="M335.011 132.711H299.297V167.264H335.011V132.711Z" fill="#3A8CFF"/>
<path d="M302.062 164.304L311.941 146.531L320.021 157.89L324.939 151.856L332.239 164.304H302.062Z" fill="#E8505B"/>
<path d="M323.467 143.069C323.467 144.487 322.315 145.639 320.897 145.639C319.48 145.639 318.328 144.487 318.328 143.069C318.328 141.652 319.48 140.5 320.897 140.5C322.315 140.5 323.467 141.652 323.467 143.069Z" fill="#E8505B"/>
<path d="M332.235 164.402C332.235 164.402 332.226 164.349 332.226 164.261C332.226 164.154 332.217 164.021 332.217 163.862C332.217 163.499 332.208 162.976 332.2 162.303C332.191 160.929 332.182 158.954 332.164 156.437C332.146 151.387 332.12 144.202 332.093 135.572L332.235 135.714C323.499 135.723 313.133 135.732 302.067 135.741C302.023 135.776 302.386 135.422 302.236 135.572V135.581V135.599V135.634V135.696V135.82V136.069V136.565V137.548C302.236 138.204 302.236 138.851 302.236 139.497C302.236 140.791 302.236 142.075 302.236 143.342C302.236 145.885 302.236 148.366 302.236 150.785C302.227 155.622 302.227 160.203 302.218 164.411L302.067 164.261C311.069 164.296 318.6 164.314 323.88 164.34C326.52 164.358 328.594 164.367 330.038 164.376C330.738 164.385 331.287 164.385 331.668 164.393C331.845 164.393 331.987 164.402 332.093 164.402C332.182 164.402 332.235 164.402 332.235 164.402C332.235 164.402 332.191 164.411 332.102 164.411C331.996 164.411 331.863 164.42 331.695 164.42C331.314 164.42 330.782 164.429 330.091 164.438C328.665 164.447 326.591 164.456 323.969 164.473C318.653 164.491 311.104 164.518 302.058 164.544H301.908V164.393C301.899 160.185 301.899 155.613 301.89 150.767C301.89 148.348 301.89 145.859 301.881 143.325C301.881 142.058 301.881 140.773 301.881 139.48C301.881 138.833 301.881 138.186 301.881 137.53V136.547V136.051V135.803V135.679V135.617V135.581V135.563V135.555C301.731 135.705 302.085 135.342 302.058 135.377C313.133 135.386 323.49 135.395 332.226 135.404H332.377V135.546C332.341 144.211 332.324 151.432 332.306 156.499C332.288 158.998 332.279 160.974 332.271 162.338C332.262 162.994 332.262 163.508 332.253 163.862C332.253 164.021 332.244 164.145 332.244 164.252C332.244 164.367 332.235 164.402 332.235 164.402Z" fill="#263238"/>
<path d="M215.992 76.9922C216.967 77.2225 217.817 77.949 218.198 78.8793C219.766 77.6301 221.787 76.9656 223.789 77.0453C223.638 78.206 222.832 79.1894 221.911 79.9159C220.989 80.6424 219.935 81.1829 219.005 81.9006C218.074 82.6182 217.25 83.5751 217.073 84.7357" fill="#B78876"/>
<path d="M502.038 345.571L501.303 338.368L514.796 336.906L515.983 347.441L515.151 347.582C511.447 348.194 496.297 350.418 493.719 349.939C490.857 349.399 502.038 345.571 502.038 345.571Z" fill="black"/>
<path d="M511.078 347.862C511.149 346.71 511.663 345.603 512.487 344.797C513.311 343.999 514.383 343.503 515.535 343.477L515.942 347.251L511.078 347.862Z" fill="black"/>
<path d="M496.598 347.646C496.598 347.646 492.708 349.24 493.275 349.843C493.851 350.454 509.25 348.771 515.983 347.442L515.93 347.141L497.98 349.249C497.98 349.249 497.386 347.592 496.598 347.646Z" fill="black"/>
<path d="M516.135 347.102C516.135 347.11 516.055 347.128 515.905 347.155C515.71 347.19 515.488 347.226 515.24 347.27C514.576 347.367 513.761 347.491 512.804 347.642C510.739 347.943 507.887 348.315 504.724 348.67C501.561 349.015 498.69 349.263 496.617 349.423C495.642 349.485 494.827 349.547 494.154 349.591C493.906 349.6 493.684 349.618 493.48 349.627C493.33 349.635 493.25 349.635 493.25 349.627C493.25 349.618 493.33 349.609 493.48 349.591C493.684 349.573 493.897 349.547 494.145 349.529C494.809 349.467 495.633 349.396 496.599 349.308C498.672 349.122 501.543 348.856 504.706 348.51C507.869 348.165 510.722 347.802 512.786 347.536C513.752 347.412 514.567 347.305 515.231 347.217C515.479 347.19 515.701 347.155 515.896 347.137C516.055 347.11 516.135 347.102 516.135 347.102Z" fill="#263238"/>
<path d="M498.009 349.457C497.956 349.466 497.859 348.89 497.424 348.341C496.999 347.783 496.459 347.535 496.485 347.49C496.494 347.446 497.097 347.641 497.557 348.235C498.018 348.828 498.045 349.457 498.009 349.457Z" fill="#263238"/>
<path d="M501.76 347.009C501.724 347.035 501.512 346.823 501.281 346.539C501.051 346.247 500.891 345.99 500.927 345.963C500.962 345.937 501.175 346.149 501.405 346.433C501.636 346.725 501.795 346.982 501.76 347.009Z" fill="#263238"/>
<path d="M502.792 346.304C502.766 346.339 502.535 346.224 502.278 346.038C502.021 345.852 501.835 345.675 501.862 345.639C501.888 345.604 502.119 345.719 502.376 345.905C502.633 346.091 502.819 346.268 502.792 346.304Z" fill="#263238"/>
<path d="M503.346 344.963C503.355 345.007 503.045 345.087 502.655 345.131C502.265 345.176 501.947 345.176 501.938 345.131C501.929 345.087 502.239 345.016 502.629 344.963C503.019 344.919 503.338 344.919 503.346 344.963Z" fill="#263238"/>
<path d="M503.484 344.041C503.502 344.077 503.174 344.271 502.722 344.351C502.271 344.44 501.898 344.378 501.898 344.333C501.898 344.289 502.262 344.271 502.687 344.192C503.13 344.112 503.467 343.997 503.484 344.041Z" fill="#263238"/>
<path d="M501.182 345.88C501.182 345.897 500.854 345.977 500.313 345.968C500.039 345.968 499.72 345.933 499.365 345.862C499.188 345.818 499.011 345.791 498.816 345.702C498.727 345.658 498.621 345.587 498.568 345.454C498.515 345.33 498.568 345.171 498.665 345.091C499.445 344.568 500.331 344.949 500.685 345.339C500.88 345.543 500.978 345.747 501.031 345.888C501.084 346.03 501.084 346.119 501.075 346.119C501.049 346.137 500.978 345.782 500.597 345.419C500.411 345.242 500.136 345.082 499.808 345.02C499.489 344.967 499.055 344.985 498.781 345.206C498.656 345.321 498.727 345.481 498.887 345.552C499.037 345.632 499.232 345.667 499.401 345.711C499.737 345.791 500.056 345.826 500.322 345.844C500.845 345.888 501.182 345.853 501.182 345.88Z" fill="#263238"/>
<path d="M500.957 345.944C500.949 345.953 500.798 345.749 500.789 345.35C500.789 345.155 500.833 344.925 500.957 344.695C501.09 344.482 501.259 344.198 501.631 344.172C501.835 344.172 501.959 344.393 501.941 344.544C501.941 344.695 501.888 344.836 501.835 344.952C501.728 345.182 501.604 345.377 501.48 345.519C501.241 345.811 501.037 345.935 501.019 345.926C501.002 345.908 501.179 345.749 501.383 345.448C501.489 345.297 501.595 345.111 501.693 344.89C501.79 344.695 501.835 344.358 501.613 344.34C501.392 344.34 501.197 344.579 501.081 344.774C500.966 344.978 500.913 345.191 500.895 345.368C500.887 345.722 500.984 345.935 500.957 345.944Z" fill="#263238"/>
<path d="M515.459 343.445C515.459 343.472 515.069 343.454 514.467 343.587C513.873 343.72 513.058 344.056 512.394 344.721C511.729 345.385 511.384 346.191 511.242 346.785C511.1 347.388 511.118 347.777 511.091 347.777C511.082 347.777 511.065 347.68 511.065 347.503C511.056 347.325 511.073 347.069 511.136 346.758C511.251 346.138 511.587 345.288 512.287 344.597C512.987 343.906 513.838 343.578 514.458 343.463C514.768 343.409 515.025 343.392 515.202 343.401C515.362 343.418 515.459 343.436 515.459 343.445Z" fill="#263238"/>
<path d="M513.447 337.984C513.491 337.976 513.677 339.216 513.863 340.74C514.049 342.273 514.165 343.513 514.12 343.522C514.076 343.531 513.89 342.29 513.704 340.766C513.518 339.234 513.403 337.984 513.447 337.984Z" fill="#263238"/>
<path d="M509.24 346.734C509.248 346.778 508.389 347.018 507.29 347.142C506.192 347.275 505.297 347.239 505.297 347.195C505.297 347.151 506.183 347.106 507.264 346.973C508.354 346.849 509.222 346.69 509.24 346.734Z" fill="#263238"/>
<path d="M511.881 346.441C511.917 346.467 511.828 346.636 511.757 346.848C511.686 347.061 511.66 347.247 511.615 347.247C511.571 347.256 511.527 347.043 511.607 346.795C511.686 346.556 511.846 346.414 511.881 346.441Z" fill="#263238"/>
<path d="M512.742 345.09C512.778 345.117 512.707 345.267 512.583 345.427C512.459 345.586 512.326 345.684 512.29 345.657C512.255 345.631 512.326 345.48 512.45 345.321C512.583 345.161 512.707 345.064 512.742 345.09Z" fill="#263238"/>
<path d="M514.102 344.366C514.093 344.41 513.916 344.428 513.73 344.525C513.535 344.614 513.411 344.738 513.367 344.711C513.331 344.693 513.42 344.49 513.659 344.375C513.898 344.268 514.111 344.321 514.102 344.366Z" fill="#263238"/>
<path d="M515.088 343.994C515.106 344.038 515.035 344.109 514.928 344.171C514.822 344.224 514.716 344.242 514.698 344.198C514.68 344.153 514.751 344.082 514.858 344.02C514.964 343.967 515.07 343.95 515.088 343.994Z" fill="#263238"/>
<path d="M462.584 345.731L462.797 338.492L476.361 338.811L476.158 349.408L475.316 349.443C471.568 349.567 456.249 349.789 453.76 348.973C451.004 348.061 462.584 345.731 462.584 345.731Z" fill="black"/>
<path d="M471.25 349.186C471.471 348.061 472.127 347.015 473.049 346.333C473.97 345.651 475.095 345.305 476.247 345.42L476.158 349.212L471.25 349.186Z" fill="black"/>
<path d="M456.925 347.07C456.925 347.07 452.858 348.142 453.345 348.816C453.833 349.489 469.32 349.843 476.168 349.4L476.151 349.099L458.076 348.842C458.085 348.851 457.713 347.123 456.925 347.07Z" fill="black"/>
<path d="M476.363 349.095C476.363 349.104 476.283 349.104 476.132 349.113C475.929 349.121 475.707 349.13 475.459 349.139C474.786 349.157 473.962 349.166 472.987 349.192C470.905 349.219 468.026 349.219 464.845 349.148C461.664 349.077 458.785 348.953 456.703 348.829C455.728 348.767 454.913 348.714 454.24 348.67C453.992 348.652 453.77 348.634 453.566 348.616C453.416 348.599 453.336 348.59 453.336 348.59C453.336 348.59 453.416 348.581 453.566 348.59C453.77 348.599 453.992 348.608 454.24 348.616C454.913 348.643 455.737 348.678 456.703 348.723C458.785 348.811 461.664 348.918 464.836 348.989C468.017 349.059 470.896 349.077 472.978 349.077C473.953 349.077 474.777 349.077 475.45 349.077C475.698 349.077 475.92 349.077 476.123 349.086C476.283 349.086 476.363 349.095 476.363 349.095Z" fill="#263238"/>
<path d="M458.087 349.064C458.034 349.073 458.007 348.479 457.653 347.877C457.307 347.265 456.802 346.955 456.838 346.911C456.847 346.867 457.422 347.141 457.795 347.788C458.176 348.435 458.122 349.073 458.087 349.064Z" fill="#263238"/>
<path d="M462.135 347.122C462.099 347.148 461.913 346.909 461.719 346.59C461.524 346.271 461.408 345.996 461.444 345.979C461.479 345.952 461.665 346.191 461.86 346.51C462.046 346.82 462.17 347.095 462.135 347.122Z" fill="#263238"/>
<path d="M463.243 346.566C463.207 346.601 463.004 346.451 462.773 346.238C462.543 346.026 462.384 345.822 462.419 345.786C462.454 345.751 462.658 345.902 462.889 346.114C463.119 346.327 463.278 346.531 463.243 346.566Z" fill="#263238"/>
<path d="M463.964 345.293C463.964 345.337 463.645 345.373 463.256 345.364C462.866 345.355 462.547 345.32 462.547 345.275C462.547 345.231 462.866 345.196 463.256 345.204C463.645 345.204 463.964 345.249 463.964 345.293Z" fill="#263238"/>
<path d="M464.222 344.405C464.24 344.449 463.885 344.591 463.425 344.617C462.964 344.644 462.601 344.529 462.61 344.493C462.618 344.449 462.973 344.485 463.416 344.458C463.859 344.431 464.204 344.361 464.222 344.405Z" fill="#263238"/>
<path d="M461.698 345.929C461.698 345.947 461.361 345.982 460.829 345.902C460.564 345.867 460.245 345.796 459.908 345.681C459.74 345.619 459.562 345.566 459.385 345.45C459.297 345.388 459.208 345.309 459.173 345.176C459.137 345.043 459.217 344.901 459.314 344.83C460.156 344.414 460.98 344.901 461.281 345.344C461.45 345.566 461.52 345.787 461.556 345.929C461.591 346.079 461.583 346.168 461.574 346.168C461.538 346.177 461.52 345.822 461.193 345.415C461.033 345.211 460.785 345.016 460.457 344.91C460.147 344.812 459.713 344.777 459.421 344.954C459.279 345.052 459.332 345.22 459.483 345.309C459.624 345.406 459.811 345.468 459.97 345.53C460.298 345.654 460.599 345.734 460.865 345.787C461.361 345.893 461.698 345.902 461.698 345.929Z" fill="#263238"/>
<path d="M461.473 345.964C461.464 345.973 461.34 345.752 461.385 345.353C461.411 345.158 461.482 344.937 461.633 344.724C461.792 344.538 461.996 344.272 462.368 344.299C462.572 344.325 462.66 344.565 462.625 344.706C462.607 344.857 462.536 344.99 462.465 345.096C462.333 345.309 462.182 345.486 462.04 345.61C461.757 345.867 461.544 345.964 461.535 345.956C461.517 345.938 461.712 345.805 461.96 345.53C462.084 345.397 462.217 345.22 462.341 345.016C462.465 344.839 462.554 344.502 462.333 344.458C462.111 344.432 461.89 344.644 461.748 344.813C461.606 344.999 461.526 345.202 461.491 345.371C461.429 345.734 461.5 345.956 461.473 345.964Z" fill="#263238"/>
<path d="M476.179 345.385C476.179 345.412 475.789 345.341 475.178 345.394C474.566 345.448 473.716 345.678 472.971 346.245C472.227 346.812 471.775 347.574 471.563 348.141C471.341 348.717 471.315 349.107 471.279 349.107C471.27 349.107 471.27 349.009 471.288 348.832C471.306 348.655 471.35 348.407 471.456 348.105C471.651 347.512 472.094 346.706 472.874 346.112C473.654 345.518 474.549 345.297 475.169 345.279C475.488 345.261 475.745 345.288 475.913 345.315C476.081 345.341 476.179 345.377 476.179 345.385Z" fill="#263238"/>
<path d="M474.901 339.703C474.945 339.703 474.972 340.952 474.954 342.494C474.936 344.036 474.892 345.285 474.848 345.285C474.803 345.285 474.777 344.036 474.795 342.494C474.803 340.952 474.848 339.703 474.901 339.703Z" fill="#263238"/>
<path d="M469.579 347.825C469.587 347.87 468.693 347.994 467.594 347.976C466.495 347.967 465.609 347.817 465.609 347.772C465.618 347.728 466.495 347.799 467.594 347.808C468.684 347.834 469.57 347.781 469.579 347.825Z" fill="#263238"/>
<path d="M472.234 347.881C472.269 347.917 472.154 348.067 472.066 348.271C471.968 348.475 471.915 348.652 471.871 348.643C471.826 348.643 471.809 348.431 471.915 348.191C472.021 347.961 472.207 347.846 472.234 347.881Z" fill="#263238"/>
<path d="M473.264 346.664C473.3 346.7 473.202 346.832 473.061 346.974C472.919 347.116 472.777 347.196 472.742 347.169C472.706 347.134 472.804 347.001 472.945 346.859C473.096 346.717 473.238 346.629 473.264 346.664Z" fill="#263238"/>
<path d="M474.715 346.124C474.706 346.169 474.52 346.169 474.325 346.231C474.121 346.293 473.979 346.399 473.944 346.364C473.908 346.337 474.024 346.151 474.28 346.071C474.52 345.991 474.723 346.08 474.715 346.124Z" fill="#263238"/>
<path d="M475.73 345.869C475.748 345.913 475.668 345.975 475.553 346.02C475.438 346.064 475.332 346.055 475.323 346.02C475.305 345.975 475.385 345.913 475.5 345.869C475.615 345.825 475.721 345.825 475.73 345.869Z" fill="#263238"/>
<path d="M512.36 187.683C512.36 187.683 521.999 238.105 519.784 238.742C517.578 239.389 467.494 239.903 467.494 239.903L462.062 191.838L485.94 183.953L512.36 187.683Z" fill="black"/>
<path opacity="0.4" d="M512.36 187.683C512.36 187.683 521.999 238.105 519.784 238.742C517.578 239.389 467.494 239.903 467.494 239.903L462.062 191.838L485.94 183.953L512.36 187.683Z" fill="black"/>
<path d="M510.227 174.773L511.157 266.269L518.838 341.525H495.625L490.947 268.422C490.947 268.422 489.105 208.335 487.226 208.299C484.072 208.237 481.671 343.253 480.457 343.51C478.393 343.953 456.828 343.51 456.828 343.51C456.828 343.51 463.783 185.804 463.721 185.804C463.668 185.804 510.227 174.773 510.227 174.773Z" fill="#263238"/>
<path d="M488.087 207.709C488.06 207.727 487.866 207.532 487.529 207.142C487.228 206.735 486.785 206.123 486.413 205.273C486.032 204.431 485.704 203.377 485.482 202.181C485.261 200.985 485.163 199.656 485.137 198.265C485.11 195.483 485.225 192.975 485.278 191.159C485.349 189.343 485.429 188.227 485.491 188.227C485.553 188.227 485.597 189.352 485.606 191.168C485.606 193.117 485.597 195.554 485.597 198.256C485.624 201.011 486.023 203.483 486.714 205.149C487.378 206.815 488.158 207.656 488.087 207.709Z" fill="#455A64"/>
<path d="M500.856 194.383C500.927 194.383 500.901 195.552 500.945 197.439C501.007 199.291 501.14 201.967 502.469 204.483C503.133 205.723 504.037 206.76 505.056 207.416C506.066 208.08 507.156 208.381 508.068 208.461C509.938 208.612 510.965 207.868 511.001 207.965C511.01 207.983 510.788 208.178 510.292 208.399C509.805 208.621 509.025 208.816 508.051 208.789C507.085 208.754 505.924 208.461 504.834 207.779C503.736 207.097 502.77 206.007 502.079 204.705C500.679 202.073 500.617 199.318 500.635 197.448C500.653 196.5 500.706 195.738 500.75 195.207C500.786 194.666 500.821 194.383 500.856 194.383Z" fill="#455A64"/>
<path d="M462.056 208.918C462.083 208.891 462.286 209.077 462.712 209.308C463.137 209.52 463.828 209.742 464.687 209.68C465.547 209.635 466.53 209.254 467.425 208.555C468.329 207.863 469.17 206.88 469.915 205.773C471.412 203.549 472.103 201.165 472.378 199.438C472.644 197.692 472.564 196.594 472.644 196.594C472.67 196.594 472.723 196.868 472.759 197.365C472.785 197.861 472.794 198.587 472.706 199.482C472.52 201.254 471.855 203.735 470.305 206.03C469.534 207.172 468.665 208.174 467.691 208.891C466.725 209.618 465.635 209.999 464.705 209.999C463.775 210.025 463.057 209.733 462.632 209.458C462.198 209.166 462.038 208.927 462.056 208.918Z" fill="#455A64"/>
<path d="M506.824 263.559C506.842 263.612 506.169 263.94 505.044 264.356C503.918 264.773 502.324 265.287 500.543 265.721C498.753 266.155 497.114 266.43 495.918 266.571C494.722 266.713 493.978 266.74 493.969 266.678C493.951 266.545 496.893 266.137 500.437 265.269C503.98 264.41 506.78 263.426 506.824 263.559Z" fill="#455A64"/>
<path d="M505.078 262.536C505.087 262.661 503.155 262.855 500.763 262.971C498.371 263.086 496.431 263.077 496.422 262.944C496.413 262.82 498.344 262.625 500.737 262.51C503.129 262.395 505.078 262.404 505.078 262.536Z" fill="#455A64"/>
<path d="M476.658 272.833C476.685 272.957 474.222 273.612 471.148 274.303C468.073 274.994 465.566 275.446 465.539 275.322C465.513 275.198 467.976 274.543 471.05 273.852C474.116 273.169 476.632 272.709 476.658 272.833Z" fill="#455A64"/>
<path d="M475.812 270.37C475.803 270.494 473.499 270.512 470.655 270.406C467.811 270.299 465.508 270.104 465.508 269.98C465.508 269.856 467.82 269.838 470.673 269.945C473.508 270.051 475.812 270.237 475.812 270.37Z" fill="#455A64"/>
<path d="M497.288 116.125L504.633 116.133C504.633 116.133 511.915 116.293 516.709 123.035C520.075 127.775 520.634 133.959 518.569 139.391L517.807 141.393L510.622 158.297C510.073 160.539 510.622 165.137 510.622 182.76L463.718 185.807L465.756 156.313L466.526 147.79L466.899 137.122C466.899 137.122 458.287 131.328 451.367 122.637L465.304 108.727C465.304 108.727 475.634 117.808 478.381 117.542C481.145 117.285 497.288 116.125 497.288 116.125Z" fill="#FF6726"/>
<path d="M496.525 117.344L482.092 118.407C481.897 116.742 481.623 110.248 481.623 110.248C481.623 110.248 475.598 109.689 475.155 103.727C474.712 97.764 474.898 83.9958 474.898 83.9958C481.623 80.6024 489.659 81.1074 495.905 85.3336L496.835 85.9626L496.525 117.344Z" fill="#FFBE9D"/>
<path d="M476.91 94.1739C477.247 93.8284 477.238 93.2791 476.893 92.9424C476.547 92.6057 475.998 92.6146 475.661 92.9601C475.324 93.3056 475.333 93.8549 475.679 94.1916C476.024 94.5283 476.574 94.5194 476.91 94.1739Z" fill="#263238"/>
<path d="M475.379 92.8981C475.476 92.9955 476.034 92.5082 476.858 92.4551C477.682 92.3842 478.303 92.7918 478.391 92.6766C478.436 92.6234 478.329 92.4462 478.055 92.2602C477.789 92.083 477.337 91.9146 476.823 91.9501C476.309 91.9855 475.893 92.2159 475.654 92.4374C475.414 92.6589 475.335 92.8538 475.379 92.8981Z" fill="#263238"/>
<path d="M484.892 93.0313C484.503 93.306 484.405 93.8464 484.68 94.2451C484.954 94.6349 485.495 94.7324 485.894 94.4578C486.283 94.1831 486.381 93.6426 486.106 93.2439C485.832 92.8541 485.291 92.7567 484.892 93.0313Z" fill="#263238"/>
<path d="M484.348 93.0778C484.446 93.1752 485.004 92.6879 485.828 92.6348C486.652 92.5639 487.272 92.9714 487.361 92.8563C487.405 92.8031 487.299 92.6259 487.024 92.4399C486.758 92.2627 486.306 92.0943 485.792 92.1298C485.279 92.1652 484.862 92.3956 484.623 92.6171C484.375 92.8386 484.304 93.0335 484.348 93.0778Z" fill="#263238"/>
<path d="M481.471 100.059C481.471 100.121 480.949 100.165 480.116 100.192C480.01 100.192 479.894 100.2 479.744 100.165C479.602 100.138 479.425 100.023 479.354 99.8461C479.221 99.5006 479.354 99.1993 479.416 98.9513C479.584 98.3931 479.753 97.826 479.93 97.2324C480.683 94.796 481.392 92.8557 481.507 92.8911C481.631 92.9265 481.117 94.9289 480.364 97.3653C480.178 97.9589 479.992 98.5171 479.815 99.0753C479.717 99.3411 479.655 99.5714 479.699 99.7043C479.726 99.8195 479.894 99.855 480.116 99.8727C480.958 99.9258 481.48 99.9967 481.471 100.059Z" fill="#263238"/>
<path d="M484.203 100.806C485.026 100.239 481.926 102.206 480.242 102.223C480.242 102.223 481.296 103.694 482.98 102.959C484.725 102.197 484.203 100.806 484.203 100.806Z" fill="white"/>
<path d="M481.617 110.17C481.617 110.17 485.409 110.241 489.263 107.477C489.263 107.477 487.686 111.889 481.697 111.712L481.617 110.17Z" fill="#EB996E"/>
<path d="M495.498 92.5669C495.631 92.5138 499.928 91.9556 499.521 97.0323C499.113 102.109 494.125 100.018 494.125 99.8763C494.125 99.7345 495.498 92.5669 495.498 92.5669Z" fill="#FFBE9D"/>
<path d="M495.823 98.2187C495.849 98.201 495.902 98.2896 496.053 98.3693C496.195 98.4491 496.443 98.5111 496.709 98.4402C497.258 98.2896 497.781 97.4745 497.878 96.5619C497.931 96.1012 497.869 95.6493 497.736 95.2772C497.612 94.8963 497.391 94.6127 497.125 94.5419C496.859 94.4621 496.655 94.6039 496.585 94.7456C496.505 94.8785 496.531 94.9849 496.505 94.9937C496.487 95.0026 496.399 94.8962 496.461 94.6925C496.487 94.595 496.558 94.4798 496.682 94.3912C496.815 94.3026 496.992 94.2672 497.178 94.3026C497.568 94.3647 497.887 94.7456 498.038 95.1621C498.206 95.5785 498.286 96.0835 498.232 96.5973C498.117 97.6162 497.515 98.5288 496.771 98.6883C496.407 98.7503 496.115 98.6174 495.973 98.4934C495.814 98.3427 495.796 98.2276 495.823 98.2187Z" fill="#EB996E"/>
<path d="M475.371 84.3611C473.9 83.9979 472.855 82.4651 472.908 80.9412C472.961 79.4262 474.007 78.0263 475.389 77.3973C476.771 76.7682 478.419 76.8568 479.81 77.4682C480.226 75.2621 482.388 73.5255 484.63 73.5875C486.871 73.6496 488.936 75.5013 489.228 77.7251C489.37 76.5733 490.672 75.9266 491.833 75.8557C492.993 75.7848 494.234 76.1303 494.978 77.0075C495.731 77.8934 495.802 79.373 494.952 80.1527C496.245 80.011 497.601 80.2767 498.655 81.0387C499.709 81.8006 500.4 83.0942 500.303 84.3877C500.205 85.6813 499.249 86.9128 497.973 87.1697C497.539 87.2583 497.007 87.2849 496.768 87.6659C496.635 87.8785 496.644 88.1443 496.644 88.3924C496.688 89.8277 496.723 91.2541 496.768 92.6894C496.015 92.3084 495.058 92.8577 494.686 93.6197C494.322 94.3816 494.384 95.2765 494.446 96.1182C494.083 96.6675 493.153 96.508 492.754 95.9764C492.356 95.4448 492.329 94.736 492.32 94.0715C492.294 91.768 492.258 89.4644 492.232 87.1697C491.558 87.5418 490.69 87.5418 490.008 87.1697C489.334 86.7976 488.874 86.0534 488.829 85.2826C487.855 86.2129 486.455 86.6824 485.117 86.523C483.779 86.3635 482.53 85.5661 481.812 84.432C481.104 84.9991 480.377 85.5661 479.544 85.9382C478.711 86.3103 477.746 86.4609 476.886 86.1686C476.027 85.8762 475.318 85.0522 475.336 84.1396C475.433 84.051 475.54 83.9624 475.637 83.8827" fill="black"/>
<path d="M472.548 85.1549C472.522 85.146 472.61 84.9511 472.921 84.9245C473.071 84.9156 473.266 84.9599 473.434 85.1106C473.612 85.27 473.7 85.5535 473.638 85.8282C473.585 86.1029 473.381 86.3864 473.08 86.5281C472.779 86.6699 472.415 86.6788 472.07 86.5636C471.397 86.3509 470.803 85.6156 470.892 84.765C470.971 83.9411 471.592 83.3031 472.229 83.0817C472.867 82.8424 473.505 82.9045 473.966 83.0551C474.905 83.3917 475.286 83.8879 475.26 83.9145C475.215 83.9854 474.755 83.5867 473.886 83.3652C473.461 83.2677 472.912 83.25 472.389 83.4715C471.875 83.6753 471.414 84.1803 471.352 84.8005C471.281 85.4118 471.716 85.9788 472.212 86.156C472.717 86.3509 473.231 86.1294 473.328 85.7396C473.452 85.3586 473.142 85.1106 472.921 85.0928C472.69 85.0663 472.566 85.1814 472.548 85.1549Z" fill="black"/>
<path d="M496.574 83.8032C496.53 83.7412 496.938 83.4222 497.487 82.8286C497.753 82.5274 498.036 82.1464 498.205 81.668C498.364 81.1984 498.4 80.6136 498.107 80.1441C497.824 79.6568 497.319 79.4264 496.831 79.5062C496.344 79.577 495.892 79.7897 495.556 79.9846C494.864 80.3833 494.519 80.782 494.466 80.7288C494.421 80.7022 494.678 80.2149 495.378 79.7099C495.733 79.4707 496.176 79.2049 496.769 79.0897C497.062 79.0366 497.416 79.0543 497.735 79.2049C498.054 79.3555 498.32 79.6036 498.497 79.9137C498.878 80.5428 498.816 81.287 498.594 81.8274C498.373 82.3768 498.027 82.7843 497.708 83.0678C497.079 83.626 496.61 83.8475 496.574 83.8032Z" fill="black"/>
<path d="M485.155 77.655C485.111 77.6284 485.279 77.1146 485.722 76.3526C485.953 75.9716 486.272 75.5375 486.732 75.1477C487.202 74.7578 487.849 74.4566 488.575 74.4477C489.293 74.4123 490.019 74.7667 490.374 75.3072C490.737 75.8299 490.826 76.4058 490.826 76.8576C490.781 77.7702 490.516 78.2575 490.471 78.2486C490.391 78.2309 490.542 77.6993 490.498 76.8665C490.462 76.4589 490.347 75.9716 490.037 75.5641C489.736 75.1477 489.195 74.8907 488.593 74.9173C487.335 74.9439 486.484 75.8831 485.997 76.5475C485.501 77.2209 485.217 77.6905 485.155 77.655Z" fill="black"/>
<g opacity="0.4">
<g opacity="0.4">
<path opacity="0.4" d="M475.371 84.3611C473.9 83.9979 472.855 82.4651 472.908 80.9412C472.961 79.4262 474.007 78.0263 475.389 77.3973C476.771 76.7682 478.419 76.8568 479.81 77.4682C480.226 75.2621 482.388 73.5255 484.63 73.5875C486.871 73.6496 488.936 75.5013 489.228 77.7251C489.37 76.5733 490.672 75.9266 491.833 75.8557C492.993 75.7848 494.234 76.1303 494.978 77.0075C495.731 77.8934 495.802 79.373 494.952 80.1527C496.245 80.011 497.601 80.2767 498.655 81.0387C499.709 81.8006 500.4 83.0942 500.303 84.3877C500.205 85.6813 499.249 86.9128 497.973 87.1697C497.539 87.2583 497.007 87.2849 496.768 87.6659C496.635 87.8785 496.644 88.1443 496.644 88.3924C496.688 89.8277 496.723 91.2541 496.768 92.6894C496.015 92.3084 495.058 92.8577 494.686 93.6197C494.322 94.3816 494.384 95.2765 494.446 96.1182C494.083 96.6675 493.153 96.508 492.754 95.9764C492.356 95.4448 492.329 94.736 492.32 94.0715C492.294 91.768 492.258 89.4644 492.232 87.1697C491.558 87.5418 490.69 87.5418 490.008 87.1697C489.334 86.7976 488.874 86.0534 488.829 85.2826C487.855 86.2129 486.455 86.6824 485.117 86.523C483.779 86.3635 482.53 85.5661 481.812 84.432C481.104 84.9991 480.377 85.5661 479.544 85.9382C478.711 86.3103 477.746 86.4609 476.886 86.1686C476.027 85.8762 475.318 85.0522 475.336 84.1396C475.433 84.051 475.54 83.9624 475.637 83.8827" fill="black"/>
</g>
<g opacity="0.4">
<g opacity="0.4">
<path opacity="0.4" d="M472.548 85.1549C472.522 85.146 472.61 84.9511 472.921 84.9245C473.071 84.9156 473.266 84.9599 473.434 85.1106C473.612 85.27 473.7 85.5535 473.638 85.8282C473.585 86.1029 473.381 86.3864 473.08 86.5281C472.779 86.6699 472.415 86.6788 472.07 86.5636C471.397 86.3509 470.803 85.6156 470.892 84.765C470.971 83.9411 471.592 83.3031 472.229 83.0817C472.867 82.8424 473.505 82.9045 473.966 83.0551C474.905 83.3917 475.286 83.8879 475.26 83.9145C475.215 83.9854 474.755 83.5867 473.886 83.3652C473.461 83.2677 472.912 83.25 472.389 83.4715C471.875 83.6753 471.414 84.1803 471.352 84.8005C471.281 85.4118 471.716 85.9788 472.212 86.156C472.717 86.3509 473.231 86.1294 473.328 85.7396C473.452 85.3586 473.142 85.1106 472.921 85.0928C472.69 85.0663 472.566 85.1814 472.548 85.1549Z" fill="black"/>
</g>
</g>
<g opacity="0.4">
<g opacity="0.4">
<path opacity="0.4" d="M496.574 83.8032C496.53 83.7412 496.938 83.4222 497.487 82.8286C497.753 82.5274 498.036 82.1464 498.205 81.668C498.364 81.1984 498.4 80.6136 498.107 80.1441C497.824 79.6568 497.319 79.4264 496.831 79.5062C496.344 79.577 495.892 79.7897 495.556 79.9846C494.864 80.3833 494.519 80.782 494.466 80.7288C494.421 80.7022 494.678 80.2149 495.378 79.7099C495.733 79.4707 496.176 79.2049 496.769 79.0897C497.062 79.0366 497.416 79.0543 497.735 79.2049C498.054 79.3555 498.32 79.6036 498.497 79.9137C498.878 80.5428 498.816 81.287 498.594 81.8274C498.373 82.3768 498.027 82.7843 497.708 83.0678C497.079 83.626 496.61 83.8475 496.574 83.8032Z" fill="black"/>
</g>
</g>
<g opacity="0.4">
<g opacity="0.4">
<path opacity="0.4" d="M485.155 77.655C485.111 77.6284 485.279 77.1146 485.722 76.3526C485.953 75.9716 486.272 75.5375 486.732 75.1477C487.202 74.7578 487.849 74.4566 488.575 74.4477C489.293 74.4123 490.019 74.7667 490.374 75.3072C490.737 75.8299 490.826 76.4058 490.826 76.8576C490.781 77.7702 490.516 78.2575 490.471 78.2486C490.391 78.2309 490.542 77.6993 490.498 76.8665C490.462 76.4589 490.347 75.9716 490.037 75.5641C489.736 75.1477 489.195 74.8907 488.593 74.9173C487.335 74.9439 486.484 75.8831 485.997 76.5475C485.501 77.2209 485.217 77.6905 485.155 77.655Z" fill="black"/>
</g>
</g>
</g>
<path d="M501.171 136.805C501.171 136.805 492.081 153.195 488.661 156.057C485.241 158.919 459.787 152.637 459.787 152.637L459.37 151.937C459.37 151.937 458.183 150.502 456.677 147.578C456.287 146.816 456.03 145.992 455.906 145.151C455.756 144.123 455.614 142.75 455.764 141.979C455.951 141.022 454.896 140.322 454.258 140.916C453.62 141.509 453.044 144.141 453.771 147.206C454.489 150.272 450.643 147.233 449.226 146.152C447.808 145.071 443.254 141.935 442.59 142.112C441.615 142.378 441.722 143.503 443.166 144.548C444.628 145.611 448.721 149.049 448.136 149.784C447.56 150.511 440.393 144.903 440.393 144.903C440.393 144.903 439.046 143.45 438.346 144.282C437.07 145.78 445.106 151.167 445.886 151.663C446.426 152.008 445.815 152.832 445.257 152.433C444.681 152.017 438.24 146.666 436.928 148.172C435.918 149.333 443.502 152.673 444.238 154.533C444.973 156.403 438.736 151.406 437.823 152.549C437.478 152.974 437.283 153.346 441.27 155.685C444.114 157.36 450.847 160.133 454.657 161.657C458.121 163.367 470.844 169.48 481.299 172.12C489.361 174.158 497.84 172.767 502.518 165.892L516.977 142.927L501.171 136.805Z" fill="#FFBE9D"/>
<path d="M462.055 191.851L486.712 185.817V183.106L463.455 181.219L462.055 191.851Z" fill="black"/>
<path opacity="0.4" d="M462.055 191.851L486.712 185.817V183.106L463.455 181.219L462.055 191.851Z" fill="black"/>
<path d="M511.226 179.5C509.552 180.04 486.711 183.106 486.711 183.106V185.817L512.927 190.717L511.226 179.5Z" fill="black"/>
<path opacity="0.4" d="M511.226 179.5C509.552 180.04 486.711 183.106 486.711 183.106V185.817L512.927 190.717L511.226 179.5Z" fill="black"/>
<path d="M482.14 187.163C482.087 187.19 481.874 186.88 481.795 186.295C481.706 185.728 481.803 184.86 482.335 184.107C482.867 183.354 483.655 182.982 484.222 182.866C484.798 182.751 485.152 182.849 485.152 182.902C485.152 182.973 484.807 182.999 484.311 183.176C483.823 183.354 483.168 183.726 482.716 184.364C482.264 185.002 482.122 185.746 482.122 186.269C482.113 186.809 482.202 187.137 482.14 187.163Z" fill="#263238"/>
<path d="M482.923 183.9C482.905 183.847 483.162 183.688 483.623 183.572C484.083 183.457 484.801 183.404 485.51 183.741C486.227 184.06 486.635 184.76 486.67 185.265C486.724 185.779 486.529 186.062 486.476 186.036C486.405 186.018 486.467 185.734 486.343 185.327C486.227 184.919 485.891 184.423 485.306 184.157C484.721 183.883 484.11 183.874 483.667 183.9C483.224 183.927 482.94 183.971 482.923 183.9Z" fill="#263238"/>
<path d="M486.972 183.238C487.079 183.176 487.46 183.841 487.318 184.718C487.176 185.604 486.609 186.109 486.52 186.02C486.414 185.941 486.751 185.391 486.857 184.647C486.99 183.903 486.839 183.283 486.972 183.238Z" fill="#263238"/>
<path d="M465.68 187.208C465.662 187.084 469.295 186.499 473.787 185.905C478.278 185.312 481.938 184.931 481.955 185.055C481.973 185.179 478.34 185.763 473.849 186.357C469.348 186.951 465.689 187.332 465.68 187.208Z" fill="#263238"/>
<path d="M504.047 182.617C504.065 182.741 500.317 183.335 495.684 183.937C491.05 184.54 487.276 184.921 487.258 184.797C487.24 184.673 490.988 184.079 495.622 183.477C500.255 182.874 504.03 182.493 504.047 182.617Z" fill="#263238"/>
<path d="M501.399 184.904C501.399 184.966 500.611 184.974 499.344 184.966C497.899 184.957 496.234 184.939 494.391 184.921C492.548 184.93 490.882 184.939 489.438 184.948C488.171 184.957 487.383 184.948 487.383 184.886C487.383 184.824 488.162 184.717 489.429 184.629C490.696 184.54 492.451 184.461 494.4 184.469C496.34 184.469 498.094 184.549 499.361 184.647C500.619 184.735 501.399 184.842 501.399 184.904Z" fill="#263238"/>
<path d="M483.008 184.477C483.008 184.477 476.159 202.063 475.539 219.5V224.789L485.285 225.214C485.285 225.214 483.832 197.97 486.711 185.814L483.008 184.477Z" fill="black"/>
<path opacity="0.4" d="M483.008 184.477C483.008 184.477 476.159 202.063 475.539 219.5V224.789L485.285 225.214C485.285 225.214 483.832 197.97 486.711 185.814L483.008 184.477Z" fill="black"/>
<path d="M485.047 222.897C485.038 223.03 482.894 222.959 480.254 222.915C477.614 222.87 475.47 222.862 475.461 222.729C475.452 222.605 477.605 222.401 480.254 222.454C482.912 222.498 485.056 222.773 485.047 222.897Z" fill="#263238"/>
<path d="M478.196 224.885C478.072 224.912 477.859 224.425 477.797 223.778C477.735 223.131 477.868 222.608 477.992 222.617C478.125 222.626 478.205 223.122 478.258 223.734C478.311 224.345 478.32 224.859 478.196 224.885Z" fill="#263238"/>
<path d="M482.273 225.089C482.158 225.133 481.884 224.646 481.822 223.99C481.751 223.335 481.919 222.803 482.043 222.821C482.176 222.838 482.211 223.343 482.282 223.946C482.335 224.548 482.397 225.045 482.273 225.089Z" fill="#263238"/>
<path d="M480.693 201.507C480.631 201.498 480.702 200.47 480.932 198.822C481.163 197.174 481.57 194.915 482.173 192.443C482.784 189.98 483.475 187.783 484.042 186.224C484.609 184.655 485.026 183.716 485.079 183.743C485.141 183.769 484.831 184.744 484.352 186.33C483.865 187.916 483.227 190.113 482.625 192.558C482.022 195.012 481.562 197.254 481.26 198.875C480.941 200.506 480.764 201.516 480.693 201.507Z" fill="#263238"/>
<path d="M231.555 86.0016C231.555 94.4906 236.488 101.827 243.642 105.303L233.411 77.2734C232.222 79.9407 231.555 82.8924 231.555 86.0016Z" fill="#3A8CFF"/>
<path d="M267.475 84.9182C267.475 82.2677 266.523 80.4321 265.707 79.0034C264.62 77.2368 263.601 75.7408 263.601 73.9741C263.601 72.0027 265.096 70.1675 267.202 70.1675C267.297 70.1675 267.387 70.1793 267.48 70.1847C263.664 66.689 258.581 64.5547 252.997 64.5547C245.505 64.5547 238.913 68.3989 235.078 74.2214C235.581 74.2365 236.055 74.2472 236.458 74.2472C238.702 74.2472 242.174 73.975 242.174 73.975C243.33 73.9068 243.466 75.6049 242.311 75.7416C242.311 75.7416 241.15 75.8783 239.857 75.946L247.667 99.1763L252.36 85.1002L249.019 75.9452C247.864 75.8775 246.77 75.7408 246.77 75.7408C245.614 75.673 245.75 73.906 246.905 73.9741C246.905 73.9741 250.447 74.2463 252.554 74.2463C254.797 74.2463 258.27 73.9741 258.27 73.9741C259.427 73.906 259.563 75.604 258.408 75.7408C258.408 75.7408 257.243 75.8775 255.953 75.9452L263.703 98.9996L265.843 91.8512C266.77 88.8848 267.475 86.7542 267.475 84.9182Z" fill="#3A8CFF"/>
<path d="M253.372 87.875L246.938 106.573C248.859 107.138 250.891 107.447 252.996 107.447C255.493 107.447 257.889 107.015 260.118 106.231C260.06 106.139 260.008 106.042 259.965 105.936L253.372 87.875Z" fill="#3A8CFF"/>
<path d="M271.819 75.7109C271.911 76.3941 271.963 77.1274 271.963 77.9162C271.963 80.0926 271.557 82.539 270.332 85.5981L263.781 104.539C270.157 100.821 274.446 93.9128 274.446 86.0008C274.446 82.2722 273.494 78.7659 271.819 75.7109Z" fill="#3A8CFF"/>
<path d="M253 61C239.215 61 228 72.2146 228 85.9994C228 99.7858 239.215 111 253 111C266.785 111 278.002 99.7858 278.002 85.9994C278.001 72.2146 266.785 61 253 61ZM253 109.854C239.848 109.854 229.146 99.1528 229.146 85.9994C229.146 72.8468 239.847 62.1463 253 62.1463C266.152 62.1463 276.853 72.8468 276.853 85.9994C276.853 99.1528 266.152 109.854 253 109.854Z" fill="#3A8CFF"/>
<path d="M235.836 83.7584C237.989 81.2333 240.523 78.159 241.639 76.3959C243.73 73.1089 243.438 72.9139 243.021 72.719C241.896 72.214 239.132 78.3539 238.972 76.6705C238.813 74.9871 243.207 69.5738 242.011 69.0953C240.452 68.4663 237.679 74.9517 237.404 75.4833C237.138 75.9972 236.367 75.6162 236.633 75.1466C237.023 74.4821 240.983 67.3499 239.451 66.7209C238.6 66.3754 238.157 67.9701 238.157 67.9701C238.157 67.9701 234.941 74.9251 234.232 74.5973C233.506 74.2695 235.26 70.1231 235.951 68.7675C236.633 67.4297 236.279 66.5437 235.446 66.7209C234.879 66.8449 232.673 70.9382 232.026 72.2937C231.379 73.6493 229.661 77.4059 229.023 74.8277C228.385 72.2494 226.949 70.504 226.241 70.3003C225.532 70.0965 225.018 71.0268 225.523 71.6736C225.931 72.1963 226.356 73.2772 226.639 74.11C226.87 74.7922 226.994 75.5099 226.994 76.2275C226.994 76.8477 226.976 77.397 226.941 77.8932L226.692 83.1648L232.717 87.2935L235.836 83.7584Z" fill="#B78876"/>
<path d="M164.906 245.328L171.152 340.908L185.656 339.305C185.656 339.305 186.01 246.134 185.328 246.179C184.655 246.232 164.906 245.328 164.906 245.328Z" fill="#B78876"/>
<path d="M133.367 242.578L117.047 337.334L129.938 339.292L152.531 247.088L133.367 242.578Z" fill="#B78876"/>
<path d="M153.84 83.2354L153.742 116.097L167.838 116.77L168.246 108.778C168.246 108.778 173.252 109.771 174.545 105.119C175.369 102.151 175.165 79.1953 175.165 79.1953L153.84 83.2354Z" fill="#B78876"/>
<path d="M178.344 82.4345C177.396 84.4013 172.868 87.9896 172.868 87.9896L170.822 93.465C169.05 92.074 166.666 92.1537 166.214 95.2724C165.887 97.5228 168.686 97.9835 168.686 97.9835C167.056 100.757 165.949 103.007 163.574 105.638C161.005 108.491 159.561 108.784 156.779 108.828H153.704C153.704 108.828 147.414 103.574 148.654 89.735C149.895 75.8959 161.235 78.5095 165.311 76.4718C165.825 76.2237 181.507 75.8782 178.344 82.4345Z" fill="#263238"/>
<path d="M148.371 92.446C146.023 91.117 142.851 91.4448 140.822 93.2257C138.793 94.9976 138.058 97.8062 137.562 100.464C137.066 103.113 136.658 105.913 135.028 108.066C134.612 108.615 134.107 109.147 133.965 109.82C133.761 110.795 134.47 111.823 135.409 112.15C136.348 112.487 137.429 112.212 138.235 111.619C139.042 111.025 139.591 110.157 139.998 109.244C139.945 110.928 141.726 112.407 143.374 112.062C144.978 111.725 145.943 110.095 146.457 108.536C147.077 106.657 147.334 104.655 147.193 102.688C147.06 100.872 146.608 99.0466 146.909 97.2569C147.21 95.4672 148.619 93.6509 150.444 93.7307" fill="#263238"/>
<path d="M170.829 93.4687C170.829 93.4687 171.591 97.5708 169.686 97.9872C168.845 98.1733 167.87 97.7392 167.87 97.7392L165.956 101.974C165.956 101.974 164.734 108.052 168.242 108.779C171.485 109.452 174.86 109.009 175.179 103.87L175.268 100.158C175.268 100.158 172.699 100.734 172.451 99.5643C172.202 98.3948 172.008 90.2969 172.008 90.2969L170.829 93.4687Z" fill="#263238"/>
<path d="M134.72 104.355C134.728 104.408 134.241 104.258 133.639 104.718C133.355 104.94 133.08 105.356 133.142 105.87C133.196 106.366 133.568 106.942 134.188 107.057C134.808 107.181 135.535 106.871 136.013 106.278C136.509 105.684 136.837 104.869 137.041 104.001C137.448 102.247 137.2 100.218 137.245 98.0735C137.271 97.0015 137.395 95.9295 137.758 94.9549C138.113 93.9803 138.733 93.1386 139.451 92.5184C140.904 91.2603 142.685 90.835 144.093 90.9059C145.52 90.9679 146.609 91.4109 147.301 91.7742C147.646 91.9602 147.903 92.1286 148.071 92.2526C148.24 92.3766 148.319 92.4475 148.311 92.4653C148.284 92.5007 147.93 92.2526 147.23 91.9425C146.53 91.6324 145.458 91.2515 144.093 91.2337C142.747 91.2072 141.081 91.6413 139.743 92.8374C139.079 93.431 138.52 94.2018 138.193 95.1143C137.865 96.0269 137.741 97.0458 137.714 98.0913C137.67 100.182 137.909 102.247 137.466 104.098C137.236 105.011 136.881 105.87 136.314 106.526C135.765 107.19 134.888 107.562 134.126 107.376C133.337 107.199 132.921 106.482 132.894 105.897C132.85 105.277 133.204 104.807 133.532 104.586C134.241 104.116 134.755 104.355 134.72 104.355Z" fill="#263238"/>
<path d="M171.183 82.5619C171.192 82.5264 171.467 82.6062 171.972 82.615C172.468 82.6328 173.212 82.5619 173.992 82.1455C174.763 81.7468 175.498 80.8785 175.658 79.7444C175.746 79.1863 175.684 78.5749 175.418 78.0256C175.162 77.4675 174.71 76.9802 174.16 76.6169C173.044 75.8727 171.697 75.7486 170.528 75.855C169.349 75.9613 168.295 76.2537 167.409 76.4752C165.637 76.9536 164.485 77.0422 164.477 76.9802C164.477 76.9447 164.751 76.8827 165.239 76.7587C165.735 76.6346 166.435 76.4309 167.312 76.1651C168.189 75.9081 169.243 75.5715 170.475 75.4386C171.688 75.3057 173.159 75.412 174.4 76.2359C175.011 76.6346 175.525 77.1928 175.817 77.8307C176.118 78.4686 176.18 79.1863 176.074 79.8153C175.861 81.1 174.993 82.048 174.134 82.4467C173.266 82.8631 172.468 82.8808 171.954 82.8011C171.432 82.7302 171.175 82.5885 171.183 82.5619Z" fill="#263238"/>
<path d="M149.367 101.309C149.367 101.309 149.5 101.301 149.757 101.301C150.014 101.283 150.395 101.274 150.873 101.168C151.821 100.973 153.168 100.415 154.47 99.2539C155.791 98.1022 156.951 96.3479 158.121 94.3544C159.308 92.3964 160.619 90.084 162.87 88.5335C165.147 87.0096 167.796 86.7172 170.037 86.2654C172.305 85.849 174.334 85.2199 175.725 84.1479C177.116 83.0847 177.807 81.7734 178.029 80.8343C178.259 79.8774 178.126 79.3281 178.162 79.3281C178.162 79.3281 178.312 79.8774 178.1 80.852C177.896 81.8089 177.205 83.1644 175.805 84.2542C174.405 85.3617 172.341 86.0085 170.073 86.4337C167.822 86.8944 165.2 87.1957 162.976 88.6841C160.77 90.208 159.467 92.485 158.271 94.443C157.093 96.4277 155.906 98.1908 154.559 99.3514C153.23 100.521 151.848 101.07 150.882 101.239C149.917 101.425 149.367 101.309 149.367 101.309Z" fill="white"/>
<path d="M150.734 104.788C150.734 104.788 150.832 104.717 151.018 104.602C151.213 104.486 151.479 104.309 151.833 104.079C152.524 103.6 153.516 102.874 154.588 101.811C155.66 100.756 156.812 99.3565 157.787 97.62C158.779 95.9012 159.497 93.7659 161.003 91.9674C162.536 90.1511 164.768 89.398 166.673 88.893C168.614 88.388 170.368 88.007 171.75 87.3868C173.141 86.8021 174.124 86.0401 174.683 85.4199C175.25 84.7997 175.453 84.3656 175.471 84.3833C175.471 84.3833 175.285 84.8263 174.736 85.4731C174.186 86.1199 173.194 86.8995 171.803 87.5109C170.421 88.1488 168.649 88.5563 166.718 89.0613C164.822 89.5841 162.642 90.3194 161.145 92.0914C159.665 93.8457 158.939 95.972 157.937 97.7086C156.945 99.454 155.767 100.854 154.677 101.908C153.587 102.962 152.577 103.68 151.868 104.141C151.16 104.593 150.734 104.788 150.734 104.788Z" fill="white"/>
<path d="M141.476 111.189C141.459 111.18 141.671 110.923 141.928 110.4C142.185 109.877 142.469 109.071 142.548 108.026C142.646 106.989 142.513 105.74 142.23 104.384C141.964 103.029 141.538 101.549 141.414 99.9367C141.29 98.3331 141.521 96.7295 142.292 95.5334C143.054 94.3284 144.223 93.6462 145.224 93.345C146.243 93.026 147.129 93.0792 147.705 93.1767C148.29 93.2918 148.582 93.4425 148.582 93.4425C148.573 93.469 148.272 93.3361 147.696 93.2475C147.12 93.1678 146.261 93.1412 145.268 93.469C144.294 93.7791 143.169 94.4613 142.442 95.622C141.707 96.7826 141.476 98.3508 141.6 99.9279C141.725 101.514 142.141 102.993 142.398 104.358C142.673 105.722 142.788 106.989 142.673 108.044C142.575 109.098 142.274 109.922 141.99 110.436C141.707 110.958 141.476 111.189 141.476 111.189Z" fill="white"/>
<path d="M135.727 112.047C135.718 112.011 136.135 112.144 136.693 111.754C137.251 111.382 137.756 110.523 138.137 109.398C138.527 108.272 138.793 106.873 138.943 105.304C139.103 103.736 139.156 101.991 139.439 100.175C139.723 98.3672 140.308 96.6661 141.238 95.3548C142.151 94.0347 143.409 93.1753 144.587 92.8652C145.756 92.5196 146.775 92.6437 147.413 92.8475C148.06 93.0601 148.352 93.2993 148.352 93.2993C148.344 93.317 148.033 93.1044 147.396 92.9183C146.766 92.7411 145.765 92.6437 144.631 92.9892C143.488 93.3082 142.275 94.1587 141.389 95.4523C140.485 96.7369 139.918 98.4114 139.634 100.201C139.351 102 139.289 103.736 139.12 105.313C138.961 106.89 138.686 108.308 138.27 109.433C137.871 110.558 137.34 111.435 136.746 111.799C136.135 112.197 135.709 112.038 135.727 112.047Z" fill="white"/>
<path d="M148.422 95.3842C148.298 95.4019 148.085 94.5691 147.944 93.5236C147.846 92.7705 147.811 92.106 147.846 91.7959L147.935 91.8845C147.997 91.8402 147.935 91.8579 147.935 91.8668C147.917 91.8757 147.926 91.9022 147.926 91.92C147.926 91.9377 147.891 91.9554 147.846 91.9111C147.82 91.8845 147.749 91.7428 147.953 91.6896L148.006 91.6719L148.05 91.7693C148.165 92.0529 148.307 92.6996 148.404 93.4616C148.546 94.507 148.555 95.3664 148.422 95.3842Z" fill="#E8505B"/>
<path d="M117.297 334.536L119.654 322.203L133.874 324.702L130.445 337.265L117.297 334.536Z" fill="#F0F0F0"/>
<path d="M117.298 334.539L115.109 344.285L130.198 346.146L130.738 336.488L117.298 334.539Z" fill="black"/>
<path d="M124.111 335.016C124.235 335.034 124.014 337.036 123.615 339.49C123.217 341.944 122.791 343.911 122.667 343.893C122.543 343.876 122.765 341.873 123.163 339.419C123.562 336.965 123.987 334.989 124.111 335.016Z" fill="#263238"/>
<path d="M130.262 345.085C130.244 345.147 129.42 345.023 128.073 344.811C126.576 344.572 124.795 344.279 122.837 343.96C120.79 343.624 118.948 343.278 117.619 342.977C116.29 342.684 115.483 342.445 115.492 342.383C115.51 342.321 116.334 342.445 117.681 342.658C119.178 342.897 120.959 343.189 122.917 343.508C124.963 343.845 126.806 344.191 128.135 344.492C129.464 344.793 130.271 345.032 130.262 345.085Z" fill="#263238"/>
<path d="M133.316 326.739C133.308 326.801 132.51 326.712 131.234 326.517C129.959 326.314 128.204 325.995 126.264 325.623C124.421 325.268 122.747 324.949 121.311 324.674C120.044 324.426 119.265 324.267 119.274 324.205C119.282 324.143 120.08 324.196 121.364 324.356C122.649 324.515 124.412 324.799 126.353 325.171C128.293 325.543 130.029 325.915 131.296 326.198C132.554 326.473 133.325 326.677 133.316 326.739Z" fill="#263238"/>
<path d="M132.735 328.26C132.726 328.322 131.928 328.242 130.661 328.065C129.394 327.888 127.649 327.604 125.726 327.276C123.804 326.94 122.067 326.612 120.809 326.355C119.551 326.098 118.78 325.903 118.789 325.841C118.798 325.779 119.587 325.859 120.853 326.036C122.12 326.213 123.875 326.497 125.797 326.825C127.729 327.161 129.465 327.489 130.723 327.746C131.973 328.012 132.743 328.198 132.735 328.26Z" fill="#E8505B"/>
<path d="M171.189 342.962C171.021 341.872 170.25 327.05 170.25 327.05L186.029 325.836L186.579 341.172L171.189 342.962Z" fill="#F0F0F0"/>
<path d="M187.738 342.619L187.507 340.883L171.188 342.965L171.879 348.679L172.897 348.617C177.416 348.307 195.836 346.713 198.715 345.428C201.931 344.001 187.738 342.619 187.738 342.619Z" fill="black"/>
<path d="M177.755 347.818C177.356 346.489 176.443 345.319 175.247 344.611C174.051 343.902 172.66 343.627 171.305 343.902L171.872 348.447L177.755 347.818Z" fill="black"/>
<path d="M194.7 343.539C194.7 343.539 199.715 344.328 199.21 345.205C198.705 346.073 180.152 348.385 171.877 348.687L171.859 348.323L193.522 345.816C193.522 345.807 193.761 343.69 194.7 343.539Z" fill="black"/>
<path d="M171.602 348.337C171.602 348.346 171.699 348.346 171.885 348.328C172.124 348.311 172.39 348.293 172.691 348.275C173.498 348.213 174.49 348.134 175.659 348.036C178.167 347.815 181.622 347.46 185.432 346.991C189.242 346.521 192.679 346.016 195.169 345.617C196.329 345.422 197.313 345.263 198.11 345.13C198.403 345.077 198.668 345.024 198.908 344.979C199.094 344.944 199.182 344.917 199.182 344.917C199.182 344.909 199.085 344.917 198.899 344.944C198.66 344.979 198.394 345.015 198.093 345.05C197.295 345.165 196.312 345.307 195.142 345.476C192.653 345.839 189.215 346.317 185.405 346.787C181.595 347.256 178.14 347.629 175.642 347.885C174.472 348.001 173.48 348.107 172.682 348.187C172.381 348.222 172.115 348.249 171.876 348.275C171.699 348.311 171.602 348.328 171.602 348.337Z" fill="#263238"/>
<path d="M193.547 346.061C193.609 346.061 193.565 345.353 193.919 344.582C194.265 343.811 194.823 343.368 194.787 343.324C194.77 343.279 194.114 343.669 193.742 344.502C193.361 345.326 193.503 346.079 193.547 346.061Z" fill="#263238"/>
<path d="M188.458 344.221C188.511 344.248 188.706 343.938 188.892 343.53C189.087 343.132 189.194 342.777 189.149 342.759C189.096 342.733 188.901 343.043 188.715 343.45C188.52 343.858 188.405 344.204 188.458 344.221Z" fill="#263238"/>
<path d="M187.044 343.689C187.088 343.724 187.318 343.521 187.567 343.237C187.815 342.954 187.983 342.688 187.939 342.652C187.894 342.617 187.664 342.821 187.416 343.104C187.177 343.397 187.008 343.654 187.044 343.689Z" fill="#263238"/>
<path d="M186.031 342.266C186.04 342.319 186.421 342.319 186.891 342.266C187.36 342.213 187.732 342.124 187.732 342.071C187.724 342.018 187.343 342.018 186.873 342.071C186.404 342.124 186.023 342.213 186.031 342.266Z" fill="#263238"/>
<path d="M185.61 341.216C185.601 341.269 186.035 341.402 186.593 341.375C187.151 341.349 187.568 341.172 187.55 341.127C187.532 341.074 187.107 341.154 186.575 341.18C186.053 341.198 185.618 341.163 185.61 341.216Z" fill="#263238"/>
<path d="M188.828 342.743C188.828 342.77 189.236 342.761 189.874 342.61C190.193 342.53 190.565 342.406 190.954 342.229C191.149 342.132 191.353 342.052 191.557 341.884C191.654 341.804 191.752 341.689 191.778 341.529C191.805 341.37 191.699 341.201 191.566 341.131C190.503 340.741 189.572 341.423 189.271 341.981C189.103 342.273 189.041 342.539 189.014 342.716C188.996 342.903 189.014 343 189.023 343C189.058 343.009 189.041 342.584 189.386 342.052C189.555 341.795 189.829 341.529 190.21 341.361C190.565 341.201 191.087 341.113 191.468 341.29C191.646 341.396 191.61 341.591 191.442 341.724C191.282 341.857 191.07 341.955 190.884 342.052C190.503 342.238 190.148 342.371 189.847 342.468C189.218 342.654 188.828 342.708 188.828 342.743Z" fill="#263238"/>
<path d="M189.099 342.759C189.116 342.768 189.231 342.484 189.125 342.014C189.072 341.784 188.957 341.527 188.744 341.288C188.531 341.075 188.257 340.792 187.805 340.863C187.566 340.925 187.486 341.217 187.539 341.385C187.583 341.563 187.681 341.713 187.778 341.828C187.964 342.068 188.168 342.263 188.354 342.395C188.718 342.679 188.992 342.768 189.001 342.741C189.019 342.714 188.771 342.581 188.443 342.289C188.283 342.138 188.097 341.952 187.929 341.713C187.761 341.509 187.61 341.128 187.867 341.049C188.124 340.996 188.425 341.217 188.611 341.403C188.806 341.607 188.921 341.837 188.992 342.041C189.125 342.466 189.063 342.75 189.099 342.759Z" fill="#263238"/>
<path d="M171.383 343.848C171.392 343.883 171.844 343.742 172.588 343.742C173.324 343.733 174.378 343.901 175.344 344.495C176.309 345.088 176.938 345.939 177.266 346.603C177.603 347.268 177.683 347.737 177.718 347.729C177.727 347.729 177.718 347.605 177.674 347.401C177.63 347.188 177.541 346.896 177.39 346.55C177.089 345.859 176.451 344.947 175.441 344.335C174.431 343.715 173.332 343.564 172.579 343.609C172.198 343.626 171.897 343.689 171.685 343.742C171.49 343.795 171.374 343.839 171.383 343.848Z" fill="#263238"/>
<path d="M179.602 345.98C179.602 346.033 180.682 346.078 182.003 345.918C183.323 345.767 184.368 345.484 184.359 345.431C184.35 345.378 183.296 345.573 181.985 345.723C180.665 345.874 179.602 345.918 179.602 345.98Z" fill="#263238"/>
<path d="M176.411 346.376C176.376 346.421 176.527 346.589 176.668 346.819C176.81 347.05 176.89 347.254 176.952 347.245C177.005 347.236 177.005 346.979 176.837 346.713C176.677 346.447 176.438 346.332 176.411 346.376Z" fill="#263238"/>
<path d="M175.029 345.027C174.994 345.071 175.118 345.222 175.313 345.373C175.499 345.523 175.685 345.612 175.721 345.568C175.756 345.523 175.632 345.373 175.437 345.222C175.242 345.071 175.056 344.983 175.029 345.027Z" fill="#263238"/>
<path d="M173.228 344.561C173.245 344.614 173.458 344.588 173.715 344.641C173.963 344.685 174.149 344.8 174.193 344.756C174.238 344.721 174.069 344.508 173.759 344.446C173.44 344.384 173.21 344.517 173.228 344.561Z" fill="#263238"/>
<path d="M171.971 344.39C171.953 344.443 172.059 344.514 172.201 344.549C172.343 344.585 172.467 344.567 172.485 344.514C172.502 344.461 172.396 344.39 172.254 344.354C172.112 344.319 171.98 344.337 171.971 344.39Z" fill="#263238"/>
<path d="M185.827 328.448C185.836 328.572 182.336 328.855 178.013 329.068C173.689 329.281 170.181 329.351 170.172 329.227C170.163 329.103 173.663 328.82 177.986 328.607C182.31 328.395 185.818 328.315 185.827 328.448Z" fill="#263238"/>
<path d="M185.829 330.382C185.838 330.506 182.392 330.816 178.139 331.064C173.886 331.312 170.431 331.418 170.422 331.286C170.413 331.162 173.86 330.851 178.112 330.603C182.365 330.355 185.82 330.258 185.829 330.382Z" fill="#E8505B"/>
<path d="M137.45 156.528L138.469 176.046L138.638 193.128L183.601 189.841L181.67 158.406C181.377 151.052 181.236 143.389 181.059 136.602C184.133 135.441 212.679 124.632 214.646 124.349C216.719 124.056 235.414 89.4762 235.414 89.4762C236.007 85.3298 224.755 82.6719 224.755 82.6719C224.755 82.6719 207.293 109.021 205.813 110.501C204.333 111.98 176.983 114.86 176.983 114.86C168.584 112.964 147.32 112.663 142.19 116.437C142.173 116.428 130.54 122.169 137.45 156.528Z" fill="#00B47F"/>
<path d="M208.255 116.429C208.14 116.491 207.422 115.216 206.828 113.541C206.235 111.867 205.703 110.555 205.801 110.502C205.916 110.44 206.633 111.716 207.227 113.39C207.821 115.056 208.352 116.376 208.255 116.429Z" fill="#263238"/>
<path d="M210.216 114.19C210.137 114.261 209.135 113.481 207.877 112.516C206.61 111.55 205.707 110.593 205.804 110.504C205.884 110.434 206.885 111.213 208.143 112.179C209.41 113.145 210.314 114.102 210.216 114.19Z" fill="#263238"/>
<path d="M181.448 114.475C181.456 114.555 180.393 114.555 178.816 115.095C177.257 115.609 175.166 116.805 173.695 118.861C172.224 120.925 171.781 123.291 171.799 124.93C171.808 126.595 172.154 127.605 172.074 127.623C172.047 127.632 171.941 127.393 171.808 126.932C171.675 126.471 171.542 125.789 171.498 124.939C171.401 123.246 171.808 120.774 173.35 118.613C174.891 116.451 177.097 115.264 178.728 114.803C179.552 114.564 180.234 114.466 180.712 114.449C181.191 114.422 181.448 114.449 181.448 114.475Z" fill="#263238"/>
<path d="M168.028 113.853C168.028 113.968 164.83 114.092 160.87 114.118C156.918 114.145 153.711 114.074 153.711 113.959C153.711 113.844 156.909 113.72 160.87 113.693C164.821 113.666 168.02 113.737 168.028 113.853Z" fill="#263238"/>
<path d="M161.154 130.597C161.172 130.589 161.27 130.828 161.473 131.271C161.677 131.705 161.961 132.387 162.616 133.025C162.944 133.326 163.387 133.61 163.91 133.707C164.441 133.822 165.026 133.654 165.531 133.264C166.045 132.883 166.497 132.325 167.153 131.9C167.826 131.483 168.703 131.333 169.545 131.528C170.386 131.714 171.219 132.183 171.804 132.945C172.389 133.707 172.628 134.735 172.522 135.745C172.415 136.755 171.981 137.765 171.237 138.563C170.484 139.36 169.509 139.865 168.579 140.432C167.658 140.981 166.736 141.646 166.32 142.656C165.903 143.666 165.992 144.844 165.894 146.049C165.85 146.652 165.735 147.281 165.469 147.874C165.203 148.459 164.787 148.982 164.282 149.389C163.281 150.222 161.828 150.541 160.552 150.142C159.914 149.956 159.32 149.62 158.833 149.168C158.346 148.707 158.018 148.14 157.726 147.591C157.167 146.51 156.662 145.314 155.59 145.012C154.536 144.711 153.402 145.314 152.179 145.287C150.921 145.261 149.823 144.437 149.353 143.356C148.866 142.257 149.149 140.981 149.849 140.131C150.195 139.697 150.673 139.369 151.169 139.192C151.657 138.997 152.153 138.899 152.613 138.775C153.074 138.651 153.517 138.509 153.872 138.261C154.217 138.013 154.456 137.65 154.545 137.242C154.704 136.418 154.385 135.568 154.244 134.744C153.872 133.034 154.66 131.43 155.688 130.58C156.742 129.676 158.018 129.552 158.931 129.703C159.87 129.853 160.516 130.261 160.889 130.571C161.27 130.89 161.402 131.111 161.402 131.111C161.385 131.129 161.216 130.925 160.827 130.642C160.437 130.367 159.799 129.995 158.895 129.88C158.009 129.756 156.813 129.915 155.847 130.775C154.89 131.599 154.182 133.096 154.554 134.682C154.696 135.479 155.05 136.33 154.882 137.313C154.793 137.801 154.492 138.261 154.075 138.563C153.659 138.855 153.172 139.014 152.702 139.147C151.763 139.404 150.753 139.599 150.15 140.388C149.539 141.132 149.309 142.257 149.725 143.187C150.133 144.109 151.116 144.835 152.179 144.844C153.251 144.888 154.394 144.233 155.706 144.578C156.352 144.756 156.866 145.234 157.221 145.757C157.584 146.279 157.841 146.846 158.124 147.387C158.408 147.927 158.709 148.441 159.134 148.84C159.56 149.239 160.091 149.54 160.667 149.708C161.819 150.063 163.086 149.788 163.981 149.044C164.433 148.68 164.805 148.22 165.035 147.697C165.265 147.183 165.372 146.607 165.425 146.023C165.522 144.871 165.425 143.639 165.894 142.496C166.373 141.345 167.409 140.627 168.34 140.078C169.288 139.519 170.236 139.023 170.918 138.297C171.6 137.579 172.008 136.64 172.114 135.718C172.22 134.797 172.008 133.858 171.494 133.176C170.98 132.485 170.218 132.042 169.447 131.864C168.676 131.678 167.888 131.802 167.277 132.166C166.665 132.547 166.204 133.096 165.655 133.486C165.115 133.902 164.424 134.079 163.839 133.938C163.254 133.805 162.802 133.495 162.466 133.167C161.801 132.476 161.544 131.767 161.367 131.324C161.278 131.094 161.216 130.916 161.181 130.801C161.163 130.668 161.146 130.606 161.154 130.597Z" fill="#263238"/>
<path d="M182.746 170.33C182.746 170.339 182.622 170.384 182.365 170.419C182.109 170.446 181.719 170.463 181.231 170.366C180.744 170.268 180.159 170.056 179.592 169.622C179.008 169.205 178.538 168.496 178.148 167.726C177.732 166.972 177.351 166.051 176.571 165.519C175.765 164.952 174.684 165.263 173.55 165.484C172.983 165.59 172.318 165.635 171.707 165.422C171.096 165.218 170.538 164.82 170.13 164.288C169.722 163.756 169.483 163.065 169.51 162.365C169.536 161.665 169.793 160.983 170.245 160.425C170.679 159.858 171.353 159.504 171.991 159.318C172.628 159.123 173.249 159.016 173.798 158.786C174.338 158.573 174.764 158.175 174.905 157.661C175.056 157.147 174.959 156.571 174.843 156.022C174.728 155.464 174.578 154.914 174.551 154.338C174.516 153.762 174.622 153.213 174.808 152.708C175.171 151.698 175.871 150.918 176.642 150.458C177.422 149.997 178.272 149.864 178.972 149.917C179.681 149.97 180.266 150.174 180.7 150.413C181.134 150.653 181.426 150.901 181.604 151.096C181.781 151.282 181.852 151.397 181.843 151.406C181.807 151.441 181.479 150.989 180.611 150.573C180.186 150.369 179.619 150.201 178.946 150.174C178.281 150.148 177.501 150.289 176.801 150.732C176.102 151.166 175.473 151.902 175.154 152.832C174.994 153.293 174.905 153.798 174.941 154.312C174.967 154.826 175.127 155.357 175.251 155.924C175.375 156.482 175.499 157.12 175.322 157.776C175.154 158.44 174.578 158.963 173.966 159.202C172.761 159.699 171.37 159.69 170.6 160.709C169.811 161.665 169.749 163.092 170.484 164.013C170.83 164.474 171.317 164.828 171.84 165.006C172.363 165.192 172.921 165.165 173.47 165.068C174.019 164.979 174.578 164.828 175.145 164.793C175.712 164.749 176.314 164.882 176.775 165.201C177.696 165.856 178.042 166.831 178.432 167.575C178.813 168.355 179.22 169.001 179.752 169.418C180.266 169.843 180.815 170.073 181.276 170.189C182.206 170.41 182.746 170.277 182.746 170.33Z" fill="#263238"/>
<path d="M141.165 116.947C141.201 116.894 141.546 117.426 142.503 117.727C142.973 117.869 143.611 117.833 144.187 117.408C144.78 117.027 145.268 116.318 146.118 115.84C146.978 115.37 148.147 115.344 149.175 115.831C149.689 116.07 150.176 116.425 150.557 116.894C150.938 117.373 151.204 117.966 151.31 118.595C151.523 119.862 151.151 121.253 150.3 122.343C149.414 123.451 148.094 124.026 146.942 124.771C146.366 125.143 145.835 125.559 145.471 126.091C145.099 126.614 144.922 127.234 144.833 127.863C144.674 129.13 144.825 130.459 144.355 131.672C143.885 132.877 142.884 133.737 141.812 134.1C140.731 134.472 139.606 134.304 138.756 133.896C137.914 133.462 137.223 132.86 136.993 132.08C136.798 131.318 136.966 130.68 136.957 130.184C136.984 129.679 136.815 129.325 136.603 129.165C136.408 128.997 136.257 128.961 136.266 128.935C136.266 128.935 136.417 128.935 136.656 129.094C136.904 129.236 137.134 129.652 137.134 130.184C137.17 130.707 137.046 131.345 137.241 132.009C137.444 132.647 138.109 133.232 138.897 133.604C139.695 133.967 140.723 134.1 141.688 133.746C142.654 133.409 143.549 132.612 143.956 131.531C144.364 130.441 144.222 129.156 144.382 127.81C144.461 127.136 144.665 126.427 145.09 125.825C145.507 125.223 146.092 124.771 146.685 124.39C147.881 123.628 149.148 123.061 149.937 122.068C150.716 121.085 151.071 119.809 150.885 118.675C150.796 118.108 150.566 117.585 150.238 117.16C149.901 116.735 149.467 116.416 149.006 116.185C148.085 115.734 147.031 115.734 146.269 116.141C145.498 116.549 144.975 117.24 144.328 117.638C143.691 118.073 142.946 118.099 142.45 117.913C141.945 117.736 141.617 117.47 141.422 117.284C141.236 117.08 141.157 116.956 141.165 116.947Z" fill="#263238"/>
<path d="M197.083 117.547C197.118 117.538 197.26 117.857 197.535 118.424C197.818 118.965 198.226 119.842 199.183 120.364C199.643 120.613 200.255 120.737 200.813 120.506C201.389 120.294 201.858 119.762 202.425 119.257C202.975 118.734 203.807 118.309 204.684 118.336C205.553 118.336 206.439 118.646 207.148 119.23C207.865 119.806 208.308 120.666 208.441 121.516C208.583 122.367 208.432 123.209 208.158 123.935C207.865 124.662 207.431 125.273 206.917 125.742C206.394 126.203 205.819 126.504 205.296 126.735C204.241 127.169 203.418 127.532 202.966 127.957C202.505 128.374 202.354 128.693 202.31 128.666C202.292 128.657 202.328 128.578 202.399 128.427C202.47 128.276 202.611 128.064 202.833 127.825C203.276 127.337 204.135 126.903 205.145 126.442C205.65 126.203 206.173 125.902 206.643 125.468C207.103 125.025 207.493 124.458 207.75 123.784C207.998 123.12 208.113 122.349 207.989 121.596C207.865 120.834 207.484 120.108 206.846 119.594C206.217 119.08 205.429 118.805 204.676 118.796C203.905 118.779 203.231 119.098 202.691 119.594C202.142 120.063 201.628 120.621 200.928 120.878C200.228 121.144 199.501 120.958 199.005 120.666C197.951 120.037 197.588 119.08 197.349 118.513C197.145 117.901 197.056 117.556 197.083 117.547Z" fill="#263238"/>
<path d="M220.02 90.0008C220.046 90.0185 219.878 90.3286 219.586 90.8868C219.32 91.4361 218.859 92.2955 219.019 93.3675C219.098 93.8903 219.355 94.4485 219.878 94.7674C220.392 95.0952 221.101 95.1661 221.845 95.3167C222.598 95.4408 223.431 95.8572 223.936 96.5748C224.459 97.2748 224.733 98.1696 224.689 99.0822C224.654 100.004 224.228 100.872 223.635 101.483C223.032 102.103 222.27 102.484 221.526 102.697C220.773 102.901 220.011 102.91 219.329 102.777C218.647 102.635 218.062 102.351 217.566 102.068C216.582 101.483 215.811 101.04 215.2 100.925C214.598 100.801 214.243 100.872 214.234 100.828C214.234 100.81 214.314 100.792 214.482 100.757C214.651 100.73 214.899 100.712 215.227 100.748C215.882 100.81 216.742 101.244 217.716 101.776C218.212 102.032 218.771 102.281 219.391 102.396C220.02 102.502 220.711 102.475 221.402 102.281C222.084 102.077 222.766 101.722 223.298 101.164C223.83 100.615 224.193 99.8707 224.219 99.0556C224.255 98.2493 224.007 97.4431 223.564 96.8318C223.121 96.2027 222.456 95.8572 221.748 95.7154C221.048 95.5559 220.286 95.4762 219.665 95.0686C219.036 94.67 218.753 93.9789 218.691 93.3941C218.567 92.1803 219.116 91.3121 219.426 90.7805C219.781 90.2577 220.002 89.9831 220.02 90.0008Z" fill="#263238"/>
<path d="M192.568 132.271C192.551 132.298 192.241 132.147 191.638 131.828L191.656 131.837C191.16 131.669 190.433 131.749 189.538 131.97C189.086 132.068 188.581 132.192 188.006 132.174C187.43 132.147 186.818 131.944 186.296 131.545C185.773 131.155 185.33 130.579 185.135 129.87C184.94 129.162 185.02 128.364 185.374 127.664C185.711 126.964 186.358 126.353 187.137 126.087C187.899 125.795 188.706 125.697 189.397 125.387C189.84 125.183 190.185 124.864 190.345 124.439C190.513 124.023 190.477 123.544 190.407 123.075C190.238 122.144 189.902 121.161 190.07 120.195C190.362 118.273 191.851 116.935 193.259 116.651C194.677 116.35 195.838 116.811 196.476 117.236C196.812 117.449 197.025 117.67 197.167 117.812C197.3 117.972 197.362 118.06 197.344 118.069C197.308 118.104 197.043 117.759 196.387 117.387C195.749 117.032 194.633 116.651 193.339 116.97C192.072 117.263 190.734 118.521 190.495 120.257C190.353 121.117 190.672 122.003 190.858 123.004C190.938 123.5 190.991 124.067 190.788 124.608C190.593 125.157 190.114 125.582 189.609 125.812C188.821 126.167 188.014 126.255 187.323 126.521C186.632 126.76 186.092 127.257 185.791 127.877C185.481 128.479 185.401 129.179 185.56 129.782C185.72 130.393 186.101 130.907 186.553 131.261C187.004 131.616 187.545 131.819 188.05 131.855C188.564 131.881 189.051 131.793 189.503 131.704C190.398 131.518 191.213 131.465 191.727 131.695L191.736 131.704C192.294 132.05 192.586 132.245 192.568 132.271Z" fill="#263238"/>
<path d="M162.937 191.36C162.928 191.369 162.866 191.192 162.973 190.899C163.07 190.607 163.327 190.2 163.823 189.863C164.328 189.535 165.055 189.384 165.87 189.349C166.676 189.296 167.624 189.349 168.537 189.003C169.44 188.649 170.309 187.869 170.707 186.797C171.106 185.734 170.964 184.379 170.22 183.333C169.485 182.261 168.102 181.783 166.827 181.012C166.189 180.622 165.551 180.09 165.188 179.355C164.798 178.637 164.674 177.831 164.585 177.051C164.434 175.492 164.417 173.951 163.548 172.808C162.742 171.665 161.413 170.938 160.146 171.009C158.879 171.08 157.772 171.939 157.293 172.949C157.045 173.463 156.966 174.013 157.045 174.535C157.125 175.058 157.311 175.563 157.444 176.068C157.577 176.573 157.639 177.105 157.497 177.583C157.355 178.062 157.054 178.442 156.726 178.708C156.053 179.249 155.3 179.373 154.733 179.417C154.157 179.444 153.705 179.399 153.413 179.364C153.112 179.328 152.961 179.302 152.961 179.284C152.961 179.231 153.599 179.328 154.724 179.24C155.273 179.178 155.973 179.027 156.567 178.513C156.859 178.265 157.116 177.929 157.223 177.512C157.329 177.096 157.276 176.635 157.143 176.157C157.01 175.678 156.806 175.173 156.709 174.597C156.611 174.013 156.691 173.375 156.966 172.799C157.488 171.656 158.684 170.699 160.137 170.593C161.582 170.504 163.043 171.301 163.938 172.551C164.39 173.171 164.683 173.933 164.815 174.704C164.957 175.474 164.993 176.245 165.072 177.016C165.152 177.778 165.285 178.522 165.622 179.151C165.941 179.789 166.49 180.259 167.101 180.631C168.297 181.375 169.768 181.871 170.61 183.085C171.434 184.255 171.567 185.752 171.106 186.93C170.636 188.109 169.688 188.941 168.687 189.305C167.668 189.668 166.711 189.57 165.914 189.606C165.108 189.615 164.426 189.739 163.947 190.013C163.478 190.297 163.212 190.66 163.097 190.926C162.928 191.192 162.955 191.36 162.937 191.36Z" fill="#263238"/>
<path d="M156.593 191.819C156.566 191.819 156.504 191.571 156.539 191.119C156.548 190.667 156.805 190.029 156.752 189.303C156.717 188.948 156.548 188.567 156.247 188.275C155.955 187.982 155.512 187.796 155.033 187.663C154.546 187.531 154.005 187.451 153.438 187.283C152.871 187.123 152.296 186.822 151.817 186.397C150.86 185.555 150.337 184.359 150.329 183.251C150.311 182.135 150.772 181.196 151.294 180.576C151.826 179.947 152.402 179.601 152.818 179.424C153.244 179.255 153.492 179.238 153.5 179.255C153.545 179.335 152.49 179.539 151.551 180.771C151.099 181.373 150.718 182.25 150.754 183.234C150.78 184.217 151.268 185.289 152.118 186.042C152.96 186.848 154.112 186.946 155.14 187.238C155.653 187.389 156.158 187.61 156.513 187.991C156.867 188.363 157.044 188.833 157.071 189.258C157.089 189.692 156.991 190.056 156.903 190.357C156.814 190.658 156.752 190.915 156.708 191.128C156.637 191.571 156.637 191.819 156.593 191.819Z" fill="#263238"/>
<path d="M136.922 153.701C136.922 153.701 137.09 153.453 137.586 153.214C137.834 153.099 138.189 153.01 138.596 153.099C139.004 153.187 139.42 153.444 139.766 153.861L139.775 153.869L139.784 153.887C140.129 154.693 140.484 155.774 141.414 156.501C141.875 156.846 142.486 157.094 143.097 156.979C143.717 156.873 144.24 156.377 144.781 155.872C145.303 155.358 146.039 154.817 146.916 154.746C147.766 154.658 148.67 154.879 149.423 155.376C150.176 155.863 150.779 156.678 150.982 157.599C151.204 158.521 151.098 159.513 150.726 160.408C150.442 161.099 150.008 161.719 149.467 162.198C148.927 162.676 148.325 163.039 147.749 163.385C146.597 164.049 145.454 164.705 144.931 165.759C144.4 166.805 144.488 168.01 144.4 169.108C144.346 170.207 144.036 171.306 143.39 172.041C142.761 172.785 141.963 173.228 141.219 173.405C140.492 173.591 139.748 173.547 139.305 173.193C138.871 172.856 138.658 172.502 138.499 172.28C138.339 172.059 138.269 171.935 138.277 171.926C138.286 171.917 138.393 172.023 138.57 172.227C138.756 172.422 139.004 172.767 139.411 173.051C139.819 173.343 140.466 173.361 141.157 173.166C141.848 172.98 142.583 172.546 143.141 171.846C143.726 171.146 143.983 170.18 144.019 169.099C144.098 168.036 143.965 166.787 144.55 165.582C145.791 163.11 149.317 162.951 150.309 160.24C150.646 159.425 150.743 158.53 150.539 157.715C150.353 156.891 149.848 156.2 149.175 155.757C148.511 155.305 147.704 155.101 146.96 155.181C146.198 155.234 145.596 155.668 145.046 156.173C144.506 156.66 143.921 157.218 143.159 157.351C142.397 157.475 141.706 157.165 141.21 156.775C140.191 155.925 139.881 154.8 139.562 153.985L139.58 154.011C139.296 153.639 138.924 153.382 138.57 153.293C138.215 153.196 137.888 153.249 137.648 153.347C137.152 153.515 136.94 153.728 136.922 153.701Z" fill="#263238"/>
<path d="M139.677 190.669L117 331.5L134.5 335L158.5 231L167.5 339.5H188.5L182.931 184.367L139.677 190.669Z" fill="#122C38"/>
<path d="M181.342 195.998C181.218 196.014 181.094 195.5 181.067 194.863C181.041 194.225 181.129 193.68 181.253 193.664C181.377 193.649 181.501 194.162 181.528 194.8C181.546 195.438 181.466 195.983 181.342 195.998Z" fill="#263238"/>
<path d="M181.697 205.122C181.573 205.137 181.423 204.126 181.378 202.866C181.325 201.605 181.387 200.578 181.52 200.563C181.644 200.547 181.795 201.559 181.839 202.819C181.883 204.064 181.821 205.106 181.697 205.122Z" fill="#263238"/>
<path d="M182.066 214.231C181.942 214.247 181.791 213.235 181.738 211.975C181.685 210.715 181.747 209.688 181.871 209.672C181.995 209.656 182.145 210.668 182.199 211.928C182.252 213.189 182.199 214.215 182.066 214.231Z" fill="#263238"/>
<path d="M182.465 223.348C182.341 223.364 182.191 222.352 182.138 221.108C182.084 219.847 182.138 218.82 182.27 218.805C182.394 218.789 182.545 219.801 182.598 221.045C182.651 222.306 182.589 223.333 182.465 223.348Z" fill="#263238"/>
<path d="M182.884 232.458C182.76 232.473 182.61 231.477 182.548 230.217C182.486 228.957 182.548 227.93 182.672 227.914C182.796 227.899 182.946 228.895 183.008 230.155C183.062 231.4 183.008 232.427 182.884 232.458Z" fill="#263238"/>
<path d="M183.316 241.551C183.192 241.567 183.032 240.571 182.979 239.311C182.917 238.05 182.97 237.023 183.103 236.992C183.227 236.977 183.386 237.973 183.44 239.233C183.493 240.493 183.44 241.536 183.316 241.551Z" fill="#263238"/>
<path d="M183.77 250.669C183.646 250.684 183.486 249.688 183.424 248.428C183.362 247.168 183.416 246.141 183.54 246.11C183.664 246.094 183.823 247.09 183.885 248.35C183.947 249.61 183.894 250.653 183.77 250.669Z" fill="#263238"/>
<path d="M184.248 259.77C184.124 259.786 183.965 258.79 183.903 257.53C183.841 256.269 183.885 255.242 184.009 255.211C184.133 255.196 184.293 256.191 184.355 257.452C184.417 258.712 184.372 259.755 184.248 259.77Z" fill="#263238"/>
<path d="M184.738 268.88C184.614 268.896 184.454 267.9 184.383 266.639C184.312 265.379 184.366 264.352 184.49 264.321C184.614 264.29 184.773 265.301 184.844 266.562C184.915 267.822 184.871 268.849 184.738 268.88Z" fill="#263238"/>
<path d="M185.249 277.958C185.125 277.973 184.965 276.977 184.885 275.717C184.815 274.457 184.859 273.43 184.983 273.399C185.107 273.383 185.266 274.379 185.346 275.639C185.417 276.9 185.373 277.942 185.249 277.958Z" fill="#263238"/>
<path d="M185.782 287.067C185.658 287.083 185.489 286.087 185.419 284.842C185.348 283.582 185.383 282.555 185.516 282.524C185.64 282.508 185.808 283.504 185.879 284.749C185.95 285.993 185.915 287.036 185.782 287.067Z" fill="#263238"/>
<path d="M186.342 296.154C186.218 296.185 186.049 295.173 185.97 293.929C185.89 292.668 185.934 291.641 186.058 291.61C186.182 291.579 186.351 292.59 186.43 293.835C186.501 295.08 186.466 296.122 186.342 296.154Z" fill="#263238"/>
<path d="M186.906 305.224C186.782 305.255 186.614 304.259 186.534 302.999C186.455 301.738 186.49 300.712 186.623 300.68C186.756 300.649 186.915 301.645 186.995 302.905C187.075 304.166 187.031 305.208 186.906 305.224Z" fill="#263238"/>
<path d="M187.346 312.078C187.222 312.109 187.08 311.611 187.045 310.957C187 310.319 187.071 309.775 187.195 309.759C187.319 309.728 187.461 310.226 187.496 310.879C187.541 311.517 187.47 312.062 187.346 312.078Z" fill="#263238"/>
</g>
<defs>
<clipPath id="clip0_2385_3406">
<rect width="690" height="350" fill="white"/>
</clipPath>
</defs>
</svg>
