<svg width="690" height="350" viewBox="0 0 690 350" fill="none" xmlns="http://www.w3.org/2000/svg">
<g clip-path="url(#clip0_2173_7460)">
<path d="M589.81 38H521.41V127.2L589.81 128.91V38Z" fill="#E0E0E0"/>
<path d="M585.309 41.1719H525.449V122.072L585.309 124.092V41.1719Z" fill="#FAFAFA"/>
<path d="M574.819 55.8694L535.109 54.3594V110.899H574.819V55.8694Z" fill="#E0E0E0"/>
<path d="M535.109 110.899L574.819 81.8494L535.109 54.3594V110.899Z" fill="#EBEBEB"/>
<path d="M142.74 78.9062H57.9805V338.556H142.74V78.9062Z" fill="#EBEBEB"/>
<path d="M209.47 79.7344H142.48V338.554H209.47V79.7344Z" fill="#F5F5F5"/>
<path d="M134.431 120.453H62.5312V140.693H134.431V120.453Z" fill="#E0E0E0"/>
<path d="M68.571 123H64.541V138.49H68.571V123Z" fill="#F5F5F5"/>
<path d="M73.312 126.264C73.312 126.974 72.742 127.544 72.032 127.544C71.322 127.544 70.752 126.974 70.752 126.264C70.752 125.554 71.322 124.984 72.032 124.984C72.732 124.984 73.312 125.554 73.312 126.264Z" fill="#FAFAFA"/>
<path d="M73.312 131.733C73.312 132.443 72.742 133.013 72.032 133.013C71.322 133.013 70.752 132.443 70.752 131.733C70.752 131.023 71.322 130.453 72.032 130.453C72.732 130.453 73.312 131.023 73.312 131.733Z" fill="#FAFAFA"/>
<path d="M82.3819 124.984H78.4219V136.884H82.3819V124.984Z" fill="#F5F5F5"/>
<path d="M88.1006 124.984H84.1406V136.884H88.1006V124.984Z" fill="#F5F5F5"/>
<path d="M93.8116 124.984H89.8516V136.884H93.8116V124.984Z" fill="#F5F5F5"/>
<path d="M99.5303 124.984H95.5703V136.884H99.5303V124.984Z" fill="#F5F5F5"/>
<path d="M105.241 124.984H101.281V136.884H105.241V124.984Z" fill="#F5F5F5"/>
<path d="M110.962 124.984H107.002V136.884H110.962V124.984Z" fill="#F5F5F5"/>
<path d="M116.671 124.984H112.711V136.884H116.671V124.984Z" fill="#F5F5F5"/>
<path d="M122.392 124.984H118.432V136.884H122.392V124.984Z" fill="#F5F5F5"/>
<path d="M128.101 124.984H124.141V136.884H128.101V124.984Z" fill="#F5F5F5"/>
<path d="M133.821 124.984H129.861V136.884H133.821V124.984Z" fill="#F5F5F5"/>
<path d="M134.431 152.883H62.5312V173.123H134.431V152.883Z" fill="#E0E0E0"/>
<path d="M68.571 155.422H64.541V170.912H68.571V155.422Z" fill="#F5F5F5"/>
<path d="M73.312 158.686C73.312 159.396 72.742 159.966 72.032 159.966C71.322 159.966 70.752 159.396 70.752 158.686C70.752 157.976 71.322 157.406 72.032 157.406C72.732 157.406 73.312 157.976 73.312 158.686Z" fill="#FAFAFA"/>
<path d="M73.312 164.163C73.312 164.873 72.742 165.443 72.032 165.443C71.322 165.443 70.752 164.873 70.752 164.163C70.752 163.453 71.322 162.883 72.032 162.883C72.732 162.883 73.312 163.453 73.312 164.163Z" fill="#FAFAFA"/>
<path d="M82.3819 157.406H78.4219V169.306H82.3819V157.406Z" fill="#F5F5F5"/>
<path d="M88.1006 157.406H84.1406V169.306H88.1006V157.406Z" fill="#F5F5F5"/>
<path d="M93.8116 157.406H89.8516V169.306H93.8116V157.406Z" fill="#F5F5F5"/>
<path d="M99.5303 157.406H95.5703V169.306H99.5303V157.406Z" fill="#F5F5F5"/>
<path d="M105.241 157.406H101.281V169.306H105.241V157.406Z" fill="#F5F5F5"/>
<path d="M110.962 157.406H107.002V169.306H110.962V157.406Z" fill="#F5F5F5"/>
<path d="M116.671 157.406H112.711V169.306H116.671V157.406Z" fill="#F5F5F5"/>
<path d="M122.392 157.406H118.432V169.306H122.392V157.406Z" fill="#F5F5F5"/>
<path d="M128.101 157.406H124.141V169.306H128.101V157.406Z" fill="#F5F5F5"/>
<path d="M133.821 157.406H129.861V169.306H133.821V157.406Z" fill="#F5F5F5"/>
<path d="M134.431 185.305H62.5312V205.545H134.431V185.305Z" fill="#E0E0E0"/>
<path d="M68.571 187.852H64.541V203.342H68.571V187.852Z" fill="#F5F5F5"/>
<path d="M73.312 191.108C73.312 191.818 72.742 192.388 72.032 192.388C71.322 192.388 70.752 191.818 70.752 191.108C70.752 190.398 71.322 189.828 72.032 189.828C72.732 189.828 73.312 190.408 73.312 191.108Z" fill="#FAFAFA"/>
<path d="M73.312 196.585C73.312 197.295 72.742 197.865 72.032 197.865C71.322 197.865 70.752 197.295 70.752 196.585C70.752 195.875 71.322 195.305 72.032 195.305C72.732 195.305 73.312 195.875 73.312 196.585Z" fill="#FAFAFA"/>
<path d="M82.3819 189.828H78.4219V201.728H82.3819V189.828Z" fill="#F5F5F5"/>
<path d="M88.1006 189.828H84.1406V201.728H88.1006V189.828Z" fill="#F5F5F5"/>
<path d="M93.8116 189.828H89.8516V201.728H93.8116V189.828Z" fill="#F5F5F5"/>
<path d="M99.5303 189.828H95.5703V201.728H99.5303V189.828Z" fill="#F5F5F5"/>
<path d="M105.241 189.828H101.281V201.728H105.241V189.828Z" fill="#F5F5F5"/>
<path d="M110.962 189.828H107.002V201.728H110.962V189.828Z" fill="#F5F5F5"/>
<path d="M116.671 189.828H112.711V201.728H116.671V189.828Z" fill="#F5F5F5"/>
<path d="M122.392 189.828H118.432V201.728H122.392V189.828Z" fill="#F5F5F5"/>
<path d="M128.101 189.828H124.141V201.728H128.101V189.828Z" fill="#F5F5F5"/>
<path d="M133.821 189.828H129.861V201.728H133.821V189.828Z" fill="#F5F5F5"/>
<path d="M134.431 217.727H62.5312V237.967H134.431V217.727Z" fill="#E0E0E0"/>
<path d="M68.571 220.273H64.541V235.763H68.571V220.273Z" fill="#F5F5F5"/>
<path d="M73.312 223.538C73.312 224.248 72.742 224.818 72.032 224.818C71.322 224.818 70.752 224.248 70.752 223.538C70.752 222.828 71.322 222.258 72.032 222.258C72.732 222.258 73.312 222.828 73.312 223.538Z" fill="#FAFAFA"/>
<path d="M73.312 229.007C73.312 229.717 72.742 230.287 72.032 230.287C71.322 230.287 70.752 229.717 70.752 229.007C70.752 228.297 71.322 227.727 72.032 227.727C72.732 227.727 73.312 228.307 73.312 229.007Z" fill="#FAFAFA"/>
<path d="M82.3819 222.258H78.4219V234.158H82.3819V222.258Z" fill="#F5F5F5"/>
<path d="M88.1006 222.258H84.1406V234.158H88.1006V222.258Z" fill="#F5F5F5"/>
<path d="M93.8116 222.258H89.8516V234.158H93.8116V222.258Z" fill="#F5F5F5"/>
<path d="M99.5303 222.258H95.5703V234.158H99.5303V222.258Z" fill="#F5F5F5"/>
<path d="M105.241 222.258H101.281V234.158H105.241V222.258Z" fill="#F5F5F5"/>
<path d="M110.962 222.258H107.002V234.158H110.962V222.258Z" fill="#F5F5F5"/>
<path d="M116.671 222.258H112.711V234.158H116.671V222.258Z" fill="#F5F5F5"/>
<path d="M122.392 222.258H118.432V234.158H122.392V222.258Z" fill="#F5F5F5"/>
<path d="M128.101 222.258H124.141V234.158H128.101V222.258Z" fill="#F5F5F5"/>
<path d="M133.821 222.258H129.861V234.158H133.821V222.258Z" fill="#F5F5F5"/>
<path d="M134.431 250.156H62.5312V270.396H134.431V250.156Z" fill="#E0E0E0"/>
<path d="M68.571 252.695H64.541V268.185H68.571V252.695Z" fill="#F5F5F5"/>
<path d="M73.312 255.96C73.312 256.67 72.742 257.24 72.032 257.24C71.322 257.24 70.752 256.67 70.752 255.96C70.752 255.25 71.322 254.68 72.032 254.68C72.732 254.68 73.312 255.25 73.312 255.96Z" fill="#FAFAFA"/>
<path d="M73.312 261.436C73.312 262.146 72.742 262.716 72.032 262.716C71.322 262.716 70.752 262.146 70.752 261.436C70.752 260.726 71.322 260.156 72.032 260.156C72.732 260.156 73.312 260.726 73.312 261.436Z" fill="#FAFAFA"/>
<path d="M82.3819 254.68H78.4219V266.58H82.3819V254.68Z" fill="#F5F5F5"/>
<path d="M88.1006 254.68H84.1406V266.58H88.1006V254.68Z" fill="#F5F5F5"/>
<path d="M93.8116 254.68H89.8516V266.58H93.8116V254.68Z" fill="#F5F5F5"/>
<path d="M99.5303 254.68H95.5703V266.58H99.5303V254.68Z" fill="#F5F5F5"/>
<path d="M105.241 254.68H101.281V266.58H105.241V254.68Z" fill="#F5F5F5"/>
<path d="M110.962 254.68H107.002V266.58H110.962V254.68Z" fill="#F5F5F5"/>
<path d="M116.671 254.68H112.711V266.58H116.671V254.68Z" fill="#F5F5F5"/>
<path d="M122.392 254.68H118.432V266.58H122.392V254.68Z" fill="#F5F5F5"/>
<path d="M128.101 254.68H124.141V266.58H128.101V254.68Z" fill="#F5F5F5"/>
<path d="M133.821 254.68H129.861V266.58H133.821V254.68Z" fill="#F5F5F5"/>
<path d="M134.431 282.578H62.5312V302.818H134.431V282.578Z" fill="#E0E0E0"/>
<path d="M68.571 285.125H64.541V300.615H68.571V285.125Z" fill="#F5F5F5"/>
<path d="M73.312 288.389C73.312 289.099 72.742 289.669 72.032 289.669C71.322 289.669 70.752 289.099 70.752 288.389C70.752 287.679 71.322 287.109 72.032 287.109C72.732 287.109 73.312 287.679 73.312 288.389Z" fill="#FAFAFA"/>
<path d="M73.312 293.858C73.312 294.568 72.742 295.138 72.032 295.138C71.322 295.138 70.752 294.568 70.752 293.858C70.752 293.148 71.322 292.578 72.032 292.578C72.732 292.578 73.312 293.148 73.312 293.858Z" fill="#FAFAFA"/>
<path d="M82.3819 287.109H78.4219V299.009H82.3819V287.109Z" fill="#F5F5F5"/>
<path d="M88.1006 287.109H84.1406V299.009H88.1006V287.109Z" fill="#F5F5F5"/>
<path d="M93.8116 287.109H89.8516V299.009H93.8116V287.109Z" fill="#F5F5F5"/>
<path d="M99.5303 287.109H95.5703V299.009H99.5303V287.109Z" fill="#F5F5F5"/>
<path d="M105.241 287.109H101.281V299.009H105.241V287.109Z" fill="#F5F5F5"/>
<path d="M110.962 287.109H107.002V299.009H110.962V287.109Z" fill="#F5F5F5"/>
<path d="M116.671 287.109H112.711V299.009H116.671V287.109Z" fill="#F5F5F5"/>
<path d="M122.392 287.109H118.432V299.009H122.392V287.109Z" fill="#F5F5F5"/>
<path d="M128.101 287.109H124.141V299.009H128.101V287.109Z" fill="#F5F5F5"/>
<path d="M133.821 287.109H129.861V299.009H133.821V287.109Z" fill="#F5F5F5"/>
<path d="M134.431 315.008H62.5312V335.248H134.431V315.008Z" fill="#E0E0E0"/>
<path d="M68.571 317.547H64.541V333.037H68.571V317.547Z" fill="#F5F5F5"/>
<path d="M73.312 320.811C73.312 321.521 72.742 322.091 72.032 322.091C71.322 322.091 70.752 321.521 70.752 320.811C70.752 320.101 71.322 319.531 72.032 319.531C72.732 319.531 73.312 320.101 73.312 320.811Z" fill="#FAFAFA"/>
<path d="M73.312 326.28C73.312 326.99 72.742 327.56 72.032 327.56C71.322 327.56 70.752 326.99 70.752 326.28C70.752 325.57 71.322 325 72.032 325C72.732 325 73.312 325.58 73.312 326.28Z" fill="#FAFAFA"/>
<path d="M82.3819 319.531H78.4219V331.431H82.3819V319.531Z" fill="#F5F5F5"/>
<path d="M88.1006 319.531H84.1406V331.431H88.1006V319.531Z" fill="#F5F5F5"/>
<path d="M93.8116 319.531H89.8516V331.431H93.8116V319.531Z" fill="#F5F5F5"/>
<path d="M99.5303 319.531H95.5703V331.431H99.5303V319.531Z" fill="#F5F5F5"/>
<path d="M105.241 319.531H101.281V331.431H105.241V319.531Z" fill="#F5F5F5"/>
<path d="M110.962 319.531H107.002V331.431H110.962V319.531Z" fill="#F5F5F5"/>
<path d="M116.671 319.531H112.711V331.431H116.671V319.531Z" fill="#F5F5F5"/>
<path d="M122.392 319.531H118.432V331.431H122.392V319.531Z" fill="#F5F5F5"/>
<path d="M128.101 319.531H124.141V331.431H128.101V319.531Z" fill="#F5F5F5"/>
<path d="M133.821 319.531H129.861V331.431H133.821V319.531Z" fill="#F5F5F5"/>
<path d="M107 120.459C106.98 120.459 106.95 120.249 106.92 119.839C106.89 119.429 106.86 118.819 106.84 118.039C106.82 117.259 106.8 116.299 106.75 115.199C106.68 114.099 106.61 112.829 106.25 111.509C105.87 110.189 105.27 108.779 104.33 107.469C103.4 106.159 102.08 104.989 100.4 104.309C98.7301 103.619 96.8101 103.359 94.8201 103.179C92.8201 103.009 90.7501 102.829 88.6301 102.639C80.1401 101.899 72.4501 101.429 66.8701 101.319C64.0801 101.259 61.8201 101.269 60.2601 101.279C59.5201 101.289 58.9301 101.289 58.4601 101.289C58.0501 101.289 57.8301 101.279 57.8301 101.259C57.8301 101.239 58.0401 101.219 58.4501 101.179C58.9201 101.149 59.5101 101.109 60.2501 101.069C61.8101 100.999 64.0701 100.929 66.8701 100.949C72.4601 100.959 80.1801 101.379 88.6701 102.119C90.7901 102.309 92.8601 102.489 94.8701 102.669C96.8701 102.859 98.8401 103.129 100.59 103.869C102.35 104.589 103.74 105.849 104.69 107.219C105.65 108.589 106.24 110.049 106.61 111.409C106.96 112.799 107 114.069 107.04 115.179C107.07 116.289 107.05 117.249 107.04 118.029C107.03 118.769 107.02 119.359 107.02 119.829C107.02 120.249 107.01 120.459 107 120.459Z" fill="#E0E0E0"/>
<path d="M85.1805 120.456C85.1605 120.456 85.1505 120.256 85.1305 119.866C85.1205 119.426 85.1205 118.866 85.1105 118.176C85.1005 117.446 85.1005 116.546 85.0205 115.516C84.9205 114.496 84.7605 113.296 84.1305 112.186C83.5105 111.086 82.2805 110.256 80.8905 109.696C79.4905 109.146 77.8305 108.926 76.1705 109.216C75.3405 109.356 74.5005 109.626 73.7305 110.046C72.9705 110.466 72.2605 111.056 71.8405 111.836C71.4105 112.606 71.3905 113.556 71.8505 114.346C72.2905 115.126 73.0905 115.746 73.9905 115.956C74.8905 116.176 75.8305 115.866 76.4905 115.236C77.1505 114.616 77.5505 113.736 77.6105 112.856C77.7005 111.966 77.3705 111.136 76.8605 110.416C76.3605 109.706 75.7005 109.126 74.9705 108.746C74.2505 108.336 73.4205 108.276 72.6005 108.136C71.7905 108.016 71.0005 107.906 70.2405 107.826C68.7105 107.656 67.2805 107.556 65.9705 107.496C63.3505 107.396 61.2305 107.426 59.7605 107.426C59.0705 107.426 58.5105 107.416 58.0705 107.416C57.6805 107.406 57.4805 107.396 57.4805 107.376C57.4805 107.356 57.6805 107.336 58.0705 107.306C58.5105 107.286 59.0705 107.256 59.7605 107.216C61.2305 107.156 63.3505 107.066 65.9905 107.116C67.3105 107.146 68.7505 107.226 70.2905 107.386C71.0605 107.466 71.8605 107.566 72.6705 107.676C73.0805 107.736 73.4905 107.796 73.9205 107.866C74.3605 107.946 74.7905 108.106 75.1905 108.306C76.0005 108.716 76.7205 109.346 77.2705 110.116C77.8205 110.866 78.2205 111.866 78.1205 112.876C78.0505 113.876 77.6005 114.866 76.8405 115.596C76.1005 116.326 74.9405 116.716 73.8705 116.446C72.8105 116.196 71.9105 115.496 71.4005 114.586C70.8605 113.666 70.8805 112.466 71.4005 111.586C71.8905 110.686 72.6805 110.056 73.5005 109.606C74.3305 109.156 75.2205 108.886 76.1005 108.736C77.8605 108.446 79.6005 108.696 81.0605 109.286C82.5005 109.886 83.7905 110.776 84.4605 111.996C85.1105 113.206 85.2405 114.446 85.3205 115.486C85.3705 116.536 85.3505 117.436 85.3205 118.176C85.2905 118.866 85.2705 119.426 85.2505 119.866C85.2205 120.256 85.2005 120.456 85.1805 120.456Z" fill="#E0E0E0"/>
<path d="M112.87 120.458C112.85 120.458 112.8 120.228 112.72 119.788C112.64 119.348 112.52 118.698 112.34 117.868C111.97 116.208 111.4 113.808 110.21 111.018C109.04 108.248 107.16 105.038 103.96 102.628C102.4 101.408 100.38 100.738 98.2398 100.448C96.0998 100.138 93.8198 100.148 91.4998 100.088C82.2098 99.9078 73.7898 99.9478 67.6898 99.6978C64.6398 99.5878 62.1798 99.4478 60.4798 99.3178C59.6698 99.2478 59.0198 99.1878 58.5198 99.1478C58.0698 99.1078 57.8398 99.0678 57.8398 99.0478C57.8398 99.0278 58.0798 99.0278 58.5298 99.0378C59.0298 99.0578 59.6798 99.0778 60.4898 99.1078C62.1898 99.1678 64.6498 99.2578 67.6998 99.3178C73.7898 99.4678 82.1998 99.3778 91.5098 99.5478C93.8298 99.6178 96.1098 99.5978 98.3098 99.9278C100.49 100.228 102.63 100.938 104.25 102.228C105.86 103.488 107.21 104.908 108.21 106.418C109.23 107.918 109.97 109.438 110.55 110.848C111.71 113.688 112.23 116.128 112.53 117.808C112.68 118.648 112.77 119.308 112.82 119.748C112.87 120.228 112.88 120.458 112.87 120.458Z" fill="#E0E0E0"/>
<path d="M133.44 82.1328H63.5195V92.2828H133.44V82.1328Z" fill="#E0E0E0"/>
<path d="M116.97 87.2031H78.9004V92.2831H116.97V87.2031Z" fill="#F5F5F5"/>
<path d="M668.8 337.747C668.8 337.747 668.25 337.767 667.18 337.777C666.1 337.787 664.5 337.807 662.42 337.817C658.22 337.847 652.05 337.887 644.1 337.937C628.18 338.017 605.16 338.127 576.72 338.267C519.82 338.447 441.22 338.687 354.41 338.957C267.57 339.137 188.96 339.167 132.06 338.987C103.61 338.897 80.5903 338.747 64.6803 338.547C56.7303 338.447 50.5503 338.327 46.3603 338.187C42.1803 338.057 39.9703 337.877 40.0003 337.747C40.0103 337.737 40.1303 337.807 40.4003 337.827C40.6703 337.857 41.0703 337.887 41.6103 337.917C42.6803 337.977 44.2803 338.027 46.3703 338.087C50.5603 338.187 56.7303 338.277 64.6903 338.347C80.6003 338.487 103.62 338.577 132.07 338.627C188.97 338.717 267.57 338.627 354.41 338.447C441.22 338.237 519.81 338.047 576.72 337.907C605.16 337.837 628.18 337.787 644.1 337.747C652.05 337.737 658.23 337.727 662.42 337.727C664.51 337.727 666.1 337.737 667.18 337.737C668.25 337.737 668.8 337.747 668.8 337.747Z" fill="#263238"/>
<path d="M520.54 114.281C519.89 111.871 517.12 110.261 514.7 110.871C513.78 111.101 512.91 111.611 511.96 111.561C511.13 111.521 510.39 111.051 509.63 110.731C506.06 109.221 501.43 111.241 500.12 114.891C497.79 113.591 494.68 113.831 492.58 115.491C490.48 117.141 489.51 120.101 490.23 122.671C487.72 123.141 485.65 125.381 485.38 127.921C485.12 130.461 486.68 133.081 489.04 134.051C487.98 135.961 487.92 138.391 488.9 140.341C489.88 142.291 491.86 143.701 494.03 143.991C493.68 146.341 494.85 148.851 496.87 150.091C498.89 151.341 501.66 151.251 503.6 149.881C504.15 152.151 506.12 154.021 508.43 154.441C510.73 154.861 513.24 153.801 514.55 151.871C516.62 153.981 520.38 153.671 522.56 151.671C524.74 149.671 525.47 146.471 525.14 143.531C527.68 144.291 530.65 143.251 532.16 141.081C533.67 138.901 533.59 135.751 531.98 133.651C534.16 133.511 536.09 131.831 536.74 129.751C537.39 127.671 536.85 125.311 535.53 123.571C534.21 121.831 532.2 120.701 530.07 120.221C529.72 118.251 528.51 116.451 526.82 115.391C525.13 114.331 522.98 114.021 521.05 114.561" fill="#263238"/>
<path d="M512.521 255.859L510.051 334.899H506.291L507.021 256.069L512.521 255.859Z" fill="#282B35"/>
<path d="M526.1 254.906L544.67 338.326L548.69 338.126L533.36 254.906H526.1Z" fill="#282B35"/>
<path d="M491.82 255.858L470.18 338.328L465.41 338.128L485.75 255.508L491.82 255.858Z" fill="#282B35"/>
<path d="M544.45 174.064C544.45 174.064 564.65 172.914 562.63 196.284C560.61 219.654 559.46 243.314 551.95 251.394C544.45 259.474 468.85 259.764 462.51 253.124C456.16 246.484 474.63 246.774 478.09 246.774C481.55 246.774 502.9 248.794 509.83 230.614C516.75 212.434 515.02 172.904 544.45 174.064Z" fill="#282B35"/>
<path d="M545.749 174.07C545.749 174.07 561.189 177.23 559.749 193.39C558.309 209.55 554.269 237.82 546.769 245.04C539.269 252.25 509.869 253.83 493.969 252.83C475.499 251.68 463.849 248.16 463.849 248.16C463.849 248.16 460.479 250.33 461.499 251.72C462.519 253.11 471.519 258.73 515.169 257.79C558.819 256.85 555.779 250.42 557.589 243.38C559.399 236.35 563.199 198.84 562.679 190.6C562.139 182.35 557.989 175.52 545.749 174.07Z" fill="#282B35"/>
<path d="M452.751 333.308L452.701 324.108L469.921 323.898L470.141 337.348L469.071 337.428C464.321 337.748 444.901 338.728 441.711 337.808C438.161 336.778 452.751 333.308 452.751 333.308Z" fill="#FF6726"/>
<g opacity="0.4">
<g opacity="0.4">
<path opacity="0.4" d="M463.9 337.302C464.13 335.862 464.91 334.512 466.05 333.602C467.19 332.692 468.6 332.202 470.06 332.302L470.12 337.112L463.9 337.302Z" fill="black"/>
</g>
</g>
<path opacity="0.4" d="M445.63 335.258C445.63 335.258 440.52 336.798 441.17 337.638C441.82 338.478 461.48 338.228 470.15 337.358L470.12 336.978L447.19 337.468C447.18 337.458 446.63 335.288 445.63 335.258Z" fill="black"/>
<path d="M470.38 336.955C470.38 336.965 470.28 336.975 470.08 336.995C469.82 337.015 469.55 337.035 469.23 337.055C468.38 337.105 467.33 337.165 466.1 337.225C463.46 337.355 459.8 337.485 455.77 337.535C451.73 337.585 448.08 337.555 445.43 337.505C444.2 337.465 443.15 337.435 442.3 337.415C441.98 337.405 441.7 337.385 441.45 337.375C441.26 337.365 441.15 337.355 441.15 337.345C441.15 337.335 441.25 337.335 441.45 337.335C441.71 337.335 441.99 337.335 442.3 337.335C443.15 337.345 444.2 337.345 445.43 337.355C448.07 337.375 451.73 337.385 455.76 337.325C459.79 337.275 463.45 337.165 466.09 337.075C467.32 337.035 468.37 336.995 469.22 336.965C469.54 336.955 469.82 336.945 470.07 336.945C470.28 336.945 470.38 336.945 470.38 336.955Z" fill="#263238"/>
<path d="M447.18 337.73C447.12 337.74 447.06 336.99 446.58 336.24C446.11 335.48 445.46 335.11 445.5 335.06C445.51 335.01 446.25 335.32 446.76 336.13C447.27 336.93 447.24 337.74 447.18 337.73Z" fill="#263238"/>
<path d="M452.231 335.078C452.181 335.108 451.931 334.818 451.681 334.428C451.421 334.038 451.261 333.688 451.301 333.658C451.351 333.628 451.601 333.918 451.851 334.308C452.111 334.708 452.281 335.048 452.231 335.078Z" fill="#263238"/>
<path d="M453.62 334.331C453.58 334.371 453.31 334.201 453.01 333.931C452.71 333.671 452.5 333.421 452.54 333.381C452.58 333.341 452.85 333.511 453.15 333.781C453.44 334.041 453.66 334.291 453.62 334.331Z" fill="#263238"/>
<path d="M454.48 332.691C454.48 332.751 454.08 332.801 453.58 332.821C453.08 332.831 452.68 332.791 452.68 332.741C452.68 332.681 453.08 332.631 453.58 332.611C454.07 332.601 454.48 332.631 454.48 332.691Z" fill="#263238"/>
<path d="M454.771 331.541C454.791 331.591 454.351 331.791 453.771 331.841C453.191 331.891 452.721 331.771 452.731 331.721C452.741 331.661 453.191 331.691 453.751 331.641C454.301 331.591 454.751 331.481 454.771 331.541Z" fill="#263238"/>
<path d="M451.631 333.586C451.631 333.606 451.211 333.666 450.521 333.596C450.181 333.556 449.771 333.486 449.341 333.356C449.121 333.286 448.901 333.226 448.661 333.086C448.551 333.016 448.431 332.916 448.381 332.746C448.331 332.576 448.421 332.396 448.541 332.306C449.591 331.746 450.661 332.326 451.061 332.866C451.281 333.146 451.381 333.416 451.431 333.596C451.481 333.786 451.471 333.896 451.461 333.896C451.421 333.906 451.381 333.466 450.941 332.956C450.731 332.706 450.401 332.476 449.991 332.356C449.601 332.246 449.041 332.216 448.671 332.466C448.501 332.596 448.571 332.807 448.761 332.917C448.941 333.037 449.181 333.096 449.391 333.176C449.811 333.316 450.201 333.406 450.531 333.456C451.211 333.556 451.631 333.556 451.631 333.586Z" fill="#263238"/>
<path d="M451.34 333.645C451.32 333.655 451.16 333.375 451.2 332.875C451.22 332.635 451.31 332.335 451.49 332.065C451.68 331.815 451.93 331.475 452.4 331.485C452.66 331.515 452.79 331.805 452.75 331.995C452.73 332.185 452.65 332.355 452.57 332.495C452.41 332.775 452.23 332.995 452.06 333.175C451.72 333.515 451.44 333.655 451.43 333.635C451.41 333.605 451.65 333.435 451.95 333.075C452.1 332.895 452.26 332.675 452.4 332.405C452.55 332.165 452.65 331.745 452.37 331.705C452.09 331.685 451.81 331.965 451.65 332.185C451.48 332.425 451.39 332.685 451.35 332.905C451.27 333.345 451.38 333.635 451.34 333.645Z" fill="#263238"/>
<path d="M469.97 332.249C469.97 332.289 469.48 332.209 468.7 332.309C467.93 332.409 466.86 332.739 465.94 333.489C465.02 334.249 464.48 335.229 464.24 335.959C463.99 336.699 463.97 337.199 463.93 337.189C463.92 337.189 463.91 337.069 463.93 336.839C463.95 336.619 463.99 336.289 464.11 335.909C464.33 335.139 464.86 334.109 465.82 333.319C466.78 332.529 467.9 332.219 468.7 332.159C469.1 332.129 469.43 332.139 469.65 332.169C469.85 332.209 469.97 332.239 469.97 332.249Z" fill="#263238"/>
<path d="M468.09 325.109C468.15 325.109 468.23 326.689 468.28 328.649C468.33 330.599 468.32 332.189 468.27 332.189C468.21 332.189 468.13 330.609 468.08 328.649C468.03 326.689 468.04 325.109 468.09 325.109Z" fill="#263238"/>
<path d="M461.71 335.652C461.72 335.702 460.6 335.902 459.2 335.932C457.8 335.962 456.67 335.812 456.68 335.762C456.68 335.702 457.81 335.752 459.2 335.722C460.58 335.692 461.7 335.592 461.71 335.652Z" fill="#263238"/>
<path d="M465.081 335.6C465.121 335.64 464.991 335.84 464.881 336.1C464.761 336.36 464.711 336.59 464.651 336.59C464.591 336.59 464.561 336.32 464.691 336.02C464.821 335.71 465.051 335.56 465.081 335.6Z" fill="#263238"/>
<path d="M466.341 334C466.381 334.04 466.271 334.22 466.101 334.4C465.921 334.58 465.751 334.7 465.711 334.66C465.671 334.62 465.781 334.44 465.951 334.26C466.121 334.07 466.291 333.96 466.341 334Z" fill="#263238"/>
<path d="M468.151 333.249C468.141 333.309 467.911 333.309 467.661 333.399C467.411 333.489 467.231 333.629 467.181 333.589C467.131 333.559 467.281 333.309 467.591 333.199C467.901 333.099 468.161 333.199 468.151 333.249Z" fill="#263238"/>
<path d="M469.441 332.888C469.461 332.938 469.361 333.028 469.221 333.088C469.081 333.148 468.951 333.148 468.921 333.098C468.901 333.048 469.001 332.958 469.141 332.898C469.281 332.838 469.421 332.838 469.441 332.888Z" fill="#263238"/>
<path d="M491.892 333.308L491.842 324.108L509.062 323.898L509.282 337.348L508.212 337.428C503.462 337.748 484.042 338.728 480.852 337.808C477.292 336.778 491.892 333.308 491.892 333.308Z" fill="#FF6726"/>
<g opacity="0.4">
<g opacity="0.4">
<path opacity="0.4" d="M503.031 337.302C503.261 335.862 504.041 334.512 505.181 333.602C506.321 332.692 507.731 332.202 509.191 332.302L509.251 337.112L503.031 337.302Z" fill="black"/>
</g>
</g>
<path opacity="0.4" d="M484.761 335.258C484.761 335.258 479.651 336.798 480.301 337.638C480.951 338.478 500.611 338.228 509.281 337.358L509.251 336.978L486.321 337.468C486.311 337.458 485.761 335.288 484.761 335.258Z" fill="black"/>
<path d="M509.521 336.955C509.521 336.965 509.421 336.975 509.221 336.995C508.961 337.015 508.691 337.035 508.371 337.055C507.521 337.105 506.471 337.165 505.241 337.225C502.601 337.355 498.941 337.485 494.911 337.535C490.871 337.585 487.221 337.555 484.571 337.505C483.341 337.465 482.291 337.435 481.441 337.415C481.121 337.405 480.841 337.385 480.591 337.375C480.401 337.365 480.291 337.355 480.291 337.345C480.291 337.335 480.391 337.335 480.591 337.335C480.851 337.335 481.131 337.335 481.441 337.335C482.291 337.345 483.341 337.345 484.571 337.355C487.211 337.375 490.871 337.385 494.901 337.325C498.931 337.275 502.591 337.165 505.231 337.075C506.461 337.035 507.511 336.995 508.361 336.965C508.681 336.955 508.961 336.945 509.211 336.945C509.411 336.945 509.521 336.945 509.521 336.955Z" fill="#263238"/>
<path d="M486.32 337.73C486.26 337.74 486.2 336.99 485.72 336.24C485.25 335.48 484.6 335.11 484.64 335.06C484.65 335.01 485.39 335.32 485.9 336.13C486.41 336.93 486.37 337.74 486.32 337.73Z" fill="#263238"/>
<path d="M491.372 335.078C491.322 335.108 491.072 334.818 490.822 334.428C490.562 334.038 490.402 333.688 490.442 333.658C490.492 333.628 490.742 333.918 490.992 334.308C491.252 334.708 491.422 335.048 491.372 335.078Z" fill="#263238"/>
<path d="M492.751 334.331C492.711 334.371 492.441 334.201 492.141 333.931C491.841 333.671 491.631 333.421 491.671 333.381C491.711 333.341 491.981 333.511 492.281 333.781C492.581 334.041 492.791 334.291 492.751 334.331Z" fill="#263238"/>
<path d="M493.611 332.691C493.611 332.751 493.211 332.801 492.711 332.821C492.211 332.831 491.811 332.791 491.811 332.741C491.811 332.681 492.211 332.631 492.711 332.611C493.211 332.601 493.611 332.631 493.611 332.691Z" fill="#263238"/>
<path d="M493.901 331.541C493.921 331.591 493.481 331.791 492.901 331.841C492.321 331.891 491.851 331.771 491.861 331.721C491.871 331.661 492.322 331.691 492.882 331.641C493.442 331.591 493.881 331.481 493.901 331.541Z" fill="#263238"/>
<path d="M490.762 333.586C490.762 333.606 490.342 333.666 489.652 333.596C489.312 333.556 488.902 333.486 488.472 333.356C488.252 333.286 488.032 333.226 487.792 333.086C487.682 333.016 487.562 332.916 487.512 332.746C487.462 332.576 487.552 332.396 487.672 332.306C488.722 331.746 489.792 332.326 490.192 332.866C490.412 333.146 490.512 333.416 490.562 333.596C490.612 333.786 490.602 333.896 490.592 333.896C490.552 333.906 490.512 333.466 490.072 332.956C489.862 332.706 489.532 332.476 489.122 332.356C488.732 332.246 488.172 332.216 487.802 332.466C487.632 332.596 487.702 332.807 487.892 332.917C488.072 333.037 488.312 333.096 488.522 333.176C488.942 333.316 489.332 333.406 489.662 333.456C490.342 333.556 490.762 333.556 490.762 333.586Z" fill="#263238"/>
<path d="M490.48 333.645C490.46 333.655 490.3 333.375 490.34 332.875C490.36 332.635 490.45 332.335 490.63 332.065C490.82 331.815 491.07 331.475 491.54 331.485C491.8 331.515 491.93 331.805 491.89 331.995C491.87 332.185 491.79 332.355 491.71 332.495C491.55 332.775 491.37 332.995 491.2 333.175C490.86 333.515 490.58 333.655 490.57 333.635C490.55 333.605 490.79 333.435 491.09 333.075C491.24 332.895 491.4 332.675 491.54 332.405C491.69 332.165 491.79 331.745 491.51 331.705C491.23 331.685 490.95 331.965 490.79 332.185C490.62 332.425 490.53 332.685 490.49 332.905C490.41 333.345 490.52 333.635 490.48 333.645Z" fill="#263238"/>
<path d="M509.1 332.249C509.1 332.289 508.61 332.209 507.83 332.309C507.06 332.409 505.99 332.739 505.07 333.489C504.15 334.249 503.61 335.229 503.37 335.959C503.12 336.699 503.1 337.199 503.06 337.189C503.05 337.189 503.04 337.069 503.06 336.839C503.07 336.619 503.12 336.289 503.24 335.909C503.46 335.139 503.99 334.109 504.95 333.319C505.91 332.529 507.03 332.219 507.83 332.159C508.23 332.129 508.56 332.139 508.78 332.169C508.99 332.209 509.11 332.239 509.1 332.249Z" fill="#263238"/>
<path d="M507.232 325.109C507.292 325.109 507.372 326.689 507.422 328.649C507.472 330.599 507.462 332.189 507.412 332.189C507.352 332.189 507.272 330.609 507.222 328.649C507.162 326.689 507.172 325.109 507.232 325.109Z" fill="#263238"/>
<path d="M500.841 335.652C500.851 335.702 499.731 335.902 498.331 335.932C496.931 335.962 495.801 335.812 495.811 335.762C495.811 335.702 496.941 335.752 498.331 335.722C499.711 335.692 500.841 335.592 500.841 335.652Z" fill="#263238"/>
<path d="M504.222 335.6C504.262 335.64 504.132 335.84 504.022 336.1C503.902 336.36 503.852 336.59 503.792 336.59C503.732 336.59 503.702 336.32 503.832 336.02C503.962 335.71 504.182 335.56 504.222 335.6Z" fill="#263238"/>
<path d="M505.472 334C505.512 334.04 505.402 334.22 505.232 334.4C505.052 334.58 504.882 334.7 504.842 334.66C504.802 334.62 504.912 334.44 505.082 334.26C505.252 334.07 505.432 333.96 505.472 334Z" fill="#263238"/>
<path d="M507.282 333.249C507.272 333.309 507.042 333.309 506.792 333.399C506.542 333.489 506.362 333.629 506.312 333.589C506.262 333.559 506.412 333.309 506.722 333.199C507.032 333.099 507.302 333.199 507.282 333.249Z" fill="#263238"/>
<path d="M508.571 332.888C508.591 332.938 508.491 333.028 508.351 333.088C508.211 333.148 508.081 333.148 508.051 333.098C508.031 333.048 508.131 332.958 508.271 332.898C508.421 332.838 508.551 332.838 508.571 332.888Z" fill="#263238"/>
<path d="M458.55 144.162C457.34 156.192 454.18 192.562 470.81 191.292C490.44 189.792 494.96 174.322 494.96 174.322L491.14 160.342C491.14 160.342 471.77 177.182 471.27 175.132C468.55 163.982 469.27 148.692 469.71 143.242" fill="#FFBE9D"/>
<path d="M545.411 187.085L542.051 170.235C539.571 156.445 520.251 155.495 520.251 155.495L505.081 155.245C505.081 155.245 494.981 154.925 486.891 161.555C478.761 168.225 473.381 173.285 473.381 173.285L486.081 187.965L493.591 183.005C493.591 183.005 490.891 187.885 491.341 192.045C491.771 196.005 495.971 199.105 495.971 199.105L497.001 224.915L542.051 225.405L535.971 187.075H545.411V187.085Z" fill="#FF6726"/>
<path d="M524.211 169.211C524.251 169.211 524.341 169.591 524.481 170.291C524.641 171.101 524.831 172.081 525.061 173.241C525.571 175.861 526.231 179.251 526.951 182.991C527.671 186.811 528.301 190.271 528.691 192.781C528.891 194.041 529.031 195.061 529.111 195.771C529.191 196.481 529.211 196.871 529.181 196.881C529.141 196.881 529.051 196.501 528.911 195.801C528.751 194.991 528.551 194.011 528.331 192.851C527.821 190.231 527.171 186.841 526.441 183.091C525.721 179.281 525.091 175.821 524.701 173.301C524.501 172.041 524.361 171.021 524.281 170.311C524.201 169.601 524.171 169.211 524.211 169.211Z" fill="#263238"/>
<path d="M545.72 187.256C545.72 187.396 541.62 187.536 536.57 187.546C531.51 187.566 527.42 187.466 527.42 187.316C527.42 187.176 531.52 187.046 536.57 187.026C541.62 187.006 545.72 187.116 545.72 187.256Z" fill="#263238"/>
<path d="M486.071 187.985C485.961 188.075 483.14 184.815 479.77 180.695C476.4 176.575 473.761 173.165 473.871 173.065C473.981 172.965 476.801 176.235 480.171 180.355C483.541 184.475 486.181 187.895 486.071 187.985Z" fill="#263238"/>
<path d="M491.44 187.367C491.38 187.337 491.72 186.557 492.32 185.327C492.66 184.657 493.02 183.937 493.4 183.177C493.8 182.347 494.36 181.567 494.15 180.567C493.78 178.547 493.43 176.667 493.22 175.327C493 173.977 492.91 173.137 492.98 173.117C493.05 173.107 493.28 173.917 493.59 175.247C493.89 176.587 494.3 178.407 494.68 180.487C494.75 181.007 494.76 181.637 494.5 182.097C494.29 182.597 494.06 182.997 493.84 183.387C493.42 184.127 493.03 184.827 492.67 185.477C491.96 186.687 491.51 187.397 491.44 187.367Z" fill="#263238"/>
<path opacity="0.2" d="M496.851 221.584L496.201 211.984H539.571L541.221 220.314L496.851 221.584Z" fill="black"/>
<path opacity="0.2" d="M524.63 170.719C524.82 176.589 525.02 182.459 525.21 188.339C525.27 190.229 525.31 192.219 524.43 193.899C522.92 196.769 519.35 197.709 516.18 198.359C509.74 199.689 503.29 201.009 496.85 202.339L532.66 200.599L524.63 170.719Z" fill="black"/>
<path d="M547.471 200.591C546.491 192.501 545.411 187.281 545.411 187.281L527.791 187.541C527.791 187.541 529.371 196.441 528.881 198.821C528.461 200.891 494.471 202.271 485.611 202.411C485.081 202.011 484.321 202.681 483.631 202.091C483.031 201.561 482.521 200.931 482.121 200.231C481.641 199.381 481.041 198.221 480.911 197.481C480.741 196.571 479.581 196.341 479.231 197.101C478.881 197.861 479.271 200.381 480.961 202.821C482.641 205.261 478.231 203.991 476.621 203.561C475.001 203.131 469.941 202.031 469.421 202.441C468.651 203.031 469.131 203.981 470.761 204.381C472.401 204.781 477.171 206.301 476.911 207.171C476.651 208.021 468.461 205.711 468.461 205.711C468.461 205.711 466.791 204.921 466.451 205.911C465.851 207.691 474.731 209.501 475.581 209.651C476.171 209.751 475.921 210.701 475.291 210.561C474.641 210.411 467.171 208.061 466.531 209.861C466.051 211.251 473.831 211.411 475.121 212.791C476.411 214.161 469.231 212.051 468.821 213.391C468.671 213.891 471.651 214.121 475.951 214.731C479.971 215.301 487.431 215.241 489.221 215.201C499.181 215.751 534.371 216.471 541.881 215.941C550.641 215.311 547.811 203.371 547.471 200.591Z" fill="#FFBE9D"/>
<path d="M547.231 177.98C547.231 177.97 547.321 177.98 547.501 178.02C547.671 178.06 547.931 178.1 548.271 178.19C548.921 178.41 549.901 178.76 551.011 179.47C552.131 180.16 553.431 181.13 554.791 182.41C555.471 183.05 556.171 183.76 556.871 184.56C557.571 185.36 558.291 186.22 558.901 187.25C559.051 187.51 559.191 187.78 559.301 188.09C559.371 188.38 559.451 188.68 559.521 188.98C559.661 189.58 559.831 190.19 559.961 190.81C560.211 192.07 560.461 193.38 560.621 194.76C560.961 197.5 561.091 200.47 560.971 203.57C560.741 209.79 559.441 216.54 557.591 223.45C556.661 226.9 555.741 230.29 554.421 233.42C553.131 236.55 551.511 239.43 549.571 241.88C548.591 243.1 547.591 244.24 546.431 245.2C545.261 246.13 543.991 246.84 542.741 247.43C540.201 248.57 537.721 249.29 535.451 249.88C530.901 251.04 527.181 251.76 524.621 252.31C523.371 252.57 522.381 252.78 521.671 252.93C521.361 252.99 521.101 253.04 520.901 253.08C520.731 253.11 520.641 253.12 520.631 253.11C520.631 253.1 520.711 253.07 520.881 253.02C521.081 252.97 521.331 252.9 521.641 252.82C522.311 252.65 523.301 252.4 524.571 252.1C527.121 251.48 530.831 250.71 535.351 249.51C537.601 248.89 540.061 248.16 542.551 247.02C543.781 246.42 545.011 245.73 546.131 244.82C547.241 243.91 548.231 242.75 549.191 241.56C551.091 239.14 552.681 236.3 553.951 233.2C555.251 230.11 556.161 226.74 557.091 223.29C558.941 216.4 560.241 209.7 560.491 203.52C560.631 200.44 560.511 197.5 560.191 194.78C560.041 193.42 559.811 192.11 559.571 190.86C559.451 190.24 559.291 189.63 559.151 189.04C559.081 188.74 559.011 188.45 558.941 188.16C558.851 187.9 558.731 187.65 558.581 187.4C558.001 186.41 557.301 185.54 556.621 184.74C555.941 183.94 555.251 183.22 554.591 182.58C553.261 181.29 552.001 180.31 550.901 179.6C549.821 178.87 548.871 178.5 548.231 178.25C547.581 178.09 547.231 178 547.231 177.98Z" fill="#263238"/>
<path d="M469.05 146.08C469.05 146.08 469.32 144.78 469.77 141.04L473.89 132.97C473.89 132.97 472.97 131.28 470.85 134.86C469.88 136.49 466.64 135.81 467.18 133.25C467.72 130.69 471.04 129.54 473.08 132.06C473.08 132.06 474.4 132.19 474.55 131.16C474.7 130.13 471.72 127.58 469.19 128.33C467.55 128.81 466.38 129.91 466.38 129.91C466.38 129.91 466.93 121.42 466.24 121.35C465.55 121.27 464.59 121.79 464.07 131.1C464.07 131.1 463.78 123.75 463.64 122.82C463.5 121.91 462.23 121.25 462.07 123.6C462.05 123.86 461.59 131.08 461.59 131.08C461.59 131.08 460.77 126.31 460.68 125.93C460.44 124.92 459.45 125.03 459.36 126.36C459.29 127.37 458.96 131.68 458.96 131.68L458.34 144.99L458.26 144.98" fill="#FFBE9D"/>
<path d="M503.79 159.663C503.69 155.323 503.52 150.793 503.52 150.793C503.52 150.793 497.12 149.983 496.84 143.453C496.56 136.913 497.21 121.863 497.21 121.863L509 116.203L519.29 127.933L519.45 159.453C519.47 163.793 515.96 167.323 511.62 167.323C507.36 167.323 503.89 163.923 503.79 159.663Z" fill="#FFBE9D"/>
<path d="M498.869 132.867C498.859 133.327 499.219 133.707 499.669 133.717C500.119 133.727 500.489 133.357 500.499 132.897C500.509 132.437 500.149 132.057 499.699 132.047C499.249 132.037 498.879 132.407 498.869 132.867Z" fill="#263238"/>
<path d="M497.529 131.937C497.629 132.047 498.239 131.537 499.119 131.497C499.999 131.447 500.649 131.907 500.739 131.787C500.789 131.737 500.679 131.537 500.399 131.327C500.119 131.117 499.649 130.927 499.099 130.947C498.549 130.977 498.099 131.207 497.839 131.437C497.569 131.687 497.479 131.897 497.529 131.937Z" fill="#263238"/>
<path d="M508.41 132.859C508.4 133.319 508.76 133.699 509.21 133.709C509.66 133.719 510.03 133.349 510.04 132.889C510.05 132.429 509.69 132.049 509.24 132.039C508.79 132.029 508.42 132.399 508.41 132.859Z" fill="#263238"/>
<path d="M507.25 132.101C507.35 132.211 507.959 131.701 508.839 131.661C509.719 131.611 510.369 132.071 510.459 131.951C510.509 131.901 510.399 131.701 510.119 131.491C509.839 131.281 509.37 131.091 508.82 131.111C508.27 131.141 507.819 131.371 507.559 131.601C507.289 131.841 507.2 132.051 507.25 132.101Z" fill="#263238"/>
<path d="M503.95 139.655C503.95 139.605 503.41 139.525 502.52 139.435C502.3 139.415 502.08 139.375 502.04 139.215C501.98 139.045 502.07 138.785 502.18 138.495C502.38 137.905 502.59 137.285 502.81 136.645C503.69 134.005 504.32 131.845 504.22 131.805C504.12 131.775 503.33 133.885 502.45 136.515C502.24 137.165 502.04 137.785 501.84 138.375C501.76 138.655 501.62 138.965 501.74 139.325C501.8 139.505 501.97 139.625 502.11 139.665C502.25 139.705 502.38 139.705 502.49 139.705C503.4 139.725 503.95 139.705 503.95 139.655Z" fill="#263238"/>
<path d="M503.52 150.796C503.52 150.796 507.8 150.916 512 148.016C512 148.016 510.01 152.776 503.63 152.396L503.52 150.796Z" fill="#EB996E"/>
<path d="M504.269 141.95C504.369 141.4 504.769 140.91 505.289 140.7C505.649 140.55 506.079 140.54 506.419 140.72C506.759 140.9 506.999 141.3 506.939 141.68C506.869 142.11 506.459 142.43 506.029 142.52C505.599 142.61 505.159 142.53 504.729 142.43C504.609 142.4 504.489 142.38 504.389 142.31C504.289 142.24 504.219 142.12 504.249 142" fill="#EB996E"/>
<path d="M506.44 139.61C506.5 139.6 506.62 139.85 506.59 140.28C506.56 140.7 506.36 141.3 505.87 141.77C505.38 142.23 504.77 142.4 504.35 142.4C503.92 142.4 503.68 142.28 503.69 142.22C503.69 142.08 504.71 142.15 505.52 141.39C506.32 140.63 506.3 139.61 506.44 139.61Z" fill="#263238"/>
<path d="M487.629 170.561C487.499 170.501 487.869 169.301 488.469 167.861C489.069 166.431 489.659 165.311 489.789 165.361C489.919 165.421 489.549 166.621 488.949 168.061C488.349 169.501 487.759 170.611 487.629 170.561Z" fill="#263238"/>
<path d="M502.571 172.745C502.511 172.875 501.151 172.345 499.691 171.315C498.221 170.295 497.261 169.195 497.361 169.095C497.461 168.985 498.561 169.885 499.991 170.885C501.411 171.885 502.631 172.615 502.571 172.745Z" fill="#263238"/>
<path d="M500.701 159.829C500.751 159.969 499.781 160.419 498.531 160.849C497.291 161.279 496.241 161.509 496.191 161.379C496.141 161.239 497.111 160.789 498.361 160.359C499.611 159.929 500.661 159.689 500.701 159.829Z" fill="#263238"/>
<path d="M499.701 186.121C499.581 186.041 500.391 184.701 501.501 183.131C502.611 181.561 503.611 180.361 503.721 180.441C503.841 180.521 503.031 181.861 501.921 183.431C500.811 185.001 499.811 186.201 499.701 186.121Z" fill="#263238"/>
<path d="M500.56 196.843C500.47 196.953 499.19 195.993 497.71 194.703C496.23 193.413 495.11 192.283 495.2 192.173C495.29 192.063 496.57 193.023 498.05 194.313C499.53 195.593 500.65 196.733 500.56 196.843Z" fill="#263238"/>
<path d="M508.101 195.835C507.951 195.845 507.711 194.355 507.191 192.565C506.681 190.775 506.091 189.385 506.221 189.315C506.341 189.245 507.161 190.575 507.691 192.415C508.231 194.265 508.231 195.825 508.101 195.835Z" fill="#263238"/>
<path d="M521.961 196C522.001 196.14 520.721 196.65 519.111 197.15C517.491 197.65 516.141 197.94 516.101 197.81C516.061 197.67 517.341 197.16 518.951 196.66C520.571 196.16 521.921 195.87 521.961 196Z" fill="#263238"/>
<path d="M522.62 184.944C522.69 185.074 521.36 185.924 519.65 186.844C517.94 187.774 516.5 188.414 516.43 188.294C516.36 188.164 517.69 187.314 519.4 186.394C521.11 185.474 522.55 184.824 522.62 184.944Z" fill="#263238"/>
<path d="M515.32 180.579C515.2 180.659 514.29 179.569 513.28 178.129C512.27 176.689 511.55 175.459 511.66 175.379C511.78 175.299 512.69 176.389 513.7 177.829C514.72 179.259 515.44 180.499 515.32 180.579Z" fill="#263238"/>
<path d="M520.781 168.9C520.751 168.93 520.661 168.89 520.491 168.78L520.661 168.72C520.681 169.25 520.561 170.44 520.251 171.79C519.841 173.62 519.261 175.03 519.121 174.99C518.981 174.94 519.341 173.48 519.741 171.68C520.041 170.35 520.281 169.19 520.451 168.7L520.521 168.5L520.631 168.64C520.751 168.78 520.801 168.87 520.781 168.9Z" fill="#263238"/>
<path d="M532.661 161.09C532.631 161.23 531.041 161.03 529.101 160.64C527.161 160.25 525.621 159.82 525.651 159.67C525.681 159.53 527.271 159.73 529.211 160.12C531.141 160.51 532.691 160.95 532.661 161.09Z" fill="#263238"/>
<path d="M529.82 172.421C529.68 172.401 529.71 171.191 529.9 169.711C530.08 168.231 530.35 167.051 530.49 167.071C530.63 167.091 530.6 168.301 530.41 169.781C530.23 171.251 529.96 172.441 529.82 172.421Z" fill="#263238"/>
<path d="M536.13 175.748C536 175.698 536.3 174.638 536.81 173.388C537.32 172.138 537.84 171.178 537.97 171.228C538.1 171.278 537.8 172.338 537.29 173.588C536.79 174.828 536.27 175.798 536.13 175.748Z" fill="#263238"/>
<path d="M536.18 182.119C536.1 182.239 534.68 181.359 533.02 180.159C531.36 178.959 530.08 177.889 530.16 177.769C530.24 177.649 531.66 178.529 533.32 179.729C534.99 180.929 536.27 181.999 536.18 182.119Z" fill="#263238"/>
<path d="M505.881 222.289C505.801 222.409 504.691 221.789 503.391 220.919C502.101 220.039 501.111 219.229 501.201 219.109C501.281 218.989 502.391 219.609 503.691 220.479C504.981 221.359 505.961 222.169 505.881 222.289Z" fill="#263238"/>
<path d="M517.3 218.263C517.41 218.353 516.48 219.693 515.21 221.243C513.95 222.803 512.83 223.993 512.72 223.893C512.61 223.803 513.54 222.463 514.81 220.913C516.07 219.363 517.19 218.173 517.3 218.263Z" fill="#263238"/>
<path d="M529.16 223.775C529.03 223.705 529.5 222.605 530.19 221.315C530.89 220.025 531.56 219.035 531.68 219.105C531.81 219.175 531.34 220.275 530.65 221.565C529.95 222.845 529.28 223.845 529.16 223.775Z" fill="#263238"/>
<path d="M526.001 224.421C525.881 224.491 525.171 223.511 524.421 222.221C523.671 220.931 523.171 219.831 523.291 219.761C523.411 219.691 524.121 220.671 524.871 221.961C525.611 223.251 526.121 224.351 526.001 224.421Z" fill="#263238"/>
<path d="M496.76 120.323C495.19 121.223 494.34 123.223 494.78 124.973C495.22 126.733 496.92 128.083 498.73 128.133C500.54 128.183 502.3 126.903 502.83 125.173C502.1 126.523 502.51 128.333 503.65 129.343C504.8 130.353 506.55 130.563 507.96 129.973C509.37 129.383 510.42 128.063 510.83 126.593C510.85 128.043 511.58 129.453 512.75 130.313C513.92 131.173 515.49 131.433 516.87 131.023C515.45 131.913 514.61 133.643 514.78 135.313C514.95 136.983 516.13 138.503 517.7 139.083C516.02 140.153 515.33 142.523 516.17 144.323C517.01 146.123 519.27 147.123 521.16 146.523C523.14 145.903 524.35 143.913 525.12 141.993C527.19 136.793 527.29 130.753 525.06 125.623C522.83 120.483 518.2 116.363 512.75 115.073C507.3 113.783 501.16 115.473 497.38 119.623" fill="#263238"/>
<path d="M529.971 120.925C529.981 120.925 530.001 120.995 530.021 121.135C530.041 121.275 530.051 121.495 530.011 121.775C529.951 122.325 529.701 123.165 528.981 123.935C528.301 124.695 527.011 125.415 525.521 125.095C524.101 124.805 522.591 123.575 522.321 121.725L522.791 121.735C522.611 123.015 521.801 124.245 520.611 124.995C519.431 125.775 517.771 125.945 516.401 125.285C515.111 124.685 514.111 123.545 513.781 122.235C513.611 121.595 513.561 120.855 513.951 120.225C514.151 119.915 514.451 119.695 514.791 119.585C515.131 119.475 515.561 119.535 515.851 119.765C516.431 120.225 516.501 121.045 516.231 121.595C515.971 122.165 515.531 122.555 515.091 122.865C514.181 123.485 513.141 123.705 512.231 123.645C511.311 123.595 510.511 123.235 509.941 122.795C509.361 122.355 508.981 121.855 508.731 121.415C508.481 120.975 508.371 120.595 508.321 120.335C508.271 120.075 508.271 119.935 508.281 119.935C508.331 119.915 508.391 120.485 508.911 121.305C509.411 122.095 510.521 123.205 512.251 123.265C513.091 123.295 514.041 123.075 514.841 122.495C515.241 122.205 515.621 121.845 515.811 121.395C516.021 120.965 515.921 120.405 515.561 120.125C515.221 119.845 514.631 120.045 514.371 120.475C514.101 120.905 514.111 121.525 514.271 122.085C514.561 123.235 515.471 124.265 516.621 124.795C517.851 125.375 519.281 125.235 520.351 124.545C521.431 123.875 522.161 122.775 522.331 121.645L522.591 119.955L522.801 121.655C523.001 123.245 524.341 124.415 525.611 124.695C526.921 125.005 528.101 124.405 528.781 123.725C529.481 123.025 529.761 122.255 529.861 121.735C529.961 121.225 529.931 120.925 529.971 120.925Z" fill="#282B35"/>
<path d="M535.24 127.719C535.27 127.719 535.3 128.029 535.16 128.559C535.02 129.079 534.69 129.849 533.97 130.539C533.27 131.219 532.11 131.839 530.75 131.709C529.43 131.609 528 130.839 527.21 129.479C527.12 129.329 527.05 129.169 526.98 129.029L527.46 129.019C527.19 129.749 526.63 130.319 526.01 130.639C525.39 130.979 524.7 131.109 524.06 131.099C522.75 131.069 521.74 130.369 521.09 129.719C520.43 129.049 520.07 128.379 519.85 127.919C519.64 127.449 519.57 127.179 519.6 127.159C519.69 127.099 520.05 128.229 521.33 129.459C521.97 130.039 522.92 130.629 524.06 130.629C525.17 130.639 526.52 130.059 526.97 128.849L527.17 128.289L527.45 128.839C527.51 128.959 527.57 129.109 527.65 129.239C528.33 130.429 529.61 131.139 530.78 131.249C531.97 131.389 533.03 130.869 533.71 130.279C534.41 129.679 534.77 128.989 534.95 128.509C535.15 128.009 535.19 127.719 535.24 127.719Z" fill="#282B35"/>
<path d="M528.64 140.084C528.68 140.114 527.97 140.634 526.65 140.474C526.01 140.384 525.24 140.084 524.63 139.454C524.02 138.834 523.58 137.904 523.58 136.874L523.97 137.104C523.92 137.124 523.87 137.154 523.83 137.184C522.9 137.664 521.85 137.694 521 137.424C520.14 137.154 519.51 136.584 519.15 136.034C518.41 134.894 518.57 134.004 518.62 134.024C518.71 134.004 518.71 134.844 519.45 135.814C519.82 136.284 520.39 136.754 521.14 136.964C521.88 137.174 522.8 137.134 523.59 136.724C523.63 136.704 523.67 136.674 523.71 136.654L524.1 136.444V136.884C524.09 137.754 524.46 138.574 524.97 139.134C525.48 139.704 526.14 140.004 526.71 140.124C527.88 140.344 528.62 139.994 528.64 140.084Z" fill="#282B35"/>
<path d="M491.84 124.24C491.91 124.15 492.61 125.22 494.39 125.7C495.26 125.93 496.39 125.97 497.48 125.49C498.56 125.02 499.57 124.06 500.07 122.79C500.19 122.51 500.25 122.21 500.31 121.93L500.47 121.15L500.8 121.87C501.02 122.34 501.65 122.56 502.16 122.45C502.7 122.35 503.17 122.01 503.55 121.63C504.32 120.87 504.75 119.95 504.94 119.16C505.33 117.54 504.91 116.51 505.01 116.5C505.04 116.49 505.16 116.73 505.27 117.19C505.37 117.66 505.45 118.37 505.28 119.23C505.12 120.08 504.71 121.1 503.87 121.96C503.46 122.38 502.94 122.8 502.24 122.94C501.56 123.08 500.7 122.84 500.32 122.08L500.81 122.01C500.75 122.32 500.67 122.65 500.54 122.97C499.99 124.38 498.86 125.43 497.66 125.92C496.44 126.42 495.2 126.33 494.28 126.04C493.35 125.75 492.7 125.26 492.33 124.89C491.96 124.53 491.82 124.26 491.84 124.24Z" fill="#282B35"/>
<path d="M494.741 132.454C494.801 132.454 494.811 132.934 494.321 133.454C493.871 133.984 492.831 134.374 491.801 134.104C490.771 133.864 490.031 133.244 489.561 132.814C489.091 132.364 488.851 132.044 488.901 131.994C488.951 131.934 489.281 132.164 489.801 132.534C490.321 132.894 491.031 133.404 491.921 133.604C492.811 133.824 493.621 133.564 494.081 133.194C494.541 132.824 494.661 132.434 494.741 132.454Z" fill="#282B35"/>
<path d="M502.821 133.77C502.771 133.77 502.771 133.42 502.601 132.84C502.431 132.27 502.031 131.43 501.161 130.8C500.321 130.16 498.951 129.82 497.641 130.31C496.341 130.77 495.211 132.15 495.231 133.77C495.221 135.39 496.341 136.78 497.641 137.23C498.961 137.73 500.321 137.38 501.161 136.74C502.031 136.11 502.431 135.27 502.601 134.7C502.771 134.12 502.771 133.77 502.821 133.77C502.841 133.77 502.911 134.12 502.801 134.75C502.681 135.37 502.311 136.3 501.391 137.03C500.501 137.77 498.981 138.21 497.481 137.68C496.001 137.19 494.691 135.62 494.711 133.76C494.691 131.91 495.991 130.33 497.481 129.85C498.981 129.32 500.501 129.76 501.391 130.5C502.311 131.24 502.691 132.17 502.811 132.78C502.911 133.42 502.841 133.77 502.821 133.77Z" fill="#282B35"/>
<path d="M513.931 133.77C513.881 133.77 513.881 133.42 513.711 132.84C513.541 132.27 513.141 131.43 512.271 130.8C511.431 130.16 510.061 129.82 508.751 130.31C507.451 130.77 506.321 132.15 506.341 133.77C506.331 135.39 507.451 136.78 508.751 137.23C510.071 137.73 511.431 137.38 512.271 136.74C513.141 136.11 513.541 135.27 513.711 134.7C513.891 134.12 513.891 133.77 513.931 133.77C513.951 133.77 514.021 134.12 513.911 134.75C513.791 135.37 513.421 136.3 512.501 137.03C511.611 137.77 510.091 138.21 508.591 137.68C507.111 137.19 505.801 135.62 505.821 133.76C505.801 131.91 507.101 130.33 508.591 129.85C510.091 129.32 511.611 129.76 512.501 130.5C513.421 131.24 513.801 132.17 513.921 132.78C514.031 133.42 513.961 133.77 513.931 133.77Z" fill="#282B35"/>
<path d="M506.28 133.58C506.28 133.72 505.49 133.84 504.52 133.84C503.55 133.84 502.76 133.72 502.76 133.58C502.76 133.44 503.55 133.32 504.52 133.32C505.49 133.32 506.28 133.44 506.28 133.58Z" fill="#282B35"/>
<path d="M467.1 224.382C492.58 221.882 512.72 223.812 512.72 223.812L493.44 251.492L476.04 251.562L472.3 331.062H449.32L451.52 241.752C451.72 232.912 458.34 225.542 467.1 224.382Z" fill="#263238"/>
<path d="M509.46 253.674C509.46 253.674 543.93 256.014 543.07 225.064C543.07 225.064 487.85 215.734 484.26 231.784C483.11 236.944 486.27 331.694 486.27 331.694L510.38 331.684" fill="#263238"/>
<path d="M509.801 246.82C509.941 246.83 509.961 248.6 509.841 250.79C509.721 252.97 509.501 254.74 509.361 254.73C509.221 254.72 509.201 252.95 509.321 250.76C509.441 248.57 509.661 246.81 509.801 246.82Z" fill="#282B35"/>
<path d="M508.699 222.21C508.709 222.23 508.539 222.3 508.229 222.42C507.909 222.54 507.439 222.7 506.819 222.88C505.589 223.24 503.759 223.62 501.489 223.98C499.229 224.36 496.519 224.7 493.669 225.66C492.249 226.14 490.809 226.79 489.459 227.69C488.119 228.6 486.939 229.8 486.029 231.27C484.139 234.17 483.509 237.53 483.559 240.51C483.719 243.51 483.859 246.23 483.979 248.54C484.079 250.77 484.169 252.6 484.229 253.96C484.249 254.55 484.259 255.04 484.269 255.43C484.269 255.77 484.269 255.94 484.249 255.95C484.229 255.95 484.199 255.77 484.169 255.44C484.129 255.04 484.089 254.56 484.029 253.97C483.929 252.62 483.779 250.79 483.609 248.56C483.449 246.27 483.239 243.57 483.079 240.52C483.009 237.48 483.629 233.99 485.589 230.99C486.529 229.48 487.779 228.2 489.179 227.27C490.579 226.34 492.069 225.68 493.519 225.21C496.439 224.25 499.179 223.96 501.439 223.62C503.709 223.31 505.529 222.99 506.769 222.69C508.009 222.39 508.679 222.16 508.699 222.21Z" fill="#282B35"/>
<path d="M435.49 167.303L448.58 208.163L520.94 209.473L520.46 207.303L494.03 206.493L481.86 167.273L435.49 167.303Z" fill="#282B35"/>
<path d="M464.871 187.724C465.301 189.454 464.561 191.144 463.221 191.504C461.881 191.864 460.441 190.754 460.001 189.024C459.571 187.294 460.311 185.604 461.651 185.244C463.001 184.894 464.441 186.004 464.871 187.724Z" fill="white"/>
<path d="M596.58 196.446C595.32 195.376 593.59 195.236 592.52 195.276C592.53 194.496 592.49 194.016 592.49 194.016H570.36C570.36 194.016 569.66 208.626 580.85 209.146C585.86 209.376 588.72 207.136 590.36 204.306C590.89 204.436 591.82 204.616 592.87 204.616C594.04 204.616 595.33 204.396 596.35 203.626C597.11 203.056 598.01 201.946 598.01 199.886C598.03 198.056 597.24 197.006 596.58 196.446ZM595.06 201.876C594.12 202.586 592.42 202.476 591.32 202.276C591.94 200.606 592.25 198.906 592.4 197.476C593.16 197.426 594.43 197.496 595.17 198.116C595.62 198.496 595.85 199.076 595.85 199.886C595.85 200.826 595.59 201.476 595.06 201.876Z" fill="#FF6726"/>
<path d="M589.251 189.307C589.251 189.307 589.071 189.167 588.831 188.807C588.591 188.457 588.271 187.887 588.101 187.077C587.931 186.278 587.911 185.217 588.361 184.117C588.801 182.997 589.821 182.067 590.851 181.077C591.901 180.097 592.781 178.748 593.091 177.098C593.431 175.468 593.151 173.588 592.131 172.018C591.631 171.228 590.961 170.517 590.161 169.967C589.361 169.407 588.411 169.068 587.421 168.738C586.441 168.398 585.381 168.047 584.531 167.277C584.111 166.907 583.751 166.447 583.501 165.927C583.261 165.397 583.151 164.777 583.291 164.188C583.311 164.108 583.341 164.017 583.361 163.947L583.631 164.217C582.661 164.547 582.121 165.587 582.011 166.587C581.891 167.597 582.241 168.608 582.671 169.518C583.111 170.438 583.651 171.307 584.051 172.247C584.451 173.177 584.731 174.188 584.611 175.188C584.501 176.198 583.961 177.077 583.291 177.717C582.621 178.367 581.841 178.827 581.071 179.197C579.511 179.907 577.981 180.318 576.761 181.048C575.541 181.757 574.701 182.798 574.261 183.818C573.801 184.838 573.651 185.827 573.661 186.617C573.691 188.217 574.191 189.027 574.121 189.037C574.111 189.037 574.091 188.987 574.041 188.897C574.001 188.797 573.911 188.658 573.851 188.458C573.701 188.058 573.541 187.448 573.501 186.628C573.461 185.818 573.591 184.797 574.051 183.727C574.491 182.657 575.351 181.548 576.611 180.798C577.861 180.017 579.411 179.587 580.921 178.887C581.671 178.527 582.411 178.068 583.031 177.458C583.651 176.848 584.141 176.057 584.221 175.147C584.321 174.247 584.071 173.298 583.681 172.408C583.291 171.508 582.751 170.647 582.301 169.697C581.861 168.757 581.471 167.677 581.601 166.537C581.661 165.977 581.831 165.427 582.141 164.927C582.441 164.437 582.921 164.017 583.491 163.817L583.871 163.688L583.761 164.087C583.741 164.147 583.721 164.217 583.701 164.287C583.461 165.287 584.051 166.307 584.811 166.977C585.571 167.667 586.591 168.017 587.561 168.357C588.541 168.687 589.541 169.047 590.391 169.647C591.241 170.237 591.941 170.988 592.461 171.818C593.531 173.478 593.801 175.477 593.431 177.177C593.091 178.897 592.131 180.318 591.051 181.298C590.001 182.288 589.011 183.167 588.571 184.227C588.121 185.267 588.111 186.287 588.251 187.057C588.561 188.637 589.321 189.277 589.251 189.307Z" fill="#263238"/>
<path d="M616.22 208.344H389.26V215.294H401.4L394.94 338.124H398.41L404.87 215.294L603.8 214.204L608.38 337.754L612.21 337.974L607.31 215.294H616.22V208.344Z" fill="#263238"/>
<path d="M265.799 42.6094H169.189V338.559H265.799V42.6094Z" fill="#EBEBEB"/>
<path d="M342.02 43.5625H265.66V338.562H342.02V43.5625Z" fill="#E0E0E0"/>
<path d="M256.489 89.9766H174.539V113.047H256.489V89.9766Z" fill="#263238"/>
<path d="M181.408 92.875H176.818V110.535H181.408V92.875Z" fill="#FF6726"/>
<path d="M186.818 96.585C186.818 97.395 186.168 98.045 185.358 98.045C184.548 98.045 183.898 97.395 183.898 96.585C183.898 95.775 184.548 95.125 185.358 95.125C186.168 95.125 186.818 95.785 186.818 96.585Z" fill="white"/>
<path d="M186.818 102.827C186.818 103.637 186.168 104.287 185.358 104.287C184.548 104.287 183.898 103.637 183.898 102.827C183.898 102.017 184.548 101.367 185.358 101.367C186.168 101.367 186.818 102.027 186.818 102.827Z" fill="white"/>
<path d="M197.158 95.125H192.648V108.685H197.158V95.125Z" fill="#282B35"/>
<path d="M203.668 95.125H199.158V108.685H203.668V95.125Z" fill="#282B35"/>
<path d="M210.19 95.125H205.68V108.685H210.19V95.125Z" fill="#282B35"/>
<path d="M216.699 95.125H212.189V108.685H216.699V95.125Z" fill="#282B35"/>
<path d="M223.219 95.125H218.709V108.685H223.219V95.125Z" fill="#282B35"/>
<path d="M229.729 95.125H225.219V108.685H229.729V95.125Z" fill="#282B35"/>
<path d="M236.239 95.125H231.729V108.685H236.239V95.125Z" fill="#282B35"/>
<path d="M242.76 95.125H238.25V108.685H242.76V95.125Z" fill="#282B35"/>
<path d="M249.27 95.125H244.76V108.685H249.27V95.125Z" fill="#282B35"/>
<path d="M255.789 95.125H251.279V108.685H255.789V95.125Z" fill="#282B35"/>
<path d="M256.489 123.117H174.539V146.187H256.489V123.117Z" fill="#263238"/>
<path d="M181.408 126.016H176.818V143.676H181.408V126.016Z" fill="#FF6726"/>
<path d="M186.818 129.733C186.818 130.543 186.168 131.193 185.358 131.193C184.548 131.193 183.898 130.543 183.898 129.733C183.898 128.923 184.548 128.273 185.358 128.273C186.168 128.273 186.818 128.923 186.818 129.733Z" fill="white"/>
<path d="M186.818 135.976C186.818 136.786 186.168 137.436 185.358 137.436C184.548 137.436 183.898 136.786 183.898 135.976C183.898 135.166 184.548 134.516 185.358 134.516C186.168 134.516 186.818 135.166 186.818 135.976Z" fill="white"/>
<path d="M197.158 128.273H192.648V141.833H197.158V128.273Z" fill="#282B35"/>
<path d="M203.668 128.273H199.158V141.833H203.668V128.273Z" fill="#282B35"/>
<path d="M210.19 128.273H205.68V141.833H210.19V128.273Z" fill="#282B35"/>
<path d="M216.699 128.273H212.189V141.833H216.699V128.273Z" fill="#282B35"/>
<path d="M223.219 128.273H218.709V141.833H223.219V128.273Z" fill="#282B35"/>
<path d="M229.729 128.273H225.219V141.833H229.729V128.273Z" fill="#282B35"/>
<path d="M236.239 128.273H231.729V141.833H236.239V128.273Z" fill="#282B35"/>
<path d="M242.76 128.273H238.25V141.833H242.76V128.273Z" fill="#282B35"/>
<path d="M249.27 128.273H244.76V141.833H249.27V128.273Z" fill="#282B35"/>
<path d="M255.789 128.273H251.279V141.833H255.789V128.273Z" fill="#282B35"/>
<path d="M256.489 156.531H174.539V179.601H256.489V156.531Z" fill="#263238"/>
<path d="M181.408 159.43H176.818V177.09H181.408V159.43Z" fill="#FF6726"/>
<path d="M186.818 163.147C186.818 163.957 186.168 164.607 185.358 164.607C184.548 164.607 183.898 163.957 183.898 163.147C183.898 162.337 184.548 161.688 185.358 161.688C186.168 161.688 186.818 162.337 186.818 163.147Z" fill="white"/>
<path d="M186.818 169.39C186.818 170.2 186.168 170.85 185.358 170.85C184.548 170.85 183.898 170.2 183.898 169.39C183.898 168.58 184.548 167.93 185.358 167.93C186.168 167.93 186.818 168.58 186.818 169.39Z" fill="white"/>
<path d="M197.158 161.688H192.648V175.247H197.158V161.688Z" fill="#282B35"/>
<path d="M203.668 161.688H199.158V175.247H203.668V161.688Z" fill="#282B35"/>
<path d="M210.19 161.688H205.68V175.247H210.19V161.688Z" fill="#282B35"/>
<path d="M216.699 161.688H212.189V175.247H216.699V161.688Z" fill="#282B35"/>
<path d="M223.219 161.688H218.709V175.247H223.219V161.688Z" fill="#282B35"/>
<path d="M229.729 161.688H225.219V175.247H229.729V161.688Z" fill="#282B35"/>
<path d="M236.239 161.688H231.729V175.247H236.239V161.688Z" fill="#282B35"/>
<path d="M242.76 161.688H238.25V175.247H242.76V161.688Z" fill="#282B35"/>
<path d="M249.27 161.688H244.76V175.247H249.27V161.688Z" fill="#282B35"/>
<path d="M255.789 161.688H251.279V175.247H255.789V161.688Z" fill="#282B35"/>
<path d="M256.489 190.406H174.539V213.476H256.489V190.406Z" fill="#263238"/>
<path d="M181.408 193.305H176.818V210.965H181.408V193.305Z" fill="#FF6726"/>
<path d="M186.818 197.015C186.818 197.825 186.168 198.475 185.358 198.475C184.548 198.475 183.898 197.825 183.898 197.015C183.898 196.205 184.548 195.555 185.358 195.555C186.168 195.555 186.818 196.205 186.818 197.015Z" fill="white"/>
<path d="M186.818 203.257C186.818 204.067 186.168 204.717 185.358 204.717C184.548 204.717 183.898 204.067 183.898 203.257C183.898 202.447 184.548 201.797 185.358 201.797C186.168 201.797 186.818 202.447 186.818 203.257Z" fill="white"/>
<path d="M197.158 195.555H192.648V209.115H197.158V195.555Z" fill="#282B35"/>
<path d="M203.668 195.555H199.158V209.115H203.668V195.555Z" fill="#282B35"/>
<path d="M210.19 195.555H205.68V209.115H210.19V195.555Z" fill="#282B35"/>
<path d="M216.699 195.555H212.189V209.115H216.699V195.555Z" fill="#282B35"/>
<path d="M223.219 195.555H218.709V209.115H223.219V195.555Z" fill="#282B35"/>
<path d="M229.729 195.555H225.219V209.115H229.729V195.555Z" fill="#282B35"/>
<path d="M236.239 195.555H231.729V209.115H236.239V195.555Z" fill="#282B35"/>
<path d="M242.76 195.555H238.25V209.115H242.76V195.555Z" fill="#282B35"/>
<path d="M249.27 195.555H244.76V209.115H249.27V195.555Z" fill="#282B35"/>
<path d="M255.789 195.555H251.279V209.115H255.789V195.555Z" fill="#282B35"/>
<path d="M256.489 229.078H174.539V252.148H256.489V229.078Z" fill="#263238"/>
<path d="M181.408 231.977H176.818V249.637H181.408V231.977Z" fill="#FF6726"/>
<path d="M186.818 235.687C186.818 236.497 186.168 237.147 185.358 237.147C184.548 237.147 183.898 236.497 183.898 235.687C183.898 234.877 184.548 234.227 185.358 234.227C186.168 234.227 186.818 234.877 186.818 235.687Z" fill="white"/>
<path d="M186.818 241.929C186.818 242.739 186.168 243.389 185.358 243.389C184.548 243.389 183.898 242.739 183.898 241.929C183.898 241.119 184.548 240.469 185.358 240.469C186.168 240.469 186.818 241.119 186.818 241.929Z" fill="white"/>
<path d="M197.158 234.227H192.648V247.787H197.158V234.227Z" fill="#282B35"/>
<path d="M203.668 234.227H199.158V247.787H203.668V234.227Z" fill="#282B35"/>
<path d="M210.19 234.227H205.68V247.787H210.19V234.227Z" fill="#282B35"/>
<path d="M216.699 234.227H212.189V247.787H216.699V234.227Z" fill="#282B35"/>
<path d="M223.219 234.227H218.709V247.787H223.219V234.227Z" fill="#282B35"/>
<path d="M229.729 234.227H225.219V247.787H229.729V234.227Z" fill="#282B35"/>
<path d="M236.239 234.227H231.729V247.787H236.239V234.227Z" fill="#282B35"/>
<path d="M242.76 234.227H238.25V247.787H242.76V234.227Z" fill="#282B35"/>
<path d="M249.27 234.227H244.76V247.787H249.27V234.227Z" fill="#282B35"/>
<path d="M255.789 234.227H251.279V247.787H255.789V234.227Z" fill="#282B35"/>
<path d="M256.489 301.617H174.539V324.687H256.489V301.617Z" fill="#263238"/>
<path d="M181.408 304.516H176.818V322.176H181.408V304.516Z" fill="#FF6726"/>
<path d="M186.818 308.226C186.818 309.036 186.168 309.686 185.358 309.686C184.548 309.686 183.898 309.036 183.898 308.226C183.898 307.416 184.548 306.766 185.358 306.766C186.168 306.766 186.818 307.426 186.818 308.226Z" fill="white"/>
<path d="M186.818 314.468C186.818 315.278 186.168 315.928 185.358 315.928C184.548 315.928 183.898 315.278 183.898 314.468C183.898 313.658 184.548 313.008 185.358 313.008C186.168 313.008 186.818 313.668 186.818 314.468Z" fill="white"/>
<path d="M197.158 306.766H192.648V320.326H197.158V306.766Z" fill="#282B35"/>
<path d="M203.668 306.766H199.158V320.326H203.668V306.766Z" fill="#282B35"/>
<path d="M210.19 306.766H205.68V320.326H210.19V306.766Z" fill="#282B35"/>
<path d="M216.699 306.766H212.189V320.326H216.699V306.766Z" fill="#282B35"/>
<path d="M223.219 306.766H218.709V320.326H223.219V306.766Z" fill="#282B35"/>
<path d="M229.729 306.766H225.219V320.326H229.729V306.766Z" fill="#282B35"/>
<path d="M236.239 306.766H231.729V320.326H236.239V306.766Z" fill="#282B35"/>
<path d="M242.76 306.766H238.25V320.326H242.76V306.766Z" fill="#282B35"/>
<path d="M249.27 306.766H244.76V320.326H249.27V306.766Z" fill="#282B35"/>
<path d="M255.789 306.766H251.279V320.326H255.789V306.766Z" fill="#282B35"/>
<path d="M256.489 265.383H174.539V288.453H256.489V265.383Z" fill="#263238"/>
<path d="M181.408 268.281H176.818V285.941H181.408V268.281Z" fill="#FF6726"/>
<path d="M186.818 271.991C186.818 272.801 186.168 273.451 185.358 273.451C184.548 273.451 183.898 272.801 183.898 271.991C183.898 271.181 184.548 270.531 185.358 270.531C186.168 270.531 186.818 271.191 186.818 271.991Z" fill="white"/>
<path d="M186.818 278.233C186.818 279.043 186.168 279.693 185.358 279.693C184.548 279.693 183.898 279.043 183.898 278.233C183.898 277.423 184.548 276.773 185.358 276.773C186.168 276.773 186.818 277.433 186.818 278.233Z" fill="white"/>
<path d="M197.158 270.531H192.648V284.091H197.158V270.531Z" fill="#282B35"/>
<path d="M203.668 270.531H199.158V284.091H203.668V270.531Z" fill="#282B35"/>
<path d="M210.19 270.531H205.68V284.091H210.19V270.531Z" fill="#282B35"/>
<path d="M216.699 270.531H212.189V284.091H216.699V270.531Z" fill="#282B35"/>
<path d="M223.219 270.531H218.709V284.091H223.219V270.531Z" fill="#282B35"/>
<path d="M229.729 270.531H225.219V284.091H229.729V270.531Z" fill="#282B35"/>
<path d="M236.239 270.531H231.729V284.091H236.239V270.531Z" fill="#282B35"/>
<path d="M242.76 270.531H238.25V284.091H242.76V270.531Z" fill="#282B35"/>
<path d="M249.27 270.531H244.76V284.091H249.27V270.531Z" fill="#282B35"/>
<path d="M255.789 270.531H251.279V284.091H255.789V270.531Z" fill="#282B35"/>
<path d="M225.219 89.9787C225.199 89.9787 225.169 89.7387 225.139 89.2687C225.109 88.7987 225.079 88.1087 225.059 87.2187C225.039 86.3287 225.019 85.2387 224.959 83.9787C224.889 82.7287 224.799 81.2787 224.399 79.7687C223.969 78.2687 223.279 76.6487 222.209 75.1487C221.149 73.6487 219.639 72.3087 217.719 71.5387C215.809 70.7387 213.619 70.4487 211.349 70.2487C209.069 70.0487 206.709 69.8487 204.289 69.6387C194.619 68.7987 185.839 68.2587 179.489 68.1487C176.309 68.0787 173.739 68.0987 171.959 68.1087C171.109 68.1187 170.429 68.1287 169.909 68.1287C169.439 68.1287 169.189 68.1187 169.189 68.0987C169.189 68.0787 169.429 68.0587 169.899 68.0187C170.419 67.9887 171.099 67.9487 171.949 67.8987C173.729 67.8287 176.309 67.7487 179.489 67.7687C185.859 67.7887 194.649 68.2687 204.329 69.1087C206.749 69.3187 209.109 69.5287 211.389 69.7287C213.669 69.9387 215.909 70.2487 217.899 71.0887C219.899 71.9087 221.479 73.3387 222.559 74.8987C223.649 76.4587 224.329 78.1187 224.749 79.6687C225.139 81.2387 225.199 82.6987 225.249 83.9687C225.279 85.2387 225.269 86.3287 225.259 87.2187C225.249 88.0687 225.249 88.7487 225.239 89.2687C225.239 89.7287 225.239 89.9787 225.219 89.9787Z" fill="#263238"/>
<path d="M200.36 89.9782C200.34 89.9782 200.33 89.7482 200.31 89.3082C200.3 88.8182 200.3 88.1782 200.29 87.3782C200.28 86.5382 200.29 85.5182 200.19 84.3382C200.08 83.1682 199.9 81.8082 199.18 80.5382C198.47 79.2782 197.06 78.3282 195.48 77.6882C193.88 77.0582 191.99 76.8082 190.08 77.1382C189.13 77.2982 188.17 77.6082 187.29 78.0882C186.42 78.5682 185.6 79.2482 185.12 80.1382C184.62 81.0182 184.61 82.1282 185.13 83.0382C185.64 83.9382 186.55 84.6482 187.59 84.8882C188.63 85.1382 189.72 84.7782 190.47 84.0582C191.23 83.3382 191.69 82.3282 191.76 81.3182C191.86 80.2982 191.48 79.3282 190.9 78.5182C190.33 77.7082 189.57 77.0382 188.73 76.5982C187.9 76.1282 186.95 76.0582 186.02 75.8982C185.1 75.7582 184.2 75.6382 183.32 75.5382C181.58 75.3382 179.94 75.2282 178.45 75.1682C175.47 75.0482 173.04 75.0982 171.37 75.0982C170.58 75.0982 169.94 75.0982 169.44 75.0982C169 75.0882 168.77 75.0782 168.77 75.0582C168.77 75.0382 169 75.0182 169.44 74.9882C169.93 74.9682 170.57 74.9282 171.37 74.8882C173.04 74.8282 175.47 74.7182 178.47 74.7882C179.97 74.8282 181.61 74.9182 183.37 75.0982C184.25 75.1882 185.15 75.2982 186.09 75.4282C186.56 75.4982 187.02 75.5582 187.51 75.6482C188.01 75.7482 188.49 75.9182 188.95 76.1482C189.87 76.6182 190.68 77.3282 191.31 78.2082C191.93 79.0682 192.38 80.1882 192.27 81.3382C192.19 82.4782 191.68 83.5982 190.83 84.4182C189.99 85.2482 188.69 85.6782 187.48 85.3782C186.29 85.0982 185.27 84.3082 184.68 83.2782C184.07 82.2482 184.1 80.8782 184.68 79.8882C185.23 78.8682 186.13 78.1582 187.06 77.6382C188 77.1282 189.01 76.8182 190.01 76.6582C192.01 76.3282 193.98 76.6082 195.65 77.2782C197.29 77.9582 198.76 78.9682 199.52 80.3482C200.26 81.7182 200.41 83.1282 200.5 84.3082C200.56 85.5082 200.53 86.5282 200.51 87.3682C200.48 88.1582 200.45 88.7982 200.43 89.2982C200.4 89.7482 200.38 89.9782 200.36 89.9782Z" fill="#263238"/>
<path d="M231.91 89.9787C231.89 89.9787 231.84 89.7188 231.74 89.2188C231.65 88.7188 231.51 87.9787 231.31 87.0287C230.9 85.1387 230.25 82.3987 228.9 79.2087C227.56 76.0487 225.43 72.3787 221.77 69.6387C219.98 68.2387 217.68 67.4787 215.23 67.1487C212.78 66.7987 210.19 66.8087 207.55 66.7387C196.96 66.5387 187.36 66.5787 180.41 66.3087C176.94 66.1887 174.13 66.0287 172.19 65.8887C171.26 65.8087 170.52 65.7487 169.96 65.7087C169.45 65.6587 169.18 65.6288 169.19 65.6087C169.19 65.5888 169.46 65.5888 169.97 65.6087C170.53 65.6288 171.27 65.6588 172.2 65.6988C174.14 65.7688 176.95 65.8788 180.42 65.9488C187.36 66.1288 196.95 66.0287 207.56 66.2287C210.2 66.3087 212.8 66.2887 215.31 66.6587C217.8 66.9987 220.22 67.8087 222.06 69.2687C223.89 70.6988 225.43 72.3188 226.57 74.0388C227.73 75.7488 228.58 77.4688 229.24 79.0887C230.56 82.3288 231.16 85.0987 231.51 87.0087C231.68 87.9687 231.79 88.7188 231.85 89.2188C231.91 89.7087 231.93 89.9687 231.91 89.9787Z" fill="#263238"/>
<path d="M255.37 46.2891H175.67V57.8591H255.37V46.2891Z" fill="#263238"/>
<path d="M236.579 52.0781H193.189V57.8581H236.579V52.0781Z" fill="#282B35"/>
<path d="M287.878 286.238C287.888 286.298 286.998 286.378 285.468 286.828C283.948 287.288 281.768 288.138 279.448 289.778C278.298 290.598 277.108 291.628 276.068 292.918C275.538 293.558 275.078 294.288 274.678 295.058C274.318 295.848 274.028 296.718 273.808 297.628C272.898 301.278 273.178 305.468 273.358 309.828C273.538 314.178 273.258 318.518 271.528 322.008C270.708 323.748 269.558 325.228 268.278 326.358C266.988 327.488 265.608 328.308 264.288 328.888C262.958 329.478 261.688 329.818 260.558 330.008C259.418 330.168 258.428 330.198 257.618 330.128C256.818 330.058 256.198 329.958 255.788 329.838C255.378 329.728 255.168 329.668 255.168 329.648C255.178 329.588 256.038 329.858 257.628 329.918C258.418 329.958 259.398 329.888 260.508 329.708C261.618 329.498 262.848 329.138 264.138 328.538C265.418 327.948 266.758 327.128 267.998 326.018C269.228 324.908 270.318 323.478 271.108 321.788C272.748 318.398 273.028 314.158 272.848 309.828C272.668 305.488 272.398 301.238 273.358 297.498C273.598 296.568 273.888 295.678 274.278 294.838C274.708 294.028 275.188 293.278 275.738 292.628C276.828 291.308 278.048 290.278 279.238 289.458C281.628 287.828 283.858 287.018 285.418 286.618C286.198 286.428 286.818 286.308 287.238 286.268C287.658 286.238 287.878 286.228 287.878 286.238Z" fill="#263238"/>
<path d="M257.679 326.094H251.139V334.054H257.679V326.094Z" fill="#263238"/>
<path d="M324.569 266.141H287.879V306.341H324.569V266.141Z" fill="#282B35"/>
<path d="M314.758 294.948C319.476 290.231 319.476 282.582 314.758 277.864C310.041 273.147 302.392 273.147 297.675 277.864C292.957 282.582 292.957 290.231 297.675 294.948C302.392 299.665 310.041 299.666 314.758 294.948Z" fill="#263238"/>
<path d="M312.26 286.399C312.26 289.729 309.56 292.439 306.22 292.439C302.89 292.439 300.18 289.739 300.18 286.399C300.18 283.069 302.88 280.359 306.22 280.359C309.56 280.359 312.26 283.069 312.26 286.399Z" fill="#282B35"/>
<path d="M292.839 273.498C293.457 273.498 293.959 272.996 293.959 272.378C293.959 271.759 293.457 271.258 292.839 271.258C292.22 271.258 291.719 271.759 291.719 272.378C291.719 272.996 292.22 273.498 292.839 273.498Z" fill="#263238"/>
<path d="M318.96 273.498C319.578 273.498 320.08 272.996 320.08 272.378C320.08 271.759 319.578 271.258 318.96 271.258C318.341 271.258 317.84 271.759 317.84 272.378C317.84 272.996 318.341 273.498 318.96 273.498Z" fill="#263238"/>
<path d="M319.198 303.193C319.817 303.193 320.318 302.692 320.318 302.073C320.318 301.455 319.817 300.953 319.198 300.953C318.58 300.953 318.078 301.455 318.078 302.073C318.078 302.692 318.58 303.193 319.198 303.193Z" fill="#263238"/>
<path d="M292.839 303.654C293.457 303.654 293.959 303.153 293.959 302.534C293.959 301.915 293.457 301.414 292.839 301.414C292.22 301.414 291.719 301.915 291.719 302.534C291.719 303.153 292.22 303.654 292.839 303.654Z" fill="#263238"/>
<path d="M327.528 266.141H324.568V306.341H327.528V266.141Z" fill="#263238"/>
<path d="M355.73 114.877C355.73 115.017 345.22 115.137 332.25 115.137C319.28 115.137 308.77 115.017 308.77 114.877C308.77 114.737 319.28 114.617 332.25 114.617C345.22 114.617 355.73 114.727 355.73 114.877Z" fill="#263238"/>
<path d="M453.181 119.872C453.181 119.872 453.031 119.882 452.721 119.892C452.391 119.892 451.941 119.902 451.341 119.912C450.101 119.922 448.301 119.932 445.971 119.952C441.261 119.972 434.421 119.992 425.851 120.022C408.621 120.052 384.411 120.082 356.391 120.132H356.201L356.151 119.952C354.711 115.042 355.591 109.292 358.801 104.892C362.001 100.502 367.511 97.7123 373.171 97.8623L372.911 98.1923C372.491 96.7623 372.301 95.1423 372.371 93.5323C372.581 88.1623 375.641 82.9823 380.321 80.5723C384.951 78.1323 390.651 78.2223 395.041 80.6523L394.681 80.7823C397.181 74.6923 402.441 70.2723 408.161 68.2323C413.891 66.1523 420.251 66.4223 425.251 69.0423C430.271 71.6123 433.851 76.0023 435.831 80.6023C437.861 85.2323 438.141 90.1923 437.131 94.4623L436.941 94.2423C439.811 93.9223 442.591 94.4223 444.981 95.3923C447.371 96.3723 449.401 97.8123 450.941 99.4823C451.711 100.312 452.371 101.212 452.821 102.172C453.261 103.132 453.601 104.092 453.821 105.032C454.281 106.912 454.451 108.682 454.501 110.262C454.601 113.432 454.221 115.872 453.871 117.482C453.681 118.292 453.521 118.892 453.371 119.302C453.251 119.682 453.181 119.872 453.181 119.872C453.181 119.872 453.241 119.652 453.351 119.252C453.481 118.862 453.621 118.242 453.791 117.442C454.101 115.822 454.451 113.392 454.321 110.242C454.251 108.672 454.071 106.922 453.601 105.072C453.141 103.222 452.321 101.252 450.751 99.6523C449.231 98.0223 447.221 96.6223 444.871 95.6723C442.521 94.7223 439.791 94.2523 436.991 94.5823L436.741 94.6123L436.801 94.3623C437.771 90.1723 437.481 85.2923 435.471 80.7523C433.511 76.2323 429.981 71.9423 425.061 69.4323C420.171 66.8923 413.961 66.6323 408.341 68.6823C402.741 70.6923 397.591 75.0323 395.171 80.9723L395.061 81.2423L394.811 81.1023C390.591 78.7623 385.041 78.6723 380.581 81.0423C376.071 83.3523 373.111 88.3723 372.911 93.5623C372.841 95.1223 373.031 96.6823 373.431 98.0623L373.531 98.4023L373.171 98.3923C367.681 98.2423 362.331 100.962 359.221 105.212C356.101 109.472 355.241 115.072 356.631 119.822L356.391 119.642C384.351 119.682 408.521 119.722 425.711 119.752C434.311 119.782 441.161 119.802 445.881 119.822C448.231 119.842 450.041 119.852 451.291 119.862C451.901 119.872 452.361 119.872 452.691 119.882C453.011 119.862 453.181 119.872 453.181 119.872Z" fill="#263238"/>
<path d="M439.71 178.921C439.71 178.931 439.49 178.951 439.08 178.961C438.62 178.971 438.01 178.981 437.24 179.001C435.59 179.021 433.27 179.041 430.37 179.071C424.46 179.091 416.22 179.131 406.69 179.161H406.44V178.911C406.44 174.901 406.43 170.561 406.43 166.071C406.46 153.421 406.49 141.981 406.51 133.641C406.54 129.531 406.57 126.181 406.59 123.811C406.61 122.681 406.63 121.791 406.64 121.141C406.65 120.861 406.66 120.631 406.67 120.451C406.68 120.291 406.69 120.211 406.7 120.211C406.71 120.211 406.72 120.291 406.73 120.451C406.74 120.641 406.75 120.871 406.76 121.141C406.77 121.791 406.79 122.691 406.81 123.811C406.83 126.181 406.86 129.521 406.89 133.641C406.91 141.981 406.94 153.421 406.97 166.071C406.97 170.561 406.96 174.901 406.96 178.911L406.71 178.661C416.24 178.701 424.48 178.731 430.39 178.751C433.29 178.781 435.61 178.811 437.26 178.821C438.03 178.841 438.64 178.851 439.1 178.861C439.49 178.891 439.71 178.901 439.71 178.921Z" fill="#263238"/>
<path d="M430.519 50.9106L408.199 42.8906L386.089 50.8006C383.269 52.1306 380.789 52.9306 380.789 55.5606V68.6506C380.789 77.7406 383.169 86.7506 388.069 94.7006C392.189 101.391 398.579 108.281 408.409 112.661C417.449 109.721 424.189 101.901 428.319 95.2106C433.219 87.2606 435.599 78.2506 435.599 69.1606V57.3906C435.609 53.6406 433.619 51.8106 430.519 50.9106Z" fill="#FF6726"/>
<g opacity="0.3">
<path opacity="0.3" d="M408.419 105.068C400.639 101.598 395.589 96.0384 392.329 90.7384C388.449 84.4484 386.569 77.3184 386.569 70.1284V60.9484C386.569 58.8684 387.819 56.9184 390.319 55.7584L408.219 49.0684V42.8984L386.109 50.8084C383.789 51.8184 380.809 52.9384 380.809 55.5684V68.6584C380.809 77.7484 383.189 86.7584 388.089 94.7084C392.209 101.398 398.599 108.288 408.429 112.668V105.068H408.419Z" fill="black"/>
</g>
<g opacity="0.4">
<path opacity="0.4" d="M408.419 112.671C409.989 112.151 411.419 111.541 412.809 110.791C416.519 108.771 419.679 106.001 422.089 103.491C424.789 100.681 426.799 97.6506 428.549 94.8206C433.449 86.8706 435.829 77.8606 435.619 68.5206L435.629 57.7106C435.619 52.3306 432.859 51.9306 430.539 50.9206L408.199 42.8906V49.0606L426.299 55.8606C428.789 57.0206 430.049 58.9706 430.049 61.0506V70.2306C430.049 77.4206 428.169 84.5506 424.289 90.8406C421.029 96.1406 416.189 101.601 408.409 105.061V112.671H408.419Z" fill="black"/>
</g>
<path opacity="0.5" d="M414.118 69.5388L414.138 67.7688C414.138 64.5688 411.538 61.9688 408.338 61.9688C405.138 61.9688 402.538 64.5688 402.538 67.7588L402.508 69.5588C400.948 69.7888 399.738 71.1387 399.738 72.7587V83.1788C399.738 84.9688 401.188 86.4187 402.978 86.4187H413.798C415.588 86.4187 417.038 84.9688 417.038 83.1788V72.7688C417.068 71.0788 415.768 69.6888 414.118 69.5388ZM409.898 80.5888H407.068L407.508 78.5487C407.018 78.2488 406.688 77.6988 406.688 77.0888C406.688 76.1388 407.458 75.3588 408.418 75.3588C409.368 75.3588 410.148 76.1288 410.148 77.0888C410.148 77.6888 409.848 78.2088 409.388 78.5188C409.578 79.3088 409.898 80.5888 409.898 80.5888ZM412.868 69.5188H403.778L403.798 67.7688C403.798 65.2588 405.838 63.2188 408.348 63.2188C410.858 63.2188 412.898 65.2588 412.898 67.7588L412.868 69.5188Z" fill="white"/>
<path d="M390.179 69.4144C390.129 69.4244 389.979 68.7344 389.849 67.6044C389.719 66.4744 389.619 64.8944 389.669 63.1644C389.689 62.2944 389.749 61.4644 389.829 60.7144C389.899 59.9644 390.039 59.2644 390.329 58.7344C390.609 58.2044 391.009 57.8944 391.309 57.7544C391.609 57.6144 391.799 57.6244 391.799 57.6444C391.839 57.6944 391.049 57.8444 390.569 58.8644C390.339 59.3544 390.229 60.0044 390.179 60.7444C390.119 61.4844 390.079 62.3044 390.049 63.1644C389.999 64.8844 390.049 66.4444 390.119 67.5744C390.179 68.7044 390.239 69.4044 390.179 69.4144Z" fill="white"/>
<path d="M390.51 75.1131C390.4 75.1131 390.3 74.5731 390.29 73.9131C390.28 73.2431 390.35 72.7031 390.46 72.7031C390.57 72.7031 390.67 73.2431 390.68 73.9031C390.69 74.5731 390.62 75.1131 390.51 75.1131Z" fill="white"/>
</g>
<defs>
<clipPath id="clip0_2173_7460">
<rect width="628.8" height="301.12" fill="white" transform="translate(40 38)"/>
</clipPath>
</defs>
</svg>
