<svg width="690" height="350" viewBox="0 0 690 350" fill="none" xmlns="http://www.w3.org/2000/svg">
<g clip-path="url(#clip0_3435_217)">
<path d="M251.658 234.868C251.658 245.614 248.472 256.118 242.502 265.052C236.533 273.986 228.048 280.95 218.12 285.062C208.193 289.174 197.269 290.25 186.73 288.154C176.191 286.057 166.511 280.883 158.913 273.285C151.315 265.687 146.14 256.006 144.044 245.467C141.948 234.929 143.024 224.005 147.136 214.077C151.248 204.15 158.211 195.665 167.146 189.695C176.08 183.725 186.584 180.539 197.329 180.539C211.738 180.539 225.557 186.263 235.746 196.452C245.935 206.64 251.658 220.459 251.658 234.868Z" fill="#03486B"/>
<path d="M197.327 279.043C188.587 279.045 180.043 276.456 172.774 271.601C165.506 266.747 159.841 259.847 156.495 251.772C153.149 243.698 152.273 234.813 153.977 226.24C155.682 217.668 159.89 209.794 166.071 203.613C172.251 197.433 180.125 193.225 188.697 191.52C197.27 189.816 206.155 190.692 214.229 194.038C222.304 197.384 229.204 203.049 234.058 210.317C238.913 217.586 241.502 226.13 241.5 234.87C241.486 246.581 236.827 257.809 228.546 266.089C220.266 274.37 209.038 279.029 197.327 279.043ZM197.327 195.718C189.583 195.715 182.012 198.009 175.572 202.31C169.131 206.61 164.111 212.724 161.145 219.878C158.18 227.032 157.403 234.905 158.912 242.501C160.421 250.096 164.149 257.074 169.624 262.551C175.099 268.028 182.076 271.758 189.671 273.27C197.266 274.782 205.139 274.007 212.294 271.044C219.449 268.081 225.565 263.063 229.868 256.624C234.171 250.185 236.467 242.615 236.467 234.87C236.457 224.492 232.33 214.541 224.993 207.201C217.655 199.861 207.706 195.731 197.327 195.718Z" fill="#33E5DC"/>
<path d="M197.329 264.541C191.458 264.541 185.719 262.8 180.838 259.538C175.957 256.276 172.153 251.64 169.907 246.216C167.66 240.792 167.073 234.823 168.22 229.065C169.366 223.307 172.194 218.019 176.346 213.868C180.499 209.718 185.789 206.892 191.547 205.748C197.305 204.605 203.274 205.194 208.697 207.443C214.12 209.691 218.755 213.498 222.014 218.38C225.274 223.263 227.013 229.003 227.01 234.874C226.996 242.74 223.864 250.28 218.301 255.841C212.737 261.402 205.196 264.531 197.329 264.541ZM197.329 210.225C192.454 210.225 187.689 211.671 183.635 214.379C179.582 217.088 176.423 220.937 174.557 225.441C172.692 229.945 172.203 234.901 173.154 239.682C174.106 244.464 176.453 248.856 179.9 252.303C183.347 255.75 187.739 258.097 192.521 259.049C197.302 260 202.258 259.511 206.762 257.646C211.266 255.78 215.115 252.621 217.824 248.568C220.532 244.514 221.978 239.749 221.978 234.874C221.971 228.339 219.372 222.073 214.751 217.452C210.13 212.831 203.864 210.232 197.329 210.225Z" fill="#33E5DC"/>
<path d="M197.328 251.125C194.111 251.118 190.969 250.156 188.298 248.363C185.628 246.57 183.549 244.026 182.324 241.052C181.099 238.077 180.783 234.806 181.416 231.653C182.049 228.499 183.603 225.604 185.882 223.333C188.16 221.062 191.06 219.517 194.216 218.894C197.372 218.271 200.641 218.597 203.612 219.832C206.582 221.067 209.12 223.154 210.904 225.83C212.689 228.507 213.64 231.652 213.637 234.869C213.636 237.008 213.212 239.125 212.391 241.1C211.57 243.075 210.368 244.869 208.853 246.379C207.338 247.889 205.541 249.085 203.563 249.9C201.586 250.714 199.467 251.131 197.328 251.125ZM197.328 223.632C195.105 223.629 192.931 224.286 191.081 225.519C189.231 226.752 187.789 228.506 186.937 230.559C186.084 232.612 185.86 234.872 186.292 237.053C186.724 239.234 187.793 241.237 189.364 242.81C190.935 244.383 192.937 245.455 195.118 245.889C197.298 246.324 199.558 246.102 201.612 245.252C203.666 244.402 205.422 242.962 206.657 241.113C207.893 239.265 208.552 237.092 208.552 234.869C208.552 231.891 207.37 229.035 205.265 226.928C203.161 224.821 200.306 223.635 197.328 223.632Z" fill="#33E5DC"/>
<path d="M416.648 200.701C416.648 200.701 400.023 299.611 397.414 305.473C370.764 306.382 344.89 305.552 344.284 305.473C343.678 305.394 333.086 302.377 333.086 302.377C333.086 302.377 330.965 291.14 338.132 287.886C345.298 284.632 358.815 277.782 365.086 250.578C371.356 223.373 375.967 197.961 375.967 197.961L416.648 200.701Z" fill="#066A91"/>
<path d="M420.721 200.701C420.721 200.701 404.109 299.611 401.5 305.473C363.059 306.791 344.286 305.473 344.286 305.473C344.286 305.473 342.969 291.14 350.162 287.886C357.355 284.632 370.845 277.782 377.115 250.578C383.386 223.373 387.997 197.961 387.997 197.961L420.721 200.701Z" fill="#03486B"/>
<path d="M468.355 125.307C465.325 123.555 446.802 122.883 427.516 122.422C428.481 122.557 429.422 122.832 430.308 123.239C436.645 123.239 441.783 137.532 441.783 155.185C441.783 172.838 436.645 187.119 430.308 187.119C429.422 187.525 428.481 187.801 427.516 187.936C446.776 187.475 465.298 186.803 468.355 185.051C474.27 185.051 479.078 171.679 479.078 155.185C479.078 138.692 474.27 125.307 468.355 125.307Z" fill="url(#paint0_linear_3435_217)"/>
<path d="M438.912 105.978C434.644 102.026 399.324 101.538 374.9 100.564C350.476 99.5887 286.635 56.1016 263.475 56.1016H226.087L224.269 134.289H223.387L223.821 153.338L223.387 172.401H224.269L226.087 250.588H263.449C286.661 250.588 350.396 207.114 374.874 206.126C399.351 205.138 434.617 204.651 438.912 200.698C444.814 200.698 449.609 179.488 449.609 153.272C449.609 127.056 444.788 105.978 438.912 105.978Z" fill="url(#paint1_linear_3435_217)"/>
<path d="M438.913 105.978C435.896 103.198 417.44 102.144 398.245 101.406C399.255 101.655 400.204 102.103 401.038 102.724C407.348 102.724 412.46 125.396 412.46 153.364C412.46 181.332 407.296 203.992 401.012 203.992C400.178 204.612 399.228 205.06 398.219 205.309C417.413 204.571 435.87 203.517 438.887 200.738C444.789 200.738 449.584 179.528 449.584 153.311C449.584 127.095 444.789 105.978 438.913 105.978Z" fill="url(#paint2_linear_3435_217)"/>
<path d="M267.48 56.4592C266.571 56.3143 265.715 56.2089 264.845 56.1562C264.358 56.1562 263.87 56.1562 263.409 56.1562H226.087L224.269 134.343H223.387L223.821 153.393L223.387 172.456H224.269L226.087 250.643H263.449C263.91 250.643 264.397 250.643 264.885 250.643C265.715 250.643 266.571 250.485 267.519 250.34C278.757 246.098 287.583 204.35 287.583 153.446C287.583 102.542 278.717 60.7012 267.48 56.4592Z" fill="url(#paint3_linear_3435_217)"/>
<path d="M248.036 153.338C248.036 207.048 238.208 250.588 226.088 250.588C213.968 250.588 204.141 207.048 204.141 153.338C204.141 99.6282 213.968 56.1016 226.088 56.1016C238.208 56.1016 248.036 99.6413 248.036 153.338Z" fill="url(#paint4_linear_3435_217)"/>
<path d="M247.786 138.686H208.883C206.922 138.627 204.968 138.963 203.139 139.673C201.309 140.383 199.641 141.453 198.232 142.82C196.824 144.187 195.704 145.822 194.94 147.63C194.175 149.437 193.781 151.38 193.781 153.342C193.781 155.305 194.175 157.247 194.94 159.055C195.704 160.862 196.824 162.498 198.232 163.865C199.641 165.231 201.309 166.301 203.139 167.011C204.968 167.722 206.922 168.057 208.883 167.998H247.786C247.944 163.216 248.036 158.329 248.036 153.336C248.036 148.343 247.891 143.468 247.786 138.686Z" fill="#FFDB00"/>
<path opacity="0.4" d="M241.227 62.7031H267.851C273.634 62.7031 302.301 75.8771 317.214 84.203C332.127 92.5289 354.588 102.528 362.651 103.964C370.713 105.4 387.338 105.914 387.338 105.914C387.338 105.914 367.051 108.114 353.376 105.914C339.702 103.714 290.826 76.4303 274.82 69.514C268.22 66.6816 241.227 62.7031 241.227 62.7031Z" fill="url(#paint5_linear_3435_217)"/>
<path d="M445.301 151.23C445.298 151.791 445.073 152.327 444.675 152.722C444.278 153.117 443.741 153.338 443.18 153.338H418.914C418.354 153.338 417.816 153.117 417.419 152.722C417.021 152.327 416.796 151.791 416.793 151.23C416.793 150.668 417.016 150.128 417.414 149.731C417.812 149.333 418.351 149.109 418.914 149.109H443.18C443.743 149.109 444.282 149.333 444.68 149.731C445.078 150.128 445.301 150.668 445.301 151.23Z" fill="#2E333D"/>
<path d="M444.866 142.73C444.866 143.289 444.644 143.826 444.249 144.221C443.854 144.616 443.317 144.838 442.758 144.838H418.479C417.92 144.838 417.384 144.616 416.988 144.221C416.593 143.826 416.371 143.289 416.371 142.73C416.371 142.17 416.593 141.633 416.988 141.235C417.383 140.838 417.919 140.613 418.479 140.609H442.758C443.036 140.609 443.312 140.664 443.568 140.771C443.825 140.878 444.058 141.034 444.254 141.231C444.449 141.428 444.604 141.662 444.71 141.92C444.815 142.177 444.868 142.452 444.866 142.73Z" fill="#2E333D"/>
<path d="M444.329 134.116C444.329 134.678 444.105 135.218 443.707 135.615C443.31 136.013 442.77 136.237 442.208 136.237H417.941C417.663 136.237 417.387 136.182 417.13 136.075C416.872 135.969 416.638 135.812 416.442 135.615C416.245 135.418 416.088 135.185 415.982 134.927C415.875 134.67 415.82 134.394 415.82 134.116C415.824 133.555 416.049 133.019 416.446 132.624C416.844 132.229 417.381 132.008 417.941 132.008H442.208C442.768 132.008 443.305 132.229 443.703 132.624C444.1 133.019 444.325 133.555 444.329 134.116Z" fill="#2E333D"/>
<path d="M444.866 159.926C444.868 159.648 444.815 159.372 444.71 159.115C444.604 158.858 444.449 158.624 444.254 158.427C444.058 158.23 443.825 158.073 443.568 157.966C443.312 157.86 443.036 157.805 442.758 157.805H418.479C417.919 157.808 417.383 158.033 416.988 158.431C416.593 158.828 416.371 159.365 416.371 159.926C416.371 160.485 416.593 161.021 416.988 161.416C417.384 161.811 417.92 162.034 418.479 162.034H442.758C443.317 162.034 443.854 161.811 444.249 161.416C444.644 161.021 444.866 160.485 444.866 159.926Z" fill="#2E333D"/>
<path d="M444.329 168.473C444.329 167.91 444.105 167.371 443.707 166.973C443.31 166.575 442.77 166.352 442.208 166.352H417.941C417.663 166.352 417.387 166.406 417.13 166.513C416.872 166.62 416.638 166.776 416.442 166.973C416.245 167.17 416.088 167.404 415.982 167.661C415.875 167.918 415.82 168.194 415.82 168.473C415.82 168.751 415.875 169.027 415.982 169.284C416.088 169.542 416.245 169.775 416.442 169.972C416.638 170.169 416.872 170.326 417.13 170.432C417.387 170.539 417.663 170.594 417.941 170.594H442.208C442.77 170.594 443.31 170.37 443.707 169.972C444.105 169.575 444.329 169.035 444.329 168.473Z" fill="#2E333D"/>
<path d="M412.564 11.4776C412.411 12.3835 411.998 13.2256 411.375 13.9013C410.753 14.5771 409.947 15.0575 409.057 15.2841C408.166 15.5107 407.229 15.4737 406.359 15.1778C405.49 14.8818 404.724 14.3395 404.157 13.6168C403.59 12.8942 403.244 12.0223 403.163 11.1071C403.082 10.1918 403.268 9.27272 403.7 8.46146C404.131 7.65019 404.789 6.9817 405.593 6.53721C406.397 6.09272 407.313 5.89138 408.229 5.95768C409.534 6.11923 410.722 6.79024 411.534 7.82433C412.346 8.85842 412.716 10.1717 412.564 11.4776Z" fill="#7C3212"/>
<path d="M412.089 14.7717C410.403 17.0903 408.505 16.4053 405.897 16.2209C403.289 16.0364 401.945 17.6173 402.116 14.7454C402.287 11.8735 401.905 8.40874 404.514 8.42191C408.308 8.46143 414.223 11.8208 412.089 14.7717Z" fill="#5AA5FF"/>
<path d="M403.526 41.7158L403.856 37.0391L397.453 37.1576L396.992 41.2415L403.526 41.7158Z" fill="#F4B67D"/>
<path d="M410.707 28.5644C410.707 28.5644 409.68 39.6173 400.405 38.8664C394.385 38.3658 392.672 31.3704 392.672 31.3704C391.95 31.1645 391.319 30.7178 390.885 30.1044C390.452 29.491 390.241 28.7477 390.288 27.9979C390.288 25.1391 391.46 24.3224 392.119 25.3631C392.344 23.0068 392.908 20.6952 393.792 18.4995C393.792 18.4995 406.452 18.3678 408.165 18.3282C409.877 18.2887 410.707 28.5644 410.707 28.5644Z" fill="#FFC384"/>
<path d="M409.929 29.2669C409.929 29.2669 410.338 27.607 411.484 27.5938C412.63 27.5807 412.801 29.122 412.037 30.8873C411.273 32.6526 409.653 32.982 409.402 32.6131C409.462 31.4825 409.639 30.3611 409.929 29.2669Z" fill="#FFC384"/>
<path d="M398.273 18.6867C398.273 18.6867 403.661 19.7406 405.4 19.0424C407.139 18.3442 408.706 20.452 409.036 21.1634C409.365 21.8748 408.061 24.312 409.233 25.0102C410.406 25.7084 409.879 28.6857 409.655 30.2007C410.116 27.8294 411.684 26.5779 412.356 28.5671C414.661 19.9777 414.174 13.6411 407.02 10.8614C399.867 8.08168 393.069 10.5452 391.211 15.0375C389.696 18.6735 389.011 25.5766 390.342 27.2497C390.429 26.7181 390.556 26.194 390.724 25.682C391.093 24.8521 392.041 25.682 392.186 26.6306C392.331 27.5791 392.503 28.9755 392.503 28.9755C392.595 27.6498 392.763 26.3303 393.003 25.0233C393.253 24.2197 395.019 22.3886 394.782 21.3215C394.544 20.2544 396.626 17.5801 398.273 18.6867Z" fill="#934016"/>
<path d="M380.353 56.0078C380.353 56.0078 377.283 65.0319 376.309 68.9973C375.334 72.9626 383.37 84.9773 383.37 84.9773L385.28 79.2203L382.645 70.5518L387.256 57.536L380.353 56.0078Z" fill="#F4B67D"/>
<path d="M421.351 58.9297C421.351 58.9297 423.103 68.2963 423.511 72.3671C423.92 76.4378 414.29 87.1746 414.29 87.1746L413.223 81.2068L417.03 72.9994L414.303 59.4566L421.351 58.9297Z" fill="#F4B67D"/>
<path d="M406.688 103.591C406.688 103.591 408.809 101.667 413.433 102.893C419.48 104.5 427.463 103.09 426.383 109.374C425.434 112.536 420.362 112.286 417.293 112.009C411.602 111.548 406.214 109.48 405.515 107.938C404.817 106.397 406.688 103.591 406.688 103.591Z" fill="#E8E8E8"/>
<path d="M413.435 102.893C408.811 101.667 406.69 103.591 406.69 103.591L406.559 103.802C407.531 103.317 408.59 103.033 409.674 102.965C410.758 102.897 411.844 103.047 412.869 103.406C418.929 105.014 426.912 103.604 425.832 109.875C425.709 110.288 425.498 110.67 425.213 110.995C425.771 110.598 426.184 110.029 426.385 109.374C427.466 103.09 419.482 104.526 413.435 102.893Z" fill="#B2B2B2"/>
<path d="M408.612 103.791C408.612 103.791 406.873 103.422 404.66 102.75L404.489 105.293L403.105 105.2L403.026 106.294L401.828 106.202L401.762 107.163C403.896 107.418 405.977 108.009 407.927 108.915C409.995 110.075 416.609 110.009 417.149 107.493C417.689 104.976 413.104 102.552 408.612 103.791Z" fill="#EAA36A"/>
<path d="M395.438 106.928C395.438 106.928 393.514 105.676 388.851 106.677C382.725 107.995 374.728 105.36 375.506 111.736C376.296 114.951 381.263 115.622 384.345 115.53C390.05 115.359 395.635 112.895 396.413 111.38C397.19 109.865 395.438 106.928 395.438 106.928Z" fill="#E8E8E8"/>
<path d="M376.378 112.434C375.614 106.111 383.61 108.68 389.723 107.376C391.676 106.839 393.738 106.839 395.691 107.376C395.559 107.099 395.454 106.928 395.454 106.928C395.454 106.928 393.53 105.676 388.867 106.677C382.741 107.995 374.744 105.36 375.521 111.736C375.783 112.707 376.418 113.535 377.287 114.042C376.844 113.597 376.53 113.042 376.378 112.434Z" fill="#B2B2B2"/>
<path d="M367.867 88.7205C367.867 88.7205 376.009 87.9169 379.579 87.9433C383.149 87.9696 414.859 88.7205 414.859 88.7205C414.859 88.7205 429.706 85.1372 434.619 85.3875C420.905 97.5866 407.969 106.123 400.064 103.489C392.16 100.854 367.867 88.7205 367.867 88.7205Z" fill="#073B66"/>
<path d="M404.792 41.9889C404.792 41.9889 414.013 45.9411 417.333 48.9052C420.653 51.8694 423.169 63.2912 423.288 65.2146C419.336 65.2146 413.974 65.6756 413.974 65.6756C413.908 68.4403 413.51 71.1871 412.788 73.8567C411.642 77.8088 387.284 74.4231 387.284 74.4231L387.178 63.6864L377.219 61.4995C377.219 61.4995 381 50.3412 383.806 47.4429C385.637 45.5722 395.662 41.6991 395.662 41.6991L396.137 38.9062L404.581 39.5122L404.792 41.9889Z" fill="#5AA5FF"/>
<path d="M379.75 64.8745L377.891 90.9453L419.02 93.8791L420.88 67.8083L379.75 64.8745Z" fill="#F4F4F4"/>
<path d="M409.931 104.082C409.931 104.082 398.074 101.843 394.517 98.365C390.96 94.8871 375.824 86.8641 367.669 87.9049C359.514 88.9456 357.973 94.3601 366.734 101C373.136 105.15 389.129 104.952 392.871 105.176C396.827 105.757 400.733 106.637 404.556 107.811L409.931 104.082Z" fill="#F4B67D"/>
<path d="M378.192 89.6122C374.359 88.2948 368.114 86.7008 365.216 87.0696C357.061 88.1104 357.997 94.3548 366.757 100.994C367.542 101.481 368.371 101.891 369.234 102.22C369.958 96.6207 371.882 91.4434 378.192 89.6122Z" fill="#073B66"/>
<path d="M392.962 107.601C392.962 107.601 400.866 104.465 403.343 101.185C405.82 97.9048 414.33 89.7238 423.46 88.0112C432.589 86.2986 437.727 83.6638 440.23 86.0878C442.733 88.5118 438.267 97.2593 430.033 101.119C421.8 104.979 409.271 107.034 404.555 108.483C399.839 109.933 396.295 111.118 394.451 112.607C392.606 114.096 386.072 115.123 385.084 112.752C384.096 110.381 388.259 107.166 392.962 107.601Z" fill="#F4B67D"/>
<path d="M440.228 86.0822C437.738 83.6055 432.6 86.0822 423.471 87.9002C422.652 88.0661 421.843 88.2772 421.047 88.5326C423.541 89.6228 425.692 91.3705 427.27 93.5889C428.848 95.8072 429.794 98.4128 430.005 101.127C438.252 97.3064 442.692 88.6248 440.228 86.0822Z" fill="#073B66"/>
<path d="M484.31 318.987C475.088 302.243 473.903 275.302 473.889 275.078L469.516 275.302C469.516 276.251 470.715 301.65 479.37 318.987H484.31Z" fill="#74A2C4"/>
<path d="M502.055 313.113C492.715 300.361 488.644 278.282 488.605 278.031H484.086C484.257 279.006 488.038 299.241 496.272 313.113H502.055Z" fill="#397999"/>
<path d="M446.343 313.109C453.233 299.184 454.089 277.618 454.115 276.696L449.755 276.406C449.755 276.63 448.78 300.673 440.941 313.109H446.343Z" fill="#397999"/>
<path d="M446.671 202.57C446.671 202.57 443.746 251.59 461.992 271.772C448.608 274.315 425.105 275.185 425.105 275.185C425.105 275.185 401.998 236.98 407.703 204.796C418.69 198.064 446.671 202.57 446.671 202.57Z" fill="url(#paint6_linear_3435_217)"/>
<path d="M409.758 207.288C418.887 201.676 439.873 203.889 446.645 204.772C446.645 203.455 446.737 202.625 446.737 202.625C446.737 202.625 418.756 198.119 407.808 204.851C402.104 236.995 425.211 275.239 425.211 275.239H425.817C420.837 266.215 404.923 234.532 409.758 207.288Z" fill="#0869B2"/>
<path d="M422.127 274.344C422.338 274.713 422.522 275.068 422.746 275.437C415.83 295.554 407.201 314.748 404.672 318.99H409.731C413.367 312.64 421.034 294.171 427.212 275.885L427.436 275.24L422.127 274.344Z" fill="#74A2C4"/>
<path d="M427.543 274.935L427.016 274.065C403.132 234.017 411.774 206.549 411.893 206.193L410.022 205.561L407.743 204.797C407.348 205.969 398.521 233.463 422.129 274.342L427.398 275.238L427.543 274.935Z" fill="#0869B2"/>
<path d="M489.779 271.773H419.641V278.347H489.779V271.773Z" fill="#88949E"/>
<path d="M454.881 234.859C454.881 234.859 460.902 241.802 473.325 243.989C476.882 247.73 469.952 249.258 469.952 249.258C469.952 249.258 451.324 246.808 454.881 234.859Z" fill="#EAC50F"/>
<path d="M515.387 305.101C515.929 307.263 516.295 309.466 516.48 311.688C516.48 313.756 513.845 317.406 520.972 317.287C528.1 317.168 542.143 317.287 545.66 317.287C549.178 317.287 547.86 309.738 541.168 310.357C534.476 310.977 522.922 306.827 519.998 302.453C519.084 302.538 518.199 302.818 517.404 303.275C516.608 303.732 515.92 304.355 515.387 305.101Z" fill="#4C4C4C"/>
<path d="M515.992 315.008C516.111 316.325 517.112 317.326 520.972 317.261C528.152 317.142 542.142 317.261 545.66 317.261C546.977 317.261 547.583 316.259 547.544 315.008H515.992Z" fill="#F4F4F4"/>
<path d="M495.797 250.853C495.797 250.853 506.995 250.734 511.25 252.684C515.505 254.634 514.161 259.745 507.482 259.126C500.803 258.507 495.797 258.151 495.797 258.151V250.853Z" fill="#EAEAEA"/>
<path d="M495.562 251.166C495.562 251.166 506.747 251.034 511.002 252.984C515.257 254.934 513.927 260.045 507.235 259.426C500.542 258.807 495.562 258.451 495.562 258.451V251.166Z" fill="#4C3C3C"/>
<path d="M456.473 188.394C456.473 188.394 456.249 204.334 448.476 207.891C447.08 208.352 444.353 206.811 444.353 206.811C444.353 206.811 443.259 207.008 444.168 209.208C444.944 210.251 445.827 211.209 446.803 212.067C446.803 212.067 435.381 214.531 430.02 208.774C433.853 206.837 436.738 197.655 436.738 197.655C436.738 197.655 434.038 196.153 433.721 194.19C433.405 192.227 434.42 190.475 435.842 191.015C436.561 191.342 437.181 191.851 437.643 192.491C438.105 193.131 438.393 193.88 438.477 194.664C438.477 194.664 440.032 187.735 442.153 185.258C444.274 182.782 453.68 182.321 456.473 188.394Z" fill="#FFC384"/>
<path d="M430.838 207.953C430.838 207.953 439.375 212.972 446.845 211.51C452.517 217.381 455.662 225.242 455.605 233.405C455.605 239.241 466.553 249.28 466.553 249.28C466.553 249.28 453.603 249.28 448.491 252.376C445.604 254.02 443.111 256.277 441.188 258.988C439.265 261.698 437.958 264.797 437.359 268.066C431.708 265.51 429.336 253.653 428.968 246.355C428.599 239.057 425.872 231.218 423.698 224.46C421.524 217.702 420.075 212.011 430.838 207.953Z" fill="#FFDB00"/>
<path d="M480.555 249.61C480.555 249.61 491.305 249.03 496.047 249.755C496.389 250.021 496.71 250.311 497.009 250.625C499.894 253.668 498.445 257.422 498.116 258.634C495.191 261.677 492.846 261.73 488.578 262.982C484.309 264.233 480.555 249.61 480.555 249.61Z" fill="#04385B"/>
<path d="M461.992 272.625C461.992 272.625 484.058 274.443 492.095 273.943C492.674 281.755 492.635 283.626 497.562 287.828C502.489 292.03 513.687 307.325 513.687 307.325C513.687 307.325 520.919 303.861 521.828 302.767C515.386 292.386 503.951 270.293 500.486 266.275C497.022 262.257 496.323 260.821 485.086 261.085C473.849 261.348 461.992 272.625 461.992 272.625Z" fill="#042942"/>
<path d="M436.7 261.801C436.7 261.801 435.725 272.261 451.046 274.817C466.368 277.373 486.379 265.938 489.778 261.801C493.176 257.664 498.499 249.615 481.175 249.615C463.851 249.615 451.231 246.901 445.606 250.287C439.98 253.673 436.7 261.801 436.7 261.801Z" fill="#073B66"/>
<path d="M457.7 240.879C459.63 240.833 461.528 240.384 463.273 239.561C465.091 238.362 466.738 237.638 468.292 239.561C469.847 241.485 470.756 246.912 470.756 246.912H465.262L463.695 245.74L457.477 245.621L457.7 240.879Z" fill="#FFC384"/>
<path d="M469.043 246.778L478.963 212.578L508.565 212.789L509.553 213.21L495.799 246.778H469.043Z" fill="#E5E5E5"/>
<path d="M470.016 246.778L479.87 213.211H509.551L496.772 246.778H470.016Z" fill="#D8D8D8"/>
<path d="M496.746 246.781H446.672V249.614H496.746V246.781Z" fill="#AFAFAF"/>
<path d="M470.029 246.781H446.672V249.614H470.029V246.781Z" fill="#939393"/>
<path d="M420.468 218.44C420.968 215.436 423.103 210.72 427.45 209.837C431.797 208.955 434.577 215.581 433.352 221.905C432.127 228.228 434.814 234.683 435.987 237.107C437.159 239.531 449.753 238.609 458.685 240.414C458.685 244.037 458.685 246.237 458.685 246.237C458.685 246.237 441.098 249.636 432.1 247.449C423.103 245.262 421.364 239.097 420.428 230.323C420.006 226.372 420.019 222.387 420.468 218.44Z" fill="#EAC50F"/>
<path d="M444.354 188.21C444.354 188.21 444.618 190.173 443.037 190.713C441.456 191.253 439.203 194.599 439.085 196.141C438.7 196.047 438.321 195.928 437.952 195.785C437.952 195.785 438.268 193.15 437.754 192.571C437.42 192.086 437 191.667 436.516 191.332C436.55 189.486 436.686 187.644 436.924 185.812C436.924 185.813 443.946 186.063 444.354 188.21Z" fill="#AA471B"/>
<path d="M461.176 190.051C461.681 189.753 462.085 189.311 462.336 188.782C462.587 188.252 462.675 187.66 462.587 187.081C462.499 186.502 462.24 185.962 461.843 185.531C461.446 185.1 460.93 184.798 460.36 184.663C460.439 183.806 461.018 182.66 460.584 181.54C459.991 179.933 458.673 179.617 457.356 179.419C456.039 179.222 457.158 177.628 454.893 176.719C453.575 176.205 453.378 177.061 452.455 177.206C451.849 177.312 451.138 176.627 450.624 176.363C450.133 176.043 449.573 175.845 448.991 175.783C448.343 175.742 447.7 175.913 447.159 176.271C446.619 176.64 446.659 177.285 445.842 176.982C445.407 176.798 445.091 176.06 444.656 175.783C444.126 175.394 443.483 175.19 442.825 175.204C440.678 175.52 441.073 177.048 440.19 176.916C438.346 176.64 436.989 176.561 436.528 178.84C436.33 179.841 433.893 179.393 434.381 181.804C434.591 182.897 435.935 182.845 435.777 183.372C435.777 183.569 433.893 184.505 434.736 186.243C434.916 186.574 435.164 186.862 435.464 187.089C435.764 187.316 436.109 187.476 436.475 187.558C436.842 187.641 437.223 187.644 437.591 187.567C437.959 187.49 438.306 187.335 438.61 187.113C438.438 188.43 439.584 188.878 440.48 188.931C441.014 188.995 441.556 188.931 442.06 188.743C442.565 188.555 443.017 188.249 443.379 187.851C444.459 190.077 446.013 190.486 448.016 189.339C448.092 189.79 448.261 190.219 448.513 190.6C448.765 190.982 449.094 191.306 449.478 191.553C450.238 192.023 451.103 192.297 451.995 192.35C452.888 192.403 453.779 192.233 454.59 191.856C454.669 192.517 454.995 193.124 455.504 193.554C456.012 193.984 456.664 194.206 457.33 194.174C458.265 194.174 459.266 193.898 459.069 192.672C459.754 192.989 461.703 193.133 462.086 192.159C462.174 191.962 462.221 191.748 462.223 191.533C462.224 191.317 462.181 191.103 462.096 190.904C462.01 190.706 461.884 190.528 461.726 190.381C461.568 190.234 461.381 190.121 461.176 190.051Z" fill="#934016"/>
<path d="M311.875 265.523H306.039V307.416H311.875V265.523Z" fill="#74A2C4"/>
<path d="M346.142 310.95H340.306L326.039 269.07H331.875L346.142 310.95Z" fill="#74A2C4"/>
<path d="M270.352 310.95H276.188L290.455 269.07H284.619L270.352 310.95Z" fill="#74A2C4"/>
<path d="M362.212 139.164H255.648V270.297H362.212V139.164Z" fill="#F2F2F2"/>
<path d="M284.911 213.742H275.887V243.647H284.911V213.742Z" fill="#33E5DC"/>
<path d="M299.176 206.281H290.152V243.643H299.176V206.281Z" fill="#0EC1B3"/>
<path d="M313.446 198.812H304.422V243.643H313.446V198.812Z" fill="#168BD3"/>
<path d="M327.7 191.555H318.676V243.644H327.7V191.555Z" fill="#0869B2"/>
<path d="M341.966 181.742H332.941V243.66H341.966V181.742Z" fill="#033D91"/>
<path d="M336.656 166.078C312.838 194.507 285.66 203.439 275.793 205.877V209.065C285.489 206.786 314.116 197.827 339.028 168.067L336.656 166.078Z" fill="#33E5DC"/>
<path d="M330.77 164.246L341.967 161.875L340.518 173.376L330.77 164.246Z" fill="#33E5DC"/>
<g style="mix-blend-mode:multiply">
<g style="mix-blend-mode:multiply">
<path d="M395.439 185.389L396.019 185.007C391.394 178.894 388.47 173.48 385.717 171.912C386.382 171.071 386.846 170.089 387.074 169.041C387.303 167.993 387.289 166.907 387.034 165.865C383.174 157.658 383.846 156.117 385.282 152.625C386.718 149.134 384.109 140.018 378.879 141.388C378.313 140.229 376.93 137.923 370.975 138.464C360.436 140.492 360.436 151.216 360.436 151.216C360.436 151.216 360.963 151.321 361.753 151.4C361.648 152.019 361.542 152.718 361.463 153.376C361.318 154.575 359.751 156.696 359.751 157.882C359.751 158.159 361.068 158.224 361.068 158.343C360.973 160.52 361.639 162.663 362.952 164.403C363.068 164.499 363.202 164.571 363.347 164.614C362.817 167.386 361.931 170.078 360.712 172.623C360.185 173.651 360.383 174.086 360.963 174.112C358.909 176.406 357.248 179.023 356.049 181.858C356.431 182.069 358.144 182.807 358.144 182.807C358.144 182.807 355.443 187.339 355.443 189.578C355.443 191.818 356.589 192.635 357.155 194.505C357.603 195.994 354.428 205.598 352.07 212.751C360.897 209.036 368.643 206.48 374.334 206.164C372.49 215.821 369.065 232.828 364.994 250.6C362.623 260.902 359.211 268.266 355.496 273.641C358.486 283.442 363.821 300.542 365.547 306.062H371.476L371.396 305.496C371.396 305.496 368.129 279.319 366.996 274.84C365.863 270.361 362.728 266.777 362.544 263.379C362.544 263.168 362.794 261.969 363.071 260.256H368.208C368.274 260.665 368.353 261.047 368.419 261.363C369.434 265.908 374.361 275.696 375.757 280.36C376.943 284.312 384.887 300.964 387.245 305.864L393.226 305.733C392.896 304.626 388.747 290.807 387.535 283.587C386.217 276.052 378.813 266.567 378.431 263.339C378.401 262.306 378.48 261.273 378.668 260.256H380.368C380.816 253.88 383.095 239.033 384.32 233.171C385.545 227.308 383.332 220.8 382.555 218.798L383.319 218.469C382.809 218.04 382.334 217.574 381.896 217.072C382.831 216.993 383.279 215.241 383.569 214.661C383.859 214.082 389.418 209.273 393.502 205.163C397.586 201.053 401.907 196.099 400.603 194.281C399.299 192.463 395.571 185.56 395.439 185.389ZM381.606 210.788C380.994 210.882 380.368 210.842 379.773 210.671C379.177 210.5 378.625 210.203 378.155 209.8C377.146 206.381 376.67 202.826 376.745 199.261C376.916 194.532 384.847 186.838 384.847 186.838C385.809 186.759 388.733 189.776 388.733 189.776L391.368 188.116L389.616 189.262L394.056 195.665C394.056 195.665 382.423 210.406 381.606 210.788Z" fill="#DBDBDB"/>
</g>
</g>
<path d="M360.605 156.725C360.167 160.5 359.159 164.187 357.615 167.659C355.441 172.244 365.848 165.459 366.099 162.916C366.349 160.374 365.822 151.547 360.605 156.725Z" fill="#934016"/>
<path d="M361.846 301.07C361.846 301.07 363.163 308.672 363.413 311.069C363.664 313.467 359.053 315.891 357.762 316.721C358.882 319.04 369.473 315.232 369.473 315.232L367.484 301.07H361.846Z" fill="#FFC384"/>
<path d="M369.224 313.492C367.047 314.55 364.818 315.495 362.545 316.325C362.063 316.482 361.542 316.475 361.065 316.303C360.587 316.131 360.181 315.805 359.91 315.376C359.91 315.376 352.493 317.392 350.952 317.471C349.529 317.8 350.517 320.026 351.637 320.277C352.757 320.527 370.37 319.473 370.37 319.473C370.37 319.473 371.147 314.493 369.224 313.492Z" fill="#88949E"/>
<path d="M351.661 319.041C352.728 319.107 368.787 318.277 370.513 318.172C370.513 318.936 370.394 319.489 370.394 319.489C370.394 319.489 352.768 320.543 351.661 320.293C351.296 320.14 350.98 319.889 350.748 319.568C350.515 319.248 350.376 318.87 350.344 318.475C350.694 318.825 351.166 319.028 351.661 319.041Z" fill="#4C4C4C"/>
<path d="M381.83 299.502C381.83 299.502 384.215 306.827 384.847 309.171C385.479 311.516 381.237 314.573 380.078 315.587C381.514 317.708 391.447 312.399 391.447 312.399L387.416 298.672L381.83 299.502Z" fill="#FFC384"/>
<path d="M390.945 310.75C388.948 312.112 386.881 313.37 384.753 314.518C384.302 314.74 383.789 314.806 383.296 314.706C382.802 314.605 382.356 314.345 382.026 313.964C382.026 313.964 376.454 317.442 373.45 317.284C372.133 317.824 373.45 319.919 374.531 319.919C377.027 320.093 379.536 319.96 382 319.524C385.709 318.692 389.372 317.667 392.974 316.454C392.974 316.454 393 311.461 390.945 310.75Z" fill="#88949E"/>
<path d="M373.042 317.55C373.181 317.841 373.385 318.095 373.639 318.294C373.893 318.493 374.189 318.631 374.504 318.696C377.001 318.863 379.508 318.73 381.974 318.301C385.659 317.471 389.299 316.455 392.882 315.258C392.882 315.982 392.882 316.496 392.882 316.496C389.279 317.709 385.617 318.733 381.908 319.566C379.443 320.002 376.935 320.134 374.438 319.961C373.542 319.895 372.423 318.301 373.042 317.55Z" fill="#4C4C4C"/>
<path d="M378.735 214.726C378.735 214.726 382.174 223.078 380.698 230.245C379.223 237.411 374.533 258.081 374.902 261.414C375.271 264.747 382.543 274.588 383.781 282.348C385.019 290.107 389.354 305.323 389.354 305.323L384.084 306.799C384.084 306.799 373.545 283.823 372.227 279.015C370.91 274.206 366.062 264.075 365.074 259.386C364.086 254.696 362.61 240.613 362.61 240.613C362.61 240.613 359.528 260.532 359.343 261.467C359.528 264.984 362.571 268.673 363.678 273.324C364.784 277.974 367.972 305.02 367.972 305.02L362.887 307.404C362.887 307.404 352.651 272.731 350.793 265.88C348.936 259.03 350.122 252.996 349.819 247.634C349.516 242.273 349.516 213.224 349.516 213.224C349.516 213.224 371.437 209.535 378.735 214.726Z" fill="#FFC384"/>
<path d="M348.158 258.237H376.798C377.22 251.651 379.433 236.303 380.75 230.243C382.226 223.076 378.787 214.724 378.787 214.724C371.489 209.534 349.568 213.249 349.568 213.249C349.568 213.249 347.354 242.705 347.657 248.08C347.789 251.361 347.776 254.628 348.158 258.237Z" fill="#073B66"/>
<path d="M365.138 162.492C365.138 162.492 356.602 168.104 353.124 177.207C353.493 177.431 355.166 178.182 355.166 178.182C355.166 178.182 352.531 182.872 352.531 185.191C352.531 187.509 353.651 188.339 354.204 190.289C354.757 192.239 349.633 207.639 347.617 214.305C354.204 219.865 372.318 218.626 379.735 215.043C373.675 209.773 373.056 198.931 373.148 195.163C373.306 190.263 381.053 182.319 381.053 182.319C381.975 182.227 384.834 185.349 384.834 185.349L391.961 180.461C387.034 173.545 384.056 167.498 381.171 166.576C373.754 164.192 365.138 162.492 365.138 162.492Z" fill="#41E4F9"/>
<path d="M359.96 140.095C359.168 142.6 358.63 145.177 358.353 147.789C358.208 149.014 356.68 151.214 356.68 152.439C356.68 152.716 357.997 152.795 357.997 152.914C357.904 155.15 358.553 157.354 359.841 159.184C360.658 159.948 364.545 159.619 364.545 159.619L363.82 164.994C364.3 165.554 364.887 166.013 365.547 166.343C366.206 166.673 366.925 166.869 367.661 166.918C368.398 166.967 369.136 166.869 369.834 166.629C370.531 166.389 371.174 166.012 371.724 165.521C371.606 161.081 371.237 154.653 371.237 154.653C371.237 154.653 373.872 154.771 374.438 153.177C375.005 151.583 374.623 147.802 372.897 147.987C371.171 148.171 370.433 150.397 370.433 150.397C370.433 150.397 370.868 144.034 369.999 141.321C369.129 138.607 363.043 135.629 359.96 140.095Z" fill="#FFC384"/>
<path d="M365.272 144.791C362.189 146.517 357.367 145.542 357.367 145.542C357.367 145.542 357.367 134.449 367.63 132.368C373.374 131.828 374.73 134.199 375.284 135.398C380.369 133.975 382.898 143.394 381.515 147.004C380.132 150.614 379.46 152.274 383.228 160.692C385.428 174.788 363.546 168.596 364.363 167.634C369.092 161.812 365.14 144.936 365.272 144.791Z" fill="#934016"/>
<path d="M391.486 180.844C391.486 180.844 395.359 188.182 396.637 190.065C397.915 191.949 393.713 197.074 389.721 201.316C385.729 205.558 380.367 210.419 380.025 211.131C379.682 211.842 379.155 214.253 377.838 213.476C376.521 212.698 374.913 211.934 374.004 212.856C373.095 213.779 371.791 214.832 370.843 214.74C369.894 214.648 369.841 214.174 370.092 214.147C370.342 214.121 373.741 211.025 374.413 211.038C374.078 210.598 373.62 210.267 373.095 210.09C372.674 210.024 368.761 212.883 367.497 211.605C367.639 211.286 367.861 211.009 368.142 210.801C368.142 210.801 366.93 211.131 366.588 210.525C367.839 209.214 369.251 208.068 370.79 207.113C371.531 206.822 372.354 206.822 373.095 207.113C373.029 206.824 372.885 206.56 372.678 206.348C372.471 206.137 372.21 205.986 371.923 205.914C371.462 205.914 368.405 207.798 367.431 207.692C366.456 207.587 366.113 207.047 366.271 206.915C366.429 206.783 369.868 205.229 370.737 204.781C370.98 204.598 371.258 204.468 371.553 204.397C371.849 204.327 372.155 204.318 372.455 204.371C372.754 204.424 373.039 204.538 373.292 204.706C373.545 204.874 373.76 205.092 373.925 205.347C374.992 206.81 377.206 207.495 378.009 207.113C378.813 206.731 389.998 191.475 389.998 191.475L385.65 184.888L391.486 180.844Z" fill="#FFC384"/>
<g style="mix-blend-mode:multiply">
<g style="mix-blend-mode:multiply">
<path d="M286.69 191.342C287.12 190.876 287.52 190.383 287.888 189.866C283.422 184.399 278.746 179.657 277.349 178.286C276.199 177.311 274.85 176.596 273.397 176.192C275.736 171.624 276.779 166.503 276.414 161.384C275.386 151.306 272.462 146.471 270.354 147.236C268.536 144.601 260.105 143.283 255.691 146.353V270.293H255.902C257.43 265.564 259.644 258.977 261.369 253.813C263.451 254.063 265.611 254.274 267.759 254.405C268.114 259.899 268.536 266.262 268.826 270.293H277.679C278.14 266.42 278.996 260.189 279.655 253.931C280.644 253.731 281.604 253.408 282.513 252.969C284.753 231.891 284.384 227.491 280.208 219.574C279.918 219.007 279.615 218.375 279.325 217.716C280.472 218.375 280.946 216.333 281.236 215.74C281.525 215.147 286.215 211.037 289.693 207.467C293.171 203.897 295.108 201.156 294.001 199.562C292.895 197.968 286.69 191.342 286.69 191.342ZM279.418 212.42C278.654 212.592 277.854 212.454 277.191 212.038C276.256 209.048 275.439 205.873 274.82 203.027C274.897 202.326 275.07 201.639 275.334 200.985C276.736 197.797 277.105 194.25 276.388 190.841L281.868 196.559L283.106 195.241L282.83 195.531L287.875 201.749C287.875 201.749 280.103 212.025 279.418 212.354V212.42Z" fill="#DBDBDB"/>
</g>
</g>
<path d="M264.529 173.148C264.529 173.148 260.577 168.023 247.996 172.542C245.717 168.985 246.112 155.706 246.112 155.706L266.953 153.914L264.529 173.148Z" fill="#934016"/>
<path d="M229.907 305.867C229.907 305.867 226.811 311.137 225.336 311.861C226.759 313.851 233.622 313.416 233.622 313.416L233.925 307.606L229.907 305.867Z" fill="#FFC384"/>
<path d="M267.414 305.867V310.689H262.5V305.445L267.414 305.867Z" fill="#FFC384"/>
<path d="M244.149 231.443C244.149 231.443 239.486 266.301 237.457 272.795C235.81 278.065 231.766 296.956 230.067 304.281C229.801 305.38 229.422 306.449 228.934 307.469L233.887 308.405C233.887 308.405 236.706 295.797 240.474 290.962C244.242 286.127 246.218 277.617 246.402 273.349C247.72 268.343 256.072 243.18 256.072 242.614C256.18 242.145 256.372 241.698 256.638 241.297L256.098 228.992C252.074 229.59 248.085 230.408 244.149 231.443Z" fill="#FFC384"/>
<path d="M269.271 271.834C269.152 270.108 271.576 253.522 272.433 241.758L259.18 242.548C259.601 249.241 260.8 268.395 261.103 271.834C261.485 275.997 261.103 279.343 261.103 284.441C261.103 289.54 262.5 306.56 262.5 306.56L267.413 307.114C267.413 307.114 270.259 286.615 269.982 282.083C269.706 277.551 269.455 274.561 269.271 271.834Z" fill="#FFC384"/>
<path d="M226.918 310.344C226.918 310.344 230.66 312.899 233.743 311.042C234.177 314.678 234.177 320.395 234.177 320.395H214.087C214.087 320.395 211.927 315.574 215.76 315.02C219.594 314.467 220.7 315.323 221.939 313.967C223.481 312.605 225.148 311.392 226.918 310.344Z" fill="#E2E2E2"/>
<path d="M221.887 313.99C223.429 312.628 225.096 311.416 226.866 310.367C226.866 310.367 227.196 310.578 227.723 310.841L223.678 315.307L221.887 313.99Z" fill="#A3A3A3"/>
<path d="M234.125 317.297C234.125 319.089 234.125 320.393 234.125 320.393H214.088C213.667 319.416 213.465 318.36 213.495 317.297H234.125Z" fill="#4C4C4C"/>
<path d="M272.117 320.74H260.695V316.63C261.129 314.288 261.732 311.981 262.5 309.727C263.515 309.727 267.414 309.727 267.414 309.727C268.359 311.366 269.429 312.929 270.615 314.403C271.603 315.312 272.367 317.486 272.117 320.74Z" fill="#E2E2E2"/>
<path d="M262.766 314.523L263.332 309.648H266.599L267.917 314.496L262.766 314.523Z" fill="#A3A3A3"/>
<path d="M271.933 317.117C272.17 318.309 272.232 319.53 272.117 320.74H260.695V317.117H271.933Z" fill="#4C4C4C"/>
<path d="M259.126 163.219C259.126 163.219 258.718 168.04 258.823 169.015C258.929 169.99 262.249 170.583 262.249 170.583C262.249 170.583 259.746 180.121 253.751 180.266C248.35 178.066 247.599 171.558 248.021 170.306C249.335 170.224 250.614 169.846 251.762 169.2C252.236 168.752 251.841 164.075 251.841 164.075L259.126 163.219Z" fill="#F2B175"/>
<path d="M248.933 170.211C248.933 170.211 242.794 171.739 240.897 172.53C239 173.32 234.784 185.163 233.625 186.718L238.289 189.603L240.844 186.718C240.844 186.718 240.278 194.49 242.768 196.796C243.624 198.192 244.006 205.636 243.716 208.02C243.426 210.405 267.983 210.181 267.983 210.181C267.983 210.181 265.598 200.682 267.324 196.572C268.711 193.278 269.078 189.643 268.378 186.138L273.819 192.014C273.819 192.014 278.904 186.586 279.786 185.216C275.334 179.604 270.696 174.677 269.339 173.36C267.983 172.042 265.097 171.028 262.832 170.488C262.555 172.49 258.194 177.272 254.822 179.485C249.012 176.758 248.933 170.211 248.933 170.211Z" fill="#FFDE1F"/>
<path d="M249.206 170.117C249.206 170.117 246.875 181.486 247.099 185.267C252.711 185.017 261.3 184.74 261.3 184.74C261.3 184.74 261.616 172.633 263.158 170.433C263.949 170.449 264.726 170.653 265.424 171.026C265.424 171.026 263.052 178.535 263.895 184.925C264.883 185.083 265.608 187.138 265.555 190.339C265.503 193.54 268.598 208.783 272.142 215.738C276.279 223.893 276.648 228.438 274.421 250.083C265.819 254.47 239.734 248.607 239.734 248.607C239.734 248.607 241.236 238.134 242.778 227.595C243.871 220.02 241.46 220.349 242.778 212.458C243.239 209.626 243.937 203.79 244.095 201.076C244.119 197.249 243.894 193.425 243.423 189.628C243.081 187.731 243.225 185.979 244.306 185.676C244.411 182.843 245.531 171.5 247.099 170.526C247.204 170.499 249.206 170.117 249.206 170.117Z" fill="#073B66"/>
<path d="M278.599 186.719C278.599 186.719 284.725 193.569 285.832 195.19C286.938 196.81 285.015 199.629 281.55 203.292C278.086 206.954 273.448 211.196 273.158 211.802C272.869 212.408 272.408 214.503 271.261 213.831C270.115 213.159 268.732 212.513 267.942 213.291C267.151 214.068 266.018 215.016 265.201 214.924C264.385 214.832 264.332 214.437 264.543 214.424C264.754 214.41 267.704 211.71 268.297 211.723C267.993 211.338 267.58 211.053 267.112 210.906C266.743 210.84 263.357 213.317 262.264 212.223C262.386 211.948 262.576 211.707 262.817 211.525C262.817 211.525 261.776 211.815 261.5 211.288C262.588 210.152 263.814 209.156 265.149 208.324C265.793 208.075 266.507 208.075 267.151 208.324C267.092 208.074 266.965 207.846 266.783 207.664C266.602 207.483 266.373 207.356 266.124 207.296C265.728 207.296 263.08 208.917 262.171 208.838C261.262 208.759 260.999 208.271 261.17 208.153C261.341 208.034 264.292 206.704 265.057 206.308C265.266 206.15 265.506 206.037 265.761 205.976C266.016 205.915 266.281 205.907 266.539 205.953C266.798 205.999 267.044 206.097 267.262 206.242C267.481 206.387 267.667 206.576 267.81 206.796C268.203 207.348 268.74 207.783 269.362 208.052C269.984 208.322 270.669 208.416 271.34 208.324C272.039 207.981 279.759 197.39 279.759 197.39L274.739 191L278.599 186.719Z" fill="#FFC384"/>
<path d="M264.32 154.051C264.32 154.051 263.938 166.777 255.098 166.54C249.341 166.369 247.312 157.872 247.312 157.872C246.593 157.693 245.958 157.272 245.514 156.679C245.07 156.086 244.844 155.358 244.875 154.618C244.677 151.746 245.784 150.863 246.469 151.865C246.375 150.33 246.613 148.793 247.167 147.359C247.167 147.359 259.775 144.039 261.408 143.908C263.042 143.776 264.32 154.051 264.32 154.051Z" fill="#FFC384"/>
<path d="M261.775 148.003C261.775 148.003 261.564 155.591 262.592 159.307C263.619 163.022 260.892 177.328 258.639 177.75C262.842 178.316 269.284 166.328 268.283 155.974C267.282 145.619 264.331 140.626 262.262 141.482C260.207 138.334 249.602 137.095 246.111 142.194C240.354 150.612 240.921 176.301 251.67 177.302C250.208 176.209 247.837 163.983 248.219 162.099C248.439 158.801 248.364 155.49 247.995 152.206C251.052 151.108 254.024 149.787 256.887 148.254C255.056 149.821 253.133 151.244 253.133 151.244C253.133 151.244 259.153 151.389 261.775 148.003Z" fill="#934016"/>
<path d="M273.422 205.969H242.806L237.879 164.695H268.495L273.422 205.969Z" fill="white"/>
<path d="M258.06 194.385C254.872 194.464 238.787 193.555 238.787 193.555L240.684 188.167L239.669 179.696L238.115 178.734C238.115 178.734 232.661 194.793 233.161 196.69C233.662 198.587 243.095 198.97 248.14 198.759C251.618 198.614 255.676 198.205 258.06 198.021V194.385Z" fill="#FFC384"/>
<path d="M257.206 194.385C258.211 194.283 259.162 193.879 259.933 193.225C260.746 192.555 261.662 192.021 262.647 191.644C263.173 191.328 263.661 191.091 263.714 191.644C263.766 192.198 263.173 192.725 262.765 192.856C262.357 192.988 262.067 193.594 262.067 193.594C263.288 193.65 264.512 193.619 265.729 193.502C266.337 193.221 266.973 193.004 267.626 192.856C268.153 192.856 267.811 193.436 267.626 193.568C267.039 193.87 266.436 194.143 265.821 194.385C266.476 194.219 267.109 193.976 267.705 193.66C268.074 193.489 268.707 193.476 268.535 194.016C268.364 194.556 267.218 194.991 267.218 194.991C267.521 194.922 267.83 194.878 268.14 194.859C268.377 194.859 268.641 195.504 267.587 195.926L266.019 196.598C266.019 196.598 267.336 196.268 267.639 196.203C267.942 196.137 268.324 196.703 267.639 197.046C266.289 197.896 264.741 198.382 263.147 198.455C260.894 198.534 258.207 198.007 256.929 198.113C256.612 196.873 256.709 195.564 257.206 194.385Z" fill="#FFC384"/>
<path d="M342.111 53.6216C342.41 50.9028 342.41 48.1594 342.111 45.4406C337.145 44.1232 331.572 42.8849 330.887 40.9351C330.202 38.9854 334.036 34.6117 337.25 30.6068C335.909 28.2882 334.323 26.1197 332.521 24.1384C327.712 25.9564 322.469 28.2487 320.77 27.0103C319.07 25.772 319.663 20.0808 319.927 14.9562C317.492 13.8455 314.943 13.0061 312.325 12.4531C309.519 16.761 306.581 21.6749 304.421 21.6749C302.26 21.6749 299.323 16.7215 296.517 12.4531C293.9 13.0121 291.352 13.8513 288.915 14.9562C289.179 20.0808 289.745 25.7983 288.059 27.0103C286.373 28.2223 281.103 25.9564 276.308 24.1384C274.515 26.1265 272.939 28.2992 271.605 30.6199C274.832 34.5721 278.626 38.9195 277.968 40.9351C277.309 42.9507 271.71 44.0969 266.743 45.4406C266.612 46.758 266.52 48.1544 266.52 49.5377C266.52 50.921 266.612 52.2779 266.743 53.6216C271.71 54.939 277.283 56.1905 277.968 58.1271C278.653 60.0637 274.832 64.4506 271.605 68.4423C272.947 70.7643 274.532 72.937 276.334 74.9238C281.129 73.1058 286.386 70.8004 288.098 72.0387C289.811 73.2771 289.205 78.9814 288.942 84.1192C291.378 85.2217 293.926 86.0565 296.543 86.6091C299.336 82.3012 302.274 77.3874 304.447 77.3874C306.621 77.3874 309.532 82.3408 312.352 86.6091C314.967 86.0546 317.516 85.2199 319.953 84.1192C319.689 78.9814 319.123 73.2639 320.796 72.0387C322.469 70.8136 327.752 73.1058 332.547 74.9238C334.353 72.9404 335.939 70.7672 337.277 68.4423C334.062 64.4901 330.255 60.1559 330.914 58.1271C331.572 56.0983 337.145 54.9654 342.111 53.6216ZM304.434 68.2051C300.738 68.2077 297.125 67.114 294.051 65.0624C290.977 63.0107 288.58 60.0934 287.165 56.6794C285.749 53.2654 285.378 49.5083 286.099 45.8833C286.819 42.2584 288.598 38.9287 291.212 36.3154C293.825 33.702 297.155 31.9226 300.78 31.2022C304.405 30.4818 308.162 30.8529 311.576 32.2684C314.99 33.6839 317.907 36.0803 319.959 39.1544C322.01 42.2284 323.104 45.8419 323.101 49.5377C323.098 54.4875 321.13 59.2337 317.63 62.7337C314.13 66.2338 309.384 68.2016 304.434 68.2051Z" fill="#FFDB00"/>
<path d="M270.785 28.6916C270.881 27.7769 270.929 26.8579 270.93 25.9382C270.928 25.0186 270.88 24.0996 270.785 23.1849C267.439 22.289 263.658 21.4723 263.237 20.1549C262.815 18.8375 265.345 15.8997 267.518 13.2122C266.617 11.6514 265.548 10.1936 264.33 8.86483C261.103 10.09 257.572 11.6182 256.426 10.7882C255.28 9.95825 255.688 6.12466 255.859 2.67309C254.221 1.93343 252.507 1.37249 250.748 1C248.851 3.89826 246.888 7.23126 245.478 7.23126C244.069 7.23126 242.053 3.89826 240.209 1C238.45 1.37249 236.736 1.93343 235.097 2.67309C235.269 6.12466 235.651 9.97143 234.518 10.7882C233.385 11.605 229.841 10.09 226.613 8.86483C225.397 10.1961 224.332 11.6586 223.438 13.2254C225.599 15.8602 228.155 18.798 227.707 20.1549C227.259 21.5118 223.504 22.289 220.158 23.1849C220.059 24.0994 220.006 25.0184 220 25.9382C220.006 26.8581 220.058 27.7771 220.158 28.6916C223.504 29.6006 227.285 30.4174 227.707 31.7216C228.128 33.0258 225.599 35.9767 223.438 38.6642C224.335 40.2289 225.4 41.6911 226.613 43.0248C229.841 41.7996 233.372 40.2583 234.518 41.0882C235.664 41.9182 235.255 45.765 235.084 49.2165C236.722 49.9585 238.436 50.5195 240.196 50.8896C242.08 47.9914 244.056 44.6584 245.465 44.6584C246.875 44.6584 248.904 47.9914 250.735 50.8896C252.494 50.5171 254.207 49.9562 255.846 49.2165C255.675 45.765 255.293 41.9182 256.413 41.0882C257.533 40.2583 261.089 41.7996 264.317 43.0248C265.535 41.6914 266.604 40.2292 267.505 38.6642C265.331 36.0294 262.776 33.0917 263.224 31.7216C263.672 30.3515 267.439 29.6006 270.785 28.6916ZM245.426 38.5061C242.94 38.5061 240.51 37.769 238.443 36.3881C236.377 35.0071 234.766 33.0442 233.814 30.7478C232.863 28.4513 232.614 25.9243 233.099 23.4863C233.584 21.0484 234.781 18.809 236.539 17.0514C238.296 15.2937 240.536 14.0967 242.974 13.6118C245.412 13.1269 247.939 13.3758 250.235 14.327C252.532 15.2782 254.495 16.8891 255.875 18.9559C257.256 21.0226 257.994 23.4525 257.994 25.9382C257.994 27.5887 257.668 29.2229 257.037 30.7478C256.405 32.2726 255.48 33.658 254.313 34.8251C253.145 35.9921 251.76 36.9179 250.235 37.5495C248.71 38.1811 247.076 38.5061 245.426 38.5061Z" fill="#FFDB00"/>
<path d="M159.413 338.06C159.413 338.06 164.142 325.373 185.893 326.203C207.643 327.033 228.207 348.414 205.021 353.065C181.835 357.715 151.482 354.448 159.413 338.06Z" fill="url(#paint7_linear_3435_217)"/>
</g>
<defs>
<linearGradient id="paint0_linear_3435_217" x1="453.31" y1="187.936" x2="453.31" y2="122.422" gradientUnits="userSpaceOnUse">
<stop stop-color="#1DC0D5"/>
<stop offset="0.08" stop-color="#21B2DA"/>
<stop offset="0.38" stop-color="#2E81EA"/>
<stop offset="0.65" stop-color="#385EF5"/>
<stop offset="0.86" stop-color="#3E48FC"/>
<stop offset="1" stop-color="#4040FF"/>
</linearGradient>
<linearGradient id="paint1_linear_3435_217" x1="223.387" y1="153.338" x2="449.583" y2="153.338" gradientUnits="userSpaceOnUse">
<stop stop-color="#1DC0D5"/>
<stop offset="0.08" stop-color="#21B2DA"/>
<stop offset="0.38" stop-color="#2E81EA"/>
<stop offset="0.65" stop-color="#385EF5"/>
<stop offset="0.86" stop-color="#3E48FC"/>
<stop offset="1" stop-color="#4040FF"/>
</linearGradient>
<linearGradient id="paint2_linear_3435_217" x1="423.895" y1="205.283" x2="423.895" y2="101.406" gradientUnits="userSpaceOnUse">
<stop stop-color="#4F95A2"/>
<stop offset="0.16" stop-color="#509DA6"/>
<stop offset="0.41" stop-color="#51B2B0"/>
<stop offset="0.7" stop-color="#54D6C1"/>
<stop offset="1" stop-color="#57FFD5"/>
</linearGradient>
<linearGradient id="paint3_linear_3435_217" x1="255.465" y1="250.59" x2="255.465" y2="56.1036" gradientUnits="userSpaceOnUse">
<stop stop-color="#4F95A2"/>
<stop offset="0.16" stop-color="#509DA6"/>
<stop offset="0.41" stop-color="#51B2B0"/>
<stop offset="0.7" stop-color="#54D6C1"/>
<stop offset="1" stop-color="#57FFD5"/>
</linearGradient>
<linearGradient id="paint4_linear_3435_217" x1="204.141" y1="153.338" x2="248.036" y2="153.338" gradientUnits="userSpaceOnUse">
<stop stop-color="#1D92D5"/>
<stop offset="0.3" stop-color="#1668B6"/>
<stop offset="0.6" stop-color="#11449C"/>
<stop offset="0.84" stop-color="#0D2F8C"/>
<stop offset="1" stop-color="#0C2786"/>
</linearGradient>
<linearGradient id="paint5_linear_3435_217" x1="314.276" y1="106.928" x2="314.276" y2="62.7031" gradientUnits="userSpaceOnUse">
<stop stop-color="#EBEBEB"/>
<stop offset="0.18" stop-color="#F4F4F4"/>
<stop offset="0.5" stop-color="#FCFCFC"/>
<stop offset="1" stop-color="white"/>
</linearGradient>
<linearGradient id="paint6_linear_3435_217" x1="406.833" y1="238.139" x2="461.992" y2="238.139" gradientUnits="userSpaceOnUse">
<stop stop-color="#1DC0D5"/>
<stop offset="0.08" stop-color="#21B2DA"/>
<stop offset="0.38" stop-color="#2E81EA"/>
<stop offset="0.65" stop-color="#385EF5"/>
<stop offset="0.86" stop-color="#3E48FC"/>
<stop offset="1" stop-color="#4040FF"/>
</linearGradient>
<linearGradient id="paint7_linear_3435_217" x1="158.135" y1="340.589" x2="215.244" y2="340.589" gradientUnits="userSpaceOnUse">
<stop stop-color="#33E5DC"/>
<stop offset="0.03" stop-color="#33E5DC" stop-opacity="0.94"/>
<stop offset="0.13" stop-color="#33E5DC" stop-opacity="0.77"/>
<stop offset="0.23" stop-color="#33E5DC" stop-opacity="0.62"/>
<stop offset="0.34" stop-color="#33E5DC" stop-opacity="0.5"/>
<stop offset="0.46" stop-color="#33E5DC" stop-opacity="0.41"/>
<stop offset="0.59" stop-color="#33E5DC" stop-opacity="0.35"/>
<stop offset="0.75" stop-color="#33E5DC" stop-opacity="0.31"/>
<stop offset="1" stop-color="#33E5DC" stop-opacity="0.3"/>
</linearGradient>
<clipPath id="clip0_3435_217">
<rect width="690" height="350" fill="white"/>
</clipPath>
</defs>
</svg>
