<svg width="690" height="350" viewBox="0 0 690 350" fill="none" xmlns="http://www.w3.org/2000/svg">
<path d="M395.39 116.328C487.332 86.5245 581.837 127.823 524.784 220.259C469.282 310.173 551 334 551 334L216.738 332.335C148.707 309.678 90.8279 211.161 154.496 180.178C154.496 180.178 195.009 173.003 198.637 146.978C202.276 120.962 186.16 99.6182 212.148 83.2606C238.137 66.9031 281.833 71.404 322.325 103.272C353.523 127.832 395.39 116.328 395.39 116.328Z" fill="#EFEFEF"/>
<path d="M352.5 350C473.174 350 571 344.404 571 337.5C571 330.596 473.174 325 352.5 325C231.826 325 134 330.596 134 337.5C134 344.404 231.826 350 352.5 350Z" fill="#EFEFEF"/>
<path d="M198.323 47.3833C198.323 49.0159 197.684 50.4931 196.659 51.5659C195.634 52.6388 194.222 53.3074 192.677 53.3074H71.6608C68.5555 53.3074 66 50.6486 66 47.3833C66 45.7507 66.6389 44.2735 67.6641 43.2007C68.6892 42.1278 70.1007 41.4592 71.6608 41.4592H77.381C79.6394 35.9705 84.8545 32.1299 90.9313 32.1299C95.0171 32.1299 98.7167 33.8714 101.391 36.6857C104.957 30.3574 111.524 26.1125 119.057 26.1125C121.122 26.1125 123.113 26.4391 125 27.0299C128.937 19.2866 136.723 14 145.697 14C156.469 14 165.532 21.6189 168.266 31.9744C170.257 30.9327 172.485 30.3418 174.863 30.3418C181.578 30.3418 187.254 35.0375 189.037 41.4592H192.677C195.767 41.4592 198.323 44.1336 198.323 47.3833Z" fill="#CCCCFF"/>
<path d="M653.999 44.6411C653.999 46.2737 653.361 47.7509 652.335 48.8237C651.31 49.8966 649.899 50.5652 648.354 50.5652H527.352C524.247 50.5652 521.691 47.9064 521.691 44.6411C521.691 43.0085 522.33 41.5314 523.356 40.4585C524.381 39.3856 525.792 38.717 527.337 38.717H533.058C535.316 33.2283 540.531 29.3877 546.608 29.3877C550.694 29.3877 554.393 31.1292 557.068 33.9435C560.634 27.6152 567.201 23.3703 574.734 23.3703C576.799 23.3703 578.79 23.6969 580.677 24.2877C584.614 16.5444 592.399 11.2578 601.373 11.2578C612.145 11.2578 621.208 18.8767 623.942 29.2322C625.933 28.1905 628.162 27.5996 630.539 27.5996C637.255 27.5996 642.93 32.2954 644.713 38.717H648.354C651.459 38.717 653.999 41.3759 653.999 44.6411Z" fill="#CCCCFF"/>
<path d="M457.855 59.0708C457.855 60.7034 457.216 62.1806 456.191 63.2534C455.166 64.3263 453.754 64.9949 452.209 64.9949H331.208C328.102 64.9949 325.547 62.336 325.547 59.0708C325.547 57.4382 326.186 55.961 327.211 54.8882C328.236 53.8153 329.648 53.1467 331.193 53.1467H336.913C339.171 47.658 344.386 43.8174 350.463 43.8174C354.549 43.8174 358.249 45.5589 360.923 48.3732C364.489 42.0448 371.056 37.8 378.589 37.8C380.654 37.8 382.645 38.1265 384.532 38.7174C388.469 30.9741 396.255 25.6875 405.229 25.6875C416.001 25.6875 425.064 33.3064 427.798 43.6619C429.789 42.6202 432.017 42.0293 434.395 42.0293C441.11 42.0293 446.786 46.725 448.569 53.1467H452.209C455.299 53.1467 457.855 55.8211 457.855 59.0708Z" fill="#CCCCFF"/>
<path d="M555.716 117.188C558.404 117.188 560.6 119.375 560.6 122.072C560.6 124.768 558.413 126.956 555.716 126.956C553.029 126.956 550.832 124.768 550.832 122.072C550.832 119.375 553.029 117.188 555.716 117.188ZM555.716 118.723C553.868 118.723 552.368 120.223 552.368 122.072C552.368 123.92 553.868 125.42 555.716 125.42C557.565 125.42 559.065 123.92 559.065 122.072C559.074 120.223 557.565 118.723 555.716 118.723Z" fill="#8380F9"/>
<path d="M550.751 92.3828C553.439 92.3828 555.636 94.5704 555.636 97.267C555.636 99.9636 553.448 102.151 550.751 102.151C548.064 102.151 545.867 99.9636 545.867 97.267C545.867 94.5704 548.064 92.3828 550.751 92.3828ZM550.751 93.9097C548.903 93.9097 547.403 95.4098 547.403 97.2581C547.403 99.1064 548.903 100.606 550.751 100.606C552.6 100.606 554.1 99.1064 554.1 97.2581C554.1 95.4187 552.6 93.9097 550.751 93.9097Z" fill="#5446CF"/>
<path d="M535.91 85.5101C535.91 85.9298 536.249 86.278 536.678 86.278H540.053C540.473 86.278 540.821 85.9387 540.821 85.5101C540.821 85.0904 540.482 84.7422 540.053 84.7422H536.678C536.249 84.7422 535.91 85.0904 535.91 85.5101Z" fill="#6C5EF1"/>
<path d="M530 85.5101C530 85.9298 530.339 86.278 530.768 86.278H534.143C534.563 86.278 534.911 85.9387 534.911 85.5101C534.911 85.0904 534.572 84.7422 534.143 84.7422H530.768C530.339 84.7422 530 85.0904 530 85.5101Z" fill="#6C5EF1"/>
<path d="M534.645 80.7679V83.8038C534.645 84.2234 534.984 84.5717 535.412 84.5717C535.832 84.5717 536.18 84.2324 536.18 83.8038V80.7679C536.18 80.3482 535.841 80 535.412 80C534.984 80.0089 534.645 80.3482 534.645 80.7679Z" fill="#6C5EF1"/>
<path d="M534.645 87.2132V90.2491C534.645 90.6687 534.984 91.017 535.412 91.017C535.832 91.017 536.18 90.6777 536.18 90.2491V87.2132C536.18 86.7935 535.841 86.4453 535.412 86.4453C534.984 86.4542 534.645 86.7935 534.645 87.2132Z" fill="#6C5EF1"/>
<path d="M541.41 111.58C541.41 112 541.749 112.348 542.178 112.348H545.553C545.973 112.348 546.321 112.009 546.321 111.58C546.321 111.161 545.982 110.812 545.553 110.812H542.178C541.758 110.812 541.41 111.152 541.41 111.58Z" fill="#5446CF"/>
<path d="M535.508 111.58C535.508 112 535.847 112.348 536.276 112.348H539.651C540.071 112.348 540.419 112.009 540.419 111.58C540.419 111.161 540.08 110.812 539.651 110.812H536.276C535.847 110.812 535.508 111.152 535.508 111.58Z" fill="#5446CF"/>
<path d="M540.141 106.838V109.874C540.141 110.294 540.48 110.642 540.909 110.642C541.328 110.642 541.676 110.303 541.676 109.874V106.838C541.676 106.419 541.337 106.07 540.909 106.07C540.489 106.07 540.141 106.419 540.141 106.838Z" fill="#5446CF"/>
<path d="M540.141 113.284V116.319C540.141 116.739 540.48 117.087 540.909 117.087C541.328 117.087 541.676 116.748 541.676 116.319V113.284C541.676 112.864 541.337 112.516 540.909 112.516C540.489 112.516 540.141 112.855 540.141 113.284Z" fill="#5446CF"/>
<path d="M133.768 95.2435C133.768 97.9312 131.581 100.128 128.884 100.128C126.197 100.128 124 97.9401 124 95.2435C124 92.5559 126.188 90.3594 128.884 90.3594C131.581 90.3594 133.768 92.547 133.768 95.2435ZM132.241 95.2435C132.241 93.3952 130.741 91.8952 128.893 91.8952C127.045 91.8952 125.545 93.3952 125.545 95.2435C125.545 97.0919 127.045 98.5919 128.893 98.5919C130.741 98.5919 132.241 97.0829 132.241 95.2435Z" fill="#6C5EF1"/>
<path d="M154.637 64.7361C155.271 67.3523 153.655 69.9953 151.039 70.6292C148.422 71.2632 145.779 69.647 145.145 67.0308C144.512 64.4146 146.128 61.7716 148.744 61.1377C151.369 60.5037 154.012 62.1199 154.637 64.7361ZM153.155 65.0932C152.717 63.2985 150.905 62.1913 149.11 62.6288C147.315 63.0663 146.208 64.8789 146.646 66.6737C147.083 68.4684 148.896 69.5756 150.69 69.1381C152.485 68.7006 153.592 66.888 153.155 65.0932Z" fill="#8380F9"/>
<path d="M149.119 88.9531C148.7 88.9531 148.352 89.2924 148.352 89.721V93.0962C148.352 93.5159 148.691 93.8641 149.119 93.8641C149.548 93.8641 149.887 93.5248 149.887 93.0962V89.721C149.878 89.2924 149.539 88.9531 149.119 88.9531Z" fill="#5446CF"/>
<path d="M149.119 83.0391C148.7 83.0391 148.352 83.3784 148.352 83.807V87.1821C148.352 87.6018 148.691 87.95 149.119 87.95C149.548 87.95 149.887 87.6107 149.887 87.1821V83.807C149.878 83.3873 149.539 83.0391 149.119 83.0391Z" fill="#5446CF"/>
<path d="M153.851 87.6797H150.815C150.395 87.6797 150.047 88.019 150.047 88.4476C150.047 88.8673 150.386 89.2155 150.815 89.2155H153.851C154.27 89.2155 154.619 88.8762 154.619 88.4476C154.619 88.0279 154.279 87.6797 153.851 87.6797Z" fill="#5446CF"/>
<path d="M147.413 87.6797H144.377C143.958 87.6797 143.609 88.019 143.609 88.4476C143.609 88.8673 143.949 89.2155 144.377 89.2155H147.413C147.833 89.2155 148.181 88.8762 148.181 88.4476C148.172 88.0279 147.833 87.6797 147.413 87.6797Z" fill="#5446CF"/>
<path d="M132.116 77.3438C131.696 77.3438 131.348 77.6831 131.348 78.1116V81.4868C131.348 81.9065 131.687 82.2547 132.116 82.2547C132.544 82.2547 132.883 81.9154 132.883 81.4868V78.1116C132.875 77.692 132.535 77.3438 132.116 77.3438Z" fill="#5446CF"/>
<path d="M132.116 71.4453C131.696 71.4453 131.348 71.7846 131.348 72.2132V75.5884C131.348 76.0081 131.687 76.3563 132.116 76.3563C132.544 76.3563 132.883 76.017 132.883 75.5884V72.2132C132.875 71.7846 132.535 71.4453 132.116 71.4453Z" fill="#5446CF"/>
<path d="M136.847 76.0781H133.811C133.391 76.0781 133.043 76.4174 133.043 76.846C133.043 77.2657 133.382 77.6139 133.811 77.6139H136.847C137.266 77.6139 137.615 77.2746 137.615 76.846C137.615 76.4264 137.275 76.0781 136.847 76.0781Z" fill="#5446CF"/>
<path d="M130.409 76.0781H127.373C126.954 76.0781 126.605 76.4174 126.605 76.846C126.605 77.2657 126.945 77.6139 127.373 77.6139H130.409C130.829 77.6139 131.177 77.2746 131.177 76.846C131.168 76.4264 130.829 76.0781 130.409 76.0781Z" fill="#5446CF"/>
<path d="M377.87 258.68H336.582V337.746H377.87V258.68Z" fill="#2A3554"/>
<path d="M425.569 338.764H289.035V336.264C289.035 327.023 296.527 319.531 305.768 319.531H408.836C418.077 319.531 425.569 327.023 425.569 336.264V338.764Z" fill="#2A3554"/>
<path d="M377.87 261.099L336.582 268.966V258.68H377.87V261.099Z" fill="#161631"/>
<path d="M494.01 77.9534V253.373C494.01 256.311 491.635 258.686 488.697 258.686H222.407C219.469 258.686 217.094 256.311 217.094 253.373V77.9534C217.094 75.0158 219.469 72.6406 222.407 72.6406H488.697C491.635 72.6317 494.01 75.0158 494.01 77.9534Z" fill="#2A3554"/>
<path d="M486.67 85.4634V245.847C486.67 248.829 484.259 251.24 481.277 251.24H229.827C229.166 251.24 228.541 251.124 227.952 250.9C225.898 250.15 224.434 248.168 224.434 245.847V85.4634C224.434 82.4812 226.844 80.0703 229.818 80.0703H481.259C481.974 80.0703 482.67 80.2132 483.295 80.4721C485.277 81.2757 486.67 83.2133 486.67 85.4634Z" fill="white"/>
<path d="M486.669 85.4634V93.446H224.441V85.4634C224.441 82.4811 226.852 80.0703 229.835 80.0703H481.276C484.249 80.0703 486.669 82.4901 486.669 85.4634Z" fill="#E3E3FF"/>
<path d="M259.988 86.8617C259.988 87.835 260.783 88.6296 261.756 88.6296H438.872C439.846 88.6296 440.64 87.835 440.64 86.8617C440.64 85.8884 439.846 85.0938 438.872 85.0938H261.756C260.783 85.0938 259.988 85.8795 259.988 86.8617Z" fill="white"/>
<path d="M239.792 86.8677V88.1803C239.792 88.5553 239.381 88.7875 239.06 88.6L237.926 87.9482L236.792 87.2963C236.47 87.1088 236.47 86.6356 236.792 86.4481L237.926 85.7963L239.06 85.1444C239.381 84.9569 239.792 85.1891 239.792 85.5641V86.8677Z" fill="#2A3554"/>
<path d="M245.703 86.8677V88.1803C245.703 88.5553 246.114 88.7875 246.435 88.6L247.569 87.9482L248.703 87.2963C249.025 87.1088 249.025 86.6356 248.703 86.4481L247.569 85.7963L246.435 85.1444C246.114 84.9569 245.703 85.1891 245.703 85.5641V86.8677Z" fill="#2A3554"/>
<path d="M466.096 86.7568C466.096 88.2033 464.926 89.373 463.479 89.373C462.033 89.373 460.863 88.2033 460.863 86.7568C460.863 85.3103 462.033 84.1406 463.479 84.1406C464.917 84.1406 466.096 85.3103 466.096 86.7568Z" fill="#5446CF"/>
<path d="M456.4 86.7568C456.4 88.2033 455.231 89.373 453.784 89.373C452.338 89.373 451.168 88.2033 451.168 86.7568C451.168 85.3103 452.338 84.1406 453.784 84.1406C455.231 84.1406 456.4 85.3103 456.4 86.7568Z" fill="#6C5EF1"/>
<path d="M475.787 86.7568C475.787 88.2033 474.617 89.373 473.171 89.373C471.724 89.373 470.555 88.2033 470.555 86.7568C470.555 85.3103 471.724 84.1406 473.171 84.1406C474.617 84.1406 475.787 85.3103 475.787 86.7568Z" fill="#8380F9"/>
<path d="M258.48 111.023H236.176V212.073H258.48V111.023Z" fill="#E3E3FF"/>
<path d="M258.48 111.023H236.176V117.729H258.48V111.023Z" fill="#2A3554"/>
<path d="M477.25 162.367H454.945V212.084H477.25V162.367Z" fill="#E3E3FF"/>
<path d="M477.25 162.367H454.945V169.501H477.25V162.367Z" fill="#2A3554"/>
<path d="M477.758 111.375H455.453V140.35H477.758V111.375Z" fill="#E3E3FF"/>
<path d="M477.758 111.375H455.453V118.509H477.758V111.375Z" fill="#2A3554"/>
<path d="M446.036 111.383H268.562V212.084H446.036V111.383Z" fill="#E3E3FF"/>
<path d="M403.326 139.438H348.484V194.28H403.326V139.438Z" fill="#6C5EF1"/>
<path d="M356.711 164.953C360.294 150.269 351.296 135.46 336.612 131.876C321.928 128.293 307.119 137.291 303.536 151.975C299.952 166.659 308.951 181.468 323.634 185.051C338.318 188.635 353.127 179.637 356.711 164.953Z" fill="#FFC305"/>
<path d="M341.18 203.432H309.535L325.357 176.02L341.18 148.617L357.002 176.02L372.824 203.432H341.18Z" fill="#5446CF"/>
<path d="M446.036 111.383H268.562V120.026H446.036V111.383Z" fill="#2A3554"/>
<path d="M295.588 205.805C295.355 205.805 295.168 205.618 295.168 205.386V125.873C295.168 125.641 295.355 125.453 295.588 125.453C295.82 125.453 296.007 125.641 296.007 125.873V205.386C296.016 205.618 295.82 205.805 295.588 205.805Z" fill="#2A3554"/>
<path d="M296.857 126.059C296.857 126.765 296.285 127.345 295.571 127.345C294.866 127.345 294.285 126.774 294.285 126.059C294.285 125.354 294.857 124.773 295.571 124.773C296.285 124.773 296.857 125.345 296.857 126.059Z" fill="#2A3554"/>
<path d="M296.857 205.38C296.857 206.085 296.285 206.665 295.571 206.665C294.866 206.665 294.285 206.094 294.285 205.38C294.285 204.674 294.857 204.094 295.571 204.094C296.285 204.103 296.857 204.674 296.857 205.38Z" fill="#2A3554"/>
<path d="M418.74 205.805C418.508 205.805 418.32 205.618 418.32 205.386V125.873C418.32 125.641 418.508 125.453 418.74 125.453C418.972 125.453 419.16 125.641 419.16 125.873V205.386C419.16 205.618 418.972 205.805 418.74 205.805Z" fill="#2A3554"/>
<path d="M419.997 126.059C419.997 126.765 419.426 127.345 418.712 127.345C418.006 127.345 417.426 126.774 417.426 126.059C417.426 125.354 417.997 124.773 418.712 124.773C419.426 124.773 419.997 125.345 419.997 126.059Z" fill="#2A3554"/>
<path d="M419.997 205.38C419.997 206.085 419.426 206.665 418.712 206.665C418.006 206.665 417.426 206.094 417.426 205.38C417.426 204.674 417.997 204.094 418.712 204.094C419.426 204.103 419.997 204.674 419.997 205.38Z" fill="#2A3554"/>
<path d="M157.714 306.805L152.535 313.457C152.535 313.457 153.482 316.43 157.312 318.725L163.5 311.064L157.714 306.805Z" fill="#F5AB86"/>
<path d="M156.465 316.662C156.465 316.662 158.885 316.162 159.715 316.965C160.545 317.769 162.626 328.725 164.572 331.118C166.519 333.511 164.563 334.788 163.358 335.27C162.153 335.761 145 319.278 145 319.278C145 319.278 149.241 313.644 151.286 312.554C153.331 311.456 154.295 315.501 156.465 316.662Z" fill="#161642"/>
<path d="M156.855 322.722C156.748 322.678 156.668 322.597 156.623 322.481C156.543 322.267 156.659 322.026 156.882 321.945C156.954 321.919 158.739 321.302 160.114 321.624C161.954 322.044 162.347 323.561 162.356 323.633C162.409 323.856 162.266 324.079 162.034 324.133C161.802 324.186 161.57 324.044 161.516 323.82C161.507 323.776 161.222 322.74 159.909 322.436C158.784 322.177 157.186 322.731 157.177 322.731C157.07 322.767 156.954 322.767 156.855 322.722Z" fill="white"/>
<path d="M156.66 321.027C156.553 320.982 156.472 320.902 156.428 320.786C156.347 320.571 156.464 320.33 156.687 320.25C156.758 320.223 158.544 319.607 159.919 319.929C161.758 320.348 162.151 321.866 162.16 321.938C162.214 322.161 162.071 322.384 161.839 322.438C161.607 322.491 161.375 322.348 161.321 322.125C161.312 322.08 161.026 321.045 159.714 320.741C158.58 320.482 156.99 321.036 156.981 321.036C156.874 321.08 156.758 321.071 156.66 321.027Z" fill="white"/>
<path d="M157.555 324.535C157.447 324.49 157.367 324.41 157.322 324.294C157.242 324.079 157.358 323.838 157.581 323.758C157.653 323.731 159.439 323.115 160.814 323.436C162.653 323.856 163.046 325.374 163.055 325.445C163.108 325.669 162.965 325.892 162.733 325.945C162.501 325.999 162.269 325.856 162.215 325.633C162.207 325.588 161.921 324.553 160.608 324.249C159.474 323.99 157.885 324.544 157.876 324.544C157.769 324.579 157.653 324.57 157.555 324.535Z" fill="white"/>
<path d="M190.43 216.415L185.76 260.792C185.76 260.792 179.635 268.096 175.162 276.24C171.412 283.07 155.438 307.509 155.438 307.509L163.081 313.759L202.949 269.016L211.771 215.969L190.43 216.415Z" fill="#161642"/>
<path d="M197.715 319.573L198.501 328.18C198.501 328.18 201.278 329.85 205.715 329.055L204.983 318.992L197.715 319.573Z" fill="#F5AB86"/>
<path d="M204.154 327.849C204.154 327.849 205.672 325.751 206.895 325.822C208.118 325.894 217.69 333.278 220.94 333.849C224.191 334.421 223.592 336.823 223.021 338.046C222.441 339.278 197.287 338.573 197.287 338.573C197.287 338.573 196.359 330.456 197.154 328.144C197.948 325.831 201.627 328.429 204.154 327.849Z" fill="#161642"/>
<path d="M209.05 332.27C208.943 332.306 208.818 332.306 208.711 332.252C208.496 332.145 208.407 331.886 208.514 331.672C208.55 331.6 209.389 329.904 210.612 329.189C212.246 328.234 213.622 329.1 213.675 329.145C213.872 329.279 213.934 329.546 213.8 329.743C213.666 329.939 213.398 330.002 213.202 329.868C213.166 329.841 212.211 329.261 211.05 329.939C210.05 330.52 209.3 332.038 209.291 332.056C209.237 332.163 209.148 332.234 209.05 332.27Z" fill="white"/>
<path d="M207.683 331.137C207.576 331.173 207.451 331.173 207.343 331.119C207.129 331.012 207.04 330.753 207.147 330.539C207.183 330.467 208.022 328.771 209.245 328.056C210.879 327.101 212.254 327.967 212.308 328.012C212.504 328.146 212.567 328.414 212.433 328.61C212.299 328.807 212.031 328.869 211.835 328.735C211.799 328.708 210.844 328.128 209.683 328.807C208.683 329.396 207.933 330.905 207.924 330.923C207.87 331.03 207.79 331.101 207.683 331.137Z" fill="white"/>
<path d="M210.851 333.145C210.744 333.18 210.619 333.181 210.511 333.127C210.297 333.02 210.208 332.761 210.315 332.547C210.351 332.475 211.19 330.779 212.413 330.064C214.047 329.109 215.422 329.975 215.476 330.02C215.672 330.154 215.735 330.421 215.601 330.618C215.467 330.814 215.199 330.877 215.003 330.743C214.967 330.716 214.012 330.136 212.851 330.814C211.851 331.404 211.101 332.913 211.092 332.93C211.038 333.038 210.949 333.109 210.851 333.145Z" fill="white"/>
<path d="M166.152 217.703C166.152 217.703 175.474 250.857 187.6 268.741C187.6 268.741 189.412 286.144 192.502 295.412C193.859 299.466 197.297 323.619 197.297 323.619L198.788 323.405L199.672 323.271L206.288 322.316L203.315 264.831L188.743 219.435L169.929 217.989L168.929 217.917L166.152 217.703Z" fill="#2A3554"/>
<path d="M168.93 217.914L189.556 268.765C189.565 268.827 192.636 282.632 194.368 292.338C195.922 300.972 198.181 316.008 198.788 323.402L199.672 323.268C199.056 315.803 196.842 301.017 195.252 292.177C193.511 282.462 190.431 268.64 190.404 268.497L169.93 217.985L168.93 217.914Z" fill="#161642"/>
<path d="M210.422 170.155C213.056 180.183 220.601 187.558 220.601 187.558C224.949 189.79 236.584 194.478 240.7 193.799C240.548 190.996 240.87 189.058 241.441 185.629C235.861 185.236 226.03 178.727 226.03 178.727C217.699 162.119 216.895 143.734 216.895 143.734C210.895 149.654 210.422 170.155 210.422 170.155Z" fill="#DC4809"/>
<path d="M166.287 205.922C166.252 206.244 166.234 206.556 166.198 206.869C165.689 212.539 165.314 216.932 165.145 219.093C170.484 221.075 175.877 222.53 181.315 223.477C181.565 223.521 181.806 223.557 182.056 223.602C182.19 223.62 182.324 223.646 182.449 223.664C182.744 223.709 183.038 223.754 183.324 223.798C183.645 223.852 183.967 223.896 184.297 223.941C188.012 224.45 191.744 224.727 195.503 224.763C196.262 224.772 197.021 224.763 197.78 224.754C197.834 224.754 197.878 224.754 197.923 224.754C198.119 224.754 198.307 224.745 198.503 224.736C198.619 224.736 198.736 224.727 198.852 224.727C203.236 224.602 207.647 224.155 212.093 223.379C212.192 222.396 212.334 220.95 212.495 219.119C212.522 218.78 212.558 218.432 212.593 218.066C212.826 215.45 213.111 212.182 213.415 208.494C213.442 208.181 213.468 207.86 213.495 207.538C213.701 205.083 213.915 202.449 214.129 199.708C214.156 199.386 214.183 199.074 214.201 198.752C214.424 195.94 214.647 193.011 214.87 190.047C215.004 188.234 215.138 186.403 215.272 184.573C215.406 182.716 215.531 180.859 215.656 179.01C215.683 178.608 215.71 178.207 215.736 177.805C216.897 160.34 217.629 144.258 216.576 142.366C215.844 141.053 214.049 139.428 211.915 137.749C211.656 137.544 211.388 137.338 211.12 137.133C210.209 136.437 202.557 133.035 201.611 132.356L193.316 131.008C193.262 131.035 185.038 132.999 184.985 133.017C184.628 133.178 184.262 133.347 183.895 133.517C180.788 134.954 177.708 136.481 175.886 137.874C175.618 138.08 175.377 138.276 175.172 138.472C175.011 138.633 174.859 138.785 174.734 138.937C174.618 139.071 174.502 139.312 174.377 139.642C173.029 143.223 171.189 157.59 169.493 173.251C169.368 174.376 169.252 175.501 169.136 176.635C169.082 177.135 169.029 177.626 168.975 178.126C168.939 178.466 168.904 178.814 168.868 179.153C168.85 179.323 168.832 179.492 168.814 179.671C168.725 180.519 168.636 181.376 168.555 182.216C168.493 182.841 168.43 183.466 168.359 184.091C167.573 191.993 166.85 199.663 166.287 205.922Z" fill="#FF6726"/>
<path d="M186.297 178.029C190.405 182.003 196.11 185.672 203.932 187.61C204.236 187.681 204.531 187.467 204.557 187.155V187.146C204.575 186.896 204.414 186.672 204.173 186.619C196.557 184.735 191.003 181.154 187.003 177.288C186.708 177.002 186.208 177.181 186.155 177.592V177.601C186.128 177.761 186.19 177.922 186.297 178.029Z" fill="white"/>
<path d="M186.208 170.337V170.355C186.208 170.435 186.235 170.515 186.279 170.587C186.556 171.033 186.869 171.489 187.235 171.962C189.199 174.551 192.86 177.935 199.137 179.382C199.173 179.391 199.217 179.391 199.262 179.391C199.467 179.382 199.646 179.239 199.7 179.034C199.753 178.784 199.601 178.534 199.351 178.48C192.601 176.926 188.94 173.024 187.074 170.06C186.806 169.658 186.181 169.855 186.208 170.337Z" fill="white"/>
<path d="M186.251 149.294V149.303C186.278 149.58 186.546 149.776 186.814 149.705C192.395 148.401 196.716 145.722 199.582 143.472C203.529 140.356 205.565 137.418 205.654 137.293C205.797 137.088 205.743 136.793 205.538 136.651C205.333 136.508 205.038 136.561 204.895 136.767C204.824 136.874 198.377 146.035 186.609 148.794C186.385 148.857 186.234 149.062 186.251 149.294Z" fill="white"/>
<path d="M210.316 109.769C210.316 109.769 215.129 108.563 214.995 104.894C214.879 101.768 212.709 103.349 213.236 100.965C213.754 98.5807 212.798 96.0895 209.959 96.7145C208.084 97.1253 206.137 97.911 202.932 96.3663C198.289 94.1251 196.94 97.3396 193.351 97.2324C188.056 97.0806 186.502 100.179 186.351 102.652C186.19 105.233 187.877 108.322 187.877 108.322L210.316 109.769Z" fill="#2A3554"/>
<path d="M209.048 114.99C209.048 114.99 211.244 112.562 212.503 114.847C213.762 117.142 211.119 123.33 207.699 121.446L209.048 114.99Z" fill="#F88265"/>
<path d="M208.662 119.551C208.796 119.56 208.921 119.489 208.974 119.355C209.707 117.435 211.823 116.828 211.841 116.819C212.001 116.774 212.1 116.605 212.055 116.444C212.01 116.283 211.841 116.185 211.68 116.23C211.582 116.256 209.251 116.926 208.412 119.131C208.349 119.283 208.43 119.462 208.59 119.524C208.608 119.542 208.635 119.551 208.662 119.551Z" fill="#F8664D"/>
<path d="M210.808 118.752C210.861 118.761 210.924 118.743 210.977 118.716C211.129 118.636 211.183 118.457 211.102 118.305C211.093 118.279 210.781 117.698 210.058 117.287C209.915 117.207 209.727 117.261 209.647 117.404C209.566 117.546 209.62 117.734 209.763 117.814C210.325 118.127 210.567 118.573 210.567 118.582C210.62 118.689 210.709 118.743 210.808 118.752Z" fill="#F8664D"/>
<path d="M188.868 113.154C188.868 113.154 187.145 110.368 185.493 112.395C183.841 114.422 185.314 120.985 189.02 119.753L188.868 113.154Z" fill="#F88265"/>
<path d="M188.43 117.708C188.296 117.699 188.189 117.601 188.162 117.458C187.787 115.44 185.823 114.458 185.805 114.449C185.653 114.378 185.591 114.199 185.662 114.047C185.734 113.896 185.912 113.833 186.064 113.904C186.153 113.949 188.323 115.03 188.752 117.351C188.779 117.512 188.671 117.673 188.511 117.699C188.484 117.708 188.457 117.717 188.43 117.708Z" fill="#F8664D"/>
<path d="M186.464 116.531C186.411 116.522 186.357 116.504 186.303 116.469C186.169 116.361 186.152 116.174 186.25 116.04C186.268 116.022 186.678 115.504 187.464 115.227C187.625 115.174 187.795 115.254 187.848 115.415C187.902 115.576 187.821 115.745 187.661 115.799C187.053 116.004 186.732 116.406 186.732 116.406C186.661 116.504 186.562 116.54 186.464 116.531Z" fill="#F8664D"/>
<path d="M193.057 125.57L192.477 131.91C192.477 131.91 194.075 135.312 196.611 135.767C199.147 136.223 201.691 133.428 201.691 133.428L202.29 126.865L193.057 125.57Z" fill="#F5AB86"/>
<path d="M193.056 125.57L192.797 128.383C194.342 130.446 197.342 131.196 201.913 130.946L202.288 126.865L193.056 125.57Z" fill="#F88265"/>
<path d="M187.848 108.683C187.741 111.157 187.696 114.264 187.937 116.764V116.773C187.937 116.782 187.937 116.791 187.937 116.8C187.937 116.8 187.937 116.8 187.937 116.809C188 117.425 188.08 117.996 188.17 118.523C188.223 118.827 188.295 119.148 188.366 119.478C189.438 124.327 192.295 131.47 201.34 129.149C205.144 128.166 207.412 124.541 208.769 120.496C208.849 120.255 208.921 120.014 208.992 119.791C209.037 119.639 209.081 119.487 209.126 119.344L209.189 119.13C209.198 119.094 209.206 119.068 209.206 119.05C209.206 119.041 209.206 119.032 209.206 119.032C210.073 115.907 210.456 112.71 210.617 110.407C210.787 108.067 209.706 105.808 207.769 104.469C202.536 100.835 196.617 101.478 192.643 102.594C189.911 103.37 187.973 105.826 187.848 108.683Z" fill="#F5AB86"/>
<path d="M193.93 113.858C193.868 114.536 194.171 115.117 194.6 115.152C195.028 115.188 195.43 114.679 195.493 114.001C195.555 113.322 195.252 112.742 194.823 112.706C194.385 112.661 193.993 113.179 193.93 113.858Z" fill="#2A3554"/>
<path d="M203.395 114.716C203.332 115.395 203.636 115.975 204.065 116.011C204.493 116.047 204.895 115.538 204.957 114.859C205.02 114.18 204.716 113.6 204.288 113.564C203.85 113.529 203.457 114.046 203.395 114.716Z" fill="#2A3554"/>
<path d="M191.77 109.801C191.77 109.801 194.976 108.453 197.485 109.479L197.261 110.872C197.261 110.872 193.6 110.64 191.779 111.426C191.609 110.89 191.574 110.346 191.77 109.801Z" fill="#2A3554"/>
<path d="M207.182 111.07C207.182 111.07 204.155 109.302 201.512 109.998L201.547 111.418C201.547 111.418 205.235 111.668 206.949 112.686C207.2 112.177 207.307 111.641 207.182 111.07Z" fill="#2A3554"/>
<path d="M198.386 119.786C197.877 119.741 197.395 119.5 197.315 119.456C197.163 119.375 197.109 119.197 197.19 119.045C197.27 118.893 197.448 118.84 197.6 118.92C197.859 119.054 198.502 119.286 198.797 119.143C198.85 119.116 198.931 119.054 198.966 118.875C199.172 117.831 199.207 114.277 199.207 114.241C199.207 114.071 199.341 113.938 199.511 113.938C199.681 113.938 199.815 114.071 199.815 114.241C199.815 114.393 199.779 117.884 199.565 118.982C199.484 119.393 199.243 119.59 199.056 119.679C198.859 119.786 198.618 119.804 198.386 119.786Z" fill="#F88265"/>
<path d="M201.967 122.432C201.637 123.566 200.682 125.611 198.119 125.379C195.556 125.146 195.012 123.146 194.887 121.789L201.967 122.432Z" fill="white"/>
<path d="M187.848 108.683C187.741 111.157 187.696 114.264 187.937 116.773L189.295 116.8C189.295 116.8 189.161 114.692 189.134 113.317C189.107 111.951 189.08 109.389 190.268 109.183C191.447 108.978 191.036 106.022 192.759 104.915C194.482 103.808 198.099 103.79 200.34 105.46C202.572 107.13 205.385 105.808 206.456 106.165C207.528 106.513 208.876 108.156 208.34 109.523C207.805 110.889 208.939 111.853 209.099 113.335C209.26 114.817 207.965 118.648 207.965 118.648L209.224 119.023C210.09 115.898 210.474 112.701 210.635 110.407C210.805 108.058 209.724 105.808 207.787 104.469C202.554 100.835 196.625 101.478 192.661 102.594C189.911 103.37 187.973 105.826 187.848 108.683Z" fill="#2A3554"/>
<path d="M200.887 115.179C201.066 113.17 202.851 111.688 204.861 111.875C206.87 112.063 208.352 113.84 208.164 115.849C207.986 117.858 206.2 119.34 204.191 119.153C202.182 118.965 200.7 117.179 200.887 115.179ZM201.45 115.224C201.298 116.92 202.548 118.42 204.244 118.572C205.941 118.724 207.441 117.474 207.593 115.777C207.745 114.081 206.495 112.581 204.798 112.429C203.11 112.277 201.601 113.536 201.45 115.224Z" fill="white"/>
<path d="M190.933 114.265C191.12 112.256 192.897 110.774 194.906 110.961C196.915 111.149 198.397 112.926 198.21 114.935C198.022 116.944 196.245 118.426 194.236 118.238C192.236 118.051 190.754 116.274 190.933 114.265ZM191.504 114.319C191.352 116.015 192.602 117.515 194.299 117.667C195.995 117.819 197.495 116.569 197.647 114.872C197.799 113.176 196.549 111.676 194.852 111.524C193.165 111.372 191.656 112.622 191.504 114.319Z" fill="white"/>
<path d="M210.324 113.023C210.466 113.184 210.359 113.541 210.19 113.613C208.841 113.756 207.877 114.532 207.859 114.55C207.797 114.595 207.725 114.622 207.654 114.613C207.582 114.604 207.511 114.568 207.457 114.515C207.359 114.39 207.368 114.211 207.493 114.113C207.564 114.05 208.707 113.122 210.324 113.023Z" fill="white"/>
<path d="M191.842 113.034C191.78 113.114 191.681 113.15 191.592 113.141C191.538 113.132 191.485 113.114 191.44 113.078C191.422 113.06 189.565 111.614 187.753 111.4C187.565 111.203 187.601 111.016 187.753 110.828C189.753 111.033 191.699 112.56 191.797 112.632C191.914 112.73 191.94 112.918 191.842 113.034Z" fill="white"/>
<path d="M198.093 114.098C198.102 114.089 198.861 113.241 199.745 113.321C200.62 113.402 201.146 114.366 201.155 114.375L201.655 114.107C201.629 114.054 200.986 112.857 199.798 112.75C198.619 112.643 197.709 113.679 197.664 113.723L198.093 114.098Z" fill="white"/>
<path d="M180.833 218.89L179.253 215.649C177.967 213.015 179.065 209.836 181.699 208.55L273.311 163.977L279.535 176.763L187.932 221.346C185.289 222.622 182.119 221.524 180.833 218.89Z" fill="#31C5FF"/>
<path d="M298.633 167.477L292.414 154.695L273.329 163.981L279.548 176.763L298.633 167.477Z" fill="#2A3554"/>
<path d="M317.42 163.898C312.411 166.863 306.206 168.568 298.634 167.488L292.41 154.702C292.41 154.702 297.285 146.174 305.072 144.317C306.804 143.906 308.286 143.71 309.59 143.674C309.59 143.674 309.59 143.674 309.599 143.674C320.17 143.371 318.59 153.416 334.582 142.094C334.582 142.085 329.573 156.702 317.42 163.898Z" fill="#5A72EB"/>
<path d="M317.419 163.898C312.026 163.077 312.384 153.934 313.33 150.326C314.464 146.014 309.785 143.763 309.598 143.674C320.17 143.371 318.589 153.416 334.581 142.094C334.581 142.085 329.572 156.702 317.419 163.898Z" fill="#31C5FF"/>
<path d="M197.288 202.891L198.61 203.498C199.788 204.043 201.003 203.757 202.021 202.945C202.467 202.588 203.181 201.882 203.53 201.686C204.521 201.15 206.842 200.534 207.494 200.784C208.146 201.034 207.485 202.15 206.806 202.463C206.128 202.775 205.119 203.105 204.413 203.659C203.699 204.213 206.494 207.275 207.735 208.266C208.985 209.258 211.798 209.633 211.503 210.909C211.208 212.186 209.28 211.508 209.28 211.508C209.28 211.508 209.342 212.811 207.405 212.972C207.405 212.972 207.208 214.124 205.958 214.222C205.958 214.222 205.476 215.579 204.163 215.392C202.851 215.204 198.77 214.597 193.672 207.07L197.288 202.891Z" fill="#F5AB86"/>
<path d="M197.707 202.165C197.707 202.165 178.938 186.771 172.938 178.655C172.938 178.655 174.018 169.003 175.205 161.279C175.973 156.279 176.232 151.207 175.92 146.153C175.741 143.323 175.402 140.573 174.75 138.93C174.75 138.93 169.303 140.528 165.741 158.663C163.803 168.538 163.017 176.369 162.714 180.459C162.562 182.521 163.187 184.557 164.464 186.182C168.437 191.236 178.411 202.281 193.028 207.505C193.01 207.514 196.903 204.504 197.707 202.165Z" fill="#DC4809"/>
<path d="M253.129 187.955C253.129 187.955 250.254 185.624 248.513 185.713C246.781 185.803 250.165 189.562 250.165 189.562C250.165 189.562 246.049 185.053 244.781 185.83C243.513 186.606 247.397 191.098 247.397 191.098C247.397 191.098 244.138 188.473 243.111 188.973C242.084 189.473 244.781 192.875 244.781 192.875C244.781 192.875 241.986 191.053 241.164 191.348C240.343 191.642 242.28 194.776 243.789 195.964C245.307 197.152 246.441 194.83 246.441 194.83C246.441 194.83 248.567 193.982 248.7 192.919C248.7 192.919 250.781 192.383 251.308 191.267C251.308 191.267 254.415 190.026 253.129 187.955Z" fill="#F5AB86"/>
<path d="M511.131 192.005L494.016 193.773L508.206 331.085L525.321 329.316L511.131 192.005Z" fill="#00B47F"/>
<path d="M498.094 193.359L496.957 193.477L511.148 330.788L512.285 330.67L498.094 193.359Z" fill="#FFC305"/>
<path d="M503.137 192.828L502 192.945L516.191 330.256L517.328 330.139L503.137 192.828Z" fill="#FFC305"/>
<path d="M508.176 192.312L507.039 192.43L521.23 329.741L522.367 329.623L508.176 192.312Z" fill="#FFC305"/>
<path d="M524.584 322.13L507.469 323.898L508.21 331.075L525.325 329.306L524.584 322.13Z" fill="#2A3554"/>
<path d="M508.195 331.097L508.41 333.142C508.901 337.865 513.124 341.303 517.857 340.812C522.58 340.321 526.018 336.097 525.527 331.365L525.312 329.32L508.195 331.097Z" fill="#FFC305"/>
<path d="M511.125 192.017L494.008 193.785L497.91 181.766L498.713 179.266L501.008 172.203L504.455 178.962L505.803 181.596L511.125 192.017Z" fill="#F5AB86"/>
<path d="M504.453 178.962C503.73 179.275 502.846 179.525 501.766 179.641C500.48 179.775 499.48 179.587 498.703 179.266L500.998 172.203L504.453 178.962Z" fill="#2A3554"/>
<path d="M393.907 40.3594C393.907 40.3594 388.952 62.7266 382.621 69.9859H391.898C391.898 69.9859 398.622 64.9053 398.863 57.0388C399.104 49.1813 393.907 40.3594 393.907 40.3594Z" fill="#DC4809"/>
<path d="M418.639 32.9595C412.541 35.1114 406.433 37.2098 400.299 39.2456C397.174 40.2813 393.781 38.7277 392.504 35.6918C392.495 35.674 392.495 35.665 392.486 35.6472C390.441 30.7898 386.254 25.2627 385.361 22.7626L385.352 22.7269C385.173 22.3251 385.004 21.9143 384.852 21.5036C382.655 15.5122 382.441 3.21695 396.093 0.306083C396.093 0.306083 407.344 -2.31905 412.353 7.80647C412.353 7.80647 414.603 12.4942 416.211 15.9051C418.041 19.7892 419.425 21.0571 420.639 22.0036C424.559 25.0573 423.541 31.2452 418.862 32.897C418.782 32.906 418.711 32.9327 418.639 32.9595Z" fill="#2A3554"/>
<path d="M395.557 48.2304C395.191 51.3913 394.191 54.5968 395.53 59.6328C395.959 61.2311 396.611 62.499 397.861 64.6955C397.923 64.8206 397.995 64.9456 398.075 65.0706C398.102 65.2938 398.129 65.517 398.155 65.7402C398.959 71.3566 398.754 68.3743 398.664 72.9995H427.71L427.032 36.4798L417.862 35.6673H417.853L416.272 35.5244L416.183 35.5155L413.71 35.2923C413.495 35.2744 413.281 35.2565 413.058 35.2387C409.727 35.0333 406.397 35.5601 403.281 36.7566L403.173 36.7923L401.798 37.3281L401.718 37.3638L400.37 37.8817L393.914 40.3729C394.236 41.8194 395.262 46.7661 395.557 48.2304Z" fill="#FF6726"/>
<path d="M398.066 65.0583C398.093 65.2815 398.128 65.5047 398.146 65.7279C399.736 66.0672 404.736 66.7726 413.227 64.7368C414.326 64.4689 415.486 64.1653 416.71 63.7993C416.96 63.7278 417.103 63.46 417.031 63.2099C416.96 62.9599 416.692 62.8171 416.442 62.8974C404.191 66.5405 397.932 64.71 397.869 64.6922C397.861 64.6922 397.86 64.6922 397.852 64.6832C397.923 64.8082 397.986 64.9332 398.066 65.0583Z" fill="white"/>
<path d="M390.037 21.8696C390.037 21.8696 387.332 20.1731 386.644 22.6197C385.957 25.0662 389.975 30.1201 392.859 27.5038L390.037 21.8696Z" fill="#F88265"/>
<path d="M391.199 27.6481C391.324 27.9874 391.145 28.3625 390.797 28.4875C390.458 28.6125 390.083 28.4339 389.958 28.0857C389.833 27.7464 390.011 27.3713 390.36 27.2463C390.699 27.1303 391.074 27.3088 391.199 27.6481Z" fill="white"/>
<path d="M391.475 25.9823C391.35 26.0269 391.207 25.9912 391.127 25.884C389.966 24.2947 387.77 24.2679 387.752 24.2679C387.582 24.2679 387.457 24.134 387.457 23.9732C387.466 23.8125 387.6 23.6875 387.77 23.6875C387.868 23.6875 390.288 23.7143 391.627 25.5447C391.725 25.6697 391.689 25.8573 391.547 25.9465C391.529 25.9644 391.502 25.9733 391.475 25.9823Z" fill="#F8664D"/>
<path d="M389.197 25.788C389.144 25.8059 389.081 25.8148 389.027 25.797C388.867 25.7612 388.768 25.6094 388.804 25.4487C388.813 25.4219 388.974 24.8058 389.581 24.2433C389.706 24.1272 389.894 24.1272 390.01 24.2433C390.126 24.3594 390.117 24.538 389.992 24.654C389.519 25.0916 389.385 25.5648 389.385 25.5737C389.376 25.6809 389.295 25.7612 389.197 25.788Z" fill="#F8664D"/>
<path d="M408.68 28.7891L411.207 35.8519C411.207 35.8519 408.832 39.5575 406.35 40.6915C403.867 41.8254 401.903 39.1289 401.903 39.1289L399.555 32.5571L408.68 28.7891Z" fill="#F5AB86"/>
<path d="M408.931 29.4766L409.94 32.2981C408.904 34.8161 406.092 36.5841 401.333 37.5305L399.797 33.2446L408.931 29.4766Z" fill="#F88265"/>
<path d="M389.879 24.9515C390.2 25.6033 390.549 26.264 390.915 26.9159C393.37 31.2196 398.049 35.1484 402.013 34.6662C410.576 33.6305 411.648 26.2372 411.273 21.1923C411.228 20.6298 410.755 20.1387 410.657 19.4958C410.407 17.969 410.407 16.1385 409.96 14.4866C409.657 13.3437 409.326 12.2276 409.023 11.2186C408.157 8.37919 405.621 6.39695 402.737 6.2898C398.576 6.13801 392.638 6.96841 388.495 11.9151C386.968 13.7455 386.504 16.2725 387.28 18.594C387.87 20.3619 388.736 22.6478 389.879 24.9515Z" fill="#F5AB86"/>
<path d="M400.817 25.0527C400.968 24.9991 401.058 24.8474 401.031 24.6866C400.995 24.508 400.825 24.392 400.656 24.4188L399.54 24.6152L399.611 20.2132C399.611 20.0346 399.468 19.8828 399.29 19.8828C399.111 19.8828 398.959 20.0257 398.959 20.2043L398.879 25.392L400.781 25.0527C400.781 25.0706 400.799 25.0616 400.817 25.0527Z" fill="#F88265"/>
<path d="M390.163 16.1202C387.574 18.6382 389.869 21.9687 389.485 24.1831C389.458 24.326 389.395 24.3706 389.297 24.3349C388.127 21.9866 387.243 19.665 386.636 17.8614C385.842 15.5041 386.359 12.9058 387.985 11.0128C392.387 5.90541 398.637 4.99465 403.003 5.10179C406.03 5.17323 408.673 7.17333 409.548 10.0753C409.861 11.1021 410.191 12.245 410.504 13.4058C410.102 13.8969 408.896 14.4862 409.137 15.3255C409.78 17.5578 410.209 19.0936 409.7 19.1293C408.852 19.1829 407.432 16.7095 407.7 14.6826C407.7 14.6826 406.584 13.7808 403.298 13.7004C399.083 13.5933 394.771 12.754 394.771 12.754C394.771 12.754 393.065 12.4057 392.19 11.6825C392.199 11.6914 392.137 14.2005 390.163 16.1202Z" fill="#2A3554"/>
<path d="M395.376 21.2068C395.617 21.8854 395.466 22.5551 395.037 22.7158C394.608 22.8676 394.064 22.448 393.814 21.7694C393.573 21.0908 393.724 20.4211 394.153 20.2604C394.591 20.0996 395.135 20.5282 395.376 21.2068Z" fill="#2A3554"/>
<path d="M403.806 18.199C404.047 18.8776 403.895 19.5473 403.467 19.708C403.038 19.8598 402.493 19.4402 402.243 18.7615C402.002 18.0829 402.154 17.4133 402.583 17.2525C403.02 17.0918 403.565 17.5204 403.806 18.199Z" fill="#2A3554"/>
<path d="M391.34 19.0213C391.921 18.6731 393.117 18.0212 394.492 17.5837C394.849 17.4676 395.233 17.6373 395.287 17.932V17.9409C395.331 18.182 395.144 18.423 394.849 18.5034C393.903 18.7624 391.501 19.6374 390.501 20.3696C390.412 20.2178 390.456 20.0035 390.563 19.7981C390.715 19.4856 391.001 19.2177 391.34 19.0213Z" fill="#2A3554"/>
<path d="M403.94 14.6818C403.27 14.7711 401.922 15.0033 400.583 15.5212C400.226 15.6551 400.038 16.0212 400.181 16.2891V16.298C400.297 16.5123 400.592 16.5837 400.868 16.4587C401.77 16.0748 404.199 15.2622 405.44 15.2087C405.413 15.039 405.244 14.8961 405.038 14.7979C404.726 14.6551 404.333 14.6283 403.94 14.6818Z" fill="#2A3554"/>
<path d="M398.055 28.1039C398.671 29.104 400.135 30.8184 402.689 29.9076C405.251 28.9968 405.323 26.9253 405.118 25.5859L398.055 28.1039Z" fill="white"/>
<path d="M403.315 31.7721C402.574 32.031 401.788 31.8703 401.753 31.8614C401.583 31.8256 401.467 31.656 401.503 31.4774C401.538 31.3078 401.708 31.1917 401.887 31.2274C401.895 31.2274 402.538 31.3613 403.101 31.156C403.708 30.9417 404.137 30.4238 404.146 30.4149C404.262 30.2809 404.458 30.2541 404.592 30.3702C404.726 30.4863 404.753 30.6827 404.637 30.8167C404.619 30.8613 404.101 31.4953 403.315 31.7721Z" fill="#F88265"/>
<path d="M409.109 15.0296C409.109 15.0296 410.333 11.6276 412.288 13.0652C414.244 14.5028 414.431 20.7442 410.824 20.4942L409.109 15.0296Z" fill="#F5AB86"/>
<path d="M412.832 19.9138C412.957 20.2531 412.778 20.6281 412.43 20.7531C412.091 20.8781 411.716 20.6995 411.591 20.3513C411.466 20.012 411.644 19.637 411.992 19.512C412.332 19.3959 412.707 19.5745 412.832 19.9138Z" fill="white"/>
<path d="M410.885 18.5204C411.001 18.4758 411.081 18.3686 411.072 18.2347C410.938 16.3328 412.483 14.9935 412.492 14.9845C412.608 14.8863 412.626 14.7077 412.519 14.5917C412.42 14.4756 412.242 14.4577 412.126 14.5559C412.054 14.6184 410.358 16.0828 410.51 18.2704C410.519 18.4222 410.652 18.5383 410.813 18.5294C410.84 18.5383 410.858 18.5294 410.885 18.5204Z" fill="#F88265"/>
<path d="M412.385 16.9994C412.429 16.9816 412.474 16.9548 412.51 16.9101C412.608 16.7851 412.581 16.6155 412.456 16.5172C412.438 16.4994 411.947 16.1333 411.179 16.0708C411.027 16.0619 410.893 16.1779 410.875 16.3297C410.867 16.4815 410.983 16.6155 411.134 16.6333C411.724 16.678 412.108 16.9637 412.117 16.9637C412.197 17.0262 412.295 17.0351 412.385 16.9994Z" fill="#F88265"/>
<path d="M470.365 66.8203L369.137 66.856L369.378 188.094L465.802 72.2938L470.365 66.8203ZM384.352 82.0443L437.926 82.0265L384.477 146.208L384.352 82.0443Z" fill="#FFC305"/>
<path d="M370.728 164.564L370.719 163.367H375.88L375.889 164.555L370.728 164.564Z" fill="#2A3554"/>
<path d="M370.707 157.665V156.478L375.868 156.469V157.665H370.707Z" fill="#2A3554"/>
<path d="M370.7 150.767L370.691 149.57H375.852V150.758L370.7 150.767Z" fill="#2A3554"/>
<path d="M370.684 143.867V142.68H375.845V143.867H370.684Z" fill="#2A3554"/>
<path d="M370.664 136.978V135.781H375.825V136.978H370.664Z" fill="#2A3554"/>
<path d="M370.656 130.07V128.883H375.817V130.07H370.656Z" fill="#2A3554"/>
<path d="M370.637 123.181V121.984H375.798V123.181H370.637Z" fill="#2A3554"/>
<path d="M370.629 116.273V115.086H375.781L375.79 116.273H370.629Z" fill="#2A3554"/>
<path d="M370.609 109.384V108.196L375.77 108.188V109.384H370.609Z" fill="#2A3554"/>
<path d="M370.603 102.493L370.594 101.297H375.755L375.764 102.484L370.603 102.493Z" fill="#2A3554"/>
<path d="M370.582 95.5871V94.3996L375.743 94.3906V95.5871H370.582Z" fill="#2A3554"/>
<path d="M370.575 88.6965L370.566 87.5H375.727L375.736 88.6876L370.575 88.6965Z" fill="#2A3554"/>
<path d="M370.559 81.7891V80.6016H375.72V81.7891H370.559Z" fill="#2A3554"/>
<path d="M370.548 74.8996L370.539 73.7031H375.7L375.709 74.8996H370.548Z" fill="#2A3554"/>
<path d="M470.365 66.8203L369.137 66.856L369.146 72.3295L465.802 72.2938L470.365 66.8203Z" fill="#EBB405"/>
<path d="M407.048 79.8117L405.691 79.9009C404.476 79.9813 403.503 79.3295 402.878 78.2848C402.601 77.8205 402.217 76.9633 401.967 76.6776C401.271 75.874 399.44 74.5703 398.788 74.5703C398.137 74.5703 398.342 75.7757 398.833 76.2758C399.333 76.7758 400.101 77.4008 400.538 78.1241C400.976 78.8473 397.512 80.6063 396.092 81.0617C394.663 81.5171 392.074 80.9099 391.904 82.1332C391.743 83.3476 393.663 83.4011 393.663 83.4011C393.663 83.4011 393.181 84.5262 394.824 85.3119C394.824 85.3119 394.61 86.3924 395.681 86.8835C395.681 86.8835 395.654 88.2317 396.869 88.5085C398.083 88.7764 401.869 89.6068 408.842 84.6869L407.048 79.8117Z" fill="#F5AB86"/>
<path d="M408.341 85.5058C408.341 85.5058 420.092 85.354 437.932 74.5678L440.691 72.8088C441.057 67.3263 437.593 58.1027 435.164 50.0398C433.566 44.7002 431.458 38.2802 427.03 36.4766C426.244 37.3963 424.806 41.1822 424.708 43.1198C424.467 47.7896 425.744 52.4952 426.61 55.0936C427.86 58.817 428.735 63.5851 429.878 67.3085C429.878 67.3085 429.994 67.8174 429.985 67.8174C429.842 67.8532 425.128 70.4694 418.69 73.4338C411.636 76.684 406.02 79.8895 406.02 79.8895L408.341 85.5058Z" fill="#DC4809"/>
<path d="M392.631 67.138C392.631 67.138 391.809 70.6381 390.425 71.5935C389.041 72.5579 389.398 67.6558 389.398 67.6558C389.398 67.6558 388.916 73.5669 387.487 73.7186C386.059 73.8704 386.362 68.1202 386.362 68.1202C386.362 68.1202 385.425 72.0757 384.344 72.2989C383.255 72.5311 383.309 68.3166 383.309 68.3166C383.309 68.3166 382.246 71.3703 381.442 71.6382C380.639 71.9061 380.255 68.3434 380.71 66.5397C381.166 64.7271 383.416 65.8343 383.416 65.8343C383.416 65.8343 385.55 65.2271 386.282 65.9593C386.282 65.9593 388.193 65.1379 389.264 65.6736C389.264 65.6736 392.381 64.7807 392.631 67.138Z" fill="#F5AB86"/>
<path d="M481.515 268.962V292.436H375.153C371.804 292.436 369.09 289.722 369.09 286.374V275.016C369.09 271.668 371.804 268.953 375.153 268.953H481.515V268.962Z" fill="#00B47F"/>
<path d="M481.514 271.93V289.466H385.009C381.91 289.466 379.41 286.957 379.41 283.868V277.546C379.41 274.439 381.919 271.939 385.009 271.939H481.514V271.93Z" fill="white"/>
<path d="M481.515 275.492H389.207V277.037H481.515V275.492Z" fill="#CCCCFF"/>
<path d="M481.515 279.922H389.207V281.467H481.515V279.922Z" fill="#CCCCFF"/>
<path d="M481.515 284.359H389.207V285.904H481.515V284.359Z" fill="#CCCCFF"/>
<path d="M465.747 292.439V315.913H359.375C356.027 315.913 353.312 313.199 353.312 309.85V298.492C353.312 295.144 356.027 292.43 359.375 292.43H465.747V292.439Z" fill="#FFC305"/>
<path d="M465.745 295.406V312.943H369.231C366.133 312.943 363.633 310.434 363.633 307.344V301.023C363.633 297.915 366.142 295.415 369.231 295.415H465.745V295.406Z" fill="white"/>
<path d="M465.738 298.969H373.43V300.513H465.738V298.969Z" fill="#CCCCFF"/>
<path d="M465.738 303.406H373.43V304.951H465.738V303.406Z" fill="#CCCCFF"/>
<path d="M465.738 307.836H373.43V309.381H465.738V307.836Z" fill="#CCCCFF"/>
<path d="M486.677 315.907V339.382H380.305C376.957 339.382 374.242 336.667 374.242 333.319V321.961C374.242 318.613 376.957 315.898 380.305 315.898H486.677V315.907Z" fill="#3A8CFF"/>
<path d="M486.675 318.875V336.412H390.161C387.063 336.412 384.562 333.903 384.562 330.813V324.491C384.562 321.384 387.072 318.884 390.161 318.884H486.675V318.875Z" fill="white"/>
<path d="M486.668 322.438H394.359V323.982H486.668V322.438Z" fill="#CCCCFF"/>
<path d="M486.668 326.875H394.359V328.42H486.668V326.875Z" fill="#CCCCFF"/>
<path d="M486.668 331.305H394.359V332.849H486.668V331.305Z" fill="#CCCCFF"/>
<path d="M291.609 44.5635L292.037 39.1168L287.064 38.724C286.859 37.6168 286.501 36.5631 286.01 35.572L290.019 32.1433L286.466 27.9913L282.573 31.3218C281.537 30.5003 280.358 29.8574 279.081 29.4021L279.474 24.4286L274.028 24L273.653 28.7592C271.983 28.9377 270.402 29.4556 268.983 30.2503L265.652 26.3573L261.5 29.9021L264.929 33.9112C264.295 34.813 263.777 35.8042 263.402 36.8667L258.429 36.4738L258 41.9206L262.759 42.2956C262.938 43.9653 263.456 45.5457 264.25 46.9655L260.848 49.8674L264.393 54.0194L267.947 51.0192C269.099 51.8228 270.385 52.4479 271.786 52.8318L271.411 57.591L276.858 58.0196L277.251 53.055C278.805 52.7604 280.251 52.1889 281.555 51.3675L284.894 55.2873L289.046 51.7336L285.421 47.4923C286.055 46.4833 286.537 45.385 286.859 44.2064L291.609 44.5635ZM279.992 41.367C279.778 44.1171 277.358 46.1886 274.608 45.9654C271.858 45.7511 269.795 43.3403 270.01 40.5812C270.224 37.8311 272.644 35.7595 275.394 35.9827C278.144 36.206 280.206 38.6168 279.992 41.367Z" fill="#CCCCFF"/>
<path d="M274.999 32.75C270.347 32.75 266.57 36.527 266.57 41.179C266.57 45.831 270.347 49.608 274.999 49.608C279.66 49.608 283.428 45.831 283.428 41.179C283.428 36.527 279.651 32.75 274.999 32.75ZM279.991 41.3665C279.776 44.1166 277.357 46.1882 274.606 45.965C271.856 45.7507 269.794 43.3398 270.008 40.5808C270.222 37.8306 272.642 35.7591 275.392 35.9823C278.142 36.2055 280.205 38.6164 279.991 41.3665Z" fill="#B6B6EF"/>
<path d="M584.822 143.215C583.644 143.536 582.536 144.018 581.536 144.652L577.295 141.027L573.741 145.179L577.661 148.518C576.84 149.822 576.259 151.269 575.973 152.822L571 153.215L571.429 158.662L576.188 158.287C576.563 159.689 577.188 160.983 578 162.126L574.991 165.644L579.143 169.189L582.054 165.787C583.465 166.582 585.054 167.1 586.724 167.278L587.099 172.037L592.546 171.609L592.153 166.635C593.215 166.26 594.207 165.743 595.099 165.109L599.109 168.537L602.653 164.385L598.76 161.055C599.555 159.644 600.064 158.055 600.252 156.385L605.011 156.01L604.582 150.563L599.609 150.956C599.153 149.679 598.51 148.501 597.698 147.465L601.028 143.572L596.876 140.018L593.448 144.027C592.456 143.545 591.403 143.188 590.296 142.973L589.903 138L584.456 138.429L584.822 143.215ZM593.028 154.679C593.242 157.43 591.18 159.849 588.429 160.064C585.679 160.278 583.26 158.215 583.045 155.465C582.831 152.715 584.894 150.295 587.644 150.081C590.394 149.858 592.814 151.929 593.028 154.679Z" fill="#CCCCFF"/>
<path d="M587.831 146.633C583.179 146.633 579.402 150.41 579.402 155.062C579.402 159.714 583.179 163.491 587.831 163.491C592.492 163.491 596.26 159.714 596.26 155.062C596.26 150.41 592.483 146.633 587.831 146.633ZM593.028 154.678C593.242 157.428 591.18 159.848 588.43 160.062C585.679 160.276 583.26 158.214 583.045 155.464C582.831 152.713 584.894 150.294 587.644 150.079C590.394 149.856 592.814 151.928 593.028 154.678Z" fill="#B6B6EF"/>
<path d="M264.382 304.081C264.382 304.081 263.667 304.777 262.194 304.893C261.748 304.929 261.239 304.911 260.649 304.786C260.024 304.67 259.319 304.447 258.533 304.081C258.533 304.081 258.872 289.642 253.033 279.695C247.193 269.749 239.461 256.007 245.649 248.962C251.836 241.917 261.792 251.712 265.06 268.204C268.328 284.696 264.382 304.081 264.382 304.081Z" fill="#00B47F"/>
<path d="M262.195 304.89C261.749 304.925 261.24 304.908 260.65 304.783C262.525 279.147 250.891 259.343 250.766 259.146C250.543 258.78 250.659 258.307 251.025 258.084C251.391 257.869 251.864 257.986 252.087 258.352C252.221 258.557 264.106 278.746 262.195 304.89Z" fill="white"/>
<path d="M284.41 280.772C270.749 302.863 271.686 307.97 271.686 307.97L269.892 307.649L268.365 307.381L266.186 306.997C264.972 297.202 272.499 255.789 285.919 255.789C299.581 255.789 289.062 273.254 284.41 280.772Z" fill="#00B47F"/>
<path d="M283.891 268.063C283.766 268.278 272.319 288.689 269.89 307.655L268.363 307.387C270.854 288.118 282.418 267.528 282.534 267.304C282.748 266.929 283.221 266.804 283.587 267.019C283.971 267.224 284.096 267.688 283.891 268.063Z" fill="white"/>
<path d="M258.418 306.046L256.847 306.466L255.338 306.876L254.436 307.117C254.489 306.921 253.811 305.233 244.194 292.385C240.23 287.072 229.64 272.803 239.346 270.401C248.248 268.214 258.677 298.653 258.418 306.046Z" fill="#00B47F"/>
<path d="M256.845 306.468L255.336 306.879C252.559 294.503 241.308 279.315 241.192 279.154C240.942 278.815 241.014 278.333 241.353 278.074C241.692 277.824 242.174 277.886 242.433 278.234C242.924 278.895 253.987 293.816 256.845 306.468Z" fill="white"/>
<path d="M277.454 338.722H246.898V305.345C246.898 303.336 248.524 301.711 250.533 301.711H273.819C275.828 301.711 277.454 303.336 277.454 305.345V338.722Z" fill="#09425E"/>
<path d="M300.624 294.833L309.615 300.959C310.749 301.735 312.303 301.441 313.08 300.307L328.607 277.538L335.027 268.118L321.919 259.18L318.116 264.76L299.972 291.369C299.186 292.503 299.481 294.056 300.624 294.833Z" fill="#8380F9"/>
<path d="M318.105 264.76C320.079 268.778 323.374 273.779 328.588 277.538L335.008 268.118L321.9 259.18L318.105 264.76Z" fill="#6C5EF1"/>
<path d="M276.872 337.858L278.238 338.796C280.105 340.073 282.649 339.59 283.926 337.715L309.177 300.678L301.043 295.133L275.792 332.17C274.515 334.037 274.997 336.581 276.872 337.858Z" fill="#2A3554"/>
<path d="M314.374 205.135C300.391 225.421 305.498 253.2 325.785 267.173C346.072 281.156 373.85 276.04 387.824 255.762C401.807 235.475 396.699 207.697 376.412 193.714C356.135 179.74 328.356 184.848 314.374 205.135ZM320.008 209.019C331.83 191.875 355.393 187.535 372.537 199.357C389.681 211.18 394.02 234.743 382.198 251.887C370.385 269.031 346.822 273.37 329.669 261.548C312.525 249.726 308.186 226.162 320.008 209.019Z" fill="#445279"/>
<path opacity="0.5" d="M314.124 222.755C309.883 243.14 323.009 263.176 343.403 267.427C345.153 267.793 346.903 268.025 348.635 268.141C353.126 268.436 357.546 267.918 361.707 266.694C366.047 265.417 370.109 263.373 373.699 260.685C379.351 256.471 383.842 250.676 386.441 243.782C387.119 241.979 387.673 240.095 388.075 238.148C392.316 217.763 379.19 197.718 358.796 193.476C356.85 193.075 354.903 192.825 352.975 192.726C345.626 192.36 338.51 194.164 332.393 197.664C328.5 199.887 325 202.798 322.098 206.263C319.312 209.584 317.08 213.424 315.553 217.665C314.973 219.308 314.49 221.005 314.124 222.755Z" fill="white"/>
<path opacity="0.5" d="M332.391 197.664L373.696 260.685C379.348 256.471 383.84 250.676 386.438 243.782L352.972 192.726C345.623 192.36 338.507 194.164 332.391 197.664Z" fill="white"/>
<path opacity="0.5" d="M315.562 217.668L348.636 268.135C353.127 268.43 357.547 267.912 361.708 266.688L322.107 206.266C319.322 209.587 317.08 213.427 315.562 217.668Z" fill="white"/>
</svg>
