<svg width="690" height="350" viewBox="0 0 690 350" fill="none" xmlns="http://www.w3.org/2000/svg">
<path opacity="0.73" d="M58.9073 135.066C68.599 126.682 69.6596 112.03 61.2762 102.338C52.8928 92.6462 38.2401 91.5856 28.5484 99.969C18.8567 108.352 17.7961 123.005 26.1794 132.697C34.5628 142.389 49.2156 143.449 58.9073 135.066Z" fill="#F3FEFF"/>
<path d="M218.399 337.362C218.399 341.415 193.519 344.709 162.823 344.709C132.127 344.709 107.234 341.427 107.234 337.362C107.234 333.297 132.127 330.016 162.823 330.016C193.519 330.016 218.399 333.322 218.399 337.362Z" fill="#AEE4ED"/>
<path d="M66.2137 266.057H59.6019V259.445H55.4756V266.057H48.8516V270.196H55.4756V276.807H59.6019V270.196H66.2137V266.057Z" fill="#3A8CFF"/>
<path d="M72.2416 253.886C72.2416 254.695 72.0017 255.486 71.5523 256.158C71.103 256.831 70.4643 257.355 69.717 257.665C68.9698 257.974 68.1475 258.055 67.3542 257.897C66.5609 257.74 65.8322 257.35 65.2603 256.778C64.6884 256.206 64.2989 255.478 64.1411 254.684C63.9833 253.891 64.0643 253.069 64.3738 252.321C64.6833 251.574 65.2075 250.935 65.88 250.486C66.5525 250.037 67.3432 249.797 68.152 249.797C69.2366 249.797 70.2769 250.228 71.0438 250.995C71.8107 251.762 72.2416 252.802 72.2416 253.886Z" fill="#3D9CFF"/>
<path d="M413.759 21H102.44C89.943 21 79.8125 31.1305 79.8125 43.6271V284.2C79.8125 296.696 89.943 306.827 102.44 306.827H413.759C426.255 306.827 436.386 296.696 436.386 284.2V43.6271C436.386 31.1305 426.255 21 413.759 21Z" fill="#3A8CFF"/>
<path d="M425.625 281.959V45.8927C425.625 37.7712 419.041 31.1875 410.92 31.1875L105.307 31.1875C97.1852 31.1875 90.6015 37.7712 90.6015 45.8927V281.959C90.6015 290.081 97.1852 296.664 105.307 296.664H410.92C419.041 296.664 425.625 290.081 425.625 281.959Z" fill="#1A40A1"/>
<path d="M407.355 38.8516H108.892C103.645 38.8516 99.3906 43.1055 99.3906 48.353V279.473C99.3906 284.72 103.645 288.974 108.892 288.974H407.355C412.602 288.974 416.856 284.72 416.856 279.473V48.353C416.856 43.1055 412.602 38.8516 407.355 38.8516Z" fill="#C6F4FF"/>
<path d="M58.4141 288.43C62.0384 294.433 67.1491 299.402 73.253 302.855C79.3569 306.308 86.2479 308.129 93.2608 308.143H422.958C429.971 308.129 436.862 306.308 442.966 302.855C449.07 299.402 454.181 294.433 457.805 288.43H58.4141Z" fill="#1A40A1"/>
<path d="M62.675 294.221H453.544C455.13 292.418 456.556 290.481 457.805 288.43H58.4141C59.6631 290.481 61.0888 292.418 62.675 294.221Z" fill="#3A8CFF"/>
<path d="M213.094 187.539H124.336V237.213H213.094V187.539Z" fill="#DB5A28"/>
<path d="M244.554 60.3828H211.164V64.9866H244.554V60.3828Z" fill="#3A8CFF"/>
<path d="M188.371 60.3828H167.984V64.9866H188.371V60.3828Z" fill="#3A8CFF"/>
<path d="M161.819 60.3828H121.438V64.9866H161.819V60.3828Z" fill="#3A8CFF"/>
<path d="M203.512 60.3828H194.758V64.9866H203.512V60.3828Z" fill="#3A8CFF"/>
<path d="M273.368 60.3828H253.055V64.9866H273.368V60.3828Z" fill="#3A8CFF"/>
<path d="M223.69 73.8125H211.164V78.4163H223.69V73.8125Z" fill="#3A8CFF"/>
<path d="M241.19 73.8125H228.664V78.4163H241.19V73.8125Z" fill="#3A8CFF"/>
<path d="M167.613 73.8125H147.227V78.4163H167.613V73.8125Z" fill="#3A8CFF"/>
<path d="M141.432 73.8125H121.438V78.4163H141.432V73.8125Z" fill="#3A8CFF"/>
<path d="M206.776 73.8125H173.203V78.4163H206.776V73.8125Z" fill="#3A8CFF"/>
<path d="M180.311 328.927C178.205 322.156 174.103 293.493 173.197 282.265C173.001 279.89 146.885 269.69 146.885 269.69C131.592 269.298 123.719 275.298 123.719 275.298L160.451 287.689C160.451 304.255 174.556 329.221 174.556 329.221L180.311 328.927Z" fill="#2F2F8E"/>
<path d="M148.825 290.987L137.928 328.944L144.148 330.303C146.866 321.315 162.563 290.705 162.931 287.032C163.114 285.465 163.004 284.265 162.429 283.787C161.853 283.31 144.246 272.768 139.165 271.629C132.32 270.086 122.158 267.625 122.158 267.625C120.35 269.79 119.009 272.305 118.216 275.012C117.424 277.719 117.199 280.561 117.554 283.359C118.668 293.154 148.825 290.987 148.825 290.987Z" fill="#4C49A2"/>
<path d="M134.124 224.215C134.124 224.215 122.174 225.28 121.623 228.537C121.072 231.794 127.329 252.401 127.329 252.401L121.305 268.661C121.305 268.661 138.544 272.898 146.944 269.739C147.74 270.094 149.099 252.732 149.099 252.732L152.086 244.161L155.882 257.029L164.563 269.273L170.281 264.621L163.951 253.491C163.951 253.491 154.156 231.133 151.548 228.537C146.601 223.652 134.124 224.215 134.124 224.215Z" fill="white"/>
<path d="M143.583 225.072L142.665 212.828H133.702V224.301C132.563 224.436 134.926 233.594 142.138 233.594C142.114 233.557 145.505 232.333 143.583 225.072Z" fill="#E67750"/>
<path d="M125.431 245.898C126.484 249.572 127.329 252.4 127.329 252.4L121.305 268.66C121.305 268.66 134.418 271.88 143.344 270.607C142.548 270.019 131.969 262.893 131.455 259.783C130.316 253.22 125.431 245.898 125.431 245.898Z" fill="#EFEFEF"/>
<path d="M151.563 200.391C150.804 197.245 145.894 196.326 138.094 197.245C132.829 197.869 131.642 202.718 131.495 206.33H131.25C130.349 206.609 129.565 207.179 129.02 207.949C128.476 208.719 128.201 209.648 128.238 210.591C128.271 211.555 128.639 212.477 129.278 213.199C129.625 213.756 130.092 214.229 130.645 214.583C131.198 214.936 131.823 215.162 132.474 215.244C132.84 215.286 133.21 215.286 133.576 215.244C135.768 219.811 139.796 225.504 145.453 224.831C153.779 219.064 151.563 200.391 151.563 200.391Z" fill="#FD9E71"/>
<path d="M133.805 208.669C133.339 207.426 133.298 206.063 133.687 204.794C134.077 203.525 134.876 202.42 135.96 201.653C139.817 198.751 140.086 203.037 144.151 203.563C148.216 204.09 152.257 203.759 151.816 206.453C154.265 200.331 150.714 196.89 146.735 194.98C142.755 193.07 136.498 192.25 132.164 195.874C127.83 199.498 128.417 208.179 128.417 208.179C131.27 206.796 132.042 207.922 133.805 208.669Z" fill="#201251"/>
<path d="M132.168 195.875C132.168 195.875 128.569 186.202 121.749 188.59C114.929 190.978 118.002 204.728 117.255 210.715C116.508 216.702 112.211 216.96 110.68 214.303C107.827 219.715 118.994 225.224 122.63 220.021C126.267 214.817 124.173 201.654 126.499 200.259C127.24 199.893 128.066 199.738 128.888 199.809C129.711 199.88 130.498 200.176 131.164 200.663L132.168 195.875Z" fill="#201251"/>
<path d="M121.897 227.454C119.019 229.107 113.742 248.881 113.742 252.138C113.742 255.395 139.173 271.618 139.173 271.618C139.173 271.618 140.398 267.614 143.067 266.794C142.516 266.525 124.064 248.881 124.064 248.881L128.962 235.057C128.962 235.057 128.949 223.364 121.897 227.454Z" fill="white"/>
<path d="M137.227 274.096L163.147 273.312L179.983 279.545L151.491 281.063L137.227 274.096Z" fill="#3A8CFF"/>
<path d="M151.491 281.068L137.227 275.546V274.102L152.617 279.66L151.491 281.068Z" fill="#1A40A1"/>
<path d="M151.492 281.063L160.063 257.664L188.396 259.195L179.984 280.095L151.492 281.063Z" fill="#1A40A1"/>
<path d="M168.898 268.026C168.066 269.704 168.311 271.54 169.474 272.116C170.637 272.691 172.253 271.797 173.147 270.12C174.041 268.443 173.735 266.594 172.572 266.018C171.408 265.443 169.743 266.337 168.898 268.026Z" fill="#3A8CFF"/>
<path d="M143.073 266.789C143.073 266.789 153.383 274.944 152.305 275.482C149.57 276.105 146.707 275.817 144.151 274.662C141.702 273.315 139.18 271.613 139.18 271.613C139.18 271.613 140.086 267.071 143.073 266.789Z" fill="#FD9E71"/>
<path d="M144.425 328.42C146.25 330.269 152.482 333.086 155.555 333.845C158.837 334.665 158.261 337.42 155.861 337.42C151.135 337.42 140.642 336.832 135.463 336.832C134.654 334.383 136.05 331.126 137.703 328.922C138.205 328.249 144.156 328.151 144.425 328.42Z" fill="#201251"/>
<path d="M181.613 328.42C183.437 330.269 189.669 333.086 192.743 333.845C196.036 334.665 195.449 337.42 193.049 337.42C188.335 337.42 177.829 336.832 172.65 336.832C171.842 334.383 173.238 331.126 174.891 328.922C175.393 328.249 181.294 328.151 181.613 328.42Z" fill="#201251"/>
<path d="M149.705 168.227H124.812V175.083H149.705V168.227Z" fill="#31C5FF"/>
<path d="M213.103 168.227H188.211V175.083H213.103V168.227Z" fill="#31C5FF"/>
<path d="M181.408 168.227H156.516V175.083H181.408V168.227Z" fill="#31C5FF"/>
<path d="M287.323 35.8972L208.445 55.2422L215.652 84.6266L294.53 65.2816L287.323 35.8972Z" fill="#FEBA40"/>
<path d="M271.693 43.9639L213.602 58.2109L214.599 62.2779L272.69 48.0309L271.693 43.9639Z" fill="#FEDB9B"/>
<path d="M263.901 53.5168L215.359 65.4219L216.357 69.4888L264.899 57.5838L263.901 53.5168Z" fill="#FEDB9B"/>
<path d="M240.331 67.7023L217.297 73.3516L218.294 77.4185L241.329 71.7693L240.331 67.7023Z" fill="#FEDB9B"/>
<path d="M278.652 50.0069L266.32 53.0312L267.315 57.0863L279.647 54.0619L278.652 50.0069Z" fill="white"/>
<path d="M212.469 88.3828H123.883V160.672H212.469V88.3828Z" fill="white"/>
<path d="M393.303 130.07H219.094V162.664H393.303V130.07Z" fill="#4CB0DD"/>
<path d="M388.093 134.781H340.953V157.947H388.093V134.781Z" fill="white"/>
<path d="M334.449 136.188H225.477V140.657H334.449V136.188Z" fill="#75D5EF"/>
<path d="M334.449 144.141H225.477V148.61H334.449V144.141Z" fill="#75D5EF"/>
<path d="M298.843 152.078H225.477V156.547H298.843V152.078Z" fill="#75D5EF"/>
<path d="M386.547 185.953H219.133V264.499H386.547V185.953Z" fill="white"/>
<path d="M386.547 185.953H219.133V198.981H386.547V185.953Z" fill="#FDBE44"/>
<path d="M319.863 217.5H223.195V224.124H319.863V217.5Z" fill="#98DBE5"/>
<path d="M309.884 229.281H223.195V235.918H309.884V229.281Z" fill="#98DBE5"/>
<path d="M281.661 241.078H223.195V247.714H281.661V241.078Z" fill="#98DBE5"/>
<path d="M258.042 206.633H223.195V213.269H258.042V206.633Z" fill="#98DBE5"/>
<path d="M379.857 206.312H329.289V256.881H379.857V206.312Z" fill="#86D2E8"/>
<path d="M359.742 231.27C360.545 230.154 360.974 228.813 360.967 227.438V223.581C360.967 221.873 360.288 220.235 359.081 219.027C357.873 217.819 356.235 217.141 354.526 217.141C352.818 217.141 351.18 217.819 349.972 219.027C348.765 220.235 348.086 221.873 348.086 223.581V227.438C348.084 228.888 348.576 230.296 349.482 231.429C346.517 232.478 343.95 234.419 342.134 236.987C340.319 239.555 339.344 242.623 339.344 245.767H371.178C371.178 245.767 369.991 234.246 359.742 231.27Z" fill="#F6FFFA"/>
<path d="M227.789 196.078C229.602 196.078 231.071 194.609 231.071 192.797C231.071 190.985 229.602 189.516 227.789 189.516C225.977 189.516 224.508 190.985 224.508 192.797C224.508 194.609 225.977 196.078 227.789 196.078Z" fill="#DB5A28"/>
<path d="M238.32 196.078C240.133 196.078 241.602 194.609 241.602 192.797C241.602 190.985 240.133 189.516 238.32 189.516C236.508 189.516 235.039 190.985 235.039 192.797C235.039 194.609 236.508 196.078 238.32 196.078Z" fill="#FFE780"/>
<path d="M250.539 196.078C252.352 196.078 253.821 194.609 253.821 192.797C253.821 190.985 252.352 189.516 250.539 189.516C248.727 189.516 247.258 190.985 247.258 192.797C247.258 194.609 248.727 196.078 250.539 196.078Z" fill="#1FB288"/>
<path d="M388.184 57.2422H329.547V115.879H388.184V57.2422Z" fill="#DB5A28"/>
<path d="M381.94 173.219C381.891 173.243 381.879 173.243 381.94 173.219V173.219Z" fill="#262845"/>
<path d="M258.439 278.062C258.439 278.062 256.946 281.332 254.362 281.87C251.779 282.409 244.995 283.903 243.918 284.858C242.84 285.813 242.828 288.25 242.828 288.25H264.366C264.366 288.25 264.366 281.723 263.141 278.332C263.594 278.344 258.439 278.062 258.439 278.062Z" fill="#1A133A"/>
<path d="M299.971 278.062C299.971 278.062 298.477 281.332 295.893 281.87C293.31 282.409 286.527 283.903 285.449 284.858C284.372 285.813 284.359 288.25 284.359 288.25H305.897C305.897 288.25 305.897 281.723 304.672 278.332C305.125 278.344 299.971 278.062 299.971 278.062Z" fill="#1A133A"/>
<path d="M297.315 66.3675C297.315 66.3675 291.315 64.837 290.948 65.792C290.58 66.7471 300.229 69.5877 300.229 69.5877L308.91 93.6474L305.653 101.349L311.628 107.863C311.628 107.863 318.142 99.0471 318.681 96.4636C319.219 93.8801 303.216 67.9593 303.216 67.9593C303.216 67.9593 300.033 57.8579 299.543 57.3803C299.053 56.9028 293.323 57.1967 292.025 57.2212C290.727 57.2457 295.809 62.3882 295.809 62.3882L297.315 66.3675Z" fill="#E79673"/>
<path d="M273.986 84.1698C272.27 86.6646 271.086 89.4864 270.509 92.459C270.158 95.2371 270.228 98.0524 270.717 100.81L275.957 100.638V105.536H286.389C286.493 103.608 286.698 101.687 287.002 99.781C287.406 97.7362 290.259 93.8793 290.259 93.8793L285.581 80.6435L278.859 80.0312L273.986 84.1698Z" fill="#E79673"/>
<path d="M276.62 90.4283C276.62 90.4283 278.456 86.1552 280.697 87.7836C282.937 89.4121 280.085 92.8649 280.085 92.8649C280.085 92.8649 281.505 98.7788 283.954 99.587L286.403 100.407C286.403 100.407 292.721 94.4934 293.749 92.8649C294.778 91.2365 292.121 81.8452 290.284 79.8372C288.447 77.8291 280.489 78.0128 279.901 76.9843C279.313 75.9558 277.256 74.1437 275.224 74.9518C273.191 75.7599 273.595 82.4819 273.595 82.4819C273.595 82.4819 276.105 84.6491 276.277 86.2164C276.253 87.5053 275.908 88.7679 275.273 89.8896L276.62 90.4283Z" fill="#201251"/>
<path d="M266.763 105.815C266.763 105.815 277.158 104.297 283.133 104.162C289.108 104.028 298.61 107.15 298.61 107.15L305.528 99.7422L314.331 108.019C314.331 108.019 306.838 119.039 304.414 121.671C301.989 124.304 300.238 136.364 299.7 140.038C299.161 143.711 297.79 165.15 297.79 165.15C297.79 165.15 291.41 172.754 265.22 164.477C264.951 164.195 266.31 148.731 266.175 144.886C266.041 141.042 262.637 128.198 261.963 125.075C261.29 121.953 250.466 115.709 250.466 115.709C250.466 115.709 249.131 108.105 254.139 104.444C254.764 104.872 266.763 105.815 266.763 105.815Z" fill="#201251"/>
<path d="M242.515 74.7568C242.515 74.7568 238.572 78.43 238.303 79.9115C238.034 81.3931 243.739 98.4736 243.739 98.4736L254.086 104.596L250.412 115.86C250.412 115.86 239.111 107.987 237.483 105.685C235.854 103.384 233.001 80.3034 233.001 80.3034C233.001 80.3034 229.328 75.6873 229.059 74.4629C228.789 73.2385 227.944 69.2469 228.569 68.4633C229.193 67.6797 233.466 63.333 234.017 64.6309C234.568 65.9288 236.895 75.32 236.895 75.32C236.895 75.32 241.597 73.1283 242.515 74.7568Z" fill="#E79673"/>
<path d="M265.221 164.468L259.319 220.106L256.258 279.147L266.445 279.551C266.445 279.551 272.751 240.37 272.861 234.419C272.971 228.468 272.751 221.33 272.751 221.33L279.252 191.614H282.925L290.456 230.293L298.194 278.339L306.336 278.743C306.336 278.743 307.561 248.818 306.336 242.708C305.112 236.598 303.275 230.697 303.275 230.697L299.602 190.585C299.602 190.585 302.859 176.333 297.765 165.142C296.774 163.109 265.221 164.468 265.221 164.468Z" fill="#4C49A2"/>
<path d="M209.362 97.6118H202.75V91H198.624V97.6118H192V101.75H198.624V108.362H202.75V101.75H209.362V97.6118Z" fill="#FDBE44"/>
<path d="M138.5 158C136.818 158 135.175 157.56 133.777 156.735C132.379 155.911 131.289 154.739 130.646 153.368C130.003 151.997 129.835 150.489 130.164 149.034C130.493 147.578 131.303 146.242 132.493 145.194C133.683 144.145 135.198 143.431 136.848 143.143C138.497 142.855 140.207 143.004 141.76 143.573C143.313 144.142 144.64 145.105 145.572 146.34C146.505 147.574 147.002 149.025 147 150.509C146.997 152.496 146.101 154.402 144.507 155.806C142.913 157.211 140.753 158 138.5 158ZM138.5 146.923C137.704 146.923 136.926 147.131 136.265 147.521C135.603 147.912 135.087 148.466 134.783 149.115C134.478 149.763 134.398 150.477 134.554 151.166C134.709 151.855 135.092 152.487 135.655 152.984C136.218 153.48 136.935 153.818 137.715 153.955C138.496 154.092 139.305 154.022 140.04 153.753C140.775 153.485 141.403 153.03 141.846 152.446C142.288 151.862 142.524 151.176 142.524 150.473C142.524 149.532 142.1 148.629 141.345 147.963C140.591 147.297 139.567 146.923 138.5 146.923Z" fill="#3A8CFF"/>
<path d="M459.55 57.1743H452.926V50.5625H448.799V57.1743H442.188V61.3006H448.799V67.9246H452.926V61.3006H459.55V57.1743Z" fill="#3A8CFF"/>
<path d="M420.468 12.3083C420.468 13.1171 420.228 13.9078 419.779 14.5803C419.33 15.2528 418.691 15.777 417.944 16.0865C417.196 16.3961 416.374 16.477 415.581 16.3192C414.787 16.1615 414.059 15.772 413.487 15.2C412.915 14.6281 412.525 13.8994 412.368 13.1061C412.21 12.3128 412.291 11.4906 412.6 10.7433C412.91 9.99603 413.434 9.35733 414.107 8.90797C414.779 8.4586 415.57 8.21875 416.379 8.21875C417.463 8.21875 418.503 8.64962 419.27 9.41656C420.037 10.1835 420.468 11.2237 420.468 12.3083Z" fill="#3D9CFF"/>
<path d="M346.659 83.7785C344.612 83.7785 342.612 83.1717 340.911 82.0348C339.209 80.898 337.883 79.2821 337.1 77.3916C336.317 75.501 336.112 73.4207 336.511 71.4138C336.911 69.4068 337.896 67.5633 339.343 66.1163C340.79 64.6694 342.633 63.684 344.64 63.2847C346.647 62.8855 348.728 63.0904 350.618 63.8735C352.509 64.6566 354.125 65.9827 355.261 67.6841C356.398 69.3856 357.005 71.3859 357.005 73.4322C357.002 76.1752 355.911 78.805 353.971 80.7446C352.032 82.6842 349.402 83.7753 346.659 83.7785ZM346.659 68.4856C345.69 68.4856 344.743 68.7728 343.938 69.311C343.132 69.8492 342.505 70.6141 342.134 71.509C341.763 72.4039 341.666 73.3887 341.855 74.3387C342.044 75.2888 342.511 76.1615 343.196 76.8464C343.881 77.5314 344.753 77.9978 345.703 78.1868C346.653 78.3758 347.638 78.2788 348.533 77.9081C349.428 77.5374 350.193 76.9097 350.731 76.1042C351.269 75.2988 351.556 74.3519 351.556 73.3832C351.547 72.0907 351.026 70.8544 350.109 69.9438C349.192 69.0332 347.951 68.5223 346.659 68.5223V68.4856Z" fill="#FEBA40"/>
<path d="M485.346 43.4035C483.3 43.4035 481.3 42.7967 479.598 41.6598C477.897 40.523 476.571 38.9071 475.788 37.0166C475.005 35.126 474.8 33.0458 475.199 31.0388C475.598 29.0318 476.583 27.1882 478.03 25.7413C479.477 24.2943 481.321 23.309 483.328 22.9097C485.335 22.5105 487.415 22.7154 489.306 23.4985C491.196 24.2816 492.812 25.6077 493.949 27.3091C495.086 29.0106 495.693 31.0109 495.693 33.0572C495.689 35.8002 494.598 38.43 492.659 40.3696C490.719 42.3092 488.089 43.4003 485.346 43.4035ZM485.346 28.1106C484.378 28.1106 483.431 28.3978 482.625 28.936C481.82 29.4742 481.192 30.2391 480.821 31.134C480.451 32.0289 480.354 33.0137 480.543 33.9637C480.732 34.9138 481.198 35.7865 481.883 36.4714C482.568 37.1564 483.441 37.6228 484.391 37.8118C485.341 38.0008 486.326 37.9038 487.221 37.5331C488.116 37.1624 488.88 36.5347 489.419 35.7292C489.957 34.9238 490.244 33.9769 490.244 33.0082C490.244 31.7093 489.728 30.4636 488.809 29.5451C487.891 28.6266 486.645 28.1106 485.346 28.1106Z" fill="#FEBA40"/>
<path d="M536.203 270.821H570.288C589.451 270.821 602.85 258.088 606.033 238.623L614.483 186.883" stroke="#1B172C" stroke-width="5.4628" stroke-miterlimit="10" stroke-linecap="round" stroke-linejoin="round"/>
<path d="M536.578 346.984L551.878 273.928C553.674 265.548 560.886 259.562 569.215 259.562C577.68 259.562 584.952 265.704 586.627 274.254L600.509 346.968" stroke="white" stroke-width="1.8791" stroke-miterlimit="10"/>
<path d="M468.133 336.5L476.039 310.645L488.608 309.945L480.717 337.697L468.601 337.79L468.133 336.5Z" fill="#FFBD9A"/>
<path d="M482.485 332.347C482.485 332.347 472.089 336.746 467.2 329.812L445.805 343.214L485.699 342.95L482.485 332.347Z" fill="black"/>
<path d="M485.707 342.931L445.812 343.195L445.836 346.989L485.731 346.724L485.707 342.931Z" fill="white"/>
<path d="M467.457 335.659C467.351 335.612 467.246 335.534 467.17 335.425C465.541 333.218 463.896 332.129 463.881 332.114C463.564 331.896 463.473 331.476 463.685 331.15C463.896 330.839 464.349 330.761 464.665 330.963C464.741 331.01 466.521 332.192 468.317 334.601C468.543 334.912 468.468 335.348 468.166 335.565C467.955 335.736 467.683 335.752 467.457 335.659Z" fill="white"/>
<path d="M464.035 337.431C463.929 337.384 463.824 337.307 463.748 337.198C462.119 334.99 460.474 333.902 460.459 333.886C460.142 333.669 460.052 333.249 460.263 332.922C460.474 332.611 460.927 332.518 461.244 332.736C461.319 332.782 463.099 333.964 464.895 336.374C465.121 336.685 465.046 337.12 464.744 337.338C464.518 337.509 464.246 337.524 464.035 337.431Z" fill="white"/>
<path d="M460.59 339.205C460.484 339.158 460.378 339.08 460.303 338.971C458.673 336.764 457.029 335.675 457.014 335.675C456.697 335.458 456.606 335.038 456.817 334.711C457.029 334.4 457.481 334.307 457.798 334.525C457.874 334.572 459.654 335.753 461.45 338.163C461.676 338.474 461.616 338.909 461.299 339.127C461.072 339.267 460.816 339.298 460.59 339.205Z" fill="white"/>
<path d="M512.423 235.727L501.499 236.442C493.804 236.939 487.255 242.412 485.188 250.061L468.062 318.017L491.782 315.747L510.914 256.062L512.423 235.727Z" fill="#007BDE"/>
<path d="M493.623 321.188H464.984L466.961 310.305H495.614L493.623 321.188Z" fill="#0086FF"/>
<path d="M513.953 336.501L514.315 310.989L526.884 310.305L526.537 337.699L514.421 337.792L513.953 336.501Z" fill="#FFBD9A"/>
<path d="M528.305 332.354C528.305 332.354 517.909 336.754 513.021 329.82L491.625 343.222L531.519 342.958L528.305 332.354Z" fill="black"/>
<path d="M531.527 342.938L491.633 343.203L491.657 346.997L531.551 346.732L531.527 342.938Z" fill="white"/>
<path d="M513.277 335.666C513.172 335.62 513.066 335.542 512.99 335.433C511.361 333.225 509.716 332.137 509.701 332.122C509.384 331.904 509.294 331.484 509.505 331.158C509.716 330.847 510.169 330.769 510.486 330.971C510.561 331.018 512.342 332.199 514.137 334.609C514.364 334.92 514.303 335.355 513.986 335.573C513.76 335.744 513.503 335.76 513.277 335.666Z" fill="white"/>
<path d="M509.855 337.439C509.75 337.392 509.644 337.314 509.569 337.206C507.939 334.998 506.294 333.91 506.279 333.894C505.962 333.676 505.872 333.257 506.083 332.93C506.294 332.619 506.747 332.526 507.064 332.744C507.139 332.79 508.92 333.972 510.715 336.382C510.942 336.693 510.866 337.128 510.564 337.346C510.338 337.517 510.067 337.532 509.855 337.439Z" fill="white"/>
<path d="M506.41 339.212C506.304 339.166 506.199 339.088 506.123 338.979C504.494 336.771 502.849 335.683 502.834 335.683C502.517 335.465 502.427 335.046 502.638 334.719C502.849 334.408 503.302 334.315 503.619 334.533C503.694 334.579 505.474 335.761 507.27 338.171C507.496 338.482 507.436 338.917 507.119 339.135C506.893 339.275 506.636 339.306 506.41 339.212Z" fill="white"/>
<path d="M579.602 234.516L545.426 235.915L519.896 236.459C512.442 236.459 506.376 241.092 506.271 248.757C505.924 272.357 507.704 321.393 508.775 321.175C510.224 320.88 531.152 321.175 531.152 321.175L533.279 267.6L549.666 269.434C553.709 269.465 565.509 270.258 569.115 268.377C576.584 264.49 586.105 255.364 579.602 234.516Z" fill="#0086FF"/>
<path d="M533.614 310.305H504.961V321.188H533.614V310.305Z" fill="#00B1FF"/>
<path d="M533.284 267.596L532.891 255.594" stroke="#55382C" stroke-width="0.8439" stroke-miterlimit="10"/>
<path d="M480.449 192.665L466.718 185.591C466.718 185.591 455.507 184.736 448.702 186.259C447.993 186.415 447.54 187.145 447.706 187.876C447.857 188.529 448.446 188.949 449.094 188.887L455.386 188.172L452.006 190.55C451.086 191.188 451.192 192.618 452.188 193.115C452.61 193.318 453.093 193.318 453.5 193.084C455.386 192.012 461.301 189.213 467.065 192.556L461.693 195.043C460.637 195.541 460.35 196.94 461.135 197.826C461.512 198.246 462.071 198.464 462.614 198.386L467.623 197.717C467.623 197.717 473.508 200.189 478.955 197.5L480.449 192.665Z" fill="#FFC9BD"/>
<path d="M525.295 174.383C520.95 185.359 514.718 207.234 514.718 207.234L480.346 190.552L475.805 202.71L504.971 223.232L536.868 221.864L539.237 196.149L525.295 174.383Z" fill="#DB5A28"/>
<path d="M531.027 167.217C528.719 169.005 526.546 171.368 525.294 174.369L523.227 235.718C523.227 235.718 559.771 243.647 579.628 234.505C579.628 234.505 579.07 183.122 567.768 169.518C567.768 169.518 564.207 162.289 546.086 162.258C540.684 162.273 535.328 163.875 531.027 167.217Z" fill="#DB5A28"/>
<path d="M527.812 185.359L530.453 228.44" stroke="#FF6C63" stroke-width="0.7349" stroke-miterlimit="10"/>
<path d="M492.471 220.941L491.973 210.369C491.973 210.369 488.291 202.455 484.941 202.346C482.482 202.269 479.374 203.979 477.729 205.782C476.975 206.606 477.186 207.928 478.151 208.425C479.751 209.265 482.18 210.742 483.432 212.592C483.432 212.592 481.803 221.127 484.549 224.641C485.937 226.429 494.145 228.434 494.145 228.434L492.471 220.941Z" fill="#FFC9BD"/>
<path d="M548.287 172.453L541.693 215.472L492.172 217.68V235.73L545.435 234.408C547.472 234.533 549.011 233.864 550.112 232.682L550.655 232.947C550.655 232.947 565.08 233.196 569.139 182.45L548.287 172.453Z" fill="#DB5A28"/>
<path d="M496.789 217.479L541.723 215.38L547.064 180.508" stroke="#FF6C63" stroke-width="0.7349" stroke-miterlimit="10"/>
<path d="M541.727 215.375L548.577 217.474" stroke="#FF6C63" stroke-width="0.7349" stroke-miterlimit="10"/>
<path d="M568.13 196.039L563.136 219.002C561.883 224.786 558.835 229.978 554.46 233.834L552.227 235.653" stroke="#FF6C63" stroke-width="0.7349" stroke-miterlimit="10"/>
<path d="M522.094 122.985C522.094 122.985 523.332 129.049 522.094 132.749C520.857 136.449 516.934 138.19 518.699 147.845C520.465 157.5 518.579 157.733 518.156 160.454C518.156 160.454 555.787 164.107 574.633 154.142C574.633 154.142 571.449 148.513 567.919 142.248C564.388 135.998 563.06 125.721 563.06 125.721L548.635 120.031L522.094 122.985Z" fill="#954B55"/>
<path d="M531.025 115.817C530.588 115.677 532.263 113.127 532.7 112.987C539.4 110.78 553.704 107.872 560.976 119.984C566.318 128.892 560.961 145.652 549.72 150.72C539.022 155.555 540.833 118.989 540.833 118.989L531.025 115.817Z" fill="#954B55"/>
<path d="M533.772 138.498C534.12 141.499 532.052 144.22 529.14 144.593C526.228 144.95 523.588 142.82 523.226 139.82C522.878 136.819 524.946 134.098 527.858 133.741C530.77 133.352 533.41 135.498 533.772 138.498Z" fill="#FFB1A7"/>
<path d="M535.602 153.128L536.914 164.975C537.367 169.141 540.098 171.069 544.066 170.587C547.461 170.167 550.434 167.975 550.449 164.446L547.507 145.898L535.602 153.128Z" fill="#FFC9BD"/>
<path d="M536.411 160.452C544.483 159.737 548.633 147.844 548.633 147.844L535.445 151.917L536.411 160.452Z" fill="#1B172C"/>
<path d="M539.206 154.853C532.386 155.226 526.487 149.987 526.004 144.265L524.948 130.755C524.344 123.588 529.369 117.198 536.309 116.343C543.416 115.456 551.111 120.525 551.971 127.848L552.711 138.73C553.269 147.141 547.943 154.169 539.206 154.853Z" fill="#FFC9BD"/>
<path d="M546.389 126.121C543.16 131.096 548.441 138.17 548.441 138.17L558.43 125.732C558.415 125.717 548.306 123.167 546.389 126.121Z" fill="#954B55"/>
<path d="M558.984 136.851C559.331 139.851 557.264 142.572 554.352 142.93C551.44 143.287 548.799 141.157 548.452 138.157C548.105 135.156 550.172 132.436 553.084 132.062C555.981 131.705 558.637 133.85 558.984 136.851Z" fill="#FFC9BD"/>
<path d="M552.056 139.353C552.056 139.353 551.604 135.419 555.331 135.575" stroke="#1B172C" stroke-width="0.5621" stroke-miterlimit="10" stroke-linecap="round" stroke-linejoin="round"/>
<path d="M532.473 142.227L532.367 143.828H533.906" stroke="#1B172C" stroke-width="0.5621" stroke-miterlimit="10" stroke-linecap="round" stroke-linejoin="round"/>
<path d="M540.153 132.372C540.153 132.372 537.196 132.248 537.211 133.227C537.211 133.227 537.241 133.896 539.821 133.958C542.401 134.02 543.065 133.849 543.262 133.227C543.473 132.59 541.526 132.341 540.153 132.372Z" fill="#793641"/>
<path d="M528.356 132.778C528.356 132.778 530.786 132.513 531.012 133.43C531.012 133.43 531.148 134.052 529.035 134.239C526.908 134.441 526.214 134.239 525.987 133.741C525.746 133.166 527.21 132.824 528.356 132.778Z" fill="#793641"/>
<path d="M537.406 138.765C537.406 138.765 538.719 136.822 541.163 138.703" stroke="#1B172C" stroke-width="0.7051" stroke-miterlimit="10" stroke-linecap="round" stroke-linejoin="round"/>
<path d="M527.312 139.153C527.312 139.153 528.489 137.225 530.119 139.028" stroke="#1B172C" stroke-width="0.7051" stroke-miterlimit="10" stroke-linecap="round" stroke-linejoin="round"/>
<path d="M534.922 146.711C534.922 146.711 536.944 147.208 538.573 145.109" stroke="#1B172C" stroke-width="0.7051" stroke-miterlimit="10" stroke-linecap="round" stroke-linejoin="round"/>
<path d="M532.701 112.97C532.701 112.97 518.156 118.381 521.158 124.024C523.391 128.206 538.042 130.803 551.954 127.849C551.954 127.849 558.306 122.532 550.445 117.028C550.445 117.028 546.22 110.887 532.701 112.97Z" fill="#954B55"/>
<path d="M532.898 165.91C532.898 165.91 537.048 163.143 543.159 162.272C543.159 162.272 550.462 161.806 556.573 163.298C556.573 163.298 556.165 169.983 543.883 171.46C541.469 171.756 539.009 171.694 536.671 171.01C534.317 170.341 533.758 168.662 532.898 165.91Z" fill="#FFC9BD"/>
<path d="M491.783 232.749H450.078V227.898H491.783C493.081 227.898 494.137 228.987 494.137 230.324C494.137 231.661 493.081 232.749 491.783 232.749Z" fill="#061418"/>
<path d="M455.567 232.746H395.71C392.527 232.746 389.735 230.554 388.875 227.398L377.061 183.679C376.623 182.078 377.8 180.492 379.415 180.492H439.996C441.323 180.492 442.47 181.409 442.817 182.731L455.567 232.746Z" fill="#1C2E34"/>
<path d="M418.434 207.637C418.434 210.607 416.095 213.016 413.213 213.016C410.331 213.016 407.992 210.607 407.992 207.637C407.992 204.668 410.331 202.258 413.213 202.258C416.095 202.242 418.434 204.652 418.434 207.637Z" fill="white"/>
<path d="M440.102 238.492V346.98" stroke="#55382E" stroke-width="1.1466" stroke-miterlimit="10"/>
<path d="M526.818 232.742H348.938V244.247H526.818V232.742Z" fill="white"/>
<path d="M672 346.984H272" stroke="#55382E" stroke-width="1.1466" stroke-miterlimit="10"/>
<path d="M141.884 112H144.531V130.691C144.531 132.765 144.195 134.492 143.524 135.871C142.854 137.25 141.962 138.287 140.85 138.983C139.747 139.666 138.548 140.008 137.252 140.008C135.891 140.008 134.66 139.666 133.557 138.983C132.463 138.287 131.595 137.25 130.951 135.871C130.317 134.492 130 132.765 130 130.691V112H132.633V130.691C132.633 132.133 132.826 133.322 133.212 134.258C133.598 135.194 134.136 135.89 134.825 136.345C135.524 136.801 136.333 137.028 137.252 137.028C138.18 137.028 138.989 136.801 139.678 136.345C140.377 135.89 140.919 135.194 141.305 134.258C141.691 133.322 141.884 132.133 141.884 130.691V112Z" fill="#FF6726"/>
<path d="M151.562 112V139.628H148.901V112H151.562Z" fill="#FF6726"/>
<path d="M164.893 112L156.525 142H154.333L162.715 112H164.893Z" fill="black"/>
<path d="M179.548 112H182.195V130.691C182.195 132.765 181.86 134.492 181.189 135.871C180.518 137.25 179.626 138.287 178.514 138.983C177.411 139.666 176.212 140.008 174.916 140.008C173.556 140.008 172.324 139.666 171.221 138.983C170.128 138.287 169.259 137.25 168.616 135.871C167.982 134.492 167.664 132.765 167.664 130.691V121.345V112H170.298V130.691C170.298 132.133 170.491 133.322 170.877 134.258C171.263 135.194 171.8 135.89 172.49 136.345C173.188 136.801 173.997 137.028 174.916 137.028C175.844 137.028 176.653 136.801 177.343 136.345C178.041 135.89 178.583 135.194 178.969 134.258C179.355 133.322 179.548 132.133 179.548 130.691V112Z" fill="#BEB8B8"/>
<path d="M188.096 112L192.921 122.588L197.746 112H200.848L194.507 125.681L201 139.628H197.87L192.921 128.831L187.972 139.628H184.842L191.336 125.681L184.994 112H188.096Z" fill="#BEB8B8"/>
</svg>
