<svg width="690" height="350" viewBox="0 0 690 350" fill="none" xmlns="http://www.w3.org/2000/svg">
<path d="M142.132 347C137.082 341.571 137.478 333.133 140.312 326.393C143.145 319.653 148.048 313.889 151.484 307.403C161.614 288.361 153.422 265.654 142.896 248.443C131.077 229.147 124.031 209.475 128.215 186.795C132.619 163.513 148.151 142.358 169.644 130.55C181.506 124.037 195.483 120.266 208.989 122.392C231.407 125.923 255.278 143.026 273.365 119.811C285.8 103.844 279.986 81.3783 283.906 61.8409C294.065 11.4258 359.38 -0.235129 398.255 28.1417C419.102 43.3598 432.77 68.5406 457.743 76.2834C470.089 80.1079 486.341 81.0708 497.748 74.3844C503.356 71.0814 507.893 66.2539 513.618 63.1514C519.711 59.8483 526.831 58.6716 533.805 58.1366C571.696 55.2615 596.507 82.2075 602.012 116.321C606.181 142.237 595.068 162.764 581.048 184.281C575.014 193.548 567.835 202.441 563.974 212.792C561.405 219.585 560.392 227.127 562.506 234.054C565.031 241.837 571.197 248.149 577.656 253.364C590.429 263.728 603.128 272.501 606.915 289.07C610.498 304.782 604.831 319.426 595.435 332.156L584.923 346.425L142.132 347Z" fill="#DEDFFE"/>
<path d="M542 236H429V310H542V236Z" fill="#9090F4"/>
<path d="M535 241H435V304H535V241Z" fill="white"/>
<path d="M473 249H444V252H473V249Z" fill="#C5C5FF"/>
<path d="M473 256H444V259H473V256Z" fill="#C5C5FF"/>
<path d="M473 264H444V267H473V264Z" fill="#C5C5FF"/>
<path d="M473 271H444V274H473V271Z" fill="#C5C5FF"/>
<path d="M473 278H444V281H473V278Z" fill="#C5C5FF"/>
<path d="M473 286H444V289H473V286Z" fill="#C5C5FF"/>
<path d="M528 293H444V296H528V293Z" fill="#C5C5FF"/>
<path d="M486 252H481V289H486V252Z" fill="#C5C5FF"/>
<path d="M499 263H494V289H499V263Z" fill="#C5C5FF"/>
<path d="M512 257H506V289H512V257Z" fill="#C5C5FF"/>
<path d="M524 270H519V289H524V270Z" fill="#C5C5FF"/>
<path d="M524 270H519V277H524V270Z" fill="#F9355B"/>
<path d="M486 252H481V258H486V252Z" fill="#F9355B"/>
<path d="M512 257H506V263H512V257Z" fill="#706CCA"/>
<path d="M499 263H494V272H499V263Z" fill="#FFC41D"/>
<path d="M483 246L495.96 261.333L508.099 250.977L521 268" stroke="#9090F4" stroke-miterlimit="10"/>
<path d="M524.993 151H497.007C494.242 151 492 153.301 492 156.139V184.861C492 187.699 494.242 190 497.007 190H524.993C527.758 190 530 187.699 530 184.861V156.139C530 153.301 527.758 151 524.993 151Z" fill="#706CCA"/>
<path d="M527 159H495V186H527V159Z" fill="#FFC41D"/>
<path d="M515 166.488C515.002 167.379 514.74 168.25 514.247 168.992C513.753 169.734 513.051 170.313 512.228 170.655C511.405 170.997 510.499 171.087 509.625 170.914C508.751 170.741 507.948 170.312 507.318 169.682C506.688 169.052 506.259 168.249 506.086 167.375C505.913 166.501 506.003 165.595 506.345 164.772C506.687 163.949 507.266 163.247 508.008 162.753C508.75 162.26 509.621 161.998 510.512 162C511.702 162.003 512.841 162.477 513.682 163.318C514.523 164.159 514.997 165.298 515 166.488Z" fill="white"/>
<path d="M519 183H503V180.046C503 178.989 503.207 177.941 503.609 176.964C504.011 175.987 504.601 175.1 505.344 174.352C506.087 173.605 506.969 173.013 507.939 172.609C508.91 172.205 509.95 171.998 511 172C513.12 172 515.153 172.847 516.653 174.356C518.153 175.865 518.997 177.911 519 180.046V183Z" fill="white"/>
<path d="M496 155C496 155.198 495.97 155.392 495.915 155.557C495.86 155.722 495.782 155.85 495.69 155.925C495.598 156 495.497 156.019 495.4 155.98C495.303 155.94 495.214 155.844 495.144 155.703C495.075 155.562 495.027 155.382 495.009 155.187C494.99 154.993 495.001 154.791 495.04 154.609C495.079 154.426 495.144 154.271 495.227 154.163C495.31 154.054 495.407 153.998 495.506 154C495.572 154 495.636 154.026 495.697 154.076C495.757 154.127 495.812 154.201 495.858 154.294C495.903 154.387 495.94 154.497 495.964 154.618C495.989 154.74 496.001 154.869 496 155Z" fill="white"/>
<path d="M500 155C500 155.198 499.941 155.392 499.831 155.557C499.72 155.722 499.563 155.85 499.38 155.925C499.196 156 498.995 156.019 498.8 155.98C498.606 155.94 498.428 155.844 498.289 155.703C498.149 155.562 498.055 155.382 498.018 155.187C497.981 154.993 498.002 154.791 498.08 154.609C498.157 154.426 498.287 154.271 498.453 154.163C498.62 154.054 498.814 153.998 499.012 154C499.143 154 499.273 154.026 499.393 154.076C499.514 154.127 499.623 154.201 499.715 154.294C499.807 154.387 499.879 154.497 499.928 154.618C499.977 154.74 500.002 154.869 500 155Z" fill="white"/>
<path d="M504 155C504 155.198 503.941 155.391 503.831 155.556C503.722 155.72 503.565 155.848 503.383 155.924C503.2 156 502.999 156.019 502.805 155.981C502.611 155.942 502.433 155.847 502.293 155.707C502.153 155.567 502.058 155.389 502.019 155.195C501.981 155.001 502 154.8 502.076 154.617C502.152 154.435 502.28 154.278 502.444 154.169C502.609 154.059 502.802 154 503 154C503.132 153.998 503.263 154.023 503.385 154.073C503.507 154.122 503.618 154.196 503.711 154.289C503.804 154.382 503.878 154.493 503.927 154.615C503.977 154.737 504.002 154.868 504 155Z" fill="white"/>
<path d="M245 48H189V94H245V48Z" fill="#A9B1FF"/>
<path d="M206.829 83L195 71.5824L206.988 60L209 61.9422L199.012 71.5824L208.841 81.0578L206.829 83Z" fill="white"/>
<path d="M227.01 83L225 81.0578L234.979 71.4294L225.171 61.9422L227.181 60L239 71.4294L227.01 83Z" fill="white"/>
<path d="M219.951 61.4648L211.469 81.9844L214.038 83.0519L222.52 62.5323L219.951 61.4648Z" fill="white"/>
<path d="M179.593 151.52L183 137.975L174.385 135.851C174.299 133.112 173.815 130.399 172.947 127.796L180.753 123.165L173.503 111.232L165.528 116.005C163.597 114.161 161.423 112.583 159.063 111.315L161.311 102.365L147.584 99L145.373 107.807C142.623 107.767 139.881 108.113 137.229 108.833L132.589 101.22L120.506 108.38L124.928 115.635C122.8 117.613 120.984 119.893 119.539 122.402L111.504 120.421L108 133.93L115.588 135.791C115.5 138.862 115.908 141.928 116.797 144.873L110.284 148.739L117.534 160.673L123.901 156.961C126.117 159.233 128.697 161.129 131.538 162.57L129.762 169.635L143.488 173L145.301 165.84C148.43 165.82 151.535 165.3 154.496 164.3L158.483 170.816L170.566 163.656L166.374 156.77C168.413 154.652 170.113 152.237 171.412 149.61L179.593 151.52ZM158.169 143.166C157.249 144.953 155.969 146.535 154.409 147.818C152.849 149.1 151.041 150.055 149.095 150.625C146.717 151.301 144.205 151.375 141.791 150.839C139.377 150.303 137.139 149.174 135.284 147.558C132.855 145.443 131.202 142.594 130.583 139.455C130.413 138.578 130.329 137.687 130.33 136.794C130.308 135.589 130.438 134.387 130.716 133.214C131.139 131.58 131.851 130.032 132.819 128.643C133.435 127.728 134.152 126.883 134.957 126.125C136.817 124.426 139.09 123.23 141.555 122.652C142.81 122.336 144.102 122.188 145.397 122.211C146.457 122.229 147.51 122.365 148.539 122.617C150.905 123.235 153.084 124.414 154.886 126.05C156.688 127.686 158.059 129.731 158.882 132.008C159.283 133.197 159.527 134.433 159.607 135.684C159.74 137.203 159.625 138.734 159.269 140.219C159.017 141.251 158.648 142.251 158.169 143.202V143.166Z" fill="#8080FF"/>
<path d="M566.003 124.572L568 116.69L562.94 115.506C562.896 113.897 562.614 112.302 562.105 110.772L566.681 108.085L562.408 101.125L557.723 103.883C556.591 102.808 555.312 101.892 553.922 101.161L555.254 95.9529L547.192 94L545.897 99.1131C544.283 99.0977 542.674 99.3009 541.116 99.7168L538.392 95.2901L531.287 99.48L533.889 103.694C532.634 104.838 531.564 106.163 530.718 107.623L525.997 106.44L524 114.31L528.454 115.399C528.395 117.18 528.628 118.958 529.144 120.666L525.319 122.915L529.604 129.863L533.321 127.685C534.623 129 536.136 130.1 537.799 130.94L536.758 135.035L544.808 137L545.873 132.81C547.71 132.794 549.533 132.491 551.272 131.911L553.608 135.698L560.713 131.52L558.292 127.519C559.485 126.284 560.481 124.879 561.246 123.353L566.003 124.572ZM553.426 119.731C553.142 120.277 552.801 120.792 552.409 121.27C551.296 122.608 549.793 123.582 548.1 124.063C547.605 124.204 547.099 124.303 546.587 124.359C545.591 124.47 544.584 124.41 543.609 124.182C542.749 123.957 541.931 123.597 541.188 123.116C540.785 122.874 540.404 122.597 540.051 122.288C538.614 121.055 537.638 119.389 537.279 117.554C537.059 116.353 537.088 115.121 537.363 113.932C537.607 112.986 538.017 112.089 538.574 111.28C538.918 110.751 539.324 110.262 539.784 109.825C540.875 108.834 542.21 108.137 543.658 107.801C544.397 107.613 545.158 107.525 545.921 107.54C546.542 107.55 547.159 107.629 547.761 107.777C548.454 107.954 549.121 108.217 549.746 108.558C550.453 108.926 551.102 109.392 551.671 109.943C552.645 110.858 553.383 111.986 553.826 113.233C554.065 113.926 554.208 114.646 554.249 115.376C554.328 116.256 554.263 117.143 554.056 118.003C553.908 118.599 553.697 119.178 553.426 119.731Z" fill="#8080FF"/>
<path d="M395.328 26H293.672C279.494 26 268 37.5154 268 51.7205V300.28C268 314.485 279.494 326 293.672 326H395.328C409.506 326 421 314.485 421 300.28V51.7205C421 37.5154 409.506 26 395.328 26Z" fill="#4139A1"/>
<path d="M415 49H274V295H415V49Z" fill="#F0F1FF"/>
<path d="M362 37H327V40H362V37Z" fill="white"/>
<path d="M352 310C352 311.582 351.56 313.129 350.736 314.445C349.912 315.76 348.741 316.786 347.37 317.391C346 317.997 344.492 318.155 343.037 317.846C341.582 317.538 340.246 316.776 339.197 315.657C338.148 314.538 337.434 313.113 337.144 311.561C336.855 310.009 337.003 308.4 337.571 306.939C338.139 305.477 339.1 304.227 340.333 303.348C341.567 302.469 343.017 302 344.5 302C345.485 301.998 346.461 302.204 347.372 302.606C348.283 303.007 349.11 303.596 349.807 304.339C350.503 305.083 351.056 305.965 351.432 306.937C351.809 307.908 352.002 308.949 352 310Z" fill="white"/>
<path d="M397 79H289V145H397V79Z" fill="#9090F4"/>
<path d="M391 84H295V139H391V84Z" fill="white"/>
<path d="M321 277H402V275H321V277Z" fill="#BBC3FF"/>
<path d="M321 268H402V266H321V268Z" fill="#BBC3FF"/>
<path d="M321 258H402V256H321V258Z" fill="#BBC3FF"/>
<path d="M287 281H316V252H287V281Z" fill="#BBC3FF"/>
<path d="M321 233H359V231H321V233Z" fill="#BBC3FF"/>
<path d="M321 223H402V221H321V223Z" fill="#BBC3FF"/>
<path d="M321 213H402V211H321V213Z" fill="#BBC3FF"/>
<path d="M287 237H316V207H287V237Z" fill="#BBC3FF"/>
<path d="M321 187H402V185H321V187Z" fill="#BBC3FF"/>
<path d="M321 177H402V175H321V177Z" fill="#BBC3FF"/>
<path d="M321 167H402V166H321V167Z" fill="#BBC3FF"/>
<path d="M287 191H316V161H287V191Z" fill="#BBC3FF"/>
<path d="M230.916 225.054L206 225.15L207.751 339H217.727C217.727 339 225.281 244.612 230.424 244.384C236.803 244.121 238.818 338.832 238.818 338.832H248.902L256 224L230.916 225.054Z" fill="#4139A1"/>
<path d="M205.735 245.582C205.016 244.408 204.332 243.234 203.673 242.061C202.162 239.291 200.472 236.439 200.004 233.364L194.19 233C194.298 233.869 194.382 234.89 194.442 236.11C194.442 236.11 191.097 246.744 194.597 252.929C195.253 253.758 195.966 254.543 196.731 255.276C197.892 256.556 199.402 257.484 201.083 257.952C201.437 258.042 201.811 258.004 202.138 257.847C202.296 257.734 202.423 257.585 202.509 257.413C202.595 257.242 202.636 257.052 202.63 256.861C202.611 256.345 202.436 255.846 202.126 255.429C200.813 253.75 199.866 251.824 199.345 249.772C199.136 248.935 199.075 248.07 199.165 247.213C199.201 246.482 199.414 245.77 199.789 245.136C200.28 244.49 201.143 245.065 201.611 245.441C202.453 246.071 203.232 246.778 203.937 247.554C204.332 248 204.56 248.61 205.136 248.938C205.451 249.092 205.816 249.119 206.151 249.014C206.487 248.909 206.768 248.68 206.934 248.375C207.282 247.483 206.167 246.274 205.735 245.582Z" fill="#FFBBBB"/>
<path d="M206 211.408L205.76 159.239V159C205.488 159.137 205.223 159.288 204.968 159.453C199.242 164.762 196.265 172.875 195.233 180.271C195.233 180.486 195.173 180.701 195.149 180.903L195.077 181.667C195.077 181.965 195.017 182.263 194.981 182.55C194.945 182.836 194.981 183.218 194.897 183.552C194.813 183.886 194.837 184.291 194.813 184.661C194.789 185.031 194.753 185.461 194.717 185.854C194.681 186.248 194.717 186.725 194.633 187.155C194.548 187.584 194.572 188.085 194.536 188.538C194.5 188.992 194.476 189.517 194.452 190.006C194.428 190.495 194.38 191.032 194.356 191.545C194.332 192.058 194.296 192.607 194.26 193.143C194.224 193.68 194.2 194.241 194.164 194.802C194.128 195.362 194.104 195.935 194.08 196.508C194.056 197.08 194.02 197.701 193.984 198.249C193.948 198.798 193.924 199.442 193.9 200.039C193.876 200.635 193.9 201.232 193.804 201.852C193.708 202.473 193.804 203.045 193.72 203.678C193.636 204.31 193.66 204.871 193.636 205.527C193.612 206.183 193.636 206.72 193.552 207.376L193.48 209.237C193.48 209.845 193.42 210.43 193.396 211.074L193.324 212.899L193.252 214.701C193.252 215.297 193.252 215.894 193.192 216.478L193.12 218.22C193.12 218.781 193.12 219.342 193.12 219.914C193.12 220.487 193.12 221 193.12 221.549C193.12 222.097 193.12 222.61 193.12 223.135C193.12 223.66 193.12 224.137 193.12 224.65C193.12 226.726 193 228.79 193 230.866C193 232.942 193.12 235.006 193.204 237.081V237.213V237.69L202.411 238V237.141C202.415 235.91 202.515 234.682 202.711 233.467L206 211.408Z" fill="#FFB90B"/>
<path d="M254.954 159.726H254.871L240.609 154.131L230.542 155.626L220.488 154.084V154L206.107 159.546L206 229.856C206 229.856 210.611 232.247 219.489 233.442C219.489 233.442 232.301 234.96 242.392 232.988C246.981 232.306 251.525 231.348 256 230.119L254.954 159.726Z" fill="#FFC41D"/>
<g style="mix-blend-mode:overlay">
<g style="mix-blend-mode:overlay">
<path d="M220.199 154.258C220.199 154.258 219.96 160.481 223.315 162.635L230.298 155.455C226.904 155.395 223.525 154.994 220.211 154.258H220.199Z" fill="#484949"/>
</g>
<g style="mix-blend-mode:overlay">
<path d="M240.418 154.258C237.109 154.995 233.734 155.396 230.344 155.455L237.386 162.635C240.717 160.481 240.418 154.258 240.418 154.258Z" fill="#484949"/>
</g>
</g>
<path d="M220.018 153.027C220.018 153.027 219.592 158.674 222.912 161L230 155.02C226.597 154.959 223.226 154.277 220.018 153V153.027Z" fill="white"/>
<path d="M239.983 154C236.775 155.117 233.403 155.714 230 155.767L237.089 161C240.397 158.942 239.983 154 239.983 154Z" fill="white"/>
<path d="M294.357 150C292.848 151.331 291.186 152.479 289.405 153.418C272.56 162.163 255 159.125 255 159.125L255.262 176.854C279.071 178.8 296.75 160.656 298.917 158.319L299.559 157.666L301 156.218L294.357 150Z" fill="#FFB90B"/>
<path d="M308.843 135.385L303.134 141.155L300.311 141.825C300.126 141.87 299.949 141.939 299.783 142.029C299.503 142.189 299.25 142.391 299.034 142.628C298.634 143.064 298.362 143.597 298.248 144.172L297.683 146.65L294 150.014L300.544 156C301.908 155.201 303.202 154.292 304.411 153.282L308.942 148.709C309.371 148.266 305.958 142.077 305.528 142.245L310.611 137.097C310.734 136.985 310.832 136.849 310.899 136.699C310.965 136.549 311 136.387 311 136.223C311 136.059 310.965 135.897 310.899 135.746C310.832 135.596 310.734 135.461 310.611 135.349C310.494 135.235 310.355 135.146 310.202 135.086C310.049 135.026 309.885 134.997 309.72 135C309.554 135.004 309.392 135.039 309.241 135.105C309.091 135.171 308.955 135.266 308.843 135.385Z" fill="#FFBBBB"/>
<path d="M308.453 140.427L308.381 140.339C308.313 140.241 308.225 140.161 308.124 140.103C308.024 140.045 307.912 140.01 307.797 140.002C307.683 139.994 307.568 140.011 307.46 140.054C307.353 140.097 307.256 140.164 307.175 140.25L303.243 144.452C303.087 144.64 303 144.881 303 145.132C303 145.382 303.087 145.623 303.243 145.811C303.361 145.972 303.532 146.08 303.723 146.113C303.913 146.146 304.108 146.101 304.269 145.989L303.521 146.788C303.364 146.976 303.277 147.218 303.277 147.468C303.277 147.718 303.364 147.959 303.521 148.147C303.583 148.238 303.663 148.315 303.755 148.371C303.848 148.427 303.951 148.462 304.057 148.472C304.163 148.483 304.27 148.47 304.371 148.434C304.472 148.397 304.565 148.338 304.642 148.261L303.895 149.048C303.74 149.237 303.655 149.478 303.655 149.728C303.655 149.977 303.74 150.218 303.895 150.407C303.958 150.494 304.038 150.567 304.129 150.621C304.22 150.674 304.32 150.708 304.424 150.72C304.527 150.732 304.632 150.722 304.732 150.69C304.832 150.658 304.924 150.605 305.004 150.534L304.293 151.296C304.138 151.485 304.053 151.726 304.053 151.975C304.053 152.224 304.138 152.465 304.293 152.654C304.359 152.754 304.447 152.837 304.548 152.897C304.649 152.956 304.762 152.991 304.878 152.999C304.994 153.006 305.11 152.986 305.218 152.939C305.325 152.893 305.421 152.821 305.499 152.73L309.792 148.16C309.926 147.998 310 147.79 310 147.576C310 147.361 309.926 147.153 309.792 146.992L309.72 146.903C309.656 146.814 309.576 146.739 309.484 146.684C309.392 146.629 309.29 146.595 309.185 146.583C309.08 146.571 308.974 146.582 308.873 146.615C308.772 146.648 308.678 146.703 308.598 146.776L309.394 145.912C309.527 145.753 309.601 145.547 309.601 145.335C309.601 145.122 309.527 144.917 309.394 144.757L309.322 144.668C309.256 144.578 309.174 144.502 309.079 144.447C308.985 144.392 308.88 144.358 308.773 144.347C308.665 144.337 308.557 144.349 308.454 144.385C308.351 144.42 308.257 144.478 308.176 144.554L309.02 143.652C309.151 143.491 309.223 143.287 309.223 143.075C309.223 142.863 309.151 142.658 309.02 142.497L308.948 142.395C308.825 142.235 308.649 142.128 308.456 142.095C308.262 142.062 308.064 142.106 307.899 142.218L308.49 141.596C308.616 141.428 308.682 141.219 308.676 141.004C308.669 140.79 308.59 140.586 308.453 140.427Z" fill="#FFCACA"/>
<path d="M239.905 139L240 153.361L239.705 153.454C236.758 154.472 233.657 154.986 230.535 154.972C227.281 155.133 224.03 154.603 221 153.419L221.118 139H239.905Z" fill="#F9C0B9"/>
<path d="M241.217 130.129C241.441 130.679 241.822 131.15 242.314 131.483C242.805 131.816 243.384 131.996 243.978 132C244.572 132.004 245.153 131.832 245.649 131.505C246.145 131.179 246.533 130.713 246.764 130.166C246.995 129.62 247.058 129.017 246.946 128.434C246.834 127.851 246.552 127.315 246.135 126.893C245.718 126.47 245.185 126.181 244.603 126.062C244.022 125.942 243.418 125.997 242.868 126.221C242.132 126.523 241.546 127.103 241.237 127.835C240.928 128.568 240.921 129.392 241.217 130.129Z" fill="#F99891"/>
<path d="M213.226 130.823C213.45 131.464 213.831 132.012 214.323 132.4C214.814 132.787 215.392 132.996 215.985 133C216.578 133.004 217.159 132.802 217.654 132.421C218.148 132.04 218.535 131.496 218.765 130.858C218.995 130.22 219.058 129.517 218.946 128.837C218.833 128.158 218.551 127.532 218.134 127.04C217.718 126.548 217.185 126.211 216.605 126.072C216.024 125.932 215.421 125.997 214.872 126.258C214.506 126.43 214.173 126.685 213.892 127.008C213.611 127.331 213.387 127.716 213.234 128.14C213.081 128.565 213.001 129.02 213 129.481C212.999 129.941 213.075 130.397 213.226 130.823Z" fill="#F99891"/>
<path d="M217.195 122.951C215.492 141.996 225.418 146.007 229.024 146.829C229.709 146.989 230.415 147.037 231.115 146.972C247.197 145.412 243.673 121.452 243.673 121.452C243.673 121.452 242.063 111.441 229.882 112.025C229.858 112.025 218.182 111.977 217.195 122.951Z" fill="#F9C0B9"/>
<path d="M231.447 146.797C230.74 146.854 230.029 146.8 229.339 146.638C225.986 145.846 223.025 143.844 221 141V142.157C223.021 145.01 225.982 147.021 229.339 147.82C230.029 147.982 230.74 148.035 231.447 147.978C233.088 147.869 234.691 147.423 236.16 146.668C237.63 145.913 238.935 144.863 240 143.582V142.364C238.937 143.65 237.632 144.706 236.163 145.467C234.694 146.228 233.09 146.681 231.447 146.797Z" fill="#F99891"/>
<path d="M213.475 109.631C215.251 107.266 217.871 105.657 220.803 105.134C226.524 103.871 232.355 103.157 238.214 103.004C243.436 102.885 252.04 105.241 250.897 112.034V112.153C250.58 113.608 249.993 114.992 249.164 116.234C248.388 117.696 247.234 118.927 245.819 119.803C244.207 120.6 242.209 120.077 240.549 119.72C238.536 119.313 236.584 118.657 234.737 117.769C232.403 116.639 230.14 115.306 227.698 114.402C226.551 113.939 225.326 113.697 224.088 113.688C220.707 113.783 220.214 116.365 218.914 119.756C217.96 122.776 217.255 125.867 216.808 129C216.609 128.301 216.314 127.632 215.93 127.013C214.426 123.587 212.729 119.982 212.164 116.306C211.719 113.997 212.188 111.607 213.475 109.631Z" fill="#072149"/>
<path d="M234.876 120.491C232.048 119.341 229.39 117.764 226.489 116.762C225.289 116.308 224.011 116.07 222.719 116.06C221.751 116.067 220.806 116.343 220 116.854C220.364 116.01 220.984 115.288 221.78 114.78C222.576 114.271 223.513 114 224.471 114C225.767 114.009 227.049 114.247 228.254 114.702C231.154 115.703 233.801 117.257 236.628 118.431C238.802 119.384 241.15 119.924 243.541 120.02C243.711 120.449 243.84 120.892 243.927 121.343C243.927 121.343 243.927 121.539 244 121.884H243.807C240.751 122.244 237.651 121.761 234.876 120.491Z" fill="#FFA6A4"/>
<path d="M245.529 119.273C245.529 119.273 247.225 122.051 244.18 128C244.18 128 240.777 117.162 245.529 119.273Z" fill="#072149"/>
<path d="M230 132V131.29H231.619L230.772 129.18L231.797 129L233 132H230Z" fill="#F99891"/>
<path d="M236 134C236 134.593 236.176 135.173 236.506 135.667C236.835 136.16 237.304 136.545 237.852 136.772C238.4 136.999 239.003 137.058 239.585 136.942C240.167 136.827 240.702 136.541 241.121 136.121C241.541 135.702 241.827 135.167 241.942 134.585C242.058 134.003 241.999 133.4 241.772 132.852C241.545 132.304 241.16 131.835 240.667 131.506C240.173 131.176 239.593 131 239 131C238.205 131.003 237.444 131.32 236.882 131.882C236.32 132.444 236.003 133.205 236 134Z" fill="#F99891"/>
<path d="M220 134C220 134.594 220.176 135.174 220.506 135.668C220.837 136.162 221.306 136.546 221.855 136.773C222.404 137 223.008 137.058 223.59 136.941C224.172 136.825 224.707 136.538 225.126 136.117C225.545 135.696 225.83 135.16 225.944 134.578C226.058 133.995 225.997 133.391 225.768 132.843C225.539 132.295 225.153 131.828 224.658 131.499C224.163 131.171 223.581 130.998 222.987 131C222.194 131.003 221.434 131.321 220.874 131.883C220.314 132.445 220 133.207 220 134Z" fill="#F99891"/>
<path d="M237 126.985C236.997 127.184 237.054 127.38 237.162 127.546C237.271 127.713 237.427 127.843 237.61 127.921C237.794 127.999 237.996 128.02 238.191 127.982C238.387 127.943 238.566 127.848 238.707 127.707C238.848 127.566 238.943 127.387 238.981 127.191C239.02 126.996 238.999 126.794 238.921 126.61C238.844 126.427 238.713 126.271 238.546 126.162C238.38 126.054 238.184 125.997 237.985 126C237.724 126 237.473 126.104 237.289 126.289C237.104 126.473 237 126.724 237 126.985Z" fill="#323655"/>
<path d="M224 127.985C223.999 128.183 224.027 128.378 224.081 128.545C224.135 128.711 224.212 128.842 224.303 128.92C224.395 128.998 224.495 129.019 224.593 128.983C224.69 128.946 224.78 128.852 224.851 128.712C224.922 128.573 224.97 128.395 224.99 128.201C225.01 128.006 225 127.804 224.963 127.621C224.925 127.437 224.861 127.28 224.779 127.17C224.696 127.059 224.599 127 224.5 127C224.369 127 224.243 127.103 224.149 127.288C224.056 127.472 224.002 127.722 224 127.985Z" fill="#323655"/>
<path d="M240 125.523L235 126C235.294 125.408 235.661 124.926 236.076 124.584C236.492 124.241 236.946 124.047 237.41 124.014C237.877 123.959 238.347 124.065 238.789 124.325C239.231 124.584 239.635 124.993 239.976 125.523" fill="#323655"/>
<path d="M227 125.923L222 126C222.316 125.686 222.699 125.436 223.126 125.264C223.553 125.092 224.015 125.002 224.482 125.001C224.949 124.992 225.414 125.07 225.847 125.231C226.28 125.391 226.672 125.63 227 125.934" fill="#323655"/>
<path d="M234 138C234 138.796 233.684 139.559 233.121 140.121C232.559 140.684 231.796 141 231 141C230.204 141 229.441 140.684 228.879 140.121C228.316 139.559 228 138.796 228 138H234Z" fill="#323655"/>
<path d="M231.5 139.012C231.832 138.961 232.166 139.071 232.442 139.321C232.718 139.571 232.916 139.945 233 140.374C232.56 140.782 232.037 141 231.5 141C230.963 141 230.44 140.782 230 140.374C230.084 139.945 230.282 139.571 230.558 139.321C230.834 139.071 231.168 138.961 231.5 139.012Z" fill="#E48C87"/>
<path d="M250 346H239V340.708C239 339.196 239.578 337.746 240.608 336.676C241.638 335.606 243.036 335.003 244.494 335C245.217 335 245.933 335.148 246.601 335.435C247.269 335.721 247.876 336.142 248.387 336.672C248.899 337.202 249.304 337.831 249.581 338.524C249.858 339.216 250 339.959 250 340.708V346Z" fill="#BBC3FF"/>
<path d="M238.494 350H250.145C250.782 350.003 251.411 349.853 251.973 349.563C252.535 349.273 253.014 348.852 253.365 348.339C253.716 347.826 253.93 347.236 253.985 346.623C254.041 346.01 253.938 345.393 253.684 344.828C252.025 341.199 251.914 337 244.221 337C235.864 337 236.282 341.922 235.139 345.718C234.987 346.219 234.959 346.747 235.057 347.26C235.155 347.773 235.375 348.257 235.701 348.673C236.027 349.089 236.45 349.425 236.935 349.656C237.419 349.886 237.953 350.004 238.494 350Z" fill="#4139A1"/>
<path d="M253.887 345C253.676 345.861 253.199 346.626 252.53 347.175C251.861 347.725 251.038 348.029 250.187 348.041H238.493C237.733 348.044 236.993 347.787 236.385 347.311C235.777 346.834 235.335 346.163 235.125 345.399C234.982 345.94 234.961 346.508 235.064 347.059C235.166 347.609 235.389 348.128 235.715 348.573C236.042 349.019 236.462 349.38 236.944 349.627C237.426 349.875 237.956 350.002 238.493 350H250.187C250.769 349.992 251.341 349.848 251.862 349.577C252.382 349.305 252.838 348.915 253.193 348.434C253.549 347.953 253.797 347.395 253.917 346.8C254.037 346.205 254.027 345.59 253.887 345Z" fill="#4139A1"/>
<path d="M235.047 345.367C235.247 346.126 235.67 346.793 236.251 347.268C236.833 347.743 237.541 348 238.27 348H249.459C250.272 347.991 251.06 347.692 251.7 347.149C252.341 346.606 252.797 345.85 253 344.997C252.951 344.783 252.888 344.574 252.811 344.371C252.753 344.251 252.702 344.127 252.658 344C252.341 344.632 251.871 345.159 251.3 345.526C250.728 345.893 250.076 346.085 249.412 346.083H238.222C237.618 346.082 237.025 345.905 236.505 345.57C235.986 345.234 235.56 344.754 235.271 344.179C235.189 344.588 235.106 344.971 235 345.355" fill="#BBC3FF"/>
<path d="M248.176 340H239.824C239.716 340 239.609 339.987 239.509 339.962C239.409 339.937 239.318 339.9 239.241 339.854C239.165 339.807 239.104 339.752 239.063 339.691C239.021 339.631 239 339.566 239 339.5C239 339.434 239.021 339.369 239.063 339.309C239.104 339.248 239.165 339.193 239.241 339.146C239.318 339.1 239.409 339.063 239.509 339.038C239.609 339.013 239.716 339 239.824 339H248.176C248.394 339.002 248.601 339.055 248.755 339.149C248.909 339.242 248.997 339.368 249 339.5C248.997 339.632 248.909 339.758 248.755 339.851C248.601 339.945 248.394 339.998 248.176 340Z" fill="#BBC3FF"/>
<path d="M248.176 343H239.824C239.716 343 239.609 342.974 239.509 342.924C239.409 342.874 239.318 342.8 239.241 342.707C239.165 342.614 239.104 342.504 239.063 342.383C239.021 342.261 239 342.131 239 342C239 341.869 239.021 341.739 239.063 341.617C239.104 341.496 239.165 341.386 239.241 341.293C239.318 341.2 239.409 341.126 239.509 341.076C239.609 341.026 239.716 341 239.824 341H248.176C248.394 341.004 248.601 341.111 248.755 341.297C248.909 341.484 248.997 341.736 249 342C248.997 342.264 248.909 342.516 248.755 342.703C248.601 342.889 248.394 342.996 248.176 343Z" fill="#BBC3FF"/>
<path d="M248.176 345H239.824C239.716 345 239.609 344.987 239.509 344.962C239.409 344.937 239.318 344.9 239.241 344.854C239.165 344.807 239.104 344.752 239.063 344.691C239.021 344.631 239 344.566 239 344.5C239 344.434 239.021 344.369 239.063 344.309C239.104 344.248 239.165 344.193 239.241 344.146C239.318 344.1 239.409 344.063 239.509 344.038C239.609 344.013 239.716 344 239.824 344H248.176C248.394 344.002 248.601 344.055 248.755 344.149C248.909 344.242 248.997 344.368 249 344.5C248.997 344.632 248.909 344.758 248.755 344.851C248.601 344.945 248.394 344.998 248.176 345Z" fill="#BBC3FF"/>
<path d="M219 346H207V340.708C207 339.196 207.631 337.746 208.755 336.676C209.878 335.606 211.403 335.003 212.994 335C214.587 335 216.114 335.601 217.241 336.672C218.367 337.742 219 339.194 219 340.708V346Z" fill="#BBC3FF"/>
<path d="M207.31 350H218.348C218.952 350.003 219.547 349.853 220.08 349.563C220.612 349.273 221.066 348.852 221.398 348.339C221.731 347.826 221.933 347.236 221.986 346.623C222.039 346.01 221.941 345.393 221.701 344.828C220.129 341.199 220.024 337 212.736 337C204.818 337 205.214 341.922 204.132 345.718C203.988 346.219 203.962 346.747 204.054 347.26C204.147 347.773 204.356 348.257 204.665 348.673C204.973 349.089 205.373 349.425 205.833 349.656C206.292 349.886 206.798 350.004 207.31 350Z" fill="#4139A1"/>
<path d="M221.893 345C221.693 345.861 221.241 346.626 220.608 347.175C219.974 347.725 219.194 348.029 218.388 348.041H207.3C206.582 348.043 205.883 347.786 205.309 347.309C204.735 346.832 204.319 346.162 204.122 345.399C203.985 345.939 203.963 346.507 204.058 347.058C204.154 347.609 204.363 348.127 204.672 348.573C204.98 349.019 205.378 349.38 205.834 349.628C206.29 349.876 206.792 350.003 207.3 350H218.388C218.939 349.992 219.482 349.848 219.975 349.576C220.468 349.305 220.899 348.915 221.236 348.434C221.573 347.953 221.807 347.395 221.921 346.8C222.035 346.205 222.025 345.59 221.893 345Z" fill="#4139A1"/>
<path d="M204.047 345.367C204.247 346.126 204.67 346.793 205.251 347.268C205.833 347.743 206.541 348 207.269 348H218.459C219.272 347.989 220.059 347.689 220.698 347.146C221.338 346.604 221.796 345.849 222 344.997C221.953 344.781 221.885 344.572 221.799 344.371L221.658 344C221.34 344.632 220.871 345.159 220.3 345.526C219.728 345.893 219.076 346.085 218.412 346.083H207.21C206.608 346.08 206.017 345.901 205.5 345.566C204.983 345.231 204.559 344.752 204.271 344.179C204.189 344.588 204.106 344.971 204 345.355" fill="#BBC3FF"/>
<path d="M217.176 340H208.824C208.605 340 208.396 339.947 208.241 339.854C208.087 339.76 208 339.633 208 339.5C208 339.367 208.087 339.24 208.241 339.146C208.396 339.053 208.605 339 208.824 339H217.176C217.394 339.002 217.601 339.055 217.755 339.149C217.909 339.242 217.997 339.368 218 339.5C217.997 339.632 217.909 339.758 217.755 339.851C217.601 339.945 217.394 339.998 217.176 340Z" fill="#BBC3FF"/>
<path d="M217.176 343H208.824C208.605 343 208.396 342.895 208.241 342.707C208.087 342.52 208 342.265 208 342C208 341.869 208.021 341.739 208.063 341.617C208.104 341.496 208.165 341.386 208.241 341.293C208.318 341.2 208.409 341.126 208.509 341.076C208.609 341.026 208.716 341 208.824 341H217.176C217.394 341.004 217.601 341.111 217.755 341.297C217.909 341.484 217.997 341.736 218 342C217.997 342.264 217.909 342.516 217.755 342.703C217.601 342.889 217.394 342.996 217.176 343Z" fill="#BBC3FF"/>
<path d="M217.176 345H208.824C208.605 345 208.396 344.947 208.241 344.854C208.087 344.76 208 344.633 208 344.5C208 344.367 208.087 344.24 208.241 344.146C208.396 344.053 208.605 344 208.824 344H217.176C217.394 344.002 217.601 344.055 217.755 344.149C217.909 344.242 217.997 344.368 218 344.5C217.997 344.632 217.909 344.758 217.755 344.851C217.601 344.945 217.394 344.998 217.176 345Z" fill="#BBC3FF"/>
<path opacity="0.29" d="M421 164H369V231H421V164Z" fill="#4139A1"/>
<path d="M479 160H373V228H479V160Z" fill="#FBFFFC"/>
<path d="M425 209C421.044 209 417.178 207.827 413.889 205.629C410.6 203.432 408.036 200.308 406.522 196.654C405.009 192.999 404.613 188.978 405.384 185.098C406.156 181.219 408.061 177.655 410.858 174.858C413.655 172.061 417.219 170.156 421.098 169.384C424.978 168.613 428.999 169.009 432.654 170.522C436.308 172.036 439.432 174.6 441.629 177.889C443.827 181.178 445 185.044 445 189C444.994 194.302 442.884 199.386 439.135 203.135C435.386 206.884 430.302 208.994 425 209ZM425 170.824C421.405 170.824 417.891 171.89 414.902 173.887C411.913 175.884 409.583 178.723 408.207 182.044C406.832 185.366 406.472 189.02 407.173 192.546C407.874 196.072 409.605 199.311 412.147 201.853C414.689 204.395 417.928 206.126 421.454 206.827C424.98 207.528 428.634 207.169 431.956 205.793C435.277 204.417 438.116 202.087 440.113 199.098C442.11 196.109 443.176 192.595 443.176 189C443.179 186.61 442.712 184.243 441.8 182.033C440.888 179.824 439.55 177.816 437.863 176.123C436.175 174.431 434.17 173.088 431.963 172.17C429.756 171.253 427.39 170.779 425 170.776V170.824Z" fill="#F9355B"/>
<path d="M437 188.994L419 178V200L437 188.994Z" fill="#F9355B"/>
<path d="M476 217H375V225H476V217Z" fill="#706CCA"/>
<path d="M382 221.005L378 219V223L382 221.005Z" fill="#FBFFFC"/>
<path d="M433 221C433 221.396 432.853 221.783 432.578 222.112C432.302 222.441 431.911 222.698 431.454 222.849C430.996 223 430.493 223.039 430.007 222.961C429.522 222.883 429.077 222.691 428.728 222.41C428.378 222.13 428.141 221.772 428.046 221.384C427.951 220.995 428.003 220.593 428.194 220.227C428.385 219.862 428.708 219.55 429.121 219.332C429.534 219.113 430.018 218.998 430.513 219C430.841 219 431.165 219.052 431.468 219.152C431.77 219.253 432.045 219.401 432.276 219.586C432.507 219.772 432.69 219.993 432.815 220.235C432.939 220.478 433.002 220.738 433 221Z" fill="#FBFFFC"/>
<path d="M382 221H474" stroke="#FBFFFC" stroke-miterlimit="10"/>
<path d="M518 106H430V140H518V106Z" fill="#5757BC"/>
<path d="M507 117H441V120H507V117Z" fill="white"/>
<path d="M507 123H441V126H507V123Z" fill="white"/>
<path d="M486 130H441V133H486V130Z" fill="white"/>
<path opacity="0.19" d="M420.976 94H399V26C410.667 27.6533 421 36.4827 421 48.8224L420.976 94Z" fill="#4139A1"/>
<path d="M520 13H402V90H520V13Z" fill="#9090F4"/>
<path d="M514 19H409V84H514V19Z" fill="white"/>
<path d="M483.009 23L482 31.2556C486.146 31.4211 490.065 33.128 492.937 36.0193C495.81 38.9105 497.414 42.7623 497.414 46.769C497.414 47.3488 497.377 47.928 497.303 48.5033L505.754 50C505.91 48.9295 505.992 47.8501 506 46.769C505.996 40.7325 503.621 34.9222 499.354 30.5107C495.087 26.0992 489.245 23.4151 483.009 23Z" fill="#F9355B"/>
<path d="M481.436 62.3271C479.075 62.3353 476.744 61.7843 474.62 60.716C472.496 59.6476 470.635 58.0902 469.178 56.1623L464 63.0792C467.066 66.5222 471.013 68.9865 475.38 70.1832C479.747 71.3799 484.352 71.2595 488.656 69.836C492.959 68.4124 496.782 65.7449 499.677 62.146C502.572 58.5471 504.418 54.1661 505 49.5165L496.876 48C496.45 51.9411 494.639 55.5809 491.791 58.2239C488.943 60.8669 485.256 62.3277 481.436 62.3271Z" fill="#5757BC"/>
<path d="M466.143 46.7989C466.143 44.7616 466.538 42.7443 467.305 40.8625C468.072 38.9807 469.196 37.2714 470.613 35.8325C472.029 34.3935 473.711 33.2532 475.561 32.4768C477.412 31.7004 479.394 31.3031 481.396 31.3078C481.617 31.3078 481.826 31.3078 482.047 31.3078L483 23.083C482.465 23.083 481.942 23.0001 481.396 23.0001C476.838 22.9852 472.376 24.33 468.561 26.8683C464.747 29.4066 461.746 33.0271 459.93 37.2825C458.115 41.5378 457.564 46.2414 458.346 50.812C459.128 55.3826 461.208 59.6198 464.33 63L469.363 56.3018C467.275 53.5906 466.141 50.2442 466.143 46.7989Z" fill="#FFC41D"/>
<path d="M419.429 76H434V79H419.429C419.05 79 418.687 78.8447 418.419 78.5682C418.151 78.2918 418.001 77.9168 418.001 77.5259C417.994 77.328 418.026 77.1307 418.095 76.9458C418.164 76.761 418.268 76.5923 418.401 76.4499C418.534 76.3075 418.694 76.1942 418.871 76.1169C419.047 76.0397 419.237 75.9999 419.429 76Z" fill="#C5C5FF"/>
<path d="M433.5 80C434.881 80 436 78.8807 436 77.5C436 76.1193 434.881 75 433.5 75C432.119 75 431 76.1193 431 77.5C431 78.8807 432.119 80 433.5 80Z" fill="#F9355B"/>
<path d="M454.34 76H468V79H454.34C453.985 79 453.644 78.8447 453.393 78.5682C453.142 78.2918 453.001 77.9168 453.001 77.5259C452.995 77.328 453.024 77.1307 453.089 76.9458C453.153 76.761 453.251 76.5923 453.376 76.4499C453.501 76.3075 453.651 76.1942 453.816 76.1169C453.982 76.0397 454.16 75.9999 454.34 76Z" fill="#C5C5FF"/>
<path d="M468 80C469.657 80 471 78.8807 471 77.5C471 76.1193 469.657 75 468 75C466.343 75 465 76.1193 465 77.5C465 78.8807 466.343 80 468 80Z" fill="#FFC41D"/>
<path d="M489.34 76H503V79H489.34C488.985 79 488.644 78.8447 488.393 78.5682C488.142 78.2918 488.001 77.9168 488.001 77.5259C487.995 77.328 488.024 77.1307 488.089 76.9458C488.153 76.761 488.251 76.5923 488.376 76.4499C488.501 76.3075 488.651 76.1942 488.816 76.1169C488.982 76.0397 489.16 75.9999 489.34 76Z" fill="#C5C5FF"/>
<path d="M503 80C504.657 80 506 78.8807 506 77.5C506 76.1193 504.657 75 503 75C501.343 75 500 76.1193 500 77.5C500 78.8807 501.343 80 503 80Z" fill="#5757BC"/>
<path d="M449 26H418V29H449V26Z" fill="#C5C5FF"/>
<path d="M449 34H418V37H449V34Z" fill="#C5C5FF"/>
<path d="M449 42H418V45H449V42Z" fill="#C5C5FF"/>
<path d="M449 50H418V53H449V50Z" fill="#C5C5FF"/>
<path d="M449 57H418V60H449V57Z" fill="#C5C5FF"/>
<path d="M449 65H418V68H449V65Z" fill="#C5C5FF"/>
<path d="M372 129.167C369.672 129.759 368.232 129.193 366.94 127.253L357.752 114.541L356.424 112.781L345.694 127.295C344.468 129.041 343.182 129.801 340.894 129.183L354.634 110.739L341.842 94.0794C344.042 93.6514 345.562 93.8694 346.912 95.8394L356.442 108.709L366.042 95.9094C367.272 94.1634 368.594 93.4994 370.802 94.1434L365.842 100.719L359.122 109.469C358.322 110.469 358.432 111.153 359.168 112.119L372 129.167ZM308.016 110.431L309.14 104.903C312.2 93.9634 324.74 89.4174 333.388 96.1774C338.442 100.153 339.698 105.777 339.448 112.077H310.96C310.532 123.417 318.694 130.261 329.1 126.769C332.75 125.543 334.9 122.685 335.976 119.109C336.522 117.317 337.426 117.037 339.11 117.549C338.25 122.021 336.31 125.757 332.21 128.095C326.084 131.595 317.34 130.463 312.74 125.599C310 122.777 308.868 119.201 308.36 115.377C308.28 114.745 308.12 114.143 308 113.537C308.011 112.503 308.016 111.468 308.016 110.433V110.431ZM311.012 109.671H336.756C336.588 101.471 331.482 95.6474 324.504 95.5974C316.844 95.5374 311.344 101.223 311.012 109.671Z" fill="black"/>
</svg>
