<svg width="690" height="350" viewBox="0 0 690 350" fill="none" xmlns="http://www.w3.org/2000/svg">
<g clip-path="url(#clip0_3189_2556)">
<path d="M442.342 38.1562H178.5V292.165H442.342V38.1562Z" fill="url(#paint0_linear_3189_2556)"/>
<path d="M505.44 199.437C505.44 199.437 491.113 160.077 457.992 170.408C457.992 170.408 485.913 174.893 500.266 198.329C514.619 221.764 505.44 199.437 505.44 199.437Z" fill="url(#paint1_linear_3189_2556)"/>
<path d="M499.813 199.444C499.813 199.444 514.14 160.058 547.261 170.415C547.261 170.415 519.34 174.9 504.987 198.336C490.634 221.772 499.813 199.444 499.813 199.444Z" fill="url(#paint2_linear_3189_2556)"/>
<path d="M534.711 168.729C534.711 168.729 557.178 166.417 535.583 201.885L547.275 203.246C547.275 203.246 588.755 166.923 534.711 168.729Z" fill="url(#paint3_linear_3189_2556)"/>
<path d="M509.385 199.553L505.45 201.298L504.385 201.769C504.385 201.769 488.889 197.407 497.588 193.69C499.245 192.893 501.113 192.645 502.92 192.983C507.596 194.03 509.385 199.553 509.385 199.553Z" fill="url(#paint4_linear_3189_2556)"/>
<path d="M505.45 201.329L504.385 201.8C504.385 201.8 488.889 197.438 497.588 193.721C499.245 192.924 501.113 192.677 502.92 193.014C502.92 193.014 496.131 195.353 505.45 201.329Z" fill="url(#paint5_linear_3189_2556)"/>
<path d="M561.337 197.352H440.633V292.16H561.337V197.352Z" fill="url(#paint6_linear_3189_2556)"/>
<path d="M565.617 197.352H436.344V225.813H565.617V197.352Z" fill="url(#paint7_linear_3189_2556)"/>
<path d="M513.966 197.352H488V292.16H513.966V197.352Z" fill="url(#paint8_linear_3189_2556)"/>
<path d="M578.073 229.011C578.073 229.011 567.602 225.198 561.774 220.905C560.294 219.946 559.091 218.616 558.284 217.049C558.046 216.507 557.998 215.901 558.149 215.329C558.299 214.757 558.639 214.253 559.113 213.899C559.113 213.899 559.811 213.611 561.591 214.352C564.208 215.443 569.225 218.785 577.802 228.653C577.872 228.749 577.977 228.862 578.073 229.011Z" fill="url(#paint9_linear_3189_2556)"/>
<path d="M578.069 229.011L577.475 231.942C577.475 231.942 556.535 237.177 549.851 230.345L549.563 230.04C549.033 229.446 548.64 228.743 548.412 227.981C546.527 221.489 559.074 213.898 559.074 213.898C558.786 214.265 558.856 214.771 559.213 215.373C559.701 216.118 560.288 216.793 560.958 217.38C565.871 222.03 578.069 229.011 578.069 229.011Z" fill="url(#paint10_linear_3189_2556)"/>
<path d="M560.935 217.355C560.935 217.355 556.616 219.1 555.316 221.927C554.016 224.754 553.283 227.092 551.477 227.948C550.646 228.429 549.98 229.15 549.566 230.015C549.036 229.422 548.643 228.719 548.414 227.956C548.552 226.67 549.072 225.455 549.906 224.466C552.585 221.29 555.307 218.995 555.639 217.844C555.883 216.971 558.125 215.828 559.216 215.305C559.703 216.05 560.291 216.725 560.961 217.311L560.935 217.355Z" fill="url(#paint11_linear_3189_2556)"/>
<path d="M584.469 229.011C584.469 229.011 594.939 225.198 600.767 220.905C602.247 219.946 603.45 218.616 604.258 217.049C604.496 216.508 604.545 215.903 604.397 215.331C604.248 214.759 603.91 214.254 603.437 213.899C603.437 213.899 602.731 213.611 600.951 214.352C598.333 215.443 593.316 218.785 584.748 228.653L584.469 229.011Z" fill="url(#paint12_linear_3189_2556)"/>
<path d="M584.469 229.011L585.062 231.942C585.062 231.942 606.003 237.177 612.695 230.345C612.791 230.241 612.887 230.145 612.974 230.04C613.504 229.446 613.897 228.743 614.126 227.981C616.01 221.489 603.472 213.898 603.472 213.898C603.76 214.265 603.682 214.771 603.324 215.373C602.836 216.118 602.249 216.793 601.579 217.38C596.675 222.03 584.469 229.011 584.469 229.011Z" fill="url(#paint13_linear_3189_2556)"/>
<path d="M577.275 229.01C577.275 229.01 578.252 227.902 578.941 228.338C579.631 228.774 580.608 227.509 581.655 228.015C582.702 228.521 582.815 227.143 584.081 227.893C585.346 228.643 586.114 231.2 585.171 232.465C584.229 233.73 583.723 232.212 583.252 232.465C582.781 232.718 581.908 233.852 580.46 232.98C579.011 232.107 576.874 233.765 577.022 232.683C577.17 231.601 576.655 231.078 577.275 229.01Z" fill="url(#paint14_linear_3189_2556)"/>
<path d="M619.686 231.812H542.852V292.165H619.686V231.812Z" fill="url(#paint15_linear_3189_2556)"/>
<path d="M622.412 231.812H540.125V252.753H622.412V231.812Z" fill="url(#paint16_linear_3189_2556)"/>
<path d="M589.526 231.812H573V292.165H589.526V231.812Z" fill="url(#paint17_linear_3189_2556)"/>
<path d="M133.913 126.976C147.219 136.242 160.263 142.454 167.27 138.667C167.681 138.445 168.072 138.188 168.439 137.9C172.444 134.724 173.857 127.325 171.17 113.914C164.024 78.2279 141.6 72.5478 120.642 61.7983C99.946 51.2059 107.834 28.6425 108.043 28.1016C79.4854 78.7601 111.394 111.218 133.913 126.976Z" fill="url(#paint18_linear_3189_2556)"/>
<path d="M167.302 138.676C167.713 138.454 168.104 138.197 168.471 137.908C165.854 130.928 160.008 117.543 152.05 110.275C148.011 106.751 143.763 103.473 139.329 100.459C130.604 94.2558 121.599 87.834 115.509 78.3672L114.375 79.0914C120.614 88.7764 129.731 95.2679 138.553 101.55C142.938 104.522 147.143 107.753 151.143 111.226C158.9 118.355 164.737 131.914 167.302 138.676Z" fill="url(#paint19_linear_3189_2556)"/>
<path d="M94.9119 163.449C113.235 166.459 125.101 151.957 146.216 178.648C164.452 201.691 190.235 176.222 196.953 168.823C198.018 167.654 198.594 166.939 198.594 166.939C198.594 166.939 198.192 167.043 197.494 167.2C192.914 168.186 175.559 171.013 171.467 157.821C166.755 142.587 153.266 121.864 135.449 127.326C117.632 132.788 113.776 119.378 100.618 109.274C87.4606 99.1699 67 117.824 67 117.824C67 117.824 76.5628 160.438 94.9119 163.449Z" fill="url(#paint20_linear_3189_2556)"/>
<path d="M152.39 158.403C155.88 164.458 159.475 170.723 167.659 174.16C178.819 178.828 190.214 173.349 196.95 168.821C198.014 167.651 198.59 166.936 198.59 166.936C198.59 166.936 198.189 167.041 197.491 167.198C191.139 171.709 179.43 177.973 168.061 173.201C160.208 169.911 156.718 163.795 153.28 157.888C149.345 151.056 145.288 143.989 134.591 141.546C129.862 140.472 125.674 140.813 121.616 141.144C115.779 141.633 110.274 142.087 104.218 137.898L103.625 138.771C109.977 143.134 115.675 142.706 121.695 142.209C125.674 141.877 129.783 141.537 134.355 142.584C144.616 144.896 148.394 151.457 152.39 158.403Z" fill="url(#paint21_linear_3189_2556)"/>
<path d="M436.827 78.1181C438.799 114.38 467.566 112.574 469.843 112.373H469.983C469.354 111.64 468.77 110.899 468.237 110.148C453.823 90.1851 470.236 62.8751 469.983 42.7897C469.703 21.9539 451.136 17.3906 451.136 17.3906C464.782 28.873 434.785 40.3554 436.827 78.1181Z" fill="url(#paint22_linear_3189_2556)"/>
<path d="M453.659 96.3847C457.559 103.365 463.728 108.6 469.835 112.378H469.975C469.347 111.645 468.762 110.903 468.23 110.153C462.995 106.611 457.899 101.89 454.54 95.8961C450.178 88.1917 449.497 79.6759 452.359 70.593C461.468 41.7998 456.303 37.1754 456.076 36.9922L455.762 37.3848L455.43 37.7687C455.701 38.0567 459.941 43.1784 451.382 70.2701C448.432 79.6323 449.2 88.4186 453.659 96.3847Z" fill="url(#paint23_linear_3189_2556)"/>
<path d="M494.798 114.353C483.359 128.444 471.24 139.176 462.515 137.274C462.004 137.165 461.505 137.01 461.023 136.811C455.735 134.647 451.922 127.126 450.64 111.866C447.254 71.2675 469.608 58.1972 488.821 40.136C507.798 22.3104 501.359 0.523513 500.958 0C547.489 45.5892 514.177 90.4455 494.798 114.353Z" fill="url(#paint24_linear_3189_2556)"/>
<path d="M462.539 137.271C462.029 137.162 461.529 137.007 461.047 136.809C461.736 128.528 463.839 112.282 470.13 101.995C473.385 96.9548 476.936 92.1125 480.766 87.4937C488.217 78.1141 495.922 68.4116 499.534 56.3359L500.982 56.7635C497.283 69.1184 489.482 78.9342 481.944 88.4273C478.149 92.9943 474.635 97.7874 471.421 102.78C465.279 112.814 463.202 129.2 462.539 137.271Z" fill="url(#paint25_linear_3189_2556)"/>
<path d="M160.156 74.5703H460.669C462.906 74.5726 465.12 75.0154 467.186 75.8734C469.251 76.7315 471.128 77.9879 472.707 79.5711C474.287 81.1542 475.54 83.0331 476.394 85.1003C477.248 87.1676 477.686 89.3827 477.684 91.6194V265.251C477.684 269.768 475.889 274.1 472.695 277.294C469.501 280.488 465.169 282.283 460.652 282.283H160.156C155.641 282.283 151.311 280.489 148.119 277.297C144.926 274.104 143.133 269.775 143.133 265.26V91.6281C143.128 89.3897 143.565 87.1723 144.419 85.103C145.272 83.0337 146.525 81.153 148.106 79.5685C149.688 77.9841 151.566 76.7271 153.633 75.8694C155.701 75.0118 157.917 74.5703 160.156 74.5703Z" fill="url(#paint26_linear_3189_2556)"/>
<path d="M420.503 146.163C415.052 146.17 409.721 144.56 405.184 141.536C400.648 138.512 397.111 134.21 395.021 129.176C392.93 124.141 392.38 118.599 393.44 113.252C394.5 107.904 397.122 102.991 400.975 99.1344C404.828 95.2777 409.739 92.6507 415.085 91.5856C420.432 90.5206 425.974 91.0655 431.011 93.1513C436.048 95.2371 440.352 98.7702 443.381 103.303C446.409 107.836 448.024 113.166 448.023 118.618C448.013 125.916 445.112 132.913 439.954 138.076C434.796 143.239 427.801 146.147 420.503 146.163ZM420.503 95.1206C415.856 95.1206 411.313 96.4987 407.449 99.0806C403.585 101.662 400.573 105.332 398.795 109.626C397.016 113.919 396.551 118.644 397.458 123.202C398.364 127.76 400.602 131.946 403.888 135.233C407.174 138.519 411.361 140.756 415.919 141.663C420.477 142.57 425.202 142.104 429.495 140.326C433.789 138.548 437.458 135.536 440.04 131.672C442.622 127.808 444 123.265 444 118.618C443.984 112.391 441.503 106.424 437.1 102.021C432.697 97.6175 426.73 95.1368 420.503 95.1206Z" fill="#FF7759"/>
<path d="M180.595 234.787C179.156 234.803 177.728 234.539 176.389 234.01C175.145 233.526 174.003 232.813 173.022 231.907C172.072 231.029 171.301 229.974 170.753 228.801C170.195 227.598 169.906 226.288 169.906 224.962C169.906 223.636 170.195 222.326 170.753 221.123C171.292 219.943 172.064 218.884 173.022 218.008C174.011 217.123 175.152 216.423 176.389 215.94C179.089 214.905 182.075 214.905 184.774 215.94C186.024 216.418 187.177 217.119 188.177 218.008C189.132 218.886 189.903 219.945 190.446 221.123C190.998 222.328 191.284 223.637 191.284 224.962C191.284 226.287 190.998 227.597 190.446 228.801C189.894 229.972 189.124 231.026 188.177 231.907C187.186 232.817 186.031 233.53 184.774 234.01C183.444 234.534 182.025 234.797 180.595 234.787ZM173.536 258.755L191.807 237.448L208.647 215.295L212.599 218.785L194.913 239.725L177.463 262.271L173.536 258.755ZM180.595 230.45C181.206 230.449 181.806 230.293 182.34 229.997C183.494 229.346 184.372 228.298 184.809 227.048C185.044 226.372 185.162 225.66 185.158 224.945C185.199 223.535 184.714 222.16 183.797 221.088C183.413 220.596 182.922 220.197 182.361 219.922C181.801 219.647 181.185 219.503 180.56 219.5C179.95 219.503 179.35 219.659 178.815 219.954C178.264 220.27 177.772 220.677 177.358 221.158C176.917 221.672 176.577 222.264 176.355 222.903C176.116 223.569 175.995 224.272 175.997 224.98C175.963 226.396 176.447 227.777 177.358 228.862C177.741 229.356 178.232 229.755 178.793 230.03C179.354 230.306 179.97 230.449 180.595 230.45ZM205.601 262.446C204.16 262.457 202.73 262.193 201.387 261.669C200.149 261.185 199.008 260.482 198.019 259.593C197.067 258.729 196.296 257.685 195.751 256.521C195.199 255.312 194.913 253.998 194.913 252.669C194.913 251.34 195.199 250.026 195.751 248.817C196.302 247.644 197.072 246.587 198.019 245.702C199.002 244.799 200.144 244.086 201.387 243.599C204.098 242.564 207.096 242.564 209.807 243.599C211.06 244.088 212.213 244.8 213.21 245.702C214.173 246.572 214.946 247.633 215.478 248.817C216.014 250.031 216.29 251.343 216.29 252.669C216.29 253.996 216.014 255.308 215.478 256.521C214.951 257.696 214.178 258.743 213.21 259.593C211.113 261.451 208.403 262.467 205.601 262.446ZM205.601 258.083C206.213 258.085 206.814 257.928 207.347 257.629C207.896 257.316 208.389 256.912 208.804 256.434C209.245 255.921 209.586 255.329 209.807 254.689C210.047 254.023 210.168 253.32 210.165 252.612C210.172 251.873 210.039 251.139 209.772 250.449C209.536 249.815 209.197 249.226 208.769 248.704C208.372 248.216 207.875 247.82 207.312 247.543C206.773 247.262 206.174 247.115 205.567 247.116C204.956 247.117 204.356 247.273 203.822 247.569C203.269 247.883 202.776 248.29 202.364 248.773C201.918 249.283 201.577 249.876 201.361 250.518C201.119 251.193 200.998 251.905 201.003 252.621C200.965 254.031 201.45 255.405 202.364 256.478C202.745 256.978 203.234 257.384 203.795 257.667C204.356 257.95 204.973 258.101 205.601 258.109V258.083Z" fill="#FF6A59"/>
<path d="M340.182 101.508H162.711V114.203H340.182V101.508Z" fill="url(#paint27_linear_3189_2556)"/>
<path d="M340.182 91.0625H162.711V94.3519H340.182V91.0625Z" fill="url(#paint28_linear_3189_2556)"/>
<path d="M253.479 121.234H162.711V133.93H253.479V121.234Z" fill="url(#paint29_linear_3189_2556)"/>
<path opacity="0.95" d="M366.864 127.578H253.968C246.793 127.578 240.977 133.395 240.977 140.57V288.131C240.977 295.306 246.793 301.123 253.968 301.123H366.864C374.039 301.123 379.856 295.306 379.856 288.131V140.57C379.856 133.395 374.039 127.578 366.864 127.578Z" fill="url(#paint30_linear_3189_2556)"/>
<path d="M345.57 271.155C342.543 271.155 339.584 270.257 337.067 268.576C334.55 266.894 332.589 264.504 331.431 261.707C330.272 258.911 329.969 255.834 330.56 252.865C331.15 249.897 332.608 247.17 334.748 245.029C336.888 242.889 339.615 241.431 342.584 240.841C345.553 240.25 348.63 240.553 351.426 241.712C354.223 242.87 356.613 244.832 358.294 247.348C359.976 249.865 360.874 252.824 360.874 255.851C360.869 259.908 359.255 263.798 356.386 266.667C353.517 269.536 349.627 271.15 345.57 271.155ZM345.57 243.505C343.127 243.503 340.74 244.226 338.708 245.581C336.677 246.937 335.093 248.864 334.157 251.12C333.221 253.376 332.976 255.859 333.451 258.254C333.926 260.65 335.101 262.85 336.828 264.578C338.554 266.305 340.754 267.482 343.149 267.959C345.544 268.436 348.027 268.192 350.284 267.258C352.54 266.324 354.469 264.741 355.826 262.711C357.183 260.68 357.907 258.293 357.907 255.851C357.902 252.579 356.601 249.443 354.289 247.129C351.977 244.815 348.841 243.512 345.57 243.505Z" fill="#FF5458"/>
<path d="M344.595 261.87L337.641 254.916L339.735 252.822L344.595 257.682L351.409 250.867L353.503 252.961L344.595 261.87Z" fill="#FF5458"/>
<path d="M392.511 249.109H388.07V269.579H392.511V249.109Z" fill="#FF7759"/>
<path d="M396.866 249.109H394.641V269.579H396.866V249.109Z" fill="#FF7759"/>
<path d="M403.042 249.109H398.984V269.579H403.042V249.109Z" fill="#FF7759"/>
<path d="M407.669 249.109H405.234V269.579H407.669V249.109Z" fill="#FF7759"/>
<path d="M410.501 249.18H409.367V269.649H410.501V249.18Z" fill="#FF7759"/>
<path d="M416.023 249.109H412.141V269.579H416.023V249.109Z" fill="#FF7759"/>
<path d="M420.534 249.109H417.594V269.579H420.534V249.109Z" fill="#FF7759"/>
<path d="M423.411 249.109H421.945V269.579H423.411V249.109Z" fill="#FF7759"/>
<path d="M429.249 249.109H425.078V269.579H429.249V249.109Z" fill="#FF7759"/>
<path d="M433.427 249.109H430.312V269.579H433.427V249.109Z" fill="#FF7759"/>
<path d="M436.319 249.109H434.766V269.579H436.319V249.109Z" fill="#FF7759"/>
<path d="M439.701 249.109H437.555V269.579H439.701V249.109Z" fill="#FF7759"/>
<path d="M448.041 249.203H441.227V269.672H448.041V249.203Z" fill="#FF7759"/>
<path d="M170.555 21.8438V59.4756C170.555 59.4756 178.058 70.0767 187.01 59.4756H203.475C203.475 59.4756 210.97 70.0767 219.931 59.4756H236.395C236.395 59.4756 243.89 70.0767 252.851 59.4756H269.307C269.307 59.4756 276.81 70.0767 285.771 59.4756H302.227C302.227 59.4756 309.731 70.0767 318.691 59.4756H335.147C335.147 59.4756 342.651 70.0767 351.603 59.4756H368.067C368.067 59.4756 375.571 70.0767 384.523 59.4756H400.988C400.988 59.4756 408.482 70.0767 417.443 59.4756H433.908C433.908 59.4756 441.403 70.0767 450.363 59.4756V21.8438H170.555Z" fill="url(#paint31_linear_3189_2556)"/>
<path d="M186.969 59.4756C186.969 59.4756 194.472 70.0767 203.433 59.4756V21.8438H186.969V59.4756Z" fill="#38D2E0"/>
<path d="M219.891 59.4756C219.891 59.4756 227.394 70.0767 236.355 59.4756V21.8438H219.891V59.4756Z" fill="#38D2E0"/>
<path d="M252.812 59.4756C252.812 59.4756 260.316 70.0767 269.268 59.4756V21.8438H252.812V59.4756Z" fill="#38D2E0"/>
<path d="M285.727 59.4756C285.727 59.4756 293.23 70.0767 302.182 59.4756V21.8438H285.727V59.4756Z" fill="#38D2E0"/>
<path d="M318.648 59.4756C318.648 59.4756 326.143 70.0767 335.104 59.4756V21.8438H318.648V59.4756Z" fill="#38D2E0"/>
<path d="M351.562 59.4756C351.562 59.4756 359.066 70.0767 368.027 59.4756V21.8438H351.562V59.4756Z" fill="#38D2E0"/>
<path d="M384.484 59.4756C384.484 59.4756 391.988 70.0767 400.949 59.4756V21.8438H384.484V59.4756Z" fill="#38D2E0"/>
<path d="M417.398 21.8438V59.4756C417.398 59.4756 424.902 70.0767 433.863 59.4756V21.8438H417.398Z" fill="#38D2E0"/>
<path d="M336.335 153.398L334.006 163.572H274.578V165.893L283.129 205.593V206.753H287.971L289.202 211.892H290.947C289.984 212.244 289.175 212.924 288.663 213.812C288.151 214.7 287.969 215.74 288.147 216.75C288.326 217.76 288.854 218.674 289.64 219.333C290.425 219.992 291.418 220.353 292.443 220.353C293.468 220.353 294.461 219.992 295.246 219.333C296.032 218.674 296.56 217.76 296.739 216.75C296.917 215.74 296.735 214.7 296.223 213.812C295.711 212.924 294.902 212.244 293.939 211.892H318.37C317.407 212.244 316.598 212.924 316.086 213.812C315.575 214.7 315.392 215.74 315.57 216.75C315.749 217.76 316.277 218.674 317.063 219.333C317.849 219.992 318.841 220.353 319.866 220.353C320.892 220.353 321.884 219.992 322.67 219.333C323.455 218.674 323.984 217.76 324.162 216.75C324.341 215.74 324.158 214.7 323.646 213.812C323.134 212.924 322.326 212.244 321.363 211.892H323.291V210.06H290.65L289.856 206.753H326.737V205.628L333.718 173.17L337.784 155.266H362.703V153.433L336.335 153.398ZM294.995 216.002C294.995 216.499 294.848 216.985 294.572 217.398C294.296 217.811 293.903 218.133 293.444 218.323C292.985 218.514 292.479 218.563 291.992 218.466C291.505 218.369 291.057 218.13 290.705 217.779C290.354 217.427 290.115 216.98 290.018 216.492C289.921 216.005 289.97 215.499 290.161 215.04C290.351 214.581 290.673 214.189 291.086 213.912C291.499 213.636 291.985 213.489 292.482 213.489C293.146 213.494 293.782 213.76 294.251 214.231C294.72 214.701 294.984 215.338 294.986 216.002H294.995ZM322.41 216.002C322.41 216.499 322.262 216.985 321.986 217.398C321.71 217.811 321.318 218.133 320.858 218.323C320.399 218.514 319.894 218.563 319.407 218.466C318.919 218.369 318.471 218.13 318.12 217.779C317.769 217.427 317.529 216.98 317.432 216.492C317.335 216.005 317.385 215.499 317.575 215.04C317.765 214.581 318.088 214.189 318.501 213.912C318.914 213.636 319.4 213.489 319.897 213.489C320.557 213.498 321.187 213.767 321.651 214.237C322.115 214.707 322.375 215.341 322.375 216.002H322.41ZM297.159 179.548H312.699L311.905 190.847H297.944L297.159 179.548ZM295.929 190.847H282.029L279.621 179.548H295.143L295.929 190.847ZM312.864 177.227H296.993L296.199 165.928H313.65L312.864 177.227ZM315.717 165.928H333.168L330.734 177.227H314.906L315.717 165.928ZM311.721 193.168L310.91 204.467H298.948L298.136 193.168H311.721ZM313.763 193.168H327.331L324.896 204.467H312.952L313.763 193.168ZM327.828 190.847H313.929L314.74 179.548H330.228L327.872 190.62L327.828 190.847ZM294.14 165.928L294.951 177.227H279.098L276.663 165.928H294.14ZM282.527 193.168H296.094L296.906 204.467H284.961L282.527 193.168Z" fill="#FF5458"/>
<path d="M317.379 281.383H303.453V283.154H317.379V281.383Z" fill="#FF5458"/>
<path d="M317.379 137.492H303.453V139.263H317.379V137.492Z" fill="#FF5458"/>
<path d="M295.937 248.031H261.516V252.629H295.937V248.031Z" fill="#FF5458"/>
<path d="M312.471 259.07H261.516V263.668H312.471V259.07Z" fill="#FF5458"/>
<path d="M448.048 173.422H394.641V190.977H448.048V173.422Z" fill="#FF6A59"/>
<path d="M448.048 195.82H394.641V206.256H448.048V195.82Z" fill="#FF6A59"/>
<path d="M418.853 252.41C418.46 253.049 418.19 253.757 418.059 254.496C417.849 255.355 417.527 256.182 417.099 256.956C416.586 258.285 416.195 259.657 415.93 261.057C416.184 261.954 416.368 262.87 416.479 263.797C416.392 264.39 416.052 265.542 416.584 265.646C417.116 265.751 417.718 264.774 417.718 264.774C417.705 264.924 417.736 265.076 417.807 265.209C417.878 265.342 417.987 265.452 418.12 265.524C418.318 265.653 418.548 265.726 418.784 265.735C419.021 265.744 419.255 265.689 419.463 265.577C419.463 265.577 419.786 266.179 420.196 266.257C420.573 266.103 420.98 266.036 421.387 266.062C421.793 266.088 422.189 266.205 422.543 266.405C422.776 266.396 423.003 266.326 423.2 266.202C423.398 266.078 423.559 265.905 423.669 265.699C423.669 265.699 424.664 265.908 424.96 265.437C425.15 264.996 425.271 264.528 425.318 264.05C425.419 261.658 424.986 259.274 424.053 257.07C423.688 256.197 423.529 255.253 423.586 254.309C423.644 253.365 423.917 252.447 424.384 251.625L418.853 252.41Z" fill="#EEA886"/>
<path d="M417.581 264.4C417.581 264.4 417.494 260.971 418.393 260.238C419.291 259.505 419.405 260.744 419.405 260.744C419.405 260.744 419.283 259.523 420.277 259.357C421.272 259.191 421.307 260.648 421.307 260.648C421.329 260.517 421.378 260.391 421.452 260.28C421.526 260.169 421.623 260.075 421.736 260.004C421.849 259.933 421.975 259.887 422.108 259.869C422.24 259.85 422.374 259.86 422.502 259.898C423.541 260.09 423.296 261.294 423.296 261.294C423.296 261.294 424.291 260.116 424.928 261.25C425.233 261.903 425.395 262.614 425.403 263.335C425.411 264.056 425.263 264.77 424.971 265.43C424.971 265.43 424.666 265.944 423.68 265.691C423.583 265.879 423.444 266.041 423.274 266.166C423.104 266.29 422.908 266.374 422.7 266.41C422.492 266.447 422.279 266.435 422.077 266.375C421.874 266.315 421.689 266.21 421.534 266.067C421.534 266.067 420.024 266.939 419.475 265.569C419.277 265.686 419.052 265.747 418.823 265.744C418.594 265.742 418.369 265.677 418.174 265.557C417.979 265.437 417.821 265.265 417.717 265.061C417.612 264.857 417.565 264.629 417.581 264.4Z" fill="#DB9C7C"/>
<path d="M407.188 202.933C407.188 202.933 413.068 222.53 415.04 229.763C415.66 232.032 417.169 253.679 417.431 254.551C417.693 255.424 425.162 256.619 425.162 256.619C425.162 256.619 424.289 229.527 424.176 228.053C424.062 226.578 415.939 196.328 413.575 195.246C411.829 194.443 410.861 195.107 408.627 196.773C405.504 199.103 407.188 202.933 407.188 202.933Z" fill="#323657"/>
<path d="M411.969 336.739C411.969 336.739 412.501 340.464 412.571 341.023C412.641 341.581 418.53 340.691 418.53 340.691L419.01 336.259C419.01 336.259 412.702 336.215 411.969 336.739Z" fill="#424773"/>
<path d="M412.511 340.542C411.459 341.798 410.22 342.884 408.837 343.762C407.031 344.739 404.187 345.132 403.122 346.144C402.355 346.868 400.313 350.018 407.817 349.948C415.32 349.878 418.941 350.393 419.744 349.189C420.547 347.985 418.575 340.289 418.575 340.289C418.575 340.289 416.804 340.935 412.511 340.542Z" fill="#292C47"/>
<path d="M369.719 336.739C369.719 336.739 370.26 340.464 370.329 341.023C370.399 341.581 376.289 340.691 376.289 340.691L376.769 336.259C376.769 336.259 370.46 336.215 369.719 336.739Z" fill="#424773"/>
<path d="M370.265 340.542C369.214 341.798 367.975 342.884 366.592 343.762C364.786 344.739 358.137 345.507 357.073 346.554C356.296 347.287 355.014 350.227 365.571 349.948C373.075 349.756 376.696 350.393 377.498 349.189C378.301 347.985 376.338 340.289 376.338 340.289C376.338 340.289 374.663 340.978 370.265 340.542Z" fill="#292C47"/>
<path d="M407.082 241.141C407.082 241.141 412.622 249.936 412.212 257.893C411.802 265.85 414.219 274.541 415.048 282.847C415.981 292.113 419.777 314.048 419.917 319.004C420.056 323.96 419.323 339.788 419.323 339.788L411.724 339.962C411.724 339.962 405.345 301.615 403.688 297.697C402.03 293.78 393.837 265.894 393.566 262.797C393.296 259.699 407.082 241.141 407.082 241.141Z" fill="#292C47"/>
<path d="M377.926 242.333C377.926 242.333 373.755 264.146 373.205 269.006C372.656 273.866 372.28 292.564 372.01 295.618C371.74 298.672 369.436 335.352 368.703 339.968H378.414C378.414 339.968 385.874 313.225 385.874 300.574C385.874 287.922 391.642 273.072 395.359 264.722C399.076 256.372 407.574 256.18 409.877 240.693C409.877 240.693 381.023 237.421 377.926 242.333Z" fill="#292C47"/>
<path d="M397.84 167.145C397.84 167.145 390.433 164.362 386.943 170.024C383.453 175.687 383.845 187.021 387.588 188.408C391.331 189.796 396.968 189.071 398.931 185.529C400.894 181.987 402.587 176.874 402.5 173.453C402.412 170.033 399.795 168.131 397.84 167.145Z" fill="#EEA886"/>
<path d="M388.438 188.673C388.606 189.672 388.538 190.697 388.238 191.665C387.723 192.66 397.835 192.686 397.835 192.686C398.386 189.322 399.194 186.006 400.252 182.766C401.779 178.211 388.438 188.673 388.438 188.673Z" fill="#EEA886"/>
<path d="M400.254 182.765C400.254 182.765 399.556 183.925 396.694 183.471C393.832 183.018 390.351 179.222 389.155 178.803C387.96 178.385 387.951 177.687 387.951 177.687L387.201 178.777L385.936 178.856C385.936 178.856 387.096 175.453 385.351 174.074C383.606 172.696 387.166 163.063 396.327 166.265C396.327 166.265 403.369 168.202 403.116 172.207C402.863 176.212 401.833 180.767 400.254 182.765Z" fill="#323657"/>
<path d="M387.633 191.557C387.633 191.557 387.633 189.663 388.505 189.48C389.378 189.297 397.963 188.477 399.019 188.887V191.086C399.019 191.086 396.995 192.368 387.633 191.557Z" fill="#E2D2CA"/>
<path d="M388.14 176.22C388.297 175.549 390.008 173.603 390.662 175.688C391.316 177.773 389.676 180.505 388.76 180.269C387.844 180.033 387.73 177.922 388.14 176.22Z" fill="#EEA886"/>
<path d="M353.513 213.867C353.469 213.893 353.46 213.893 353.513 213.867V213.867Z" fill="#323657"/>
<path d="M399.961 167.812C399.961 167.812 409.437 168.554 400.249 182.759L399.961 167.812Z" fill="#323657"/>
<path d="M335.346 170.701C335.457 170.409 335.634 170.146 335.862 169.933C336.09 169.72 336.364 169.562 336.663 169.471C337.072 169.01 337.601 168.672 338.19 168.493C338.207 168.448 338.227 168.404 338.251 168.363C337.579 167.638 335.634 166.295 335.512 166.033C335.389 165.771 335.407 165.693 335.791 165.483C336.175 165.274 339.281 167.385 340.354 168.101C340.531 168.208 340.703 168.325 340.869 168.45C341.363 168.725 341.831 169.047 342.265 169.41L342.422 169.593C342.954 170.273 344.167 175.7 344.167 175.7L341.977 176.66L339.822 178.475C339.822 178.475 337.318 176.407 336.681 175.762C336.219 175.244 335.845 174.655 335.573 174.017C335.508 173.907 335.435 173.802 335.354 173.702C335.067 173.31 334.63 172.83 334.63 172.83C334.458 172.496 334.34 172.137 334.281 171.765C334.342 171.094 335.346 170.701 335.346 170.701Z" fill="#EFAA88"/>
<path d="M373.414 194.417C379.313 193.641 387.636 191.556 387.636 191.556L399.032 191.084C399.032 191.084 409.502 193.388 413.603 195.246C413.995 195.43 413.995 204.582 415.068 206.982L411.657 214.18C411.657 214.18 409.676 228.454 409.275 234.798C409.083 237.712 413.341 262.116 413.341 262.116C409.294 263.177 405.168 263.912 401.003 264.315C393.229 265.188 373.798 264.001 373.676 263.085C373.554 262.169 377.437 228.882 377.611 227.163C377.873 224.546 376.695 210.463 376.695 210.463C374.906 209.067 359.14 201.738 354.838 197.934C353.687 196.913 348.827 192.184 347.448 190.552C342.562 184.767 338.548 179.811 338.06 178.738C337.51 178.136 343.373 174.943 343.906 174.768C344.438 174.594 350.982 183.179 353.503 185.937C355.371 187.586 357.322 189.138 359.349 190.587C359.349 190.587 369.724 194.627 373.414 194.417Z" fill="#323657"/>
<path d="M188.883 189.876C188.883 189.876 190.253 187.311 190.471 186.927C191.246 186.259 192.157 185.768 193.141 185.487C194.28 185.066 195.499 184.902 196.709 185.007C196.872 185.084 197.018 185.194 197.135 185.331C197.252 185.468 197.339 185.628 197.39 185.801C197.513 186.199 197.513 186.625 197.39 187.023C197.549 187.212 197.66 187.437 197.715 187.678C197.77 187.92 197.766 188.171 197.704 188.41C197.88 188.587 197.995 188.815 198.031 189.062C198.067 189.309 198.023 189.56 197.905 189.78C197.905 189.78 198.481 190.382 198.132 190.949C197.618 191.195 197.127 191.487 196.666 191.822C195.013 192.682 193.252 193.316 191.431 193.706C191.431 193.706 188.988 193.488 188.883 189.876Z" fill="#EEA886"/>
<path d="M192.874 188.875C192.83 189.505 192.704 190.127 192.498 190.725C192.254 191.109 195.299 192.365 195.299 192.365C195.299 192.365 194.636 189.041 192.874 188.875Z" fill="#CF8C6C"/>
<path d="M227.667 226.232L191.309 230.961L185.141 197.665L223.156 191.156L227.667 226.232Z" fill="#EB4747"/>
<path d="M209.263 194.435C209.141 190.945 207.893 186.756 205.179 184.532C204.205 183.769 203.074 183.23 201.868 182.954C200.661 182.678 199.409 182.672 198.199 182.935C192.292 183.886 191.891 190.055 193.095 194.4L209.263 194.435ZM193.723 193.614C192.711 188.99 193.619 184.47 198.339 183.711C199.436 183.469 200.573 183.47 201.669 183.716C202.765 183.962 203.794 184.446 204.682 185.134C207.047 187.071 208.172 190.657 208.434 193.649L193.723 193.614Z" fill="#23344A"/>
<path d="M210.691 194.434C210.569 190.944 209.007 186.756 206.329 184.531C205.354 183.769 204.223 183.23 203.016 182.954C201.81 182.678 200.558 182.672 199.348 182.934C193.441 183.885 194.113 190.054 195.326 194.399L210.691 194.434ZM195.902 193.614C194.899 188.989 194.724 184.47 199.453 183.711C200.55 183.469 201.687 183.471 202.783 183.716C203.879 183.962 204.908 184.446 205.796 185.133C208.223 187.348 209.748 190.38 210.08 193.649L195.902 193.614Z" fill="#23344A"/>
<path d="M222.057 231.576L179.617 228.304L183.029 193.918L222.467 192.758L222.057 231.576Z" fill="#9E4CC7"/>
<path d="M103.511 212.543C103.511 212.543 103.86 209.655 103.895 209.21C103.649 208.217 103.187 207.291 102.543 206.496C101.861 205.501 100.967 204.67 99.9254 204.062C99.7485 204.027 99.5661 204.032 99.3912 204.076C99.2163 204.12 99.0531 204.201 98.9133 204.315C98.5812 204.561 98.3268 204.897 98.1804 205.283C97.9359 205.337 97.7081 205.449 97.5166 205.61C97.3251 205.771 97.1756 205.977 97.081 206.208C96.8479 206.279 96.6408 206.417 96.4856 206.605C96.3304 206.792 96.234 207.022 96.2085 207.264C96.2085 207.264 95.4057 207.439 95.3359 208.093C95.6143 208.592 95.8478 209.115 96.034 209.655C96.8736 211.297 97.9333 212.818 99.1838 214.174C99.1838 214.174 101.356 215.44 103.511 212.543Z" fill="#EEA886"/>
<path d="M108.195 216.529C108.536 213.868 108.195 210.422 106.45 208.345C105.879 207.692 105.171 207.172 104.376 206.824C103.581 206.475 102.72 206.307 101.852 206.33C100.681 206.253 99.5068 206.434 98.4126 206.859C97.3183 207.284 96.3303 207.943 95.5175 208.79C93.249 211.259 92.6295 215.395 92.9698 218.702L108.195 216.529ZM93.6067 217.847C93.4671 214.968 94.0517 211.451 96.0236 209.296C96.7757 208.53 97.6864 207.937 98.6918 207.561C99.6971 207.184 100.773 207.032 101.843 207.115C102.596 207.098 103.344 207.245 104.034 207.547C104.724 207.848 105.34 208.296 105.839 208.86C107.349 210.605 107.715 213.615 107.515 215.901L93.6067 217.847Z" fill="#23344A"/>
<path d="M76.6484 255.741L79.4318 219.906L85.6529 255.243L81.3513 254.493L76.6484 255.741Z" fill="#3F74A0"/>
<path d="M85.653 255.246L122.569 248.754L116.523 214.359L79.3359 219.647L85.653 255.246Z" fill="#5B83C2"/>
<path d="M125.186 224.229C125.788 225.974 125.186 228.199 124.453 229.865H125.116C125.902 228.12 126.408 225.843 125.771 223.984L125.186 224.229Z" fill="#23344A"/>
<path d="M97.9453 256.617L128.204 260.552L133.352 232.824L101.715 227.414L97.9453 256.617Z" fill="#EB4747"/>
<path d="M91.7812 255.743L101.693 227.43L97.9412 256.441L94.7304 255.246L91.7812 255.743Z" fill="#AD3434"/>
<path d="M125.836 223.432C126.909 225.561 126.386 228.449 126.194 229.295L126.813 229.522C127.023 228.65 127.686 225.159 126.15 222.664L125.836 223.432Z" fill="#23344A"/>
<path d="M94.7344 259.981L101.462 229.391L102.613 260.871L98.9399 259.466L94.7344 259.981Z" fill="#B06E2A"/>
<path d="M99.1875 214.173C99.1875 214.173 101.447 216.188 102.617 216.223C103.786 216.258 104.362 213.056 104.362 213.056L103.376 211.102L99.1875 214.173Z" fill="#EEA886"/>
<path d="M187.346 191.7C187.973 191.107 188.521 190.435 188.978 189.702C189.475 188.778 191.735 193.664 191.735 193.664C191.735 193.664 188.925 193.777 187.686 194.65C186.447 195.522 187.346 191.7 187.346 191.7Z" fill="#EEA886"/>
<path d="M196.354 185.133C196.354 185.133 193.013 186.529 193.17 187.096C193.195 187.246 193.259 187.387 193.355 187.505C193.451 187.623 193.577 187.713 193.719 187.768L192.602 188.963C192.602 188.963 192.315 190.176 193.719 190.141C193.719 190.141 193.327 191.24 194.679 191.013C194.679 191.013 194.74 191.886 195.386 191.886C196.34 191.678 197.266 191.356 198.143 190.926C198.143 190.926 198.492 190.516 197.968 189.757C198.092 189.537 198.146 189.285 198.123 189.034C198.099 188.783 198 188.545 197.838 188.352C197.904 188.113 197.904 187.86 197.837 187.62C197.771 187.38 197.642 187.163 197.462 186.991C197.462 186.991 197.925 185.482 196.712 184.984L196.354 185.133Z" fill="#DB9C7C"/>
<path d="M190.622 186.875C191.922 186.966 193.2 187.26 194.408 187.748C194.696 187.913 194.958 188.123 194.923 188.454C194.888 188.786 194.356 189.161 193.274 189.126C192.43 189.149 191.593 189.29 190.787 189.545C190.787 189.545 189.644 189.213 190.622 186.875Z" fill="#EEA886"/>
<path d="M100.847 209.396C100.518 209.94 100.265 210.528 100.096 211.141C100.096 211.604 96.8594 210.879 96.8594 210.879C96.8594 210.879 99.285 208.55 100.847 209.396Z" fill="#CF8C6C"/>
<path d="M100.12 204.368C100.12 204.368 102.065 207.421 101.603 207.797C101.493 207.912 101.353 207.995 101.2 208.036C101.046 208.078 100.883 208.076 100.73 208.032L100.957 209.655C100.957 209.655 100.504 210.816 99.378 209.978C99.378 209.978 99.0639 211.104 98.0692 210.17C98.0692 210.17 97.5282 210.816 96.996 210.467C96.3174 209.752 95.7311 208.954 95.2509 208.093C95.2509 208.093 95.1899 207.561 96.0537 207.221C96.0815 206.968 96.1846 206.73 96.3495 206.537C96.5145 206.344 96.7336 206.206 96.9785 206.139C97.0654 205.911 97.2114 205.71 97.4015 205.556C97.5916 205.403 97.819 205.303 98.0605 205.266C98.0605 205.266 98.5578 203.766 99.8055 204.062C99.9165 204.157 100.021 204.259 100.12 204.368Z" fill="#DB9C7C"/>
<path d="M103.847 209.11C102.728 208.441 101.508 207.955 100.235 207.671C99.9035 207.627 99.5719 207.671 99.4149 207.95C99.2578 208.229 99.4672 208.823 100.366 209.442C101.044 209.937 101.649 210.524 102.163 211.187C102.163 211.187 103.263 211.554 103.847 209.11Z" fill="#EEA886"/>
<path d="M143.586 342.849C141.841 343.372 141.335 346.339 139.861 347.211C138.386 348.084 131.197 348.686 130.944 346.426C130.691 344.166 133.954 342.159 135.428 341.034C136.903 339.908 140.21 336.209 140.882 334.734C140.882 334.734 141.475 335.677 143.237 335.389C145 335.101 145.253 334.586 145.253 334.586C145.268 335.839 145.513 337.078 145.977 338.242C146.13 338.701 146.188 339.186 146.15 339.668C146.112 340.151 145.977 340.621 145.754 341.05C145.532 341.479 145.225 341.86 144.852 342.169C144.48 342.478 144.05 342.709 143.586 342.849Z" fill="#3F74A0"/>
<path d="M155.328 343.254C153.993 344.467 153.74 346.412 152.265 347.276C151.555 347.618 150.795 347.848 150.014 347.957C148.217 348.279 145.931 348.349 144.779 347.695C144.601 347.605 144.446 347.473 144.329 347.31C144.212 347.148 144.136 346.959 144.107 346.761C143.854 344.51 147.187 341.989 148.662 340.863C149.768 339.779 150.656 338.494 151.28 337.076C151.742 336.151 152.152 335.279 152.396 334.712C152.474 334.837 152.578 334.945 152.702 335.026C152.982 335.194 153.293 335.306 153.616 335.354C153.94 335.402 154.269 335.385 154.586 335.305C155.344 335.245 156.072 334.987 156.698 334.555C156.986 335.968 157.44 337.399 157.614 338.045C158.338 340.366 156.593 342.102 155.328 343.254Z" fill="#3F74A0"/>
<path d="M142.635 165.487C142.635 165.487 148.262 164.903 150.287 170.33C152.311 175.757 154.222 177.537 154.457 180.399C155.426 191.933 160.818 189.324 159.3 195.982C157.782 202.639 156.735 203.634 156.735 203.634L143.83 201.086L130.742 201.13C130.742 201.13 135.855 198.573 134.712 193.146C133.569 187.719 130.742 178.811 132.348 172.746C133.953 166.682 139.258 165.95 142.635 165.487Z" fill="#223247"/>
<path d="M102.617 260.879L135.267 259.736L135.86 229.25H101.5L102.617 260.879Z" fill="#FAA146"/>
<path d="M236.227 223.797L223.156 191.156L227.667 226.232L231.48 223.998L236.227 223.797Z" fill="#AD3434"/>
<path d="M231.53 230.494L222.465 192.758L222.055 231.576L226.47 229.884L231.53 230.494Z" fill="#5B2C73"/>
<path d="M133.338 242.97C133.338 242.97 128.592 259.461 127.806 263.675C127.021 267.89 124.665 288.307 124.412 291.779C124.159 295.252 132.151 311.533 132.588 312.72C134.272 317.266 141.165 333.748 141.165 333.748C141.165 333.748 145.614 336.365 145.117 332.517C143.608 320.747 142.892 317.841 141.836 311.734C139.515 298.358 134.717 296.604 135.45 294.65C142.875 274.922 144.367 261.494 145.361 260.386C146.356 259.278 146.487 260.971 147.063 263.536C147.639 266.101 146.836 283.735 147.874 290.584C148.441 294.292 149.715 302.599 150.134 307.397C150.553 312.196 152.708 334.376 152.708 334.376C152.708 334.376 152.996 335.248 156.303 333.372C156.852 333.067 159.47 313.758 159.557 308.069C159.645 302.38 157.114 301.552 159.138 290.505C163.501 266.834 162.873 262.759 157.821 245.745C145.414 204.073 133.338 242.97 133.338 242.97Z" fill="#EEA886"/>
<path d="M191.157 194.576C190.957 194.366 178.942 203.58 177.616 204.339C174.998 205.831 172.232 205.753 169.309 205.936C166.037 206.137 162.329 205.788 159.11 206.433C157.452 206.765 157.251 207.201 156.387 208.972C154.023 213.789 153.264 219.783 152.95 225.079C152.618 230.602 154.738 234.441 156.963 239.319C157.722 240.968 158.787 242.678 157.321 244.187C156.003 245.557 153.412 245.828 151.676 246.055C147.418 246.613 140.891 246.927 136.79 245.261C131.773 243.193 132.672 236.876 132.14 232.469C131.782 229.52 130.351 225.097 129.522 222.235C128.803 219.983 128.551 217.608 128.781 215.255C127.219 219.696 125.901 227.295 121.687 230.087C118.424 232.269 115.518 229.337 113.171 227.304L99.8828 215.691L102.719 213.073C103.033 212.785 103.05 212.707 103.399 212.428C104.272 211.764 104.141 211.555 104.996 212.105C105.572 212.497 107.107 213.92 107.613 214.373C109.228 215.874 110.641 216.781 112.246 218.282C113.651 219.582 116.051 222.601 118.197 221.554C119.846 220.734 120.3 217.375 120.867 215.874C122.446 211.703 124.034 207.515 125.919 203.467C127.926 199.104 132.384 196.844 136.703 195.117C140.446 193.625 145.428 193.93 149.25 194.89C151.868 195.57 152.862 195.614 155.515 196.347C158.167 197.08 160.41 197.952 162.984 198.485C165.983 199.063 169.03 199.355 172.084 199.357C174.483 199.357 175.478 198.982 177.494 197.612C180.216 195.728 184.186 192.473 187.17 190.964C189.037 189.951 189.691 193.075 191.157 194.576Z" fill="#F0DDD5"/>
<path d="M146.505 188.05C146.505 188.05 146.06 193.669 147.142 195.353C148.224 197.037 146.217 199.315 142.082 198.538C137.946 197.761 138.19 195.406 138.19 195.406C138.843 193.394 139.118 191.279 139.002 189.167C138.67 186.401 146.505 188.05 146.505 188.05Z" fill="#EEA886"/>
<path d="M149.196 194.878C149.196 194.878 145.461 203.604 140.636 205.41C140.636 205.41 135.872 201.178 137.146 194.939C137.155 194.913 143.297 191.772 149.196 194.878Z" fill="#EEA886"/>
<path d="M143.359 168.67C143.359 168.67 150.81 169.743 149.719 180.746C148.629 191.748 142.05 190.867 141.614 190.858C141.177 190.85 135.017 191.085 134.485 177.666C134.485 177.666 134.241 167.745 143.359 168.67Z" fill="#EEA886"/>
<path d="M142.515 172.651C142.515 172.651 146.006 176.307 147.611 178.165C149.216 180.024 149.408 183.592 149.408 183.592C149.408 183.592 152.131 180.268 150.996 176.394C149.862 172.52 147.166 164.981 140.343 167.302C133.52 169.623 133.267 179.805 134.069 184.857C134.069 184.857 137.132 173.707 142.515 172.651Z" fill="#223247"/>
<path d="M139.641 190.394C140.692 190.842 141.846 190.992 142.977 190.829C144.108 190.666 145.172 190.195 146.054 189.469C145.684 190.059 145.188 190.561 144.601 190.936C144.014 191.312 143.351 191.553 142.66 191.641C142.091 191.714 141.514 191.638 140.984 191.419C140.455 191.2 139.992 190.846 139.641 190.394Z" fill="#A77860"/>
<path d="M119.185 220.508C118.951 220.948 118.589 221.306 118.147 221.537C114.736 223.37 114.142 227.706 114.029 229.242H113.305C113.898 221.241 119.185 220.508 119.185 220.508Z" fill="#23344A"/>
<path d="M118.987 220.555C118.987 220.555 113.491 220.816 111.938 229.158L112.505 229.245C112.505 229.245 113.578 223.137 117.967 221.453C118.382 221.252 118.735 220.941 118.987 220.555Z" fill="#23344A"/>
<path d="M157.902 241.523C157.902 241.523 165.424 257.106 160.363 288.718C160.363 288.718 145.024 287.278 122.016 285.629C122.016 285.629 132.486 243.12 132.774 240.415C133.062 237.71 157.902 241.523 157.902 241.523Z" fill="#F0DDD5"/>
<path d="M140.996 333.425C141.637 333.827 142.396 333.998 143.148 333.91C143.899 333.823 144.599 333.483 145.132 332.945L145.254 334.586C145.254 334.586 141.86 337.639 140.961 334.359L140.996 333.425Z" fill="#EEA886"/>
<path d="M153.303 333.146C153.303 333.146 154.586 334.307 156.523 332.57L156.776 334.507C156.776 334.507 153.469 337.884 152.57 334.603L153.303 333.146Z" fill="#EEA886"/>
<path d="M140.996 334.375C140.996 334.375 139.251 336.486 139.4 336.835C139.548 337.184 143.431 337.961 144.015 337.132C144.502 336.321 144.916 335.468 145.254 334.584C145.254 334.584 141.921 336.103 140.996 334.375Z" fill="#3F74A0"/>
<path d="M152.675 334.336C152.675 334.336 151.026 336.657 151.2 337.006C151.375 337.355 154.795 337.878 155.38 337.084C155.902 336.259 156.369 335.399 156.776 334.51C156.776 334.51 153.6 336.064 152.675 334.336Z" fill="#3F74A0"/>
<path d="M132.545 238.163C132.545 238.163 141.585 241.513 154.638 234.141C154.638 234.141 155.152 235.205 155.737 236.662C155.737 236.662 143.845 244.009 132.772 240.414C132.592 239.678 132.515 238.92 132.545 238.163Z" fill="#FF4D4D"/>
<path d="M129.951 207.633C128.904 210.329 128.791 215.215 128.791 215.215C128.791 215.215 128.459 216.489 127.918 218.016C127.805 210.756 129.951 207.633 129.951 207.633Z" fill="#AD3434"/>
<path d="M141.89 195.525C141.465 195.524 141.042 195.483 140.625 195.402C139.813 195.295 139.056 194.935 138.461 194.373L138.653 193.675C139.278 194.179 140.019 194.52 140.808 194.669C142.832 194.938 144.883 194.44 146.558 193.273L146.846 193.945C145.377 194.931 143.658 195.478 141.89 195.525Z" fill="#C43B3B"/>
<path d="M165.001 78.1237L147.595 81.3869C146.6 81.5747 145.699 82.0946 145.038 82.8615L105.53 128.547C104.757 129.444 104.371 130.611 104.457 131.792C104.544 132.974 105.096 134.072 105.993 134.846L122.684 149.278C123.58 150.053 124.747 150.44 125.928 150.355C127.109 150.27 128.208 149.719 128.984 148.824L168.483 103.13C169.147 102.367 169.531 101.401 169.573 100.39L170.28 82.6957C170.309 82.0249 170.186 81.3563 169.92 80.7398C169.654 80.1233 169.252 79.5748 168.745 79.1352C168.237 78.6957 167.637 78.3764 166.989 78.2013C166.341 78.0261 165.661 77.9996 165.001 78.1237ZM167.514 84.2314C167.205 84.5896 166.797 84.8481 166.341 84.9742C165.885 85.1002 165.402 85.0881 164.953 84.9395C164.504 84.7908 164.109 84.5122 163.818 84.139C163.527 83.7658 163.354 83.3147 163.32 82.8428C163.285 82.371 163.392 81.8996 163.626 81.4883C163.86 81.077 164.21 80.7444 164.633 80.5325C165.056 80.3205 165.532 80.2388 166.002 80.2978C166.471 80.3567 166.913 80.5536 167.27 80.8634C167.732 81.2749 168.016 81.8501 168.062 82.4674C168.108 83.0846 167.911 83.6954 167.514 84.1703V84.2314Z" fill="#EEECF0"/>
<path d="M131.04 132.025C130.468 132.694 129.787 133.261 129.024 133.7C128.317 134.127 127.53 134.406 126.712 134.52L126.101 131.964C126.3 131.989 126.502 131.974 126.695 131.92C127.013 131.854 127.325 131.76 127.628 131.641C128.003 131.493 128.361 131.303 128.693 131.074C129.068 130.831 129.409 130.537 129.705 130.201C130.105 129.785 130.357 129.248 130.42 128.674C130.43 128.46 130.389 128.247 130.301 128.051C130.213 127.856 130.081 127.684 129.914 127.549C129.758 127.402 129.553 127.318 129.338 127.313C129.093 127.317 128.851 127.364 128.623 127.453C128.336 127.563 128.058 127.697 127.794 127.854C127.489 128.029 127.166 128.221 126.825 128.448C126.189 128.886 125.466 129.183 124.705 129.32C124.389 129.357 124.069 129.324 123.767 129.223C123.465 129.122 123.19 128.956 122.96 128.735C122.436 128.294 122.024 127.735 121.756 127.104C121.514 126.512 121.398 125.876 121.416 125.237C121.436 124.581 121.581 123.935 121.843 123.335C122.114 122.7 122.482 122.111 122.934 121.589C123.431 120.997 124.042 120.51 124.731 120.159C125.313 119.86 125.937 119.651 126.581 119.539L127.105 122C126.946 121.973 126.784 121.973 126.625 122C126.365 122.053 126.11 122.132 125.866 122.235C125.56 122.356 125.268 122.508 124.993 122.689C124.698 122.878 124.434 123.11 124.208 123.378C123.796 123.785 123.545 124.327 123.501 124.905C123.503 125.138 123.557 125.367 123.658 125.577C123.759 125.787 123.905 125.971 124.086 126.118C124.225 126.242 124.398 126.321 124.583 126.345C124.788 126.365 124.995 126.335 125.185 126.257C125.434 126.165 125.674 126.048 125.901 125.908L126.773 125.35C127.152 125.092 127.548 124.862 127.96 124.661C128.309 124.487 128.683 124.366 129.068 124.303C129.417 124.245 129.775 124.266 130.115 124.364C130.49 124.481 130.835 124.677 131.127 124.94C131.65 125.362 132.061 125.905 132.326 126.523C132.591 127.14 132.7 127.813 132.645 128.482C132.589 129.119 132.408 129.739 132.113 130.306C131.83 130.923 131.47 131.5 131.04 132.025Z" fill="#78C2FF"/>
<path d="M137.51 124.598C137.201 124.973 136.81 125.272 136.367 125.471C135.958 125.653 135.514 125.743 135.067 125.732C134.601 125.718 134.141 125.614 133.714 125.427C133.246 125.218 132.811 124.942 132.423 124.607C131.848 124.12 131.371 123.528 131.018 122.862C130.67 122.216 130.439 121.512 130.338 120.785C130.238 120.093 130.271 119.389 130.434 118.709C130.577 118.048 130.876 117.432 131.306 116.911C131.685 116.471 132.196 116.165 132.763 116.039C133.298 115.92 133.856 115.972 134.36 116.187L133.374 114.87L134.944 113.055L139.01 118.412C139.07 118.504 139.14 118.589 139.22 118.665C139.412 118.831 139.604 118.805 139.804 118.595L141.07 120.262L140.764 120.742C140.693 120.862 140.611 120.976 140.52 121.082C140.3 121.364 139.993 121.566 139.647 121.658C139.493 121.694 139.332 121.691 139.18 121.649C139.027 121.606 138.888 121.525 138.775 121.413C138.606 121.254 138.457 121.076 138.33 120.881C138.487 121.573 138.487 122.292 138.33 122.984C138.181 123.577 137.901 124.129 137.51 124.598ZM136.637 122.452C136.78 122.282 136.895 122.091 136.977 121.885C137.074 121.654 137.136 121.41 137.161 121.16C137.187 120.899 137.187 120.636 137.161 120.375C137.136 120.111 137.084 119.851 137.004 119.599L135.608 117.784C135.199 117.502 134.707 117.367 134.212 117.4C133.987 117.41 133.767 117.465 133.564 117.562C133.362 117.66 133.181 117.798 133.034 117.967C132.785 118.267 132.614 118.623 132.536 119.005C132.453 119.408 132.453 119.824 132.536 120.227C132.609 120.651 132.75 121.061 132.955 121.44C133.155 121.823 133.424 122.166 133.749 122.452C134.161 122.831 134.691 123.057 135.25 123.089C135.521 123.106 135.792 123.057 136.04 122.946C136.287 122.835 136.504 122.665 136.672 122.452H136.637Z" fill="#78C2FF"/>
<path d="M143.845 117.22C143.54 117.616 143.104 117.891 142.615 117.996C142.391 118.021 142.164 117.996 141.952 117.922C141.739 117.848 141.545 117.727 141.385 117.569L141.149 117.35L140.914 117.071L134.195 108.189L135.748 106.383L141.969 114.576C142.005 114.624 142.042 114.671 142.083 114.715L142.214 114.838C142.281 114.913 142.364 114.972 142.458 115.01C142.551 115.047 142.652 115.063 142.752 115.055C142.853 115.048 142.95 115.017 143.037 114.966C143.124 114.914 143.197 114.844 143.252 114.759C143.349 114.638 143.431 114.507 143.496 114.366C143.574 114.21 143.635 114.046 143.68 113.878L145.015 115.125C144.894 115.519 144.727 115.897 144.517 116.251C144.326 116.595 144.1 116.919 143.845 117.22Z" fill="#78C2FF"/>
<path d="M148.744 111.635C148.396 112.057 147.965 112.405 147.478 112.655C147.038 112.878 146.555 113.005 146.061 113.028C145.568 113.051 145.076 112.968 144.617 112.786C144.112 112.578 143.648 112.283 143.247 111.914C142.67 111.42 142.204 110.81 141.877 110.125C141.549 109.454 141.356 108.724 141.31 107.979C141.26 107.22 141.355 106.459 141.589 105.736C141.834 104.97 142.235 104.263 142.767 103.66C143.296 102.983 144.031 102.496 144.861 102.272C145.226 102.191 145.605 102.202 145.964 102.304C146.324 102.406 146.652 102.596 146.92 102.857C148.45 104.172 148.034 106.193 145.672 108.921L145.236 109.418C145.08 109.601 144.914 109.776 144.739 109.942L144.922 110.09C145.313 110.47 145.819 110.71 146.362 110.771C146.619 110.783 146.876 110.732 147.109 110.62C147.342 110.509 147.544 110.342 147.697 110.134C148.007 109.777 148.223 109.348 148.325 108.886C148.43 108.427 148.412 107.949 148.272 107.499L149.956 106.452C150.072 106.882 150.133 107.324 150.14 107.769C150.139 108.23 150.086 108.69 149.983 109.139C149.875 109.592 149.717 110.031 149.511 110.448C149.308 110.875 149.05 111.274 148.744 111.635ZM143.805 105.108C143.586 105.363 143.419 105.66 143.316 105.981C143.221 106.285 143.177 106.604 143.186 106.923C143.195 107.249 143.25 107.572 143.351 107.883C143.452 108.189 143.589 108.482 143.761 108.755C143.892 108.624 144.014 108.485 144.137 108.354L144.494 107.926C144.813 107.561 145.105 107.174 145.367 106.766C145.551 106.498 145.696 106.204 145.794 105.893C145.855 105.673 145.855 105.441 145.794 105.222C145.739 105.03 145.626 104.859 145.472 104.733C145.359 104.622 145.218 104.544 145.064 104.507C144.911 104.471 144.75 104.476 144.599 104.524C144.284 104.638 144.008 104.841 143.805 105.108Z" fill="#78C2FF"/>
<path d="M167.335 81.1218L167.195 80.5633C168.28 80.235 169.322 79.7811 170.301 79.2109L170.589 79.7083C169.567 80.3119 168.474 80.7867 167.335 81.1218Z" fill="#E6E6E6"/>
<path d="M380.452 127.421L379.902 127.237C380.696 124.899 381.386 122.744 382.022 120.641L382.581 120.807C381.944 122.918 381.246 125.082 380.452 127.421ZM384.457 114.106L383.89 113.966C384.483 111.645 384.998 109.368 385.417 107.213L385.984 107.318C385.565 109.473 385.05 111.776 384.457 114.106ZM387.074 100.442L386.499 100.381C386.778 97.9991 386.935 95.6782 386.978 93.4882H387.563C387.511 95.7044 387.345 98.0428 387.066 100.442H387.074ZM386.69 86.5953C386.443 84.3101 386.011 82.0487 385.399 79.8332L385.958 79.6762C386.58 81.9227 387.018 84.2164 387.266 86.5342L386.69 86.5953ZM175.907 75.1391L175.453 74.7813C176.856 72.9631 177.89 70.8884 178.498 68.6737L179.057 68.8307C178.432 71.1203 177.362 73.264 175.907 75.1391ZM382.904 73.394C381.853 71.3577 380.58 69.444 379.108 67.6877L379.553 67.3126C381.071 69.1128 382.38 71.0798 383.453 73.1759L382.904 73.394ZM374.179 62.9238C372.366 61.5162 370.43 60.2751 368.394 59.2156L368.664 58.7008C370.729 59.7777 372.694 61.0362 374.536 62.4614L374.179 62.9238ZM179.92 61.8855H179.345C179.41 59.5494 179.608 57.2189 179.938 54.9053L180.505 54.9838C180.182 57.2895 179.984 59.6108 179.912 61.9378L179.92 61.8855ZM362.077 56.4846C359.907 55.7169 357.696 55.0702 355.454 54.5476L355.585 53.9892C357.847 54.5136 360.078 55.1632 362.269 55.9349L362.077 56.4846ZM348.666 53.265C346.476 52.9421 344.164 52.6891 341.791 52.5059L341.834 51.9213C344.225 52.1133 346.546 52.375 348.745 52.6891L348.666 53.265ZM334.871 51.9562C332.481 51.7206 330.16 51.4327 327.987 51.0837L328.075 50.5078C330.238 50.8481 332.551 51.136 334.924 51.3803L334.871 51.9562ZM321.173 49.7836C318.835 49.2427 316.583 48.6057 314.481 47.9077L314.664 47.358C316.749 48.056 319.026 48.6755 321.304 49.2165L321.173 49.7836ZM181.761 48.1869L181.203 48.056C181.727 45.77 182.355 43.5102 183.07 41.3376L183.62 41.5208C182.904 43.7283 182.276 45.9707 181.753 48.2393L181.761 48.1869ZM308.024 45.3425C305.917 44.3536 303.877 43.2286 301.916 41.9746L302.23 41.4947C304.161 42.7322 306.173 43.8399 308.251 44.8102L308.024 45.3425ZM296.306 37.9261C294.395 36.373 292.589 34.7501 291.071 33.3715L291.464 32.944C292.973 34.3138 294.77 35.928 296.699 37.4723L296.306 37.9261ZM186.08 35.1078L185.548 34.881C186.487 32.7512 187.548 30.677 188.724 28.6686L189.222 28.9653C188.058 30.9514 187.01 33.0022 186.08 35.1078ZM285.958 28.721C284.003 26.9759 282.328 25.5712 280.67 24.2798L281.019 23.8174C282.695 25.1262 284.387 26.5397 286.342 28.2934L285.958 28.721ZM193.096 23.2503L192.633 22.8925C194.065 21.0542 195.634 19.3275 197.327 17.7272L197.72 18.1547C196.05 19.7318 194.504 21.4354 193.096 23.2503ZM275.043 20.2924C273.132 19.0709 271.125 17.9191 269.066 16.8634L269.328 16.3486C271.404 17.4131 273.428 18.5735 275.357 19.8387L275.043 20.2924ZM262.827 14.0015C260.777 13.129 258.587 12.3786 256.345 11.6457L256.519 11.096C258.779 11.829 260.978 12.6317 263.046 13.4693L262.827 14.0015ZM203.129 13.8532L202.798 13.3733C204.735 12.0756 206.778 10.9432 208.906 9.98793L209.141 10.5202C207.034 11.4561 205.011 12.5712 203.095 13.8532H203.129ZM249.713 9.71745C247.968 9.25501 246.075 8.84493 244.182 8.39995L242.978 8.14691L243.091 7.57977L244.304 7.8328C246.206 8.25161 248.073 8.70532 249.853 9.15903L249.713 9.71745ZM215.58 8.26034L215.432 7.6932C217.682 7.1066 219.971 6.6809 222.281 6.41932L222.342 6.99518C220.06 7.25039 217.8 7.67325 215.58 8.26034ZM236.12 7.08244C233.831 6.81494 231.53 6.66931 229.227 6.64618V6.07031C231.559 6.09218 233.889 6.2378 236.207 6.50657L236.12 7.08244Z" fill="#E6E6E6"/>
<path d="M376.814 137.597L376.273 137.396C376.666 136.34 377.067 135.25 377.469 134.133L378.01 134.334C377.608 135.45 377.207 136.524 376.814 137.597Z" fill="#E6E6E6"/>
<path d="M518.914 138.583L537.237 128.052L554.74 116.561L556.668 120.051L538.86 130.417L520.842 142.03L518.914 138.583ZM529.934 123.358C528.911 123.003 527.964 122.458 527.142 121.752C526.386 121.092 525.756 120.3 525.283 119.414C524.835 118.55 524.554 117.608 524.455 116.639C524.359 115.641 524.487 114.633 524.83 113.69C525.153 112.752 525.684 111.899 526.383 111.195C527.058 110.489 527.872 109.93 528.774 109.555C529.696 109.172 530.681 108.959 531.679 108.926C532.763 108.891 533.844 109.063 534.864 109.432C535.878 109.791 536.816 110.335 537.63 111.038C538.399 111.688 539.041 112.475 539.523 113.359C539.995 114.217 540.292 115.16 540.396 116.133C540.492 117.123 540.367 118.121 540.029 119.056C539.707 120.005 539.173 120.867 538.467 121.578C537.781 122.27 536.97 122.827 536.077 123.218C535.145 123.614 534.148 123.83 533.136 123.855C532.047 123.894 530.96 123.725 529.934 123.358ZM531.025 120.278C531.465 120.442 531.941 120.484 532.403 120.4C532.873 120.32 533.325 120.158 533.738 119.92C534.178 119.664 534.569 119.33 534.89 118.934C535.224 118.512 535.487 118.037 535.666 117.529C536.046 116.538 536.046 115.441 535.666 114.449C535.516 114.004 535.266 113.599 534.937 113.264C534.608 112.928 534.207 112.671 533.764 112.512C533.324 112.351 532.848 112.309 532.386 112.39C531.916 112.47 531.464 112.633 531.051 112.87C530.614 113.121 530.227 113.449 529.908 113.839C529.573 114.25 529.313 114.716 529.14 115.217C528.761 116.215 528.761 117.317 529.14 118.315C529.284 118.764 529.529 119.174 529.855 119.514C530.182 119.855 530.582 120.116 531.025 120.278ZM540.736 149.254C539.71 148.901 538.762 148.353 537.944 147.64C537.183 146.992 536.55 146.208 536.077 145.328C535.602 144.481 535.305 143.545 535.204 142.58C535.101 141.581 535.227 140.573 535.571 139.63C535.896 138.684 536.43 137.822 537.132 137.109C537.819 136.416 538.63 135.86 539.523 135.468C540.447 135.077 541.435 134.858 542.437 134.823C544.621 134.769 546.748 135.521 548.414 136.934C549.18 137.595 549.819 138.39 550.299 139.281C550.774 140.138 551.071 141.082 551.171 142.056C551.246 143.052 551.113 144.054 550.779 144.995C550.446 145.937 549.919 146.8 549.234 147.527C548.564 148.228 547.752 148.778 546.852 149.141C544.9 149.932 542.725 149.972 540.745 149.254H540.736ZM541.826 146.174C542.265 146.331 542.737 146.373 543.196 146.296C544.17 146.128 545.05 145.614 545.674 144.848C546.014 144.439 546.277 143.972 546.451 143.47C546.637 142.943 546.729 142.388 546.721 141.829C546.708 141.32 546.614 140.816 546.442 140.337C546.296 139.894 546.058 139.487 545.744 139.142C545.431 138.809 545.042 138.558 544.61 138.409C544.17 138.244 543.694 138.199 543.231 138.278C542.765 138.366 542.317 138.531 541.905 138.767C541.462 139.019 541.071 139.353 540.753 139.753C540.413 140.172 540.148 140.648 539.968 141.157C539.594 142.15 539.594 143.245 539.968 144.237C540.113 144.679 540.356 145.082 540.677 145.417C540.999 145.752 541.392 146.011 541.826 146.174Z" fill="#78C2FF"/>
</g>
<defs>
<linearGradient id="paint0_linear_3189_2556" x1="160.587" y1="165.16" x2="455.491" y2="165.16" gradientUnits="userSpaceOnUse">
<stop stop-color="#A246C4"/>
<stop offset="1" stop-color="#5EAFFF"/>
</linearGradient>
<linearGradient id="paint1_linear_3189_2556" x1="457.992" y1="188.844" x2="508.319" y2="188.844" gradientUnits="userSpaceOnUse">
<stop offset="0.01" stop-color="#595959"/>
<stop offset="1" stop-color="white"/>
</linearGradient>
<linearGradient id="paint2_linear_3189_2556" x1="28186.2" y1="11107" x2="31089.8" y2="11107" gradientUnits="userSpaceOnUse">
<stop offset="0.01" stop-color="#595959"/>
<stop offset="1" stop-color="white"/>
</linearGradient>
<linearGradient id="paint3_linear_3189_2556" x1="534.711" y1="185.979" x2="562.483" y2="185.979" gradientUnits="userSpaceOnUse">
<stop offset="0.01" stop-color="#B3B3B3"/>
<stop offset="1" stop-color="white"/>
</linearGradient>
<linearGradient id="paint4_linear_3189_2556" x1="8408.8" y1="2700.32" x2="8648.05" y2="2700.32" gradientUnits="userSpaceOnUse">
<stop offset="0.01" stop-color="#B3B3B3"/>
<stop offset="1" stop-color="white"/>
</linearGradient>
<linearGradient id="paint5_linear_3189_2556" x1="6253.28" y1="2700.35" x2="6379.95" y2="2700.35" gradientUnits="userSpaceOnUse">
<stop offset="0.01" stop-color="#595959"/>
<stop offset="1" stop-color="white"/>
</linearGradient>
<linearGradient id="paint6_linear_3189_2556" x1="500.985" y1="312.036" x2="500.985" y2="231.118" gradientUnits="userSpaceOnUse">
<stop stop-color="#40D5E6"/>
<stop offset="1" stop-color="#5577FF"/>
</linearGradient>
<linearGradient id="paint7_linear_3189_2556" x1="62567.4" y1="8651.31" x2="81720.5" y2="8651.31" gradientUnits="userSpaceOnUse">
<stop stop-color="#40D5E6"/>
<stop offset="1" stop-color="#5577FF"/>
</linearGradient>
<linearGradient id="paint8_linear_3189_2556" x1="15476" y1="31962.8" x2="14268.5" y2="31962.8" gradientUnits="userSpaceOnUse">
<stop offset="0.01" stop-color="#B3B3B3"/>
<stop offset="1" stop-color="white"/>
</linearGradient>
<linearGradient id="paint9_linear_3189_2556" x1="558.031" y1="221.402" x2="578.073" y2="221.402" gradientUnits="userSpaceOnUse">
<stop stop-color="#1F3073"/>
<stop offset="1" stop-color="#4E6CDE"/>
</linearGradient>
<linearGradient id="paint10_linear_3189_2556" x1="548.22" y1="223.854" x2="578.069" y2="223.854" gradientUnits="userSpaceOnUse">
<stop stop-color="#7C3596"/>
<stop offset="1" stop-color="#3098FF"/>
</linearGradient>
<linearGradient id="paint11_linear_3189_2556" x1="545.003" y1="231.307" x2="563.762" y2="212.984" gradientUnits="userSpaceOnUse">
<stop stop-color="#354996"/>
<stop offset="1" stop-color="#4E6CDE"/>
</linearGradient>
<linearGradient id="paint12_linear_3189_2556" x1="13600" y1="4889.55" x2="14059.7" y2="4889.55" gradientUnits="userSpaceOnUse">
<stop stop-color="#1F3073"/>
<stop offset="1" stop-color="#4E6CDE"/>
</linearGradient>
<linearGradient id="paint13_linear_3189_2556" x1="19998.3" y1="6423.51" x2="21019.8" y2="6423.51" gradientUnits="userSpaceOnUse">
<stop stop-color="#7C3596"/>
<stop offset="1" stop-color="#3098FF"/>
</linearGradient>
<linearGradient id="paint14_linear_3189_2556" x1="6157.56" y1="2027.85" x2="6155.71" y2="1993.37" gradientUnits="userSpaceOnUse">
<stop stop-color="#354996"/>
<stop offset="1" stop-color="#4E6CDE"/>
</linearGradient>
<linearGradient id="paint15_linear_3189_2556" x1="581.269" y1="280.107" x2="581.269" y2="236.489" gradientUnits="userSpaceOnUse">
<stop stop-color="#FFC05C"/>
<stop offset="1" stop-color="#FF3857"/>
</linearGradient>
<linearGradient id="paint16_linear_3189_2556" x1="53757.1" y1="7526.02" x2="53757.1" y2="6371.78" gradientUnits="userSpaceOnUse">
<stop stop-color="#FFC05C"/>
<stop offset="1" stop-color="#FF3857"/>
</linearGradient>
<linearGradient id="paint17_linear_3189_2556" x1="11260.4" y1="23866.4" x2="11260.4" y2="18095.5" gradientUnits="userSpaceOnUse">
<stop stop-color="#7C3596"/>
<stop offset="1" stop-color="#3098FF"/>
</linearGradient>
<linearGradient id="paint18_linear_3189_2556" x1="7026.27" y1="16864.8" x2="13614.7" y2="16864.8" gradientUnits="userSpaceOnUse">
<stop stop-color="#40D5E6"/>
<stop offset="1" stop-color="#5577FF"/>
</linearGradient>
<linearGradient id="paint19_linear_3189_2556" x1="325756" y1="-84742.4" x2="322616" y2="-88692.4" gradientUnits="userSpaceOnUse">
<stop stop-color="#40D5E6"/>
<stop offset="1" stop-color="#5577FF"/>
</linearGradient>
<linearGradient id="paint20_linear_3189_2556" x1="7608.63" y1="18368.6" x2="27455.6" y2="18368.6" gradientUnits="userSpaceOnUse">
<stop stop-color="#40D5E6"/>
<stop offset="1" stop-color="#5577FF"/>
</linearGradient>
<linearGradient id="paint21_linear_3189_2556" x1="225104" y1="-199068" x2="221836" y2="-201273" gradientUnits="userSpaceOnUse">
<stop stop-color="#40D5E6"/>
<stop offset="1" stop-color="#5577FF"/>
</linearGradient>
<linearGradient id="paint22_linear_3189_2556" x1="465533" y1="-284424" x2="469394" y2="-283145" gradientUnits="userSpaceOnUse">
<stop stop-color="#40D5E6"/>
<stop offset="1" stop-color="#5577FF"/>
</linearGradient>
<linearGradient id="paint23_linear_3189_2556" x1="234969" y1="-19629.3" x2="232684" y2="-20849" gradientUnits="userSpaceOnUse">
<stop stop-color="#40D5E6"/>
<stop offset="1" stop-color="#5577FF"/>
</linearGradient>
<linearGradient id="paint24_linear_3189_2556" x1="39229.8" y1="29173.2" x2="49815.9" y2="5532.33" gradientUnits="userSpaceOnUse">
<stop stop-color="#40D5E6"/>
<stop offset="1" stop-color="#5577FF"/>
</linearGradient>
<linearGradient id="paint25_linear_3189_2556" x1="20245.8" y1="16397.1" x2="25787.1" y2="13662.9" gradientUnits="userSpaceOnUse">
<stop stop-color="#40D5E6"/>
<stop offset="1" stop-color="#5577FF"/>
</linearGradient>
<linearGradient id="paint26_linear_3189_2556" x1="48509.1" y1="53882.5" x2="176793" y2="53882.5" gradientUnits="userSpaceOnUse">
<stop stop-color="#FFC05C"/>
<stop offset="1" stop-color="#FF3857"/>
</linearGradient>
<linearGradient id="paint27_linear_3189_2556" x1="15920.3" y1="2363.15" x2="73557.5" y2="2363.15" gradientUnits="userSpaceOnUse">
<stop stop-color="#FFC05C"/>
<stop offset="1" stop-color="#FF3857"/>
</linearGradient>
<linearGradient id="paint28_linear_3189_2556" x1="15920.3" y1="619.966" x2="73557.5" y2="619.966" gradientUnits="userSpaceOnUse">
<stop stop-color="#FFC05C"/>
<stop offset="1" stop-color="#FF3857"/>
</linearGradient>
<linearGradient id="paint29_linear_3189_2556" x1="8222.04" y1="2669.79" x2="37700.9" y2="2669.79" gradientUnits="userSpaceOnUse">
<stop stop-color="#FFC05C"/>
<stop offset="1" stop-color="#FF3857"/>
</linearGradient>
<linearGradient id="paint30_linear_3189_2556" x1="439.58" y1="214.359" x2="192.761" y2="214.359" gradientUnits="userSpaceOnUse">
<stop stop-color="#EDF4FF"/>
<stop offset="1" stop-color="#EDFFFE"/>
</linearGradient>
<linearGradient id="paint31_linear_3189_2556" x1="94267.5" y1="5446.04" x2="94267.5" y2="3391.11" gradientUnits="userSpaceOnUse">
<stop stop-color="#7C3596"/>
<stop offset="1" stop-color="#3098FF"/>
</linearGradient>
<clipPath id="clip0_3189_2556">
<rect width="690" height="350" fill="white"/>
</clipPath>
</defs>
</svg>
