<svg width="690" height="350" viewBox="0 0 690 350" fill="none" xmlns="http://www.w3.org/2000/svg">
<g clip-path="url(#clip0_3188_1326)">
<path d="M91.9099 350L273.942 349.055L322.464 349.041L338.539 349.035L387.154 349.021L609.254 348.961C609.254 348.961 660.054 283.818 605.79 221.948C549.528 157.8 522.172 210.042 504.877 119.746C461.347 -107.548 30.9539 24.7414 143.842 218.156C184.49 287.797 63.8304 250.783 91.9099 350Z" fill="#EBF3FA"/>
<path d="M259.379 302.563L258.395 302.024C257.343 301.448 256.957 300.125 257.533 299.075L262.056 290.816C262.632 289.765 263.955 289.379 265.004 289.955L266.414 290.726C266.619 290.839 266.696 291.096 266.583 291.304C266.47 291.509 266.212 291.586 266.005 291.473L264.595 290.702C263.955 290.351 263.151 290.587 262.801 291.227L258.278 299.486C257.927 300.125 258.163 300.93 258.803 301.281L259.788 301.82C260.429 302.171 261.232 301.935 261.583 301.295L264.585 295.813C264.698 295.608 264.956 295.531 265.163 295.644C265.369 295.757 265.445 296.014 265.332 296.222L262.33 301.704C261.752 302.753 260.431 303.139 259.379 302.563Z" fill="#AFCDFB"/>
<path d="M255.184 311.232L253.419 310.265C251.782 309.369 251.23 307.21 252.191 305.456L258.99 293.04C259.103 292.835 259.36 292.758 259.568 292.871C259.775 292.984 259.85 293.242 259.737 293.449L252.938 305.867C252.203 307.21 252.602 308.851 253.828 309.522L255.592 310.489C256.819 311.161 258.416 310.613 259.153 309.27L266.898 295.127C267.633 293.783 267.235 292.142 266.008 291.472C265.803 291.359 265.726 291.101 265.839 290.894C265.952 290.686 266.21 290.612 266.417 290.724C268.054 291.623 268.606 293.779 267.645 295.534L259.902 309.677C258.938 311.431 256.823 312.13 255.184 311.232Z" fill="#AFCDFB"/>
<path opacity="0.6" d="M425.16 256.632H208.57C203.245 256.632 198.93 252.316 198.93 246.991V65.2029C198.93 59.8782 203.245 55.5625 208.57 55.5625H425.16C430.485 55.5625 434.801 59.8782 434.801 65.2029V246.991C434.803 252.316 430.485 256.632 425.16 256.632Z" fill="white"/>
<path d="M434.803 77.8742H198.93V62.7601C198.93 58.7847 202.152 55.5625 206.127 55.5625H427.605C431.58 55.5625 434.803 58.7847 434.803 62.7601V77.8742Z" fill="#699DEE"/>
<path d="M208.469 66.5824C208.469 65.1083 209.663 63.9141 211.137 63.9141C212.611 63.9141 213.806 65.1083 213.806 66.5824C213.806 68.0566 212.611 69.2508 211.137 69.2508C209.663 69.2488 208.469 68.0546 208.469 66.5824Z" fill="#DDE7FE"/>
<path d="M219.664 66.5824C219.664 65.1083 220.858 63.9141 222.332 63.9141C223.805 63.9141 225.001 65.1083 225.001 66.5824C225.001 68.0566 223.807 69.2508 222.332 69.2508C220.858 69.2488 219.664 68.0546 219.664 66.5824Z" fill="#DDE7FE"/>
<path d="M230.867 66.5824C230.867 65.1083 232.061 63.9141 233.536 63.9141C235.01 63.9141 236.204 65.1083 236.204 66.5824C236.204 68.0566 235.01 69.2508 233.536 69.2508C232.061 69.2488 230.867 68.0546 230.867 66.5824Z" fill="#DDE7FE"/>
<path opacity="0.5" d="M284.48 95.5781H217.617V162.441H284.48V95.5781Z" fill="#CDE0FB"/>
<path opacity="0.5" d="M355.843 100.563H302.66C301.265 100.563 300.133 99.4308 300.133 98.0352C300.133 96.6396 301.265 95.5078 302.66 95.5078H355.843C357.238 95.5078 358.37 96.6396 358.37 98.0352C358.368 99.4328 357.238 100.563 355.843 100.563Z" fill="#7C9AF2"/>
<path opacity="0.5" d="M419.444 97.1721H366.262C364.866 97.1721 363.734 96.0403 363.734 94.6446C363.734 93.249 364.866 92.1172 366.262 92.1172H419.444C420.84 92.1172 421.972 93.249 421.972 94.6446C421.972 96.0423 420.84 97.1721 419.444 97.1721Z" fill="#7C9AF2"/>
<g opacity="0.3">
<path opacity="0.3" d="M366.379 120.009H301.778C300.874 120.009 300.141 119.276 300.141 118.372C300.141 117.467 300.874 116.734 301.778 116.734H366.379C367.283 116.734 368.016 117.467 368.016 118.372C368.016 119.276 367.283 120.009 366.379 120.009Z" fill="#BDD1F9"/>
<path opacity="0.3" d="M390.933 120.009H373.879C372.975 120.009 372.242 119.276 372.242 118.372C372.242 117.467 372.975 116.734 373.879 116.734H390.933C391.837 116.734 392.57 117.467 392.57 118.372C392.57 119.276 391.837 120.009 390.933 120.009Z" fill="#BDD1F9"/>
<path opacity="0.3" d="M326.152 130.165H301.778C300.874 130.165 300.141 129.432 300.141 128.528C300.141 127.624 300.874 126.891 301.778 126.891H326.152C327.056 126.891 327.789 127.624 327.789 128.528C327.789 129.432 327.056 130.165 326.152 130.165Z" fill="#BDD1F9"/>
<path opacity="0.3" d="M365.639 130.165H332.239C331.335 130.165 330.602 129.432 330.602 128.528C330.602 127.624 331.335 126.891 332.239 126.891H365.639C366.543 126.891 367.276 127.624 367.276 128.528C367.276 129.432 366.543 130.165 365.639 130.165Z" fill="#BDD1F9"/>
<path opacity="0.3" d="M390.933 130.165H373.879C372.975 130.165 372.242 129.432 372.242 128.528C372.242 127.624 372.975 126.891 373.879 126.891H390.933C391.837 126.891 392.57 127.624 392.57 128.528C392.57 129.432 391.837 130.165 390.933 130.165Z" fill="#BDD1F9"/>
<path opacity="0.3" d="M334.852 138.954H301.778C300.874 138.954 300.141 138.221 300.141 137.317C300.141 136.413 300.874 135.68 301.778 135.68H334.852C335.756 135.68 336.489 136.413 336.489 137.317C336.491 138.221 335.758 138.954 334.852 138.954Z" fill="#BDD1F9"/>
<path opacity="0.3" d="M398.011 138.954H343.919C343.014 138.954 342.281 138.221 342.281 137.317C342.281 136.413 343.014 135.68 343.919 135.68H398.011C398.915 135.68 399.648 136.413 399.648 137.317C399.648 138.221 398.915 138.954 398.011 138.954Z" fill="#BDD1F9"/>
</g>
<g opacity="0.3">
<path opacity="0.3" d="M366.379 152.282H301.778C300.874 152.282 300.141 151.549 300.141 150.645C300.141 149.741 300.874 149.008 301.778 149.008H366.379C367.283 149.008 368.016 149.741 368.016 150.645C368.016 151.547 367.283 152.282 366.379 152.282Z" fill="#BDD1F9"/>
<path opacity="0.3" d="M390.933 152.282H373.879C372.975 152.282 372.242 151.549 372.242 150.645C372.242 149.741 372.975 149.008 373.879 149.008H390.933C391.837 149.008 392.57 149.741 392.57 150.645C392.57 151.547 391.837 152.282 390.933 152.282Z" fill="#BDD1F9"/>
<path opacity="0.3" d="M326.152 162.439H301.778C300.874 162.439 300.141 161.706 300.141 160.801C300.141 159.897 300.874 159.164 301.778 159.164H326.152C327.056 159.164 327.789 159.897 327.789 160.801C327.789 161.706 327.056 162.439 326.152 162.439Z" fill="#BDD1F9"/>
<path opacity="0.3" d="M365.639 162.439H332.239C331.335 162.439 330.602 161.706 330.602 160.801C330.602 159.897 331.335 159.164 332.239 159.164H365.639C366.543 159.164 367.276 159.897 367.276 160.801C367.276 161.706 366.543 162.439 365.639 162.439Z" fill="#BDD1F9"/>
</g>
<path d="M247.6 105.539H254.505L273.162 148.241H265.288L260.988 138.005H240.94L236.578 148.241H228.945L247.6 105.539ZM258.259 131.401L250.931 114.442L243.663 131.401H258.259Z" fill="#BDD1F9"/>
<path d="M254.967 175.914H217.617V183.124H254.967V175.914Z" fill="#F99746"/>
<path d="M254.967 183.125H217.617V190.335H254.967V183.125Z" fill="#ED7D2B"/>
<path d="M254.967 190.336H217.617V197.546H254.967V190.336Z" fill="#474FEA"/>
<path d="M282.481 179.988H261.932C261.072 179.988 260.375 179.292 260.375 178.432C260.375 177.572 261.072 176.875 261.932 176.875H282.481C283.341 176.875 284.038 177.572 284.038 178.432C284.038 179.292 283.341 179.988 282.481 179.988Z" fill="#BDD1F9"/>
<path d="M275.56 185.473H261.932C261.072 185.473 260.375 184.776 260.375 183.916C260.375 183.056 261.072 182.359 261.932 182.359H275.56C276.42 182.359 277.116 183.056 277.116 183.916C277.116 184.776 276.42 185.473 275.56 185.473Z" fill="#BDD1F9"/>
<path d="M254.967 213.188H217.617V227.921H254.967V213.188Z" fill="#F99746"/>
<path d="M254.967 224.281H217.617V234.818H254.967V224.281Z" fill="#B5453C"/>
<path d="M217.617 213.188L231.016 224.443L217.617 234.821V213.188Z" fill="#474FEA"/>
<path d="M282.481 217.27H261.932C261.072 217.27 260.375 216.573 260.375 215.713C260.375 214.853 261.072 214.156 261.932 214.156H282.481C283.341 214.156 284.038 214.853 284.038 215.713C284.038 216.573 283.341 217.27 282.481 217.27Z" fill="#BDD1F9"/>
<path d="M275.56 222.762H261.932C261.072 222.762 260.375 222.065 260.375 221.205C260.375 220.345 261.072 219.648 261.932 219.648H275.56C276.42 219.648 277.116 220.345 277.116 221.205C277.116 222.065 276.42 222.762 275.56 222.762Z" fill="#BDD1F9"/>
<path d="M437.179 73.7689C437.179 73.7689 438.151 85.3627 435.509 85.1875C432.869 85.0123 427.653 79.9092 417.128 80.7389C406.604 81.5686 393.727 83.8725 385.943 70.0976C378.16 56.3227 395.898 52.3594 395.898 52.3594L437.179 73.7689Z" fill="#233862"/>
<path d="M414.808 72.9187L467.839 77.2787L468.94 74.9205L418.1 37.392L366.745 31.3906L365.758 33.5032L414.808 72.9187Z" fill="#2B478B"/>
<path d="M450.9 112.851C450.588 111.759 449.448 111.127 448.357 111.439C447.265 111.751 446.635 112.889 446.947 113.983C447.259 115.074 448.397 115.707 449.489 115.394C450.58 115.08 451.212 113.942 450.9 112.851Z" fill="#F99746"/>
<path d="M449.127 113.423C451.253 113.258 451.751 132.611 451.751 132.611C451.751 132.611 450.363 133.264 449.683 133.111C449 132.957 448.653 130.343 448.653 130.343L448.587 133.084C448.587 133.084 446.255 133.165 445.445 132.597C445.445 132.597 445.761 113.687 449.127 113.423Z" fill="#F99746"/>
<path d="M449.829 113.861L449.444 71.5774L449.17 71.372L421.471 50.8828L420.477 52.2281L447.9 72.5158L448.52 113.788L449.829 113.861Z" fill="#F99746"/>
<path d="M485.569 313.349H369.07V269.086H485.958C495.405 269.086 503.063 276.745 503.063 286.192V295.854C503.063 305.517 495.232 313.349 485.569 313.349Z" fill="#FCECDB"/>
<path d="M603.005 287.299V293.959C603.005 297.518 602.111 300.849 600.548 303.714C597.409 309.478 591.571 313.351 584.887 313.351H365.487C364.035 313.351 362.859 312.092 362.859 310.539V309.543C362.859 307.992 364.035 306.731 365.487 306.731H499.233C499.948 305.799 500.578 304.788 501.11 303.712C502.362 301.187 503.069 298.307 503.069 295.25V286.786C503.069 285.229 502.882 283.719 502.527 282.281C501.929 279.844 500.856 277.613 499.426 275.708H365.487C364.035 275.708 362.859 274.449 362.859 272.894V271.899C362.859 270.345 364.035 269.086 365.487 269.086H585.992C593.762 269.086 600.317 274.662 602.351 282.279C602.778 283.876 603.005 285.559 603.005 287.299Z" fill="#699DEE"/>
<path d="M602.349 282.281H502.528C501.929 279.844 500.856 277.613 499.426 275.708H365.487C364.035 275.708 362.859 274.449 362.859 272.894V271.899C362.859 270.345 364.035 269.086 365.487 269.086H585.992C593.762 269.088 600.315 274.662 602.349 282.281Z" fill="#548EE2"/>
<path d="M369.07 291.219L385.314 291.964L369.07 292.411V291.219Z" fill="#F4D2B8"/>
<path d="M369.07 298.164L407.719 298.907L369.07 299.356V298.164Z" fill="#F4D2B8"/>
<path d="M352.047 347.671H466.409V313.242H351.038C342.469 313.242 335.523 320.188 335.523 328.757V331.15C335.525 340.274 342.922 347.671 352.047 347.671Z" fill="#F99746"/>
<path d="M460.899 347.671H591.239V313.242H460.54C451.828 313.242 444.766 320.305 444.766 329.017V331.54C444.768 340.45 451.989 347.671 460.899 347.671Z" fill="#FCECDB"/>
<path d="M436.162 347.675H595.645C596.968 347.675 598.041 346.601 598.041 345.278V344.92C598.041 343.597 596.968 342.523 595.645 342.523H436.162C434.839 342.523 433.766 343.597 433.766 344.92V345.278C433.766 346.603 434.839 347.675 436.162 347.675Z" fill="#F99746"/>
<path d="M436.162 318.394H595.645C596.968 318.394 598.041 317.32 598.041 315.997V315.639C598.041 314.316 596.968 313.242 595.645 313.242H436.162C434.839 313.242 433.766 314.316 433.766 315.639V315.997C433.766 317.322 434.839 318.394 436.162 318.394Z" fill="#F99746"/>
<path d="M591.243 330.461L573.484 331.039L591.243 331.387V330.461Z" fill="#F4D2B8"/>
<path d="M591.239 322.539L548.992 323.119L591.239 323.468V322.539Z" fill="#F4D2B8"/>
<path d="M549.43 323.008C549.43 323.008 551.24 324.488 551.84 326.919C551.947 327.344 552.014 327.799 552.028 328.278C552.128 331.508 552.028 338.821 552.028 338.821L557.372 335.166L562.703 338.821V328.91C562.703 327.038 562.246 325.213 561.396 324.021C560.985 323.443 560.486 323.008 559.92 323.008H549.43Z" fill="#699DEE"/>
<path d="M549.43 323.008C549.43 323.008 551.24 324.488 551.84 326.919L562.552 327.064C562.552 327.064 562.131 323.582 559.922 323.008H549.43Z" fill="#568CDB"/>
<path d="M452.216 269.184H339.656V218.602H452.627C462.615 218.602 470.713 226.699 470.713 236.688V250.691C470.711 260.903 462.43 269.184 452.216 269.184Z" fill="#FCECDB"/>
<path d="M470.775 238.223V249.11C470.747 253.76 468.592 257.794 465.426 259.95C463.868 261.008 462.065 261.614 460.152 261.614H336.208C334.756 261.614 333.578 263.02 333.578 264.755V266.04C333.578 267.774 334.756 269.182 336.208 269.182H550.323C556.468 269.182 561.897 265.535 565.176 259.952C567.244 256.434 568.458 252.151 568.458 247.525V238.936C568.458 235.766 567.852 232.765 566.767 230.093C564.014 223.292 558.181 218.602 551.431 218.602H336.208C334.756 218.602 333.578 220.005 333.578 221.739V223.024C333.578 224.758 334.756 226.166 336.208 226.166H460.531C463.501 226.166 466.192 227.676 468.071 230.093C469.732 232.231 470.759 235.083 470.775 238.223Z" fill="#AFCDFB"/>
<path d="M333.578 264.764V266.049C333.578 267.783 334.756 269.191 336.208 269.191H550.323C556.468 269.191 561.897 265.543 565.176 259.961H465.428C463.87 261.018 462.067 261.624 460.154 261.624H336.21C334.756 261.622 333.578 263.028 333.578 264.764Z" fill="#A4C4F4"/>
<path d="M339.656 243.891L355.546 244.74L339.656 245.254V243.891Z" fill="#F4D2B8"/>
<path d="M339.656 232.25L377.457 233.1L339.656 233.611V232.25Z" fill="#F4D2B8"/>
<path d="M377.081 232.93C377.081 232.93 374.586 234.533 373.76 237.171C373.615 237.632 373.521 238.125 373.501 238.645C373.364 242.147 373.501 250.076 373.501 250.076L366.136 246.112L358.789 250.076V239.332C358.789 237.3 359.419 235.324 360.589 234.029C361.157 233.403 361.846 232.93 362.624 232.93H377.081Z" fill="#F99746"/>
<path d="M377.088 232.93C377.088 232.93 374.593 234.533 373.768 237.171L359.008 237.328C359.008 237.328 359.588 233.552 362.633 232.93H377.088Z" fill="#ED7D2B"/>
<path d="M188.934 264.711C188.934 264.711 212.007 274.764 216.194 274.581C220.383 274.398 246.189 266.721 246.189 266.721L245.532 271.159C245.532 271.159 225.617 282.614 218.653 283.263C211.798 283.903 188.358 277.11 186.095 275.676C183.833 274.245 182.357 266.163 188.934 264.711Z" fill="#ED985F"/>
<path d="M185.475 227.735C185.475 227.735 176.962 226.118 172.725 229.213C165.046 234.822 164.633 254.155 161.755 257.035C158.878 259.914 151.94 258.686 151.322 273.589C150.703 288.491 154.083 289.736 150.059 296.388C146.033 303.039 151.763 309.697 151.763 309.697C151.763 309.697 149.416 306.026 150.421 303.374C150.421 303.374 151.398 309.224 155.114 310.596C158.829 311.967 159.379 312.972 159.973 314.984C159.973 314.984 191.678 298.738 191.712 287.216C191.746 275.695 197.951 264.28 194.904 259.286C194.904 259.286 196.261 261.423 196.426 263.799C196.426 263.799 198.255 260.297 195.085 257.037C191.917 253.776 198.803 247.028 197.782 239.214C197.083 233.847 193.319 227.968 185.475 227.735Z" fill="#233862"/>
<path d="M191.744 275.687C189.718 277.093 187.176 278.253 183.986 278.988C172.03 281.751 167.448 271.645 165.727 264.707C167.358 263.775 168.89 263.57 169.776 263.463C170.64 263.36 171.549 263.294 172.302 263.255C173.645 262.226 175.645 258.019 176.088 251.484L176.65 251.635L186.073 254.215C186.073 254.215 185.642 257.21 185.43 260.041C185.267 262.257 185.241 264.373 185.66 264.893C186.395 265.052 186.836 265.157 186.836 265.157C186.836 265.157 186.836 265.161 186.84 265.165C186.971 265.372 189.704 269.869 191.744 275.687Z" fill="#FFB27D"/>
<path d="M186.079 254.22C186.079 254.22 185.646 257.213 185.437 260.046C180.098 259.513 177.621 254.43 176.656 251.641L186.079 254.22Z" fill="#ED985F"/>
<path d="M187.664 257.037C187.664 257.037 174.993 256.338 175.549 248.454C176.107 240.569 174.846 235.168 182.96 235.283C191.074 235.396 192.431 238.515 192.886 241.192C193.342 243.868 190.975 257.015 187.664 257.037Z" fill="#FFB27D"/>
<path d="M192.829 236.774C191.042 234.263 189.526 234.678 188.648 235.33C182.002 231.03 177.142 236.333 177.142 236.333C175.89 241.929 171.578 244.878 171.578 244.878C171.578 244.878 173.783 246.469 179.199 245.482C180.854 245.18 182.387 244.131 183.72 242.818C181.309 246.271 178.194 248.66 178.194 248.66C184.757 246.179 187.941 237.527 188.263 236.611C188.986 237.36 190.402 238.977 190.758 240.488C191.246 242.54 193.346 245.75 194.56 245.695C194.56 245.695 195.509 240.54 192.829 236.774Z" fill="#233862"/>
<path d="M162.123 301.457C160.979 295.607 157.247 272.236 160.979 264.716C162.318 262.014 167.577 261.77 173.346 262.008C175.141 263.165 181.982 267.546 184.791 267C184.821 266.994 184.876 266.982 184.948 266.964C186.271 266.633 186.771 265.703 185.667 264.901C185.665 264.899 188.525 264.626 192.073 265.294C194.077 265.671 199.482 268.468 199.482 268.468C199.482 268.468 196.76 273.386 192.746 275.084C193.429 281.19 192.414 283.882 186.08 297.985C180.727 309.905 186.803 320.637 186.803 320.637C186.803 320.637 155.294 345.97 155.119 333.071C154.986 323.36 163.585 308.933 162.123 301.457Z" fill="#F9DDBF"/>
<path d="M188.357 348.186C190.071 347.993 191.614 347.054 192.572 345.62C192.723 345.393 192.887 345.149 193.06 344.887C196.646 339.458 198.042 322.831 206.11 305.117C208.075 300.805 215.128 300.03 217.051 295.155C217.051 295.155 221.786 279.354 207.991 278.886C194.196 278.421 171.046 322.851 170.682 327.511C170.325 332.025 161.559 351.209 188.357 348.186Z" fill="#DD6D22"/>
<path d="M243.185 347.819H223.552C223.552 347.819 222.817 344.687 224.108 342.557C225.25 340.672 224.811 339.596 223.967 338.038C224.857 338.402 226.007 338.732 227.274 338.66C228.253 338.603 229.286 338.16 230.194 337.633C231.04 338.595 234.657 342.698 235.788 343.509C237.069 344.432 242.791 344.103 243.185 347.819Z" fill="#233862"/>
<path d="M217.504 283.446C218.686 292.309 223.304 320.283 231.448 333.931C234.074 338.332 224.832 340.799 224.782 340.784C223.543 340.46 221.477 338.485 220.526 337.627C213.915 331.668 200.492 314.796 200.492 301.268C200.492 294.673 200.376 282.076 205.173 278.874C208.125 276.903 217.034 279.923 217.504 283.446Z" fill="#ED7D2B"/>
<path d="M176.654 347.815C176.654 347.815 177.381 346.802 178.649 344.878C180.16 342.591 181.829 338.092 183.857 332.322C185.988 326.266 188.513 318.815 191.671 311.061C192.646 308.669 193.681 306.246 194.78 303.828C196.746 299.516 202.151 300.112 204.074 295.236C204.074 295.236 211.578 278.336 197.785 277.871C183.99 277.406 157.778 323.08 156.271 327.505C154.622 332.346 146.576 352.454 176.654 347.815Z" fill="#F99746"/>
<path d="M228.771 347.819H209.137C209.137 347.819 208.404 344.687 209.693 342.557C210.835 340.672 210.396 339.596 209.552 338.038C210.442 338.402 211.592 338.732 212.859 338.66C213.838 338.603 214.871 338.16 215.779 337.633C216.625 338.595 220.242 342.698 221.374 343.509C222.652 344.432 228.374 344.103 228.771 347.819Z" fill="#2B478B"/>
<path d="M183.857 332.321C185.987 326.265 188.513 318.814 191.671 311.061C190.847 305.186 189.067 300.049 186.076 297.977C186.076 297.979 178.822 320.455 183.857 332.321Z" fill="#ED7D2B"/>
<path d="M206.042 282.819C207.224 291.682 208.889 320.285 217.033 333.933C219.659 338.333 210.418 340.8 210.367 340.786C209.129 340.462 207.063 338.486 206.112 337.628C199.501 331.669 186.078 314.797 186.078 301.27C186.078 294.674 193.819 282.605 198.614 279.403C201.569 277.432 205.572 279.296 206.042 282.819Z" fill="#F99746"/>
<path d="M190.046 252.504C190.046 252.504 188.848 252.031 185.477 252.303C185.477 252.303 185.656 253.618 188.141 253.749C189.551 253.823 190.046 252.504 190.046 252.504Z" fill="white"/>
<path d="M248.656 257.446L244.586 250.102L235.781 274.675L240.975 280.251L248.656 257.446Z" fill="#163560"/>
<path d="M227.405 261.747L219.219 285.132L240.977 280.25L248.658 257.445L227.405 261.747Z" fill="#1C468A"/>
<path d="M219.656 283.953L219.273 283.287L227.019 261.156L227.407 261.748L219.656 283.953Z" fill="#EFDECE"/>
<path d="M227.016 261.154L247.644 257.141L248.657 257.445L227.404 261.746L227.016 261.154Z" fill="#FCECDB"/>
<path d="M248.661 257.447L244.26 250.461L241.453 258.349L247.648 257.143L248.661 257.447Z" fill="#EFDECE"/>
<path d="M233.683 265.127C232.976 264.99 231.458 264.418 229.921 263.995C230.38 263.639 230.89 263.202 231.033 262.753C231.307 261.887 231.49 261.609 230.576 261.883C229.661 262.157 226.463 263.625 226.463 263.625C226.463 263.625 226.469 263.629 226.471 263.629C224.655 264.16 222.979 266.728 222.979 266.728C222.979 266.728 200.484 274.637 197.778 274.772C193.591 274.981 165.723 264.718 165.723 264.718C159.146 266.17 160.622 274.25 162.885 275.684C165.149 277.118 185.201 284.412 197.085 284.549C203.104 284.619 224.999 270.546 224.999 270.546C224.999 270.546 227.559 269.376 229.569 269.743C231.579 270.109 236.241 269.743 237.246 268.097C238.253 266.452 234.871 265.355 233.683 265.127Z" fill="#FFB27D"/>
<path d="M180.083 269.77C180.083 269.77 177.589 277.66 169.03 279.455C169.03 279.455 154.895 275.101 161.933 265.47C161.933 265.472 168.891 260.301 180.083 269.77Z" fill="#F9DDBF"/>
<path d="M248.291 265.718C248.295 265.5 248.273 265.285 248.215 265.078C248.215 265.078 246.199 261.888 245.538 261.759C243.526 261.362 243.526 264.01 243.953 265.718C244.251 266.908 245.007 268.05 245.619 268.666L245.538 271.161C248.936 269.295 248.291 265.718 248.291 265.718Z" fill="#FFB27D"/>
<path d="M130.185 224.06C130.989 204.173 114.32 195.336 97.2766 195.336C80.2332 195.336 61.6854 199.752 60.0783 226.197C59.0452 243.21 68.1137 253.678 94.2276 253.678C103.034 253.678 109.879 252.288 115.124 249.811L128.177 261.411L121.763 245.377C127.444 240.094 129.839 232.643 130.185 224.06Z" fill="#EBF3FA"/>
<path d="M84.3245 217.414V222.06H87.3634V217.414H88.6019V228.249H87.3634V223.184H84.3245V228.249H83.0859V217.414H84.3245Z" fill="#91B5F8"/>
<path d="M91.236 224.468C91.236 226.864 92.1846 227.362 93.0687 227.362C93.6144 227.362 94.0494 227.233 94.3555 227.072L94.565 227.972C94.13 228.198 93.4714 228.343 92.8451 228.343C90.9803 228.343 90.0156 226.816 90.0156 224.436C90.0156 221.928 91.093 220.352 92.6518 220.352C94.2266 220.352 94.8711 222.023 94.8711 223.759C94.8711 224.065 94.855 224.273 94.8388 224.466H91.236V224.468ZM93.6809 223.552C93.697 222.009 93.119 221.316 92.5229 221.316C91.7032 221.316 91.3005 222.49 91.2521 223.552H93.6809Z" fill="#91B5F8"/>
<path d="M96.2031 217.125H97.4417V228.25H96.2031V217.125Z" fill="#91B5F8"/>
<path d="M99.2812 217.125H100.52V228.25H99.2812V217.125Z" fill="#91B5F8"/>
<path d="M107.119 224.355C107.119 227.362 105.735 228.375 104.531 228.375C103.132 228.375 102.008 227.104 102.008 224.371C102.008 221.542 103.279 220.352 104.612 220.352C106.009 220.352 107.119 221.655 107.119 224.355ZM103.244 224.355C103.244 225.642 103.47 227.394 104.596 227.394C105.657 227.394 105.883 225.578 105.883 224.355C105.883 223.165 105.657 221.332 104.563 221.332C103.452 221.332 103.244 223.165 103.244 224.355Z" fill="#91B5F8"/>
<path d="M471.587 164.376C472.322 146.195 457.083 138.117 441.502 138.117C425.92 138.117 408.964 142.155 407.493 166.33C406.549 181.883 414.84 191.453 438.714 191.453C446.766 191.453 453.025 190.182 457.818 187.918L469.752 198.523L463.888 183.864C469.082 179.035 471.271 172.222 471.587 164.376Z" fill="#91B5F8"/>
<path d="M423.445 161.216C423.88 161.108 424.384 161.039 424.968 161.039C425.797 161.039 426.504 161.216 426.994 161.677C427.388 162.044 427.592 162.588 427.592 163.242C427.592 164.181 427.074 164.916 426.178 165.268V165.308C427.239 165.594 427.878 166.45 427.878 167.647C427.878 168.408 427.632 169.02 427.225 169.469C426.708 170.053 425.852 170.299 424.805 170.299C424.138 170.299 423.731 170.259 423.445 170.204V161.216ZM424.48 164.968H424.956C425.812 164.968 426.547 164.316 426.547 163.349C426.547 162.505 426.152 161.853 425.036 161.853C424.791 161.853 424.601 161.879 424.478 161.921V164.968H424.48ZM424.48 169.417C424.603 169.445 424.78 169.471 425.01 169.471C426.083 169.471 426.792 168.833 426.792 167.649C426.792 166.384 425.922 165.786 424.944 165.772H424.48V169.417Z" fill="white"/>
<path d="M433.152 166.948C433.152 169.491 431.982 170.347 430.963 170.347C429.779 170.347 428.828 169.274 428.828 166.962C428.828 164.569 429.902 163.562 431.031 163.562C432.213 163.562 433.152 164.664 433.152 166.948ZM429.873 166.948C429.873 168.035 430.065 169.517 431.015 169.517C431.913 169.517 432.103 167.981 432.103 166.948C432.103 165.941 431.911 164.392 430.987 164.392C430.051 164.392 429.873 165.943 429.873 166.948Z" fill="white"/>
<path d="M434.328 165.359C434.328 164.584 434.288 164.189 434.273 163.659H435.184L435.238 164.461H435.264C435.55 163.931 436.08 163.562 436.775 163.562C437.685 163.562 438.366 164.229 438.366 165.82V170.24H437.318V166.011C437.318 165.222 437.169 164.447 436.408 164.447C435.973 164.447 435.552 164.813 435.429 165.508C435.389 165.671 435.375 165.874 435.375 166.106V170.24H434.328V165.359Z" fill="white"/>
<path d="M438.719 172.134C439.019 172.051 439.385 171.943 439.603 171.616C439.834 171.262 439.915 170.773 439.915 169.522V163.662H440.962V169.822C440.962 171.21 440.759 171.848 440.296 172.337C439.901 172.746 439.262 172.95 438.854 172.964L438.719 172.134ZM441.059 161.962C441.059 162.371 440.813 162.643 440.433 162.643C440.078 162.643 439.82 162.371 439.82 161.962C439.82 161.553 440.092 161.281 440.447 161.281C440.813 161.283 441.059 161.555 441.059 161.962Z" fill="white"/>
<path d="M446.433 166.948C446.433 169.491 445.263 170.347 444.244 170.347C443.06 170.347 442.109 169.274 442.109 166.962C442.109 164.569 443.183 163.562 444.313 163.562C445.495 163.562 446.433 164.664 446.433 166.948ZM443.155 166.948C443.155 168.035 443.344 169.517 444.296 169.517C445.195 169.517 445.384 167.981 445.384 166.948C445.384 165.941 445.193 164.392 444.268 164.392C443.332 164.392 443.155 165.943 443.155 166.948Z" fill="white"/>
<path d="M451.55 168.451C451.55 169.172 451.59 169.756 451.604 170.245H450.694L450.611 169.553H450.585C450.394 169.879 449.892 170.354 449.183 170.354C448.041 170.354 447.578 169.456 447.578 167.825V163.664H448.625V167.676C448.625 168.709 448.789 169.47 449.51 169.47C450.122 169.47 450.394 168.898 450.448 168.6C450.488 168.423 450.502 168.219 450.502 168.002V163.664H451.55V168.451Z" fill="white"/>
<path d="M453 165.357C453 164.799 452.959 164.147 452.945 163.657H453.884L453.938 164.704H453.964C454.182 164.078 454.74 163.562 455.352 163.562C455.434 163.562 455.501 163.563 455.569 163.577V164.638C455.501 164.638 455.432 164.638 455.352 164.638C454.685 164.638 454.196 165.25 454.087 165.997C454.059 166.174 454.047 166.378 454.047 166.595V170.241H453V165.357Z" fill="white"/>
<path d="M466.73 260.304C470.427 266.845 475.117 269.395 475.117 269.395L494.704 269.534C494.706 269.532 463.908 255.314 466.73 260.304Z" fill="#233862"/>
<path d="M481.415 310.816C481.921 311.404 481.981 312.059 481.725 312.756C481.725 312.758 481.723 312.764 481.719 312.766C481.242 314.053 479.689 315.484 477.887 316.91C477.657 317.094 477.452 317.261 477.273 317.416C477.226 317.456 477.178 317.496 477.136 317.539C477.1 317.571 477.065 317.603 477.029 317.633C475.345 319.162 475.974 319.52 472.947 322.626C469.497 326.164 467.139 326.212 466.47 325.882C465.904 325.602 467.07 323.719 468.363 321.605C468.426 321.502 468.488 321.399 468.551 321.296C468.722 321.015 468.893 320.731 469.064 320.447C470.579 317.901 470.204 316.699 469.876 312.891C469.61 309.797 465.188 295.583 465.188 295.583L471.759 294.5C471.759 294.5 473.656 305.806 475.821 307.56C476.979 308.494 478.282 308.516 479.397 309.211C479.476 309.26 479.554 309.31 479.629 309.36C480.261 309.787 480.908 310.226 481.415 310.816Z" fill="#FFB27D"/>
<path d="M481.42 310.822C481.925 311.41 481.986 312.064 481.73 312.761C481.73 312.763 481.728 312.769 481.724 312.771C481.142 314.056 479.627 315.48 477.885 316.904C477.658 317.091 477.456 317.262 477.277 317.421C477.231 317.462 477.182 317.502 477.14 317.544C477.104 317.576 477.07 317.609 477.033 317.639C475.35 319.167 475.978 319.526 472.951 322.631C469.502 326.169 467.143 326.218 466.475 325.888C465.909 325.608 467.075 323.725 468.368 321.61C469.036 321.37 472.142 320.134 474.504 317.155C476.584 314.537 477.984 311.166 479.402 309.219C479.48 309.267 479.559 309.317 479.633 309.368C480.266 309.793 480.912 310.232 481.42 310.822Z" fill="#233862"/>
<path d="M428.524 306.355C428.105 308.378 425.219 308.02 421.999 307.208C418.779 306.397 419.538 307.339 414.95 306.8C410.363 306.26 408.983 304.538 408.848 303.853C408.728 303.247 410.997 303.05 413.434 302.786C413.74 302.754 414.048 302.718 414.356 302.683C417.107 302.357 419.131 300.599 421.636 299.161C424.011 297.798 427.577 292.203 427.577 292.203L433.871 292.747C433.871 292.747 430.532 297.743 429.237 299.916C428.476 301.195 428.504 302.893 428.588 304.204C428.633 304.915 428.673 305.642 428.524 306.355Z" fill="#FFB27D"/>
<path d="M421.999 307.204C418.779 306.392 419.538 307.335 414.95 306.795C410.363 306.255 408.983 304.533 408.848 303.849C408.728 303.242 410.997 303.045 413.434 302.781L413.456 302.828C413.456 302.828 416.197 304.799 420.017 304.918C423.133 305.017 426.437 304.147 428.588 304.197C428.633 304.91 428.673 305.639 428.524 306.35C428.105 308.374 425.219 308.015 421.999 307.204Z" fill="#233862"/>
<path d="M452.945 266.254L458.721 282.135L466.261 302.872C466.261 302.872 468.346 303.087 470.347 302.527C472.19 302.01 474.311 300.632 474.311 300.632C474.311 300.632 472.333 278.409 468.442 265.633C467.445 262.355 466.32 259.699 465.069 258.2C458.945 250.866 452.945 266.254 452.945 266.254Z" fill="#233862"/>
<path d="M459.11 241.133C462.975 239.917 473.965 241.59 484.999 243.832L487.339 240.032L511.217 238.336C511.217 238.336 518.969 255.857 514.58 266.955C513.936 268.586 512.361 269.265 510.214 269.285C510.214 269.287 510.212 269.287 510.212 269.289C510.212 269.289 495.968 269.537 491.357 269.505C479.487 269.42 466.296 261.169 464.584 260.813C461.783 260.233 460.621 265.835 457.773 271.706C454.926 277.578 431.216 297.61 431.216 297.61C431.216 297.61 427.593 297.62 426.101 297.048C424.496 296.434 423.914 295.647 423.914 295.647C423.914 295.647 450.392 243.878 459.11 241.133Z" fill="#2B478B"/>
<path d="M487.704 207.173C496.17 211.912 513.342 221.736 513.433 221.673C513.433 221.673 519.752 224.106 523.365 221.744C529.385 217.807 532.673 207.119 521.78 197.825C516.347 193.189 512.472 192.043 511.934 184.701C511.642 180.717 506.292 167.536 497.239 168.688C496.482 168.785 495.721 168.851 494.96 168.821C493.904 168.779 492.158 168.922 490.362 169.973C485.222 172.984 474.976 205.272 487.704 207.173Z" fill="#233862"/>
<path d="M494.857 203.243C494.818 203.267 499.028 204.737 501.857 203.507C504.52 202.353 506.562 198.001 506.521 197.999C505.315 197.935 503.996 196.869 503.025 189.938L502.51 190.119L493.844 193.168C493.844 193.168 494.45 195.945 494.837 198.589C495.163 200.806 495.332 202.933 494.857 203.243Z" fill="#FFB27D"/>
<path d="M493.844 193.166C493.844 193.166 494.212 195.114 494.726 197.895C499.696 197.037 501.79 192.796 502.509 190.117L493.844 193.166Z" fill="#ED975D"/>
<path d="M492.543 195.907C492.543 195.907 504.381 194.402 503.329 187.046C502.28 179.689 503.1 174.539 495.497 175.188C487.895 175.836 486.83 178.853 486.584 181.395C486.338 183.936 489.436 196.108 492.543 195.907Z" fill="#FFB27D"/>
<path d="M487.047 177.372C487.047 177.372 494.571 183.949 499.716 184.511C504.861 185.073 506.823 183.434 506.823 183.434C506.823 183.434 503.806 180.892 502.008 176.812C501.478 175.61 500.346 174.778 499.037 174.657C495.362 174.315 488.394 174.119 487.047 177.372Z" fill="#233862"/>
<path d="M491.772 176.825C491.772 176.825 489.223 179.256 488.411 181.066C487.63 182.814 487.368 187.003 487.97 188.673C487.97 188.673 484.078 180.971 486.339 177.26C488.736 173.325 491.772 176.825 491.772 176.825Z" fill="#233862"/>
<path d="M484.782 220.59C484.971 244.531 484.746 239.526 487.35 241.818C487.976 242.37 489.748 242.708 492.082 242.879C499.419 243.419 512.332 242.299 512.831 240.946C514.557 236.264 513.373 234.798 514.835 227.622C514.988 226.859 515.175 226.033 515.397 225.133C516.609 220.205 517.767 218.536 513.645 210.575C509.905 203.365 506.01 197.509 505.656 197.716C495.617 203.581 494.845 198.586 494.845 198.586C494.845 198.586 484.687 208.913 484.782 220.59Z" fill="#F9DDBF"/>
<path d="M458.711 282.134L466.251 302.871C466.251 302.871 468.335 303.087 470.337 302.527C472.18 302.009 474.3 300.632 474.3 300.632C474.3 300.632 472.323 278.409 468.432 265.633L458.711 282.134Z" fill="#2B478B"/>
<path d="M494.836 198.586C494.836 198.586 484.537 200.257 483.296 204.678C482.058 209.098 474.766 235.087 474.766 235.087C474.766 235.087 479.99 236.064 482.422 233.666C484.855 231.267 490.987 211.312 490.987 211.312L494.836 198.586Z" fill="#F9DDBF"/>
<path d="M492.078 242.877C499.415 243.417 512.328 242.297 512.827 240.944C514.553 236.261 513.369 234.795 514.831 227.62L511.361 217.625C511.361 217.625 511.868 228.731 508.574 231.627C505.283 234.523 495.129 237.17 493.52 239.598C492.745 240.764 492.231 241.936 492.078 242.877Z" fill="#F2CCAA"/>
<path d="M500.514 238.275C500.514 238.275 493.285 236.611 492.111 237.246C490.939 237.88 488.065 240.2 487.702 241.012C487.34 241.823 490.308 240.412 491.273 240.16C491.897 239.997 493.534 240.579 494.344 240.855C497.754 242.019 499.852 241.447 499.852 241.447L500.514 238.275Z" fill="#FFB27D"/>
<path d="M505.658 197.711C505.658 197.711 515.377 198.38 518.71 203.098C523.402 209.74 532.603 237.972 527.188 241.692C521.092 245.879 499.568 242.604 499.568 242.604C499.568 242.604 498.875 239.247 499.884 237.634C500.893 236.021 517.123 233.516 517.876 232.772C518.629 232.029 508.626 218.117 508.642 215.872C508.661 213.627 505.658 197.711 505.658 197.711Z" fill="#F9DDBF"/>
<path d="M491.756 239.258C491.756 239.258 490.225 241.205 489.726 241.435C489.226 241.664 488.906 241.604 488.906 241.604L489.941 239.771L491.756 239.258Z" fill="#FFB27D"/>
<path d="M492.114 237.242L487.688 239.353C487.688 239.353 487.873 239.661 488.417 239.641C488.96 239.621 490.334 239.129 490.334 239.129L492.114 237.242Z" fill="#FFB27D"/>
<path d="M490.663 244.588L455.766 244.342L445.453 218.164L480.295 218.41L490.663 244.588Z" fill="#F99746"/>
<path d="M455.359 243.32L501.443 243.645L501.435 244.661L455.762 244.339L455.359 243.32Z" fill="#ED7D2B"/>
<path d="M464.665 231.357C464.41 230.436 464.945 229.697 465.862 229.703C466.78 229.709 467.731 230.46 467.989 231.381C468.244 232.301 467.709 233.04 466.792 233.034C465.876 233.028 464.921 232.275 464.665 231.357Z" fill="white"/>
<path d="M278.582 326.968L278.578 348.047L384.609 348.068L384.613 326.988L278.582 326.968Z" fill="#C65447"/>
<path d="M278.577 348.04L262.994 341.374L253.93 337.498L263.208 333.532L278.584 326.961C278.584 326.961 280.636 332.094 280.666 336.92C280.714 344.494 278.577 348.04 278.577 348.04Z" fill="#FCECDB"/>
<path d="M396.938 333.971L396.936 340.635C396.936 344.733 393.611 348.056 389.513 348.056H384.609L384.613 326.977H389.948C393.811 326.979 396.94 330.11 396.938 333.971Z" fill="#FCECDB"/>
<path d="M263.208 333.531C263.594 335.662 263.929 338.924 262.994 341.373L253.93 337.497L263.208 333.531Z" fill="#2B478B"/>
<path d="M301.383 217.212C301.383 217.212 303.282 225.452 308.818 225.452C313.563 225.452 320.073 214.727 320.073 214.727L301.383 217.212Z" fill="#F99746"/>
<path d="M364.94 338.926L361.384 341.371C361.384 341.371 344.278 323.138 340.147 305.661C339.41 302.54 339.112 299.463 339.428 296.542C339.428 296.542 339.179 295.751 338.742 294.351C338.721 294.291 338.703 294.227 338.683 294.164C338.492 293.55 338.262 292.827 338.009 292.009C337.179 289.369 336.039 285.754 334.742 281.64C331.751 272.171 324.914 250.815 321.992 241.934L342.993 234.336C342.993 234.336 345.377 239.775 348.805 254.559C349.333 256.489 349.862 258.623 350.356 260.947C350.915 263.581 351.439 266.459 351.874 269.571C352.611 274.841 353.102 280.77 353.133 287.273C353.145 289.919 353.08 292.662 352.923 295.491C352.808 297.568 353.117 300.333 353.695 303.478C356.341 317.865 364.94 338.926 364.94 338.926Z" fill="#2B478B"/>
<path d="M376.128 347.717H359.149C359.149 347.717 358.514 345.008 359.628 343.166C360.615 341.534 360.236 340.606 359.505 339.257C360.274 339.571 361.269 339.859 362.365 339.794C363.211 339.746 364.105 339.361 364.89 338.906C365.621 339.74 368.751 343.286 369.727 343.987C370.839 344.789 375.785 344.505 376.128 347.717Z" fill="#233862"/>
<path d="M351.874 269.573L338.683 294.164C338.492 293.55 338.262 292.827 338.009 292.009C337.179 289.369 336.039 285.754 334.742 281.64C331.751 272.171 324.914 250.815 321.992 241.934L342.993 234.336C342.993 234.336 345.377 239.775 348.805 254.559C349.333 256.489 349.862 258.623 350.356 260.947C350.917 263.581 351.439 266.461 351.874 269.573Z" fill="#233862"/>
<path d="M321.653 342.402C321.653 342.402 320.477 345.286 321.585 347.717H330.82C330.82 347.717 331.011 345.524 327.66 342.982C325.123 341.057 321.653 342.402 321.653 342.402Z" fill="#233862"/>
<path d="M331.703 154.677C331.709 154.217 331.945 149.259 339.477 148.82C339.477 148.82 335.781 149.352 335.179 150.997C335.179 150.997 337.654 148.923 339.726 149.521C341.797 150.119 343.092 153.692 343.132 154.876C343.172 156.06 342.123 159.907 340.826 160.261C340.335 160.396 339.765 160.376 339.247 160.301C339.608 160.835 339.962 161.425 340.302 162.084C343.458 168.186 340.735 175.373 338.174 174.767C336.53 174.378 335.532 177.226 335.532 177.226L319.727 163.634C319.725 163.634 325.263 151.436 331.703 154.677Z" fill="#2C3A64"/>
<path d="M321.766 195.977C323.518 197.193 325.715 198.194 328.474 198.831C338.813 201.219 342.776 192.481 344.265 186.482C342.855 185.674 341.528 185.497 340.762 185.406C340.015 185.318 339.23 185.259 338.577 185.227C337.415 184.337 335.686 180.698 335.305 175.047L334.818 175.178L326.669 177.407C326.669 177.407 327.042 179.997 327.225 182.446C327.366 184.361 327.388 186.194 327.026 186.641C326.389 186.778 326.009 186.868 326.009 186.868C326.009 186.868 326.009 186.87 326.005 186.876C325.892 187.06 323.53 190.946 321.766 195.977Z" fill="#FFB27D"/>
<path d="M326.664 177.409C326.664 177.409 327.039 179.997 327.22 182.448C331.836 181.987 333.978 177.59 334.812 175.18L326.664 177.409Z" fill="#ED985F"/>
<path d="M326.568 181.291C326.568 181.291 337.197 178.56 335.395 171.967C333.592 165.373 333.75 160.58 326.886 162.046C320.023 163.511 319.399 166.386 319.465 168.733C319.532 171.079 323.757 181.831 326.568 181.291Z" fill="#FFB27D"/>
<path d="M318.783 164.991C319.875 162.558 321.23 162.655 322.086 163.061C326.996 158.293 332.014 161.972 332.014 161.972C334.02 166.507 338.175 168.279 338.175 168.279C338.175 168.279 336.574 170.001 331.813 170.078C330.359 170.102 328.881 169.469 327.529 168.581C330.157 171.103 333.202 172.603 333.202 172.603C327.217 171.606 323.057 164.805 322.63 164.082C322.142 164.84 321.216 166.449 321.168 167.792C321.101 169.614 321.812 173.135 320.773 173.294C320.773 173.294 317.148 168.638 318.783 164.991Z" fill="#2C3A64"/>
<path d="M323.515 186.317C323.515 186.317 341.366 181.983 349.127 188.385L345.248 242.483L310.336 234.049C310.336 234.049 311.319 230.626 318.013 221.523C324.707 212.42 321.795 199.068 323.515 186.317Z" fill="#FFB27D"/>
<path d="M333.918 236.47C333.918 236.47 333.898 236.653 333.862 237.004C333.846 237.155 333.826 237.336 333.803 237.548C333.652 238.949 333.368 241.64 333.002 245.138C332.043 254.313 330.541 269.049 329.516 280.681C328.714 289.775 328.205 296.973 328.481 298.129C329.307 301.607 328.481 343.181 328.481 343.181C325.514 344.605 321.015 343.181 321.015 343.181C321.015 343.181 313.111 305.715 314.219 300.509C315.324 295.302 313.48 290.857 313.48 290.857C307.343 262.278 308.014 246.437 309.234 238.855C309.589 236.649 309.989 235.143 310.283 234.225C310.531 233.443 310.704 233.087 310.704 233.087C324.238 229.444 333.918 236.47 333.918 236.47Z" fill="#2B478B"/>
<path d="M351.528 203.816C350.666 210.325 347.219 218.288 345.988 222.576C345.988 222.576 348.046 237.458 346.081 241.546C345.857 242.014 345.581 242.338 345.243 242.485C337.963 245.657 309.614 242.578 308.417 233.431C307.982 230.108 319.216 218.419 319.87 217.001C320.142 216.415 320.432 214.512 319.115 210.573C317.248 216.329 306.945 214.673 306.945 214.673C308.154 212.603 311.168 198.288 314.532 191.826C317.061 186.968 323.813 186.264 323.813 186.264C323.813 186.264 326.625 190.722 333.422 190.09C340.218 189.458 341.463 185.297 341.463 185.297C341.463 185.297 347.493 186.098 349.349 187.597C349.67 187.856 352.658 195.29 351.528 203.816Z" fill="#F99746"/>
<path d="M345.987 222.58C345.987 222.58 348.045 237.462 346.08 241.55C340.775 238.888 336.596 231.686 337.561 223.665C338.274 217.734 339.335 216.383 342.507 212.99C344.839 210.497 350.228 210.356 349.805 211.542C348.549 215.072 346.638 220.316 345.987 222.58Z" fill="#ED7D2B"/>
<path d="M323.851 204.969L336.006 224.469H315.324L303.742 205.39L323.851 204.969Z" fill="#1C468A"/>
<path d="M335.375 223.495L335.585 222.814L324.083 204.359L323.852 204.974L335.375 223.495Z" fill="#EFDECE"/>
<path d="M324.082 204.359L304.598 204.913L303.742 205.394L323.851 204.974L324.082 204.359Z" fill="#FCECDB"/>
<path d="M303.744 205.393L292.812 199.477L305.554 219.486L315.325 224.473L303.744 205.393Z" fill="#163560"/>
<path d="M361.589 219.061C360.419 219.597 357.412 223.135 356.341 223.495C351.517 225.108 330.992 220.815 330.992 220.815L331.629 217.22C331.629 217.22 351.775 217.756 353.989 217.162C354.405 217.049 356.582 213.644 357.42 213.156L361.589 219.061Z" fill="#FFB27D"/>
<path d="M331.629 217.221C331.629 217.221 329.2 215.244 327.559 215.691C325.917 216.138 323.501 218.214 322.605 218.706C321.708 219.197 319.272 220.955 320.506 222.018C321.741 223.082 325.587 222.169 327.11 221.354C328.632 220.538 330.994 220.816 330.994 220.816L331.629 217.221Z" fill="#FFB27D"/>
<path d="M328.027 215.626C328.027 215.626 325.075 215.273 324.267 215.29C323.462 215.306 323.679 215.483 324.124 216.109C324.57 216.736 326.106 216.973 326.177 217.193C326.247 217.412 328.027 215.626 328.027 215.626Z" fill="#FFB27D"/>
<path d="M341.471 185.297C341.471 185.297 350.228 186.336 352.638 190.09C355.687 194.837 362.881 213.745 362.649 218.51C362.649 218.51 357.389 227.461 339.355 226.027C339.355 226.027 337.478 219.4 341.272 217.211C341.272 217.211 350.536 215.563 351.603 214.623L344.051 200.896L341.471 185.297Z" fill="#F99746"/>
<path d="M306.547 212.528C306.275 211.425 303.87 212.113 303.059 212.75C302.862 212.905 302.65 213.167 302.443 213.475C302.416 213.289 302.396 213.114 302.384 212.975C302.338 212.458 301.736 211.529 301.585 212.224C301.436 212.919 301.188 215.839 301.188 215.839C301.158 218.191 302.67 219.162 303.641 218.397C304.612 217.631 306.817 213.632 306.547 212.528Z" fill="#FFB27D"/>
<path d="M627.93 349.598H76.4453C76.0546 349.598 75.7344 349.278 75.7344 348.887V348.422C75.7344 348.031 76.0546 347.711 76.4453 347.711H627.928C628.319 347.711 628.639 348.031 628.639 348.422V348.887C628.641 349.28 628.321 349.598 627.93 349.598Z" fill="#2E3552"/>
</g>
<defs>
<clipPath id="clip0_3188_1326">
<rect width="690" height="350" fill="white"/>
</clipPath>
</defs>
</svg>
