<svg xmlns="http://www.w3.org/2000/svg" width="31.637" height="45.198" viewBox="0 0 31.637 45.198">
  <g id="css" transform="translate(0.1)">
    <path id="Path_78051" data-name="Path 78051" d="M15.675,46.3,2.776,42.69-.1,10H31.537L28.661,42.6,15.675,46.3Z" transform="translate(0 -1.105)" fill="#264de4"/>
    <path id="Path_78052" data-name="Path 78052" d="M28.685,41.2,31.176,13H18.1V44.134L28.685,41.2Z" transform="translate(-2.663 -1.782)" fill="#2965f1"/>
    <path id="Path_78053" data-name="Path 78053" d="M7.312,25.784l.356,4.092h9.073V25.784ZM6.6,17.6l.356,4.092h9.785V17.6ZM16.741,36.369h0L12.2,35.124l-.267-3.2H7.845l.623,6.316,8.273,2.313h0Z" transform="translate(-0.916 -2.184)" fill="#ebebeb"/>
    <path id="Path_78054" data-name="Path 78054" d="M8.4,0h4.7V2.046H10.366V4.092H13.1V6.138H8.4Zm5.641,0h4.7V1.779H16.006v.356h2.735V6.227h-4.7V4.359h2.735V4H14.041V0Zm5.641,0h4.7V1.779H21.647v.356h2.735V6.227h-4.7V4.359h2.735V4H19.681V0Z" transform="translate(-0.939)"/>
    <path id="Path_78055" data-name="Path 78055" d="M27.429,25.784l.712-8.184H18v4.092h5.693l-.356,4.092H18v4.092h4.981l-.445,5.248L18,36.369v4.27l8.273-2.313.089-.712L27.34,26.94l.089-1.156Z" transform="translate(-2.474 -2.185)" fill="#fff"/>
  </g>
</svg>
