<svg width="33" height="29" viewBox="0 0 33 29" fill="none" xmlns="http://www.w3.org/2000/svg">
<path d="M19.0695 22.5195C19.0688 22.5082 19.0705 22.4969 19.0745 22.4864C19.0786 22.4758 19.0848 22.4662 19.0927 22.4583C19.1007 22.4503 19.1103 22.4441 19.1208 22.4401C19.1314 22.436 19.1427 22.4343 19.1539 22.435H20.5552C20.6056 22.435 20.6207 22.452 20.6207 22.5005V24.6783C20.6197 24.6852 20.6203 24.6922 20.6225 24.6987C20.6247 24.7053 20.6284 24.7113 20.6333 24.7162C20.6382 24.7211 20.6442 24.7248 20.6507 24.7269C20.6573 24.7291 20.6643 24.7298 20.6711 24.7288H20.8401C20.8547 24.7277 20.8687 24.7223 20.8803 24.7133C20.892 24.7044 20.9007 24.6922 20.9055 24.6783V22.5005C20.905 22.4917 20.9063 22.483 20.9093 22.4747C20.9124 22.4665 20.9172 22.4591 20.9234 22.4529C20.9296 22.4467 20.9371 22.4419 20.9453 22.4388C20.9535 22.4357 20.9623 22.4344 20.971 22.435H22.3723C22.3921 22.4329 22.4119 22.4386 22.4277 22.4508C22.4434 22.463 22.4538 22.4808 22.4568 22.5005V28.5777C22.4568 28.6117 22.4397 28.6622 22.3913 28.6622H20.973C20.9389 28.6622 20.9075 28.6117 20.9075 28.5777V26.3998C20.9075 26.3658 20.8905 26.3343 20.8571 26.3343H20.6711C20.6371 26.3343 20.6207 26.3684 20.6207 26.3998V28.5777C20.6207 28.6117 20.5867 28.6622 20.5552 28.6622H19.1873C19.1585 28.6593 19.1319 28.6455 19.113 28.6236C19.0941 28.6016 19.0844 28.5732 19.0858 28.5443V22.5201L19.0695 22.5195Z" fill="black" stroke="#FCEE21" stroke-width="0.5"/>
<path d="M22.918 28.6809C22.8892 28.6781 22.8626 28.6643 22.8437 28.6423C22.8248 28.6204 22.8151 28.592 22.8166 28.5631V22.5389C22.8166 22.5048 22.8506 22.4544 22.882 22.4544H24.3003C24.325 22.4524 24.3494 22.4601 24.3683 22.4759C24.3873 22.4917 24.3993 22.5143 24.4018 22.5389V28.5821C24.4024 28.5955 24.4001 28.609 24.3952 28.6216C24.3903 28.6341 24.3829 28.6455 24.3733 28.6551C24.3638 28.6646 24.3524 28.6721 24.3398 28.677C24.3273 28.6819 24.3138 28.6841 24.3003 28.6836L22.918 28.6809Z" fill="black" stroke="#FCEE21" stroke-width="0.5"/>
<path d="M26.6319 25.1362C26.636 25.1611 26.6479 25.1841 26.666 25.2017C26.683 25.2017 26.7 25.1846 26.7 25.1362L27.0543 22.5536C27.0713 22.5032 27.1047 22.4522 27.1558 22.4522H28.5905C28.6022 22.4528 28.6137 22.4562 28.6239 22.4622C28.634 22.4681 28.6427 22.4763 28.6491 22.4862C28.6554 22.4961 28.6594 22.5074 28.6606 22.5191C28.6618 22.5308 28.6602 22.5427 28.6559 22.5536L27.5081 28.5778C27.5064 28.6042 27.4951 28.629 27.4765 28.6477C27.4578 28.6664 27.4329 28.6776 27.4066 28.6793H25.7859C25.7355 28.6793 25.7015 28.6289 25.6845 28.5778L24.5713 22.5347C24.5713 22.5006 24.5713 22.4502 24.6217 22.4502H26.1075C26.1579 22.4502 26.1919 22.4672 26.2089 22.5347L26.6319 25.1362Z" fill="black" stroke="#FCEE21" stroke-width="0.5"/>
<path d="M28.8438 22.5533C28.8454 22.5269 28.8567 22.5021 28.8754 22.4834C28.894 22.4647 28.9189 22.4535 28.9452 22.4518H31.8997C31.911 22.4511 31.9223 22.4529 31.9328 22.4569C31.9434 22.4609 31.9529 22.4671 31.9609 22.4751C31.9689 22.483 31.9751 22.4926 31.9791 22.5032C31.9831 22.5137 31.9849 22.525 31.9842 22.5363V24.0384C31.9849 24.0496 31.9831 24.0609 31.9791 24.0715C31.9751 24.082 31.9689 24.0916 31.9609 24.0996C31.9529 24.1076 31.9434 24.1138 31.9328 24.1178C31.9223 24.1218 31.911 24.1235 31.8997 24.1228H30.5155C30.5086 24.1219 30.5016 24.1225 30.4951 24.1247C30.4885 24.1269 30.4825 24.1305 30.4776 24.1354C30.4727 24.1403 30.4691 24.1463 30.4669 24.1529C30.4647 24.1594 30.4641 24.1664 30.4651 24.1733V24.646C30.4658 24.6592 30.4714 24.6715 30.4807 24.6808C30.49 24.6901 30.5024 24.6957 30.5155 24.6965H31.1735C31.1804 24.6955 31.1874 24.6961 31.194 24.6983C31.2005 24.7005 31.2065 24.7042 31.2114 24.7091C31.2163 24.7139 31.22 24.7199 31.2221 24.7265C31.2243 24.733 31.225 24.74 31.224 24.7469V26.266C31.2224 26.2829 31.215 26.2986 31.203 26.3105C31.1911 26.3225 31.1753 26.3299 31.1585 26.3315H30.4808C30.4467 26.3315 30.4303 26.3485 30.4303 26.397V26.8868C30.4294 26.8936 30.43 26.9006 30.4322 26.9072C30.4343 26.9137 30.438 26.9197 30.4429 26.9246C30.4478 26.9295 30.4538 26.9332 30.4604 26.9354C30.4669 26.9376 30.4739 26.9382 30.4808 26.9372H31.9154C31.9267 26.9365 31.938 26.9383 31.9485 26.9423C31.9591 26.9463 31.9687 26.9525 31.9766 26.9605C31.9846 26.9684 31.9908 26.978 31.9948 26.9886C31.9989 26.9991 32.0006 27.0104 31.9999 27.0217V28.5749C32.0006 28.5861 31.9989 28.5974 31.9948 28.608C31.9908 28.6185 31.9846 28.6281 31.9766 28.6361C31.9687 28.6441 31.9591 28.6503 31.9485 28.6543C31.938 28.6583 31.9267 28.66 31.9154 28.6593H28.9446C28.92 28.6568 28.8974 28.6448 28.8816 28.6258C28.8658 28.6069 28.8581 28.5824 28.8601 28.5578V22.548L28.8438 22.5533Z" fill="black" stroke="#FCEE21" stroke-width="0.5"/>
<path d="M17.5311 27.3303L22.5109 25.6593C22.5109 25.6593 17.5816 26.2486 17.0106 25.3725C17.0106 25.3725 15.7953 23.6844 16.3525 25.7437C15.5078 23.0931 12.9423 27.955 17.5311 27.3303Z" fill="black" stroke="#FFEF00"/>
<path d="M23.4241 17.657C22.6253 18.3075 21.724 18.8209 20.7571 19.1762C19.6092 19.48 16.1486 20.1721 15.8277 20.8983C15.4898 21.6245 15.3215 22.0462 16.2861 23.7343C17.248 25.4053 17.1131 26.5702 17.8393 26.8406C18.5654 27.1274 16.5225 27.4653 16.5054 27.4653C16.4884 27.4653 12.6421 24.7472 12.5891 24.1736C12.536 23.6 12.8254 17.7926 13.7199 17.3709C14.6144 16.9492 17.4169 14.383 19.105 14.3326C20.7761 14.2822 23.4267 17.6583 23.4267 17.6583" fill="black"/>
<path d="M15.3215 19.4814C15.6193 20.3282 16.0715 21.1124 16.6553 21.7942C16.8567 22.0397 17.1126 22.2347 17.4028 22.3636C17.6929 22.4926 18.0092 22.5519 18.3264 22.5367C18.1005 22.623 17.8582 22.6576 17.6172 22.6382C17.0306 22.5575 16.4735 22.3312 15.9966 21.9802C15.6587 21.5919 14.7138 20.444 14.7138 20.444L14.1396 22.0476C14.7866 22.5749 15.502 23.0121 16.2664 23.3474C17.1608 23.6172 17.8379 23.6853 18.1064 23.4993C17.9432 23.6299 17.7528 23.7221 17.5491 23.7691C17.1857 23.8284 16.8151 23.8284 16.4517 23.7691C16.0464 23.7187 14.6962 23.5327 14.6962 23.5327L16.4347 24.748C16.8905 24.9757 17.3939 25.0915 17.9034 25.0859C17.608 25.1838 17.302 25.2462 16.9919 25.2719C16.7221 25.2719 14.5776 24.968 14.5776 24.968L13.0762 22.1484L14.2915 19.0591L15.3215 19.4814Z" fill="black"/>
<path d="M14.3764 12.0361C13.9037 12.0361 10.0718 12.374 8.99134 13.8761C8.21474 14.9395 7.10092 17.0847 8.34963 21.3546C9.73388 26.0646 15.7607 27.7717 16.8071 27.297C17.8534 26.8222 16.9086 26.1661 16.79 25.8957C16.6886 25.6423 15.3383 23.8534 15.0515 23.1102C14.7477 22.384 15.6258 19.8185 16.0135 19.717C16.2413 19.6346 16.4862 19.6116 16.7254 19.65C16.9646 19.6883 17.1901 19.7869 17.3807 19.9363C17.7186 20.3076 18.596 20.6959 18.6975 19.1768C18.8081 18.0591 19.0344 16.956 19.3726 15.8851L14.3764 12.0361Z" fill="#FCEE21" stroke="black"/>
<path d="M9.49876 13.5049C8.43809 14.6342 7.84675 16.1248 7.84473 17.6741C7.88574 19.5198 8.31126 21.3367 9.09409 23.0087C9.43197 23.8868 12.4703 26.7228 14.952 27.1275C17.0788 27.6173 17.1128 26.9251 17.1128 26.9251C16.9268 26.9756 15.9649 27.3979 14.1249 26.6887C12.2679 25.9796 10.445 24.2915 9.86872 22.6545C9.29739 20.8345 8.99603 18.9405 8.97426 17.033C8.99129 15.6658 10.1529 13.0996 10.1529 13.0996L9.49876 13.5049Z" fill="#FCF69F"/>
<path d="M11.4404 12.5771C11.4404 13.3197 13.8036 18.7558 15.053 19.7518C16.3023 20.7478 18.2098 20.4099 18.6151 20.258C19.0204 20.1061 17.0436 17.1012 16.8596 16.7469C16.6736 16.3586 14.8677 11.6322 15.0196 11.1929C15.1715 10.7535 13.8213 10.9735 13.3315 11.058C12.8587 11.1254 11.4404 12.5771 11.4404 12.5771Z" fill="black" stroke="black"/>
<path d="M16.2009 25.0357C14.9955 25.2029 13.7717 25.1859 12.5714 24.9852C11.5662 24.72 10.5928 24.3468 9.66797 23.8721C10.4302 24.6751 11.2666 25.4043 12.166 26.0499C12.8241 26.3538 16.1499 26.4042 16.6567 25.7291C17.1799 25.0357 16.2009 25.0357 16.2009 25.0357Z" fill="black"/>
<path d="M15.4077 23.8202C14.1195 23.8115 12.8416 23.5891 11.6262 23.1621C10.4677 22.8157 9.37718 22.2733 8.40197 21.5585L7.84473 18.9746C7.84473 18.9746 10.0226 21.1014 11.6262 21.6593C13.2128 22.2165 15.0698 22.6553 15.0698 22.6553" fill="black"/>
<path d="M7.97949 16.0882C8.6322 17.4974 9.65286 18.7044 10.934 19.5822C12.2582 20.3941 13.7155 20.9656 15.2386 21.2703L15.441 20.681C15.441 20.681 15.0527 20.647 12.1152 18.6046C11.3053 18.0396 10.6349 17.2973 10.1552 16.4341C9.67543 15.5709 9.39892 14.6097 9.34672 13.6235C8.95842 13.689 8.35077 14.9908 8.35077 14.9908L7.97949 16.0882Z" fill="black"/>
<path d="M24.4215 12.3572C24.0673 10.5847 22.1088 9.738 20.7586 9.48721C19.4084 9.23642 15.5424 9.58871 15.0022 10.7366C14.4783 11.9015 14.5438 14.0106 14.6813 14.8389C14.8188 15.6672 16.1671 16.0372 16.6392 16.2736C17.129 16.493 17.7524 15.8152 18.3103 16.4255C18.8505 17.0332 21.0113 18.367 21.4533 18.35C21.9117 18.35 23.0065 17.2368 23.0065 17.2368L24.4215 12.3572Z" fill="#FCEE21" stroke="black"/>
<path d="M23.1209 10.0944L23.9309 7.56232L24.2177 6.70125C23.5863 5.52678 22.8638 4.40363 22.0569 3.34211C21.1624 2.29443 20.4533 2.35991 20.4533 2.35991C20.0855 2.2201 19.6922 2.15984 19.2994 2.18309C18.9067 2.20634 18.5233 2.31258 18.1745 2.4948C17.4769 2.78066 16.8535 3.22156 16.3516 3.78411L16.9088 3.93602L19.0192 8.49411L21.0111 10.8069L23.3409 11.3307" fill="#FCEE21"/>
<path d="M20.0996 2.38011C20.7878 2.98569 21.4257 3.64615 22.0071 4.355C22.5643 5.13159 23.4758 5.7052 23.2053 7.66372C22.9349 9.62223 23.1549 10.2299 23.1549 10.2299L24.0494 6.53287C23.6282 5.56779 23.0774 4.66459 22.4124 3.84818C21.2475 2.37945 20.5383 2.22754 20.5383 2.22754L20.0996 2.38011Z" fill="#FCF69F"/>
<path d="M20.6909 3.7984C20.5325 3.47447 20.3014 3.19146 20.0158 2.97138C19.6779 2.78542 19.3577 2.9059 19.1377 2.85352C19.44 2.90061 19.7217 3.03566 19.9477 3.24181C20.167 3.52862 20.6228 4.4401 20.8421 4.8284C21.0615 5.2167 21.0956 4.9299 21.3994 5.77394C21.7032 6.63501 22.3279 7.47643 22.3109 7.7999L21.973 6.09741L20.6909 3.7984Z" fill="#FCF69F"/>
<path d="M23.0371 13.3701L23.6448 11.6316C23.5807 11.2936 23.461 10.9686 23.2905 10.6697C23.1216 10.4838 24.0331 11.4293 24.0331 11.4293L23.0371 13.3701Z" fill="black"/>
<path d="M23.3578 11.5806C23.3877 10.7551 23.4667 9.93207 23.5942 9.11592C23.7632 8.5266 24.4553 6.82018 24.4553 6.82018C24.4553 6.82018 22.7672 2.53253 20.6574 2.11018C18.5477 1.68783 17.6866 2.31251 17.0789 2.93719C16.7993 3.27056 16.4384 3.52628 16.0312 3.67974L17.9898 8.86251C17.9898 8.86251 20.0321 9.36867 20.9947 9.72358L20.0328 8.98103C19.3873 8.25693 18.7843 7.49608 18.2268 6.70231C17.7881 5.97614 16.6402 4.18721 16.6402 4.18721L16.5387 3.84933C16.9674 3.38421 17.4489 2.97064 17.9734 2.617C18.273 2.44445 18.6074 2.34124 18.9521 2.31495C19.2968 2.28866 19.643 2.33996 19.9653 2.46508C21.0457 2.8704 20.3706 2.36359 20.3706 2.36359C20.7113 2.39996 21.034 2.5349 21.2991 2.75188C21.5526 3.03869 24.0847 5.43658 23.9184 6.97209C23.8169 7.91763 22.9362 9.69018 23.0069 10.0948C23.0949 10.5965 23.2121 11.0926 23.3578 11.5806Z" fill="black"/>
<path d="M21.805 5.24741C22.0492 5.98081 22.2078 6.73995 22.2778 7.50976C22.2778 7.50976 21.7539 5.41439 21.2818 4.89054C20.9588 4.49065 20.7126 4.03442 20.5557 3.54492C20.5557 3.54492 20.978 3.93322 21.145 4.13424C21.3835 4.49403 21.6038 4.86556 21.805 5.24741Z" fill="black"/>
<path d="M20.2337 10.5508L15.2029 11.2089L10.9656 12.4916L7.21819 13.8425L4.31479 13.4882L3.47075 11.2933L1.15929 8.89872C0.797813 8.01777 0.553664 7.09313 0.433114 6.14855C0.36436 4.99675 1.76564 3.56208 1.76564 3.56208L3.58861 3.44421L4.95715 2.59952L6.77947 0.320801L8.38308 0.438665L9.32862 0.489085L14.1565 2.7678L17.4822 4.82716L18.8665 5.82115L20.2337 10.5508Z" fill="#FCEE21"/>
<path d="M8.6875 5.21582C8.6875 5.21582 10.259 5.68859 10.8484 5.85753C11.4377 6.04349 14.4269 6.6171 14.4269 6.6171C14.4269 6.6171 16.3513 6.73496 17.0094 7.78199C17.6276 8.95667 18.1579 10.1755 18.596 11.4286C18.596 11.4286 17.4311 9.43668 15.743 8.84605C14.7237 8.4895 13.6488 8.31808 12.5692 8.33989C12.8849 8.17505 13.2196 8.04949 13.5658 7.96599L14.1734 7.81408L14.1224 7.31119C13.4316 7.14402 12.7499 6.9412 12.08 6.70353C11.3545 6.38072 8.6875 5.21582 8.6875 5.21582Z" fill="#FCF69F"/>
<path d="M6.0029 2.09315C6.0029 2.09315 6.01992 1.92421 6.94844 2.11018C7.74437 2.29979 8.52808 2.53748 9.29525 2.82195C9.29525 2.82195 10.3253 3.12578 11.7599 3.61557C13.1946 4.10536 14.9842 4.74641 14.9842 4.74641C15.68 5.01861 16.3336 5.3881 16.9257 5.84386C17.4318 6.35003 20.184 10.3679 20.184 10.3679C19.9008 8.43463 19.1663 6.5952 18.0401 4.99851C18.0401 4.99851 11.2204 1.09916 9.41377 0.676812C7.60717 0.254464 6.99951 0.457453 6.99951 0.457453C6.99951 0.457453 6.0029 1.16464 5.90206 1.56996C5.7842 1.95826 6.0029 2.09315 6.0029 2.09315Z" fill="#FCF69F"/>
<path d="M20.2344 10.5508C20.2344 10.5508 19.5252 6.95532 19.1867 5.63982C18.6 5.04378 17.9422 4.52214 17.2282 4.08663C16.3229 3.66654 15.4435 3.19294 14.5945 2.66832C14.3411 2.39854 12.4003 1.62064 12.0794 1.35151C11.1465 0.917312 10.1746 0.572225 9.17669 0.320854C8.43575 0.135688 7.67755 0.0281576 6.91434 0C6.59349 0.0654803 6.15477 0.692127 5.86666 0.911486C5.57986 1.14787 4.1956 2.81893 3.75623 2.98787C3.24614 3.16009 2.70314 3.21208 2.16964 3.13978C2.03475 3.03829 1.42709 3.05531 0.971349 3.78149C0.515606 4.50767 -0.0881224 5.8749 0.0107529 6.73531C0.220731 7.76546 0.738884 8.70745 1.4965 9.43637C2.34054 10.3649 2.81331 10.5672 3.42097 11.7996C3.73482 12.4233 3.99464 13.0729 4.19757 13.741C5.20263 13.8962 6.22267 13.9303 7.23585 13.8425C8.58511 13.5784 9.8993 13.1592 11.1522 12.5932C11.8444 12.2219 14.461 11.5802 14.8997 11.3268C14.8997 11.3268 12.0467 11.9515 11.1352 12.2553C10.2237 12.5591 8.09692 13.5387 7.11471 13.5387C5.76451 13.5217 4.43002 13.4372 4.43002 13.4372C4.20162 12.5617 3.85511 11.7212 3.40002 10.9391C2.87617 10.2811 1.18874 8.91318 0.86789 7.90086C0.479748 7.03078 0.449408 6.04294 0.783421 5.15068C1.0234 4.59576 1.38873 4.10401 1.85075 3.71404C2.27861 3.69586 2.70722 3.70724 3.13351 3.74809C3.8432 3.83431 4.54421 3.98108 5.22888 4.18681C5.85356 4.38915 8.09888 5.46957 8.09888 5.46957L5.64861 4.08532L4.02863 3.46064C4.55403 3.12817 5.02142 2.71188 5.41223 2.2283C6.07096 1.4183 6.12138 1.13085 6.56075 0.844042C6.90401 0.585805 7.33144 0.465284 7.75904 0.506163C8.49083 0.591359 9.21025 0.761217 9.90287 1.01233C10.8328 1.32218 11.7408 1.69407 12.621 2.12549C13.2627 2.49677 13.8363 2.73315 14.478 3.1077C15.1197 3.46195 16.5884 4.18812 17.2635 4.67922C17.8379 5.04149 18.3366 5.51156 18.7322 6.06348C19.1539 6.66786 20.2344 10.5508 20.2344 10.5508Z" fill="black"/>
<path d="M18.0392 10.0612C18.0392 10.0612 17.0772 7.71506 16.8605 7.29271C16.7324 7.11051 16.5695 6.95552 16.3811 6.83672C16.1927 6.71792 15.9827 6.63765 15.7631 6.60058C15.4566 6.51611 12.2998 6.51611 12.2998 6.51611L14.9504 6.90441C15.1842 6.92539 15.4151 6.97082 15.6393 7.03996C15.8817 7.1438 16.1088 7.28016 16.3144 7.44528C16.1318 7.39945 15.9452 7.37117 15.7572 7.36081C15.5378 7.36081 15.1325 7.64761 14.9976 7.68166C14.8251 7.7397 14.6606 7.81911 14.5078 7.91805C14.8784 7.82751 15.2639 7.81568 15.6393 7.88334C16.0446 8.03526 16.3314 7.90037 16.6353 8.17015C16.8391 8.3666 17.0309 8.57521 17.2095 8.79483L18.0392 10.0612Z" fill="black"/>
<path d="M17.4996 19.8685L16.5173 18.3323C16.4408 17.9791 16.4422 17.6133 16.5213 17.2606C16.6005 16.9079 16.7555 16.5767 16.9757 16.29L17.7183 15.446L20.1659 12.3029L22.884 11.7627L23.9972 11.7797L25.314 15.2738L26.4448 15.1893L27.5252 15.0033L27.812 15.4931L26.6812 19.6793L24.7063 21.3818L22.4106 21.4833L21.0263 20.7237L19.9289 21.5677L18.8655 21.6692L18.2762 21.1454L17.4996 19.8685Z" fill="#FCEE21"/>
<path d="M19.8118 19.3965C19.8118 19.3965 22.6478 22.0301 24.4877 20.8148C25.5918 20.081 26.4366 19.0178 26.902 17.7765C27.1635 17.0305 27.3557 16.262 27.4763 15.4807C27.4258 15.0924 27.9824 15.6327 27.9824 15.6327L26.8346 19.8358C26.8346 19.8358 25.1465 21.5383 24.0661 21.6254C22.9856 21.7125 21.0612 20.7473 21.0612 20.7473L19.8963 21.6758L18.9141 21.6929L19.4713 20.8148L19.8118 19.3965Z" fill="#C0C43D"/>
<path d="M18.5801 19.2447C18.7739 19.1028 18.9835 18.9839 19.2048 18.8905C19.4582 18.806 20.0318 18.6541 20.0318 18.6541L19.1039 18.603L18.5801 19.2447Z" fill="#C0C43D"/>
<path d="M25.2314 15.6827C25.2655 15.5982 25.8391 15.8686 26.2137 15.7482C26.4345 15.6751 26.6445 15.5729 26.8383 15.4443C26.9591 15.3584 27.0976 15.3007 27.2437 15.2754C27.3281 15.2754 27.5141 15.2924 27.4126 15.3599C27.3111 15.4273 26.653 15.8837 26.653 15.8837L25.9105 15.9852L25.2314 15.6827Z" fill="#C0C43D"/>
<path d="M19.1875 13.7753C19.3434 13.491 19.5303 13.2248 19.7447 12.9817C19.9471 12.8127 20.8756 12.2896 20.8756 12.2896L19.7277 12.5593C19.5488 12.8545 19.3853 13.1587 19.2379 13.4708C19.2045 13.6398 19.1875 13.7753 19.1875 13.7753Z" fill="#C0C43D"/>
<path d="M23.6275 11.5801C23.6275 11.5801 23.526 11.5461 23.5621 11.7995C23.5981 12.0529 23.731 12.3738 23.545 12.5087C23.3591 12.6265 23.2412 12.6946 23.2412 12.6946C23.5199 12.6821 23.7961 12.7525 24.0348 12.897C24.2919 13.1037 24.4756 13.3877 24.5587 13.7069C24.6091 13.9767 24.6765 14.5169 24.4742 14.7369C24.2719 14.957 24.9326 15.5306 24.9326 15.5306L25.3379 15.3112L25 13.5891L23.6275 11.5801Z" fill="#C0C43D"/>
<path d="M23.6784 14.6335C23.6763 14.7201 23.7064 14.8043 23.7629 14.8699C23.7136 14.9348 23.679 15.0097 23.6614 15.0893C23.6448 15.2044 23.6623 15.3219 23.7118 15.4271C23.7118 15.4271 23.7118 15.4926 23.9816 15.5791C24.2514 15.6655 24.5218 15.8488 24.3194 15.9844C24.1171 16.1199 24.4373 16.2882 24.4373 16.2882L24.8256 15.8829L24.7077 15.2936L24.2494 14.7697L23.6921 14.5674" fill="#C0C43D"/>
<path d="M21.6693 14.0957L21.6038 14.2306C21.653 14.2953 21.6887 14.3692 21.709 14.4479C21.7292 14.5266 21.7335 14.6086 21.7217 14.689C21.7208 14.8134 21.7094 14.9376 21.6877 15.0602L22.093 15.1447C22.093 15.1447 21.1645 15.2626 20.7428 15.347C20.3459 15.4605 19.97 15.6374 19.6296 15.8709L19.5281 15.9364C19.5282 15.8857 19.5387 15.8356 19.559 15.7892C19.5792 15.7428 19.6089 15.701 19.646 15.6666C19.7195 15.5718 19.8047 15.4867 19.8994 15.4132L20.0173 15.3287C20.0173 15.3287 19.8483 15.3627 19.7809 15.0078C19.7134 14.6529 19.7305 14.6366 19.7305 14.6366C19.616 14.6091 19.5032 14.5752 19.3926 14.5351C19.6322 14.4374 19.8809 14.3639 20.1351 14.3157L21.6713 14.0964" fill="#C0C43D"/>
<path d="M25.2132 15.244C25.1939 15.0301 25.1996 14.8148 25.2302 14.6022C25.1356 14.0248 24.9229 13.4731 24.6055 12.9816C24.4195 12.6948 23.8793 11.5129 23.8793 11.5129L23.8623 11.395" stroke="black" stroke-width="3"/>
<path d="M22.3096 16.628C22.5279 16.4711 22.7166 16.2767 22.8668 16.0537C22.9165 15.9725 22.9859 15.9052 23.0685 15.858C23.1512 15.8109 23.2444 15.7854 23.3396 15.7839C23.5381 15.7789 23.7364 15.8009 23.9289 15.8494C24.0808 15.8998 24.2157 15.8834 24.2832 16.0013C24.3506 16.1192 24.0134 16.1192 24.0134 16.1192C23.8653 16.0486 23.7045 16.0085 23.5406 16.0013C23.3283 15.9691 23.1117 16.0172 22.9329 16.1362C22.7994 16.2737 22.3096 16.628 22.3096 16.628Z" fill="black"/>
<path d="M24.4713 16.2057C24.4713 16.2057 23.7962 15.9693 23.5599 16.2712C23.3829 16.4941 23.2247 16.7313 23.0871 16.9804C22.9774 17.159 22.8532 17.3283 22.7158 17.4865C22.7158 17.4865 23.256 16.9463 23.3575 16.8114C23.4459 16.6825 23.5542 16.5685 23.6784 16.4735C23.8234 16.3794 23.9962 16.3378 24.1682 16.3557C24.2611 16.3624 24.3523 16.3846 24.4379 16.4212L24.4713 16.2057Z" fill="black"/>
<path d="M23.4577 18.1978C23.7233 17.8755 23.9605 17.5309 24.1669 17.1678C24.2684 16.8981 24.5552 16.1378 24.5892 15.9525C24.6412 15.7308 24.7521 15.5272 24.9101 15.3632C25.062 15.2453 25.0961 15.3292 25.3324 15.2977C25.5813 15.2664 25.8253 15.2039 26.0586 15.1118C26.1765 15.0613 26.5825 14.8079 26.6663 14.7575C26.8296 14.6638 27.0062 14.5956 27.1901 14.5552C27.3872 14.5875 27.5729 14.6688 27.7303 14.7916C27.8858 14.9662 28.0112 15.1653 28.1016 15.3809C28.152 15.5158 27.6793 19.2632 26.3631 20.5636C24.9789 21.9309 24.6076 21.982 23.3582 21.9139C22.5758 21.8556 21.8209 21.6001 21.164 21.1713C20.8431 21.0364 20.9616 21.0364 20.9616 21.0364C20.8395 21.2047 20.704 21.3628 20.5563 21.5092C20.2141 21.8353 19.7625 22.0221 19.2899 22.033C19.0372 22.0446 18.7852 21.9973 18.5538 21.8951C18.3223 21.7928 18.1178 21.6383 17.9561 21.4437C17.7019 21.0221 17.4925 20.5751 17.3314 20.1099L17.1291 19.586C16.9689 19.4081 16.8326 19.21 16.7237 18.9967C16.5863 18.7357 16.4842 18.4576 16.4199 18.1697C16.5737 18.4405 16.7484 18.6988 16.9425 18.9424C17.1788 19.2121 17.6005 19.6175 17.6005 19.6175L18.0589 20.6304C18.1112 20.8271 18.2087 21.0088 18.3435 21.1612C18.4783 21.3136 18.6467 21.4326 18.8355 21.5085C19.0292 21.5832 19.237 21.6143 19.444 21.5997C19.6511 21.5851 19.8525 21.5251 20.0338 21.4241C20.2959 21.2279 20.539 21.0076 20.76 20.766L20.4902 20.4962L20.1863 20.9186C20.1221 21.0093 20.0355 21.0819 19.9348 21.1292C19.8342 21.1765 19.723 21.1969 19.6121 21.1883C19.3449 21.1627 19.0918 21.0567 18.8859 20.8845L18.751 20.783C18.9143 21.067 19.1799 21.2778 19.4936 21.3723C19.1997 21.3841 18.9117 21.2882 18.6836 21.1026C18.6212 21.0323 18.5802 20.9457 18.5652 20.8529C18.5503 20.7601 18.562 20.665 18.5991 20.5787C18.6898 20.3577 18.8152 20.1526 18.9704 19.9711C19.0741 19.8598 19.17 19.7414 19.2572 19.6168C19.3467 19.407 19.4256 19.1928 19.4936 18.9751C19.5106 18.9247 19.5276 18.941 19.5276 18.941C19.6857 19.2167 19.8844 19.467 20.1169 19.6836C20.4037 19.92 21.1646 20.5951 21.4508 20.764C21.7369 20.933 23.9829 22.3172 25.671 20.5106C26.68 19.4312 27.339 18.072 27.5614 16.6113C27.6654 16.3133 27.7112 15.998 27.6963 15.6827C27.6308 15.3619 27.5784 15.21 27.291 15.1085C27.0035 15.007 26.9197 15.2434 26.6159 15.3783C26.3318 15.5139 26.0188 15.5778 25.7044 15.5642C25.3835 15.5302 25.1471 15.5302 25.0627 15.6991C24.9105 16.1765 24.7301 16.6444 24.5225 17.1004C24.3876 17.2693 24.2357 17.4887 24.1512 17.5732C24.0143 17.6576 23.4577 18.1978 23.4577 18.1978Z" fill="black"/>
<path d="M26.2274 16.0714C26.5675 16.0461 26.8862 15.8956 27.1219 15.649C27.2148 15.5552 27.2996 15.4535 27.3753 15.3452C27.0897 15.5376 26.7767 15.6855 26.4468 15.7839C26.2501 15.8657 26.0363 15.8977 25.8244 15.8771C25.6124 15.8566 25.4087 15.7841 25.2314 15.6661C25.3709 15.8628 25.5736 16.0059 25.8057 16.0714C25.9453 16.0942 26.0878 16.0942 26.2274 16.0714Z" fill="black"/>
<path d="M19.1369 18.7194C19.4227 18.642 19.7196 18.6134 20.015 18.635C19.708 18.5776 19.398 18.5383 19.0865 18.5171C18.9346 18.5341 18.5967 19.2092 18.5967 19.2092L19.1369 18.7194Z" fill="black"/>
<path d="M21.5172 14.5848C21.5423 14.7163 21.5247 14.8524 21.4668 14.9731C21.5633 14.9735 21.6596 14.9849 21.7536 15.0071C21.8714 15.0412 22.1248 15.142 22.1248 15.142C21.7329 15.1084 21.339 15.1027 20.9462 15.125C20.7293 15.1621 20.515 15.2129 20.3045 15.2769C20.1866 15.3109 19.7806 15.4963 19.7806 15.4963C19.8826 15.4108 19.9897 15.3319 20.1015 15.2599C20.1519 15.2428 20.1519 15.2095 20.1519 15.2095C20.1077 15.1159 20.0684 15.0202 20.0341 14.9226C20.0084 14.7693 20.02 14.6121 20.0681 14.4643C19.9738 14.4845 19.8777 14.4959 19.7813 14.4983C19.6634 14.5154 19.376 14.5154 19.376 14.5154C19.5665 14.4418 19.7525 14.3571 19.9332 14.262C20.1084 14.156 20.2954 14.071 20.4904 14.0085C20.7021 13.9687 20.9187 13.9629 21.1322 13.9915C21.3551 14.0382 21.5805 14.0721 21.8073 14.093C21.7033 14.1275 21.5956 14.1495 21.4864 14.1585C21.4281 14.1545 21.3697 14.1663 21.3175 14.1925C21.4001 14.3145 21.4672 14.4462 21.5172 14.5848Z" fill="black"/>
<path d="M23.8293 15.0406C23.7978 15.1503 23.7862 15.2647 23.7953 15.3785H23.5596C23.6592 15.3998 23.7556 15.4339 23.8464 15.48C23.978 15.5442 24.1134 15.6006 24.2517 15.6489C24.3905 15.7024 24.5259 15.7645 24.657 15.8349L24.9949 15.3765L24.9294 15.1068C24.8937 14.9866 24.83 14.8766 24.7435 14.7859C24.6052 14.7181 24.4572 14.6726 24.3047 14.651C24.2203 14.651 24.1188 14.7014 24.035 14.6851C23.9511 14.6687 23.6807 14.6006 23.6807 14.6006L24.0016 14.7695C23.9388 14.8563 23.8812 14.9469 23.8293 15.0406Z" fill="black"/>
<path d="M23.8128 15.4287C23.8733 15.412 23.9363 15.4062 23.9988 15.4117C24.0676 15.4223 24.1353 15.4392 24.2011 15.4621C24.2433 15.3967 24.266 15.3206 24.2666 15.2428C24.2653 15.2041 24.2537 15.1665 24.233 15.1338C24.2122 15.1011 24.1832 15.0745 24.1487 15.0568C24.0779 15.0312 24.0003 15.0312 23.9294 15.0568C23.8848 15.0968 23.8452 15.1421 23.8115 15.1917L23.8128 15.4287Z" fill="white"/>
<path d="M23.7793 12.6944C23.8938 12.6937 24.0078 12.7107 24.1172 12.7448C24.2085 12.7901 24.2937 12.8468 24.3706 12.9137L24.4551 13.0656C24.3497 12.9693 24.2302 12.8896 24.1008 12.8292C23.9987 12.7958 23.7793 12.6944 23.7793 12.6944Z" fill="black"/>
<path d="M21.0429 12.273C20.6871 12.2944 20.3381 12.3803 20.0129 12.5264C19.7856 12.6831 19.5811 12.8707 19.4053 13.0836C19.4053 13.0836 19.5231 12.4419 19.8276 12.324C20.2286 12.2523 20.6374 12.2351 21.0429 12.273Z" fill="black"/>
<path d="M20.2503 14.7036C20.3682 14.6532 20.6046 14.6381 20.6727 14.8215C20.7408 15.0048 20.6727 15.0238 20.6727 15.0238C20.5983 15.025 20.5245 15.0364 20.4533 15.0579C20.3737 15.0836 20.2993 15.1235 20.2339 15.1757L20.1999 15.1928L20.082 14.8549C20.1203 14.7876 20.1794 14.7346 20.2503 14.7036Z" fill="white"/>
</svg>
