<svg id="layer1" xmlns="http://www.w3.org/2000/svg" width="23.915" height="45.986" viewBox="0 0 23.915 45.986">
  <g id="Ebene_x0020_1" transform="translate(0 0)">
    <g id="_198302696" transform="translate(0 0)">
      <path id="_227268128" d="M16.1,178.509s-1.212.737.843.948a17.266,17.266,0,0,0,6.532-.263,9.881,9.881,0,0,0,1.738.843c-6.163,2.634-13.959-.158-9.113-1.528Zm-.79-3.424s-1.317,1,.737,1.212a24.913,24.913,0,0,0,8.428-.421,3.213,3.213,0,0,0,1.264.79c-7.427,2.212-15.75.211-10.43-1.58Zm14.539,6.005s.9.738-1,1.317c-3.529,1.054-14.8,1.37-17.963,0-1.106-.474,1-1.159,1.686-1.264a5.25,5.25,0,0,1,1.054-.158c-1.212-.843-8.059,1.738-3.477,2.476,12.59,2.054,22.967-.9,19.7-2.37ZM16.68,171.5s-5.742,1.37-2.054,1.844a45.812,45.812,0,0,0,7.585-.053c2.37-.211,4.741-.632,4.741-.632a12.675,12.675,0,0,0-1.422.737c-5.847,1.528-17.067.843-13.854-.737a10.927,10.927,0,0,1,5-1.159Zm10.272,5.742c5.9-3.055,3.161-6.005,1.264-5.636a3.294,3.294,0,0,0-.685.211.9.9,0,0,1,.527-.421c3.74-1.317,6.69,3.951-1.212,6.005a.653.653,0,0,0,.105-.158Zm-9.692,8.323c5.689.369,14.381-.211,14.591-2.9,0,0-.421,1.054-4.688,1.844a47.415,47.415,0,0,1-14.381.211s.737.632,4.477.843Z" transform="translate(-7.935 -154.12)" fill="#4e7896"/>
      <path id="_230367536" d="M17.6,2.985s3.266,3.319-3.108,8.323c-5.11,4.056-1.159,6.374,0,9.008-3-2.686-5.162-5.057-3.687-7.269,2.16-3.266,8.112-4.846,6.8-10.061ZM15.917,18.1c1.528,1.738-.421,3.319-.421,3.319s3.9-2,2.107-4.478c-1.633-2.37-2.9-3.529,3.951-7.48,0,0-10.8,2.687-5.636,8.639Zm-3.9,28.287V41.228c0-1.317-.737-2.212-2.581-2.212A7.234,7.234,0,0,0,6.7,39.6l.263.948a6.234,6.234,0,0,1,2.107-.421c1,0,1.475.421,1.475,1.264v.685h-.527c-2.528,0-3.687.948-3.687,2.476,0,1.264.79,2,2.212,2a3.4,3.4,0,0,0,2.212-.948l.105.79h1.159Zm-1.475-1.686a2.542,2.542,0,0,1-1.633.737A1.04,1.04,0,0,1,7.8,44.284c0-.737.421-1.264,2.107-1.264h.632v1.686Zm6.427,1.686H15.126l-2.212-7.217h1.58l1.37,4.425.316,1.317A25.426,25.426,0,0,0,17.6,39.174h1.58a30.014,30.014,0,0,1-2.212,7.217Zm8.534,0V41.228c0-1.317-.737-2.212-2.581-2.212a7.234,7.234,0,0,0-2.739.579l.211.948a6.842,6.842,0,0,1,2.16-.421c1,0,1.475.421,1.475,1.264v.685H23.5c-2.528,0-3.687.948-3.687,2.476,0,1.264.737,2,2.16,2A3.418,3.418,0,0,0,24.24,45.6l.105.79H25.5Zm-1.475-1.686a2.542,2.542,0,0,1-1.633.737,1.04,1.04,0,0,1-1.106-1.159c0-.737.421-1.264,2.107-1.264h.632v1.686ZM4.7,47.6a3.5,3.5,0,0,1-1.844,1.37l-.685-.843a3.508,3.508,0,0,0,1.264-1.212A4.469,4.469,0,0,0,3.7,44.81V36.593h1.58v8.112A4.652,4.652,0,0,1,4.7,47.6Z" transform="translate(-2.168 -2.985)" fill="#f58219"/>
    </g>
  </g>
</svg>
