<svg width="32" height="17" viewBox="0 0 32 17" fill="none" xmlns="http://www.w3.org/2000/svg">
<path d="M0.00650269 15.1385H1.08147V10.9564L2.73294 14.5915C2.79803 14.7922 2.93149 14.9638 3.11006 15.0763C3.28863 15.1888 3.501 15.235 3.71018 15.207C3.91936 15.235 4.13173 15.1888 4.3103 15.0763C4.48887 14.9638 4.62233 14.7922 4.68742 14.5915L6.33889 10.9564V15.1388H7.41386V10.9564C7.43658 10.7937 7.39531 10.6285 7.29874 10.4956C7.20217 10.3627 7.05782 10.2724 6.89605 10.2438C6.08508 9.9798 5.56694 10.2146 5.30329 10.7616L3.681 14.3675L2.08789 10.7609C1.86326 10.2136 1.30746 10.0181 0.495123 10.2431C0.33914 10.2789 0.202321 10.3721 0.111811 10.5041C0.021301 10.6361 -0.0162874 10.7973 0.00650269 10.9557V15.1385Z" fill="#00678F"/>
<path d="M8.25391 11.7284H9.32887V14.0358C9.32887 14.1627 9.35805 14.4559 9.9444 14.4559H12.2518V11.6992H13.3267V15.4613C13.3267 16.3995 12.1931 16.5949 11.6362 16.5949H8.25391V15.8824H11.5959C12.2799 15.8145 12.2114 15.4623 12.2114 15.3645V15.0714H9.97392C8.93798 15.0714 8.25391 14.5828 8.25391 14.065V11.7294V11.7284Z" fill="#00678F"/>
<path d="M31.0619 9.06047C30.5213 9.02713 29.9795 9.10354 29.4692 9.2851C29.3423 9.35296 29.1468 9.35296 29.1468 9.48055C29.2147 9.54841 29.2147 9.64681 29.2737 9.74454C29.3785 9.93469 29.5215 10.1011 29.6938 10.2332C29.8601 10.3601 30.0555 10.4972 30.2116 10.6241C30.534 10.8195 30.8957 10.9464 31.1888 11.1419C31.3843 11.2688 31.5506 11.4058 31.7362 11.5328C31.8339 11.6006 31.9024 11.699 32.0002 11.7574V11.7282C31.9323 11.6603 31.9323 11.5328 31.8733 11.4642C31.7953 11.3783 31.7066 11.3028 31.6093 11.2396C31.3793 10.9217 31.0947 10.6471 30.7688 10.4286C30.5048 10.2332 29.9283 10.0085 29.8305 9.71604H29.8014C29.9968 9.68685 30.1923 9.61831 30.3487 9.58913C30.6419 9.52127 30.8665 9.52127 31.1597 9.46222C31.2939 9.43329 31.4249 9.39077 31.5506 9.33532V9.26746C31.3843 9.10119 31.2866 8.90574 31.1305 8.77883C30.7097 8.41492 30.2657 8.07873 29.8014 7.77241C29.5374 7.60614 29.215 7.50842 28.9609 7.35233C28.8631 7.28447 28.6969 7.28447 28.6385 7.18607C28.5047 6.99584 28.3963 6.7889 28.3162 6.57054C28.0915 6.12094 27.8666 5.63232 27.6321 5.1454C27.5099 4.82499 27.3696 4.51175 27.212 4.20718C26.4563 2.92658 25.3693 1.87337 24.0655 1.15839C23.7427 0.988841 23.3916 0.879602 23.0296 0.836035C22.8341 0.836035 22.6095 0.806854 22.414 0.806854C22.2871 0.73899 22.15 0.582224 22.0231 0.513681C21.6614 0.220509 20.4694 -0.424538 20.1372 0.415957C19.9126 0.933759 20.4596 1.4519 20.655 1.74507C20.8114 1.93723 20.9519 2.14184 21.0751 2.35687C21.0922 2.50005 21.125 2.64091 21.1728 2.77694C21.2997 3.13866 21.4368 3.51972 21.5929 3.85191C21.6906 4.01818 21.7883 4.21362 21.8861 4.36971C21.9539 4.46744 22.0815 4.49662 22.0815 4.66288C21.9859 4.8571 21.92 5.0646 21.8861 5.27841C21.7413 5.72514 21.6867 6.19613 21.7252 6.66413C21.7638 7.13213 21.8948 7.58783 22.1107 8.00485C22.2376 8.20029 22.5603 8.64955 22.9512 8.49347C23.3129 8.3272 23.2443 7.87794 23.3421 7.48704C23.3713 7.38932 23.3421 7.32078 23.4099 7.26241V7.2916C23.5312 7.51287 23.6388 7.74131 23.7323 7.97566C24.0314 8.39703 24.3941 8.7695 24.8073 9.07981C24.9789 9.26929 25.1763 9.43377 25.3936 9.56843V9.53925H25.3644C25.2966 9.47139 25.2375 9.44153 25.169 9.37298C25.0097 9.22765 24.8687 9.06359 24.7489 8.88436C24.3959 8.41822 24.0915 7.91728 23.8402 7.38932C23.7133 7.12533 23.5762 6.87152 23.4785 6.60888C23.4106 6.51116 23.4106 6.34489 23.3516 6.31571C23.2049 6.48588 23.0741 6.66908 22.9607 6.86303C22.8263 7.26039 22.7506 7.67522 22.736 8.09443C22.7069 8.09443 22.7069 8.09443 22.7069 8.12361C22.4429 8.05574 22.3451 7.80125 22.2573 7.57628C21.9895 6.87836 21.9656 6.11041 22.1894 5.39717C22.2573 5.23091 22.4826 4.6846 22.3849 4.51766C22.317 4.35139 22.1602 4.25366 22.0917 4.15594C21.985 3.98856 21.8872 3.81572 21.7985 3.63814C21.6031 3.18854 21.5053 2.6609 21.2807 2.213C21.1681 1.9904 21.0269 1.78347 20.8606 1.59747C20.6911 1.39699 20.5406 1.18116 20.411 0.952761C20.3818 0.855037 20.3133 0.728131 20.3818 0.630407C20.3893 0.60243 20.4058 0.577693 20.4287 0.560027C20.4517 0.54236 20.4798 0.53275 20.5088 0.532683C20.6065 0.434959 20.9288 0.561865 21.0266 0.600547C21.3129 0.707112 21.5853 0.848178 21.8375 1.02063C21.9531 1.13662 22.0847 1.23535 22.2284 1.3138H22.3947C22.6587 1.38166 22.942 1.34298 23.2057 1.41152C23.6123 1.55827 24.0047 1.74145 24.3784 1.95884C25.4619 2.64119 26.3374 3.60785 26.9093 4.75348C27.0071 4.94893 27.0362 5.1152 27.134 5.30081C27.3002 5.6917 27.5249 6.11178 27.6813 6.50268C27.8195 6.89838 28.0172 7.2707 28.2676 7.60682C28.3945 7.77309 28.8832 7.87081 29.1081 7.96854C29.298 8.02377 29.4815 8.09907 29.6555 8.19317C29.9486 8.35944 30.2028 8.55488 30.4664 8.74049C30.586 8.73298 30.7053 8.75922 30.8107 8.81621C30.9161 8.87321 31.0034 8.95866 31.0626 9.06285L31.0619 9.06047Z" fill="#00678F"/>
<path d="M22.795 1.98569C22.6681 1.98569 22.5704 2.01487 22.4727 2.01487V2.04405H22.5018C22.5825 2.15727 22.6707 2.26497 22.7658 2.36641C22.8337 2.49331 22.8927 2.6304 22.9613 2.7573V2.72812C23.059 2.66026 23.0882 2.53267 23.0882 2.33723C23.0707 2.2742 23.037 2.21686 22.9905 2.17096C22.9514 2.08308 22.8547 2.05389 22.795 1.98569Z" fill="#00678F"/>
<path d="M14.0879 15.1386H17.1366C17.4727 15.1449 17.8061 15.0782 18.1139 14.9432C18.5635 14.7185 18.7979 14.4545 18.7979 14.0637V13.2832C18.7979 12.99 18.534 12.6969 18.0552 12.5028C17.7642 12.3953 17.4567 12.339 17.1465 12.3365H15.8472C15.4271 12.3365 15.2025 12.2096 15.1632 11.9164V11.2324C15.231 11.0077 15.3294 10.9392 15.7105 10.91H18.8278V10.1974H15.837C15.5406 10.1848 15.244 10.2178 14.9575 10.2952C14.342 10.4906 14.0488 10.813 14.0488 11.3311V11.9466C14.0488 12.4353 14.5962 12.8262 15.5048 12.9239H17.0586C17.381 12.9531 17.5472 13.0216 17.6449 13.1485C17.674 13.1724 17.6977 13.2022 17.7145 13.2359C17.7314 13.2695 17.741 13.3064 17.7427 13.344V13.9595C17.7182 14.0635 17.6597 14.1564 17.5764 14.2235C17.4442 14.3184 17.2889 14.3758 17.1268 14.3897H14.1069V15.1325H14.0872L14.0879 15.1386Z" fill="#E38D1A"/>
<path d="M25.4229 13.8981C25.4229 14.6106 25.9702 15.0317 27.0452 15.0999C27.1429 15.0999 27.2407 15.1291 27.3676 15.1291H30.1232V14.4165H27.3285C26.713 14.4165 26.4881 14.2503 26.4881 13.8987V10.2334H25.4131V13.8981H25.4229Z" fill="#E38D1A"/>
<path d="M19.4816 13.9371V11.4061C19.4816 10.7614 19.9312 10.3701 20.8107 10.2334H23.4099C24.2894 10.3603 24.739 10.7512 24.739 11.4061V13.9371C24.7636 14.1458 24.7159 14.3566 24.6039 14.5344C24.4919 14.7123 24.3223 14.8463 24.1235 14.9143L25.1594 15.8525H23.9267L23.0862 15.0721L22.2457 15.14H21.112C20.9031 15.1387 20.6955 15.1058 20.4965 15.0422C19.8321 14.876 19.4785 14.5146 19.4785 13.9381L19.4816 13.9371ZM20.6444 13.8692C20.6444 13.8984 20.6736 13.9371 20.6736 13.9669C20.7415 14.2601 20.996 14.4165 21.4164 14.4165H22.3936L21.5141 13.6056H22.716L23.4964 14.3181C23.5658 14.2829 23.6259 14.2318 23.6718 14.1689C23.7177 14.1061 23.748 14.0333 23.7604 13.9564V11.3572C23.6925 11.0641 23.438 10.9371 23.0176 10.9371H21.4249C20.9362 10.9371 20.6444 11.1326 20.6444 11.4549V13.8685V13.8692Z" fill="#E38D1A"/>
<path d="M30.6114 15.1379H30.7776V14.5515H30.9731V14.4253H30.3867V14.5522H30.6114V15.1379ZM31.7742 15.1379H31.9405V14.4253H31.7158L31.5204 14.9139L31.3249 14.4253H31.0993V15.1379H31.2262V14.5916L31.4217 15.1389H31.5194L31.7148 14.5916V15.1379H31.7742Z" fill="#E38D1A"/>
</svg>
