<svg xmlns="http://www.w3.org/2000/svg" width="43.97" height="37.836" viewBox="0 0 43.97 37.836">
  <g id="Group_105364" data-name="Group 105364" transform="translate(-862.406 -13091.424)">
    <g id="Group_104031" data-name="Group 104031" transform="translate(862.406 13091.424)">
      <path id="Path_74396" data-name="Path 74396" d="M0,7.663l17.126.054,4.867,8.406L26.95,7.717l17.02-.054L22.042,45.5Zm43.62.219-8.368.007L22.034,30.578,8.825,7.889l-8.5-.007L22.038,44.944Zm-8.639,0-7.813.058L22,16.4l-5.09-8.467-7.83-.058L22.038,30.027ZM8.93,7.82l7.9,0L22,16.4l5.147-8.573,7.895,0-13,22.554" transform="translate(0 -7.663)" fill="none"/>
      <path id="Path_74397" data-name="Path 74397" d="M22.3,8.056l7.9,0,5.165,8.573L40.511,8.06l7.895,0-13,22.554Z" transform="translate(-13.368 -7.899)" fill="#35495e"/>
      <path id="Path_74398" data-name="Path 74398" d="M.781,8.119,9.392,8.06,22.5,30.615l13-22.553,8.626.009L22.5,45.191Z" transform="translate(-0.468 -7.901)" fill="#41b883"/>
    </g>
  </g>
</svg>
