<svg width="1920" height="540" viewBox="0 0 1920 540" fill="none" xmlns="http://www.w3.org/2000/svg">
<g clip-path="url(#clip0_271_359)">
<rect width="1920" height="540" fill="#484DF3"/>
<g clip-path="url(#clip1_271_359)">
<path d="M187.443 39.5624L187.443 39.5624L187.438 39.5576C185.533 37.6524 185.524 34.8795 187.438 33.0126C189.302 31.1026 192.121 31.1037 193.984 32.9663C195.89 34.8723 195.898 37.6468 193.982 39.5137C192.073 41.4197 189.352 41.4194 187.443 39.5624Z" fill="#699BF7" stroke="#699BF7"/>
<path d="M218.344 57.37C220.254 59.2285 220.309 62.0006 218.446 63.9149C216.587 65.8249 213.815 65.8797 211.9 64.0172C209.994 62.163 209.931 59.344 211.798 57.4724C213.614 55.5577 216.434 55.5119 218.344 57.37Z" fill="#699BF7" stroke="#699BF7"/>
<path d="M236.215 88.3631C234.36 86.4564 234.353 83.684 236.271 81.8182C238.178 79.9631 240.951 79.9566 242.817 81.8742C244.672 83.7804 244.68 86.5535 242.715 88.419C240.85 90.2785 238.077 90.2763 236.215 88.3631Z" fill="#699BF7" stroke="#699BF7"/>
<path d="M211.808 39.5576L211.808 39.5577L211.803 39.5528C209.949 37.6477 209.941 34.8785 211.854 33.0127C213.719 31.1017 216.542 31.1033 218.405 33.0176C220.26 34.9235 220.267 37.6943 218.351 39.5601C216.438 41.4708 213.667 41.4162 211.808 39.5576Z" fill="#699BF7" stroke="#699BF7"/>
<path d="M236.008 57.6266L236.009 57.626C237.8 55.6297 240.619 55.3962 242.556 57.1728C244.55 58.9645 244.783 61.7819 243.007 63.717C241.212 65.7138 238.445 65.9398 236.467 64.1726C234.459 62.4204 234.241 59.6012 236.008 57.6266Z" fill="#699BF7" stroke="#699BF7"/>
<path d="M260.743 88.5167L260.743 88.5164C258.789 86.6663 258.673 83.8948 260.492 81.972L260.492 81.9717C262.342 80.0189 265.114 79.902 267.037 81.7207L267.037 81.721C268.991 83.5711 269.108 86.3427 267.288 88.2654L267.288 88.2657C265.438 90.2186 262.666 90.3354 260.743 88.5167Z" fill="#699BF7" stroke="#699BF7"/>
<path d="M242.765 32.9617L242.765 32.9617L242.77 32.9666C244.677 34.8726 244.684 37.647 242.768 39.5139C241.826 40.4545 240.672 40.9436 239.497 40.9436C238.322 40.9436 237.167 40.4536 236.224 39.5115C234.318 37.6055 234.31 34.831 236.227 32.9641C238.093 31.1008 240.86 31.1084 242.765 32.9617Z" fill="#699BF7" stroke="#699BF7"/>
<path d="M267.106 64.0683L267.106 64.0685C265.191 65.879 262.423 65.8241 260.565 63.915C258.702 62.0004 258.757 59.2261 260.716 57.3678C262.627 55.511 265.449 55.5582 267.264 57.5237C269.123 59.4389 269.066 62.2115 267.106 64.0683Z" fill="#699BF7" stroke="#699BF7"/>
<path d="M285.048 88.4654C283.141 86.6104 283.078 83.7898 284.948 81.9181C286.807 80.0103 289.624 79.9567 291.537 81.8182C293.448 83.6767 293.503 86.4488 291.64 88.3631L291.64 88.3631L291.635 88.368C289.734 90.2691 286.965 90.3304 285.048 88.4654Z" fill="#699BF7" stroke="#699BF7"/>
<path d="M267.041 32.8641L267.041 32.8643C268.995 34.7144 269.112 37.486 267.292 39.4087L267.292 39.409C265.442 41.3619 262.67 41.4787 260.747 39.66L260.747 39.6597C258.794 37.8104 258.677 35.0404 260.493 33.1178C262.301 31.1576 265.122 31.0488 267.041 32.8641Z" fill="#699BF7" stroke="#699BF7"/>
<path d="M285.115 64.0685L285.115 64.0686L285.11 64.0637C283.211 62.2161 283.087 59.3953 284.964 57.5163C286.815 55.616 289.632 55.5014 291.553 57.3701C293.456 59.2212 293.572 61.9932 291.702 63.915L291.702 63.915L291.697 63.9199C289.797 65.82 287.032 65.8815 285.115 64.0685Z" fill="#699BF7" stroke="#699BF7"/>
<path d="M284.953 39.5115L284.953 39.5116L284.948 39.5066C283.086 37.5924 283.14 34.8202 285.051 32.9617C286.965 31.0992 289.738 31.154 291.596 33.0641C293.458 34.9775 293.404 37.7481 291.497 39.6066C289.622 41.4784 286.851 41.409 284.953 39.5115Z" fill="#699BF7" stroke="#699BF7"/>
<path d="M169.647 81.8935C171.51 83.8077 171.455 86.5799 169.545 88.4384C167.63 90.3008 164.858 90.2461 162.999 88.336C161.136 86.4217 161.191 83.6496 163.102 81.7911C165.016 79.9286 167.789 79.9834 169.647 81.8935Z" fill="#699BF7" stroke="#699BF7"/>
<path d="M163.021 57.4675C164.876 55.5657 167.694 55.5049 169.564 57.3724C171.479 59.2374 171.472 62.0067 169.62 63.9125C167.754 65.8793 164.979 65.8726 163.072 64.0172C161.165 62.162 161.102 59.3391 163.021 57.4675Z" fill="#699BF7" stroke="#699BF7"/>
<path d="M194.018 88.3169L194.018 88.317C192.12 90.2659 189.343 90.3369 187.467 88.4145C185.566 86.56 185.504 83.742 187.419 81.8719C189.235 79.9597 192.053 79.9147 193.962 81.772C195.88 83.6378 195.874 86.4102 194.018 88.3169Z" fill="#699BF7" stroke="#699BF7"/>
<path d="M169.618 39.5064L169.618 39.5064L169.613 39.5113C168.673 40.4511 167.52 40.9533 166.346 40.9665C165.17 40.9797 164.014 40.5029 163.07 39.56C161.158 37.6976 161.157 34.8785 163.018 33.015C164.881 31.1034 167.7 31.1029 169.564 32.9639C171.48 34.8297 171.473 37.6005 169.618 39.5064Z" fill="#699BF7" stroke="#699BF7"/>
<path d="M193.889 57.2726L193.889 57.2729C195.842 59.1223 195.96 61.8924 194.143 63.8151C192.29 65.8199 189.519 65.9297 187.553 64.1194L187.553 64.1195L187.548 64.1146C185.596 62.2652 185.478 59.4951 187.295 57.5724C189.146 55.5702 191.966 55.4536 193.889 57.2726Z" fill="#699BF7" stroke="#699BF7"/>
<path d="M218.464 88.3631L218.464 88.3631L218.459 88.368C216.558 90.2691 213.789 90.3304 211.872 88.4655C209.965 86.6104 209.903 83.7898 211.772 81.9181C213.631 80.0103 216.448 79.9567 218.362 81.8182C220.272 83.6767 220.327 86.4488 218.464 88.3631Z" fill="#699BF7" stroke="#699BF7"/>
<path d="M315.937 39.5137C314.028 41.4197 311.307 41.4194 309.398 39.5624L309.398 39.5624L309.393 39.5576C307.488 37.6524 307.479 34.8794 309.393 33.0126C311.257 31.1026 314.076 31.1037 315.939 32.9663C317.845 34.8723 317.853 37.6468 315.937 39.5137Z" fill="#699BF7" stroke="#699BF7"/>
<path d="M340.336 57.37C342.246 59.2285 342.301 62.0006 340.438 63.9149C338.579 65.8249 335.807 65.8797 333.893 64.0172C331.986 62.1622 331.923 59.3415 333.793 57.4699C335.651 55.5622 338.422 55.5083 340.336 57.37Z" fill="#699BF7" stroke="#699BF7"/>
<path d="M358.212 88.3679L358.212 88.368L358.207 88.3631C356.352 86.4564 356.345 83.684 358.263 81.8182C360.17 79.9631 362.943 79.9566 364.809 81.8742C366.663 83.7796 366.672 86.5511 364.71 88.4166C362.885 90.2856 360.113 90.2683 358.212 88.3679Z" fill="#699BF7" stroke="#699BF7"/>
<path d="M333.764 39.5576L333.764 39.5577L333.759 39.5527C331.904 37.6469 331.897 34.8761 333.813 33.0103C335.72 31.106 338.494 31.0997 340.361 33.0176C342.215 34.9235 342.223 37.6943 340.307 39.56C338.394 41.4708 335.623 41.4162 333.764 39.5576Z" fill="#699BF7" stroke="#699BF7"/>
<path d="M357.999 57.6266L358 57.626C359.791 55.6297 362.611 55.3961 364.547 57.1728C366.541 58.9645 366.774 61.7819 364.998 63.717C363.203 65.7138 360.436 65.9398 358.458 64.1726C356.45 62.4204 356.232 59.6012 357.999 57.6266Z" fill="#699BF7" stroke="#699BF7"/>
<path d="M382.735 88.5167L382.735 88.5164C380.782 86.6663 380.665 83.8948 382.484 81.972L382.484 81.9717C384.334 80.0189 387.106 79.902 389.029 81.7207L389.029 81.721C390.983 83.5711 391.099 86.3427 389.28 88.2654L389.28 88.2657C387.43 90.2186 384.658 90.3354 382.735 88.5167Z" fill="#699BF7" stroke="#699BF7"/>
<path d="M364.726 32.9666C366.633 34.8726 366.641 37.647 364.724 39.5139C362.818 41.4174 360.044 41.4245 358.178 39.5091C356.274 37.6031 356.267 34.8302 358.183 32.9641C360.046 31.1034 362.864 31.1042 364.726 32.9666Z" fill="#699BF7" stroke="#699BF7"/>
<path d="M389.098 64.0683L389.098 64.0685C387.184 65.879 384.415 65.8241 382.557 63.915C380.694 62.0004 380.749 59.2261 382.708 57.3678C384.619 55.511 387.441 55.5582 389.256 57.5237C391.116 59.4389 391.058 62.2115 389.098 64.0683Z" fill="#699BF7" stroke="#699BF7"/>
<path d="M413.631 88.3631L413.631 88.3631L413.627 88.368C411.725 90.2691 408.956 90.3304 407.039 88.4655C405.132 86.6104 405.07 83.7898 406.939 81.9181C408.798 80.0103 411.615 79.9567 413.529 81.8182C415.44 83.6767 415.494 86.4488 413.631 88.3631Z" fill="#699BF7" stroke="#699BF7"/>
<path d="M388.996 32.8641L388.996 32.8643C390.949 34.7145 391.066 37.486 389.247 39.4087L389.247 39.409C387.397 41.3619 384.625 41.4788 382.702 39.66L382.702 39.6597C380.749 37.8104 380.632 35.0404 382.448 33.1178C384.256 31.1576 387.077 31.0488 388.996 32.8641Z" fill="#699BF7" stroke="#699BF7"/>
<path d="M407.107 64.0685L407.107 64.0686L407.102 64.0637C405.203 62.2161 405.079 59.3954 406.956 57.5164C408.807 55.616 411.624 55.5014 413.545 57.3701C415.448 59.2212 415.564 61.9932 413.694 63.915L413.694 63.915L413.689 63.9199C411.789 65.82 409.024 65.8815 407.107 64.0685Z" fill="#699BF7" stroke="#699BF7"/>
<path d="M406.905 39.5067C405.042 37.5924 405.096 34.8202 407.007 32.9617C408.921 31.0992 411.694 31.154 413.553 33.0641C415.416 34.9783 415.361 37.7505 413.451 39.609C411.536 41.4715 408.763 41.4167 406.905 39.5067Z" fill="#699BF7" stroke="#699BF7"/>
<path d="M316.01 88.3171L316.01 88.3173C315.071 89.2815 313.918 89.7979 312.741 89.8178C311.564 89.8376 310.406 89.3598 309.462 88.4171C307.557 86.5618 307.495 83.7406 309.413 81.8697C311.272 79.9644 314.041 79.9114 315.954 81.7722C317.872 83.6381 317.866 86.4104 316.01 88.3171Z" fill="#699BF7" stroke="#699BF7"/>
<path d="M315.882 57.2725L315.882 57.2727C317.835 59.1229 317.952 61.8944 316.133 63.8171L316.133 63.8174C314.282 65.7703 311.511 65.8872 309.588 64.0684L309.587 64.0682C307.635 62.2188 307.517 59.4488 309.334 57.5262C311.142 55.566 313.962 55.4572 315.882 57.2725Z" fill="#699BF7" stroke="#699BF7"/>
<path d="M340.457 88.3631L340.457 88.3632L340.448 88.3727C338.507 90.2615 335.74 90.3372 333.863 88.4631C331.958 86.608 331.897 83.789 333.765 81.9181C335.624 80.0103 338.441 79.9567 340.355 81.8182C342.265 83.6767 342.32 86.4488 340.457 88.3631Z" fill="#699BF7" stroke="#699BF7"/>
<path d="M267.34 15.0563L267.34 15.0563L267.335 15.0612C266.374 16.0219 265.212 16.5363 264.033 16.5627C262.852 16.589 261.694 16.1251 260.748 15.205C258.848 13.3574 258.725 10.5366 260.601 8.6576C262.453 6.75727 265.27 6.64262 267.191 8.51137C269.094 10.3625 269.21 13.1345 267.34 15.0563Z" fill="#699BF7" stroke="#699BF7"/>
<path d="M291.741 15.1026L291.741 15.1026L291.737 15.1074C289.835 17.0086 287.066 17.0699 285.149 15.2049C283.242 13.3498 283.18 10.5292 285.049 8.65749C286.908 6.74963 289.725 6.69597 291.639 8.55758C293.549 10.4161 293.604 13.1883 291.741 15.1026Z" fill="#699BF7" stroke="#699BF7"/>
<path d="M162.969 8.66039C164.824 6.7072 167.646 6.64543 169.517 8.51416C171.417 10.3645 171.533 13.1335 169.666 15.0544C167.807 17.0136 165.033 17.0683 163.118 15.2054C161.219 13.3586 161.095 10.5394 162.969 8.66039Z" fill="#699BF7" stroke="#699BF7"/>
<path d="M194.256 14.8964L194.251 14.9021L194.245 14.9077C192.408 16.8984 189.641 17.1305 187.66 15.3582L187.659 15.3577C185.662 13.5661 185.429 10.7474 187.206 8.81156C188.996 6.819 191.811 6.58492 193.746 8.35599C195.807 10.114 195.963 12.9306 194.256 14.8964Z" fill="#699BF7" stroke="#699BF7"/>
<path d="M218.413 15.1026L218.413 15.1026L218.408 15.1075C217.468 16.0473 216.315 16.5495 215.141 16.5627C213.965 16.5759 212.809 16.0991 211.865 15.1562C209.952 13.2938 209.952 10.4747 211.813 8.61124C213.676 6.69956 216.495 6.69907 218.359 8.56004C220.275 10.4258 220.267 13.1967 218.413 15.1026Z" fill="#699BF7" stroke="#699BF7"/>
<path d="M236.238 15.1587L236.238 15.1587L236.233 15.1539C234.327 13.2478 234.319 10.4733 236.236 8.60641C238.145 6.69928 240.916 6.70009 242.825 8.60881C244.732 10.5157 244.74 13.2917 242.82 15.1587L242.82 15.1587L242.816 15.1633C240.865 17.0115 238.149 17.0179 236.238 15.1587Z" fill="#699BF7" stroke="#699BF7"/>
<path d="M389.418 15.0563L389.418 15.0564C387.516 17.0089 384.744 17.0711 382.826 15.205C380.927 13.3574 380.803 10.5366 382.68 8.6576C384.531 6.75727 387.348 6.64262 389.269 8.51137C391.172 10.3625 391.288 13.1345 389.418 15.0563Z" fill="#699BF7" stroke="#699BF7"/>
<path d="M413.819 15.1026L413.819 15.1026L413.814 15.1075C411.913 17.0086 409.144 17.0699 407.227 15.2049C405.32 13.3498 405.257 10.5292 407.127 8.65746C408.986 6.74964 411.803 6.69598 413.717 8.55757C415.627 10.4161 415.682 13.1883 413.819 15.1026Z" fill="#699BF7" stroke="#699BF7"/>
<path d="M316.304 14.9018L316.303 14.9023C314.509 16.9019 311.738 17.1281 309.759 15.358L309.759 15.3575C307.762 13.5659 307.528 10.7472 309.305 8.81143C311.097 6.81811 313.913 6.58464 315.848 8.35799C317.853 10.1103 318.07 12.928 316.304 14.9018Z" fill="#699BF7" stroke="#699BF7"/>
<path d="M333.943 15.1562C332.031 13.2938 332.03 10.4747 333.891 8.61125C335.754 6.69955 338.573 6.69907 340.437 8.56007C342.353 10.4259 342.345 13.1967 340.491 15.1026C338.632 17.0129 335.857 17.068 333.943 15.1562Z" fill="#699BF7" stroke="#699BF7"/>
<path d="M358.315 15.1587L358.315 15.1587L358.31 15.1539C356.404 13.2478 356.396 10.4733 358.313 8.60638C360.223 6.69929 362.994 6.7001 364.903 8.60881C366.81 10.5157 366.817 13.2918 364.898 15.1587C362.989 17.0155 360.224 17.0155 358.315 15.1587Z" fill="#699BF7" stroke="#699BF7"/>
<path d="M431.355 39.5624L431.355 39.5624L431.35 39.5576C429.445 37.6524 429.436 34.8795 431.35 33.0126C433.214 31.1026 436.033 31.1037 437.896 32.9663C439.802 34.8723 439.81 37.6468 437.894 39.5136C435.985 41.4197 433.264 41.4194 431.355 39.5624Z" fill="#699BF7" stroke="#699BF7"/>
<path d="M438.003 88.3167L438.003 88.3167L437.998 88.3216C437.058 89.2615 435.905 89.7636 434.731 89.7768C433.555 89.79 432.399 89.3132 431.454 88.3703C429.549 86.5143 429.487 83.6914 431.408 81.8205C433.267 79.9645 436.034 79.9112 437.947 81.7718C439.865 83.6376 439.858 86.41 438.003 88.3167Z" fill="#699BF7" stroke="#699BF7"/>
<path d="M437.873 57.2725L437.874 57.2727C439.827 59.1229 439.944 61.8944 438.125 63.8172L438.124 63.8174C436.274 65.7703 433.502 65.8872 431.579 64.0684L431.579 64.0682C429.626 62.2188 429.509 59.4488 431.325 57.5262C433.133 55.5661 435.954 55.4572 437.873 57.2725Z" fill="#699BF7" stroke="#699BF7"/>
<path d="M438.382 14.902L438.382 14.9025C436.587 16.9022 433.816 17.1284 431.837 15.3582L431.837 15.3577C429.84 13.5661 429.606 10.7473 431.384 8.81153C433.175 6.81821 435.991 6.58475 437.926 8.3581C439.932 10.1104 440.149 12.9281 438.382 14.902Z" fill="#699BF7" stroke="#699BF7"/>
</g>
<g clip-path="url(#clip2_271_359)">
<path fill-rule="evenodd" clip-rule="evenodd" d="M1976.16 26.107C1970.75 24.583 1965.36 23.08 1960.03 21.605C1903.28 5.808 1844.6 -10.525 1793.54 -42.105C1745.23 -72 1708.48 -112.905 1673.02 -160H1676.18C1711.13 -113.76 1747.41 -73.623 1794.86 -44.265C1845.62 -12.868 1904.13 3.41499 1960.7 19.163C1965.79 20.578 1970.97 22.02 1976.16 23.473V26.107Z" fill="#0FA958"/>
<path fill-rule="evenodd" clip-rule="evenodd" d="M1384.15 -99.38C1389.1 -120.145 1396.94 -140.603 1407.04 -160H1409.86C1399.57 -140.445 1391.6 -119.777 1386.6 -98.783C1371.64 -36.075 1379.11 30.808 1410.81 118.075C1438.93 195.445 1470.93 264.183 1505.96 322.385C1534.73 370.2 1570.27 408.908 1607.91 449.888C1617.64 460.495 1627.71 471.458 1637.56 482.505C1647.79 493.955 1657.97 505.783 1667.82 517.223C1681.6 533.237 1695.86 549.777 1710.41 565.563C1713.23 568.6 1716.1 571.8 1719.04 575.07C1737.63 595.725 1758.7 619.125 1783.68 627.987C1790.51 630.405 1797.5 631.65 1804.45 631.65H1804.47C1854.13 631.625 1894.75 569.395 1909.91 542.638C1937.24 494.395 1957.41 441.928 1976.16 390.232V397.592C1958.03 447.275 1938.38 497.495 1912.1 543.895C1892.99 577.61 1853.6 634.165 1804.47 634.165H1804.45C1797.22 634.165 1789.94 632.895 1782.85 630.38C1757.26 621.3 1735.97 597.643 1717.19 576.768C1714.24 573.507 1711.38 570.322 1708.57 567.283C1693.98 551.475 1679.72 534.91 1665.92 518.895C1656.08 507.455 1645.9 495.64 1635.69 484.19C1625.85 473.167 1615.78 462.205 1606.05 451.61C1568.33 410.533 1532.7 371.737 1503.81 323.703C1468.7 265.355 1436.62 196.47 1408.45 118.942C1376.57 31.188 1369.08 -36.147 1384.15 -99.38Z" fill="#0FA958"/>
<path fill-rule="evenodd" clip-rule="evenodd" d="M1976.16 108.567C1974.45 106.467 1972.62 104.405 1970.62 102.402C1946.76 78.598 1915.65 64.183 1885.56 50.243C1881.4 48.3 1877.22 46.373 1873.08 44.42C1821.02 19.882 1753.54 -15.212 1693.32 -69.168C1682.96 -78.458 1672.79 -88.833 1662.04 -99.82C1640.2 -122.098 1617.88 -144.862 1592.49 -160H1597.34C1621.51 -144.765 1642.88 -122.965 1663.82 -101.59C1674.55 -90.64 1684.69 -80.3 1694.99 -71.06C1754.98 -17.312 1822.25 17.66 1874.16 42.125C1878.28 44.078 1882.45 46.005 1886.62 47.935C1916.91 61.973 1948.22 76.487 1972.39 100.607C1973.72 101.928 1974.96 103.283 1976.16 104.66V108.567Z" fill="#0FA958"/>
<path fill-rule="evenodd" clip-rule="evenodd" d="M1422.84 -86.685C1432.1 -114.26 1450.04 -141.97 1474.47 -160H1478.84C1453.37 -142.41 1434.7 -114.078 1425.22 -85.88C1408.26 -35.475 1410.72 23.178 1432.7 93.442C1453.17 158.822 1485.34 228.183 1525.74 294.015C1561.33 352 1606.42 397.092 1663.17 446.958C1665.7 449.18 1668.31 451.5 1671.02 453.893C1707.21 485.973 1756.79 529.917 1805.09 529.917H1805.1C1812.74 529.917 1820.19 528.77 1827.22 526.522C1875.32 511.118 1903.03 462.547 1925.82 412.34C1947.51 364.547 1962.78 313.975 1976.16 263.607V273.325C1963.33 320.785 1948.57 368.295 1928.1 413.4C1905.08 464.12 1877.01 513.23 1827.98 528.94C1820.7 531.26 1813.01 532.445 1805.1 532.445C1805.09 532.445 1805.09 532.445 1805.09 532.445C1755.83 532.445 1705.85 488.145 1669.36 455.795C1666.65 453.402 1664.04 451.085 1661.52 448.875C1604.59 398.85 1559.35 353.598 1523.61 295.348C1483.09 229.342 1450.83 159.788 1430.31 94.2C1408.14 23.41 1405.7 -35.77 1422.84 -86.685Z" fill="#0FA958"/>
<path fill-rule="evenodd" clip-rule="evenodd" d="M1538.87 -92.0206C1567.81 -92.0206 1602.22 -76.4936 1641.15 -45.8776C1699.14 -0.26059 1760.89 39.2674 1818.97 75.1914C1822.46 77.3524 1826 79.5144 1829.55 81.6744C1852.45 95.6024 1876.12 110.019 1893.87 130.124C1918.77 158.347 1924.99 194.944 1925.8 220.677C1926.02 227.791 1925.96 235.569 1925.6 244.454C1915.17 310.629 1898.92 378.134 1851.16 422.591C1833.98 438.559 1813.83 446.664 1791.26 446.664H1791.25C1749.66 446.664 1706.93 419.711 1678.4 399.434C1582.79 331.492 1509.65 221.774 1472.48 90.5244C1459.45 44.4794 1446.19 -21.6106 1481.44 -63.8086C1497.09 -82.5236 1516.41 -92.0206 1538.87 -92.0206ZM1791.25 449.191H1791.26C1814.49 449.191 1835.22 440.867 1852.86 424.446C1901.2 379.464 1917.59 311.472 1928.1 244.699C1928.48 235.604 1928.54 227.767 1928.32 220.589C1927.48 194.441 1921.15 157.224 1895.75 128.439C1877.76 108.054 1853.91 93.5394 1830.85 79.5014C1827.31 77.3414 1823.78 75.1914 1820.29 73.0324C1762.27 37.1424 1700.6 -2.33559 1642.69 -47.8776C1603.32 -78.8486 1568.38 -94.5586 1538.87 -94.5586C1515.64 -94.5586 1495.67 -84.7556 1479.52 -65.4456C1443.49 -22.3176 1456.87 44.6144 1470.07 91.2194C1507.38 223.019 1580.86 333.224 1676.95 401.509C1705.75 421.981 1748.95 449.191 1791.25 449.191Z" fill="#0FA958"/>
<path opacity="0.7" fill-rule="evenodd" clip-rule="evenodd" d="M1864.82 269.531C1859.98 299.326 1845.9 351.488 1805.74 368.798C1794.66 373.571 1782.76 375.988 1770.35 375.988C1736.71 375.988 1698.35 358.604 1656.35 324.303C1588.32 268.773 1535.48 172.996 1521.73 80.2955C1517.42 51.2685 1517.24 13.7555 1540.83 -0.209484C1548.18 -4.55448 1556.66 -6.76448 1566.06 -6.76448C1598.17 -6.76448 1636.19 18.6255 1661.35 35.4225C1664.18 37.3155 1666.88 39.1105 1669.42 40.7835C1684 50.3535 1699.06 59.6405 1713.63 68.6125C1743.15 86.7905 1773.66 105.588 1801.16 127.501C1820.9 143.224 1837.3 162.034 1852.81 186.668C1866.7 208.764 1865.84 236.411 1865.01 263.146C1864.95 265.281 1864.88 267.418 1864.82 269.531ZM1770.35 386.131H1770.36C1784.13 386.119 1797.37 383.434 1809.7 378.111C1854.43 358.836 1869.7 302.611 1874.82 270.811L1874.88 270.141C1874.94 267.931 1875 265.709 1875.07 263.463C1875.91 236.511 1876.85 205.968 1861.31 181.249C1845.19 155.613 1828.06 136.008 1807.41 119.554C1779.43 97.2635 1748.66 78.3055 1718.9 59.9705C1704.38 51.0225 1689.37 41.7835 1674.93 32.2975C1672.4 30.6385 1669.73 28.8555 1666.92 26.9755C1640.75 9.50752 1601.21 -16.8965 1566.06 -16.8965C1554.85 -16.8965 1544.64 -14.2225 1535.73 -8.94948C1512.9 4.56351 1504.85 35.0925 1511.77 81.7855C1525.88 176.854 1580.14 275.146 1650.01 332.176C1693.85 367.979 1734.34 386.131 1770.35 386.131Z" fill="#0FA958"/>
<path fill-rule="evenodd" clip-rule="evenodd" d="M1634.08 107.627C1658.7 107.627 1692.37 124.875 1705.05 131.37C1735.22 146.822 1804.41 190.147 1795.3 258.505C1786.14 291.928 1762.6 298.973 1744.46 298.973C1727.14 298.985 1706.59 292.38 1688.07 280.857C1664.16 265.978 1643.63 244.272 1628.7 218.075C1621.01 204.575 1596.76 157.933 1607.59 124.425C1611.19 113.28 1620.1 107.627 1634.08 107.627ZM1744.46 301.51C1763.48 301.51 1788.15 294.138 1797.75 259.007C1807.12 188.877 1736.84 144.81 1706.19 129.112C1693.37 122.545 1659.31 105.1 1634.08 105.1C1618.88 105.1 1609.17 111.337 1605.19 123.643C1594.04 158.14 1618.7 205.612 1626.51 219.333C1641.65 245.895 1662.47 267.917 1686.75 283.018C1705.65 294.772 1726.68 301.51 1744.46 301.51Z" fill="#0FA958"/>
</g>
<g clip-path="url(#clip3_271_359)">
<path d="M103.578 447.144L103.578 447.144L103.573 447.14C100.897 444.464 100.888 440.587 103.573 437.97C106.187 435.289 110.131 435.29 112.744 437.903C115.421 440.579 115.429 444.458 112.742 447.075C110.062 449.752 106.258 449.751 103.578 447.144Z" fill="#699BF7" stroke="#699BF7"/>
<path d="M148.796 474.064C151.477 476.672 151.553 480.548 148.94 483.233C146.331 485.913 142.454 485.989 139.769 483.377C137.092 480.773 137.008 476.83 139.625 474.208C142.171 471.523 146.115 471.457 148.796 474.064Z" fill="#699BF7" stroke="#699BF7"/>
<path d="M175.921 519.471C173.315 516.793 173.309 512.917 175.998 510.301C178.675 507.696 182.552 507.689 185.169 510.378C187.773 513.054 187.781 516.93 185.027 519.545C182.405 522.232 178.525 522.147 175.921 519.471Z" fill="#699BF7" stroke="#699BF7"/>
<path d="M139.706 447.139L139.706 447.139L139.701 447.134C137.097 444.458 137.089 440.585 139.773 437.97C142.387 435.288 146.336 435.29 148.949 437.975C151.553 440.651 151.561 444.526 148.874 447.141C146.19 449.822 142.315 449.747 139.706 447.139Z" fill="#699BF7" stroke="#699BF7"/>
<path d="M175.533 474.492L175.534 474.491C178.055 471.683 181.999 471.366 184.706 473.851C187.513 476.371 187.829 480.314 185.344 483.019C182.82 485.829 178.947 486.138 176.177 483.66L176.176 483.66C173.364 481.136 173.054 477.262 175.533 474.492Z" fill="#699BF7" stroke="#699BF7"/>
<path d="M211.919 510.517L211.92 510.517C214.52 507.772 218.396 507.614 221.09 510.162L221.09 510.162C223.835 512.762 223.993 516.637 221.445 519.331L221.445 519.331C218.852 522.068 214.973 522.309 212.272 519.684C209.53 517.084 209.372 513.21 211.919 510.517Z" fill="#699BF7" stroke="#699BF7"/>
<path d="M185.077 437.97C187.754 440.647 187.762 444.526 185.075 447.143C183.747 448.469 182.13 449.15 180.492 449.15C178.852 449.15 177.234 448.468 175.906 447.14C173.23 444.464 173.221 440.587 175.906 437.97C178.523 435.285 182.401 435.294 185.077 437.97Z" fill="#699BF7" stroke="#699BF7"/>
<path d="M211.929 483.23C209.319 480.545 209.395 476.669 212.145 474.061C214.827 471.455 218.774 471.523 221.319 474.28C223.927 476.965 223.85 480.84 221.1 483.446C218.415 486.057 214.537 485.98 211.929 483.23Z" fill="#699BF7" stroke="#699BF7"/>
<path d="M257.553 519.471L257.553 519.471L257.548 519.475C254.876 522.147 251.003 522.229 248.315 519.615C245.637 517.01 245.554 513.064 248.173 510.443C250.782 507.764 254.724 507.689 257.409 510.301C260.09 512.909 260.165 516.786 257.553 519.471Z" fill="#699BF7" stroke="#699BF7"/>
<path d="M221.07 437.758L221.071 437.758C223.816 440.358 223.974 444.234 221.426 446.928L221.426 446.928C218.825 449.672 214.949 449.831 212.255 447.283L212.255 447.283C209.511 444.683 209.352 440.809 211.898 438.116C214.435 435.364 218.38 435.214 221.07 437.758Z" fill="#699BF7" stroke="#699BF7"/>
<path d="M257.551 483.233L257.551 483.233L257.546 483.238C254.881 485.903 251.008 486.067 248.313 483.445C245.643 480.847 245.477 476.901 248.104 474.272C250.706 471.601 254.648 471.445 257.34 474.063C260.013 476.665 260.171 480.541 257.551 483.233Z" fill="#699BF7" stroke="#699BF7"/>
<path d="M248.156 447.073L248.156 447.073L248.151 447.068C245.539 444.383 245.614 440.506 248.295 437.897C250.981 435.285 254.858 435.36 257.466 438.041C260.078 440.726 260.004 444.601 257.325 447.21C254.7 449.832 250.825 449.741 248.156 447.073Z" fill="#699BF7" stroke="#699BF7"/>
<path d="M76.6845 510.447C79.295 513.132 79.2186 517.007 76.5381 519.615C73.8527 522.227 69.9761 522.151 67.3673 519.471C64.7544 516.786 64.83 512.909 67.5113 510.301C70.1894 507.696 74.0686 507.689 76.6845 510.447Z" fill="#699BF7" stroke="#699BF7"/>
<path d="M67.3718 474.203C69.9772 471.531 73.92 471.449 76.5403 474.067C79.2259 476.681 79.2194 480.554 76.617 483.23C74.0082 485.981 70.1272 486.057 67.4414 483.374C64.7659 480.769 64.6828 476.824 67.3718 474.203Z" fill="#699BF7" stroke="#699BF7"/>
<path d="M112.816 519.471L112.816 519.471L112.811 519.475C111.486 520.801 109.87 521.501 108.231 521.519C106.592 521.538 104.972 520.873 103.643 519.545C100.968 516.941 100.884 512.996 103.57 510.375C106.123 507.685 110.067 507.701 112.739 510.301C115.428 512.917 115.421 516.793 112.816 519.471Z" fill="#699BF7" stroke="#699BF7"/>
<path d="M76.6147 447.068L76.6147 447.068L76.6099 447.072C75.2844 448.398 73.6683 449.098 72.03 449.116C70.3912 449.135 68.771 448.47 67.4414 447.142C64.7585 444.53 64.758 440.586 67.3693 437.972C69.9821 435.289 73.9265 435.289 76.5403 437.9C79.2266 440.516 79.2194 444.391 76.6147 447.068Z" fill="#699BF7" stroke="#699BF7"/>
<path d="M112.539 473.919L112.539 473.919L112.544 473.924C115.289 476.524 115.448 480.4 112.9 483.094L112.899 483.094C110.299 485.838 106.423 485.997 103.729 483.449L103.729 483.449C100.984 480.849 100.825 476.973 103.373 474.28C105.91 471.599 109.85 471.448 112.539 473.919Z" fill="#699BF7" stroke="#699BF7"/>
<path d="M149.059 519.471L149.059 519.471L149.054 519.475C146.382 522.147 142.509 522.229 139.821 519.615C137.143 517.01 137.06 513.064 139.679 510.442C142.288 507.764 146.23 507.689 148.915 510.301C151.596 512.909 151.672 516.786 149.059 519.471Z" fill="#699BF7" stroke="#699BF7"/>
<path d="M284.396 447.144L284.396 447.144L284.391 447.14C281.715 444.464 281.706 440.587 284.391 437.97C287.005 435.289 290.949 435.29 293.562 437.903C296.239 440.579 296.247 444.458 293.56 447.075C290.88 449.752 287.076 449.751 284.396 447.144Z" fill="#699BF7" stroke="#699BF7"/>
<path d="M329.667 474.064C332.348 476.672 332.424 480.548 329.811 483.233C327.202 485.913 323.326 485.989 320.64 483.377C317.962 480.772 317.879 476.827 320.499 474.206C323.107 471.528 326.982 471.453 329.667 474.064Z" fill="#699BF7" stroke="#699BF7"/>
<path d="M356.796 519.475L356.796 519.475L356.791 519.471C354.185 516.793 354.179 512.917 356.868 510.301C359.545 507.696 363.422 507.689 366.038 510.378C368.642 513.053 368.651 516.927 365.899 519.543C363.339 522.239 359.46 522.139 356.796 519.475Z" fill="#699BF7" stroke="#699BF7"/>
<path d="M320.524 447.139L320.524 447.139L320.519 447.134C317.915 444.457 317.907 440.583 320.594 437.967C323.272 435.292 327.15 435.286 329.767 437.975C332.372 440.651 332.379 444.526 329.692 447.141C327.008 449.822 323.133 449.747 320.524 447.139Z" fill="#699BF7" stroke="#699BF7"/>
<path d="M356.404 474.492L356.405 474.491C358.926 471.683 362.87 471.366 365.577 473.851C368.384 476.371 368.7 480.314 366.215 483.019C363.691 485.829 359.818 486.138 357.048 483.66L357.047 483.66C354.235 481.136 353.925 477.262 356.404 474.492Z" fill="#699BF7" stroke="#699BF7"/>
<path d="M392.789 510.517L392.79 510.517C395.39 507.773 399.266 507.614 401.959 510.162L401.96 510.162C404.704 512.762 404.863 516.638 402.315 519.331L402.315 519.331C399.722 522.068 395.843 522.309 393.142 519.684C390.4 517.084 390.242 513.21 392.789 510.517Z" fill="#699BF7" stroke="#699BF7"/>
<path d="M356.724 437.97C359.338 435.289 363.285 435.29 365.898 437.972C368.572 440.649 368.579 444.526 365.893 447.143C363.216 449.817 359.338 449.824 356.722 447.138C354.048 444.462 354.04 440.586 356.724 437.97Z" fill="#699BF7" stroke="#699BF7"/>
<path d="M392.8 483.231C390.189 480.545 390.265 476.669 393.015 474.061C395.697 471.455 399.644 471.523 402.189 474.28C404.797 476.965 404.72 480.84 401.97 483.446C399.285 486.057 395.407 485.98 392.8 483.231Z" fill="#699BF7" stroke="#699BF7"/>
<path d="M438.423 519.471L438.423 519.471L438.418 519.475C435.745 522.147 431.872 522.229 429.184 519.615C426.506 517.01 426.423 513.064 429.043 510.442C431.652 507.764 435.594 507.689 438.279 510.301C440.96 512.909 441.036 516.786 438.423 519.471Z" fill="#699BF7" stroke="#699BF7"/>
<path d="M401.888 437.758L401.889 437.758C404.633 440.358 404.792 444.234 402.244 446.928L402.243 446.928C399.643 449.672 395.767 449.831 393.074 447.283L393.073 447.283C390.329 444.683 390.17 440.809 392.716 438.116C395.253 435.364 399.198 435.214 401.888 437.758Z" fill="#699BF7" stroke="#699BF7"/>
<path d="M438.421 483.233L438.421 483.233L438.416 483.238C435.752 485.903 431.879 486.067 429.184 483.445C426.514 480.847 426.348 476.901 428.975 474.273C431.576 471.601 435.518 471.445 438.21 474.064C440.884 476.665 441.041 480.541 438.421 483.233Z" fill="#699BF7" stroke="#699BF7"/>
<path d="M428.97 447.068C426.357 444.383 426.433 440.506 429.114 437.897C431.799 435.285 435.676 435.36 438.285 438.041C440.898 440.727 440.822 444.603 438.141 447.212C435.456 449.825 431.579 449.749 428.97 447.068Z" fill="#699BF7" stroke="#699BF7"/>
<path d="M293.687 519.471L293.687 519.471L293.682 519.475C292.356 520.801 290.74 521.501 289.102 521.519C287.463 521.538 285.843 520.873 284.514 519.545C281.838 516.94 281.755 512.994 284.444 510.373C287.06 507.689 290.934 507.698 293.61 510.301C296.299 512.917 296.292 516.793 293.687 519.471Z" fill="#699BF7" stroke="#699BF7"/>
<path d="M293.409 473.919L293.409 473.919L293.415 473.924C296.16 476.524 296.318 480.4 293.77 483.094L293.77 483.094C291.17 485.838 287.294 485.997 284.6 483.449L284.6 483.449C281.855 480.849 281.696 476.973 284.244 474.28C286.781 471.599 290.72 471.448 293.409 473.919Z" fill="#699BF7" stroke="#699BF7"/>
<path d="M329.93 519.471L329.93 519.471L329.921 519.48C327.189 522.14 323.316 522.236 320.69 519.612C318.014 517.007 317.932 513.063 320.55 510.443C323.159 507.764 327.102 507.689 329.786 510.301C332.467 512.909 332.543 516.786 329.93 519.471Z" fill="#699BF7" stroke="#699BF7"/>
<path d="M465.215 447.144L465.215 447.144L465.21 447.139C462.533 444.463 462.525 440.586 465.21 437.97C467.823 435.289 471.768 435.29 474.381 437.902C477.058 440.579 477.066 444.458 474.379 447.075C471.699 449.751 467.895 449.751 465.215 447.144Z" fill="#699BF7" stroke="#699BF7"/>
<path d="M474.557 519.47L474.557 519.47L474.552 519.475C473.227 520.8 471.611 521.501 469.973 521.519C468.334 521.537 466.713 520.873 465.384 519.545C462.708 516.94 462.625 512.994 465.314 510.373C467.93 507.689 471.804 507.697 474.48 510.301C477.169 512.917 477.163 516.793 474.557 519.47Z" fill="#699BF7" stroke="#699BF7"/>
<path d="M474.28 473.919L474.28 473.919L474.286 473.924C477.03 476.524 477.189 480.4 474.641 483.094L474.64 483.094C472.04 485.838 468.164 485.997 465.47 483.449L465.47 483.449C462.725 480.849 462.566 476.973 465.115 474.28C467.651 471.599 471.591 471.448 474.28 473.919Z" fill="#699BF7" stroke="#699BF7"/>
</g>
</g>
<defs>
<clipPath id="clip0_271_359">
<rect width="1920" height="540" fill="white"/>
</clipPath>
<clipPath id="clip1_271_359">
<rect width="279" height="182" fill="white" transform="matrix(1 0 0 -1 161.111 91)"/>
</clipPath>
<clipPath id="clip2_271_359">
<rect width="666.101" height="794.165" fill="white" transform="translate(1376.67 -160)"/>
</clipPath>
<clipPath id="clip3_271_359">
<rect width="413" height="269" fill="white" transform="matrix(1 0 0 -1 64.4443 704)"/>
</clipPath>
</defs>
</svg>
