<svg width="80" height="80" viewBox="0 0 80 80" fill="none" xmlns="http://www.w3.org/2000/svg">
<path d="M68.2483 16.4051V54.711C68.2483 57.9699 65.6133 60.6054 62.366 60.6054H12.4248C9.17776 60.6054 6.54248 57.9699 6.54248 54.711V16.4051C6.54248 13.1698 9.17776 10.5227 12.4248 10.5227H62.366C65.6133 10.5227 68.2483 13.1698 68.2483 16.4051Z" fill="#51504F"/>
<path d="M12.4276 57.4736C10.9068 57.4736 9.66992 56.2364 9.66992 54.7159V16.405C9.66992 14.8903 10.9068 13.658 12.4276 13.658H62.3635C63.8837 13.658 65.1206 14.8903 65.1206 16.405V54.7159C65.1206 56.2364 63.8837 57.4736 62.3635 57.4736H12.4276Z" fill="white"/>
<path d="M47.0863 69.9052H28.1133L32.3295 57.2261H42.8701L47.0863 69.9052Z" fill="#3A3A3A"/>
<path d="M68.2483 50.3814V54.711C68.2483 57.9699 65.6133 60.6054 62.366 60.6054H12.4248C9.17776 60.6054 6.54248 57.9699 6.54248 54.711V50.3814H68.2483Z" fill="#51504F"/>
<path d="M37.5998 71.6388C45.2318 71.6388 51.4187 70.6586 51.4187 69.4494C51.4187 68.2402 45.2318 67.26 37.5998 67.26C29.9679 67.26 23.781 68.2402 23.781 69.4494C23.781 70.6586 29.9679 71.6388 37.5998 71.6388Z" fill="#2D2D2D"/>
<path d="M31.1235 55.9719C32.2237 55.5159 33.3242 55.2888 34.4244 55.114C35.5246 54.9537 36.6251 54.8789 37.7253 54.8778C38.8255 54.8757 39.926 54.951 41.0262 55.1114C42.1264 55.2845 43.2269 55.5133 44.3271 55.9719C43.2269 56.4304 42.1264 56.6592 41.0262 56.8324C39.926 56.9927 38.8255 57.0681 37.7253 57.0659C36.6251 57.0649 35.5246 56.99 34.4244 56.8297C33.3242 56.6549 32.2237 56.4278 31.1235 55.9719Z" fill="#3A3A3A"/>
<path d="M23.472 68.9579C23.366 70.1579 22.4248 71.0994 21.2365 71.2051C15.8718 71.6992 10.5073 71.6992 5.14249 71.2051C3.95425 71.0994 3.01301 70.1579 2.90731 68.9699C2.16599 61.1816 2.16599 53.3817 2.90731 45.5819C3.01301 44.3818 3.95425 43.4403 5.15427 43.3346C10.366 42.8877 15.719 42.9227 21.2015 43.3582C22.413 43.4524 23.366 44.4054 23.472 45.6169C24.1427 53.511 24.1427 61.2993 23.472 68.9579Z" fill="#FBAD3E"/>
<path d="M4.96094 48.9911V46.1804C4.96094 45.6754 5.35891 45.259 5.86353 45.2414C10.5887 45.0769 15.4618 45.089 20.4555 45.2451C20.9615 45.2609 21.3654 45.6774 21.3654 46.1837V48.9903C21.3654 49.4878 20.9754 49.9021 20.4786 49.9298C15.5264 50.2066 10.6494 50.2028 5.84471 49.9305C5.3483 49.9024 4.96094 49.4883 4.96094 48.9911Z" fill="#FA990E"/>
<path d="M7.80288 47.5772C7.80288 47.8016 7.71367 48.0016 7.56495 48.1503C7.41896 48.2963 7.21618 48.3883 6.99177 48.3883C6.54297 48.3883 6.18066 48.0233 6.18066 47.5772C6.18066 47.3527 6.26989 47.15 6.41859 47.004C6.5646 46.8553 6.76738 46.7661 6.99177 46.7661C7.21618 46.7661 7.41896 46.8553 7.56495 47.004C7.71367 47.15 7.80288 47.3527 7.80288 47.5772Z" fill="#B53016"/>
<path d="M9.98926 47.5772C9.98926 47.73 9.9285 47.8663 9.8272 47.9676C9.72775 48.067 9.58963 48.1296 9.43677 48.1296C9.13106 48.1296 8.88428 47.881 8.88428 47.5772C8.88428 47.4243 8.94505 47.2862 9.04634 47.1867C9.1458 47.0854 9.28392 47.0247 9.43677 47.0247C9.58963 47.0247 9.72775 47.0854 9.8272 47.1867C9.9285 47.2862 9.98926 47.4243 9.98926 47.5772Z" fill="white"/>
<path d="M12.1052 47.5772C12.1052 47.73 12.0445 47.8663 11.9432 47.9676C11.8437 48.067 11.7056 48.1296 11.5527 48.1296C11.247 48.1296 11.0002 47.881 11.0002 47.5772C11.0002 47.4243 11.061 47.2862 11.1623 47.1867C11.2618 47.0854 11.3999 47.0247 11.5527 47.0247C11.7056 47.0247 11.8437 47.0854 11.9432 47.1867C12.0445 47.2862 12.1052 47.4243 12.1052 47.5772Z" fill="#272791"/>
<path d="M20.1458 47.0276V48.124C20.1458 48.3339 19.9845 48.5104 19.7751 48.5247C18.2304 48.6305 16.6293 48.6228 14.9817 48.5217C14.7711 48.5087 14.6055 48.3323 14.6055 48.1214V47.0276C14.6055 46.8182 14.7677 46.642 14.9766 46.627C16.576 46.5125 18.1753 46.5125 19.7747 46.627C19.9836 46.642 20.1458 46.8182 20.1458 47.0276Z" fill="#B53016"/>
<path d="M4.96094 55.462V52.6513C4.96094 52.1463 5.35891 51.7299 5.86353 51.7123C10.5887 51.5478 15.4618 51.5599 20.4555 51.716C20.9615 51.7318 21.3654 52.1483 21.3654 52.6545V55.4612C21.3654 55.9587 20.9754 56.373 20.4786 56.4007C15.5264 56.6775 10.6494 56.6737 5.84471 56.4014C5.3483 56.3732 4.96094 55.9592 4.96094 55.462Z" fill="#FA990E"/>
<path d="M7.80288 54.048C7.80288 54.2724 7.71367 54.4725 7.56495 54.6212C7.41896 54.7672 7.21618 54.8591 6.99177 54.8591C6.54297 54.8591 6.18066 54.4941 6.18066 54.048C6.18066 53.8236 6.26989 53.6209 6.41859 53.4749C6.5646 53.3261 6.76738 53.2369 6.99177 53.2369C7.21618 53.2369 7.41896 53.3261 7.56495 53.4749C7.71367 53.6209 7.80288 53.8236 7.80288 54.048Z" fill="#B53016"/>
<path d="M9.98926 54.0481C9.98926 54.2009 9.9285 54.3372 9.8272 54.4385C9.72775 54.538 9.58963 54.6006 9.43677 54.6006C9.13106 54.6006 8.88428 54.352 8.88428 54.0481C8.88428 53.8952 8.94505 53.7571 9.04634 53.6577C9.1458 53.5564 9.28392 53.4956 9.43677 53.4956C9.58963 53.4956 9.72775 53.5564 9.8272 53.6577C9.9285 53.7571 9.98926 53.8952 9.98926 54.0481Z" fill="white"/>
<path d="M12.1052 54.0481C12.1052 54.2009 12.0445 54.3372 11.9432 54.4385C11.8437 54.538 11.7056 54.6006 11.5527 54.6006C11.247 54.6006 11.0002 54.352 11.0002 54.0481C11.0002 53.8952 11.061 53.7571 11.1623 53.6577C11.2618 53.5564 11.3999 53.4956 11.5527 53.4956C11.7056 53.4956 11.8437 53.5564 11.9432 53.6577C12.0445 53.7571 12.1052 53.8952 12.1052 54.0481Z" fill="#272791"/>
<path d="M20.1458 53.4985V54.5949C20.1458 54.8048 19.9845 54.9812 19.7751 54.9956C18.2304 55.1014 16.6293 55.0937 14.9817 54.9926C14.7711 54.9796 14.6055 54.8032 14.6055 54.5923V53.4985C14.6055 53.289 14.7677 53.1128 14.9766 53.0979C16.576 52.9834 18.1753 52.9834 19.7747 53.0979C19.9836 53.1128 20.1458 53.289 20.1458 53.4985Z" fill="#B53016"/>
<path d="M4.96094 61.8948V59.0841C4.96094 58.5791 5.35891 58.1627 5.86353 58.1451C10.5887 57.9806 15.4618 57.9927 20.4555 58.1488C20.9615 58.1646 21.3654 58.5811 21.3654 59.0873V61.894C21.3654 62.3915 20.9754 62.8058 20.4786 62.8335C15.5264 63.1103 10.6494 63.1065 5.84471 62.8342C5.3483 62.806 4.96094 62.392 4.96094 61.8948Z" fill="#FA990E"/>
<path d="M7.80288 60.4808C7.80288 60.7052 7.71367 60.9053 7.56495 61.054C7.41896 61.2 7.21618 61.292 6.99177 61.292C6.54297 61.292 6.18066 60.9269 6.18066 60.4808C6.18066 60.2564 6.26989 60.0537 6.41859 59.9077C6.5646 59.7589 6.76738 59.6697 6.99177 59.6697C7.21618 59.6697 7.41896 59.7589 7.56495 59.9077C7.71367 60.0537 7.80288 60.2564 7.80288 60.4808Z" fill="#B53016"/>
<path d="M9.98926 60.4808C9.98926 60.6337 9.9285 60.77 9.8272 60.8713C9.72775 60.9707 9.58963 61.0333 9.43677 61.0333C9.13106 61.0333 8.88428 60.7847 8.88428 60.4808C8.88428 60.328 8.94505 60.1899 9.04634 60.0904C9.1458 59.9891 9.28392 59.9283 9.43677 59.9283C9.58963 59.9283 9.72775 59.9891 9.8272 60.0904C9.9285 60.1899 9.98926 60.328 9.98926 60.4808Z" fill="white"/>
<path d="M12.1052 60.4808C12.1052 60.6337 12.0445 60.77 11.9432 60.8713C11.8437 60.9707 11.7056 61.0333 11.5527 61.0333C11.247 61.0333 11.0002 60.7847 11.0002 60.4808C11.0002 60.328 11.061 60.1899 11.1623 60.0904C11.2618 59.9891 11.3999 59.9283 11.5527 59.9283C11.7056 59.9283 11.8437 59.9891 11.9432 60.0904C12.0445 60.1899 12.1052 60.328 12.1052 60.4808Z" fill="#272791"/>
<path d="M20.1458 59.9313V61.0277C20.1458 61.2376 19.9845 61.414 19.7751 61.4284C18.2304 61.5342 16.6293 61.5265 14.9817 61.4254C14.7711 61.4124 14.6055 61.236 14.6055 61.0251V59.9313C14.6055 59.7218 14.7677 59.5456 14.9766 59.5307C16.576 59.4162 18.1753 59.4162 19.7747 59.5307C19.9836 59.5456 20.1458 59.7218 20.1458 59.9313Z" fill="#B53016"/>
<path d="M4.96094 68.3277V65.5169C4.96094 65.012 5.35891 64.5955 5.86353 64.578C10.5887 64.4135 15.4618 64.4256 20.4555 64.5816C20.9615 64.5975 21.3654 65.014 21.3654 65.5202V68.3268C21.3654 68.8244 20.9754 69.2386 20.4786 69.2664C15.5264 69.5432 10.6494 69.5393 5.84471 69.267C5.3483 69.2389 4.96094 68.8249 4.96094 68.3277Z" fill="#FA990E"/>
<path d="M7.80288 66.9137C7.80288 67.1381 7.71367 67.3382 7.56495 67.4869C7.41896 67.6329 7.21618 67.7248 6.99177 67.7248C6.54297 67.7248 6.18066 67.3598 6.18066 66.9137C6.18066 66.6893 6.26989 66.4865 6.41859 66.3405C6.5646 66.1918 6.76738 66.1026 6.99177 66.1026C7.21618 66.1026 7.41896 66.1918 7.56495 66.3405C7.71367 66.4865 7.80288 66.6893 7.80288 66.9137Z" fill="#B53016"/>
<path d="M9.98926 66.9137C9.98926 67.0665 9.9285 67.2028 9.8272 67.3041C9.72775 67.4036 9.58963 67.4662 9.43677 67.4662C9.13106 67.4662 8.88428 67.2176 8.88428 66.9137C8.88428 66.7608 8.94505 66.6227 9.04634 66.5233C9.1458 66.422 9.28392 66.3612 9.43677 66.3612C9.58963 66.3612 9.72775 66.422 9.8272 66.5233C9.9285 66.6227 9.98926 66.7608 9.98926 66.9137Z" fill="white"/>
<path d="M12.1052 66.9137C12.1052 67.0665 12.0445 67.2028 11.9432 67.3041C11.8437 67.4036 11.7056 67.4662 11.5527 67.4662C11.247 67.4662 11.0002 67.2176 11.0002 66.9137C11.0002 66.7608 11.061 66.6227 11.1623 66.5233C11.2618 66.422 11.3999 66.3612 11.5527 66.3612C11.7056 66.3612 11.8437 66.422 11.9432 66.5233C12.0445 66.6227 12.1052 66.7608 12.1052 66.9137Z" fill="#272791"/>
<path d="M20.1458 66.3642V67.4605C20.1458 67.6704 19.9845 67.8469 19.7751 67.8612C18.2304 67.967 16.6293 67.9593 14.9817 67.8582C14.7711 67.8453 14.6055 67.6689 14.6055 67.4579V66.3642C14.6055 66.1547 14.7677 65.9785 14.9766 65.9635C16.576 65.8491 18.1753 65.8491 19.7747 65.9635C19.9836 65.9785 20.1458 66.1547 20.1458 66.3642Z" fill="#B53016"/>
<path d="M55.7878 36.2213C55.7878 39.9712 52.7518 43.017 49.002 43.017C46.5559 43.017 27.9776 43.017 25.7983 43.017C22.0482 43.017 19.0027 39.9712 19.0027 36.2213C19.0027 32.4715 22.0482 29.4257 25.7983 29.4257C25.8362 29.4257 25.8743 29.4257 25.9124 29.4354C26.6643 24.1343 31.2328 20.0513 36.7435 20.0513C42.3016 20.0513 46.8986 24.2008 47.5934 29.5781C48.0502 29.4735 48.5166 29.4257 49.002 29.4257C52.7518 29.4257 55.7878 32.4715 55.7878 36.2213Z" fill="#D1DAFE"/>
<path d="M77.6484 41.2994V67.9814C77.6484 70.0052 76.013 71.6406 73.9895 71.6406H56.9777C54.9542 71.6406 53.3306 70.0052 53.3306 67.9814V41.2994C53.3306 39.2877 54.9542 37.6522 56.9777 37.6522H73.9895C76.013 37.6522 77.6484 39.2877 77.6484 41.2994Z" fill="#4269C4"/>
<path d="M56.9763 66.9347C56.2611 66.9347 55.6792 66.3476 55.6792 65.6261V41.3022C55.6792 40.587 56.2611 40.0051 56.9763 40.0051H73.9874C74.709 40.0051 75.2955 40.587 75.2955 41.3022V65.6261C75.2955 66.3476 74.709 66.9347 73.9874 66.9347H56.9763Z" fill="white"/>
<path d="M62.7319 69.4491C63.6503 68.9209 64.5689 68.8021 65.4875 68.7798C66.4059 68.7994 67.3245 68.9182 68.2431 69.4491C67.3245 69.9799 66.4059 70.0987 65.4875 70.1183C64.5689 70.096 63.6503 69.9772 62.7319 69.4491Z" fill="#255299"/>
<path d="M37.3952 38.42C41.1981 38.42 44.281 35.337 44.281 31.5341C44.281 27.7311 41.1981 24.6482 37.3952 24.6482C33.5922 24.6482 30.5093 27.7311 30.5093 31.5341C30.5093 35.337 33.5922 38.42 37.3952 38.42Z" fill="#AEC46E"/>
<path d="M44.2808 31.5379C44.2808 35.3398 41.2008 38.4197 37.3991 38.4197C35.0019 38.4197 32.8994 37.2017 31.658 35.355C32.7984 35.7974 34.0787 36.0456 35.4286 36.0456C39.7654 36.0456 43.3732 33.4854 44.1335 30.1105C44.2265 30.5681 44.2808 31.0492 44.2808 31.5379Z" fill="#617F4D"/>
<path d="M41.0164 28.6786C40.7923 29.308 40.499 29.851 40.1715 30.3684C39.8351 30.877 39.4731 31.3514 39.0765 31.791C38.2918 32.6792 37.3953 33.4467 36.4037 34.1102L36.1709 34.2655C35.8261 34.4899 35.3605 34.4036 35.1276 34.0588C34.8431 33.6534 34.5846 33.2312 34.3518 32.7824C34.1276 32.3256 33.912 31.86 33.7742 31.3169C34.3086 31.4807 34.7656 31.7223 35.2053 31.9636C35.3432 32.041 35.4813 32.1273 35.6192 32.2221C36.2572 31.5152 36.9642 30.877 37.7315 30.3082C38.2057 29.9634 38.7145 29.6443 39.2489 29.3598C39.7922 29.0836 40.3698 28.8339 41.0164 28.6786Z" fill="white"/>
<path d="M73.9651 55.6907C73.9651 57.4191 72.5657 58.8229 70.8373 58.8229C69.7099 58.8229 61.1468 58.8229 60.1423 58.8229C58.4138 58.8229 57.01 57.4191 57.01 55.6907C57.01 53.9623 58.4138 52.5584 60.1423 52.5584C60.1597 52.5584 60.1773 52.5584 60.1949 52.5629C60.5414 50.1195 62.6471 48.2375 65.1871 48.2375C67.749 48.2375 69.8679 50.1502 70.1881 52.6287C70.3987 52.5805 70.6136 52.5584 70.8373 52.5584C72.5657 52.5584 73.9651 53.9623 73.9651 55.6907Z" fill="#D1DAFE"/>
<path d="M65.4881 56.7047C67.2411 56.7047 68.6622 55.2836 68.6622 53.5306C68.6622 51.7775 67.2411 50.3564 65.4881 50.3564C63.7351 50.3564 62.314 51.7775 62.314 53.5306C62.314 55.2836 63.7351 56.7047 65.4881 56.7047Z" fill="#AEC46E"/>
<path d="M68.6612 53.532C68.6612 55.2844 67.2415 56.704 65.4892 56.704C64.3843 56.704 63.4152 56.1426 62.843 55.2914C63.3687 55.4953 63.9588 55.6097 64.581 55.6097C66.5799 55.6097 68.2428 54.4297 68.5933 52.8741C68.6361 53.085 68.6612 53.3068 68.6612 53.532Z" fill="#617F4D"/>
<path d="M67.1565 52.2141C67.0532 52.5041 66.918 52.7545 66.767 52.9929C66.612 53.2273 66.4451 53.446 66.2623 53.6486C65.9006 54.058 65.4874 54.4118 65.0304 54.7176L64.923 54.7892C64.7641 54.8926 64.5495 54.8528 64.4422 54.6939C64.311 54.5071 64.1919 54.3124 64.0846 54.1056C63.9813 53.895 63.8819 53.6804 63.8184 53.4301C64.0647 53.5056 64.2753 53.617 64.478 53.7282C64.5416 53.7639 64.6052 53.8036 64.6688 53.8473C64.9628 53.5215 65.2887 53.2273 65.6424 52.9652C65.861 52.8063 66.0955 52.6592 66.3418 52.528C66.5922 52.4007 66.8584 52.2856 67.1565 52.2141Z" fill="white"/>
<path d="M58.8052 22.6303C58.8937 23.5917 59.6185 24.3609 60.5654 24.553C60.9793 24.6419 61.3787 24.7163 61.7929 24.7755V26.5653C61.7929 27.349 62.7398 27.7636 63.3018 27.2009L65.092 25.4559C65.2693 25.2927 65.5058 25.2045 65.7572 25.219C68.9822 25.4111 72.2364 25.1453 75.4907 24.4938C76.3487 24.3313 77.0143 23.6365 77.1476 22.7784C77.828 18.6664 77.7984 14.657 77.1624 10.7227C77.0143 9.83505 76.3043 9.12505 75.4315 8.97698C70.5799 8.16369 65.6243 8.14852 60.5798 8.96181C59.6185 9.10988 58.8789 9.90873 58.79 10.8701C58.4646 14.7162 58.4646 18.6361 58.8052 22.6303Z" fill="#7F1B11"/>
<path d="M56.9707 22.805C57.0592 23.7664 57.784 24.5356 58.7309 24.7277C59.1448 24.8166 59.5442 24.891 59.9585 24.9502V26.74C59.9585 27.5237 60.9054 27.9383 61.4673 27.3756L63.2575 25.6306C63.4348 25.4673 63.6714 25.3792 63.9227 25.3937C67.1477 25.5858 70.402 25.32 73.6562 24.6685C74.5143 24.506 75.1799 23.8111 75.3131 22.9531C75.9935 18.8411 75.9639 14.8317 75.3279 10.8974C75.1799 10.0097 74.4699 9.29973 73.597 9.15166C68.7454 8.33837 63.7898 8.3232 58.7454 9.1365C57.784 9.28456 57.0444 10.0834 56.9556 11.0448C56.6302 14.8909 56.6302 18.8108 56.9707 22.805Z" fill="#B53016"/>
<path d="M56.719 16.9921C56.719 18.9148 56.793 20.8375 56.9707 22.805C57.0592 23.7664 57.784 24.5356 58.7309 24.7277C59.1448 24.8166 59.5442 24.891 59.9584 24.9502V26.74C59.9584 27.5237 60.9054 27.9383 61.4673 27.3756L63.2575 25.6306C63.4348 25.4673 63.6713 25.3792 63.9227 25.3937C67.1477 25.5858 70.4019 25.32 73.6562 24.6685C74.5143 24.506 75.1798 23.8111 75.3131 22.9531C75.4164 22.2871 75.52 21.6219 75.5793 20.9704C73.5673 21.8733 71.2156 22.376 68.6862 22.376C63.4348 22.376 58.8786 20.1867 56.719 16.9921Z" fill="#912010"/>
<path d="M66.5194 18.0983L63.8974 21.6228C63.5512 22.0866 62.8585 22.0866 62.5124 21.6228L59.8967 18.0983C59.4761 17.5292 59.878 16.7254 60.5892 16.7254H61.3312V12.873C61.3312 12.3969 61.7147 12.0134 62.1908 12.0134H64.2253C64.7014 12.0134 65.0847 12.3969 65.0847 12.873V16.7254H65.8267C66.5317 16.7254 66.9398 17.5355 66.5194 18.0983Z" fill="#FBAD3E"/>
<path d="M66.5224 18.1005L63.8953 21.6255C63.5539 22.0857 62.8564 22.0857 62.5149 21.6255L60.9565 19.5253C62.3813 19.5623 64.0288 18.4937 65.0827 16.7275H65.8248C66.5298 16.7275 66.938 17.5363 66.5224 18.1005Z" fill="#FA990E"/>
<path d="M67.21 15.8858L69.832 12.3613C70.1782 11.8975 70.8708 11.8975 71.217 12.3613L73.8327 15.8858C74.2533 16.4549 73.8514 17.2587 73.1402 17.2587H72.3982V21.1111C72.3982 21.5872 72.0147 21.9707 71.5386 21.9707H69.5041C69.028 21.9707 68.6447 21.5872 68.6447 21.1111V17.2587H67.9027C67.1976 17.2587 66.7896 16.4486 67.21 15.8858Z" fill="#FBAD3E"/>
<path d="M67.207 15.8836L69.8341 12.3586C70.1754 11.8984 70.873 11.8984 71.2145 12.3586L72.7728 14.4588C71.348 14.4218 69.7006 15.4904 68.6466 17.2566H67.9045C67.1996 17.2566 66.7914 16.4478 67.207 15.8836Z" fill="#FA990E"/>
</svg>
