<svg width="80" height="80" viewBox="0 0 80 80" fill="none" xmlns="http://www.w3.org/2000/svg">
<g clip-path="url(#clip0_1_12226)">
<path d="M49.6553 0H11.0346C7.9877 0 5.51733 2.47037 5.51733 5.51724V74.4828C5.51733 77.5296 7.9877 80 11.0346 80H49.6553C52.7021 80 55.1725 77.5296 55.1725 74.4828V5.51724C55.1725 2.47037 52.7021 0 49.6553 0Z" fill="#5AAAE7"/>
<path d="M13.7932 80H11.0346C7.9877 80 5.51733 77.5296 5.51733 74.4828V5.51724C5.51733 2.47037 7.9877 0 11.0346 0H13.7932C10.7463 0 8.27595 2.47037 8.27595 5.51724V74.4828C8.27595 77.5296 10.7463 80 13.7932 80Z" fill="#3D9AE2"/>
<path d="M55.1725 70.8001V72.6482C54.27 73.0011 53.3494 73.3048 52.4139 73.5587C50.1671 74.175 47.8469 74.4861 45.5173 74.4828C34.561 74.4888 24.7583 67.6744 20.9463 57.4017C17.1344 47.1296 20.1193 35.5704 28.4275 28.4274C20.9086 37.1545 19.9725 49.769 26.1214 59.5104C32.2697 69.2511 44.0599 73.8328 55.1725 70.8001Z" fill="#3D9AE2"/>
<path d="M41.3793 0V4.13793C41.3746 5.65935 40.1421 6.89184 38.6206 6.89655H22.0689C20.5475 6.89184 19.315 5.65935 19.3103 4.13793V0H41.3793Z" fill="#FF9811"/>
<path d="M74.4826 45.5172C74.4826 57.335 66.5732 67.6899 55.1723 70.8001C52.9255 71.4164 50.6053 71.7275 48.2757 71.7241C33.8017 71.7241 22.0688 59.9912 22.0688 45.5172C22.0688 31.0432 33.8017 19.3103 48.2757 19.3103C50.6053 19.307 52.9255 19.6181 55.1723 20.2344C66.5732 23.3446 74.4826 33.6995 74.4826 45.5172Z" fill="#FFD422"/>
<path d="M20.6897 11.0345H23.4483V13.7931H20.6897V11.0345Z" fill="#1E81CE"/>
<path d="M26.2068 11.0345H28.9654V13.7931H26.2068V11.0345Z" fill="#1E81CE"/>
<path d="M31.7241 11.0345H34.4827V13.7931H31.7241V11.0345Z" fill="#1E81CE"/>
<path d="M37.2415 11.0345H40.0001V13.7931H37.2415V11.0345Z" fill="#1E81CE"/>
<path d="M24.5623 22.4246L26.675 20.6513L28.4483 22.7647L26.3356 24.538L24.5623 22.4246Z" fill="#3D9AE2"/>
<path d="M20.656 26.6831L22.4293 24.5696L24.5427 26.3436L22.7687 28.4564L20.656 26.6831Z" fill="#3D9AE2"/>
<path d="M17.5386 31.5403L18.9179 29.1507L21.3068 30.53L19.9274 32.9196L17.5386 31.5403Z" fill="#3D9AE2"/>
<path d="M15.3181 36.871L16.261 34.28L18.8533 35.2236L17.9104 37.8145L15.3181 36.871Z" fill="#3D9AE2"/>
<path d="M14.0571 42.5067L14.536 39.7899L17.2528 40.2687L16.774 42.9856L14.0571 42.5067Z" fill="#3D9AE2"/>
<path d="M13.7932 45.5172H16.5518V48.2759H13.7932V45.5172Z" fill="#3D9AE2"/>
<path d="M14.0571 51.2864L16.774 50.8082L17.2522 53.525L14.5353 54.0032L14.0571 51.2864Z" fill="#3D9AE2"/>
<path d="M15.3181 56.9235L17.9104 55.9799L18.8533 58.5708L16.2603 59.5144L15.3181 56.9235Z" fill="#3D9AE2"/>
<path d="M17.5391 62.2535L19.9279 60.8749L21.3072 63.2637L18.9177 64.643L17.5391 62.2535Z" fill="#3D9AE2"/>
<path d="M20.6514 67.1181L22.7655 65.3455L24.5381 67.4589L22.4247 69.2315L20.6514 67.1181Z" fill="#3D9AE2"/>
<path d="M24.561 71.3692L26.3337 69.2558L28.4478 71.0284L26.6745 73.1418L24.561 71.3692Z" fill="#3D9AE2"/>
<path d="M29.1501 74.8767L30.5295 72.4872L32.9183 73.8665L31.5397 76.2561L29.1501 74.8767Z" fill="#3D9AE2"/>
<path d="M25.9417 21.0453L28.0551 19.272L29.8284 21.3854L27.715 23.1587L25.9417 21.0453Z" fill="#FFD422"/>
<path d="M22.0354 25.3037L23.8087 23.1903L25.9221 24.9643L24.1481 27.077L22.0354 25.3037Z" fill="#FFD422"/>
<path d="M18.9177 30.1603L20.297 27.7714L22.6859 29.1507L21.3066 31.5403L18.9177 30.1603Z" fill="#FFD422"/>
<path d="M16.6978 35.4916L17.6406 32.9007L20.2329 33.845L19.29 36.4359L16.6978 35.4916Z" fill="#FFD422"/>
<path d="M15.4365 41.1267L15.9154 38.4099L18.6316 38.8887L18.1527 41.6056L15.4365 41.1267Z" fill="#FFD422"/>
<path d="M15.1724 44.1379H17.931V46.8966H15.1724V44.1379Z" fill="#FFD422"/>
<path d="M15.437 49.9064L18.1539 49.4282L18.6321 52.1451L15.9152 52.6233L15.437 49.9064Z" fill="#FFD422"/>
<path d="M16.6978 55.5428L19.2907 54.5999L20.2329 57.1909L17.6406 58.1344L16.6978 55.5428Z" fill="#FFD422"/>
<path d="M18.917 60.8742L21.3059 59.4956L22.6852 61.8844L20.2963 63.2637L18.917 60.8742Z" fill="#FFD422"/>
<path d="M22.0298 65.7388L24.1439 63.9662L25.9165 66.0796L23.8031 67.8522L22.0298 65.7388Z" fill="#FFD422"/>
<path d="M25.9409 69.9892L27.7135 67.8751L29.8276 69.6478L28.0543 71.7619L25.9409 69.9892Z" fill="#FFD422"/>
<path d="M30.5308 73.4974L31.9101 71.1079L34.2989 72.4872L32.9196 74.8768L30.5308 73.4974Z" fill="#FFD422"/>
<path d="M59.3103 12.4138H67.5862V15.1724H59.3103V12.4138Z" fill="#FF9811"/>
<path d="M66.2068 17.931H74.4826V20.6897H66.2068V17.931Z" fill="#FF9811"/>
<path d="M74.4826 4.13792H71.724V1.3793H68.9654V4.13792H66.2068V6.89654H68.9654V9.65516H71.724V6.89654H74.4826V4.13792Z" fill="#FF9811"/>
<path d="M68.9655 70.3448H66.2069V73.1034H63.4482V75.8621H66.2069V78.6207H68.9655V75.8621H71.7241V73.1034H68.9655V70.3448Z" fill="#FF9811"/>
<path d="M55.1725 37.2414H33.1035V56.5517C33.1082 58.0731 34.3407 59.3056 35.8621 59.3103H60.6897C62.2111 59.3056 63.4436 58.0731 63.4483 56.5517V37.2414H55.1725Z" fill="#78B9EB"/>
<path d="M60.6897 31.7241H35.8621C34.3407 31.7289 33.1082 32.9613 33.1035 34.4828V37.2414H63.4483V34.4828C63.4436 32.9613 62.2111 31.7289 60.6897 31.7241Z" fill="#FF6243"/>
<path d="M44.3225 52.3653L49.8391 42.8085L52.2286 44.1878L46.7121 53.7446L44.3225 52.3653Z" fill="#1E81CE"/>
<path d="M41.7835 53.389L37.6455 49.2511C37.1074 48.7123 37.1074 47.8394 37.6455 47.3007L41.7835 43.1627L43.7339 45.1132L40.5712 48.2759L43.7339 51.4386L41.7835 53.389Z" fill="#1E81CE"/>
<path d="M54.7683 53.389L52.8179 51.4386L55.9806 48.2759L52.8179 45.1132L54.7683 43.1627L58.9062 47.3007C59.4444 47.8394 59.4444 48.7123 58.9062 49.2511L54.7683 53.389Z" fill="#1E81CE"/>
</g>
<defs>
<clipPath id="clip0_1_12226">
<rect width="80" height="80" fill="white"/>
</clipPath>
</defs>
</svg>
