<svg width="46" height="39" viewBox="0 0 46 39" fill="none" xmlns="http://www.w3.org/2000/svg">
<rect x="0.334966" y="0.334966" width="44.8854" height="37.5162" rx="5.02449" fill="#F5F5F5"/>
<rect x="0.334966" y="0.334966" width="44.8854" height="37.5162" rx="5.02449" stroke="#E1E1E1" stroke-width="0.669931"/>
<g clip-path="url(#clip0_3877_4008)">
<path d="M29.9062 6H16.0938C12.7283 6 10 8.72826 10 12.0938V25.9062C10 29.2717 12.7283 32 16.0938 32H29.9062C33.2717 32 36 29.2717 36 25.9062V12.0938C36 8.72826 33.2717 6 29.9062 6Z" fill="#F4F2ED"/>
<path d="M13.4766 12.208L22.9295 8.84375L32.6313 12.1559L31.0633 24.657L22.9295 29.1562L14.9277 24.7154L13.4766 12.208Z" fill="#E23237"/>
<path d="M32.6314 12.156L22.9297 8.84375V29.1562L31.0635 24.657L32.6314 12.156Z" fill="#B52E31"/>
<path d="M22.9453 11.2188L17.0547 24.3203L19.2529 24.2758L20.4399 21.3154H25.7084L26.9983 24.2988L29.0942 24.3432L22.9453 11.2188ZM22.9598 15.4247L24.953 19.5869H21.2219L22.9656 15.4247H22.9598Z" fill="white"/>
</g>
<defs>
<clipPath id="clip0_3877_4008">
<rect width="26" height="26" fill="white" transform="translate(10 6)"/>
</clipPath>
</defs>
</svg>
