<svg width="218" height="55" viewBox="0 0 218 55" fill="none" xmlns="http://www.w3.org/2000/svg">
<g clip-path="url(#clip0_106_64)">
<path d="M63.5512 34.3455V33.1194C63.9984 33.1194 64.3146 33.0269 64.4996 32.8418C64.6847 32.6413 64.8004 32.3637 64.8466 32.009C64.8929 31.6543 64.916 31.2534 64.916 30.8061V26.4571C64.916 26.1795 64.9237 25.8865 64.9391 25.5781C64.9546 25.2696 64.9777 24.9535 65.0085 24.6296C64.7464 24.6451 64.4611 24.6605 64.1526 24.6759C63.8442 24.6913 63.5897 24.7067 63.3892 24.7222V23.2185C64.0832 23.2185 64.6538 23.1877 65.1011 23.126C65.5483 23.0489 65.8953 22.9563 66.1421 22.8484C66.3888 22.7404 66.5662 22.6402 66.6741 22.5477H67.6457C67.6765 22.7019 67.692 22.8947 67.692 23.126C67.7074 23.3419 67.7228 23.5424 67.7382 23.7274C68.2472 23.3265 68.8023 23.0103 69.4038 22.779C70.0053 22.5322 70.5913 22.4089 71.1619 22.4089C71.8867 22.4089 72.4882 22.54 72.9663 22.8021C73.4598 23.0643 73.8453 23.4421 74.1229 23.9356C74.6627 23.4884 75.2719 23.126 75.9504 22.8484C76.629 22.5554 77.2844 22.4089 77.9167 22.4089C79.1967 22.4089 80.1529 22.7867 80.7852 23.5424C81.4329 24.2826 81.7491 25.5472 81.7337 27.3362V31.0375C81.7337 31.2842 81.7259 31.5849 81.7105 31.9396C81.6951 32.2789 81.672 32.6105 81.6411 32.9344C81.8879 32.9035 82.15 32.8881 82.4276 32.8881C82.7052 32.8727 82.9366 32.865 83.1216 32.865V34.3455H77.6391V33.1194C78.0401 33.1194 78.3254 33.0269 78.495 32.8418C78.6647 32.6413 78.7649 32.3637 78.7958 32.009C78.842 31.6543 78.8652 31.2534 78.8652 30.8061V27.3593C78.8652 26.2489 78.6878 25.4547 78.3331 24.9766C77.9784 24.4985 77.4772 24.2595 76.8295 24.2595C76.3977 24.2441 75.9813 24.3289 75.5803 24.514C75.1947 24.6836 74.8555 24.8918 74.5624 25.1386C74.6396 25.4316 74.6935 25.7477 74.7244 26.087C74.7552 26.4263 74.7706 26.7887 74.7706 27.1743C74.7706 27.822 74.7706 28.4697 74.7706 29.1174C74.7706 29.7497 74.7629 30.3897 74.7475 31.0375C74.7475 31.2842 74.7398 31.5849 74.7244 31.9396C74.7244 32.2789 74.7012 32.6105 74.655 32.9344C74.9017 32.9035 75.1639 32.8881 75.4415 32.8881C75.7191 32.8727 75.9581 32.865 76.1586 32.865V34.3455H70.6067V33.1194C71.0231 33.1194 71.3161 33.0269 71.4858 32.8418C71.6708 32.6413 71.7865 32.3637 71.8328 32.009C71.879 31.6543 71.9022 31.2534 71.9022 30.8061V27.313C71.9022 26.2027 71.7325 25.4161 71.3932 24.9535C71.0694 24.4754 70.5836 24.2287 69.9359 24.2132C69.5195 24.2132 69.1185 24.3058 68.7329 24.4908C68.3628 24.6759 68.039 24.8995 67.7614 25.1617C67.7614 25.3622 67.7614 25.5627 67.7614 25.7631C67.7614 25.9482 67.7614 26.141 67.7614 26.3415V31.0375C67.7614 31.2842 67.7537 31.5849 67.7382 31.9396C67.7382 32.2789 67.7151 32.6105 67.6688 32.9344C67.9156 32.9035 68.1623 32.8881 68.4091 32.8881C68.6713 32.8727 68.8949 32.865 69.0799 32.865V34.3455H63.5512ZM95.8717 23.2648C95.8717 22.4012 95.7637 21.6917 95.5478 21.1366C95.3319 20.5659 95.008 20.1418 94.5762 19.8642C94.1598 19.5867 93.6278 19.4556 92.98 19.471H91.5689V30.8987C91.5689 31.315 91.5612 31.7006 91.5458 32.0553C91.5304 32.41 91.5073 32.6876 91.4764 32.8881C91.7694 32.8727 92.101 32.8572 92.4711 32.8418C92.8567 32.8264 93.1497 32.8187 93.3502 32.8187V34.3455H87.0349V33.0731C87.4667 33.0577 87.7983 32.9806 88.0296 32.8418C88.2609 32.703 88.4229 32.4717 88.5154 32.1478C88.6079 31.824 88.6542 31.369 88.6542 30.783L88.6773 19.4941H87.1737C86.2638 19.5095 85.5698 19.818 85.0917 20.4194C84.6136 21.0209 84.3746 21.9693 84.3746 23.2648H83.0792L83.1948 18.1524H97.0514L97.1902 23.2648H95.8717ZM103.151 34.7156C102.056 34.7156 101.061 34.4765 100.166 33.9985C99.272 33.505 98.5626 32.8187 98.0382 31.9396C97.5293 31.0452 97.2748 30.0042 97.2748 28.8167C97.2748 27.5675 97.537 26.4571 98.0613 25.4855C98.5857 24.514 99.2874 23.7583 100.166 23.2185C101.061 22.6788 102.04 22.4089 103.104 22.4089C104.199 22.4089 105.186 22.6556 106.065 23.1491C106.944 23.6426 107.638 24.3289 108.147 25.208C108.672 26.087 108.934 27.128 108.934 28.3309C108.934 29.5955 108.679 30.7136 108.17 31.6852C107.677 32.6413 106.991 33.3893 106.112 33.9291C105.248 34.4534 104.261 34.7156 103.151 34.7156ZM103.266 33.3045C103.96 33.3045 104.492 33.0886 104.862 32.6568C105.233 32.2249 105.487 31.6775 105.626 31.0143C105.78 30.3358 105.857 29.6418 105.857 28.9324C105.857 28.3309 105.803 27.7217 105.695 27.1049C105.603 26.488 105.448 25.9328 105.233 25.4393C105.017 24.9304 104.731 24.5294 104.377 24.2364C104.022 23.9279 103.59 23.7737 103.081 23.7737C102.403 23.7891 101.863 24.0128 101.462 24.4446C101.061 24.8764 100.768 25.4239 100.583 26.087C100.413 26.7501 100.328 27.4518 100.328 28.1921C100.328 29.0249 100.429 29.8422 100.629 30.6442C100.83 31.4307 101.146 32.0784 101.578 32.5874C102.009 33.0809 102.572 33.3199 103.266 33.3045ZM115.51 34.7156C114.615 34.7156 113.883 34.5459 113.312 34.2067C112.757 33.8674 112.348 33.3276 112.086 32.5874C111.824 31.8317 111.693 30.8447 111.693 29.6263V26.4803C111.693 26.2181 111.7 25.9251 111.716 25.6012C111.731 25.2774 111.747 24.9535 111.762 24.6296C111.515 24.6451 111.238 24.6605 110.929 24.6759C110.621 24.6759 110.366 24.6836 110.166 24.699V23.2185H110.559C111.407 23.2185 112.063 23.1491 112.526 23.0103C113.004 22.8561 113.328 22.7019 113.497 22.5477H114.561V29.6263C114.561 30.7367 114.708 31.5618 115.001 32.1016C115.309 32.6413 115.803 32.9112 116.481 32.9112C116.944 32.8958 117.399 32.757 117.846 32.4948C118.309 32.2327 118.679 31.9242 118.957 31.5695V26.5728C118.957 26.2644 118.964 25.9482 118.98 25.6243C118.995 25.2851 119.018 24.9535 119.049 24.6296C118.802 24.6451 118.517 24.6605 118.193 24.6759C117.885 24.6759 117.63 24.6836 117.43 24.699V23.2185H118.031C118.741 23.2185 119.327 23.1414 119.789 22.9872C120.267 22.833 120.584 22.6865 120.738 22.5477H121.802V30.8524C121.802 31.0683 121.794 31.3844 121.779 31.8008C121.763 32.2172 121.74 32.5951 121.709 32.9344C121.972 32.9035 122.249 32.8881 122.542 32.8881C122.835 32.8727 123.074 32.8572 123.259 32.8418V34.3455H119.234C119.203 34.1296 119.172 33.9136 119.142 33.6977C119.126 33.4818 119.111 33.2736 119.095 33.0731C118.617 33.505 118.077 33.8905 117.476 34.2298C116.89 34.5537 116.235 34.7156 115.51 34.7156ZM130.369 34.7156C129.335 34.7156 128.379 34.4843 127.5 34.0216C126.637 33.5589 125.943 32.8881 125.418 32.009C124.909 31.1146 124.655 30.0427 124.655 28.7936C124.655 27.9453 124.801 27.1434 125.094 26.3877C125.387 25.6166 125.796 24.9381 126.32 24.352C126.86 23.7506 127.5 23.2802 128.24 22.9409C128.981 22.5862 129.798 22.4089 130.692 22.4089C131.633 22.4089 132.427 22.5554 133.075 22.8484C133.723 23.126 134.216 23.5038 134.556 23.9819C134.895 24.4446 135.065 24.9381 135.065 25.4624C135.065 25.8788 134.941 26.2412 134.694 26.5497C134.463 26.8581 134.124 27.02 133.677 27.0355C133.152 27.0509 132.782 26.9044 132.566 26.5959C132.366 26.2721 132.266 25.9713 132.266 25.6937C132.266 25.5395 132.289 25.3776 132.335 25.208C132.381 25.0229 132.458 24.8532 132.566 24.699C132.458 24.4214 132.281 24.2209 132.034 24.0976C131.787 23.9588 131.533 23.8662 131.271 23.82C131.009 23.7737 130.8 23.7583 130.646 23.7737C129.798 23.8046 129.096 24.1901 128.541 24.9304C127.986 25.6706 127.708 26.7501 127.708 28.169C127.708 29.0172 127.824 29.8037 128.055 30.5285C128.302 31.2379 128.672 31.8163 129.166 32.2635C129.659 32.6953 130.292 32.9189 131.063 32.9344C131.741 32.9498 132.397 32.7878 133.029 32.4486C133.661 32.0939 134.178 31.6389 134.579 31.0837L135.504 31.9396C134.995 32.6645 134.448 33.2274 133.862 33.6283C133.276 34.0293 132.682 34.3069 132.08 34.4611C131.494 34.6308 130.924 34.7156 130.369 34.7156ZM144.027 33.1194C144.474 33.1194 144.791 33.0269 144.976 32.8418C145.161 32.6413 145.276 32.3637 145.323 32.009C145.369 31.6543 145.392 31.2534 145.392 30.8061V27.5212C145.377 26.4109 145.199 25.5858 144.86 25.046C144.521 24.5063 143.989 24.2364 143.264 24.2364C142.817 24.2364 142.369 24.3366 141.922 24.5371C141.49 24.7376 141.136 24.9843 140.858 25.2774V31.0375C140.858 31.2842 140.85 31.5849 140.835 31.9396C140.819 32.2789 140.789 32.6105 140.742 32.9344C141.004 32.9035 141.274 32.8881 141.552 32.8881C141.83 32.8727 142.061 32.865 142.246 32.865V34.3455H136.625V33.1194C137.072 33.1194 137.388 33.0269 137.573 32.8418C137.774 32.6413 137.889 32.3637 137.92 32.009C137.966 31.6543 137.989 31.2534 137.989 30.8061V20.8127C137.989 20.5505 137.997 20.2652 138.013 19.9568C138.028 19.6329 138.051 19.3013 138.082 18.9621C137.82 18.9775 137.535 18.9929 137.226 19.0083C136.918 19.0238 136.663 19.0392 136.463 19.0546V17.551C137.172 17.551 137.75 17.5201 138.198 17.4584C138.645 17.3813 138.992 17.2888 139.239 17.1808C139.501 17.0729 139.686 16.9726 139.794 16.8801H140.858V23.7737C141.166 23.5115 141.521 23.2802 141.922 23.0797C142.338 22.8792 142.763 22.7173 143.194 22.5939C143.626 22.4706 144.019 22.4089 144.374 22.4089C145.762 22.4089 146.749 22.8176 147.335 23.6349C147.937 24.4523 148.237 25.7554 148.237 27.5444L148.261 31.0375C148.261 31.2842 148.253 31.5849 148.237 31.9396C148.222 32.2789 148.199 32.6105 148.168 32.9344C148.415 32.9035 148.669 32.8881 148.931 32.8881C149.209 32.8727 149.448 32.865 149.648 32.865V34.3455H144.027V33.1194ZM157.466 34.3455V33.0731C157.898 33.0577 158.23 32.9883 158.461 32.865C158.692 32.7262 158.854 32.4948 158.947 32.171C159.039 31.8317 159.086 31.369 159.086 30.783V21.553C159.086 21.1674 159.093 20.7973 159.109 20.4426C159.14 20.0879 159.163 19.8103 159.178 19.6098C158.916 19.6252 158.615 19.6406 158.276 19.6561C157.937 19.6561 157.667 19.6638 157.466 19.6792V18.1524H163.62V19.4247C163.203 19.4401 162.872 19.5173 162.625 19.6561C162.394 19.7794 162.232 20.003 162.139 20.3269C162.047 20.6508 162 21.1134 162 21.7149V30.9218C162 31.3382 161.993 31.7237 161.977 32.0784C161.962 32.4177 161.939 32.6876 161.908 32.8881L165.424 32.865C166.349 32.865 167.066 32.5565 167.575 31.9396C168.084 31.3073 168.339 30.3435 168.339 29.048H169.634L169.495 34.3455H157.466ZM177.813 34.3455C177.766 34.1141 177.736 33.9214 177.72 33.7671C177.72 33.5975 177.712 33.4047 177.697 33.1888C177.173 33.7132 176.61 34.0987 176.008 34.3455C175.422 34.5922 174.813 34.7156 174.181 34.7156C173.132 34.7156 172.322 34.4303 171.752 33.8597C171.197 33.2891 170.919 32.5874 170.919 31.7546C170.919 31.0143 171.12 30.3897 171.52 29.8808C171.921 29.3565 172.446 28.9324 173.094 28.6085C173.741 28.2692 174.458 28.0147 175.245 27.8451C176.031 27.66 176.81 27.5598 177.581 27.5444V26.2721C177.581 25.8248 177.527 25.4161 177.419 25.046C177.327 24.6605 177.15 24.3597 176.887 24.1438C176.625 23.9125 176.24 23.7968 175.731 23.7968C175.391 23.8123 175.044 23.8894 174.69 24.0282C174.35 24.1515 174.081 24.352 173.88 24.6296C174.003 24.7684 174.081 24.9226 174.111 25.0923C174.142 25.2465 174.158 25.3853 174.158 25.5087C174.158 25.7863 174.05 26.0793 173.834 26.3877C173.618 26.6807 173.271 26.8195 172.793 26.8041C172.376 26.7887 172.053 26.6422 171.821 26.3646C171.605 26.087 171.497 25.7554 171.497 25.3699C171.497 24.7838 171.706 24.2749 172.122 23.8431C172.554 23.3959 173.132 23.0489 173.857 22.8021C174.582 22.54 175.391 22.4089 176.286 22.4089C177.612 22.4089 178.63 22.7559 179.339 23.4499C180.049 24.1438 180.396 25.2542 180.38 26.781C180.38 27.3208 180.38 27.8143 180.38 28.2615C180.38 28.6933 180.373 29.1328 180.357 29.5801C180.357 30.0119 180.357 30.4977 180.357 31.0375C180.357 31.2688 180.35 31.5618 180.334 31.9165C180.319 32.2558 180.296 32.5951 180.265 32.9344C180.542 32.9035 180.82 32.8881 181.098 32.8881C181.391 32.8727 181.63 32.8572 181.815 32.8418V34.3455H177.813ZM177.558 28.9092C177.096 28.9401 176.641 29.0172 176.193 29.1406C175.746 29.2485 175.345 29.4027 174.99 29.6032C174.636 29.8037 174.35 30.0582 174.135 30.3666C173.934 30.6596 173.841 30.9989 173.857 31.3844C173.872 31.8625 174.027 32.2172 174.32 32.4486C174.613 32.6645 174.952 32.7724 175.337 32.7724C175.785 32.7724 176.186 32.6799 176.54 32.4948C176.91 32.3098 177.25 32.063 177.558 31.7546C177.558 31.6004 177.558 31.4384 177.558 31.2688C177.558 31.0991 177.558 30.9295 177.558 30.7599C177.558 30.5439 177.558 30.2741 177.558 29.9502C177.558 29.6263 177.558 29.2793 177.558 28.9092ZM183.815 20.8127C183.815 20.5505 183.815 20.2652 183.815 19.9568C183.831 19.6329 183.854 19.3013 183.885 18.9621C183.638 18.9775 183.353 18.9929 183.029 19.0083C182.72 19.0238 182.466 19.0392 182.265 19.0546V17.551C182.975 17.551 183.553 17.5201 184 17.4584C184.448 17.3813 184.795 17.2888 185.041 17.1808C185.303 17.0729 185.489 16.9726 185.597 16.8801H186.661V23.7043C187.154 23.2417 187.678 22.9101 188.234 22.7096C188.789 22.5091 189.344 22.4089 189.899 22.4089C190.855 22.4089 191.696 22.6479 192.421 23.126C193.161 23.6041 193.739 24.2826 194.156 25.1617C194.572 26.0407 194.78 27.074 194.78 28.2615C194.78 29.5261 194.534 30.6442 194.04 31.6158C193.547 32.5874 192.868 33.3507 192.004 33.9059C191.141 34.4457 190.146 34.7156 189.02 34.7156C188.573 34.7156 188.025 34.6231 187.378 34.438C186.745 34.2529 186.167 33.8828 185.643 33.3276L184.995 34.3455H183.815V20.8127ZM186.661 30.8293C186.661 31.4461 186.761 31.9319 186.961 32.2866C187.162 32.6413 187.416 32.8958 187.725 33.05C188.049 33.1888 188.372 33.2659 188.696 33.2813C189.406 33.2813 189.976 33.0731 190.408 32.6568C190.855 32.2404 191.179 31.6852 191.38 30.9912C191.596 30.2818 191.704 29.5184 191.704 28.701C191.704 27.8682 191.603 27.1126 191.403 26.434C191.202 25.74 190.894 25.1925 190.478 24.7916C190.061 24.3752 189.514 24.167 188.835 24.167C188.419 24.1824 188.018 24.2903 187.632 24.4908C187.247 24.6913 186.923 24.9535 186.661 25.2774V30.8293ZM201.701 34.7156C200.992 34.7156 200.328 34.6231 199.712 34.438C199.095 34.2529 198.601 34.0293 198.231 33.7671L198.3 34.5074H196.797L196.681 30.5285H197.93C197.977 31.0529 198.162 31.531 198.486 31.9628C198.809 32.3792 199.226 32.7107 199.735 32.9575C200.259 33.1888 200.837 33.3045 201.47 33.3045C201.778 33.3045 202.071 33.2582 202.349 33.1657C202.642 33.0731 202.881 32.9266 203.066 32.7262C203.266 32.5102 203.367 32.2404 203.367 31.9165C203.367 31.5772 203.251 31.2996 203.02 31.0837C202.804 30.8678 202.495 30.6673 202.094 30.4823C201.693 30.2972 201.223 30.1044 200.683 29.9039C200.205 29.7189 199.727 29.5261 199.249 29.3256C198.771 29.1251 198.331 28.8861 197.93 28.6085C197.529 28.3155 197.205 27.9608 196.959 27.5444C196.712 27.128 196.589 26.6191 196.589 26.0176C196.589 25.6012 196.666 25.1848 196.82 24.7684C196.974 24.352 197.221 23.9665 197.56 23.6118C197.899 23.2417 198.331 22.9486 198.856 22.7327C199.395 22.5168 200.051 22.4089 200.822 22.4089C201.238 22.4089 201.709 22.4783 202.233 22.6171C202.757 22.7404 203.22 22.9563 203.621 23.2648L203.598 22.5245H205.102V26.5959H203.852C203.775 26.0562 203.606 25.5781 203.343 25.1617C203.081 24.7299 202.734 24.3906 202.302 24.1438C201.871 23.8971 201.354 23.7737 200.753 23.7737C200.259 23.7737 199.843 23.8971 199.503 24.1438C199.164 24.3752 198.994 24.7222 198.994 25.1848C198.994 25.5704 199.126 25.8865 199.388 26.1333C199.65 26.38 200.005 26.5882 200.452 26.7579C200.899 26.9275 201.385 27.1126 201.909 27.313C202.634 27.5598 203.289 27.8528 203.875 28.1921C204.477 28.5314 204.955 28.9401 205.31 29.4181C205.664 29.8962 205.842 30.49 205.842 31.1994C205.842 32.0013 205.641 32.6645 205.24 33.1888C204.839 33.6977 204.323 34.0833 203.69 34.3455C203.058 34.5922 202.395 34.7156 201.701 34.7156Z" fill="white"/>
<path d="M29.4141 48.406C42.0994 48.406 52.3828 38.2318 52.3828 25.6813C52.3828 13.1307 42.0994 2.95654 29.4141 2.95654C16.7288 2.95654 6.44531 13.1307 6.44531 25.6813C6.44531 38.2318 16.7288 48.406 29.4141 48.406Z" fill="white" stroke="#B7BBBE" stroke-width="0.63"/>
<path d="M19.1016 12.4638L8.90625 33.4494L23.5547 21.3334L29.4141 33.1595L35.4492 21.3334L49.9805 33.4494L39.6094 12.4638L29.4141 21.3334L19.1016 12.4638Z" fill="#58595A"/>
<path d="M29.4141 33.1016V21.3334L19.1602 12.4638L29.4141 33.1016Z" fill="#5599FC"/>
<path d="M49.9219 33.4494L39.668 12.5218L35.4492 21.3334L49.9219 33.4494Z" fill="#3E8CFB"/>
</g>
<defs>
<clipPath id="clip0_106_64">
<rect width="218" height="55" fill="white"/>
</clipPath>
</defs>
</svg>
