<svg width="46" height="39" viewBox="0 0 46 39" fill="none" xmlns="http://www.w3.org/2000/svg">
<rect x="0.334966" y="0.334966" width="44.8854" height="37.5162" rx="5.02449" fill="#F5F5F5"/>
<rect x="0.334966" y="0.334966" width="44.8854" height="37.5162" rx="5.02449" stroke="#E1E1E1" stroke-width="0.669931"/>
<path d="M28.8917 28.66C27.7484 29.7683 26.5 29.5933 25.2984 29.0683C24.0267 28.5317 22.86 28.5083 21.5184 29.0683C19.8384 29.7917 18.9517 29.5817 17.9484 28.66C12.255 22.7917 13.095 13.855 19.5584 13.5283C21.1334 13.61 22.23 14.3917 23.1517 14.4617C24.5284 14.1817 25.8467 13.3767 27.3167 13.4817C29.0784 13.6217 30.4084 14.3217 31.2834 15.5817C27.6434 17.7633 28.5067 22.5583 31.8434 23.9C31.1784 25.65 30.315 27.3883 28.88 28.6717L28.8917 28.66ZM23.035 13.4583C22.86 10.8567 24.9717 8.71 27.3984 8.5C27.7367 11.51 24.6684 13.75 23.035 13.4583Z" fill="#1C1C1C"/>
</svg>
