<svg width="650" height="650" viewBox="0 0 650 650" fill="none" xmlns="http://www.w3.org/2000/svg">
<path d="M521.85 348.725C411.923 285.259 234.277 285.259 125.064 348.726C15.8442 412.198 16.4227 515.096 126.351 578.564C236.285 642.034 413.93 642.034 523.15 578.561C632.363 515.095 631.784 412.196 521.85 348.725Z" fill="#F5F5F5"/>
<path d="M366.803 308.175C379.462 315.484 379.53 327.335 366.952 334.643C354.375 341.952 333.918 341.953 321.257 334.643C308.598 327.335 308.532 315.485 321.109 308.175C333.687 300.867 354.143 300.867 366.803 308.175Z" fill="#E6E6E6"/>
<path d="M95.4331 515.023L107.227 521.4C109.571 522.667 112.403 522.625 114.708 521.288L280.881 424.911C283.468 423.411 283.412 419.655 280.781 418.233L265.214 409.818L95.333 508.345C92.746 509.846 92.8019 513.601 95.4331 515.023Z" fill="#E6E6E6"/>
<path d="M463.869 493.12C439.469 479.033 400.039 479.033 375.798 493.12C351.555 507.208 351.684 530.048 376.084 544.134C400.485 558.222 439.915 558.222 464.158 544.134C488.399 530.048 488.27 507.208 463.869 493.12Z" fill="#E6E6E6"/>
<path d="M556.554 427.752C546.804 422.259 531.144 422.425 521.576 428.121C512.006 433.818 512.153 442.888 521.903 448.38C531.653 453.873 547.313 453.708 556.882 448.011C566.45 442.316 566.304 433.246 556.554 427.752Z" fill="#E6E6E6"/>
<path d="M346.944 220.657H344.031H341.118C341.118 245.705 342.028 328.147 342.028 328.147C342.029 328.444 342.227 328.742 342.619 328.968C343.404 329.421 344.672 329.421 345.452 328.968C345.842 328.742 346.036 328.444 346.034 328.147C346.034 328.147 346.944 245.705 346.944 220.657Z" fill="#E6E6E6"/>
<path d="M335.191 209.365H329.364C324.359 235.276 321.105 316.856 321.105 316.856C321.107 317.152 321.304 317.45 321.697 317.676C322.482 318.128 323.75 318.128 324.53 317.676C324.92 317.45 325.113 317.152 325.112 316.856C325.112 316.856 330.636 234.913 335.191 209.365Z" fill="#E6E6E6"/>
<path d="M352.871 209.365H358.698C363.703 235.276 366.957 316.856 366.957 316.856C366.955 317.152 366.758 317.45 366.365 317.676C365.58 318.128 364.312 318.128 363.532 317.676C363.142 317.45 362.949 317.152 362.95 316.856C362.95 316.856 357.426 234.913 352.871 209.365Z" fill="#E6E6E6"/>
<g opacity="0.1">
<path d="M346.944 220.657H344.031H341.118C341.118 245.705 342.028 328.147 342.028 328.147C342.029 328.444 342.227 328.742 342.619 328.968C343.404 329.421 344.672 329.421 345.452 328.968C345.842 328.742 346.036 328.444 346.034 328.147C346.034 328.147 346.944 245.705 346.944 220.657Z" fill="black"/>
<path d="M335.191 209.365H329.364C324.359 235.276 321.105 316.856 321.105 316.856C321.107 317.152 321.304 317.45 321.697 317.676C322.482 318.128 323.75 318.128 324.53 317.676C324.92 317.45 325.113 317.152 325.112 316.856C325.112 316.856 330.636 234.913 335.191 209.365Z" fill="black"/>
<path d="M352.871 209.365H358.698C363.703 235.276 366.957 316.856 366.957 316.856C366.955 317.152 366.758 317.45 366.365 317.676C365.58 318.128 364.312 318.128 363.532 317.676C363.142 317.45 362.949 317.152 362.95 316.856C362.95 316.856 357.426 234.913 352.871 209.365Z" fill="black"/>
</g>
<path d="M375.367 208.622H374.75C373.569 205.212 370.693 201.958 366.117 199.316C353.839 192.227 333.999 192.227 321.801 199.316C317.255 201.958 314.414 205.212 313.272 208.622H312.694V212.151C312.72 216.796 315.807 221.442 321.945 224.986C334.224 232.075 354.064 232.075 366.262 224.986C372.36 221.442 375.395 216.797 375.367 212.151V208.622Z" fill="#E0E0E0"/>
<path d="M366.116 195.787C378.395 202.876 378.458 214.368 366.262 221.456C354.064 228.545 334.223 228.545 321.945 221.456C309.668 214.368 309.603 202.876 321.801 195.787C333.998 188.698 353.839 188.698 366.116 195.787Z" fill="#EBEBEB"/>
<path d="M359.408 185.302H344.031H328.655C328.655 195.404 333.374 203.969 334.825 206.513C334.882 206.629 334.951 206.743 335.021 206.857C335.042 206.894 335.07 206.943 335.088 206.976L335.092 206.974C335.563 207.687 336.286 208.356 337.28 208.93C341.033 211.097 347.098 211.097 350.825 208.93C352.074 208.204 352.892 207.325 353.3 206.4C354.816 203.733 359.408 195.273 359.408 185.302Z" fill="#E0E0E0"/>
<path d="M354.868 179.005C360.892 182.484 360.925 188.122 354.94 191.601C348.954 195.079 339.219 195.079 333.194 191.601C327.17 188.122 327.138 182.484 333.124 179.005C339.108 175.526 348.844 175.526 354.868 179.005Z" fill="#EBEBEB"/>
<path d="M342.367 181.329C342.329 174.776 340.8 168.234 337.931 162.343C337.028 160.486 335.971 158.621 335.832 156.562C335.693 154.501 336.825 152.17 338.848 151.762C340.436 151.441 342.063 152.415 342.988 153.745C343.915 155.074 344.286 156.702 344.625 158.287C346.147 165.404 347.41 172.718 346.454 179.933C346.351 180.712 346.284 181.658 345.957 182.372C345.631 183.086 344.985 183.707 344.204 183.776C343.69 183.821 343.16 183.613 342.814 183.23C342.468 182.845 342.37 181.845 342.367 181.329Z" fill="#EBEBEB"/>
<path d="M344.057 181.916C344.049 181.916 344.042 181.916 344.035 181.914C343.895 181.903 343.793 181.78 343.804 181.643C344.578 172.439 342.998 163.115 339.234 154.682C339.176 154.554 339.234 154.406 339.361 154.349C339.488 154.293 339.638 154.349 339.694 154.476C343.492 162.989 345.086 172.397 344.305 181.685C344.296 181.817 344.185 181.916 344.057 181.916Z" fill="white"/>
<path d="M327.399 170.615C326.042 169.776 324.501 168.874 324.089 167.334C323.722 165.961 324.462 164.441 325.652 163.664C326.841 162.886 328.379 162.774 329.76 163.11C331.14 163.444 332.389 164.184 333.546 165.009C335.512 166.409 337.266 168.101 338.758 169.995C340.538 172.251 341.948 174.798 342.926 177.501C343.554 179.238 344.138 181.055 344.425 182.905C344.652 184.365 345.088 186.784 343.577 187.74C342.922 188.154 342.038 188.085 341.363 187.705C340.689 187.322 340.202 186.671 339.863 185.973C339.525 185.275 339.317 184.523 339.07 183.788C338.085 180.85 336.496 178.351 334.389 176.116C332.352 173.953 329.921 172.172 327.399 170.615Z" fill="#F5F5F5"/>
<path d="M342.92 185.981C342.753 186.016 342.591 185.909 342.556 185.744C340.724 177.072 334.64 169.259 326.681 165.356C326.529 165.282 326.466 165.098 326.541 164.945C326.616 164.793 326.8 164.731 326.952 164.805C335.077 168.79 341.287 176.764 343.158 185.617C343.191 185.782 343.085 185.946 342.92 185.981Z" fill="white"/>
<path d="M357.494 167.483C358.594 166.329 359.857 165.065 359.865 163.47C359.873 162.049 358.772 160.766 357.424 160.315C356.075 159.864 354.561 160.146 353.309 160.819C352.057 161.493 351.037 162.525 350.125 163.616C348.578 165.468 347.31 167.548 346.345 169.759C345.196 172.393 344.474 175.214 344.213 178.077C344.045 179.916 343.941 181.822 344.131 183.684C344.281 185.153 344.473 187.604 346.176 188.147C346.914 188.382 347.753 188.092 348.309 187.551C348.866 187.01 349.171 186.258 349.322 185.496C349.473 184.735 349.483 183.955 349.535 183.182C349.744 180.089 350.649 177.271 352.121 174.576C353.548 171.965 355.449 169.627 357.494 167.483Z" fill="#F5F5F5"/>
<path d="M346.369 186.277C346.54 186.269 346.67 186.125 346.662 185.956C346.238 177.102 350.146 168.004 356.857 162.213C356.985 162.102 357 161.909 356.889 161.78C356.779 161.651 356.585 161.638 356.456 161.749C349.605 167.66 345.617 176.947 346.048 185.986C346.056 186.154 346.2 186.285 346.369 186.277Z" fill="white"/>
<path d="M513.154 124.496L513.059 157.808L509.021 160.155L509.129 122.171L513.154 124.496Z" fill="#F0F0F0"/>
<path d="M556.647 182.974L556.633 187.642L509.021 160.155L513.059 157.808L556.647 182.974Z" fill="#F5F5F5"/>
<path d="M504.127 162.943L561.496 196.065L561.635 146.878L504.266 113.755L504.127 162.943ZM509.021 160.155L509.129 122.173L513.153 124.496L556.741 149.661L556.646 182.974L556.633 187.643L509.021 160.155Z" fill="#E0E0E0"/>
<path d="M504.268 113.758L508.304 111.411L565.673 144.533L561.635 146.879L504.268 113.758Z" fill="#F5F5F5"/>
<path d="M565.673 144.533L565.534 193.72L561.496 196.066L561.635 146.879L565.673 144.533Z" fill="#F0F0F0"/>
<path d="M527.003 137.144L515.116 146.504L515.09 155.646L554.625 178.473L554.651 169.329L547.117 154.365L540.351 159.617L542.743 167.049L539.272 160.45L527.003 137.144Z" fill="#E0E0E0"/>
<path d="M539.989 141.752C538.129 140.678 536.614 141.54 536.609 143.679C536.602 145.817 538.107 148.422 539.967 149.496C541.827 150.57 543.342 149.708 543.348 147.569C543.353 145.431 541.851 142.827 539.989 141.752Z" fill="#E0E0E0"/>
<path d="M442.234 83.7433L442.14 117.056L438.103 119.402L438.21 81.4189L442.234 83.7433Z" fill="#F0F0F0"/>
<path d="M485.727 142.22L485.714 146.891L438.103 119.402L442.14 117.056L485.727 142.22Z" fill="#F5F5F5"/>
<path d="M433.208 122.191L490.577 155.312L490.716 106.126L433.347 73.0042L433.208 122.191ZM438.103 119.402L438.21 81.419L442.234 83.7421L485.822 108.908L485.727 142.22L485.714 146.89L438.103 119.402Z" fill="#E0E0E0"/>
<path d="M433.347 73.0054L437.385 70.6589L494.754 103.78L490.716 106.127L433.347 73.0054Z" fill="#F5F5F5"/>
<path d="M494.754 103.78L494.614 152.967L490.577 155.314L490.716 106.127L494.754 103.78Z" fill="#F0F0F0"/>
<path d="M456.084 96.3911L444.197 105.751L444.171 114.894L483.706 137.719L483.732 128.577L476.198 113.612L469.432 118.864L471.824 126.296L468.352 119.698L456.084 96.3911Z" fill="#E0E0E0"/>
<path d="M469.07 101C467.21 99.9257 465.695 100.788 465.688 102.926C465.682 105.065 467.186 107.669 469.048 108.744C470.908 109.817 472.423 108.956 472.428 106.817C472.434 104.679 470.93 102.073 469.07 101Z" fill="#E0E0E0"/>
<path d="M562.245 395.496L538.79 396.427L515.321 395.99C514.478 411.845 517.742 427.96 522.091 435.802L522.107 435.799C522.89 437.521 524.442 439.146 526.802 440.476C533.767 444.401 544.955 444.283 551.79 440.212C554.16 438.802 555.676 437.099 556.381 435.315C560.526 427.342 563.416 411.251 562.245 395.496Z" fill="white"/>
<path d="M555.216 385.959C564.464 391.17 564.604 399.773 555.528 405.177C546.451 410.581 531.596 410.737 522.347 405.527C513.098 400.317 512.959 391.713 522.036 386.309C531.114 380.905 545.969 380.749 555.216 385.959Z" fill="#EBEBEB"/>
<path d="M551.605 388.11C558.82 392.175 558.929 398.888 551.848 403.102C544.767 407.318 533.177 407.441 525.961 403.375C518.746 399.31 518.637 392.598 525.719 388.383C532.799 384.167 544.388 384.044 551.605 388.11Z" fill="#E0E0E0"/>
<g opacity="0.15">
<path d="M551.605 388.11C558.82 392.175 558.929 398.888 551.848 403.102C544.767 407.318 533.177 407.441 525.961 403.375C518.746 399.31 518.637 392.598 525.719 388.383C532.799 384.167 544.388 384.044 551.605 388.11Z" fill="black"/>
</g>
<path d="M576.302 295.218C523.611 313.088 523.506 348.465 535.691 373.529C538.751 378.596 547.877 381.239 555.465 349.827L541.597 351.754L557.695 343.381L561.766 330.771L548.283 331.915L565.335 324.531C571.442 305.375 576.302 295.218 576.302 295.218Z" fill="#0E85A5"/>
<path opacity="0.2" d="M576.302 295.218C523.611 313.088 523.506 348.465 535.691 373.529C538.751 378.596 547.877 381.239 555.465 349.827L541.597 351.754L557.695 343.381L561.766 330.771L548.283 331.915L565.335 324.531C571.442 305.375 576.302 295.218 576.302 295.218Z" fill="black"/>
<path opacity="0.2" d="M576.302 295.218C523.611 313.088 523.506 348.465 535.691 373.529C538.751 378.596 547.877 381.239 555.465 349.827L541.597 351.754L557.695 343.381L561.766 330.771L548.283 331.915L565.335 324.531C571.442 305.375 576.302 295.218 576.302 295.218Z" fill="white"/>
<path d="M561.44 304.222C533.781 325.679 531.519 349.967 539.664 375.213C536.641 352.938 533.393 330.42 561.44 304.222Z" fill="white"/>
<path d="M487.127 332.094C539.322 338.883 545.992 371.679 539.344 397.192C537.447 402.46 529.472 406.606 516.599 378.88L529.822 378.091L513.334 373.313L507.215 362.372L519.934 360.929L502.744 357.246C493.52 340.613 487.127 332.094 487.127 332.094Z" fill="#0E85A5"/>
<path opacity="0.2" d="M487.127 332.094C539.322 338.883 545.992 371.679 539.344 397.192C537.447 402.46 529.472 406.606 516.599 378.88L529.822 378.091L513.334 373.313L507.215 362.372L519.934 360.929L502.744 357.246C493.52 340.613 487.127 332.094 487.127 332.094Z" fill="white"/>
<path opacity="0.1" d="M487.127 332.094C539.322 338.883 545.992 371.679 539.344 397.192C537.447 402.46 529.472 406.606 516.599 378.88L529.822 378.091L513.334 373.313L507.215 362.372L519.934 360.929L502.744 357.246C493.52 340.613 487.127 332.094 487.127 332.094Z" fill="black"/>
<path d="M502.584 337.685C532.227 352.451 538.836 374.56 535.971 399.491C534.637 378.269 533.467 356.777 502.584 337.685Z" fill="white"/>
<path d="M592.064 343.304C544.276 344.59 535.205 373.6 538.841 397.267C540.065 402.203 546.885 406.691 561.092 382.836L549.219 380.895L564.559 378.11L571.103 368.793L559.745 366.307L575.616 364.577C585.496 350.407 592.064 343.304 592.064 343.304Z" fill="#0E85A5"/>
<path d="M577.579 346.919C549.427 357.505 541.402 376.867 541.675 399.658C544.851 380.609 547.904 361.298 577.579 346.919Z" fill="white"/>
<path opacity="0.2" d="M592.064 343.304C544.276 344.59 535.205 373.6 538.841 397.267C540.065 402.203 546.885 406.691 561.092 382.836L549.219 380.895L564.559 378.11L571.103 368.793L559.745 366.307L575.616 364.577C585.496 350.407 592.064 343.304 592.064 343.304Z" fill="white"/>
<path d="M278.312 69.03L278.324 69.0196C277.19 65.0416 269.113 57.4769 261.075 57.6355C260.785 57.6329 259.34 57.7811 258.818 58.0775L102.682 146.909C100.027 148.418 97.9785 150.688 96.6811 153.339C95.697 155.35 95.1328 157.574 95.1328 159.89V497.622C95.1328 506.225 105.053 514.435 114.366 510.485C114.39 510.475 114.405 510.452 114.429 510.441C114.629 510.368 114.832 510.311 115.027 510.199L271.168 421.221C275.83 418.564 278.71 413.611 278.71 408.244V70.6576C278.711 70.057 278.551 69.5175 278.312 69.03Z" fill="#0E85A5"/>
<path opacity="0.3" d="M278.312 69.03L278.324 69.0196C277.19 65.0416 269.113 57.4769 261.075 57.6355C260.785 57.6329 259.34 57.7811 258.818 58.0775L102.682 146.909C100.027 148.418 97.9785 150.688 96.6811 153.339C95.697 155.35 95.1328 157.574 95.1328 159.89V497.622C95.1328 506.225 105.053 514.435 114.366 510.485C114.39 510.475 114.405 510.452 114.429 510.441C114.629 510.368 114.832 510.311 115.027 510.199L271.168 421.221C275.83 418.564 278.71 413.611 278.71 408.244V70.6576C278.711 70.057 278.551 69.5175 278.312 69.03Z" fill="black"/>
<path d="M116.915 195.588C116.915 192.903 118.356 190.424 120.69 189.097L265.663 106.617C268.153 105.201 271.243 106.999 271.243 109.862V382.196C271.243 384.873 269.797 387.36 267.47 388.687L122.497 471.299C120.007 472.718 116.915 470.92 116.915 468.055V195.588Z" fill="#455A64"/>
<path opacity="0.3" d="M95.1328 159.89V497.622C95.1328 506.225 105.053 514.435 114.366 510.485C114.39 510.475 114.405 510.451 114.429 510.441C112.068 511.296 109.445 509.596 109.445 506.956V169.225C109.445 166.232 110.366 163.387 111.967 160.976L96.6798 153.339C95.697 155.35 95.1328 157.574 95.1328 159.89Z" fill="black"/>
<path opacity="0.1" d="M261.075 57.6355C260.785 57.6329 259.34 57.7811 258.818 58.0775L102.682 146.909C100.027 148.418 97.9786 150.688 96.6812 153.339L111.968 160.976C113.239 159.063 114.929 157.418 116.996 156.243L273.13 67.4128C275.097 66.2935 277.415 67.197 278.312 69.03L278.324 69.0196C277.19 65.0403 269.113 57.4769 261.075 57.6355Z" fill="white"/>
<path d="M213.322 123.183C214.42 122.55 215.327 123.04 215.331 124.299C215.335 125.559 214.431 127.124 213.334 127.757L182.701 145.444C181.604 146.077 180.72 145.545 180.716 144.284C180.712 143.025 181.592 141.502 182.688 140.869L213.322 123.183Z" fill="#263238"/>
<path d="M174.822 145.41C175.918 144.777 176.803 145.281 176.807 146.541C176.811 147.801 175.931 149.352 174.835 149.985C173.739 150.618 172.829 150.101 172.826 148.84C172.822 147.58 173.726 146.043 174.822 145.41Z" fill="#263238"/>
<path d="M194.43 120.61C196.62 119.345 198.388 120.353 198.396 122.869C198.402 125.388 196.646 128.484 194.455 129.749C192.265 131.014 190.449 129.979 190.442 127.461C190.435 124.944 192.239 121.875 194.43 120.61Z" fill="#263238"/>
<path d="M194.441 438.558C198.903 435.981 202.504 438.032 202.518 443.16C202.532 448.287 198.955 454.596 194.493 457.171C190.032 459.748 186.333 457.639 186.319 452.512C186.305 447.385 189.978 441.133 194.441 438.558Z" fill="#263238"/>
<path d="M301.189 124.851L301.214 124.836L292.773 120.367L292.776 120.403C291.654 119.571 290.1 119.341 288.716 120.129L143.742 202.609C141.409 203.936 139.967 206.415 139.967 209.1V221.594V481.567C139.967 483.219 141.006 484.491 142.354 485.021L142.333 485.039L150.833 489.603C150.844 489.61 150.857 489.616 150.869 489.623C150.912 489.648 150.96 489.658 151.004 489.68C152.065 490.234 153.382 490.305 154.57 489.628L299.545 407.016C301.872 405.688 303.317 403.202 303.317 400.525V137.704V128.193C303.316 126.65 302.408 125.438 301.189 124.851Z" fill="#0E85A5"/>
<path opacity="0.3" d="M303.316 137.704V128.193C303.316 126.65 302.407 125.438 301.189 124.851L301.214 124.836L292.773 120.367L292.776 120.403C291.654 119.571 290.1 119.341 288.716 120.129L143.742 202.609C141.409 203.936 139.967 206.415 139.967 209.1V221.594L148.987 226.803L303.316 137.704Z" fill="white"/>
<path opacity="0.5" d="M301.189 124.851L301.214 124.836L292.773 120.367L292.776 120.403C291.654 119.571 290.1 119.341 288.716 120.129L143.742 202.609C141.409 203.936 139.967 206.415 139.967 209.1V481.567C139.967 483.219 141.006 484.491 142.354 485.021L142.333 485.039L150.833 489.603C150.844 489.61 150.857 489.616 150.869 489.623C150.912 489.648 150.96 489.658 151.004 489.68C152.065 490.234 153.382 490.305 154.57 489.628L299.545 407.016C301.872 405.688 303.317 403.202 303.317 400.525V128.193C303.316 126.65 302.408 125.438 301.189 124.851Z" fill="white"/>
<path opacity="0.3" d="M139.967 209.101V481.568C139.967 483.221 141.006 484.492 142.354 485.022L142.333 485.041L150.833 489.605C149.755 488.973 148.987 487.812 148.987 486.386V213.919C148.987 212.901 149.196 211.913 149.581 211.006L140.712 205.885C140.238 206.874 139.967 207.966 139.967 209.101Z" fill="#0E85A5"/>
<path opacity="0.4" d="M292.773 120.368L292.776 120.405C291.654 119.573 290.101 119.343 288.716 120.13L143.743 202.61C142.396 203.376 141.359 204.533 140.712 205.885L149.581 211.006C150.21 209.521 151.314 208.252 152.762 207.428L297.735 124.948C298.883 124.296 300.148 124.348 301.19 124.851L301.214 124.836L292.773 120.368Z" fill="white"/>
<path d="M193.162 211.68C212.289 200.638 227.841 209.5 227.903 231.469C227.966 253.438 212.514 280.199 193.387 291.243C174.269 302.281 158.717 293.418 158.655 271.45C158.594 249.48 174.044 222.719 193.162 211.68Z" fill="#0E85A5"/>
<path d="M210.676 232.18C212.531 230.848 213.863 228.805 214.335 226.569C214.807 224.335 214.415 221.928 213.256 219.959C214.261 219.476 215.238 218.676 215.695 217.659C216.136 216.68 215.917 215.441 215.169 214.672C214.42 213.902 213.187 213.651 212.197 214.067C212.814 212.547 212.103 210.48 210.688 209.651C209.273 208.822 207.274 209.191 206.248 210.473C206.316 209.429 205.592 208.424 204.598 208.098C203.605 207.771 202.511 207.951 201.521 208.29C200.532 208.629 199.599 209.121 198.601 209.437C196.917 209.97 195.12 209.981 193.357 210.105C191.594 210.23 189.774 210.495 188.291 211.455C186.808 212.415 185.499 214.66 186.298 216.592C185.799 215.957 185.001 215.502 184.195 215.476C183.389 215.449 182.578 215.794 182.037 216.393C183.139 217.077 184.207 217.812 185.31 218.495C184.2 217.996 182.545 218.778 181.945 219.838C181.344 220.896 181.315 222.175 181.352 223.392C181.488 228.014 182.331 232.61 183.791 236.998C184.546 239.266 186.313 242.119 188.461 243.165L210.676 232.18Z" fill="#37474F"/>
<path d="M207.076 249.543L212.314 254.02L215.08 269.901C217.334 266.503 219.359 262.924 221.09 259.246C218.693 253.18 216.785 249.543 207.076 249.543Z" fill="#EBEBEB"/>
<path d="M193.388 291.242C202.371 286.056 210.543 277.402 216.678 267.406C216.173 258.808 214.907 249.543 207.077 249.543L183.825 249.704L179.079 250.21L176.838 295.963C181.76 296.204 187.399 294.7 193.388 291.242Z" fill="#0E85A5"/>
<g opacity="0.4">
<path d="M193.388 291.242C202.371 286.056 210.543 277.402 216.678 267.406C216.173 258.808 214.907 249.543 207.077 249.543L183.825 249.704L179.079 250.21L176.838 295.963C181.76 296.204 187.399 294.7 193.388 291.242Z" fill="white"/>
</g>
<path d="M203.275 252.636C205.447 259.555 204.084 269.203 203.275 273.547C197.768 265.971 192.616 258.375 191 255.403L198.678 251.675L203.275 252.636Z" fill="#EBEBEB"/>
<path d="M200.065 258.993L201.962 258.542C201.962 258.542 203.363 262.103 204.274 265.95C204.04 269.013 203.611 271.742 203.275 273.549C202.194 272.061 201.13 270.576 200.1 269.124C200.313 266.638 200.53 262.529 200.065 258.993Z" fill="#455A64"/>
<path opacity="0.2" d="M200.108 259.393C200.092 259.26 200.082 259.124 200.065 258.993L201.962 258.542C201.962 258.542 202.002 258.645 202.07 258.822C201.76 259.093 201.396 259.302 200.993 259.389C200.702 259.45 200.403 259.439 200.108 259.393Z" fill="black"/>
<path d="M199.049 254.024L197.555 253.063L194.075 254.96C195.601 256.357 198.179 256.585 198.179 256.585L199.049 254.024Z" fill="#455A64"/>
<path d="M201.35 253.655L201.805 252.635L203.56 253.734C203.218 254.875 202.42 255.403 202.42 255.403L201.35 253.655Z" fill="#455A64"/>
<path opacity="0.2" d="M199.049 254.024L197.555 253.063L194.075 254.96C195.601 256.357 198.179 256.585 198.179 256.585L199.049 254.024Z" fill="black"/>
<path opacity="0.2" d="M201.35 253.655L201.805 252.635L203.56 253.734C203.218 254.875 202.42 255.403 202.42 255.403L201.35 253.655Z" fill="black"/>
<path d="M198.179 256.586C198.327 255.704 198.621 254.81 199.048 254.024C199.815 253.9 200.582 253.778 201.349 253.655C201.768 254.188 202.136 254.788 202.419 255.403C202.532 257.043 201.962 258.54 201.962 258.54C201.106 259.025 200.065 258.991 200.065 258.991C198.696 258.141 198.179 256.586 198.179 256.586Z" fill="#455A64"/>
<path d="M199.856 253.215C196.204 253.151 193.973 256.06 190.635 257.054L183.826 249.704L186.465 245.78C186.991 244.998 187.676 244.334 188.476 243.832L188.506 245.253C188.524 246.096 188.979 246.871 189.708 247.296L199.856 253.215Z" fill="#E0E0E0"/>
<path d="M199.856 253.215C201.887 252.584 204.918 255.122 204.918 255.122C203.857 249.25 200.652 246.939 199.868 246.939L199.856 253.215Z" fill="#E0E0E0"/>
<path d="M179.079 250.21L175.925 250.714C172.115 251.323 169.115 254.245 168.328 258.023C165.415 272.015 166.274 284.787 166.274 284.787L180.67 278.157C182.186 266.904 185.141 257.611 179.079 250.21Z" fill="#EBEBEB"/>
<path d="M180.518 283.158L180.577 281.908C180.587 281.677 180.691 281.463 180.863 281.31C181.045 281.148 181.149 280.916 181.149 280.673V278.589C181.149 278.022 180.682 277.569 180.115 277.577C173.597 277.663 167.267 280.762 165.541 284.409C164.834 285.925 165.541 287.932 165.541 287.932C164.41 289.407 164.956 290.166 165.545 291.221C166.133 291.788 166.758 292.3 167.41 292.768C171.626 285.978 180.518 283.158 180.518 283.158Z" fill="#E0E0E0"/>
<path opacity="0.2" d="M173.777 281.698C170.689 282.881 167.272 285.739 165.541 287.932C165.541 287.932 165.366 287.434 165.277 286.747C166.355 285.394 168.7 282.914 173.777 281.698Z" fill="black"/>
<path opacity="0.2" d="M181.107 280.923C181.062 281.07 180.981 281.205 180.863 281.309C180.691 281.462 180.587 281.677 180.577 281.907L180.572 282.008C176.053 282.69 171.767 284.855 168.547 288.099C171.559 283.733 178.175 281.497 181.107 280.923Z" fill="black"/>
<path d="M193.388 291.242C198.695 288.178 203.717 283.901 208.204 278.855C199.856 278.902 188.204 279.365 180.573 282.008L180.518 283.158C180.518 283.158 171.626 285.978 167.409 292.768C173.777 297.35 183.059 297.205 193.388 291.242Z" fill="#FFA8A7"/>
<path opacity="0.2" d="M181.15 283.193L181.296 281.772C181.053 281.849 180.808 281.926 180.573 282.008L180.518 283.158C180.518 283.158 177.756 284.031 174.581 285.977C174.065 286.654 173.553 287.533 173.219 288.631C174.959 286.168 176.865 285.181 180.578 284.229C183.957 284.748 189.835 287.238 195.818 289.731C196.39 289.355 196.959 288.965 197.524 288.562C190.337 286.057 183.021 283.321 181.15 283.193Z" fill="black"/>
<path d="M192.675 244.092L192.57 244.036C191.033 243.226 189.898 241.799 189.511 240.105C189.32 239.268 189.152 238.425 189.019 237.578C188.898 236.808 188.335 237.559 188.335 237.559C188.335 237.559 188.378 239.427 188.428 241.658C188.454 242.832 188.481 244.104 188.506 245.258C188.524 246.102 188.979 246.873 189.708 247.298L199.856 253.215V248.135L199.868 246.002C197.354 245.816 194.78 245.202 192.675 244.092Z" fill="#FFA8A7"/>
<path d="M190.208 242.802L190.207 242.8L190.216 242.805L190.208 242.802Z" fill="#FFA8A7"/>
<path opacity="0.2" d="M191.228 243.946C190.633 243.183 190.2 242.285 189.976 241.345C190.535 242.481 191.429 243.434 192.57 244.036C192.606 244.055 192.641 244.074 192.675 244.092C194.778 245.202 197.354 245.816 199.866 246.003L199.857 247.842C198.412 247.69 196.974 247.439 195.608 246.951C193.918 246.346 192.33 245.362 191.228 243.946Z" fill="black"/>
<path d="M211.302 221.004C212.132 227.273 211.716 233.705 210.086 239.815C209.728 241.153 209.307 242.492 208.593 243.679C207.879 244.865 206.842 245.902 205.545 246.386C203.948 246.983 202.175 246.696 200.497 246.399C197.427 245.859 194.279 245.288 191.614 243.675C188.948 242.061 186.834 239.145 187.092 236.041C185.539 236.932 183.576 237.167 181.996 236.323C180.417 235.479 179.324 233.789 179.201 232.003C179.082 230.265 180.088 228.327 181.796 227.982C182.84 227.772 183.932 228.19 184.767 228.851C185.601 229.511 186.225 230.396 186.838 231.267C187.129 231.682 187.434 232.11 187.87 232.371C188.305 232.632 188.909 232.684 189.295 232.354C189.716 231.994 189.725 231.357 189.699 230.803L189.52 226.867C189.491 226.247 189.839 225.683 190.393 225.402C191.195 224.994 191.808 224.242 192.157 223.373C192.46 222.619 192.59 221.816 192.655 221.004C192.708 220.35 193.374 219.933 193.982 220.178C199.266 222.309 205.853 222.404 211.302 221.004Z" fill="#FFA8A7"/>
<path d="M202.642 230.551L206.183 236.512L201.962 237.303L202.642 230.551Z" fill="#F28F8F"/>
<path d="M197.893 239.357C198.963 239.877 200.032 240.397 201.1 240.917C200.634 241.645 199.458 241.963 198.668 241.609C197.88 241.254 197.659 240.191 197.893 239.357Z" fill="#F28F8F"/>
<path opacity="0.3" d="M197.893 239.357C198.963 239.877 200.032 240.397 201.1 240.917C200.634 241.645 199.458 241.963 198.668 241.609C197.88 241.254 197.659 240.191 197.893 239.357Z" fill="black"/>
<path d="M199.782 241.714C199.396 241.782 198.999 241.757 198.668 241.609C198.048 241.331 197.784 240.616 197.81 239.919C198.265 239.922 198.721 240.07 199.075 240.358C199.482 240.69 199.73 241.192 199.782 241.714Z" fill="#F28F8F"/>
<path d="M196.529 230.789C196.462 231.455 196.948 232.05 197.613 232.117C198.279 232.183 198.874 231.698 198.941 231.032C199.008 230.365 198.522 229.771 197.857 229.705C197.191 229.637 196.597 230.122 196.529 230.789Z" fill="#263238"/>
<path d="M206.697 231.418C206.629 232.084 207.115 232.679 207.781 232.746C208.447 232.813 209.042 232.327 209.108 231.66C209.176 230.994 208.69 230.399 208.024 230.333C207.358 230.266 206.763 230.753 206.697 231.418Z" fill="#263238"/>
<path d="M208.354 226.737C209.183 227.443 210.013 228.149 210.841 228.856C211.17 228.249 210.998 227.399 210.509 226.91C210.022 226.421 208.962 226.409 208.354 226.737Z" fill="#263238"/>
<path d="M198.04 225.55C197.087 226.077 196.133 226.603 195.18 227.13C194.98 226.469 195.318 225.671 195.894 225.29C196.468 224.909 197.51 225.108 198.04 225.55Z" fill="#263238"/>
<path d="M256.221 223.166L256.23 226.522L241.206 235.197L241.195 231.841L256.221 223.166Z" fill="white"/>
<path d="M264.133 239.23L264.142 242.586L241.263 255.794L241.254 252.438L264.133 239.23Z" fill="white"/>
<path d="M271.621 228.049L271.63 231.406L241.243 248.949L241.234 245.592L271.621 228.049Z" fill="white"/>
<path d="M283.466 200.578L283.476 203.935L241.186 228.351L241.176 224.993L283.466 200.578Z" fill="white"/>
<path d="M291.835 188.829L291.844 192.187L241.167 221.445L241.157 218.088L291.835 188.829Z" fill="white"/>
<path d="M281.286 182.169L281.304 188.895L241.14 212.085L241.12 205.358L281.286 182.169Z" fill="white"/>
<path d="M157.187 317.347V478.702L216.678 444.8V283.021L157.187 317.347Z" fill="#0E85A5"/>
<path d="M295.116 237.761L220.499 280.816V442.624L295.116 400.102V237.761Z" fill="#0E85A5"/>
<g opacity="0.7">
<path d="M157.187 317.347V478.702L216.678 444.8V283.021L157.187 317.347Z" fill="white"/>
<path d="M295.116 237.761L220.499 280.816V442.624L295.116 400.102V237.761Z" fill="white"/>
</g>
<path d="M265.898 378.455L265.906 381.352L230.61 401.731L230.601 398.833L265.898 378.455Z" fill="#0E85A5"/>
<path d="M285.25 361.904L285.259 364.814L230.594 396.374L230.586 393.464L285.25 361.904Z" fill="#0E85A5"/>
<path d="M256.264 373.274L256.272 376.173L230.579 391.006L230.571 388.108L256.264 373.274Z" fill="#0E85A5"/>
<path d="M285.22 351.19L285.228 354.089L230.564 385.65L230.555 382.751L285.22 351.19Z" fill="#0E85A5"/>
<path d="M285.205 345.822L285.214 348.731L230.549 380.293L230.541 377.383L285.205 345.822Z" fill="#0E85A5"/>
<path d="M243.695 356.745L243.703 359.654L230.512 367.271L230.503 364.361L243.695 356.745Z" fill="#0E85A5"/>
<path d="M285.152 327.443L285.162 330.342L230.497 361.903L230.489 359.004L285.152 327.443Z" fill="#0E85A5"/>
<path d="M285.138 322.087L285.146 324.984L230.481 356.546L230.473 353.647L285.138 322.087Z" fill="#0E85A5"/>
<path d="M285.123 316.729L285.13 319.627L230.465 351.188L230.458 348.289L285.123 316.729Z" fill="#0E85A5"/>
<path d="M265.718 314.954L265.727 317.851L230.429 338.23L230.421 335.332L265.718 314.954Z" fill="#0E85A5"/>
<path d="M285.071 298.403L285.079 301.313L230.415 332.874L230.406 329.965L285.071 298.403Z" fill="#0E85A5"/>
<path d="M285.055 293.046L285.064 295.945L230.399 327.506L230.392 324.607L285.055 293.046Z" fill="#0E85A5"/>
<path d="M285.025 282.322L285.033 285.23L230.368 316.792L230.36 313.882L285.025 282.322Z" fill="#0E85A5"/>
<path d="M285.041 287.69L285.049 290.588L230.384 322.149L230.376 319.25L285.041 287.69Z" fill="#0E85A5"/>
<path d="M276.83 263.579L276.839 266.478L230.303 293.345L230.294 290.447L276.83 263.579Z" fill="#0E85A5"/>
<path d="M280.14 272.399L280.149 275.309L230.333 304.07L230.325 301.161L280.14 272.399Z" fill="#0E85A5"/>
<path d="M263.093 276.875L263.101 279.774L230.317 298.702L230.31 295.803L263.093 276.875Z" fill="#0E85A5"/>
<path d="M284.943 253.529L284.951 256.428L230.287 287.988L230.278 285.09L284.943 253.529Z" fill="#0E85A5"/>
<path d="M285.327 388.914L285.336 391.813L230.671 423.375L230.663 420.476L285.327 388.914Z" fill="#0E85A5"/>
<path d="M256.37 410.999L256.378 413.898L230.686 428.731L230.677 425.833L256.37 410.999Z" fill="#0E85A5"/>
<path d="M271.56 391.498L271.568 394.397L230.655 418.018L230.647 415.119L271.56 391.498Z" fill="#0E85A5"/>
<path d="M285.297 378.191L285.305 381.1L230.641 412.66L230.632 409.751L285.297 378.191Z" fill="#0E85A5"/>
<g opacity="0.1">
<path d="M265.898 378.455L265.906 381.352L230.61 401.731L230.601 398.833L265.898 378.455Z" fill="white"/>
<path d="M285.25 361.904L285.259 364.814L230.594 396.374L230.586 393.464L285.25 361.904Z" fill="white"/>
<path d="M256.264 373.274L256.272 376.173L230.579 391.006L230.571 388.108L256.264 373.274Z" fill="white"/>
<path d="M285.22 351.19L285.228 354.089L230.564 385.65L230.555 382.751L285.22 351.19Z" fill="white"/>
<path d="M285.205 345.822L285.214 348.731L230.549 380.293L230.541 377.383L285.205 345.822Z" fill="white"/>
</g>
<g opacity="0.4">
<path d="M243.695 356.745L243.703 359.654L230.512 367.271L230.503 364.361L243.695 356.745Z" fill="white"/>
<path d="M285.152 327.443L285.162 330.342L230.497 361.903L230.489 359.004L285.152 327.443Z" fill="white"/>
<path d="M285.138 322.087L285.146 324.984L230.481 356.546L230.473 353.647L285.138 322.087Z" fill="white"/>
<path d="M285.123 316.729L285.13 319.627L230.465 351.188L230.458 348.289L285.123 316.729Z" fill="white"/>
</g>
<g opacity="0.1">
<path d="M265.718 314.954L265.727 317.851L230.429 338.23L230.421 335.332L265.718 314.954Z" fill="white"/>
<path d="M285.071 298.403L285.079 301.313L230.415 332.874L230.406 329.965L285.071 298.403Z" fill="white"/>
<path d="M285.055 293.046L285.064 295.945L230.399 327.506L230.392 324.607L285.055 293.046Z" fill="white"/>
<path d="M285.025 282.322L285.033 285.23L230.368 316.792L230.36 313.882L285.025 282.322Z" fill="white"/>
<path d="M285.041 287.69L285.049 290.588L230.384 322.149L230.376 319.25L285.041 287.69Z" fill="white"/>
</g>
<g opacity="0.4">
<path d="M276.83 263.579L276.839 266.478L230.303 293.345L230.294 290.447L276.83 263.579Z" fill="white"/>
<path d="M280.14 272.399L280.149 275.309L230.333 304.07L230.325 301.161L280.14 272.399Z" fill="white"/>
<path d="M263.093 276.875L263.101 279.774L230.317 298.702L230.31 295.803L263.093 276.875Z" fill="white"/>
<path d="M284.943 253.529L284.951 256.428L230.287 287.988L230.278 285.09L284.943 253.529Z" fill="white"/>
</g>
<g opacity="0.4">
<path d="M285.327 388.914L285.336 391.813L230.671 423.375L230.663 420.476L285.327 388.914Z" fill="white"/>
<path d="M256.37 410.999L256.378 413.898L230.686 428.731L230.677 425.833L256.37 410.999Z" fill="white"/>
<path d="M271.56 391.498L271.568 394.397L230.655 418.018L230.647 415.119L271.56 391.498Z" fill="white"/>
<path d="M285.297 378.191L285.305 381.1L230.641 412.66L230.632 409.751L285.297 378.191Z" fill="white"/>
</g>
<path d="M201.605 304.643L201.622 310.235L164.572 331.583L164.557 325.993L201.605 304.643Z" fill="#0E85A5"/>
<path d="M196.474 318.269L196.482 321.058L164.594 339.427L164.586 336.638L196.474 318.269Z" fill="white"/>
<path d="M211.131 419.985L211.146 425.566L197.468 433.463L197.451 427.882L211.131 419.985Z" fill="#0E85A5"/>
<path d="M184.627 375.239L184.643 380.819L164.744 392.267L164.728 386.686L184.627 375.239Z" fill="#0E85A5"/>
<path d="M196.754 417.115L196.762 419.907L164.874 438.276L164.866 435.484L196.754 417.115Z" fill="white"/>
<path d="M201.902 408.979L201.91 411.769L164.86 433.118L164.852 430.329L201.902 408.979Z" fill="white"/>
<path d="M210.835 398.645L210.843 401.445L164.845 427.961L164.837 425.161L210.835 398.645Z" fill="white"/>
<path d="M201.858 393.177L201.873 398.758L164.823 420.108L164.808 414.527L201.858 393.177Z" fill="#0E85A5"/>
<path d="M205.16 379.211L205.167 382.002L164.78 405.278L164.772 402.488L205.16 379.211Z" fill="white"/>
<path d="M197.644 378.385L197.652 381.176L164.766 400.121L164.758 397.331L197.644 378.385Z" fill="white"/>
<path d="M210.726 360.17L210.743 365.751L188.555 378.56L188.539 372.98L210.726 360.17Z" fill="#0E85A5"/>
<path d="M199.814 349.278L199.822 352.067L164.687 372.311L164.679 369.521L199.814 349.278Z" fill="white"/>
<path d="M203.274 352.446L203.281 355.246L164.703 377.479L164.695 374.678L203.274 352.446Z" fill="white"/>
<path d="M207.632 339.598L207.64 342.389L164.672 367.155L164.665 364.364L207.632 339.598Z" fill="white"/>
<path d="M201.685 332.37L201.7 337.951L164.65 359.301L164.635 353.72L201.685 332.37Z" fill="#0E85A5"/>
<path d="M185.831 329.577L185.839 332.368L164.609 344.585L164.601 341.795L185.831 329.577Z" fill="white"/>
<path d="M205.518 439.052L205.526 441.843L164.951 465.227L164.943 462.437L205.518 439.052Z" fill="white"/>
<path d="M199.208 437.519L199.216 440.32L164.936 460.07L164.928 457.27L199.208 437.519Z" fill="white"/>
<path d="M192.208 430.91L192.223 436.491L164.914 452.217L164.898 446.636L192.208 430.91Z" fill="#0E85A5"/>
<path d="M380.092 511.484C382.413 513.919 385.925 514.951 389.287 514.865C392.649 514.779 395.904 513.69 399.015 512.412C402.126 511.133 406.031 507.552 409.393 507.62C412.499 507.682 416.167 507.282 419.231 506.947C419.53 500.158 417.833 493.624 417.833 493.624L402.131 493.21C397.893 499.015 389.649 503.846 383.413 505.658C381.411 506.241 379.929 507.867 379.539 509.787C379.545 509.82 379.542 509.854 379.55 509.886C379.771 510.89 380.092 511.484 380.092 511.484Z" fill="#37474F"/>
<path d="M409.393 507.62C406.03 507.553 402.125 511.133 399.015 512.412C395.904 513.691 392.651 514.779 389.287 514.865C385.926 514.951 382.412 513.919 380.093 511.484C380.093 511.484 379.771 510.89 379.549 509.885C379.541 509.851 379.544 509.818 379.537 509.786C379.401 510.458 379.392 511.165 379.549 511.878C379.77 512.883 380.093 513.477 380.093 513.477C382.413 515.912 385.926 516.944 389.287 516.858C392.649 516.772 395.904 515.683 399.015 514.405C402.126 513.127 406.031 509.545 409.393 509.613C412.851 509.682 415.839 509.401 419.077 509.053C419.155 508.352 419.199 507.649 419.23 506.947C416.169 507.281 412.5 507.683 409.393 507.62Z" fill="#263238"/>
<path d="M457.771 520.229C457.758 521.949 457.636 523.662 457.266 525.339C456.617 528.274 455.105 531.138 452.594 532.791C450.429 534.214 447.756 534.609 445.171 534.767C442.881 534.906 440.526 534.875 438.379 534.066C436.749 533.451 435.255 532.311 434.405 530.82C434.412 530.848 434.413 530.878 434.421 530.908C434.932 533.143 436.849 534.86 438.996 535.669C441.142 536.478 443.497 536.509 445.787 536.37C448.372 536.214 451.045 535.818 453.21 534.394C455.721 532.741 457.232 529.877 457.882 526.942C458.253 525.265 458.375 523.552 458.388 521.832C458.406 519.455 459.394 517.212 461.128 515.585C461.551 515.19 461.954 514.779 462.323 514.355C462.857 513.742 463.113 512.937 463.052 512.127C463.029 511.809 462.995 511.498 462.955 511.193C462.337 511.915 460.88 513.639 460.512 513.982C458.778 515.607 457.79 517.852 457.771 520.229Z" fill="#263238"/>
<path d="M444.883 502.427C445.533 505.895 444.901 509.517 443.572 512.785C442.242 516.053 440.24 519.004 438.088 521.802C437.055 523.145 435.976 524.472 435.219 525.988C434.474 527.476 434.061 529.192 434.405 530.819C435.255 532.31 436.75 533.45 438.379 534.065C440.526 534.873 442.881 534.905 445.171 534.765C447.756 534.609 450.429 534.214 452.594 532.789C455.105 531.137 456.616 528.273 457.266 525.338C457.636 523.661 457.758 521.947 457.771 520.228C457.79 517.851 458.778 515.606 460.512 513.981C460.878 513.637 462.337 511.914 462.955 511.191C462.401 506.96 460.434 503.963 460.434 503.963L444.883 502.427Z" fill="#37474F"/>
<path d="M401.477 355.546C401.477 355.546 397.505 407.705 397.85 422.213C398.196 436.721 399.654 494.061 399.654 494.061C407.781 498.811 419.527 495.27 419.527 495.27C420.477 449.501 424.794 439.656 421.858 422.904C423.93 410.469 426.787 381.489 426.787 381.489C430.839 416.341 433.775 434.303 433.775 434.303L443.447 504.078C451.391 508.223 461.409 504.078 461.409 504.078C461.409 464.305 462.272 447.481 458.128 421.229C457.907 380.814 455.864 356.261 455.864 356.261L401.477 355.546Z" fill="#455A64"/>
<path opacity="0.2" d="M411.082 369.017C413.855 375.811 422.548 375.811 422.548 375.811L424.103 383.537L423.524 411.009C425.194 397.647 426.787 381.489 426.787 381.489L425.715 373.221C418.404 373.508 413.088 370.628 411.082 369.017Z" fill="black"/>
<path d="M375.19 297.304L368.964 302.883L351.73 284.404C350.06 282.612 348.883 280.418 348.314 278.036L347.334 273.931C347.078 272.858 346.666 271.83 346.112 270.876C345.272 269.43 344.371 267.974 343.599 266.54C343.357 266.092 343.085 265.613 342.621 265.402C342.083 265.157 341.411 265.366 341.012 265.802C340.613 266.237 340.455 266.852 340.463 267.444C340.47 268.035 340.624 268.614 340.779 269.185C341.018 270.07 341.256 270.955 341.494 271.84C341.593 272.208 341.693 272.583 341.672 272.964C341.65 273.343 341.486 273.736 341.164 273.937C340.423 274.386 329.794 264.518 328.018 259.997C327.541 258.783 323.73 259.49 326.036 264.424C325.145 265.035 324.875 266.136 324.818 267.214C324.746 268.558 324.675 269.901 324.603 271.245C324.533 272.568 324.464 273.911 324.75 275.205C325.178 277.137 326.365 278.812 327.66 280.309C330.052 283.071 333.058 285.045 336.319 286.499C338.803 287.608 340.939 289.37 342.443 291.637L358.926 316.493C362.778 322.301 370.794 323.534 376.212 319.151L384.922 312.107L375.19 297.304Z" fill="#FFA8A7"/>
<path d="M405.05 274.131C396.588 273.647 394.374 278.074 389.025 283.054C383.675 288.034 373.623 297.718 373.623 297.718C375.283 309.616 384.782 313.49 384.782 313.49L403.412 299.747L405.05 274.131Z" fill="#455A64"/>
<path d="M457.263 359.498C457.263 359.498 425.719 371.038 400.105 356.655C400.105 356.655 401.66 338.299 402.121 327.6C402.583 316.901 398.893 296.243 398.339 290.709C397.786 285.175 398.524 275.583 405.049 274.131C417.153 271.571 439.911 274.131 439.911 274.131L453.492 289.141C459.211 318.47 458.232 349.262 457.263 359.498Z" fill="#0E85A5"/>
<path opacity="0.3" d="M457.263 359.498C457.263 359.498 425.719 371.038 400.105 356.655C400.105 356.655 401.66 338.299 402.121 327.6C402.583 316.901 398.893 296.243 398.339 290.709C397.786 285.175 398.524 275.583 405.049 274.131C417.153 271.571 439.911 274.131 439.911 274.131L453.492 289.141C459.211 318.47 458.232 349.262 457.263 359.498Z" fill="white"/>
<path d="M377.309 352.68C377.308 352.672 377.306 352.664 377.305 352.656C377.305 352.653 377.304 352.652 377.304 352.65C377.303 352.637 377.301 352.625 377.299 352.611C377.295 352.59 377.29 352.566 377.283 352.544C377.278 352.523 377.271 352.501 377.264 352.481C377.257 352.46 377.249 352.438 377.24 352.416C377.232 352.395 377.223 352.373 377.213 352.349C377.204 352.327 377.193 352.306 377.183 352.283C377.173 352.261 377.161 352.239 377.149 352.215C377.148 352.214 377.148 352.213 377.147 352.212L364.599 328.212C364.587 328.19 364.576 328.168 364.563 328.146C364.55 328.123 364.535 328.098 364.521 328.074C364.507 328.05 364.492 328.026 364.477 328.002C364.461 327.977 364.446 327.952 364.429 327.926C364.412 327.9 364.395 327.876 364.377 327.85C364.358 327.824 364.34 327.798 364.322 327.772C364.304 327.746 364.284 327.72 364.265 327.694C364.247 327.669 364.227 327.643 364.209 327.618C364.191 327.595 364.173 327.571 364.153 327.547C364.136 327.526 364.119 327.504 364.101 327.482C364.087 327.463 364.071 327.445 364.056 327.427C364.04 327.409 364.024 327.391 364.01 327.372C363.998 327.358 363.985 327.344 363.972 327.328C363.961 327.315 363.95 327.302 363.939 327.289C363.927 327.276 363.915 327.263 363.905 327.25C363.893 327.237 363.881 327.224 363.87 327.211C363.861 327.201 363.851 327.19 363.842 327.181C363.833 327.172 363.825 327.162 363.816 327.153C363.807 327.144 363.798 327.133 363.79 327.124C363.781 327.115 363.772 327.105 363.764 327.096C363.755 327.085 363.747 327.076 363.737 327.067C363.729 327.058 363.72 327.05 363.712 327.041C363.705 327.033 363.697 327.024 363.689 327.016C363.681 327.008 363.673 326.999 363.666 326.992C363.658 326.984 363.65 326.975 363.642 326.967C363.634 326.959 363.627 326.951 363.619 326.942C363.611 326.934 363.603 326.927 363.595 326.917C363.588 326.908 363.578 326.901 363.571 326.891C363.562 326.882 363.554 326.875 363.545 326.865C363.536 326.856 363.526 326.847 363.519 326.839C363.51 326.83 363.502 326.823 363.493 326.813C363.483 326.804 363.474 326.795 363.465 326.787C363.456 326.778 363.447 326.769 363.438 326.761C363.424 326.748 363.409 326.734 363.395 326.72C363.38 326.704 363.363 326.69 363.347 326.674C363.331 326.659 363.315 326.644 363.299 326.629C363.239 326.572 363.177 326.516 363.116 326.461C363.103 326.449 363.088 326.438 363.075 326.426C363.062 326.414 363.048 326.403 363.035 326.391C363.022 326.379 363.008 326.368 362.995 326.356C362.982 326.344 362.969 326.334 362.954 326.322C362.945 326.314 362.938 326.308 362.928 326.3C362.919 326.292 362.912 326.286 362.902 326.278C362.893 326.27 362.886 326.264 362.876 326.256C362.867 326.248 362.858 326.241 362.85 326.234C362.841 326.226 362.832 326.219 362.824 326.212C362.815 326.205 362.806 326.197 362.797 326.191C362.788 326.183 362.78 326.176 362.771 326.17C362.762 326.163 362.754 326.156 362.745 326.149C362.736 326.143 362.728 326.136 362.719 326.128C362.71 326.122 362.702 326.115 362.693 326.108C362.684 326.101 362.676 326.095 362.667 326.087C362.658 326.08 362.65 326.074 362.641 326.067C362.632 326.059 362.623 326.052 362.613 326.045C362.602 326.037 362.592 326.03 362.581 326.02C362.571 326.013 362.561 326.005 362.55 325.997C362.54 325.989 362.529 325.981 362.519 325.974C362.509 325.966 362.498 325.958 362.488 325.95C362.477 325.942 362.466 325.935 362.455 325.926C362.441 325.915 362.427 325.905 362.411 325.894C362.397 325.884 362.382 325.874 362.367 325.862C362.353 325.851 362.338 325.841 362.324 325.831C362.308 325.819 362.291 325.807 362.276 325.797C362.255 325.783 362.234 325.768 362.213 325.754C362.193 325.74 362.172 325.727 362.152 325.712C362.129 325.697 362.106 325.681 362.082 325.665C362.056 325.649 362.031 325.632 362.005 325.616C361.979 325.599 361.952 325.584 361.926 325.567C361.898 325.55 361.87 325.533 361.843 325.517C361.827 325.508 361.81 325.498 361.794 325.489L347.154 317.036C347.143 317.03 347.131 317.023 347.119 317.015C347.091 317 347.062 316.984 347.035 316.969C347.007 316.953 346.98 316.939 346.953 316.924C346.925 316.91 346.898 316.897 346.872 316.884C346.845 316.871 346.819 316.858 346.793 316.846C346.767 316.835 346.741 316.823 346.716 316.811C346.689 316.8 346.663 316.789 346.638 316.779C346.612 316.768 346.586 316.759 346.561 316.75C346.534 316.741 346.508 316.732 346.482 316.723C346.455 316.714 346.428 316.706 346.402 316.699C346.383 316.694 346.365 316.69 346.348 316.688C346.347 316.688 346.344 316.686 346.343 316.686C346.335 316.685 346.327 316.683 346.32 316.681C346.288 316.675 346.26 316.671 346.233 316.668C346.196 316.664 346.161 316.663 346.13 316.664C346.03 316.668 345.954 316.698 345.906 316.753L344.127 318.744C344.137 318.733 344.173 318.744 344.186 318.735C344.038 318.843 344.026 319.078 344.232 319.474L356.779 343.473C357.231 344.337 358.472 345.548 359.573 346.185L374.212 354.637C374.968 355.074 375.423 355.088 375.492 354.778C375.481 354.823 375.489 354.883 375.462 354.913L377.241 352.921C377.265 352.895 377.282 352.865 377.292 352.829C377.3 352.804 377.304 352.777 377.305 352.748C377.312 352.729 377.312 352.705 377.309 352.68ZM344.467 318.696C344.51 318.699 344.52 318.67 344.57 318.681C344.571 318.681 344.572 318.682 344.574 318.682C344.587 318.685 344.611 318.7 344.626 318.704C344.559 318.688 344.522 318.701 344.467 318.696ZM362.164 329.304C362.22 329.368 362.289 329.433 362.341 329.497C362.289 329.433 362.219 329.368 362.164 329.304ZM375.519 354.684C375.512 354.558 375.472 354.405 375.368 354.206C375.459 354.379 375.51 354.526 375.525 354.644C375.525 354.645 375.525 354.648 375.525 354.649C375.528 354.663 375.518 354.669 375.519 354.684Z" fill="#455A64"/>
<path opacity="0.15" d="M377.309 352.679C377.308 352.672 377.307 352.664 377.305 352.656C377.305 352.653 377.304 352.652 377.304 352.65C377.303 352.637 377.301 352.625 377.299 352.611C377.295 352.59 377.29 352.566 377.283 352.544C377.278 352.523 377.271 352.501 377.264 352.481C377.257 352.46 377.249 352.438 377.24 352.416C377.232 352.395 377.223 352.373 377.213 352.349C377.204 352.327 377.193 352.306 377.183 352.283C377.173 352.261 377.161 352.239 377.149 352.215L377.147 352.211L364.599 328.212L362.819 330.204L375.367 354.203C375.458 354.376 375.509 354.523 375.524 354.641V354.646C375.539 354.763 375.519 354.853 375.466 354.914L377.245 352.923C377.269 352.897 377.286 352.867 377.296 352.83C377.304 352.806 377.308 352.778 377.309 352.75C377.312 352.729 377.312 352.705 377.309 352.679Z" fill="white"/>
<path opacity="0.2" d="M364.565 328.147C364.552 328.124 364.538 328.099 364.523 328.076C364.509 328.051 364.495 328.028 364.479 328.003C364.463 327.978 364.448 327.953 364.431 327.927C364.414 327.901 364.397 327.877 364.379 327.851C364.361 327.825 364.343 327.799 364.324 327.773C364.306 327.747 364.287 327.721 364.267 327.695C364.249 327.67 364.23 327.644 364.211 327.619C364.193 327.596 364.175 327.573 364.155 327.548C364.139 327.527 364.122 327.505 364.103 327.483C364.089 327.465 364.074 327.446 364.058 327.428C364.042 327.41 364.027 327.392 364.012 327.374C364.001 327.359 363.988 327.345 363.975 327.329C363.963 327.316 363.953 327.303 363.941 327.29C363.929 327.277 363.917 327.264 363.907 327.251C363.895 327.238 363.884 327.225 363.872 327.212C363.863 327.202 363.854 327.192 363.845 327.183C363.836 327.173 363.828 327.163 363.819 327.154C363.81 327.145 363.801 327.134 363.793 327.125C363.784 327.116 363.775 327.106 363.767 327.097C363.758 327.086 363.75 327.077 363.739 327.068C363.732 327.059 363.723 327.051 363.715 327.042C363.707 327.034 363.699 327.025 363.691 327.017C363.684 327.01 363.676 327.001 363.668 326.993C363.66 326.985 363.652 326.976 363.644 326.968C363.637 326.96 363.629 326.952 363.621 326.943C363.613 326.936 363.606 326.928 363.598 326.919C363.59 326.91 363.581 326.902 363.573 326.893C363.564 326.884 363.556 326.876 363.547 326.867C363.538 326.858 363.529 326.848 363.521 326.841C363.512 326.832 363.504 326.824 363.495 326.815C363.486 326.806 363.477 326.796 363.468 326.789C363.459 326.78 363.45 326.77 363.44 326.763C363.426 326.75 363.412 326.735 363.397 326.721C363.382 326.705 363.365 326.691 363.349 326.676C363.334 326.66 363.317 326.646 363.301 326.63C363.242 326.573 363.179 326.517 363.118 326.462C363.105 326.451 363.091 326.439 363.078 326.427C363.065 326.416 363.05 326.404 363.037 326.392C363.024 326.38 363.01 326.369 362.997 326.357C362.984 326.345 362.971 326.335 362.957 326.323C362.948 326.315 362.94 326.309 362.931 326.301C362.922 326.293 362.914 326.287 362.905 326.279C362.896 326.271 362.888 326.265 362.879 326.257C362.87 326.249 362.861 326.243 362.853 326.235C362.844 326.227 362.835 326.221 362.827 326.213C362.818 326.206 362.809 326.198 362.8 326.192C362.79 326.184 362.783 326.178 362.774 326.171C362.764 326.165 362.757 326.157 362.747 326.15C362.738 326.144 362.731 326.137 362.722 326.13C362.712 326.123 362.705 326.117 362.696 326.109C362.686 326.102 362.679 326.096 362.669 326.088C362.66 326.081 362.653 326.075 362.644 326.068C362.634 326.061 362.625 326.053 362.615 326.046C362.605 326.039 362.594 326.031 362.584 326.022C362.573 326.014 362.563 326.006 362.553 325.998C362.542 325.99 362.532 325.983 362.521 325.975C362.511 325.967 362.5 325.959 362.49 325.951C362.48 325.944 362.468 325.936 362.458 325.927C362.443 325.916 362.429 325.906 362.413 325.896C362.399 325.885 362.385 325.875 362.369 325.863C362.355 325.853 362.341 325.842 362.326 325.832C362.311 325.82 362.294 325.808 362.278 325.798C362.257 325.784 362.237 325.769 362.216 325.755C362.195 325.741 362.174 325.728 362.155 325.714C362.131 325.698 362.108 325.682 362.085 325.667C362.059 325.65 362.034 325.633 362.008 325.617C361.982 325.6 361.955 325.585 361.929 325.568C361.9 325.551 361.873 325.534 361.845 325.519C361.83 325.509 361.813 325.499 361.796 325.49L347.157 317.037C347.145 317.031 347.133 317.024 347.122 317.017C347.093 317.001 347.064 316.985 347.037 316.97C347.01 316.954 346.982 316.94 346.955 316.926C346.928 316.911 346.901 316.898 346.875 316.885C346.847 316.872 346.821 316.859 346.795 316.848C346.769 316.836 346.743 316.824 346.719 316.812C346.691 316.801 346.665 316.79 346.641 316.78C346.615 316.77 346.589 316.76 346.564 316.751C346.537 316.742 346.511 316.733 346.485 316.724C346.457 316.715 346.43 316.707 346.404 316.701C346.386 316.695 346.368 316.692 346.351 316.689L346.345 316.688C346.338 316.686 346.33 316.684 346.322 316.682C346.291 316.676 346.262 316.672 346.235 316.669C346.198 316.666 346.163 316.664 346.132 316.666C346.032 316.669 345.957 316.699 345.909 316.754L344.129 318.746C344.207 318.657 344.356 318.635 344.567 318.679L344.571 318.681C344.782 318.726 345.053 318.839 345.377 319.026L360.016 327.479C360.287 327.635 360.569 327.829 360.846 328.044L360.848 328.046C361.125 328.262 361.398 328.499 361.652 328.746L361.653 328.748C361.905 328.993 362.139 329.247 362.338 329.494L362.341 329.497C362.54 329.744 362.705 329.984 362.819 330.204L364.599 328.212C364.588 328.193 364.577 328.171 364.565 328.147Z" fill="white"/>
<path d="M365.412 352.56C360.46 349.457 356.769 343.39 357.517 337.594C357.517 337.594 366.762 342.451 370.909 339.86L368.781 335.79C374.44 335.79 380.585 337.754 384.87 341.452C393.496 340.135 402.468 337.257 410.565 334.001C413.007 333.019 415.431 331.947 417.993 331.343C420.555 330.74 423.309 330.629 425.772 331.559C428.236 332.488 430.348 334.589 430.811 337.181C431.291 339.872 429.939 342.638 427.931 344.494C425.924 346.347 423.338 347.438 420.766 348.36C410.111 352.179 370.362 355.663 365.412 352.56Z" fill="#FFA8A7"/>
<path d="M395.087 250.164C392.519 248.32 390.676 245.493 390.023 242.401C389.37 239.308 389.914 235.977 391.517 233.253C390.126 232.586 388.775 231.477 388.142 230.07C387.532 228.716 387.834 227.001 388.871 225.937C389.909 224.873 391.613 224.526 392.984 225.1C392.129 222.997 393.114 220.138 395.072 218.989C397.03 217.841 399.798 218.352 401.215 220.125C401.121 218.681 402.123 217.29 403.499 216.837C404.874 216.385 406.387 216.635 407.756 217.104C409.125 217.573 410.417 218.254 411.798 218.691C414.129 219.43 416.616 219.444 419.055 219.617C421.493 219.79 424.012 220.158 426.064 221.486C428.117 222.815 429.929 225.92 428.822 228.595C429.512 227.717 430.617 227.088 431.734 227.05C432.849 227.013 433.972 227.49 434.72 228.318C433.193 229.263 431.717 230.282 430.19 231.227C431.727 230.537 434.018 231.62 434.848 233.085C435.679 234.55 435.719 236.32 435.67 238.004C435.481 244.4 434.315 250.761 432.295 256.832C431.25 259.97 429.742 263.297 426.768 264.745L395.087 250.164Z" fill="#37474F"/>
<path d="M411.276 265.278L411.946 272.784C411.998 273.368 411.814 273.931 411.521 274.439C410.678 275.909 410.939 278.258 412.184 279.343C413.09 280.132 414.338 280.392 415.537 280.479C420.166 280.816 424.888 278.819 427.94 275.695C428.606 275.014 428.948 274.078 428.922 273.126L428.429 254.093L411.276 265.278Z" fill="#FFA8A7"/>
<path opacity="0.3" d="M426.919 255.077L411.274 265.278L411.87 271.934C415.507 271.082 419.165 270.032 422.044 267.691C425.704 264.714 427.609 259.739 426.919 255.077Z" fill="black"/>
<path d="M394.221 234.698C393.073 243.374 393.649 252.274 395.904 260.73C396.398 262.583 396.982 264.434 397.97 266.077C398.958 267.721 400.395 269.153 402.19 269.825C404.399 270.652 406.853 270.253 409.175 269.843C413.422 269.095 417.778 268.306 421.468 266.073C425.157 263.84 428.082 259.806 427.726 255.508C429.875 256.742 432.593 257.066 434.778 255.898C436.964 254.731 438.477 252.391 438.646 249.92C438.811 247.513 437.42 244.831 435.055 244.356C433.611 244.064 432.1 244.643 430.945 245.557C429.789 246.472 428.926 247.697 428.078 248.902C427.674 249.476 427.253 250.068 426.651 250.429C426.049 250.791 425.213 250.862 424.679 250.406C424.095 249.908 424.083 249.025 424.118 248.258L424.367 242.81C424.406 241.952 423.923 241.172 423.159 240.782C422.049 240.216 421.202 239.179 420.718 237.974C420.299 236.931 420.118 235.821 420.027 234.695C419.954 233.791 419.033 233.212 418.19 233.553C410.878 236.505 401.762 236.636 394.221 234.698Z" fill="#FFA8A7"/>
<path d="M406.204 247.911L401.305 256.158L407.147 257.256L406.204 247.911Z" fill="#F28F8F"/>
<path d="M412.777 260.097C411.298 260.816 409.819 261.537 408.338 262.255C408.984 263.264 410.61 263.702 411.704 263.212C412.796 262.722 413.101 261.251 412.777 260.097Z" fill="#F28F8F"/>
<path opacity="0.3" d="M412.777 260.097C411.298 260.816 409.819 261.537 408.338 262.255C408.984 263.264 410.61 263.702 411.704 263.212C412.796 262.722 413.101 261.251 412.777 260.097Z" fill="black"/>
<path d="M410.163 263.358C410.696 263.453 411.246 263.418 411.704 263.212C412.562 262.827 412.927 261.838 412.89 260.874C412.26 260.876 411.629 261.082 411.141 261.482C410.579 261.941 410.235 262.636 410.163 263.358Z" fill="#F28F8F"/>
<path d="M414.664 248.239C414.757 249.16 414.085 249.983 413.162 250.076C412.24 250.168 411.418 249.497 411.324 248.574C411.232 247.652 411.904 246.83 412.825 246.737C413.748 246.645 414.571 247.317 414.664 248.239Z" fill="#263238"/>
<path d="M400.595 249.111C400.688 250.033 400.016 250.856 399.093 250.948C398.172 251.04 397.349 250.368 397.255 249.446C397.163 248.525 397.835 247.702 398.757 247.61C399.68 247.517 400.501 248.189 400.595 249.111Z" fill="#263238"/>
<path d="M398.3 242.631C397.153 243.608 396.006 244.586 394.858 245.562C394.403 244.721 394.641 243.546 395.317 242.87C395.993 242.194 397.459 242.177 398.3 242.631Z" fill="#263238"/>
<path d="M412.574 240.99C413.894 241.718 415.213 242.447 416.533 243.175C416.81 242.26 416.343 241.156 415.546 240.629C414.749 240.101 413.309 240.378 412.574 240.99Z" fill="#263238"/>
<path d="M423.61 314.391L416.048 333.871L424.385 346.858C436.523 341.342 434.032 342.91 442.425 322.62L423.61 314.391Z" fill="#FFA8A7"/>
<path d="M439.912 274.131C430.804 284.899 427.392 303.39 422.688 315.288C427.946 325.248 442.61 324.28 442.61 324.28C456.028 296.335 461.702 275.261 439.912 274.131Z" fill="#455A64"/>
</svg>
