<svg width="252" height="174" viewBox="0 0 252 174" fill="none" xmlns="http://www.w3.org/2000/svg">
<path opacity="0.0476" d="M246.779 158.064C246.779 171.877 136.706 176.157 63.3369 171.565C19.5139 168.842 4.70557 163.182 4.70557 158.064C4.70557 152.947 19.5139 147.286 63.3369 144.561C136.706 139.972 246.779 144.251 246.779 158.064Z" fill="#FCFCFC"/>
<path opacity="0.0952" d="M242.073 158.065C242.073 171.248 136.901 175.363 66.4586 171.002C24.0838 168.414 9.41382 162.987 9.41382 158.065C9.41382 153.142 24.0838 147.715 66.4586 145.128C136.901 140.767 242.073 144.881 242.073 158.065Z" fill="#FAFAFA"/>
<path opacity="0.1429" d="M237.365 158.065C237.365 170.617 137.094 174.568 69.5777 170.438C28.6513 167.986 14.1196 162.795 14.1196 158.065C14.1196 153.337 28.6513 148.144 69.5777 145.692C137.094 141.561 237.365 145.513 237.365 158.065Z" fill="#F7F7F7"/>
<path opacity="0.1905" d="M232.66 158.064C232.66 169.987 137.292 173.773 72.6994 169.87C33.2213 167.554 18.8279 162.596 18.8279 158.064C18.8279 153.53 33.2213 148.572 72.6994 146.258C137.289 142.356 232.66 146.142 232.66 158.064Z" fill="#F4F5F5"/>
<path opacity="0.2381" d="M227.951 158.064C227.951 169.358 137.485 172.979 75.8184 169.306C37.7886 167.128 23.5334 162.401 23.5334 158.064C23.5334 153.725 37.7886 149 75.8184 146.822C137.485 143.15 227.951 146.771 227.951 158.064Z" fill="#F2F2F2"/>
<path opacity="0.2857" d="M223.245 158.065C223.245 168.729 137.68 172.184 78.9398 168.74C42.3582 166.697 28.2415 162.206 28.2415 158.065C28.2415 153.923 42.3582 149.432 78.9398 147.387C137.68 143.945 223.245 147.4 223.245 158.065Z" fill="#EFEFF0"/>
<path opacity="0.3333" d="M218.538 158.064C218.538 168.097 137.873 171.389 82.0592 168.175C46.9287 166.269 32.9502 162.01 32.9502 158.064C32.9502 154.118 46.9287 149.86 82.0592 147.953C137.875 144.739 218.538 148.032 218.538 158.064Z" fill="#ECEDED"/>
<path opacity="0.381" d="M213.832 158.065C213.832 167.468 138.071 170.595 85.1809 167.611C51.4986 165.84 37.6558 161.818 37.6558 158.065C37.6558 154.311 51.4959 150.289 85.1809 148.518C138.068 145.534 213.832 148.662 213.832 158.065Z" fill="#E9EAEB"/>
<path opacity="0.4286" d="M209.124 158.065C209.124 166.838 138.269 169.689 88.2998 167.044C56.0686 165.338 42.3613 161.62 42.3613 158.065C42.3613 154.506 56.0631 150.717 88.2998 149.082C138.263 146.329 209.124 149.291 209.124 158.065Z" fill="#E7E7E8"/>
<path opacity="0.4762" d="M204.418 158.064C204.418 166.209 138.464 168.889 91.4212 166.48C60.6382 164.904 47.072 161.428 47.072 158.064C47.072 154.701 60.6355 151.146 91.4212 149.649C138.458 147.124 204.418 149.923 204.418 158.064Z" fill="#E4E5E6"/>
<path opacity="0.5238" d="M199.71 158.064C199.71 165.577 138.659 168.086 94.5404 165.916C65.2057 164.471 51.7778 161.232 51.7778 158.064C51.7778 154.897 65.203 151.574 94.5404 150.213C138.651 147.918 199.71 150.552 199.71 158.064Z" fill="#E1E2E3"/>
<path opacity="0.5714" d="M195.001 158.064C195.001 164.948 138.852 167.288 97.6593 165.349C69.7729 164.036 56.4834 161.034 56.4834 158.064C56.4834 155.092 69.7702 152.005 97.6593 150.779C138.846 148.713 195.001 151.181 195.001 158.064Z" fill="#DFE0E1"/>
<path opacity="0.619" d="M190.296 158.065C190.296 164.319 139.047 166.491 100.781 164.785C74.3428 163.605 61.1917 160.842 61.1917 158.065C61.1917 155.287 74.3401 152.434 100.781 151.344C139.041 149.508 190.296 151.81 190.296 158.065Z" fill="#DCDDDE"/>
<path opacity="0.6667" d="M185.587 158.064C185.587 163.689 139.239 165.696 103.9 164.221C78.9102 163.177 65.8972 160.646 65.8972 158.064C65.8972 155.482 78.9075 152.863 103.9 151.908C139.237 150.302 185.587 152.442 185.587 158.064Z" fill="#D9DADC"/>
<path opacity="0.7143" d="M180.882 158.065C180.882 163.058 139.434 164.905 107.021 163.654C83.48 162.746 70.6055 160.449 70.6055 158.065C70.6055 155.678 83.4773 153.291 107.021 152.475C139.429 151.097 180.882 153.072 180.882 158.065Z" fill="#D7D8D9"/>
<path opacity="0.7619" d="M176.174 158.065C176.174 162.429 139.627 164.118 110.141 163.09C88.0476 162.32 75.3113 160.256 75.3113 158.065C75.3113 155.873 88.0449 153.72 110.141 153.039C139.625 151.892 176.174 153.701 176.174 158.065Z" fill="#D4D5D7"/>
<path opacity="0.8095" d="M171.468 158.064C171.468 161.799 139.823 163.334 113.262 162.523C92.6175 161.894 80.0195 160.058 80.0195 158.064C80.0195 156.068 92.6148 154.148 113.262 153.603C139.82 152.686 171.468 154.33 171.468 158.064Z" fill="#D1D3D4"/>
<path opacity="0.8571" d="M166.762 158.065C166.762 161.17 140.018 162.556 116.384 161.959C97.1874 161.476 84.7278 159.865 84.7278 158.065C84.7278 156.264 97.1847 154.577 116.384 154.17C140.015 153.481 166.762 154.962 166.762 158.065Z" fill="#CED0D2"/>
<path opacity="0.9048" d="M162.054 158.065C162.054 160.538 140.21 161.783 119.503 161.395C101.752 161.061 89.4333 159.67 89.4333 158.065C89.4333 156.459 101.752 155.008 119.503 154.734C140.208 154.276 162.054 155.591 162.054 158.065Z" fill="#CCCDCF"/>
<path opacity="0.9524" d="M157.346 158.065C157.346 159.909 140.403 161.018 122.622 160.828C106.319 160.655 94.1389 159.475 94.1389 158.065C94.1389 156.654 106.319 155.437 122.622 155.301C140.403 155.07 157.346 156.22 157.346 158.065Z" fill="#C9CBCD"/>
<path d="M125.744 160.264C140.598 160.264 152.64 159.279 152.64 158.064C152.64 156.85 140.598 155.865 125.744 155.865C110.889 155.865 98.8474 156.85 98.8474 158.064C98.8474 159.279 110.889 160.264 125.744 160.264Z" fill="#BFBFBF"/>
<path d="M237.888 89.3302C236.006 84.9419 194.448 67.6655 186.143 65.2516C175.357 62.1164 125.309 63.6054 120.606 65.5663C118.667 66.3745 107.751 70.3939 96.0886 78.6714C84.4236 86.9489 75.8966 93.5964 75.8966 93.5964C75.8966 93.5964 38.7807 97.6104 27.8697 102.753C16.9587 107.895 13.6987 117.802 13.6987 117.802L29.6272 142.133H32.9767C32.9767 142.133 33.0066 138.203 33.0066 136.112C33.0066 124.219 42.6835 114.542 54.579 114.542C66.4718 114.542 76.1515 124.219 76.1515 136.112C76.1515 138.203 76.1759 142.014 76.1759 142.014L181.69 142.13C181.69 142.13 181.643 138.201 181.643 136.109C181.643 124.217 191.32 114.54 203.216 114.54C215.112 114.54 224.786 124.217 224.786 136.109C224.786 138.201 224.723 142.13 224.723 142.13H226.657C226.657 142.13 237.894 135.358 237.894 133.853C237.894 132.348 239.768 93.7184 237.888 89.3302Z" fill="#0FA6E4"/>
<path d="M27.8726 102.75C21.4204 105.79 17.6586 110.488 15.6489 113.826C15.7167 113.837 24.0295 115.288 28.9955 112.077C34.6313 108.432 33.8393 100.689 33.8448 100.659C31.3469 101.28 29.2884 102.083 27.8726 102.75Z" fill="#39404A"/>
<path d="M20.0969 113.861C18.3231 113.861 16.864 113.696 16.1426 113.596C18.2065 110.284 21.8951 105.899 28.0028 103.021C29.264 102.427 31.1326 101.659 33.5655 101.038C33.6278 102.788 33.4841 108.814 28.83 111.825C26.2264 113.506 22.6436 113.861 20.0969 113.861Z" fill="#FFB137"/>
<path d="M237.889 89.3303C233.335 93.884 232.703 99.1049 232.703 101.554C232.703 106.539 234.607 111.337 238.03 114.963L238.526 115.489C239.6 110.699 239.348 95.194 237.889 89.3303Z" fill="#10303E"/>
<path d="M33.0068 136.109C33.0068 128.38 37.1049 121.608 43.2316 117.8H12.5056C11.5564 117.8 10.6505 118.201 10.0132 118.904C9.3758 119.606 9.0585 120.547 9.15071 121.494C9.35955 123.62 9.86944 126.549 11.0682 129.964C13.577 137.113 22.104 142.128 29.6302 142.128C30.6771 142.128 31.3253 142.128 32.9797 142.128C32.9797 142.128 33.0068 138.201 33.0068 136.109Z" fill="#10303E"/>
<path d="M54.5764 154.671C64.8279 154.671 73.1384 146.361 73.1384 136.109C73.1384 125.858 64.8279 117.547 54.5764 117.547C44.3249 117.547 36.0144 125.858 36.0144 136.109C36.0144 146.361 44.3249 154.671 54.5764 154.671Z" fill="#39404A"/>
<path d="M241.569 117.8C239.909 117.8 224.726 117.8 214.558 117.8C220.682 121.61 224.78 128.383 224.78 136.109C224.78 138.201 224.718 142.13 224.718 142.13C225.673 142.13 225.787 142.13 226.652 142.13C233.801 142.13 237.994 137.24 239.312 133.476C240.628 129.714 243.825 117.8 241.569 117.8Z" fill="#10303E"/>
<path d="M203.211 154.671C213.462 154.671 221.773 146.361 221.773 136.109C221.773 125.858 213.462 117.547 203.211 117.547C192.959 117.547 184.649 125.858 184.649 136.109C184.649 146.361 192.959 154.671 203.211 154.671Z" fill="#39404A"/>
<path d="M113.164 70.8959C113.593 70.6355 112.796 69.7622 112.332 69.1573C107.851 71.3054 102.074 74.4243 96.0887 78.6716C84.4238 86.9491 75.8967 93.5966 75.8967 93.5966C75.8967 93.5966 78.7824 95.4029 81.5136 94.3017C82.4465 93.9247 93.7861 82.6829 113.164 70.8959Z" fill="#525B66"/>
<path d="M89.4169 96.1459C88.9802 96.1459 88.587 95.8882 88.4134 95.4868C88.2344 95.0719 88.3321 94.5837 88.6548 94.269C91.5324 91.4701 97.2306 86.0621 103.051 81.2859C111.163 74.6276 118.76 70.5323 122.692 69.4284C125.936 68.5171 143.047 67.5977 145.827 67.454L141.062 93.2249C140.989 93.6154 140.66 93.9002 140.264 93.9192L89.4169 96.1459Z" fill="#39404A"/>
<path d="M89.4061 95.3947C89.2759 95.3892 89.1566 95.3106 89.1051 95.1886C89.0508 95.0611 89.0807 94.9038 89.1811 94.8089C92.0532 92.0153 97.7379 86.6208 103.528 81.8691C111.554 75.2786 119.039 71.2375 122.896 70.1527C125.817 69.3336 140.663 68.4847 144.913 68.2542L140.321 93.0866L89.4061 95.3947Z" fill="#B9BCBA"/>
<path d="M145.051 136.487H84.5947C81.4513 136.487 78.8938 133.929 78.8938 130.786V105.728C78.8938 102.845 84.5893 97.1224 87.9849 93.9681L88.1829 93.7837C91.0741 90.9739 96.7913 85.5469 102.62 80.7627C111.369 73.5809 118.8 69.8164 122.508 68.7776C126.096 67.7714 145.352 66.7978 146.172 66.7571H149.008L145.049 96.4986L145.051 136.487ZM146.19 67.5083C146.009 67.5165 126.221 68.5173 122.711 69.4991C118.787 70.6002 111.201 74.6928 103.097 81.343C97.2903 86.1083 91.5866 91.5218 88.7063 94.3207L88.4975 94.516C82.8725 99.7423 79.645 103.827 79.645 105.725V130.783C79.645 133.511 81.8663 135.733 84.5947 135.733H144.297V96.447L148.146 67.5083H146.19Z" fill="#525B66"/>
<path d="M150.153 93.5829C149.923 93.5829 149.7 93.488 149.54 93.3226C149.372 93.149 149.288 92.9103 149.304 92.6716L151.192 67.4351C167.096 67.4595 189.007 69.659 197.157 87.844C197.407 88.4 197.185 89.4035 196.615 90.2822C195.877 91.4213 194.763 92.1021 193.632 92.1021L150.153 93.5829Z" fill="#39404A"/>
<path d="M150.148 92.8289C150.123 92.8262 150.101 92.8154 150.085 92.7991L151.894 68.1863C167.443 68.2758 188.598 70.5703 196.474 88.1505C196.582 88.3919 196.474 89.1214 195.988 89.87C195.389 90.7948 194.51 91.3454 193.634 91.3454L150.148 92.8289Z" fill="#B9BCBA"/>
<path d="M173.778 136.487H144.297V96.447L148.249 66.7571H150.915C168.595 66.7571 192.861 69.3852 199.435 92.113L199.454 92.1808L198.125 106.436C197.808 109.834 195.701 112.877 192.63 114.374C185.704 117.754 180.754 124.271 179.392 131.805C178.899 134.515 176.539 136.487 173.778 136.487ZM145.051 135.733H173.781C176.179 135.733 178.226 134.024 178.652 131.67C180.057 123.902 185.158 117.184 192.302 113.699C195.139 112.316 197.084 109.503 197.377 106.365L198.692 92.2541C192.229 70.0768 168.335 67.5111 150.915 67.5111H148.908L145.048 96.4986L145.051 135.733Z" fill="#525B66"/>
<path d="M170.19 123.021C170 123.427 169.594 123.688 169.146 123.688H87.795C87.323 123.688 86.9 123.4 86.7264 122.964L85.9318 120.97C85.7907 120.615 85.8341 120.213 86.0484 119.899C86.2626 119.584 86.6179 119.394 87.0003 119.394H170.071C170.464 119.394 170.83 119.595 171.039 119.926C171.251 120.257 171.278 120.672 171.112 121.03L170.19 123.021Z" fill="#39404A"/>
<path d="M138.502 103.773C138.502 104.407 137.986 104.923 137.352 104.923H127.425C126.791 104.923 126.275 104.407 126.275 103.773V100.77H138.502V103.773Z" fill="#525B66"/>
<path d="M192.305 103.773C192.305 104.407 191.79 104.923 191.155 104.923H181.229C180.594 104.923 180.079 104.407 180.079 103.773V100.77H192.305V103.773Z" fill="#525B66"/>
<path d="M66.4911 136.109C66.4911 142.689 61.1563 148.024 54.5766 148.024C47.9969 148.024 42.6621 142.689 42.6621 136.109C42.6621 129.53 47.9969 124.195 54.5766 124.195C61.1563 124.195 66.4911 129.53 66.4911 136.109ZM54.5766 125.516C53.5894 125.516 52.7893 125.516 52.7893 126.771C52.7893 128.027 53.5894 130.064 54.5766 130.064C55.5638 130.064 56.3612 128.027 56.3612 126.771C56.3639 125.516 55.5638 125.516 54.5766 125.516ZM48.3522 127.539C47.5548 128.119 46.9066 128.589 47.6443 129.603C48.382 130.62 50.2263 131.797 51.0237 131.217C51.821 130.636 51.2705 128.518 50.5328 127.504C49.7951 126.489 49.1496 126.959 48.3522 127.539ZM44.5037 132.836C44.1999 133.774 43.9504 134.534 45.1437 134.922C46.3371 135.309 48.5204 135.179 48.8268 134.241C49.1306 133.302 47.4409 131.914 46.2476 131.526C45.0542 131.138 44.8074 131.897 44.5037 132.836ZM44.5037 139.383C44.8074 140.321 45.0542 141.081 46.2503 140.693C47.4436 140.305 49.1333 138.917 48.8296 137.978C48.5258 137.04 46.3398 136.91 45.1464 137.297C43.9504 137.685 44.1972 138.445 44.5037 139.383ZM48.3522 144.68C49.1496 145.26 49.7978 145.729 50.5355 144.715C51.2732 143.701 51.8238 141.583 51.0264 141.002C50.229 140.422 48.3848 141.599 47.647 142.616C46.9066 143.63 47.5521 144.099 48.3522 144.68ZM54.5766 146.703C55.5638 146.703 56.3612 146.703 56.3612 145.447C56.3612 144.192 55.5611 142.155 54.5766 142.155C53.5894 142.155 52.7893 144.192 52.7893 145.447C52.792 146.703 53.5921 146.703 54.5766 146.703ZM60.8037 144.68C61.6011 144.099 62.2492 143.63 61.5115 142.616C60.7738 141.602 58.9296 140.422 58.1322 141.002C57.3349 141.583 57.8854 143.701 58.6231 144.715C59.3581 145.729 60.0063 145.26 60.8037 144.68ZM64.6523 139.383C64.956 138.445 65.2056 137.685 64.0095 137.297C62.8161 136.91 60.6329 137.04 60.3264 137.978C60.0226 138.917 61.7123 140.305 62.9056 140.693C64.1017 141.081 64.3458 140.321 64.6523 139.383ZM64.6523 132.836C64.3485 131.897 64.1017 131.138 62.9083 131.526C61.715 131.914 60.0253 133.302 60.3291 134.241C60.6329 135.179 62.8189 135.309 64.0122 134.922C65.2056 134.534 64.956 133.774 64.6523 132.836ZM60.8037 127.539C60.0063 126.959 59.3581 126.489 58.6204 127.504C57.8827 128.518 57.3321 130.636 58.1295 131.217C58.9269 131.797 60.7712 130.62 61.5089 129.603C62.2493 128.589 61.6011 128.119 60.8037 127.539ZM54.5766 131.854C52.2251 131.854 50.3212 133.758 50.3212 136.109C50.3212 138.461 52.2279 140.365 54.5766 140.365C56.9253 140.365 58.832 138.461 58.832 136.109C58.832 133.758 56.928 131.854 54.5766 131.854Z" fill="white"/>
<path d="M215.125 136.109C215.125 142.689 209.791 148.024 203.211 148.024C196.631 148.024 191.296 142.689 191.296 136.109C191.296 129.53 196.631 124.195 203.211 124.195C209.791 124.195 215.125 129.53 215.125 136.109ZM203.211 125.516C202.224 125.516 201.424 125.516 201.424 126.771C201.424 128.027 202.224 130.064 203.211 130.064C204.198 130.064 204.998 128.027 204.998 126.771C204.995 125.516 204.198 125.516 203.211 125.516ZM196.984 127.539C196.186 128.119 195.538 128.589 196.276 129.603C197.014 130.62 198.858 131.797 199.655 131.217C200.453 130.636 199.902 128.518 199.164 127.504C198.427 126.489 197.784 126.959 196.984 127.539ZM193.138 132.836C192.834 133.774 192.585 134.534 193.778 134.922C194.971 135.309 197.157 135.179 197.461 134.241C197.765 133.302 196.075 131.914 194.882 131.526C193.688 131.138 193.442 131.897 193.138 132.836ZM193.138 139.383C193.442 140.321 193.688 141.081 194.882 140.693C196.075 140.305 197.765 138.917 197.461 137.978C197.157 137.04 194.971 136.91 193.778 137.297C192.585 137.685 192.831 138.445 193.138 139.383ZM196.984 144.68C197.781 145.26 198.429 145.729 199.167 144.715C199.905 143.701 200.455 141.583 199.658 141.002C198.861 140.422 197.016 141.599 196.279 142.616C195.538 143.63 196.186 144.099 196.984 144.68ZM203.211 146.703C204.198 146.703 204.998 146.703 204.998 145.447C204.998 144.192 204.198 142.155 203.211 142.155C202.224 142.155 201.424 144.192 201.424 145.447C201.424 146.703 202.224 146.703 203.211 146.703ZM209.438 144.68C210.235 144.099 210.884 143.63 210.146 142.616C209.408 141.602 207.564 140.422 206.766 141.002C205.969 141.583 206.52 143.701 207.257 144.715C207.992 145.729 208.638 145.26 209.438 144.68ZM213.284 139.383C213.588 138.445 213.837 137.685 212.641 137.297C211.448 136.91 209.264 137.04 208.958 137.978C208.651 138.917 210.344 140.305 211.537 140.693C212.733 141.081 212.98 140.321 213.284 139.383ZM213.284 132.836C212.98 131.897 212.733 131.138 211.54 131.526C210.347 131.914 208.657 133.302 208.961 134.241C209.264 135.179 211.45 135.309 212.644 134.922C213.837 134.534 213.59 133.774 213.284 132.836ZM209.438 127.539C208.641 126.959 207.992 126.489 207.255 127.504C206.517 128.518 205.966 130.636 206.764 131.217C207.561 131.797 209.405 130.62 210.143 129.603C210.884 128.589 210.235 128.119 209.438 127.539ZM203.211 131.854C200.859 131.854 198.955 133.758 198.955 136.109C198.955 138.461 200.862 140.365 203.211 140.365C205.562 140.365 207.466 138.461 207.466 136.109C207.466 133.758 205.562 131.854 203.211 131.854Z" fill="white"/>
<path d="M76.1731 142.011L181.687 142.128C181.687 142.128 181.649 139.036 181.641 136.877H76.1487C76.1541 139.017 76.1731 142.011 76.1731 142.011Z" fill="#10303E"/>
<path d="M238.556 114.757L238.651 114.857C238.984 112.942 239.161 109.734 239.182 106.167H233.891C234.677 109.36 236.256 112.319 238.556 114.757Z" fill="#FA7500"/>
<path d="M238.03 89.9348C235.779 92.3215 234.596 94.8709 233.975 97.0434H238.906C238.711 94.2688 238.423 91.7438 238.03 89.9348Z" fill="#FC1010"/>
<path d="M238.903 97.0437H233.972C233.421 98.972 233.31 100.605 233.31 101.554C233.31 103.127 233.522 104.67 233.888 106.167H239.179C239.201 103.195 239.106 99.981 238.903 97.0437Z" fill="#F7C532"/>
<path d="M143.218 77.4047C136.562 78.0502 130.284 79.2598 124.957 81.2803C113.289 85.7066 105.918 90.64 101.285 94.8547L140.319 93.0863L143.218 77.4047Z" fill="#525B66"/>
<path d="M150.148 92.8288L193.634 91.3452C194.508 91.3452 195.389 90.792 195.988 89.8698C196.474 89.1213 196.582 88.389 196.474 88.1503C194.906 84.6516 192.804 81.7659 190.331 79.3738C179.805 77.8956 165.208 76.4175 151.254 76.8921L150.085 92.7989C150.101 92.8179 150.123 92.826 150.148 92.8288Z" fill="#525B66"/>
<path d="M224.376 56.9145C222.163 54.0369 221.618 45.5017 221.618 45.5017C221.618 45.5017 221.073 54.0369 218.86 56.9145C216.462 60.0307 211.306 60.7359 211.306 60.7359C211.306 60.7359 216.462 61.441 218.86 64.5573C221.073 67.4349 221.618 75.9728 221.618 75.9728C221.618 75.9728 222.163 67.4376 224.376 64.5573C226.774 61.441 231.93 60.7359 231.93 60.7359C231.93 60.7359 226.774 60.0335 224.376 56.9145Z" fill="#2EC2FF"/>
<path d="M80.6212 56.7519C78.0745 53.4404 77.4479 43.6196 77.4479 43.6196C77.4479 43.6196 76.8214 53.4404 74.2747 56.7519C71.5165 60.3374 65.585 61.1483 65.585 61.1483C65.585 61.1483 71.5165 61.9592 74.2747 65.5447C76.8214 68.8562 77.4479 78.677 77.4479 78.677C77.4479 78.677 78.0745 68.8562 80.6212 65.5447C83.3794 61.9592 89.3109 61.1483 89.3109 61.1483C89.3109 61.1483 83.3794 60.3374 80.6212 56.7519Z" fill="#2EC2FF"/>
<path d="M146.394 13.1322C143.847 9.8207 143.22 0 143.22 0C143.22 0 142.594 9.8207 140.047 13.1322C137.289 16.7177 131.357 17.5287 131.357 17.5287C131.357 17.5287 137.289 18.3396 140.047 21.9251C142.594 25.2366 143.22 35.0573 143.22 35.0573C143.22 35.0573 143.847 25.2366 146.394 21.9251C149.152 18.3396 155.083 17.5287 155.083 17.5287C155.083 17.5287 149.152 16.7177 146.394 13.1322Z" fill="#2EC2FF"/>
<path d="M233.09 39.714C231.699 37.9049 231.355 32.5376 231.355 32.5376C231.355 32.5376 231.013 37.9049 229.619 39.714C228.111 41.6748 224.867 42.1169 224.867 42.1169C224.867 42.1169 228.111 42.559 229.619 44.5199C231.01 46.3289 231.355 51.6963 231.355 51.6963C231.355 51.6963 231.696 46.3289 233.09 44.5199C234.598 42.559 237.839 42.1169 237.839 42.1169C237.839 42.1169 234.598 41.6721 233.09 39.714Z" fill="#2EC2FF"/>
<path d="M155.794 39.714C154.403 37.9049 154.058 32.5376 154.058 32.5376C154.058 32.5376 153.717 37.9049 152.322 39.714C150.814 41.6748 147.571 42.1169 147.571 42.1169C147.571 42.1169 150.814 42.559 152.322 44.5199C153.714 46.3289 154.058 51.6963 154.058 51.6963C154.058 51.6963 154.4 46.3289 155.794 44.5199C157.302 42.559 160.543 42.1169 160.543 42.1169C160.543 42.1169 157.302 41.6721 155.794 39.714Z" fill="#2EC2FF"/>
<path d="M97.5316 45.3634C96.1403 43.5544 95.7959 38.187 95.7959 38.187C95.7959 38.187 95.4541 43.5544 94.06 45.3634C92.5521 47.3243 89.311 47.7663 89.311 47.7663C89.311 47.7663 92.5548 48.2084 94.06 50.1693C95.4514 51.9783 95.7959 57.3457 95.7959 57.3457C95.7959 57.3457 96.1375 51.9783 97.5316 50.1693C99.0396 48.2084 102.281 47.7663 102.281 47.7663C102.281 47.7663 99.0396 47.3243 97.5316 45.3634Z" fill="#2EC2FF"/>
<path d="M60.8333 79.9162C59.442 78.1072 59.0976 72.7399 59.0976 72.7399C59.0976 72.7399 58.7558 78.1072 57.3618 79.9162C55.8538 81.8771 52.6128 82.3192 52.6128 82.3192C52.6128 82.3192 55.8565 82.7613 57.3618 84.7222C58.7531 86.5312 59.0976 91.8986 59.0976 91.8986C59.0976 91.8986 59.4393 86.5312 60.8333 84.7222C62.3413 82.7613 65.5823 82.3192 65.5823 82.3192C65.5823 82.3192 62.3413 81.8744 60.8333 79.9162Z" fill="#2EC2FF"/>
<path d="M238.211 70.7332C237.05 69.2225 236.766 64.7474 236.766 64.7474C236.766 64.7474 236.481 69.2225 235.32 70.7332C234.062 72.3686 231.358 72.7374 231.358 72.7374C231.358 72.7374 234.062 73.1063 235.32 74.7417C236.481 76.2524 236.766 80.7275 236.766 80.7275C236.766 80.7275 237.05 76.2524 238.211 74.7417C239.47 73.1063 242.174 72.7374 242.174 72.7374C242.174 72.7374 239.467 72.3686 238.211 70.7332Z" fill="#2EC2FF"/>
<path d="M67.0308 40.1128C65.87 38.6021 65.5853 34.1271 65.5853 34.1271C65.5853 34.1271 65.3005 38.6021 64.1397 40.1128C62.8813 41.7482 60.1799 42.1171 60.1799 42.1171C60.1799 42.1171 62.884 42.4859 64.1397 44.1214C65.3005 45.6293 65.5853 50.1071 65.5853 50.1071C65.5853 50.1071 65.87 45.632 67.0308 44.1214C68.2893 42.4859 70.9906 42.1171 70.9906 42.1171C70.9906 42.1171 68.2893 41.7482 67.0308 40.1128Z" fill="#2EC2FF"/>
</svg>
