<svg width="236" height="174" viewBox="0 0 236 174" fill="none" xmlns="http://www.w3.org/2000/svg">
<path opacity="0.0476" d="M231.531 159.049C231.531 172.008 128.26 176.024 59.4235 171.716C18.3082 169.161 4.41479 163.851 4.41479 159.049C4.41479 154.247 18.3082 148.937 59.4235 146.379C128.26 142.074 231.531 146.089 231.531 159.049Z" fill="#FCFCFC"/>
<path opacity="0.0952" d="M227.116 159.049C227.116 171.418 128.443 175.278 62.3523 171.187C22.5958 168.759 8.83215 163.668 8.83215 159.049C8.83215 154.431 22.5958 149.339 62.3523 146.911C128.443 142.82 227.116 146.68 227.116 159.049Z" fill="#FAFAFA"/>
<path opacity="0.1429" d="M222.699 159.049C222.699 170.825 128.624 174.533 65.2788 170.657C26.881 168.357 13.2472 163.487 13.2472 159.049C13.2472 154.614 26.881 149.741 65.2788 147.441C128.626 143.565 222.699 147.273 222.699 159.049Z" fill="#F7F7F7"/>
<path opacity="0.1905" d="M218.284 159.049C218.284 170.235 128.809 173.787 68.2075 170.126C31.1686 167.953 17.6646 163.301 17.6646 159.049C17.6646 154.795 31.1686 150.143 68.2075 147.973C128.809 144.311 218.284 147.863 218.284 159.049Z" fill="#F4F5F5"/>
<path opacity="0.2381" d="M213.867 159.049C213.867 169.644 128.99 173.042 71.1337 169.596C35.4536 167.553 22.0818 163.118 22.0818 159.049C22.0818 154.978 35.4561 150.545 71.1337 148.502C128.99 145.056 213.867 148.453 213.867 159.049Z" fill="#F2F2F2"/>
<path opacity="0.2857" d="M209.452 159.049C209.452 169.054 129.173 172.296 74.0624 169.064C39.7411 167.148 26.4966 162.935 26.4966 159.049C26.4966 155.163 39.7411 150.95 74.0624 149.031C129.173 145.802 209.452 149.044 209.452 159.049Z" fill="#EFEFF0"/>
<path opacity="0.3333" d="M205.035 159.049C205.035 168.462 129.354 171.551 76.9889 168.535C44.0264 166.747 30.9142 162.752 30.9142 159.049C30.9142 155.347 44.0289 151.352 76.9889 149.563C129.356 146.548 205.035 149.637 205.035 159.049Z" fill="#ECEDED"/>
<path opacity="0.381" d="M200.62 159.049C200.62 167.871 129.54 170.805 79.9177 168.006C48.3165 166.344 35.3315 162.571 35.3315 159.049C35.3315 155.527 48.3165 151.754 79.9177 150.092C129.54 147.293 200.62 150.227 200.62 159.049Z" fill="#E9EAEB"/>
<path opacity="0.4286" d="M196.202 159.049C196.202 167.281 129.725 169.955 82.8439 167.474C52.6041 165.873 39.7463 162.385 39.7463 159.049C39.7463 155.71 52.6015 152.156 82.8439 150.621C129.72 148.039 196.202 150.817 196.202 159.049Z" fill="#E7E7E8"/>
<path opacity="0.4762" d="M191.787 159.049C191.787 166.69 129.908 169.204 85.7725 166.945C56.8915 165.466 44.1636 162.204 44.1636 159.049C44.1636 155.894 56.889 152.558 85.7725 151.153C129.903 148.784 191.787 151.41 191.787 159.049Z" fill="#E4E5E6"/>
<path opacity="0.5238" d="M187.37 159.049C187.37 166.097 130.092 168.451 88.6991 166.416C61.1769 165.059 48.5787 162.021 48.5787 159.049C48.5787 156.077 61.1744 152.96 88.6991 151.682C130.087 149.53 187.37 152 187.37 159.049Z" fill="#E1E2E3"/>
<path opacity="0.5714" d="M182.955 159.049C182.955 165.507 130.275 167.703 91.6279 165.884C65.4646 164.652 52.9961 161.835 52.9961 159.049C52.9961 156.26 65.462 153.364 91.6279 152.214C130.27 150.275 182.955 152.591 182.955 159.049Z" fill="#DFE0E1"/>
<path opacity="0.619" d="M178.538 159.049C178.538 164.917 130.456 166.955 94.5541 165.355C69.7496 164.248 57.4109 161.655 57.4109 159.049C57.4109 156.444 69.747 153.767 94.5541 152.744C130.451 151.021 178.538 153.181 178.538 159.049Z" fill="#DCDDDE"/>
<path opacity="0.6667" d="M174.123 159.049C174.123 164.326 130.639 166.209 97.4828 164.825C74.037 163.846 61.8281 161.471 61.8281 159.049C61.8281 156.627 74.0345 154.168 97.4828 153.273C130.634 151.766 174.123 153.774 174.123 159.049Z" fill="#D9DADC"/>
<path opacity="0.7143" d="M169.706 159.049C169.706 163.734 130.819 165.467 100.409 164.294C78.322 163.441 66.2429 161.286 66.2429 159.049C66.2429 156.81 78.3195 154.571 100.409 153.805C130.817 152.512 169.706 154.365 169.706 159.049Z" fill="#D7D8D9"/>
<path opacity="0.7619" d="M165.291 159.049C165.291 163.143 131.003 164.729 103.338 163.764C82.6099 163.042 70.6605 161.105 70.6605 159.049C70.6605 156.993 82.6073 154.973 103.338 154.334C131 153.258 165.291 154.955 165.291 159.049Z" fill="#D4D5D7"/>
<path opacity="0.8095" d="M160.873 159.049C160.873 162.553 131.183 163.993 106.264 163.232C86.8949 162.642 75.0753 160.919 75.0753 159.049C75.0753 157.176 86.8924 155.375 106.264 154.863C131.181 154.003 160.873 155.545 160.873 159.049Z" fill="#D1D3D4"/>
<path opacity="0.8571" d="M156.459 159.049C156.459 161.963 131.366 163.263 109.193 162.703C91.1825 162.25 79.4927 160.739 79.4927 159.049C79.4927 157.359 91.1799 155.777 109.193 155.395C131.364 154.749 156.459 156.138 156.459 159.049Z" fill="#CED0D2"/>
<path opacity="0.9048" d="M152.041 159.049C152.041 161.37 131.547 162.538 112.119 162.174C95.465 161.861 83.9075 160.555 83.9075 159.049C83.9075 157.543 95.465 156.181 112.119 155.924C131.547 155.494 152.041 156.728 152.041 159.049Z" fill="#CCCDCF"/>
<path opacity="0.9524" d="M147.626 159.049C147.626 160.779 131.73 161.82 115.048 161.642C99.7525 161.479 88.3248 160.372 88.3248 159.049C88.3248 157.726 99.7525 156.583 115.048 156.456C131.73 156.24 147.626 157.319 147.626 159.049Z" fill="#C9CBCD"/>
<path d="M117.974 161.113C131.911 161.113 143.209 160.189 143.209 159.049C143.209 157.909 131.911 156.985 117.974 156.985C104.038 156.985 92.7399 157.909 92.7399 159.049C92.7399 160.189 104.038 161.113 117.974 161.113Z" fill="#BFBFBF"/>
<path d="M70.658 94.6914C70.658 94.6914 69.6809 90.0781 68.5765 88.9737C67.4722 87.8694 59.3372 88.8363 57.1768 90.9967C55.0165 93.157 55.4313 95.5922 57.1768 96.3276C58.9224 97.063 69.1338 98.918 69.1338 98.918L70.658 94.6914Z" fill="#10303E"/>
<path d="M159.953 155.866H167.441C169.049 155.866 170.352 154.563 170.352 152.955V129.242H157.039V152.955C157.042 154.56 158.344 155.866 159.953 155.866Z" fill="#10303E"/>
<path d="M75.195 155.866H67.7063C66.0981 155.866 64.7927 154.563 64.7927 152.955V129.242H78.106V152.955C78.106 154.56 76.8031 155.866 75.195 155.866Z" fill="#10303E"/>
<path d="M170.278 116.827C169.754 105.796 167.154 101.872 165.744 98.2565C164.273 94.4879 157.93 73.4367 152.23 69.0243C148.423 66.0777 130.995 65.3474 117.573 65.3474C104.152 65.3474 86.722 66.0777 82.9153 69.0243C77.2155 73.4367 70.8744 94.4879 69.4011 98.2565C67.9914 101.87 65.3909 105.794 64.8667 116.827C64.1898 131.071 68.1772 140.728 72.2205 140.728C76.2638 140.728 117.57 140.728 117.57 140.728C117.57 140.728 158.876 140.728 162.92 140.728C166.968 140.728 170.955 131.074 170.278 116.827Z" fill="#FFB137"/>
<path d="M164.49 94.6914C164.49 94.6914 165.467 90.0781 166.571 88.9737C167.673 87.8694 175.81 88.8363 177.971 90.9967C180.131 93.157 179.716 95.5922 177.971 96.3276C176.225 97.063 166.014 98.918 166.014 98.918L164.49 94.6914Z" fill="#10303E"/>
<path d="M161.469 95.5923C161.008 93.2488 152.736 74.4952 150.576 72.3349C148.415 70.1745 127.501 69.5765 117.575 69.5765C107.646 69.5765 86.7347 70.1745 84.5744 72.3349C82.414 74.4952 74.1416 93.2488 73.681 95.5923C73.368 97.1903 74.8362 97.9613 76.7574 97.7654C79.3936 97.4982 95.1471 95.0402 117.575 95.0402C140.005 95.0402 155.756 97.4982 158.395 97.7654C160.314 97.9613 161.782 97.1903 161.469 95.5923Z" fill="#5BB9FF"/>
<path d="M140.372 90.1062C136.283 90.1062 132.68 92.1724 130.542 95.3175C131.578 95.3608 132.598 95.4066 133.588 95.4575C135.303 93.6763 137.705 92.5618 140.372 92.5618C143.553 92.5618 146.359 94.1419 148.067 96.5567C149.158 96.6661 150.151 96.773 151.087 96.8799C149.176 92.8798 145.102 90.1062 140.372 90.1062Z" fill="#10303E"/>
<path d="M171.258 122.338H117.572H63.8868C59.2913 122.338 62.0598 140.794 67.8208 140.794H117.572H167.324C173.088 140.794 175.856 122.338 171.258 122.338Z" fill="#525B66"/>
<path d="M82.1214 116.84C78.9839 116.84 75.8668 116.628 74.3706 116.313C72.9864 116.02 72.0576 114.824 71.7573 112.939C71.3578 110.425 72.1644 106.641 73.7701 105.715C74.195 105.47 74.9304 105.346 75.9533 105.346C80.8364 105.346 90.3913 108.035 91.432 114.511C91.4829 114.829 91.3938 115.135 91.1699 115.397C90.1521 116.59 85.6863 116.84 82.1214 116.84Z" fill="#525B66"/>
<path d="M90.8492 114.603C91.1825 116.672 77.9813 116.471 74.4901 115.735C70.9964 115 72.1465 107.331 74.0626 106.224C75.9787 105.119 89.6278 107.023 90.8492 114.603Z" fill="white"/>
<path d="M153.029 116.84C149.464 116.84 144.998 116.588 143.98 115.397C143.756 115.135 143.667 114.829 143.718 114.511C144.761 108.035 154.314 105.346 159.197 105.346C160.22 105.346 160.955 105.47 161.38 105.715C162.983 106.643 163.792 110.425 163.393 112.939C163.093 114.824 162.164 116.02 160.78 116.313C159.281 116.628 156.166 116.84 153.029 116.84Z" fill="#525B66"/>
<path d="M144.298 114.603C143.965 116.672 157.163 116.471 160.657 115.735C164.151 115 163.001 107.331 161.085 106.224C159.169 105.119 145.519 107.023 144.298 114.603Z" fill="white"/>
<path d="M163.68 129.206C163.487 128.936 163.174 128.779 162.843 128.779H72.3044C71.9736 128.779 71.6607 128.939 71.4673 129.206C71.2739 129.476 71.2204 129.822 71.3222 130.135L72.167 132.7C72.9864 135.188 75.3096 136.868 77.928 136.868H157.217C159.835 136.868 162.159 135.188 162.978 132.7L163.823 130.135C163.93 129.819 163.876 129.473 163.68 129.206Z" fill="#10303E"/>
<path d="M118.924 128.779H116.226V136.868H118.924V128.779Z" fill="#525B66"/>
<path d="M147.041 132.069H88.1036V133.575H147.041V132.069Z" fill="#525B66"/>
<path d="M129.524 128.779H126.827V136.868H129.524V128.779Z" fill="#525B66"/>
<path d="M130.54 95.3175C130.54 95.3175 125.224 80.8491 118.31 72.5614C117.44 71.5181 116.534 70.5232 115.621 69.5842C105.14 69.6555 86.5998 70.3069 84.5744 72.3349C82.414 74.4953 74.1416 93.2488 73.681 95.5924C73.368 97.1904 74.8362 97.9614 76.7574 97.7654C79.3936 97.4983 95.1471 95.0402 117.575 95.0402C122.206 95.0402 126.534 95.1496 130.54 95.3175Z" fill="#0891FF"/>
<path d="M105.624 136.866H108.321V128.776H105.624V136.866Z" fill="#525B66"/>
<path d="M87.8823 132.822C87.8823 135.056 86.0705 136.865 83.8364 136.865C81.6023 136.865 79.7905 135.054 79.7905 132.822C79.7905 130.588 81.6023 128.776 83.8364 128.776C86.0705 128.776 87.8823 130.588 87.8823 132.822Z" fill="white"/>
<path d="M147.265 132.822C147.265 135.056 149.077 136.865 151.311 136.865C153.545 136.865 155.354 135.054 155.354 132.822C155.354 130.588 153.543 128.776 151.311 128.776C149.079 128.776 147.265 130.588 147.265 132.822Z" fill="white"/>
<path d="M117.084 122.807C108.896 122.807 98.6994 122.371 96.6306 120.305C94.9665 118.641 91.6611 112.575 91.9792 110.157C92.1191 109.099 92.7629 108.58 93.1344 108.364C95.651 106.911 110.687 106.402 117.036 106.249C123.43 106.399 138.509 106.906 141.034 108.364C141.405 108.577 142.049 109.094 142.189 110.157C142.507 112.575 139.201 118.641 137.537 120.305C135.469 122.374 125.272 122.807 117.084 122.807Z" fill="#525B66"/>
<path d="M117.084 122.219C110.47 122.219 99.0733 121.916 97.0453 119.888C95.3201 118.163 92.2844 112.336 92.5617 110.234C92.6686 109.422 93.1521 109.033 93.4294 108.873C95.8926 107.45 112.13 106.957 117.051 106.837C122.038 106.954 138.278 107.45 140.741 108.873C141.018 109.033 141.502 109.422 141.609 110.234C141.886 112.333 138.85 118.163 137.125 119.888C135.094 121.916 123.697 122.219 117.084 122.219Z" fill="white"/>
<path d="M140.003 110.147C137.672 108.801 117.084 108.307 117.084 108.307C117.084 108.307 96.4933 108.801 94.1624 110.147C93.3125 110.638 96.1854 116.949 98.0836 118.85C99.9819 120.75 117.081 120.75 117.081 120.75C117.081 120.75 134.178 120.75 136.079 118.85C137.983 116.949 140.853 110.638 140.003 110.147Z" fill="#10303E"/>
<path d="M140.125 110.906H94.0402C94.0961 111.298 94.2412 111.809 94.4498 112.392H139.713C139.924 111.809 140.069 111.298 140.125 110.906Z" fill="white"/>
<path d="M95.8772 115.562H138.288C138.55 115.071 138.797 114.57 139.023 114.076H95.1418C95.3683 114.567 95.6177 115.069 95.8772 115.562Z" fill="white"/>
<path d="M115.898 121.959H118.27C118.285 117.237 118.298 112.417 118.31 107.677H115.857C115.87 112.417 115.883 117.237 115.898 121.959Z" fill="white"/>
<path d="M97.9792 118.73H136.191C136.545 118.354 136.927 117.84 137.311 117.244H96.8596C97.2439 117.84 97.623 118.354 97.9792 118.73Z" fill="white"/>
<path d="M122.56 72.5613H112.588C112.104 72.5613 111.715 73.3857 111.715 74.401C111.715 75.4163 112.107 76.2407 112.588 76.2407H122.56C123.043 76.2407 123.433 75.4163 123.433 74.401C123.433 73.3857 123.043 72.5613 122.56 72.5613Z" fill="#10303E"/>
<path d="M161.51 119.998C161.51 120.611 161.014 121.107 160.403 121.107H148.444C147.83 121.107 147.334 120.611 147.334 119.998V119.028C147.334 118.417 147.83 117.919 148.444 117.919H160.403C161.014 117.919 161.51 118.415 161.51 119.028V119.998Z" fill="#FA7500"/>
<path d="M74.7448 121.107H86.7043C87.3176 121.107 87.8138 120.611 87.8138 119.998V119.028C87.8138 118.417 87.3176 117.919 86.7043 117.919H74.7448C74.1315 117.919 73.6354 118.415 73.6354 119.028V119.998C73.6379 120.611 74.1341 121.107 74.7448 121.107Z" fill="#FA7500"/>
<path d="M178.831 155.866L178.795 154.108L182.284 153.968L182.281 153.446L180.256 153.403L180.225 151.647L183.594 151.446V151.176L178.418 151.029V149.074L187.543 148.975L187.551 148.685L182.133 148.336L182.149 147.087L178.416 146.909L178.418 145.153L181.596 145.013L181.591 144.512L178.37 144.425V142.405L180.016 142.336V141.217L183.077 141.117L177.299 141.026V138.837L181.973 138.621V138.491L178.093 138.395V136.367L185.309 136.1L178.548 135.723L178.528 133.97L184.764 133.463L184.762 133.138L179.044 133.005V131.519L178.698 131.494V129.527L180.304 129.43L178.604 129.402V126.982L180.329 126.952L178.698 126.855V124.888L179.044 124.863V123.379L184.762 123.244L184.764 122.919L178.528 122.412L178.548 120.662L185.309 120.282L178.093 120.015V117.987L181.973 117.891V117.761L177.299 117.542V115.356L183.077 115.262L180.016 115.165V114.046L178.37 113.979V111.957L181.591 111.873L181.596 111.369L178.418 111.229L178.416 109.473L182.149 109.295L182.133 108.046L187.551 107.697L187.543 107.409L178.418 107.308V105.353L183.594 105.208V104.936L180.225 104.738L180.256 102.979L182.281 102.936L182.284 102.412L178.795 102.274L178.813 101.397H178.698V100.246L180.329 100.147L178.604 100.119V97.6993L180.329 97.6713L178.698 97.5746V95.6051L179.044 95.5796V94.8977H178.831L178.795 93.1419L182.284 93.0019L182.281 92.4778L180.256 92.4371L180.225 90.6788L183.594 90.4803V90.2055L178.418 90.0604V88.1087L187.543 88.0069L187.551 87.7194L182.133 87.3683V87.3352H177.299V85.5922L178.164 85.4929L183.077 85.414L180.016 85.3148V84.1952L178.37 84.129V84.0043H177.299V82.2867L178.138 82.0654L181.973 81.8872V81.7575L178.093 81.6608V79.6302L185.317 79.363L178.548 78.9839L178.528 77.2332L184.764 76.7268L184.762 76.4011L179.044 76.2688V74.821H178.37V73.0855L179.227 72.9023L181.591 72.8387L181.596 72.3349L178.418 72.1924L178.416 70.4392L182.149 70.261L182.133 69.0117L187.551 68.6631L187.543 68.3755L178.418 68.2712V66.3195L183.594 66.1744V65.9022L180.225 65.7012L180.256 63.9454L182.281 63.9022L182.284 63.3779L178.795 63.2405L178.831 61.5026L178.528 61.4772L178.548 59.724L185.309 59.3448L178.093 59.0776V57.0496L181.973 56.9529V56.8231L177.299 56.6068V54.4897H178.416L178.418 53.1004L181.596 52.9579L181.591 52.4541L178.37 52.3676V50.3471L180.016 50.281V49.1614L183.077 49.0596L177.299 48.9705V46.9272H221.221L221.254 48.6855L217.765 48.8229L217.768 49.3472L219.793 49.3904L219.824 51.1462L216.455 51.3472V51.6169L221.63 51.7619V53.7162L212.506 53.818L212.5 54.1055L217.918 54.4567L217.9 55.706L221.633 55.8842L221.63 57.6374L218.455 57.7799L218.457 58.2812L221.679 58.3677V60.3881L220.032 60.4542V61.5738L216.971 61.6756L222.75 61.7647V63.953L218.078 64.1693V64.3016L221.959 64.4009V66.4264L214.742 66.6936L221.501 67.0701L221.521 68.8234L215.287 69.3297L215.289 69.6529L221.004 69.7877V71.2713L221.353 71.2967V73.2662L219.745 73.3629L221.445 73.3909V75.8108L219.719 75.8413L221.353 75.938V77.905L221.004 77.9304V79.4139L215.289 79.5462L215.287 79.8719L221.521 80.3783L221.501 82.129L214.719 82.5106L221.959 82.7779V84.8059L218.078 84.9026V85.0324L222.75 85.2486V87.4344L216.971 87.5286L220.032 87.6278V88.7449L221.679 88.8111V90.834L218.457 90.9179L218.455 91.4218L221.63 91.5643L221.633 93.32L217.9 93.4982L217.915 94.745L212.5 95.0962L212.506 95.3837L221.63 95.4855V97.4372L216.455 97.5848V97.857L219.824 98.0555L219.793 99.8138L217.768 99.8571L217.765 100.379L221.254 100.519L221.236 101.397H221.353V102.547L219.719 102.643L221.445 102.674V105.091L219.719 105.119L221.353 105.219V107.185L221.004 107.211V107.895H221.221L221.254 109.651L217.765 109.791L217.768 110.313L219.793 110.356L219.824 112.114L216.455 112.313V112.585L221.63 112.733V114.684L212.506 114.786L212.5 115.074L217.915 115.425V115.455H222.75V117.201L221.885 117.298L216.971 117.379L220.032 117.476V118.595L221.679 118.661V118.786H222.75V120.506L221.913 120.728L218.078 120.906V121.036L221.959 121.132V123.16L214.735 123.43L221.501 123.807L221.521 125.56L215.287 126.066L215.289 126.389L221.004 126.524V127.972H221.679V129.708L220.824 129.888L218.457 129.952L218.455 130.458L221.63 130.596L221.633 132.351L217.9 132.529L217.915 133.781L212.5 134.13L212.506 134.418L221.63 134.519V136.474L216.455 136.619V136.888L219.824 137.087L219.793 138.845L217.768 138.888L217.765 139.413L221.254 139.553L221.221 141.29L221.521 141.316L221.501 143.069L214.742 143.446L221.959 143.715V145.741L218.078 145.838V145.97L222.75 146.186V148.303H221.633L221.63 149.693L218.455 149.835L218.457 150.339L221.679 150.425V152.446L220.032 152.512V153.629L216.971 153.733L222.75 153.823V155.866H178.831Z" fill="#5BB9FF"/>
<path d="M221.872 62.6298L206.9 62.4007L216.928 61.8944L204.006 61.2048L220.007 60.6959L204.286 60.2124L220.798 59.5457V59.2251L203.495 58.7645L218.419 57.9808L203.866 57.5432L221.592 56.762L203.635 55.9095L217.859 55.3345L202.235 54.3217L212.449 53.884L202.141 53.0545L220.752 52.8484V52.6169L202.841 52.1105L215.574 51.7644V51.5354L203.027 51.258L219.773 50.2682L203.635 49.9247L217.722 49.0952L204.52 48.4743L221.218 47.8051H200.024H178.179V48.1053L193.151 48.3343L183.123 48.8433L196.042 49.5328L180.044 50.0392L195.762 50.5226L179.25 51.1894V51.5125L196.556 51.9731L181.629 52.7542L196.182 53.1919L178.459 53.9757L196.416 54.8281L183.042 55.3675H178.179V55.767L195.576 56.5737L182.003 57.0342L195.622 57.4948L178.97 57.9096V58.2302L195.67 58.8511L186.948 59.2429L195.482 59.6577L178.599 60.6017L195.342 61.9606L185.095 62.3626H178.83L195.53 63.0293L182.329 63.6502L196.416 64.4797L180.276 64.8257L197.022 65.8156L184.474 66.0904V66.3219L197.207 66.668L179.296 67.1744V67.4034L197.907 67.6095L187.599 68.439L197.816 68.8767L182.189 69.8895L196.416 70.4645L178.459 71.317L196.182 72.1007L181.629 72.5358L196.556 73.3195L179.25 73.7801V73.9404H179.576L194.971 75.0473L179.064 75.3909L195.016 75.7598L184.8 76.3349L195.342 76.7497L178.599 78.1085L195.482 79.0525L186.948 79.4673L195.67 79.8566L178.97 80.48V80.8006L195.622 81.2154L182.003 81.676L195.576 82.1365L178.179 82.9432V83.1264H179.25V83.2867L195.762 83.9559L180.044 84.4394L196.042 84.9457L183.123 85.6353L193.151 86.1417L178.179 86.3707V86.4547H183.042L182.189 86.4903L197.816 87.503L187.599 87.9407L197.907 88.7703L179.296 88.9763V89.2079L197.207 89.7143L184.474 90.0578V90.2894L197.022 90.5642L180.276 91.554L196.416 91.9001L182.329 92.7296L195.53 93.3505L178.83 94.0172H185.095L184.8 94.0299L195.016 94.605L179.064 94.9739L194.971 95.32L179.576 96.4243V96.745L194.876 97.6661L182.563 97.9893L196.696 98.2666L179.484 98.5643V98.9104V99.2539L196.696 99.5542L182.563 99.8315L194.876 100.152L179.576 101.073V101.396H178.83L195.53 102.063L182.329 102.684L196.416 103.514L180.276 103.86L197.022 104.849L184.474 105.124V105.356L197.207 105.702L179.296 106.208V106.437L197.907 106.646L187.599 107.473L197.816 107.911L182.189 108.923L196.416 109.498L178.459 110.351L196.182 111.132L181.629 111.57L196.556 112.353L179.25 112.814V113.137L195.762 113.804L180.044 114.287L196.042 114.794L183.123 115.483L193.151 115.99L178.179 116.221V116.705L195.576 117.509L182.003 117.969L195.622 118.43L178.97 118.845V119.168L195.67 119.789L186.948 120.181L195.482 120.595L178.599 121.539L195.342 122.896L184.8 123.31L195.016 123.885L179.064 124.254L194.971 124.6L179.576 125.705V126.028L194.876 126.947L182.563 127.27L196.696 127.547L179.484 127.845V128.191V128.537L196.696 128.835L182.563 129.112L194.876 129.435L179.576 130.354V130.677L194.971 131.781L179.064 132.127L195.016 132.496L184.8 133.071L195.342 133.486L178.599 134.845L195.482 135.786L186.948 136.201L195.67 136.593L178.97 137.214V137.537L195.622 137.952L182.003 138.412L195.576 138.873L178.179 139.677V140.161L193.151 140.392L183.123 140.899L196.042 141.588L180.044 142.094L195.762 142.578L179.25 143.245V143.568L196.556 144.028L181.629 144.812L196.182 145.25L178.459 146.031L196.416 146.883L182.189 147.458L197.816 148.471L187.599 148.909L197.907 149.738L179.296 149.945V150.176L197.207 150.682L184.474 151.026V151.258L197.022 151.532L180.276 152.522L196.416 152.868L182.329 153.698L195.53 154.319L178.83 154.985H200.024H221.872V154.688L206.9 154.456L216.928 153.95L204.006 153.26L220.007 152.754L204.286 152.27L220.798 151.601V151.28L203.495 150.82L218.419 150.036L203.866 149.598L221.592 148.817L203.635 147.965L217.007 147.423H221.872V147.026L204.475 146.219L218.047 145.759L204.426 145.298L221.078 144.883V144.563L204.38 143.939L213.103 143.547L204.566 143.135L221.452 142.191L204.706 140.832L214.953 140.43H221.218L204.52 139.761L217.722 139.14L203.635 138.311L219.773 137.967L203.027 136.977L215.574 136.7V136.471L202.841 136.125L220.752 135.619V135.387L202.141 135.181L212.449 134.351L202.235 133.916L217.859 132.903L203.635 132.326L221.592 131.476L203.866 130.692L218.419 130.255L203.495 129.473L220.798 129.013V128.85H220.472L205.08 127.746L220.986 127.4L205.034 127.033L215.248 126.458L204.706 126.043L221.452 124.684L204.566 123.74L213.103 123.326L204.38 122.934L221.078 122.313V121.99L204.426 121.578L218.047 121.117L204.475 120.656L221.872 119.85V119.667H220.798V119.504L204.286 118.837L220.007 118.354L204.006 117.847L216.928 117.158L206.9 116.651L221.872 116.42V116.336H217.007L217.859 116.303L202.235 115.287L212.449 114.85L202.141 114.023L220.752 113.814V113.585L202.841 113.079L215.574 112.733V112.504L203.027 112.226L219.773 111.236L203.635 110.89L217.722 110.063L204.52 109.442L221.218 108.773H214.953L215.248 108.763L205.034 108.188L220.986 107.819L205.08 107.473L220.472 106.369V106.045L205.174 105.124L217.488 104.804L203.355 104.526L220.567 104.226V103.883V103.536L203.355 103.239L217.488 102.961L205.174 102.638L220.472 101.72V101.396H221.218L204.52 100.727L217.722 100.106L203.635 99.2794L219.773 98.9333L203.027 97.9435L215.574 97.6661V97.4371L202.841 97.091L220.752 96.5847V96.3557L202.141 96.147L212.449 95.32L202.235 94.8823L217.859 93.8696L203.635 93.292L221.592 92.4421L203.866 91.6583L218.419 91.2207L203.495 90.4395L220.798 89.9789V89.6558L204.286 88.9891L220.007 88.5056L204.006 87.9993L216.928 87.3071L206.9 86.8007L221.872 86.5717V86.0883L204.475 85.2816L218.047 84.8211L204.426 84.3605L221.078 83.9483V83.6251L204.38 83.0042L213.103 82.6124L204.566 82.1976L221.452 81.2536L204.706 79.8947L215.248 79.48L205.034 78.9049L220.986 78.5385L205.08 78.1924L220.472 77.0881V76.7649L205.174 75.8438L217.488 75.5206L203.355 75.2458L220.567 74.9455V74.602V74.256L203.355 73.9557L217.488 73.6809L205.174 73.3577L220.472 72.4366V72.116L205.08 71.0091L220.986 70.6655L205.034 70.2966L215.248 69.7215L204.706 69.3068L221.452 67.948L204.566 67.0039L213.103 66.5892L204.38 66.1998L221.078 65.5764V65.2558L204.426 64.841L218.047 64.3804L204.475 63.9199L221.872 63.1133V62.6298Z" fill="#0891FF"/>
<path d="M195.548 154.548L195.551 153.878L190.637 153.647L196.441 153.306L196.424 152.428L191.192 152.318L197.047 151.97L197.034 151.125L197.223 151.12V150.242L195.759 150.199L197.912 150.176L197.943 149.298L194.749 149.041L197.833 148.911L197.841 148.033L190.553 147.56L196.434 147.323L196.436 146.443L188.06 146.046L196.202 145.69L196.195 144.809L192.286 144.692L196.579 144.468L196.566 143.588L187.563 143.349L195.78 143.018L195.777 142.138L194.144 142.089L196.055 142.028L196.065 141.15L191.586 140.911L193.172 140.832L193.156 139.952L184.591 139.819L195.597 139.311L195.591 138.433L194.994 138.412L195.637 138.392L195.632 137.512L187.942 137.321L195.686 137.033L195.688 136.153L195.502 136.148L195.505 135.349L185.026 134.761L195.38 133.924L195.36 133.046L194.009 132.992L195.042 132.934L195.027 132.056H194.983L195.001 131.343L183.813 130.539L194.902 129.873L194.892 129.31L196.703 129.275V128.397L184.892 128.191L196.703 127.987V127.107L194.892 127.074L194.902 126.511L183.797 125.842L195.001 125.038L194.983 124.326H195.027L195.042 123.45L193.986 123.389L195.36 123.336L195.38 122.458L185.026 121.621L195.505 121.033L195.502 120.236L195.688 120.229L195.686 119.351L187.925 119.063L195.632 118.87L195.637 117.99L194.991 117.969L195.591 117.949L195.597 117.071L184.584 116.562L193.156 116.43L193.172 115.552L191.586 115.47L196.065 115.234L196.055 114.353L194.144 114.295L195.777 114.244L195.78 113.363L187.548 113.033L196.566 112.791L196.579 111.913L192.304 111.689L196.195 111.575L196.202 110.694L188.06 110.335L196.436 109.938L196.434 109.058L190.543 108.821L197.841 108.348L197.833 107.47L194.749 107.338L197.943 107.081L197.912 106.203L195.752 106.18L197.223 106.139V105.259L197.034 105.256L197.047 104.412L191.21 104.066L196.424 103.954L196.441 103.076L190.637 102.735L195.551 102.503L195.546 101.623L184.833 101.198L194.902 100.59L194.892 100.027L196.703 99.9942V99.1138L184.892 98.9102L196.703 98.7042V97.8263L194.892 97.7906L194.902 97.2283L183.813 96.5616L195.001 95.7575L194.983 95.045H195.027L195.042 94.1672L191.332 93.9559L195.546 93.7906L195.551 92.9101L190.637 92.6786L196.441 92.3376L196.424 91.4597L191.21 91.3478L197.047 91.0042L197.034 90.1569L197.223 90.1544V89.2739L195.752 89.2332L197.912 89.2103L197.943 88.3324L194.749 88.0754L197.833 87.9431L197.841 87.0678L190.912 86.6174L193.156 86.5818L193.172 85.7013L191.586 85.6224L196.065 85.3858L196.055 84.5054L194.111 84.4443L195.777 84.3934L195.78 83.513L184.843 83.0728L195.597 82.5766L195.591 81.6962L194.96 81.6758L195.637 81.6554L195.632 80.775L187.942 80.5842L195.686 80.2966L195.688 79.4162L195.502 79.4111L195.505 78.6147L185.026 78.0269L195.38 77.1872L195.36 76.3118L193.986 76.2584L195.042 76.1973L195.027 75.3195H194.983L195.001 74.607L186.803 74.0166L196.566 73.7596L196.579 72.8792L192.286 72.6578L196.195 72.5407L196.202 71.6603L188.06 71.3015L196.436 70.9046L196.434 70.0242L190.553 69.7901L197.841 69.3142L197.833 68.4389L194.737 68.3066L197.943 68.047L197.912 67.1692L195.808 67.1462L197.223 67.1081V66.2277L197.034 66.2226L197.047 65.3778L191.21 65.0317L196.424 64.9197L196.441 64.0419L190.637 63.7009L195.551 63.4693L195.546 62.5889L193.027 62.4897L195.36 62.3981L195.38 61.5227L185.026 60.683L195.505 60.0952L195.502 59.2962L195.688 59.2911L195.686 58.4107L187.942 58.1231L195.632 57.9323L195.637 57.0544L194.991 57.0315L195.591 57.0137L195.597 56.1333L185.963 55.688L196.434 55.2656L196.436 54.3877L188.06 53.9908L196.202 53.632L196.195 52.7516L192.304 52.6371L196.579 52.4131L196.566 51.5327L187.563 51.2935L195.78 50.9627L195.777 50.0823L194.111 50.0314L196.055 49.9729L196.065 49.0924L191.586 48.8533L193.172 48.7744L193.164 48.2451H204.5L204.498 48.9143L209.411 49.1433L203.609 49.4869L203.625 50.3647L208.841 50.4767L203.001 50.8202L203.017 51.6676L202.828 51.6701V52.5506L204.291 52.5912L202.136 52.6141L202.108 53.492L205.302 53.749L202.215 53.8814L202.207 54.7567L209.51 55.2325L203.617 55.4692L203.612 56.3496L211.976 56.744L203.849 57.1028L203.854 57.9807L207.765 58.1003L203.472 58.3242L203.485 59.2021L212.485 59.4438L204.269 59.7746L204.274 60.6525L205.938 60.7034L203.994 60.7644L203.984 61.6449L208.462 61.8815L206.877 61.9604L206.892 62.8408L215.444 62.9706L204.454 63.4795L204.457 64.3599L205.057 64.3803L204.414 64.4007L204.416 65.2811L212.108 65.4719L204.363 65.7595V66.6373L204.546 66.6449L204.543 67.4414L215.022 68.0292L204.671 68.8689L204.688 69.7468L206.042 69.7977L205.006 69.8588L205.022 70.7366H205.067L205.047 71.4466L216.236 72.2507L205.146 72.9199L205.154 73.4823L203.345 73.5153V74.3958L215.159 74.6019L203.345 74.8054V75.6833L205.154 75.7189L205.146 76.2813L216.241 76.9505L205.047 77.7546L205.067 78.4671H205.022L205.006 79.345L206.042 79.4035L204.688 79.4544L204.671 80.3323L215.022 81.172L204.543 81.7598L204.546 82.5588L204.363 82.5639V83.4443L212.124 83.7318L204.416 83.9227L204.414 84.8006L205.057 84.8235L204.457 84.8412L204.454 85.7217L215.444 86.2306L206.892 86.3604L206.877 87.2408L208.462 87.3197L203.984 87.5589L203.994 88.4368L205.938 88.4978L204.274 88.5487L204.269 89.4291L212.485 89.76L203.485 89.9991L203.472 90.8795L207.744 91.1009L203.854 91.218L203.849 92.0959L211.989 92.4546L203.612 92.8516L203.617 93.732L209.51 93.9712L202.207 94.4445L202.215 95.3224L205.302 95.4522L202.108 95.7092L202.136 96.5871L204.291 96.6099L202.828 96.6507V97.5311L203.017 97.5362L203.001 98.381L208.841 98.727L203.625 98.8364L203.609 99.7143L209.411 100.058L204.498 100.287L204.503 101.167L215.203 101.597L205.146 102.2L205.154 102.763L203.345 102.798V103.676L215.116 103.882L203.345 104.086V104.966L205.154 104.999L205.146 105.562L216.241 106.231L205.047 107.035L205.067 107.748H205.022L205.006 108.623L208.719 108.834L204.503 109.002L204.498 109.88L209.411 110.111L203.609 110.452L203.625 111.33L208.841 111.442L203.001 111.788L203.017 112.636L202.828 112.641V113.519L204.241 113.557L202.136 113.582L202.108 114.46L205.314 114.717L202.215 114.849L202.207 115.727L209.124 116.175L206.892 116.208L206.877 117.089L208.462 117.168L203.984 117.407L203.991 118.287L205.935 118.346L204.274 118.397L204.269 119.277L215.215 119.72L204.454 120.216L204.457 121.096L205.057 121.117L204.414 121.137L204.416 122.018L212.108 122.208L204.363 122.493V123.374L204.546 123.381L204.543 124.178L215.022 124.763L204.671 125.605L204.688 126.483L206.042 126.534L205.006 126.595L205.022 127.471H205.067L205.047 128.183L213.256 128.773L203.485 129.033L203.472 129.913L207.747 130.137L203.854 130.252L203.849 131.132L211.989 131.488L203.612 131.885L203.617 132.766L209.498 133.003L202.207 133.476L202.215 134.354L205.314 134.483L202.108 134.743L202.136 135.621L204.297 135.644L202.828 135.685V136.565L203.017 136.57L203.001 137.415L208.841 137.761L203.625 137.87L203.609 138.748L209.411 139.089L204.498 139.321L204.503 140.201L207.024 140.303L204.688 140.392L204.671 141.27L215.022 142.11L204.543 142.697L204.546 143.494L204.363 143.501V144.379L212.124 144.667L204.416 144.858L204.414 145.738L205.057 145.759L204.457 145.779L204.454 146.659L214.073 147.102L203.617 147.524L203.612 148.405L211.989 148.802L203.849 149.161L203.854 150.039L207.765 150.158L203.472 150.379L203.485 151.26L212.487 151.499L204.269 151.83L204.274 152.71L205.905 152.759L203.994 152.82L203.984 153.698L208.462 153.937L206.877 154.016L206.887 154.548H195.548Z" fill="#0081EF"/>
<path d="M57.1207 46.9272L57.1538 48.6855L53.6678 48.8229V49.3472L55.6932 49.3904L55.7263 51.1462L52.3547 51.3472V51.6169L57.533 51.7619V53.7162L48.4055 53.818L48.4005 54.1081L53.8153 54.4567L53.8026 55.706L57.533 55.8842V57.6374L54.3548 57.7799L54.3599 58.2812L57.5787 58.3677V60.3881L55.935 60.4542V61.5738L52.8713 61.6756L58.6526 61.7647V63.953L53.9782 64.1693V64.3016L57.8587 64.3983V66.4264L50.6422 66.6936L57.4006 67.0701L57.4235 68.8234L51.1868 69.3297L51.1893 69.6529L56.9044 69.7877V71.2738L57.2531 71.2992V73.2662L55.6474 73.3629L57.3447 73.3909V75.8108L55.6194 75.8413L57.2531 75.938V77.905L56.9044 77.9304V79.4139L51.1893 79.5462L51.1868 79.8745L57.4235 80.3783L57.4006 82.1315L50.6422 82.5106L57.8587 82.7779V84.8059L53.9782 84.9026V85.0324L58.6526 85.2486V87.4344L52.8713 87.5286L55.935 87.6278V88.7449L57.5787 88.8111V90.834L54.3599 90.9205L54.3548 91.4218L57.533 91.5643V93.32L53.8026 93.4982L53.8153 94.745L48.4005 95.0962L48.4055 95.3837L57.533 95.4855V97.4372L52.3547 97.5848V97.857L55.7263 98.0555L55.6932 99.8138L53.6678 99.8571V100.379L57.1538 100.519L57.1386 101.397H57.2531V102.547L55.6194 102.643L57.3447 102.674V105.091L55.6194 105.119L57.2531 105.219V107.185L56.9044 107.211V107.895H57.1207L57.1538 109.651L53.6678 109.791V110.313L55.6932 110.356L55.7263 112.114L52.3547 112.313V112.585L57.533 112.733V114.684L48.4055 114.786L48.4005 115.074L53.8153 115.425V115.455H58.6526V117.201L57.7849 117.3L52.8713 117.379L55.935 117.476V118.595L57.5787 118.664V118.786H58.6526V120.506L57.8129 120.728L53.9782 120.906V121.036L57.8587 121.132V123.16L50.632 123.43L57.4006 123.807L57.4235 125.56L51.1868 126.066L51.1893 126.389L56.9044 126.524V127.972H57.5787V129.708L56.7238 129.888L54.3599 129.952L54.3548 130.458L57.533 130.598V132.354L53.8026 132.532L53.8153 133.781L48.4005 134.13L48.4055 134.418L57.533 134.519V136.474L52.3547 136.619V136.891L55.7263 137.089L55.6932 138.848L53.6678 138.891V139.413L57.1538 139.553L57.1207 141.29L57.4235 141.316L57.4006 143.069L50.6422 143.446L57.8587 143.715V145.741L53.9782 145.838V145.97L58.6526 146.186V148.303H57.533V149.693L54.3548 149.835L54.3599 150.339L57.5787 150.425V152.446L55.935 152.512V153.629L52.8713 153.733L58.6526 153.823V155.866H14.7306L14.6975 154.108L18.1836 153.968V153.446L16.1581 153.403L16.125 151.647L19.4966 151.446V151.176L14.3184 151.029V149.074L23.4458 148.975L23.4509 148.688L18.0335 148.336L18.0487 147.087L14.3158 146.909L14.3184 145.153L17.4965 145.013L17.4914 144.512L14.2725 144.425V142.405L15.9164 142.336V141.217L18.9775 141.117L13.1987 141.026V138.837L17.8731 138.621V138.491L13.9901 138.392V136.367L21.2065 136.1L14.4507 135.723L14.4278 133.97L20.662 133.463L20.6595 133.138L14.9443 133.005V131.522L14.5983 131.496V129.527L16.2039 129.43L14.5067 129.402V126.982L16.2293 126.952L14.5983 126.855V124.888L14.9443 124.863V123.379L20.6595 123.244L20.662 122.921L14.4278 122.415L14.4507 120.662L21.232 120.282L13.9901 120.015V117.987L17.8731 117.891V117.761L13.1987 117.542V115.356L18.9775 115.262L15.9164 115.165V114.046L14.2725 113.979V111.959L17.4914 111.873L17.4965 111.369L14.3184 111.229L14.3158 109.473L18.0487 109.295L18.0335 108.046L23.4509 107.697L23.4458 107.409L14.3184 107.308V105.353L19.4966 105.208V104.936L16.125 104.738L16.1581 102.979L18.1836 102.936V102.412L14.6975 102.274L14.7128 101.397H14.5983V100.246L16.2293 100.15L14.5067 100.119V97.6993L16.2293 97.6713L14.5983 97.5746V95.6051L14.9443 95.5796V94.8977H14.7306L14.6975 93.1419L18.1836 93.0019V92.4778L16.1581 92.4371L16.125 90.6788L19.4966 90.4803V90.2055L14.3184 90.0604V88.1087L23.4458 88.0069L23.4509 87.7194L18.0335 87.3683V87.3352H13.1987V85.5922L14.0664 85.4929L18.9775 85.414L15.9164 85.3148V84.1977L14.2725 84.1316V84.0043H13.1987V82.2867L14.0384 82.0654L17.8731 81.8872V81.7575L13.9901 81.6608V79.6302L21.2167 79.363L14.4507 78.9839L14.4278 77.2332L20.662 76.7268L20.6595 76.4011L14.9443 76.2688V74.821H14.2725V73.0855L15.1275 72.9023L17.4914 72.8387L17.4965 72.3349L14.3184 72.195L14.3158 70.4417L18.0487 70.2636L18.0335 69.0117L23.4509 68.6631L23.4458 68.3755L14.3184 68.2712V66.3195L19.4966 66.1744V65.9047L16.125 65.7037L16.1581 63.9479L18.1836 63.9047V63.3779L14.6975 63.2405L14.7306 61.5026L14.4278 61.4772L14.4507 59.724L21.2065 59.3448L13.9901 59.0776V57.0496L17.8731 56.9529V56.8231L13.1987 56.6068V54.4897H14.3158L14.3184 53.1004L17.4965 52.9579L17.4914 52.4541L14.2725 52.3676V50.3471L15.9164 50.281V49.1614L18.9775 49.0596L13.1987 48.9705V46.9272H57.1207Z" fill="#5BB9FF"/>
<path d="M14.0791 140.161L29.0514 140.392L19.0232 140.898L31.942 141.588L15.9442 142.094L31.6621 142.578L15.1503 143.247V143.568L32.4561 144.028L17.5295 144.812L32.082 145.25L14.359 146.031L32.3161 146.883L18.0893 147.458L33.7156 148.471L23.4991 148.909L33.8098 149.738L15.1987 149.944V150.176L33.11 150.682L20.3744 151.026V151.257L32.9217 151.532L16.1784 152.522L32.3161 152.868L18.2293 153.698L31.4306 154.319L14.7305 154.985H35.9243H57.7721V154.688L42.7997 154.456L52.828 153.95L39.9066 153.26L55.9069 152.754L40.1865 152.27L56.7008 151.603V151.28L39.3951 150.82L54.3216 150.036L39.7666 149.601L57.4922 148.817L39.5351 147.965L52.9068 147.425H57.7721V147.026L40.3748 146.219L53.9476 145.759L40.3264 145.298L56.9807 144.883V144.563L40.2806 143.939L49.0034 143.55L40.4664 143.135L57.3522 142.191L40.6063 140.832L50.8534 140.43H57.1181L40.4206 139.761L53.6219 139.14L39.5351 138.311L55.6728 137.967L38.9269 136.977L51.4743 136.7V136.471L38.7411 136.125L56.6524 135.618V135.389L38.0414 135.181L48.3495 134.351L38.1356 133.916L53.7618 132.903L39.5351 132.326L57.4922 131.476L39.7666 130.692L54.3216 130.254L39.3951 129.473L56.7008 129.013V128.85H56.3725L40.9804 127.746L56.8866 127.402L40.9346 127.033L51.1485 126.458L40.6063 126.043L57.3522 124.684L40.4664 123.74L49.0034 123.326L40.2806 122.934L56.9807 122.313V121.99L40.3264 121.577L53.9476 121.117L40.3748 120.656L57.7721 119.85V119.666H56.7008V119.506L40.1865 118.837L55.9069 118.353L39.9066 117.847L52.828 117.158L42.7997 116.651L57.7721 116.42V116.336H52.9068L53.7618 116.303L38.1356 115.29L48.3495 114.852L38.0414 114.023L56.6524 113.814V113.585L38.7411 113.079L51.4743 112.733V112.503L38.9269 112.226L55.6728 111.236L39.5351 110.893L53.6219 110.063L40.4206 109.442L57.1181 108.773H50.8534L51.1485 108.763L40.9346 108.188L56.8866 107.819L40.9804 107.473L56.3725 106.368V106.045L41.0745 105.127L53.3878 104.804L39.2552 104.526L56.4667 104.228V103.882V103.536L39.2552 103.239L53.3878 102.961L41.0745 102.641L56.3725 101.72V101.396H57.1181L40.4206 100.73L53.6219 100.106L39.5351 99.2793L55.6728 98.9332L38.9269 97.9434L51.4743 97.666V97.437L38.7411 97.091L56.6524 96.5846V96.3556L38.0414 96.1469L48.3495 95.3199L38.1356 94.8822L53.7618 93.8695L39.5351 93.2919L57.4922 92.442L39.7666 91.6583L54.3216 91.2206L39.3951 90.4394L56.7008 89.9789V89.6557L40.1865 88.989L55.9069 88.5055L39.9066 87.9992L52.828 87.307L42.7997 86.8007L57.7721 86.5717V86.0882L40.3748 85.2815L53.9476 84.821L40.3264 84.3604L56.9807 83.9482V83.625L40.2806 83.0041L49.0034 82.6123L40.4664 82.1975L57.3522 81.2535L40.6063 79.8947L51.1485 79.4825L40.9346 78.9048L56.8866 78.5384L40.9804 78.1924L56.3725 77.088V76.7648L41.0745 75.8437L53.3878 75.5231L39.2552 75.2457L56.4667 74.9455V74.602V74.2559L39.2552 73.9556L53.3878 73.6808L41.0745 73.3576L56.3725 72.4365V72.1159L40.9804 71.009L56.8866 70.6655L40.9346 70.2965L51.1485 69.7215L40.6063 69.3067L57.3522 67.9479L40.4664 67.0038L49.0034 66.5891L40.2806 66.1998L56.9807 65.5763V65.2557L40.3264 64.8409L53.9476 64.3803L40.3748 63.9198L57.7721 63.1132V62.6297L42.7997 62.4007L52.828 61.8943L39.9066 61.2047L55.9069 60.6958L40.1865 60.2149L56.7008 59.5457V59.2251L39.3951 58.7645L54.3216 57.9807L39.7666 57.5431L57.4922 56.7619L39.5351 55.9095L53.7618 55.3344L38.1356 54.3217L48.3495 53.884L38.0414 53.0545L56.6524 52.8483V52.6168L38.7411 52.1104L51.4743 51.7669V51.5353L38.9269 51.258L55.6728 50.2681L39.5351 49.9246L53.6219 49.0951L40.4206 48.4742L57.1181 47.8075H35.9243H14.0791V48.1052L29.0514 48.3368L19.0232 48.8432L31.942 49.5327L15.9442 50.0391L31.6621 50.5226L15.1503 51.1893V51.5124L32.4561 51.973L17.5295 52.7542L32.082 53.1919L14.359 53.9756L32.3161 54.828L18.9443 55.3675H14.0791V55.767L31.4764 56.5736L17.9036 57.0342L31.5222 57.4947L14.8704 57.9095V58.2301L31.5705 58.851L22.8477 59.2428L31.3822 59.6576L14.4989 60.6016L31.2423 61.9605L20.9978 62.3625H14.7305L31.4306 63.0292L18.2293 63.6526L32.3161 64.4796L16.1784 64.8257L32.9217 65.8155L20.3744 66.0929V66.3219L33.11 66.6679L15.1987 67.1743V67.4033L33.8098 67.612L23.4991 68.439L33.7156 68.8767L18.0893 69.8894L32.3161 70.4645L14.359 71.3169L32.082 72.1006L17.5295 72.5383L32.4561 73.3195L15.1503 73.78V73.9403H15.4786L30.8708 75.0472L14.9646 75.3908L30.9166 75.7597L20.7026 76.3348L31.2423 76.7496L14.4989 78.1084L31.3822 79.0524L22.8477 79.4672L31.5705 79.8565L14.8704 80.4799V80.8005L31.5222 81.2153L17.9036 81.6759L31.4764 82.1365L14.0791 82.9431V83.1263H15.1503V83.2866L31.6621 83.9558L15.9442 84.4393L31.942 84.9456L19.0232 85.6353L29.0514 86.1416L14.0791 86.3732V86.4572H18.9443L18.0893 86.4902L33.7156 87.503L23.4991 87.9406L33.8098 88.7702L15.1987 88.9763V89.2078L33.11 89.7142L20.3744 90.0603V90.2893L32.9217 90.5666L16.1784 91.5539L32.3161 91.9L18.2293 92.7295L31.4306 93.3504L14.7305 94.0171H20.9978L20.7026 94.0298L30.9166 94.6049L14.9646 94.9739L30.8708 95.3199L15.4786 96.4243V96.7474L30.7766 97.666L18.4634 97.9892L32.596 98.2665L15.3845 98.5643V98.9103V99.2564L32.596 99.5541L18.4634 99.8315L30.7766 100.152L15.4786 101.073V101.396H14.7305L31.4306 102.063L18.2293 102.686L32.3161 103.513L16.1784 103.86L32.9217 104.849L20.3744 105.127V105.356L33.11 105.702L15.1987 106.208V106.437L33.8098 106.646L23.4991 107.473L33.7156 107.911L18.0893 108.923L32.3161 109.498L14.359 110.351L32.082 111.134L17.5295 111.57L32.4561 112.353L15.1503 112.814V113.137L31.6621 113.804L15.9442 114.287L31.942 114.794L19.0232 115.483L29.0514 115.99L14.0791 116.221V116.705L31.4764 117.511L17.9036 117.969L31.5222 118.43L14.8704 118.845V119.168L31.5705 119.789L22.8477 120.18L31.3822 120.595L14.4989 121.539L31.2423 122.896L20.7026 123.31L30.9166 123.885L14.9646 124.254L30.8708 124.6L15.4786 125.705V126.028L30.7766 126.949L18.4634 127.27L32.596 127.547L15.3845 127.845V128.191V128.537L32.596 128.835L18.4634 129.112L30.7766 129.435L15.4786 130.356V130.677L30.8708 131.781L14.9646 132.127L30.9166 132.496L20.7026 133.071L31.2423 133.486L14.4989 134.845L31.3822 135.786L22.8477 136.201L31.5705 136.593L14.8704 137.214V137.537L31.5222 137.952L17.9036 138.412L31.4764 138.873L14.0791 139.677V140.161Z" fill="#0891FF"/>
<path d="M40.4003 48.2451V48.9118L45.3113 49.1433L39.5097 49.4843L39.525 50.3622L44.7592 50.4741L38.9015 50.8228L38.9168 51.6676L38.7285 51.6727V52.5506L40.1916 52.5912L38.0364 52.6167L38.0084 53.492L41.2019 53.7516L38.1178 53.8814L38.1076 54.7592L45.3979 55.2325L39.5173 55.4692L39.5122 56.347L47.889 56.744L39.7489 57.1028L39.7565 57.9832L43.665 58.1003L39.3723 58.3242L39.385 59.2021L48.3877 59.4438L40.1687 59.7746L40.1738 60.6525L41.8074 60.7034L39.8939 60.7619L39.8837 61.6398L44.3622 61.8815L42.777 61.9604L42.7922 62.8383L51.3598 62.9731L40.3545 63.4795L40.357 64.3599L40.9576 64.3803L40.3138 64.4007L40.3163 65.2811L48.0086 65.4719L40.2655 65.7595L40.2629 66.6399L40.4461 66.6449L40.4436 67.444L50.9247 68.0318L40.5708 68.8689L40.5911 69.7468L41.9423 69.7977L40.9067 69.8588L40.9219 70.7366H40.9677L40.9474 71.4491L52.1385 72.2532L41.0492 72.9199L41.0568 73.4823L39.2476 73.5153V74.3958L51.0595 74.6019L39.2476 74.8054V75.6859L41.0568 75.7189L41.0492 76.2813L52.1537 76.9505L40.9474 77.7546L40.9677 78.4645H40.9219L40.9067 79.3424L41.9627 79.4035L40.5911 79.4569L40.5708 80.3323L50.9247 81.172L40.4436 81.7598L40.4461 82.5562L40.2629 82.5639L40.2655 83.4418L48.0264 83.7293L40.3163 83.9227L40.3138 84.8031L40.9601 84.8235L40.357 84.8438L40.3545 85.7217L51.3674 86.2306L42.7922 86.3604L42.777 87.2408L44.3622 87.3197L39.8837 87.5589L39.8939 88.4393L41.8074 88.4978L40.1738 88.5487L40.1687 89.4266L48.403 89.76L39.385 89.9991L39.3723 90.8795L43.6472 91.1035L39.7565 91.218L39.7489 92.0984L47.889 92.4572L39.5122 92.8541L39.5173 93.732L45.408 93.9712L38.1076 94.4445L38.1178 95.3224L41.2019 95.4522L38.0084 95.7092L38.0364 96.5871L40.1967 96.6125L38.7285 96.6532V97.5311L38.9168 97.5362L38.9015 98.381L44.7413 98.727L39.525 98.839L39.5097 99.7143L45.3113 100.058L40.4003 100.289L40.4028 101.167L51.1155 101.595L41.0492 102.203L41.0568 102.763L39.2476 102.798V103.679L51.0595 103.882L39.2476 104.088V104.966L41.0568 105.002L41.0492 105.564L52.1385 106.231L40.9474 107.035L40.9677 107.748H40.9219L40.9067 108.625L44.6192 108.834L40.4028 109.002L40.4003 109.882L45.3113 110.114L39.5097 110.455L39.525 111.333L44.7413 111.442L38.9015 111.788L38.9168 112.633L38.7285 112.638V113.519L40.1967 113.559L38.0364 113.582L38.0084 114.46L41.2019 114.717L38.1178 114.847L38.1076 115.725L45.0391 116.175L42.7922 116.211L42.777 117.089L44.3622 117.17L39.8837 117.407L39.8939 118.287L41.838 118.346L40.1738 118.399L40.1687 119.277L51.1079 119.72L40.3545 120.216L40.357 121.094L40.9881 121.117L40.3138 121.137L40.3163 122.018L48.0086 122.208L40.2655 122.496L40.2629 123.376L40.4461 123.381L40.4436 124.178L50.9247 124.766L40.5708 125.603L40.5911 126.481L41.9627 126.534L40.9067 126.595L40.9219 127.473H40.9677L40.9474 128.186L49.1486 128.773L39.385 129.033L39.3723 129.911L43.665 130.135L39.7565 130.252L39.7489 131.132L47.889 131.491L39.5122 131.888L39.5173 132.766L45.3979 133.003L38.1076 133.476L38.1178 134.354L41.2145 134.486L38.0084 134.746L38.0364 135.621L40.1407 135.646L38.7285 135.685V136.565L38.9168 136.567L38.9015 137.415L44.7413 137.761L39.525 137.873L39.5097 138.751L45.3113 139.092L40.4003 139.323L40.4028 140.201L42.9245 140.303L40.5911 140.392L40.5708 141.27L50.9247 142.11L40.4436 142.697L40.4461 143.494L40.2629 143.501L40.2655 144.382L48.0086 144.669L40.3163 144.86L40.3138 145.738L40.9601 145.761L40.357 145.779L40.3545 146.659L49.9857 147.102L39.5173 147.524L39.5122 148.405L47.889 148.802L39.7489 149.161L39.7565 150.041L43.6472 150.156L39.3723 150.379L39.385 151.257L48.3877 151.499L40.1687 151.83L40.1738 152.708L41.838 152.761L39.8939 152.82L39.8837 153.7L44.3622 153.937L42.777 154.018L42.7871 154.548H31.4485L31.451 153.878L26.54 153.649L32.3416 153.306L32.3238 152.428L27.1099 152.316L32.9498 151.97L32.9345 151.125L33.1228 151.12V150.242L31.6597 150.201L33.8124 150.178L33.8429 149.301L30.6495 149.044L33.7335 148.911L33.7437 148.033L26.4407 147.56L32.334 147.321L32.3365 146.443L23.9725 146.049L32.1024 145.69L32.0948 144.809L28.1863 144.692L32.479 144.468L32.4663 143.591L23.4636 143.349L31.68 143.018L31.6775 142.14L30.0108 142.087L31.9548 142.028L31.9676 141.148L27.4866 140.911L29.0718 140.83L29.0565 139.952L20.5068 139.819L31.4968 139.313L31.4917 138.433L30.8912 138.412L31.5375 138.392L31.5324 137.512L23.8427 137.321L31.5859 137.033L31.5884 136.155L31.4052 136.148L31.4078 135.349L20.9266 134.761L31.2805 133.924L31.2602 133.046L29.909 132.995L30.9421 132.934L30.9268 132.056H30.8836L30.9014 131.343L19.7154 130.539L30.8047 129.873L30.7945 129.31L32.6062 129.277V128.397L20.7918 128.191L32.6062 127.987V127.107L30.7945 127.074L30.8047 126.511L19.7103 125.842L30.9014 125.038L30.8836 124.326H30.9268L30.9421 123.448L29.909 123.389L31.2602 123.336L31.2805 122.46L20.9266 121.621L31.4078 121.033L31.4052 120.234L31.5884 120.229L31.5859 119.348L23.8274 119.061L31.5324 118.87L31.5375 117.99L30.8912 117.969L31.4917 117.949L31.4968 117.071L20.5068 116.562L29.0565 116.43L29.0718 115.552L27.4866 115.473L31.9676 115.234L31.9548 114.353L30.0108 114.295L31.6775 114.244L31.68 113.363L23.4636 113.033L32.4663 112.793L32.479 111.913L28.2067 111.689L32.0948 111.575L32.1024 110.694L23.9598 110.335L32.3365 109.941L32.334 109.061L26.4407 108.821L33.7437 108.348L33.7335 107.47L30.6495 107.34L33.8429 107.083L33.8124 106.206L31.6597 106.18L33.1228 106.139V105.262L32.9345 105.256L32.9498 104.412L27.1099 104.066L32.3238 103.954L32.3416 103.076L26.54 102.735L31.451 102.503L31.4459 101.625L20.746 101.195L30.8047 100.59L30.7945 100.03L32.6062 99.9942V99.1138L20.835 98.9077L32.6062 98.7042V97.8263L30.7945 97.7906L30.8047 97.2283L19.7078 96.5591L30.9014 95.755L30.8836 95.045H30.9268L30.9421 94.1672L27.2321 93.9585L31.4459 93.7906L31.451 92.9101L26.54 92.6786L32.3416 92.3376L32.3238 91.4597L27.1099 91.3503L32.9498 91.0042L32.9345 90.1569L33.1228 90.1518V89.2714L31.708 89.2332L33.8124 89.2103L33.8429 88.3324L30.6367 88.0729L33.7335 87.9431L33.7437 87.0652L26.8275 86.6174L29.0565 86.5818L29.0718 85.7039L27.4866 85.625L31.9676 85.3858L31.9574 84.5054L30.0133 84.4468L31.6775 84.3934L31.68 83.5155L20.7332 83.0728L31.4968 82.5766L31.4917 81.6962L30.8937 81.6758L31.5375 81.6554L31.5324 80.775L23.8427 80.5842L31.5859 80.2966L31.5884 79.4188L31.4052 79.4111L31.4078 78.6121L20.9266 78.0269L31.2805 77.1872L31.2602 76.3093L29.909 76.2584L30.9421 76.1973L30.9268 75.3195H30.8836L30.9014 74.607L22.6951 74.0192L32.4663 73.7596L32.479 72.8792L28.2041 72.6553L32.0948 72.5407L32.1024 71.6603L23.9598 71.3015L32.3365 70.9046L32.334 70.0267L26.4534 69.7901L33.7437 69.3168L33.7335 68.4389L30.6367 68.3066L33.8429 68.047L33.8124 67.1717L31.6546 67.1462L33.1228 67.1056V66.2277L32.9345 66.2226L32.9498 65.3778L27.1099 65.0317L32.3238 64.9197L32.3416 64.0419L26.54 63.7009L31.451 63.4693L31.4459 62.5915L28.9268 62.4897L31.2602 62.4006L31.2805 61.5227L20.9266 60.683L31.4078 60.0952L31.4052 59.2988L31.5884 59.2911L31.5859 58.4107L23.8274 58.1231L31.5324 57.9323L31.5375 57.0544L30.8912 57.0315L31.4917 57.0137L31.4968 56.1333L21.8783 55.6905L32.334 55.2656L32.3365 54.3877L23.9598 53.9908L32.1024 53.632L32.0948 52.7541L28.1863 52.6345L32.479 52.4106L32.4663 51.5327L23.4636 51.2935L31.68 50.9602L31.6775 50.0823L30.0438 50.0339L31.9548 49.9729L31.9676 49.0924L27.4866 48.8558L29.0718 48.7744L29.0642 48.2451H40.4003Z" fill="#0081EF"/>
<path d="M37.7489 22.1479H34.1127V46.9271H37.7489V22.1479Z" fill="#525B66"/>
<path d="M203.661 22.1479H200.024V46.9271H203.661V22.1479Z" fill="#525B66"/>
<path d="M212.142 22.148H23.0081V4.91867C23.0081 2.20106 25.2091 0 27.9267 0H207.223C209.938 0 212.142 2.20106 212.142 4.91867V22.148Z" fill="#FA7500"/>
</svg>
