<svg width="70" height="70" viewBox="0 0 70 70" fill="none" xmlns="http://www.w3.org/2000/svg">
<path d="M40.4688 3.28125H9.84375C7.4275 3.28125 5.46875 5.24 5.46875 7.65625V62.3438C5.46875 64.76 7.4275 66.7188 9.84375 66.7188H40.4688C42.885 66.7188 44.8438 64.76 44.8438 62.3438V7.65625C44.8438 5.24 42.885 3.28125 40.4688 3.28125Z" fill="#57A4FF"/>
<path d="M5.46875 28.4375V62.3438C5.46875 63.5041 5.92969 64.6169 6.75016 65.4373C7.57063 66.2578 8.68343 66.7188 9.84375 66.7188H39.8125C20.1031 62.5734 5.46875 47.0247 5.46875 28.4375Z" fill="#2488FF"/>
<path d="M15.3125 9.84375H35C35.5802 9.84375 36.1366 9.61328 36.5468 9.20305C36.957 8.79281 37.1875 8.23641 37.1875 7.65625V3.28125H13.125V7.65625C13.125 8.23641 13.3555 8.79281 13.7657 9.20305C14.1759 9.61328 14.7323 9.84375 15.3125 9.84375Z" fill="#6D6E71"/>
<path d="M44.8438 54.6875C55.7169 54.6875 64.5312 45.8731 64.5312 35C64.5312 24.1269 55.7169 15.3125 44.8438 15.3125C33.9706 15.3125 25.1562 24.1269 25.1562 35C25.1562 45.8731 33.9706 54.6875 44.8438 54.6875Z" fill="#FFCD00"/>
<path d="M54.6875 31.7188C54.6875 37.1547 44.8438 48.125 44.8438 48.125C44.8438 48.125 35 37.1547 35 31.7188C35 29.108 36.0371 26.6042 37.8832 24.7582C39.7292 22.9121 42.233 21.875 44.8438 21.875C47.4545 21.875 49.9583 22.9121 51.8043 24.7582C53.6504 26.6042 54.6875 29.108 54.6875 31.7188Z" fill="#FF3051"/>
<path d="M44.8438 35C46.6559 35 48.125 33.5309 48.125 31.7188C48.125 29.9066 46.6559 28.4375 44.8438 28.4375C43.0316 28.4375 41.5625 29.9066 41.5625 31.7188C41.5625 33.5309 43.0316 35 44.8438 35Z" fill="#F1F2F2"/>
<path d="M19.6875 33.9062H21.875V36.0938H19.6875V33.9062Z" fill="#FF3051"/>
<path d="M20.2708 40.4536L22.3836 39.8871L22.9501 42L20.8372 42.5665L20.2708 40.4536Z" fill="#FF3051"/>
<path d="M20.2681 29.5496L20.8346 27.4367L22.9474 28.0032L22.3809 30.1161L20.2681 29.5496Z" fill="#FF3051"/>
<path d="M37.1875 61.25H13.125C12.8349 61.25 12.5567 61.3652 12.3516 61.5704C12.1465 61.7755 12.0312 62.0537 12.0312 62.3438C12.0312 62.6338 12.1465 62.912 12.3516 63.1171C12.5567 63.3223 12.8349 63.4375 13.125 63.4375H37.1875C37.4776 63.4375 37.7558 63.3223 37.9609 63.1171C38.166 62.912 38.2812 62.6338 38.2812 62.3438C38.2812 62.0537 38.166 61.7755 37.9609 61.5704C37.7558 61.3652 37.4776 61.25 37.1875 61.25Z" fill="#6D6E71"/>
<path d="M52.5 56.875H50.3125V59.0625H48.125V61.25H50.3125V63.4375H52.5V61.25H54.6875V59.0625H52.5V56.875Z" fill="#FF3051"/>
<path d="M48.125 65.625H54.6875V67.8125H48.125V65.625Z" fill="#FF3051"/>
<path d="M22.5127 46.626L24.4071 45.5323L25.5008 47.4267L23.6064 48.5204L22.5127 46.626Z" fill="#FF3051"/>
<path d="M26.2739 52.0128L27.8207 50.4661L29.3675 52.0128L27.8207 53.5596L26.2739 52.0128Z" fill="#FF3051"/>
<path d="M31.3162 56.245L32.4099 54.3507L34.3043 55.4444L33.2105 57.3388L31.3162 56.245Z" fill="#FF3051"/>
<path d="M22.511 23.3734L23.6047 21.479L25.4991 22.5727L24.4054 24.4671L22.511 23.3734Z" fill="#FF3051"/>
<path d="M26.2764 17.981L27.8232 16.4342L29.37 17.981L27.8232 19.5278L26.2764 17.981Z" fill="#FF3051"/>
<path d="M31.3184 13.7626L33.2127 12.6689L34.3065 14.5633L32.4121 15.657L31.3184 13.7626Z" fill="#FF3051"/>
<path d="M55.7812 13.125C56.0713 13.125 56.3495 13.2402 56.5546 13.4454C56.7598 13.6505 56.875 13.9287 56.875 14.2188C56.875 14.5088 56.9902 14.787 57.1954 14.9921C57.4005 15.1973 57.6787 15.3125 57.9688 15.3125C58.2588 15.3125 58.537 15.1973 58.7421 14.9921C58.9473 14.787 59.0625 14.5088 59.0625 14.2188C59.0625 13.3485 58.7168 12.5139 58.1014 11.8986C57.4861 11.2832 56.6515 10.9375 55.7812 10.9375C55.4912 10.9375 55.213 11.0527 55.0079 11.2579C54.8027 11.463 54.6875 11.7412 54.6875 12.0312C54.6875 12.3213 54.8027 12.5995 55.0079 12.8046C55.213 13.0098 55.4912 13.125 55.7812 13.125Z" fill="#006DF0"/>
<path d="M55.7812 2.1875C55.4912 2.1875 55.213 2.30273 55.0079 2.50785C54.8027 2.71297 54.6875 2.99117 54.6875 3.28125C54.6875 3.57133 54.8027 3.84953 55.0079 4.05465C55.213 4.25977 55.4912 4.375 55.7812 4.375C58.3911 4.37789 60.8932 5.41593 62.7386 7.26136C64.5841 9.1068 65.6221 11.6089 65.625 14.2188C65.625 14.5088 65.7402 14.787 65.9454 14.9921C66.1505 15.1973 66.4287 15.3125 66.7188 15.3125C67.0088 15.3125 67.287 15.1973 67.4921 14.9921C67.6973 14.787 67.8125 14.5088 67.8125 14.2188C67.8087 11.029 66.54 7.97101 64.2845 5.71553C62.029 3.46005 58.971 2.19126 55.7812 2.1875Z" fill="#006DF0"/>
<path d="M55.7812 8.75C57.2311 8.75174 58.6211 9.32846 59.6463 10.3537C60.6715 11.3789 61.2483 12.7689 61.25 14.2188C61.25 14.5088 61.3652 14.787 61.5704 14.9921C61.7755 15.1973 62.0537 15.3125 62.3438 15.3125C62.6338 15.3125 62.912 15.1973 63.1171 14.9921C63.3223 14.787 63.4375 14.5088 63.4375 14.2188C63.4352 12.1889 62.6278 10.2428 61.1925 8.80752C59.7572 7.3722 57.8111 6.56482 55.7812 6.5625C55.4912 6.5625 55.213 6.67773 55.0079 6.88285C54.8027 7.08797 54.6875 7.36617 54.6875 7.65625C54.6875 7.94633 54.8027 8.22453 55.0079 8.42965C55.213 8.63477 55.4912 8.75 55.7812 8.75Z" fill="#006DF0"/>
</svg>
