<svg width="100" height="100" viewBox="0 0 100 100" fill="none" xmlns="http://www.w3.org/2000/svg">
<circle cx="50" cy="50" r="50" fill="#FD7583" fill-opacity="0.5"/>
<path d="M50.125 22.0019C34.6031 22.0019 22 34.605 22 50.1269C22 65.6488 34.6031 78.2519 50.125 78.2519C65.6469 78.2519 78.25 65.6488 78.25 50.1269C78.25 47.2073 77.8029 44.3913 76.9748 41.7428C76.4 39.9046 74.1041 39.4998 72.7422 40.8617C72.2149 41.392 71.496 41.691 70.7482 41.6911C70.3803 41.6911 70.1314 42.0673 70.2633 42.4107C71.1841 44.8073 71.6893 47.4084 71.6893 50.1269C71.6893 62.0245 62.0225 71.6912 50.125 71.6912C38.2275 71.6912 28.5607 62.0245 28.5607 50.1269C28.5607 38.2294 38.2275 28.5625 50.125 28.5625C52.8441 28.5625 55.4458 29.0674 57.843 29.9885C58.1864 30.1205 58.5625 29.8715 58.5625 29.5037C58.5626 28.7559 58.8617 28.037 59.392 27.5097C60.7532 26.1476 60.3482 23.8522 58.5103 23.2775C55.8615 22.4491 53.045 22.0019 50.125 22.0019ZM67.9119 22.0019C67.6719 22.0091 67.4438 22.1079 67.2747 22.2782L60.714 28.8389C60.6264 28.926 60.5569 29.0296 60.5094 29.1437C60.462 29.2578 60.4375 29.38 60.4375 29.5036C60.4375 33.4581 58.8666 37.2507 56.0702 40.047L48.0577 48.0595C46.9229 49.1944 46.9229 51.0647 48.0577 52.1995C49.1926 53.3344 51.0574 53.3289 52.1923 52.1924L60.2017 44.183C62.9988 41.3859 66.7925 39.8145 70.7482 39.8145C70.8717 39.8145 70.994 39.7901 71.1081 39.7427C71.2222 39.6952 71.3257 39.6258 71.4128 39.5382L77.9735 32.9774C78.104 32.8461 78.1928 32.6791 78.2285 32.4974C78.2642 32.3157 78.2453 32.1275 78.1742 31.9566C78.1031 31.7856 77.983 31.6395 77.829 31.5367C77.675 31.4339 77.494 31.379 77.3088 31.3789H74.0623C73.6725 31.3789 73.4773 30.9076 73.7529 30.6319C74.8878 29.4971 74.8932 27.6322 73.7586 26.4973C73.1912 25.9299 72.439 25.6459 71.6877 25.6459C70.9364 25.6459 70.186 25.9301 69.6186 26.4973C69.3436 26.7724 68.8733 26.5776 68.8733 26.1886V22.9341C68.8729 22.8093 68.8475 22.6858 68.7986 22.5709C68.7498 22.456 68.6786 22.3521 68.589 22.2651C68.4995 22.1781 68.3935 22.1099 68.2772 22.0644C68.161 22.019 68.0367 21.9988 67.9119 22.0019ZM50.125 35.1232C41.8518 35.1232 35.1213 41.8538 35.1213 50.1269C35.1213 58.4001 41.8518 65.1233 50.125 65.1233C58.3982 65.1233 65.1213 58.4001 65.1213 50.1269C65.1213 49.5841 65.0917 49.0483 65.0343 48.5209C64.7536 45.9434 61.6556 45.3821 59.8222 47.2155L59.4897 47.548C58.8184 48.2193 58.5607 49.1775 58.5607 50.1269C58.5607 54.7757 54.7738 58.5625 50.125 58.5625C45.4762 58.5625 41.6893 54.7757 41.6893 50.1269C41.6893 45.4781 45.4762 41.6911 50.125 41.6911C51.0743 41.6911 52.0325 41.4334 52.7038 40.7622L53.0376 40.4283C54.8719 38.594 54.312 35.4933 51.7334 35.2109C51.2052 35.1531 50.6687 35.1232 50.125 35.1232Z" fill="#FD7583"/>
</svg>
