<svg width="100" height="100" viewBox="0 0 100 100" fill="none" xmlns="http://www.w3.org/2000/svg">
<g clip-path="url(#clip0_332_192)">
<path d="M52.4829 57.386V37.2885C52.4829 36.3481 51.7932 35.5818 50.9468 35.5818H48.5644C47.718 35.5818 47.0283 36.3481 47.0283 37.2885V57.386H52.4829Z" fill="#CB5BCE"/>
<path d="M70.7899 84.589H78.0939C79.0971 84.589 79.9435 83.6486 79.9435 82.534V73.8959C79.9435 72.7813 79.0971 71.8408 78.0939 71.8408H70.8212C69.8181 71.8408 68.9717 72.7813 68.9717 73.8959V82.534C69.003 83.6486 69.7867 84.4497 70.7899 84.589Z" fill="#CB5BCE"/>
<path d="M46.0878 72.3983H53.3605C54.3637 72.3983 55.2101 71.4579 55.2101 70.3433V61.7052C55.2101 60.5906 54.395 59.6501 53.3605 59.6501H46.0878C45.0847 59.6501 44.2383 60.5906 44.2383 61.7052V70.3433C44.2696 71.4579 45.0533 72.3983 46.0878 72.3983Z" fill="#CB5BCE"/>
<path d="M77.2475 69.5072V37.2536C77.2475 36.3132 76.5579 35.5469 75.7115 35.5469H73.329C72.4826 35.5469 71.793 36.3132 71.793 37.2536V69.542L77.2475 69.5072Z" fill="#CB5BCE"/>
<path d="M71.7305 94.725C71.7305 95.6655 72.4201 96.4317 73.2665 96.4317H75.649C76.4954 96.4317 77.185 95.6655 77.185 94.725V86.8184H71.7305V94.725Z" fill="#CB5BCE"/>
<path d="M46.9653 74.6624V94.7599C46.9653 95.2127 47.1221 95.6307 47.4042 95.979C47.6863 96.3273 48.0939 96.4666 48.5014 96.4666H50.8838C51.2914 96.4666 51.6675 96.2925 51.981 95.979C52.2945 95.6307 52.4199 95.2127 52.4199 94.7599V74.6624H46.9653Z" fill="#CB5BCE"/>
<path d="M19.4421 11.2695C17.6553 11.2695 16.2446 12.8718 16.2446 14.8223C16.2446 16.8077 17.6866 18.3751 19.4421 18.3751C21.1976 18.3751 22.6396 16.7728 22.6396 14.8223C22.6396 12.9066 21.1663 11.2695 19.4421 11.2695Z" fill="#CB5BCE"/>
<path d="M32.6706 11.2695C30.8838 11.2695 29.4731 12.8718 29.4731 14.8223C29.4731 16.8077 30.9152 18.3751 32.6706 18.3751C34.4575 18.3751 35.8681 16.7728 35.8681 14.8223C35.8681 12.8718 34.3948 11.2695 32.6706 11.2695Z" fill="#CB5BCE"/>
<path d="M82.7651 11.2695H57.3419C57.0598 11.2695 56.8403 11.5482 56.8403 11.8268V17.8178C56.8403 18.1313 57.0911 18.3751 57.3419 18.3751H82.7651C83.0472 18.3751 83.2667 18.0964 83.2667 17.8178V11.8268C83.2667 11.5482 82.9845 11.2695 82.7651 11.2695Z" fill="#CB5BCE"/>
<path d="M45.8996 11.2695C44.1128 11.2695 42.7021 12.8718 42.7021 14.8223C42.7021 16.8077 44.1442 18.3751 45.8996 18.3751C47.6551 18.3751 49.0971 16.7728 49.0971 14.8223C49.0971 12.8718 47.6551 11.2695 45.8996 11.2695Z" fill="#CB5BCE"/>
<path d="M85.7743 5H13.674C10.5392 5 8.03137 7.82131 8.03137 11.2696V24.6796H91.4483V11.2696C91.417 7.82131 88.9091 5 85.7743 5ZM19.442 20.7436C16.5267 20.7436 14.1756 18.1313 14.1756 14.892C14.1756 11.6527 16.5267 9.0404 19.442 9.0404C22.3574 9.0404 24.7085 11.6527 24.7085 14.892C24.6771 18.1313 22.326 20.7436 19.442 20.7436ZM32.6709 20.7436C29.7555 20.7436 27.4044 18.1313 27.4044 14.892C27.4044 11.6527 29.7555 9.0404 32.6709 9.0404C35.5862 9.0404 37.9373 11.6527 37.9373 14.892C37.9373 18.1313 35.5549 20.7436 32.6709 20.7436ZM45.8997 20.7436C42.9844 20.7436 40.6333 18.1313 40.6333 14.892C40.6333 11.6527 42.9844 9.0404 45.8997 9.0404C48.8151 9.0404 51.1662 11.6527 51.1662 14.892C51.1662 18.1313 48.7524 20.7436 45.8997 20.7436ZM82.7649 20.7436H57.3417C55.9311 20.7436 54.7712 19.4549 54.7712 17.8875V11.8966C54.7712 10.3292 55.9311 9.0404 57.3417 9.0404H82.7649C84.1756 9.0404 85.3354 10.3292 85.3354 11.8966V17.8875C85.3041 19.4549 84.1756 20.7436 82.7649 20.7436Z" fill="#CB5BCE"/>
<path d="M27.7177 45.1952V37.2885C27.7177 36.3481 27.0281 35.5818 26.1817 35.5818H23.7992C22.9528 35.5818 22.2632 36.3481 22.2632 37.2885V45.1952H27.7177Z" fill="#CB5BCE"/>
<path d="M8 98.7303C8 102.179 10.5392 105 13.6426 105H85.7743C88.9091 105 91.4169 102.179 91.4169 98.7303V26.9783H8V98.7303ZM66.9655 73.8609C66.9655 71.9104 68.1254 70.2733 69.6928 69.716V37.2186C69.6928 35.0242 71.2915 33.213 73.2978 33.213H75.6803C77.6552 33.213 79.2853 34.9894 79.2853 37.2186V69.716C80.884 70.2733 82.0125 71.9104 82.0125 73.8609V82.499C82.0125 84.4495 80.8527 86.0866 79.2853 86.6439V94.7595C79.2853 96.9539 77.6865 98.7651 75.6803 98.7651H73.2978C71.3229 98.7651 69.6928 96.9887 69.6928 94.7595V86.6439C68.0941 86.0866 66.9655 84.4495 66.9655 82.499V73.8609ZM42.232 61.67C42.232 59.7195 43.3918 58.0824 44.9592 57.5251V37.2534C44.9592 35.0591 46.558 33.2479 48.5643 33.2479H50.9467C52.9216 33.2479 54.5517 35.0242 54.5517 37.2534V57.5251C56.1505 58.0824 57.279 59.7195 57.279 61.67V70.3081C57.279 72.2587 56.1191 73.8957 54.5517 74.453V94.7247C54.5517 95.8045 54.1756 96.7797 53.5172 97.546C52.8276 98.3123 51.9185 98.6954 50.9781 98.6954H48.5643C47.5925 98.6954 46.7147 98.2775 46.0251 97.546C45.3354 96.7797 44.9906 95.7696 44.9906 94.7247V74.453C43.3918 73.8957 42.2633 72.2587 42.2633 70.3081L42.232 61.67ZM17.4044 49.4791C17.4044 47.5286 18.5643 45.8915 20.1317 45.3342V37.2186C20.1317 35.0242 21.7304 33.213 23.7367 33.213H26.1191C28.094 33.213 29.7241 34.9894 29.7241 37.2186V45.3342C31.3229 45.8915 32.4514 47.5286 32.4514 49.4791V58.1172C32.4514 60.0678 31.2915 61.7048 29.7241 62.2621V94.7595C29.7241 96.9539 28.1254 98.7651 26.1191 98.7651H23.7367C21.7618 98.7651 20.1317 96.9887 20.1317 94.7595V62.2621C18.5329 61.7048 17.4044 60.0678 17.4044 58.1172V49.4791Z" fill="#CB5BCE"/>
<path d="M22.2633 94.7247C22.2633 95.6651 22.9529 96.4314 23.7993 96.4314H26.1818C27.0282 96.4314 27.7178 95.6651 27.7178 94.7247V62.4363H22.2319V94.7247H22.2633Z" fill="#CB5BCE"/>
<path d="M21.3227 60.2072H28.5954C29.5985 60.2072 30.4449 59.2667 30.4449 58.1521V49.514C30.4449 48.3994 29.5985 47.459 28.5954 47.459H21.3227C20.3195 47.459 19.4731 48.3994 19.4731 49.514V58.1521C19.5045 59.2319 20.2882 60.2072 21.3227 60.2072Z" fill="#CB5BCE"/>
</g>
<defs>
<clipPath id="clip0_332_192">
<rect width="100" height="100" rx="20" fill="white"/>
</clipPath>
</defs>
</svg>
