<svg width="690" height="350" viewBox="0 0 690 350" fill="none" xmlns="http://www.w3.org/2000/svg">
<path d="M619.502 220.498C609.453 200.971 590.151 184.674 566.966 176.656C542.819 168.303 515.09 171.341 489.654 168.545C467.562 166.116 451.625 157.691 438.432 142.713C425.793 128.361 414.459 112.467 393.798 105.827C377.469 100.58 358.905 102.037 342.676 107.501C312.774 117.575 290.186 138.99 271.163 160.327C253.796 179.808 239.631 201.138 207.507 201.833C175.361 202.527 144.759 186.865 112.397 191.015C69.623 196.5 33.996 226.921 26.532 263.133C19.5351 297.073 37.09 329.994 67.2504 349.333H585.651C623.655 314.894 643.6 267.315 619.502 220.498Z" fill="#D7FFF3"/>
<path d="M150.876 349.336H152.302C162.205 340.035 169.965 328.754 174.894 316.23C182.875 295.958 182.541 274.681 173.947 256.322C169.607 247.043 163.335 238.398 157.268 230.034C151.118 221.552 144.759 212.782 140.443 203.386C138.658 199.499 137.34 195.328 136.548 191.071C136.19 191.032 135.831 191 135.477 190.961C136.273 195.371 137.628 199.692 139.475 203.71C143.825 213.181 150.213 221.987 156.388 230.5C162.43 238.829 168.677 247.445 172.984 256.65C181.486 274.813 181.816 295.869 173.91 315.945C168.914 328.626 160.992 340.014 150.876 349.336Z" fill="white"/>
<path d="M583.146 310.712C593.83 312.656 604.121 314.398 614.074 315.495C614.245 315.214 614.412 314.933 614.579 314.651C604.542 313.561 594.151 311.805 583.363 309.839C566.934 306.85 549.154 303.612 531.516 303.612C520.595 303.612 509.733 304.852 499.283 308.161C495.326 309.415 491.506 311.004 487.874 312.899C478.438 309.465 468.952 305.714 459.557 301.596C466.375 297.208 473.267 292.912 480.231 288.758C531.929 257.921 579.64 240.438 625.733 235.476C625.641 235.188 625.545 234.899 625.449 234.611C579.231 239.612 531.42 257.141 479.639 288.028C472.525 292.271 465.491 296.663 458.531 301.144C447.965 296.481 437.524 291.355 427.416 285.698C409.085 275.44 387.286 260.796 368.246 241.336C442.031 234.265 517.151 225.356 578.497 190.33C580.828 189.002 583.409 187.431 586.082 185.653C585.786 185.475 585.486 185.297 585.19 185.119C582.629 186.814 580.157 188.31 577.922 189.589C516.592 224.605 441.331 233.446 367.454 240.517C353.998 226.614 341.976 210.285 333.624 191.381C320.61 161.933 321.298 133.037 335.509 112.096C336.126 111.187 336.777 110.29 337.448 109.406C336.856 109.638 336.268 109.88 335.68 110.122C335.313 110.628 334.954 111.137 334.608 111.65C320.239 132.824 319.526 161.997 332.648 191.694C340.959 210.495 352.872 226.76 366.215 240.634C361.937 241.044 357.659 241.446 353.397 241.849C338.015 243.299 322.103 244.798 306.658 246.497C301.02 247.117 295.287 247.84 289.578 248.749C277.348 226.696 263.913 205.184 246.546 186.732C246.295 186.943 246.045 187.149 245.795 187.359C263.012 205.669 276.364 227.023 288.523 248.92C263.638 252.973 239.474 260.596 226.572 278.336C214.521 294.903 214.534 317.804 226.606 346.4C227.023 347.391 227.452 348.363 227.89 349.332H229.007C228.528 348.274 228.053 347.202 227.59 346.097C215.631 317.768 215.589 295.127 227.46 278.802C240.212 261.273 264.242 253.753 288.99 249.75C293.31 257.551 297.48 265.419 301.625 273.238L302.075 274.09C316.474 301.24 331.364 327.439 350.858 349.335H352.159C332.486 327.4 317.512 301.044 303.022 273.723L302.571 272.871C298.46 265.12 294.324 257.319 290.045 249.582C295.641 248.699 301.266 247.99 306.795 247.384C322.232 245.685 338.136 244.186 353.518 242.736C358.009 242.312 362.513 241.888 367.016 241.457C386.239 261.22 408.318 276.066 426.857 286.443C436.852 292.039 447.177 297.115 457.622 301.739C439.888 313.198 422.642 325.252 405.8 337.021C399.966 341.096 394.07 345.214 388.124 349.332H389.775C395.383 345.446 400.95 341.559 406.458 337.712C423.417 325.861 440.789 313.718 458.648 302.195C467.993 306.302 477.425 310.045 486.811 313.476C473.972 320.45 463.506 331.254 457.18 344.37C456.388 346.012 455.696 347.672 455.058 349.335H456.154C456.759 347.786 457.405 346.24 458.143 344.708C464.486 331.557 475.04 320.764 487.979 313.9C514.215 323.421 539.997 330.488 562.156 336.088L562.99 336.298C572.326 338.656 581.875 341.075 590.323 344.954C590.56 344.723 590.798 344.495 591.032 344.263C582.446 340.284 572.759 337.833 563.286 335.443L562.452 335.233C540.522 329.69 515.032 322.709 489.079 313.33C492.461 311.609 496.001 310.159 499.662 308.998C526.695 300.435 556.689 305.896 583.146 310.712Z" fill="white"/>
<path d="M69.8657 253.023C74.4692 269.124 72.4176 286.511 64.2281 300.727C58.8657 310.038 51.1223 318.47 41.5859 325.708C41.7736 325.961 41.9696 326.21 42.1614 326.46C51.852 319.125 59.7205 310.573 65.1621 301.119C73.4559 286.717 75.5367 269.11 70.8748 252.81C67.2345 240.075 59.9123 229.289 49.7922 221.484C49.567 221.712 49.3418 221.94 49.1208 222.168C59.07 229.852 66.2755 240.477 69.8657 253.023Z" fill="white"/>
<path d="M305.8 49.0772C314.882 57.0029 318.952 70.3608 313.944 82.6715C309.094 94.5938 298.465 104.468 285.697 110.819C275.423 115.927 262.021 118.745 251.918 113.395C244.366 109.398 240.451 101.554 240.234 93.9704C240.017 86.3832 243.003 78.9918 246.693 72.0884C251.897 62.3603 258.898 52.9243 269.331 47.0077C283.708 38.854 297.068 41.4579 305.8 49.0772Z" fill="#D7FFF3"/>
<path d="M252.714 21.4226H204.758V0H252.714V21.4226ZM205.755 20.4254H251.717V0.997204H205.755V20.4254Z" fill="#E9DDCA"/>
<path d="M221.515 41.9096H173.559V20.4844H221.515V41.9096ZM174.556 40.9124H220.518V21.4816H174.556V40.9124Z" fill="#E9DDCA"/>
<path d="M525.571 64.7383C522.465 54.4126 517.003 44.9325 509.185 36.2662C501.351 27.5998 490.666 20.4439 477.131 14.7851C463.596 9.12627 446.398 6.29688 425.54 6.29688C408.898 6.29688 391.94 8.54125 374.664 13.03C357.371 17.5347 342.37 23.9407 329.648 32.2667L346.21 77.7339L337.334 84.9244L350.207 88.7085C362.913 82.0578 374.491 77.2287 384.936 74.2211C395.366 71.2295 406.449 69.7323 418.2 69.7323C429.935 69.7323 438.822 72.5617 444.856 78.2205C450.89 83.8953 453.9 90.7082 453.9 98.7098C453.9 108.368 450.794 116.939 444.617 124.435C438.407 131.931 431.56 139.507 424.058 147.166C418.852 152.484 413.789 157.978 408.898 163.637C404.011 169.312 399.679 175.377 395.937 181.882C392.18 188.37 389.17 195.361 386.893 202.858C384.601 210.354 383.471 218.76 383.471 228.078C383.471 231.085 383.535 234.662 383.71 238.826C383.739 239.595 383.779 240.342 383.825 241.081H371.656L384.936 250.061H449.507C449.172 248.062 449.012 245.735 449.012 243.07C449.012 240.403 449.012 238.403 449.012 237.071C449.012 231.412 450.159 225.836 452.435 220.339C454.711 214.843 457.578 209.607 461.003 204.6C464.425 199.608 468.249 194.859 472.499 190.373C476.735 185.868 480.811 181.624 484.728 177.624C489.935 172.306 495.317 166.65 500.859 160.648C506.401 154.649 511.304 148.339 515.541 141.672C519.777 135.005 523.279 127.77 526.05 119.933C528.821 112.112 530.222 103.542 530.222 94.2077C530.222 84.8872 528.661 75.0641 525.571 64.7383Z" fill="#05A374"/>
<path d="M404.528 66.5624C392.915 66.5624 381.962 68.009 371.654 70.9049C361.331 73.8167 349.891 78.4889 337.332 84.9269L317.016 30.3041C329.588 22.2467 344.413 16.0454 361.504 11.6869C378.579 7.34445 395.337 5.17188 411.782 5.17188C432.396 5.17188 449.394 7.91086 462.77 13.3862C476.145 18.8615 486.705 25.7861 494.449 34.1732C502.176 42.5604 507.572 51.7346 510.641 61.728C513.693 71.7213 515.236 81.2253 515.236 90.2427C515.236 99.276 513.85 107.57 511.114 115.138C508.375 122.722 504.913 129.727 500.727 136.178C496.542 142.629 491.694 148.735 486.219 154.542C480.743 160.35 475.422 165.825 470.277 170.971C466.405 174.843 462.376 178.949 458.19 183.31C453.989 187.652 450.213 192.247 446.828 197.079C443.445 201.927 440.61 206.993 438.361 212.311C436.111 217.629 434.978 223.028 434.978 228.503C434.978 229.793 434.978 231.729 434.978 234.311C434.978 236.893 435.135 239.142 435.465 241.078H371.654C370.992 237.853 370.601 234.234 370.442 230.205C370.269 226.176 370.205 222.714 370.205 219.802C370.205 210.785 371.322 202.65 373.588 195.393C375.837 188.139 378.813 181.371 382.525 175.093C386.224 168.798 390.503 162.93 395.335 157.436C400.166 151.96 405.171 146.639 410.317 141.494C417.728 134.082 424.496 126.748 430.633 119.494C436.739 112.24 439.807 103.946 439.807 94.5984C439.807 86.8548 436.834 80.2626 430.87 74.7714C424.908 69.3014 416.124 66.5624 404.528 66.5624Z" fill="#00B47F"/>
<path d="M453.924 312.737C453.924 324.379 450.156 333.361 442.617 339.698C435.08 346.048 426.56 349.21 417.048 349.21C407.523 349.21 399.006 346.048 391.469 339.698C383.944 333.361 380.176 324.379 380.176 312.737C380.176 301.108 383.944 292.125 391.469 285.775C403.072 275.984 420.237 273.803 433.82 280.674C445.874 286.772 453.924 299.156 453.924 312.737Z" fill="#05A374"/>
<path d="M441.291 312.739C441.291 324.381 437.523 333.364 429.984 339.701C422.448 346.051 413.928 349.213 404.416 349.213C394.89 349.213 386.373 346.051 378.837 339.701C371.311 333.364 367.543 324.381 367.543 312.739C367.543 301.111 371.311 292.128 378.837 285.778C386.373 279.441 394.893 276.266 404.416 276.266C413.928 276.266 422.445 279.441 429.984 285.778C437.523 292.128 441.291 301.111 441.291 312.739Z" fill="#00B47F"/>
<path d="M250.138 147.696C250.846 143.921 248.359 140.287 244.584 139.58C240.809 138.872 237.176 141.359 236.468 145.134C235.761 148.909 238.248 152.542 242.022 153.25C245.797 153.957 249.431 151.47 250.138 147.696Z" fill="#D3DFFF"/>
<path d="M253.462 160.762C253.86 158.639 252.45 156.593 250.312 156.192C248.174 155.791 246.118 157.188 245.721 159.311C245.323 161.435 246.733 163.481 248.871 163.882C251.009 164.282 253.064 162.886 253.462 160.762Z" fill="#D3DFFF"/>
<path d="M245.501 130.766C256.194 120.074 256.194 102.739 245.501 92.0464C234.809 81.3542 217.474 81.3542 206.782 92.0464C196.09 102.739 196.09 120.074 206.782 130.766C217.474 141.458 234.809 141.458 245.501 130.766Z" fill="#D3DFFF"/>
<path d="M215.629 114.859C217.534 114.859 219.078 113.315 219.078 111.41C219.078 109.505 217.534 107.961 215.629 107.961C213.724 107.961 212.18 109.505 212.18 111.41C212.18 113.315 213.724 114.859 215.629 114.859Z" fill="white"/>
<path d="M226.14 114.859C228.045 114.859 229.589 113.315 229.589 111.41C229.589 109.505 228.045 107.961 226.14 107.961C224.236 107.961 222.691 109.505 222.691 111.41C222.691 113.315 224.236 114.859 226.14 114.859Z" fill="white"/>
<path d="M236.656 114.859C238.561 114.859 240.105 113.315 240.105 111.41C240.105 109.505 238.561 107.961 236.656 107.961C234.751 107.961 233.207 109.505 233.207 111.41C233.207 113.315 234.751 114.859 236.656 114.859Z" fill="white"/>
<path d="M206.528 335.501L209.086 345.364C209.753 347.935 212.24 349.674 214.992 349.486C223.379 348.917 240.808 346.861 250.812 339.487L247.969 325.274C234.215 324.497 221.355 325.263 210.216 329.01C207.426 329.951 205.815 332.746 206.528 335.501Z" fill="#102048"/>
<path d="M222.557 343.353C222.41 343.353 222.277 343.257 222.238 343.111L218.802 330.812C218.751 330.634 218.855 330.453 219.033 330.402C219.211 330.355 219.395 330.456 219.443 330.634L222.878 342.933C222.929 343.111 222.825 343.292 222.647 343.342C222.618 343.348 222.586 343.353 222.557 343.353Z" fill="white"/>
<path d="M229.982 341.69C229.836 341.69 229.703 341.594 229.663 341.448L226.228 329.149C226.177 328.971 226.281 328.79 226.459 328.739C226.637 328.689 226.821 328.793 226.869 328.971L230.304 341.27C230.355 341.448 230.251 341.629 230.073 341.679C230.041 341.684 230.012 341.69 229.982 341.69Z" fill="white"/>
<path d="M238.6 282.191L206.637 291.676L230.375 324.203L264.456 326.913L311.463 307.036L293.598 280.156L238.6 282.191Z" fill="#00B47F"/>
<path d="M278.009 286.709C348.207 265.93 359.487 327.969 249.962 339.263C246.093 334.91 241.572 327.358 239.777 321.042L297.615 294.314L278.009 286.709Z" fill="#00B47F"/>
<path d="M280.992 331.174C277.707 330.124 274.562 328.047 274.562 328.047L263.281 331.586L265.866 343.859L277.585 346.239C281.156 339.708 281.364 334.347 280.992 331.174Z" fill="#F9B384"/>
<path d="M240.027 321.471L239.527 320.61C251.595 313.597 282.5 296.751 308.834 291.781L309.021 292.762C282.838 297.701 252.05 314.483 240.027 321.471Z" fill="#05A374"/>
<path d="M238.602 282.189C173.262 269.766 156.339 332.56 265.867 343.854C269.736 339.501 272.767 334.358 274.562 328.042C257.738 316.786 238.926 306.085 218.312 295.892L238.602 282.189Z" fill="#00B47F"/>
<path d="M274.294 328.466C271.185 326.487 267.946 324.397 264.519 322.182C247.305 311.069 227.798 298.472 211.223 291.29L211.619 290.375C228.268 297.589 247.813 310.21 265.058 321.344C268.486 323.557 271.722 325.647 274.828 327.625L274.294 328.466Z" fill="#05A374"/>
<path d="M190.665 313.327L189.793 312.846C192.245 308.405 196.175 305.411 201.47 303.945L201.735 304.905C196.635 306.317 193.016 309.072 190.665 313.327Z" fill="#05A374"/>
<path d="M327.035 309.546C324.684 305.291 321.063 302.536 315.965 301.124L316.231 300.164C321.525 301.629 325.456 304.626 327.907 309.064L327.035 309.546Z" fill="#05A374"/>
<path d="M259.748 343.302L259.02 342.621C264.248 337.024 267.457 331.115 268.835 324.555L269.811 324.759C268.393 331.503 265.104 337.569 259.748 343.302Z" fill="#05A374"/>
<path d="M313.578 327.52C305.207 322.348 288.978 331.285 284.904 331.737C283.715 331.87 282.343 331.61 280.992 331.176C281.365 334.349 281.157 339.71 277.586 346.241L279.578 346.645C279.578 346.645 293.339 351.689 307.938 348.754C321.412 346.041 320.16 331.583 313.578 327.52Z" fill="#102048"/>
<path d="M302.169 344.437C302.135 344.437 302.103 344.432 302.068 344.422C301.893 344.366 301.797 344.18 301.85 344.004C302.845 340.856 303.278 334.66 300.398 330.498C300.295 330.346 300.332 330.139 300.484 330.035C300.635 329.931 300.843 329.969 300.946 330.12C303.962 334.479 303.52 340.93 302.486 344.203C302.441 344.347 302.31 344.437 302.169 344.437Z" fill="white"/>
<path d="M295.603 345.68C295.569 345.68 295.537 345.674 295.502 345.664C295.327 345.608 295.231 345.422 295.284 345.246C296.279 342.098 296.712 335.902 293.832 331.74C293.728 331.589 293.766 331.381 293.917 331.277C294.069 331.174 294.276 331.211 294.38 331.362C297.395 335.721 296.954 342.172 295.92 345.446C295.874 345.589 295.744 345.68 295.603 345.68Z" fill="white"/>
<path d="M227.044 201.224C227.044 201.224 243.499 187.231 242.89 184.572C242.454 182.671 237.793 185.458 237.793 185.458C237.793 185.458 244.329 177.701 243.997 176.759C243.404 175.076 238.88 178.214 238.88 178.214C238.88 178.214 241.936 173.816 240.476 173.098C239.016 172.38 235.83 175.092 235.83 175.092C235.83 175.092 237.692 172.651 236.817 172.01C235.942 171.369 232.171 174.004 232.171 174.004C232.171 174.004 233.525 170.925 230.65 172.092C227.775 173.26 207.613 191.763 207.613 191.763L227.044 201.224Z" fill="#F9B384"/>
<path d="M233.777 184.623C233.697 184.623 233.617 184.594 233.553 184.536C230.729 181.954 229.482 181.329 226.368 180.369C226.192 180.316 226.094 180.129 226.147 179.954C226.2 179.778 226.387 179.68 226.562 179.733C229.79 180.725 231.08 181.374 234.003 184.044C234.138 184.169 234.149 184.379 234.024 184.514C233.957 184.589 233.867 184.623 233.777 184.623Z" fill="#E28B6D"/>
<path d="M228.821 192.222C228.805 192.222 228.789 192.222 228.776 192.219C228.595 192.192 228.467 192.025 228.491 191.844C228.816 189.53 229.544 188.084 230.717 187.424C231.722 186.858 233.028 186.916 234.602 187.597C234.77 187.669 234.849 187.866 234.775 188.033C234.703 188.201 234.506 188.281 234.339 188.206C232.967 187.613 231.858 187.544 231.044 188.004C230.076 188.549 229.438 189.871 229.151 191.937C229.127 192.099 228.983 192.222 228.821 192.222Z" fill="#E28B6D"/>
<path d="M228.043 178.228C227.955 178.228 227.868 178.193 227.801 178.124C227.676 177.991 227.681 177.781 227.814 177.654L231.944 173.763C232.077 173.635 232.287 173.643 232.415 173.776C232.54 173.909 232.535 174.119 232.402 174.247L228.272 178.138C228.205 178.199 228.126 178.228 228.043 178.228Z" fill="#E28B6D"/>
<path d="M231.865 179.557C231.782 179.557 231.7 179.525 231.633 179.464C231.5 179.336 231.498 179.126 231.623 178.993L235.59 174.861C235.718 174.728 235.928 174.723 236.061 174.85C236.194 174.978 236.197 175.188 236.072 175.321L232.104 179.453C232.04 179.523 231.952 179.557 231.865 179.557Z" fill="#E28B6D"/>
<path d="M235.772 181.886C235.69 181.886 235.61 181.857 235.546 181.796C235.413 181.671 235.405 181.461 235.53 181.325L238.642 177.988C238.767 177.855 238.977 177.847 239.112 177.972C239.245 178.097 239.253 178.307 239.128 178.442L236.017 181.78C235.951 181.852 235.863 181.886 235.772 181.886Z" fill="#E28B6D"/>
<path d="M289.207 294.814L229.043 297.141L222.395 242.295C222.395 242.295 242.535 223.191 250.284 216.155L263.368 215.484C303.955 233.934 297.31 256.976 289.207 294.814Z" fill="#3A6BEA"/>
<path d="M263.367 215.484C263.367 215.484 309.802 219.455 324.441 251.269C338.766 282.401 279.899 293.484 279.899 293.484L263.367 215.484Z" fill="#3A6BEA"/>
<path d="M210.286 222.302L229.475 198.952L211.53 188.078C204.044 193.282 189.57 205.07 177.303 218.42C174.596 221.366 172.48 224.807 171.416 228.596C170.507 231.83 170.342 235.024 170.852 238.151C172.184 246.304 178.596 252.593 187.156 253.596C194.466 254.452 222.39 252.266 244.994 245.618L251.642 219.959C248.227 218.021 222.837 217.686 210.286 222.302Z" fill="#3A6BEA"/>
<g opacity="0.8">
<path opacity="0.8" d="M302.118 228.114C302.219 228.09 302.317 228.069 302.418 228.045C302.208 227.92 301.998 227.8 301.788 227.678C298.384 228.462 294.874 229.263 291.412 229.68C289.332 229.93 282.381 230.39 280.352 225.761C279.342 223.458 280.108 220.894 281.248 219.097C281.081 219.049 280.916 219.001 280.751 218.953C279.581 220.857 278.828 223.53 279.895 225.96C282.062 230.906 289.306 230.438 291.473 230.175C295.034 229.744 298.637 228.917 302.118 228.114Z" fill="white"/>
<path opacity="0.8" d="M323.787 263.998C321.569 263.141 319.277 262.253 316.868 262.482C312.642 262.881 309.026 267.061 308.805 271.797C308.656 275.028 309.89 278.413 312.241 281.389C312.382 281.301 312.523 281.211 312.664 281.12C310.363 278.227 309.156 274.943 309.302 271.818C309.51 267.319 312.924 263.351 316.913 262.976C319.203 262.764 321.343 263.585 323.606 264.46C324.415 264.771 325.236 265.088 326.071 265.354C326.114 265.194 326.156 265.032 326.194 264.87C325.38 264.612 324.577 264.303 323.787 263.998Z" fill="white"/>
<path opacity="0.8" d="M206.584 248.139C203.685 245.741 199.18 245.1 194.226 246.381C189.812 247.522 186.025 249.785 183.422 252.777C183.592 252.833 183.76 252.894 183.932 252.944C186.464 250.104 190.11 247.958 194.349 246.863C199.143 245.621 203.488 246.227 206.262 248.522C207.581 249.612 208.514 251.03 209.192 252.556C209.362 252.538 209.535 252.516 209.708 252.498C209.001 250.854 208.012 249.32 206.584 248.139Z" fill="white"/>
<path opacity="0.8" d="M180.375 215.161C185.808 213.81 191.108 211.914 195.998 209.098C197.846 208.034 199.931 206.678 201.399 204.686C202.96 202.567 203.478 200.043 202.787 197.937C202.516 197.11 202.034 196.384 201.433 195.805C201.306 195.908 201.178 196.015 201.05 196.118C201.611 196.653 202.061 197.326 202.313 198.094C202.954 200.049 202.465 202.402 201 204.391C199.588 206.309 197.553 207.63 195.751 208.667C191.139 211.324 186.151 213.161 181.027 214.488C180.808 214.712 180.593 214.938 180.375 215.161Z" fill="white"/>
</g>
<path d="M267.614 203.296L267.606 204.147L267.471 217.371L267.455 218.805C267.428 221.046 266.511 223.078 265.027 224.554C263.551 226.019 261.52 226.939 259.27 226.955C254.736 226.982 251.026 223.338 250.984 218.797L250.824 202.453L267.614 203.296Z" fill="#F9B384"/>
<path d="M267.61 204.148L267.474 217.373C260.124 214.381 257.098 206.425 257.098 206.425L267.61 204.148Z" fill="#102048"/>
<path d="M270.513 181.073C273.146 184.235 280.839 202.145 273.042 208.256C264.269 215.133 250.917 203.831 250.917 203.831L249.125 182.969L260.714 179.914L270.513 181.073Z" fill="#F9B384"/>
<path d="M243.223 179.922C243.223 179.922 217.516 193.33 238.476 231.976C241.167 236.941 247.132 239.105 252.232 236.685C257.705 234.087 259.777 227.402 256.804 222.124C253.376 216.034 250.065 208.189 251.48 202.355L243.223 179.922Z" fill="#102048"/>
<path d="M250.568 191.183C253.283 188.467 253.283 184.064 250.568 181.349C247.852 178.633 243.449 178.633 240.733 181.349C238.018 184.064 238.018 188.467 240.733 191.183C243.449 193.898 247.852 193.898 250.568 191.183Z" fill="#00B47F"/>
<path d="M254.204 194.621C253.452 190.284 252.994 187.308 257.379 185.072C257.379 185.072 272.832 187.882 275.781 182.051C278.73 176.222 274.236 167.021 264.825 173.411C240.733 168.704 237.502 191.252 244.807 198.767L252.016 197.66C253.468 197.44 254.454 196.068 254.204 194.621Z" fill="#102048"/>
<path d="M266.171 195.662C266.738 195.662 267.197 195.203 267.197 194.636C267.197 194.069 266.738 193.609 266.171 193.609C265.604 193.609 265.145 194.069 265.145 194.636C265.145 195.203 265.604 195.662 266.171 195.662Z" fill="#102048"/>
<path d="M273.124 192.24C273.691 192.24 274.151 191.781 274.151 191.214C274.151 190.647 273.691 190.188 273.124 190.188C272.557 190.188 272.098 190.647 272.098 191.214C272.098 191.781 272.557 192.24 273.124 192.24Z" fill="#102048"/>
<path d="M272.41 197.8C272.338 197.8 272.266 197.773 272.21 197.72C272.093 197.608 272.088 197.425 272.2 197.308C272.612 196.874 273.064 196.265 272.872 195.821C272.676 195.361 271.843 195.164 271.46 195.164C270.641 195.164 270.248 193.707 270.176 193.415C270.139 193.258 270.234 193.101 270.391 193.064C270.548 193.024 270.705 193.122 270.742 193.279C270.891 193.896 271.232 194.585 271.46 194.585C271.854 194.585 273.053 194.771 273.407 195.595C273.66 196.183 273.396 196.896 272.62 197.712C272.564 197.768 272.487 197.8 272.41 197.8Z" fill="#102048"/>
<path d="M272.464 201.691C272.409 201.691 272.353 201.675 272.302 201.641C270.369 200.335 268.414 201.431 268.396 201.441C268.258 201.521 268.079 201.473 268 201.335C267.92 201.197 267.968 201.018 268.106 200.939C268.199 200.885 270.395 199.654 272.629 201.159C272.762 201.25 272.797 201.431 272.706 201.564C272.65 201.649 272.557 201.691 272.464 201.691Z" fill="#102048"/>
<path d="M265.72 190.186C266.305 191.287 265.286 191.507 264.092 192.14C262.898 192.773 261.678 193.007 261.399 192.481C261.119 191.957 261.861 191.018 263.055 190.382C264.249 189.747 265.268 189.332 265.72 190.186Z" fill="#102048"/>
<path d="M270.069 188.201C270.326 189.182 271.058 188.754 272.121 188.475C273.185 188.196 274.047 187.661 273.924 187.193C273.802 186.725 272.839 186.571 271.773 186.85C270.709 187.127 269.869 187.44 270.069 188.201Z" fill="#102048"/>
<path opacity="0.4" d="M263.49 201.649C264.719 200.515 264.797 198.599 263.663 197.369C262.529 196.14 260.612 196.062 259.383 197.196C258.153 198.331 258.076 200.247 259.21 201.476C260.344 202.706 262.26 202.784 263.49 201.649Z" fill="#EB5D60"/>
<path d="M253.614 202.275C254.999 200.481 254.469 197.752 252.43 196.179C250.392 194.606 247.618 194.786 246.233 196.58C244.849 198.374 245.379 201.103 247.417 202.676C249.455 204.249 252.23 204.069 253.614 202.275Z" fill="#F9B384"/>
<path d="M251.727 200.956C251.568 200.956 251.437 200.826 251.437 200.666C251.437 199.807 251.02 199.015 250.318 198.541C249.72 198.137 249.004 198.044 248.406 198.286C248.257 198.345 248.087 198.275 248.026 198.127C247.965 197.978 248.036 197.807 248.185 197.746C248.962 197.43 249.879 197.544 250.64 198.057C251.501 198.637 252.017 199.61 252.017 200.663C252.02 200.826 251.89 200.956 251.727 200.956Z" fill="#102048"/>
<path d="M210.038 222.077L199.543 233.43L200.031 233.881L210.526 222.528L210.038 222.077Z" fill="#102048"/>
<path d="M283.983 270.874L283.789 270.238C291.429 267.909 298.846 265.125 305.565 256.719L306.084 257.134C299.247 265.688 291.729 268.515 283.983 270.874Z" fill="#102048"/>
<path d="M288.628 245.125H223.632C221.294 245.125 219.398 247.175 219.398 249.704V296.11C219.398 298.639 221.294 300.689 223.632 300.689H288.628C290.966 300.689 292.862 298.639 292.862 296.11V249.704C292.862 247.175 290.966 245.125 288.628 245.125Z" fill="#D3DFFF"/>
<path d="M259.562 269.97C259.809 269.97 260.008 270.186 260.008 270.454V275.352C260.008 275.618 259.809 275.836 259.562 275.836H252.698C252.451 275.836 252.251 275.621 252.251 275.352V270.454C252.251 270.188 252.451 269.97 252.698 269.97H259.562ZM259.562 268.641H252.698C251.72 268.641 250.922 269.454 250.922 270.454V275.352C250.922 276.352 251.72 277.166 252.698 277.166H259.562C260.54 277.166 261.338 276.352 261.338 275.352V270.454C261.338 269.454 260.54 268.641 259.562 268.641Z" fill="#1F3C88"/>
<path d="M540.883 348.672H149V350.001H540.883V348.672Z" fill="#102048"/>
</svg>
