<svg width="690" height="350" viewBox="0 0 690 350" fill="none" xmlns="http://www.w3.org/2000/svg">
<path opacity="0.6" d="M476.893 225.83C476.637 222.769 476.418 219.961 476.171 217.163C476.095 216.255 476.304 215.759 477.121 215.487C479.877 214.551 482.634 213.625 485.399 212.726C486.188 212.473 486.711 212.698 487.195 213.391C488.868 215.777 490.56 218.155 492.213 220.551C492.707 221.262 493.287 221.618 494.19 221.515C494.931 221.44 495.682 221.421 496.423 221.459C497.079 221.487 497.478 221.178 497.763 220.663C499.122 218.174 500.491 215.684 501.831 213.175C502.496 211.931 502.848 211.715 504.283 212.024C505.727 212.333 507.162 212.698 508.597 213.035C509.861 213.335 511.125 213.625 512.38 213.934C513.216 214.14 513.53 214.523 513.568 215.384C513.672 218.333 513.777 221.281 513.862 224.229C513.881 224.931 514.147 225.465 514.775 225.811C515.478 226.214 516.181 226.616 516.884 227C517.369 227.262 517.854 227.243 518.338 226.981C520.885 225.587 523.442 224.192 525.989 222.788C527.224 222.105 527.604 222.142 528.593 223.144C530.493 225.053 532.394 226.972 534.295 228.891C535.055 229.658 535.122 230.173 534.571 231.071C533.069 233.561 531.577 236.06 530.056 238.55C529.686 239.149 529.686 239.701 530.009 240.291C530.408 241.012 530.76 241.77 531.254 242.425C531.529 242.781 532.043 243.146 532.47 243.183C535.426 243.426 538.391 243.595 541.356 243.763C542.63 243.838 543.019 244.156 543.285 245.383C543.798 247.788 544.331 250.194 544.853 252.599C544.91 252.842 544.958 253.095 544.977 253.338C545.062 254.499 544.967 254.677 543.894 255.201C541.413 256.427 538.933 257.672 536.443 258.88C535.635 259.273 535.188 259.825 535.188 260.742C535.188 261.491 535.131 262.249 535.046 262.998C534.951 263.793 535.274 264.364 535.901 264.823C538.286 266.555 540.672 268.295 543.057 270.027C543.875 270.617 544.036 271.094 543.694 272.039C542.763 274.585 541.812 277.131 540.881 279.677C540.624 280.379 540.159 280.716 539.398 280.632C537.251 280.416 535.103 280.211 532.964 279.995C532.043 279.902 531.121 279.714 530.199 279.733C529.752 279.743 529.182 280.005 528.897 280.332C528.127 281.212 527.49 282.195 526.768 283.121C526.321 283.692 526.293 284.273 526.54 284.919C527.604 287.661 528.669 290.413 529.733 293.155C530.094 294.082 529.952 294.569 529.153 295.168C527.12 296.684 525.095 298.21 523.062 299.726C522.121 300.428 521.608 300.4 520.714 299.679C518.5 297.91 516.276 296.141 514.062 294.372C513.539 293.951 512.978 293.792 512.323 294.054C511.097 294.531 509.871 295.018 508.616 295.439C507.808 295.71 507.447 296.281 507.286 297.04C506.678 299.922 506.06 302.796 505.461 305.679C505.319 306.353 504.891 306.755 504.235 306.802C501.508 306.989 498.771 307.12 496.043 307.289C495.292 307.335 494.903 306.98 494.675 306.296C493.772 303.573 492.821 300.858 491.928 298.125C491.671 297.348 491.215 296.918 490.388 296.759C489.029 296.497 487.68 296.16 486.33 295.86C485.599 295.692 484.99 295.851 484.449 296.403C482.424 298.462 480.391 300.493 478.347 302.534C477.587 303.292 477.055 303.329 476.124 302.815C474.071 301.663 472.009 300.521 469.937 299.398C468.844 298.799 468.625 298.35 468.939 297.171C469.661 294.438 470.364 291.704 471.096 288.981C471.286 288.269 471.125 287.698 470.612 287.174C469.585 286.145 468.568 285.106 467.57 284.048C467.048 283.496 466.468 283.374 465.746 283.533C462.885 284.179 460.015 284.806 457.145 285.433C456.29 285.621 455.795 285.415 455.415 284.685C454.265 282.494 453.125 280.304 451.985 278.105C451.443 277.066 451.519 276.626 452.403 275.811C454.503 273.865 456.594 271.927 458.732 270.018C459.321 269.494 459.502 268.895 459.378 268.183C459.141 266.863 458.846 265.553 458.618 264.224C458.494 263.494 458.076 263.11 457.411 262.867C454.56 261.847 451.718 260.817 448.867 259.806C448.364 259.628 448.107 259.404 448.164 258.833C448.44 255.997 448.668 253.161 448.943 250.325C449.01 249.641 449.495 249.23 450.179 249.108C453.068 248.593 455.957 248.078 458.846 247.601C459.787 247.442 460.405 247.011 460.737 246.122C461.117 245.121 461.526 244.128 461.982 243.155C462.296 242.481 462.163 241.929 461.735 241.377C459.949 239.074 458.171 236.762 456.394 234.45C455.881 233.776 455.862 233.234 456.385 232.588C458.067 230.519 459.749 228.451 461.441 226.382C462.172 225.493 462.6 225.399 463.674 225.839C466.325 226.916 468.986 227.973 471.628 229.078C472.474 229.433 473.196 229.452 473.938 228.834C474.517 228.348 475.154 227.917 475.819 227.543C476.637 227.094 477.026 226.476 476.893 225.83ZM468.473 259.544C468.388 274.632 480.828 287.38 496.67 287.38C512.456 287.38 524.953 274.698 524.867 259.394C524.782 244.334 512.465 231.755 496.689 231.736C480.723 231.727 468.388 244.568 468.473 259.544Z" stroke="#CFE4E9" stroke-width="2" stroke-miterlimit="10"/>
<path opacity="0.6" d="M322.6 20.9315C322.344 17.8708 322.125 15.0629 321.878 12.2643C321.802 11.3564 322.011 10.8603 322.828 10.5889C325.585 9.6529 328.341 8.72628 331.106 7.82773C331.895 7.57502 332.418 7.79965 332.902 8.49228C334.575 10.879 336.267 13.2564 337.92 15.6526C338.414 16.3639 338.994 16.7196 339.897 16.6166C340.638 16.5417 341.389 16.523 342.13 16.5605C342.786 16.5885 343.185 16.2797 343.47 15.7649C344.829 13.2752 346.198 10.7854 347.538 8.27701C348.203 7.03215 348.555 6.81687 349.99 7.12575C351.434 7.43462 352.869 7.79965 354.304 8.13661C355.568 8.43612 356.832 8.72628 358.087 9.03515C358.923 9.24107 359.237 9.62482 359.275 10.4859C359.379 13.4343 359.484 16.3826 359.569 19.331C359.588 20.033 359.854 20.5665 360.482 20.9128C361.185 21.3153 361.888 21.7177 362.591 22.1015C363.076 22.3636 363.561 22.3448 364.045 22.0828C366.592 20.6881 369.149 19.2935 371.696 17.8896C372.931 17.2063 373.311 17.2437 374.3 18.2452C376.201 20.1546 378.101 22.0734 380.002 23.9922C380.762 24.7597 380.829 25.2745 380.278 26.173C378.776 28.6627 377.284 31.1618 375.763 33.6515C375.393 34.2505 375.393 34.8028 375.716 35.3924C376.115 36.1131 376.467 36.8713 376.961 37.5265C377.236 37.8822 377.75 38.2472 378.177 38.2846C381.133 38.528 384.098 38.6965 387.063 38.8649C388.337 38.9398 388.726 39.2581 388.992 40.4842C389.506 42.8897 390.038 45.2951 390.56 47.7006C390.617 47.944 390.665 48.1967 390.684 48.44C390.769 49.6007 390.674 49.7785 389.601 50.3027C387.12 51.5288 384.64 52.7736 382.15 53.9811C381.342 54.3742 380.895 54.9264 380.895 55.8437C380.895 56.5925 380.838 57.3506 380.753 58.0994C380.658 58.895 380.981 59.4659 381.608 59.9246C383.993 61.6561 386.379 63.3971 388.764 65.1286C389.582 65.7183 389.743 66.1957 389.401 67.141C388.47 69.6869 387.519 72.2327 386.588 74.7786C386.331 75.4806 385.866 75.8176 385.105 75.7333C382.958 75.518 380.81 75.3121 378.671 75.0968C377.75 75.0032 376.828 74.8161 375.906 74.8348C375.459 74.8441 374.889 75.1062 374.604 75.4338C373.834 76.3136 373.197 77.2964 372.475 78.223C372.028 78.794 372 79.3743 372.247 80.0201C373.311 82.7626 374.376 85.5143 375.44 88.2568C375.801 89.1834 375.659 89.6701 374.861 90.2691C372.827 91.7854 370.802 93.3111 368.769 94.8274C367.828 95.5294 367.315 95.5013 366.421 94.7806C364.207 93.0116 361.983 91.2426 359.769 89.4736C359.246 89.0524 358.685 88.8932 358.03 89.1553C356.804 89.6327 355.578 90.1194 354.323 90.5406C353.516 90.812 353.154 91.383 352.993 92.1411C352.385 95.0239 351.767 97.8974 351.168 100.78C351.026 101.454 350.598 101.857 349.942 101.903C347.215 102.091 344.478 102.222 341.75 102.39C340.999 102.437 340.61 102.081 340.382 101.398C339.479 98.6743 338.528 95.9599 337.635 93.2269C337.378 92.45 336.922 92.0194 336.095 91.8603C334.736 91.5982 333.387 91.2613 332.037 90.9618C331.306 90.7933 330.697 90.9524 330.156 91.5046C328.131 93.5638 326.098 95.5949 324.054 97.6353C323.294 98.3935 322.762 98.4309 321.831 97.9161C319.778 96.7649 317.716 95.623 315.644 94.4998C314.551 93.9008 314.332 93.4515 314.646 92.2721C315.368 89.5391 316.071 86.806 316.803 84.0823C316.993 83.3709 316.832 82.8 316.319 82.2758C315.292 81.2463 314.275 80.2073 313.277 79.1497C312.755 78.5974 312.175 78.4757 311.453 78.6349C308.592 79.2807 305.722 79.9078 302.852 80.5349C301.997 80.7221 301.502 80.5162 301.122 79.7861C299.972 77.5959 298.832 75.4057 297.692 73.2062C297.15 72.1672 297.226 71.7273 298.11 70.913C300.21 68.9662 302.301 67.0287 304.439 65.1193C305.028 64.5951 305.209 63.9961 305.085 63.2847C304.848 61.965 304.553 60.6546 304.325 59.3255C304.201 58.5955 303.783 58.2117 303.118 57.9684C300.267 56.9481 297.425 55.9186 294.574 54.9077C294.071 54.7299 293.814 54.5052 293.871 53.9343C294.147 51.0982 294.375 48.2622 294.65 45.4262C294.717 44.7429 295.202 44.3311 295.886 44.2094C298.775 43.6946 301.664 43.1798 304.553 42.7025C305.494 42.5434 306.112 42.1128 306.444 41.2236C306.824 40.2221 307.233 39.23 307.689 38.2565C308.003 37.5826 307.87 37.0304 307.442 36.4782C305.656 34.1757 303.878 31.8638 302.101 29.5519C301.588 28.878 301.569 28.3351 302.092 27.6893C303.774 25.6208 305.456 23.5523 307.148 21.4837C307.879 20.5945 308.307 20.5009 309.381 20.9409C312.032 22.0172 314.693 23.0749 317.335 24.1794C318.181 24.535 318.904 24.5538 319.645 23.936C320.225 23.4493 320.861 23.0187 321.517 22.6443C322.344 22.1951 322.733 21.5773 322.6 20.9315ZM314.18 54.6456C314.095 69.7337 326.535 82.4818 342.377 82.4818C358.163 82.4818 370.66 69.7992 370.574 54.4959C370.489 39.4359 358.172 26.8563 342.396 26.8376C326.43 26.8282 314.104 39.6699 314.18 54.6456Z" stroke="#CFE4E9" stroke-width="2" stroke-miterlimit="10"/>
<path opacity="0.6" d="M139.737 107.353C139.481 104.293 139.262 101.485 139.015 98.6862C138.939 97.7783 139.148 97.2822 139.965 97.0108C142.721 96.0748 145.477 95.1482 148.243 94.2496C149.032 93.9969 149.554 94.2215 150.039 94.9142C151.712 97.3009 153.403 99.6783 155.057 102.074C155.551 102.786 156.131 103.141 157.034 103.038C157.775 102.964 158.526 102.945 159.267 102.982C159.923 103.01 160.322 102.702 160.607 102.187C161.966 99.697 163.334 97.2073 164.674 94.6989C165.34 93.454 165.691 93.2387 167.126 93.5476C168.571 93.8565 170.006 94.2215 171.441 94.5585C172.705 94.858 173.969 95.1482 175.223 95.457C176.06 95.6629 176.373 96.0467 176.411 96.9078C176.516 99.8561 176.62 102.804 176.706 105.753C176.725 106.455 176.991 106.988 177.618 107.335C178.322 107.737 179.025 108.14 179.728 108.523C180.213 108.785 180.697 108.767 181.182 108.505C183.729 107.11 186.286 105.715 188.833 104.311C190.068 103.628 190.448 103.666 191.437 104.667C193.337 106.577 195.238 108.495 197.139 110.414C197.899 111.182 197.965 111.696 197.414 112.595C195.913 115.085 194.421 117.584 192.9 120.073C192.529 120.672 192.529 121.225 192.853 121.814C193.252 122.535 193.603 123.293 194.098 123.948C194.373 124.304 194.886 124.669 195.314 124.706C198.27 124.95 201.235 125.118 204.2 125.287C205.473 125.362 205.863 125.68 206.129 126.906C206.642 129.312 207.174 131.717 207.697 134.122C207.754 134.366 207.802 134.619 207.821 134.862C207.906 136.023 207.811 136.2 206.737 136.725C204.257 137.951 201.776 139.196 199.286 140.403C198.479 140.796 198.032 141.348 198.032 142.266C198.032 143.014 197.975 143.772 197.889 144.521C197.794 145.317 198.118 145.888 198.745 146.346C201.13 148.078 203.516 149.819 205.901 151.55C206.718 152.14 206.88 152.618 206.538 153.563C205.606 156.109 204.656 158.655 203.725 161.2C203.468 161.902 203.002 162.239 202.242 162.155C200.094 161.94 197.946 161.734 195.808 161.519C194.886 161.425 193.964 161.238 193.043 161.257C192.596 161.266 192.026 161.528 191.741 161.856C190.971 162.736 190.334 163.718 189.612 164.645C189.165 165.216 189.137 165.796 189.384 166.442C190.448 169.184 191.513 171.936 192.577 174.679C192.938 175.605 192.796 176.092 191.997 176.691C189.963 178.207 187.939 179.733 185.905 181.249C184.965 181.951 184.451 181.923 183.558 181.202C181.344 179.433 179.12 177.664 176.906 175.895C176.383 175.474 175.822 175.315 175.166 175.577C173.94 176.055 172.715 176.541 171.46 176.962C170.652 177.234 170.291 177.805 170.13 178.563C169.521 181.446 168.904 184.319 168.305 187.202C168.162 187.876 167.735 188.278 167.079 188.325C164.351 188.512 161.614 188.644 158.887 188.812C158.136 188.859 157.746 188.503 157.518 187.82C156.615 185.096 155.665 182.382 154.772 179.649C154.515 178.872 154.059 178.441 153.232 178.282C151.873 178.02 150.524 177.683 149.174 177.384C148.442 177.215 147.834 177.374 147.292 177.927C145.268 179.986 143.234 182.017 141.191 184.057C140.431 184.815 139.899 184.853 138.967 184.338C136.915 183.187 134.852 182.045 132.781 180.922C131.688 180.323 131.469 179.873 131.783 178.694C132.505 175.961 133.208 173.228 133.94 170.504C134.13 169.793 133.968 169.222 133.455 168.698C132.429 167.668 131.412 166.629 130.414 165.572C129.891 165.019 129.312 164.898 128.589 165.057C125.729 165.703 122.859 166.33 119.989 166.957C119.133 167.144 118.639 166.938 118.259 166.208C117.109 164.018 115.969 161.828 114.828 159.628C114.287 158.589 114.363 158.149 115.246 157.335C117.347 155.388 119.437 153.451 121.576 151.541C122.165 151.017 122.346 150.418 122.222 149.707C121.984 148.387 121.69 147.077 121.462 145.747C121.338 145.017 120.92 144.634 120.255 144.39C117.404 143.37 114.562 142.34 111.711 141.33C111.207 141.152 110.951 140.927 111.008 140.356C111.283 137.52 111.512 134.684 111.787 131.848C111.854 131.165 112.338 130.753 113.023 130.631C115.912 130.116 118.801 129.602 121.69 129.124C122.631 128.965 123.248 128.535 123.581 127.645C123.961 126.644 124.37 125.652 124.826 124.678C125.14 124.005 125.007 123.452 124.579 122.9C122.792 120.598 121.015 118.286 119.238 115.974C118.725 115.3 118.706 114.757 119.228 114.111C120.911 112.043 122.593 109.974 124.284 107.906C125.016 107.016 125.444 106.923 126.518 107.363C129.169 108.439 131.83 109.497 134.472 110.601C135.318 110.957 136.04 110.976 136.782 110.358C137.361 109.871 137.998 109.441 138.654 109.066C139.481 108.617 139.87 107.999 139.737 107.353ZM131.317 141.067C131.231 156.156 143.672 168.904 159.514 168.904C175.299 168.904 187.797 156.221 187.711 140.918C187.626 125.858 175.309 113.278 159.533 113.259C143.567 113.25 131.241 126.092 131.317 141.067Z" stroke="#CFE4E9" stroke-width="2" stroke-miterlimit="10"/>
<path opacity="0.6" d="M469.877 172.579C469.772 171.296 469.677 170.117 469.573 168.947C469.544 168.563 469.63 168.357 469.972 168.245C471.122 167.852 472.281 167.468 473.441 167.084C473.773 166.982 473.992 167.075 474.192 167.365C474.895 168.367 475.598 169.359 476.292 170.36C476.501 170.66 476.748 170.81 477.119 170.763C477.432 170.725 477.746 170.725 478.05 170.735C478.326 170.744 478.487 170.622 478.611 170.398C479.181 169.35 479.751 168.311 480.312 167.262C480.587 166.738 480.74 166.654 481.338 166.776C481.947 166.907 482.545 167.056 483.144 167.197C483.676 167.318 484.199 167.44 484.731 167.571C485.083 167.655 485.216 167.824 485.225 168.18C485.273 169.415 485.311 170.651 485.349 171.886C485.358 172.176 485.472 172.401 485.729 172.551C486.024 172.719 486.318 172.888 486.613 173.047C486.812 173.159 487.021 173.15 487.221 173.037C488.285 172.448 489.359 171.867 490.424 171.278C490.946 170.988 491.098 171.006 491.517 171.427C492.315 172.232 493.113 173.028 493.911 173.833C494.225 174.151 494.254 174.366 494.026 174.75C493.398 175.798 492.771 176.847 492.134 177.886C491.982 178.138 491.982 178.372 492.115 178.616C492.286 178.915 492.429 179.234 492.638 179.514C492.752 179.664 492.971 179.814 493.151 179.833C494.387 179.936 495.632 180.001 496.877 180.076C497.409 180.104 497.57 180.244 497.684 180.75C497.903 181.761 498.122 182.762 498.34 183.773C498.359 183.876 498.388 183.979 498.397 184.082C498.435 184.569 498.388 184.644 497.941 184.868C496.896 185.383 495.86 185.907 494.814 186.413C494.472 186.581 494.292 186.806 494.292 187.199C494.292 187.517 494.273 187.835 494.235 188.144C494.197 188.481 494.33 188.715 494.596 188.912C495.594 189.642 496.591 190.362 497.599 191.092C497.941 191.336 498.008 191.542 497.865 191.935C497.475 193.002 497.076 194.069 496.687 195.136C496.582 195.426 496.382 195.566 496.069 195.538C495.166 195.445 494.273 195.361 493.37 195.267C492.98 195.229 492.6 195.155 492.21 195.155C492.02 195.155 491.783 195.267 491.659 195.407C491.336 195.772 491.07 196.194 490.766 196.577C490.576 196.821 490.566 197.064 490.671 197.335C491.117 198.487 491.564 199.638 492.011 200.789C492.163 201.182 492.106 201.379 491.764 201.632C490.908 202.268 490.063 202.905 489.207 203.541C488.818 203.831 488.599 203.822 488.219 203.522C487.287 202.783 486.356 202.043 485.434 201.304C485.216 201.126 484.978 201.061 484.703 201.173C484.189 201.379 483.676 201.575 483.153 201.753C482.811 201.866 482.669 202.109 482.602 202.427C482.346 203.635 482.089 204.842 481.842 206.049C481.785 206.33 481.604 206.499 481.329 206.517C480.188 206.592 479.038 206.648 477.898 206.723C477.584 206.742 477.423 206.592 477.328 206.312C476.948 205.17 476.548 204.028 476.178 202.886C476.073 202.558 475.883 202.38 475.532 202.315C474.961 202.203 474.401 202.062 473.83 201.94C473.526 201.875 473.27 201.94 473.042 202.165C472.196 203.026 471.341 203.878 470.485 204.73C470.162 205.048 469.943 205.067 469.554 204.842C468.689 204.355 467.834 203.887 466.959 203.41C466.503 203.157 466.408 202.97 466.541 202.474C466.845 201.332 467.14 200.181 467.444 199.039C467.52 198.739 467.454 198.496 467.235 198.281C466.807 197.85 466.38 197.42 465.961 196.97C465.743 196.736 465.496 196.69 465.192 196.755C463.994 197.027 462.787 197.289 461.59 197.551C461.229 197.626 461.029 197.541 460.868 197.242C460.383 196.325 459.908 195.407 459.433 194.481C459.204 194.041 459.242 193.863 459.604 193.517C460.487 192.702 461.362 191.888 462.255 191.092C462.502 190.868 462.578 190.624 462.521 190.325C462.417 189.773 462.293 189.22 462.208 188.668C462.16 188.359 461.979 188.2 461.704 188.097C460.506 187.667 459.318 187.236 458.121 186.815C457.912 186.74 457.807 186.647 457.826 186.403C457.94 185.214 458.036 184.026 458.159 182.837C458.188 182.556 458.387 182.378 458.672 182.322C459.879 182.107 461.096 181.892 462.303 181.686C462.692 181.62 462.958 181.442 463.101 181.068C463.262 180.647 463.434 180.235 463.624 179.823C463.757 179.542 463.7 179.308 463.519 179.074C462.768 178.11 462.027 177.137 461.286 176.173C461.067 175.892 461.067 175.667 461.286 175.396C461.989 174.526 462.692 173.664 463.405 172.794C463.709 172.42 463.89 172.382 464.346 172.569C465.458 173.019 466.57 173.468 467.682 173.927C468.033 174.076 468.337 174.086 468.651 173.824C468.898 173.618 469.164 173.44 469.44 173.281C469.772 173.112 469.934 172.85 469.877 172.579ZM466.351 186.712C466.313 193.039 471.531 198.374 478.164 198.374C484.779 198.374 490.015 193.058 489.977 186.647C489.939 180.338 484.779 175.059 478.164 175.059C471.483 175.05 466.323 180.432 466.351 186.712Z" stroke="#CFE4E9" stroke-width="2" stroke-miterlimit="10"/>
<path opacity="0.6" d="M191.092 245.79C190.987 244.507 190.892 243.328 190.788 242.158C190.759 241.774 190.845 241.568 191.187 241.456C192.337 241.063 193.496 240.679 194.656 240.295C194.988 240.192 195.207 240.286 195.406 240.576C196.11 241.578 196.813 242.57 197.507 243.571C197.716 243.871 197.953 244.021 198.334 243.974C198.638 243.936 198.961 243.936 199.265 243.946C199.54 243.955 199.712 243.833 199.826 243.609C200.396 242.56 200.966 241.522 201.527 240.473C201.802 239.949 201.954 239.865 202.553 239.987C203.161 240.118 203.76 240.267 204.359 240.408C204.891 240.529 205.414 240.651 205.946 240.782C206.298 240.866 206.431 241.035 206.44 241.391C206.488 242.626 206.526 243.862 206.564 245.097C206.573 245.387 206.687 245.612 206.944 245.762C207.238 245.93 207.533 246.098 207.828 246.258C208.027 246.37 208.236 246.361 208.436 246.248C209.5 245.659 210.574 245.078 211.639 244.489C212.161 244.198 212.313 244.217 212.731 244.638C213.53 245.443 214.328 246.239 215.126 247.044C215.44 247.362 215.468 247.587 215.24 247.961C214.613 249.009 213.986 250.058 213.349 251.097C213.197 251.349 213.197 251.583 213.33 251.827C213.501 252.126 213.644 252.444 213.853 252.725C213.967 252.875 214.185 253.025 214.366 253.043C215.601 253.146 216.846 253.212 218.091 253.287C218.624 253.315 218.785 253.455 218.899 253.961C219.118 254.972 219.336 255.973 219.555 256.984C219.574 257.087 219.602 257.19 219.612 257.293C219.65 257.78 219.602 257.854 219.156 258.079C218.12 258.594 217.075 259.118 216.029 259.623C215.687 259.792 215.506 260.017 215.506 260.41C215.506 260.728 215.487 261.046 215.449 261.355C215.411 261.692 215.544 261.926 215.811 262.123C216.808 262.853 217.806 263.573 218.814 264.303C219.156 264.547 219.222 264.753 219.08 265.146C218.69 266.213 218.291 267.28 217.901 268.347C217.797 268.637 217.597 268.777 217.284 268.749C216.381 268.656 215.487 268.571 214.585 268.478C214.195 268.44 213.815 268.356 213.425 268.366C213.235 268.366 212.998 268.478 212.874 268.618C212.551 268.983 212.285 269.404 211.981 269.788C211.791 270.032 211.781 270.275 211.886 270.546C212.332 271.698 212.779 272.849 213.226 274C213.378 274.393 213.321 274.59 212.979 274.843C212.123 275.479 211.277 276.115 210.422 276.752C210.032 277.042 209.814 277.033 209.434 276.733C208.502 275.994 207.571 275.254 206.649 274.515C206.431 274.337 206.193 274.272 205.917 274.384C205.404 274.59 204.891 274.786 204.368 274.964C204.026 275.077 203.884 275.32 203.817 275.638C203.56 276.846 203.304 278.053 203.057 279.26C203 279.541 202.819 279.71 202.544 279.728C201.403 279.803 200.253 279.859 199.113 279.934C198.799 279.953 198.638 279.803 198.543 279.522C198.162 278.381 197.763 277.239 197.393 276.097C197.288 275.769 197.098 275.591 196.746 275.526C196.176 275.414 195.615 275.273 195.045 275.151C194.741 275.086 194.485 275.151 194.256 275.376C193.411 276.237 192.555 277.089 191.7 277.941C191.377 278.259 191.158 278.278 190.769 278.053C189.904 277.566 189.049 277.098 188.174 276.621C187.718 276.368 187.623 276.181 187.756 275.685C188.06 274.543 188.355 273.392 188.659 272.25C188.735 271.95 188.668 271.707 188.45 271.492C188.022 271.061 187.594 270.631 187.176 270.181C186.958 269.947 186.711 269.901 186.407 269.966C185.209 270.238 184.002 270.5 182.805 270.762C182.444 270.837 182.244 270.752 182.082 270.453C181.598 269.536 181.123 268.618 180.647 267.692C180.419 267.252 180.457 267.074 180.818 266.728C181.702 265.913 182.577 265.099 183.47 264.303C183.717 264.079 183.793 263.835 183.736 263.536C183.641 262.984 183.508 262.431 183.422 261.879C183.375 261.57 183.194 261.411 182.919 261.308C181.721 260.878 180.533 260.447 179.336 260.026C179.127 259.951 179.022 259.857 179.041 259.614C179.155 258.425 179.25 257.237 179.374 256.048C179.402 255.767 179.602 255.589 179.887 255.533C181.094 255.318 182.31 255.103 183.517 254.897C183.907 254.831 184.173 254.653 184.316 254.279C184.477 253.858 184.648 253.446 184.838 253.034C184.971 252.753 184.914 252.519 184.734 252.285C183.983 251.321 183.242 250.348 182.501 249.384C182.282 249.103 182.282 248.878 182.501 248.607C183.204 247.736 183.907 246.875 184.62 246.005C184.924 245.631 185.105 245.593 185.561 245.78C186.673 246.23 187.785 246.679 188.896 247.137C189.248 247.287 189.552 247.297 189.866 247.034C190.113 246.829 190.379 246.651 190.655 246.492C190.987 246.314 191.149 246.061 191.092 245.79ZM187.566 259.923C187.528 266.25 192.745 271.585 199.379 271.585C205.993 271.585 211.23 266.269 211.192 259.857C211.154 253.549 205.993 248.27 199.379 248.27C192.698 248.261 187.528 253.643 187.566 259.923Z" stroke="#CFE4E9" stroke-width="2" stroke-miterlimit="10"/>
<path opacity="0.6" d="M435.053 47.274C434.948 45.9917 434.853 44.8124 434.749 43.6424C434.72 43.2586 434.806 43.0527 435.148 42.9404C436.298 42.5473 437.457 42.1635 438.617 41.7798C438.949 41.6768 439.168 41.7704 439.367 42.0606C440.071 43.0621 440.774 44.0542 441.468 45.0557C441.677 45.3552 441.914 45.505 442.294 45.4582C442.599 45.4208 442.922 45.4208 443.226 45.4301C443.501 45.4395 443.663 45.3178 443.787 45.0932C444.357 44.0449 444.927 43.0059 445.488 41.9576C445.763 41.4335 445.915 41.3492 446.514 41.4709C447.122 41.602 447.721 41.7517 448.32 41.8921C448.852 42.0138 449.375 42.1355 449.907 42.2665C450.258 42.3507 450.391 42.5192 450.401 42.8749C450.449 44.1104 450.487 45.3459 450.525 46.5814C450.534 46.8715 450.648 47.0962 450.905 47.2459C451.199 47.4144 451.494 47.5829 451.789 47.742C451.988 47.8543 452.197 47.845 452.397 47.7326C453.461 47.143 454.535 46.5627 455.599 45.973C456.122 45.6828 456.274 45.7016 456.692 46.1228C457.491 46.9277 458.289 47.7233 459.087 48.5282C459.401 48.8465 459.429 49.0617 459.201 49.4455C458.574 50.4938 457.947 51.5421 457.31 52.581C457.158 52.8338 457.158 53.0677 457.291 53.3111C457.462 53.6106 457.605 53.9289 457.814 54.2096C457.928 54.3594 458.146 54.5092 458.327 54.5279C459.562 54.6308 460.807 54.6964 462.052 54.7712C462.585 54.7993 462.746 54.9397 462.86 55.4451C463.079 56.456 463.297 57.4575 463.516 58.4684C463.535 58.5713 463.563 58.6743 463.573 58.7772C463.611 59.264 463.563 59.3388 463.117 59.5635C462.071 60.0783 461.035 60.6024 459.99 61.1078C459.648 61.2763 459.467 61.501 459.467 61.8941C459.467 62.2123 459.448 62.5305 459.41 62.8394C459.372 63.1764 459.505 63.4104 459.772 63.6069C460.769 64.337 461.767 65.0577 462.775 65.7878C463.117 66.0311 463.183 66.237 463.041 66.6301C462.651 67.6972 462.252 68.7642 461.862 69.8312C461.758 70.1214 461.558 70.2618 461.245 70.2337C460.342 70.1401 459.448 70.0558 458.546 69.9622C458.156 69.9248 457.776 69.8499 457.386 69.8499C457.196 69.8499 456.958 69.9622 456.835 70.1026C456.512 70.4677 456.246 70.8889 455.942 71.2726C455.752 71.516 455.742 71.7593 455.847 72.0308C456.293 73.182 456.74 74.3333 457.187 75.4845C457.339 75.8777 457.282 76.0742 456.939 76.3269C456.084 76.9634 455.238 77.5999 454.383 78.2363C453.993 78.5265 453.775 78.5171 453.395 78.2176C452.463 77.4782 451.532 76.7388 450.61 75.9993C450.391 75.8215 450.154 75.756 449.878 75.8683C449.365 76.0742 448.852 76.2708 448.329 76.4486C447.987 76.5609 447.845 76.8043 447.778 77.1225C447.521 78.3299 447.265 79.5374 447.018 80.7448C446.961 81.0256 446.78 81.194 446.505 81.2128C445.364 81.2876 444.214 81.3438 443.074 81.4187C442.76 81.4374 442.599 81.2876 442.504 81.0068C442.123 79.8649 441.724 78.723 441.354 77.5811C441.249 77.2536 441.059 77.0757 440.707 77.0102C440.137 76.8979 439.576 76.7575 439.006 76.6358C438.702 76.5703 438.446 76.6358 438.217 76.8604C437.372 77.7215 436.516 78.5733 435.661 79.425C435.338 79.7433 435.119 79.762 434.73 79.5374C433.865 79.0506 433.009 78.5827 432.135 78.1053C431.679 77.8526 431.584 77.6654 431.717 77.1693C432.021 76.0274 432.316 74.8762 432.62 73.7343C432.696 73.4347 432.629 73.1914 432.411 72.9761C431.983 72.5456 431.555 72.115 431.137 71.6657C430.919 71.4317 430.672 71.3849 430.367 71.4505C429.17 71.7219 427.963 71.984 426.766 72.246C426.404 72.3209 426.205 72.2367 426.043 71.9372C425.559 71.0199 425.083 70.1026 424.608 69.176C424.38 68.7361 424.418 68.5583 424.779 68.212C425.663 67.3977 426.538 66.5833 427.431 65.7878C427.678 65.5631 427.754 65.3198 427.697 65.0203C427.602 64.468 427.469 63.9158 427.383 63.3636C427.336 63.0547 427.155 62.8956 426.88 62.7926C425.682 62.3621 424.494 61.9315 423.297 61.5103C423.088 61.4354 422.983 61.3418 423.002 61.0985C423.116 59.9098 423.211 58.7211 423.335 57.5324C423.363 57.2516 423.563 57.0738 423.848 57.0176C425.055 56.8023 426.271 56.587 427.478 56.3811C427.868 56.3156 428.134 56.1378 428.277 55.7634C428.438 55.3422 428.609 54.9304 428.799 54.5185C428.932 54.2377 428.875 54.0037 428.695 53.7697C427.944 52.8057 427.203 51.8323 426.462 50.8682C426.243 50.5874 426.243 50.3628 426.462 50.0913C427.165 49.2209 427.868 48.3598 428.581 47.4893C428.885 47.1149 429.065 47.0775 429.522 47.2647C430.634 47.7139 431.745 48.1632 432.857 48.6218C433.209 48.7716 433.513 48.7809 433.827 48.5189C434.074 48.313 434.34 48.1351 434.616 47.976C434.948 47.7982 435.11 47.5454 435.053 47.274ZM431.517 61.398C431.479 67.7252 436.697 73.0604 443.33 73.0604C449.945 73.0604 455.181 67.744 455.143 61.3325C455.105 55.024 449.945 49.7544 443.33 49.745C436.659 49.7356 431.489 55.1269 431.517 61.398Z" stroke="#CFE4E9" stroke-width="2" stroke-miterlimit="10"/>
<path opacity="0.6" d="M195.254 170.546C195.083 168.468 194.931 166.568 194.77 164.677C194.712 164.059 194.865 163.732 195.416 163.535C197.278 162.899 199.151 162.271 201.023 161.663C201.555 161.485 201.907 161.644 202.239 162.112C203.37 163.732 204.52 165.341 205.642 166.961C205.974 167.438 206.373 167.681 206.982 167.616C207.485 167.56 207.989 167.55 208.493 167.578C208.939 167.597 209.205 167.391 209.396 167.036C210.317 165.351 211.239 163.657 212.152 161.963C212.608 161.12 212.845 160.98 213.815 161.186C214.794 161.392 215.763 161.644 216.742 161.869C217.597 162.075 218.452 162.271 219.308 162.477C219.878 162.618 220.087 162.88 220.106 163.46C220.173 165.454 220.249 167.457 220.306 169.45C220.325 169.928 220.505 170.283 220.923 170.527C221.399 170.798 221.874 171.07 222.349 171.332C222.672 171.51 223.005 171.5 223.328 171.322C225.057 170.377 226.787 169.432 228.507 168.477C229.344 168.018 229.6 168.037 230.275 168.711C231.567 170.003 232.85 171.304 234.143 172.605C234.656 173.119 234.704 173.475 234.333 174.084C233.316 175.768 232.309 177.462 231.273 179.147C231.026 179.559 231.026 179.933 231.244 180.327C231.52 180.813 231.748 181.328 232.09 181.777C232.271 182.021 232.622 182.264 232.917 182.292C234.922 182.461 236.927 182.573 238.942 182.685C239.807 182.732 240.073 182.947 240.244 183.78C240.596 185.409 240.957 187.038 241.308 188.666C241.347 188.835 241.385 189.003 241.394 189.172C241.451 189.958 241.385 190.08 240.662 190.435C238.98 191.268 237.298 192.111 235.606 192.925C235.055 193.187 234.751 193.561 234.751 194.188C234.751 194.694 234.713 195.209 234.656 195.714C234.589 196.257 234.808 196.641 235.236 196.95C236.851 198.129 238.467 199.299 240.092 200.478C240.643 200.881 240.757 201.199 240.52 201.845C239.892 203.567 239.246 205.289 238.609 207.021C238.438 207.498 238.125 207.723 237.602 207.667C236.148 207.517 234.694 207.376 233.24 207.236C232.613 207.171 231.985 207.049 231.368 207.058C231.064 207.058 230.684 207.245 230.484 207.47C229.961 208.06 229.524 208.734 229.039 209.361C228.735 209.745 228.716 210.147 228.887 210.578C229.61 212.44 230.332 214.303 231.054 216.156C231.301 216.783 231.206 217.12 230.664 217.523C229.286 218.552 227.908 219.582 226.53 220.611C225.894 221.089 225.552 221.07 224.934 220.583C223.432 219.385 221.931 218.187 220.429 216.989C220.068 216.708 219.697 216.596 219.251 216.774C218.424 217.101 217.588 217.429 216.742 217.71C216.191 217.897 215.953 218.281 215.839 218.795C215.43 220.742 215.012 222.699 214.603 224.645C214.508 225.104 214.214 225.375 213.777 225.404C211.923 225.525 210.08 225.619 208.227 225.731C207.723 225.759 207.447 225.525 207.295 225.057C206.687 223.213 206.041 221.369 205.433 219.526C205.261 219.001 204.948 218.702 204.397 218.599C203.475 218.421 202.562 218.196 201.65 217.991C201.156 217.878 200.738 217.981 200.377 218.356C199.008 219.75 197.621 221.126 196.243 222.511C195.729 223.026 195.368 223.054 194.741 222.699C193.353 221.922 191.956 221.145 190.55 220.387C189.809 219.984 189.657 219.675 189.875 218.88C190.36 217.026 190.845 215.183 191.339 213.329C191.472 212.843 191.358 212.459 191.006 212.103C190.312 211.401 189.619 210.699 188.944 209.988C188.592 209.613 188.193 209.529 187.708 209.642C185.77 210.081 183.821 210.503 181.883 210.924C181.303 211.055 180.97 210.914 180.714 210.418C179.934 208.93 179.165 207.451 178.395 205.963C178.034 205.261 178.081 204.962 178.68 204.409C180.106 203.09 181.522 201.779 182.966 200.488C183.365 200.132 183.489 199.729 183.403 199.243C183.242 198.344 183.042 197.455 182.89 196.566C182.805 196.07 182.519 195.808 182.073 195.649C180.144 194.956 178.214 194.254 176.285 193.58C175.943 193.458 175.772 193.309 175.81 192.916C176 190.997 176.152 189.069 176.342 187.15C176.39 186.691 176.713 186.41 177.178 186.326C179.136 185.98 181.094 185.624 183.052 185.306C183.688 185.203 184.107 184.913 184.335 184.304C184.591 183.621 184.867 182.947 185.18 182.292C185.389 181.833 185.304 181.459 185.009 181.085C183.802 179.522 182.595 177.959 181.388 176.386C181.037 175.937 181.027 175.562 181.388 175.122C182.529 173.719 183.669 172.315 184.81 170.92C185.304 170.321 185.599 170.255 186.321 170.555C188.117 171.285 189.923 172.006 191.709 172.754C192.28 172.998 192.774 173.007 193.277 172.586C193.667 172.258 194.104 171.968 194.551 171.706C195.083 171.407 195.34 170.985 195.254 170.546ZM189.552 193.393C189.495 203.614 197.925 212.253 208.654 212.253C219.355 212.253 227.823 203.661 227.756 193.29C227.699 183.088 219.355 174.561 208.664 174.552C197.849 174.542 189.495 183.247 189.552 193.393Z" stroke="#CFE4E9" stroke-width="2" stroke-miterlimit="10"/>
<path opacity="0.72" d="M582.093 148.047H482.742C480.129 148.047 478 145.96 478 143.376V35.0924C478 32.5185 480.119 30.4219 482.742 30.4219H582.102C584.716 30.4219 586.844 32.5091 586.844 35.0924V143.386C586.835 145.96 584.716 148.047 582.093 148.047Z" fill="url(#paint0_linear_2180_9930)"/>
<path d="M268.137 135.212H197.592C195.758 135.212 194.266 133.743 194.266 131.936V112.393C194.266 110.587 195.758 109.117 197.592 109.117H268.137C269.971 109.117 271.463 110.587 271.463 112.393V131.936C271.463 133.752 269.981 135.212 268.137 135.212Z" fill="url(#paint1_linear_2180_9930)"/>
<path d="M215.838 130.394H201.364C200.252 130.394 199.34 129.505 199.34 128.401V116.298C199.34 115.203 200.243 114.305 201.364 114.305H215.838C216.95 114.305 217.862 115.194 217.862 116.298V128.41C217.862 129.505 216.95 130.394 215.838 130.394Z" fill="white"/>
<path opacity="0.12" d="M260.533 117.852H226.244C225.503 117.852 224.895 118.451 224.895 119.181C224.895 119.911 225.503 120.51 226.244 120.51H260.533C261.274 120.51 261.882 119.911 261.882 119.181C261.882 118.441 261.284 117.852 260.533 117.852Z" fill="#001D47"/>
<path opacity="0.12" d="M242.904 123.836H226.244C225.503 123.836 224.895 124.435 224.895 125.165C224.895 125.895 225.503 126.494 226.244 126.494H242.904C243.645 126.494 244.253 125.895 244.253 125.165C244.253 124.435 243.655 123.836 242.904 123.836Z" fill="#001D47"/>
<path d="M163.871 327.517H93.3262C91.4921 327.517 90 326.048 90 324.241V304.698C90 302.891 91.4921 301.422 93.3262 301.422H163.871C165.705 301.422 167.197 302.891 167.197 304.698V324.241C167.197 326.057 165.715 327.517 163.871 327.517Z" fill="url(#paint2_linear_2180_9930)"/>
<path d="M111.572 322.699H97.0985C95.9866 322.699 95.0742 321.81 95.0742 320.705V308.603C95.0742 307.508 95.9771 306.609 97.0985 306.609H111.572C112.684 306.609 113.597 307.499 113.597 308.603V320.715C113.597 321.81 112.684 322.699 111.572 322.699Z" fill="white"/>
<path opacity="0.12" d="M156.267 310.156H121.978C121.237 310.156 120.629 310.755 120.629 311.485C120.629 312.215 121.237 312.814 121.978 312.814H156.267C157.009 312.814 157.617 312.215 157.617 311.485C157.617 310.746 157.018 310.156 156.267 310.156Z" fill="#001D47"/>
<path opacity="0.12" d="M138.638 316.141H121.978C121.237 316.141 120.629 316.74 120.629 317.47C120.629 318.2 121.237 318.799 121.978 318.799H138.638C139.379 318.799 139.988 318.2 139.988 317.47C139.988 316.74 139.389 316.141 138.638 316.141Z" fill="#001D47"/>
<path d="M559.149 69.2318H498.326C496.492 69.2318 495 67.7623 495 65.9558V49.6978C495 47.8914 496.492 46.4219 498.326 46.4219H559.149C560.983 46.4219 562.475 47.8914 562.475 49.6978V65.9558C562.475 67.7623 560.983 69.2318 559.149 69.2318Z" fill="url(#paint3_linear_2180_9930)"/>
<path d="M513.598 65.021H501.462C500.35 65.021 499.438 64.1318 499.438 63.0273V52.9468C499.438 51.8517 500.34 50.9531 501.462 50.9531H513.598C514.71 50.9531 515.622 51.8423 515.622 52.9468V63.0273C515.613 64.1224 514.71 65.021 513.598 65.021Z" fill="white"/>
<path opacity="0.12" d="M552.924 54.0469H522.96C522.313 54.0469 521.781 54.571 521.781 55.2075C521.781 55.844 522.313 56.3681 522.96 56.3681H552.924C553.571 56.3681 554.103 55.844 554.103 55.2075C554.103 54.571 553.571 54.0469 552.924 54.0469Z" fill="#001D47"/>
<path opacity="0.12" d="M537.511 59.2812H522.952C522.306 59.2812 521.773 59.8054 521.773 60.4419C521.773 61.0783 522.306 61.6025 522.952 61.6025H537.511C538.158 61.6025 538.69 61.0783 538.69 60.4419C538.69 59.8054 538.167 59.2812 537.511 59.2812Z" fill="#001D47"/>
<path d="M118.149 282.81H57.3262C55.4921 282.81 54 281.34 54 279.534V263.276C54 261.469 55.4921 260 57.3262 260H118.149C119.983 260 121.475 261.469 121.475 263.276V279.534C121.475 281.34 119.983 282.81 118.149 282.81Z" fill="url(#paint4_linear_2180_9930)"/>
<path d="M72.5978 278.599H60.4618C59.3498 278.599 58.4375 277.71 58.4375 276.605V266.525C58.4375 265.43 59.3403 264.531 60.4618 264.531H72.5978C73.7097 264.531 74.6221 265.42 74.6221 266.525V276.605C74.6126 277.701 73.7097 278.599 72.5978 278.599Z" fill="white"/>
<path opacity="0.12" d="M111.924 267.625H81.9597C81.3134 267.625 80.7812 268.149 80.7812 268.786C80.7812 269.422 81.3134 269.946 81.9597 269.946H111.924C112.571 269.946 113.103 269.422 113.103 268.786C113.103 268.149 112.571 267.625 111.924 267.625Z" fill="#001D47"/>
<path opacity="0.12" d="M96.5113 272.859H81.9519C81.3057 272.859 80.7734 273.384 80.7734 274.02C80.7734 274.656 81.3057 275.181 81.9519 275.181H96.5113C97.1576 275.181 97.6898 274.656 97.6898 274.02C97.6898 273.384 97.1671 272.859 96.5113 272.859Z" fill="#001D47"/>
<path d="M559.149 100.841H498.326C496.492 100.841 495 99.3717 495 97.5652V81.3072C495 79.5007 496.492 78.0312 498.326 78.0312H559.149C560.983 78.0312 562.475 79.5007 562.475 81.3072V97.5652C562.475 99.3717 560.983 100.841 559.149 100.841Z" fill="url(#paint5_linear_2180_9930)"/>
<path d="M513.598 96.6303H501.462C500.35 96.6303 499.438 95.7411 499.438 94.6367V84.5561C499.438 83.461 500.34 82.5625 501.462 82.5625H513.598C514.71 82.5625 515.622 83.4517 515.622 84.5561V94.6367C515.613 95.7318 514.71 96.6303 513.598 96.6303Z" fill="white"/>
<path opacity="0.12" d="M552.924 85.6562H522.96C522.313 85.6562 521.781 86.1804 521.781 86.8169C521.781 87.4533 522.313 87.9775 522.96 87.9775H552.924C553.571 87.9775 554.103 87.4533 554.103 86.8169C554.103 86.1804 553.571 85.6562 552.924 85.6562Z" fill="#001D47"/>
<path opacity="0.12" d="M537.511 90.8906H522.952C522.306 90.8906 521.773 91.4148 521.773 92.0512C521.773 92.6877 522.306 93.2119 522.952 93.2119H537.511C538.158 93.2119 538.69 92.6877 538.69 92.0512C538.69 91.4148 538.167 90.8906 537.511 90.8906Z" fill="#001D47"/>
<path d="M559.149 100.841H498.326C496.492 100.841 495 99.3717 495 97.5652V81.3072C495 79.5007 496.492 78.0312 498.326 78.0312H559.149C560.983 78.0312 562.475 79.5007 562.475 81.3072V97.5652C562.475 99.3717 560.983 100.841 559.149 100.841Z" fill="url(#paint6_linear_2180_9930)"/>
<path d="M513.598 96.6303H501.462C500.35 96.6303 499.438 95.7411 499.438 94.6367V84.5561C499.438 83.461 500.34 82.5625 501.462 82.5625H513.598C514.71 82.5625 515.622 83.4517 515.622 84.5561V94.6367C515.613 95.7318 514.71 96.6303 513.598 96.6303Z" fill="white"/>
<path opacity="0.12" d="M552.924 85.6562H522.96C522.313 85.6562 521.781 86.1804 521.781 86.8169C521.781 87.4533 522.313 87.9775 522.96 87.9775H552.924C553.571 87.9775 554.103 87.4533 554.103 86.8169C554.103 86.1804 553.571 85.6562 552.924 85.6562Z" fill="#001D47"/>
<path opacity="0.12" d="M537.511 90.8906H522.952C522.306 90.8906 521.773 91.4148 521.773 92.0512C521.773 92.6877 522.306 93.2119 522.952 93.2119H537.511C538.158 93.2119 538.69 92.6877 538.69 92.0512C538.69 91.4148 538.167 90.8906 537.511 90.8906Z" fill="#001D47"/>
<path d="M559.149 132.451H498.326C496.492 132.451 495 130.981 495 129.175V112.917C495 111.11 496.492 109.641 498.326 109.641H559.149C560.983 109.641 562.475 111.11 562.475 112.917V129.175C562.475 130.981 560.983 132.451 559.149 132.451Z" fill="white"/>
<path d="M513.598 128.24H501.462C500.35 128.24 499.438 127.351 499.438 126.246V116.166C499.438 115.07 500.34 114.172 501.462 114.172H513.598C514.71 114.172 515.622 115.061 515.622 116.166V126.246C515.613 127.341 514.71 128.24 513.598 128.24Z" fill="#CFE4E9"/>
<path opacity="0.12" d="M552.924 117.266H522.96C522.313 117.266 521.781 117.79 521.781 118.426C521.781 119.063 522.313 119.587 522.96 119.587H552.924C553.571 119.587 554.103 119.063 554.103 118.426C554.103 117.79 553.571 117.266 552.924 117.266Z" fill="#001D47"/>
<path opacity="0.12" d="M537.511 122.5H522.952C522.306 122.5 521.773 123.024 521.773 123.661C521.773 124.297 522.306 124.821 522.952 124.821H537.511C538.158 124.821 538.69 124.297 538.69 123.661C538.69 123.024 538.167 122.5 537.511 122.5Z" fill="#001D47"/>
<path d="M159.149 250.232H98.3262C96.4921 250.232 95 248.762 95 246.956V230.698C95 228.891 96.4921 227.422 98.3262 227.422H159.149C160.983 227.422 162.475 228.891 162.475 230.698V246.956C162.475 248.762 160.983 250.232 159.149 250.232Z" fill="white"/>
<path d="M113.598 246.021H101.462C100.35 246.021 99.4375 245.132 99.4375 244.027V233.947C99.4375 232.852 100.34 231.953 101.462 231.953H113.598C114.71 231.953 115.622 232.842 115.622 233.947V244.027C115.613 245.122 114.71 246.021 113.598 246.021Z" fill="#CFE4E9"/>
<path opacity="0.12" d="M152.924 235.047H122.96C122.313 235.047 121.781 235.571 121.781 236.207C121.781 236.844 122.313 237.368 122.96 237.368H152.924C153.571 237.368 154.103 236.844 154.103 236.207C154.103 235.571 153.571 235.047 152.924 235.047Z" fill="#001D47"/>
<path opacity="0.12" d="M137.511 240.281H122.952C122.306 240.281 121.773 240.805 121.773 241.442C121.773 242.078 122.306 242.602 122.952 242.602H137.511C138.158 242.602 138.69 242.078 138.69 241.442C138.69 240.805 138.167 240.281 137.511 240.281Z" fill="#001D47"/>
<path d="M169.966 191.861L244.446 158.774C246.232 157.978 248.437 158.577 249.368 160.103C250.3 161.629 249.606 163.519 247.81 164.306L173.33 197.393C171.544 198.188 169.339 197.589 168.408 196.064C167.486 194.538 168.179 192.657 169.966 191.861Z" fill="#162C47"/>
<path d="M247.82 191.861L173.34 158.774C171.554 157.978 169.349 158.577 168.417 160.103C167.486 161.629 168.18 163.519 169.976 164.306L244.456 197.393C246.242 198.188 248.447 197.589 249.378 196.064C250.3 194.538 249.606 192.657 247.82 191.861Z" fill="#6494B0"/>
<path d="M169.966 225.134L244.446 192.047C246.232 191.252 248.437 191.851 249.368 193.377C250.3 194.902 249.606 196.793 247.81 197.579L173.33 230.666C171.544 231.462 169.339 230.863 168.408 229.337C167.486 227.811 168.179 225.93 169.966 225.134Z" fill="#162C47"/>
<path d="M247.82 225.134L173.34 192.047C171.554 191.252 169.349 191.851 168.417 193.377C167.486 194.902 168.18 196.793 169.976 197.579L244.456 230.666C246.242 231.462 248.447 230.863 249.378 229.337C250.3 227.811 249.606 225.93 247.82 225.134Z" fill="#6494B0"/>
<path d="M169.966 258.353L244.446 225.266C246.232 224.471 248.437 225.07 249.368 226.595C250.3 228.121 249.606 230.012 247.81 230.798L173.33 263.885C171.544 264.68 169.339 264.081 168.408 262.556C167.486 261.039 168.179 259.149 169.966 258.353Z" fill="#162C47"/>
<path d="M247.82 258.353L173.34 225.266C171.554 224.471 169.349 225.07 168.417 226.595C167.486 228.121 168.18 230.012 169.976 230.798L244.456 263.885C246.242 264.68 248.447 264.081 249.378 262.556C250.3 261.039 249.606 259.149 247.82 258.353Z" fill="#6494B0"/>
<path d="M169.966 291.627L244.446 258.54C246.232 257.744 248.437 258.343 249.368 259.869C250.3 261.394 249.606 263.285 247.81 264.071L173.33 297.158C171.544 297.954 169.339 297.355 168.408 295.829C167.486 294.304 168.179 292.422 169.966 291.627Z" fill="#162C47"/>
<path d="M247.82 291.627L173.34 258.54C171.554 257.744 169.349 258.343 168.417 259.869C167.486 261.394 168.18 263.285 169.976 264.071L244.456 297.158C246.242 297.954 248.447 297.355 249.378 295.829C250.3 294.304 249.606 292.422 247.82 291.627Z" fill="#6494B0"/>
<path d="M169.966 324.9L244.446 291.813C246.232 291.017 248.437 291.616 249.368 293.142C250.3 294.668 249.606 296.558 247.81 297.345L173.33 330.432C171.544 331.227 169.339 330.628 168.408 329.103C167.486 327.577 168.179 325.696 169.966 324.9Z" fill="#162C47"/>
<path d="M247.82 324.9L173.34 291.813C171.554 291.017 169.349 291.616 168.417 293.142C167.486 294.668 168.18 296.558 169.976 297.345L244.456 330.432C246.242 331.227 248.447 330.628 249.378 329.103C250.3 327.577 249.606 325.696 247.82 324.9Z" fill="#6494B0"/>
<path d="M302.504 158.588H159V150.192C159 148.657 160.264 147.422 161.813 147.422H302.504V158.588Z" fill="#162C47"/>
<path d="M302.504 158.422H159V162.943C159 164.478 160.264 165.713 161.813 165.713H302.504V158.422Z" fill="#162C47"/>
<path d="M424.09 291.234V302.279H496.174V294.005C496.174 292.47 494.91 291.234 493.361 291.234H424.09Z" fill="#78A2BA"/>
<path d="M424.09 302.281V313.326H508.501V305.052C508.501 303.517 507.237 302.281 505.688 302.281H424.09Z" fill="#6E9BB5"/>
<path d="M424.09 313.32V324.365H520.817V316.091C520.817 314.556 519.553 313.32 518.004 313.32H424.09Z" fill="#6494B0"/>
<path d="M424.09 324.367V335.412H532.193V327.138C532.193 325.603 530.929 324.367 529.38 324.367H424.09Z" fill="#5A8DAB"/>
<path d="M267.103 326V337.045H159V328.771C159 327.235 160.264 326 161.813 326H267.103Z" fill="#162C47"/>
<path d="M265.999 241.977L285.548 258.431C287.068 259.704 287.486 261.847 286.555 263.588C285.377 265.797 282.516 266.509 280.406 265.123L261.066 252.413L265.999 241.977Z" fill="#042A37"/>
<path d="M456.163 199.57L435.151 214.172C433.516 215.304 432.899 217.401 433.669 219.217C434.638 221.519 437.422 222.493 439.646 221.304L460.098 210.409L456.163 199.57Z" fill="#FFA489"/>
<path d="M287.06 112.146L287.231 108.355L267.691 100.961V104.836C267.691 107.719 267.919 110.583 268.366 113.41C274.582 114.402 281.034 113.821 287.06 112.146Z" fill="#042A37"/>
<path d="M286.213 131.441L287.058 112.141C281.033 113.816 274.58 114.396 268.355 113.404C268.574 114.789 268.859 116.165 269.173 117.523C277.754 115.622 282.535 123.503 286.213 131.441Z" fill="#196E92"/>
<path d="M269.184 117.531C270.505 123.147 272.671 128.557 275.684 133.555L285.406 149.71L286.214 131.44C282.536 123.503 277.756 115.622 269.184 117.531Z" fill="#3F86A4"/>
<path d="M282.621 323.496C282.621 330.076 288.038 335.411 294.719 335.411H426.591C433.272 335.411 438.689 330.076 438.689 323.496V64.126C438.689 57.546 433.272 52.2109 426.591 52.2109H294.719C288.038 52.2109 282.621 57.546 282.621 64.126V323.496Z" fill="#170254"/>
<path opacity="0.15" d="M338.672 63.5537C338.672 64.4429 339.404 65.1543 340.297 65.1543H379.784C380.687 65.1543 381.409 64.4336 381.409 63.5537C381.409 62.6646 380.678 61.9532 379.784 61.9532H340.297C339.404 61.9439 338.672 62.6646 338.672 63.5537Z" fill="#001D47"/>
<path opacity="0.15" d="M345.125 312.177C345.125 320.619 352.072 327.461 360.654 327.461C369.226 327.461 376.183 320.619 376.183 312.177C376.183 303.725 369.236 296.883 360.654 296.883C352.072 296.883 345.125 303.725 345.125 312.177Z" fill="#001D47"/>
<path d="M348.25 312.176C348.25 318.924 353.8 324.39 360.652 324.39C367.504 324.39 373.054 318.915 373.054 312.176C373.054 305.427 367.504 299.961 360.652 299.961C353.8 299.952 348.25 305.427 348.25 312.176Z" fill="#307F9D"/>
<path d="M438.689 75.6953H282.621V288.94H438.689V75.6953Z" fill="#CFE4E9"/>
<path d="M438.689 75.6953H282.621V147.738H438.689V75.6953Z" fill="url(#paint7_linear_2180_9930)"/>
<path d="M429.185 109.117H292.115C290.281 109.117 288.789 107.648 288.789 105.841V86.3072C288.789 84.5007 290.281 83.0312 292.115 83.0312H429.185C431.019 83.0312 432.512 84.5007 432.512 86.3072V105.851C432.512 107.657 431.029 109.117 429.185 109.117Z" fill="url(#paint8_linear_2180_9930)"/>
<path d="M310.361 104.302H295.888C294.776 104.302 293.863 103.413 293.863 102.308V90.1968C293.863 89.1017 294.766 88.2031 295.888 88.2031H310.361C311.473 88.2031 312.386 89.0923 312.386 90.1968V102.308C312.386 103.413 311.473 104.302 310.361 104.302Z" fill="#170254"/>
<path d="M429.185 189.97H292.115C290.281 189.97 288.789 188.501 288.789 186.694V167.151C288.789 165.344 290.281 163.875 292.115 163.875H429.185C431.019 163.875 432.512 165.344 432.512 167.151V186.694C432.512 188.501 431.029 189.97 429.185 189.97Z" fill="#34C2FF"/>
<path d="M354.06 268.138H292.115C290.281 268.138 288.789 266.669 288.789 264.862V250.729C288.789 248.923 290.281 247.453 292.115 247.453H354.06C355.894 247.453 357.386 248.923 357.386 250.729V264.862C357.386 266.669 355.894 268.138 354.06 268.138Z" fill="#32C4FF"/>
<path opacity="0.12" d="M342.948 259.943H303.223C302.016 259.943 301.047 258.979 301.047 257.8C301.047 256.611 302.026 255.656 303.223 255.656H342.948C344.155 255.656 345.124 256.62 345.124 257.8C345.124 258.979 344.155 259.943 342.948 259.943Z" fill="#001D47"/>
<path d="M429.185 268.138H367.24C365.406 268.138 363.914 266.669 363.914 264.862V250.729C363.914 248.923 365.406 247.453 367.24 247.453H429.185C431.019 247.453 432.511 248.923 432.511 250.729V264.862C432.511 266.669 431.028 268.138 429.185 268.138Z" fill="#5975EC"/>
<path opacity="0.12" d="M418.077 259.943H378.352C377.145 259.943 376.176 258.979 376.176 257.8C376.176 256.611 377.155 255.656 378.352 255.656H418.077C419.284 255.656 420.253 256.62 420.253 257.8C420.253 258.979 419.284 259.943 418.077 259.943Z" fill="#001D47"/>
<g opacity="0.1">
<g opacity="0.1">
<g opacity="0.1">
<path opacity="0.1" d="M438.688 64.126C438.688 57.546 433.271 52.2109 426.59 52.2109H423.141C424.747 54.3824 425.735 57.2465 425.735 60.4008V327.222C425.735 330.376 424.747 333.24 423.141 335.411H426.59C433.271 335.411 438.688 330.076 438.688 323.496V64.126Z" fill="#001D47"/>
</g>
<g opacity="0.1">
<path opacity="0.1" d="M295.574 327.222V60.4008C295.574 57.2465 296.563 54.3824 298.169 52.2109H294.719C288.038 52.2109 282.621 57.546 282.621 64.126V323.496C282.621 330.076 288.038 335.411 294.719 335.411H298.169C296.563 333.24 295.574 330.376 295.574 327.222Z" fill="#001D47"/>
</g>
</g>
</g>
<path opacity="0.12" d="M423.399 172.594H297.904C297.163 172.594 296.555 173.193 296.555 173.923C296.555 174.653 297.163 175.252 297.904 175.252H423.399C424.14 175.252 424.748 174.653 424.748 173.923C424.748 173.193 424.14 172.594 423.399 172.594Z" fill="#001D47"/>
<path opacity="0.12" d="M401.151 178.578H297.904C297.163 178.578 296.555 179.177 296.555 179.907C296.555 180.637 297.163 181.236 297.904 181.236H401.141C401.883 181.236 402.491 180.637 402.491 179.907C402.5 179.177 401.892 178.578 401.151 178.578Z" fill="#001D47"/>
<path opacity="0.12" d="M355.21 279.982H290.965C289.758 279.982 288.789 279.018 288.789 277.839C288.789 276.65 289.768 275.695 290.965 275.695H355.21C356.416 275.695 357.386 276.659 357.386 277.839C357.386 279.027 356.407 279.982 355.21 279.982Z" fill="#001D47"/>
<path opacity="0.12" d="M430.335 238.162H290.965C289.758 238.162 288.789 237.198 288.789 236.018C288.789 234.83 289.768 233.875 290.965 233.875H430.335C431.542 233.875 432.512 234.839 432.512 236.018C432.512 237.198 431.542 238.162 430.335 238.162Z" fill="#001D47"/>
<path opacity="0.12" d="M430.335 120.896H290.965C289.758 120.896 288.789 119.932 288.789 118.753C288.789 117.564 289.768 116.609 290.965 116.609H430.335C431.542 116.609 432.512 117.573 432.512 118.753C432.512 119.932 431.542 120.896 430.335 120.896Z" fill="#001D47"/>
<path opacity="0.12" d="M430.335 130.552H290.965C289.758 130.552 288.789 129.588 288.789 128.409C288.789 127.22 289.768 126.266 290.965 126.266H430.335C431.542 126.266 432.512 127.23 432.512 128.409C432.512 129.598 431.542 130.552 430.335 130.552Z" fill="#001D47"/>
<path opacity="0.12" d="M363.915 140.224H290.965C289.758 140.224 288.789 139.26 288.789 138.081C288.789 136.892 289.768 135.938 290.965 135.938H363.915C365.122 135.938 366.091 136.902 366.091 138.081C366.101 139.26 365.122 140.224 363.915 140.224Z" fill="#001D47"/>
<path opacity="0.12" d="M430.335 279.982H366.09C364.883 279.982 363.914 279.018 363.914 277.839C363.914 276.65 364.893 275.695 366.09 275.695H430.335C431.541 275.695 432.511 276.659 432.511 277.839C432.511 279.027 431.541 279.982 430.335 279.982Z" fill="#001D47"/>
<path opacity="0.12" d="M421.581 91.7578H320.767C320.026 91.7578 319.418 92.3568 319.418 93.0869C319.418 93.817 320.026 94.416 320.767 94.416H421.581C422.323 94.416 422.931 93.817 422.931 93.0869C422.931 92.3475 422.332 91.7578 421.581 91.7578Z" fill="#001D47"/>
<path opacity="0.12" d="M365.938 97.7422H320.767C320.026 97.7422 319.418 98.3412 319.418 99.0713C319.418 99.8013 320.026 100.4 320.767 100.4H365.938C366.679 100.4 367.287 99.8013 367.287 99.0713C367.287 98.3412 366.689 97.7422 365.938 97.7422Z" fill="#001D47"/>
<path opacity="0.2" d="M428.785 218.838L426.371 200.895C426.143 199.238 424.604 198.068 422.912 198.283L297.056 214.71C295.374 214.934 294.186 216.451 294.405 218.117L296.819 236.06C297.047 237.716 298.586 238.886 300.278 238.671L426.134 222.245C427.816 222.02 429.004 220.494 428.785 218.838Z" fill="url(#paint9_linear_2180_9930)"/>
<path d="M430.45 209.307L296.25 236.778C294.454 237.143 292.686 236.01 292.315 234.241L288.276 215.11C287.906 213.341 289.056 211.6 290.852 211.235L425.052 183.764C426.848 183.399 428.616 184.531 428.986 186.3L433.025 205.432C433.405 207.201 432.246 208.932 430.45 209.307Z" fill="#34C2FF"/>
<path opacity="0.12" d="M421.194 193.458L298.332 218.607C297.6 218.757 297.135 219.459 297.287 220.18C297.439 220.901 298.151 221.359 298.883 221.21L421.745 196.06C422.477 195.91 422.943 195.208 422.791 194.487C422.639 193.776 421.926 193.308 421.194 193.458Z" fill="#001D47"/>
<path opacity="0.12" d="M400.646 203.778L299.566 224.473C298.835 224.623 298.369 225.325 298.521 226.045C298.673 226.766 299.386 227.225 300.118 227.075L401.198 206.38C401.929 206.231 402.395 205.529 402.243 204.808C402.091 204.087 401.369 203.629 400.646 203.778Z" fill="#001D47"/>
<path d="M235.396 332.696C234.779 334.213 235.501 335.411 237.04 335.411H249.908C251.229 335.411 252.55 333.773 251.875 332.968L249.262 329.851C249.186 329.757 249.138 329.645 249.119 329.523C245.147 329.523 240.861 329.523 236.831 329.523L235.396 332.696Z" fill="#042A37"/>
<path d="M249.187 328.885L261.389 303.398C264.582 297.184 266.521 290.061 266.189 284.51L265.561 274.065C265.457 272.38 242.259 266.773 242.259 266.773C242.24 268.103 245.48 277.696 245.48 277.696L250.764 294.619C251.249 296.173 251.144 297.857 250.479 299.346L236.832 329.531C240.871 329.531 245.148 329.531 249.12 329.531C249.082 329.335 249.092 329.119 249.187 328.885Z" fill="#162C47"/>
<path d="M263.424 219.478L265.382 213.777C266.265 211.194 269.041 209.734 271.721 210.445L272.376 210.623C275.265 211.391 276.928 214.376 276.016 217.184L274.115 223.062C273.137 226.086 269.658 227.536 266.769 226.123L266.056 225.777C263.709 224.616 262.578 221.93 263.424 219.478Z" fill="#FFCABA"/>
<path d="M276.139 216.69C278.677 217.326 281.052 213.114 272.366 210.615L271.71 210.437C269.04 209.726 266.265 211.186 265.372 213.77L263.414 219.47C262.577 221.903 263.689 224.571 266.008 225.731C266.493 225.685 267.006 225.619 267.51 225.619C272.699 222.231 270.817 215.735 276.139 216.69Z" fill="#162C47"/>
<path d="M276.888 328.886L277.449 303.399C277.81 297.184 276.489 290.061 273.629 284.511C273.629 284.511 264.458 268.655 264.382 266.774C264.382 266.774 264.382 266.521 264.372 266.081C264.363 264.762 264.42 263.451 264.534 262.15C256.475 261.589 248.748 258.771 240.623 256.516C239.463 261.43 240.67 266.596 243.901 270.518L249.803 277.688L264.515 297.006C265.446 298.232 265.931 299.739 265.883 301.274L264.942 329.522C269.057 329.522 272.944 329.522 277.116 329.522C276.993 329.335 276.907 329.12 276.888 328.886Z" fill="#162C47"/>
<path d="M281.452 332.976L277.413 329.859C277.299 329.765 277.204 329.653 277.118 329.531C272.946 329.531 269.059 329.531 264.944 329.531L264.84 332.704C264.916 334.221 266.18 335.419 267.729 335.419H280.597C281.918 335.409 282.488 333.771 281.452 332.976Z" fill="#042A37"/>
<path d="M289.825 235.649C287.924 237.559 286.556 238.981 286.556 238.981L281.12 230.651C278.259 226.271 274.306 222.648 269.554 220.355C269.297 220.234 269.041 220.112 268.794 220C263.367 217.604 257 217.978 252.115 221.319C250.461 222.452 249.102 223.809 248.541 225.4C247.23 229.144 243.086 246.217 240.635 256.456C240.635 256.475 240.625 256.494 240.625 256.512C248.751 258.768 256.477 261.585 264.536 262.147C265.154 255.033 267.596 248.154 271.664 242.192L282.982 250.035C285.206 251.58 288.238 251.336 290.167 249.446C292.524 247.153 294.786 244.691 296.82 242.323C295.518 238.804 293.284 235.415 289.825 235.649Z" fill="#FF6726"/>
<path d="M301.048 225.883C299.565 226.089 293.626 231.836 289.824 235.646C293.274 235.412 295.517 238.8 296.819 242.319C301.495 236.881 304.963 231.958 305.477 230.685C306.436 228.326 303.262 225.574 301.048 225.883Z" fill="#FFCABA"/>
<path d="M473.319 255.34C472.664 253.842 472.578 252.167 473.082 250.613L478.537 233.737C478.537 233.737 481.873 224.181 481.873 222.852C481.873 222.852 458.608 228.233 458.494 229.918L457.762 240.364C457.372 245.905 459.235 253.056 462.371 259.299L474.317 284.898C474.403 285.132 474.412 285.357 474.374 285.544C478.622 285.544 482.424 285.544 486.615 285.544L473.319 255.34Z" fill="#FFA489"/>
<path d="M486.617 285.547C482.426 285.547 478.625 285.547 474.376 285.547C474.348 285.669 474.3 285.781 474.224 285.865L471.582 288.954C470.908 289.749 472.21 291.397 473.531 291.416L486.398 291.537C487.938 291.556 488.679 290.367 488.071 288.842L486.617 285.547Z" fill="#042A37"/>
<path d="M459.521 174.399L457.621 168.68C456.756 166.088 454 164.6 451.32 165.283L450.664 165.451C447.765 166.191 446.074 169.158 446.958 171.984L448.801 177.872C449.752 180.904 453.22 182.383 456.11 180.998L456.822 180.652C459.189 179.529 460.339 176.852 459.521 174.399Z" fill="#FFCABA"/>
<path d="M446.947 181.903C445.626 183.269 444.429 184.767 443.374 186.358L437.852 194.632C437.852 194.632 425.707 181.725 423.492 181.388C421.278 181.051 418.085 183.775 419.007 186.152C419.719 187.986 426.448 197.412 434.127 205.059C436.047 206.968 439.069 207.24 441.312 205.723L450.492 194.576L451.898 196.747C452.839 191.038 451.395 184.57 446.947 181.903Z" fill="#FFCABA"/>
<path d="M446.073 285.587L442.005 288.667C440.96 289.453 441.521 291.1 442.832 291.11L455.7 291.231C457.24 291.25 458.532 290.061 458.618 288.545L458.551 285.531C454.36 285.531 450.102 285.531 446.12 285.531C446.111 285.559 446.092 285.578 446.073 285.587Z" fill="#042A37"/>
<path d="M459.301 252.874L473.176 235.025C467.445 233.714 461.781 232.076 456.193 230.008C453.523 234.866 450.32 240.285 450.32 240.285C447.402 245.798 446.005 252.921 446.309 259.136L446.614 284.622C446.585 284.978 446.405 285.306 446.129 285.54C450.101 285.54 454.369 285.54 458.56 285.54L457.904 257.123C457.856 255.598 458.351 254.091 459.301 252.874Z" fill="#FFCABA"/>
<path d="M458.255 175.706C457.485 175.65 454.586 176.333 452.248 177.691C450.281 178.833 448.523 180.274 446.945 181.903C451.393 184.57 452.838 191.038 451.897 196.738L452.704 197.983C454.957 201.352 456.686 204.993 457.865 208.812C464.128 208.307 469.944 206.126 475.095 202.719C470.837 191.478 468.119 176.38 458.255 175.706Z" fill="#FF6726"/>
<path d="M482.652 213.239C480.295 208.026 476.237 205.517 476.237 205.517C475.847 204.619 475.467 203.683 475.106 202.719C469.955 206.126 464.139 208.307 457.876 208.812C459.197 213.043 459.843 217.47 459.767 221.944C459.757 222.384 459.757 222.636 459.757 222.636C459.719 223.413 458.094 226.577 456.203 230.012C461.791 232.081 467.455 233.709 473.186 235.029L474.222 233.7L480.19 226.586C483.459 222.674 484.752 217.863 482.652 213.239Z" fill="white"/>
<path d="M451.262 238.685C451.262 238.685 463.493 250.039 486.701 247.465C486.701 247.465 481.35 233.884 483.678 221.257C485.475 211.476 476.247 205.523 476.247 205.523C476.247 205.523 470.278 211.373 458.95 213.011C458.95 213.011 460.252 220.396 455.814 227.117C453.096 231.216 451.262 238.685 451.262 238.685Z" fill="#162C47"/>
<path d="M449.512 171.291C449.512 171.291 446.423 173.93 445.178 171.824C443.933 169.718 445.245 164.524 451.222 163.878C456.763 163.279 458.968 167.463 461.268 171.291C465.069 177.618 478.174 181.521 477.785 189.973C477.186 202.946 461.268 201.542 458.683 193.539C456.696 187.39 459.538 180.014 456.905 177.796C454.273 175.578 451.631 177.637 449.512 171.291Z" fill="#042A37"/>
<path d="M282.62 98.2415L282.725 73.7188L273.924 75.1602C269.382 75.909 265.666 79.1475 264.373 83.5091L261.997 95.5272C261.095 98.5504 262.777 101.733 265.799 102.753L276.338 107.994C279.522 105.58 281.603 101.929 282.62 98.2415Z" fill="#004467"/>
<path d="M293.437 106.76L282.622 98.2422C281.605 101.93 279.533 105.58 276.34 107.995L290.177 114.875C292.61 115.698 295.233 114.313 295.898 111.87C296.459 109.802 295.413 107.639 293.437 106.76Z" fill="#FFCABA"/>
<path d="M274.532 78.6091L275.188 73.2459C275.54 70.3631 278.115 68.2477 281.061 68.4069C284.245 68.5847 286.63 71.3458 286.307 74.472L285.746 79.8633C285.395 83.2235 282.088 85.4792 278.771 84.6274L278.676 84.5994C275.967 83.8974 274.2 81.3421 274.532 78.6091Z" fill="#FFCABA"/>
<path d="M274.636 77.8145C274.636 77.8145 277.24 76.3825 277.459 72.8444C277.459 72.8444 283.066 74.9504 286.335 73.6026C289.614 72.2548 289.006 68.3985 286.82 67.3409C284.15 66.0492 282.724 68.3985 282.724 68.3985C282.724 68.3985 279.16 67.3128 276.338 69.8774C273.448 72.4981 274.636 77.8145 274.636 77.8145Z" fill="#042A37"/>
<path d="M282.62 98.2462L274.086 92.3027C273.525 91.9189 273.944 91.0578 274.599 91.245L282.639 93.6131L282.62 98.2462Z" fill="#042A37"/>
<path d="M261.732 142.648H182.358C180.933 142.648 179.773 143.79 179.773 145.194C179.773 146.598 180.933 147.74 182.358 147.74H261.732C263.158 147.74 264.317 146.598 264.317 145.194C264.317 143.79 263.158 142.648 261.732 142.648Z" fill="url(#paint10_linear_2180_9930)"/>
<path d="M169.585 142.771H248.959C250.384 142.771 251.544 141.63 251.544 140.226C251.544 138.822 250.384 137.68 248.959 137.68H169.585C168.159 137.68 167 138.822 167 140.226C167 141.63 168.159 142.771 169.585 142.771Z" fill="url(#paint11_linear_2180_9930)"/>
<path d="M173.464 137.679H260.84C261.553 137.679 262.133 137.108 262.133 136.406C262.133 135.704 261.553 135.133 260.84 135.133H173.464C172.752 135.133 172.172 135.704 172.172 136.406C172.172 137.108 172.752 137.679 173.464 137.679Z" fill="white"/>
<g opacity="0.6">
<g opacity="0.6">
<path opacity="0.6" d="M217.076 46.1678C217.01 46.1678 216.943 46.1584 216.877 46.1303L213.921 44.9697C212.638 45.7559 211.165 46.1678 209.645 46.1678C205.149 46.1678 201.5 42.5642 201.5 38.1464C201.5 33.7192 205.159 30.125 209.645 30.125C214.14 30.125 217.789 33.7285 217.789 38.1464C217.789 39.8405 217.257 41.4504 216.259 42.8169L217.561 45.3909C217.666 45.5874 217.628 45.8308 217.476 45.9899C217.371 46.1022 217.219 46.1678 217.076 46.1678ZM209.635 31.1827C205.739 31.1827 202.574 34.2995 202.574 38.137C202.574 41.9745 205.739 45.0914 209.635 45.0914C211.032 45.0914 212.391 44.6889 213.551 43.9214C213.703 43.8278 213.883 43.8091 214.054 43.8652L215.955 44.6047L215.128 42.976C215.033 42.7889 215.062 42.5736 215.185 42.4051C216.174 41.1696 216.696 39.6814 216.696 38.1183C216.706 34.3088 213.532 31.1827 209.635 31.1827Z" fill="#000709"/>
<g opacity="0.6">
<path opacity="0.6" d="M242.84 38.6815C240.454 38.6815 238.516 36.7721 238.516 34.4228C238.516 32.0735 240.454 30.1641 242.84 30.1641C245.225 30.1641 247.164 32.0735 247.164 34.4228C247.164 36.7627 245.225 38.6815 242.84 38.6815ZM242.84 31.2217C241.053 31.2217 239.599 32.6538 239.599 34.4134C239.599 36.1731 241.053 37.6051 242.84 37.6051C244.626 37.6051 246.08 36.1731 246.08 34.4134C246.09 32.6538 244.636 31.2217 242.84 31.2217Z" fill="#000709"/>
<path opacity="0.6" d="M248.056 46.1348H237.621C236.908 46.1348 236.253 45.7792 235.863 45.1895C235.483 44.6092 235.426 43.8978 235.711 43.2707C236.975 40.5002 239.778 38.7031 242.848 38.7031C245.918 38.7031 248.721 40.4909 249.985 43.2707C250.27 43.8885 250.213 44.6092 249.833 45.1895C249.434 45.7792 248.769 46.1348 248.056 46.1348ZM242.839 39.7701C240.197 39.7701 237.783 41.3145 236.69 43.7013C236.557 44.0008 236.585 44.3284 236.766 44.5998C236.956 44.89 237.269 45.0585 237.621 45.0585H248.056C248.398 45.0585 248.721 44.89 248.911 44.5998C249.092 44.319 249.12 43.9914 248.987 43.7013C247.904 41.3145 245.49 39.7701 242.839 39.7701Z" fill="#000709"/>
</g>
<path opacity="0.6" d="M216.639 73.7347H212.742C211.915 73.7347 211.241 73.0702 211.241 72.2559V67.0518C211.241 66.5932 211.041 66.1533 210.689 65.8538C210.328 65.5449 209.872 65.4139 209.397 65.4794C208.627 65.5823 208.028 66.3498 208.028 67.2109V72.2465C208.028 73.0608 207.354 73.7254 206.527 73.7254H202.63C201.804 73.7254 201.129 73.0608 201.129 72.2465V66.509C201.129 66.0129 201.319 65.5355 201.661 65.1611L208.285 58.1413C208.627 57.7762 209.121 57.5703 209.625 57.5703C210.129 57.5703 210.623 57.7762 210.965 58.1413L217.589 65.1611C217.931 65.5262 218.121 66.0035 218.121 66.509V72.2465C218.14 73.0702 217.466 73.7347 216.639 73.7347ZM209.635 64.4124C210.281 64.4124 210.908 64.637 211.402 65.0582C211.991 65.5636 212.324 66.2937 212.324 67.0612V72.2653C212.324 72.4899 212.514 72.6771 212.742 72.6771H216.639C216.867 72.6771 217.057 72.4899 217.057 72.2653V66.5277C217.057 66.2937 216.971 66.0784 216.81 65.9099L210.186 58.8901C210.043 58.7403 209.853 58.6561 209.644 58.6561C209.435 58.6561 209.245 58.7403 209.102 58.8901L202.478 65.9099C202.317 66.0784 202.231 66.2937 202.231 66.5277V72.2653C202.231 72.4899 202.421 72.6771 202.649 72.6771H206.546C206.774 72.6771 206.964 72.4899 206.964 72.2653V67.2297C206.964 65.8257 207.952 64.6276 209.264 64.4404C209.378 64.4217 209.502 64.4124 209.635 64.4124Z" fill="#000709"/>
<g opacity="0.6">
<path opacity="0.6" d="M242.842 72.526C238.698 72.526 235.324 69.2033 235.324 65.1224C235.324 61.0415 238.698 57.7188 242.842 57.7188C246.985 57.7188 250.359 61.0415 250.359 65.1224C250.359 69.2126 246.985 72.526 242.842 72.526ZM242.842 58.7858C239.297 58.7858 236.408 61.6312 236.408 65.1224C236.408 68.6136 239.297 71.459 242.842 71.459C246.386 71.459 249.275 68.6136 249.275 65.1224C249.275 61.6312 246.396 58.7858 242.842 58.7858Z" fill="#000709"/>
<path opacity="0.6" d="M249.628 73.6006C249.476 73.6006 249.324 73.5351 249.22 73.4134L246.891 70.7552C246.692 70.5306 246.72 70.1936 246.948 70.0064C247.176 69.8099 247.519 69.838 247.709 70.0626L250.037 72.7208C250.237 72.9454 250.208 73.2824 249.98 73.4696C249.875 73.5538 249.752 73.6006 249.628 73.6006Z" fill="#000709"/>
</g>
<path opacity="0.6" d="M209.635 101.034C209.521 101.034 209.397 100.996 209.302 100.922C208.96 100.66 200.996 94.4165 200.996 89.9332C201.091 87.3405 203.21 85.3281 205.824 85.3281C207.344 85.3281 208.732 86.0208 209.644 87.172C210.547 86.0114 211.944 85.3281 213.465 85.3281C216.078 85.3281 218.198 87.3405 218.293 89.9144C218.293 94.4072 210.329 100.66 209.986 100.922C209.872 100.996 209.758 101.034 209.635 101.034ZM205.824 86.3951C203.8 86.3951 202.156 87.9582 202.079 89.9519C202.079 93.4337 208.133 98.591 209.644 99.8171C211.146 98.5816 217.209 93.415 217.209 89.9332C217.133 87.9582 215.489 86.3951 213.465 86.3951C212.049 86.3951 210.775 87.172 210.129 88.4169C210.034 88.5947 209.853 88.707 209.644 88.707C209.445 88.707 209.255 88.5947 209.16 88.4169C208.513 87.1627 207.23 86.3951 205.824 86.3951Z" fill="#000709"/>
<g opacity="0.6">
<g opacity="0.6">
<path opacity="0.6" d="M250.538 98.9376C250.243 98.9376 249.996 98.6943 249.996 98.4041V88.5576C249.996 87.4718 249.093 86.5826 247.991 86.5826H238.003C237.708 86.5826 237.461 86.3486 237.461 86.0491C237.461 85.759 237.708 85.5156 238.003 85.5156H248C249.702 85.5156 251.089 86.8822 251.089 88.5576V98.4041C251.08 98.6943 250.842 98.9376 250.538 98.9376Z" fill="#000709"/>
<path opacity="0.6" d="M250.537 98.9365C250.394 98.9365 250.252 98.8803 250.157 98.7774L247.676 96.3345C247.467 96.1285 247.467 95.7916 247.676 95.5763C247.885 95.3704 248.228 95.3704 248.446 95.5763L250.546 97.6448L252.647 95.5763C252.856 95.3704 253.198 95.3704 253.416 95.5763C253.626 95.7822 253.626 96.1192 253.416 96.3345L250.936 98.7774C250.822 98.8803 250.679 98.9365 250.537 98.9365Z" fill="#000709"/>
</g>
<g opacity="0.6">
<path opacity="0.6" d="M247.688 100.836H237.69C235.989 100.836 234.602 99.4695 234.602 97.7941V87.9476C234.602 87.6574 234.849 87.4141 235.143 87.4141C235.438 87.4141 235.685 87.6574 235.685 87.9476V97.7941C235.685 98.8799 236.588 99.769 237.69 99.769H247.688C247.983 99.769 248.23 100.012 248.23 100.303C248.23 100.602 247.983 100.836 247.688 100.836Z" fill="#000709"/>
<path opacity="0.6" d="M237.632 90.9334C237.49 90.9334 237.357 90.8772 237.252 90.7742L235.152 88.7057L233.052 90.7742C232.843 90.9802 232.5 90.9802 232.282 90.7742C232.073 90.5683 232.073 90.2314 232.282 90.0161L234.762 87.5732C234.867 87.4702 235 87.4141 235.142 87.4141C235.285 87.4141 235.427 87.4702 235.523 87.5732L238.003 90.0161C238.212 90.222 238.212 90.559 238.003 90.7742C237.908 90.8866 237.765 90.9334 237.632 90.9334Z" fill="#000709"/>
</g>
</g>
</g>
</g>
<path d="M534.571 171.292C534.571 174.174 532.205 176.505 529.278 176.505C526.351 176.505 523.984 174.174 523.984 171.292C523.984 168.409 526.351 166.078 529.278 166.078C532.195 166.078 534.571 168.409 534.571 171.292Z" fill="#CFE4E9"/>
<path opacity="0.6" d="M534.571 186.737C534.571 189.62 532.205 191.95 529.278 191.95C526.351 191.95 523.984 189.62 523.984 186.737C523.984 183.854 526.351 181.523 529.278 181.523C532.195 181.523 534.571 183.863 534.571 186.737Z" fill="#CFE4E9"/>
<path opacity="0.35" d="M534.571 202.19C534.571 205.073 532.205 207.403 529.278 207.403C526.351 207.403 523.984 205.073 523.984 202.19C523.984 199.307 526.351 196.977 529.278 196.977C532.195 196.967 534.571 199.307 534.571 202.19Z" fill="#CFE4E9"/>
<defs>
<linearGradient id="paint0_linear_2180_9930" x1="477.999" y1="89.2371" x2="586.833" y2="89.2371" gradientUnits="userSpaceOnUse">
<stop stop-color="#CFE4E9"/>
<stop offset="1" stop-color="#CFE4E9" stop-opacity="0.7"/>
</linearGradient>
<linearGradient id="paint1_linear_2180_9930" x1="194.267" y1="122.168" x2="271.467" y2="122.168" gradientUnits="userSpaceOnUse">
<stop stop-color="#CFE4E9"/>
<stop offset="1" stop-color="#CFE4E9" stop-opacity="0.7"/>
</linearGradient>
<linearGradient id="paint2_linear_2180_9930" x1="90.0016" y1="314.473" x2="167.201" y2="314.473" gradientUnits="userSpaceOnUse">
<stop stop-color="#CFE4E9"/>
<stop offset="1" stop-color="#CFE4E9" stop-opacity="0.7"/>
</linearGradient>
<linearGradient id="paint3_linear_2180_9930" x1="494.997" y1="57.8295" x2="562.475" y2="57.8295" gradientUnits="userSpaceOnUse">
<stop stop-color="#33C3FF"/>
<stop offset="1" stop-color="#5976EC"/>
</linearGradient>
<linearGradient id="paint4_linear_2180_9930" x1="53.9972" y1="271.408" x2="121.475" y2="271.408" gradientUnits="userSpaceOnUse">
<stop stop-color="#33C3FF"/>
<stop offset="1" stop-color="#5976EC"/>
</linearGradient>
<linearGradient id="paint5_linear_2180_9930" x1="494.997" y1="89.4389" x2="562.475" y2="89.4389" gradientUnits="userSpaceOnUse">
<stop stop-color="#3F86A4"/>
<stop offset="1" stop-color="#1F7795"/>
</linearGradient>
<linearGradient id="paint6_linear_2180_9930" x1="494.997" y1="89.4389" x2="562.475" y2="89.4389" gradientUnits="userSpaceOnUse">
<stop stop-color="#1A40A1"/>
<stop offset="1" stop-color="#25B2E2"/>
</linearGradient>
<linearGradient id="paint7_linear_2180_9930" x1="282.618" y1="111.718" x2="438.688" y2="111.718" gradientUnits="userSpaceOnUse">
<stop stop-color="#31C5FF"/>
<stop offset="1" stop-color="#5A72EB"/>
</linearGradient>
<linearGradient id="paint8_linear_2180_9930" x1="288.791" y1="96.0739" x2="432.515" y2="96.0739" gradientUnits="userSpaceOnUse">
<stop stop-color="#CFE4E9"/>
<stop offset="1" stop-color="#CFE4E9" stop-opacity="0.7"/>
</linearGradient>
<linearGradient id="paint9_linear_2180_9930" x1="294.428" y1="216.232" x2="428.756" y2="220.858" gradientUnits="userSpaceOnUse">
<stop stop-color="#001D47"/>
<stop offset="1" stop-color="#001D47" stop-opacity="0.6"/>
</linearGradient>
<linearGradient id="paint10_linear_2180_9930" x1="179.768" y1="145.195" x2="264.32" y2="145.195" gradientUnits="userSpaceOnUse">
<stop stop-color="#32C4FF"/>
<stop offset="1" stop-color="#5877EC"/>
</linearGradient>
<linearGradient id="paint11_linear_2180_9930" x1="251.552" y1="140.225" x2="167" y2="140.225" gradientUnits="userSpaceOnUse">
<stop stop-color="#FF8262"/>
<stop offset="1" stop-color="#D85D59"/>
</linearGradient>
</defs>
</svg>
