<svg width="690" height="350" viewBox="0 0 690 350" fill="none" xmlns="http://www.w3.org/2000/svg">
<path d="M197.865 207.8C197.865 209.764 196.25 211.359 194.255 211.359C192.261 211.359 190.645 209.764 190.645 207.8C190.645 205.832 192.261 204.239 194.255 204.239C196.25 204.239 197.865 205.832 197.865 207.8Z" fill="#60C8A7"/>
<path d="M175.325 193.528C172.917 193.528 170.958 195.459 170.958 197.832C170.958 200.206 172.917 202.137 175.325 202.137C177.731 202.137 179.692 200.206 179.692 197.832C179.692 195.459 177.731 193.528 175.325 193.528ZM175.325 206.836C170.29 206.836 166.191 202.798 166.191 197.832C166.191 192.867 170.29 188.827 175.325 188.827C180.362 188.827 184.457 192.867 184.457 197.832C184.457 202.798 180.362 206.836 175.325 206.836Z" fill="#FBC038"/>
<path d="M438.352 30.3797H435.283V33.4057C435.283 34.7747 434.161 35.8828 432.771 35.8828C431.383 35.8828 430.259 34.7747 430.259 33.4057V30.3797H427.188C425.8 30.3797 424.676 29.2715 424.676 27.9009C424.676 26.532 425.8 25.4221 427.188 25.4221H430.259V22.3995C430.259 21.0289 431.383 19.9207 432.771 19.9207C434.161 19.9207 435.283 21.0289 435.283 22.3995V25.4221H438.352C439.74 25.4221 440.864 26.532 440.864 27.9009C440.864 29.2715 439.74 30.3797 438.352 30.3797Z" fill="#FF6726"/>
<path d="M463.05 14.6436C463.05 16.6095 461.435 18.2031 459.44 18.2031C457.446 18.2031 455.828 16.6095 455.828 14.6436C455.828 12.676 457.446 11.0824 459.44 11.0824C461.435 11.0824 463.05 12.676 463.05 14.6436Z" fill="black"/>
<path d="M519.474 50.3285V300.593C519.474 304.811 515.994 308.227 511.732 308.227H349.465C345.185 308.227 341.723 304.811 341.723 300.593V50.3285C341.723 46.1085 345.185 42.6605 349.465 42.6605H511.732C515.994 42.6605 519.474 46.1085 519.474 50.3285Z" fill="#263238"/>
<path d="M323.795 315.422H537.401C539.389 315.422 541.002 313.832 541.002 311.873C541.002 309.912 539.389 308.323 537.401 308.323H323.795C321.806 308.323 320.195 309.912 320.195 311.873C320.195 313.832 321.806 315.422 323.795 315.422Z" fill="#E4E4E3"/>
<path d="M519.468 50.3308V68.9844H341.723V50.3308C341.723 46.1125 345.192 42.6697 349.468 42.6697H511.723C515.999 42.6697 519.468 46.1125 519.468 50.3308Z" fill="#263238"/>
<path d="M430.596 301.664C426.571 301.664 423.309 298.448 423.309 294.478C423.309 290.512 426.571 287.294 430.596 287.294C434.619 287.294 437.883 290.512 437.883 294.478C437.883 298.448 434.619 301.664 430.596 301.664Z" fill="#E8F7E9"/>
<path d="M362.18 58.5156C360.543 58.5156 359.219 57.2085 359.219 55.596C359.219 53.9834 360.543 52.6763 362.18 52.6763C363.813 52.6763 365.141 53.9834 365.141 55.596C365.141 57.2085 363.813 58.5156 362.18 58.5156Z" fill="#E8F7E9"/>
<path d="M371.615 58.5156C369.98 58.5156 368.652 57.2085 368.652 55.596C368.652 53.9834 369.98 52.6763 371.615 52.6763C373.251 52.6763 374.576 53.9834 374.576 55.596C374.576 57.2085 373.251 58.5156 371.615 58.5156Z" fill="#E8F7E9"/>
<path d="M344.477 279.656H516.699V68.9874H344.477V279.656Z" fill="white"/>
<path d="M318.266 139.555H375.293V114.607H318.266V139.555Z" fill="#929292"/>
<path d="M353.066 203.094H410.094V178.146H353.066V203.094Z" fill="#929292"/>
<path d="M335.668 171.32H392.695V146.373H335.668V171.32Z" fill="#929292"/>
<path d="M353.066 106.172H506.862V77.7969H353.066V106.172Z" fill="#F0FAF5"/>
<path d="M481.809 102.07H502.258V81.9066H481.809V102.07Z" fill="#D6EDF5"/>
<path d="M363.004 87.0078H407.269V83.1193H363.004V87.0078Z" fill="#79827C"/>
<path d="M363.004 93.9297H407.269V90.0405H363.004V93.9297Z" fill="#79827C"/>
<path d="M363.004 100.844H392.804V96.9552H363.004V100.844Z" fill="#79827C"/>
<path d="M519.473 257.234H535.919V199.023H519.473V257.234Z" fill="#5F5F5F"/>
<path d="M516.703 257.234H519.475V199.023H516.703V257.234Z" fill="#263238"/>
<path d="M516.703 257.234H410.094V199.023H417.124V203.094H506.863V199.023H516.703V257.234Z" fill="#5F5F5F"/>
<path d="M422.648 224.117H472.021V219.203H422.648V224.117Z" fill="#E8F7E9"/>
<path d="M422.648 232.844H460.301V227.931H422.648V232.844Z" fill="#E8F7E9"/>
<path d="M422.648 241.586H448.042V236.674H422.648V241.586Z" fill="#E8F7E9"/>
<path d="M451.18 241.586H466.314V236.674H451.18V241.586Z" fill="#E8F7E9"/>
<path d="M422.648 250.32H456.979V245.407H422.648V250.32Z" fill="#E8F7E9"/>
<path d="M353.066 257.234H398.472V212.465H353.066V257.234Z" fill="#A1DDB3"/>
<path d="M390.003 234.96C390.003 242.71 383.631 248.992 375.77 248.992C367.91 248.992 361.539 242.71 361.539 234.96C361.539 227.21 367.91 220.926 375.77 220.926C383.631 220.926 390.003 227.21 390.003 234.96Z" fill="#7ACF93"/>
<path d="M386.556 234.964C386.556 238.484 384.827 241.594 382.16 243.531C381.368 244.111 380.486 244.581 379.552 244.927C379.131 245.083 378.696 245.212 378.254 245.317C377.988 245.379 377.718 245.43 377.445 245.473C376.9 245.559 376.344 245.602 375.771 245.602C374.66 245.602 373.583 245.43 372.568 245.126C368.174 243.778 364.988 239.736 364.988 234.964C364.988 233.302 365.376 231.734 366.063 230.334C366.905 228.617 368.202 227.157 369.802 226.113C370.174 225.862 370.568 225.641 370.971 225.438C371.848 225.008 372.795 224.694 373.788 224.512C374.433 224.394 375.095 224.332 375.771 224.332C380.349 224.332 384.267 227.147 385.82 231.118C386.297 232.309 386.556 233.607 386.556 234.964Z" fill="#F2F7F7"/>
<path d="M375.765 236.195C375.078 236.195 374.52 235.643 374.52 234.965V228.155C374.52 227.478 375.078 226.925 375.765 226.925C376.454 226.925 377.013 227.478 377.013 228.155V234.965C377.013 235.643 376.454 236.195 375.765 236.195Z" fill="#C2DBCC"/>
<path d="M375.768 236.195C375.352 236.195 374.948 235.989 374.71 235.619C374.345 235.044 374.52 234.284 375.103 233.922L378.689 231.704C379.275 231.342 380.042 231.521 380.408 232.094C380.773 232.668 380.597 233.427 380.015 233.789L376.429 236.007C376.224 236.134 375.994 236.195 375.768 236.195Z" fill="#C2DBCC"/>
<path d="M417.121 203.094H506.859V114.61H417.121V203.094Z" fill="#FF6726"/>
<path d="M461.989 162.844C455.677 162.844 450.559 157.799 450.559 151.575V144.815C450.559 138.591 455.677 133.546 461.989 133.546C468.301 133.546 473.416 138.591 473.416 144.815V151.575C473.416 157.799 468.301 162.844 461.989 162.844Z" fill="#FAFDFB"/>
<path d="M461.992 157.06C451.219 157.06 441.924 163.289 437.605 172.293C435.081 177.558 438.949 183.641 444.855 183.641H479.127C485.035 183.641 488.902 177.558 486.374 172.293C482.058 163.289 472.761 157.06 461.992 157.06Z" fill="#FAFDFB"/>
<path d="M353.066 267.414H506.862V260.199H353.066V267.414Z" fill="#FDDF9B"/>
<path d="M518.387 111.75V85.3769C520.293 85.3769 521.838 86.9003 521.838 88.7804V108.347C521.838 110.227 520.293 111.75 518.387 111.75Z" fill="#3E4444"/>
<path d="M518.387 141.18V114.807C520.293 114.807 521.838 116.33 521.838 118.21V137.776C521.838 139.656 520.293 141.18 518.387 141.18Z" fill="#3E4444"/>
<path d="M365.909 146.375H344.477V139.554H372.826L365.909 146.375ZM375.295 137.118V114.607H344.477V114.545L353.062 106.078V106.169H406.683L375.295 137.118ZM435.461 77.7937H381.749L390.685 68.9815H444.398L435.461 77.7937Z" fill="white"/>
<path d="M372.826 139.555H344.477V114.607H375.295V137.119L372.826 139.555Z" fill="#809091"/>
<path d="M353.502 158.609C353.189 158.553 352.867 158.524 352.54 158.524H344.477V146.377H365.909L353.502 158.609Z" fill="#809091"/>
<path d="M406.687 106.172H353.066V106.081L365.393 93.9289H407.269V90.0399H369.337L372.404 87.0157H407.269V83.1268H376.348L381.753 77.7969H435.465L406.687 106.172ZM363.004 96.9549V100.844H392.804V96.9549H363.004Z" fill="#F2FBF7"/>
<path d="M407.267 87.0078H372.402L376.346 83.1189H407.267V87.0078Z" fill="#565656"/>
<path d="M407.263 93.9297H365.387L369.331 90.0408H407.263V93.9297Z" fill="#565656"/>
<path d="M363.004 100.844H392.804V96.9552H363.004V100.844Z" fill="#565656"/>
<path d="M378.002 171.32H357.934V164.625L376.448 146.373H392.692V156.837L378.002 171.32Z" fill="#809091"/>
<path d="M444.087 106.172H417.23L446.013 77.7969H472.868L444.087 106.172Z" fill="#F2FBF7"/>
<path d="M417.121 132.758V114.609H435.531L417.121 132.758Z" fill="#303131"/>
<path d="M378.602 308.227H361.674V289.352H357.934V279.649H378.602V308.227Z" fill="#46ABB7"/>
<path d="M378.602 279.656H357.934V267.422H378.602V279.656ZM378.602 260.207H357.934V257.237H378.602V260.207ZM378.602 212.468H357.934V203.096H378.602V212.468ZM378.386 178.149H371.084L374.743 174.541C376.495 175.049 377.875 176.416 378.386 178.149Z" fill="#A2CBDB"/>
<path d="M378.602 203.094H357.934V191.11L371.084 178.146H378.386C378.527 178.62 378.602 179.122 378.602 179.642V203.094Z" fill="#82BAC7"/>
<path d="M378.602 257.234H357.934V212.465H378.602V218.565C379.472 218.874 380.116 219.663 380.116 220.624V221.603C378.745 221.171 377.283 220.936 375.766 220.936C367.906 220.936 361.535 227.219 361.535 234.97C361.535 242.72 367.906 249.002 375.766 249.002C376.737 249.002 377.685 248.906 378.602 248.724V257.234Z" fill="#73C9A2"/>
<path d="M375.77 248.992C367.91 248.992 361.539 242.71 361.539 234.96C361.539 227.21 367.91 220.926 375.77 220.926C377.287 220.926 378.749 221.161 380.12 221.593V225.227C378.789 224.647 377.317 224.326 375.77 224.326C375.094 224.326 374.432 224.388 373.787 224.506C372.794 224.688 371.847 225.002 370.97 225.432C370.567 225.635 370.173 225.856 369.801 226.107C368.201 227.151 366.904 228.611 366.062 230.328C365.375 231.728 364.987 233.296 364.987 234.958C364.987 239.731 368.173 243.772 372.567 245.12C373.582 245.424 374.659 245.596 375.77 245.596C376.343 245.596 376.899 245.553 377.444 245.467C377.717 245.424 377.987 245.373 378.253 245.311C378.599 245.23 378.94 245.132 379.274 245.021C379.074 245.175 378.85 245.299 378.606 245.385V248.714C377.689 248.896 376.741 248.992 375.77 248.992Z" fill="#55B986"/>
<path d="M375.771 245.602C374.66 245.602 373.583 245.43 372.568 245.126C368.174 243.778 364.988 239.736 364.988 234.964C364.988 233.302 365.376 231.734 366.063 230.334C366.905 228.617 368.202 227.157 369.802 226.113C370.174 225.862 370.568 225.641 370.971 225.438C371.848 225.008 372.795 224.694 373.788 224.512C374.433 224.394 375.095 224.332 375.771 224.332C377.318 224.332 378.79 224.653 380.121 225.233V231.775C379.901 231.607 379.63 231.518 379.355 231.518C379.129 231.518 378.901 231.578 378.694 231.705L377.019 232.743V228.156C377.019 227.478 376.46 226.926 375.771 226.926C375.084 226.926 374.526 227.478 374.526 228.156V234.966C374.526 234.966 374.526 234.966 374.526 234.968C374.524 235.191 374.587 235.415 374.715 235.619C374.83 235.8 374.987 235.942 375.164 236.038C375.164 236.04 375.166 236.04 375.166 236.04C375.168 236.041 375.169 236.041 375.171 236.043C375.347 236.139 375.547 236.194 375.761 236.196C375.764 236.196 375.766 236.196 375.768 236.196C375.77 236.196 375.771 236.196 375.771 236.196C375.771 236.196 375.771 236.196 375.773 236.196C375.999 236.196 376.229 236.134 376.434 236.007L380.02 233.789C380.055 233.767 380.089 233.744 380.121 233.719V243.332C380.121 244.025 379.787 244.627 379.275 245.027C378.941 245.138 378.6 245.236 378.254 245.317C377.988 245.379 377.718 245.43 377.445 245.473C376.9 245.559 376.344 245.602 375.771 245.602Z" fill="#B8C5D0"/>
<path d="M375.765 236.195C375.765 236.195 375.763 236.195 375.762 236.195C375.763 236.195 375.765 236.195 375.767 236.195C375.765 236.195 375.765 236.195 375.765 236.195ZM375.755 236.195C375.541 236.194 375.341 236.139 375.165 236.043C375.346 236.14 375.549 236.192 375.755 236.195ZM375.16 236.039C375.16 236.039 375.158 236.039 375.158 236.038C375.158 236.039 375.16 236.039 375.16 236.039ZM374.52 234.967C374.52 234.965 374.52 234.965 374.52 234.965V228.155C374.52 227.478 375.078 226.925 375.765 226.925C376.454 226.925 377.013 227.478 377.013 228.155V232.742L375.102 233.922C374.727 234.157 374.52 234.557 374.52 234.967Z" fill="#90ADAE"/>
<path d="M375.767 236.195C375.765 236.195 375.764 236.195 375.762 236.195C375.76 236.195 375.758 236.195 375.755 236.195C375.55 236.192 375.346 236.14 375.165 236.043C375.163 236.041 375.162 236.041 375.16 236.039C375.16 236.039 375.158 236.039 375.158 236.038C374.981 235.941 374.824 235.799 374.709 235.619C374.58 235.415 374.518 235.19 374.52 234.967C374.52 234.557 374.727 234.157 375.102 233.922L377.013 232.742L378.688 231.704C378.895 231.577 379.123 231.517 379.349 231.517C379.624 231.517 379.895 231.607 380.115 231.775V233.718C380.083 233.744 380.049 233.766 380.014 233.789L376.428 236.007C376.223 236.134 375.993 236.195 375.767 236.195Z" fill="#90ADAE"/>
<path d="M357.934 267.414H378.602V260.199H357.934V267.414Z" fill="#BFB485"/>
<path d="M371.084 178.141H357.934V174.319H373.226C373.753 174.319 374.263 174.394 374.743 174.533L371.084 178.141Z" fill="#A9CDDA"/>
<path d="M357.934 191.109V178.146H371.084L357.934 191.109Z" fill="#94C1CC"/>
<path d="M357.934 163.842V337.598C357.934 340.531 355.516 342.898 352.541 342.898H260.056C257.098 342.898 254.68 340.531 254.68 337.598V163.842C254.68 160.908 257.098 158.524 260.056 158.524H352.541C355.516 158.524 357.934 160.908 357.934 163.842Z" fill="#263238"/>
<path d="M357.924 163.838V176.789H254.684V163.838C254.684 160.911 257.091 158.52 260.059 158.52H352.548C355.518 158.52 357.924 160.911 357.924 163.838Z" fill="#263238"/>
<path d="M306.311 338.344C303.515 338.344 301.25 336.11 301.25 333.354C301.25 330.599 303.515 328.365 306.311 328.365C309.103 328.365 311.37 330.599 311.37 333.354C311.37 336.11 309.103 338.344 306.311 338.344Z" fill="#E8F7E9"/>
<path d="M287.617 169.531C286.483 169.531 285.562 168.624 285.562 167.505C285.562 166.385 286.483 165.478 287.617 165.478C288.753 165.478 289.674 166.385 289.674 167.505C289.674 168.624 288.753 169.531 287.617 169.531Z" fill="#E8F7E9"/>
<path d="M316.68 168.25H296.229C295.812 168.25 295.473 167.915 295.473 167.504C295.473 167.09 295.812 166.756 296.229 166.756H316.68C317.101 166.756 317.439 167.09 317.439 167.504C317.439 167.915 317.101 168.25 316.68 168.25Z" fill="#E8F7E9"/>
<path d="M256.598 323.062H356.006V176.806H256.598V323.062Z" fill="#D6F2F9"/>
<path d="M264.598 260.172H282.627V254.554H264.598V260.172Z" fill="#F0FAF5"/>
<path d="M310.512 260.172H328.543V254.554H310.512V260.172Z" fill="#F0FAF5"/>
<path d="M287.555 260.172H305.584V254.554H287.555V260.172Z" fill="#F0FAF5"/>
<path d="M275.414 284.453H348.167V264.753H275.414V284.453Z" fill="#F0FAF5"/>
<path d="M330.773 281.602H344.97V267.604H330.773V281.602Z" fill="#D7F1E1"/>
<path d="M271.648 271.148H302.378V268.448H271.648V271.148Z" fill="#79827C"/>
<path d="M271.648 275.953H302.378V273.255H271.648V275.953Z" fill="#79827C"/>
<path d="M271.648 280.758H292.337V278.058H271.648V280.758Z" fill="#79827C"/>
<path d="M264.75 313.953H317.922V289.352H264.75V313.953Z" fill="#F0FAF5"/>
<path d="M271.648 295.75H298.776V293.05H271.648V295.75Z" fill="#FDDF9B"/>
<path d="M271.648 300.562H292.337V297.863H271.648V300.562Z" fill="#FDDF9B"/>
<path d="M271.648 305.359H285.601V302.661H271.648V305.359Z" fill="#FDDF9B"/>
<path d="M287.32 305.359H295.638V302.661H287.32V305.359Z" fill="#79827C"/>
<path d="M271.648 310.156H290.511V307.456H271.648V310.156Z" fill="#FDDF9B"/>
<path d="M256.82 248.828H328.689V185.906H256.82V248.828Z" fill="#E7EFCF"/>
<path d="M317 217.501C317 228.27 307.822 237 296.501 237C285.177 237 276 228.27 276 217.501C276 206.732 285.177 198 296.501 198C307.822 198 317 206.732 317 217.501Z" fill="#FBC038"/>
<path d="M312 217.496C312 222.626 309.518 227.16 305.684 229.982C304.544 230.827 303.276 231.513 301.932 232.02C301.329 232.246 300.704 232.434 300.068 232.585C299.686 232.676 299.301 232.752 298.907 232.812C298.124 232.94 297.323 233 296.501 233C294.899 233 293.353 232.752 291.897 232.306C285.579 230.345 281 224.453 281 217.496C281 215.075 281.559 212.789 282.547 210.753C283.754 208.248 285.619 206.12 287.921 204.595C288.456 204.233 289.022 203.91 289.603 203.615C290.863 202.989 292.222 202.529 293.648 202.264C294.576 202.091 295.528 202 296.501 202C303.081 202 308.711 206.106 310.945 211.893C311.63 213.627 312 215.521 312 217.496Z" fill="#F2F7F7"/>
<path d="M296.5 220C295.671 220 295 219.226 295 218.275V208.725C295 207.772 295.671 207 296.5 207C297.327 207 298 207.772 298 208.725V218.275C298 219.226 297.327 220 296.5 220Z" fill="#C2DBCC"/>
<path d="M296.644 220C296.098 220 295.564 219.694 295.251 219.136C294.769 218.276 295.002 217.14 295.771 216.599L300.488 213.28C301.252 212.743 302.267 213.001 302.75 213.862C303.23 214.722 302.999 215.857 302.23 216.399L297.513 219.717C297.243 219.909 296.941 220 296.644 220Z" fill="#C2DBCC"/>
<path d="M316.672 186H279L288.328 177H326L316.672 186Z" fill="#E0F5FB"/>
<path d="M259 243L278.333 187.288L279.646 186H317L303.714 199.058C301.6 198.315 299.324 197.909 296.95 197.909C285.859 197.909 276.87 206.745 276.87 217.643C276.87 219.976 277.281 222.213 278.037 224.29L259 243Z" fill="#EDF5E0"/>
<path d="M277.174 224C276.413 221.953 276 219.748 276 217.449C276 206.708 285.041 198 296.197 198C298.584 198 300.874 198.4 303 199.133L299.023 202.961C298.108 202.797 297.163 202.71 296.197 202.71C295.236 202.71 294.297 202.795 293.38 202.961C291.972 203.213 290.631 203.65 289.387 204.246C288.814 204.526 288.254 204.833 287.727 205.177C285.453 206.627 283.613 208.651 282.421 211.033C281.446 212.969 280.894 215.143 280.894 217.446C280.894 218.376 280.983 219.286 281.155 220.168L277.174 224Z" fill="#FAD36C"/>
<path d="M281.259 221C281.089 220.039 281 219.049 281 218.037C281 215.531 281.548 213.165 282.516 211.058C283.699 208.466 285.527 206.264 287.784 204.686C288.308 204.311 288.864 203.977 289.433 203.672C290.668 203.023 292 202.547 293.398 202.274C294.308 202.094 295.241 202 296.194 202C297.153 202 298.092 202.095 299 202.274L295.317 206.161C295.049 206.324 294.825 206.561 294.67 206.846L281.259 221Z" fill="#F4FAF9"/>
<path d="M256 270V251.812L259.665 248.261H278.44L272.6 253.92H264.055V259.479H266.861L256 270ZM328.589 199.679V186.006H323.93L333.226 177H352L328.589 199.679Z" fill="#E0F5FB"/>
<path d="M267.627 261H265V254H273L267.627 261Z" fill="#F2FBF7"/>
<path d="M279.251 249H261L280.683 229.15C283.243 232.798 286.996 235.534 291.37 236.778L279.251 249ZM315.595 212.347C314.36 207.937 311.649 204.151 308.032 201.568L323.471 186H328V199.837L315.595 212.347Z" fill="#EDF5E0"/>
<path d="M291.02 237C286.509 235.729 282.639 232.931 280 229.201L283.535 225.668C285.459 228.738 288.442 231.077 291.973 232.174C293.013 232.492 294.098 232.708 295.215 232.805L291.02 237ZM311.8 216.22C311.676 214.736 311.338 213.31 310.811 211.979C309.617 208.885 307.442 206.277 304.669 204.533L308.202 201C311.932 203.641 314.727 207.512 316 212.021L311.8 216.22Z" fill="#FAD36C"/>
<path d="M295.574 232.988C294.467 232.893 293.392 232.679 292.362 232.364C288.863 231.277 285.907 228.96 284 225.92L295.116 214.808V217.857C295.116 218.826 295.902 219.613 296.873 219.613C297.037 219.613 297.2 219.587 297.36 219.54C297.36 219.54 297.361 219.54 297.375 219.54C297.375 219.54 297.375 219.54 297.39 219.54H297.404C297.557 219.492 297.701 219.421 297.834 219.335L302.848 216.189C303.671 215.672 303.918 214.588 303.405 213.767C303.069 213.235 302.497 212.945 301.912 212.945C301.594 212.945 301.272 213.032 300.983 213.213L298.624 214.693V211.308L304.934 205C307.682 206.727 309.837 209.31 311.02 212.374C311.542 213.693 311.876 215.105 312 216.575L295.567 233" fill="#F4FAF9"/>
<path d="M296.5 220C295.671 220 295 219.147 295 218.099V214.8L298 211V214.662L295.704 216.488C295.002 217.047 294.789 218.22 295.229 219.108C295.516 219.684 296.001 219.998 296.5 220ZM296.934 219.921C296.934 219.921 296.934 219.921 296.947 219.921C296.947 219.921 296.947 219.921 296.934 219.921ZM296.947 219.921H296.958H296.947ZM296.959 219.921C297.075 219.874 297.188 219.809 297.296 219.721L297.326 219.699C297.213 219.793 297.09 219.868 296.959 219.921" fill="#D3E7DC"/>
<path d="M296.642 220C296.096 220 295.564 219.694 295.251 219.136C294.769 218.276 295.002 217.141 295.771 216.599L298.283 214.832L300.488 213.281C300.757 213.091 301.058 213 301.355 213C301.902 213 302.437 213.304 302.75 213.862C303.23 214.722 302.999 215.858 302.23 216.399L297.546 219.696L297.513 219.717C297.394 219.801 297.271 219.865 297.144 219.91H297.13C297.13 219.91 297.13 219.91 297.117 219.91C297.117 219.91 297.117 219.91 297.103 219.91C296.954 219.96 296.801 219.986 296.648 219.987" fill="#D3E7DC"/>
<path d="M362 327H358V315.168H362V327ZM362 308.086H358V308H362V308.086Z" fill="#BBE7C8"/>
<path d="M358 316H362V308H358V316Z" fill="#B1E3C0"/>
<path d="M358 308H362V290H358V308Z" fill="#80D3B3"/>
<path d="M358 327H323V322.885H356.055V290H358V327Z" fill="#88D5A4"/>
<path d="M357 323H323V290H357V323ZM338.954 308.443C335.928 309.436 333.46 311.527 332.102 314.203C330.981 316.412 332.699 318.965 335.324 318.965H350.554C353.179 318.965 354.898 316.412 353.776 314.203C352.418 311.527 349.95 309.436 346.924 308.443C347.61 307.637 348.017 306.619 348.017 305.512V302.675C348.017 300.063 345.744 297.945 342.939 297.945C340.133 297.945 337.86 300.063 337.86 302.675V305.512C337.86 306.619 338.27 307.637 338.954 308.443Z" fill="#B0E3C7"/>
<path d="M346.031 308C344.927 307.57 343.737 307.336 342.5 307.336C341.261 307.336 340.073 307.57 338.969 308C338.363 307.155 338 306.089 338 304.929V301.956C338 299.219 340.014 297 342.5 297C344.986 297 347 299.219 347 301.956V304.929C347 306.089 346.639 307.155 346.031 308Z" fill="#F0FAFA"/>
<path d="M349.488 319H334.511C331.93 319 330.241 316.482 331.342 314.304C332.679 311.666 335.105 309.603 338.081 308.625C339.307 308.22 340.625 308 342 308C343.373 308 344.693 308.22 345.919 308.625C348.894 309.603 351.321 311.666 352.657 314.304C353.76 316.482 352.069 319 349.488 319Z" fill="#F0FAFA"/>
<path d="M336 261H347V186H336V261Z" fill="#A1DDB3"/>
<path d="M358 229V202C359.105 202 360 202.99 360 204.208V226.792C360 228.012 359.105 229 358 229Z" fill="#5DC585"/>
<path d="M254 255V248.759H255.954V249.407L254 255ZM255.954 185.517H254V163.345C254 160.397 256.464 158 259.478 158H288H259.483C256.459 158 254.005 160.403 254.005 163.345V176.362H281.565H255.955V185.511" fill="#3EB57A"/>
<path d="M281.564 177H254V163.531C254 160.487 256.454 158 259.478 158H288L281.564 177Z" fill="#3EB57A"/>
<path d="M256 250V249.352H256.221L256 250ZM277.87 186.144H256V177H281L277.87 186.144Z" fill="#A2CBDB"/>
<path d="M254 249H250V194.617C251.281 196.685 252.615 198.76 254 200.834V249ZM254 197.844C252.611 195.715 251.278 193.585 250 191.462V186H254V197.844Z" fill="#B6C0A9"/>
<path d="M254 200C252.615 198.229 251.281 196.458 250 194.693V192C251.278 193.812 252.611 195.63 254 197.448V200Z" fill="#A0BFA1"/>
<path d="M256 249H254V186H256V249Z" fill="#6FB87F"/>
<path d="M256.223 249H256V186H278L277.552 187.292L256 208.557V245.373L258.242 243.16L256.223 249Z" fill="#AEBFB0"/>
<path d="M256 246V208.602L278 187L258.288 243.753L256 246Z" fill="#B2C4BC"/>
<path d="M203.59 350H372.408C374.391 350 376 348.21 376 346.001C376 343.79 374.391 342 372.408 342H203.59C201.606 342 200 343.79 200 346.001C200 348.21 201.606 350 203.59 350Z" fill="#E4E4E3"/>
<path d="M233.937 337L237 322.898L230.758 322L229 336.696L233.937 337Z" fill="#DADFEE"/>
<path d="M228.122 334.731C227.734 334.783 227.364 334.916 227.067 335.141C225.004 336.718 218.732 339.54 215.514 339.968C212.063 340.427 211.886 342 216.74 342C221.597 342 225.156 341.602 227.322 341.652C229.486 341.704 228.923 342 234.247 342C238.333 342 237.054 337.199 235.592 334.969C235.146 334.289 234.548 333.905 233.661 334.02L228.122 334.731Z" fill="black"/>
<path d="M269 312.033L256.936 303L253 307.776L266.279 316L269 312.033Z" fill="#DADFEE"/>
<path d="M264.159 314.935C263.784 315.849 264.173 317.492 264.3 317.87C265.231 320.501 266.018 327.752 265.367 331.084C264.666 334.655 266.237 335.43 267.89 330.651C269.543 325.87 270.342 322.215 271.133 320.103C271.923 317.992 271.927 318.617 273.853 313.419C274.821 310.809 270.789 308.503 267.979 309.093C267.123 309.27 266.883 309.462 266.338 310.633C265.795 311.805 264.535 314.022 264.159 314.935Z" fill="black"/>
<path d="M231.212 112.59C229.082 110.848 225.938 111.138 224.157 113.205C219.704 118.414 214.866 123.47 210.745 127.313C206.763 131.037 204.445 133.484 201.838 134.179C195.08 132.642 183.117 115.835 177.004 104.699L176.871 104.505C176.771 104.342 176.665 104.185 176.547 104.035L176.264 103.707L175.899 103.355L175.527 103.063L175.132 102.808L174.676 102.576L174.269 102.414C174.089 102.351 173.91 102.303 173.723 102.26L173.487 102.194C171.147 101.675 167.464 103.189 164.207 101.941C160.496 100.518 155.654 98.694 156.019 101.372C156.517 105.019 158.623 107.717 161.187 108.72C163.915 109.788 170.975 108.951 173.302 109.388C178.036 117.643 188.039 142.122 200.807 143.932C201.087 143.984 201.366 144 201.68 144C205.54 144 211.006 140.704 218.027 134.162C222.113 130.353 226.724 125.451 231.841 119.473C233.604 117.406 233.325 114.315 231.212 112.59" fill="#F8A075"/>
<path d="M232.682 73.6232C225.893 69.9899 224.838 83.2431 227.027 87.5705C229.384 92.2326 236.33 96.2891 238.246 92.5088C240.735 87.5971 241.838 78.5225 232.682 73.6232Z" fill="black"/>
<path d="M231.906 120.126C227.078 126.179 222.728 131.143 218.872 135L212 128.064C215.889 124.173 220.453 119.053 224.655 113.778C226.336 111.685 229.302 111.391 231.313 113.155C233.307 114.902 233.57 118.033 231.906 120.126Z" fill="#ED7A51"/>
<path d="M234.864 121.639C230.621 125.608 226.229 129.844 221.997 134L212 124.596C217.138 119.594 221.906 115.066 225.305 111.881C228.064 109.295 232.43 109.387 235.072 112.085C237.727 114.759 237.623 119.055 234.864 121.639Z" fill="#FF6726"/>
<path d="M252.997 105.216C253.047 109.452 252.525 114.81 250.136 118.578C247.207 123.216 246.635 124.153 246.568 124.254C245.507 126.012 243.622 127 241.687 127C240.694 127 239.684 126.732 238.775 126.196C236.082 124.589 235.19 121.123 236.806 118.444C236.806 118.444 237.26 117.657 240.509 112.55C241.064 111.679 241.384 110.005 241.519 108.046C241.687 105.668 241.569 102.839 241.232 100.494C240.761 97.3968 242.915 94.5169 246.029 94.0648C249.142 93.5959 252.021 95.7224 252.492 98.82C252.626 99.7241 252.946 102.186 252.997 105.216Z" fill="#F8A075"/>
<path d="M267.938 114.707C265.042 130.919 259.392 171.624 260.619 188H219C219 188 221.509 127.678 225.451 112.98C225.925 111.219 227.566 110 229.429 110H263.879C266.435 110 268.377 112.249 267.938 114.707Z" fill="#FF6726"/>
<path d="M259.023 215C259.023 215 264.222 205.738 260.879 188H218.185C218.185 188 217.579 201.502 218.559 215H259.023Z" fill="#454545"/>
<path d="M267 307.99L260.79 314C257.65 312.429 252.578 309.096 246.972 304.709C241.745 300.616 236.034 295.626 231.014 290.29C223.735 282.605 217.835 274.229 216.731 266.925C214.229 250.346 218.904 211.404 219.491 207.139C220.129 202.58 224.77 200.473 229.307 201.112C233.861 201.751 238.243 206.172 237.622 210.714C236.104 221.645 231.342 252.419 233.154 264.455C233.24 265.042 233.412 265.698 233.637 266.389C235.5 271.846 241.693 280.325 248.921 288.822C254.838 295.747 261.462 302.671 267 307.99Z" fill="#454545"/>
<path d="M249 289.245C248.378 294.331 247.664 299.777 246.932 305C241.385 300.941 235.327 295.992 230 290.701C230.751 282.943 231.519 275.768 232.196 271.127C232.398 269.791 232.581 268.421 232.782 267C234.759 272.412 241.33 280.82 249 289.245Z" fill="#263C61"/>
<path d="M227 330.11C227.094 329.654 230.382 286.209 232.578 270.717C236.045 246.247 241.335 206.923 241.407 206.518C242.216 201.99 249.069 199.352 253.784 200.138C258.509 200.912 261.683 205.21 260.874 209.741C260.804 210.142 253.762 249.699 248.578 274.173C247.113 291.451 237.531 330.122 237.141 332" fill="#454545"/>
<path d="M253 105.113C250.115 106.938 246.683 108 242.995 108C242.449 108 241.902 107.983 241.356 107.917C241.527 105.561 241.407 102.757 241.066 100.435C240.588 97.3656 242.773 94.5121 245.932 94.0642C249.09 93.5996 252.01 95.7066 252.488 98.7758C252.624 99.6716 252.949 102.11 253 105.113" fill="#ED7A51"/>
<path d="M227 86.0008C227 95.9409 232.768 104 243.169 104C251.364 104 264 95.9409 264 86.0008C264 76.0591 255.465 68 244.939 68C234.412 68 227 76.0591 227 86.0008Z" fill="#F8A075"/>
<path d="M290.998 155.36C291.119 151.171 285.741 141.197 279.618 131.258C275.831 125.095 271.749 118.933 268.498 114.16C266.958 111.912 263.897 111.328 261.614 112.839C259.349 114.366 258.761 117.422 260.283 119.671C263.984 125.13 267.858 131.086 271.247 136.58C275.64 143.721 278.494 148.433 279.843 151.815C274.739 153.686 261.511 157.454 249.733 158.484C248.361 158.605 247.166 159.277 246.35 160.261L246.336 160.274C245.959 160.728 242.617 164.868 240.909 170.179C240.075 172.765 239.043 178.38 241.746 177.98C244.465 177.578 245.901 176.383 247.205 175.942C249.258 175.243 249.667 175.259 250.339 173.17C250.988 171.154 250.876 165.11 251.69 163.871C289.546 160.316 290.906 158.813 290.991 155.363" fill="#F8A075"/>
<path d="M235.836 332L235 331.862C235.067 331.44 241.313 292.34 244.912 273.349C248.506 254.372 254.853 209.228 254.917 208.773C256.676 202.31 256.281 196.389 255.477 188.082L256.319 188C256.98 194.837 257.664 201.908 255.743 208.949C255.689 209.349 249.339 254.515 245.74 273.511C242.145 292.492 235.902 331.578 235.836 332" fill="white"/>
<path d="M261.286 72.19C255.507 67.1888 251.098 79.284 252.158 83.8357C253.297 88.7399 259.123 94.1736 261.975 91.1084C265.683 87.1255 269.076 78.9332 261.286 72.19Z" fill="black"/>
<path d="M257.881 75.4689C253.268 78.9033 229.458 79.4335 225.456 73.31C225.456 73.31 227.857 73.842 230.184 73.0818C230.184 73.0818 225.602 71.1069 224 68.83C224 68.83 229.674 69.189 234.984 66.8828C240.295 64.5767 251.016 61.4108 257.938 67.6393C264.86 73.8658 257.882 75.4689 257.882 75.4689" fill="black"/>
<path d="M264.864 91.8139C264.435 93.9463 263.062 95.6686 261.249 96.6522C259.125 97.8029 256.589 95.9211 257.056 93.6029L258.322 87.3058C258.788 84.9878 261.865 84.1694 263.387 86.0104C264.688 87.5824 265.292 89.6795 264.864 91.8139Z" fill="#F8A075"/>
<path d="M237.178 110C236.176 112.842 239.485 114.518 245.283 113.856C249.332 113.392 253.678 111.903 257 110H237.178Z" fill="#F8A075"/>
<path d="M279 131.588L270.704 137C267.344 131.413 263.505 125.354 259.837 119.802C258.329 117.515 258.912 114.407 261.157 112.853C263.419 111.316 266.453 111.91 267.979 114.197C271.201 119.051 275.246 125.319 279 131.588Z" fill="#ED7A51"/>
<path d="M258.251 120.551C261.609 125.211 265.063 130.161 268.377 135L280 127.735C275.971 121.901 272.208 116.598 269.518 112.857C267.334 109.822 263.05 109.09 259.936 111.217C256.815 113.318 256.067 117.516 258.251 120.551Z" fill="#FF6726"/>
<path d="M173.083 99L154 89.4235L163.917 71L183 80.5749L173.083 99Z" fill="#FF6726"/>
<path d="M151.25 93L148 91.2889L149.689 88L151.133 88.7592L150.193 90.5889L152 91.5393L151.25 93Z" fill="#FDDF9B"/>
<path d="M188.311 82L186.869 81.3926L187.809 79.9302L186 79.17L186.75 78L190 79.3677L188.311 82Z" fill="#FDDF9B"/>
<path d="M190 95.2811L176.524 96L176 86.7189L189.475 86L190 95.2811Z" fill="#5FCACC"/>
<path d="M175.92 74L170 69.9168L174.082 64L180 68.0814L175.92 74Z" fill="#A0E0EE"/>
</svg>
