<svg width="690" height="350" viewBox="0 0 690 350" fill="none" xmlns="http://www.w3.org/2000/svg">
<path opacity="0.4" d="M586 311.51C586 332.769 479.887 350 349 350C218.113 350 112 332.769 112 311.51C112 290.251 218.1 273 349 273C479.9 273 586 290.172 586 311.51Z" fill="#E9EFFD"/>
<path d="M494.933 88.3991L487.551 84.4456C486.409 83.843 485.437 82.9576 484.728 81.8726C484.018 80.7876 483.594 79.5385 483.494 78.2428C483.404 76.3181 483.216 74.3995 482.931 72.4943C482.683 70.7561 482.345 69.0293 481.95 67.3366C481.635 66.187 481.691 64.9659 482.11 63.8505C482.53 62.7352 483.291 61.7835 484.283 61.1337L490.515 57.1803C493.344 55.408 493.828 51.5 491.642 48.3417L474.828 24.7345C472.574 21.6217 468.539 20.5424 465.711 22.3147L459.4 26.2681C458.327 26.8798 457.104 27.1715 455.873 27.1092C454.641 27.0468 453.453 26.633 452.447 25.916C449.138 23.75 445.651 21.8761 442.022 20.3152C440.83 19.8002 439.785 18.9914 438.984 17.9632C438.182 16.9349 437.65 15.7202 437.436 14.4304L436.309 6.47804C436.014 4.70513 435.119 3.09022 433.774 1.90917C432.43 0.728114 430.721 0.0541835 428.938 0.00250783H401.903C401.093 -0.022264 400.287 0.136747 399.547 0.467784C398.806 0.798821 398.148 1.29342 397.622 1.91506C397.097 2.5367 396.716 3.26948 396.509 4.05927C396.302 4.84906 396.273 5.67567 396.426 6.47804L397.609 14.6008C397.82 15.7683 397.652 16.9734 397.127 18.0361C396.603 19.0989 395.752 19.9621 394.701 20.497C391.816 21.9414 389.086 23.6811 386.554 25.6888C385.565 26.4102 384.39 26.8256 383.171 26.8842C381.952 26.9427 380.742 26.6418 379.69 26.0182L372.061 21.883C368.68 20.0766 364.95 21.1218 363.609 24.2119L353.466 47.6828C352.136 50.7729 353.748 54.7377 357.072 56.5441L364.724 60.6907C365.864 61.294 366.833 62.178 367.543 63.2606C368.252 64.3431 368.678 65.589 368.782 66.8822C368.872 68.734 369.063 70.6085 369.334 72.4943C369.582 74.2098 369.908 75.9025 370.292 77.5611C370.606 78.6984 370.552 79.9072 370.136 81.011C369.72 82.1148 368.965 83.0556 367.981 83.6958L361.49 87.7743C358.661 89.5465 358.177 93.4546 360.363 96.6014L377.177 120.22C379.431 123.333 383.477 124.412 386.294 122.64L392.741 118.596C393.83 117.986 395.069 117.7 396.314 117.77C397.558 117.841 398.757 118.265 399.773 118.993C403.018 121.127 406.437 122.978 409.994 124.526C411.17 125.05 412.198 125.862 412.985 126.887C413.772 127.913 414.294 129.12 414.502 130.399L415.697 138.522C415.991 140.295 416.887 141.91 418.231 143.091C419.575 144.272 421.284 144.946 423.067 144.997H450.035C450.845 145.022 451.65 144.863 452.391 144.532C453.132 144.201 453.789 143.707 454.315 143.085C454.841 142.463 455.222 141.73 455.429 140.941C455.636 140.151 455.664 139.324 455.512 138.522L454.385 130.513C454.174 129.34 454.346 128.129 454.877 127.064C455.407 125.998 456.267 125.135 457.326 124.605C460.244 123.168 463.005 121.428 465.564 119.413C466.563 118.686 467.75 118.268 468.981 118.209C470.212 118.151 471.433 118.455 472.495 119.084L479.933 123.106C483.314 124.912 487.033 123.867 488.374 120.777L498.516 97.3058C499.88 94.1703 498.257 90.2054 494.933 88.3991ZM431.418 108.371C408.676 108.371 387.771 86.9336 390.306 63.0082C391.433 51.9885 401.159 40.537 411.718 37.731C434.551 31.6417 458.465 49.5573 461.8 72.483C464.606 92.0004 450.779 108.36 431.418 108.371Z" fill="#D0DAFD"/>
<path d="M503.921 88.3991L496.55 84.4456C495.405 83.8453 494.431 82.9608 493.719 81.8755C493.007 80.7902 492.581 79.5399 492.482 78.2428C492.391 76.3569 492.211 74.437 491.929 72.4943C491.67 70.7561 491.343 69.0293 490.938 67.3366C490.622 66.187 490.678 64.9659 491.098 63.8505C491.517 62.7352 492.278 61.7835 493.271 61.1337L499.514 57.2257C502.332 55.4535 502.828 51.5454 500.641 48.3872L483.815 24.7799C481.561 21.6671 477.526 20.5879 474.697 22.3601L468.374 26.2681C467.299 26.8795 466.074 27.1709 464.841 27.1086C463.608 27.0463 462.418 26.6327 461.409 25.916C458.104 23.7501 454.62 21.8762 450.995 20.3152C449.801 19.8008 448.755 18.9925 447.951 17.9643C447.148 16.9361 446.613 15.721 446.397 14.4304L445.27 6.47804C444.972 4.70698 444.074 3.09449 442.731 1.91419C441.387 0.733884 439.68 0.0584568 437.899 0.00250783H410.895C410.085 -0.022264 409.28 0.136747 408.539 0.467784C407.798 0.798821 407.14 1.29342 406.614 1.91506C406.089 2.5367 405.708 3.26948 405.501 4.05927C405.294 4.84906 405.265 5.67567 405.418 6.47804L406.612 14.6008C406.823 15.7696 406.652 16.9756 406.126 18.0385C405.6 19.1014 404.746 19.9639 403.693 20.497C400.81 21.9388 398.083 23.6788 395.556 25.6888C394.565 26.4099 393.388 26.8249 392.167 26.8834C390.946 26.9419 389.735 26.6413 388.681 26.0182L381.051 21.883C377.67 20.0766 373.939 21.1218 372.609 24.2119L362.466 47.6828C361.136 50.7729 362.748 54.7377 366.084 56.5441L373.725 60.6907C374.866 61.2934 375.837 62.177 376.549 63.2595C377.26 64.342 377.688 65.5881 377.794 66.8822C377.885 68.761 378.069 70.6341 378.346 72.4943C378.594 74.2098 378.91 75.9025 379.304 77.5611C379.616 78.6996 379.559 79.9087 379.141 81.0122C378.723 82.1157 377.967 83.0559 376.982 83.6958L370.502 87.7743C367.673 89.5465 367.121 93.4546 369.375 96.6014L386.19 120.22C388.444 123.333 392.49 124.412 395.319 122.64L401.755 118.596C402.845 117.986 404.084 117.7 405.328 117.77C406.573 117.841 407.772 118.265 408.787 118.993C412.034 121.125 415.454 122.976 419.01 124.526C420.198 125.042 421.239 125.85 422.039 126.876C422.838 127.902 423.37 129.113 423.586 130.399L424.713 138.522C425.011 140.293 425.908 141.905 427.251 143.086C428.595 144.266 430.302 144.942 432.083 144.997H459.054C459.864 145.022 460.669 144.863 461.41 144.532C462.151 144.201 462.808 143.707 463.334 143.085C463.86 142.463 464.241 141.73 464.448 140.941C464.655 140.151 464.683 139.324 464.531 138.522L463.404 130.513C463.193 129.34 463.365 128.129 463.896 127.064C464.426 125.998 465.286 125.135 466.346 124.605C469.262 123.166 472.023 121.426 474.584 119.413C475.581 118.686 476.766 118.267 477.995 118.208C479.225 118.15 480.444 118.454 481.504 119.084L488.943 123.106C492.324 124.912 496.054 123.867 497.384 120.777L507.528 97.3058C508.869 94.1703 507.257 90.2054 503.921 88.3991ZM440.401 108.371C417.669 108.371 396.751 86.9336 399.287 63.0082C400.414 51.9885 410.151 40.537 420.7 37.731C443.545 31.6417 467.45 49.5573 470.786 72.483C473.604 92.0004 459.775 108.36 440.401 108.371Z" fill="#E9EFFD"/>
<path d="M273.051 94.6361L267.689 91.707C266.852 91.2637 266.14 90.6103 265.622 89.8091C265.104 89.0079 264.798 88.0857 264.732 87.1303C264.667 85.7244 264.532 84.3229 264.325 82.9312C264.145 81.6573 263.908 80.3987 263.614 79.1554C263.374 78.3094 263.408 77.4074 263.713 76.583C264.018 75.7586 264.577 75.0558 265.307 74.5787L269.823 71.7297C271.877 70.4254 272.239 67.5421 270.636 65.2652L258.421 48.1026C257.729 47.028 256.668 46.2525 255.443 45.9268C254.219 45.6012 252.918 45.7486 251.795 46.3405L247.212 49.2353C246.43 49.6804 245.541 49.8919 244.645 49.8454C243.75 49.7988 242.887 49.496 242.154 48.9721C239.748 47.3926 237.214 46.0223 234.58 44.876C233.705 44.5064 232.937 43.9196 232.345 43.1697C231.753 42.4199 231.357 41.5311 231.193 40.5854L230.347 34.7386C230.125 33.4454 229.471 32.2689 228.494 31.4064C227.518 30.5439 226.279 30.048 224.984 30.0018H205.433C204.844 29.984 204.259 30.1007 203.72 30.3432C203.182 30.5856 202.704 30.9477 202.323 31.4025C201.941 31.8574 201.666 32.3934 201.516 32.9709C201.366 33.5483 201.347 34.1525 201.459 34.7386L202.317 40.6655C202.472 41.5191 202.35 42.4008 201.97 43.1784C201.589 43.9561 200.97 44.5878 200.206 44.979C198.112 46.0334 196.13 47.3024 194.291 48.7662C193.575 49.3035 192.718 49.6141 191.828 49.6589C190.938 49.7037 190.055 49.4807 189.29 49.0179L183.804 45.9973C181.388 44.6815 178.633 45.4367 177.674 47.6907L170.291 64.8533C169.872 66.069 169.907 67.3983 170.389 68.5897C170.872 69.781 171.769 70.7517 172.91 71.3178L178.464 74.3499C179.302 74.7932 180.013 75.4466 180.531 76.2477C181.049 77.0489 181.355 77.9712 181.422 78.9266C181.489 80.2767 181.625 81.6383 181.817 83.0227C182.009 84.4071 182.234 85.5056 182.517 86.7184C182.744 87.5501 182.704 88.4338 182.401 89.2406C182.099 90.0474 181.55 90.7351 180.835 91.2035L176.116 94.1784C174.073 95.4827 173.711 98.3661 175.314 100.643L187.54 117.886C188.23 118.962 189.291 119.74 190.516 120.068C191.741 120.396 193.042 120.25 194.166 119.659L198.84 116.707C199.632 116.26 200.533 116.05 201.438 116.101C202.343 116.151 203.215 116.461 203.954 116.993C206.314 118.55 208.799 119.905 211.382 121.044C212.242 121.421 212.996 122.01 213.575 122.757C214.155 123.505 214.541 124.386 214.7 125.323L215.57 131.261C215.791 132.552 216.444 133.728 217.418 134.59C218.392 135.452 219.628 135.949 220.92 135.998H240.518C241.107 136.017 241.694 135.902 242.233 135.66C242.773 135.419 243.252 135.057 243.635 134.602C244.018 134.147 244.295 133.61 244.445 133.032C244.595 132.453 244.615 131.848 244.502 131.261L243.633 125.369C243.48 124.512 243.605 123.629 243.99 122.851C244.374 122.073 244.998 121.443 245.767 121.055C247.89 120.004 249.899 118.731 251.761 117.256C252.486 116.723 253.348 116.417 254.243 116.374C255.137 116.331 256.025 116.554 256.796 117.016L262.192 119.957C264.619 121.272 267.362 120.517 268.333 118.263L275.715 101.101C276.132 99.8795 276.09 98.5459 275.599 97.3538C275.108 96.1617 274.201 95.1944 273.051 94.6361ZM226.892 109.236C210.366 109.236 195.171 93.572 197.011 76.0547C197.858 68.0455 204.913 59.6358 212.544 57.5878C229.15 53.1369 246.523 66.2263 248.95 82.9769C251.016 97.2677 240.958 109.236 226.892 109.236Z" fill="#D0DAFD"/>
<path d="M279.119 94.1034L273.831 91.2025C273.003 90.7629 272.3 90.1154 271.789 89.3219C271.278 88.5284 270.976 87.6153 270.913 86.67C270.846 85.2989 270.711 83.9165 270.51 82.5114C270.309 81.1063 270.085 80.0071 269.795 78.772C269.559 77.9329 269.596 77.0394 269.9 76.2232C270.204 75.4071 270.759 74.7117 271.483 74.2395L275.955 71.4179C277.99 70.1262 278.348 67.2707 276.749 65.0157L264.652 47.928C263.965 46.8657 262.913 46.0994 261.701 45.777C260.489 45.4547 259.202 45.5993 258.089 46.183L253.549 49.0498C252.775 49.4906 251.894 49.7001 251.008 49.654C250.121 49.6079 249.266 49.308 248.54 48.7892C246.156 47.2271 243.646 45.8701 241.038 44.7325C240.172 44.3665 239.411 43.7854 238.825 43.0428C238.239 42.3002 237.846 41.4199 237.684 40.4833L236.846 34.6929C236.626 33.4122 235.978 32.247 235.011 31.3928C234.044 30.5387 232.817 30.0475 231.535 30.0017H212.159C211.576 29.9842 210.996 30.0997 210.463 30.3399C209.93 30.58 209.457 30.9386 209.079 31.389C208.701 31.8395 208.428 32.3703 208.28 32.9422C208.132 33.5141 208.112 34.1124 208.223 34.6929L209.073 40.5626C209.226 41.4093 209.104 42.2834 208.725 43.0537C208.346 43.824 207.73 44.4489 206.971 44.8345C204.898 45.8814 202.936 47.138 201.112 48.5852C200.404 49.115 199.558 49.4212 198.679 49.4656C197.8 49.5099 196.927 49.2904 196.171 48.8345L190.681 45.843C188.288 44.5399 185.56 45.2878 184.599 47.5201L177.287 64.5171C176.872 65.7225 176.908 67.04 177.388 68.2201C177.869 69.4001 178.759 70.3606 179.892 70.9194L185.393 73.9222C186.222 74.3612 186.927 75.0083 187.44 75.8017C187.953 76.5952 188.256 77.5085 188.322 78.4547C188.382 79.813 188.512 81.1671 188.713 82.5114C188.892 83.7465 189.127 84.9703 189.406 86.1714C189.629 86.9963 189.586 87.8717 189.285 88.6704C188.983 89.4692 188.438 90.1498 187.729 90.6133L183.067 93.5595C181.032 94.8512 180.674 97.7068 182.273 99.9617L194.371 117.038C195.054 118.104 196.105 118.875 197.318 119.199C198.531 119.524 199.82 119.38 200.934 118.794L205.573 115.871C206.358 115.428 207.25 115.22 208.146 115.27C209.043 115.32 209.907 115.627 210.638 116.154C212.975 117.699 215.436 119.041 217.995 120.166C218.85 120.542 219.599 121.129 220.173 121.873C220.747 122.617 221.128 123.495 221.282 124.426L222.132 130.307C222.352 131.588 222.999 132.753 223.966 133.607C224.933 134.461 226.161 134.953 227.443 134.998H246.852C247.436 135.016 248.015 134.9 248.549 134.66C249.082 134.42 249.556 134.061 249.935 133.611C250.313 133.161 250.588 132.631 250.737 132.059C250.887 131.487 250.908 130.888 250.799 130.307L249.949 124.517C249.797 123.669 249.921 122.794 250.302 122.023C250.683 121.253 251.301 120.629 252.062 120.245C254.162 119.204 256.148 117.943 257.988 116.483C258.706 115.956 259.561 115.653 260.446 115.611C261.332 115.569 262.21 115.789 262.975 116.245L268.33 119.157C270.723 120.46 273.451 119.712 274.412 117.48L281.713 100.483C282.127 99.2822 282.092 97.9691 281.614 96.793C281.136 95.6169 280.248 94.6598 279.119 94.1034ZM233.402 108.562C217.045 108.562 201.985 93.0496 203.818 75.7012C204.657 67.7692 211.645 59.4407 219.203 57.4124C235.638 53.0045 252.845 65.9676 255.249 82.5567C257.295 96.7096 247.344 108.562 233.402 108.562Z" fill="#E9EFFD"/>
<path d="M371.511 284.322L318.893 289L313 288.055L323.489 225.744L382 222L371.511 284.322Z" fill="#5A83CC"/>
<path d="M376.663 285.259L319 289L329.337 226.73L387 223L376.663 285.259Z" fill="#7498E8"/>
<path d="M344 299L313.309 293.977L313 288L343.588 292.721L344 299Z" fill="#5A83CC"/>
<path d="M343.363 293L397 289.397L376.962 285L319 288.911L343.363 293Z" fill="#E9EFFD"/>
<path d="M397.197 289.322L343.328 292.789L343.729 299.094L397.598 295.627L397.197 289.322Z" fill="#5A83CC"/>
<path d="M465 250H244.778L211 84H431.222L465 250Z" fill="#7498E8"/>
<path d="M250.607 243L220 92H425.405L456 243H250.607Z" fill="white"/>
<path d="M211.396 84L208 88.9674L241.593 255L245 250.033L211.396 84Z" fill="#5A83CC"/>
<path d="M461.596 255L465 250H245.415L242 255H461.596Z" fill="#5A83CC"/>
<path d="M361.182 151.2L348.068 83.178C347.967 82.6742 347.978 82.1543 348.101 81.6553C348.223 81.1564 348.453 80.6907 348.775 80.2915C349.097 79.8924 349.503 79.5697 349.964 79.3464C350.424 79.1231 350.928 79.0048 351.439 79H442.456C443.251 79.007 444.019 79.2878 444.633 79.7954C445.246 80.303 445.668 81.0067 445.827 81.7891L458.929 149.822C459.032 150.326 459.023 150.847 458.901 151.347C458.78 151.846 458.55 152.313 458.227 152.713C457.905 153.112 457.498 153.435 457.037 153.658C456.575 153.88 456.07 153.997 455.558 154H364.541C363.746 153.992 362.979 153.709 362.367 153.199C361.755 152.689 361.336 151.983 361.182 151.2Z" fill="#D0DAFD"/>
<path d="M364.912 150L352 83H442.088L455 150H364.912Z" fill="#E9EFFD"/>
<path d="M368.177 136.196L355.068 68.1943C354.967 67.6894 354.978 67.1683 355.101 66.6682C355.223 66.1681 355.454 65.7012 355.776 65.3007C356.098 64.9003 356.504 64.5761 356.965 64.3513C357.426 64.1265 357.931 64.0065 358.444 64H449.448C450.245 64.0076 451.016 64.2903 451.63 64.8007C452.245 65.3112 452.666 66.0183 452.823 66.8037L465.932 134.806C466.033 135.311 466.022 135.832 465.899 136.332C465.777 136.832 465.546 137.299 465.224 137.699C464.902 138.1 464.496 138.424 464.035 138.649C463.573 138.874 463.069 138.993 462.556 139H371.586C370.783 139 370.004 138.721 369.383 138.21C368.761 137.699 368.335 136.987 368.177 136.196Z" fill="#5A83CC"/>
<path d="M371.9 135L359 68H449.088L462 135H371.9Z" fill="white"/>
<path d="M414 135L438.006 83L455.339 101.793L462 134.955L414 135Z" fill="#344159"/>
<path d="M372.461 135L366 103.83L383.777 74L462 134.887L372.461 135Z" fill="#344159"/>
<path d="M428 82.5448C427.991 84.224 427.485 85.863 426.546 87.2549C425.606 88.6468 424.276 89.7293 422.722 90.3658C421.168 91.0022 419.46 91.1642 417.814 90.8312C416.168 90.4981 414.658 89.6851 413.474 88.4946C412.29 87.3041 411.484 85.7894 411.16 84.1418C410.836 82.4942 411.007 80.7875 411.651 79.2369C412.296 77.6863 413.385 76.3615 414.782 75.4295C416.179 74.4974 417.821 74 419.5 74C420.62 74 421.729 74.2213 422.763 74.6513C423.797 75.0813 424.736 75.7114 425.526 76.5054C426.316 77.2995 426.941 78.2418 427.366 79.2783C427.79 80.3147 428.006 81.4248 428 82.5448Z" fill="#F9DC80"/>
<path d="M264.757 282.785L234 133L322.453 133.17L350.048 156.608L376 283L264.757 282.785Z" fill="#D0DAFD"/>
<path d="M269.224 270.773L241 126L325.075 126.261L356.809 150.837L380 271L269.224 270.773Z" fill="#E9EFFD"/>
<path d="M341 230H270.244L261 183H331.756L341 230Z" fill="#D0DAFD"/>
<path d="M325 127L357 151.626L331.434 153L325 127Z" fill="#D0DAFD"/>
<path d="M267.685 147.093L264.708 168.748H261.405L265.11 144.988H267.24L267.685 147.093ZM279.563 168.748L266.361 147.093L265.814 144.988H267.944L282.882 168.748H279.563ZM277.07 159.952L277.678 162.531H263.963L263.356 159.952H277.07Z" fill="#344159"/>
<path d="M348 164H294.44L294 161H347.571L348 164Z" fill="#7498E8"/>
<path d="M350 175H296.574L296 172H349.426L350 175Z" fill="#7498E8"/>
<path d="M366 243L272.139 242.699L271 236L364.861 236.313L366 243Z" fill="#7498E8"/>
<path d="M368 253L274.139 252.742L273 247L366.861 247.258L368 253Z" fill="#7498E8"/>
<path d="M336.062 216.002C343.306 224.785 356.274 228.643 361.921 234.369C364.749 238.816 361.366 243.141 359.225 242.996C352.968 242.607 335.097 222.151 333 219.749C332.967 219.782 336.073 215.891 336.062 216.002Z" fill="#FFB3A1"/>
<path d="M332.479 219.083C331.617 217.614 331.116 215.967 331.018 214.272C330.92 212.578 331.226 210.885 331.913 209.329C332.604 209.061 332.445 213.49 333.522 213.546C334.893 210.783 333.635 204.956 335.902 205C337.177 207.241 337.892 209.749 337.989 212.316C338.085 214.884 337.56 217.438 336.457 219.765C335.154 220.089 333.148 220.246 332.479 219.083Z" fill="#FFB3A1"/>
<path d="M348 191.573C343.072 189.276 341.478 194.572 341.228 195.348C340.949 196.291 340.926 197.285 341.16 198.239C341.395 199.182 341.711 200.105 342.104 201C342.431 200.71 342.714 200.38 342.947 200.019C344.768 197.268 345.644 193.925 348 191.573Z" fill="#1F2635"/>
<path d="M409.231 313.212C409.689 313.008 410.195 312.95 410.685 313.044C411.031 313.163 411.34 313.379 411.578 313.668C412.136 314.306 412.634 314.998 413.067 315.734C415.908 320.263 419.263 324.587 423.719 327.326C424.371 327.722 425.139 328.311 424.978 329.08C424.919 329.297 424.803 329.492 424.643 329.643C424.483 329.793 424.286 329.894 424.074 329.933C423.654 330.022 423.222 330.022 422.802 329.933C416.904 328.948 410.662 326.161 405.016 324.119C404.512 323.927 403.412 324.215 403.069 323.77C402.725 323.326 403.779 322.713 403.802 322.029C403.802 320.755 403.859 319.482 403.893 318.209C403.893 317.356 403.55 316.443 403.997 315.686C404.306 315.122 408.074 313.596 409.231 313.212Z" fill="#F9DC80"/>
<path d="M349.321 317.12C365.327 311.108 400.737 315.762 404.606 315.066C404.899 317.656 405 323.52 405 323.52C405 323.52 353.944 333.137 348.365 328.939C342.786 324.741 344.878 319.961 349.321 317.12Z" fill="#1F2635"/>
<path d="M371.033 268C371.033 268 376.179 274.016 377.631 279.785C380.936 292.886 361.038 322.236 357.493 326.172C353.948 330.108 348.505 326.667 348.082 325.306C347.659 323.945 348.86 287.454 351.947 282.394C355.035 277.334 371.033 268 371.033 268Z" fill="#1F2635"/>
<path d="M355.874 213C354.749 216.772 355.627 221.003 357 224.719C353.725 226.964 349.369 227.256 345.384 226.84C345.497 224.674 345.79 222.564 345.835 220.386C345.99 218.199 345.337 216.031 344 214.291C346 214.932 348.134 215.044 350.19 214.616C352.129 214.246 354.031 213.705 355.874 213Z" fill="#FFB3A1"/>
<g style="mix-blend-mode:multiply" opacity="0.3">
<path d="M355 214C353.624 214.487 352.035 214.113 350.471 214.4C348.321 214.877 346.091 214.752 344 214.037C345.26 215.734 345.933 217.839 345.906 220C349.247 218.513 352.588 216.95 355 214Z" fill="#FFB3A1"/>
</g>
<path d="M368.975 269C368.975 269 376.37 272.503 373.218 283.599C371.474 289.734 338.247 327.293 333.081 329.519C327.915 331.745 322.782 325.609 323.007 324.106C323.232 322.604 330.447 296.887 347.612 274.559C351.461 269.542 368.975 269 368.975 269Z" fill="#344159"/>
<path d="M356.26 220.703C349.878 219.669 343.058 219.567 341.347 221.839C341.066 222.214 337.892 227.056 337.453 231.283C337.037 235.238 336.643 239.783 337.555 243.159C339.254 249.489 341.539 245.943 345.095 258.148C346.557 263.542 347.191 269.13 346.975 274.717C354.493 276.99 372.612 276.229 376 272.547C376 272.547 368.797 258.205 368.122 245.17C367.244 226.635 362.224 221.658 356.26 220.703Z" fill="#F75E5E"/>
<path d="M344.576 222.083C341.421 220.948 325.944 231.76 313.049 238.895C313.049 238.895 312.464 245.861 315.343 247.789C318.223 249.718 345.092 237.852 347.1 234.494C349.739 230.024 350.244 224.363 344.576 222.083Z" fill="#FFB3A1"/>
<path d="M345.783 221.009C343.509 220.8 334.731 224.438 328 228.557C328.33 233.213 331.354 238.034 333.515 242C340.28 239.097 347.057 235.536 347.978 234.013C350.627 229.697 351.389 223.211 345.783 221.009Z" fill="#F75E5E"/>
<path d="M302.674 213.004C306.36 221.9 317.348 232.695 320.809 240.306C322 245.692 317.315 248.738 315.315 247.846C309.472 245.286 299.326 218.958 298.135 215.877H298.067L298 215.784C299.584 214.73 302.719 212.9 302.674 213.004Z" fill="#FFB3A1"/>
<path d="M396.492 323.196C396.972 323.013 397.496 322.957 398.008 323.033C398.904 323.218 399.708 325.108 400.179 325.782C403.098 330.129 407.027 333.789 411.667 336.483C412.345 336.863 413.149 337.407 412.976 338.135C412.914 338.338 412.793 338.521 412.626 338.663C412.46 338.805 412.255 338.9 412.034 338.939C411.594 339.02 411.142 339.02 410.702 338.939C404.57 337.835 398.551 336.232 392.712 334.147C391.786 333.948 390.901 333.607 390.093 333.137C389.668 332.626 390.84 332.148 390.851 331.496C390.851 330.29 390.92 329.095 390.943 327.889C390.816 326.989 390.918 326.072 391.242 325.217C391.671 324.742 392.258 324.42 392.907 324.304L396.492 323.196Z" fill="#F9DC80"/>
<path d="M328.883 318.116C347.944 313.577 387.501 324.363 392 324.141C392 327.194 391.22 334.003 391.22 334.003C391.22 334.003 331.823 337.396 326.08 331.663C320.337 325.931 323.412 320.737 328.883 318.116Z" fill="#344159"/>
<path d="M343.558 195.557C341.142 201.083 338.413 213.352 345.795 215.618C353.413 217.64 359.398 211.197 361.266 206.643C362.619 203.327 362.966 196.331 354.442 194.01C347.876 192.23 344.744 192.838 343.558 195.557Z" fill="#FFB3A1"/>
<path d="M343.805 192.203C340.524 202.012 348.327 203.51 348.396 203.787C348.474 204 348.502 204.229 348.476 204.455C348.353 206.685 348.073 208.904 347.638 211.094C348.104 211.32 348.598 211.483 349.107 211.578C349.818 210.691 350.943 208.282 352.251 209.4C348.866 214.195 350.886 219.67 349.612 221.537C347.599 224.343 346.519 227.715 346.525 231.173C346.551 232.892 346.98 234.582 347.777 236.104C348.575 237.626 349.718 238.938 351.115 239.933C354.65 242.238 359.905 240.394 363.6 238.319C366.354 236.774 368.764 234.135 368.982 230.965C369.189 228.072 367.571 225.41 365.93 223.024C364.289 220.638 362.487 218.171 362.246 215.278C362.04 212.812 363.015 210.426 363.635 208.017C364.117 206.13 364.413 204.199 364.518 202.254C364.709 200.191 364.256 198.121 363.222 196.329C361.42 192.987 357.771 192.284 354.041 191.857C350.312 191.431 345.974 187.696 343.805 192.203Z" fill="#1F2635"/>
<path d="M352.134 207.112C352.349 207.02 352.584 206.984 352.817 207.006C353.05 207.029 353.273 207.109 353.466 207.239C353.621 207.358 353.749 207.508 353.84 207.68C353.931 207.851 353.985 208.039 353.996 208.232C354.017 208.626 353.953 209.02 353.808 209.387C353.574 210.068 353.169 210.68 352.629 211.166C352.113 211.668 351.424 211.965 350.697 211.998C350.083 212.024 349.48 211.831 349 211.455C349 211.455 350.638 208.706 350.838 208.348C351.135 207.818 351.586 207.388 352.134 207.112Z" fill="#FFB3A1"/>
<g style="mix-blend-mode:multiply" opacity="0.3">
<path d="M353.997 208.24C353.987 208.047 353.938 207.858 353.856 207.687C353.773 207.515 353.658 207.365 353.517 207.246C353.365 207.127 353.19 207.049 353.005 207.016C352.82 206.984 352.63 206.999 352.451 207.061C352.826 207.403 353.063 207.889 353.115 208.417C353.166 208.944 353.028 209.473 352.729 209.893C352.422 210.399 352.021 210.828 351.551 211.153C351.08 211.478 350.552 211.691 350 211.778C350.316 211.94 350.663 212.015 351.013 211.997C351.67 211.965 352.293 211.668 352.761 211.165C353.248 210.678 353.615 210.066 353.826 209.385C353.956 209.02 354.014 208.63 353.997 208.24Z" fill="#FFB3A1"/>
</g>
<path d="M300.964 198.961C300.656 198.233 300.223 196.946 299.665 197.002C298.526 197.36 300.406 202.074 300.542 204.66C300.569 204.814 300.541 204.972 300.463 205.108C300.387 205.213 300.279 205.291 300.155 205.332C299.232 205.746 298.127 205.746 297.341 206.362C296.819 206.798 296.451 207.386 296.293 208.041C295.563 210.46 296.293 213.069 297.432 215.364C297.515 215.577 297.657 215.763 297.842 215.901C298.056 215.996 298.295 216.023 298.526 215.98C299.775 215.824 300.956 215.336 301.944 214.569C302.867 213.852 302.73 212.968 302.844 211.882C303.151 209.089 303.005 206.266 302.411 203.518C302.071 201.959 301.587 200.434 300.964 198.961Z" fill="#FFB3A1"/>
<path d="M372.337 189L367 163H407.663L413 189H372.337Z" fill="#F9DC80"/>
<path d="M413 189L392.134 176L373 189" stroke="white" stroke-width="0.82" stroke-miterlimit="10"/>
<path d="M367 163L392.551 179L408 163H367Z" fill="#F9DC80" stroke="white" stroke-width="0.82" stroke-miterlimit="10"/>
<path d="M414.991 187.047C415.029 187.589 414.949 188.133 414.757 188.64C414.565 189.148 414.265 189.605 413.879 189.98C413.493 190.356 413.031 190.639 412.525 190.811C412.019 190.983 411.483 191.038 410.953 190.974C409.822 190.742 408.807 190.112 408.086 189.194C407.365 188.276 406.984 187.128 407.009 185.952C406.971 185.411 407.051 184.868 407.242 184.361C407.434 183.855 407.733 183.398 408.117 183.023C408.501 182.648 408.962 182.364 409.467 182.192C409.971 182.019 410.507 181.962 411.035 182.025C412.169 182.252 413.188 182.88 413.912 183.799C414.636 184.718 415.018 185.868 414.991 187.047Z" fill="#FC7070"/>
<path d="M236.339 114.863L224.053 54.2176C223.975 53.829 223.983 53.4279 224.077 53.0428C224.17 52.6578 224.347 52.2985 224.594 51.9909C224.841 51.6832 225.152 51.4348 225.505 51.2634C225.858 51.0921 226.244 51.0021 226.636 51H323.078C323.686 51.0007 324.275 51.2137 324.746 51.6032C325.216 51.9926 325.54 52.5346 325.661 53.1375L337.947 113.794C338.025 114.183 338.017 114.584 337.923 114.97C337.829 115.355 337.651 115.714 337.403 116.021C337.154 116.328 336.841 116.575 336.487 116.745C336.132 116.914 335.745 117.001 335.353 117H238.921C238.313 117.001 237.723 116.789 237.252 116.399C236.781 116.01 236.458 115.466 236.339 114.863Z" fill="#FC7070"/>
<path d="M240.351 114L239 107.215L332.627 107L334 113.772L240.351 114Z" fill="#344159"/>
<path d="M297.901 79.9999C298.133 81.902 297.956 83.8321 297.381 85.6594C296.805 87.4866 295.846 89.1684 294.567 90.5907C293.287 92.013 291.719 93.1425 289.967 93.9028C288.215 94.6631 286.321 95.0363 284.412 94.9972C280.34 94.922 276.436 93.3568 273.432 90.5953C270.428 87.8338 268.531 84.0662 268.098 79.9999C267.867 78.0981 268.046 76.1688 268.622 74.3423C269.198 72.5159 270.158 70.835 271.436 69.4131C272.715 67.9913 274.283 66.8617 276.034 66.1008C277.785 65.3399 279.678 64.9653 281.586 65.0025C288.422 65.0371 297.131 71.7398 297.901 79.9999Z" fill="white"/>
<path d="M276 73L281.016 89L291 78.7151L276 73Z" fill="#FC7070"/>
<path d="M248 109L248.837 112L252 110.112L248 109Z" fill="white"/>
<path d="M244 113H243.009L242 108H242.991L244 113Z" fill="white"/>
<path d="M247 113H245.513L244 108H245.5L247 113Z" fill="white"/>
<path d="M467 259.863L394.847 260L383 207.126L455.142 207L467 259.863Z" fill="#F9DC80"/>
<path d="M434 213.907L384.082 214L381 200.081L423.287 200C427.498 200 431.765 203.851 432.826 208.63L434 213.907Z" fill="#F9DC80"/>
<path d="M466 265.713L398.54 266L387 211.011L453.618 211L466 265.713Z" fill="white"/>
<path d="M470 272.865L397.857 273L386 221.135L458.143 221L470 272.865Z" fill="#F9DC80"/>
<path d="M429 226.919L387.076 227L384 213.058L418.348 213C422.546 213 426.789 216.857 427.844 221.644L429 226.919Z" fill="#F9DC80"/>
<path d="M436.841 318.368C435.907 318.694 434.805 319.322 435.03 320.426C435.255 321.53 436.413 321.925 437.28 321.972C441.313 322.07 445.348 321.911 449.363 321.495C451.644 321.331 453.904 320.942 456.113 320.333C456.113 320.891 456.214 321.263 456.214 321.263C456.214 321.263 461.142 321.356 461.671 320.705C462.2 320.054 461.918 313.824 461.975 310.244C459.353 310.081 450.848 310 450.848 310C441.949 317.136 441.341 316.799 436.841 318.368Z" fill="#5A83CC"/>
<path d="M518.964 306.577C518.528 308.952 517.549 311.2 516.101 313.152C514.653 315.105 512.772 316.713 510.6 317.855C510.328 317.988 510.023 318.176 510.001 318.475C509.978 318.773 510.498 319.846 510.939 319.901C514.008 320.209 517.108 319.796 519.982 318.696C522.841 317.701 525.17 314.35 528.165 311.277C528.309 311.477 528.494 311.647 528.708 311.774C529.906 311.011 532.201 309.22 531.986 308.336C531.771 307.451 529.092 304.399 527.216 302C524.727 303.939 521.943 305.483 518.964 306.577Z" fill="#5A83CC"/>
<path d="M465.706 192.001C464.292 191.763 447.235 237.855 447.01 247.824C446.786 258.032 450.287 309.704 450.287 309.704C451.578 311.847 457.851 310.94 461.509 309.783C461.509 309.783 467.94 260.731 467.177 249.559C476.468 235.553 492 206.575 492 206.575L465.706 192.001Z" fill="#212C3F"/>
<path d="M466 192.689C466 192.689 466.525 228.418 473.344 249.331C475.882 257.124 518.057 308 518.057 308C521.532 307.111 524.654 305.161 527 302.415C523.445 293.352 516.045 281.027 507.36 264.567C504.319 258.824 497.221 249.399 491.9 245.581C495.69 230.197 494.359 199.52 489.05 192.983C483.74 186.447 466 192.689 466 192.689Z" fill="#344159"/>
<path d="M486.637 141.646L464.685 137.615L449.455 116.027C448.126 115.81 446.523 116.955 445 117.173C445.847 120.207 452.558 140.97 457.07 145.895C461.181 149.182 470.811 156.866 485.068 158C495.603 157.015 497.676 145.654 486.637 141.646Z" fill="#FFB3A1"/>
<path d="M486.664 141.472L465.544 137.032L460.98 131C457.519 132.662 454.456 135.063 452 138.035C452.957 141.245 454.506 144.242 456.564 146.87C464.809 153.288 474.717 157.154 485.09 158C495.599 156.95 497.664 145.509 486.664 141.472Z" fill="#7498E8"/>
<path d="M477.92 130.138C477.724 133.937 477.644 136.44 476 139.712C479.667 141.392 483.897 141.249 487.851 140.305C487.569 135.178 487.955 130.037 489 125C487.705 126.627 486.027 127.94 484.102 128.833C482.177 129.725 480.059 130.173 477.92 130.138Z" fill="#FFB3A1"/>
<g style="mix-blend-mode:multiply" opacity="0.3">
<path d="M483.009 132.801C484.655 131.101 486.004 129.141 487 127C485.731 128.213 484.234 129.165 482.594 129.801C480.953 130.437 479.203 130.745 477.442 130.706C477.397 132.478 477.25 134.245 477 136C479.261 135.502 481.34 134.395 483.009 132.801Z" fill="#FF997D"/>
</g>
<path d="M487.973 137C487.973 137 494.685 144.343 495.584 149.534C497.859 162.684 490.066 193.255 490.066 193.255C489.919 196.036 471.08 195.251 465.562 192.605C464.687 181.181 464.891 160.823 465.779 154.892C466.791 148.166 476.324 138.648 476.324 138.648L475.824 140.341C480.249 140.688 484.469 138.267 487.973 137Z" fill="#5A83CC"/>
<path d="M472.076 113.298C472.076 113.298 469.43 127.297 472.438 131.066C475.445 134.834 484.299 132.627 487.024 128.463C491.14 122.804 492.802 111.091 479.686 111C470.99 110.966 472.076 113.298 472.076 113.298Z" fill="#FFB3A1"/>
<path d="M431.998 163.661L431.461 163.606C431.412 163.457 431.339 163.315 431.244 163.188C430.944 162.847 430.62 162.526 430.273 162.229C429.336 161.27 428.193 158.736 427.336 158.637C426.479 158.538 427.999 162.174 427.794 162.306C427.588 162.438 426.651 162.119 426.091 161.964C425.019 161.705 424.028 161.2 423.203 160.492C422.377 159.784 421.741 158.895 421.349 157.899C421.249 157.522 421.119 157.154 420.96 156.797C420.881 156.615 420.763 156.451 420.613 156.316C420.463 156.181 420.286 156.078 420.092 156.014C419.692 155.926 419.029 156.257 419.006 156.653C418.908 159.489 419.94 162.254 421.892 164.377C423.843 166.501 426.565 167.822 429.496 168.069C429.496 168.069 458.885 180.344 470.495 177.6C475.751 173.435 472.037 166.405 465.81 167.253L431.998 163.661Z" fill="#FFB3A1"/>
<path d="M478.767 147.229L465.327 167.501C461.948 172.342 465.564 178.885 470.104 179C470.181 178.984 470.256 178.961 470.329 178.931C475.331 176.309 487.081 170.134 494.324 156.336C497.749 145.251 487.475 137.961 478.767 147.229Z" fill="#FFB3A1"/>
<path d="M478.947 147.176L465.89 166.226L458.613 165.419C457.854 168.899 455.7 174.574 456.035 178.19C461.425 179.521 468.244 180.465 470.454 179.76C475.409 177.155 487.195 169.865 494.315 156.218C497.752 145.22 487.574 138.021 478.947 147.176Z" fill="#7498E8"/>
<path d="M472.735 116.025C467.884 116.829 466.58 113.194 467.11 111.481C468.215 108.044 471.243 110.852 472.735 109.71C474.227 108.569 476.139 107.229 477.885 107.042C481.675 106.658 483.476 109.011 485.62 109.221C494.958 110.188 491.786 120.731 490.04 122.922C489.555 123.57 489.154 124.283 488.847 125.042C488.689 125.408 488.607 125.805 488.607 126.207C488.607 126.609 488.689 127.006 488.847 127.372C488.763 127.729 488.593 128.058 488.354 128.325C488.115 128.593 487.814 128.792 487.481 128.902C487.148 129.012 486.794 129.03 486.452 128.954C486.111 128.877 485.794 128.71 485.532 128.467C485.145 127.966 485.609 124.879 485.532 124.238C485.333 123.121 485.244 121.985 485.266 120.848C484.161 121.943 483.487 126.16 481.575 124.891C478.327 120.731 479.94 114.825 472.735 116.025Z" fill="#1F2635"/>
<path d="M484.019 120.278C484.198 120.131 484.404 120.039 484.621 120.01C484.838 119.981 485.057 120.015 485.259 120.11C485.426 120.209 485.573 120.347 485.691 120.516C485.81 120.685 485.896 120.882 485.946 121.092C486.018 121.515 486.018 121.951 485.946 122.374C485.874 123.163 485.639 123.92 485.259 124.578C484.882 125.242 484.31 125.72 483.65 125.92C483.095 126.077 482.511 126.001 482 125.705C482 125.705 482.953 122.326 483.025 121.895C483.207 121.25 483.554 120.685 484.019 120.278Z" fill="#FFB3A1"/>
<g style="mix-blend-mode:multiply" opacity="0.3">
<path d="M485.934 121.111C485.89 120.899 485.812 120.702 485.706 120.532C485.601 120.361 485.469 120.222 485.32 120.123C485.175 120.042 485.019 120 484.861 120C484.704 120 484.548 120.042 484.403 120.123C484.8 120.409 485.099 120.885 485.237 121.453C485.375 122.02 485.342 122.636 485.146 123.173C484.956 123.806 484.667 124.379 484.297 124.855C483.928 125.331 483.486 125.698 483 125.933C483.302 126.022 483.615 126.022 483.917 125.933C484.507 125.732 485.019 125.251 485.356 124.583C485.696 123.921 485.907 123.159 485.971 122.365C486.02 121.948 486.007 121.522 485.934 121.111Z" fill="#FFB3A1"/>
</g>
<path d="M487.718 135C488.905 135.971 489.71 137.301 490 138.77L476.879 145C478.316 143.47 477.107 141.219 476 140.049L487.718 135Z" fill="#D0DAFD"/>
<path d="M477 136C475.627 138.12 474.489 138.465 472 143C472 143 474.489 140.227 475.906 140.079C476.472 138.802 476.842 137.422 477 136Z" fill="#D0DAFD"/>
<path d="M445.853 117.762C444.224 116.786 442.845 115.432 441.827 113.81C440.81 112.188 440.184 110.344 440 108.428C440.515 107.787 442.761 112.232 443.826 111.695C443.631 108.195 439.244 103.19 441.443 102C443.875 103.503 445.92 105.576 447.408 108.045C448.896 110.514 449.785 113.309 450 116.198C448.935 117.283 447.125 118.532 445.853 117.762Z" fill="#FFB3A1"/>
<path d="M223.319 252H167.633C164.652 252 161.766 250.946 159.483 249.022C157.2 247.098 155.666 244.429 155.151 241.483L150.189 212.98C149.871 211.156 149.955 209.285 150.434 207.497C150.913 205.709 151.775 204.048 152.961 202.629C154.147 201.211 155.628 200.069 157.299 199.285C158.971 198.501 160.793 198.093 162.638 198.09L217.151 198C220.048 197.996 222.858 198.989 225.114 200.813C227.369 202.638 228.933 205.183 229.544 208.024L235.713 236.605C236.113 238.46 236.095 240.382 235.658 242.229C235.221 244.076 234.377 245.802 233.188 247.279C231.999 248.755 230.496 249.946 228.788 250.763C227.08 251.58 225.211 252.003 223.319 252Z" fill="#D0DAFD"/>
<path d="M205 252L228 262L225.43 252.055L205 252Z" fill="#D0DAFD"/>
<path d="M208.528 219.039C209.559 223.137 208.887 227.456 206.652 231.091C204.429 234.548 199.843 238.304 197.446 239C194.737 238.326 188.449 234.581 184.651 231.146C181.012 227.916 178.458 223.73 177.31 219.116C176.835 217.018 176.8 214.819 177.97 213.217C179.29 211.428 182.046 210.699 184.767 211.163C187.54 211.717 190.069 213.066 192.016 215.029C192.565 214.03 193.342 213.161 194.29 212.486C195.238 211.811 196.332 211.348 197.493 211.13C198.857 210.907 200.256 210.972 201.59 211.321C202.925 211.671 204.163 212.295 205.216 213.151C206.949 214.727 208.11 216.79 208.528 219.039Z" fill="#FC7070"/>
<path d="M206.268 167H168.055C166.01 166.999 164.032 166.257 162.466 164.903C160.9 163.549 159.848 161.671 159.495 159.599L156.129 139.542C155.912 138.258 155.969 136.941 156.299 135.683C156.628 134.424 157.22 133.255 158.035 132.258C158.849 131.26 159.866 130.457 161.014 129.907C162.161 129.356 163.412 129.07 164.678 129.069L202.072 129C204.058 128.999 205.984 129.699 207.53 130.983C209.075 132.266 210.146 134.057 210.565 136.055L214.806 156.169C215.079 157.477 215.064 158.832 214.761 160.134C214.459 161.435 213.876 162.65 213.057 163.689C212.238 164.728 211.203 165.565 210.028 166.138C208.853 166.711 207.568 167.006 206.268 167Z" fill="#D0DAFD"/>
<path d="M194 166L209 173L207.322 166.045L194 166Z" fill="#D0DAFD"/>
<path d="M177.947 146.994C178.022 147.361 178.017 147.741 177.932 148.105C177.846 148.47 177.683 148.809 177.453 149.098C177.223 149.388 176.934 149.619 176.606 149.775C176.278 149.931 175.92 150.008 175.56 149.999C174.737 149.976 173.945 149.668 173.31 149.123C172.674 148.579 172.231 147.83 172.051 146.994C171.977 146.628 171.984 146.249 172.07 145.886C172.157 145.523 172.321 145.185 172.55 144.898C172.78 144.61 173.069 144.38 173.395 144.224C173.722 144.069 174.079 143.993 174.438 144.001C175.258 144.025 176.048 144.333 176.683 144.874C177.318 145.416 177.762 146.161 177.947 146.994Z" fill="white"/>
<path d="M189.949 146.505C190.023 146.81 190.016 147.126 189.93 147.428C189.843 147.731 189.679 148.012 189.45 148.252C189.22 148.492 188.931 148.683 188.605 148.813C188.278 148.942 187.921 149.006 187.562 149C186.742 148.979 185.952 148.723 185.317 148.271C184.682 147.82 184.238 147.199 184.053 146.505C183.978 146.2 183.983 145.883 184.068 145.579C184.154 145.275 184.317 144.992 184.547 144.751C184.777 144.51 185.066 144.318 185.394 144.187C185.722 144.057 186.08 143.994 186.44 144.001C187.263 144.022 188.053 144.279 188.688 144.733C189.324 145.186 189.767 145.81 189.949 146.505Z" fill="white"/>
<path d="M200.956 146C201.019 146.366 201.015 146.745 200.943 147.109C200.872 147.473 200.736 147.812 200.544 148.1C200.353 148.389 200.112 148.62 199.839 148.775C199.565 148.931 199.268 149.008 198.967 148.999C198.283 148.972 197.625 148.663 197.096 148.12C196.568 147.577 196.198 146.832 196.044 146C195.981 145.634 195.985 145.255 196.057 144.891C196.128 144.527 196.264 144.188 196.456 143.9C196.647 143.611 196.888 143.38 197.161 143.225C197.435 143.069 197.732 142.992 198.033 143.001C198.718 143.026 199.376 143.335 199.905 143.877C200.434 144.42 200.804 145.167 200.956 146Z" fill="white"/>
<path d="M285.287 298.092C289.57 304.519 296.312 306.775 297.332 307.251C298.351 307.727 301.943 310.085 302 312.84C299.882 320.424 296.533 327.609 292.085 334.106C289.955 335.84 285.83 334.605 284.811 334.106C283.791 333.607 277.717 329.923 270.08 330.785C262.443 331.646 250.817 332.61 243.418 328.279C223.169 315.164 229.56 297.616 231.498 293.013C233.56 288.66 245.027 270.772 266.262 279.252C274.284 282.142 281.015 291.664 285.287 298.092Z" fill="#F9DC80"/>
<path opacity="0.1" d="M252.62 302.479C257.115 299.567 261.04 295.883 264.209 291.604C265.895 289.426 267.116 286.936 267.8 284.283C268.067 282.805 268.067 281.291 267.8 279.812C267.315 279.589 266.818 279.391 266.311 279.22C245.018 270.86 233.52 288.497 231.452 292.789C229.068 298.123 228.402 304.048 229.543 309.766C234.293 313.857 246.189 306.827 252.62 302.479Z" fill="white"/>
<g style="mix-blend-mode:multiply" opacity="0.3">
<path d="M262.707 310C261.267 313.305 256.152 317.485 253.521 318.415C246.426 320.936 238.364 319.121 232 315.311C234.046 319.793 237.746 324.275 244.098 328.376C251.429 332.656 262.954 331.737 270.555 330.852C278.156 329.967 284.193 333.676 285.172 334.135C286.15 334.595 290.276 335.827 292.39 334.135C294.133 331.69 295.674 329.108 297 326.415C293.559 325.082 264.258 310.874 262.707 310Z" fill="#F9DC80"/>
</g>
<path d="M295 328L257 318" stroke="white" stroke-width="0.82" stroke-miterlimit="10" stroke-linecap="round"/>
<path d="M299 319L267 296" stroke="white" stroke-width="0.82" stroke-miterlimit="10" stroke-linecap="round"/>
<path d="M257.252 318C256.567 317.857 255.92 317.575 255.354 317.175C254.788 316.774 254.315 316.262 253.965 315.673C253.285 314.496 252.953 313.16 253.005 311.811C252.985 310.808 253.224 309.816 253.701 308.926C254.01 308.417 254.424 307.975 254.918 307.629C255.411 307.282 255.973 307.039 256.568 306.913C257.172 306.795 257.793 306.795 258.397 306.913C259 307.031 259.573 307.264 260.083 307.6C260.549 307.861 260.906 308.272 261.09 308.763C261.179 309.105 261.15 309.465 261.007 309.789C260.864 310.112 260.615 310.382 260.299 310.555C260.015 310.681 259.706 310.747 259.393 310.747C259.08 310.747 258.772 310.681 258.487 310.555C257.902 310.322 257.383 309.954 256.976 309.484C256.282 308.735 255.775 307.84 255.496 306.869C255.217 305.898 255.174 304.878 255.369 303.889C255.522 303.011 255.923 302.191 256.526 301.52C257.129 300.849 257.912 300.352 258.787 300.085C260.004 299.864 261.261 300.015 262.386 300.515C263.142 300.817 263.945 301.329 264.065 302.097C264.105 302.438 264.051 302.783 263.909 303.098C263.81 303.398 263.646 303.674 263.426 303.907C263.207 304.14 262.938 304.324 262.638 304.447C262.313 304.518 261.977 304.522 261.651 304.46C261.325 304.398 261.016 304.271 260.743 304.086C259.9 303.57 259.236 302.821 258.836 301.936C258.436 301.051 258.319 300.069 258.499 299.119C258.712 298.184 259.184 297.324 259.865 296.631C260.546 295.937 261.41 295.438 262.362 295.187C263.335 294.951 264.351 294.938 265.33 295.15C266.309 295.362 267.223 295.793 268 296.408" stroke="white" stroke-width="0.82" stroke-miterlimit="10" stroke-linecap="round"/>
<path d="M320 323.939L312.27 341L292 334.794L302.348 312L320 323.939Z" fill="#1F2635"/>
<path d="M319.425 323.198C321.547 324.242 321.525 329.022 319.357 333.874C317.189 338.726 313.682 341.834 311.571 340.802C309.46 339.77 309.471 334.978 311.639 330.126C313.807 325.274 317.291 322.166 319.425 323.198Z" fill="#1F2635"/>
<path d="M309.712 316.331L295.608 336.397C295.391 336.709 295.062 336.919 294.694 336.981C294.327 337.043 293.95 336.952 293.647 336.729L293.581 336.672C293.431 336.562 293.304 336.422 293.208 336.261C293.111 336.1 293.046 335.921 293.017 335.734C292.988 335.546 292.996 335.355 293.039 335.171C293.083 334.987 293.161 334.814 293.271 334.661L307.375 314.595C307.594 314.285 307.923 314.078 308.291 314.018C308.659 313.958 309.034 314.05 309.336 314.275H309.402C309.557 314.386 309.688 314.529 309.788 314.694C309.888 314.859 309.954 315.043 309.983 315.235C310.012 315.427 310.003 315.623 309.957 315.811C309.91 316 309.827 316.177 309.712 316.331Z" fill="#344159"/>
<path d="M313.713 319.304L300.626 337.416C300.405 337.72 300.073 337.924 299.702 337.982C299.331 338.041 298.953 337.95 298.648 337.73L298.581 337.674C298.432 337.565 298.305 337.427 298.208 337.269C298.111 337.111 298.047 336.935 298.017 336.752C297.988 336.568 297.996 336.381 298.039 336.201C298.082 336.02 298.16 335.85 298.268 335.7L311.355 317.588C311.462 317.436 311.599 317.308 311.757 317.21C311.914 317.112 312.09 317.047 312.273 317.017C312.456 316.988 312.643 316.996 312.823 317.04C313.003 317.084 313.173 317.163 313.322 317.274H313.389C313.546 317.383 313.68 317.523 313.782 317.686C313.884 317.848 313.952 318.03 313.982 318.219C314.012 318.409 314.004 318.603 313.958 318.789C313.912 318.976 313.828 319.151 313.713 319.304Z" fill="#344159"/>
<path d="M316.717 322.266L304.712 338.409C304.601 338.562 304.46 338.691 304.297 338.789C304.134 338.887 303.953 338.953 303.763 338.983C303.574 339.012 303.381 339.004 303.195 338.96C303.008 338.916 302.833 338.836 302.679 338.725H302.61C302.294 338.503 302.082 338.169 302.019 337.795C301.957 337.422 302.048 337.039 302.274 336.731L314.279 320.587C314.508 320.281 314.851 320.077 315.235 320.018C315.618 319.958 316.01 320.05 316.324 320.272H316.393C316.55 320.381 316.682 320.52 316.783 320.68C316.884 320.839 316.952 321.017 316.982 321.203C317.012 321.388 317.004 321.578 316.959 321.76C316.913 321.942 316.831 322.114 316.717 322.266Z" fill="#344159"/>
<path d="M320.725 325.28L309.684 340.406C309.573 340.559 309.432 340.689 309.271 340.788C309.109 340.887 308.929 340.953 308.742 340.982C308.554 341.012 308.362 341.004 308.178 340.96C307.993 340.915 307.82 340.835 307.667 340.723H307.598C307.444 340.613 307.313 340.474 307.214 340.313C307.114 340.153 307.047 339.974 307.018 339.788C306.988 339.601 306.996 339.411 307.041 339.228C307.086 339.045 307.167 338.872 307.279 338.72L318.321 323.594C318.432 323.441 318.572 323.311 318.734 323.212C318.895 323.113 319.075 323.047 319.263 323.018C319.45 322.988 319.642 322.996 319.827 323.04C320.011 323.085 320.185 323.165 320.338 323.277H320.406C320.715 323.501 320.922 323.838 320.982 324.213C321.042 324.588 320.95 324.972 320.725 325.28Z" fill="#344159"/>
<path d="M173 336H165.55L160 331.935V297H173V336Z" fill="#5A83CC"/>
<path d="M178 297H165V336H178V297Z" fill="#7498E8"/>
<path d="M196 336H188.544L183 330.784V286H196V336Z" fill="#5A83CC"/>
<path d="M201 286H188V336H201V286Z" fill="#7498E8"/>
<path d="M220 336H212.55L207 328.904V268H220V336Z" fill="#5A83CC"/>
<path d="M225 268H212V336H225V268Z" fill="#7498E8"/>
<path d="M497.077 62.9114C497.807 62.6422 498.478 62.2364 499.055 61.7157C500.307 60.3542 500.99 58.5665 500.965 56.7186C501.115 54.9052 500.784 53.0842 500.004 51.4394C499.19 49.8264 498.874 48.484 497.1 48.0554C496.309 47.8636 490.647 47.2771 488.059 50.0633C488.059 47.8749 488.059 45.5512 486.861 43.7125C486.197 42.7775 485.327 42.0059 484.319 41.4565C483.189 40.7797 483.053 40.3285 481.731 40.148C479.14 39.7553 476.49 40.1483 474.126 41.276C472.844 42.0144 471.804 43.1074 471.131 44.4232C470.001 46.792 470.374 49.3977 470.905 51.9809C469.597 51.2318 468.098 50.8798 466.593 50.9679C465.088 51.0561 463.641 51.5806 462.43 52.4772C461.26 53.426 460.452 54.7472 460.141 56.2195C459.831 57.6918 460.036 59.2259 460.723 60.5651C461.289 61.5818 462.079 62.4559 463.035 63.1207C463.991 63.7854 465.086 64.2231 466.238 64.4004C481.98 66.2052 495.8 63.4077 497.077 62.9114Z" fill="#5A83CC"/>
<path d="M500.083 62.9843C500.813 62.7154 501.483 62.3097 502.06 61.7893C503.31 60.4234 503.993 58.6338 503.969 56.7839C504.108 54.9722 503.778 53.1551 503.009 51.508C502.618 50.6891 502.056 49.9633 501.361 49.3799C500.665 48.7964 499.852 48.3688 498.977 48.126C498.182 47.9607 497.369 47.9075 496.559 47.9682C494.515 48.0471 492.188 48.4304 491.047 50.1214C491.047 47.9343 491.047 45.612 489.85 43.7744C489.18 42.8454 488.312 42.0755 487.309 41.5198C486.157 40.8322 484.891 40.3585 483.57 40.1219C481.339 39.7644 479.053 40.1992 477.109 41.3507C475.831 42.0916 474.792 43.1832 474.116 44.4959C472.987 46.8634 473.36 49.4675 473.89 52.0491C472.585 51.3001 471.089 50.948 469.586 51.0361C468.083 51.1242 466.639 51.6487 465.43 52.5452C464.263 53.4944 463.456 54.8139 463.143 56.2844C462.831 57.7548 463.032 59.2877 463.714 60.6282C464.29 61.6377 465.085 62.5059 466.04 63.1691C466.996 63.8323 468.088 64.2738 469.237 64.4612C481.481 66.1183 498.852 63.4691 500.083 62.9843Z" fill="#7498E8"/>
<path d="M354.069 37.9164C354.799 37.6473 355.47 37.2416 356.047 36.721C357.299 35.354 357.985 33.5653 357.969 31.7141C358.108 29.9054 357.778 28.0914 357.008 26.4478C356.183 24.8352 355.878 23.482 354.103 23.0647C353.312 22.873 347.638 22.2866 345.061 25.0607C345.061 22.873 345.061 20.55 343.874 18.7118C343.204 17.7815 342.336 17.0111 341.331 16.4565C340.201 15.7686 340.054 15.3288 338.731 15.1483C336.14 14.7551 333.489 15.148 331.124 16.276C329.847 17.0202 328.808 18.1114 328.129 19.4223C326.999 21.8017 327.372 24.4067 327.903 26.9891C326.596 26.2374 325.096 25.8839 323.59 25.972C322.084 26.0602 320.636 26.5862 319.426 27.4852C318.259 28.4332 317.452 29.7519 317.142 31.2213C316.831 32.6907 317.035 34.2219 317.719 35.5595C318.283 36.578 319.074 37.4541 320.03 38.1206C320.986 38.7872 322.082 39.2265 323.235 39.4049C338.969 41.2092 352.792 38.3787 354.069 37.9164Z" fill="#5A83CC"/>
<path d="M356.175 37.9734C356.886 37.7045 357.541 37.299 358.103 36.7786C359.324 35.4181 359.99 33.6317 359.965 31.7851C360.112 29.9729 359.789 28.1533 359.029 26.5097C358.649 25.69 358.101 24.9637 357.422 24.3801C356.744 23.7966 355.95 23.3695 355.095 23.1281C354.321 22.9587 353.527 22.9018 352.737 22.959C350.743 23.0492 348.473 23.4212 347.36 25.1233C347.36 22.9365 347.36 20.6144 346.192 18.7771C345.541 17.8453 344.693 17.0749 343.713 16.5227C342.592 15.8303 341.355 15.3564 340.065 15.1249C337.888 14.7616 335.656 15.1967 333.763 16.3536C332.518 17.0951 331.509 18.1867 330.853 19.4985C329.752 21.8656 330.104 24.4695 330.622 27.0508C329.349 26.3018 327.889 25.9497 326.423 26.0379C324.957 26.126 323.548 26.6504 322.369 27.5468C321.228 28.4949 320.441 29.8151 320.138 31.2863C319.835 32.7576 320.035 34.2906 320.705 35.6288C321.265 36.638 322.038 37.506 322.969 38.1692C323.899 38.8324 324.963 39.274 326.082 39.4614C337.928 41.1183 354.875 38.4694 356.175 37.9734Z" fill="#7498E8"/>
</svg>
