<svg width="690" height="350" viewBox="0 0 690 350" fill="none" xmlns="http://www.w3.org/2000/svg">
<path d="M591.899 193.672L574.789 210.712L557.609 183.66L567.273 173.703L591.899 193.672Z" fill="#FD8753"/>
<path d="M582.839 148.196C584.596 147.582 592.098 156.033 593.005 156.479C593.911 156.925 591.777 163.591 593.785 164.065C595.794 164.539 599.475 163.716 602.417 164.455C605.36 165.194 636.373 192.414 641.727 198.48C641.831 198.607 641.908 198.753 641.954 198.91C642 199.066 642.014 199.231 641.996 199.393C641.978 199.555 641.928 199.712 641.848 199.855C641.768 199.998 641.661 200.123 641.532 200.223C639.514 201.894 637.348 203.378 635.062 204.658C632.006 206.558 628.48 207.567 624.882 207.572C616.864 207.001 605.443 199.638 599.642 198.871C593.841 198.104 584.624 200.363 583.383 197.337C582.142 194.311 582.393 185.609 575.755 181.133C569.117 176.657 565.087 175.709 564.725 172.85C564.474 170.926 572.06 160.607 577.526 153.941C579.075 151.832 580.857 149.904 582.839 148.196Z" fill="#E2209E"/>
<path d="M582.84 148.196C584.597 147.582 592.1 156.033 593.006 156.479C593.912 156.925 591.779 163.591 593.787 164.065C595.795 164.539 599.476 163.716 602.419 164.455C605.361 165.194 636.374 192.414 641.729 198.48C641.832 198.607 641.909 198.753 641.955 198.91C642.001 199.066 642.016 199.231 641.997 199.393C641.979 199.555 641.929 199.712 641.849 199.855C641.77 199.998 641.662 200.123 641.533 200.223C639.515 201.894 637.349 203.378 635.063 204.658L577.527 153.899C579.078 151.805 580.861 149.891 582.84 148.196Z" fill="#110828"/>
<path d="M514.48 289.551L518.05 299.717L538.312 306.201L548.031 301.864L542.858 278.562L514.48 289.551Z" fill="#FD8753"/>
<path d="M550.857 128.87C550.857 128.87 554.496 147.096 556.211 162.588C557.927 178.081 560.702 198.845 560.702 198.845C560.702 198.845 573.419 246.521 542.866 250.733C504.979 256.004 506.903 211.06 506.903 211.06L518.296 117.031L550.857 128.87Z" fill="#FFB700"/>
<path d="M592.459 201.459L561.111 174.406L551.768 187.57L549.23 249.122C549.23 249.122 562.882 247.323 592.459 201.459Z" fill="#FFB700"/>
<path d="M490.268 124.617C490.268 124.617 477.62 175.027 481.623 212.204C485.625 249.38 504.06 294.951 504.06 294.951L553.242 285.79L536.816 230.694L524.935 127.085L490.268 124.617Z" fill="#FFB700"/>
<path d="M552.95 331.256C552.057 332.873 540.832 331.618 539.856 331.883C538.88 332.148 536.021 325.789 534.208 326.793C532.395 327.798 530.206 330.837 527.529 332.274C524.851 333.71 483.589 334.212 475.557 333.292C475.235 333.244 474.946 333.07 474.752 332.808C474.559 332.547 474.477 332.219 474.525 331.897C474.915 329.31 475.531 326.763 476.366 324.283C477.354 320.83 479.285 317.72 481.944 315.303C488.275 310.367 501.689 308.191 506.514 304.886C511.339 301.582 516.68 293.731 519.622 295.125C522.564 296.52 528.212 303.171 536.133 302.097C544.053 301.024 547.693 298.988 549.882 300.87C551.346 302.139 552.671 314.815 553.006 323.489C553.284 326.071 553.265 328.677 552.95 331.256Z" fill="#E2209E"/>
<path d="M540.082 251.5C534.72 251.521 529.427 250.29 524.626 247.902C519.825 245.515 515.648 242.039 512.429 237.75C496.379 216.582 505.862 159.66 507.033 153.036L490.899 151.656C490.825 151.66 490.751 151.649 490.682 151.622C490.613 151.596 490.551 151.555 490.499 151.502C490.447 151.449 490.407 151.386 490.382 151.316C490.357 151.247 490.347 151.172 490.353 151.099C490.359 151.025 490.381 150.953 490.417 150.889C490.453 150.824 490.503 150.768 490.563 150.725C490.622 150.681 490.691 150.651 490.763 150.636C490.836 150.621 490.91 150.621 490.983 150.638L507.716 152.032C507.788 152.037 507.857 152.057 507.92 152.091C507.984 152.124 508.039 152.171 508.082 152.228C508.126 152.285 508.157 152.35 508.173 152.42C508.189 152.49 508.19 152.562 508.176 152.632C508.065 153.26 496.867 215.453 513.28 237.109C516.682 241.638 521.181 245.227 526.352 247.537C531.524 249.848 537.199 250.803 542.843 250.314C542.973 250.298 543.105 250.332 543.212 250.41C543.318 250.488 543.391 250.603 543.415 250.733C543.435 250.868 543.4 251.005 543.319 251.115C543.238 251.225 543.117 251.298 542.982 251.318C542.02 251.438 541.051 251.499 540.082 251.5Z" fill="#E2209E"/>
<path d="M548.194 196.372C547.771 196.373 547.36 196.236 547.023 195.982C546.756 195.783 546.538 195.526 546.384 195.232C546.229 194.938 546.143 194.613 546.13 194.28C545.851 189.623 557.174 178.858 557.662 178.398C557.749 178.327 557.857 178.289 557.969 178.289C558.081 178.289 558.189 178.327 558.276 178.398C558.373 178.456 558.448 178.546 558.486 178.653C558.524 178.76 558.524 178.876 558.485 178.983C557.927 180.629 552.907 195.034 548.821 196.33C548.616 196.378 548.404 196.392 548.194 196.372ZM556.784 180.671C553.061 184.422 547.023 191.227 547.148 194.225C547.15 194.406 547.194 194.585 547.276 194.747C547.358 194.909 547.477 195.05 547.622 195.159C547.747 195.256 547.894 195.319 548.05 195.344C548.207 195.368 548.366 195.353 548.515 195.298C551.178 194.462 554.887 185.788 556.784 180.671Z" fill="#E2209E"/>
<path d="M548.07 149.521C547.997 149.539 547.92 149.539 547.847 149.521C541.028 146.202 536.691 137.905 536.468 137.556C536.434 137.498 536.413 137.434 536.405 137.367C536.398 137.3 536.404 137.233 536.424 137.169C536.443 137.105 536.476 137.045 536.52 136.994C536.563 136.943 536.617 136.902 536.677 136.873C536.736 136.841 536.8 136.822 536.866 136.815C536.932 136.808 536.999 136.815 537.062 136.834C537.126 136.854 537.185 136.886 537.236 136.928C537.287 136.971 537.33 137.023 537.36 137.082C537.36 137.166 541.767 145.449 548.293 148.614C548.401 148.661 548.489 148.744 548.542 148.849C548.595 148.954 548.609 149.074 548.583 149.188C548.556 149.303 548.49 149.404 548.397 149.475C548.303 149.546 548.187 149.582 548.07 149.576V149.521Z" fill="#E2209E"/>
<path d="M552.95 331.248C552.057 332.866 540.832 331.611 539.856 331.876C538.88 332.141 536.021 325.782 534.208 326.786C532.395 327.79 530.206 330.83 527.529 332.266C524.851 333.702 483.589 334.204 475.557 333.284C475.235 333.236 474.946 333.062 474.752 332.8C474.559 332.539 474.477 332.211 474.525 331.89C474.915 329.303 475.531 326.755 476.366 324.276L553.061 323.453C553.323 326.047 553.286 328.663 552.95 331.248Z" fill="#110828"/>
<path d="M541.335 60.7215C548.509 62.6735 555.073 66.4091 560.415 71.5805C565.757 76.7519 569.704 83.191 571.888 90.2982C579.543 114.938 548.642 140.931 548.642 140.931L490.27 124.602C490.27 124.602 497.242 61.3072 504.214 54.9763C511.187 48.6455 541.335 60.7215 541.335 60.7215Z" fill="#7E59D8"/>
<path d="M523.809 47.0674C523.809 47.0674 520.685 23.4591 490.272 17.6721C459.858 11.885 441.633 49.7448 441.633 49.7448L531.241 66.0461L523.809 47.0674Z" fill="#7E59D8"/>
<path d="M526.019 36.7492C526.019 36.7492 516.257 30.014 520.078 23.6134C523.899 17.2128 533.284 22.8185 533.284 22.8185C534.359 21.7153 535.767 20.9951 537.291 20.7684C538.814 20.5418 540.371 20.821 541.72 21.5635C546.866 24.0596 547.912 30.9483 547.912 30.9483C547.912 30.9483 552.96 30.4881 553.671 36.6237C554.382 42.7594 548.093 48.6859 548.093 48.6859L526.019 36.7492Z" fill="#5E1DBB"/>
<path d="M543.372 52.3828L544.292 64.0963C544.292 64.0963 542.438 67.6383 535.633 68.7259C530.557 69.5487 528.758 66.2996 528.758 66.2996L528.925 62.5345L529.162 56.7056L541.336 53.0103L543.372 52.3828Z" fill="#FD8753"/>
<path d="M541.333 53.0234C541.305 53.4206 541.215 53.8111 541.068 54.1808C538.906 60.2328 531.836 62.0596 528.922 62.5476L529.159 56.7188L541.333 53.0234Z" fill="black"/>
<path d="M524.463 30.2058C524.463 30.2058 519.47 45.3776 522.524 53.354C525.578 61.3303 532.927 59.3362 537.236 57.3282C539.688 56.2717 541.809 54.5706 543.372 52.4057C544.678 52.6596 546.032 52.4942 547.239 51.9333C548.446 51.3723 549.445 50.4445 550.093 49.2821C552.519 45.0987 550.386 40.9153 547.904 40.0647C545.421 39.2141 542.758 41.25 542.758 41.25L544.585 36.7598C544.585 36.7598 533.234 16.1635 524.463 30.2058Z" fill="#FD8753"/>
<path d="M543.653 47.5812C543.581 47.5789 543.51 47.5616 543.445 47.5304C543.381 47.4992 543.323 47.4547 543.276 47.3999C543.184 47.3017 543.133 47.172 543.133 47.0373C543.133 46.9027 543.184 46.773 543.276 46.6748L548.255 42.4914C548.301 42.4446 548.357 42.4075 548.418 42.3821C548.479 42.3568 548.544 42.3437 548.61 42.3438C548.676 42.3437 548.742 42.3568 548.803 42.3821C548.864 42.4075 548.919 42.4446 548.966 42.4914C549.014 42.537 549.053 42.5921 549.079 42.6533C549.106 42.7144 549.119 42.7804 549.119 42.847C549.119 42.9136 549.106 42.9795 549.079 43.0407C549.053 43.1018 549.014 43.1569 548.966 43.2026L543.987 47.386C543.947 47.4391 543.897 47.4837 543.84 47.5172C543.782 47.5507 543.719 47.5724 543.653 47.5812Z" fill="black"/>
<path d="M548.463 47.1239H548.379L544.823 46.4964C544.758 46.4847 544.696 46.4602 544.64 46.4243C544.585 46.3885 544.537 46.342 544.499 46.2876C544.461 46.2332 544.435 46.1719 544.421 46.1072C544.407 46.0425 544.407 45.9758 544.419 45.9107C544.429 45.8444 544.452 45.7808 544.487 45.7236C544.522 45.6664 544.568 45.6169 544.623 45.5779C544.678 45.5389 544.74 45.5112 544.805 45.4965C544.87 45.4819 544.938 45.4805 545.004 45.4924L548.546 46.1199C548.679 46.131 548.803 46.1945 548.889 46.2965C548.975 46.3985 549.017 46.5306 549.006 46.6638C548.995 46.7969 548.932 46.9202 548.83 47.0065C548.728 47.0928 548.596 47.135 548.463 47.1239Z" fill="black"/>
<path d="M534.723 35.6542C534.652 35.6545 534.582 35.6397 534.517 35.6109C534.452 35.582 534.394 35.5398 534.346 35.4868C533.951 34.9769 533.384 34.6279 532.75 34.5048C532.117 34.3817 531.46 34.4928 530.902 34.8175C530.847 34.8564 530.784 34.8838 530.718 34.8978C530.652 34.9119 530.583 34.9125 530.517 34.8994C530.45 34.8864 530.387 34.8601 530.331 34.822C530.275 34.784 530.228 34.735 530.191 34.678C530.117 34.5633 530.092 34.4241 530.121 34.2908C530.15 34.1576 530.23 34.0411 530.344 33.9669C531.106 33.5129 532.005 33.3476 532.877 33.5012C533.75 33.6548 534.539 34.117 535.099 34.8035C535.192 34.9018 535.243 35.0314 535.243 35.1661C535.243 35.3008 535.192 35.4304 535.099 35.5286C535.049 35.5741 534.989 35.6086 534.924 35.6302C534.859 35.6518 534.791 35.6599 534.723 35.6542Z" fill="black"/>
<path d="M523.322 35.9994C523.222 35.9958 523.125 35.9632 523.043 35.9054C522.961 35.8476 522.898 35.7672 522.861 35.674C522.824 35.5808 522.815 35.4789 522.835 35.3806C522.855 35.2824 522.903 35.1921 522.973 35.1208C523.447 34.6544 524.052 34.3433 524.707 34.2287C525.362 34.1141 526.037 34.2015 526.641 34.4794C526.745 34.5483 526.821 34.6528 526.854 34.7733C526.887 34.8939 526.875 35.0224 526.821 35.1348C526.766 35.2473 526.672 35.3362 526.557 35.3849C526.442 35.4336 526.313 35.4389 526.195 35.3997C525.777 35.2154 525.314 35.1594 524.865 35.2388C524.415 35.3183 524 35.5296 523.671 35.846C523.579 35.9409 523.454 35.996 523.322 35.9994Z" fill="black"/>
<path d="M526.537 48.2222C526.434 48.2234 526.334 48.1934 526.25 48.1361C526.165 48.0787 526.1 47.9969 526.063 47.9015C525.5 46.6186 525.317 45.2014 525.534 43.8175C525.752 42.4337 526.361 41.1411 527.29 40.0925C527.335 40.0357 527.392 39.9892 527.456 39.9559C527.521 39.9226 527.592 39.9033 527.664 39.8992C527.737 39.8952 527.809 39.9065 527.877 39.9324C527.945 39.9583 528.006 39.9982 528.058 40.0496C528.109 40.1009 528.149 40.1625 528.175 40.2303C528.201 40.2982 528.212 40.3707 528.208 40.4432C528.204 40.5157 528.185 40.5865 528.151 40.651C528.118 40.7156 528.072 40.7723 528.015 40.8176C527.224 41.7258 526.71 42.841 526.532 44.0318C526.354 45.2226 526.52 46.4394 527.011 47.5389C527.057 47.6648 527.052 47.8036 526.997 47.9259C526.942 48.0482 526.842 48.1445 526.718 48.1943L526.537 48.2222Z" fill="black"/>
<path d="M523.803 41.6183H523.706C523.641 41.6065 523.579 41.582 523.523 41.5462C523.467 41.5103 523.419 41.4639 523.382 41.4095C523.344 41.355 523.318 41.2937 523.304 41.2291C523.29 41.1644 523.289 41.0976 523.301 41.0326L523.831 38.2437C523.843 38.1771 523.868 38.1137 523.905 38.057C523.941 38.0004 523.989 37.9517 524.045 37.9139C524.101 37.8762 524.164 37.8501 524.23 37.8373C524.297 37.8244 524.365 37.8251 524.431 37.8393C524.562 37.8694 524.676 37.948 524.751 38.0594C524.826 38.1707 524.856 38.3063 524.835 38.4389L524.305 41.2278C524.28 41.3409 524.216 41.4415 524.124 41.5127C524.033 41.5838 523.919 41.6212 523.803 41.6183Z" fill="black"/>
<path d="M531.245 41.2017H531.147C531.082 41.19 531.02 41.1655 530.964 41.1296C530.909 41.0938 530.861 41.0473 530.823 40.9929C530.786 40.9385 530.759 40.8772 530.745 40.8125C530.732 40.7478 530.731 40.6811 530.743 40.616L531.259 37.8271C531.286 37.6945 531.364 37.5779 531.476 37.5022C531.588 37.4266 531.725 37.3981 531.858 37.4227C531.923 37.4345 531.986 37.4589 532.041 37.4948C532.097 37.5306 532.145 37.5771 532.182 37.6315C532.22 37.6859 532.246 37.7472 532.26 37.8119C532.274 37.8766 532.275 37.9434 532.263 38.0084L531.747 40.7973C531.721 40.9117 531.658 41.0141 531.567 41.0876C531.475 41.1611 531.362 41.2013 531.245 41.2017Z" fill="black"/>
<path d="M523.487 33.6228C523.87 32.8665 524.44 32.2209 525.143 31.7473C525.846 31.2737 526.658 30.9881 527.503 30.9175C528.373 30.852 529.246 30.9669 530.069 31.2548C530.892 31.5428 531.647 31.9976 532.286 32.5909C532.286 32.5909 531.394 37.611 535.563 39.9118C537.689 41.2937 540.27 41.7938 542.759 41.3063L545.548 40.0513L547.332 35.6727L538.296 27.3059L527.057 22.4531L521.953 27.8776L523.487 33.6228Z" fill="#5E1DBB"/>
<path d="M529.466 51.4371C529.396 51.4409 529.326 51.4303 529.26 51.4061C529.194 51.3819 529.134 51.3445 529.083 51.2962C529.032 51.2479 528.991 51.1897 528.964 51.1252C528.936 51.0607 528.922 50.9913 528.922 50.9211C528.922 50.6422 529.145 50.4749 529.438 50.4191C530.127 50.4281 530.803 50.2277 531.375 49.8442C531.948 49.4607 532.391 48.9123 532.645 48.2716C532.669 48.2094 532.705 48.1524 532.751 48.104C532.796 48.0556 532.851 48.0167 532.912 47.9895C532.973 47.9623 533.039 47.9473 533.105 47.9455C533.172 47.9437 533.238 47.955 533.301 47.9788C533.363 48.0026 533.42 48.0384 533.468 48.0843C533.517 48.1301 533.555 48.185 533.583 48.2458C533.61 48.3067 533.625 48.3723 533.627 48.439C533.628 48.5056 533.617 48.5719 533.593 48.6342C533.261 49.4583 532.691 50.1649 531.956 50.6641C531.221 51.1632 530.354 51.4323 529.466 51.4371Z" fill="black"/>
<path d="M392.702 146.133H499.657C503.546 146.133 506.699 142.98 506.699 139.091V49.2592C506.699 45.37 503.546 42.2172 499.657 42.2172L392.702 42.2172C388.812 42.2172 385.66 45.37 385.66 49.2592V139.091C385.66 142.98 388.812 146.133 392.702 146.133Z" fill="#352F75"/>
<path d="M517.593 92.5366C517.593 92.5366 502.924 84.7555 498.489 84.1001C494.055 83.4447 486.441 88.2835 486.441 88.2835L490.276 90.5007C490.276 90.5007 484.28 103.609 485.381 105.603C486.483 107.597 489.383 105.603 489.383 105.603C489.383 105.603 496.272 112.715 498.266 112.938C500.26 113.161 510.928 108.936 510.928 108.936L517.593 92.5366Z" fill="#FD8753"/>
<path d="M515.583 89.4066L547.349 100.73L544.086 61.5312C544.086 61.5312 568.448 68.9777 574.89 94.0642C581.333 119.151 572.004 139.147 552.007 140.932C532.01 142.717 504.93 114.716 504.93 114.716L515.583 89.4066Z" fill="#7E59D8"/>
<path d="M457.961 32.708C457.961 32.708 461.517 26.7397 464.794 31.7459C468.071 36.752 465.268 51.0174 462.605 51.6728C459.942 52.3282 457.961 46.9455 457.961 46.9455C457.961 46.9455 457.418 51.5891 454.42 51.6728C451.421 51.7564 450.041 46.9455 450.041 46.9455C450.041 46.9455 448.549 52.384 445.955 51.6728C443.096 50.9058 441.576 32.708 447.043 30.8255C449.664 29.9191 451.143 32.708 451.143 32.708C451.143 32.708 452.16 29.2498 455.159 29.696C455.928 29.7287 456.654 30.0631 457.178 30.6268C457.703 31.1906 457.984 31.9383 457.961 32.708Z" fill="#FD8753"/>
<path d="M490.271 90.5138L479.645 84.0156L476.926 89.4401L487.928 95.9802L490.271 90.5138Z" fill="#110828"/>
<path d="M473.536 91.2591C474.765 91.3668 475.999 91.1255 477.096 90.5631C478.194 90.0007 479.111 89.1399 479.741 88.0797C481.638 84.3147 479.1 79.7129 478.807 79.2109L475.279 81.2329C475.739 82.0417 476.883 84.7191 476.102 86.253C475.558 87.3546 473.159 87.257 472.141 87.0478L471.305 91.036C472.038 91.1899 472.786 91.2647 473.536 91.2591Z" fill="#110828"/>
<path d="M490.257 91.0418C490.152 91.0418 490.049 91.0076 489.964 90.9442C489.857 90.8636 489.785 90.7441 489.764 90.6113C489.743 90.4784 489.775 90.3427 489.853 90.233L492.572 86.4401C492.61 86.3842 492.658 86.3365 492.715 86.2998C492.771 86.2631 492.835 86.2381 492.901 86.2264C492.967 86.2147 493.035 86.2165 493.101 86.2316C493.167 86.2467 493.229 86.275 493.283 86.3146C493.391 86.3952 493.463 86.5146 493.483 86.6475C493.504 86.7803 493.472 86.916 493.395 87.0257L490.606 90.8326C490.565 90.8899 490.514 90.9381 490.454 90.9741C490.394 91.0101 490.327 91.0332 490.257 91.0418Z" fill="black"/>
<path d="M489.377 106.137C489.271 106.141 489.167 106.107 489.085 106.039C489.029 106.002 488.981 105.953 488.944 105.896C488.908 105.84 488.883 105.777 488.871 105.71C488.859 105.644 488.861 105.576 488.876 105.51C488.891 105.445 488.919 105.383 488.959 105.328L490.507 103.167C490.545 103.111 490.593 103.063 490.65 103.026C490.706 102.99 490.77 102.965 490.836 102.953C490.902 102.941 490.97 102.943 491.036 102.958C491.102 102.973 491.164 103.002 491.218 103.041C491.325 103.122 491.397 103.24 491.421 103.372C491.444 103.504 491.417 103.64 491.344 103.752L489.796 105.928C489.747 105.992 489.683 106.045 489.611 106.081C489.538 106.117 489.459 106.136 489.377 106.137Z" fill="black"/>
<path d="M457.959 46.8171C457.892 46.8172 457.826 46.8037 457.764 46.7776C457.702 46.7515 457.646 46.7133 457.599 46.6652C457.552 46.6171 457.516 46.5601 457.491 46.4976C457.467 46.4351 457.455 46.3683 457.457 46.3012V32.7051C457.457 32.6392 457.47 32.5739 457.495 32.513C457.521 32.4521 457.558 32.3968 457.604 32.3502C457.651 32.3035 457.706 32.2666 457.767 32.2413C457.828 32.2161 457.893 32.2031 457.959 32.2031C458.094 32.2031 458.223 32.2555 458.319 32.3493C458.416 32.443 458.472 32.5707 458.475 32.7051V46.3012C458.475 46.3689 458.462 46.436 458.436 46.4986C458.41 46.5612 458.372 46.6181 458.324 46.666C458.276 46.7139 458.219 46.7519 458.157 46.7778C458.094 46.8038 458.027 46.8171 457.959 46.8171Z" fill="black"/>
<path d="M450.056 47.4449C449.986 47.445 449.916 47.4308 449.852 47.4032C449.787 47.3755 449.729 47.335 449.681 47.2841C449.632 47.2332 449.595 47.173 449.571 47.1071C449.547 47.0413 449.536 46.9712 449.54 46.9011L450.627 32.6775C450.645 32.5433 450.712 32.4203 450.815 32.3326C450.918 32.2449 451.05 32.1989 451.185 32.2034C451.251 32.2087 451.316 32.227 451.375 32.2572C451.433 32.2874 451.486 32.329 451.529 32.3796C451.571 32.4301 451.604 32.4886 451.624 32.5517C451.644 32.6148 451.651 32.6813 451.645 32.7473L450.558 46.9848C450.544 47.1094 450.486 47.2248 450.393 47.3094C450.301 47.3941 450.181 47.4423 450.056 47.4449Z" fill="black"/>
<path d="M534.32 69.2937H534.125C533.049 69.2675 531.99 69.0228 531.012 68.5745C530.034 68.1263 529.157 67.4838 528.435 66.6861C528.343 66.5881 528.293 66.4573 528.297 66.3227C528.301 66.188 528.358 66.0604 528.456 65.9679C528.554 65.8755 528.685 65.8257 528.82 65.8297C528.954 65.8336 529.082 65.8908 529.174 65.9888C531.601 68.5547 534.752 68.973 538.685 67.2578C540.61 66.366 542.392 65.1909 543.97 63.7716C544.016 63.7159 544.074 63.6706 544.139 63.6387C544.204 63.6067 544.275 63.5889 544.348 63.5863C544.42 63.5837 544.492 63.5964 544.56 63.6236C544.627 63.6508 544.688 63.6919 544.738 63.7441C544.788 63.7964 544.827 63.8587 544.852 63.9269C544.876 63.9952 544.886 64.0678 544.881 64.1402C544.875 64.2125 544.855 64.2829 544.82 64.3467C544.786 64.4106 544.738 64.4665 544.681 64.5107C544.43 64.6641 539.535 69.2937 534.32 69.2937Z" fill="#110828"/>
<path d="M555.042 101.782C554.978 101.796 554.911 101.796 554.847 101.782C541.362 96.0647 522.035 91.8255 521.84 91.7837C521.707 91.7537 521.591 91.6723 521.518 91.5573C521.445 91.4424 521.42 91.3032 521.449 91.1701C521.479 91.0408 521.559 90.9287 521.672 90.8581C521.784 90.7876 521.92 90.7644 522.049 90.7936C522.244 90.7936 541.669 95.0885 555.237 100.834C555.299 100.86 555.355 100.897 555.403 100.945C555.45 100.993 555.487 101.05 555.511 101.112C555.536 101.175 555.548 101.242 555.546 101.309C555.545 101.376 555.53 101.442 555.502 101.503C555.461 101.59 555.396 101.662 555.314 101.712C555.232 101.761 555.138 101.786 555.042 101.782Z" fill="#110828"/>
<path d="M548.156 97.5199C546.134 97.5199 544.195 97.5199 542.843 97.3805C542.729 97.3763 542.62 97.3335 542.534 97.2593C542.448 97.185 542.389 97.0836 542.368 96.9718C542.347 96.8599 542.365 96.7442 542.418 96.6436C542.471 96.5431 542.557 96.4636 542.662 96.4183C543.094 96.2231 553.134 91.7747 556.606 94.6195C557.289 95.1772 557.276 95.6653 557.164 96.0139C556.69 97.2271 552.255 97.5199 548.156 97.5199ZM545.283 96.4601C550.498 96.5996 555.63 96.3486 556.216 95.6235C556.141 95.5495 556.061 95.4797 555.979 95.4143C553.999 93.7828 548.727 95.1912 545.283 96.4601Z" fill="#110828"/>
<path d="M493.432 42.7221C493.324 42.7171 493.22 42.68 493.133 42.6154C493.046 42.5508 492.98 42.4617 492.944 42.3595C492.596 41.2021 490.95 35.3872 492.303 33.8393C492.452 33.6682 492.645 33.5413 492.862 33.4725C493.078 33.4036 493.309 33.3955 493.53 33.4489C493.769 33.4946 493.995 33.592 494.192 33.734C494.39 33.8761 494.554 34.0596 494.673 34.2716C495.886 36.3215 494.116 41.7599 493.92 42.3735C493.885 42.4752 493.82 42.5635 493.732 42.626C493.645 42.6885 493.54 42.7221 493.432 42.7221ZM493.237 34.4389C493.208 34.4263 493.178 34.4197 493.146 34.4197C493.115 34.4197 493.084 34.4263 493.056 34.4389C492.484 35.0804 492.874 37.8136 493.46 40.2399C493.948 38.3295 494.408 35.7497 493.795 34.6621C493.75 34.574 493.685 34.4977 493.605 34.4396C493.525 34.3814 493.432 34.343 493.335 34.3274L493.237 34.4389Z" fill="#110828"/>
<path d="M530.627 135.288C530.554 135.309 530.477 135.309 530.404 135.288C530.25 135.218 515.971 127.925 508.022 118.554C507.98 118.503 507.948 118.444 507.928 118.38C507.909 118.317 507.902 118.25 507.909 118.184C507.915 118.118 507.935 118.054 507.966 117.995C507.998 117.937 508.041 117.885 508.092 117.843C508.139 117.796 508.194 117.759 508.255 117.734C508.316 117.708 508.382 117.695 508.448 117.695C508.514 117.695 508.579 117.708 508.64 117.734C508.701 117.759 508.757 117.796 508.803 117.843C516.612 127.116 530.71 134.312 530.85 134.381C530.911 134.41 530.966 134.45 531.011 134.5C531.057 134.55 531.092 134.609 531.114 134.673C531.136 134.736 531.145 134.804 531.14 134.871C531.136 134.939 531.118 135.004 531.087 135.065C531.035 135.138 530.966 135.196 530.886 135.235C530.805 135.274 530.716 135.292 530.627 135.288Z" fill="#110828"/>
<path d="M456.04 180.095C455.913 180.096 455.789 180.052 455.692 179.969C455.596 179.873 455.543 179.743 455.543 179.607C455.543 179.471 455.596 179.341 455.692 179.244L460.433 173.987C460.531 173.895 460.661 173.844 460.796 173.844C460.93 173.844 461.06 173.895 461.158 173.987C461.254 174.084 461.307 174.214 461.307 174.35C461.307 174.485 461.254 174.616 461.158 174.712L456.417 179.969C456.366 180.015 456.306 180.049 456.242 180.071C456.177 180.093 456.108 180.101 456.04 180.095Z" fill="#110828"/>
<path d="M460.751 180.098C460.68 180.098 460.61 180.083 460.545 180.054C460.48 180.026 460.422 179.983 460.374 179.93L455.633 174.673C455.538 174.577 455.484 174.446 455.484 174.311C455.484 174.175 455.538 174.045 455.633 173.948C455.731 173.856 455.861 173.805 455.996 173.805C456.13 173.805 456.26 173.856 456.358 173.948L461.1 179.205C461.195 179.302 461.248 179.432 461.248 179.568C461.248 179.704 461.195 179.834 461.1 179.93C461.009 180.028 460.884 180.088 460.751 180.098Z" fill="#110828"/>
<path d="M425.982 251.509H348.868C347.46 251.505 346.11 250.945 345.115 249.949C344.119 248.953 343.558 247.604 343.555 246.196V183.571C343.558 182.163 344.119 180.814 345.115 179.818C346.11 178.822 347.46 178.261 348.868 178.258H425.982C427.392 178.258 428.745 178.817 429.743 179.813C430.742 180.809 431.305 182.16 431.308 183.571V246.14C431.314 246.843 431.18 247.541 430.915 248.192C430.65 248.843 430.258 249.435 429.763 249.934C429.268 250.433 428.679 250.829 428.03 251.1C427.381 251.37 426.685 251.509 425.982 251.509ZM348.868 179.332C347.729 179.332 346.636 179.784 345.831 180.59C345.025 181.395 344.573 182.487 344.573 183.627V246.196C344.573 247.335 345.025 248.428 345.831 249.233C346.636 250.039 347.729 250.491 348.868 250.491H425.982C427.122 250.491 428.216 250.039 429.024 249.234C429.831 248.429 430.287 247.337 430.291 246.196V183.571C430.287 182.43 429.831 181.338 429.024 180.533C428.216 179.728 427.122 179.276 425.982 179.276L348.868 179.332Z" fill="#E2209E"/>
<path d="M430.792 192.737H344.057C343.922 192.733 343.795 192.677 343.701 192.581C343.607 192.485 343.555 192.355 343.555 192.221C343.555 192.088 343.608 191.96 343.702 191.866C343.796 191.772 343.924 191.719 344.057 191.719H430.792C430.86 191.717 430.926 191.729 430.989 191.753C431.051 191.777 431.108 191.814 431.157 191.861C431.205 191.908 431.243 191.964 431.269 192.026C431.295 192.087 431.308 192.154 431.308 192.221C431.308 192.358 431.254 192.489 431.157 192.586C431.061 192.683 430.929 192.737 430.792 192.737Z" fill="#E2209E"/>
<path d="M354.241 188.9C354.167 188.898 354.094 188.88 354.027 188.849C353.96 188.818 353.9 188.774 353.85 188.718L349.235 183.28C349.139 183.183 349.086 183.053 349.086 182.917C349.086 182.782 349.139 182.651 349.235 182.555C349.34 182.468 349.476 182.427 349.612 182.44C349.748 182.453 349.873 182.519 349.96 182.625L354.576 188.063C354.622 188.11 354.66 188.165 354.685 188.226C354.71 188.287 354.723 188.352 354.723 188.419C354.723 188.485 354.71 188.55 354.685 188.611C354.66 188.672 354.622 188.728 354.576 188.774C354.482 188.853 354.364 188.898 354.241 188.9Z" fill="#E2209E"/>
<path d="M349.623 188.9C349.5 188.9 349.381 188.856 349.288 188.774C349.241 188.728 349.204 188.672 349.179 188.611C349.154 188.55 349.141 188.485 349.141 188.419C349.141 188.352 349.154 188.287 349.179 188.226C349.204 188.165 349.241 188.11 349.288 188.063L353.904 182.625C353.991 182.519 354.116 182.453 354.252 182.44C354.388 182.427 354.524 182.468 354.629 182.555C354.724 182.651 354.778 182.782 354.778 182.917C354.778 183.053 354.724 183.183 354.629 183.28L350.055 188.746C349.998 188.8 349.93 188.842 349.855 188.868C349.781 188.895 349.702 188.905 349.623 188.9Z" fill="#E2209E"/>
<path d="M154.409 330.422H228.706C235.561 330.422 241.117 324.865 241.117 318.011V227.873C241.117 221.019 235.561 215.462 228.706 215.462H154.409C147.555 215.462 141.999 221.019 141.999 227.873V318.011C141.999 324.865 147.555 330.422 154.409 330.422Z" fill="#2E2865"/>
<path d="M161.89 330.422H236.187C243.041 330.422 248.598 324.865 248.598 318.011V227.873C248.598 221.019 243.041 215.462 236.187 215.462H161.89C155.035 215.462 149.479 221.019 149.479 227.873V318.011C149.479 324.865 155.035 330.422 161.89 330.422Z" fill="#3E3789"/>
<path d="M320.868 197.221C320.8 197.221 320.733 197.208 320.671 197.182C320.608 197.155 320.552 197.117 320.505 197.068C320.457 197.023 320.418 196.97 320.392 196.91C320.365 196.85 320.352 196.785 320.352 196.719V39.033C320.372 38.9125 320.434 38.8029 320.527 38.7239C320.62 38.6449 320.738 38.6016 320.861 38.6016C320.983 38.6016 321.101 38.6449 321.194 38.7239C321.287 38.8029 321.349 38.9125 321.37 39.033V196.203L445.672 196.12V105.688C445.672 105.555 445.725 105.428 445.819 105.334C445.913 105.239 446.041 105.186 446.174 105.186C446.309 105.186 446.438 105.239 446.534 105.333C446.631 105.426 446.687 105.554 446.69 105.688V196.622C446.69 196.758 446.636 196.89 446.539 196.986C446.442 197.083 446.311 197.138 446.174 197.138L320.868 197.221Z" fill="#E2209E"/>
<path d="M257.562 288.507L263.489 308.629L288.645 304.334L282.886 285.578L257.562 288.507Z" fill="#FD8753"/>
<path d="M218.339 284.852L215.605 307.846L240.748 312.671L243.09 291.141L218.339 284.852Z" fill="#FD8753"/>
<path d="M299.719 80.2031C299.719 80.2031 302.271 88.2631 297.864 89.9644C293.458 91.6656 293.43 87.036 293.43 87.036L296.219 81.2769L299.719 80.2031Z" fill="#FD8753"/>
<path d="M279.375 96.2053C279.375 96.2053 285.148 81.3124 290.405 78.7187C295.662 76.125 305.661 76.4597 307.139 79.1789C308.617 81.8981 304.085 81.9678 302.955 81.675C301.826 81.3821 298.214 82.177 297.378 83.3902C296.541 84.6033 296.192 89.721 296.192 89.721C296.192 89.721 300.083 90.5019 301.77 89.0796C303.457 87.6572 305.159 85.1053 306.344 86.9739C307.529 88.8425 302.788 98.6875 299.372 101.407C295.955 104.126 287.323 107.514 287.323 107.514L279.375 96.2053Z" fill="#FD8753"/>
<path d="M296.161 90.2338C296.09 90.232 296.021 90.2161 295.956 90.1869C295.892 90.1577 295.834 90.1159 295.785 90.0639C295.737 90.0119 295.7 89.9508 295.676 89.8841C295.652 89.8175 295.642 89.7467 295.645 89.676C295.826 88.1471 296.091 86.6294 296.44 85.13C296.636 84.2414 297.077 83.4255 297.712 82.7747C298.348 82.124 299.154 81.6646 300.038 81.4486C300.104 81.4345 300.172 81.4338 300.238 81.4466C300.305 81.4595 300.368 81.4856 300.424 81.5233C300.48 81.5611 300.527 81.6097 300.564 81.6664C300.601 81.723 300.626 81.7865 300.637 81.853C300.663 81.9841 300.636 82.1197 300.563 82.2315C300.49 82.3433 300.377 82.4226 300.247 82.4526C299.556 82.6243 298.928 82.9877 298.434 83.5008C297.941 84.014 297.603 84.6561 297.458 85.3531C297.106 86.8089 296.845 88.2852 296.677 89.7736C296.663 89.9005 296.603 90.0179 296.508 90.1029C296.412 90.1879 296.289 90.2345 296.161 90.2338Z" fill="black"/>
<path d="M330.035 68.5078H311.711C310.71 68.5078 309.898 69.3194 309.898 70.3206V88.6439C309.898 89.6451 310.71 90.4567 311.711 90.4567H330.035C331.036 90.4567 331.847 89.6451 331.847 88.6439V70.3206C331.847 69.3194 331.036 68.5078 330.035 68.5078Z" fill="#352F75"/>
<path d="M330.035 96.5312H311.711C310.71 96.5312 309.898 97.3429 309.898 98.3441V116.667C309.898 117.669 310.71 118.48 311.711 118.48H330.035C331.036 118.48 331.847 117.669 331.847 116.667V98.3441C331.847 97.3429 331.036 96.5312 330.035 96.5312Z" fill="#352F75"/>
<path d="M330.035 124.57H311.711C310.71 124.57 309.898 125.382 309.898 126.383V144.706C309.898 145.708 310.71 146.519 311.711 146.519H330.035C331.036 146.519 331.847 145.708 331.847 144.706V126.383C331.847 125.382 331.036 124.57 330.035 124.57Z" fill="#352F75"/>
<path d="M311.874 91.8981L301.625 83.2245L304.247 80.1288L311.526 86.2784L317.438 79.8359L320.436 82.597L311.874 91.8981Z" fill="#110828"/>
<path d="M320.636 115.707L312.199 108.54L314.835 105.444L319.98 109.809L326.59 101.023L329.839 103.464L320.636 115.707Z" fill="#110828"/>
<path d="M320.636 143.746L312.199 136.593L314.835 133.483L319.98 137.848L326.59 129.062L329.839 131.517L320.636 143.746Z" fill="#110828"/>
<path d="M348.077 7H294.32C292.118 7 290.332 8.78556 290.332 10.9882V40.6066C290.332 42.8092 292.118 44.5948 294.32 44.5948H348.077C350.28 44.5948 352.065 42.8092 352.065 40.6066V10.9882C352.065 8.78556 350.28 7 348.077 7Z" fill="#07CBF5"/>
<path d="M471.373 180.048V264.162C471.373 269.21 466.772 273.296 461.11 273.296H313.297C307.621 273.296 303.02 269.21 303.02 264.162V180.048C303.02 175 307.621 170.914 313.297 170.914H461.11C466.702 170.914 471.373 175 471.373 180.048Z" fill="#3E3789"/>
<path d="M265.864 327.687C264.944 327.711 264.05 327.382 263.365 326.767C262.681 326.153 262.257 325.299 262.183 324.382C261.304 316.628 258.418 299.351 259.826 299.184C261.639 298.988 280.311 301.903 280.311 301.903C280.311 301.903 279.628 291.096 287.283 292.142C293.182 292.978 300.6 299.114 303.738 301.903C304.703 302.775 305.908 303.339 307.196 303.52C312.69 304.259 327.89 307.007 328.992 314.871C330.386 324.493 326.328 323.824 324.529 324.019C323.023 324.2 278.456 326.92 265.864 327.687Z" fill="#FFB700"/>
<path d="M209.213 321.235C208.364 320.878 207.683 320.21 207.312 319.366C206.941 318.523 206.908 317.57 207.219 316.703C209.631 309.284 214.191 292.341 215.474 292.774C217.203 293.345 233.017 303.706 233.017 303.706C233.017 303.706 236.851 293.583 243.405 297.752C248.439 300.959 252.679 309.563 254.38 313.398C254.897 314.596 255.768 315.608 256.876 316.298C261.575 319.241 274.279 328.012 272.034 335.64C269.245 344.941 265.912 342.682 264.197 342.124C262.691 341.622 220.982 325.697 209.213 321.235Z" fill="#FFB700"/>
<path d="M196.96 64.8359C192.121 63.8372 187.099 64.2116 182.462 65.9168C177.824 67.622 173.756 70.59 170.716 74.4856C159.561 88.1932 166.533 105.066 184.215 104.578C201.897 104.09 206.066 85.976 206.066 85.976L196.96 64.8359Z" fill="#110828"/>
<path d="M219.552 76.1274C220.887 74.5088 221.863 72.6251 222.416 70.601C222.969 68.577 223.086 66.4586 222.759 64.386C222.034 59.5053 219.97 57.8877 219.97 57.8877C219.97 57.8877 223.386 51.3059 213.569 51.529C203.752 51.7521 195.706 50.9015 191.328 59.3519C188.678 64.3302 189.696 75.1373 189.696 75.1373L219.552 76.1274Z" fill="#110828"/>
<path d="M197.852 83.7969V95.7754C197.852 95.7754 200.027 99.2057 207.041 99.7356C212.27 100.14 213.902 97.4487 213.902 97.4487L212.507 86.9623L199.832 84.2571L197.852 83.7969Z" fill="#FD8753"/>
<path d="M197.867 83.0469C197.919 83.4493 198.037 83.8403 198.216 84.2043C201.005 90.1726 210.389 92.5711 213.402 92.8639L212.649 86.9514L197.867 83.0469Z" fill="black"/>
<path d="M215.156 59.6305C215.156 59.6305 221.543 74.621 219.102 82.9878C216.662 91.3546 209.048 89.9602 204.488 88.2868C201.91 87.4177 199.617 85.8659 197.851 83.7966C196.543 84.1679 195.152 84.1171 193.875 83.6514C192.598 83.1857 191.5 82.3288 190.739 81.2029C187.95 77.2148 189.735 72.6688 192.133 71.6508C194.532 70.6329 197.46 72.4178 197.46 72.4178L195.271 68.0531C195.271 68.0531 205.032 46.1042 215.156 59.6305Z" fill="#FD8753"/>
<path d="M197.505 72.426C197.505 72.426 203.905 73.8204 208.493 66.8481C213.081 59.8758 212.676 56.8497 212.676 56.8497L216.985 64.3102C216.985 64.3102 218.073 59.2203 216.093 55.9434C214.113 52.6664 211.909 53.2799 211.909 53.2799L197.686 56.543L193.879 67.7266L197.505 72.426Z" fill="#110828"/>
<path d="M213.61 78.5948H213.401C213.272 78.5532 213.165 78.4626 213.102 78.3426C213.04 78.2226 213.027 78.0828 213.066 77.9534C213.576 76.0261 213.468 73.9877 212.759 72.1245C212.732 72.0043 212.748 71.878 212.805 71.7687C212.862 71.6593 212.957 71.5742 213.072 71.5286C213.186 71.483 213.314 71.4801 213.43 71.5204C213.547 71.5607 213.645 71.6414 213.708 71.748C214.507 73.8332 214.624 76.1181 214.042 78.2741C214.005 78.3613 213.946 78.4371 213.87 78.4935C213.794 78.5499 213.704 78.5849 213.61 78.5948Z" fill="black"/>
<path d="M196.762 79.4316C196.691 79.432 196.621 79.4172 196.556 79.3884C196.491 79.3595 196.433 79.3172 196.386 79.2643L192.481 74.8996C192.437 74.8511 192.402 74.7942 192.379 74.7322C192.356 74.6702 192.345 74.6043 192.348 74.5382C192.351 74.4722 192.366 74.4073 192.394 74.3473C192.422 74.2873 192.461 74.2333 192.509 74.1884C192.558 74.1436 192.615 74.1087 192.677 74.0858C192.739 74.0629 192.805 74.0525 192.871 74.0551C192.937 74.0577 193.002 74.0732 193.062 74.1009C193.122 74.1286 193.176 74.1678 193.22 74.2163L197.139 78.5949C197.234 78.6915 197.288 78.8218 197.288 78.9575C197.288 79.0932 197.234 79.2235 197.139 79.3201C197.032 79.4041 196.898 79.444 196.762 79.4316Z" fill="black"/>
<path d="M192.48 78.2118C192.356 78.2096 192.238 78.1634 192.146 78.0815C192.054 77.9997 191.994 77.8876 191.978 77.7656C191.967 77.694 191.973 77.6212 191.994 77.552C192.014 77.4828 192.05 77.4189 192.097 77.3646C192.145 77.3103 192.204 77.267 192.27 77.2375C192.336 77.208 192.407 77.1931 192.48 77.1938L195.268 76.8173C195.334 76.8082 195.401 76.8121 195.466 76.8289C195.53 76.8456 195.591 76.8749 195.644 76.915C195.697 76.9552 195.742 77.0054 195.775 77.0628C195.809 77.1202 195.831 77.1837 195.84 77.2496C195.849 77.3155 195.845 77.3826 195.829 77.447C195.812 77.5114 195.783 77.5719 195.742 77.625C195.702 77.6781 195.652 77.7228 195.595 77.7564C195.537 77.7901 195.474 77.8122 195.408 77.8213L192.619 78.1978L192.48 78.2118Z" fill="black"/>
<path d="M217.402 66.464H217.304L214.794 65.9481C214.728 65.9364 214.664 65.9115 214.608 65.8748C214.551 65.8381 214.502 65.7903 214.465 65.7343C214.427 65.6783 214.401 65.6153 214.388 65.549C214.375 65.4827 214.376 65.4145 214.39 65.3485C214.42 65.2176 214.499 65.1031 214.61 65.0281C214.721 64.953 214.857 64.923 214.99 64.9441L217.555 65.4461C217.622 65.4577 217.685 65.4826 217.742 65.5194C217.799 65.5561 217.847 65.6039 217.885 65.6599C217.923 65.7159 217.949 65.7789 217.962 65.8452C217.975 65.9115 217.974 65.9797 217.96 66.0457C217.936 66.1726 217.866 66.2859 217.762 66.3633C217.659 66.4408 217.531 66.4767 217.402 66.464Z" fill="black"/>
<path d="M207.574 67.0486C207.454 67.0527 207.336 67.0136 207.242 66.9384C207.149 66.8631 207.085 66.7568 207.063 66.6386C207.041 66.5204 207.062 66.3983 207.123 66.2944C207.183 66.1905 207.279 66.1118 207.393 66.0725L210.07 65.0685C210.198 65.0234 210.338 65.0303 210.46 65.0877C210.583 65.1451 210.678 65.2484 210.725 65.3753C210.747 65.4375 210.757 65.5035 210.754 65.5695C210.75 65.6355 210.734 65.7001 210.705 65.7597C210.677 65.8193 210.637 65.8727 210.587 65.9168C210.538 65.9609 210.481 65.9948 210.419 66.0167L207.825 67.0207C207.746 67.054 207.658 67.0637 207.574 67.0486Z" fill="black"/>
<path d="M215.963 72.5825C215.852 72.5807 215.744 72.543 215.656 72.4752C215.568 72.4073 215.505 72.313 215.475 72.206L214.708 69.5008C214.681 69.4201 214.677 69.3339 214.694 69.2507C214.711 69.1676 214.749 69.0904 214.805 69.0266L215.656 68.0366C215.702 67.988 215.757 67.9493 215.818 67.9229C215.879 67.8965 215.945 67.8828 216.012 67.8828C216.078 67.8828 216.144 67.8965 216.205 67.9229C216.266 67.9493 216.322 67.988 216.367 68.0366C216.414 68.0832 216.451 68.1386 216.476 68.1997C216.502 68.2607 216.515 68.3261 216.515 68.3922C216.515 68.4582 216.502 68.5237 216.476 68.5847C216.451 68.6457 216.414 68.7011 216.367 68.7478L215.698 69.5426L216.395 71.9829C216.416 72.047 216.424 72.1147 216.418 72.1819C216.411 72.249 216.391 72.3141 216.358 72.3731C216.326 72.432 216.281 72.4836 216.227 72.5244C216.174 72.5653 216.112 72.5946 216.046 72.6104L215.963 72.5825Z" fill="black"/>
<path d="M208.418 73.1506C208.307 73.1543 208.199 73.1205 208.11 73.0546C208.022 72.9888 207.958 72.8948 207.93 72.7881L207.149 70.0828C207.128 69.9984 207.127 69.9103 207.147 69.8255C207.166 69.7408 207.205 69.6618 207.26 69.5947L208.432 68.2839C208.522 68.1841 208.649 68.1243 208.784 68.1178C208.918 68.1112 209.05 68.1585 209.15 68.2491C209.25 68.3397 209.31 68.4663 209.316 68.6009C209.323 68.7356 209.275 68.8674 209.185 68.9672L208.209 70.0689L208.906 72.5092C208.941 72.6386 208.924 72.7764 208.859 72.8935C208.794 73.0106 208.686 73.0978 208.557 73.1367L208.418 73.1506Z" fill="black"/>
<path d="M211.799 82.9448H211.422C209.763 82.6659 208.829 80.644 208.801 80.5603C208.75 80.4814 208.723 80.3894 208.723 80.2954C208.723 80.2013 208.75 80.1093 208.801 80.0304C208.857 79.9542 208.936 79.8973 209.025 79.8674C209.115 79.8374 209.212 79.8359 209.303 79.8631L213.863 80.8531C213.95 80.8746 214.03 80.9179 214.096 80.9788C214.162 81.0398 214.211 81.1165 214.239 81.2017C214.268 81.2877 214.272 81.3797 214.253 81.4681C214.233 81.5565 214.19 81.6379 214.128 81.7038C213.843 82.0564 213.49 82.3481 213.09 82.5614C212.69 82.7746 212.251 82.905 211.799 82.9448ZM210.404 81.0902C210.716 81.4936 211.153 81.7829 211.646 81.9129C212.052 81.9603 212.461 81.8505 212.789 81.6062L210.404 81.0902Z" fill="black"/>
<path d="M218.684 170.898C218.684 170.898 264.938 173.52 276.958 182.835C288.979 192.15 289.634 289.651 289.634 289.651L251.983 293.946L251.579 198.523L218.684 170.898Z" fill="#E2209E"/>
<path d="M194.77 96.4393C194.77 96.4393 196.164 91.7818 196.764 91.7818C197.642 91.7818 202.509 94.1245 206.915 94.0966C211.322 94.0687 212.089 92.7021 213.4 92.8695C214.71 93.0368 215.198 96.4393 215.198 96.4393C215.198 96.4393 223.37 99.1585 232.866 101.362C242.363 103.565 257.283 100.678 263.545 97.6246C269.806 94.5707 280.501 87.9609 280.501 87.9609L291.532 116.966C291.532 116.966 269.178 145.622 248.638 145.789C228.097 145.957 203.346 141.899 203.346 141.899L194.77 96.4393Z" fill="#5E1DBB"/>
<path d="M163.27 172.393C163.27 172.393 159.882 208.844 165.292 212.275C177.926 220.293 212.523 218.271 212.704 219.763C212.886 221.255 208.814 287.771 208.814 287.771L254.399 296.277C254.399 296.277 271.132 199.306 261.664 183.646C252.196 167.986 196.319 169.492 196.319 169.492L163.27 172.393Z" fill="#E2209E"/>
<path d="M252.009 163.872L226.699 161.348L236.251 120.211L261.561 122.735L252.009 163.872Z" fill="#FFB700"/>
<path d="M255.81 164.262L230.5 161.738L240.052 120.602L265.376 123.126L255.81 164.262Z" fill="#110828"/>
<path d="M222.924 138.555L223.872 169.763C223.872 169.763 203.861 175.341 188.773 176.735C180.311 177.578 171.786 177.578 163.324 176.735V164.687L222.924 138.555Z" fill="#5E1DBB"/>
<path d="M219.665 142.579C219.665 142.579 222.691 136.304 225.745 134.101C228.072 132.691 230.736 131.935 233.456 131.912L232.522 136.388C232.522 136.388 239.62 137.322 240.889 136.388C242.158 135.454 247.178 131.396 248.53 131.73C249.883 132.065 247.01 136.388 247.01 136.388C247.01 136.388 250.064 133.599 251.082 135.286C252.1 136.974 248.196 143.765 248.196 143.765C248.196 143.765 251.765 140.223 250.566 145.815C249.367 151.406 239.062 156.831 235.492 157.333C231.922 157.835 217.629 157.891 217.629 157.891L219.665 142.579Z" fill="#FD8753"/>
<path d="M232.518 136.9H232.421L228.739 136.119C228.61 136.089 228.496 136.01 228.423 135.898C228.351 135.786 228.324 135.65 228.349 135.519C228.362 135.454 228.388 135.392 228.426 135.337C228.463 135.282 228.511 135.235 228.567 135.199C228.623 135.162 228.685 135.137 228.751 135.125C228.816 135.113 228.884 135.115 228.949 135.129L232.686 135.896C232.819 135.911 232.941 135.978 233.024 136.082C233.108 136.187 233.147 136.32 233.132 136.454C233.117 136.587 233.05 136.709 232.946 136.792C232.841 136.876 232.707 136.915 232.574 136.9H232.518Z" fill="black"/>
<path d="M236.254 142.733C236.124 142.736 235.996 142.689 235.9 142.6C235.804 142.512 235.746 142.389 235.739 142.258C235.735 142.123 235.783 141.99 235.874 141.889C235.965 141.788 236.091 141.725 236.227 141.715C238.075 141.637 239.898 141.255 241.623 140.585C243.466 139.31 245.122 137.784 246.546 136.053C246.587 136.001 246.639 135.959 246.698 135.927C246.756 135.896 246.82 135.876 246.887 135.87C246.953 135.863 247.02 135.87 247.083 135.889C247.147 135.909 247.206 135.941 247.257 135.983C247.352 136.08 247.406 136.21 247.406 136.346C247.406 136.482 247.352 136.612 247.257 136.708C245.754 138.552 243.987 140.164 242.014 141.492C240.164 142.231 238.203 142.65 236.213 142.733H236.254Z" fill="black"/>
<path d="M237.102 149.197C236.967 149.197 236.838 149.145 236.742 149.051C236.646 148.957 236.59 148.829 236.586 148.695C236.586 148.561 236.638 148.431 236.732 148.335C236.826 148.239 236.954 148.183 237.088 148.179C238.918 148.091 240.715 147.661 242.387 146.91C244.328 145.968 246.142 144.782 247.784 143.382C247.83 143.335 247.886 143.298 247.947 143.273C248.008 143.247 248.073 143.234 248.139 143.234C248.205 143.234 248.271 143.247 248.332 143.273C248.393 143.298 248.448 143.335 248.495 143.382C248.543 143.428 248.582 143.483 248.608 143.544C248.635 143.605 248.648 143.671 248.648 143.738C248.648 143.804 248.635 143.87 248.608 143.931C248.582 143.992 248.543 144.048 248.495 144.093C246.802 145.56 244.927 146.802 242.917 147.789C241.109 148.603 239.166 149.076 237.186 149.183L237.102 149.197Z" fill="black"/>
<path d="M314.862 17.3203H302.172V30.01H314.862V17.3203Z" fill="#7E59D8"/>
<path d="M331.678 12.7812L335.624 19.6281L339.584 26.4749H331.678H323.785L327.731 19.6281L331.678 12.7812Z" fill="#E2209E"/>
<path d="M320.719 38.8292C325.587 38.8292 329.532 34.8835 329.532 30.0162C329.532 25.1489 325.587 21.2031 320.719 21.2031C315.852 21.2031 311.906 25.1489 311.906 30.0162C311.906 34.8835 315.852 38.8292 320.719 38.8292Z" fill="#110828"/>
<path d="M448.883 126.69C448.883 127.225 448.725 127.748 448.427 128.193C448.13 128.637 447.708 128.984 447.213 129.189C446.719 129.394 446.175 129.447 445.65 129.343C445.125 129.239 444.643 128.981 444.265 128.603C443.887 128.224 443.629 127.742 443.525 127.217C443.42 126.693 443.474 126.149 443.679 125.654C443.883 125.16 444.23 124.738 444.675 124.44C445.12 124.143 445.643 123.984 446.178 123.984C446.895 123.984 447.583 124.269 448.091 124.777C448.598 125.284 448.883 125.972 448.883 126.69Z" fill="#E2209E"/>
<path d="M446.178 164.246C447.672 164.246 448.883 163.035 448.883 161.541C448.883 160.047 447.672 158.836 446.178 158.836C444.684 158.836 443.473 160.047 443.473 161.541C443.473 163.035 444.684 164.246 446.178 164.246Z" fill="#E2209E"/>
<path d="M323.558 158.703C323.541 159.234 323.369 159.749 323.062 160.182C322.755 160.616 322.327 160.95 321.831 161.142C321.335 161.334 320.794 161.376 320.275 161.262C319.756 161.148 319.282 160.884 318.912 160.503C318.542 160.121 318.292 159.639 318.195 159.117C318.097 158.595 318.155 158.055 318.362 157.566C318.569 157.076 318.916 156.659 319.359 156.365C319.801 156.071 320.321 155.914 320.852 155.914C321.215 155.914 321.574 155.987 321.907 156.128C322.241 156.269 322.543 156.476 322.796 156.736C323.048 156.996 323.245 157.304 323.376 157.642C323.507 157.98 323.569 158.341 323.558 158.703Z" fill="#E2209E"/>
<path d="M471.371 180.048V182.474H302.934V180.048C302.934 175 307.535 170.914 313.211 170.914H461.024C466.7 170.914 471.371 175 471.371 180.048Z" fill="#352F75"/>
<path d="M354.434 228.865H321.19C321.056 228.865 320.929 228.812 320.835 228.718C320.74 228.624 320.687 228.496 320.688 228.363V195.119C320.687 194.986 320.74 194.858 320.835 194.764C320.929 194.67 321.056 194.617 321.19 194.617H354.434C354.568 194.617 354.697 194.67 354.794 194.763C354.89 194.857 354.946 194.985 354.95 195.119V228.363C354.946 228.498 354.89 228.625 354.794 228.719C354.697 228.813 354.568 228.865 354.434 228.865ZM321.705 227.792H353.932V195.579H321.705V227.792Z" fill="#110828"/>
<path d="M401.342 244.542H337.811C337.745 244.542 337.679 244.529 337.618 244.503C337.558 244.478 337.502 244.441 337.456 244.395C337.409 244.348 337.372 244.293 337.347 244.232C337.322 244.171 337.309 244.106 337.309 244.04V210.768C337.309 210.634 337.361 210.507 337.456 210.413C337.55 210.319 337.677 210.266 337.811 210.266H401.342C401.408 210.266 401.474 210.279 401.535 210.304C401.596 210.329 401.651 210.366 401.697 210.413C401.744 210.459 401.781 210.515 401.806 210.576C401.832 210.636 401.844 210.702 401.844 210.768V244.012C401.848 244.08 401.838 244.148 401.815 244.212C401.791 244.277 401.755 244.335 401.708 244.385C401.661 244.434 401.604 244.474 401.541 244.501C401.478 244.528 401.411 244.542 401.342 244.542ZM338.327 243.524H400.827V211.311H338.327V243.524Z" fill="#110828"/>
<path d="M255.674 285.997H255.59C255.524 285.987 255.46 285.964 255.403 285.928C255.346 285.893 255.296 285.847 255.257 285.792C255.218 285.738 255.19 285.676 255.176 285.611C255.161 285.545 255.16 285.477 255.172 285.411C255.325 284.644 269.493 208.339 263.455 192.386C257.417 176.434 220.463 176.197 220.087 176.197C219.965 176.194 219.849 176.147 219.759 176.065C219.669 175.983 219.612 175.871 219.599 175.75C219.581 175.627 219.61 175.502 219.68 175.399C219.749 175.296 219.855 175.223 219.975 175.193L228.732 172.92C228.862 172.89 228.998 172.91 229.112 172.978C229.226 173.046 229.31 173.155 229.346 173.282C229.38 173.414 229.361 173.553 229.293 173.67C229.226 173.788 229.114 173.874 228.983 173.91L223.685 175.304C233.292 175.806 259.327 178.414 264.473 192.038C270.608 208.255 256.831 282.455 256.245 285.607C256.218 285.733 256.144 285.843 256.038 285.916C255.931 285.989 255.801 286.018 255.674 285.997Z" fill="#110828"/>
<path d="M196.764 96.1016C196.764 96.1016 167.564 96.7848 150.746 129.848C133.929 162.91 151.597 179.881 180.03 176.144C208.463 172.407 222.84 163.426 222.84 163.426L219.577 135.384L196.764 96.1016Z" fill="#5E1DBB"/>
<path d="M178.97 139.821C178.858 139.822 178.75 139.785 178.661 139.717C178.573 139.648 178.51 139.553 178.482 139.445C178.463 139.381 178.457 139.313 178.464 139.247C178.471 139.18 178.492 139.116 178.524 139.058C178.557 138.999 178.6 138.948 178.653 138.906C178.706 138.865 178.766 138.835 178.83 138.817C190.516 135.47 214.599 135.512 214.836 135.484C214.97 135.488 215.098 135.544 215.191 135.64C215.285 135.737 215.338 135.866 215.338 136C215.338 136.133 215.285 136.261 215.191 136.355C215.096 136.449 214.969 136.502 214.836 136.502C213.804 136.502 190.474 136.502 179.109 139.793L178.97 139.821Z" fill="#FFB700"/>
<path d="M203.774 99.8989C200.471 99.6995 197.274 98.6578 194.487 96.8729C194.375 96.7964 194.297 96.679 194.271 96.5459C194.245 96.4128 194.273 96.2748 194.348 96.1617C194.384 96.1067 194.431 96.0594 194.486 96.0226C194.541 95.9858 194.602 95.9602 194.667 95.9473C194.732 95.9343 194.799 95.9342 194.863 95.9471C194.928 95.96 194.99 95.9855 195.045 96.0222C195.045 96.0222 199.897 99.1737 204.443 98.8112C204.517 98.7989 204.593 98.8029 204.665 98.8228C204.737 98.8427 204.804 98.8781 204.862 98.9266C204.919 98.975 204.965 99.0353 204.996 99.1033C205.028 99.1712 205.044 99.2453 205.044 99.3202C205.044 99.3951 205.028 99.4691 204.996 99.537C204.965 99.605 204.919 99.6653 204.862 99.7137C204.804 99.7622 204.737 99.7976 204.665 99.8175C204.593 99.8374 204.517 99.8414 204.443 99.8291L203.774 99.8989Z" fill="#FFB700"/>
<path d="M247.508 112.288C247.199 112.29 246.897 112.198 246.643 112.023C244.356 110.629 243.701 102.931 243.631 102.067C243.621 101.957 243.647 101.848 243.705 101.755C243.762 101.661 243.849 101.59 243.952 101.551C244.053 101.511 244.164 101.505 244.27 101.532C244.375 101.56 244.469 101.62 244.538 101.704C245.081 102.401 249.809 108.495 249.111 111.075C249.045 111.326 248.919 111.557 248.744 111.748C248.569 111.94 248.351 112.087 248.107 112.177C247.915 112.247 247.712 112.285 247.508 112.288ZM244.83 103.81C245.221 106.808 246.044 110.447 247.173 111.159C247.259 111.21 247.358 111.237 247.459 111.237C247.56 111.237 247.658 111.21 247.745 111.159C247.839 111.132 247.923 111.081 247.99 111.009C248.056 110.938 248.102 110.85 248.121 110.754C248.484 109.513 246.587 106.278 244.83 103.81Z" fill="#FFB700"/>
<path d="M180.601 138.733C176.166 138.733 170.839 138.385 170.003 136.725C169.874 136.435 169.848 136.11 169.929 135.803C170.01 135.496 170.194 135.227 170.449 135.038C174.061 131.134 185.453 137.381 185.927 137.646C186.027 137.697 186.107 137.78 186.153 137.882C186.2 137.984 186.212 138.098 186.186 138.207C186.161 138.316 186.099 138.413 186.012 138.483C185.925 138.554 185.816 138.592 185.704 138.594C184.617 138.65 182.72 138.733 180.601 138.733ZM174.061 134.759C173.54 134.715 173.016 134.778 172.522 134.946C172.028 135.114 171.573 135.383 171.188 135.735C171.062 135.875 170.853 136.14 170.923 136.293C171.453 137.423 177.658 137.855 183.738 137.688C181.047 136.363 176.989 134.759 174.061 134.759Z" fill="#FFB700"/>
<path d="M212.691 220.278C212.562 220.274 212.438 220.225 212.342 220.139C212.262 220.063 212.208 219.965 212.188 219.857C212.168 219.749 212.183 219.638 212.231 219.539C213.277 217.447 216.818 210.656 218.966 210.656C219.231 210.668 219.486 210.761 219.696 210.923C219.905 211.086 220.06 211.309 220.137 211.563C221.629 215.146 213.834 219.706 212.942 220.208C212.865 220.251 212.779 220.274 212.691 220.278ZM218.98 211.674C218.087 211.674 215.884 214.881 214.016 218.354C216.498 216.694 219.998 213.822 219.217 211.953C219.217 211.842 219.091 211.674 218.994 211.674H218.98Z" fill="#110828"/>
<path d="M193.87 171.426C193.75 171.428 193.634 171.387 193.541 171.31C193.449 171.233 193.388 171.126 193.368 171.008C193.356 170.943 193.357 170.876 193.37 170.812C193.384 170.747 193.411 170.686 193.448 170.631C193.486 170.577 193.534 170.53 193.589 170.494C193.645 170.459 193.707 170.434 193.772 170.422C193.912 170.422 208.47 167.633 219.807 160.982C219.924 160.915 220.062 160.897 220.192 160.931C220.323 160.965 220.435 161.048 220.504 161.163C220.539 161.221 220.562 161.284 220.572 161.351C220.582 161.417 220.578 161.485 220.561 161.55C220.544 161.615 220.514 161.676 220.473 161.729C220.432 161.783 220.381 161.827 220.323 161.86C208.832 168.596 194.107 171.399 193.953 171.426H193.87Z" fill="#FFB700"/>
<path d="M429.241 115.719H463.141C465.952 115.719 468.23 113.44 468.23 110.629V76.7295C468.23 73.9185 465.952 71.6397 463.141 71.6397H429.241C426.43 71.6397 424.151 73.9185 424.151 76.7295V110.629C424.151 113.44 426.43 115.719 429.241 115.719Z" fill="#07CBF5"/>
<path d="M430.739 97.788L432.3 101.525L430.348 103.38C431.807 105.749 433.774 107.764 436.107 109.278L438.297 107.215L441.992 108.79L441.88 111.747C443.289 112.073 444.73 112.236 446.175 112.235C447.492 112.235 448.805 112.099 450.094 111.83V108.651L453.789 107.047L456.062 109.39C458.4 107.914 460.381 105.937 461.863 103.603L459.688 101.525L461.25 97.8019H464.276C464.573 96.4604 464.723 95.0903 464.722 93.7161C464.726 92.2696 464.558 90.8277 464.22 89.4212H461.25L459.688 85.5725L461.766 83.5923C460.275 81.2623 458.278 79.2985 455.923 77.8471L453.789 80.0504L450.094 78.4607V75.5044C447.384 74.9195 444.578 74.9481 441.88 75.5881L441.992 78.377L438.297 79.9946L436.247 78.0563C433.899 79.5486 431.913 81.5444 430.432 83.8991L432.3 85.684L430.739 89.4072H428.131C427.793 90.8137 427.624 92.2557 427.629 93.7022C427.628 95.0717 427.778 96.4372 428.075 97.774L430.739 97.788ZM437.167 93.6883C437.167 91.9066 437.695 90.1649 438.685 88.6835C439.675 87.2021 441.082 86.0475 442.728 85.3657C444.374 84.6839 446.185 84.5055 447.933 84.8531C449.68 85.2007 451.285 86.0586 452.545 87.3185C453.805 88.5783 454.663 90.1834 455.011 91.9308C455.358 93.6783 455.18 95.4895 454.498 97.1356C453.816 98.7816 452.662 100.189 451.18 101.178C449.699 102.168 447.957 102.697 446.175 102.697C443.786 102.697 441.495 101.747 439.806 100.058C438.116 98.3687 437.167 96.0774 437.167 93.6883Z" fill="#110828"/>
</svg>
