<svg width="690" height="350" viewBox="0 0 690 350" fill="none" xmlns="http://www.w3.org/2000/svg">
<g clip-path="url(#clip0_3316_219)">
<path d="M159.543 91.0156H527.911" stroke="#DED8D5" stroke-width="1.97" stroke-miterlimit="10"/>
<path d="M523.101 66.8594H164.353C161.696 66.8594 159.543 69.0127 159.543 71.669V289.959C159.543 292.615 161.696 294.768 164.353 294.768H523.101C525.757 294.768 527.911 292.615 527.911 289.959V71.669C527.911 69.0127 525.757 66.8594 523.101 66.8594Z" stroke="#DED8D5" stroke-width="1.97" stroke-miterlimit="10"/>
<path d="M183.816 79.1841C183.818 79.8511 183.621 80.5036 183.252 81.059C182.882 81.6143 182.356 82.0475 181.741 82.3038C181.125 82.5601 180.447 82.6279 179.792 82.4987C179.138 82.3695 178.536 82.049 178.064 81.5778C177.592 81.1066 177.27 80.506 177.14 79.8518C177.009 79.1977 177.075 78.5195 177.33 77.9031C177.585 77.2867 178.017 76.7597 178.572 76.389C179.126 76.0182 179.778 75.8203 180.445 75.8203C181.338 75.8203 182.194 76.1745 182.826 76.8051C183.458 77.4357 183.815 78.2913 183.816 79.1841Z" fill="#FFB1A5"/>
<path d="M196.91 79.1841C196.912 79.8511 196.715 80.5036 196.346 81.059C195.976 81.6143 195.45 82.0475 194.834 82.3038C194.218 82.5601 193.54 82.6279 192.886 82.4987C192.232 82.3695 191.63 82.049 191.158 81.5778C190.686 81.1066 190.364 80.506 190.233 79.8518C190.103 79.1977 190.169 78.5195 190.424 77.9031C190.679 77.2867 191.111 76.7597 191.665 76.389C192.22 76.0182 192.872 75.8203 193.539 75.8203C194.432 75.8203 195.288 76.1745 195.92 76.8051C196.552 77.4357 196.908 78.2913 196.91 79.1841Z" fill="#EAD254"/>
<path d="M210.004 79.1841C210.005 79.8511 209.809 80.5036 209.439 81.059C209.07 81.6143 208.544 82.0476 207.928 82.3038C207.312 82.5601 206.634 82.6279 205.98 82.4987C205.325 82.3695 204.724 82.049 204.252 81.5778C203.78 81.1066 203.458 80.506 203.327 79.8518C203.196 79.1977 203.263 78.5195 203.518 77.9031C203.773 77.2867 204.205 76.7597 204.759 76.389C205.314 76.0182 205.966 75.8203 206.633 75.8203C207.075 75.8194 207.513 75.9056 207.922 76.0743C208.331 76.2429 208.703 76.4905 209.016 76.8029C209.329 77.1154 209.578 77.4865 209.747 77.8951C209.917 78.3037 210.004 78.7417 210.004 79.1841Z" fill="#00857B"/>
<path d="M575.76 83.4375H489.188C486.748 83.4375 484.77 85.4158 484.77 87.8561V167.922C484.77 170.363 486.748 172.341 489.188 172.341H575.76C578.201 172.341 580.179 170.363 580.179 167.922V87.8561C580.179 85.4158 578.201 83.4375 575.76 83.4375Z" fill="#EDEDED"/>
<path d="M575.76 83.4375H489.188C486.748 83.4375 484.77 85.4158 484.77 87.8561V167.922C484.77 170.363 486.748 172.341 489.188 172.341H575.76C578.201 172.341 580.179 170.363 580.179 167.922V87.8561C580.179 85.4158 578.201 83.4375 575.76 83.4375Z" stroke="#DED8D5" stroke-width="1.97" stroke-miterlimit="10"/>
<path d="M510.116 149.219H555.114C557.567 149.219 559.555 147.231 559.555 144.778V107.902C559.555 105.45 557.567 103.461 555.114 103.461H510.116C507.664 103.461 505.676 105.45 505.676 107.902V144.778C505.676 147.231 507.664 149.219 510.116 149.219Z" fill="#C98BD2"/>
<path d="M544.902 133.945H523.842H520.043V117.273H544.902V121.441V133.945Z" stroke="white" stroke-width="1.65" stroke-linecap="round" stroke-linejoin="round"/>
<path d="M520.043 117.273L532.473 127.07L544.902 117.273" stroke="white" stroke-width="1.65" stroke-linecap="round" stroke-linejoin="round"/>
<path d="M194.779 158.969H112.212C109.886 158.969 108 160.855 108 163.181V235.17C108 237.496 109.886 239.382 112.212 239.382H194.779C197.105 239.382 198.991 237.496 198.991 235.17V163.181C198.991 160.855 197.105 158.969 194.779 158.969Z" fill="#EDEDED"/>
<path d="M194.779 158.969H112.212C109.886 158.969 108 160.855 108 163.181V235.17C108 237.496 109.886 239.382 112.212 239.382H194.779C197.105 239.382 198.991 237.496 198.991 235.17V163.181C198.991 160.855 197.105 158.969 194.779 158.969Z" stroke="#DED8D5" stroke-width="1.97" stroke-miterlimit="10"/>
<path d="M174.692 172.75H131.871C129.166 172.75 126.973 174.943 126.973 177.648V219.002C126.973 221.707 129.166 223.9 131.871 223.9H174.692C177.397 223.9 179.59 221.707 179.59 219.002V177.648C179.59 174.943 177.397 172.75 174.692 172.75Z" fill="#FFB1A5"/>
<path d="M143.082 188.285C141.001 190.366 139.583 193.017 139.009 195.903C138.434 198.789 138.729 201.781 139.855 204.5C140.981 207.219 142.888 209.543 145.335 211.178C147.782 212.814 150.658 213.686 153.601 213.686C156.544 213.686 159.421 212.814 161.868 211.178C164.315 209.543 166.222 207.219 167.348 204.5C168.474 201.781 168.768 198.789 168.194 195.903C167.619 193.017 166.202 190.366 164.12 188.285C161.323 185.51 157.542 183.953 153.601 183.953C149.661 183.953 145.88 185.51 143.082 188.285ZM164.084 190.432H159.348C158.851 188.896 158.234 187.401 157.504 185.961C160.099 186.75 162.394 188.309 164.084 190.432ZM148.143 197.934C148.155 195.988 148.403 194.051 148.88 192.165H158.396C158.873 194.051 159.121 195.988 159.134 197.934H148.143ZM159.008 199.689C158.868 201.643 158.524 203.576 157.983 205.458H149.227C148.688 203.576 148.347 201.642 148.209 199.689H159.008ZM153.601 185.401C154.305 185.399 155.008 185.453 155.704 185.563C156.581 187.116 157.302 188.752 157.858 190.446H149.345C149.902 188.752 150.624 187.117 151.499 185.563C152.194 185.448 152.897 185.389 153.601 185.386V185.401ZM149.699 185.976C148.969 187.416 148.352 188.91 147.855 190.446H143.119C144.808 188.32 147.102 186.756 149.699 185.961V185.976ZM141.939 192.18H147.368C146.902 194.068 146.655 196.004 146.63 197.948H140.213C140.339 195.914 140.93 193.936 141.939 192.165V192.18ZM141.939 205.458C140.931 203.692 140.341 201.719 140.213 199.689H146.63C146.73 201.639 147.035 203.572 147.538 205.458H141.939ZM143.119 207.199H148.054C148.56 208.746 149.171 210.257 149.884 211.721C147.215 210.943 144.852 209.358 143.119 207.184V207.199ZM153.601 212.23C153.014 212.228 152.428 212.188 151.846 212.112C151.044 210.517 150.349 208.871 149.766 207.184H157.437C156.857 208.872 156.162 210.519 155.357 212.112C154.775 212.188 154.188 212.228 153.601 212.23ZM157.29 211.706C158.001 210.241 158.615 208.73 159.126 207.184H164.054C162.335 209.346 159.991 210.925 157.341 211.706H157.29ZM165.242 205.443H159.635C160.139 203.557 160.443 201.624 160.543 199.675H166.968C166.846 201.701 166.266 203.673 165.271 205.443H165.242ZM166.968 197.934H160.572C160.54 195.989 160.293 194.055 159.835 192.165H165.264C166.27 193.932 166.863 195.905 166.997 197.934H166.968Z" fill="white"/>
<path d="M189.861 45.8259H115.061C114.32 45.8259 113.609 45.5313 113.084 45.007C112.56 44.4827 112.266 43.7716 112.266 43.0301C112.266 42.2886 112.56 41.5775 113.084 41.0532C113.609 40.5289 114.32 40.2344 115.061 40.2344H189.861C190.602 40.2344 191.313 40.5289 191.838 41.0532C192.362 41.5775 192.656 42.2886 192.656 43.0301C192.656 43.7716 192.362 44.4827 191.838 45.007C191.313 45.5313 190.602 45.8259 189.861 45.8259Z" fill="#C98BD2"/>
<path d="M578.807 228.544H542.499C541.757 228.542 541.046 228.246 540.522 227.721C539.997 227.195 539.703 226.483 539.703 225.741C539.703 225 539.998 224.288 540.522 223.764C541.046 223.24 541.757 222.945 542.499 222.945H578.807C579.548 222.945 580.259 223.24 580.784 223.764C581.308 224.288 581.602 225 581.602 225.741C581.602 226.483 581.308 227.195 580.784 227.721C580.26 228.246 579.549 228.542 578.807 228.544Z" fill="#56DFED"/>
<path d="M553.386 252.523H548.946C547.781 252.523 546.836 253.468 546.836 254.633V258.801C546.836 259.966 547.781 260.911 548.946 260.911H553.386C554.552 260.911 555.496 259.966 555.496 258.801V254.633C555.496 253.468 554.552 252.523 553.386 252.523Z" fill="#C98BD2"/>
<path d="M132.883 271.906H128.442C127.277 271.906 126.332 272.851 126.332 274.016V278.184C126.332 279.349 127.277 280.293 128.442 280.293H132.883C134.048 280.293 134.992 279.349 134.992 278.184V274.016C134.992 272.851 134.048 271.906 132.883 271.906Z" fill="#FFB1A5"/>
<path d="M472.405 20.4688H398.572C397.346 20.4688 396.352 21.4628 396.352 22.6891V40.7177C396.352 41.9439 397.346 42.938 398.572 42.938H472.405C473.631 42.938 474.625 41.9439 474.625 40.7177V22.6891C474.625 21.4628 473.631 20.4688 472.405 20.4688Z" fill="#FFB1A5"/>
<path d="M407.02 28.4844H459.527" stroke="white" stroke-width="1.18" stroke-miterlimit="10"/>
<path d="M407.02 33.8672H428.404" stroke="white" stroke-width="1.18" stroke-miterlimit="10"/>
<path d="M404.883 40.4062V49.1623L415.896 40.4062H404.883Z" fill="#FFB1A5"/>
<path d="M253.764 5.20567e-05H291.024C292.287 5.20567e-05 293.5 0.50211 294.393 1.39578C295.287 2.28945 295.789 3.50153 295.789 4.76537V39.5094C295.79 40.1358 295.667 40.7563 295.428 41.3353C295.189 41.9143 294.838 42.4405 294.396 42.8838C293.953 43.327 293.428 43.6787 292.849 43.9186C292.27 44.1586 291.65 44.2821 291.024 44.2821H255.284C254.457 44.285 253.637 44.1246 252.872 43.81C252.107 43.4955 251.411 43.033 250.825 42.4491C250.239 41.8652 249.774 41.1714 249.457 40.4074C249.14 39.6435 248.977 38.8244 248.977 37.9972V4.80225C248.972 4.1715 249.092 3.54605 249.331 2.96218C249.57 2.3783 249.922 1.84763 250.367 1.40092C250.812 0.954207 251.342 0.600358 251.925 0.359886C252.508 0.119413 253.133 -0.00289618 253.764 5.20567e-05Z" fill="#56DFED"/>
<path d="M283.307 25.4141L280.644 22.7511C280.432 22.5043 280.169 22.3051 279.875 22.1665C279.58 22.028 279.259 21.9532 278.933 21.9471C278.287 21.957 277.672 22.2223 277.222 22.6848L275.695 24.2043L275.414 24.0642C275.223 23.9683 275.082 23.9167 274.935 23.8281C273.431 22.8433 272.098 21.6199 270.988 20.2062C270.487 19.6173 270.07 18.962 269.749 18.2588C270.133 17.9268 270.487 17.5211 270.797 17.2113L271.224 16.7834C271.478 16.566 271.682 16.2961 271.822 15.9925C271.962 15.6888 272.034 15.3584 272.034 15.0241C272.034 14.6898 271.962 14.3594 271.822 14.0558C271.682 13.7521 271.478 13.4822 271.224 13.2648L269.897 11.9296C269.741 11.7826 269.595 11.6249 269.461 11.4575L268.561 10.5502C268.108 10.0917 267.495 9.82717 266.85 9.8125C266.53 9.81245 266.213 9.87785 265.918 10.0047C265.624 10.1315 265.359 10.3172 265.139 10.5502L263.472 12.2173C262.846 12.8425 262.46 13.6674 262.38 14.5483C262.324 15.783 262.533 17.0153 262.992 18.1629C263.825 20.4511 265.076 22.5647 266.68 24.3961C268.771 26.8923 271.365 28.9184 274.293 30.3417C275.634 31.0215 277.085 31.4562 278.579 31.6253H278.911C279.447 31.6338 279.979 31.5284 280.471 31.316C280.963 31.1037 281.404 30.7892 281.766 30.3934L281.81 30.3417C282.073 30.0348 282.359 29.7487 282.666 29.486L283.285 28.8664C283.521 28.6453 283.709 28.3788 283.838 28.0829C283.967 27.7869 284.035 27.4679 284.037 27.145C284.039 26.8221 283.975 26.5022 283.85 26.2047C283.724 25.9071 283.54 25.6382 283.307 25.4141ZM282.216 27.8927L281.648 28.4607C281.308 28.7484 281.028 29.0803 280.696 29.4123C280.479 29.6505 280.213 29.8396 279.916 29.9668C279.62 30.094 279.3 30.1565 278.977 30.1499H278.741C277.449 30.0123 276.196 29.624 275.053 29.0065C272.312 27.656 269.889 25.7403 267.942 23.3855C266.476 21.6714 265.302 19.7274 264.467 17.6318C264.027 16.7137 263.831 15.6972 263.899 14.6811C263.914 14.4188 263.98 14.162 264.094 13.9253C264.208 13.6886 264.367 13.4767 264.563 13.3017L266.179 11.6862C266.353 11.4948 266.592 11.3763 266.85 11.3542C266.978 11.3596 267.103 11.392 267.218 11.4492C267.332 11.5064 267.433 11.5872 267.514 11.6862L268.37 12.5419C268.518 12.7126 268.678 12.8728 268.849 13.0213L270.177 14.3491C270.362 14.5245 270.48 14.7596 270.509 15.013C270.49 15.2715 270.371 15.5123 270.177 15.6843L269.749 16.1122L268.561 17.2998L268.51 17.3441C268.344 17.4891 268.228 17.6823 268.178 17.8966C268.128 18.1109 268.146 18.3355 268.23 18.5391V18.5833C268.63 19.5153 269.159 20.3868 269.801 21.1725C271.013 22.7232 272.477 24.0596 274.131 25.1264C274.325 25.254 274.53 25.365 274.743 25.4584C274.908 25.5267 275.068 25.6055 275.223 25.6944L275.267 25.7461C275.485 25.8608 275.734 25.8992 275.977 25.855C276.219 25.8109 276.439 25.6868 276.602 25.5026L278.269 23.8429C278.352 23.7452 278.453 23.6649 278.567 23.6066C278.681 23.5484 278.805 23.5133 278.933 23.5036C279.174 23.5378 279.394 23.6584 279.553 23.8429L282.216 26.5059C282.318 26.5903 282.4 26.6962 282.456 26.8161C282.513 26.936 282.542 27.0668 282.542 27.1993C282.542 27.3317 282.513 27.4626 282.456 27.5824C282.4 27.7023 282.318 27.8082 282.216 27.8927Z" fill="white"/>
<path d="M446.509 211.913L419.585 208.328L419.799 211.006L396.776 214.067C396.776 214.067 381.905 251.319 394.983 333.2H413.713L420.448 250.176H422.845L429.373 333.2H448.095C461.174 251.319 446.509 211.913 446.509 211.913Z" fill="#8E716C"/>
<path d="M411.891 250.156H431.431" stroke="#282828" stroke-width="1.23" stroke-linecap="round" stroke-linejoin="round"/>
<path d="M462.208 172.641C459.907 168.953 446.961 169.093 446.282 169.012C442.785 168.606 448.495 196.439 455.798 220.774C456.13 221.873 456.689 222.889 457.439 223.757C458.189 224.625 459.114 225.325 460.153 225.812C461.192 226.3 462.322 226.562 463.469 226.584C464.616 226.606 465.755 226.385 466.811 225.938L466.959 225.879C468.679 225.151 470.099 223.856 470.981 222.209C471.862 220.562 472.153 218.663 471.805 216.828C468.346 198.497 464.871 176.89 462.208 172.641Z" fill="#FFB1A5"/>
<path d="M465.292 182.718L448.776 189.128L447.227 181.287L464.333 177.016L465.292 182.718Z" fill="#F3978E"/>
<path d="M468.413 198.395C468.413 198.395 460.586 208.899 460.962 208.419C461.339 207.94 467.1 191.453 467.1 191.453L468.413 198.395Z" fill="#F3978E"/>
<path d="M479.605 184.266L457.173 213.337C456.476 214.239 455.974 215.276 455.698 216.382C455.422 217.487 455.379 218.638 455.57 219.762C455.761 220.886 456.184 221.957 456.81 222.91C457.436 223.862 458.253 224.674 459.209 225.295C460.161 225.915 461.232 226.332 462.353 226.519C463.474 226.706 464.622 226.66 465.725 226.383C466.827 226.106 467.861 225.604 468.76 224.909C469.66 224.214 470.406 223.341 470.952 222.344L489.63 187.888L479.605 184.266Z" fill="#FFB1A5"/>
<path d="M485.411 191.73C483.671 191.166 482.137 190.099 481.003 188.664C479.869 187.229 479.187 185.49 479.041 183.666C478.895 181.843 479.294 180.018 480.185 178.421C481.077 176.824 482.422 175.527 484.05 174.694C485.679 173.861 487.517 173.53 489.334 173.742C491.151 173.954 492.864 174.7 494.257 175.885C495.65 177.07 496.66 178.642 497.16 180.401C497.66 182.161 497.627 184.029 497.066 185.77C496.693 186.927 496.095 187.999 495.307 188.925C494.519 189.851 493.556 190.612 492.474 191.166C491.391 191.719 490.21 192.054 488.998 192.151C487.786 192.248 486.567 192.105 485.411 191.73Z" fill="#FFB1A5"/>
<path d="M494.999 177.357C494.999 177.357 497.537 174.731 493.044 172.887C488.552 171.043 482.997 171.471 479.449 180.079L494.999 177.357Z" fill="#FFB1A5"/>
<path d="M499.621 158.991L509.018 163.063C509.143 163.12 509.254 163.203 509.344 163.306C509.435 163.409 509.502 163.53 509.541 163.661C509.581 163.793 509.593 163.931 509.575 164.067C509.557 164.203 509.511 164.333 509.439 164.45L497.112 187.531C496.979 187.79 496.755 187.991 496.482 188.094C496.21 188.198 495.909 188.197 495.637 188.092L486.247 184.02C486.122 183.964 486.012 183.882 485.921 183.779C485.831 183.677 485.763 183.557 485.723 183.426C485.683 183.296 485.67 183.159 485.687 183.023C485.703 182.888 485.748 182.757 485.819 182.641L498.175 159.559C498.306 159.305 498.525 159.108 498.791 159.004C499.057 158.899 499.352 158.895 499.621 158.991Z" fill="#372F5F"/>
<path d="M498.761 158.59L508.151 162.662C508.275 162.718 508.386 162.8 508.476 162.903C508.567 163.005 508.634 163.125 508.675 163.256C508.715 163.386 508.727 163.523 508.711 163.659C508.694 163.794 508.649 163.925 508.579 164.041L496.223 187.152C496.091 187.413 495.867 187.615 495.595 187.72C495.322 187.825 495.02 187.825 494.748 187.72L485.35 183.649C485.225 183.592 485.114 183.509 485.024 183.406C484.934 183.302 484.867 183.181 484.827 183.05C484.787 182.919 484.776 182.781 484.793 182.645C484.811 182.509 484.857 182.378 484.929 182.262L497.293 159.121C497.431 158.869 497.656 158.676 497.926 158.578C498.197 158.48 498.493 158.485 498.761 158.59Z" fill="#261B43"/>
<path d="M497.698 160.93L505.952 164.507L495.883 183.318L487.629 179.74L497.698 160.93Z" fill="#E6E6E6"/>
<path d="M505.952 164.507L487.629 179.74L497.698 160.93L505.952 164.507Z" fill="white"/>
<path d="M490.342 172.125C491.734 172.424 493.075 172.921 494.326 173.6C494.73 173.829 495.048 174.183 495.233 174.609C495.418 175.035 495.459 175.509 495.351 175.961C495.248 176.374 495.022 176.747 494.703 177.03C494.385 177.312 493.988 177.493 493.566 177.547L488.683 178.159C488.683 178.159 486.138 182.585 482.781 183.042L485.857 175.349L490.342 172.125Z" fill="#FFB1A5"/>
<path d="M427.982 136.044C427.444 136.044 462.608 140.912 468.414 181.041L450.201 183.808L446.512 214.052H395.613L385.5 158.122C385.5 158.122 396.779 141.96 417.729 135.992L427.982 136.044Z" fill="#56DFED"/>
<path d="M450.164 183.809L451.75 166.297" stroke="#282828" stroke-width="1.23" stroke-linecap="round" stroke-linejoin="round"/>
<path d="M431.32 136.622V122.695H414.995V136.785C413.492 137.268 412.028 137.862 410.613 138.562L423.338 146.146L436.358 138.562C434.768 137.703 433.075 137.051 431.32 136.622Z" fill="#FFB1A5"/>
<path d="M414.852 124.387C414.852 124.387 417.802 132.169 425.607 131.498C432.799 130.886 431.656 120.094 431.656 120.094L414.852 124.387Z" fill="#282828"/>
<path d="M407.731 114.038C405.171 116.361 399.447 107.561 401.925 105.09C404.404 102.619 406.277 106.491 406.277 106.491L407.384 109.118L408.217 112.68L408.417 113.61L407.731 114.038Z" fill="#F3978E"/>
<path d="M403.113 108.213C403.113 108.213 405.053 107.343 406.802 110.153" stroke="#282828" stroke-width="0.99" stroke-linecap="round" stroke-linejoin="round"/>
<path d="M437.983 113.774C440.337 116.304 446.784 108.013 444.526 105.343C442.269 102.672 440.1 106.375 440.1 106.375L438.78 108.898L437.651 112.38L437.371 113.287L437.983 113.774Z" fill="#F3978E"/>
<path d="M443.072 108.355C443.072 108.355 441.213 107.322 439.266 109.97" stroke="#282828" stroke-width="0.99" stroke-linecap="round" stroke-linejoin="round"/>
<path d="M403.238 96.687C403.238 108.342 412.127 113.867 423.081 113.867C434.036 113.867 442.925 108.342 442.925 96.687C442.925 85.0319 434.073 77.1094 423.081 77.1094C412.09 77.1094 403.238 85.0393 403.238 96.687Z" fill="#282828"/>
<path d="M405.938 97.4993C405.946 103.458 406.624 109.396 407.959 115.203C408.947 119.496 411.721 122.491 415.653 124.904L416.391 125.346C418.458 126.6 420.824 127.275 423.242 127.301C425.659 127.327 428.039 126.703 430.133 125.494C434.39 123.015 437.37 119.747 438.284 115.166C439.348 109.34 439.967 103.442 440.136 97.5214C440.136 97.5214 441.722 79.4707 423.288 79.8174C404.853 80.1641 405.938 97.4993 405.938 97.4993Z" fill="#FFB1A5"/>
<path d="M421.91 107.805V110.305C421.911 110.449 421.938 110.592 421.991 110.726C422.102 110.971 422.297 111.168 422.541 111.28C422.785 111.393 423.061 111.413 423.319 111.338L424.462 111.036" stroke="#282828" stroke-width="1.23" stroke-linecap="round" stroke-linejoin="round"/>
<path d="M418.982 98.1197L409.82 100.266C409.82 100.266 410.233 97.9353 413.981 97.087C417.728 96.2386 418.982 98.1197 418.982 98.1197Z" fill="#282828"/>
<path d="M427.113 98.1197L435.965 100.266C435.965 100.266 435.56 97.9353 431.945 97.087C428.33 96.2386 427.113 98.1197 427.113 98.1197Z" fill="#282828"/>
<path d="M415.499 106.388C416.35 106.388 417.04 105.698 417.04 104.846C417.04 103.995 416.35 103.305 415.499 103.305C414.647 103.305 413.957 103.995 413.957 104.846C413.957 105.698 414.647 106.388 415.499 106.388Z" fill="#282828"/>
<path d="M431.685 104.846C431.685 105.151 431.595 105.449 431.425 105.703C431.256 105.956 431.015 106.154 430.733 106.271C430.452 106.387 430.142 106.418 429.843 106.359C429.543 106.299 429.269 106.152 429.053 105.937C428.838 105.721 428.691 105.446 428.631 105.147C428.572 104.848 428.602 104.538 428.719 104.256C428.836 103.975 429.033 103.734 429.287 103.565C429.54 103.395 429.838 103.305 430.143 103.305C430.552 103.305 430.944 103.467 431.233 103.756C431.523 104.045 431.685 104.438 431.685 104.846Z" fill="#282828"/>
<path d="M417.039 114.242H428.952C428.952 114.242 423.641 120.667 417.039 114.242Z" fill="white"/>
<path d="M419.497 110.08C422.061 107.516 422.061 103.359 419.497 100.795C416.933 98.2313 412.776 98.2313 410.213 100.795C407.649 103.359 407.649 107.516 410.213 110.08C412.777 112.644 416.933 112.644 419.497 110.08Z" stroke="#C98BD2" stroke-width="1.34" stroke-miterlimit="10"/>
<path d="M435.622 110.088C438.186 107.524 438.186 103.367 435.622 100.803C433.058 98.2391 428.902 98.2391 426.338 100.803C423.774 103.367 423.774 107.524 426.338 110.088C428.902 112.652 433.058 112.651 435.622 110.088Z" stroke="#C98BD2" stroke-width="1.34" stroke-miterlimit="10"/>
<path d="M421.43 105.445C421.43 105.445 422.986 103.969 424.432 105.445" stroke="#C98BD2" stroke-width="1.34" stroke-miterlimit="10"/>
<path d="M408.276 105.442L406.211 105.391" stroke="#C98BD2" stroke-width="1.34" stroke-miterlimit="10"/>
<path d="M437.555 105.442L439.635 105.391" stroke="#C98BD2" stroke-width="1.34" stroke-miterlimit="10"/>
<path d="M439.873 103.495C439.873 103.495 432.497 93.5288 434.201 83.4375C435.988 84.4915 437.529 85.9166 438.719 87.6167C439.909 89.3168 440.72 91.2523 441.098 93.2927C442.529 100.396 439.873 103.495 439.873 103.495Z" fill="#282828"/>
<path d="M405.941 104.158C405.941 104.158 414.505 92.8421 412.801 82.7656C409.046 85.1635 406.394 88.951 405.424 93.2995C404.001 100.388 405.941 104.158 405.941 104.158Z" fill="#282828"/>
<path d="M439.259 87.4103C439.259 87.4103 429.795 97.7376 403.91 95.9967C403.91 95.9967 407.871 80.7935 420.419 79.178C420.419 79.178 434.907 77.4445 439.259 87.4103Z" fill="#282828"/>
<path d="M450.807 77.2743C451.895 70.5336 447.312 64.1869 440.572 63.0988C433.831 62.0106 427.484 66.593 426.396 73.3338C425.308 80.0746 429.89 86.4212 436.631 87.5093C443.372 88.5975 449.718 84.0151 450.807 77.2743Z" fill="#282828"/>
<path d="M287.708 211.895L264.693 208.834L264.899 206.156L237.975 209.741C237.975 209.741 223.28 249.118 236.359 330.999H255.081L261.609 247.974H264.007L270.749 330.999H289.471C302.55 249.118 287.708 211.895 287.708 211.895Z" fill="#282828"/>
<path d="M285.876 99.8791C282.44 95.7631 279.816 91.032 278.145 85.9372C275.866 79.4974 268.416 82.1161 268.416 82.1161C268.416 82.1161 262.204 74.1272 252.858 76.9082C243.512 79.6892 240.266 86.3429 240.074 94.2433C239.883 102.144 233.664 103.39 228.877 112.537C220.423 128.685 234.653 142.28 260.596 138.511V138.26C263.686 139.113 266.903 139.413 270.097 139.145C301.19 137.301 298.239 114.404 285.876 99.8791Z" fill="#282828"/>
<path d="M275.682 111.858C278.242 114.182 283.959 105.381 281.488 102.91C279.016 100.439 277.135 104.312 277.135 104.312L276.029 106.938L275.195 110.501L274.996 111.43L275.682 111.858Z" fill="#F3978E"/>
<path d="M280.292 106.002C280.292 106.002 278.359 105.132 276.641 107.942" stroke="#282828" stroke-width="0.99" stroke-linecap="round" stroke-linejoin="round"/>
<path d="M245.433 111.59C243.08 114.12 236.633 105.836 238.89 103.158C241.147 100.481 243.316 104.191 243.316 104.191L244.644 106.721L245.772 110.196L246.045 111.103L245.433 111.59Z" fill="#F3978E"/>
<path d="M240.34 106.167C240.34 106.167 242.191 105.134 244.146 107.783" stroke="#282828" stroke-width="0.99" stroke-linecap="round" stroke-linejoin="round"/>
<path d="M280.167 94.5151C280.167 106.163 271.315 111.688 260.331 111.688C249.348 111.688 240.488 106.163 240.488 94.5151C240.488 82.8674 249.34 74.9375 260.331 74.9375C271.323 74.9375 280.167 82.86 280.167 94.5151Z" fill="#282828"/>
<path d="M268.418 120.508H252.094V141.642H268.418V120.508Z" fill="#FFB1A5"/>
<path d="M249.707 119.188C249.707 119.188 254.251 128.253 259.843 129.67C261.345 130.032 262.92 129.942 264.372 129.412C266.474 128.674 269.137 125.531 269.594 122.035L269.801 120.051C269.801 120.051 259.879 125.487 249.707 119.188Z" fill="#282828"/>
<path d="M277.475 95.3113C277.466 101.27 276.788 107.208 275.453 113.015C274.465 117.301 271.684 120.296 267.759 122.708L267.022 123.151C264.955 124.404 262.588 125.08 260.171 125.106C257.753 125.132 255.373 124.507 253.279 123.298C249.023 120.82 246.043 117.552 245.128 112.971C244.064 107.145 243.445 101.246 243.276 95.3261C243.276 95.3261 241.69 77.2754 260.117 77.6221C278.544 77.9688 277.475 95.3113 277.475 95.3113Z" fill="#FFB1A5"/>
<path d="M259.102 106.602V108.077C259.102 108.221 259.13 108.364 259.183 108.497C259.293 108.742 259.488 108.939 259.732 109.052C259.976 109.164 260.253 109.185 260.511 109.11L261.654 108.807" stroke="#282828" stroke-width="1.23" stroke-linecap="round" stroke-linejoin="round"/>
<path d="M262.934 96.8118L272.745 99.1354C272.745 99.1354 272.295 96.6126 268.282 95.6979C264.269 94.7832 262.934 96.8118 262.934 96.8118Z" fill="#282828"/>
<path d="M257.788 96.8118L247.859 99.1354C247.859 99.1354 248.309 96.6126 252.374 95.6979C256.438 94.7832 257.788 96.8118 257.788 96.8118Z" fill="#282828"/>
<path d="M254.231 102.902C254.234 103.209 254.145 103.51 253.977 103.767C253.808 104.024 253.566 104.225 253.283 104.344C253 104.463 252.688 104.496 252.386 104.437C252.084 104.378 251.807 104.231 251.589 104.014C251.371 103.797 251.223 103.521 251.163 103.219C251.103 102.918 251.133 102.606 251.251 102.322C251.369 102.038 251.569 101.796 251.825 101.626C252.081 101.456 252.382 101.366 252.689 101.367C253.097 101.367 253.488 101.529 253.777 101.816C254.066 102.104 254.229 102.494 254.231 102.902Z" fill="#282828"/>
<path d="M268.872 102.902C268.874 103.207 268.785 103.506 268.616 103.76C268.448 104.015 268.207 104.213 267.926 104.331C267.644 104.449 267.334 104.481 267.035 104.422C266.735 104.363 266.46 104.217 266.243 104.002C266.027 103.786 265.879 103.512 265.819 103.212C265.759 102.913 265.789 102.603 265.906 102.321C266.022 102.039 266.22 101.797 266.473 101.628C266.727 101.458 267.026 101.367 267.331 101.367C267.533 101.366 267.733 101.405 267.92 101.482C268.107 101.559 268.277 101.671 268.42 101.814C268.564 101.957 268.677 102.126 268.755 102.313C268.833 102.499 268.872 102.699 268.872 102.902Z" fill="#282828"/>
<path d="M253.242 111.688H266.8C266.8 111.688 265.842 115.413 259.697 115.413C258.383 115.441 257.087 115.108 255.949 114.451C254.811 113.795 253.875 112.839 253.242 111.688Z" fill="white"/>
<path d="M243.532 101.307C243.532 101.307 250.908 91.3413 249.204 81.25C247.417 82.304 245.876 83.7291 244.686 85.4292C243.497 87.1293 242.685 89.0648 242.307 91.1052C240.884 98.2163 243.532 101.307 243.532 101.307Z" fill="#282828"/>
<path d="M277.481 100.974C277.481 100.974 268.924 90.6468 270.621 80.5703C274.376 82.9682 277.028 86.7557 277.998 91.1042C279.414 98.2153 277.481 100.974 277.481 100.974Z" fill="#282828"/>
<path d="M244.152 85.2228C244.152 85.2228 252.606 96.5902 278.491 94.8125C278.491 94.8125 275.54 78.5838 263 76.9905C262.992 76.9905 248.505 75.257 244.152 85.2228Z" fill="#282828"/>
<path d="M220.554 261.88C220.178 262.478 242.101 166.5 235.588 167.946C234.998 168.079 223.601 169.141 221.904 172.586C216.991 182.566 213.473 261.157 213.473 261.157L220.554 261.88Z" fill="#FFB1A5"/>
<path d="M213.478 261.156C213.478 261.156 209.944 277.547 223.303 279.354C223.73 279.412 224.164 279.32 224.532 279.094C224.899 278.868 225.176 278.522 225.317 278.115L225.361 278.004C225.511 277.557 225.487 277.07 225.294 276.64C225.102 276.21 224.754 275.867 224.321 275.681C222.145 274.707 218.767 272.251 220.441 266.659C220.441 266.659 222.374 266.423 223.436 270.023C223.499 270.241 223.609 270.442 223.758 270.613C223.907 270.784 224.092 270.92 224.3 271.011C224.507 271.103 224.733 271.148 224.959 271.142C225.186 271.137 225.409 271.083 225.612 270.982C225.9 270.838 226.135 270.607 226.286 270.323C226.437 270.039 226.495 269.715 226.453 269.396C226.129 266.873 224.86 260.802 219.991 259.172L213.478 261.156Z" fill="#FFB1A5"/>
<path d="M217.965 195.647C217.965 195.647 230.594 213.432 230.66 213.093C230.726 212.754 235.086 188.116 235.086 188.116L219.757 181.477L217.965 195.647Z" fill="#F3978E"/>
<path d="M253.066 138.157C253.605 138.157 221.848 138.725 216.043 178.825L234.293 181.62L237.981 211.865H288.88L298.979 155.957C298.979 155.957 291.794 143.844 270.851 137.906L253.066 138.157Z" fill="#00857B"/>
<path d="M237.547 143.005C237.547 143.005 242.032 148.965 260.414 148.965C278.627 148.965 283.282 142.695 283.282 142.695C283.282 142.695 272.542 136.698 260.083 134.758C252.209 136.393 244.616 139.171 237.547 143.005Z" fill="#FFB1A5"/>
<path d="M300.027 270.039L300.064 350.002H339.625L342.672 270.039H300.027Z" fill="#005683"/>
<path d="M385.918 270.039L385.874 350.002H346.313L343.273 270.039H385.918Z" fill="#005683"/>
<path d="M364.314 270.039H323.41V297.82H364.314V270.039Z" fill="#005683"/>
<path d="M329.117 297.82H357.333" stroke="#282828" stroke-width="1.4" stroke-linecap="round" stroke-linejoin="round"/>
<path d="M410.912 200.25C413.361 227.352 410.772 247.092 411.487 296.951L387.882 297.946L384.363 204.61L410.912 200.25Z" fill="#FFB1A5"/>
<path d="M387.27 221.399C387.27 221.399 401.89 220.057 411.893 213.462L411.627 207.664L387.284 210.984L387.27 221.399Z" fill="#F3978E"/>
<path d="M363.812 137.867C363.812 137.867 410.285 149.544 418.673 208.499C418.673 208.499 395.945 218.354 373.166 214.112L378.285 194.394L363.812 137.867Z" fill="#C98BD2"/>
<path d="M225.086 162.375L259.667 203.212L249.089 233.014C249.089 233.014 222.806 196.47 210.996 168.225L225.086 162.375Z" fill="#FFB1A5"/>
<path d="M226.221 163.846C226.221 163.846 214.079 170.714 210.995 168.228C205.596 163.89 201.133 148.016 201.133 148.016C201.133 148.016 223.846 139.459 223.632 139.791C223.418 140.123 226.221 163.846 226.221 163.846Z" fill="#FFB1A5"/>
<path d="M226.222 163.848C226.008 162.63 230.729 149.441 232.345 144.499C232.424 144.204 232.442 143.896 232.397 143.595C232.352 143.293 232.245 143.004 232.083 142.746C231.921 142.487 231.707 142.265 231.455 142.093C231.203 141.922 230.918 141.804 230.619 141.747C230.089 141.608 229.528 141.645 229.021 141.852C228.514 142.06 228.088 142.427 227.808 142.898L222.113 152.635L226.222 163.848Z" fill="#FFB1A5"/>
<path d="M225.807 149.592L221.897 130.14C221.773 129.51 221.408 128.953 220.878 128.588C220.349 128.224 219.697 128.082 219.064 128.193C218.532 128.289 218.056 128.584 217.734 129.018C217.412 129.453 217.268 129.994 217.331 130.531L219.042 145.019L225.807 149.592Z" fill="#FFB1A5"/>
<path d="M218.032 142.413L212.721 128.523C212.501 127.939 212.066 127.461 211.505 127.186C210.944 126.912 210.3 126.863 209.704 127.047C209.202 127.212 208.78 127.561 208.523 128.023C208.266 128.485 208.192 129.027 208.317 129.541L212.256 145.592L218.032 142.413Z" fill="#FFB1A5"/>
<path d="M212.325 146.505L205.604 132.858C205.311 132.246 204.794 131.77 204.16 131.527C203.526 131.285 202.824 131.294 202.196 131.553C201.915 131.674 201.661 131.851 201.449 132.071C201.236 132.291 201.069 132.552 200.957 132.837C200.845 133.122 200.791 133.427 200.797 133.733C200.804 134.039 200.871 134.341 200.994 134.621L206.357 147.508L212.325 146.505Z" fill="#FFB1A5"/>
<path d="M201.134 148.051L195.867 139.694C195.759 139.467 195.698 139.222 195.686 138.971C195.674 138.721 195.712 138.471 195.798 138.235C195.884 138 196.015 137.784 196.186 137.6C196.356 137.416 196.561 137.267 196.789 137.163C197.246 136.965 197.757 136.93 198.237 137.065C198.716 137.199 199.135 137.494 199.422 137.901L206.357 147.491L201.134 148.051Z" fill="#FFB1A5"/>
<path d="M224.746 148.133C224.746 148.133 216.831 147.299 216.012 157.848" stroke="#282828" stroke-width="1.53" stroke-linecap="round" stroke-linejoin="round"/>
<path d="M242.074 219.079C242.074 219.079 248.58 241.585 261.541 238.598C274.502 235.61 294.699 207.926 294.699 207.926L290.177 160.656L253.803 205.433L242.074 219.079Z" fill="#FFB1A5"/>
<path d="M265.082 191.512C265.082 191.512 277.364 210.042 287.839 216.592L294.699 207.939L268.247 187.477L265.082 191.512Z" fill="#F3978E"/>
<path d="M318.814 136.844C318.814 136.844 282.75 144.973 263.57 186.88C263.57 186.88 275.181 204.37 293.815 212.145L306.281 196.882L318.814 136.844Z" fill="#C98BD2"/>
<path d="M318.813 136.711C310.328 141.064 302.587 146.736 295.879 153.515L298.653 276.011H387.416L387.128 154.149C387.128 154.149 375.938 143.195 363.811 137.861C353.513 133.295 328.83 131.576 318.813 136.711Z" fill="#C98BD2"/>
<path d="M348.472 171.703H373.162V184.052C373.162 187.327 371.861 190.468 369.545 192.783C367.229 195.099 364.088 196.4 360.813 196.4C357.538 196.4 354.397 195.099 352.082 192.783C349.766 190.468 348.465 187.327 348.465 184.052V171.703H348.472Z" stroke="#282828" stroke-width="1.4" stroke-linecap="round" stroke-linejoin="round"/>
<path d="M387.27 214.57L388.428 174.492" stroke="#282828" stroke-width="1.4" stroke-linecap="round" stroke-linejoin="round"/>
<path d="M297.242 207.885L295.324 173.148" stroke="#282828" stroke-width="1.4" stroke-linecap="round" stroke-linejoin="round"/>
<path d="M319.854 91.9839L316.166 73.6824C315.952 72.2071 315.377 69.8908 316.085 67.7295C317.258 64.1518 321.566 57.2841 328.927 60.4266L330.521 67.6778C330.521 67.6778 322.871 69.2196 319.803 79.2149L319.854 91.9839Z" fill="#282828"/>
<path d="M328.376 64.1875C328.243 66.5923 326.118 77.1188 318.661 80.9546C318.661 80.9251 312.118 66.9095 328.376 64.1875Z" fill="#282828"/>
<path d="M354.561 133.343V102.258H325.902V133.343L317.375 137.231C317.375 137.231 319.374 150.11 340.53 150.398C361.687 150.686 363.811 137.858 363.811 137.858L354.561 133.343Z" fill="#FFB1A5"/>
<path d="M328.918 60.4098C328.918 60.4098 334.178 46.5343 350.391 53.9109C360.21 58.3738 362.932 64.3637 364.127 68.6052C364.512 70.2226 364.659 71.8877 364.562 73.5476L360.638 91.9892L345.324 66.5029L330.511 67.6463L328.918 60.4098Z" fill="#282828"/>
<path d="M360.637 91.991C360.637 91.991 362.57 88.9223 366.538 90.4345C370.507 91.9467 368.751 101.617 362.747 102.857C362.075 102.975 361.386 102.947 360.727 102.773C360.067 102.6 359.453 102.286 358.926 101.854C358.926 101.854 360.408 94.6834 360.637 91.991Z" fill="#F3978E"/>
<path d="M365.769 93.8272C365.769 93.8272 362.434 92.7133 360.066 97.6261" stroke="#282828" stroke-width="1.4" stroke-linecap="round" stroke-linejoin="round"/>
<path d="M319.855 91.991C319.855 91.991 317.922 88.9223 313.953 90.4345C309.985 91.9467 311.74 101.617 317.752 102.857C318.424 102.975 319.113 102.947 319.773 102.773C320.432 102.6 321.047 102.286 321.574 101.854C321.574 101.854 320.091 94.6834 319.855 91.991Z" fill="#F3978E"/>
<path d="M314.727 93.8272C314.727 93.8272 318.068 92.7133 320.436 97.6261" stroke="#282828" stroke-width="1.4" stroke-linecap="round" stroke-linejoin="round"/>
<path d="M361.038 82.7905C361.038 88.618 360.47 100.826 356.885 108.07C353.521 114.872 347.952 118.53 340.656 118.744C333.361 118.958 327.917 116.155 323.557 107.325C319.197 98.4953 319.404 82.8937 319.404 82.8937C319.404 82.8937 319.404 62.0547 339.999 62.0547C361.679 62.0547 361.038 82.7905 361.038 82.7905Z" fill="#FFB1A5"/>
<path d="M326.117 111.68C326.117 111.68 328.522 123.851 339.115 125.253C351.308 126.861 354.562 111.975 354.562 111.975C354.562 111.975 349.169 118.724 340.649 118.732C337.853 118.721 335.095 118.082 332.58 116.862C330.064 115.641 327.855 113.87 326.117 111.68Z" fill="#282828"/>
<path d="M338.754 91.4375V96.2618C338.753 96.4638 338.79 96.6641 338.865 96.852C339.017 97.1946 339.289 97.4702 339.63 97.6275C339.97 97.7849 340.356 97.8134 340.716 97.7077L342.317 97.2872" stroke="#282828" stroke-width="1.4" stroke-linecap="round" stroke-linejoin="round"/>
<path d="M332.665 89.1315C332.665 89.5021 332.555 89.8643 332.35 90.1724C332.144 90.4806 331.851 90.7207 331.509 90.8625C331.166 91.0043 330.79 91.0415 330.426 90.9692C330.063 90.8969 329.729 90.7184 329.467 90.4564C329.205 90.1943 329.026 89.8605 328.954 89.497C328.882 89.1336 328.919 88.7568 329.061 88.4145C329.202 88.0721 329.443 87.7795 329.751 87.5736C330.059 87.3677 330.421 87.2578 330.792 87.2578C331.038 87.2578 331.281 87.3063 331.509 87.4004C331.736 87.4946 331.943 87.6326 332.117 87.8066C332.291 87.9806 332.429 88.1871 332.523 88.4145C332.617 88.6418 332.665 88.8854 332.665 89.1315Z" fill="#282828"/>
<path d="M350.247 89.1315C350.247 89.5021 350.137 89.8643 349.932 90.1724C349.726 90.4806 349.433 90.7207 349.091 90.8625C348.748 91.0043 348.372 91.0415 348.008 90.9692C347.645 90.8969 347.311 90.7184 347.049 90.4564C346.787 90.1943 346.608 89.8605 346.536 89.497C346.464 89.1336 346.501 88.7568 346.643 88.4145C346.784 88.0721 347.025 87.7795 347.333 87.5736C347.641 87.3677 348.003 87.2578 348.374 87.2578C348.871 87.2578 349.347 87.4552 349.699 87.8066C350.05 88.158 350.247 88.6346 350.247 89.1315Z" fill="#282828"/>
<path d="M343.57 79.8103L356.177 83.0634C356.177 83.0634 355.609 79.53 350.453 78.2465C345.296 76.9629 343.57 79.8103 343.57 79.8103Z" fill="#282828"/>
<path d="M335.743 79.8103L323.137 83.0634C323.137 83.0634 323.705 79.53 328.861 78.2465C334.017 76.9629 335.743 79.8103 335.743 79.8103Z" fill="#282828"/>
<path d="M333.234 101.125C333.234 101.125 335.093 102.549 339.984 102.549C342.466 102.604 344.931 102.119 347.206 101.125" stroke="#282828" stroke-width="1.4" stroke-linecap="round" stroke-linejoin="round"/>
<path d="M330.291 97.6445C334.691 97.6445 338.258 94.0776 338.258 89.6777C338.258 85.2778 334.691 81.7109 330.291 81.7109C325.891 81.7109 322.324 85.2778 322.324 89.6777C322.324 94.0776 325.891 97.6445 330.291 97.6445Z" stroke="white" stroke-width="1.95" stroke-miterlimit="10"/>
<path d="M349.861 97.6445C354.261 97.6445 357.828 94.0776 357.828 89.6777C357.828 85.2778 354.261 81.7109 349.861 81.7109C345.461 81.7109 341.895 85.2778 341.895 89.6777C341.895 94.0776 345.461 97.6445 349.861 97.6445Z" stroke="white" stroke-width="1.95" stroke-miterlimit="10"/>
<path d="M338.258 89.6787C338.258 89.6787 340.139 87.9231 341.894 89.6787" stroke="white" stroke-width="1.95" stroke-miterlimit="10"/>
<path d="M322.327 89.6758L319.656 89.6094" stroke="white" stroke-width="1.95" stroke-miterlimit="10"/>
<path d="M357.828 89.6771L360.808 89.6328" stroke="white" stroke-width="1.95" stroke-miterlimit="10"/>
<path d="M326.117 64.6955C326.117 64.6955 329.946 75.5613 347.214 75.2293C358.943 75.0006 361.746 83.4912 361.746 83.4912C361.746 83.4912 359.703 64.5184 359.165 64.6955C358.626 64.8725 341.313 60.0703 341.313 60.0703L326.117 64.6955Z" fill="#282828"/>
</g>
<defs>
<clipPath id="clip0_3316_219">
<rect width="690" height="350" fill="white"/>
</clipPath>
</defs>
</svg>
