<svg width="690" height="350" viewBox="0 0 690 350" fill="none" xmlns="http://www.w3.org/2000/svg">
<path d="M525.669 344.379C573.159 308.269 594.309 208.139 517.199 159.039C466.149 126.539 434.399 145.039 376.969 123.579C306.859 97.3393 296.409 18.0593 211.139 57.0693C165.959 77.7293 134.639 135.959 129.139 202.139C123.719 266.949 146.689 311.419 193.629 341.809C303.859 346.539 414.309 345.689 525.669 344.379Z" fill="#DFF3FC"/>
<path d="M330.573 59.5663C323.403 88.3663 350.043 116.876 378.103 128.696C406.163 140.516 438.343 139.116 468.403 133.476C481.403 131.046 494.713 127.626 504.793 119.356C514.873 111.086 520.713 96.7263 515.193 85.1264C510.313 74.8964 498.453 69.6563 487.133 66.9663C475.813 64.2763 463.813 63.1763 453.733 57.5163C444.173 52.1463 437.393 43.2563 429.083 36.2163C413.733 23.2263 392.143 16.8063 372.193 20.8963C352.243 24.9863 336.673 35.0863 330.573 59.5663Z" fill="#DFF3FC"/>
<path d="M545.433 192.042V170.252H537.143C536.164 166.494 534.67 162.89 532.703 159.542L538.543 153.692L523.143 138.282L517.293 144.122C513.946 142.154 510.342 140.66 506.583 139.682V131.422H484.823V139.682C481.076 140.664 477.482 142.158 474.143 144.122L468.293 138.282L452.883 153.692L458.723 159.542C456.761 162.892 455.267 166.496 454.283 170.252H446.023V192.042H454.283C455.267 195.798 456.761 199.402 458.723 202.752L452.883 208.602L468.293 224.002L474.143 218.162C477.495 220.123 481.098 221.621 484.853 222.612V230.872H506.633V222.612C510.389 221.622 513.992 220.125 517.343 218.162L523.193 224.002L538.603 208.602L532.763 202.752C534.709 199.4 536.183 195.796 537.143 192.042H545.433ZM495.723 200.042C491.989 200.044 488.338 198.938 485.232 196.865C482.125 194.792 479.704 191.844 478.273 188.394C476.843 184.944 476.468 181.148 477.195 177.485C477.922 173.822 479.72 170.457 482.36 167.815C485 165.174 488.364 163.375 492.026 162.645C495.689 161.916 499.486 162.289 502.936 163.718C506.387 165.147 509.336 167.567 511.411 170.672C513.486 173.777 514.593 177.427 514.593 181.162C514.586 186.163 512.595 190.957 509.057 194.493C505.52 198.028 500.725 200.017 495.723 200.022V200.042Z" fill="#A2C7EB"/>
<path d="M479.591 246.633L475.451 235.813L471.351 237.383C470.151 235.707 468.724 234.206 467.111 232.923L468.901 228.923L458.321 224.223L456.531 228.223C454.498 227.881 452.429 227.824 450.381 228.053L448.801 223.953L438.001 228.103L439.571 232.193C437.896 233.399 436.396 234.829 435.111 236.443L431.111 234.653L426.401 245.223L430.401 247.013C430.067 249.05 430.013 251.122 430.241 253.173L426.141 254.743L430.291 265.553L434.381 263.983C435.585 265.655 437.012 267.155 438.621 268.443L436.841 272.443L447.411 277.143L449.201 273.143C451.236 273.485 453.309 273.542 455.361 273.313L456.931 277.413L467.741 273.263L466.141 269.183C467.816 267.975 469.319 266.545 470.611 264.933L474.611 266.723L479.321 256.153L475.321 254.363C475.658 252.327 475.715 250.255 475.491 248.203L479.591 246.633ZM456.461 260.053C454.616 260.754 452.605 260.893 450.682 260.453C448.758 260.013 447.008 259.014 445.651 257.581C444.294 256.149 443.391 254.347 443.056 252.402C442.721 250.458 442.969 248.457 443.768 246.653C444.568 244.849 445.883 243.322 447.548 242.264C449.214 241.206 451.155 240.664 453.128 240.707C455.1 240.749 457.016 241.375 458.634 242.504C460.252 243.633 461.5 245.216 462.221 247.053C462.703 248.284 462.937 249.599 462.909 250.921C462.88 252.243 462.589 253.546 462.054 254.755C461.518 255.964 460.748 257.055 459.788 257.964C458.828 258.874 457.697 259.584 456.461 260.053Z" stroke="#A2C7EB" stroke-miterlimit="10"/>
<path d="M444.19 208.73L441.39 201.43L438.62 202.49C437.808 201.364 436.846 200.354 435.76 199.49L436.96 196.78L429.82 193.6L428.61 196.31C427.236 196.079 425.836 196.039 424.45 196.19L423.39 193.43L416.09 196.23L417.15 198.99C416.027 199.808 415.018 200.773 414.15 201.86L411.44 200.65L408.24 207.81L410.95 209.02C410.718 210.394 410.681 211.795 410.84 213.18L408.07 214.24L410.87 221.54L413.64 220.48C414.452 221.606 415.415 222.615 416.5 223.48L415.3 226.19L422.44 229.37L423.65 226.66C425.025 226.887 426.425 226.924 427.81 226.77L428.87 229.54L436.17 226.74L435.14 223.96C436.266 223.148 437.276 222.185 438.14 221.1L440.85 222.3L444.03 215.16L441.32 213.95C441.552 212.575 441.589 211.175 441.43 209.79L444.19 208.73ZM428.56 217.81C427.31 218.288 425.946 218.385 424.641 218.089C423.335 217.792 422.147 217.115 421.226 216.144C420.306 215.172 419.694 213.949 419.468 212.63C419.242 211.31 419.412 209.954 419.957 208.731C420.502 207.508 421.397 206.474 422.529 205.76C423.662 205.046 424.98 204.684 426.318 204.719C427.657 204.754 428.954 205.186 430.048 205.958C431.141 206.731 431.98 207.81 432.46 209.06C433.102 210.737 433.051 212.601 432.32 214.241C431.589 215.882 430.237 217.165 428.56 217.81V217.81Z" stroke="#A2C7EB" stroke-miterlimit="10"/>
<path d="M441.649 80.8988C441.649 87.7088 439.63 94.3659 435.846 100.028C432.062 105.69 426.684 110.103 420.393 112.709C414.101 115.315 407.177 115.996 400.498 114.666C393.819 113.337 387.685 110.057 382.87 105.241C378.055 100.425 374.777 94.289 373.449 87.6096C372.122 80.9302 372.805 74.0071 375.413 67.716C378.02 61.4249 382.435 56.0484 388.098 52.2664C393.761 48.4844 400.419 46.4668 407.229 46.4688C411.751 46.4648 416.23 47.3527 420.408 49.0817C424.586 50.8107 428.383 53.3468 431.58 56.5449C434.777 59.7429 437.312 63.5401 439.04 67.7191C440.768 71.898 441.654 76.3767 441.649 80.8988Z" fill="#0097D8" stroke="#0097D8" stroke-miterlimit="10"/>
<path d="M408.612 80.7388C414.789 79.9759 419.178 74.3498 418.415 68.1725C417.653 61.9952 412.026 57.6059 405.849 58.3687C399.672 59.1316 395.282 64.7577 396.045 70.935C396.808 77.1124 402.434 81.5017 408.612 80.7388Z" fill="white"/>
<path d="M428.573 103.567C422.493 108.367 414.973 110.977 407.228 110.977C399.482 110.977 391.963 108.367 385.883 103.567C388.083 93.8775 390.113 85.5675 392.213 83.3975C395.213 80.3975 403.103 78.6875 407.213 78.6875C411.323 78.6875 419.613 80.7875 421.143 82.3175C424.263 85.4375 426.953 94.0275 428.573 103.567Z" fill="white"/>
<path d="M357.75 165.806V148.806C357.75 146.578 358.635 144.442 360.21 142.867C361.786 141.291 363.922 140.406 366.15 140.406H419.71C420.816 140.402 421.911 140.617 422.934 141.037C423.956 141.457 424.886 142.076 425.669 142.856C426.452 143.636 427.074 144.564 427.498 145.585C427.922 146.606 428.14 147.701 428.14 148.806V165.806C428.14 168.034 427.255 170.171 425.68 171.746C424.104 173.321 421.968 174.206 419.74 174.206H366.14C363.914 174.204 361.78 173.317 360.207 171.742C358.634 170.167 357.75 168.032 357.75 165.806Z" fill="#0097D8"/>
<path d="M380.373 164.867L354.453 190.117L396.463 168.887" fill="#0097D8"/>
<path d="M364.25 148.34V148.25C364.25 147.918 364.382 147.601 364.616 147.366C364.851 147.132 365.168 147 365.5 147H391.98C392.312 147 392.629 147.132 392.864 147.366C393.098 147.601 393.23 147.918 393.23 148.25V148.34C393.23 148.672 393.098 148.989 392.864 149.224C392.629 149.458 392.312 149.59 391.98 149.59H365.5C365.168 149.59 364.851 149.458 364.616 149.224C364.382 148.989 364.25 148.672 364.25 148.34Z" fill="white"/>
<path d="M394.422 148.34V148.25C394.422 147.918 394.554 147.601 394.788 147.366C395.022 147.132 395.34 147 395.672 147H418.782C419.113 147 419.431 147.132 419.666 147.366C419.9 147.601 420.032 147.918 420.032 148.25V148.34C420.032 148.672 419.9 148.989 419.666 149.224C419.431 149.458 419.113 149.59 418.782 149.59H395.672C395.34 149.59 395.022 149.458 394.788 149.224C394.554 148.989 394.422 148.672 394.422 148.34Z" fill="white"/>
<path d="M384.328 154.027V153.938C384.328 153.606 384.46 153.288 384.694 153.054C384.929 152.819 385.247 152.688 385.578 152.688H418.778C419.11 152.688 419.428 152.819 419.662 153.054C419.896 153.288 420.028 153.606 420.028 153.938V154.027C420.028 154.359 419.896 154.677 419.662 154.911C419.428 155.146 419.11 155.277 418.778 155.277H385.578C385.247 155.277 384.929 155.146 384.694 154.911C384.46 154.677 384.328 154.359 384.328 154.027Z" fill="white"/>
<path d="M364.25 154.027V153.938C364.25 153.606 364.382 153.288 364.616 153.054C364.851 152.819 365.168 152.688 365.5 152.688H380.33C380.662 152.688 380.979 152.819 381.214 153.054C381.448 153.288 381.58 153.606 381.58 153.938V154.027C381.58 154.359 381.448 154.677 381.214 154.911C380.979 155.146 380.662 155.277 380.33 155.277H365.5C365.168 155.277 364.851 155.146 364.616 154.911C364.382 154.677 364.25 154.359 364.25 154.027Z" fill="white"/>
<path d="M388.938 159.723V159.633C388.938 159.301 389.069 158.983 389.304 158.749C389.538 158.514 389.856 158.383 390.188 158.383H418.778C419.109 158.383 419.427 158.514 419.661 158.749C419.896 158.983 420.028 159.301 420.028 159.633V159.723C420.028 160.054 419.896 160.372 419.661 160.607C419.427 160.841 419.109 160.973 418.778 160.973H390.188C389.856 160.973 389.538 160.841 389.304 160.607C389.069 160.372 388.938 160.054 388.938 159.723Z" fill="white"/>
<path d="M364.25 159.723V159.633C364.25 159.301 364.382 158.983 364.616 158.749C364.851 158.514 365.168 158.383 365.5 158.383H385.25C385.582 158.383 385.899 158.514 386.134 158.749C386.368 158.983 386.5 159.301 386.5 159.633V159.723C386.5 160.054 386.368 160.372 386.134 160.607C385.899 160.841 385.582 160.973 385.25 160.973H365.5C365.168 160.973 364.851 160.841 364.616 160.607C364.382 160.372 364.25 160.054 364.25 159.723Z" fill="white"/>
<path d="M364.25 165.41V165.32C364.25 164.989 364.382 164.671 364.616 164.436C364.851 164.202 365.168 164.07 365.5 164.07H372.83C373.162 164.07 373.479 164.202 373.714 164.436C373.948 164.671 374.08 164.989 374.08 165.32V165.41C374.08 165.742 373.948 166.06 373.714 166.294C373.479 166.529 373.162 166.66 372.83 166.66H365.5C365.168 166.66 364.851 166.529 364.616 166.294C364.382 166.06 364.25 165.742 364.25 165.41Z" fill="white"/>
<path d="M376.672 165.41V165.32C376.672 164.989 376.804 164.671 377.038 164.436C377.272 164.202 377.59 164.07 377.922 164.07H418.782C419.113 164.07 419.431 164.202 419.666 164.436C419.9 164.671 420.032 164.989 420.032 165.32V165.41C420.032 165.742 419.9 166.06 419.666 166.294C419.431 166.529 419.113 166.66 418.782 166.66H377.922C377.59 166.66 377.272 166.529 377.038 166.294C376.804 166.06 376.672 165.742 376.672 165.41Z" fill="white"/>
<path d="M225.537 141.686C233.253 125.102 226.063 105.402 209.479 97.6861C192.894 89.9702 173.195 97.1597 165.479 113.744C157.763 130.329 164.952 150.028 181.537 157.744C198.122 165.46 217.821 158.271 225.537 141.686Z" fill="#0097D8"/>
<path d="M190.351 151.562C194.535 150.093 196.736 145.51 195.267 141.325C193.797 137.141 189.214 134.94 185.03 136.41C180.845 137.879 178.644 142.462 180.114 146.647C181.583 150.831 186.166 153.032 190.351 151.562Z" fill="white"/>
<path d="M183.492 146.861L183.102 141.771L187.322 138.891L191.922 141.101L192.312 146.191L188.092 149.071L183.492 146.861Z" fill="#0097D8"/>
<path d="M206.014 119.029C210.19 117.537 212.365 112.941 210.873 108.765C209.38 104.589 204.784 102.414 200.608 103.906C196.432 105.399 194.257 109.995 195.75 114.171C197.243 118.347 201.838 120.522 206.014 119.029Z" fill="white"/>
<path d="M199.328 113.863L199.608 107.393L204.478 103.133L209.088 105.343L208.808 111.813L203.928 116.073L199.328 113.863Z" fill="#0097D8"/>
<path d="M193.257 140.273L187.117 137.273L191.657 126.812C191.947 126.142 192.257 125.493 192.597 124.812L197.927 114.812L204.067 117.762L199.687 128.072C199.347 128.872 198.977 129.653 198.567 130.413L193.257 140.273Z" fill="white"/>
<path d="M218.508 145.539C219.698 144.999 238.698 145.859 238.698 145.859L224.998 133.289L218.508 145.539Z" fill="#0097D8"/>
<path d="M302.375 71.7187C309.512 55.2191 301.922 36.0582 285.422 28.9216C268.923 21.785 249.762 29.3752 242.625 45.8748C235.488 62.3744 243.079 81.5354 259.578 88.6719C276.078 95.8085 295.239 88.2183 302.375 71.7187Z" fill="#0097D8"/>
<path d="M524.672 194.719C531.809 178.219 524.219 159.058 507.719 151.922C491.219 144.785 472.059 152.375 464.922 168.875C457.785 185.374 465.376 204.535 481.875 211.672C498.375 218.809 517.536 211.218 524.672 194.719Z" fill="#0097D8"/>
<path d="M273.592 31.0625H271.422V58.4025H273.592V31.0625Z" fill="white"/>
<path d="M248.484 74.1767L249.719 75.9609L272.503 60.1902L271.268 58.4059L248.484 74.1767Z" fill="white"/>
<path d="M275.5 58.8125C275.5 59.4058 275.324 59.9859 274.994 60.4792C274.665 60.9726 274.196 61.3571 273.648 61.5841C273.1 61.8112 272.497 61.8706 271.915 61.7549C271.333 61.6391 270.798 61.3534 270.379 60.9338C269.959 60.5143 269.673 59.9797 269.558 59.3978C269.442 58.8158 269.501 58.2126 269.728 57.6645C269.955 57.1163 270.34 56.6477 270.833 56.3181C271.327 55.9884 271.907 55.8125 272.5 55.8125C273.296 55.8125 274.059 56.1286 274.621 56.6912C275.184 57.2538 275.5 58.0169 275.5 58.8125Z" fill="white"/>
<path d="M360.884 279.219C358.954 249.459 371.974 218.659 393.884 201.039C394.584 230.949 381.694 261.219 360.884 279.219Z" fill="#A2C7EB"/>
<path d="M390.321 209.047C381.035 226.371 373.056 244.364 366.451 262.877C358.381 285.447 352.031 309.427 338.211 328.347" stroke="#6F8BBF" stroke-miterlimit="10" stroke-linecap="round"/>
<path d="M353.961 297.939C365.061 273.109 387.091 254.349 411.381 249.039C401.041 275.649 377.781 295.949 353.961 297.939Z" fill="#A2C7EB"/>
<path d="M405.422 254.508C388.836 269.108 371.966 283.294 354.812 297.068" stroke="#6F8BBF" stroke-miterlimit="10" stroke-linecap="round"/>
<path d="M347.406 319.569C362.236 297.419 389.596 285.859 412.236 292.179C395.586 314.049 368.136 325.639 347.406 319.569Z" fill="#A2C7EB"/>
<path d="M406.813 293.812C387.664 305.853 366.742 314.809 344.812 320.353" stroke="#6F8BBF" stroke-miterlimit="10" stroke-linecap="round"/>
<path d="M355.416 290.411C360.156 265.471 353.046 237.671 337.216 219.281C330.726 243.811 336.916 272.511 355.416 290.411Z" fill="#A2C7EB"/>
<path d="M338.852 225.641C341.787 248.341 347.597 270.576 356.142 291.811" stroke="#6F8BBF" stroke-miterlimit="10" stroke-linecap="round"/>
<path d="M347.278 311.648C345.278 286.008 332.118 261.928 312.898 248.648C313.988 262.037 317.53 275.111 323.348 287.218C329.938 300.878 339.618 309.548 347.278 311.648Z" fill="#A2C7EB"/>
<path d="M315.75 253.812C323.145 274.889 333.956 294.605 347.75 312.172" stroke="#6F8BBF" stroke-miterlimit="10" stroke-linecap="round"/>
<path d="M495.711 305.498C506.201 278.208 530.331 256.068 556.941 249.328C545.281 276.248 521.481 297.948 495.711 305.498Z" fill="#A2C7EB"/>
<path d="M550.491 255C535.176 266.648 520.75 279.42 507.331 293.21C490.951 310.03 475.501 328.79 455.531 340.01" stroke="#6F8BBF" stroke-miterlimit="10" stroke-linecap="round"/>
<path d="M481.922 319.348C501.922 301.758 529.072 294.038 552.712 299.218C532.672 318.708 503.792 327.298 481.922 319.348Z" fill="#A2C7EB"/>
<path d="M545.203 301.672C524.537 307.912 503.81 313.665 483.023 318.932" stroke="#6F8BBF" stroke-miterlimit="10" stroke-linecap="round"/>
<path d="M467.258 335.947C489.448 322.267 518.368 323.137 535.788 338.007C512.138 350.687 483.138 349.807 467.258 335.947Z" fill="#A2C7EB"/>
<path d="M530.341 337.209C508.49 340.12 486.316 339.556 464.641 335.539" stroke="#6F8BBF" stroke-miterlimit="10" stroke-linecap="round"/>
<path d="M486.302 313.243C500.712 292.963 505.822 265.293 499.372 242.453C483.582 261.633 477.282 289.743 486.302 313.243Z" fill="#A2C7EB"/>
<path d="M498.202 248.812C491.482 270.224 487.501 292.401 486.352 314.812" stroke="#6F8BBF" stroke-miterlimit="10" stroke-linecap="round"/>
<path d="M470.398 328.808C479.118 305.148 477.398 278.328 465.838 258.648C461.316 271.015 459.089 284.103 459.268 297.268C459.478 312.158 464.478 323.808 470.398 328.808Z" fill="#A2C7EB"/>
<path d="M466.216 264.461C464.115 286.237 465.591 308.211 470.586 329.511" stroke="#6F8BBF" stroke-miterlimit="10" stroke-linecap="round"/>
<path d="M198.411 257.808C187.711 225.078 157.871 198.648 123.141 191.148C137.751 219.448 164.221 241.968 198.411 257.808Z" fill="#A2C7EB"/>
<path d="M200.22 262.859C188.406 256.285 175.37 252.202 161.917 250.862C148.464 249.522 134.878 250.954 122 255.069C146.236 267.171 174.074 269.944 200.22 262.859Z" fill="#A2C7EB"/>
<path d="M206.702 269.958C181.382 266.448 154.872 272.688 134.312 286.958C157.622 295.468 185.592 289.968 206.702 269.958Z" fill="#A2C7EB"/>
<path d="M214.593 285.454C189.523 285.354 164.873 297.264 150.133 316.614C161.336 318.84 172.954 317.534 183.383 312.874C193.613 308.244 202.193 300.324 214.593 285.454Z" fill="#A2C7EB"/>
<path d="M232.273 311.377C207.543 307.137 181.213 314.797 163.383 331.377C174.074 335.421 185.756 336.057 196.823 333.197C207.703 330.357 217.513 323.977 232.273 311.377Z" fill="#A2C7EB"/>
<path d="M205.576 259.341C189.246 237.341 184.816 207.681 194.096 182.461C201.176 194.461 207.286 207.131 210.096 220.611C212.906 234.091 212.436 248.461 205.576 259.341Z" fill="#A2C7EB"/>
<path d="M215.55 280.567C213.708 268.831 214.649 256.826 218.296 245.52C221.944 234.214 228.197 223.923 236.55 215.477C238.5 239.667 231.14 264.307 215.55 280.567Z" fill="#A2C7EB"/>
<path d="M130.75 197.008C180.44 228.798 219.29 276.178 239.8 330.008" stroke="#6F8BBF" stroke-miterlimit="10" stroke-linecap="round"/>
<path d="M195.641 194.062C201.691 218.56 205.374 243.581 206.641 268.783" stroke="#6F8BBF" stroke-miterlimit="10" stroke-linecap="round"/>
<path d="M232.847 224.969C230.835 244.855 224.752 264.115 214.977 281.549" stroke="#6F8BBF" stroke-miterlimit="10" stroke-linecap="round"/>
<path d="M132.461 255.641C155.243 259.963 178.355 262.305 201.541 262.641" stroke="#6F8BBF" stroke-miterlimit="10" stroke-linecap="round"/>
<path d="M146.141 285.047C167.1 283.52 187.648 278.448 206.911 270.047" stroke="#6F8BBF" stroke-miterlimit="10" stroke-linecap="round"/>
<path d="M158.773 313.078L216.913 284.078" stroke="#6F8BBF" stroke-miterlimit="10" stroke-linecap="round"/>
<path d="M171.367 330.153C196.677 325.263 204.187 319.443 232.277 311.383" stroke="#6F8BBF" stroke-miterlimit="10" stroke-linecap="round"/>
<path d="M331.559 283.812C331.559 283.812 333.749 303.882 336.199 305.492C340.579 308.382 391.279 315.062 391.279 315.062L389.619 328.253C389.619 328.253 320.179 334.492 317.229 331.022C312.109 325.022 303.109 295.962 303.109 295.962L331.559 283.812Z" fill="#E06A58"/>
<path d="M298.078 232.126L303.688 218.656C303.688 218.656 318.908 225.806 323.928 234.656C329.298 244.096 335.868 294.286 335.868 294.286C335.868 294.286 308.998 300.476 304.058 297.846C299.118 295.216 298.078 232.126 298.078 232.126Z" fill="#F2AE30"/>
<path d="M255.353 169.61C251.423 168.17 247.263 166.91 243.053 167.23C238.843 167.55 234.543 169.81 233.143 173.48C232.143 176.1 232.593 179.19 230.983 181.55C229.373 183.91 226.383 184.75 223.523 184.94C220.663 185.13 217.763 184.76 214.913 185.13C206.113 186.3 199.833 195.86 202.723 203.69C203.873 206.81 206.233 209.79 205.723 213.04C205.153 216.52 201.503 218.81 200.003 222.04C198.003 226.34 200.393 231.55 204.323 234.48C208.253 237.41 213.323 238.48 218.323 239.25C225.153 240.25 232.203 240.75 238.953 239.31C245.703 237.87 252.153 234.31 255.643 228.75C257.193 226.29 258.133 223.51 259.933 221.2C263.653 216.43 270.243 214.58 275.433 211.2C281.103 207.49 285.263 200.27 281.923 194.62C278.703 189.19 270.323 187.98 266.923 182.62C265.533 180.41 265.203 177.78 264.303 175.37C263.403 172.96 261.143 171.74 255.353 169.61Z" fill="#0A2240"/>
<path d="M278.253 236.221C279.253 237.361 280.413 238.611 282.033 238.721C283.653 238.831 285.173 237.631 286.273 236.461C291.835 230.63 295.646 223.353 297.273 215.461C295.863 214.661 294.503 213.891 293.273 213.171C292.178 212.539 291.307 211.581 290.783 210.431C290.445 209.615 290.318 208.728 290.413 207.851C290.921 201.247 292.317 194.742 294.563 188.511C282.023 185.681 270.193 182.321 263.393 176.641C262.563 180.141 261.583 186.991 259.493 193.781C257.263 200.971 253.783 208.081 247.883 211.141C259.274 217.835 269.525 226.301 278.253 236.221Z" fill="#F9A07B"/>
<path d="M290.357 207.858C290.262 208.736 290.389 209.623 290.727 210.438C283.307 219.438 266.727 207.678 259.438 193.788C261.527 186.998 262.507 180.148 263.337 176.648C270.127 182.328 281.967 185.648 294.507 188.518C292.261 194.749 290.865 201.255 290.357 207.858Z" fill="#E06A58"/>
<path d="M311.023 316.657C309.383 327.517 321.103 339.207 321.393 345.007C296.503 345.007 244.393 346.527 217.813 342.917C216.603 336.217 229.713 321.147 229.713 306.267C229.713 304.267 229.633 302.137 229.473 299.817C229.053 293.177 228.073 285.277 226.983 277.177C223.983 255.447 220.083 232.177 222.983 227.387C228.683 217.997 241.983 211.617 248.623 208.877C250.893 207.937 252.373 207.427 252.483 207.367C260.773 221.507 277.643 233.567 284.013 233.027C285.783 232.887 291.013 231.027 294.503 213.587C295.853 214.357 297.203 215.067 298.503 215.757C305.093 219.187 311.273 222.017 313.053 226.427C317.753 238.037 322.363 267.307 321.343 277.717C320.323 288.127 316.143 296.237 313.143 306.807C312.453 309.277 311.823 311.897 311.313 314.717C311.223 315.317 311.143 315.977 311.023 316.657Z" fill="#FFC73C"/>
<path d="M321.393 345.01C296.503 345.01 244.393 346.53 217.813 342.92C216.603 336.22 229.713 321.15 229.713 306.27C229.713 304.27 229.633 302.14 229.473 299.82C229.053 293.18 228.073 285.28 226.983 277.18C231.693 282.18 238.563 261.18 241.603 267.3C258.053 300.5 271.023 309.23 293.603 309.23C300.187 309.17 306.743 308.358 313.143 306.81C312.453 309.28 311.823 311.9 311.313 314.72C311.193 315.387 311.083 316.054 310.983 316.72C309.383 327.51 321.143 339.2 321.393 345.01Z" fill="#FFBB33"/>
<path d="M298.553 215.812C297.483 223.582 294.313 234.052 285.093 236.812C272.633 240.542 254.603 217.262 248.633 208.932C250.903 207.992 252.383 207.482 252.493 207.422C260.783 221.562 277.653 233.622 284.023 233.082C285.793 232.942 291.023 231.082 294.513 213.642C295.863 214.352 297.213 215.062 298.553 215.812Z" fill="#FCE172"/>
<path d="M303.668 333.318L303.578 341.988L458.578 342.908L458.898 333.078L303.668 333.318Z" fill="#325F73"/>
<path d="M525.763 255.967L522.313 252.467L409.413 251.727L352.773 333.637L355.733 336.017L525.763 255.967Z" fill="#325F73"/>
<path d="M411.587 254.758L355.727 336.018L462.427 336.548L525.757 255.968L411.587 254.758Z" fill="#0B2D50"/>
<path d="M438.553 306.631C445.412 306.631 450.973 303.851 450.973 300.421C450.973 296.991 445.412 294.211 438.553 294.211C431.693 294.211 426.133 296.991 426.133 300.421C426.133 303.851 431.693 306.631 438.553 306.631Z" fill="#3C738C"/>
<path d="M328.527 149.113C327.367 157.333 323.697 166.393 318.347 176.403C316.467 168.203 315.267 158.213 313.607 148.223C311.947 138.233 309.767 128.223 306.037 120.023C305.226 118.257 304.311 116.54 303.297 114.883C305.508 114.678 307.738 114.878 309.877 115.473C313.222 116.378 316.305 118.06 318.877 120.383C323.041 124.279 326.072 129.231 327.647 134.713C329.027 139.384 329.328 144.308 328.527 149.113Z" fill="#0B2D50"/>
<path d="M322.247 157.607C322.187 159.227 322.077 160.877 321.927 162.517C319.647 189.117 308.477 207.367 291.387 207.367C267.257 207.367 251.617 180.307 251.617 153.797C251.617 127.647 267.617 108.717 286.387 110.907C297.197 112.147 305.097 115.737 310.707 120.997C314.369 124.494 317.181 128.784 318.927 133.537C321.038 139.328 322.157 145.433 322.237 151.597C322.237 151.597 322.237 151.597 322.237 151.657C322.337 153.597 322.317 155.577 322.247 157.607Z" fill="#F9A07B"/>
<path d="M322.252 157.609C321.543 155.016 320.448 152.545 319.002 150.279C304.476 157.84 287.895 160.502 271.732 157.869L262.672 165.439C262.732 153.339 262.902 145.149 267.622 139.289C272.052 133.789 279.442 131.719 286.442 130.819C294.328 129.783 302.319 129.834 310.192 130.969C313.247 131.264 316.218 132.144 318.942 133.559C321.052 139.35 322.172 145.455 322.252 151.619C322.252 151.619 322.252 151.619 322.252 151.679C322.342 153.599 322.322 155.579 322.252 157.609Z" fill="#E06A58"/>
<path d="M325.734 141.233C322.088 144.189 317.997 146.552 313.614 148.233C300.354 153.583 283.124 155.353 269.694 154.703C263.094 169.203 260.424 174.403 258.694 187.053C252.244 181.003 246.994 169.923 245.434 161.213C243.783 152.476 244.125 143.479 246.434 134.893C247.944 129.704 250.506 124.883 253.961 120.728C257.415 116.573 261.688 113.174 266.514 110.743C267.91 109.986 269.353 109.318 270.834 108.743C279.344 105.453 288.934 105.743 297.664 108.423C302.183 109.848 306.33 112.259 309.804 115.483C316.614 121.633 320.804 129.963 323.544 136.203C324.474 138.113 325.144 139.813 325.734 141.233Z" fill="#0B2D50"/>
<path d="M328.532 149.108C327.997 146.208 327.148 143.375 326.002 140.658C325.34 139.102 324.543 137.606 323.622 136.188C320.688 131.36 316.177 127.693 310.852 125.808C309.407 123.767 307.802 121.844 306.052 120.058C300.52 114.287 293.268 110.463 285.382 109.158C279.084 108.159 272.639 108.708 266.602 110.758C267.998 110.001 269.441 109.333 270.922 108.758C279.432 105.468 289.022 105.758 297.752 108.438C302.271 109.864 306.418 112.275 309.892 115.498C313.236 116.403 316.32 118.086 318.892 120.408C323.056 124.305 326.087 129.257 327.662 134.738C329.029 139.402 329.326 144.314 328.532 149.108Z" fill="#225570"/>
<path d="M277.383 165.42C281.843 162.87 286.473 161.72 292.963 164.09" stroke="#0B2D50" stroke-width="2" stroke-miterlimit="10" stroke-linecap="round"/>
<path d="M307.922 165.24C311.742 162.39 317.402 162.1 320.352 165.24" stroke="#0B2D50" stroke-width="2" stroke-miterlimit="10" stroke-linecap="round"/>
<path d="M303.311 179.812C303.701 181.812 303.491 186.303 302.531 188.312" stroke="#CC454E" stroke-width="2" stroke-miterlimit="10" stroke-linecap="round"/>
<path d="M288.238 181.144C289.255 181.144 290.078 179.845 290.078 178.244C290.078 176.642 289.255 175.344 288.238 175.344C287.222 175.344 286.398 176.642 286.398 178.244C286.398 179.845 287.222 181.144 288.238 181.144Z" fill="#262D40"/>
<path d="M312.293 179.792C313.309 179.792 314.133 178.494 314.133 176.892C314.133 175.291 313.309 173.992 312.293 173.992C311.277 173.992 310.453 175.291 310.453 176.892C310.453 178.494 311.277 179.792 312.293 179.792Z" fill="#262D40"/>
<path d="M301.032 192.229C300.737 192.801 300.403 193.353 300.032 193.879C298.7 195.814 296.804 197.291 294.602 198.109C293.476 198.476 292.277 198.555 291.112 198.339C287.352 197.669 286.362 194.199 286.182 191.529C286.158 191.049 286.158 190.569 286.182 190.089C286.189 189.487 286.236 188.885 286.322 188.289C292.222 191.589 301.032 192.229 301.032 192.229Z" fill="#CC454E"/>
<path d="M301.031 192.229C300.735 192.801 300.401 193.353 300.031 193.879C296.971 193.879 290.711 192.269 286.141 190.089C286.147 189.487 286.194 188.885 286.281 188.289C292.221 191.589 301.031 192.229 301.031 192.229Z" fill="white"/>
<path d="M294.537 198.103C293.411 198.47 292.211 198.549 291.047 198.333C287.287 197.663 286.297 194.193 286.117 191.523C287.99 191.739 289.768 192.467 291.254 193.628C292.739 194.789 293.876 196.338 294.537 198.103Z" fill="#E8729B"/>
<path d="M303.582 310.169L302.962 326.169C302.962 326.169 245.142 343.489 235.582 338.009C230.922 335.329 226.582 320.589 223.322 306.199C219.922 291.079 217.742 276.359 217.742 276.359L251.642 269.719C251.642 269.719 251.642 290.389 252.812 302.339C253.222 306.789 253.812 310.029 254.602 310.559C257.592 312.529 303.582 310.169 303.582 310.169Z" fill="#F9A07B"/>
<path d="M252.812 302.321C246.652 304.321 234.812 307.411 223.322 306.191C219.922 291.071 217.742 276.351 217.742 276.351L251.642 269.711C251.642 269.711 251.662 290.371 252.812 302.321Z" fill="#E06A58"/>
<path d="M301.929 310.333C310.529 308.493 325.089 304.073 331.129 302.553C335.419 301.473 346.589 307.253 349.539 312.703C350.829 315.083 352.049 328.563 347.539 327.173C345.299 326.473 345.669 320.693 344.969 318.333C344.399 316.413 342.579 314.553 339.809 312.953C341.659 317.563 341.589 321.583 341.389 326.563C341.428 327.665 341.209 328.761 340.749 329.763C340.513 330.25 340.113 330.639 339.619 330.86C339.125 331.081 338.569 331.121 338.049 330.973C337.049 330.553 336.679 329.283 336.449 328.173C335.545 324.22 334.907 320.211 334.539 316.173C334.619 320.443 334.539 324.723 334.259 328.983C334.059 332.243 332.439 334.033 330.449 333.463C329.559 333.213 329.199 332.393 328.819 331.313C328.219 333.403 326.719 335.713 324.819 334.833C323.639 334.303 322.909 330.043 323.119 325.663C319.245 327.929 314.846 329.139 310.359 329.173C306.019 329.373 301.579 328.563 298.969 325.613C299.435 320.433 300.427 315.313 301.929 310.333Z" fill="#F9A07B"/>
<path d="M328.952 330.63C329.244 327.168 328.943 323.681 328.062 320.32" stroke="#CC454E" stroke-miterlimit="10" stroke-linecap="round"/>
<path d="M247.829 236.18C245.369 229.25 236.359 215.07 236.359 215.07C236.359 215.07 222.609 220.79 217.729 230.5C209.469 246.94 213.669 294.14 213.669 294.14C224.799 298.8 247.139 298.87 256.669 297.53C256.649 297.53 252.759 250.03 247.829 236.18Z" fill="#FFC73C"/>
<path d="M249.578 239.078C253.144 255.898 255.285 272.988 255.978 290.168" stroke="#F2AE30" stroke-miterlimit="10" stroke-linecap="round"/>
<path d="M543.882 340.062H149.602V349.953H543.882V340.062Z" fill="#0B2D50"/>
<path d="M512.895 162L511.503 168.078H476V169.464L481.108 193.182V193.875H484.001L484.736 196.945H485.779C485.204 197.156 484.721 197.562 484.415 198.092C484.109 198.623 484 199.244 484.106 199.848C484.213 200.451 484.529 200.997 484.998 201.391C485.467 201.784 486.06 202 486.673 202C487.285 202 487.878 201.784 488.348 201.391C488.817 200.997 489.133 200.451 489.239 199.848C489.346 199.244 489.237 198.623 488.931 198.092C488.625 197.562 488.142 197.156 487.567 196.945H502.162C501.587 197.156 501.104 197.562 500.798 198.092C500.492 198.623 500.383 199.244 500.49 199.848C500.596 200.451 500.912 200.997 501.381 201.391C501.851 201.784 502.444 202 503.056 202C503.669 202 504.262 201.784 504.731 201.391C505.2 200.997 505.516 200.451 505.623 199.848C505.729 199.244 505.62 198.623 505.314 198.092C505.008 197.562 504.525 197.156 503.95 196.945H505.102V195.851H485.602L485.127 193.875H507.161V193.203L511.331 173.812L513.76 163.116H528.648V162.021L512.895 162ZM488.198 199.401C488.198 199.698 488.11 199.988 487.945 200.235C487.78 200.482 487.545 200.674 487.271 200.788C486.997 200.901 486.695 200.931 486.403 200.873C486.112 200.815 485.845 200.672 485.635 200.462C485.425 200.252 485.282 199.985 485.224 199.693C485.166 199.402 485.196 199.1 485.309 198.826C485.423 198.552 485.615 198.317 485.862 198.152C486.109 197.987 486.399 197.899 486.696 197.899C487.093 197.902 487.473 198.061 487.753 198.342C488.033 198.624 488.191 199.004 488.192 199.401H488.198ZM504.576 199.401C504.576 199.698 504.488 199.988 504.323 200.235C504.158 200.482 503.923 200.674 503.649 200.788C503.375 200.901 503.073 200.931 502.782 200.873C502.49 200.815 502.223 200.672 502.013 200.462C501.803 200.252 501.66 199.985 501.602 199.693C501.544 199.402 501.574 199.1 501.687 198.826C501.801 198.552 501.993 198.317 502.24 198.152C502.487 197.987 502.777 197.899 503.074 197.899C503.469 197.905 503.845 198.065 504.122 198.346C504.4 198.627 504.555 199.006 504.555 199.401H504.576ZM489.49 177.622H498.774L498.3 184.373H489.959L489.49 177.622ZM488.755 184.373H480.452L479.013 177.622H488.286L488.755 184.373ZM498.873 176.236H489.391L488.917 169.485H499.342L498.873 176.236ZM500.578 169.485H511.003L509.548 176.236H500.093L500.578 169.485ZM498.19 185.759L497.705 192.51H490.559L490.074 185.759H498.19ZM499.41 185.759H507.516L506.061 192.51H498.925L499.41 185.759ZM507.813 184.373H499.509L499.994 177.622H509.246L507.839 184.237L507.813 184.373ZM487.687 169.485L488.171 176.236H478.7L477.246 169.485H487.687ZM480.749 185.759H488.854L489.339 192.51H482.203L480.749 185.759Z" fill="white"/>
</svg>
