<svg width="690" height="350" viewBox="0 0 690 350" fill="none" xmlns="http://www.w3.org/2000/svg">
<g clip-path="url(#clip0_3141_222)">
<path d="M433.922 39.1304C420.817 35.0754 408.869 28.045 398.747 18.7852C384.85 6.08397 359.129 -9.70905 320.738 -3.67306C259.306 5.99075 235.838 40.4977 223.416 92.2658C210.994 144.034 139.899 206.15 168.89 260.675C197.882 315.201 253.099 347.642 341.44 335.22C429.79 322.799 442.211 289.667 456.707 239.973C471.203 190.279 524.346 165.428 527.111 112.285C529.092 74.0569 468.251 49.7575 433.922 39.1304Z" fill="#FF4155" fill-opacity="0.36"/>
<path opacity="0.7" d="M433.922 39.1304C420.817 35.0754 408.869 28.045 398.747 18.7852C384.85 6.08397 359.129 -9.70905 320.738 -3.67306C259.306 5.99075 235.838 40.4977 223.416 92.2658C210.994 144.034 139.899 206.15 168.89 260.675C197.882 315.201 253.099 347.642 341.44 335.22C429.79 322.799 442.211 289.667 456.707 239.973C471.203 190.279 524.346 165.428 527.111 112.285C529.092 74.0569 468.251 49.7575 433.922 39.1304Z" fill="white"/>
<g opacity="0.3">
<path opacity="0.3" d="M502.811 20.1406H435.227V111.807H502.811V20.1406Z" stroke="black" stroke-miterlimit="10" stroke-linejoin="round"/>
<path opacity="0.3" d="M498.802 25.5781H439.234V106.369H498.802V25.5781Z" stroke="black" stroke-miterlimit="10" stroke-linejoin="round"/>
<path opacity="0.3" d="M484.48 45H453.555V86.949H484.48V45Z" stroke="black" stroke-miterlimit="10" stroke-linejoin="round"/>
</g>
<g opacity="0.3">
<path opacity="0.3" d="M429.228 270.269V227.605V198.731C429.228 193.044 424.629 188.445 418.942 188.445H325.761H324.969V270.261V270.976" stroke="black" stroke-miterlimit="10" stroke-linejoin="round"/>
<path opacity="0.3" d="M325.764 188.453H324.972H230.028C224.357 188.453 219.75 193.052 219.75 198.738V229.229V270.277" stroke="black" stroke-miterlimit="10" stroke-linejoin="round"/>
<path opacity="0.3" d="M438.511 277.102V301.16H325.008V270.266H431.675C435.45 270.266 438.511 273.326 438.511 277.102Z" stroke="black" stroke-miterlimit="10" stroke-linejoin="round"/>
<path opacity="0.3" d="M325.875 270.266H325.759H325.013H324.966H221.663H219.752H217.305C213.529 270.266 210.469 273.326 210.469 277.102V301.16H325.013H325.883" stroke="black" stroke-miterlimit="10" stroke-linejoin="round"/>
<path opacity="0.3" d="M438.702 301.164H210.469V339.92H438.702V301.164Z" stroke="black" stroke-miterlimit="10" stroke-linejoin="round"/>
<path opacity="0.3" d="M219.754 229.23C218.496 227.925 216.725 227.109 214.775 227.109H184.844C181.037 227.109 177.945 230.186 177.945 234V333.046C177.945 336.845 181.029 339.937 184.844 339.937H210.471H214.783" stroke="black" stroke-miterlimit="10" stroke-linejoin="round"/>
<path opacity="0.3" d="M431.813 339.929H438.704H461.753C465.551 339.929 468.643 336.845 468.643 333.038V233.992C468.643 230.186 465.559 227.102 461.753 227.102H431.813C430.897 227.102 430.027 227.28 429.227 227.606" stroke="black" stroke-miterlimit="10" stroke-linejoin="round"/>
</g>
<path d="M429.212 17.75H387.985L387.946 17.8976C386.727 22.2945 383.915 25.1455 380.807 25.1455H379.021C375.913 25.1455 373.101 22.2945 371.882 17.8976L371.843 17.75H330.616C319.135 17.75 309.828 27.0565 309.828 38.5381V286.402C309.828 297.884 319.135 307.19 330.616 307.19H429.22C440.701 307.19 450.008 297.884 450.008 286.402V38.5381C450.008 27.0565 440.693 17.75 429.212 17.75Z" fill="#070638"/>
<path opacity="0.3" d="M429.212 17.75H387.985L387.946 17.8976C386.727 22.2945 383.915 25.1455 380.807 25.1455H379.021C375.913 25.1455 373.101 22.2945 371.882 17.8976L371.843 17.75H330.616C319.135 17.75 309.828 27.0565 309.828 38.5381V286.402C309.828 297.884 319.135 307.19 330.616 307.19H429.22C440.701 307.19 450.008 297.884 450.008 286.402V38.5381C450.008 27.0565 440.693 17.75 429.212 17.75Z" fill="#E3E7FC"/>
<path d="M309.82 37.3906V286.404C309.82 297.886 319.127 307.193 330.608 307.193H429.212C440.693 307.193 450 297.886 450 286.404V37.3906H309.82Z" fill="#E3E7FC"/>
<path d="M318.789 78.8327V71.212H317.383V70.0234H321.78V71.212H320.397V78.8327H318.789Z" fill="#070638"/>
<path d="M322.586 78.8327V70.0234H324.699C325.297 70.0234 325.794 70.0933 326.206 70.2332C326.618 70.373 326.928 70.6138 327.138 70.9556C327.356 71.2974 327.457 71.7635 327.457 72.3462C327.457 72.7035 327.426 73.022 327.356 73.3017C327.294 73.5813 327.177 73.8221 327.022 74.0241C326.866 74.2261 326.649 74.3815 326.377 74.4902L327.604 78.8327H325.996L324.932 74.801H324.194V78.8327H322.586ZM324.194 73.7833H324.691C325.002 73.7833 325.25 73.7367 325.437 73.6512C325.623 73.558 325.755 73.4182 325.833 73.2162C325.911 73.0142 325.95 72.7579 325.95 72.4472C325.95 72.0044 325.872 71.6703 325.709 71.4528C325.546 71.2353 325.235 71.1188 324.777 71.1188H324.186V73.7833H324.194Z" fill="#070638"/>
<path d="M328.242 78.8327L330.006 70.0234H331.722L333.486 78.8327H331.994L331.645 76.7974H330.114L329.757 78.8327H328.242ZM330.277 75.772H331.474L330.876 72.0743L330.277 75.772Z" fill="#070638"/>
<path d="M334.32 78.8327V70.0234H335.439L337.583 75.0495V70.0234H338.911V78.8327H337.847L335.695 73.5658V78.8327H334.32Z" fill="#070638"/>
<path d="M342.471 78.9487C341.942 78.9487 341.499 78.8477 341.142 78.6379C340.785 78.4282 340.521 78.1252 340.334 77.729C340.156 77.3329 340.055 76.8435 340.031 76.2608L341.414 75.9889C341.43 76.3307 341.468 76.6337 341.538 76.8901C341.608 77.1542 341.709 77.3562 341.857 77.496C341.997 77.6358 342.183 77.7057 342.416 77.7057C342.68 77.7057 342.859 77.6281 342.968 77.4727C343.076 77.3173 343.131 77.1154 343.131 76.8823C343.131 76.5017 343.045 76.1832 342.867 75.9346C342.696 75.686 342.463 75.4452 342.168 75.1966L341.057 74.2178C340.746 73.9459 340.497 73.6507 340.311 73.3244C340.124 72.9981 340.031 72.5864 340.031 72.097C340.031 71.3979 340.233 70.8618 340.637 70.489C341.041 70.1083 341.6 69.9219 342.3 69.9219C342.711 69.9219 343.061 69.984 343.333 70.1083C343.605 70.2326 343.83 70.4113 343.993 70.6366C344.156 70.8618 344.281 71.1182 344.358 71.4056C344.436 71.6931 344.49 71.996 344.514 72.3145L343.146 72.5553C343.131 72.2834 343.1 72.0349 343.053 71.8173C343.007 71.5998 342.921 71.4289 342.805 71.3046C342.688 71.1803 342.509 71.1182 342.276 71.1182C342.035 71.1182 341.857 71.1959 341.725 71.3512C341.6 71.5066 341.531 71.7008 341.531 71.9339C341.531 72.2291 341.593 72.4777 341.717 72.6641C341.841 72.8583 342.02 73.0525 342.253 73.2545L343.348 74.2255C343.713 74.5285 344.024 74.8858 344.281 75.2976C344.537 75.7093 344.669 76.1987 344.669 76.7813C344.669 77.2008 344.576 77.5737 344.389 77.9C344.203 78.2262 343.946 78.4826 343.62 78.669C343.302 78.8555 342.913 78.9487 342.471 78.9487Z" fill="#070638"/>
<path d="M345.539 78.8327V70.0234H347.147V77.7218H349.276V78.8327H345.539Z" fill="#070638"/>
<path d="M349.672 78.8327L351.435 70.0234H353.152L354.915 78.8327H353.424L353.074 76.7974H351.544L351.187 78.8327H349.672ZM351.707 75.772H352.903L352.305 72.0743L351.707 75.772Z" fill="#070638"/>
<path d="M356.258 78.8327V71.212H354.852V70.0234H359.248V71.212H357.866V78.8327H356.258Z" fill="#070638"/>
<path d="M362.4 78.9487C361.778 78.9487 361.281 78.8322 360.908 78.5991C360.535 78.3661 360.271 78.032 360.116 77.597C359.953 77.162 359.875 76.6493 359.875 76.0511V72.7573C359.875 72.1592 359.953 71.6542 360.116 71.227C360.279 70.7997 360.543 70.4812 360.908 70.2559C361.281 70.0306 361.778 69.9219 362.4 69.9219C363.037 69.9219 363.542 70.0306 363.907 70.2559C364.272 70.4812 364.536 70.8075 364.699 71.227C364.862 71.6542 364.94 72.1592 364.94 72.7573V76.0666C364.94 76.657 364.862 77.162 364.699 77.597C364.536 78.032 364.272 78.3583 363.907 78.5991C363.542 78.8322 363.037 78.9487 362.4 78.9487ZM362.4 77.7601C362.664 77.7601 362.866 77.7057 362.99 77.5892C363.114 77.4727 363.2 77.3173 363.246 77.1076C363.293 76.9056 363.309 76.6803 363.309 76.4473V72.3922C363.309 72.1436 363.285 71.9261 363.246 71.7319C363.2 71.5377 363.114 71.3823 362.99 71.2736C362.866 71.157 362.664 71.1027 362.4 71.1027C362.143 71.1027 361.957 71.157 361.825 71.2736C361.693 71.3823 361.607 71.5377 361.561 71.7319C361.514 71.9261 361.499 72.1514 361.499 72.3922V76.4473C361.499 76.6881 361.522 76.9056 361.561 77.1076C361.6 77.3096 361.685 77.4727 361.817 77.5892C361.941 77.7057 362.143 77.7601 362.4 77.7601Z" fill="#070638"/>
<path d="M366.133 78.8327V70.0234H368.246C368.836 70.0234 369.341 70.0933 369.753 70.2332C370.165 70.373 370.475 70.6138 370.685 70.9556C370.903 71.2974 371.004 71.7635 371.004 72.3462C371.004 72.7035 370.972 73.022 370.903 73.3017C370.84 73.5813 370.724 73.8221 370.569 74.0241C370.413 74.2261 370.196 74.3815 369.924 74.4902L371.151 78.8327H369.543L368.479 74.801H367.741V78.8327H366.133ZM367.741 73.7833H368.238C368.549 73.7833 368.797 73.7367 368.984 73.6512C369.17 73.558 369.302 73.4182 369.38 73.2162C369.458 73.0142 369.497 72.7579 369.497 72.4472C369.497 72.0044 369.411 71.6703 369.248 71.4528C369.085 71.2353 368.774 71.1188 368.316 71.1188H367.725V73.7833H367.741Z" fill="#070638"/>
<path d="M439.576 228.867H319.765C317.45 228.867 315.57 226.987 315.57 224.672V168.359C315.57 166.044 317.45 164.164 319.765 164.164H439.584C441.899 164.164 443.779 166.044 443.779 168.359V224.672C443.771 226.987 441.899 228.867 439.576 228.867Z" fill="#E3E7FC" stroke="black" stroke-miterlimit="10" stroke-linecap="round" stroke-linejoin="round"/>
<path d="M443.771 182.257H315.57V168.359C315.57 166.044 317.45 164.164 319.765 164.164H439.584C441.899 164.164 443.779 166.044 443.779 168.359V182.257H443.771Z" fill="#49DAFC"/>
<path d="M321.378 177.574C320.896 177.574 320.5 177.473 320.19 177.271C319.871 177.069 319.638 176.789 319.475 176.432C319.312 176.075 319.219 175.655 319.18 175.173L319.91 174.956C319.949 175.321 320.011 175.647 320.104 175.942C320.197 176.238 320.345 176.471 320.547 176.642C320.749 176.813 321.029 176.898 321.386 176.898C321.774 176.898 322.085 176.797 322.303 176.595C322.52 176.393 322.629 176.067 322.629 175.624C322.629 175.243 322.536 174.902 322.341 174.622C322.147 174.334 321.883 174.039 321.549 173.728L319.995 172.237C319.723 171.965 319.514 171.693 319.389 171.406C319.257 171.118 319.195 170.808 319.195 170.466C319.195 169.86 319.374 169.386 319.739 169.06C320.104 168.733 320.586 168.57 321.184 168.57C321.495 168.57 321.774 168.609 322.023 168.687C322.271 168.765 322.489 168.897 322.668 169.075C322.846 169.254 322.986 169.479 323.087 169.767C323.188 170.046 323.258 170.396 323.297 170.8L322.59 170.986C322.559 170.613 322.505 170.303 322.411 170.039C322.318 169.774 322.178 169.572 321.984 169.433C321.79 169.293 321.526 169.223 321.184 169.223C320.819 169.223 320.524 169.316 320.291 169.503C320.058 169.689 319.941 169.984 319.941 170.38C319.941 170.621 319.988 170.839 320.073 171.033C320.166 171.227 320.322 171.437 320.555 171.662L322.108 173.13C322.458 173.457 322.753 173.822 323.009 174.218C323.266 174.614 323.39 175.065 323.39 175.57C323.39 176.012 323.305 176.385 323.134 176.68C322.963 176.976 322.73 177.201 322.419 177.349C322.124 177.496 321.774 177.574 321.378 177.574Z" fill="#070638"/>
<path d="M324.508 177.466V168.656H326.621C327.149 168.656 327.569 168.757 327.864 168.951C328.167 169.146 328.384 169.418 328.509 169.767C328.641 170.117 328.703 170.528 328.703 170.995C328.703 171.406 328.633 171.787 328.501 172.144C328.369 172.494 328.143 172.773 327.84 172.983C327.53 173.193 327.126 173.302 326.629 173.302H325.331V177.466H324.508ZM325.331 172.68H326.388C326.745 172.68 327.033 172.626 327.25 172.525C327.468 172.416 327.631 172.245 327.732 171.997C327.833 171.748 327.887 171.414 327.887 170.995C327.887 170.544 327.84 170.194 327.755 169.946C327.67 169.697 327.514 169.519 327.304 169.425C327.087 169.324 326.792 169.278 326.396 169.278H325.331V172.68Z" fill="#070638"/>
<path d="M328.836 177.466L330.693 168.656H331.563L333.435 177.466H332.619L332.184 175.104H330.087L329.644 177.466H328.836ZM330.203 174.506H332.075L331.128 169.752L330.203 174.506Z" fill="#070638"/>
<path d="M334.5 177.466V168.656H335.098L337.903 175.5V168.656H338.617V177.466H338.027L335.199 170.552V177.466H334.5Z" fill="#070638"/>
<path d="M340.18 177.466V168.656H341.003V177.466H340.18Z" fill="#070638"/>
<path d="M344.441 177.574C343.959 177.574 343.563 177.473 343.252 177.271C342.934 177.069 342.701 176.789 342.537 176.432C342.374 176.075 342.281 175.655 342.242 175.173L342.972 174.956C343.011 175.321 343.073 175.647 343.167 175.942C343.26 176.238 343.407 176.471 343.609 176.642C343.811 176.813 344.091 176.898 344.448 176.898C344.837 176.898 345.148 176.797 345.365 176.595C345.583 176.393 345.691 176.067 345.691 175.624C345.691 175.243 345.598 174.902 345.404 174.622C345.21 174.334 344.953 174.039 344.619 173.728L343.066 172.237C342.794 171.965 342.584 171.693 342.46 171.406C342.328 171.118 342.265 170.808 342.265 170.466C342.265 169.86 342.444 169.386 342.809 169.06C343.174 168.733 343.656 168.57 344.254 168.57C344.565 168.57 344.845 168.609 345.101 168.687C345.35 168.765 345.567 168.897 345.746 169.075C345.924 169.254 346.064 169.479 346.165 169.767C346.266 170.046 346.336 170.396 346.375 170.8L345.668 170.986C345.637 170.613 345.583 170.303 345.489 170.039C345.396 169.774 345.256 169.572 345.062 169.433C344.868 169.293 344.604 169.223 344.262 169.223C343.897 169.223 343.602 169.316 343.369 169.503C343.136 169.689 343.019 169.984 343.019 170.38C343.019 170.621 343.066 170.839 343.151 171.033C343.244 171.227 343.4 171.437 343.633 171.662L345.186 173.13C345.536 173.457 345.839 173.822 346.088 174.218C346.344 174.614 346.468 175.065 346.468 175.57C346.468 176.012 346.383 176.385 346.212 176.68C346.041 176.976 345.808 177.201 345.497 177.349C345.194 177.496 344.837 177.574 344.441 177.574Z" fill="#070638"/>
<path d="M347.562 177.466V168.656H348.401V172.564H351.175V168.656H351.998V177.466H351.175V173.177H348.401V177.466H347.562Z" fill="#070638"/>
<path d="M422.563 170.68H417.164V178.137H422.563V170.68Z" fill="#E3E7FC"/>
<path d="M424.586 172.008H419.188V179.465H424.586V172.008Z" fill="#E3E7FC"/>
<path d="M439.576 159.077H319.765C317.45 159.077 315.57 157.197 315.57 154.883V98.5699C315.57 96.2549 317.45 94.375 319.765 94.375H439.584C441.899 94.375 443.779 96.2549 443.779 98.5699V154.883C443.771 157.197 441.899 159.077 439.576 159.077Z" fill="#E3E7FC" stroke="black" stroke-miterlimit="10" stroke-linecap="round" stroke-linejoin="round"/>
<path d="M443.771 112.475H315.57V98.5777C315.57 96.2627 317.45 94.3828 319.765 94.3828H439.584C441.899 94.3828 443.779 96.2627 443.779 98.5777V112.475H443.771Z" fill="#49DAFC" stroke="black" stroke-miterlimit="10" stroke-linecap="round" stroke-linejoin="round"/>
<mask id="path-39-inside-1_3141_222" fill="white">
<path d="M319.492 107.676V98.8672H322.677V99.512H320.331V102.821H322.242V103.427H320.331V107.063H322.701V107.684H319.492V107.676Z"/>
</mask>
<path d="M319.492 107.676V98.8672H322.677V99.512H320.331V102.821H322.242V103.427H320.331V107.063H322.701V107.684H319.492V107.676Z" fill="#070638"/>
<path d="M319.492 98.8672V97.8672H318.492V98.8672H319.492ZM322.677 98.8672H323.677V97.8672H322.677V98.8672ZM322.677 99.512V100.512H323.677V99.512H322.677ZM320.331 99.512V98.512H319.331V99.512H320.331ZM320.331 102.821H319.331V103.821H320.331V102.821ZM322.242 102.821H323.242V101.821H322.242V102.821ZM322.242 103.427V104.427H323.242V103.427H322.242ZM320.331 103.427V102.427H319.331V103.427H320.331ZM320.331 107.063H319.331V108.063H320.331V107.063ZM322.701 107.063H323.701V106.063H322.701V107.063ZM322.701 107.684V108.684H323.701V107.684H322.701ZM319.492 107.684H318.492V108.684H319.492V107.684ZM320.492 107.676V98.8672H318.492V107.676H320.492ZM319.492 99.8672H322.677V97.8672H319.492V99.8672ZM321.677 98.8672V99.512H323.677V98.8672H321.677ZM322.677 98.512H320.331V100.512H322.677V98.512ZM319.331 99.512V102.821H321.331V99.512H319.331ZM320.331 103.821H322.242V101.821H320.331V103.821ZM321.242 102.821V103.427H323.242V102.821H321.242ZM322.242 102.427H320.331V104.427H322.242V102.427ZM319.331 103.427V107.063H321.331V103.427H319.331ZM320.331 108.063H322.701V106.063H320.331V108.063ZM321.701 107.063V107.684H323.701V107.063H321.701ZM322.701 106.684H319.492V108.684H322.701V106.684ZM320.492 107.684V107.676H318.492V107.684H320.492Z" fill="black" mask="url(#path-39-inside-1_3141_222)"/>
<path d="M324.336 99.9463L324.623 100.647L324.336 100.704V99.9463ZM327.147 105.828L327.453 105.767V106.577L327.147 105.828Z" fill="#070638" stroke="black"/>
<mask id="path-42-inside-2_3141_222" fill="white">
<path d="M331.472 107.792C330.921 107.792 330.486 107.676 330.175 107.443C329.856 107.21 329.639 106.884 329.507 106.456C329.375 106.029 329.312 105.54 329.312 104.98V101.547C329.312 100.98 329.375 100.49 329.507 100.079C329.631 99.6668 329.856 99.3483 330.183 99.1152C330.509 98.89 330.959 98.7734 331.55 98.7734C332.078 98.7734 332.498 98.8744 332.808 99.0686C333.119 99.2628 333.336 99.5503 333.476 99.9309C333.616 100.312 333.686 100.77 333.686 101.314V101.617H332.901V101.314C332.901 100.894 332.863 100.545 332.785 100.273C332.707 100.001 332.575 99.7911 332.389 99.6513C332.202 99.5114 331.923 99.4415 331.55 99.4415C331.154 99.4415 330.851 99.527 330.649 99.7056C330.447 99.8765 330.315 100.117 330.252 100.42C330.19 100.723 330.159 101.073 330.159 101.461V105.081C330.159 105.509 330.198 105.874 330.276 106.177C330.353 106.48 330.493 106.713 330.703 106.876C330.913 107.039 331.2 107.117 331.581 107.117C331.946 107.117 332.226 107.031 332.42 106.868C332.622 106.705 332.762 106.472 332.839 106.169C332.917 105.866 332.956 105.493 332.956 105.058V104.025H331.651V103.403H333.717V107.668H333.181L333.08 106.666C332.971 107.008 332.793 107.28 332.544 107.482C332.28 107.691 331.923 107.792 331.472 107.792Z"/>
</mask>
<path d="M331.472 107.792C330.921 107.792 330.486 107.676 330.175 107.443C329.856 107.21 329.639 106.884 329.507 106.456C329.375 106.029 329.312 105.54 329.312 104.98V101.547C329.312 100.98 329.375 100.49 329.507 100.079C329.631 99.6668 329.856 99.3483 330.183 99.1152C330.509 98.89 330.959 98.7734 331.55 98.7734C332.078 98.7734 332.498 98.8744 332.808 99.0686C333.119 99.2628 333.336 99.5503 333.476 99.9309C333.616 100.312 333.686 100.77 333.686 101.314V101.617H332.901V101.314C332.901 100.894 332.863 100.545 332.785 100.273C332.707 100.001 332.575 99.7911 332.389 99.6513C332.202 99.5114 331.923 99.4415 331.55 99.4415C331.154 99.4415 330.851 99.527 330.649 99.7056C330.447 99.8765 330.315 100.117 330.252 100.42C330.19 100.723 330.159 101.073 330.159 101.461V105.081C330.159 105.509 330.198 105.874 330.276 106.177C330.353 106.48 330.493 106.713 330.703 106.876C330.913 107.039 331.2 107.117 331.581 107.117C331.946 107.117 332.226 107.031 332.42 106.868C332.622 106.705 332.762 106.472 332.839 106.169C332.917 105.866 332.956 105.493 332.956 105.058V104.025H331.651V103.403H333.717V107.668H333.181L333.08 106.666C332.971 107.008 332.793 107.28 332.544 107.482C332.28 107.691 331.923 107.792 331.472 107.792Z" fill="#070638"/>
<path d="M330.175 107.443L330.775 106.643L330.765 106.636L330.175 107.443ZM329.507 100.079L330.459 100.384L330.462 100.376L330.464 100.368L329.507 100.079ZM330.183 99.1152L329.614 98.2923L329.608 98.2969L329.601 98.3015L330.183 99.1152ZM333.686 101.617V102.617H334.686V101.617H333.686ZM332.901 101.617H331.901V102.617H332.901V101.617ZM330.649 99.7056L331.295 100.469L331.303 100.462L331.311 100.455L330.649 99.7056ZM332.42 106.868L331.791 106.09L331.784 106.096L331.777 106.102L332.42 106.868ZM332.956 104.025H333.956V103.025H332.956V104.025ZM331.651 104.025H330.651V105.025H331.651V104.025ZM331.651 103.403V102.403H330.651V103.403H331.651ZM333.717 103.403H334.717V102.403H333.717V103.403ZM333.717 107.668V108.668H334.717V107.668H333.717ZM333.181 107.668L332.186 107.768L332.277 108.668H333.181V107.668ZM333.08 106.666L334.075 106.566L332.127 106.363L333.08 106.666ZM332.544 107.482L333.166 108.265L333.175 108.258L332.544 107.482ZM331.472 106.792C331.047 106.792 330.852 106.701 330.775 106.643L329.575 108.243C330.119 108.651 330.794 108.792 331.472 108.792V106.792ZM330.765 106.636C330.649 106.55 330.542 106.419 330.462 106.161L328.551 106.752C328.736 107.348 329.064 107.869 329.584 108.25L330.765 106.636ZM330.462 106.161C330.367 105.854 330.312 105.469 330.312 104.98H328.312C328.312 105.611 328.382 106.204 328.551 106.752L330.462 106.161ZM330.312 104.98V101.547H328.312V104.98H330.312ZM330.312 101.547C330.312 101.047 330.368 100.667 330.459 100.384L328.554 99.7731C328.381 100.313 328.312 100.912 328.312 101.547H330.312ZM330.464 100.368C330.528 100.155 330.628 100.026 330.764 99.929L329.601 98.3015C329.085 98.6704 328.734 99.1786 328.549 99.7895L330.464 100.368ZM330.751 99.9381C330.852 99.8681 331.079 99.7734 331.55 99.7734V97.7734C330.84 97.7734 330.165 97.9119 329.614 98.2923L330.751 99.9381ZM331.55 99.7734C331.962 99.7734 332.178 99.8537 332.278 99.9166L333.338 98.2206C332.817 97.8951 332.194 97.7734 331.55 97.7734V99.7734ZM332.278 99.9166C332.371 99.9746 332.461 100.068 332.538 100.276L334.415 99.5861C334.212 99.0324 333.867 98.5511 333.338 98.2206L332.278 99.9166ZM332.538 100.276C332.626 100.516 332.686 100.851 332.686 101.314H334.686C334.686 100.689 334.606 100.107 334.415 99.5861L332.538 100.276ZM332.686 101.314V101.617H334.686V101.314H332.686ZM333.686 100.617H332.901V102.617H333.686V100.617ZM333.901 101.617V101.314H331.901V101.617H333.901ZM333.901 101.314C333.901 100.843 333.859 100.392 333.746 99.998L331.823 100.547C331.866 100.697 331.901 100.946 331.901 101.314H333.901ZM333.746 99.998C333.624 99.5685 333.389 99.1513 332.989 98.8513L331.789 100.451C331.779 100.444 331.778 100.439 331.784 100.449C331.791 100.46 331.807 100.489 331.823 100.547L333.746 99.998ZM332.989 98.8513C332.553 98.5244 332.019 98.4415 331.55 98.4415V100.442C331.677 100.442 331.755 100.454 331.797 100.464C331.837 100.474 331.824 100.478 331.789 100.451L332.989 98.8513ZM331.55 98.4415C331.035 98.4415 330.447 98.549 329.986 98.9566L331.311 100.455C331.283 100.48 331.27 100.477 331.305 100.467C331.343 100.456 331.42 100.442 331.55 100.442V98.4415ZM330.003 98.9422C329.598 99.2844 329.371 99.7407 329.273 100.219L331.232 100.621C331.246 100.555 331.263 100.517 331.273 100.497C331.283 100.479 331.29 100.473 331.295 100.469L330.003 98.9422ZM329.273 100.219C329.194 100.603 329.159 101.022 329.159 101.461H331.159C331.159 101.123 331.187 100.843 331.232 100.621L329.273 100.219ZM329.159 101.461V105.081H331.159V101.461H329.159ZM329.159 105.081C329.159 105.564 329.203 106.017 329.307 106.425L331.244 105.928C331.194 105.73 331.159 105.453 331.159 105.081H329.159ZM329.307 106.425C329.427 106.894 329.669 107.338 330.089 107.665L331.317 106.086C331.312 106.083 331.305 106.076 331.294 106.059C331.282 106.04 331.263 106 331.244 105.928L329.307 106.425ZM330.089 107.665C330.539 108.015 331.076 108.117 331.581 108.117V106.117C331.325 106.117 331.287 106.063 331.317 106.086L330.089 107.665ZM331.581 108.117C332.091 108.117 332.63 107.998 333.063 107.634L331.777 106.102C331.822 106.065 331.801 106.117 331.581 106.117V108.117ZM333.048 107.646C333.45 107.322 333.688 106.885 333.808 106.417L331.871 105.921C331.835 106.059 331.794 106.088 331.791 106.09L333.048 107.646ZM333.808 106.417C333.913 106.008 333.956 105.546 333.956 105.058H331.956C331.956 105.44 331.921 105.724 331.871 105.921L333.808 106.417ZM333.956 105.058V104.025H331.956V105.058H333.956ZM332.956 103.025H331.651V105.025H332.956V103.025ZM332.651 104.025V103.403H330.651V104.025H332.651ZM331.651 104.403H333.717V102.403H331.651V104.403ZM332.717 103.403V107.668H334.717V103.403H332.717ZM333.717 106.668H333.181V108.668H333.717V106.668ZM334.176 107.568L334.075 106.566L332.085 106.766L332.186 107.768L334.176 107.568ZM332.127 106.363C332.07 106.542 331.993 106.641 331.914 106.706L333.175 108.258C333.592 107.919 333.873 107.474 334.033 106.969L332.127 106.363ZM331.922 106.699C331.891 106.723 331.781 106.792 331.472 106.792V108.792C332.065 108.792 332.669 108.66 333.166 108.265L331.922 106.699Z" fill="black" mask="url(#path-42-inside-2_3141_222)"/>
<mask id="path-44-inside-3_3141_222" fill="white">
<path d="M335.141 107.676V98.8672H335.964V107.055H338.465V107.676H335.141Z"/>
</mask>
<path d="M335.141 107.676V98.8672H335.964V107.055H338.465V107.676H335.141Z" fill="#070638"/>
<path d="M335.141 107.676H334.141V108.676H335.141V107.676ZM335.141 98.8672V97.8672H334.141V98.8672H335.141ZM335.964 98.8672H336.964V97.8672H335.964V98.8672ZM335.964 107.055H334.964V108.055H335.964V107.055ZM338.465 107.055H339.465V106.055H338.465V107.055ZM338.465 107.676V108.676H339.465V107.676H338.465ZM336.141 107.676V98.8672H334.141V107.676H336.141ZM335.141 99.8672H335.964V97.8672H335.141V99.8672ZM334.964 98.8672V107.055H336.964V98.8672H334.964ZM335.964 108.055H338.465V106.055H335.964V108.055ZM337.465 107.055V107.676H339.465V107.055H337.465ZM338.465 106.676H335.141V108.676H338.465V106.676Z" fill="black" mask="url(#path-44-inside-3_3141_222)"/>
<mask id="path-46-inside-4_3141_222" fill="white">
<path d="M339.312 107.676V98.8672H340.136V107.676H339.312Z"/>
</mask>
<path d="M339.312 107.676V98.8672H340.136V107.676H339.312Z" fill="#070638"/>
<path d="M339.312 107.676H338.312V108.676H339.312V107.676ZM339.312 98.8672V97.8672H338.312V98.8672H339.312ZM340.136 98.8672H341.136V97.8672H340.136V98.8672ZM340.136 107.676V108.676H341.136V107.676H340.136ZM340.312 107.676V98.8672H338.312V107.676H340.312ZM339.312 99.8672H340.136V97.8672H339.312V99.8672ZM339.136 98.8672V107.676H341.136V98.8672H339.136ZM340.136 106.676H339.312V108.676H340.136V106.676Z" fill="black" mask="url(#path-46-inside-4_3141_222)"/>
<mask id="path-48-inside-5_3141_222" fill="white">
<path d="M343.573 107.785C343.092 107.785 342.696 107.684 342.385 107.482C342.066 107.28 341.833 107 341.67 106.643C341.507 106.285 341.414 105.866 341.375 105.384L342.105 105.167C342.144 105.532 342.206 105.858 342.299 106.153C342.393 106.449 342.54 106.682 342.742 106.853C342.944 107.023 343.224 107.109 343.581 107.109C343.97 107.109 344.28 107.008 344.498 106.806C344.715 106.604 344.824 106.278 344.824 105.835C344.824 105.454 344.731 105.112 344.537 104.833C344.342 104.545 344.086 104.25 343.752 103.939L342.198 102.448C341.927 102.176 341.717 101.904 341.593 101.617C341.46 101.329 341.398 101.019 341.398 100.677C341.398 100.071 341.577 99.5969 341.942 99.2707C342.307 98.9444 342.789 98.7812 343.387 98.7812C343.698 98.7812 343.977 98.8201 344.234 98.8978C344.482 98.9755 344.7 99.1075 344.879 99.2862C345.057 99.4649 345.197 99.6902 345.298 99.9776C345.399 100.257 345.469 100.607 345.508 101.011L344.801 101.197C344.77 100.824 344.715 100.514 344.622 100.249C344.529 99.9853 344.389 99.7834 344.195 99.6435C344.001 99.5037 343.737 99.4338 343.395 99.4338C343.03 99.4338 342.734 99.527 342.501 99.7134C342.268 99.8999 342.152 100.195 342.152 100.591C342.152 100.832 342.198 101.05 342.284 101.244C342.377 101.438 342.532 101.648 342.766 101.873L344.319 103.341C344.669 103.668 344.972 104.033 345.22 104.429C345.477 104.825 345.601 105.276 345.601 105.781C345.601 106.223 345.516 106.596 345.345 106.891C345.174 107.187 344.941 107.412 344.63 107.559C344.327 107.715 343.97 107.785 343.573 107.785Z"/>
</mask>
<path d="M343.573 107.785C343.092 107.785 342.696 107.684 342.385 107.482C342.066 107.28 341.833 107 341.67 106.643C341.507 106.285 341.414 105.866 341.375 105.384L342.105 105.167C342.144 105.532 342.206 105.858 342.299 106.153C342.393 106.449 342.54 106.682 342.742 106.853C342.944 107.023 343.224 107.109 343.581 107.109C343.97 107.109 344.28 107.008 344.498 106.806C344.715 106.604 344.824 106.278 344.824 105.835C344.824 105.454 344.731 105.112 344.537 104.833C344.342 104.545 344.086 104.25 343.752 103.939L342.198 102.448C341.927 102.176 341.717 101.904 341.593 101.617C341.46 101.329 341.398 101.019 341.398 100.677C341.398 100.071 341.577 99.5969 341.942 99.2707C342.307 98.9444 342.789 98.7812 343.387 98.7812C343.698 98.7812 343.977 98.8201 344.234 98.8978C344.482 98.9755 344.7 99.1075 344.879 99.2862C345.057 99.4649 345.197 99.6902 345.298 99.9776C345.399 100.257 345.469 100.607 345.508 101.011L344.801 101.197C344.77 100.824 344.715 100.514 344.622 100.249C344.529 99.9853 344.389 99.7834 344.195 99.6435C344.001 99.5037 343.737 99.4338 343.395 99.4338C343.03 99.4338 342.734 99.527 342.501 99.7134C342.268 99.8999 342.152 100.195 342.152 100.591C342.152 100.832 342.198 101.05 342.284 101.244C342.377 101.438 342.532 101.648 342.766 101.873L344.319 103.341C344.669 103.668 344.972 104.033 345.22 104.429C345.477 104.825 345.601 105.276 345.601 105.781C345.601 106.223 345.516 106.596 345.345 106.891C345.174 107.187 344.941 107.412 344.63 107.559C344.327 107.715 343.97 107.785 343.573 107.785Z" fill="#070638"/>
<path d="M342.385 107.482L342.93 106.643L342.92 106.637L342.385 107.482ZM341.375 105.384L341.09 104.426L340.313 104.657L340.378 105.465L341.375 105.384ZM342.105 105.167L343.1 105.061L342.972 103.865L341.82 104.208L342.105 105.167ZM344.537 104.833L343.708 105.393L343.715 105.403L344.537 104.833ZM343.752 103.939L343.06 104.661L343.065 104.666L343.071 104.672L343.752 103.939ZM342.198 102.448L341.491 103.155L341.499 103.162L341.506 103.169L342.198 102.448ZM341.593 101.617L342.51 101.22L342.506 101.209L342.501 101.199L341.593 101.617ZM344.234 98.8978L344.532 97.9433L344.524 97.9408L344.234 98.8978ZM345.298 99.9776L344.355 100.309L344.357 100.317L345.298 99.9776ZM345.508 101.011L345.763 101.978L346.584 101.761L346.503 100.915L345.508 101.011ZM344.801 101.197L343.804 101.28L343.903 102.468L345.056 102.164L344.801 101.197ZM342.284 101.244L341.369 101.647L341.375 101.662L341.382 101.677L342.284 101.244ZM342.766 101.873L342.07 102.592L342.079 102.6L342.766 101.873ZM344.319 103.341L343.632 104.068L343.637 104.072L344.319 103.341ZM345.22 104.429L344.373 104.96L344.381 104.972L345.22 104.429ZM344.63 107.559L344.201 106.656L344.187 106.663L344.174 106.67L344.63 107.559ZM343.573 106.785C343.228 106.785 343.036 106.713 342.93 106.643L341.84 108.32C342.355 108.655 342.955 108.785 343.573 108.785V106.785ZM342.92 106.637C342.782 106.549 342.671 106.427 342.58 106.228L340.76 107.058C340.996 107.574 341.351 108.01 341.849 108.326L342.92 106.637ZM342.58 106.228C342.479 106.006 342.404 105.709 342.372 105.304L340.378 105.465C340.423 106.023 340.535 106.564 340.76 107.058L342.58 106.228ZM341.66 106.343L342.391 106.125L341.82 104.208L341.09 104.426L341.66 106.343ZM341.111 105.273C341.155 105.685 341.228 106.08 341.346 106.455L343.253 105.852C343.185 105.636 343.133 105.378 343.1 105.061L341.111 105.273ZM341.346 106.455C341.486 106.899 341.727 107.304 342.096 107.616L343.388 106.089C343.353 106.06 343.299 105.999 343.253 105.852L341.346 106.455ZM342.096 107.616C342.534 107.986 343.071 108.109 343.581 108.109V106.109C343.48 106.109 343.423 106.097 343.396 106.088C343.372 106.081 343.375 106.078 343.388 106.089L342.096 107.616ZM343.581 108.109C344.136 108.109 344.721 107.963 345.178 107.539L343.817 106.073C343.84 106.052 343.803 106.109 343.581 106.109V108.109ZM345.178 107.539C345.684 107.07 345.824 106.416 345.824 105.835H343.824C343.824 105.979 343.806 106.058 343.794 106.093C343.785 106.122 343.785 106.103 343.817 106.073L345.178 107.539ZM345.824 105.835C345.824 105.29 345.69 104.74 345.358 104.262L343.715 105.403C343.772 105.485 343.824 105.618 343.824 105.835H345.824ZM345.365 104.273C345.12 103.911 344.811 103.559 344.433 103.207L343.071 104.672C343.361 104.942 343.565 105.18 343.708 105.393L345.365 104.273ZM344.445 103.218L342.891 101.727L341.506 103.169L343.06 104.661L344.445 103.218ZM342.906 101.741C342.681 101.516 342.565 101.347 342.51 101.22L340.675 102.014C340.868 102.461 341.173 102.836 341.491 103.155L342.906 101.741ZM342.501 101.199C342.437 101.059 342.398 100.893 342.398 100.677H340.398C340.398 101.144 340.484 101.6 340.684 102.034L342.501 101.199ZM342.398 100.677C342.398 100.272 342.511 100.104 342.608 100.016L341.276 98.525C340.643 99.0902 340.398 99.8695 340.398 100.677H342.398ZM342.608 100.016C342.752 99.8882 342.978 99.7812 343.387 99.7812V97.7812C342.6 97.7812 341.863 98.0006 341.276 98.525L342.608 100.016ZM343.387 99.7812C343.613 99.7812 343.794 99.8094 343.944 99.8548L344.524 97.9408C344.161 97.8308 343.782 97.7812 343.387 97.7812V99.7812ZM343.935 99.8523C344.031 99.8822 344.108 99.93 344.171 99.9933L345.586 98.5791C345.292 98.2851 344.933 98.0688 344.532 97.9433L343.935 99.8523ZM344.171 99.9933C344.231 100.053 344.297 100.145 344.355 100.309L346.241 99.6461C346.097 99.2356 345.883 98.8766 345.586 98.5791L344.171 99.9933ZM344.357 100.317C344.421 100.493 344.478 100.754 344.512 101.106L346.503 100.915C346.459 100.459 346.377 100.021 346.239 99.6379L344.357 100.317ZM345.253 100.044L344.546 100.23L345.056 102.164L345.763 101.978L345.253 100.044ZM345.797 101.114C345.763 100.698 345.698 100.293 345.565 99.9166L343.679 100.582C343.733 100.734 343.777 100.951 343.804 101.28L345.797 101.114ZM345.565 99.9166C345.419 99.503 345.172 99.1151 344.779 98.832L343.611 100.455C343.613 100.456 343.618 100.46 343.628 100.474C343.639 100.49 343.658 100.522 343.679 100.582L345.565 99.9166ZM344.779 98.832C344.358 98.5284 343.863 98.4338 343.395 98.4338V100.434C343.61 100.434 343.644 100.479 343.611 100.455L344.779 98.832ZM343.395 98.4338C342.852 98.4338 342.322 98.5762 341.877 98.9326L343.126 100.494C343.147 100.478 343.207 100.434 343.395 100.434V98.4338ZM341.877 98.9326C341.332 99.3686 341.152 100.002 341.152 100.591H343.152C343.152 100.488 343.167 100.446 343.169 100.443C343.169 100.442 343.166 100.45 343.157 100.462C343.148 100.474 343.138 100.485 343.126 100.494L341.877 98.9326ZM341.152 100.591C341.152 100.964 341.225 101.32 341.369 101.647L343.199 100.841C343.172 100.78 343.152 100.7 343.152 100.591H341.152ZM341.382 101.677C341.54 102.005 341.778 102.309 342.071 102.592L343.461 101.154C343.287 100.987 343.214 100.871 343.185 100.811L341.382 101.677ZM342.079 102.6L343.632 104.068L345.006 102.614L343.452 101.146L342.079 102.6ZM343.637 104.072C343.925 104.341 344.172 104.64 344.373 104.96L346.067 103.897C345.771 103.426 345.412 102.994 345.002 102.61L343.637 104.072ZM344.381 104.972C344.522 105.19 344.601 105.448 344.601 105.781H346.601C346.601 105.103 346.431 104.46 346.06 103.886L344.381 104.972ZM344.601 105.781C344.601 106.1 344.539 106.288 344.479 106.39L346.21 107.392C346.492 106.905 346.601 106.346 346.601 105.781H344.601ZM344.479 106.39C344.402 106.524 344.315 106.602 344.201 106.656L345.059 108.463C345.566 108.222 345.946 107.849 346.21 107.392L344.479 106.39ZM344.174 106.67C344.047 106.734 343.856 106.785 343.573 106.785V108.785C344.083 108.785 344.607 108.695 345.086 108.449L344.174 106.67Z" fill="black" mask="url(#path-48-inside-5_3141_222)"/>
<mask id="path-50-inside-6_3141_222" fill="white">
<path d="M346.695 107.676V98.8672H347.534V102.775H350.308V98.8672H351.131V107.676H350.308V103.388H347.534V107.676H346.695Z"/>
</mask>
<path d="M346.695 107.676V98.8672H347.534V102.775H350.308V98.8672H351.131V107.676H350.308V103.388H347.534V107.676H346.695Z" fill="#070638"/>
<path d="M346.695 107.676H345.695V108.676H346.695V107.676ZM346.695 98.8672V97.8672H345.695V98.8672H346.695ZM347.534 98.8672H348.534V97.8672H347.534V98.8672ZM347.534 102.775H346.534V103.775H347.534V102.775ZM350.308 102.775V103.775H351.308V102.775H350.308ZM350.308 98.8672V97.8672H349.308V98.8672H350.308ZM351.131 98.8672H352.131V97.8672H351.131V98.8672ZM351.131 107.676V108.676H352.131V107.676H351.131ZM350.308 107.676H349.308V108.676H350.308V107.676ZM350.308 103.388H351.308V102.388H350.308V103.388ZM347.534 103.388V102.388H346.534V103.388H347.534ZM347.534 107.676V108.676H348.534V107.676H347.534ZM347.695 107.676V98.8672H345.695V107.676H347.695ZM346.695 99.8672H347.534V97.8672H346.695V99.8672ZM346.534 98.8672V102.775H348.534V98.8672H346.534ZM347.534 103.775H350.308V101.775H347.534V103.775ZM351.308 102.775V98.8672H349.308V102.775H351.308ZM350.308 99.8672H351.131V97.8672H350.308V99.8672ZM350.131 98.8672V107.676H352.131V98.8672H350.131ZM351.131 106.676H350.308V108.676H351.131V106.676ZM351.308 107.676V103.388H349.308V107.676H351.308ZM350.308 102.388H347.534V104.388H350.308V102.388ZM346.534 103.388V107.676H348.534V103.388H346.534ZM347.534 106.676H346.695V108.676H347.534V106.676Z" fill="black" mask="url(#path-50-inside-6_3141_222)"/>
<path d="M422.679 103.722C421.895 103.722 421.258 103.085 421.258 102.301V98.9216C421.258 98.137 421.895 97.5 422.679 97.5C423.464 97.5 424.101 98.137 424.101 98.9216V102.301C424.109 103.085 423.472 103.722 422.679 103.722Z" fill="#E3E7FC"/>
<path d="M450.008 37.3906H309.82V60.4626H450.008V37.3906Z" fill="#49DAFC"/>
<path d="M309.906 288.258C310.846 298.869 319.757 307.189 330.609 307.189H429.212C440.072 307.189 448.975 298.869 449.915 288.258H309.906Z" fill="#49DAFC"/>
<path d="M429.212 17.75H387.985L387.946 17.8976C386.727 22.2945 383.915 25.1454 380.807 25.1454H379.021C375.913 25.1454 373.101 22.2945 371.882 17.8976L371.843 17.75H330.616C319.135 17.75 309.828 27.0565 309.828 38.5381V42.2746H450.015V38.5381C450.008 27.0565 440.693 17.75 429.212 17.75Z" fill="#E3E7FC"/>
<path d="M458.928 93.8606V67.5104H456.543V33.7881C456.543 22.3065 447.236 13 435.755 13H324.077C312.596 13 303.289 22.3065 303.289 33.7881V301.259C303.289 312.741 312.596 322.047 324.077 322.047H435.755C447.236 322.047 456.543 312.741 456.543 301.259V116.311H458.928V100.743H456.543V93.8606H458.928ZM450.01 286.399C450.01 297.88 440.703 307.187 429.221 307.187H330.61C319.129 307.187 309.822 297.88 309.822 286.399V38.5345C309.822 27.0529 319.129 17.7465 330.61 17.7465H371.837L371.876 17.894C373.095 22.2909 375.907 25.1419 379.015 25.1419H380.801C383.909 25.1419 386.721 22.2909 387.941 17.894L387.979 17.7465H429.206C440.688 17.7465 449.994 27.0529 449.994 38.5345V286.399H450.01Z" fill="#020202"/>
<path d="M432.109 15.8594H327.719C315.553 15.8594 305.695 25.7174 305.695 37.8826V297.151C305.695 309.316 315.553 319.174 327.719 319.174H432.109C444.275 319.174 454.133 309.316 454.133 297.151V37.8826C454.133 25.7174 444.275 15.8594 432.109 15.8594ZM450.008 286.399C450.008 297.881 440.701 307.187 429.22 307.187H330.608C319.127 307.187 309.82 297.881 309.82 286.399V38.5351C309.82 27.0535 319.127 17.7471 330.608 17.7471H371.835L371.874 17.8947C373.093 22.2916 375.905 25.1425 379.013 25.1425H380.8C383.907 25.1425 386.719 22.2916 387.939 17.8947L387.977 17.7471H429.204C440.686 17.7471 449.992 27.0535 449.992 38.5351V286.399H450.008Z" fill="#070638"/>
<path d="M379.489 20.6888C380.566 20.6888 381.439 19.8158 381.439 18.7389C381.439 17.662 380.566 16.7891 379.489 16.7891C378.412 16.7891 377.539 17.662 377.539 18.7389C377.539 19.8158 378.412 20.6888 379.489 20.6888Z" fill="#020202"/>
<path d="M322.272 26.2172C322.272 28.1903 320.058 28.905 320.043 30.4121V30.513H322.195V31.1811H319.32V30.6218C319.32 28.5088 321.534 28.0971 321.534 26.2482C321.534 25.5724 321.309 25.2228 320.765 25.2228C320.229 25.2228 319.996 25.6035 319.996 26.1861V26.7687H319.312V26.2249C319.312 25.2228 319.771 24.5625 320.781 24.5625C321.814 24.5625 322.272 25.215 322.272 26.2172Z" fill="#070638"/>
<path d="M325.858 26.2094V26.3803C325.858 27.0561 325.586 27.53 325.066 27.7242C325.617 27.934 325.858 28.4234 325.858 29.0837V29.5886C325.858 30.5907 325.392 31.2433 324.382 31.2433C323.38 31.2433 322.914 30.5907 322.914 29.5886V29.138H323.598V29.6352C323.598 30.2256 323.838 30.583 324.367 30.583C324.903 30.583 325.136 30.2334 325.136 29.5731V29.0681C325.136 28.4234 324.864 28.1126 324.312 28.0971H323.916V27.4446H324.343C324.833 27.429 325.128 27.1183 325.128 26.5434V26.2405C325.128 25.5646 324.895 25.2228 324.359 25.2228C323.838 25.2228 323.59 25.5879 323.59 26.1783V26.5123H322.906V26.2094C322.906 25.2073 323.372 24.5625 324.374 24.5625C325.392 24.5625 325.858 25.2073 325.858 26.2094Z" fill="#070638"/>
<path d="M327.277 26.7031V27.612H326.578V26.7031H327.277ZM327.277 30.2688V31.1777H326.578V30.2688H327.277Z" fill="#070638"/>
<path d="M328.754 27.2973C328.963 26.9399 329.29 26.7535 329.725 26.7535C330.564 26.7535 330.944 27.3749 330.944 28.3071V29.5889C330.944 30.591 330.47 31.2436 329.468 31.2436C328.466 31.2436 328 30.591 328 29.5889V29.1461H328.684V29.6355C328.684 30.2259 328.924 30.5833 329.453 30.5833C329.973 30.5833 330.222 30.2259 330.222 29.6355V28.3615C330.222 27.7711 329.981 27.4138 329.453 27.4138C329.049 27.4138 328.777 27.6391 328.715 28.1129V28.2605H328.031L328.21 24.6172H330.789V25.2697H328.862L328.754 27.2973Z" fill="#070638"/>
<path d="M334.585 26.2017V26.326H333.901V26.1551C333.901 25.5647 333.66 25.2229 333.124 25.2229C332.573 25.2229 332.332 25.5803 332.332 26.2794V27.7476C332.51 27.2971 332.868 27.0485 333.388 27.0485C334.227 27.0485 334.608 27.6544 334.608 28.6021V29.5965C334.608 30.5986 334.111 31.2512 333.109 31.2512C332.099 31.2512 331.602 30.5986 331.602 29.5965V26.2561C331.602 25.2152 332.068 24.5704 333.109 24.5704C334.119 24.5626 334.585 25.1996 334.585 26.2017ZM332.332 28.6488V29.6276C332.332 30.218 332.573 30.5753 333.109 30.5753C333.629 30.5753 333.885 30.218 333.885 29.6276V28.6488C333.885 28.0584 333.629 27.701 333.109 27.701C332.573 27.7088 332.332 28.0584 332.332 28.6488Z" fill="#070638"/>
<path d="M406.099 26.4922H404.25V31.1143H406.099V26.4922Z" fill="#070638"/>
<path d="M408.56 25.5625H406.711V31.1091H408.56V25.5625Z" fill="#070638"/>
<path d="M411.029 24.9062H409.18V31.1131H411.029V24.9062Z" fill="#070638"/>
<path d="M413.497 23.7656H411.648V31.1145H413.497V23.7656Z" fill="#070638"/>
<path d="M436.39 30.9927H425.289V24.2109H436.39V30.9927ZM425.911 30.3712H435.776V24.8246H425.911V30.3712Z" fill="#070638"/>
<path d="M432.693 25.4922H426.836V29.7026H432.693V25.4922Z" fill="#070638"/>
<path d="M437.398 26.7969H436V28.3972H437.398V26.7969Z" fill="#070638"/>
<path d="M421.215 29.5113C421.145 29.5113 421.068 29.4958 421.006 29.4492C418.745 28.1053 417.253 29.356 417.191 29.4026C417.02 29.5502 416.756 29.5346 416.609 29.3637C416.461 29.1928 416.477 28.9287 416.648 28.7811C416.725 28.7112 418.636 27.0721 421.433 28.7345C421.627 28.851 421.697 29.1074 421.58 29.3016C421.495 29.4336 421.363 29.5113 421.215 29.5113Z" fill="#070638"/>
<path d="M422.057 28.1193C421.987 28.1193 421.91 28.1038 421.848 28.0572C418.585 26.1151 416.387 27.9951 416.363 28.0106C416.192 28.166 415.928 28.1426 415.781 27.9717C415.633 27.8008 415.649 27.5367 415.819 27.3891C415.843 27.3658 418.492 25.0975 422.275 27.3425C422.469 27.459 422.539 27.7154 422.422 27.9096C422.337 28.0494 422.197 28.1193 422.057 28.1193Z" fill="#070638"/>
<path d="M422.814 26.5043C422.744 26.5043 422.667 26.4887 422.605 26.4421C418.472 23.9795 415.722 26.2945 415.605 26.3955C415.434 26.5431 415.17 26.5276 415.023 26.3567C414.875 26.1858 414.891 25.9216 415.062 25.774C415.093 25.743 418.363 22.9541 423.032 25.7274C423.226 25.844 423.296 26.1003 423.18 26.2945C423.086 26.4266 422.954 26.5043 422.814 26.5043Z" fill="#070638"/>
<path d="M419.973 30.205C419.973 30.7799 419.506 31.246 418.932 31.246C418.357 31.246 417.891 30.7799 417.891 30.205C417.891 29.6302 418.357 29.1641 418.932 29.1641C419.506 29.1641 419.973 29.6302 419.973 30.205Z" fill="#070638"/>
<path d="M242.59 335.406C242.59 335.406 257.94 340.44 259.929 340.797C261.917 341.155 261.335 343.26 258.989 344.783C256.643 346.305 253.131 346.771 244.812 345.606C236.492 344.433 234.969 342.91 234.386 343.143C233.804 343.377 232.398 344.55 230.401 343.61C228.413 342.67 227.473 338.925 229.461 337.17C231.458 335.406 242.59 335.406 242.59 335.406Z" fill="#FF4155" stroke="#263238" stroke-miterlimit="10" stroke-linecap="round" stroke-linejoin="round"/>
<path d="M261.129 341.967C256.616 345.571 244.738 344.352 238.811 342.713C234.344 341.477 230.561 341.718 228.852 341.928C229.209 342.674 229.753 343.287 230.405 343.598C232.394 344.538 233.8 343.365 234.39 343.132C234.973 342.899 236.496 344.422 244.815 345.595C253.135 346.768 256.647 346.294 258.993 344.771C260.36 343.878 261.121 342.79 261.129 341.967Z" fill="#263238" stroke="#263238" stroke-miterlimit="10" stroke-linecap="round" stroke-linejoin="round"/>
<path d="M231.937 339.032C231.937 339.032 237.328 343.95 241.663 346.412C245.997 348.875 247.52 350.514 245.415 352.976C243.31 355.439 241.663 354.848 232.993 352.976C224.324 351.104 219.166 347.469 219.166 347.469C219.166 347.469 218.816 348.642 216.004 347.818C213.192 346.995 213.425 344.773 214.132 342.901C214.831 341.029 223.85 335.171 231.937 339.032Z" fill="#FF4155" stroke="#263238" stroke-miterlimit="10" stroke-linecap="round" stroke-linejoin="round"/>
<path d="M245.405 352.979C245.732 352.598 245.957 352.241 246.112 351.891C245.079 352.451 243.642 352.994 241.964 353.018C238.53 353.064 227.67 349.654 223.25 347.129C219.622 345.055 215.148 345.11 213.664 345.195C213.711 346.321 214.301 347.324 215.987 347.813C218.799 348.636 219.149 347.463 219.149 347.463C219.149 347.463 224.307 351.099 232.976 352.971C241.653 354.851 243.3 355.434 245.405 352.979Z" fill="#263238" stroke="#263238" stroke-miterlimit="10" stroke-linecap="round" stroke-linejoin="round"/>
<path d="M257.305 119.797C257.305 119.797 263.247 123.06 265.687 129.981C268.126 136.895 269.617 168.59 269.617 168.59L280.92 161.373C280.92 161.373 288.091 159.439 288.324 162.305C288.549 165.172 287.609 170.376 287.609 170.376C287.609 170.376 272.476 183.233 270.425 185.486C268.375 187.739 266.036 190.263 262.61 189.906C259.185 189.549 261.298 169.569 261.298 169.569L257.305 119.797Z" fill="#FF4155"/>
<path d="M280.922 161.382C280.922 161.382 283.369 167.728 287.61 170.385C287.61 170.385 287.673 165.374 288.325 162.314C288.978 159.253 283.874 156.86 280.922 161.382Z" fill="#263238" stroke="#263238" stroke-miterlimit="10" stroke-linecap="round" stroke-linejoin="round"/>
<path d="M259.612 207.825C259.612 207.825 258.951 230.058 255.246 251.312C251.54 272.566 242.793 288.328 242.156 296.4C241.527 304.471 241.418 320.178 241.418 323.457C241.418 326.735 242.475 325.686 242.591 328.615C242.708 331.544 242.591 335.412 242.591 335.412C242.591 335.412 238.956 337.168 236.617 337.758C234.271 338.341 233.106 338.457 233.106 338.457C233.106 338.457 233.572 339.397 231.117 333.423C228.655 327.45 227.699 316.97 227.901 306.786C228.103 296.594 232.92 278.532 234.761 268.255C236.61 257.977 241.814 231.721 242.397 226.228C242.98 220.736 244.285 207.18 244.285 207.18C244.285 207.18 248.487 207.965 253.187 207.359C257.879 206.73 259.612 207.825 259.612 207.825Z" fill="#070638"/>
<path d="M246.328 208.496C246.328 208.496 237.518 211.021 227.622 208.006C217.725 205 211.541 203.353 211.293 204.169C211.044 204.985 211.743 205.233 211.743 205.233C211.743 205.233 213.988 263.969 212.069 272.126C210.151 280.291 209.063 281.674 209.047 288.587C209.024 295.501 209.677 322.985 211.083 330.956C212.489 338.918 212.248 337.776 212.015 339.882C211.782 341.987 212.481 343.509 212.955 343.867C213.421 344.216 214.951 347.122 221.391 344.776C227.831 342.43 233.456 339.617 233.456 339.617C233.456 339.617 233.805 337.745 233.805 332.238C233.805 326.73 230.977 322.651 231.055 318.433C231.141 314.215 230.581 295.221 234.357 282.054C237.247 271.971 241.651 245.815 244.16 230.387L249.085 227.404" fill="#070638"/>
<path d="M214.822 296.398C214.433 299.242 214.2 302.015 214.27 304.392C214.527 313.186 217.113 331.807 217.377 332.84C217.634 333.873 216.088 336.716 216.601 338.526C217.121 340.336 218.411 343.956 218.411 343.956" stroke="#263238" stroke-miterlimit="10" stroke-linecap="round" stroke-linejoin="round"/>
<path d="M220.441 231.539C220.013 247.627 219.206 275.632 218.654 278.017C218.196 280.013 216.634 285.847 215.5 292.101" stroke="#263238" stroke-miterlimit="10" stroke-linecap="round" stroke-linejoin="round"/>
<path d="M220.733 220.344C220.733 220.344 220.679 222.752 220.578 226.574" stroke="#263238" stroke-miterlimit="10" stroke-linecap="round" stroke-linejoin="round"/>
<path d="M235.304 334.578C235.219 335.953 235.219 336.916 235.219 336.916" stroke="white" stroke-width="0.75" stroke-miterlimit="10" stroke-linecap="round" stroke-linejoin="round"/>
<path d="M233.842 111.523L218.344 117.295L220.068 209.987C220.068 209.987 244.585 216.015 259.617 207.82L260.161 190.753C260.161 190.753 259.182 150.303 257.597 139.901C256.012 129.492 249.805 117.925 249.805 117.925C249.805 117.925 242.736 113.489 240.608 112.735C238.479 111.974 233.842 111.523 233.842 111.523Z" fill="white"/>
<path d="M262.865 130.246C262.865 130.246 265.11 153.683 264.884 164.869C264.659 176.055 263.913 213.336 263.913 213.336L259.113 215.954C259.113 215.954 258.468 180.344 257.776 164.053C257.085 147.763 247.546 116.045 247.546 116.045L245.938 111.602C245.938 111.602 250.777 115.152 255.469 117.956C260.161 120.76 262.733 127.931 262.733 127.931" fill="#FF4155"/>
<path d="M243.266 116.839L251.112 127.878L246.878 114.291L244.85 109.086L243.266 116.839Z" fill="white" stroke="#263238" stroke-miterlimit="10" stroke-linecap="round" stroke-linejoin="round"/>
<path d="M234.132 92.6292C234.132 92.6292 229.642 110.59 229.44 111.382C229.238 112.174 242.421 124.868 242.421 124.868L247.493 109.37C247.493 109.37 239.368 104.258 237.806 99.9859C236.245 95.7055 234.909 91.9767 234.132 92.6292Z" fill="#FCA870"/>
<path d="M230.392 109.259C230.392 109.259 234.836 124.267 235.535 140.216C236.234 156.164 235.659 218.878 235.659 218.878L207.258 214.924C207.258 214.924 209.395 175.973 209.418 174.622C209.441 173.262 201.789 121.525 201.828 119.832C201.867 118.13 227.534 108.692 230.392 109.259Z" fill="#FF4155"/>
<path d="M229.819 104.688L240.578 117.435L234.006 129.608L225.508 109.519L229.819 104.688Z" fill="white" stroke="#263238" stroke-miterlimit="10" stroke-linecap="round" stroke-linejoin="round"/>
<path d="M240.58 117.438L242.421 124.856L238.141 122.075L240.58 117.438Z" fill="white" stroke="#263238" stroke-miterlimit="10" stroke-linecap="round" stroke-linejoin="round"/>
<g filter="url(#filter0_d_3141_222)">
<path d="M265.655 79.4338C265.655 79.4338 264.249 85.1668 260.567 96.4775C256.885 107.78 253.451 113.778 249.264 112.527C245.085 111.284 235.972 105.792 234.287 102.49C232.609 99.1886 233.129 95.118 233.129 95.118C233.129 95.118 229.54 94.8694 229.47 90.4881C229.4 86.1068 231.801 84.0171 233.595 83.7996C235.39 83.5821 238.513 85.9747 239.794 82.378C241.076 78.7812 238.186 74.9748 241.037 72.9161C243.888 70.8575 250.406 70.9197 256.077 72.8773C261.748 74.8349 265.469 78.9133 265.469 78.9133L265.655 79.4338Z" fill="#FCA870"/>
</g>
<path d="M246.119 96.4062C246.119 96.4062 245.832 100.516 246.779 102.201C247.719 103.887 250.671 100.826 250.671 100.826C250.671 100.826 246.818 97.7812 246.119 96.4062Z" fill="#263238"/>
<path d="M254.189 89.4695C253.893 90.3862 253.303 91.0154 252.868 90.8756C252.441 90.7357 252.332 89.8812 252.627 88.9646C252.922 88.0479 253.513 87.4187 253.948 87.5585C254.375 87.6983 254.484 88.5529 254.189 89.4695Z" fill="#263238"/>
<path d="M261.071 91.5945C260.776 92.5112 260.186 93.1404 259.751 93.0006C259.324 92.8608 259.215 92.0062 259.51 91.0896C259.805 90.1729 260.396 89.5437 260.831 89.6835C261.258 89.8233 261.367 90.6779 261.071 91.5945Z" fill="#263238"/>
<path d="M268.149 75.5432C266.829 72.5757 264.304 70.1753 261.337 68.5983C251.572 63.4168 236.431 59.0277 232.446 76.087C231.429 80.445 231.615 84.9895 231.615 84.9895C231.615 84.9895 233.402 84.0806 234.652 85.5177C235.903 86.9549 234.746 88.7571 236.921 88.7804C239.096 88.7959 239.562 86.3101 239.966 85.0672C240.37 83.8242 244.425 86.1703 245.163 83.8864C246.025 81.2296 242.056 77.7805 244.976 75.6364C247.237 73.974 250.251 76.3045 252.053 77.5707C255.005 79.6526 257.88 81.7268 261.36 82.8609C264.405 83.8553 268.849 85.1992 269.113 80.7635C269.221 78.8991 268.864 77.1435 268.149 75.5432Z" fill="#263238"/>
<path d="M282.368 157.209C282.368 157.209 281.568 153.162 281.646 151.849C281.724 150.536 286.051 145.953 286.051 145.953L288.894 149.115L282.368 157.209Z" fill="white" stroke="#263238" stroke-miterlimit="10" stroke-linecap="round" stroke-linejoin="round"/>
<path d="M294.086 128.516L281.719 150.539L289.293 151.106L300.596 131.18L294.086 128.516Z" fill="#263238" stroke="#263238" stroke-miterlimit="10" stroke-linecap="round" stroke-linejoin="round"/>
<path d="M295.658 146.878C295.658 146.878 298.261 143.421 298.315 142.31C298.369 141.207 297.631 137.859 297.064 136.686C296.497 135.513 295.332 133.509 294.641 134.752C293.949 135.995 295.006 138.333 295.029 138.752C295.052 139.172 295.246 141.829 295.246 141.829L294.571 143.561L295.658 146.878Z" fill="#FCA870"/>
<path d="M281.342 158.862C281.342 158.862 281.63 157.596 281.956 156.718C282.282 155.841 284.939 152.485 284.939 152.485C284.939 152.485 278.849 143.59 279.595 142.984C280.348 142.386 283.828 145.967 283.828 145.967L286.726 147.909L287.751 148.647C287.751 148.647 286.446 147.257 285.708 146.41C284.97 145.563 282.08 143.442 281.195 142.65C280.309 141.858 279.462 141.345 280.263 140.397C281.063 139.442 281.397 139.55 282.174 140.055C282.95 140.56 282.95 141.182 285.926 142.557C288.901 143.924 289.81 144.444 290.408 145.346C291.006 146.247 291.814 147.723 291.814 147.723L291.736 143.411C291.736 143.411 287.378 138.898 286.928 137.95C286.477 136.995 286.516 136.031 287.495 136C288.474 135.969 292.63 139.139 293.461 139.783C294.292 140.428 295.683 142.324 295.729 143.093C295.784 143.862 295.434 148.896 295.224 149.564C295.015 150.232 288.326 162.335 288.326 162.335L285.965 166.942C285.965 166.942 284.287 168.907 282.368 164.945C280.441 160.96 281.342 158.862 281.342 158.862Z" fill="#FCA870"/>
<path d="M266.636 151.56C266.636 151.56 268.322 151.366 270.171 150.542C272.027 149.719 274.226 150.775 272.664 152.531C271.103 154.287 271.833 154.201 269.13 154.978C266.434 155.763 266.636 151.56 266.636 151.56Z" fill="#FCA870"/>
<path d="M250.293 163.862C250.293 163.862 253.835 164.919 256.655 164.429C259.475 163.948 260.866 160.7 260.866 160.7C260.866 160.7 261.681 163.815 263.258 163.722C264.835 163.629 269.007 159.263 269.007 159.263L269.139 154.975C269.186 153.398 268.16 151.984 266.638 151.549L262.784 150.454C262.784 150.454 266.42 147.704 267.344 147.331C268.269 146.958 272.409 147.347 274.266 146.601C276.123 145.855 275.361 143.688 271.555 143.595C267.756 143.501 263.654 143.75 260.928 145.809C258.201 147.867 254.962 151.86 254.962 151.86L248.934 156.964L245.484 157.484L246.525 164.383L250.293 163.862Z" fill="#FCA870"/>
<path d="M205.259 117.492C205.259 117.492 197.001 119.854 196.628 122.689C196.256 125.525 194.119 176.858 193.739 180.322C193.35 183.787 192.977 186.623 194.842 188.557C196.706 190.491 249.663 168.367 249.663 168.367L248.94 156.979L214.511 163.481L216.329 144.06" fill="#FF4155"/>
<path d="M214.505 163.492C214.505 163.492 207.242 165.178 203.016 171.657" stroke="#263238" stroke-miterlimit="10" stroke-linecap="round" stroke-linejoin="round"/>
<rect x="316" y="68" width="63" height="15" fill="white"/>
<rect x="318" y="97" width="39" height="13" fill="#49DAFC"/>
<rect x="318" y="166" width="39" height="13" fill="#49DAFC"/>
</g>
<defs>
<filter id="filter0_d_3141_222" x="225.469" y="71.3906" width="44.1875" height="49.2969" filterUnits="userSpaceOnUse" color-interpolation-filters="sRGB">
<feFlood flood-opacity="0" result="BackgroundImageFix"/>
<feColorMatrix in="SourceAlpha" type="matrix" values="0 0 0 0 0 0 0 0 0 0 0 0 0 0 0 0 0 0 127 0" result="hardAlpha"/>
<feOffset dy="4"/>
<feGaussianBlur stdDeviation="2"/>
<feComposite in2="hardAlpha" operator="out"/>
<feColorMatrix type="matrix" values="0 0 0 0 0 0 0 0 0 0 0 0 0 0 0 0 0 0 0.05 0"/>
<feBlend mode="normal" in2="BackgroundImageFix" result="effect1_dropShadow_3141_222"/>
<feBlend mode="normal" in="SourceGraphic" in2="effect1_dropShadow_3141_222" result="shape"/>
</filter>
<clipPath id="clip0_3141_222">
<rect width="690" height="350" fill="white"/>
</clipPath>
</defs>
</svg>
