<svg width="690" height="350" viewBox="0 0 690 350" fill="none" xmlns="http://www.w3.org/2000/svg">
<g clip-path="url(#clip0_3196_3333)">
<path d="M241.934 123.326C241.848 123.326 233.227 122.163 224.609 116.403C219.649 113.126 215.5 108.762 212.479 103.643C208.751 97.2994 206.742 89.7078 206.502 81.0866C206.242 71.7672 208.807 63.0247 213.916 55.8089C218.614 49.136 225.33 44.1477 233.076 41.5783C240.271 39.2041 248.051 39.2916 255.191 41.8268C263.013 44.596 270.046 50.306 275.534 58.3414L274.714 58.9035C264.289 43.6374 248.836 37.5133 233.381 42.525C217.405 47.7054 206.999 63.1904 207.496 81.057C208.026 100.184 217.399 110.385 225.168 115.577C233.594 121.198 241.981 122.329 242.067 122.34L241.934 123.326Z" fill="url(#paint0_linear_3196_3333)"/>
<g opacity="0.4">
<path opacity="0.4" d="M180.214 333.317C177.05 329.375 174.308 325.111 172.034 320.596C168.531 313.658 164.809 303.244 166.966 293.016C169.066 283.058 176.265 275.04 188.362 269.182C204.681 261.277 214.752 250.671 218.3 237.653C222.711 221.476 217.273 201.751 202.14 179.024C196.838 171.062 195.214 160.627 197.566 149.648C199.818 139.151 205.442 128.909 213.412 120.803C221.797 112.267 231.953 106.865 242.784 105.17C255.246 103.223 267.772 106.217 280.015 114.066L279.479 114.903C256.864 100.406 232.438 102.868 214.119 121.498C197.436 138.489 192.643 162.971 202.968 178.488C210.042 189.112 215.078 199.272 217.933 208.665C221.187 219.375 221.631 229.218 219.261 237.916C215.634 251.23 205.383 262.04 188.788 270.076C176.984 275.795 169.969 283.581 167.933 293.22C165.836 303.167 169.487 313.338 172.916 320.143C175.152 324.586 177.851 328.78 180.969 332.655L180.214 333.317Z" fill="url(#paint1_linear_3196_3333)"/>
<path opacity="0.4" d="M449.573 333.182C449.526 333.058 444.635 320.608 444.789 305.809C444.881 297.099 446.674 289.283 450.115 282.582C454.425 274.197 461.357 267.553 470.674 262.837C488.176 253.985 497.673 243.65 499.706 231.245C502.457 214.441 491.366 193.654 465.798 167.702C440.372 141.9 450.076 119.182 457.875 100.919C464.04 86.4781 468.913 75.07 455.458 66.4429C439.393 56.1383 418.402 56.5199 403.624 58.656C393.873 60.0688 384.293 62.4819 375.036 65.8571L374.672 64.931C374.796 64.8837 387.29 60.0139 403.458 57.6737C412.964 56.301 421.867 56.0554 429.914 56.9459C440.002 58.0613 448.777 60.9755 455.993 65.6056C470.156 74.6883 464.89 87.0254 458.789 101.309C451.097 119.294 441.55 141.676 466.505 167.007C492.312 193.199 503.487 214.266 500.688 231.408C498.599 244.148 488.928 254.718 471.12 263.724C454.508 272.123 445.973 286.286 445.777 305.821C445.624 320.425 450.443 332.691 450.49 332.815L449.573 333.182Z" fill="url(#paint2_linear_3196_3333)"/>
<path opacity="0.4" d="M515.938 333.266C515.681 332.866 490.072 293.367 477.291 292.524C476.529 292.447 475.761 292.562 475.055 292.858C474.349 293.154 473.728 293.622 473.25 294.219L472.492 293.574C473.072 292.86 473.82 292.299 474.668 291.943C475.517 291.587 476.44 291.446 477.356 291.533C490.631 292.42 515.714 331.082 516.773 332.727L515.938 333.266Z" fill="url(#paint3_linear_3196_3333)"/>
<path opacity="0.4" d="M207.486 333.004H206.492C206.732 325.866 207.694 318.771 209.365 311.827C211.918 301.191 217.323 286.694 228.595 278.025C238.702 270.241 251.826 268.33 267.598 272.351L267.352 273.315C251.891 269.375 239.057 271.224 229.205 278.812C218.181 287.297 212.868 301.564 210.353 312.037C208.692 318.911 207.732 325.936 207.486 333.004Z" fill="url(#paint4_linear_3196_3333)"/>
</g>
<path d="M426.018 46.2274V321.792C426.018 324.763 424.837 327.613 422.736 329.714C420.635 331.815 417.785 332.996 414.814 332.996H276.881C275.41 332.996 273.953 332.706 272.594 332.143C271.234 331.58 269.999 330.754 268.959 329.714C267.919 328.673 267.094 327.438 266.531 326.079C265.969 324.72 265.679 323.263 265.68 321.792V46.2274C265.679 44.7562 265.969 43.2994 266.531 41.9401C267.094 40.5808 267.919 39.3456 268.959 38.3052C269.999 37.2648 271.234 36.4394 272.594 35.8763C273.953 35.3133 275.41 35.0234 276.881 35.0234H414.814C417.785 35.0234 420.635 36.2039 422.736 38.305C424.837 40.4062 426.018 43.2559 426.018 46.2274Z" fill="white"/>
<path d="M426.018 46.2274V321.792C426.018 324.763 424.837 327.613 422.736 329.714C420.635 331.815 417.785 332.996 414.814 332.996H276.881C275.41 332.996 273.953 332.706 272.594 332.143C271.234 331.58 269.999 330.754 268.959 329.714C267.919 328.673 267.094 327.438 266.531 326.079C265.969 324.72 265.679 323.263 265.68 321.792V46.2274C265.679 44.7562 265.969 43.2994 266.531 41.9401C267.094 40.5808 267.919 39.3456 268.959 38.3052C269.999 37.2648 271.234 36.4394 272.594 35.8763C273.953 35.3133 275.41 35.0234 276.881 35.0234H414.814C417.785 35.0234 420.635 36.2039 422.736 38.305C424.837 40.4062 426.018 43.2559 426.018 46.2274Z" fill="#5D2168"/>
<path d="M419.775 51.522V313.779C419.775 314.006 419.769 314.233 419.757 314.462C419.414 320.033 414.926 324.441 409.444 324.441H282.227C276.523 324.441 271.898 319.669 271.898 313.791V51.522C271.898 45.88 276.141 41.2647 281.511 40.886C281.747 40.8653 281.987 40.8594 282.227 40.8594H409.444C410.635 40.8576 411.818 41.069 412.935 41.4836C413.278 41.6091 413.614 41.7543 413.941 41.9185C415.708 42.8207 417.19 44.1967 418.22 45.8926C419.251 47.5885 419.789 49.5376 419.775 51.522Z" fill="url(#paint5_linear_3196_3333)"/>
<path opacity="0.34" d="M419.775 158.359L414.364 163.566L395.172 151.199L399.906 146.936H398.426L394.305 150.64L388.56 146.936H386.725L393.53 151.329L377.646 165.595L358.711 153.465L366.089 146.93H364.601L357.856 152.915L348.522 146.936H347.436C347.196 146.936 346.957 146.936 346.72 146.962L357.075 153.598L340.826 167.983L337.099 165.66V166.844L340.057 168.684L337.099 171.296V172.625L340.93 169.231L360.223 181.243L337.102 202.027V203.364L361.11 181.79L381.906 194.751L349.252 226.127L347.11 224.908H345.099L348.504 226.846L337.102 237.792L333.217 241.523L314.037 229.156L318.771 224.89H317.291L313.182 228.615L307.433 224.908H305.599L312.404 229.304L296.519 243.567L277.585 231.437L284.963 224.902H283.463L276.715 230.881L271.91 227.804V228.988L275.94 231.571L271.91 235.141V236.47L276.813 232.13L295.747 244.26L279.863 258.535L271.91 253.579V254.763L279.097 259.239L271.91 265.691V267.029L279.972 259.789L300.756 272.736L279.676 292.993L271.898 287.206V288.448L278.949 293.691L271.898 300.466V301.848L279.756 294.295L300.833 309.975L284.339 324.472H285.848L301.647 310.596L320.3 324.472H321.966L302.413 309.924L326.495 288.753L343.359 299.259L337.105 304.635V305.945L344.247 299.809L348.894 302.709L323.623 324.439H325.149L349.779 303.259L383.767 324.439H385.648L350.572 302.581L366.051 289.268L403.837 313.466V312.282L366.829 288.593L382.906 274.771L403.832 288.268V287.085L383.693 274.094L402.743 257.712L403.832 258.331V257.189L403.536 257.023L403.832 256.774V255.464L402.627 256.502L397.796 253.757L419.775 234.866V233.556L396.882 253.239L378.722 242.905L397.997 225.979C397.669 225.814 397.333 225.668 396.988 225.541L377.805 242.387L350.164 226.645L351.968 224.908L382.793 195.293L419.775 218.349V217.165L383.515 194.58L398.539 180.148L419.775 193.757V192.574L399.275 179.441L414.476 164.832L419.778 168.252V167.068L415.216 164.128L419.778 159.74L419.775 158.359ZM333.338 242.804L358.696 259.159L342.741 273.168L318.137 257.41L333.338 242.804ZM359.566 259.718L376.577 270.688L360.486 284.528L343.622 273.724L359.566 259.718ZM313.271 229.863L332.48 242.263L317.277 256.872L297.389 244.15L313.271 229.863ZM280.744 259.073L296.62 244.813L316.54 257.567L301.51 272.011L280.744 259.073ZM301.608 309.285L280.496 293.584L301.644 273.265L325.608 288.206L301.608 309.285ZM326.398 287.528L302.38 272.561L317.401 258.126L341.957 273.854L326.398 287.528ZM344.149 298.584L327.285 288.073L342.844 274.413L359.708 285.212L344.149 298.584ZM349.681 302.034L345.034 299.138L360.572 285.753L365.169 288.712L349.681 302.034ZM365.953 288.04L361.356 285.082L377.45 271.256L382.033 274.215L365.953 288.04ZM396.997 254.449L401.823 257.194L382.817 273.537L378.234 270.579L396.997 254.449ZM377.927 243.597L396.08 253.925L377.361 270.02L360.338 259.041L377.927 243.597ZM377.012 243.076L359.471 258.481L334.075 242.103L349.409 227.369L377.012 243.076ZM361.001 180.553L341.711 168.533L357.948 154.154L376.882 166.284L361.001 180.553ZM382.645 194.039L361.879 181.101L377.758 166.841L397.675 179.595L382.645 194.039ZM398.411 178.888L378.524 166.166L394.406 151.903L413.615 164.293L398.411 178.888Z" fill="url(#paint6_linear_3196_3333)"/>
<g opacity="0.49">
<path opacity="0.49" d="M271.914 91.2891L346.561 146.812L345.966 147.608L271.914 92.5287V91.2891Z" fill="url(#paint7_linear_3196_3333)"/>
<path opacity="0.49" d="M419.779 151.724V152.895L271.914 60.7575V59.5859L419.779 151.724Z" fill="url(#paint8_linear_3196_3333)"/>
<path opacity="0.49" d="M419.78 103.033V104.216L321.539 40.8594H323.37L419.78 103.033Z" fill="url(#paint9_linear_3196_3333)"/>
<path opacity="0.49" d="M283.33 40.8594L419.781 128.24V129.423L281.531 40.886C281.768 40.8653 282.008 40.8594 282.247 40.8594H283.33Z" fill="url(#paint10_linear_3196_3333)"/>
<path opacity="0.49" d="M419.777 73.137V74.282L361.047 40.8594H363.056L419.777 73.137Z" fill="url(#paint11_linear_3196_3333)"/>
<path opacity="0.49" d="M300.911 40.8594L271.914 66.5365V65.2082L299.414 40.8594H300.911Z" fill="url(#paint12_linear_3196_3333)"/>
<path opacity="0.49" d="M334.733 40.8594L271.914 97.2758V95.9355L333.242 40.8594H334.733Z" fill="url(#paint13_linear_3196_3333)"/>
<path opacity="0.49" d="M367.91 40.8594L271.914 133.104V131.725L366.475 40.8594H367.91Z" fill="url(#paint14_linear_3196_3333)"/>
<path opacity="0.49" d="M413.945 41.9193L271.914 166.634V165.314L412.939 41.4844C413.282 41.6098 413.618 41.755 413.945 41.9193Z" fill="url(#paint15_linear_3196_3333)"/>
<path opacity="0.49" d="M419.779 71.4141V72.7277L271.914 199.871V198.56L419.779 71.4141Z" fill="url(#paint16_linear_3196_3333)"/>
</g>
<path opacity="0.6" d="M287.794 137.287L314.554 154.65C314.97 154.918 315.454 155.06 315.948 155.06C316.443 155.06 316.927 154.918 317.343 154.65L340.814 139.751C341.277 139.457 341.634 139.023 341.834 138.513C342.034 138.002 342.067 137.441 341.927 136.911C341.786 136.381 341.481 135.909 341.055 135.563C340.629 135.218 340.104 135.018 339.556 134.991L289.326 132.526C286.69 132.411 285.578 135.852 287.794 137.287Z" fill="#322D6A"/>
<path opacity="0.6" d="M385.601 127.42L365.148 161.287L377.024 167.899L390.314 147.417L404.743 144.37L408.822 128.873L388.145 126.193C387.648 126.129 387.143 126.211 386.691 126.429C386.239 126.647 385.861 126.992 385.601 127.42Z" fill="#322D6A"/>
<path d="M363.184 249.616C363.092 248.912 354.012 179.096 353.205 171.357C352.421 163.721 387.5 89.0707 391.006 81.63L337.93 61.4261V38.2578H338.927V60.7427L392.367 81.0856L392.136 81.5708C378.746 109.934 353.574 165.179 354.202 171.256C354.995 178.981 364.086 248.77 364.178 249.489L363.184 249.616Z" fill="white"/>
<path opacity="0.68" d="M383.273 40.8545C383.273 40.8545 369.803 60.7536 371.294 65.3926C372.785 70.0316 368.966 117.288 368.966 117.288C368.966 117.288 354.511 141.273 353.718 141.27C352.925 141.267 333.872 157.859 333.872 157.859L329.194 182.415L271.914 226.438V238.544C271.914 238.544 329.233 192.317 333.86 187.844C338.487 183.37 339.966 159.69 343.203 157.859C346.44 156.027 374.072 128.762 376.164 125.989C378.256 123.217 379.753 68.9429 379.753 63.2684C379.753 57.5939 391.696 40.8516 391.696 40.8516L383.273 40.8545Z" fill="url(#paint17_linear_3196_3333)"/>
<path d="M313.979 183.934L271.914 206.884V160.683L285.639 153.76C286.907 153.121 288.369 152.983 289.734 153.375C291.099 153.767 292.266 154.658 293.003 155.873L293.467 156.636C294.158 157.773 295.229 158.629 296.49 159.054C297.752 159.478 299.122 159.443 300.36 158.955L303.529 157.704C304.234 157.425 304.989 157.291 305.747 157.311C306.505 157.33 307.252 157.502 307.942 157.816C308.633 158.13 309.253 158.58 309.765 159.14C310.278 159.699 310.672 160.356 310.925 161.071L316.603 177.103C317.047 178.368 317.028 179.75 316.547 181.001C316.066 182.253 315.156 183.292 313.979 183.934Z" fill="#322D6A"/>
<path d="M419.774 193.945V221.185L413.834 228.693C413.136 229.575 412.269 230.307 411.283 230.848C410.298 231.389 409.214 231.727 408.095 231.842C406.977 231.956 405.847 231.846 404.772 231.518C403.697 231.189 402.699 230.648 401.837 229.927L377.023 209.194L388.044 196.176L379.784 189.407C379.173 188.907 378.678 188.282 378.332 187.573C377.986 186.864 377.798 186.089 377.78 185.3C377.761 184.512 377.914 183.729 378.226 183.004C378.539 182.28 379.005 181.633 379.591 181.105L388.142 173.413C389.124 172.528 390.394 172.029 391.717 172.008C393.039 171.988 394.324 172.447 395.334 173.301L419.774 193.945Z" fill="#36477F"/>
<path d="M290.058 90.6902L314.022 67.3355C315.186 66.2033 316.714 65.5221 318.334 65.4137C319.955 65.3053 321.56 65.7768 322.865 66.7438L357.148 92.1192C362.548 96.1162 359.554 104.69 352.841 104.456L294.581 102.436C288.572 102.22 285.741 94.8943 290.058 90.6902Z" fill="#36477F"/>
<path opacity="0.71" d="M418.746 113.791V149.814C418.746 152.968 416.51 155.521 413.752 155.521H271.914V108.078H413.752C416.51 108.078 418.746 110.637 418.746 113.791Z" fill="#322D6A"/>
<path d="M418.743 99.5381V135.564C418.743 138.718 416.506 141.271 413.749 141.271H239.408C237.284 141.271 235.47 139.756 234.748 137.62C234.526 136.958 234.413 136.263 234.414 135.564V99.5381C234.414 96.3843 236.651 93.8281 239.408 93.8281H413.749C416.506 93.8281 418.743 96.3843 418.743 99.5381Z" fill="url(#paint18_linear_3196_3333)"/>
<g opacity="0.58">
<path opacity="0.58" d="M259.902 112.571C259.728 109.299 258.396 107.477 256.902 106.465C255.57 105.607 254.01 105.172 252.426 105.216L252.411 105.258V105.216C252.411 105.216 245.349 104.743 244.938 112.571C244.79 115.344 245.686 118.11 246.905 120.527C248.362 123.327 250.217 125.901 252.411 128.169V128.095C252.411 128.145 252.426 128.169 252.426 128.169C252.426 128.169 260.313 120.397 259.902 112.571ZM252.417 116.104C251.652 116.104 250.905 115.877 250.269 115.452C249.633 115.027 249.137 114.423 248.845 113.717C248.552 113.01 248.475 112.233 248.625 111.483C248.774 110.733 249.142 110.044 249.683 109.503C250.224 108.962 250.913 108.594 251.663 108.445C252.413 108.295 253.19 108.372 253.897 108.665C254.603 108.957 255.207 109.453 255.632 110.089C256.057 110.725 256.284 111.472 256.284 112.237C256.287 112.746 256.188 113.25 255.995 113.72C255.802 114.19 255.517 114.618 255.157 114.977C254.798 115.337 254.37 115.622 253.9 115.815C253.43 116.008 252.926 116.107 252.417 116.104Z" fill="url(#paint19_linear_3196_3333)"/>
<path opacity="0.58" d="M307.411 107.367H270C269.603 107.367 269.281 107.689 269.281 108.086V109.432C269.281 109.829 269.603 110.151 270 110.151H307.411C307.808 110.151 308.13 109.829 308.13 109.432V108.086C308.13 107.689 307.808 107.367 307.411 107.367Z" fill="url(#paint20_linear_3196_3333)"/>
<path opacity="0.58" d="M333.138 107.367H313.766C313.369 107.367 313.047 107.689 313.047 108.086V109.432C313.047 109.829 313.369 110.151 313.766 110.151H333.138C333.535 110.151 333.857 109.829 333.857 109.432V108.086C333.857 107.689 333.535 107.367 333.138 107.367Z" fill="url(#paint21_linear_3196_3333)"/>
<path opacity="0.58" d="M293.352 115.891H270C269.603 115.891 269.281 116.212 269.281 116.61V117.956C269.281 118.353 269.603 118.675 270 118.675H293.352C293.749 118.675 294.071 118.353 294.071 117.956V116.61C294.071 116.212 293.749 115.891 293.352 115.891Z" fill="url(#paint22_linear_3196_3333)"/>
<path opacity="0.58" d="M311.257 115.891H298.828C298.431 115.891 298.109 116.212 298.109 116.61V117.956C298.109 118.353 298.431 118.675 298.828 118.675H311.257C311.654 118.675 311.976 118.353 311.976 117.956V116.61C311.976 116.212 311.654 115.891 311.257 115.891Z" fill="url(#paint23_linear_3196_3333)"/>
<path opacity="0.58" d="M293.352 123.188H270C269.603 123.188 269.281 123.509 269.281 123.906V125.253C269.281 125.65 269.603 125.971 270 125.971H293.352C293.749 125.971 294.071 125.65 294.071 125.253V123.906C294.071 123.509 293.749 123.188 293.352 123.188Z" fill="url(#paint24_linear_3196_3333)"/>
<path opacity="0.58" d="M400.522 107.367H375.578C375.181 107.367 374.859 107.689 374.859 108.086V109.432C374.859 109.829 375.181 110.151 375.578 110.151H400.522C400.919 110.151 401.241 109.829 401.241 109.432V108.086C401.241 107.689 400.919 107.367 400.522 107.367Z" fill="url(#paint25_linear_3196_3333)"/>
<path opacity="0.58" d="M390.975 115.891H375.578C375.181 115.891 374.859 116.212 374.859 116.61V117.956C374.859 118.353 375.181 118.675 375.578 118.675H390.975C391.372 118.675 391.693 118.353 391.693 117.956V116.61C391.693 116.212 391.372 115.891 390.975 115.891Z" fill="url(#paint26_linear_3196_3333)"/>
<path opacity="0.58" d="M390.975 123.188H375.578C375.181 123.188 374.859 123.509 374.859 123.906V125.253C374.859 125.65 375.181 125.971 375.578 125.971H390.975C391.372 125.971 391.693 125.65 391.693 125.253V123.906C391.693 123.509 391.372 123.188 390.975 123.188Z" fill="url(#paint27_linear_3196_3333)"/>
<path opacity="0.58" d="M357.38 105.703C355.089 105.703 352.849 106.382 350.945 107.655C349.04 108.928 347.555 110.737 346.679 112.853C345.802 114.97 345.573 117.299 346.019 119.545C346.466 121.792 347.57 123.856 349.189 125.476C350.809 127.096 352.873 128.199 355.12 128.646C357.367 129.093 359.696 128.863 361.812 127.987C363.929 127.11 365.737 125.626 367.01 123.721C368.283 121.816 368.962 119.577 368.962 117.286C368.962 114.214 367.742 111.268 365.57 109.096C363.398 106.923 360.451 105.703 357.38 105.703ZM357.38 127.2C355.418 127.2 353.501 126.618 351.87 125.528C350.239 124.439 348.968 122.89 348.217 121.077C347.467 119.265 347.27 117.271 347.653 115.347C348.036 113.423 348.981 111.656 350.368 110.269C351.755 108.883 353.523 107.938 355.447 107.556C357.371 107.174 359.365 107.371 361.177 108.122C362.989 108.873 364.537 110.144 365.627 111.775C366.716 113.407 367.297 115.324 367.297 117.286C367.297 118.588 367.04 119.877 366.542 121.08C366.043 122.283 365.313 123.377 364.392 124.297C363.471 125.218 362.378 125.948 361.174 126.446C359.971 126.944 358.682 127.2 357.38 127.2Z" fill="url(#paint28_linear_3196_3333)"/>
<path opacity="0.58" d="M364.169 123.517L358.468 117.816C358.544 117.662 358.586 117.494 358.591 117.323C358.597 117.152 358.566 116.982 358.5 116.824C358.435 116.665 358.336 116.523 358.211 116.406C358.086 116.289 357.938 116.2 357.776 116.144V109.363C357.781 109.308 357.774 109.253 357.756 109.2C357.738 109.148 357.71 109.1 357.672 109.059C357.635 109.018 357.589 108.986 357.539 108.963C357.488 108.941 357.433 108.93 357.378 108.93C357.323 108.93 357.268 108.941 357.217 108.963C357.167 108.986 357.121 109.018 357.084 109.059C357.046 109.1 357.018 109.148 357 109.2C356.982 109.253 356.975 109.308 356.98 109.363V116.144C356.703 116.234 356.468 116.42 356.317 116.669C356.166 116.917 356.109 117.212 356.157 117.499C356.205 117.786 356.355 118.046 356.579 118.232C356.803 118.417 357.086 118.517 357.377 118.511C357.561 118.511 357.742 118.467 357.906 118.384L363.607 124.085C363.644 124.123 363.687 124.153 363.735 124.173C363.784 124.194 363.836 124.204 363.888 124.203C363.943 124.206 363.998 124.196 364.049 124.176C364.1 124.155 364.146 124.125 364.184 124.085C364.221 124.047 364.249 124.002 364.269 123.953C364.288 123.903 364.297 123.851 364.295 123.798C364.294 123.745 364.282 123.693 364.261 123.645C364.239 123.597 364.208 123.553 364.169 123.517Z" fill="url(#paint29_linear_3196_3333)"/>
</g>
<path opacity="0.43" d="M265.895 93.8281L256.904 106.464L254.901 109.281L250.434 115.562L246.913 120.529L234.756 137.62C234.533 136.958 234.421 136.263 234.422 135.564V99.5381C234.422 96.3843 236.659 93.8281 239.416 93.8281H265.895Z" fill="#322D6A"/>
<path d="M499.393 233.138C497.204 191.535 459.666 194.053 459.666 194.053C459.666 194.053 459.639 194.124 459.592 194.26V194.053C459.592 194.053 422.06 191.535 419.865 233.138C417.669 274.741 459.592 316.033 459.592 316.033H465.825L464.891 310.412C476.056 297.744 501.097 265.537 499.393 233.138ZM439.08 231.363C439.08 227.298 440.286 223.325 442.544 219.946C444.802 216.566 448.012 213.932 451.767 212.377C455.522 210.822 459.654 210.415 463.64 211.208C467.627 212.001 471.289 213.959 474.162 216.833C477.036 219.707 478.993 223.369 479.786 227.356C480.578 231.342 480.171 235.474 478.615 239.229C477.059 242.984 474.425 246.193 471.045 248.451C467.665 250.709 463.692 251.914 459.627 251.913C456.928 251.913 454.256 251.381 451.763 250.347C449.269 249.314 447.004 247.8 445.096 245.891C443.188 243.982 441.675 241.716 440.643 239.222C439.61 236.729 439.08 234.056 439.08 231.357V231.363Z" fill="#5D2168"/>
<path d="M505.627 233.138C503.438 191.535 465.9 194.053 465.9 194.053C465.9 194.053 465.873 194.124 465.826 194.26V194.053C465.826 194.053 428.288 191.535 426.098 233.138C423.909 274.741 465.826 316.033 465.826 316.033V315.655C465.873 315.9 465.9 316.033 465.9 316.033C465.9 316.033 507.816 274.741 505.627 233.138ZM465.864 251.907C461.8 251.908 457.826 250.703 454.446 248.445C451.067 246.187 448.432 242.978 446.876 239.223C445.321 235.468 444.913 231.336 445.706 227.35C446.498 223.363 448.455 219.701 451.329 216.827C454.203 213.953 457.865 211.995 461.851 211.202C465.837 210.409 469.97 210.816 473.725 212.371C477.48 213.926 480.69 216.56 482.948 219.94C485.206 223.319 486.411 227.292 486.411 231.357C486.411 236.807 484.247 242.033 480.393 245.887C476.54 249.741 471.314 251.906 465.864 251.907Z" fill="url(#paint30_linear_3196_3333)"/>
<path d="M483.262 118.101C483.762 117.361 484.114 116.531 484.298 115.657C484.691 113.633 484.348 112.666 483.898 112.163C484.077 111.968 484.227 111.747 484.342 111.509C484.798 110.542 484.564 109.595 483.893 109.068C484.333 108.125 484.46 107.066 484.256 106.045C483.611 102.962 480.603 101.66 477.396 104.16C474.189 106.66 471.623 104.32 466.626 106.056C461.63 107.793 460.922 110.515 462.251 112.92C462.147 112.92 458.996 113.086 458.612 116.009C458.467 117.317 458.573 118.64 458.925 119.908C458.642 120.459 458.483 121.065 458.461 121.683C458.499 123.388 460.621 124.396 460.674 124.423C460.674 124.423 460.035 126.45 461.683 127.621C463.331 128.793 465.44 127.947 465.44 127.947L464.822 126.71L479.245 121.627C479.289 121.894 479.319 122.05 479.319 122.05C479.319 122.05 481.765 122.393 482.759 120.325C483.098 119.633 483.27 118.871 483.262 118.101Z" fill="#5D2168"/>
<path d="M480.837 115.34C480.837 115.34 482.097 120.763 480.837 126.352C479.576 131.94 475.899 133.139 474.384 133.568C473.485 133.827 472.543 133.901 471.615 133.784L471.881 136.804C471.881 136.804 475.668 144.061 470.606 144.124C465.544 144.186 462.115 136.946 462.115 136.946C462.115 136.946 464.083 132.127 464.186 129.665C464.29 127.204 464.112 124.73 463.665 124.251C463.219 123.772 462.322 124.547 461.559 122.701C460.796 120.855 462.485 118.784 463.583 118.855C464.68 118.926 465.6 123.651 466.085 123.674C466.571 123.698 467.355 123.609 467.139 122.89C466.923 122.171 466.319 120.396 466.577 119.985C466.834 119.574 469.506 117.793 470.473 116.461C471.44 115.13 471.6 114.523 471.6 114.523C471.6 114.523 472.923 115.707 476.121 115.781C479.319 115.855 480.837 115.34 480.837 115.34Z" fill="url(#paint31_linear_3196_3333)"/>
<path d="M471.627 133.773C471.627 133.773 470.372 133.791 468.964 132.231C467.556 130.672 466.156 126.82 466.156 126.82C466.15 128.908 466.637 130.968 467.579 132.832C468.469 134.645 470.006 136.059 471.887 136.794L471.627 133.773Z" fill="#C65252"/>
<path d="M478.227 123.274C478.227 123.679 478.452 124.002 478.715 123.999C478.978 123.996 479.18 123.661 479.171 123.256C479.162 122.851 478.946 122.525 478.685 122.531C478.425 122.537 478.218 122.869 478.227 123.274Z" fill="#5D2168"/>
<path d="M472.86 122.829C472.86 123.234 473.087 123.559 473.348 123.553C473.608 123.548 473.815 123.216 473.806 122.811C473.797 122.406 473.581 122.08 473.318 122.086C473.055 122.092 472.854 122.438 472.86 122.829Z" fill="#5D2168"/>
<path d="M474.568 120.837C474.139 120.373 473.598 119.988 472.935 120.08C472.266 120.217 471.65 120.542 471.16 121.018C471.015 121.16 470.802 120.929 470.947 120.787C471.506 120.225 472.233 119.859 473.018 119.745C473.725 119.701 474.328 120.127 474.793 120.633C474.821 120.664 474.836 120.704 474.834 120.746C474.833 120.787 474.815 120.827 474.784 120.855C474.753 120.883 474.713 120.898 474.671 120.896C474.63 120.895 474.59 120.877 474.562 120.846L474.568 120.837Z" fill="#5D2168"/>
<path d="M480.279 120.994C479.637 120.403 478.767 120.885 478.152 121.26C477.98 121.367 477.835 121.086 478.007 120.982C478.767 120.515 479.749 120.065 480.51 120.778C480.66 120.92 480.427 121.133 480.279 120.994Z" fill="#5D2168"/>
<path opacity="0.44" d="M469.397 126.681C469.716 127.296 470.367 127.592 470.849 127.344C471.332 127.095 471.465 126.388 471.145 125.773C470.826 125.157 470.175 124.862 469.693 125.113C469.21 125.365 469.068 126.066 469.397 126.681Z" fill="#C65252"/>
<path opacity="0.44" d="M478.859 127.629C478.94 127.734 479.05 127.815 479.175 127.86C479.301 127.906 479.436 127.915 479.567 127.886C479.697 127.857 479.816 127.791 479.91 127.697C480.005 127.603 480.07 127.484 480.099 127.353C480.128 127.223 480.119 127.088 480.074 126.962C480.029 126.837 479.948 126.727 479.843 126.646C479.737 126.564 479.61 126.515 479.477 126.503C479.345 126.491 479.211 126.517 479.093 126.578C478.924 126.688 478.804 126.859 478.76 127.056C478.717 127.252 478.752 127.458 478.859 127.629Z" fill="#C65252"/>
<path d="M475.829 127.511C475.962 127.531 476.096 127.541 476.231 127.54C476.405 127.553 476.576 127.496 476.708 127.382C476.84 127.268 476.922 127.107 476.935 126.934C477.027 126.553 476.998 126.153 476.852 125.789C476.804 125.675 476.75 125.563 476.69 125.455C476.637 125.359 476.589 125.26 476.548 125.159C476.42 124.842 476.409 124.491 476.515 124.168C476.526 124.139 476.532 124.109 476.531 124.079C476.53 124.048 476.523 124.018 476.51 123.991C476.498 123.963 476.479 123.938 476.457 123.918C476.434 123.897 476.408 123.882 476.379 123.872C476.352 123.862 476.323 123.858 476.294 123.86C476.265 123.862 476.236 123.869 476.21 123.882C476.184 123.895 476.161 123.913 476.143 123.935C476.124 123.957 476.11 123.983 476.101 124.011C475.96 124.438 475.975 124.901 476.142 125.318C476.19 125.431 476.244 125.541 476.305 125.647C476.358 125.747 476.409 125.842 476.447 125.943C476.558 126.218 476.579 126.521 476.509 126.81C476.477 126.946 476.423 127.037 476.364 127.061C476.322 127.074 476.278 127.079 476.234 127.076C475.855 127.075 475.483 126.973 475.157 126.78C475.106 126.753 475.047 126.747 474.992 126.763C474.937 126.779 474.89 126.816 474.861 126.866C474.835 126.916 474.829 126.975 474.844 127.03C474.86 127.085 474.895 127.132 474.944 127.162C475.215 127.332 475.515 127.45 475.829 127.511Z" fill="#C65252"/>
<path d="M476.043 129.62C476.043 129.62 475.132 130.836 474.037 130.739C472.943 130.641 472.363 129.402 472.348 129.044C472.333 128.686 472.247 128.387 472.369 128.425C472.49 128.464 473.626 129.129 474.582 129.165C475.537 129.2 476.395 129.017 476.043 129.62Z" fill="#C65252"/>
<path d="M479.751 138.119C479.751 138.119 492.89 157.826 493.514 159.078C494.139 160.329 482.171 171.891 482.171 171.891L479.586 165.332C479.586 165.332 485.84 159.048 485.769 158.749C485.698 158.45 479.124 152.196 477.873 149.066C476.621 145.936 477.562 137.164 479.751 138.119Z" fill="url(#paint32_linear_3196_3333)"/>
<path d="M483.193 177.832C482.255 177.832 460.356 180.959 456.605 185.965C455.676 187.202 454.939 188.302 454.324 189.246C452.445 192.113 451.685 193.474 450.034 192.533C447.845 191.281 444.09 180.959 444.708 168.134C445.061 160.871 447.507 151.27 449.557 144.3C451.134 138.974 452.475 135.188 452.475 135.188L460.661 135.288C460.661 135.288 468.17 143.107 470.045 143.735C471.921 144.362 471.924 135.602 471.924 135.602C471.924 135.602 479.43 136.853 480.057 138.105C480.353 138.696 480.3 143.43 480.258 148.894C480.217 155.137 480.181 162.314 480.681 165.317C481.309 169.078 482.631 173.391 483.161 175.847C483.436 177.072 483.507 177.832 483.193 177.832Z" fill="url(#paint33_linear_3196_3333)"/>
<g opacity="0.4">
<path opacity="0.4" d="M448.472 177.834C448.637 178.493 451.572 184.091 454.324 189.248C452.445 192.115 451.685 193.475 450.034 192.535C447.845 191.283 444.09 180.961 444.708 168.136C445.061 160.872 447.507 151.272 449.557 144.302C452.161 142.177 454.608 142.482 455.655 144.674C455.655 144.674 457.847 158.124 461.599 159.689C465.35 161.254 471.924 159.689 471.924 159.689L480.258 148.896C480.217 155.139 480.181 162.316 480.681 165.319C481.309 169.079 482.631 173.393 483.161 175.849C482.46 176.081 481.732 176.223 480.995 176.269C478.814 176.269 448.158 176.582 448.472 177.834Z" fill="#322D6A"/>
</g>
<path d="M473.026 174.061L475.887 156.309C475.918 156.116 476.018 155.941 476.167 155.814C476.316 155.687 476.505 155.617 476.7 155.617H485.339C485.46 155.617 485.579 155.643 485.688 155.694C485.797 155.745 485.894 155.819 485.971 155.911C486.048 156.004 486.104 156.112 486.135 156.228C486.166 156.344 486.171 156.466 486.15 156.585L483.002 174.336C482.968 174.526 482.868 174.699 482.72 174.823C482.572 174.947 482.385 175.016 482.192 175.016H473.837C473.718 175.016 473.6 174.989 473.492 174.939C473.384 174.889 473.289 174.816 473.212 174.725C473.135 174.634 473.078 174.528 473.046 174.413C473.014 174.298 473.007 174.178 473.026 174.061Z" fill="#222149"/>
<path d="M470.055 165.634C470.055 165.634 473.81 163.758 475.676 163.758C477.543 163.758 478.493 164.068 478.493 164.382C478.493 164.696 477.866 165.009 476.928 165.32C476.526 165.479 476.106 165.584 475.676 165.634C475.676 165.634 479.744 165.32 480.682 165.634C481.62 165.947 485.061 163.758 485.061 164.696C485.061 165.634 485.999 165.947 485.061 166.258C484.123 166.568 482.247 167.509 481.31 167.509H476.928C476.928 167.509 480.058 168.136 481.31 168.136C482.561 168.136 485.061 166.885 485.375 167.199C485.446 167.254 485.505 167.325 485.545 167.406C485.585 167.488 485.605 167.577 485.605 167.668C485.605 167.758 485.585 167.848 485.545 167.929C485.505 168.01 485.446 168.081 485.375 168.136C485.061 168.45 482.872 169.388 481.934 169.702C480.996 170.015 477.866 169.702 477.866 169.702C477.866 169.702 481.31 170.95 481.62 170.95C481.931 170.95 485.688 168.761 485.688 169.388C485.688 170.015 486.312 170.95 485.688 170.95C485.064 170.95 481.309 172.201 479.744 172.515C478.179 172.829 473.801 170.95 472.863 171.264C471.925 171.577 468.795 171.264 468.795 171.264C468.795 171.264 467.242 165.006 470.055 165.634Z" fill="url(#paint34_linear_3196_3333)"/>
<path d="M500.758 263.241C499.516 264.049 487.98 251.747 486.927 249.715C485.874 247.682 487.557 245.744 488.643 244.549C489.143 243.849 489.573 243.102 489.927 242.318C491.51 239.15 493.741 233.898 493.741 233.898L502.533 237.934C502.533 237.934 497.8 245.549 498.817 246.916C499.057 247.293 499.265 247.688 499.439 248.099C500.9 251.25 503.726 259.046 503.9 259.934C504.095 260.987 501.986 262.431 500.758 263.241Z" fill="url(#paint35_linear_3196_3333)"/>
<path d="M500.758 263.243C499.516 264.051 487.98 251.749 486.927 249.717C485.874 247.684 487.557 245.746 488.643 244.551C489.143 243.851 489.573 243.104 489.927 242.32C491.474 243.113 493.522 244.267 494.276 245.137C495.548 246.616 495.738 249.279 496.495 248.924C497.178 248.604 497.474 247.326 499.454 248.092C500.915 251.243 503.74 259.039 503.915 259.927C504.095 260.989 501.986 262.432 500.758 263.243Z" fill="#222149"/>
<path d="M500.08 277.618C499.142 278.87 482.562 271.361 480.686 269.799C478.811 268.237 479.748 265.731 480.373 264.178C480.532 263.778 480.669 262.79 480.79 261.539C481.136 257.882 481.314 251.977 481.314 251.977L491.834 252.542C491.834 252.542 490.059 261.675 491.636 262.601C492.025 262.866 492.392 263.163 492.734 263.488C495.467 265.976 501.426 272.429 501.958 273.228C502.582 274.177 501.02 276.367 500.08 277.618Z" fill="url(#paint36_linear_3196_3333)"/>
<path d="M500.08 277.619C499.142 278.87 482.562 271.361 480.686 269.799C478.811 268.237 479.748 265.731 480.373 264.178C480.532 263.779 480.669 262.791 480.79 261.539C482.672 261.722 485.207 262.06 486.316 262.613C488.195 263.551 489.447 266.054 490.071 265.43C490.636 264.862 490.432 263.518 492.734 263.509C495.467 265.998 501.426 272.45 501.958 273.249C502.582 274.178 501.02 276.367 500.08 277.619Z" fill="#322D6A"/>
<path d="M501.968 240.836C501.474 242.114 501.14 242.854 501.025 242.907C500.084 243.221 491.951 241.028 491.013 238.839C490.075 236.65 500.084 203.493 498.835 202.553C497.587 201.612 485.415 194.789 479.868 189.81L479.439 189.417C476.019 186.135 472.88 182.572 470.055 178.766C470.055 178.766 480.377 177.201 482.256 177.828C484.134 178.455 516.039 188.15 516.353 192.843C516.622 196.949 505.409 231.928 501.968 240.836Z" fill="#222149"/>
<path d="M504.151 203.171C502.899 203.485 501.648 208.792 500.71 211.618C499.772 214.443 496.642 234.765 496.642 235.703C496.642 236.203 499.396 238.662 501.967 240.839C501.473 242.117 501.139 242.857 501.024 242.91C500.083 243.224 491.95 241.032 491.012 238.842C490.074 236.653 500.083 203.497 498.834 202.556C497.586 201.615 485.414 194.792 479.867 189.813L480.959 185.328C480.959 185.328 499.145 197.239 501.964 198.804C504.784 200.369 505.402 202.857 504.151 203.171Z" fill="#0F0F28"/>
<path d="M493.267 252.73C493.244 253.322 493.223 253.715 493.199 253.846C492.903 255.724 481.939 255.097 480.063 253.846C478.188 252.594 478.185 205.675 477.56 204.734C476.936 203.793 469.427 203.482 462.232 202.231C455.037 200.979 450.031 192.533 450.031 192.533C451.43 189.523 453.331 186.772 455.652 184.4C456.377 183.701 457.187 183.097 458.064 182.601C462.303 180.131 468.501 179.024 470.043 178.755C471.921 178.441 492.566 193.142 493.19 195.323C493.782 197.388 493.551 244.662 493.267 252.73Z" fill="#322D6A"/>
<path d="M493.267 252.731C493.244 253.322 493.223 253.716 493.199 253.846C492.903 255.725 481.939 255.098 480.063 253.846C478.188 252.595 478.185 205.675 477.56 204.734C476.936 203.794 469.427 203.483 462.232 202.231C455.037 200.98 450.031 192.533 450.031 192.533C451.43 189.523 453.331 186.773 455.652 184.4C456.377 183.702 457.187 183.097 458.064 182.602C458.499 187.409 460.055 192.909 464.726 194.409C473.484 197.226 483.182 198.791 483.806 200.353C484.43 201.915 482.244 207.862 481.93 212.554C481.617 217.246 483.495 250.719 484.747 251.343C485.294 251.615 489.108 252.178 493.267 252.731Z" fill="#222149"/>
<path d="M453.784 135.288C453.784 135.288 457.225 140.294 456.287 144.673C455.349 149.052 450.03 163.442 451.909 164.38C453.787 165.318 471.615 163.442 471.929 164.38C472.243 165.318 470.988 175.03 470.05 175.326C469.113 175.622 441.273 173.137 439.708 170.32C438.143 167.504 444.713 133.09 453.784 135.288Z" fill="url(#paint37_linear_3196_3333)"/>
<path d="M240.63 157.304C240.695 159.558 222.831 174.658 221.272 175.079C219.713 175.499 218.479 173.818 218.047 172.839C217.834 172.348 219.772 169.23 221.852 166.017C223.932 162.804 226.127 159.508 226.473 158.62C227.168 156.818 226.689 143.786 226.689 143.786C226.648 142.467 234.935 141.289 234.935 141.289C234.935 141.289 235.568 149.227 235.864 150.813C235.914 151.032 236.005 151.24 236.133 151.425C237.154 153.014 240.574 155.321 240.63 157.304Z" fill="url(#paint38_linear_3196_3333)"/>
<path d="M240.63 157.3C240.695 159.554 222.831 174.654 221.272 175.075C219.713 175.495 218.479 173.814 218.047 172.835C217.834 172.344 219.772 169.226 221.852 166.013C223.701 165.672 225.887 164.998 227.6 163.678C231.278 160.838 229.689 153.267 236.133 151.406C237.154 153.01 240.574 155.317 240.63 157.3Z" fill="#5D2168"/>
<path d="M238.51 96.8433C237.466 97.5415 237.466 109.207 237.12 116.174C236.774 123.142 235.901 142.991 235.726 144.209C235.599 145.097 231.099 146.644 227.936 147.206C226.774 147.411 225.791 147.485 225.274 147.346C223.36 146.822 221.093 88.6599 221.966 85.512C222.839 82.3642 246.868 75.4145 246.868 75.4145C246.868 75.4145 253.235 74.5033 257.764 76.1039C260.105 76.9293 261.96 78.4204 262.202 81.0476C262.906 88.7812 239.558 96.148 238.51 96.8433Z" fill="#381F3D"/>
<path d="M238.511 96.8447C237.467 97.5429 237.467 109.208 237.121 116.176C236.775 123.143 235.902 142.992 235.727 144.211C235.6 145.098 231.1 146.646 227.938 147.208C228.6 146.341 231.082 143.01 231.461 141.276C231.893 139.267 233.349 96.8447 233.349 94.9897C233.349 93.1347 245.183 92.2028 250.064 88.9513C253.26 86.8212 256.153 80.3361 257.757 76.1172C260.097 76.9426 261.952 78.4337 262.194 81.0609C262.907 88.7827 239.559 96.1495 238.511 96.8447Z" fill="#5D2168"/>
<path d="M202.112 163.714C200.834 165.569 177.497 167.196 175.991 166.613C174.485 166.03 174.482 163.95 174.713 162.9C174.831 162.379 178.236 161.009 181.813 159.646C185.39 158.282 189.106 156.921 189.919 156.391C191.547 155.344 198.86 144.557 198.86 144.557C199.606 143.468 206.987 147.418 206.987 147.418C206.987 147.418 202.807 154.193 202.112 155.646C202.021 155.853 201.971 156.076 201.964 156.302C201.839 158.196 203.236 162.083 202.112 163.714Z" fill="url(#paint39_linear_3196_3333)"/>
<path d="M202.112 163.719C200.834 165.574 177.497 167.201 175.991 166.618C174.485 166.035 174.482 163.955 174.713 162.905C174.831 162.384 178.236 161.015 181.813 159.651C183.505 160.467 185.659 161.216 187.831 161.166C192.473 161.047 195.668 154 201.964 156.308C201.839 158.201 203.236 162.089 202.112 163.719Z" fill="#5D2168"/>
<path d="M272.974 73.3304C272.974 73.3304 273.566 92.3124 264.658 95.62C255.749 98.9277 237.46 98.2324 237.114 98.9307C236.767 99.6289 227.883 127.321 219.691 136.723C211.499 146.125 206.28 149.61 206.28 149.61C206.28 149.61 194.789 146.303 196.179 143.516C197.57 140.729 225.087 85.1794 228.049 83.4368C231.01 81.6942 255.8 75.6381 261.309 74.7298C266.817 73.8215 273.018 70.3926 272.974 73.3304Z" fill="#5D2168"/>
<path d="M281.852 30.7263C273.677 31.318 271.331 24.3269 271.263 24.1169C270.965 22.4538 270.767 20.7742 270.671 19.0874C270.192 12.8478 269.349 3.07872 259.023 0.552124C248.698 -1.97447 244.725 4.98993 244.725 4.98993C240.266 4.75029 239.323 15.8951 241.808 19.6643C244.293 23.4335 247.098 25.676 245.095 28.5724C243.092 31.4689 243.601 35.0812 243.601 35.0812C243.601 35.0812 245.536 65.3767 253.21 75.6398C260.884 85.903 272.44 81.412 273.559 75.6398C274.677 69.8677 274.683 72.5926 283.499 63.6134C283.499 63.6134 297.612 61.8886 298.094 49.0189C298.576 36.1493 290.15 30.1079 281.852 30.7263ZM293.878 54.1786C293.029 56.1164 291.766 57.8448 290.178 59.2427C288.59 60.6405 286.716 61.6739 284.686 62.2702L284.65 62.3087C292.076 53.226 289.485 39.1818 280.769 35.0546C280.674 35.0132 280.582 34.9659 280.494 34.9215C284.34 35.0043 288.248 34.1345 291.473 36.8297C296.766 41.238 296.766 47.5485 293.878 54.1638V54.1786Z" fill="#5D2168"/>
<path d="M261.642 17.4501C261.642 17.4501 261.663 28.7872 267.367 31.3138C273.071 33.8404 277.278 35.6421 279.444 42.2604C281.609 48.8786 271.385 54.6507 275.112 58.6181C278.84 62.5855 275.169 71.0647 269.278 71.3665C263.388 71.6683 259.104 70.689 254.66 61.3459C250.216 52.0028 243.122 35.6451 246.009 30.9558C248.897 26.2665 246.912 22.9944 244.716 19.8169C242.521 16.6394 245.527 13.7578 245.527 13.7578L261.642 17.4501Z" fill="#381F3D"/>
<path d="M260.422 20.4341C260.4 21.1771 260.453 21.9204 260.578 22.653C260.792 23.9252 258.658 26.8512 258.658 26.8512L258.712 27.2801C258.712 27.2801 259.235 30.5582 260.783 31.57C262.33 32.5818 259.753 39.3096 259.753 39.3096L251.679 39.9634C251.679 39.9634 248.481 32.1203 249.141 30.9576C249.801 29.7949 251.673 29.6351 251.673 29.6351C251.751 29.667 251.834 29.6821 251.918 29.6794C252.002 29.6766 252.084 29.6561 252.159 29.6192C252.234 29.5823 252.301 29.5298 252.354 29.4652C252.408 29.4006 252.447 29.3254 252.469 29.2446C252.647 28.8659 252.741 28.1677 252.59 26.9014C252.59 26.9014 249.558 26.5139 246.599 23.008C243.641 19.5021 245.058 10.0703 245.058 10.0703C245.851 11.9076 248.99 12.8957 252.623 14.1176C256.256 15.3395 257.806 16.7803 258.197 17.1619C258.587 17.5436 258.762 17.5288 258.762 17.5288C258.762 17.5288 259.04 15.5466 260.155 14.3809C261.271 13.2152 262.392 13.6797 262.283 16.3247C262.22 17.8843 261.553 19.3583 260.422 20.4341Z" fill="url(#paint40_linear_3196_3333)"/>
<path d="M252.469 29.226L252.59 26.8828C252.741 28.1491 252.646 28.8473 252.469 29.226Z" fill="white"/>
<path d="M252.593 26.8828L255.919 27.1136L252.422 30.226L252.593 26.8828Z" fill="#C65252"/>
<path d="M243.957 17.8547C244.076 19.4997 245.256 20.7571 246.585 20.6624C247.913 20.5677 248.901 19.1506 248.78 17.5056C248.768 17.3322 248.742 17.1601 248.703 16.9909C249.59 16.4583 250.182 16.8843 250.324 17.0116C250.315 17.1386 250.315 17.2661 250.324 17.3932C250.442 19.0352 251.608 20.2955 252.922 20.2009C254.235 20.1062 255.206 18.692 255.084 17.0471C255.059 16.6744 254.975 16.3081 254.836 15.9613C255.531 15.8373 256.238 15.7995 256.942 15.8489C257.293 15.8526 257.636 15.95 257.936 16.131C258.236 16.3121 258.483 16.5701 258.649 16.8784L259.028 16.6743C258.832 16.2913 258.536 15.9683 258.171 15.7393C257.807 15.5102 257.387 15.3835 256.957 15.3725C256.174 15.3142 255.387 15.364 254.617 15.5205C254.135 14.695 253.342 14.1773 252.484 14.2394C251.422 14.3163 250.584 15.2571 250.366 16.4849C250.09 16.3259 249.775 16.2459 249.457 16.2537C249.139 16.2615 248.829 16.3569 248.561 16.5293C248.147 15.3932 247.194 14.624 246.144 14.7009C244.809 14.7986 243.824 16.2128 243.957 17.8547ZM250.762 17.3636C250.661 15.982 251.46 14.7927 252.537 14.7009C253.614 14.6092 254.579 15.6802 254.679 17.0678C254.78 18.4553 253.981 19.6387 252.904 19.7157C251.827 19.7926 250.836 18.7453 250.735 17.3636H250.762ZM244.392 17.8252C244.292 16.4435 245.102 15.2542 246.2 15.1625C247.298 15.0708 248.271 16.1417 248.372 17.5293C248.472 18.9169 247.658 20.1003 246.564 20.192C245.469 20.2837 244.466 19.2068 244.366 17.8252H244.392Z" fill="white"/>
<path d="M252.073 17.5516C252.1 17.9244 252.322 18.2084 252.571 18.1907C252.819 18.1729 252.997 17.8593 252.97 17.4865C252.943 17.1138 252.721 16.8268 252.473 16.8445C252.224 16.8623 252.044 17.1788 252.073 17.5516Z" fill="#B02773"/>
<path d="M246.26 17.9813C246.287 18.3511 246.509 18.6381 246.757 18.6203C247.006 18.6026 247.184 18.286 247.157 17.9162C247.13 17.5464 246.908 17.2565 246.66 17.2742C246.411 17.292 246.234 17.6085 246.26 17.9813Z" fill="#B02773"/>
<path d="M249.849 19.3325C249.746 19.7306 249.669 20.1348 249.618 20.5426C249.6 20.6964 249.52 20.9893 249.618 21.1343C249.715 21.2793 250.106 21.3296 250.227 21.3769C250.485 21.4804 250.298 21.9065 250.044 21.8029C249.686 21.6609 249.174 21.6047 249.156 21.0929C249.171 20.465 249.27 19.842 249.452 19.2408C249.455 19.2103 249.465 19.1808 249.48 19.1543C249.496 19.1277 249.517 19.1048 249.542 19.087C249.567 19.0692 249.595 19.0569 249.625 19.051C249.655 19.045 249.686 19.0456 249.716 19.0526C249.746 19.0596 249.774 19.0728 249.798 19.0915C249.823 19.1102 249.843 19.1338 249.857 19.1609C249.872 19.1879 249.88 19.2178 249.882 19.2484C249.884 19.279 249.88 19.3097 249.869 19.3385L249.849 19.3325Z" fill="#C65252"/>
<path d="M253.175 22.144C252.923 22.709 252.686 23.215 252.189 23.5552C251.634 23.8769 251.013 24.0662 250.373 24.1084C250.104 24.1469 250.077 23.6706 250.34 23.6321C250.905 23.6 251.455 23.438 251.947 23.1587C252.379 22.8629 252.574 22.4221 252.793 21.931C252.914 21.6588 253.296 21.8718 253.175 22.144Z" fill="#C65252"/>
<path d="M247.912 30.8438C247.912 30.8438 243.557 33.4354 243.211 33.8023C242.865 34.1691 237.294 52.3227 236.767 52.9056C236.241 53.4884 225.273 61.6747 225.273 61.6747L229.886 66.0267C229.886 66.0267 238.335 60.2812 239.726 59.583C241.116 58.8848 243.744 51.9204 243.744 51.9204C243.744 51.9204 245.649 59.8345 245.474 63.2782C245.3 66.722 241.119 79.2455 242.179 80.3017C243.238 81.3579 245.312 81.6478 245.661 81.062C246.01 80.4762 247.957 62.3552 247.957 62.3552L248.968 47.0388L247.912 30.8438Z" fill="url(#paint41_linear_3196_3333)"/>
<path d="M266.209 30.4838L265.618 42.1463L263.931 75.427C263.931 75.427 259.73 75.8086 255.482 75.9713C251.609 76.1222 247.695 76.0897 246.867 75.427C246.378 75.0364 246.219 74.3175 246.248 73.3737C246.325 70.9448 247.659 66.9981 247.911 63.2348C248.207 58.6668 246.387 53.8296 244.763 49.661C244.526 49.0693 244.299 48.4776 244.08 47.9125C242.337 43.383 247.911 30.8447 247.911 30.8447L252.091 29.4542C252.091 29.4542 252.091 30.1495 251.393 32.2382C250.695 34.3269 252.437 35.7204 253.482 35.0251C254.526 34.3299 258.36 30.1495 259.399 29.4542C260.437 28.759 266.209 30.4838 266.209 30.4838Z" fill="url(#paint42_linear_3196_3333)"/>
<g opacity="0.46">
<path opacity="0.46" d="M265.62 42.1426L263.934 75.4232C263.934 75.4232 259.733 75.8049 255.484 75.9676L254.976 73.37H246.251C246.328 70.9411 247.662 66.9944 247.914 63.2311C248.209 58.6631 246.39 53.8259 244.766 49.6573L251.745 49.9976L257.662 40.2344L265.62 42.1426Z" fill="#B78DAE"/>
</g>
<path d="M278.567 77.5179C278.221 80.3048 262.547 81.364 260.458 81.0001C258.369 80.6362 259.065 79.6066 257.671 72.2931C257.639 72.1363 257.612 71.9735 257.579 71.802C257.411 70.8049 257.251 69.6156 257.103 68.2813C256.807 65.518 256.573 62.1571 256.449 58.7222C256.384 56.8761 256.352 55.0093 256.352 53.2016C256.352 49.1543 256.547 45.3911 256.982 42.8142C257.104 41.9347 257.335 41.074 257.671 40.2521C259.57 36.1338 266.076 30.5806 267.242 29.6013L267.422 29.4534C268.822 29.1724 272.825 32.6871 274.348 34.0835C274.692 34.3971 274.908 34.6042 274.94 34.6338C274.024 37.322 273.304 40.0727 272.783 42.8645C272.345 45.326 272.088 47.9443 272.363 50.1277C272.476 51.0153 272.692 52.1543 272.979 53.4797C274.677 61.2636 278.863 75.1362 278.567 77.5179Z" fill="url(#paint43_linear_3196_3333)"/>
<path opacity="0.62" d="M272.977 53.5109C272.977 53.5109 269.506 68.1291 268.113 69.8716C267.169 71.0551 261.282 71.5935 257.572 71.8184C257.403 70.8213 257.243 69.632 257.095 68.2977C256.799 65.5344 256.566 62.1735 256.441 58.7387C256.376 56.8925 256.344 55.0257 256.344 53.218C256.814 53.0494 257.282 52.9044 257.663 52.8068C259.057 52.4577 264.672 40.875 264.672 40.875C264.672 40.875 268.613 41.7063 272.781 42.8927C272.344 45.3542 272.086 47.9725 272.361 50.1559C272.474 51.0257 272.69 52.1707 272.977 53.5109Z" fill="#B72963"/>
<path d="M215.874 58.4753L220.555 74.0845C220.611 74.2704 220.726 74.4331 220.882 74.5487C221.038 74.6643 221.227 74.7267 221.422 74.7265H228.984C229.123 74.7282 229.26 74.6978 229.385 74.6378C229.511 74.5778 229.62 74.4897 229.706 74.3804C229.792 74.2712 229.852 74.1436 229.88 74.0076C229.909 73.8717 229.906 73.7309 229.871 73.5964L225.812 57.9901C225.765 57.7951 225.652 57.622 225.494 57.499C225.335 57.3759 225.14 57.3102 224.939 57.3126H216.738C216.597 57.3126 216.459 57.3455 216.333 57.4088C216.207 57.472 216.098 57.5638 216.014 57.6768C215.93 57.7897 215.874 57.9208 215.849 58.0594C215.825 58.1981 215.834 58.3405 215.874 58.4753Z" fill="#5D2168"/>
<path d="M232.587 64.9759C232.587 64.9759 227.362 63.5824 225.623 63.5824C223.883 63.5824 222.487 62.8872 222.836 63.5824C223.185 64.2777 223.185 64.6268 224.229 64.9759L226.318 65.6712H220.401C219.008 65.6712 218.312 64.9759 218.312 65.6712C218.312 66.3664 219.007 66.7185 219.706 67.0646C220.404 67.4108 222.487 67.4108 223.185 67.4108C223.564 67.4284 223.937 67.3039 224.229 67.0617C224.229 67.0617 223.531 68.1061 222.836 68.1061C222.141 68.1061 219.005 68.106 218.655 67.7599C218.306 67.4137 217.96 67.0617 218.309 67.7599C218.658 68.4581 219.354 69.8486 220.049 69.8486C220.744 69.8486 222.836 70.1977 223.88 69.8486C224.557 69.6331 225.262 69.5156 225.972 69.4995C225.972 69.4995 224.229 70.1977 223.531 70.5468C222.833 70.896 219.005 69.8486 219.005 70.1977C219.005 70.5468 219.354 71.5912 219.703 71.5912C220.052 71.5912 224.578 72.2865 225.972 72.2865C227.365 72.2865 230.149 69.8486 232.587 69.4995C235.025 69.1504 235.025 64.6268 232.587 64.9759Z" fill="url(#paint44_linear_3196_3333)"/>
<path d="M273.688 33.9812C273.688 33.9812 268.117 32.5877 266.026 37.4634C263.934 42.3391 259.41 55.9217 256.976 58.3596C254.541 60.7974 231.899 61.1465 231.55 62.8891C231.201 64.6317 231.899 71.247 233.293 71.9422C234.686 72.6375 262.197 67.4157 264.635 66.7204C267.073 66.0252 279.958 33.6321 273.688 33.9812Z" fill="url(#paint45_linear_3196_3333)"/>
<path d="M264.975 33.6341L265.673 35.0275L256.969 42.8144C257.091 41.9349 257.322 41.0742 257.658 40.2523C259.557 36.134 266.063 30.5808 267.229 29.6016C267.546 30.3234 267.921 31.1755 268.117 31.5424C268.457 32.2406 264.279 32.2406 264.975 33.6341Z" fill="white"/>
<path d="M266.375 71.9378C266.375 71.9378 270.902 69.5 271.251 69.5C271.6 69.5 273.688 72.2869 273.688 72.2869L267.419 74.7248C267.419 74.7248 265.68 72.2869 266.375 71.9378Z" fill="#FF6575"/>
<path d="M308.969 243.946C308.969 245.95 308.375 247.909 307.261 249.575C306.148 251.241 304.565 252.54 302.714 253.307C300.862 254.074 298.825 254.275 296.859 253.884C294.894 253.493 293.088 252.528 291.671 251.111C290.254 249.694 289.289 247.888 288.898 245.922C288.507 243.957 288.708 241.919 289.474 240.068C290.241 238.216 291.54 236.634 293.207 235.52C294.873 234.407 296.832 233.813 298.836 233.813C300.168 233.809 301.487 234.069 302.718 234.577C303.949 235.085 305.067 235.831 306.009 236.773C306.951 237.714 307.697 238.833 308.205 240.064C308.713 241.295 308.973 242.614 308.969 243.946Z" fill="url(#paint46_linear_3196_3333)"/>
<path d="M301.666 242.136C302.033 240.576 301.066 239.013 299.505 238.646C297.945 238.28 296.383 239.247 296.016 240.808C295.649 242.368 296.616 243.93 298.177 244.297C299.737 244.664 301.3 243.696 301.666 242.136Z" fill="url(#paint47_linear_3196_3333)"/>
<path d="M305.649 251.431C303.783 253.125 301.353 254.064 298.832 254.064C296.312 254.064 293.881 253.125 292.016 251.431C292.365 250.037 292.714 248.703 292.942 247.954C293.32 246.712 295.152 246.475 296.234 246.371C298.008 246.25 299.788 246.263 301.56 246.41C302.619 246.487 304.35 246.744 304.717 247.954C304.953 248.709 305.299 250.043 305.649 251.431Z" fill="url(#paint48_linear_3196_3333)"/>
<path d="M392.178 196.18H302.002C301.162 196.18 300.357 196.513 299.763 197.107C299.169 197.701 298.836 198.506 298.836 199.345V222.037C298.837 222.876 299.171 223.681 299.764 224.274C300.358 224.867 301.163 225.2 302.002 225.2H308.2L307.342 230.549C307.294 230.848 307.336 231.154 307.461 231.429C307.586 231.704 307.79 231.937 308.047 232.097C308.304 232.257 308.602 232.338 308.904 232.329C309.207 232.321 309.5 232.223 309.747 232.049L318.291 226.031C318.581 225.833 318.791 225.539 318.883 225.2H392.178C393.017 225.2 393.822 224.867 394.415 224.274C395.009 223.681 395.343 222.876 395.343 222.037V199.345C395.343 198.506 395.01 197.701 394.416 197.107C393.823 196.513 393.017 196.18 392.178 196.18Z" fill="url(#paint49_linear_3196_3333)"/>
<path d="M323.837 211.135C323.838 212.695 323.376 214.22 322.51 215.517C321.643 216.815 320.412 217.826 318.97 218.424C317.529 219.021 315.943 219.178 314.413 218.874C312.883 218.57 311.477 217.819 310.374 216.716C309.27 215.613 308.519 214.207 308.214 212.677C307.91 211.147 308.066 209.561 308.663 208.12C309.26 206.678 310.27 205.446 311.568 204.58C312.865 203.713 314.39 203.25 315.95 203.25C316.987 203.246 318.014 203.447 318.972 203.842C319.931 204.237 320.802 204.818 321.535 205.55C322.268 206.283 322.849 207.154 323.244 208.112C323.639 209.071 323.841 210.098 323.837 211.135Z" fill="url(#paint50_linear_3196_3333)"/>
<path d="M315.945 211.452C317.192 211.452 318.202 210.442 318.202 209.195C318.202 207.948 317.192 206.938 315.945 206.938C314.698 206.938 313.688 207.948 313.688 209.195C313.688 210.442 314.698 211.452 315.945 211.452Z" fill="url(#paint51_linear_3196_3333)"/>
<path d="M321.253 216.969C319.802 218.291 317.909 219.023 315.947 219.023C313.984 219.023 312.092 218.291 310.641 216.969C310.91 215.889 311.182 214.848 311.36 214.265C311.655 213.298 313.081 213.102 313.925 213.034C315.304 212.938 316.689 212.948 318.067 213.064C318.892 213.123 320.241 213.321 320.525 214.265C320.709 214.848 320.981 215.889 321.253 216.969Z" fill="url(#paint52_linear_3196_3333)"/>
<path d="M376.483 204.852H330.921C330.624 204.852 330.383 205.093 330.383 205.39V206.393C330.383 206.69 330.624 206.931 330.921 206.931H376.483C376.78 206.931 377.021 206.69 377.021 206.393V205.39C377.021 205.093 376.78 204.852 376.483 204.852Z" fill="url(#paint53_linear_3196_3333)"/>
<path d="M358.974 211.133H330.921C330.624 211.133 330.383 211.374 330.383 211.671V212.674C330.383 212.972 330.624 213.213 330.921 213.213H358.974C359.272 213.213 359.513 212.972 359.513 212.674V211.671C359.513 211.374 359.272 211.133 358.974 211.133Z" fill="url(#paint54_linear_3196_3333)"/>
<path d="M347.66 19.0154C347.447 14.98 345.805 12.7315 343.962 11.4859C342.318 10.4274 340.393 9.89016 338.439 9.94454C338.431 9.95954 338.425 9.97544 338.421 9.99188V9.94454C338.421 9.94454 329.705 9.35284 329.199 19.0154C329.019 22.4414 330.119 25.8497 331.625 28.8319C333.424 32.288 335.716 35.4642 338.43 38.2607V38.172C338.434 38.2019 338.44 38.2315 338.447 38.2607C338.447 38.2607 348.166 28.6751 347.66 19.0154ZM338.427 23.3763C337.484 23.3757 336.563 23.0957 335.779 22.5717C334.995 22.0477 334.384 21.3032 334.024 20.4322C333.663 19.5612 333.568 18.6029 333.752 17.6782C333.936 16.7535 334.389 15.904 335.055 15.2369C335.722 14.5699 336.57 14.1153 337.495 13.9305C338.419 13.7457 339.378 13.8391 340.249 14.1988C341.121 14.5584 341.866 15.1683 342.391 15.9514C342.916 16.7344 343.197 17.6555 343.199 18.5983C343.205 19.2269 343.085 19.8504 342.848 20.4324C342.61 21.0143 342.259 21.5431 341.815 21.9879C341.37 22.4327 340.842 22.7846 340.26 23.0229C339.679 23.2613 339.055 23.3814 338.427 23.3763Z" fill="url(#paint55_linear_3196_3333)"/>
<path d="M319.896 246.575L334.393 232.809C335.135 232.103 336.091 231.666 337.11 231.568C338.13 231.47 339.152 231.716 340.015 232.268L358.568 244.063C359.189 244.458 359.706 244.998 360.074 245.635C360.443 246.273 360.653 246.99 360.685 247.725C360.718 248.461 360.572 249.194 360.261 249.861C359.95 250.529 359.483 251.112 358.899 251.56L349.39 258.865C348.857 259.275 348.24 259.563 347.583 259.707C346.925 259.851 346.244 259.848 345.588 259.699L322.038 254.374C321.228 254.192 320.481 253.793 319.88 253.219C319.279 252.646 318.845 251.919 318.624 251.118C318.404 250.317 318.406 249.47 318.631 248.67C318.855 247.87 319.292 247.146 319.896 246.575Z" fill="#322D6A"/>
<path d="M368.027 253.9C370.427 251.5 370.427 247.609 368.027 245.21C365.628 242.81 361.737 242.81 359.337 245.21C356.938 247.609 356.938 251.5 359.337 253.9C361.737 256.3 365.628 256.3 368.027 253.9Z" fill="url(#paint56_linear_3196_3333)"/>
<path d="M406.581 160.213C407.88 157.078 406.391 153.483 403.255 152.185C400.12 150.886 396.525 152.375 395.227 155.51C393.928 158.646 395.417 162.24 398.552 163.539C401.688 164.838 405.282 163.349 406.581 160.213Z" fill="url(#paint57_linear_3196_3333)"/>
<path d="M384.782 308.021L365.105 324.435H282.242C276.538 324.435 271.914 319.663 271.914 313.785V275.986L289.813 257.33C291.06 256.029 292.68 255.149 294.45 254.811C296.219 254.472 298.05 254.693 299.689 255.442L382.824 293.459C384.158 294.069 385.317 295.007 386.191 296.186C387.065 297.365 387.626 298.746 387.821 300.2C388.017 301.654 387.841 303.134 387.309 304.502C386.778 305.87 385.908 307.081 384.782 308.021Z" fill="#322D6A"/>
<path d="M419.776 235.523V272.984L405.519 261.446C404.602 260.705 403.846 259.785 403.297 258.742C402.748 257.699 402.417 256.555 402.324 255.38C402.231 254.205 402.379 253.023 402.758 251.907C403.136 250.79 403.739 249.763 404.528 248.887L413.995 238.361C415.486 236.707 417.556 235.691 419.776 235.523Z" fill="#322D6A"/>
<g opacity="0.64">
<path opacity="0.64" d="M289.247 265.891H403.875C405.187 265.891 406.445 266.412 407.373 267.339C408.301 268.267 408.822 269.525 408.822 270.837V280.08C408.822 281.392 408.3 282.651 407.372 283.58C406.444 284.508 405.185 285.029 403.872 285.029H289.247C287.934 285.029 286.675 284.508 285.747 283.58C284.818 282.651 284.297 281.392 284.297 280.08V270.837C284.297 270.187 284.425 269.544 284.674 268.944C284.922 268.343 285.287 267.798 285.747 267.338C286.206 266.879 286.752 266.515 287.353 266.266C287.953 266.018 288.597 265.89 289.247 265.891Z" fill="white"/>
</g>
<path d="M397.692 271.634C397.108 271.046 396.367 270.639 395.557 270.461C394.747 270.282 393.903 270.34 393.126 270.628C392.348 270.916 391.67 271.422 391.172 272.085C390.674 272.747 390.377 273.539 390.316 274.366C390.256 275.193 390.434 276.02 390.831 276.748C391.227 277.476 391.824 278.075 392.552 278.473C393.279 278.871 394.105 279.052 394.932 278.993C395.759 278.935 396.552 278.64 397.216 278.143L399.435 280.359C399.553 280.477 399.712 280.543 399.879 280.543C400.045 280.543 400.205 280.477 400.323 280.359C400.44 280.241 400.506 280.082 400.506 279.915C400.506 279.749 400.44 279.589 400.323 279.471L398.104 277.253C398.719 276.422 399.015 275.398 398.94 274.367C398.864 273.336 398.422 272.367 397.692 271.634ZM396.894 276.96C396.447 277.407 395.879 277.711 395.259 277.834C394.64 277.958 393.998 277.895 393.414 277.653C392.831 277.412 392.332 277.003 391.981 276.478C391.63 275.953 391.443 275.335 391.443 274.704C391.443 274.072 391.63 273.455 391.981 272.93C392.332 272.405 392.831 271.996 393.414 271.754C393.998 271.513 394.64 271.45 395.259 271.573C395.879 271.697 396.447 272.001 396.894 272.448C397.489 273.044 397.825 273.852 397.828 274.695C397.83 275.538 397.5 276.347 396.908 276.948L396.894 276.96Z" fill="url(#paint58_linear_3196_3333)"/>
<path opacity="0.68" d="M419.775 294.43V313.779C419.775 314.005 419.769 314.233 419.757 314.462C419.414 320.033 414.926 324.441 409.444 324.441H282.227C276.523 324.441 271.898 319.669 271.898 313.79V294.442L419.775 294.43Z" fill="white"/>
<path d="M522.859 333H166.541C165.69 333 165 333.69 165 334.541V337.423C165 338.274 165.69 338.964 166.541 338.964H522.859C523.71 338.964 524.4 338.274 524.4 337.423V334.541C524.4 333.69 523.71 333 522.859 333Z" fill="#BFB4D6"/>
<path d="M355.714 344.039H201.763C200.973 344.039 200.214 344.353 199.655 344.913C199.095 345.472 198.781 346.23 198.781 347.021C198.781 347.812 199.095 348.571 199.655 349.13C200.214 349.689 200.973 350.003 201.763 350.003H355.714C356.505 350.003 357.263 349.689 357.823 349.13C358.382 348.571 358.696 347.812 358.696 347.021C358.696 346.23 358.382 345.472 357.823 344.913C357.263 344.353 356.505 344.039 355.714 344.039Z" fill="#BFB4D6"/>
<path d="M470.279 347.013C470.279 347.405 470.203 347.793 470.053 348.155C469.903 348.517 469.683 348.846 469.406 349.123C469.129 349.4 468.8 349.62 468.439 349.769C468.077 349.919 467.689 349.996 467.297 349.996H373.053C372.262 349.996 371.503 349.681 370.944 349.122C370.385 348.563 370.07 347.804 370.07 347.013C370.07 346.223 370.385 345.464 370.944 344.905C371.503 344.345 372.262 344.031 373.053 344.031H467.288C467.68 344.03 468.069 344.106 468.432 344.256C468.795 344.405 469.125 344.625 469.402 344.902C469.68 345.179 469.901 345.508 470.051 345.87C470.202 346.233 470.279 346.621 470.279 347.013Z" fill="#BFB4D6"/>
<path d="M310.186 310.444C310.183 309.982 310.072 309.528 309.862 309.117C309.651 308.706 309.348 308.35 308.976 308.077C308.888 308.004 308.82 307.909 308.78 307.802C308.289 306.421 307.804 305.041 307.325 303.66C307.129 303.02 306.726 302.463 306.181 302.075C305.635 301.688 304.976 301.492 304.307 301.518H296.461C295.792 301.491 295.134 301.687 294.588 302.074C294.042 302.46 293.64 303.017 293.443 303.657C292.958 305.036 292.476 306.417 291.985 307.799C291.946 307.906 291.879 308 291.79 308.071C291.417 308.344 291.114 308.7 290.904 309.111C290.694 309.522 290.583 309.976 290.58 310.438C290.559 312.237 290.58 314.033 290.58 315.829C290.587 316.093 290.656 316.352 290.781 316.586C290.937 316.872 291.184 317.099 291.482 317.231C291.781 317.362 292.115 317.391 292.432 317.314C292.748 317.241 293.031 317.067 293.238 316.818C293.446 316.569 293.566 316.259 293.579 315.935C293.579 315.598 293.579 315.26 293.579 314.879C298.105 315.144 302.642 315.144 307.168 314.879C307.168 315.009 307.168 315.104 307.168 315.198C307.158 315.521 307.172 315.845 307.212 316.166C307.284 316.521 307.483 316.837 307.772 317.055C308.061 317.273 308.42 317.378 308.78 317.349C309.164 317.324 309.523 317.153 309.784 316.871C310.045 316.59 310.187 316.218 310.183 315.834C310.195 314.039 310.204 312.24 310.186 310.444ZM294.047 306.506C294.343 305.657 294.639 304.808 294.934 303.968C295.048 303.673 295.252 303.421 295.518 303.251C295.785 303.081 296.098 303 296.414 303.021H304.281C304.645 302.988 305.009 303.086 305.307 303.298C305.605 303.511 305.817 303.823 305.905 304.178C306.159 304.906 306.415 305.633 306.671 306.361C306.872 306.953 306.597 307.293 305.999 307.198C303.857 306.881 301.691 306.749 299.526 306.805C297.941 306.825 296.359 306.956 294.792 307.195C294.727 307.195 294.662 307.213 294.594 307.216C294.505 307.226 294.414 307.213 294.331 307.178C294.248 307.143 294.175 307.087 294.12 307.016C294.065 306.944 294.03 306.86 294.017 306.771C294.004 306.681 294.014 306.59 294.047 306.506ZM293.967 312.071C293.743 312.071 293.524 312.003 293.338 311.878C293.152 311.753 293.008 311.575 292.923 311.367C292.839 311.16 292.818 310.932 292.863 310.712C292.909 310.493 293.018 310.292 293.178 310.135C293.338 309.977 293.541 309.872 293.762 309.83C293.982 309.789 294.21 309.814 294.416 309.902C294.622 309.991 294.797 310.138 294.919 310.326C295.04 310.515 295.104 310.735 295.1 310.959C295.099 311.258 294.979 311.545 294.766 311.756C294.554 311.967 294.267 312.086 293.967 312.086V312.071ZM306.783 312.071C306.63 312.077 306.478 312.053 306.334 311.998C306.191 311.943 306.061 311.86 305.951 311.754C305.841 311.647 305.753 311.519 305.694 311.378C305.635 311.237 305.605 311.085 305.607 310.932C305.608 310.778 305.641 310.627 305.702 310.487C305.764 310.347 305.854 310.22 305.966 310.116C306.078 310.011 306.21 309.931 306.354 309.879C306.498 309.827 306.651 309.805 306.804 309.814C306.957 309.807 307.11 309.832 307.253 309.887C307.396 309.942 307.527 310.025 307.637 310.131C307.747 310.238 307.834 310.366 307.893 310.507C307.952 310.648 307.982 310.8 307.981 310.953C307.979 311.107 307.947 311.258 307.885 311.398C307.823 311.538 307.734 311.665 307.622 311.769C307.51 311.874 307.378 311.954 307.234 312.006C307.09 312.058 306.936 312.08 306.783 312.071Z" fill="white"/>
<path d="M338.518 301.75H327.678C326.586 301.75 326.042 302.294 326.039 303.38C326.039 305.339 326.039 307.296 326.039 309.253C326.039 311.209 326.039 313.167 326.039 315.126C326.039 316.41 326.743 317.111 328.024 317.111H338.163C339.447 317.111 340.157 316.413 340.157 315.134V303.389C340.154 302.3 339.604 301.75 338.518 301.75ZM328.826 315.519C328.547 315.511 328.283 315.393 328.091 315.191C327.898 314.99 327.792 314.721 327.796 314.442C327.799 314.231 327.865 314.026 327.985 313.853C328.105 313.68 328.274 313.546 328.47 313.469C328.666 313.392 328.881 313.375 329.087 313.42C329.293 313.466 329.48 313.571 329.626 313.723C329.772 313.876 329.869 314.068 329.905 314.276C329.941 314.483 329.914 314.697 329.829 314.89C329.743 315.082 329.602 315.245 329.423 315.357C329.245 315.469 329.037 315.525 328.826 315.519ZM332.489 308.856C332.489 309.777 332.489 310.694 332.489 311.611C332.489 311.948 332.394 312.093 332.036 312.087C330.717 312.069 329.394 312.087 328.075 312.087C327.965 312.101 327.854 312.09 327.75 312.055C327.645 312.02 327.55 311.962 327.47 311.886C327.391 311.809 327.33 311.716 327.292 311.612C327.254 311.509 327.239 311.398 327.249 311.288C327.235 309.649 327.235 308.011 327.249 306.374C327.249 305.824 327.545 305.561 328.107 305.558C329.412 305.558 330.714 305.558 332.018 305.558C332.412 305.558 332.498 305.717 332.489 306.067C332.477 306.984 332.489 307.922 332.489 308.856ZM337.353 315.522C337.142 315.527 336.934 315.47 336.756 315.357C336.578 315.244 336.438 315.08 336.353 314.887C336.269 314.694 336.243 314.48 336.28 314.273C336.318 314.065 336.416 313.874 336.562 313.722C336.709 313.57 336.897 313.466 337.103 313.422C337.309 313.378 337.524 313.396 337.72 313.474C337.916 313.552 338.084 313.687 338.203 313.861C338.322 314.035 338.386 314.24 338.388 314.451C338.392 314.73 338.285 314.999 338.091 315.2C337.897 315.401 337.632 315.517 337.353 315.522ZM338.935 311.229C338.935 311.821 338.639 312.078 338.063 312.078C336.776 312.078 335.489 312.078 334.202 312.078C333.79 312.078 333.684 311.933 333.69 311.555C333.711 310.634 333.69 309.714 333.69 308.794C333.69 307.874 333.69 306.954 333.69 306.034C333.69 305.688 333.77 305.522 334.166 305.528C335.468 305.552 336.773 305.528 338.074 305.528C338.666 305.528 338.929 305.8 338.932 306.395C338.941 308.022 338.944 309.626 338.935 311.229Z" fill="white"/>
<path d="M373.946 307.843V313.89C373.946 314.13 373.899 314.369 373.806 314.591C373.714 314.813 373.58 315.015 373.409 315.185C373.239 315.355 373.038 315.49 372.815 315.582C372.593 315.674 372.355 315.721 372.115 315.721H359.597C359.356 315.721 359.118 315.674 358.896 315.582C358.674 315.49 358.472 315.355 358.302 315.185C358.132 315.015 357.997 314.813 357.905 314.591C357.813 314.369 357.766 314.13 357.766 313.89V307.156L365.854 312.186L373.946 307.843Z" fill="white"/>
<path d="M373.953 306.706V306.872L365.85 311.085L357.797 306.334C357.884 305.921 358.109 305.552 358.436 305.286C358.763 305.021 359.172 304.875 359.593 304.875H372.122C372.608 304.875 373.074 305.068 373.417 305.411C373.76 305.755 373.953 306.221 373.953 306.706Z" fill="white"/>
<path d="M396.745 306.452C397.056 305.135 396.24 303.816 394.924 303.505C393.607 303.195 392.288 304.01 391.977 305.327C391.666 306.644 392.481 307.963 393.798 308.274C395.115 308.584 396.434 307.769 396.745 306.452Z" fill="white"/>
<path d="M400.127 314.343C398.549 315.772 396.497 316.563 394.368 316.563C392.24 316.563 390.187 315.772 388.609 314.343C388.905 313.16 389.201 312.039 389.39 311.406C389.71 310.358 391.26 310.145 392.174 310.071C393.674 309.967 395.179 309.977 396.677 310.101C397.565 310.166 399.044 310.397 399.34 311.406C399.538 312.039 399.831 313.169 400.127 314.343Z" fill="white"/>
<path d="M240.625 285.475C240.625 285.475 238.888 261.629 232.341 248.452C225.794 235.274 215.847 220.328 218.024 222.147C220.202 223.967 229.317 240.283 234.415 246.002L239.515 251.712C239.515 251.712 234.722 232.656 229.329 221.988C223.936 211.319 218.868 200.55 221.764 203.967C224.66 207.384 239.219 224.485 243.497 245.993C247.775 267.502 248.213 281.002 248.213 281.002C248.213 281.002 242.571 246.162 245.181 213.934C247.79 181.707 246.66 173.867 247.793 181.707C248.926 189.547 250.116 215.085 250.16 243.245C250.204 271.404 250.16 285.472 250.16 285.472C250.16 285.472 252.272 249.789 256 237.085C259.728 224.381 262.213 220.165 262.213 220.165L252.42 287.531L240.625 285.475Z" fill="#52895A"/>
<path d="M240.626 278.315C240.626 278.315 239.306 223.716 234.413 207.5C229.519 191.284 224.303 185.607 229.522 191.281C234.741 196.956 237.558 207.234 240.623 220.162C243.688 233.091 244.918 276.117 244.918 276.117C244.918 276.117 243.569 251.727 250.167 224.775C256.764 197.823 269.8 176.912 269.054 182.571C268.309 188.231 254.824 210.343 252.433 233.695C250.043 257.047 250.167 276.117 250.167 276.117L240.626 278.315Z" fill="url(#paint59_linear_3196_3333)"/>
<path d="M258.019 275.474L255.818 328.287C255.709 330.92 253.451 332.999 250.709 332.999H239.656C236.913 332.999 234.659 330.928 234.549 328.287L232.348 275.474C232.23 272.687 234.552 270.367 237.457 270.367H252.91C255.815 270.37 258.135 272.687 258.019 275.474Z" fill="url(#paint60_linear_3196_3333)"/>
<g opacity="0.35">
<path opacity="0.35" d="M450.188 82.787C450.877 79.8673 449.069 76.9418 446.149 76.2526C443.23 75.5635 440.304 77.3718 439.615 80.2915C438.926 83.2112 440.734 86.1368 443.654 86.8259C446.574 87.515 449.499 85.7067 450.188 82.787Z" fill="url(#paint61_linear_3196_3333)"/>
<path opacity="0.35" d="M435.647 50.3642C436.889 50.3642 437.895 49.3575 437.895 48.1157C437.895 46.8739 436.889 45.8672 435.647 45.8672C434.405 45.8672 433.398 46.8739 433.398 48.1157C433.398 49.3575 434.405 50.3642 435.647 50.3642Z" fill="url(#paint62_linear_3196_3333)"/>
<path opacity="0.35" d="M197.615 200.853C199.173 199.295 199.173 196.768 197.615 195.209C196.056 193.651 193.529 193.651 191.971 195.209C190.412 196.768 190.412 199.295 191.971 200.853C193.529 202.412 196.056 202.412 197.615 200.853Z" fill="url(#paint63_linear_3196_3333)"/>
<path opacity="0.35" d="M205.873 233.207C209.789 233.207 212.964 230.032 212.964 226.115C212.964 222.198 209.789 219.023 205.873 219.023C201.956 219.023 198.781 222.198 198.781 226.115C198.781 230.032 201.956 233.207 205.873 233.207Z" fill="url(#paint64_linear_3196_3333)"/>
<path opacity="0.35" d="M240.455 178.377C240.456 178.975 240.279 179.56 239.947 180.057C239.615 180.555 239.143 180.942 238.59 181.171C238.037 181.4 237.429 181.459 236.843 181.342C236.256 181.225 235.718 180.936 235.296 180.513C234.873 180.089 234.586 179.55 234.471 178.963C234.355 178.376 234.417 177.768 234.647 177.217C234.877 176.665 235.266 176.194 235.765 175.863C236.263 175.532 236.849 175.357 237.447 175.359C238.245 175.362 239.011 175.681 239.575 176.246C240.139 176.812 240.455 177.578 240.455 178.377Z" fill="url(#paint65_linear_3196_3333)"/>
<path opacity="0.35" d="M438.507 183.259C438.706 182.03 437.87 180.872 436.641 180.673C435.411 180.475 434.254 181.31 434.055 182.54C433.856 183.769 434.692 184.927 435.921 185.125C437.151 185.324 438.308 184.488 438.507 183.259Z" fill="url(#paint66_linear_3196_3333)"/>
<path opacity="0.35" d="M504.802 290.353C506.02 289.136 506.02 287.161 504.802 285.943C503.585 284.726 501.61 284.726 500.392 285.943C499.175 287.161 499.175 289.136 500.392 290.353C501.61 291.571 503.585 291.571 504.802 290.353Z" fill="url(#paint67_linear_3196_3333)"/>
<path opacity="0.35" d="M199.312 298.576C201.805 298.576 203.826 296.555 203.826 294.062C203.826 291.568 201.805 289.547 199.312 289.547C196.818 289.547 194.797 291.568 194.797 294.062C194.797 296.555 196.818 298.576 199.312 298.576Z" fill="url(#paint68_linear_3196_3333)"/>
<path opacity="0.35" d="M305.607 26.8856C307.012 26.8856 308.151 25.7464 308.151 24.3412C308.151 22.936 307.012 21.7969 305.607 21.7969C304.202 21.7969 303.062 22.936 303.062 24.3412C303.062 25.7464 304.202 26.8856 305.607 26.8856Z" fill="url(#paint69_linear_3196_3333)"/>
</g>
</g>
<defs>
<linearGradient id="paint0_linear_3196_3333" x1="206.479" y1="81.5807" x2="275.528" y2="81.5807" gradientUnits="userSpaceOnUse">
<stop stop-color="#C2BFC7"/>
<stop offset="1" stop-color="#7C83BA"/>
</linearGradient>
<linearGradient id="paint1_linear_3196_3333" x1="41975.7" y1="95788.9" x2="41975.7" y2="306830" gradientUnits="userSpaceOnUse">
<stop stop-color="#C2BFC7"/>
<stop offset="1" stop-color="#7C83BA"/>
</linearGradient>
<linearGradient id="paint2_linear_3196_3333" x1="138635" y1="115836" x2="138635" y2="371200" gradientUnits="userSpaceOnUse">
<stop stop-color="#C2BFC7"/>
<stop offset="1" stop-color="#7C83BA"/>
</linearGradient>
<linearGradient id="paint3_linear_3196_3333" x1="57386.2" y1="17760.5" x2="57386.2" y2="56290.1" gradientUnits="userSpaceOnUse">
<stop stop-color="#C2BFC7"/>
<stop offset="1" stop-color="#7C83BA"/>
</linearGradient>
<linearGradient id="paint4_linear_3196_3333" x1="25542.1" y1="26499.9" x2="25542.1" y2="84351.9" gradientUnits="userSpaceOnUse">
<stop stop-color="#C2BFC7"/>
<stop offset="1" stop-color="#7C83BA"/>
</linearGradient>
<linearGradient id="paint5_linear_3196_3333" x1="345.844" y1="57.6402" x2="345.844" y2="307.089" gradientUnits="userSpaceOnUse">
<stop stop-color="#7CB0BA"/>
<stop offset="1" stop-color="#5E68A1"/>
</linearGradient>
<linearGradient id="paint6_linear_3196_3333" x1="271.91" y1="235.686" x2="419.775" y2="235.686" gradientUnits="userSpaceOnUse">
<stop stop-color="#FFFFDF"/>
<stop offset="1" stop-color="#F0E6E6"/>
</linearGradient>
<linearGradient id="paint7_linear_3196_3333" x1="40021.4" y1="32861.5" x2="58855.6" y2="32861.5" gradientUnits="userSpaceOnUse">
<stop stop-color="#FFFFDF"/>
<stop offset="1" stop-color="#F0E6E6"/>
</linearGradient>
<linearGradient id="paint8_linear_3196_3333" x1="79009.9" y1="50188.2" x2="152911" y2="50188.2" gradientUnits="userSpaceOnUse">
<stop stop-color="#FFFFDF"/>
<stop offset="1" stop-color="#F0E6E6"/>
</linearGradient>
<linearGradient id="paint9_linear_3196_3333" x1="69113" y1="26860.6" x2="101735" y2="26860.6" gradientUnits="userSpaceOnUse">
<stop stop-color="#FFFFDF"/>
<stop offset="1" stop-color="#F0E6E6"/>
</linearGradient>
<linearGradient id="paint10_linear_3196_3333" x1="78391.2" y1="41302.8" x2="142995" y2="41302.8" gradientUnits="userSpaceOnUse">
<stop stop-color="#FFFFDF"/>
<stop offset="1" stop-color="#F0E6E6"/>
</linearGradient>
<linearGradient id="paint11_linear_3196_3333" x1="49328.9" y1="12498.1" x2="60987.4" y2="12498.1" gradientUnits="userSpaceOnUse">
<stop stop-color="#FFFFDF"/>
<stop offset="1" stop-color="#F0E6E6"/>
</linearGradient>
<linearGradient id="paint12_linear_3196_3333" x1="15712.6" y1="9275.14" x2="18554.6" y2="9275.14" gradientUnits="userSpaceOnUse">
<stop stop-color="#FFFFDF"/>
<stop offset="1" stop-color="#F0E6E6"/>
</linearGradient>
<linearGradient id="paint13_linear_3196_3333" x1="33722.9" y1="23260.7" x2="47061.1" y2="23260.7" gradientUnits="userSpaceOnUse">
<stop stop-color="#FFFFDF"/>
<stop offset="1" stop-color="#F0E6E6"/>
</linearGradient>
<linearGradient id="paint14_linear_3196_3333" x1="51389.6" y1="43593.1" x2="82537.4" y2="43593.1" gradientUnits="userSpaceOnUse">
<stop stop-color="#FFFFDF"/>
<stop offset="1" stop-color="#F0E6E6"/>
</linearGradient>
<linearGradient id="paint15_linear_3196_3333" x1="75903.2" y1="66353" x2="144088" y2="66353" gradientUnits="userSpaceOnUse">
<stop stop-color="#FFFFDF"/>
<stop offset="1" stop-color="#F0E6E6"/>
</linearGradient>
<linearGradient id="paint16_linear_3196_3333" x1="79009.9" y1="81848.3" x2="152911" y2="81848.3" gradientUnits="userSpaceOnUse">
<stop stop-color="#FFFFDF"/>
<stop offset="1" stop-color="#F0E6E6"/>
</linearGradient>
<linearGradient id="paint17_linear_3196_3333" x1="271.914" y1="139.699" x2="391.691" y2="139.699" gradientUnits="userSpaceOnUse">
<stop stop-color="#CED9FD"/>
<stop offset="1" stop-color="white"/>
</linearGradient>
<linearGradient id="paint18_linear_3196_3333" x1="132450" y1="23528.8" x2="132450" y2="31741.2" gradientUnits="userSpaceOnUse">
<stop stop-color="#FFFFDF"/>
<stop offset="1" stop-color="#F0E6E6"/>
</linearGradient>
<linearGradient id="paint19_linear_3196_3333" x1="244.92" y1="116.69" x2="259.917" y2="116.69" gradientUnits="userSpaceOnUse">
<stop stop-color="#7C83BA"/>
<stop offset="1" stop-color="#6D54B0"/>
</linearGradient>
<linearGradient id="paint20_linear_3196_3333" x1="20610.4" y1="1626.81" x2="25711.6" y2="1626.81" gradientUnits="userSpaceOnUse">
<stop stop-color="#7C83BA"/>
<stop offset="1" stop-color="#6D54B0"/>
</linearGradient>
<linearGradient id="paint21_linear_3196_3333" x1="14288" y1="1626.81" x2="15751.8" y2="1626.81" gradientUnits="userSpaceOnUse">
<stop stop-color="#7C83BA"/>
<stop offset="1" stop-color="#6D54B0"/>
</linearGradient>
<linearGradient id="paint22_linear_3196_3333" x1="13249.1" y1="1715.54" x2="15326.2" y2="1715.54" gradientUnits="userSpaceOnUse">
<stop stop-color="#7C83BA"/>
<stop offset="1" stop-color="#6D54B0"/>
</linearGradient>
<linearGradient id="paint23_linear_3196_3333" x1="8909.87" y1="1715.54" x2="9559.8" y2="1715.54" gradientUnits="userSpaceOnUse">
<stop stop-color="#7C83BA"/>
<stop offset="1" stop-color="#6D54B0"/>
</linearGradient>
<linearGradient id="paint24_linear_3196_3333" x1="13249.1" y1="1791.47" x2="15326.2" y2="1791.47" gradientUnits="userSpaceOnUse">
<stop stop-color="#7C83BA"/>
<stop offset="1" stop-color="#6D54B0"/>
</linearGradient>
<linearGradient id="paint25_linear_3196_3333" x1="23602.5" y1="1626.81" x2="25954.7" y2="1626.81" gradientUnits="userSpaceOnUse">
<stop stop-color="#7C83BA"/>
<stop offset="1" stop-color="#6D54B0"/>
</linearGradient>
<linearGradient id="paint26_linear_3196_3333" x1="15196.6" y1="1715.54" x2="16154.3" y2="1715.54" gradientUnits="userSpaceOnUse">
<stop stop-color="#7C83BA"/>
<stop offset="1" stop-color="#6D54B0"/>
</linearGradient>
<linearGradient id="paint27_linear_3196_3333" x1="15196.6" y1="1791.47" x2="16154.3" y2="1791.47" gradientUnits="userSpaceOnUse">
<stop stop-color="#7C83BA"/>
<stop offset="1" stop-color="#6D54B0"/>
</linearGradient>
<linearGradient id="paint28_linear_3196_3333" x1="18466.5" y1="13416.3" x2="20280.3" y2="13416.3" gradientUnits="userSpaceOnUse">
<stop stop-color="#7C83BA"/>
<stop offset="1" stop-color="#6D54B0"/>
</linearGradient>
<linearGradient id="paint29_linear_3196_3333" x1="7020.88" y1="8848.61" x2="7244.81" y2="8848.61" gradientUnits="userSpaceOnUse">
<stop stop-color="#7C83BA"/>
<stop offset="1" stop-color="#6D54B0"/>
</linearGradient>
<linearGradient id="paint30_linear_3196_3333" x1="465.864" y1="191.843" x2="465.864" y2="301.513" gradientUnits="userSpaceOnUse">
<stop stop-color="#FF6575"/>
<stop offset="1" stop-color="#D43672"/>
</linearGradient>
<linearGradient id="paint31_linear_3196_3333" x1="474.053" y1="116.02" x2="464.319" y2="142.198" gradientUnits="userSpaceOnUse">
<stop stop-color="#FFD3B6"/>
<stop offset="1" stop-color="#F48E76"/>
</linearGradient>
<linearGradient id="paint32_linear_3196_3333" x1="20382" y1="23893.2" x2="21271.9" y2="23893.2" gradientUnits="userSpaceOnUse">
<stop stop-color="#7C83BA"/>
<stop offset="1" stop-color="#6D54B0"/>
</linearGradient>
<linearGradient id="paint33_linear_3196_3333" x1="45757.8" y1="38667" x2="48198.1" y2="48006.1" gradientUnits="userSpaceOnUse">
<stop stop-color="#7C83BA"/>
<stop offset="1" stop-color="#6D54B0"/>
</linearGradient>
<linearGradient id="paint34_linear_3196_3333" x1="21525.4" y1="6727.63" x2="22572.5" y2="6727.63" gradientUnits="userSpaceOnUse">
<stop stop-color="#FFD3B6"/>
<stop offset="1" stop-color="#F48E76"/>
</linearGradient>
<linearGradient id="paint35_linear_3196_3333" x1="22275.3" y1="30154.8" x2="23289.5" y2="30154.8" gradientUnits="userSpaceOnUse">
<stop stop-color="#FFD3B6"/>
<stop offset="1" stop-color="#F48E76"/>
</linearGradient>
<linearGradient id="paint36_linear_3196_3333" x1="28282.8" y1="27926" x2="29997.5" y2="27926" gradientUnits="userSpaceOnUse">
<stop stop-color="#FFD3B6"/>
<stop offset="1" stop-color="#F48E76"/>
</linearGradient>
<linearGradient id="paint37_linear_3196_3333" x1="36154.9" y1="28368.4" x2="39725.2" y2="28368.4" gradientUnits="userSpaceOnUse">
<stop stop-color="#7C83BA"/>
<stop offset="1" stop-color="#6D54B0"/>
</linearGradient>
<linearGradient id="paint38_linear_3196_3333" x1="8135.74" y1="24277" x2="9862.06" y2="24277" gradientUnits="userSpaceOnUse">
<stop stop-color="#FFD3B6"/>
<stop offset="1" stop-color="#F48E76"/>
</linearGradient>
<linearGradient id="paint39_linear_3196_3333" x1="6768.01" y1="15888.3" x2="10313.3" y2="15888.3" gradientUnits="userSpaceOnUse">
<stop stop-color="#FFD3B6"/>
<stop offset="1" stop-color="#F48E76"/>
</linearGradient>
<linearGradient id="paint40_linear_3196_3333" x1="8477.39" y1="6634.08" x2="9307.19" y2="9854.26" gradientUnits="userSpaceOnUse">
<stop stop-color="#FFD3B6"/>
<stop offset="1" stop-color="#F48E76"/>
</linearGradient>
<linearGradient id="paint41_linear_3196_3333" x1="9107.56" y1="18609.2" x2="11004.3" y2="18609.2" gradientUnits="userSpaceOnUse">
<stop stop-color="#FF6575"/>
<stop offset="1" stop-color="#D43672"/>
</linearGradient>
<linearGradient id="paint42_linear_3196_3333" x1="10068.5" y1="16682.1" x2="11774.4" y2="16682.1" gradientUnits="userSpaceOnUse">
<stop stop-color="#FFFFDF"/>
<stop offset="1" stop-color="#F0E6E6"/>
</linearGradient>
<linearGradient id="paint43_linear_3196_3333" x1="10924.4" y1="18869.3" x2="12594.8" y2="18869.3" gradientUnits="userSpaceOnUse">
<stop stop-color="#FF6575"/>
<stop offset="1" stop-color="#D43672"/>
</linearGradient>
<linearGradient id="paint44_linear_3196_3333" x1="5919.68" y1="3733.83" x2="6812.37" y2="3733.83" gradientUnits="userSpaceOnUse">
<stop stop-color="#FFD3B6"/>
<stop offset="1" stop-color="#F48E76"/>
</linearGradient>
<linearGradient id="paint45_linear_3196_3333" x1="17616.7" y1="13672.5" x2="24140.2" y2="13672.5" gradientUnits="userSpaceOnUse">
<stop stop-color="#FF6575"/>
<stop offset="1" stop-color="#D43672"/>
</linearGradient>
<linearGradient id="paint46_linear_3196_3333" x1="12230.7" y1="20554.2" x2="13618.7" y2="20554.2" gradientUnits="userSpaceOnUse">
<stop stop-color="#FFFFDF"/>
<stop offset="1" stop-color="#F0E6E6"/>
</linearGradient>
<linearGradient id="paint47_linear_3196_3333" x1="3858.27" y1="6009.77" x2="3972.1" y2="6009.77" gradientUnits="userSpaceOnUse">
<stop stop-color="#7C83BA"/>
<stop offset="1" stop-color="#6D54B0"/>
</linearGradient>
<linearGradient id="paint48_linear_3196_3333" x1="8478.05" y1="8206.04" x2="9106.25" y2="8206.04" gradientUnits="userSpaceOnUse">
<stop stop-color="#7C83BA"/>
<stop offset="1" stop-color="#6D54B0"/>
</linearGradient>
<linearGradient id="paint49_linear_3196_3333" x1="76213.6" y1="29421.4" x2="76213.6" y2="37623.8" gradientUnits="userSpaceOnUse">
<stop stop-color="#FFFFDF"/>
<stop offset="1" stop-color="#F0E6E6"/>
</linearGradient>
<linearGradient id="paint50_linear_3196_3333" x1="11055.9" y1="12956.4" x2="11055.9" y2="16535.7" gradientUnits="userSpaceOnUse">
<stop stop-color="#7C83BA"/>
<stop offset="1" stop-color="#6D54B0"/>
</linearGradient>
<linearGradient id="paint51_linear_3196_3333" x1="3389.67" y1="3856.81" x2="3389.67" y2="4881.2" gradientUnits="userSpaceOnUse">
<stop stop-color="#FFFFDF"/>
<stop offset="1" stop-color="#F0E6E6"/>
</linearGradient>
<linearGradient id="paint52_linear_3196_3333" x1="7541" y1="5107.36" x2="7541" y2="6481.04" gradientUnits="userSpaceOnUse">
<stop stop-color="#FFFFDF"/>
<stop offset="1" stop-color="#F0E6E6"/>
</linearGradient>
<linearGradient id="paint53_linear_3196_3333" x1="38059" y1="1886.3" x2="38059" y2="2358.22" gradientUnits="userSpaceOnUse">
<stop stop-color="#7C83BA"/>
<stop offset="1" stop-color="#6D54B0"/>
</linearGradient>
<linearGradient id="paint54_linear_3196_3333" x1="23033.2" y1="1892.58" x2="23033.2" y2="2364.5" gradientUnits="userSpaceOnUse">
<stop stop-color="#7C83BA"/>
<stop offset="1" stop-color="#6D54B0"/>
</linearGradient>
<linearGradient id="paint55_linear_3196_3333" x1="14339.8" y1="6032.3" x2="14339.8" y2="9889.08" gradientUnits="userSpaceOnUse">
<stop stop-color="#FF6575"/>
<stop offset="1" stop-color="#D43672"/>
</linearGradient>
<linearGradient id="paint56_linear_3196_3333" x1="10458.8" y1="12799.3" x2="10969.3" y2="12799.3" gradientUnits="userSpaceOnUse">
<stop stop-color="#FF6575"/>
<stop offset="1" stop-color="#D43672"/>
</linearGradient>
<linearGradient id="paint57_linear_3196_3333" x1="12042.1" y1="8898.59" x2="12552.7" y2="8898.59" gradientUnits="userSpaceOnUse">
<stop stop-color="#FF6575"/>
<stop offset="1" stop-color="#D43672"/>
</linearGradient>
<linearGradient id="paint58_linear_3196_3333" x1="9905.53" y1="11565.9" x2="10256.8" y2="11565.9" gradientUnits="userSpaceOnUse">
<stop stop-color="#7C83BA"/>
<stop offset="1" stop-color="#6D54B0"/>
</linearGradient>
<linearGradient id="paint59_linear_3196_3333" x1="227.354" y1="229.979" x2="269.072" y2="229.979" gradientUnits="userSpaceOnUse">
<stop stop-color="#A1CC77"/>
<stop offset="1" stop-color="#63887E"/>
</linearGradient>
<linearGradient id="paint60_linear_3196_3333" x1="11586.6" y1="67207.3" x2="11586.6" y2="87291.6" gradientUnits="userSpaceOnUse">
<stop stop-color="#C2BFC7"/>
<stop offset="1" stop-color="#7C83BA"/>
</linearGradient>
<linearGradient id="paint61_linear_3196_3333" x1="12377.4" y1="5005.88" x2="12776.3" y2="5005.88" gradientUnits="userSpaceOnUse">
<stop stop-color="#7C83BA"/>
<stop offset="1" stop-color="#6D54B0"/>
</linearGradient>
<linearGradient id="paint62_linear_3196_3333" x1="5282.6" y1="1578.3" x2="5350.96" y2="1578.3" gradientUnits="userSpaceOnUse">
<stop stop-color="#7C83BA"/>
<stop offset="1" stop-color="#6D54B0"/>
</linearGradient>
<linearGradient id="paint63_linear_3196_3333" x1="2252.74" y1="6958.9" x2="2468.18" y2="6958.9" gradientUnits="userSpaceOnUse">
<stop stop-color="#7C83BA"/>
<stop offset="1" stop-color="#6D54B0"/>
</linearGradient>
<linearGradient id="paint64_linear_3196_3333" x1="4245.4" y1="13585.6" x2="4925.35" y2="13585.6" gradientUnits="userSpaceOnUse">
<stop stop-color="#7C83BA"/>
<stop offset="1" stop-color="#6D54B0"/>
</linearGradient>
<linearGradient id="paint65_linear_3196_3333" x1="2685.75" y1="4894.01" x2="2809.05" y2="4894.01" gradientUnits="userSpaceOnUse">
<stop stop-color="#7C83BA"/>
<stop offset="1" stop-color="#6D54B0"/>
</linearGradient>
<linearGradient id="paint66_linear_3196_3333" x1="5299.5" y1="3783.63" x2="5368.05" y2="3783.58" gradientUnits="userSpaceOnUse">
<stop stop-color="#7C83BA"/>
<stop offset="1" stop-color="#6D54B0"/>
</linearGradient>
<linearGradient id="paint67_linear_3196_3333" x1="8617.46" y1="7470.08" x2="8748.86" y2="7470.08" gradientUnits="userSpaceOnUse">
<stop stop-color="#7C83BA"/>
<stop offset="1" stop-color="#6D54B0"/>
</linearGradient>
<linearGradient id="paint68_linear_3196_3333" x1="2649.18" y1="10872.9" x2="2924.76" y2="10872.9" gradientUnits="userSpaceOnUse">
<stop stop-color="#7C83BA"/>
<stop offset="1" stop-color="#6D54B0"/>
</linearGradient>
<linearGradient id="paint69_linear_3196_3333" x1="3548.52" y1="1346.94" x2="3636.09" y2="1346.94" gradientUnits="userSpaceOnUse">
<stop stop-color="#7C83BA"/>
<stop offset="1" stop-color="#6D54B0"/>
</linearGradient>
<clipPath id="clip0_3196_3333">
<rect width="690" height="350" fill="white"/>
</clipPath>
</defs>
</svg>
