<svg width="690" height="350" viewBox="0 0 690 350" fill="none" xmlns="http://www.w3.org/2000/svg">
<g clip-path="url(#clip0_2249_6146)">
<path d="M121.247 -13H51V77.5031H121.247V-13Z" fill="#EAC8CE"/>
<path d="M121.247 85.8047H51V178.537H121.247V85.8047Z" fill="#EAC8CE"/>
<path d="M199.059 -13H128.812V77.5031H199.059V-13Z" fill="#EAC8CE"/>
<path d="M199.059 85.8047H128.812V178.537H199.059V85.8047Z" fill="#EAC8CE"/>
<path d="M233.684 259.922H226.312V286.36H233.684V259.922Z" fill="white"/>
<path d="M249.292 256.999H211.296C207.395 256.999 204.219 253.794 204.219 249.812C204.219 245.85 207.375 242.625 211.296 242.625H249.292C253.194 242.625 256.37 245.83 256.37 249.812C256.35 253.794 253.194 256.999 249.292 256.999Z" fill="#1C2E34"/>
<path d="M236.961 253.656H223.492V263.053H236.961V253.656Z" fill="#1C2E34"/>
<path d="M236.961 282.062H223.492V323.173H236.961V282.062Z" fill="#1C2E34"/>
<path d="M267.5 318.117H191.391V323.831H267.5V318.117Z" fill="#1C2E34"/>
<path d="M195.861 318.117H191.391V335.895H195.861V318.117Z" fill="#1C2E34"/>
<path d="M200.256 335.896C200.256 339.818 197.119 343.004 193.257 343.004C189.395 343.004 186.258 339.818 186.258 335.896C186.258 331.974 189.395 328.789 193.257 328.789C197.119 328.789 200.256 331.974 200.256 335.896Z" fill="#1C2E34"/>
<path d="M267.501 318.117H263.031V335.895H267.501V318.117Z" fill="#1C2E34"/>
<path d="M271.897 335.896C271.897 339.818 268.76 343.004 264.898 343.004C261.035 343.004 257.898 339.818 257.898 335.896C257.898 331.974 261.035 328.789 264.898 328.789C268.78 328.789 271.897 331.974 271.897 335.896Z" fill="#1C2E34"/>
<path d="M277.343 250.824C248.522 250.824 225.094 227.014 225.094 197.769V132.748C225.094 129.045 228.054 126.039 231.701 126.039C235.347 126.039 238.308 129.045 238.308 132.748V197.749C238.308 219.628 255.835 237.406 277.362 237.406C281.009 237.406 283.969 240.412 283.969 244.115C283.95 247.818 280.989 250.824 277.343 250.824Z" fill="#FF6E65"/>
<path d="M231.705 126.039H161.242L165.516 178.537L163.458 218.015L198.61 240.751L206.904 250.824H277.347L258.211 238.481L243.919 222.057L238.214 218.513L233.45 186.6L233.136 148.237L231.705 126.039Z" fill="#FF6E65"/>
<path d="M206.905 250.824C178.085 250.824 154.656 227.014 154.656 197.769V132.748C154.656 129.045 157.617 126.039 161.263 126.039C164.91 126.039 167.87 129.045 167.87 132.748V197.749C167.87 219.628 185.398 237.406 206.925 237.406C210.571 237.406 213.532 240.412 213.532 244.115C213.493 247.818 210.532 250.824 206.905 250.824Z" fill="#FF9184"/>
<path d="M320.286 327.216L319.717 288.793L300.523 287.758L301.053 329.028L319.56 329.147L320.286 327.216Z" fill="#FFB0A0"/>
<path d="M298.362 320.947C298.362 320.947 314.243 327.577 321.693 317.125L354.376 337.292L293.422 336.894L298.362 320.947Z" fill="#0B181B"/>
<path d="M293.45 336.9L293.414 342.594L354.368 342.995L354.404 337.301L293.45 336.9Z" fill="white"/>
<path d="M321.304 325.945C321.48 325.865 321.637 325.766 321.755 325.606C324.245 322.282 326.754 320.649 326.774 320.629C327.264 320.311 327.401 319.674 327.068 319.196C326.735 318.718 326.068 318.599 325.578 318.897C325.46 318.977 322.735 320.729 320.01 324.372C319.657 324.83 319.775 325.487 320.245 325.825C320.559 326.064 320.971 326.084 321.304 325.945Z" fill="white"/>
<path d="M326.562 328.609C326.738 328.529 326.895 328.43 327.013 328.27C329.503 324.946 332.012 323.313 332.032 323.293C332.522 322.975 332.659 322.338 332.326 321.86C331.992 321.382 331.326 321.263 330.836 321.561C330.718 321.641 327.993 323.393 325.268 327.036C324.915 327.494 325.032 328.151 325.503 328.489C325.817 328.728 326.209 328.748 326.562 328.609Z" fill="white"/>
<path d="M331.796 331.281C331.972 331.201 332.129 331.101 332.247 330.942C334.737 327.618 337.246 325.985 337.266 325.965C337.756 325.647 337.893 325.01 337.56 324.532C337.227 324.054 336.56 323.934 336.07 324.233C335.952 324.313 333.227 326.065 330.502 329.708C330.149 330.166 330.267 330.823 330.737 331.161C331.051 331.38 331.463 331.42 331.796 331.281Z" fill="white"/>
<path d="M250.172 199.523L259.171 207.188C256.544 223.533 247.858 238.384 264.17 238.384H293.089V305.913L325.536 306.351L327.34 223.612C327.575 210.453 317.164 199.643 304.205 199.623L250.172 199.523Z" fill="#007BDE"/>
<path d="M291.069 306.359H328.398V293.578H291.069V306.359Z" fill="#0086FF"/>
<path d="M268.294 327.216L267.725 288.793L248.531 287.758L249.061 329.028L267.568 329.147L268.294 327.216Z" fill="#FFB0A0"/>
<path d="M246.37 320.947C246.37 320.947 262.251 327.577 269.701 317.125L302.383 337.292L241.43 336.894L246.37 320.947Z" fill="#0B181B"/>
<path d="M241.458 336.9L241.422 342.594L302.376 342.995L302.412 337.301L241.458 336.9Z" fill="white"/>
<path d="M269.312 325.945C269.488 325.865 269.645 325.766 269.763 325.606C272.253 322.282 274.762 320.649 274.782 320.629C275.272 320.311 275.409 319.674 275.076 319.196C274.742 318.718 274.076 318.599 273.586 318.897C273.468 318.977 270.743 320.729 268.018 324.372C267.665 324.83 267.782 325.487 268.253 325.825C268.567 326.064 268.978 326.084 269.312 325.945Z" fill="white"/>
<path d="M274.569 328.609C274.746 328.529 274.903 328.43 275.02 328.27C277.51 324.946 280.02 323.313 280.039 323.293C280.53 322.975 280.667 322.338 280.334 321.86C280 321.382 279.334 321.263 278.843 321.561C278.726 321.641 276.001 323.393 273.276 327.036C272.923 327.494 273.04 328.151 273.511 328.489C273.824 328.728 274.217 328.748 274.569 328.609Z" fill="white"/>
<path d="M279.804 331.281C279.98 331.201 280.137 331.101 280.255 330.942C282.745 327.618 285.254 325.985 285.274 325.965C285.764 325.647 285.901 325.01 285.568 324.532C285.235 324.054 284.568 323.934 284.078 324.233C283.96 324.313 281.235 326.065 278.51 329.708C278.157 330.166 278.275 330.823 278.745 331.161C279.059 331.38 279.471 331.42 279.804 331.281Z" fill="white"/>
<path d="M209.337 199.523L208.102 207.188C205.474 223.533 217.904 238.384 234.216 238.384H242.039V305.913L274.486 306.351L276.29 223.612C276.525 210.453 266.115 199.643 253.155 199.623L209.337 199.523Z" fill="#0086FF"/>
<path d="M239.983 306.359H277.312V293.578H239.983V306.359Z" fill="#00B1FF"/>
<path d="M290.052 170.455L333.792 179.812L336.145 188.711L278.877 189.547L274.289 165.398L290.052 170.455Z" fill="#F9A498"/>
<path d="M327.146 179.294C327.146 179.294 336.086 173.779 344.948 176.089C350.79 177.602 356.574 183.315 356.123 189.407L320.539 188.949L327.146 179.294Z" fill="#F9A498"/>
<path d="M292.565 138.359L297.604 176.384C297.604 176.384 275.743 188.07 276.214 186.657C276.684 185.243 271.312 138.359 271.312 138.359H292.565Z" fill="#F9A498"/>
<path d="M273.039 106.906C273.039 106.906 289.076 109.474 292.743 123.37C297.507 141.487 299.33 144.095 299.33 144.095L275.078 147.678L273.039 106.906Z" fill="#0B181B"/>
<path d="M242.197 102.289L273.036 106.908C276.154 107.386 278.487 110.093 278.526 113.298L279.251 187.576L210.455 187.775L205.789 122.974L208.338 114.194C209.534 110.093 212.945 107.047 217.102 106.37L242.197 102.289Z" fill="#0B181B"/>
<path d="M222.007 143.856L209.126 177.66L189.266 160.101L196.971 135.773L222.007 143.856Z" fill="#FFB0A0"/>
<path d="M234.554 104.915C234.554 104.915 210.616 104.696 204.656 111.883C197.167 120.921 188.266 144.035 188.266 144.035L227.202 152.754L234.554 104.915Z" fill="#0B181B"/>
<path d="M211.359 172.022L256.295 182.195L254.452 192.309L201.34 192.667C201.34 192.667 177.598 187.81 189.263 160.117L211.359 172.022Z" fill="#FFB0A0"/>
<path d="M256.298 182.172C256.298 182.172 266.866 177.971 275.61 179.643C281.55 180.778 285.53 186.512 285.079 192.644L249.789 192.325L256.298 182.172Z" fill="#FFB0A0"/>
<path d="M211.362 172.026L200.266 170.453" stroke="#E98980" stroke-width="0.5" stroke-miterlimit="10"/>
<path d="M262.805 46.9844C262.805 46.9844 275.039 58.6506 262.981 62.8712L262.805 46.9844Z" fill="#0B181B"/>
<path d="M255.511 67.763C255.393 72.5011 258.942 76.4629 263.471 76.6022C267.98 76.7416 271.744 73.0187 271.881 68.2806C271.999 63.5424 268.45 59.5806 263.921 59.4413C259.393 59.3019 255.628 63.0248 255.511 67.763Z" fill="#0077C9"/>
<path d="M253.294 86.0586L253.941 102.602C254.176 108.416 250.882 111.641 245.432 111.8C240.766 111.939 235.57 109.849 235.57 104.713L235.747 78.6328L253.294 86.0586Z" fill="#FFB0A0"/>
<path d="M253.749 97.0713C253.749 97.0713 240.515 98.7436 235.81 83.7328C234.32 79.0145 253.259 84.3698 253.259 84.3698L253.749 97.0713Z" fill="#0B181B"/>
<path d="M248.594 91.078C257.906 90.7196 265.278 82.7364 265.239 74.7532L265.062 58.07C265.023 48.0761 257.416 39.8938 247.888 39.5951C238.124 39.2766 228.282 47.2598 228.008 57.4927L228.302 70.4928C228.537 82.1989 237.419 90.7196 248.594 91.078Z" fill="#FFB0A0"/>
<path d="M255.456 70.2344L255.888 73.4396L253.594 73.6188" stroke="#0B181B" stroke-width="0.5266" stroke-miterlimit="10" stroke-linecap="round" stroke-linejoin="round"/>
<path d="M245.123 60.4802C245.123 60.4802 248.927 60.0024 249.025 61.615C249.025 61.615 249.064 62.7099 245.75 63.0683C242.437 63.4266 241.555 63.2076 241.221 62.1724C240.869 61.177 243.339 60.5598 245.123 60.4802Z" fill="#0B181B"/>
<path d="M260.494 59.9403C260.494 59.9403 257.337 59.7213 257.141 61.2741C257.141 61.2741 257.024 62.3094 259.788 62.4288C262.552 62.5483 263.435 62.1501 263.65 61.2941C263.925 60.3385 262.004 59.9005 260.494 59.9403Z" fill="#0B181B"/>
<path d="M258.516 66.8094C258.516 67.7451 259.241 68.4817 260.123 68.4817C261.006 68.4817 261.711 67.7252 261.711 66.7895C261.711 65.8538 260.986 65.1172 260.104 65.1172C259.221 65.1172 258.516 65.8737 258.516 66.8094Z" fill="#0B181B"/>
<path d="M244.493 66.8875C244.493 67.8232 245.218 68.5598 246.1 68.5598C246.982 68.5598 247.688 67.8033 247.688 66.8676C247.688 65.9319 246.963 65.1953 246.081 65.1953C245.179 65.2152 244.473 65.9717 244.493 66.8875Z" fill="#0B181B"/>
<path d="M251.867 79.2734L256.141 78.6562" stroke="#0B181B" stroke-width="0.5266" stroke-miterlimit="10" stroke-linecap="round" stroke-linejoin="round"/>
<path d="M274.845 41.3683L267.787 40.353C269.845 39.0192 271.924 37.7052 271.924 37.7052C271.924 37.7052 267.101 36.013 260.69 36.0329C256.514 33.7435 251.161 32.1707 245.554 32.111C237.359 32.0114 230.36 36.5306 227.831 41.4878C227.831 41.4878 221.027 41.0697 220.086 48.8937C218.871 59.027 230.889 75.7699 230.889 75.7699L232.242 62.5308C239.692 61.9933 240.025 55.3241 239.457 50.9641C242.809 51.2628 254.357 52.0193 263.395 49.9886C264.375 49.8692 265.728 49.6104 266.846 49.0131C271.081 47.5001 274.276 45.1111 274.845 41.3683Z" fill="#0B181B"/>
<path d="M219.729 70.4956C219.631 74.2781 222.474 77.4436 226.081 77.563C229.689 77.6825 232.708 74.6962 232.806 70.9136C232.904 67.1311 230.061 63.9656 226.454 63.8462C222.846 63.7466 219.827 66.713 219.729 70.4956Z" fill="#FFBA99"/>
<path d="M228.454 72.4276C228.454 72.4276 228.592 67.4505 224.023 68.0876" stroke="#312220" stroke-width="0.5575" stroke-miterlimit="10" stroke-linecap="round" stroke-linejoin="round"/>
<path d="M251.672 31.8546L251.868 32.8101C251.868 32.8101 240.045 34.0644 234.654 41.3707C228.655 49.5132 228.557 60.4827 228.557 60.4827L226.008 60.7017L226.184 43.3018L231.301 37.8868L239.477 32.9296L245.202 31.0781L251.672 31.8546Z" fill="#0077C9"/>
<path d="M235.669 66.7904C236.885 72.5041 233.258 78.158 226.121 79.7308C221.063 80.8457 218.612 76.5255 217.397 70.8119C216.181 65.0982 219.279 59.5637 224.337 58.4488C229.376 57.3539 234.454 61.0767 235.669 66.7904Z" fill="#0077C9"/>
<path d="M233.064 67.3685C234.279 73.0822 231.182 78.6167 226.123 79.7316C221.065 80.8464 215.987 77.1037 214.772 71.39C213.556 65.6763 216.654 60.1418 221.712 59.0269C226.751 57.932 231.829 61.6548 233.064 67.3685Z" fill="#0086FF"/>
<path d="M222.34 60.2616C222.34 60.2616 221.36 53.9109 222.85 46.9629C224.732 38.1833 231.653 31.9122 240.377 30.2996C241.044 30.1802 241.749 30.0607 242.475 29.9612C245.004 29.6227 247.749 29.6825 250.043 30.8372C250.631 31.1358 251.18 31.4742 251.67 31.8525C251.67 31.8525 240.181 32.3303 234.652 38.5815C228.418 45.6091 226.79 55.0456 227.182 61.3366L222.34 60.2616Z" fill="#0086FF"/>
<path d="M229.242 104.399L242.201 102.289L259.435 104.877C259.435 104.877 260.493 115.09 245.927 115.508C231.36 115.926 229.242 104.399 229.242 104.399Z" fill="#FFB0A0"/>
<path d="M307.539 155.044L313.676 159.504L357.063 122.315L462.737 63.0678L457.032 58.8672L384.55 81.483L307.539 155.044Z" fill="#CB9DA8"/>
<path d="M322.537 62.2902L305.324 149.09C304.579 152.813 307.382 156.277 311.107 156.277H434.956C437.74 156.277 440.151 154.306 440.74 151.539L459.032 64.7389C459.816 60.9962 457.012 57.4923 453.248 57.4923H328.321C325.517 57.4724 323.086 59.5031 322.537 62.2902Z" fill="#CB9DA8"/>
<path d="M328.123 66.3918L310.91 153.192C310.165 156.915 312.968 160.379 316.693 160.379H440.542C443.326 160.379 445.737 158.408 446.325 155.641L464.617 68.8405C465.402 65.0978 462.598 61.5939 458.834 61.5939H333.907C331.103 61.574 328.672 63.5847 328.123 66.3918Z" fill="#EAC8CE"/>
<path d="M373.196 137.422L370.883 160.376H380.94L373.196 137.422Z" fill="#CB9DA8"/>
<path d="M373.195 136.945L383.449 188.329H420.837L403.31 136.945H373.195Z" fill="#F6DAE0"/>
<path d="M392.84 105.827C397.42 105.827 401.133 102.056 401.133 97.4056C401.133 92.7547 397.42 88.9844 392.84 88.9844C388.26 88.9844 384.547 92.7547 384.547 97.4056C384.547 102.056 388.26 105.827 392.84 105.827Z" fill="white"/>
<path d="M442.953 183.555H354.826C353.473 183.555 352.375 184.67 352.375 186.043C352.375 187.417 353.473 188.532 354.826 188.532H442.953C444.306 188.532 445.404 187.417 445.404 186.043C445.404 184.67 444.306 183.555 442.953 183.555Z" fill="#EAC8CE"/>
<path d="M333.085 183.555H286.404C285.051 183.555 283.953 184.67 283.953 186.043C283.953 187.417 285.051 188.532 286.404 188.532H333.085C334.438 188.532 335.535 187.417 335.535 186.043C335.535 184.67 334.438 183.555 333.085 183.555Z" fill="#EAC8CE"/>
<path d="M275.406 196.43V342.975" stroke="#55382E" stroke-width="1.1607" stroke-miterlimit="10"/>
<path d="M183.93 196.43V342.975" stroke="#55382E" stroke-width="1.1607" stroke-miterlimit="10"/>
<path d="M497.422 196.43V342.975" stroke="#55382E" stroke-width="1.1607" stroke-miterlimit="10"/>
<path d="M405.945 196.43V342.975" stroke="#55382E" stroke-width="1.1607" stroke-miterlimit="10"/>
<path d="M249.195 188.328H162.656V200.114H249.195V188.328Z" fill="#EAC8CE"/>
<path d="M520.93 188.328H249.039V200.114H520.93V188.328Z" fill="#40484C"/>
<path d="M565.001 342.977H83.7031" stroke="#55382E" stroke-width="1.1607" stroke-miterlimit="10"/>
<path d="M618.368 249.524C618.368 255.521 613.506 260.383 607.509 260.383H488.859C482.862 260.383 478 255.521 478 249.524V31.8594C478 25.8622 482.862 21 488.859 21H607.509C613.506 21 618.368 25.8622 618.368 31.8594V249.524Z" fill="#40484C"/>
<path d="M487.792 33.375C486.017 33.375 484.578 34.8136 484.578 36.5888V250.99H608.573C610.349 250.99 611.787 249.551 611.787 247.776V36.5888C611.787 34.8136 610.349 33.375 608.573 33.375H487.792Z" fill="white"/>
<path d="M562.14 27.6336H534.223C534.122 27.6336 534.039 27.5508 534.039 27.4496C534.039 27.3484 534.122 27.2656 534.223 27.2656H562.14C562.241 27.2656 562.324 27.3484 562.324 27.4496C562.324 27.5526 562.241 27.6336 562.14 27.6336Z" fill="#D3BBA3"/>
<path d="M590.908 61.1483C590.908 66.9836 586.134 71.7575 580.298 71.7575H508.265C502.43 71.7575 497.656 66.9836 497.656 61.1483C497.656 55.3129 502.43 50.5391 508.265 50.5391H580.298C586.134 50.5391 590.908 55.3129 590.908 61.1483Z" fill="#F7F1EB"/>
<path d="M582.41 77.6681H514.471C508.03 77.6681 502.789 72.4288 502.789 65.9864C502.789 59.5458 508.03 54.3047 514.471 54.3047H582.41C588.851 54.3047 594.092 59.5458 594.092 65.9864C594.092 72.427 588.851 77.6681 582.41 77.6681ZM514.471 54.6726C508.233 54.6726 503.157 59.7482 503.157 65.9864C503.157 72.2246 508.233 77.3002 514.471 77.3002H582.41C588.649 77.3002 593.724 72.2246 593.724 65.9864C593.724 59.7482 588.649 54.6726 582.41 54.6726H514.471Z" fill="#E6D0BE"/>
<path d="M518.652 65.7284C518.652 68.0371 516.781 69.9099 514.471 69.9099C512.162 69.9099 510.289 68.0371 510.289 65.7284C510.289 63.4196 512.162 61.5469 514.471 61.5469C516.781 61.5469 518.652 63.4196 518.652 65.7284Z" fill="#D87355"/>
<path d="M532.026 65.7611C532.046 63.4517 530.191 61.5627 527.882 61.5419C525.572 61.5211 523.683 63.3763 523.663 65.6857C523.642 67.9951 525.497 69.8841 527.806 69.9049C530.116 69.9257 532.005 68.0704 532.026 65.7611Z" fill="#D87355"/>
<path d="M545.386 65.7284C545.386 68.0371 543.514 69.9099 541.205 69.9099C538.896 69.9099 537.023 68.0371 537.023 65.7284C537.023 63.4196 538.894 61.5469 541.205 61.5469C543.514 61.5469 545.386 63.4196 545.386 65.7284Z" fill="#D87355"/>
<path d="M558.755 65.7764C558.786 63.4673 556.94 61.5699 554.631 61.5385C552.322 61.507 550.424 63.3535 550.393 65.6627C550.361 67.9718 552.208 69.8692 554.517 69.9006C556.826 69.932 558.724 68.0855 558.755 65.7764Z" fill="#D87355"/>
<path d="M595.667 220.464H594.379C594.278 220.464 594.195 220.381 594.195 220.28C594.195 220.179 594.278 220.096 594.379 220.096H595.299V219.176C595.299 219.075 595.382 218.992 595.483 218.992C595.584 218.992 595.667 219.075 595.667 219.176V220.464Z" fill="#E6D0BE"/>
<path d="M592.126 220.462H589.878C589.777 220.462 589.694 220.379 589.694 220.278C589.694 220.177 589.777 220.094 589.878 220.094H592.126C592.228 220.094 592.31 220.177 592.31 220.278C592.31 220.379 592.228 220.462 592.126 220.462ZM587.63 220.462H585.382C585.281 220.462 585.198 220.379 585.198 220.278C585.198 220.177 585.281 220.094 585.382 220.094H587.63C587.732 220.094 587.814 220.177 587.814 220.278C587.814 220.379 587.732 220.462 587.63 220.462ZM583.132 220.462H580.884C580.783 220.462 580.7 220.379 580.7 220.278C580.7 220.177 580.783 220.094 580.884 220.094H583.132C583.234 220.094 583.316 220.177 583.316 220.278C583.316 220.379 583.234 220.462 583.132 220.462ZM578.635 220.462H576.387C576.285 220.462 576.203 220.379 576.203 220.278C576.203 220.177 576.285 220.094 576.387 220.094H578.635C578.736 220.094 578.819 220.177 578.819 220.278C578.819 220.379 578.738 220.462 578.635 220.462ZM574.138 220.462H571.89C571.789 220.462 571.706 220.379 571.706 220.278C571.706 220.177 571.789 220.094 571.89 220.094H574.138C574.24 220.094 574.322 220.177 574.322 220.278C574.322 220.379 574.24 220.462 574.138 220.462ZM569.641 220.462H567.393C567.291 220.462 567.209 220.379 567.209 220.278C567.209 220.177 567.291 220.094 567.393 220.094H569.641C569.742 220.094 569.825 220.177 569.825 220.278C569.825 220.379 569.744 220.462 569.641 220.462ZM565.144 220.462H562.896C562.795 220.462 562.712 220.379 562.712 220.278C562.712 220.177 562.795 220.094 562.896 220.094H565.144C565.246 220.094 565.328 220.177 565.328 220.278C565.328 220.379 565.246 220.462 565.144 220.462ZM560.647 220.462H558.399C558.297 220.462 558.215 220.379 558.215 220.278C558.215 220.177 558.297 220.094 558.399 220.094H560.647C560.748 220.094 560.831 220.177 560.831 220.278C560.831 220.379 560.748 220.462 560.647 220.462ZM556.15 220.462H553.902C553.801 220.462 553.718 220.379 553.718 220.278C553.718 220.177 553.801 220.094 553.902 220.094H556.15C556.252 220.094 556.334 220.177 556.334 220.278C556.334 220.379 556.252 220.462 556.15 220.462ZM551.653 220.462H549.405C549.303 220.462 549.221 220.379 549.221 220.278C549.221 220.177 549.303 220.094 549.405 220.094H551.653C551.754 220.094 551.837 220.177 551.837 220.278C551.837 220.379 551.754 220.462 551.653 220.462ZM547.155 220.462H544.907C544.805 220.462 544.723 220.379 544.723 220.278C544.723 220.177 544.805 220.094 544.907 220.094H547.155C547.256 220.094 547.339 220.177 547.339 220.278C547.339 220.379 547.258 220.462 547.155 220.462ZM542.659 220.462H540.411C540.309 220.462 540.227 220.379 540.227 220.278C540.227 220.177 540.309 220.094 540.411 220.094H542.659C542.76 220.094 542.843 220.177 542.843 220.278C542.843 220.379 542.76 220.462 542.659 220.462Z" fill="#E6D0BE"/>
<path d="M538.163 220.464H536.875V219.176C536.875 219.075 536.958 218.992 537.059 218.992C537.16 218.992 537.243 219.075 537.243 219.176V220.096H538.163C538.264 220.096 538.347 220.179 538.347 220.28C538.347 220.381 538.264 220.464 538.163 220.464Z" fill="#E6D0BE"/>
<path d="M537.059 217.109C536.958 217.109 536.875 217.026 536.875 216.925V214.677C536.875 214.576 536.958 214.493 537.059 214.493C537.16 214.493 537.243 214.576 537.243 214.677V216.925C537.243 217.026 537.16 217.109 537.059 217.109ZM537.059 212.611C536.958 212.611 536.875 212.528 536.875 212.427V210.179C536.875 210.078 536.958 209.995 537.059 209.995C537.16 209.995 537.243 210.078 537.243 210.179V212.427C537.243 212.528 537.16 212.611 537.059 212.611ZM537.059 208.115C536.958 208.115 536.875 208.032 536.875 207.931V205.683C536.875 205.582 536.958 205.499 537.059 205.499C537.16 205.499 537.243 205.582 537.243 205.683V207.931C537.243 208.032 537.16 208.115 537.059 208.115ZM537.059 203.617C536.958 203.617 536.875 203.534 536.875 203.433V201.185C536.875 201.084 536.958 201.001 537.059 201.001C537.16 201.001 537.243 201.084 537.243 201.185V203.433C537.243 203.534 537.16 203.617 537.059 203.617ZM537.059 199.119C536.958 199.119 536.875 199.037 536.875 198.935V196.687C536.875 196.586 536.958 196.503 537.059 196.503C537.16 196.503 537.243 196.586 537.243 196.687V198.935C537.243 199.038 537.16 199.119 537.059 199.119ZM537.059 194.623C536.958 194.623 536.875 194.54 536.875 194.439V192.191C536.875 192.09 536.958 192.007 537.059 192.007C537.16 192.007 537.243 192.09 537.243 192.191V194.439C537.243 194.54 537.16 194.623 537.059 194.623ZM537.059 190.125C536.958 190.125 536.875 190.043 536.875 189.941V187.693C536.875 187.592 536.958 187.509 537.059 187.509C537.16 187.509 537.243 187.592 537.243 187.693V189.941C537.243 190.043 537.16 190.125 537.059 190.125ZM537.059 185.629C536.958 185.629 536.875 185.546 536.875 185.445V183.197C536.875 183.096 536.958 183.013 537.059 183.013C537.16 183.013 537.243 183.096 537.243 183.197V185.445C537.243 185.546 537.16 185.629 537.059 185.629ZM537.059 181.131C536.958 181.131 536.875 181.049 536.875 180.947V178.699C536.875 178.598 536.958 178.515 537.059 178.515C537.16 178.515 537.243 178.598 537.243 178.699V180.947C537.243 181.049 537.16 181.131 537.059 181.131ZM537.059 176.633C536.958 176.633 536.875 176.551 536.875 176.449V174.201C536.875 174.1 536.958 174.017 537.059 174.017C537.16 174.017 537.243 174.1 537.243 174.201V176.449C537.243 176.552 537.16 176.633 537.059 176.633ZM537.059 172.137C536.958 172.137 536.875 172.055 536.875 171.953V169.705C536.875 169.604 536.958 169.521 537.059 169.521C537.16 169.521 537.243 169.604 537.243 169.705V171.953C537.243 172.055 537.16 172.137 537.059 172.137ZM537.059 167.639C536.958 167.639 536.875 167.557 536.875 167.455V165.207C536.875 165.106 536.958 165.023 537.059 165.023C537.16 165.023 537.243 165.106 537.243 165.207V167.455C537.243 167.557 537.16 167.639 537.059 167.639Z" fill="#E6D0BE"/>
<path d="M537.059 163.144C536.958 163.144 536.875 163.061 536.875 162.96V161.672H538.163C538.264 161.672 538.347 161.755 538.347 161.856C538.347 161.957 538.264 162.04 538.163 162.04H537.243V162.96C537.243 163.061 537.16 163.144 537.059 163.144Z" fill="#E6D0BE"/>
<path d="M592.126 162.04H589.878C589.777 162.04 589.694 161.957 589.694 161.856C589.694 161.755 589.777 161.672 589.878 161.672H592.126C592.228 161.672 592.31 161.755 592.31 161.856C592.31 161.957 592.228 162.04 592.126 162.04ZM587.63 162.04H585.382C585.281 162.04 585.198 161.957 585.198 161.856C585.198 161.755 585.281 161.672 585.382 161.672H587.63C587.732 161.672 587.814 161.755 587.814 161.856C587.814 161.957 587.732 162.04 587.63 162.04ZM583.132 162.04H580.884C580.783 162.04 580.7 161.957 580.7 161.856C580.7 161.755 580.783 161.672 580.884 161.672H583.132C583.234 161.672 583.316 161.755 583.316 161.856C583.316 161.957 583.234 162.04 583.132 162.04ZM578.635 162.04H576.387C576.285 162.04 576.203 161.957 576.203 161.856C576.203 161.755 576.285 161.672 576.387 161.672H578.635C578.736 161.672 578.819 161.755 578.819 161.856C578.819 161.957 578.738 162.04 578.635 162.04ZM574.138 162.04H571.89C571.789 162.04 571.706 161.957 571.706 161.856C571.706 161.755 571.789 161.672 571.89 161.672H574.138C574.24 161.672 574.322 161.755 574.322 161.856C574.322 161.957 574.24 162.04 574.138 162.04ZM569.641 162.04H567.393C567.291 162.04 567.209 161.957 567.209 161.856C567.209 161.755 567.291 161.672 567.393 161.672H569.641C569.742 161.672 569.825 161.755 569.825 161.856C569.825 161.957 569.744 162.04 569.641 162.04ZM565.144 162.04H562.896C562.795 162.04 562.712 161.957 562.712 161.856C562.712 161.755 562.795 161.672 562.896 161.672H565.144C565.246 161.672 565.328 161.755 565.328 161.856C565.328 161.957 565.246 162.04 565.144 162.04ZM560.647 162.04H558.399C558.297 162.04 558.215 161.957 558.215 161.856C558.215 161.755 558.297 161.672 558.399 161.672H560.647C560.748 161.672 560.831 161.755 560.831 161.856C560.831 161.957 560.748 162.04 560.647 162.04ZM556.15 162.04H553.902C553.801 162.04 553.718 161.957 553.718 161.856C553.718 161.755 553.801 161.672 553.902 161.672H556.15C556.252 161.672 556.334 161.755 556.334 161.856C556.334 161.957 556.252 162.04 556.15 162.04ZM551.653 162.04H549.405C549.303 162.04 549.221 161.957 549.221 161.856C549.221 161.755 549.303 161.672 549.405 161.672H551.653C551.754 161.672 551.837 161.755 551.837 161.856C551.837 161.957 551.754 162.04 551.653 162.04ZM547.155 162.04H544.907C544.805 162.04 544.723 161.957 544.723 161.856C544.723 161.755 544.805 161.672 544.907 161.672H547.155C547.256 161.672 547.339 161.755 547.339 161.856C547.339 161.957 547.258 162.04 547.155 162.04ZM542.659 162.04H540.411C540.309 162.04 540.227 161.957 540.227 161.856C540.227 161.755 540.309 161.672 540.411 161.672H542.659C542.76 161.672 542.843 161.755 542.843 161.856C542.843 161.957 542.76 162.04 542.659 162.04Z" fill="#E6D0BE"/>
<path d="M595.483 163.144C595.382 163.144 595.299 163.061 595.299 162.96V162.04H594.379C594.278 162.04 594.195 161.957 594.195 161.856C594.195 161.755 594.278 161.672 594.379 161.672H595.667V162.96C595.667 163.061 595.584 163.144 595.483 163.144Z" fill="#E6D0BE"/>
<path d="M595.481 217.109C595.38 217.109 595.297 217.026 595.297 216.925V214.677C595.297 214.576 595.38 214.493 595.481 214.493C595.582 214.493 595.665 214.576 595.665 214.677V216.925C595.665 217.026 595.582 217.109 595.481 217.109ZM595.481 212.611C595.38 212.611 595.297 212.528 595.297 212.427V210.179C595.297 210.078 595.38 209.995 595.481 209.995C595.582 209.995 595.665 210.078 595.665 210.179V212.427C595.665 212.528 595.582 212.611 595.481 212.611ZM595.481 208.115C595.38 208.115 595.297 208.032 595.297 207.931V205.683C595.297 205.582 595.38 205.499 595.481 205.499C595.582 205.499 595.665 205.582 595.665 205.683V207.931C595.665 208.032 595.582 208.115 595.481 208.115ZM595.481 203.617C595.38 203.617 595.297 203.534 595.297 203.433V201.185C595.297 201.084 595.38 201.001 595.481 201.001C595.582 201.001 595.665 201.084 595.665 201.185V203.433C595.665 203.534 595.582 203.617 595.481 203.617ZM595.481 199.119C595.38 199.119 595.297 199.037 595.297 198.935V196.687C595.297 196.586 595.38 196.503 595.481 196.503C595.582 196.503 595.665 196.586 595.665 196.687V198.935C595.665 199.038 595.582 199.119 595.481 199.119ZM595.481 194.623C595.38 194.623 595.297 194.54 595.297 194.439V192.191C595.297 192.09 595.38 192.007 595.481 192.007C595.582 192.007 595.665 192.09 595.665 192.191V194.439C595.665 194.54 595.582 194.623 595.481 194.623ZM595.481 190.125C595.38 190.125 595.297 190.043 595.297 189.941V187.693C595.297 187.592 595.38 187.509 595.481 187.509C595.582 187.509 595.665 187.592 595.665 187.693V189.941C595.665 190.043 595.582 190.125 595.481 190.125ZM595.481 185.629C595.38 185.629 595.297 185.546 595.297 185.445V183.197C595.297 183.096 595.38 183.013 595.481 183.013C595.582 183.013 595.665 183.096 595.665 183.197V185.445C595.665 185.546 595.582 185.629 595.481 185.629ZM595.481 181.131C595.38 181.131 595.297 181.049 595.297 180.947V178.699C595.297 178.598 595.38 178.515 595.481 178.515C595.582 178.515 595.665 178.598 595.665 178.699V180.947C595.665 181.049 595.582 181.131 595.481 181.131ZM595.481 176.633C595.38 176.633 595.297 176.551 595.297 176.449V174.201C595.297 174.1 595.38 174.017 595.481 174.017C595.582 174.017 595.665 174.1 595.665 174.201V176.449C595.665 176.552 595.582 176.633 595.481 176.633ZM595.481 172.137C595.38 172.137 595.297 172.055 595.297 171.953V169.705C595.297 169.604 595.38 169.521 595.481 169.521C595.582 169.521 595.665 169.604 595.665 169.705V171.953C595.665 172.055 595.582 172.137 595.481 172.137ZM595.481 167.639C595.38 167.639 595.297 167.557 595.297 167.455V165.207C595.297 165.106 595.38 165.023 595.481 165.023C595.582 165.023 595.665 165.106 595.665 165.207V167.455C595.665 167.558 595.582 167.639 595.481 167.639Z" fill="#E6D0BE"/>
<path d="M588.658 155.188H525.898V214.183H588.658V155.188Z" fill="#F2E6DC"/>
<path d="M584.033 204.523H530.523V207.929H584.033V204.523Z" fill="#D3BBA3"/>
<path d="M568.629 171.818L549.066 179.753L548.844 172.6L568.406 164.664L568.629 171.818Z" fill="#D3BBA3"/>
<path d="M550.017 192.632C549.868 192.632 549.746 192.514 549.741 192.365L549.211 175.356C549.206 175.203 549.325 175.076 549.478 175.071C549.632 175.062 549.757 175.185 549.763 175.338L550.293 192.347C550.298 192.5 550.179 192.626 550.026 192.632C550.022 192.632 550.021 192.632 550.017 192.632Z" fill="#D3BBA3"/>
<path d="M568.501 185.46C568.352 185.46 568.231 185.343 568.225 185.194L567.695 168.184C567.69 168.032 567.81 167.905 567.962 167.899C568.117 167.888 568.242 168.013 568.247 168.166L568.777 185.175C568.783 185.328 568.663 185.455 568.51 185.46C568.507 185.46 568.505 185.46 568.501 185.46Z" fill="#D3BBA3"/>
<path d="M548.609 195.644C550.344 194.792 551.059 192.695 550.207 190.96C549.354 189.226 547.258 188.511 545.523 189.363C543.789 190.215 543.074 192.312 543.926 194.047C544.778 195.781 546.875 196.496 548.609 195.644Z" fill="#D3BBA3"/>
<path d="M569.037 185.271C569.196 183.345 567.764 181.654 565.839 181.495C563.913 181.335 562.222 182.767 562.062 184.693C561.903 186.618 563.335 188.309 565.261 188.469C567.186 188.628 568.877 187.196 569.037 185.271Z" fill="#D3BBA3"/>
<path d="M85.153 277.153C96.7791 265.526 96.7791 246.677 85.153 235.051C73.5268 223.424 54.6771 223.424 43.051 235.051C31.4249 246.677 31.4248 265.526 43.051 277.153C54.6771 288.779 73.5268 288.779 85.153 277.153Z" fill="#F2E6DC"/>
<path d="M68.4181 286.048C68.3592 286.048 68.3022 286.048 68.2433 286.048C51.7271 285.953 38.3676 272.439 38.4614 255.923C38.5571 239.465 51.9754 226.141 68.4126 226.141C68.4714 226.141 68.5285 226.141 68.5874 226.141C85.1036 226.236 98.4631 239.75 98.3693 256.267C98.2736 272.726 84.8534 286.048 68.4181 286.048ZM68.4126 226.509C52.1759 226.509 38.9232 239.667 38.8294 255.924C38.7355 272.238 51.9312 285.587 68.2452 285.681C68.3022 285.681 68.3611 285.681 68.4181 285.681C84.6548 285.681 97.9075 272.522 98.0013 256.265L98.1853 256.267L98.0013 256.265C98.0951 239.951 84.8994 226.602 68.5855 226.509C68.5285 226.509 68.4696 226.509 68.4126 226.509Z" fill="#D3BBA3"/>
<path d="M68.4716 241.839C60.1969 241.839 52.062 240.447 44.9481 237.81C44.8524 237.775 44.8046 237.669 44.8395 237.573C44.8745 237.477 44.9794 237.43 45.0769 237.465C52.1503 240.086 60.241 241.471 68.4734 241.471C76.6432 241.471 84.6788 240.106 91.7136 237.522C91.8092 237.487 91.9141 237.536 91.949 237.63C91.984 237.726 91.9343 237.831 91.8405 237.866C84.7634 240.465 76.6837 241.839 68.4716 241.839Z" fill="#D3BBA3"/>
<path d="M44.7398 274.325C44.6662 274.325 44.5945 274.279 44.5669 274.205C44.5301 274.109 44.5798 274.005 44.6736 273.968C51.8555 271.265 60.0842 269.836 68.4711 269.836C76.8121 269.836 85.0021 271.251 92.1565 273.925C92.2522 273.96 92.3 274.067 92.265 274.163C92.2301 274.258 92.1234 274.306 92.0277 274.271C84.9138 271.611 76.7679 270.204 68.4711 270.204C60.1284 270.204 51.9438 271.624 44.8042 274.312C44.784 274.321 44.7619 274.325 44.7398 274.325Z" fill="#D3BBA3"/>
<path d="M68.4141 286.05C64.2142 286.05 60.2737 282.919 57.321 277.231C54.3887 271.583 52.7734 264.076 52.7734 256.095C52.7734 248.115 54.3887 240.609 57.321 234.96C60.2737 229.274 64.2123 226.141 68.4141 226.141C72.6158 226.141 76.5545 229.272 79.5071 234.96C82.4395 240.608 84.0547 248.115 84.0547 256.095C84.0547 264.076 82.4395 271.582 79.5071 277.231C76.5545 282.919 72.6158 286.05 68.4141 286.05ZM68.4141 226.51C59.9922 226.51 53.1414 239.783 53.1414 256.097C53.1414 272.411 59.9922 285.684 68.4141 285.684C76.8359 285.684 83.6867 272.411 83.6867 256.097C83.6867 239.783 76.8359 226.51 68.4141 226.51Z" fill="#D3BBA3"/>
<path d="M68.4183 286.008C68.3172 286.008 68.2344 285.925 68.2344 285.824V226.387C68.2344 226.286 68.3172 226.203 68.4183 226.203C68.5195 226.203 68.6023 226.286 68.6023 226.387V285.824C68.6023 285.925 68.5214 286.008 68.4183 286.008Z" fill="#D3BBA3"/>
<path d="M98.1931 256.332L38.6275 255.868C38.5263 255.868 38.4435 255.783 38.4453 255.682C38.4453 255.581 38.5336 255.502 38.6311 255.5L98.195 255.964C98.2962 255.964 98.3789 256.048 98.3771 256.149C98.3771 256.249 98.2943 256.332 98.1931 256.332Z" fill="#D3BBA3"/>
<path d="M133.432 127H100V131.148H133.432V127Z" fill="#F2E6DC"/>
<path d="M133.432 135.406H100V139.555H133.432V135.406Z" fill="#F2E6DC"/>
<path d="M133.432 143.312H100V147.461H133.432V143.312Z" fill="#F2E6DC"/>
<path d="M133.432 152.234H100V156.383H133.432V152.234Z" fill="#F2E6DC"/>
<path d="M548.387 101.45C548.383 100.853 548.377 100.256 548.36 99.6578C548.325 98.357 548.248 97.0444 548.017 95.7575C547.783 94.4506 547.399 93.2354 546.795 92.0482C546.201 90.8823 545.426 89.8154 544.501 88.8902C543.576 87.965 542.509 87.1895 541.342 86.5959C540.156 85.9922 538.941 85.6088 537.635 85.3742C536.347 85.1423 535.035 85.0659 533.733 85.0307C533.135 85.0145 532.538 85.0077 531.941 85.004C531.232 85 530.522 85 529.813 85H514.091H507.578C506.868 85 506.16 85 505.451 85.0041C504.853 85.0078 504.255 85.0146 503.658 85.0308C503.333 85.0396 503.007 85.051 502.68 85.0667C501.702 85.1139 500.721 85.2004 499.756 85.3743C498.777 85.5503 497.848 85.8099 496.945 86.1834C496.644 86.3078 496.345 86.445 496.049 86.5959C495.174 87.0411 494.355 87.5886 493.61 88.2248C493.362 88.4369 493.122 88.6588 492.89 88.8901C491.965 89.8153 491.189 90.8822 490.596 92.0481C489.992 93.2353 489.609 94.4505 489.374 95.7574C489.143 97.0443 489.066 98.3569 489.031 99.6577C489.015 100.256 489.008 100.853 489.004 101.45C488.999 102.159 489 102.869 489 103.578V113.26V125.812C489 126.522 488.999 127.231 489.004 127.941C489.008 128.538 489.015 129.135 489.031 129.732C489.066 131.034 489.143 132.347 489.374 133.633C489.609 134.94 489.992 136.156 490.596 137.343C491.189 138.509 491.965 139.576 492.89 140.5C493.815 141.426 494.882 142.201 496.049 142.795C497.235 143.399 498.45 143.782 499.756 144.017C501.043 144.248 502.357 144.325 503.658 144.36C504.255 144.376 504.853 144.383 505.451 144.387C506.16 144.392 506.869 144.391 507.578 144.391H529.813C530.522 144.391 531.232 144.392 531.941 144.387C532.538 144.383 533.135 144.376 533.733 144.36C535.035 144.325 536.347 144.248 537.635 144.017C538.941 143.782 540.156 143.399 541.342 142.795C542.509 142.201 543.576 141.426 544.501 140.5C545.426 139.576 546.201 138.509 546.795 137.343C547.399 136.156 547.783 134.94 548.017 133.633C548.248 132.347 548.325 131.034 548.36 129.732C548.376 129.135 548.383 128.539 548.387 127.941C548.391 127.231 548.391 126.522 548.391 125.812V103.578C548.391 102.869 548.391 102.159 548.387 101.45Z" fill="#F05138"/>
<path d="M536.06 121.663C536.059 121.661 536.057 121.66 536.056 121.658C536.122 121.434 536.189 121.212 536.247 120.983C538.712 111.162 532.696 99.551 522.515 93.4375C526.977 99.4854 528.949 106.811 527.197 113.217C527.04 113.788 526.852 114.337 526.645 114.87C526.419 114.722 526.135 114.554 525.754 114.343C525.754 114.343 515.627 108.091 504.651 97.0311C504.363 96.7408 510.504 105.808 517.473 113.171C514.19 111.328 505.039 104.671 499.246 99.3687C499.958 100.556 500.805 101.699 501.735 102.799C506.573 108.934 512.881 116.503 520.439 122.316C515.129 125.566 507.625 125.818 500.154 122.319C498.306 121.453 496.569 120.408 494.961 119.221C498.123 124.28 502.994 128.644 508.922 131.192C515.992 134.23 523.022 134.024 528.258 131.242L528.254 131.248C528.278 131.233 528.308 131.216 528.333 131.201C528.548 131.085 528.761 130.967 528.97 130.843C531.486 129.537 536.455 128.212 539.122 133.402C539.775 134.672 541.163 127.942 536.06 121.663Z" fill="white"/>
<path d="M557.204 116.893C557.395 118.716 559.006 119.911 561.243 119.911C563.37 119.911 564.902 118.716 564.902 117.062C564.902 115.638 563.974 114.768 561.836 114.189L559.767 113.622C556.79 112.825 555.447 111.376 555.447 108.986C555.447 106.04 557.831 104 561.221 104C564.511 104 566.849 106.052 566.928 109.01H564.746C564.578 107.199 563.213 106.088 561.165 106.088C559.14 106.088 557.73 107.211 557.73 108.853C557.73 110.133 558.603 110.893 560.751 111.485L562.474 111.968C565.809 112.849 567.174 114.249 567.174 116.773C567.174 119.984 564.813 122 561.053 122C557.562 122 555.179 119.996 555 116.893H557.204V116.893Z" fill="black"/>
<path d="M581.031 121.71H578.838L576.276 112.076H576.231L573.68 121.71H571.487L568.242 109.094H570.368L572.628 119.223H572.673L575.224 109.094H577.283L579.856 119.223H579.901L582.161 109.094H584.265L581.031 121.71Z" fill="black"/>
<path d="M585.68 105.704C585.68 104.944 586.262 104.328 586.967 104.328C587.683 104.328 588.264 104.944 588.264 105.704C588.264 106.465 587.683 107.093 586.967 107.093C586.262 107.093 585.68 106.465 585.68 105.704ZM585.904 109.096H588.041V121.712H585.904V109.096Z" fill="black"/>
<path d="M602.001 110.957V109.097H599.741V106.079H597.615V109.097H595.88H593.529V107.987C593.54 106.864 593.943 106.393 594.906 106.393C595.219 106.393 595.532 106.43 595.79 106.478V104.667C595.409 104.606 595.062 104.57 594.66 104.57C592.377 104.57 591.415 105.597 591.415 107.951V109.097H589.781V110.957H591.415V121.713H593.541V110.957H595.88H597.615V118.405C597.615 120.844 598.476 121.785 600.714 121.785C601.195 121.785 601.743 121.749 601.99 121.689V119.806C601.844 119.83 601.419 119.866 601.184 119.866C600.188 119.866 599.741 119.359 599.741 118.224V110.957H602.001Z" fill="black"/>
</g>
<defs>
<clipPath id="clip0_2249_6146">
<rect width="690" height="350" fill="white"/>
</clipPath>
</defs>
</svg>
