<svg width="690" height="350" viewBox="0 0 690 350" fill="none" xmlns="http://www.w3.org/2000/svg">
<path d="M117.383 317.348C117.383 323.395 194.13 328.302 288.812 328.302C383.48 328.302 460.227 323.395 460.227 317.348C460.227 311.296 383.48 306.391 288.812 306.391C194.13 306.391 117.383 311.296 117.383 317.348Z" fill="#D2C9E9"/>
<path d="M221.995 330.87C221.995 334.656 202.512 337.724 178.478 337.724C154.444 337.724 134.961 334.656 134.961 330.87C134.961 327.084 154.444 324.016 178.478 324.016C202.512 324.016 221.995 327.084 221.995 330.87Z" fill="#D2C9E9"/>
<path d="M155.985 244.852C155.715 244.853 155.465 244.949 155.298 245.117C155.216 245.199 155.117 245.337 155.117 245.525C155.121 245.895 155.51 246.195 155.989 246.195H155.99C156.23 246.195 156.455 246.12 156.621 245.983C156.775 245.857 156.858 245.693 156.858 245.522C156.857 245.152 156.468 244.852 155.989 244.852H155.985ZM154.703 245.527L154.911 245.526L154.703 245.527C154.703 245.269 154.809 245.02 155.003 244.823C155.248 244.579 155.606 244.438 155.985 244.438H155.99C156.696 244.438 157.271 244.921 157.273 245.521C157.274 245.819 157.136 246.097 156.885 246.303C156.645 246.5 156.328 246.61 155.991 246.61H155.99C155.283 246.61 154.705 246.124 154.704 245.527" fill="#EEE5F4"/>
<path d="M183.662 314.485C181.554 314.485 179.834 312.78 179.834 310.655C179.834 308.546 181.554 306.826 183.662 306.826C185.789 306.826 187.509 308.546 187.509 310.655C187.509 312.78 185.789 314.485 183.662 314.485ZM183.662 302.406C179.109 302.406 175.414 306.1 175.414 310.655C175.414 315.21 179.109 318.903 183.662 318.903C188.217 318.903 191.912 315.21 191.912 310.655C191.912 306.1 188.217 302.406 183.662 302.406Z" fill="#8078C4"/>
<path d="M182.303 314.485C180.195 314.485 178.475 312.78 178.475 310.655C178.475 308.546 180.195 306.826 182.303 306.826C184.428 306.826 186.15 308.546 186.15 310.655C186.15 312.78 184.428 314.485 182.303 314.485ZM182.303 302.406C177.748 302.406 174.055 306.1 174.055 310.655C174.055 315.21 177.748 318.903 182.303 318.903C186.858 318.903 190.551 315.21 190.551 310.655C190.551 306.1 186.858 302.406 182.303 302.406Z" fill="#A09DD6"/>
<path d="M310.047 306.235H386.02V285.797H310.047V306.235Z" fill="#473D9E"/>
<path d="M465.881 292.469H230.988C223.125 292.469 216.75 286.094 216.75 278.231V117.23C216.75 109.366 223.125 102.992 230.988 102.992H465.881C473.746 102.992 480.121 109.366 480.121 117.23V278.231C480.121 286.094 473.746 292.469 465.881 292.469Z" fill="#0D035F"/>
<path d="M463.218 274.296H232.858C228.026 274.296 224.109 270.379 224.109 265.547V118.655C224.109 113.824 228.026 109.906 232.858 109.906H463.218C468.049 109.906 471.967 113.824 471.967 118.655V265.547C471.967 270.379 468.049 274.296 463.218 274.296Z" fill="#C9BEE4"/>
<path d="M418.676 317.346H277.391V315.568C277.391 309.435 282.364 304.461 288.498 304.461H407.57C413.704 304.461 418.676 309.435 418.676 315.568V317.346Z" fill="#0D035F"/>
<path d="M449.126 237.83H414.174V219.346H422.375V216.398H414.174V210.256H422.375V207.307H414.174V190.53H444.225V189.175H414.174V186.319H444.225V184.966H414.174V182.11H444.225V180.757H414.174V177.901H444.225V176.547H414.174V173.69H444.225V172.337H414.174V169.481H444.225V168.128H414.174V165.272H444.225V163.919H414.174V161.063H423.613C423.288 161.312 423.125 161.655 423.235 162.126C423.345 162.591 425.541 163.584 428.723 163.796C428.845 163.805 428.984 163.809 429.136 163.809C430.11 163.809 431.593 163.648 432.356 163.446C433.544 163.132 434.62 162.213 434.62 162.213L435.11 162.867L438.963 161.938C438.963 161.938 438.962 161.593 438.954 161.063H444.225V159.709H438.933C438.901 158.509 438.108 157.379 438.108 157.379L438.12 156.853H444.225V155.5H438.153L438.161 155.187L440.297 154.935C440.297 154.935 440.571 154.046 441.014 152.643H444.225V151.29H441.443C442.862 146.84 445.252 139.519 446.623 136.342C446.745 136.063 446.866 135.786 446.989 135.508H456.724V176.585C452.369 182.135 445.631 191.739 452.279 196.068C453.467 196.841 455.157 197.152 456.724 197.301V206.142C455.873 206.57 455.081 207.497 455.33 208.198L455.383 208.336L455.413 208.58L456.724 212.281V230.231C456.724 234.428 453.322 237.83 449.126 237.83L449.126 237.83ZM433.405 216.398V219.346H444.225V216.398H433.405ZM426.787 214.159V219.346H431.974V214.159H426.787ZM433.405 207.307V210.256H444.225V207.307H433.405ZM426.787 205.069V210.256H431.974V205.069H426.787ZM430.043 159.709H414.174V156.853H417.231C417.844 156.96 418.608 157.031 419.485 157.031C420.058 157.031 420.679 157.001 421.337 156.931C421.484 156.915 421.657 156.889 421.843 156.853H432.555C432.525 156.986 432.504 157.072 432.488 157.11C432.167 157.955 431.314 159.029 430.043 159.709L430.043 159.709ZM432.828 155.5H425.619C425.813 155.36 425.99 155.213 426.148 155.073C426.561 155.025 426.966 154.94 427.336 154.787L427.465 154.908L431.099 153.326C431.099 153.326 431.05 153.051 430.976 152.643H433.348C433.147 153.789 432.969 154.758 432.828 155.5ZM415.6 155.5H414.174V152.643H420.88C419.382 153.573 417.63 154.192 415.905 154.574C415.876 154.74 415.905 154.879 415.955 155.01C415.791 155.157 415.667 155.319 415.6 155.5ZM431.176 151.29H430.715C430.609 150.767 430.494 150.241 430.388 149.837C430.327 149.61 430.242 149.432 430.148 149.278C430.501 148.316 430.847 147.348 431.182 146.381C431.207 148.055 431.205 149.695 431.176 151.29H431.176ZM422.626 151.29H414.175V150.103C414.175 145.906 410.772 142.504 406.575 142.504H283.297V128.857C283.297 124.66 286.699 121.258 290.896 121.258H414.376H290.896C286.699 121.258 283.297 124.66 283.297 128.857V135.508H419.418C419.848 136.667 420.273 137.797 420.689 138.886H294.79V141.983H421.884C422.274 142.977 422.648 143.919 423.005 144.802C423.831 145.179 424.528 145.355 425.107 145.402C425.022 146.499 424.833 147.579 424.432 148.592L424.37 148.588C424.333 148.587 424.3 148.585 424.271 148.585C423.862 148.585 424.057 148.792 423.884 149.69L423.872 149.734C423.522 150.306 423.102 150.824 422.626 151.289L422.626 151.29ZM456.723 128.856C456.723 124.945 453.771 121.725 449.973 121.304C453.771 121.725 456.723 124.945 456.723 128.856Z" fill="#DED6EF"/>
<path d="M414.172 219.347H422.373V216.398H414.172V219.347Z" fill="#DAD2ED"/>
<path d="M414.172 210.253H422.373V207.305H414.172V210.253Z" fill="#DAD2ED"/>
<path d="M426.789 210.258H431.976V205.07H426.789V210.258Z" fill="#CDC2E6"/>
<path d="M426.789 219.344H431.976V214.156H426.789V219.344Z" fill="#D8C1BD"/>
<path d="M433.406 219.347H444.227V216.398H433.406V219.347Z" fill="#DAD2ED"/>
<path d="M433.406 210.253H444.227V207.305H433.406V210.253Z" fill="#DAD2ED"/>
<path d="M444.223 156.853H438.118L438.151 155.5H444.223V156.853H444.223ZM432.552 156.853H421.841C422.798 156.674 424.158 156.275 424.85 155.957C425.123 155.831 425.381 155.67 425.616 155.5H432.825C432.707 156.122 432.615 156.583 432.552 156.853ZM417.228 156.853H414.172V155.5H415.598C415.517 155.718 415.522 155.963 415.639 156.237C415.728 156.446 416.306 156.691 417.228 156.853" fill="#DAD2ED"/>
<path d="M421.883 141.98H294.789V138.883H420.688C421.098 139.958 421.497 140.994 421.883 141.98Z" fill="#DAD2ED"/>
<path d="M444.223 161.058H438.952C438.947 160.684 438.942 160.22 438.931 159.723C438.931 159.717 438.931 159.709 438.931 159.703H444.223V161.058L444.223 161.058ZM423.611 161.058H414.172V159.703H430.041C429.414 160.04 428.685 160.279 427.867 160.348C427.215 160.401 424.627 160.275 423.611 161.058Z" fill="#DAD2ED"/>
<path d="M444.222 152.642H441.011C441.142 152.233 441.284 151.777 441.441 151.289H444.222V152.642ZM433.346 152.642H430.973C430.905 152.267 430.812 151.781 430.712 151.289H431.173C431.172 151.401 431.17 151.515 431.168 151.627C431.168 151.627 431.941 152.273 433.382 152.434C433.37 152.504 433.358 152.574 433.346 152.642H433.346ZM420.878 152.642H414.172V151.289H422.623C422.1 151.799 421.512 152.249 420.878 152.642" fill="#DAD2ED"/>
<path d="M414.172 165.267H444.222V163.914H414.172V165.267Z" fill="#DAD2ED"/>
<path d="M414.172 169.478H444.222V168.125H414.172V169.478Z" fill="#DAD2ED"/>
<path d="M414.172 173.689H444.222V172.336H414.172V173.689Z" fill="#DAD2ED"/>
<path d="M414.172 177.901H444.222V176.547H414.172V177.901Z" fill="#DAD2ED"/>
<path d="M414.172 182.111H444.222V180.758H414.172V182.111Z" fill="#DAD2ED"/>
<path d="M414.172 186.322H444.222V184.969H414.172V186.322Z" fill="#DAD2ED"/>
<path d="M414.172 190.527H444.222V189.172H414.172V190.527Z" fill="#DAD2ED"/>
<path d="M456.723 135.508H446.988C447.714 133.866 448.454 132.226 448.912 130.492C449.252 130.709 449.655 130.835 450.087 130.835C451.298 130.835 452.279 129.854 452.279 128.643C452.279 127.433 451.298 126.453 450.087 126.453C449.904 126.453 449.725 126.476 449.553 126.518C449.658 125.359 449.72 124.194 449.813 123.036C449.858 122.458 449.913 121.881 449.974 121.305C453.772 121.727 456.723 124.947 456.723 128.857V135.508V135.508ZM419.418 135.508H283.297V128.857C283.297 124.66 286.699 121.258 290.896 121.258H414.376C415.985 126.049 417.746 131.006 419.418 135.508Z" fill="#C2B7E1"/>
<path d="M450.09 130.835C449.657 130.835 449.254 130.709 448.914 130.492C448.92 130.473 448.924 130.451 448.931 130.432C449.264 129.15 449.437 127.838 449.556 126.518C449.727 126.476 449.906 126.453 450.09 126.453C451.3 126.453 452.281 127.433 452.281 128.643C452.281 129.854 451.3 130.835 450.09 130.835" fill="#D4CBEA"/>
<path d="M403.054 263.615H244.826C240.629 263.615 237.227 260.213 237.227 256.016V187.178C237.616 186.641 237.93 186.098 238.158 185.591C238.715 184.344 237.877 183.835 237.839 183.242C237.818 182.932 238.217 181.127 238.158 180.895C238.064 180.475 237.703 180.26 237.227 180.155V175.99C238.519 174.931 239.383 173.954 239.383 173.51C239.383 173.363 239.274 173.299 239.088 173.299C238.71 173.299 238.012 173.558 237.227 173.924V154.642C237.227 151.83 238.752 149.376 241.022 148.062C240.841 148.712 240.746 149.396 240.746 150.103V251.478C240.746 255.673 244.148 259.076 248.343 259.076H406.573C407.959 259.076 409.258 258.706 410.375 258.058C409.485 261.263 406.544 263.615 403.054 263.615Z" fill="#AFA3D8"/>
<path d="M406.577 259.072H248.348C244.152 259.072 240.75 255.67 240.75 251.475V150.099C240.75 145.902 244.152 142.5 248.348 142.5H406.577C410.774 142.5 414.176 145.902 414.176 150.099V251.475C414.176 255.67 410.774 259.072 406.577 259.072Z" fill="white"/>
<path d="M257.234 246.62H264.788V227.656H257.234V246.62Z" fill="#F89E0E"/>
<path d="M274.25 246.622H281.804V211.008H274.25V246.622Z" fill="#B4A7DB"/>
<path d="M291.273 246.627H298.827V214.695H291.273V246.627Z" fill="#F89E0E"/>
<path d="M308.297 246.624H315.85V196.664H308.297V246.624Z" fill="#B4A7DB"/>
<path d="M274.25 246.622H277.717V211.008H274.25V246.622Z" fill="#AEA1D7"/>
<path d="M257.234 246.62H260.702V227.656H257.234V246.62Z" fill="#F09711"/>
<path d="M308.297 246.624H311.764V196.664H308.297V246.624Z" fill="#978BCD"/>
<path d="M291.273 246.627H294.741V214.695H291.273V246.627Z" fill="#F09711"/>
<path d="M319.852 251.842H252.242V186.281H253.274V250.811H319.852V251.842Z" fill="#D7DEDA"/>
<path d="M259.181 218.775L258.492 218.007L276.178 202.126L292.56 205.685L310.299 185.938L311.066 186.626L292.927 206.819L276.475 203.246L259.181 218.775Z" fill="#D7DEDA"/>
<path d="M312.462 189.539L307.461 184.743L313.918 183.016L312.462 189.539Z" fill="#D7DEDA"/>
<path d="M326.25 231.5H331.437V226.312H326.25V231.5Z" fill="#B4A7DB"/>
<path d="M326.25 240.594H331.437V235.406H326.25V240.594Z" fill="#F89E0E"/>
<path d="M332.867 240.589H349.313V237.641H332.867V240.589Z" fill="#F2F2F2"/>
<path d="M332.867 231.503H349.313V228.555H332.867V231.503Z" fill="#F2F2F2"/>
<path d="M356.766 231.5H361.953V226.312H356.766V231.5Z" fill="#B4A7DB"/>
<path d="M356.766 240.594H361.953V235.406H356.766V240.594Z" fill="#F89E0E"/>
<path d="M363.383 240.589H379.828V237.641H363.383V240.589Z" fill="#F2F2F2"/>
<path d="M363.383 231.503H379.828V228.555H363.383V231.503Z" fill="#F2F2F2"/>
<path d="M384.242 231.5H389.43V226.312H384.242V231.5Z" fill="#B4A7DB"/>
<path d="M384.242 240.594H389.43V235.406H384.242V240.594Z" fill="#F89E0E"/>
<path d="M390.852 240.589H401.674V237.641H390.852V240.589Z" fill="#F2F2F2"/>
<path d="M390.852 231.503H401.674V228.555H390.852V231.503Z" fill="#F2F2F2"/>
<path d="M327.227 178.097H401.678V176.742H327.227V178.097Z" fill="#F2F2F2"/>
<path d="M252.242 163.222H401.677V160.125H252.242V163.222Z" fill="#F2F2F2"/>
<path d="M327 182.308H401.675V180.953H327V182.308Z" fill="#F2F2F2"/>
<path d="M327 173.885H401.675V172.531H327V173.885Z" fill="#F2F2F2"/>
<path d="M327 186.517H401.675V185.164H327V186.517Z" fill="#F2F2F2"/>
<path d="M327 190.728H401.675V189.375H327V190.728Z" fill="#F2F2F2"/>
<path d="M327 194.933H401.675V193.578H327V194.933Z" fill="#F2F2F2"/>
<path d="M327 199.142H401.675V197.789H327V199.142Z" fill="#F2F2F2"/>
<path d="M327 203.353H401.675V202H327V203.353Z" fill="#F2F2F2"/>
<path d="M327 207.564H401.675V206.211H327V207.564Z" fill="#F2F2F2"/>
<path d="M336.141 211.776H401.674V210.422H336.141V211.776Z" fill="#F2F2F2"/>
<path d="M406.577 142.5H248.349C244.152 142.5 240.75 145.902 240.75 150.099V156.75H414.176V150.099C414.176 145.902 410.774 142.5 406.577 142.5Z" fill="#A99DD6"/>
<path d="M391.866 149.886C391.866 151.096 390.885 152.077 389.675 152.077C388.466 152.077 387.484 151.096 387.484 149.886C387.484 148.677 388.466 147.695 389.675 147.695C390.885 147.695 391.866 148.677 391.866 149.886Z" fill="#D5CCEA"/>
<path d="M400.798 149.886C400.798 151.096 399.816 152.077 398.606 152.077C397.395 152.077 396.414 151.096 396.414 149.886C396.414 148.677 397.395 147.695 398.606 147.695C399.816 147.695 400.798 148.677 400.798 149.886Z" fill="#D5CCEA"/>
<path d="M409.726 149.886C409.726 151.096 408.744 152.077 407.536 152.077C406.325 152.077 405.344 151.096 405.344 149.886C405.344 148.677 406.325 147.695 407.536 147.695C408.744 147.695 409.726 148.677 409.726 149.886Z" fill="#D5CCEA"/>
<path d="M452.23 109.903H441.184C440.948 108.197 440.587 106.63 440.077 105.253C445.615 105.987 450.561 106.72 455.416 106.72C459.354 106.72 463.229 106.239 467.313 104.884C468.082 104.629 468.779 104.271 469.404 103.789C469.824 103.921 470.237 104.074 470.64 104.244C470.421 104.343 469.943 106.386 465.439 107.783C464.029 108.22 462.773 108.318 461.402 108.318C460.84 108.318 460.261 108.302 459.644 108.286C459.025 108.27 458.37 108.253 457.657 108.253C456.602 108.253 455.424 108.289 454.062 108.414C453.555 108.461 452.996 108.525 452.657 108.904C452.465 109.119 452.377 109.406 452.295 109.682C452.272 109.756 452.251 109.831 452.23 109.903L452.23 109.903ZM429.044 109.903H424.634C424.601 108.198 424.566 106.495 424.531 104.79C425.711 104.858 426.92 104.895 428.135 104.895C428.37 104.895 428.605 104.894 428.84 104.89C428.875 106.431 428.947 108.112 429.044 109.903" fill="#443F9F"/>
<path d="M449.972 121.308C449.695 121.276 449.411 121.261 449.125 121.261H441.36C441.639 117.167 441.648 113.264 441.183 109.906H452.228C451.14 113.63 450.385 117.451 449.972 121.308V121.308ZM429.811 121.261H425.57C425.326 119.532 425.056 117.829 424.753 116.181C424.715 114.09 424.674 111.998 424.633 109.906H429.042C429.23 113.348 429.512 117.199 429.811 121.261Z" fill="#998CCE"/>
<path d="M429.138 163.807C428.986 163.807 428.847 163.804 428.725 163.795C425.543 163.583 423.347 162.589 423.237 162.125C423.127 161.653 423.291 161.311 423.615 161.062H438.956C438.964 161.591 438.965 161.937 438.965 161.937L435.112 162.865L434.623 162.212C434.623 162.212 433.546 163.131 432.358 163.445C431.595 163.647 430.112 163.807 429.138 163.807L429.138 163.807ZM438.935 159.707H430.045C431.316 159.028 432.168 157.954 432.49 157.109C432.505 157.071 432.526 156.985 432.557 156.851H438.122L438.11 157.378C438.11 157.378 438.903 158.508 438.935 159.707H438.935ZM419.486 157.03C418.61 157.03 417.845 156.959 417.232 156.851H421.845C421.658 156.888 421.486 156.913 421.338 156.93C420.68 157 420.06 157.03 419.486 157.03V157.03ZM438.155 155.498H432.83C432.971 154.757 433.148 153.787 433.35 152.642H441.016C440.573 154.045 440.298 154.934 440.298 154.934L438.163 155.186L438.155 155.498H438.155ZM425.62 155.498H415.602C415.668 155.318 415.793 155.155 415.956 155.008C415.906 154.878 415.878 154.738 415.906 154.573C417.631 154.191 419.383 153.572 420.882 152.642H430.977C431.052 153.05 431.1 153.325 431.1 153.325L427.466 154.907L427.337 154.785C426.967 154.939 426.562 155.023 426.149 155.072C425.992 155.212 425.814 155.359 425.62 155.498H425.62ZM441.445 151.289H437.252C437.507 148.803 438.023 145.592 438.611 141.982H444.227V138.885H439.118C439.296 137.78 439.476 136.653 439.654 135.507H446.99C446.867 135.784 446.746 136.062 446.625 136.341C445.254 139.517 442.863 146.839 441.445 151.289ZM430.717 151.289H422.627C423.104 150.823 423.524 150.306 423.874 149.734L423.886 149.69C424.059 148.792 423.864 148.585 424.273 148.585C424.302 148.585 424.335 148.586 424.372 148.588L424.434 148.592C424.835 147.579 425.024 146.499 425.109 145.402C425.221 145.411 425.329 145.414 425.432 145.414C427.113 145.414 427.698 144.29 427.698 144.29C427.647 143.559 427.594 142.789 427.537 141.983H431.076C431.128 143.467 431.164 144.937 431.184 146.381C430.849 147.348 430.503 148.316 430.149 149.278C430.243 149.432 430.328 149.61 430.389 149.837C430.495 150.241 430.611 150.767 430.717 151.29L430.717 151.289ZM430.952 138.886H427.319C427.24 137.797 427.157 136.667 427.066 135.508H430.779C430.843 136.635 430.9 137.765 430.952 138.886ZM449.976 121.305C449.698 121.273 449.414 121.258 449.126 121.258H441.363H449.128C449.414 121.258 449.698 121.273 449.976 121.305Z" fill="#AB9ED6"/>
<path d="M438.121 156.853H432.556C432.618 156.583 432.711 156.122 432.829 155.5H438.155L438.121 156.853H438.121ZM421.844 156.853H417.232C416.31 156.691 415.732 156.446 415.642 156.237C415.525 155.963 415.521 155.718 415.601 155.5H425.62C425.385 155.67 425.127 155.831 424.854 155.957C424.162 156.275 422.802 156.674 421.844 156.853Z" fill="#A799D4"/>
<path d="M444.228 141.98H438.613C438.778 140.978 438.948 139.94 439.12 138.883H444.228V141.98ZM431.077 141.98H427.539C427.47 140.996 427.398 139.958 427.32 138.883H430.953C431 139.922 431.043 140.953 431.077 141.98Z" fill="#A799D4"/>
<path d="M438.95 161.058H423.609C424.626 160.275 427.213 160.401 427.865 160.348C428.683 160.28 429.413 160.04 430.039 159.703H438.929C438.929 159.709 438.929 159.717 438.929 159.723C438.939 160.22 438.946 160.684 438.95 161.058" fill="#A799D4"/>
<path d="M441.017 152.642H433.351C433.363 152.574 433.375 152.504 433.387 152.434C433.592 152.457 433.811 152.471 434.043 152.471C434.916 152.471 435.978 152.284 437.211 151.737C437.225 151.589 437.238 151.441 437.254 151.289H441.446C441.29 151.777 441.147 152.233 441.017 152.642L441.017 152.642ZM430.979 152.642H420.883C421.517 152.249 422.105 151.799 422.629 151.289H430.718C430.818 151.781 430.91 152.267 430.979 152.642Z" fill="#A799D4"/>
<path d="M446.988 135.508H439.651C439.896 133.926 440.136 132.311 440.358 130.685C440.605 130.782 440.875 130.835 441.157 130.835C442.366 130.835 443.347 129.854 443.347 128.643C443.347 127.433 442.366 126.453 441.157 126.453C441.064 126.453 440.973 126.459 440.884 126.47C441.08 124.716 441.243 122.97 441.36 121.258H449.123C449.411 121.258 449.695 121.273 449.973 121.305C449.912 121.881 449.857 122.458 449.812 123.036C449.719 124.194 449.657 125.359 449.552 126.518C448.601 126.756 447.896 127.618 447.896 128.643C447.896 129.421 448.301 130.104 448.911 130.492C448.453 132.226 447.713 133.865 446.988 135.508V135.508ZM430.776 135.508H427.063C426.706 130.994 426.242 126.03 425.57 121.258H429.811C429.966 123.34 430.124 125.479 430.275 127.645C430.122 127.944 430.034 128.284 430.034 128.643C430.034 129.11 430.181 129.544 430.43 129.899C430.555 131.762 430.673 133.636 430.776 135.508Z" fill="#9486CB"/>
<path d="M430.435 129.895C430.186 129.54 430.039 129.106 430.039 128.639C430.039 128.279 430.127 127.939 430.28 127.641C430.332 128.39 430.385 129.141 430.435 129.895Z" fill="#A395D2"/>
<path d="M441.159 130.835C440.877 130.835 440.607 130.782 440.359 130.685C440.55 129.285 440.728 127.874 440.886 126.47C440.975 126.46 441.066 126.453 441.159 126.453C442.368 126.453 443.349 127.433 443.349 128.643C443.349 129.854 442.368 130.835 441.159 130.835" fill="#A395D2"/>
<path d="M448.913 130.49C448.303 130.101 447.898 129.419 447.898 128.641C447.898 127.615 448.604 126.754 449.555 126.516C449.436 127.835 449.264 129.147 448.93 130.429C448.924 130.449 448.92 130.47 448.913 130.49" fill="#A395D2"/>
<path d="M467.597 292.472H460.977H465.885C466.473 292.472 467.054 292.435 467.623 292.367L467.597 292.472" fill="#B9A8DB"/>
<path d="M456.722 212.279L455.411 208.578L455.381 208.334L455.328 208.196C455.079 207.495 455.871 206.568 456.722 206.141V212.279" fill="#AB9ED6"/>
<path d="M216.75 197.537V192.911C219.664 191.277 222.353 189.748 224.106 188.75V193.071C222.056 194.326 219.461 195.906 216.75 197.537Z" fill="#443F9F"/>
<path d="M224.109 193.076V188.754C225.371 188.035 226.151 187.591 226.183 187.58C226.908 187.837 227.61 187.951 228.284 187.951C231.439 187.951 233.935 185.46 234.845 183.57C235.341 182.542 234.597 182.121 234.563 181.633C234.551 181.454 234.722 180.662 234.807 180.144C234.929 180.136 235.056 180.127 235.19 180.116C235.532 180.092 235.906 180.069 236.268 180.069C236.609 180.069 236.941 180.091 237.231 180.153V187.176C235.857 189.07 233.538 190.902 230.77 190.902C230.011 190.902 229.218 190.766 228.402 190.453C228.35 190.473 226.647 191.524 224.109 193.076V193.076ZM234.123 179.111C233.844 179.041 233.509 179.018 233.165 179.018C232.843 179.018 232.512 179.038 232.208 179.058C231.903 179.077 231.625 179.097 231.408 179.097C231.379 179.097 231.352 179.097 231.326 179.097C231.963 178.001 232.66 176.936 233.306 176.224C233.598 175.901 235.602 174.682 237.231 173.922V175.988C236.746 176.387 236.2 176.796 235.616 177.195C234.888 177.693 234.419 178.472 234.123 179.111" fill="#998CCE"/>
<path d="M237.227 187.176V180.153C237.703 180.257 238.064 180.473 238.158 180.893C238.217 181.125 237.818 182.93 237.839 183.24C237.877 183.833 238.715 184.342 238.158 185.589C237.93 186.096 237.616 186.639 237.227 187.176ZM237.227 175.988V173.922C238.012 173.556 238.71 173.297 239.088 173.297C239.274 173.297 239.383 173.361 239.383 173.508C239.383 173.952 238.519 174.929 237.227 175.988Z" fill="#8077C3"/>
<path d="M477.738 241.477L476.164 228.823C476.164 228.578 476.197 228.342 476.258 228.117L479.897 227.758C478.665 228.005 477.739 229.091 477.739 230.396V241.477" fill="#958ACC"/>
<path d="M187.313 144.255C189.347 147.768 187.59 152.568 189.642 156.071C190.464 157.472 191.855 158.575 192.251 160.151C192.582 161.475 192.068 162.972 190.994 163.814C189.918 164.656 188.341 164.797 187.135 164.157C186.874 164.019 186.627 163.847 186.345 163.766C185.33 163.468 184.411 164.369 183.539 164.967C182.469 165.698 181.074 166.03 179.844 165.619C178.268 165.091 177.294 163.503 176.768 161.926C175.299 157.518 176.343 152.691 177.699 148.247C178.377 146.027 179.378 143.563 181.556 142.758" fill="black"/>
<path d="M234.56 181.637C234.593 182.126 235.338 182.546 234.842 183.574C233.738 185.868 230.296 189.045 226.179 187.585C226 187.649 203.44 200.69 201.701 200.69C199.963 200.69 188.123 189.485 184.25 175.622C183.327 172.314 183.686 168.423 186.785 166.75C186.785 166.75 189.368 167.375 191.046 170.542C193.611 175.382 201.292 191.415 202.994 192.02C205.116 190.606 215.447 187.536 223.813 183.982C225.677 183.169 226.393 182.484 227.056 181.272C227.684 180.045 229.224 177.192 230.533 175.852C230.98 175.394 235.931 172.743 235.931 173.614C235.932 174.117 234.478 175.452 232.583 176.653C231.613 177.268 231.161 178.408 230.972 178.895C230.838 179.162 231.437 179.112 232.204 179.062C233.269 178.994 234.655 178.924 234.842 179.702C234.896 179.893 234.543 181.383 234.56 181.637Z" fill="#F9AAAB"/>
<path d="M185.884 166.336C188.812 167.02 191.223 168.899 192.622 171.561C192.978 172.239 193.259 172.954 193.54 173.667C194.741 176.724 196.394 179.491 197.597 182.548C195.953 183.873 193.964 184.483 192.29 185.106C190.721 185.69 189.019 185.919 187.351 185.769C187.067 185.743 186.778 185.705 186.52 185.586C186.172 185.425 185.907 185.132 185.655 184.842C185.141 184.252 184.639 183.65 184.154 183.037C183.735 182.511 183.319 181.959 183.145 181.311C182.908 180.432 183.145 179.502 183.382 178.622L185.884 166.336Z" fill="#31C5FF"/>
<path d="M188.376 185.799C188.141 185.799 187.906 185.792 187.671 185.778L187.662 185.765L188.046 179.317C187.679 178.134 187.483 176.896 187.469 175.657C187.466 175.335 187.478 174.997 187.638 174.715C187.765 174.492 188.015 174.32 188.263 174.32C188.326 174.32 188.388 174.331 188.449 174.355C188.608 174.417 188.725 174.554 188.836 174.684C191.246 177.559 193.725 180.636 194.498 184.271C193.755 184.571 193.015 184.835 192.329 185.09C192.317 185.094 192.303 185.099 192.29 185.105C191.041 185.569 189.71 185.799 188.376 185.799" fill="#5950AC"/>
<path d="M178.837 159.936C178.837 159.936 178.751 163.974 179.371 164.238C180.601 164.761 181.98 165.045 181.98 165.045L182.021 173.399L170.882 171.72L163.219 167.455C163.219 167.455 171.183 164.814 171.253 164.021C171.323 163.226 170.815 158.758 170.815 158.758" fill="#F9AAAB"/>
<path d="M161.726 280.832L161.721 280.864C158.673 295.313 160.125 315.163 159.445 326.04C159.605 326.084 163.586 326.583 163.586 326.583C163.586 326.583 173.012 280.735 174.723 271.954C174.838 271.34 174.917 270.763 174.939 270.254C175.35 263.646 169.396 263.31 166.04 268.772C165.485 269.667 164.968 270.654 164.505 271.72C164.316 272.151 164.14 272.588 163.956 273.054L163.953 273.069C163.399 274.498 162.906 276.04 162.475 277.681L162.44 277.848C162.301 278.311 162.187 278.779 162.075 279.25L162.052 279.356C161.935 279.841 161.832 280.328 161.726 280.832" fill="#F9AAAB"/>
<path d="M179.566 228.968C179.454 230.163 178.817 235.852 178.051 242.563C177.397 248.205 176.681 254.565 176.123 259.602C175.709 263.379 175.406 266.392 175.278 267.81C175.215 268.687 175.102 269.484 174.943 270.249V270.281C173.508 276.879 168.95 277.263 166.178 275.732C165.794 275.541 165.428 275.269 165.125 275.015C164.488 274.441 164.057 273.739 163.945 273.07V273.055C163.77 271.699 163.594 269.85 163.435 267.651V267.619L163.42 267.587L163.403 267.54C163.07 263.252 162.781 257.737 162.527 252.366C162.225 245.766 162.032 239.406 161.985 235.821C161.968 235.613 161.968 235.422 161.953 235.231C161.905 224.234 172.011 217.188 178.291 220.6L178.514 220.71L178.753 220.854C179.471 221.332 179.709 222.973 179.726 224.854C179.757 226.225 179.662 227.724 179.566 228.968" fill="#F9AAAB"/>
<path d="M164.191 270.466L163.422 267.586L163.43 267.621C163.446 268.272 163.521 272.913 162.474 277.679L162.439 277.846C162.328 278.301 162.213 278.785 162.073 279.247L162.051 279.353C161.834 280.116 161.734 280.589 161.725 280.829L161.719 280.861C161.71 282.167 164.491 276.367 165.129 275.011C165.207 274.838 165.256 274.739 165.256 274.739L164.504 271.718L164.191 270.466" fill="#F9AAAB"/>
<path d="M185.958 283.594V283.626C185.67 298.755 190.342 316.544 191.578 327.533C191.728 327.538 195.394 327.045 195.394 327.045C195.394 327.045 196.092 280.694 196.14 271.536C196.14 270.896 196.115 270.304 196.048 269.79C195.297 263.118 189.884 264.261 187.792 270.527C187.445 271.556 187.147 272.664 186.912 273.84C186.815 274.316 186.73 274.794 186.645 275.302L186.644 275.319C186.389 276.877 186.207 278.534 186.098 280.273L186.094 280.449C186.047 280.943 186.025 281.438 186.003 281.932L186 282.044C185.977 282.556 185.968 283.067 185.957 283.595" fill="#F9AAAB"/>
<path d="M189.103 277.421C188.714 277.318 188.356 277.153 188.04 276.958C187.358 276.546 186.848 275.97 186.649 275.319L186.65 275.302C186.253 273.999 185.78 272.179 185.255 270.031L185.245 269.996L185.222 269.942C184.201 265.769 182.989 260.354 181.859 255.085C180.471 248.599 179.212 242.316 178.566 238.75C178.516 238.558 177.956 235.961 177.918 235.77C175.98 224.718 184.6 217.518 190.864 219.623L191.11 219.708C192.369 220.213 192.718 224.644 193.002 227.638C193.285 230.631 195.415 261.665 195.946 267.275C196.031 268.166 196.069 268.998 196.055 269.79C195.905 276.728 191.862 278.248 189.103 277.421" fill="#F9AAAB"/>
<path d="M186.424 272.666L185.242 269.992L185.254 270.025C185.38 270.669 186.236 275.266 186.102 280.265L186.099 280.441C186.076 280.921 186.054 281.432 186.008 281.925L186.004 282.037C185.939 282.85 185.93 283.346 185.961 283.587V283.619C186.175 284.92 187.694 278.46 188.036 276.953C188.077 276.762 188.105 276.651 188.105 276.651L186.915 273.833L186.422 272.666" fill="#F9AAAB"/>
<path d="M166.839 207.739C166.839 207.739 158.727 218.044 159.56 228.399C159.906 232.708 160.441 236.506 160.931 240.843C161.003 241.468 161.975 250.573 161.7 250.582C161.7 250.582 178.415 255.747 194.563 248.98C194.563 247.876 195.856 226.683 187.132 206.477C176.604 207.965 166.839 207.739 166.839 207.739Z" fill="#3F3F3F"/>
<path d="M157.703 319.222L162.211 250.536L179.184 251.597L194.565 248.945L196.687 270.426V323.996L190.322 324.791L179.184 251.597L165.659 320.018L157.703 319.222Z" fill="#3F3F3F"/>
<path d="M192.619 183.949C192.555 186.901 190.983 188.698 188.731 191.185C188.446 191.628 187.747 198.208 187.508 202.584C187.384 204.861 188.356 206.291 187.508 206.478C184.265 209.307 172.58 211.597 167.22 207.737C167.781 202.979 165.65 192.496 164.212 187.166C163.987 186.345 163.79 185.652 163.611 185.118C162.272 181.07 159.854 168.088 161.644 167.522C162 167.41 162.554 167.263 163.196 167.07C165.997 166.223 170.136 164.773 170.136 164.773C170.136 164.773 172.565 171.957 178.878 172.825C182.324 171.405 182.021 167.047 181.98 165.043C183.107 165.354 183.603 165.664 187.096 166.698C188.074 168.11 187.229 171.056 188.811 175.449C189.206 176.541 192.696 180.354 192.619 183.949Z" fill="#31C5FF"/>
<path d="M186.9 143.443C186.9 143.443 187.538 151.247 186.207 155.338C185.221 158.367 181.172 161.194 177.787 161.156C168.468 161.156 166.796 148.498 166.845 147.886C166.893 147.274 180.59 141.961 180.59 141.961L186.9 143.443Z" fill="#F9AAAB"/>
<path d="M204.644 331.913C201.327 332.51 197.782 331.577 196.329 331.829C195.128 332.034 192.043 332.817 190.888 331.779C189.733 330.74 189.919 327.079 191.246 326.59C191.246 326.59 191.554 326.707 192.108 326.798C192.936 326.924 194.315 326.985 196.035 326.477C198.559 327.516 198.653 327.969 201.521 328.549C202.771 328.803 204.221 329.219 205.177 329.657C206.414 330.223 206.513 331.579 204.644 331.913" fill="#4E42A2"/>
<path d="M168.839 333.367C165.515 332.809 163.411 330.97 161.958 330.717C160.759 330.503 157.736 329.915 157.42 328.677C157.183 327.755 158.097 323.925 159.51 323.914C159.51 323.914 159.759 324.128 160.25 324.401C160.988 324.798 162.265 325.322 164.055 325.425C166.079 327.256 166.014 327.714 168.519 329.227C169.609 329.89 170.833 330.772 171.584 331.507C172.558 332.458 170.712 333.684 168.839 333.367Z" fill="#4E42A2"/>
<path d="M120.398 178.381L123.45 174.75L142.07 191.4C142.07 191.4 151.162 179.299 153.662 175.52C156.412 171.366 158.89 167.812 162.911 167.117C163.838 167.689 162.599 182.611 162.115 182.972C156.497 187.175 145.565 200.733 142.089 201.438C138.074 202.251 120.398 178.381 120.398 178.381Z" fill="#F9AAAB"/>
<path d="M164.295 166.453C164.295 166.453 160.489 166.502 158.854 167.849C157.218 169.196 149.403 181.583 149.403 181.583C149.403 181.583 149.203 183.924 151.458 185.885C153.871 187.984 157.087 188.322 157.087 188.322C157.087 188.322 161.01 184.418 163.221 182.642C164.598 181.535 164.735 184.274 164.735 184.274L171.651 177.523L164.295 166.453Z" fill="#31C5FF"/>
<path d="M161.997 166.609C161.789 166.499 161.586 166.379 161.388 166.26C160.321 165.623 159.339 164.953 158.89 163.74C158.243 161.991 157.932 159.307 158.837 157.612C159.451 156.463 160.604 155.713 161.394 154.678C162.487 153.248 162.81 151.379 162.902 149.583C162.993 147.786 162.887 145.966 163.265 144.208C163.909 141.2 164.766 138.336 167.084 136.399C170.796 133.296 178.236 131.457 182.282 134.917C183.018 135.548 183.162 136.052 184.156 136.149C185.489 136.278 186.353 136.448 187.552 137.141C188.879 137.908 190.49 138.99 190.303 140.733C190.173 141.939 188.803 143.848 187.772 144.417C187.339 144.655 186.834 144.728 186.341 144.737C184.764 144.767 183.455 143.742 181.908 143.907C181.151 143.989 180.442 144.396 179.965 144.986C179.406 145.674 179.482 146.633 178.832 147.278C177.787 148.311 176.167 148.223 174.929 148.895C174.724 149.007 174.513 149.133 174.395 149.334C174.28 149.532 174.269 149.77 174.26 149.997C174.236 150.65 174.211 151.302 174.189 151.952C173.574 151.682 173.511 150.809 173.004 150.369C172.516 149.946 171.719 150.061 171.229 150.484C170.739 150.906 170.503 151.55 170.374 152.185C170.218 152.946 170.485 153.753 170.718 154.519C171.123 155.848 172.262 157.044 173.181 156.166C173.849 157.147 173.119 158.786 173.095 159.894C173.075 160.774 173.091 162.518 173.914 163.096C174.671 163.629 175.869 163.225 175.916 164.595C175.957 165.848 174.703 166.828 173.459 166.981C172.214 167.134 170.984 166.696 169.781 166.339C168.579 165.981 167.263 165.704 166.093 166.159C165.385 166.433 164.774 166.966 164.023 167.09C163.322 167.207 162.638 166.949 161.997 166.609" fill="black"/>
<path d="M128.158 178.981C128.158 178.981 123.78 175.472 123.482 174.512C123.183 173.551 123.119 172.524 122.758 171.585C122.232 170.214 121.079 169.122 119.721 168.563C118.625 168.111 119.162 167.74 117.986 167.967C116.213 168.31 115.371 170.048 114.663 171.407C111.64 177.2 119.919 178.298 120.21 178.309C120.814 178.333 123.894 181.825 123.894 181.825" fill="#F9AAAB"/>
<path d="M114.976 173.411C114.738 171.726 115.114 170.12 116.03 168.902C116.346 168.482 116.723 168.108 117.106 167.743C117.289 167.565 117.483 167.385 117.753 167.315C118.173 167.204 118.703 167.379 119.156 167.632C119.646 167.905 120.115 168.303 120.306 168.774C120.626 169.56 120.082 170.214 119.463 170.607L119.308 170.76L119.414 171.116C119.695 171.606 119.916 172.139 119.859 172.613C119.799 173.088 119.385 173.472 118.829 173.384C118.603 173.348 118.301 173.26 118.227 173.433L118.222 173.628C118.283 174.107 118.158 174.563 117.873 174.892L117.595 175.066L117.304 175.027C116.951 174.928 116.602 174.773 116.279 174.572" fill="#F9AAAB"/>
<path d="M123.456 174.746C123.35 174.102 123.122 173.046 123.098 172.392C123.033 170.627 122.095 168.876 120.566 167.99C120.44 167.918 120.298 167.848 120.155 167.872C119.973 167.904 119.846 168.084 119.82 168.266C119.793 168.448 119.844 168.634 119.9 168.809C120.078 169.366 120.868 170.411 120.624 170.985C120.258 171.842 119.967 172.773 119.999 173.713C120.026 174.546 120.415 175.897 121.401 176.034" fill="#F9AAAB"/>
<path d="M403.269 54.0031C403.269 54.0031 399.735 51.5094 399.609 50.4629C399.483 49.4148 397.02 45.1723 396.231 44.3274C395.444 43.4825 391.3 42.0477 390.417 41.9202C389.534 41.7943 384.462 42.2251 385.093 42.9168C385.724 43.6084 389.007 43.3567 389.638 43.7358C390.269 44.1135 390.269 44.1135 390.269 44.1135C390.269 44.1135 389.638 44.969 389.889 45.4877C390.143 46.0065 388.806 46.8043 389.311 47.6871C389.817 48.5714 389.107 48.5092 389.559 49.4314C390.305 50.9543 392.215 51.8022 392.72 51.3866C393.099 52.2876 394.547 54.1259 395.905 54C397.264 53.8726 400.562 56.9654 400.562 56.9654L403.269 54.0031Z" fill="#F9AAAB"/>
<path d="M457.157 36.2578C457.277 38.6316 457.108 42.7649 457.788 43.3777C458.468 43.989 460.661 43.8949 460.661 43.8949C460.661 43.8949 452.819 53.8102 452.118 53.2657C451.417 52.7197 442.142 45.163 444.226 44.7716C446.31 44.3818 448.35 44.4652 448.291 43.3868C448.232 42.3083 448.173 41.2284 448.114 40.1499L457.157 36.2578Z" fill="#F9AAAB"/>
<path d="M466.095 89.2109C466.095 89.2109 450.794 90.9477 447.272 91.0205C443.75 91.0933 443.924 89.2534 443.924 89.2534C443.745 85.3764 443.088 76.2408 442.359 73.145C441.679 70.2539 441.377 69.1861 440.786 66.4392C439.469 60.3341 439.527 59.1676 438.133 51.6322L447.272 44.2863C447.272 44.2863 448.218 47.097 452.048 47.1455C457.169 47.2107 458.761 43.625 458.761 43.625L471.226 51.9006L472.396 72.0316L470.905 88.6103L466.095 89.2109Z" fill="#F89E0E"/>
<path d="M457.327 34.1117C457.049 35.3069 456.688 36.4839 456.248 37.6291C455.44 39.7284 454.249 40.4837 452.027 40.5368C450.465 40.5732 448.904 40.6111 447.342 40.6475C446.143 40.6763 444.651 40.7172 443.683 39.8755C442.723 39.0412 442.702 37.6382 442.489 36.4824C442.218 35.005 441.995 33.517 441.825 32.0245C441.49 29.1001 441.352 26.153 441.412 23.2104C441.42 22.8054 441.432 22.3989 441.517 22.0045C441.552 21.8437 441.602 21.6769 441.717 21.5616C441.863 21.416 442.078 21.3766 442.28 21.3447C445.206 20.8836 448.176 20.6925 451.137 20.7774C453.228 20.8366 455.444 21.0808 457.101 22.361C458.766 23.6487 459.556 25.7419 460.269 27.7244C460.383 28.0429 460.468 28.4676 460.192 28.6618" fill="#F9AAAB"/>
<path d="M423.008 143.794C423.008 143.794 423.516 146.836 423.921 147.877C424.326 148.916 427.74 147.957 427.965 147.285C428.191 146.612 426.891 141.664 426.891 141.664" fill="#EE8C73"/>
<path d="M429.156 148.146C429.452 149.267 429.825 151.421 429.825 151.421L426.412 152.906L425.852 152.381C425.852 152.381 425.008 153.406 423.959 153.89C423.183 154.25 421.508 154.714 420.657 154.806C417.678 155.126 415.487 154.567 415.311 154.154C414.57 152.428 418.523 151.965 419.307 151.759C421.56 151.166 422.811 149.255 423.051 148.008C423.225 147.104 423.001 146.945 423.506 146.974C423.506 146.974 423.949 146.949 424.36 147.374C424.991 148.023 425.939 148.321 426.784 147.937C427.266 147.718 427.724 147.397 427.993 146.93C427.993 146.93 428.862 147.024 429.156 148.146Z" fill="#332E7D"/>
<path d="M438.091 104.01C432.757 105.059 426.061 105.134 420.672 104.423C421.426 106.584 423.273 109.353 423.977 112.394C426.301 122.441 427.108 135.938 427.698 144.286C427.698 144.286 426.583 146.429 423.007 144.797C417.664 131.602 408.336 104.861 408.422 99.0595C408.533 91.6742 426.967 89.8905 440.477 88.0703L438.091 104.01Z" fill="#3F2E89"/>
<path d="M461.639 89.2269C465.887 92.3287 438.091 104.014 438.091 104.014C435.008 104.621 432.005 104.891 428.981 104.883C428.694 104.333 428.425 103.767 428.303 103.16C428.139 102.353 428.227 101.513 428.086 100.703C427.811 99.124 426.678 97.7907 425.308 96.9595C423.939 96.1283 422.348 95.743 420.766 95.4882C417.007 94.8815 410.445 95.3062 410.445 95.3062C418.8 89.148 435.893 88.3425 443.854 87.8359C444.875 89.5181 452.233 89.3709 457.164 89.2253C459.596 89.1525 461.437 89.0797 461.639 89.2264" fill="#332E7D"/>
<path d="M431.821 150.813C431.821 150.813 431.794 153.899 432.013 154.994C432.231 156.087 435.759 155.735 436.097 155.112C436.436 154.489 436.014 149.391 436.014 149.391" fill="#EE8C73"/>
<path d="M437.117 156.164C437.214 157.322 437.208 159.506 437.208 159.506L433.59 160.378L433.129 159.762C433.129 159.762 432.119 160.627 431.004 160.921C430.176 161.139 428.447 161.308 427.591 161.25C424.603 161.05 422.542 160.119 422.439 159.682C422.009 157.854 425.982 158.083 426.79 158.016C429.111 157.822 430.675 156.157 431.127 154.971C431.456 154.11 431.263 153.915 431.756 154.03C431.756 154.03 432.196 154.085 432.527 154.573C433.035 155.322 433.918 155.779 434.817 155.547C435.33 155.415 435.837 155.18 436.182 154.766C436.182 154.766 437.021 155.008 437.117 156.164Z" fill="#332E7D"/>
<path d="M470.914 88.6094C470.914 88.6094 462.412 89.4512 452.082 89.21C449.677 89.209 431.486 92.6228 429.746 95.705C426.884 100.776 431.613 130.409 431.175 151.625C431.175 151.625 433.356 153.445 437.213 151.734C438.172 141.312 444.33 116.726 440.081 105.249C450.111 106.58 458.201 107.902 467.317 104.88C469.451 104.173 471.047 102.666 472.007 99.9065C472.969 97.1383 472.467 91.0848 470.914 88.6094Z" fill="#3F2E89"/>
<path d="M447.279 44.2891C447.279 44.2891 445.093 44.4089 444.667 44.4438C442.844 44.5879 440.989 44.8275 439.264 45.4661C436.786 46.3838 435.037 48.6893 433.019 50.4928C431.076 52.228 421.008 61.8218 419.13 62.1752C417.251 62.5301 400.766 51.2315 400.766 51.2315L396.742 55.257C396.742 55.257 414.631 71.7856 419.964 71.8144C422.552 71.8281 436.833 64.3108 441.403 61.3895L447.279 44.2891Z" fill="#F89E0E"/>
<path d="M433.677 65.7632C433.598 65.7573 433.516 65.7541 433.436 65.7541H426.172C431.901 62.2245 439.022 56.7109 439.022 56.7109L439.955 62.2685L438.399 63.171C437.003 63.9673 435.379 64.8607 433.677 65.7632" fill="#EE7B15"/>
<path d="M413.574 65.7616H409.204C402.991 61.0322 396.742 55.2577 396.742 55.2577L397.523 54.4766C398.867 55.5095 407.267 61.9271 413.574 65.7616Z" fill="#EE7B15"/>
<path d="M402.838 91.9165H443.785L436.442 67.9814C436.037 66.6588 434.816 65.7578 433.434 65.7578H397.574C396.202 65.7578 395.22 67.085 395.622 68.397L402.838 91.9165Z" fill="#A99DD6"/>
<path d="M402.328 91.9165H442.659L435.317 67.9814C434.912 66.6588 433.691 65.7578 432.308 65.7578H396.449C395.077 65.7578 394.095 67.085 394.497 68.397L401.531 91.328C401.638 91.6784 401.961 91.9165 402.328 91.9165Z" fill="#7668BA"/>
<path d="M471.253 84.7756L472.4 72.0314L471.231 51.9005L460.144 44.5394C460.467 44.1344 460.659 43.8948 460.659 43.8948C460.659 43.8948 460.536 43.8996 460.339 43.8996C460.031 43.8996 459.541 43.8874 459.06 43.8191L458.766 43.625C463.883 43.9496 467.266 44.5866 471.831 46.921C472.617 47.323 473.391 47.7947 473.943 48.4833C474.992 49.7908 475.05 51.611 475.032 53.287C474.923 62.7959 472.714 78.7586 471.253 84.7758" fill="#E0B4CC"/>
<path d="M460.147 44.5408L459.062 43.8203C459.543 43.8886 460.033 43.9008 460.341 43.9008C460.538 43.9008 460.661 43.896 460.661 43.896C460.661 43.896 460.47 44.1356 460.147 44.5406" fill="#F48583"/>
<path d="M451.058 89.2913C448.907 89.2489 446.887 89.1017 445.516 88.7422C452.32 85.6404 455.25 81.5784 462.311 78.8375C462.888 72.2501 463.249 65.0377 465.286 55.8231L458.763 43.625L459.058 43.8191L460.142 44.5396L471.228 51.9006L472.398 72.0316L471.251 84.7758C470.899 86.2289 470.59 87.1011 470.364 87.1633C469.895 87.2922 466.81 88.1461 462.872 89.1154C462.395 89.1336 461.9 89.1518 461.392 89.1669C461.205 89.1472 460.925 89.1396 460.568 89.1396C459.76 89.1396 458.559 89.1806 457.162 89.223C456.802 89.2333 456.428 89.2443 456.045 89.2534C455.988 89.2534 455.93 89.2534 455.871 89.2534C454.644 89.2534 453.374 89.2412 452.076 89.211H452.075C451.858 89.211 451.51 89.2382 451.058 89.2914" fill="#EE7B15"/>
<path d="M443.403 90.6677L442.789 88.6641C444.095 88.6731 445.245 88.8643 445.245 88.8643C445.337 88.8233 445.428 88.7824 445.519 88.7414C446.89 89.1009 448.911 89.248 451.062 89.2905C449.469 89.4771 446.567 89.9776 443.403 90.6677ZM456.049 89.2526C456.431 89.2435 456.806 89.2329 457.165 89.2222C458.562 89.1798 459.764 89.1388 460.572 89.1388C460.928 89.1388 461.209 89.1468 461.396 89.1661C459.75 89.2176 457.951 89.251 456.049 89.2525" fill="#2F2761"/>
<path d="M445.674 92.1948C445.653 92.1948 445.632 92.1948 445.612 92.1948C445.612 92.1948 444.815 92.0825 443.781 91.8869L443.406 90.6704C446.57 89.9803 449.472 89.4797 451.065 89.2931C451.517 89.24 451.864 89.2127 452.081 89.2127H452.082C453.38 89.2431 454.65 89.2552 455.877 89.2552C455.936 89.2552 455.994 89.2552 456.051 89.2552C457.953 89.2541 459.752 89.2202 461.398 89.1687C461.906 89.1536 462.401 89.1354 462.878 89.1172C457.124 90.5339 449.553 92.1948 445.673 92.1948" fill="#3B2769"/>
<path d="M443.779 91.8842C443.398 91.8129 442.987 91.7295 442.571 91.637L441.672 88.7065C442.007 88.6761 442.35 88.6641 442.685 88.6641C442.72 88.6641 442.755 88.6641 442.79 88.6641L443.404 90.6677L443.779 91.8842" fill="#9C7BC4"/>
<path d="M442.571 91.6414C440.806 91.2486 438.958 90.6767 439.137 90.0366C439.378 89.169 440.473 88.8217 441.672 88.7109L442.571 91.6414Z" fill="#6F51AA"/>
<path d="M446.209 90.293C445.439 89.3253 444.038 89.1843 442.802 89.2146C441.887 89.2374 440.972 89.3101 440.065 89.433C439.653 89.4891 439.177 89.5862 439.134 90.0337C439.09 90.4811 441.139 90.0337 442.213 90.3446C440.109 90.5251 437.994 90.5812 435.882 90.516C435.636 90.508 435.382 90.4993 435.154 90.5903C434.925 90.6813 434.728 90.8997 434.743 91.1454C434.755 91.3381 434.89 91.4988 435.033 91.6278C435.623 92.1571 436.43 92.368 437.211 92.5045C440.44 93.0687 443.833 92.9717 446.835 91.6551" fill="#F9AAAB"/>
<path d="M464.842 55.6517C464.673 65.5018 463.974 70.0098 464.165 79.8599C459.22 80.9171 452.375 86.5156 445.373 89.6326C445.373 89.6326 444.958 91.022 445.606 92.1945C446.139 92.3901 469.222 86.7704 471.057 85.0792C472.709 83.5563 474.895 65.0938 475.03 53.2885C475.048 51.6125 474.99 49.7923 473.941 48.4848C473.389 47.7962 472.615 47.3245 471.83 46.9225C467.264 44.5882 463.881 43.9511 458.764 43.625" fill="#F89E0E"/>
<path d="M417.602 83.805C415.864 83.8039 414.256 83.3499 413.017 82.5764C411.787 81.8089 410.877 80.6758 410.774 79.3001L410.766 79.0695C410.767 77.7378 411.573 76.6078 412.713 75.866C413.861 75.1168 415.383 74.689 417.071 74.6875C418.808 74.6886 420.417 75.1425 421.656 75.9161C422.886 76.6836 423.796 77.8167 423.898 79.1939L423.143 79.247L423.898 79.1939L423.907 79.4229C423.906 80.7547 423.1 81.8847 421.96 82.6264C420.811 83.3757 419.29 83.8035 417.602 83.805H417.602ZM417.602 82.2897C417.606 82.2897 417.608 82.2897 417.612 82.2897C419.035 82.2897 420.283 81.9135 421.128 81.3569C421.982 80.7911 422.39 80.1085 422.39 79.4229L422.385 79.2986C422.34 78.5766 421.818 77.8091 420.85 77.2008C419.895 76.6002 418.545 76.2043 417.08 76.2043C417.076 76.2043 417.074 76.2043 417.07 76.2043C417.067 76.2043 417.065 76.2043 417.06 76.2043C415.637 76.2043 414.389 76.5789 413.544 77.1356C412.69 77.7014 412.282 78.3839 412.282 79.0695L412.287 79.1939C412.331 79.9159 412.853 80.6849 413.822 81.2916C414.778 81.8923 416.127 82.2897 417.593 82.2897C417.596 82.2897 417.599 82.2897 417.602 82.2897" fill="#8D80C8"/>
<path d="M421.018 79.2487C421.112 80.4167 419.537 81.3632 417.5 81.3632C415.465 81.3632 413.739 80.4167 413.644 79.2487C413.552 78.0793 415.126 77.1328 417.163 77.1328C419.199 77.1328 420.925 78.0793 421.018 79.2487Z" fill="#A99DD6"/>
<path d="M449.442 30.1131C449.27 31.2553 448.852 31.8044 447.713 31.9409C446.099 32.135 445.788 31.498 445.55 30.729C445.31 29.9599 445.23 29.3183 445.248 29.1409C445.298 28.6601 445.636 28.5963 446.652 28.4022C447.669 28.2096 449.026 27.9745 449.226 28.1868C449.427 28.3992 449.59 29.1181 449.442 30.1131ZM443.532 30.9823C443.491 31.7862 443.089 32.5233 442.196 32.6356C441.365 32.7402 440.984 32.2973 440.534 31.2341C440.144 30.3073 440.124 29.5701 440.265 29.3138C440.406 29.059 440.855 29.0681 441.887 29.0028C442.919 28.9377 443.264 28.9149 443.431 29.3699C443.493 29.5368 443.573 30.1784 443.532 30.9823H443.532ZM450.115 27.8106C450.038 27.4421 449.22 27.3693 448.398 27.4724C447.578 27.5756 445.387 27.8516 444.938 28.202C444.488 28.5524 444.515 28.8057 444.274 28.8314C444.039 28.8573 444.022 28.6115 443.499 28.3825C442.976 28.155 441.712 28.3142 440.89 28.4174C440.069 28.5206 439.288 28.7025 439.305 29.0787C439.322 29.4534 439.466 30.1086 439.634 30.2133C439.801 30.3179 439.801 30.2997 440.447 31.7847C440.808 32.6144 441.362 33.0906 442.425 32.8586C443.776 32.5643 443.861 31.0248 443.966 30.3816C444.071 29.7385 444.168 29.643 444.373 29.6172C444.582 29.5899 444.72 29.6567 444.979 30.2542C445.24 30.8518 445.428 32.2291 446.813 32.3065C448.626 32.408 449.411 31.7877 449.663 30.6258C450.003 29.0499 449.926 29.0438 450.062 28.9012L451.417 29.0165L451.386 28.5463L450.115 27.8107" fill="#433699"/>
<path d="M461.063 25.2961C460.966 24.4573 460.816 23.6413 460.613 22.8677C460.06 20.7518 458.767 18.9559 456.83 17.9093C454.362 16.573 450.973 16.2984 448.27 17.0568C446.703 17.4952 446.123 18.3203 445.316 18.2976C444.697 18.2794 443.925 17.8638 443.124 17.5756C437.001 15.3747 438.027 21.3691 438.68 23.0148C438.969 23.7429 440.357 24.2723 440.542 24.5756C440.727 24.879 440.708 26.3609 440.824 27.0146C440.943 27.6669 441.587 27.9156 441.587 27.9156C441.587 27.9156 441.621 25.9862 441.651 25.7238C441.733 25.0367 441.959 24.3238 442.557 23.9173C443.18 23.4926 444.034 23.4259 444.759 23.2985C445.514 23.1665 449.03 23.843 449.265 24.0447C450.409 25.0261 450.703 27.2649 451.025 28.58C451.174 29.1958 451.33 29.6084 451.58 29.5993C451.77 27.7867 452.399 27.7412 453.484 28.36C454.062 28.6907 454.386 29.8389 454.406 30.8112C454.429 31.9624 453.785 33.2305 452.578 33.4883C452.146 33.5793 453.45 36.0517 454.054 36.6691C454.253 36.8723 454.448 37.0847 454.692 37.2303C454.919 37.3638 455.176 37.4351 455.43 37.5033C455.722 37.5821 456.014 37.6626 456.305 37.7414C456.699 37.8476 457.116 37.9553 457.508 37.8446C458.154 37.6626 458.495 36.977 458.786 36.3718C459.264 35.3798 459.815 34.4182 460.206 33.3867C461.128 30.9583 461.379 28.0127 461.063 25.2961" fill="#433699"/>
<path d="M571.396 116.048H493.891L503.172 109.181V75.6584C503.172 72.8614 505.44 70.5938 508.237 70.5938H571.396C574.193 70.5938 576.461 72.8614 576.461 75.6584V110.983C576.461 113.78 574.193 116.048 571.396 116.048Z" fill="#DACFEB"/>
<path d="M534.305 80.5153H569.725V77.125H534.305V80.5153Z" fill="#ECE5F5"/>
<path d="M534.305 85.5772H569.725V82.1875H534.305V85.5772Z" fill="#ECE5F5"/>
<path d="M534.305 90.6385H569.725V87.25H534.305V90.6385Z" fill="#ECE5F5"/>
<path d="M534.305 95.5766H569.725V92.1875H534.305V95.5766Z" fill="#ECE5F5"/>
<path d="M534.305 101.474H559.007V98.0859H534.305V101.474Z" fill="#ECE5F5"/>
<path d="M526.389 103.141H514.408C511.573 103.141 509.273 100.843 509.273 98.0068V82.2609C509.273 79.4245 511.573 77.125 514.408 77.125H526.389C529.224 77.125 531.523 79.4245 531.523 82.2609V98.0068C531.523 100.843 529.224 103.141 526.389 103.141Z" fill="#AEA6DA"/>
<path d="M509.273 109.176H531.524V106.383H509.273V109.176Z" fill="#ECE5F5"/>
<path d="M522.597 94.015H514.522C514.067 94.015 513.668 93.7101 513.55 93.2717L511.996 87.5352C511.823 86.8951 512.306 86.2656 512.969 86.2656H524.149C524.813 86.2656 525.296 86.8951 525.121 87.5352L523.568 93.2717C523.45 93.7101 523.051 94.015 522.597 94.015Z" fill="white"/>
<path d="M524.018 95.3014H514.294L514.094 95.1012L514.294 94.8994H523.866L527.25 83.0987L527.443 82.9531H529.559L529.759 83.1533L529.559 83.3551H527.595L524.211 95.1558L524.018 95.3014Z" fill="white"/>
<path d="M515.782 96.8786C515.782 97.5294 515.256 98.0557 514.605 98.0557C513.956 98.0557 513.43 97.5294 513.43 96.8786C513.43 96.2295 513.956 95.7031 514.605 95.7031C515.256 95.7031 515.782 96.2295 515.782 96.8786Z" fill="white"/>
<path d="M524.329 96.8786C524.329 97.5294 523.803 98.0557 523.152 98.0557C522.503 98.0557 521.977 97.5294 521.977 96.8786C521.977 96.2295 522.503 95.7031 523.152 95.7031C523.803 95.7031 524.329 96.2295 524.329 96.8786Z" fill="white"/>
<path d="M283.476 69.2268H382.224L370.398 60.4779V6.45095C370.398 2.88799 367.51 0 363.945 0H283.476C279.913 0 277.023 2.88799 277.023 6.45095V62.7743C277.023 66.3373 279.913 69.2268 283.476 69.2268Z" fill="#DACFEB"/>
<path d="M285.602 14.3338H330.731V10.0156H285.602V14.3338Z" fill="#ECE5F5"/>
<path d="M285.602 20.7875H330.731V16.4688H285.602V20.7875Z" fill="#ECE5F5"/>
<path d="M285.602 27.24H330.731V22.9219H285.602V27.24Z" fill="#ECE5F5"/>
<path d="M285.602 33.5213H330.731V29.2031H285.602V33.5213Z" fill="#ECE5F5"/>
<path d="M285.602 39.8109H330.731V35.4922H285.602V39.8109Z" fill="#ECE5F5"/>
<path d="M285.602 51.2322H330.731V46.9141H285.602V51.2322Z" fill="#ECE5F5"/>
<path d="M285.602 58.0291H362.623V53.7109H285.602V58.0291Z" fill="#ECE5F5"/>
<path d="M340.815 43.1623H356.079C359.692 43.1623 362.621 40.2333 362.621 36.6203V16.5576C362.621 12.9446 359.692 10.0156 356.079 10.0156H340.815C337.202 10.0156 334.273 12.9446 334.273 16.5576V36.6203C334.273 40.2333 337.202 43.1623 340.815 43.1623Z" fill="#C9BFE5"/>
<path d="M334.273 50.8476H362.62V47.2891H334.273V50.8476Z" fill="#ECE5F5"/>
<path d="M345.653 31.5291H355.94C356.52 31.5291 357.028 31.1408 357.179 30.5811L359.157 23.2747C359.379 22.4586 358.765 21.6562 357.92 21.6562H343.674C342.829 21.6562 342.215 22.4586 342.436 23.2747L344.414 30.5811C344.566 31.1408 345.074 31.5291 345.653 31.5291Z" fill="white"/>
<path d="M343.839 33.1682H356.228C356.371 33.1682 356.485 33.0545 356.485 32.9134C356.485 32.7724 356.371 32.6571 356.228 32.6571H344.032L339.721 17.6226L339.475 17.4375H336.78C336.639 17.4375 336.523 17.5513 336.523 17.6923C336.523 17.8334 336.639 17.9487 336.78 17.9487H339.282L343.593 32.9832L343.839 33.1682Z" fill="white"/>
<path d="M354.336 35.1861C354.336 36.0128 355.006 36.6832 355.833 36.6832C356.661 36.6832 357.332 36.0128 357.332 35.1861C357.332 34.3579 356.661 33.6875 355.833 33.6875C355.006 33.6875 354.336 34.3579 354.336 35.1861Z" fill="white"/>
<path d="M343.438 35.1861C343.438 36.0128 344.108 36.6832 344.935 36.6832C345.763 36.6832 346.433 36.0128 346.433 35.1861C346.433 34.3579 345.763 33.6875 344.935 33.6875C344.108 33.6875 343.438 34.3579 343.438 35.1861Z" fill="white"/>
<path d="M488.51 342.518C488.144 343.229 486.394 344.873 483.969 345.956C481.546 347.039 476.407 347.547 479.262 348.501C482.115 349.454 485.443 348.877 487.13 348.607C488.815 348.334 490.448 348.3 492.437 348.287C495.06 348.269 495.081 348.107 494.727 345.151C494.24 341.081 489.69 340.218 488.51 342.517" fill="#A09DD6"/>
<path d="M536.017 341.039C535.872 341.86 537.037 344.347 534.953 346.174C532.868 347.997 528.133 349.922 531.271 349.993C534.409 350.066 537.419 349.338 539.018 348.551C540.612 347.762 539.339 346.521 541.319 345.898C543.926 345.074 543.387 343.157 542.033 341.971C540.296 338.063 536.487 338.385 536.017 341.039Z" fill="#A09DD6"/>
<path d="M526.026 258.211C526.026 258.211 532.275 239.838 514.545 224.703C514.545 224.703 505.044 228.486 497.435 228.943C491.443 229.302 488.401 228.75 488.401 228.75C488.401 228.75 487.896 245.072 487.875 253.87L526.026 258.211Z" fill="#3C3C41"/>
<path d="M486.439 288.726C486.097 280.511 495.003 281.588 498.289 287.725C505.081 300.415 495.783 329.641 494.554 343.489C493.277 343.983 491.137 344.369 489.852 343.782C488.966 343.378 488.485 342.271 488.485 342.271C488.683 325.283 486.806 297.51 486.439 288.726Z" fill="#3C3C41"/>
<path d="M497.979 289.971C496.954 293.325 485.584 296.854 486.506 284.644C486.914 279.229 488.003 249.327 488.214 246.445C488.425 243.561 488.906 239.349 490.298 238.824C497.265 236.194 509.587 245.303 507.754 256.127C506.531 263.362 500.103 283.015 497.979 289.971Z" fill="#3C3C41"/>
<path d="M515.873 294.629C513.125 286.881 522.056 285.51 527.12 290.283C538.982 301.462 539.441 327.803 542.349 341.399C540.699 342.528 538.079 342.933 537.163 342.884C536.191 342.831 535.749 342.161 535.749 342.161C530.931 325.87 518.814 302.914 515.873 294.629Z" fill="#3C3C41"/>
<path d="M527.603 292.103C527.914 295.597 518.437 302.817 514.705 291.155C513.051 285.983 505.967 255.42 505.08 252.67C504.193 249.917 504.435 244.241 505.529 243.231C510.998 238.177 523.344 242.621 525.71 253.34C527.293 260.505 526.96 284.859 527.603 292.103Z" fill="#3C3C41"/>
<path d="M478.789 158.282C479.112 157.941 479.435 157.6 479.723 157.229C481.97 154.357 482.297 151.81 484.378 148.476C484.679 147.995 485.096 146.724 485.891 145.582C486.723 144.387 488.744 143.087 489.269 142.812C490.241 142.304 489.405 144.447 489.405 144.447C489.405 144.447 490.23 143.251 491.028 143.336C491.339 143.369 491.394 145.197 491.398 145.509C491.438 148.019 490.846 150.537 489.693 152.767C489.422 153.289 489.114 153.826 489.112 154.414C489.853 154.399 490.474 153.886 491.072 153.45C491.671 153.013 492.422 152.612 493.123 152.852C493.024 153.151 492.876 153.43 492.728 153.709C491.841 155.374 490.845 157.148 489.14 157.958C488.12 158.44 486.942 158.526 485.947 159.056C484.149 160.011 483.276 162.223 481.451 163.127" fill="#F29273"/>
<path d="M489.458 158.926L484.102 156.686C483.603 156.477 483.368 155.903 483.576 155.404L488.335 144.024C488.545 143.525 489.118 143.29 489.619 143.497L494.973 145.738C495.472 145.947 495.708 146.52 495.499 147.02L490.739 158.4C490.53 158.899 489.957 159.134 489.458 158.926Z" fill="#5B53AE"/>
<path d="M490.271 158.44L484.266 155.928L489.189 144.156L495.194 146.668L490.271 158.44Z" fill="#B7B0DE"/>
<path d="M495.198 169.911C495.198 169.911 490.613 170.148 486.522 171.376C480.348 173.23 478.225 176.089 476.092 177.27C480.236 172.007 484.853 160.845 484.853 160.845C484.853 160.845 479.284 156.27 478.644 157.353C478.003 158.436 454.628 185.789 455.361 190.218C455.662 192.044 458.368 193.849 460.76 193.767C467.389 193.54 475.085 191.128 483.156 188.487C486.702 187.327 487.796 189.828 487.796 189.828" fill="#00B47F"/>
<path d="M476.096 177.265C476.096 177.265 473.152 183.198 472.267 183.585C471.385 183.972 474.414 182.349 476.072 180.636C477.728 178.924 479.999 174.43 479.999 174.43C479.128 174.786 476.096 177.265 476.096 177.265Z" fill="#6355B0"/>
<path d="M485.329 148.516C485.616 148.719 485.692 149.104 485.747 149.45C485.948 150.764 486.142 152.157 485.633 153.385C485.301 154.179 484.699 154.833 484.049 155.399C483.315 156.04 482.504 156.594 481.641 157.046" fill="#F29273"/>
<path d="M495.34 138.641C493.778 139.091 492.953 141.107 492.422 142.487C491.783 144.148 491.465 145.915 491.255 147.676C491.11 148.903 491.022 150.193 491.509 151.327C491.757 151.907 492.144 152.413 492.528 152.915C492.745 153.199 492.966 153.487 493.262 153.689C493.558 153.889 493.945 153.991 494.278 153.862C494.765 153.675 494.961 153.103 495.099 152.601C495.998 149.323 496.983 146.009 498.833 143.156" fill="#1E204C"/>
<path d="M493.609 149.028C493.577 147.984 492.479 147.303 491.528 148.383C490.739 149.278 490.53 150.975 490.486 152.231C490.432 153.734 491.598 154.028 492.555 154.239" fill="#F29273"/>
<path d="M483.178 175.296C485.106 173.086 491.222 169.443 499.398 169.7C505.029 169.878 520.369 170.808 522.083 174.575C522.959 176.502 523.9 196.226 522.617 203.026C521.652 208.141 519.184 220.809 519.184 223.867C519.184 226.925 520.827 228.234 520.061 229.123C518.344 231.111 506.607 231.945 501.096 231.945C496.192 231.945 487.844 230.638 487.421 229.067C486.793 226.735 488.378 226.822 488.593 224.377C488.807 221.933 489.428 206.061 488.527 203.464C486.902 198.775 486.113 191.127 484.824 187.659C483.844 185.026 481.252 177.506 483.178 175.296Z" fill="#00B47F"/>
<path d="M518.305 191.25C518.889 192.467 522.858 198.849 522.858 198.849L523.019 199.614C522.922 200.935 522.79 202.101 522.615 203.024C521.651 208.138 519.183 220.807 519.183 223.864C519.183 226.922 520.756 228.177 520.059 229.12C518.706 230.954 496.575 235.078 497.664 229.957C497.763 229.495 516.239 215.396 516.337 214.924C517.188 210.879 517.931 207.964 518.305 205.014C519.202 197.913 517.721 190.034 518.305 191.25Z" fill="#6355B0"/>
<path d="M494.946 162.646C494.946 162.646 494.895 169.062 494.637 169.321C494.377 169.58 493.109 170.18 493.109 170.18C493.109 170.18 494.013 175.755 495.41 175.341C496.809 174.927 506.035 170.268 506.035 170.268C506.035 170.268 504.727 169.735 504.727 169.218C504.727 168.701 505.969 158.609 505.969 158.609" fill="#F9B291"/>
<path d="M501.35 139.344C500.005 139.711 496.462 138.977 495.483 140.443C494.505 141.91 493.649 145.455 493.282 146.433C492.553 148.379 492.077 150.46 491.547 152.467C490.855 155.082 489.716 159.872 492.275 162.059C493.011 162.689 493.338 162.897 494.249 163.062C495.461 163.28 496.665 163.529 497.877 163.746C499.755 164.083 501.833 164.476 503.698 163.87C506.189 163.062 507.554 159.637 508.196 157.312L511.862 143.988L501.35 139.344Z" fill="#F9B291"/>
<path d="M494.714 177.844C494.714 177.844 494.174 202.88 493.156 218.11L496.837 223.187L499.368 216.829C499.368 216.829 500.437 198.46 496.974 178.018L494.714 177.844Z" fill="#362D7B"/>
<path d="M493.867 175.641L493.954 175.986C494.117 176.638 494.374 177.263 494.715 177.841L496.975 178.015C496.975 178.015 498.51 177.21 498.713 176.345C498.917 175.481 496.192 174.062 496.192 174.062L495.862 174.193C495.099 174.493 494.422 174.98 493.896 175.608L493.867 175.641" fill="#362D7B"/>
<path d="M504.884 167.656C504.884 167.656 506.329 168.553 507.461 170.268C506.299 172.926 503.673 177.647 500.781 179.798C499.429 176.173 496.195 174.065 496.195 174.065C496.195 174.065 504.075 172.663 504.884 167.656Z" fill="white"/>
<path d="M496.19 174.062C496.19 174.062 493.371 175.182 491.698 178.334C491.698 178.334 491.156 174.068 492.307 170.407C492.307 170.407 494.158 168.041 494.798 167.992C494.534 171.008 496.19 174.062 496.19 174.062Z" fill="white"/>
<path d="M496.548 229.961C493.749 230.383 492.715 231.423 491.137 232.981C491.009 233.108 490.874 233.268 490.902 233.447C490.939 233.67 491.201 233.77 491.424 233.805C492.724 234.014 492.935 233.183 494.15 232.676C494.97 232.333 495.785 231.978 496.601 231.622" fill="#F29273"/>
<path d="M487.049 209.571L496.966 241.354C497.231 242.206 496.748 242.942 495.915 242.948L475.223 244.764C474.481 244.769 473.727 244.187 473.489 243.427L462.826 212.128C462.56 211.276 463.79 210.056 464.623 210.05L485.314 208.234C486.056 208.229 486.811 208.809 487.049 209.571Z" fill="#EDE5F4"/>
<path d="M486.363 210.399L496.142 241.692C496.407 242.546 495.923 243.282 495.091 243.288L474.398 245.103C473.657 245.108 472.903 244.527 472.665 243.767L462.886 212.474C462.619 211.62 463.104 210.884 463.937 210.878L484.628 209.063C485.371 209.058 486.125 209.639 486.363 210.399Z" fill="#E4D6EE"/>
<path d="M469.836 209.382L470.57 212.126L480.249 211.271L479.452 208.539L469.836 209.382Z" fill="white"/>
<path d="M472.699 206.77C472.465 206.02 472.855 205.357 473.571 205.292C474.287 205.225 475.056 205.779 475.291 206.53C475.525 207.281 475.135 207.942 474.419 208.009C473.703 208.076 472.934 207.52 472.699 206.77ZM471.676 206.833C471.875 207.472 472.644 209.937 472.644 209.937L477.264 209.509L476.295 206.406C475.876 205.068 474.505 204.079 473.23 204.197C471.954 204.315 471.258 205.495 471.676 206.833Z" fill="white"/>
<path d="M504.431 227.742C502.26 228.194 496.475 229.92 495.867 230.207C495.142 230.55 492.745 232.367 492.178 232.934C490.002 235.117 491.115 236.136 490.256 239.098C490.212 239.25 490.205 239.408 490.203 239.567C490.203 239.877 490.62 240.142 491.04 239.854C491.268 240.236 491.94 239.999 492.266 239.584C492.259 239.88 492.675 240.066 493.34 239.698C493.699 239.499 493.636 239.517 494.467 238.775C495.061 238.245 495.752 237.824 496.821 237.342C497.541 237.017 498.459 236.726 499.119 236.292C499.997 235.715 501.565 235.576 502.338 233.068C502.509 232.513 503.053 232.171 503.545 231.862C504.723 231.123 505.904 230.383 507.082 229.644" fill="#F9B291"/>
<path d="M517.771 187.023C518.692 190.306 522.52 213.05 522.52 213.05L500.953 228.67L502.747 233.387C502.747 233.387 528.553 224.723 530.585 218.8C532.618 212.879 532.524 186.124 525.358 176.738C523.076 173.75 518.504 172.242 518.504 172.242" fill="#00B47F"/>
<path d="M495.651 235.93C495.651 235.93 495.435 236.128 495.111 236.426C494.775 236.723 494.339 237.064 493.994 237.525C493.633 237.968 493.271 238.426 492.957 238.739C492.649 239.057 492.406 239.233 492.406 239.233C492.406 239.233 492.936 238.182 493.721 237.292C494.099 236.826 494.642 236.503 495.003 236.277C495.391 236.069 495.651 235.93 495.651 235.93Z" fill="#F29273"/>
<path d="M494.466 234.5C494.466 234.5 494.172 234.728 493.863 235.184C493.696 235.399 493.512 235.662 493.329 235.949C493.235 236.091 493.139 236.238 493.042 236.388C492.942 236.552 492.868 236.668 492.801 236.85C492.231 238.236 491.273 239.387 491.273 239.387C491.273 239.387 491.396 239.034 491.622 238.529C491.842 238.021 492.165 237.364 492.472 236.704C492.822 235.994 493.329 235.466 493.719 235.057C494.122 234.661 494.466 234.5 494.466 234.5Z" fill="#F29273"/>
<path d="M493.098 233.344C493.098 233.344 492.91 233.655 492.576 234.076C492.417 234.292 492.202 234.525 492.024 234.792C491.885 235.049 491.75 235.41 491.615 235.724C491.348 236.377 491.105 237.037 490.914 237.536C490.73 238.037 490.594 238.375 490.594 238.375C490.594 238.375 490.587 238.009 490.688 237.476C490.777 236.94 490.981 236.238 491.287 235.583C491.448 235.247 491.584 234.941 491.81 234.636C492.038 234.368 492.259 234.151 492.46 233.969C492.863 233.612 493.098 233.344 493.098 233.344" fill="#F29273"/>
<path d="M509.567 154.994C508.722 154.499 508.074 153.977 507.524 154.787C507.233 155.217 507.055 155.81 506.558 155.957C506.062 156.104 505.549 155.658 505.426 155.156C505.305 154.654 505.459 154.129 505.613 153.636C505.952 152.542 506.291 151.45 506.63 150.357C506.964 149.287 507.293 148.112 506.868 147.074C506.653 146.55 506.263 146.117 505.834 145.749C504.434 144.547 502.609 143.965 500.801 143.596C498.995 143.226 497.144 143.038 495.385 142.483C494.646 142.251 493.913 141.946 493.322 141.445C492.368 140.635 491.873 139.361 491.86 138.11C491.846 136.859 492.277 135.63 492.918 134.556C493.05 134.985 493.232 135.401 493.458 135.789C493.678 135.214 494.017 134.685 494.446 134.242C494.972 137.177 507.33 136.196 510.216 137.491C512.218 138.388 513.873 138.975 513.812 142.218C513.87 142.428 514.043 142.585 514.204 142.733C515.977 144.362 516.746 146.345 516.969 149.286C517.24 152.887 515.144 156.783 513.089 159.752C512.573 160.498 512.285 161.027 511.563 161.576C510.841 162.126 509.584 162.396 508.692 162.226C507.801 162.056 506.045 162.132 506.028 161.225C506.016 160.575 507.404 159.418 507.788 158.895" fill="#222223"/>
<path d="M506.332 158.397C506.332 158.397 506.188 159 506.564 159.475C506.894 159.892 507.565 159.832 508.026 159.681C509.34 159.257 510.245 157.978 510.492 156.657C510.784 155.099 509.946 153.543 508.522 153.948C507.688 154.184 507.168 155.129 507.177 155.997" fill="#F9B291"/>
<path d="M494.95 163.188L498.915 163.917C498.915 163.917 497.591 165.399 494.898 165.399" fill="#F29273"/>
<path d="M184.695 97.8984H189.037V93.5044H184.695V97.8984Z" fill="#C7BEE5"/>
<path d="M178.474 97.4914C172.275 97.4914 167.25 92.7483 167.25 86.898C167.25 81.0477 172.275 76.3047 178.474 76.3047C184.672 76.3047 189.699 81.0477 189.699 86.898C189.699 89.3977 188.781 91.6941 187.246 93.5067C186.522 94.3607 185.662 95.1069 184.696 95.7152C182.914 96.8376 180.775 97.4914 178.474 97.4914ZM176.521 82.6237C176.107 82.6237 175.726 82.9559 175.726 83.4185V90.9903C175.726 91.4545 176.107 91.7852 176.521 91.7852C176.653 91.7852 176.788 91.7518 176.917 91.6774L183.474 87.8915C184.003 87.5866 184.003 86.8221 183.474 86.5173L176.917 82.7313C176.788 82.657 176.653 82.6236 176.521 82.6236" fill="#C7BEE5"/>
<path d="M176.521 91.7865C176.107 91.7865 175.727 91.4558 175.727 90.9917V83.4198C175.727 82.9572 176.107 82.625 176.521 82.625C176.653 82.625 176.788 82.6583 176.917 82.7327L183.474 86.5187C184.004 86.8235 184.004 87.588 183.474 87.8929L176.917 91.6788C176.788 91.7531 176.653 91.7866 176.521 91.7866" fill="white"/>
<path d="M545.781 178.449L547.573 174.055C548.296 174.909 549.158 175.655 550.124 176.265L545.781 178.449Z" fill="#B9ACDC"/>
<path d="M563.022 175.965C562.488 175.355 561.956 174.733 561.423 174.099C560.979 173.567 560.536 173.037 560.097 172.513C560.578 172.496 561.053 172.473 561.517 172.443C562.229 172.396 562.844 171.328 561.98 170.991C562.344 170.815 562.712 170.645 562.872 170.26C563.022 169.896 562.841 169.4 562.438 169.306C562.498 169.321 562.558 169.327 562.612 169.327C563.33 169.327 563.574 168.205 562.96 167.824C563.31 167.542 563.601 167.17 563.676 166.741C563.748 166.313 563.563 165.83 563.158 165.622C562.894 165.485 562.579 165.481 562.277 165.478C561.261 165.472 560.243 165.464 559.225 165.456C559.501 163.955 559.583 162.317 558.775 160.997C558.585 160.689 558.148 160.333 557.718 160.333C557.595 160.333 557.472 160.361 557.357 160.43C556.87 160.716 557.005 161.429 557.029 161.878C557.118 163.516 556.263 165.164 554.872 166.139C552.955 163.741 551.153 161.394 549.484 159.065C551.383 157.678 553.765 156.852 556.351 156.852C562.55 156.852 567.575 161.595 567.575 167.445C567.575 170.938 565.784 174.035 563.022 175.965Z" fill="#C7BEE5"/>
<path d="M556.349 178.036C554.048 178.036 551.908 177.382 550.127 176.261C549.161 175.652 548.3 174.905 547.576 174.052C546.043 172.239 545.125 169.943 545.125 167.443C545.125 164.033 546.831 161.001 549.483 159.062C551.151 161.392 552.953 163.739 554.87 166.137C554.675 166.273 554.469 166.396 554.253 166.505C554.253 166.505 554.368 170.486 554.343 172.517C555.412 172.533 556.486 172.55 557.545 172.55C558.409 172.55 559.263 172.54 560.096 172.51C560.534 173.035 560.977 173.564 561.422 174.097C561.954 174.731 562.486 175.353 563.02 175.963C561.156 177.265 558.848 178.036 556.349 178.036L556.349 178.036ZM549.759 166.505V172.51H553.457V166.505H549.759Z" fill="#B9ACDC"/>
<path d="M560.093 172.508C558.275 170.328 556.528 168.212 554.867 166.134C556.258 165.159 557.114 163.512 557.024 161.874C557 161.425 556.865 160.712 557.352 160.425C557.467 160.357 557.59 160.328 557.713 160.328C558.144 160.328 558.58 160.685 558.77 160.992C559.578 162.312 559.496 163.95 559.22 165.452C560.238 165.46 561.256 165.467 562.272 165.473C562.574 165.477 562.89 165.481 563.153 165.617C563.559 165.825 563.744 166.309 563.671 166.737C563.596 167.166 563.305 167.538 562.955 167.82C563.569 168.2 563.325 169.323 562.607 169.323C562.553 169.323 562.494 169.317 562.433 169.302C562.836 169.396 563.017 169.892 562.867 170.256C562.708 170.641 562.339 170.811 561.975 170.987C562.84 171.323 562.224 172.391 561.512 172.438C561.048 172.469 560.573 172.491 560.093 172.508" fill="white"/>
<path d="M557.542 172.554C556.483 172.554 555.409 172.537 554.34 172.52C554.366 170.489 554.25 166.509 554.25 166.509C554.465 166.4 554.672 166.277 554.867 166.141C556.528 168.219 558.276 170.335 560.093 172.514C559.26 172.543 558.406 172.554 557.541 172.554" fill="#F4EDF8"/>
<path d="M549.758 172.513H553.456V166.508H549.758V172.513Z" fill="#F4EDF8"/>
<path d="M382.682 82.2606C382.424 81.5689 382.063 80.9228 381.617 80.3373L385.092 79.6562L382.682 82.2606Z" fill="#B9ACDC"/>
<path d="M375 92.495C370.504 92.495 366.859 89.0564 366.859 84.8139C366.859 80.5714 370.504 77.1328 375 77.1328C377.724 77.1328 380.136 78.3963 381.613 80.3363C382.059 80.9218 382.42 81.5679 382.678 82.2596C382.977 83.0589 383.139 83.919 383.139 84.8139C383.139 89.0564 379.494 92.495 375 92.495ZM375.649 79.6553C375.569 79.6553 375.488 79.6765 375.413 79.7266C375.094 79.9344 375.182 80.4516 375.199 80.7777C375.266 82.1322 374.527 83.4958 373.38 84.1344C373.38 84.1344 373.456 87.0209 373.439 88.4937C374.138 88.5058 374.841 88.5164 375.534 88.5164C376.429 88.5164 377.307 88.4982 378.138 88.4376C378.605 88.4043 379.007 87.6307 378.442 87.3849C378.68 87.2575 378.921 87.1347 379.026 86.8556C379.124 86.5916 379.006 86.2322 378.742 86.1639C378.781 86.1742 378.819 86.179 378.856 86.179C379.326 86.179 379.487 85.3645 379.083 85.0884C379.312 84.8852 379.503 84.6152 379.552 84.3042C379.601 83.9933 379.479 83.6429 379.214 83.4912C379.041 83.3926 378.834 83.3897 378.636 83.3881C377.97 83.3822 377.304 83.3778 376.637 83.3713C376.817 82.2823 376.872 81.0946 376.342 80.1375C376.218 79.9146 375.931 79.6552 375.649 79.6552L375.649 79.6553ZM370.436 84.1343V88.489H372.858V84.1343H370.436Z" fill="#B9ACDC"/>
<path d="M375.537 88.5174C374.843 88.5174 374.141 88.5071 373.442 88.4947C373.459 87.0219 373.383 84.1354 373.383 84.1354C374.53 83.4968 375.268 82.1332 375.201 80.7787C375.185 80.4526 375.097 79.9354 375.415 79.7276C375.491 79.6776 375.572 79.6562 375.652 79.6562C375.934 79.6562 376.221 79.9156 376.345 80.1386C376.874 81.0957 376.82 82.2834 376.639 83.3724C377.307 83.3783 377.973 83.3827 378.639 83.3891C378.837 83.3902 379.043 83.3939 379.216 83.4923C379.482 83.644 379.603 83.9944 379.555 84.3053C379.506 84.6163 379.315 84.8862 379.086 85.0895C379.489 85.3656 379.329 86.1801 378.858 86.1801C378.822 86.1801 378.784 86.1753 378.745 86.165C379.009 86.2332 379.127 86.5927 379.028 86.8566C378.924 87.1357 378.683 87.2586 378.444 87.386C379.01 87.6317 378.608 88.4053 378.141 88.4387C377.31 88.4993 376.432 88.5175 375.537 88.5175" fill="#F4EDF8"/>
<path d="M370.438 88.4955H372.86V84.1406H370.438V88.4955Z" fill="#F4EDF8"/>
<path d="M421.033 32.6904L416.383 30.2104C414.478 31.4799 412.191 32.2247 409.729 32.2247C403.096 32.2247 397.719 26.8461 397.719 20.2132C397.719 13.5802 403.096 8.20312 409.729 8.20312C416.363 8.20312 421.739 13.5802 421.739 20.2132C421.739 23.0465 420.753 25.6448 419.113 27.6986L421.033 32.6904ZM406.716 16.095C405.976 16.095 405.236 16.3741 404.664 16.9338C403.507 18.0669 403.487 19.9234 404.62 21.0808L407.426 23.946C408.001 24.533 408.761 24.8273 409.522 24.8273C409.671 24.8273 409.821 24.8151 409.97 24.7923C410.555 24.7028 411.118 24.4359 411.573 23.9899L411.59 23.9702L414.441 21.1611C415.597 20.025 415.611 18.1685 414.475 17.0142C413.9 16.4317 413.141 16.139 412.385 16.139C411.641 16.139 410.898 16.4196 410.328 16.9823L409.559 17.7392L408.811 16.9763C408.236 16.3893 407.476 16.095 406.716 16.095" fill="#B9ACDC"/>
<path d="M409.521 24.826C408.759 24.826 407.999 24.5317 407.424 23.9447L404.618 21.0795C403.485 19.9221 403.505 18.0656 404.662 16.9325C405.234 16.3728 405.974 16.0938 406.715 16.0938C407.475 16.0938 408.234 16.388 408.809 16.975L409.557 17.738L410.326 16.9811C410.896 16.4183 411.64 16.1377 412.383 16.1377C413.14 16.1377 413.898 16.4305 414.473 17.0129C415.609 18.1672 415.595 20.0238 414.44 21.1599L411.588 23.969L411.571 23.9887C411.116 24.4346 410.554 24.7016 409.968 24.7911C409.82 24.8138 409.669 24.826 409.521 24.826" fill="#F4EFF9"/>
<rect x="247.07" y="176.812" width="72.6638" height="75.8461" fill="white"/>
</svg>
