<svg width="690" height="350" viewBox="0 0 690 350" fill="none" xmlns="http://www.w3.org/2000/svg">
<path d="M565.938 100.851C560.335 85.1325 550.041 70.56 535.352 62.6203C516.277 52.3174 492.843 54.3941 472.506 46.893C456.814 41.1105 443.79 29.9484 429.477 21.3015C404.736 6.36201 375.546 -1.10329 346.661 0.131975C286.455 2.70992 234.091 41.0389 175.997 57.0616C155.848 62.6203 131.77 67.991 123.794 87.3166L125.71 85.9829C121.807 92.4904 119.972 100.922 120.294 108.558C120.894 123.103 126.086 137.676 123.194 151.944C120.751 163.993 112.883 174.089 107.351 185.073C93.2347 213.108 95.2397 248.59 112.426 274.853C129.603 301.116 161.317 317.165 192.656 315.465C222.374 313.853 250.149 297.634 279.912 297.92C326.521 298.359 363.677 338.201 409.283 347.832C457.495 358.019 508.346 331.183 536.722 290.885C565.097 250.595 574.003 199.43 573.198 150.163C572.893 133.478 571.542 116.569 565.938 100.851Z" fill="#FFEFD9" fill-opacity="0.5"/>
<path d="M404.688 123.775C403.336 123.462 401.832 123.838 400.704 123.015C400.311 122.728 400.66 121.949 399.747 121.591C399.371 121.439 399.066 121.591 398.726 121.6C397.795 121.618 397.5 122.549 396.39 122.648C394.904 122.773 393.042 121.645 393.472 120.079C393.857 118.709 396.175 118.441 396.318 116.65C396.399 115.63 395.191 113.58 394.421 113.159C393.669 112.739 392.353 113.186 391.52 112.864C390.393 112.425 389.865 111.477 389.005 110.698C386.732 108.621 383.679 105.703 380.466 105.551C379.66 105.515 378.828 105.855 377.95 105.587C376.751 105.22 375.731 103.752 374.424 103.913C372.786 104.11 372.983 107.144 370.861 106.276C371.282 104.28 371.774 102.498 368.981 102.955C366.958 103.286 364.219 105.067 362.904 106.804L363.521 108.147L363.333 109.865L362.098 108.729C361.704 110.563 361.74 112.792 360.379 113.643C359.556 114.162 358.705 113.768 357.873 114.484C356.951 115.281 355.94 117.465 355.904 118.602C355.85 120.24 357.103 120.32 357.255 121.565C357.434 122.979 356.548 122.701 355.626 123.31C353.03 125.038 354.883 125.405 356.718 127.105C357.542 127.875 358.321 128.618 358.705 129.683C359.171 130.972 358.553 131.482 358.643 132.736C358.777 134.615 360.684 135.519 362.17 136.504C363.62 137.462 367.406 138.357 368.113 139.789C368.65 140.89 367.343 143.746 366.86 144.641C363.629 148.212 363.288 152.025 361.444 155.051C359.636 158.014 359.941 161.147 358.464 164.101C357.291 166.437 354.015 167.413 356.235 170.501C356.611 171.029 357.076 171.414 357.587 171.673C358.947 171.575 360.29 171.432 361.632 171.253C363.226 170.178 365.276 168.379 366.627 167.019C367.549 166.097 367.791 165.81 368.256 164.656C368.462 164.136 368.471 163.026 368.883 162.686C369.375 162.275 370.306 162.633 370.852 162.31C371.121 162.158 371.121 161.594 371.532 161.397C373.332 160.529 375.811 161.549 377.548 160.475C379.195 159.464 378.309 158.972 379.016 157.566C379.562 156.474 380.618 156.591 381.808 156.304C384.27 155.704 384.673 154.89 386.427 153.243C388.325 151.47 390.903 150.513 393.176 149.251C395.701 147.854 397.455 145.858 399.666 144.05C401.814 142.287 402.96 141.508 403.819 138.831C405.243 134.392 409.808 132.055 409.414 127.025C406.8 126.577 407.4 124.411 404.688 123.775Z" fill="white"/>
<path d="M409.033 46.7379C408.809 46.9795 408.979 47.8389 408.666 48.1074C407.726 48.913 405.98 47.9463 405.21 47.4629C402.606 45.8248 401.182 42.8978 398.604 41.215C397.924 40.7674 395.982 40.2035 397.575 39.4337C396.939 37.8225 394.272 36.0412 392.607 35.8174C392.723 32.1295 391.587 33.2395 388.346 32.2101C385.759 31.3866 382.868 28.737 378.822 28.3969C377.417 28.4237 376.772 26.911 375.931 25.989C377.175 25.3177 379.771 26.0606 381.355 25.8816C382.913 25.7026 384.372 25.5146 386.001 25.6399C387.004 25.7115 388.561 25.7026 389.77 25.9263C381.087 20.9584 371.285 17.6644 360.75 16.5097C341.818 14.442 323.728 19.6516 309.164 29.9275C311.966 29.2114 314.454 29.2472 315.877 29.4084C317.721 29.6053 322.707 30.5452 322.645 28.8534C322.582 27.1616 322.51 26.6603 320.657 26.5798C318.804 26.4992 314.588 26.4187 318.133 24.6911C321.678 22.9635 325.464 23.5006 326.798 23.7781C328.132 24.0466 331.515 22.6771 333.341 21.8804C335.167 21.0837 339.894 19.8664 336.931 23.1425C333.968 26.4187 331.238 29.7933 331.238 29.7933C331.238 29.7933 326.52 32.0669 332.079 31.1807C335.507 30.6347 337.665 29.5784 339.714 29.1667C336.832 28.5848 334.603 27.6539 334.648 26.1591C336.975 25.3624 339.956 27.0005 342.409 26.7946C343.743 26.6872 344.96 26.0427 346.374 26.0248C348.737 25.989 351.172 26.6872 353.437 27.2601C354.967 27.645 357.733 28.9608 359.04 27.5465C357.787 26.1143 356.104 24.6463 354.511 23.608C352.327 22.1937 347.484 22.7397 346.535 20.3676C348.54 20.0633 350.277 19.5173 352.354 19.7321C355.657 20.0723 358.96 20.4572 362.254 20.8152C366.121 21.2359 371.455 20.8331 375.009 22.5786C376.173 24.7358 374.347 23.9481 372.664 23.8765C369.128 23.7422 363.936 24.0018 360.732 25.4788C363.954 27.081 360.15 29.2562 360.275 31.3239C358.915 31.9057 357.125 31.5745 355.666 31.673C356.963 32.3712 358.44 32.6666 359.756 33.329C357.966 33.6065 356.22 34.1793 354.421 34.3673C354.475 34.2957 354.529 34.233 354.582 34.1704C353.437 33.3111 350.859 32.5592 350.742 31.0912C351.503 31.127 351.816 30.8137 352.013 30.1334C351.548 30.1334 348.352 30.1424 344.826 29.847C348.075 30.9301 350.366 31.1359 350.42 30.6973C350.474 30.205 350.545 32.9441 348.675 36.4708C346.804 39.9887 360.463 42.3249 360.723 43.2917C360.983 44.2673 361.242 48.7608 364.241 48.5997C367.239 48.4296 366.398 45.3594 366.398 45.3594L368.922 44.1868L369.298 40.7048L367.096 38.9772L369.719 36.8916C369.719 36.8916 373.774 39.9529 379.073 44.2584L385.124 42.683L392.965 50.9897C392.965 50.9897 394.147 53.1022 392.75 52.95C391.354 52.7978 380.979 53.4065 380.979 53.4065L378.876 55.6622C378.876 55.6622 382.501 56.3067 383.647 56.1814C384.793 56.0561 387.335 57.8284 387.335 57.8284C387.335 57.8284 391.3 60.2452 389.134 60.7554C386.968 61.2656 378.679 62.0981 378.679 62.0981C378.679 62.0981 379.332 59.6902 377.399 59.726C375.457 59.7619 374.785 63.6646 373.013 63.9689C371.241 64.2733 368.009 62.9306 367.553 64.3628C367.096 65.795 367.687 68.1044 367.042 69.0263C366.398 69.9483 361.708 71.9176 361.708 71.9176L359.156 81.2984L354.484 74.3613L349.713 74.8357L347.618 75.8471L344.253 74.2359L336.582 76.8765L338.22 86.9019L342.498 90.366L346.759 86.0247L351.226 88.3251L348.755 92.7202L348.522 94.8237L355.03 95.5308L357.116 99.9796L354.278 102.405L358.109 104.813L362.263 105.27L362.97 106.8C364.294 105.064 367.025 103.283 369.048 102.951C371.831 102.495 371.348 104.267 370.927 106.272C373.049 107.141 372.852 104.106 374.49 103.909C375.797 103.757 376.817 105.216 378.017 105.583C378.894 105.852 379.726 105.511 380.532 105.547C383.736 105.699 386.789 108.617 389.071 110.694C389.931 111.482 390.459 112.422 391.587 112.86C392.41 113.183 393.726 112.744 394.487 113.156C395.248 113.576 396.465 115.635 396.384 116.647C396.241 118.437 393.923 118.705 393.538 120.075C393.099 121.641 394.961 122.769 396.456 122.644C397.575 122.554 397.861 121.624 398.792 121.597C399.141 121.588 399.437 121.436 399.813 121.588C400.726 121.955 400.368 122.725 400.771 123.011C401.898 123.835 403.402 123.45 404.754 123.772C407.457 124.407 406.857 126.574 409.507 127.012C409.892 132.043 405.336 134.37 403.912 138.819C403.053 141.486 401.907 142.274 399.759 144.037C397.557 145.846 395.794 147.842 393.269 149.238C390.996 150.5 388.427 151.458 386.52 153.23C384.757 154.877 384.363 155.692 381.901 156.292C380.711 156.578 379.655 156.471 379.109 157.554C378.402 158.959 379.288 159.442 377.641 160.463C375.895 161.537 373.425 160.516 371.625 161.385C371.223 161.582 371.214 162.146 370.945 162.298C370.39 162.62 369.459 162.262 368.976 162.674C368.564 163.014 368.555 164.124 368.349 164.643C367.884 165.798 367.642 166.084 366.72 167.006C365.369 168.367 363.319 170.166 361.725 171.24C393.807 167.06 420.535 142.301 427.096 109.128C426.881 108.224 426.72 107.445 426.684 107.06C426.577 105.807 426.729 99.8632 427.92 95.7725C428.143 95.0027 428.385 94.2777 428.636 93.6242C428.663 75.9546 422.817 59.4128 412.81 46.1829C411.172 46.2993 410.116 45.5832 409.033 46.7379ZM381.848 37.6345C381.821 38.7176 382.501 39.2994 383.504 39.2189C384.157 41.6625 380.845 39.6127 380.174 39.2636C378.876 38.5833 371.133 37.1869 371.482 35.5489C371.724 34.4121 373.443 35.1103 373.353 33.6244C373.29 32.5234 371.079 31.1091 370.363 30.6347C368.94 29.6858 364.626 29.3457 363.927 27.824C363.158 26.1322 365.342 25.622 366.684 25.5951C369.871 25.5235 372.01 28.1104 374.66 29.0682C376.969 30.948 384.372 33.9556 385.142 37.8225C384.086 37.7867 382.868 37.4286 381.848 37.6345ZM365.109 92.6575C364.858 93.3288 364.142 93.3467 363.569 92.8723C363.65 91.9772 364.608 92.3621 365.252 92.4248L365.109 92.6575ZM361.922 87.7164L359.139 87.0361C358.288 86.5886 355.719 87.1167 356.086 85.5771C357.984 85.407 360.866 85.5502 362.665 86.3379C363.748 86.8124 364.268 87.8149 365.333 88.3699C366.326 88.889 366.989 88.8622 367.392 90.0079C365.136 90.2944 363.927 87.9581 361.922 87.7164ZM374.445 92.8007C374.015 93.105 373.792 94.036 373.38 94.4567C373.138 92.9887 371.59 92.9439 370.936 91.8877C371.357 91.1 372.198 91.4491 372.941 91.5207L373.908 91.7534C374.669 91.9593 376.477 91.8698 376.656 92.7202C376.003 92.7828 375.036 92.389 374.445 92.8007ZM379.118 94.3224C377.65 95.674 378.357 93.4362 378.384 92.7381L378.115 92.9529C378.652 92.013 380.272 93.2572 379.118 94.3224ZM392.24 57.8642C391.05 55.7965 392.661 55.0177 393.278 53.0127L393.986 53.3349C393.144 56.8706 395.418 57.9448 397.647 59.914C395.847 59.7708 393.296 59.6992 392.24 57.8642Z" fill="#2181F1"/>
<path d="M394.795 29.0799C394.455 28.8471 394.115 28.6234 393.766 28.3906C394.088 28.6502 394.428 28.8829 394.795 29.0799Z" fill="#2181F1"/>
<path d="M362.198 136.487C360.712 135.503 358.805 134.599 358.671 132.719C358.582 131.466 359.199 130.956 358.734 129.667C358.349 128.601 357.57 127.858 356.747 127.089C354.912 125.379 353.059 125.021 355.655 123.293C356.577 122.685 357.454 122.962 357.284 121.548C357.132 120.313 355.878 120.223 355.932 118.585C355.968 117.439 356.979 115.264 357.901 114.467C358.734 113.751 359.584 114.145 360.408 113.626C361.777 112.767 361.741 110.547 362.126 108.712L359.692 106.465L356.398 106.107L351.412 102.097L349.308 98.6417L344.537 96.8783L340.769 92.725L336.347 92.2416L325.516 86.8261L324.299 79.7636L319.384 74.7599L316.019 69.1744L314.792 69.0401L319.331 77.5348L320.566 79.8532L313.897 72.6654L311.4 65.9341L306.996 60.6976L307.819 50.8871L311.14 47.7721L305.564 47.6647L304.355 43.932L302.323 42.097L300.658 44.2722L299.45 39.9219L297.355 40.2083C286.086 52.2029 278.433 67.9302 276.499 85.6983C271.836 128.476 301.983 166.85 343.839 171.424C348.494 171.934 353.095 171.997 357.615 171.657C357.105 171.397 356.639 171.012 356.263 170.484C354.043 167.396 357.32 166.42 358.492 164.084C359.969 161.13 359.665 157.997 361.473 155.034C363.317 152.009 363.648 148.204 366.888 144.624C367.372 143.72 368.679 140.864 368.142 139.772C367.443 138.349 363.648 137.454 362.198 136.487Z" fill="#2181F1"/>
<path d="M426.618 107.061C426.654 107.437 426.815 108.224 427.03 109.128C427.478 106.873 427.836 104.572 428.086 102.236C428.4 99.3448 428.552 96.4715 428.561 93.625C428.319 94.2874 428.068 95.0035 427.845 95.7733C426.654 99.864 426.502 105.808 426.618 107.061Z" fill="white"/>
<path d="M394.791 29.0749C394.433 28.878 394.093 28.6363 393.762 28.3856C392.455 27.5263 391.121 26.7028 389.76 25.9241C388.552 25.7003 387.003 25.7092 385.992 25.6376C384.363 25.5213 382.904 25.7092 381.346 25.8793C379.771 26.0583 377.166 25.3064 375.922 25.9867C376.763 26.9087 377.408 28.4214 378.813 28.3946C382.859 28.7347 385.75 31.3843 388.337 32.2078C391.578 33.2372 392.714 32.1272 392.598 35.8151C394.263 36.0389 396.939 37.8112 397.566 39.4314C395.973 40.2012 397.915 40.7651 398.595 41.2127C401.164 42.8955 402.587 45.8226 405.201 47.4606C405.971 47.944 407.716 48.9107 408.656 48.1051C408.97 47.8366 408.791 46.9773 409.023 46.7356C410.106 45.5809 411.163 46.288 412.72 46.1806C407.717 39.5567 401.665 33.7653 394.791 29.0749Z" fill="white"/>
<path d="M365.32 88.3565C364.263 87.8105 363.744 86.799 362.652 86.3246C360.853 85.5369 357.962 85.3937 356.073 85.5637C355.715 87.1123 358.284 86.5752 359.125 87.0228L361.909 87.7031C363.914 87.9448 365.123 90.281 367.378 89.9856C366.985 88.8488 366.322 88.8757 365.32 88.3565Z" fill="white"/>
<path d="M373.894 91.7621L372.927 91.5294C372.184 91.4578 371.343 91.1087 370.922 91.8964C371.584 92.9526 373.124 92.9974 373.366 94.4654C373.777 94.0447 374.001 93.1138 374.431 92.8094C375.022 92.3977 375.988 92.7826 376.633 92.7289C376.463 91.8785 374.655 91.968 373.894 91.7621Z" fill="white"/>
<path d="M378.117 92.9623L378.386 92.7475C378.359 93.4368 377.652 95.6835 379.12 94.3319C380.274 93.2577 378.654 92.0135 378.117 92.9623Z" fill="white"/>
<path d="M363.57 92.8724C364.134 93.3558 364.85 93.3289 365.11 92.6576L365.262 92.4248C364.618 92.3622 363.651 91.9773 363.57 92.8724Z" fill="white"/>
<path d="M385.074 42.6832L379.023 44.2586C373.724 39.9531 369.669 36.8918 369.669 36.8918L367.047 38.9774L369.249 40.705L368.873 44.187L366.348 45.3596C366.348 45.3596 367.19 48.4299 364.191 48.6C361.193 48.77 360.942 44.2676 360.673 43.2919C360.414 42.3162 346.754 39.9889 348.625 36.4711C350.496 32.9533 350.424 30.2142 350.371 30.6976C350.326 31.1362 348.025 30.9303 344.776 29.8472C343.066 29.704 341.285 29.4892 339.701 29.1669C337.651 29.5697 335.485 30.6349 332.065 31.181C326.507 32.0671 331.224 29.7935 331.224 29.7935C331.224 29.7935 333.954 26.4189 336.917 23.1428C339.88 19.8666 335.154 21.084 333.328 21.8807C331.502 22.6773 328.127 24.0468 326.784 23.7783C325.45 23.5098 321.655 22.9727 318.119 24.6913C314.575 26.4189 318.791 26.4995 320.644 26.58C322.497 26.6606 322.568 27.1619 322.631 28.8536C322.694 30.5454 317.708 29.6145 315.864 29.4086C314.441 29.2564 311.952 29.2117 309.15 29.9278C304.89 32.9354 300.933 36.3816 297.344 40.1948L299.438 39.9084L300.647 44.2586L302.312 42.0835L304.344 43.9185L305.552 47.6511L311.129 47.7586L307.808 50.8736L306.993 60.702L311.388 65.9295L313.886 72.6608L320.554 79.8486L319.319 77.5302L314.781 69.0355L316.007 69.1698L319.373 74.7554L324.287 79.7591L325.504 86.8216L336.335 92.237L340.757 92.7204L344.525 96.8738L349.296 98.6372L351.4 102.092L356.386 106.102L359.68 106.461L362.115 108.707C362.258 108.036 362.455 107.418 362.804 106.935C362.84 106.89 362.875 106.836 362.92 106.792L362.213 105.261L358.06 104.805L354.229 102.397L357.066 99.9709L354.98 95.5221L348.473 94.815L348.706 92.7115L351.176 88.3164L346.71 86.016L342.449 90.3573L338.17 86.8932L336.532 76.8678L344.203 74.2272L347.569 75.8385L349.663 74.827L354.434 74.3526L359.107 81.2897L361.658 71.9089C361.658 71.9089 366.34 69.9396 366.993 69.0177C367.646 68.0957 367.047 65.7952 367.503 64.3541C367.96 62.9129 371.191 64.2556 372.963 63.9602C374.736 63.6559 375.407 59.7532 377.35 59.7174C379.292 59.6816 378.63 62.0894 378.63 62.0894C378.63 62.0894 386.918 61.257 389.085 60.7467C391.251 60.2365 387.285 57.8197 387.285 57.8197C387.285 57.8197 384.743 56.0563 383.597 56.1727C382.452 56.298 378.826 55.6535 378.826 55.6535L380.93 53.3978C380.93 53.3978 391.313 52.7891 392.701 52.9413C394.097 53.0935 392.916 50.981 392.916 50.981L385.074 42.6832Z" fill="white"/>
<path d="M362.806 106.933C362.457 107.417 362.26 108.034 362.117 108.706L363.352 109.843L363.54 108.124L362.923 106.781C362.887 106.835 362.842 106.889 362.806 106.933Z" fill="white"/>
<path d="M393.992 53.3379L393.284 53.0156C392.676 55.0207 391.056 55.7994 392.246 57.8672C393.302 59.7022 395.853 59.7738 397.653 59.917C395.424 57.9477 393.15 56.8736 393.992 53.3379Z" fill="white"/>
<path d="M385.132 37.8225C384.362 33.9556 376.96 30.948 374.65 29.0683C372.001 28.1105 369.862 25.5236 366.675 25.5952C365.332 25.6221 363.148 26.1323 363.918 27.8241C364.616 29.3547 368.931 29.6859 370.354 30.6347C371.079 31.1181 373.281 32.5324 373.344 33.6244C373.433 35.1014 371.714 34.4032 371.473 35.5489C371.124 37.187 378.857 38.5834 380.164 39.2637C380.836 39.6128 384.148 41.6715 383.494 39.2189C382.492 39.3084 381.811 38.7177 381.838 37.6346C382.868 37.4287 384.085 37.7867 385.132 37.8225Z" fill="white"/>
<path d="M362.231 20.8116C358.928 20.4535 355.634 20.0686 352.331 19.7285C350.254 19.5137 348.518 20.0597 346.513 20.364C347.462 22.7361 352.313 22.1901 354.488 23.6044C356.091 24.6427 357.764 26.1196 359.018 27.5429C357.711 28.9572 354.945 27.6413 353.414 27.2564C351.15 26.6836 348.724 25.9943 346.352 26.0212C344.937 26.0391 343.72 26.6836 342.386 26.791C339.943 26.9879 336.953 25.3588 334.626 26.1554C334.581 27.6503 336.819 28.5812 339.692 29.163C340.972 28.9124 342.198 28.9124 343.666 29.4584C344.042 29.6017 344.409 29.727 344.767 29.8433C348.294 30.1387 351.499 30.1298 351.955 30.1298C351.758 30.8101 351.445 31.1144 350.684 31.0876C350.8 32.5466 353.378 33.3074 354.524 34.1668C354.462 34.2294 354.408 34.2921 354.363 34.3637C356.162 34.1847 357.908 33.6028 359.698 33.3254C358.382 32.663 356.905 32.3676 355.607 31.6694C357.066 31.5709 358.857 31.9021 360.217 31.3203C360.092 29.2526 363.896 27.0864 360.674 25.4752C363.878 23.9982 369.07 23.7386 372.606 23.8729C374.288 23.9355 376.114 24.7322 374.951 22.575C371.433 20.8295 366.098 21.2323 362.231 20.8116Z" fill="white"/>
<path d="M339.711 29.1772C341.295 29.4994 343.086 29.7143 344.786 29.8575C344.428 29.7411 344.061 29.6158 343.685 29.4726C342.217 28.9266 340.991 28.9266 339.711 29.1772Z" fill="white"/>
<path d="M261.327 190.676C258.561 191.455 255.804 192.234 253.038 193.004C252 193.299 252.438 194.919 253.486 194.624C256.251 193.845 259.008 193.066 261.774 192.297C262.813 192.001 262.374 190.381 261.327 190.676Z" fill="#2735AC"/>
<path d="M245.014 197.11C242.731 198.847 240.449 200.592 238.166 202.329C237.316 202.973 238.157 204.441 239.017 203.779C241.299 202.042 243.582 200.297 245.864 198.56C246.715 197.916 245.873 196.457 245.014 197.11Z" fill="#2735AC"/>
<path d="M232.772 208.897C231.331 211.376 229.89 213.865 228.448 216.344C227.902 217.284 229.361 218.135 229.899 217.195C231.34 214.715 232.781 212.227 234.222 209.747C234.777 208.807 233.318 207.966 232.772 208.897Z" fill="#2735AC"/>
<path d="M226.035 224.508C226.008 227.381 225.981 230.245 225.945 233.119C225.936 234.202 227.619 234.202 227.628 233.119C227.655 230.245 227.682 227.381 227.718 224.508C227.727 223.425 226.044 223.425 226.035 224.508Z" fill="#2735AC"/>
<path d="M228.82 240.311C228.525 239.273 226.904 239.712 227.2 240.759C227.979 243.525 228.757 246.282 229.536 249.048C229.832 250.086 231.452 249.648 231.156 248.6C230.378 245.834 229.599 243.068 228.82 240.311Z" fill="#2735AC"/>
<path d="M236.016 254.098C235.22 253.364 234.029 254.554 234.826 255.288C236.938 257.23 239.06 259.164 241.172 261.106C241.969 261.84 243.159 260.65 242.363 259.916C240.25 257.982 238.129 256.04 236.016 254.098Z" fill="#2735AC"/>
<path d="M258.401 264.205C255.537 263.982 252.681 263.758 249.817 263.534C248.734 263.453 248.743 265.136 249.817 265.217C252.681 265.441 255.537 265.664 258.401 265.888C259.484 265.978 259.475 264.295 258.401 264.205Z" fill="#F73A8A"/>
<path d="M275.145 261.604C272.353 262.258 269.56 262.92 266.767 263.574C265.711 263.824 266.158 265.444 267.215 265.194C270.007 264.54 272.8 263.878 275.593 263.225C276.649 262.974 276.202 261.354 275.145 261.604Z" fill="#2735AC"/>
<path d="M291.503 253.969C289.006 255.392 286.517 256.806 284.02 258.23C283.08 258.767 283.921 260.217 284.87 259.68C287.368 258.257 289.856 256.842 292.353 255.419C293.293 254.882 292.443 253.432 291.503 253.969Z" fill="#2735AC"/>
<path d="M300.711 242.734C299.073 245.088 297.435 247.451 295.806 249.805C295.188 250.701 296.647 251.542 297.256 250.656C298.894 248.302 300.532 245.939 302.161 243.584C302.779 242.698 301.32 241.848 300.711 242.734Z" fill="#2735AC"/>
<path d="M248.788 242.894C248.672 246.734 249.961 252.453 254.159 260.984C258.357 252.453 259.637 246.734 259.53 242.894C259.315 236.046 248.985 236.046 248.788 242.894ZM254.15 246.564C252.378 246.564 250.937 245.131 250.937 243.359C250.937 241.587 252.378 240.154 254.15 240.154C255.922 240.154 257.364 241.596 257.364 243.359C257.364 245.122 255.922 246.564 254.15 246.564Z" fill="#F73A8A"/>
<path d="M504.422 65.962C498.577 67.4121 492.723 68.8533 486.878 70.3033C486.592 70.375 486.413 70.3392 486.243 70.0885C486.046 69.8021 485.813 69.5425 485.598 69.274C485.285 68.8891 484.891 68.6295 484.39 68.5668C483.495 68.4684 482.188 69.6678 482.215 70.5719C482.223 70.8404 482.322 71.109 482.385 71.3954C482.313 71.4133 482.223 71.4491 482.134 71.467C480.156 71.9593 478.178 72.4427 476.208 72.944C475.94 73.0156 475.779 72.9619 475.591 72.756C471.724 68.54 467.875 64.315 463.972 60.1437C462.683 58.7653 461.036 57.9238 459.147 57.6464C457.912 57.4673 457.232 58.1208 457.259 59.3739C457.259 59.4456 457.259 59.5172 457.268 59.5888C457.482 61.4059 458.145 63.0618 459.371 64.4224C463.193 68.6295 467.051 72.7918 470.909 76.972C471.133 77.2137 471.187 77.4106 471.079 77.7239C470.605 79.0755 470.148 80.4451 469.692 81.8056C469.477 82.4412 469.262 83.0677 469.038 83.7301C468.179 83.1841 467.463 83.3989 466.845 84.0971C466.801 84.1508 466.738 84.1956 466.684 84.2404C465.852 85.0102 465.852 85.95 466.693 86.7198C466.926 86.9347 467.132 87.1674 467.373 87.3554C467.651 87.5702 467.678 87.785 467.561 88.1252C465.896 93.0215 464.24 97.9267 462.585 102.823C462.244 103.826 461.904 104.837 461.555 105.857C461.976 106.314 462.423 106.806 462.907 107.334C463.077 107.155 463.256 107.003 463.381 106.824C466.076 102.886 468.77 98.9382 471.464 94.9907C471.965 94.2567 472.476 93.5138 472.986 92.7529C473.111 92.8693 473.21 92.9588 473.299 93.0483C473.398 93.1468 473.496 93.2632 473.603 93.3616C473.953 93.6749 474.087 93.6839 474.436 93.3795C474.812 93.0483 475.179 92.6992 475.546 92.3591C475.752 92.1711 475.805 91.9563 475.617 91.7325C475.34 91.3924 475.071 91.0343 474.776 90.7121C474.597 90.5151 474.624 90.363 474.767 90.1571C475.492 89.1188 476.199 88.0625 476.915 87.0152C477.363 86.3528 477.819 85.6994 478.303 85.0012C478.419 85.1265 478.5 85.225 478.598 85.3145C479.592 86.3349 480.541 87.4001 481.588 88.3669C484.112 90.7121 486.681 93.0215 489.241 95.3398C489.438 95.5189 489.492 95.671 489.447 95.9306C488.874 99.538 488.319 103.154 487.755 106.762C487.737 106.86 487.711 107.003 487.755 107.066C487.97 107.334 488.212 107.576 488.489 107.872C490.118 104.909 491.712 102.008 493.305 99.1083C494.245 99.5917 494.889 99.5738 495.462 99.0635C496.071 98.5265 496.16 97.8999 495.767 96.8436C498.783 95.501 501.809 94.1493 504.897 92.7798C504.682 92.5471 504.521 92.4038 504.396 92.2338C504.225 91.9921 504.02 91.9384 503.724 91.9563C500.108 92.2248 496.483 92.4844 492.857 92.7351C492.705 92.744 492.49 92.6724 492.41 92.565C491.228 91.0522 490.074 89.5305 488.901 88.0088C487.057 85.6189 485.312 83.1483 483.181 81C483.11 80.9284 483.047 80.8389 482.975 80.7494C483.02 80.7046 483.047 80.6778 483.074 80.6599C484.873 79.6394 486.672 78.6101 488.48 77.5986C488.57 77.5449 488.767 77.5717 488.838 77.6433C489.161 77.9298 489.447 78.252 489.76 78.5474C490.083 78.8517 490.235 78.8517 490.566 78.5563C490.915 78.2431 491.264 77.9298 491.595 77.6075C491.953 77.2674 491.962 77.1242 491.64 76.7303C491.47 76.5244 491.282 76.3365 491.085 76.1216C491.273 76.0142 491.389 75.9426 491.497 75.88C496.286 73.1677 501.075 70.4466 505.864 67.7254C506.078 67.6001 506.257 67.43 506.481 67.2689C505.989 66.7318 505.532 66.2395 505.103 65.774C504.852 65.8367 504.637 65.9083 504.422 65.962Z" fill="#2735AC"/>
<path d="M501.199 106.655C500.895 105.617 499.266 106.055 499.579 107.103C500.384 109.86 501.199 112.608 502.005 115.365C502.309 116.403 503.938 115.964 503.625 114.917C502.819 112.16 502.014 109.412 501.199 106.655Z" fill="#2735AC"/>
<path d="M502.789 121.832C502.852 124.697 502.915 127.57 502.977 130.435C503.004 131.518 504.687 131.518 504.66 130.435C504.598 127.57 504.535 124.697 504.472 121.832C504.445 120.758 502.763 120.749 502.789 121.832Z" fill="#2735AC"/>
<path d="M502.193 137.482C501.602 140.293 501.003 143.094 500.412 145.905C500.188 146.961 501.808 147.409 502.032 146.352C502.623 143.542 503.222 140.74 503.813 137.929C504.037 136.873 502.417 136.417 502.193 137.482Z" fill="#2735AC"/>
<path d="M498.726 152.213C497.491 154.8 496.256 157.396 495.021 159.983C494.555 160.958 496.005 161.809 496.471 160.833C497.706 158.246 498.941 155.65 500.176 153.063C500.642 152.088 499.192 151.237 498.726 152.213Z" fill="#2735AC"/>
<path d="M490.291 168.206C488.841 170.685 487.391 173.156 485.941 175.635C485.395 176.575 486.845 177.416 487.391 176.485C488.841 174.006 490.291 171.535 491.742 169.056C492.296 168.116 490.837 167.266 490.291 168.206Z" fill="#2735AC"/>
<path d="M452.858 231.44C450.02 231.843 447.173 232.245 444.336 232.657C443.271 232.809 443.718 234.429 444.784 234.277C447.621 233.874 450.468 233.472 453.305 233.06C454.379 232.908 453.923 231.288 452.858 231.44Z" fill="#2735AC"/>
<path d="M468.422 224.304C465.934 225.728 463.436 227.151 460.948 228.574C460.008 229.111 460.858 230.57 461.798 230.024C464.287 228.601 466.784 227.178 469.272 225.754C470.203 225.226 469.362 223.767 468.422 224.304Z" fill="#2735AC"/>
<path d="M479.392 212.085C477.637 214.359 475.883 216.624 474.128 218.897C473.475 219.748 474.656 220.947 475.319 220.088C477.073 217.814 478.828 215.549 480.582 213.276C481.236 212.426 480.054 211.226 479.392 212.085Z" fill="#2735AC"/>
<path d="M483.713 196.582C483.301 199.42 482.898 202.266 482.487 205.104C482.334 206.16 483.955 206.616 484.107 205.551C484.519 202.714 484.921 199.867 485.333 197.03C485.485 195.964 483.865 195.508 483.713 196.582Z" fill="#2735AC"/>
<path d="M483.88 180.539C483.728 179.474 482.108 179.921 482.26 180.987C482.663 183.824 483.075 186.671 483.477 189.508C483.63 190.573 485.25 190.126 485.098 189.061C484.695 186.223 484.292 183.386 483.88 180.539Z" fill="#F73A8A"/>
<path d="M473.899 167.063C473.201 166.23 472.019 167.43 472.709 168.253C474.552 170.455 476.387 172.657 478.231 174.859C478.93 175.692 480.111 174.492 479.422 173.669C477.578 171.467 475.743 169.265 473.899 167.063Z" fill="#2735AC"/>
<path d="M466.058 161.954C463.257 161.355 460.446 160.755 457.644 160.146C456.588 159.922 456.14 161.543 457.197 161.766C459.998 162.366 462.809 162.966 465.611 163.566C466.667 163.807 467.115 162.178 466.058 161.954Z" fill="#2735AC"/>
<path d="M448.809 159.653C445.954 159.931 443.099 160.217 440.243 160.495C439.178 160.602 439.16 162.285 440.243 162.178C443.099 161.9 445.954 161.614 448.809 161.336C449.884 161.229 449.893 159.546 448.809 159.653Z" fill="#2735AC"/>
<path d="M430.583 162.754C427.924 163.828 425.266 164.911 422.607 165.985C421.614 166.388 422.052 168.017 423.055 167.605C425.713 166.531 428.372 165.448 431.03 164.374C432.015 163.971 431.585 162.342 430.583 162.754Z" fill="#2735AC"/>
<path d="M417.066 170.013C415.133 172.135 413.199 174.256 411.266 176.378C410.541 177.174 411.722 178.374 412.456 177.568C414.39 175.447 416.323 173.325 418.257 171.204C418.982 170.407 417.8 169.217 417.066 170.013Z" fill="#2735AC"/>
<path d="M477.929 151.886C477.813 155.726 479.102 161.446 483.3 169.976C487.498 161.446 488.778 155.726 488.67 151.886C488.465 145.038 478.135 145.038 477.929 151.886ZM483.3 155.556C481.527 155.556 480.095 154.115 480.095 152.342C480.095 150.57 481.536 149.138 483.3 149.138C485.072 149.138 486.504 150.57 486.504 152.342C486.513 154.124 485.072 155.556 483.3 155.556Z" fill="#F73A8A"/>
<path d="M196.924 196.426C192.941 199.058 188.958 201.698 184.983 204.339C184.241 204.831 183.498 205.323 182.728 205.834C182.656 205.681 182.602 205.556 182.549 205.44C182.495 205.305 182.45 205.171 182.388 205.037C182.191 204.616 182.065 204.554 181.627 204.706C181.152 204.876 180.687 205.055 180.212 205.234C179.944 205.332 179.828 205.502 179.908 205.789C180.033 206.21 180.159 206.639 180.302 207.06C180.392 207.311 180.311 207.445 180.096 207.579C179.031 208.268 177.984 208.975 176.918 209.683C176.256 210.121 175.585 210.56 174.878 211.025C174.815 210.864 174.779 210.739 174.725 210.622C174.188 209.307 173.705 207.955 173.105 206.666C171.646 203.542 170.142 200.436 168.639 197.33C168.522 197.097 168.531 196.927 168.665 196.712C170.554 193.579 172.434 190.446 174.305 187.314C174.358 187.224 174.439 187.108 174.421 187.036C174.323 186.714 174.188 186.392 174.045 186.016C171.422 188.146 168.853 190.232 166.284 192.317C165.595 191.521 164.995 191.297 164.261 191.547C163.501 191.816 163.178 192.362 163.143 193.49C159.84 193.597 156.537 193.705 153.153 193.821C153.26 194.116 153.359 194.304 153.404 194.51C153.475 194.797 153.636 194.931 153.914 195.021C157.369 196.13 160.824 197.258 164.27 198.395C164.414 198.44 164.584 198.592 164.62 198.726C165.148 200.57 165.64 202.423 166.159 204.267C166.974 207.176 167.654 210.121 168.818 212.914C168.853 213.012 168.88 213.111 168.916 213.218C168.853 213.236 168.827 213.263 168.791 213.263C166.741 213.532 164.682 213.809 162.632 214.06C162.534 214.069 162.364 213.979 162.319 213.89C162.131 213.505 161.979 213.093 161.8 212.708C161.612 212.305 161.478 212.252 161.057 212.395C160.618 212.547 160.18 212.717 159.741 212.887C159.276 213.066 159.213 213.2 159.365 213.684C159.446 213.934 159.553 214.185 159.652 214.454C159.437 214.489 159.303 214.507 159.177 214.525C153.717 215.241 148.257 215.948 142.805 216.673C142.564 216.709 142.331 216.79 142.062 216.861C142.322 217.542 142.555 218.177 142.779 218.768C143.047 218.795 143.271 218.813 143.495 218.84C149.456 219.699 155.418 220.567 161.379 221.418C161.666 221.462 161.818 221.561 161.889 221.856C161.961 222.196 162.086 222.528 162.185 222.859C162.328 223.333 162.597 223.727 163.044 223.969C163.832 224.398 165.506 223.772 165.81 222.93C165.9 222.68 165.908 222.393 165.962 222.107C166.034 222.116 166.123 222.116 166.222 222.134C168.236 222.42 170.25 222.716 172.264 222.993C172.541 223.029 172.667 223.136 172.765 223.396C174.761 228.758 176.739 234.119 178.78 239.454C179.452 241.218 180.669 242.623 182.307 243.59C183.381 244.225 184.267 243.867 184.706 242.704C184.733 242.632 184.76 242.569 184.778 242.498C185.261 240.725 185.27 238.944 184.643 237.225C182.683 231.89 180.678 226.573 178.682 221.256C178.565 220.952 178.592 220.746 178.807 220.496C179.756 219.421 180.687 218.32 181.627 217.237C182.065 216.736 182.504 216.226 182.961 215.698C183.56 216.53 184.294 216.593 185.136 216.181C185.198 216.145 185.27 216.127 185.342 216.101C186.398 215.707 186.756 214.83 186.272 213.8C186.138 213.514 186.04 213.218 185.879 212.95C185.7 212.645 185.753 212.431 185.986 212.162C189.379 208.25 192.753 204.33 196.128 200.418C196.817 199.612 197.515 198.816 198.231 197.992C198.016 197.41 197.784 196.784 197.533 196.122C197.327 196.238 197.112 196.31 196.924 196.426Z" fill="#2735AC"/>
<path d="M163.68 173.601C163.68 176.475 163.68 179.339 163.68 182.212C163.68 183.296 165.363 183.296 165.363 182.212C165.363 179.339 165.363 176.475 165.363 173.601C165.363 172.518 163.68 172.518 163.68 173.601Z" fill="#2735AC"/>
<path d="M165.962 157.891C165.416 160.71 164.87 163.521 164.315 166.341C164.109 167.397 165.729 167.853 165.935 166.788C166.481 163.968 167.027 161.158 167.582 158.338C167.788 157.273 166.168 156.825 165.962 157.891Z" fill="#2735AC"/>
<path d="M172.321 142.41C171.139 145.024 169.966 147.647 168.785 150.26C168.346 151.236 169.796 152.095 170.235 151.111C171.416 148.497 172.589 145.874 173.771 143.26C174.209 142.276 172.759 141.417 172.321 142.41Z" fill="#2735AC"/>
<path d="M179.703 126.016C178.522 128.629 177.349 131.252 176.168 133.866C175.729 134.841 177.179 135.701 177.618 134.716C178.799 132.102 179.972 129.48 181.153 126.866C181.601 125.881 180.151 125.031 179.703 126.016Z" fill="#2735AC"/>
<path d="M186.664 111.256C185.483 113.87 184.31 116.492 183.129 119.106C182.69 120.082 184.14 120.941 184.579 119.956C185.76 117.343 186.933 114.72 188.114 112.106C188.562 111.131 187.112 110.271 186.664 111.256Z" fill="#2735AC"/>
<path d="M205.648 101.088C202.801 101.482 199.964 101.876 197.117 102.27C196.052 102.422 196.5 104.042 197.565 103.89C200.411 103.496 203.249 103.102 206.095 102.708C207.169 102.565 206.713 100.936 205.648 101.088Z" fill="#2735AC"/>
<path d="M204.552 87.4506C202.476 89.4288 200.39 91.407 198.313 93.3763C197.526 94.1282 198.716 95.3097 199.504 94.5668C201.58 92.5886 203.666 90.6104 205.743 88.6411C206.53 87.8892 205.34 86.6987 204.552 87.4506Z" fill="#2735AC"/>
<path d="M216.305 75.4257C214.309 77.4934 212.322 79.5522 210.326 81.6199C209.574 82.3987 210.764 83.5892 211.516 82.8104C213.512 80.7427 215.499 78.6839 217.495 76.6162C218.247 75.8374 217.057 74.6469 216.305 75.4257Z" fill="#2735AC"/>
<path d="M231.313 65.903C228.717 67.1293 226.121 68.3467 223.525 69.573C222.55 70.0384 223.4 71.4885 224.376 71.0231C226.972 69.7968 229.567 68.5794 232.163 67.3531C233.148 66.8966 232.289 65.4375 231.313 65.903Z" fill="#2735AC"/>
<path d="M247.885 63.9553C245.021 64.1523 242.157 64.3492 239.301 64.5461C238.227 64.6177 238.218 66.3006 239.301 66.2289C242.166 66.032 245.03 65.8351 247.885 65.6382C248.96 65.5666 248.968 63.8837 247.885 63.9553Z" fill="#2735AC"/>
<path d="M265.968 65.5572C263.121 65.2171 260.266 64.8769 257.419 64.5457C256.345 64.4204 256.354 66.1032 257.419 66.2285C260.266 66.5687 263.121 66.9088 265.968 67.24C267.042 67.3653 267.033 65.6825 265.968 65.5572Z" fill="#2735AC"/>
<path d="M222.305 102.019C219.449 101.715 216.594 101.411 213.748 101.115C212.673 100.999 212.682 102.682 213.748 102.798C216.603 103.102 219.458 103.407 222.305 103.702C223.388 103.818 223.379 102.136 222.305 102.019Z" fill="#2735AC"/>
<path d="M238.431 104.808C235.62 104.217 232.818 103.635 230.008 103.045C228.951 102.821 228.495 104.441 229.56 104.665C232.371 105.256 235.172 105.837 237.983 106.428C239.039 106.652 239.496 105.032 238.431 104.808Z" fill="#2735AC"/>
<path d="M186.491 79.7529C186.375 83.593 187.664 89.3128 191.862 97.8433C196.06 89.3128 197.34 83.593 197.233 79.7529C197.018 72.9053 186.697 72.9053 186.491 79.7529ZM191.862 83.4229C190.09 83.4229 188.658 81.9818 188.658 80.2095C188.658 78.4371 190.099 77.0049 191.862 77.0049C193.626 77.0049 195.067 78.4371 195.067 80.2095C195.067 81.9818 193.635 83.4229 191.862 83.4229Z" fill="#F73A8A"/>
<path d="M191.659 100.76C190.818 102.21 189.976 103.669 189.144 105.128C188.598 106.068 190.057 106.919 190.594 105.979C191.435 104.52 192.277 103.07 193.109 101.611C193.655 100.671 192.205 99.8203 191.659 100.76Z" fill="#F73A8A"/>
<path d="M432.599 192.467C428.911 171.968 415.788 160.905 406.363 152.705C396.937 144.506 388.738 124.008 388.738 124.008L327.664 143.271L292.414 198.195V200.657C292.414 200.657 322.338 248.617 340.375 252.305C364.793 257.3 389.749 270.628 409.388 285.631C420.291 293.964 427.094 302.244 441.89 302.351C453.661 302.432 466.175 297.455 472.145 286.803C482.045 269.107 459.81 253.764 452.345 240.248C444.226 225.568 435.597 209.134 432.599 192.467Z" fill="#FFA398"/>
<path d="M207.554 139.584C196.893 144.507 202.631 147.783 210.016 150.648C217.391 153.521 251.415 171.549 259.202 178.934C266.99 186.309 269.04 171.558 269.04 171.558L226.002 136.72C226.002 136.711 218.215 134.661 207.554 139.584Z" fill="#FFA398"/>
<path d="M414.927 180.991L292.654 81.1314C290.461 79.3412 286.952 79.1353 284.848 80.6659L219.352 128.609C217.258 130.148 217.329 132.869 219.522 134.66L341.796 234.519C343.989 236.309 347.498 236.515 349.601 234.985L415.097 187.042C417.192 185.502 417.12 182.781 414.927 180.991Z" fill="#2736AD"/>
<path d="M414.927 181L414.676 180.794L349.601 228.424C347.506 229.963 343.989 229.749 341.796 227.958L219.773 128.305L219.352 128.609C217.258 130.149 217.329 132.87 219.522 134.66L341.796 234.52C343.989 236.31 347.498 236.516 349.601 234.985L415.097 187.042C417.192 185.512 417.12 182.791 414.927 181Z" fill="#0B1B57"/>
<path d="M405.8 177.317C405.54 176.807 405.155 176.323 404.627 175.903L294.536 85.9789C292.558 84.3677 289.416 84.1529 287.554 85.5134L229.273 127.835C227.411 129.195 227.492 131.621 229.47 133.232L339.561 223.147C341.53 224.758 344.681 224.964 346.543 223.612L404.824 181.291C406.193 180.298 406.507 178.722 405.8 177.317Z" fill="#E6E6E6"/>
<path d="M388.708 194.697C383.239 198.662 377.779 202.618 372.31 206.584C370.573 207.846 372.247 210.764 374.011 209.493C379.48 205.528 384.94 201.571 390.409 197.606C392.137 196.344 390.463 193.426 388.708 194.697Z" fill="#0B1B57"/>
<path d="M269.484 26.0029L272.42 161.309L335.213 159.349L332.286 24.875L269.484 26.0029Z" fill="#1BCCA3"/>
<path d="M333.316 64.4669L270.352 66.3125L270.368 66.8583L333.332 65.0127L333.316 64.4669Z" fill="white"/>
<path d="M291.243 117.964C291.287 120.3 291.323 122.645 291.368 124.982C291.413 127.542 295.387 127.47 295.342 124.91C295.297 122.574 295.262 120.229 295.217 117.892C295.163 115.332 291.198 115.404 291.243 117.964Z" fill="white"/>
<path d="M323.039 117.386C323.084 119.722 323.12 122.067 323.165 124.404C323.209 126.964 327.184 126.892 327.139 124.332C327.094 121.996 327.059 119.651 327.014 117.314C326.969 114.754 322.995 114.826 323.039 117.386Z" fill="white"/>
<path d="M327.141 50.2681L315.039 50.4829L315.057 51.378L327.15 51.1632C327.177 51.1632 327.204 51.1453 327.222 51.1453L327.204 50.286C327.186 50.277 327.168 50.2591 327.141 50.2681Z" fill="white"/>
<path d="M326.968 39.9766L314.875 40.1914L314.893 41.0865L326.986 40.8717C327.013 40.8717 327.04 40.8538 327.058 40.8538L327.04 39.9945C327.013 39.9945 326.995 39.9766 326.968 39.9766Z" fill="white"/>
<path d="M327.07 46.1641L314.977 46.3789L314.994 47.274L327.088 47.0592C327.114 47.0592 327.141 47.0413 327.159 47.0413L327.141 46.182C327.123 46.173 327.105 46.1641 327.07 46.1641Z" fill="white"/>
<path d="M327.046 44.875L314.953 45.0898L314.971 45.985L327.064 45.7701C327.091 45.7701 327.118 45.7522 327.136 45.7522L327.118 44.8929C327.091 44.884 327.073 44.875 327.046 44.875Z" fill="white"/>
<path d="M326.984 41.5781L314.891 41.793L314.909 42.6881L327.002 42.4732C327.028 42.4732 327.055 42.4553 327.073 42.4553L327.055 41.596C327.037 41.5871 327.011 41.5781 326.984 41.5781Z" fill="white"/>
<path d="M327.101 47.9219L315.008 48.1367L315.044 49.9359L327.137 49.7211C327.164 49.7211 327.181 49.7032 327.208 49.7032L327.172 47.9487C327.146 47.9398 327.128 47.9219 327.101 47.9219Z" fill="white"/>
<path d="M327.007 42.8203L314.914 43.0351L314.95 44.8343L327.043 44.6195C327.07 44.6195 327.088 44.6016 327.115 44.6016L327.079 42.8472C327.052 42.8382 327.034 42.8203 327.007 42.8203Z" fill="white"/>
<path d="M326.866 34.8828L314.773 35.0976L314.791 35.9928L326.884 35.7779C326.911 35.7779 326.938 35.76 326.956 35.76L326.938 34.9007C326.911 34.9007 326.893 34.8828 326.866 34.8828Z" fill="white"/>
<path d="M326.906 36.5312L314.812 36.7461L314.83 37.6412L326.923 37.4264C326.95 37.4264 326.977 37.4085 326.995 37.4085L326.977 36.5492C326.959 36.5492 326.932 36.5312 326.906 36.5312Z" fill="white"/>
<path d="M326.913 37.7266L314.82 37.9414L314.856 39.7406L326.949 39.5258C326.976 39.5258 326.994 39.5078 327.021 39.5078L326.985 37.7534C326.967 37.7445 326.949 37.7266 326.913 37.7266Z" fill="white"/>
<path d="M293.922 148.455C293.994 152.537 294.065 156.618 294.146 160.7L297.968 160.584C297.897 156.52 297.825 152.456 297.744 148.392C297.7 145.922 293.878 145.984 293.922 148.455Z" fill="white"/>
<path d="M286.023 51.3889L288.476 160.871L348.906 158.991L346.471 50.2969L286.023 51.3889Z" fill="#FBB03B"/>
<path d="M341.528 74.7344L329.883 74.9402L329.901 75.8085L341.546 75.6026C341.573 75.6026 341.591 75.5937 341.618 75.5847L341.6 74.7612C341.582 74.7433 341.555 74.7344 341.528 74.7344Z" fill="white"/>
<path d="M341.341 64.8438L329.695 65.0496L329.713 65.9179L341.359 65.712C341.386 65.712 341.403 65.7031 341.43 65.6941L341.412 64.8706C341.395 64.8527 341.368 64.8438 341.341 64.8438Z" fill="white"/>
<path d="M341.442 70.7969L329.797 71.0027L329.815 71.871L341.46 71.6651C341.487 71.6651 341.505 71.6562 341.532 71.6472L341.514 70.8237C341.496 70.8058 341.469 70.7969 341.442 70.7969Z" fill="white"/>
<path d="M341.427 69.5469L329.781 69.7528L329.799 70.621L341.445 70.4151C341.472 70.4151 341.489 70.4062 341.516 70.3972L341.498 69.5737C341.472 69.5558 341.454 69.5469 341.427 69.5469Z" fill="white"/>
<path d="M341.364 66.3828L329.719 66.5887L329.737 67.457L341.382 67.2511C341.409 67.2511 341.427 67.2421 341.454 67.2332L341.436 66.4097C341.418 66.3918 341.391 66.3828 341.364 66.3828Z" fill="white"/>
<path d="M341.489 72.4844L329.844 72.6903L329.871 74.4178L341.516 74.212C341.543 74.212 341.561 74.1941 341.588 74.1941L341.561 72.5023C341.534 72.4933 341.516 72.4844 341.489 72.4844Z" fill="white"/>
<path d="M341.396 67.5781L329.75 67.784L329.777 69.5116L341.422 69.3057C341.449 69.3057 341.467 69.2878 341.494 69.2878L341.467 67.596C341.44 67.596 341.422 67.5781 341.396 67.5781Z" fill="white"/>
<path d="M341.255 59.9297L329.609 60.1356L329.627 61.0038L341.273 60.798C341.3 60.798 341.318 60.78 341.344 60.78L341.326 59.9565C341.309 59.9476 341.282 59.9297 341.255 59.9297Z" fill="white"/>
<path d="M341.286 61.5258L329.641 61.7317L329.659 62.6L341.304 62.3941C341.331 62.3941 341.349 62.3762 341.376 62.3762L341.358 61.5527C341.331 61.5348 341.313 61.5169 341.286 61.5258Z" fill="white"/>
<path d="M341.302 62.6719L329.656 62.8777L329.683 64.6053L341.329 64.3994C341.355 64.3994 341.373 64.3816 341.4 64.3816L341.373 62.6898C341.347 62.6898 341.329 62.6719 341.302 62.6719Z" fill="white"/>
<path d="M347.434 93.6468L287.008 95.5391L287.024 96.058L347.45 94.1657L347.434 93.6468Z" fill="white"/>
<path d="M293.5 122.468L292.453 122.5L293.533 157.759L294.579 157.727L293.5 122.468Z" fill="white"/>
<path d="M295.867 134.593L294.82 134.625L295.527 157.708L296.574 157.675L295.867 134.593Z" fill="white"/>
<path d="M297.523 123.523L296.477 123.555L297.52 157.642L298.567 157.61L297.523 123.523Z" fill="white"/>
<path d="M299.594 128.64L298.547 128.672L299.432 157.579L300.479 157.547L299.594 128.64Z" fill="white"/>
<path d="M302.023 134.405L300.977 134.438L301.683 157.52L302.73 157.488L302.023 134.405Z" fill="white"/>
<path d="M332.086 130.437L331.039 130.469L331.839 156.593L332.886 156.561L332.086 130.437Z" fill="white"/>
<path d="M333.773 135.538L332.727 135.57L333.369 156.55L334.416 156.518L333.773 135.538Z" fill="white"/>
<path d="M335.641 147.531L334.594 147.562L334.867 156.518L335.914 156.486L335.641 147.531Z" fill="white"/>
<path d="M291.144 54.0622L290.625 54.0781L291.3 76.1139L291.819 76.098L291.144 54.0622Z" fill="white"/>
<path d="M294.297 53.9758L293.25 54.0078L293.925 76.0436L294.971 76.0115L294.297 53.9758Z" fill="white"/>
<path d="M344.583 33.8885C344.574 32.6354 342.632 32.6443 342.641 33.8975C342.712 46.3934 342.775 58.8892 342.847 71.3851C342.855 73.1664 342.864 74.9566 342.873 76.7379C342.882 77.9911 344.825 77.9821 344.816 76.729C344.744 64.2331 344.682 51.7372 344.61 39.2414C344.601 37.4601 344.592 35.6698 344.583 33.8885Z" fill="#CCCCCC"/>
<path d="M366.036 33.787C366.027 32.5338 364.085 32.5428 364.094 33.7959C364.165 46.2918 364.228 58.7877 364.3 71.2835C364.309 73.0648 364.318 74.855 364.327 76.6363C364.335 77.8806 366.278 77.8806 366.269 76.6274C366.197 64.1315 366.135 51.6357 366.063 39.1398C366.054 37.3585 366.045 35.5683 366.036 33.787Z" fill="#CCCCCC"/>
<path d="M379.772 73.0781L355.093 73.2124L354.189 73.2213L329.511 73.3556C329.511 73.3556 323.012 77.2852 322.592 84.2761C322.171 91.2669 323.039 166.287 323.039 166.287C323.039 166.287 325.895 173.448 335.947 173.734C344.719 173.985 353.178 173.716 355.192 173.645C357.206 173.699 365.674 173.869 374.437 173.528C384.489 173.135 387.264 165.947 387.264 165.947C387.264 165.947 387.309 90.9179 386.816 83.9359C386.306 76.9361 379.772 73.0781 379.772 73.0781Z" fill="#CB3AF7"/>
<path d="M376.013 169.086C373.032 169.104 370.624 171.163 370.633 173.696C370.651 176.22 373.077 178.261 376.057 178.243C379.038 178.225 381.446 176.166 381.437 173.633C381.428 171.1 379.002 169.068 376.013 169.086Z" fill="#4AB5F9"/>
<path d="M376.027 171.695C374.747 171.704 373.718 172.581 373.727 173.665C373.736 174.748 374.774 175.616 376.045 175.607C377.325 175.598 378.354 174.721 378.345 173.638C378.345 172.564 377.298 171.695 376.027 171.695Z" fill="#FAEFEE"/>
<path d="M333.708 169.313C330.727 169.331 328.319 171.389 328.328 173.923C328.346 176.447 330.772 178.488 333.753 178.47C336.733 178.452 339.141 176.393 339.132 173.86C339.123 171.327 336.698 169.295 333.708 169.313Z" fill="#4AB5F9"/>
<path d="M333.73 171.93C332.45 171.939 331.421 172.816 331.43 173.899C331.439 174.982 332.477 175.85 333.748 175.841C335.028 175.832 336.058 174.955 336.049 173.872C336.049 172.798 335.001 171.921 333.73 171.93Z" fill="#FAEFEE"/>
<path d="M377.067 84.6172L332.311 84.8589C330.181 84.8679 328.435 86.6223 328.453 88.7616L328.856 162.027C328.865 164.158 330.619 165.903 332.759 165.885L377.515 165.643C379.645 165.635 381.391 163.871 381.373 161.741L380.97 88.4752C380.952 86.3448 379.198 84.6083 377.067 84.6172Z" fill="#E48CFF"/>
<path d="M366.953 29.3516L341.845 29.4859C340.69 29.4948 339.75 30.4437 339.75 31.5984V31.8222C339.759 32.9769 340.708 33.9167 341.862 33.9167L366.971 33.7825C368.125 33.7735 369.065 32.8247 369.065 31.67V31.4462C369.056 30.2825 368.107 29.3427 366.953 29.3516Z" fill="#CB3AF7"/>
<path d="M380.927 79.7578C365.612 79.8384 350.305 79.9279 334.99 80.0084C332.797 80.0174 330.604 80.0353 328.411 80.0443C327.784 80.0443 327.793 81.0199 328.42 81.011C343.735 80.9304 359.042 80.8409 374.357 80.7603C376.55 80.7514 378.743 80.7335 380.936 80.7245C381.563 80.7245 381.554 79.7578 380.927 79.7578Z" fill="white"/>
<path d="M318.219 145.906C323.679 145.897 329.059 148.278 332.63 152.423C333.248 153.148 332.201 154.204 331.574 153.479C328.334 149.711 323.545 147.491 318.577 147.401C313.555 147.312 308.086 149.514 305.902 154.302C305.508 155.171 304.219 154.419 304.613 153.551C306.958 148.413 312.839 145.906 318.219 145.906Z" fill="#0081D8"/>
<path d="M288.156 166.205C292.865 162.383 294.574 163.744 298.003 157.308C301.431 150.872 304.206 150.281 304.206 150.281H316.272H321.115H333.181C333.181 150.281 335.965 150.872 339.384 157.308C342.812 163.744 344.522 162.383 349.23 166.205C353.939 170.028 354.583 178.674 354.583 178.674H322.189H315.207H282.812C282.812 178.674 283.448 170.028 288.156 166.205Z" fill="#00B5ED"/>
<path d="M282.228 67.484C282.228 77.0617 282.228 86.6395 282.228 96.2173C282.228 97.5868 282.228 98.9564 282.228 100.326C282.228 101.284 280.742 101.284 280.742 100.326C280.742 90.7481 280.742 81.1703 280.742 71.5926C280.742 70.223 280.742 68.8535 280.742 67.484C280.742 66.5262 282.228 66.5262 282.228 67.484Z" fill="#2B6ED4"/>
<path d="M265.791 67.484C265.791 77.0617 265.791 86.6395 265.791 96.2173C265.791 97.5868 265.791 98.9564 265.791 100.326C265.791 101.284 264.305 101.284 264.305 100.326C264.305 90.7481 264.305 81.1703 264.305 71.5926C264.305 70.223 264.305 68.8535 264.305 67.484C264.296 66.5262 265.791 66.5262 265.791 67.484Z" fill="#2B6ED4"/>
<path d="M253.929 97.6641H272.852H273.55H292.473C292.473 97.6641 297.467 100.654 297.816 106.007C298.166 111.368 297.816 168.88 297.816 168.88C297.816 168.88 295.659 174.376 287.952 174.644C281.23 174.877 274.749 174.707 273.201 174.653C271.652 174.698 265.171 174.868 258.449 174.644C250.742 174.385 248.585 168.88 248.585 168.88C248.585 168.88 248.236 111.359 248.585 106.007C248.934 100.645 253.929 97.6641 253.929 97.6641Z" fill="#1E64CC"/>
<path d="M257.207 171.258C259.498 171.258 261.351 172.824 261.351 174.767C261.351 176.7 259.498 178.276 257.207 178.276C254.915 178.276 253.062 176.709 253.062 174.767C253.071 172.824 254.924 171.258 257.207 171.258Z" fill="#060E2C"/>
<path d="M257.202 173.266C258.178 173.266 258.974 173.937 258.974 174.769C258.974 175.602 258.178 176.273 257.202 176.273C256.226 176.273 255.43 175.602 255.43 174.769C255.43 173.937 256.226 173.266 257.202 173.266Z" fill="#D5D4E0"/>
<path d="M289.637 171.258C291.928 171.258 293.781 172.824 293.781 174.767C293.781 176.7 291.928 178.276 289.637 178.276C287.345 178.276 285.492 176.709 285.492 174.767C285.492 172.824 287.345 171.258 289.637 171.258Z" fill="#060E2C"/>
<path d="M289.64 173.266C290.615 173.266 291.412 173.937 291.412 174.769C291.412 175.602 290.615 176.273 289.64 176.273C288.664 176.273 287.867 175.602 287.867 174.769C287.867 173.937 288.664 173.266 289.64 173.266Z" fill="#D5D4E0"/>
<path d="M256.034 106.516H290.344C291.982 106.516 293.316 107.858 293.316 109.487V165.656C293.316 167.294 291.973 168.628 290.344 168.628H256.034C254.396 168.628 253.062 167.285 253.062 165.656V109.487C253.062 107.849 254.396 106.516 256.034 106.516Z" fill="#4D93FF"/>
<path d="M263.572 64.0938H282.826C283.712 64.0938 284.437 64.8188 284.437 65.705V65.875C284.437 66.7612 283.712 67.4862 282.826 67.4862H263.572C262.686 67.4862 261.961 66.7612 261.961 65.875V65.705C261.961 64.8188 262.686 64.0938 263.572 64.0938Z" fill="#144287"/>
<path d="M253.073 102.805C264.817 102.805 276.552 102.805 288.296 102.805C289.979 102.805 291.662 102.805 293.336 102.805C293.81 102.805 293.819 103.548 293.336 103.548C281.592 103.548 269.857 103.548 258.113 103.548C256.43 103.548 254.747 103.548 253.073 103.548C252.59 103.548 252.59 102.805 253.073 102.805Z" fill="#2B6ED4"/>
<path d="M307.148 138.891C309.914 138.721 316.967 138.775 321.452 143.17C327.127 148.738 341.825 179.485 341.825 179.485C341.825 179.485 341.825 179.485 340.661 179.485C339.498 179.485 323.77 149.874 319.769 145.694C316.618 142.4 309.851 141.702 307.139 141.559C304.427 141.702 297.66 142.4 294.509 145.694C290.508 149.874 274.78 179.485 273.617 179.485C272.453 179.485 272.453 179.485 272.453 179.485C272.453 179.485 287.151 148.738 292.826 143.17C297.328 138.775 304.382 138.721 307.148 138.891Z" fill="#D5D4E0"/>
<path d="M282.311 112.19C285.533 120.801 289.033 137.424 301.574 138.722C306.605 139.241 311.707 139.071 316.737 138.579C319.441 138.319 322.242 137.29 324.99 137.612C325.321 137.648 325.653 137.71 325.975 137.791C327.183 138.086 333.028 140.584 329.904 141.622C327.335 142.472 323.773 142.204 321.079 142.356C316.209 142.625 311.411 142.437 306.542 142.481C301.708 142.526 294.261 143.251 290.564 139.483C286.097 134.926 271.82 97.788 272.859 93.9658C273.879 90.1437 279.08 103.57 282.311 112.19Z" fill="#D5D4E0"/>
<path d="M350.266 172.042C350.266 172.042 354.482 174.737 357.391 176.231C360.309 177.735 360.676 178.111 359.62 178.926C358.564 179.74 352.495 179.615 351.501 178.926C350.507 178.237 349.953 179.239 349.953 179.239C349.953 179.239 347.598 179.678 347.097 179.051C346.605 178.425 347.115 174.128 347.115 174.128C347.115 174.128 347.965 171.854 350.266 172.042Z" fill="#144287"/>
<path d="M359.692 115.652C362.189 122.912 350.302 154.867 353.149 173.817C353.149 173.817 350.624 172.152 347.312 173.817C347.312 173.817 338.093 148.136 340.268 134.647C342.443 121.157 320.235 121.658 318.776 121.157C317.317 120.656 307.148 113.898 307.148 113.898C307.148 113.898 357.186 108.393 359.692 115.652Z" fill="#13DCBE"/>
<path d="M296.606 71.6047C308.994 70.4052 317.802 80.7438 317.802 80.7438C320.425 83.3934 326.136 96.3726 329.717 100.947C333.297 105.521 348.075 108.358 348.075 108.358C347.377 109.522 346.867 111.527 346.867 111.527C346.867 111.527 328.526 111.044 326.378 110.569C324.229 110.086 317.328 105.762 314.705 103.113C312.083 100.463 310.418 100.947 310.418 100.947C305.181 104.312 308.037 115.376 308.037 115.376C294.699 122.591 286.599 115.376 286.599 115.376C286.599 115.376 287.547 114.418 287.789 109.119C288.031 103.82 283.26 90.3664 282.553 85.0672C281.837 79.7771 284.218 72.8041 296.606 71.6047Z" fill="#FB378F"/>
<path d="M303.249 57.3585C304.798 56.5529 306.83 56.5081 308.468 57.2242C309.595 57.7165 310.553 58.5669 311.046 59.7753C312.505 63.3379 310.177 68.0194 307.555 70.4004C307.116 70.7942 306.624 71.0986 306.104 71.2955L305.388 74.321C305.388 74.321 302.103 75.61 300.644 72.8441L301.137 69.6932C300.984 69.5053 300.832 69.2994 300.689 69.0756C298.227 65.2087 298.97 59.5873 303.249 57.3585Z" fill="#FFA39A"/>
<path d="M324.911 107.809C327.677 106.95 331.284 111.237 331.284 111.237C331.284 111.237 327.247 111.452 325.761 110.808C324.275 110.163 323.64 110.808 322.789 111.237C321.939 111.667 320.453 111.237 320.453 111.237C321.303 109.519 320.453 108.66 320.453 108.66C320.453 108.66 322.145 108.668 324.911 107.809Z" fill="#FFA39A"/>
<path d="M348.083 108.355C349.032 107.871 353.069 109.357 353.069 109.357L352.353 111.523H346.875C346.875 111.523 347.135 108.829 348.083 108.355Z" fill="#FFA39A"/>
<path d="M299.545 55.0076C299.849 54.4884 299.616 53.8439 299.849 53.2979C300.064 52.7788 300.574 52.3849 301.004 52.0627C303.009 50.5857 303.555 52.0627 305.202 52.0627C306.204 52.0627 307.162 51.2123 308.192 51.6867C309.221 52.1611 309.633 53.4233 310.662 53.9066C311.459 54.2736 313.142 54.0767 313.285 55.2672C313.294 55.312 313.294 55.3478 313.294 55.3836C313.365 56.216 313.106 56.7889 313.956 57.4065C315.236 58.3285 315.594 59.4295 315.415 61.2734C315.236 63.1174 313.41 62.9294 312.864 63.1174C312.318 63.3054 312.497 65.1404 311.772 65.6953C310.823 66.4114 310.107 67.3692 309.373 68.2912C309.588 67.6288 309.284 66.8948 309.337 66.2145C309.382 65.6416 309.713 64.8002 309.275 64.299C308.97 63.9499 308.406 63.735 308.039 63.4665C307.368 62.9742 306.777 62.5266 306.294 61.8284C305.014 59.9845 303.922 59.2505 303.555 59.9845C303.188 60.7185 302.275 62.1954 301.362 62.1954C300.449 62.1954 298.712 63.4754 299.402 65.6953C300.091 67.9063 300.404 68.6403 300.404 68.6403C300.404 68.6403 297.898 67.5393 297.719 64.7823C297.54 62.0164 298.086 61.6494 297.173 60.5484C296.26 59.4474 296.627 57.7825 297.173 56.6815C297.728 55.5536 298.999 55.9206 299.545 55.0076Z" fill="#14124F"/>
<path d="M297.203 83.264C300.417 89.3956 299.942 100.218 299.942 103.1C299.942 105.982 320.781 108.614 320.781 108.614C322.338 110.35 320.423 111.514 320.423 111.514C320.423 111.514 293.507 114.038 290.767 111.997C288.028 109.956 278.263 83.0223 283.857 77.9559C289.461 72.8985 293.981 77.1324 297.203 83.264Z" fill="#FB6CAC"/>
<path d="M307.146 113.902C307.146 113.902 343.353 109.148 349.798 113.902C356.243 118.655 369.509 144.756 391.081 172.04C391.081 172.04 388.897 172.523 387.903 174.438C387.903 174.438 357.478 157.709 352.188 144.354C346.898 130.998 335.986 134.507 328.217 136.843C320.447 139.18 299.206 144.935 290.935 133.585C282.673 122.235 286.594 115.361 286.594 115.361C286.594 115.361 295.491 118.986 307.146 113.902Z" fill="#46FFCE"/>
<path d="M362.501 81.4397C362.93 80.088 363.36 78.7364 363.799 77.3758C364.237 76.0153 366.385 76.5971 365.947 77.9666C362.868 87.625 359.788 97.2833 356.7 106.942C356.271 108.293 355.841 109.645 355.402 111.005C354.964 112.366 352.815 111.784 353.254 110.415C356.333 100.756 359.412 91.098 362.501 81.4397Z" fill="#144287"/>
<path d="M318.684 110.625C328.709 110.661 338.734 110.706 348.76 110.741C350.192 110.75 351.624 110.75 353.056 110.759C354.014 110.759 354.014 112.254 353.056 112.245C343.031 112.209 333.006 112.165 322.98 112.129C321.548 112.12 320.116 112.12 318.684 112.111C317.735 112.111 317.726 110.625 318.684 110.625Z" fill="#144287"/>
<path d="M391.078 172.042C391.078 172.042 395.294 174.737 398.203 176.231C401.122 177.735 401.489 178.111 400.432 178.926C399.376 179.74 393.307 179.615 392.314 178.926C391.32 178.237 390.765 179.239 390.765 179.239C390.765 179.239 388.411 179.678 387.91 179.051C387.417 178.425 387.927 174.128 387.927 174.128C387.927 174.128 388.787 171.854 391.078 172.042Z" fill="#144287"/>
<path d="M264.444 149.818C265.482 146.98 275.14 147.079 276.394 147.106C280.619 147.195 284.843 147.33 289.068 147.213C293.293 147.097 297.474 146.64 301.699 147.007C304.053 147.213 306.541 147.294 306.649 149.818C306.649 149.818 306.81 153.524 306.944 158.205C307.177 165.993 307.347 176.484 306.649 177.173C305.539 178.283 302.433 180.064 298.655 178.73C294.878 177.397 285.551 176.51 285.551 176.51C285.551 176.51 276.223 177.397 272.446 178.73C268.669 180.064 265.563 178.283 264.453 177.173C263.763 176.484 263.933 165.984 264.157 158.205C264.292 153.524 264.444 149.818 264.444 149.818Z" fill="#FBB03B"/>
<path d="M288.491 141.939C290.764 142.852 292.787 144.481 294.273 146.414C295.151 147.551 293.208 148.661 292.349 147.542C292.698 147.99 292.268 147.462 292.161 147.336C291.901 147.032 291.615 146.746 291.328 146.468C290.424 145.6 289.413 144.839 288.285 144.275C284.508 142.404 281.088 144.445 278.725 147.542C277.866 148.67 275.923 147.56 276.801 146.414C279.647 142.691 283.774 140.05 288.491 141.939Z" fill="#FBCB81"/>
<path d="M276.393 147.106C280.618 147.195 284.842 147.33 289.067 147.213C293.292 147.097 297.473 146.64 301.698 147.007C304.052 147.213 306.54 147.294 306.648 149.818C306.648 149.818 306.809 153.524 306.943 158.205C302.342 163.657 294.474 167.255 285.55 167.255C276.625 167.255 268.757 163.666 264.156 158.205C264.291 153.515 264.452 149.818 264.452 149.818C265.293 146.873 275.139 147.079 276.393 147.106Z" fill="#FBCB81"/>
<path d="M271.034 159.429C279.833 164.101 290.78 163.332 299.714 159.429C300.582 159.053 301.343 160.333 300.465 160.718C291.022 164.844 279.6 165.659 270.282 160.718C269.441 160.27 270.193 158.981 271.034 159.429Z" fill="#FBB03B"/>
<path d="M296.181 176.689C295.769 174.88 295.34 173.028 294.874 171.148C289.951 151.473 283.811 143.686 279.299 141.636C274.788 139.586 279.299 164.998 279.299 164.998C279.299 164.998 273.15 149.835 264.136 139.998C255.122 130.16 245.688 130.16 248.973 136.31C252.249 142.459 257.986 182.632 258.398 185.908C258.81 189.184 279.299 210.506 279.299 210.506C299.797 257.643 357.184 253.141 357.184 253.141C357.184 253.141 321.934 225.678 311.273 216.253C301.624 207.713 300.03 193.821 296.181 176.689Z" fill="#FFA398"/>
</svg>
