<svg width="690" height="350" viewBox="0 0 690 350" fill="none" xmlns="http://www.w3.org/2000/svg">
<g clip-path="url(#clip0_3112_8002)">
<path d="M632.805 352C634.545 313.502 624.294 294.761 615.524 282.51C595.17 254.113 554.316 239.022 530.41 263.971C534.111 207.178 522.565 147.707 490.518 102.963C458.471 58.2178 403.554 31.3628 353.041 44.2224C302.529 57.0819 262.747 115.173 272.517 171.033C260.178 165.88 246.875 164.116 233.771 165.896C220.666 167.676 208.159 172.946 197.34 181.244C186.521 189.543 177.72 200.619 171.705 213.505C165.689 226.39 162.643 240.694 162.832 255.168C150.539 251.324 137.55 251.016 125.117 254.274C112.684 257.532 101.227 264.246 91.8485 273.768C82.4703 283.29 75.4878 295.301 71.5739 308.641C67.6601 321.981 66.9469 336.201 69.5031 349.931L632.842 351.959" fill="#E6E6FF"/>
<path d="M325.601 58H232.883V58.641H325.601V58Z" fill="white"/>
<path d="M325.612 64.3047H218.125V64.9457H325.612V64.3047Z" fill="white"/>
<path d="M325.612 70.6172H218.125V71.2582H325.612V70.6172Z" fill="white"/>
<path d="M325.612 76.9219H218.125V77.5629H325.612V76.9219Z" fill="white"/>
<path d="M325.612 83.2266H218.125V83.8676H325.612V83.2266Z" fill="white"/>
<path d="M280.229 122.4H322.947C324.421 122.4 325.614 121.207 325.614 119.733V94.1432C325.614 92.6689 324.421 91.4766 322.947 91.4766H280.229C278.755 91.4766 277.563 92.6689 277.563 94.1432V119.733C277.562 121.207 278.755 122.4 280.229 122.4Z" fill="white"/>
<path d="M162.564 146.427H185.308C186.167 146.427 186.872 145.734 186.872 144.863V128.298C186.872 127.44 186.18 126.734 185.308 126.734H162.564C161.705 126.734 161 127.427 161 128.298V144.863C161 145.722 161.692 146.427 162.564 146.427Z" fill="white"/>
<path d="M197.244 146.427H219.987C220.846 146.427 221.551 145.734 221.551 144.863V128.298C221.551 127.44 220.859 126.734 219.987 126.734H197.244C196.385 126.734 195.68 127.427 195.68 128.298V144.863C195.68 145.722 196.385 146.427 197.244 146.427Z" fill="white"/>
<path d="M231.923 146.427H254.667C255.526 146.427 256.231 145.734 256.231 144.863V128.298C256.231 127.44 255.539 126.734 254.667 126.734H231.923C231.065 126.734 230.359 127.427 230.359 128.298V144.863C230.372 145.722 231.065 146.427 231.923 146.427Z" fill="white"/>
<path d="M266.619 146.427H289.362C290.221 146.427 290.927 145.734 290.927 144.863V128.298C290.927 127.44 290.234 126.734 289.362 126.734H266.619C265.76 126.734 265.055 127.427 265.055 128.298V144.863C265.055 145.722 265.76 146.427 266.619 146.427Z" fill="white"/>
<path d="M301.298 146.427H324.042C324.901 146.427 325.606 145.734 325.606 144.863V128.298C325.606 127.44 324.914 126.734 324.042 126.734H301.298C300.44 126.734 299.734 127.427 299.734 128.298V144.863C299.747 145.722 300.44 146.427 301.298 146.427Z" fill="white"/>
<path d="M254.882 93.8203H162.164V94.4613H254.882V93.8203Z" fill="white"/>
<path d="M269.651 100.125H162.164V100.766H269.651V100.125Z" fill="white"/>
<path d="M269.651 106.438H162.164V107.079H269.651V106.438Z" fill="white"/>
<path d="M269.651 112.742H162.164V113.383H269.651V112.742Z" fill="white"/>
<path d="M269.651 119.047H162.164V119.688H269.651V119.047Z" fill="white"/>
<path d="M186.872 149.883H161V150.524H186.872V149.883Z" fill="white"/>
<path d="M186.872 153.219H161V153.86H186.872V153.219Z" fill="white"/>
<path d="M186.872 156.562H161V157.204H186.872V156.562Z" fill="white"/>
<path d="M221.551 149.883H195.68V150.524H221.551V149.883Z" fill="white"/>
<path d="M221.551 153.219H195.68V153.86H221.551V153.219Z" fill="white"/>
<path d="M221.551 156.562H195.68V157.204H221.551V156.562Z" fill="white"/>
<path d="M256.247 149.883H230.375V150.524H256.247V149.883Z" fill="white"/>
<path d="M256.247 153.219H230.375V153.86H256.247V153.219Z" fill="white"/>
<path d="M256.247 156.562H230.375V157.204H256.247V156.562Z" fill="white"/>
<path d="M290.927 149.883H265.055V150.524H290.927V149.883Z" fill="white"/>
<path d="M290.927 153.219H265.055V153.86H290.927V153.219Z" fill="white"/>
<path d="M290.927 156.562H265.055V157.204H290.927V156.562Z" fill="white"/>
<path d="M325.614 149.883H299.742V150.524H325.614V149.883Z" fill="white"/>
<path d="M325.614 153.219H299.742V153.86H325.614V153.219Z" fill="white"/>
<path d="M325.614 156.562H299.742V157.204H325.614V156.562Z" fill="white"/>
<g style="mix-blend-mode:multiply" opacity="0.25">
<g style="mix-blend-mode:multiply" opacity="0.25">
<path d="M407.409 64.7031H297.341C288.178 64.7031 280.75 71.6082 280.75 80.1261V314.625C280.75 323.143 288.178 330.048 297.341 330.048H407.409C416.572 330.048 424 323.143 424 314.625V80.1261C424 71.6082 416.572 64.7031 407.409 64.7031Z" fill="black"/>
</g>
<g style="mix-blend-mode:multiply" opacity="0.25">
<path d="M405.031 69.1953H298.357C290.656 69.1953 284.414 74.9981 284.414 82.1562V301.343C284.414 308.501 290.656 314.303 298.357 314.303H405.031C412.732 314.303 418.974 308.501 418.974 301.343V82.1562C418.974 74.9981 412.732 69.1953 405.031 69.1953Z" fill="black"/>
</g>
<g style="mix-blend-mode:multiply" opacity="0.25">
<path d="M315.913 66.9982H386.801V71.6735C386.801 72.1567 386.699 72.6352 386.5 73.0816C386.301 73.528 386.009 73.9336 385.642 74.2752C385.274 74.6169 384.838 74.8879 384.358 75.0728C383.877 75.2577 383.363 75.3529 382.843 75.3529H319.841C318.791 75.3529 317.784 74.9653 317.042 74.2752C316.3 73.5852 315.883 72.6494 315.883 71.6735V66.9844L315.913 66.9982Z" fill="black"/>
</g>
</g>
<path d="M396.554 55H287.446C278.363 55 271 61.8962 271 70.403V304.597C271 313.104 278.363 320 287.446 320H396.554C405.637 320 413 313.104 413 304.597V70.403C413 61.8962 405.637 55 396.554 55Z" fill="#101626"/>
<path d="M287.973 60H395.012C398.722 60 402.28 61.3649 404.903 63.7945C407.526 66.224 409 69.5192 409 72.9551V292.045C409 295.481 407.526 298.776 404.903 301.206C402.28 303.635 398.722 305 395.012 305H287.973C284.267 305 280.713 303.637 278.093 301.21C275.472 298.783 274 295.491 274 292.059V72.9413C274.004 69.5102 275.477 66.2207 278.097 63.7945C280.717 61.3683 284.269 60.0037 287.973 60Z" fill="#8786EB"/>
<path d="M306.03 57.0149H377V62.043C377 63.0924 376.582 64.0989 375.839 64.841C375.096 65.5831 374.088 66 373.037 66H309.963C309.442 66 308.927 65.8976 308.446 65.6988C307.965 65.4999 307.529 65.2085 307.161 64.841C306.793 64.4736 306.501 64.0374 306.302 63.5573C306.103 63.0772 306 62.5626 306 62.043V57L306.03 57.0149Z" fill="white"/>
<path d="M162 63.3607C163.231 62.7707 164.53 62.311 165.873 61.9905C168.421 61.2094 172.16 60.1406 176.898 58.8114C186.343 56.1531 199.765 52.4945 215.527 48.274L216.585 48L216.868 48.9729C219.549 58.2359 222.484 68.4033 225.553 79.1189C225.553 79.297 225.657 79.4751 225.702 79.6396L226 80.681L224.868 80.955C204.25 85.9291 185.315 90.4236 170.685 93.7944L169.806 94L169.598 93.2052C167.095 84.0929 165.128 76.6661 163.803 71.5002C162.984 68.841 162.381 66.1295 162 63.3882C163.146 65.9454 164.077 68.5794 164.786 71.2672C166.395 76.3646 168.644 83.723 171.341 92.7805L170.238 92.1912C184.764 88.5189 203.654 83.86 224.287 78.8859L223.453 80.1877C223.453 80.0095 223.348 79.8451 223.304 79.667C220.324 68.9925 217.345 58.8114 214.782 49.521L216.123 50.2199C200.302 54.3307 186.804 57.6878 177.255 60.0036C172.473 61.1683 168.674 62.0727 166.067 62.6482C164.745 63.0274 163.381 63.2665 162 63.3607Z" fill="#8786EB"/>
<path d="M162 63.3094C162.135 63.0454 165.92 64.2823 171.934 66.52C177.948 68.7576 186.222 71.9681 195.303 75.6512L193.807 76.0264C193.872 75.9306 193.942 75.8378 194.016 75.7485C199.821 68.1878 205.177 61.4192 209.157 56.5687C213.137 51.7182 215.725 48.8273 215.979 49.008C216.234 49.1887 214.139 52.3992 210.504 57.4721C206.868 62.545 201.721 69.4525 195.917 77.0132L195.707 77.2773L195.154 78L194.286 77.6386C185.204 73.9556 177.051 70.5088 171.201 67.9098C165.351 65.3108 162 63.5874 162 63.3094Z" fill="#8786EB"/>
<path d="M171.092 92.9904C170.542 92.7258 172.503 87.5858 175.507 81.5264C178.512 75.467 181.375 70.7588 181.911 71.0096C182.447 71.2603 180.501 76.4142 177.496 82.4736C174.492 88.533 171.643 93.2412 171.092 92.9904Z" fill="#8786EB"/>
<path d="M223.974 79.939C223.618 80.4452 218.404 77.7455 212.343 73.9069C206.283 70.0683 201.663 66.5672 202.019 66.061C202.376 65.5548 207.575 68.2545 213.636 72.079C219.696 75.9036 224.39 79.4328 223.974 79.939Z" fill="#8786EB"/>
<path d="M373.987 13.0166C374.413 13.4639 363.947 22.3012 350.609 32.7651L343.5 38.2816L342.573 39L341.844 38.1325C333.991 28.6446 328.598 21.6235 329.023 21.3389C329.449 21.0542 335.571 27.6009 343.652 36.9127L342.011 36.7636L349.045 31.1792C362.382 20.7154 373.547 12.5828 373.987 13.0166Z" fill="#8786EB"/>
<path d="M411.032 34.9888C410.822 35.1542 408.824 33.4727 406.076 30.4266C404.31 28.6514 402.883 26.615 401.856 24.4034C401.646 23.7142 401.346 22.9561 401.21 22.267L401.075 21.2471L401 20.7233V20.0755C400.992 18.4633 401.35 16.8673 402.051 15.3892C402.414 14.6059 402.894 13.873 403.478 13.2115C403.748 12.8807 404.019 12.6601 404.289 12.3845C404.559 12.1088 404.995 11.8332 405.355 11.5575C406.738 10.6555 408.364 10.117 410.056 10H411.257L412.504 10.193C412.849 10.2757 413.149 10.3859 413.45 10.4824C413.815 10.604 414.166 10.7563 414.501 10.9373C415.656 11.5554 416.609 12.4451 417.264 13.5147C417.414 13.7628 417.534 14.066 417.655 14.3141C417.775 14.5622 417.775 14.769 417.85 15.0033C417.946 15.4575 417.996 15.9189 418 16.3816C418 17.1072 417.899 17.8297 417.7 18.5318C417.294 19.5793 416.949 20.1168 416.799 20.0893C416.273 20.0893 417.685 17.3326 415.837 14.3003C415.258 13.5371 414.478 12.9207 413.57 12.5085C413.34 12.4057 413.104 12.3137 412.864 12.2329L411.918 11.9986C411.658 12.0128 411.397 12.0128 411.137 11.9986H410.236C408.957 12.1327 407.739 12.575 406.707 13.2804L406.001 13.8317C405.746 14.0936 405.43 14.383 405.235 14.6311C404.822 15.1417 404.469 15.6916 404.184 16.2713C403.612 17.4813 403.311 18.7843 403.298 20.103V20.4063C403.298 20.4063 403.298 20.5028 403.298 20.3236V20.489V21.0127C403.298 21.3573 403.373 21.7019 403.403 22.0465C403.523 22.6805 403.733 23.1905 403.868 23.7556C404.74 25.8218 405.923 27.7657 407.383 29.5307C409.8 32.7973 411.317 34.7683 411.032 34.9888Z" fill="#8786EB"/>
<path d="M411.002 34.8974C410.928 34.5681 413.388 33.8547 417.355 32.6335C419.636 32.0646 421.819 31.1962 423.84 30.0541C424.309 29.6837 424.807 29.3955 425.304 28.9702C425.553 28.7232 425.802 28.4625 426.066 28.2156L426.446 27.8314L426.534 27.7354C426.534 27.7354 426.607 27.7354 426.534 27.7354L426.68 27.5433C427.52 26.4889 428.131 25.2911 428.481 24.0171C428.636 23.4004 428.724 22.7707 428.745 22.1374C428.745 21.8356 428.745 21.4377 428.671 21.0947L428.496 20.244C428.144 19.1151 427.489 18.0899 426.593 17.2667L425.919 16.7316C425.7 16.6081 425.48 16.4846 425.275 16.3474C425.07 16.2102 424.675 16.1279 424.397 16.0044C424.118 15.8809 423.899 15.8809 423.665 15.8261C422.69 15.6493 421.685 15.7011 420.737 15.977C417.297 17.349 416.843 20.3675 416.418 20.0931C416.286 20.0931 416.301 19.4208 416.623 18.3369C416.877 17.6483 417.242 17.0004 417.706 16.416C418.015 16.0455 418.358 15.7011 418.731 15.387C418.922 15.2498 419.083 15.1126 419.317 14.9617C419.582 14.811 419.856 14.6736 420.137 14.5501C421.336 14.0707 422.65 13.9002 423.943 14.0561C424.319 14.1046 424.691 14.1779 425.055 14.2757C425.363 14.3717 425.656 14.454 425.978 14.5775C426.3 14.701 426.695 14.9342 427.061 15.1263L427.998 15.7849C429.232 16.8205 430.139 18.1543 430.618 19.6403C430.721 20.0657 430.823 20.3812 430.911 20.8889C430.999 21.3965 430.999 21.5886 430.999 22.0002C431.011 22.846 430.908 23.6898 430.692 24.5111C430.267 26.0713 429.505 27.5331 428.452 28.8056L428.261 29.0251L428.159 29.1074L428.057 29.2034L427.676 29.5739L426.9 30.3011C426.329 30.7813 425.612 31.2066 424.997 31.6731C422.771 32.8494 420.344 33.6527 417.824 34.0467C413.71 34.9386 411.06 35.1581 411.002 34.8974Z" fill="#8786EB"/>
<path d="M150.914 75C151.278 72.373 150.478 69.7227 148.687 67.6237C146.054 64.6135 140.773 63.0135 137.703 65.6576C138.363 59.5852 136.526 53.5059 132.542 48.5728C128.404 43.827 121.332 40.9659 114.802 42.349C108.272 43.7321 103.126 49.8745 104.42 55.7999C102.825 55.2472 101.103 55.0556 99.4071 55.2422C97.7107 55.4287 96.0911 55.9876 94.6902 56.8697C93.2894 57.7519 92.1503 58.9304 91.3727 60.3018C90.5952 61.6733 90.2031 63.1957 90.2308 64.7355C88.6453 64.3284 86.9702 64.296 85.3669 64.6416C83.7635 64.9872 82.2859 65.699 81.0764 66.7085C79.8669 67.7181 78.9663 68.9913 78.4614 70.4055C77.9565 71.8198 77.8641 73.3273 78.1934 74.783L150.929 75" fill="#E6E6FF"/>
<path d="M189.398 142.617H180.328V164.731H189.398V142.617Z" fill="#FFBCB1"/>
<path d="M189.396 145.219V158.422C183.598 157.734 181.75 152.885 181.75 152.885L183.445 148.167L189.396 145.219Z" fill="#F08B7A"/>
<path d="M190.86 154.949C184.622 156.309 178.383 152.492 176.976 146.48L173.738 132.589C172.331 126.561 176.281 120.533 182.502 119.173C188.741 117.814 194.98 121.631 196.387 127.642L199.625 141.533C201.049 147.545 197.099 153.59 190.86 154.949Z" fill="#FFBCB1"/>
<path d="M173.26 135.065C173.311 135.049 173.378 135.032 173.429 135.032C175.192 134.983 176.599 136.474 177.311 137.883L178.769 142.093C178.413 142.387 178.007 142.6 177.583 142.748C175.057 143.567 173.158 141.781 172.31 139.357C171.564 137.178 172.463 135.344 173.26 135.065Z" fill="#FFBCB1"/>
<path d="M197.894 126.359C196.667 120.468 190.761 114.759 182.805 116.236C178.967 116.949 175.462 119.223 174.709 122.907C174.621 122.907 174.534 122.924 174.463 122.94C172.921 123.222 170.275 125.662 171.186 130.026C171.624 132.117 172.658 134.241 173.622 136C176.339 134.772 177.618 131.768 177.6 128.931C177.6 128.931 180.246 134.855 194.932 131.702C195.861 131.503 196.79 131.271 197.701 130.905C198.069 129.395 198.051 127.155 197.894 126.359Z" fill="#243045"/>
<path d="M178.477 229.005C179.765 234.214 189.835 317.166 192.446 356.628C197.277 360.002 202.075 358.79 207.907 358.216C211.976 328.78 209.941 268.646 202.974 228.398L178.477 229.005Z" fill="#243045"/>
<path d="M228.541 123C227.324 124.813 226.494 126.339 225 128.597L230.902 132C232.285 130.108 233.262 127.913 234 125.719C232.395 124.717 230.422 123.572 228.541 123Z" fill="#FFBCB1"/>
<path d="M224.324 127C218.387 137.725 201.07 157.361 186.916 157.361C186.185 157.361 182.714 157.312 182 157.23L191.85 174C198.586 170.277 216.686 164.297 233 130.674C230.329 128.812 227.471 127.544 224.324 127Z" fill="#143963"/>
<path d="M255.824 175.401C255.709 175.401 255.581 175.491 255.427 175.696C255.427 175.619 255.44 175.542 255.44 175.478C255.44 174.926 255.298 174.388 254.978 174.388C254.875 174.388 254.747 174.452 254.606 174.58C254.606 174.529 254.606 174.491 254.606 174.439C254.606 173.952 254.401 173.709 254.093 173.709C253.837 173.709 253.529 173.875 253.209 174.183C253.273 173.888 253.311 173.644 253.311 173.478C253.311 173.183 253.222 173.055 253.081 173.055C252.657 173.055 251.798 174.106 251.427 174.952C251.234 174.568 251.068 174.401 250.901 174.401C250.145 174.401 249.734 178.029 249.734 178.516C249.734 178.529 249.734 178.542 249.734 178.555L253.106 180.709C254.581 179.798 256.26 178.247 256.26 176.503C256.234 175.939 256.093 175.401 255.824 175.401Z" fill="#FFBCB1"/>
<path d="M106.267 151.972C107.861 151.972 109.152 150.681 109.152 149.088C109.152 147.495 107.861 146.203 106.267 146.203C104.674 146.203 103.383 147.495 103.383 149.088C103.383 150.681 104.674 151.972 106.267 151.972Z" fill="#FF6766"/>
<path d="M115.017 151.972C116.611 151.972 117.902 150.681 117.902 149.088C117.902 147.495 116.611 146.203 115.017 146.203C113.424 146.203 112.133 147.495 112.133 149.088C112.133 150.681 113.424 151.972 115.017 151.972Z" fill="#40D0FF"/>
<path d="M98.0018 151.972C99.5949 151.972 100.886 150.681 100.886 149.088C100.886 147.495 99.5949 146.203 98.0018 146.203C96.4087 146.203 95.1172 147.495 95.1172 149.088C95.1172 150.681 96.4087 151.972 98.0018 151.972Z" fill="#61CFBA"/>
<path d="M166.353 229.005C166.675 234.214 165.217 317.166 160.453 356.628C164.657 360.002 169.693 358.79 175.609 358.216C185.171 328.78 190.392 268.646 190.952 228.398L166.353 229.005Z" fill="#2F3E59"/>
<path d="M204.994 223.545C205.114 226.634 203.324 229.315 200.87 229.707C195.57 230.59 190.134 231.031 184.493 230.998C178.886 231.031 173.433 230.606 168.133 229.707C165.662 229.315 163.856 226.618 164.009 223.545C165.781 181.848 166.378 173.741 167.043 166.5C167.741 158.899 171.15 159.013 175.478 158.703C175.717 158.687 176.296 158.621 177.046 158.572C177.097 158.572 177.165 158.556 177.199 158.556C179.313 158.343 182.704 158.016 184.493 158C186.317 158.016 189.691 158.343 191.804 158.556C191.855 158.556 191.923 158.572 191.957 158.572C192.707 158.637 193.27 158.687 193.525 158.703C197.837 159.013 201.262 158.899 201.944 166.5C202.609 173.741 203.222 181.848 204.994 223.545Z" fill="#7676DD"/>
<path d="M257.922 178.953C257.076 180.415 256.499 181.645 255.461 183.466L259.564 186.21C260.525 184.684 261.205 182.915 261.717 181.145C260.589 180.338 259.23 179.415 257.922 178.953Z" fill="#FFBCB1"/>
<path d="M234.494 128C228.674 138.725 211.696 158.361 197.82 158.361C197.103 158.361 193.7 158.312 193 158.23L202.656 175C209.261 171.277 227.006 165.297 243 131.674C240.398 129.812 237.596 128.544 234.494 128Z" fill="#7676DD"/>
<path d="M381.299 178.735L338.851 183.543C337.389 183.71 336.069 182.658 335.902 181.197L333.017 155.774C332.851 154.312 333.902 152.992 335.364 152.825L377.812 148.017C379.274 147.851 380.594 148.902 380.761 150.364L383.646 175.787C383.812 177.248 382.761 178.569 381.299 178.735Z" fill="white"/>
<path d="M338.558 180.991C338.519 180.991 338.468 180.965 338.455 180.901L335.57 155.478C335.57 155.426 335.609 155.375 335.66 155.362L378.109 150.555C378.16 150.555 378.211 150.58 378.211 150.644L381.096 176.068C381.096 176.119 381.057 176.17 381.006 176.183L338.558 180.991Z" fill="white"/>
<path d="M338.453 180.902L350.043 165.133L368.197 177.646L338.453 180.902Z" fill="#BAEEFF"/>
<path d="M355.453 179.041L366.492 159.836L381.094 176.08L355.453 179.041Z" fill="#BAEEFF"/>
<path d="M355.315 163.52C356.986 163.52 358.34 162.165 358.34 160.494C358.34 158.823 356.986 157.469 355.315 157.469C353.644 157.469 352.289 158.823 352.289 160.494C352.289 162.165 353.644 163.52 355.315 163.52Z" fill="#BAEEFF"/>
<path d="M193 157H177V161H193V157Z" fill="#7676DD"/>
<path d="M263.785 176.245C263.67 176.245 263.541 176.334 263.388 176.539C263.388 176.463 263.4 176.386 263.4 176.322C263.4 175.77 263.259 175.232 262.939 175.232C262.836 175.232 262.708 175.296 262.567 175.424C262.567 175.373 262.567 175.334 262.567 175.283C262.567 174.796 262.362 174.552 262.054 174.552C261.798 174.552 261.49 174.719 261.17 175.027C261.234 174.732 261.272 174.488 261.272 174.322C261.272 174.027 261.183 173.898 261.041 173.898C260.618 173.898 259.759 174.95 259.388 175.796C259.195 175.411 259.029 175.245 258.862 175.245C258.106 175.245 257.695 178.873 257.695 179.36C257.695 179.373 257.695 179.386 257.695 179.398L261.067 181.552C262.541 180.642 264.221 179.091 264.221 177.347C264.195 176.783 264.067 176.245 263.785 176.245Z" fill="#FFBCB1"/>
<path d="M255.754 132H227.246C223.819 132 221 130.228 221 128.039V109.961C221 107.788 223.795 106 227.246 106H255.754C259.181 106 262 107.772 262 109.961V128.039C262 130.228 259.181 132 255.754 132Z" fill="#FF6766"/>
<path d="M234.562 123.11V114.91C234.562 113.955 236.215 113.385 237.479 113.893L247.565 117.993C248.731 118.471 248.731 119.549 247.565 120.012L237.479 124.111C236.215 124.635 234.562 124.065 234.562 123.11Z" fill="white"/>
<path d="M417.626 169.87L414.009 179.38L390.906 164.849L384.983 156.191C384.765 155.871 384.369 155.811 384.069 156.024C383.782 156.252 383.7 156.678 383.877 157.013L385.474 160.041L378.542 157.697C378.16 157.56 377.75 157.85 377.696 158.291L377.013 163.16C376.931 163.753 377.232 164.332 377.736 164.56L382.294 166.538C382.294 166.538 384.846 169.338 388.34 168.288L409.397 194.52C415.006 201.52 425.131 200.242 429.212 192.025L440.211 169.87H417.626Z" fill="#FF6E6E"/>
<path d="M416.85 171.921L417.628 169.867H440.227L438.289 173.763C436.255 177.871 431.725 179.529 427.904 177.567L416.85 171.921Z" fill="#CF4848"/>
<path d="M384.547 161.534L377.546 159.297" stroke="#CF4848" stroke-width="0.2833" stroke-miterlimit="10"/>
<path d="M384.328 163.127L377.327 160.891" stroke="#CF4848" stroke-width="0.2833" stroke-miterlimit="10"/>
<path d="M384.109 164.729L377.109 162.492" stroke="#CF4848" stroke-width="0.2833" stroke-miterlimit="10"/>
<path d="M414.015 179.398L422.953 184.663" stroke="#CF4848" stroke-width="0.2833" stroke-miterlimit="10"/>
<path d="M435.285 137.75L432.815 139.119C428.98 141.25 426.005 144.932 424.504 149.405L417.64 169.871H433.811L435.721 183.672L433.62 196.119C433.306 197.975 434.589 199.695 436.281 199.695H477.794L475.174 170.845H485.805L476.825 149.938C474.178 143.776 469.224 139.241 463.288 137.537L455.918 135.422L435.285 137.75Z" fill="#7676DD"/>
<path d="M433.805 169.872L432.031 158.277C431.717 156.269 429.274 155.889 428.482 157.73L423.297 169.872H433.805Z" fill="#143963"/>
<path d="M466.672 170.846L459.617 153.773" stroke="#143963" stroke-width="0.2833" stroke-miterlimit="10"/>
<path d="M435.64 196.773L417.545 315.018H437.864L453.736 222.276L470.889 315.018H491.359L475.652 196.773H435.64Z" fill="#D69411"/>
<path d="M453.734 222.276L448.658 196.773" stroke="#1659AB" stroke-width="0.2833" stroke-miterlimit="10"/>
<path d="M435.635 196.773H475.647L482.43 247.808L456.706 238.329L453.731 222.276L451.329 236.335L430.75 228.758L435.635 196.773Z" fill="#BA810E"/>
<path d="M438.734 196.773L420.557 312.446" stroke="#BA810E" stroke-width="0.2833" stroke-miterlimit="10"/>
<path d="M472.631 196.773L487.711 310.59" stroke="#BA810E" stroke-width="0.2833" stroke-miterlimit="10"/>
<path d="M406.374 328.955L416.841 323.843C418.465 323.051 419.707 321.378 420.035 319.552L421.318 312.461H435.688L431.662 334.844H424.443L424.525 334.418C424.77 333.079 423.992 331.998 422.791 331.998C421.59 331.998 420.417 333.079 420.185 334.418L420.103 334.844H402.935L403.236 333.2C403.536 331.39 404.764 329.746 406.374 328.955Z" fill="#071D38"/>
<path d="M405.633 330.586H431.234" stroke="#1659AB" stroke-width="0.2833" stroke-miterlimit="10"/>
<path d="M433.82 322.773C433.82 322.773 428.212 324.249 426.56 330.564" stroke="#1659AB" stroke-width="0.2833" stroke-miterlimit="10"/>
<path d="M463.957 328.955L472.582 323.843C473.919 323.051 474.56 321.378 474.233 319.552L472.95 312.461H487.32L491.359 334.844H484.14L484.058 334.418C483.813 333.079 482.653 331.998 481.452 331.998C480.251 331.998 479.473 333.079 479.719 334.418L479.801 334.844H462.633L462.333 333.2C462.005 331.39 462.633 329.746 463.957 328.955Z" fill="#071D38"/>
<path d="M463.805 330.586H489.406" stroke="#1659AB" stroke-width="0.2833" stroke-miterlimit="10"/>
<path d="M489.18 322.773C489.18 322.773 484.103 324.249 484.731 330.564" stroke="#1659AB" stroke-width="0.2833" stroke-miterlimit="10"/>
<path d="M443.13 228.044H502.124C504.267 228.044 506 226.112 506 223.723V184.009C506 181.62 504.267 179.688 502.124 179.688H443.13C440.987 179.688 439.254 181.62 439.254 184.009V223.723C439.254 226.112 440.987 228.044 443.13 228.044Z" fill="white"/>
<path d="M496.953 179.688L470.697 228.044H465.579L477.152 179.688H496.953Z" fill="#A1D0E6"/>
<path d="M443.13 179.688H502.124C504.267 179.688 506 181.62 506 184.009V188.178H439.254V184.009C439.254 181.62 440.987 179.688 443.13 179.688Z" fill="#1D75E0"/>
<path d="M475.118 188.178L477.152 179.688H496.953L492.341 188.178H475.118Z" fill="#1659AB"/>
<path d="M459.415 183.928C459.415 184.765 460.016 185.435 460.766 185.435C461.517 185.435 462.117 184.765 462.117 183.928C462.117 183.091 461.517 182.422 460.766 182.422C460.016 182.422 459.415 183.091 459.415 183.928Z" stroke="white" stroke-width="0.2833" stroke-miterlimit="10"/>
<path d="M452.267 183.928C452.267 184.765 452.867 185.435 453.618 185.435C454.368 185.435 454.969 184.765 454.969 183.928C454.969 183.091 454.368 182.422 453.618 182.422C452.867 182.422 452.267 183.091 452.267 183.928Z" stroke="white" stroke-width="0.2833" stroke-miterlimit="10"/>
<path d="M445.126 183.928C445.126 184.765 445.727 185.435 446.477 185.435C447.228 185.435 447.828 184.765 447.828 183.928C447.828 183.091 447.228 182.422 446.477 182.422C445.727 182.422 445.126 183.091 445.126 183.928Z" stroke="white" stroke-width="0.2833" stroke-miterlimit="10"/>
<path d="M446.244 196.56H499.016C499.602 196.56 500.094 196.028 500.094 195.358C500.094 194.704 499.616 194.156 499.016 194.156H446.23C445.644 194.156 445.152 194.689 445.152 195.358C445.166 196.028 445.644 196.56 446.244 196.56Z" stroke="#1D5391" stroke-width="0.2833" stroke-miterlimit="10"/>
<path d="M446.244 204.951H499.016C499.602 204.951 500.094 204.418 500.094 203.749C500.094 203.095 499.616 202.547 499.016 202.547H446.23C445.644 202.547 445.152 203.079 445.152 203.749C445.166 204.418 445.644 204.951 446.244 204.951Z" stroke="#1D5391" stroke-width="0.2833" stroke-miterlimit="10"/>
<path d="M446.244 213.326H499.016C499.602 213.326 500.094 212.793 500.094 212.124C500.094 211.47 499.616 210.922 499.016 210.922H446.23C445.644 210.922 445.152 211.454 445.152 212.124C445.166 212.793 445.644 213.326 446.244 213.326Z" stroke="#1D5391" stroke-width="0.2833" stroke-miterlimit="10"/>
<path d="M446.244 221.709H499.016C499.602 221.709 500.094 221.176 500.094 220.507C500.094 219.852 499.616 219.305 499.016 219.305H446.23C445.644 219.305 445.152 219.837 445.152 220.507C445.166 221.176 445.644 221.709 446.244 221.709Z" stroke="#1D5391" stroke-width="0.2833" stroke-miterlimit="10"/>
<path d="M484.259 170.844H466.682L472.632 185.695L465.017 222.974L461.305 225.88C460.882 226.215 460.828 226.885 461.196 227.296C461.483 227.615 461.933 227.661 462.261 227.402L464.39 225.743L463.284 229.35H467.515C468.32 229.35 469.043 228.817 469.343 227.995L470.954 223.689L486.484 192.846C488.749 188.342 488.995 182.91 487.139 178.178L484.259 170.844Z" fill="#FF6E6E"/>
<path d="M487.984 181.053C483.358 179.456 475.361 176.702 470.121 174.876C468.756 174.404 467.651 173.308 467.078 171.848L466.668 170.828H484.259L487.138 178.162C487.507 179.121 487.78 180.08 487.984 181.053Z" fill="#CF4848"/>
<path d="M446.705 120.805L449.68 131.395C450.116 132.947 451.249 134.134 452.654 134.514L455.93 135.412C455.93 135.412 454.292 141.712 445.381 141.712C436.483 141.712 435.282 137.74 435.282 137.74L441.096 134.804L439.485 127.667L446.705 120.805Z" fill="#FF6E6E"/>
<path d="M446.543 125.078C446.543 125.078 447.389 132.534 440.811 133.554L439.487 127.68L446.543 125.078Z" fill="#CF4848"/>
<path d="M435.923 118.866C432.934 118.942 430.041 116.949 429.686 114.515C429.331 112.08 430.669 108.854 435.281 110.406C439.894 111.958 440.412 111.38 444.302 111.03C448.191 110.68 447.768 116.295 447.522 119.521L444.029 121.027L435.923 118.866Z" fill="#071D38"/>
<path d="M442.585 116.695C443.213 118.445 444.755 119.282 445.328 119.465C445.656 119.054 446.147 118.795 446.679 118.795C447.689 118.795 448.508 119.708 448.508 120.834C448.508 121.96 447.689 122.873 446.679 122.873C446.556 122.873 446.434 122.858 446.324 122.827L446.42 123.193C447.075 125.901 445.656 128.686 443.227 129.416C440.797 130.146 438.3 128.564 437.645 125.855L435.939 118.856C440.32 118.795 442.585 116.695 442.585 116.695Z" fill="#FF6E6E"/>
<path d="M437.869 315.011H417.549L418.34 309.883H438.742L437.869 315.011Z" fill="#BA810E"/>
<path d="M469.934 309.883H490.677L491.359 315.011H470.889L469.934 309.883Z" fill="#BA810E"/>
<rect x="311" y="89" width="81" height="6" rx="3" fill="white"/>
<rect x="311" y="104" width="81" height="6" rx="3" fill="white"/>
<rect x="311" y="119" width="81" height="6" rx="3" fill="white"/>
<rect x="311" y="134" width="81" height="6" rx="3" fill="white"/>
</g>
<defs>
<clipPath id="clip0_3112_8002">
<rect width="690" height="350" fill="white"/>
</clipPath>
</defs>
</svg>
