<svg width="690" height="350" viewBox="0 0 690 350" fill="none" xmlns="http://www.w3.org/2000/svg">
<path d="M527.903 329.146L527.285 328.766C562.454 271.57 580.782 219.89 581.758 175.166C582.768 128.912 564.832 100.631 549.61 85.0499C534.99 70.0867 515.852 59.6787 495.718 55.7419C476.841 52.0519 458.368 54.3948 445.034 62.1726L444.668 61.5455C458.153 53.6807 476.812 51.3029 495.854 55.0277C516.13 58.9935 535.408 69.4741 550.13 84.5418C565.45 100.222 583.499 128.674 582.483 175.18C581.508 220.038 563.142 271.837 527.903 329.146Z" fill="#E5E5FF"/>
<path opacity="0.4" d="M556.096 126.458C539.673 90.876 507.766 63.0632 468.079 58.2294C436.417 54.371 404.571 53.8571 372.773 51.9149C339.208 49.8681 306.35 43.6378 273.184 38.1827C251.894 34.6785 233.241 39.8549 212.599 47.3423C184.403 57.5703 157.154 90.5973 144.859 117.019C115.231 180.675 131.594 260.749 157.697 322.782C158.977 325.822 167.791 350.003 170.436 350.003C170.439 350.003 515.707 350.003 515.707 350.003C536.537 319.455 553.608 285.856 563.084 251.165C574.349 209.943 574.23 165.741 556.096 126.458Z" fill="#E5E5FF"/>
<path d="M136.041 254.306C122.483 212.033 116.514 175.272 118.3 145.047C119.783 119.908 126.629 99.0278 138.64 82.9905C166.165 46.2416 212.141 46.9674 212.605 46.979L212.588 47.7048C212.141 47.6903 166.514 46.9819 139.218 83.4318C127.294 99.3559 120.501 120.102 119.026 145.096C117.249 175.229 123.206 211.899 136.735 254.083L136.041 254.306Z" fill="#E5E5FF"/>
<path d="M467.847 259.242H220.087C215.148 259.242 211.145 255.238 211.145 250.3V9.30128C211.145 4.36291 215.148 0.359375 220.087 0.359375H467.844C472.783 0.359375 476.786 4.36291 476.786 9.30128V250.297C476.789 255.238 472.785 259.242 467.847 259.242Z" fill="#E5E5FF"/>
<path d="M467.844 259.608H220.087C214.957 259.608 210.782 255.434 210.782 250.301V9.3048C210.782 4.17482 214.957 0 220.087 0H467.844C472.977 0 477.152 4.17482 477.152 9.3048V250.301C477.152 255.434 472.977 259.608 467.844 259.608ZM220.087 0.725804C215.354 0.725804 211.508 4.57547 211.508 9.3048V250.301C211.508 255.033 215.357 258.883 220.087 258.883H467.844C472.576 258.883 476.426 255.033 476.426 250.301V9.3048C476.426 4.57256 472.576 0.725804 467.844 0.725804H220.087Z" fill="#CBCBFF"/>
<path d="M446.305 30.5234H389.693V34.6547H446.305V30.5234Z" fill="#9192FF"/>
<path d="M462.11 48.3047H371.91V52.4359H462.11V48.3047Z" fill="#B7B7FF"/>
<path d="M453.151 60.5234H371.91V64.6547H453.151V60.5234Z" fill="#B7B7FF"/>
<path d="M443.823 72.7422H371.91V76.8735H443.823V72.7422Z" fill="#CBCBFF"/>
<path d="M462.11 84.9609H371.91V89.0922H462.11V84.9609Z" fill="#CBCBFF"/>
<path d="M438.493 97.1719H371.91V101.303H438.493V97.1719Z" fill="#CBCBFF"/>
<path d="M316.865 164.195H230.294V168.327H316.865V164.195Z" fill="#B7B7FF"/>
<path d="M454.382 175.445H230.541V179.577H454.382V175.445Z" fill="#CBCBFF"/>
<path d="M334.682 30.5234H230.431V140.854H334.682V30.5234Z" fill="white"/>
<path d="M247.107 103.406H239.858V128.78H247.107V103.406Z" fill="#B7B7FF"/>
<path d="M260.131 106.984H252.881V128.782H260.131V106.984Z" fill="#E0E0FF"/>
<path d="M273.154 93.1562H265.905V128.776H273.154V93.1562Z" fill="#B7B7FF"/>
<path d="M286.181 95.7109H278.932V128.781H286.181V95.7109Z" fill="#E0E0FF"/>
<path d="M299.205 84.2969H291.956V128.783H299.205V84.2969Z" fill="#B7B7FF"/>
<path d="M312.229 78.125H304.98V128.777H312.229V78.125Z" fill="#E0E0FF"/>
<path d="M325.256 72.6328H318.006V128.784H325.256V72.6328Z" fill="#B7B7FF"/>
<path d="M255.239 89.4939L241.553 84.0185L241.814 83.3652L255.114 88.6839L268.666 77.4688L281.307 77.7649L319.411 54.2344L319.78 54.8324L281.498 78.4733L268.91 78.1801L255.239 89.4939Z" fill="#B7B7FF"/>
<path d="M253.407 52.3828H238.537V58.5638H253.407V52.3828Z" fill="#B7B7FF"/>
<path d="M272.234 55.9297H258.322V56.6555H272.234V55.9297Z" fill="#B7B7FF"/>
<path d="M436.608 148.399C445.575 148.399 452.843 141.131 452.843 132.164C452.843 123.198 445.575 115.93 436.608 115.93C427.642 115.93 420.374 123.198 420.374 132.164C420.374 141.131 427.642 148.399 436.608 148.399Z" fill="white"/>
<path d="M390.346 148.397C381.381 148.397 374.111 141.128 374.111 132.162C374.111 124.054 380.057 117.327 387.832 116.113C388.647 115.989 389.486 115.922 390.343 115.922C395.148 115.922 399.462 118.012 402.426 121.328C405.01 124.202 406.575 128.002 406.575 132.162C406.581 141.13 399.311 148.397 390.346 148.397Z" fill="white"/>
<path d="M390.346 132.162L387.834 116.113C388.65 115.989 389.489 115.922 390.346 115.922C395.151 115.922 399.465 118.012 402.429 121.328L390.346 132.162Z" fill="#B7B7FF"/>
<path d="M454.986 195.031H232.199V237.854H454.986V195.031Z" fill="white"/>
<path d="M455.633 238.49H232.306V195.125H455.633V238.49ZM232.852 237.947H455.09V195.668H232.852V237.947Z" fill="#B7B7FF"/>
<path d="M455.36 229.383H232.579V229.929H455.36V229.383Z" fill="#B7B7FF"/>
<path d="M455.36 220.82H232.579V221.366H455.36V220.82Z" fill="#B7B7FF"/>
<path d="M455.36 212.258H232.579V212.804H455.36V212.258Z" fill="#B7B7FF"/>
<path d="M455.36 203.688H232.579V204.233H455.36V203.688Z" fill="#B7B7FF"/>
<path d="M418.504 195.398H417.958V238.221H418.504V195.398Z" fill="#B7B7FF"/>
<path d="M381.375 195.398H380.829V238.221H381.375V195.398Z" fill="#B7B7FF"/>
<path d="M344.243 195.398H343.697V238.221H344.243V195.398Z" fill="#B7B7FF"/>
<path d="M307.113 195.398H306.568V238.221H307.113V195.398Z" fill="#B7B7FF"/>
<path d="M269.981 195.398H269.436V238.221H269.981V195.398Z" fill="#B7B7FF"/>
<path d="M238.696 231.441C241.936 226.93 242.636 221.12 245.527 216.368C246.938 214.051 248.808 211.752 251.392 210.715C255.848 208.927 256.986 214.681 257.079 217.874C257.219 222.572 256.441 227.67 260.319 231.197C261.614 232.376 263.33 233.073 265.078 232.608C267.174 232.051 268.48 230.132 269.517 228.367C272.487 223.315 274.374 217.526 276.438 212.062C277.48 209.301 278.807 205.768 281.536 204.221C285.429 202.017 285.853 206.894 285.844 209.464C285.833 212.28 285.865 215.096 285.888 217.912C285.9 219.265 285.621 222.09 287.212 222.845C288.15 223.289 288.89 222.441 289.415 221.759C289.871 221.167 290.191 220.476 290.646 219.886C291.076 219.332 291.456 218.995 292.232 218.931C292.943 218.873 293.282 218.864 293.764 219.518C294.034 219.884 294.159 220.397 294.272 220.824C294.833 222.938 294.258 225.33 295.454 227.284C296.119 228.37 297.553 229.453 298.9 229.241C301.621 228.811 302.311 224.381 302.637 222.25C303.072 219.399 303.481 216.565 304.265 213.784C305.055 210.982 306.083 207.635 308.211 205.542C309.021 204.743 310.139 203.948 311.338 204.084C313.091 204.282 313.64 206.259 314.067 207.675C315.033 210.875 315.611 214.225 315.611 217.573C315.608 219.886 314.938 222.778 316.479 224.781C317.307 225.855 318.709 226.471 320.053 226.137C322.016 225.649 322.489 223.745 322.887 222.017C322.965 221.675 323.026 221.318 323.154 220.99C323.537 220.017 323.688 219.904 324.739 219.86C325.894 219.814 325.941 220.084 326.127 221.042C326.315 222.009 326.217 222.984 326.507 223.936C326.876 225.144 327.723 226.256 329.12 225.838C330.409 225.455 331.1 224.073 331.527 222.909C332.752 219.558 332.638 215.848 332.821 212.341C332.943 210.018 333.129 207.522 334.203 205.414C334.9 204.041 336.964 201.82 338.555 203.268C340.628 205.153 340.428 209.743 340.474 212.277C340.576 217.715 339.664 223.173 340.425 228.593C340.709 230.62 341.284 233.645 343.534 234.411C346.649 235.474 348.943 232.083 349.77 229.601C350.429 227.629 350.58 225.565 351.048 223.55C351.295 222.491 351.672 220.557 353.115 221.164C354.36 221.683 354.874 223.446 355.969 224.244C359.508 226.816 361.674 221.797 362.089 219.082C362.695 215.111 362.071 210.735 363.558 206.938C363.935 205.977 364.524 204.958 365.407 204.377C367.57 202.955 369.698 204.923 370.348 206.935C370.842 208.462 370.749 210.175 370.778 211.76C370.81 213.479 370.856 215.201 370.888 216.919C370.941 219.762 370.685 222.662 370.868 225.493C370.996 227.461 371.739 229.252 373.44 230.364C377.708 233.154 382.699 228.802 385.422 225.751C388.517 222.282 390.598 218.159 392.201 213.833C393.011 211.647 393.821 209.412 395.087 207.437C395.781 206.354 397.714 203.759 399.299 204.476C400.333 204.944 400.675 206.81 400.896 207.774C401.27 209.397 401.45 211.066 401.584 212.724C401.839 215.883 401.86 219.047 401.918 222.212C401.967 224.892 402.194 228.933 405.172 230.019C409.823 231.714 412.041 225.051 413.33 221.974C414.396 219.425 415.697 215.97 418.179 214.454C420.287 213.165 421.756 215.154 422.537 216.922C423.286 218.618 423.669 220.499 423.695 222.348C423.712 223.64 423.611 225.257 425.025 225.882C428.111 227.243 430.924 222.136 432.123 220.124C433.217 218.29 434.048 216.368 434.962 214.443C436.115 212.024 439.886 207.403 441.454 212.036C442.046 213.787 441.84 215.674 441.721 217.48C441.587 219.529 441.442 221.585 441.506 223.64C441.582 226.015 442.011 231.192 445.594 230.643C447.763 230.309 449.998 227.92 451.627 226.564C454.01 224.578 456.257 222.444 458.388 220.191C458.711 219.852 458.197 219.338 457.874 219.677C455.741 221.927 453.494 224.064 451.113 226.05C449.835 227.115 448.538 228.193 447.159 229.122C445.364 230.329 443.611 229.781 442.897 227.931C441.492 224.299 442.348 219.808 442.537 216.031C442.65 213.784 442.368 208.642 438.925 209.266C436.864 209.641 435.438 211.865 434.579 213.578C433.601 215.523 432.802 217.526 431.702 219.41C430.61 221.28 429.356 223.507 427.539 224.764C426.168 225.71 424.563 225.263 424.409 223.423C424.339 222.584 424.429 221.747 424.331 220.903C424.046 218.467 423.117 214.44 420.481 213.456C416.82 212.085 414.152 218.246 413.113 220.659C412.047 223.126 411.22 226.288 409.249 228.216C407.858 229.574 405.602 230.045 404.18 228.474C403.14 227.324 402.879 225.516 402.734 224.038C402.168 218.301 403.024 212.373 401.387 206.749C400.913 205.126 400.016 203.123 398.007 203.834C394.642 205.025 393.11 209.397 391.963 212.411C390.131 217.227 388.099 221.834 384.528 225.664C382.466 227.873 379.479 230.602 376.256 230.538C372.023 230.454 371.495 226.23 371.617 222.993C371.736 219.828 371.611 216.652 371.542 213.488C371.486 210.936 371.829 207.896 370.569 205.565C369.768 204.078 368.064 202.894 366.31 203.204C364.821 203.469 363.712 204.874 363.111 206.163C361.491 209.635 361.92 213.827 361.555 217.544C361.345 219.666 360.968 223.309 358.483 224.047C355.356 224.976 355.257 220.278 352.627 220.188C349.84 220.093 349.817 226.79 349.335 228.55C348.74 230.724 347.61 233.317 345.134 233.787C343.601 234.077 342.582 233.116 341.987 231.798C340.634 228.805 340.802 225.034 340.884 221.826C340.947 219.431 341.159 217.041 341.203 214.646C341.249 212.062 341.763 200.969 336.837 202.159C333.428 202.984 332.554 207.385 332.252 210.3C331.849 214.184 332.191 218.168 331.082 221.962C330.795 222.949 330.412 224.087 329.584 224.758C328.725 225.458 327.697 224.86 327.273 223.96C326.986 223.35 327 222.581 326.942 221.93C326.847 220.824 326.707 219.181 325.476 218.719C324.054 218.182 322.887 219.637 322.46 220.807C321.929 222.255 322.103 224.157 320.634 225.118C319.159 226.079 317.426 225.173 316.714 223.748C315.974 222.264 316.241 220.455 316.314 218.859C316.386 217.236 316.317 215.616 316.131 214.004C315.814 211.273 315.303 208.274 314.18 205.745C312.63 202.255 309.178 203.181 307.122 205.69C303.632 209.946 302.756 216.417 302.001 221.669C301.757 223.353 301.438 225.101 300.686 226.642C300.3 227.432 299.745 228.367 298.804 228.526C297.234 228.793 295.933 226.979 295.588 225.693C295.027 223.6 295.556 216.17 291.195 218.449C289.842 219.158 289.712 220.847 288.556 221.698C286.75 223.028 286.64 220.09 286.628 218.952C286.608 217.247 286.599 215.54 286.585 213.836C286.564 211.545 286.739 209.168 286.46 206.889C286.283 205.434 285.839 203.739 284.338 203.141C280.273 201.518 277.242 208.076 276.151 210.828C273.837 216.661 271.984 222.894 268.733 228.288C266.947 231.25 263.899 233.471 260.839 230.698C258.653 228.715 257.849 225.806 257.791 222.955C257.715 219.248 258.827 211.757 254.382 209.83C250.512 208.152 246.407 213.491 244.77 216.237C241.971 220.929 241.248 226.66 238.069 231.087C237.799 231.456 238.426 231.819 238.696 231.441Z" fill="#9192FF"/>
<path d="M455.125 350.002H400.283C398.179 350.002 396.474 348.295 396.474 346.193V310.082C396.474 307.978 398.181 306.273 400.283 306.273H455.125C457.23 306.273 458.934 307.981 458.934 310.082V346.193C458.937 348.295 457.23 350.002 455.125 350.002Z" fill="#E0E0FF"/>
<path d="M457.558 325.219H397.85V325.91H457.558V325.219Z" fill="#B7B7FF"/>
<path d="M427.704 331.552C424.94 331.552 422.69 329.302 422.69 326.538V325.211H432.718V326.538C432.718 329.304 430.471 331.552 427.704 331.552ZM423.381 325.905V326.538C423.381 328.921 425.321 330.861 427.704 330.861C430.088 330.861 432.027 328.921 432.027 326.538V325.905H423.381Z" fill="#B7B7FF"/>
<path d="M439.52 308.502H438.829V299.531C438.829 298.324 437.845 297.342 436.638 297.342H418.774C417.566 297.342 416.585 298.324 416.585 299.531V308.502H415.894V299.531C415.894 297.943 417.186 296.648 418.777 296.648H436.64C438.228 296.648 439.523 297.94 439.523 299.531V308.502H439.52Z" fill="#B7B7FF"/>
<path d="M417.941 306.266H414.57V309.897H417.941V306.266Z" fill="#B7B7FF"/>
<path d="M440.847 306.266H437.476V309.897H440.847V306.266Z" fill="#B7B7FF"/>
<path d="M281.31 312.883H236.789V349.992H281.31V312.883Z" fill="#E0E0FF"/>
<path d="M284.587 310.258H233.508V318.053H284.587V310.258Z" fill="#B7B7FF"/>
<path opacity="0.6" d="M281.307 349.998H236.789V317.938C236.789 317.938 254.815 345.039 281.307 349.998Z" fill="#B7B7FF"/>
<path d="M528.513 32.8516C513.268 32.8516 500.909 45.2105 500.909 60.4553C500.909 69.9605 505.714 78.342 513.027 83.3065L511.967 96.0226L522.329 87.3536C524.317 87.8094 526.387 88.0591 528.513 88.0591C543.757 88.0591 556.116 75.7001 556.116 60.4553C556.116 45.2105 543.757 32.8516 528.513 32.8516Z" fill="white"/>
<path d="M511.532 96.8623L512.647 83.4901C505.066 78.2585 500.546 69.665 500.546 60.4589C500.546 45.037 513.091 32.4922 528.513 32.4922C543.934 32.4922 556.479 45.037 556.479 60.4589C556.479 75.8807 543.934 88.4255 528.513 88.4255C526.48 88.4255 524.434 88.1991 522.422 87.752L511.532 96.8623ZM528.513 33.2151C513.491 33.2151 501.272 45.4347 501.272 60.456C501.272 69.4937 505.743 77.9246 513.23 83.0081L513.404 83.1272L512.4 95.19L522.233 86.9623L522.41 87.003C524.425 87.4646 526.477 87.6968 528.515 87.6968C543.537 87.6968 555.756 75.4772 555.756 60.456C555.756 45.4347 543.534 33.2151 528.513 33.2151Z" fill="#5254CF"/>
<path d="M533.21 66.2656H525.003V74.7837H533.21V66.2656Z" fill="white"/>
<path d="M533.573 75.1501H524.64V65.9062H533.573V75.1501ZM525.366 74.4243H532.847V66.6321H525.366V74.4243Z" fill="#5254CF"/>
<path d="M535.765 60.3852C535.765 56.6023 532.612 53.5568 528.791 53.7339C525.313 53.8936 522.488 56.82 522.445 60.3039C522.43 61.5436 522.753 62.702 523.33 63.7007C524.364 65.4948 525 67.4894 525 69.5594V71.0748H533.207V69.5013C533.207 67.4574 533.837 65.489 534.865 63.7239C535.44 62.7397 535.765 61.5987 535.765 60.3852Z" fill="white"/>
<path d="M533.573 71.4306H524.64V69.5551C524.64 67.6535 524.094 65.7432 523.017 63.8764C522.39 62.7906 522.067 61.5538 522.082 60.2938C522.128 56.6416 525.13 53.5352 528.774 53.3668C530.731 53.2797 532.554 53.9648 533.953 55.3032C535.355 56.6416 536.125 58.4445 536.125 60.3809C536.125 61.6177 535.797 62.8341 535.178 63.8967C534.113 65.7316 533.57 67.6128 533.57 69.4912V71.4306H533.573ZM525.366 70.7048H532.847V69.4941C532.847 67.4851 533.422 65.4819 534.554 63.5338C535.109 62.5816 535.402 61.49 535.402 60.3809C535.402 58.6448 534.711 57.0277 533.454 55.8258C532.2 54.6268 530.562 54.0084 528.809 54.0897C525.543 54.2406 522.851 57.0248 522.811 60.2996C522.796 61.429 523.087 62.538 523.647 63.5106C524.788 65.4877 525.366 67.5199 525.366 69.5522V70.7048Z" fill="#5254CF"/>
<path d="M527.587 59.5972C527.07 60.3317 526.205 60.6162 525.653 60.2272C525.101 59.8411 525.072 58.9295 525.589 58.195C526.106 57.4604 526.971 57.1759 527.523 57.565C528.074 57.954 528.103 58.8627 527.587 59.5972Z" fill="white"/>
<path d="M526.225 60.7683C525.94 60.7683 525.676 60.687 525.447 60.5273C525.084 60.2718 524.875 59.8567 524.86 59.3573C524.846 58.8957 525 58.4109 525.293 57.9899C525.586 57.5718 525.99 57.2612 526.431 57.116C526.901 56.9622 527.375 57.0202 527.732 57.2699C528.089 57.5196 528.304 57.9464 528.318 58.4399C528.333 58.9015 528.179 59.3863 527.885 59.8073C527.592 60.2283 527.189 60.536 526.747 60.6812C526.57 60.7392 526.393 60.7683 526.225 60.7683ZM526.951 57.7576C526.858 57.7576 526.759 57.7751 526.655 57.807C526.367 57.8999 526.088 58.1176 525.885 58.4051C525.682 58.6925 525.575 59.0293 525.583 59.3312C525.592 59.5983 525.691 59.8102 525.862 59.9321C526.033 60.0512 526.266 60.0744 526.521 59.9902C526.811 59.8944 527.084 59.6825 527.29 59.3893C527.494 59.1018 527.601 58.7651 527.592 58.4631C527.584 58.196 527.485 57.9841 527.314 57.8622C527.212 57.7925 527.087 57.7576 526.951 57.7576Z" fill="#5254CF"/>
<path d="M516.319 48.6972L515.867 49.2656L520.001 52.5475L520.452 51.9791L516.319 48.6972Z" fill="#5254CF"/>
<path d="M528.854 41.7893L528.129 41.8125L528.355 48.8957L529.081 48.8725L528.854 41.7893Z" fill="#5254CF"/>
<path d="M541.045 47.2713L536.762 51.4375L537.269 51.9578L541.551 47.7915L541.045 47.2713Z" fill="#5254CF"/>
<path d="M182.145 67.7162C182.145 54.312 171.278 43.4453 157.874 43.4453C144.47 43.4453 133.603 54.312 133.603 67.7162C133.603 81.1203 144.47 91.9871 157.874 91.9871C160.077 91.9871 162.208 91.688 164.237 91.1393L172.663 98.1883L171.78 87.6032C178.045 83.2136 182.145 75.9468 182.145 67.7162Z" fill="white"/>
<path d="M173.095 99.028L164.147 91.5406C162.095 92.0806 159.987 92.3535 157.874 92.3535C144.292 92.3535 133.24 81.3039 133.24 67.7197C133.24 54.1356 144.29 43.0859 157.874 43.0859C171.455 43.0859 182.507 54.1356 182.507 67.7197C182.507 75.6745 178.643 83.159 172.157 87.7838L173.095 99.028ZM164.325 90.7422L172.227 97.3557L171.4 87.4296L171.571 87.3106C177.964 82.831 181.782 75.509 181.782 67.7226C181.782 54.5391 171.057 43.8146 157.874 43.8146C144.69 43.8146 133.966 54.5391 133.966 67.7226C133.966 80.9061 144.69 91.6306 157.874 91.6306C159.987 91.6306 162.095 91.349 164.142 90.7945L164.325 90.7422Z" fill="#5254CF"/>
<path d="M157.554 75.2921L150.674 68.4115L151.188 67.8976L157.316 74.0292L164.423 57.8438L165.088 58.1341L157.554 75.2921Z" fill="#5254CF"/>
<path d="M289.877 99.5273L283.368 103.339L214.167 143.888C212.039 145.137 209.545 144.844 208.558 143.224L208.555 143.218C207.568 141.601 208.445 139.249 210.526 137.925L278.075 94.975L284.576 90.8438L289.877 99.5273Z" fill="#5254CF"/>
<path opacity="0.6" d="M289.877 99.5244L283.368 103.336C282.096 102.12 280.982 100.738 280.041 99.1963C279.219 97.8492 278.566 96.4324 278.075 94.975L284.576 90.8438L289.877 99.5244Z" fill="#1B1B43"/>
<path d="M280.732 101.7C279.707 102.327 278.366 102.001 277.739 100.977C277.112 99.9518 277.437 98.6105 278.462 97.9835C279.486 97.3564 280.828 97.6815 281.455 98.7063C282.082 99.7341 281.76 101.072 280.732 101.7Z" fill="white"/>
<path d="M313.529 113.571C332.555 113.571 347.979 98.1474 347.979 79.1214C347.979 60.0955 332.555 44.6719 313.529 44.6719C294.504 44.6719 279.08 60.0955 279.08 79.1214C279.08 98.1474 294.504 113.571 313.529 113.571Z" fill="#5254CF"/>
<path d="M313.53 107.067C328.962 107.067 341.473 94.5559 341.473 79.1231C341.473 63.6904 328.962 51.1797 313.53 51.1797C298.097 51.1797 285.586 63.6904 285.586 79.1231C285.586 94.5559 298.097 107.067 313.53 107.067Z" fill="white"/>
<path d="M302.169 88.5703H293.41V142.329H302.169V88.5703Z" fill="#B7B7FF"/>
<path d="M317.91 81.4844H309.151V142.696H317.91V81.4844Z" fill="#E0E0FF"/>
<path d="M333.649 73.8672H324.89V141.724H333.649V73.8672Z" fill="#B7B7FF"/>
<path d="M323.876 63.5983L283.74 76.4375L284.072 77.4745L324.208 64.6353L323.876 63.5983Z" fill="#B7B7FF"/>
<path d="M321.365 68.7926L320.48 68.1597L323.122 64.4494L319.295 63.14L319.649 62.1094L323.877 63.5581C324.1 63.619 324.295 63.8107 324.373 64.0632C324.448 64.3129 324.393 64.5829 324.225 64.7832L321.365 68.7926ZM323.517 64.5829C323.528 64.5887 323.54 64.5916 323.551 64.5945L323.517 64.5829ZM323.363 64.1097C323.357 64.1155 323.351 64.1242 323.348 64.1329L323.363 64.1097Z" fill="#B7B7FF"/>
<path d="M244.599 335.568C240.215 335.635 233.929 335.734 229.865 335.795C229.908 333.826 229.981 331.867 230.068 330.075C230.265 325.604 230.518 322.15 230.518 322.15L243.08 322.062C243.08 322.062 243.022 323.311 243.08 325.183C243.159 327.956 243.487 332.093 244.599 335.568Z" fill="#FFBC96"/>
<path d="M249.464 341.709C247.055 340.962 245.545 338.501 244.601 335.562C240.215 335.629 233.929 335.728 229.862 335.789C229.751 340.417 229.792 345.076 230.236 347.692C230.428 348.827 231.401 349.658 232.553 349.658H254.144C255.904 349.658 257.422 348.186 257.239 346.435C257.021 344.345 254.551 343.285 249.464 341.709Z" fill="#1B1B43"/>
<path d="M243.08 325.183L230.068 330.075C230.265 325.604 230.518 322.15 230.518 322.15L243.08 322.062C243.08 322.062 243.022 323.311 243.08 325.183Z" fill="#D28572"/>
<path d="M236.557 349.471C236.095 347.285 235.18 345.764 233.833 344.951C232.071 343.889 230.135 344.417 230.114 344.423L229.914 343.726C230.004 343.7 232.158 343.096 234.199 344.324C235.729 345.244 236.76 346.925 237.265 349.323L236.557 349.471Z" fill="#656590"/>
<path d="M180.075 319.705C180.075 319.705 178.681 322.942 177.679 326.928C177.2 328.83 176.814 330.906 176.713 332.871C172.584 331.382 166.676 329.251 162.844 327.863C164.624 323.494 166.525 319.212 167.547 316.962L167.576 316.904C168.02 315.917 168.288 315.336 168.288 315.336L180.075 319.705Z" fill="#FFBC96"/>
<path d="M179.085 340.342C177.093 338.792 176.556 335.956 176.713 332.872C172.584 331.383 166.673 329.249 162.847 327.867C161.108 332.158 159.497 336.527 158.986 339.132C158.765 340.261 159.38 341.382 160.455 341.791L180.649 349.432C182.296 350.056 184.235 349.215 184.685 347.513C185.222 345.481 183.286 343.617 179.085 340.342Z" fill="#1B1B43"/>
<path d="M180.075 319.702C180.075 319.702 178.681 322.939 177.679 326.926L167.147 318.065L167.547 316.962L167.576 316.904C168.02 315.917 168.288 315.336 168.288 315.336L180.075 319.702Z" fill="#D28572"/>
<path d="M163.683 342.908L163.039 342.571C165.744 337.389 160.977 334.819 160.774 334.715L161.111 334.07C161.169 334.099 166.72 337.087 163.683 342.908Z" fill="#656590"/>
<path d="M249.249 324.599L226.146 326.413L221.306 243.91L214.15 216.788L204.787 181.317L204.299 179.464L202.043 170.914L201.709 169.637L206.131 169.236L230.016 167.094L231.459 173.626V173.635L245.766 238.327C246.23 240.432 246.506 242.58 246.579 244.734L249.249 324.599Z" fill="#5254CF"/>
<path d="M215.984 198.435L214.15 216.789L211.174 246.506C210.834 249.926 210.071 253.3 208.901 256.528L184.29 324.603L163.605 316.619L182.838 246.942C187.797 218.258 186.975 196.243 188.253 182.278C188.331 181.407 188.418 180.574 188.514 179.767C189.031 175.494 189.829 172.103 191.185 169.641L202.043 170.918L209.693 171.818L211.354 178.853L211.688 180.275L215.984 198.435Z" fill="#5254CF"/>
<path opacity="0.6" d="M231.459 173.632L231.708 176.413C231.708 176.413 199.288 185.123 188.253 182.275C188.331 181.404 188.418 180.57 188.514 179.763C189.031 175.49 189.829 172.099 191.185 169.637L202.043 170.914L201.709 169.637L206.131 169.236L230.016 167.094L231.459 173.632Z" fill="#1B1B43"/>
<path d="M220.955 244.302L210.117 201.494L201.236 198.652L201.457 197.961L210.721 200.925L210.77 201.12L221.657 244.122L220.955 244.302Z" fill="#1B1B43"/>
<path d="M237.581 246.187L237.326 245.507C243.022 243.37 246.117 241.388 246.149 241.367L246.544 241.977C246.416 242.058 243.359 244.021 237.581 246.187Z" fill="#1B1B43"/>
<path d="M209.838 253.467C209.783 253.461 204.302 252.903 198.893 251.46L199.079 250.758C204.433 252.186 209.856 252.738 209.908 252.744L209.838 253.467Z" fill="#1B1B43"/>
<path d="M165.537 310.342L165.286 311.023L186.334 318.765L186.585 318.084L165.537 310.342Z" fill="#1B1B43"/>
<path d="M248.864 318.423L225.821 320.047L225.872 320.771L248.915 319.147L248.864 318.423Z" fill="#1B1B43"/>
<path d="M200.078 117.141L190.259 121.092C187.405 122.242 185.129 124.48 183.933 127.311L175.694 147.032C174.042 150.983 175.142 155.55 178.411 158.32C181.111 160.605 184.83 161.264 188.151 160.044L195.119 157.484L200.078 117.141Z" fill="#FFB147"/>
<path d="M267.975 99.2246C266.14 100.13 264.024 103.992 264.828 105.379C265.487 106.517 267.017 104.979 267.525 104.45C268.454 103.481 270.849 100.888 269.528 99.4162C269.105 98.9459 268.553 98.9372 267.975 99.2246Z" fill="#FFBC96"/>
<path d="M263.533 100.617C262.009 101.985 261.01 106.273 262.157 107.393C263.098 108.311 264.158 106.415 264.503 105.771C265.136 104.586 266.747 101.445 265.075 100.382C264.547 100.045 264.015 100.188 263.533 100.617Z" fill="#FFBC96"/>
<path d="M260.587 102.769C259.048 104.09 257.965 108.146 259.077 109.176C259.988 110.021 261.08 108.213 261.437 107.6C262.09 106.471 263.754 103.48 262.122 102.516C261.6 102.209 261.071 102.354 260.587 102.769Z" fill="#FFBC96"/>
<path d="M257.776 103.776C256.238 105.097 255.155 109.152 256.267 110.183C257.178 111.028 258.27 109.219 258.627 108.606C259.28 107.477 260.944 104.487 259.312 103.523C258.792 103.218 258.261 103.36 257.776 103.776Z" fill="#FFBC96"/>
<path d="M200.078 117.259L189.856 134.833C189.856 134.833 192.518 163.865 190.581 167.43C188.645 170.995 184.29 173.797 186.952 175.835C189.615 177.873 210.663 181.438 233.404 176.09C239.695 174.308 235.34 170.998 233.889 169.468C232.437 167.938 230.501 129.485 230.501 129.485L217.422 117.567L207.76 114.969L200.078 117.259Z" fill="#FFB147"/>
<path opacity="0.2" d="M217.224 117.56C215.41 120.737 194.054 124 200.078 117.137L206.247 115.836L217.224 117.56Z" fill="#1B1B43"/>
<path d="M244.895 138.248L236.467 125.75C234.513 122.573 231.325 120.352 227.67 119.618L217.436 117.562L223.483 140.245C223.483 140.245 232.919 153.49 241.449 156.576C249.101 159.346 259.254 154.796 264.851 124.882L252.161 123.151L244.895 138.248Z" fill="#FFB147"/>
<path d="M271.81 107.097C270.527 106.934 266.126 113.568 266.126 113.568L259.01 115.992C256.403 116.881 254.263 118.776 253.07 121.259L252.161 123.149L264.851 124.879C265.06 123.761 265.264 122.62 265.461 121.433C269.813 117.499 274.653 107.46 271.81 107.097Z" fill="#FFBC96"/>
<path d="M219.178 89.5234L221.75 93.0828C222.189 93.6895 221.916 94.5083 221.184 94.7899L218.438 95.8495L216.498 91.547L219.178 89.5234Z" fill="#D28572"/>
<path d="M202.537 109.077C203.184 102.53 202.92 95.9688 202.92 95.9688L214.649 96.8165C214.547 98.1229 214.533 99.4729 214.582 100.832C214.661 102.971 214.902 105.143 215.235 107.239C215.418 108.394 215.627 109.527 215.854 110.615L202.537 109.077Z" fill="#FFBC96"/>
<path d="M215.238 107.24C210.274 105.178 208.364 100.742 208.364 100.742L214.585 100.829C214.663 102.972 214.904 105.143 215.238 107.24Z" fill="#D28572"/>
<path d="M202.534 109.078L200.075 117.143C205.733 118.505 211.528 118.563 217.433 117.567L215.857 110.617L202.534 109.078Z" fill="#FFF5E8"/>
<path d="M218.888 83.5127L220.101 99.7417C220.209 100.436 219.785 101.071 219.187 101.632C218.159 102.593 216.748 103.031 215.343 102.97L207.031 102.625L201.103 95.9704L205.698 81.8172L214.045 81.6953L218.888 83.5127Z" fill="#FFBC96"/>
<path d="M205.248 93.1593C205.248 93.1593 207.426 99.9644 202.798 103.411C197.807 101.776 188.555 86.6271 200.075 81.8164C200.075 81.8164 203.251 73.7426 211.871 76.7358C219.477 79.3777 221.489 83.9939 221.489 83.9939C221.489 83.9939 216.135 87.9858 209.876 84.2668C209.876 84.2668 210.509 92.3435 205.248 93.1593Z" fill="#1B1B43"/>
<path d="M208.317 90.3784C209.673 92.0564 209.536 94.4109 208.018 95.639C206.497 96.8671 204.168 96.5012 202.813 94.8232C201.457 93.1451 201.593 90.7906 203.112 89.5626C204.633 88.3345 206.964 88.7003 208.317 90.3784Z" fill="#FFBC96"/>
<path d="M206.648 94.2836C206.619 94.1646 205.893 91.3978 203.945 91.8217L203.829 91.2904C205.8 90.8636 206.88 92.9772 207.173 94.153L206.648 94.2836Z" fill="#1B1B43"/>
<path opacity="0.4" d="M217.007 94.2423C217.314 92.9425 216.509 91.6399 215.209 91.333C213.909 91.0261 212.607 91.831 212.3 93.1308C211.993 94.4307 212.798 95.7332 214.098 96.0401C215.398 96.347 216.7 95.5421 217.007 94.2423Z" fill="#FE5B52"/>
<path d="M189.588 177.328C187.385 176.802 186.139 175.987 185.779 174.828C185.193 172.944 187.138 170.784 188.857 168.88C189.124 168.583 189.385 168.296 189.62 168.02C190.096 167.471 190.422 166.821 190.567 166.139C192.158 158.593 189.522 135.101 189.493 134.863L190.213 134.781C190.323 135.751 192.892 158.628 191.275 166.287C191.107 167.091 190.724 167.852 190.169 168.493C189.928 168.769 189.667 169.062 189.397 169.361C187.887 171.037 186.012 173.118 186.473 174.608C186.746 175.487 187.852 176.164 189.757 176.617L189.588 177.328Z" fill="#1B1B43"/>
<path d="M231.726 176.779L231.694 176.053C234.173 175.943 235.689 175.351 236.08 174.34C236.472 173.321 235.758 171.806 234.118 170.18C233.697 169.762 233.407 169.225 233.273 168.627C231.969 162.762 230.579 143.372 230.564 143.177L231.287 143.125C231.302 143.32 232.687 162.655 233.981 168.47C234.083 168.935 234.309 169.347 234.629 169.666C236.51 171.533 237.268 173.287 236.76 174.605C236.246 175.92 234.553 176.651 231.726 176.779Z" fill="#1B1B43"/>
<path d="M243.588 141.495L242.935 141.176L251.949 122.758L264.898 124.523L264.802 125.243L252.37 123.547L243.588 141.495Z" fill="#1B1B43"/>
<path d="M461.91 96.2129C457.616 93.6117 456.646 86.1736 460.638 83.9352C464.63 81.6969 467.171 83.6943 467.171 83.6943C467.171 83.6943 480.56 78.8111 485.618 91.2542C489.429 100.629 486.404 105.529 489.731 110.247C493.523 115.624 499.591 120.469 491.668 129.905L473.16 125.367L468.32 102.565L461.91 96.2129Z" fill="#1B1B43"/>
<path d="M525.964 305.219L512.353 311.208C512.353 311.208 514.307 316.26 515.982 322.139L529.976 317.668L525.964 305.219Z" fill="#FFBC96"/>
<path d="M529.976 317.664L515.982 322.135C517.898 328.868 519.446 336.683 517.26 339.232C514.415 342.548 511.935 345.288 511.34 347.593C510.992 348.949 512.382 350.09 513.631 349.46L531.712 340.341C534.708 338.831 536 335.24 534.653 332.166L529.976 317.664Z" fill="#1B1B43"/>
<path d="M531.485 322.345L517.207 326.812L517.424 327.505L531.702 323.038L531.485 322.345Z" fill="#656590"/>
<path d="M514.606 342.86L514.455 342.149C517.922 341.414 519.937 340.14 520.45 338.366C521.292 335.448 517.82 332.031 517.785 331.996L518.29 331.477C518.447 331.628 522.108 335.233 521.147 338.566C520.555 340.619 518.354 342.065 514.606 342.86Z" fill="#656590"/>
<path d="M473.401 318.43L457.674 319.881C457.674 319.881 458.083 325.464 457.599 331.067L472.724 330.844L473.401 318.43Z" fill="#FFBC96"/>
<path d="M457.602 331.067C457.175 336.026 456.048 341.005 453.322 342.14C447.516 344.559 442.92 346.254 443.402 349.639H465.725C469.081 349.639 471.851 347.015 472.033 343.664L472.73 330.844L457.602 331.067Z" fill="#1B1B43"/>
<path d="M457.679 334.485L457.667 335.211L472.184 335.452L472.196 334.726L457.679 334.485Z" fill="#656590"/>
<path d="M452.951 344.887C451.984 344.887 450.86 344.745 449.583 344.46L449.743 343.752C452.924 344.463 455.087 344.242 455.993 343.119C457.198 341.624 455.97 338.933 455.958 338.906L456.617 338.602C456.678 338.729 458.046 341.734 456.559 343.578C455.854 344.449 454.646 344.887 452.951 344.887Z" fill="#656590"/>
<path d="M473.198 322.153C473.009 322.217 472.835 322.261 472.675 322.298C469.534 323.024 459.132 322.298 459.132 322.298C458.658 322.197 458.211 322.066 457.782 321.915C448.056 318.373 448.718 301.366 450.175 286.496C451.519 272.857 445.82 203.267 449.754 179.62L474.373 174.234L474.519 178.38L474.818 186.843L475.34 201.815C475.34 201.815 476.269 216.302 477.541 234.456C479.442 261.673 482.113 297.142 483.565 304.4C485.876 315.949 477.129 321.006 473.198 322.153Z" fill="#5254CF"/>
<path d="M528.893 307.081C528.347 307.714 527.746 308.271 527.102 308.759C523.792 311.308 519.327 312.243 515.407 313.303C514.717 313.491 513.999 313.631 513.265 313.718C509.613 314.168 505.629 313.332 503.922 310.234C495.184 294.31 485.336 262.7 477.532 234.46C471.827 213.841 467.217 195.005 464.923 185.402C463.916 181.157 463.356 178.718 463.356 178.718L474.513 178.384L493.477 177.812C493.993 180.367 494.58 183.062 495.239 185.854C501.713 213.487 514.467 251.476 519.46 266.006C522.456 274.707 526.994 282.473 528.989 291.592C530.054 296.412 532.522 302.892 528.893 307.081Z" fill="#5254CF"/>
<path opacity="0.6" d="M495.245 185.847C487.502 187.119 480.67 187.284 474.815 186.843C471.128 186.567 467.827 186.045 464.929 185.397C454.994 183.205 449.754 179.62 449.754 179.62L474.373 174.234L474.519 178.38L493.482 177.808C493.999 180.36 494.586 183.054 495.245 185.847Z" fill="#1B1B43"/>
<path d="M477.187 234.558L469.595 207.662L461.785 204.823L462.035 204.141L470.193 207.108L470.242 207.288L477.886 234.36L477.187 234.558Z" fill="#1B1B43"/>
<path d="M523.798 310.387L523.168 310.024C526.832 303.664 519.487 284.064 510.19 259.247C501.164 235.151 489.929 205.163 485.864 178.407L486.581 178.297C490.634 204.977 501.852 234.927 510.87 258.992C520.236 283.988 527.63 303.73 523.798 310.387Z" fill="#1B1B43"/>
<path d="M455.029 156.76C454.15 162.892 452.837 170.905 452.837 170.905H438.501L441.994 151.72L442.856 146.953C442.856 146.953 455.195 149.856 455.741 149.856C455.95 149.856 455.575 152.948 455.029 156.76Z" fill="#FFBC96"/>
<path d="M455.029 156.76L454.376 158.203L441.994 151.72L442.856 146.953C442.856 146.953 455.195 149.856 455.741 149.856C455.95 149.856 455.575 152.948 455.029 156.76Z" fill="#D28572"/>
<path d="M451.931 152.403C451.931 152.403 454.292 166.194 449.754 179.621C449.754 179.621 472.254 186.516 493.485 177.807L488.585 146.78L490.219 130.992L457.738 131.355L446.668 134.984L451.931 152.403Z" fill="#1B1B43"/>
<path d="M499.393 129.226C497.959 125.129 494.655 121.965 490.501 120.711L484.401 118.867C481.945 122.444 477.564 127.002 471.165 127.002C463.643 127.002 458.925 122.685 456.327 119.158L452.112 120.185C447.588 121.288 444.073 124.848 443.027 129.383L438.321 149.801L451.932 152.402L452.294 136.797L487.679 135.163L488.588 146.776C488.588 146.776 498.81 142.299 505.583 146.898L499.393 129.226Z" fill="#1B1B43"/>
<path d="M514.894 127.905C512.934 131.738 510.301 148.35 509.087 161.292C508.687 165.546 507.476 168.899 505.798 171.343C503.33 174.958 499.832 176.598 496.435 176.235C495.129 176.105 493.842 175.678 492.632 174.958C486.79 171.497 487.537 156.705 488.19 150.048C488.393 148.045 488.582 146.776 488.582 146.776C492.031 144.875 497.474 144.599 497.474 144.599C497.547 143.85 497.634 143.095 497.721 142.32C498.461 135.634 499.585 128.051 500.558 123.008C501.646 117.381 503.824 119.472 503.824 119.472C504.912 117.468 506.547 119.196 506.547 119.196C507.998 116.017 509.813 119.013 509.813 119.013C512.077 115.747 513.317 120.647 513.317 120.647C513.317 120.647 520.352 114.855 521.548 116.531C522.152 117.381 517.672 122.462 514.894 127.905Z" fill="#FFBC96"/>
<path d="M459.19 167.25H428.706V170.911H459.19V167.25Z" fill="white"/>
<path d="M441.759 170.941H410.317C408.804 170.941 407.431 170.062 406.798 168.689L394.552 142.104C394.146 141.221 394.79 140.211 395.763 140.211H425.257C426.688 140.211 427.992 141.044 428.59 142.345L441.759 170.941Z" fill="#5254CF"/>
<path d="M452.112 170.906C451.725 172.334 451.212 173.65 450.515 174.82C448.831 177.665 446.131 179.616 441.973 180.138C440.551 180.327 438.96 180.336 437.175 180.161C422.766 178.73 418.6 170.848 418.6 170.848C418.6 170.848 416.997 167.503 420.4 168.27C420.4 168.27 421.038 166.145 423.666 168.366C423.666 168.366 423.352 165.73 425.936 168.142C425.936 168.142 425.573 165.463 428.384 167.779C431.2 170.087 433.377 170.77 436.78 170.906C440.179 171.045 452.112 170.906 452.112 170.906Z" fill="#FFBC96"/>
<path d="M451.374 136.794L450.649 136.836L451.556 152.44L452.28 152.398L451.374 136.794Z" fill="#5254CF"/>
<path d="M469.598 132.626C467.879 132.626 466.369 132.42 465.098 132.133C460.769 131.157 458.275 129.119 458.173 129.035L458.635 128.475C458.734 128.556 468.541 136.427 482.653 127.961L483.025 128.582C477.849 131.686 473.259 132.626 469.598 132.626Z" fill="#5254CF"/>
<path d="M488.393 139.632L487.669 139.688L488.213 146.826L488.937 146.771L488.393 139.632Z" fill="#5254CF"/>
<path d="M477.274 150.346C474.942 150.346 472.997 148.613 472.736 146.291L472.152 141.117L482.134 140.461L481.838 146.023C481.71 148.41 479.739 150.312 477.346 150.349C477.323 150.346 477.297 150.346 477.274 150.346ZM472.96 141.791L473.456 146.206C473.68 148.183 475.355 149.644 477.335 149.618C479.347 149.586 481.004 147.989 481.112 145.98L481.364 141.236L472.96 141.791Z" fill="#5254CF"/>
<path d="M497.072 144.593L494.464 162.828L495.182 162.931L497.791 144.696L497.072 144.593Z" fill="#D28572"/>
<path d="M510.096 118.965L509.559 119.062L510.104 122.056L510.641 121.958L510.096 118.965Z" fill="#D28572"/>
<path d="M506.83 119.051L506.293 119.148L506.837 122.142L507.374 122.044L506.83 119.051Z" fill="#D28572"/>
<path d="M504.106 119.238L503.569 119.336L504.114 122.33L504.651 122.232L504.106 119.238Z" fill="#D28572"/>
<path d="M512.838 118.622L512.326 118.812L514.02 123.35L514.531 123.159L512.838 118.622Z" fill="#D28572"/>
<path d="M497.466 144.594L488.146 150.023C488.349 148.02 488.538 146.751 488.538 146.751C491.984 144.849 497.466 144.594 497.466 144.594Z" fill="#D28572"/>
<path opacity="0.4" d="M505.798 171.344C503.33 174.959 499.832 176.599 496.435 176.236C496.397 175.998 496.383 175.751 496.383 175.501C496.383 172.395 498.9 169.875 502.009 169.875C503.469 169.878 504.805 170.438 505.798 171.344Z" fill="#FE5B52"/>
<path opacity="0.4" d="M450.515 174.823C448.831 177.668 446.131 179.619 441.974 180.141C441.959 179.967 441.95 179.793 441.95 179.619C441.95 176.512 444.467 173.992 447.577 173.992C448.648 173.995 449.658 174.3 450.515 174.823Z" fill="#FE5B52"/>
<path d="M429.527 171.929C428.093 171.648 426.299 169.43 425.695 168.265L426.18 168.016C426.798 169.215 428.491 171.171 429.632 171.395L429.527 171.929Z" fill="#D28572"/>
<path d="M426.119 172.309C424.903 171.058 423.782 169.499 423.329 168.431L423.831 168.219C424.258 169.232 425.335 170.721 426.511 171.929L426.119 172.309Z" fill="#D28572"/>
<path d="M422.763 172.216C421.547 170.964 420.426 169.405 419.973 168.337L420.475 168.125C420.902 169.138 421.979 170.628 423.155 171.835L422.763 172.216Z" fill="#D28572"/>
<path d="M484.401 118.862C481.939 122.441 477.558 126.999 471.162 126.999C463.643 126.999 458.925 122.679 456.327 119.152L464.084 117.256C464.273 115.863 464.433 114.504 464.563 113.221C464.665 112.213 464.752 111.247 464.833 110.332C464.964 108.831 465.051 107.472 465.124 106.311C465.22 104.72 465.263 103.515 465.283 102.848C465.298 102.464 465.298 102.261 465.298 102.261L476.185 97.9062C476.185 97.9062 475.822 112.059 479.088 117.256L484.401 118.862Z" fill="#FFBC96"/>
<path d="M473.947 107.523C473.947 107.523 471.035 110.929 464.566 113.222C464.668 112.215 464.755 111.248 464.836 110.333C464.967 108.832 465.054 107.474 465.127 106.312L473.947 107.523Z" fill="#D28572"/>
<path d="M462.395 89.0714C462.395 89.0714 456.829 104.191 460.821 106.976C464.372 109.449 469.046 109.757 473.645 108.549L476.67 98.2659L474.855 88.2266L462.395 89.0714Z" fill="#FFBC96"/>
<path d="M475.096 98.3866C475.096 98.3866 471.165 99.8934 469.531 94.3947C468.201 89.9179 462.395 89.0731 462.395 89.0731L464.755 86.8957L475.944 86.5938L480.058 91.6134L478.667 98.1456L475.096 98.3866Z" fill="#1B1B43"/>
<path d="M480.17 101.54C481.439 99.3416 481.061 96.7473 479.325 95.7452C477.589 94.7431 475.153 95.7126 473.884 97.9107C472.615 100.109 472.993 102.703 474.729 103.705C476.465 104.707 478.901 103.738 480.17 101.54Z" fill="#FFBC96"/>
<path d="M475.747 101.687L475.201 101.681C475.201 101.646 475.273 98.2611 478.632 97.875L478.693 98.415C475.816 98.746 475.747 101.565 475.747 101.687Z" fill="#1B1B43"/>
<path d="M461.652 97.0316C461.995 97.0316 462.273 96.7535 462.273 96.4103C462.273 96.0672 461.995 95.7891 461.652 95.7891C461.308 95.7891 461.03 96.0672 461.03 96.4103C461.03 96.7535 461.308 97.0316 461.652 97.0316Z" fill="#1B1B43"/>
<path d="M466.503 97.2647C466.503 97.6798 466.166 98.0137 465.754 98.0137C465.339 98.0137 465.005 97.6769 465.005 97.2647C465.005 96.8495 465.342 96.5156 465.754 96.5156C466.166 96.5127 466.503 96.8495 466.503 97.2647Z" fill="#1B1B43"/>
<path d="M463.01 94.9933H461.158C460.897 94.9933 460.685 94.7814 460.685 94.5201C460.685 94.2588 460.897 94.0469 461.158 94.0469H463.01C463.272 94.0469 463.484 94.2588 463.484 94.5201C463.484 94.7814 463.272 94.9933 463.01 94.9933Z" fill="#1B1B43"/>
<path d="M467.661 96.2968L465.612 95.4317C465.371 95.3301 465.257 95.0543 465.359 94.8133C465.461 94.5723 465.736 94.4591 465.977 94.5607L468.027 95.4259C468.268 95.5275 468.381 95.8033 468.28 96.0443C468.181 96.2852 467.902 96.3984 467.661 96.2968Z" fill="#1B1B43"/>
<path d="M461.367 101.116C461.26 101.116 461.158 101.052 461.114 100.947C460.752 100.065 460.743 99.3854 461.085 98.9325C461.448 98.4535 462.084 98.3867 462.406 98.3867L463.097 97.0454C463.167 96.9119 463.333 96.8596 463.463 96.9293C463.597 96.999 463.649 97.1616 463.579 97.2951L462.723 98.9587L462.537 98.9384C462.528 98.9384 461.814 98.8658 461.518 99.2635C461.303 99.5509 461.338 100.062 461.617 100.744C461.675 100.884 461.608 101.043 461.469 101.098C461.434 101.11 461.399 101.116 461.367 101.116Z" fill="#1B1B43"/>
<path d="M461.495 103.484C462.549 104.971 463.884 104.335 464.793 103.574C463.559 103.656 462.395 103.586 461.495 103.484Z" fill="#1B1B43"/>
<path d="M464.793 103.573C465.318 103.131 465.704 102.652 465.806 102.516C465.818 102.499 465.803 102.481 465.783 102.481C463.077 102.644 461.251 102.446 460.972 102.414C460.955 102.411 460.946 102.432 460.952 102.449C461.12 102.873 461.303 103.21 461.495 103.48C462.395 103.584 463.559 103.654 464.793 103.573Z" fill="white"/>
<path opacity="0.4" d="M471.186 100.602C471.186 101.65 470.335 102.501 469.287 102.501C468.239 102.501 467.388 101.65 467.388 100.602C467.388 99.5538 468.239 98.7031 469.287 98.7031C470.338 98.7031 471.186 99.5538 471.186 100.602Z" fill="#FE5B52"/>
<path d="M587.837 349.273H103V349.999H587.837V349.273Z" fill="#1B1B43"/>
</svg>
