<svg width="690" height="350" viewBox="0 0 690 350" fill="none" xmlns="http://www.w3.org/2000/svg">
<path d="M49 321.881L641.457 317.805" stroke="#E3DDFF" stroke-width="3" stroke-miterlimit="10"/>
<path d="M116.915 271.133C103.091 262.218 98.8113 270.389 93.0956 263.539C87.3799 256.689 91.5005 249.812 79.9007 243.706C73.4464 240.235 66.1523 238.63 58.8368 239.072C58.5215 246.788 59.9102 254.479 62.9043 261.598C68.0883 273.632 74.5218 268.616 80.9021 274.89C87.2824 281.164 78.8108 284.753 86.6355 299.224C94.4603 313.695 128.489 313.89 128.489 313.89C128.489 313.89 130.739 280.057 116.915 271.133Z" fill="#B0AFFF"/>
<path d="M58.8359 239.07L128.488 313.853" stroke="white" stroke-miterlimit="10"/>
<path d="M91.5859 304.681L115.849 300.223L121.308 275.438" stroke="white" stroke-miterlimit="10"/>
<path d="M83.2578 289.644L100.99 284.194L106.254 266.781" stroke="white" stroke-miterlimit="10"/>
<path d="M79.8047 273.881L89.2511 271.506L91.9007 261.883" stroke="white" stroke-miterlimit="10"/>
<path d="M65.8516 266.635L80.8187 262.417L84.5051 246.82" stroke="white" stroke-miterlimit="10"/>
<path d="M60.9023 255.978L71.5362 252.407L74.3985 241.312" stroke="white" stroke-miterlimit="10"/>
<path d="M570.654 277.173C584.478 268.258 588.75 276.42 594.474 269.579C600.199 262.737 596.069 255.843 607.66 249.746C614.116 246.269 621.414 244.661 628.733 245.103C629.048 252.823 627.656 260.517 624.657 267.638C619.473 279.663 613.048 274.656 606.659 280.93C600.27 287.204 608.75 290.793 600.934 305.264C593.118 319.735 559.046 319.895 559.046 319.895C559.046 319.895 556.821 286.088 570.654 277.173Z" fill="#B0AFFF"/>
<path d="M628.735 245.102L559.074 319.893" stroke="white" stroke-miterlimit="10"/>
<path d="M595.98 310.712L571.709 306.255L566.25 281.469" stroke="white" stroke-miterlimit="10"/>
<path d="M604.308 295.675L586.567 290.226L581.312 272.812" stroke="white" stroke-miterlimit="10"/>
<path d="M607.764 279.92L598.318 277.554L595.668 267.922" stroke="white" stroke-miterlimit="10"/>
<path d="M621.713 272.674L606.746 268.465L603.051 252.859" stroke="white" stroke-miterlimit="10"/>
<path d="M626.668 262.017L616.025 258.455L613.172 247.352" stroke="white" stroke-miterlimit="10"/>
<path d="M538.194 33.6875H157.457C152.627 33.6875 148.711 37.6034 148.711 42.4339V306.872C148.711 311.702 152.627 315.618 157.457 315.618H538.194C543.025 315.618 546.941 311.702 546.941 306.872V42.4339C546.941 37.6034 543.025 33.6875 538.194 33.6875Z" fill="#E3DDFF"/>
<path d="M165.229 24.5H530.423C534.803 24.5 539.005 26.2403 542.103 29.338C545.2 32.4357 546.941 36.6371 546.941 41.0179V49.9593H148.711V41.0179C148.711 36.6371 150.451 32.4357 153.549 29.338C156.647 26.2403 160.848 24.5 165.229 24.5Z" fill="#B5C0FF"/>
<path d="M288.578 72.5859H179.315C175.331 72.5859 172.102 75.8154 172.102 79.7992V139.446C172.102 143.43 175.331 146.66 179.315 146.66H288.578C292.562 146.66 295.791 143.43 295.791 139.446V79.7992C295.791 75.8154 292.562 72.5859 288.578 72.5859Z" fill="white"/>
<path d="M291.619 163.56H178.971C178.423 163.56 177.88 163.452 177.373 163.242C176.867 163.032 176.407 162.725 176.019 162.337C175.632 161.95 175.324 161.489 175.115 160.983C174.905 160.477 174.797 159.934 174.797 159.386C174.797 158.278 175.236 157.215 176.019 156.431C176.801 155.647 177.863 155.205 178.971 155.203H291.619C292.727 155.205 293.788 155.647 294.571 156.431C295.353 157.215 295.793 158.278 295.793 159.386C295.793 160.493 295.353 161.554 294.57 162.337C293.787 163.12 292.726 163.56 291.619 163.56Z" fill="white"/>
<path d="M291.619 181.098H178.971C178.423 181.098 177.88 180.99 177.373 180.78C176.867 180.57 176.407 180.263 176.019 179.875C175.632 179.488 175.324 179.027 175.115 178.521C174.905 178.015 174.797 177.472 174.797 176.924C174.797 175.817 175.237 174.755 176.019 173.972C176.802 173.19 177.864 172.75 178.971 172.75H291.619C292.726 172.75 293.787 173.19 294.57 173.972C295.353 174.755 295.793 175.817 295.793 176.924C295.793 178.031 295.353 179.092 294.57 179.875C293.787 180.658 292.726 181.098 291.619 181.098Z" fill="white"/>
<path d="M520.664 73.8984H428.132C425.147 73.8984 422.727 76.3186 422.727 79.304V255.764C422.727 258.75 425.147 261.17 428.132 261.17H520.664C523.65 261.17 526.07 258.75 526.07 255.764V79.304C526.07 76.3186 523.65 73.8984 520.664 73.8984Z" fill="white"/>
<path d="M485.107 43.7383C488.47 43.7383 491.195 41.0126 491.195 37.6504C491.195 34.2881 488.47 31.5625 485.107 31.5625C481.745 31.5625 479.02 34.2881 479.02 37.6504C479.02 41.0126 481.745 43.7383 485.107 43.7383Z" fill="#96A6EA"/>
<path d="M503.729 43.7383C507.091 43.7383 509.816 41.0126 509.816 37.6504C509.816 34.2881 507.091 31.5625 503.729 31.5625C500.366 31.5625 497.641 34.2881 497.641 37.6504C497.641 41.0126 500.366 43.7383 503.729 43.7383Z" fill="#96A6EA"/>
<path d="M522.346 43.7383C525.708 43.7383 528.434 41.0126 528.434 37.6504C528.434 34.2881 525.708 31.5625 522.346 31.5625C518.983 31.5625 516.258 34.2881 516.258 37.6504C516.258 41.0126 518.983 43.7383 522.346 43.7383Z" fill="#96A6EA"/>
<path d="M287.376 138.835H183.12L206.877 123.071L217.44 128.76C217.577 128.838 217.734 128.874 217.891 128.864C218.049 128.855 218.2 128.8 218.327 128.707L240.808 112.756L254.101 120.067C254.237 120.146 254.393 120.184 254.55 120.176C254.708 120.168 254.859 120.115 254.987 120.022L282.298 101.626C282.443 101.494 282.537 101.316 282.562 101.121C282.587 100.927 282.543 100.73 282.436 100.566C282.329 100.402 282.168 100.281 281.98 100.225C281.793 100.169 281.591 100.182 281.412 100.261L254.517 118.374L241.225 111.063C241.088 110.986 240.931 110.949 240.774 110.959C240.617 110.968 240.465 111.023 240.339 111.117L217.848 127.067L207.241 121.387C207.111 121.317 206.967 121.281 206.82 121.281C206.673 121.281 206.528 121.317 206.399 121.387L182.207 137.435V82.7773C182.207 82.5587 182.12 82.3491 181.965 82.1945C181.811 82.04 181.601 81.9531 181.383 81.9531C181.164 81.9531 180.955 82.04 180.8 82.1945C180.645 82.3491 180.559 82.5587 180.559 82.7773V140.457H287.376C287.594 140.457 287.804 140.37 287.959 140.216C288.113 140.061 288.2 139.852 288.2 139.633C288.2 139.414 288.113 139.205 287.959 139.05C287.804 138.896 287.594 138.809 287.376 138.809V138.835Z" fill="#E3DDFF"/>
<path d="M183.316 81.9704C183.316 82.3652 183.199 82.751 182.979 83.0791C182.76 83.4072 182.448 83.6627 182.083 83.8133C181.718 83.964 181.317 84.003 180.93 83.9253C180.543 83.8476 180.187 83.6569 179.909 83.3771C179.63 83.0974 179.441 82.7413 179.365 82.3539C179.289 81.9666 179.33 81.5654 179.482 81.2013C179.635 80.8371 179.892 80.5263 180.221 80.3083C180.55 80.0903 180.936 79.9748 181.331 79.9766C181.592 79.9766 181.851 80.0282 182.093 80.1285C182.334 80.2288 182.553 80.3758 182.738 80.5611C182.922 80.7464 183.068 80.9662 183.167 81.2081C183.267 81.4499 183.317 81.709 183.316 81.9704Z" fill="#B5C0FF"/>
<path d="M289.652 139.665C289.653 140.059 289.538 140.446 289.32 140.775C289.102 141.104 288.791 141.361 288.427 141.513C288.063 141.665 287.662 141.706 287.274 141.63C286.887 141.554 286.531 141.365 286.251 141.087C285.971 140.808 285.781 140.453 285.703 140.066C285.625 139.679 285.664 139.277 285.815 138.913C285.966 138.548 286.221 138.236 286.549 138.016C286.877 137.797 287.263 137.68 287.658 137.68C288.185 137.68 288.691 137.889 289.065 138.261C289.438 138.633 289.649 139.137 289.652 139.665Z" fill="#B5C0FF"/>
<path d="M209.182 122.358C209.182 122.762 209.062 123.156 208.838 123.491C208.614 123.826 208.296 124.087 207.924 124.241C207.551 124.396 207.141 124.436 206.746 124.357C206.351 124.279 205.987 124.085 205.702 123.8C205.417 123.515 205.223 123.151 205.145 122.756C205.066 122.361 205.106 121.951 205.261 121.579C205.415 121.206 205.676 120.888 206.011 120.664C206.346 120.44 206.741 120.32 207.144 120.32C207.412 120.319 207.677 120.371 207.925 120.473C208.173 120.575 208.398 120.725 208.587 120.915C208.777 121.104 208.927 121.329 209.029 121.577C209.131 121.825 209.183 122.091 209.182 122.358Z" fill="#B5C0FF"/>
<path d="M242.854 112.187C242.854 112.59 242.734 112.984 242.51 113.32C242.285 113.655 241.966 113.916 241.593 114.07C241.22 114.224 240.81 114.264 240.415 114.185C240.019 114.106 239.656 113.911 239.371 113.625C239.086 113.339 238.893 112.975 238.815 112.579C238.738 112.183 238.779 111.773 238.935 111.4C239.091 111.028 239.353 110.711 239.69 110.488C240.026 110.265 240.421 110.147 240.824 110.148C241.363 110.151 241.88 110.367 242.26 110.749C242.64 111.131 242.854 111.648 242.854 112.187Z" fill="#B5C0FF"/>
<path d="M219.877 128.054C219.877 128.457 219.758 128.851 219.534 129.186C219.31 129.521 218.991 129.783 218.619 129.937C218.247 130.091 217.837 130.131 217.441 130.053C217.046 129.974 216.683 129.78 216.398 129.495C216.113 129.21 215.919 128.847 215.84 128.451C215.761 128.056 215.802 127.646 215.956 127.274C216.11 126.901 216.371 126.583 216.707 126.359C217.042 126.135 217.436 126.016 217.839 126.016C218.107 126.016 218.372 126.068 218.619 126.171C218.866 126.273 219.091 126.423 219.28 126.613C219.469 126.802 219.62 127.027 219.722 127.274C219.824 127.521 219.877 127.786 219.877 128.054Z" fill="#B5C0FF"/>
<path d="M256.557 118.991C256.557 119.395 256.437 119.789 256.213 120.125C255.988 120.46 255.669 120.721 255.297 120.875C254.924 121.029 254.513 121.069 254.118 120.99C253.722 120.91 253.359 120.715 253.074 120.429C252.79 120.143 252.596 119.779 252.519 119.383C252.441 118.988 252.483 118.577 252.638 118.205C252.794 117.833 253.056 117.515 253.393 117.292C253.729 117.069 254.124 116.951 254.527 116.953C254.795 116.953 255.059 117.006 255.306 117.108C255.553 117.211 255.777 117.361 255.966 117.551C256.154 117.74 256.303 117.965 256.405 118.212C256.506 118.459 256.558 118.724 256.557 118.991Z" fill="#B5C0FF"/>
<path d="M283.834 100.928C283.836 101.331 283.718 101.726 283.495 102.062C283.272 102.399 282.954 102.661 282.582 102.817C282.21 102.973 281.8 103.014 281.404 102.937C281.008 102.859 280.644 102.666 280.358 102.381C280.072 102.096 279.877 101.733 279.798 101.337C279.718 100.942 279.758 100.532 279.912 100.159C280.066 99.7857 280.327 99.4669 280.663 99.2426C280.998 99.0182 281.392 98.8984 281.796 98.8984C282.335 98.8984 282.852 99.1119 283.234 99.4923C283.616 99.8726 283.832 100.389 283.834 100.928Z" fill="#B5C0FF"/>
<path d="M573.775 248.878C573.163 241.062 568.679 236.073 573.518 229.958C578.356 223.844 580.226 214.141 574.12 206.794V206.75C564.807 208.841 560.367 217.676 560.456 225.457C560.544 233.237 553.951 234.469 548.688 240.282C543.424 246.095 544.594 251.519 545.941 263.623C547.288 275.728 538.373 277.022 537.079 288.844C536.14 297.235 538.913 308.826 539.525 308.463C539.782 309.119 549.051 301.648 553.429 294.426C559.632 284.244 553.322 277.775 561.785 269.02C570.248 260.265 574.386 256.685 573.775 248.878Z" fill="#C5C5FF"/>
<path d="M587.828 265.98C588.217 258.554 584.62 253.317 589.928 248.159C595.236 243.002 598.196 234.131 593.366 226.466V226.422C584.345 227.237 579.081 234.991 578.195 242.32C577.309 249.648 570.929 249.994 565.248 254.77C559.568 259.546 560.002 264.828 559.772 276.374C559.541 287.921 550.999 288.027 548.252 298.98C546.32 306.743 547.499 317.988 548.119 317.714C548.278 318.369 557.92 312.494 562.927 306.247C570.016 297.447 564.894 290.58 573.924 283.393C582.954 276.206 587.402 273.379 587.828 265.98Z" fill="#C5C5FF"/>
<path d="M115.727 248.878C116.339 241.062 120.823 236.073 115.984 229.958C111.146 223.844 109.276 214.141 115.382 206.794V206.75C124.704 208.841 129.135 217.676 129.046 225.457C128.957 233.237 135.55 234.469 140.814 240.282C146.078 246.095 144.908 251.519 143.561 263.623C142.214 275.728 151.129 277.022 152.467 288.844C153.407 297.235 150.633 308.826 150.021 308.463C149.764 309.119 140.495 301.648 136.118 294.426C129.915 284.244 136.224 277.775 127.761 269.02C119.298 260.265 115.08 256.685 115.727 248.878Z" fill="#C5C5FF"/>
<path d="M101.676 265.98C101.286 258.554 104.884 253.317 99.5756 248.159C94.2675 243.002 91.3166 234.131 96.1373 226.466V226.422C105.158 227.237 110.422 234.991 111.308 242.32C112.194 249.648 118.628 249.994 124.237 254.77C129.847 259.546 129.483 264.828 129.714 276.374C129.944 287.921 138.487 288.027 141.234 298.98C143.166 306.743 141.987 317.988 141.367 317.714C141.207 318.369 131.566 312.494 126.559 306.247C119.47 297.447 124.592 290.58 115.562 283.393C106.532 276.206 102.066 273.379 101.676 265.98Z" fill="#C5C5FF"/>
<path d="M85.6328 319.688H253.32C253.32 319.688 251.548 306.609 231.051 300.246C212.911 294.61 195.339 306.254 195.339 306.254C195.339 306.254 179.494 280.086 146.184 280.086C97.7023 280.086 85.6328 319.688 85.6328 319.688Z" fill="#8E8EED"/>
<path d="M105.359 298.828L129.64 319.688" stroke="white" stroke-miterlimit="10"/>
<path d="M131.641 287.977L139.536 319.683" stroke="white" stroke-miterlimit="10"/>
<path d="M158.872 291.172L150.383 319.688" stroke="white" stroke-miterlimit="10"/>
<path d="M177.141 304.602L163.707 319.684" stroke="white" stroke-miterlimit="10"/>
<path d="M205.723 309.25L214.735 319.68" stroke="white" stroke-miterlimit="10"/>
<path d="M222.516 303.828V319.681" stroke="white" stroke-miterlimit="10"/>
<path d="M238.959 310.5L231.188 319.689" stroke="white" stroke-miterlimit="10"/>
<path d="M407.367 319.688H574.992C574.992 319.688 573.22 306.609 552.714 300.246C534.575 294.61 517.002 306.254 517.002 306.254C517.002 306.254 501.158 280.086 467.856 280.086C419.428 280.086 407.367 319.688 407.367 319.688Z" fill="#8E8EED"/>
<path d="M427.094 298.828L451.374 319.688" stroke="white" stroke-miterlimit="10"/>
<path d="M453.379 287.977L461.275 319.683" stroke="white" stroke-miterlimit="10"/>
<path d="M480.603 291.172L472.113 319.688" stroke="white" stroke-miterlimit="10"/>
<path d="M498.877 304.602L485.434 319.684" stroke="white" stroke-miterlimit="10"/>
<path d="M527.453 309.25L536.465 319.68" stroke="white" stroke-miterlimit="10"/>
<path d="M544.25 303.828V319.681" stroke="white" stroke-miterlimit="10"/>
<path d="M560.695 310.5L552.914 319.689" stroke="white" stroke-miterlimit="10"/>
<path d="M263.678 267.001C250.323 247.098 239.885 255.561 236.207 243.075C232.529 230.589 241.994 223.775 230.004 208.931C218.528 194.753 204.491 190.57 204.491 190.57C199.614 200.718 197.036 211.816 196.941 223.075C196.941 242.162 208.461 239.158 213.388 251.183C218.315 263.209 204.899 263.182 207.026 287.055C209.153 310.928 254.577 330.831 254.577 330.831C254.577 330.831 277.041 286.913 263.678 267.001Z" fill="#B0AFFF"/>
<path d="M204.449 190.602L254.535 330.862" stroke="white" stroke-miterlimit="10"/>
<path d="M210.441 297.291L245.489 305.32L267.085 275.297" stroke="white" stroke-miterlimit="10"/>
<path d="M207.969 272.364L234.846 275.298L251.931 255.031" stroke="white" stroke-miterlimit="10"/>
<path d="M212.426 249.285L226.436 251.563L235.537 240.211" stroke="white" stroke-miterlimit="10"/>
<path d="M197.934 231.537L220.398 234.532L234.328 215.781" stroke="white" stroke-miterlimit="10"/>
<path d="M197.457 214.41L213.753 215.775L223.98 202.562" stroke="white" stroke-miterlimit="10"/>
<path d="M318.492 271.773L322.267 284.188H370.997L374.364 272.952L318.492 271.773Z" fill="#C65A4B"/>
<path d="M278.514 302.078H417.135C418.881 302.078 420.556 302.772 421.791 304.007C423.026 305.241 423.719 306.916 423.719 308.662V317.896H271.93V308.662C271.93 306.916 272.623 305.241 273.858 304.007C275.093 302.772 276.768 302.078 278.514 302.078Z" fill="#8E8EED"/>
<path d="M256.07 317.906H445.92C446.759 317.906 447.564 318.24 448.157 318.833C448.75 319.426 449.083 320.231 449.083 321.07V333.095H252.906V321.07C252.906 320.231 253.24 319.426 253.833 318.833C254.426 318.24 255.231 317.906 256.07 317.906Z" fill="#7C7CD1"/>
<path d="M379.077 118.983C379.081 126.147 376.96 133.152 372.982 139.111C369.005 145.07 363.35 149.716 356.733 152.461C350.115 155.207 342.832 155.928 335.804 154.534C328.777 153.141 322.32 149.695 317.251 144.632C312.182 139.569 308.728 133.116 307.326 126.09C305.923 119.065 306.636 111.781 309.373 105.16C312.11 98.5387 316.75 92.8781 322.704 88.8936C328.658 84.909 335.66 82.7795 342.824 82.7742C347.59 82.7425 352.315 83.6571 356.725 85.4649C361.135 87.2728 365.142 89.9379 368.514 93.3059C371.886 96.6739 374.556 100.678 376.369 105.085C378.183 109.493 379.103 114.217 379.077 118.983Z" fill="#E5CFA5"/>
<path d="M381.929 116.209C381.929 123.044 379.902 129.726 376.104 135.41C372.307 141.093 366.909 145.523 360.594 148.138C354.279 150.754 347.33 151.439 340.626 150.105C333.922 148.772 327.764 145.48 322.931 140.647C318.098 135.813 314.806 129.655 313.473 122.951C312.139 116.247 312.824 109.299 315.439 102.984C318.055 96.6685 322.485 91.2709 328.168 87.4734C333.852 83.6759 340.533 81.649 347.369 81.649C351.914 81.6231 356.42 82.4994 360.625 84.227C364.83 85.9547 368.65 88.4994 371.864 91.7138C375.078 94.9281 377.623 98.7483 379.351 102.953C381.078 107.158 381.955 111.663 381.929 116.209Z" fill="#FFAB26"/>
<path d="M371.953 116.209C371.957 119.575 371.266 122.906 369.925 125.994C368.583 129.081 366.619 131.859 364.155 134.153C357.25 131.233 350.676 127.585 344.545 123.271C335.364 116.953 329.241 111.007 325.129 105.849C327.486 100.777 331.503 96.6612 336.517 94.1829C341.531 91.7046 347.241 91.0122 352.702 92.2204C358.163 93.4285 363.048 96.4648 366.549 100.827C370.05 105.189 371.956 110.615 371.953 116.209Z" fill="white"/>
<path d="M393.335 54.1038C389.613 52.8809 385.501 51.7112 381.035 50.6655C374.504 21.8832 357.791 0.961023 357.215 0.234375C374.389 12.0203 386.183 24.0897 392.324 49.2477C392.679 50.8959 393.016 52.5264 393.335 54.1038Z" fill="#FF9A8D"/>
<path d="M364.155 134.155C359.986 138.024 354.604 140.325 348.927 140.666C343.25 141.007 337.631 139.367 333.029 136.026C328.426 132.686 325.126 127.851 323.692 122.348C322.258 116.844 322.778 111.014 325.165 105.852C329.276 111.009 335.4 116.955 344.58 123.273C350.701 127.585 357.263 131.233 364.155 134.155Z" fill="#FFF5DF"/>
<path d="M374.545 137.536C368.917 144.426 360.849 148.88 352.021 149.972C343.192 151.064 334.282 148.709 327.146 143.398C320.009 138.087 315.196 130.229 313.707 121.459C312.217 112.688 314.168 103.681 319.151 96.3125C320.743 99.7155 322.739 102.914 325.097 105.839C323.577 109.08 322.793 112.618 322.802 116.198C322.801 120.984 324.199 125.666 326.824 129.668C329.449 133.671 333.186 136.819 337.576 138.725C341.966 140.632 346.818 141.214 351.534 140.399C356.251 139.585 360.627 137.41 364.124 134.143C367.497 135.561 370.983 136.696 374.545 137.536Z" fill="#DD9122"/>
<path d="M143.046 226.984L139.52 312.321" stroke="#BF7A00" stroke-linecap="round" stroke-linejoin="round"/>
<path d="M163.438 226.984L173.522 306.189" stroke="#BF7A00" stroke-linecap="round" stroke-linejoin="round"/>
<path d="M150.145 236.694L151.917 226.158C151.917 226.158 154.797 222.152 157.322 221.328" stroke="#BF7A00" stroke-linecap="round" stroke-linejoin="round"/>
<path d="M132.27 213.787C132.27 213.787 148.965 215.374 161.123 212.547" stroke="#BF7A00" stroke-linecap="round" stroke-linejoin="round"/>
<path d="M382.84 61.2667C382.397 57.6334 381.759 54.0888 380.988 50.6328C385.419 51.6785 389.566 52.8482 393.288 54.0711C397.71 79.3088 386.837 93.8684 382.84 61.2667Z" fill="white"/>
<path d="M129.329 89.2538V80.8353L122.984 79.5504C122.753 78.864 122.481 78.1923 122.169 77.5388L126.219 72.3548L120.707 65.9745L114.654 69.3862C113.653 68.8252 112.599 68.3622 111.509 68.0038L110.108 60.9766H101.69L100.272 68.0038C99.2302 68.3416 98.2216 68.7747 97.2591 69.2976L90.5332 65.5048L85.0213 71.8851L89.5319 77.6717C89.3546 78.0794 89.1863 78.5047 89.0267 78.9301L81.9375 80.3657V88.793L88.6989 90.1311C88.9168 90.8657 89.1832 91.5851 89.4964 92.2845L84.7643 98.3458L90.2674 104.717L97.2769 100.774C97.9236 101.108 98.5893 101.404 99.2707 101.66L100.866 109.68H109.284L110.791 102.245C111.703 101.976 112.591 101.635 113.449 101.226L120.406 105.151L125.917 98.7711L121.708 93.3744C122.199 92.4487 122.608 91.4821 122.931 90.4856L129.329 89.2538ZM105.899 94.1808C104.089 94.1756 102.322 93.634 100.82 92.6246C99.3178 91.6152 98.1486 90.1831 97.4601 88.5095C96.7716 86.8359 96.5946 84.9957 96.9516 83.2215C97.3085 81.4473 98.1833 79.8187 99.4654 78.5415C100.748 77.2643 102.38 76.3958 104.155 76.0458C105.931 75.6957 107.77 75.8798 109.441 76.5748C111.112 77.2698 112.54 78.4444 113.543 79.9504C114.547 81.4563 115.081 83.226 115.08 85.0357C115.08 86.2397 114.842 87.4317 114.38 88.5436C113.918 89.6555 113.242 90.6652 112.389 91.5149C111.536 92.3645 110.523 93.0374 109.41 93.4949C108.296 93.9524 107.103 94.1855 105.899 94.1808Z" fill="#FF9A8D"/>
<path d="M110.8 155.234V150.919L107.548 150.263C107.437 149.911 107.3 149.568 107.14 149.235L109.214 146.577L106.396 143.316L103.294 145.088C102.785 144.798 102.247 144.56 101.69 144.379L100.972 140.781H96.6657L95.9391 144.379C95.4051 144.551 94.8888 144.773 94.3972 145.044L90.9589 143.121L88.1409 146.382L90.4538 149.324C90.3563 149.536 90.2677 149.749 90.1879 149.971L86.5547 150.697V155.013L90.0196 155.695C90.129 156.074 90.2652 156.444 90.4272 156.803L88.008 159.896L90.826 163.157L94.3706 161.136C94.6998 161.317 95.0402 161.477 95.3897 161.615L96.2049 165.718H100.521L101.283 161.907C101.756 161.773 102.219 161.601 102.665 161.393L106.21 163.396L109.028 160.135L106.874 157.379C107.126 156.906 107.334 156.41 107.495 155.899L110.8 155.234ZM98.8102 157.751C97.8852 157.749 96.9815 157.473 96.2132 156.958C95.4449 156.443 94.8466 155.712 94.4938 154.857C94.141 154.002 94.0496 153.061 94.2312 152.154C94.4127 151.247 94.859 150.414 95.5137 149.761C96.1684 149.107 97.0022 148.662 97.9095 148.483C98.8169 148.303 99.7572 148.396 100.612 148.75C101.466 149.105 102.196 149.704 102.71 150.474C103.224 151.243 103.498 152.147 103.498 153.072C103.498 153.687 103.377 154.297 103.141 154.865C102.905 155.433 102.56 155.949 102.124 156.384C101.689 156.818 101.172 157.163 100.603 157.398C100.035 157.632 99.4254 157.752 98.8102 157.751Z" fill="#E3DDFF"/>
<path d="M596.715 84.5704V80.2637L593.472 79.6079C593.355 79.2553 593.219 78.9093 593.065 78.5711L595.129 75.9127L592.32 72.6516L589.219 74.4239C588.705 74.1359 588.165 73.8985 587.606 73.715L586.897 70.1172H582.581L581.863 73.715C581.33 73.889 580.814 74.1115 580.322 74.3796L576.874 72.4389L574.11 75.6822L576.414 78.642C576.316 78.8547 576.236 79.0674 576.157 79.2889L572.523 80.0244V84.3311L575.979 85.0223C576.093 85.3966 576.229 85.7635 576.387 86.1212L573.968 89.2139L576.786 92.4838L580.33 90.4633C580.661 90.6394 581.001 90.7962 581.35 90.933L582.165 95.0359H586.516L587.287 91.2343C587.761 91.0972 588.223 90.9223 588.669 90.7115L592.214 92.723L595.032 89.4531L592.878 86.6972C593.13 86.2225 593.34 85.7275 593.508 85.2173L596.715 84.5704ZM584.744 87.0871C583.818 87.0871 582.913 86.8127 582.144 86.2985C581.375 85.7844 580.775 85.0537 580.421 84.1987C580.067 83.3438 579.974 82.403 580.155 81.4954C580.335 80.5878 580.781 79.754 581.435 79.0997C582.089 78.4453 582.923 77.9997 583.831 77.8192C584.738 77.6386 585.679 77.7313 586.534 78.0854C587.389 78.4396 588.12 79.0393 588.634 79.8087C589.148 80.5782 589.422 81.4828 589.422 82.4082C589.424 83.0229 589.303 83.6319 589.069 84.2001C588.834 84.7683 588.489 85.2845 588.055 85.7193C587.62 86.154 587.104 86.4986 586.535 86.7333C585.967 86.968 585.358 87.0882 584.744 87.0871Z" fill="#E3DDFF"/>
<path d="M618.862 136.582V129.688L613.669 128.642C613.487 128.08 613.271 127.53 613.022 126.994L616.328 122.758L611.826 117.538L606.899 120.33C606.078 119.869 605.214 119.489 604.32 119.195L603.177 113.453H596.265L595.104 119.187C594.253 119.466 593.428 119.822 592.641 120.25L587.138 117.148L582.636 122.359L586.322 127.091C586.172 127.428 586.039 127.773 585.915 128.128L580.102 129.298V136.192L585.64 137.291C585.814 137.896 586.03 138.488 586.287 139.063L582.423 143.999L586.925 149.218L592.658 145.993C593.186 146.276 593.731 146.527 594.289 146.746L595.592 153.304H602.468L603.691 147.216C604.449 147.005 605.187 146.729 605.898 146.392L611.587 149.599L616.088 144.389L612.65 139.958C613.052 139.197 613.387 138.402 613.651 137.583L618.862 136.582ZM599.694 140.605C598.213 140.605 596.765 140.166 595.533 139.342C594.302 138.519 593.342 137.349 592.776 135.98C592.209 134.612 592.061 133.106 592.351 131.653C592.641 130.2 593.355 128.866 594.403 127.819C595.451 126.772 596.786 126.06 598.239 125.772C599.692 125.484 601.198 125.633 602.566 126.201C603.934 126.77 605.103 127.731 605.925 128.963C606.747 130.196 607.184 131.644 607.182 133.126C607.182 134.109 606.989 135.082 606.612 135.99C606.236 136.898 605.684 137.723 604.989 138.417C604.293 139.112 603.468 139.663 602.559 140.038C601.651 140.414 600.677 140.606 599.694 140.605Z" fill="#FF9A8D"/>
<path d="M279.324 43.0529C282.305 25.2365 270.279 8.37657 252.462 5.39513C234.646 2.41369 217.786 14.4398 214.805 32.2562C211.823 50.0726 223.849 66.9326 241.666 69.914C259.482 72.8954 276.342 60.8693 279.324 43.0529Z" fill="white"/>
<path d="M279.324 43.0529C282.305 25.2365 270.279 8.37657 252.462 5.39513C234.646 2.41369 217.786 14.4398 214.805 32.2562C211.823 50.0726 223.849 66.9326 241.666 69.914C259.482 72.8954 276.342 60.8693 279.324 43.0529Z" stroke="#FF684F" stroke-linecap="round" stroke-linejoin="round" stroke-dasharray="8.92 8.92"/>
<path d="M454.395 126.213C467.502 126.213 478.127 115.588 478.127 102.481C478.127 89.3748 467.502 78.75 454.395 78.75C441.289 78.75 430.664 89.3748 430.664 102.481C430.664 115.588 441.289 126.213 454.395 126.213Z" stroke="#FF684F" stroke-linecap="round" stroke-linejoin="round" stroke-dasharray="9.35 9.35"/>
<path d="M454.398 120.626C453.865 120.626 453.336 120.52 452.843 120.316C452.35 120.111 451.902 119.812 451.525 119.434C451.148 119.056 450.85 118.608 450.646 118.114C450.443 117.621 450.339 117.092 450.34 116.558V111.711H458.457V116.532C458.462 117.068 458.36 117.599 458.158 118.096C457.956 118.592 457.658 119.044 457.281 119.424C456.904 119.805 456.455 120.107 455.96 120.313C455.465 120.52 454.934 120.626 454.398 120.626Z" fill="#FF785D"/>
<path d="M466.709 97.6716C466.709 99.7376 466.188 101.77 465.195 103.582C464.203 105.394 462.77 106.927 461.029 108.04V108.66C461.032 109.3 460.902 109.934 460.648 110.521C460.283 111.393 459.666 112.136 458.877 112.657C458.088 113.177 457.163 113.452 456.217 113.445H452.549C451.919 113.446 451.296 113.323 450.715 113.083C450.133 112.843 449.604 112.491 449.159 112.047C448.714 111.602 448.361 111.074 448.12 110.493C447.879 109.912 447.754 109.289 447.754 108.66V108.04C445.954 106.889 444.483 105.289 443.489 103.397C442.494 101.505 442.009 99.3872 442.081 97.2512C442.154 95.1151 442.781 93.0348 443.902 91.2148C445.022 89.3948 446.597 87.898 448.472 86.8716C450.347 85.8452 452.456 85.3247 454.593 85.3612C456.73 85.3977 458.821 85.99 460.659 87.0798C462.498 88.1696 464.021 89.7194 465.079 91.5765C466.136 93.4337 466.692 95.5343 466.692 97.6716H466.709Z" fill="#FFAB26"/>
<path d="M459.141 89.3279C460.762 89.7556 462.172 90.7605 463.105 92.1539C464.038 93.5472 464.431 95.2333 464.209 96.8956C463.633 103.116 456.252 88.9468 459.141 89.3279Z" fill="white"/>
<path d="M451.25 111.905L454.396 102.477L457.604 111.905" stroke="#FF785D" stroke-miterlimit="10"/>
<path d="M233.66 57.8273V17.8617C233.66 16.8064 234.079 15.7944 234.826 15.0482C235.572 14.302 236.584 13.8828 237.639 13.8828H257.551C258.074 13.8817 258.593 13.9837 259.076 14.1831C259.56 14.3826 260 14.6755 260.37 15.0451C260.741 15.4146 261.034 15.8537 261.235 16.337C261.435 16.8203 261.539 17.3384 261.539 17.8617V57.8273C261.539 58.3505 261.435 58.8687 261.235 59.352C261.034 59.8353 260.741 60.2743 260.37 60.6439C260 61.0135 259.56 61.3064 259.076 61.5058C258.593 61.7052 258.074 61.8073 257.551 61.8061H237.639C237.116 61.8061 236.599 61.7032 236.116 61.5033C235.634 61.3033 235.195 61.0102 234.826 60.6408C234.456 60.2713 234.163 59.8327 233.963 59.3499C233.763 58.8672 233.66 58.3498 233.66 57.8273Z" fill="#FFAB26"/>
<path d="M257.165 17.1562H238.024C237.036 17.1562 236.234 17.9577 236.234 18.9463V56.6434C236.234 57.632 237.036 58.4334 238.024 58.4334H257.165C258.154 58.4334 258.955 57.632 258.955 56.6434V18.9463C258.955 17.9577 258.154 17.1562 257.165 17.1562Z" fill="#FFF0CF"/>
<path d="M249.597 15.9688H244.909C244.258 15.9688 243.73 16.4964 243.73 17.1473V17.1562C243.73 17.8071 244.258 18.3348 244.909 18.3348H249.597C250.248 18.3348 250.775 17.8071 250.775 17.1562V17.1473C250.775 16.4964 250.248 15.9688 249.597 15.9688Z" fill="#FFAB26"/>
<path d="M256.255 38.8505C257.245 34.639 254.634 30.4222 250.422 29.432C246.211 28.4419 241.994 31.0534 241.004 35.2649C240.014 39.4765 242.625 43.6933 246.837 44.6834C251.048 45.6736 255.265 43.0621 256.255 38.8505Z" fill="white"/>
<path d="M237.688 41.3341L254.117 28.5469L252.602 46.7662L246.141 41.1923L237.688 41.3341Z" fill="#FFAB26"/>
<path d="M246.142 41.1923L254.118 28.5469L244.148 41.2278L246.142 41.1923Z" fill="#DD9122"/>
<path d="M244.148 41.2229L245.903 45.5828L247.853 42.6674L246.142 41.1875L244.148 41.2229Z" fill="#DD9122"/>
<path d="M136.756 318.438L137.111 325.544L133.734 335.469H145.308L144.661 325.403L144.519 318.438H136.756Z" fill="#A3665B"/>
<path d="M168.305 317.211L169.598 323.822V332.949L185.337 334.668L186.772 330.432L176.998 324.539L175.997 317.636L168.305 317.211Z" fill="#A3665B"/>
<path d="M135.886 329.164C137.032 328.329 138.432 327.915 139.848 327.994C142.506 327.994 144.42 329.686 144.899 329.164C144.899 329.164 146.6 336.333 146.024 338.131C145.448 339.93 140.636 339.904 138.12 339.992C135.603 340.081 133.308 338.699 132.944 337.697C132.581 336.696 135.594 330.023 135.886 329.164Z" fill="#00363F"/>
<path d="M169.597 327.431C171.407 328.268 173.358 328.755 175.348 328.867C178.078 328.867 177.581 326.147 179.088 325.819C180.594 325.491 189.358 331.029 190.794 333.395C192.23 335.761 189.571 336.559 184.972 336.125C180.373 335.69 174.631 334.689 174.631 334.689C174.631 334.689 169.092 333.688 168.303 333.183C167.515 332.677 169.597 327.431 169.597 327.431Z" fill="#00363F"/>
<path d="M153.264 147.614L151.643 148.021L151.43 150.432L150.916 156.165L140.424 154.845L140.947 146.559L140.061 132.717C139.947 130.966 140.383 129.223 141.307 127.731C142.232 126.239 143.599 125.074 145.218 124.396C146.131 124.014 147.07 123.697 148.027 123.448C148.222 123.395 148.417 123.351 148.621 123.315C149.737 123.118 150.881 123.15 151.985 123.408C153.088 123.667 154.127 124.148 155.039 124.821C155.951 125.494 156.716 126.345 157.289 127.324C157.861 128.302 158.229 129.386 158.369 130.511L159.441 138.539C159.71 140.547 159.228 142.583 158.088 144.258C156.948 145.932 155.231 147.127 153.264 147.614Z" fill="#A3665B"/>
<path d="M187.417 190.139L181.365 194.136L177.82 196.458C174.6 193.768 171.778 190.635 169.437 187.153C169.26 186.896 169.083 186.621 168.914 186.347C167.646 193.035 166.016 199.649 164.032 206.161C163.145 209.094 162.534 210.831 162.534 210.831H131.465C128.169 203.721 125.409 196.375 123.206 188.854L119.298 197.556L106.219 196.289C108.053 184.273 115.568 167.135 119.254 159.221C119.876 157.883 120.79 156.701 121.927 155.761C123.065 154.822 124.398 154.148 125.829 153.789L140.779 149.961L150.934 155.579L151.386 150.572L165.449 155.526C168.3 156.527 170.67 158.564 172.087 161.233L187.417 190.139Z" fill="#005F78"/>
<path d="M164.05 206.161C163.164 209.094 162.552 210.831 162.552 210.831H131.466C128.17 203.721 125.409 196.375 123.207 188.854L128.17 175.367C128.17 175.367 129.614 190.255 141.107 198.664C149.242 204.619 159.034 205.913 164.05 206.161Z" fill="#004E60"/>
<path d="M181.365 194.134L177.82 196.456C174.6 193.766 171.778 190.633 169.437 187.151L169.216 182.348L168.25 160.93C168.476 163.174 168.825 165.405 169.296 167.611C170.74 174.727 174.072 186.052 181.365 194.134Z" fill="#004E60"/>
<path d="M145.686 180.212L143.028 203.633C143.013 203.736 143.019 203.841 143.045 203.942C143.071 204.043 143.118 204.137 143.181 204.22C143.245 204.303 143.325 204.372 143.415 204.423C143.506 204.474 143.606 204.507 143.71 204.519L158.854 206.22C158.956 206.236 159.061 206.232 159.161 206.207C159.261 206.182 159.356 206.138 159.438 206.076C159.521 206.014 159.59 205.936 159.642 205.846C159.694 205.757 159.727 205.658 159.74 205.556L162.718 182.108C162.735 182.005 162.732 181.9 162.707 181.798C162.682 181.697 162.637 181.602 162.573 181.519C162.51 181.436 162.431 181.366 162.34 181.315C162.249 181.264 162.148 181.232 162.044 181.222L146.537 179.449C146.43 179.438 146.322 179.45 146.219 179.483C146.117 179.516 146.023 179.57 145.943 179.642C145.862 179.714 145.798 179.802 145.754 179.9C145.71 179.998 145.687 180.104 145.686 180.212Z" fill="#FFE2B6"/>
<path d="M162.526 192.979L156.235 193.218L156.013 192.766C156.013 192.766 156.713 192.598 157.741 192.288C158.769 191.978 159.584 191.402 159.301 191.065C159.017 190.728 155.605 191.18 154.507 192.049C153.522 192.993 152.661 194.059 151.946 195.221C148.986 194.849 125.547 192.022 118.272 193.103C110.403 194.246 106.22 196.284 106.22 196.284C106.025 197.445 108.958 204.331 121.169 204.472C132.184 204.605 150.005 201.105 153.417 200.414C153.656 200.414 159.62 200.095 160.453 199.421C160.684 199.274 160.864 199.058 160.967 198.804C161.07 198.55 161.092 198.27 161.029 198.003C161.152 197.929 161.258 197.829 161.342 197.712C161.426 197.595 161.486 197.462 161.517 197.322C161.548 197.181 161.551 197.036 161.525 196.894C161.499 196.752 161.445 196.617 161.365 196.497C161.515 196.414 161.647 196.302 161.753 196.167C161.859 196.033 161.936 195.878 161.981 195.712C162.025 195.547 162.036 195.374 162.013 195.205C161.989 195.035 161.932 194.872 161.844 194.725C161.844 194.725 162.588 194.512 162.73 193.892C162.872 193.271 162.526 192.979 162.526 192.979Z" fill="#A3665B"/>
<path d="M213.612 170.158C213.054 170.158 211.512 171.833 210.838 172.612L210.67 172.346C211.751 171.265 214.392 167.694 213.603 167.659C212.814 167.623 210.271 170.68 209.908 171.124L209.624 170.663C210.812 169.431 213.452 165.833 212.637 165.798C211.822 165.762 209.394 168.66 208.818 169.342L208.676 169.121C209.819 167.809 211.6 165.328 210.945 165.328C210.289 165.328 208.215 167.632 207.949 167.987C207.05 168.782 206.206 169.637 205.424 170.548C205.185 168.882 204.812 167.118 204.467 167.092C203.926 167.092 203.855 167.198 203.891 168.961C203.891 170.299 204.05 172.435 204.121 173.392C203.421 173.773 190.04 181.199 185.246 186.046C182.246 189.117 179.752 192.643 177.855 196.494C189.375 204.071 205.628 179.356 207.152 176.999C208.466 176.202 209.706 175.288 210.856 174.269C210.904 174.253 210.948 174.229 210.989 174.199C211.167 174.047 211.336 173.884 211.494 173.711C212.478 172.541 214.197 170.184 213.612 170.158Z" fill="#A3665B"/>
<path d="M178.403 318.998H165.855L150.144 236.692L146.794 320.159H133.085C133.085 320.159 129.284 253.945 128.575 237.268C127.866 220.59 131.233 210.825 131.233 210.825L152.581 210.311L162.603 210.062C162.606 210.083 162.606 210.104 162.603 210.125C162.627 210.191 162.648 210.259 162.665 210.328C163.011 211.56 164.623 217.418 168.443 233.058C173.423 253.369 178.403 318.998 178.403 318.998Z" fill="#FFAB26"/>
<path d="M156.916 126.791C156.916 126.791 156.234 125.656 154.169 126.277C152.104 126.897 152.158 127.571 150.625 127.234C149.092 126.897 149.526 129.343 148.232 130.158C147.627 130.599 146.919 130.88 146.176 130.973C146.176 130.973 147.709 134.465 146.557 136.095C145.405 137.726 145.308 134.616 143.677 134.181C142.047 133.747 141.763 136.574 142.436 138.975C143.11 141.377 145.698 140.836 145.839 141.271C145.981 141.705 143.535 144.337 142.392 144.913C141.913 145.201 141.384 145.397 140.833 145.489C139.967 143.218 139.372 140.853 139.06 138.444C138.777 135.236 137.625 136.095 136.712 135.192C135.799 134.288 136.854 133.561 135.657 132.887C134.461 132.214 134.603 129.963 135.657 129.68C136.712 129.396 135.613 127.526 136.951 126.472C138.289 125.417 139.3 125.08 139.397 124.265C139.387 123.954 139.441 123.644 139.556 123.355C139.67 123.066 139.843 122.803 140.063 122.583C140.283 122.363 140.546 122.19 140.835 122.076C141.124 121.961 141.434 121.907 141.745 121.917C143.704 121.917 142.029 120.907 144.997 120.003C147.966 119.099 147.301 121.536 149.933 120.34C150.826 119.855 151.868 119.724 152.853 119.972C153.837 120.22 154.693 120.829 155.25 121.678C155.826 122.732 156.686 121.678 158.077 122.927C159.468 124.177 158.175 125.32 158.963 125.745C159.752 126.17 160.647 126.374 160.647 128.005C160.647 129.635 159.495 129.68 159.832 130.663C160.168 131.647 158.742 133.038 158.733 132.941C158.724 132.843 157.794 127.393 156.916 126.791Z" fill="#00363F"/>
<path d="M123.605 188.032C123.605 188.032 129.587 172.604 130.092 166.765C130.597 160.925 125.236 157.017 124.181 156.609" stroke="#014251" stroke-linecap="round" stroke-linejoin="round"/>
<path d="M167.363 158.703C170.908 165.606 168.896 186.351 168.896 186.351" stroke="#014251" stroke-linecap="round" stroke-linejoin="round"/>
<path d="M172.103 318.998H165.9L150.145 236.692C150.145 236.692 151.102 228.929 151.483 227.112C151.864 225.296 155.417 222.797 155.417 222.797C155.417 222.797 162.879 302.312 172.103 318.998Z" fill="#EA961B"/>
<path d="M162.585 210.062L162.674 210.328C159.289 211.427 142.691 212.367 136.745 232.172C129.93 254.813 142.532 320.159 142.532 320.159H133.085C133.085 320.159 129.284 253.945 128.575 237.268C127.866 220.59 131.233 210.825 131.233 210.825L152.581 210.311L162.585 210.062Z" fill="#EA961B"/>
<path d="M151.644 148.012L151.432 150.422C148.392 149.536 145.122 147.542 146.115 142.828C146.097 142.828 146.389 146.178 151.644 148.012Z" fill="#7F4F49"/>
<path d="M265.355 195.79C265.355 195.79 268.227 203.119 274.749 205.964C281.271 208.808 283.947 202.782 285.09 193.628C286.233 184.474 286.437 172.219 286.437 172.219H280.686L275.892 195.02L265.355 195.79Z" fill="#FF785D"/>
<path d="M264.693 161.187C272.305 165.884 275.708 183.811 279.757 193.629C276.275 195.968 272.25 197.372 268.069 197.706C261.432 198.104 258.676 195.215 258.676 195.215C258.676 195.215 259.066 157.722 264.693 161.187Z" fill="#DD9122"/>
<path d="M233.896 203.953L235.128 204.015L258.965 205.22C258.965 205.22 259.391 205.929 260.091 207.205C262.262 211.211 267.012 220.79 268.952 231.052C271.469 244.566 267.313 280.49 267.313 280.49H229.332C226.382 268.434 224.168 256.209 222.704 243.883C220.976 228.934 228.216 213.825 231.875 207.303" fill="#005F78"/>
<path d="M253.222 153.069L254.064 140.211C254.172 138.583 253.769 136.963 252.911 135.576C252.053 134.189 250.783 133.104 249.279 132.474C248.43 132.125 247.56 131.829 246.673 131.588L246.115 131.464C245.078 131.279 244.014 131.308 242.988 131.547C241.962 131.787 240.995 132.233 240.147 132.858C239.299 133.483 238.587 134.274 238.054 135.183C237.522 136.092 237.18 137.1 237.05 138.146L236.057 145.607C235.805 147.472 236.25 149.363 237.306 150.92C238.363 152.477 239.956 153.589 241.782 154.043L243.279 154.416L243.962 161.992L253.709 160.761L253.222 153.069Z" fill="#FF785D"/>
<path d="M233.066 159.383C233.066 159.383 244.87 156.007 261.521 159.383C275.699 162.255 258.269 207.094 258.269 207.094L233.917 204.932L233.066 159.383Z" fill="#FFAB26"/>
<path d="M237.697 247.969C235.216 255.678 238.424 272.577 244.122 280.49H229.332C226.382 268.434 224.168 256.209 222.704 243.883C220.976 228.934 228.216 213.825 231.875 207.303C233.019 205.53 233.081 204.733 233.896 203.953L258.965 205.22C258.965 205.22 259.391 205.929 260.091 207.205C254.685 209.687 243.741 215.801 238.876 225.283C232.673 237.299 258.62 234.295 260.268 235.713C261.916 237.131 240.595 239.009 237.697 247.969Z" fill="#004E60"/>
<path d="M212.558 188.898C212.558 188.898 209.013 192.213 211.982 199.825C214.95 207.437 228.509 216.671 228.509 216.671L231.38 211.354C231.38 211.354 216.918 190.299 212.558 188.898Z" fill="#FF785D"/>
<path d="M232.186 211.822C232.484 212.807 232.484 213.858 232.186 214.844C231.487 216.41 230.619 217.896 229.598 219.274L226.621 222.19C226.621 222.19 225.788 221.897 225.682 221.25C225.667 220.74 225.805 220.237 226.08 219.806C226.08 219.806 225.513 219.124 225.673 218.592C225.772 218.246 225.896 217.909 226.045 217.582C225.934 217.218 225.934 216.829 226.045 216.465C226.173 215.907 226.366 215.366 226.621 214.852L230.591 210.094L232.186 211.822Z" fill="#FF785D"/>
<path d="M246.063 336.559H237.564L229.695 282.973L229.332 280.492H243.316C243.804 282.435 244.153 284.41 244.361 286.403C246.302 302.504 246.063 336.559 246.063 336.559Z" fill="#FF785D"/>
<path d="M271.932 335.003L263.15 333.186L254.51 288.763L252.906 280.469H267.28C267.608 282.33 268.06 286.619 268.565 292.033C270.053 308.418 271.932 335.003 271.932 335.003Z" fill="#FF785D"/>
<path d="M238.141 333.566L228.367 341.134L246.48 340.656L246.073 332.609L238.141 333.566Z" fill="#FF785D"/>
<path d="M263.066 332.954C263.066 332.954 263.066 339.901 263.687 341.142L276.004 339.033L270.776 330.703L263.066 332.954Z" fill="#FF785D"/>
<path d="M234.57 335.921C234.57 335.921 225.77 340.564 222.571 342.434C220.515 343.639 223.218 345.314 229.324 344.809C235.429 344.304 239.603 343.728 241.473 343.728C243.343 343.728 243.768 344.915 243.768 344.915L246.932 344.304C246.932 344.304 247.251 337.285 246.196 335.008C244.018 335.439 241.882 336.065 239.816 336.878C236.227 338.269 234.57 335.921 234.57 335.921Z" fill="#005F78"/>
<path d="M263.319 335.006C263.319 335.006 262.742 339.268 263.319 341.43C263.736 342.848 264.392 344.185 265.259 345.382H269.176C269.176 345.382 269.575 342.866 271.081 342.653C272.588 342.44 272.659 343.947 275.317 344.16C277.975 344.372 281.857 344.585 282.796 344.23C283.736 343.876 285.02 343.008 280.35 340.491C278.509 339.588 276.732 338.557 275.033 337.407C275.033 337.407 273.952 338.621 271.01 337.407C268.068 336.193 267.413 334.474 263.319 335.006Z" fill="#005F78"/>
<path d="M212.559 188.902L215.722 183.727L223.051 188.157L216.848 198.366C216.848 198.366 212.559 192.934 212.559 188.902Z" fill="#FF785D"/>
<path d="M286.11 172.839L290.47 167.283L286.447 166.805C286.447 166.805 280.651 170.154 280.696 172.219C280.74 174.284 286.11 172.839 286.11 172.839Z" fill="#FF785D"/>
<path d="M289.211 167.528C289.211 167.528 289.548 164.559 290.983 163.744C292.419 162.928 290.797 165.135 290.46 167.288C290.46 167.288 289.415 167.935 289.211 167.528Z" fill="#FF785D"/>
<path d="M287.68 167.528C287.68 167.528 288.016 164.559 289.452 163.744C290.888 162.928 289.266 165.135 288.929 167.288C288.929 167.288 287.884 167.935 287.68 167.528Z" fill="#FF785D"/>
<path d="M286.195 167.395C286.195 167.395 286.532 164.426 287.968 163.611C289.403 162.796 287.773 165.002 287.436 167.156C287.436 167.156 286.39 167.811 286.195 167.395Z" fill="#FF785D"/>
<path d="M284.975 168.169C284.975 168.169 284.603 165.51 285.693 164.411C286.783 163.312 285.835 165.687 286.03 167.672C286.03 167.672 285.223 168.488 284.975 168.169Z" fill="#FF785D"/>
<path d="M243.571 140.629C243.571 140.629 239.92 150.775 239.742 158.609L246.335 159.415L246.867 156.757L247.487 159.415C247.487 159.415 258.883 159.593 264.138 157.643C264.138 157.643 263.066 139.566 259.238 133.876C257.68 131.442 255.338 129.612 252.598 128.689C249.859 127.765 246.887 127.804 244.173 128.799C241.074 130.097 238.437 132.299 236.605 135.117L240.07 138.059L241.674 136.367L240.965 138.857L243.571 140.629Z" fill="#00363F"/>
<path d="M258.462 237.539C252.683 238.258 247.022 239.73 241.625 241.917" stroke="#014251" stroke-linecap="round" stroke-linejoin="round"/>
<path d="M244.361 286.403L229.695 282.973L229.332 280.492H243.316C243.804 282.435 244.153 284.41 244.361 286.403Z" fill="#C16252"/>
<path d="M268.565 292.051L254.51 288.763L252.906 280.469H267.28C267.608 282.347 268.06 286.672 268.565 292.051Z" fill="#C16252"/>
<path d="M235.01 173.359C235.01 173.359 234.266 193.617 242.746 198.172C251.227 202.727 260.602 200.75 260.602 200.75L258.945 205.5L233.876 204.26L233.539 186.226L235.01 173.359Z" fill="#DD9122"/>
<path d="M233.067 159.375L210.789 185.72C212.497 187.885 214.626 189.68 217.048 190.997C219.47 192.315 222.134 193.127 224.879 193.386C224.879 193.386 230.293 196.168 234.317 182.849C236.755 175.131 236.311 166.791 233.067 159.375Z" fill="#FFAB26"/>
<path d="M233.539 185.161C233.539 185.161 240.203 172.515 233.539 160.969" stroke="#BF7A00" stroke-linecap="round" stroke-linejoin="round"/>
<path d="M528.499 307.602L529.997 324.377L521.348 333.194L526.789 336.162L538.433 333.087V308.133L528.499 307.602Z" fill="#FF785D"/>
<path d="M563.148 303.922L567.136 324.871L570.468 335.46L580.446 334.025L574.793 322.381L572.79 303.922H563.148Z" fill="#FF785D"/>
<path d="M526.904 162.133C526.904 162.133 521.471 176.967 519.664 184.925L500.727 185.767L501.214 193.972C501.214 193.972 522.482 195.904 526.912 193.972C531.343 192.041 531.131 185.527 531.131 185.527L526.904 162.133Z" fill="#C16252"/>
<path d="M550.186 153.67L551.072 140.51C551.186 138.844 550.775 137.185 549.896 135.765C549.016 134.345 547.714 133.237 546.171 132.597C545.307 132.238 544.419 131.942 543.513 131.711L542.946 131.587C541.884 131.402 540.797 131.434 539.748 131.682C538.7 131.929 537.712 132.386 536.845 133.025C535.978 133.664 535.249 134.473 534.703 135.401C534.157 136.33 533.805 137.36 533.668 138.428L532.649 146.058C532.391 147.965 532.846 149.901 533.927 151.494C535.008 153.086 536.638 154.224 538.506 154.689L540.039 155.07L540.73 162.824L545.01 165.482L550.708 161.521L550.186 153.67Z" fill="#FF785D"/>
<path d="M542.94 201.259C542.94 207.401 540.501 213.292 536.158 217.636C531.816 221.98 525.927 224.421 519.785 224.424V237.211C519.785 237.48 519.731 237.747 519.628 237.996C519.525 238.245 519.373 238.471 519.182 238.661C518.991 238.852 518.764 239.002 518.515 239.105C518.265 239.207 517.998 239.259 517.729 239.258H443.841C443.571 239.259 443.304 239.207 443.055 239.105C442.806 239.002 442.579 238.852 442.388 238.661C442.197 238.471 442.045 238.245 441.942 237.996C441.838 237.747 441.785 237.48 441.785 237.211V224.175C442.903 224.343 444.031 224.426 445.161 224.424C451.225 224.305 457.001 221.813 461.247 217.482C465.494 213.152 467.873 207.329 467.873 201.264C467.873 195.199 465.494 189.376 461.247 185.045C457.001 180.715 451.225 178.223 445.161 178.104C444.031 178.106 442.903 178.189 441.785 178.352V163.288C441.785 162.742 442.002 162.22 442.387 161.834C442.773 161.448 443.296 161.232 443.841 161.232H459.96C459.825 160.233 459.757 159.227 459.756 158.219C459.875 152.155 462.367 146.38 466.698 142.133C471.028 137.887 476.851 135.508 482.916 135.508C488.981 135.508 494.804 137.887 499.135 142.133C503.465 146.38 505.957 152.155 506.076 158.219C506.071 159.226 506.003 160.233 505.872 161.232H517.773C518.318 161.234 518.839 161.451 519.224 161.837C519.609 162.222 519.827 162.743 519.829 163.288V178.122C523.679 178.117 527.469 179.076 530.853 180.913C532.171 181.623 533.415 182.463 534.566 183.421C537.19 185.594 539.301 188.32 540.749 191.403C542.196 194.487 542.945 197.853 542.94 201.259Z" fill="#B0AFFF"/>
<path d="M538.589 214.776C536.448 217.764 533.625 220.199 530.355 221.877C527.084 223.555 523.461 224.429 519.785 224.426V237.214C519.785 237.483 519.731 237.75 519.628 237.999C519.524 238.248 519.373 238.474 519.182 238.664C518.991 238.854 518.764 239.005 518.515 239.107C518.265 239.21 517.998 239.262 517.729 239.261H443.841C443.571 239.262 443.304 239.21 443.055 239.107C442.806 239.005 442.579 238.854 442.388 238.664C442.197 238.474 442.045 238.248 441.942 237.999C441.838 237.75 441.785 237.483 441.785 237.214V228.237C453.961 226.686 489.248 220.917 511.791 204.24C522.913 195.99 528.363 187.757 530.897 180.898C532.215 181.608 533.459 182.448 534.61 183.406L538.589 214.776Z" fill="#9595E5"/>
<path d="M564.29 180.821C563.55 186.926 562.5 192.989 561.144 198.987C560.098 203.666 559.248 206.883 559.248 206.883H531.369C529.459 198.481 527.98 189.986 526.938 181.433C525.609 169.363 526.938 162.132 526.938 162.132L529.225 161.459L539.362 158.508L544.972 164.02L550.59 158.508L562.996 162.132C562.996 162.132 565.619 168.814 564.29 180.821Z" fill="#005F78"/>
<path d="M537.372 188.958C536.492 188.243 535.669 187.46 534.908 186.619C544.975 189.277 557.204 184.572 556.008 184.173C554.811 183.774 538.028 183.783 532.711 183.783C526.304 173.903 529.166 161.461 529.166 161.461L526.88 162.134C526.88 162.134 525.551 169.365 526.88 181.435C527.921 189.988 529.4 198.483 531.311 206.885H559.189C559.189 206.885 560.075 203.669 561.085 198.99C552.405 197.905 544.196 194.432 537.372 188.958Z" fill="#004E60"/>
<path d="M531.37 206.914C531.37 206.914 525.167 213.799 522.34 238.231C519.513 262.662 525.149 322.052 525.149 322.052L541.419 321.113L545.23 234.695L560.977 320.599L577.264 317.161C577.264 317.161 570.228 222.422 559.249 206.914H531.37Z" fill="#00363F"/>
<path d="M562.98 162.133L549.944 192.643L522.713 190.33C522.27 189.728 520.56 187.424 520.054 187.176C519.549 186.927 519.984 188.709 520.799 189.834L517.919 188.948C517.01 188.631 516.084 188.368 515.145 188.159C513.674 187.84 512.885 187.911 512.912 188.363C512.939 188.815 514.507 188.85 516.935 190.091V190.357C515.81 189.994 512.23 188.904 511.964 189.515C511.698 190.126 515.296 191.216 516.793 191.624L516.74 192.041C515.659 191.695 512.008 190.57 511.733 191.154C511.459 191.739 515.127 192.874 516.598 193.272L516.545 193.751C515.092 193.308 512.371 192.563 512.114 193.086C511.857 193.609 514.693 194.548 516.368 195.036C517.911 195.991 519.656 196.574 521.463 196.737L548.411 204.066C550.219 204.429 552.096 204.186 553.752 203.376C555.409 202.565 556.752 201.232 557.574 199.582C561.367 191.97 567.464 178.739 567.464 172.386C567.49 163.152 562.98 162.133 562.98 162.133Z" fill="#FF785D"/>
<path d="M535.887 129.744C534.212 130.915 533.011 132.647 532.502 134.627C531.421 138.171 532.75 138.969 532.75 138.969H535.887C535.887 138.969 536.126 136.86 537.154 136.133L536.791 139.208L542.577 139.873L543.118 137.462L543.783 140.36L546.556 140.901C546.676 141.912 546.976 142.893 547.442 143.798C547.612 143.483 547.87 143.223 548.185 143.051C548.499 142.88 548.857 142.804 549.215 142.833C550.42 143.01 550.898 145.367 549.817 147.591C549.552 148.197 549.096 148.698 548.517 149.018C547.939 149.338 547.272 149.46 546.618 149.364C546.618 149.364 548.949 152.988 550.163 152.855C555.249 152.341 557.057 145.766 557.421 140.679C557.784 135.593 555.063 133.98 555.063 133.98C555.063 133.98 554.798 130.178 549.365 128.131C544.288 126.279 537.34 128.45 535.887 129.744Z" fill="#00363F"/>
<path d="M553.02 132.579C553.02 132.579 553.02 128.068 556.511 127.731C560.002 127.395 564.114 133.934 562.608 137.638C560.667 142.397 556.272 139.455 556.272 139.455L553.02 132.579Z" fill="#00363F"/>
<path d="M521.345 332.553C521.345 332.553 513.733 337.87 514.256 338.924C514.779 339.979 519.945 341.467 523.472 340.696C526.999 339.925 534.682 336.177 534.682 336.177L535.887 337.825L539.246 336.177L538.36 327.555C538.36 327.555 532.086 330.736 528 331.454C523.915 332.172 523.251 331.188 523.251 331.188L521.345 332.553Z" fill="#00363F"/>
<path d="M567.135 324.867C566.305 328.955 566.506 333.185 567.72 337.176L569.545 337.92L570.051 336.839C571.181 338.227 572.528 339.424 574.038 340.384C576.954 342.395 581.526 341.81 582.9 341.403C584.273 340.995 585.647 339.817 583.564 337.158C581.482 334.5 578.115 329.28 578.115 329.28C578.115 329.28 579.745 332.337 574.915 331.053C573.268 330.6 571.73 329.819 570.393 328.756C569.055 327.693 567.947 326.37 567.135 324.867Z" fill="#00363F"/>
<path d="M544.938 164.027C545.426 164.699 546.072 165.24 546.818 165.605C547.564 165.969 548.388 166.146 549.218 166.118C552.053 165.994 553.09 159.26 553.09 159.26L550.361 157.133L544.938 164.027Z" fill="#00363F"/>
<path d="M540.151 157.133L544.936 164.027C544.936 164.027 543.093 167.049 541.134 166.163C539.176 165.277 537.359 159.136 537.359 159.136L540.151 157.133Z" fill="#00363F"/>
<path d="M524.762 317.586L541.625 316.461" stroke="#025256" stroke-miterlimit="10"/>
<path d="M560.082 315.582L576.972 313.5" stroke="#025256" stroke-miterlimit="10"/>
<path d="M539.594 226.305C541.186 227.25 542.544 228.544 543.565 230.09C544.586 231.635 545.243 233.392 545.487 235.228" stroke="#025256" stroke-miterlimit="10"/>
<path d="M530.199 208.602H560.275" stroke="#025256" stroke-miterlimit="10"/>
<path d="M563.732 217.995C561.363 217.563 559.174 216.441 557.44 214.77C555.706 213.099 554.504 210.953 553.984 208.602" stroke="#025256" stroke-miterlimit="10"/>
<path d="M525.922 219.251C525.922 219.251 533.693 216.212 534.048 208.617" stroke="#025256" stroke-miterlimit="10"/>
<path d="M529.455 228.719C529.455 228.719 523.978 259.406 529.889 309.589" stroke="#025256" stroke-miterlimit="10"/>
<path d="M555.508 228.719L568.525 306.054" stroke="#025256" stroke-miterlimit="10"/>
<path d="M431.379 331.305L441.189 333.307L440.48 340.317L431.468 339.298L431.379 331.305Z" fill="#FFCCA4"/>
<path d="M438.898 332.839C438.898 332.839 442.071 330.775 443.657 330.597C445.243 330.42 449.577 336.8 449.577 336.8C449.577 336.8 456.347 340.54 455.948 343.34C455.416 347.053 440.476 340.327 440.476 340.327L438.898 332.839Z" fill="#00363F"/>
<path d="M421.317 230.274L421.45 217.39C421.465 215.758 420.972 214.163 420.038 212.826C419.104 211.488 417.776 210.476 416.24 209.928C415.372 209.621 414.484 209.378 413.581 209.202C413.395 209.157 413.209 209.131 413.023 209.104C411.977 208.976 410.916 209.063 409.905 209.359C408.894 209.654 407.953 210.152 407.141 210.823C406.328 211.494 405.661 212.323 405.179 213.26C404.697 214.197 404.411 215.222 404.338 216.273L403.754 223.779C403.607 225.657 404.159 227.523 405.304 229.02C406.449 230.516 408.106 231.537 409.957 231.887L411.481 232.18L412.571 239.703L416.895 242.104L422.212 237.931L421.317 230.274Z" fill="#FFCCA4"/>
<path d="M392.643 226.342C392.643 226.342 391.27 219.571 390.782 219.571C390.295 219.571 390.525 222.008 390.525 222.008C390.525 222.008 389.639 217.897 389.063 218.03C388.487 218.162 388.975 221.875 388.975 221.875C388.975 221.875 388.089 216.745 387.291 216.878C386.493 217.01 387.468 222.132 387.468 222.132C387.468 222.132 386.236 217.321 385.749 217.808C385.262 218.295 386.52 226.156 386.52 226.156C386.52 226.156 384.287 223.55 383.755 223.816C383.224 224.082 384.863 227.795 386.148 228.637C387.252 229.285 388.401 229.854 389.586 230.338C390.038 230.852 400.424 242.682 403.268 243.631C406.113 244.579 409.95 239.147 409.95 239.147L392.643 226.342Z" fill="#FFCCA4"/>
<path d="M439.785 278.228C439.502 281.161 439.218 282.995 439.218 282.995L414.122 286.38L412.979 286.54V286.46L405.943 268.666C405.947 268.731 405.947 268.796 405.943 268.861C404.844 275.95 403.807 281.932 403.807 281.932L393.324 279.814C393.324 279.814 395.983 249.755 398.473 244.633C399.808 241.695 402.195 239.362 405.163 238.094C405.163 238.094 414.911 236.073 422.337 235.027C424.392 234.737 426.486 235.007 428.4 235.809C430.314 236.61 431.976 237.914 433.21 239.582C436.223 243.709 438.287 248.451 439.254 253.468C440.929 262.108 440.361 272.352 439.785 278.228Z" fill="#FFAB26"/>
<path d="M405.263 213.126C407.189 214.429 409.219 215.57 411.333 216.538C411.333 216.538 410.403 220.383 411.732 221.854C411.732 221.854 412.175 220.002 413.637 220.224C415.099 220.445 415.409 224.38 414.692 226.055C414.522 226.514 414.245 226.927 413.885 227.258C413.524 227.589 413.09 227.83 412.618 227.96L414.603 230.317L421.32 229.786C421.32 229.786 425.166 219.843 425.254 217.193C425.343 214.544 423.801 213.702 423.801 213.702C423.801 213.702 424.546 210.946 420.753 209.023C416.96 207.1 408.683 206.719 407.221 206.887C405.759 207.056 406.122 209.023 406.122 209.023C406.122 209.023 404.217 208.881 403.42 210.077C402.622 211.274 405.263 213.126 405.263 213.126Z" fill="#00363F"/>
<path d="M368.47 276.72L372.954 294.842H375.966L372.564 276.631C373.435 275.612 373.959 274.343 374.061 273.007C374.194 270.844 371.589 270.047 371.589 270.047L371.979 272.705L370.393 274.566L368.452 273.414L367.566 270.986C367.017 271.298 366.576 271.769 366.301 272.337C366.025 272.905 365.929 273.544 366.024 274.168C366.074 274.81 366.346 275.415 366.791 275.88C367.237 276.345 367.83 276.642 368.47 276.72Z" fill="#005F78"/>
<path d="M422.053 286.538C422.053 286.538 403.798 307.806 400.971 320.309C398.145 332.813 407.883 335.073 412.048 336.039C417.48 337.306 434.725 339.583 434.725 339.583L436.232 328.949L418.792 322.436C418.792 322.436 434.406 309.082 437.508 304.252C443.959 294.203 438.474 282.984 438.474 282.984L422.053 286.538Z" fill="#01292D"/>
<path d="M393.256 279.82L376.818 281.947V282.027L371.226 279.82C371.226 279.82 368.107 281.203 367.682 281.947C367.256 282.691 367.974 283.507 367.974 283.507C367.915 283.814 367.933 284.13 368.025 284.429C368.118 284.727 368.283 284.998 368.506 285.217C368.533 285.479 368.616 285.733 368.749 285.96C368.882 286.188 369.062 286.385 369.277 286.537C369.661 287.276 370.315 287.837 371.102 288.106C371.766 288.365 372.503 288.365 373.167 288.106C374.651 288.535 376.208 288.649 377.739 288.443V288.451C377.739 288.451 398.422 290.685 400.691 288.451C402.96 286.218 403.722 281.912 403.722 281.912L393.256 279.82Z" fill="#FFCCA4"/>
<path d="M388.023 336.25L390.035 342.967H396.752L395.689 337.305L388.023 336.25Z" fill="#FFCCA4"/>
<path d="M389.922 342.587C389.922 342.587 384.729 346.131 382.345 346.911C379.961 347.691 379.864 349.383 381.547 349.827C383.231 350.27 397.72 349.738 398.783 349.206C399.847 348.675 397.72 342.117 396.754 341.869C395.788 341.621 389.922 342.587 389.922 342.587Z" fill="#00363F"/>
<path d="M412.979 286.532C412.979 286.532 390.391 293.931 382.141 300.772C373.891 307.613 386.518 337.299 386.518 337.299H398.925L396.124 317.432C396.124 317.432 423.108 306.904 430.658 303.51C441.292 298.681 439.218 283.031 439.218 283.031L412.979 286.532Z" fill="#00363F"/>
<path d="M439.786 278.229C439.503 281.162 439.219 282.997 439.219 282.997L414.123 286.382L412.945 286.462L405.909 268.668C405.913 268.733 405.913 268.798 405.909 268.863L405.855 268.721L408.328 254.977C408.328 254.977 413.051 272.7 421.186 278.017C428.187 282.554 437.438 279.213 439.786 278.229Z" fill="#DD9122"/>
<path d="M405.917 268.194C405.917 268.194 411.996 253.032 405.332 241.477" stroke="#BF7A00" stroke-linecap="round" stroke-linejoin="round"/>
<path d="M385.035 335.689L385.904 339.252H400.162L399.816 335.477L385.035 335.689Z" fill="#025256"/>
<path d="M433.999 328.039L431.961 340.321L435.763 340.941L437.446 329.191L433.999 328.039Z" fill="#00363F"/>
<path d="M390.621 335.594C390.621 335.594 383.159 311.96 385.649 305.952C388.139 299.944 416.08 293.218 420.794 290.506C425.509 287.795 424.516 284.977 424.516 284.977" stroke="#025256" stroke-miterlimit="10"/>
<path d="M410.836 236.965C412.719 235.067 415.099 233.739 417.704 233.136C422.436 231.86 423.8 232.702 423.8 232.702L424.642 234.935L410.836 236.965Z" fill="#BF7A00"/>
<rect x="307.25" y="185.023" width="81.02" height="83.5518" fill="white"/>
</svg>
