<svg width="690" height="350" viewBox="0 0 690 350" fill="none" xmlns="http://www.w3.org/2000/svg">
<g clip-path="url(#clip0_3435_536)">
<path opacity="0.17" d="M210.785 115.394C211.722 95.5787 217.217 76.3828 229.261 58.6673C274.579 -7.95387 387.011 -7.07562 448.973 29.8023C467.584 40.8849 483.534 57.9564 489.824 79.1514C494.91 96.2897 493.446 114.683 493.229 132.641C492.986 152.891 497.009 167.879 504.805 185.996C511.036 200.491 512.249 217.78 509.581 233.338C503.784 267.104 479.67 294.572 450.839 310.289C405.028 335.198 332.56 336.017 277.005 322.241C248.917 315.274 222.152 300.971 208.602 280.671C197.837 264.52 196.273 246.001 199.869 228.855C202.747 215.054 209.438 202.767 215.042 189.76C219.542 179.347 217.727 170.33 215.159 159.055C211.814 144.392 210.107 129.738 210.785 115.394Z" fill="#9191A3"/>
<path d="M291.464 224.403L252.93 184.974L248.623 200.632L204.066 161.47L208.566 156.352L244.942 188.328L249.509 171.725L296.341 219.635L291.464 224.403Z" fill="#9191A3"/>
<path d="M199.115 172.22L218.712 150.448L196.246 149.938L199.115 172.22Z" fill="#9191A3"/>
<path d="M270.395 202.841L291.464 224.404L301.551 225.257L273.832 196.609L270.395 202.841Z" fill="#44444C"/>
<path d="M330.887 317.161L265.914 257.005C263.325 254.596 261.795 251.259 261.658 247.725C261.522 244.191 262.79 240.746 265.186 238.144L403.112 89.1601C405.522 86.5685 408.861 85.037 412.397 84.9006C415.933 84.7642 419.38 86.0341 421.982 88.4324L486.956 148.588C489.545 150.998 491.075 154.334 491.211 157.869C491.347 161.403 490.079 164.847 487.683 167.449L349.774 316.433C347.363 319.03 344.021 320.565 340.481 320.701C336.94 320.838 333.49 319.564 330.887 317.161Z" fill="#2F2F35"/>
<path d="M327.492 312.617L262.518 252.47C259.92 250.079 258.378 246.754 258.23 243.227C258.083 239.699 259.342 236.258 261.732 233.659L398.789 85.6115C401.195 83.0296 404.528 81.5089 408.056 81.3834C411.583 81.258 415.016 82.538 417.6 84.9423L482.573 145.098C485.171 147.487 486.713 150.81 486.86 154.337C487.008 157.863 485.748 161.303 483.359 163.901L346.303 311.948C345.112 313.227 343.68 314.259 342.09 314.986C340.5 315.712 338.783 316.117 337.036 316.179C335.289 316.242 333.547 315.959 331.909 315.348C330.272 314.736 328.771 313.809 327.492 312.617V312.617Z" stroke="#9191A3" stroke-width="0.78" stroke-miterlimit="10"/>
<path d="M320.79 307.795L255.816 247.673C253.227 245.263 251.697 241.927 251.561 238.393C251.424 234.858 252.693 231.414 255.088 228.812L393.015 79.8278C395.424 77.2387 398.761 75.7088 402.295 75.5725C405.83 75.4361 409.274 76.7044 411.876 79.1002L476.858 139.256C479.45 141.666 480.981 145.004 481.117 148.54C481.254 152.077 479.984 155.523 477.586 158.126L339.651 307.059C337.242 309.65 333.906 311.181 330.372 311.319C326.838 311.457 323.393 310.19 320.79 307.795Z" fill="#5A5A66"/>
<path d="M332.56 300.731L261.907 235.322C260.706 234.204 259.997 232.657 259.934 231.017C259.872 229.377 260.461 227.78 261.573 226.573L396.312 81.0774C396.864 80.4811 397.528 79.9993 398.266 79.6597C399.004 79.3201 399.801 79.1293 400.613 79.0983C401.425 79.0672 402.235 79.1965 402.997 79.4787C403.759 79.7608 404.457 80.1904 405.053 80.7429L475.706 146.151C476.91 147.267 477.622 148.815 477.686 150.455C477.751 152.095 477.162 153.694 476.049 154.9L341.384 300.438C340.828 301.043 340.157 301.531 339.41 301.874C338.663 302.217 337.855 302.407 337.033 302.435C336.212 302.462 335.393 302.325 334.625 302.033C333.857 301.74 333.155 301.298 332.56 300.731Z" fill="#FFFFFD"/>
<path d="M296.139 275.734C295.547 276.375 294.779 276.826 293.931 277.03C293.083 277.234 292.194 277.181 291.375 276.88C290.557 276.578 289.846 276.04 289.334 275.335C288.821 274.629 288.53 273.787 288.496 272.916C288.462 272.044 288.687 271.182 289.143 270.439C289.599 269.695 290.266 269.104 291.058 268.739C291.85 268.375 292.733 268.254 293.594 268.391C294.456 268.528 295.257 268.918 295.896 269.511C296.321 269.903 296.665 270.376 296.907 270.901C297.149 271.426 297.286 271.994 297.308 272.572C297.331 273.15 297.239 273.727 297.038 274.269C296.838 274.812 296.532 275.31 296.139 275.734Z" fill="white"/>
<path d="M468.954 177.289C468.376 176.76 467.613 176.48 466.83 176.51C466.047 176.54 465.308 176.877 464.772 177.448L452.903 190.27C452.376 190.849 452.097 191.612 452.127 192.394C452.157 193.176 452.493 193.915 453.062 194.453L455.245 196.468L457.269 194.285L469.138 181.463L471.162 179.28L468.954 177.289Z" fill="#5A5A66"/>
<path d="M459.427 196.329C458.891 196.901 458.151 197.238 457.368 197.267C456.585 197.297 455.822 197.017 455.244 196.488C454.671 195.953 454.333 195.214 454.303 194.43C454.273 193.647 454.554 192.883 455.085 192.306L466.954 179.484C467.489 178.911 468.228 178.573 469.011 178.541C469.794 178.51 470.558 178.789 471.136 179.317C471.708 179.853 472.045 180.592 472.075 181.375C472.104 182.158 471.824 182.921 471.295 183.499L459.427 196.329Z" fill="#D1D1E5"/>
<path d="M450.009 197.747C449.43 197.22 448.668 196.941 447.886 196.971C447.103 197.001 446.364 197.336 445.827 197.906L433.933 210.736C433.402 211.313 433.121 212.077 433.151 212.86C433.18 213.644 433.519 214.384 434.092 214.918L436.275 216.943L438.299 214.76L450.168 201.937L452.192 199.754L450.009 197.747Z" fill="#5A5A66"/>
<path d="M440.459 216.795C439.923 217.365 439.184 217.702 438.402 217.734C437.62 217.765 436.857 217.488 436.277 216.962C435.707 216.425 435.372 215.686 435.342 214.903C435.312 214.121 435.591 213.359 436.118 212.78L447.987 199.932C448.523 199.361 449.262 199.024 450.045 198.994C450.828 198.965 451.591 199.245 452.169 199.774C452.742 200.308 453.081 201.048 453.11 201.832C453.14 202.615 452.859 203.379 452.328 203.956L440.459 216.795Z" fill="#D1D1E5"/>
<path d="M415.856 92.3836C415.368 92.9111 414.988 93.5298 414.738 94.2043C414.489 94.8789 414.375 95.5959 414.403 96.3146C414.431 97.0332 414.6 97.7392 414.901 98.3923C415.202 99.0454 415.629 99.6327 416.157 100.121L455.302 136.363C456.369 137.35 457.783 137.873 459.235 137.818C460.687 137.763 462.058 137.134 463.047 136.07C464.031 135.001 464.551 133.587 464.495 132.135C464.439 130.684 463.81 129.314 462.746 128.325L423.602 92.0993C423.073 91.6102 422.454 91.23 421.779 90.9804C421.104 90.7309 420.386 90.6168 419.667 90.6448C418.947 90.6727 418.241 90.8422 417.587 91.1434C416.933 91.4446 416.345 91.8718 415.856 92.4004V92.3836Z" fill="#5A5A66"/>
<path d="M402.993 109.442L394.988 102.031" stroke="#5A5A66" stroke-width="1.35" stroke-miterlimit="10"/>
<path d="M400.317 112.324L392.32 104.922" stroke="#5A5A66" stroke-width="1.35" stroke-miterlimit="10"/>
<path d="M397.649 115.207L389.645 107.805" stroke="#5A5A66" stroke-width="1.35" stroke-miterlimit="10"/>
<path d="M450.912 156.061C452.443 154.388 457.252 157.132 454.86 159.716C451.063 163.823 445.434 161.975 445.434 161.975C445.434 161.975 443.159 156.513 446.956 152.398C449.348 149.813 452.443 154.405 450.912 156.061Z" fill="#5A5A66"/>
<path d="M430.555 144.919L436.912 150.807L441.997 146.45L434.511 139.516L430.555 144.919Z" fill="#5A5A66"/>
<path d="M433.533 149.491C433.414 149.619 433.322 149.77 433.262 149.934C433.201 150.098 433.174 150.273 433.181 150.448C433.188 150.622 433.229 150.794 433.302 150.953C433.376 151.112 433.48 151.254 433.608 151.373C433.737 151.492 433.887 151.584 434.051 151.644C434.216 151.705 434.39 151.732 434.565 151.725C434.739 151.718 434.911 151.677 435.07 151.603C435.229 151.53 435.371 151.426 435.49 151.298C435.73 151.038 435.856 150.694 435.842 150.341C435.828 149.988 435.674 149.655 435.415 149.416C435.155 149.176 434.811 149.049 434.458 149.064C434.105 149.078 433.772 149.231 433.533 149.491Z" fill="#5A5A66"/>
<path d="M430.168 146.382C429.99 146.576 429.873 146.818 429.832 147.077C429.792 147.337 429.829 147.603 429.939 147.842C430.05 148.08 430.228 148.281 430.453 148.418C430.677 148.555 430.937 148.622 431.199 148.612C431.462 148.601 431.716 148.513 431.928 148.359C432.141 148.204 432.303 147.99 432.394 147.743C432.485 147.497 432.501 147.229 432.44 146.973C432.378 146.717 432.243 146.486 432.05 146.307C431.921 146.188 431.771 146.096 431.607 146.035C431.442 145.975 431.268 145.947 431.093 145.954C430.918 145.961 430.747 146.003 430.588 146.076C430.429 146.15 430.286 146.254 430.168 146.382Z" fill="#5A5A66"/>
<path d="M432.44 137.579L431.457 138.641L434.606 141.555L435.589 140.494L432.44 137.579Z" fill="#5A5A66"/>
<path d="M419.093 95.3691C418.767 95.7209 418.552 96.1619 418.476 96.636C418.4 97.1101 418.466 97.5961 418.667 98.0324C418.867 98.4686 419.193 98.8356 419.602 99.0867C420.011 99.3379 420.486 99.4619 420.966 99.4432C421.446 99.4244 421.909 99.2637 422.297 98.9813C422.686 98.699 422.982 98.3077 423.147 97.8571C423.313 97.4065 423.342 96.9168 423.229 96.45C423.116 95.9833 422.867 95.5605 422.514 95.2352C422.042 94.8005 421.417 94.5705 420.776 94.5956C420.135 94.6207 419.53 94.8988 419.093 95.3691Z" fill="white"/>
<path d="M325.974 47.5078C325.974 47.5078 316.238 51.1044 316.238 62.9817L322.461 63.6843L328.316 50.4353L325.974 47.5078Z" fill="#163C7A"/>
<path d="M313.553 80.804H313.595C314.165 81.1097 314.832 81.1829 315.456 81.0083C316.079 80.8338 316.611 80.4249 316.94 79.8672L326.007 63.8246L321.683 61.3906L312.624 77.4332C312.462 77.7151 312.358 78.0263 312.317 78.3489C312.276 78.6714 312.299 78.9989 312.385 79.3124C312.472 79.6259 312.619 79.9191 312.82 80.1752C313.02 80.4312 313.269 80.6449 313.553 80.804Z" fill="#163C7A"/>
<path d="M307.296 29.0312C307.296 29.0312 317.174 44.5218 332.723 53.8731L337.783 57.545C338.137 57.8024 338.417 58.1477 338.596 58.5468C338.775 58.9458 338.847 59.3848 338.804 59.82C338.681 61.4358 338.206 63.0052 337.413 64.4183C336.62 65.8313 335.527 67.0539 334.212 68.0003C333.856 68.2397 333.444 68.3839 333.017 68.4191C332.589 68.4542 332.16 68.3791 331.769 68.201C312.373 59.36 303.858 57.6453 291.621 56.7336C297.016 53.1119 309.42 43.9949 307.296 29.0312Z" fill="#CD2E2B"/>
<path opacity="0.57" d="M337.783 57.545C338.137 57.8024 338.417 58.1477 338.596 58.5468C338.775 58.9458 338.847 59.3848 338.804 59.82C338.717 60.7742 338.517 61.7147 338.21 62.6221C325.145 55.0942 312.916 43.7272 306.902 37.7217C307.587 34.8766 307.721 31.9266 307.295 29.0312C307.295 29.0312 317.174 44.5218 332.723 53.8731L337.783 57.545Z" fill="#D8EEFF"/>
<path d="M334.673 54.9938C334.723 57.043 334.046 61.3506 328.751 66.3608C328.358 66.7312 327.866 66.9797 327.335 67.0762C326.803 67.1727 326.255 67.113 325.757 66.9045L316.238 62.9817C316.238 62.9817 323.59 59.7614 325.974 47.5078C330.499 50.5022 332.666 52.058 333.636 52.8693C333.953 53.1268 334.21 53.4503 334.389 53.8172C334.568 54.1841 334.665 54.5856 334.673 54.9938Z" fill="#414149"/>
<path d="M304.527 45.7308C309.052 37.7186 309.499 29.4039 305.526 27.1592C301.552 24.9146 294.661 29.59 290.136 37.6022C285.61 45.6143 285.163 53.929 289.137 56.1737C293.111 58.4183 300.001 53.7429 304.527 45.7308Z" fill="#8E2020"/>
<path d="M302.949 44.842C306.98 37.7068 307.577 30.4141 304.283 28.5534C300.988 26.6927 295.051 30.9686 291.02 38.1039C286.99 45.2392 286.393 52.5318 289.687 54.3925C292.981 56.2532 298.919 51.9773 302.949 44.842Z" fill="white"/>
<path d="M294.766 45.4145L299.098 37.8281C301.018 38.8164 303.026 39.6229 305.095 40.237C304.513 41.8389 303.797 43.389 302.954 44.8708C302.105 46.3933 301.122 47.8376 300.018 49.1868C298.402 47.7515 296.642 46.4873 294.766 45.4145Z" fill="#CD2E2B"/>
<path d="M295.754 40.8619C294.575 42.9614 294.165 44.9688 294.843 45.3452C295.52 45.7216 297.026 44.3415 298.188 42.2504C299.351 40.1594 299.786 38.1519 299.108 37.7672C298.431 37.3824 296.9 38.7709 295.754 40.8619Z" fill="#414149"/>
<path d="M333.752 73.9375C328.866 76.7289 324.451 80.2744 320.67 84.443C314.473 91.31 292.148 113.626 292.148 113.626L301.851 134.101L327.295 113.007L333.752 73.9375Z" fill="#414149"/>
<path d="M322.019 187.678C322.019 187.678 318.907 239.77 329.605 303.857C375.466 306.308 391.785 303.857 391.785 303.857C391.785 303.857 368.248 213.615 362.343 190.605C338.287 183.027 322.019 187.678 322.019 187.678Z" fill="#414149"/>
<path d="M333.754 180.576C333.754 180.576 333.955 215.798 338.078 222.648L345.606 225.584C345.606 225.584 341.206 198.676 343.406 180.576C345.606 162.476 333.754 180.576 333.754 180.576Z" fill="#9191A3"/>
<path d="M362.342 190.607C355.526 188.43 348.481 187.049 341.348 186.492V223.922C341.348 223.922 351.728 281.359 363.262 304.938C383.788 305.064 391.784 303.859 391.784 303.859C391.784 303.859 368.247 213.617 362.342 190.607Z" fill="#5A5A66"/>
<path d="M322.02 187.674C322.02 187.674 334.792 195.737 362.344 190.601L364.853 131.148L364.786 87.3194L348.057 82.3594L324.194 150.645L322.02 187.674Z" fill="#ECECEC"/>
<g style="mix-blend-mode:multiply" opacity="0.66">
<path d="M355.661 97.2282L352.19 100.892C352.19 100.892 344.662 123.609 331.848 128.736L336.983 111.723C336.983 111.723 347.957 101.578 349.722 98.1985C353.36 96.4253 355.661 97.2282 355.661 97.2282Z" fill="#9191A3"/>
</g>
<path d="M323.358 164.509L321.986 187.678C321.986 187.678 321.225 200.366 321.743 220.917C324.518 215.783 326.385 210.209 327.264 204.44C329.07 192.011 330.467 146.727 330.467 146.727L323.358 164.509Z" fill="#222226"/>
<path d="M352.105 91.5362L343.934 97.6923L347.455 86.25L349.722 86.9526L352.105 91.5362Z" fill="#FFFFFD"/>
<path d="M349.722 86.9523C349.722 86.9523 327.891 127.101 325.324 192.074C323.851 207.481 308.812 218.12 308.812 218.12C312.158 201.522 314.484 184.734 315.78 167.851C317.612 141.805 325.324 84.2088 333.755 73.9375C340.162 75.7965 346.335 78.3811 352.156 81.641L349.722 86.9523Z" fill="#9191A3"/>
<path d="M330.5 146.759C337.752 108.978 349.738 86.9551 349.738 86.9551L352.205 81.6438C349.611 80.1903 346.945 78.8698 344.217 77.6875L333.394 97.6948L336.69 99.4094L330.5 104.562V146.759Z" fill="#5A5A66"/>
<path d="M352.105 91.5364L360.261 104.56L363.146 98.6795L364.769 87.3125L352.105 91.5364Z" fill="white"/>
<path d="M365.494 81.6404C365.494 81.6404 375.012 74.6228 377.89 67.4212C380.767 60.2196 382.272 54.3479 377.053 49.0199C371.834 43.6918 364.766 37.4019 363.143 32.7096C361.521 28.0173 356.628 33.981 358.125 40.5469C359.622 47.1128 359.455 49.9567 359.455 49.9567L363.11 71.3189L365.494 81.6404Z" fill="#842115"/>
<g style="mix-blend-mode:multiply">
<path d="M354.53 56.4286C354.53 56.4286 351.828 50.0885 353.225 45.8227C354.622 41.557 355.241 43.8655 356.83 46.1657C357.957 47.7346 359.294 49.1418 360.803 50.3478L354.53 56.4286Z" fill="#512626"/>
</g>
<path d="M351.182 73.1875L349.719 86.955L352.103 91.5386L364.766 87.3147L366.598 73.1875H351.182Z" fill="#FF8E78"/>
<g style="mix-blend-mode:multiply">
<path d="M350.523 79.4016C353.799 79.2044 357.057 78.7852 360.276 78.1469L354.756 73.1953H351.184L350.523 79.4016Z" fill="#512626"/>
</g>
<path d="M360.277 48.6061C353.697 54.7317 348.474 62.1685 344.945 70.4367C345.129 72.4525 357.266 78.3242 360.277 78.1402C363.288 77.9562 368.8 70.9888 368.8 70.9888C368.8 70.9888 367.127 70.8048 367.88 69.3159C368.633 67.8271 371 63.0762 369.896 59.0446C368.792 55.0131 366.96 51.8932 369.352 53.541C371.744 55.1887 373.534 59.0446 373.534 57.2129C373.534 55.3811 369.553 47.6944 360.277 48.6061Z" fill="#FF8E78"/>
<path d="M375.04 73.9401C375.04 74.7655 374.796 75.5724 374.338 76.2592C373.88 76.946 373.23 77.482 372.468 77.7998C371.706 78.1175 370.867 78.2027 370.057 78.0447C369.247 77.8867 368.502 77.4925 367.915 76.9118C367.329 76.3311 366.927 75.5898 366.761 74.7814C366.595 73.9729 366.672 73.1334 366.982 72.3685C367.292 71.6036 367.822 70.9476 368.504 70.4831C369.186 70.0186 369.991 69.7663 370.816 69.758C371.369 69.7525 371.917 69.8566 372.429 70.0643C372.942 70.272 373.408 70.5792 373.8 70.9681C374.193 71.3569 374.505 71.8198 374.718 72.33C374.931 72.8401 375.04 73.3874 375.04 73.9401Z" fill="#FF8E78"/>
<g style="mix-blend-mode:multiply">
<path d="M362.742 64.6404C362.666 64.7571 362.566 64.8573 362.45 64.9353C362.335 65.0133 362.204 65.0675 362.067 65.0948C361.93 65.122 361.789 65.1217 361.653 65.094C361.516 65.0663 361.386 65.0116 361.27 64.9332C361.154 64.855 361.054 64.7546 360.977 64.6377C360.9 64.5208 360.846 64.3898 360.82 64.2522C360.793 64.1145 360.794 63.9731 360.823 63.8359C360.851 63.6987 360.907 63.5684 360.986 63.4527L361.931 62.0475C362.009 61.9313 362.11 61.8316 362.226 61.7543C362.343 61.677 362.474 61.6236 362.612 61.5972C362.75 61.5708 362.891 61.5718 363.028 61.6003C363.166 61.6288 363.296 61.6841 363.411 61.7632C363.644 61.921 363.804 62.1646 363.858 62.4405C363.911 62.7164 363.853 63.0022 363.696 63.2353L362.742 64.6404Z" fill="#512626"/>
</g>
<g style="mix-blend-mode:multiply">
<path d="M354.872 59.6116C354.806 59.7108 354.721 59.7959 354.622 59.862C354.523 59.928 354.412 59.9737 354.295 59.9963C354.179 60.0189 354.058 60.0179 353.942 59.9935C353.825 59.9691 353.715 59.9217 353.617 59.8541C353.42 59.7185 353.285 59.5111 353.239 59.2764C353.194 59.0418 353.242 58.7987 353.375 58.5995L354.211 57.4034C354.277 57.3044 354.361 57.2194 354.46 57.1532C354.559 57.0869 354.67 57.0409 354.786 57.0175C354.903 56.9942 355.023 56.9942 355.139 57.0173C355.256 57.0405 355.367 57.0864 355.466 57.1525C355.565 57.219 355.65 57.3045 355.717 57.4042C355.783 57.5039 355.828 57.6158 355.851 57.7333C355.874 57.8508 355.873 57.9716 355.848 58.0887C355.824 58.2058 355.776 58.3169 355.708 58.4155L354.872 59.6116Z" fill="#512626"/>
</g>
<path d="M363.145 57.7031C364.083 57.7755 364.982 58.1103 365.739 58.6694C366.497 59.2285 367.082 59.9892 367.427 60.8648" stroke="#512626" stroke-width="1.75" stroke-miterlimit="10" stroke-linecap="round"/>
<path d="M355.375 52.8594C356.573 53.1373 357.616 53.8689 358.286 54.9003" stroke="#512626" stroke-width="1.75" stroke-miterlimit="10" stroke-linecap="round"/>
<g style="mix-blend-mode:multiply">
<path d="M350.832 63.6016C350.824 64.7042 351.112 65.7888 351.667 66.7417C352.221 67.6946 353.022 68.4808 353.985 69.0179C354.948 69.555 356.038 69.8232 357.14 69.7944C358.242 69.7656 359.317 69.4409 360.25 68.8543L350.832 63.6016Z" fill="#512626"/>
</g>
<g style="mix-blend-mode:multiply">
<path d="M374.22 236.408C369.202 217.229 364.551 199.212 362.343 190.605L364.853 131.152V125.758L360.286 104.562C360.286 104.562 325.666 214.837 374.22 236.408Z" fill="#222226"/>
</g>
<path d="M353.986 69.0153C354.821 69.481 355.753 69.7455 356.709 69.7876C357.664 69.8297 358.616 69.6483 359.489 69.2579C359.085 68.7231 358.568 68.2829 357.976 67.968C357.384 67.6531 356.73 67.4711 356.06 67.4345C354.927 67.3922 353.8 67.6307 352.781 68.1287C353.147 68.4703 353.551 68.7679 353.986 69.0153Z" fill="#842115"/>
<path d="M351.175 65.6173L358.36 69.6238C359.044 69.5274 359.693 69.263 360.25 68.8543L350.832 63.6016C350.828 64.2883 350.944 64.9705 351.175 65.6173Z" fill="white"/>
<path d="M357.842 60.0156L355.375 62.8595L356.613 63.9301" stroke="#2D0101" stroke-width="0.64" stroke-miterlimit="10"/>
<path d="M364.758 87.3203C364.758 87.3203 341.581 163.209 358.159 202.831C367.878 223.139 379.379 225.581 379.379 225.581C379.379 225.581 374.729 163.945 379.379 140.701C384.03 117.457 384.264 106.7 384.264 106.7L364.758 87.3203Z" fill="#9191A3"/>
<path d="M384.266 106.703C384.266 106.703 391.727 119.057 395.031 130.801C398.335 142.544 423.795 214.685 423.795 214.685L405.085 237.436L369.194 142.544C369.194 142.544 366.902 112.7 384.266 106.703Z" fill="#80808E"/>
<path d="M370.815 93.3342L364.759 87.3203C364.759 87.3203 346.676 146.548 353.886 187.691C354.203 168.989 366.599 124.575 366.599 124.575L360.803 116.135H367.427L370.815 93.3342Z" fill="#5A5A66"/>
<path d="M310.391 63.8709L286.302 120.079C285.209 122.636 285.126 125.513 286.072 128.129C287.017 130.745 288.92 132.905 291.396 134.172L291.605 134.273C292.998 134.985 294.528 135.391 296.091 135.463C297.654 135.534 299.214 135.271 300.667 134.689C302.12 134.107 303.431 133.221 304.512 132.091C305.594 130.96 306.421 129.61 306.937 128.133L327.011 70.8216C327.417 69.6731 327.376 68.4143 326.897 67.2943C326.419 66.1744 325.537 65.275 324.427 64.7743L316.899 61.3449C316.307 61.0753 315.667 60.9268 315.017 60.9082C314.367 60.8897 313.719 61.0013 313.113 61.2367C312.506 61.4721 311.953 61.8264 311.486 62.2788C311.019 62.7312 310.646 63.2725 310.391 63.8709Z" fill="#80808E"/>
<path d="M324.762 69.7891L327.673 70.776C328.037 70.8979 328.373 71.0928 328.659 71.3488C328.946 71.6047 329.177 71.9163 329.339 72.2647C329.501 72.613 329.59 72.9907 329.602 73.3747C329.613 73.7587 329.546 74.141 329.404 74.4981L327.104 80.3531C326.862 80.9269 326.437 81.405 325.896 81.7134C325.355 82.0218 324.727 82.1434 324.11 82.0594L320.672 81.6161L324.762 69.7891Z" fill="#E89182"/>
<path d="M291.198 121.992C289.216 121.996 287.261 122.445 285.476 123.305C285.257 125.503 285.704 127.716 286.76 129.655C287.817 131.595 289.433 133.171 291.398 134.179L291.607 134.279C293.628 135.317 295.921 135.7 298.169 135.376C300.417 135.053 302.508 134.038 304.154 132.473C303.526 129.504 301.895 126.841 299.536 124.933C297.176 123.024 294.232 121.986 291.198 121.992Z" fill="#9191A3"/>
<path d="M317.846 97.0263L327.047 70.8212C327.452 69.6727 327.411 68.4138 326.933 67.2939C326.454 66.174 325.572 65.2746 324.462 64.7738L316.934 61.3445C316.344 61.0757 315.705 60.9274 315.057 60.9084C314.408 60.8893 313.763 60.9999 313.157 61.2335C312.552 61.4672 312 61.8194 311.532 62.2693C311.065 62.7192 310.692 63.2579 310.435 63.8538L299.871 88.4195C305.082 91.3805 312.033 95.0273 317.846 97.0263Z" fill="#FF8E78"/>
<path d="M298.129 92.4771C304.36 96.6593 312.206 99.5198 316.488 100.892L320.712 88.8303C312.875 87.8768 306.05 82.9754 303.214 80.625L298.129 92.4771Z" fill="#5A5A66"/>
<path d="M326.543 72.1982L318.906 68.6016" stroke="#2D0101" stroke-width="0.64" stroke-miterlimit="10"/>
<path d="M324.761 77.2748L316.781 73.9375" stroke="#2D0101" stroke-width="0.64" stroke-miterlimit="10"/>
<g style="mix-blend-mode:overlay" opacity="0.49">
<path d="M360.277 48.6059C353.697 54.7316 348.474 62.1684 344.945 70.4366C345.054 71.6159 349.261 74.1252 353.31 75.957C361.59 72.6113 367.93 64.4478 370.147 61.2861C370.152 60.5351 370.057 59.7867 369.862 59.0612C368.767 55.0213 366.927 51.9098 369.319 53.5575C371.711 55.2053 373.501 59.0612 373.501 57.2294C373.501 55.3977 369.553 47.6942 360.277 48.6059Z" fill="#FEFEFE"/>
</g>
<g style="mix-blend-mode:overlay" opacity="0.49">
<path d="M384.263 106.7L364.758 87.3203C364.758 87.3203 377.973 105.722 384.263 129.401C390.553 153.08 393.916 208.752 423.793 214.716C423.793 214.716 398.332 142.575 395.028 130.831C391.724 119.088 384.263 106.7 384.263 106.7Z" fill="#FEFEFE"/>
</g>
<g style="mix-blend-mode:multiply" opacity="0.44">
<path d="M310.392 63.8672L286.303 120.075C285.474 122.011 285.22 124.145 285.572 126.221C285.923 128.298 286.865 130.229 288.286 131.785C307.239 106.926 310.392 63.8672 310.392 63.8672Z" fill="#222226"/>
</g>
<path d="M369.551 143.477L377.396 182.395L377.405 164.245L369.551 143.477Z" fill="#222226"/>
<path d="M352.105 91.5391C352.105 91.5391 334.105 147.303 336.74 191.851" stroke="#9191A3" stroke-width="0.88" stroke-miterlimit="10"/>
<path d="M348.015 97.6953L350.834 99.41C351.236 99.6609 345.74 106.829 345.406 107.214C340.981 112.341 335.31 115.846 329.781 119.61C325.959 122.211 323.291 126.343 320.982 130.274C316.407 138.061 313.061 146.601 310.242 155.158C309.741 156.688 309.247 158.219 308.812 159.766L300.038 161.314L298.691 148.767C300.861 143.283 303.573 138.029 306.788 133.084C309.551 128.64 312.8 124.516 316.474 120.789C320.974 116.331 325.976 113.78 331.621 111.045C337.886 107.992 344.335 103.81 348.015 97.6953Z" fill="#CD2E2B"/>
<path d="M348.023 94.6171V97.6951L350.834 99.4098L355.668 97.2268L352.105 91.5391L348.023 94.6171Z" fill="#B52626"/>
<path style="mix-blend-mode:multiply" d="M332.56 300.731L261.907 235.322C260.706 234.204 259.997 232.657 259.934 231.017C259.872 229.377 260.461 227.78 261.573 226.573L396.312 81.0774C396.864 80.4811 397.528 79.9993 398.266 79.6597C399.004 79.3201 399.801 79.1293 400.613 79.0983C401.425 79.0672 402.235 79.1965 402.997 79.4787C403.759 79.7608 404.457 80.1904 405.053 80.7429L475.706 146.151C476.91 147.267 477.622 148.815 477.686 150.455C477.751 152.095 477.162 153.694 476.049 154.9L341.384 300.438C340.828 301.043 340.157 301.531 339.41 301.874C338.663 302.217 337.855 302.407 337.033 302.435C336.212 302.462 335.393 302.325 334.625 302.033C333.857 301.74 333.155 301.298 332.56 300.731Z" fill="url(#paint0_linear_3435_536)"/>
<path d="M360.712 349.996C422.889 349.996 473.294 348.603 473.294 346.885C473.294 345.167 422.889 343.773 360.712 343.773C298.534 343.773 248.129 345.167 248.129 346.885C248.129 348.603 298.534 349.996 360.712 349.996Z" fill="#2F2F35"/>
<path d="M252.437 3.98438H246.691L244.232 6.20926C241.783 7.64191 239.752 9.69047 238.341 12.1513C236.93 14.6121 236.188 17.3994 236.188 20.2361C236.188 23.0728 236.93 25.8601 238.341 28.3209C239.752 30.7817 241.783 32.8303 244.232 34.2629L246.691 36.4878H252.437C256.747 36.4878 260.881 34.7756 263.929 31.7278C266.976 28.68 268.689 24.5463 268.689 20.2361C268.689 15.9259 266.976 11.7922 263.929 8.74439C260.881 5.6966 256.747 3.98438 252.437 3.98438Z" fill="#44444C"/>
<path d="M262.254 24.9364C264.843 16.3421 259.974 7.2769 251.379 4.68867C242.785 2.10044 233.72 6.96933 231.132 15.5636C228.543 24.1579 233.412 33.2232 242.007 35.8114C250.601 38.3996 259.666 33.5307 262.254 24.9364Z" fill="#D1D1E5"/>
<path d="M246.691 15.1487C243.546 11.5102 236.093 10.5316 236.102 17.1561C236.11 23.7806 246.724 30.4636 246.724 30.4636C246.724 30.4636 257.297 23.7722 257.28 17.0808C257.263 10.3894 249.819 11.4684 246.691 15.1487Z" fill="#CD2E2B"/>
<path d="M408.918 286.778H403.28L400.863 288.961C398.458 290.367 396.463 292.379 395.077 294.796C393.69 297.213 392.961 299.95 392.961 302.737C392.961 305.523 393.69 308.26 395.077 310.677C396.463 313.094 398.458 315.106 400.863 316.512L403.28 318.704H408.918C411.045 318.753 413.16 318.376 415.14 317.595C417.119 316.815 418.922 315.647 420.444 314.16C421.965 312.673 423.174 310.896 424 308.936C424.825 306.975 425.251 304.868 425.251 302.741C425.251 300.613 424.825 298.507 424 296.546C423.174 294.585 421.965 292.809 420.444 291.322C418.922 289.835 417.119 288.667 415.14 287.886C413.16 287.106 411.045 286.729 408.918 286.778Z" fill="#44444C"/>
<path d="M409.467 317.437C417.594 314.024 421.415 304.67 418.002 296.543C414.589 288.417 405.235 284.596 397.109 288.008C388.982 291.421 385.161 300.775 388.574 308.902C391.986 317.028 401.341 320.849 409.467 317.437Z" fill="#D1D1E5"/>
<path d="M403.272 297.71C400.185 294.13 392.858 293.177 392.875 299.684C392.892 306.191 403.305 312.749 403.305 312.749C403.305 312.749 413.694 306.15 413.694 299.634C413.694 293.118 406.35 294.122 403.272 297.71Z" fill="#CD2E2B"/>
<path d="M489.329 4.17969H400.442C399.486 4.17969 398.711 4.95486 398.711 5.91109V26.1776C398.711 27.1339 399.486 27.909 400.442 27.909H489.329C490.285 27.909 491.061 27.1339 491.061 26.1776V5.91109C491.061 4.95486 490.285 4.17969 489.329 4.17969Z" fill="#601616"/>
<path d="M482.814 4.17969H393.927C392.97 4.17969 392.195 4.95486 392.195 5.91109V26.1776C392.195 27.1339 392.97 27.909 393.927 27.909H482.814C483.77 27.909 484.545 27.1339 484.545 26.1776V5.91109C484.545 4.95486 483.77 4.17969 482.814 4.17969Z" fill="#CD2E2B"/>
<path d="M481.174 5.82812H395.591C394.598 5.82812 393.793 6.63326 393.793 7.62644V24.472C393.793 25.4652 394.598 26.2703 395.591 26.2703H481.174C482.167 26.2703 482.973 25.4652 482.973 24.472V7.62644C482.973 6.63326 482.167 5.82812 481.174 5.82812Z" fill="white"/>
<path d="M405.965 8.98438H406.927L407.144 9.85426L405.965 10.2139V8.98438Z" fill="#A87D1D"/>
<path d="M407.434 9.29399L409.166 12.7986L413.038 13.3674C413.143 13.3835 413.241 13.4285 413.321 13.4972C413.402 13.566 413.461 13.6559 413.493 13.7567C413.526 13.8575 413.529 13.9652 413.503 14.0679C413.477 14.1705 413.424 14.2639 413.348 14.3376L410.546 17.0644L411.206 20.9203C411.227 21.0266 411.216 21.1365 411.176 21.237C411.136 21.3375 411.068 21.4244 410.98 21.4877C410.892 21.5509 410.788 21.5877 410.68 21.5939C410.572 21.6001 410.464 21.5753 410.37 21.5225L406.907 19.6991L403.444 21.5225C403.35 21.5753 403.242 21.6001 403.134 21.5939C403.026 21.5877 402.922 21.5509 402.834 21.4877C402.747 21.4244 402.679 21.3375 402.639 21.237C402.598 21.1365 402.588 21.0266 402.608 20.9203L403.269 17.0644L400.492 14.3125C400.416 14.2383 400.362 14.1442 400.337 14.041C400.311 13.9377 400.315 13.8294 400.349 13.7284C400.382 13.6274 400.442 13.5377 400.524 13.4694C400.605 13.4012 400.704 13.3571 400.81 13.3423L404.682 12.7735L406.414 9.29399C406.461 9.19872 406.533 9.1185 406.623 9.0624C406.714 9.0063 406.818 8.97656 406.924 8.97656C407.03 8.97656 407.134 9.0063 407.224 9.0624C407.315 9.1185 407.387 9.19872 407.434 9.29399Z" fill="#44444C"/>
<path d="M406.473 9.29399L408.205 12.7986L412.077 13.3674C412.182 13.3835 412.28 13.4285 412.36 13.4972C412.441 13.566 412.5 13.6559 412.532 13.7567C412.565 13.8575 412.568 13.9652 412.542 14.0679C412.517 14.1705 412.463 14.2639 412.387 14.3376L409.585 17.0644L410.245 20.9203C410.266 21.0266 410.255 21.1365 410.215 21.237C410.175 21.3375 410.107 21.4244 410.019 21.4877C409.931 21.5509 409.827 21.5877 409.719 21.5939C409.611 21.6001 409.504 21.5753 409.409 21.5225L405.946 19.6991L402.483 21.5225C402.389 21.5753 402.281 21.6001 402.173 21.5939C402.065 21.5877 401.961 21.5509 401.874 21.4877C401.786 21.4244 401.718 21.3375 401.678 21.237C401.638 21.1365 401.627 21.0266 401.647 20.9203L402.308 17.0644L399.531 14.3125C399.455 14.2383 399.401 14.1442 399.376 14.041C399.35 13.9377 399.355 13.8294 399.388 13.7284C399.421 13.6274 399.481 13.5377 399.563 13.4694C399.644 13.4012 399.743 13.3571 399.849 13.3423L403.721 12.7735L405.453 9.29399C405.5 9.19872 405.572 9.1185 405.663 9.0624C405.753 9.0063 405.857 8.97656 405.963 8.97656C406.069 8.97656 406.173 9.0063 406.263 9.0624C406.354 9.1185 406.426 9.19872 406.473 9.29399Z" fill="#9191A3"/>
<path opacity="0.62" d="M404.967 13.0274C404.926 13.1083 404.854 13.1695 404.768 13.1977C404.682 13.226 404.588 13.2189 404.507 13.178C404.467 13.1584 404.432 13.1312 404.403 13.0978C404.374 13.0645 404.351 13.0256 404.337 12.9836C404.323 12.9416 404.318 12.8972 404.321 12.8531C404.325 12.8089 404.337 12.7658 404.357 12.7263L405.553 10.3509C405.572 10.3111 405.599 10.2757 405.633 10.2466C405.666 10.2174 405.705 10.1952 405.747 10.1812C405.789 10.1672 405.833 10.1617 405.878 10.165C405.922 10.1683 405.965 10.1803 406.004 10.2003C406.085 10.2415 406.146 10.313 406.175 10.3992C406.203 10.4855 406.196 10.5794 406.155 10.6604L404.967 13.0274Z" fill="white"/>
<path d="M422.133 8.98438H423.086L423.312 9.85426L422.133 10.2139V8.98438Z" fill="#A87D1D"/>
<path d="M423.595 9.29399L425.326 12.7986L429.199 13.3674C429.304 13.3822 429.403 13.4263 429.485 13.4945C429.566 13.5628 429.627 13.6525 429.66 13.7535C429.693 13.8545 429.697 13.9628 429.672 14.0661C429.647 14.1693 429.593 14.2634 429.517 14.3376L426.715 17.0644L427.375 20.9203C427.396 21.0266 427.385 21.1365 427.345 21.237C427.305 21.3375 427.237 21.4244 427.149 21.4877C427.061 21.5509 426.957 21.5877 426.849 21.5939C426.741 21.6001 426.634 21.5753 426.539 21.5225L423.076 19.6991L419.613 21.5225C419.519 21.5753 419.411 21.6001 419.303 21.5939C419.195 21.5877 419.091 21.5509 419.004 21.4877C418.916 21.4244 418.848 21.3375 418.808 21.237C418.768 21.1365 418.757 21.0266 418.777 20.9203L419.446 17.0644L416.661 14.3125C416.585 14.2388 416.531 14.1454 416.505 14.0428C416.48 13.9402 416.483 13.8324 416.515 13.7316C416.547 13.6308 416.607 13.5409 416.687 13.4722C416.768 13.4034 416.866 13.3584 416.97 13.3423L420.843 12.7735L422.574 9.29399C422.621 9.19872 422.694 9.1185 422.784 9.0624C422.874 9.0063 422.978 8.97656 423.085 8.97656C423.191 8.97656 423.295 9.0063 423.385 9.0624C423.475 9.1185 423.548 9.19872 423.595 9.29399Z" fill="#44444C"/>
<path d="M422.634 9.29399L424.365 12.7986L428.238 13.3674C428.343 13.3822 428.442 13.4263 428.524 13.4945C428.605 13.5628 428.666 13.6525 428.699 13.7535C428.732 13.8545 428.736 13.9628 428.711 14.0661C428.686 14.1693 428.632 14.2634 428.556 14.3376L425.754 17.0644L426.415 20.9203C426.435 21.0266 426.424 21.1365 426.384 21.237C426.344 21.3375 426.276 21.4244 426.188 21.4877C426.1 21.5509 425.996 21.5877 425.888 21.5939C425.78 21.6001 425.673 21.5753 425.578 21.5225L422.115 19.6991L418.653 21.5225C418.558 21.5753 418.451 21.6001 418.343 21.5939C418.234 21.5877 418.13 21.5509 418.043 21.4877C417.955 21.4244 417.887 21.3375 417.847 21.237C417.807 21.1365 417.796 21.0266 417.816 20.9203L418.485 17.0644L415.7 14.3125C415.624 14.2388 415.57 14.1454 415.544 14.0428C415.519 13.9402 415.522 13.8324 415.554 13.7316C415.586 13.6308 415.646 13.5409 415.726 13.4722C415.807 13.4034 415.905 13.3584 416.009 13.3423L419.882 12.7735L421.613 9.29399C421.66 9.19872 421.733 9.1185 421.823 9.0624C421.913 9.0063 422.017 8.97656 422.124 8.97656C422.23 8.97656 422.334 9.0063 422.424 9.0624C422.514 9.1185 422.587 9.19872 422.634 9.29399Z" fill="#9191A3"/>
<path opacity="0.62" d="M421.127 13.0274C421.107 13.0672 421.08 13.1026 421.047 13.1318C421.013 13.1609 420.974 13.1831 420.932 13.1971C420.89 13.2111 420.846 13.2166 420.802 13.2133C420.758 13.2101 420.715 13.1981 420.675 13.178C420.635 13.1584 420.6 13.1312 420.571 13.0978C420.542 13.0645 420.519 13.0256 420.505 12.9836C420.491 12.9416 420.486 12.8972 420.489 12.8531C420.492 12.8089 420.504 12.7658 420.525 12.7263L421.712 10.3509C421.732 10.3111 421.759 10.2757 421.792 10.2466C421.826 10.2174 421.865 10.1952 421.907 10.1812C421.949 10.1672 421.993 10.1617 422.037 10.165C422.081 10.1683 422.124 10.1803 422.164 10.2003C422.245 10.2415 422.306 10.313 422.334 10.3992C422.362 10.4855 422.355 10.5794 422.314 10.6604L421.127 13.0274Z" fill="white"/>
<path d="M438.293 8.98438H439.255L439.472 9.85426L438.293 10.2139V8.98438Z" fill="#A87D1D"/>
<path d="M439.754 9.29399L441.485 12.7986L445.358 13.3674C445.463 13.3822 445.562 13.4263 445.644 13.4945C445.725 13.5628 445.786 13.6525 445.819 13.7535C445.852 13.8545 445.856 13.9628 445.831 14.0661C445.806 14.1693 445.752 14.2634 445.676 14.3376L442.874 17.0644L443.535 20.9203C443.555 21.0266 443.544 21.1365 443.504 21.237C443.464 21.3375 443.396 21.4244 443.308 21.4877C443.22 21.5509 443.116 21.5877 443.008 21.5939C442.9 21.6001 442.793 21.5753 442.698 21.5225L439.235 19.6991L435.773 21.5225C435.678 21.5753 435.571 21.6001 435.462 21.5939C435.354 21.5877 435.25 21.5509 435.163 21.4877C435.075 21.4244 435.007 21.3375 434.967 21.237C434.927 21.1365 434.916 21.0266 434.936 20.9203L435.597 17.0644L432.82 14.3125C432.744 14.2383 432.69 14.1442 432.665 14.041C432.639 13.9377 432.644 13.8294 432.677 13.7284C432.71 13.6274 432.771 13.5377 432.852 13.4694C432.934 13.4012 433.033 13.3571 433.138 13.3423L437.002 12.7735L438.733 9.29399C438.78 9.19872 438.853 9.1185 438.943 9.0624C439.033 9.0063 439.137 8.97656 439.244 8.97656C439.35 8.97656 439.454 9.0063 439.544 9.0624C439.634 9.1185 439.707 9.19872 439.754 9.29399Z" fill="#44444C"/>
<path d="M438.785 9.28758L440.516 12.7922L444.389 13.361C444.494 13.3758 444.593 13.4198 444.674 13.4881C444.756 13.5563 444.817 13.6461 444.85 13.7471C444.883 13.8481 444.887 13.9564 444.862 14.0596C444.836 14.1629 444.783 14.257 444.706 14.3312L441.904 17.058L442.565 20.9139C442.585 21.0202 442.575 21.1301 442.535 21.2306C442.495 21.331 442.427 21.418 442.339 21.4812C442.251 21.5445 442.147 21.5813 442.039 21.5875C441.931 21.5937 441.823 21.5689 441.729 21.5161L438.258 19.6927L434.795 21.5161C434.7 21.5689 434.593 21.5937 434.485 21.5875C434.377 21.5813 434.273 21.5445 434.185 21.4812C434.097 21.418 434.029 21.331 433.989 21.2306C433.949 21.1301 433.938 21.0202 433.958 20.9139L434.619 17.058L431.859 14.3061C431.783 14.2319 431.729 14.1378 431.704 14.0345C431.679 13.9313 431.683 13.823 431.716 13.722C431.749 13.621 431.81 13.5313 431.891 13.463C431.973 13.3948 432.072 13.3507 432.177 13.3359L436.05 12.7671L437.781 9.28758C437.827 9.19417 437.899 9.11557 437.988 9.06062C438.076 9.00567 438.178 8.97656 438.283 8.97656C438.387 8.97656 438.489 9.00567 438.578 9.06062C438.667 9.11557 438.738 9.19417 438.785 9.28758Z" fill="#9191A3"/>
<path opacity="0.62" d="M437.287 13.0279C437.267 13.0677 437.24 13.1031 437.207 13.1322C437.173 13.1614 437.135 13.1836 437.093 13.1976C437.051 13.2116 437.006 13.2171 436.962 13.2138C436.918 13.2105 436.875 13.1985 436.835 13.1785C436.796 13.1589 436.76 13.1317 436.731 13.0983C436.702 13.0649 436.68 13.0261 436.666 12.9841C436.652 12.9421 436.646 12.8977 436.649 12.8535C436.653 12.8094 436.665 12.7663 436.685 12.7268L437.872 10.3514C437.914 10.2705 437.985 10.2093 438.071 10.1811C438.158 10.1529 438.251 10.16 438.332 10.2008C438.413 10.242 438.475 10.3135 438.503 10.3997C438.531 10.486 438.524 10.5798 438.483 10.6608L437.287 13.0279Z" fill="white"/>
<path d="M454.449 8.98438H455.411L455.629 9.85426L454.449 10.2139V8.98438Z" fill="#A87D1D"/>
<path d="M455.922 9.29399L457.654 12.7986L461.526 13.3674C461.631 13.3835 461.729 13.4285 461.809 13.4972C461.89 13.566 461.95 13.6559 461.982 13.7567C462.014 13.8575 462.017 13.9652 461.991 14.0679C461.966 14.1705 461.912 14.2639 461.836 14.3376L459.034 17.0644L459.695 20.9203C459.715 21.0266 459.704 21.1365 459.664 21.237C459.624 21.3375 459.556 21.4244 459.468 21.4877C459.38 21.5509 459.276 21.5877 459.168 21.5939C459.06 21.6001 458.953 21.5753 458.858 21.5225L455.395 19.6991L451.933 21.5225C451.838 21.5753 451.731 21.6001 451.623 21.5939C451.515 21.5877 451.411 21.5509 451.323 21.4877C451.235 21.4244 451.167 21.3375 451.127 21.237C451.087 21.1365 451.076 21.0266 451.096 20.9203L451.757 17.0644L448.98 14.3125C448.904 14.2383 448.85 14.1442 448.825 14.041C448.8 13.9377 448.804 13.8294 448.837 13.7284C448.87 13.6274 448.931 13.5377 449.012 13.4694C449.094 13.4012 449.193 13.3571 449.298 13.3423L453.171 12.7735L454.902 9.29399C454.949 9.19872 455.022 9.1185 455.112 9.0624C455.202 9.0063 455.306 8.97656 455.412 8.97656C455.518 8.97656 455.622 9.0063 455.713 9.0624C455.803 9.1185 455.875 9.19872 455.922 9.29399Z" fill="#44444C"/>
<path d="M454.96 9.29399L456.691 12.7986L460.564 13.3674C460.668 13.3835 460.766 13.4285 460.847 13.4972C460.927 13.566 460.987 13.6559 461.019 13.7567C461.051 13.8575 461.055 13.9652 461.029 14.0679C461.003 14.1705 460.949 14.2639 460.873 14.3376L458.071 17.0644L458.732 20.9203C458.752 21.0266 458.742 21.1365 458.701 21.237C458.661 21.3375 458.593 21.4244 458.506 21.4877C458.418 21.5509 458.314 21.5877 458.206 21.5939C458.098 21.6001 457.99 21.5753 457.896 21.5225L454.433 19.6991L450.97 21.5225C450.876 21.5753 450.768 21.6001 450.66 21.5939C450.552 21.5877 450.448 21.5509 450.36 21.4877C450.272 21.4244 450.204 21.3375 450.164 21.237C450.124 21.1365 450.114 21.0266 450.134 20.9203L450.794 17.0644L447.984 14.3125C447.908 14.2383 447.854 14.1442 447.829 14.041C447.804 13.9377 447.808 13.8294 447.841 13.7284C447.874 13.6274 447.935 13.5377 448.016 13.4694C448.098 13.4012 448.197 13.3571 448.302 13.3423L452.175 12.7735L453.939 9.29399C453.986 9.19872 454.059 9.1185 454.149 9.0624C454.239 9.0063 454.343 8.97656 454.45 8.97656C454.556 8.97656 454.66 9.0063 454.75 9.0624C454.84 9.1185 454.913 9.19872 454.96 9.29399Z" fill="#9191A3"/>
<path opacity="0.62" d="M453.455 13.0274C453.414 13.1083 453.343 13.1695 453.257 13.1977C453.17 13.226 453.076 13.2189 452.995 13.178C452.956 13.1584 452.92 13.1312 452.891 13.0978C452.862 13.0645 452.84 13.0256 452.826 12.9836C452.812 12.9416 452.806 12.8972 452.81 12.8531C452.813 12.8089 452.825 12.7658 452.845 12.7263L454.041 10.3509C454.061 10.3111 454.088 10.2757 454.121 10.2466C454.154 10.2174 454.193 10.1952 454.235 10.1812C454.277 10.1672 454.322 10.1617 454.366 10.165C454.41 10.1683 454.453 10.1803 454.493 10.2003C454.573 10.2415 454.635 10.313 454.663 10.3992C454.691 10.4855 454.684 10.5794 454.643 10.6604L453.455 13.0274Z" fill="white"/>
<path d="M471.582 8.98438H470.612L470.395 9.85426L471.582 10.2139V8.98438Z" fill="#A87D1D"/>
<path d="M470.102 9.29399L468.37 12.7986L464.498 13.3674C464.393 13.3835 464.295 13.4285 464.215 13.4972C464.134 13.566 464.075 13.6559 464.043 13.7567C464.01 13.8575 464.007 13.9652 464.033 14.0679C464.058 14.1705 464.112 14.2639 464.188 14.3376L466.99 17.0644L466.329 20.9203C466.309 21.0266 466.32 21.1365 466.36 21.237C466.4 21.3375 466.468 21.4244 466.556 21.4877C466.644 21.5509 466.748 21.5877 466.856 21.5939C466.964 21.6001 467.071 21.5753 467.166 21.5225L470.629 19.6991L474.092 21.5225C474.186 21.5753 474.294 21.6001 474.402 21.5939C474.51 21.5877 474.614 21.5509 474.701 21.4877C474.789 21.4244 474.857 21.3375 474.897 21.237C474.937 21.1365 474.948 21.0266 474.928 20.9203L474.267 17.0644L477.044 14.3125C477.12 14.2383 477.174 14.1442 477.199 14.041C477.225 13.9377 477.22 13.8294 477.187 13.7284C477.154 13.6274 477.094 13.5377 477.012 13.4694C476.931 13.4012 476.832 13.3571 476.726 13.3423L472.854 12.7735L471.122 9.29399C471.075 9.19872 471.003 9.1185 470.912 9.0624C470.822 9.0063 470.718 8.97656 470.612 8.97656C470.506 8.97656 470.402 9.0063 470.312 9.0624C470.221 9.1185 470.149 9.19872 470.102 9.29399Z" fill="#202023"/>
<path d="M471.063 9.29399L469.331 12.7986L465.459 13.3674C465.354 13.3835 465.256 13.4285 465.176 13.4972C465.095 13.566 465.036 13.6559 465.003 13.7567C464.971 13.8575 464.968 13.9652 464.994 14.0679C465.019 14.1705 465.073 14.2639 465.149 14.3376L467.951 17.0644L467.282 20.9203C467.262 21.0266 467.273 21.1365 467.313 21.237C467.353 21.3375 467.421 21.4244 467.509 21.4877C467.596 21.5509 467.7 21.5877 467.808 21.5939C467.917 21.6001 468.024 21.5753 468.119 21.5225L471.581 19.6991L475.044 21.5225C475.139 21.5753 475.246 21.6001 475.354 21.5939C475.462 21.5877 475.566 21.5509 475.654 21.4877C475.742 21.4244 475.81 21.3375 475.85 21.237C475.89 21.1365 475.901 21.0266 475.881 20.9203L475.22 17.0644L478.005 14.3125C478.081 14.2383 478.135 14.1442 478.16 14.041C478.186 13.9377 478.181 13.8294 478.148 13.7284C478.115 13.6274 478.054 13.5377 477.973 13.4694C477.891 13.4012 477.792 13.3571 477.687 13.3423L473.815 12.7735L472.083 9.29399C472.036 9.19872 471.964 9.1185 471.873 9.0624C471.783 9.0063 471.679 8.97656 471.573 8.97656C471.467 8.97656 471.363 9.0063 471.272 9.0624C471.182 9.1185 471.11 9.19872 471.063 9.29399Z" fill="#44444C"/>
<path d="M436.383 37.4969H432.117L437.596 28.8984L439.695 29.6345L436.383 37.4969Z" fill="#601616"/>
<path d="M444.923 27.4688L436.383 37.4975L438.323 27.4688H444.923Z" fill="#601616"/>
<path d="M440.649 27.4688L432.117 37.4975L434.049 27.4688H440.649Z" fill="#CD2E2B"/>
<path d="M245.72 55.4453H201.498C196.967 55.4453 193.293 59.119 193.293 63.6506V94.3223C193.293 98.854 196.967 102.528 201.498 102.528H245.72C250.252 102.528 253.925 98.854 253.925 94.3223V63.6506C253.925 59.119 250.252 55.4453 245.72 55.4453Z" fill="#601616"/>
<path d="M237.208 55.4453H192.987C188.455 55.4453 184.781 59.119 184.781 63.6506V94.3223C184.781 98.854 188.455 102.528 192.987 102.528H237.208C241.74 102.528 245.414 98.854 245.414 94.3223V63.6506C245.414 59.119 241.74 55.4453 237.208 55.4453Z" fill="#CD2E2B"/>
<path d="M236.438 59.9062H193.069C191.217 59.9062 189.715 61.4079 189.715 63.2603V94.6262C189.715 96.4786 191.217 97.9803 193.069 97.9803H236.438C238.29 97.9803 239.792 96.4786 239.792 94.6262V63.2603C239.792 61.4079 238.29 59.9062 236.438 59.9062Z" fill="#9B2323"/>
<path d="M192.098 94.61V63.2441C192.098 62.3568 192.451 61.5058 193.078 60.8784C193.705 60.2509 194.556 59.8984 195.444 59.8984H193.068C192.181 59.8984 191.33 60.2509 190.703 60.8784C190.075 61.5058 189.723 62.3568 189.723 63.2441V94.61C189.723 95.4974 190.075 96.3484 190.703 96.9758C191.33 97.6033 192.181 97.9557 193.068 97.9557H195.452C195.012 97.9568 194.576 97.8711 194.169 97.7035C193.762 97.5358 193.393 97.2896 193.081 96.9788C192.769 96.668 192.522 96.2988 192.354 95.8923C192.185 95.4859 192.098 95.0501 192.098 94.61Z" fill="#601616"/>
<path d="M206.5 75.7089C206.5 75.7089 213.4 75.4831 214.312 71.2926C215.224 67.1021 213.969 65.63 214.312 64.3837C214.655 63.1375 219.406 63.5975 219.632 67.6709C219.814 69.84 219.622 72.0243 219.063 74.1281H225.244C225.643 74.124 226.038 74.2127 226.397 74.3872C226.756 74.5617 227.069 74.8171 227.312 75.1334C227.556 75.4497 227.722 75.8182 227.799 76.2098C227.875 76.6014 227.86 77.0055 227.754 77.3901C227.519 78.2184 227.019 78.9469 226.332 79.4645C227.921 82.6178 227.921 83.6466 226.449 85.2274C227.126 87.6029 226.9 90.7227 222.141 90.7227H206.5V75.7089Z" fill="white"/>
<path d="M207.739 89.585C207.74 89.8504 207.689 90.1134 207.588 90.359C207.487 90.6045 207.339 90.8277 207.152 91.0158C206.964 91.2038 206.742 91.3531 206.497 91.4549C206.252 91.5567 205.989 91.6091 205.723 91.6091C205.187 91.6091 204.672 91.3959 204.292 91.0163C203.912 90.6367 203.699 90.1218 203.699 89.585V75.5163C203.701 74.9802 203.915 74.4666 204.295 74.0875C204.674 73.7084 205.187 73.4944 205.723 73.4922C206.259 73.4944 206.771 73.7086 207.149 74.088C207.527 74.4674 207.739 74.9809 207.739 75.5163V89.585Z" fill="white"/>
<path d="M222.26 79.5529C222.243 79.7881 222.135 80.0073 221.958 80.1636C221.782 80.3199 221.551 80.4009 221.315 80.3894H213.302C213.072 80.3921 212.85 80.3071 212.681 80.1517C212.511 79.9963 212.408 79.7822 212.391 79.5529C212.391 79.3111 212.487 79.0792 212.658 78.9083C212.829 78.7373 213.061 78.6412 213.302 78.6412H221.315C221.438 78.6367 221.56 78.657 221.674 78.7008C221.789 78.7446 221.893 78.811 221.982 78.8961C222.07 78.9813 222.14 79.0833 222.188 79.1961C222.236 79.309 222.261 79.4303 222.26 79.5529Z" fill="#9B2323"/>
<path d="M222.26 85.0445C222.261 85.1668 222.236 85.2877 222.188 85.4001C222.14 85.5126 222.07 85.6141 221.981 85.6985C221.893 85.783 221.788 85.8486 221.674 85.8915C221.559 85.9343 221.437 85.9535 221.315 85.9479H213.302C213.183 85.949 213.065 85.9264 212.954 85.8815C212.843 85.8366 212.743 85.7702 212.658 85.6863C212.573 85.6023 212.506 85.5023 212.46 85.3922C212.414 85.282 212.391 85.1639 212.391 85.0445C212.391 84.8027 212.487 84.5708 212.658 84.3998C212.829 84.2289 213.061 84.1328 213.302 84.1328H221.315C221.557 84.1328 221.789 84.2289 221.96 84.3998C222.131 84.5708 222.227 84.8027 222.227 85.0445H222.26Z" fill="#9B2323"/>
<path d="M219.858 100.305V116.648L207.746 100.305H219.858Z" fill="#CD2E2B"/>
<path d="M226.225 102.523H219.859V116.642H226.225V102.523Z" fill="#601616"/>
<path d="M492.626 250.227H448.405C443.873 250.227 440.199 253.9 440.199 258.432V289.104C440.199 293.635 443.873 297.309 448.405 297.309H492.626C497.158 297.309 500.832 293.635 500.832 289.104V258.432C500.832 253.9 497.158 250.227 492.626 250.227Z" fill="#9B2323"/>
<path d="M501.142 250.227H456.92C452.388 250.227 448.715 253.9 448.715 258.432V289.104C448.715 293.635 452.388 297.309 456.92 297.309H501.142C505.674 297.309 509.347 293.635 509.347 289.104V258.432C509.347 253.9 505.674 250.227 501.142 250.227Z" fill="#CD2E2B"/>
<path d="M501.055 254.68H457.686C455.834 254.68 454.332 256.181 454.332 258.034V289.4C454.332 291.252 455.834 292.754 457.686 292.754H501.055C502.907 292.754 504.409 291.252 504.409 289.4V258.034C504.409 256.181 502.907 254.68 501.055 254.68Z" fill="#9B2323"/>
<path d="M502.026 289.407V258.041C502.026 257.154 501.673 256.303 501.046 255.675C500.419 255.048 499.568 254.695 498.68 254.695H501.064C501.951 254.695 502.802 255.048 503.43 255.675C504.057 256.303 504.41 257.154 504.41 258.041V289.407C504.41 290.294 504.057 291.145 503.43 291.773C502.802 292.4 501.951 292.753 501.064 292.753H498.672C499.112 292.754 499.548 292.668 499.955 292.5C500.362 292.333 500.731 292.086 501.043 291.776C501.355 291.465 501.602 291.096 501.77 290.689C501.939 290.283 502.026 289.847 502.026 289.407Z" fill="#601616"/>
<path d="M469.07 276.858C469.07 276.858 475.979 277.083 476.891 281.274C477.803 285.464 476.548 286.936 476.891 288.183C477.234 289.429 481.985 288.977 482.211 284.896C482.393 282.729 482.201 280.548 481.642 278.447H487.823C488.223 278.451 488.618 278.362 488.978 278.187C489.338 278.013 489.652 277.756 489.895 277.439C490.139 277.122 490.305 276.752 490.381 276.359C490.457 275.966 490.44 275.562 490.332 275.176C490.102 274.346 489.601 273.616 488.91 273.102C490.491 269.949 490.491 268.92 489.019 267.347C489.705 264.964 489.471 261.844 484.72 261.844H469.07V276.858Z" fill="white"/>
<path d="M470.317 263.016C470.317 262.481 470.105 261.967 469.727 261.588C469.35 261.209 468.837 260.994 468.302 260.992C467.765 260.992 467.25 261.205 466.87 261.585C466.491 261.965 466.277 262.48 466.277 263.016V277.043C466.277 277.58 466.491 278.095 466.87 278.474C467.25 278.854 467.765 279.067 468.302 279.067C468.567 279.067 468.83 279.015 469.075 278.913C469.32 278.811 469.543 278.662 469.73 278.474C469.917 278.286 470.065 278.063 470.166 277.817C470.267 277.572 470.318 277.309 470.317 277.043V263.016Z" fill="white"/>
<path d="M484.839 273.068C484.839 272.826 484.743 272.594 484.572 272.423C484.401 272.252 484.169 272.156 483.927 272.156H475.872C475.753 272.156 475.635 272.18 475.524 272.226C475.414 272.272 475.314 272.339 475.23 272.424C475.146 272.509 475.08 272.609 475.035 272.72C474.99 272.83 474.968 272.949 474.969 273.068C474.968 273.187 474.99 273.306 475.035 273.416C475.08 273.527 475.146 273.627 475.23 273.712C475.314 273.797 475.414 273.864 475.524 273.91C475.635 273.956 475.753 273.98 475.872 273.98H483.952C484.194 273.98 484.426 273.884 484.597 273.713C484.768 273.542 484.864 273.31 484.864 273.068H484.839Z" fill="#9B2323"/>
<path d="M484.839 267.529C484.839 267.287 484.743 267.055 484.572 266.884C484.401 266.713 484.169 266.617 483.927 266.617H475.872C475.753 266.617 475.635 266.641 475.524 266.687C475.414 266.733 475.314 266.8 475.23 266.885C475.146 266.969 475.08 267.07 475.035 267.181C474.99 267.291 474.968 267.41 474.969 267.529C474.969 267.768 475.064 267.998 475.233 268.168C475.403 268.337 475.633 268.432 475.872 268.432H483.952C484.071 268.433 484.19 268.411 484.3 268.366C484.411 268.321 484.511 268.255 484.596 268.171C484.681 268.087 484.748 267.987 484.794 267.877C484.84 267.766 484.864 267.648 484.864 267.529H484.839Z" fill="#9B2323"/>
<path d="M474.266 295.078V311.422L486.385 295.078H474.266Z" fill="#CD2E2B"/>
<path d="M474.268 297.305H467.902V311.424H474.268V297.305Z" fill="#9B2323"/>
<path d="M252.946 129.625H247.46L245.109 131.75C242.768 133.119 240.827 135.077 239.477 137.429C238.128 139.781 237.418 142.446 237.418 145.157C237.418 147.869 238.128 150.534 239.477 152.886C240.827 155.238 242.768 157.196 245.109 158.565L247.46 160.69H252.946C257.066 160.69 261.017 159.053 263.93 156.14C266.842 153.228 268.479 149.277 268.479 145.157C268.479 141.038 266.842 137.087 263.93 134.174C261.017 131.261 257.066 129.625 252.946 129.625Z" fill="#44444C"/>
<path d="M257.667 156.876C264.132 151.238 264.802 141.426 259.164 134.961C253.526 128.496 243.715 127.825 237.249 133.463C230.784 139.101 230.114 148.913 235.752 155.378C241.39 161.844 251.201 162.514 257.667 156.876Z" fill="#D1D1E5"/>
<path d="M247.461 155.352H246.483C246.423 155.359 246.363 155.353 246.306 155.333C246.25 155.313 246.199 155.28 246.157 155.237C246.115 155.194 246.083 155.143 246.064 155.086C246.045 155.029 246.04 154.968 246.048 154.909C246.048 154.282 246.048 153.646 246.048 153.019C246.051 152.996 246.05 152.972 246.045 152.949C246.039 152.927 246.029 152.905 246.015 152.887C246.001 152.868 245.983 152.852 245.963 152.841C245.943 152.829 245.92 152.821 245.897 152.818C245.004 152.549 244.212 152.016 243.627 151.289C243.042 150.562 242.69 149.675 242.618 148.745C242.614 148.7 242.614 148.655 242.618 148.611C242.607 148.55 242.61 148.487 242.626 148.428C242.642 148.368 242.671 148.312 242.711 148.265C242.751 148.218 242.801 148.18 242.857 148.155C242.913 148.129 242.975 148.116 243.037 148.117H245.036C245.27 148.117 245.404 148.276 245.454 148.527C245.486 148.719 245.54 148.907 245.613 149.088C245.764 149.409 246 149.683 246.294 149.882C246.588 150.081 246.931 150.196 247.286 150.217C247.637 150.251 247.992 150.217 248.331 150.116C248.612 150.032 248.867 149.876 249.068 149.662C249.27 149.449 249.411 149.186 249.479 148.9C249.547 148.614 249.539 148.316 249.454 148.035C249.37 147.753 249.214 147.499 249 147.298C248.543 146.85 247.991 146.51 247.386 146.302C246.734 146.043 246.064 145.834 245.412 145.558C244.577 145.235 243.848 144.688 243.304 143.977C243.004 143.577 242.787 143.12 242.665 142.635C242.543 142.15 242.518 141.645 242.593 141.15C242.685 140.264 243.049 139.429 243.635 138.758C244.22 138.087 244.999 137.614 245.864 137.403C245.998 137.403 246.031 137.319 246.031 137.185C246.031 136.608 246.031 136.023 246.031 135.446C246.031 135.111 246.165 134.969 246.499 134.969H248.406C248.716 134.969 248.858 135.119 248.858 135.429V137.386C248.851 137.432 248.861 137.48 248.888 137.519C248.914 137.558 248.954 137.585 249 137.595C249.723 137.885 250.355 138.364 250.828 138.983C251.302 139.601 251.601 140.335 251.694 141.108C251.702 141.194 251.702 141.281 251.694 141.367C251.699 141.426 251.693 141.485 251.675 141.54C251.656 141.596 251.626 141.647 251.587 141.691C251.548 141.734 251.499 141.769 251.446 141.792C251.392 141.816 251.334 141.828 251.275 141.827H249.243C248.992 141.827 248.867 141.677 248.808 141.384C248.772 141.152 248.682 140.931 248.545 140.739C248.409 140.548 248.23 140.39 248.022 140.28C247.651 140.089 247.23 140.019 246.818 140.079C246.406 140.139 246.022 140.326 245.722 140.615C245.583 140.75 245.477 140.914 245.411 141.096C245.345 141.278 245.32 141.472 245.338 141.664C245.357 141.857 245.418 142.043 245.518 142.208C245.617 142.374 245.753 142.515 245.914 142.622C246.399 142.931 246.926 143.171 247.478 143.333C248.385 143.613 249.248 144.015 250.046 144.529C250.662 144.896 251.185 145.402 251.572 146.006C251.959 146.611 252.2 147.297 252.275 148.01C252.351 148.724 252.259 149.445 252.007 150.117C251.755 150.789 251.35 151.393 250.824 151.881C250.297 152.36 249.659 152.7 248.967 152.868C248.85 152.868 248.825 152.944 248.825 153.061V154.825C248.825 155.227 248.708 155.352 248.314 155.352H247.461Z" fill="#5A5A66"/>
<path opacity="0.19" d="M247.461 129.625C244.236 129.626 241.091 130.631 238.463 132.5C235.835 134.369 233.854 137.01 232.795 140.056C231.736 143.102 231.651 146.402 232.553 149.499C233.454 152.595 235.297 155.334 237.825 157.336L251.568 130.169C250.229 129.804 248.848 129.621 247.461 129.625Z" fill="white"/>
<path d="M247.461 158.071C254.594 158.071 260.376 152.289 260.376 145.157C260.376 138.024 254.594 132.242 247.461 132.242C240.329 132.242 234.547 138.024 234.547 145.157C234.547 152.289 240.329 158.071 247.461 158.071Z" stroke="#5A5A66" stroke-width="0.6" stroke-miterlimit="10"/>
<path d="M250.891 281.883H242.945L239.541 284.961C236.152 286.943 233.341 289.779 231.387 293.184C229.434 296.59 228.406 300.448 228.406 304.374C228.406 308.3 229.434 312.158 231.387 315.564C233.341 318.97 236.152 321.805 239.541 323.788L242.945 326.866H250.891C256.856 326.866 262.577 324.496 266.795 320.278C271.013 316.06 273.382 310.339 273.382 304.374C273.382 298.409 271.013 292.688 266.795 288.47C262.577 284.252 256.856 281.883 250.891 281.883Z" fill="#44444C"/>
<path d="M263.667 313.092C268.505 301.651 263.152 288.454 251.711 283.617C240.27 278.779 227.073 284.132 222.236 295.573C217.398 307.014 222.751 320.211 234.192 325.048C245.633 329.886 258.83 324.533 263.667 313.092Z" fill="#D1D1E5"/>
<path d="M242.953 319.127H241.531C241.445 319.138 241.357 319.129 241.275 319.101C241.193 319.073 241.119 319.027 241.057 318.965C240.996 318.904 240.949 318.829 240.921 318.747C240.893 318.665 240.884 318.578 240.895 318.492C240.895 317.58 240.895 316.668 240.895 315.748C240.895 315.573 240.837 315.514 240.669 315.456C239.382 315.069 238.242 314.303 237.396 313.259C236.55 312.215 236.038 310.94 235.927 309.601C235.923 309.534 235.923 309.467 235.927 309.4C235.912 309.313 235.917 309.224 235.94 309.138C235.964 309.053 236.006 308.975 236.063 308.907C236.121 308.84 236.192 308.787 236.273 308.751C236.353 308.714 236.441 308.696 236.529 308.697C237.499 308.697 238.461 308.697 239.431 308.697C239.766 308.697 239.958 308.923 240.034 309.283C240.076 309.569 240.152 309.85 240.259 310.119C240.481 310.603 240.833 311.016 241.277 311.312C241.72 311.607 242.236 311.774 242.769 311.792C243.276 311.842 243.787 311.791 244.274 311.641C244.665 311.499 245.014 311.261 245.29 310.95C245.566 310.639 245.761 310.265 245.856 309.86C245.951 309.455 245.945 309.033 245.836 308.632C245.728 308.23 245.522 307.862 245.236 307.56C244.573 306.92 243.78 306.429 242.911 306.121C241.957 305.753 240.987 305.444 240.05 305.05C238.843 304.578 237.788 303.786 236.997 302.759C236.562 302.178 236.247 301.517 236.071 300.813C235.894 300.109 235.859 299.377 235.969 298.66C236.103 297.379 236.63 296.17 237.477 295.2C238.324 294.23 239.451 293.545 240.703 293.24C240.74 293.236 240.776 293.224 240.808 293.206C240.841 293.188 240.869 293.163 240.892 293.133C240.915 293.103 240.931 293.069 240.94 293.033C240.95 292.997 240.951 292.959 240.945 292.922C240.945 292.086 240.945 291.249 240.945 290.413C240.945 289.928 241.146 289.719 241.623 289.719H244.391C244.835 289.719 245.044 289.928 245.044 290.388V293.215C245.034 293.283 245.049 293.353 245.088 293.41C245.127 293.468 245.186 293.508 245.253 293.524C246.298 293.944 247.211 294.636 247.897 295.529C248.583 296.423 249.016 297.484 249.151 298.602C249.177 298.725 249.191 298.851 249.192 298.978C249.203 299.062 249.196 299.147 249.171 299.228C249.146 299.309 249.104 299.384 249.048 299.447C248.991 299.511 248.922 299.561 248.845 299.596C248.767 299.63 248.683 299.648 248.599 299.647C247.612 299.647 246.633 299.647 245.654 299.647C245.286 299.647 245.102 299.438 245.019 299.02C244.969 298.681 244.841 298.359 244.643 298.08C244.445 297.801 244.184 297.573 243.881 297.414C243.344 297.131 242.731 297.026 242.13 297.113C241.529 297.2 240.971 297.475 240.535 297.899C240.336 298.096 240.183 298.335 240.087 298.598C239.992 298.862 239.956 299.143 239.984 299.422C240.011 299.701 240.1 299.97 240.245 300.211C240.389 300.451 240.586 300.655 240.82 300.81C241.522 301.255 242.282 301.601 243.078 301.839C244.388 302.242 245.638 302.822 246.792 303.562C247.684 304.094 248.44 304.826 249.001 305.701C249.561 306.576 249.909 307.57 250.019 308.603C250.128 309.636 249.996 310.681 249.632 311.654C249.268 312.627 248.682 313.502 247.921 314.209C247.157 314.903 246.231 315.395 245.228 315.64C245.061 315.681 245.027 315.748 245.027 315.907C245.027 316.744 245.027 317.622 245.027 318.475C245.027 319.052 244.86 319.228 244.283 319.228L242.953 319.127Z" fill="#5A5A66"/>
<path opacity="0.19" d="M242.944 281.883C238.267 281.875 233.705 283.327 229.892 286.035C226.078 288.742 223.204 292.572 221.67 296.99C220.136 301.408 220.017 306.194 221.331 310.683C222.645 315.171 225.326 319.138 229.001 322.031L248.9 282.719C246.961 282.176 244.958 281.895 242.944 281.883Z" fill="white"/>
<path d="M261.396 307.39C263.051 297.198 256.13 287.596 245.939 285.942C235.748 284.287 226.146 291.208 224.491 301.399C222.837 311.59 229.758 321.193 239.949 322.847C250.14 324.501 259.742 317.581 261.396 307.39Z" stroke="#5A5A66" stroke-width="0.87" stroke-miterlimit="10"/>
<path d="M507.005 108.969H511.697L513.704 110.784C515.705 111.954 517.365 113.627 518.518 115.637C519.671 117.648 520.278 119.925 520.278 122.243C520.278 124.561 519.671 126.838 518.518 128.848C517.365 130.859 515.705 132.532 513.704 133.702L511.697 135.517H507.005C503.484 135.517 500.108 134.118 497.618 131.629C495.129 129.14 493.73 125.763 493.73 122.243C493.73 118.722 495.129 115.346 497.618 112.857C500.108 110.367 503.484 108.969 507.005 108.969Z" fill="#44444C"/>
<path d="M511.696 135.517C519.027 135.517 524.97 129.574 524.97 122.243C524.97 114.912 519.027 108.969 511.696 108.969C504.365 108.969 498.422 114.912 498.422 122.243C498.422 129.574 504.365 135.517 511.696 135.517Z" fill="#D1D1E5"/>
<path d="M511.696 130.96H510.86C510.808 130.967 510.755 130.962 510.706 130.945C510.656 130.928 510.611 130.9 510.575 130.863C510.538 130.825 510.511 130.78 510.495 130.73C510.479 130.68 510.475 130.627 510.484 130.575C510.484 130.04 510.484 129.505 510.484 128.961C510.484 128.861 510.484 128.819 510.35 128.785C509.586 128.559 508.909 128.106 508.409 127.486C507.908 126.866 507.608 126.109 507.548 125.314C507.552 125.275 507.552 125.236 507.548 125.197C507.539 125.145 507.542 125.092 507.556 125.041C507.571 124.991 507.596 124.944 507.63 124.904C507.664 124.864 507.707 124.832 507.755 124.811C507.803 124.789 507.855 124.778 507.907 124.779H509.622C509.814 124.779 509.932 124.913 509.982 125.122C510.005 125.289 510.05 125.452 510.116 125.607C510.247 125.887 510.453 126.125 510.712 126.295C510.97 126.465 511.27 126.559 511.579 126.569C511.878 126.599 512.179 126.571 512.466 126.485C512.701 126.407 512.912 126.269 513.08 126.086C513.247 125.903 513.364 125.681 513.421 125.439C513.478 125.198 513.473 124.946 513.405 124.708C513.337 124.469 513.21 124.252 513.035 124.076C512.645 123.7 512.176 123.414 511.663 123.24C511.103 123.022 510.525 122.838 509.99 122.604C509.276 122.329 508.651 121.863 508.183 121.258C507.67 120.561 507.453 119.688 507.581 118.832C507.66 118.076 507.971 117.363 508.471 116.791C508.971 116.219 509.636 115.816 510.375 115.637C510.484 115.637 510.517 115.562 510.517 115.453C510.517 114.959 510.517 114.457 510.517 113.964C510.517 113.68 510.634 113.562 510.91 113.562H512.541C512.809 113.562 512.934 113.68 512.934 113.956C512.934 114.508 512.934 115.068 512.934 115.628C512.931 115.669 512.941 115.709 512.964 115.743C512.987 115.776 513.021 115.801 513.06 115.812C513.677 116.06 514.217 116.468 514.623 116.995C515.029 117.521 515.286 118.147 515.368 118.807V119.033C515.374 119.083 515.37 119.134 515.354 119.182C515.339 119.23 515.313 119.275 515.279 119.312C515.245 119.349 515.203 119.379 515.156 119.398C515.11 119.418 515.059 119.427 515.009 119.426C514.451 119.426 513.874 119.426 513.277 119.426C513.06 119.426 512.951 119.3 512.901 119.049C512.872 118.849 512.795 118.659 512.677 118.494C512.559 118.33 512.404 118.196 512.223 118.104C511.909 117.937 511.55 117.875 511.198 117.926C510.846 117.977 510.52 118.139 510.266 118.389C510.155 118.504 510.071 118.642 510.019 118.793C509.966 118.944 509.948 119.105 509.963 119.264C509.979 119.423 510.03 119.577 510.111 119.714C510.192 119.852 510.302 119.97 510.433 120.062C510.846 120.327 511.293 120.532 511.763 120.672C512.537 120.911 513.274 121.254 513.955 121.693C514.483 122.005 514.93 122.437 515.262 122.953C515.594 123.469 515.8 124.055 515.865 124.665C515.93 125.276 515.852 125.892 515.637 126.467C515.421 127.041 515.074 127.557 514.624 127.974C514.173 128.382 513.626 128.67 513.035 128.811C512.934 128.811 512.909 128.877 512.918 128.969V130.483C512.918 130.826 512.817 130.927 512.474 130.927C512.131 130.927 511.964 130.927 511.705 130.927L511.696 130.96Z" fill="#5A5A66"/>
<path opacity="0.19" d="M511.695 108.969C514.451 108.971 517.139 109.831 519.384 111.429C521.63 113.028 523.322 115.286 524.225 117.89C525.129 120.494 525.2 123.315 524.428 125.961C523.656 128.607 522.079 130.947 519.917 132.656L508.207 109.446C509.343 109.131 510.516 108.971 511.695 108.969Z" fill="white"/>
<path d="M513.482 133.111C519.496 132.131 523.576 126.461 522.596 120.447C521.615 114.434 515.945 110.354 509.932 111.334C503.918 112.315 499.838 117.984 500.818 123.998C501.799 130.012 507.469 134.092 513.482 133.111Z" stroke="#5A5A66" stroke-width="0.51" stroke-miterlimit="10"/>
<path d="M474.844 49.4375H483.209L486.788 52.6828C490.36 54.7702 493.322 57.7564 495.381 61.3444C497.44 64.9323 498.523 68.9968 498.523 73.1334C498.523 77.27 497.44 81.3345 495.381 84.9224C493.322 88.5104 490.36 91.4966 486.788 93.584L483.209 96.8293H474.844C468.56 96.8293 462.533 94.3328 458.089 89.8889C453.645 85.4451 451.148 79.4179 451.148 73.1334C451.148 66.8489 453.645 60.8217 458.089 56.3779C462.533 51.934 468.56 49.4375 474.844 49.4375Z" fill="#601616"/>
<path d="M491.932 95.2189C504.104 90.4119 510.074 76.6477 505.267 64.4756C500.46 52.3035 486.696 46.3329 474.524 51.1399C462.352 55.9469 456.381 69.7112 461.188 81.8832C465.995 94.0553 479.759 100.026 491.932 95.2189Z" fill="#CD2E2B"/>
<path d="M483.392 92.94C494.358 92.94 503.249 84.0498 503.249 73.0833C503.249 62.1167 494.358 53.2266 483.392 53.2266C472.425 53.2266 463.535 62.1167 463.535 73.0833C463.535 84.0498 472.425 92.94 483.392 92.94Z" fill="#9B2323"/>
<path d="M483.392 53.231C482.982 53.231 482.556 53.231 482.188 53.231C487.246 53.525 492 55.7416 495.478 59.4269C498.955 63.1122 500.892 67.9874 500.892 73.0542C500.892 78.1211 498.955 82.9963 495.478 86.6816C492 90.3669 487.246 92.5835 482.188 92.8775C482.589 92.8775 482.982 92.8775 483.392 92.8775C486 92.8775 488.582 92.3639 490.991 91.366C493.4 90.3681 495.589 88.9055 497.433 87.0616C499.277 85.2177 500.739 83.0287 501.737 80.6196C502.735 78.2105 503.249 75.6284 503.249 73.0208C503.249 70.4132 502.735 67.8311 501.737 65.4219C500.739 63.0128 499.277 60.8238 497.433 58.98C495.589 57.1361 493.4 55.6735 490.991 54.6756C488.582 53.6777 486 53.1641 483.392 53.1641V53.231Z" fill="#601616"/>
<path d="M488.834 61.8594H476.305C473.556 61.8594 471.328 64.0875 471.328 66.8361V79.3657C471.328 82.1143 473.556 84.3425 476.305 84.3425H488.834C491.583 84.3425 493.811 82.1143 493.811 79.3657V66.8361C493.811 64.0875 491.583 61.8594 488.834 61.8594Z" stroke="white" stroke-width="3.38" stroke-miterlimit="10"/>
<path d="M487.299 73.2489C487.299 74.1125 487.043 74.9566 486.563 75.6746C486.083 76.3926 485.401 76.9523 484.603 77.2827C483.806 77.6132 482.928 77.6997 482.081 77.5312C481.234 77.3627 480.456 76.9469 479.845 76.3363C479.235 75.7257 478.819 74.9477 478.65 74.1007C478.482 73.2538 478.568 72.3759 478.899 71.5781C479.229 70.7803 479.789 70.0984 480.507 69.6186C481.225 69.1389 482.069 68.8828 482.933 68.8828C484.091 68.8828 485.201 69.3428 486.02 70.1616C486.839 70.9804 487.299 72.091 487.299 73.2489Z" stroke="white" stroke-width="3.38" stroke-miterlimit="10"/>
<path d="M488.771 68.471C489.598 68.471 490.268 67.8006 490.268 66.9738C490.268 66.1469 489.598 65.4766 488.771 65.4766C487.944 65.4766 487.273 66.1469 487.273 66.9738C487.273 67.8006 487.944 68.471 488.771 68.471Z" stroke="white" stroke-width="1.16" stroke-miterlimit="10"/>
<path d="M209.812 211.18H200.686L196.78 214.718C192.889 216.992 189.662 220.245 187.419 224.153C185.176 228.062 183.996 232.49 183.996 236.996C183.996 241.502 185.176 245.93 187.419 249.839C189.662 253.747 192.889 257 196.78 259.274L200.686 262.812H209.812C216.578 262.69 223.026 259.917 227.768 255.089C232.51 250.26 235.167 243.763 235.167 236.996C235.167 230.228 232.51 223.731 227.768 218.903C223.026 214.075 216.578 211.301 209.812 211.18Z" fill="#601616"/>
<path d="M214.693 258.687C226.667 250.952 230.104 234.974 222.369 223C214.635 211.025 198.657 207.588 186.682 215.323C174.707 223.058 171.27 239.036 179.005 251.01C186.74 262.985 202.718 266.422 214.693 258.687Z" fill="#CD2E2B"/>
<path d="M212.231 255.111C222.272 248.63 225.158 235.237 218.677 225.196C212.196 215.155 198.803 212.269 188.762 218.75C178.722 225.231 175.836 238.624 182.316 248.665C188.797 258.705 202.19 261.591 212.231 255.111Z" fill="#9B2323"/>
<path d="M200.505 215.278C200.948 215.278 201.342 215.278 201.818 215.319C196.312 215.645 191.138 218.061 187.355 222.075C183.571 226.088 181.464 231.396 181.464 236.912C181.464 242.428 183.571 247.735 187.355 251.749C191.138 255.762 196.312 258.179 201.818 258.504C201.383 258.504 200.982 258.546 200.505 258.546C197.628 258.602 194.769 258.085 192.095 257.023C189.42 255.961 186.985 254.377 184.93 252.362C182.876 250.347 181.244 247.943 180.129 245.291C179.015 242.638 178.441 239.789 178.441 236.912C178.441 234.034 179.015 231.186 180.129 228.533C181.244 225.88 182.876 223.476 184.93 221.461C186.985 219.447 189.42 217.862 192.095 216.801C194.769 215.739 197.628 215.221 200.505 215.278Z" fill="#601616"/>
<path d="M213.938 229.758C213.598 229.853 213.245 229.898 212.892 229.892V229.783C213.731 229.118 214.44 228.305 214.983 227.383C215.059 227.115 214.983 227.023 214.983 227.015L213.235 227.759L211.78 228.437C211.227 227.872 210.565 227.426 209.835 227.124C209.105 226.822 208.321 226.671 207.531 226.68C204.486 226.68 202.01 228.838 202.01 231.498C202.009 232.113 202.084 232.725 202.236 233.321C202.236 233.455 202.236 233.179 202.236 233.321C199.894 233.117 197.618 232.44 195.545 231.331C191.128 229.089 190.852 227.542 190.852 227.542C190.158 228.278 189.807 230.72 190.509 232.627C190.975 233.552 191.658 234.349 192.5 234.952C192.02 234.945 191.544 234.866 191.087 234.718C190.726 234.619 190.388 234.452 190.091 234.225C189.656 235.279 190.526 237.152 192.015 238.499C192.753 239.067 193.586 239.5 194.474 239.778L191.965 239.845C191.831 242.263 197.034 243.693 197.034 243.693C195.562 244.885 193.733 245.551 191.839 245.583C190.879 245.581 189.924 245.44 189.004 245.165C191.551 247.376 194.833 248.554 198.205 248.469C207.497 247.984 212.742 239.996 212.993 232.159C213.5 231.838 213.962 231.45 214.364 231.004C214.953 230.402 215.459 229.724 215.87 228.989C215.87 228.989 214.523 229.591 213.938 229.758Z" fill="white"/>
<path d="M491.856 194.41H499.008L502.061 197.171C505.097 198.949 507.616 201.491 509.366 204.543C511.116 207.596 512.036 211.054 512.036 214.572C512.036 218.091 511.116 221.549 509.366 224.602C507.616 227.654 505.097 230.196 502.061 231.974L499.008 234.734H491.882C489.199 234.789 486.533 234.308 484.039 233.319C481.545 232.331 479.273 230.854 477.357 228.977C475.441 227.099 473.919 224.858 472.879 222.384C471.84 219.911 471.305 217.255 471.305 214.572C471.305 211.89 471.84 209.234 472.879 206.76C473.919 204.287 475.441 202.046 477.357 200.168C479.273 198.291 481.545 196.814 484.039 195.826C486.533 194.837 489.199 194.356 491.882 194.41H491.856Z" fill="#44444C"/>
<path d="M498.983 234.731C510.12 234.731 519.149 225.702 519.149 214.565C519.149 203.427 510.12 194.398 498.983 194.398C487.845 194.398 478.816 203.427 478.816 214.565C478.816 225.702 487.845 234.731 498.983 234.731Z" fill="#9191A3"/>
<path d="M499.126 231.393C508.458 231.393 516.022 223.829 516.022 214.497C516.022 205.166 508.458 197.602 499.126 197.602C489.795 197.602 482.23 205.166 482.23 214.497C482.23 223.829 489.795 231.393 499.126 231.393Z" fill="#9191A3"/>
<path d="M499.126 197.606C498.783 197.606 498.44 197.606 498.105 197.606C502.407 197.86 506.449 199.747 509.405 202.882C512.361 206.017 514.007 210.164 514.007 214.472C514.007 218.781 512.361 222.928 509.405 226.063C506.449 229.198 502.407 231.085 498.105 231.339C498.44 231.339 498.783 231.339 499.126 231.339C503.543 231.241 507.746 229.417 510.835 226.258C513.924 223.1 515.654 218.857 515.654 214.439C515.654 210.021 513.924 205.778 510.835 202.62C507.746 199.461 503.543 197.637 499.126 197.539V197.606Z" fill="#44444C"/>
<path d="M495.127 210.866V214.538H490.828V219.514H495.127V230.94C496.435 231.269 497.777 231.437 499.125 231.442C499.51 231.442 499.887 231.442 500.271 231.383V219.489H504.562L505.198 214.512H500.271V211.334C500.271 209.895 500.673 208.908 502.739 208.908H505.374V204.459C504.098 204.322 502.817 204.255 501.534 204.258C497.729 204.258 495.127 206.583 495.127 210.866Z" fill="white"/>
</g>
<defs>
<linearGradient id="paint0_linear_3435_536" x1="368.827" y1="220.317" x2="368.827" y2="354.346" gradientUnits="userSpaceOnUse">
<stop stop-color="white"/>
<stop offset="1" stop-color="#5A5A66"/>
</linearGradient>
<clipPath id="clip0_3435_536">
<rect width="690" height="350" fill="white"/>
</clipPath>
</defs>
</svg>
