<svg width="690" height="350" viewBox="0 0 690 350" fill="none" xmlns="http://www.w3.org/2000/svg">
<g clip-path="url(#clip0_2601_6534)">
<path d="M633.502 373.58C569.478 475.774 400.475 519.67 268.058 512.185C231.903 510.142 159.158 506.03 102.359 469.349C-6.72112 398.906 10.0786 251.66 114.499 164.971C127.945 153.807 221.026 79.0094 366.074 80.0099C472.269 80.743 546.808 121.709 555.872 126.813C567.322 133.26 592.574 148.58 615.334 172.885C668.81 229.995 673.51 309.719 633.502 373.58Z" fill="url(#paint0_linear_2601_6534)"/>
<path d="M616 83H493V346H616V83Z" fill="#E6E6E6"/>
<path d="M611 88H498V346H611V88Z" fill="#F0F0F0"/>
<path d="M540.956 216L561 102H552.044L532 216H540.956Z" fill="#FAFAFA"/>
<path d="M570 216H603V102H589.879L570 216Z" fill="#FAFAFA"/>
<path d="M544 102H507V216H524.057L544 102Z" fill="#FAFAFA"/>
<path d="M308.135 212.789L284.766 331.152H344.719L368.088 212.789H308.135ZM332.997 288.501L329.633 305.538C329.112 307.883 327.815 309.991 325.946 311.533C324.077 313.075 321.742 313.962 319.306 314.056C318.228 314.095 317.156 313.886 316.175 313.445C315.194 313.004 314.331 312.344 313.655 311.517C312.979 310.689 312.508 309.718 312.28 308.68C312.053 307.642 312.075 306.566 312.344 305.538L315.697 288.501C316.218 286.154 317.516 284.044 319.388 282.502C321.259 280.96 323.597 280.074 326.035 279.983C327.113 279.944 328.185 280.153 329.166 280.594C330.147 281.034 331.01 281.695 331.687 282.522C332.363 283.349 332.833 284.321 333.061 285.359C333.288 286.397 333.267 287.473 332.997 288.501Z" fill="#384348"/>
<path opacity="0.3" d="M308.135 212.789L284.766 331.152H344.719L368.088 212.789H308.135ZM332.997 288.501L329.633 305.538C329.112 307.883 327.815 309.991 325.946 311.533C324.077 313.075 321.742 313.962 319.306 314.056C318.228 314.095 317.156 313.886 316.175 313.445C315.194 313.004 314.331 312.344 313.655 311.517C312.979 310.689 312.508 309.718 312.28 308.68C312.053 307.642 312.075 306.566 312.344 305.538L315.697 288.501C316.218 286.154 317.516 284.044 319.388 282.502C321.259 280.96 323.597 280.074 326.035 279.983C327.113 279.944 328.185 280.153 329.166 280.594C330.147 281.034 331.01 281.695 331.687 282.522C332.363 283.349 332.833 284.321 333.061 285.359C333.288 286.397 333.267 287.473 332.997 288.501Z" fill="white"/>
<path d="M284.894 331.152H279.633L302.99 212.789H308.251L284.894 331.152Z" fill="#384348"/>
<path opacity="0.6" d="M284.894 331.152H279.633L302.99 212.789H308.251L284.894 331.152Z" fill="white"/>
<path opacity="0.2" d="M308.121 212.789H302.995L290.539 275.935H355.619L368.087 212.789H308.256H308.121Z" fill="black"/>
<path d="M326.031 279.98C325.204 279.982 324.381 280.091 323.584 280.305C325.284 280.815 326.72 281.952 327.591 283.478C328.461 285.004 328.7 286.803 328.258 288.498L324.905 305.535C324.463 307.48 323.491 309.27 322.094 310.714C320.698 312.157 318.929 313.199 316.977 313.728C317.72 313.943 318.49 314.052 319.265 314.053C321.701 313.959 324.036 313.072 325.905 311.53C327.774 309.988 329.07 307.88 329.591 305.535L332.956 288.498C333.224 287.473 333.247 286.4 333.021 285.365C332.795 284.33 332.328 283.361 331.656 282.534C330.984 281.708 330.126 281.046 329.15 280.603C328.173 280.16 327.105 279.946 326.031 279.98Z" fill="#384348"/>
<path opacity="0.6" d="M326.031 279.98C325.204 279.982 324.381 280.091 323.584 280.305C325.284 280.815 326.72 281.952 327.591 283.478C328.461 285.004 328.7 286.803 328.258 288.498L324.905 305.535C324.463 307.48 323.491 309.27 322.094 310.714C320.698 312.157 318.929 313.199 316.977 313.728C317.72 313.943 318.49 314.052 319.265 314.053C321.701 313.959 324.036 313.072 325.905 311.53C327.774 309.988 329.07 307.88 329.591 305.535L332.956 288.498C333.224 287.473 333.247 286.4 333.021 285.365C332.795 284.33 332.328 283.361 331.656 282.534C330.984 281.708 330.126 281.046 329.15 280.603C328.173 280.16 327.105 279.946 326.031 279.98Z" fill="white"/>
<path d="M317.015 330.633H230.977V349.621H317.015V330.633Z" fill="#384348"/>
<path opacity="0.4" d="M317.015 330.633H230.977V349.621H317.015V330.633Z" fill="white"/>
<path d="M430.608 330.633H317.016V349.621H430.608V330.633Z" fill="#384348"/>
<path opacity="0.6" d="M430.608 330.633H317.016V349.621H430.608V330.633Z" fill="white"/>
<path d="M175.87 268.909H478.169C479.477 268.933 480.777 268.703 481.995 268.231C483.213 267.759 484.324 267.055 485.265 266.16C486.206 265.265 486.959 264.195 487.479 263.013C488 261.831 488.279 260.559 488.299 259.271C488.31 258.84 488.289 258.409 488.238 257.981L469.139 42.9055C468.84 39.9544 467.451 37.2142 465.236 35.2043C463.022 33.1945 460.135 32.0549 457.124 32.0017H154.826C153.517 31.9778 152.217 32.2083 150.999 32.68C149.781 33.1518 148.67 33.8555 147.729 34.7509C146.788 35.6463 146.035 36.7157 145.515 37.898C144.994 39.0802 144.715 40.3519 144.695 41.6404C144.664 42.0696 144.664 42.5004 144.695 42.9296L163.892 258.018C164.18 260.965 165.561 263.705 167.77 265.714C169.98 267.723 172.863 268.861 175.87 268.909Z" fill="#384348"/>
<path opacity="0.3" d="M175.87 268.909H478.169C479.477 268.933 480.777 268.703 481.995 268.231C483.213 267.759 484.324 267.055 485.265 266.16C486.206 265.265 486.959 264.195 487.479 263.013C488 261.831 488.279 260.559 488.299 259.271C488.31 258.84 488.289 258.409 488.238 257.981L469.139 42.9055C468.84 39.9544 467.451 37.2142 465.236 35.2043C463.022 33.1945 460.135 32.0549 457.124 32.0017H154.826C153.517 31.9778 152.217 32.2083 150.999 32.68C149.781 33.1518 148.67 33.8555 147.729 34.7509C146.788 35.6463 146.035 36.7157 145.515 37.898C144.994 39.0802 144.715 40.3519 144.695 41.6404C144.664 42.0696 144.664 42.5004 144.695 42.9296L163.892 258.018C164.18 260.965 165.561 263.705 167.77 265.714C169.98 267.723 172.863 268.861 175.87 268.909Z" fill="white"/>
<path d="M486.189 234.781L488.244 258.023C488.54 260.604 487.784 263.196 486.142 265.229C484.499 267.262 482.105 268.57 479.484 268.866C479.049 268.917 478.612 268.937 478.175 268.926H175.864C172.851 268.883 169.96 267.747 167.745 265.735C165.53 263.723 164.147 260.977 163.861 258.023L161.781 234.781H486.189Z" fill="#384348"/>
<path d="M172.452 228.188H474.359C475.067 228.202 475.771 228.079 476.431 227.825C477.09 227.571 477.692 227.191 478.203 226.708C478.713 226.224 479.121 225.646 479.405 225.007C479.688 224.368 479.84 223.68 479.853 222.983C479.871 222.75 479.871 222.517 479.853 222.284L464.033 44.51C463.868 42.9115 463.113 41.4284 461.91 40.3422C460.708 39.2561 459.142 38.6426 457.511 38.6183H155.617C154.908 38.6039 154.203 38.7272 153.543 38.981C152.883 39.2348 152.28 39.6142 151.769 40.0976C151.257 40.5809 150.848 41.1587 150.563 41.798C150.279 42.4372 150.125 43.1254 150.111 43.8232C150.099 44.052 150.099 44.2812 150.111 44.51L165.931 222.32C166.104 223.913 166.862 225.389 168.064 226.47C169.265 227.551 170.826 228.162 172.452 228.188Z" fill="#384348"/>
<path opacity="0.8" d="M172.452 228.188H474.359C475.067 228.202 475.771 228.079 476.431 227.825C477.09 227.571 477.692 227.191 478.203 226.708C478.713 226.224 479.121 225.646 479.405 225.007C479.688 224.368 479.84 223.68 479.853 222.983C479.871 222.75 479.871 222.517 479.853 222.284L464.033 44.51C463.868 42.9115 463.113 41.4284 461.91 40.3422C460.708 39.2561 459.142 38.6426 457.511 38.6183H155.617C154.908 38.6039 154.203 38.7272 153.543 38.981C152.883 39.2348 152.28 39.6142 151.769 40.0976C151.257 40.5809 150.848 41.1587 150.563 41.798C150.279 42.4372 150.125 43.1254 150.111 43.8232C150.099 44.052 150.099 44.2812 150.111 44.51L165.931 222.32C166.104 223.913 166.862 225.389 168.064 226.47C169.265 227.551 170.826 228.162 172.452 228.188Z" fill="#031E2C"/>
<path d="M148.143 32.0435H154.824C153.515 32.0196 152.215 32.2501 150.997 32.7219C149.779 33.1936 148.668 33.8974 147.727 34.7927C146.786 35.6881 146.033 36.7576 145.513 37.9398C144.992 39.122 144.713 40.3938 144.693 41.6823C144.662 42.1114 144.662 42.5422 144.693 42.9714L163.89 258.023C164.176 260.977 165.559 263.723 167.774 265.735C169.989 267.748 172.88 268.884 175.893 268.927H169.212C166.201 268.874 163.314 267.734 161.1 265.724C158.885 263.715 157.496 260.974 157.197 258.023L138.061 42.9232C137.769 40.3368 138.531 37.742 140.181 35.7087C141.83 33.6755 144.232 32.3703 146.858 32.0797C147.286 32.0436 147.714 32.0316 148.143 32.0435Z" fill="#384348"/>
<path opacity="0.6" d="M148.143 32.0435H154.824C153.515 32.0196 152.215 32.2501 150.997 32.7219C149.779 33.1936 148.668 33.8974 147.727 34.7927C146.786 35.6881 146.033 36.7576 145.513 37.9398C144.992 39.122 144.713 40.3938 144.693 41.6823C144.662 42.1114 144.662 42.5422 144.693 42.9714L163.89 258.023C164.176 260.977 165.559 263.723 167.774 265.735C169.989 267.748 172.88 268.884 175.893 268.927H169.212C166.201 268.874 163.314 267.734 161.1 265.724C158.885 263.715 157.496 260.974 157.197 258.023L138.061 42.9232C137.769 40.3368 138.531 37.742 140.181 35.7087C141.83 33.6755 144.232 32.3703 146.858 32.0797C147.286 32.0436 147.714 32.0316 148.143 32.0435Z" fill="white"/>
<path d="M214.348 99.0054H200.718C200.179 98.9936 199.663 98.789 199.267 98.4297C198.87 98.0704 198.621 97.5811 198.564 97.0535C198.538 96.8052 198.566 96.5543 198.645 96.3172C198.725 96.0802 198.854 95.8624 199.025 95.6781C199.196 95.4938 199.405 95.3471 199.638 95.2478C199.87 95.1485 200.121 95.0987 200.375 95.1017H214.054C214.592 95.1111 215.108 95.3153 215.503 95.6754C215.898 96.0354 216.144 96.526 216.195 97.0535C216.224 97.3054 216.196 97.5602 216.116 97.8008C216.035 98.0413 215.902 98.2618 215.726 98.4471C215.551 98.6325 215.337 98.7783 215.099 98.8747C214.861 98.971 214.605 99.0156 214.348 99.0054Z" fill="#384348"/>
<path d="M247.983 83.4076H237.877C237.338 83.4014 236.821 83.2002 236.424 82.8424C236.027 82.4846 235.777 81.9953 235.723 81.4679C235.693 81.2198 235.718 80.9683 235.795 80.7304C235.873 80.4925 236.001 80.2737 236.171 80.0887C236.342 79.9037 236.55 79.7568 236.783 79.6581C237.016 79.5593 237.268 79.5108 237.522 79.516H247.64C248.18 79.5252 248.697 79.7289 249.094 80.0887C249.491 80.4485 249.74 80.9393 249.794 81.4679C249.82 81.7156 249.792 81.966 249.713 82.2024C249.633 82.4389 249.503 82.656 249.332 82.8393C249.161 83.0227 248.952 83.1682 248.72 83.2662C248.487 83.3642 248.236 83.4124 247.983 83.4076Z" fill="#384348"/>
<path d="M358.97 99.0054H345.339C344.801 98.9959 344.286 98.7917 343.891 98.4317C343.496 98.0717 343.249 97.5811 343.198 97.0535C343.171 96.8059 343.197 96.5552 343.275 96.3181C343.353 96.0811 343.481 95.8631 343.651 95.6786C343.821 95.494 344.029 95.3471 344.261 95.2477C344.493 95.1483 344.744 95.0985 344.997 95.1017H358.627C359.166 95.1134 359.681 95.3181 360.078 95.6774C360.474 96.0367 360.724 96.5259 360.78 97.0535C360.806 97.3019 360.779 97.5528 360.699 97.7898C360.62 98.0269 360.49 98.2447 360.319 98.429C360.148 98.6133 359.94 98.7599 359.707 98.8593C359.474 98.9586 359.223 99.0084 358.97 99.0054Z" fill="#384348"/>
<path d="M331.724 99.0054H227.516C226.976 98.9962 226.459 98.7924 226.062 98.4326C225.665 98.0729 225.416 97.5821 225.362 97.0535C225.335 96.8059 225.361 96.5552 225.439 96.3181C225.517 96.0811 225.645 95.8631 225.815 95.6786C225.985 95.494 226.193 95.3471 226.425 95.2477C226.657 95.1483 226.908 95.0985 227.161 95.1017H331.345C331.884 95.1109 332.401 95.3147 332.798 95.6744C333.195 96.0342 333.444 96.5249 333.498 97.0535C333.526 97.2992 333.5 97.5478 333.424 97.7832C333.347 98.0185 333.221 98.2353 333.054 98.4195C332.886 98.6036 332.681 98.751 332.452 98.8519C332.223 98.9529 331.975 99.0052 331.724 99.0054Z" fill="#384348"/>
<path d="M215.534 112.408H201.916C201.377 112.401 200.86 112.2 200.463 111.842C200.066 111.485 199.816 110.995 199.762 110.468C199.732 110.22 199.757 109.968 199.834 109.73C199.912 109.492 200.04 109.274 200.21 109.089C200.381 108.904 200.589 108.757 200.822 108.658C201.055 108.559 201.307 108.511 201.561 108.516H215.191C215.73 108.525 216.248 108.729 216.645 109.089C217.042 109.449 217.291 109.939 217.344 110.468C217.373 110.716 217.346 110.967 217.267 111.204C217.189 111.442 217.059 111.66 216.887 111.844C216.716 112.027 216.506 112.173 216.273 112.27C216.039 112.367 215.787 112.414 215.534 112.408Z" fill="#384348"/>
<path d="M256.874 112.407H228.733C228.196 112.399 227.68 112.196 227.283 111.839C226.887 111.482 226.636 110.994 226.58 110.468C226.554 110.219 226.582 109.968 226.661 109.731C226.741 109.494 226.87 109.276 227.041 109.092C227.212 108.908 227.421 108.761 227.653 108.662C227.886 108.563 228.137 108.513 228.391 108.516H256.532C257.072 108.522 257.591 108.725 257.988 109.085C258.386 109.446 258.634 109.938 258.685 110.468C258.713 110.716 258.687 110.967 258.608 111.204C258.529 111.442 258.4 111.659 258.228 111.843C258.057 112.027 257.847 112.173 257.613 112.27C257.38 112.367 257.128 112.414 256.874 112.407Z" fill="#384348"/>
<path d="M307.416 112.408H265.656C265.119 112.399 264.603 112.197 264.207 111.839C263.81 111.482 263.56 110.994 263.503 110.468C263.475 110.219 263.501 109.967 263.58 109.729C263.659 109.492 263.788 109.273 263.96 109.088C264.131 108.903 264.341 108.757 264.574 108.658C264.808 108.56 265.06 108.511 265.314 108.516H307.049C307.588 108.525 308.105 108.729 308.502 109.089C308.899 109.448 309.148 109.939 309.202 110.468C309.23 110.714 309.204 110.963 309.127 111.199C309.049 111.434 308.922 111.651 308.753 111.834C308.584 112.018 308.377 112.164 308.147 112.263C307.916 112.361 307.667 112.411 307.416 112.408Z" fill="#384348"/>
<path d="M216.732 125.829H203.102C202.564 125.821 202.049 125.619 201.652 125.261C201.255 124.904 201.005 124.416 200.948 123.89C200.92 123.641 200.947 123.389 201.025 123.151C201.104 122.913 201.234 122.695 201.405 122.51C201.576 122.325 201.786 122.179 202.019 122.08C202.253 121.981 202.505 121.933 202.759 121.938H216.389C216.927 121.947 217.443 122.152 217.838 122.512C218.233 122.872 218.479 123.362 218.53 123.89C218.558 124.137 218.532 124.387 218.454 124.623C218.376 124.86 218.248 125.077 218.077 125.261C217.907 125.444 217.699 125.59 217.467 125.688C217.235 125.786 216.984 125.834 216.732 125.829Z" fill="#384348"/>
<path d="M285.743 125.83H229.963C229.424 125.823 228.907 125.622 228.51 125.264C228.113 124.906 227.863 124.417 227.809 123.89C227.779 123.642 227.804 123.39 227.881 123.152C227.958 122.914 228.087 122.696 228.257 122.511C228.428 122.326 228.636 122.179 228.869 122.08C229.102 121.981 229.354 121.933 229.608 121.938H285.438C285.977 121.947 286.494 122.151 286.891 122.511C287.288 122.87 287.537 123.361 287.591 123.89C287.62 124.141 287.592 124.395 287.511 124.635C287.431 124.875 287.298 125.095 287.122 125.28C286.946 125.464 286.732 125.609 286.494 125.704C286.256 125.799 286 125.842 285.743 125.83Z" fill="#384348"/>
<path d="M217.916 139.251H204.261C203.723 139.242 203.208 139.038 202.813 138.678C202.418 138.318 202.171 137.827 202.12 137.3C202.092 137.052 202.118 136.802 202.196 136.566C202.275 136.329 202.403 136.112 202.573 135.928C202.744 135.745 202.952 135.599 203.184 135.501C203.416 135.403 203.666 135.355 203.919 135.36H217.549C218.087 135.369 218.602 135.571 218.999 135.928C219.396 136.285 219.646 136.773 219.702 137.3C219.73 137.546 219.704 137.796 219.627 138.032C219.55 138.268 219.423 138.486 219.254 138.67C219.085 138.854 218.879 139.001 218.648 139.102C218.418 139.202 218.168 139.253 217.916 139.251Z" fill="#384348"/>
<path d="M254.632 139.251H231.116C230.577 139.242 230.059 139.038 229.662 138.679C229.266 138.319 229.016 137.828 228.963 137.299C228.937 137.052 228.964 136.801 229.044 136.565C229.123 136.328 229.253 136.111 229.424 135.928C229.596 135.745 229.804 135.599 230.037 135.501C230.269 135.403 230.521 135.355 230.773 135.36H254.29C254.827 135.369 255.343 135.571 255.74 135.928C256.136 136.285 256.386 136.773 256.443 137.299C256.471 137.548 256.445 137.8 256.366 138.038C256.287 138.276 256.158 138.494 255.986 138.679C255.815 138.864 255.606 139.01 255.372 139.109C255.139 139.208 254.886 139.256 254.632 139.251Z" fill="#384348"/>
<path d="M308.471 163.931H285.016C284.476 163.922 283.959 163.718 283.562 163.358C283.165 162.999 282.916 162.508 282.862 161.979C282.835 161.732 282.86 161.482 282.939 161.245C283.017 161.009 283.145 160.792 283.316 160.608C283.486 160.424 283.694 160.279 283.926 160.181C284.158 160.083 284.409 160.034 284.661 160.039H308.19C308.727 160.046 309.242 160.248 309.637 160.606C310.033 160.964 310.279 161.453 310.331 161.979C310.359 162.232 310.332 162.488 310.25 162.729C310.169 162.971 310.035 163.192 309.858 163.378C309.681 163.563 309.466 163.709 309.226 163.804C308.987 163.9 308.729 163.943 308.471 163.931Z" fill="#384348"/>
<path d="M430.239 163.931H320.5C319.962 163.92 319.446 163.715 319.049 163.356C318.653 162.996 318.403 162.507 318.347 161.98C318.319 161.731 318.345 161.48 318.424 161.243C318.503 161.005 318.632 160.788 318.804 160.604C318.976 160.42 319.185 160.274 319.419 160.177C319.652 160.08 319.904 160.033 320.158 160.04H429.945C430.482 160.046 430.998 160.248 431.393 160.606C431.788 160.964 432.035 161.453 432.086 161.98C432.115 162.231 432.088 162.486 432.007 162.727C431.926 162.967 431.793 163.188 431.618 163.373C431.442 163.558 431.228 163.704 430.99 163.801C430.752 163.897 430.496 163.942 430.239 163.931Z" fill="#384348"/>
<path d="M390.111 177.349H276.922C276.383 177.34 275.865 177.136 275.468 176.776C275.071 176.417 274.822 175.926 274.769 175.397C274.741 175.15 274.767 174.899 274.845 174.662C274.923 174.425 275.051 174.207 275.221 174.022C275.391 173.838 275.599 173.691 275.831 173.591C276.063 173.492 276.314 173.442 276.567 173.445H389.768C390.307 173.457 390.823 173.662 391.219 174.021C391.616 174.38 391.865 174.87 391.922 175.397C391.948 175.646 391.92 175.897 391.841 176.134C391.761 176.371 391.632 176.588 391.461 176.773C391.29 176.957 391.081 177.104 390.848 177.203C390.616 177.302 390.365 177.352 390.111 177.349Z" fill="#384348"/>
<path d="M431.428 177.349H404.18C403.64 177.34 403.123 177.136 402.726 176.776C402.329 176.417 402.08 175.926 402.026 175.397C401.999 175.15 402.025 174.899 402.103 174.662C402.181 174.425 402.309 174.207 402.479 174.022C402.649 173.838 402.857 173.691 403.089 173.591C403.321 173.492 403.572 173.442 403.825 173.445H431.085C431.624 173.457 432.14 173.662 432.536 174.021C432.933 174.38 433.182 174.87 433.239 175.397C433.267 175.646 433.24 175.898 433.162 176.136C433.083 176.374 432.953 176.592 432.782 176.777C432.611 176.962 432.401 177.108 432.168 177.207C431.934 177.306 431.682 177.354 431.428 177.349Z" fill="#384348"/>
<path d="M369.983 190.759H358.555C358.017 190.75 357.502 190.548 357.105 190.191C356.708 189.834 356.458 189.346 356.401 188.819C356.374 188.571 356.4 188.319 356.479 188.081C356.557 187.843 356.687 187.625 356.858 187.44C357.03 187.255 357.239 187.108 357.472 187.01C357.706 186.911 357.958 186.863 358.212 186.868H369.64C370.179 186.877 370.697 187.08 371.094 187.44C371.491 187.8 371.74 188.291 371.793 188.819C371.82 189.067 371.792 189.318 371.712 189.554C371.633 189.79 371.503 190.007 371.332 190.191C371.161 190.374 370.952 190.52 370.719 190.618C370.487 190.716 370.236 190.764 369.983 190.759Z" fill="#384348"/>
<path d="M432.625 190.759H382.289C381.752 190.75 381.236 190.548 380.839 190.191C380.443 189.834 380.192 189.346 380.136 188.819C380.108 188.571 380.134 188.319 380.213 188.081C380.292 187.843 380.421 187.625 380.593 187.44C380.764 187.255 380.973 187.108 381.207 187.01C381.44 186.911 381.693 186.863 381.947 186.868H432.271C432.811 186.874 433.329 187.077 433.727 187.437C434.124 187.798 434.373 188.29 434.424 188.819C434.452 189.067 434.426 189.317 434.348 189.553C434.27 189.79 434.141 190.007 433.971 190.19C433.801 190.374 433.593 190.52 433.36 190.618C433.128 190.716 432.878 190.764 432.625 190.759Z" fill="#384348"/>
<path d="M289.909 204.251H256.433C255.895 204.242 255.38 204.038 254.985 203.678C254.59 203.318 254.343 202.827 254.292 202.3C254.264 202.052 254.29 201.802 254.368 201.566C254.446 201.329 254.575 201.112 254.745 200.928C254.915 200.745 255.124 200.599 255.356 200.501C255.588 200.403 255.838 200.355 256.091 200.36H289.505C290.042 200.366 290.558 200.568 290.953 200.926C291.348 201.284 291.595 201.773 291.647 202.3C291.676 202.543 291.653 202.789 291.579 203.023C291.505 203.256 291.383 203.472 291.219 203.656C291.055 203.84 290.854 203.988 290.628 204.091C290.403 204.193 290.158 204.248 289.909 204.251Z" fill="#384348"/>
<path d="M433.815 204.251H334.465C333.926 204.242 333.411 204.038 333.016 203.678C332.621 203.318 332.374 202.827 332.323 202.3C332.295 202.052 332.321 201.802 332.4 201.566C332.478 201.329 332.606 201.112 332.776 200.928C332.947 200.745 333.155 200.599 333.387 200.501C333.619 200.403 333.87 200.355 334.122 200.36H433.473C434.01 200.369 434.526 200.571 434.923 200.928C435.319 201.285 435.57 201.773 435.626 202.3C435.652 202.548 435.624 202.799 435.545 203.036C435.465 203.273 435.336 203.491 435.165 203.675C434.994 203.859 434.785 204.006 434.553 204.105C434.32 204.205 434.069 204.254 433.815 204.251Z" fill="#384348"/>
<path d="M328.047 139.252H268.094C267.555 139.242 267.037 139.039 266.64 138.679C266.243 138.319 265.994 137.828 265.941 137.3C265.913 137.052 265.939 136.8 266.018 136.563C266.097 136.326 266.226 136.108 266.398 135.924C266.569 135.74 266.779 135.595 267.012 135.497C267.246 135.4 267.498 135.353 267.751 135.36H327.705C328.242 135.369 328.758 135.571 329.154 135.928C329.551 136.286 329.801 136.773 329.858 137.3C329.884 137.548 329.856 137.799 329.777 138.036C329.697 138.273 329.568 138.491 329.397 138.675C329.226 138.86 329.017 139.006 328.784 139.106C328.552 139.205 328.301 139.255 328.047 139.252Z" fill="#384348"/>
<path d="M228.348 152.677H205.492C204.954 152.666 204.438 152.461 204.042 152.102C203.645 151.742 203.395 151.253 203.339 150.726C203.311 150.477 203.337 150.225 203.416 149.987C203.495 149.749 203.624 149.531 203.796 149.346C203.967 149.161 204.176 149.015 204.41 148.916C204.643 148.817 204.896 148.769 205.15 148.774H228.005C228.544 148.786 229.06 148.99 229.456 149.349C229.853 149.709 230.102 150.198 230.159 150.726C230.185 150.974 230.157 151.225 230.077 151.462C229.998 151.699 229.868 151.917 229.697 152.101C229.526 152.285 229.318 152.432 229.085 152.531C228.853 152.631 228.601 152.68 228.348 152.677Z" fill="#384348"/>
<path d="M250.4 152.677H238.25C237.711 152.668 237.193 152.464 236.797 152.105C236.4 151.745 236.151 151.254 236.097 150.725C236.069 150.478 236.095 150.227 236.173 149.99C236.251 149.753 236.379 149.535 236.549 149.35C236.719 149.166 236.927 149.019 237.159 148.92C237.391 148.82 237.642 148.77 237.895 148.774H250.057C250.596 148.785 251.112 148.99 251.508 149.349C251.904 149.709 252.154 150.198 252.211 150.725C252.237 150.974 252.209 151.225 252.129 151.462C252.05 151.699 251.92 151.917 251.749 152.101C251.578 152.285 251.37 152.432 251.137 152.531C250.905 152.63 250.653 152.68 250.4 152.677Z" fill="#384348"/>
<path d="M207.071 73.8795L201.039 76.1205L207.462 78.3495C207.704 78.435 207.917 78.5852 208.077 78.7831C208.237 78.981 208.338 79.2188 208.368 79.47C208.389 79.661 208.358 79.8539 208.279 80.0295C208.2 80.2052 208.076 80.3573 207.919 80.4708C207.761 80.5843 207.576 80.655 207.383 80.6761C207.189 80.6971 206.993 80.6675 206.814 80.5905L199.375 77.9037C199.027 77.7737 198.722 77.5522 198.493 77.2632C198.265 76.9743 198.121 76.629 198.078 76.2651V75.976C198.044 75.6329 198.123 75.2882 198.304 74.993C198.485 74.6979 198.757 74.4679 199.081 74.3374L206.092 71.6265C206.282 71.5615 206.485 71.5403 206.685 71.5643C206.885 71.5883 207.077 71.657 207.245 71.7651C207.414 71.8732 207.556 72.0179 207.659 72.188C207.762 72.3582 207.825 72.5494 207.842 72.747C207.862 72.9937 207.797 73.24 207.657 73.4456C207.517 73.6512 207.31 73.8042 207.071 73.8795Z" fill="#384348"/>
<path d="M215.689 65.9069C215.914 65.9091 216.136 65.9605 216.338 66.0575C216.54 66.1545 216.718 66.2945 216.859 66.4675C216.999 66.6405 217.099 66.8421 217.151 67.0577C217.202 67.2733 217.205 67.4975 217.158 67.7141L212.655 84.5819C212.588 84.8492 212.43 85.0859 212.207 85.2525C211.985 85.4191 211.711 85.5056 211.431 85.4975C211.206 85.4935 210.984 85.4404 210.782 85.3421C210.58 85.2438 210.402 85.1026 210.262 84.9288C210.121 84.7549 210.022 84.5526 209.97 84.3364C209.919 84.1202 209.916 83.8955 209.963 83.6782L214.466 66.8105C214.535 66.5454 214.694 66.3115 214.917 66.1472C215.139 65.983 215.411 65.8982 215.689 65.9069Z" fill="#384348"/>
<path d="M228.959 75.98V76.2692C228.999 76.6131 228.922 76.9604 228.741 77.2568C228.559 77.5533 228.283 77.7822 227.956 77.9077L220.957 80.6186C220.767 80.6836 220.564 80.7049 220.364 80.6808C220.164 80.6568 219.973 80.5881 219.804 80.48C219.635 80.3719 219.493 80.2273 219.39 80.0571C219.287 79.8869 219.224 79.6957 219.207 79.4981C219.181 79.2616 219.235 79.0232 219.361 78.8203C219.488 78.6175 219.679 78.4617 219.905 78.3776L225.937 76.1487L219.501 73.9077C219.26 73.8194 219.049 73.6667 218.891 73.4666C218.733 73.2665 218.635 73.027 218.608 72.7751C218.587 72.5842 218.618 72.3912 218.697 72.2156C218.776 72.0399 218.9 71.8878 219.057 71.7743C219.214 71.6609 219.399 71.5901 219.593 71.5691C219.787 71.5481 219.983 71.5776 220.162 71.6546L227.638 74.3655C227.989 74.4864 228.299 74.7017 228.532 74.987C228.766 75.2723 228.914 75.6163 228.959 75.98Z" fill="#384348"/>
<path opacity="0.8" d="M172.585 227.594H474.492C475.2 227.608 475.904 227.485 476.563 227.231C477.223 226.977 477.825 226.598 478.336 226.114C478.846 225.631 479.254 225.053 479.537 224.413C479.821 223.774 479.973 223.086 479.986 222.389C480.004 222.156 480.004 221.923 479.986 221.69L464.165 43.9162C464.001 42.3178 463.245 40.8346 462.043 39.7485C460.841 38.6623 459.275 38.0488 457.644 38.0246H155.749C155.041 38.0102 154.336 38.1334 153.676 38.3872C153.016 38.641 152.413 39.0205 151.901 39.5038C151.39 39.9872 150.981 40.565 150.696 41.2042C150.412 41.8435 150.258 42.5317 150.244 43.2295C150.231 43.4582 150.231 43.6875 150.244 43.9162L166.064 221.726C166.237 223.319 166.995 224.795 168.196 225.876C169.397 226.957 170.958 227.568 172.585 227.594Z" fill="#08344A"/>
<path d="M346.009 119.89C344.72 119.89 343.46 119.511 342.389 118.802C341.317 118.092 340.482 117.084 339.988 115.904C339.495 114.724 339.366 113.426 339.617 112.174C339.869 110.921 340.49 109.771 341.401 108.868C342.312 107.965 343.474 107.35 344.738 107.101C346.002 106.851 347.312 106.979 348.503 107.468C349.694 107.957 350.712 108.784 351.428 109.846C352.144 110.908 352.526 112.156 352.526 113.433C352.523 115.145 351.836 116.785 350.614 117.996C349.393 119.206 347.737 119.887 346.009 119.89ZM346.009 110.076C345.339 110.076 344.684 110.273 344.126 110.642C343.569 111.01 343.135 111.535 342.878 112.148C342.622 112.762 342.555 113.437 342.685 114.088C342.816 114.739 343.139 115.338 343.613 115.807C344.087 116.277 344.691 116.597 345.348 116.726C346.005 116.856 346.687 116.789 347.306 116.535C347.925 116.281 348.454 115.851 348.827 115.298C349.199 114.746 349.398 114.097 349.398 113.433C349.397 112.543 349.039 111.69 348.404 111.061C347.769 110.431 346.908 110.077 346.009 110.076Z" fill="white"/>
<path d="M339.98 133.228C339.98 141.746 336.607 147.082 330.231 147.082C324.058 147.082 320.768 141.539 320.727 133.471C320.727 125.238 324.267 119.695 330.518 119.695C336.977 119.695 339.98 125.403 339.98 133.228ZM325.831 133.471C325.789 139.912 327.598 143.254 330.392 143.254C333.354 143.254 334.918 139.664 334.918 133.306C334.918 127.154 333.437 123.528 330.392 123.528C327.681 123.518 325.789 126.829 325.831 133.471Z" fill="white"/>
<path d="M278.436 141.441C280.303 142.465 282.392 143.026 284.525 143.073C288.394 143.073 289.953 140.914 289.916 138.833C289.916 135.697 286.95 134.349 283.869 134.349H281.538V130.682H283.801C286.147 130.682 289.108 129.623 289.108 126.973C289.108 125.181 287.747 123.673 284.828 123.673C282.886 123.731 280.996 124.309 279.359 125.346L278.207 121.73C279.729 120.697 282.69 119.695 285.897 119.695C291.413 119.695 294.238 122.712 294.238 126.173C294.238 128.946 292.591 131.229 289.301 132.371V132.454C292.554 133.022 295.187 135.465 295.187 139.055C295.187 143.538 291.402 147.082 284.76 147.082C281.512 147.082 278.712 146.188 277.273 145.248L278.436 141.441Z" fill="white"/>
<path d="M314.772 123.619C313.901 123.604 313.031 123.646 312.165 123.743C306.571 124.393 303.86 127.818 303.198 131.491H303.323C304.071 130.649 304.997 129.982 306.035 129.535C307.073 129.089 308.198 128.875 309.329 128.908C313.938 128.908 317.514 132.167 317.514 137.549C317.514 142.601 313.771 147.002 308.093 147.002C301.597 147.002 298.016 142.11 298.016 135.592C298.016 130.499 299.866 126.341 302.666 123.712C305.132 121.429 308.344 120.127 312.165 119.796C313.013 119.697 313.868 119.671 314.72 119.719L314.772 123.619ZM312.363 137.844C312.363 134.786 310.674 132.586 307.713 132.586C306.802 132.596 305.912 132.857 305.142 133.339C304.373 133.822 303.754 134.507 303.354 135.318C303.119 135.813 303.006 136.357 303.026 136.904C303.109 140.411 304.793 143.262 308.041 143.262C310.695 143.262 312.363 141.01 312.363 137.844Z" fill="white"/>
<path d="M310.972 83.8763C310.382 83.8755 309.804 83.7094 309.305 83.3971C308.806 83.0848 308.407 82.639 308.153 82.1113C307.899 81.5836 307.8 80.9954 307.869 80.4148C307.938 79.8341 308.172 79.2846 308.543 78.8298L315.961 69.7027L306.926 61.4847C306.315 60.9285 305.952 60.1545 305.917 59.3331C305.882 58.5117 306.177 57.71 306.739 57.1045C307.3 56.499 308.081 56.1392 308.91 56.1044C309.739 56.0695 310.549 56.3624 311.16 56.9185L322.353 67.1045C322.938 67.6372 323.296 68.3702 323.355 69.1549C323.414 69.9395 323.17 70.717 322.671 71.3297L313.396 82.7192C313.105 83.0787 312.736 83.369 312.316 83.5692C311.897 83.7694 311.438 83.8743 310.972 83.8763Z" fill="white"/>
<path d="M314.802 201.894C296.468 201.894 278.884 194.678 265.92 181.834C252.955 168.989 245.672 151.569 245.672 133.404C245.672 115.239 252.955 97.8186 265.92 84.9743C278.884 72.1299 296.468 64.9141 314.802 64.9141C315.792 64.9141 316.741 65.3036 317.441 65.997C318.141 66.6905 318.534 67.6309 318.534 68.6116C318.534 69.5922 318.141 70.5327 317.441 71.2261C316.741 71.9195 315.792 72.309 314.802 72.309C300.516 72.3061 286.671 77.2168 275.633 86.2027C264.594 95.1885 257.047 107.692 254.279 121.578C251.511 135.464 253.695 149.872 260.458 162.34C267.22 174.808 278.141 184.564 291.357 189.942C304.572 195.319 319.262 195.985 332.918 191.824C346.573 187.664 358.348 178.937 366.23 167.132C374.113 155.327 377.615 141.177 376.138 127.099C374.661 113.02 368.296 99.8863 358.132 89.9399C357.427 89.2502 357.028 88.3115 357.022 87.3303C357.017 86.3491 357.404 85.4059 358.101 84.708C358.797 84.0101 359.744 83.6148 360.735 83.609C361.725 83.6032 362.677 83.9874 363.381 84.6772C373.135 94.2216 379.803 106.423 382.54 119.732C385.276 133.04 383.957 146.854 378.75 159.418C373.543 171.982 364.683 182.729 353.297 190.292C341.91 197.855 328.511 201.893 314.802 201.894Z" fill="white"/>
<path d="M205.986 183.211H107.207C104.438 183.211 102.188 180.685 102.188 177.578V114.633C102.188 111.526 104.438 109 107.207 109H205.986C208.754 109 211.005 111.526 211.005 114.633V177.578C211.005 180.685 208.77 183.211 205.986 183.211Z" fill="white"/>
<path d="M108.062 117.031H204.542" stroke="#A1D0E6" stroke-width="0.301" stroke-miterlimit="10"/>
<path d="M161.566 134.439L136.811 159.788C132.747 163.949 126.4 163.404 122.952 158.625L110.728 141.708C108.607 138.782 105.029 138.074 102.195 139.727V177.596C102.195 180.703 104.446 183.229 107.214 183.229H192.15L196.7 166.184L178.486 136.602C174.584 130.278 166.618 129.261 161.566 134.439Z" fill="#1D5391"/>
<path d="M118.583 112.039H114.633V113.711H118.583V112.039Z" stroke="#A1D0E6" stroke-width="0.301" stroke-miterlimit="10"/>
<path d="M125.568 112.039H121.617V113.711H125.568V112.039Z" stroke="#A1D0E6" stroke-width="0.301" stroke-miterlimit="10"/>
<path d="M132.552 112.039H128.602V113.711H132.552V112.039Z" stroke="#A1D0E6" stroke-width="0.301" stroke-miterlimit="10"/>
<path d="M211.005 152.828L201.015 136.602C197.129 130.278 189.147 129.261 184.096 134.439L159.34 159.788C155.277 163.949 148.93 163.404 145.481 158.625L133.257 141.708C130.732 138.201 126.069 137.874 123.154 140.981L102.188 163.35V177.559C102.188 180.667 104.438 183.192 107.207 183.192H205.986C208.754 183.192 211.005 180.667 211.005 177.559V152.828Z" fill="#FFC305"/>
<path d="M179.882 160.457C179.882 160.457 163.005 178.662 161.507 179.148C161.507 179.148 156.386 168.442 155.933 168.053L146.094 173.989L151.863 187.267C152.43 188.868 153.374 190.282 154.604 191.373C155.834 192.463 157.307 193.192 158.878 193.486C160.45 193.781 162.066 193.632 163.568 193.055C165.07 192.477 166.405 191.49 167.444 190.19L184.028 169.212L187.373 165.235C188.046 164.139 188.497 162.903 188.697 161.609C188.794 160.799 188.747 159.977 188.558 159.186C188.659 158.883 188.703 158.56 188.687 158.238C188.672 157.916 188.597 157.601 188.467 157.31C188.368 157.14 188.235 156.995 188.079 156.886C187.923 156.776 187.746 156.704 187.561 156.674C188.293 154.73 186.307 153.766 185.311 155.373" fill="#AA6550"/>
<path d="M179.289 161.107C179.032 160.196 178.494 159.405 177.763 158.865C177.093 158.29 176.277 157.947 175.422 157.878C175.422 157.878 175.624 156.577 177.624 156.861C179.624 157.145 180.167 158.536 182.641 157.878L183.177 160.36L179.289 161.107Z" fill="#AA6550"/>
<path d="M187.743 156.324C187.833 156.368 187.548 157.138 186.886 157.819C186.224 158.499 185.492 158.865 185.492 158.776C185.492 158.686 186.036 158.23 186.649 157.55C187.262 156.869 187.652 156.271 187.743 156.324Z" fill="#995037"/>
<path d="M188.514 159.129C188.605 159.129 188.452 159.72 188.04 160.243C187.629 160.767 187.155 161.036 187.1 160.946C187.044 160.856 187.385 160.483 187.762 159.997C188.138 159.511 188.417 159.077 188.514 159.129Z" fill="#995037"/>
<path d="M160.083 186.442C159.958 185.127 160.031 183.799 160.299 182.51C160.451 181.195 160.804 179.917 161.344 178.727C161.442 178.727 160.996 180.446 160.647 182.569C160.299 184.693 160.194 186.442 160.083 186.442Z" fill="#995037"/>
<path d="M99.4152 194.779C99.4152 194.779 97.4153 192.245 97.931 174.16L97.8125 164.44L105.666 161.898L111.094 194.667L99.4152 194.779Z" fill="#AA6550"/>
<path d="M105.426 162.518C105.758 161.512 106.353 160.629 107.14 159.976C107.811 159.405 108.627 159.063 109.481 158.997C109.481 158.997 109.279 157.688 107.272 157.98C105.266 158.271 104.736 159.655 102.262 158.997L99.3984 164.484L105.426 162.518Z" fill="#AA6550"/>
<path d="M102.781 159.437C102.663 159.1 98.6004 155.602 98.6004 155.602C98.6004 155.602 96.51 155.691 97.2904 157.732C97.0527 157.833 96.8392 157.99 96.6655 158.191C96.4918 158.392 96.3624 158.632 96.2869 158.894C96.2113 159.156 96.1915 159.433 96.2289 159.704C96.2663 159.975 96.36 160.234 96.503 160.461C96.503 160.461 95.5832 161.171 96.2312 163.153C96.6845 164.468 97.2784 165.722 98.0011 166.891L102.781 159.437Z" fill="#AA6550"/>
<path d="M103.892 178.758L99.3211 190.473C98.8258 192.149 98.9693 193.967 99.7202 195.529C100.471 197.091 101.768 198.271 103.328 198.809C104.87 199.347 106.548 199.214 108 198.438C109.452 197.662 110.562 196.305 111.09 194.66L114.756 183.072L103.892 178.758Z" fill="#AA6550"/>
<path d="M99.7266 189.533C99.7812 188.977 99.9054 188.431 100.096 187.911C100.382 186.924 100.793 185.578 101.364 184.12C101.935 182.662 102.479 181.369 102.911 180.449C103.11 179.923 103.375 179.427 103.698 178.977C103.564 179.517 103.377 180.041 103.141 180.539C102.772 181.489 102.249 182.782 101.699 184.24C101.148 185.698 100.681 187.021 100.305 187.978C100.161 188.516 99.9674 189.037 99.7266 189.533Z" fill="#995037"/>
<path d="M102.977 180.782C102.977 180.901 102.197 181.014 101.416 181.597C100.636 182.18 100.232 182.913 100.141 182.86C100.051 182.808 100.329 181.911 101.207 181.275C101.45 181.058 101.735 180.901 102.041 180.816C102.347 180.731 102.667 180.719 102.977 180.782Z" fill="#995037"/>
<path d="M122.361 118.203C122.813 119.609 121.26 120.812 119.908 121.141C118.556 121.47 116.911 121.687 116.291 123.018C115.755 124.177 116.291 125.642 115.81 126.823C114.884 129.066 111.121 128.603 110.382 130.928C109.881 132.52 111.274 134.172 111.079 135.847C110.933 137.29 109.685 138.277 108.619 139.144C107.553 140.011 106.397 141.23 106.571 142.673C106.766 144.333 108.661 145.484 108.487 147.159C108.313 148.833 106.25 149.559 105.951 151.181C105.602 153.102 107.846 154.343 108.564 156.145C109.121 157.521 108.78 159.293 109.706 160.407C110.633 161.521 112.389 161.326 113.783 161.027L127.719 157.857C126.778 155.487 127.663 152.721 129.008 150.59C130.353 148.46 132.144 146.665 133.294 144.407C134.443 142.15 134.827 139.137 133.294 137.141" fill="#263238"/>
<path d="M146.888 130.164C146.788 129.366 146.634 128.576 146.428 127.802C146.323 127.432 146.131 127.097 145.87 126.83C145.599 126.546 145.236 126.725 145.013 127.129C144.605 128.08 144.393 129.114 144.393 130.161C144.393 131.208 144.605 132.242 145.013 133.192C145.236 133.596 145.599 133.776 145.87 133.499C146.127 133.228 146.319 132.895 146.428 132.527C146.633 131.752 146.787 130.963 146.888 130.164C146.942 130.379 146.959 130.602 146.937 130.822C146.926 131.431 146.837 132.035 146.672 132.617C146.561 133.042 146.353 133.43 146.066 133.746C145.967 133.843 145.846 133.911 145.716 133.944C145.585 133.977 145.449 133.973 145.32 133.933C145.077 133.823 144.873 133.635 144.735 133.394C144.272 132.389 144.031 131.282 144.031 130.161C144.031 129.039 144.272 127.933 144.735 126.927C144.871 126.687 145.076 126.501 145.32 126.396C145.448 126.353 145.585 126.348 145.717 126.381C145.848 126.413 145.968 126.483 146.066 126.583C146.354 126.895 146.563 127.281 146.672 127.705C146.837 128.287 146.926 128.891 146.937 129.499C146.958 129.722 146.942 129.948 146.888 130.164Z" fill="#263238"/>
<path d="M124.138 143.94C121.615 139.365 120.898 133.272 120.257 128.001C119.957 125.519 119.427 122.02 121.058 120.435C122.8 118.775 122.967 116.211 124.967 114.932C125.961 114.27 127.11 113.925 128.28 113.938C129.45 113.951 130.592 114.322 131.573 115.007" fill="#263238"/>
<path d="M131.127 160.15C132.044 160.228 132.966 160.107 133.839 159.793C134.711 159.48 135.516 158.981 136.204 158.326C136.892 157.672 137.45 156.874 137.845 155.983C138.239 155.091 138.462 154.123 138.499 153.137C138.659 149.137 138.792 145.1 138.792 145.1C138.792 145.1 144.443 144.576 144.861 138.595C145.279 132.614 145.14 118.776 145.14 118.776C142.05 117.094 138.598 116.327 135.141 116.555C131.683 116.782 128.344 117.995 125.469 120.069L125.761 141.16V152.501C125.754 156.269 127.587 159.851 131.127 160.15Z" fill="#AA6550"/>
<path d="M139.312 131.232C138.903 130.589 138.282 130.138 137.573 129.97C136.865 129.802 136.124 129.93 135.501 130.328C134.866 130.795 134.408 131.49 134.208 132.287C134.007 133.085 134.078 133.932 134.407 134.679C134.694 135.234 135.084 135.72 135.554 136.106C136.024 136.492 136.563 136.77 137.138 136.922C137.653 137.042 138.108 137.362 138.417 137.82C138.725 138.278 138.865 138.842 138.811 139.404C138.65 140.899 136.316 141.467 135.257 142.708C133.619 144.637 130.024 145.445 127.592 145.744C125.16 146.043 125.501 146.065 124.108 143.964C123.186 142.538 122.715 140.832 122.763 139.097C122.693 134.681 122.621 130.263 122.547 125.842C122.459 124.25 122.557 122.653 122.84 121.087C123.134 119.508 123.973 118.107 125.188 117.162C126.547 116.205 128.268 116.13 129.822 115.599C131.759 114.934 133.403 113.558 135.215 112.572C137.027 111.585 139.25 111.001 141.061 111.981C142.364 112.728 143.235 114.089 144.497 114.867C146.301 115.973 148.761 115.734 149.632 118.605C149.925 119.6 149.91 120.67 149.59 121.655C148.357 125.52 143.876 127.075 140.657 125.393C140.594 126.051 141.194 127.517 140.546 129.588C140.337 130.245 140.26 131.262 139.291 131.277" fill="#263238"/>
<path d="M138.299 134.955C138.299 134.955 138.299 135.067 138.222 135.209C138.147 135.31 138.053 135.392 137.946 135.45C137.839 135.508 137.722 135.541 137.602 135.546C137.21 135.519 136.842 135.332 136.573 135.024C136.305 134.715 136.157 134.308 136.16 133.886C136.146 133.655 136.175 133.424 136.245 133.206C136.316 132.988 136.427 132.787 136.571 132.615C136.807 132.346 137.113 132.158 137.449 132.077C138.02 131.95 138.355 132.181 138.327 132.219C138.299 132.256 137.985 132.219 137.526 132.368C137.233 132.468 136.98 132.669 136.805 132.94C136.629 133.21 136.542 133.535 136.557 133.864C136.554 134.188 136.658 134.502 136.848 134.754C137.039 135.005 137.306 135.177 137.602 135.239C138.069 135.269 138.264 134.91 138.299 134.955Z" fill="#995037"/>
<path d="M146.902 129.875C145.676 130.288 144.416 130.576 143.14 130.735C141.886 131.019 140.61 131.177 139.328 131.206C140.553 130.796 141.81 130.508 143.084 130.346C144.34 130.061 145.619 129.904 146.902 129.875Z" fill="#263238"/>
<path d="M124.591 149.811C124.771 150.172 125.064 150.453 125.418 150.606C125.772 150.759 126.165 150.774 126.528 150.648C127.25 150.365 127.896 149.895 128.409 149.28C128.918 148.663 129.556 148.184 130.27 147.882C131.754 147.396 133.58 148.465 134.834 147.471C135.97 146.574 135.823 144.525 136.924 143.598C137.517 143.097 138.318 143.037 138.952 142.559C140.081 141.662 139.9 139.658 138.952 138.544C138.004 137.43 136.569 136.974 135.217 136.57L123.211 142.058L124.591 149.811Z" fill="#263238"/>
<path d="M138.864 126.523L138.759 126.598C138.66 126.671 138.555 126.736 138.446 126.793C138.024 127.009 137.583 127.179 137.129 127.301C136.413 127.478 135.687 127.6 134.955 127.667C133.991 127.745 133.032 127.888 132.084 128.093C130.95 128.32 129.913 128.927 129.122 129.828C128.314 130.837 128.015 132.288 127.387 133.693C127.071 134.433 126.593 135.079 125.994 135.577C125.357 136.064 124.651 136.437 123.903 136.684C122.433 137.215 120.809 137.529 119.583 138.65C118.977 139.172 118.58 139.924 118.475 140.751C118.409 141.584 118.409 142.422 118.475 143.255C118.567 144.093 118.416 144.94 118.042 145.682C117.667 146.423 117.089 147.022 116.385 147.397C115.13 148.19 113.813 148.616 112.761 149.334C112.252 149.657 111.813 150.093 111.472 150.612C111.179 151.103 111.01 151.667 110.984 152.249C110.983 153.278 111.114 154.302 111.375 155.292C111.551 156.067 111.617 156.866 111.57 157.662C111.543 158.167 111.407 158.659 111.173 159.098C111.094 159.253 110.99 159.392 110.866 159.509C111.214 158.958 111.409 158.312 111.43 157.647C111.449 156.87 111.362 156.095 111.173 155.344C110.89 154.335 110.74 153.288 110.727 152.234C110.748 151.601 110.923 150.985 111.235 150.448C111.602 149.883 112.077 149.409 112.629 149.057C113.723 148.309 115.04 147.868 116.238 147.091C116.855 146.727 117.37 146.192 117.73 145.543C118.052 144.836 118.187 144.047 118.12 143.263C118.054 142.41 118.054 141.552 118.12 140.698C118.245 139.779 118.684 138.942 119.353 138.351C120.684 137.147 122.363 136.856 123.799 136.317C124.512 136.09 125.185 135.739 125.792 135.278C126.355 134.819 126.805 134.218 127.102 133.529C127.715 132.19 128.028 130.703 128.906 129.619C129.747 128.678 130.846 128.049 132.042 127.824C133.002 127.633 133.973 127.508 134.948 127.451C135.676 127.402 136.4 127.302 137.115 127.151C137.714 126.997 138.299 126.787 138.864 126.523Z" fill="#455A64"/>
<path d="M135.612 128.666C135.612 128.703 135.18 128.666 134.442 128.845C133.402 129.114 132.464 129.717 131.752 130.572C131.259 131.148 130.892 131.835 130.679 132.583C130.479 133.464 130.406 134.371 130.463 135.275C130.539 136.32 130.396 137.37 130.045 138.348C129.812 138.865 129.45 139.302 129 139.611C128.552 139.908 128.086 140.172 127.606 140.404C127.154 140.615 126.748 140.925 126.414 141.316C126.12 141.705 125.955 142.19 125.948 142.691C125.878 143.693 126.08 144.807 125.627 145.764C125.191 146.602 124.544 147.291 123.76 147.753C123.063 148.201 122.366 148.5 121.788 148.904C121.255 149.218 120.782 149.636 120.394 150.138C120.111 150.518 119.906 150.959 119.795 151.431C119.714 151.84 119.714 152.263 119.795 152.672C119.732 152.582 119.691 152.477 119.676 152.366C119.594 152.052 119.579 151.722 119.634 151.401C119.726 150.894 119.924 150.416 120.213 150.003C120.593 149.468 121.066 149.016 121.606 148.672C122.192 148.269 122.875 147.925 123.55 147.476C124.277 147.04 124.874 146.392 125.272 145.607C125.669 144.777 125.488 143.753 125.543 142.669C125.554 142.086 125.745 141.523 126.087 141.069C126.452 140.637 126.899 140.293 127.397 140.06C128.338 139.566 129.285 139.118 129.669 138.176C130 137.252 130.138 136.262 130.073 135.275C130.027 134.336 130.117 133.396 130.337 132.486C130.573 131.699 130.974 130.981 131.508 130.385C132.267 129.513 133.265 128.921 134.358 128.696C134.652 128.637 134.951 128.612 135.25 128.621C135.372 128.609 135.496 128.625 135.612 128.666Z" fill="#455A64"/>
<path d="M116.405 203.704L120.294 191.585L117.59 176.879L115.499 183.369L102.406 178.225C102.406 178.225 110.873 160.073 111.291 159.116C115.165 150.398 125.471 150.398 125.471 150.398L138.592 150.765C140.676 150.62 142.765 150.965 144.713 151.775C146.66 152.586 148.419 153.844 149.866 155.46C153.622 159.519 162.193 177.291 162.193 177.291L148.382 181.903L145.651 176.423L146.445 187.944L149.163 205.558L116.405 203.704Z" fill="#95009D"/>
<path d="M143.805 154.528C143.805 154.573 143.435 154.588 142.843 154.857C142.008 155.259 141.31 155.927 140.843 156.771C140.139 158.014 139.851 159.478 140.028 160.92C140.279 162.695 140.802 164.413 141.575 166.004C143.101 169.496 144.446 172.688 145.407 174.976L146.522 177.72C146.675 178.049 146.797 178.395 146.884 178.751C146.689 178.451 146.521 178.13 146.383 177.794C146.062 177.084 145.644 176.18 145.149 175.103C144.125 172.86 142.745 169.668 141.212 166.131C140.419 164.495 139.893 162.725 139.659 160.898C139.493 159.371 139.828 157.83 140.606 156.539C141.117 155.663 141.884 154.993 142.787 154.633C143.028 154.533 143.282 154.475 143.54 154.461C143.749 154.513 143.805 154.513 143.805 154.528Z" fill="#263238"/>
<path d="M120.419 192.245C120.308 192.245 118.733 184.634 116.935 175.206C115.138 165.779 113.674 158.101 113.779 158.078C113.883 158.056 115.458 165.682 117.263 175.117C119.068 184.552 120.524 192.215 120.419 192.245Z" fill="#263238"/>
<path d="M140.141 180.805C140.188 181.142 140.188 181.484 140.141 181.821C140.051 182.744 139.837 183.648 139.507 184.505C138.38 187.353 136.348 189.679 133.772 191.07C131.198 192.406 128.349 193.019 125.494 192.849C124.636 192.817 123.782 192.725 122.936 192.572C122.625 192.534 122.318 192.456 122.023 192.341C122.023 192.258 123.354 192.527 125.508 192.55C128.304 192.626 131.076 191.988 133.598 190.688C136.095 189.336 138.09 187.114 139.256 184.386C139.691 183.237 139.989 182.034 140.141 180.805Z" fill="#263238"/>
<path d="M122.565 148.748C121.94 149.006 121.378 149.413 120.919 149.936C120.461 150.46 120.118 151.088 119.917 151.774C119.716 152.459 119.662 153.184 119.759 153.896C119.855 154.607 120.1 155.285 120.475 155.881C120.792 156.244 120.99 156.709 121.039 157.204C120.984 158.385 119.207 158.415 118.642 159.447C118.494 159.811 118.461 160.218 118.546 160.604C118.632 160.991 118.832 161.338 119.116 161.593C119.698 162.079 120.313 162.519 120.956 162.908C121.277 163.104 121.548 163.382 121.745 163.717C121.941 164.052 122.058 164.435 122.084 164.83C122.705 164.83 123.074 164.007 122.976 163.335C122.811 162.69 122.552 162.077 122.21 161.518C122.043 161.235 121.948 160.91 121.934 160.576C121.921 160.241 121.989 159.909 122.133 159.611C122.544 158.991 123.374 158.968 124.036 158.692C124.663 158.394 125.159 157.847 125.419 157.165C125.679 156.483 125.682 155.72 125.429 155.036C125.025 154.071 124.098 153.099 124.551 152.172C124.802 151.649 125.387 151.425 125.861 151.163C126.356 150.87 126.776 150.45 127.082 149.94C127.389 149.43 127.572 148.847 127.616 148.242C127.66 147.637 127.564 147.03 127.335 146.475C127.107 145.92 126.754 145.435 126.307 145.062" fill="#263238"/>
<path d="M109.904 262.477L106.016 339.751L117.889 342.832L126.795 264.106L109.904 262.477Z" fill="#AA6550"/>
<path d="M105.661 339.453L103.641 349H117.305L117.891 342.788L105.661 339.453Z" fill="#1C1C1D"/>
<path d="M117.582 347.616C116.925 347.726 116.26 347.766 115.596 347.736C114.362 347.736 112.662 347.736 110.788 347.639L105.994 347.422C105.328 347.432 104.663 347.374 104.008 347.25C104.667 347.14 105.335 347.103 106.001 347.138C107.234 347.138 108.927 347.138 110.802 347.235L115.596 347.452C116.261 347.442 116.926 347.497 117.582 347.616Z" fill="#263238"/>
<path d="M111.791 341.312C111.917 342.34 111.917 343.38 111.791 344.408C111.79 345.441 111.661 346.469 111.408 347.465C111.281 346.441 111.281 345.402 111.408 344.378C111.412 343.343 111.541 342.312 111.791 341.312Z" fill="#263238"/>
<g opacity="0.6">
<path opacity="0.6" d="M103.633 348.999H117.297L117.43 347.616L103.877 347.25L103.633 348.835" fill="white"/>
</g>
<path d="M152.883 321.68L155.768 344.983L166.276 344.198L164.067 322.831L152.883 321.68Z" fill="#AA6550"/>
<path d="M166.389 341.672C166.389 341.672 178.235 345.956 178.395 348.266L155.811 348.969L155.609 342.636L156.439 342.816C159.787 343.528 163.258 343.129 166.389 341.672Z" fill="#1C1C1D"/>
<g opacity="0.6">
<path opacity="0.6" d="M158.229 343.748C158.014 343.825 157.834 343.985 157.722 344.196C157.61 344.407 157.575 344.655 157.622 344.892C157.686 345.125 157.83 345.324 158.026 345.446C158.222 345.568 158.454 345.605 158.675 345.55C158.903 345.467 159.094 345.297 159.213 345.072C159.331 344.847 159.368 344.583 159.316 344.331C159.224 344.095 159.051 343.906 158.833 343.803C158.615 343.7 158.369 343.691 158.145 343.778" fill="white"/>
</g>
<g opacity="0.6">
<path opacity="0.6" d="M155.805 348.951V346.984L177.455 347.044C177.455 347.044 178.472 347.485 178.382 348.248L155.805 348.951Z" fill="white"/>
</g>
<path d="M166.742 341.539C166.742 341.659 166.192 341.726 165.655 342.129C165.119 342.533 164.854 343.027 164.749 342.989C164.645 342.952 164.791 342.242 165.446 341.786C166.101 341.33 166.742 341.427 166.742 341.539Z" fill="#263238"/>
<path d="M169.14 342.511C169.14 342.623 168.694 342.84 168.332 343.348C167.969 343.857 167.879 344.395 167.767 344.395C167.656 344.395 167.572 343.722 168.032 343.102C168.492 342.481 169.133 342.399 169.14 342.511Z" fill="#263238"/>
<path d="M170.562 345.521C170.457 345.521 170.29 344.96 170.562 344.302C170.833 343.644 171.335 343.375 171.384 343.472C171.433 343.57 171.126 343.928 170.917 344.467C170.708 345.005 170.666 345.506 170.562 345.521Z" fill="#263238"/>
<path d="M166.491 341.479C166.121 341.586 165.732 341.586 165.362 341.479C164.953 341.414 164.553 341.296 164.17 341.128C163.944 341.024 163.723 340.907 163.509 340.776C163.379 340.705 163.261 340.612 163.16 340.5C163.086 340.417 163.039 340.311 163.027 340.198C163.014 340.085 163.037 339.97 163.09 339.872C163.143 339.788 163.214 339.719 163.296 339.669C163.378 339.62 163.47 339.592 163.564 339.587C163.71 339.58 163.856 339.598 163.996 339.64C164.235 339.692 164.469 339.769 164.693 339.872C165.08 340.046 165.439 340.283 165.759 340.574C166.296 341.083 166.491 341.516 166.456 341.539C166.421 341.561 166.142 341.217 165.599 340.791C165.283 340.55 164.939 340.357 164.575 340.215C164.362 340.13 164.143 340.065 163.92 340.021C163.676 339.961 163.474 339.961 163.418 340.081C163.362 340.2 163.418 340.141 163.418 340.215C163.497 340.293 163.583 340.36 163.676 340.417C163.872 340.544 164.074 340.658 164.282 340.761C164.639 340.935 165.01 341.076 165.39 341.18C165.764 341.249 166.132 341.349 166.491 341.479Z" fill="#263238"/>
<path d="M166.362 341.661C166.142 341.322 166.027 340.916 166.034 340.503C166.002 340.053 166.042 339.6 166.153 339.164C166.22 338.907 166.309 338.657 166.417 338.417C166.472 338.255 166.565 338.111 166.687 337.999C166.809 337.888 166.957 337.813 167.114 337.781C167.215 337.781 167.313 337.81 167.398 337.867C167.483 337.924 167.552 338.006 167.595 338.103C167.656 338.243 167.698 338.391 167.721 338.544C167.762 338.814 167.762 339.089 167.721 339.359C167.674 339.816 167.521 340.253 167.275 340.63C166.85 341.273 166.397 341.43 166.383 341.377C166.623 341.09 166.844 340.786 167.045 340.465C167.231 340.112 167.342 339.719 167.372 339.314C167.389 339.081 167.375 338.847 167.33 338.619C167.289 338.357 167.191 338.155 167.107 338.185C167.024 338.215 166.808 338.387 166.717 338.596C166.612 338.809 166.526 339.032 166.459 339.262C166.342 339.656 166.278 340.066 166.271 340.48C166.292 341.213 166.424 341.646 166.362 341.661Z" fill="#263238"/>
<path d="M116.405 203.703C116.405 203.703 108.044 218.656 108.044 227.582L105.953 336.444L120.363 338.687L130.509 232.33C130.509 232.33 153.574 340.085 154.354 340.085C155.134 340.085 167.12 337.783 167.12 337.783L148.947 204.189L116.405 203.703Z" fill="#263238"/>
<path d="M139.675 234.724C139.675 234.844 135.258 233.789 129.871 232.384C124.485 230.978 120.116 229.73 120.164 229.618C120.213 229.505 124.582 230.552 129.969 231.965C135.355 233.378 139.703 234.612 139.675 234.724Z" fill="#263238"/>
<path d="M121.755 230.5C121.761 230.592 121.761 230.685 121.755 230.777L121.643 231.577C121.539 232.324 121.386 233.334 121.191 234.642C120.786 237.311 120.222 241.161 119.553 245.939C118.208 255.478 116.543 268.689 115.135 283.32C113.728 297.951 112.857 311.296 112.39 320.911C112.146 325.733 111.972 329.628 111.867 332.327L111.728 335.43L111.693 336.237C111.7 336.329 111.7 336.422 111.693 336.514C111.686 336.422 111.686 336.329 111.693 336.237V335.43C111.693 334.682 111.693 333.65 111.756 332.319C111.818 329.621 111.958 325.718 112.167 320.896C112.592 311.259 113.407 297.944 114.808 283.29C116.208 268.637 117.915 255.426 119.323 245.909C120.02 241.139 120.633 237.288 121.079 234.634C121.302 233.326 121.476 232.302 121.602 231.577C121.664 231.248 121.713 230.978 121.748 230.784C121.741 230.689 121.743 230.594 121.755 230.5Z" fill="#263238"/>
<path d="M142.596 232.305C142.693 232.305 146.707 256.176 151.564 285.655C156.421 315.134 160.281 339.066 160.183 339.088C160.086 339.111 156.065 315.217 151.208 285.723C146.352 256.229 142.491 232.327 142.596 232.305Z" fill="#263238"/>
<path d="M106.812 142.328C107.005 142.526 107.175 142.747 107.321 142.986C107.756 143.612 108.11 144.299 108.373 145.027C108.553 145.546 108.636 146.097 108.617 146.649C108.584 147.291 108.384 147.911 108.039 148.436C107.697 148.997 107.258 149.49 106.868 150.036C106.464 150.566 106.221 151.215 106.171 151.898C106.176 152.588 106.36 153.264 106.701 153.849C107.025 154.421 107.378 154.972 107.76 155.501C108.11 155.999 108.404 156.538 108.638 157.109C108.832 157.619 108.929 158.165 108.924 158.716C108.915 159.145 108.95 159.574 109.028 159.995C109.102 160.301 109.249 160.582 109.453 160.809C109.645 161.006 109.888 161.136 110.15 161.183C110.15 161.183 109.823 161.303 109.398 160.922C109.153 160.691 108.97 160.394 108.868 160.062C108.766 159.626 108.71 159.18 108.701 158.731C108.691 158.216 108.587 157.708 108.394 157.236C108.159 156.703 107.866 156.201 107.523 155.741C107.127 155.209 106.762 154.652 106.429 154.073C106.048 153.427 105.846 152.678 105.844 151.913C105.874 151.145 106.13 150.406 106.575 149.804C106.98 149.244 107.419 148.758 107.746 148.234C108.04 147.786 108.227 147.268 108.292 146.725C108.356 146.181 108.296 145.629 108.115 145.117C107.88 144.399 107.569 143.711 107.189 143.068C107.04 142.836 106.914 142.588 106.812 142.328Z" fill="#455A64"/>
<path d="M507 344H499.33L499 332H506.67L507 344Z" fill="#B55B52"/>
<path d="M547 344H540.082L537 332H543.918L547 344Z" fill="#B55B52"/>
<path d="M540.646 343H548.229C548.361 342.998 548.49 343.038 548.593 343.114C548.696 343.19 548.767 343.296 548.793 343.415L549.984 348.897C550.011 349.032 550.004 349.171 549.965 349.304C549.926 349.436 549.856 349.559 549.758 349.664C549.661 349.769 549.539 349.852 549.402 349.909C549.265 349.966 549.116 349.994 548.965 349.992C546.32 349.992 545.038 349.809 541.692 349.809C539.637 349.809 535.4 350 532.6 350C529.799 350 529.463 347.446 530.636 347.213C535.864 346.177 537.909 344.725 539.564 343.373C539.866 343.138 540.249 343.006 540.646 343Z" fill="#263238"/>
<path d="M500.296 343H508.119C508.259 342.998 508.396 343.038 508.506 343.114C508.615 343.19 508.69 343.296 508.717 343.415L509.981 348.897C510.011 349.031 510.006 349.169 509.966 349.301C509.927 349.433 509.853 349.556 509.752 349.66C509.65 349.765 509.523 349.849 509.379 349.907C509.235 349.964 509.078 349.993 508.92 349.992C506.093 349.992 502.022 349.809 498.472 349.809C494.324 349.809 493.89 350 489.019 350C486.076 350 485.334 347.446 486.578 347.213C492.212 346.16 493.639 346.044 498.559 343.481C499.075 343.185 499.676 343.019 500.296 343Z" fill="#263238"/>
<path d="M502 155.202L493.706 152C493.706 152 485.143 175.899 482.255 177.386C478.346 179.356 472.89 185.789 469.022 189.68C468.891 190.912 469.373 194.153 469.979 195C476.98 193.03 485.691 188.203 488.553 185.021C495.072 177.761 502 155.202 502 155.202Z" fill="#B55B52"/>
<path d="M502.586 149.851C505.176 156.353 494.778 177 494.778 177L481 169.998C482.697 163.704 484.984 157.623 487.826 151.851C492.161 143.519 499.741 142.708 502.586 149.851Z" fill="#1D75E0"/>
<path opacity="0.2" d="M489.726 165.846C492.745 161.466 497.641 160.23 502 160C499.739 167.829 494.888 177 494.888 177L487 173.167C487.263 170.513 488.206 167.983 489.726 165.846Z" fill="black"/>
<path opacity="0.2" d="M499 332L499.179 339H507L506.821 332H499Z" fill="black"/>
<path opacity="0.2" d="M544.318 332H537L538.682 339H546L544.318 332Z" fill="black"/>
<path d="M495.048 145.35C495.048 145.35 487.357 169.114 493.177 214H530.351C530.744 207.779 527.843 174.274 534 144.962C529.897 144.095 525.746 143.522 521.574 143.249C516.311 142.917 511.034 142.917 505.771 143.249C502.153 143.65 498.568 144.352 495.048 145.35Z" fill="#1D75E0"/>
<path d="M517 170H520.704L521 167H517.284L517 170Z" fill="#1D75E0"/>
<path opacity="0.2" d="M525.185 152.315C524.535 156.974 525.543 168.076 529.034 181C529.203 169.964 530.195 158.968 532 148.138V148.079C529.784 147.823 525.802 147.941 525.185 152.315Z" fill="black"/>
<path d="M519.191 127C517.999 132.616 517.313 139.564 521 143.312C521 143.312 518.695 149 508.658 149C499.495 149 504.216 143.312 504.216 143.312C510.277 141.815 510.178 134.082 509.184 129.725L519.191 127Z" fill="#B55B52"/>
<path d="M508.9 149L506 151.592L506.738 153.406C506.797 153.551 506.909 153.678 507.061 153.77C507.212 153.862 507.395 153.914 507.585 153.919L509.578 154C509.741 154.003 509.903 153.974 510.049 153.915C510.195 153.856 510.321 153.77 510.415 153.663L512 151.785L508.9 149Z" fill="#263238"/>
<path d="M510 148.222C511.093 150.071 512.061 152.002 512.895 154C512.895 154 523.37 150.04 522.99 144.012C521.855 143.426 520.76 142.753 519.714 142C519.714 142 519.256 145.831 510 148.222Z" fill="#263238"/>
<path d="M510 148.374C508.448 150.072 507.152 151.966 506.148 154C504.766 152.726 503.785 151.113 503.314 149.342C502.844 147.571 502.903 145.711 503.484 143.97C504.568 143.564 505.685 143.239 506.824 143C506.824 143 505.953 147.016 510 148.374Z" fill="#263238"/>
<path d="M508.227 153C507.932 152.88 503.038 178.323 502.319 184.556C500.891 192.856 504.722 202.02 504.731 202C506.719 196.235 507.903 190.215 508.247 184.114C508.808 173.516 509.055 159.113 510 153H508.227Z" fill="#263238"/>
<path opacity="0.2" d="M510.202 129.969C510.782 133.275 510.712 136.749 510 140C510.736 139.84 511.452 139.526 512.125 139.067C514.809 137.256 516.171 134.411 517.572 130.171C517.696 129.047 517.844 128.035 518 127L510.202 129.969Z" fill="black"/>
<path d="M507 112L504.353 121C503.745 120.297 503.321 119.437 503.124 118.505C502.928 117.574 502.965 116.605 503.233 115.694C503.501 114.783 503.99 113.963 504.651 113.314C505.312 112.666 506.122 112.213 507 112Z" fill="#263238"/>
<path d="M522.537 121.444C520.565 128.847 519.772 133.296 515.596 136.332C509.383 140.896 501.991 135.469 502 127.589C502 120.498 505.235 109.581 512.306 108.167C513.854 107.847 515.449 107.988 516.935 108.575C518.421 109.162 519.745 110.175 520.778 111.515C521.81 112.855 522.516 114.476 522.824 116.217C523.133 117.958 523.034 119.759 522.537 121.444Z" fill="#B55B52"/>
<path d="M520.378 127.172C518.444 125.843 517.641 118.992 519.411 116.599C513.213 116.303 510.147 114.084 509.983 112.888C507.807 113.91 502.373 114.299 503.06 111.395C503.375 110.23 503.996 109.184 504.852 108.378C505.708 107.572 506.763 107.041 507.894 106.845C510.031 104.452 515.388 102.448 519.169 105.69C525.783 105.69 529.284 111.313 527.437 113.532C528.217 114.015 528.864 114.706 529.314 115.536C529.763 116.365 530 117.305 530 118.261C530 119.217 529.763 120.157 529.314 120.986C528.864 121.816 528.217 122.507 527.437 122.99C529.197 125.812 521.548 132.1 520.378 127.172Z" fill="#263238"/>
<path d="M524.839 129.768C524.145 130.47 523.32 131.029 522.409 131.412C521.498 131.795 520.521 131.995 519.532 132C516.932 132 516.348 129.514 517.717 127.419C518.927 125.526 521.74 123.24 524.085 124.245C526.431 125.25 526.548 128.022 524.839 129.768Z" fill="#B55B52"/>
<path d="M516 212C516 212 515.245 219.029 514.28 228.557C513.191 239.357 511.844 253.393 511.032 264.057C511.032 264.117 511.032 264.163 511.032 264.208C510.879 266.232 510.745 268.136 510.64 269.875C509.56 287.297 507.344 338 507.344 338H495.325C495.325 338 489.267 286.259 489.019 268.528C488.77 251.474 491.054 212 491.054 212H516Z" fill="#263238"/>
<path opacity="0.2" d="M515 235.433C513.918 249.843 512.579 268.57 511.772 282.799C511.772 282.879 511.772 282.94 511.772 283C508.848 269.484 507.67 252.675 508.079 225L515 235.433Z" fill="black"/>
<path d="M505 212C505 212 511.632 252.387 515.555 268.428C519.818 285.951 536.105 338 536.105 338H549C549 338 538.824 287.365 536.626 270.016C534.229 251.206 529.293 212.038 529.293 212.038L505 212Z" fill="#263238"/>
<path d="M512.944 121.135C512.753 121.684 512.18 122.065 511.662 121.991C511.143 121.916 510.87 121.405 511.061 120.865C511.252 120.325 511.825 119.935 512.344 120.009C512.862 120.084 513.122 120.595 512.944 121.135Z" fill="#263238"/>
<path d="M506.982 120.143C506.886 120.682 506.595 121.072 506.332 120.989C506.07 120.905 505.938 120.413 506.028 119.864C506.118 119.316 506.415 118.935 506.678 119.009C506.941 119.084 507.045 119.595 506.982 120.143Z" fill="#263238"/>
<path d="M508 121C507.153 122.482 506.144 123.821 505 124.982C505.248 125.317 505.555 125.582 505.899 125.757C506.242 125.933 506.614 126.015 506.988 125.998L508 121Z" fill="#A02724"/>
<path d="M508.107 128.633C508.069 128.604 508.038 128.541 508.019 128.456C508 128.371 507.995 128.272 508.006 128.179C508.01 128.134 508.019 128.092 508.031 128.055C508.042 128.018 508.057 127.987 508.073 127.964C508.09 127.941 508.108 127.926 508.127 127.921C508.146 127.915 508.165 127.918 508.183 127.931C508.793 128.325 509.433 128.366 510.051 128.05C510.669 127.735 511.248 127.072 511.743 126.113C511.756 126.077 511.773 126.049 511.791 126.03C511.809 126.01 511.829 126 511.849 126C511.868 126 511.888 126.01 511.906 126.03C511.924 126.049 511.941 126.077 511.954 126.113C511.969 126.144 511.98 126.182 511.988 126.225C511.996 126.268 512 126.314 512 126.361C512 126.408 511.996 126.454 511.988 126.497C511.98 126.54 511.969 126.578 511.954 126.609C511.426 127.674 510.801 128.413 510.132 128.766C509.462 129.118 508.768 129.072 508.107 128.633Z" fill="#263238"/>
<path d="M515.552 119.996C515.498 119.978 515.447 119.942 515.403 119.89C515.36 119.838 515.325 119.771 515.301 119.695C515.131 119.053 514.86 118.482 514.513 118.033C514.166 117.583 513.752 117.268 513.307 117.113C513.212 117.09 513.126 117.01 513.07 116.891C513.013 116.773 512.989 116.625 513.004 116.48C513.02 116.334 513.072 116.203 513.15 116.114C513.228 116.025 513.325 115.986 513.422 116.004C513.986 116.173 514.513 116.551 514.958 117.103C515.402 117.656 515.749 118.367 515.969 119.173C516.008 119.309 516.01 119.464 515.975 119.603C515.94 119.742 515.87 119.855 515.781 119.917C515.713 119.983 515.632 120.01 515.552 119.996Z" fill="#263238"/>
<path d="M505.144 115.989C505.112 115.982 505.084 115.966 505.061 115.945C505.042 115.928 505.027 115.907 505.016 115.884C505.005 115.861 505 115.836 505 115.811C505 115.787 505.005 115.762 505.016 115.739C505.027 115.716 505.042 115.695 505.061 115.678C505.276 115.444 505.549 115.26 505.856 115.144C506.163 115.027 506.495 114.98 506.826 115.007C506.853 115.011 506.879 115.019 506.902 115.032C506.926 115.045 506.946 115.062 506.962 115.082C506.978 115.103 506.989 115.126 506.995 115.151C507.001 115.175 507.002 115.201 506.997 115.225C506.993 115.251 506.984 115.275 506.97 115.297C506.956 115.319 506.938 115.338 506.916 115.353C506.894 115.368 506.869 115.379 506.843 115.385C506.816 115.392 506.788 115.393 506.761 115.389C506.5 115.371 506.237 115.411 505.996 115.506C505.754 115.601 505.541 115.747 505.373 115.934C505.345 115.963 505.308 115.984 505.267 115.994C505.226 116.004 505.183 116.002 505.144 115.989Z" fill="#263238"/>
<path d="M536.965 154L527.6 158.124C527.6 158.124 534.511 179.344 535.017 182.722C531.224 184.216 527.057 190.223 522 194.148C522.131 195.364 524.322 198.352 525.203 199C532.751 195.105 544.326 189.715 544.869 185.053C546.199 174.592 536.965 154 536.965 154Z" fill="#B55B52"/>
<path d="M524.881 193H517L519.25 202C519.25 202 524.119 201.661 527 197.522L524.881 193Z" fill="#B55B52"/>
<path d="M512 194.601L514.059 202L518 201.295L516.062 193L512 194.601Z" fill="#B55B52"/>
<path d="M532.734 145.139C539.156 146.15 546 170.818 546 170.818L531.202 177C528.387 171.118 525.935 165.034 523.863 158.788C520.936 149.712 525.844 144.026 532.734 145.139Z" fill="#1D75E0"/>
<path d="M537.836 343.996C537.317 344.018 536.799 343.949 536.368 343.799C536.229 343.739 536.123 343.662 536.062 343.574C536 343.486 535.984 343.392 536.016 343.3C536.017 343.246 536.047 343.193 536.104 343.147C536.161 343.101 536.241 343.064 536.337 343.04C537.184 342.817 539.635 343.598 539.914 343.688C539.945 343.697 539.97 343.712 539.985 343.729C540 343.746 540.004 343.765 539.997 343.783C539.985 343.801 539.966 343.817 539.941 343.829C539.916 343.842 539.886 343.852 539.852 343.858C539.191 343.941 538.515 343.987 537.836 343.996ZM536.729 343.183C536.651 343.174 536.57 343.174 536.492 343.183C536.455 343.195 536.426 343.212 536.406 343.231C536.386 343.251 536.376 343.273 536.378 343.295C536.357 343.357 536.367 343.42 536.406 343.48C536.446 343.539 536.515 343.593 536.605 343.635C537.465 343.834 538.441 343.859 539.335 343.704C538.542 343.443 537.656 343.267 536.729 343.183Z" fill="#EF7947"/>
<path d="M539.901 343.992C539.89 343.998 539.878 343.998 539.867 343.992C539.541 343.741 538.919 342.799 539.009 342.28C539.021 342.203 539.052 342.134 539.097 342.084C539.141 342.034 539.196 342.007 539.253 342.006C539.31 341.994 539.368 342 539.423 342.022C539.477 342.045 539.528 342.084 539.571 342.137C539.936 342.561 540 343.837 540 343.89C540.001 343.91 539.997 343.929 539.991 343.946C539.984 343.963 539.974 343.976 539.961 343.986C539.953 343.994 539.942 343.999 539.932 344C539.921 344.001 539.911 343.998 539.901 343.992ZM539.288 342.203H539.253C539.155 342.203 539.146 342.28 539.142 342.304C539.099 342.596 539.489 343.33 539.811 343.676C539.799 343.173 539.676 342.688 539.459 342.286C539.412 342.228 539.351 342.196 539.288 342.197V342.203Z" fill="#EF7947"/>
<path d="M496.296 343.994C495.606 344.025 494.915 343.941 494.337 343.756C494.212 343.698 494.118 343.627 494.061 343.548C494.004 343.469 493.987 343.385 494.01 343.302C494.016 343.25 494.05 343.2 494.107 343.157C494.164 343.114 494.243 343.078 494.337 343.054C495.327 342.79 498.539 343.582 498.898 343.682C498.934 343.69 498.964 343.704 498.982 343.721C498.999 343.738 499.004 343.758 498.996 343.777C498.99 343.796 498.973 343.814 498.945 343.828C498.918 343.842 498.883 343.852 498.844 343.856C498.005 343.939 497.152 343.985 496.296 343.994ZM494.87 343.186C494.747 343.183 494.624 343.194 494.511 343.217C494.475 343.227 494.444 343.242 494.423 343.26C494.402 343.277 494.391 343.297 494.391 343.318C494.372 343.372 494.381 343.428 494.417 343.481C494.453 343.533 494.515 343.581 494.598 343.619C495.088 343.83 496.416 343.867 498.212 343.724C497.17 343.454 496.039 343.272 494.87 343.186Z" fill="#EF7947"/>
<path d="M498.848 343.998H498.79C498.152 343.754 496.892 342.807 497.007 342.301C497.007 342.182 497.138 342.033 497.486 342.009C497.615 341.992 497.747 341.999 497.873 342.03C497.998 342.061 498.114 342.115 498.21 342.188C498.884 342.646 498.993 343.837 499 343.891C498.999 343.909 498.994 343.927 498.984 343.944C498.974 343.96 498.96 343.974 498.942 343.986C498.913 343.999 498.88 344.003 498.848 343.998ZM497.587 342.211H497.507C497.276 342.211 497.261 342.301 497.254 342.325C497.189 342.628 498.044 343.378 498.703 343.706C498.659 343.204 498.423 342.727 498.029 342.342C497.907 342.254 497.75 342.205 497.587 342.205V342.211Z" fill="#EF7947"/>
<path d="M480.347 241.994H480.988C481.021 241.994 481.046 241.975 481.046 241.949V238.545C481.046 238.52 481.021 238.5 480.988 238.5H480.347C480.314 238.5 480.289 238.52 480.289 238.545V241.949C480.289 241.973 480.314 241.994 480.347 241.994Z" fill="#252527"/>
<path d="M469.909 239.471H470.55C470.583 239.471 470.608 239.451 470.608 239.426V236.022C470.608 235.996 470.583 235.977 470.55 235.977H469.909C469.877 235.977 469.852 235.996 469.852 236.022V239.426C469.852 239.45 469.879 239.471 469.909 239.471Z" fill="#252527"/>
<path d="M469.478 238.154L481.349 241.004C481.466 241.128 481.547 241.215 481.664 241.338L481.666 243.605C481.666 243.802 481.422 243.943 481.181 243.885L469.343 241.042C469.189 241.006 469.083 240.896 469.079 240.771L468.992 238.443C468.985 238.241 469.231 238.095 469.478 238.154Z" fill="#252527"/>
<path d="M462.903 231.621L493.147 238.882C493.321 238.924 493.419 239.068 493.365 239.204L492.294 241.923C492.241 242.059 492.056 242.135 491.882 242.093L461.639 234.831C461.465 234.789 461.367 234.644 461.421 234.509L462.491 231.789C462.545 231.656 462.73 231.579 462.903 231.621Z" fill="#252527"/>
<path d="M490.35 243.696H493.193C493.328 243.696 493.436 243.61 493.436 243.506V219.602H490.078V243.484C490.08 243.601 490.201 243.696 490.35 243.696Z" fill="#252527"/>
<path d="M461.634 238.541H464.478C464.597 238.541 464.694 238.466 464.694 238.372V214.445H461.336V238.306C461.336 238.436 461.469 238.541 461.634 238.541Z" fill="#252527"/>
<path d="M486.34 205.273L474.959 206.136C473.639 206.237 472.613 207.081 472.553 208.117L471.565 225.388C471.504 226.465 472.503 227.401 473.87 227.545L484.584 230.358C484.94 230.396 485.302 230.396 485.658 230.36L493.436 228.025C495.41 227.819 496.896 226.52 496.934 224.963L497.3 209.961C497.335 208.54 496.147 207.276 494.401 206.878L487.857 205.384C487.366 205.271 486.85 205.234 486.34 205.273Z" fill="#252527"/>
<path d="M468.875 220.523L475.64 220.624C476.996 220.643 478.234 220 478.703 219.007C479.926 216.432 480.221 213.9 479.015 211.442C478.559 210.511 477.387 209.912 476.11 209.893L469.137 209.789L468.875 220.523Z" fill="#252527"/>
<path d="M455.086 223L468.434 223.198C469.893 223.219 471.204 222.472 471.583 221.371C473.054 217.096 473.478 213.059 472.096 209.428C471.697 208.382 470.473 207.66 469.077 207.641L455.465 207.438L455.086 223Z" fill="#252527"/>
<path d="M435.004 201.227L455.412 205.036C456.376 205.216 457.194 205.731 457.593 206.439C460.614 211.811 459.616 217.97 456.927 224.461C456.607 225.233 455.839 225.843 454.851 226.092L434.27 231.278L430.148 231.216L430.882 201.164L435.004 201.227Z" fill="#252527"/>
<path d="M425.012 216.11C424.81 224.409 427.258 231.175 430.483 231.223C433.708 231.271 436.486 224.583 436.688 216.285C436.891 207.986 434.442 201.22 431.217 201.172C427.992 201.124 425.216 207.812 425.012 216.11Z" fill="#252527"/>
<path d="M427.754 216.416C427.606 222.491 428.869 227.437 430.576 227.463C432.284 227.488 433.788 222.583 433.936 216.508C434.084 210.432 432.821 205.487 431.114 205.461C429.406 205.435 427.902 210.341 427.754 216.416Z" fill="#1D75E0"/>
<path d="M491.004 181.204L484.708 167.631L477.898 165.703L483.443 178.591L491.004 181.204Z" fill="#252527"/>
<path d="M492.375 180.791L486.046 167.508L484.656 167.625L491.012 181.191L491.576 181.384C492.059 181.548 492.558 181.178 492.375 180.791Z" fill="#252527"/>
<path d="M473.115 170.037L501.181 178.396C501.886 178.605 502.637 178.19 502.619 177.602L502.242 165.462C502.232 165.126 501.963 164.828 501.561 164.708L472.687 156.11C471.962 155.894 471.195 156.34 471.253 156.946L472.437 169.327C472.466 169.645 472.73 169.922 473.115 170.037Z" fill="#67270B"/>
<path d="M472.057 169.79L499.917 178.087C500.616 178.295 501.365 177.88 501.348 177.292L501.011 165.163C501.001 164.828 500.735 164.53 500.335 164.411L471.674 155.875C470.954 155.66 470.189 156.108 470.245 156.713L471.383 169.079C471.414 169.399 471.676 169.676 472.057 169.79Z" fill="#252527"/>
<path d="M489.396 207.742C489.604 208.98 484.918 208.951 483.555 207.554L490.719 180.445L496.369 181.357L489.396 207.742Z" fill="#252527"/>
<path d="M493.602 190.828C491.343 190.983 489.514 190.818 488.309 190.189C487.847 189.948 487.635 189.501 487.749 189.076L489.768 181.438L496.491 182.522L494.449 190.248C494.362 190.566 494.016 190.8 493.602 190.828Z" fill="#252527"/>
<path d="M475.841 175.917L516.724 185.734C516.897 185.776 516.995 185.92 516.941 186.056L515.871 188.775C515.817 188.91 515.632 188.987 515.459 188.945L474.576 179.129C474.403 179.087 474.305 178.942 474.359 178.807L475.429 176.087C475.483 175.952 475.668 175.877 475.841 175.917Z" fill="#252527"/>
<path d="M512.09 208.732L507.305 207.961C507.067 207.922 506.913 207.74 506.963 207.553L513.728 181.955C513.778 181.768 514.011 181.648 514.25 181.687L519.034 182.459C519.273 182.498 519.427 182.68 519.377 182.866L512.611 208.465C512.563 208.651 512.33 208.772 512.09 208.732Z" fill="#252527"/>
<path d="M467.362 203.229L462.8 201.866C462.572 201.798 462.457 201.598 462.545 201.421L476.727 172.448C476.814 172.271 477.07 172.181 477.297 172.25L481.86 173.613C482.087 173.68 482.202 173.88 482.114 174.058L467.932 203.03C467.846 203.208 467.592 203.296 467.362 203.229Z" fill="#252527"/>
</g>
<defs>
<linearGradient id="paint0_linear_2601_6534" x1="697.527" y1="569.924" x2="407.899" y2="114.375" gradientUnits="userSpaceOnUse">
<stop stop-color="#DAE3FE"/>
<stop offset="1" stop-color="#E9EFFD"/>
</linearGradient>
<clipPath id="clip0_2601_6534">
<rect width="690" height="350" fill="white"/>
</clipPath>
</defs>
</svg>
