<svg width="690" height="350" viewBox="0 0 690 350" fill="none" xmlns="http://www.w3.org/2000/svg">
<path d="M419.875 100.446C419.875 100.446 422.144 94.065 428.938 93.9006C435.739 93.7363 433.294 97.8306 440.447 97.1733C447.592 96.5159 444.978 88.663 456.135 87.0267C467.293 85.3904 472 100.446 472 100.446H419.875Z" fill="white"/>
<path d="M302 24.1179C302 24.1179 303.691 19.3519 308.771 19.2304C313.845 19.1089 312.029 22.1672 317.366 21.6742C322.703 21.1883 320.749 15.3147 329.08 14.0928C337.411 12.8709 340.925 24.1179 340.925 24.1179H302Z" fill="white"/>
<path d="M152 72.2076C152 72.2076 153.515 67.9489 158.047 67.8346C162.586 67.7274 160.954 70.457 165.727 70.0211C170.5 69.5852 168.75 64.3404 176.196 63.2472C183.641 62.1539 186.782 72.2076 186.782 72.2076H152Z" fill="white"/>
<path d="M328.348 322.988H224.558C213.05 322.988 203.715 313.878 203.715 302.645V64.9721C203.715 53.7394 213.05 44.6289 224.558 44.6289H328.355C339.864 44.6289 349.198 53.7394 349.198 64.9721V302.652C349.191 313.885 339.864 322.988 328.348 322.988Z" fill="#E5EDFD"/>
<path d="M328.348 51.5957C335.903 51.5957 342.053 57.5979 342.053 64.9721V302.652C342.053 310.026 335.903 316.028 328.348 316.028H224.558C217.003 316.028 210.853 310.026 210.853 302.652V64.9721C210.853 57.5979 217.003 51.5957 224.558 51.5957H328.348ZM328.348 44.6289H224.558C213.05 44.6289 203.715 53.7394 203.715 64.9721V302.652C203.715 313.885 213.05 322.995 224.558 322.995H328.355C339.864 322.995 349.198 313.885 349.198 302.652V64.9721C349.191 53.7322 339.864 44.6289 328.348 44.6289Z" fill="#060000"/>
<path d="M308.925 45.332H243.981V52.7062C243.981 55.9716 246.697 58.6226 250.043 58.6226H302.863C306.209 58.6226 308.925 55.9716 308.925 52.7062V45.332Z" fill="#060000"/>
<path d="M264.362 50.8555H289.268" stroke="white" stroke-width="0.764" stroke-miterlimit="10" stroke-linecap="round" stroke-linejoin="round"/>
<path d="M302.388 292.407H228.212C225.005 292.407 222.406 289.87 222.406 286.741V226.276C222.406 223.146 225.005 220.609 228.212 220.609H302.388C305.594 220.609 308.193 223.146 308.193 226.276V286.741C308.193 289.87 305.594 292.407 302.388 292.407Z" fill="#9BBDF9"/>
<path d="M253.762 251.796H236.718C235.445 251.796 234.412 250.789 234.412 249.546V232.911C234.412 231.668 235.445 230.66 236.718 230.66H253.762C255.036 230.66 256.068 231.668 256.068 232.911V249.546C256.068 250.789 255.036 251.796 253.762 251.796Z" fill="white"/>
<path d="M263.462 237.324H283.046" stroke="black" stroke-width="1.3" stroke-miterlimit="10" stroke-linecap="round" stroke-linejoin="round"/>
<path d="M263.462 244.129H295.037" stroke="black" stroke-width="1.3" stroke-miterlimit="10" stroke-linecap="round" stroke-linejoin="round"/>
<path d="M234.412 260.598H256.068" stroke="white" stroke-width="1.3" stroke-miterlimit="10" stroke-linecap="round" stroke-linejoin="round"/>
<path d="M234.412 267.621H295.037" stroke="white" stroke-width="1.3" stroke-miterlimit="10" stroke-linecap="round" stroke-linejoin="round"/>
<path d="M234.412 275.363H295.037" stroke="white" stroke-width="1.3" stroke-miterlimit="10" stroke-linecap="round" stroke-linejoin="round"/>
<path d="M356.829 59.366C359.056 50.257 353.296 41.1107 343.963 38.9372C334.63 36.7637 325.259 42.386 323.032 51.495C320.805 60.604 326.566 69.7503 335.898 71.9238C345.231 74.0974 354.602 68.4751 356.829 59.366Z" fill="#DC761C"/>
<path d="M332.933 56.239L338.387 60.1833L347.729 50.7227" stroke="white" stroke-width="2.1361" stroke-miterlimit="10" stroke-linecap="round" stroke-linejoin="round"/>
<path d="M241.243 205.377H183.07C180.976 205.377 179.271 203.719 179.271 201.668V162.111C179.271 160.067 180.969 158.402 183.07 158.402H241.243C243.337 158.402 245.042 160.06 245.042 162.111V201.668C245.035 203.719 243.337 205.377 241.243 205.377Z" fill="#4479FA"/>
<path d="M222.296 178.073C222.296 172.471 217.647 167.934 211.908 167.934C206.168 167.934 201.519 172.471 201.519 178.073C201.519 179.945 202.046 181.689 202.954 183.196H202.947L202.976 183.232C203.371 183.889 203.84 184.497 204.374 185.047L211.9 194.779L219.419 185.054C219.961 184.497 220.436 183.882 220.832 183.225L220.854 183.196H220.846C221.762 181.689 222.296 179.945 222.296 178.073ZM211.9 182.489C209.374 182.489 207.325 180.488 207.325 178.023C207.325 175.558 209.374 173.557 211.9 173.557C214.426 173.557 216.476 175.558 216.476 178.023C216.476 180.488 214.426 182.489 211.9 182.489Z" fill="white"/>
<path d="M326.191 151H225.809C222.601 151 220 148.492 220 145.397V85.6034C220 82.5085 222.601 80 225.809 80H326.191C329.399 80 332 82.5085 332 85.6034V145.397C332 148.492 329.399 151 326.191 151Z" fill="white"/>
<path d="M246.638 115.36H231.689C230.569 115.36 229.668 114.474 229.668 113.387V98.7964C229.668 97.7031 230.576 96.8242 231.689 96.8242H246.638C247.758 96.8242 248.659 97.7103 248.659 98.7964V113.387C248.666 114.474 247.758 115.36 246.638 115.36Z" fill="#9BBDF9"/>
<path d="M270.841 115.36H255.892C254.772 115.36 253.871 114.474 253.871 113.387V98.7964C253.871 97.7031 254.779 96.8242 255.892 96.8242H270.841C271.961 96.8242 272.862 97.7103 272.862 98.7964V113.387C272.862 114.474 271.954 115.36 270.841 115.36Z" fill="#9BBDF9"/>
<path d="M295.037 115.36H280.088C278.968 115.36 278.067 114.474 278.067 113.387V98.7964C278.067 97.7031 278.975 96.8242 280.088 96.8242H295.037C296.157 96.8242 297.058 97.7103 297.058 98.7964V113.387C297.058 114.474 296.15 115.36 295.037 115.36Z" fill="#9BBDF9"/>
<path d="M319.233 115.36H304.284C303.164 115.36 302.263 114.474 302.263 113.387V98.7964C302.263 97.7031 303.171 96.8242 304.284 96.8242H319.233C320.353 96.8242 321.254 97.7103 321.254 98.7964V113.387C321.254 114.474 320.346 115.36 319.233 115.36Z" fill="#DC761C"/>
<path d="M246.638 140.36H231.689C230.569 140.36 229.668 139.474 229.668 138.387V123.796C229.668 122.703 230.576 121.824 231.689 121.824H246.638C247.758 121.824 248.659 122.71 248.659 123.796V138.387C248.666 139.474 247.758 140.36 246.638 140.36Z" fill="#9BBDF9"/>
<path d="M270.841 140.36H255.892C254.772 140.36 253.871 139.474 253.871 138.387V123.796C253.871 122.703 254.779 121.824 255.892 121.824H270.841C271.961 121.824 272.862 122.71 272.862 123.796V138.387C272.862 139.474 271.954 140.36 270.841 140.36Z" fill="#9BBDF9"/>
<path d="M295.037 140.36H280.088C278.968 140.36 278.067 139.474 278.067 138.387V123.796C278.067 122.703 278.975 121.824 280.088 121.824H295.037C296.157 121.824 297.058 122.71 297.058 123.796V138.387C297.058 139.474 296.15 140.36 295.037 140.36Z" fill="#9BBDF9"/>
<path d="M319.233 140.36H304.284C303.164 140.36 302.263 139.474 302.263 138.387V123.796C302.263 122.703 303.171 121.824 304.284 121.824H319.233C320.353 121.824 321.254 122.71 321.254 123.796V138.387C321.254 139.474 320.346 140.36 319.233 140.36Z" fill="#9BBDF9"/>
<path d="M328.597 205.377H262.964C260.87 205.377 259.165 203.719 259.165 201.668V162.111C259.165 160.067 260.863 158.402 262.964 158.402H328.597C330.691 158.402 332.396 160.06 332.396 162.111V201.668C332.396 203.719 330.691 205.377 328.597 205.377Z" fill="white"/>
<path d="M322.44 174.414H270.424C269.304 174.414 268.404 173.528 268.404 172.441V165.71C268.404 164.617 269.311 163.738 270.424 163.738H322.44C323.56 163.738 324.46 164.624 324.46 165.71V172.441C324.46 173.528 323.553 174.414 322.44 174.414Z" fill="#9BBDF9"/>
<path d="M269.128 181.406H294.679" stroke="black" stroke-width="1.3" stroke-miterlimit="10" stroke-linecap="round" stroke-linejoin="round"/>
<path d="M269.128 187.48H323.728" stroke="black" stroke-width="1.3" stroke-miterlimit="10" stroke-linecap="round" stroke-linejoin="round"/>
<path d="M269.128 194.176H323.728" stroke="black" stroke-width="1.3" stroke-miterlimit="10" stroke-linecap="round" stroke-linejoin="round"/>
<path d="M363.789 277.125H325.749C323.194 277.125 321.129 275.102 321.129 272.616V240.411C321.129 237.917 323.201 235.902 325.749 235.902H363.789C366.344 235.902 368.408 237.925 368.408 240.411V272.616C368.408 275.102 366.344 277.125 363.789 277.125Z" fill="#DC761C"/>
<path d="M354.139 254.715L352.587 254.451C352.404 253.793 352.134 253.157 351.789 252.564L352.697 251.307C353.027 250.842 352.975 250.213 352.565 249.813L351.636 248.906C351.218 248.513 350.574 248.47 350.106 248.799L348.817 249.685C348.209 249.342 347.558 249.077 346.884 248.906L346.621 247.355C346.526 246.805 346.042 246.398 345.471 246.391H344.132C343.553 246.391 343.056 246.798 342.953 247.355L342.682 248.87C342.009 249.049 341.357 249.313 340.749 249.649L339.461 248.806C338.985 248.484 338.341 248.534 337.931 248.934L337.001 249.842C336.591 250.242 336.533 250.871 336.869 251.335L337.777 252.593C337.426 253.186 337.155 253.822 336.979 254.479L335.427 254.744C334.856 254.844 334.439 255.322 334.439 255.894V257.18C334.439 257.745 334.856 258.231 335.427 258.331L336.979 258.595C337.162 259.252 337.433 259.888 337.777 260.482L336.869 261.739C336.54 262.204 336.591 262.832 337.001 263.232L337.931 264.14C338.341 264.54 338.985 264.597 339.461 264.269L340.749 263.383C341.357 263.726 342.009 263.99 342.682 264.161L342.953 265.676C343.056 266.234 343.546 266.641 344.132 266.641H345.464C346.042 266.641 346.54 266.234 346.643 265.676L346.914 264.161C347.587 263.983 348.239 263.718 348.846 263.383L350.106 264.247C350.581 264.569 351.226 264.519 351.636 264.119L352.565 263.211C352.975 262.811 353.034 262.182 352.697 261.718L351.789 260.446C352.141 259.853 352.412 259.217 352.587 258.559L354.139 258.295C354.711 258.195 355.128 257.716 355.128 257.145V255.858C355.128 255.294 354.711 254.808 354.139 254.715ZM344.769 260.524C342.492 260.524 340.64 258.724 340.64 256.494C340.64 254.272 342.484 252.464 344.769 252.464C347.045 252.464 348.898 254.265 348.898 256.494C348.898 256.501 348.898 256.509 348.898 256.516C348.883 258.738 347.038 260.524 344.769 260.524Z" fill="white"/>
<path d="M196 329H496" stroke="black" stroke-width="0.75" stroke-miterlimit="10"/>
<path d="M126.549 70.7809H99.851C93.2543 70.7809 87.9027 65.0073 87.9027 57.8904C87.9027 50.7735 93.2543 45 99.851 45H126.549C133.146 45 138.498 50.7735 138.498 57.8904C138.504 65.0073 133.153 70.7809 126.549 70.7809Z" fill="#9BBDF9"/>
<path d="M117.158 67.9366L125.821 77.1114L127.397 67.2578L117.158 67.9366Z" fill="#9BBDF9"/>
<path d="M117.211 53.7923C118.456 52.4775 120.449 52.4989 121.668 53.8423L122.469 54.7283L123.297 53.8494C124.536 52.5275 126.536 52.549 127.755 53.8852C128.973 55.2214 128.96 57.3793 127.722 58.6941L124.655 61.9524C124.649 61.9596 124.642 61.9667 124.635 61.9738C124.145 62.4883 123.542 62.8027 122.913 62.9028C121.94 63.0671 120.92 62.7313 120.178 61.9238L117.158 58.6012C115.946 57.2578 115.965 55.107 117.211 53.7923Z" fill="white"/>
<path d="M111.183 54.9336H98.8973" stroke="white" stroke-width="1.0186" stroke-miterlimit="10" stroke-linecap="round" stroke-linejoin="round"/>
<path d="M111.183 58.6094H104.699" stroke="white" stroke-width="1.0186" stroke-miterlimit="10" stroke-linecap="round" stroke-linejoin="round"/>
<path d="M151.499 326.571L159.354 331.237C160.189 331.73 160.692 332.866 160.434 333.938C160.229 334.788 159.56 335.431 157.811 335.474C153.93 335.56 136.743 332.466 136.743 332.466V335.131L128.715 335.174C128.715 335.174 128.212 322.576 130.643 320.969L151.499 326.571Z" fill="#200902"/>
<path d="M140.975 317.303L151.499 326.57C151.499 326.57 150.148 330.758 144.147 327.964C138.153 325.17 130.636 320.961 130.636 320.961L131.729 316.109L140.975 317.303Z" fill="#ECC696"/>
<path d="M131.735 316.118L130.636 282.477L141.068 281.562V320.963L131.735 316.118Z" fill="#ECC696"/>
<path d="M150.307 181.465L145.942 312.47H125.715L124.682 170.883L150.307 181.465Z" fill="#3A2222"/>
<path d="M148.035 179.176L137.855 243.007C136.623 250.881 129.132 255.69 122.132 253.103C116.979 251.203 113.661 245.793 114.045 239.927L115.992 210.938C116.972 201.098 114.714 188.372 124.675 170.895L148.035 179.176Z" fill="#523332"/>
<path d="M94.5391 323.357L98.9038 331.81C99.3674 332.703 99.235 333.953 98.4931 334.718C97.9037 335.318 97.0161 335.482 95.5193 334.518C92.1878 332.367 79.14 319.912 79.14 319.912L77.8286 322.17L71 317.612C71 317.612 76.7689 306.643 79.6169 306.672L94.5391 323.357Z" fill="#200902"/>
<path d="M90.1742 309.474L94.5389 323.351C94.5389 323.351 91.3333 326.13 87.6176 320.328C83.9086 314.526 79.6101 306.659 79.6101 306.659L82.9218 303.172L90.1742 309.474Z" fill="#ECC696"/>
<path d="M82.9219 303.178L98.5395 274.039L107.825 279.234L88.4523 312.632L82.9219 303.178Z" fill="#ECC696"/>
<path d="M136.345 247.465L98.7451 307.958L81.2199 295.84L117.562 230.016L136.345 247.465Z" fill="#523332"/>
<path d="M164.394 75.5115C164.394 75.5115 172.753 74.3396 173.839 82.8713C174.647 89.2236 171.938 92.3462 174.064 97.4552C176.19 102.564 172.203 107.13 172.203 107.13C172.203 107.13 162.308 112.089 151.552 101.95L164.394 75.5115Z" fill="#DC761C"/>
<path d="M161.149 104.047L156.619 116.751L147.134 114.029L155.89 95.7578L161.149 104.047Z" fill="#ECC696"/>
<path d="M158.983 110.119L157.043 100.809L160.573 105.653L158.983 110.119Z" fill="black"/>
<path d="M165.454 77.4149C165.454 77.4149 171.084 78.6939 171.091 86.4039C171.091 86.4039 171.362 89.3478 171.005 97.3793C170.753 103.067 168.262 107.004 163.315 106.461C160.917 106.197 158.4 104.618 156.155 102.574L153.003 99.1085C145.717 89.5122 153.32 75.0569 164.64 77.2362C164.905 77.2934 165.176 77.3506 165.454 77.4149Z" fill="#ECC696"/>
<path d="M170.64 92.9062L172.634 96.6862C172.866 97.0864 172.746 97.7009 172.256 97.7366L169.666 98.101L170.64 92.9062Z" fill="#ECC696"/>
<path d="M157.334 90.6572C157.135 88.9137 156.036 76.7736 164.461 78.3384C165.765 78.5814 166.434 76.7021 165.308 75.9447C162.295 73.9154 157.513 72.5149 150.598 75.3873C147.79 76.5521 143.922 80.5464 143.922 84.4693C143.915 92.8938 146.518 97.1596 151.095 101.497C151.327 101.718 151.698 101.647 151.843 101.347L154.791 95.2018C154.804 95.1803 154.811 95.1589 154.817 95.1374C155.142 94.0228 156.784 91.679 157.241 91.0288C157.314 90.9288 157.347 90.793 157.334 90.6572Z" fill="#DC761C"/>
<path d="M162.977 75.3634C173.574 80.6368 158.063 93.1842 158.063 93.1842L153.698 83.9166C153.698 83.9094 161.202 74.4774 162.977 75.3634Z" fill="#DC761C"/>
<path d="M170.004 85.8637L164.401 87.9145C164.401 87.9145 165.375 85.9709 167.362 84.9276C170.031 83.5271 170.004 85.8637 170.004 85.8637Z" fill="black"/>
<path d="M168.825 89.9961C168.825 89.9961 166.938 90.4391 166.878 92.4684C166.812 94.4977 168.865 94.362 168.865 94.362C168.865 94.362 170.627 91.9039 168.825 89.9961Z" fill="white"/>
<path d="M168.441 89.4727C168.441 89.4727 166.977 92.4094 168.858 94.3602C170.739 96.3109 168.858 94.3602 168.858 94.3602L169.911 94.253L169.964 91.0161L168.441 89.4727Z" fill="black"/>
<path d="M169.276 89.4883C168.925 89.5169 168.647 89.5955 168.355 89.7241C168.07 89.8456 167.805 90.0242 167.574 90.2457C167.348 90.4672 167.15 90.7244 167.017 91.0103C166.872 91.2889 166.799 91.6033 166.732 91.9035C166.719 91.9678 166.759 92.0321 166.819 92.0464C166.872 92.0607 166.925 92.0249 166.944 91.9749V91.9678C167.037 91.6962 167.143 91.4318 167.302 91.2103C167.448 90.9817 167.64 90.7959 167.852 90.6459C168.064 90.4958 168.296 90.3886 168.534 90.3314C168.772 90.2671 169.044 90.2386 169.249 90.26H169.263C169.455 90.2743 169.627 90.1242 169.647 89.917C169.66 89.7098 169.521 89.524 169.329 89.5026C169.316 89.4883 169.296 89.4883 169.276 89.4883Z" fill="black"/>
<path d="M170.654 99.1764C171.322 99.2907 171.375 100.127 170.759 100.398C170.759 100.398 171.568 101.291 170.342 101.584C169.11 101.885 167.958 99.6194 167.958 99.6194C169.461 99.9767 169.773 99.0263 170.654 99.1764Z" fill="#C7181B"/>
<path d="M156.546 95.8175C155.884 100.905 156.433 106.529 156.433 106.529C156.433 106.529 143.054 111.166 136.981 94.7457C136.981 94.7457 140.862 93.1308 142.054 89.5295C143.247 85.9282 142.068 73.4022 157.685 73.7737C157.685 73.7737 157.288 90.0797 156.546 95.8175Z" fill="#DC761C"/>
<path d="M151.406 93.0777C151.161 95.2071 152.559 97.1507 154.539 97.415C156.513 97.6794 158.314 96.1717 158.559 94.0352C158.804 91.9059 157.407 89.9623 155.427 89.6979C153.453 89.4335 151.651 90.9484 151.406 93.0777Z" fill="#ECC696"/>
<path d="M156.546 95.2068C156.546 95.2068 156.407 92.2486 154.142 92.1914" stroke="black" stroke-width="0.5111" stroke-miterlimit="10" stroke-linecap="round" stroke-linejoin="round"/>
<path d="M133.259 123.797L111.084 143.168C107.912 146.091 107.666 151.3 110.554 154.551C113.197 157.524 117.522 157.788 120.456 155.151L144.518 134.587L133.259 123.797Z" fill="#ECC696"/>
<path d="M119.959 130.905C119.959 130.905 120.906 138.615 133.365 147.468L150.3 133.884C155.029 130.09 155.718 122.738 151.791 118C148.539 114.077 143.134 113.248 138.995 116.042L119.959 130.905Z" fill="#467AC9"/>
<path d="M120.37 155.424L98.3742 185.907L92.9828 179.083L109.422 145.228C112.098 141.333 117.37 140.976 120.483 144.47C123.218 147.55 123.165 152.416 120.37 155.424Z" fill="#ECC696"/>
<path d="M99.6591 184.614L99.8844 186.143C100.189 188.193 100.043 190.294 99.4538 192.266L98.4206 195.746C98.1755 196.575 97.3013 196.968 96.586 196.568C95.9833 196.232 95.6256 195.532 95.6918 194.803L96.0296 190.937L88.8765 201.863C88.5387 202.406 87.8367 202.506 87.3797 202.077L87.075 201.791C86.7107 201.448 86.6246 200.884 86.8631 200.434L91.4331 192.902L85.0748 200.769C84.7039 201.284 84.0018 201.341 83.5713 200.884L83.3594 200.655C82.9951 200.269 82.9553 199.655 83.2666 199.219L88.5189 191.923L83.3991 196.518C82.9156 196.975 82.1605 196.839 81.8493 196.232L81.783 196.111C81.5711 195.696 81.6307 195.175 81.9354 194.832L86.9359 189.651L83.7965 191.673C83.2203 192.181 82.3526 191.859 82.1804 191.08C82.1009 190.709 82.2069 190.316 82.4586 190.051L95.215 177.168L97.8245 180.383C98.7849 181.577 99.4273 183.042 99.6591 184.614Z" fill="#ECC696"/>
<path d="M150.208 113.639C150.208 113.639 158.924 112.725 159.036 129.709C159.149 146.737 154.168 154.761 150.307 181.471C150.307 181.471 135.53 179.513 124.682 170.889C124.682 170.889 124.006 108.337 150.208 113.639Z" fill="#4479FA"/>
<path d="M151.969 136.396L172.581 157.683C175.674 160.712 180.489 160.312 183.112 156.811C185.516 153.61 185.205 148.944 182.41 146.143L160.46 122.984L151.969 136.396Z" fill="#ECC696"/>
<path d="M157.586 149.893C157.586 149.893 164.772 149.628 172.163 133.815L157.672 117.273C153.625 112.65 146.777 112.779 142.875 117.545C139.643 121.489 139.517 127.377 142.577 131.479L157.586 149.893Z" fill="#4479FA"/>
<path d="M155.599 147.447L145.69 135.285" stroke="black" stroke-width="0.5111" stroke-miterlimit="10" stroke-linecap="round" stroke-linejoin="round"/>
<path d="M172.938 146.379L202.306 122.406L206.161 128.93L182.953 157.048C180.125 160.642 174.978 160.62 172.17 157.012C169.7 153.832 170.044 149.109 172.938 146.379Z" fill="#ECC696"/>
<path d="M198.418 129.027C199.524 133.042 203.114 132.878 210.174 130.749C213.91 129.62 215.267 126.761 214.161 122.746C213.055 118.73 209.141 116.443 205.419 117.637C201.696 118.83 197.312 125.018 198.418 129.027Z" fill="#ECC696"/>
<path d="M204.127 118.207L213.102 112.576C213.691 112.147 214.519 112.297 214.93 112.919C215.281 113.455 215.201 114.169 214.744 114.605L207.777 120.958L204.127 118.207Z" fill="#ECC696"/>
<path d="M394.328 106.73C394.328 106.73 399.813 111.075 403.203 122.516C406.592 133.958 406.493 151.404 410.897 153.603C415.301 155.803 433.289 160.325 433.15 167.026C433.011 173.727 416.555 171.548 407.222 166.923C397.89 162.299 396.881 131.758 396.881 131.758L394.328 106.73Z" fill="#EF6931"/>
<path d="M441.859 158.269C441.859 158.269 435.425 169.109 428.547 170.448C427.505 170.653 426.471 170.058 426.059 169.061L424.335 164.922C424.335 164.915 434.258 156.616 441.859 158.269Z" fill="#FFC2A9"/>
<path d="M423.134 168.258L423.579 168.75C423.811 169.009 424.176 169.084 424.487 168.934C427.366 167.581 441.335 160.983 443.802 159.583C444.028 159.453 444.18 159.214 444.207 158.947L444.996 150.115C445.016 149.903 444.95 149.692 444.824 149.521L444.227 148.77L443.285 158.257L423.134 168.258Z" fill="#453F3F"/>
<path d="M423.127 168.138L423.658 159.32C423.678 158.971 424.043 158.52 424.474 158.309L443.577 148.821C444.008 148.609 444.339 148.711 444.319 149.06L443.789 157.878C443.769 158.227 443.404 158.678 442.973 158.889L423.87 168.377C423.439 168.589 423.107 168.487 423.127 168.138Z" fill="#0C0B0B"/>
<path d="M426.955 165.063L427.339 158.649C427.359 158.3 427.724 157.849 428.155 157.638L442.317 150.602C442.748 150.39 443.079 150.493 443.059 150.841L442.675 157.255C442.655 157.604 442.29 158.054 441.859 158.266L427.698 165.302C427.266 165.514 426.935 165.411 426.955 165.063Z" fill="#453F3F"/>
<path d="M425.177 163.762C424.514 164.09 423.996 163.926 424.03 163.393C424.063 162.86 424.627 162.164 425.29 161.829C425.953 161.501 426.47 161.665 426.437 162.198C426.404 162.731 425.84 163.434 425.177 163.762Z" fill="#453F3F"/>
<path d="M427.87 156.817C427.87 156.817 427.479 153.251 429.913 152.329C432.347 151.407 436.539 152.309 436.539 152.309C437.74 154.098 434.616 154.727 430.788 155.164L427.87 156.817Z" fill="#FFC2A9"/>
<path d="M432.547 165.122C432.547 165.122 434.318 166.741 435.359 165.758C436.401 164.774 436.082 161.352 435.896 160.163C435.704 158.968 434.384 161.42 434.278 162.684C434.212 163.428 433.827 164.521 433.827 164.521L432.547 165.122Z" fill="#FFC2A9"/>
<path d="M436.221 163.011C436.221 163.011 438.111 164.63 439.345 163.455C440.579 162.287 440.207 158.229 439.982 156.815C439.756 155.401 438.085 158.304 438.058 159.807C438.032 161.31 437.395 161.774 437.395 161.774L436.221 163.011Z" fill="#FFC2A9"/>
<path d="M438.171 162.032C438.171 162.032 439.843 163.459 440.93 162.428C442.018 161.397 441.686 157.81 441.487 156.56C441.288 155.31 439.809 157.879 439.789 159.204C439.77 160.529 439.199 160.939 439.199 160.939L438.171 162.032Z" fill="#FFC2A9"/>
<path d="M434.065 164.749C434.065 164.749 435.955 166.368 437.189 165.193C438.423 164.025 438.051 159.967 437.826 158.554C437.6 157.14 435.929 160.043 435.902 161.545C435.876 163.048 435.239 163.513 435.239 163.513L434.065 164.749Z" fill="#FFC2A9"/>
<path d="M405.272 155.774C405.173 155.774 405.067 155.727 405 155.638C404.881 155.481 404.901 155.255 405.053 155.125C406.851 153.623 409.206 152.653 409.298 152.612C409.477 152.537 409.683 152.632 409.756 152.817C409.829 153.001 409.736 153.213 409.557 153.288C409.531 153.295 407.202 154.258 405.491 155.692C405.431 155.747 405.352 155.774 405.272 155.774Z" fill="#BB4000"/>
<path d="M408.774 153.607C408.741 153.607 408.701 153.601 408.661 153.587C407.01 153.02 405.736 153.02 405.736 153.013C405.544 153.013 405.385 152.849 405.385 152.651C405.385 152.453 405.544 152.289 405.736 152.289C405.796 152.289 407.123 152.296 408.88 152.897C409.066 152.958 409.166 153.163 409.099 153.355C409.059 153.512 408.92 153.607 408.774 153.607Z" fill="#BB4000"/>
<path d="M364.532 289.723L360.685 293.029L365.103 300.242L368.95 296.936L364.532 289.723Z" fill="#FFC2A9"/>
<path d="M364.632 324.764L348.54 298.499C348.766 298.083 349.19 297.659 349.747 297.236C351.804 295.671 355.684 294.141 358.065 293.076C358.344 292.953 358.602 292.837 358.834 292.727C359.226 292.543 359.544 292.372 359.77 292.229C361.541 291.081 362.224 292.891 362.224 292.891C361.322 297.195 366.96 297.734 366.794 300.303C366.794 300.303 366.728 301.402 366.184 304.668C365.64 307.933 366.608 312.263 367.232 316.082C368.034 321.007 367.132 323.138 366.177 324.06C365.421 324.791 364.632 324.764 364.632 324.764Z" fill="#777D15"/>
<path d="M364.632 324.747L348.54 298.482C348.766 298.066 349.19 297.642 349.747 297.219L366.177 324.043C365.421 324.774 364.632 324.747 364.632 324.747Z" fill="#424208"/>
<path d="M365.952 301.415C365.952 301.415 367.351 301.162 367.637 302.433C367.922 303.703 366.184 304.687 366.184 304.687C366.184 304.687 364.287 305.042 365.952 301.415Z" fill="white"/>
<path d="M360.738 304.347C360.592 304.108 360.659 303.794 360.891 303.644C363.425 301.998 365.793 302.742 365.892 302.77C366.151 302.851 366.297 303.145 366.217 303.412C366.138 303.678 365.859 303.828 365.594 303.746C365.507 303.719 363.544 303.125 361.415 304.505C361.189 304.655 360.884 304.586 360.738 304.347Z" fill="white"/>
<path d="M367.384 307.652C367.324 307.55 367.291 307.427 367.311 307.297C367.45 306.436 366.548 304.769 365.951 303.916C365.792 303.683 365.839 303.369 366.064 303.198C366.283 303.034 366.595 303.082 366.761 303.315C366.946 303.574 368.545 305.91 368.3 307.461C368.253 307.741 368.001 307.925 367.729 307.884C367.577 307.857 367.457 307.768 367.384 307.652Z" fill="white"/>
<path d="M364.717 302.736C364.419 302.251 364.034 301.54 363.59 300.543C362.933 299.047 362.913 297.613 363.537 296.8C363.915 296.315 364.479 296.103 365.089 296.233C365.672 296.356 366.143 296.684 366.482 297.223C366.488 297.237 366.495 297.244 366.502 297.257C367.609 299.074 366.893 302.606 366.807 303.009L366.097 302.845C366.11 302.859 366.117 302.865 366.117 302.865L365.341 303.631C365.334 303.61 365.095 303.357 364.717 302.736ZM365.6 297.845C365.593 297.838 365.593 297.831 365.586 297.824C365.407 297.537 365.182 297.374 364.883 297.312C364.664 297.264 364.505 297.319 364.386 297.483C364.081 297.879 364.021 298.835 364.571 300.079C365.109 301.294 365.553 302.046 365.825 302.456C366.031 301.315 366.276 298.945 365.6 297.845Z" fill="white"/>
<path d="M366.19 304.1L366.767 303.164C367.696 303.772 369.241 303.915 369.845 303.451C369.991 303.342 370.137 303.15 370.004 302.665C369.911 302.331 369.759 302.235 369.633 302.187C369.016 301.955 367.775 302.563 367.145 302.993L366.548 302.071C366.761 301.921 368.678 300.644 370.004 301.142C370.356 301.272 370.827 301.593 371.039 302.351C371.357 303.465 370.833 304.073 370.495 304.332C369.427 305.159 367.371 304.872 366.19 304.1Z" fill="white"/>
<path d="M350.185 301.196L349.708 300.417C351.048 300.636 352.819 300.499 354.656 299.174C357.097 297.412 357.846 294.748 358.065 293.094C358.344 292.972 358.603 292.855 358.835 292.746C358.682 294.474 357.992 297.671 355.067 299.782C353.316 301.045 351.592 301.312 350.185 301.196Z" fill="#424208"/>
<path d="M364.406 305.189C364.287 304.998 364.307 304.738 364.466 304.56C364.658 304.355 364.97 304.349 365.169 304.547L366.569 305.933C366.768 306.131 366.774 306.453 366.582 306.657C366.39 306.862 366.078 306.869 365.879 306.671L364.479 305.284C364.453 305.25 364.426 305.223 364.406 305.189Z" fill="white"/>
<path d="M364.486 307.427C364.366 307.236 364.386 306.976 364.545 306.799C364.738 306.594 365.049 306.587 365.248 306.785L366.648 308.172C366.847 308.37 366.854 308.691 366.661 308.896C366.469 309.101 366.157 309.107 365.958 308.909L364.559 307.523C364.532 307.495 364.506 307.461 364.486 307.427Z" fill="white"/>
<path d="M364.599 309.65C364.48 309.459 364.499 309.199 364.659 309.021C364.851 308.816 365.163 308.81 365.362 309.008L366.761 310.394C366.96 310.592 366.967 310.913 366.775 311.118C366.582 311.323 366.27 311.33 366.071 311.132L364.672 309.745C364.645 309.718 364.626 309.684 364.599 309.65Z" fill="white"/>
<path d="M364.871 311.947C364.752 311.755 364.772 311.496 364.931 311.318C365.123 311.113 365.435 311.106 365.634 311.305L367.034 312.691C367.233 312.889 367.239 313.21 367.047 313.415C366.855 313.62 366.543 313.627 366.344 313.429L364.944 312.042C364.918 312.015 364.898 311.981 364.871 311.947Z" fill="white"/>
<path d="M365.362 314.357C365.243 314.166 365.262 313.906 365.422 313.728C365.614 313.523 365.926 313.517 366.125 313.715L367.524 315.101C367.723 315.299 367.73 315.62 367.538 315.825C367.345 316.03 367.033 316.037 366.834 315.839L365.435 314.452C365.408 314.425 365.382 314.391 365.362 314.357Z" fill="white"/>
<path d="M411.162 243.284C411.155 243.345 411.149 243.4 411.142 243.462C411.142 243.462 410.99 243.748 410.711 244.288C408.701 248.072 399.972 264.227 389.147 279.432C387.589 281.625 385.983 283.797 384.352 285.908C383.635 286.837 382.912 287.752 382.183 288.654C379.019 292.575 376.372 294.972 373.348 296.994C373.029 297.206 372.704 297.418 372.373 297.623C371.743 298.019 371.099 298.401 370.429 298.777C370.111 298.955 369.786 299.139 369.454 299.317C369.454 299.317 364.625 294.043 362.384 288.941C362.384 288.941 363.02 287.882 364.042 286.161C364.241 285.826 364.46 285.464 364.685 285.075C365.375 283.913 366.184 282.547 367.053 281.051C370.986 274.343 376.286 265.136 378.269 260.853C379.722 257.724 381.44 254.261 383.37 250.846C383.735 250.197 384.106 249.548 384.491 248.906C384.537 248.831 384.577 248.755 384.624 248.68C387.244 244.268 390.169 240.08 393.227 236.993L386.441 194.799L386.017 192.149L401.378 186.63L402.254 186.315L405.915 185.004C405.915 185.004 406.201 186.391 406.645 188.774C406.698 189.061 406.758 189.362 406.811 189.683C408.801 200.53 413.251 227.594 411.162 243.284Z" fill="#0C0B0B"/>
<path d="M373.341 297.018C373.022 297.23 372.697 297.442 372.365 297.647L366.456 289.525L365.912 288.774L364.035 286.192C364.234 285.857 364.452 285.495 364.678 285.105L366.515 287.633L367.059 288.384L373.341 297.018Z" fill="#453F3F"/>
<path d="M411.161 243.287C411.154 243.348 411.148 243.403 411.141 243.464C411.141 243.464 410.988 243.751 410.71 244.291C407.234 243.608 404.568 241.825 404.409 241.716C404.17 241.552 404.103 241.224 404.263 240.978C404.422 240.732 404.74 240.664 404.979 240.828C405.006 240.855 407.725 242.672 411.161 243.287Z" fill="#453F3F"/>
<path d="M397.226 238.508C397.153 238.583 389.426 246.432 367.066 288.373C366.867 288.748 366.668 289.131 366.463 289.506L365.919 288.755C366.124 288.373 366.323 287.997 366.522 287.621C387.27 248.734 395.21 239.437 396.477 238.071C394.692 231.172 389.28 195.85 389.048 194.333C389.015 194.101 389.167 193.883 389.393 193.848C389.618 193.814 389.83 193.971 389.864 194.204C389.923 194.579 395.634 231.862 397.332 238.084C397.379 238.235 397.332 238.399 397.226 238.508Z" fill="#453F3F"/>
<path d="M360.798 174.531C360.798 174.531 359.604 185.808 362.072 192.099C364.539 198.39 396.815 195.282 405.053 189.661C408.436 187.359 401.332 165.938 401.332 165.938L360.798 174.531Z" fill="#0C0B0B"/>
<path d="M406.804 189.676C406.313 189.588 405.842 189.458 405.377 189.294C404.641 189.034 403.932 188.679 403.262 188.228C402.565 187.764 401.935 187.217 401.371 186.63C397.829 182.921 396.801 177.333 396.755 177.06C396.715 176.828 396.861 176.609 397.086 176.561C397.312 176.52 397.531 176.671 397.571 176.903C397.584 176.971 398.652 182.784 402.247 186.309C402.698 186.753 403.182 187.156 403.713 187.511C404.349 187.941 405.026 188.269 405.736 188.515C406.028 188.618 406.333 188.7 406.638 188.768C406.691 189.055 406.751 189.362 406.804 189.676Z" fill="#453F3F"/>
<path d="M386.893 192.775C386.899 193.001 386.727 193.192 386.501 193.205C386.276 193.219 386.077 193.041 386.07 192.816C386.004 191.272 385.918 189.694 385.831 188.117C385.818 187.836 385.798 187.563 385.785 187.283C385.48 182.126 385.082 177.064 384.783 173.492C384.757 173.205 384.737 172.925 384.71 172.652C384.644 171.866 384.584 171.169 384.531 170.582C384.803 170.541 385.082 170.493 385.354 170.445C385.407 171.033 385.467 171.736 385.533 172.529C385.559 172.795 385.579 173.075 385.606 173.369C385.904 176.914 386.296 181.928 386.601 187.058C386.621 187.338 386.634 187.625 386.654 187.905C386.733 189.537 386.82 191.177 386.893 192.775Z" fill="#453F3F"/>
<path d="M388.086 187.363C387.954 187.424 387.377 187.704 386.64 187.93C386.382 188.012 386.103 188.08 385.824 188.141C385.566 188.189 385.3 188.23 385.042 188.244C384.538 188.271 384.053 188.216 383.655 188.012C383.151 187.759 382.826 187.308 382.72 186.707C382.422 185.115 381.818 178.544 381.407 173.899C381.38 173.612 381.354 173.332 381.334 173.066C381.268 172.321 381.215 171.645 381.161 171.071C381.433 171.037 381.712 171.003 381.984 170.969C382.03 171.549 382.09 172.232 382.156 172.984C382.183 173.25 382.203 173.53 382.229 173.817C382.641 178.455 383.244 185.013 383.529 186.557C383.596 186.912 383.755 187.144 384.027 187.281C384.465 187.499 385.121 187.458 385.778 187.308C386.057 187.246 386.335 187.164 386.594 187.083C387.071 186.925 387.483 186.748 387.735 186.632C387.94 186.529 388.186 186.618 388.285 186.816C388.378 187.014 388.292 187.26 388.086 187.363Z" fill="#453F3F"/>
<path d="M373.825 304.799L374.614 311.493L382.899 311.527L383.403 304.484L373.825 304.799Z" fill="#FFC2A9"/>
<path d="M384.703 188.95L384.285 303.734L384.159 305.551L371.862 305.503C371.736 304.677 371.444 303.338 371.059 301.61C370.973 301.234 370.887 300.838 370.794 300.428C369.215 293.399 366.516 281.425 366.071 271.015C365.435 256.151 365.7 236.902 365.7 236.902C364.334 225.856 362.224 201.928 361.17 189.681C361.143 189.387 361.123 189.107 361.097 188.827C360.745 184.715 360.526 182.126 360.526 182.126C362.509 181.286 366.098 181.88 369.912 183.014C370.19 183.096 370.462 183.178 370.741 183.267C377.52 185.391 384.703 188.95 384.703 188.95Z" fill="#0C0B0B"/>
<path d="M384.292 300.484L384.285 301.666L371.053 301.611C370.966 301.236 370.88 300.84 370.787 300.43L384.292 300.484Z" fill="#453F3F"/>
<path d="M384.518 239.586L384.512 240.679C383.072 241.048 381.427 241.164 379.882 241.157C377.036 241.143 374.543 240.72 374.37 240.686C374.091 240.638 373.899 240.365 373.952 240.071C373.999 239.784 374.264 239.586 374.543 239.634C374.609 239.654 380.625 240.686 384.518 239.586Z" fill="#453F3F"/>
<path d="M373.115 301.607H372.273C372.206 301.238 372.133 300.848 372.06 300.425C370.992 294.475 369.049 283.355 368.041 276.135C366.635 266.059 367.411 238.128 367.444 237.042C366.383 227.431 364.28 194.521 364.26 194.193C364.247 193.954 364.419 193.756 364.645 193.735C364.877 193.721 365.069 193.899 365.082 194.131C365.102 194.466 367.212 227.424 368.266 236.974C368.266 236.994 368.266 237.015 368.266 237.035C368.26 237.322 367.437 265.861 368.85 276.012C369.865 283.28 371.835 294.523 372.889 300.425C372.976 300.848 373.049 301.245 373.115 301.607Z" fill="#453F3F"/>
<path d="M370.76 214.786C371.404 214.786 372.073 214.677 372.763 214.458C381.592 211.63 377.486 188.679 377.307 187.702C377.254 187.395 376.962 187.197 376.663 187.251C376.365 187.306 376.173 187.606 376.226 187.914C376.239 187.975 377.294 193.795 377.307 199.861C377.32 205.312 376.484 212.081 372.432 213.379C370.76 213.912 369.308 213.679 367.994 212.662C363.961 209.54 362.025 199.109 362.19 190.421C362.197 190.107 361.958 189.854 361.653 189.847H361.647C361.348 189.847 361.103 190.093 361.096 190.4C361.01 194.765 361.461 199.519 362.336 203.44C363.099 206.883 364.592 211.432 367.338 213.563C368.392 214.369 369.533 214.779 370.76 214.786Z" fill="#EFAD1A"/>
<path d="M386.01 322.936C386.01 323.011 386.01 323.087 386.003 323.162C385.997 323.503 385.977 323.811 385.963 324.07C385.93 324.651 385.884 325.006 385.884 325.006L367.225 324.931C367.225 324.931 367.139 324.186 367.212 323.087C367.345 321.126 367.988 318.025 370.568 315.983C374.104 313.189 372.744 313.769 373.474 312.492C373.553 312.349 374.197 310.176 374.27 310.026C374.88 308.701 375.444 308.072 378.787 308.086C383.217 308.107 383.602 310.32 384.073 311.488C384.265 311.973 384.531 312.991 384.803 314.2C384.915 314.685 385.022 315.204 385.128 315.737C385.393 317.062 385.645 318.448 385.817 319.548C385.99 320.737 386.023 321.953 386.01 322.936Z" fill="#777D15"/>
<path d="M386.01 322.953C386.01 323.028 386.01 323.104 386.003 323.179C385.997 323.52 385.977 323.828 385.963 324.087C385.055 323.425 384.411 322.557 384.033 321.492C382.892 318.247 384.683 314.367 384.756 314.203L384.796 314.224C384.909 314.709 385.015 315.228 385.121 315.761C384.697 317.079 384.206 319.299 384.869 321.184C385.114 321.874 385.493 322.462 386.01 322.953Z" fill="#424208"/>
<path d="M386.003 323.145C385.977 324.238 385.884 324.99 385.884 324.99L367.225 324.915C367.225 324.915 367.139 324.17 367.212 323.07L386.003 323.145Z" fill="#424208"/>
<path d="M376.809 310.922C376.736 310.922 376.663 310.908 376.59 310.874C376.119 310.655 371.967 308.647 371.649 306.563C371.582 306.147 371.636 305.532 372.246 304.965C372.823 304.425 373.387 304.432 373.758 304.535C375.642 305.054 377.048 309.357 377.313 310.211C377.38 310.416 377.313 310.641 377.161 310.785C377.061 310.881 376.935 310.922 376.809 310.922ZM373.367 305.573C373.261 305.573 373.135 305.614 372.962 305.771C372.684 306.031 372.677 306.242 372.697 306.393C372.829 307.274 374.408 308.435 375.854 309.262C375.204 307.588 374.256 305.805 373.486 305.594C373.446 305.58 373.407 305.573 373.367 305.573Z" fill="white"/>
<path d="M377.711 310.91C377.585 310.91 377.459 310.862 377.36 310.767C377.2 310.623 377.147 310.398 377.207 310.186C377.479 309.332 378.918 305.042 380.802 304.537C381.174 304.434 381.737 304.434 382.314 304.981C382.918 305.555 382.964 306.169 382.898 306.586C382.566 308.663 378.401 310.637 377.923 310.855C377.864 310.896 377.791 310.91 377.711 310.91ZM381.193 305.589C381.147 305.589 381.107 305.596 381.074 305.609C380.305 305.814 379.343 307.59 378.68 309.264C380.126 308.451 381.717 307.297 381.857 306.422C381.883 306.272 381.877 306.06 381.598 305.801C381.432 305.63 381.3 305.589 381.193 305.589Z" fill="white"/>
<path d="M377.248 309.285C377.248 309.285 376.379 308.861 376.306 310.084C376.246 311.081 376.936 311.293 377.215 311.129C377.215 311.129 377.805 311.313 378.104 310.828C378.402 310.343 378.216 308.8 377.248 309.285Z" fill="white"/>
<path d="M373.421 312.671C373.309 312.671 373.203 312.637 373.103 312.562C372.871 312.377 372.818 312.036 372.997 311.797C374.682 309.481 377.268 310 377.375 310.021C377.66 310.082 377.846 310.369 377.786 310.67C377.726 310.963 377.448 311.155 377.162 311.1C377.076 311.079 375.119 310.711 373.846 312.459C373.746 312.596 373.587 312.671 373.421 312.671Z" fill="white"/>
<path d="M381.572 313.2C381.373 313.2 381.174 313.077 381.088 312.879C380.233 310.926 377.228 310.441 377.195 310.434C376.903 310.386 376.704 310.113 376.75 309.812C376.797 309.512 377.062 309.307 377.354 309.355C377.5 309.375 380.969 309.942 382.063 312.435C382.183 312.708 382.063 313.036 381.798 313.159C381.718 313.187 381.645 313.2 381.572 313.2Z" fill="white"/>
<path d="M379.377 314.097C379.33 314.097 379.29 314.091 379.244 314.077C376.876 313.435 374.939 313.961 374.919 313.968C374.634 314.05 374.342 313.872 374.269 313.585C374.19 313.291 374.362 312.991 374.641 312.916C374.734 312.888 376.876 312.308 379.516 313.025C379.801 313.1 379.967 313.401 379.894 313.694C379.828 313.933 379.609 314.097 379.377 314.097Z" fill="white"/>
<path d="M378.568 315.831C378.522 315.831 378.482 315.824 378.435 315.81C376.081 315.175 374.131 315.694 374.111 315.701C373.826 315.783 373.534 315.605 373.461 315.312C373.381 315.018 373.554 314.717 373.832 314.642C373.925 314.615 376.067 314.034 378.707 314.752C378.993 314.827 379.158 315.127 379.085 315.421C379.026 315.667 378.807 315.831 378.568 315.831Z" fill="white"/>
<path d="M377.625 317.783C377.579 317.783 377.539 317.776 377.493 317.762C375.138 317.127 373.188 317.646 373.168 317.653C372.883 317.735 372.591 317.557 372.518 317.27C372.438 316.977 372.611 316.676 372.889 316.601C372.982 316.574 375.125 315.993 377.765 316.703C378.05 316.779 378.216 317.079 378.143 317.373C378.076 317.619 377.864 317.783 377.625 317.783Z" fill="white"/>
<path d="M373.056 177.009C373.016 177.207 372.439 180.233 370.748 183.28C369.746 185.076 368.36 186.887 366.47 188.13C364.878 189.175 363.107 189.701 361.176 189.701C361.15 189.407 361.13 189.127 361.104 188.847C362.908 188.854 364.553 188.376 366.025 187.413C367.717 186.299 368.983 184.673 369.919 183.034C371.643 180.001 372.24 176.9 372.247 176.852C372.287 176.62 372.505 176.47 372.731 176.511C372.95 176.558 373.096 176.777 373.056 177.009Z" fill="#453F3F"/>
<path d="M360.214 184.382L359.166 190.81C359.166 190.81 370.973 193.576 378.428 191.636C385.884 189.696 403.859 187.92 406.93 187.804L404.993 179.238C404.993 179.238 381.917 186.629 360.214 184.382Z" fill="white"/>
<path d="M385.764 103.895C385.764 103.895 390.188 94.7278 380.882 89.5911C374.375 85.9981 361.786 85.3013 357.913 93.4436C354.311 101.019 362.323 107.433 362.323 107.433C362.323 107.433 379.523 111.299 385.764 103.895Z" fill="#EF6931"/>
<path d="M370.628 93.1641C370.628 93.1641 362.563 94.2638 365.468 98.697C367.007 101.047 375.729 102.358 375.729 102.358C375.729 102.358 377.473 94.2502 370.628 93.1641Z" fill="#0C0B0B"/>
<path d="M404.065 176.984C404.065 176.984 374.177 187.189 361.336 181.984C361.336 181.984 357.31 180.679 355.718 172.537C355.665 172.271 355.618 171.997 355.572 171.717C354.902 167.694 354.822 162.12 355.983 154.449C357.376 145.241 355.512 140.528 354.743 131.347C354.716 131.026 354.69 130.698 354.663 130.364C354.584 129.373 354.504 128.328 354.431 127.215C353.609 115.097 349.881 109.906 355.758 106.333C361.634 102.761 369.329 100.035 369.329 100.035C369.329 100.035 375.862 102.201 380.478 100.076C380.478 100.076 387.476 103.642 392.862 105.684C398.241 107.727 396.417 122.392 398.089 130.821C399.76 139.251 402.612 145.965 405.16 159.948C407.481 172.728 404.065 176.984 404.065 176.984Z" fill="#EF6931"/>
<path d="M381.161 107.303C381.002 107.303 380.863 107.187 380.83 107.016C380.796 106.832 380.923 106.647 381.102 106.62C384.206 106.06 385.731 103.048 385.745 103.013C385.831 102.843 386.03 102.774 386.196 102.863C386.361 102.952 386.428 103.157 386.342 103.328C386.275 103.464 384.644 106.675 381.214 107.296C381.201 107.303 381.181 107.303 381.161 107.303Z" fill="#BB4000"/>
<path d="M370.635 124.578L371.239 131.675L390.972 130.139L389.745 123.52L370.635 124.578Z" fill="#BB4000"/>
<path d="M404.834 158.695C404.609 158.695 404.423 158.518 404.41 158.286C404.171 154.761 401.604 145.806 400.065 140.457C399.767 139.419 399.508 138.517 399.323 137.848C398.208 133.838 396.961 124.426 396.908 124.023C396.875 123.783 397.041 123.558 397.28 123.524C397.518 123.49 397.731 123.661 397.764 123.9C397.777 123.995 399.051 133.654 400.152 137.595C400.337 138.258 400.596 139.16 400.895 140.198C402.44 145.58 405.027 154.597 405.272 158.217C405.286 158.463 405.113 158.675 404.874 158.689C404.854 158.695 404.848 158.695 404.834 158.695Z" fill="#BB4000"/>
<path d="M405.591 172.715C405.591 172.715 406.851 176.745 405.04 179.436C405.04 179.436 378.19 188.917 360.222 184.375C360.222 184.375 358.61 182.36 358.172 178.234C358.166 178.241 379.782 183.863 405.591 172.715Z" fill="#BB4000"/>
<path d="M378.064 114.342C383.032 114.362 384.61 109.779 384.624 109.731C384.683 109.554 384.59 109.362 384.418 109.308C384.245 109.246 384.06 109.342 384.007 109.519C383.947 109.704 382.455 113.994 377.566 113.659C372.485 113.311 365.972 109.827 365.905 109.793C365.746 109.704 365.547 109.772 365.468 109.936C365.381 110.1 365.448 110.305 365.607 110.387C365.879 110.53 372.306 113.973 377.526 114.328C377.712 114.335 377.891 114.342 378.064 114.342Z" fill="#BB4000"/>
<path d="M397.816 155.757C397.816 155.757 401.63 163.517 400.343 169.549C400.343 169.549 386.01 176.4 369.109 172.834C369.109 172.834 369.5 165.273 368.857 158.36C368.864 158.36 387.403 155.546 397.816 155.757Z" fill="#BB4000"/>
<path d="M380.716 97.675L380.411 100.715C380.04 100.967 379.609 101.084 379.29 101.357C375.722 104.437 371.065 101.049 368.698 98.604L369.765 88.9453L379.41 96.6368L380.716 97.675Z" fill="#FFC2A9"/>
<path d="M380.717 97.6613L380.412 100.701C380.04 100.954 379.662 101.166 379.291 101.343C375.105 99.1095 372.399 94.0547 372.399 94.0547L379.404 96.6162L380.717 97.6613Z" fill="#0C0B0B"/>
<path d="M367.398 81.1078C367.398 81.1078 365.872 79.2772 365.527 77.1597C365.183 75.0421 367.292 73.6691 367.292 73.6691C367.292 73.6691 366.297 72.2005 367.491 70.3084C368.804 68.225 372.008 68.4368 372.008 68.4368C372.008 68.4368 371.311 66.6813 373.441 65.4859C375.57 64.2905 377.759 66.2236 377.759 66.2236C377.759 66.2236 378.495 64.1129 380.843 64.0036C383.191 63.8943 383.695 66.3056 383.695 66.3056C383.695 66.3056 388.676 64.1129 390.898 67.419C394.162 72.2688 387.078 74.9943 387.078 74.9943C375.855 71.0939 367.942 81.6953 367.942 81.6953L367.398 81.1078Z" fill="#EFAD1A"/>
<path d="M384.71 72.625C384.71 72.625 392.544 77.2494 387.284 83.3766C387.284 83.3766 384.345 74.6128 384.71 72.625Z" fill="#EFAD1A"/>
<path d="M385.745 84.5876C385.745 84.5876 387.622 82.7228 388.365 84.8677C389.108 87.0057 387.967 91.0563 385.486 90.1137L385.745 84.5876Z" fill="#F59876"/>
<path d="M386.819 91.9335C386.819 91.9335 386.203 98.2178 379.861 97.5348C373.56 96.8585 369.766 91.3051 369.567 91.0455C369.561 91.0387 369.561 91.0387 369.561 91.0387L369.62 89.7135L369.945 82.8213L370.118 79.1395C370.118 79.1395 369.972 72.459 376.174 71.8989C380.71 71.489 384.803 72.6913 386.667 75.3006C387.357 76.2637 387.741 77.4181 387.728 78.757L387.27 85.3555L387.158 86.9744L386.819 91.9335Z" fill="#FFC2A9"/>
<path d="M381.427 86.7655C381.347 86.7655 381.267 86.7108 381.234 86.6289C381.194 86.5196 381.254 86.4035 381.354 86.3625L383.244 85.6726L382.156 84.6616C382.116 84.6206 382.09 84.566 382.09 84.5113V80.3377C382.09 80.2216 382.183 80.1328 382.289 80.1328C382.402 80.1328 382.488 80.2284 382.488 80.3377V84.4225L383.755 85.6043C383.808 85.6521 383.834 85.7272 383.814 85.7955C383.801 85.8638 383.748 85.9253 383.682 85.9526L381.473 86.7518C381.473 86.7655 381.447 86.7655 381.427 86.7655Z" fill="#0C0B0B"/>
<path d="M380.326 91.2925C379.536 91.0807 379.019 90.6162 378.986 90.5821C378.88 90.4796 378.866 90.3088 378.966 90.1995C379.065 90.0903 379.225 90.0766 379.337 90.1791C379.344 90.1859 380.352 91.0875 381.626 90.787C381.765 90.7528 381.904 90.8416 381.938 90.9851C381.971 91.1285 381.884 91.272 381.745 91.3061C381.215 91.4427 380.73 91.4018 380.326 91.2925Z" fill="#F59876"/>
<path d="M381.42 89.902C379.337 89.7791 378.482 87.9962 378.468 87.9757C378.395 87.8255 378.462 87.641 378.608 87.5659C378.754 87.4907 378.933 87.5591 378.999 87.7093C379.039 87.7981 380.08 89.9225 382.813 89.1165C382.972 89.0687 383.131 89.1643 383.178 89.3282C383.224 89.4922 383.131 89.6561 382.972 89.7039C382.402 89.8815 381.884 89.9293 381.42 89.902Z" fill="#0C0B0B"/>
<path d="M380.995 79.481C381.592 78.757 381.115 77.8553 380.12 77.664C379.032 77.4523 376.797 77.2337 376.1 78.7911C375.172 80.8745 378.488 80.3417 379.888 80.089C380.379 80.0002 380.757 79.7679 380.995 79.481Z" fill="#EFAD1A"/>
<path d="M384.027 79.8559C383.662 79.0977 384.206 78.2507 385.035 78.1482C385.95 78.0321 387.788 78.0116 388.093 79.5964C388.497 81.7139 385.904 80.9147 384.816 80.5458C384.438 80.4161 384.173 80.1565 384.027 79.8559Z" fill="#EFAD1A"/>
<path d="M386.666 75.2778C386.6 75.4964 386.487 75.674 386.335 75.8106C384.968 77.0128 382.103 76.2341 379.489 75.0865C376.876 73.9458 374.78 75.7628 374.78 75.7628C375.264 78.5019 372.704 78.4541 373.042 80.5238C373.387 82.6004 372.91 85.2371 372.91 85.2371L371.344 84.8545C371.099 83.8709 370.382 82.7712 368.618 82.1769C366.734 82.334 367.02 78.3585 368.286 75.3256C368.286 75.3256 369.971 72.4294 376.173 71.8693C380.71 71.4662 384.802 72.6685 386.666 75.2778Z" fill="#EFAD1A"/>
<path d="M378.919 85.2984C378.873 85.756 377.924 86.0293 376.797 85.9131C375.669 85.797 374.794 85.3257 374.833 84.868C374.88 84.4104 375.828 84.1371 376.956 84.2533C378.084 84.3762 378.966 84.8407 378.919 85.2984Z" fill="#F59876"/>
<g opacity="0.8">
<g opacity="0.8">
<g opacity="0.8">
<g opacity="0.8">
<g opacity="0.8">
<g opacity="0.8">
<g opacity="0.8">
<g opacity="0.8">
<path opacity="0.8" d="M387.164 86.9834C387.005 86.9834 386.839 86.9766 386.666 86.9561C385.539 86.84 384.663 86.3687 384.71 85.911C384.756 85.4533 385.705 85.1801 386.832 85.2962C386.985 85.3099 387.131 85.3372 387.277 85.3645L387.164 86.9834Z" fill="#F59876"/>
</g>
</g>
</g>
</g>
</g>
</g>
</g>
</g>
<path d="M379.543 82.8094C379.483 83.4378 379.151 83.916 378.813 83.8818C378.475 83.8477 378.243 83.3081 378.309 82.6796C378.369 82.0512 378.7 81.573 379.039 81.6072C379.377 81.6413 379.602 82.181 379.543 82.8094Z" fill="#0C0B0B"/>
<path d="M385.572 83.4578C385.512 84.0863 385.181 84.5644 384.842 84.5303C384.504 84.4961 384.272 83.9565 384.338 83.3281C384.398 82.6996 384.73 82.2215 385.068 82.2556C385.413 82.2898 385.638 82.8294 385.572 83.4578Z" fill="#0C0B0B"/>
<path d="M371.802 88.7109C371.769 88.7792 370.774 90.6099 369.56 91.0471C369.554 91.0402 369.554 91.0402 369.554 91.0402L369.613 89.7151C369.62 89.7151 370.641 89.6468 371.802 88.7109Z" fill="#0C0B0B"/>
<path d="M371.119 84.233C371.119 84.233 369.016 80.599 366.967 83.0649C365.275 85.0937 367.491 91.0843 370.602 89.4381L371.119 84.233Z" fill="#FFC2A9"/>
<path d="M368.241 88.0799C368.208 88.401 368.433 88.6879 368.745 88.7152C369.057 88.7493 369.335 88.5171 369.362 88.196C369.395 87.875 369.17 87.5881 368.858 87.5608C368.546 87.5335 368.274 87.7657 368.241 88.0799Z" fill="white"/>
<path d="M370.37 88.3714C370.377 88.3714 370.39 88.3714 370.396 88.3714C370.536 88.3714 370.648 88.2553 370.648 88.1119C370.629 85.2088 368.387 83.9724 368.287 83.9178C368.161 83.8495 368.009 83.8973 367.949 84.0271C367.883 84.1569 367.929 84.314 368.055 84.3754C368.141 84.4233 370.124 85.5298 370.144 88.1119C370.144 88.2553 370.244 88.3646 370.37 88.3714Z" fill="#0C0B0B"/>
<path d="M368.188 86.5575C368.241 86.5643 368.3 86.5507 368.354 86.5165C368.592 86.3594 369.295 85.9769 369.72 86.1408C369.853 86.1886 369.999 86.1203 370.045 85.9837C370.091 85.8471 370.025 85.6968 369.892 85.649C369.156 85.3689 368.188 86.0042 368.075 86.0793C367.956 86.1613 367.929 86.3184 368.002 86.4414C368.042 86.5097 368.115 86.5507 368.188 86.5575Z" fill="#0C0B0B"/>
<path d="M391.064 83.9002L387.35 83.6406L387.297 84.1734H387.303L391.031 84.433C391.17 84.4398 391.296 84.3305 391.303 84.1871C391.316 84.0368 391.217 83.907 391.064 83.9002Z" fill="white"/>
<path d="M377.029 86.8038C374.721 86.5579 373.036 84.4267 373.275 82.0496C373.514 79.6725 375.583 77.9375 377.891 78.1834C380.2 78.4293 381.884 80.5605 381.646 82.9376C381.407 85.3147 379.337 87.0497 377.029 86.8038ZM377.832 78.6889C375.795 78.4771 373.971 80.0072 373.759 82.0974C373.553 84.1945 375.039 86.0729 377.069 86.2915C379.105 86.5033 380.929 84.9732 381.142 82.8829C381.354 80.7859 379.868 78.9074 377.832 78.6889Z" fill="white"/>
<path d="M386.912 87.839C384.604 87.5931 382.919 85.4619 383.158 83.0848C383.397 80.7076 385.466 78.9726 387.775 79.2185C390.083 79.4644 391.768 81.5956 391.529 83.9728C391.297 86.3499 389.221 88.0849 386.912 87.839ZM387.722 79.724C385.685 79.5123 383.861 81.0424 383.649 83.1326C383.443 85.2296 384.929 87.1081 386.959 87.3267C388.995 87.5384 390.819 86.0083 391.031 83.9181C391.244 81.8211 389.758 79.9426 387.722 79.724Z" fill="white"/>
<path d="M368.254 82.4316C368.228 82.4316 368.195 82.418 368.168 82.4043C368.042 82.3428 367.996 82.1857 368.055 82.0628C369.455 79.2075 373.693 81.1952 373.733 81.2157C373.859 81.2772 373.912 81.4275 373.853 81.5573C373.793 81.6871 373.647 81.7417 373.521 81.6802C373.481 81.6597 369.681 79.8837 368.493 82.295C368.453 82.3906 368.354 82.4453 368.254 82.4316Z" fill="white"/>
<path d="M383.502 82.4797C383.436 82.4729 383.376 82.4387 383.337 82.3841C382.72 81.5917 381.619 82.0904 381.605 82.0972C381.479 82.1518 381.333 82.0972 381.274 81.9674C381.214 81.8376 381.274 81.6873 381.4 81.6259C381.904 81.3936 383.038 81.1819 383.721 82.0562C383.808 82.1655 383.788 82.3294 383.682 82.4182C383.628 82.4729 383.562 82.4865 383.502 82.4797Z" fill="white"/>
<path d="M368.678 98.1758C368.678 98.1758 374.476 102.588 376.16 102.575C376.16 102.575 373.952 105.17 370.476 105.512C365.919 105.956 358.238 104.904 358.238 104.904C358.238 104.904 363.916 100.368 368.678 98.1758Z" fill="#EF6931"/>
<path d="M367.637 108.031C362.947 108.031 359.472 104.766 359.319 104.623C359.186 104.493 359.173 104.275 359.299 104.138C359.425 104.001 359.638 103.988 359.77 104.117C359.803 104.152 363.352 107.464 367.902 107.335C368.088 107.328 368.24 107.478 368.247 107.669C368.254 107.861 368.108 108.018 367.922 108.025C367.829 108.031 367.736 108.031 367.637 108.031Z" fill="#BB4000"/>
<path d="M380.731 98.3164C380.731 98.3164 379.583 101.732 376.167 102.572C376.167 102.572 376.917 105.782 380.379 105.291C383.835 104.799 385.772 102.763 385.772 102.763C385.772 102.763 383.457 98.3301 380.731 98.3164Z" fill="#EF6931"/>
<path d="M375.948 161.084C376.08 161.084 376.186 160.982 376.193 160.845C377.321 137.634 371.145 102.791 371.079 102.442C371.052 102.306 370.926 102.217 370.794 102.237C370.661 102.265 370.575 102.394 370.595 102.531C370.654 102.879 376.823 137.668 375.702 160.818C375.695 160.955 375.802 161.078 375.934 161.084C375.941 161.084 375.941 161.084 375.948 161.084Z" fill="white"/>
<path d="M391.012 159.588H391.018C391.151 159.581 391.257 159.472 391.257 159.329C390.541 131.295 381.4 102.654 381.308 102.367C381.268 102.237 381.129 102.162 380.996 102.21C380.87 102.251 380.797 102.394 380.843 102.531C380.936 102.818 390.05 131.384 390.766 159.342C390.773 159.479 390.886 159.588 391.012 159.588Z" fill="white"/>
<path d="M369.063 173.31C369.063 173.31 354.822 175.209 345.324 168.89C339.931 165.304 336.064 159.068 337.198 148.323C337.218 148.159 337.231 147.995 337.251 147.831C340.057 124.108 350.676 111.389 354.431 107.564C355.532 106.443 357.077 105.87 358.609 106.102C362.888 106.751 365.554 113.233 357.422 143.473C354.371 158.384 368.38 160.195 368.38 160.195L369.063 173.31Z" fill="#EF6931"/>
<path d="M357.005 146.871C356.958 146.871 356.912 146.858 356.865 146.844C356.633 146.755 356.52 146.496 356.6 146.257C356.666 146.079 362.974 128.408 363.439 118.954C363.452 118.701 363.657 118.517 363.903 118.524C364.148 118.537 364.334 118.749 364.321 119.002C363.85 128.599 357.495 146.393 357.429 146.571C357.369 146.769 357.19 146.885 357.005 146.871Z" fill="#BB4000"/>
<path d="M362.874 126.491C362.795 126.491 362.715 126.464 362.642 126.416C362.436 126.273 362.383 125.993 362.523 125.781L365.282 121.566C365.421 121.354 365.693 121.3 365.899 121.443C366.104 121.587 366.158 121.867 366.018 122.079L363.259 126.293C363.173 126.423 363.02 126.498 362.874 126.491Z" fill="#BB4000"/>
<path d="M366.025 174.147C365.852 174.14 365.693 174.03 365.627 173.853C364.154 169.864 364.957 158.798 364.99 158.327C365.01 158.074 365.222 157.889 365.468 157.903C365.713 157.924 365.892 158.142 365.879 158.395C365.872 158.511 365.057 169.727 366.463 173.525C366.549 173.764 366.436 174.024 366.204 174.112C366.144 174.14 366.085 174.153 366.025 174.147Z" fill="#BB4000"/>
<path d="M369.487 173.167C369.428 172.921 369.182 172.778 368.944 172.839C368.884 172.86 362.974 174.424 356.421 172.648C356.115 172.566 355.83 172.832 355.877 173.153V173.16C355.903 173.338 356.029 173.488 356.202 173.529C358.218 174.075 360.155 174.321 361.893 174.396C365.999 174.567 368.99 173.768 369.169 173.72C369.414 173.659 369.554 173.406 369.487 173.167Z" fill="#BB4000"/>
<path d="M365.621 158.833C365.442 158.827 365.256 158.813 365.064 158.793C363.167 158.588 360.44 157.618 358.205 154.148C358.072 153.936 358.126 153.656 358.331 153.512C358.537 153.376 358.809 153.43 358.948 153.642C362.842 159.694 368.32 157.556 368.373 157.536C368.599 157.44 368.858 157.556 368.95 157.795C369.043 158.027 368.931 158.294 368.698 158.389C368.639 158.41 367.385 158.909 365.621 158.833Z" fill="#BB4000"/>
<path d="M345.324 168.899C339.931 165.313 336.064 159.077 337.198 148.332C340.913 152.922 346.843 161.625 345.324 168.899Z" fill="#BB4000"/>
<path d="M437.965 142.921H424.302C423.638 142.921 423.094 142.368 423.094 141.678V127.606C423.094 126.923 423.632 126.363 424.302 126.363H437.965C438.629 126.363 439.173 126.917 439.173 127.606V141.678C439.173 142.368 438.629 142.921 437.965 142.921Z" fill="#777D15"/>
<path d="M428.686 139.09C428.64 139.09 428.6 139.083 428.554 139.077C428.335 139.036 428.149 138.892 428.049 138.694L426.603 135.853C426.418 135.491 426.557 135.047 426.909 134.855C427.26 134.664 427.691 134.807 427.877 135.169L428.892 137.178L435.697 130.962C435.996 130.688 436.447 130.716 436.712 131.023C436.977 131.331 436.951 131.795 436.652 132.068L429.164 138.913C429.031 139.029 428.859 139.09 428.686 139.09Z" fill="white"/>
<path d="M425.734 142.803L426.298 146.546C426.391 147.174 427.2 147.332 427.512 146.778L429.741 142.789L425.734 142.803Z" fill="#777D15"/>
<path d="M612.92 210.13H461.44C458.36 210.13 455.87 207.63 455.87 204.56V147.64C455.87 144.56 458.37 142.07 461.44 142.07H612.92C616 142.07 618.49 144.57 618.49 147.64V204.56C618.5 207.63 616 210.13 612.92 210.13Z" fill="#9A9FB2"/>
<path d="M609.05 206.369H457.57C454.49 206.369 452 203.869 452 200.799V143.879C452 140.799 454.5 138.309 457.57 138.309H609.05C612.13 138.309 614.62 140.809 614.62 143.879V200.799C614.62 203.869 612.13 206.369 609.05 206.369Z" fill="white"/>
<path d="M602.63 159.14H518.08C516.68 159.14 515.55 158.01 515.55 156.61V155.62C515.55 154.22 516.68 153.09 518.08 153.09H602.63C604.03 153.09 605.16 154.22 605.16 155.62V156.61C605.16 158.01 604.03 159.14 602.63 159.14Z" fill="#EF6931"/>
<path d="M553.14 172.02H517.58C516.46 172.02 515.55 171.11 515.55 169.99V169.19C515.55 168.07 516.46 167.16 517.58 167.16H553.14C554.26 167.16 555.17 168.07 555.17 169.19V169.99C555.17 171.11 554.26 172.02 553.14 172.02Z" fill="#C7CAD8"/>
<path d="M553.14 193.239H517.58C516.46 193.239 515.55 192.329 515.55 191.209V190.409C515.55 189.289 516.46 188.379 517.58 188.379H553.14C554.26 188.379 555.17 189.289 555.17 190.409V191.209C555.17 192.329 554.26 193.239 553.14 193.239Z" fill="#C7CAD8"/>
<path d="M553.14 182.532H517.58C516.46 182.532 515.55 181.622 515.55 180.502V179.702C515.55 178.582 516.46 177.672 517.58 177.672H553.14C554.26 177.672 555.17 178.582 555.17 179.702V180.502C555.17 181.622 554.26 182.532 553.14 182.532Z" fill="#C7CAD8"/>
<path d="M603.13 172.02H567.57C566.45 172.02 565.54 171.11 565.54 169.99V169.19C565.54 168.07 566.45 167.16 567.57 167.16H603.13C604.25 167.16 605.16 168.07 605.16 169.19V169.99C605.16 171.11 604.25 172.02 603.13 172.02Z" fill="#C7CAD8"/>
<path d="M603.13 193.239H567.57C566.45 193.239 565.54 192.329 565.54 191.209V190.409C565.54 189.289 566.45 188.379 567.57 188.379H603.13C604.25 188.379 605.16 189.289 605.16 190.409V191.209C605.16 192.329 604.25 193.239 603.13 193.239Z" fill="#C7CAD8"/>
<path d="M603.13 182.532H567.57C566.45 182.532 565.54 181.622 565.54 180.502V179.702C565.54 178.582 566.45 177.672 567.57 177.672H603.13C604.25 177.672 605.16 178.582 605.16 179.702V180.502C605.16 181.622 604.25 182.532 603.13 182.532Z" fill="#C7CAD8"/>
<path d="M484.21 194.16C472.17 194.16 462.38 184.37 462.38 172.33C462.38 160.29 472.17 150.5 484.21 150.5C496.25 150.5 506.04 160.29 506.04 172.33C506.04 184.37 496.24 194.16 484.21 194.16ZM484.21 153.48C473.82 153.48 465.36 161.94 465.36 172.33C465.36 182.72 473.82 191.18 484.21 191.18C494.6 191.18 503.06 182.72 503.06 172.33C503.05 161.94 494.6 153.48 484.21 153.48Z" fill="#EF6931"/>
<path d="M484.2 173.819C483.84 173.819 483.49 173.689 483.21 173.439C482.89 173.159 482.71 172.749 482.71 172.329V157.869C482.71 157.049 483.38 156.379 484.2 156.379C485.02 156.379 485.69 157.049 485.69 157.869V170.649L496.37 169.369C497.19 169.269 497.93 169.859 498.02 170.669C498.12 171.489 497.53 172.229 496.72 172.319L484.38 173.799C484.32 173.819 484.26 173.819 484.2 173.819Z" fill="#EF6931"/>
<path d="M612.92 125.83H461.44C458.36 125.83 455.87 123.33 455.87 120.26V63.3395C455.87 60.2595 458.37 57.7695 461.44 57.7695H612.92C616 57.7695 618.49 60.2695 618.49 63.3395V120.26C618.5 123.33 616 125.83 612.92 125.83Z" fill="#9A9FB2"/>
<path d="M609.05 122.07H457.57C454.49 122.07 452 119.57 452 116.5V59.57C452 56.49 454.5 54 457.57 54H609.05C612.13 54 614.62 56.5 614.62 59.57V116.49C614.62 119.57 612.13 122.07 609.05 122.07Z" fill="white"/>
<path d="M497.75 108.741H473.08C468.91 108.741 465.52 105.361 465.52 101.181V76.5109C465.52 72.3409 468.9 68.9609 473.08 68.9609H497.75C501.92 68.9609 505.31 72.3409 505.31 76.5109V101.181C505.31 105.351 501.92 108.741 497.75 108.741Z" fill="#777D15"/>
<path d="M478.54 99.8583C478.43 99.8583 478.31 99.8483 478.2 99.8283C477.62 99.7183 477.13 99.3583 476.86 98.8383L473.03 91.5083C472.54 90.5783 472.9 89.4283 473.84 88.9383C474.77 88.4483 475.92 88.8083 476.41 89.7483L479.11 94.9183L497.17 78.8883C497.96 78.1883 499.16 78.2583 499.86 79.0483C500.56 79.8383 500.49 81.0383 499.7 81.7383L479.81 99.3783C479.46 99.6883 479.01 99.8583 478.54 99.8583Z" fill="white"/>
<path d="M602.63 74.8391H518.08C516.68 74.8391 515.55 73.7091 515.55 72.3091V71.3191C515.55 69.9191 516.68 68.7891 518.08 68.7891H602.63C604.03 68.7891 605.16 69.9191 605.16 71.3191V72.3091C605.16 73.7091 604.03 74.8391 602.63 74.8391Z" fill="#777D15"/>
<path d="M553.14 87.7194H517.58C516.46 87.7194 515.55 86.8094 515.55 85.6894V84.8894C515.55 83.7694 516.46 82.8594 517.58 82.8594H553.14C554.26 82.8594 555.17 83.7694 555.17 84.8894V85.6894C555.17 86.8094 554.26 87.7194 553.14 87.7194Z" fill="#C7CAD8"/>
<path d="M553.14 108.938H517.58C516.46 108.938 515.55 108.028 515.55 106.908V106.108C515.55 104.988 516.46 104.078 517.58 104.078H553.14C554.26 104.078 555.17 104.988 555.17 106.108V106.908C555.17 108.028 554.26 108.938 553.14 108.938Z" fill="#C7CAD8"/>
<path d="M553.14 98.2311H517.58C516.46 98.2311 515.55 97.3211 515.55 96.2011V95.4011C515.55 94.2811 516.46 93.3711 517.58 93.3711H553.14C554.26 93.3711 555.17 94.2811 555.17 95.4011V96.2011C555.17 97.3211 554.26 98.2311 553.14 98.2311Z" fill="#C7CAD8"/>
<path d="M603.13 87.7194H567.57C566.45 87.7194 565.54 86.8094 565.54 85.6894V84.8894C565.54 83.7694 566.45 82.8594 567.57 82.8594H603.13C604.25 82.8594 605.16 83.7694 605.16 84.8894V85.6894C605.16 86.8094 604.25 87.7194 603.13 87.7194Z" fill="#C7CAD8"/>
<path d="M603.13 108.938H567.57C566.45 108.938 565.54 108.028 565.54 106.908V106.108C565.54 104.988 566.45 104.078 567.57 104.078H603.13C604.25 104.078 605.16 104.988 605.16 106.108V106.908C605.16 108.028 604.25 108.938 603.13 108.938Z" fill="#C7CAD8"/>
<path d="M603.13 98.2311H567.57C566.45 98.2311 565.54 97.3211 565.54 96.2011V95.4011C565.54 94.2811 566.45 93.3711 567.57 93.3711H603.13C604.25 93.3711 605.16 94.2811 605.16 95.4011V96.2011C605.16 97.3211 604.25 98.2311 603.13 98.2311Z" fill="#C7CAD8"/>
<path d="M612.92 296.412H461.44C458.36 296.412 455.87 293.912 455.87 290.842V233.922C455.87 230.842 458.37 228.352 461.44 228.352H612.92C616 228.352 618.49 230.852 618.49 233.922V290.842C618.5 293.922 616 296.412 612.92 296.412Z" fill="#9A9FB2"/>
<path d="M609.05 292.65H457.57C454.49 292.65 452 290.15 452 287.08V230.16C452 227.08 454.5 224.59 457.57 224.59H609.05C612.13 224.59 614.62 227.09 614.62 230.16V287.08C614.62 290.15 612.13 292.65 609.05 292.65Z" fill="white"/>
<path d="M497.14 259.288H467.07C466.12 259.288 465.35 258.518 465.35 257.568V256.888C465.35 255.938 466.12 255.168 467.07 255.168H497.13C498.08 255.168 498.85 255.938 498.85 256.888V257.568C498.86 258.518 498.09 259.288 497.14 259.288Z" fill="#C7CAD8"/>
<path d="M497.14 277.219H467.07C466.12 277.219 465.35 276.449 465.35 275.499V274.829C465.35 273.879 466.12 273.109 467.07 273.109H497.13C498.08 273.109 498.85 273.879 498.85 274.829V275.509C498.86 276.449 498.09 277.219 497.14 277.219Z" fill="#C7CAD8"/>
<path d="M497.14 268.167H467.07C466.12 268.167 465.35 267.397 465.35 266.447V265.767C465.35 264.817 466.12 264.047 467.07 264.047H497.13C498.08 264.047 498.85 264.817 498.85 265.767V266.447C498.86 267.397 498.09 268.167 497.14 268.167Z" fill="#C7CAD8"/>
<path d="M537.81 259.288H507.75C506.8 259.288 506.03 258.518 506.03 257.568V256.888C506.03 255.938 506.8 255.168 507.75 255.168H537.81C538.76 255.168 539.53 255.938 539.53 256.888V257.568C539.53 258.518 538.76 259.288 537.81 259.288Z" fill="#C7CAD8"/>
<path d="M537.81 277.219H507.75C506.8 277.219 506.03 276.449 506.03 275.499V274.829C506.03 273.879 506.8 273.109 507.75 273.109H537.81C538.76 273.109 539.53 273.879 539.53 274.829V275.509C539.53 276.449 538.76 277.219 537.81 277.219Z" fill="#C7CAD8"/>
<path d="M537.81 268.167H507.75C506.8 268.167 506.03 267.397 506.03 266.447V265.767C506.03 264.817 506.8 264.047 507.75 264.047H537.81C538.76 264.047 539.53 264.817 539.53 265.767V266.447C539.53 267.397 538.76 268.167 537.81 268.167Z" fill="#C7CAD8"/>
<path d="M548.77 262.829C548.74 264.049 549.06 265.189 549.63 266.169C549.91 266.639 550.2 267.109 550.46 267.589L555.02 275.809L558.01 270.419C558.8 268.989 559.66 267.599 560.5 266.189C561.06 265.249 561.38 264.149 561.38 262.969C561.38 259.349 558.32 256.429 554.64 256.679C551.42 256.899 548.84 259.599 548.77 262.829ZM552.41 262.229C552.41 260.759 553.6 259.569 555.07 259.569C556.54 259.569 557.73 260.759 557.73 262.229C557.73 263.699 556.54 264.889 555.07 264.889C553.6 264.889 552.41 263.699 552.41 262.229Z" fill="#EFAD1A"/>
<path d="M567.36 261.048C567.41 260.848 567.45 260.658 567.5 260.458C567.67 259.768 568 259.148 568.47 258.608C568.8 258.218 569.19 257.888 569.63 257.638C570.23 257.288 570.92 257.438 571.36 257.978C572.16 258.938 572.95 259.908 573.74 260.868C574.22 261.468 574.14 262.278 573.55 262.808C573.12 263.188 572.67 263.538 572.23 263.908C572.17 263.958 572.11 263.988 572.06 264.018C573.12 266.858 574.91 269.048 577.48 270.628C577.79 270.368 578.12 270.098 578.44 269.828C578.61 269.688 578.77 269.548 578.95 269.418C579.47 269.018 580.07 268.988 580.6 269.338C580.77 269.448 580.91 269.618 581.04 269.768C581.76 270.638 582.47 271.518 583.19 272.378C583.42 272.648 583.56 272.958 583.61 273.308C583.6 273.438 583.58 273.568 583.57 273.698C583.44 273.918 583.36 274.168 583.19 274.348C582.77 274.768 582.3 275.138 581.75 275.388C581.1 275.678 580.43 275.858 579.72 275.798C579.25 275.758 578.79 275.658 578.33 275.528C577.17 275.208 576.11 274.648 575.11 273.978C574.12 273.308 573.22 272.538 572.4 271.678C571.28 270.518 570.3 269.258 569.4 267.928C568.69 266.878 568.08 265.778 567.68 264.568C567.48 263.958 567.35 263.338 567.3 262.698C567.28 262.438 567.28 262.178 567.27 261.928C567.3 261.638 567.33 261.338 567.36 261.048Z" fill="#EF6931"/>
<path d="M586.74 266.25C586.74 271.53 591.03 275.82 596.31 275.82C601.59 275.82 605.88 271.53 605.88 266.25C605.88 260.97 601.59 256.68 596.31 256.68C591.04 256.68 586.74 260.97 586.74 266.25ZM592.11 269.78C591.8 268.74 591.63 267.61 591.6 266.43H595.93V269.78H592.11ZM594.37 274.83C591.94 274.28 589.87 272.74 588.64 270.55H591.55C591.95 271.68 592.51 272.71 593.21 273.6C593.57 274.05 593.96 274.46 594.37 274.83ZM595.93 270.55V275.04C595.64 274.87 594.72 274.27 593.81 273.1C593.22 272.35 592.74 271.49 592.38 270.55H595.93ZM592.58 261.53C593.6 259.27 595.1 257.88 595.58 257.47C595.69 257.46 595.81 257.45 595.92 257.45V261.53H592.58ZM588.88 261.53C590.11 259.6 592.04 258.22 594.24 257.69C593.81 258.15 593.4 258.65 593.03 259.18C592.52 259.92 592.08 260.71 591.74 261.53H588.88ZM591.61 265.66C591.65 264.51 591.88 263.39 592.27 262.31H595.93V265.66H591.61ZM587.53 265.66C587.61 264.49 587.92 263.36 588.44 262.31H591.45C591.08 263.4 590.87 264.52 590.83 265.66H587.53ZM590.83 266.43C590.86 267.61 591.02 268.73 591.31 269.78H588.25C587.78 268.72 587.53 267.59 587.51 266.43H590.83ZM601.7 266.43H605.11C605.09 267.6 604.84 268.72 604.37 269.78H601.22C601.52 268.73 601.68 267.6 601.7 266.43ZM596.7 261.53V257.45C596.78 257.45 596.86 257.46 596.94 257.46C597.27 257.74 598.08 258.47 598.88 259.63C599.29 260.23 599.65 260.86 599.95 261.52H596.7V261.53ZM600.26 262.3C600.65 263.38 600.88 264.51 600.92 265.65H596.69V262.3H600.26ZM600.79 261.53C600.45 260.71 600.01 259.92 599.5 259.18C599.12 258.64 598.71 258.13 598.26 257.66C600.51 258.17 602.48 259.57 603.73 261.53H600.79ZM600.93 266.43C600.9 267.62 600.73 268.75 600.42 269.78H596.69V266.43H600.93ZM601.7 265.66C601.66 264.52 601.45 263.39 601.08 262.31H604.18C604.71 263.36 605.02 264.49 605.09 265.66H601.7ZM603.98 270.55C602.74 272.75 600.58 274.33 598.13 274.85C598.55 274.48 598.95 274.06 599.31 273.59C600.01 272.7 600.57 271.67 600.97 270.54H603.98V270.55ZM600.16 270.55C599.1 273.31 597.28 274.62 596.7 274.98V270.55H600.16Z" fill="#777D15"/>
<path d="M476.19 240.002C476.19 244.202 473.5 246.652 469.54 246.652C468.12 246.652 466.73 246.312 465.82 245.712L467.28 242.882C467.98 243.382 468.7 243.512 469.46 243.512C470.83 243.512 471.79 242.812 472.07 241.472C471.47 241.902 470.7 242.142 469.69 242.142C467.5 242.142 465.58 240.652 465.58 238.302C465.58 235.732 467.74 234.102 470.45 234.102C473.86 234.102 476.19 236.082 476.19 240.002ZM471.94 238.112C471.94 237.362 471.43 236.892 470.71 236.892C469.99 236.892 469.48 237.352 469.48 238.112C469.48 238.862 469.99 239.342 470.71 239.342C471.42 239.352 471.94 238.872 471.94 238.112Z" fill="#453F3F"/>
<path d="M477.03 239.022C477.03 237.702 478.01 236.832 479.29 236.832C480.58 236.832 481.55 237.702 481.55 239.022C481.55 240.322 480.57 241.252 479.29 241.252C478 241.252 477.03 240.332 477.03 239.022ZM477.03 244.322C477.03 243.002 478.01 242.132 479.29 242.132C480.58 242.132 481.55 243.002 481.55 244.322C481.55 245.622 480.57 246.552 479.29 246.552C478 246.552 477.03 245.622 477.03 244.322Z" fill="#453F3F"/>
<path d="M492 242.541C492 244.601 490.35 246.651 486.52 246.651C484.87 246.651 483.08 246.291 481.79 245.571L483.16 242.591C484.19 243.191 485.37 243.461 486.38 243.461C487.29 243.461 487.94 243.151 487.94 242.531C487.94 242.021 487.55 241.711 486.52 241.711H484.93V239.221L486.7 237.421H482.42V234.371H491.37V236.861L489.13 239.131C491.01 239.591 492 240.871 492 242.541Z" fill="#453F3F"/>
<path d="M492.91 240.383C492.91 236.403 495.17 234.113 498.34 234.113C501.51 234.113 503.77 236.413 503.77 240.383C503.77 244.363 501.51 246.653 498.34 246.653C495.17 246.653 492.91 244.353 492.91 240.383ZM499.72 240.383C499.72 238.073 499.14 237.353 498.35 237.353C497.56 237.353 496.98 238.073 496.98 240.383C496.98 242.693 497.56 243.413 498.35 243.413C499.13 243.413 499.72 242.693 499.72 240.383Z" fill="#453F3F"/>
<path d="M519.54 241.342V246.382H515.94V245.152C515.49 246.092 514.6 246.562 513.28 246.562C510.98 246.562 509.8 245.262 509.8 243.652C509.8 241.832 511.17 240.822 514.08 240.822H515.64C515.52 240.102 514.97 239.722 513.87 239.722C513.03 239.722 512.09 239.992 511.47 240.462L510.24 237.912C511.34 237.222 513 236.852 514.46 236.852C517.69 236.832 519.54 238.222 519.54 241.342ZM515.67 243.322V242.672H514.71C513.89 242.672 513.53 242.942 513.53 243.462C513.53 243.892 513.87 244.212 514.46 244.212C514.99 244.222 515.47 243.942 515.67 243.322Z" fill="#453F3F"/>
<path d="M537.37 241.032V246.382H533.5V241.702C533.5 240.532 533.07 240.092 532.45 240.092C531.76 240.092 531.23 240.552 531.23 241.802V246.382H527.36V241.702C527.36 240.532 526.97 240.092 526.31 240.092C525.62 240.092 525.09 240.552 525.09 241.802V246.382H521.22V237.012H524.9V237.882C525.6 237.182 526.53 236.832 527.56 236.832C528.78 236.832 529.84 237.282 530.49 238.252C531.24 237.342 532.34 236.832 533.63 236.832C535.76 236.832 537.37 238.082 537.37 241.032Z" fill="#453F3F"/>
<path d="M603.82 244.289H550.82C549.69 244.289 548.77 243.369 548.77 242.239V241.429C548.77 240.299 549.69 239.379 550.82 239.379H603.82C604.95 239.379 605.87 240.299 605.87 241.429V242.239C605.88 243.369 604.96 244.289 603.82 244.289Z" fill="#EFAD1A"/>
</svg>
