<svg width="690" height="350" viewBox="0 0 690 350" fill="none" xmlns="http://www.w3.org/2000/svg">
<g clip-path="url(#clip0_2275_14313)">
<path d="M344.86 350.003C445.458 350.003 527.009 345.242 527.009 339.369C527.009 333.496 445.458 328.734 344.86 328.734C244.262 328.734 162.711 333.496 162.711 339.369C162.711 345.242 244.262 350.003 344.86 350.003Z" fill="#F5F5F5"/>
<path d="M579.723 307.578H110V307.813H579.723V307.578Z" fill="#EBEBEB"/>
<path d="M236.958 322.688H205.844V322.922H236.958V322.688Z" fill="#EBEBEB"/>
<path d="M311.686 315.578H270.773V315.813H311.686V315.578Z" fill="#EBEBEB"/>
<path d="M204.901 313.969H159.281V314.204H204.901V313.969Z" fill="#EBEBEB"/>
<path d="M374.831 317.148H342.617V317.383H374.831V317.148Z" fill="#EBEBEB"/>
<path d="M428.816 317.148H383.188V317.383H428.816V317.148Z" fill="#EBEBEB"/>
<path d="M504.851 321.109H416.844V321.344H504.851V321.109Z" fill="#EBEBEB"/>
<path d="M332.651 265.675H151.253C148.294 265.666 145.898 263.27 145.898 260.311V5.31726C145.927 2.3768 148.313 0.00939446 151.253 0H332.651C335.61 0 338.015 2.40498 338.015 5.36424V260.311C338.015 263.27 335.61 265.675 332.651 265.675ZM151.253 0.187889C148.426 0.197284 146.133 2.48953 146.133 5.31726V260.311C146.133 263.139 148.426 265.431 151.253 265.44H332.651C335.479 265.431 337.771 263.139 337.78 260.311V5.31726C337.771 2.48953 335.479 0.197284 332.651 0.187889H151.253Z" fill="#EBEBEB"/>
<path d="M535.857 265.675H354.45C351.491 265.666 349.095 263.27 349.086 260.311V5.31726C349.114 2.3768 351.51 0.00939446 354.45 0H535.857C538.798 0.00939446 541.174 2.3768 541.203 5.31726V260.311C541.203 263.27 538.816 265.666 535.857 265.675ZM354.45 0.187889C351.622 0.197284 349.33 2.48953 349.321 5.31726V260.311C349.33 263.139 351.622 265.431 354.45 265.44H535.857C538.685 265.431 540.977 263.139 540.987 260.311V5.31726C540.977 2.48953 538.685 0.197284 535.857 0.187889H354.45Z" fill="#EBEBEB"/>
<path d="M316.701 93.2344H224.852V307.578H316.701V93.2344Z" fill="#E0E0E0"/>
<path d="M302.795 93.2344H210.945V307.578H302.795V93.2344Z" fill="#F0F0F0"/>
<path d="M294.584 256.422H219.852V295.221H294.584V256.422Z" fill="#E0E0E0"/>
<path d="M294.584 205.539H219.852V244.348H294.584V205.539Z" fill="#E0E0E0"/>
<path d="M294.584 154.656H219.852V193.465H294.584V154.656Z" fill="#E0E0E0"/>
<path d="M294.584 103.773H219.852V142.582H294.584V103.773Z" fill="#E0E0E0"/>
<path opacity="0.05" d="M235.465 103.773H219.852V142.582H235.465V103.773Z" fill="black"/>
<path opacity="0.05" d="M235.465 154.656H219.852V193.465H235.465V154.656Z" fill="black"/>
<path opacity="0.05" d="M235.465 205.539H219.852V244.348H235.465V205.539Z" fill="black"/>
<path opacity="0.05" d="M235.465 256.422H219.852V295.221H235.465V256.422Z" fill="black"/>
<path d="M231.987 22.3281H166.367V87.9484H231.987V22.3281Z" fill="#E0E0E0"/>
<path d="M228.55 22.3281H162.93V87.9484H228.55V22.3281Z" fill="#EBEBEB"/>
<path d="M221.008 29.8828H170.484V80.4062H221.008V29.8828Z" fill="#F5F5F5"/>
<path d="M172.157 29.8828H170.484V80.4062H172.157V29.8828Z" fill="#E0E0E0"/>
<path d="M203.377 62.301C207.338 58.441 207.42 52.1007 203.56 48.1395C199.7 44.1783 193.36 44.0962 189.399 47.9562C185.438 51.8162 185.356 58.1565 189.216 62.1177C193.076 66.0789 199.416 66.1609 203.377 62.301Z" fill="#FAFAFA"/>
<path d="M162.763 291.688C162.763 291.688 157.577 287.217 154.007 277.014C150.428 266.802 142.133 255.097 142.133 255.097C142.133 255.097 152.983 260.198 156.807 269.987C156.807 269.987 152.129 250.202 142.133 242.969C142.133 242.969 160.001 248.709 164.473 267.328C164.473 267.328 167.451 252.542 162.556 237.867C162.556 237.867 171.707 249.357 172.768 263.608C172.768 263.608 174.046 238.929 182.125 231.695C182.125 231.695 179.57 254.035 182.125 265.309C182.125 265.309 185.742 245.524 201.91 242.762C201.91 242.762 191.482 255.313 191.914 266.38C191.914 266.38 196.809 254.251 211.699 252.551C211.699 252.551 200.209 260.64 199.148 273.82C198.086 287.01 198.086 291.05 191.059 292.966C184.032 294.882 162.763 291.688 162.763 291.688Z" fill="#F5F5F5"/>
<path d="M151.539 279.617V305.349C151.539 305.349 154.846 314.555 176.087 315.739C197.328 316.923 202.288 305.593 202.288 305.593V279.627H151.539V279.617Z" fill="#E6E6E6"/>
<path d="M528.619 206.945H395.547V308.359H528.619V206.945Z" fill="#E0E0E0"/>
<path d="M495.479 206.945H362.406V308.359H495.479V206.945Z" fill="#EBEBEB"/>
<path d="M488.86 216.328H367.164V253.897H488.86V216.328Z" stroke="#E0E0E0" stroke-miterlimit="10"/>
<path d="M488.86 260.156H367.164V297.725H488.86V260.156Z" stroke="#E0E0E0" stroke-miterlimit="10"/>
<path d="M428.012 238.516C429.895 238.516 431.422 236.989 431.422 235.105C431.422 233.222 429.895 231.695 428.012 231.695C426.128 231.695 424.602 233.222 424.602 235.105C424.602 236.989 426.128 238.516 428.012 238.516Z" fill="#E0E0E0"/>
<path d="M428.012 285.211C429.895 285.211 431.422 283.684 431.422 281.801C431.422 279.917 429.895 278.391 428.012 278.391C426.128 278.391 424.602 279.917 424.602 281.801C424.602 283.684 426.128 285.211 428.012 285.211Z" fill="#E0E0E0"/>
<path d="M533.567 201.531H356.547V206.942H533.567V201.531Z" fill="#E0E0E0"/>
<path opacity="0.05" d="M533.567 201.531H500.508V206.942H533.567V201.531Z" fill="black"/>
<path d="M531.654 50.2812H384.273V133.61H531.654V50.2812Z" fill="#E0E0E0"/>
<path d="M527.802 50.2812H380.422V133.61H527.802V50.2812Z" fill="#F0F0F0"/>
<path d="M521.602 56.5781H386.172V127.722H521.602V56.5781Z" fill="#F5F5F5"/>
<path d="M387.647 56.5781H386.172V127.722H387.647V56.5781Z" fill="#E0E0E0"/>
<path d="M514.413 79.109L497.289 72.6797L492.035 86.6727L509.159 93.102L514.413 79.109Z" fill="#FAFAFA"/>
<path d="M498.578 76.1949C498.936 76.1949 499.226 75.9047 499.226 75.5467C499.226 75.1887 498.936 74.8984 498.578 74.8984C498.22 74.8984 497.93 75.1887 497.93 75.5467C497.93 75.9047 498.22 76.1949 498.578 76.1949Z" fill="#E6E6E6"/>
<path d="M432.046 97.4531L468.477 101.117L466.251 115.603L431.172 111.404L432.046 97.4531Z" fill="#FAFAFA"/>
<path d="M466.57 103.773C466.57 104.13 466.279 104.421 465.922 104.421C465.565 104.421 465.273 104.13 465.273 103.773C465.273 103.416 465.565 103.125 465.922 103.125C466.279 103.125 466.57 103.416 466.57 103.773Z" fill="#E6E6E6"/>
<path d="M451.961 201.531L460.012 160.383H497.712L489.877 201.531H451.961Z" fill="#EBEBEB"/>
<path d="M457.703 196.372L463.734 165.539H491.974L486.112 196.372H457.703Z" fill="#FAFAFA"/>
<path d="M465.2 165.539L459.347 196.372H457.703L463.734 165.539H465.2Z" fill="#E6E6E6"/>
<path d="M497.71 160.383H499.269L491.97 201.531H489.875L497.71 160.383Z" fill="#E6E6E6"/>
<path d="M496.6 175.398L501.946 201.534H491.969L496.6 175.398Z" fill="#E0E0E0"/>
<path d="M414.568 42.5391V155.075C414.568 162.769 408.339 168.998 400.654 168.998H389.484V42.5391H414.568Z" fill="#5A72EB"/>
<path opacity="0.8" d="M414.568 42.5391V155.075C414.568 162.769 408.339 168.998 400.654 168.998H389.484V42.5391H414.568Z" fill="white"/>
<path d="M414.568 33.9929V155.078C414.568 162.772 408.34 169.001 400.655 169.001H204.001C197.763 169.001 192.483 164.905 190.717 159.249C190.304 157.934 190.078 156.525 190.078 155.078V33.9929C190.078 32.5368 190.304 31.137 190.717 29.8124C192.493 24.1663 197.763 20.0703 204.001 20.0703H400.655C406.883 20.0703 412.154 24.1663 413.929 29.8124C414.343 31.137 414.568 32.5368 414.568 33.9929Z" fill="white" stroke="#5A72EB" stroke-miterlimit="10"/>
<path d="M413.931 29.8124H190.719C192.494 24.1663 197.765 20.0703 204.003 20.0703H400.657C406.885 20.0703 412.156 24.1663 413.931 29.8124Z" fill="#5A72EB"/>
<path d="M218.449 26.9222C219.539 26.9222 220.422 26.039 220.422 24.9494C220.422 23.8598 219.539 22.9766 218.449 22.9766C217.36 22.9766 216.477 23.8598 216.477 24.9494C216.477 26.039 217.36 26.9222 218.449 26.9222Z" fill="white"/>
<path d="M225.496 26.9222C226.586 26.9222 227.469 26.039 227.469 24.9494C227.469 23.8598 226.586 22.9766 225.496 22.9766C224.407 22.9766 223.523 23.8598 223.523 24.9494C223.523 26.039 224.407 26.9222 225.496 26.9222Z" fill="white"/>
<path d="M234.508 24.9495C234.508 26.0392 233.625 26.9223 232.535 26.9223C231.446 26.9223 230.562 26.0392 230.562 24.9495C230.562 23.8597 231.446 22.9766 232.535 22.9766C233.625 22.9672 234.508 23.8503 234.508 24.9495Z" fill="white"/>
<path d="M414.568 33.993V42.542H190.078V33.993C190.078 32.5369 190.304 31.1371 190.717 29.8125H413.929C414.343 31.1371 414.568 32.5369 414.568 33.993Z" fill="#5A72EB"/>
<path opacity="0.5" d="M414.568 33.993V42.542H190.078V33.993C190.078 32.5369 190.304 31.1371 190.717 29.8125H413.929C414.343 31.1371 414.568 32.5369 414.568 33.993Z" fill="white"/>
<path d="M216.486 42.5391V168.998H203.691C197.302 168.998 191.891 164.902 190.078 159.246V42.5391H216.486Z" fill="#5A72EB"/>
<path opacity="0.1" d="M216.486 42.5391V168.998H203.691C197.302 168.998 191.891 164.902 190.078 159.246V42.5391H216.486Z" fill="black"/>
<path opacity="0.1" d="M380.679 51.5078H225.492V156.247H380.679V51.5078Z" fill="#5A72EB"/>
<path opacity="0.2" d="M200.795 56.7812H194.125V63.4513H200.795V56.7812Z" fill="black"/>
<path opacity="0.2" d="M210.897 56.7812H204.227V63.4513H210.897V56.7812Z" fill="black"/>
<path d="M318.617 103.456C324.291 96.0912 328.02 86.4243 327.241 76.9829C326.508 68.1239 319.368 62.7127 310.688 64.8359C307.024 65.7283 303.67 67.5696 300.288 69.2419C294.67 72.0226 288.714 74.4652 282.448 75.2355C276.125 76.0059 269.963 75.2355 263.847 77.6311C253.203 81.7835 250.244 95.3866 254.358 105.251C258.004 114.006 266.675 120.77 275.919 122.649" stroke="#263238" stroke-miterlimit="10" stroke-linecap="round" stroke-linejoin="round"/>
<path opacity="0.2" d="M200.795 67.3594H194.125V74.0294H200.795V67.3594Z" fill="black"/>
<path opacity="0.2" d="M210.897 67.3594H204.227V74.0294H210.897V67.3594Z" fill="black"/>
<path opacity="0.2" d="M200.795 77.9375H194.125V84.6076H200.795V77.9375Z" fill="black"/>
<path opacity="0.2" d="M210.897 77.9375H204.227V84.6076H210.897V77.9375Z" fill="black"/>
<path opacity="0.2" d="M200.795 88.5156H194.125V95.1857H200.795V88.5156Z" fill="black"/>
<path opacity="0.2" d="M210.897 88.5156H204.227V95.1857H210.897V88.5156Z" fill="black"/>
<path opacity="0.2" d="M200.795 99.0859H194.125V105.756H200.795V99.0859Z" fill="black"/>
<path opacity="0.2" d="M210.897 99.0859H204.227V105.756H210.897V99.0859Z" fill="black"/>
<path opacity="0.2" d="M200.795 109.664H194.125V116.334H200.795V109.664Z" fill="black"/>
<path opacity="0.2" d="M210.897 109.664H204.227V116.334H210.897V109.664Z" fill="black"/>
<path d="M200.584 119.941C200.584 120.354 200.246 120.702 199.823 120.702C199.401 120.702 199.062 120.363 199.062 119.941C199.062 119.518 199.401 119.18 199.823 119.18C200.246 119.18 200.584 119.518 200.584 119.941Z" fill="#263238"/>
<path d="M203.319 119.941C203.319 120.354 202.981 120.702 202.558 120.702C202.135 120.702 201.797 120.363 201.797 119.941C201.797 119.518 202.135 119.18 202.558 119.18C202.981 119.18 203.319 119.518 203.319 119.941Z" fill="#263238"/>
<path d="M206.045 119.941C206.045 120.354 205.707 120.702 205.284 120.702C204.862 120.702 204.523 120.363 204.523 119.941C204.523 119.518 204.862 119.18 205.284 119.18C205.707 119.18 206.045 119.518 206.045 119.941Z" fill="#263238"/>
<path d="M298.923 112.815L297.73 113.651L297.016 108.438L301.365 111.087L300.285 111.82L301.966 114.3L300.632 115.389L298.923 112.815Z" fill="#263238"/>
<path d="M390.049 170.124C390.049 170.124 385.268 193.253 382.008 199.171C378.748 205.09 360.194 204.817 360.194 204.817L338.68 203.737C338.68 203.737 334.584 190.331 352.133 197.283C352.133 197.283 366.93 194.436 372.576 189.805L378.494 165.539L390.049 170.124Z" fill="#FF8B7B"/>
<path d="M454.07 342.549H448.33L432.754 257.821L432.219 254.899L437.762 253.875L438.485 257.821L454.07 342.549Z" fill="#4C4E03"/>
<path opacity="0.5" d="M454.07 342.549H448.33L432.754 257.821L432.219 254.899L437.762 253.875L438.485 257.821L454.07 342.549Z" fill="white"/>
<path d="M429.317 342.546H423.653L415.874 257.818L415.047 248.799L414.859 246.798L420.468 246.281L420.703 248.799L421.529 257.818L429.317 342.546Z" fill="#4C4E03"/>
<path opacity="0.5" d="M429.317 342.546H423.653L415.874 257.818L415.047 248.799L414.859 246.798L420.468 246.281L420.703 248.799L421.529 257.818L429.317 342.546Z" fill="white"/>
<path d="M371.389 249.868L370.788 257.816L364.343 342.544H358.688L365.123 257.816L365.762 249.445L371.389 249.868Z" fill="#4C4E03"/>
<path opacity="0.5" d="M371.389 249.868L370.788 257.816L364.343 342.544H358.688L365.123 257.816L365.762 249.445L371.389 249.868Z" fill="white"/>
<path d="M355.051 250.124L353.783 257.818L339.813 342.547H334.102L348.081 257.818L349.499 249.203L355.051 250.124Z" fill="#4C4E03"/>
<path opacity="0.5" d="M355.051 250.124L353.783 257.818L339.813 342.547H334.102L348.081 257.818L349.499 249.203L355.051 250.124Z" fill="white"/>
<path d="M447.185 247.475L446.668 248.8L444.198 255.047C443.55 256.719 441.934 257.818 440.13 257.818H347.059C345.208 257.818 343.555 256.663 342.935 254.915L340.746 248.8L340.229 247.343C339.205 244.497 341.328 241.5 344.353 241.5H443.117C446.208 241.5 448.331 244.61 447.185 247.475Z" fill="#4C4E03"/>
<path opacity="0.3" d="M446.665 248.797L444.194 255.044C443.546 256.716 441.93 257.816 440.126 257.816H347.055C345.205 257.816 343.551 256.66 342.931 254.913L340.742 248.797H446.665Z" fill="black"/>
<path d="M352.416 302.819L356.813 292.832C357.339 291.63 358.682 291 359.941 291.357L366.884 293.34C368.425 293.781 369.223 295.491 368.565 296.947C366.658 301.193 363.117 309.103 362.027 311.931C360.496 315.867 359.209 320.612 357.161 321.946C357.029 322.03 356.897 322.096 356.775 322.162C354.934 323.026 352.886 321.297 353.224 319.296C353.769 315.99 354.37 309.808 352.369 304.82C352.106 304.181 352.134 303.457 352.416 302.819Z" fill="#263238"/>
<path d="M390.383 207.896C390.383 207.896 342.894 201.405 328.549 214.904C328.549 214.904 319.662 227.033 323.936 250.772C328.211 274.512 341.701 291.253 341.701 291.253L354.167 280.666C354.167 280.666 343.063 253.337 346.821 236.427L364.069 235.403L388.805 218.493L391.407 211.485L390.383 207.896Z" fill="#263238"/>
<path d="M342.846 295.999L338.195 290.352L355.237 276.336L358.459 279.69L342.846 295.999Z" fill="#FFC305"/>
<path d="M437.063 207.377C437.063 207.377 438.387 220.905 434.094 230.807C429.801 240.709 414.629 244.335 404.398 243.677C394.168 243.02 380.968 242.174 375.36 243.752C375.36 243.752 368.098 284.928 355.556 314.953L340.375 313.638C340.375 313.638 348.623 255.561 349.948 242.024C351.263 228.496 350.606 226.514 358.854 219.909C367.102 213.314 409.34 204.408 437.063 207.377Z" fill="#263238"/>
<path d="M351.686 320.392L350.248 326.677L338.195 330.895L341.699 317.508L351.686 320.392Z" fill="#FF8B7B"/>
<path d="M338.037 330.5L348.267 326.705C349.498 326.245 350.879 326.771 351.508 327.926L354.928 334.296C355.689 335.714 355.013 337.471 353.509 338.016C349.132 339.604 340.996 342.572 338.206 343.756C334.317 345.4 330.014 347.786 327.637 347.232C327.487 347.194 327.346 347.157 327.214 347.1C325.307 346.377 325.129 343.709 326.801 342.554C329.554 340.646 334.401 336.767 336.59 331.863C336.853 331.224 337.389 330.735 338.037 330.5Z" fill="#263238"/>
<path d="M390.05 211.009C390.05 211.009 383.859 170.124 382.516 160.175C381.172 150.227 382.516 145.116 386.283 141.884C390.05 138.653 407.261 131.663 418.825 133.542C430.39 135.421 436.036 145.107 437.652 156.136L434.965 157.479C434.965 157.479 438.403 195.583 437.154 208.764L390.05 211.009Z" fill="#FFC305"/>
<path d="M386.281 141.883C386.281 141.883 377.141 149.953 377.141 165.557L391.392 170.94L386.281 141.883Z" fill="#FFC305"/>
<path d="M435.16 157.281C435.16 157.281 440.337 175.582 438.937 183.144C437.547 190.707 424.61 200.853 406.704 204.235C406.704 204.235 398.747 205.625 394.172 201.849L387.211 199.857L389.203 193.685C389.203 193.685 396.568 193.487 404.525 197.264C404.525 197.264 421.632 189.504 427.006 183.539C427.006 183.539 426.405 171.401 423.427 162.843L435.16 157.281Z" fill="#FF8B7B"/>
<path d="M357.665 314.959L337.683 311.953L336.969 318.238L355.091 321.949L357.665 314.959Z" fill="#FFC305"/>
<path d="M376.266 116.658C375.025 120.228 375.185 124.258 376.698 127.716C375.984 124.925 376.115 121.929 377.073 119.214C377.975 116.64 379.572 114.375 380.775 111.933C381.977 109.49 382.785 106.653 381.987 104.042C381.827 103.525 381.442 102.924 380.906 103.018C380.484 103.083 380.258 103.544 380.108 103.948C379.695 105.019 379.084 106.155 378.924 107.292C378.802 108.185 378.962 109.068 378.793 109.979C378.351 112.327 377.045 114.413 376.266 116.658Z" fill="#263238"/>
<path d="M381.799 108.735C381.799 108.735 379.591 109.365 379.15 112.202C379.15 112.202 374.218 109.168 376.388 103.503C378.558 97.8472 381.508 89.8713 390.254 91.0268C399 92.1823 417.376 94.747 410.8 114.344C404.223 133.941 397.704 110.022 397.704 110.022L381.799 108.735Z" fill="#263238"/>
<path d="M400.957 145.29C392.981 144.792 396.363 137.915 396.729 135.369C396.889 134.242 396.513 133.105 396.034 132.175C395.433 131.001 394.681 130.165 394.681 130.165C391.187 130.165 387.316 129.695 384.554 127.384C381.454 124.801 380.214 119.981 379.706 116.158C379.237 112.654 379.321 109.074 379.509 105.504C379.537 104.978 379.575 104.462 379.603 103.954C379.725 101.906 379.857 99.8864 379.923 97.8948C379.923 97.8948 387.654 96.1944 394.569 97.7727C399.679 98.9376 403.268 103.184 404.818 109.854C405.353 112.156 405.645 114.739 405.673 117.604C405.804 128.709 410.154 130.653 411.854 133.923C413.536 137.182 408.951 145.76 400.957 145.29Z" fill="#FF8B7B"/>
<path d="M386.707 118.524L384.865 111.375L383.578 118.853C383.578 118.853 384.583 119.745 386.707 118.524Z" fill="#FF5652"/>
<path d="M392.226 119.75C392.226 119.75 391.051 122.258 387.312 122.709" stroke="#263238" stroke-width="0.5" stroke-miterlimit="10" stroke-linecap="round" stroke-linejoin="round"/>
<path d="M391.782 107.642C391.782 107.642 390.382 105.857 387.648 106.75" stroke="#263238" stroke-width="0.75" stroke-miterlimit="10" stroke-linecap="round" stroke-linejoin="round"/>
<path d="M388.866 111.141C388.932 111.864 389.345 112.418 389.805 112.381C390.256 112.343 390.576 111.723 390.51 111C390.444 110.276 390.031 109.722 389.571 109.76C389.12 109.797 388.81 110.417 388.866 111.141Z" fill="#263238"/>
<path d="M380.577 113.195C380.643 113.919 381.056 114.473 381.516 114.435C381.967 114.398 382.287 113.778 382.221 113.054C382.155 112.331 381.742 111.777 381.282 111.814C380.831 111.852 380.521 112.472 380.577 113.195Z" fill="#263238"/>
<path d="M379.359 104.02C384.695 102.686 387.655 100.121 387.655 100.121C390.407 109.252 402.179 109.581 405.119 109.581C403.578 102.902 399.877 98.2609 394.757 97.0865C387.861 95.5083 379.735 97.3402 379.735 97.3402C379.679 99.3412 379.472 101.99 379.359 104.02Z" fill="#263238"/>
<path d="M389.574 109.765L387.648 109.398C387.648 109.398 388.146 110.798 389.574 109.765Z" fill="#263238"/>
<path d="M381.66 111.851L379.734 111.484C379.734 111.494 380.232 112.884 381.66 111.851Z" fill="#263238"/>
<path d="M407.079 92.4928C408.037 88.5234 405.436 84.4906 401.27 83.4852C397.104 82.4798 392.95 84.8825 391.992 88.8519C391.034 92.8213 393.635 96.8541 397.801 97.8595C401.967 98.8649 406.121 96.4622 407.079 92.4928Z" fill="#263238"/>
<path d="M385.138 101.433L383.578 103.481C383.578 103.481 387.702 102.767 388.614 99.9488C389.525 97.1305 386.086 99.3382 386.086 99.3382L385.138 101.433Z" fill="#263238"/>
<path opacity="0.1" d="M399.95 127.93C399.828 128.146 398.494 130.419 396.032 132.176C395.431 131.002 394.68 130.166 394.68 130.166C394.68 130.166 397.874 129.367 399.95 127.93Z" fill="black"/>
<path d="M378.789 109.981C378.789 109.981 379.465 107.68 382.04 107.943" stroke="#263238" stroke-width="0.75" stroke-miterlimit="10" stroke-linecap="round" stroke-linejoin="round"/>
<path d="M402.712 110.732C402.975 110.356 403.267 109.99 403.586 109.661C404.685 108.534 406.489 107.077 408.142 107.895C410.143 108.872 409.721 111.709 409.166 113.428C408.678 114.922 407.701 116.35 406.273 117.082C404.291 118.106 401.341 117.562 401.359 114.894C401.378 113.4 401.876 111.953 402.712 110.732Z" fill="#FF8B7B"/>
<path d="M404.803 107.661C404.803 107.661 401.515 113.204 402.858 118.108C404.202 123.012 403.46 125.323 402.539 127.915C402.539 127.915 402.905 120.475 401.365 117.788C399.016 113.683 402.285 107.633 402.285 107.633L404.803 107.661Z" fill="#263238"/>
<path d="M392.102 91.0739C392.102 91.0739 400.613 92.0791 405.733 95.5832C405.733 95.5832 401.289 89.6741 392.102 91.0739Z" fill="#FFC305"/>
<path d="M287.03 201.529H340.56C342.89 201.529 344.6 199.341 344.036 197.076L334.566 159.113C334.172 157.516 332.734 156.398 331.09 156.398H277.561C275.231 156.398 273.521 158.587 274.085 160.851L283.554 198.814C283.949 200.411 285.386 201.529 287.03 201.529Z" fill="#263238"/>
<path d="M338.727 201.387H375.121V200.391C375.121 199.367 374.285 198.531 373.261 198.531H338.727V201.387Z" fill="#263238"/>
<path opacity="0.3" d="M287.03 201.529H340.56C342.89 201.529 344.6 199.341 344.036 197.076L334.566 159.113C334.172 157.516 332.734 156.398 331.09 156.398H277.561C275.231 156.398 273.521 158.587 274.085 160.851L283.554 198.814C283.949 200.411 285.386 201.529 287.03 201.529Z" fill="black"/>
<path d="M284.218 201.529H337.747C340.077 201.529 341.787 199.341 341.223 197.076L331.754 159.113C331.359 157.516 329.922 156.398 328.278 156.398H274.748C272.418 156.398 270.709 158.587 271.272 160.851L280.742 198.814C281.146 200.411 282.574 201.529 284.218 201.529Z" fill="#263238"/>
<path opacity="0.2" d="M284.218 201.529H337.747C340.077 201.529 341.787 199.341 341.223 197.076L331.754 159.113C331.359 157.516 329.922 156.398 328.278 156.398H274.748C272.418 156.398 270.709 158.587 271.272 160.851L280.742 198.814C281.146 200.411 282.574 201.529 284.218 201.529Z" fill="white"/>
<path opacity="0.3" d="M308.605 177.857C309.357 181.023 307.854 184.095 305.261 184.705C302.659 185.316 299.953 183.249 299.201 180.083C298.45 176.917 299.953 173.845 302.546 173.235C305.139 172.614 307.854 174.691 308.605 177.857Z" fill="black"/>
<path d="M271.228 204.828L251.472 327.351H247.094L266.963 204.133L271.228 204.828Z" fill="#5A5A5A"/>
<path opacity="0.5" d="M271.228 204.828L251.472 327.351H247.094L266.963 204.133L271.228 204.828Z" fill="white"/>
<path d="M300.297 327.347H295.91L276.82 204.815L281.095 204.148L300.297 327.347Z" fill="#5A5A5A"/>
<path opacity="0.5" d="M300.297 327.347H295.91L276.82 204.815L281.095 204.148L300.297 327.347Z" fill="white"/>
<path d="M345.878 204.828L326.122 327.351H321.734L341.604 204.133L345.878 204.828Z" fill="#5A5A5A"/>
<path opacity="0.5" d="M345.878 204.828L326.122 327.351H321.734L341.604 204.133L345.878 204.828Z" fill="white"/>
<path d="M411.813 327.347H407.435L388.336 204.815L392.61 204.148L411.813 327.347Z" fill="#5A5A5A"/>
<path opacity="0.5" d="M411.813 327.347H407.435L388.336 204.815L392.61 204.148L411.813 327.347Z" fill="white"/>
<path d="M417.196 200.641H235.648V206.343H417.196V200.641Z" fill="#3F3E3C"/>
<path opacity="0.3" d="M417.283 200.641H344.109V206.343H417.283V200.641Z" fill="black"/>
<path d="M410.684 200.643H380.688C380.688 199.712 381.439 198.961 382.369 198.961H409.002C409.932 198.97 410.684 199.722 410.684 200.643Z" fill="#263238"/>
<path d="M399.798 184.661L395.759 194.356C395.016 194.206 394.349 194.103 393.852 194.037L398.06 183.938C398.258 183.459 398.812 183.233 399.291 183.431C399.77 183.637 399.996 184.182 399.798 184.661Z" fill="#263238"/>
<path d="M402.652 177.07C407.841 177.07 412.047 172.199 412.047 166.191C412.047 160.183 407.841 155.312 402.652 155.312C397.464 155.312 393.258 160.183 393.258 166.191C393.258 172.199 397.464 177.07 402.652 177.07Z" fill="#263238"/>
<path d="M423.428 162.854L422.789 160.58L437.172 153.422L437.66 156.137L423.428 162.854Z" fill="#263238"/>
<path opacity="0.1" d="M422.787 160.576L418.438 154.047L425.352 170.234L422.787 160.576Z" fill="black"/>
<path d="M383.632 167.999L383.238 165.547L377.141 163.227V165.547L383.632 167.999Z" fill="#263238"/>
<path opacity="0.1" d="M383.633 168C383.511 167.531 382.008 157.281 382.008 157.281V167.39L383.633 168Z" fill="black"/>
<path d="M395.777 137.112C395.777 137.112 391.672 146.3 401.367 145.999C411.062 145.708 413.505 138.549 413.993 133.222L410.968 132.18C410.968 132.18 409.221 139.723 402.663 141.189C396.106 142.655 396.642 135.844 396.642 135.844L395.777 137.112Z" fill="#263238"/>
<path opacity="0.1" d="M340.688 321.372L350.918 323.777L351.501 321.212L341.279 319.117L340.688 321.372Z" fill="black"/>
</g>
<defs>
<clipPath id="clip0_2275_14313">
<rect width="690" height="350" fill="white"/>
</clipPath>
</defs>
</svg>
