<svg width="690" height="350" viewBox="0 0 690 350" fill="none" xmlns="http://www.w3.org/2000/svg">
<path d="M354.109 28.1403H231.156C231.156 28.1403 244.214 28.8701 246.066 15.0901C247.918 1.31015 263.801 -4.37919 275.407 3.74282C287.014 11.8648 293.904 7.61157 300.794 3.74282C307.684 -0.125923 316.025 2.41662 321.825 11.1193C327.624 19.8221 332.207 20.4342 338.508 19.1001C346.489 17.3815 348.67 27.7793 354.109 28.1403Z" fill="#E8FBFF"/>
<path d="M506 53.1513H628.921C628.921 53.1513 615.863 53.8811 614.05 40.0933C612.238 26.3055 596.284 20.6318 584.678 28.7303C573.071 36.8288 566.174 32.5991 559.284 28.7303C552.394 24.8616 544.052 27.4041 538.253 36.1068C532.453 44.8095 527.878 45.4216 521.569 44.0876C513.588 42.3847 511.415 52.7825 506 53.1513Z" fill="#E8FBFF"/>
<path d="M211.211 86.8885H37C37 86.8885 55.4805 87.9165 58.0545 68.3844C60.6284 48.8524 83.2366 40.801 99.6847 52.2974C116.133 63.7937 125.895 57.7905 135.657 52.2974C145.419 46.8042 157.245 50.414 165.477 62.75C173.709 75.0861 180.214 75.9336 189.113 74.0424C200.421 71.6411 203.505 86.3706 211.211 86.8885Z" fill="#BAF1FF"/>
<path d="M164.023 241.702C193.647 241.702 217.662 237.91 217.662 233.234C217.662 228.557 193.647 224.766 164.023 224.766C134.398 224.766 110.383 228.557 110.383 233.234C110.383 237.91 134.398 241.702 164.023 241.702Z" fill="#DEDEDE"/>
<path d="M509.827 238.046C539.452 238.046 563.467 234.254 563.467 229.577C563.467 224.901 539.452 221.109 509.827 221.109C480.203 221.109 456.188 224.901 456.188 229.577C456.188 234.254 480.203 238.046 509.827 238.046Z" fill="#DEDEDE"/>
<path d="M485.816 349.999C510.584 349.999 530.663 346.207 530.663 341.531C530.663 336.854 510.584 333.062 485.816 333.062C461.048 333.062 440.969 336.854 440.969 341.531C440.969 346.207 461.048 349.999 485.816 349.999Z" fill="#DEDEDE"/>
<path d="M475.569 320.795C475.569 324.489 459.726 327.481 440.188 327.481C420.65 327.481 404.797 324.489 404.797 320.795C404.797 317.101 420.641 314.109 440.188 314.109C459.735 314.109 475.569 317.101 475.569 320.795Z" fill="#DEDEDE"/>
<path d="M182.785 314.288C207.553 314.288 227.632 310.496 227.632 305.82C227.632 301.143 207.553 297.352 182.785 297.352C158.016 297.352 137.938 301.143 137.938 305.82C137.938 310.496 158.016 314.288 182.785 314.288Z" fill="#DEDEDE"/>
<path d="M371.418 342.194C396.186 342.194 416.265 338.403 416.265 333.726C416.265 329.049 396.186 325.258 371.418 325.258C346.649 325.258 326.57 329.049 326.57 333.726C326.57 338.403 346.649 342.194 371.418 342.194Z" fill="#DEDEDE"/>
<path d="M345.376 317.417C419.171 317.417 478.994 310.314 478.994 301.552C478.994 292.79 419.171 285.688 345.376 285.688C271.581 285.688 211.758 292.79 211.758 301.552C211.758 310.314 271.581 317.417 345.376 317.417Z" fill="#DEDEDE"/>
<path d="M199.984 185.736C199.974 180.596 198.905 175.509 196.838 170.767L206.526 166.87C203.933 160.914 200.137 155.509 195.357 150.968L187.959 158.125C184.164 154.511 179.667 151.646 174.723 149.694L178.724 140.358C172.552 137.915 165.94 136.66 159.264 136.664H159.139L159.196 146.757C153.832 146.755 148.522 147.779 143.574 149.768L139.485 140.478C133.281 142.96 127.651 146.597 122.92 151.181L130.366 158.291C126.595 161.93 123.605 166.244 121.564 170.989L111.848 167.147C109.299 173.084 107.991 179.444 108 185.866V186.106L117.62 185.949H118.486C118.492 191.082 119.554 196.162 121.612 200.9L111.906 204.778C114.515 210.745 118.33 216.156 123.132 220.699L130.549 213.551C134.324 217.165 138.802 220.032 143.728 221.991L139.707 231.318C145.909 233.773 152.555 235.028 159.264 235.012H159.764L160.255 234.966L159.293 224.937C164.638 224.947 169.934 223.946 174.877 221.991L178.926 231.3C185.135 228.824 190.774 225.196 195.521 220.625L188.084 213.496C191.868 209.87 194.866 205.56 196.906 200.817L206.622 204.686C209.195 198.685 210.503 192.254 210.47 185.764L199.984 185.736ZM159.264 204.566C155.411 204.566 151.645 203.469 148.441 201.414C145.238 199.359 142.741 196.439 141.267 193.022C139.792 189.605 139.406 185.845 140.158 182.218C140.91 178.59 142.765 175.258 145.489 172.643C148.214 170.028 151.685 168.247 155.463 167.525C159.242 166.804 163.159 167.174 166.718 168.589C170.278 170.005 173.32 172.401 175.461 175.477C177.601 178.552 178.744 182.167 178.744 185.866C178.745 188.322 178.242 190.754 177.263 193.023C176.285 195.293 174.85 197.355 173.041 199.091C171.232 200.828 169.084 202.205 166.72 203.145C164.356 204.084 161.822 204.567 159.264 204.566Z" fill="#133447"/>
<path d="M159.261 146.766C151.206 146.766 143.331 149.059 136.633 153.355C129.935 157.651 124.714 163.758 121.632 170.902C118.549 178.047 117.742 185.908 119.314 193.493C120.885 201.077 124.765 208.044 130.461 213.512C136.157 218.98 143.414 222.704 151.315 224.213C159.216 225.721 167.406 224.947 174.848 221.988C182.29 219.028 188.652 214.017 193.127 207.587C197.603 201.157 199.991 193.598 199.991 185.865C199.991 175.495 195.7 165.55 188.062 158.217C180.423 150.885 170.064 146.766 159.261 146.766ZM159.261 204.565C155.409 204.565 151.642 203.468 148.439 201.413C145.235 199.358 142.739 196.438 141.264 193.021C139.79 189.604 139.404 185.844 140.156 182.217C140.907 178.589 142.763 175.257 145.487 172.642C148.211 170.027 151.682 168.246 155.461 167.524C159.24 166.803 163.156 167.173 166.716 168.588C170.275 170.004 173.318 172.4 175.458 175.476C177.599 178.551 178.741 182.166 178.741 185.865C178.743 188.321 178.24 190.753 177.261 193.022C176.283 195.292 174.848 197.354 173.039 199.09C171.229 200.827 169.081 202.204 166.717 203.144C164.353 204.083 161.82 204.566 159.261 204.565Z" fill="#1E5370"/>
<path d="M167.704 193.969C172.37 189.49 172.37 182.228 167.704 177.749C163.038 173.27 155.474 173.27 150.808 177.749C146.142 182.228 146.142 189.49 150.808 193.969C155.474 198.448 163.038 198.448 167.704 193.969Z" fill="#133447"/>
<path d="M416.416 277.406H251.188L261.452 235.602H406.152L416.416 277.406Z" fill="#003757"/>
<path d="M424.55 302.199H243.063C238.988 302.177 235.087 300.614 232.205 297.847C229.324 295.081 227.695 291.336 227.672 287.424C227.695 283.512 229.324 279.766 232.205 277C235.087 274.234 238.988 272.67 243.063 272.648H424.55C428.625 272.67 432.526 274.234 435.408 277C438.29 279.766 439.919 283.512 439.941 287.424C439.919 291.336 438.29 295.081 435.408 297.847C432.526 300.614 428.625 302.177 424.55 302.199Z" fill="#005C91"/>
<path d="M424.549 289.872H243.063C240.112 289.861 237.225 289.041 234.744 287.508C232.262 285.975 230.289 283.793 229.057 281.219C228.122 283.152 227.636 285.256 227.633 287.387C227.656 291.299 229.284 295.045 232.166 297.811C235.048 300.577 238.949 302.141 243.024 302.163H424.549C428.624 302.141 432.526 300.577 435.407 297.811C438.289 295.045 439.918 291.299 439.941 287.387C439.937 285.256 439.452 283.152 438.517 281.219C437.287 283.787 435.32 285.965 432.846 287.498C430.372 289.031 427.494 289.854 424.549 289.872Z" fill="#003757"/>
<path d="M357.681 280.163H263.58C263.075 280.147 262.596 279.947 262.238 279.604C261.881 279.262 261.673 278.801 261.656 278.316C261.659 277.811 261.87 277.327 262.243 276.971C262.616 276.614 263.121 276.414 263.648 276.414H357.719C358.245 276.416 358.748 276.617 359.121 276.973C359.494 277.329 359.705 277.812 359.71 278.316C359.69 278.818 359.467 279.292 359.087 279.637C358.708 279.982 358.203 280.171 357.681 280.163Z" fill="#5498BF"/>
<path d="M404.027 280.165H370.06C369.533 280.163 369.029 279.961 368.658 279.602C368.287 279.244 368.078 278.759 368.078 278.254C368.081 277.75 368.29 277.268 368.661 276.911C369.032 276.555 369.535 276.354 370.06 276.352H404.027C404.554 276.368 405.052 276.585 405.412 276.954C405.773 277.322 405.967 277.813 405.951 278.319C405.934 278.803 405.726 279.264 405.369 279.607C405.012 279.95 404.532 280.149 404.027 280.165Z" fill="#5498BF"/>
<path d="M501.897 30.4531H165.706C161.334 30.4531 157.789 33.8558 157.789 38.0532V230.261C157.789 234.459 161.334 237.861 165.706 237.861H501.897C506.27 237.861 509.814 234.459 509.814 230.261V38.0532C509.814 33.8558 506.27 30.4531 501.897 30.4531Z" fill="#005C91"/>
<path d="M496.588 43.8672H171.017C167.314 43.8672 164.312 46.7489 164.312 50.3037V203.708C164.312 207.263 167.314 210.145 171.017 210.145H496.588C500.291 210.145 503.293 207.263 503.293 203.708V50.3037C503.293 46.7489 500.291 43.8672 496.588 43.8672Z" fill="#003C5E"/>
<path d="M493.746 46.6875H173.86C170.253 46.6875 167.328 49.4948 167.328 52.9578V201.052C167.328 204.515 170.253 207.323 173.86 207.323H493.746C497.353 207.323 500.277 204.515 500.277 201.052V52.9578C500.277 49.4948 497.353 46.6875 493.746 46.6875Z" fill="#00CFFF"/>
<path d="M188.545 207.299H479.061L487.613 46.7749C487.22 46.7051 486.82 46.668 486.42 46.6641H181.224C180.824 46.668 180.425 46.7051 180.031 46.7749L188.545 207.299Z" fill="#99D0DE"/>
<path d="M337.302 230.93C341.328 229.082 343.031 224.45 341.105 220.585C339.18 216.721 334.355 215.086 330.329 216.934C326.303 218.783 324.6 223.414 326.525 227.279C328.451 231.144 333.276 232.779 337.302 230.93Z" fill="#E8FBFF"/>
<path d="M339.31 223.938C339.31 224.983 338.987 226.004 338.382 226.873C337.778 227.742 336.918 228.419 335.913 228.818C334.907 229.218 333.801 229.323 332.734 229.119C331.666 228.915 330.686 228.412 329.916 227.673C329.147 226.935 328.623 225.994 328.41 224.969C328.198 223.944 328.307 222.882 328.724 221.917C329.14 220.952 329.845 220.127 330.75 219.546C331.655 218.966 332.719 218.656 333.807 218.656C335.267 218.656 336.666 219.213 337.698 220.203C338.73 221.194 339.31 222.537 339.31 223.938Z" fill="#003757"/>
<path d="M479.001 0H188.609V207.325H479.001V0Z" fill="white"/>
<path d="M354.612 124.594H343.01C340.247 124.594 338.008 126.744 338.008 129.396V140.533C338.008 143.185 340.247 145.335 343.01 145.335H354.612C357.374 145.335 359.614 143.185 359.614 140.533V129.396C359.614 126.744 357.374 124.594 354.612 124.594Z" fill="#005C91"/>
<path d="M390.252 124.594H378.651C375.888 124.594 373.648 126.744 373.648 129.396V140.533C373.648 143.185 375.888 145.335 378.651 145.335H390.252C393.015 145.335 395.254 143.185 395.254 140.533V129.396C395.254 126.744 393.015 124.594 390.252 124.594Z" fill="#BAF1FF"/>
<path d="M461.533 124.594H449.932C447.169 124.594 444.93 126.744 444.93 129.396V140.533C444.93 143.185 447.169 145.335 449.932 145.335H461.533C464.296 145.335 466.536 143.185 466.536 140.533V129.396C466.536 126.744 464.296 124.594 461.533 124.594Z" fill="#8BC9D9"/>
<path d="M425.893 124.594H414.291C411.529 124.594 409.289 126.744 409.289 129.396V140.533C409.289 143.185 411.529 145.335 414.291 145.335H425.893C428.655 145.335 430.895 143.185 430.895 140.533V129.396C430.895 126.744 428.655 124.594 425.893 124.594Z" fill="#FF9CBD"/>
<path d="M280.528 180.852H265.387L259.586 207.299H287.147L280.528 180.852Z" fill="#BAF1FF"/>
<path d="M233.726 127H201.375V207.294H233.726V127Z" fill="#BAF1FF"/>
<path d="M262.25 207.299H229.898L240.952 164.109H255.92L262.25 207.299Z" fill="#BAF1FF"/>
<path d="M329.751 57.3359H201.039V114.572H329.751V57.3359Z" fill="#FF9CBD"/>
<path d="M230.871 103.655C241.055 103.655 249.312 95.7295 249.312 85.9526C249.312 76.1757 241.055 68.25 230.871 68.25C220.686 68.25 212.43 76.1757 212.43 85.9526C212.43 95.7295 220.686 103.655 230.871 103.655Z" fill="white"/>
<path d="M229.5 94.2287C229.283 94.4375 229.025 94.6033 228.741 94.7163C228.457 94.8294 228.153 94.8876 227.845 94.8876C227.538 94.8876 227.233 94.8294 226.95 94.7163C226.666 94.6033 226.408 94.4375 226.191 94.2287L219.514 87.8199C219.297 87.6115 219.124 87.3639 219.007 87.0914C218.889 86.8188 218.828 86.5266 218.828 86.2316C218.828 85.9365 218.889 85.6443 219.007 85.3718C219.124 85.0992 219.297 84.8517 219.514 84.6432C219.732 84.4344 219.989 84.2687 220.273 84.1556C220.557 84.0426 220.862 83.9844 221.169 83.9844C221.476 83.9844 221.781 84.0426 222.065 84.1556C222.349 84.2687 222.607 84.4344 222.824 84.6432L229.5 91.052C229.717 91.2604 229.89 91.508 230.008 91.7806C230.125 92.0531 230.186 92.3453 230.186 92.6403C230.186 92.9354 230.125 93.2276 230.008 93.5001C229.89 93.7727 229.717 94.0203 229.5 94.2287Z" fill="#005C91"/>
<path d="M226.288 94.1134C226.07 93.905 225.898 93.6574 225.78 93.3848C225.662 93.1123 225.602 92.8201 225.602 92.525C225.602 92.23 225.662 91.9378 225.78 91.6653C225.898 91.3927 226.07 91.1451 226.288 90.9367L237.832 79.8552C238.274 79.4373 238.87 79.2031 239.491 79.2031C240.112 79.2031 240.708 79.4373 241.15 79.8552C241.586 80.2801 241.83 80.8522 241.83 81.4482C241.83 82.0442 241.586 82.6163 241.15 83.0412L229.607 94.1226C229.165 94.5438 228.568 94.7794 227.945 94.7776C227.323 94.7759 226.727 94.537 226.288 94.1134Z" fill="#005C91"/>
<path d="M466.728 57.3359H338.016V114.572H466.728V57.3359Z" fill="#BAF1FF"/>
<path d="M475.083 4.0625H192.531V17.1479H475.083V4.0625Z" fill="#BAF1FF"/>
<path d="M413.535 7.86719H254.078V13.3433H413.535V7.86719Z" fill="#8BC9D9"/>
<path d="M463.313 14.0573C463.253 14.0022 463.206 13.9362 463.174 13.8632C463.142 13.7902 463.125 13.7118 463.125 13.6325C463.125 13.5532 463.142 13.4748 463.174 13.4018C463.206 13.3288 463.253 13.2628 463.313 13.2077L469.614 7.14984C469.734 7.03868 469.894 6.97656 470.061 6.97656C470.228 6.97656 470.388 7.03868 470.508 7.14984C470.624 7.26515 470.689 7.41908 470.689 7.57925C470.689 7.73942 470.624 7.89334 470.508 8.00865L464.198 14.0573C464.14 14.1143 464.071 14.1596 463.995 14.1905C463.919 14.2214 463.838 14.2374 463.755 14.2374C463.673 14.2374 463.591 14.2214 463.515 14.1905C463.439 14.1596 463.37 14.1143 463.313 14.0573Z" fill="white"/>
<path d="M470.509 14.0564C470.624 13.9427 470.689 13.7903 470.689 13.6316C470.689 13.473 470.624 13.3206 470.509 13.2069L464.198 7.14898C464.08 7.03842 463.921 6.97656 463.756 6.97656C463.591 6.97656 463.432 7.03842 463.313 7.14898C463.254 7.20489 463.206 7.27168 463.174 7.34542C463.142 7.41917 463.125 7.49838 463.125 7.5784C463.125 7.65841 463.142 7.73762 463.174 7.81136C463.206 7.8851 463.254 7.95189 463.313 8.0078L469.614 14.0564C469.673 14.1137 469.742 14.1592 469.819 14.1902C469.896 14.2213 469.978 14.2373 470.062 14.2373C470.145 14.2373 470.228 14.2213 470.304 14.1902C470.381 14.1592 470.451 14.1137 470.509 14.0564Z" fill="white"/>
<path d="M454.387 7.4469C455.037 7.4469 455.673 7.63213 456.214 7.97916C456.755 8.32619 457.177 8.81943 457.426 9.39652C457.675 9.97361 457.74 10.6086 457.613 11.2213C457.486 11.8339 457.173 12.3966 456.713 12.8383C456.253 13.28 455.667 13.5808 455.028 13.7027C454.39 13.8245 453.729 13.762 453.128 13.5229C452.526 13.2839 452.013 12.8791 451.651 12.3597C451.29 11.8404 451.097 11.2298 451.097 10.6051C451.097 9.76751 451.443 8.9642 452.06 8.37192C452.677 7.77964 453.514 7.4469 454.387 7.4469ZM454.387 6.52345C453.545 6.52162 452.722 6.75946 452.022 7.20685C451.321 7.65423 450.775 8.29106 450.451 9.03673C450.128 9.78239 450.043 10.6034 450.206 11.3957C450.369 12.1881 450.773 12.9163 451.367 13.488C451.961 14.0598 452.719 14.4494 453.544 14.6077C454.369 14.7659 455.224 14.6856 456.002 14.377C456.779 14.0683 457.444 13.5452 457.912 12.8737C458.379 12.2023 458.629 11.4128 458.629 10.6051C458.629 9.52419 458.182 8.4874 457.387 7.7222C456.592 6.95701 455.513 6.52589 454.387 6.52345Z" fill="white"/>
<path d="M445.692 14.0328H437.997C437.869 14.0328 437.747 13.9842 437.657 13.8976C437.566 13.811 437.516 13.6936 437.516 13.5711C437.516 13.4486 437.566 13.3312 437.657 13.2446C437.747 13.158 437.869 13.1094 437.997 13.1094H445.692C445.82 13.1094 445.942 13.158 446.033 13.2446C446.123 13.3312 446.173 13.4486 446.173 13.5711C446.171 13.6928 446.119 13.8089 446.03 13.895C445.94 13.9811 445.819 14.0305 445.692 14.0328Z" fill="white"/>
<path d="M205.216 13.7672H197.52C197.392 13.7672 197.27 13.7186 197.18 13.632C197.09 13.5454 197.039 13.4279 197.039 13.3055C197.039 13.183 197.09 13.0656 197.18 12.979C197.27 12.8924 197.392 12.8438 197.52 12.8438H205.216C205.343 12.8461 205.464 12.8955 205.553 12.9816C205.643 13.0677 205.694 13.1838 205.697 13.3055C205.697 13.4279 205.646 13.5454 205.556 13.632C205.466 13.7186 205.343 13.7672 205.216 13.7672Z" fill="white"/>
<path d="M205.216 11.0641H197.52C197.392 11.0641 197.27 11.0154 197.18 10.9288C197.09 10.8423 197.039 10.7248 197.039 10.6024C197.039 10.4799 197.09 10.3625 197.18 10.2759C197.27 10.1893 197.392 10.1406 197.52 10.1406H205.216C205.343 10.1406 205.466 10.1893 205.556 10.2759C205.646 10.3625 205.697 10.4799 205.697 10.6024C205.697 10.7248 205.646 10.8423 205.556 10.9288C205.466 11.0154 205.343 11.0641 205.216 11.0641Z" fill="white"/>
<path d="M313.783 89.4206H259.817C259.138 89.4206 258.487 89.1618 258.007 88.7011C257.527 88.2405 257.258 87.6157 257.258 86.9642C257.26 86.3135 257.531 85.6901 258.01 85.23C258.489 84.7698 259.139 84.5102 259.817 84.5078H313.783C314.463 84.5078 315.115 84.7663 315.596 85.2267C316.078 85.6871 316.349 86.3119 316.352 86.9642C316.349 87.6165 316.078 88.2413 315.596 88.7017C315.115 89.1621 314.463 89.4206 313.783 89.4206Z" fill="white"/>
<path d="M313.783 78.3347H259.817C259.138 78.3347 258.487 78.0759 258.007 77.6152C257.527 77.1545 257.258 76.5297 257.258 75.8783C257.26 75.2275 257.531 74.6042 258.01 74.144C258.489 73.6839 259.139 73.4243 259.817 73.4219H313.783C314.463 73.4219 315.115 73.6804 315.596 74.1408C316.078 74.6012 316.349 75.2259 316.352 75.8783C316.349 76.5306 316.078 77.1554 315.596 77.6158C315.115 78.0762 314.463 78.3347 313.783 78.3347Z" fill="white"/>
<path d="M313.783 100.508H259.817C259.137 100.506 258.486 100.245 258.007 99.7825C257.527 99.3204 257.258 98.6947 257.258 98.0423C257.26 97.3916 257.531 96.7682 258.01 96.3081C258.489 95.848 259.139 95.5884 259.817 95.5859H313.783C314.463 95.5859 315.115 95.8444 315.596 96.3048C316.078 96.7652 316.349 97.39 316.352 98.0423C316.349 98.6955 316.078 99.3212 315.597 99.7831C315.116 100.245 314.464 100.506 313.783 100.508Z" fill="white"/>
<g style="mix-blend-mode:multiply" opacity="0.15">
<path d="M263.318 168.304H260.547V168.147C260.547 167.711 260.367 167.293 260.046 166.985C259.725 166.677 259.289 166.504 258.835 166.504H245.579C245.126 166.506 244.693 166.68 244.374 166.988C244.055 167.296 243.876 167.713 243.876 168.147V169.994C243.876 170.429 244.055 170.845 244.374 171.153C244.693 171.461 245.126 171.636 245.579 171.638H258.835C259.289 171.638 259.725 171.465 260.046 171.157C260.367 170.848 260.547 170.43 260.547 169.994V169.837H262.471V174.455H252.207C251.993 174.457 251.789 174.539 251.638 174.684C251.487 174.829 251.401 175.025 251.399 175.23V181.14C250.896 181.302 250.459 181.611 250.149 182.023C249.838 182.436 249.67 182.931 249.667 183.44V187.134C248.972 187.587 248.252 188.006 247.512 188.389C246.955 188.626 246.451 188.966 246.032 189.391C245.612 189.816 245.285 190.317 245.069 190.864C240.365 191.945 234.045 193.422 228.234 194.429C221.385 195.629 215.306 196.211 213.747 196.377L212.997 196.479C212.691 196.118 212.328 195.806 211.919 195.556C211.919 195.556 206.686 196.479 202.723 197.107C202.396 197.153 201.097 197.467 199.212 197.744C199.135 197.125 199.096 196.59 199.087 196.147C200.614 195.677 201.895 194.662 202.665 193.312C204.159 190.854 204.961 188.066 204.991 185.221C205.022 182.376 204.28 179.572 202.838 177.086C202.838 177.086 200.241 166.568 187.755 169.782C179.376 171.934 177.173 186.561 176.692 195.962L175.836 195.491C170.517 192.466 166.516 187.697 164.571 182.064C163.868 180.1 163.341 178.083 162.993 176.034C163.657 175.507 164.35 174.491 164.302 172.506C164.225 168.729 164.85 167.723 165.36 167.058C165.87 166.393 164.205 165.395 163.099 167.981L161.993 170.53C161.993 170.53 160.492 164.897 158.52 163.272C158.428 163.176 158.314 163.102 158.187 163.056C158.06 163.009 157.924 162.992 157.789 163.004V175.461C158.082 175.723 158.404 175.952 158.751 176.144C158.306 180.529 158.922 184.954 160.55 189.073C161.299 190.965 162.267 192.771 163.436 194.457C165.519 197.479 168.16 200.111 171.228 202.223C172.952 203.41 174.791 204.434 176.721 205.279C177.096 205.436 177.442 205.566 177.789 205.677C177.654 206.268 177.551 206.866 177.481 207.468C179.525 208.15 181.653 208.578 183.81 208.742C183.81 208.742 192.93 214.846 186.908 228.135C185.407 231.441 184.147 234.719 183.06 237.868H211.631C210.756 234.534 209.584 231.277 208.129 228.135C203.175 217.718 209.707 215.668 209.861 208.493C211.604 208.377 213.275 207.777 214.671 206.766C214.671 206.766 214.815 205.907 214.882 204.652C219.99 203.936 225.033 202.843 229.966 201.383C235.688 199.728 241.224 197.532 246.493 194.826C247.463 195.312 248.56 195.514 249.648 195.408V197.883C249.648 198.529 249.916 199.149 250.392 199.607C250.868 200.064 251.514 200.321 252.188 200.321C252.861 200.321 253.507 200.064 253.983 199.607C254.46 199.149 254.727 198.529 254.727 197.883V194.29C258.2 192.684 260.797 189.396 258.748 188.694C257.43 188.39 256.061 188.353 254.727 188.583V183.467C254.725 182.96 254.558 182.465 254.25 182.053C253.941 181.641 253.506 181.332 253.005 181.168V176.034H263.298C263.513 176.034 263.718 175.952 263.87 175.806C264.021 175.661 264.107 175.464 264.107 175.258V169.089C264.107 168.886 264.024 168.69 263.877 168.544C263.73 168.397 263.53 168.312 263.318 168.304Z" fill="black"/>
</g>
<g style="mix-blend-mode:multiply" opacity="0.15">
<path d="M475.664 55.3175C473.327 56.398 470.489 61.4955 470.489 61.4955L470.017 58.7251C469.546 55.9547 467.67 56.5088 468.007 57.2845C468.344 58.0602 468.719 59.1961 467.718 62.8252C467.482 63.4414 467.398 64.1022 467.475 64.7548C467.552 65.4074 467.787 66.0337 468.161 66.5837C467.322 68.481 466.311 70.3041 465.14 72.0321C461.946 76.8727 457.036 80.4413 451.317 82.0793C450.749 80.6018 450.355 79.6968 450.355 79.6968C445.747 83.427 439.8 85.2737 433.789 84.8404C434.106 83.0102 434.216 81.1525 434.116 79.2997C435.255 78.8548 436.339 78.2912 437.349 77.619C440.456 76.7602 442.851 73.9252 444.467 70.9424C447.065 66.0943 446.949 59.1499 441.418 55.2437C435.887 51.3374 431.413 51.6329 424.583 51.9562C424.091 53.0466 423.875 54.2333 423.952 55.4193C424.029 56.6053 424.397 57.7571 425.026 58.7805C422.574 60.6814 420.731 63.2087 419.71 66.0711C418.689 68.9335 418.531 72.0146 419.254 74.9594C419.966 78.1454 422.765 79.9923 426.305 80.4263C426.294 81.4597 426.2 82.4908 426.026 83.5106L425.574 83.3906C421.534 82.7165 412.722 77.8499 412.722 77.8499C411.549 78.554 410.533 79.4735 409.73 80.5556L409.095 79.9923C407.278 78.1346 405.822 75.9798 404.795 73.6297C404.536 72.9463 404.18 72.2814 403.968 71.5519C403.757 70.8224 403.545 70.0744 403.343 69.3264C403.22 68.9568 403.136 68.5762 403.093 68.1905L402.91 67.0362L402.708 65.8911C402.63 65.5137 402.585 65.1307 402.573 64.746C402.525 63.9796 402.477 63.2223 402.419 62.4836C402.343 61.7688 402.315 61.0502 402.333 60.3319C402.333 59.7963 402.333 59.2792 402.333 58.7713C403.093 58.3649 403.949 57.4692 404.257 55.493C404.786 51.7068 405.575 50.8203 406.181 50.2478C406.787 49.6752 405.219 48.4009 403.737 50.728C403.218 51.5129 402.881 52.0393 402.65 52.381L402.208 53.0735C402.208 53.0735 401.582 47.1727 399.822 45.178C398.062 43.1833 395.06 48.5671 395.782 52.935C396.234 55.7054 396.975 57.303 397.898 58.2172L397.475 59.6301C397.245 60.3941 397.084 61.1758 396.994 61.9664C396.869 62.7883 396.744 63.6379 396.619 64.4967C396.544 64.9394 396.509 65.3873 396.513 65.8357C396.513 66.2882 396.513 66.7592 396.513 67.2024C396.513 67.6457 396.513 68.1259 396.513 68.6061C396.496 69.0783 396.522 69.551 396.59 70.0189C396.705 70.9424 396.83 71.9305 396.955 72.8817C397.08 73.8328 397.427 74.7747 397.658 75.7074C398.691 79.1557 400.439 82.3687 402.795 85.1544C403.659 86.1395 404.595 87.0652 405.594 87.9248C405.315 88.5527 405.171 88.959 405.171 88.959C406.733 90.3626 408.528 91.5079 410.481 92.3481C411.221 92.6806 411.962 92.9668 412.664 93.2162C413.367 93.4655 414.059 93.6779 414.685 93.8533C415.647 94.1119 416.464 94.3058 417.109 94.4351C417.532 94.5182 417.878 94.5736 418.119 94.6106L418.484 94.666C418.623 98.4705 418.51 102.28 418.148 106.071C418.051 107.105 417.946 108.111 417.821 109.09C417.763 109.58 417.705 110.069 417.638 110.549C417.243 113.421 416.753 116.09 416.253 118.39C416.166 118.777 416.089 119.156 416.002 119.525C415.839 120.264 415.666 120.966 415.502 121.631L415.358 122.213H414.396L414.271 114.64C414.254 114.222 414.071 113.826 413.76 113.532C413.449 113.239 413.033 113.07 412.597 113.061C412.385 113.055 412.174 113.09 411.976 113.164C411.779 113.238 411.599 113.349 411.447 113.491C411.295 113.634 411.175 113.804 411.093 113.992C411.011 114.18 410.97 114.381 410.971 114.585L411.327 135.187L412.684 214.604L412.876 225.834L413.078 237.839H460.398V237.026L460.013 203.523L459.888 192.294L459.763 181.037L459.628 169.752L459.503 158.431L459.368 147.081L459.109 124.29L459.003 115.222C458.995 114.807 458.819 114.412 458.511 114.12C458.204 113.828 457.79 113.664 457.358 113.661C457.147 113.655 456.938 113.69 456.742 113.763C456.546 113.837 456.368 113.948 456.218 114.089C456.068 114.231 455.949 114.4 455.869 114.587C455.789 114.774 455.749 114.974 455.751 115.176L455.838 122.711L450.72 122.637C450.48 122.13 450.249 121.622 450.028 121.105C449.441 119.719 448.912 118.334 448.45 116.894C447.988 115.453 447.584 114.068 447.238 112.683C445.831 106.989 445.082 101.164 445.006 95.3124C445.275 95.3124 445.554 95.3124 445.833 95.3124C446.658 95.2794 447.479 95.1806 448.286 95.0169C450.166 94.6141 451.988 93.9939 453.712 93.17L454.183 92.9391C454.049 91.8864 453.856 90.8521 453.645 89.8455H453.779C457.287 88.5805 460.519 86.7018 463.312 84.3048C464.873 82.9677 466.268 81.4617 467.468 79.8168C470.051 76.2253 471.715 72.0997 472.326 67.775C473.292 67.5081 474.158 66.9839 474.826 66.263C475.493 65.5421 475.934 64.6543 476.097 63.7025C476.867 59.8148 478.011 54.2371 475.664 55.3175ZM441.1 164.285H429.432C429.335 161.58 429.23 158.745 429.124 155.808H439.859C440.283 158.745 440.696 161.617 441.1 164.313V164.285ZM438.609 147.663C438.878 149.316 439.148 151.006 439.398 152.714L429.037 152.733C428.98 150.886 428.931 149.039 428.912 147.192C428.912 146.204 428.912 145.225 428.912 144.265H438.099C438.243 145.401 438.426 146.527 438.657 147.682L438.609 147.663ZM429.037 134.846C429.037 134.134 429.114 133.488 429.162 132.869H429.874C430.564 132.984 431.262 133.046 431.962 133.054C432.95 133.05 433.936 132.982 434.915 132.851H435.877C436.06 133.71 436.262 134.698 436.473 135.751C436.791 137.376 437.147 139.223 437.512 141.217H428.854C428.903 138.881 428.96 136.711 429.037 134.846ZM413.463 121.714V121.529H413.521C413.503 121.59 413.49 121.652 413.482 121.714H413.463ZM413.646 129.84L413.54 125.075C415.031 125.565 416.512 125.999 417.984 126.34C417.984 126.433 417.984 126.525 417.984 126.627C417.984 126.728 417.984 126.895 417.936 127.052V127.319C417.936 127.375 417.936 127.43 417.936 127.486C417.878 128.104 417.83 128.889 417.792 129.831L413.646 129.84ZM413.905 141.282L413.713 132.915H417.676C417.676 133.423 417.676 133.941 417.676 134.495C417.676 136.526 417.859 138.826 418.071 141.282H413.905ZM413.973 144.376H418.456C418.581 145.493 418.715 146.629 418.869 147.783C419.094 149.439 419.341 151.108 419.61 152.788H414.232L413.973 144.376ZM414.232 155.9H420.081C420.62 158.809 421.216 161.672 421.842 164.368H414.425L414.232 155.9ZM414.502 167.499H422.621C423.025 169.087 423.439 170.571 423.862 171.95C423.241 172.55 422.768 173.276 422.477 174.074C422.217 174.691 422.14 175.366 422.255 176.022H414.694L414.502 167.499ZM456.646 226.554L456.944 235.354H416.051L415.858 226.572L456.646 226.554ZM456.54 223.331H415.781L415.57 214.604H456.261L456.54 223.331ZM455.857 202.683L456.146 211.372H415.493L415.291 202.701L455.857 202.683ZM455.751 199.487L415.223 199.534L415.031 190.909L455.434 190.853L455.751 199.487ZM455.011 175.949H450.98C450.985 175.865 450.985 175.782 450.98 175.699C450.891 175.267 450.729 174.852 450.499 174.471C449.874 173.385 448.917 172.508 447.757 171.959C447.95 170.583 448.123 169.06 448.277 167.425H454.751L455.011 175.949ZM454.626 164.285H448.469C448.642 161.607 448.758 158.745 448.796 155.808H454.318L454.626 164.285ZM454.241 152.696H448.825C448.825 150.775 448.777 148.864 448.69 146.989C448.69 146.066 448.652 145.161 448.575 144.274H453.962L454.241 152.696ZM453.856 141.171H448.383C448.19 138.678 447.959 136.351 447.728 134.319C447.661 133.793 447.603 133.294 447.536 132.805H453.577L453.856 141.171ZM451.932 124.623C451.158 123.586 450.442 122.51 449.787 121.4H453.183L453.452 129.711H447.065C447.007 129.351 446.949 129.037 446.901 128.732V128.649C446.853 128.381 446.815 128.132 446.766 127.91C446.718 127.689 446.766 127.744 446.718 127.661C446.67 127.578 446.718 127.513 446.718 127.449C446.718 127.384 446.661 127.162 446.632 127.052C446.574 126.756 446.507 126.47 446.43 126.193C448.297 125.784 450.135 125.26 451.932 124.623ZM443.159 179.107H448.055C448.132 179.107 448.2 179.107 448.277 179.107H455.097L455.376 187.686L414.973 187.741L414.781 179.171L442.851 179.125L443.159 179.107ZM441.591 167.407C441.86 169.087 442.13 170.666 442.399 172.079C441.505 172.665 440.815 173.495 440.417 174.462C440.197 174.926 440.079 175.429 440.071 175.939H433.068C433.183 175.49 433.183 175.021 433.068 174.573C432.948 174.151 432.763 173.75 432.52 173.381C431.829 172.335 430.822 171.517 429.634 171.036C429.634 169.9 429.634 168.69 429.557 167.425L441.591 167.407Z" fill="black"/>
</g>
<g style="mix-blend-mode:multiply" opacity="0.15">
<path d="M392.889 162.787L381.461 158.946C380.073 158.541 378.578 158.646 377.266 159.239C375.954 159.833 374.919 160.874 374.361 162.159L369.33 173.462C369.032 174.062 368.867 174.714 368.847 175.378C368.826 176.042 368.95 176.703 369.211 177.319C369.472 177.934 369.864 178.49 370.361 178.952C370.859 179.414 371.451 179.771 372.101 180L383.519 183.842L383.692 183.888C383.885 184.368 384.096 184.904 384.298 185.532C384.595 186.652 385.297 187.635 386.28 188.302C385.809 190.445 385.366 192.919 384.722 195.57C384.529 196.438 384.356 197.324 384.144 198.22C383.933 199.116 383.673 199.993 383.442 200.889C383.029 202.69 382.423 204.426 381.913 206.125C381.099 208.503 380.136 210.831 379.027 213.097C378.475 212.114 377.871 211.158 377.218 210.234C371.293 215.978 366.829 218.804 363.558 220.134C363.738 219.002 363.854 217.861 363.905 216.717C365.682 215.935 367.308 214.871 368.714 213.568C371.168 211.311 372.997 208.502 374.034 205.395C374.253 205.507 374.498 205.565 374.746 205.562C377.459 205.515 380.999 198.7 378.084 197.564C377.508 197.334 376.871 197.289 376.266 197.435C376.266 197.02 376.266 196.604 376.266 196.189C375.612 188.136 371.071 184.581 361.528 185.938C358.798 186.32 356.23 187.42 354.111 189.117C351.992 190.814 350.404 193.041 349.523 195.551C349.523 195.718 349.456 195.875 349.408 196.041C348.824 195.79 348.167 195.745 347.551 195.911C344.338 196.632 345.627 203.77 348.244 204.176C348.661 204.237 349.086 204.137 349.427 203.899C349.284 207.046 349.913 210.181 351.264 213.051C352.024 214.792 353.419 216.208 355.189 217.031C355.148 218.198 355.006 219.359 354.766 220.503C350.341 218.933 344.328 213.522 344.328 213.522H344.28C344.146 213.309 344.011 213.088 343.847 212.848C343.578 212.45 343.333 212.037 343.116 211.61C341.873 209.355 340.935 206.956 340.327 204.472C340.173 203.752 339.913 203.05 339.807 202.283L339.403 200.012C339.259 199.245 339.24 198.451 339.134 197.685C339.028 196.918 338.922 196.152 338.922 195.376C338.922 194.6 338.845 193.861 338.816 193.123C338.787 192.384 338.71 191.673 338.739 190.971C338.768 190.269 338.739 189.41 338.739 188.69C338.878 188.673 339.017 188.648 339.153 188.616C340.115 188.358 341.394 187.6 342.481 185.513C342.943 184.636 343.347 183.916 343.732 183.325L345.233 183.823C346.62 184.228 348.115 184.123 349.427 183.53C350.739 182.936 351.774 181.895 352.332 180.61L357.334 169.353C357.631 168.753 357.794 168.101 357.814 167.437C357.834 166.773 357.71 166.113 357.449 165.498C357.188 164.883 356.797 164.327 356.301 163.865C355.804 163.403 355.212 163.045 354.564 162.815L343.145 158.973C341.756 158.568 340.26 158.673 338.946 159.266C337.633 159.86 336.596 160.901 336.036 162.187L331.015 173.49C330.718 174.089 330.554 174.741 330.533 175.404C330.513 176.067 330.637 176.727 330.896 177.342C331.156 177.957 331.546 178.513 332.042 178.976C332.537 179.438 333.128 179.797 333.776 180.028L334.68 180.333C334.68 180.499 334.593 180.665 334.555 180.822C333.958 183.814 334.064 185.735 334.641 186.935C334.228 188.062 333.795 189.373 333.362 190.823C333.131 191.592 332.945 192.372 332.804 193.16L332.323 195.671C332.14 196.53 332.111 197.417 332.005 198.312C331.9 199.208 331.803 200.159 331.813 201.037C331.823 201.914 331.813 202.884 331.813 203.807C331.813 204.73 331.948 205.654 332.015 206.531C332.327 209.8 333.144 213.005 334.439 216.043C334.68 216.647 334.96 217.236 335.276 217.807C335.513 218.302 335.777 218.786 336.065 219.256C336.594 220.088 337.027 220.725 337.258 221.103C336.296 222.738 335.699 223.957 335.699 223.957C339.22 231.769 344.723 233.709 344.723 233.709C344.617 235.121 344.521 236.525 344.415 237.91H373.274C373.669 232.979 374.236 229.756 374.236 229.756C379.133 229.885 382.971 225.481 382.971 225.481C382.971 225.019 382.971 224.557 382.884 224.105C383.478 223.401 384.027 222.664 384.529 221.898C384.906 221.331 385.249 220.746 385.559 220.143C385.963 219.471 386.326 218.778 386.646 218.065C388.217 214.667 389.363 211.102 390.061 207.445C391.295 200.991 391.619 194.406 391.023 187.868C392.331 186.852 393.158 184.765 393.072 180.813C393.023 179.528 392.736 178.261 392.225 177.073L395.669 169.344C395.97 168.743 396.137 168.088 396.159 167.421C396.18 166.755 396.056 166.091 395.794 165.473C395.532 164.856 395.138 164.298 394.638 163.835C394.137 163.372 393.542 163.015 392.889 162.787Z" fill="black"/>
</g>
<path d="M417.897 321.33C417.469 321.33 417.058 321.166 416.755 320.875C416.452 320.584 416.281 320.19 416.281 319.778V112.583C416.281 112.171 416.452 111.777 416.755 111.486C417.058 111.195 417.469 111.031 417.897 111.031C418.326 111.031 418.737 111.195 419.04 111.486C419.343 111.777 419.514 112.171 419.514 112.583V319.778C419.514 320.19 419.343 320.584 419.04 320.875C418.737 321.166 418.326 321.33 417.897 321.33Z" fill="#0E2533"/>
<path d="M462.054 321.33C461.625 321.33 461.214 321.166 460.911 320.875C460.608 320.584 460.438 320.19 460.438 319.778V112.583C460.438 112.171 460.608 111.777 460.911 111.486C461.214 111.195 461.625 111.031 462.054 111.031C462.482 111.031 462.893 111.195 463.196 111.486C463.499 111.777 463.67 112.171 463.67 112.583V319.778C463.67 320.19 463.499 320.584 463.196 320.875C462.893 321.166 462.482 321.33 462.054 321.33Z" fill="#0E2533"/>
<path d="M462.052 123.251H417.897C417.469 123.251 417.058 123.088 416.755 122.797C416.452 122.506 416.281 122.111 416.281 121.7C416.281 121.288 416.452 120.894 416.755 120.603C417.058 120.312 417.469 120.148 417.897 120.148H462.052C462.481 120.148 462.892 120.312 463.195 120.603C463.498 120.894 463.668 121.288 463.668 121.7C463.668 122.111 463.498 122.506 463.195 122.797C462.892 123.088 462.481 123.251 462.052 123.251Z" fill="#0E2533"/>
<path d="M462.052 134.767H417.897C417.469 134.767 417.058 134.603 416.755 134.312C416.452 134.022 416.281 133.627 416.281 133.215C416.281 132.804 416.452 132.409 416.755 132.118C417.058 131.828 417.469 131.664 417.897 131.664H462.052C462.481 131.664 462.892 131.828 463.195 132.118C463.498 132.409 463.668 132.804 463.668 133.215C463.668 133.627 463.498 134.022 463.195 134.312C462.892 134.603 462.481 134.767 462.052 134.767Z" fill="#0E2533"/>
<path d="M462.052 146.267H417.897C417.469 146.267 417.058 146.103 416.755 145.812C416.452 145.522 416.281 145.127 416.281 144.715C416.281 144.304 416.452 143.909 416.755 143.618C417.058 143.328 417.469 143.164 417.897 143.164H462.052C462.481 143.164 462.892 143.328 463.195 143.618C463.498 143.909 463.668 144.304 463.668 144.715C463.668 145.127 463.498 145.522 463.195 145.812C462.892 146.103 462.481 146.267 462.052 146.267Z" fill="#0E2533"/>
<path d="M462.052 157.793H417.897C417.675 157.81 417.452 157.782 417.241 157.712C417.031 157.642 416.838 157.53 416.675 157.385C416.511 157.24 416.381 157.064 416.291 156.868C416.202 156.672 416.156 156.461 416.156 156.247C416.156 156.033 416.202 155.821 416.291 155.625C416.381 155.43 416.511 155.253 416.675 155.108C416.838 154.963 417.031 154.852 417.241 154.781C417.452 154.711 417.675 154.683 417.897 154.7H462.052C462.274 154.683 462.497 154.711 462.707 154.781C462.918 154.852 463.111 154.963 463.274 155.108C463.438 155.253 463.568 155.43 463.657 155.625C463.746 155.821 463.792 156.033 463.792 156.247C463.792 156.461 463.746 156.672 463.657 156.868C463.568 157.064 463.438 157.24 463.274 157.385C463.111 157.53 462.918 157.642 462.707 157.712C462.497 157.782 462.274 157.81 462.052 157.793Z" fill="#0E2533"/>
<path d="M462.052 169.356H417.897C417.675 169.372 417.452 169.345 417.241 169.274C417.031 169.204 416.838 169.093 416.675 168.948C416.511 168.803 416.381 168.626 416.291 168.43C416.202 168.235 416.156 168.023 416.156 167.809C416.156 167.595 416.202 167.384 416.291 167.188C416.381 166.992 416.511 166.816 416.675 166.671C416.838 166.525 417.031 166.414 417.241 166.344C417.452 166.274 417.675 166.246 417.897 166.262H462.052C462.274 166.246 462.497 166.274 462.707 166.344C462.918 166.414 463.111 166.525 463.274 166.671C463.438 166.816 463.568 166.992 463.657 167.188C463.746 167.384 463.792 167.595 463.792 167.809C463.792 168.023 463.746 168.235 463.657 168.43C463.568 168.626 463.438 168.803 463.274 168.948C463.111 169.093 462.918 169.204 462.707 169.274C462.497 169.345 462.274 169.372 462.052 169.356Z" fill="#0E2533"/>
<path d="M462.052 180.822H417.897C417.469 180.822 417.058 180.658 416.755 180.367C416.452 180.076 416.281 179.682 416.281 179.27C416.281 178.859 416.452 178.464 416.755 178.173C417.058 177.882 417.469 177.719 417.897 177.719H462.052C462.481 177.719 462.892 177.882 463.195 178.173C463.498 178.464 463.668 178.859 463.668 179.27C463.668 179.682 463.498 180.076 463.195 180.367C462.892 180.658 462.481 180.822 462.052 180.822Z" fill="#0E2533"/>
<path d="M462.052 192.337H417.897C417.469 192.337 417.058 192.174 416.755 191.883C416.452 191.592 416.281 191.197 416.281 190.786C416.281 190.374 416.452 189.98 416.755 189.689C417.058 189.398 417.469 189.234 417.897 189.234H462.052C462.481 189.234 462.892 189.398 463.195 189.689C463.498 189.98 463.668 190.374 463.668 190.786C463.668 191.197 463.498 191.592 463.195 191.883C462.892 192.174 462.481 192.337 462.052 192.337Z" fill="#0E2533"/>
<path d="M462.052 203.853H417.897C417.469 203.853 417.058 203.689 416.755 203.398C416.452 203.107 416.281 202.713 416.281 202.301C416.281 201.89 416.452 201.495 416.755 201.204C417.058 200.913 417.469 200.75 417.897 200.75H462.052C462.481 200.75 462.892 200.913 463.195 201.204C463.498 201.495 463.668 201.89 463.668 202.301C463.668 202.713 463.498 203.107 463.195 203.398C462.892 203.689 462.481 203.853 462.052 203.853Z" fill="#0E2533"/>
<path d="M462.052 215.364H417.897C417.675 215.38 417.452 215.353 417.241 215.282C417.031 215.212 416.838 215.101 416.675 214.956C416.511 214.81 416.381 214.634 416.291 214.438C416.202 214.242 416.156 214.031 416.156 213.817C416.156 213.603 416.202 213.392 416.291 213.196C416.381 213 416.511 212.824 416.675 212.679C416.838 212.533 417.031 212.422 417.241 212.352C417.452 212.282 417.675 212.254 417.897 212.27H462.052C462.274 212.254 462.497 212.282 462.707 212.352C462.918 212.422 463.111 212.533 463.274 212.679C463.438 212.824 463.568 213 463.657 213.196C463.746 213.392 463.792 213.603 463.792 213.817C463.792 214.031 463.746 214.242 463.657 214.438C463.568 214.634 463.438 214.81 463.274 214.956C463.111 215.101 462.918 215.212 462.707 215.282C462.497 215.353 462.274 215.38 462.052 215.364Z" fill="#0E2533"/>
<path d="M462.052 226.872H417.897C417.675 226.888 417.452 226.86 417.241 226.79C417.031 226.72 416.838 226.609 416.675 226.463C416.511 226.318 416.381 226.142 416.291 225.946C416.202 225.75 416.156 225.539 416.156 225.325C416.156 225.111 416.202 224.9 416.291 224.704C416.381 224.508 416.511 224.332 416.675 224.186C416.838 224.041 417.031 223.93 417.241 223.86C417.452 223.789 417.675 223.762 417.897 223.778H462.052C462.274 223.762 462.497 223.789 462.707 223.86C462.918 223.93 463.111 224.041 463.274 224.186C463.438 224.332 463.568 224.508 463.657 224.704C463.746 224.9 463.792 225.111 463.792 225.325C463.792 225.539 463.746 225.75 463.657 225.946C463.568 226.142 463.438 226.318 463.274 226.463C463.111 226.609 462.918 226.72 462.707 226.79C462.497 226.86 462.274 226.888 462.052 226.872Z" fill="#0E2533"/>
<path d="M462.052 238.392H417.897C417.469 238.392 417.058 238.228 416.755 237.937C416.452 237.647 416.281 237.252 416.281 236.84C416.281 236.429 416.452 236.034 416.755 235.743C417.058 235.453 417.469 235.289 417.897 235.289H462.052C462.481 235.289 462.892 235.453 463.195 235.743C463.498 236.034 463.668 236.429 463.668 236.84C463.668 237.252 463.498 237.647 463.195 237.937C462.892 238.228 462.481 238.392 462.052 238.392Z" fill="#0E2533"/>
<path d="M462.052 249.908H417.897C417.469 249.908 417.058 249.744 416.755 249.453C416.452 249.162 416.281 248.768 416.281 248.356C416.281 247.945 416.452 247.55 416.755 247.259C417.058 246.968 417.469 246.805 417.897 246.805H462.052C462.481 246.805 462.892 246.968 463.195 247.259C463.498 247.55 463.668 247.945 463.668 248.356C463.668 248.768 463.498 249.162 463.195 249.453C462.892 249.744 462.481 249.908 462.052 249.908Z" fill="#0E2533"/>
<path d="M462.052 261.423H417.897C417.469 261.423 417.058 261.26 416.755 260.969C416.452 260.678 416.281 260.283 416.281 259.872C416.281 259.46 416.452 259.066 416.755 258.775C417.058 258.484 417.469 258.32 417.897 258.32H462.052C462.481 258.32 462.892 258.484 463.195 258.775C463.498 259.066 463.668 259.46 463.668 259.872C463.668 260.283 463.498 260.678 463.195 260.969C462.892 261.26 462.481 261.423 462.052 261.423Z" fill="#0E2533"/>
<path d="M462.052 272.926H417.897C417.675 272.943 417.452 272.915 417.241 272.845C417.031 272.775 416.838 272.663 416.675 272.518C416.511 272.373 416.381 272.197 416.291 272.001C416.202 271.805 416.156 271.593 416.156 271.38C416.156 271.166 416.202 270.954 416.291 270.758C416.381 270.562 416.511 270.386 416.675 270.241C416.838 270.096 417.031 269.985 417.241 269.914C417.452 269.844 417.675 269.816 417.897 269.833H462.052C462.274 269.816 462.497 269.844 462.707 269.914C462.918 269.985 463.111 270.096 463.274 270.241C463.438 270.386 463.568 270.562 463.657 270.758C463.746 270.954 463.792 271.166 463.792 271.38C463.792 271.593 463.746 271.805 463.657 272.001C463.568 272.197 463.438 272.373 463.274 272.518C463.111 272.663 462.918 272.775 462.707 272.845C462.497 272.915 462.274 272.943 462.052 272.926Z" fill="#0E2533"/>
<path d="M462.052 284.447H417.897C417.469 284.447 417.058 284.283 416.755 283.992C416.452 283.701 416.281 283.307 416.281 282.895C416.281 282.484 416.452 282.089 416.755 281.798C417.058 281.507 417.469 281.344 417.897 281.344H462.052C462.481 281.344 462.892 281.507 463.195 281.798C463.498 282.089 463.668 282.484 463.668 282.895C463.668 283.307 463.498 283.701 463.195 283.992C462.892 284.283 462.481 284.447 462.052 284.447Z" fill="#0E2533"/>
<path d="M462.052 295.962H417.897C417.469 295.962 417.058 295.799 416.755 295.508C416.452 295.217 416.281 294.822 416.281 294.411C416.281 293.999 416.452 293.605 416.755 293.314C417.058 293.023 417.469 292.859 417.897 292.859H462.052C462.481 292.859 462.892 293.023 463.195 293.314C463.498 293.605 463.668 293.999 463.668 294.411C463.668 294.822 463.498 295.217 463.195 295.508C462.892 295.799 462.481 295.962 462.052 295.962Z" fill="#0E2533"/>
<path d="M462.052 307.47H417.897C417.469 307.47 417.058 307.307 416.755 307.016C416.452 306.725 416.281 306.33 416.281 305.919C416.281 305.507 416.452 305.113 416.755 304.822C417.058 304.531 417.469 304.367 417.897 304.367H462.052C462.481 304.367 462.892 304.531 463.195 304.822C463.498 305.113 463.668 305.507 463.668 305.919C463.668 306.33 463.498 306.725 463.195 307.016C462.892 307.307 462.481 307.47 462.052 307.47Z" fill="#0E2533"/>
<path d="M408.836 57.3398C409.586 56.9334 410.452 56.0377 410.76 54.0615C411.327 50.3215 412.116 49.4442 412.732 48.844C413.348 48.2437 411.885 46.9971 410.346 49.3703C409.836 50.1645 409.49 50.6816 409.269 51.0325L408.836 57.3398Z" fill="#FFBE8F"/>
<path d="M466.573 26.3203H201.039V50.6718H466.573V26.3203Z" fill="#8BC9D9"/>
<path d="M441.079 30.9874H443.6C444.171 30.9874 444.654 31.0746 445.048 31.2489C445.446 31.4232 445.747 31.6812 445.953 32.0229C446.162 32.361 446.267 32.7777 446.267 33.2727C446.267 33.6213 446.195 33.9403 446.052 34.2297C445.913 34.5156 445.711 34.7596 445.446 34.9618C445.184 35.1606 444.87 35.3087 444.504 35.4063L444.222 35.5162H441.853L441.843 34.6951H443.631C443.994 34.6951 444.295 34.6324 444.536 34.5069C444.776 34.3779 444.958 34.2053 445.08 33.9892C445.202 33.773 445.263 33.5342 445.263 33.2727C445.263 32.9799 445.205 32.7236 445.09 32.504C444.975 32.2843 444.794 32.1152 444.546 31.9967C444.302 31.8747 443.987 31.8137 443.6 31.8137H442.088V38.6016H441.079V30.9874ZM445.529 38.6016L443.678 35.1501L444.729 35.1449L446.607 38.5388V38.6016H445.529ZM452.275 36.1803H453.28C453.227 36.6614 453.089 37.092 452.866 37.472C452.643 37.852 452.328 38.1536 451.92 38.3767C451.512 38.5963 451.003 38.7062 450.393 38.7062C449.947 38.7062 449.54 38.6225 449.174 38.4551C448.812 38.2878 448.5 38.0507 448.238 37.7439C447.977 37.4336 447.775 37.0623 447.632 36.63C447.492 36.1943 447.422 35.7097 447.422 35.1762V34.418C447.422 33.8846 447.492 33.4017 447.632 32.9694C447.775 32.5336 447.979 32.1606 448.244 31.8503C448.512 31.54 448.834 31.3012 449.211 31.1338C449.587 30.9665 450.011 30.8828 450.482 30.8828C451.057 30.8828 451.543 30.9909 451.941 31.2071C452.338 31.4232 452.647 31.723 452.866 32.1065C453.089 32.4865 453.227 32.9276 453.28 33.4296H452.275C452.227 33.074 452.136 32.7689 452.004 32.5144C451.871 32.2564 451.683 32.0577 451.439 31.9183C451.195 31.7788 450.876 31.7091 450.482 31.7091C450.144 31.7091 449.845 31.7736 449.587 31.9026C449.333 32.0316 449.119 32.2146 448.944 32.4517C448.773 32.6887 448.644 32.9729 448.557 33.3041C448.47 33.6353 448.427 34.0031 448.427 34.4075V35.1762C448.427 35.5493 448.465 35.8997 448.542 36.2274C448.622 36.5551 448.742 36.8427 448.902 37.0902C449.063 37.3378 449.267 37.533 449.514 37.6759C449.762 37.8154 450.055 37.8851 450.393 37.8851C450.822 37.8851 451.163 37.8171 451.418 37.6812C451.672 37.5452 451.864 37.35 451.993 37.0955C452.126 36.841 452.22 36.5359 452.275 36.1803ZM446.052 47.2611V48.0821H441.932V47.2611H446.052ZM442.088 43.9874V51.6016H441.079V43.9874H442.088ZM446.931 43.9874V51.6016H445.927V43.9874H446.931Z" fill="#005C91"/>
<path d="M458.465 42.3672H209.141V43.5215H458.465V42.3672Z" fill="#005C91"/>
<path d="M409.236 51.0306L408.784 51.714C408.784 51.714 408.284 45.9239 406.61 44.0031C404.936 42.0823 401.935 47.4476 402.551 51.7232C403.32 57.0515 405.292 58.1043 407.553 57.6795C407.994 57.673 408.425 57.5551 408.804 57.3378L409.236 51.0306Z" fill="#FFBE8F"/>
<path d="M421.988 40.4661C421.858 40.4658 421.734 40.4159 421.642 40.3276L418.458 37.2986C418.37 37.2123 418.32 37.0963 418.32 36.9754C418.32 36.8546 418.37 36.7385 418.458 36.6522C418.503 36.6089 418.556 36.5746 418.614 36.5511C418.673 36.5277 418.736 36.5156 418.799 36.5156C418.863 36.5156 418.926 36.5277 418.984 36.5511C419.043 36.5746 419.096 36.6089 419.141 36.6522L422.286 39.6627C422.375 39.7505 422.425 39.8681 422.425 39.9905C422.425 40.1129 422.375 40.2305 422.286 40.3183C422.209 40.4003 422.103 40.4528 421.988 40.4661Z" fill="#005C91"/>
<path d="M415.839 30.9469C416.6 30.9476 417.337 31.2016 417.925 31.6657C418.513 32.1297 418.915 32.7751 419.063 33.4918C419.211 34.2085 419.095 34.9523 418.736 35.5963C418.376 36.2404 417.795 36.7449 417.092 37.0239C416.388 37.303 415.606 37.3393 414.878 37.1266C414.15 36.9139 413.521 36.4655 413.098 35.8577C412.676 35.2499 412.486 34.5203 412.562 33.7932C412.637 33.0662 412.972 32.3866 413.511 31.8704C413.816 31.5764 414.179 31.3434 414.578 31.1849C414.978 31.0264 415.406 30.9455 415.839 30.9469ZM415.839 30.0234C414.855 30.0233 413.901 30.3507 413.14 30.95C412.38 31.5493 411.859 32.3832 411.667 33.3097C411.476 34.2362 411.625 35.1979 412.089 36.0308C412.553 36.8636 413.304 37.5162 414.213 37.8771C415.123 38.238 416.134 38.285 417.076 38.01C418.017 37.7351 418.83 37.1551 419.376 36.3692C419.922 35.5832 420.166 34.6399 420.069 33.6999C419.971 32.76 419.537 31.8817 418.84 31.2147C418.446 30.8362 417.978 30.5362 417.463 30.3317C416.948 30.1273 416.396 30.0225 415.839 30.0234Z" fill="#005C91"/>
<path d="M419.562 38.615C419.309 38.6115 419.067 38.512 418.889 38.338L418.158 37.6454C418.068 37.5593 417.997 37.4571 417.949 37.3446C417.9 37.2321 417.875 37.1115 417.875 36.9897C417.875 36.868 417.9 36.7474 417.949 36.6349C417.997 36.5224 418.068 36.4202 418.158 36.3341C418.248 36.248 418.354 36.1797 418.471 36.1331C418.588 36.0865 418.714 36.0625 418.841 36.0625C418.968 36.0625 419.093 36.0865 419.211 36.1331C419.328 36.1797 419.434 36.248 419.524 36.3341L420.245 37.0359C420.425 37.2089 420.525 37.443 420.525 37.6869C420.525 37.9309 420.425 38.165 420.245 38.338C420.156 38.4252 420.05 38.4947 419.933 38.5422C419.816 38.5898 419.69 38.6145 419.562 38.615Z" fill="#005C91"/>
<path d="M432.712 55.5627C428.758 58.1761 423.208 64.0123 425.064 73.0345C426.228 78.723 434.184 80.0066 441.139 76.3035C443.985 74.8161 446.287 72.527 447.735 69.7447C449.183 66.9624 449.708 63.8208 449.239 60.7433C448.383 55.9136 439.042 51.3795 432.712 55.5627Z" fill="#FFBE8F"/>
<path d="M434.962 87.6622C434.68 87.6634 434.399 87.6324 434.125 87.5698C433.138 87.3496 432.281 86.7644 431.741 85.9414C431.201 85.1184 431.02 84.124 431.239 83.1742C432.326 78.4553 431.807 76.59 431.797 76.5715C431.818 76.6551 431.851 76.7358 431.893 76.8116L438.954 73.875C439.31 74.6692 440.359 77.7997 438.752 84.7625C438.563 85.5898 438.083 86.3293 437.393 86.8572C436.702 87.3851 435.844 87.6693 434.962 87.6622Z" fill="#FFBE8F"/>
<path d="M432.621 59.1742C432.621 59.1742 429.841 63.3297 428.773 64.8165C428.773 64.8165 430.64 66.174 431.9 64.5949C433.16 63.0158 434.084 60.0515 436.71 60.0976C438.422 60.0976 438.182 61.8522 437.431 63.2559C436.286 65.389 434.449 66.488 433.275 66.3494C433.275 66.3494 430.188 71.0683 436.421 74.4297C442.655 77.791 447.234 73.4046 449.889 68.538C452.544 63.6714 452.476 56.7824 447.109 53.0424C441.741 49.3024 437.345 49.6903 430.659 50.1612C430.62 50.1612 428.167 54.4923 432.621 59.1742Z" fill="#003C5E"/>
<path d="M474.253 61.6719C473.169 64.3048 471.836 66.8365 470.27 69.235C466.97 74.2529 461.894 77.9585 455.975 79.67C454.399 80.1308 452.792 80.4886 451.165 80.7412C447.423 81.3322 445.932 82.4127 445.759 85.2939C445.669 85.9063 445.768 86.5306 446.046 87.089C446.323 87.6474 446.765 88.115 447.317 88.4336C448.462 89.0708 450.251 89.3017 452.675 88.8953C454.758 88.5189 456.797 87.9499 458.765 87.1962C462.262 85.8744 465.479 83.9531 468.259 81.5262C469.82 80.1586 471.217 78.6285 472.425 76.9643C475.524 72.6576 477.334 67.6175 477.658 62.3922L474.253 61.6719Z" fill="#FFBE8F"/>
<path d="M405.35 54.3906C404.936 55.508 404.513 56.8193 404.07 58.2784C403.84 59.0346 403.67 59.8063 403.56 60.587C403.426 61.4089 403.281 62.2492 403.147 63.0988C403.066 63.5348 403.024 63.9766 403.022 64.4194C403.022 64.8718 403.022 65.3428 402.974 65.7768V67.1528C402.947 67.618 402.963 68.0847 403.022 68.5472C403.118 69.4707 403.224 70.3941 403.32 71.373C403.416 72.3518 403.743 73.2199 403.955 74.1433C404.889 77.5027 406.526 80.6446 408.765 83.3779C409.607 84.3669 410.527 85.293 411.516 86.1483C411.92 86.4899 412.266 86.8039 412.574 87.0717L413.353 87.6073C415.345 88.974 417.115 89.4542 418.413 89.2141C419.047 89.109 419.632 88.8211 420.091 88.3889C420.549 87.9567 420.86 87.4007 420.982 86.7947C421.409 85.7117 421.409 84.5163 420.982 83.4333C420.343 82.3643 419.429 81.4708 418.327 80.8384L417.798 80.4967C417.576 80.349 417.336 80.1458 417.047 79.9334C416.35 79.3949 415.682 78.8216 415.046 78.2158C413.299 76.4021 411.913 74.2955 410.958 72.0009C410.718 71.3268 410.39 70.6712 410.188 69.9509L409.611 67.7715C409.502 67.4068 409.431 67.0324 409.4 66.6541L409.236 65.5183L409.063 64.3824C408.991 64.0108 408.952 63.6338 408.948 63.2558C408.948 62.4986 408.88 61.7506 408.842 61.0303C408.773 60.3243 408.757 59.6145 408.794 58.9063C408.842 57.5304 408.851 56.2468 408.794 55.1202L405.35 54.3906Z" fill="#FFBE8F"/>
<path d="M425.68 126.662C425.68 126.662 429.528 134.973 438.272 134.973C447.016 134.973 452.249 130.734 450.778 121.851C450.826 121.841 432.731 118.877 425.68 126.662Z" fill="#005C91"/>
<path d="M452.936 175.098C454.438 166.489 455.133 157.767 455.014 149.038C455.014 144.338 454.735 139.887 454.436 136.332C454.138 132.776 453.715 130.117 453.475 129.027C452.436 123.366 449.675 121.196 445.779 122.471C441.883 123.745 440.584 125.952 441.546 131.022C441.729 132.01 442.239 134.402 442.806 137.698C443.374 140.995 444.047 145.169 444.624 149.657C445.875 158.615 446.798 168.754 447.953 175.043L452.936 175.098Z" fill="#005C91"/>
<path d="M434.702 175.813C434.991 169.173 434.587 158.572 434.702 149.199C434.75 144.508 434.933 140.14 435.203 136.741C435.472 133.343 435.828 130.951 435.972 130C436.338 127.507 436.318 125.974 435.693 124.977C435.32 124.447 434.873 123.969 434.366 123.555C434.066 123.267 433.789 122.959 433.538 122.631C433.241 122.273 432.92 121.933 432.576 121.615C432.232 121.28 431.844 120.988 431.422 120.747C431.039 120.505 430.592 120.37 430.133 120.359C429.089 120.391 428.09 120.777 427.314 121.449C425.592 122.853 424.477 125.263 424.024 128.412C423.7 131.041 423.552 133.688 423.582 136.335C423.61 140.791 423.879 145.241 424.39 149.67C425.458 159.44 427.661 170.051 429.796 176.45L434.702 175.813Z" fill="#005C91"/>
<path d="M452.936 175.098C454.438 166.489 455.133 157.767 455.014 149.038C455.014 144.338 454.735 139.887 454.436 136.332C454.138 132.776 453.715 130.117 453.475 129.027C452.436 123.366 449.675 121.196 445.779 122.471C441.883 123.745 440.584 125.952 441.546 131.022C441.729 132.01 442.239 134.402 442.806 137.698C443.374 140.995 444.047 145.169 444.624 149.657C445.875 158.615 446.798 168.754 447.953 175.043L452.936 175.098Z" fill="#005C91"/>
<path d="M453.73 130.676C453.624 129.947 453.528 129.365 453.451 128.987C453.21 126.952 452.362 125.028 451.008 123.446C451.008 122.938 450.911 122.412 450.825 121.857C450.825 121.857 441.263 120.297 433.336 122.43C433.095 122.158 432.838 121.899 432.566 121.654C432.222 121.319 431.834 121.027 431.412 120.786C431.029 120.544 430.582 120.409 430.123 120.398C429.079 120.43 428.08 120.816 427.304 121.488C425.583 122.892 424.467 125.302 424.015 128.451C423.947 128.857 423.88 129.467 423.812 130.224C433.603 132.675 443.864 132.831 453.73 130.676Z" fill="#004973"/>
<path d="M431.131 81.2942C432.169 81.4512 445.012 86.0039 455.545 77.1572C457.329 81.3774 458.542 85.7999 459.153 90.3164C459.153 90.3164 454.391 92.939 450.062 92.8374C450.062 92.8374 442.914 112.249 452.39 125.131C452.39 125.131 445.772 132.464 424.974 125.131C428.659 114.173 424.04 104.103 423.954 92.5881C423.954 92.5881 415.845 91.6647 411.016 87.1397C411.016 87.1397 414.383 78.4038 418.625 75.9844C418.625 75.9844 427.167 80.7032 431.131 81.2942Z" fill="#FF595F"/>
<path d="M450.063 92.8335C454.392 92.9351 459.154 90.3125 459.154 90.3125C459.154 90.3125 453.382 92.4642 448.091 90.9774C448.091 90.9774 439.741 113.989 451.91 124.664C442.435 111.782 450.063 92.8335 450.063 92.8335Z" fill="#CC3F44"/>
<path d="M427.263 91.5732C415.614 90.6498 411.016 87.1406 411.016 87.1406C415.826 91.684 423.954 92.589 423.954 92.589C424.04 104.104 429.14 113.712 425.455 124.67C433.949 113.691 427.263 91.5732 427.263 91.5732Z" fill="#CC3F44"/>
<path d="M474.312 64.5373C474.312 64.5373 471.878 63.66 472.898 60.0124C473.918 56.3647 473.562 55.2381 473.235 54.4717C472.908 53.7052 474.764 53.1234 475.207 55.8568L475.64 58.6272C475.64 58.6272 478.526 53.4928 480.825 52.3662C483.124 51.2396 481.979 56.8172 481.2 60.6773C480.421 64.5373 476.178 65.7932 474.312 64.5373Z" fill="#FFBE8F"/>
<path d="M450.375 173.24C449.368 173.237 448.383 173.524 447.548 174.064C446.712 174.604 446.065 175.372 445.69 176.269C445.282 177.009 445.169 177.866 445.372 178.68C445.542 179.307 445.926 179.862 446.464 180.256C447.001 180.649 447.66 180.858 448.335 180.85H453.299C453.741 180.855 454.179 180.768 454.582 180.593C454.984 180.419 455.343 180.163 455.632 179.842C455.92 179.52 456.132 179.143 456.253 178.734C456.373 178.326 456.399 177.898 456.329 177.479C456.249 177.055 456.097 176.646 455.877 176.269C455.355 175.314 454.56 174.522 453.585 173.986C452.611 173.449 451.497 173.191 450.375 173.24Z" fill="#003C5E"/>
<path d="M431.922 172.502C430.918 172.559 429.954 172.904 429.155 173.491C428.356 174.079 427.758 174.882 427.44 175.799C427.087 176.564 427.029 177.425 427.276 178.227C427.487 178.843 427.907 179.373 428.468 179.733C429.029 180.093 429.7 180.262 430.374 180.213L435.328 179.917C435.769 179.898 436.201 179.786 436.592 179.589C436.983 179.393 437.325 179.116 437.593 178.779C437.861 178.441 438.048 178.052 438.142 177.638C438.236 177.223 438.234 176.794 438.137 176.38C438.029 175.963 437.854 175.564 437.617 175.198C437.033 174.276 436.187 173.532 435.179 173.055C434.17 172.577 433.04 172.385 431.922 172.502Z" fill="#003C5E"/>
<path d="M198.163 170.326C201.049 174.019 204.444 181.195 199.75 189.21C196.787 194.271 188.812 193.098 183.396 187.502C181.176 185.234 179.734 182.367 179.262 179.288C178.791 176.209 179.314 173.065 180.761 170.279C183.166 165.948 193.507 164.443 198.163 170.326Z" fill="#FFBE8F"/>
<path d="M193.088 201.225C192.214 201.224 191.366 200.937 190.684 200.412C190.002 199.886 189.527 199.154 189.337 198.334C187.73 191.362 188.779 188.232 189.135 187.438L196.195 190.383C196.238 190.308 196.27 190.227 196.292 190.143C196.292 190.143 195.763 191.99 196.85 196.737C197.071 197.688 196.892 198.685 196.352 199.51C195.811 200.335 194.953 200.921 193.964 201.142C193.676 201.199 193.382 201.227 193.088 201.225Z" fill="#FFBE8F"/>
<path d="M156.146 169.602C155.165 174.751 155.664 180.06 157.589 184.959C158.338 186.851 159.306 188.657 160.474 190.342C162.589 193.342 165.255 195.945 168.343 198.026C170.067 199.212 171.907 200.236 173.836 201.082C176.078 202.006 177.877 202.227 179.146 201.867C179.764 201.685 180.311 201.332 180.72 200.852C181.129 200.372 181.381 199.787 181.445 199.171C181.994 196.336 180.82 194.95 177.338 193.51C175.829 192.89 174.364 192.177 172.951 191.377C167.638 188.348 163.642 183.58 161.696 177.95C160.794 175.26 160.15 172.496 159.772 169.694L156.146 169.602Z" fill="#FFBE8F"/>
<path d="M242.055 187.123C242.199 186.301 242.776 185.212 244.604 184.26C248.057 182.46 248.663 181.435 249.019 180.677C249.375 179.92 251.088 180.825 249.327 183.014L248.077 184.556L242.055 187.123Z" fill="#FFBE8F"/>
<path d="M249.292 183.376C249.077 183.373 248.872 183.29 248.72 183.143C248.569 182.996 248.484 182.797 248.484 182.591V171.057C248.487 170.852 248.573 170.656 248.724 170.511C248.875 170.366 249.079 170.284 249.292 170.281C249.506 170.284 249.71 170.366 249.861 170.511C250.012 170.656 250.098 170.852 250.101 171.057V182.591C250.101 182.797 250.016 182.996 249.864 183.143C249.713 183.29 249.508 183.373 249.292 183.376Z" fill="#003757"/>
<path d="M248.484 171.057C248.487 170.852 248.573 170.656 248.724 170.511C248.875 170.366 249.079 170.284 249.292 170.281H260.403C260.617 170.284 260.821 170.366 260.972 170.511C261.123 170.656 261.209 170.852 261.211 171.057C261.211 171.264 261.126 171.462 260.975 171.609C260.824 171.756 260.618 171.839 260.403 171.842H249.292C249.077 171.839 248.872 171.756 248.72 171.609C248.569 171.462 248.484 171.264 248.484 171.057Z" fill="#003757"/>
<path d="M260.402 164.109C260.617 164.112 260.823 164.196 260.974 164.343C261.125 164.489 261.21 164.688 261.21 164.894V171.063C261.21 171.27 261.125 171.468 260.974 171.615C260.823 171.762 260.617 171.846 260.402 171.848C260.295 171.848 260.189 171.828 260.09 171.788C259.992 171.748 259.902 171.69 259.827 171.617C259.752 171.544 259.693 171.458 259.653 171.363C259.612 171.267 259.593 171.166 259.594 171.063V164.894C259.593 164.792 259.612 164.69 259.653 164.595C259.693 164.499 259.752 164.413 259.827 164.34C259.902 164.267 259.992 164.209 260.09 164.169C260.189 164.13 260.295 164.109 260.402 164.109Z" fill="#003757"/>
<path d="M261.214 164.894C261.212 165.099 261.126 165.295 260.975 165.44C260.824 165.585 260.619 165.668 260.406 165.67H252.566C252.352 165.668 252.148 165.585 251.997 165.44C251.846 165.295 251.76 165.099 251.758 164.894C251.758 164.688 251.843 164.489 251.994 164.343C252.145 164.196 252.351 164.112 252.566 164.109H260.406C260.621 164.112 260.827 164.196 260.978 164.343C261.129 164.489 261.214 164.688 261.214 164.894Z" fill="#003757"/>
<path d="M255.912 162.312H242.665C241.72 162.312 240.953 163.048 240.953 163.956V165.822C240.953 166.729 241.72 167.465 242.665 167.465H255.912C256.858 167.465 257.624 166.729 257.624 165.822V163.956C257.624 163.048 256.858 162.312 255.912 162.312Z" fill="#70C6DB"/>
<path d="M249.297 196.136C248.625 196.134 247.98 195.876 247.504 195.419C247.029 194.963 246.76 194.344 246.758 193.698V179.274C246.76 178.628 247.029 178.009 247.504 177.553C247.98 177.096 248.625 176.838 249.297 176.836C249.97 176.838 250.615 177.096 251.09 177.553C251.566 178.009 251.835 178.628 251.837 179.274V193.689C251.837 194.336 251.57 194.957 251.094 195.416C250.618 195.875 249.972 196.134 249.297 196.136Z" fill="#005C91"/>
<path d="M248.071 184.556L247.562 185.202C247.562 185.202 253.391 183.66 255.854 184.501C258.317 185.341 254.093 189.903 249.707 190.817C244.224 191.962 242.511 190.549 242.146 188.37C242.004 187.969 241.971 187.54 242.05 187.123L248.071 184.556Z" fill="#FFBE8F"/>
<path d="M244.492 186.195C239.682 187.267 232.159 189.113 225.32 190.295C218.48 191.477 212.391 192.078 210.832 192.244C206.792 192.706 205.253 193.999 205.339 196.861C205.426 199.724 207.475 200.971 211.862 200.472C217.013 199.758 222.098 198.658 227.07 197.184C234.112 195.134 241.635 191.995 245.858 189.326L244.492 186.195Z" fill="#FFBE8F"/>
<path d="M204.726 303.37C205.995 299.57 206.894 295.666 207.41 291.706C208.033 287.083 208.409 282.432 208.536 277.772C208.736 271.304 208.572 264.83 208.045 258.379C207.468 252.967 205.256 250.89 201.138 251.425C197.021 251.961 195.472 254.334 196.021 259.533C196.232 261.537 197.31 269.285 198.195 278.049C198.637 282.435 199.012 287.052 199.291 291.346C199.57 295.64 199.647 299.547 199.83 302.603L204.726 303.37Z" fill="#FFBE8F"/>
<path d="M161.992 285.848C163.95 286.318 165.968 286.524 167.985 286.457C170.475 286.356 172.928 285.847 175.239 284.952C179.098 283.44 182.501 281.024 185.137 277.924C185.589 277.398 186.013 276.853 186.417 276.29C186.513 276.151 186.619 276.022 186.715 275.865L187.023 275.357L187.6 274.332C188.696 272.093 189.534 269.746 190.101 267.332C190.611 265.236 190.996 263.306 191.246 261.607C191.785 258.218 192.006 255.725 192.064 254.69C192.362 249.353 190.428 247.062 186.292 247.062C182.155 247.062 180.289 249.103 180.01 254.025C179.952 254.949 179.885 257.304 179.673 260.36C179.587 261.893 179.414 263.583 179.192 265.347C178.99 267.022 178.643 268.677 178.153 270.297L177.999 270.74L177.961 270.934C177.961 271.017 177.865 271.109 177.817 271.202C177.631 271.582 177.422 271.952 177.191 272.31C176.735 273.059 176.217 273.772 175.643 274.443C173.387 277.094 170.38 279.06 166.985 280.104C165.497 280.529 163.975 280.838 162.435 281.027L161.992 285.848Z" fill="#FFBE8F"/>
<path d="M199.808 193C198.769 193.157 187.928 195.899 179.876 192.289C176.918 195.304 175.053 199.155 174.557 203.269C176.589 203.948 178.703 204.376 180.848 204.543C180.848 204.543 189.967 210.647 183.945 223.936C176.817 239.634 174.97 254.64 171.844 258.888C171.844 258.888 191.593 266.211 212.381 258.888C212.381 258.888 211.843 237.861 205.215 223.936C200.251 213.519 206.792 211.469 206.946 204.294C208.69 204.177 210.361 203.578 211.756 202.567C211.756 202.567 213.228 193.868 208.976 191.485C208.995 191.448 203.772 192.437 199.808 193Z" fill="#FF595F"/>
<path d="M158.889 172.476C158.889 172.476 161.467 172.181 161.39 168.404C161.313 164.627 161.938 163.611 162.448 162.946C162.958 162.281 161.293 161.284 160.187 163.87L159.071 166.419C159.071 166.419 157.58 160.785 155.599 159.16C153.617 157.535 153.376 163.214 153.165 167.148C152.953 171.082 156.724 173.252 158.889 172.476Z" fill="#FFBE8F"/>
<path d="M199.703 300.166C199.703 300.166 204.157 301.09 205.763 300.166C207.497 300.936 209.411 301.254 211.314 301.09C214.681 300.85 216.951 301.265 216.528 303.158C216.105 305.051 203.589 306.787 200.376 305.291C198.645 304.479 199.703 299.797 199.703 299.797" fill="#003757"/>
<path d="M165.535 280.457C165.535 280.457 163.149 284.151 163.467 285.924C162.134 287.235 161.182 288.859 160.706 290.633C159.744 293.745 158.609 295.657 156.858 294.632C155.107 293.607 157.724 281.703 160.292 279.33C161.668 278.046 165.9 280.595 165.9 280.595" fill="#003757"/>
<path d="M199.927 172.983C199.927 172.983 191.741 182.494 189.932 201.268C189.932 201.268 180.235 203.632 173.665 199.846C173.665 199.846 172.347 168.883 184.843 165.678C197.339 162.474 199.927 172.983 199.927 172.983Z" fill="#003C5E"/>
<path d="M198.807 176.832C198.807 176.832 197.326 173.498 194.536 174.597C191.746 175.696 194.536 181.985 197.105 181.985C199.673 181.985 198.807 176.832 198.807 176.832Z" fill="#FFBE8F"/>
<path d="M359.467 191.68C356.061 195.752 353.031 203.814 358.101 213.039C361.295 218.857 369.337 219.753 375.638 213.557C381.938 207.36 381.775 197.119 379.197 192.142C376.619 187.164 364.931 185.151 359.467 191.68Z" fill="#FFBE8F"/>
<path d="M365.973 228.103C365.522 228.103 365.074 228.034 364.646 227.9C364.1 227.733 363.593 227.465 363.155 227.11C362.717 226.755 362.357 226.32 362.094 225.831C361.831 225.342 361.672 224.808 361.624 224.26C361.577 223.712 361.643 223.16 361.817 222.636C362.474 220.077 362.595 217.419 362.173 214.815C362.038 213.742 362.339 212.66 363.014 211.796C363.689 210.931 364.686 210.35 365.796 210.173C366.907 209.997 368.046 210.239 368.975 210.849C369.904 211.459 370.552 212.39 370.783 213.448C370.899 214.104 371.851 220.023 370.129 225.185C369.849 226.032 369.295 226.772 368.548 227.296C367.801 227.821 366.899 228.104 365.973 228.103Z" fill="#FFBE8F"/>
<path d="M391.186 186.286C390.724 188.798 390.512 192.076 389.983 195.521C389.868 196.389 389.771 197.275 389.646 198.171C389.521 199.067 389.339 199.944 389.185 200.84C388.935 202.641 388.482 204.377 388.127 206.076C387.464 208.988 386.497 211.828 385.241 214.553C385.021 215.051 384.764 215.533 384.471 215.994C384.272 216.386 384.047 216.765 383.798 217.13C383.345 217.73 383.067 218.256 382.836 218.459C381.874 219.78 381.373 220.556 381.306 221.525C381.286 222.78 381.487 224.029 381.903 225.219C382.048 225.942 382.47 226.586 383.087 227.024C383.703 227.462 384.468 227.661 385.231 227.583C386.924 227.491 389.079 226.3 390.733 224.046C391.257 223.337 391.739 222.601 392.176 221.839C392.502 221.278 392.797 220.702 393.061 220.112C393.404 219.438 393.703 218.744 393.956 218.035C395.227 214.606 396.051 211.038 396.409 207.415C397.116 200.293 396.714 193.11 395.216 186.102L391.186 186.286Z" fill="#FFBE8F"/>
<path d="M343.758 188.632C344.72 188.373 345.903 187.616 346.807 185.529C348.5 181.568 349.626 180.783 350.472 180.312C351.319 179.841 350.049 178.086 347.692 180.256L346.028 181.798L343.758 188.632Z" fill="#FFBE8F"/>
<path d="M358.166 163.064L346.349 159.243C343.533 158.332 340.481 159.785 339.532 162.489L335.552 173.832C334.603 176.536 336.117 179.466 338.934 180.376L350.75 184.197C353.567 185.108 356.619 183.655 357.567 180.951L361.548 169.608C362.496 166.904 360.982 163.974 358.166 163.064Z" fill="#BAF1FF"/>
<path d="M346.034 181.797L345.351 182.435C345.351 182.435 346.447 175.97 345.158 173.375C343.869 170.781 339.031 175.933 338.482 180.763C337.809 186.839 339.675 188.52 342.282 188.649C342.772 188.754 343.282 188.738 343.763 188.603L346.034 181.797Z" fill="#FFBE8F"/>
<path d="M391.709 188.632C390.747 188.373 389.554 187.616 388.66 185.529C386.957 181.568 385.831 180.783 384.995 180.312C384.158 179.841 385.408 178.086 387.765 180.256L389.429 181.798L391.709 188.632Z" fill="#FFBE8F"/>
<path d="M396.603 162.993L384.787 159.172C381.971 158.262 378.918 159.715 377.97 162.419L373.99 173.762C373.041 176.466 374.555 179.395 377.371 180.306L389.188 184.127C392.004 185.038 395.056 183.584 396.005 180.881L399.985 169.537C400.934 166.834 399.42 163.904 396.603 162.993Z" fill="#FF9CBD"/>
<path d="M389.422 181.797L390.114 182.435C390.114 182.435 389.008 175.97 390.297 173.375C391.586 170.781 396.435 175.933 396.973 180.763C397.647 186.839 395.79 188.52 393.174 188.649C392.687 188.754 392.18 188.738 391.702 188.603L389.422 181.797Z" fill="#FFBE8F"/>
<path d="M339.146 186.812C338.829 187.958 338.502 189.306 338.184 190.793C338.026 191.565 337.91 192.345 337.838 193.129C337.751 193.942 337.665 194.782 337.578 195.641C337.491 196.5 337.53 197.386 337.511 198.282C337.491 199.178 337.463 200.129 337.511 201.006L337.77 203.776C337.872 204.691 338.023 205.601 338.223 206.501C338.837 209.805 339.942 213.008 341.503 216.012C341.788 216.617 342.109 217.206 342.465 217.776C342.802 218.312 343.071 218.81 343.427 219.226C344.033 220.057 344.475 220.694 344.793 221.073C346.313 222.92 347.958 223.843 349.333 223.917C350.045 223.954 350.752 223.79 351.368 223.445C351.983 223.101 352.48 222.59 352.796 221.978C354.586 219.207 354.528 217.61 352.383 215.153C352.171 214.922 351.844 214.479 351.363 213.916C351.123 213.648 350.901 213.279 350.622 212.919C350.316 212.522 350.034 212.109 349.776 211.681C348.344 209.44 347.195 207.044 346.351 204.543C346.12 203.823 345.803 203.121 345.63 202.354L345.024 200.083C344.802 199.316 344.716 198.522 344.543 197.755C344.37 196.989 344.196 196.223 344.119 195.447C344.043 194.671 343.908 193.932 343.812 193.194C343.715 192.455 343.581 191.744 343.542 191.042C343.417 189.657 343.273 188.364 343.1 187.237L339.146 186.812Z" fill="#FFBE8F"/>
<path d="M353.797 270.783C353.797 270.783 358.135 279.592 368.053 280.211C380.876 281.015 383.916 275.446 382.319 265.371C382.319 265.39 361.81 261.973 353.797 270.783Z" fill="#FF595F"/>
<path d="M389.597 325.176C388.455 325.169 387.337 325.491 386.387 326.1C385.437 326.709 384.699 327.577 384.268 328.593C383.799 329.443 383.669 330.428 383.902 331.363C384.094 332.076 384.529 332.706 385.137 333.153C385.746 333.6 386.493 333.838 387.26 333.829H392.887C393.386 333.836 393.881 333.738 394.337 333.543C394.792 333.348 395.198 333.059 395.526 332.698C395.854 332.337 396.096 331.911 396.235 331.451C396.374 330.991 396.407 330.507 396.331 330.034C396.235 329.553 396.063 329.089 395.821 328.658C395.234 327.571 394.337 326.667 393.235 326.051C392.133 325.435 390.872 325.131 389.597 325.176Z" fill="#003757"/>
<path d="M392.388 326.863C392.696 319.475 391.83 307.664 390.512 297.1C389.194 286.536 387.472 277.2 386.905 274.789C385.471 268.575 382.633 266.386 378.083 267.549C373.533 268.713 372.138 271.622 373.533 277.634C374.12 279.961 376.419 288.937 378.968 299.085C381.518 309.234 384.403 320.667 386.818 327.629L392.388 326.863Z" fill="#FF595F"/>
<path d="M352.43 326.338C351.291 326.355 350.182 326.695 349.244 327.317C348.306 327.938 347.58 328.812 347.159 329.828C346.808 330.509 346.662 331.27 346.739 332.025C346.815 332.781 347.111 333.501 347.592 334.104L349.468 335.027L357.048 334.944C357.606 334.939 358.143 334.74 358.558 334.383C358.974 334.026 359.241 333.536 359.309 333.005C359.486 331.88 359.28 330.73 358.722 329.727C358.116 328.647 357.203 327.755 356.089 327.155C354.975 326.555 353.706 326.271 352.43 326.338Z" fill="#003757"/>
<path d="M356.403 328.617C358.327 321.285 360.338 309.344 362.348 298.789C363.31 293.516 364.359 288.631 365.234 284.753C366.109 280.874 366.889 278.141 367.158 276.996C367.899 274.05 368.024 271.907 367.408 270.254C366.792 268.601 365.426 267.419 363.204 266.644C360.982 265.868 359.125 265.979 357.538 267.152C355.951 268.324 354.652 270.568 353.835 273.893C353.517 275.186 352.873 278.325 352.209 282.499C351.545 286.673 351.035 291.909 350.67 297.422C349.939 308.458 349.939 320.666 350.766 328.229L356.403 328.617Z" fill="#FF595F"/>
<path d="M363.695 220.874C364.878 221.049 370.958 223.912 383.839 210.227C383.839 210.227 390.043 217.697 390.928 225.436C390.928 225.436 387.484 229.841 382.578 229.711C382.578 229.711 380.78 252.558 387.561 269.466C382.35 271.965 376.646 273.374 370.826 273.602C365.006 273.829 359.202 272.87 353.796 270.787C353.796 270.787 353.883 254.109 353.479 233.664C353.479 233.664 347.803 231.725 343.57 223.912C343.57 223.912 346.389 216.247 351.208 213.514C351.208 213.514 359.212 220.144 363.695 220.874Z" fill="#BAF1FF"/>
<path d="M356.99 198.905C356.99 198.905 356.028 195.138 352.844 195.867C349.66 196.597 351.612 203.726 354.287 204.132C356.961 204.538 356.99 198.905 356.99 198.905Z" fill="#FFBE8F"/>
<path d="M379.016 200.015C379.016 200.015 380.536 196.414 383.556 197.55C386.577 198.686 383.643 205.501 380.93 205.547C378.217 205.593 379.016 200.015 379.016 200.015Z" fill="#FFBE8F"/>
<path d="M354.782 195.545C355.425 193.063 356.83 190.824 358.815 189.118C360.799 187.413 363.272 186.318 365.912 185.978C375.339 184.62 380.188 188.176 381.583 196.228C382.978 204.281 377.196 212.305 368.115 211.927C366.045 211.878 364.012 211.389 362.162 210.495C360.312 209.602 358.691 208.326 357.417 206.76C356.142 205.193 355.244 203.375 354.789 201.436C354.333 199.497 354.331 197.485 354.782 195.545Z" fill="#003C5E"/>
<path d="M516.963 295.656H454.656V341.524H516.963V295.656Z" fill="#005C91"/>
<path d="M471.25 285.688L454.656 295.652H516.973L500.379 285.688H471.25Z" fill="#003C5E"/>
<path d="M500.369 285.688H471.25V295.661H500.369V285.688Z" fill="#133447"/>
<path d="M454.656 295.656L463.631 306.433H485.815H507.526L516.973 295.656H454.656Z" fill="#00CFFF"/>
<path d="M500.383 285.688L516.977 290.674L529.954 299.188L516.977 295.652L500.383 285.688Z" fill="#00CFFF"/>
<path d="M471.251 285.688L453.166 290.674L440.18 299.188L454.657 295.652L471.251 285.688Z" fill="#00CFFF"/>
</svg>
