<svg width="690" height="350" viewBox="0 0 690 350" fill="none" xmlns="http://www.w3.org/2000/svg">
<path d="M571.945 331.413C571.945 331.413 643.812 199.615 539.107 192.378C426.697 184.603 504.866 67.6623 440.206 69.864C375.545 72.0658 277.16 -17.8066 219.303 32.1259C165.153 78.8559 237.197 146.572 132.911 165.449C60.3679 178.582 39.0563 279.387 118.886 334L571.945 331.413Z" fill="#D7D4F1"/>
<path d="M587.849 333.635C587.849 342.668 479.925 349.996 346.79 349.996C213.655 349.996 125.641 343.851 125.641 334.833C125.641 325.815 213.639 317.258 346.867 317.258C480.094 317.258 587.849 324.586 587.849 333.635Z" fill="#2D2B8E"/>
<path d="M268.56 156.031H167.104V332.014H268.56V156.031Z" fill="#FC76B2"/>
<path d="M268.56 156.031H167.104V172.869H268.56V156.031Z" fill="#E39AE8"/>
<path d="M255.395 203.365C255.395 205.598 254.508 207.739 252.929 209.318C251.351 210.897 249.209 211.784 246.976 211.784H187.722C185.489 211.784 183.347 210.897 181.769 209.318C180.19 207.739 179.303 205.598 179.303 203.365C179.315 201.14 180.207 199.011 181.785 197.442C183.362 195.873 185.497 194.992 187.722 194.992H246.976C249.209 194.992 251.351 195.879 252.929 197.458C254.508 199.037 255.395 201.178 255.395 203.411V203.365Z" fill="white"/>
<path d="M255.395 232.981C255.395 235.214 254.508 237.356 252.929 238.934C251.351 240.513 249.209 241.4 246.976 241.4H187.722C185.489 241.4 183.347 240.513 181.769 238.934C180.19 237.356 179.303 235.214 179.303 232.981C179.303 230.749 180.19 228.607 181.769 227.028C183.347 225.449 185.489 224.562 187.722 224.562H246.976C249.209 224.563 251.351 225.449 252.929 227.028C254.508 228.607 255.395 230.749 255.395 232.981Z" fill="white"/>
<path d="M239.126 258.525C239.126 260.452 238.361 262.3 236.998 263.663C235.635 265.026 233.787 265.791 231.86 265.791H202.824C201.87 265.791 200.926 265.603 200.045 265.238C199.164 264.873 198.364 264.337 197.691 263.662C197.017 262.987 196.483 262.186 196.12 261.304C195.756 260.423 195.57 259.478 195.572 258.525C195.572 256.602 196.336 254.757 197.696 253.397C199.056 252.037 200.9 251.273 202.824 251.273H231.86C232.813 251.271 233.758 251.458 234.639 251.821C235.521 252.185 236.322 252.718 236.997 253.392C237.672 254.065 238.207 254.865 238.573 255.746C238.938 256.627 239.126 257.571 239.126 258.525Z" fill="#F9B640"/>
<path d="M255.395 183.602C255.395 184.451 255.059 185.265 254.46 185.867C253.861 186.469 253.049 186.809 252.2 186.813H182.498C181.649 186.809 180.837 186.469 180.238 185.867C179.639 185.265 179.303 184.451 179.303 183.602C179.307 182.757 179.645 181.948 180.244 181.352C180.843 180.756 181.653 180.422 182.498 180.422H252.2C253.045 180.422 253.855 180.756 254.454 181.352C255.053 181.948 255.391 182.757 255.395 183.602Z" fill="#F9B640"/>
<path d="M186.278 160.086H171.176V161.822H186.278V160.086Z" fill="white"/>
<path d="M186.278 163.57H171.176V165.322H186.278V163.57Z" fill="white"/>
<path d="M186.278 167.055H171.176V168.791H186.278V167.055Z" fill="white"/>
<path d="M190.518 236.104C190.518 236.524 190.393 236.934 190.16 237.282C189.927 237.631 189.596 237.903 189.209 238.063C188.821 238.224 188.395 238.266 187.984 238.184C187.573 238.102 187.195 237.9 186.898 237.604C186.602 237.307 186.4 236.929 186.318 236.518C186.236 236.107 186.278 235.681 186.439 235.293C186.599 234.906 186.871 234.575 187.22 234.342C187.568 234.109 187.978 233.984 188.397 233.984C188.96 233.984 189.499 234.208 189.897 234.605C190.294 235.003 190.518 235.542 190.518 236.104Z" fill="#E03D51"/>
<path d="M197.047 236.104C197.047 236.524 196.922 236.934 196.69 237.282C196.457 237.631 196.125 237.903 195.738 238.063C195.351 238.224 194.924 238.266 194.513 238.184C194.102 238.102 193.724 237.9 193.428 237.604C193.131 237.307 192.929 236.929 192.847 236.518C192.766 236.107 192.808 235.681 192.968 235.293C193.128 234.906 193.4 234.575 193.749 234.342C194.098 234.109 194.507 233.984 194.927 233.984C195.205 233.984 195.481 234.039 195.738 234.146C195.995 234.252 196.229 234.408 196.426 234.605C196.623 234.802 196.779 235.036 196.885 235.293C196.992 235.55 197.047 235.826 197.047 236.104Z" fill="#E03D51"/>
<path d="M203.592 236.104C203.592 236.524 203.467 236.934 203.234 237.282C203.001 237.631 202.67 237.903 202.283 238.063C201.896 238.224 201.469 238.266 201.058 238.184C200.647 238.102 200.269 237.9 199.973 237.604C199.676 237.307 199.474 236.929 199.392 236.518C199.31 236.107 199.352 235.681 199.513 235.293C199.673 234.906 199.945 234.575 200.294 234.342C200.642 234.109 201.052 233.984 201.472 233.984C202.034 233.984 202.573 234.208 202.971 234.605C203.368 235.003 203.592 235.542 203.592 236.104Z" fill="#E03D51"/>
<path d="M210.121 236.104C210.121 236.524 209.997 236.934 209.764 237.282C209.531 237.631 209.2 237.903 208.812 238.063C208.425 238.224 207.999 238.266 207.587 238.184C207.176 238.102 206.798 237.9 206.502 237.604C206.205 237.307 206.003 236.929 205.922 236.518C205.84 236.107 205.882 235.681 206.042 235.293C206.203 234.906 206.474 234.575 206.823 234.342C207.172 234.109 207.582 233.984 208.001 233.984C208.563 233.984 209.102 234.208 209.5 234.605C209.898 235.003 210.121 235.542 210.121 236.104Z" fill="#E03D51"/>
<path d="M216.666 236.104C216.666 236.524 216.542 236.934 216.309 237.282C216.076 237.631 215.745 237.903 215.357 238.063C214.97 238.224 214.544 238.266 214.132 238.184C213.721 238.102 213.343 237.9 213.047 237.604C212.75 237.307 212.548 236.929 212.467 236.518C212.385 236.107 212.427 235.681 212.587 235.293C212.748 234.906 213.019 234.575 213.368 234.342C213.717 234.109 214.127 233.984 214.546 233.984C215.108 233.984 215.647 234.208 216.045 234.605C216.443 235.003 216.666 235.542 216.666 236.104Z" fill="#E03D51"/>
<path d="M223.193 236.104C223.193 236.524 223.069 236.934 222.836 237.282C222.603 237.631 222.272 237.903 221.885 238.063C221.497 238.224 221.071 238.266 220.66 238.184C220.248 238.102 219.871 237.9 219.574 237.604C219.278 237.307 219.076 236.929 218.994 236.518C218.912 236.107 218.954 235.681 219.115 235.293C219.275 234.906 219.547 234.575 219.895 234.342C220.244 234.109 220.654 233.984 221.073 233.984C221.635 233.984 222.175 234.208 222.572 234.605C222.97 235.003 223.193 235.542 223.193 236.104Z" fill="#E03D51"/>
<path d="M538.918 275.231C538.914 278.679 537.541 281.985 535.101 284.422C532.661 286.859 529.354 288.228 525.905 288.228H252.845C249.398 288.228 246.092 286.859 243.654 284.421C241.217 281.984 239.848 278.678 239.848 275.231V103.458C239.848 100.011 241.217 96.7051 243.654 94.2677C246.092 91.8303 249.398 90.4609 252.845 90.4609H525.905C529.354 90.4609 532.661 91.8298 535.101 94.2667C537.541 96.7037 538.914 100.01 538.918 103.458V275.231Z" fill="#FFF1D6"/>
<path d="M432.454 331.134H346.836L352.044 257.023H424.664L432.454 331.134Z" fill="#252956"/>
<path d="M538.918 275.231C538.914 278.679 537.541 281.985 535.101 284.422C532.661 286.859 529.354 288.228 525.905 288.228H252.845C249.398 288.228 246.092 286.859 243.654 284.421C241.217 281.984 239.848 278.678 239.848 275.231V103.458C239.848 100.011 241.217 96.7051 243.654 94.2677C246.092 91.8303 249.398 90.4609 252.845 90.4609H525.905C529.354 90.4609 532.661 91.8298 535.101 94.2667C537.541 96.7037 538.914 100.01 538.918 103.458V275.231Z" fill="#252956"/>
<path d="M524.982 103.609H251.553V244.026H524.982V103.609Z" fill="#A27CF5"/>
<path d="M252.845 288.235H525.905C529.354 288.235 532.661 286.866 535.101 284.429C537.541 281.992 538.914 278.686 538.918 275.237V255.727H239.848V275.237C239.848 278.685 241.217 281.99 243.654 284.428C246.092 286.865 249.398 288.235 252.845 288.235Z" fill="#1B2044"/>
<path d="M470.092 319.43H305.141V331.136H470.092V319.43Z" fill="#1B2044"/>
<path d="M388.93 16.9973L275 45.0234L282.905 77.1572L396.835 49.1311L388.93 16.9973Z" fill="#A27CF5"/>
<path d="M388.938 16.9973L275.008 45.0234L276.659 51.7366L390.589 23.7105L388.938 16.9973Z" fill="#8865E5"/>
<path d="M386.171 30.9432L283.295 56.25L283.944 58.8905L386.82 33.5837L386.171 30.9432Z" fill="#F5F9FC"/>
<path d="M387.258 35.3067L284.367 60.6172L285.017 63.2577L387.907 37.9472L387.258 35.3067Z" fill="#F5F9FC"/>
<path d="M388.331 39.6698L285.455 64.9766L286.105 67.6171L388.98 42.3103L388.331 39.6698Z" fill="#F5F9FC"/>
<path d="M259.421 110.109H234.963V271.528H259.421V110.109Z" fill="#414682"/>
<path d="M254.489 114.523H239.895V129.195H254.489V114.523Z" fill="#F9B640"/>
<path d="M254.489 134.078H239.895V148.75H254.489V134.078Z" fill="#FC76B2"/>
<path d="M254.489 153.648H239.895V168.32H254.489V153.648Z" fill="#A27CF5"/>
<path d="M254.489 173.219H239.895V187.89H254.489V173.219Z" fill="#E03D51"/>
<path d="M254.489 192.781H239.895V207.453H254.489V192.781Z" fill="#F5F9FC"/>
<path d="M254.489 212.352H239.895V227.023H254.489V212.352Z" fill="#252956"/>
<path d="M254.489 231.906H239.895V246.578H254.489V231.906Z" fill="#C92F3B"/>
<path d="M254.489 251.477H239.895V266.148H254.489V251.477Z" fill="#F9B640"/>
<path d="M546.384 189.164H436.678V298.871H546.384V189.164Z" fill="#F9B640"/>
<path d="M546.384 189.164H436.678V199.519H546.384V189.164Z" fill="#E59429"/>
<path d="M537.519 194.709C537.572 195.113 537.741 195.493 538.004 195.804C538.268 196.115 538.615 196.343 539.005 196.461C539.395 196.58 539.811 196.583 540.202 196.472C540.594 196.36 540.945 196.138 541.214 195.832C541.483 195.525 541.658 195.148 541.718 194.745C541.778 194.343 541.721 193.931 541.553 193.56C541.386 193.188 541.114 192.873 540.772 192.652C540.43 192.431 540.031 192.313 539.624 192.312C539.029 192.356 538.475 192.631 538.081 193.08C537.687 193.528 537.485 194.113 537.519 194.709Z" fill="#F5F9FC"/>
<path d="M531.205 194.709C531.258 195.113 531.426 195.493 531.69 195.804C531.953 196.115 532.301 196.343 532.691 196.461C533.08 196.58 533.496 196.583 533.888 196.472C534.28 196.36 534.631 196.138 534.9 195.832C535.169 195.525 535.344 195.148 535.404 194.745C535.464 194.343 535.407 193.931 535.239 193.56C535.071 193.188 534.8 192.873 534.458 192.652C534.116 192.431 533.717 192.313 533.31 192.312C532.714 192.356 532.16 192.631 531.766 193.08C531.373 193.528 531.171 194.113 531.205 194.709Z" fill="#F5F9FC"/>
<path d="M524.892 194.709C524.945 195.113 525.114 195.493 525.377 195.804C525.641 196.115 525.988 196.343 526.378 196.461C526.768 196.58 527.184 196.583 527.575 196.472C527.967 196.36 528.318 196.138 528.587 195.832C528.856 195.525 529.031 195.148 529.091 194.745C529.151 194.343 529.094 193.931 528.926 193.56C528.759 193.188 528.487 192.873 528.145 192.652C527.803 192.431 527.404 192.313 526.997 192.312C526.402 192.356 525.848 192.631 525.454 193.08C525.06 193.528 524.858 194.113 524.892 194.709Z" fill="#F5F9FC"/>
<path d="M541.714 208.617H442.27V226.945H541.714V208.617Z" fill="#FCE2C0"/>
<path d="M541.714 271.977H442.27V290.305H541.714V271.977Z" fill="#FCE2C0"/>
<path d="M541.73 230.07H494.166V246.294H541.73V230.07Z" fill="#FCE2C0"/>
<path d="M541.73 249.164H494.166V265.403H541.73V249.164Z" fill="#FCE2C0"/>
<path d="M486.315 230.07H442.27V265.374H486.315V230.07Z" fill="#FCE2C0"/>
<path d="M504.382 260.126C504.382 262.665 503.374 265.099 501.579 266.894C499.784 268.689 497.35 269.697 494.811 269.697H284.493C281.955 269.697 279.52 268.689 277.725 266.894C275.93 265.099 274.922 262.665 274.922 260.126V128.251C274.926 125.714 275.936 123.282 277.73 121.487C279.524 119.693 281.956 118.684 284.493 118.68H494.811C497.349 118.684 499.781 119.693 501.575 121.487C503.369 123.282 504.378 125.714 504.382 128.251V260.126Z" fill="#F5F9FC"/>
<path d="M494.811 118.68H284.493C281.956 118.684 279.524 119.693 277.73 121.487C275.936 123.282 274.926 125.714 274.922 128.251V146.041H504.382V128.251C504.378 125.714 503.369 123.282 501.575 121.487C499.781 119.693 497.349 118.684 494.811 118.68Z" fill="#D8DFE9"/>
<path d="M298.15 132.442C298.15 133.384 297.871 134.305 297.347 135.088C296.824 135.871 296.08 136.482 295.21 136.842C294.34 137.203 293.382 137.297 292.458 137.113C291.535 136.929 290.686 136.476 290.02 135.81C289.354 135.144 288.9 134.295 288.717 133.371C288.533 132.447 288.627 131.49 288.988 130.62C289.348 129.749 289.958 129.006 290.742 128.482C291.525 127.959 292.446 127.68 293.388 127.68C294.014 127.678 294.634 127.799 295.212 128.038C295.791 128.277 296.317 128.627 296.76 129.07C297.202 129.513 297.553 130.039 297.792 130.617C298.03 131.196 298.152 131.816 298.15 132.442Z" fill="#F5F9FC"/>
<path d="M310.162 132.442C310.162 133.384 309.882 134.305 309.359 135.088C308.836 135.871 308.092 136.482 307.222 136.842C306.352 137.203 305.394 137.297 304.47 137.113C303.546 136.929 302.698 136.476 302.032 135.81C301.366 135.144 300.912 134.295 300.728 133.371C300.544 132.447 300.639 131.49 300.999 130.62C301.36 129.749 301.97 129.006 302.753 128.482C303.537 127.959 304.457 127.68 305.399 127.68C306.025 127.678 306.645 127.799 307.224 128.038C307.803 128.277 308.329 128.627 308.771 129.07C309.214 129.513 309.565 130.039 309.803 130.617C310.042 131.196 310.164 131.816 310.162 132.442Z" fill="#F5F9FC"/>
<path d="M321.763 132.442C321.763 133.384 321.484 134.305 320.961 135.088C320.437 135.871 319.694 136.482 318.823 136.842C317.953 137.203 316.996 137.297 316.072 137.113C315.148 136.929 314.299 136.476 313.633 135.81C312.967 135.144 312.514 134.295 312.33 133.371C312.146 132.447 312.24 131.49 312.601 130.62C312.961 129.749 313.572 129.006 314.355 128.482C315.138 127.959 316.059 127.68 317.001 127.68C317.627 127.678 318.247 127.799 318.826 128.038C319.404 128.277 319.93 128.627 320.373 129.07C320.816 129.513 321.166 130.039 321.405 130.617C321.644 131.196 321.765 131.816 321.763 132.442Z" fill="#F5F9FC"/>
<path d="M468.296 240.25H391.436V259.669H468.296V240.25Z" fill="#D8DFE9"/>
<path d="M383.044 151.453H285.443V257.104H383.044V151.453Z" fill="#D8DFE9"/>
<path d="M334.237 182.7C334.24 186.909 332.994 191.025 330.657 194.527C328.321 198.028 324.998 200.758 321.109 202.37C317.22 203.983 312.941 204.405 308.812 203.585C304.683 202.764 300.89 200.737 297.914 197.761C294.937 194.784 292.91 190.991 292.09 186.862C291.269 182.734 291.692 178.454 293.304 174.565C294.917 170.677 297.646 167.354 301.148 165.017C304.649 162.68 308.765 161.434 312.975 161.438C318.614 161.438 324.022 163.678 328.009 167.665C331.997 171.653 334.237 177.061 334.237 182.7Z" fill="#C86CDB"/>
<path d="M317.077 180.256C317.715 179.469 318.117 178.518 318.237 177.512C318.357 176.506 318.189 175.486 317.754 174.571C317.318 173.657 316.632 172.884 315.775 172.344C314.919 171.803 313.926 171.516 312.913 171.516C311.9 171.516 310.908 171.803 310.051 172.344C309.194 172.884 308.508 173.657 308.073 174.571C307.637 175.486 307.469 176.506 307.589 177.512C307.709 178.518 308.111 179.469 308.75 180.256C306.722 181.014 304.938 182.307 303.586 183.998C302.233 185.688 301.363 187.713 301.068 189.858H324.804C324.505 187.708 323.628 185.679 322.267 183.989C320.907 182.298 319.113 181.008 317.077 180.256Z" fill="#F5F9FC"/>
<path d="M374.334 161.359H339.43V249.957H374.334V161.359Z" fill="#F5F9FC"/>
<path d="M334.237 207.875H291.697V248.955H334.237V207.875Z" fill="#F5F9FC"/>
<path d="M439.981 307.455C441.871 315.705 446.526 326.443 446.895 332.143C446.895 333.049 446.895 333.387 443.914 334.156C440.934 334.924 443.73 336.721 448.738 336.798C453.746 336.875 451.642 312.724 449.491 301.387C447.663 291.462 437.8 297.914 439.981 307.455Z" fill="#EE9D7F"/>
<path d="M450.936 334.448C450.936 334.448 446.511 336.169 443.9 334.156C443.9 334.156 438.953 334.709 441.995 336.138C445.037 337.567 450.951 338.903 450.936 334.448Z" fill="#2E87CD"/>
<path d="M408.732 276.164C413.34 283.247 421.467 291.696 423.803 296.904C424.171 297.719 424.171 298.087 421.713 299.839C419.255 301.59 422.42 302.297 427.136 300.622C431.853 298.948 421.544 277.04 415.522 267.193C410.314 258.512 403.354 267.93 408.732 276.164Z" fill="#EE9D7F"/>
<path d="M428.413 297.641C428.413 297.641 424.849 300.805 421.715 299.838C421.715 299.838 417.26 302.065 420.609 302.342C423.958 302.618 429.965 301.819 428.413 297.641Z" fill="#2E87CD"/>
<path d="M420.163 249.083C420.163 249.083 399.546 241.493 398.348 251.403C397.272 260.313 416.691 290.44 416.691 290.44C418.491 290.587 420.301 290.346 422 289.734C423.699 289.121 425.246 288.152 426.539 286.891L420.225 267.027L432.607 265.598L428.444 251.833L420.163 249.083Z" fill="#3C3C3C"/>
<path d="M447.341 251.834L452.61 325.576L443.884 326.144L425.633 251.25C425.633 251.25 432.515 254.092 447.341 251.834Z" fill="#3B3B3B"/>
<path d="M423.695 231.324C423.695 231.324 430.839 228.512 429.994 219.264C429.149 210.015 421.852 189.352 421.621 185.926C421.222 179.658 430.655 178.368 427.029 178.383C422.42 178.383 419.347 176.493 418.625 181.379C418.149 184.759 417.458 216.713 418.364 222.075C419.271 227.437 418.472 231.585 423.695 231.324Z" fill="#E28C71"/>
<path d="M448.107 256.446C448.107 256.215 448.015 256 447.953 255.754C446.571 246.705 445.296 240.944 449.059 232.449C454.452 220.266 444.942 217.623 439.166 215.903C433.389 214.182 423.634 213.137 419.824 223.139C417.089 230.329 415.876 240.56 417.95 248.303C420.315 257.152 451.164 266.554 448.107 256.446Z" fill="#C92F3B"/>
<path d="M439.166 215.945C438.613 215.776 438.014 215.607 437.384 215.469C437.86 216.851 438.552 218.434 439.135 219.97C441.148 225.24 439.258 228.22 430.133 229.633C421.007 231.047 430.839 236.562 436.508 237.822C442.177 239.082 433.958 240.894 425.585 243.537C417.212 246.179 438.121 248.852 442.623 251.065C445.695 252.601 444.666 257.609 443.683 260.805C447.001 260.682 448.998 259.407 448.107 256.488C448.107 256.257 448.015 256.042 447.954 255.796C446.571 246.748 445.296 240.987 449.06 232.491C450.143 230.297 450.671 227.87 450.596 225.424C450.135 223.995 449.644 222.566 449.06 221.214C446.801 218.173 442.408 216.897 439.166 215.945Z" fill="#C92F3B"/>
<path d="M439.857 233.798C439.857 233.798 446.785 237.132 452.992 230.219C459.199 223.305 471.258 204.102 471.934 200.722C472.61 197.342 483.441 200.292 480.922 197.649C478.402 195.007 477.05 193.21 473.01 196.113C470.229 198.064 446.294 219.326 443.021 223.613C439.749 227.899 436.123 230.157 439.857 233.798Z" fill="#E28C71"/>
<path d="M446.279 212.392C446.279 212.392 441.347 214.066 441.839 218.23C442.33 222.393 428.012 217.83 430.286 216.14C433.143 213.974 435.924 213.82 437.675 209.703L446.279 212.392Z" fill="#E67052"/>
<path d="M447.507 200.738C443.344 200.554 432.021 206.883 432.252 211.17C432.344 212.998 437.306 216.163 443.789 214.934C445.683 214.675 447.471 213.909 448.964 212.716C450.457 211.523 451.599 209.948 452.269 208.159C452.93 206.054 452.362 200.969 447.507 200.738Z" fill="#F3B294"/>
<path d="M444.267 199.593C442.731 200.192 442.547 200.591 445.327 204.509C448.108 208.426 448.891 208.795 447.739 209.24C444.375 210.531 447.186 212.497 443.13 214.018C439.075 215.539 443.576 216.707 447.125 215.724C448.618 215.329 449.985 214.556 451.094 213.479C452.202 212.403 453.015 211.06 453.454 209.578C455.728 203.679 450.151 197.334 444.267 199.593Z" fill="#3B3B3B"/>
<path d="M453.454 209.627C453.023 211.113 452.213 212.461 451.103 213.538C449.993 214.616 448.622 215.386 447.124 215.772C444.482 216.494 441.256 216.08 441.548 215.127C441.84 214.175 444.282 215.911 445.696 213.345C447.109 210.779 448.768 211.717 450.305 209.704C451.841 207.692 450.151 206.724 447.032 202.299C445.757 200.502 446.08 199.626 446.894 199.227C451.626 199.227 455.129 204.481 453.454 209.627Z" fill="#3B3B3B"/>
<path d="M425.565 105.933L399.766 171.328L489.77 206.836L515.57 141.441L425.565 105.933Z" fill="#FC76B2"/>
<path d="M430.349 115.399L420.34 140.781L496.144 170.672L506.153 145.289L430.349 115.399Z" fill="#F5F9FC"/>
<path d="M415.671 152.605L411.924 162.109L487.728 192L491.476 182.496L415.671 152.605Z" fill="#F5F9FC"/>
<path d="M140.619 302.379C139.743 314.377 140.481 339.619 145.642 338.958C150.804 338.298 153.462 336.101 150.328 335.64C147.194 335.179 147.04 334.856 146.994 333.919C146.702 327.974 150.236 316.359 151.158 307.526C152.279 297.34 141.356 291.871 140.619 302.379Z" fill="#F9B5A0"/>
<path d="M143.061 336.793C143.061 336.793 147.885 338.053 150.327 335.641C150.327 335.641 155.52 335.641 152.539 337.469C149.559 339.297 143.614 341.402 143.061 336.793Z" fill="#F28F19"/>
<path d="M187.092 162.531H180.348V338.145H187.092V162.531Z" fill="#E03D51"/>
<path d="M163.555 162.531H156.826V338.145H163.555V162.531Z" fill="#E03D51"/>
<path d="M187.03 171.25H158.225V178.962H187.03V171.25Z" fill="#E03D51"/>
<path d="M187.03 191.992H158.225V199.704H187.03V191.992Z" fill="#E03D51"/>
<path d="M187.03 214.805H158.225V222.517H187.03V214.805Z" fill="#E03D51"/>
<path d="M187.03 243.828H158.225V251.54H187.03V243.828Z" fill="#E03D51"/>
<path d="M187.03 266.641H158.225V274.353H187.03V266.641Z" fill="#E03D51"/>
<path d="M187.03 293.602H158.225V301.314H187.03V293.602Z" fill="#E03D51"/>
<path d="M187.03 316.398H158.225V324.111H187.03V316.398Z" fill="#E03D51"/>
<path d="M146.902 261.664C148.345 264.74 149.463 267.958 150.236 271.266C153.462 287.167 153.309 289.102 153.431 293.588C153.524 301.27 153.831 316.08 147.87 329.092C147.302 330.336 141.556 330.782 141.279 329.092C139.159 316.725 136.901 314.774 138.76 300.563C138.76 300.563 135.441 290.178 134.043 285.768C130.034 273.278 130.679 271.266 132.707 264.952L146.902 261.664Z" fill="#252956"/>
<path d="M166.519 274.875C165.658 286.873 166.38 312.115 171.558 311.439C176.735 310.763 179.362 308.581 176.243 308.136C173.125 307.69 172.956 307.352 172.894 306.4C172.602 300.454 176.136 288.778 177.088 280.006C178.256 269.867 167.333 264.413 166.519 274.875Z" fill="#F9B5A0"/>
<path d="M169.041 309.317C169.041 309.317 173.85 310.592 176.308 308.18C176.308 308.18 181.47 308.18 178.52 309.993C175.57 311.805 169.594 313.941 169.041 309.317Z" fill="#F28F19"/>
<path d="M153.724 260.309C153.724 260.309 171.683 246.221 177.49 254.855C182.698 262.536 176.507 297.103 176.507 297.103C174.911 298.075 173.128 298.697 171.274 298.927C169.42 299.158 167.538 298.992 165.753 298.44L163.218 274.228C163.218 274.228 146.472 284.889 140.727 280.926C131.739 274.781 139.498 260.754 139.498 260.754L153.724 260.309Z" fill="#252956"/>
<path d="M156.857 208.93C156.857 208.93 160.698 201.034 161.359 203.722C162.019 206.411 160.468 205.965 159.146 210.052L156.857 208.93Z" fill="#FFAA83"/>
<path d="M130.939 235.605C129.986 236.727 128.527 240.675 131.738 241.382C136.808 242.503 148.944 235.467 151.617 232.732C154.291 229.998 159.483 209.58 159.483 209.58C159.176 209.073 158.684 208.705 158.111 208.553C157.538 208.401 156.929 208.477 156.411 208.766L144.781 226.956C144.781 226.956 134.257 231.734 130.939 235.605Z" fill="#FCDCDA"/>
<path d="M147.455 231.401C151.68 233.951 155.797 240.819 160.022 264.37C160.944 269.547 130.833 274.187 130.126 268.979C128.298 255.152 130.018 249.114 132.599 236.133C133.306 232.569 139.083 226.331 147.455 231.401Z" fill="#FCDCDA"/>
<path d="M178.443 208.912C178.443 208.912 179.288 201.077 180.994 203.167C182.699 205.256 182.33 206.316 180.625 210.264L178.443 208.912Z" fill="#FFAA83"/>
<path d="M150.083 232.986C149.023 234 147.195 237.825 150.313 238.808C155.276 240.345 168.012 234.584 170.93 232.11C173.849 229.637 180.993 209.834 180.993 209.834C180.739 209.297 180.285 208.88 179.728 208.673C179.171 208.467 178.556 208.486 178.013 208.728L164.678 225.719C164.678 225.719 153.724 229.452 150.083 232.986Z" fill="#FCDCDA"/>
<path d="M142.045 208.819C145.364 208.896 149.727 211.154 150.372 217.591C151.017 224.028 151.232 224.151 153.644 226.286C159.79 231.771 146.946 235.765 152.216 240.927C174.814 263.081 129.509 264.678 130.708 258.595C132.935 246.888 125.331 250.406 125.945 241.772C126.206 238.346 120.921 235.135 126.913 230.189C128.895 228.56 124.255 221.401 129.263 219.435C134.272 217.468 129.31 208.542 142.045 208.819Z" fill="#252956"/>
</svg>
