<svg width="690" height="350" viewBox="0 0 690 350" fill="none" xmlns="http://www.w3.org/2000/svg">
<path d="M385.135 304.99C364.97 294.722 332.37 294.722 312.333 304.99C292.296 315.259 292.404 331.9 312.569 342.159C332.734 352.419 365.333 352.428 385.38 342.159C405.427 331.891 405.309 315.259 385.135 304.99Z" fill="#E0E0E0"/>
<path d="M312.322 254.991L303.482 250.489L306.939 248.757C307.504 248.469 307.973 248.055 308.299 247.556C308.625 247.058 308.797 246.493 308.797 245.917C308.797 245.342 308.625 244.777 308.299 244.278C307.973 243.78 307.504 243.366 306.939 243.078L295.83 237.415C294.133 236.55 292.207 236.094 290.247 236.094C288.286 236.094 286.36 236.55 284.663 237.415L172.848 294.203C172.285 294.493 171.819 294.908 171.495 295.406C171.171 295.904 171 296.469 171 297.043C171 297.617 171.171 298.182 171.495 298.68C171.819 299.178 172.285 299.593 172.848 299.883L183.937 305.615C185.642 306.491 187.581 306.952 189.555 306.952C191.529 306.952 193.468 306.491 195.173 305.615L205.791 300.212L214.533 304.74C215.893 305.433 217.436 305.798 219.007 305.798C220.578 305.798 222.121 305.433 223.481 304.74L312.351 259.459C312.789 259.226 313.152 258.898 313.402 258.505C313.652 258.112 313.783 257.668 313.78 257.217C313.777 256.767 313.641 256.324 313.385 255.934C313.129 255.544 312.763 255.219 312.322 254.991Z" fill="#E0E0E0"/>
<path d="M373.474 173.409C382.914 178.214 382.963 185.997 373.582 190.803C364.202 195.608 348.949 195.608 339.5 190.803C330.051 185.997 330.012 178.214 339.392 173.409C348.772 168.603 364.026 168.603 373.474 173.409Z" fill="#E0E0E0"/>
<path d="M482.656 269.76L435.982 246.011C435.668 245.851 435.407 245.62 435.226 245.343C435.045 245.065 434.949 244.751 434.949 244.431C434.949 244.111 435.045 243.797 435.226 243.519C435.407 243.242 435.668 243.012 435.982 242.851L477.146 221.777C477.461 221.616 477.818 221.531 478.182 221.531C478.546 221.531 478.904 221.616 479.218 221.777L526.934 246.063C527.248 246.223 527.509 246.452 527.691 246.729C527.872 247.005 527.968 247.319 527.968 247.639C527.968 247.958 527.872 248.272 527.691 248.549C527.509 248.826 527.248 249.055 526.934 249.215L486.831 269.76C486.198 270.088 485.477 270.261 484.743 270.261C484.009 270.261 483.289 270.088 482.656 269.76Z" fill="#E0E0E0"/>
<path d="M453.945 42.8906L453.68 134.821L458.974 137.523L459.249 45.5833L453.945 42.8906Z" fill="#E0E0E0"/>
<path d="M459.25 45.5781L458.975 137.518L463.591 135.154L463.837 47.9158L459.25 45.5781Z" fill="#F0F0F0"/>
<path opacity="0.2" d="M459.241 49.3582L459.251 45.5833L453.947 42.8906L453.938 46.6569L459.241 49.3582Z" fill="black"/>
<path opacity="0.2" d="M459.24 49.353L462.953 47.4656L459.25 45.5781L459.24 49.353Z" fill="black"/>
<path d="M390.172 10.434L394.778 8.07031L394.503 100.001L389.896 102.365L390.172 10.434Z" fill="#F0F0F0"/>
<path d="M389.896 102.364L394.503 100L527.377 167.628L522.77 169.983L389.896 102.364Z" fill="#F5F5F5"/>
<path d="M384.887 2.36719L528.358 75.3803L528.054 178.056L384.582 105.034L384.887 2.36719ZM522.769 169.986L523.044 78.0816L390.161 10.4278L389.866 102.367L522.74 169.986" fill="#E0E0E0"/>
<path d="M384.887 2.36364L389.493 0L532.965 73.0218L528.358 75.3767L384.887 2.36364Z" fill="#F5F5F5"/>
<path d="M528.357 75.3784L532.964 73.0234L532.659 175.69L528.053 178.054L528.357 75.3784Z" fill="#F0F0F0"/>
<path d="M358.664 115.93H354.312C354.312 132.38 354.99 186.588 354.99 186.588C355.006 186.703 355.055 186.813 355.132 186.907C355.21 187 355.313 187.076 355.432 187.125C355.758 187.274 356.121 187.352 356.488 187.352C356.856 187.352 357.218 187.274 357.544 187.125C357.666 187.078 357.771 187.004 357.849 186.91C357.926 186.815 357.974 186.704 357.986 186.588C357.986 186.588 358.664 132.38 358.664 115.93Z" fill="#E6E6E6"/>
<path d="M349.891 108.445H345.53C341.797 125.484 339.371 179.112 339.371 179.112C339.384 179.228 339.432 179.339 339.51 179.433C339.587 179.527 339.692 179.602 339.813 179.649C340.141 179.794 340.502 179.87 340.869 179.87C341.236 179.87 341.597 179.794 341.925 179.649C342.045 179.601 342.148 179.527 342.224 179.432C342.3 179.338 342.346 179.227 342.357 179.112C342.357 179.112 346.512 125.242 349.891 108.445Z" fill="#E6E6E6"/>
<path d="M363.082 108.445H367.423C371.156 125.484 373.582 179.112 373.582 179.112C373.569 179.228 373.521 179.339 373.443 179.433C373.366 179.527 373.261 179.602 373.14 179.649C372.812 179.794 372.451 179.87 372.084 179.87C371.717 179.87 371.356 179.794 371.028 179.649C370.91 179.6 370.807 179.525 370.732 179.431C370.656 179.337 370.609 179.227 370.596 179.112C370.596 179.112 366.48 125.242 363.082 108.445Z" fill="#E6E6E6"/>
<path d="M379.907 107.966H379.446C378.562 105.724 376.421 103.585 373.003 101.845C363.848 97.1871 349.056 97.1871 339.961 101.845C336.572 103.577 334.451 105.715 333.596 107.958H333.164V110.278C333.164 113.334 335.492 116.339 340.04 118.72C349.194 123.378 363.986 123.378 373.081 118.72C377.629 116.391 379.898 113.343 379.878 110.287L379.907 107.966Z" fill="#F0F0F0"/>
<path d="M372.954 99.5358C382.118 104.194 382.167 111.744 373.062 116.41C363.957 121.077 349.175 121.068 340.021 116.41C330.867 111.752 330.817 104.194 339.913 99.5358C349.008 94.8778 363.8 94.8691 372.954 99.5358Z" fill="#F5F5F5"/>
<path d="M367.954 92.6328H345.02C345.02 99.2822 348.536 104.91 349.626 106.581C349.626 106.659 349.715 106.728 349.764 106.806L349.823 106.884C350.243 107.401 350.79 107.827 351.424 108.131C352.986 108.835 354.717 109.202 356.472 109.202C358.228 109.202 359.958 108.835 361.521 108.131C362.322 107.765 362.969 107.182 363.367 106.468C364.526 104.754 367.954 99.1869 367.954 92.6328Z" fill="#EBEBEB"/>
<path d="M364.566 88.4955C369.064 90.7813 369.084 94.4955 364.625 96.7813C360.166 99.067 352.897 99.067 348.408 96.7813C343.92 94.4955 343.89 90.7813 348.35 88.4955C352.809 86.2098 360.077 86.2098 364.566 88.4955Z" fill="#F5F5F5"/>
<path d="M355.244 90.0276C355.21 85.7005 354.079 81.4349 351.934 77.5427C351.146 76.3742 350.616 75.0844 350.373 73.7418C350.264 72.3912 351.109 70.8587 352.622 70.5903C353.223 70.5268 353.832 70.6152 354.378 70.8451C354.924 71.0751 355.384 71.4371 355.706 71.889C356.336 72.8028 356.754 73.8183 356.934 74.876C358.063 79.56 359.006 84.3999 358.299 89.1098C358.26 89.6565 358.134 90.1957 357.926 90.7116C357.816 90.9508 357.638 91.1609 357.409 91.3217C357.18 91.4825 356.908 91.5885 356.619 91.6293C356.427 91.6448 356.232 91.6208 356.052 91.5593C355.871 91.4977 355.709 91.4002 355.578 91.2743C355.337 90.8944 355.221 90.4625 355.244 90.0276Z" fill="#E0E0E0"/>
<path d="M356.503 90.4081C356.479 90.407 356.455 90.4016 356.432 90.3923C356.41 90.383 356.39 90.37 356.374 90.3539C356.358 90.3378 356.345 90.319 356.337 90.2986C356.329 90.2782 356.325 90.2566 356.326 90.235C356.903 84.1685 355.731 78.072 352.918 72.512C352.898 72.4706 352.897 72.4239 352.915 72.3819C352.934 72.3399 352.97 72.3058 353.016 72.2869C353.039 72.2783 353.063 72.2737 353.088 72.2735C353.112 72.2732 353.137 72.2772 353.16 72.2852C353.182 72.2932 353.203 72.3052 353.221 72.3203C353.238 72.3355 353.252 72.3535 353.262 72.3735C356.102 77.9848 357.288 84.1377 356.709 90.2609C356.702 90.3038 356.677 90.3426 356.639 90.3699C356.601 90.3971 356.552 90.4108 356.503 90.4081Z" fill="white"/>
<path d="M344.087 83.0193C343.105 82.4739 341.926 81.8765 341.612 80.8635C341.507 80.4052 341.563 79.9298 341.772 79.5001C341.981 79.0704 342.332 78.7066 342.78 78.4566C343.236 78.2149 343.743 78.0574 344.269 77.9934C344.796 77.9294 345.332 77.9603 345.845 78.0843C346.869 78.3416 347.829 78.7676 348.674 79.3397C350.155 80.258 351.479 81.3603 352.602 82.6124C353.931 84.1011 354.982 85.767 355.716 87.5475C356.213 88.6978 356.588 89.8861 356.836 91.0973C357.003 92.0583 357.327 93.6514 356.197 94.2748C355.947 94.4042 355.662 94.4724 355.372 94.4724C355.082 94.4724 354.797 94.4042 354.547 94.2748C354.054 94 353.664 93.6022 353.428 93.1319C353.2 92.663 353.004 92.1832 352.838 91.6947C352.11 89.8096 350.92 88.0891 349.351 86.6557C347.781 85.2492 346.012 84.027 344.087 83.0193Z" fill="#EBEBEB"/>
<path d="M355.656 93.0808C355.596 93.0912 355.534 93.0808 355.483 93.0517C355.432 93.0227 355.395 92.9772 355.381 92.925C354.658 90.0644 353.222 87.3811 351.179 85.0693C349.136 82.7574 346.535 80.8746 343.565 79.557C343.51 79.5329 343.469 79.4906 343.449 79.4394C343.43 79.3883 343.434 79.3325 343.462 79.2842C343.489 79.236 343.537 79.1994 343.595 79.1823C343.653 79.1653 343.717 79.1692 343.771 79.1933C346.81 80.5411 349.47 82.4677 351.56 84.8337C353.649 87.1997 355.116 89.9458 355.852 92.873C355.855 92.9231 355.837 92.9723 355.8 93.0108C355.764 93.0493 355.712 93.0743 355.656 93.0808Z" fill="white"/>
<path d="M366.53 80.9192C367.345 80.1659 368.288 79.3348 368.298 78.3218C368.269 77.8528 368.078 77.4028 367.752 77.0316C367.426 76.6604 366.979 76.3856 366.471 76.2438C365.961 76.1147 365.426 76.0781 364.899 76.1361C364.373 76.1942 363.865 76.3457 363.406 76.5815C362.488 77.0535 361.681 77.6766 361.029 78.417C359.882 79.6401 358.933 80.998 358.211 82.4516C357.352 84.1885 356.818 86.0363 356.629 87.9235C356.473 89.1482 356.45 90.3833 356.56 91.6118C356.678 92.5729 356.816 94.2092 358.083 94.5383C358.363 94.6041 358.659 94.6026 358.939 94.5342C359.218 94.4657 359.472 94.3326 359.674 94.1486C360.08 93.7789 360.344 93.3067 360.43 92.798C360.525 92.294 360.581 91.7849 360.597 91.2742C360.767 89.2843 361.438 87.3528 362.562 85.6205C363.644 83.9064 364.978 82.3256 366.53 80.9192Z" fill="#EBEBEB"/>
<path d="M358.231 93.2724C358.261 93.2725 358.291 93.2671 358.318 93.2565C358.346 93.2458 358.371 93.2302 358.391 93.2107C358.411 93.1911 358.427 93.168 358.436 93.1428C358.446 93.1177 358.45 93.0911 358.447 93.0646C358.327 90.133 358.947 87.2145 360.262 84.5195C361.576 81.8245 363.553 79.4203 366.049 77.4802C366.091 77.4416 366.114 77.3905 366.114 77.3373C366.114 77.2842 366.091 77.2331 366.049 77.1945C366.004 77.1598 365.947 77.1406 365.887 77.1406C365.828 77.1406 365.77 77.1598 365.725 77.1945C363.172 79.176 361.151 81.6336 359.809 84.3891C358.467 87.1445 357.837 90.1287 357.966 93.1252C357.971 93.1506 357.983 93.1746 358 93.1959C358.016 93.2172 358.038 93.2353 358.062 93.249C358.087 93.2628 358.115 93.272 358.144 93.276C358.173 93.28 358.202 93.2788 358.231 93.2724Z" fill="white"/>
<path d="M444.379 242.022L440.303 244.109L440.313 239.953L444.379 242.022Z" fill="#E6E6E6"/>
<path d="M440.48 199.539L480.201 219.764L440.48 199.539Z" fill="#CFCFCF"/>
<path d="M444.38 242.027L480.113 260.209V264.373L484.356 266.538L484.513 217.611L436.218 193.031L436.061 241.949L440.314 244.114V239.958L444.38 242.027ZM480.152 235.637L440.431 215.421L440.48 199.551L480.201 219.776L480.152 235.637ZM480.093 255.845L440.372 235.629L440.412 219.828V219.785L480.142 240.001L480.093 255.845Z" fill="#EBEBEB"/>
<path d="M440.363 235.619L440.412 219.801V219.758L480.143 239.974L480.084 255.836L440.363 235.619Z" fill="#F5F5F5"/>
<path d="M440.432 215.409L440.481 199.539L480.201 219.764L480.152 235.626L440.432 215.409Z" fill="#F5F5F5"/>
<path d="M484.513 217.61L526.679 196.008L526.522 244.934L484.346 266.536L484.513 217.61Z" fill="#E6E6E6"/>
<path d="M484.514 217.604L436.209 193.024L478.375 171.422L526.68 196.002L484.514 217.604Z" fill="#F5F5F5"/>
<path d="M492.723 189.254C485.907 185.79 474.887 185.79 468.109 189.254C461.332 192.717 461.371 198.353 468.188 201.816C475.004 205.28 486.035 205.28 492.802 201.816C499.569 198.353 499.54 192.726 492.723 189.254Z" fill="#E0E0E0"/>
<path d="M494.67 174.867L480.919 175.222L467.168 174.867C466.569 183.04 468.386 191.378 470.88 195.447C471.468 196.494 472.422 197.347 473.601 197.88C475.865 198.9 478.371 199.432 480.914 199.432C483.456 199.432 485.962 198.9 488.226 197.88C489.423 197.335 490.38 196.455 490.947 195.378C493.471 191.257 495.259 183.006 494.67 174.867Z" fill="#37474F"/>
<path d="M490.61 169.915C495.993 172.651 496.022 177.092 490.679 179.828C485.336 182.564 476.633 182.564 471.251 179.828C465.868 177.092 465.849 172.651 471.192 169.915C476.535 167.179 485.238 167.17 490.61 169.915Z" fill="#455A64"/>
<path d="M488.49 170.996C492.684 173.135 492.704 176.598 488.539 178.736C486.192 179.79 483.595 180.339 480.961 180.339C478.327 180.339 475.731 179.79 473.384 178.736C469.189 176.598 469.16 173.135 473.334 170.996C475.683 169.946 478.279 169.398 480.912 169.398C483.545 169.398 486.142 169.946 488.49 170.996Z" fill="#263238"/>
<path d="M479.788 175.21C480.89 176.022 482.194 176.592 483.595 176.872C484.995 177.152 486.451 177.134 487.842 176.821C489.184 176.463 490.403 175.815 491.389 174.937C492.376 174.058 493.098 172.977 493.49 171.79C491.865 171.108 490.376 170.199 489.08 169.098C491.141 168.642 493.306 168.708 495.327 169.288C495.885 168.514 496.22 167.631 496.303 166.717C496.385 165.802 496.212 164.884 495.798 164.041C493.455 163.12 490.817 162.961 488.353 163.591C489.375 162.802 490.571 162.209 491.866 161.848C493.161 161.488 494.527 161.368 495.877 161.496C496.07 158.023 495.455 154.552 494.07 151.297C488.952 151.539 483.982 153.479 482.283 154.881C482.205 156.496 482.397 158.112 482.853 159.678C482.19 159.381 481.624 158.941 481.207 158.399C480.789 157.857 480.535 157.231 480.466 156.578C477.264 157.28 475.899 158.691 475.398 159.764C475.858 161.773 476.904 163.641 478.433 165.184C475.417 164.379 474.199 161.427 474.199 161.427C471.253 167.609 471.832 174.604 479.788 175.21Z" fill="#00B47F"/>
<path opacity="0.2" d="M479.788 175.21C480.89 176.022 482.194 176.592 483.595 176.872C484.995 177.152 486.451 177.134 487.842 176.821C489.184 176.463 490.403 175.815 491.389 174.937C492.376 174.058 493.098 172.977 493.49 171.79C491.865 171.108 490.376 170.199 489.08 169.098C491.141 168.642 493.306 168.708 495.327 169.288C495.885 168.514 496.22 167.631 496.303 166.717C496.385 165.802 496.212 164.884 495.798 164.041C493.455 163.12 490.817 162.961 488.353 163.591C489.375 162.802 490.571 162.209 491.866 161.848C493.161 161.488 494.527 161.368 495.877 161.496C496.07 158.023 495.455 154.552 494.07 151.297C488.952 151.539 483.982 153.479 482.283 154.881C482.205 156.496 482.397 158.112 482.853 159.678C482.19 159.381 481.624 158.941 481.207 158.399C480.789 157.857 480.535 157.231 480.466 156.578C477.264 157.28 475.899 158.691 475.398 159.764C475.858 161.773 476.904 163.641 478.433 165.184C475.417 164.379 474.199 161.427 474.199 161.427C471.253 167.609 471.832 174.604 479.788 175.21Z" fill="black"/>
<path d="M479.612 175.877C479.573 175.875 479.535 175.866 479.5 175.851C479.465 175.836 479.434 175.815 479.409 175.789C479.383 175.763 479.364 175.733 479.351 175.701C479.339 175.668 479.334 175.634 479.337 175.6C479.828 169.894 483.521 160.492 492.341 152.726C492.397 152.676 492.473 152.648 492.552 152.648C492.631 152.648 492.707 152.676 492.763 152.726C492.819 152.775 492.851 152.842 492.851 152.912C492.851 152.982 492.819 153.048 492.763 153.098C484.061 160.76 480.407 170.024 479.926 175.609C479.927 175.645 479.92 175.681 479.905 175.715C479.889 175.749 479.866 175.779 479.836 175.805C479.807 175.83 479.772 175.849 479.733 175.862C479.694 175.874 479.653 175.88 479.612 175.877Z" fill="#F5F5F5"/>
<path d="M482.056 178.263C481.029 179.003 479.819 179.517 478.524 179.766C477.229 180.014 475.885 179.988 474.604 179.691C473.322 179.394 472.138 178.833 471.149 178.055C470.16 177.277 469.394 176.304 468.914 175.215C470.383 174.622 471.727 173.814 472.891 172.826C470.946 172.419 468.913 172.473 466.998 172.982C466.42 172.329 466.041 171.557 465.896 170.739C465.752 169.92 465.847 169.083 466.173 168.306C468.406 167.498 470.88 167.367 473.206 167.934C471.134 166.508 468.526 165.827 465.908 166.029C465.462 162.969 465.798 159.861 466.89 156.93C471.801 157.189 476.594 158.973 478.274 160.228C478.462 161.649 478.396 163.086 478.078 164.488C478.669 164.242 479.171 163.855 479.528 163.372C479.886 162.889 480.084 162.329 480.101 161.752C483.156 162.402 484.54 163.666 485.081 164.618C484.79 166.385 483.935 168.043 482.615 169.397C483.474 169.129 484.252 168.693 484.891 168.121C485.531 167.55 486.015 166.858 486.308 166.099C489.461 171.562 489.412 177.726 482.056 178.263Z" fill="#00B47F"/>
<path d="M482.225 178.878C482.155 178.877 482.088 178.853 482.036 178.812C481.984 178.771 481.95 178.714 481.94 178.653C481.096 173.692 477.029 165.45 468.239 158.567C468.185 158.518 468.154 158.453 468.154 158.385C468.154 158.317 468.185 158.251 468.239 158.203C468.265 158.178 468.297 158.159 468.333 158.145C468.368 158.132 468.406 158.125 468.445 158.125C468.483 158.125 468.522 158.132 468.557 158.145C468.592 158.159 468.624 158.178 468.651 158.203C477.54 165.181 481.685 173.554 482.539 178.601C482.551 178.67 482.532 178.74 482.486 178.796C482.44 178.853 482.371 178.892 482.294 178.904L482.225 178.878Z" fill="white"/>
<path d="M296.419 10.6191C295.653 8.24681 290.192 3.69269 284.76 3.83121C284.236 3.84527 283.719 3.93597 283.228 4.09961L177.68 57.0521C176.14 57.8408 174.859 58.9691 173.964 60.3262C173.068 61.6833 172.589 63.2224 172.572 64.7924V266.109C172.572 271.234 179.281 276.126 185.587 273.771C185.725 273.734 185.859 273.688 185.989 273.633L291.587 220.593C293.136 219.815 294.424 218.689 295.32 217.329C296.215 215.97 296.686 214.425 296.684 212.853V11.5888C296.685 11.2515 296.594 10.919 296.419 10.6191Z" fill="#455A64"/>
<path d="M187.305 86.0604C187.305 85.2752 187.542 84.5042 187.99 83.8258C188.439 83.1475 189.084 82.5861 189.858 82.1989L287.893 33.03C288.277 32.8356 288.712 32.7337 289.155 32.7344C289.598 32.7351 290.032 32.8384 290.415 33.034C290.798 33.2297 291.117 33.5106 291.337 33.8488C291.558 34.187 291.675 34.5705 291.674 34.9607V197.316C291.672 198.101 291.435 198.871 290.986 199.549C290.538 200.227 289.894 200.789 289.121 201.177L191.076 250.416C190.693 250.608 190.259 250.708 189.817 250.706C189.376 250.704 188.943 250.601 188.561 250.405C188.18 250.21 187.863 249.93 187.642 249.593C187.422 249.256 187.305 248.874 187.305 248.485V86.0604Z" fill="#3A8CFF"/>
<path opacity="0.2" d="M187.305 86.0604C187.305 85.2752 187.542 84.5042 187.99 83.8258C188.439 83.1475 189.084 82.5861 189.858 82.1989L287.893 33.03C288.277 32.8356 288.712 32.7337 289.155 32.7344C289.598 32.7351 290.032 32.8384 290.415 33.034C290.798 33.2297 291.117 33.5106 291.337 33.8488C291.558 34.187 291.675 34.5705 291.674 34.9607V197.316C291.672 198.101 291.435 198.871 290.986 199.549C290.538 200.227 289.894 200.789 289.121 201.177L191.076 250.416C190.693 250.608 190.259 250.708 189.817 250.706C189.376 250.704 188.943 250.601 188.561 250.405C188.18 250.21 187.863 249.93 187.642 249.593C187.422 249.256 187.305 248.874 187.305 248.485V86.0604Z" fill="black"/>
<path opacity="0.3" d="M172.572 64.7876V266.113C172.572 271.238 179.281 276.13 185.587 273.775C185.207 273.898 184.8 273.938 184.4 273.892C183.999 273.846 183.617 273.716 183.286 273.512C182.955 273.308 182.685 273.036 182.499 272.72C182.313 272.404 182.217 272.053 182.218 271.697V70.346C182.222 68.5951 182.813 66.8843 183.917 65.4283L173.643 60.8828C172.95 62.0945 172.584 63.4307 172.572 64.7876Z" fill="black"/>
<path opacity="0.1" d="M284.801 3.8218C284.277 3.83585 283.759 3.92655 283.269 4.0902L177.681 57.0513C175.929 57.9388 174.521 59.2728 173.645 60.8782L183.977 65.4236C184.852 64.2634 186.023 63.2998 187.395 62.6098L292.983 9.6573C293.279 9.51467 293.604 9.42634 293.94 9.39762C294.275 9.3689 294.614 9.4004 294.935 9.49021C295.256 9.58003 295.554 9.7263 295.809 9.92019C296.064 10.1141 296.273 10.3516 296.421 10.6183C295.694 8.23739 290.233 3.72656 284.801 3.8218Z" fill="white"/>
<path d="M252.506 42.8954C253.242 42.5231 253.861 42.8174 253.861 43.562C253.835 43.9743 253.7 44.3755 253.466 44.7334C253.233 45.0913 252.907 45.3958 252.516 45.6226L231.791 56.1854C231.054 56.5664 230.455 56.246 230.455 55.4928C230.481 55.0849 230.615 54.6882 230.847 54.3346C231.079 53.9811 231.402 53.6808 231.791 53.4581L252.506 42.8954Z" fill="#263238"/>
<path d="M226.465 56.188C227.201 55.8071 227.801 56.1101 227.81 56.8633C227.783 57.2732 227.649 57.6719 227.417 58.028C227.185 58.3842 226.862 58.6879 226.475 58.9153C225.728 59.2876 225.119 58.9846 225.119 58.2313C225.144 57.8212 225.279 57.4222 225.513 57.067C225.747 56.7118 226.073 56.4106 226.465 56.188Z" fill="#263238"/>
<path d="M239.725 41.3644C241.208 40.6112 242.406 41.2086 242.406 42.7151C242.361 43.5345 242.096 44.3327 241.633 45.0446C241.17 45.7564 240.523 46.3615 239.744 46.8103C238.261 47.5722 237.033 46.9488 237.023 45.451C237.079 44.6308 237.352 43.8336 237.821 43.1237C238.29 42.4138 238.942 41.8111 239.725 41.3644Z" fill="#263238"/>
<path d="M239.737 230.895C242.752 229.363 245.188 230.584 245.198 233.64C245.102 235.311 244.56 236.939 243.617 238.391C242.673 239.842 241.353 241.077 239.766 241.995C236.751 243.527 234.256 242.272 234.246 239.216C234.354 237.546 234.908 235.922 235.862 234.477C236.816 233.031 238.144 231.804 239.737 230.895Z" fill="#263238"/>
<path d="M315.779 45.1593C315.082 43.0035 310.171 38.8736 305.201 38.9948C304.728 39.0078 304.261 39.0867 303.816 39.2286L208.021 87.2979C206.623 88.0131 205.461 89.0365 204.648 90.2676C203.835 91.4988 203.4 92.8952 203.385 94.3195V277.064C203.385 281.722 209.474 286.164 215.171 283.991C215.3 283.959 215.425 283.915 215.545 283.861L311.389 235.714C312.794 235.007 313.963 233.986 314.775 232.753C315.588 231.519 316.016 230.118 316.015 228.692V46.0078C316.01 45.7129 315.929 45.4229 315.779 45.1593Z" fill="#407BFF"/>
<path opacity="0.2" d="M203.336 94.2913V277.071C203.336 281.729 209.426 286.17 215.122 283.997C214.778 284.107 214.409 284.142 214.047 284.1C213.684 284.057 213.338 283.939 213.039 283.753C212.739 283.568 212.494 283.322 212.325 283.036C212.156 282.75 212.068 282.432 212.068 282.11V99.3823C212.072 97.7917 212.608 96.2376 213.61 94.9147L204.289 90.8281C203.683 91.9056 203.357 93.0888 203.336 94.2913Z" fill="white"/>
<path opacity="0.4" d="M305.203 38.9948C304.73 39.0078 304.263 39.0867 303.818 39.2286L208.023 87.2979C206.427 88.0981 205.143 89.3054 204.34 90.7611L213.72 94.891C214.507 93.8243 215.567 92.9347 216.814 92.2936L312.648 44.2329C312.919 44.0961 313.219 44.0098 313.53 43.9795C313.84 43.9492 314.154 43.9755 314.453 44.0566C314.751 44.1378 315.027 44.2722 315.265 44.4515C315.502 44.6307 315.694 44.851 315.831 45.0987C315.084 43.0035 310.173 38.8736 305.203 38.9948Z" fill="white"/>
<path opacity="0.3" d="M315.779 45.1593C315.082 43.0035 310.171 38.8736 305.201 38.9948C304.728 39.0078 304.261 39.0867 303.816 39.2286L208.021 87.2979C206.623 88.0131 205.461 89.0365 204.648 90.2676C203.835 91.4988 203.4 92.8952 203.385 94.3195V277.064C203.385 281.722 209.474 286.164 215.171 283.991C215.3 283.959 215.425 283.915 215.545 283.861L311.389 235.714C312.794 235.007 313.963 233.986 314.775 232.753C315.588 231.519 316.016 230.118 316.015 228.692V46.0078C316.01 45.7129 315.929 45.4229 315.779 45.1593Z" fill="white"/>
<path d="M282.415 66.0291C283.329 65.5616 284.075 65.9339 284.085 66.8949V75.7954C284.053 76.3033 283.886 76.7975 283.598 77.2381C283.31 77.6787 282.908 78.0535 282.425 78.3322L220.035 110.046C219.112 110.514 218.375 110.142 218.365 109.181V100.272C218.396 99.7635 218.563 99.2691 218.851 98.8283C219.14 98.3876 219.542 98.0129 220.025 97.7348L282.415 66.0291Z" fill="#407BFF"/>
<g opacity="0.7">
<path opacity="0.7" d="M282.415 66.0291C283.329 65.5616 284.075 65.9339 284.085 66.8949V75.7954C284.053 76.3033 283.886 76.7975 283.598 77.2381C283.31 77.6787 282.908 78.0535 282.425 78.3322L220.035 110.046C219.112 110.514 218.375 110.142 218.365 109.181V100.272C218.396 99.7635 218.563 99.2691 218.851 98.8283C219.14 98.3876 219.542 98.0129 220.025 97.7348L282.415 66.0291Z" fill="white"/>
</g>
<g opacity="0.5">
<path opacity="0.5" d="M307.274 56.5869C309.415 55.496 311.154 56.3705 311.203 58.535C311.182 59.3955 310.965 60.2435 310.564 61.0285L311.213 62.4571L309.553 62.5956C308.97 63.3402 308.213 63.9661 307.333 64.4311C305.201 65.522 303.463 64.6475 303.453 62.483C303.517 61.3042 303.897 60.1555 304.561 59.1308C305.225 58.1061 306.155 57.2344 307.274 56.5869Z" fill="white"/>
</g>
<g opacity="0.5">
<path opacity="0.5" d="M293.11 69.9718C293.602 69.7294 294.004 69.9199 294.004 70.4221C293.987 70.6924 293.898 70.9555 293.745 71.1901C293.591 71.4246 293.377 71.6242 293.12 71.7727C292.629 72.0151 292.236 71.7727 292.236 71.3225C292.252 71.0529 292.34 70.7903 292.492 70.5558C292.644 70.3213 292.855 70.1213 293.11 69.9718Z" fill="white"/>
<path opacity="0.5" d="M297.529 67.7337C298.02 67.4826 298.413 67.6817 298.422 68.1752C298.404 68.4464 298.314 68.7099 298.158 68.9445C298.003 69.1792 297.787 69.3783 297.529 69.5259C297.047 69.777 296.645 69.5778 296.645 69.0757C296.663 68.8068 296.753 68.5455 296.906 68.3125C297.06 68.0795 297.273 67.8813 297.529 67.7337Z" fill="white"/>
<path opacity="0.5" d="M299.377 60.7422L298.719 66.7595L291.932 70.2141L291.225 64.898L299.377 60.7422Z" fill="white"/>
</g>
<path d="M218.768 181.73C218.769 181.04 218.977 180.362 219.37 179.764C219.763 179.167 220.328 178.672 221.007 178.328L307.226 135.046C307.566 134.875 307.952 134.786 308.344 134.789C308.736 134.792 309.12 134.886 309.457 135.062C309.794 135.238 310.072 135.489 310.264 135.791C310.455 136.092 310.552 136.433 310.546 136.778V173.445C310.543 174.136 310.333 174.814 309.938 175.412C309.543 176.009 308.977 176.504 308.297 176.847L222.058 220.137C221.718 220.309 221.333 220.397 220.941 220.395C220.549 220.392 220.165 220.298 219.828 220.122C219.49 219.946 219.212 219.695 219.021 219.393C218.829 219.092 218.732 218.751 218.739 218.406L218.768 181.73Z" fill="#407BFF"/>
<path opacity="0.5" d="M218.768 181.73C218.769 181.04 218.977 180.362 219.37 179.764C219.763 179.167 220.328 178.672 221.007 178.328L307.226 135.046C307.566 134.875 307.952 134.786 308.344 134.789C308.736 134.792 309.12 134.886 309.457 135.062C309.794 135.238 310.072 135.489 310.264 135.791C310.455 136.092 310.552 136.433 310.546 136.778V173.445C310.543 174.136 310.333 174.814 309.938 175.412C309.543 176.009 308.977 176.504 308.297 176.847L222.058 220.137C221.718 220.309 221.333 220.397 220.941 220.395C220.549 220.392 220.165 220.298 219.828 220.122C219.49 219.946 219.212 219.695 219.021 219.393C218.829 219.092 218.732 218.751 218.739 218.406L218.768 181.73Z" fill="white"/>
<path d="M256.278 165.305L256.386 199.054L223.069 216.006L222.961 182.266L256.278 165.305Z" fill="#407BFF"/>
<g opacity="0.2">
<path opacity="0.2" d="M256.278 165.305L256.386 199.054L223.069 216.006L222.961 182.266L256.278 165.305Z" fill="white"/>
</g>
<g opacity="0.6">
<path opacity="0.6" d="M278.182 168.18L278.192 170.318L260.109 179.496L260.1 177.357L278.182 168.18Z" fill="white"/>
<path opacity="0.6" d="M300.351 153.305L300.361 155.435L260.1 175.928L260.09 173.79L300.351 153.305Z" fill="white"/>
<path opacity="0.6" d="M285.126 182.328L285.136 184.467L260.109 197.125L260.1 194.995L285.126 182.328Z" fill="white"/>
<path opacity="0.6" d="M291.324 175.43L291.334 177.56L260.1 193.56L260.09 191.421L291.324 175.43Z" fill="white"/>
<path opacity="0.6" d="M300.341 149.742L300.351 151.872L260.08 172.366V170.236L300.341 149.742Z" fill="white"/>
<path opacity="0.6" d="M281.728 153.211L281.738 156.285L260.07 167.315L260.061 164.25L281.728 153.211Z" fill="white"/>
</g>
<path d="M240.434 183.939C244.098 182.077 247.074 183.584 247.094 187.29C246.972 189.311 246.31 191.279 245.161 193.032C244.012 194.785 242.409 196.273 240.484 197.376C236.82 199.246 233.834 197.748 233.824 194.043C233.946 192.019 234.608 190.049 235.757 188.293C236.906 186.537 238.508 185.046 240.434 183.939Z" fill="#E0E0E0"/>
<path d="M235.523 178.174L245.346 173.195V180.814C243.628 180.603 241.882 180.951 240.434 181.793C238.505 182.817 236.834 184.178 235.523 185.793V178.174Z" fill="#E0E0E0"/>
<path d="M218.768 132.993C218.769 132.302 218.977 131.624 219.37 131.027C219.763 130.429 220.328 129.934 221.007 129.59L307.226 86.3433C307.566 86.1721 307.952 86.0833 308.344 86.086C308.736 86.0887 309.12 86.1828 309.457 86.3587C309.794 86.5345 310.072 86.786 310.264 87.0874C310.455 87.3888 310.552 87.7295 310.546 88.0749V124.742C310.543 125.433 310.333 126.111 309.938 126.708C309.543 127.306 308.977 127.801 308.297 128.144L222.058 171.434C221.718 171.606 221.333 171.694 220.941 171.692C220.549 171.689 220.165 171.595 219.828 171.419C219.49 171.243 219.212 170.992 219.021 170.69C218.829 170.389 218.732 170.048 218.739 169.703L218.768 132.993Z" fill="#407BFF"/>
<path opacity="0.1" d="M218.768 132.993C218.769 132.302 218.977 131.624 219.37 131.027C219.763 130.429 220.328 129.934 221.007 129.59L307.226 86.3433C307.566 86.1721 307.952 86.0833 308.344 86.086C308.736 86.0887 309.12 86.1828 309.457 86.3587C309.794 86.5345 310.072 86.786 310.264 87.0874C310.455 87.3888 310.552 87.7295 310.546 88.0749V124.742C310.543 125.433 310.333 126.111 309.938 126.708C309.543 127.306 308.977 127.801 308.297 128.144L222.058 171.434C221.718 171.606 221.333 171.694 220.941 171.692C220.549 171.689 220.165 171.595 219.828 171.419C219.49 171.243 219.212 170.992 219.021 170.69C218.829 170.389 218.732 170.048 218.739 169.703L218.768 132.993Z" fill="black"/>
<path d="M218.768 229.285C218.766 228.594 218.973 227.915 219.366 227.317C219.76 226.719 220.326 226.224 221.007 225.883L307.226 182.601C307.566 182.43 307.952 182.341 308.344 182.344C308.736 182.347 309.12 182.441 309.457 182.616C309.794 182.792 310.072 183.044 310.264 183.345C310.455 183.647 310.552 183.987 310.546 184.333V220.991C310.545 221.682 310.336 222.361 309.941 222.959C309.546 223.557 308.979 224.051 308.297 224.393L222.058 267.683C221.718 267.855 221.333 267.943 220.941 267.941C220.549 267.938 220.165 267.844 219.828 267.668C219.49 267.492 219.212 267.241 219.021 266.939C218.829 266.638 218.732 266.297 218.739 265.952L218.768 229.285Z" fill="#407BFF"/>
<path opacity="0.5" d="M218.768 229.285C218.766 228.594 218.973 227.915 219.366 227.317C219.76 226.719 220.326 226.224 221.007 225.883L307.226 182.601C307.566 182.43 307.952 182.341 308.344 182.344C308.736 182.347 309.12 182.441 309.457 182.616C309.794 182.792 310.072 183.044 310.264 183.345C310.455 183.647 310.552 183.987 310.546 184.333V220.991C310.545 221.682 310.336 222.361 309.941 222.959C309.546 223.557 308.979 224.051 308.297 224.393L222.058 267.683C221.718 267.855 221.333 267.943 220.941 267.941C220.549 267.938 220.165 267.844 219.828 267.668C219.49 267.492 219.212 267.241 219.021 266.939C218.829 266.638 218.732 266.297 218.739 265.952L218.768 229.285Z" fill="white"/>
<path d="M256.278 212.891L256.386 246.64L223.069 263.592L222.961 229.843L256.278 212.891Z" fill="#407BFF"/>
<g opacity="0.2">
<path opacity="0.2" d="M256.278 212.891L256.386 246.64L223.069 263.592L222.961 229.843L256.278 212.891Z" fill="white"/>
</g>
<g opacity="0.6">
<path opacity="0.6" d="M278.182 215.758L278.192 217.888L260.109 227.065L260.1 224.935L278.182 215.758Z" fill="white"/>
<path opacity="0.6" d="M300.351 200.883L300.361 203.013L260.1 223.506L260.09 221.376L300.351 200.883Z" fill="white"/>
<path opacity="0.6" d="M285.126 229.914L285.136 232.044L260.109 244.711L260.1 242.572L285.126 229.914Z" fill="white"/>
<path opacity="0.6" d="M291.324 223.016L291.334 225.146L260.1 241.137L260.09 239.007L291.324 223.016Z" fill="white"/>
<path opacity="0.6" d="M300.341 197.32L300.351 199.459L260.08 219.944V217.814L300.341 197.32Z" fill="white"/>
<path opacity="0.6" d="M281.728 200.797L281.738 203.87L260.07 214.901L260.061 211.827L281.728 200.797Z" fill="white"/>
</g>
<path d="M250.668 228.314C251.385 227.95 251.935 228.314 251.827 229.093L249.931 242.833C249.825 243.481 249.563 244.102 249.163 244.654C248.763 245.207 248.235 245.678 247.613 246.037L232.576 253.69C231.417 254.279 230.435 253.924 230.258 252.824L228.293 241.058C228.275 240.672 228.371 240.288 228.573 239.945C228.774 239.602 229.074 239.311 229.442 239.101L233.941 236.816V239.578L235.12 238.989V236.279L245.02 231.24V234.011L246.199 233.404V230.634L250.668 228.314Z" fill="#E0E0E0"/>
<path d="M240.021 226.167C243.39 224.435 246.15 225.829 246.16 229.249V233.37L244.981 233.976V229.846C244.981 227.084 242.752 225.959 240.07 227.353C238.638 228.18 237.446 229.293 236.593 230.601C235.74 231.91 235.248 233.378 235.159 234.885V239.015L233.98 239.604V235.483C234.084 233.62 234.686 231.806 235.735 230.187C236.785 228.568 238.253 227.191 240.021 226.167Z" fill="white"/>
<path d="M226.439 139.041C226.439 138.254 226.675 137.482 227.124 136.802C227.573 136.122 228.218 135.559 228.993 135.171L327.038 86.0016C327.422 85.809 327.857 85.7088 328.299 85.711C328.741 85.7132 329.175 85.8177 329.557 86.014C329.939 86.2104 330.255 86.4918 330.475 86.83C330.695 87.1681 330.81 87.5513 330.809 87.941V129.621C330.807 130.406 330.569 131.176 330.121 131.854C329.672 132.532 329.029 133.094 328.255 133.482L230.221 182.729C229.837 182.923 229.402 183.025 228.959 183.025C228.516 183.024 228.082 182.921 227.699 182.725C227.315 182.529 226.997 182.248 226.776 181.91C226.555 181.572 226.439 181.189 226.439 180.798V139.041Z" fill="#407BFF"/>
<path opacity="0.6" d="M226.439 139.041C226.439 138.254 226.675 137.482 227.124 136.802C227.573 136.122 228.218 135.559 228.993 135.171L327.038 86.0016C327.422 85.809 327.857 85.7088 328.299 85.711C328.741 85.7132 329.175 85.8177 329.557 86.014C329.939 86.2104 330.255 86.4918 330.475 86.83C330.695 87.1681 330.81 87.5513 330.809 87.941V129.621C330.807 130.406 330.569 131.176 330.121 131.854C329.672 132.532 329.029 133.094 328.255 133.482L230.221 182.729C229.837 182.923 229.402 183.025 228.959 183.025C228.516 183.024 228.082 182.921 227.699 182.725C227.315 182.529 226.997 182.248 226.776 181.91C226.555 181.572 226.439 181.189 226.439 180.798V139.041Z" fill="white"/>
<path d="M269.085 120.422L269.203 158.777L231.339 178.05L231.211 139.695L269.085 120.422Z" fill="#407BFF"/>
<g opacity="0.2">
<path opacity="0.2" d="M269.085 120.422L269.203 158.777L231.339 178.05L231.211 139.695L269.085 120.422Z" fill="white"/>
</g>
<path d="M261.757 132.383V139.95C261.713 140.663 261.478 141.358 261.072 141.976C260.666 142.594 260.1 143.119 259.42 143.508C258.133 144.166 257.082 143.638 257.072 142.331V134.972L261.757 132.383Z" fill="#E0E0E0"/>
<path d="M265.903 145.648C265.726 147.756 265.335 149.845 264.734 151.891L258.212 155.216C258.399 153.571 258.576 151.917 258.753 150.272C256.392 153.136 253.764 155.821 250.895 158.298C249.772 159.267 248.519 160.11 247.162 160.809L235.013 167.008C234.74 166.805 234.567 166.516 234.531 166.203L246.779 159.977C247.981 159.354 249.1 158.617 250.119 157.778C253.492 155.084 256.589 152.132 259.371 148.956L265.903 145.648Z" fill="#E0E0E0"/>
<path d="M263.575 131.445C263.712 132.709 263.977 137.393 264.301 138.458C264.625 139.523 265.038 140.571 265.47 141.636C265.902 142.939 266.049 144.302 265.902 145.653L259.371 148.978C256.588 152.154 253.492 155.106 250.118 157.8C249.1 158.639 247.98 159.376 246.779 159.999L234.54 166.225C234.409 164.971 234.732 163.713 235.464 162.632C236.449 161.351 237.663 160.22 239.059 159.281C240.789 157.943 242.407 156.496 243.901 154.952C248.056 150.735 252.849 144.77 254.44 136.424C255.206 136.025 256.12 135.558 257.092 134.995V142.354C257.092 143.662 258.153 144.19 259.439 143.532C260.119 143.143 260.686 142.618 261.092 142C261.498 141.381 261.733 140.687 261.777 139.973V132.406C262.415 132.06 263.024 131.722 263.575 131.445Z" fill="white"/>
<g opacity="0.6">
<path opacity="0.6" d="M293.983 123.672L293.993 126.105L273.436 136.538L273.426 134.113L293.983 123.672Z" fill="white"/>
<path opacity="0.6" d="M319.187 106.766L319.197 109.19L273.426 132.48L273.416 130.056L319.187 106.766Z" fill="white"/>
<path opacity="0.6" d="M301.88 139.758V142.182L273.436 156.572L273.426 154.147L301.88 139.758Z" fill="white"/>
<path opacity="0.6" d="M308.923 131.922L308.933 134.346L273.426 152.528L273.416 150.104L308.923 131.922Z" fill="white"/>
<path opacity="0.6" d="M319.177 102.719V105.143L273.406 128.433V126.009L319.177 102.719Z" fill="white"/>
<path opacity="0.6" d="M298.021 106.672L298.03 110.17L273.397 122.707L273.377 119.217L298.021 106.672Z" fill="white"/>
</g>
<g opacity="0.8">
<path opacity="0.8" d="M233.5 109.359L230.798 119.264L228.255 120.563L226.624 116.199L224.964 122.234L222.41 123.533L219.65 116.407L222.096 115.16L223.815 119.732L225.573 113.394L227.763 112.277L229.473 116.909L231.231 110.52L233.5 109.359Z" fill="white"/>
<path opacity="0.8" d="M236.74 107.711L236.77 116.23L234.383 117.443L234.354 108.932L236.74 107.711Z" fill="white"/>
<path opacity="0.8" d="M241.719 105.009C242.628 104.492 243.683 104.209 244.764 104.195L244.047 106.36C243.227 106.334 242.415 106.517 241.71 106.888C240.727 107.399 240.354 107.918 240.354 108.342C240.354 109.65 245.128 106.247 245.137 109.39C245.137 110.871 243.92 112.767 241.425 114.039C240.381 114.666 239.13 114.971 237.869 114.905L238.645 112.741C239.618 112.828 240.596 112.627 241.425 112.169C242.407 111.659 242.79 111.182 242.79 110.775C242.79 109.425 238.007 112.845 237.997 109.667C237.997 108.143 239.215 106.282 241.719 105.009Z" fill="white"/>
<path opacity="0.8" d="M254.226 98.8125L254.245 107.323L251.868 108.544L251.859 105.219L248.617 106.873L248.627 110.189L246.25 111.401L246.221 102.882L248.607 101.67L248.617 104.873L251.849 103.219L251.839 100.025L254.226 98.8125Z" fill="white"/>
<path opacity="0.8" d="M258.291 96.7422L258.311 103.348L262.328 101.305V103.21L255.934 106.465L255.904 97.9543L258.291 96.7422Z" fill="white"/>
<path opacity="0.8" d="M265.637 93L265.656 101.519L263.279 102.732L263.25 94.2121L265.637 93Z" fill="white"/>
<path opacity="0.8" d="M270.598 90.2982C271.512 89.777 272.575 89.4948 273.663 89.4844L272.936 91.6402C272.115 91.6248 271.306 91.8106 270.598 92.177C269.616 92.6792 269.253 93.1987 269.253 93.6316C269.253 94.9389 274.026 91.5363 274.036 94.6792C274.036 96.1597 272.818 98.0472 270.313 99.3199C269.271 99.9499 268.019 100.255 266.758 100.186L267.534 98.0212C268.511 98.109 269.493 97.9047 270.323 97.4411C271.305 96.9476 271.689 96.4627 271.689 96.0558C271.689 94.6965 266.895 98.1251 266.885 94.9562C266.885 93.4151 268.103 91.5709 270.598 90.2982Z" fill="white"/>
<path opacity="0.8" d="M281.737 84.8203V86.7251L279.163 88.0411L279.183 94.6472L276.806 95.8506L276.786 89.2446L274.203 90.5606L274.193 88.6558L281.737 84.8203Z" fill="white"/>
<path opacity="0.8" d="M311.692 70.7969L311.702 74.2947L287.068 86.8315L287.059 83.3423L311.692 70.7969Z" fill="white"/>
<path opacity="0.8" d="M305.259 78.8203L305.269 82.3095L287.068 91.5736L287.059 88.0844L305.259 78.8203Z" fill="white"/>
</g>
<path d="M235.623 200.517C237.34 200.723 239.084 200.376 240.534 199.539C242.46 198.511 244.131 197.151 245.445 195.539V203.149L235.623 208.128V200.517Z" fill="#E0E0E0"/>
<path d="M245.344 180.812C247.682 181.21 249.273 183.132 249.273 186.206C249.111 189.607 247.763 192.881 245.413 195.582C244.099 197.194 242.428 198.554 240.502 199.582C239.052 200.419 237.308 200.766 235.591 200.561C233.253 200.145 231.711 198.232 231.662 195.167C231.831 191.781 233.175 188.524 235.512 185.833C236.823 184.219 238.494 182.858 240.423 181.833C241.867 180.975 243.618 180.611 245.344 180.812ZM240.502 197.375C242.428 196.272 244.031 194.783 245.179 193.03C246.328 191.277 246.991 189.31 247.112 187.288C247.112 183.582 244.166 182.093 240.453 183.937C238.527 185.044 236.924 186.536 235.775 188.292C234.627 190.047 233.964 192.017 233.843 194.041C233.843 197.747 236.838 199.236 240.502 197.375Z" fill="white"/>
<path d="M352.093 338.915C351.366 340.257 349.058 341.513 346.534 341.868C344.01 342.223 341.436 341.755 338.902 341.443C335.131 340.976 331.312 340.889 327.518 341.184C325.17 341.455 322.805 341.605 320.437 341.634C318.049 341.652 315.716 341 313.777 339.772C312.437 338.845 311.542 337.506 311.272 336.023C311.166 336.985 311.341 337.954 311.779 338.839C312.217 339.724 312.905 340.495 313.777 341.08C315.718 342.304 318.049 342.956 320.437 342.941C322.805 342.912 325.17 342.762 327.518 342.491C331.312 342.196 335.131 342.284 338.902 342.751C341.436 343.062 344.186 343.703 346.76 343.331C349.333 342.959 351.592 341.72 352.319 340.378L352.093 338.915Z" fill="#263238"/>
<path d="M324.442 334.944C326.564 334.944 325.788 332.173 327.811 330.32C326.986 330.364 326.161 330.372 325.336 330.372C323.529 332.675 323.018 334.944 324.442 334.944Z" fill="white"/>
<path d="M328.864 334.808C331.005 334.808 330.445 331.501 332.547 329.57C332.068 329.719 331.579 329.844 331.084 329.943C330.671 330.029 330.249 330.09 329.827 330.142C327.951 332.479 327.391 334.808 328.864 334.808Z" fill="white"/>
<path d="M349.894 328.462C349.754 327.852 349.362 327.309 348.794 326.939L337.312 326.688C336.085 328.043 334.426 329.044 332.549 329.562C330.447 331.493 331.006 334.8 328.865 334.8C327.412 334.8 327.952 332.471 329.847 330.133C329.193 330.22 328.538 330.281 327.883 330.315C325.86 332.168 326.636 334.939 324.514 334.939C323.08 334.939 323.591 332.67 325.408 330.367H323.797C323.306 330.367 322.815 330.367 322.334 330.298C318.11 333.242 317.747 336.436 318.297 341.441C319.023 341.557 319.759 341.627 320.497 341.649C322.865 341.619 325.23 341.469 327.579 341.198C331.372 340.904 335.191 340.991 338.962 341.458C341.497 341.77 344.07 342.255 346.594 341.882C349.118 341.51 351.427 340.272 352.154 338.93L349.894 328.462Z" fill="#455A64"/>
<path d="M322.273 330.279C320.369 330.011 318.43 330.011 316.527 330.279C314.199 330.782 311.969 332.193 311.36 334.245C311.2 334.811 311.17 335.4 311.272 335.976C311.542 337.459 312.436 338.798 313.776 339.725C315.083 340.596 316.616 341.164 318.236 341.379C317.686 336.418 318.049 333.223 322.273 330.279Z" fill="white"/>
<path d="M336.977 323.805V328.679C336.977 328.943 337.036 329.203 337.15 329.446C337.265 329.69 337.433 329.911 337.645 330.096C337.856 330.282 338.108 330.429 338.384 330.529C338.66 330.629 338.957 330.68 339.255 330.679H345.07C346.038 330.68 346.969 330.348 347.665 329.756C348.361 329.163 348.769 328.355 348.802 327.502L348.94 323.805H336.977Z" fill="#FFBC96"/>
<path d="M375.244 321.638C374.927 322.234 374.439 322.748 373.827 323.126C373.215 323.504 372.501 323.734 371.757 323.793C370.209 323.892 368.665 323.555 367.347 322.832C365.382 321.716 364.577 319.967 363.221 318.382C361.8 316.852 360.189 315.467 358.418 314.252C356.511 313.01 354.944 311.406 353.831 309.56C353.556 309.009 353.374 308.426 353.291 307.828C353.118 308.951 353.305 310.093 353.831 311.127C354.944 312.971 356.512 314.571 358.418 315.811C360.189 317.028 361.8 318.417 363.221 319.949C364.577 321.525 365.353 323.283 367.347 324.4C368.667 325.116 370.21 325.449 371.757 325.352C372.5 325.294 373.214 325.066 373.826 324.689C374.438 324.312 374.927 323.8 375.244 323.205C375.477 322.314 375.547 321.396 375.45 320.486C375.455 320.877 375.386 321.267 375.244 321.638Z" fill="#263238"/>
<path d="M362.2 310.948C361.986 311.195 361.885 311.504 361.916 311.813C361.952 311.956 362.029 312.087 362.139 312.196C362.249 312.305 362.388 312.388 362.544 312.437C362.769 312.49 363.006 312.491 363.232 312.439C363.457 312.388 363.664 312.285 363.831 312.142C364.168 311.859 364.471 311.546 364.735 311.207C365.499 310.345 366.518 309.686 367.681 309.303C368.251 309.122 368.845 309.008 369.449 308.965L368.015 307.805C366.822 307.861 365.664 308.18 364.648 308.734C363.632 309.288 362.79 310.058 362.2 310.974V310.948Z" fill="white"/>
<path d="M362.502 306.907C361.157 307.461 360.039 308.368 359.3 309.504C359.085 309.751 358.984 310.06 359.015 310.37C359.051 310.513 359.127 310.647 359.237 310.758C359.347 310.868 359.487 310.952 359.644 311.002C359.871 311.055 360.109 311.056 360.336 311.004C360.563 310.953 360.771 310.85 360.941 310.707C361.275 310.424 361.574 310.111 361.834 309.772C362.523 308.991 363.424 308.376 364.454 307.984C365.485 307.592 366.611 307.436 367.728 307.53L366.303 306.387C365.006 306.253 363.692 306.432 362.502 306.907Z" fill="white"/>
<path d="M365.364 305.64C364.059 304.52 362.53 303.622 360.855 302.991C358.803 302.298 356.249 302.402 354.668 303.744C354.086 304.282 353.659 304.934 353.42 305.646C353.181 306.358 353.137 307.11 353.292 307.84C353.376 308.437 353.558 309.02 353.833 309.571C354.208 310.287 354.686 310.956 355.257 311.563C355.807 307.19 360.099 305.147 365.364 305.64Z" fill="white"/>
<path d="M375.352 317.367C375.38 315.885 374.995 314.42 374.233 313.099L371.443 310.501L369.479 308.908C368.875 308.952 368.281 309.065 367.711 309.246C366.548 309.629 365.528 310.288 364.764 311.151C364.501 311.489 364.198 311.803 363.86 312.086C363.693 312.229 363.487 312.331 363.261 312.383C363.036 312.434 362.799 312.433 362.574 312.38C362.418 312.331 362.279 312.249 362.169 312.14C362.059 312.031 361.982 311.899 361.945 311.757C361.914 311.447 362.016 311.138 362.23 310.891C362.82 309.975 363.662 309.205 364.678 308.651C365.694 308.098 366.852 307.778 368.045 307.722L367.662 307.488C366.545 307.394 365.419 307.55 364.388 307.942C363.358 308.334 362.457 308.95 361.768 309.731C361.508 310.069 361.209 310.383 360.875 310.666C360.705 310.809 360.497 310.911 360.27 310.963C360.043 311.014 359.805 311.013 359.578 310.96C359.421 310.911 359.281 310.827 359.171 310.716C359.061 310.605 358.985 310.472 358.949 310.328C358.918 310.018 359.019 309.709 359.234 309.462C359.923 308.398 360.948 307.533 362.184 306.974C363.421 306.414 364.816 306.184 366.198 306.311H366.149L365.294 305.627C360.03 305.133 355.738 307.177 355.188 311.532C356.145 312.516 357.204 313.42 358.35 314.233C360.121 315.448 361.732 316.833 363.153 318.363C364.509 319.947 365.285 321.696 367.279 322.813C368.596 323.536 370.14 323.873 371.689 323.774C372.433 323.715 373.147 323.485 373.759 323.107C374.37 322.728 374.859 322.215 375.176 321.618C375.315 321.253 375.385 320.87 375.382 320.484C375.433 319.445 375.423 318.405 375.352 317.367Z" fill="#455A64"/>
<path d="M365.283 309.648L365.607 314.886C369.359 316.791 373.298 315.752 374.604 314.549L374.85 309.648H365.283Z" fill="#FFBC96"/>
<path d="M372.658 196.552C372.337 195.99 372.143 195.379 372.088 194.751L371.774 190.258L335.432 192.318C334.951 194.561 334.45 197.314 333.988 200.422C346.976 203.412 360.761 202.032 372.658 196.552Z" fill="#FFBC96"/>
<path d="M371.953 178.422L379.683 191.591L372.66 201.98L380.43 212.803L392.157 196.76C392.947 195.672 393.463 194.447 393.67 193.169C393.876 191.89 393.769 190.587 393.356 189.348C391.353 183.089 388.804 176.976 385.734 171.062L371.953 178.422Z" fill="#FFBC96"/>
<path d="M365.805 152.991C374.704 151.536 379.791 154.151 387.315 171.891C384.241 177.952 371.207 180.203 371.207 180.203L365.805 152.991Z" fill="#00B47F"/>
<path d="M349.293 155.863L339.522 157.991C337.359 162.354 335.155 166.456 333.002 170.82C331.372 174.092 329.702 177.594 329.82 181.336C329.913 183.335 330.509 185.266 331.543 186.91C332.576 188.554 334.006 189.847 335.669 190.642L334.543 205.369C349.886 210.551 368.647 206.002 372.767 202.096C373.972 195.922 375.049 189.354 376.264 183.18C377.162 179.196 377.714 175.126 377.914 171.027C378.118 166.871 377.222 162.739 375.336 159.136L375.276 159.027C373.991 156.898 372.173 155.227 370.044 154.218C367.915 153.209 365.566 152.905 363.283 153.343L349.293 155.863Z" fill="#00B47F"/>
<path d="M373.23 197.369C373.012 197.111 372.822 196.836 372.66 196.547C360.774 202.018 347.005 203.398 334.03 200.417C331.299 218.374 328.942 248.772 330.386 268.815C331.584 292.192 336.466 325.222 336.466 325.222C342.821 326.902 347.584 325.872 349.382 324.66C351.503 301.499 356.169 285.629 352.564 270.313C354.97 259.603 356.493 246.157 356.493 246.157L358.33 269.811L364.537 311.37C366.283 312.162 368.235 312.533 370.196 312.446C372.157 312.36 374.058 311.818 375.705 310.876C380.223 287.093 381.913 270.98 377.964 259.179C384.024 220.183 384.358 210.201 373.23 197.369Z" fill="#44484A"/>
<path opacity="0.3" d="M359.193 241.499L362.523 229.178C366.452 228.616 372.482 226.373 375.675 221.672C371.07 224.855 365.407 226.616 359.557 226.685L356.521 246.174L357.17 254.494L357.425 251.464C357.718 248.107 358.31 244.775 359.193 241.499Z" fill="black"/>
<path d="M276.885 140.987L286.658 163.282C287.285 164.714 288.322 165.978 289.668 166.952C291.014 167.926 292.623 168.577 294.339 168.84L311.036 171.437C312.979 169.619 314.29 167.347 314.812 164.892C315.335 162.436 315.047 159.9 313.983 157.585C308.923 157.52 303.881 157.033 298.926 156.13C298.926 156.13 288.367 144.805 283.957 138.961L287.1 129.775C287.244 129.363 287.291 128.928 287.237 128.499C287.183 128.07 287.029 127.656 286.785 127.281L285.096 124.684C284.658 124.017 283.96 123.512 283.132 123.264L280.696 122.528C280.146 122.364 279.563 122.3 278.984 122.34C278.405 122.38 277.841 122.524 277.327 122.762L273.614 124.494C273.379 124.601 273.183 124.764 273.048 124.965C272.913 125.165 272.843 125.395 272.848 125.628C272.852 125.855 272.925 126.077 273.06 126.27C273.195 126.464 273.386 126.622 273.614 126.727L275.009 127.359L276.973 130.234C275.658 131.783 274.941 133.663 274.925 135.598C274.909 137.532 275.596 139.421 276.885 140.987Z" fill="#FFBC96"/>
<path d="M337.908 156.61C331.897 156.861 322.871 157.735 314.011 157.579C315.075 159.895 315.363 162.431 314.84 164.886C314.318 167.342 313.008 169.613 311.064 171.432L331.927 174.644C334.129 174.95 336.381 174.523 338.246 173.446C340.11 172.369 341.453 170.719 342.014 168.817C342.662 166.488 343.36 164.532 343.752 162.263C343.877 161.539 343.816 160.799 343.574 160.098C343.333 159.396 342.917 158.752 342.357 158.21C341.797 157.668 341.108 157.244 340.338 156.967C339.568 156.69 338.738 156.568 337.908 156.61Z" fill="#00B47F"/>
<path d="M337.312 132.066C335.865 129.642 335.205 126.912 335.406 124.179C335.522 122.816 336.01 121.499 336.827 120.338C337.644 119.177 338.768 118.208 340.101 117.512C342.822 116.231 346.604 116.646 348.499 118.811C353.509 116.612 359.785 116.577 364.441 119.313C366.768 120.703 368.65 122.6 369.903 124.819C371.155 127.038 371.737 129.504 371.591 131.98C371.385 134.811 370.206 137.599 370.609 140.421C370.815 142.083 371.591 143.763 371.07 145.373C370.825 146.039 370.428 146.653 369.902 147.177C369.377 147.701 368.735 148.125 368.016 148.421C366.611 149.07 363.331 148.897 361.779 149.183C357.045 152.975 351.092 151.555 347.311 148.17C343.529 144.785 337.312 132.066 337.312 132.066Z" fill="#37474F"/>
<path d="M336.33 135.836L333.373 140.364L336.605 141.42L336.33 135.836Z" fill="#804040"/>
<path d="M335.996 133.815C336.467 129.841 337.783 126.092 340.72 124.188C339.933 129.13 341.125 134.16 344.089 138.413C344.379 137.1 345.144 135.907 346.27 135.01C346.816 134.545 347.5 134.224 348.243 134.083C348.985 133.943 349.758 133.988 350.473 134.213C351.451 134.624 352.208 135.354 352.585 136.248C352.983 137.108 353.091 138.051 352.895 138.964C352.7 139.876 352.21 140.72 351.484 141.393C350.757 142.066 349.826 142.54 348.802 142.757C347.778 142.975 346.704 142.928 345.71 142.62C346.117 144.386 347.098 146.008 348.533 147.29C349.969 148.573 351.796 149.459 353.793 149.841C356.428 150.315 359.164 150.086 361.651 149.183L362.869 154.543C357.958 159.192 349.472 156.066 349.472 156.066L348.391 150.776C338.657 151.287 337.754 151.14 336.683 146.447C335.799 142.284 335.568 138.034 335.996 133.815Z" fill="#FFBC96"/>
<path opacity="0.3" d="M357.543 128.039C358.915 124.582 361.666 121.683 365.283 119.883C367.356 121.31 369.006 123.158 370.096 125.268C371.185 127.378 371.68 129.689 371.54 132.004C371.334 134.835 370.155 137.623 370.558 140.446C370.764 142.108 371.54 143.788 371.019 145.398C370.774 146.063 370.376 146.677 369.851 147.201C369.325 147.726 368.683 148.149 367.965 148.446C366.56 149.095 363.279 148.922 361.728 149.208C361.521 149.372 361.315 149.511 361.099 149.658C359.455 146.889 358.164 143.967 357.249 140.948C355.904 136.713 356.007 132.222 357.543 128.039Z" fill="black"/>
<path d="M360.245 125.056C361.007 122.831 362.555 120.879 364.661 119.482C366.768 118.086 369.326 117.318 371.962 117.29C374.598 117.262 377.175 117.975 379.32 119.327C381.464 120.678 383.064 122.597 383.887 124.804C386.834 132.597 379.3 140.96 380.94 149.047C381.53 151.973 383.288 154.64 383.887 157.558C384.248 159.251 384.212 160.992 383.781 162.672C383.35 164.353 382.533 165.938 381.381 167.329C380.229 168.721 378.766 169.89 377.082 170.765C375.398 171.64 373.529 172.201 371.59 172.415C373.701 170.363 373.741 167.22 372.572 164.623C371.403 162.025 369.223 159.956 367.366 157.696C359.803 148.64 356.562 135.757 360.245 125.056Z" fill="#37474F"/>
</svg>
