<svg width="690" height="350" viewBox="0 0 690 350" fill="none" xmlns="http://www.w3.org/2000/svg">
<path d="M236.772 24.9457C223.514 26.9226 210.951 32.0267 200.172 39.8152C189.393 47.6037 180.724 57.8414 174.918 69.64C164.232 91.8232 164.812 117.314 162.843 141.672C161.192 162.046 157.672 182.235 152.325 201.995C148.082 217.712 142.678 233.176 139.854 249.207C137.03 265.237 136.938 282.146 143.09 297.253C146.89 306.353 152.799 314.47 160.352 320.968C167.906 327.467 176.899 332.169 186.626 334.707C201.143 338.372 216.423 336.957 231.414 336.45C293.436 334.364 357.733 347.877 416.32 327.898C422.091 325.932 428.029 323.429 431.723 318.691C435.112 314.326 436.119 308.665 436.592 303.227C439.157 274.161 429.357 245.125 414.58 219.798C407.879 208.311 399.727 197.004 387.927 190.523C377.348 184.713 364.053 182.851 356.13 173.882C347.23 163.796 348.574 148.883 348.91 135.564C349.594 107.212 343.428 79.1002 330.912 53.5053C327.431 46.4138 323.279 39.3521 317.082 34.3613C310.365 28.9831 301.725 26.4653 293.177 24.9457C277.056 22.0872 260.515 22.3809 244.511 25.8098C242.048 24.8889 239.385 24.5917 236.772 24.9457Z" fill="#4219BC"/>
<path d="M277.419 29.1218C278.4 35.2606 277.971 45.4721 277.25 51.6852C277.099 53.7419 276.671 55.7706 275.978 57.7199C275.294 59.3225 274.381 60.8237 273.265 62.1791C272.222 63.6966 270.845 64.9709 269.233 65.9099C268.418 66.364 267.492 66.5955 266.553 66.5798C265.613 66.5641 264.696 66.3018 263.898 65.8207C262.95 68.1062 262.43 70.5375 262.365 73C259.023 72.7473 255.635 72.7622 252.308 72.2865C249.256 71.7166 246.306 70.715 243.554 69.3138C243.416 69.2394 243.263 69.1354 243.294 68.9868C243.324 68.8381 243.616 68.9867 243.462 69.0759C244.386 64.0211 244.868 58.8996 244.903 53.7661C244.903 51.1501 240.964 48.2665 240.534 45.6802C240.243 43.8816 240.228 41.3696 240.028 39.5562C239.569 35.3795 244.796 31.7081 247.464 28.4083C250.233 25.1419 253.885 22.687 258.011 21.3182C262.61 19.7278 267.899 19.3265 272.207 21.5263C276.515 23.7262 279.259 24.7815 277.419 29.1218Z" fill="#E98B77"/>
<path d="M254.518 28.8675C253.877 31.0579 252.807 33.101 251.368 34.8792C250.646 35.6939 249.969 36.5468 249.339 37.4342C248.713 38.3397 248.434 39.438 248.552 40.5302C247.562 39.9161 246.453 39.5166 245.297 39.3579C244.732 39.3145 244.164 39.4018 243.638 39.613C243.113 39.8243 242.644 40.1537 242.269 40.5753C241.654 41.4794 241.39 42.574 241.527 43.6563C241.619 45.3514 242.229 46.9784 243.276 48.3208C244.322 49.6632 245.756 50.6574 247.386 51.1709C245.221 53.9513 244.979 57.4832 244.918 61C242.481 60.9098 239.982 57.5433 239.422 55.1987C237.948 48.8764 236.47 42.5491 234.986 36.2168C234.396 34.0638 234.066 31.8491 234.002 29.619C233.957 27.3662 234.743 25.1749 236.212 23.457C237.749 21.9937 239.678 21.0021 241.769 20.6014C242.723 16.3933 247.038 13.5227 251.202 12.2602C255.744 10.8775 260.846 10.3064 265.192 12.2602C267.402 13.2521 269.31 14.8452 271.566 15.7019C274.594 16.8441 278.258 16.6488 280.772 18.7078C281.612 19.4032 282.252 20.3073 282.627 21.3281C283.001 22.3489 283.096 23.45 282.902 24.5191C282.708 25.5882 282.232 26.5872 281.523 27.4144C280.814 28.2416 279.896 28.8675 278.864 29.2282C276.566 29.7789 274.162 29.7115 271.899 29.0328C267.629 28.2017 263.301 27.6993 258.954 27.5299C257.485 27.6502 254.911 27.5149 254.518 28.8675Z" fill="#382E36"/>
<path d="M371.114 318.182C371.091 321.636 371.371 325.085 371.95 328.491C372.787 331.769 362.812 337 362.812 337L354 330.138C354.551 326.177 354.774 322.179 354.666 318.182C354.325 313.272 371.114 318.182 371.114 318.182Z" fill="#E88A76"/>
<path d="M355.4 348.634C358.146 349.168 360.966 349.262 363.744 348.91C364.744 348.751 365.763 348.751 366.762 348.91C367.029 348.252 367.496 347.686 368.102 347.287C368.707 346.888 369.424 346.674 370.158 346.673C370.889 346.692 371.609 346.849 372.277 347.135C372.945 347.422 373.548 347.832 374.051 348.343C374.501 348.943 375.084 349.439 375.756 349.796C376.28 349.968 376.835 350.033 377.386 349.985L396.807 349.578C397.457 349.647 398.114 349.581 398.734 349.383C399.354 349.185 399.922 348.86 400.399 348.431C400.877 347.657 401.079 346.754 400.972 345.86C401.104 344.151 400.654 342.448 399.69 341.009C398.301 339.324 395.781 339.309 393.653 338.699C391.526 338.089 389.549 337.145 387.285 336.462C384.741 335.689 382.401 334.394 380.426 332.666C378.452 330.938 376.889 328.82 375.847 326.455C375.608 325.668 375.148 324.96 374.519 324.407C373.975 324.14 373.372 324 372.761 324C372.15 324 371.547 324.14 371.003 324.407C369.608 324.904 368.247 325.486 366.929 326.15C366.023 326.615 365.012 327.356 365.133 328.329C365.284 329.607 367.276 330.537 366.642 331.684C366.295 332.352 365.344 332.381 364.574 332.309C360.727 331.91 356.968 330.929 353.438 329.404C353.142 331.034 352.995 332.687 353 334.342C353.166 337.886 353.347 341.415 353.513 344.959C353.762 346.333 354.417 347.609 355.4 348.634Z" fill="#1A1D3E"/>
<path d="M374.726 317.762C372.576 319.436 369.93 320.411 367.169 320.547C360.001 321.475 352.711 320.974 345.752 319.073C340.842 310.233 342.938 299.626 343.03 289.607C342.968 283.856 342.539 278.114 341.745 272.413C340.72 263.736 339.45 255.397 338.303 246.837C338.106 245.377 337.407 244.024 336.317 242.992C335.227 241.961 333.809 241.312 332.291 241.15L285.175 236.185C277.19 235.345 269.082 234.476 261.678 231.485C254.274 228.494 247.543 223.043 245.096 215.691C242.48 207.867 245.004 199.204 243 191.219C254.917 189.112 265.227 186.799 277.205 185.149C284.012 184.177 290.973 183.278 297.703 184.869C302.779 186.347 307.602 188.531 312.022 191.352C327.931 200.442 343.825 209.547 359.092 219.595C361.474 220.896 363.45 222.789 364.813 225.076C365.868 227.315 365.716 229.879 365.868 232.339C366.312 239.116 370.81 262.557 370.718 267.699C370.512 279.561 371.593 291.412 373.946 303.058C375.005 307.89 375.268 312.852 374.726 317.762Z" fill="#FFC305"/>
<path d="M421.114 310.188C421.091 313.641 421.371 317.089 421.95 320.494C422.787 323.771 412.813 329 412.813 329L404 322.125C404.551 318.17 404.774 314.178 404.666 310.188C404.356 305.264 421.114 310.188 421.114 310.188Z" fill="#E88A76"/>
<path d="M405.399 340.634C408.146 341.168 410.966 341.261 413.744 340.91C414.744 340.751 415.763 340.751 416.762 340.91C417.029 340.252 417.496 339.686 418.102 339.287C418.707 338.888 419.424 338.674 420.158 338.673C420.889 338.692 421.609 338.849 422.277 339.135C422.945 339.422 423.548 339.832 424.051 340.343C424.501 340.943 425.083 341.439 425.756 341.796C426.28 341.968 426.835 342.033 427.386 341.985L446.807 341.578C447.456 341.647 448.114 341.581 448.734 341.383C449.353 341.185 449.922 340.86 450.399 340.431C450.877 339.657 451.079 338.754 450.972 337.86C451.104 336.151 450.654 334.448 449.69 333.009C448.301 331.324 445.781 331.309 443.653 330.699C441.526 330.089 439.549 329.145 437.285 328.462C434.741 327.689 432.401 326.394 430.426 324.666C428.451 322.938 426.889 320.82 425.847 318.455C425.607 317.668 425.148 316.96 424.519 316.407C423.975 316.14 423.372 316 422.761 316C422.15 316 421.547 316.14 421.003 316.407C419.611 316.901 418.255 317.484 416.943 318.15C416.023 318.615 415.027 319.356 415.133 320.329C415.284 321.607 417.275 322.537 416.642 323.684C416.295 324.352 415.344 324.381 414.589 324.309C410.736 323.912 406.973 322.931 403.438 321.404C403.149 323.035 403.003 324.687 403 326.342L403.513 336.959C403.762 338.333 404.417 339.609 405.399 340.634Z" fill="#1A1D3E"/>
<path d="M424.731 310.743C422.597 312.429 419.971 313.411 417.231 313.548C410.117 314.476 402.884 313.971 395.977 312.064C391.103 303.159 393.183 292.474 393.274 282.381C393.213 276.588 392.787 270.804 391.999 265.062C390.982 256.32 389.737 247.92 388.583 239.297C388.388 237.827 387.694 236.464 386.613 235.425C385.531 234.386 384.123 233.733 382.616 233.569L335.856 228.567C327.931 227.721 319.885 226.846 312.537 223.833C305.189 220.82 298.509 215.329 296.08 207.923C293.484 200.043 295.989 191.316 294 183.272C305.827 181.15 316.059 178.82 327.947 177.157C334.703 176.178 341.61 175.273 348.29 176.875C353.391 178.122 338.559 181.506 343.068 184.118C358.842 193.29 393.168 199.33 409.215 211.856C419.448 219.811 420.844 255.133 420.753 260.357C420.549 272.307 421.622 284.245 423.957 295.976C425.003 300.828 425.265 305.811 424.731 310.743Z" fill="#FFC305"/>
<path d="M371.93 42.0473L359.16 109.357C358.908 110.691 358.954 112.063 359.294 113.378C359.634 114.694 360.259 115.921 361.128 116.977C361.997 118.033 363.087 118.892 364.326 119.495C365.564 120.098 366.921 120.43 368.303 120.47L484.608 122.998C486.839 123.041 489.016 122.316 490.76 120.951C492.505 119.585 493.709 117.664 494.163 115.519L509.783 45.3978C510.086 44.0236 510.071 42.6003 509.74 41.2324C509.409 39.8646 508.769 38.587 507.869 37.4936C506.968 36.4002 505.83 35.5189 504.536 34.9143C503.243 34.3097 501.828 33.9973 500.396 34L381.348 34.359C379.111 34.3633 376.947 35.1337 375.227 36.5374C373.508 37.941 372.342 39.8897 371.93 42.0473V42.0473Z" stroke="#C8C9E3" stroke-width="1.36" stroke-miterlimit="10"/>
<path d="M363.026 37.0106L350.164 103.519C349.908 104.838 349.952 106.194 350.293 107.495C350.635 108.796 351.265 110.01 352.14 111.053C353.015 112.097 354.115 112.946 355.364 113.541C356.613 114.136 357.98 114.463 359.373 114.5L476.517 116.998C478.767 117.043 480.962 116.329 482.723 114.98C484.483 113.63 485.698 111.73 486.156 109.608L501.781 40.2474C502.087 38.8903 502.072 37.4845 501.738 36.1336C501.405 34.7828 500.76 33.5212 499.853 32.4419C498.946 31.3626 497.799 30.4931 496.496 29.8974C495.193 29.3017 493.768 28.9951 492.326 29.0001L372.435 29.3548C370.185 29.373 368.013 30.1484 366.295 31.5466C364.576 32.9449 363.42 34.8778 363.026 37.0106Z" fill="#1B055B"/>
<path d="M380.935 41C382.187 40.8625 383.438 40.775 384.689 40.7501C385.961 40.7752 387.234 40.7251 388.499 40.6001C389.228 40.5001 389.104 39.5378 388.499 39.3503C387.257 39.055 385.97 38.9453 384.689 39.0254C383.438 39.0254 382.187 39.1379 380.935 39.2753C380.69 39.2845 380.458 39.377 380.285 39.5345C380.112 39.6919 380.01 39.9027 380 40.1252C380 40.3506 380.099 40.5667 380.274 40.7261C380.449 40.8855 380.687 40.975 380.935 40.975V41Z" fill="#909C90"/>
<path d="M394.635 39.9951C397.658 39.6522 400.681 39.4886 403.704 39.5041C405.215 39.5041 406.727 39.5041 408.238 39.5041C409.686 39.7028 411.143 39.7028 412.591 39.5041C413.181 39.5041 413.09 38.0079 412.591 37.7741C411.165 37.26 409.702 37.0244 408.238 37.0727C406.727 37.0727 405.215 36.9091 403.704 37.0727C400.681 37.1662 397.658 37.4624 394.635 37.9611C393.804 38.1014 393.773 40.112 394.635 39.9951Z" fill="#909C90"/>
<path d="M421.675 39.5827C424.846 39.5827 428.016 39.5827 431.171 39.5827C432.71 39.5827 434.341 39.7199 435.926 39.8343C437.463 40.1053 439.018 40.0437 440.543 39.6513C441.205 39.4455 441.097 38.1191 440.543 37.8218C439.043 37.1885 437.484 36.9183 435.926 37.0214C434.387 37.0214 432.756 37.0214 431.171 37.0214C428.093 37.0214 424.846 37.2044 421.675 37.4559C420.783 37.4559 420.767 39.5827 421.675 39.5598V39.5827Z" fill="#909C90"/>
<path d="M445.987 38.59L458.943 38.819C461.04 38.819 463.138 38.9247 465.235 38.9423H468.474C469.529 39.109 470.603 38.9127 471.559 38.3786C471.693 38.2884 471.805 38.1596 471.882 38.0051C471.959 37.8506 472 37.6757 472 37.4977C472 37.3197 471.959 37.1448 471.882 36.9903C471.805 36.8358 471.693 36.7071 471.559 36.6169C470.655 36.0917 469.633 35.895 468.628 36.0531H465.39C463.23 36.0531 461.071 36.0531 458.912 36.1765L445.956 36.4055C445.703 36.4055 445.459 36.5206 445.28 36.7254C445.101 36.9302 445 37.208 445 37.4977C445 37.7874 445.101 38.0652 445.28 38.2701C445.459 38.4749 445.703 38.59 445.956 38.59H445.987Z" fill="#909C90"/>
<path d="M372.944 53.9182C377.093 54.0149 381.228 54.039 385.378 53.9182C387.415 53.9182 389.452 53.8215 391.49 53.7249C393.545 53.7656 395.596 53.5537 397.572 53.0966C398.081 52.9395 398.201 52.2628 397.572 52.1541C395.613 51.9486 393.629 51.9486 391.67 52.1541C389.572 52.2387 387.475 52.287 385.378 52.3353C381.228 52.4441 377.093 52.4562 372.944 52.3353C372.693 52.3353 372.453 52.4155 372.276 52.5583C372.099 52.701 372 52.8947 372 53.0966C372 53.2985 372.099 53.4921 372.276 53.6348C372.453 53.7776 372.693 53.8578 372.944 53.8578V53.9182Z" fill="#909C90"/>
<path d="M403.179 53.8794H405.331C405.751 53.908 406.174 53.908 406.594 53.8794C406.756 53.8593 406.917 53.8309 407.076 53.7943C407.288 53.7345 407.487 53.6384 407.663 53.5107C407.765 53.4528 407.851 53.3708 407.91 53.2725C407.969 53.1743 408 53.0634 408 52.9504C408 52.8375 407.969 52.7265 407.91 52.6283C407.851 52.5301 407.765 52.448 407.663 52.3902C407.48 52.2733 407.283 52.178 407.076 52.1065C406.917 52.0699 406.756 52.0415 406.594 52.0214C406.174 51.9929 405.751 51.9929 405.331 52.0214H403.179C403.031 52.0047 402.881 52.0177 402.739 52.0595C402.597 52.1014 402.466 52.1713 402.354 52.2644C402.243 52.3576 402.154 52.4719 402.093 52.6C402.032 52.728 402 52.8668 402 53.0072C402 53.1475 402.032 53.2863 402.093 53.4143C402.154 53.5424 402.243 53.6567 402.354 53.7499C402.466 53.8431 402.597 53.9129 402.739 53.9548C402.881 53.9967 403.031 54.0097 403.179 53.9929V53.8794Z" fill="#909C90"/>
<path d="M411.041 52.8483C425.373 53.1182 439.689 52.9698 454.005 52.8483C454.269 52.8483 454.522 52.7559 454.709 52.5915C454.895 52.427 455 52.204 455 51.9714C455 51.7388 454.895 51.5158 454.709 51.3513C454.522 51.1868 454.269 51.0944 454.005 51.0944C439.689 51.2563 425.357 51.2698 411.041 51C410.765 51 410.5 51.0967 410.305 51.2687C410.11 51.4408 410 51.6741 410 51.9174C410 52.1607 410.11 52.3941 410.305 52.5661C410.5 52.7382 410.765 52.8348 411.041 52.8348V52.8483Z" fill="#909C90"/>
<path d="M375.906 64.9445C377.482 64.9445 379.03 64.9445 380.606 64.9445C382.205 64.9628 383.799 64.8174 385.349 64.5117C386.144 64.312 386.286 63.28 385.349 63.1468C384.56 63.0194 383.753 62.9746 382.949 63.0137L380.507 63.1468C378.874 63.2356 377.284 63.3688 375.665 63.5796C375.45 63.6242 375.265 63.7295 375.144 63.8751C375.023 64.0207 374.976 64.1962 375.012 64.3675C375.039 64.5392 375.144 64.6976 375.308 64.8138C375.473 64.9299 375.685 64.996 375.906 65V64.9445Z" fill="#909C90"/>
<path d="M373.16 73.8861C374.362 73.6385 375.573 73.5032 376.786 73.4811C378.03 73.4971 379.273 73.3541 380.501 73.0536C380.648 72.9624 380.775 72.8067 380.864 72.6063C380.953 72.406 381 72.17 381 71.9286C381 71.6872 380.953 71.4512 380.864 71.2509C380.775 71.0505 380.648 70.8948 380.501 70.8036C378.003 69.78 375.375 69.7335 372.863 70.6686C372.592 70.7635 372.355 71.0078 372.197 71.3536C372.04 71.6995 371.973 72.122 372.01 72.5385C372.047 72.955 372.186 73.3355 372.398 73.6055C372.611 73.8756 372.883 74.0158 373.16 73.9986V73.8861Z" fill="#909C90"/>
<path d="M386.028 73.9742C386.622 73.9742 387.216 73.9742 387.81 73.9742C388.164 73.9493 388.516 73.9062 388.864 73.8452C389.006 73.8142 389.145 73.7754 389.28 73.729C389.495 73.6555 389.684 73.5356 389.83 73.3806C389.939 73.2742 390 73.1364 390 72.9935C390 72.8507 389.939 72.7129 389.83 72.6064C389.688 72.4478 389.497 72.3271 389.28 72.2581C389.147 72.2059 389.008 72.167 388.864 72.1419C388.517 72.0758 388.164 72.0284 387.81 72H386.028C385.745 72.0279 385.484 72.1453 385.294 72.3298C385.105 72.5142 385 72.7528 385 73C385 73.2472 385.105 73.4858 385.294 73.6702C385.484 73.8547 385.745 73.9721 386.028 74V73.9742Z" fill="#909C90"/>
<path d="M395.512 73.9046C396.582 73.5256 397.682 73.3615 398.781 73.4167C399.924 73.4167 401.079 73.4167 402.222 73.4167C402.388 73.4515 402.556 73.3944 402.696 73.2562C402.835 73.118 402.936 72.9083 402.978 72.6672C403.02 72.4261 403.001 72.1703 402.925 71.9486C402.848 71.727 402.719 71.5549 402.563 71.4651C401.408 70.5017 400.106 69.9976 398.781 70.0015C397.455 69.9794 396.131 70.2023 394.842 70.665C394.697 70.7237 394.561 70.8244 394.442 70.9612C394.324 71.098 394.224 71.2682 394.15 71.4622C394.076 71.6561 394.028 71.87 394.009 72.0915C393.99 72.3131 394.001 72.5379 394.041 72.7532C394.124 73.1853 394.317 73.552 394.58 73.7746C394.843 73.9971 395.154 74.0578 395.446 73.9436L395.512 73.9046Z" fill="#909C90"/>
<path d="M410.048 72.2979C414.271 72.5084 418.479 72.6839 422.75 72.7891L429.101 72.947H432.276C432.713 73.03 433.16 73.0154 433.59 72.9039C434.021 72.7924 434.428 72.5863 434.785 72.2979C434.923 72.1437 435 71.9357 435 71.7191C435 71.5024 434.923 71.2945 434.785 71.1402C434.433 70.8356 434.031 70.6107 433.6 70.4782C433.17 70.3458 432.72 70.3085 432.276 70.3684H429.101L422.75 70.1754C418.526 70.0526 414.319 70.0175 410.048 70C409.77 70 409.503 70.122 409.307 70.3391C409.11 70.5562 409 70.8507 409 71.1577C409 71.4648 409.11 71.7593 409.307 71.9764C409.503 72.1935 409.77 72.3155 410.048 72.3155V72.2979Z" fill="#909C90"/>
<path d="M440.163 72.9785L444.997 72.7848H447.334C447.781 72.8435 448.232 72.7646 448.658 72.5534C449.083 72.3421 449.473 72.0031 449.803 71.5584C449.93 71.3594 450 71.0981 450 70.8268C450 70.5555 449.93 70.2942 449.803 70.0952C449.465 69.6776 449.07 69.3679 448.645 69.1863C448.22 69.0046 447.773 68.9551 447.334 69.0409H444.997L440.163 69.2345C439.843 69.2843 439.548 69.5041 439.333 69.8516C439.119 70.1992 439 70.65 439 71.1173C439 71.5846 439.119 72.0353 439.333 72.3829C439.548 72.7305 439.843 72.9503 440.163 73V72.9785Z" fill="#909C90"/>
<path d="M452.422 72.7315L457.299 72.9349C458.098 72.9349 458.913 72.9349 459.729 72.9349C460.645 73.1129 461.58 72.9241 462.414 72.3925C462.594 72.2444 462.741 72.0381 462.844 71.7929C462.946 71.5478 463 71.2719 463 70.9914C463 70.7109 462.946 70.4351 462.844 70.1899C462.741 69.9447 462.594 69.7384 462.414 69.5903C461.578 69.0664 460.643 68.8855 459.729 69.0705C458.913 69.0705 458.03 69.0705 457.299 69.0705L452.422 69.2965C452.243 69.269 452.062 69.292 451.891 69.364C451.719 69.436 451.561 69.5555 451.427 69.7145C451.293 69.8735 451.185 70.0684 451.112 70.2866C451.038 70.5047 451 70.741 451 70.9801C451 71.2192 451.038 71.4555 451.112 71.6737C451.185 71.8918 451.293 72.0867 451.427 72.2457C451.561 72.4047 451.719 72.5242 451.891 72.5962C452.062 72.6682 452.243 72.6912 452.422 72.6637V72.7315Z" fill="#909C90"/>
<path d="M368.393 83.4939C369.577 83.3997 370.764 83.3997 371.948 83.4939L372.845 83.5881H373.261H373.421C374.029 83.7012 374.622 83.8142 375.214 83.9649C375.585 84.0534 375.969 83.9731 376.291 83.7401C376.613 83.5072 376.847 83.1392 376.947 82.7105C377.047 82.2818 377.004 81.8245 376.828 81.4313C376.652 81.0381 376.356 80.7382 375.999 80.5925C373.493 80.0341 370.936 79.8693 368.393 80.1027C368.025 80.1171 367.675 80.2969 367.416 80.6053C367.157 80.9136 367.008 81.3271 367 81.7606C367.004 82.1938 367.152 82.6079 367.413 82.9142C367.673 83.2206 368.025 83.3948 368.393 83.3997V83.4939Z" fill="#909C90"/>
<path d="M370.936 91.8677C375.105 91.8677 379.275 91.9893 383.429 91.9893H389.606C390.626 91.9893 391.66 91.9893 392.695 91.9893C393.114 92.0237 393.537 91.975 393.925 91.8476C394.314 91.7202 394.655 91.5182 394.919 91.2601C394.972 91.1903 395 91.1105 395 91.0292C395 90.9478 394.972 90.8681 394.919 90.7983C393.853 89.6681 391.398 90.0691 389.807 90.0691H383.46C379.306 90.0691 375.136 90.1299 370.967 90.1663C370.7 90.1913 370.455 90.2924 370.276 90.4502C370.098 90.6081 370 90.812 370 91.0231C370 91.2342 370.098 91.438 370.276 91.5959C370.455 91.7538 370.7 91.8549 370.967 91.8799L370.936 91.8677Z" fill="#909C90"/>
<path d="M399.537 91.7438C399.967 91.6387 400.398 91.5336 400.843 91.4585H401.125H401.258H401.882C402.386 91.4585 402.891 91.4585 403.366 91.3384C403.484 91.3384 403.633 91.3384 403.44 91.3384C403.563 91.3311 403.687 91.3311 403.811 91.3384C404.177 91.2983 404.516 91.1217 404.761 90.843C404.887 90.7154 404.968 90.5494 404.993 90.3704C405.017 90.1915 404.982 90.0094 404.894 89.8522C404.706 89.5278 404.404 89.2867 404.048 89.1767C403.824 89.1158 403.596 89.0706 403.366 89.0416C402.873 88.9861 402.375 88.9861 401.882 89.0416C400.881 89.1174 399.888 89.2781 398.914 89.522C398.756 89.5663 398.608 89.6417 398.479 89.7438C398.35 89.8459 398.242 89.9727 398.161 90.1169C398.081 90.2612 398.029 90.4202 398.009 90.5847C397.989 90.7492 398.002 90.916 398.046 91.0757C398.089 91.2354 398.164 91.3848 398.265 91.5154C398.366 91.6459 398.491 91.7551 398.634 91.8367C398.776 91.9182 398.933 91.9705 399.096 91.9907C399.259 92.0108 399.424 91.9983 399.581 91.954L399.537 91.7438Z" fill="#909C90"/>
<path d="M400.069 91.9184H402.897C403.384 91.9556 403.874 91.9556 404.362 91.9184C404.933 91.8232 405.549 91.8096 405.9 91.32C405.966 91.212 406 91.0902 406 90.9663C406 90.8425 405.966 90.7207 405.9 90.6127C405.549 90.1231 404.933 90.1231 404.362 90.0279C403.874 89.9907 403.384 89.9907 402.897 90.0279H400.069C399.789 90.0313 399.522 90.1351 399.322 90.3177C399.123 90.5002 399.008 90.7473 399 91.0071C399.007 91.2683 399.122 91.5169 399.321 91.7016C399.52 91.8863 399.788 91.9931 400.069 92V91.9184Z" fill="#909C90"/>
<path d="M411.816 91.1406C420.314 91.5106 428.843 91.3461 437.34 91.3598C445.838 91.3735 454.106 91.4558 462.481 91.634L469.722 91.8121C472.128 92.0107 474.548 92.0519 476.962 91.9355C478.051 91.8258 478.495 90.2634 477.238 90.0442C475.123 89.795 472.99 89.6897 470.857 89.729L464.583 89.5371C460.334 89.4274 456.07 89.3315 451.821 89.2493C443.307 89.0848 434.794 88.934 426.296 89.03C421.465 89.03 416.633 89.1533 411.816 89.4823C411.591 89.5082 411.383 89.6067 411.233 89.7593C411.083 89.9119 411 90.1082 411 90.3114C411 90.5146 411.083 90.7109 411.233 90.8635C411.383 91.0161 411.591 91.1146 411.816 91.1406Z" fill="#909C90"/>
<path d="M363.149 105.961C369.866 105.961 376.583 105.87 383.3 105.688L393.36 105.396L398.285 105.259C399.992 105.398 401.704 105.187 403.36 104.635C403.545 104.563 403.707 104.415 403.822 104.214C403.938 104.012 404 103.766 404 103.515C404 103.263 403.938 103.017 403.822 102.815C403.707 102.614 403.545 102.466 403.36 102.394C401.689 101.965 399.976 101.886 398.285 102.16L393.434 102.335L383.374 102.608C376.657 102.738 369.941 102.803 363.224 102.803C362.899 102.803 362.588 102.971 362.358 103.271C362.129 103.571 362 103.978 362 104.401C362 104.825 362.129 105.232 362.358 105.532C362.588 105.832 362.899 106 363.224 106L363.149 105.961Z" fill="#909C90"/>
<path d="M408.28 104.907H412.487C413.23 104.929 413.973 104.885 414.711 104.776C415.44 104.77 416.153 104.531 416.774 104.084C416.846 104.001 416.903 103.902 416.941 103.793C416.98 103.684 417 103.567 417 103.449C417 103.331 416.98 103.214 416.941 103.105C416.903 102.996 416.846 102.897 416.774 102.814C416.18 102.375 415.493 102.142 414.791 102.141C414.027 102.022 413.257 101.978 412.487 102.01H408.28C407.94 102.01 407.615 102.167 407.375 102.448C407.135 102.728 407 103.108 407 103.505C407 103.901 407.135 104.282 407.375 104.562C407.615 104.842 407.94 105 408.28 105V104.907Z" fill="#909C90"/>
<path d="M421.114 104.465C427.016 104.929 432.918 105.078 438.835 104.962C441.755 104.962 444.69 104.797 447.595 104.614L451.975 104.332C453.482 104.294 454.983 104.122 456.463 103.819L455.172 103.255C455.351 103.554 455.615 103.783 455.924 103.908C456.233 104.033 456.571 104.047 456.889 103.949C457.206 103.85 457.485 103.644 457.685 103.361C457.886 103.078 457.996 102.732 458 102.376C457.938 101.987 457.749 101.635 457.467 101.382C457.185 101.13 456.829 100.995 456.463 101C456.106 100.992 455.757 101.118 455.476 101.357C455.196 101.596 455.001 101.933 454.926 102.31L456.033 101.398C454.573 101.399 453.116 101.498 451.668 101.697L447.288 102.012C444.368 102.177 441.448 102.31 438.527 102.376C432.687 102.509 426.832 102.376 420.991 102.244C419.654 102.244 419.685 104.366 420.991 104.465H421.114Z" fill="#909C90"/>
<path d="M462.985 3.00086L538.727 4.4128C539.495 4.42477 540.251 4.60132 540.944 4.93048C541.637 5.25964 542.252 5.73373 542.745 6.32062C543.239 6.9075 543.601 7.59345 543.806 8.33203C544.011 9.0706 544.054 9.84452 543.933 10.6014L542.624 19.4936C542.419 20.7577 541.768 21.9069 540.789 22.7334C539.809 23.5599 538.565 24.0091 537.283 23.9999L461.315 23.4441C460.545 23.4361 459.785 23.2626 459.087 22.9354C458.39 22.6082 457.771 22.1351 457.273 21.548C456.775 20.961 456.409 20.2738 456.2 19.5331C455.992 18.7925 455.945 18.0157 456.064 17.2555L457.569 7.53712C457.772 6.25598 458.432 5.09127 459.427 4.25765C460.423 3.42402 461.686 2.97768 462.985 3.00086V3.00086Z" stroke="#C8C9E3" stroke-width="1.36" stroke-miterlimit="10"/>
<path d="M372.518 6.87935L372.094 9.50438C371.931 10.5227 371.981 11.5656 372.24 12.5622C372.5 13.5588 372.963 14.4858 373.598 15.2804C374.233 16.0751 375.026 16.7187 375.922 17.1676C376.818 17.6166 377.797 17.8604 378.792 17.8825L434.62 18.9985C436.36 19.0353 438.05 18.391 439.353 17.1938C440.656 15.9967 441.476 14.3345 441.651 12.5381L441.969 9.39435C442.06 8.40366 441.95 7.40433 441.649 6.45969C441.347 5.51504 440.86 4.64571 440.217 3.90679C439.574 3.16787 438.791 2.57549 437.916 2.1672C437.041 1.75891 436.094 1.54362 435.135 1.53497L379.413 1.00054C377.78 0.979802 376.193 1.55839 374.931 2.6341C373.669 3.70982 372.815 5.21344 372.518 6.87935V6.87935Z" stroke="#E5E6F3" stroke-width="1.1" stroke-miterlimit="10"/>
<path d="M459.053 0.00162788L535.678 1.4035C536.448 1.41915 537.206 1.59661 537.901 1.92411C538.596 2.25161 539.213 2.72169 539.711 3.30319C540.208 3.88469 540.576 4.56435 540.789 5.29712C541.001 6.0299 541.054 6.79907 540.944 7.55367L539.605 16.4774C539.404 17.7486 538.747 18.9055 537.755 19.736C536.762 20.5665 535.501 21.0151 534.202 20.9996L457.379 20.4419C456.599 20.4385 455.83 20.2681 455.123 19.9422C454.416 19.6164 453.789 19.143 453.284 18.5544C452.78 17.9658 452.41 17.276 452.2 16.5324C451.99 15.7888 451.945 15.009 452.068 14.2465L453.589 4.47859C453.802 3.20521 454.472 2.05081 455.476 1.2281C456.48 0.405389 457.75 -0.0301921 459.053 0.00162788Z" fill="#1B055B"/>
<path d="M464.648 7.48323L468.377 7.83639C468.969 7.83639 469.576 7.97766 470.168 7.97766C470.761 7.97766 471.512 8.13656 471.931 7.60683C471.976 7.53591 472 7.44902 472 7.35963C472 7.27024 471.976 7.18335 471.931 7.11242C471.556 6.51207 470.848 6.54739 470.284 6.4591C469.72 6.37081 469.027 6.31784 468.391 6.26487L464.591 6C463.796 6 463.81 7.4126 464.591 7.48323H464.648Z" fill="#97B5CE"/>
<path d="M474.546 7.89537C475.079 7.9594 475.618 7.99441 476.16 8C476.454 7.99331 476.747 7.96781 477.033 7.9239C477.198 7.91531 477.356 7.87924 477.492 7.81927L477.833 7.64806C477.903 7.60878 477.954 7.55749 477.98 7.50021C478.006 7.44293 478.007 7.38203 477.981 7.32466C477.953 7.26909 477.904 7.21858 477.84 7.17726C477.776 7.13594 477.697 7.10496 477.611 7.08686L477.285 7.01076C477.138 6.99641 476.988 6.99641 476.841 7.01076C476.604 7.01076 476.367 7.01076 476.13 7.01076C475.662 7.02976 475.192 7.02976 474.724 7.01076C474.552 7.00376 474.382 7.03905 474.248 7.10949C474.115 7.17994 474.028 7.28028 474.006 7.39023C473.983 7.50018 474.027 7.61154 474.127 7.70178C474.227 7.79202 474.377 7.85442 474.546 7.87635V7.89537Z" fill="#97B5CE"/>
<path d="M480.619 7.70678C483.912 7.82626 487.174 7.70678 490.452 7.70678C491.999 7.70678 493.684 7.70678 495.292 7.79211C496.782 8.10035 498.314 8.06549 499.792 7.68971C499.855 7.64506 499.908 7.58332 499.944 7.51021C499.981 7.4371 500 7.355 500 7.27155C500 7.1881 499.981 7.10601 499.944 7.0329C499.908 6.95979 499.855 6.89804 499.792 6.85339C498.43 6.22057 496.947 5.97412 495.478 6.13653C493.808 6.13653 492.122 6.01707 490.452 6C487.159 6 483.896 5.99999 480.619 6.32428C480.454 6.32428 480.297 6.39621 480.181 6.52424C480.065 6.65228 480 6.82593 480 7.007C480 7.18806 480.065 7.36172 480.181 7.48975C480.297 7.61778 480.454 7.68971 480.619 7.68971V7.70678Z" fill="#97B5CE"/>
<path d="M503.598 7.89527C504.97 8.03491 506.361 8.03491 507.733 7.89527C507.812 7.87307 507.879 7.83349 507.927 7.7818C507.974 7.73011 508 7.66877 508 7.60594C508 7.5431 507.974 7.48176 507.927 7.43007C507.879 7.37839 507.812 7.33881 507.733 7.31661C506.38 7.07425 504.989 6.97022 503.598 7.00732C503.442 7.00729 503.292 7.05323 503.18 7.13528C503.068 7.21733 503.003 7.32898 503 7.44631C503 7.50527 503.016 7.56365 503.046 7.61812C503.076 7.67259 503.12 7.72209 503.175 7.76378C503.231 7.80547 503.297 7.83853 503.369 7.86109C503.442 7.88366 503.52 7.89527 503.598 7.89527Z" fill="#97B5CE"/>
<path d="M511.608 7.50942C514.53 7.42566 517.483 7.50942 520.405 7.50942C521.843 7.50942 523.281 7.63504 524.719 7.74671L526.876 7.92818C527.517 8.07488 528.194 7.9951 528.773 7.70483C528.834 7.66798 528.886 7.61942 528.925 7.5625C528.963 7.50559 528.988 7.44171 528.996 7.37529C529.005 7.30886 528.998 7.2415 528.975 7.17789C528.953 7.11427 528.915 7.05592 528.865 7.00691C528.423 6.615 527.829 6.39912 527.213 6.40669C526.433 6.32294 525.683 6.26711 524.887 6.21127C523.449 6.11356 522.011 6.05773 520.573 6.01585C517.581 5.95755 514.587 6.06009 511.608 6.32294C510.813 6.39273 510.782 7.49546 511.608 7.46754V7.50942Z" fill="#97B5CE"/>
<path d="M463.895 14.3558C464.921 14.0771 465.972 13.9966 467.016 14.117C468.141 14.117 469.266 14.117 470.376 14.2563L477.111 14.515L483.637 14.7537L487.012 14.8731C487.97 15.1548 488.973 14.9638 489.832 14.3359C489.885 14.2673 489.928 14.1853 489.956 14.0947C489.985 14.0042 490 13.9069 490 13.8086C490 13.7103 489.985 13.613 489.956 13.5225C489.928 13.4319 489.885 13.3499 489.832 13.2813C489.045 12.6308 488.107 12.3832 487.192 12.5849H483.637L476.736 12.366L470.001 12.167C467.836 11.8361 465.644 11.9976 463.52 12.6446C463.339 12.7106 463.185 12.8692 463.093 13.0856C463 13.3021 462.976 13.5585 463.025 13.7986C463.075 14.0388 463.195 14.2428 463.358 14.366C463.521 14.4891 463.714 14.5212 463.895 14.4553V14.3558Z" fill="#97B5CE"/>
<path d="M492.972 14C493.906 14 494.84 14 495.792 14C496.312 13.9971 496.83 13.9776 497.343 13.9415C497.888 13.9253 498.403 13.8248 498.8 13.6575C498.875 13.6207 498.931 13.5771 498.965 13.5297C498.998 13.4823 499.008 13.4323 498.994 13.383C498.979 13.3337 498.941 13.2864 498.882 13.2444C498.823 13.2023 498.744 13.1665 498.651 13.1395C498.18 13.0291 497.648 12.9827 497.119 13.0058L495.736 13.0476C494.821 13.0476 493.868 13.1061 492.972 13.1144C492.714 13.1144 492.467 13.1602 492.285 13.2417C492.102 13.3231 492 13.4336 492 13.5488C492.005 13.6642 492.108 13.7744 492.289 13.8568C492.469 13.9391 492.714 13.9874 492.972 13.9916V14Z" fill="#97B5CE"/>
<path d="M502.657 14.2798C510.202 14.7208 517.777 14.8383 525.337 15C526.204 15 527.085 15 527.952 15C528.818 15 529.625 15 529.924 14.2945C530.507 12.8248 527.578 13.0159 526.831 13.0012C523.051 13.0012 519.271 13.0012 515.491 13.0012C511.203 13.0012 506.93 13.0012 502.657 13.0012C502.483 13.0012 502.316 13.0693 502.193 13.1906C502.069 13.3119 502 13.4764 502 13.6479C502 13.8194 502.069 13.9839 502.193 14.1051C502.316 14.2264 502.483 14.2945 502.657 14.2945V14.2798Z" fill="#97B5CE"/>
<path d="M382.018 10.9472C382.902 9.99667 385.335 7.36873 386.776 8.44507C388.218 9.5214 389.55 11.0311 391.007 12.2192C391.398 12.6398 391.949 12.9122 392.553 12.9822C393.156 13.0521 393.766 12.9145 394.262 12.5967C394.959 12.1493 395.812 10.6117 396.726 10.7795C397.305 10.9795 397.832 11.2839 398.276 11.6741C398.716 12.0163 399.252 12.2434 399.826 12.3311C400.437 12.3882 401.048 12.2277 401.53 11.8838C401.794 11.702 402.042 11.3805 402.352 11.2687C402.595 11.2157 402.848 11.207 403.096 11.243C403.343 11.279 403.58 11.359 403.793 11.4784C405.306 12.163 407.01 12.4304 408.69 12.2472C410.457 11.9121 412.143 11.2917 413.665 10.416C414.347 10.0666 413.898 9.01819 413.123 9.25582C411.724 9.73313 410.289 10.1208 408.83 10.416C407.426 10.6919 405.961 10.5598 404.645 10.0386C404.124 9.76131 403.534 9.60812 402.929 9.59345C402.325 9.57878 401.726 9.70311 401.189 9.95474C400.802 10.1784 400.492 10.6537 399.98 10.5977C399.537 10.4784 399.126 10.2786 398.772 10.0107C398.038 9.50985 397.133 9.2575 396.214 9.29775C395.313 9.4983 394.527 9.99722 394.014 10.6956C393.766 10.9332 393.502 11.3106 393.161 11.4364C392.82 11.5622 392.092 11.1429 391.705 10.8354L387.97 7.80206C387.579 7.39037 387.039 7.11675 386.446 7.02975C385.854 6.94275 385.246 7.04798 384.731 7.32679C383.365 8.05661 382.157 9.00384 381.166 10.1225C380.624 10.6956 381.538 11.5203 382.08 10.9472H382.018Z" fill="#97B5CE"/>
<path d="M266.107 69.8552C261.945 70.251 257.757 70.2959 253.587 69.9897C249.395 69.6781 245.359 68.3028 241.878 66C240.7 66.3736 240.195 68.1816 240.087 69.3771C239.91 70.5515 239.472 71.6739 238.803 72.6652C238.134 73.6565 237.25 74.4927 236.215 75.1151C234.137 76.3484 231.925 77.3509 229.618 78.1036C223.103 80.601 217.03 84.08 211.619 88.4141C207.027 92.1199 205.221 98.2315 204.134 103.97C200.629 122.289 205.864 141.028 211.435 158.854C213.341 165.308 215.599 171.658 218.2 177.876C219.338 181.007 221.191 183.843 223.618 186.17C226.039 188.014 228.836 189.328 231.822 190.025C249.145 194.931 267.683 193.741 284.198 186.663C300.498 188.71 317.047 187.737 332.978 183.794C333.903 183.631 334.778 183.263 335.534 182.718C336.518 181.641 337.029 180.23 336.957 178.788C337.253 173.174 336.017 167.585 333.375 162.59C326.626 164.174 320.458 158.57 316.983 152.713C313.509 146.855 312.606 139.922 311.289 133.287C308.994 121.996 305.559 110.954 301.035 100.324C299.838 96.958 298.022 93.8338 295.678 91.1038C291.346 86.621 284.826 84.9624 278.964 82.5865C273.102 80.2106 266.704 76.0117 266.107 69.8552Z" fill="#F7EBE4"/>
<path d="M216.101 96.3479C218.133 97.6159 219.932 99.2332 221.419 101.128C222.188 102.062 222.926 103.043 223.574 104.023C224.201 105.045 224.896 106.022 225.653 106.949C225.689 106.98 225.734 106.998 225.781 107C225.828 107.002 225.875 106.987 225.913 106.959C225.951 106.931 225.979 106.89 225.992 106.844C226.005 106.798 226.002 106.748 225.984 106.704C225.426 105.565 224.754 104.487 223.98 103.487C223.287 102.506 222.579 101.541 221.796 100.622C220.252 98.7644 218.388 97.2072 216.297 96.0262C216.251 95.9998 216.197 95.993 216.146 96.0074C216.095 96.0217 216.052 96.0561 216.026 96.1028C216 96.1495 215.993 96.2048 216.007 96.2565C216.021 96.3083 216.055 96.3521 216.101 96.3785V96.3479Z" fill="#C9C4C0"/>
<path d="M226.029 110.371C227.524 113.518 228.581 116.824 229.175 120.211C229.925 123.799 230.609 127.402 231.376 130.99C232.142 134.578 232.908 138.284 233.723 141.917C234.114 143.748 234.522 145.564 234.929 147.38C235.265 149.208 235.734 151.013 236.331 152.784C236.445 153.097 237.016 153.067 237 152.71C236.804 150.822 236.477 148.948 236.022 147.098C235.647 145.281 235.255 143.45 234.864 141.634C234.098 137.927 233.234 134.19 232.452 130.528C231.669 126.866 230.821 123.278 229.957 119.661C229.268 116.355 228.106 113.147 226.501 110.118C226.338 109.835 225.882 110.118 226.029 110.371Z" fill="#C9C4C0"/>
<path d="M236.324 152.901C237.356 153.043 238.33 153.523 239.129 154.286C239.837 155.101 240.455 156.015 240.966 157.006C241.576 157.801 242.384 158.362 243.28 158.616L245.032 159.404C245.558 159.704 246.121 159.905 246.701 160C246.76 160.001 246.818 159.982 246.867 159.945C246.916 159.908 246.955 159.854 246.977 159.792C247 159.73 247.006 159.661 246.994 159.595C246.982 159.528 246.954 159.468 246.912 159.42C246.461 159.051 245.958 158.774 245.425 158.6L243.672 157.843C243.072 157.652 242.503 157.347 241.99 156.942C241.613 156.517 241.296 156.029 241.05 155.493C240.553 154.536 239.871 153.723 239.056 153.117C238.242 152.512 237.316 152.129 236.352 152C235.876 152 235.89 152.773 236.352 152.837L236.324 152.901Z" fill="#C9C4C0"/>
<path d="M236.36 153.055C235.907 153.29 235.476 153.546 235.069 153.823C234.668 154.096 234.326 154.412 234.054 154.761C234.019 154.789 234 154.825 234 154.863C234 154.9 234.019 154.936 234.054 154.964C234.093 154.987 234.141 155 234.192 155C234.242 155 234.291 154.987 234.329 154.964C234.721 154.729 235.142 154.495 235.519 154.239L236.186 153.865L236.273 153.812L236.418 153.737L236.752 153.556C236.804 153.541 236.852 153.517 236.891 153.487C236.93 153.457 236.96 153.421 236.979 153.382C236.997 153.343 237.004 153.301 236.998 153.26C236.992 153.218 236.975 153.178 236.946 153.142C236.917 153.106 236.879 153.075 236.832 153.052C236.786 153.028 236.733 153.012 236.677 153.004C236.621 152.997 236.564 152.999 236.509 153.009C236.455 153.02 236.404 153.039 236.36 153.065V153.055Z" fill="#C9C4C0"/>
<path d="M235.497 152.01C233.616 152.328 231.81 152.854 230.142 153.569C229.858 153.709 230.032 154.07 230.379 153.988C232.164 153.546 233.902 153.011 235.702 152.58C235.805 152.56 235.893 152.511 235.946 152.443C235.999 152.375 236.014 152.295 235.987 152.219C235.959 152.144 235.892 152.079 235.801 152.04C235.709 152.001 235.6 151.99 235.497 152.01Z" fill="#C9C4C0"/>
<path d="M249.134 160.47C253.96 162.514 259.005 164 264.17 164.897C266.706 165.385 269.213 166.012 271.68 166.775C274.123 167.569 276.504 168.959 277.069 171.646C277.098 171.758 277.167 171.855 277.262 171.919C277.358 171.984 277.474 172.011 277.588 171.996C277.703 171.981 277.808 171.925 277.883 171.838C277.959 171.751 278.001 171.639 278 171.524C277.527 166.088 270.459 165.096 266.276 164.287C260.613 163.187 254.675 162.485 249.393 160.027C249.103 159.889 248.828 160.317 249.134 160.47Z" fill="#C9C4C0"/>
<path d="M277.498 171.096C276.216 172.439 275.24 174.122 274.655 175.998C273.957 177.83 273.812 179.878 274.243 181.816C274.309 182.03 274.655 182.091 274.694 181.816C274.814 180.946 274.841 180.06 274.934 179.189C275.022 178.249 275.201 177.322 275.465 176.425C275.986 174.638 276.818 172.991 277.91 171.585C277.966 171.522 277.999 171.436 278 171.346C278.001 171.255 277.971 171.168 277.917 171.103C277.862 171.039 277.787 171.001 277.709 171C277.63 170.999 277.554 171.033 277.498 171.096Z" fill="#C9C4C0"/>
<path d="M278.218 171.805C279.188 172.357 280.249 172.724 281.349 172.888C281.89 172.978 282.438 173.014 282.986 172.995C283.471 172.995 284.205 172.995 284.572 172.634H284.166L284.31 172.701C284.384 172.745 284.468 172.768 284.554 172.765C284.639 172.763 284.723 172.736 284.794 172.688C284.866 172.64 284.922 172.572 284.958 172.493C284.994 172.413 285.007 172.325 284.996 172.238C284.986 172.151 284.951 172.069 284.897 172.002C284.843 171.934 284.771 171.883 284.69 171.854C284.609 171.826 284.522 171.821 284.439 171.841C284.355 171.861 284.279 171.904 284.218 171.966L284.1 172.099H284.506C284.006 171.986 283.487 171.986 282.986 172.099C282.5 172.106 282.015 172.079 281.532 172.019C280.528 171.873 279.556 171.547 278.663 171.056C278.165 170.789 277.72 171.551 278.218 171.832V171.805Z" fill="#C9C4C0"/>
<path d="M274 183.194C274.009 184.079 274.161 184.955 274.448 185.781C274.585 186.188 274.759 186.578 274.967 186.946C275.194 187.307 275.455 187.641 275.746 187.942C275.887 188.11 276.088 187.877 275.958 187.696C275.733 187.365 275.532 187.014 275.357 186.648C275.17 186.307 275.005 185.952 274.861 185.587C274.585 184.833 274.429 184.032 274.401 183.22C274.401 183.162 274.38 183.106 274.342 183.064C274.305 183.023 274.254 183 274.201 183C274.147 183 274.096 183.023 274.059 183.064C274.021 183.106 274 183.162 274 183.22V183.194Z" fill="#C9C4C0"/>
<path d="M291.061 110.462C292.451 116.36 293.857 122.259 295.232 128.275C295.931 131.327 296.43 134.42 296.727 137.535C297.026 140.587 297.116 143.654 297.37 146.707C297.858 152.256 299.022 157.726 300.838 163C302.307 167.429 304.417 171.626 307.102 175.46C310.017 179.456 313.933 183.334 318.732 184.986C318.971 185.074 319.106 184.721 318.896 184.603C314.745 182.377 311.126 179.3 308.283 175.578C305.557 171.812 303.402 167.674 301.884 163.295C300 158.12 298.823 152.72 298.386 147.238C298.177 144.288 298.162 141.251 297.983 138.258C297.796 135.442 297.406 132.643 296.817 129.882C295.411 123.291 293.528 116.773 291.824 110.241C291.779 110.151 291.705 110.08 291.613 110.038C291.521 109.997 291.417 109.989 291.319 110.015C291.222 110.041 291.137 110.1 291.079 110.182C291.021 110.264 290.993 110.363 291.001 110.462H291.061Z" fill="#C9C4C0"/>
<path d="M190.759 145C198.8 157.946 217.705 172.863 231.957 178.657C247.399 184.899 261.04 196.71 270.271 210.343C275.703 218.361 279.045 227.56 283.912 235.936C288.78 244.313 295.753 252.212 305.274 254.84C316.856 258.066 321.128 273.759 318.015 285.153C314.903 296.546 305.244 305.401 294.288 310.298C283.333 315.196 271.126 316.644 259.102 317.466C235.817 319.063 210.274 317.824 192.361 303.235C176.629 290.468 169.977 270.176 164.224 250.973C161.172 240.685 158.121 230.068 159.234 219.422C160.089 211.717 163.125 204.489 166.131 197.277C171.533 184.391 181.314 155.408 190.759 145Z" fill="#4219BC"/>
<path d="M312.024 177.172C308.299 174.696 303.777 173.613 299.295 174.124C295.668 174.689 292.364 176.919 288.692 176.89C287.682 176.89 286.672 176.8 285.632 176.726C285.579 177.226 285.497 177.722 285.387 178.213C284.874 180.239 284.146 182.207 283.214 184.087L283 184.474C283.903 184.637 284.775 184.845 285.647 185.083C288.653 186.154 291.812 186.766 295.011 186.898C297.413 186.794 299.754 186.005 302.171 186.035C305.093 186.035 307.847 187.299 310.739 187.775C314.623 188.411 318.612 187.689 322 185.738C319.039 182.505 315.69 179.629 312.024 177.172Z" fill="#F68C77"/>
<path d="M284.628 172.613C285.348 174.943 285.348 177.474 284.628 179.804C284.385 180.898 284.076 181.977 283.753 183.055C283.591 183.565 283.429 184.089 283.241 184.554C283.048 184.925 282.967 185.356 283.012 185.782C283.025 185.826 283.046 185.866 283.074 185.9C283.103 185.934 283.137 185.96 283.176 185.977C283.215 185.995 283.256 186.002 283.298 185.999C283.339 185.997 283.379 185.984 283.416 185.962C283.766 185.767 283.887 185.288 284.035 184.898C284.183 184.509 284.426 183.745 284.614 183.16C284.978 182.007 285.301 180.823 285.57 179.64C286.224 177.203 286.13 174.594 285.301 172.224C285.112 171.759 284.385 172.089 284.56 172.568L284.628 172.613Z" fill="#C9C4C0"/>
<path d="M298.312 192.848C308.249 195.705 318.042 198.983 327.692 202.682C332.66 204.577 337.572 206.581 342.428 208.697C346.94 210.493 351.303 212.629 355.478 215.087C357.679 216.46 359.637 218.177 361.274 220.169C362.774 222.166 363.868 224.427 364.494 226.83C364.514 226.886 364.554 226.933 364.606 226.964C364.658 226.994 364.719 227.006 364.779 226.997C364.838 226.988 364.893 226.959 364.934 226.915C364.974 226.871 364.997 226.814 365 226.755C365 222.575 361.78 218.681 358.621 216.23C354.576 213.352 350.183 210.978 345.541 209.163C335.85 204.842 325.985 200.953 315.946 197.495C310.201 195.49 304.4 193.665 298.542 192.021C298.005 191.856 297.76 192.698 298.312 192.863V192.848Z" fill="#1C1E3B"/>
<path d="M337.963 240.741C339.488 238.032 341.495 235.626 343.884 233.643C344.21 233.375 343.781 232.811 343.44 233.063C342.128 233.986 340.926 235.058 339.858 236.256C338.798 237.475 337.866 238.798 337.075 240.206C336.734 240.8 337.652 241.335 337.978 240.741H337.963Z" fill="#1C1E3B"/>
<path d="M337.902 243.538C338.737 243.058 339.646 242.671 340.604 242.386C341.565 242.089 342.569 241.896 343.59 241.81L343.246 241.123C342.572 241.825 341.783 242.448 340.903 242.974C340.022 243.501 339.037 243.906 338.111 244.384C338.037 244.43 337.984 244.494 337.96 244.568C337.936 244.642 337.943 244.72 337.979 244.79C338.015 244.86 338.078 244.918 338.159 244.956C338.239 244.993 338.333 245.007 338.425 244.996C339.525 244.72 340.542 244.256 341.41 243.636C342.317 243.063 343.143 242.41 343.873 241.687C344.127 241.442 343.993 240.976 343.53 241.001C342.418 241.031 341.317 241.192 340.261 241.479C339.204 241.778 338.201 242.19 337.275 242.705C337.15 242.77 337.059 242.872 337.021 242.99C336.982 243.108 336.998 243.233 337.066 243.342C337.146 243.445 337.271 243.519 337.416 243.548C337.56 243.578 337.713 243.561 337.842 243.501L337.902 243.538Z" fill="#1C1E3B"/>
<path d="M388.947 233.9L391.959 232.21L393.416 231.385C393.93 231.095 394.417 230.784 394.873 230.455C395.188 230.245 394.873 229.865 394.401 230.049C393.846 230.279 393.313 230.533 392.806 230.808L391.231 231.673L388.159 233.363C388.057 233.436 388 233.532 388 233.631C388 233.731 388.057 233.827 388.159 233.9C388.268 233.964 388.408 234 388.553 234C388.698 234 388.839 233.964 388.947 233.9Z" fill="#1C1E3B"/>
<path d="M389.813 236.996C390.853 236.809 391.954 236.717 393.062 236.725C394.173 236.751 395.28 236.816 396.373 236.919C396.489 236.933 396.612 236.927 396.719 236.9C396.827 236.874 396.911 236.83 396.959 236.776C397.006 236.722 397.013 236.662 396.978 236.605C396.943 236.549 396.868 236.501 396.767 236.469C395.638 236.186 394.398 236.027 393.132 236.003C391.866 235.979 390.604 236.09 389.434 236.33C389.275 236.362 389.146 236.423 389.071 236.499C388.996 236.576 388.98 236.663 389.026 236.745C389.073 236.827 389.178 236.897 389.323 236.944C389.468 236.99 389.642 237.009 389.813 236.996Z" fill="#1C1E3B"/>
<path d="M279 192L281.329 187.67C281.622 187.132 282.061 186.682 282.597 186.368C283.133 186.055 283.747 185.89 284.373 185.891H319.288L332.986 133.991C333.299 132.822 334.01 131.791 335.002 131.066C335.995 130.342 337.21 129.967 338.45 130.002L403.699 131.93C404.507 131.954 405.3 132.152 406.021 132.51C406.741 132.868 407.371 133.378 407.864 134.002C408.358 134.626 408.703 135.349 408.875 136.119C409.047 136.889 409.041 137.687 408.859 138.455L397.215 187.285C396.914 188.525 396.194 189.632 395.17 190.425C394.145 191.218 392.877 191.653 391.568 191.659L279 192Z" fill="#1B055B"/>
<path d="M373.897 142.594C373.039 142.182 372.067 142.043 371.122 142.197C370.177 142.351 369.307 142.79 368.637 143.45C367.917 144.166 367.408 145.055 367.164 146.023C366.92 146.992 366.949 148.006 367.248 148.96C367.471 149.676 367.886 150.323 368.45 150.836C369.015 151.349 369.71 151.71 370.466 151.884C371.221 152.057 372.011 152.036 372.755 151.824C373.5 151.611 374.173 151.214 374.708 150.672C375.497 149.799 375.949 148.69 375.988 147.534C376.06 146.406 375.801 145.282 375.239 144.291C374.694 143.378 373.901 142.625 372.945 142.114C372.008 141.573 371.259 143.119 372.352 143.465C372.97 143.736 373.48 144.195 373.803 144.771C374.188 145.366 374.423 146.04 374.49 146.738C374.63 147.51 374.475 148.305 374.054 148.976C373.632 149.647 372.972 150.148 372.196 150.387C371.549 150.542 370.866 150.478 370.262 150.204C369.659 149.931 369.173 149.464 368.887 148.885C368.589 148.234 368.466 147.522 368.529 146.814C368.592 146.106 368.838 145.424 369.246 144.831C369.671 144.203 370.306 143.731 371.045 143.494C371.785 143.257 372.587 143.268 373.319 143.525C373.975 143.825 374.568 142.909 373.897 142.564V142.594Z" fill="#4C2D2C"/>
<path d="M199.063 149.553C206.335 168.715 227.709 176.103 244.082 186.003C248.733 188.757 253.058 192.002 256.979 195.68C260.616 199.209 263.874 203.089 266.706 207.26C269.547 211.411 272.094 215.747 274.328 220.237C276.356 224.31 278.124 228.488 280.076 232.575C283.963 240.722 289.086 249.953 298.37 252.97C299.025 253.179 299.254 252.227 298.644 251.989C290.488 248.63 285.686 241.48 281.875 233.988C279.893 230.019 278.231 225.916 276.341 221.902C274.279 217.46 271.921 213.155 269.282 209.014C264.036 200.616 257.09 193.348 248.869 187.653C240.21 181.707 230.575 177.559 221.611 172.104C212.646 166.648 203.835 159.32 199.932 149.301C199.719 148.766 198.819 149.003 199.033 149.553H199.063Z" fill="#CC842E"/>
<path d="M287.426 237.122C286.874 237.689 286.458 238.421 286.223 239.243C286.076 239.65 286 240.09 286 240.534C286 240.977 286.076 241.417 286.223 241.825C286.34 242.086 286.767 242.055 286.806 241.732C286.844 241.41 286.806 240.964 286.806 240.564C286.818 240.214 286.871 239.868 286.961 239.535C287.143 238.849 287.462 238.227 287.892 237.721C287.926 237.682 287.953 237.636 287.972 237.584C287.99 237.533 288 237.477 288 237.421C288 237.365 287.99 237.31 287.972 237.258C287.953 237.207 287.926 237.16 287.892 237.122C287.825 237.044 287.734 237 287.64 237C287.546 237 287.455 237.044 287.388 237.122H287.426Z" fill="#CC842E"/>
<path d="M301.346 251.891C307.781 252.267 314.2 252.571 320.635 252.839C323.713 252.96 326.684 253.058 329.702 252.96C332.764 252.919 335.801 252.509 338.707 251.745C338.815 251.707 338.902 251.639 338.953 251.555C339.003 251.471 339.014 251.375 338.982 251.285C338.95 251.195 338.879 251.117 338.78 251.065C338.681 251.013 338.563 250.991 338.445 251.003C335.458 251.564 332.414 251.914 329.348 252.049C326.269 252.158 323.298 252.049 320.281 251.939C313.969 251.684 307.658 251.441 301.346 251.271C300.885 251.271 300.885 251.818 301.346 251.842V251.891Z" fill="#CC842E"/>
<path d="M300.167 253.704C301.662 254.354 303.112 255.123 304.506 256.005C305.924 256.882 307.157 257.93 308.462 258.932C308.802 259.198 309.185 258.619 308.901 258.29C306.507 255.778 303.583 253.965 300.394 253.016C299.983 252.891 299.841 253.548 300.224 253.704H300.167Z" fill="#CC842E"/>
<path d="M367.415 247C370.913 247 374.396 246.752 377.879 246.395C379.494 246.224 381.11 246.038 382.71 245.805L385.215 245.432C386.094 245.365 386.958 245.161 387.779 244.827C388.209 244.61 387.942 244.051 387.571 244.004C386.799 243.979 386.026 244.063 385.274 244.253L382.562 244.656C380.887 244.874 379.198 245.106 377.523 245.293C374.158 245.665 370.779 245.898 367.415 246.131C367.305 246.131 367.199 246.177 367.121 246.258C367.044 246.34 367 246.45 367 246.565C367 246.681 367.044 246.791 367.121 246.873C367.199 246.954 367.305 247 367.415 247Z" fill="#CC842E"/>
<path d="M475.646 217.793C475.776 215.604 475.325 213.428 474.287 211.276C473.202 209.009 472.031 207.808 470.782 207.663L466.279 207.442L466.039 212.116C465.425 213.509 465.08 214.986 465.016 216.565C464.955 218.054 465.166 219.523 465.589 220.956L465.32 226.322L469.824 226.542C471.078 226.679 472.332 225.812 473.559 223.947C474.818 222.033 475.516 219.983 475.646 217.793Z" fill="#D4D4F9"/>
<path d="M462.514 210.088C463.773 208.174 465.024 207.294 466.281 207.444C467.53 207.589 468.7 208.79 469.786 211.056C470.823 213.209 471.274 215.384 471.144 217.574C471.014 219.764 470.324 221.819 469.065 223.733C467.838 225.598 466.592 226.47 465.33 226.328C464.075 226.191 462.936 225.08 461.937 222.988C460.9 220.835 460.434 218.615 460.52 216.338C460.606 214.061 461.271 211.978 462.514 210.088Z" fill="#4219BC"/>
<path d="M477.512 149.425L473.008 149.204L465.125 158.581L438.175 178.484L441.886 186.211L439.083 189.536L443.589 189.77L482.933 160.716L477.512 149.425Z" fill="#D4D4F9"/>
<path d="M478.426 160.489L439.081 189.544L433.668 178.258L473.012 149.203L478.426 160.489Z" fill="#69B7F9"/>
<path d="M486.566 167.891L482.055 167.665L474.172 177.042L447.222 196.945L450.933 204.672L448.138 208.002L452.636 208.231L491.98 179.177L486.566 167.891Z" fill="#D4D4F9"/>
<path d="M487.48 178.958L448.136 208.012L442.722 196.727L482.066 167.672L487.48 178.958Z" fill="#69B7F9"/>
</svg>
