<svg width="690" height="350" viewBox="0 0 690 350" fill="none" xmlns="http://www.w3.org/2000/svg">
<g clip-path="url(#clip0_2535_6513)">
<path d="M156.047 0H499.96C502.679 0 505.288 1.08038 507.211 3.00348C509.134 4.92657 510.214 7.53485 510.214 10.2545V236.57H145.801V10.2867C145.797 8.93803 146.058 7.60177 146.571 6.35444C147.084 5.10712 147.838 3.97323 148.79 3.0177C149.742 2.06217 150.873 1.30378 152.118 0.785955C153.363 0.268132 154.699 0.00105197 156.047 0Z" fill="#101626" stroke="white" stroke-width="1.20076" stroke-linecap="round" stroke-linejoin="round"/>
<path d="M454.064 225.18H203.617V237.519H454.064V225.18Z" fill="white" stroke="white" stroke-width="1.20076" stroke-linecap="round" stroke-linejoin="round"/>
<path d="M454.064 231.125H203.617V237.524H454.064V231.125Z" fill="#101626" stroke="white" stroke-width="1.20076" stroke-linecap="round" stroke-linejoin="round"/>
<path d="M116.336 244.836C116.336 244.836 120.449 249.867 132.788 253.98H524.898C524.898 253.98 534.042 251.694 538.155 245.295L116.336 244.836Z" fill="white" stroke="white" stroke-width="1.20076" stroke-linecap="round" stroke-linejoin="round"/>
<path d="M535.931 235.828H118.595C116.879 235.828 115.488 237.219 115.488 238.935V242.332C115.488 244.048 116.879 245.439 118.595 245.439H535.931C537.647 245.439 539.038 244.048 539.038 242.332V238.935C539.038 237.219 537.647 235.828 535.931 235.828Z" fill="#101626" stroke="white" stroke-width="1.20076" stroke-linecap="round" stroke-linejoin="round"/>
<path d="M331.123 7.18837C331.123 6.55158 330.934 5.92911 330.58 5.39964C330.226 4.87018 329.724 4.45751 329.135 4.21383C328.547 3.97014 327.9 3.90639 327.275 4.03062C326.651 4.15485 326.077 4.46148 325.627 4.91176C325.176 5.36203 324.87 5.93571 324.745 6.56026C324.621 7.1848 324.685 7.83216 324.929 8.42047C325.172 9.00878 325.585 9.51161 326.114 9.86539C326.644 10.2192 327.266 10.408 327.903 10.408C328.757 10.408 329.576 10.0688 330.18 9.46499C330.784 8.86119 331.123 8.04226 331.123 7.18837Z" fill="white"/>
<path d="M149.23 66.5983C148.989 66.5983 148.757 66.5025 148.587 66.3319C148.416 66.1614 148.32 65.93 148.32 65.6888V39.1832C148.32 38.9412 148.416 38.7091 148.586 38.5372C148.757 38.3654 148.988 38.2677 149.23 38.2656C149.473 38.2656 149.707 38.3623 149.879 38.5344C150.051 38.7065 150.147 38.9399 150.147 39.1832V65.6888C150.147 65.8089 150.124 65.9278 150.077 66.0387C150.031 66.1496 149.964 66.2502 149.878 66.3348C149.793 66.4194 149.692 66.4862 149.58 66.5314C149.469 66.5767 149.35 66.5994 149.23 66.5983Z" fill="white" stroke="#101626" stroke-width="0.830552" stroke-linejoin="round"/>
<path d="M495.419 18.5156H160.578V207.741H495.419V18.5156Z" fill="#8786EB" stroke="white" stroke-width="1.20076" stroke-linejoin="round"/>
<path d="M495.428 18.5156H216.23V29.7038H495.428V18.5156Z" fill="white"/>
<path d="M176.855 69.6436C180.937 67.9526 182.876 63.2724 181.185 59.1901C179.494 55.1077 174.814 53.1691 170.732 54.8601C166.649 56.5511 164.711 61.2313 166.402 65.3136C168.093 69.396 172.773 71.3346 176.855 69.6436Z" stroke="white" stroke-width="1.20076" stroke-linejoin="round"/>
<path d="M173.786 93.2203C178.205 93.2203 181.787 89.6382 181.787 85.2195C181.787 80.8008 178.205 77.2188 173.786 77.2188C169.367 77.2188 165.785 80.8008 165.785 85.2195C165.785 89.6382 169.367 93.2203 173.786 93.2203Z" stroke="white" stroke-width="1.20076" stroke-linejoin="round"/>
<path d="M176.847 115.589C180.93 113.898 182.868 109.218 181.177 105.135C179.486 101.053 174.806 99.1145 170.724 100.805C166.641 102.496 164.703 107.177 166.394 111.259C168.085 115.341 172.765 117.28 176.847 115.589Z" stroke="white" stroke-width="1.20076" stroke-linejoin="round"/>
<path d="M173.786 139.181C178.205 139.181 181.787 135.599 181.787 131.18C181.787 126.762 178.205 123.18 173.786 123.18C169.367 123.18 165.785 126.762 165.785 131.18C165.785 135.599 169.367 139.181 173.786 139.181Z" stroke="white" stroke-width="1.20076" stroke-linejoin="round"/>
<path d="M173.786 162.15C178.205 162.15 181.787 158.568 181.787 154.149C181.787 149.731 178.205 146.148 173.786 146.148C169.367 146.148 165.785 149.731 165.785 154.149C165.785 158.568 169.367 162.15 173.786 162.15Z" stroke="white" stroke-width="1.20076" stroke-linejoin="round"/>
<path d="M181.69 178.416C182.398 174.055 179.436 169.945 175.075 169.237C170.713 168.529 166.603 171.491 165.895 175.853C165.187 180.214 168.149 184.324 172.511 185.032C176.872 185.74 180.982 182.778 181.69 178.416Z" stroke="white" stroke-width="1.20076" stroke-linejoin="round"/>
<path d="M475.041 36.1719H199.859V202.932H475.041V36.1719Z" stroke="white" stroke-width="1.20076" stroke-linejoin="round"/>
<path d="M200.293 135.812H475.37" stroke="white" stroke-width="1.20076" stroke-linejoin="round"/>
<path d="M358.926 145.914H452.794" stroke="white" stroke-width="1.20076" stroke-linejoin="round"/>
<path d="M358.926 154.227H452.794" stroke="white" stroke-width="1.20076" stroke-linejoin="round"/>
<path d="M358.926 162.555H452.794" stroke="white" stroke-width="1.20076" stroke-linejoin="round"/>
<path d="M358.926 170.867H452.794" stroke="white" stroke-width="1.20076" stroke-linejoin="round"/>
<path d="M358.926 179.18H452.794" stroke="white" stroke-width="1.20076" stroke-linejoin="round"/>
<path d="M358.926 187.508H452.794" stroke="white" stroke-width="1.20076" stroke-linejoin="round"/>
<path d="M333.098 40.3047V41.2706" stroke="white" stroke-width="1.20076" stroke-linejoin="round"/>
<path d="M333.098 43.1797V130.19" stroke="white" stroke-width="1.20076" stroke-linejoin="round" stroke-dasharray="2.38 2.38"/>
<path d="M333.098 131.148V132.114" stroke="white" stroke-width="1.20076" stroke-linejoin="round"/>
<path d="M337.223 134.785C337.223 133.969 336.981 133.17 336.527 132.491C336.074 131.812 335.429 131.283 334.674 130.971C333.92 130.658 333.089 130.576 332.288 130.736C331.487 130.895 330.752 131.288 330.174 131.866C329.597 132.443 329.204 133.179 329.044 133.98C328.885 134.781 328.967 135.611 329.279 136.366C329.592 137.12 330.121 137.765 330.8 138.219C331.479 138.672 332.277 138.915 333.094 138.915C333.637 138.916 334.174 138.81 334.675 138.602C335.177 138.395 335.632 138.091 336.016 137.708C336.4 137.324 336.704 136.868 336.911 136.367C337.118 135.865 337.224 135.328 337.223 134.785Z" fill="#101626" stroke="white" stroke-width="1.20076" stroke-linejoin="round"/>
<path d="M333.039 132.117V137.655" stroke="white" stroke-width="0.60038" stroke-linejoin="round"/>
<path d="M335.807 134.883H330.27" stroke="white" stroke-width="0.60038" stroke-linejoin="round"/>
<path d="M297.181 89.8663H232.128C231.484 89.8673 230.847 89.7413 230.251 89.4953C229.656 89.2493 229.115 88.8883 228.66 88.4329C228.205 87.9775 227.844 87.4367 227.598 86.8415C227.352 86.2463 227.226 85.6084 227.227 84.9644V84.9644C227.226 84.3204 227.352 83.6825 227.598 83.0873C227.844 82.4921 228.205 81.9513 228.66 81.4959C229.115 81.0405 229.656 80.6794 230.251 80.4335C230.847 80.1875 231.484 80.0614 232.128 80.0625H297.181C298.481 80.0625 299.728 80.579 300.647 81.4982C301.566 82.4175 302.083 83.6643 302.083 84.9644V84.9644C302.083 86.2644 301.566 87.5113 300.647 88.4305C299.728 89.3498 298.481 89.8663 297.181 89.8663V89.8663Z" stroke="white" stroke-width="1.20076" stroke-linejoin="round"/>
<path d="M270.659 144.719H205.582V191.202H270.659V144.719Z" fill="#92E3A9" stroke="white" stroke-width="1.20076" stroke-linejoin="round"/>
<path d="M205.582 144.719L270.659 191.202" stroke="white" stroke-width="1.20076" stroke-linejoin="round"/>
<path d="M438.94 62.7812H373.863V109.265H438.94V62.7812Z" fill="#FFCD69" stroke="white" stroke-width="1.20076" stroke-linejoin="round"/>
<path d="M279.844 144.719L344.928 191.202" stroke="white" stroke-width="1.20076" stroke-linejoin="round"/>
<path d="M181.789 108.195H199.384" stroke="white" stroke-width="1.20076" stroke-linejoin="round"/>
<path d="M165.412 100.312H323.531V205.401H165.412V100.312Z" fill="#3038BD"/>
<path d="M323.531 205.401L165.412 100.312" stroke="#263238" stroke-width="1.20076" stroke-linejoin="round"/>
<path d="M323.531 100.312L165.412 205.401" stroke="#263238" stroke-width="1.20076" stroke-linejoin="round"/>
<path d="M182.219 154.547C180.85 156.337 179.588 158.196 178.441 160.117C177.531 161.643 176.815 163.262 176.307 164.942C176.307 164.942 175.634 164.396 172.038 161.407C168.442 158.419 168.122 155.599 168.122 155.599L171.526 150.952C171.526 150.952 180.074 150.347 182.219 154.547Z" fill="#DFA070"/>
<path d="M185.678 137.055C185.678 137.055 186.841 140.192 187.898 140.321C188.954 140.45 192.081 139.09 191.74 141.533C191.469 143.086 190.605 144.496 189.307 145.504C189.307 145.504 190.032 153.557 189.595 154.748C189.157 155.94 188.528 156.853 185.326 156.466L179.542 155.761C178.836 155.875 178.123 155.951 177.408 155.989C176.063 156.069 176.085 156.208 173.769 153.686C171.453 151.164 170.023 153.338 170.621 149.178C171.218 145.018 171.848 142.357 174.335 139.924C176.821 137.492 185.678 137.055 185.678 137.055Z" fill="#DFA070"/>
<path d="M186.893 142.01C187.181 142.924 187.202 143.718 186.893 143.788C186.584 143.857 186.189 143.182 185.901 142.269C185.612 141.355 185.591 140.551 185.901 140.481C186.21 140.412 186.616 141.107 186.893 142.01Z" fill="#263238"/>
<path d="M158.242 123.338L176.383 110.579C176.383 110.579 179.243 109.388 179.243 107.015C179.403 105.141 179.403 103.259 179.243 101.385C178.934 99.0121 179.243 97.8207 177.973 97.8207C176.703 97.8207 176.383 100.492 176.383 100.492L175.423 97.5129C175.423 97.5129 173.193 96.9271 172.872 98.4065C172.552 99.8859 170.002 100.779 170.642 102.855C171.366 104.642 172.331 106.337 173.513 107.899C173.513 107.899 156.609 114.72 153.429 115.613C150.249 116.507 144.39 119.019 145.031 121.988C145.671 124.957 148.808 133.843 148.808 133.843L158.242 123.338Z" fill="#DFA070"/>
<path d="M175.443 163.689C175.443 163.689 179.882 166.529 185.047 170.084C191.45 174.492 191.557 184.719 192.016 185.752C192.763 187.469 171.804 208.688 168.805 212.262C165.807 215.836 165.262 221.595 165.262 221.595L136.866 215.876C136.866 215.876 151.08 169.706 151.806 166.321C152.531 162.935 153.748 158.526 153.748 158.526C153.748 158.526 151.784 148.091 149.244 139.661C146.705 131.232 145.67 125.84 145.862 124.47C146.054 123.1 153.897 122.315 157.141 122.256C160.385 122.196 160.087 122.613 160.087 122.613C160.087 122.613 167.141 137.854 167.557 138.599C167.973 139.344 175.443 163.689 175.443 163.689Z" fill="#FFCD69"/>
<path d="M165.265 221.594L166.684 234.81L184.196 277.524L187.984 327.278L180.888 327.725L167.154 279.281L148.703 247.578L140.187 276.64L113.892 324.846L107.169 321.152L123.614 271.795L133.08 221.157L136.868 215.875L165.265 221.594Z" fill="#263238" stroke="#263238" stroke-width="1.20076" stroke-linecap="round" stroke-linejoin="round"/>
<path d="M170.204 154.92C171.26 156.351 172.396 157.73 173.608 159.05C175.134 160.629 177.3 161.125 177.877 162.356C178.94 164.145 180.101 165.881 181.355 167.559C181.355 167.559 174.323 166.328 170.684 163.588C167.045 160.847 165.871 155.347 165.871 155.347C165.871 155.347 168.592 154.026 170.204 154.92Z" fill="#DFA070"/>
<path d="M206.935 208.757C206.935 208.757 234.734 200.576 237.423 199.394C238.641 198.869 239.97 198.604 241.312 198.618C242.654 198.631 243.976 198.924 245.181 199.473C247.678 200.466 250.176 199.702 250.24 200.734C250.304 201.767 248.692 202.363 247.774 202.005C246.609 201.733 245.412 201.593 244.21 201.588L254.882 205.828C254.882 205.828 255.106 207.665 253.686 207.814C252.267 207.963 250.208 208.936 248.105 208.807C246.003 208.678 236.9 203.356 236.9 203.356C232.018 205.577 227.299 208.095 222.771 210.892C215.888 215.221 205.206 219.877 201.663 219.321C198.12 218.765 193.948 213.414 194.471 211.17C196.733 201.638 206.935 208.757 206.935 208.757Z" fill="#DFA070"/>
<path d="M172.017 187.849C172.017 187.849 180.309 197.778 184.823 203.001C189.337 208.223 193.872 217.338 197.629 217.1C201.385 216.861 206.027 209.871 205.792 207.985C205.557 206.098 200.457 202.027 197.468 194.68C195.27 189.229 191.407 179.985 189.572 175.616C188.899 174.018 188.761 172.787 187.299 171.754L185.047 170.086" fill="#FFCD69"/>
<path d="M205.792 207.981C205.664 206.909 203.903 205.082 201.876 202.352C201.097 203.632 199.4 206.79 197.127 208.309C195.024 209.572 192.772 210.605 190.415 211.387C193.979 215.448 195.569 217.225 197.629 217.096C201.396 216.868 206.027 209.868 205.792 207.981Z" fill="#DFA070"/>
<path d="M162.445 127.719C161.133 124.889 160.087 122.615 160.087 122.615C160.087 122.615 160.396 122.188 157.142 122.258C153.887 122.327 144.848 123.251 144.656 124.591C144.44 127.315 145.137 130.035 146.651 132.375C149.17 130.459 156.896 127.123 162.445 127.719Z" fill="#DFA070"/>
<path d="M179.339 143.999C179.339 143.999 190.885 136.205 187.321 129.294C183.757 122.384 178.464 119.991 173.608 122.136C168.753 124.28 170.289 126.703 170.289 126.703C170.289 126.703 164.954 126.554 163.086 130.307C162.54 131.351 162.313 132.515 162.432 133.672C162.55 134.828 163.009 135.931 163.758 136.86C161.932 139.228 160.968 142.078 161.005 144.992C161.133 149.738 170.065 156.559 171.879 157.036C173.693 157.512 175.081 154.941 175.081 154.941C175.081 154.941 172.488 150.632 173.64 150.026C174.793 149.42 177.674 151.773 177.674 151.773C177.674 151.773 179.115 152.945 179.531 150.006C179.77 148.005 179.705 145.983 179.339 143.999Z" fill="#263238" stroke="#263238" stroke-width="1.20076" stroke-linecap="round" stroke-linejoin="round"/>
<path d="M187.96 327.281C187.96 327.281 193.296 332.127 198.493 333.447C201.142 334.046 203.707 334.932 206.134 336.088L207.318 338.005C207.42 338.168 207.473 338.353 207.473 338.542C207.472 338.731 207.419 338.916 207.317 339.079C207.215 339.242 207.069 339.377 206.893 339.471C206.717 339.565 206.518 339.614 206.315 339.613H180.383C180.007 337.728 179.85 335.81 179.914 333.894C179.844 331.803 180.165 329.717 180.864 327.728L187.96 327.281Z" fill="#131212" stroke="#263238" stroke-width="1.20076" stroke-linecap="round" stroke-linejoin="round"/>
<path d="M113.893 324.85L114.277 328.533C114.277 328.533 115.91 332.336 118.375 333.865C120.84 335.394 123.828 335.394 123.828 336.914V339.713H113.722C113.722 339.713 111.588 339.962 108.536 337.42C105.484 334.878 104.982 332.594 102.805 331.324C100.628 330.053 100.618 328.275 101.738 325.475C102.859 322.675 107.202 321.156 107.202 321.156L113.893 324.85Z" fill="#131212" stroke="#263238" stroke-width="1.20076" stroke-linecap="round" stroke-linejoin="round"/>
<path d="M569.133 280.51C565.797 280.367 562.575 279.248 559.869 277.291C559.658 277.154 559.478 276.975 559.34 276.765C559.201 276.556 559.107 276.32 559.063 276.072C559.019 275.825 559.027 275.571 559.085 275.327C559.144 275.083 559.251 274.853 559.402 274.652C559.553 274.451 559.743 274.283 559.962 274.158C560.18 274.034 560.421 273.956 560.671 273.928C560.921 273.901 561.174 273.926 561.414 274C561.654 274.074 561.876 274.197 562.066 274.361C562.324 274.546 568.505 279.013 573.592 275.383C577.367 272.711 577.875 254.721 577.029 242.8C576.995 242.315 577.155 241.835 577.475 241.468C577.794 241.1 578.246 240.875 578.732 240.84C579.217 240.806 579.697 240.966 580.064 241.286C580.432 241.605 580.658 242.057 580.692 242.543C581.054 247.678 582.519 273.548 575.709 278.377C573.799 279.768 571.496 280.515 569.133 280.51Z" fill="#263238"/>
<path d="M546.515 280.18H540.414V325.053H546.515V280.18Z" fill="#263238"/>
<path d="M546.515 325.46H540.414C540.307 325.46 540.205 325.417 540.13 325.342C540.054 325.266 540.012 325.164 540.012 325.057V280.184C540.012 280.077 540.054 279.975 540.13 279.899C540.205 279.824 540.307 279.781 540.414 279.781H546.515C546.622 279.781 546.724 279.824 546.8 279.899C546.875 279.975 546.918 280.077 546.918 280.184V325.049C546.919 325.103 546.909 325.156 546.89 325.206C546.87 325.255 546.84 325.301 546.803 325.339C546.765 325.377 546.721 325.408 546.671 325.428C546.622 325.449 546.569 325.46 546.515 325.46ZM540.817 324.655H546.137V280.586H540.841L540.817 324.655Z" fill="#263238"/>
<path d="M567.628 262.703H519.301C517.603 262.703 516.227 264.08 516.227 265.778V272.789C516.227 274.487 517.603 275.863 519.301 275.863H567.628C569.326 275.863 570.703 274.487 570.703 272.789V265.778C570.703 264.08 569.326 262.703 567.628 262.703Z" fill="#8C8C8C"/>
<path d="M567.627 276.262H519.333C518.41 276.262 517.525 275.896 516.871 275.244C516.218 274.592 515.85 273.708 515.848 272.785V265.782C515.848 264.858 516.215 263.971 516.868 263.318C517.522 262.664 518.409 262.297 519.333 262.297H567.627C568.55 262.299 569.435 262.667 570.087 263.321C570.738 263.974 571.104 264.859 571.104 265.782V272.785C571.102 273.706 570.735 274.59 570.084 275.241C569.432 275.893 568.549 276.26 567.627 276.262ZM519.333 263.102C518.623 263.104 517.942 263.387 517.44 263.889C516.938 264.391 516.655 265.072 516.653 265.782V272.785C516.655 273.494 516.938 274.174 517.44 274.675C517.943 275.176 518.623 275.457 519.333 275.457H567.627C568.336 275.457 569.016 275.176 569.517 274.674C570.018 274.173 570.3 273.494 570.3 272.785V265.782C570.304 265.428 570.238 265.077 570.106 264.748C569.973 264.42 569.777 264.121 569.529 263.869C569.28 263.617 568.984 263.416 568.658 263.279C568.332 263.142 567.981 263.071 567.627 263.07L519.333 263.102Z" fill="#263238"/>
<path d="M575.506 201.68C575.032 202.765 574.634 203.881 574.314 205.02C572.012 212.981 571.835 221.585 571.755 229.811C571.715 233.087 570.861 238.383 572.133 241.418C573.743 245.201 580.85 246.94 582.822 242.674C585.301 237.297 583.804 230.157 584.995 224.362C586.324 217.923 589.97 209.994 588.376 203.491C586.855 197.293 581.872 192.311 577.019 199.024C576.423 199.854 575.916 200.744 575.506 201.68Z" fill="#8C8C8C"/>
<path d="M554.683 275.984H532.242V282.086H554.683V275.984Z" fill="#263238"/>
<path d="M554.683 282.492H532.242C532.136 282.492 532.033 282.45 531.958 282.374C531.882 282.299 531.84 282.196 531.84 282.09V275.988C531.842 275.882 531.885 275.781 531.96 275.706C532.035 275.631 532.136 275.588 532.242 275.586H554.683C554.79 275.586 554.892 275.628 554.968 275.704C555.043 275.779 555.086 275.882 555.086 275.988V282.09C555.086 282.196 555.043 282.299 554.968 282.374C554.892 282.45 554.79 282.492 554.683 282.492ZM532.645 281.687H554.281V276.391H532.645V281.687Z" fill="#263238"/>
<path d="M517.103 346.288C517.103 346.856 516.934 347.412 516.618 347.885C516.302 348.358 515.852 348.726 515.327 348.943C514.801 349.16 514.223 349.217 513.665 349.105C513.108 348.994 512.596 348.719 512.194 348.317C511.793 347.914 511.52 347.401 511.41 346.843C511.3 346.285 511.358 345.707 511.577 345.182C511.795 344.657 512.165 344.209 512.638 343.894C513.112 343.58 513.668 343.412 514.237 343.414C514.614 343.414 514.987 343.488 515.335 343.633C515.684 343.777 516 343.989 516.266 344.256C516.532 344.523 516.743 344.84 516.887 345.189C517.03 345.537 517.104 345.911 517.103 346.288Z" fill="#DD9E70"/>
<path d="M514.237 349.568C513.589 349.569 512.955 349.378 512.415 349.019C511.875 348.66 511.454 348.149 511.205 347.551C510.956 346.952 510.89 346.293 511.015 345.657C511.141 345.021 511.452 344.437 511.91 343.978C512.368 343.519 512.951 343.206 513.587 343.079C514.223 342.952 514.882 343.017 515.481 343.264C516.08 343.512 516.592 343.932 516.952 344.471C517.313 345.01 517.505 345.643 517.505 346.292C517.505 347.159 517.161 347.991 516.548 348.605C515.936 349.219 515.105 349.565 514.237 349.568ZM514.237 343.821C513.748 343.819 513.27 343.962 512.862 344.233C512.455 344.504 512.137 344.889 511.948 345.34C511.76 345.792 511.71 346.289 511.805 346.769C511.899 347.249 512.134 347.69 512.479 348.036C512.824 348.382 513.264 348.619 513.744 348.715C514.224 348.811 514.721 348.762 515.173 348.575C515.625 348.389 516.011 348.072 516.283 347.665C516.555 347.259 516.7 346.781 516.7 346.292C516.7 345.638 516.441 345.01 515.979 344.547C515.518 344.084 514.891 343.823 514.237 343.821Z" fill="#263238"/>
<path d="M576.095 346.288C576.095 346.856 575.926 347.411 575.61 347.884C575.295 348.357 574.846 348.725 574.321 348.942C573.796 349.16 573.218 349.217 572.661 349.106C572.103 348.995 571.591 348.721 571.189 348.319C570.787 347.918 570.514 347.406 570.403 346.848C570.292 346.291 570.349 345.713 570.566 345.188C570.784 344.663 571.152 344.214 571.625 343.898C572.097 343.583 572.653 343.414 573.221 343.414C573.599 343.413 573.973 343.487 574.322 343.631C574.671 343.775 574.988 343.986 575.255 344.253C575.522 344.52 575.734 344.838 575.878 345.187C576.022 345.536 576.096 345.91 576.095 346.288Z" fill="#DD9E70"/>
<path d="M573.221 349.568C572.573 349.568 571.94 349.375 571.401 349.015C570.863 348.655 570.443 348.144 570.195 347.545C569.947 346.947 569.882 346.288 570.008 345.652C570.135 345.017 570.447 344.433 570.905 343.975C571.363 343.517 571.947 343.205 572.582 343.079C573.218 342.952 573.876 343.017 574.475 343.265C575.074 343.513 575.585 343.933 575.945 344.472C576.305 345.01 576.497 345.644 576.497 346.292C576.495 347.16 576.149 347.992 575.535 348.606C574.922 349.22 574.089 349.565 573.221 349.568ZM573.221 343.821C572.733 343.821 572.255 343.965 571.848 344.237C571.442 344.509 571.125 344.894 570.938 345.346C570.751 345.797 570.702 346.294 570.798 346.774C570.893 347.253 571.128 347.693 571.474 348.039C571.82 348.384 572.26 348.62 572.739 348.715C573.219 348.811 573.715 348.762 574.167 348.575C574.618 348.388 575.004 348.071 575.276 347.664C575.547 347.258 575.692 346.78 575.692 346.292C575.69 345.637 575.429 345.01 574.966 344.547C574.503 344.084 573.876 343.823 573.221 343.821Z" fill="#263238"/>
<path d="M546.251 346.288C546.251 346.856 546.082 347.412 545.766 347.885C545.45 348.358 545.001 348.726 544.475 348.943C543.95 349.16 543.371 349.217 542.814 349.105C542.256 348.994 541.744 348.719 541.343 348.317C540.941 347.914 540.668 347.401 540.558 346.843C540.448 346.285 540.506 345.707 540.725 345.182C540.944 344.657 541.313 344.209 541.787 343.894C542.26 343.58 542.817 343.412 543.385 343.414C543.762 343.414 544.136 343.488 544.484 343.633C544.832 343.777 545.148 343.989 545.414 344.256C545.681 344.523 545.892 344.84 546.035 345.189C546.179 345.537 546.252 345.911 546.251 346.288Z" fill="#DD9E70"/>
<path d="M543.386 349.568C542.737 349.569 542.103 349.378 541.563 349.019C541.024 348.66 540.602 348.149 540.353 347.551C540.104 346.952 540.038 346.293 540.164 345.657C540.289 345.021 540.6 344.437 541.058 343.978C541.516 343.519 542.1 343.206 542.735 343.079C543.371 342.952 544.03 343.017 544.629 343.264C545.228 343.512 545.741 343.932 546.101 344.471C546.461 345.01 546.654 345.643 546.654 346.292C546.654 347.159 546.309 347.991 545.697 348.605C545.084 349.219 544.253 349.565 543.386 349.568ZM543.386 343.821C542.897 343.819 542.418 343.962 542.011 344.233C541.603 344.504 541.285 344.889 541.097 345.34C540.909 345.792 540.859 346.289 540.953 346.769C541.047 347.249 541.282 347.69 541.627 348.036C541.973 348.382 542.413 348.619 542.893 348.715C543.372 348.811 543.869 348.762 544.321 348.575C544.773 348.389 545.16 348.072 545.432 347.665C545.703 347.259 545.849 346.781 545.849 346.292C545.849 345.638 545.589 345.01 545.128 344.547C544.666 344.084 544.04 343.823 543.386 343.821Z" fill="#263238"/>
<path d="M545.405 325.055L543.465 325.127L541.533 325.055L509.973 342.891V345.507H514.239V343.238L543.465 332.967L572.699 343.238V345.507H576.965V342.891L545.405 325.055Z" fill="#263238"/>
<path d="M576.965 345.914H572.699C572.592 345.914 572.49 345.871 572.415 345.796C572.339 345.72 572.297 345.618 572.297 345.511V343.563L543.465 333.43L514.641 343.563V345.544C514.641 345.65 514.599 345.753 514.523 345.828C514.448 345.904 514.345 345.946 514.239 345.946H509.973C509.866 345.946 509.764 345.904 509.688 345.828C509.613 345.753 509.57 345.65 509.57 345.544V342.928C509.571 342.857 509.59 342.788 509.625 342.728C509.66 342.667 509.711 342.617 509.772 342.582L541.308 324.705C541.376 324.673 541.45 324.656 541.525 324.656L543.457 324.729L545.364 324.656C545.437 324.656 545.509 324.672 545.574 324.705L577.134 342.549C577.197 342.583 577.25 342.633 577.287 342.693C577.323 342.754 577.343 342.824 577.343 342.895V345.511C577.342 345.614 577.302 345.711 577.232 345.786C577.162 345.86 577.067 345.906 576.965 345.914ZM573.102 345.109H576.563V343.129L545.332 325.461L543.513 325.534L541.662 325.461L510.407 343.129V345.109H513.868V343.242C513.87 343.158 513.897 343.077 513.946 343.01C513.995 342.942 514.064 342.891 514.142 342.863L543.368 332.585C543.455 332.561 543.547 332.561 543.634 332.585L572.86 342.863C572.939 342.891 573.007 342.942 573.056 343.01C573.105 343.077 573.132 343.158 573.134 343.242L573.102 345.109Z" fill="#263238"/>
<path d="M540.672 324.977H546.258L545.421 345.51H541.509L540.672 324.977Z" fill="#263238"/>
<path d="M545.42 345.908H541.508C541.405 345.905 541.307 345.863 541.233 345.792C541.159 345.721 541.114 345.625 541.106 345.522L540.301 324.989C540.3 324.879 540.34 324.773 540.413 324.691C540.49 324.614 540.594 324.571 540.703 324.57H546.289C546.343 324.569 546.397 324.579 546.447 324.6C546.497 324.621 546.542 324.652 546.579 324.691C546.618 324.73 546.649 324.776 546.668 324.828C546.688 324.879 546.696 324.934 546.692 324.989L545.887 345.522C545.885 345.58 545.871 345.636 545.846 345.687C545.821 345.739 545.785 345.785 545.741 345.821C545.697 345.858 545.645 345.885 545.59 345.9C545.535 345.915 545.477 345.918 545.42 345.908ZM541.894 345.104H545.034L545.839 325.375H541.09L541.894 345.104Z" fill="#263238"/>
<path d="M511.218 138.984C511.218 138.984 510.413 145.109 512.779 148.498C515.146 151.886 515.774 153.834 515.774 155.404C515.774 156.973 514.735 159.573 515.774 160.354C516.812 161.135 519.951 160.354 519.951 160.354C519.951 160.354 525.585 166.085 527.509 165.57C528.922 165.108 530.244 164.403 531.413 163.485C531.413 163.485 537.281 169.473 538.061 171.172C538.842 172.87 539.365 174.166 539.365 174.166L548.099 160.354C544.312 157.346 541.391 153.388 539.631 148.884C536.894 141.583 536.894 131.981 528.548 129.856C520.201 127.731 512.127 135.458 511.218 138.984Z" fill="#DD9E70"/>
<path d="M522.073 159.854C521.997 159.852 521.923 159.829 521.859 159.788C521.795 159.747 521.744 159.689 521.711 159.62C521.688 159.573 521.675 159.521 521.672 159.469C521.67 159.416 521.678 159.363 521.696 159.314C521.714 159.264 521.741 159.219 521.777 159.18C521.813 159.142 521.856 159.111 521.904 159.089C521.904 159.089 524.15 157.986 524.15 155.934C524.15 155.827 524.192 155.725 524.268 155.649C524.343 155.574 524.446 155.531 524.552 155.531C524.659 155.531 524.762 155.574 524.837 155.649C524.913 155.725 524.955 155.827 524.955 155.934C524.955 158.501 522.355 159.757 522.25 159.813C522.195 159.838 522.134 159.852 522.073 159.854Z" fill="#263238"/>
<path d="M515.55 149.583C515.447 149.585 515.347 149.547 515.272 149.476C515.197 149.405 515.152 149.308 515.148 149.205C515.108 148.768 515.176 148.327 515.348 147.923C515.52 147.519 515.79 147.164 516.134 146.89C516.477 146.617 516.883 146.432 517.315 146.355C517.747 146.277 518.192 146.307 518.609 146.444C518.662 146.451 518.712 146.468 518.758 146.495C518.803 146.522 518.843 146.559 518.874 146.602C518.905 146.645 518.927 146.694 518.938 146.745C518.949 146.797 518.949 146.851 518.939 146.903C518.931 146.955 518.913 147.005 518.886 147.05C518.858 147.095 518.822 147.134 518.779 147.165C518.737 147.195 518.688 147.217 518.637 147.229C518.585 147.241 518.532 147.242 518.48 147.233C518.155 147.145 517.814 147.132 517.482 147.193C517.151 147.254 516.837 147.389 516.565 147.587C516.36 147.801 516.201 148.053 516.096 148.33C515.991 148.606 515.942 148.901 515.953 149.197C515.955 149.25 515.947 149.302 515.929 149.352C515.91 149.402 515.882 149.447 515.847 149.486C515.811 149.525 515.767 149.556 515.719 149.579C515.671 149.601 515.619 149.613 515.567 149.615L515.55 149.583Z" fill="#263238"/>
<path d="M518.939 151.62C519.43 152.376 519.502 153.229 519.108 153.447C518.714 153.664 518.005 153.294 517.498 152.537C516.991 151.781 516.935 150.927 517.329 150.71C517.724 150.493 518.448 150.863 518.939 151.62Z" fill="#263238"/>
<path d="M531.422 163.493L534.931 160.82V166.736L531.422 163.493Z" fill="#263238"/>
<path d="M534.932 167.134C534.831 167.131 534.735 167.094 534.658 167.029L531.149 163.81C531.105 163.772 531.069 163.725 531.045 163.672C531.02 163.62 531.008 163.562 531.008 163.504C531.008 163.446 531.02 163.388 531.045 163.336C531.069 163.283 531.105 163.236 531.149 163.198L534.666 160.526C534.726 160.481 534.797 160.454 534.872 160.447C534.946 160.44 535.021 160.454 535.088 160.488C535.154 160.521 535.211 160.573 535.25 160.636C535.289 160.7 535.31 160.773 535.31 160.848V166.764C535.309 166.842 535.286 166.919 535.243 166.984C535.201 167.05 535.14 167.102 535.069 167.134C535.023 167.14 534.977 167.14 534.932 167.134ZM532.042 163.512L534.529 165.814V161.653L532.042 163.512Z" fill="#263238"/>
<path d="M478.411 258.024L470.805 334.393C470.805 334.393 460.027 334.618 455.511 334.168C450.996 333.717 446.754 331.922 447.205 334.393C447.656 336.864 454.385 340.905 456.864 342.024C459.343 343.142 462.498 343.819 464.502 344.945C466.507 346.072 470.789 349.211 472.551 348.761C474.314 348.31 478.387 331.922 478.387 331.922L499.29 264.761L522.633 262.966C522.633 262.966 487.378 253.532 483.78 253.081C480.182 252.631 478.411 258.024 478.411 258.024Z" fill="#DD9E70"/>
<path d="M466.767 340.68C459.129 338.885 456.432 336.656 456.432 336.656L458.469 334.362C457.358 334.322 456.344 334.265 455.539 334.185C451.047 333.734 446.781 331.939 447.232 334.41C447.683 336.881 454.412 340.922 456.891 342.041C459.37 343.159 462.525 343.836 464.529 344.962C466.534 346.089 470.816 349.229 472.579 348.778C473.327 348.593 474.454 345.655 475.525 342.29C472.576 341.925 469.652 341.388 466.767 340.68Z" fill="#263238"/>
<path d="M472.231 349.196C470.621 349.196 468.086 347.586 466.009 346.314C465.365 345.912 464.785 345.549 464.319 345.292C463.043 344.639 461.713 344.1 460.342 343.682C459.109 343.302 457.897 342.856 456.712 342.346C454.684 341.42 447.351 337.267 446.828 334.418C446.765 334.189 446.761 333.948 446.816 333.717C446.87 333.486 446.983 333.273 447.142 333.098C447.874 332.373 449.557 332.687 451.843 333.098C452.986 333.315 454.257 333.564 455.577 333.693C456.31 333.766 457.292 333.83 458.483 333.87C458.559 333.874 458.633 333.9 458.696 333.944C458.758 333.988 458.808 334.048 458.838 334.118C458.868 334.189 458.878 334.266 458.866 334.342C458.855 334.417 458.822 334.488 458.773 334.546L457.034 336.494C457.96 337.122 460.89 338.812 466.854 340.213C469.734 340.919 472.653 341.456 475.595 341.823C475.655 341.83 475.711 341.85 475.762 341.882C475.812 341.914 475.854 341.957 475.885 342.008C475.919 342.057 475.94 342.113 475.949 342.171C475.957 342.23 475.952 342.29 475.933 342.346C474.122 348.045 473.285 348.962 472.714 349.107C472.557 349.155 472.395 349.185 472.231 349.196ZM448.551 333.508C448.254 333.473 447.954 333.544 447.705 333.709C447.646 333.797 447.608 333.897 447.594 334.002C447.58 334.106 447.591 334.213 447.625 334.313C448.019 336.51 454.41 340.454 457.05 341.654C458.145 342.145 459.385 342.563 460.592 342.966C462.01 343.379 463.39 343.918 464.713 344.575C465.188 344.841 465.784 345.211 466.436 345.622C468.367 346.829 471.265 348.656 472.505 348.359C472.625 348.31 473.309 347.819 475.016 342.595C472.208 342.234 469.421 341.721 466.669 341.058C459.03 339.255 456.286 337.034 456.205 336.929C456.123 336.857 456.071 336.756 456.06 336.647C456.058 336.541 456.095 336.438 456.165 336.357L457.598 334.707C456.793 334.667 456.068 334.619 455.489 334.562C454.161 334.426 452.841 334.176 451.682 333.959C450.652 333.726 449.605 333.578 448.551 333.516V333.508Z" fill="#263238"/>
<path d="M534.146 223.695L531.184 235.342C521.527 235.808 511.918 237.005 502.441 238.923C487.148 242.063 473.022 246.329 472.571 249.025C472.12 251.721 489.643 283.829 503.335 308.532C506.305 313.876 512.768 327.399 512.768 327.399C512.768 327.399 510.297 334.136 507.826 337.951C505.355 341.766 501.54 345.364 500.646 345.815C499.753 346.266 497.048 347.385 497.95 348.503C498.851 349.622 508.051 348.503 508.727 348.503C509.404 348.503 516.591 342.217 518.612 340.454C520.632 338.692 528.488 332.816 528.271 330.57C528.053 328.324 521.083 323.39 520.64 321.813C520.197 320.235 511.198 300.692 510.724 298.897C510.249 297.102 498.376 261.871 498.376 261.871C498.376 261.871 547.105 264.568 557.658 263.674C568.21 262.781 569.788 258.732 570.456 255.134C571.124 251.536 566.431 222.35 566.431 222.35L534.992 222.125L534.146 223.695Z" fill="#DD9E70"/>
<path d="M498.399 262.264C498.345 262.272 498.291 262.272 498.238 262.264L487.46 257.772C487.361 257.731 487.282 257.651 487.241 257.552C487.2 257.452 487.201 257.34 487.243 257.241C487.284 257.142 487.363 257.063 487.463 257.022C487.563 256.982 487.674 256.982 487.774 257.024L498.551 261.459C498.649 261.503 498.725 261.583 498.765 261.681C498.806 261.78 498.807 261.89 498.769 261.99C498.742 262.068 498.693 262.136 498.627 262.185C498.56 262.234 498.481 262.261 498.399 262.264Z" fill="#263238"/>
<path d="M528.26 330.555C528.155 329.452 526.417 327.706 524.63 326.023C523.905 326.941 523.076 327.963 522.215 328.986C519.519 332.133 508.065 343.361 508.065 343.361L504.41 342.363C503.301 343.663 502.042 344.828 500.66 345.832C499.758 346.275 497.062 347.402 497.963 348.521C498.865 349.639 508.065 348.521 508.741 348.521C509.417 348.521 516.605 342.234 518.625 340.472C520.645 338.709 528.485 332.801 528.26 330.555Z" fill="#263238"/>
<path d="M500.968 349.419C499.004 349.419 497.981 349.202 497.635 348.775C497.523 348.644 497.442 348.489 497.4 348.321C497.358 348.153 497.356 347.978 497.394 347.809C497.595 346.908 498.875 346.2 500.163 345.612L500.461 345.467C501.8 344.485 503.021 343.351 504.099 342.087C504.148 342.031 504.211 341.989 504.283 341.968C504.354 341.947 504.43 341.946 504.501 341.966L507.938 342.908C509.355 341.515 519.416 331.639 521.895 328.725C522.7 327.824 523.505 326.825 524.31 325.771C524.343 325.727 524.386 325.69 524.434 325.664C524.483 325.638 524.537 325.622 524.592 325.618C524.647 325.614 524.703 325.622 524.755 325.64C524.808 325.658 524.856 325.686 524.898 325.723C527.135 327.832 528.544 329.361 528.656 330.552C528.842 332.42 524.954 335.768 520.607 339.326C519.875 339.929 519.263 340.428 518.869 340.775C515.424 343.833 509.532 348.96 508.719 348.96C508.598 348.96 508.196 348.96 507.616 349.057C504.711 349.282 502.537 349.419 500.968 349.419ZM504.525 342.811C503.434 344.083 502.191 345.216 500.823 346.183L500.509 346.336C499.849 346.65 498.311 347.391 498.175 347.986C498.164 348.037 498.167 348.089 498.183 348.139C498.198 348.188 498.226 348.233 498.263 348.268C498.545 348.606 500.38 348.872 507.544 348.212C508.244 348.147 508.59 348.115 508.727 348.115C509.387 347.906 514.756 343.286 518.338 340.139C518.74 339.784 519.36 339.269 520.108 338.666C522.676 336.565 528.021 332.186 527.868 330.617C527.763 329.635 525.847 327.751 524.648 326.64C523.908 327.574 523.175 328.459 522.483 329.272C519.811 332.387 508.799 343.205 508.308 343.664C508.259 343.714 508.197 343.75 508.129 343.768C508.061 343.786 507.99 343.787 507.922 343.769L504.525 342.811Z" fill="#263238"/>
<path d="M534.994 222.094L534.141 223.704L531.179 235.351C521.521 235.814 511.913 237.009 502.436 238.924C497.856 239.866 493.38 240.904 489.34 241.983L499.804 261.904C507.788 262.331 548.211 264.432 557.709 263.627C568.261 262.725 569.839 258.685 570.507 255.087C571.175 251.489 566.482 222.303 566.482 222.303L534.994 222.094Z" fill="#263238"/>
<path d="M551.095 264.218C536.18 264.218 506.495 262.673 499.75 262.318C499.68 262.314 499.613 262.292 499.556 262.254C499.498 262.216 499.451 262.163 499.42 262.101L488.956 242.18C488.928 242.126 488.914 242.067 488.914 242.007C488.914 241.946 488.928 241.887 488.956 241.834C488.98 241.777 489.016 241.727 489.062 241.686C489.108 241.646 489.162 241.616 489.222 241.6C493.246 240.538 497.754 239.483 502.334 238.542C511.735 236.645 521.265 235.445 530.843 234.952L533.757 223.627C533.752 223.597 533.752 223.567 533.757 223.538L534.61 221.928C534.644 221.863 534.695 221.809 534.757 221.77C534.82 221.732 534.891 221.712 534.964 221.711L566.396 221.936C566.492 221.935 566.584 221.969 566.657 222.031C566.729 222.093 566.777 222.18 566.79 222.274C566.984 223.474 571.515 251.581 570.815 255.203C570.107 259.002 568.4 263.139 557.655 264.057C556.206 264.162 553.912 264.218 551.095 264.218ZM500.023 261.522C508.539 261.98 548.318 264.033 557.647 263.236C567.869 262.367 569.422 258.543 570.082 255.026C570.694 251.75 566.613 225.977 566.058 222.717L535.206 222.492L534.49 223.836L531.535 235.443C531.515 235.526 531.467 235.6 531.4 235.654C531.333 235.707 531.251 235.738 531.165 235.74C521.529 236.218 511.943 237.418 502.486 239.33C498.108 240.232 493.769 241.238 489.906 242.252L500.023 261.522Z" fill="#263238"/>
<path d="M557.003 245.177C556.909 245.177 556.817 245.143 556.746 245.081C549.735 239.165 533.975 236.887 533.822 236.863C533.717 236.849 533.621 236.793 533.556 236.709C533.491 236.624 533.462 236.518 533.476 236.412C533.492 236.306 533.549 236.21 533.635 236.145C533.721 236.081 533.828 236.052 533.935 236.066C534.587 236.163 550.033 238.4 557.277 244.469C557.315 244.506 557.344 244.55 557.365 244.598C557.385 244.646 557.395 244.698 557.395 244.751C557.395 244.803 557.385 244.855 557.365 244.904C557.344 244.952 557.315 244.996 557.277 245.033C557.244 245.074 557.203 245.109 557.155 245.134C557.108 245.159 557.057 245.173 557.003 245.177Z" fill="#263238"/>
<path d="M552.737 239.557C552.654 239.556 552.573 239.531 552.504 239.484C549.478 237.327 539.537 235.975 539.44 235.967C539.387 235.96 539.336 235.942 539.29 235.916C539.244 235.889 539.203 235.853 539.171 235.81C539.139 235.767 539.115 235.719 539.102 235.667C539.089 235.615 539.086 235.561 539.094 235.508C539.1 235.455 539.117 235.405 539.143 235.359C539.169 235.313 539.204 235.273 539.247 235.241C539.289 235.21 539.337 235.187 539.388 235.175C539.44 235.162 539.493 235.161 539.545 235.17C539.964 235.218 549.783 236.554 552.971 238.832C553.014 238.863 553.051 238.902 553.08 238.946C553.108 238.991 553.128 239.041 553.137 239.094C553.146 239.146 553.144 239.2 553.132 239.252C553.12 239.303 553.098 239.352 553.067 239.396C553.029 239.446 552.979 239.487 552.921 239.515C552.864 239.543 552.801 239.557 552.737 239.557Z" fill="#263238"/>
<path d="M493.551 202.31C493.551 202.31 490.042 202.004 488.36 203.115C486.678 204.225 478.604 209.675 476.463 211.502C474.749 213.086 473.305 214.941 472.189 216.991C472.044 217.45 473.107 217.603 473.566 217.45C474.024 217.297 475.98 215.776 475.393 216.541C474.805 217.305 475.86 217.482 475.86 217.482C475.86 217.482 487.128 210.89 488.062 211.043C489.496 211.032 490.887 210.551 492.022 209.675C493.451 208.733 494.928 207.867 496.449 207.083L532.453 214.053L537.942 209.023L536.727 196.82L528.678 203.533L493.551 202.31Z" fill="#DD9E70"/>
<path d="M544.006 162.595C544.006 162.595 537.285 176.19 533.953 186.605C530.62 197.021 532.343 199.419 533.148 200.015C533.953 200.611 535.707 201.979 535.707 201.979C535.707 201.979 532.753 222.102 534.097 223.663C535.442 225.225 546.912 225.836 556.176 225.836C565.44 225.836 567.606 222.085 567.606 220.122C567.606 218.158 563.468 186.412 560.313 176.158C557.158 165.903 548.731 159.238 544.006 162.595Z" fill="#3038BD"/>
<path d="M543.616 178.172L539.406 207.784C539.406 207.784 495.837 205.426 495.048 205.426C494.259 205.426 485.59 209.362 482.041 211.334C478.491 213.306 476.125 214.69 475.537 216.067L474.941 217.443C476.701 217.785 478.51 217.785 480.27 217.443C481.832 217.082 483.351 216.556 484.802 215.874C484.802 215.874 489.929 215.278 491.7 214.095C493.47 212.912 497.414 209.563 497.414 209.563C497.414 209.563 531.711 218.828 535.245 219.415C538.779 220.003 547.27 223.561 549.242 221.589C550.852 219.979 555.802 191.252 557.404 181.689C557.606 180.526 557.562 179.334 557.275 178.189C556.988 177.043 556.465 175.971 555.738 175.041C554.547 173.536 552.921 172.167 551.013 171.91C545.234 171.145 543.616 178.172 543.616 178.172Z" fill="#DD9E70"/>
<path d="M480.271 217.853C480.168 217.856 480.068 217.817 479.992 217.746C479.917 217.676 479.873 217.578 479.869 217.475C479.842 217.071 479.917 216.667 480.087 216.3C480.257 215.933 480.517 215.615 480.842 215.374C481.647 214.891 485.913 212.96 486.324 212.815C486.425 212.784 486.535 212.793 486.629 212.841C486.724 212.889 486.796 212.972 486.831 213.072C486.864 213.174 486.855 213.284 486.807 213.379C486.759 213.474 486.675 213.546 486.573 213.579C486.268 213.684 482.09 215.584 481.237 216.075C480.625 216.421 480.673 217.427 480.673 217.435C480.676 217.488 480.667 217.54 480.649 217.59C480.631 217.64 480.603 217.685 480.567 217.724C480.531 217.763 480.488 217.794 480.44 217.817C480.392 217.839 480.34 217.851 480.287 217.853H480.271Z" fill="#263238"/>
<path d="M477.912 218.163C477.872 218.171 477.831 218.171 477.791 218.163C477.74 218.148 477.693 218.122 477.653 218.088C477.612 218.054 477.579 218.012 477.554 217.964C477.53 217.917 477.516 217.865 477.513 217.812C477.509 217.759 477.516 217.706 477.534 217.656C477.679 217.181 478.21 215.579 478.757 215.177C479.304 214.774 483.804 212.199 484.327 211.901C484.419 211.855 484.526 211.847 484.624 211.877C484.722 211.908 484.805 211.975 484.856 212.064C484.906 212.154 484.92 212.26 484.896 212.359C484.871 212.459 484.808 212.546 484.721 212.601C482.701 213.752 479.578 215.563 479.24 215.821C478.811 216.455 478.493 217.157 478.298 217.897C478.271 217.977 478.218 218.046 478.149 218.094C478.079 218.142 477.996 218.166 477.912 218.163Z" fill="#263238"/>
<path d="M519.492 123.723C519.492 123.723 504.472 131.981 504.722 136.738C504.971 141.495 525.255 144.498 527.002 144.498C528.748 144.498 529.006 139.998 531.26 141.278C533.513 142.558 534.012 145.536 533.763 146.783C533.562 147.714 533.312 148.632 533.014 149.536C533.014 149.536 538.021 164.025 543.027 166.56C548.034 169.095 554.674 171.14 559.174 165.377C563.673 159.614 562.53 152.764 559.794 149.794C556.01 145.665 547.277 145.769 545.023 140.529C542.77 135.289 543.526 127.256 538.52 122.25C533.513 117.243 519.492 123.723 519.492 123.723Z" fill="#263238"/>
<path d="M551.773 169.442C549.206 169.442 546.235 168.589 542.839 166.89C537.744 164.347 532.834 150.237 532.624 149.641C532.6 149.557 532.6 149.468 532.624 149.384C532.919 148.496 533.166 147.593 533.365 146.679C533.566 145.673 533.188 142.784 531.063 141.6C530.258 141.133 529.815 141.665 529.075 142.985C528.544 143.927 527.996 144.9 526.998 144.9C525.855 144.9 504.598 142.067 504.316 136.763C504.058 131.813 518.675 123.715 519.295 123.369C519.883 123.096 533.631 116.801 538.774 121.945C542.082 125.253 542.919 129.696 543.732 134.018C544.044 136.186 544.583 138.314 545.342 140.369C546.541 143.162 549.688 144.393 553.021 145.625C555.621 146.615 558.317 147.637 560.04 149.521C562.656 152.362 564.273 159.453 559.444 165.619C558.563 166.822 557.407 167.797 556.073 168.462C554.738 169.127 553.264 169.463 551.773 169.442ZM533.429 149.505C533.936 150.929 538.637 163.888 543.201 166.174C550.445 169.804 555.444 169.466 558.856 165.104C563.404 159.292 561.923 152.676 559.5 150.028C557.89 148.289 555.299 147.299 552.779 146.349C549.439 145.078 545.986 143.766 544.65 140.659C543.86 138.548 543.294 136.36 542.959 134.131C542.155 129.953 541.35 125.631 538.227 122.508C533.542 117.815 520.148 123.868 519.714 124.118C515.585 126.388 504.968 133.06 505.161 136.755C505.386 140.948 524.543 144.128 527.038 144.128C527.57 144.128 527.996 143.363 528.415 142.623C529.026 141.528 529.864 140.023 531.49 140.924C533.904 142.285 534.468 145.52 534.194 146.864C533.988 147.757 533.736 148.638 533.437 149.505H533.429Z" fill="#263238"/>
<path d="M441.1 220.188H423.166C422.62 220.19 422.084 220.048 421.609 219.778C421.135 219.508 420.739 219.118 420.462 218.648C420.184 218.178 420.035 217.643 420.028 217.097C420.021 216.551 420.156 216.013 420.422 215.536L440.126 179.822C440.272 179.566 440.513 179.378 440.796 179.299C441.08 179.22 441.384 179.256 441.641 179.399C441.898 179.542 442.089 179.78 442.172 180.063C442.254 180.346 442.222 180.65 442.082 180.909L422.378 216.614C422.301 216.753 422.263 216.909 422.266 217.067C422.269 217.225 422.314 217.379 422.395 217.514C422.477 217.65 422.592 217.761 422.731 217.838C422.869 217.914 423.025 217.953 423.183 217.951H441.1C441.397 217.951 441.681 218.068 441.891 218.278C442.101 218.488 442.219 218.773 442.219 219.069C442.219 219.366 442.101 219.651 441.891 219.861C441.681 220.07 441.397 220.188 441.1 220.188Z" fill="#263238"/>
<path d="M438.763 147.232L434.836 147.992L447.421 212.98L451.349 212.22L438.763 147.232Z" fill="#DD9E70"/>
<path d="M496.83 218.714L464.617 217.797V219.938H496.83V218.714Z" fill="#DD9E70"/>
<path d="M496.829 220.337H464.633C464.526 220.337 464.424 220.294 464.348 220.219C464.273 220.143 464.231 220.041 464.231 219.934V217.793C464.229 217.739 464.239 217.685 464.26 217.636C464.281 217.586 464.312 217.541 464.351 217.503C464.39 217.466 464.435 217.437 464.485 217.418C464.535 217.399 464.588 217.389 464.641 217.391L496.837 218.308C496.943 218.31 497.043 218.354 497.117 218.429C497.19 218.504 497.232 218.605 497.232 218.711V219.934C497.232 220.041 497.189 220.143 497.114 220.219C497.038 220.294 496.936 220.337 496.829 220.337ZM465.019 219.532H496.411V219.097L465.019 218.204V219.532Z" fill="#263238"/>
<path d="M404.16 349.627H398.912L397.785 227.539H405.279L404.16 349.627Z" fill="#555555"/>
<path d="M500.289 349.627H495.041L493.922 227.539H501.416L500.289 349.627Z" fill="#555555"/>
<path d="M509.723 220.125H390.363V228.174H509.723V220.125Z" fill="#263238"/>
<path d="M509.731 228.581H390.363C390.257 228.581 390.154 228.538 390.079 228.463C390.003 228.387 389.961 228.285 389.961 228.178V220.129C389.961 220.022 390.003 219.92 390.079 219.844C390.154 219.769 390.257 219.727 390.363 219.727H509.731C509.838 219.727 509.94 219.769 510.016 219.844C510.091 219.92 510.133 220.022 510.133 220.129V228.178C510.133 228.285 510.091 228.387 510.016 228.463C509.94 228.538 509.838 228.581 509.731 228.581ZM390.766 227.776H509.329V220.531H390.79L390.766 227.776Z" fill="#263238"/>
</g>
<defs>
<clipPath id="clip0_2535_6513">
<rect width="690" height="350" fill="white"/>
</clipPath>
</defs>
</svg>
