<svg width="690" height="350" viewBox="0 0 690 350" fill="none" xmlns="http://www.w3.org/2000/svg">
<g clip-path="url(#clip0_2042_221)">
<path fill-rule="evenodd" clip-rule="evenodd" d="M496.42 351.22C535.76 351.22 567.94 319.04 567.94 279.7C567.94 240.36 535.76 208.18 496.42 208.18C479.79 208.18 466.18 194.57 466.18 177.94C466.18 161.31 479.79 147.7 496.42 147.7H500.02C517.31 147.7 531.46 133.55 531.46 116.26C531.46 98.97 517.31 84.82 500.02 84.82H488.98C482.25 84.82 476.74 79.31 476.74 72.58C476.74 65.85 482.25 60.34 488.98 60.34H497.09C501.74 60.34 505.54 56.54 505.54 51.89C505.54 47.24 501.74 43.44 497.09 43.44H442.56C435.26 43.44 429.29 37.47 429.29 30.17C429.29 22.87 435.26 16.9 442.56 16.9H458.87C463.52 16.9 467.32 13.1 467.32 8.45C467.32 3.8 463.52 0 458.87 0H220.05C213.99 0 209.03 4.96 209.03 11.02C209.03 17.08 213.99 22.04 220.05 22.04H236.77C246.3 22.04 254.09 29.83 254.09 39.36C254.09 48.89 246.3 56.68 236.77 56.68H172.08C166.02 56.68 161.06 61.64 161.06 67.7C161.06 73.76 166.02 78.72 172.08 78.72H182.67C191.45 78.72 198.64 85.91 198.64 94.69C198.64 103.47 191.45 110.66 182.67 110.66H168.26C145.7 110.66 127.24 129.12 127.24 151.68C127.24 174.24 145.7 192.7 168.26 192.7H172.96C194.66 192.7 212.42 210.46 212.42 232.16C212.42 253.86 194.66 271.62 172.96 271.62H162.78C140.9 271.65 123 289.55 123 311.44C123 333.32 140.9 351.23 162.78 351.23C275.99 351.22 383.21 351.22 496.42 351.22ZM191.84 22.06C185.75 22.06 180.82 17.13 180.82 11.04C180.82 4.95 185.75 0.01 191.84 0.01C197.93 0.01 202.86 4.95 202.86 11.03C202.86 17.12 197.93 22.06 191.84 22.06ZM520.8 60.35C516.13 60.35 512.35 56.57 512.35 51.9C512.35 47.23 516.13 43.45 520.8 43.45C525.46 43.45 529.25 47.23 529.25 51.9C529.25 56.57 525.46 60.35 520.8 60.35Z" fill="#A3B3D8"/>
<path fill-rule="evenodd" clip-rule="evenodd" d="M356.6 51.7781C355.62 50.7981 354.27 50.1981 352.78 50.1981C351.29 50.1981 349.93 50.7981 348.96 51.7781C347.98 52.7581 347.38 54.1081 347.38 55.5981C347.38 57.0881 347.99 58.4381 348.96 59.4181C349.94 60.3981 351.29 60.9981 352.78 60.9981C354.27 60.9981 355.62 60.3881 356.6 59.4181C357.58 58.4381 358.18 57.0881 358.18 55.5981C358.19 54.1081 357.58 52.7581 356.6 51.7781ZM355.44 46.4181C356.19 46.6381 356.9 46.9381 357.56 47.3181C358.24 47.7081 358.86 48.1781 359.42 48.7181C359.53 48.8281 359.69 48.8381 359.81 48.7681L362.32 47.3181L362.33 47.3081C362.47 47.2281 362.64 47.2181 362.79 47.2581C362.94 47.2981 363.08 47.3981 363.17 47.5481L363.18 47.5681L364.95 50.6281C365.04 50.7781 365.05 50.9481 365.01 51.0981C364.97 51.2481 364.87 51.3881 364.72 51.4781L364.7 51.4881L362.21 52.9281C362.08 53.0081 362.02 53.1581 362.05 53.2981C362.14 53.6681 362.21 54.0481 362.26 54.4381C362.31 54.8181 362.33 55.2081 362.33 55.6081C362.33 56.0081 362.31 56.3881 362.26 56.7681C362.21 57.1581 362.14 57.5381 362.05 57.9081C362.01 58.0581 362.09 58.2181 362.23 58.2881L364.72 59.7281C364.87 59.8181 364.97 59.9481 365.01 60.1081C365.05 60.2681 365.03 60.4381 364.95 60.5781L363.17 63.6581C363.09 63.8081 362.95 63.9081 362.79 63.9481C362.63 63.9881 362.46 63.9681 362.32 63.8881L362.3 63.8781L359.8 62.4381C359.67 62.3681 359.51 62.3881 359.41 62.4881C358.85 63.0281 358.23 63.4981 357.55 63.8881C356.89 64.2681 356.17 64.5781 355.42 64.7981C355.28 64.8381 355.18 64.9681 355.18 65.1181V68.0081C355.18 68.1781 355.11 68.3381 355 68.4481C354.89 68.5581 354.73 68.6281 354.56 68.6281H351C350.83 68.6281 350.67 68.5581 350.56 68.4481C350.45 68.3381 350.38 68.1781 350.38 68.0081V65.1081C350.38 64.9481 350.27 64.8181 350.13 64.7881C349.38 64.5681 348.67 64.2681 348.01 63.8881C347.33 63.4981 346.71 63.0281 346.15 62.4881C346.04 62.3781 345.86 62.3681 345.74 62.4481L343.24 63.8881C343.09 63.9781 342.92 63.9881 342.77 63.9481C342.62 63.9081 342.48 63.8081 342.39 63.6581L342.38 63.6381L340.61 60.5781C340.52 60.4281 340.51 60.2581 340.55 60.1081C340.59 59.9581 340.69 59.8181 340.84 59.7281L343.35 58.2781C343.48 58.2081 343.54 58.0481 343.51 57.9081C343.42 57.5381 343.35 57.1581 343.3 56.7681C343.25 56.3881 343.23 55.9981 343.23 55.6081C343.23 55.2081 343.25 54.8181 343.3 54.4381C343.35 54.0481 343.42 53.6681 343.51 53.2981C343.55 53.1481 343.47 52.9881 343.34 52.9181L340.85 51.4781C340.7 51.3981 340.6 51.2581 340.56 51.0981C340.52 50.9481 340.53 50.7781 340.62 50.6281L340.63 50.6081L342.4 47.5481C342.49 47.3981 342.63 47.2981 342.78 47.2581C342.93 47.2181 343.1 47.2381 343.25 47.3181L345.76 48.7681C345.89 48.8481 346.06 48.8181 346.16 48.7081C346.72 48.1681 347.34 47.7081 348.01 47.3181C348.67 46.9381 349.39 46.6281 350.14 46.4181C350.29 46.3781 350.38 46.2381 350.38 46.0981V43.1981C350.38 43.0281 350.45 42.8681 350.56 42.7581C350.67 42.6481 350.83 42.5781 351 42.5781H354.56C354.73 42.5781 354.89 42.6481 355 42.7581C355.11 42.8681 355.18 43.0281 355.18 43.1981V46.0981C355.18 46.2581 355.29 46.3881 355.44 46.4181Z" fill="#EBF2F8"/>
<path fill-rule="evenodd" clip-rule="evenodd" d="M314.87 55.0169C313.79 53.9369 312.5 53.0769 311.07 52.4769C309.69 51.9069 308.18 51.5869 306.6 51.5869C305.02 51.5869 303.51 51.9069 302.13 52.4769C300.69 53.0669 299.4 53.9369 298.33 55.0169C297.25 56.0969 296.39 57.3869 295.79 58.8169C295.22 60.1969 294.9 61.7069 294.9 63.2869C294.9 64.8669 295.21 66.3769 295.79 67.7569C296.38 69.1969 297.25 70.4769 298.33 71.5569C299.41 72.6369 300.69 73.5069 302.13 74.0969C303.51 74.6669 305.02 74.9869 306.6 74.9869C308.18 74.9869 309.69 74.6669 311.07 74.0969C312.51 73.5069 313.8 72.6369 314.87 71.5569C315.95 70.4769 316.81 69.1969 317.41 67.7569C317.98 66.3769 318.3 64.8669 318.3 63.2869C318.3 61.7069 317.98 60.1969 317.41 58.8169C316.81 57.3869 315.94 56.0969 314.87 55.0169ZM310.66 53.4869C311.96 54.0269 313.12 54.8169 314.11 55.7969C315.09 56.7769 315.88 57.9469 316.42 59.2369C316.94 60.4869 317.22 61.8569 317.22 63.2969C317.22 64.7369 316.93 66.1069 316.42 67.3569C315.88 68.6469 315.09 69.8169 314.11 70.7969C313.13 71.7769 311.96 72.5669 310.66 73.1069C309.41 73.6269 308.04 73.9069 306.6 73.9069C305.16 73.9069 303.79 73.6169 302.54 73.1069C301.24 72.5669 300.07 71.7769 299.09 70.7969C298.11 69.8169 297.32 68.6469 296.78 67.3569C296.26 66.1069 295.98 64.7369 295.98 63.2969C295.98 61.8569 296.26 60.4869 296.78 59.2369C297.32 57.9469 298.11 56.7769 299.09 55.7969C300.07 54.8169 301.24 54.0269 302.53 53.4869C303.78 52.9669 305.15 52.6869 306.59 52.6869C308.04 52.6769 309.41 52.9669 310.66 53.4869ZM311.95 44.8669C312.68 45.0769 313.4 45.3369 314.11 45.6369C314.83 45.9369 315.52 46.2869 316.18 46.6669C316.86 47.0569 317.51 47.4869 318.13 47.9569C318.76 48.4269 319.35 48.9369 319.91 49.4769C320.11 49.6669 320.36 49.7769 320.61 49.8069C320.87 49.8369 321.14 49.7869 321.37 49.6469C323.09 48.6569 324.9 47.6769 326.58 46.6369C326.66 46.5969 326.75 46.5669 326.83 46.5569C326.93 46.5469 327.02 46.5569 327.12 46.5769C327.22 46.6069 327.31 46.6469 327.38 46.7069C327.45 46.7669 327.52 46.8369 327.57 46.9269C328.82 48.8269 330.08 51.2669 331.24 53.2769C331.29 53.3669 331.32 53.4569 331.33 53.5469C331.34 53.6469 331.33 53.7469 331.31 53.8469C331.28 53.9469 331.24 54.0269 331.18 54.1069C331.12 54.1869 331.05 54.2469 330.96 54.2969C329.41 55.3169 327.42 56.3369 325.78 57.2869C325.54 57.4269 325.36 57.6269 325.26 57.8669C325.23 57.9469 325.2 58.0369 325.18 58.1269L325.07 58.1669L325.19 58.6469C325.28 59.0269 325.37 59.4069 325.44 59.7869C325.51 60.1569 325.57 60.5369 325.61 60.9369C325.66 61.3269 325.69 61.7169 325.72 62.0969C325.74 62.4769 325.75 62.8669 325.75 63.2769C325.75 63.6869 325.74 64.0769 325.72 64.4569C325.7 64.8469 325.66 65.2269 325.61 65.6269C325.56 66.0269 325.5 66.4169 325.44 66.7769C325.37 67.1569 325.29 67.5369 325.19 67.9169C325.12 68.1969 325.15 68.4869 325.27 68.7269C325.38 68.9669 325.57 69.1769 325.82 69.2969L330.4 71.9469L330.94 72.2569C331.03 72.3069 331.1 72.3769 331.16 72.4469C331.22 72.5269 331.26 72.6169 331.29 72.7069C331.32 72.8069 331.32 72.9069 331.31 73.0069C331.3 73.0969 331.27 73.1869 331.22 73.2769L327.83 79.1569L327.56 79.6369C327.51 79.7269 327.44 79.7969 327.37 79.8569C327.29 79.9169 327.2 79.9569 327.11 79.9869C327.01 80.0169 326.91 80.0169 326.82 80.0069C326.73 79.9969 326.64 79.9669 326.55 79.9169C324.91 78.8869 323.05 77.8969 321.36 76.9269C321.12 76.7869 320.85 76.7369 320.6 76.7669C320.34 76.7969 320.09 76.9169 319.9 77.0969C319.34 77.6369 318.74 78.1469 318.12 78.6169C317.5 79.0869 316.85 79.5169 316.17 79.9069C315.5 80.2969 314.8 80.6469 314.08 80.9469C313.37 81.2469 312.64 81.5069 311.89 81.7269C311.63 81.8069 311.4 81.9569 311.25 82.1669C311.09 82.3769 311 82.6369 311 82.9069V88.8869C311 88.9869 310.98 89.0869 310.94 89.1669C310.9 89.2569 310.85 89.3369 310.78 89.4069C310.71 89.4769 310.63 89.5369 310.54 89.5669C310.45 89.6069 310.36 89.6269 310.26 89.6269H302.92C302.82 89.6269 302.72 89.6069 302.64 89.5669C302.55 89.5269 302.47 89.4769 302.4 89.4069C302.33 89.3369 302.27 89.2569 302.24 89.1669C302.2 89.0769 302.18 88.9869 302.18 88.8869V82.9069C302.18 82.6269 302.08 82.3569 301.91 82.1469C301.74 81.9369 301.5 81.7769 301.23 81.7069C300.5 81.4969 299.78 81.2369 299.07 80.9369C298.36 80.6369 297.66 80.2869 297 79.8969C296.33 79.5069 295.67 79.0769 295.05 78.6069C294.42 78.1369 293.83 77.6269 293.27 77.0869C293.06 76.8869 292.8 76.7769 292.53 76.7469C292.26 76.7169 291.98 76.7869 291.74 76.9469L286.62 79.9069C286.53 79.9569 286.44 79.9869 286.35 79.9969C286.25 80.0069 286.15 80.0069 286.05 79.9769C285.96 79.9469 285.86 79.9069 285.79 79.8469C285.71 79.7869 285.65 79.7169 285.6 79.6269C284.38 77.5069 283.15 75.3969 281.93 73.2769C281.88 73.1869 281.85 73.0969 281.84 73.0069C281.83 72.9069 281.84 72.8069 281.86 72.7169C281.89 72.6169 281.93 72.5269 281.99 72.4569C282.05 72.3769 282.12 72.3169 282.2 72.2669L287.38 69.2769C287.62 69.1369 287.8 68.9369 287.9 68.6969C287.93 68.6369 287.95 68.5669 287.96 68.4969L288.1 68.4669L287.96 67.9169C287.87 67.5369 287.78 67.1569 287.72 66.7769C287.65 66.4069 287.59 66.0269 287.54 65.6269C287.49 65.2369 287.46 64.8469 287.43 64.4569C287.41 64.0869 287.4 63.6869 287.4 63.2769C287.4 62.8669 287.41 62.4769 287.43 62.1069C287.45 61.7269 287.49 61.3369 287.54 60.9469C287.59 60.5369 287.65 60.1569 287.72 59.7869C287.79 59.4069 287.87 59.0369 287.96 58.6569C288.03 58.3769 288 58.0869 287.88 57.8469C287.77 57.6069 287.57 57.4069 287.33 57.2769L282.2 54.3169C282.11 54.2669 282.04 54.2069 281.99 54.1269C281.93 54.0469 281.89 53.9569 281.86 53.8669C281.83 53.7669 281.83 53.6669 281.84 53.5769C281.85 53.4869 281.88 53.3869 281.93 53.3069C283.18 51.4469 284.44 48.9569 285.6 46.9569C285.65 46.8769 285.72 46.7969 285.79 46.7369C285.87 46.6769 285.96 46.6369 286.05 46.6069C286.15 46.5769 286.25 46.5769 286.35 46.5869C286.44 46.5969 286.53 46.6269 286.62 46.6769L291.8 49.6669C292.04 49.8069 292.32 49.8569 292.58 49.8169C292.84 49.7769 293.09 49.6669 293.28 49.4669C293.84 48.9269 294.44 48.4169 295.05 47.9569C295.67 47.4969 296.32 47.0669 296.99 46.6669C297.66 46.2769 298.35 45.9369 299.07 45.6269C299.78 45.3269 300.51 45.0669 301.26 44.8469C301.53 44.7669 301.75 44.6169 301.9 44.4069C302.06 44.1969 302.15 43.9369 302.15 43.6669V37.6869C302.15 37.5869 302.17 37.4869 302.2 37.4069C302.24 37.3169 302.29 37.2369 302.37 37.1669C302.44 37.0969 302.52 37.0369 302.61 37.0069C302.7 36.9669 302.79 36.9469 302.89 36.9469H310.23C310.33 36.9469 310.43 36.9669 310.51 37.0069C310.6 37.0469 310.68 37.0969 310.75 37.1669C310.88 37.2969 310.97 37.4869 310.97 37.6869V43.6669C310.97 43.9569 311.07 44.2169 311.23 44.4269C311.44 44.6469 311.68 44.8069 311.95 44.8669ZM314.53 44.6469C315.28 44.9669 316.02 45.3369 316.72 45.7369C317.44 46.1469 318.13 46.6069 318.78 47.0969C319.44 47.5969 320.07 48.1269 320.66 48.7069C320.68 48.7269 320.71 48.7469 320.74 48.7469C320.77 48.7469 320.8 48.7469 320.83 48.7269C322.57 47.7169 324.32 46.7169 326.06 45.7069C326.27 45.5969 326.49 45.5269 326.71 45.4969C326.94 45.4669 327.17 45.4869 327.4 45.5469C327.63 45.6069 327.85 45.7169 328.04 45.8569C328.23 45.9969 328.39 46.1769 328.51 46.3869C329.77 48.4369 330.97 50.6469 332.18 52.7369C332.3 52.9469 332.38 53.1769 332.41 53.4069C332.44 53.6469 332.42 53.8869 332.36 54.1169C332.3 54.3469 332.19 54.5669 332.04 54.7569C331.9 54.9469 331.72 55.1069 331.51 55.2269C329.84 56.2569 328.04 57.2369 326.33 58.2169C326.3 58.2369 326.28 58.2569 326.27 58.2869C326.26 58.3169 326.25 58.3469 326.26 58.3769L326.38 58.8569H326.37C326.42 59.0869 326.47 59.3269 326.52 59.5769C326.6 59.9869 326.66 60.3969 326.71 60.7969C326.76 61.1969 326.8 61.6069 326.82 62.0269C326.85 62.4469 326.86 62.8669 326.86 63.2669C326.86 63.6669 326.85 64.0869 326.82 64.5069C326.79 64.9269 326.76 65.3369 326.71 65.7369C326.66 66.1369 326.6 66.5469 326.52 66.9569C326.44 67.3669 326.36 67.7669 326.26 68.1569C326.25 68.1869 326.26 68.2269 326.27 68.2469C326.28 68.2769 326.31 68.3069 326.33 68.3169C328.23 69.3369 330.17 70.5269 332.05 71.6169L331.98 71.6969L332.04 71.7669C332.19 71.9569 332.29 72.1769 332.36 72.4069C332.42 72.6369 332.44 72.8769 332.41 73.1169C332.38 73.3469 332.31 73.5769 332.18 73.7969L328.24 80.6269L328.17 80.5869C328.13 80.6269 328.09 80.6569 328.05 80.6869C327.86 80.8369 327.64 80.9369 327.41 80.9969C327.18 81.0569 326.94 81.0769 326.7 81.0469C326.47 81.0169 326.25 80.9469 326.04 80.8269C324.32 79.9069 322.54 78.8069 320.83 77.8169C320.81 77.8069 320.77 77.7969 320.74 77.7969C320.71 77.7969 320.68 77.8169 320.66 77.8369C320.07 78.4069 319.44 78.9469 318.78 79.4369C318.13 79.9269 317.44 80.3869 316.72 80.7969C316.01 81.2069 315.27 81.5769 314.52 81.8969C313.77 82.2169 312.99 82.4969 312.2 82.7169C312.17 82.7269 312.14 82.7469 312.12 82.7669C312.1 82.7969 312.09 82.8269 312.09 82.8569V88.8369C312.09 89.0769 312.04 89.3169 311.95 89.5369C311.86 89.7669 311.72 89.9669 311.55 90.1269C311.38 90.2969 311.18 90.4269 310.96 90.5269C310.74 90.6169 310.51 90.6669 310.26 90.6669H302.92C302.68 90.6669 302.44 90.6169 302.22 90.5269C302 90.4369 301.8 90.2969 301.63 90.1269C301.46 89.9569 301.33 89.7569 301.23 89.5369C301.14 89.3169 301.09 89.0869 301.09 88.8369V82.8569C301.09 82.8169 301.08 82.7869 301.06 82.7669C301.04 82.7469 301.01 82.7269 300.98 82.7169L300.96 82.7069C300.16 82.4769 299.39 82.2069 298.65 81.8869C297.89 81.5669 297.16 81.1969 296.46 80.7969C295.74 80.3869 295.05 79.9269 294.4 79.4369C293.74 78.9369 293.11 78.4069 292.52 77.8269C292.5 77.8069 292.46 77.7869 292.43 77.7869C292.4 77.7869 292.37 77.7969 292.34 77.8069L287.16 80.7969C286.95 80.9169 286.72 80.9969 286.49 81.0269C286.25 81.0569 286.01 81.0369 285.78 80.9769C285.55 80.9169 285.33 80.8069 285.14 80.6669C284.96 80.5269 284.8 80.3569 284.68 80.1469C283.32 77.9569 282.03 75.5669 280.74 73.3169L280.81 73.2769C280.8 73.2169 280.79 73.1669 280.78 73.1069C280.75 72.8669 280.77 72.6269 280.83 72.3969C280.89 72.1669 281 71.9469 281.15 71.7569C281.29 71.5669 281.47 71.4069 281.68 71.2869L286.86 68.2969C286.89 68.2869 286.91 68.2569 286.92 68.2269C286.93 68.1969 286.94 68.1669 286.93 68.1369L286.8 67.5869H286.81C286.76 67.3769 286.72 67.1569 286.68 66.9369C286.6 66.5269 286.54 66.1169 286.49 65.7169C286.44 65.3169 286.4 64.9069 286.38 64.4869C286.35 64.0669 286.34 63.6469 286.34 63.2469C286.34 62.8469 286.35 62.4269 286.38 62.0069C286.4 61.5869 286.44 61.1769 286.49 60.7769C286.54 60.3769 286.6 59.9769 286.68 59.5569C286.76 59.1469 286.84 58.7469 286.94 58.3569C286.95 58.3269 286.94 58.2969 286.93 58.2569C286.92 58.2269 286.89 58.2069 286.86 58.1869L281.69 55.1969C281.48 55.0769 281.3 54.9169 281.16 54.7269C281.01 54.5269 280.91 54.3169 280.85 54.0869C280.79 53.8569 280.77 53.6169 280.8 53.3769C280.83 53.1469 280.9 52.9269 281.02 52.7169C282.25 50.4369 283.67 48.1269 284.97 45.8669L285.04 45.9069C285.08 45.8669 285.12 45.8369 285.16 45.8069C285.35 45.6569 285.57 45.5569 285.8 45.4969C286.03 45.4369 286.27 45.4169 286.51 45.4469C286.74 45.4769 286.97 45.5469 287.18 45.6669L287.56 45.8869L292.36 48.6569C292.39 48.6769 292.42 48.6769 292.45 48.6769C292.48 48.6769 292.51 48.6569 292.53 48.6369L292.54 48.6269C293.13 48.0569 293.75 47.5269 294.41 47.0269C295.07 46.5269 295.75 46.0769 296.46 45.6669C297.17 45.2569 297.9 44.8869 298.66 44.5669C299.41 44.2469 300.19 43.9669 300.98 43.7469C301.01 43.7369 301.04 43.7169 301.06 43.6969C301.08 43.6669 301.09 43.6369 301.09 43.6069V37.6269C301.09 37.3869 301.14 37.1469 301.23 36.9269C301.32 36.6969 301.46 36.4969 301.63 36.3369C301.8 36.1669 302 36.0369 302.22 35.9369C302.44 35.8469 302.67 35.7969 302.92 35.7969H310.26C310.5 35.7969 310.74 35.8469 310.96 35.9369C311.18 36.0269 311.38 36.1669 311.55 36.3369C311.88 36.6669 312.09 37.1269 312.09 37.6269V43.6069C312.09 43.6369 312.1 43.6769 312.12 43.6969C312.14 43.7169 312.17 43.7369 312.2 43.7469L312.22 43.7569C313.02 44.0569 313.79 44.3269 314.53 44.6469Z" fill="#EBF2F8"/>
<path fill-rule="evenodd" clip-rule="evenodd" d="M460.41 311.809L463.18 315.279H475.78L478.55 311.809C488.52 284.939 450.45 284.939 460.41 311.809Z" fill="#4BB89F"/>
<path fill-rule="evenodd" clip-rule="evenodd" d="M464 311.809L465.68 315.279H473.3L474.97 311.809C480.98 284.939 457.98 284.939 464 311.809Z" fill="#7FC8B8"/>
<path fill-rule="evenodd" clip-rule="evenodd" d="M480.29 309.578H458.67C457.92 309.578 457.31 310.188 457.31 310.938V317.118C457.31 317.868 457.92 318.478 458.67 318.478H480.29C481.04 318.478 481.65 317.868 481.65 317.118V310.938C481.65 310.188 481.04 309.578 480.29 309.578Z" fill="#A36E4E"/>
<path fill-rule="evenodd" clip-rule="evenodd" d="M476.69 314.602H462.27L458.51 318.472L461.58 331.972H469.48H477.38L480.46 318.472L476.69 314.602Z" fill="#A36E4E"/>
<path fill-rule="evenodd" clip-rule="evenodd" d="M458.51 318.469L459.14 321.129H479.83L480.46 318.469H458.51Z" fill="#794C34"/>
<path fill-rule="evenodd" clip-rule="evenodd" d="M476.4 295.569L475.62 297.359L478.2 302.259L480.12 302.629C492.6 301.009 484.82 286.199 476.4 295.569Z" fill="#4BB89F"/>
<path fill-rule="evenodd" clip-rule="evenodd" d="M481.67 300.297C488.11 297.337 485.42 292.147 479.35 295.697C474.21 298.707 476.31 302.767 481.67 300.297Z" fill="#7FC8B8"/>
<path fill-rule="evenodd" clip-rule="evenodd" d="M463.56 295.167L463.81 296.617L461.03 299.737L459.56 299.657C450.71 296.217 459.09 286.787 463.56 295.167Z" fill="#4BB89F"/>
<path fill-rule="evenodd" clip-rule="evenodd" d="M458.84 297.68C454.66 294.34 457.57 291.04 461.37 294.74C464.59 297.87 462.31 300.46 458.84 297.68Z" fill="#7FC8B8"/>
<path fill-rule="evenodd" clip-rule="evenodd" d="M477.62 109.711C471.98 109.711 467.17 113.261 465.3 118.251C464.83 118.141 464.33 118.091 463.82 118.091C460.95 118.091 458.49 119.871 457.49 122.391C456.79 122.161 456.05 122.031 455.28 122.031C451.42 122.031 448.29 125.161 448.29 129.021C448.29 132.881 451.42 136.011 455.28 136.011H477.34H477.47H477.62H504.39C509.08 136.011 512.88 132.211 512.88 127.521C512.88 122.831 509.08 119.041 504.39 119.041C503.45 119.041 502.55 119.191 501.7 119.471C500.49 116.411 497.51 114.251 494.02 114.251C492.08 114.251 490.29 114.921 488.88 116.041C486.58 112.251 482.4 109.711 477.62 109.711Z" fill="#DEE7F4"/>
<path fill-rule="evenodd" clip-rule="evenodd" d="M459.58 102.117C468.94 102.117 476.53 109.707 476.53 119.067C476.53 128.427 468.94 136.017 459.58 136.017H425.1C419.06 136.017 414.17 131.127 414.17 125.087C414.17 119.047 419.07 114.157 425.1 114.157C426.31 114.157 427.47 114.357 428.56 114.717C430.12 110.777 433.96 107.997 438.45 107.997C440.95 107.997 443.26 108.857 445.07 110.307C448.04 105.397 453.43 102.117 459.58 102.117Z" fill="white"/>
<path fill-rule="evenodd" clip-rule="evenodd" d="M426.84 140.164H429.52C430.01 140.164 430.41 140.564 430.41 141.054V143.734C430.41 144.224 430.01 144.624 429.52 144.624H426.84C426.35 144.624 425.95 144.224 425.95 143.734V141.054C425.95 140.564 426.35 140.164 426.84 140.164Z" fill="#DEE7F4"/>
<path fill-rule="evenodd" clip-rule="evenodd" d="M436.01 140.164H438.69C439.18 140.164 439.58 140.564 439.58 141.054V143.734C439.58 144.224 439.18 144.624 438.69 144.624H436.01C435.52 144.624 435.12 144.224 435.12 143.734V141.054C435.11 140.564 435.52 140.164 436.01 140.164Z" fill="#DEE7F4"/>
<path fill-rule="evenodd" clip-rule="evenodd" d="M445.17 140.164H447.85C448.34 140.164 448.74 140.564 448.74 141.054V143.734C448.74 144.224 448.34 144.624 447.85 144.624H445.17C444.68 144.624 444.28 144.224 444.28 143.734V141.054C444.27 140.564 444.68 140.164 445.17 140.164Z" fill="#DEE7F4"/>
<path fill-rule="evenodd" clip-rule="evenodd" d="M454.33 140.164H457.01C457.5 140.164 457.9 140.564 457.9 141.054V143.734C457.9 144.224 457.5 144.624 457.01 144.624H454.33C453.84 144.624 453.44 144.224 453.44 143.734V141.054C453.44 140.564 453.84 140.164 454.33 140.164Z" fill="#DEE7F4"/>
<path fill-rule="evenodd" clip-rule="evenodd" d="M467.33 241.922H466.04C465.6 241.922 465.25 242.282 465.25 242.712C465.25 243.142 465.61 243.502 466.04 243.502H467.33C467.77 243.502 468.12 243.142 468.12 242.712C468.12 242.282 467.77 241.922 467.33 241.922Z" fill="white"/>
<path fill-rule="evenodd" clip-rule="evenodd" d="M486.77 254.172H495.1C495.53 254.172 495.89 254.532 495.89 254.962C495.89 255.402 495.53 255.752 495.1 255.752H486.77C486.34 255.752 485.98 255.392 485.98 254.962C485.98 254.522 486.33 254.172 486.77 254.172Z" fill="white"/>
<path fill-rule="evenodd" clip-rule="evenodd" d="M479.07 259.828H472.13C471.7 259.828 471.34 260.188 471.34 260.618C471.34 261.058 471.7 261.408 472.13 261.408H479.07C479.51 261.408 479.86 261.048 479.86 260.618C479.86 260.188 479.51 259.828 479.07 259.828Z" fill="white"/>
<path fill-rule="evenodd" clip-rule="evenodd" d="M473.98 270.5H472.13C471.7 270.5 471.34 270.86 471.34 271.29C471.34 271.72 471.7 272.08 472.13 272.08H473.98C474.41 272.08 474.77 271.72 474.77 271.29C474.77 270.86 474.41 270.5 473.98 270.5Z" fill="white"/>
<path fill-rule="evenodd" clip-rule="evenodd" d="M534.38 281.828H513.74C513.31 281.828 512.95 282.188 512.95 282.618C512.95 283.058 513.31 283.408 513.74 283.408H534.38C534.82 283.408 535.17 283.048 535.17 282.618C535.18 282.188 534.82 281.828 534.38 281.828Z" fill="white"/>
<path fill-rule="evenodd" clip-rule="evenodd" d="M520.85 287.5H529.18C529.62 287.5 529.97 287.86 529.97 288.29C529.97 288.73 529.61 289.08 529.18 289.08H520.85C520.41 289.08 520.06 288.72 520.06 288.29C520.06 287.86 520.42 287.5 520.85 287.5Z" fill="white"/>
<path fill-rule="evenodd" clip-rule="evenodd" d="M513.16 293.172H506.22C505.78 293.172 505.43 293.532 505.43 293.962C505.43 294.402 505.79 294.752 506.22 294.752H513.16C513.6 294.752 513.95 294.392 513.95 293.962C513.95 293.522 513.59 293.172 513.16 293.172Z" fill="white"/>
<path fill-rule="evenodd" clip-rule="evenodd" d="M508.06 303.844H506.22C505.78 303.844 505.43 304.204 505.43 304.634C505.43 305.064 505.79 305.424 506.22 305.424H508.06C508.49 305.424 508.85 305.064 508.85 304.634C508.86 304.194 508.5 303.844 508.06 303.844Z" fill="white"/>
<path fill-rule="evenodd" clip-rule="evenodd" d="M546.4 315.164H525.76C525.33 315.164 524.97 315.524 524.97 315.954C524.97 316.384 525.33 316.744 525.76 316.744H546.4C546.84 316.744 547.19 316.384 547.19 315.954C547.19 315.524 546.84 315.164 546.4 315.164Z" fill="white"/>
<path fill-rule="evenodd" clip-rule="evenodd" d="M452.76 241.922H442.01C441.57 241.922 441.22 242.282 441.22 242.712C441.22 243.142 441.58 243.502 442.01 243.502H452.76C453.2 243.502 453.55 243.142 453.55 242.712C453.55 242.282 453.19 241.922 452.76 241.922Z" fill="#7385A1"/>
<path fill-rule="evenodd" clip-rule="evenodd" d="M498.8 247.25H477.51C477.08 247.25 476.72 247.61 476.72 248.04C476.72 248.48 477.08 248.83 477.51 248.83H498.8C499.24 248.83 499.59 248.47 499.59 248.04C499.6 247.61 499.24 247.25 498.8 247.25Z" fill="#7385A1"/>
<path fill-rule="evenodd" clip-rule="evenodd" d="M446.98 247.25H470.97C471.41 247.25 471.76 247.61 471.76 248.04C471.76 248.48 471.4 248.83 470.97 248.83H446.98C446.55 248.83 446.19 248.47 446.19 248.04C446.19 247.61 446.55 247.25 446.98 247.25Z" fill="#7385A1"/>
<path fill-rule="evenodd" clip-rule="evenodd" d="M461.96 241.922H441.67C441.23 241.922 440.88 242.282 440.88 242.712C440.88 243.142 441.24 243.502 441.67 243.502H461.96C462.4 243.502 462.75 243.142 462.75 242.712C462.75 242.282 462.39 241.922 461.96 241.922Z" fill="#7385A1"/>
<path fill-rule="evenodd" clip-rule="evenodd" d="M529.26 254.172H498.62C498.19 254.172 497.83 254.532 497.83 254.962C497.83 255.402 498.19 255.752 498.62 255.752H529.26C529.69 255.752 530.05 255.392 530.05 254.962C530.05 254.522 529.7 254.172 529.26 254.172Z" fill="#7385A1"/>
<path fill-rule="evenodd" clip-rule="evenodd" d="M483.61 254.172H452.97C452.54 254.172 452.18 254.532 452.18 254.962C452.18 255.402 452.54 255.752 452.97 255.752H483.61C484.04 255.752 484.4 255.392 484.4 254.962C484.4 254.522 484.04 254.172 483.61 254.172Z" fill="#7385A1"/>
<path fill-rule="evenodd" clip-rule="evenodd" d="M467.77 259.828H456.85C456.41 259.828 456.06 260.188 456.06 260.618C456.06 261.058 456.42 261.408 456.85 261.408H467.77C468.21 261.408 468.56 261.048 468.56 260.618C468.56 260.188 468.21 259.828 467.77 259.828Z" fill="#7385A1"/>
<path fill-rule="evenodd" clip-rule="evenodd" d="M531.48 259.828H482.96C482.53 259.828 482.17 260.188 482.17 260.618C482.17 261.058 482.53 261.408 482.96 261.408H531.48C531.92 261.408 532.27 261.048 532.27 260.618C532.28 260.188 531.92 259.828 531.48 259.828Z" fill="#7385A1"/>
<path fill-rule="evenodd" clip-rule="evenodd" d="M505.37 265.234H456.85C456.41 265.234 456.06 265.594 456.06 266.024C456.06 266.454 456.42 266.814 456.85 266.814H505.37C505.8 266.814 506.16 266.454 506.16 266.024C506.16 265.594 505.81 265.234 505.37 265.234Z" fill="#7385A1"/>
<path fill-rule="evenodd" clip-rule="evenodd" d="M467.77 270.5H456.85C456.41 270.5 456.06 270.86 456.06 271.29C456.06 271.72 456.42 272.08 456.85 272.08H467.77C468.21 272.08 468.56 271.72 468.56 271.29C468.56 270.86 468.21 270.5 467.77 270.5Z" fill="#7385A1"/>
<path fill-rule="evenodd" clip-rule="evenodd" d="M512.32 270.5H478.16C477.73 270.5 477.37 270.86 477.37 271.29C477.37 271.72 477.73 272.08 478.16 272.08H512.32C512.76 272.08 513.11 271.72 513.11 271.29C513.11 270.86 512.75 270.5 512.32 270.5Z" fill="#7385A1"/>
<path fill-rule="evenodd" clip-rule="evenodd" d="M520.16 276.172H466.46C466.03 276.172 465.67 276.532 465.67 276.962C465.67 277.392 466.03 277.752 466.46 277.752H520.16C520.6 277.752 520.95 277.392 520.95 276.962C520.95 276.522 520.59 276.172 520.16 276.172Z" fill="#7385A1"/>
<path fill-rule="evenodd" clip-rule="evenodd" d="M508.64 281.828H473.74C473.31 281.828 472.95 282.188 472.95 282.618C472.95 283.058 473.31 283.408 473.74 283.408H508.64C509.07 283.408 509.43 283.048 509.43 282.618C509.43 282.188 509.08 281.828 508.64 281.828Z" fill="#7385A1"/>
<path fill-rule="evenodd" clip-rule="evenodd" d="M563.35 287.5H532.71C532.27 287.5 531.92 287.86 531.92 288.29C531.92 288.73 532.28 289.08 532.71 289.08H563.35C563.78 289.08 564.14 288.72 564.14 288.29C564.14 287.86 563.78 287.5 563.35 287.5Z" fill="#7385A1"/>
<path fill-rule="evenodd" clip-rule="evenodd" d="M517.7 287.5H487.06C486.62 287.5 486.27 287.86 486.27 288.29C486.27 288.73 486.63 289.08 487.06 289.08H517.7C518.13 289.08 518.49 288.72 518.49 288.29C518.49 287.86 518.13 287.5 517.7 287.5Z" fill="#7385A1"/>
<path fill-rule="evenodd" clip-rule="evenodd" d="M501.86 293.172H490.94C490.5 293.172 490.15 293.532 490.15 293.962C490.15 294.402 490.51 294.752 490.94 294.752H501.86C502.3 294.752 502.65 294.392 502.65 293.962C502.65 293.522 502.29 293.172 501.86 293.172Z" fill="#7385A1"/>
<path fill-rule="evenodd" clip-rule="evenodd" d="M565.57 293.172H517.05C516.61 293.172 516.26 293.532 516.26 293.962C516.26 294.402 516.62 294.752 517.05 294.752H565.57C566 294.752 566.36 294.392 566.36 293.962C566.36 293.522 566.01 293.172 565.57 293.172Z" fill="#7385A1"/>
<path fill-rule="evenodd" clip-rule="evenodd" d="M539.46 298.57H490.94C490.5 298.57 490.15 298.93 490.15 299.36C490.15 299.8 490.51 300.15 490.94 300.15H539.46C539.89 300.15 540.25 299.79 540.25 299.36C540.25 298.92 539.89 298.57 539.46 298.57Z" fill="#7385A1"/>
<path fill-rule="evenodd" clip-rule="evenodd" d="M501.86 303.844H490.94C490.5 303.844 490.15 304.204 490.15 304.634C490.15 305.064 490.51 305.424 490.94 305.424H501.86C502.3 305.424 502.65 305.064 502.65 304.634C502.65 304.194 502.29 303.844 501.86 303.844Z" fill="#7385A1"/>
<path fill-rule="evenodd" clip-rule="evenodd" d="M546.4 303.844H512.23C511.8 303.844 511.44 304.204 511.44 304.634C511.44 305.064 511.8 305.424 512.23 305.424H546.4C546.84 305.424 547.19 305.064 547.19 304.634C547.19 304.194 546.84 303.844 546.4 303.844Z" fill="#7385A1"/>
<path fill-rule="evenodd" clip-rule="evenodd" d="M539.46 309.5H485.76C485.33 309.5 484.97 309.86 484.97 310.29C484.97 310.72 485.33 311.08 485.76 311.08H539.46C539.89 311.08 540.25 310.72 540.25 310.29C540.25 309.86 539.89 309.5 539.46 309.5Z" fill="#7385A1"/>
<path fill-rule="evenodd" clip-rule="evenodd" d="M520.66 315.164H485.76C485.33 315.164 484.97 315.524 484.97 315.954C484.97 316.384 485.33 316.744 485.76 316.744H520.66C521.1 316.744 521.45 316.384 521.45 315.954C521.45 315.524 521.09 315.164 520.66 315.164Z" fill="#7385A1"/>
<path fill-rule="evenodd" clip-rule="evenodd" d="M173.95 167.375L165.98 163.855V162.705L173.95 158.725V160.655L168.45 163.205L173.95 165.465V167.375ZM176.87 165.115V164.525C176.87 164.015 176.98 163.565 177.2 163.185C177.42 162.805 177.82 162.405 178.4 161.975C178.96 161.575 179.33 161.245 179.51 160.995C179.69 160.745 179.78 160.465 179.78 160.145C179.78 159.795 179.65 159.535 179.39 159.355C179.13 159.175 178.78 159.085 178.32 159.085C177.52 159.085 176.6 159.345 175.57 159.875L174.7 158.125C175.89 157.455 177.16 157.125 178.49 157.125C179.59 157.125 180.47 157.395 181.12 157.925C181.77 158.455 182.09 159.165 182.09 160.045C182.09 160.635 181.96 161.145 181.69 161.565C181.42 161.995 180.91 162.475 180.16 163.005C179.65 163.385 179.32 163.675 179.19 163.875C179.05 164.075 178.99 164.335 178.99 164.655V165.135H176.87V165.115ZM176.62 167.855C176.62 167.405 176.74 167.065 176.98 166.835C177.22 166.605 177.57 166.485 178.03 166.485C178.48 166.485 178.82 166.605 179.06 166.835C179.3 167.075 179.42 167.405 179.42 167.845C179.42 168.265 179.3 168.605 179.05 168.845C178.81 169.095 178.46 169.205 178.02 169.205C177.57 169.205 177.22 169.085 176.98 168.845C176.74 168.625 176.62 168.295 176.62 167.855ZM186.47 162.795H187.29C188.06 162.795 188.63 162.645 189.01 162.335C189.39 162.035 189.58 161.595 189.58 161.015C189.58 160.435 189.42 160.005 189.1 159.725C188.78 159.445 188.28 159.305 187.6 159.305H186.47V162.795ZM192.09 160.925C192.09 162.185 191.69 163.155 190.91 163.825C190.12 164.495 189 164.825 187.54 164.825H186.47V169.005H183.98V157.265H187.73C189.16 157.265 190.24 157.575 190.98 158.185C191.72 158.795 192.09 159.715 192.09 160.925ZM203.92 169.005H201.44V163.945H196.79V169.005H194.3V157.265H196.79V161.865H201.44V157.265H203.92V169.005ZM209.38 162.795H210.2C210.97 162.795 211.54 162.645 211.92 162.335C212.3 162.035 212.49 161.595 212.49 161.015C212.49 160.435 212.33 160.005 212.01 159.725C211.69 159.445 211.19 159.305 210.51 159.305H209.38V162.795ZM215 160.925C215 162.185 214.6 163.155 213.82 163.825C213.03 164.495 211.91 164.825 210.45 164.825H209.38V169.005H206.89V157.265H210.64C212.06 157.265 213.15 157.575 213.89 158.185C214.63 158.795 215 159.715 215 160.925ZM217.95 165.115V164.525C217.95 164.015 218.06 163.565 218.28 163.185C218.5 162.805 218.9 162.405 219.48 161.975C220.04 161.575 220.41 161.245 220.59 160.995C220.77 160.745 220.86 160.465 220.86 160.145C220.86 159.795 220.73 159.535 220.47 159.355C220.21 159.175 219.86 159.085 219.39 159.085C218.59 159.085 217.67 159.345 216.64 159.875L215.76 158.125C216.95 157.455 218.22 157.125 219.56 157.125C220.66 157.125 221.54 157.395 222.19 157.925C222.84 158.455 223.16 159.165 223.16 160.045C223.16 160.635 223.03 161.145 222.76 161.565C222.49 161.995 221.98 162.475 221.23 163.005C220.72 163.385 220.39 163.675 220.26 163.875C220.12 164.075 220.06 164.335 220.06 164.655V165.135H217.95V165.115ZM217.7 167.855C217.7 167.405 217.82 167.065 218.06 166.835C218.3 166.605 218.65 166.485 219.11 166.485C219.56 166.485 219.9 166.605 220.14 166.835C220.38 167.075 220.5 167.405 220.5 167.845C220.5 168.265 220.38 168.605 220.13 168.845C219.88 169.095 219.54 169.205 219.1 169.205C218.65 169.205 218.3 169.085 218.06 168.845C217.82 168.625 217.7 168.295 217.7 167.855ZM224.29 165.455L229.78 163.195L224.29 160.645V158.715L232.26 162.695V163.845L224.29 167.365V165.455Z" fill="white"/>
<path fill-rule="evenodd" clip-rule="evenodd" d="M166.25 108.469H235.73C237.71 108.469 239.33 110.089 239.33 112.069V147.419C239.33 149.399 237.71 151.019 235.73 151.019H166.25C164.27 151.019 162.65 149.399 162.65 147.419V112.069C162.65 110.089 164.27 108.469 166.25 108.469Z" fill="#8397B5"/>
<path fill-rule="evenodd" clip-rule="evenodd" d="M164.38 106.547H233.85C235.83 106.547 237.45 108.167 237.45 110.147V145.497C237.45 147.477 235.83 149.097 233.85 149.097H164.38C162.4 149.097 160.78 147.477 160.78 145.497V110.147C160.78 108.167 162.4 106.547 164.38 106.547Z" fill="white"/>
<path fill-rule="evenodd" clip-rule="evenodd" d="M164.38 106.547H233.85C235.83 106.547 237.45 108.167 237.45 110.147V115.117C237.45 115.667 237 116.127 236.44 116.127H161.79C161.24 116.127 160.78 115.677 160.78 115.117V110.147C160.78 108.167 162.4 106.547 164.38 106.547Z" fill="#252626"/>
<path fill-rule="evenodd" clip-rule="evenodd" d="M166.61 120.148H186.09C186.5 120.148 186.84 120.488 186.84 120.898C186.84 121.308 186.5 121.648 186.09 121.648H166.61C166.2 121.648 165.86 121.308 165.86 120.898C165.86 120.488 166.2 120.148 166.61 120.148Z" fill="#0C0E0E"/>
<path fill-rule="evenodd" clip-rule="evenodd" d="M186.08 123.445H177.38C176.97 123.445 176.63 123.785 176.63 124.195C176.63 124.605 176.97 124.945 177.38 124.945H186.08C186.49 124.945 186.83 124.605 186.83 124.195C186.83 123.785 186.5 123.445 186.08 123.445Z" fill="#0C0E0E"/>
<path fill-rule="evenodd" clip-rule="evenodd" d="M173.59 123.445H174.28C174.69 123.445 175.03 123.785 175.03 124.195C175.03 124.605 174.69 124.945 174.28 124.945H173.59C173.18 124.945 172.84 124.605 172.84 124.195C172.84 123.785 173.18 123.445 173.59 123.445Z" fill="#0C0E0E"/>
<path fill-rule="evenodd" clip-rule="evenodd" d="M166.61 123.445H170.97C171.38 123.445 171.72 123.785 171.72 124.195C171.72 124.605 171.38 124.945 170.97 124.945H166.61C166.2 124.945 165.86 124.605 165.86 124.195C165.86 123.785 166.2 123.445 166.61 123.445Z" fill="#0C0E0E"/>
<path fill-rule="evenodd" clip-rule="evenodd" d="M166.61 127.367H186.09C186.5 127.367 186.84 127.707 186.84 128.117C186.84 128.527 186.5 128.867 186.09 128.867H166.61C166.2 128.867 165.86 128.527 165.86 128.117C165.86 127.707 166.2 127.367 166.61 127.367Z" fill="#0C0E0E"/>
<path fill-rule="evenodd" clip-rule="evenodd" d="M166.61 130.664H175.31C175.72 130.664 176.06 131.004 176.06 131.414C176.06 131.824 175.72 132.164 175.31 132.164H166.61C166.2 132.164 165.86 131.824 165.86 131.414C165.86 131.004 166.2 130.664 166.61 130.664Z" fill="#0C0E0E"/>
<path fill-rule="evenodd" clip-rule="evenodd" d="M179.1 130.664H178.41C178 130.664 177.66 131.004 177.66 131.414C177.66 131.824 178 132.164 178.41 132.164H179.1C179.51 132.164 179.85 131.824 179.85 131.414C179.85 131.004 179.52 130.664 179.1 130.664Z" fill="#0C0E0E"/>
<path fill-rule="evenodd" clip-rule="evenodd" d="M186.08 130.664H181.72C181.31 130.664 180.97 131.004 180.97 131.414C180.97 131.824 181.31 132.164 181.72 132.164H186.08C186.49 132.164 186.83 131.824 186.83 131.414C186.83 131.004 186.5 130.664 186.08 130.664Z" fill="#0C0E0E"/>
<path fill-rule="evenodd" clip-rule="evenodd" d="M166.61 134.586H186.09C186.5 134.586 186.84 134.926 186.84 135.336C186.84 135.746 186.5 136.086 186.09 136.086H166.61C166.2 136.086 165.86 135.746 165.86 135.336C165.86 134.926 166.2 134.586 166.61 134.586Z" fill="#0C0E0E"/>
<path fill-rule="evenodd" clip-rule="evenodd" d="M186.08 137.891H177.38C176.97 137.891 176.63 138.231 176.63 138.641C176.63 139.051 176.97 139.391 177.38 139.391H186.08C186.49 139.391 186.83 139.051 186.83 138.641C186.83 138.231 186.5 137.891 186.08 137.891Z" fill="#0C0E0E"/>
<path fill-rule="evenodd" clip-rule="evenodd" d="M173.59 137.891H174.28C174.69 137.891 175.03 138.231 175.03 138.641C175.03 139.051 174.69 139.391 174.28 139.391H173.59C173.18 139.391 172.84 139.051 172.84 138.641C172.84 138.231 173.18 137.891 173.59 137.891Z" fill="#0C0E0E"/>
<path fill-rule="evenodd" clip-rule="evenodd" d="M166.61 137.891H170.97C171.38 137.891 171.72 138.231 171.72 138.641C171.72 139.051 171.38 139.391 170.97 139.391H166.61C166.2 139.391 165.86 139.051 165.86 138.641C165.86 138.231 166.2 137.891 166.61 137.891Z" fill="#0C0E0E"/>
<path fill-rule="evenodd" clip-rule="evenodd" d="M166.61 141.805H186.09C186.5 141.805 186.84 142.145 186.84 142.555C186.84 142.965 186.5 143.305 186.09 143.305H166.61C166.2 143.305 165.86 142.965 165.86 142.555C165.86 142.145 166.2 141.805 166.61 141.805Z" fill="#0C0E0E"/>
<path fill-rule="evenodd" clip-rule="evenodd" d="M198.55 120.148H231.5C231.91 120.148 232.25 120.488 232.25 120.898C232.25 121.308 231.91 121.648 231.5 121.648H198.55C198.14 121.648 197.8 121.308 197.8 120.898C197.8 120.488 198.13 120.148 198.55 120.148Z" fill="#D84F50"/>
<path fill-rule="evenodd" clip-rule="evenodd" d="M231.5 123.445H216.24C215.83 123.445 215.49 123.785 215.49 124.195C215.49 124.605 215.83 124.945 216.24 124.945H231.49C231.9 124.945 232.24 124.605 232.24 124.195C232.24 123.785 231.91 123.445 231.5 123.445Z" fill="#D84F50"/>
<path fill-rule="evenodd" clip-rule="evenodd" d="M210.01 123.445H212.11C212.52 123.445 212.86 123.785 212.86 124.195C212.86 124.605 212.52 124.945 212.11 124.945H210.01C209.6 124.945 209.26 124.605 209.26 124.195C209.26 123.785 209.6 123.445 210.01 123.445Z" fill="#D84F50"/>
<path fill-rule="evenodd" clip-rule="evenodd" d="M198.55 123.445H206.67C207.08 123.445 207.42 123.785 207.42 124.195C207.42 124.605 207.08 124.945 206.67 124.945H198.55C198.14 124.945 197.8 124.605 197.8 124.195C197.8 123.785 198.13 123.445 198.55 123.445Z" fill="#D84F50"/>
<path fill-rule="evenodd" clip-rule="evenodd" d="M198.55 127.367H231.5C231.91 127.367 232.25 127.707 232.25 128.117C232.25 128.527 231.91 128.867 231.5 128.867H198.55C198.14 128.867 197.8 128.527 197.8 128.117C197.8 127.707 198.13 127.367 198.55 127.367Z" fill="#D84F50"/>
<path fill-rule="evenodd" clip-rule="evenodd" d="M198.55 130.664H213.8C214.21 130.664 214.55 131.004 214.55 131.414C214.55 131.824 214.21 132.164 213.8 132.164H198.55C198.14 132.164 197.8 131.824 197.8 131.414C197.8 131.004 198.13 130.664 198.55 130.664Z" fill="#D84F50"/>
<path fill-rule="evenodd" clip-rule="evenodd" d="M220.03 130.664H217.93C217.52 130.664 217.18 131.004 217.18 131.414C217.18 131.824 217.52 132.164 217.93 132.164H220.03C220.44 132.164 220.78 131.824 220.78 131.414C220.78 131.004 220.44 130.664 220.03 130.664Z" fill="#D84F50"/>
<path fill-rule="evenodd" clip-rule="evenodd" d="M231.5 130.664H223.38C222.97 130.664 222.63 131.004 222.63 131.414C222.63 131.824 222.97 132.164 223.38 132.164H231.5C231.91 132.164 232.25 131.824 232.25 131.414C232.24 131.004 231.91 130.664 231.5 130.664Z" fill="#D84F50"/>
<path fill-rule="evenodd" clip-rule="evenodd" d="M198.55 134.586H231.5C231.91 134.586 232.25 134.926 232.25 135.336C232.25 135.746 231.91 136.086 231.5 136.086H198.55C198.14 136.086 197.8 135.746 197.8 135.336C197.8 134.926 198.13 134.586 198.55 134.586Z" fill="#D84F50"/>
<path fill-rule="evenodd" clip-rule="evenodd" d="M231.5 137.891H216.24C215.83 137.891 215.49 138.231 215.49 138.641C215.49 139.051 215.83 139.391 216.24 139.391H231.49C231.9 139.391 232.24 139.051 232.24 138.641C232.24 138.231 231.91 137.891 231.5 137.891Z" fill="#D84F50"/>
<path fill-rule="evenodd" clip-rule="evenodd" d="M210.01 137.891H212.11C212.52 137.891 212.86 138.231 212.86 138.641C212.86 139.051 212.52 139.391 212.11 139.391H210.01C209.6 139.391 209.26 139.051 209.26 138.641C209.26 138.231 209.6 137.891 210.01 137.891Z" fill="#D84F50"/>
<path fill-rule="evenodd" clip-rule="evenodd" d="M198.55 137.891H206.67C207.08 137.891 207.42 138.231 207.42 138.641C207.42 139.051 207.08 139.391 206.67 139.391H198.55C198.14 139.391 197.8 139.051 197.8 138.641C197.8 138.231 198.13 137.891 198.55 137.891Z" fill="#D84F50"/>
<path fill-rule="evenodd" clip-rule="evenodd" d="M198.55 141.805H231.5C231.91 141.805 232.25 142.145 232.25 142.555C232.25 142.965 231.91 143.305 231.5 143.305H198.55C198.14 143.305 197.8 142.965 197.8 142.555C197.8 142.145 198.13 141.805 198.55 141.805Z" fill="#D84F50"/>
<path fill-rule="evenodd" clip-rule="evenodd" d="M218.97 113.069C219.92 113.069 220.7 112.289 220.7 111.339C220.7 110.389 219.92 109.609 218.97 109.609C218.02 109.609 217.24 110.389 217.24 111.339C217.24 112.299 218.02 113.069 218.97 113.069Z" fill="white"/>
<path fill-rule="evenodd" clip-rule="evenodd" d="M225.21 113.069C226.16 113.069 226.94 112.289 226.94 111.339C226.94 110.389 226.16 109.609 225.21 109.609C224.26 109.609 223.48 110.389 223.48 111.339C223.48 112.299 224.25 113.069 225.21 113.069Z" fill="white"/>
<path fill-rule="evenodd" clip-rule="evenodd" d="M231.44 113.069C232.39 113.069 233.17 112.289 233.17 111.339C233.17 110.389 232.39 109.609 231.44 109.609C230.49 109.609 229.71 110.389 229.71 111.339C229.71 112.299 230.49 113.069 231.44 113.069Z" fill="white"/>
<path fill-rule="evenodd" clip-rule="evenodd" d="M214.68 70.0234H217.36C217.85 70.0234 218.25 70.4234 218.25 70.9134V73.5934C218.25 74.0834 217.85 74.4834 217.36 74.4834H214.68C214.19 74.4834 213.79 74.0834 213.79 73.5934V70.9134C213.78 70.4234 214.18 70.0234 214.68 70.0234Z" fill="#DEE7F4"/>
<path fill-rule="evenodd" clip-rule="evenodd" d="M223.84 70.0234H226.52C227.01 70.0234 227.41 70.4234 227.41 70.9134V73.5934C227.41 74.0834 227.01 74.4834 226.52 74.4834H223.84C223.35 74.4834 222.95 74.0834 222.95 73.5934V70.9134C222.94 70.4234 223.34 70.0234 223.84 70.0234Z" fill="#DEE7F4"/>
<path fill-rule="evenodd" clip-rule="evenodd" d="M233 70.0234H235.68C236.17 70.0234 236.57 70.4234 236.57 70.9134V73.5934C236.57 74.0834 236.17 74.4834 235.68 74.4834H233C232.51 74.4834 232.11 74.0834 232.11 73.5934V70.9134C232.1 70.4234 232.51 70.0234 233 70.0234Z" fill="#DEE7F4"/>
<path fill-rule="evenodd" clip-rule="evenodd" d="M242.16 70.0234H244.84C245.33 70.0234 245.74 70.4234 245.74 70.9134V73.5934C245.74 74.0834 245.34 74.4834 244.84 74.4834H242.16C241.67 74.4834 241.27 74.0834 241.27 73.5934V70.9134C241.27 70.4234 241.67 70.0234 242.16 70.0234Z" fill="#DEE7F4"/>
<path fill-rule="evenodd" clip-rule="evenodd" d="M155.68 320.57H158.36C158.85 320.57 159.25 320.97 159.25 321.46V324.14C159.25 324.63 158.85 325.03 158.36 325.03H155.68C155.19 325.03 154.79 324.63 154.79 324.14V321.46C154.79 320.97 155.19 320.57 155.68 320.57Z" fill="#DEE7F4"/>
<path fill-rule="evenodd" clip-rule="evenodd" d="M164.84 320.57H167.52C168.01 320.57 168.41 320.97 168.41 321.46V324.14C168.41 324.63 168.01 325.03 167.52 325.03H164.84C164.35 325.03 163.95 324.63 163.95 324.14V321.46C163.95 320.97 164.35 320.57 164.84 320.57Z" fill="#DEE7F4"/>
<path fill-rule="evenodd" clip-rule="evenodd" d="M174 320.57H176.68C177.17 320.57 177.57 320.97 177.57 321.46V324.14C177.57 324.63 177.17 325.03 176.68 325.03H174C173.51 325.03 173.11 324.63 173.11 324.14V321.46C173.11 320.97 173.51 320.57 174 320.57Z" fill="#DEE7F4"/>
<path fill-rule="evenodd" clip-rule="evenodd" d="M183.17 320.57H185.85C186.34 320.57 186.74 320.97 186.74 321.46V324.14C186.74 324.63 186.34 325.03 185.85 325.03H183.17C182.68 325.03 182.28 324.63 182.28 324.14V321.46C182.27 320.97 182.67 320.57 183.17 320.57Z" fill="#DEE7F4"/>
<path fill-rule="evenodd" clip-rule="evenodd" d="M254.75 300.375C257.59 300.375 260.29 301.495 262.3 303.505C264.31 305.515 265.43 308.215 265.43 311.055C265.43 313.895 264.31 316.595 262.3 318.605C260.29 320.615 257.59 321.735 254.75 321.735C251.91 321.735 249.21 320.615 247.2 318.605C245.19 316.595 244.07 313.895 244.07 311.055C244.07 308.215 245.19 305.515 247.2 303.505C249.21 301.495 251.91 300.375 254.75 300.375ZM259.36 306.445C258.14 305.215 256.49 304.535 254.76 304.535C253.02 304.535 251.38 305.215 250.15 306.445C248.92 307.675 248.24 309.315 248.24 311.045C248.24 312.785 248.92 314.425 250.15 315.655C251.38 316.885 253.02 317.565 254.76 317.565C256.49 317.565 258.14 316.885 259.36 315.655C260.59 314.425 261.27 312.785 261.27 311.045C261.26 309.325 260.58 307.675 259.36 306.445Z" fill="#A62A34"/>
<path fill-rule="evenodd" clip-rule="evenodd" d="M237.75 331.971C246.96 331.971 254.5 324.431 254.5 315.221V314.281V299.011V297.761C254.5 296.941 253.83 296.281 253.02 296.281H222.48C221.67 296.281 221 296.951 221 297.761V299.011V314.291V315.231C221 324.441 228.53 331.971 237.75 331.971Z" fill="#D84F50"/>
<path fill-rule="evenodd" clip-rule="evenodd" d="M248.76 313.131C248.76 314.921 248.48 316.641 247.95 318.261C247.65 319.171 247.28 320.061 246.84 320.891C245.02 324.341 242.03 327.081 238.41 328.591C236.44 329.411 234.27 329.871 232.01 329.871C231.08 329.871 230.16 329.791 229.26 329.651C231.75 331.121 234.65 331.971 237.74 331.971C241.5 331.971 244.99 330.711 247.79 328.601C249.62 327.221 251.16 325.481 252.3 323.481C252.76 322.671 253.16 321.821 253.48 320.941C254.13 319.151 254.49 317.231 254.49 315.221V314.281V304.601V301.931V299.011V297.761C254.49 296.941 253.82 296.281 253.01 296.281H248.76V296.921V303.291V306.511V312.191V313.131Z" fill="#A62A34"/>
<path fill-rule="evenodd" clip-rule="evenodd" d="M223.23 331.968H252.27C253.5 331.968 254.5 330.968 254.5 329.738C254.5 328.508 253.49 327.508 252.27 327.508H223.23C222 327.508 221 328.508 221 329.738C221 330.968 222 331.968 223.23 331.968Z" fill="#D84F50"/>
<path fill-rule="evenodd" clip-rule="evenodd" d="M226.36 299.461C227.91 299.461 229.18 300.731 229.18 302.281V312.391C229.18 313.941 227.91 315.211 226.36 315.211C224.81 315.211 223.54 313.941 223.54 312.391V302.281C223.54 300.741 224.81 299.461 226.36 299.461Z" fill="#DE7272"/>
<path fill-rule="evenodd" clip-rule="evenodd" d="M223.44 275.618H236.21C237.18 275.618 237.97 274.828 237.97 273.858C237.97 272.888 237.18 272.098 236.21 272.098H219.03C216.5 272.098 214.43 270.028 214.43 267.498C214.43 264.968 216.5 262.898 219.03 262.898H263.7C266.23 262.898 268.3 264.968 268.3 267.498C268.3 270.028 266.23 272.098 263.7 272.098H248.12C247.15 272.098 246.36 272.888 246.36 273.858C246.36 274.828 247.15 275.618 248.12 275.618H254.12C256.07 275.618 257.67 277.218 257.67 279.168C257.67 281.118 256.07 282.718 254.12 282.718H244.2C240.32 282.718 237.14 285.888 237.14 289.778V293.008C237.14 293.928 236.39 294.678 235.47 294.678C234.55 294.678 233.8 293.928 233.8 293.008V286.858C233.8 284.578 231.94 282.718 229.66 282.718H223.42C221.47 282.718 219.87 281.118 219.87 279.168C219.89 277.218 221.49 275.618 223.44 275.618Z" fill="white"/>
<path fill-rule="evenodd" clip-rule="evenodd" d="M450 53.4844H404.63C401.34 53.4844 398.64 56.1844 398.64 59.4744V88.0944V89.9244V105.654C398.64 105.934 398.8 106.164 399.05 106.274C399.31 106.374 399.58 106.324 399.78 106.124L409.99 95.9144H450C453.3 95.9144 455.99 93.2144 455.99 89.9244V59.4744C455.99 56.1744 453.3 53.4844 450 53.4844Z" fill="#8397B5"/>
<path fill-rule="evenodd" clip-rule="evenodd" d="M448.68 51.8828H403.31C400.01 51.8828 397.32 54.5828 397.32 57.8728V86.4928V88.3228V104.053C397.32 104.333 397.48 104.563 397.73 104.673C397.98 104.773 398.26 104.723 398.46 104.523L408.67 94.3128H448.68C451.98 94.3128 454.67 91.6128 454.67 88.3228V57.8828C454.67 54.5828 451.98 51.8828 448.68 51.8828Z" fill="#D84F50"/>
<path fill-rule="evenodd" clip-rule="evenodd" d="M283.58 183.21C284.95 183.21 286.06 182.1 286.06 180.73C286.06 179.36 284.94 178.25 283.58 178.25C282.21 178.25 281.09 179.37 281.09 180.73C281.1 182.09 282.21 183.21 283.58 183.21Z" fill="white"/>
<path fill-rule="evenodd" clip-rule="evenodd" d="M446.85 211.91C448.22 211.91 449.34 210.79 449.34 209.42C449.34 208.05 448.22 206.93 446.85 206.93C445.48 206.93 444.37 208.05 444.37 209.42C444.37 210.79 445.49 211.91 446.85 211.91Z" fill="white"/>
<path fill-rule="evenodd" clip-rule="evenodd" d="M379.85 24.73C381.22 24.73 382.34 23.61 382.34 22.24C382.34 20.87 381.22 19.75 379.85 19.75C378.48 19.75 377.37 20.87 377.37 22.24C377.36 23.61 378.48 24.73 379.85 24.73Z" fill="white"/>
<path fill-rule="evenodd" clip-rule="evenodd" d="M184.66 300.027C186.03 300.027 187.14 298.907 187.14 297.537C187.14 296.167 186.02 295.047 184.66 295.047C183.29 295.047 182.17 296.167 182.17 297.537C182.17 298.917 183.29 300.027 184.66 300.027Z" fill="white"/>
<path fill-rule="evenodd" clip-rule="evenodd" d="M261.86 82.2591C263.23 82.2591 264.35 81.1391 264.35 79.7791C264.35 78.4091 263.23 77.2891 261.86 77.2891C260.49 77.2891 259.37 78.4091 259.37 79.7791C259.37 81.1491 260.49 82.2591 261.86 82.2591Z" fill="white"/>
<path fill-rule="evenodd" clip-rule="evenodd" d="M280.07 24.1038C280.69 24.1038 281.2 23.5937 281.2 22.9737C281.2 22.3537 280.69 21.8438 280.07 21.8438C279.45 21.8438 278.94 22.3537 278.94 22.9737C278.94 23.5937 279.45 24.1038 280.07 24.1038Z" fill="white"/>
<path fill-rule="evenodd" clip-rule="evenodd" d="M309.93 107.862C310.55 107.862 311.06 107.352 311.06 106.732C311.06 106.112 310.55 105.602 309.93 105.602C309.31 105.602 308.8 106.112 308.8 106.732C308.8 107.352 309.31 107.862 309.93 107.862Z" fill="white"/>
<path fill-rule="evenodd" clip-rule="evenodd" d="M384.22 59.7912C384.84 59.7912 385.35 59.2813 385.35 58.6613C385.35 58.0413 384.84 57.5312 384.22 57.5312C383.6 57.5312 383.09 58.0413 383.09 58.6613C383.09 59.2813 383.6 59.7912 384.22 59.7912Z" fill="white"/>
<path fill-rule="evenodd" clip-rule="evenodd" d="M416.27 179.963C416.89 179.963 417.4 179.453 417.4 178.833C417.4 178.213 416.89 177.703 416.27 177.703C415.65 177.703 415.14 178.213 415.14 178.833C415.14 179.453 415.64 179.963 416.27 179.963Z" fill="white"/>
<path fill-rule="evenodd" clip-rule="evenodd" d="M498.57 100.572C499.19 100.572 499.7 100.062 499.7 99.4425C499.7 98.8225 499.19 98.3125 498.57 98.3125C497.95 98.3125 497.44 98.8225 497.44 99.4425C497.44 100.072 497.94 100.572 498.57 100.572Z" fill="white"/>
<path fill-rule="evenodd" clip-rule="evenodd" d="M293.18 153.01C293.8 153.01 294.31 152.5 294.31 151.88C294.31 151.26 293.8 150.75 293.18 150.75C292.56 150.75 292.05 151.26 292.05 151.88C292.05 152.51 292.56 153.01 293.18 153.01Z" fill="white"/>
<path fill-rule="evenodd" clip-rule="evenodd" d="M233.45 236.768C234.07 236.768 234.58 236.258 234.58 235.638C234.58 235.018 234.07 234.508 233.45 234.508C232.83 234.508 232.32 235.018 232.32 235.638C232.32 236.258 232.83 236.768 233.45 236.768Z" fill="white"/>
<path fill-rule="evenodd" clip-rule="evenodd" d="M156.98 299.408C157.6 299.408 158.11 298.898 158.11 298.278C158.11 297.658 157.6 297.148 156.98 297.148C156.36 297.148 155.85 297.658 155.85 298.278C155.85 298.898 156.36 299.408 156.98 299.408Z" fill="white"/>
<path fill-rule="evenodd" clip-rule="evenodd" d="M500.02 230.94C500.64 230.94 501.15 230.43 501.15 229.81C501.15 229.19 500.64 228.68 500.02 228.68C499.4 228.68 498.89 229.19 498.89 229.81C498.89 230.44 499.4 230.94 500.02 230.94Z" fill="white"/>
<path fill-rule="evenodd" clip-rule="evenodd" d="M519.69 333.643C520.31 333.643 520.82 333.133 520.82 332.513C520.82 331.893 520.31 331.383 519.69 331.383C519.07 331.383 518.56 331.893 518.56 332.513C518.56 333.133 519.07 333.643 519.69 333.643Z" fill="white"/>
<path fill-rule="evenodd" clip-rule="evenodd" d="M148.97 159.572C149.59 159.572 150.1 159.062 150.1 158.442C150.1 157.822 149.59 157.312 148.97 157.312C148.35 157.312 147.84 157.822 147.84 158.442C147.84 159.062 148.35 159.572 148.97 159.572Z" fill="white"/>
<path fill-rule="evenodd" clip-rule="evenodd" d="M221.07 94.0178C221.69 94.0178 222.2 93.5078 222.2 92.8878C222.2 92.2678 221.69 91.7578 221.07 91.7578C220.45 91.7578 219.94 92.2678 219.94 92.8878C219.94 93.5078 220.45 94.0178 221.07 94.0178Z" fill="white"/>
<path fill-rule="evenodd" clip-rule="evenodd" d="M344.16 25.5569C344.78 25.5569 345.29 25.0469 345.29 24.4269C345.29 23.8069 344.78 23.2969 344.16 23.2969C343.54 23.2969 343.03 23.8069 343.03 24.4269C343.03 25.0469 343.54 25.5569 344.16 25.5569Z" fill="white"/>
<path fill-rule="evenodd" clip-rule="evenodd" d="M420.64 37.9397C421.26 37.9397 421.77 37.4297 421.77 36.8097C421.77 36.1897 421.26 35.6797 420.64 35.6797C420.02 35.6797 419.51 36.1897 419.51 36.8097C419.51 37.4297 420.01 37.9397 420.64 37.9397Z" fill="white"/>
<path fill-rule="evenodd" clip-rule="evenodd" d="M278.46 141.377C276.14 148.527 273.91 157.517 272.23 162.117C259.36 197.537 263.31 199.207 291.12 197.107C302.29 196.267 313.15 196.227 334.22 193.027C337.27 192.587 335.8 194.107 337.35 195.597C338.9 197.087 325.5 207.597 325.5 207.597L300.64 233.787C281.58 231.807 253.86 225.957 241.68 217.177C222.98 201.247 250.18 156.667 259.56 134.717C260.32 132.937 265.45 134.247 265.94 132.797C268.71 133.867 279.92 136.887 278.46 141.377Z" fill="white"/>
<path fill-rule="evenodd" clip-rule="evenodd" d="M285.89 134.637C289.46 132.107 293.26 131.587 294.66 131.537C296.52 131.467 294.71 124.517 288.5 127.497C288.5 127.497 285.25 127.747 284.85 126.367C284.46 124.997 296.21 110.057 297.5 108.417C298.78 106.787 297.16 105.007 296.3 104.977C295.43 104.957 293.6 107.347 291.08 110.207C288.56 113.077 285.68 116.267 285.18 116.317C284.68 116.367 284.05 115.757 284.82 113.647C285.59 111.537 290.28 100.067 289.95 98.947C289.61 97.827 287.52 97.267 286.31 98.777C285.09 100.287 280.79 112.047 279.76 113.377C278.73 114.707 277.59 113.507 277.69 112.327C277.79 111.157 280.65 97.747 280.37 96.687C280.09 95.627 277.94 95.137 277.08 97.027C276.22 98.917 272.95 111.627 272.25 112.297C271.55 112.957 270.14 112.607 269.65 110.057C269.17 107.507 268.77 102.117 268.22 101.537C267.68 100.967 265.27 101.977 265.28 104.667C265.3 107.357 265.1 114.037 264.95 115.017C264.15 120.217 261.97 124.707 261.9 128.847C261.87 130.347 262.26 131.877 262.95 133.317C264.58 136.727 267.93 139.677 271.67 140.727C278.16 142.557 280.98 138.117 285.89 134.637Z" fill="#F4AD85"/>
<path fill-rule="evenodd" clip-rule="evenodd" d="M285.89 134.632C289.46 132.102 293.26 131.582 294.66 131.532C295.3 131.512 295.5 130.682 295.25 129.722C294.23 129.342 289.36 130.502 284.84 132.542C278.23 135.532 270.88 139.032 265.16 131.072C263.67 129.002 263.11 123.232 263.61 120.742C262.78 123.632 261.95 126.302 261.9 128.852C261.88 130.352 262.26 131.872 262.95 133.322C259.56 138.502 266.87 143.302 272.96 143.432C275.33 143.482 275.19 141.532 277.64 140.552C280.52 139.412 282.79 136.832 285.89 134.632Z" fill="#F19879"/>
<path fill-rule="evenodd" clip-rule="evenodd" d="M402.7 200.703C402.7 200.703 407.78 203.093 413.43 209.703C417.47 214.413 437.35 248.843 444.28 281.833C445.8 289.053 435.03 318.213 415.59 331.973L432.95 335.723C431.3 332.293 393.61 333.523 391.12 328.153C383.91 312.583 410.4 286.813 410.4 286.813L402.7 200.703Z" fill="#EBF2F8"/>
<path fill-rule="evenodd" clip-rule="evenodd" d="M355.91 188.367C366.04 191.047 396.42 199.197 398.09 200.917C400.09 202.977 409.14 252.397 409.17 257.217C409.19 261.677 398.73 322.897 397.03 339.617H352.64H308.25C306.54 322.907 296.09 261.677 296.11 257.217C296.13 252.387 305.35 202.807 307.19 200.917C309.02 199.027 326.06 195.657 336.19 192.977L348.96 209.747L350.77 209.727L352.64 212.997L354.51 209.727L356.32 209.747L355.91 188.367Z" fill="white"/>
<path fill-rule="evenodd" clip-rule="evenodd" d="M298.11 273.876C296.6 265.026 295.56 258.556 295.57 257.216C295.58 254.456 298.92 237.076 302.15 222.336C304.51 223.606 303.15 230.486 303.45 241.346C303.63 247.556 300.95 261.286 298.11 273.876Z" fill="#EBF2F8"/>
<path fill-rule="evenodd" clip-rule="evenodd" d="M356.26 188.364C367.45 191.044 401 199.194 402.84 200.914C405.05 202.974 415.05 252.394 415.07 257.214C415.08 258.814 413.59 267.774 411.59 279.354C394.45 283.774 380.45 286.724 380.45 286.724C380.45 286.724 408.67 254.314 406.22 240.074C403.77 225.824 402.03 212.624 399.66 211.164C397.29 209.704 382.27 204.334 377.81 203.244C373.35 202.154 372.71 205.434 372.71 205.434C372.71 205.434 369.43 216.724 368.89 218.954C368.34 221.184 367.21 222.184 365.84 221.544C364.47 220.904 357.51 215.484 357.05 215.764C356.59 216.034 353.67 221.224 353.67 221.224L351.61 218.714L349.86 214.254C349.86 214.254 341.98 220.534 340.76 221.444C339.53 222.354 337.71 221.894 337.35 220.624C336.99 219.354 333.52 202.794 333.52 202.794L336 191.514C341.27 190.214 345.98 189.074 349.03 188.344L348.58 209.724L350.58 209.704L352.65 212.974L354.72 209.704L356.72 209.724L356.26 188.364Z" fill="#EBF2F8"/>
<path fill-rule="evenodd" clip-rule="evenodd" d="M351.6 211.367L352.63 212.997L353.66 211.367V241.897C353.66 242.467 353.2 242.927 352.63 242.927C352.06 242.927 351.6 242.467 351.6 241.897V211.367Z" fill="#BEC7D4"/>
<path fill-rule="evenodd" clip-rule="evenodd" d="M352.09 153.204H352.37C360.52 153.084 367.26 161.664 367.35 172.274L367.55 194.934C367.61 201.764 364.9 207.844 360.78 211.334V209.744H356.69H354.68L352.62 213.004L350.56 209.744H348.55H345.59V212.244C340.93 209.044 337.7 202.694 337.64 195.384L337.44 172.714C337.36 162.114 343.94 153.334 352.09 153.204Z" fill="#E8685B"/>
<path fill-rule="evenodd" clip-rule="evenodd" d="M352.02 149.445C351.84 147.475 351.09 145.635 349.9 144.135L334.17 156.725C335.37 158.205 336.99 159.345 338.89 159.955L352.02 149.445ZM348.86 143.005L333.29 155.465C332.81 154.645 332.44 153.755 332.21 152.825L346.52 141.375C347.39 141.805 348.17 142.355 348.86 143.005Z" fill="#F6BB98"/>
<path fill-rule="evenodd" clip-rule="evenodd" d="M309.76 140.112L303.99 143.032C299.03 159.362 311.15 187.952 334.39 177.732C343.61 173.682 326.44 139.492 326.44 139.492L309.76 140.112Z" fill="black"/>
<path fill-rule="evenodd" clip-rule="evenodd" d="M302.99 148.656C302.02 161.726 309.37 178.226 322.89 179.776C327.49 160.126 310.34 151.436 302.99 148.656Z" fill="#0C0E0E"/>
<path fill-rule="evenodd" clip-rule="evenodd" d="M389.27 108.598C400.03 117.708 415.99 148.458 399.64 158.868C394.33 162.248 390.37 167.018 381.28 162.928C372.19 158.838 372.99 110.488 372.99 110.488C372.99 110.488 383.83 105.848 389.27 108.598Z" fill="black"/>
<path fill-rule="evenodd" clip-rule="evenodd" d="M402.78 200.742C402.94 200.852 403.36 201.152 403.97 201.662C406.67 209.472 409.36 222.082 410.77 242.382C410.79 242.692 410.63 242.972 410.4 243.002C410.17 243.032 409.97 242.802 409.95 242.492C408.45 220.932 405.55 208.222 402.78 200.742Z" fill="#D7E0EC"/>
<path fill-rule="evenodd" clip-rule="evenodd" d="M319.67 195.484C310.69 202.624 306.45 215.194 300.64 233.784L299.81 233.674C305.46 215.484 309.19 202.984 318.19 195.624L319.67 195.484Z" fill="#EBF2F8"/>
<path fill-rule="evenodd" clip-rule="evenodd" d="M325.08 136.953C324.84 136.943 324.61 136.943 324.37 136.953H324.36C320.01 137.133 316.21 140.273 315.38 144.733C314.41 149.913 317.83 154.893 323.01 155.863C328.19 156.833 333.18 153.423 334.14 148.243C334.7 145.233 333.79 142.293 331.9 140.163C331.67 142.983 330.66 146.343 327.05 146.093L328.06 140.683C328.48 138.503 326.6 137.153 325.08 136.953Z" fill="#E8685B"/>
<path fill-rule="evenodd" clip-rule="evenodd" d="M393.01 148.329C393.24 148.399 393.46 148.479 393.68 148.559H393.69C397.74 150.139 400.31 154.359 399.65 158.839C398.88 164.049 394.02 167.649 388.81 166.879C383.6 166.109 380 161.259 380.77 156.049C381.22 153.019 383.05 150.529 385.52 149.139C384.82 151.879 384.68 155.389 388.17 156.329L388.98 150.889C389.29 148.689 391.51 148.019 393.01 148.329Z" fill="#E8685B"/>
<path fill-rule="evenodd" clip-rule="evenodd" d="M366.92 95.6447C349.2 92.6747 332.27 104.745 329.3 122.465L324.39 151.765C321.42 169.485 333.49 186.415 351.21 189.385C368.93 192.355 385.86 180.285 388.83 162.565L393.74 133.265C396.71 115.535 384.64 98.6047 366.92 95.6447Z" fill="#F4AD85"/>
<path fill-rule="evenodd" clip-rule="evenodd" d="M366.92 95.6447C349.2 92.6747 332.27 104.745 329.3 122.465L324.39 151.775C324.27 152.465 324.19 153.145 324.11 153.835C343.35 155.225 362.35 145.845 365.94 122.725C365.94 122.725 373.62 123.895 375.54 124.395C377.46 124.895 384.69 130.785 383.89 140.015C383.1 149.245 380.72 166.665 375.12 175.095C369.52 183.525 360.54 189.705 345.66 187.955C347.44 188.585 349.29 189.075 351.21 189.395C368.93 192.365 385.86 180.295 388.83 162.575L393.74 133.275C396.71 115.535 384.64 98.6047 366.92 95.6447Z" fill="#EF8871"/>
<path fill-rule="evenodd" clip-rule="evenodd" d="M382.95 120.72C382.95 120.72 381.14 133.77 389.38 138.94C389.38 138.94 388.27 145.59 387.94 147.52C387.61 149.46 388.25 152.65 390.42 153.01L391.19 148.41L394.28 144.45L396.24 123.1L388.85 108.75L382.38 107.25C382.4 107.26 382.97 120.93 382.95 120.72Z" fill="black"/>
<path fill-rule="evenodd" clip-rule="evenodd" d="M386.8 109.897L380.11 117.587C380.11 117.587 369.43 117.157 365.54 115.747C361.65 114.337 373.43 91.4766 373.43 91.4766C373.43 91.4766 380.69 92.3166 381.27 92.7866C381.85 93.2666 382.85 101.497 382.85 101.497L386.8 109.897Z" fill="black"/>
<path fill-rule="evenodd" clip-rule="evenodd" d="M379.88 147.532L364.75 159.642C364.36 158.722 364.11 157.742 364.01 156.732L377.2 146.172C378.17 146.492 379.07 146.952 379.88 147.532ZM383.82 153.342C383.37 151.502 382.41 149.832 381.07 148.522L365.46 161.022C366.44 162.602 367.85 163.912 369.56 164.752L383.82 153.342Z" fill="#F6BB98"/>
<path fill-rule="evenodd" clip-rule="evenodd" d="M374.6 160.55C372.31 160.12 370.1 161.63 369.67 163.93C369.24 166.22 370.75 168.43 373.05 168.86C375.34 169.29 377.55 167.78 377.98 165.48C378.4 163.19 376.89 160.98 374.6 160.55Z" fill="#E8685B"/>
<path fill-rule="evenodd" clip-rule="evenodd" d="M338.85 153.862C336.55 153.432 334.35 154.942 333.92 157.242C333.49 159.542 335 161.742 337.3 162.172C339.59 162.602 341.8 161.092 342.23 158.792C342.66 156.502 341.15 154.292 338.85 153.862Z" fill="#E8685B"/>
<path fill-rule="evenodd" clip-rule="evenodd" d="M339.81 137.152C342.39 136.362 345.53 136.622 347.64 138.422C348.07 138.792 348.74 138.742 349.12 138.302C349.49 137.862 349.43 137.202 349 136.832C346.37 134.592 342.43 134.142 339.2 135.152C338.65 135.322 338.34 135.912 338.51 136.462C338.67 137.012 339.26 137.322 339.81 137.152Z" fill="black"/>
<path fill-rule="evenodd" clip-rule="evenodd" d="M338.72 149.293C338.85 148.483 339.3 147.773 339.97 147.303C340.64 146.823 341.46 146.643 342.26 146.773C343.07 146.913 343.78 147.353 344.25 148.023C344.72 148.683 344.91 149.513 344.78 150.313C344.68 150.883 345.07 151.423 345.64 151.523C346.21 151.623 346.75 151.233 346.85 150.663C347.08 149.303 346.76 147.923 345.96 146.813C345.16 145.693 343.96 144.943 342.61 144.713C341.25 144.483 339.87 144.803 338.76 145.603C337.64 146.403 336.89 147.603 336.66 148.953C336.56 149.523 336.95 150.063 337.52 150.163C338.08 150.253 338.62 149.873 338.72 149.293Z" fill="black"/>
<path fill-rule="evenodd" clip-rule="evenodd" d="M377.44 155.782C377.35 156.352 377.73 156.892 378.3 156.992C378.87 157.092 379.41 156.702 379.51 156.132C379.74 154.772 379.42 153.392 378.62 152.282C377.82 151.162 376.62 150.412 375.27 150.182C373.91 149.952 372.54 150.272 371.42 151.072C370.3 151.872 369.55 153.072 369.32 154.432C369.22 155.002 369.61 155.542 370.18 155.642C370.75 155.742 371.29 155.352 371.39 154.782C371.52 153.972 371.97 153.262 372.64 152.792C373.31 152.322 374.12 152.132 374.93 152.262C375.73 152.402 376.45 152.842 376.92 153.512C377.38 154.162 377.57 154.982 377.44 155.782Z" fill="black"/>
<path fill-rule="evenodd" clip-rule="evenodd" d="M380.36 143.953C380.82 144.293 381.48 144.193 381.82 143.723C382.16 143.253 382.05 142.603 381.59 142.263C378.89 140.253 374.97 139.403 371.78 140.663C371.25 140.873 370.98 141.483 371.19 142.013C371.4 142.543 372.01 142.813 372.55 142.603C375.13 141.583 378.18 142.363 380.36 143.953Z" fill="black"/>
<path fill-rule="evenodd" clip-rule="evenodd" d="M384.46 325.831C384.46 325.831 389.55 322.431 392.28 320.791C395.02 319.151 397.91 319.851 399.63 320.871C401.35 321.891 408.94 328.011 410.12 329.251C411.29 330.491 404.49 333.231 403.78 333.231C403.08 333.231 384.46 325.831 384.46 325.831Z" fill="#EF8871"/>
<path fill-rule="evenodd" clip-rule="evenodd" d="M270.12 337.617H434.53C437.06 337.617 439.12 335.547 439.12 333.027C439.12 330.497 437.05 328.438 434.53 328.438H270.12C267.59 328.438 265.53 330.507 265.53 333.027C265.53 335.547 267.59 337.617 270.12 337.617Z" fill="#0C0E0E"/>
<path fill-rule="evenodd" clip-rule="evenodd" d="M364.63 167.028C363.7 171.988 358.93 175.258 353.98 174.328C349.02 173.408 345.75 168.628 346.68 163.678H346.7C346.86 162.828 347.69 162.258 348.54 162.418L363.37 165.188C364.22 165.348 364.79 166.178 364.63 167.028Z" fill="black"/>
<path fill-rule="evenodd" clip-rule="evenodd" d="M359.98 173.39C358.21 174.35 356.11 174.72 353.98 174.33C352.24 174.01 350.7 173.2 349.49 172.09C350.52 170.38 352.8 169.37 355.24 169.74C357.56 170.08 359.39 171.57 359.98 173.39Z" fill="#D64341"/>
<path fill-rule="evenodd" clip-rule="evenodd" d="M349.03 162.508L362.97 165.108C362.9 166.688 361.9 168.118 360.8 168.258C359.46 168.438 349.43 166.288 348.87 165.358C348.58 164.918 348.76 163.668 349.03 162.508Z" fill="white"/>
<path fill-rule="evenodd" clip-rule="evenodd" d="M354.16 157.096C354.16 157.096 352.54 159.156 352.73 160.416C352.92 161.686 354.72 161.336 355.08 160.296C355.43 159.266 355.26 157.176 355.17 156.926C355.08 156.686 354.57 156.516 354.16 157.096Z" fill="#F8CAAE"/>
<path fill-rule="evenodd" clip-rule="evenodd" d="M343.82 139.387C346.82 139.887 349.33 141.557 350.96 143.847C352.17 145.537 352.9 147.577 352.99 149.727C355 149.597 359.59 149.587 363.93 151.547C364.72 149.547 366.08 147.867 367.76 146.667C370.05 145.037 372.97 144.277 375.97 144.777C378.97 145.277 381.48 146.947 383.11 149.237C383.87 150.307 384.45 151.517 384.79 152.797L389.51 150.437C389.96 150.217 390.51 150.397 390.73 150.847C390.96 151.297 390.77 151.847 390.32 152.067L385.12 154.667C385.2 155.567 385.16 156.497 385.01 157.437C384.51 160.437 382.84 162.947 380.55 164.577C378.26 166.207 375.34 166.967 372.34 166.467C369.34 165.967 366.84 164.297 365.2 162.007C363.57 159.717 362.81 156.797 363.31 153.807C363.34 153.637 363.37 153.477 363.41 153.307C359.2 151.327 354.66 151.427 352.94 151.557C352.92 151.717 352.9 151.887 352.87 152.047C352.37 155.047 350.7 157.557 348.41 159.187C346.12 160.817 343.2 161.577 340.2 161.077C337.2 160.577 334.69 158.907 333.06 156.617C331.43 154.327 330.67 151.407 331.17 148.407C331.33 147.457 331.61 146.547 331.98 145.707L327.96 141.607C327.61 141.247 327.61 140.667 327.97 140.317C328.33 139.967 328.91 139.967 329.26 140.327L332.9 144.047C333.64 142.957 334.56 142.017 335.62 141.257C337.91 139.647 340.82 138.887 343.82 139.387ZM381.62 150.307C380.26 148.397 378.17 147.007 375.67 146.587C373.17 146.167 370.74 146.797 368.83 148.167C366.92 149.527 365.53 151.617 365.11 154.117C364.69 156.617 365.32 159.047 366.69 160.957C368.05 162.867 370.14 164.257 372.64 164.677C375.14 165.097 377.57 164.467 379.48 163.097C381.39 161.737 382.78 159.647 383.2 157.147C383.61 154.647 382.98 152.217 381.62 150.307ZM349.47 144.917C348.11 143.007 346.02 141.617 343.52 141.197C341.02 140.777 338.59 141.417 336.68 142.777C334.77 144.137 333.38 146.227 332.96 148.727C332.54 151.227 333.17 153.657 334.54 155.567C335.9 157.477 337.99 158.867 340.49 159.287C342.99 159.707 345.42 159.067 347.33 157.707C349.24 156.347 350.63 154.257 351.05 151.757C351.46 149.257 350.83 146.827 349.47 144.917Z" fill="black"/>
<path fill-rule="evenodd" clip-rule="evenodd" d="M380.11 117.584C382.53 103.444 371.17 99.8638 367.38 113.414C361.55 134.244 351.74 161.784 313.02 147.014L304.01 143.044C313.77 115.514 341.28 86.4738 371.75 85.4038C381.1 85.0738 392.13 100.134 392.87 102.534C393.61 104.934 392.36 112.724 391.52 113.874C391.52 113.874 383.81 121.044 382.97 120.714C382.11 120.384 380.11 117.584 380.11 117.584Z" fill="#0C0E0E"/>
<path fill-rule="evenodd" clip-rule="evenodd" d="M309.8 130.163C312.1 125.963 314.77 121.833 317.74 117.893C331.19 129.993 362.71 121.353 364.06 86.2631C365.27 86.0331 366.49 85.8431 367.72 85.7031C363.87 120.793 340.53 142.523 309.8 130.163Z" fill="#252626"/>
<path fill-rule="evenodd" clip-rule="evenodd" d="M366.08 117.867C360.03 137.887 349.03 160.757 313.01 147.017L304 143.047C304.94 140.397 306.05 137.727 307.3 135.077C317.75 140.517 346.43 151.207 366.08 117.867Z" fill="black"/>
<path fill-rule="evenodd" clip-rule="evenodd" d="M431.52 240.203H381.21H323.45H273.14C270.78 240.203 269.15 242.133 269.5 244.483L281.61 324.883C281.96 327.243 284.18 329.163 286.54 329.163H310.06H394.62H418.14C420.49 329.163 422.71 327.233 423.07 324.883L435.17 244.483C435.51 242.123 433.87 240.203 431.52 240.203Z" fill="#0C0E0E"/>
<path fill-rule="evenodd" clip-rule="evenodd" d="M367.45 191.077C367.45 191.077 364.18 198.918 363.08 200.908C361.98 202.898 354.7 209.728 354.7 209.728C354.7 209.728 354.47 210.317 354.7 210.637C354.93 210.957 365.85 219.928 365.85 219.928C365.85 219.928 366.76 220.568 367.44 219.158C368.12 217.748 371.49 205.818 371.76 202.818C372.03 199.818 370.39 190.527 370.39 190.527L367.54 188.938L367.45 191.077Z" fill="white"/>
<path fill-rule="evenodd" clip-rule="evenodd" d="M337.82 191.077C337.82 191.077 341.09 198.918 342.19 200.908C343.29 202.898 350.57 209.728 350.57 209.728C350.57 209.728 350.8 210.317 350.57 210.637C350.34 210.957 339.42 219.928 339.42 219.928C339.42 219.928 338.51 220.568 337.83 219.158C337.15 217.748 333.78 205.818 333.51 202.818C333.24 199.818 334.37 191.988 334.37 191.988L337.72 188.938L337.82 191.077Z" fill="white"/>
<path fill-rule="evenodd" clip-rule="evenodd" d="M394.95 114.812C387.23 124.922 391.13 147.062 406.31 148.643C408.21 138.113 401.78 123.863 394.95 114.812Z" fill="#0C0E0E"/>
<path fill-rule="evenodd" clip-rule="evenodd" d="M428 244H379.93H324.73H276.66C274.41 244 272.84 245.84 273.18 248.09L284.75 324.91C285.09 327.16 287.21 329 289.46 329H311.93H392.72H415.19C417.44 329 419.56 327.16 419.9 324.91L431.47 248.09C431.81 245.84 430.25 244 428 244Z" fill="#1C1D1D"/>
<path fill-rule="evenodd" clip-rule="evenodd" d="M281.78 305.213L284.75 324.913C285.09 327.163 287.21 329.003 289.46 329.003H311.93H392.72H415.19C417.44 329.003 419.56 327.163 419.9 324.913L431.47 248.093C431.74 246.283 430.79 244.743 429.23 244.203C411.91 274.093 369.34 323.033 281.78 305.213Z" fill="#0C0E0E"/>
<path fill-rule="evenodd" clip-rule="evenodd" d="M352.33 308.584C361.6 308.584 369.16 302.274 369.16 294.534C369.16 286.794 361.6 280.484 352.33 280.484C343.06 280.484 335.5 286.794 335.5 294.534C335.49 302.274 343.06 308.584 352.33 308.584Z" fill="#0C0E0E"/>
<path fill-rule="evenodd" clip-rule="evenodd" d="M352.33 283.852C357.04 283.852 361.15 285.982 363.37 289.142L343.8 302.492C341.19 300.542 339.54 297.702 339.54 294.532C339.54 288.642 345.26 283.852 352.33 283.852ZM362.72 300.762L356.84 297.532L347.04 304.262C348.65 304.872 350.44 305.212 352.33 305.212C356.61 305.212 360.39 303.452 362.72 300.762Z" fill="white"/>
<path fill-rule="evenodd" clip-rule="evenodd" d="M302.9 218.152C296.62 219.172 288.07 219.862 276.68 219.552C250.33 218.832 235.31 211.852 236.79 189.242C234.09 200.832 234.54 211.092 241.68 217.182C253.67 225.822 280.72 231.632 299.75 233.702C300.19 231.532 300.65 229.332 301.12 227.142C301.71 224.062 302.31 221.012 302.9 218.152Z" fill="#EBF2F8"/>
<path fill-rule="evenodd" clip-rule="evenodd" d="M221.58 341.258H483.73C487.02 341.258 489.72 343.948 489.72 347.248C489.72 350.538 487.03 353.238 483.73 353.238H221.58C218.29 353.238 215.59 350.548 215.59 347.248C215.59 343.948 218.28 341.258 221.58 341.258Z" fill="#0C0E0E"/>
<path fill-rule="evenodd" clip-rule="evenodd" d="M208.83 331.969H496.47C500.67 331.969 504.11 335.409 504.11 339.599C504.11 343.799 500.67 347.239 496.47 347.239H208.83C204.63 347.239 201.19 343.799 201.19 339.599C201.2 335.409 204.63 331.969 208.83 331.969Z" fill="#BE865E"/>
<path d="M399.07 331.969H383.18V347.239H399.07V331.969Z" fill="#915E40"/>
<path d="M415.58 331.969H407.33V347.239H415.58V331.969Z" fill="#915E40"/>
<path d="M428.38 331.969H424.25V347.239H428.38V331.969Z" fill="#915E40"/>
<path d="M460.29 331.969H442.51V347.239H460.29V331.969Z" fill="#915E40"/>
<path d="M482.58 331.969H473.69V347.239H482.58V331.969Z" fill="#915E40"/>
<path fill-rule="evenodd" clip-rule="evenodd" d="M209.45 334.445H349.25C351.75 334.445 353.79 336.485 353.79 338.985C353.79 341.485 351.75 343.525 349.25 343.525H209.45C206.95 343.525 204.91 341.485 204.91 338.985C204.91 336.495 206.95 334.445 209.45 334.445Z" fill="#D49D80"/>
<path d="M411.273 78.3086H406.715V76.4688H411.273C412.156 76.4688 412.871 76.3281 413.418 76.0469C413.965 75.7656 414.363 75.375 414.613 74.875C414.871 74.375 415 73.8047 415 73.1641C415 72.5781 414.871 72.0273 414.613 71.5117C414.363 70.9961 413.965 70.582 413.418 70.2695C412.871 69.9492 412.156 69.7891 411.273 69.7891H407.242V85H404.98V67.9375H411.273C412.562 67.9375 413.652 68.1602 414.543 68.6055C415.434 69.0508 416.109 69.668 416.57 70.457C417.031 71.2383 417.262 72.1328 417.262 73.1406C417.262 74.2344 417.031 75.168 416.57 75.9414C416.109 76.7148 415.434 77.3047 414.543 77.7109C413.652 78.1094 412.562 78.3086 411.273 78.3086ZM431.266 75.2734V77.1133H422.031V75.2734H431.266ZM422.383 67.9375V85H420.121V67.9375H422.383ZM433.234 67.9375V85H430.984V67.9375H433.234ZM443.547 78.3086H438.988V76.4688H443.547C444.43 76.4688 445.145 76.3281 445.691 76.0469C446.238 75.7656 446.637 75.375 446.887 74.875C447.145 74.375 447.273 73.8047 447.273 73.1641C447.273 72.5781 447.145 72.0273 446.887 71.5117C446.637 70.9961 446.238 70.582 445.691 70.2695C445.145 69.9492 444.43 69.7891 443.547 69.7891H439.516V85H437.254V67.9375H443.547C444.836 67.9375 445.926 68.1602 446.816 68.6055C447.707 69.0508 448.383 69.668 448.844 70.457C449.305 71.2383 449.535 72.1328 449.535 73.1406C449.535 74.2344 449.305 75.168 448.844 75.9414C448.383 76.7148 447.707 77.3047 446.816 77.7109C445.926 78.1094 444.836 78.3086 443.547 78.3086Z" fill="white"/>
</g>
<defs>
<clipPath id="clip0_2042_221">
<rect width="690" height="350" fill="white"/>
</clipPath>
</defs>
</svg>
