<svg width="690" height="350" viewBox="0 0 690 350" fill="none" xmlns="http://www.w3.org/2000/svg">
<path d="M68.553 343H619.813C624.205 308.364 622.709 267.23 608.575 235.769C593.669 202.595 563.811 178.483 530.767 169.015C497.723 159.545 461.954 163.998 430.352 178.069C408.295 187.89 388.137 202.177 366.071 211.973C329.81 228.072 288.779 231.397 250.693 221.325C219.531 213.083 189.806 196.094 157.717 196.078C126.534 196.063 95.7798 213.488 78.1017 241.183C60.4236 268.878 57.3975 311.604 68.553 343Z" fill="#C7ECFB"/>
<path d="M160.918 266.045C160.918 273.504 166.523 279.549 173.438 279.549H527.21C534.125 279.549 539.73 273.504 539.73 266.045V59.3828H160.918V266.045Z" fill="#160156"/>
<path d="M527.21 29H173.438C166.523 29 160.918 35.0456 160.918 42.5041V59.3815H539.728V42.5041C539.728 35.0456 534.123 29 527.21 29Z" fill="#373660"/>
<path d="M187.764 46.3756C188.334 43.7821 186.847 41.181 184.443 40.5658C182.038 39.9506 179.627 41.5543 179.056 44.1478C178.486 46.7413 179.973 49.3425 182.377 49.9576C184.782 50.5728 187.194 48.9691 187.764 46.3756Z" fill="#FFC967"/>
<path d="M205.287 46.0377C205.684 43.4069 204.028 40.9269 201.589 40.4986C199.15 40.0703 196.851 41.8557 196.453 44.4865C196.056 47.1173 197.712 49.5972 200.151 50.0256C202.59 50.4539 204.889 48.6685 205.287 46.0377Z" fill="white"/>
<path d="M222.747 46.0377C223.144 43.4069 221.489 40.927 219.05 40.4986C216.611 40.0703 214.312 41.8557 213.914 44.4865C213.517 47.1173 215.173 49.5972 217.612 50.0256C220.051 50.4539 222.35 48.6685 222.747 46.0377Z" fill="white"/>
<path d="M269.807 123H268.954V122.173H269.807V123ZM268.101 123H267.248V122.173H268.101V123ZM266.395 123H265.542V122.173H266.395V123ZM264.688 123H263.835V122.173H264.688V123ZM262.982 123H262.129V122.173H262.982V123ZM261.276 123H260.423V122.173H261.276V123ZM259.57 123H258.717V122.173H259.57V123ZM257.864 123H257.011V122.173H257.864V123ZM256.158 123H255.305V122.173H256.158V123ZM254.452 123H253.599V122.173H254.452V123ZM252.745 123H251.892V122.173H252.745V123ZM251.039 123H250.186V122.173H251.039V123ZM249.333 123H248.48V122.173H249.333V123ZM247.627 123H246.774V122.173H247.627V123ZM245.921 123H245.068V122.173H245.921V123ZM244.215 123H243.362V122.173H244.215V123ZM242.508 123H241.655V122.173H242.508V123ZM240.801 123H239.948V122.173H240.801V123ZM239.095 123H238.242V122.173H239.095V123ZM237.389 123H236.536V122.173H237.389V123ZM235.683 123H234.83V122.173H235.683V123ZM233.977 123H233.124V122.173H233.977V123ZM232.271 123H231.418V122.173H232.271V123ZM230.565 123H229.712V122.173H230.565V123ZM228.859 123H228.005V122.173H228.859V123ZM227.152 123H226.299V122.173H227.152V123ZM225.446 123H224.593V122.173H225.446V123ZM223.74 123H222.887V122.173H223.74V123ZM222.034 123H221.181V122.173H222.034V123ZM220.328 123H219.475V122.173H220.328V123ZM218.622 123H217.769V122.173H218.622V123ZM216.916 123H216.062V122.173H216.916V123ZM215.209 123H214.356V122.173H215.209V123ZM213.503 123H212.65V122.173H213.503V123ZM211.796 123H210.943V122.173H211.796V123ZM210.09 123H209.237V122.173H210.09V123ZM208.384 123H207.531V122.173H208.384V123ZM206.678 123H205.825V122.173H206.678V123ZM204.972 123H204.118V122.173H204.972V123ZM203.265 123H202.412V122.173H203.265V123ZM201.559 123H200.706V122.173H201.559V123ZM199.853 123H199V122.173H199.853V123ZM198.147 123H197.294V122.173H198.147V123ZM196.441 123H195.588V122.173H196.441V123ZM194.735 123H193.882V122.173H194.735V123ZM193.029 123H192.175V122.173H193.029V123ZM191.322 123H190.469V122.173H191.322V123ZM189.616 123H188.763V122.173H189.616V123ZM188.386 121.981H188V120.154H188.386V121.981ZM270 121.653H269.614V119.827H270V121.653ZM188.386 118.327H188V116.501H188.386V118.327ZM270 118H269.614V116.174H270V118ZM188.386 114.674H188V112.848H188.386V114.674ZM270 114.347H269.614V112.52H270V114.347ZM188.386 111.019H188V109.192H188.386V111.019ZM270 110.694H269.614V108.867H270V110.694ZM188.386 107.366H188V105.539H188.386V107.366ZM270 107.041H269.614V105.214H270V107.041ZM188.386 103.712H188V101.886H188.386V103.712ZM270 103.387H269.614V101.561H270V103.387ZM188.386 100.059H188V98.2327H188.386V100.059ZM270 99.732H269.614V97.9054H270V99.732ZM188.386 96.4061H188V94.5795H188.386V96.4061ZM270 96.0788H269.614V94.2523H270V96.0788ZM188.386 92.7529H188V90.9263H188.386V92.7529ZM270 92.4257H269.614V90.5991H270V92.4257ZM188.386 89.0998H188V87.2732H188.386V89.0998ZM270 88.7725H269.614V86.9459H270V88.7725ZM188.386 85.4466H188V83.62H188.386V85.4466ZM270 85.1193H269.614V83.2927H270V85.1193ZM188.386 81.7934H188V80H188.402V80.827H188.386V81.7934ZM270 81.4661H269.614V80.827H269.445V80H270V81.4661ZM268.593 80.827H267.74V80H268.593V80.827ZM266.887 80.827H266.034V80H266.887V80.827ZM265.181 80.827H264.328V80H265.181V80.827ZM263.475 80.827H262.622V80H263.475V80.827ZM261.769 80.827H260.916V80H261.769V80.827ZM260.063 80.827H259.21V80H260.063V80.827ZM258.355 80.827H257.502V80H258.355V80.827ZM256.649 80.827H255.796V80H256.649V80.827ZM254.943 80.827H254.09V80H254.943V80.827ZM253.237 80.827H252.384V80H253.237V80.827ZM251.531 80.827H250.678V80H251.531V80.827ZM249.825 80.827H248.972V80H249.825V80.827ZM248.119 80.827H247.266V80H248.119V80.827ZM246.413 80.827H245.559V80H246.413V80.827ZM244.706 80.827H243.853V80H244.706V80.827ZM243 80.827H242.147V80H243V80.827ZM241.294 80.827H240.441V80H241.294V80.827ZM239.588 80.827H238.735V80H239.588V80.827ZM237.882 80.827H237.029V80H237.882V80.827ZM236.176 80.827H235.323V80H236.176V80.827ZM234.47 80.827H233.616V80H234.47V80.827ZM232.763 80.827H231.91V80H232.763V80.827ZM231.057 80.827H230.204V80H231.057V80.827ZM229.351 80.827H228.498V80H229.351V80.827ZM227.645 80.827H226.792V80H227.645V80.827ZM225.938 80.827H225.085V80H225.938V80.827ZM224.232 80.827H223.379V80H224.232V80.827ZM222.526 80.827H221.672V80H222.526V80.827ZM220.819 80.827H219.966V80H220.819V80.827ZM219.113 80.827H218.26V80H219.113V80.827ZM217.407 80.827H216.554V80H217.407V80.827ZM215.701 80.827H214.848V80H215.701V80.827ZM213.995 80.827H213.142V80H213.995V80.827ZM212.289 80.827H211.436V80H212.289V80.827ZM210.583 80.827H209.73V80H210.583V80.827ZM208.876 80.827H208.023V80H208.876V80.827ZM207.17 80.827H206.317V80H207.17V80.827ZM205.464 80.827H204.611V80H205.464V80.827ZM203.758 80.827H202.905V80H203.758V80.827ZM202.052 80.827H201.199V80H202.052V80.827ZM200.346 80.827H199.493V80H200.346V80.827ZM198.639 80.827H197.786V80H198.639V80.827ZM196.932 80.827H196.079V80H196.932V80.827ZM195.226 80.827H194.373V80H195.226V80.827ZM193.52 80.827H192.667V80H193.52V80.827ZM191.814 80.827H190.961V80H191.814V80.827ZM190.108 80.827H189.255V80H190.108V80.827Z" fill="white"/>
<path d="M209.856 101.381L219.957 106.517V110.112L208 103.16V101.051L209.856 101.381ZM219.957 97.1619L209.871 102.371L208 102.628V100.5L219.957 93.5667V97.1619Z" fill="white"/>
<path d="M233.652 87L224.78 116H222.456L231.343 87H233.652Z" fill="white"/>
<path d="M246.91 102.114L236.517 97.0335V93.53L249 100.464V102.61L246.91 102.114ZM236.517 106.59L246.939 101.399L249 101.014V103.142L236.517 110.094V106.59Z" fill="white"/>
<path d="M401.046 123.353H399.342V122.521H401.046V123.353ZM397.638 123.353H395.934V122.521H397.638V123.353ZM394.23 123.353H392.525V122.521H394.23V123.353ZM390.821 123.353H389.117V122.521H390.821V123.353ZM387.413 123.353H385.709V122.521H387.413V123.353ZM384.005 123.353H382.301V122.521H384.005V123.353ZM380.597 123.353H378.893V122.521H380.597V123.353ZM377.189 123.353H375.485V122.521H377.189V123.353ZM373.781 123.353H372.077V122.521H373.781V123.353ZM370.371 123.353H368.667V122.521H370.371V123.353ZM366.963 123.353H365.259V122.521H366.963V123.353ZM363.555 123.353H361.851V122.521H363.555V123.353ZM360.147 123.353H358.442V122.521H360.147V123.353ZM356.738 123.353H355.034V122.521H356.738V123.353ZM353.877 122.766H353.105V120.928H353.877V122.766ZM401.431 121.121H400.66V119.283H401.431V121.121ZM353.877 119.087H353.105V117.25H353.877V119.087ZM401.431 117.445H400.66V115.607H401.431V117.445ZM353.877 115.412H353.105V113.574H353.877V115.412ZM401.431 113.769H400.66V111.932H401.431V113.769ZM353.877 111.736H353.105V109.898H353.877V111.736ZM401.431 110.094H400.66V108.256H401.431V110.094ZM353.877 108.06H353.105V106.222H353.877V108.06ZM401.431 106.418H400.66V104.58H401.431V106.418ZM353.877 104.384H353.105V102.546H353.877V104.384ZM401.431 102.742H400.66V100.904H401.431V102.742ZM353.877 100.708H353.105V98.8702H353.877V100.708ZM401.431 99.066H400.66V97.2281H401.431V99.066ZM353.877 97.0323H353.105V95.1944H353.877V97.0323ZM401.431 95.3901H400.66V93.5522H401.431V95.3901ZM353.877 93.3564H353.105V91.5185H353.877V93.3564ZM401.431 91.7143H400.66V89.8764H401.431V91.7143ZM353.877 89.6806H353.105V87.8426H353.877V89.6806ZM401.431 88.0384H400.66V86.2005H401.431V88.0384ZM353.877 86.0047H353.105V84.1668H353.877V86.0047ZM401.431 84.3626H400.66V82.5246H401.431V84.3626ZM353.877 82.3288H353.105V80.0859H353.491L353.495 80.502H353.877V82.3288ZM401.046 80.9181H399.513V80.0859H401.431V80.6867H401.046V80.9181ZM397.809 80.9181H396.105V80.0859H397.809V80.9181ZM394.401 80.9181H392.697V80.0859H394.401V80.9181ZM390.993 80.9181H389.289V80.0859H390.993V80.9181ZM387.583 80.9181H385.878V80.0859H387.583V80.9181ZM384.174 80.9181H382.47V80.0859H384.174V80.9181ZM380.766 80.9181H379.062V80.0859H380.766V80.9181ZM377.358 80.9181H375.654V80.0859H377.358V80.9181ZM373.95 80.9181H372.246V80.0859H373.95V80.9181ZM370.542 80.9181H368.838V80.0859H370.542V80.9181ZM367.134 80.9181H365.43V80.0859H367.134V80.9181ZM363.726 80.9181H362.022V80.0859H363.726V80.9181ZM360.318 80.9181H358.614V80.0859H360.318V80.9181ZM356.91 80.9181H355.206V80.0859H356.91V80.9181Z" fill="white"/>
<path d="M341.94 124.267H340.236V123.435H341.94V124.267ZM338.532 124.267H336.828V123.435H338.532V124.267ZM335.124 124.267H333.42V123.435H335.124V124.267ZM331.716 124.267H330.012V123.435H331.716V124.267ZM328.308 124.267H326.604V123.435H328.308V124.267ZM324.9 124.267H323.196V123.435H324.9V124.267ZM321.492 124.267H319.788V123.435H321.492V124.267ZM318.084 124.267H316.38V123.435H318.084V124.267ZM314.675 124.267H312.971V123.435H314.675V124.267ZM311.265 124.267H309.561V123.435H311.265V124.267ZM307.857 124.267H306.153V123.435H307.857V124.267ZM304.449 124.267H302.745V123.435H304.449V124.267ZM301.041 124.267H299.337V123.435H301.041V124.267ZM297.633 124.267H295.929V123.435H297.633V124.267ZM294.772 123.68H294V121.842H294.772V123.68ZM342.326 122.035H341.554V120.197H342.326V122.035ZM294.772 120.001H294V118.164H294.772V120.001ZM342.326 118.359H341.554V116.521H342.326V118.359ZM294.772 116.326H294V114.488H294.772V116.326ZM342.326 114.684H341.554V112.846H342.326V114.684ZM294.772 112.65H294V110.812H294.772V112.65ZM342.326 111.008H341.554V109.17H342.326V111.008ZM294.772 108.974H294V107.136H294.772V108.974ZM342.326 107.332H341.554V105.494H342.326V107.332ZM294.772 105.298H294V103.46H294.772V105.298ZM342.326 103.656H341.554V101.818H342.326V103.656ZM294.772 101.622H294V99.7843H294.772V101.622ZM342.326 99.9801H341.554V98.1421H342.326V99.9801ZM294.772 97.9463H294V96.1084H294.772V97.9463ZM342.326 96.3042H341.554V94.4663H342.326V96.3042ZM294.772 94.2705H294V92.4326H294.772V94.2705ZM342.326 92.6284H341.554V90.7904H342.326V92.6284ZM294.772 90.5946H294V88.7567H294.772V90.5946ZM342.326 88.9525H341.554V87.1146H342.326V88.9525ZM294.772 86.9188H294V85.0808H294.772V86.9188ZM342.326 85.2766H341.554V83.4387H342.326V85.2766ZM294.772 83.2429H294V81H294.386L294.39 81.4161H294.772V83.2429ZM341.94 81.8322H340.407V81H342.326V81.6008H341.94V81.8322ZM338.703 81.8322H336.999V81H338.703V81.8322ZM335.295 81.8322H333.591V81H335.295V81.8322ZM331.887 81.8322H330.183V81H331.887V81.8322ZM328.477 81.8322H326.773V81H328.477V81.8322ZM325.069 81.8322H323.365V81H325.069V81.8322ZM321.661 81.8322H319.957V81H321.661V81.8322ZM318.253 81.8322H316.549V81H318.253V81.8322ZM314.845 81.8322H313.141V81H314.845V81.8322ZM311.437 81.8322H309.733V81H311.437V81.8322ZM308.028 81.8322H306.324V81H308.028V81.8322ZM304.62 81.8322H302.916V81H304.62V81.8322ZM301.212 81.8322H299.508V81H301.212V81.8322ZM297.804 81.8322H296.1V81H297.804V81.8322Z" fill="white"/>
<path d="M458.226 123.353H456.522V122.521H458.226V123.353ZM454.817 123.353H453.113V122.521H454.817V123.353ZM451.409 123.353H449.705V122.521H451.409V123.353ZM448.001 123.353H446.297V122.521H448.001V123.353ZM444.593 123.353H442.889V122.521H444.593V123.353ZM441.185 123.353H439.481V122.521H441.185V123.353ZM437.777 123.353H436.073V122.521H437.777V123.353ZM434.369 123.353H432.665V122.521H434.369V123.353ZM430.961 123.353H429.257V122.521H430.961V123.353ZM427.553 123.353H425.849V122.521H427.553V123.353ZM424.145 123.353H422.44V122.521H424.145V123.353ZM420.736 123.353H419.032V122.521H420.736V123.353ZM417.328 123.353H415.624V122.521H417.328V123.353ZM413.92 123.353H412.216V122.521H413.92V123.353ZM411.057 122.766H410.285V120.928H411.057V122.766ZM458.611 121.121H457.84V119.283H458.611V121.121ZM411.057 119.087H410.285V117.25H411.057V119.087ZM458.611 117.445H457.84V115.607H458.611V117.445ZM411.057 115.412H410.285V113.574H411.057V115.412ZM458.611 113.769H457.84V111.932H458.611V113.769ZM411.057 111.736H410.285V109.898H411.057V111.736ZM458.611 110.094H457.84V108.256H458.611V110.094ZM411.057 108.06H410.285V106.222H411.057V108.06ZM458.611 106.418H457.84V104.58H458.611V106.418ZM411.057 104.384H410.285V102.546H411.057V104.384ZM458.611 102.742H457.84V100.904H458.611V102.742ZM411.057 100.708H410.285V98.8702H411.057V100.708ZM458.611 99.066H457.84V97.2281H458.611V99.066ZM411.057 97.0323H410.285V95.1944H411.057V97.0323ZM458.611 95.3901H457.84V93.5522H458.611V95.3901ZM411.057 93.3564H410.285V91.5185H411.057V93.3564ZM458.611 91.7143H457.84V89.8764H458.611V91.7143ZM411.057 89.6806H410.285V87.8426H411.057V89.6806ZM458.611 88.0384H457.84V86.2005H458.611V88.0384ZM411.057 86.0047H410.285V84.1668H411.057V86.0047ZM458.611 84.3626H457.84V82.5246H458.611V84.3626ZM411.057 82.3288H410.285V80.0859H410.671L410.675 80.502H411.057V82.3288ZM458.226 80.9181H456.693V80.0859H458.611V80.6867H458.226V80.9181ZM454.989 80.9181H453.285V80.0859H454.989V80.9181ZM451.581 80.9181H449.877V80.0859H451.581V80.9181ZM448.172 80.9181H446.468V80.0859H448.172V80.9181ZM444.764 80.9181H443.06V80.0859H444.764V80.9181ZM441.356 80.9181H439.652V80.0859H441.356V80.9181ZM437.948 80.9181H436.244V80.0859H437.948V80.9181ZM434.54 80.9181H432.836V80.0859H434.54V80.9181ZM431.132 80.9181H429.428V80.0859H431.132V80.9181ZM427.724 80.9181H426.02V80.0859H427.724V80.9181ZM424.316 80.9181H422.612V80.0859H424.316V80.9181ZM420.908 80.9181H419.204V80.0859H420.908V80.9181ZM417.497 80.9181H415.793V80.0859H417.497V80.9181ZM414.089 80.9181H412.385V80.0859H414.089V80.9181Z" fill="white"/>
<path d="M514.882 123.353H513.178V122.521H514.882V123.353ZM511.471 123.353H509.767V122.521H511.471V123.353ZM508.063 123.353H506.359V122.521H508.063V123.353ZM504.655 123.353H502.951V122.521H504.655V123.353ZM501.247 123.353H499.543V122.521H501.247V123.353ZM497.839 123.353H496.135V122.521H497.839V123.353ZM494.431 123.353H492.727V122.521H494.431V123.353ZM491.023 123.353H489.319V122.521H491.023V123.353ZM487.615 123.353H485.911V122.521H487.615V123.353ZM484.207 123.353H482.503V122.521H484.207V123.353ZM480.799 123.353H479.095V122.521H480.799V123.353ZM477.391 123.353H475.686V122.521H477.391V123.353ZM473.982 123.353H472.278V122.521H473.982V123.353ZM470.574 123.353H468.87V122.521H470.574V123.353ZM467.713 122.766H466.941V120.928H467.713V122.766ZM515.265 121.121H514.494V119.283H515.265V121.121ZM467.713 119.087H466.941V117.25H467.713V119.087ZM515.265 117.445H514.494V115.607H515.265V117.445ZM467.713 115.412H466.941V113.574H467.713V115.412ZM515.265 113.769H514.494V111.932H515.265V113.769ZM467.713 111.736H466.941V109.898H467.713V111.736ZM515.265 110.094H514.494V108.256H515.265V110.094ZM467.713 108.06H466.941V106.222H467.713V108.06ZM515.265 106.418H514.494V104.58H515.265V106.418ZM467.713 104.384H466.941V102.546H467.713V104.384ZM515.265 102.742H514.494V100.904H515.265V102.742ZM467.713 100.708H466.941V98.8702H467.713V100.708ZM515.265 99.066H514.494V97.2281H515.265V99.066ZM467.713 97.0323H466.941V95.1944H467.713V97.0323ZM515.265 95.3901H514.494V93.5522H515.265V95.3901ZM467.713 93.3564H466.941V91.5185H467.713V93.3564ZM515.265 91.7143H514.494V89.8764H515.265V91.7143ZM467.713 89.6806H466.941V87.8426H467.713V89.6806ZM515.265 88.0384H514.494V86.2005H515.265V88.0384ZM467.713 86.0047H466.941V84.1668H467.713V86.0047ZM515.265 84.3626H514.494V82.5246H515.265V84.3626ZM467.713 82.3288H466.941V80.0859H467.327L467.331 80.502H467.713V82.3288ZM514.882 80.9181H513.349V80.0859H515.267V80.6867H514.882V80.9181ZM511.643 80.9181H509.939V80.0859H511.643V80.9181ZM508.235 80.9181H506.531V80.0859H508.235V80.9181ZM504.827 80.9181H503.122V80.0859H504.827V80.9181ZM501.418 80.9181H499.714V80.0859H501.418V80.9181ZM498.01 80.9181H496.306V80.0859H498.01V80.9181ZM494.602 80.9181H492.898V80.0859H494.602V80.9181ZM491.194 80.9181H489.49V80.0859H491.194V80.9181ZM487.786 80.9181H486.082V80.0859H487.786V80.9181ZM484.378 80.9181H482.674V80.0859H484.378V80.9181ZM480.97 80.9181H479.266V80.0859H480.97V80.9181ZM477.562 80.9181H475.858V80.0859H477.562V80.9181ZM474.152 80.9181H472.448V80.0859H474.152V80.9181ZM470.744 80.9181H469.039V80.0859H470.744V80.9181Z" fill="white"/>
<path d="M341.964 249.393H340.26V248.561H341.964V249.393ZM338.556 249.393H336.852V248.561H338.556V249.393ZM335.148 249.393H333.444V248.561H335.148V249.393ZM331.74 249.393H330.036V248.561H331.74V249.393ZM328.332 249.393H326.628V248.561H328.332V249.393ZM324.923 249.393H323.219V248.561H324.923V249.393ZM321.515 249.393H319.811V248.561H321.515V249.393ZM318.107 249.393H316.403V248.561H318.107V249.393ZM314.699 249.393H312.995V248.561H314.699V249.393ZM311.291 249.393H309.587V248.561H311.291V249.393ZM307.883 249.393H306.179V248.561H307.883V249.393ZM304.475 249.393H302.771V248.561H304.475V249.393ZM301.067 249.393H299.363V248.561H301.067V249.393ZM297.659 249.393H295.955V248.561H297.659V249.393ZM294.251 249.393H292.547V248.561H294.251V249.393ZM290.843 249.393H289.138V248.561H290.843V249.393ZM287.432 249.393H285.728V248.561H287.432V249.393ZM284.024 249.393H282.32V248.561H284.024V249.393ZM280.616 249.393H278.912V248.561H280.616V249.393ZM277.208 249.393H275.504V248.561H277.208V249.393ZM273.8 249.393H272.096V248.561H273.8V249.393ZM270.392 249.393H268.688V248.561H270.392V249.393ZM266.984 249.393H265.28V248.561H266.984V249.393ZM263.576 249.393H261.872V248.561H263.576V249.393ZM260.168 249.393H258.464V248.561H260.168V249.393ZM256.76 249.393H255.055V248.561H256.76V249.393ZM253.351 249.393H251.647V248.561H253.351V249.393ZM249.943 249.393H248.239V248.561H249.943V249.393ZM246.535 249.393H244.831V248.561H246.535V249.393ZM243.127 249.393H241.423V248.561H243.127V249.393ZM239.719 249.393H238.015V248.561H239.719V249.393ZM236.311 249.393H234.607V248.561H236.311V249.393ZM232.903 249.393H231.199V248.561H232.903V249.393ZM229.495 249.393H227.791V248.561H229.495V249.393ZM226.085 249.393H224.381V248.561H226.085V249.393ZM222.677 249.393H220.972V248.561H222.677V249.393ZM219.268 249.393H217.564V248.561H219.268V249.393ZM215.86 249.393H214.156V248.561H215.86V249.393ZM212.452 249.393H210.748V248.561H212.452V249.393ZM209.044 249.393H207.34V248.561H209.044V249.393ZM205.636 249.393H203.932V248.561H205.636V249.393ZM202.228 249.393H200.524V248.561H202.228V249.393ZM198.82 249.393H197.116V248.561H198.82V249.393ZM195.412 249.393H193.708V248.561H195.412V249.393ZM192.004 249.393H190.3V248.561H192.004V249.393ZM188.596 249.393H186.892V248.561H188.596V249.393ZM185.187 249.393H183.483V248.561H185.187V249.393ZM181.779 249.393H180.075V248.561H181.779V249.393ZM179.322 248.365H178.551V246.527H179.322V248.365ZM342.35 247.889H341.578V246.051H342.35V247.889ZM179.322 244.689H178.551V242.851H179.322V244.689ZM342.35 244.211H341.578V242.373H342.35V244.211ZM179.322 241.013H178.551V239.176H179.322V241.013ZM342.35 240.535H341.578V238.697H342.35V240.535ZM179.322 237.338H178.551V235.5H179.322V237.338ZM342.35 236.859H341.578V235.021H342.35V236.859ZM179.322 233.662H178.551V231.824H179.322V233.662ZM342.35 233.183H341.578V231.345H342.35V233.183ZM179.322 229.986H178.551V228.148H179.322V229.986ZM342.35 229.507H341.578V227.67H342.35V229.507ZM179.322 226.31H178.551V224.472H179.322V226.31ZM342.35 225.832H341.578V223.994H342.35V225.832ZM179.322 222.634H178.551V220.796H179.322V222.634ZM342.35 222.156H341.578V220.318H342.35V222.156ZM179.322 218.958H178.551V217.12H179.322V218.958ZM342.35 218.48H341.578V216.642H342.35V218.48ZM179.322 215.282H178.551V213.445H179.322V215.282ZM342.35 214.804H341.578V212.966H342.35V214.804ZM179.322 211.607H178.551V209.769H179.322V211.607ZM342.35 211.128H341.578V209.29H342.35V211.128ZM179.322 207.931H178.551V206.093H179.322V207.931ZM342.35 207.452H341.578V205.614H342.35V207.452ZM179.322 204.255H178.551V202.417H179.322V204.255ZM342.35 203.776H341.578V201.939H342.35V203.776ZM179.322 200.579H178.551V198.741H179.322V200.579ZM342.35 200.101H341.578V198.263H342.35V200.101ZM179.322 196.901H178.551V195.063H179.322V196.901ZM342.35 196.425H341.578V194.587H342.35V196.425ZM179.322 193.225H178.551V191.387H179.322V193.225ZM342.35 192.749H341.578V190.911H342.35V192.749ZM179.322 189.549H178.551V187.711H179.322V189.549ZM342.35 189.073H341.578V187.235H342.35V189.073ZM179.322 185.873H178.551V184.035H179.322V185.873ZM342.35 185.397H341.578V183.559H342.35V185.397ZM179.322 182.197H178.551V180.36H179.322V182.197ZM342.35 181.721H341.578V179.883H342.35V181.721ZM179.322 178.522H178.551V176.684H179.322V178.522ZM342.35 178.043H341.578V176.205H342.35V178.043ZM179.322 174.846H178.551V173.008H179.322V174.846ZM342.35 174.367H341.578V172.529H342.35V174.367ZM179.322 171.17H178.551V169.332H179.322V171.17ZM342.35 170.692H341.578V168.854H342.35V170.692ZM179.322 167.494H178.551V165.656H179.322V167.494ZM342.35 167.016H341.578V165.178H342.35V167.016ZM179.322 163.818H178.551V161.98H179.322V163.818ZM342.35 163.34H341.578V161.502H342.35V163.34ZM179.322 160.142H178.551V158.304H179.322V160.142ZM342.35 159.664H341.578V157.826H342.35V159.664ZM179.322 156.466H178.551V154.629H179.322V156.466ZM342.35 155.988H341.578V154.15H342.35V155.988ZM179.322 152.791H178.551V150.953H179.322V152.791ZM342.35 152.312H341.578V150.474H342.35V152.312ZM179.322 149.115H178.551V147.277H179.322V149.115ZM342.35 148.636H341.578V146.798H342.35V148.636ZM179.322 145.439H178.551V143.601H179.322V145.439ZM342.35 144.96H341.578V143.123H342.35V144.96ZM179.322 141.763H178.551V139.883H179.283V140.299H179.322V141.763ZM342.35 141.285H341.578V140.715H341.174V139.883H342.35V141.285ZM339.47 140.715H337.766V139.883H339.47V140.715ZM336.062 140.715H334.358V139.883H336.062V140.715ZM332.654 140.715H330.95V139.883H332.654V140.715ZM329.245 140.715H327.541V139.883H329.245V140.715ZM325.837 140.715H324.133V139.883H325.837V140.715ZM322.429 140.715H320.725V139.883H322.429V140.715ZM319.021 140.715H317.317V139.883H319.021V140.715ZM315.613 140.715H313.909V139.883H315.613V140.715ZM312.205 140.715H310.501V139.883H312.205V140.715ZM308.797 140.715H307.093V139.883H308.797V140.715ZM305.389 140.715H303.685V139.883H305.389V140.715ZM301.981 140.715H300.277V139.883H301.981V140.715ZM298.573 140.715H296.869V139.883H298.573V140.715ZM295.165 140.715H293.461V139.883H295.165V140.715ZM291.756 140.715H290.052V139.883H291.756V140.715ZM288.348 140.715H286.644V139.883H288.348V140.715ZM284.938 140.715H283.234V139.883H284.938V140.715ZM281.53 140.715H279.826V139.883H281.53V140.715ZM278.122 140.715H276.418V139.883H278.122V140.715ZM274.714 140.715H273.01V139.883H274.714V140.715ZM271.306 140.715H269.602V139.883H271.306V140.715ZM267.898 140.715H266.194V139.883H267.898V140.715ZM264.49 140.715H262.786V139.883H264.49V140.715ZM261.082 140.715H259.377V139.883H261.082V140.715ZM257.673 140.715H255.969V139.883H257.673V140.715ZM254.265 140.715H252.561V139.883H254.265V140.715ZM250.857 140.715H249.153V139.883H250.857V140.715ZM247.449 140.715H245.745V139.883H247.449V140.715ZM244.041 140.715H242.337V139.883H244.041V140.715ZM240.633 140.715H238.929V139.883H240.633V140.715ZM237.225 140.715H235.521V139.883H237.225V140.715ZM233.817 140.715H232.113V139.883H233.817V140.715ZM230.409 140.715H228.705V139.883H230.409V140.715ZM226.999 140.715H225.294V139.883H226.999V140.715ZM223.59 140.715H221.886V139.883H223.59V140.715ZM220.182 140.715H218.478V139.883H220.182V140.715ZM216.774 140.715H215.07V139.883H216.774V140.715ZM213.366 140.715H211.662V139.883H213.366V140.715ZM209.958 140.715H208.254V139.883H209.958V140.715ZM206.55 140.715H204.846V139.883H206.55V140.715ZM203.142 140.715H201.438V139.883H203.142V140.715ZM199.734 140.715H198.03V139.883H199.734V140.715ZM196.326 140.715H194.622V139.883H196.326V140.715ZM192.918 140.715H191.214V139.883H192.918V140.715ZM189.509 140.715H187.805V139.883H189.509V140.715ZM186.101 140.715H184.397V139.883H186.101V140.715ZM182.693 140.715H180.989V139.883H182.693V140.715Z" fill="white"/>
<path d="M515.964 249.393H514.26V248.561H515.964V249.393ZM512.556 249.393H510.852V248.561H512.556V249.393ZM509.148 249.393H507.444V248.561H509.148V249.393ZM505.74 249.393H504.036V248.561H505.74V249.393ZM502.332 249.393H500.628V248.561H502.332V249.393ZM498.924 249.393H497.219V248.561H498.924V249.393ZM495.515 249.393H493.811V248.561H495.515V249.393ZM492.107 249.393H490.403V248.561H492.107V249.393ZM488.697 249.393H486.993V248.561H488.697V249.393ZM485.289 249.393H483.585V248.561H485.289V249.393ZM481.881 249.393H480.177V248.561H481.881V249.393ZM478.473 249.393H476.769V248.561H478.473V249.393ZM475.065 249.393H473.361V248.561H475.065V249.393ZM471.657 249.393H469.953V248.561H471.657V249.393ZM468.249 249.393H466.545V248.561H468.249V249.393ZM464.84 249.393H463.136V248.561H464.84V249.393ZM461.432 249.393H459.728V248.561H461.432V249.393ZM458.024 249.393H456.32V248.561H458.024V249.393ZM454.616 249.393H452.912V248.561H454.616V249.393ZM451.208 249.393H449.504V248.561H451.208V249.393ZM447.8 249.393H446.096V248.561H447.8V249.393ZM444.392 249.393H442.688V248.561H444.392V249.393ZM440.984 249.393H439.28V248.561H440.984V249.393ZM437.576 249.393H435.872V248.561H437.576V249.393ZM434.168 249.393H432.464V248.561H434.168V249.393ZM430.757 249.393H429.053V248.561H430.757V249.393ZM427.349 249.393H425.645V248.561H427.349V249.393ZM423.941 249.393H422.237V248.561H423.941V249.393ZM420.533 249.393H418.829V248.561H420.533V249.393ZM417.125 249.393H415.421V248.561H417.125V249.393ZM413.717 249.393H412.013V248.561H413.717V249.393ZM410.309 249.393H408.605V248.561H410.309V249.393ZM406.901 249.393H405.197V248.561H406.901V249.393ZM403.493 249.393H401.789V248.561H403.493V249.393ZM400.085 249.393H398.381V248.561H400.085V249.393ZM396.677 249.393H394.972V248.561H396.677V249.393ZM393.268 249.393H391.564V248.561H393.268V249.393ZM389.86 249.393H388.156V248.561H389.86V249.393ZM386.452 249.393H384.748V248.561H386.452V249.393ZM383.044 249.393H381.34V248.561H383.044V249.393ZM379.636 249.393H377.932V248.561H379.636V249.393ZM376.228 249.393H374.524V248.561H376.228V249.393ZM372.82 249.393H371.116V248.561H372.82V249.393ZM369.412 249.393H367.708V248.561H369.412V249.393ZM366.002 249.393H364.298V248.561H366.002V249.393ZM362.594 249.393H360.889V248.561H362.594V249.393ZM359.185 249.393H357.481V248.561H359.185V249.393ZM355.777 249.393H354.073V248.561H355.777V249.393ZM353.322 248.365H352.551V246.527H353.322V248.365ZM516.35 247.889H515.578V246.051H516.35V247.889ZM353.322 244.689H352.551V242.851H353.322V244.689ZM516.35 244.211H515.578V242.373H516.35V244.211ZM353.322 241.013H352.551V239.176H353.322V241.013ZM516.35 240.535H515.578V238.697H516.35V240.535ZM353.322 237.338H352.551V235.5H353.322V237.338ZM516.35 236.859H515.578V235.021H516.35V236.859ZM353.322 233.662H352.551V231.824H353.322V233.662ZM516.35 233.183H515.578V231.345H516.35V233.183ZM353.322 229.986H352.551V228.148H353.322V229.986ZM516.35 229.507H515.578V227.67H516.35V229.507ZM353.322 226.31H352.551V224.472H353.322V226.31ZM516.35 225.832H515.578V223.994H516.35V225.832ZM353.322 222.634H352.551V220.796H353.322V222.634ZM516.35 222.156H515.578V220.318H516.35V222.156ZM353.322 218.958H352.551V217.12H353.322V218.958ZM516.35 218.48H515.578V216.642H516.35V218.48ZM353.322 215.282H352.551V213.445H353.322V215.282ZM516.35 214.804H515.578V212.966H516.35V214.804ZM353.322 211.607H352.551V209.769H353.322V211.607ZM516.35 211.128H515.578V209.29H516.35V211.128ZM353.322 207.931H352.551V206.093H353.322V207.931ZM516.35 207.452H515.578V205.614H516.35V207.452ZM353.322 204.255H352.551V202.417H353.322V204.255ZM516.35 203.776H515.578V201.939H516.35V203.776ZM353.322 200.579H352.551V198.741H353.322V200.579ZM516.35 200.101H515.578V198.263H516.35V200.101ZM353.322 196.901H352.551V195.063H353.322V196.901ZM516.35 196.425H515.578V194.587H516.35V196.425ZM353.322 193.225H352.551V191.387H353.322V193.225ZM516.35 192.749H515.578V190.911H516.35V192.749ZM353.322 189.549H352.551V187.711H353.322V189.549ZM516.35 189.073H515.578V187.235H516.35V189.073ZM353.322 185.873H352.551V184.035H353.322V185.873ZM516.35 185.397H515.578V183.559H516.35V185.397ZM353.322 182.197H352.551V180.36H353.322V182.197ZM516.35 181.721H515.578V179.883H516.35V181.721ZM353.322 178.522H352.551V176.684H353.322V178.522ZM516.35 178.043H515.578V176.205H516.35V178.043ZM353.322 174.846H352.551V173.008H353.322V174.846ZM516.35 174.367H515.578V172.529H516.35V174.367ZM353.322 171.17H352.551V169.332H353.322V171.17ZM516.35 170.692H515.578V168.854H516.35V170.692ZM353.322 167.494H352.551V165.656H353.322V167.494ZM516.35 167.016H515.578V165.178H516.35V167.016ZM353.322 163.818H352.551V161.98H353.322V163.818ZM516.35 163.34H515.578V161.502H516.35V163.34ZM353.322 160.142H352.551V158.304H353.322V160.142ZM516.35 159.664H515.578V157.826H516.35V159.664ZM353.322 156.466H352.551V154.629H353.322V156.466ZM516.35 155.988H515.578V154.15H516.35V155.988ZM353.322 152.791H352.551V150.953H353.322V152.791ZM516.35 152.312H515.578V150.474H516.35V152.312ZM353.322 149.115H352.551V147.277H353.322V149.115ZM516.35 148.636H515.578V146.798H516.35V148.636ZM353.322 145.439H352.551V143.601H353.322V145.439ZM516.35 144.96H515.578V143.123H516.35V144.96ZM353.322 141.763H352.551V139.883H353.283V140.299H353.322V141.763ZM516.35 141.285H515.578V140.715H515.174V139.883H516.35V141.285ZM513.47 140.715H511.766V139.883H513.47V140.715ZM510.062 140.715H508.358V139.883H510.062V140.715ZM506.654 140.715H504.95V139.883H506.654V140.715ZM503.245 140.715H501.541V139.883H503.245V140.715ZM499.837 140.715H498.133V139.883H499.837V140.715ZM496.429 140.715H494.725V139.883H496.429V140.715ZM493.021 140.715H491.317V139.883H493.021V140.715ZM489.611 140.715H487.907V139.883H489.611V140.715ZM486.203 140.715H484.499V139.883H486.203V140.715ZM482.795 140.715H481.091V139.883H482.795V140.715ZM479.387 140.715H477.683V139.883H479.387V140.715ZM475.979 140.715H474.275V139.883H475.979V140.715ZM472.571 140.715H470.867V139.883H472.571V140.715ZM469.163 140.715H467.458V139.883H469.163V140.715ZM465.754 140.715H464.05V139.883H465.754V140.715ZM462.346 140.715H460.642V139.883H462.346V140.715ZM458.938 140.715H457.234V139.883H458.938V140.715ZM455.53 140.715H453.826V139.883H455.53V140.715ZM452.122 140.715H450.418V139.883H452.122V140.715ZM448.714 140.715H447.01V139.883H448.714V140.715ZM445.306 140.715H443.602V139.883H445.306V140.715ZM441.898 140.715H440.194V139.883H441.898V140.715ZM438.49 140.715H436.786V139.883H438.49V140.715ZM435.082 140.715H433.378V139.883H435.082V140.715ZM431.673 140.715H429.969V139.883H431.673V140.715ZM428.265 140.715H426.561V139.883H428.265V140.715ZM424.855 140.715H423.151V139.883H424.855V140.715ZM421.447 140.715H419.743V139.883H421.447V140.715ZM418.039 140.715H416.335V139.883H418.039V140.715ZM414.631 140.715H412.927V139.883H414.631V140.715ZM411.223 140.715H409.519V139.883H411.223V140.715ZM407.815 140.715H406.111V139.883H407.815V140.715ZM404.407 140.715H402.703V139.883H404.407V140.715ZM400.999 140.715H399.295V139.883H400.999V140.715ZM397.59 140.715H395.886V139.883H397.59V140.715ZM394.182 140.715H392.478V139.883H394.182V140.715ZM390.774 140.715H389.07V139.883H390.774V140.715ZM387.366 140.715H385.662V139.883H387.366V140.715ZM383.958 140.715H382.254V139.883H383.958V140.715ZM380.55 140.715H378.846V139.883H380.55V140.715ZM377.142 140.715H375.438V139.883H377.142V140.715ZM373.734 140.715H372.03V139.883H373.734V140.715ZM370.326 140.715H368.622V139.883H370.326V140.715ZM366.916 140.715H365.211V139.883H366.916V140.715ZM363.507 140.715H361.803V139.883H363.507V140.715ZM360.099 140.715H358.395V139.883H360.099V140.715ZM356.691 140.715H354.987V139.883H356.691V140.715Z" fill="white"/>
<path d="M307.678 268.056H191.103C189.345 268.056 187.922 266.521 187.922 264.625V188.83C187.922 186.934 189.345 185.398 191.103 185.398H307.678C309.435 185.398 310.859 186.934 310.859 188.83V264.625C310.859 266.521 309.435 268.056 307.678 268.056Z" fill="#BFBCBC"/>
<path d="M181.989 244.118L214.686 218.347C221.801 212.739 231.605 213.371 238.05 219.855L262.168 244.118L275.689 230.594C280.374 225.905 287.578 225.77 292.414 230.278L315.243 251.561V274.179H181.457L181.989 244.118Z" fill="white"/>
<path d="M271.013 210.638C271.806 205.373 268.49 200.411 263.608 199.557C258.726 198.702 254.125 202.278 253.333 207.544C252.541 212.809 255.856 217.771 260.738 218.626C265.621 219.48 270.221 215.904 271.013 210.638Z" fill="white"/>
<path d="M433.71 159.103H364.426C364.018 159.103 363.688 158.747 363.688 158.307V154.515C363.688 154.075 364.018 153.719 364.426 153.719H433.71C434.119 153.719 434.449 154.075 434.449 154.515V158.307C434.449 158.747 434.119 159.103 433.71 159.103Z" fill="white"/>
<path d="M433.71 171.494H364.426C364.018 171.494 363.688 171.138 363.688 170.698V166.906C363.688 166.465 364.018 166.109 364.426 166.109H433.71C434.119 166.109 434.449 166.465 434.449 166.906V170.698C434.449 171.136 434.119 171.494 433.71 171.494Z" fill="white"/>
<path d="M433.71 183.885H364.426C364.018 183.885 363.688 183.529 363.688 183.088V179.297C363.688 178.856 364.018 178.5 364.426 178.5H433.71C434.119 178.5 434.449 178.856 434.449 179.297V183.088C434.449 183.526 434.119 183.885 433.71 183.885Z" fill="white"/>
<path d="M433.71 196.275H364.426C364.018 196.275 363.688 195.919 363.688 195.479V191.687C363.688 191.247 364.018 190.891 364.426 190.891H433.71C434.119 190.891 434.449 191.247 434.449 191.687V195.479C434.449 195.919 434.119 196.275 433.71 196.275Z" fill="white"/>
<path d="M433.71 208.666H364.426C364.018 208.666 363.688 208.31 363.688 207.869V204.078C363.688 203.637 364.018 203.281 364.426 203.281H433.71C434.119 203.281 434.449 203.637 434.449 204.078V207.869C434.449 208.31 434.119 208.666 433.71 208.666Z" fill="white"/>
<path d="M433.71 221.049H364.426C364.018 221.049 363.688 220.693 363.688 220.252V216.461C363.688 216.02 364.018 215.664 364.426 215.664H433.71C434.119 215.664 434.449 216.02 434.449 216.461V220.252C434.449 220.693 434.119 221.049 433.71 221.049Z" fill="white"/>
<path d="M398.546 233.447H364.209C363.921 233.447 363.688 233.196 363.688 232.884V228.625C363.688 228.314 363.921 228.062 364.209 228.062H398.546C398.835 228.062 399.068 228.314 399.068 228.625V232.884C399.068 233.194 398.833 233.447 398.546 233.447Z" fill="white"/>
<path d="M503.909 239.39H447.983C447.23 239.39 446.621 238.731 446.621 237.921V154.64C446.621 153.828 447.232 153.172 447.983 153.172H503.909C504.662 153.172 505.27 153.83 505.27 154.64V237.919C505.27 238.731 504.66 239.39 503.909 239.39Z" fill="#D1D1D1"/>
<path d="M508.868 150.337L503.921 150.323L475.664 192.375L445.502 148.094L444.106 153.214L473.237 195.985L442.047 242.404L446.994 242.418L475.734 199.647L506.289 244.509L507.686 239.389L478.158 196.038L508.868 150.337Z" fill="#E8E8E8"/>
<path d="M127.668 81.5862C123.144 82.5741 120.631 89.5253 122.055 97.1151L123.307 103.793C123.804 106.445 124.078 109.14 124.126 111.845L124.297 121.609L134.742 119.293L132.823 109.068C137.348 108.08 139.86 101.129 138.437 93.5394C137.013 85.9518 132.192 80.5983 127.668 81.5862Z" fill="#FFD1C1"/>
<path d="M139.1 93.1105C139.1 93.1105 138.617 94.0873 136.141 93.7625C136.141 93.7625 132.682 94.895 130.769 92.9169C130.769 92.9169 125.554 94.0695 125.566 87.7636C125.579 81.4576 125.566 87.7636 125.566 87.7636L137.831 87.056L139.1 93.1105Z" fill="#FFB2A0"/>
<path d="M132.823 109.07C132.823 109.07 129.454 109.25 126.535 105.016C126.535 105.016 128.425 111.413 133.151 110.812L132.823 109.07Z" fill="#FFB2A0"/>
<path d="M125.568 87.7594C125.714 89.0611 126.48 90.3116 127.614 90.7789C128.749 91.2461 130.205 90.77 130.758 89.6018C131.187 90.5475 132.079 91.2283 133.046 91.353C134.014 91.4776 135.029 91.0392 135.652 90.2315C136.302 90.6721 137.16 90.6587 137.865 90.3272C138.571 89.9956 139.134 89.3837 139.567 88.6984C140.18 87.7305 140.562 86.5957 140.669 85.4297C140.75 84.5308 140.659 83.5851 140.23 82.8108C139.454 81.4134 137.756 80.9106 136.254 81.0819C135.491 78.0647 132.646 75.9219 129.745 75.9063C126.845 75.8908 124.076 77.8733 122.739 80.6502C120.973 80.2275 118.877 80.5857 117.541 81.8963C116.204 83.2091 115.672 85.492 116.511 87.2187C117.002 88.2311 117.883 88.9632 118.818 89.4994C117.18 90.1358 115.89 91.7601 115.898 93.6359C115.907 95.5139 117.303 97.3229 119.036 97.5009C118.844 98.6312 119.371 99.8083 120.187 100.547C121.002 101.288 122.063 101.644 123.119 101.804C124.413 100.365 125.293 98.4644 125.791 96.533C124.955 96.6999 124.095 96.1169 123.515 95.4471C122.991 94.8419 122.564 93.9786 122.853 93.2131C123.129 92.4833 123.975 92.1651 124.697 92.2942C125.419 92.4232 126.044 92.8883 126.643 93.3422C125.584 92.372 124.91 90.8657 125.087 89.3815C125.155 88.7852 125.386 88.3335 125.568 87.7594Z" fill="#373660"/>
<path d="M95.1002 311.221L93.2868 315.582L106.56 330.272C108.813 332.766 109.426 336.491 108.105 339.669L69.0547 320.789L76.725 302.336L95.1002 311.221Z" fill="#4F5285"/>
<path d="M81.2189 320.809C83.1843 320.809 84.7775 319.091 84.7775 316.971C84.7775 314.851 83.1843 313.133 81.2189 313.133C79.2534 313.133 77.6602 314.851 77.6602 316.971C77.6602 319.091 79.2534 320.809 81.2189 320.809Z" fill="#373660"/>
<path d="M94.8873 317.352L92.3746 319.588C91.8217 320.079 91.7619 320.97 92.2446 321.544C92.684 322.066 93.4226 322.138 93.9404 321.706L96.7296 319.392L94.8873 317.352Z" fill="#373660"/>
<path d="M98.1256 320.945L95.6129 323.182C95.06 323.673 95.0001 324.563 95.4829 325.137C95.9223 325.66 96.6609 325.731 97.1787 325.3L99.9679 322.986L98.1256 320.945Z" fill="#373660"/>
<path d="M101.786 325L99.273 327.236C98.7201 327.728 98.6603 328.618 99.143 329.192C99.5825 329.715 100.321 329.784 100.839 329.354L103.628 327.04L101.786 325Z" fill="#373660"/>
<path d="M69.0455 320.779L67.7461 323.906L106.797 342.785L108.096 339.658L69.0455 320.779Z" fill="#373660"/>
<path d="M152.58 241.451L147.136 178H103.615L91.7461 240.746L121.418 242.63L124.152 194.308L124.424 243.017L152.58 241.451Z" fill="#373660"/>
<path d="M149.057 319.023V323.803L166.739 331.353C169.741 332.634 171.713 335.763 171.713 339.245H128.918V319.023H149.057Z" fill="#4F5285"/>
<path d="M141.853 331.855C142.597 329.893 141.726 327.652 139.907 326.849C138.088 326.046 136.01 326.986 135.266 328.948C134.521 330.91 135.393 333.151 137.212 333.954C139.031 334.756 141.109 333.817 141.853 331.855Z" fill="#373660"/>
<path d="M151.188 324.711L149.744 327.859C149.426 328.551 149.709 329.39 150.367 329.702C150.965 329.984 151.667 329.724 151.976 329.103L153.643 325.761L151.188 324.711Z" fill="#373660"/>
<path d="M155.504 326.562L154.06 329.711C153.743 330.403 154.025 331.242 154.683 331.551C155.282 331.834 155.983 331.574 156.292 330.953L157.959 327.611L155.504 326.562Z" fill="#373660"/>
<path d="M160.383 328.648L158.939 331.797C158.621 332.489 158.904 333.328 159.562 333.637C160.16 333.92 160.862 333.659 161.171 333.038L162.838 329.696L160.383 328.648Z" fill="#373660"/>
<path d="M171.713 339.25H128.918V342.677H171.713V339.25Z" fill="#373660"/>
<path d="M171.327 140.008L152.492 121.072C147.701 116.257 141.397 113.578 134.849 113.578H117.715C117.511 113.578 117.307 113.58 117.103 113.587C108.467 113.807 100.753 119.484 97.174 127.961L87.9297 149.852L102.379 159.215L100.254 177.992H150.338L148.091 150.682L155.477 158.728L171.327 140.008Z" fill="#FFC967"/>
<path d="M118.41 112.539C118.41 112.539 121.381 119.853 128.777 120.614C136.171 121.373 140.697 112.639 140.697 112.639L118.41 112.539Z" fill="#FFD1C1"/>
<path d="M121.015 112.977C121.015 112.977 122.449 119.705 128.774 120.613C135.1 121.519 128.774 120.613 128.774 120.613C128.774 120.613 123.301 120.331 120.157 117.204C117.013 114.078 117.38 113.021 117.38 113.021L121.015 112.977Z" fill="#FFB2A0"/>
<path d="M148.409 319.128L149.667 271.062L149.283 241.633L126.586 242.894L128.269 275.873L129.645 319.128H148.409Z" fill="#FFD1C1"/>
<path d="M122.164 257.5L151.43 248.224L150.45 237.508L126.587 238.413L122.164 257.5Z" fill="#FFB2A0"/>
<path d="M95.1554 240.961L92.1083 265.88C91.867 267.847 91.3801 269.767 90.6601 271.592L78.2305 303.066L95.1018 311.223L111.721 272.844C112.219 271.694 112.606 270.49 112.873 269.255L118.678 242.456L95.1554 240.961Z" fill="#FFD1C1"/>
<path d="M87.9375 251.955C87.9375 251.955 114.656 251.588 119.539 247.301L120.931 239.942L95.0384 237.539L87.9375 251.955Z" fill="#FFB2A0"/>
<path d="M189.908 167.998L115.773 184.197C113.12 184.775 110.535 182.926 109.997 180.067L101.239 133.449C100.701 130.587 102.417 127.799 105.068 127.219L179.203 111.02C181.856 110.441 184.441 112.291 184.979 115.15L193.737 161.768C194.275 164.629 192.561 167.417 189.908 167.998Z" fill="#FE6D60"/>
<path d="M108.555 181.828L141.179 167.347C141.179 167.347 151.187 166.497 154.853 162.356C158.519 158.215 154.853 162.356 154.853 162.356L139.824 162.102L106.203 171.713L108.555 181.828Z" fill="#E63E36"/>
<path d="M148.418 177.062C148.418 177.062 151.618 171.01 156.074 170.38C160.53 169.753 165.908 173.239 165.908 173.239C165.908 173.239 151.174 177.365 148.418 177.062Z" fill="#E63E36"/>
<path d="M165.303 173.372C165.303 173.372 161.523 171.174 157.232 171.835C152.613 172.547 152.368 176.494 152.591 176.376C152.813 176.258 159.163 177.084 160.867 176.378C162.569 175.671 165.303 173.372 165.303 173.372Z" fill="#FFD1C1"/>
<path d="M548.257 309.816V335.438H535.037L532.871 308.141L548.257 309.816Z" fill="#FFB2A0"/>
<path d="M548.344 333.06C548.344 333.06 540.015 334.807 534.654 330.648L522.944 335.254C520.008 336.409 518.055 339.42 518.055 342.791H549.856C550.795 339.398 550.386 335.835 548.344 333.06Z" fill="#373660"/>
<path d="M609.836 297.062L623.567 317.97L612.78 326.211L596.383 305.289L609.836 297.062Z" fill="#FFB2A0"/>
<path d="M622.363 315.969C622.363 315.969 616.502 322.586 609.898 322.537L602.811 333.596C601.035 336.368 601.054 340.044 602.861 342.795L628.809 322.969C627.759 319.613 625.517 316.961 622.363 315.969Z" fill="#373660"/>
<path d="M545.489 85.3516C545.489 85.3516 559.296 83.6205 560.233 96.4548C560.705 102.934 564.761 107.064 567.99 111.864C573.285 119.74 568.041 130.777 559.02 130.777H536.568C536.568 130.777 533.894 115.346 534.963 101.935C536.032 88.5246 544.189 89.1009 544.189 89.1009C544.189 89.1009 541.307 86.5042 545.489 85.3516Z" fill="#373660"/>
<path d="M553.353 105.221C554.426 105.439 555.534 104.251 555.827 102.568C556.12 100.886 555.488 99.3465 554.414 99.1285C553.768 98.9972 553.114 99.3754 552.627 100.063C551.54 95.2145 548.753 91.7656 545.483 91.7656C541.268 91.7656 537.852 97.4975 537.852 104.569C537.852 111.64 541.268 117.372 545.483 117.372V126.898L555.22 126.931L553.733 118.157C553.32 115.728 553.114 113.26 553.114 110.79V105.147C553.194 105.179 553.273 105.205 553.353 105.221Z" fill="#FFD1C1"/>
<path d="M528.387 194.866L533.806 142.251C534.506 135.429 538.281 122.617 544.645 122.617H558.5C564.613 122.617 569.829 127.392 570.817 133.901L577.264 193.231L528.387 194.866Z" fill="#FE6D60"/>
<path d="M533.34 137.492H550.839C554.319 137.492 557.327 140.111 558.061 143.78L561.457 160.758C562.839 167.66 568.498 172.589 575.046 172.589H580.596L581.606 197.895L524.605 198.633L533.34 137.492Z" fill="#E63E36"/>
<path d="M545.486 90.9609C545.486 90.9609 546.119 97.4271 543.614 100.033C541.11 102.638 536.367 102.543 536.367 102.543C536.367 102.543 536.8 91.0588 545.486 90.9609Z" fill="#373660"/>
<path d="M545.488 117.365C545.488 117.365 548.533 116.869 550.435 112.508C550.435 112.508 549.816 118.602 545.488 118.987V117.365Z" fill="#FFB2A0"/>
<path d="M530.937 191.758C530.937 191.758 526.765 247.641 526.301 251.201C525.837 254.761 532.377 316.014 532.377 316.014H550.409V250.138L567.745 193.349L530.937 191.758Z" fill="#373660"/>
<path d="M587.961 251.806L576.109 193.399L542.164 192.242L543.668 212.221C543.668 212.221 566.427 262.626 567.706 265.944C568.985 269.264 603.499 318.414 603.499 318.414L619.026 308.523L587.961 251.806Z" fill="#373660"/>
<path d="M549.238 196.876H478.701C475.927 196.876 473.676 194.451 473.676 191.456V147.67C473.676 144.678 475.924 142.25 478.701 142.25H549.238C552.012 142.25 554.263 144.675 554.263 147.67V191.456C554.263 194.451 552.012 196.876 549.238 196.876Z" fill="#FFC967"/>
<path d="M492.492 141.677C492.492 141.677 494.132 150.595 495.892 151.053C501.229 152.448 504.361 147.905 504.361 147.905L499.709 141.031L492.492 141.677Z" fill="#FFA648"/>
<path d="M502.773 139.758L524.938 142.252H502.773V139.758Z" fill="#FFB2A0"/>
<path d="M501.547 138.891C502.082 138.886 502.564 139.229 502.771 139.758C503.643 141.988 504.823 147.364 504.359 147.909C503.784 148.583 498.742 149.778 496.827 149.139C495.327 148.641 494.927 144.313 494.285 142.549C494.063 141.939 494.137 141.24 494.508 140.72C494.904 140.163 495.585 139.543 496.728 139.296C498.282 138.962 500.378 138.897 501.547 138.891Z" fill="#FFD1C1"/>
<path d="M581.569 160.775C581.449 158.88 581.229 157.569 581.229 157.569L572.884 133.513C570.635 127.032 564.927 122.704 558.511 122.617H558.5C558.5 122.617 563.443 155.099 565.063 161.383L534.93 193.774C533.649 195.149 531.958 195.99 530.155 196.143L521.496 196.88C521.496 196.88 525.973 203.008 530.101 202.905C534.229 202.803 539.975 199.777 539.975 199.777L574.905 176.155C579.425 172.599 581.947 166.794 581.569 160.775Z" fill="#FFD1C1"/>
<path d="M521.495 199.352C521.495 199.352 530.12 199.932 533.665 194.868C537.209 189.804 533.665 194.868 533.665 194.868H519.504L521.495 199.352Z" fill="#FFB2A0"/>
<path d="M305.492 87.5625H309.145L318.461 110.746L327.758 87.5625H331.43L319.867 116H317.016L305.492 87.5625ZM304.301 87.5625H307.523L308.051 104.906V116H304.301V87.5625ZM329.379 87.5625H332.602V116H328.852V104.906L329.379 87.5625Z" fill="white"/>
<path d="M385.367 112.934V116H370.309V112.934H385.367ZM371.07 87.5625V116H367.301V87.5625H371.07ZM383.375 99.7891V102.855H370.309V99.7891H383.375ZM385.172 87.5625V90.6484H370.309V87.5625H385.172Z" fill="white"/>
<path d="M424.301 86.5625H433.715C435.85 86.5625 437.654 86.888 439.125 87.5391C440.609 88.1901 441.736 89.1536 442.504 90.4297C443.285 91.6927 443.676 93.2487 443.676 95.0977C443.676 96.3997 443.409 97.5911 442.875 98.6719C442.354 99.7396 441.599 100.651 440.609 101.406C439.633 102.148 438.461 102.702 437.094 103.066L436.039 103.477H427.191L427.152 100.41H433.832C435.186 100.41 436.312 100.176 437.211 99.707C438.109 99.2253 438.786 98.5807 439.242 97.7734C439.698 96.9661 439.926 96.0742 439.926 95.0977C439.926 94.0039 439.711 93.0469 439.281 92.2266C438.852 91.4062 438.174 90.7747 437.25 90.332C436.339 89.8763 435.16 89.6484 433.715 89.6484H428.07V115H424.301V86.5625ZM440.922 115L434.008 102.109L437.934 102.09L444.945 114.766V115H440.922Z" fill="white"/>
<path d="M504.176 87.5625V116H500.387L486.07 94.0664V116H482.301V87.5625H486.07L500.445 109.555V87.5625H504.176Z" fill="white"/>
<path d="M332.172 53.9997H252.845C248.952 53.9997 245.797 49.9704 245.797 44.9998C245.797 40.0292 248.952 36 252.845 36H332.172C336.065 36 339.221 40.0292 339.221 44.9998C339.221 49.9704 336.065 53.9997 332.172 53.9997Z" fill="#FFA648"/>
<path d="M331.375 52.9997H252.048C248.156 52.9997 245 48.9704 245 43.9998C245 39.0292 248.156 35 252.048 35H331.375C335.268 35 338.424 39.0292 338.424 43.9998C338.424 48.9704 335.268 52.9997 331.375 52.9997Z" fill="#FFC967"/>
<path d="M330.336 49.3622C329.091 49.3622 327.921 48.7433 327.041 47.619C326.161 46.4948 325.676 45.0012 325.676 43.4116C325.676 41.8219 326.161 40.3284 327.041 39.2042C327.921 38.0799 329.091 37.4609 330.336 37.4609C331.581 37.4609 332.752 38.0799 333.631 39.2042C334.512 40.3284 334.996 41.8219 334.996 43.4116C334.996 45.0012 334.512 46.4959 333.631 47.619C332.752 48.7433 331.581 49.3622 330.336 49.3622ZM330.336 38.1514C329.236 38.1514 328.202 38.6989 327.424 39.6919C326.646 40.6848 326.217 42.006 326.217 43.4104C326.217 44.8148 326.646 46.136 327.424 47.129C328.202 48.1219 329.236 48.6694 330.336 48.6694C331.436 48.6694 332.471 48.1219 333.248 47.129C334.026 46.136 334.455 44.8148 334.455 43.4104C334.455 42.006 334.026 40.6848 333.248 39.6919C332.471 38.6989 331.436 38.1514 330.336 38.1514Z" fill="white"/>
<path d="M335.096 50.1195C334.961 50.1195 334.826 50.0539 334.723 49.9226L333.335 48.15C333.128 47.8874 333.128 47.4607 333.335 47.1969C333.54 46.9344 333.874 46.9344 334.081 47.1969L335.469 48.9695C335.676 49.2321 335.676 49.6588 335.469 49.9226C335.366 50.0527 335.231 50.1195 335.096 50.1195Z" fill="white"/>
<path fill-rule="evenodd" clip-rule="evenodd" d="M150.427 166.995L148.763 166.622C148.763 166.622 148.966 161.059 145.92 160.66C143.891 159.116 146.246 95.178 153.554 160.447C153.554 160.447 151.037 161.272 150.59 162.683C150.103 164.067 150.427 166.995 150.427 166.995Z" fill="white"/>
<path fill-rule="evenodd" clip-rule="evenodd" d="M150.427 166.995L148.763 166.622C148.763 166.622 148.966 161.059 145.92 160.66C143.891 159.116 146.246 95.178 153.554 160.447C153.554 160.447 151.037 161.272 150.59 162.683C150.103 164.067 150.427 166.995 150.427 166.995Z" fill="white"/>
<path fill-rule="evenodd" clip-rule="evenodd" d="M151.32 161.618C151.32 161.618 165.897 155.336 162.486 142.266C159.197 132.764 151.442 129.65 150.589 128.452C149.655 127.6 148.762 126.109 148.762 126.109L149.371 152.541C149.371 152.568 148.112 160.633 151.32 161.619" fill="white"/>
<path fill-rule="evenodd" clip-rule="evenodd" d="M151.32 161.618C151.32 161.618 165.897 155.336 162.486 142.266C159.197 132.764 151.442 129.65 150.589 128.452C149.655 127.6 148.762 126.109 148.762 126.109L149.371 152.541C149.371 152.568 148.112 160.633 151.32 161.619" fill="white"/>
<path fill-rule="evenodd" clip-rule="evenodd" d="M147.906 161.962C147.906 161.962 134.223 155.839 135.035 145.059C135.806 134.278 145.47 128.981 147.337 128.023C148.556 127.171 148.596 126.852 148.678 126C149.53 127.198 149.368 143.914 149.489 145.884C149.855 153.47 148.84 160.525 147.906 161.962Z" fill="white"/>
<path fill-rule="evenodd" clip-rule="evenodd" d="M147.906 161.962C147.906 161.962 134.223 155.839 135.035 145.059C135.806 134.278 145.47 128.981 147.337 128.023C148.556 127.171 148.596 126.852 148.678 126C149.53 127.198 149.368 143.914 149.489 145.884C149.855 153.47 148.84 160.525 147.906 161.962Z" fill="white"/>
<path d="M102.238 158.943L88.7684 150.398L86.1195 159.98C86.1195 159.98 82.3792 173.315 87.9287 177.996C93.5855 182.769 143.733 163.553 143.733 163.553L144.387 156.23L102.238 158.943Z" fill="#FFD1C1"/>
<path d="M141.046 156.712C141.046 156.712 146.036 149.066 146.513 150.348C146.989 151.63 145.817 152.097 146.001 153.579C146.306 156.042 157.698 149.618 158.072 150.47C158.443 151.32 156.714 161.289 154.853 162.361C150.096 165.098 139.824 164.533 139.824 164.533L141.046 156.712Z" fill="#FFD1C1"/>
<path d="M516.086 188C515.631 188 515.178 187.881 514.779 187.651L510.62 185.188C509.999 184.841 510.302 184.718 510.507 184.647C511.335 184.357 511.503 184.292 512.387 183.79C512.48 183.737 512.602 183.755 512.697 183.811L515.892 185.708C516.008 185.77 516.171 185.77 516.278 185.708L528.737 178.516C528.852 178.451 528.927 178.316 528.927 178.179V163.803C528.927 163.659 528.852 163.531 528.735 163.459L516.281 156.274C516.165 156.206 516.013 156.206 515.897 156.274L503.446 163.459C503.325 163.528 503.249 163.662 503.249 163.799V178.176C503.249 178.313 503.323 178.444 503.442 178.51L506.854 180.481C508.706 181.407 509.838 180.315 509.838 179.218V165.028C509.838 164.825 509.997 164.669 510.2 164.669H511.778C511.974 164.669 512.137 164.825 512.137 165.028V179.224C512.137 181.694 510.789 183.113 508.447 183.113C507.727 183.113 507.159 183.113 505.575 182.333L502.307 180.45C501.499 179.982 501 179.109 501 178.176V163.799C501 162.864 501.499 161.991 502.307 161.529L514.778 154.334C515.567 153.889 516.615 153.889 517.398 154.334L529.853 161.532C530.658 161.997 531.16 162.867 531.16 163.803V178.179C531.16 179.112 530.658 179.982 529.853 180.45L517.398 187.644C516.998 187.875 516.546 187.993 516.085 187.993" fill="white"/>
<path d="M519.93 178.094C514.479 178.094 513.336 175.592 513.336 173.493C513.336 173.294 513.497 173.135 513.697 173.135H515.306C515.484 173.135 515.633 173.264 515.661 173.44C515.905 175.079 516.628 175.906 519.925 175.906C522.55 175.906 523.667 175.313 523.667 173.921C523.667 173.119 523.349 172.524 519.27 172.125C515.858 171.788 513.75 171.036 513.75 168.307C513.75 165.794 515.87 164.297 519.422 164.297C523.411 164.297 525.388 165.682 525.638 168.657C525.647 168.76 525.61 168.859 525.541 168.934C525.473 169.006 525.376 169.05 525.276 169.05H523.658C523.489 169.05 523.343 168.931 523.308 168.769C522.918 167.044 521.977 166.492 519.416 166.492C516.55 166.492 516.217 167.49 516.217 168.239C516.217 169.146 516.61 169.411 520.477 169.923C524.306 170.431 526.124 171.148 526.124 173.84C526.124 176.553 523.86 178.109 519.912 178.109L519.93 178.094Z" fill="white"/>
</svg>
