<svg width="690" height="350" viewBox="0 0 690 350" fill="none" xmlns="http://www.w3.org/2000/svg">
<g opacity="0.29">
<g style="mix-blend-mode:multiply" opacity="0.29">
<path d="M420.685 140.698H275.906V28.8047H394.452L420.685 55.0371V140.698Z" fill="#C9C8C3"/>
</g>
<path opacity="0.29" d="M272.746 30.1328H247.375" stroke="#C9C8C3" stroke-width="2.08" stroke-miterlimit="10"/>
<path opacity="0.29" d="M276.711 25.3822V0" stroke="#C9C8C3" stroke-width="2.08" stroke-miterlimit="10"/>
<path opacity="0.29" d="M392.07 30.9375V57.101H418.303" fill="white"/>
</g>
<path d="M118.703 186.087L242.591 180.617L280.349 345.94L87.1615 346.928L67.4326 252.409C60.7337 219.064 85.1047 187.569 118.703 186.087Z" fill="#122832"/>
<path d="M123.758 161.492L129.652 184.53" stroke="#122832" stroke-width="5.92" stroke-miterlimit="10"/>
<path d="M175.766 161.492L181.66 184.53" stroke="#122832" stroke-width="5.92" stroke-miterlimit="10"/>
<path d="M107.615 165.265H209.683L187.852 101.953H95.2052C93.3995 101.953 91.6199 102.385 90.0148 103.212C88.4097 104.039 87.0255 105.238 85.9777 106.708C84.9298 108.179 84.2487 109.878 83.991 111.666C83.7333 113.453 83.9065 115.276 84.4962 116.982L99.0544 159.164C99.6705 160.944 100.826 162.488 102.36 163.582C103.894 164.675 105.731 165.263 107.615 165.265Z" fill="#122832"/>
<path d="M321.325 268.163C337.917 257.155 367.516 238.288 367.516 238.288C367.516 238.288 419.831 204.346 418.855 201.439C417.878 198.532 400.229 206.138 400.229 206.138C401.608 203.449 417.74 193.844 417.097 192.108C416.453 190.373 395.977 201.577 395.07 200.726C394.162 199.876 415.511 188.34 414.258 186.03C413.006 183.721 391.668 195.222 390.485 194.705C389.301 194.188 410.593 181.457 407.893 179.492C405.193 177.527 375.72 199.876 373.02 199.37C370.319 198.865 379.627 185.662 379.155 179.837C378.684 174.011 354.497 209.781 354.497 209.781C348.936 214.618 305.227 233.382 305.227 233.382L321.325 268.163Z" fill="#DF9257"/>
<path d="M375.904 198.293L368.148 212.656C368.148 212.656 371.745 198.087 370.837 196.938L375.904 198.293Z" fill="#B6613B"/>
<path d="M279.59 235.47C279.59 235.47 224.7 118.74 190.459 163.242C153.69 211.042 219.782 254.51 253.506 290.164C257.835 294.723 263.733 297.469 270.008 297.847C276.283 298.224 282.467 296.205 287.311 292.198L366.824 238.929L353.358 211.352L279.59 235.47Z" fill="#DF9257"/>
<path d="M220.453 258.349C235.126 241.734 255.269 219.718 271.241 204.413C252.753 172.907 214.042 132.553 190.44 163.186C163.967 197.577 190.797 229.738 220.453 258.349Z" fill="#009FBF"/>
<path d="M106.513 198.041C104.617 168.58 155.106 144.852 155.106 144.852L173.881 132.891L175.03 136.028L206.376 165.328L211.569 151.769L211.27 146.702L216.418 152.091C220.199 152.711 235.619 173.773 239.663 183.575C245.822 198.512 247.706 218.046 248.292 229.766C262.253 344.06 263.322 347.622 263.322 347.622H123.542C123.542 347.622 118.187 380.91 106.513 198.041Z" fill="#009FBF"/>
<path d="M135.304 155.879C136.74 154.925 227.503 347.583 227.503 347.583H115.012C115.012 347.583 105.544 263.21 106.889 195.153C106.889 195.153 108.532 173.585 135.304 155.879Z" fill="#006A80"/>
<path d="M237.373 70.9624C240.027 65.5619 239.131 56.9557 239.131 56.9557C239.131 56.9557 261.422 49.3606 256.102 36.6178C250.782 23.875 224.596 30.9875 224.596 30.9875C224.596 30.9875 234.512 15.7858 215.024 28.1494C207.28 33.0672 205.993 34.2737 199.972 31.5965C193.951 28.9192 184.414 32.3548 181.587 37.3417C179.864 40.4555 180.932 43.2362 178.577 42.9949C169.856 42.0757 165.777 51.176 171.763 70.4683C171.763 70.4683 168.753 80.304 174.624 95.6436C176.738 101.193 183.966 103.043 183.966 103.043" fill="#0E162E"/>
<path d="M237.445 58.542C237.445 58.542 244.064 103.251 230.448 120.486C223.461 127.254 215.211 124.278 209.926 124.083C209.719 122.164 210.753 139.606 211.684 155.233C211.678 155.275 211.678 155.318 211.684 155.36C211.408 158.048 207.789 158.899 203.537 158.657C197.01 158.209 190.907 155.263 186.497 150.43L173.57 136.55L180.786 104.055C180.786 104.055 182.223 96.7244 181.935 94.3689C176.684 93.7025 173.042 85.6822 175.236 80.4771C177.316 75.5018 185.463 75.1801 186.727 79.8681C187.991 84.5562 192.001 84.4643 192.472 80.5575C192.759 78.2595 191.036 59.6106 204.502 57.4045C212.546 57.9675 214.441 63.5748 218.555 63.7931C222.669 64.0114 226.472 55.3477 228.506 57.6918C234.894 65.0686 237.445 58.542 237.445 58.542Z" fill="#DF9257"/>
<path d="M177.594 85.2161C180.409 75.7366 186.625 83.527 186.625 83.527L177.594 85.2161Z" fill="#B6613B"/>
<path d="M211.546 124.138L203.422 123.414L209.891 140.018L211.546 124.138Z" fill="#B6613B"/>
<path d="M230.343 90C230.343 90 234.112 99.537 233.572 99.491C232.124 99.3761 229.148 99.491 229.148 99.491L230.343 90Z" fill="#B6613B"/>
<path d="M236.209 89.0588C236.244 87.6377 235.717 86.472 235.032 86.455C234.347 86.438 233.763 87.5762 233.728 88.9973C233.693 90.4183 234.219 91.5841 234.905 91.6011C235.59 91.618 236.174 90.4798 236.209 89.0588Z" fill="#0E162E"/>
<path d="M224.352 88.4225C224.352 89.8358 224.846 91.0078 225.501 91.0193C226.156 91.0308 226.776 89.8703 226.81 88.48C226.845 87.0896 226.316 85.9061 225.661 85.8832C225.007 85.8602 224.386 87.0092 224.352 88.4225Z" fill="#0E162E"/>
<path d="M217.93 79.3681C216.287 79.5405 216.172 73.7493 224.456 74.4962C226.755 74.7145 228.788 77.0126 227.697 78.7821C226.973 79.9082 223.893 78.7706 217.93 79.3681Z" fill="#0E162E"/>
<path d="M238.83 80.3319C240.393 80.8605 242.783 76.4941 238.152 74.897C237.589 74.6407 236.959 74.5686 236.353 74.6908C235.746 74.813 235.194 75.1233 234.774 75.5777C234.354 76.032 234.088 76.6072 234.013 77.2215C233.939 77.8357 234.061 78.4577 234.36 78.999C234.9 80.0676 236.337 79.4816 238.83 80.3319Z" fill="#0E162E"/>
<path d="M234.17 103.041L223.047 102.156C223.047 102.156 224.196 107.499 229.091 107.901C233.021 108.212 234.17 103.041 234.17 103.041Z" fill="white"/>
<path d="M163.086 333.301C182.872 331.003 218.389 326.924 218.389 326.924C218.389 326.924 289.549 328.407 289.997 325.385C290.445 322.363 246.874 299.29 246.874 299.29C239.738 301.071 164.66 295.016 164.66 295.016L163.086 333.301Z" fill="#DF9257"/>
<path d="M156.103 193.055C156.586 183.334 169.995 150.449 151.07 146.485C131.112 142.302 72.1086 202.788 85.6558 303.65C88.7352 326.55 101.972 345.452 141.671 338.201L216.715 327.136L214.417 298.353L141.694 281.692C141.694 281.692 154.69 221.919 156.103 193.055Z" fill="#DF9257"/>
<path d="M162.922 257.463C165.956 228.68 168.219 209.204 168.978 193.829C169.46 184.109 169.989 150.465 151.064 146.501C136.54 143.456 97.0594 180.972 84.1328 237.01C105.539 244.824 141.159 250.488 162.922 257.463Z" fill="#009FBF"/>
<path opacity="0.33" d="M224.206 78.6406H218.001C215.317 78.6406 213.141 80.8167 213.141 83.5011V89.3037C213.141 91.988 215.317 94.1641 218.001 94.1641H224.206C226.89 94.1641 229.066 91.988 229.066 89.3037V83.5011C229.066 80.8167 226.89 78.6406 224.206 78.6406Z" fill="white"/>
<path opacity="0.33" d="M216.072 93.8653C216.899 92.5439 217.715 91.2111 218.485 89.8437C220.542 86.1553 222.449 82.306 224.495 78.6406H217.416C215.061 78.6406 213.142 81.1225 213.142 84.179V88.6257C213.081 89.6874 213.324 90.7445 213.843 91.6727C214.362 92.6009 215.136 93.3616 216.072 93.8653Z" fill="white"/>
<path d="M224.206 78.6406H218.001C215.317 78.6406 213.141 80.8167 213.141 83.5011V89.3037C213.141 91.988 215.317 94.1641 218.001 94.1641H224.206C226.89 94.1641 229.066 91.988 229.066 89.3037V83.5011C229.066 80.8167 226.89 78.6406 224.206 78.6406Z" stroke="#0E162E" stroke-width="2.16" stroke-miterlimit="10"/>
<path opacity="0.33" d="M239.573 78.9531H236.344C234.281 78.9531 232.609 80.6251 232.609 82.6875V90.2137C232.609 92.2761 234.281 93.948 236.344 93.948H239.573C241.635 93.948 243.307 92.2761 243.307 90.2137V82.6875C243.307 80.6251 241.635 78.9531 239.573 78.9531Z" fill="white"/>
<path opacity="0.33" d="M233.912 93.06C236.34 88.4639 238.761 83.8678 241.174 79.2716C240.82 79.0837 240.425 78.9851 240.025 78.9844H235.888C234.073 78.9844 232.602 80.8918 232.602 83.2473V89.7049C232.586 90.9511 233.056 92.1546 233.912 93.06Z" fill="white"/>
<path d="M239.573 78.9531H236.344C234.281 78.9531 232.609 80.6251 232.609 82.6875V90.2137C232.609 92.2761 234.281 93.948 236.344 93.948H239.573C241.635 93.948 243.307 92.2761 243.307 90.2137V82.6875C243.307 80.6251 241.635 78.9531 239.573 78.9531Z" stroke="#0E162E" stroke-width="1.66" stroke-miterlimit="10"/>
<path d="M229.07 87.7969H232.322" stroke="#0E162E" stroke-width="2.16" stroke-miterlimit="10"/>
<path d="M189.477 82.3594L212.986 82.6811" stroke="#0E162E" stroke-width="2.16" stroke-miterlimit="10"/>
<path d="M327.59 322.906H226.406V334.776H327.59V322.906Z" fill="#FC1381"/>
<path d="M298.58 322.961C293.494 326.791 288.488 330.748 283.562 334.83H327.616V322.961H298.58Z" fill="#A3135F"/>
<path d="M454.072 334.763H294.609L333.102 224.789H492.565L454.072 334.763Z" fill="#FC1381"/>
<path d="M297.469 322.086H457.736" stroke="white" stroke-width="1.31" stroke-miterlimit="10"/>
<path d="M402.961 282.867C402.961 280.888 402.375 278.953 401.275 277.307C400.175 275.661 398.612 274.379 396.783 273.621C394.955 272.864 392.942 272.666 391.001 273.052C389.06 273.438 387.276 274.391 385.877 275.791C384.477 277.19 383.524 278.974 383.138 280.915C382.751 282.856 382.95 284.869 383.707 286.697C384.465 288.526 385.747 290.089 387.393 291.189C389.039 292.289 390.974 292.876 392.953 292.876C395.607 292.873 398.151 291.817 400.027 289.941C401.903 288.065 402.958 285.521 402.961 282.867Z" fill="white"/>
<path d="M670.1 332.812H19V349.922H670.1V332.812Z" fill="#000664"/>
<path d="M91.6144 333.439C85.6373 333.439 79.9049 331.066 75.6774 326.84C71.4499 322.615 69.0734 316.884 69.0703 310.907V279.297H114.147V310.861C114.153 313.824 113.575 316.759 112.445 319.498C111.315 322.237 109.657 324.726 107.564 326.824C105.471 328.921 102.985 330.585 100.248 331.72C97.5111 332.855 94.5773 333.439 91.6144 333.439Z" fill="#FFB701"/>
<g style="mix-blend-mode:multiply">
<path d="M86.4782 320.72C77.5732 314.25 71.8395 304.805 69.0703 294.43V310.907C69.0734 316.884 71.4499 322.615 75.6774 326.84C79.9049 331.066 85.6373 333.439 91.6144 333.439C97.2853 333.442 102.747 331.295 106.897 327.43C99.5361 327.51 92.3563 325.15 86.4782 320.72Z" fill="#FFB701"/>
</g>
<path d="M119.526 318.975C128.685 316.84 134.379 307.685 132.245 298.525C130.11 289.366 120.954 283.672 111.795 285.807C102.636 287.941 96.9415 297.097 99.0763 306.256C101.211 315.415 110.367 321.11 119.526 318.975Z" stroke="#FFB701" stroke-width="2.62" stroke-miterlimit="10"/>
<g opacity="0.61">
<path opacity="0.61" d="M89.5819 273.386C86.4361 269.318 83.6997 264.949 81.4122 260.344C79.7552 257.353 78.7562 254.043 78.4822 250.635C78.3788 247.188 79.7002 243.614 82.5498 241.741C86.7782 238.972 92.8911 241.19 95.6603 245.453C98.4294 249.715 98.2571 255.254 96.8093 260.114C95.3615 264.975 92.8911 269.421 90.9722 274.098" fill="white"/>
<path opacity="0.61" d="M97.9141 274.351C98.6173 272.594 99.8145 271.077 101.361 269.985C102.981 269.054 105.486 269.434 106.141 271.192C106.325 271.98 106.216 272.807 105.836 273.522C105.456 274.236 104.829 274.788 104.073 275.075C102.538 275.606 100.895 275.744 99.2929 275.477" fill="white"/>
</g>
<path d="M445.876 165.545L418.081 118.193C418.039 118.138 417.981 118.098 417.915 118.077C417.849 118.057 417.779 118.058 417.713 118.079C417.648 118.1 417.59 118.142 417.549 118.197C417.508 118.252 417.485 118.319 417.484 118.388V158.777C417.483 158.836 417.499 158.894 417.529 158.945C417.56 158.995 417.604 159.037 417.656 159.064C417.953 159.223 418.209 159.448 418.407 159.721C418.604 159.994 418.738 160.308 418.796 160.64C418.855 160.972 418.837 161.312 418.745 161.637C418.653 161.961 418.489 162.26 418.265 162.511L418.173 162.592C417.859 162.875 417.47 163.062 417.053 163.129C416.635 163.197 416.207 163.142 415.82 162.972C415.433 162.802 415.103 162.524 414.87 162.171C414.637 161.818 414.511 161.406 414.508 160.983C414.511 160.594 414.619 160.214 414.822 159.882C415.024 159.55 415.313 159.279 415.657 159.098C415.713 159.071 415.761 159.029 415.796 158.976C415.83 158.924 415.85 158.863 415.852 158.8V118.434C415.854 118.362 415.832 118.292 415.79 118.233C415.749 118.174 415.689 118.13 415.621 118.108C415.552 118.086 415.478 118.087 415.41 118.111C415.342 118.134 415.283 118.179 415.243 118.239L387.287 164.591C387.248 164.644 387.227 164.709 387.227 164.775C387.227 164.841 387.248 164.905 387.287 164.959L401.075 194.179H432.203L445.899 165.935C445.937 165.876 445.955 165.806 445.951 165.736C445.947 165.666 445.921 165.599 445.876 165.545Z" fill="#122832"/>
<path d="M401.169 195.414H432.089C432.136 195.414 432.182 195.423 432.226 195.441C432.269 195.459 432.308 195.485 432.341 195.518C432.374 195.551 432.4 195.591 432.418 195.634C432.436 195.677 432.445 195.723 432.445 195.77V207.261C432.445 207.736 432.257 208.192 431.92 208.528C431.584 208.864 431.128 209.053 430.653 209.053H402.605C402.13 209.053 401.674 208.864 401.338 208.528C401.001 208.192 400.812 207.736 400.812 207.261V195.77C400.812 195.723 400.822 195.677 400.84 195.634C400.858 195.591 400.884 195.551 400.917 195.518C400.95 195.485 400.989 195.459 401.032 195.441C401.076 195.423 401.122 195.414 401.169 195.414Z" fill="#122832"/>
<path d="M373.875 65.5781C373.875 76.9522 378.393 87.8606 386.434 95.9043C394.476 103.948 405.383 108.469 416.757 108.472" stroke="#FFB701" stroke-width="1.5" stroke-miterlimit="10"/>
<path d="M459.636 151.878C459.636 140.502 455.117 129.592 447.072 121.548C439.028 113.503 428.118 108.984 416.742 108.984" stroke="#FFB701" stroke-width="1.5" stroke-miterlimit="10"/>
<path d="M377.004 62.9531H370.719V69.2383H377.004V62.9531Z" fill="#122832"/>
<path d="M462.207 147.578H455.922V153.863H462.207V147.578Z" fill="#122832"/>
<path d="M360.688 108.703H473.902" stroke="#FFB701" stroke-width="1.5" stroke-miterlimit="10"/>
<path d="M419.574 106.125H413.289V112.41H419.574V106.125Z" fill="#122832"/>
<path d="M363.684 106.125H357.398V112.41H363.684V106.125Z" fill="#122832"/>
<path d="M475.762 106.125H469.477V112.41H475.762V106.125Z" fill="#122832"/>
<g style="mix-blend-mode:multiply" opacity="0.22">
<path d="M93.7497 58.4615L144.307 58.9785C145.188 58.9877 146.049 59.2462 146.789 59.7241C147.529 60.202 148.119 60.8797 148.49 61.6788L153.086 71.6294C153.137 71.7481 153.227 71.8455 153.342 71.9054C153.456 71.9654 153.588 71.9841 153.714 71.9585C153.841 71.9329 153.955 71.8645 154.037 71.7649C154.119 71.6652 154.165 71.5403 154.166 71.4111L154.671 59.0934L155.189 9.84582C155.21 7.53171 154.312 5.30372 152.692 3.65125C151.072 1.99878 148.862 1.05699 146.548 1.03272L94.3012 0.492677C93.1559 0.480542 92.0195 0.694126 90.9567 1.12123C89.894 1.54833 88.9257 2.18059 88.1074 2.98191C87.289 3.78322 86.6364 4.73789 86.187 5.7914C85.7376 6.84491 85.5001 7.97663 85.4881 9.12193L85.063 49.6484C85.0509 50.7985 85.2663 51.9396 85.697 53.0061C86.1277 54.0726 86.7651 55.0433 87.5725 55.8625C88.3799 56.6816 89.3413 57.3329 90.4015 57.779C91.4616 58.225 92.5995 58.457 93.7497 58.4615Z" fill="#A0A0A0"/>
</g>
<path d="M119.219 29.3921L109.854 29.2957C109.499 29.292 109.208 29.5771 109.204 29.9325L109.035 46.3398C109.032 46.6952 109.317 46.9862 109.672 46.9899L119.036 47.0863C119.392 47.09 119.683 46.8049 119.686 46.4495L119.855 30.0422C119.859 29.6868 119.574 29.3958 119.219 29.3921Z" fill="#FC1381"/>
<path d="M107.344 36.3077L97.6816 36.2082C97.4087 36.2054 97.1852 36.4243 97.1824 36.6972L97.0829 46.3601C97.0801 46.6329 97.299 46.8564 97.5719 46.8592L107.235 46.9587C107.508 46.9615 107.731 46.7426 107.734 46.4697L107.833 36.8069C107.836 36.534 107.617 36.3105 107.344 36.3077Z" fill="#FFB701"/>
<path d="M131.203 19.936L121.839 19.8424C121.483 19.8388 121.192 20.124 121.189 20.4794L120.929 46.4246C120.926 46.78 121.211 47.0709 121.566 47.0745L130.931 47.1681C131.286 47.1717 131.577 46.8865 131.581 46.5311L131.84 20.5859C131.844 20.2305 131.559 19.9396 131.203 19.936Z" fill="#009FBF"/>
<path d="M141.684 12.1746L134.101 12.0965C133.536 12.0907 133.073 12.5438 133.068 13.1085L132.727 46.199C132.721 46.7637 133.174 47.2263 133.739 47.2321L141.322 47.3102C141.887 47.316 142.349 46.8629 142.355 46.2981L142.696 13.2077C142.702 12.6429 142.249 12.1804 141.684 12.1746Z" fill="#122832"/>
<g style="mix-blend-mode:multiply">
<g style="mix-blend-mode:multiply">
<path d="M557.043 228.931C571.03 228.931 582.368 217.592 582.368 203.606C582.368 189.62 571.03 178.281 557.043 178.281C543.057 178.281 531.719 189.62 531.719 203.606C531.719 217.592 543.057 228.931 557.043 228.931Z" fill="#FC1381"/>
</g>
<g style="mix-blend-mode:multiply">
<path d="M544.666 213.762C549.717 200.719 543.239 186.051 530.196 181C517.153 175.949 502.486 182.428 497.435 195.47C492.384 208.513 498.862 223.181 511.905 228.232C524.947 233.283 539.615 226.804 544.666 213.762Z" fill="#009FBF"/>
</g>
<g style="mix-blend-mode:multiply">
<path d="M543.794 260.473C557.597 258.218 566.959 245.199 564.703 231.396C562.448 217.592 549.429 208.231 535.626 210.486C521.823 212.742 512.461 225.76 514.717 239.564C516.972 253.367 529.99 262.728 543.794 260.473Z" fill="#FFB701"/>
</g>
<g style="mix-blend-mode:multiply">
<path d="M616.729 268.859V271.858H613.719" stroke="#A0A0A0" stroke-width="0.77" stroke-miterlimit="10"/>
</g>
<g style="mix-blend-mode:multiply">
<path d="M607.692 271.859H466.062" stroke="#A0A0A0" stroke-width="0.77" stroke-miterlimit="10" stroke-dasharray="5.24 5.24"/>
</g>
<g style="mix-blend-mode:multiply">
<path d="M463.057 271.858H460.047V268.859" stroke="#A0A0A0" stroke-width="0.77" stroke-miterlimit="10"/>
</g>
<g style="mix-blend-mode:multiply">
<path d="M460.062 263.125V174.086" stroke="#A0A0A0" stroke-width="0.77" stroke-miterlimit="10" stroke-dasharray="5 5"/>
</g>
<g style="mix-blend-mode:multiply">
<path d="M460.047 171.206V168.195H463.057" stroke="#A0A0A0" stroke-width="0.77" stroke-miterlimit="10"/>
</g>
<g style="mix-blend-mode:multiply">
<path d="M469.094 168.195H610.712" stroke="#A0A0A0" stroke-width="0.77" stroke-miterlimit="10" stroke-dasharray="5.24 5.24"/>
</g>
<g style="mix-blend-mode:multiply">
<path d="M613.719 168.195H616.729V171.206" stroke="#A0A0A0" stroke-width="0.77" stroke-miterlimit="10"/>
</g>
<g style="mix-blend-mode:multiply">
<path d="M616.734 176.953V265.992" stroke="#A0A0A0" stroke-width="0.77" stroke-miterlimit="10" stroke-dasharray="5 5"/>
</g>
<g style="mix-blend-mode:multiply">
<path d="M465.425 165.727H458.094V173.057H465.425V165.727Z" fill="white"/>
<path d="M465.425 165.727H458.094V173.057H465.425V165.727Z" stroke="#222221" stroke-width="1.74" stroke-miterlimit="10"/>
</g>
<g style="mix-blend-mode:multiply">
<path d="M620.018 165.727H612.688V173.057H620.018V165.727Z" fill="white"/>
<path d="M620.018 165.727H612.688V173.057H620.018V165.727Z" stroke="#222221" stroke-width="1.74" stroke-miterlimit="10"/>
</g>
<g style="mix-blend-mode:multiply">
<path d="M465.425 266.016H458.094V273.346H465.425V266.016Z" fill="white"/>
<path d="M465.425 266.016H458.094V273.346H465.425V266.016Z" stroke="#222221" stroke-width="1.74" stroke-miterlimit="10"/>
</g>
<g style="mix-blend-mode:multiply">
<path d="M620.018 266.016H612.688V273.346H620.018V266.016Z" fill="white"/>
<path d="M620.018 266.016H612.688V273.346H620.018V266.016Z" stroke="#222221" stroke-width="1.74" stroke-miterlimit="10"/>
</g>
</g>
<path d="M577.131 278.735L572.248 292.902C572.15 293.201 571.96 293.461 571.705 293.646C571.45 293.83 571.144 293.93 570.829 293.93C570.514 293.93 570.208 293.83 569.953 293.646C569.698 293.461 569.508 293.201 569.41 292.902L559.724 261.672C559.642 261.409 559.634 261.13 559.701 260.863C559.768 260.597 559.908 260.355 560.103 260.162C560.299 259.97 560.545 259.835 560.812 259.773C561.079 259.711 561.359 259.724 561.619 259.81L592.896 270.324C593.195 270.422 593.455 270.612 593.64 270.867C593.824 271.122 593.923 271.428 593.923 271.743C593.923 272.057 593.824 272.364 593.64 272.619C593.455 272.874 593.195 273.064 592.896 273.162L578.12 277.838C577.898 277.904 577.694 278.019 577.523 278.174C577.352 278.329 577.218 278.521 577.131 278.735Z" fill="#122832"/>
<g style="mix-blend-mode:multiply">
<path d="M536.917 84.9543C536.922 83.1034 536.377 81.2928 535.352 79.7517C534.327 78.2106 532.868 77.0082 531.159 76.2967C529.451 75.5853 527.569 75.3968 525.753 75.7551C523.938 76.1133 522.269 77.0023 520.959 78.3095C519.648 79.6166 518.755 81.2831 518.392 83.0981C518.03 84.9131 518.213 86.7948 518.921 88.5052C519.628 90.2156 520.827 91.6778 522.365 92.7065C523.904 93.7353 525.713 94.2844 527.564 94.2844C528.791 94.2859 530.006 94.0458 531.14 93.5777C532.274 93.1097 533.304 92.4228 534.173 91.5564C535.041 90.69 535.731 89.6611 536.202 88.5283C536.673 87.3955 536.916 86.181 536.917 84.9543Z" fill="#009FBF"/>
</g>
<g style="mix-blend-mode:multiply">
<path d="M567.01 62.9084L527.609 62.8672L527.586 85.5721L566.986 85.6133L567.01 62.9084Z" stroke="#A0A0A0" stroke-width="0.77" stroke-miterlimit="10" stroke-dasharray="5.23 5.23"/>
</g>
<g style="mix-blend-mode:multiply">
<path d="M75.0255 185.934C75.0301 184.545 74.6222 183.185 73.8535 182.028C73.0849 180.87 71.99 179.967 70.7076 179.432C69.4251 178.897 68.0128 178.754 66.6494 179.023C65.2861 179.291 64.033 179.958 63.0488 180.939C62.0647 181.92 61.3937 183.171 61.121 184.533C60.8482 185.896 60.9859 187.308 61.5166 188.593C62.0473 189.877 62.9471 190.975 64.1021 191.747C65.2572 192.519 66.6154 192.932 68.0049 192.932C69.8629 192.932 71.6452 192.195 72.9611 190.884C74.2771 189.572 75.0195 187.792 75.0255 185.934Z" fill="#FFB701"/>
</g>
<g style="mix-blend-mode:multiply">
<path d="M70.0951 132.841L43.0469 132.812L42.9913 185.898L70.0395 185.926L70.0951 132.841Z" stroke="#A0A0A0" stroke-width="0.77" stroke-miterlimit="10" stroke-dasharray="5.23 5.23"/>
</g>
</svg>
