<svg width="690" height="350" viewBox="0 0 690 350" fill="none" xmlns="http://www.w3.org/2000/svg">
<g clip-path="url(#clip0_2214_391)">
<path d="M598 314.484H64V314.747H598V314.484Z" fill="#EBEBEB"/>
<path d="M544.493 331.422H509.121V331.685H544.493V331.422Z" fill="#EBEBEB"/>
<path d="M417.742 334.281H408.461V334.544H417.742V334.281Z" fill="#EBEBEB"/>
<path d="M508.05 321.648H487.555V321.911H508.05V321.648Z" fill="#EBEBEB"/>
<path d="M166.158 323.422H120.031V323.685H166.158V323.422Z" fill="#EBEBEB"/>
<path d="M182.432 323.422H175.672V323.685H182.432V323.422Z" fill="#EBEBEB"/>
<path d="M304.456 327.852H204.406V328.115H304.456V327.852Z" fill="#EBEBEB"/>
<path d="M317.127 267.569H110.907C107.543 267.569 104.809 264.876 104.809 261.562V-23.9929C104.809 -27.3068 107.543 -30 110.907 -30H317.138C320.502 -30 323.236 -27.3068 323.236 -23.9929V261.562C323.225 264.876 320.491 267.569 317.127 267.569ZM110.907 -29.737C107.692 -29.737 105.076 -27.1595 105.076 -23.9929V261.562C105.076 264.729 107.692 267.306 110.907 267.306H317.138C320.352 267.306 322.969 264.729 322.969 261.562V-23.9929C322.969 -27.1595 320.352 -29.737 317.138 -29.737H110.907Z" fill="#EBEBEB"/>
<path d="M548.138 267.569H341.907C338.543 267.569 335.809 264.876 335.809 261.562V-23.9929C335.809 -27.3068 338.543 -30 341.907 -30H548.138C551.502 -30 554.236 -27.3068 554.236 -23.9929V261.562C554.236 264.876 551.502 267.569 548.138 267.569ZM341.907 -29.737C338.692 -29.737 336.076 -27.1595 336.076 -23.9929V261.562C336.076 264.729 338.692 267.306 341.907 267.306H548.138C551.352 267.306 553.969 264.729 553.969 261.562V-23.9929C553.969 -27.1595 551.352 -29.737 548.138 -29.737H341.907Z" fill="#EBEBEB"/>
<path d="M328.82 73.2266H299.215V102.389H328.82V73.2266Z" fill="#E0E0E0"/>
<path d="M331.982 77.4297H296.055V97.8603H331.982V77.4297Z" fill="#E0E0E0"/>
<path d="M321.775 60.4297H306.246V69.8349H321.775V60.4297Z" fill="#E0E0E0"/>
<path d="M323.993 62.4141H304.043V67.4533H323.993V62.4141Z" fill="#E0E0E0"/>
<path d="M335.915 73.2188H331.91V77.1639H335.915V73.2188Z" fill="#E0E0E0"/>
<path d="M339.268 62.4062H336.043V73.2107H339.268V62.4062Z" fill="#E0E0E0"/>
<path d="M335.922 85.2344H331.832V89.2637H335.922V85.2344Z" fill="#E0E0E0"/>
<path d="M340.147 81.0781H335.918V85.2442H340.147V81.0781Z" fill="#E0E0E0"/>
<path d="M344.278 75.1953H340.145V81.0762H344.278V75.1953Z" fill="#E0E0E0"/>
<path d="M292.136 77.1641H296.141V73.2189H292.136V77.1641Z" fill="#E0E0E0"/>
<path d="M288.779 73.2188H292.004V62.4143H288.779V73.2188Z" fill="#E0E0E0"/>
<path d="M292.132 89.2656H296.223V85.2363H292.132V89.2656Z" fill="#E0E0E0"/>
<path d="M287.9 85.2344H292.129V81.0683H287.9V85.2344Z" fill="#E0E0E0"/>
<path d="M283.773 81.0781H287.906V75.1972H283.773V81.0781Z" fill="#E0E0E0"/>
<path d="M295.327 106.172H299.332V102.227H295.327V106.172Z" fill="#E0E0E0"/>
<path d="M291.974 116.977H295.199V106.172H291.974V116.977Z" fill="#E0E0E0"/>
<path d="M292.081 95.625H296.172V91.5957H292.081V95.625Z" fill="#E0E0E0"/>
<path d="M287.861 99.7891H292.09V95.623H287.861V99.7891Z" fill="#E0E0E0"/>
<path d="M283.734 105.664H287.867V99.7832H283.734V105.664Z" fill="#E0E0E0"/>
<path d="M332.79 102.219H328.785V106.164H332.79V102.219Z" fill="#E0E0E0"/>
<path d="M336.143 106.172H332.918V116.976H336.143V106.172Z" fill="#E0E0E0"/>
<path d="M335.876 91.5938H331.785V95.623H335.876V91.5938Z" fill="#E0E0E0"/>
<path d="M340.108 95.6172H335.879V99.7833H340.108V95.6172Z" fill="#E0E0E0"/>
<path d="M344.313 99.7969H340.18V105.678H344.313V99.7969Z" fill="#E0E0E0"/>
<path d="M319.124 -12.9531H300.52V5.37338H319.124V-12.9531Z" fill="#F0F0F0"/>
<path d="M321.11 -10.3281H298.543V2.50674H321.11V-10.3281Z" fill="#F0F0F0"/>
<path d="M298.073 7.74219H300.594V5.25938H298.073V7.74219Z" fill="#F0F0F0"/>
<path d="M295.967 14.5391H297.996V7.75342H295.967V14.5391Z" fill="#F0F0F0"/>
<path d="M296.05 1.11719L298.613 1.11719V-1.40771L296.05 -1.40771V1.11719Z" fill="#F0F0F0"/>
<path d="M293.384 3.72656L296.043 3.72656V1.11751L293.384 1.11751V3.72656Z" fill="#F0F0F0"/>
<path d="M290.799 7.4375H293.395V3.74485L290.799 3.74485V7.4375Z" fill="#F0F0F0"/>
<path d="M321.618 5.26562H319.098V7.74844H321.618V5.26562Z" fill="#F0F0F0"/>
<path d="M323.713 7.74219H321.684V14.5278H323.713V7.74219Z" fill="#F0F0F0"/>
<path d="M323.544 -1.41406H320.98V1.11083H323.544V-1.41406Z" fill="#F0F0F0"/>
<path d="M326.192 1.11719H323.543V3.72625H326.192V1.11719Z" fill="#F0F0F0"/>
<path d="M328.841 3.73438H326.246V7.42703H328.841V3.73438Z" fill="#F0F0F0"/>
<path d="M146.334 -4.92188H134.789V6.45066H146.334V-4.92188Z" fill="#F0F0F0"/>
<path d="M147.56 -3.28906H133.559V4.67487H147.56V-3.28906Z" fill="#F0F0F0"/>
<path d="M149.087 -0.242188H147.496V1.32534H149.087V-0.242188Z" fill="#F0F0F0"/>
<path d="M132.026 1.33594L133.617 1.33594V-0.231596L132.026 -0.231596V1.33594Z" fill="#F0F0F0"/>
<path d="M133.265 7.91406H134.824V6.37808H133.265V7.91406Z" fill="#F0F0F0"/>
<path d="M131.962 12.1172H133.223V7.90903H131.962V12.1172Z" fill="#F0F0F0"/>
<path d="M132.006 3.79688H133.598V2.22934H132.006V3.79688Z" fill="#F0F0F0"/>
<path d="M130.367 5.42188H132.012V3.80173H130.367V5.42188Z" fill="#F0F0F0"/>
<path d="M128.747 7.71094H130.359V5.41749H128.747V7.71094Z" fill="#F0F0F0"/>
<path d="M147.868 6.36719H146.309V7.90316H147.868V6.36719Z" fill="#F0F0F0"/>
<path d="M149.182 7.91406H147.922V12.1222H149.182V7.91406Z" fill="#F0F0F0"/>
<path d="M149.076 2.23438H147.484V3.80191H149.076V2.23438Z" fill="#F0F0F0"/>
<path d="M150.719 3.80469H149.074V5.42483H150.719V3.80469Z" fill="#F0F0F0"/>
<path d="M152.37 5.42188H150.758V7.71532H152.37V5.42188Z" fill="#F0F0F0"/>
<path d="M153.772 102.633H114V130.491H153.772V102.633Z" fill="#E0E0E0"/>
<path d="M150.204 100.469H117.566V132.619H150.204V100.469Z" fill="#E0E0E0"/>
<path d="M122.417 91.1562H118.07V98.8046H122.417V91.1562Z" fill="#E0E0E0"/>
<path d="M149.706 91.1562H145.359V98.8046H149.706V91.1562Z" fill="#E0E0E0"/>
<path d="M145.348 86.9297H122.418V91.3483H145.348V86.9297Z" fill="#E0E0E0"/>
<path d="M138.671 110.164H129.102V116.55H138.671V110.164Z" fill="#FAFAFA"/>
<path d="M135.596 114.234H132.168V124.039H135.596V114.234Z" fill="#FAFAFA"/>
<path d="M435.331 22.2031H395.559V50.0611H435.331V22.2031Z" fill="#E0E0E0"/>
<path d="M431.763 20.0391H399.125V52.1894H431.763V20.0391Z" fill="#E0E0E0"/>
<path d="M403.987 10.7266H399.641V18.3749H403.987V10.7266Z" fill="#E0E0E0"/>
<path d="M431.261 10.7266H426.914V18.3749H431.261V10.7266Z" fill="#E0E0E0"/>
<path d="M426.918 6.5H403.988V10.9186H426.918V6.5Z" fill="#E0E0E0"/>
<path d="M420.229 29.75H410.66V36.1359H420.229V29.75Z" fill="#FAFAFA"/>
<path d="M417.155 33.8125H413.727V43.6175H417.155V33.8125Z" fill="#FAFAFA"/>
<path d="M466.772 236.688H427V264.545H466.772V236.688Z" fill="#E0E0E0"/>
<path d="M463.204 234.531H430.566V266.682H463.204V234.531Z" fill="#E0E0E0"/>
<path d="M435.429 225.227H431.082V232.875H435.429V225.227Z" fill="#E0E0E0"/>
<path d="M462.702 225.227H458.355V232.875H462.702V225.227Z" fill="#E0E0E0"/>
<path d="M458.36 221H435.43V225.419H458.36V221Z" fill="#E0E0E0"/>
<path d="M451.671 244.227H442.102V250.612H451.671V244.227Z" fill="#FAFAFA"/>
<path d="M448.608 248.289H445.18V258.094H448.608V248.289Z" fill="#FAFAFA"/>
<path d="M402.985 154.258H381.379V169.386H402.985V154.258Z" fill="#F0F0F0"/>
<path d="M401.041 153.094H383.312V170.558H401.041V153.094Z" fill="#F0F0F0"/>
<path d="M385.954 148.031H383.594V152.187H385.954V148.031Z" fill="#F0F0F0"/>
<path d="M400.767 148.031H398.406V152.187H400.767V148.031Z" fill="#F0F0F0"/>
<path d="M398.406 145.727H385.953V148.125H398.406V145.727Z" fill="#F0F0F0"/>
<path d="M394.783 158.352H389.582V161.823H394.783V158.352Z" fill="white"/>
<path d="M393.119 160.562H391.25V165.886H393.119V160.562Z" fill="white"/>
<path d="M237.501 11.5391H204.051V52.8947H237.501V11.5391Z" fill="#E0E0E0"/>
<path d="M244.421 13.6406H197.141V36.7013H244.421V13.6406Z" fill="#E0E0E0"/>
<path d="M241.653 31.8438H199.895V46.2672H241.653V31.8438Z" fill="#E0E0E0"/>
<path d="M232.118 49.0625H209.434V56.8476H232.118V49.0625Z" fill="#E0E0E0"/>
<path d="M223.775 54.25H217.762V60.5727H223.775V54.25Z" fill="#E0E0E0"/>
<path d="M210.425 26.875H205.395V31.8301H210.425V26.875Z" fill="#FAFAFA"/>
<path d="M215.574 32.0078H210.426V37.0786H215.574V32.0078Z" fill="#FAFAFA"/>
<path d="M221.802 37.0781H215.586V41.6124H221.802V37.0781Z" fill="#FAFAFA"/>
<path d="M226.447 30.6719H221.801V37.1209H226.447V30.6719Z" fill="#FAFAFA"/>
<path d="M231.091 24.8203H226.445V30.6591H231.091V24.8203Z" fill="#FAFAFA"/>
<path d="M236.156 19.9766H231.094V24.9632H236.156V19.9766Z" fill="#FAFAFA"/>
<path d="M523.448 5.14844H502.707V30.7866H523.448V5.14844Z" fill="#F0F0F0"/>
<path d="M527.727 6.45312H498.41V20.7503H527.727V6.45312Z" fill="#F0F0F0"/>
<path d="M526.017 17.7266H500.129V26.6689H526.017V17.7266Z" fill="#F0F0F0"/>
<path d="M520.101 28.4062H506.035V33.2351H520.101V28.4062Z" fill="#F0F0F0"/>
<path d="M514.93 31.6328H511.203V35.5569H514.93V31.6328Z" fill="#F0F0F0"/>
<path d="M506.654 14.6562H503.535V17.7282H506.654V14.6562Z" fill="white"/>
<path d="M509.846 17.8594H506.652V21.005H509.846V17.8594Z" fill="white"/>
<path d="M513.699 21H509.844V23.8089H513.699V21Z" fill="white"/>
<path d="M516.583 17.0078H513.699V21.0056H516.583V17.0078Z" fill="white"/>
<path d="M519.47 13.3906H516.586V17.0096H519.47V13.3906Z" fill="white"/>
<path d="M522.609 10.3828H519.469V13.4758H522.609V10.3828Z" fill="white"/>
<path d="M344.193 247.383H329.594V265.425H344.193V247.383Z" fill="#F0F0F0"/>
<path d="M347.2 248.297H326.566V258.365H347.2V248.297Z" fill="#F0F0F0"/>
<path d="M345.997 256.242H327.777V262.533H345.997V256.242Z" fill="#F0F0F0"/>
<path d="M341.842 263.75H331.941V267.148H341.842V263.75Z" fill="#F0F0F0"/>
<path d="M338.198 266.023H335.57V268.78H338.198V266.023Z" fill="#F0F0F0"/>
<path d="M332.372 254.078H330.172V256.245H332.372V254.078Z" fill="white"/>
<path d="M334.602 256.32H332.359V258.53H334.602V256.32Z" fill="white"/>
<path d="M337.326 258.547H334.613V260.525H337.326V258.547Z" fill="white"/>
<path d="M339.357 255.734H337.328V258.554H339.357V255.734Z" fill="white"/>
<path d="M341.389 253.188H339.359V255.733H341.389V253.188Z" fill="white"/>
<path d="M343.598 251.07H341.387V253.248H343.598V251.07Z" fill="white"/>
<path d="M331 362C445.323 362 538 356.627 538 350C538 343.373 445.323 338 331 338C216.677 338 124 343.373 124 350C124 356.627 216.677 362 331 362Z" fill="#F5F5F5"/>
<path d="M494.965 279.013C494.965 279.013 501.747 273.447 507.557 279.013C513.366 284.578 514.488 319.074 514.488 319.074" stroke="#00B47F" stroke-miterlimit="10"/>
<path d="M514.976 325.726C514.976 325.726 510.982 285.254 526.03 268.242" stroke="#00B47F" stroke-miterlimit="10"/>
<path d="M513.546 321.461C513.546 321.461 516.622 275.382 505.344 265.156" stroke="#00B47F" stroke-miterlimit="10"/>
<path d="M514.973 321.465C514.973 321.465 515.24 291.019 523.623 286.285C532.007 281.551 536.279 296.994 536.279 296.994" stroke="#00B47F" stroke-miterlimit="10"/>
<path d="M511.665 321.463C511.665 321.463 513.032 298.087 506.539 289.734C500.045 281.381 493.199 293.311 493.199 293.311" stroke="#00B47F" stroke-miterlimit="10"/>
<path d="M513.928 324.596C513.928 324.596 509.73 269.933 516.683 260.664" stroke="#00B47F" stroke-miterlimit="10"/>
<path d="M530.803 290.695C530.803 290.695 526.628 292.21 527.866 295.798C529.105 299.385 542.327 305.287 542.327 305.287C542.327 305.287 547.859 300.29 542.776 292.158C537.692 284.025 530.91 288.139 530.803 290.695Z" fill="#00B47F"/>
<path opacity="0.5" d="M530.803 290.695C530.803 290.695 526.628 292.21 527.866 295.798C529.105 299.385 542.327 305.287 542.327 305.287C542.327 305.287 547.859 300.29 542.776 292.158C537.692 284.025 530.91 288.139 530.803 290.695Z" fill="white"/>
<path d="M512.628 283.885C512.628 283.885 517.082 283.706 517.338 287.483C517.594 291.259 507.694 301.717 507.694 301.717C507.694 301.717 500.634 299.202 502.151 289.765C503.657 280.339 511.517 281.56 512.628 283.885Z" fill="#00B47F"/>
<path opacity="0.5" d="M512.628 283.885C512.628 283.885 517.082 283.706 517.338 287.483C517.594 291.259 507.694 301.717 507.694 301.717C507.694 301.717 500.634 299.202 502.151 289.765C503.657 280.339 511.517 281.56 512.628 283.885Z" fill="white"/>
<path d="M508.854 265.796C508.854 265.796 511.823 265.481 511.588 263.703C511.353 261.925 500.054 257.338 493.379 264.755C493.379 264.755 497.651 271.982 503.824 272.077C509.986 272.161 508.854 265.796 508.854 265.796Z" fill="#00B47F"/>
<path opacity="0.5" d="M508.854 265.796C508.854 265.796 511.823 265.481 511.588 263.703C511.353 261.925 500.054 257.338 493.379 264.755C493.379 264.755 497.651 271.982 503.824 272.077C509.986 272.161 508.854 265.796 508.854 265.796Z" fill="white"/>
<path d="M514.385 261.46C514.385 261.46 511.693 262.744 510.946 261.103C510.188 259.461 517.322 249.688 526.955 252.507C526.955 252.507 527.212 260.861 522.021 264.154C516.841 267.446 514.385 261.46 514.385 261.46Z" fill="#00B47F"/>
<path opacity="0.5" d="M514.385 261.46C514.385 261.46 511.693 262.744 510.946 261.103C510.188 259.461 517.322 249.688 526.955 252.507C526.955 252.507 527.212 260.861 522.021 264.154C516.841 267.446 514.385 261.46 514.385 261.46Z" fill="white"/>
<path d="M500.329 289.256C500.329 289.256 502.379 287.625 500.168 286.836C497.958 286.037 487.107 286.268 487 296.852C487 296.852 499.634 298.924 501.194 294.884C502.753 290.855 500.329 289.256 500.329 289.256Z" fill="#00B47F"/>
<path opacity="0.5" d="M500.329 289.256C500.329 289.256 502.379 287.625 500.168 286.836C497.958 286.037 487.107 286.268 487 296.852C487 296.852 499.634 298.924 501.194 294.884C502.753 290.855 500.329 289.256 500.329 289.256Z" fill="white"/>
<path d="M526.095 265.529C526.095 265.529 524.045 263.899 526.255 263.11C528.466 262.31 539.317 262.542 539.424 273.125C539.424 273.125 526.789 275.198 525.23 271.158C523.671 267.118 526.095 265.529 526.095 265.529Z" fill="#00B47F"/>
<path opacity="0.5" d="M526.095 265.529C526.095 265.529 524.045 263.899 526.255 263.11C528.466 262.31 539.317 262.542 539.424 273.125C539.424 273.125 526.789 275.198 525.23 271.158C523.671 267.118 526.095 265.529 526.095 265.529Z" fill="white"/>
<path d="M519.418 274.045C519.418 274.045 519.236 272.067 520.859 272.846C522.483 273.624 528.143 279.631 522.28 285.333C522.28 285.333 514.387 279.579 515.808 276.58C517.228 273.582 519.418 274.045 519.418 274.045Z" fill="#00B47F"/>
<path opacity="0.5" d="M519.418 274.045C519.418 274.045 519.236 272.067 520.859 272.846C522.483 273.624 528.143 279.631 522.28 285.333C522.28 285.333 514.387 279.579 515.808 276.58C517.228 273.582 519.418 274.045 519.418 274.045Z" fill="white"/>
<path d="M498.497 276.877C498.497 276.877 499.725 275.299 497.931 275.099C496.136 274.899 488.094 277.013 489.974 284.925C489.974 284.925 499.768 284.199 500.184 280.916C500.601 277.624 498.497 276.877 498.497 276.877Z" fill="#00B47F"/>
<path opacity="0.5" d="M498.497 276.877C498.497 276.877 499.725 275.299 497.931 275.099C496.136 274.899 488.094 277.013 489.974 284.925C489.974 284.925 499.768 284.199 500.184 280.916C500.601 277.624 498.497 276.877 498.497 276.877Z" fill="white"/>
<path d="M531.579 350.787H497.98L494.359 314.555H535.2L531.579 350.787Z" fill="#263238"/>
<path opacity="0.2" d="M531.579 350.787H497.98L494.359 314.555H535.2L531.579 350.787Z" fill="#263238"/>
<path d="M537.006 310.562H492.566V318.558H537.006V310.562Z" fill="#263238"/>
<path opacity="0.4" d="M537.006 310.562H492.566V318.558H537.006V310.562Z" fill="white"/>
<path d="M537.668 168.514H423.446C422.1 168.514 421 167.43 421 166.105V74.4092C421 73.0836 422.1 72 423.446 72H537.668C539.014 72 540.114 73.0836 540.114 74.4092V166.105C540.114 167.441 539.014 168.514 537.668 168.514Z" fill="#222222"/>
<path opacity="0.6" d="M540.114 74.4092V166.105C540.114 167.441 539.014 168.514 537.668 168.514H423.446C422.1 168.514 421 167.441 421 166.105V74.4092C421 73.0836 422.1 72 423.446 72H537.668C539.014 72 540.114 73.0836 540.114 74.4092Z" fill="white"/>
<path d="M537.572 81.8125H423.531V165.807H537.572V81.8125Z" fill="#FFC305"/>
<path opacity="0.5" d="M432.813 92.2895C432.952 92.3947 433.123 92.4473 433.283 92.4473C433.529 92.4473 433.774 92.3315 433.924 92.1211C434.191 91.774 434.106 91.2795 433.753 91.0165L431.393 89.3017L433.753 87.5868C434.106 87.3238 434.18 86.8294 433.924 86.4822C433.657 86.135 433.155 86.0614 432.803 86.3139L429.566 88.6704C429.364 88.8177 429.246 89.0597 429.246 89.3017C429.246 89.5542 429.364 89.7856 429.577 89.9329L432.813 92.2895Z" fill="white"/>
<path opacity="0.5" d="M443.667 89.2906L441.307 91.0054C440.955 91.2684 440.88 91.7629 441.136 92.11C441.296 92.3204 441.531 92.4257 441.777 92.4257C441.937 92.4257 442.108 92.3731 442.258 92.2678L445.494 89.9113C445.696 89.764 445.814 89.522 445.814 89.2801C445.814 89.0276 445.697 88.7961 445.483 88.6488L442.247 86.3028C441.894 86.0398 441.392 86.1239 441.125 86.4711C440.858 86.8183 440.944 87.3128 441.296 87.5758L443.667 89.2906Z" fill="white"/>
<path opacity="0.5" d="M436.424 92.3907C436.51 92.4222 436.606 92.4328 436.691 92.4328C437.022 92.4328 437.332 92.2329 437.45 91.9067L439.137 87.2041C439.287 86.7938 439.062 86.3415 438.646 86.1942C438.229 86.0469 437.77 86.2678 437.621 86.6781L435.933 91.3807C435.784 91.791 436.008 92.2434 436.424 92.3907Z" fill="white"/>
<path opacity="0.5" d="M449.787 92.6978H454.016C454.603 92.6978 455.084 92.2244 455.084 91.6458C455.084 91.0672 454.603 90.5938 454.016 90.5938H449.787C449.199 90.5938 448.719 91.0672 448.719 91.6458C448.719 92.2244 449.189 92.6978 449.787 92.6978Z" fill="white"/>
<path opacity="0.5" d="M518.191 152.211H466.692H459.451H452.103C451.516 152.211 451.035 152.684 451.035 153.263C451.035 153.842 451.516 154.315 452.103 154.315H459.451H466.692H518.191C518.778 154.315 519.259 153.842 519.259 153.263C519.259 152.674 518.789 152.211 518.191 152.211Z" fill="white"/>
<path d="M532.703 152.211H524.533C523.945 152.211 523.465 152.684 523.465 153.263C523.465 153.842 523.945 154.315 524.533 154.315H532.703C533.29 154.315 533.771 153.842 533.771 153.263C533.771 152.674 533.301 152.211 532.703 152.211Z" fill="white"/>
<path d="M472.033 147.659H498.637C499.224 147.659 499.705 147.185 499.705 146.607C499.705 146.028 499.224 145.555 498.637 145.555H472.033C471.445 145.555 470.965 146.028 470.965 146.607C470.965 147.185 471.445 147.659 472.033 147.659Z" fill="white"/>
<path opacity="0.5" d="M518.19 147.659C518.778 147.659 519.258 147.185 519.258 146.607C519.258 146.028 518.778 145.555 518.19 145.555H503.099C502.512 145.555 502.031 146.028 502.031 146.607C502.031 147.185 502.512 147.659 503.099 147.659H518.19Z" fill="white"/>
<path opacity="0.5" d="M532.701 145.555H524.67C524.082 145.555 523.602 146.028 523.602 146.607C523.602 147.185 524.082 147.659 524.67 147.659H532.701C533.288 147.659 533.769 147.185 533.769 146.607C533.769 146.018 533.299 145.555 532.701 145.555Z" fill="white"/>
<path d="M518.298 138.891H482.713C482.125 138.891 481.645 139.364 481.645 139.943C481.645 140.521 482.125 140.995 482.713 140.995H518.298C518.886 140.995 519.366 140.521 519.366 139.943C519.366 139.364 518.896 138.891 518.298 138.891Z" fill="white"/>
<path d="M532.704 138.891H524.588C524 138.891 523.52 139.364 523.52 139.943C523.52 140.521 524 140.995 524.588 140.995H532.704C533.292 140.995 533.772 140.521 533.772 139.943C533.772 139.364 533.302 138.891 532.704 138.891Z" fill="white"/>
<path opacity="0.5" d="M498.701 133.286C498.701 132.708 498.22 132.234 497.633 132.234H461.353C460.766 132.234 460.285 132.708 460.285 133.286C460.285 133.865 460.766 134.338 461.353 134.338H497.633C498.22 134.338 498.701 133.865 498.701 133.286Z" fill="white"/>
<path opacity="0.5" d="M504.213 132.234C503.625 132.234 503.145 132.708 503.145 133.286C503.145 133.865 503.625 134.338 504.213 134.338H518.289C518.876 134.338 519.357 133.865 519.357 133.286C519.357 132.708 518.876 132.234 518.289 132.234H504.213Z" fill="white"/>
<path d="M532.706 132.234H524.685C524.098 132.234 523.617 132.708 523.617 133.286C523.617 133.865 524.098 134.338 524.685 134.338H532.706C533.293 134.338 533.774 133.865 533.774 133.286C533.774 132.708 533.304 132.234 532.706 132.234Z" fill="white"/>
<path d="M506.209 127.674H513.193C513.781 127.674 514.261 127.201 514.261 126.622C514.261 126.044 513.781 125.57 513.193 125.57H506.209C505.621 125.57 505.141 126.044 505.141 126.622C505.141 127.201 505.621 127.674 506.209 127.674Z" fill="white"/>
<path opacity="0.5" d="M518.154 127.674H532.7C533.287 127.674 533.768 127.201 533.768 126.622C533.768 126.044 533.287 125.57 532.7 125.57H518.154C517.567 125.57 517.086 126.044 517.086 126.622C517.086 127.201 517.567 127.674 518.154 127.674Z" fill="white"/>
<path d="M467.04 119.974C467.04 119.395 466.559 118.922 465.972 118.922H429.318C428.731 118.922 428.25 119.395 428.25 119.974C428.25 120.553 428.731 121.026 429.318 121.026H465.972C466.559 121.026 467.04 120.553 467.04 119.974Z" fill="white"/>
<path opacity="0.5" d="M471.728 121.026H482.504C483.092 121.026 483.572 120.553 483.572 119.974C483.572 119.395 483.092 118.922 482.504 118.922H471.728C471.141 118.922 470.66 119.395 470.66 119.974C470.66 120.553 471.141 121.026 471.728 121.026Z" fill="white"/>
<path opacity="0.5" d="M429.31 114.362H443.183C443.771 114.362 444.251 113.888 444.251 113.31C444.251 112.731 443.771 112.258 443.183 112.258H429.31C428.723 112.258 428.242 112.731 428.242 113.31C428.242 113.888 428.723 114.362 429.31 114.362Z" fill="white"/>
<path d="M494.259 113.31C494.259 112.731 493.778 112.258 493.191 112.258H450.076C449.488 112.258 449.008 112.731 449.008 113.31C449.008 113.888 449.488 114.362 450.076 114.362H493.191C493.789 114.362 494.259 113.888 494.259 113.31Z" fill="white"/>
<path d="M429.31 107.698H454.462C455.049 107.698 455.53 107.224 455.53 106.646C455.53 106.067 455.049 105.594 454.462 105.594H429.31C428.723 105.594 428.242 106.067 428.242 106.646C428.242 107.224 428.723 107.698 429.31 107.698Z" fill="white"/>
<path opacity="0.5" d="M459.195 106.646C459.195 107.224 459.676 107.698 460.263 107.698H466.5C467.088 107.698 467.568 107.224 467.568 106.646C467.568 106.067 467.088 105.594 466.5 105.594H460.263C459.676 105.594 459.195 106.067 459.195 106.646Z" fill="white"/>
<path opacity="0.5" d="M429.31 101.049H459.011C459.599 101.049 460.079 100.576 460.079 99.9974C460.079 99.4187 459.599 98.9453 459.011 98.9453H429.31C428.723 98.9453 428.242 99.4187 428.242 99.9974C428.242 100.576 428.723 101.049 429.31 101.049Z" fill="white"/>
<path d="M481.088 101.049H503.879C504.466 101.049 504.947 100.576 504.947 99.9974C504.947 99.4187 504.466 98.9453 503.879 98.9453H481.088C480.5 98.9453 480.02 99.4187 480.02 99.9974C480.02 100.576 480.5 101.049 481.088 101.049Z" fill="white"/>
<path opacity="0.2" d="M489.234 72V98.1537C489.234 101.057 486.842 103.424 483.884 103.424H421V74.4092C421 73.0836 422.1 72 423.446 72H489.234Z" fill="black"/>
<path d="M484.62 102.514H355.446C354.1 102.514 353 101.43 353 100.105V8.40917C353 7.0836 354.1 6 355.446 6H484.62C485.966 6 487.066 7.0836 487.066 8.40917V100.105C487.066 101.441 485.966 102.514 484.62 102.514Z" fill="#222222"/>
<path opacity="0.6" d="M487.066 8.40917V100.105C487.066 101.441 485.966 102.514 484.62 102.514H355.446C354.089 102.514 353 101.441 353 100.105V8.40917C353 7.0836 354.089 6 355.446 6H484.62C485.966 6 487.066 7.0836 487.066 8.40917Z" fill="white"/>
<path d="M484.524 15.8203H355.531V99.815H484.524V15.8203Z" fill="#5A72EB"/>
<path d="M364.809 26.2895C364.948 26.3947 365.119 26.4473 365.279 26.4473C365.525 26.4473 365.771 26.3315 365.92 26.1211C366.187 25.774 366.102 25.2795 365.749 25.0165L363.389 23.3017L365.749 21.5868C366.102 21.3238 366.176 20.8294 365.92 20.4822C365.653 20.135 365.151 20.0614 364.799 20.3139L361.563 22.6704C361.36 22.8177 361.242 23.0597 361.242 23.3017C361.242 23.5542 361.36 23.7856 361.573 23.9329L364.809 26.2895Z" fill="white"/>
<path d="M375.648 23.2906L373.287 25.0054C372.935 25.2684 372.86 25.7629 373.117 26.11C373.277 26.3205 373.512 26.4257 373.757 26.4257C373.928 26.4257 374.088 26.3731 374.238 26.2679L377.474 23.9113C377.677 23.764 377.794 23.522 377.794 23.2801C377.794 23.0276 377.677 22.7961 377.463 22.6488L374.227 20.3028C373.875 20.0398 373.373 20.1239 373.106 20.4711C372.839 20.8183 372.924 21.3128 373.277 21.5758L375.648 23.2906Z" fill="white"/>
<path d="M368.421 26.3907C368.506 26.4222 368.602 26.4328 368.688 26.4328C369.019 26.4328 369.328 26.2329 369.446 25.9067L371.133 21.2041C371.283 20.7938 371.059 20.3415 370.642 20.1942C370.225 20.0469 369.766 20.2678 369.617 20.6781L367.929 25.3807C367.78 25.791 368.004 26.2434 368.421 26.3907Z" fill="white"/>
<path opacity="0.5" d="M381.767 26.6978H385.997C386.584 26.6978 387.065 26.2244 387.065 25.6458C387.065 25.0672 386.584 24.5938 385.997 24.5938H381.767C381.18 24.5938 380.699 25.0672 380.699 25.6458C380.699 26.2244 381.18 26.6978 381.767 26.6978Z" fill="white"/>
<path opacity="0.5" d="M436.572 35.0494H442.275C442.862 35.0494 443.343 34.576 443.343 33.9973C443.343 33.4187 442.862 32.9453 442.275 32.9453H436.572C435.985 32.9453 435.504 33.4187 435.504 33.9973C435.504 34.576 435.985 35.0494 436.572 35.0494Z" fill="white"/>
<path d="M374.754 33.9973C374.754 34.576 375.235 35.0494 375.822 35.0494H429.222C429.809 35.0494 430.29 34.576 430.29 33.9973C430.29 33.4187 429.809 32.9453 429.222 32.9453H375.822C375.235 32.9453 374.754 33.4187 374.754 33.9973Z" fill="white"/>
<path opacity="0.5" d="M361.306 35.0494H369.476C370.064 35.0494 370.544 34.576 370.544 33.9973C370.544 33.4187 370.064 32.9453 369.476 32.9453H361.306C360.719 32.9453 360.238 33.4187 360.238 33.9973C360.238 34.576 360.719 35.0494 361.306 35.0494Z" fill="white"/>
<path d="M416.64 41.6978C417.228 41.6978 417.708 41.2244 417.708 40.6458C417.708 40.0672 417.228 39.5938 416.64 39.5938H395.377C394.789 39.5938 394.309 40.0672 394.309 40.6458C394.309 41.2244 394.789 41.6978 395.377 41.6978H416.64Z" fill="white"/>
<path d="M375.822 41.6978H390.913C391.5 41.6978 391.981 41.2244 391.981 40.6458C391.981 40.0672 391.5 39.5938 390.913 39.5938H375.822C375.235 39.5938 374.754 40.0672 374.754 40.6458C374.754 41.2244 375.235 41.6978 375.822 41.6978Z" fill="white"/>
<path opacity="0.5" d="M361.306 41.6978H369.338C369.925 41.6978 370.406 41.2244 370.406 40.6458C370.406 40.0672 369.925 39.5938 369.338 39.5938H361.306C360.719 39.5938 360.238 40.0672 360.238 40.6458C360.238 41.2244 360.719 41.6978 361.306 41.6978Z" fill="white"/>
<path d="M407.03 47.3099C407.03 46.7312 406.55 46.2578 405.962 46.2578H375.716C375.129 46.2578 374.648 46.7312 374.648 47.3099C374.648 47.8885 375.129 48.3619 375.716 48.3619H405.962C406.56 48.3619 407.03 47.8885 407.03 47.3099Z" fill="white"/>
<path opacity="0.5" d="M361.306 48.3619H369.423C370.01 48.3619 370.491 47.8885 370.491 47.3099C370.491 46.7312 370.01 46.2578 369.423 46.2578H361.306C360.719 46.2578 360.238 46.7312 360.238 47.3099C360.238 47.8885 360.719 48.3619 361.306 48.3619Z" fill="white"/>
<path d="M396.377 55.026H427.317C427.904 55.026 428.385 54.5525 428.385 53.9739C428.385 53.3953 427.904 52.9219 427.317 52.9219H396.377C395.789 52.9219 395.309 53.3953 395.309 53.9739C395.309 54.5525 395.789 55.026 396.377 55.026Z" fill="white"/>
<path d="M375.736 52.9219C375.149 52.9219 374.668 53.3953 374.668 53.9739C374.668 54.5525 375.149 55.026 375.736 55.026H389.812C390.4 55.026 390.88 54.5525 390.88 53.9739C390.88 53.3953 390.4 52.9219 389.812 52.9219H375.736Z" fill="white"/>
<path opacity="0.5" d="M361.306 55.026H369.327C369.914 55.026 370.395 54.5525 370.395 53.9739C370.395 53.3953 369.914 52.9219 369.327 52.9219H361.306C360.719 52.9219 360.238 53.3953 360.238 53.9739C360.238 54.5525 360.719 55.026 361.306 55.026Z" fill="white"/>
<path d="M387.803 59.5703H380.818C380.231 59.5703 379.75 60.0437 379.75 60.6224C379.75 61.201 380.231 61.6744 380.818 61.6744H387.803C388.39 61.6744 388.871 61.201 388.871 60.6224C388.871 60.0437 388.401 59.5703 387.803 59.5703Z" fill="white"/>
<path d="M375.852 59.5703H361.306C360.719 59.5703 360.238 60.0437 360.238 60.6224C360.238 61.201 360.719 61.6744 361.306 61.6744H375.852C376.44 61.6744 376.92 61.201 376.92 60.6224C376.92 60.0437 376.44 59.5703 375.852 59.5703Z" fill="white"/>
<path d="M421.637 67.2864C421.637 67.865 422.117 68.3385 422.705 68.3385H479.65C480.238 68.3385 480.718 67.865 480.718 67.2864C480.718 66.7078 480.238 66.2344 479.65 66.2344H422.705C422.117 66.2344 421.637 66.7078 421.637 67.2864Z" fill="white"/>
<path opacity="0.5" d="M406.162 66.2344C405.574 66.2344 405.094 66.7078 405.094 67.2864C405.094 67.865 405.574 68.3385 406.162 68.3385H416.938C417.525 68.3385 418.006 67.865 418.006 67.2864C418.006 66.7078 417.525 66.2344 416.938 66.2344H406.162Z" fill="white"/>
<path opacity="0.5" d="M479.652 72.8906H465.779C465.192 72.8906 464.711 73.364 464.711 73.9427C464.711 74.5213 465.192 74.9947 465.779 74.9947H479.652C480.24 74.9947 480.72 74.5213 480.72 73.9427C480.72 73.364 480.25 72.8906 479.652 72.8906Z" fill="white"/>
<path d="M459.953 73.9427C459.953 73.364 459.473 72.8906 458.885 72.8906H400.818C400.231 72.8906 399.75 73.364 399.75 73.9427C399.75 74.5213 400.231 74.9947 400.818 74.9947H458.885C459.473 74.9947 459.953 74.5213 459.953 73.9427Z" fill="white"/>
<path d="M479.649 79.5547H454.498C453.91 79.5547 453.43 80.0281 453.43 80.6067C453.43 81.1853 453.91 81.6588 454.498 81.6588H479.649C480.236 81.6588 480.717 81.1853 480.717 80.6067C480.717 80.0281 480.247 79.5547 479.649 79.5547Z" fill="white"/>
<path opacity="0.5" d="M442.474 79.5547C441.887 79.5547 441.406 80.0281 441.406 80.6067C441.406 81.1853 441.887 81.6588 442.474 81.6588H448.711C449.299 81.6588 449.779 81.1853 449.779 80.6067C449.779 80.0281 449.299 79.5547 448.711 79.5547H442.474Z" fill="white"/>
<path d="M479.651 86.2109H429.658C429.07 86.2109 428.59 86.6844 428.59 87.263C428.59 87.8416 429.07 88.315 429.658 88.315H479.651C480.238 88.315 480.719 87.8416 480.719 87.263C480.719 86.6844 480.249 86.2109 479.651 86.2109Z" fill="white"/>
<path d="M407.597 86.2109H390.146C389.559 86.2109 389.078 86.6844 389.078 87.263C389.078 87.8416 389.559 88.315 390.146 88.315H407.597C408.185 88.315 408.665 87.8416 408.665 87.263C408.665 86.6844 408.185 86.2109 407.597 86.2109Z" fill="white"/>
<path opacity="0.2" d="M424.471 47.5331V102.513H355.446C354.089 102.513 353 101.44 353 100.103V42.8516H419.718C422.345 42.8516 424.471 44.9451 424.471 47.5331Z" fill="black"/>
<path d="M411.858 124.196H262.391C261.045 124.196 259.945 123.113 259.945 121.787V30.081C259.945 28.7555 261.045 27.6719 262.391 27.6719H411.858C413.203 27.6719 414.303 28.7555 414.303 30.081V121.777C414.303 123.113 413.203 124.196 411.858 124.196Z" fill="#222222"/>
<path opacity="0.6" d="M411.858 124.196H262.391C261.045 124.196 259.945 123.113 259.945 121.787V30.081C259.945 28.7555 261.045 27.6719 262.391 27.6719H411.858C413.203 27.6719 414.303 28.7555 414.303 30.081V121.777C414.303 123.113 413.203 124.196 411.858 124.196Z" fill="white"/>
<path d="M411.773 37.4766H262.488V121.471H411.773V37.4766Z" fill="#00B47F"/>
<path d="M292.143 55.1094H268.252C267.664 55.1094 267.184 55.5828 267.184 56.1614C267.184 56.74 267.664 57.2135 268.252 57.2135H292.143C292.73 57.2135 293.211 56.74 293.211 56.1614C293.211 55.5723 292.73 55.1094 292.143 55.1094Z" fill="white"/>
<path d="M292.142 61.6719H271.455C270.867 61.6719 270.387 62.1453 270.387 62.7239C270.387 63.3025 270.867 63.7759 271.455 63.7759H292.142C292.729 63.7759 293.21 63.3025 293.21 62.7239C293.21 62.1453 292.729 61.6719 292.142 61.6719Z" fill="white"/>
<path opacity="0.5" d="M292.143 68.2422H268.252C267.664 68.2422 267.184 68.7156 267.184 69.2942C267.184 69.8728 267.664 70.3463 268.252 70.3463H292.143C292.73 70.3463 293.211 69.8728 293.211 69.2942C293.211 68.7156 292.73 68.2422 292.143 68.2422Z" fill="white"/>
<path d="M292.144 74.7891H277.865C277.277 74.7891 276.797 75.2625 276.797 75.8411C276.797 76.4197 277.277 76.8931 277.865 76.8931H292.144C292.731 76.8931 293.212 76.4197 293.212 75.8411C293.212 75.2625 292.731 74.7891 292.144 74.7891Z" fill="white"/>
<path d="M292.143 81.3594H268.252C267.664 81.3594 267.184 81.8328 267.184 82.4114C267.184 82.99 267.664 83.4635 268.252 83.4635H292.143C292.73 83.4635 293.211 82.99 293.211 82.4114C293.211 81.8328 292.73 81.3594 292.143 81.3594Z" fill="white"/>
<path d="M292.144 87.9219H272.525C271.938 87.9219 271.457 88.3953 271.457 88.9739C271.457 89.5525 271.938 90.0259 272.525 90.0259H292.144C292.732 90.0259 293.212 89.5525 293.212 88.9739C293.212 88.3953 292.732 87.9219 292.144 87.9219Z" fill="white"/>
<path d="M292.144 94.4922H272.525C271.938 94.4922 271.457 94.9656 271.457 95.5442C271.457 96.1228 271.938 96.5963 272.525 96.5963H292.144C292.732 96.5963 293.212 96.1228 293.212 95.5442C293.212 94.9656 292.732 94.4922 292.144 94.4922Z" fill="white"/>
<path d="M292.143 101.047H270.388C269.801 101.047 269.32 101.52 269.32 102.099C269.32 102.678 269.801 103.151 270.388 103.151H292.143C292.731 103.151 293.211 102.678 293.211 102.099C293.211 101.52 292.731 101.047 292.143 101.047Z" fill="white"/>
<path opacity="0.5" d="M292.144 107.617H277.865C277.277 107.617 276.797 108.091 276.797 108.669C276.797 109.248 277.277 109.721 277.865 109.721H292.144C292.731 109.721 293.212 109.248 293.212 108.669C293.212 108.091 292.731 107.617 292.144 107.617Z" fill="white"/>
<path opacity="0.5" d="M292.141 48.5469H274.658C274.07 48.5469 273.59 49.0203 273.59 49.5989C273.59 50.1775 274.07 50.651 274.658 50.651H292.141C292.728 50.651 293.209 50.1775 293.209 49.5989C293.209 49.0098 292.728 48.5469 292.141 48.5469Z" fill="white"/>
<path d="M292.143 41.9766H268.252C267.664 41.9766 267.184 42.45 267.184 43.0286C267.184 43.6072 267.664 44.0806 268.252 44.0806H292.143C292.73 44.0806 293.211 43.6072 293.211 43.0286C293.211 42.4395 292.73 41.9766 292.143 41.9766Z" fill="white"/>
<path d="M292.143 114.188H268.252C267.664 114.188 267.184 114.661 267.184 115.24C267.184 115.818 267.664 116.292 268.252 116.292H292.143C292.73 116.292 293.211 115.818 293.211 115.24C293.211 114.661 292.73 114.188 292.143 114.188Z" fill="white"/>
<path opacity="0.5" d="M304.956 54.8516H300.289V57.4817H304.956V54.8516Z" fill="white"/>
<path opacity="0.5" d="M304.956 61.4062H300.289V64.0364H304.956V61.4062Z" fill="white"/>
<path opacity="0.5" d="M304.956 67.9766H300.289V70.6067H304.956V67.9766Z" fill="white"/>
<path opacity="0.5" d="M304.956 74.5312H300.289V77.1613H304.956V74.5312Z" fill="white"/>
<path opacity="0.5" d="M304.956 81.0938H300.289V83.7238H304.956V81.0938Z" fill="white"/>
<path opacity="0.5" d="M304.956 87.6641H300.289V90.2942H304.956V87.6641Z" fill="white"/>
<path opacity="0.5" d="M304.956 94.2344H300.289V96.8645H304.956V94.2344Z" fill="white"/>
<path opacity="0.5" d="M304.956 100.789H300.289V103.419H304.956V100.789Z" fill="white"/>
<path opacity="0.5" d="M304.956 107.352H300.289V109.982H304.956V107.352Z" fill="white"/>
<path opacity="0.5" d="M304.956 48.2812H300.289V50.9114H304.956V48.2812Z" fill="white"/>
<path opacity="0.5" d="M304.956 41.7188H300.289V44.3488H304.956V41.7188Z" fill="white"/>
<path opacity="0.5" d="M304.956 113.922H300.289V116.552H304.956V113.922Z" fill="white"/>
<path d="M329.129 56.1614C329.129 56.74 329.61 57.2135 330.197 57.2135H407.488C408.075 57.2135 408.556 56.74 408.556 56.1614C408.556 55.5828 408.075 55.1094 407.488 55.1094H330.197C329.61 55.1094 329.129 55.5723 329.129 56.1614Z" fill="white"/>
<path d="M407.487 61.6719H365.162C364.574 61.6719 364.094 62.1453 364.094 62.7239C364.094 63.3025 364.574 63.7759 365.162 63.7759H407.487C408.074 63.7759 408.555 63.3025 408.555 62.7239C408.555 62.1453 408.074 61.6719 407.487 61.6719Z" fill="white"/>
<path opacity="0.5" d="M355.111 61.6719H341.943C341.356 61.6719 340.875 62.1453 340.875 62.7239C340.875 63.3025 341.356 63.7759 341.943 63.7759H355.111C355.699 63.7759 356.179 63.3025 356.179 62.7239C356.179 62.1453 355.699 61.6719 355.111 61.6719Z" fill="white"/>
<path d="M381.855 68.2422H323.115C322.527 68.2422 322.047 68.7156 322.047 69.2942C322.047 69.8728 322.527 70.3463 323.115 70.3463H381.855C382.442 70.3463 382.923 69.8728 382.923 69.2942C382.923 68.7156 382.442 68.2422 381.855 68.2422Z" fill="white"/>
<path opacity="0.5" d="M310.974 70.3463H315.139C315.727 70.3463 316.207 69.8728 316.207 69.2942C316.207 68.7156 315.727 68.2422 315.139 68.2422H310.974C310.387 68.2422 309.906 68.7156 309.906 69.2942C309.906 69.8728 310.387 70.3463 310.974 70.3463Z" fill="white"/>
<path d="M389.334 75.8411C389.334 75.2625 388.853 74.7891 388.266 74.7891H333.83C333.242 74.7891 332.762 75.2625 332.762 75.8411C332.762 76.4197 333.242 76.8931 333.83 76.8931H388.266C388.853 76.8931 389.334 76.4302 389.334 75.8411Z" fill="white"/>
<path d="M310.974 76.8931H326.343C326.93 76.8931 327.411 76.4197 327.411 75.8411C327.411 75.2625 326.93 74.7891 326.343 74.7891H310.974C310.387 74.7891 309.906 75.2625 309.906 75.8411C309.906 76.4302 310.387 76.8931 310.974 76.8931Z" fill="white"/>
<path d="M310.974 83.4635H369.041C369.629 83.4635 370.109 82.99 370.109 82.4114C370.109 81.8328 369.629 81.3594 369.041 81.3594H310.974C310.387 81.3594 309.906 81.8328 309.906 82.4114C309.906 83.0006 310.387 83.4635 310.974 83.4635Z" fill="white"/>
<path d="M348.533 87.9219C347.945 87.9219 347.465 88.3953 347.465 88.9739C347.465 89.5525 347.945 90.0259 348.533 90.0259H378.65C379.238 90.0259 379.718 89.5525 379.718 88.9739C379.718 88.3953 379.238 87.9219 378.65 87.9219H348.533Z" fill="white"/>
<path d="M310.974 90.0259H337.033C337.621 90.0259 338.101 89.5525 338.101 88.9739C338.101 88.3953 337.621 87.9219 337.033 87.9219H310.974C310.387 87.9219 309.906 88.3953 309.906 88.9739C309.906 89.563 310.387 90.0259 310.974 90.0259Z" fill="white"/>
<path d="M407.486 94.4922H336.603C336.016 94.4922 335.535 94.9656 335.535 95.5442C335.535 96.1228 336.016 96.5963 336.603 96.5963H407.486C408.074 96.5963 408.554 96.1228 408.554 95.5442C408.554 94.9656 408.074 94.4922 407.486 94.4922Z" fill="white"/>
<path d="M407.484 101.047H346.213C345.625 101.047 345.145 101.52 345.145 102.099C345.145 102.678 345.625 103.151 346.213 103.151H407.484C408.071 103.151 408.552 102.678 408.552 102.099C408.552 101.52 408.071 101.047 407.484 101.047Z" fill="white"/>
<path opacity="0.5" d="M407.487 107.617H394.884C394.297 107.617 393.816 108.091 393.816 108.669C393.816 109.248 394.297 109.721 394.884 109.721H407.487C408.074 109.721 408.555 109.248 408.555 108.669C408.555 108.091 408.074 107.617 407.487 107.617Z" fill="white"/>
<path d="M386.072 107.617H339.806C339.219 107.617 338.738 108.091 338.738 108.669C338.738 109.248 339.219 109.721 339.806 109.721H386.072C386.659 109.721 387.14 109.248 387.14 108.669C387.14 108.091 386.659 107.617 386.072 107.617Z" fill="white"/>
<path d="M310.974 50.651H360.497C361.085 50.651 361.565 50.1775 361.565 49.5989C361.565 49.0203 361.085 48.5469 360.497 48.5469H310.974C310.387 48.5469 309.906 49.0203 309.906 49.5989C309.906 50.1775 310.387 50.651 310.974 50.651Z" fill="white"/>
<path d="M310.974 44.0806H388.265C388.853 44.0806 389.333 43.6072 389.333 43.0286C389.333 42.45 388.853 41.9766 388.265 41.9766H310.974C310.387 41.9766 309.906 42.45 309.906 43.0286C309.906 43.6072 310.387 44.0806 310.974 44.0806Z" fill="white"/>
<path d="M382.924 114.188H350.115C349.527 114.188 349.047 114.661 349.047 115.24C349.047 115.818 349.527 116.292 350.115 116.292H382.913C383.501 116.292 383.981 115.818 383.981 115.24C383.992 114.661 383.511 114.188 382.924 114.188Z" fill="white"/>
<path opacity="0.5" d="M340.814 114.188H310.974C310.387 114.188 309.906 114.661 309.906 115.24C309.906 115.818 310.387 116.292 310.974 116.292H340.814C341.402 116.292 341.882 115.818 341.882 115.24C341.882 114.661 341.402 114.188 340.814 114.188Z" fill="white"/>
<path opacity="0.5" d="M371.487 50.651C372.074 50.651 372.555 50.1775 372.555 49.5989C372.555 49.0203 372.074 48.5469 371.487 48.5469H367.642C367.055 48.5469 366.574 49.0203 366.574 49.5989C366.574 50.1775 367.055 50.651 367.642 50.651H371.487Z" fill="white"/>
<path opacity="0.5" d="M324.673 56.1614C324.673 55.5828 324.193 55.1094 323.605 55.1094H318.447C317.86 55.1094 317.379 55.5828 317.379 56.1614C317.379 56.74 317.86 57.2135 318.447 57.2135H323.605C324.193 57.2135 324.673 56.74 324.673 56.1614Z" fill="white"/>
<path opacity="0.5" d="M383.567 82.4114C383.567 81.8328 383.086 81.3594 382.499 81.3594H376.849C376.262 81.3594 375.781 81.8328 375.781 82.4114C375.781 82.99 376.262 83.4635 376.849 83.4635H382.499C383.086 83.4635 383.567 83.0006 383.567 82.4114Z" fill="white"/>
<path opacity="0.5" d="M402.052 76.8931C402.639 76.8931 403.12 76.4197 403.12 75.8411C403.12 75.2625 402.639 74.7891 402.052 74.7891H397.47C396.883 74.7891 396.402 75.2625 396.402 75.8411C396.402 76.4197 396.883 76.8931 397.47 76.8931H402.052Z" fill="white"/>
<path opacity="0.5" d="M328.013 94.4922C327.426 94.4922 326.945 94.9656 326.945 95.5442C326.945 96.1228 327.426 96.5963 328.013 96.5963H332.616C333.204 96.5963 333.684 96.1228 333.684 95.5442C333.684 94.9656 333.204 94.4922 332.616 94.4922H328.013Z" fill="white"/>
<path d="M213.091 105.444H177.772C175.764 105.444 174.141 103.844 174.141 101.867V83.0457C174.141 81.0678 175.764 79.4688 177.772 79.4688H213.091C215.098 79.4688 216.722 81.0678 216.722 83.0457V101.867C216.722 103.844 215.098 105.444 213.091 105.444Z" fill="#5A72EB"/>
<path d="M201.887 104.125C201.887 104.125 203.499 111.384 212.908 114.182C212.908 114.182 208.006 109.827 209.117 104.125H201.887Z" fill="#5A72EB"/>
<path d="M179.709 83.5652V87.9206H179.25V83.9545H178.203V83.5547H179.709V83.5652Z" fill="white"/>
<path d="M180.754 85.7432C180.754 84.3545 181.491 83.5234 182.516 83.5234C183.541 83.5234 184.289 84.3545 184.289 85.7432C184.289 87.1319 183.541 87.963 182.516 87.963C181.502 87.963 180.754 87.1319 180.754 85.7432ZM183.83 85.7432C183.83 84.5755 183.296 83.9337 182.527 83.9337C181.758 83.9337 181.224 84.5755 181.224 85.7432C181.224 86.911 181.758 87.5527 182.527 87.5527C183.296 87.5527 183.83 86.911 183.83 85.7432Z" fill="white"/>
<path d="M184.941 85.7432C184.941 84.3545 185.678 83.5234 186.704 83.5234C187.729 83.5234 188.476 84.3545 188.476 85.7432C188.476 87.1319 187.729 87.963 186.704 87.963C185.678 87.963 184.941 87.1319 184.941 85.7432ZM188.007 85.7432C188.007 84.5755 187.473 83.9337 186.704 83.9337C185.935 83.9337 185.401 84.5755 185.401 85.7432C185.401 86.911 185.935 87.5527 186.704 87.5527C187.483 87.5527 188.007 86.911 188.007 85.7432Z" fill="white"/>
<path d="M190.35 83.5652V87.9206H189.89V83.9545H188.844V83.5547H190.35V83.5652Z" fill="white"/>
<path d="M192.623 83.5652V87.9206H192.164V83.9545H191.117V83.5547H192.623V83.5652Z" fill="white"/>
<path d="M193.676 85.7432C193.676 84.3545 194.413 83.5234 195.438 83.5234C196.463 83.5234 197.211 84.3545 197.211 85.7432C197.211 87.1319 196.463 87.963 195.438 87.963C194.413 87.963 193.676 87.1319 193.676 85.7432ZM196.741 85.7432C196.741 84.5755 196.207 83.9337 195.438 83.9337C194.669 83.9337 194.135 84.5755 194.135 85.7432C194.135 86.911 194.669 87.5527 195.438 87.5527C196.207 87.5527 196.741 86.911 196.741 85.7432Z" fill="white"/>
<path d="M199.08 83.5652V87.9206H198.621V83.9545H197.574V83.5547H199.08V83.5652Z" fill="white"/>
<path d="M200.133 85.7432C200.133 84.3545 200.87 83.5234 201.895 83.5234C202.92 83.5234 203.668 84.3545 203.668 85.7432C203.668 87.1319 202.92 87.963 201.895 87.963C200.88 87.963 200.133 87.1319 200.133 85.7432ZM203.198 85.7432C203.198 84.5755 202.664 83.9337 201.895 83.9337C201.126 83.9337 200.592 84.5755 200.592 85.7432C200.592 86.911 201.126 87.5527 201.895 87.5527C202.675 87.5527 203.198 86.911 203.198 85.7432Z" fill="white"/>
<path d="M204.316 85.7432C204.316 84.3545 205.053 83.5234 206.079 83.5234C207.104 83.5234 207.851 84.3545 207.851 85.7432C207.851 87.1319 207.104 87.963 206.079 87.963C205.053 87.963 204.316 87.1319 204.316 85.7432ZM207.382 85.7432C207.382 84.5755 206.848 83.9337 206.079 83.9337C205.31 83.9337 204.776 84.5755 204.776 85.7432C204.776 86.911 205.31 87.5527 206.079 87.5527C206.848 87.5527 207.382 86.911 207.382 85.7432Z" fill="white"/>
<path d="M209.721 83.5652V87.9206H209.261V83.9545H208.215V83.5547H209.721V83.5652Z" fill="white"/>
<path d="M211.994 83.5652V87.9206H211.535V83.9545H210.488V83.5547H211.994V83.5652Z" fill="white"/>
<path d="M178.477 92.0401C178.477 90.6514 179.213 89.8203 180.239 89.8203C181.264 89.8203 182.012 90.6514 182.012 92.0401C182.012 93.4288 181.264 94.2599 180.239 94.2599C179.213 94.2599 178.477 93.4288 178.477 92.0401ZM181.542 92.0401C181.542 90.8723 181.008 90.2306 180.239 90.2306C179.47 90.2306 178.936 90.8723 178.936 92.0401C178.936 93.2079 179.47 93.8496 180.239 93.8496C181.008 93.8496 181.542 93.2079 181.542 92.0401Z" fill="white"/>
<path d="M182.664 92.0401C182.664 90.6514 183.401 89.8203 184.426 89.8203C185.452 89.8203 186.199 90.6514 186.199 92.0401C186.199 93.4288 185.452 94.2599 184.426 94.2599C183.401 94.2599 182.664 93.4288 182.664 92.0401ZM185.729 92.0401C185.729 90.8723 185.195 90.2306 184.426 90.2306C183.657 90.2306 183.123 90.8723 183.123 92.0401C183.123 93.2079 183.657 93.8496 184.426 93.8496C185.195 93.8496 185.729 93.2079 185.729 92.0401Z" fill="white"/>
<path d="M188.057 89.8621V94.2175H187.597V90.2513H186.551V89.8516H188.057V89.8621Z" fill="white"/>
<path d="M190.346 89.8621V94.2175H189.886V90.2513H188.84V89.8516H190.346V89.8621Z" fill="white"/>
<path d="M191.391 92.0401C191.391 90.6514 192.128 89.8203 193.153 89.8203C194.178 89.8203 194.926 90.6514 194.926 92.0401C194.926 93.4288 194.178 94.2599 193.153 94.2599C192.138 94.2599 191.391 93.4288 191.391 92.0401ZM194.466 92.0401C194.466 90.8723 193.932 90.2306 193.164 90.2306C192.395 90.2306 191.861 90.8723 191.861 92.0401C191.861 93.2079 192.395 93.8496 193.164 93.8496C193.932 93.8496 194.466 93.2079 194.466 92.0401Z" fill="white"/>
<path d="M196.795 89.8621V94.2175H196.336V90.2513H195.289V89.8516H196.795V89.8621Z" fill="white"/>
<path d="M197.848 92.0401C197.848 90.6514 198.585 89.8203 199.61 89.8203C200.635 89.8203 201.383 90.6514 201.383 92.0401C201.383 93.4288 200.635 94.2599 199.61 94.2599C198.585 94.2599 197.848 93.4288 197.848 92.0401ZM200.913 92.0401C200.913 90.8723 200.379 90.2306 199.61 90.2306C198.841 90.2306 198.307 90.8723 198.307 92.0401C198.307 93.2079 198.841 93.8496 199.61 93.8496C200.379 93.8496 200.913 93.2079 200.913 92.0401Z" fill="white"/>
<path d="M202.023 92.0401C202.023 90.6514 202.76 89.8203 203.786 89.8203C204.811 89.8203 205.559 90.6514 205.559 92.0401C205.559 93.4288 204.811 94.2599 203.786 94.2599C202.771 94.2599 202.023 93.4288 202.023 92.0401ZM205.099 92.0401C205.099 90.8723 204.565 90.2306 203.796 90.2306C203.027 90.2306 202.493 90.8723 202.493 92.0401C202.493 93.2079 203.027 93.8496 203.796 93.8496C204.565 93.8496 205.099 93.2079 205.099 92.0401Z" fill="white"/>
<path d="M207.428 89.8621V94.2175H206.969V90.2513H205.922V89.8516H207.428V89.8621Z" fill="white"/>
<path d="M209.717 89.8621V94.2175H209.258V90.2513H208.211V89.8516H209.717V89.8621Z" fill="white"/>
<path d="M211.99 89.8621V94.2175H211.531V90.2513H210.484V89.8516H211.99V89.8621Z" fill="white"/>
<path d="M179.709 96.1902V100.546H179.25V96.5795H178.203V96.1797H179.709V96.1902Z" fill="white"/>
<path d="M181.982 96.1902V100.546H181.523V96.5795H180.477V96.1797H181.982V96.1902Z" fill="white"/>
<path d="M183.043 98.3682C183.043 96.9795 183.78 96.1484 184.805 96.1484C185.83 96.1484 186.578 96.9795 186.578 98.3682C186.578 99.7569 185.83 100.588 184.805 100.588C183.78 100.588 183.043 99.7569 183.043 98.3682ZM186.108 98.3682C186.108 97.2005 185.574 96.5587 184.805 96.5587C184.036 96.5587 183.502 97.2005 183.502 98.3682C183.502 99.536 184.036 100.178 184.805 100.178C185.574 100.178 186.108 99.536 186.108 98.3682Z" fill="white"/>
<path d="M187.227 98.3682C187.227 96.9795 187.963 96.1484 188.989 96.1484C190.014 96.1484 190.762 96.9795 190.762 98.3682C190.762 99.7569 190.014 100.588 188.989 100.588C187.963 100.588 187.227 99.7569 187.227 98.3682ZM190.292 98.3682C190.292 97.2005 189.758 96.5587 188.989 96.5587C188.22 96.5587 187.686 97.2005 187.686 98.3682C187.686 99.536 188.22 100.178 188.989 100.178C189.758 100.178 190.292 99.536 190.292 98.3682Z" fill="white"/>
<path d="M192.623 96.1902V100.546H192.164V96.5795H191.117V96.1797H192.623V96.1902Z" fill="white"/>
<path d="M194.908 96.1902V100.546H194.449V96.5795H193.402V96.1797H194.908V96.1902Z" fill="white"/>
<path d="M195.965 98.3682C195.965 96.9795 196.702 96.1484 197.727 96.1484C198.752 96.1484 199.5 96.9795 199.5 98.3682C199.5 99.7569 198.752 100.588 197.727 100.588C196.702 100.588 195.965 99.7569 195.965 98.3682ZM199.03 98.3682C199.03 97.2005 198.496 96.5587 197.727 96.5587C196.958 96.5587 196.424 97.2005 196.424 98.3682C196.424 99.536 196.958 100.178 197.727 100.178C198.496 100.178 199.03 99.536 199.03 98.3682Z" fill="white"/>
<path d="M200.141 98.3682C200.141 96.9795 200.878 96.1484 201.903 96.1484C202.928 96.1484 203.676 96.9795 203.676 98.3682C203.676 99.7569 202.928 100.588 201.903 100.588C200.888 100.588 200.141 99.7569 200.141 98.3682ZM203.216 98.3682C203.216 97.2005 202.682 96.5587 201.914 96.5587C201.145 96.5587 200.611 97.2005 200.611 98.3682C200.611 99.536 201.145 100.178 201.914 100.178C202.682 100.178 203.216 99.536 203.216 98.3682Z" fill="white"/>
<path d="M205.545 96.1902V100.546H205.086V96.5795H204.039V96.1797H205.545V96.1902Z" fill="white"/>
<path d="M206.602 98.3682C206.602 96.9795 207.338 96.1484 208.364 96.1484C209.389 96.1484 210.137 96.9795 210.137 98.3682C210.137 99.7569 209.389 100.588 208.364 100.588C207.338 100.588 206.602 99.7569 206.602 98.3682ZM209.667 98.3682C209.667 97.2005 209.133 96.5587 208.364 96.5587C207.595 96.5587 207.061 97.2005 207.061 98.3682C207.061 99.536 207.595 100.178 208.364 100.178C209.133 100.178 209.667 99.536 209.667 98.3682Z" fill="white"/>
<path d="M211.994 96.1902V100.546H211.535V96.5795H210.488V96.1797H211.994V96.1902Z" fill="white"/>
<path d="M113.908 325.611L143.278 322.771V282.109H154.92V322.76L184.407 325.611C187.333 325.895 189.566 328.315 189.566 331.218V335.563H150.231H148.074H108.75V331.218C108.75 328.325 110.982 325.895 113.908 325.611Z" fill="#263238"/>
<path opacity="0.2" d="M113.908 325.611L143.278 322.771V282.109H154.92V322.76L184.407 325.611C187.333 325.895 189.566 328.315 189.566 331.218V335.563H150.231H148.074H108.75V331.218C108.75 328.325 110.982 325.895 113.908 325.611Z" fill="white"/>
<path d="M186.47 348.447C190.676 348.447 194.085 345.089 194.085 340.946C194.085 336.804 190.676 333.445 186.47 333.445C182.265 333.445 178.855 336.804 178.855 340.946C178.855 345.089 182.265 348.447 186.47 348.447Z" fill="#263238"/>
<path d="M111.857 348.447C116.063 348.447 119.472 345.089 119.472 340.946C119.472 336.804 116.063 333.445 111.857 333.445C107.651 333.445 104.242 336.804 104.242 340.946C104.242 345.089 107.651 348.447 111.857 348.447Z" fill="#263238"/>
<path d="M145.692 290.844H152.517C154.952 290.844 156.927 288.898 156.927 286.499V254.633H141.281V286.499C141.271 288.898 143.246 290.844 145.692 290.844Z" fill="#263238"/>
<path opacity="0.3" d="M145.692 290.844H152.517C154.952 290.844 156.927 288.898 156.927 286.499V254.633H141.281V286.499C141.271 288.898 143.246 290.844 145.692 290.844Z" fill="white"/>
<path d="M121.267 191.07C121.267 191.07 119.046 245.292 134.372 254.634H116.878C116.878 254.634 103.325 236.161 107.149 191.07H121.267Z" fill="#263238"/>
<path opacity="0.3" d="M121.267 191.07C121.267 191.07 119.046 245.292 134.372 254.634H116.878C116.878 254.634 103.325 236.161 107.149 191.07H121.267Z" fill="white"/>
<path d="M183.997 247.047H116.254C113.306 247.047 110.914 249.403 110.914 252.307V258.788H189.327V252.307C189.337 249.403 186.945 247.047 183.997 247.047Z" fill="#263238"/>
<path d="M190.458 252.922H109.803C108.617 252.922 107.656 253.869 107.656 255.036V256.678C107.656 257.845 108.617 258.792 109.803 258.792H190.458C191.644 258.792 192.605 257.845 192.605 256.678V255.036C192.616 253.869 191.654 252.922 190.458 252.922Z" fill="#263238"/>
<path opacity="0.6" d="M190.458 252.922H109.803C108.617 252.922 107.656 253.869 107.656 255.036V256.678C107.656 257.845 108.617 258.792 109.803 258.792H190.458C191.644 258.792 192.605 257.845 192.605 256.678V255.036C192.616 253.869 191.654 252.922 190.458 252.922Z" fill="white"/>
<path d="M103.571 202.083H130.186C138.783 202.083 145.757 195.213 145.757 186.744V177.339C145.757 168.87 138.783 162 130.186 162H103.571C94.974 162 88 168.87 88 177.339V186.744C88 195.213 94.974 202.083 103.571 202.083Z" fill="#263238"/>
<path d="M192.148 341.65L200.66 340.504L201.835 320.578L193.345 321.735L192.148 341.65Z" fill="#EBB376"/>
<path opacity="0.2" d="M193.346 321.733L201.836 320.586L201.164 331.969L192.684 332.705L193.346 321.733Z" fill="black"/>
<path d="M192.491 224.537L190.419 211.723L142.722 208.914C142.722 208.914 137.649 235.573 141.547 242.674C148.5 255.351 185.997 248.955 196.966 250.196C190.408 276.613 191.049 328.236 191.049 328.236L206.716 329.415C206.716 329.415 218.774 273.783 221.209 247.356C222.854 229.523 207.848 229.965 192.491 224.537Z" fill="#222222"/>
<path d="M189.21 328.974L208.039 330.194L209.652 322.252L188.965 321.305L189.21 328.974Z" fill="#222222"/>
<path d="M211.777 334.216L220.343 334.836L225.704 315.595L217.149 314.984L211.777 334.216Z" fill="#EBB376"/>
<path d="M221.527 335.212C221.538 335.233 221.538 335.264 221.548 335.275C221.57 335.286 221.591 335.286 221.623 335.286C222.285 335.654 222.99 335.948 223.717 336.169C224.251 336.38 224.849 336.39 225.383 336.19C225.746 335.99 225.949 335.601 225.917 335.201C225.938 334.949 225.831 334.696 225.628 334.539C225.137 334.181 224.122 334.286 223.225 334.475C223.877 333.949 224.453 333.287 224.485 332.761C224.507 332.413 224.304 332.098 223.962 331.993C223.674 331.877 223.385 331.887 223.097 332.035C222.061 332.592 221.655 334.959 221.623 335.086H221.773L221.623 335.096C221.623 335.107 221.484 335.107 221.484 335.117C221.506 335.149 221.516 335.18 221.527 335.212ZM222.168 334.738C222.093 334.759 222.04 334.781 221.976 334.802C222.179 334.023 222.606 332.75 223.236 332.424C223.375 332.34 223.546 332.319 223.695 332.361L223.791 332.392C224.058 332.498 224.09 332.655 224.08 332.771C223.994 333.329 223.012 334.276 222.168 334.738ZM222.2 335.17C223.332 334.833 224.902 334.528 225.383 334.886C225.489 334.959 225.543 335.086 225.521 335.212C225.532 335.464 225.404 335.706 225.19 335.854C224.699 336.117 223.599 335.864 222.2 335.17Z" fill="#222222"/>
<path opacity="0.2" d="M217.149 314.984L225.703 315.605L222.638 326.599L214.18 325.578L217.149 314.984Z" fill="black"/>
<path d="M228.607 325.247L213.527 320.882C213.527 320.882 222.53 270.826 231.662 253.467C230.978 253.246 230.07 252.962 228.949 252.636C226.93 252.036 224.25 251.289 221.099 250.426C199.184 244.44 154.766 233.215 154.766 233.215L175.058 214.562C175.058 214.562 255.884 226.703 257.561 247.681C258.362 257.77 228.607 325.247 228.607 325.247Z" fill="#222222"/>
<path d="M211.586 321.199L229.742 326.26L232.999 318.822L212.964 313.656L211.586 321.199Z" fill="#222222"/>
<path opacity="0.2" d="M228.949 252.628C226.931 252.028 224.25 251.281 221.1 250.418C221.73 245.327 221.74 239.488 219.252 236.51C214.307 230.577 201.587 227.095 194.346 225.832C188.291 224.78 167.945 222.687 167.945 222.687C167.945 222.687 194.346 220.193 221.335 227.947C234.674 231.787 232.079 244.632 228.949 252.628Z" fill="black"/>
<path opacity="0.2" d="M189.21 328.974L208.039 330.194L209.652 322.252L188.965 321.305L189.21 328.974Z" fill="white"/>
<path opacity="0.2" d="M211.586 321.199L229.742 326.26L232.999 318.822L212.964 313.656L211.586 321.199Z" fill="white"/>
<path d="M221.188 333.968L211.907 331.422C211.587 331.317 211.245 331.485 211.138 331.801V331.811L208.639 338.923C208.415 339.712 208.874 340.533 209.675 340.754C212.922 341.595 214.524 341.827 218.614 342.921C221.124 343.605 226.015 345.183 229.582 345.582C233.16 345.982 233.47 342.489 231.985 342.005C228.482 340.848 224.296 337.261 222.469 334.81C222.149 334.41 221.7 334.115 221.188 333.968Z" fill="#263238"/>
<path d="M201.504 340.515C201.504 340.525 201.685 340.526 201.685 340.536C201.696 340.568 201.878 340.599 201.899 340.62C201.91 340.641 201.91 340.662 201.931 340.683C201.952 340.694 201.985 340.683 202.006 340.673C202.732 340.894 203.48 341.041 204.238 341.104C204.804 341.199 205.381 341.094 205.872 340.789C206.182 340.515 206.299 340.094 206.182 339.705C206.15 339.452 205.99 339.231 205.755 339.116C205.199 338.863 204.217 339.179 203.373 339.547C203.907 338.895 204.291 338.137 204.217 337.611C204.163 337.264 203.843 337.001 203.49 336.97C203.181 336.917 202.775 336.991 202.54 337.191C201.643 337.948 201.504 340.336 201.504 340.483C201.504 340.494 201.504 340.504 201.504 340.515C201.504 340.504 201.504 340.504 201.504 340.515C201.504 340.504 201.504 340.515 201.504 340.515ZM202.433 340.021C202.369 340.052 202.316 340.084 202.262 340.115C202.294 339.316 202.444 337.98 202.988 337.527C203.106 337.422 203.266 337.359 203.426 337.38L203.522 337.39C203.8 337.443 203.875 337.58 203.886 337.695C203.918 338.274 203.159 339.4 202.433 340.021ZM202.551 340.441C203.587 339.884 205.05 339.263 205.605 339.516C205.723 339.568 205.797 339.684 205.808 339.8C205.872 340.042 205.797 340.305 205.616 340.494C205.189 340.852 204.067 340.831 202.551 340.441Z" fill="#222222"/>
<path d="M201.298 339.498L191.686 338.909C191.355 338.878 191.056 339.109 191.013 339.446V339.456L190.073 346.926C190.02 347.746 190.65 348.451 191.473 348.504C194.826 348.651 196.439 348.567 200.668 348.788C203.263 348.946 208.379 349.482 211.967 349.145C215.545 348.809 215.107 345.327 213.559 345.158C209.885 344.748 205.025 342.086 202.74 340.077C202.334 339.73 201.832 339.519 201.298 339.498Z" fill="#263238"/>
<path d="M211.934 176.715C211.934 176.715 214.625 191.075 219.474 193.853C224.322 196.63 257.858 176.873 257.858 176.873L255.049 171.297C255.049 171.297 226.971 178.756 226.704 178.808C226.437 178.861 225.636 172.475 225.636 172.475L211.934 176.715Z" fill="#263238"/>
<path d="M222.4 154.117C224.611 156.81 227.793 176.715 227.793 176.715L211.325 180.492L207.758 170.403L222.4 154.117Z" fill="#FF6726"/>
<path d="M138 225.493L193.269 216.435C193.269 216.435 196.729 184.095 222.393 154.133C222.393 154.133 213.486 134.944 181.767 137.595C150.047 140.246 138 225.493 138 225.493Z" fill="#FF6726"/>
<path d="M181.018 165.109C181.018 165.109 180.462 180.059 182.15 180.922C183.837 181.784 215.76 170.338 220.822 169.507C225.884 168.676 237.494 173.042 237.494 173.042L238.551 179.869C238.551 179.869 228.213 179.67 222.392 176.871C222.392 176.871 185.098 198.838 177.077 197.596C169.046 196.344 166.301 166.593 166.301 166.593L181.018 165.109Z" fill="#EBB376"/>
<path d="M181.02 170.406C181.02 170.406 181.138 179.212 182.996 179.875C184.854 180.537 212.473 170.964 212.473 170.964L216.841 180.927C216.841 180.927 181.939 203.114 175.178 197.654C168.418 192.194 166.73 172.637 166.73 172.637L181.02 170.406Z" fill="#263238"/>
<path d="M176.02 140.944C185.942 139.924 182.354 174.536 182.354 174.536L165.661 176.882C165.672 176.871 158.495 142.743 176.02 140.944Z" fill="#FF6726"/>
<path d="M191.744 138.438C191.744 138.438 191.413 153.64 200.875 155.197C210.348 156.754 211.331 144.361 211.331 144.361C211.331 144.361 204.965 137.607 191.744 138.438Z" fill="#263238"/>
<path d="M215.522 146.854C213.204 145.844 210.449 146.854 210.449 146.854C210.449 146.854 209.445 152.135 203.346 152.471C202.61 152.514 201.798 152.482 200.911 152.366C192.645 151.251 193.553 139.142 193.553 139.142C196.981 139.395 199.886 138.406 202.161 137.101C202.161 137.101 202.161 137.101 202.161 137.091C205.781 135.018 207.8 132.125 207.8 132.125L215.522 146.854Z" fill="#EBB376"/>
<path opacity="0.2" d="M215.526 146.854C213.208 145.844 210.453 146.854 210.453 146.854C210.453 146.854 209.449 152.135 203.351 152.471C201.225 147.285 201.503 141.341 202.165 137.101C202.165 137.101 202.165 137.101 202.165 137.091C205.786 135.018 207.804 132.125 207.804 132.125L215.526 146.854Z" fill="black"/>
<path d="M221.932 123.341C218.247 125.803 219.924 129.969 228.254 136.502C231.64 132.178 232.195 123.783 229.504 121.679C226.823 119.564 225.136 121.206 221.932 123.341Z" fill="#263238"/>
<path d="M206.093 130.09C206.489 138.959 206.275 144.156 210.728 148.785C217.435 155.739 228.607 151.868 230.903 143.062C232.954 135.151 231.971 121.979 223.235 118.308C217.008 115.656 209.778 118.486 207.087 124.62C206.328 126.345 205.987 128.218 206.093 130.09Z" fill="#EBB376"/>
<path d="M219.477 132.755C219.466 133.47 219.851 134.07 220.32 134.07C220.801 134.081 221.186 133.502 221.196 132.787C221.207 132.071 220.833 131.482 220.363 131.461C219.893 131.451 219.541 132.05 219.477 132.755Z" fill="#263238"/>
<path d="M227.797 132.911C227.786 133.627 228.171 134.226 228.641 134.226C229.121 134.237 229.517 133.669 229.538 132.932C229.549 132.206 229.164 131.617 228.694 131.617C228.214 131.607 227.808 132.185 227.797 132.911Z" fill="#263238"/>
<path d="M225.075 133.195C225.908 135.415 227.05 137.509 228.471 139.423C227.125 140.591 224.957 140.002 224.957 140.002L225.075 133.195Z" fill="#D58745"/>
<path d="M231.534 128.144C231.448 128.281 231.299 128.375 231.128 128.365C230.039 128.27 228.971 128.701 228.255 129.511C228.116 129.701 227.839 129.743 227.646 129.596C227.454 129.459 227.411 129.196 227.55 129.006C228.447 127.965 229.793 127.407 231.171 127.513C231.406 127.523 231.587 127.723 231.577 127.954C231.577 127.954 231.577 127.954 231.577 127.965C231.577 128.028 231.566 128.091 231.534 128.144Z" fill="#263238"/>
<path d="M222.969 129.736C222.809 129.789 222.638 129.747 222.521 129.631C221.773 128.852 220.684 128.463 219.595 128.611C219.36 128.653 219.135 128.505 219.082 128.284C219.039 128.063 219.178 127.832 219.402 127.779C220.78 127.58 222.158 128.053 223.119 129.042C223.29 129.2 223.29 129.473 223.13 129.631C223.076 129.684 223.023 129.715 222.969 129.736Z" fill="#263238"/>
<path d="M209.811 122.314C213.987 123.808 213.399 128.258 206.938 136.59C202.581 133.213 199.943 125.207 202.036 122.524C204.14 119.841 206.158 121.02 209.811 122.314Z" fill="#263238"/>
<path d="M201.694 137.119C202.281 139.276 203.712 141.117 205.677 142.232C208.294 143.684 210.312 141.548 210.184 138.76C210.067 136.235 208.572 132.448 205.667 132.143C202.751 131.827 200.978 134.468 201.694 137.119Z" fill="#EBB376"/>
<path d="M218.207 141.469C218.207 141.469 219.766 144.372 224.124 144.236" stroke="#263238" stroke-width="0.5263" stroke-miterlimit="10" stroke-linecap="round" stroke-linejoin="round"/>
<path d="M210.774 125.383C210.774 125.383 214.319 125.573 215.953 127.782C215.953 127.782 217.299 126.33 216.84 123.721C216.84 123.721 221.133 124.237 223.034 127.151C223.034 127.151 223.985 125.278 223.664 123.721C223.664 123.721 225.095 125.383 224.957 127.151C224.957 127.151 228.225 125.11 227.797 123.195C227.797 123.195 228.994 124.521 229.538 126.519C229.538 126.519 231.685 125.794 231.215 122.048C231.215 122.048 232.646 123.637 232.742 124.763C232.742 124.763 235.54 116.946 224.957 112.58C214.373 108.214 202.219 113.39 202.432 122.059C202.646 130.738 210.774 125.383 210.774 125.383Z" fill="#263238"/>
<path d="M224.117 134.226C224.117 136.519 222.547 138.381 220.604 138.381C218.66 138.381 217.09 136.519 217.09 134.226C217.09 131.932 218.66 130.07 220.604 130.07C222.537 130.07 224.117 131.932 224.117 134.226Z" stroke="#263238" stroke-width="0.5263" stroke-miterlimit="10" stroke-linecap="round" stroke-linejoin="round"/>
<path d="M233.742 134.077C233.742 136.371 232.172 138.233 230.229 138.233C228.285 138.233 226.715 136.371 226.715 134.077C226.715 131.784 228.285 129.922 230.229 129.922C232.172 129.922 233.742 131.784 233.742 134.077Z" stroke="#263238" stroke-width="0.5263" stroke-miterlimit="10" stroke-linecap="round" stroke-linejoin="round"/>
<path d="M224.117 134.228C224.117 134.228 225.474 133.029 226.702 134.081" stroke="#263238" stroke-width="0.5263" stroke-miterlimit="10" stroke-linecap="round" stroke-linejoin="round"/>
<path d="M217.081 134.226L208.516 133.5" stroke="#263238" stroke-width="0.5263" stroke-miterlimit="10" stroke-linecap="round" stroke-linejoin="round"/>
<path d="M296.558 176.711V179.499C296.558 180.33 295.106 180.919 294.262 180.919H228.27C227.427 180.919 226.07 180.33 226.07 179.499V176.711H296.558Z" fill="#263238"/>
<path opacity="0.6" d="M296.558 176.711V179.499C296.558 180.33 295.106 180.919 294.262 180.919H228.27C227.427 180.919 226.07 180.33 226.07 179.499V176.711H296.558Z" fill="white"/>
<path opacity="0.2" d="M296.555 176.711V179.499C296.555 180.33 295.103 180.919 294.259 180.919H250.727C249.883 180.919 248.484 180.33 248.484 179.499V176.711H296.555Z" fill="black"/>
<path d="M307.141 142.526L299.281 177.748C299.024 178.906 297.882 179.863 296.728 179.863H253.816C252.673 179.863 251.936 178.664 252.203 177.506L260.053 142.663C260.32 141.516 261.452 140.938 262.606 140.938H305.518C306.671 140.938 307.397 141.379 307.141 142.526Z" fill="#263238"/>
<path opacity="0.6" d="M307.141 142.526L299.281 177.748C299.024 178.906 297.882 179.863 296.728 179.863H253.816C252.673 179.863 251.936 178.664 252.203 177.506L260.053 142.663C260.32 141.516 261.452 140.938 262.606 140.938H305.518C306.671 140.938 307.397 141.379 307.141 142.526Z" fill="white"/>
<path opacity="0.4" d="M307.141 142.526L299.281 177.748C299.025 178.906 297.882 179.863 296.728 179.863H255.269C254.115 179.863 253.389 178.664 253.645 177.506L261.506 142.663C261.762 141.516 262.905 140.938 264.058 140.938H305.518C306.671 140.938 307.398 141.379 307.141 142.526Z" fill="white"/>
<path opacity="0.2" d="M281.896 165.101C283.893 165.101 285.943 162.986 286.467 160.388C286.979 157.779 285.783 155.664 283.775 155.664C283.401 155.664 283.028 155.738 282.665 155.874C282.195 157.905 280.795 159.609 279.258 160.177C279.236 160.251 279.215 160.314 279.204 160.388C278.681 162.986 279.888 165.101 281.896 165.101Z" fill="black"/>
<path d="M335.946 152.711L345.943 162.569L349.328 181.653H328.77L329.613 179.548L340.881 177.444L341.863 165.84L334.398 164.094L335.946 152.711Z" fill="#263238"/>
<path opacity="0.6" d="M349.328 181.65H328.77L329.613 179.546L340.881 177.442L341.863 165.838L340.891 165.606L334.398 164.091L335.946 152.719L345.943 162.566L349.328 181.65Z" fill="white"/>
<path opacity="0.2" d="M344.551 161.198L340.888 165.606L334.395 164.091L335.943 152.719L344.551 161.198Z" fill="black"/>
<path d="M334.778 169.235H323.297C322.817 169.235 322.475 168.846 322.539 168.372L329.203 119.863C329.267 119.389 329.716 119 330.197 119H341.678C342.158 119 342.5 119.389 342.436 119.863L335.771 168.372C335.718 168.856 335.27 169.235 334.778 169.235Z" fill="#263238"/>
<path opacity="0.6" d="M334.778 169.235H323.297C322.817 169.235 322.475 168.846 322.539 168.372L329.203 119.863C329.267 119.389 329.716 119 330.197 119H341.678C342.158 119 342.5 119.389 342.436 119.863L335.771 168.372C335.718 168.856 335.27 169.235 334.778 169.235Z" fill="white"/>
<path opacity="0.4" d="M331.574 169.235H323.297C322.817 169.235 322.475 168.846 322.539 168.372L329.203 119.863C329.267 119.389 329.716 119 330.196 119H338.473C338.954 119 339.296 119.389 339.232 119.863L332.567 168.372C332.514 168.856 332.066 169.235 331.574 169.235Z" fill="white"/>
<path d="M332.065 167.718H323.254L329.737 120.523H338.548L332.065 167.718Z" fill="#222222"/>
<path d="M256.016 349.99H249.47L237.711 188.766H246.394L256.016 349.99Z" fill="#263238"/>
<path opacity="0.4" d="M256.016 349.985H249.47L238.288 196.777L237.711 189.023H246.394L246.864 196.777L256.016 349.985Z" fill="white"/>
<path opacity="0.2" d="M246.864 196.388H238.288L237.711 189.023H246.394L246.864 196.388Z" fill="black"/>
<path d="M304.029 349.99H297.482L296.414 188.766H305.097L304.029 349.99Z" fill="#263238"/>
<path opacity="0.5" d="M305.097 189.023L304.926 215.04L304.029 349.985H297.482L296.585 215.04L296.414 189.023H305.097Z" fill="white"/>
<path opacity="0.2" d="M305.097 189.023L304.926 215.324H296.585L296.414 189.023H305.097Z" fill="black"/>
<path d="M373.497 349.99H366.95L355.191 188.766H363.874L373.497 349.99Z" fill="#263238"/>
<path opacity="0.5" d="M373.497 349.985H366.95L355.768 196.777L355.191 189.023H363.874L364.344 196.777L373.497 349.985Z" fill="white"/>
<path opacity="0.2" d="M364.344 196.388H355.768L355.191 189.023H363.874L364.344 196.388Z" fill="black"/>
<path d="M181.157 349.99H174.621L184.233 188.766H192.916L181.157 349.99Z" fill="#263238"/>
<path opacity="0.5" d="M192.916 189.023L192.339 196.777L181.157 349.985H174.621L183.763 196.777L184.233 189.023H192.916Z" fill="white"/>
<path opacity="0.2" d="M184.232 189.023H192.914L192.338 196.388H183.762L184.232 189.023Z" fill="black"/>
<path d="M368.442 192.796H179.662C178.391 192.796 177.355 191.775 177.355 190.523V184.727H370.749V190.523C370.749 191.775 369.724 192.796 368.442 192.796Z" fill="#222222"/>
<path opacity="0.2" d="M370.749 184.727H177.355V188.766H370.749V184.727Z" fill="black"/>
<path d="M374.806 185.779H173.307C172.036 185.779 171 184.759 171 183.507C171 182.255 172.036 181.234 173.307 181.234H374.817C376.088 181.234 377.124 182.255 377.124 183.507C377.113 184.759 376.077 185.779 374.806 185.779Z" fill="#222222"/>
</g>
<defs>
<clipPath id="clip0_2214_391">
<rect width="690" height="350" fill="white"/>
</clipPath>
</defs>
</svg>
