<svg width="690" height="350" viewBox="0 0 690 350" fill="none" xmlns="http://www.w3.org/2000/svg">
<g clip-path="url(#clip0_1873_3546)">
<path d="M475.365 123.347C436.14 114.776 389.84 110.689 348.752 109.302C274.137 106.775 198.551 120.163 135.017 147.166C100.973 161.641 69.6369 180.568 51.8401 205.205C7.18349 267.039 77.3849 323.701 165.446 335.746C209.852 341.822 255.667 339.284 300.856 337.316C359.584 334.756 418.547 333.197 477.259 335.961C499.658 337.015 522.417 338.671 544.33 335.316C595.623 327.465 631.562 292.203 636.523 256.253C640.656 226.325 626.114 195.387 597.267 172.782C584.807 163.028 569.922 154.866 553.847 148.091C528.709 137.52 502.538 129.283 475.365 123.347Z" fill="#D7EFF9"/>
<path opacity="0.6" d="M165.446 335.745C209.852 341.821 255.667 339.283 300.856 337.315C359.584 334.755 418.547 333.196 477.259 335.96C499.658 337.014 522.417 338.67 544.33 335.315C595.623 327.464 631.562 292.203 636.523 256.252C640.123 230.185 629.558 203.365 607.707 181.943C607.003 181.922 606.283 181.911 605.578 181.9C569.812 181.556 534 190.31 506.592 206.097C482.91 219.732 465.88 238.014 443.732 252.811C421.583 267.608 390.685 279.212 360.648 274.244C339.956 270.824 323.646 260.253 305.238 252.93C286.815 245.606 265.763 241.444 244.491 240.928C229.058 240.552 212.356 242.466 201.494 249.994C195.702 253.994 192.086 259.253 186.624 263.468C170.658 275.835 143.078 276.782 119.271 274.351C95.4636 271.91 71.1239 267.039 47.7861 271.093C47.0191 271.222 46.2521 271.372 45.5008 271.523C63.3603 303.774 110.991 328.292 165.446 335.745Z" fill="#D7EFF9"/>
<path d="M253.022 269.689C253.022 269.689 246.745 300.34 246.886 316.332H156.07C156.07 316.332 140.433 279.692 162.3 240.691C162.3 240.691 237.353 255.126 253.022 269.689Z" fill="#D38E33"/>
<path d="M239.153 66.3718C236.852 73.0512 236.43 80.2444 234.912 87.1646C231.625 102.161 223.297 115.504 213.906 127.482C211.057 131.094 208.052 134.723 206.487 139.09C203.137 148.451 207.473 159.337 214.782 165.936C222.092 172.519 231.781 175.57 241.313 177.513C249.688 179.215 258.171 180.226 266.655 181.222C270.396 181.671 274.685 181.928 277.361 179.215C279.693 176.854 279.881 173.145 279.959 169.79C280.492 146.107 282.339 122.279 288.427 99.4154C290.384 92.0617 292.81 84.4992 291.589 76.985C290.181 68.2986 283.888 60.9609 276.234 56.9469C269.378 53.3503 260.613 51.5841 252.912 52.0337C246.072 52.4351 241.204 60.431 239.153 66.3718Z" fill="#171C27"/>
<path d="M259.423 140.262C268.032 138.047 276.766 143.393 278.942 152.224L292.951 209.288L354.81 199.542C353.824 220.029 360.069 230.659 360.069 230.659L283.575 244.29C279.631 244.948 275.765 244.081 272.587 242.09C269.112 239.907 266.451 236.391 265.387 232.039L247.778 160.284C245.587 151.437 250.814 142.478 259.423 140.262Z" fill="#A05E47"/>
<path d="M272.571 242.071C275.749 244.062 279.615 244.929 283.56 244.27L311.891 239.229C303.203 228.423 298.32 217.119 295.659 208.85L292.92 209.284L287.504 187.191C278.895 181.924 262.46 177.942 251.535 175.727L265.356 232.036C266.436 236.371 269.097 239.903 272.571 242.071Z" fill="#7F4637"/>
<path d="M254.023 185.813L264.338 207.409L290.384 198.883L278.926 152.24C277.079 144.726 270.49 139.78 263.258 139.828L262.444 140.085L254.023 185.813Z" fill="#D3AFA5"/>
<path d="M371.98 196.814C373.295 196.75 374.688 196.718 375.847 197.344C377.021 197.97 377.85 199.463 377.334 200.7C376.535 202.594 373.734 202.241 372.09 203.445C370.853 204.344 370.447 206.078 370.572 207.62C370.697 209.177 371.26 210.638 371.589 212.164C373.201 219.437 368.866 227.594 362.041 230.163C360.758 230.644 359.286 230.933 358.034 230.355C356.453 229.617 355.733 227.786 355.154 226.1C353.604 221.605 352.039 217.061 351.507 212.324C351.037 208.053 350.834 200.876 355.451 199.238C360.476 197.472 366.706 197.087 371.98 196.814Z" fill="#A05E47"/>
<path d="M357.799 223.403C358.05 223.563 358.316 223.692 358.629 223.804C358.911 223.916 359.208 223.772 359.318 223.483C359.427 223.194 359.286 222.873 359.005 222.776C358.159 222.455 357.658 221.99 357.518 221.379C357.22 220.207 358.269 218.634 358.707 218.12C358.801 218.008 358.848 217.847 358.832 217.703C358.817 217.558 358.738 217.414 358.613 217.317C357.627 216.563 357.142 215.808 357.173 215.102C357.22 214.01 358.457 213.223 358.457 213.207C358.629 213.095 358.723 212.886 358.707 212.677C358.691 212.468 358.551 212.292 358.363 212.211C357.518 211.89 356.985 211.473 356.798 210.959C356.578 210.397 356.829 209.899 356.829 209.867C359.067 204.842 370.118 208.181 370.227 208.213C370.509 208.294 370.807 208.133 370.9 207.844C370.979 207.555 370.838 207.25 370.54 207.154C370.055 207.009 358.472 203.509 355.874 209.386C355.874 209.402 355.404 210.301 355.796 211.328C356.031 211.938 356.485 212.436 357.173 212.838C356.688 213.319 356.14 214.058 356.109 215.021C356.062 216.001 356.547 216.948 357.549 217.831C357.017 218.586 356.109 220.159 356.469 221.636C356.641 222.375 357.095 222.953 357.799 223.403Z" fill="#7F4637"/>
<path d="M357.893 213.202C357.987 213.25 358.081 213.282 358.191 213.282C358.3 213.282 368.6 212.897 371.62 213.812C371.902 213.893 372.2 213.732 372.278 213.443C372.372 213.154 372.2 212.833 371.918 212.769C368.74 211.805 358.582 212.191 358.144 212.207C357.846 212.223 357.611 212.48 357.627 212.769C357.658 212.945 357.752 213.106 357.893 213.202Z" fill="#7F4637"/>
<path d="M358.018 218.234C358.097 218.282 358.206 218.314 358.3 218.314C358.41 218.314 368.615 218.154 371.386 219.101C371.667 219.198 371.965 219.037 372.059 218.748C372.153 218.459 372.012 218.154 371.714 218.058C368.772 217.062 358.692 217.207 358.269 217.207C357.972 217.207 357.737 217.463 357.737 217.769C357.752 217.977 357.862 218.138 358.018 218.234Z" fill="#7F4637"/>
<path d="M358.535 223.752C358.645 223.816 358.77 223.848 358.911 223.832C358.973 223.816 364.827 222.837 369.539 223.961C369.82 224.025 370.118 223.848 370.18 223.543C370.243 223.254 370.055 222.949 369.773 222.885C364.843 221.713 358.973 222.708 358.723 222.757C358.425 222.805 358.238 223.094 358.285 223.399C358.316 223.543 358.41 223.672 358.535 223.752Z" fill="#7F4637"/>
<path d="M357.987 207.81C358.144 207.906 358.331 207.922 358.504 207.826C359.177 207.472 359.693 206.782 359.865 206.027C361.446 206.365 362.839 206.638 364.264 206.654C366.033 206.686 367.566 206.316 368.834 205.578C369.507 205.176 369.977 204.711 370.227 204.165C370.65 203.282 370.493 202.11 369.852 201.195C369.273 200.376 368.459 199.862 367.723 199.46C365.532 198.272 363.137 197.582 360.789 197.47C360.492 197.453 360.241 197.694 360.225 197.999C360.21 198.304 360.445 198.561 360.742 198.577C362.918 198.674 365.156 199.316 367.206 200.44C367.833 200.777 368.537 201.211 368.975 201.853C369.398 202.447 369.507 203.186 369.257 203.715C369.1 204.053 368.787 204.358 368.286 204.647C367.206 205.289 365.845 205.61 364.279 205.578C362.886 205.546 361.509 205.273 359.975 204.952C359.818 204.92 359.49 204.855 359.192 205.064C358.911 205.257 358.864 205.578 358.832 205.738C358.738 206.236 358.441 206.654 358.018 206.862C357.752 207.007 357.643 207.328 357.784 207.601C357.831 207.681 357.893 207.762 357.987 207.81Z" fill="#7F4637"/>
<path d="M281.212 169.502L253.037 269.693C253.037 269.693 228.103 277.464 197.22 266.979C166.338 256.494 162.3 240.695 162.3 240.695C162.3 240.695 187.891 141.95 189.003 141.163C190.13 140.376 200.476 108.344 244.898 124.738C289.32 141.147 281.212 169.502 281.212 169.502Z" fill="#EACFC5"/>
<path d="M240.202 93.332L234.505 121.591L248.263 138.643L258.688 131.032L262.116 114.044L240.202 93.332Z" fill="#A05E47"/>
<path d="M240.656 108.887L260.754 120.784L258.938 129.824C247.214 125.633 240.656 108.887 240.656 108.887Z" fill="#7F4637"/>
<path d="M255.776 124.096L260.754 125.155C272.243 127.596 283.575 119.937 285.954 108.152L291.777 79.2347C294.156 67.4495 286.69 55.8248 275.201 53.3843L270.224 52.3246C258.735 49.884 247.402 57.5428 245.023 69.328L239.2 98.2452C236.837 110.03 244.287 121.655 255.776 124.096Z" fill="#A05E47"/>
<path d="M235.287 89.5094C234.63 92.7528 236.665 95.9319 239.826 96.6063C242.988 97.2806 246.087 95.1933 246.745 91.95C247.402 88.7066 245.367 85.5275 242.206 84.8532C239.044 84.1788 235.945 86.2661 235.287 89.5094Z" fill="#A05E47"/>
<path d="M291.574 86.9087C291.574 86.9087 277.893 78.3187 273.714 64.5104C273.714 64.5104 258.171 88.7552 241.126 88.7391L246.213 59.7577C246.213 59.7577 246.213 47.0894 272.196 49.8029C298.195 52.5164 294.438 73.7908 291.574 86.9087Z" fill="#171C27"/>
<path d="M233.738 121.432C233.738 121.432 226.13 156.643 247.762 160.271C269.394 163.884 258.688 131.033 258.688 131.033C258.688 131.033 240.108 120.998 233.738 121.432Z" fill="#A05E47"/>
<path d="M410.767 209.401L418.281 309.206C418.281 309.206 440.257 321.473 471.264 317.78C502.272 314.087 509.065 300.022 509.065 300.022C509.065 300.022 503.712 202.095 502.804 201.132C501.896 200.169 498.234 167.992 453.358 174.559C408.498 181.126 410.767 209.401 410.767 209.401Z" fill="#F75454"/>
<path d="M557.071 350.007H98.2497C87.4495 350.007 78.6215 340.951 78.6215 329.873C78.6215 318.794 87.4495 309.738 98.2497 309.738H557.071C567.871 309.738 576.7 318.794 576.7 329.873C576.684 340.951 567.856 350.007 557.071 350.007Z" fill="#19365A"/>
<path d="M460.636 318.695H393.393V323.063H460.636V318.695Z" fill="#5F87DF"/>
<path d="M460.636 323.063C461.638 323.319 481.736 323.063 481.736 323.063V320.879L460.636 318.695V323.063Z" fill="#81A9EF"/>
<path d="M323.865 319.961H353.307C353.307 319.961 352.603 311.66 339.924 311.66C327.261 311.644 323.865 316.83 323.865 319.961Z" fill="#466FB7"/>
<path d="M329.688 296.726C325.43 301.719 323.27 308.222 321.72 314.661C321.407 315.961 321.141 317.422 321.83 318.562C322.566 319.783 324.178 320.168 325.54 319.847C326.901 319.526 328.06 318.643 329.171 317.792C330.674 316.652 332.176 315.496 333.663 314.356C334.008 314.083 334.415 313.81 334.837 313.874C335.792 314.002 335.792 315.383 335.839 316.379C335.933 318.145 337.138 319.799 338.766 320.393C340.394 320.987 342.35 320.457 343.493 319.14C344.463 318.016 344.823 316.475 345.074 314.998C345.152 314.564 345.23 314.099 345.559 313.842C345.888 313.585 346.326 313.601 346.733 313.617C348.674 313.745 350.646 313.906 352.556 313.521C356.813 312.686 360.351 308.993 361.306 304.658C362.26 300.322 360.679 295.538 357.486 292.535C349.895 285.342 335.839 289.517 329.688 296.726Z" fill="#EEB399"/>
<path d="M431.116 189.743C422.663 187.335 413.929 192.409 411.581 201.063L394.645 263.618L345.105 289.275C349.159 311.706 359.396 318.321 359.396 318.321L415.197 289.42C419.188 287.349 422.131 283.656 423.336 279.24L442.135 209.749C444.499 201.127 439.552 192.152 431.116 189.743Z" fill="#D83A3A"/>
<path d="M505.371 329.87C504.823 331.732 504.213 333.675 502.867 335.04C501.521 336.421 499.22 337.015 497.717 335.843C496.934 335.233 496.402 334.189 495.447 333.98C494.242 333.707 493.209 334.847 492.098 335.393C490.032 336.389 487.433 335.104 486.306 333.081C485.931 332.407 485.633 331.62 484.945 331.283C483.442 330.544 481.642 332.712 480.155 331.941C479.012 331.363 479.028 329.485 477.901 328.858C477.291 328.521 476.539 328.682 475.866 328.505C474.739 328.216 474.019 327.012 473.894 325.824C473.769 324.636 474.113 323.464 474.442 322.324C474.974 320.525 475.506 318.743 476.038 316.945C476.351 315.885 476.68 314.809 477.353 313.942C478.809 312.08 481.407 311.759 483.724 311.694C488.169 311.55 492.677 311.823 496.888 313.3C500.315 314.504 503.775 316.656 505.903 319.722C507.844 322.532 506.279 326.835 505.371 329.87Z" fill="#EEB399"/>
<path d="M436.093 178.845C436.093 178.845 435.029 191.787 452.043 189.137C469.057 186.488 464.252 173.675 464.252 173.675C464.252 173.675 447.238 173.113 436.093 178.845Z" fill="#EEB399"/>
<path d="M458.116 147.039L462.186 174.415L451.589 187.822L438.535 182.234L436.093 165.761L458.116 147.039Z" fill="#EEB399"/>
<path d="M456.833 161.375L436.985 171.747L438.285 180.514C449.711 177.078 456.833 161.375 456.833 161.375Z" fill="#CC957F"/>
<path d="M444.686 174.687L433.667 176.405C424.244 177.882 415.354 171.171 413.914 161.505L409.265 130.228C407.825 120.562 414.368 111.442 423.79 109.965L434.81 108.247C444.232 106.77 453.123 113.481 454.563 123.147L459.212 154.424C460.652 164.09 454.109 173.21 444.686 174.687Z" fill="#EEB399"/>
<path d="M427.093 121.365C433.777 129.04 440.977 136.987 450.54 140.086C452.356 140.68 454.375 141.178 455.518 142.736C456.332 143.827 456.551 145.24 456.739 146.605C457.083 148.965 457.428 151.31 457.756 153.67C457.819 154.119 457.897 154.601 458.21 154.938C458.445 155.195 458.789 155.308 459.118 155.404C460.621 155.837 462.202 155.998 463.751 155.87C464.393 155.821 465.113 155.661 465.426 155.083C465.88 154.248 465.144 153.301 464.549 152.578C461.842 149.319 460.918 144.887 460.355 140.648C459.212 132.171 459.118 123.565 457.897 115.087C457.615 113.128 457.224 111.057 455.878 109.628C454.438 108.086 452.012 107.38 451.401 105.357C451.041 104.153 451.464 102.852 451.354 101.6C451.245 100.347 450.04 98.9825 448.96 99.5766C447.88 100.171 448.24 101.873 447.629 102.948C447.066 102.065 446.862 100.99 446.455 100.01C446.048 99.0307 445.313 98.0673 444.295 97.9389C443.356 97.8265 442.464 98.4527 441.963 99.2555C441.462 100.074 441.274 101.038 441.102 101.985C435.686 102.306 430.239 102.74 424.964 104.008C419.674 105.277 414.524 107.46 410.314 110.976C408.388 112.582 406.666 114.477 405.508 116.725C403.99 119.663 403.536 123.035 403.223 126.358C402.91 129.537 402.299 134.595 404.538 137.26C406.494 139.572 409.406 137.822 411.456 136.586C417.655 132.765 423.055 127.53 427.093 121.365Z" fill="#171E26"/>
<path d="M465.019 142.736C465.489 145.883 463.376 148.821 460.308 149.303C457.24 149.785 454.375 147.617 453.906 144.47C453.436 141.323 455.549 138.385 458.617 137.903C461.701 137.438 464.565 139.589 465.019 142.736Z" fill="#EEB399"/>
<path d="M523.199 242.509L497.232 190.391C493.24 182.379 483.692 179.216 475.882 183.31C468.087 187.404 464.988 197.199 468.979 205.211L492.223 251.87L476.758 314.489C476.758 314.489 489.093 324.428 507.516 322.485L524.452 253.925C525.391 250.072 524.952 246.026 523.199 242.509Z" fill="#F75454"/>
<path d="M479.012 316.334L476.758 314.472L492.223 251.852L469.386 205.996" stroke="#932A2A" stroke-width="0.5669" stroke-miterlimit="10" stroke-linecap="round" stroke-linejoin="round"/>
<path d="M406.369 330.691H385.958V333.485H406.369V330.691Z" fill="#3967B7"/>
<path d="M469.12 292.109H337.138C336.747 292.109 336.402 291.788 336.355 291.386L324.444 191.902C324.397 191.501 324.679 191.18 325.054 191.18H457.036C457.428 191.18 457.772 191.501 457.819 191.902L469.73 291.402C469.777 291.788 469.511 292.109 469.12 292.109Z" fill="#81A9EF"/>
<path d="M325.07 191.18L318.214 196.446L327.653 197.153L325.07 191.18Z" fill="#81A9EF"/>
<path d="M469.558 291.932L463.172 296.926L461.059 291.643L466.193 291.113L469.558 291.932Z" fill="#81A9EF"/>
<path d="M462.796 297.066H330.815C330.423 297.066 330.079 296.745 330.032 296.344L318.12 196.844C318.073 196.442 318.355 196.121 318.731 196.121H450.713C451.104 196.121 451.448 196.442 451.495 196.844L463.407 296.344C463.454 296.745 463.172 297.066 462.796 297.066Z" fill="#5F87DF"/>
<path d="M406.782 271.08C416.346 260.647 414.783 243.202 403.29 232.114C391.797 221.027 374.726 220.497 365.161 230.93C355.597 241.363 357.16 258.808 368.653 269.895C380.146 280.983 397.217 281.513 406.782 271.08Z" fill="#4F7FD3"/>
<path d="M372.341 260.379H404.866L388.604 331.508H355.608L372.341 260.379Z" fill="#3967B7"/>
<path d="M369.946 262.338L372.341 260.379L373.765 262.338H369.946Z" fill="#3967B7"/>
<path d="M388.604 331.506L386.209 333.481V330.688L388.604 331.506Z" fill="#3967B7"/>
<path d="M369.946 262.34H402.472L386.209 333.485H353.213L369.946 262.34Z" fill="#4F7AC6"/>
<path d="M438.895 291.109H438.394L437.565 284.125H438.065L438.895 291.109Z" fill="#3967B7"/>
<path d="M440.038 291.109H439.552L438.723 284.125H439.208L440.038 291.109Z" fill="#3967B7"/>
<path d="M441.196 291.109H440.695L439.865 284.125H440.366L441.196 291.109Z" fill="#3967B7"/>
<path d="M442.339 291.109H441.853L441.024 284.125H441.509L442.339 291.109Z" fill="#3967B7"/>
<path d="M443.497 291.109H442.996L442.166 284.125H442.652L443.497 291.109Z" fill="#3967B7"/>
<path d="M444.639 291.109H444.154L443.309 284.125H443.81L444.639 291.109Z" fill="#3967B7"/>
<path d="M445.798 291.109H445.297L444.467 284.125H444.952L445.798 291.109Z" fill="#3967B7"/>
<path d="M446.94 291.109H446.455L445.61 284.125H446.111L446.94 291.109Z" fill="#3967B7"/>
<path d="M448.099 291.109H447.598L446.768 284.125H447.253L448.099 291.109Z" fill="#3967B7"/>
<path d="M449.241 291.109H448.756L447.911 284.125H448.412L449.241 291.109Z" fill="#3967B7"/>
<path d="M450.4 291.109H449.899L449.069 284.125H449.554L450.4 291.109Z" fill="#3967B7"/>
<path d="M451.542 291.109H451.057L450.212 284.125H450.713L451.542 291.109Z" fill="#3967B7"/>
<path d="M338.938 291.109H338.453L337.608 284.125H338.109L338.938 291.109Z" fill="#3967B7"/>
<path d="M340.096 291.109H339.596L338.766 284.125H339.251L340.096 291.109Z" fill="#3967B7"/>
<path d="M341.239 291.109H340.754L339.909 284.125H340.409L341.239 291.109Z" fill="#3967B7"/>
<path d="M342.397 291.109H341.896L341.067 284.125H341.552L342.397 291.109Z" fill="#3967B7"/>
<path d="M343.54 291.109H343.055L342.21 284.125H342.71L343.54 291.109Z" fill="#3967B7"/>
<path d="M344.698 291.109H344.197L343.368 284.125H343.853L344.698 291.109Z" fill="#3967B7"/>
<path d="M345.841 291.109H345.356L344.51 284.125H345.011L345.841 291.109Z" fill="#3967B7"/>
<path d="M346.999 291.109H346.498L345.669 284.125H346.154L346.999 291.109Z" fill="#3967B7"/>
<path d="M348.142 291.109H347.657L346.811 284.125H347.312L348.142 291.109Z" fill="#3967B7"/>
<path d="M349.3 291.109H348.799L347.97 284.125H348.455L349.3 291.109Z" fill="#3967B7"/>
<path d="M350.443 291.109H349.957L349.112 284.125H349.613L350.443 291.109Z" fill="#3967B7"/>
<path d="M351.601 291.109H351.1L350.271 284.125H350.756L351.601 291.109Z" fill="#3967B7"/>
<path d="M237.197 311.003L213.452 232.2L221.701 146.62C222.562 137.677 216.191 129.713 207.473 128.83C198.754 127.947 190.991 134.482 190.13 143.425L181.568 232.28C181.364 234.431 181.568 236.615 182.194 238.686L206.894 320.621C206.894 320.605 224.565 322.772 237.197 311.003Z" fill="#A05E47"/>
<path d="M211.433 325.132C214.125 326.449 217.162 326.77 220.136 327.075C222.217 327.284 224.377 327.492 226.381 326.882C228.745 326.144 230.67 324.329 232.971 323.414C235.71 322.338 238.919 322.659 241.392 324.265C242.738 325.132 243.849 326.336 245.164 327.235C246.494 328.135 248.185 328.697 249.656 328.102C251.128 327.508 251.988 325.373 250.94 324.153C251.957 325.004 253.006 325.855 254.274 326.224C255.526 326.593 257.06 326.32 257.827 325.228C259.11 323.414 257.561 320.957 256.089 319.304C254.383 317.377 252.662 315.434 250.955 313.507C249.484 311.854 247.919 310.103 245.868 309.188C243.708 308.225 241.767 308.177 239.482 308.658C230.31 310.553 221.122 312.448 211.949 314.342C209.367 314.872 205.501 315.434 206.283 319.159C206.815 321.76 209.163 324.024 211.433 325.132Z" fill="#A05E47"/>
<path d="M216.504 204.359L222.108 146.171C222.984 137.019 216.473 128.879 207.567 127.98C198.66 127.08 190.709 133.76 189.832 142.896L184.166 201.693C189.472 203.347 201.149 206.061 216.504 204.359Z" fill="#EACFC5"/>
<path d="M189.645 144.84L184.166 201.695C184.166 201.695 199.474 206.64 216.504 204.36L221.701 146.622" stroke="#D3AFA5" stroke-width="0.5669" stroke-miterlimit="10" stroke-linecap="round" stroke-linejoin="round"/>
<path d="M250.955 324.156C250.955 324.156 245.681 314.651 242.691 313.463C239.686 312.275 232.251 315.807 232.251 315.807" stroke="#7F4637" stroke-width="0.5669" stroke-miterlimit="10" stroke-linecap="round" stroke-linejoin="round"/>
<path d="M125.579 330.66H242.691C243.348 330.66 243.88 330.114 243.88 329.44V325.923C243.88 325.249 243.348 324.703 242.691 324.703H125.579C124.921 324.703 124.389 325.249 124.389 325.923V329.44C124.374 330.098 124.921 330.66 125.579 330.66Z" fill="#3967AA"/>
<path d="M187.532 330.564H285.062C289.038 330.564 292.795 327.225 293.421 323.163L301.842 268.652C302.468 264.574 299.729 261.25 295.768 261.25H198.238C194.262 261.25 190.505 264.59 189.879 268.652L181.458 323.163C180.832 327.241 183.556 330.564 187.532 330.564Z" fill="#5F87DF"/>
<path d="M243.755 304.968C248.717 304.968 252.74 300.841 252.74 295.751C252.74 290.661 248.717 286.535 243.755 286.535C238.793 286.535 234.771 290.661 234.771 295.751C234.771 300.841 238.793 304.968 243.755 304.968Z" fill="white"/>
<path d="M567.762 24H312.704C312.313 24 312 24.3211 312 24.7225V83.2794C312 83.6808 312.313 84.0019 312.704 84.0019H483.504L480.906 97.5533L497.545 84.0019H567.762C568.153 84.0019 568.466 83.6808 568.466 83.2794V24.7225C568.466 24.3211 568.153 24 567.762 24Z" fill="white"/>
<path d="M567.762 24H312.704C312.313 24 312 24.3211 312 24.7225V83.2794C312 83.6808 312.313 84.0019 312.704 84.0019H483.504L480.906 97.5533L497.545 84.0019H567.762C568.153 84.0019 568.466 83.6808 568.466 83.2794V24.7225C568.466 24.3211 568.153 24 567.762 24Z" stroke="#5F87DF" stroke-miterlimit="10" stroke-linecap="round" stroke-linejoin="round"/>
<path d="M323.035 70.7884C327.293 63.1457 345.919 58.666 359.991 61.8933C364.592 62.953 368.787 64.7031 373.812 64.8958C380.229 65.1687 386.068 62.7603 389.48 59.9344C392.892 57.1085 394.567 53.8331 397.322 50.8145C401.595 46.1422 408.826 42.0318 418.202 40.2014C427.562 38.3871 439.083 39.2059 446.095 42.8988C450.916 45.4357 453.186 48.952 457.005 51.9064C460.824 54.8607 467.633 57.4136 474.191 56.3379C478.339 55.6474 482.08 53.5762 486.275 54.1863C491.519 54.957 492.004 59.1798 497.028 60.2877C500.472 61.0423 504.275 59.9666 507.688 59.1637C527.942 54.4593 554.911 61.4598 559.685 72.667H323.035V70.7884Z" fill="#5A8ADF"/>
<path d="M341.881 64.9614C370.744 69.4411 402.064 66.9845 430.693 62.1355C459.321 57.2705 486.275 50.0934 514.637 44.827C526.157 42.6915 538.1 40.8611 550.341 40.7969" stroke="#19365A" stroke-miterlimit="10" stroke-linecap="round" stroke-linejoin="round"/>
<path d="M342.46 64.3504C342.46 65.6991 341.395 66.7749 340.096 66.7749C338.781 66.7749 337.733 65.6831 337.733 64.3504C337.733 63.0017 338.797 61.926 340.096 61.926C341.395 61.9099 342.46 63.0017 342.46 64.3504Z" fill="#19365A"/>
<path d="M467.351 55.9872C467.351 57.3359 466.287 58.4116 464.988 58.4116C463.673 58.4116 462.624 57.3198 462.624 55.9872C462.624 54.6545 463.688 53.5627 464.988 53.5627C466.302 53.5466 467.351 54.6384 467.351 55.9872Z" fill="#19365A"/>
<path d="M168.477 122.919H148.692V110.363C148.692 109.962 148.379 109.641 147.988 109.641H66.7044C66.313 109.641 66 109.962 66 110.363V241.558C66 241.959 66.313 242.281 66.7044 242.281H147.988C148.379 242.281 148.692 241.959 148.692 241.558V136.214L168.477 122.919Z" fill="white"/>
<path d="M168.477 122.919H148.692V110.363C148.692 109.962 148.379 109.641 147.988 109.641H66.7044C66.313 109.641 66 109.962 66 110.363V241.558C66 241.959 66.313 242.281 66.7044 242.281H147.988C148.379 242.281 148.692 241.959 148.692 241.558V136.214L168.477 122.919Z" stroke="#5F87DF" stroke-miterlimit="10" stroke-linecap="round" stroke-linejoin="round"/>
<path d="M88.9778 187.543H75.8923V219.254H88.9778V187.543Z" fill="#5F87DF"/>
<path d="M105.397 173.145H92.3118V219.258H105.397V173.145Z" fill="#5F87DF"/>
<path d="M121.801 150.648H108.716V219.256H121.801V150.648Z" fill="#5F87DF"/>
<path d="M138.221 140.695H125.135V219.258H138.221V140.695Z" fill="#5F87DF"/>
<path d="M75.8923 179.986C75.8923 179.986 106.07 178.733 130.003 141.098" stroke="#19365A" stroke-linecap="round" stroke-linejoin="round"/>
<path d="M132.507 136.969C131.991 139.345 131.678 142.508 132.006 144.804L129.612 141.577L125.761 140.662C127.921 140.019 130.598 138.43 132.507 136.969Z" fill="#19365A"/>
<g opacity="0.3">
<path opacity="0.3" d="M557.019 202.449H506.9C506.508 202.449 506.195 202.77 506.195 203.172V228.123C506.195 228.524 506.508 228.846 506.9 228.846H510.468L508.402 236.842L517.277 228.846H557.019C557.41 228.846 557.723 228.524 557.723 228.123V203.172C557.723 202.77 557.41 202.449 557.019 202.449Z" fill="#5F87DF"/>
<g opacity="0.3">
<path opacity="0.3" d="M526.716 216.079C526.716 217.155 525.87 218.006 524.837 218.006C523.789 218.006 522.959 217.139 522.959 216.079C522.959 215.02 523.804 214.153 524.837 214.153C525.87 214.137 526.716 215.004 526.716 216.079Z" fill="white"/>
<path opacity="0.3" d="M533.837 216.079C533.837 217.155 532.992 218.006 531.959 218.006C530.926 218.006 530.081 217.139 530.081 216.079C530.081 215.02 530.926 214.153 531.959 214.153C533.008 214.137 533.837 215.004 533.837 216.079Z" fill="white"/>
<path opacity="0.3" d="M540.975 216.079C540.975 217.155 540.13 218.006 539.097 218.006C538.048 218.006 537.218 217.139 537.218 216.079C537.218 215.02 538.064 214.153 539.097 214.153C540.13 214.137 540.975 215.004 540.975 216.079Z" fill="white"/>
</g>
</g>
<g opacity="0.3">
<path opacity="0.3" d="M157.348 8.1038C144.607 -0.614694 128.344 0.268395 116.698 9.08323L137.704 38.3055L104.536 50.9738C107.041 57.894 111.611 64.0917 118.06 68.5071C134.323 79.634 156.299 75.1383 167.146 58.4559C177.994 41.7896 173.611 19.2307 157.348 8.1038Z" fill="#5F87DF"/>
<path opacity="0.3" d="M112.425 8.50781C109.389 10.8038 106.681 13.6779 104.458 17.0818C98.2754 26.5871 97.3363 38.1314 100.952 48.0863L132.273 36.1084L112.425 8.50781Z" fill="#5F87DF"/>
</g>
<path d="M182.736 25.3481C182.736 25.3481 354.569 -39.2458 530.081 66.2432" stroke="#5F87DF" stroke-width="0.5669" stroke-miterlimit="10" stroke-dasharray="2.83 2.83"/>
</g>
<defs>
<clipPath id="clip0_1873_3546">
<rect width="690" height="350" fill="white"/>
</clipPath>
</defs>
</svg>
