<svg width="690" height="350" viewBox="0 0 690 350" fill="none" xmlns="http://www.w3.org/2000/svg">
<path d="M58.8107 348.539C58.9562 345.991 -1.00252 269.511 68.8228 198.9C100.344 167.025 153.66 184.295 145.227 91.178C137.945 10.7802 263.721 -36.4615 341.887 35.3192C392.389 81.6972 443.515 19.8267 523.636 54.9311C603.755 90.0354 550.997 185.448 583.874 194.439C648.636 212.148 680.8 290.082 629.167 347.673L58.8107 348.539Z" fill="#EBF3FA"/>
<path d="M328.767 162.656C328.428 161.955 328.054 161.244 327.654 160.543L328.782 159.902C329.194 160.628 329.583 161.365 329.934 162.091L328.767 162.656ZM326.409 158.5C325.98 157.84 325.521 157.178 325.046 156.53L326.092 155.761C326.582 156.428 327.055 157.11 327.496 157.789L326.409 158.5ZM197.547 172.804C196.727 172.891 195.902 172.962 195.095 173.008L195.019 171.712C195.805 171.666 196.611 171.598 197.409 171.513L197.547 172.804ZM199.985 172.481L199.786 171.2C200.568 171.079 201.363 170.938 202.152 170.781L202.407 172.052C201.599 172.212 200.784 172.357 199.985 172.481ZM192.632 173.09C191.807 173.097 190.978 173.08 190.167 173.044L190.228 171.749C191.014 171.785 191.819 171.8 192.622 171.795L192.632 173.09ZM204.806 171.518L204.498 170.259C205.267 170.072 206.048 169.864 206.822 169.64L207.181 170.887C206.39 171.113 205.592 171.326 204.806 171.518ZM187.707 172.86C186.887 172.775 186.065 172.668 185.262 172.537L185.471 171.256C186.247 171.382 187.045 171.489 187.841 171.569L187.707 172.86ZM209.527 170.164L209.122 168.932C209.874 168.685 210.638 168.418 211.395 168.139L211.844 169.357C211.075 169.64 210.293 169.912 209.527 170.164ZM214.129 168.469L213.639 167.268C214.374 166.967 215.119 166.649 215.854 166.319L216.383 167.503C215.636 167.838 214.879 168.163 214.129 168.469ZM182.838 172.066C182.03 171.884 181.227 171.673 180.446 171.443L180.815 170.198C181.567 170.422 182.346 170.623 183.125 170.8L182.838 172.066ZM323.576 154.64C323.074 154.029 322.545 153.418 322.009 152.826L322.969 151.952C323.522 152.561 324.063 153.187 324.58 153.818L323.576 154.64ZM218.605 166.467L218.04 165.3C218.753 164.953 219.478 164.589 220.194 164.216L220.796 165.366C220.065 165.744 219.33 166.115 218.605 166.467ZM178.1 170.664C177.326 170.378 176.555 170.062 175.81 169.725L176.344 168.544C177.062 168.866 177.804 169.172 178.549 169.446L178.1 170.664ZM222.948 164.199L222.314 163.066C223.008 162.678 223.712 162.273 224.403 161.86L225.068 162.974C224.364 163.393 223.651 163.806 222.948 164.199ZM320.349 151.091C319.786 150.531 319.199 149.975 318.607 149.441L319.476 148.478C320.082 149.027 320.684 149.597 321.264 150.172L320.349 151.091ZM173.59 168.629C172.865 168.236 172.147 167.814 171.456 167.372L172.154 166.28C172.817 166.705 173.508 167.112 174.207 167.488L173.59 168.629ZM227.154 161.695L226.46 160.599C227.132 160.174 227.812 159.733 228.486 159.284L229.207 160.363C228.525 160.817 227.833 161.266 227.154 161.695ZM231.225 158.98L230.48 157.918C231.13 157.462 231.79 156.986 232.443 156.508L233.212 157.554C232.552 158.039 231.882 158.52 231.225 158.98ZM169.42 165.958C168.76 165.46 168.115 164.934 167.499 164.39L168.358 163.418C168.947 163.939 169.568 164.444 170.201 164.922L169.42 165.958ZM316.788 147.874C316.172 147.37 315.536 146.875 314.896 146.397L315.669 145.356C316.327 145.844 316.98 146.353 317.61 146.87L316.788 147.874ZM235.162 156.084L234.372 155.055L234.563 154.907C235.148 154.456 235.73 154.012 236.312 153.578L237.089 154.616C236.514 155.048 235.936 155.487 235.357 155.936L235.162 156.084ZM312.935 145.014C312.275 144.57 311.594 144.136 310.912 143.723L311.584 142.612C312.285 143.034 312.981 143.481 313.661 143.934L312.935 145.014ZM165.708 162.68C165.136 162.088 164.58 161.465 164.056 160.832L165.058 160.007C165.56 160.616 166.092 161.21 166.642 161.778L165.708 162.68ZM239.039 153.185L238.282 152.132C238.945 151.656 239.617 151.181 240.279 150.725L241.016 151.792C240.359 152.243 239.694 152.714 239.039 153.185ZM308.831 142.53C308.132 142.151 307.411 141.783 306.693 141.438L307.256 140.269C307.994 140.623 308.731 141.001 309.447 141.39L308.831 142.53ZM243.018 150.439L242.302 149.357C242.986 148.905 243.678 148.459 244.357 148.032L245.048 149.131C244.379 149.553 243.695 149.992 243.018 150.439ZM162.557 158.854C162.086 158.18 161.635 157.476 161.22 156.763L162.341 156.108C162.741 156.79 163.171 157.464 163.622 158.112L162.557 158.854ZM247.108 147.865L246.441 146.751C247.14 146.331 247.85 145.919 248.554 145.519L249.194 146.647C248.501 147.042 247.8 147.452 247.108 147.865ZM304.507 140.448C303.772 140.138 303.023 139.839 302.278 139.565L302.727 138.347C303.491 138.629 304.262 138.934 305.014 139.255L304.507 140.448ZM251.308 145.482L250.694 144.34C251.412 143.954 252.142 143.575 252.865 143.211L253.447 144.371C252.736 144.728 252.016 145.101 251.308 145.482ZM300.007 138.789C299.248 138.549 298.474 138.325 297.702 138.122L298.035 136.867C298.826 137.076 299.621 137.307 300.398 137.554L300.007 138.789ZM255.621 143.313L255.068 142.139C255.808 141.792 256.557 141.453 257.297 141.127L257.817 142.316C257.091 142.636 256.351 142.971 255.621 143.313ZM160.051 154.572C159.694 153.833 159.359 153.068 159.061 152.299L160.269 151.829C160.555 152.566 160.876 153.299 161.218 154.01L160.051 154.572ZM295.369 137.561C294.592 137.394 293.799 137.243 293.011 137.112L293.224 135.834C294.032 135.967 294.845 136.123 295.64 136.295L295.369 137.561ZM260.041 141.387L259.558 140.184C260.318 139.878 261.087 139.582 261.846 139.306L262.292 140.523C261.548 140.795 260.791 141.086 260.041 141.387ZM290.635 136.773C289.845 136.678 289.042 136.601 288.246 136.542L288.341 135.249C289.156 135.31 289.978 135.388 290.788 135.485L290.635 136.773ZM264.568 139.728L264.161 138.495C264.939 138.238 265.728 137.991 266.502 137.765L266.868 139.01C266.106 139.233 265.332 139.475 264.568 139.728ZM285.849 136.421C285.058 136.399 284.25 136.392 283.447 136.404L283.428 135.106C284.248 135.094 285.075 135.099 285.885 135.123L285.849 136.421ZM269.19 138.369L268.867 137.112C269.658 136.909 270.461 136.717 271.254 136.545L271.531 137.811C270.752 137.983 269.966 138.17 269.19 138.369ZM281.048 136.491C280.255 136.537 279.449 136.601 278.653 136.678L278.525 135.388C279.338 135.308 280.162 135.242 280.973 135.196L281.048 136.491ZM273.891 137.343L273.661 136.067C274.469 135.921 275.284 135.79 276.087 135.679L276.266 136.964C275.48 137.074 274.682 137.202 273.891 137.343ZM158.253 149.956C158.015 149.175 157.804 148.367 157.625 147.559L158.891 147.277C159.063 148.054 159.267 148.828 159.495 149.58L158.253 149.956ZM157.174 145.126C157.13 144.827 157.089 144.529 157.055 144.23C156.992 143.711 156.941 143.185 156.902 142.666L158.195 142.569C158.234 143.068 158.282 143.578 158.343 144.075C158.377 144.364 158.416 144.65 158.459 144.936L157.174 145.126ZM158.096 140.181L156.798 140.191C156.793 139.376 156.812 138.544 156.861 137.719L158.156 137.794C158.11 138.592 158.088 139.395 158.096 140.181ZM158.37 135.412L157.081 135.257C157.178 134.461 157.3 133.651 157.445 132.85L158.729 133.044L158.719 133.095C158.583 133.857 158.464 134.64 158.37 135.412ZM159.209 130.693L157.943 130.407C158.122 129.609 158.324 128.806 158.535 128.022L159.786 128.362C159.58 129.128 159.386 129.912 159.209 130.693ZM203.588 124.128C202.732 124.209 201.885 124.23 201.067 124.194L201.128 122.898C201.882 122.935 202.669 122.913 203.464 122.838L203.588 124.128ZM206.065 123.735L205.786 122.469C206.538 122.304 207.305 122.091 208.059 121.836L208.474 123.066C207.673 123.335 206.863 123.561 206.065 123.735ZM198.552 123.869C197.7 123.682 196.88 123.42 196.121 123.085L196.642 121.897C197.324 122.195 198.059 122.433 198.828 122.6L198.552 123.869ZM210.796 122.149L210.262 120.967C210.975 120.645 211.684 120.281 212.37 119.888L213.015 121.013C212.292 121.428 211.545 121.809 210.796 122.149ZM215.116 119.679L214.369 118.617C215.014 118.163 215.645 117.673 216.242 117.166L217.084 118.153C216.458 118.689 215.796 119.201 215.116 119.679ZM160.468 126.06L159.233 125.664C159.483 124.885 159.752 124.102 160.034 123.34L161.249 123.789C160.975 124.534 160.713 125.298 160.468 126.06ZM193.896 121.797C193.207 121.285 192.576 120.693 192.023 120.033L193.015 119.199C193.506 119.781 194.063 120.305 194.67 120.756L193.896 121.797ZM218.901 116.448L217.969 115.545C218.52 114.975 219.044 114.376 219.527 113.765L220.546 114.568C220.034 115.215 219.481 115.846 218.901 116.448ZM162.132 121.557L160.936 121.052C161.254 120.298 161.594 119.543 161.943 118.808L163.115 119.366C162.775 120.087 162.443 120.822 162.132 121.557ZM190.599 117.901C190.218 117.176 189.893 116.382 189.634 115.548L190.873 115.162C191.109 115.921 191.405 116.639 191.749 117.297L190.599 117.901ZM221.984 112.53L220.885 111.838C221.308 111.169 221.691 110.477 222.028 109.779L223.197 110.344C222.838 111.084 222.431 111.819 221.984 112.53ZM164.199 117.226L163.057 116.615C163.442 115.895 163.85 115.174 164.267 114.473L165.381 115.138C164.973 115.822 164.575 116.525 164.199 117.226ZM189.068 113.09C189.034 112.865 189 112.634 188.974 112.401C188.903 111.821 188.855 111.215 188.833 110.596L190.128 110.545C190.15 111.127 190.196 111.7 190.262 112.243C190.289 112.462 190.318 112.675 190.352 112.889L189.068 113.09ZM224.153 108.027L222.928 107.605C223.183 106.863 223.396 106.101 223.556 105.341L224.825 105.611C224.651 106.421 224.425 107.234 224.153 108.027ZM166.657 113.105L165.575 112.389C166.024 111.71 166.494 111.03 166.977 110.368L168.025 111.132C167.555 111.78 167.094 112.442 166.657 113.105ZM190.138 108.168L188.843 108.117C188.874 107.287 188.935 106.457 189.025 105.652L190.315 105.793C190.228 106.569 190.167 107.37 190.138 108.168ZM225.194 103.131L223.901 103.02C223.966 102.246 223.988 101.455 223.959 100.674L225.255 100.628C225.286 101.46 225.264 102.304 225.194 103.131ZM169.483 109.228L168.472 108.418C168.981 107.782 169.512 107.149 170.053 106.535L171.026 107.391C170.5 107.988 169.981 108.607 169.483 109.228ZM172.654 105.623L171.72 104.723C172.288 104.133 172.875 103.551 173.467 102.991L174.359 103.932C173.782 104.48 173.207 105.048 172.654 105.623ZM190.657 103.442L189.381 103.207C189.532 102.394 189.714 101.581 189.925 100.793L191.179 101.127C190.975 101.882 190.8 102.661 190.657 103.442ZM223.67 98.3909C223.496 97.6413 223.236 96.9208 222.904 96.2536L224.066 95.6762C224.444 96.4356 224.735 97.2483 224.934 98.0974L223.67 98.3909ZM176.138 102.316L175.286 101.336C175.902 100.802 176.538 100.274 177.178 99.7665L177.984 100.783C177.36 101.28 176.737 101.797 176.138 102.316ZM191.88 98.8592L190.657 98.4249C190.934 97.6486 191.244 96.8747 191.582 96.1251L192.766 96.6588C192.443 97.3744 192.145 98.1144 191.88 98.8592ZM221.659 94.3589C221.181 93.7912 220.623 93.2624 220.005 92.7844L220.796 91.7558C221.489 92.2895 222.115 92.8839 222.654 93.5219L221.659 94.3589ZM179.9 99.3322L179.139 98.2818C179.801 97.8014 180.48 97.3308 181.162 96.882L181.878 97.964C181.21 98.4031 180.546 98.864 179.9 99.3322ZM183.908 96.6855L183.241 95.5719C183.942 95.1522 184.66 94.7422 185.378 94.3541L185.997 95.4943C185.296 95.8752 184.592 96.2755 183.908 96.6855ZM193.826 94.536L192.69 93.9101C193.04 93.2745 193.421 92.6437 193.818 92.0275C193.391 92.1779 192.965 92.3332 192.542 92.4933L192.081 91.2803C192.848 90.9892 193.629 90.7126 194.403 90.4603L194.806 91.6927C194.59 91.7631 194.372 91.8359 194.156 91.9111L195.056 92.5079C194.619 93.1653 194.207 93.8495 193.826 94.536ZM218.049 91.5545C217.385 91.2124 216.662 90.9067 215.9 90.6447L216.32 89.4171C217.14 89.6986 217.921 90.0285 218.641 90.3997L218.049 91.5545ZM188.134 94.3977L187.567 93.2308C188.302 92.8742 189.054 92.5273 189.803 92.2046L190.318 93.3958C189.588 93.7112 188.852 94.0484 188.134 94.3977ZM213.632 90.0188C212.887 89.8587 212.101 89.7301 211.295 89.6355L211.443 88.3473C212.29 88.4443 213.117 88.5802 213.903 88.75L213.632 90.0188ZM197.106 90.9989L196.849 90.0649C196.71 90.2347 196.577 90.4045 196.443 90.5744L195.42 89.7786C195.919 89.1357 196.453 88.4977 197.011 87.8815L197.974 88.75C197.715 89.0387 197.457 89.3322 197.21 89.6282C197.86 89.456 198.513 89.2983 199.156 89.1551L199.435 90.4215C198.663 90.5938 197.88 90.7878 197.106 90.9989ZM208.925 89.4632C208.151 89.439 207.348 89.4414 206.54 89.4754L206.489 88.1799C207.329 88.1459 208.161 88.1411 208.966 88.1677L208.925 89.4632ZM201.788 89.9703L201.577 88.6893C202.399 88.5535 203.222 88.4443 204.025 88.3594L204.161 89.65C203.382 89.7325 202.586 89.8393 201.788 89.9703ZM199.631 87.0372L198.729 86.1056C199.311 85.5428 199.925 84.9848 200.558 84.4487L201.397 85.4361C200.788 85.9528 200.194 86.4938 199.631 87.0372ZM203.263 83.9416L202.482 82.9057C203.125 82.4205 203.799 81.9402 204.488 81.4768L205.213 82.554C204.544 83.0028 203.889 83.471 203.263 83.9416ZM207.232 81.2682L206.562 80.1571C207.251 79.7422 207.972 79.3298 208.7 78.9344L209.318 80.0746C208.607 80.4628 207.904 80.863 207.232 81.2682ZM211.458 78.9756L210.89 77.8111C211.613 77.4594 212.363 77.11 213.12 76.7776L213.644 77.964C212.901 78.2915 212.166 78.6311 211.458 78.9756ZM215.866 77.0348L215.388 75.8291C216.135 75.5307 216.909 75.2396 217.686 74.9606L218.125 76.1808C217.36 76.455 216.601 76.7413 215.866 77.0348ZM220.407 75.4045L220.01 74.1697C220.779 73.9222 221.57 73.6796 222.356 73.4516L222.717 74.6961C221.943 74.9217 221.164 75.1595 220.407 75.4045ZM225.048 74.0581L224.723 72.8014C225.507 72.5976 226.31 72.4036 227.108 72.2216L227.397 73.4856C226.611 73.6651 225.82 73.8592 225.048 74.0581ZM229.762 72.9785L229.507 71.7073C230.315 71.5447 231.128 71.3943 231.924 71.2609L232.142 72.5394C231.358 72.6728 230.558 72.8208 229.762 72.9785ZM236.916 71.8892C236.909 71.8892 236.026 71.962 234.534 72.1682L234.357 70.8824C235.898 70.669 236.788 70.5962 236.815 70.5938L236.916 71.8892Z" fill="#8C9DF4"/>
<path d="M243.223 214.758H191.617V347.278H243.223V214.758Z" fill="#BDD1F9"/>
<path d="M323.504 171.445H271.898V347.28H323.504V171.445Z" fill="#BDD1F9"/>
<path d="M401.397 124.695H344.891V347.277H401.397V124.695Z" fill="#BDD1F9"/>
<path d="M473.137 93.8828H421.531V347.279H473.137V93.8828Z" fill="#BDD1F9"/>
<path d="M401.398 198.873L509.86 146.367L461.488 249.475L453.31 202.694L401.398 198.873Z" fill="#F77D48"/>
<path d="M376.448 163.726C373.794 152.821 380.485 141.829 391.39 139.175C402.295 136.521 413.287 143.209 415.941 154.117C418.595 165.022 411.907 176.014 400.999 178.668C390.094 181.322 379.102 174.631 376.448 163.726Z" fill="#FFB93E"/>
<path d="M400.627 177.148C395.821 178.317 390.847 177.545 386.624 174.974C382.398 172.402 379.428 168.339 378.259 163.535C377.09 158.729 377.861 153.756 380.433 149.53C383.004 145.304 387.065 142.334 391.871 141.165C396.677 139.996 401.65 140.767 405.876 143.339C410.103 145.91 413.072 149.972 414.241 154.777C415.411 159.583 414.639 164.557 412.068 168.783C409.496 173.006 405.433 175.978 400.627 177.148ZM392.133 142.237C382.805 144.508 377.06 153.943 379.331 163.273C381.602 172.601 391.037 178.344 400.367 176.075C409.695 173.805 415.44 164.37 413.169 155.039C410.898 145.709 401.461 139.967 392.133 142.237Z" fill="#FFA412"/>
<path d="M399.998 163.777C399.95 163.377 399.85 163.032 399.702 162.744C399.552 162.452 399.336 162.2 399.05 161.984C398.763 161.768 398.407 161.582 397.977 161.419C397.548 161.259 397.029 161.113 396.422 160.985C395.377 160.754 394.421 160.497 393.557 160.211C392.691 159.925 391.937 159.566 391.294 159.134C390.648 158.699 390.124 158.166 389.722 157.53C389.317 156.895 389.059 156.111 388.945 155.179C388.848 154.371 388.902 153.617 389.108 152.918C389.314 152.22 389.654 151.589 390.124 151.031C390.597 150.473 391.185 149.993 391.888 149.595C392.592 149.197 393.399 148.898 394.312 148.702L393.943 145.65L396.398 145.352L396.774 148.445C397.667 148.452 398.494 148.588 399.253 148.852C400.013 149.117 400.678 149.5 401.245 150C401.815 150.5 402.281 151.116 402.645 151.848C403.009 152.581 403.249 153.423 403.363 154.371L398.928 154.91C398.79 153.77 398.433 152.947 397.858 152.443C397.284 151.938 396.57 151.739 395.721 151.841C395.26 151.897 394.872 152.009 394.554 152.178C394.236 152.346 393.984 152.557 393.797 152.804C393.611 153.054 393.482 153.336 393.416 153.653C393.351 153.971 393.339 154.304 393.382 154.655C393.426 155.007 393.516 155.32 393.652 155.592C393.788 155.866 393.996 156.106 394.278 156.32C394.557 156.531 394.918 156.72 395.357 156.882C395.799 157.045 396.337 157.205 396.98 157.358C398.019 157.608 398.967 157.879 399.828 158.171C400.69 158.462 401.442 158.826 402.087 159.265C402.732 159.704 403.256 160.24 403.662 160.876C404.067 161.511 404.324 162.29 404.435 163.212C404.537 164.049 404.482 164.818 404.27 165.517C404.059 166.218 403.717 166.844 403.244 167.392C402.771 167.94 402.177 168.408 401.459 168.794C400.743 169.18 399.928 169.471 399.018 169.667L399.363 172.506L396.922 172.802L396.58 169.978C395.721 169.995 394.877 169.91 394.05 169.721C393.222 169.532 392.468 169.206 391.789 168.743C391.109 168.28 390.537 167.664 390.069 166.89C389.6 166.118 389.3 165.16 389.161 164.02L393.596 163.484C393.678 164.158 393.841 164.711 394.084 165.138C394.326 165.567 394.625 165.897 394.974 166.13C395.323 166.363 395.707 166.509 396.124 166.569C396.541 166.63 396.958 166.635 397.378 166.584C397.858 166.526 398.273 166.412 398.623 166.244C398.97 166.077 399.253 165.868 399.474 165.621C399.693 165.373 399.845 165.092 399.933 164.777C400.02 164.461 400.042 164.129 399.998 163.777Z" fill="#FFA412"/>
<path d="M517.137 119.34C524.867 111.61 524.867 99.0774 517.137 91.3475C509.407 83.6177 496.875 83.6177 489.145 91.3476C481.415 99.0774 481.415 111.61 489.145 119.34C496.875 127.07 509.407 127.07 517.137 119.34Z" fill="#FFB93E"/>
<path d="M503.86 123.594C499.047 123.783 494.447 122.088 490.91 118.817C487.373 115.547 485.321 111.095 485.131 106.282C484.942 101.469 486.638 96.8692 489.908 93.3321C493.179 89.795 497.63 87.7426 502.443 87.5533C507.257 87.3641 511.854 89.0599 515.393 92.3302C518.931 95.6004 520.983 100.052 521.172 104.865C521.361 109.679 519.666 114.278 516.395 117.815C513.125 121.353 508.673 123.405 503.86 123.594ZM502.487 88.6305C493.145 88.9968 485.842 96.8983 486.209 106.241C486.575 115.583 494.476 122.886 503.819 122.519C513.162 122.151 520.464 114.252 520.097 104.909C519.729 95.564 511.83 88.2617 502.487 88.6305Z" fill="#FFA412"/>
<path d="M505.841 110.708C505.873 110.318 505.844 109.971 505.759 109.663C505.671 109.357 505.514 109.073 505.283 108.811C505.053 108.549 504.747 108.302 504.369 108.067C503.99 107.831 503.522 107.593 502.966 107.353C502.013 106.931 501.149 106.502 500.38 106.063C499.609 105.624 498.959 105.133 498.427 104.597C497.896 104.059 497.498 103.447 497.236 102.763C496.974 102.079 496.877 101.281 496.95 100.369C497.013 99.5779 497.209 98.8695 497.542 98.2412C497.874 97.6128 498.318 97.0767 498.876 96.6351C499.434 96.1936 500.089 95.8491 500.839 95.6041C501.588 95.3591 502.416 95.2305 503.323 95.2184L503.558 92.2344L505.96 92.4236L505.722 95.4488C506.574 95.6284 507.336 95.9171 508.01 96.3173C508.685 96.7176 509.243 97.2101 509.691 97.7972C510.138 98.3843 510.465 99.0636 510.671 99.8326C510.878 100.602 510.943 101.451 510.87 102.38L506.533 102.038C506.62 100.922 506.438 100.068 505.987 99.476C505.536 98.8841 504.895 98.5541 504.063 98.4886C503.612 98.4522 503.219 98.4862 502.884 98.5857C502.549 98.6851 502.268 98.8355 502.04 99.0369C501.812 99.2383 501.637 99.4857 501.513 99.7744C501.389 100.063 501.314 100.381 501.288 100.725C501.261 101.07 501.285 101.385 501.363 101.672C501.44 101.958 501.593 102.23 501.819 102.487C502.044 102.744 502.353 102.991 502.741 103.234C503.129 103.474 503.614 103.731 504.199 104.001C505.14 104.44 505.994 104.881 506.761 105.325C507.525 105.769 508.175 106.262 508.706 106.805C509.238 107.348 509.636 107.962 509.898 108.646C510.16 109.333 510.257 110.124 510.186 111.026C510.121 111.844 509.922 112.567 509.585 113.195C509.247 113.823 508.801 114.355 508.243 114.787C507.685 115.221 507.028 115.551 506.268 115.781C505.509 116.012 504.677 116.133 503.769 116.145L503.551 118.92L501.164 118.731L501.382 115.97C500.557 115.82 499.769 115.577 499.017 115.235C498.262 114.896 497.607 114.44 497.049 113.867C496.491 113.295 496.062 112.593 495.766 111.766C495.468 110.939 495.363 109.966 495.453 108.85L499.791 109.192C499.74 109.852 499.788 110.41 499.939 110.866C500.089 111.322 500.307 111.696 500.599 111.985C500.887 112.273 501.225 112.487 501.613 112.625C501.998 112.763 502.399 112.848 502.809 112.88C503.279 112.916 503.697 112.889 504.061 112.797C504.424 112.705 504.737 112.562 504.992 112.365C505.249 112.171 505.448 111.931 505.591 111.647C505.73 111.366 505.815 111.053 505.841 110.708Z" fill="#FFA412"/>
<path d="M455.44 141.229C455.306 133.689 461.311 127.472 468.848 127.338C476.386 127.205 482.606 133.209 482.739 140.747C482.873 148.284 476.869 154.505 469.331 154.638C461.793 154.771 455.573 148.767 455.44 141.229Z" fill="#FFB93E"/>
<path d="M469.315 153.584C465.993 153.643 462.847 152.405 460.457 150.098C458.068 147.791 456.719 144.691 456.658 141.369C456.6 138.048 457.837 134.902 460.144 132.512C462.452 130.122 465.552 128.774 468.873 128.713C472.194 128.655 475.341 129.892 477.731 132.199C480.12 134.506 481.469 137.607 481.53 140.928C481.588 144.249 480.351 147.396 478.041 149.785C475.736 152.177 472.638 153.526 469.315 153.584ZM468.888 129.453C462.439 129.567 457.287 134.907 457.401 141.355C457.515 147.803 462.854 152.956 469.303 152.842C475.751 152.728 480.904 147.388 480.79 140.94C480.676 134.492 475.338 129.339 468.888 129.453Z" fill="#FFA412"/>
<path d="M470.871 144.728C470.898 144.459 470.883 144.219 470.83 144.008C470.774 143.794 470.67 143.598 470.515 143.414C470.359 143.229 470.153 143.055 469.894 142.885C469.637 142.717 469.316 142.545 468.938 142.37C468.285 142.065 467.698 141.757 467.174 141.441C466.648 141.126 466.206 140.779 465.85 140.4C465.49 140.022 465.226 139.595 465.054 139.117C464.882 138.639 464.828 138.089 464.891 137.463C464.947 136.919 465.093 136.432 465.33 136.005C465.568 135.575 465.883 135.214 466.274 134.918C466.665 134.622 467.123 134.394 467.642 134.236C468.161 134.078 468.736 134.003 469.362 134.008L469.569 131.953L471.221 132.121L471.01 134.204C471.594 134.34 472.116 134.551 472.574 134.838C473.033 135.124 473.411 135.471 473.712 135.883C474.011 136.296 474.227 136.769 474.358 137.3C474.489 137.834 474.52 138.421 474.457 139.059L471.471 138.758C471.548 137.989 471.434 137.4 471.133 136.982C470.83 136.567 470.393 136.33 469.821 136.274C469.51 136.242 469.239 136.259 469.008 136.322C468.775 136.385 468.579 136.485 468.419 136.621C468.259 136.757 468.135 136.924 468.045 137.121C467.955 137.317 467.9 137.535 467.875 137.773C467.851 138.011 467.863 138.227 467.914 138.426C467.963 138.625 468.064 138.814 468.217 138.993C468.37 139.173 468.579 139.35 468.843 139.522C469.108 139.695 469.44 139.879 469.838 140.073C470.481 140.391 471.063 140.706 471.585 141.024C472.106 141.342 472.545 141.691 472.904 142.074C473.263 142.458 473.528 142.885 473.698 143.363C473.87 143.838 473.923 144.386 473.86 145.007C473.804 145.57 473.654 146.065 473.414 146.495C473.171 146.924 472.856 147.283 472.465 147.572C472.075 147.863 471.616 148.081 471.09 148.229C470.563 148.377 469.988 148.448 469.362 148.443L469.171 150.352L467.528 150.187L467.72 148.285C467.155 148.171 466.614 147.989 466.099 147.744C465.585 147.499 465.139 147.174 464.763 146.771C464.387 146.368 464.1 145.878 463.909 145.303C463.717 144.728 463.659 144.056 463.736 143.29L466.723 143.591C466.677 144.044 466.703 144.43 466.801 144.748C466.898 145.063 467.043 145.325 467.24 145.529C467.434 145.733 467.664 145.886 467.929 145.985C468.193 146.087 468.467 146.15 468.749 146.179C469.071 146.211 469.36 146.199 469.615 146.14C469.867 146.082 470.085 145.988 470.265 145.857C470.444 145.726 470.588 145.563 470.689 145.371C470.784 145.18 470.847 144.966 470.871 144.728Z" fill="#FFA412"/>
<path d="M431.833 121.857C450.189 120.609 464.059 104.717 462.812 86.3606C461.564 68.0041 445.672 54.1345 427.316 55.3819C408.959 56.6294 395.089 72.5215 396.337 90.8779C397.584 109.234 413.476 123.104 431.833 121.857Z" fill="#FFB93E"/>
<path d="M439.237 117.806C431.542 120.353 423.313 119.754 416.069 116.113C408.825 112.474 403.431 106.229 400.882 98.5338C398.334 90.8385 398.934 82.6095 402.575 75.3654C406.214 68.1214 412.459 62.7284 420.154 60.1786C427.849 57.6313 436.078 58.2306 443.322 61.872C450.566 65.511 455.959 71.7555 458.507 79.4508C461.054 87.1461 460.455 95.3752 456.813 102.619C453.177 109.866 446.932 115.259 439.237 117.806ZM420.724 61.8987C405.785 66.8453 397.655 83.0243 402.602 97.9661C407.548 112.905 423.727 121.035 438.669 116.088C453.609 111.142 461.738 94.9627 456.791 80.0234C451.842 65.0816 435.663 56.952 420.724 61.8987Z" fill="#FFA412"/>
<path d="M436.435 96.0405C436.304 95.3952 436.095 94.8444 435.814 94.3908C435.53 93.9347 435.142 93.5514 434.647 93.236C434.152 92.9206 433.543 92.661 432.82 92.4573C432.097 92.2535 431.231 92.0861 430.222 91.9551C428.482 91.7173 426.889 91.4238 425.438 91.072C423.985 90.7202 422.706 90.2326 421.595 89.6116C420.484 88.9905 419.557 88.1851 418.812 87.2001C418.068 86.2151 417.541 84.9682 417.233 83.4616C416.966 82.154 416.954 80.9167 417.197 79.745C417.439 78.5732 417.91 77.5009 418.609 76.5257C419.305 75.5504 420.203 74.6892 421.301 73.9444C422.4 73.1996 423.679 72.6052 425.142 72.1637L424.133 67.2268L428.106 66.4141L429.13 71.4189C430.591 71.3122 431.959 71.4262 433.235 71.7561C434.509 72.0885 435.646 72.6246 436.641 73.367C437.638 74.1094 438.482 75.0531 439.174 76.2006C439.865 77.3481 440.367 78.6921 440.683 80.2302L433.507 81.6979C433.131 79.8517 432.437 78.5562 431.43 77.809C430.423 77.0618 429.235 76.8289 427.859 77.1103C427.114 77.2632 426.493 77.4985 425.998 77.8163C425.503 78.1341 425.118 78.5077 424.843 78.942C424.569 79.3738 424.4 79.8541 424.336 80.3806C424.271 80.907 424.298 81.4529 424.414 82.023C424.531 82.5907 424.717 83.0904 424.979 83.5174C425.239 83.9444 425.613 84.3132 426.098 84.6213C426.583 84.9294 427.197 85.1889 427.937 85.3976C428.677 85.6062 429.581 85.793 430.651 85.9604C432.379 86.2321 433.965 86.5475 435.411 86.909C436.857 87.2705 438.136 87.7654 439.247 88.3961C440.358 89.0269 441.287 89.8347 442.032 90.8173C442.776 91.8022 443.301 93.0419 443.606 94.5339C443.883 95.8876 443.895 97.1492 443.643 98.3234C443.39 99.4975 442.915 100.563 442.214 101.523C441.513 102.484 440.603 103.326 439.484 104.051C438.366 104.777 437.075 105.361 435.612 105.803L436.551 110.393L432.604 111.201L431.67 106.635C430.268 106.778 428.878 106.749 427.502 106.55C426.124 106.351 424.851 105.919 423.681 105.252C422.51 104.587 421.493 103.653 420.627 102.452C419.761 101.252 419.14 99.728 418.761 97.8842L425.938 96.4165C426.161 97.5082 426.5 98.3889 426.957 99.056C427.413 99.7232 427.941 100.225 428.543 100.558C429.145 100.892 429.793 101.079 430.482 101.123C431.17 101.167 431.855 101.118 432.534 100.98C433.313 100.82 433.975 100.582 434.521 100.262C435.067 99.9415 435.503 99.5655 435.828 99.1288C436.153 98.6945 436.365 98.2142 436.466 97.6877C436.559 97.1564 436.551 96.6106 436.435 96.0405Z" fill="#FFA412"/>
<path d="M298.095 79.4583C295.102 80.2056 292.241 80.9212 289.568 81.3773C280.909 82.8572 274.221 81.6369 271.336 70.0939C268.454 58.551 273.782 54.3273 282.12 51.5617C284.694 50.7077 287.554 49.9945 290.548 49.2473C296.948 47.6485 304.032 48.3545 309.672 50.2055C315.22 52.0299 319.374 54.9629 320.111 57.9105C320.951 61.2657 318.665 65.812 314.599 69.9266C310.466 74.1163 304.495 77.8596 298.095 79.4583Z" fill="#739AF0"/>
<path d="M282.125 51.5647L272.292 45.1406L256.766 48.4497L272.891 59.7792L282.125 51.5647Z" fill="#163560"/>
<path d="M289.542 81.2838L283.882 91.5749L268.625 95.9563L277.531 78.375L289.542 81.2838Z" fill="#163560"/>
<path d="M289.568 81.3781C280.91 82.858 274.221 81.6377 271.336 70.0948C268.454 58.5518 273.782 54.3281 282.12 51.5625L289.568 81.3781Z" fill="#163560"/>
<path d="M251.125 75.1433C251.125 75.1433 255.446 65.0729 263.012 66.6232C270.73 68.2049 269.757 76.5213 263.966 77.283C258.173 78.0472 254.502 74.299 251.125 75.1433Z" fill="#F77D48"/>
<path d="M297.148 55.4822C301.146 54.4827 305.198 56.916 306.197 60.914C307.197 64.9121 304.764 68.9635 300.766 69.963C296.768 70.9626 292.716 68.5293 291.717 64.5312C290.717 60.5332 293.15 56.4817 297.148 55.4822Z" fill="#163560"/>
<path d="M298.962 70.686C295.396 70.686 292.143 68.2672 291.238 64.6549C290.175 60.3973 292.773 56.0668 297.031 55.0043C301.289 53.9392 305.619 56.5399 306.682 60.7976C307.196 62.8597 306.878 64.9994 305.784 66.8238C304.69 68.6457 302.951 69.9339 300.889 70.4507C300.246 70.6083 299.598 70.686 298.962 70.686ZM298.96 55.7587C298.402 55.7587 297.837 55.8267 297.274 55.9674C295.469 56.4186 293.948 57.5443 292.989 59.1406C292.031 60.7345 291.752 62.6074 292.203 64.4123C293.135 68.1387 296.922 70.4118 300.648 69.4827C302.453 69.0314 303.974 67.9058 304.933 66.3095C305.891 64.7131 306.17 62.8427 305.719 61.0377C304.928 57.8766 302.08 55.7587 298.96 55.7587Z" fill="#BDD1F9"/>
<path d="M314.604 69.9319L309.68 50.2109C315.228 52.0353 319.381 54.9683 320.119 57.9159C320.956 61.2711 318.67 65.815 314.604 69.9319Z" fill="#F77D48"/>
<path d="M537.758 178.219C537.758 178.219 552.835 193.852 553.549 199.737C554.262 205.62 546.326 214.808 546.326 214.808L537.758 178.219Z" fill="#ED7D2B"/>
<path d="M530.94 340.243C530.94 340.243 530.409 348.535 528.803 348.651C528.589 348.666 520.663 348.649 520.663 348.649L510.547 348.569C510.547 348.569 510.617 346.131 513.577 345.621C516.534 345.112 521.491 343.045 523.288 339.141C525.183 335.032 530.94 340.243 530.94 340.243Z" fill="#2E5A99"/>
<path d="M553.479 340.296C553.479 340.296 552.948 348.588 551.342 348.704C551.128 348.719 543.202 348.702 543.202 348.702L533.086 348.622C533.086 348.622 533.156 346.184 536.116 345.677C539.073 345.167 544.03 343.1 545.827 339.197C547.722 335.087 553.479 340.296 553.479 340.296Z" fill="#18417C"/>
<path d="M519.93 251.081C519.93 251.081 522.538 268.01 532.344 298.07C542.15 328.131 543.464 341.142 543.464 341.142L554.054 340.868C554.054 340.868 554.217 308.039 549.699 292.922C545.182 277.806 548.836 238.461 548.836 238.461L519.93 251.081Z" fill="#163560"/>
<path d="M514.809 239.32C514.809 239.32 514.379 264.82 518.722 296.14C523.067 327.46 521.541 340.747 521.541 340.747L532.109 341.12C532.109 341.12 538.491 309.813 536.716 294.136C534.94 278.462 545.481 240.378 545.481 240.378L514.809 239.32Z" fill="#1C468A"/>
<path d="M535.39 179.691L529.752 183.372L521.617 181.838C521.731 181.181 522.275 178.461 522.77 175.997C522.799 175.851 522.83 175.706 522.857 175.565C523.281 173.466 523.645 171.666 523.645 171.666L531.253 168.33L534.089 167.086C534.082 167.13 533.864 169.412 533.835 169.747C533.291 175.662 535.39 179.691 535.39 179.691Z" fill="#FFB27D"/>
<path d="M523.708 177.799C523.866 177.733 533.514 174.909 534.56 175.256C535.606 175.603 536.222 177.631 536.222 177.631L520.445 181.161C520.445 181.161 521.692 178.64 523.708 177.799Z" fill="#ED7D2B"/>
<path d="M549.528 242.54C547.878 249.99 520.681 250.815 513.684 244.034C512.888 243.26 512.857 239.672 513.167 234.835C513.776 225.383 515.695 211.167 515.785 203.901C515.829 200.393 516.319 196.805 516.969 193.549C518.349 186.608 520.445 181.162 520.445 181.162C520.445 181.162 533.737 176.897 536.222 177.632C548.189 181.176 551.18 235.09 549.528 242.54Z" fill="#F99746"/>
<path d="M513.172 234.835C513.781 225.383 515.7 211.166 515.79 203.901C515.833 200.393 516.323 196.804 516.973 193.549L524.967 192.156C524.965 192.156 532.709 224.085 513.172 234.835Z" fill="#ED7D2B"/>
<path d="M517.528 221.669C517.528 221.669 518.069 222.972 516.924 223.843C515.779 224.714 515.034 226.128 515.294 227.164C515.553 228.2 518.06 229.894 518.931 229.624C519.801 229.355 521.575 227.994 521.386 227.448C521.196 226.902 522.587 222.659 520.469 221.022C518.351 219.382 517.528 221.669 517.528 221.669Z" fill="#FFB27D"/>
<path d="M526.555 179.266C526.555 179.266 518.758 180.707 512.53 189.845C506.3 198.982 502.2 205.777 503.338 209.079C504.473 212.381 514.876 223.841 516.674 223.846C518.471 223.851 521.375 222.548 521.545 219.608C521.545 219.608 514.228 208.589 515.679 206.944C516.298 206.24 525.225 199.025 526.492 202.296C528.583 207.706 526.555 179.266 526.555 179.266Z" fill="#F99746"/>
<path d="M533.268 169.848C531.594 172.672 525.369 175.102 522.773 175.995C522.803 175.85 522.834 175.704 522.861 175.563C523.285 173.465 523.649 171.665 523.649 171.665L531.257 168.329C532.938 168.307 533.96 168.686 533.268 169.848Z" fill="#FCA56B"/>
<path d="M520.786 171.189C520.786 171.189 533.021 175.034 535.296 167.378C537.574 159.723 540.687 155.063 532.972 152.285C525.257 149.508 522.863 151.975 521.483 154.345C520.1 156.715 517.662 169.99 520.786 171.189Z" fill="#FFB27D"/>
<path d="M521.965 153.61C521.965 153.61 522.726 162.525 524.57 162.142C526.414 161.759 528.088 161.475 527.811 164.163C527.535 166.848 524.973 169.946 530.652 170.434C536.331 170.922 544.531 156.288 542.976 153.51C538.49 145.497 515.477 143.831 521.965 153.61Z" fill="#163560"/>
<path d="M462.643 343.508V346.715C462.643 346.97 462.55 347.208 462.39 347.404C462.223 347.611 461.983 347.776 461.701 347.865C461.614 347.897 461.524 347.916 461.432 347.931C461.347 347.943 461.26 347.95 461.172 347.95H400.348C399.612 347.95 398.999 347.492 398.89 346.9C398.885 346.861 398.877 346.82 398.877 346.779C398.877 346.757 398.875 346.737 398.875 346.715V343.508C398.875 343.486 398.877 343.467 398.877 343.445C398.88 343.404 398.885 343.363 398.89 343.324C398.999 342.732 399.612 342.273 400.348 342.273H461.172C461.262 342.273 461.347 342.278 461.432 342.293C461.524 342.305 461.614 342.329 461.701 342.358C461.983 342.451 462.223 342.613 462.39 342.819C462.548 343.016 462.643 343.254 462.643 343.508Z" fill="#FFB93E"/>
<path d="M432.776 347.95H400.19C399.586 347.95 399.076 347.56 398.926 347.036C398.911 346.992 398.899 346.946 398.89 346.9C398.885 346.861 398.877 346.82 398.877 346.779C398.877 346.757 398.875 346.737 398.875 346.715V343.508C398.875 343.486 398.877 343.467 398.877 343.445C398.88 343.404 398.885 343.363 398.89 343.324C398.899 343.278 398.911 343.232 398.926 343.188C399.079 342.664 399.586 342.273 400.19 342.273H428.775C429.232 343.945 430.294 346.255 432.776 347.95Z" fill="#FFA412"/>
<path d="M455.246 342.273H454.555V347.953H455.246V342.273Z" fill="#FFA412"/>
<path d="M452.902 342.273H452.211V347.953H452.902V342.273Z" fill="#FFA412"/>
<path d="M450.098 342.273H449.406V347.953H450.098V342.273Z" fill="#FFA412"/>
<path d="M445.801 342.273H445.109V347.953H445.801V342.273Z" fill="#FFA412"/>
<path d="M441.254 342.273H440.562V347.953H441.254V342.273Z" fill="#FFA412"/>
<path d="M434.277 342.273H433.586V347.953H434.277V342.273Z" fill="#FFA412"/>
<path d="M427.746 342.273H427.055V347.953H427.746V342.273Z" fill="#FFA412"/>
<path d="M421.918 342.273H421.227V347.953H421.918V342.273Z" fill="#FFA412"/>
<path d="M457.473 342.273H456.781V347.953H457.473V342.273Z" fill="#FFA412"/>
<path d="M458.941 342.273H458.25V347.953H458.941V342.273Z" fill="#FFA412"/>
<path d="M460.363 342.273H459.672V347.953H460.363V342.273Z" fill="#FFA412"/>
<path d="M461.434 342.295V347.933C461.349 347.945 461.261 347.953 461.174 347.953H460.742V342.273H461.174C461.261 342.273 461.349 342.281 461.434 342.295Z" fill="#FFA412"/>
<path d="M462.395 342.82V347.408C462.227 347.617 461.987 347.779 461.703 347.871V342.359C461.985 342.449 462.227 342.614 462.395 342.82Z" fill="#FFA412"/>
<path d="M456.143 337.831V341.036C456.143 341.293 456.05 341.531 455.893 341.727C455.851 341.778 455.803 341.829 455.754 341.873C455.601 342.009 455.415 342.12 455.201 342.188C455.116 342.217 455.024 342.237 454.932 342.251C454.849 342.263 454.76 342.273 454.672 342.273H393.845C393.113 342.273 392.499 341.812 392.39 341.22C392.385 341.181 392.377 341.14 392.377 341.101C392.375 341.079 392.375 341.06 392.375 341.036V337.831C392.375 337.809 392.375 337.787 392.377 337.766C392.38 337.724 392.385 337.685 392.39 337.647C392.499 337.055 393.113 336.594 393.845 336.594H454.672C454.711 336.594 454.75 336.596 454.789 336.599C454.803 336.599 454.818 336.601 454.83 336.603C454.832 336.601 454.835 336.601 454.837 336.603C454.854 336.603 454.874 336.606 454.893 336.608C454.905 336.611 454.917 336.613 454.932 336.613C455.024 336.628 455.116 336.647 455.201 336.676C455.252 336.693 455.303 336.713 455.349 336.734H455.352C455.383 336.749 455.417 336.766 455.446 336.781C455.463 336.79 455.483 336.802 455.5 336.812C455.517 336.822 455.534 336.832 455.548 336.841C455.614 336.88 455.672 336.924 455.728 336.972C455.747 336.987 455.762 337.004 455.779 337.021C455.791 337.03 455.798 337.04 455.81 337.05C455.815 337.055 455.822 337.062 455.825 337.067L455.837 337.079C455.856 337.098 455.876 337.118 455.893 337.142C456.048 337.341 456.143 337.576 456.143 337.831Z" fill="#FFB93E"/>
<path d="M426.273 342.273H393.687C393.083 342.273 392.576 341.88 392.426 341.356C392.411 341.312 392.399 341.266 392.39 341.22C392.385 341.181 392.377 341.14 392.377 341.101C392.375 341.079 392.375 341.06 392.375 341.036V337.831C392.375 337.809 392.375 337.787 392.377 337.766C392.38 337.724 392.385 337.685 392.39 337.647C392.397 337.601 392.411 337.554 392.426 337.511C392.576 336.987 393.083 336.594 393.687 336.594H422.273C422.285 336.642 422.297 336.686 422.314 336.734C422.79 338.391 423.862 340.626 426.273 342.273Z" fill="#FFA412"/>
<path d="M448.746 336.594H448.055V342.273H448.746V336.594Z" fill="#FFA412"/>
<path d="M446.402 336.594H445.711V342.273H446.402V336.594Z" fill="#FFA412"/>
<path d="M443.598 336.594H442.906V342.273H443.598V336.594Z" fill="#FFA412"/>
<path d="M439.301 336.594H438.609V342.273H439.301V336.594Z" fill="#FFA412"/>
<path d="M434.746 336.594H434.055V342.273H434.746V336.594Z" fill="#FFA412"/>
<path d="M427.777 336.594H427.086V342.273H427.777V336.594Z" fill="#FFA412"/>
<path d="M421.246 336.594H420.555V342.273H421.246V336.594Z" fill="#FFA412"/>
<path d="M415.418 336.594H414.727V342.273H415.418V336.594Z" fill="#FFA412"/>
<path d="M450.973 336.594H450.281V342.273H450.973V336.594Z" fill="#FFA412"/>
<path d="M452.441 336.594H451.75V342.273H452.441V336.594Z" fill="#FFA412"/>
<path d="M453.863 336.594H453.172V342.273H453.863V336.594Z" fill="#FFA412"/>
<path d="M454.934 336.616V342.254C454.849 342.266 454.761 342.273 454.674 342.273H454.242V336.594H454.674C454.764 336.596 454.849 336.603 454.934 336.616Z" fill="#FFA412"/>
<path d="M455.895 337.141V341.728C455.727 341.937 455.487 342.099 455.203 342.192V336.68C455.487 336.769 455.727 336.932 455.895 337.141Z" fill="#FFA412"/>
<path d="M459.283 332.292V335.499C459.283 335.754 459.191 335.992 459.031 336.188C458.864 336.394 458.623 336.559 458.342 336.649C458.257 336.678 458.165 336.698 458.073 336.715C457.99 336.727 457.903 336.734 457.815 336.734H396.988C396.746 336.734 396.513 336.683 396.309 336.593C395.906 336.416 395.61 336.086 395.533 335.696C395.528 335.669 395.525 335.642 395.52 335.616C395.518 335.599 395.518 335.579 395.518 335.56C395.516 335.538 395.516 335.519 395.516 335.497V332.29C395.516 332.268 395.516 332.248 395.518 332.226C395.52 332.188 395.523 332.144 395.53 332.108C395.639 331.513 396.253 331.055 396.986 331.055H457.813C457.9 331.055 457.988 331.06 458.07 331.074C458.162 331.086 458.255 331.108 458.34 331.137C458.623 331.229 458.864 331.394 459.028 331.601C459.191 331.799 459.283 332.037 459.283 332.292Z" fill="#FFB93E"/>
<path d="M429.414 336.734H396.828C396.61 336.734 396.404 336.683 396.224 336.593C395.863 336.416 395.598 336.086 395.533 335.696C395.528 335.669 395.525 335.642 395.52 335.616C395.518 335.599 395.518 335.579 395.518 335.56C395.516 335.538 395.516 335.519 395.516 335.497V332.29C395.516 332.268 395.516 332.248 395.518 332.226C395.52 332.188 395.523 332.144 395.53 332.108C395.537 332.061 395.55 332.018 395.564 331.974C395.712 331.445 396.222 331.055 396.828 331.055H425.414C425.858 332.68 426.877 334.912 429.215 336.591C429.278 336.642 429.346 336.69 429.414 336.734Z" fill="#FFA412"/>
<path d="M451.887 331.055H451.195V336.734H451.887V331.055Z" fill="#FFA412"/>
<path d="M449.543 331.055H448.852V336.734H449.543V331.055Z" fill="#FFA412"/>
<path d="M446.738 331.055H446.047V336.734H446.738V331.055Z" fill="#FFA412"/>
<path d="M442.441 331.055H441.75V336.734H442.441V331.055Z" fill="#FFA412"/>
<path d="M437.887 331.055H437.195V336.734H437.887V331.055Z" fill="#FFA412"/>
<path d="M430.918 331.055H430.227V336.734H430.918V331.055Z" fill="#FFA412"/>
<path d="M424.387 331.055H423.695V336.734H424.387V331.055Z" fill="#FFA412"/>
<path d="M418.559 331.055H417.867V336.734H418.559V331.055Z" fill="#FFA412"/>
<path d="M454.113 331.055H453.422V336.734H454.113V331.055Z" fill="#FFA412"/>
<path d="M455.582 331.055H454.891V336.734H455.582V331.055Z" fill="#FFA412"/>
<path d="M457.004 331.055H456.312V336.734H457.004V331.055Z" fill="#FFA412"/>
<path d="M458.074 331.077V336.715C457.989 336.727 457.904 336.734 457.815 336.734H457.383V331.055H457.815C457.902 331.057 457.989 331.064 458.074 331.077Z" fill="#FFA412"/>
<path d="M459.035 331.602V336.189C458.868 336.398 458.628 336.56 458.344 336.652V331.141C458.628 331.23 458.868 331.393 459.035 331.602Z" fill="#FFA412"/>
<path d="M460.736 326.623V329.827C460.736 330.084 460.644 330.32 460.484 330.516C460.465 330.543 460.44 330.567 460.419 330.591C460.302 330.715 460.159 330.82 459.999 330.897C459.933 330.929 459.865 330.955 459.795 330.98C459.708 331.009 459.618 331.028 459.526 331.043C459.485 331.048 459.443 331.055 459.4 331.057C459.356 331.062 459.31 331.062 459.266 331.062H398.439C397.704 331.062 397.09 330.601 396.981 330.009C396.976 329.968 396.969 329.929 396.969 329.89V326.555C397.008 325.953 397.561 325.463 398.264 325.393C398.32 325.388 398.381 325.383 398.439 325.383H459.264C459.307 325.383 459.354 325.385 459.397 325.388C459.441 325.39 459.482 325.395 459.523 325.402C459.616 325.414 459.705 325.436 459.793 325.465C460.074 325.558 460.314 325.72 460.482 325.926C460.644 326.128 460.736 326.365 460.736 326.623Z" fill="#FFB93E"/>
<path d="M430.867 331.062H398.281C397.677 331.062 397.168 330.669 397.017 330.145C397.003 330.101 396.991 330.055 396.981 330.009C396.976 329.968 396.969 329.929 396.969 329.89V326.555C397.003 325.955 397.498 325.463 398.126 325.393C398.177 325.388 398.228 325.383 398.281 325.383H426.867C426.867 325.388 426.869 325.388 426.869 325.393C427.328 327.062 428.39 329.369 430.867 331.062Z" fill="#FFA412"/>
<path d="M453.34 325.383H452.648V331.062H453.34V325.383Z" fill="#FFA412"/>
<path d="M450.996 325.383H450.305V331.062H450.996V325.383Z" fill="#FFA412"/>
<path d="M448.192 325.383H447.5V331.062H448.192V325.383Z" fill="#FFA412"/>
<path d="M443.895 325.383H443.203V331.062H443.895V325.383Z" fill="#FFA412"/>
<path d="M439.34 325.383H438.648V331.062H439.34V325.383Z" fill="#FFA412"/>
<path d="M432.371 325.383H431.68V331.062H432.371V325.383Z" fill="#FFA412"/>
<path d="M425.84 325.383H425.148V331.062H425.84V325.383Z" fill="#FFA412"/>
<path d="M420.012 325.383H419.32V331.062H420.012V325.383Z" fill="#FFA412"/>
<path d="M455.566 325.383H454.875V331.062H455.566V325.383Z" fill="#FFA412"/>
<path d="M457.035 325.383H456.344V331.062H457.035V325.383Z" fill="#FFA412"/>
<path d="M458.457 325.383H457.766V331.062H458.457V325.383Z" fill="#FFA412"/>
<path d="M459.527 325.405V331.043C459.442 331.055 459.358 331.062 459.268 331.062H458.836V325.383H459.268C459.358 325.385 459.442 325.393 459.527 325.405Z" fill="#FFA412"/>
<path d="M460.488 325.93V330.517C460.321 330.726 460.081 330.888 459.797 330.981V325.469C460.081 325.559 460.321 325.723 460.488 325.93Z" fill="#FFA412"/>
<path d="M456.267 320.948V324.153C456.267 324.41 456.175 324.645 456.018 324.842C455.85 325.051 455.61 325.216 455.326 325.305C455.241 325.334 455.149 325.354 455.057 325.368C455.028 325.373 455.001 325.378 454.972 325.38H454.96C454.945 325.383 454.928 325.385 454.914 325.385C454.902 325.388 454.889 325.388 454.875 325.39C454.848 325.39 454.824 325.393 454.797 325.393H393.973C393.189 325.393 392.541 324.871 392.502 324.221C392.5 324.199 392.5 324.18 392.5 324.155V320.951C392.5 320.929 392.5 320.907 392.502 320.885C392.502 320.868 392.505 320.851 392.505 320.834C392.563 320.313 393.017 319.878 393.609 319.752C393.621 319.75 393.638 319.745 393.652 319.742C393.754 319.723 393.861 319.711 393.973 319.711H454.797C454.843 319.711 454.885 319.713 454.928 319.716C454.948 319.718 454.967 319.718 454.984 319.721C454.987 319.721 454.987 319.721 454.989 319.721H454.991C455.013 319.723 455.037 319.726 455.059 319.73C455.152 319.742 455.241 319.764 455.329 319.793C455.612 319.886 455.853 320.048 456.02 320.257C456.178 320.456 456.267 320.691 456.267 320.948Z" fill="#FFB93E"/>
<path d="M426.399 325.393H393.815C393.114 325.393 392.539 324.871 392.502 324.221C392.5 324.199 392.5 324.18 392.5 324.155V320.951C392.5 320.929 392.5 320.907 392.502 320.885C392.502 320.868 392.505 320.851 392.505 320.834C392.558 320.298 392.978 319.861 393.526 319.745C393.543 319.74 393.563 319.735 393.582 319.733C393.657 319.721 393.737 319.711 393.815 319.711H422.398C422.401 319.725 422.405 319.738 422.41 319.752C422.871 321.416 423.936 323.699 426.387 325.381C426.389 325.388 426.394 325.39 426.399 325.393Z" fill="#FFA412"/>
<path d="M448.871 319.711H448.18V325.39H448.871V319.711Z" fill="#FFA412"/>
<path d="M446.527 319.711H445.836V325.39H446.527V319.711Z" fill="#FFA412"/>
<path d="M443.723 319.711H443.031V325.39H443.723V319.711Z" fill="#FFA412"/>
<path d="M439.426 319.711H438.734V325.39H439.426V319.711Z" fill="#FFA412"/>
<path d="M434.879 319.711H434.188V325.39H434.879V319.711Z" fill="#FFA412"/>
<path d="M427.902 319.711H427.211V325.39H427.902V319.711Z" fill="#FFA412"/>
<path d="M421.371 319.711H420.68V325.39H421.371V319.711Z" fill="#FFA412"/>
<path d="M415.543 319.711H414.852V325.39H415.543V319.711Z" fill="#FFA412"/>
<path d="M451.098 319.711H450.406V325.39H451.098V319.711Z" fill="#FFA412"/>
<path d="M452.574 319.711H451.883V325.39H452.574V319.711Z" fill="#FFA412"/>
<path d="M453.988 319.711H453.297V325.39H453.988V319.711Z" fill="#FFA412"/>
<path d="M455.059 319.733V325.371C454.974 325.383 454.889 325.39 454.799 325.39H454.367V319.711H454.799C454.889 319.713 454.974 319.721 455.059 319.733Z" fill="#FFA412"/>
<path d="M456.02 320.258V324.845C455.852 325.054 455.612 325.217 455.328 325.309V319.797C455.61 319.887 455.852 320.052 456.02 320.258Z" fill="#FFA412"/>
<path d="M456.14 315.31V318.515C456.14 318.772 456.047 319.007 455.89 319.204C455.848 319.255 455.8 319.303 455.751 319.352C455.599 319.488 455.412 319.599 455.198 319.667C455.13 319.689 455.06 319.708 454.99 319.721H454.987C454.985 319.721 454.985 319.721 454.982 319.721C454.963 319.723 454.946 319.728 454.927 319.73C454.844 319.742 454.754 319.752 454.667 319.752H393.84C393.777 319.752 393.714 319.747 393.651 319.74C393.626 319.737 393.602 319.735 393.578 319.73C392.959 319.636 392.469 319.211 392.382 318.685C392.377 318.648 392.372 318.614 392.37 318.578C392.367 318.556 392.367 318.534 392.367 318.512V315.308C392.367 315.286 392.367 315.264 392.37 315.242C392.372 315.203 392.377 315.162 392.382 315.123C392.491 314.531 393.105 314.07 393.837 314.07H454.665C454.703 314.07 454.742 314.073 454.781 314.075C454.786 314.075 454.793 314.078 454.796 314.078C454.808 314.08 454.817 314.08 454.83 314.08C454.846 314.082 454.866 314.085 454.885 314.087C454.897 314.087 454.91 314.09 454.924 314.092C455.016 314.104 455.108 314.126 455.193 314.155C455.244 314.172 455.295 314.192 455.341 314.211H455.344C455.533 314.296 455.698 314.412 455.831 314.553C455.851 314.575 455.87 314.594 455.887 314.616C456.045 314.815 456.14 315.053 456.14 315.31Z" fill="#FFB93E"/>
<path d="M426.273 319.75H393.687C393.663 319.75 393.637 319.747 393.612 319.747C393.583 319.745 393.556 319.742 393.53 319.74C392.94 319.67 392.47 319.233 392.39 318.685C392.385 318.648 392.38 318.614 392.377 318.578C392.375 318.556 392.375 318.534 392.375 318.512V315.308C392.375 315.286 392.375 315.264 392.377 315.242C392.38 315.203 392.385 315.162 392.39 315.123C392.397 315.077 392.411 315.031 392.426 314.987C392.576 314.463 393.083 314.07 393.687 314.07H422.273C422.285 314.119 422.297 314.163 422.314 314.211C422.787 315.856 423.845 318.064 426.218 319.708C426.235 319.723 426.254 319.735 426.273 319.75Z" fill="#FFA412"/>
<path d="M448.738 314.07H448.047V319.75H448.738V314.07Z" fill="#FFA412"/>
<path d="M446.395 314.07H445.703V319.75H446.395V314.07Z" fill="#FFA412"/>
<path d="M443.59 314.07H442.898V319.75H443.59V314.07Z" fill="#FFA412"/>
<path d="M439.293 314.07H438.602V319.75H439.293V314.07Z" fill="#FFA412"/>
<path d="M434.738 314.07H434.047V319.75H434.738V314.07Z" fill="#FFA412"/>
<path d="M427.77 314.07H427.078V319.75H427.77V314.07Z" fill="#FFA412"/>
<path d="M421.238 314.07H420.547V319.75H421.238V314.07Z" fill="#FFA412"/>
<path d="M415.41 314.07H414.719V319.75H415.41V314.07Z" fill="#FFA412"/>
<path d="M450.965 314.07H450.273V319.75H450.965V314.07Z" fill="#FFA412"/>
<path d="M452.434 314.07H451.742V319.75H452.434V314.07Z" fill="#FFA412"/>
<path d="M453.855 314.07H453.164V319.75H453.855V314.07Z" fill="#FFA412"/>
<path d="M454.926 314.092V319.73C454.841 319.742 454.754 319.75 454.666 319.75H454.234V314.07H454.666C454.756 314.07 454.841 314.078 454.926 314.092Z" fill="#FFA412"/>
<path d="M455.887 314.617V319.205C455.719 319.413 455.479 319.576 455.195 319.668V314.156C455.479 314.246 455.719 314.411 455.887 314.617Z" fill="#FFA412"/>
<path d="M459.283 309.773V312.978C459.283 313.235 459.191 313.473 459.031 313.67C458.864 313.876 458.623 314.041 458.342 314.13C458.257 314.16 458.165 314.179 458.073 314.194C457.99 314.206 457.903 314.213 457.815 314.213H396.988C396.746 314.213 396.513 314.162 396.309 314.072C395.906 313.895 395.61 313.565 395.533 313.175C395.528 313.148 395.525 313.121 395.52 313.095C395.518 313.075 395.518 313.058 395.518 313.039C395.516 313.017 395.516 312.998 395.516 312.973V309.769C395.516 309.747 395.516 309.725 395.518 309.703C395.52 309.662 395.523 309.623 395.53 309.584C395.639 308.992 396.253 308.531 396.986 308.531H457.813C457.9 308.531 457.988 308.539 458.07 308.553C458.162 308.565 458.255 308.587 458.34 308.616C458.623 308.708 458.864 308.871 459.028 309.08C459.191 309.281 459.283 309.516 459.283 309.773Z" fill="#FFB93E"/>
<path d="M429.414 314.213H396.828C396.61 314.213 396.404 314.162 396.224 314.072C395.863 313.895 395.598 313.565 395.533 313.175C395.528 313.148 395.525 313.121 395.52 313.095C395.518 313.075 395.518 313.058 395.518 313.039C395.516 313.017 395.516 312.997 395.516 312.973V309.769C395.516 309.747 395.516 309.725 395.518 309.703C395.52 309.662 395.523 309.623 395.53 309.584C395.537 309.538 395.55 309.494 395.564 309.453C395.712 308.927 396.222 308.531 396.828 308.531H425.414C425.858 310.159 426.877 312.391 429.215 314.07C429.278 314.121 429.346 314.167 429.414 314.213Z" fill="#FFA412"/>
<path d="M451.887 308.539H451.195V314.218H451.887V308.539Z" fill="#FFA412"/>
<path d="M449.543 308.539H448.852V314.218H449.543V308.539Z" fill="#FFA412"/>
<path d="M446.738 308.539H446.047V314.218H446.738V308.539Z" fill="#FFA412"/>
<path d="M442.441 308.539H441.75V314.218H442.441V308.539Z" fill="#FFA412"/>
<path d="M437.887 308.539H437.195V314.218H437.887V308.539Z" fill="#FFA412"/>
<path d="M430.918 308.539H430.227V314.218H430.918V308.539Z" fill="#FFA412"/>
<path d="M424.387 308.539H423.695V314.218H424.387V308.539Z" fill="#FFA412"/>
<path d="M418.559 308.539H417.867V314.218H418.559V308.539Z" fill="#FFA412"/>
<path d="M454.113 308.539H453.422V314.218H454.113V308.539Z" fill="#FFA412"/>
<path d="M455.582 308.539H454.891V314.218H455.582V308.539Z" fill="#FFA412"/>
<path d="M457.004 308.539H456.312V314.218H457.004V308.539Z" fill="#FFA412"/>
<path d="M458.074 308.561V314.199C457.989 314.211 457.904 314.218 457.815 314.218H457.383V308.539H457.815C457.902 308.539 457.989 308.546 458.074 308.561Z" fill="#FFA412"/>
<path d="M459.035 309.086V313.674C458.868 313.882 458.628 314.045 458.344 314.137V308.625C458.628 308.715 458.868 308.88 459.035 309.086Z" fill="#FFA412"/>
<path d="M464.252 304.1V307.307C464.252 307.562 464.16 307.797 464.002 307.996L464 307.998C463.978 308.025 463.956 308.049 463.934 308.073C463.842 308.173 463.733 308.258 463.609 308.328C463.548 308.362 463.483 308.394 463.415 308.42C463.413 308.42 463.413 308.423 463.413 308.423C463.381 308.435 463.347 308.449 463.311 308.462C463.226 308.491 463.134 308.51 463.041 308.525C462.959 308.537 462.869 308.544 462.782 308.544H401.955C401.222 308.544 400.608 308.086 400.499 307.494C400.492 307.452 400.487 307.414 400.487 307.372C400.484 307.35 400.484 307.331 400.484 307.309V304.102C400.484 304.08 400.484 304.061 400.487 304.039C400.523 303.437 401.079 302.947 401.782 302.877C401.841 302.87 401.896 302.867 401.955 302.867H462.782C462.869 302.867 462.956 302.874 463.041 302.887C463.134 302.901 463.226 302.923 463.311 302.952C463.558 303.032 463.769 303.166 463.934 303.338C463.956 303.362 463.98 303.386 464 303.413L464.002 303.415C464.16 303.61 464.252 303.845 464.252 304.1Z" fill="#FFB93E"/>
<path d="M434.383 308.536H401.797C401.19 308.536 400.681 308.143 400.533 307.617C400.518 307.573 400.506 307.529 400.499 307.486C400.492 307.445 400.487 307.406 400.487 307.364C400.484 307.343 400.484 307.323 400.484 307.301V304.094C400.484 304.072 400.484 304.053 400.487 304.031C400.518 303.429 401.016 302.939 401.642 302.869C401.693 302.862 401.743 302.859 401.797 302.859H430.382C430.382 302.862 430.385 302.864 430.385 302.869C430.841 304.538 431.904 306.845 434.383 308.536Z" fill="#FFA412"/>
<path d="M456.856 302.859H456.164V308.539H456.856V302.859Z" fill="#FFA412"/>
<path d="M454.512 302.859H453.82V308.539H454.512V302.859Z" fill="#FFA412"/>
<path d="M451.707 302.859H451.016V308.539H451.707V302.859Z" fill="#FFA412"/>
<path d="M447.41 302.859H446.719V308.539H447.41V302.859Z" fill="#FFA412"/>
<path d="M442.856 302.859H442.164V308.539H442.856V302.859Z" fill="#FFA412"/>
<path d="M435.887 302.859H435.195V308.539H435.887V302.859Z" fill="#FFA412"/>
<path d="M429.355 302.859H428.664V308.539H429.355V302.859Z" fill="#FFA412"/>
<path d="M423.527 302.859H422.836V308.539H423.527V302.859Z" fill="#FFA412"/>
<path d="M459.082 302.859H458.391V308.539H459.082V302.859Z" fill="#FFA412"/>
<path d="M460.551 302.859H459.859V308.539H460.551V302.859Z" fill="#FFA412"/>
<path d="M461.973 302.859H461.281V308.539H461.973V302.859Z" fill="#FFA412"/>
<path d="M463.043 302.881V308.519C462.958 308.531 462.871 308.539 462.783 308.539H462.352V302.859H462.783C462.871 302.862 462.958 302.869 463.043 302.881Z" fill="#FFA412"/>
<path d="M464.004 303.406V307.994C463.837 308.202 463.596 308.365 463.312 308.457V302.945C463.596 303.035 463.837 303.198 464.004 303.406Z" fill="#FFA412"/>
<path d="M456.262 298.427V301.632C456.262 301.889 456.17 302.124 456.012 302.321C455.845 302.53 455.605 302.695 455.321 302.784C455.236 302.813 455.144 302.833 455.052 302.847C455.022 302.852 454.996 302.855 454.967 302.86H454.954C454.935 302.864 454.916 302.864 454.896 302.864C454.884 302.864 454.874 302.867 454.862 302.867C454.838 302.867 454.816 302.869 454.79 302.869H393.965C393.436 302.869 392.97 302.634 392.713 302.28C392.587 302.107 392.507 301.909 392.495 301.697C392.492 301.676 392.492 301.654 392.492 301.632V298.427C392.492 298.405 392.492 298.384 392.495 298.362C392.526 297.835 392.958 297.391 393.538 297.243C393.674 297.207 393.817 297.188 393.965 297.188H454.79C454.816 297.188 454.84 297.19 454.867 297.19C454.882 297.19 454.894 297.192 454.906 297.195C454.954 297.197 455.003 297.202 455.049 297.209C455.141 297.221 455.231 297.243 455.318 297.272C455.362 297.285 455.403 297.302 455.445 297.321H455.447C455.609 297.386 455.753 297.479 455.872 297.588C455.874 297.59 455.876 297.593 455.876 297.595C455.881 297.6 455.889 297.605 455.893 297.61C455.935 297.648 455.973 297.69 456.01 297.733C456.172 297.932 456.262 298.17 456.262 298.427Z" fill="#FFB93E"/>
<path d="M426.399 302.867H393.815C393.356 302.867 392.951 302.644 392.716 302.306C392.59 302.127 392.512 301.918 392.502 301.695C392.5 301.673 392.5 301.651 392.5 301.63V298.425C392.5 298.403 392.5 298.381 392.502 298.359C392.534 297.794 392.973 297.326 393.548 297.214C393.633 297.197 393.723 297.188 393.815 297.188H422.398C422.41 297.231 422.422 297.275 422.437 297.319C422.91 298.975 423.98 301.207 426.387 302.857C426.389 302.86 426.394 302.862 426.399 302.867Z" fill="#FFA412"/>
<path d="M448.863 297.188H448.172V302.867H448.863V297.188Z" fill="#FFA412"/>
<path d="M446.519 297.188H445.828V302.867H446.519V297.188Z" fill="#FFA412"/>
<path d="M443.715 297.188H443.023V302.867H443.715V297.188Z" fill="#FFA412"/>
<path d="M439.418 297.188H438.727V302.867H439.418V297.188Z" fill="#FFA412"/>
<path d="M434.871 297.188H434.18V302.867H434.871V297.188Z" fill="#FFA412"/>
<path d="M427.895 297.188H427.203V302.867H427.895V297.188Z" fill="#FFA412"/>
<path d="M421.363 297.188H420.672V302.867H421.363V297.188Z" fill="#FFA412"/>
<path d="M415.535 297.188H414.844V302.867H415.535V297.188Z" fill="#FFA412"/>
<path d="M451.09 297.188H450.398V302.867H451.09V297.188Z" fill="#FFA412"/>
<path d="M452.566 297.188H451.875V302.867H452.566V297.188Z" fill="#FFA412"/>
<path d="M453.981 297.188H453.289V302.867H453.981V297.188Z" fill="#FFA412"/>
<path d="M455.051 297.207V302.845C454.966 302.857 454.881 302.864 454.791 302.864H454.359V297.188H454.791C454.881 297.188 454.966 297.195 455.051 297.207Z" fill="#FFA412"/>
<path d="M456.012 297.734V302.322C455.844 302.531 455.604 302.693 455.32 302.785V297.273C455.602 297.363 455.844 297.526 456.012 297.734Z" fill="#FFA412"/>
<path d="M460.739 292.878V296.085C460.739 296.34 460.646 296.578 460.486 296.774C460.319 296.983 460.079 297.145 459.795 297.237C459.708 297.267 459.618 297.288 459.526 297.3C459.441 297.313 459.356 297.32 459.266 297.32H398.441C398.206 297.32 397.98 297.274 397.784 297.189C397.34 297.002 397.022 296.631 396.976 296.199C396.974 296.182 396.974 296.165 396.971 296.148C396.971 296.126 396.969 296.107 396.969 296.085V292.878C396.969 292.856 396.969 292.837 396.971 292.815C397.008 292.213 397.563 291.721 398.267 291.65C398.322 291.643 398.381 291.641 398.441 291.641H459.266C459.356 291.641 459.441 291.648 459.526 291.66C459.618 291.675 459.708 291.694 459.795 291.723C460.076 291.815 460.319 291.978 460.486 292.186C460.646 292.385 460.739 292.621 460.739 292.878Z" fill="#FFB93E"/>
<path d="M430.87 297.32H398.284C398.073 297.32 397.874 297.274 397.697 297.189C397.301 297.002 397.017 296.631 396.976 296.199C396.974 296.182 396.974 296.165 396.971 296.148C396.971 296.126 396.969 296.107 396.969 296.085V292.878C396.969 292.856 396.969 292.837 396.971 292.815C397.003 292.213 397.5 291.721 398.128 291.65C398.179 291.643 398.23 291.641 398.284 291.641H426.867C426.867 291.643 426.869 291.648 426.869 291.65C427.316 293.278 428.337 295.51 430.681 297.189C430.744 297.233 430.807 297.276 430.87 297.32Z" fill="#FFA412"/>
<path d="M453.34 291.641H452.648V297.32H453.34V291.641Z" fill="#FFA412"/>
<path d="M450.996 291.641H450.305V297.32H450.996V291.641Z" fill="#FFA412"/>
<path d="M448.192 291.641H447.5V297.32H448.192V291.641Z" fill="#FFA412"/>
<path d="M443.895 291.641H443.203V297.32H443.895V291.641Z" fill="#FFA412"/>
<path d="M439.34 291.641H438.648V297.32H439.34V291.641Z" fill="#FFA412"/>
<path d="M432.371 291.641H431.68V297.32H432.371V291.641Z" fill="#FFA412"/>
<path d="M425.84 291.641H425.148V297.32H425.84V291.641Z" fill="#FFA412"/>
<path d="M420.012 291.641H419.32V297.32H420.012V291.641Z" fill="#FFA412"/>
<path d="M455.566 291.641H454.875V297.32H455.566V291.641Z" fill="#FFA412"/>
<path d="M457.035 291.641H456.344V297.32H457.035V291.641Z" fill="#FFA412"/>
<path d="M458.457 291.641H457.766V297.32H458.457V291.641Z" fill="#FFA412"/>
<path d="M459.527 291.662V297.3C459.442 297.313 459.358 297.32 459.268 297.32H458.836V291.641H459.268C459.358 291.643 459.442 291.65 459.527 291.662Z" fill="#FFA412"/>
<path d="M460.488 292.188V296.775C460.321 296.984 460.081 297.146 459.797 297.238V291.727C460.081 291.816 460.321 291.981 460.488 292.188Z" fill="#FFA412"/>
<path d="M462.645 287.211V290.419C462.645 290.673 462.553 290.911 462.393 291.108C462.225 291.316 461.985 291.479 461.701 291.571C461.614 291.6 461.524 291.622 461.432 291.634C461.403 291.639 461.376 291.641 461.347 291.644C461.332 291.644 461.315 291.646 461.298 291.649C461.284 291.651 461.267 291.651 461.25 291.651C461.223 291.653 461.199 291.653 461.172 291.653H400.348C399.564 291.653 398.919 291.132 398.877 290.482C398.877 290.46 398.875 290.44 398.875 290.419V287.211C398.875 287.19 398.875 287.17 398.877 287.148C398.916 286.498 399.564 285.977 400.348 285.977H461.172C461.262 285.977 461.347 285.984 461.432 285.996C461.524 286.011 461.614 286.03 461.701 286.059C461.983 286.151 462.225 286.314 462.393 286.522C462.55 286.719 462.645 286.954 462.645 287.211Z" fill="#FFB93E"/>
<path d="M432.776 291.653H400.19C399.491 291.653 398.914 291.132 398.877 290.482C398.877 290.46 398.875 290.44 398.875 290.419V287.211C398.875 287.19 398.875 287.17 398.877 287.148C398.914 286.498 399.491 285.977 400.19 285.977H428.775C429.232 287.646 430.292 289.953 432.764 291.646C432.766 291.646 432.771 291.651 432.776 291.653Z" fill="#FFA412"/>
<path d="M455.246 285.969H454.555V291.648H455.246V285.969Z" fill="#FFA412"/>
<path d="M452.902 285.969H452.211V291.648H452.902V285.969Z" fill="#FFA412"/>
<path d="M450.098 285.969H449.406V291.648H450.098V285.969Z" fill="#FFA412"/>
<path d="M445.801 285.969H445.109V291.648H445.801V285.969Z" fill="#FFA412"/>
<path d="M441.254 285.969H440.562V291.648H441.254V285.969Z" fill="#FFA412"/>
<path d="M434.277 285.969H433.586V291.648H434.277V285.969Z" fill="#FFA412"/>
<path d="M427.746 285.969H427.055V291.648H427.746V285.969Z" fill="#FFA412"/>
<path d="M421.918 285.969H421.227V291.648H421.918V285.969Z" fill="#FFA412"/>
<path d="M457.473 285.969H456.781V291.648H457.473V285.969Z" fill="#FFA412"/>
<path d="M458.949 285.969H458.258V291.648H458.949V285.969Z" fill="#FFA412"/>
<path d="M460.363 285.969H459.672V291.648H460.363V285.969Z" fill="#FFA412"/>
<path d="M461.434 285.991V291.629C461.349 291.641 461.264 291.648 461.174 291.648H460.742V285.969H461.174C461.264 285.971 461.349 285.978 461.434 285.991Z" fill="#FFA412"/>
<path d="M462.395 286.516V291.103C462.227 291.312 461.987 291.474 461.703 291.567V286.055C461.985 286.144 462.227 286.309 462.395 286.516Z" fill="#FFA412"/>
<path d="M443.359 253.611C443.359 253.611 440.164 258.109 437.236 258.172C434.308 258.235 429.851 256.088 429.851 256.088C429.851 256.088 427.163 250.096 428.985 247.75C428.985 247.75 430.814 246.947 432.726 248.364C433.053 248.609 433.388 248.917 433.716 249.312C434.179 249.87 434.701 250.188 435.254 250.356C437.345 250.991 439.824 249.497 440.754 250.94C441.295 251.78 441.884 252.41 442.369 252.852C442.942 253.361 443.359 253.611 443.359 253.611Z" fill="#FFEDDC"/>
<path d="M401.711 286.054C401.711 286.054 413.004 258.693 433.329 258.172C433.329 258.172 452.092 260.256 453.133 286.054H401.711Z" fill="#FFEDDC"/>
<path d="M427.759 259.009C427.759 259.009 435.905 260.822 438.419 259.757C438.419 259.757 438.8 256.35 435.367 256.828C433.018 257.156 431.49 256.028 430.59 255.569C429.316 254.919 427.419 257.583 427.759 259.009Z" fill="#DB6A1D"/>
<path d="M434.847 253.869C434.325 254.259 432.727 248.359 432.727 248.359C433.054 248.604 433.389 248.913 433.716 249.308C434.18 249.866 434.701 250.184 435.254 250.351C435.259 250.523 435.354 253.488 434.847 253.869Z" fill="#E5C1A1"/>
<path d="M442.371 252.852C442.257 252.92 438.49 255.176 437.978 255.176C437.456 255.176 440.756 250.938 440.756 250.938C441.299 251.779 441.886 252.408 442.371 252.852Z" fill="#E5C1A1"/>
<path d="M412.738 278.414C412.53 278.234 420.73 266.339 422.988 266.252C425.247 266.165 430.319 268.858 433.995 269.205C437.668 269.551 441.229 268.511 441.925 270.682C442.619 272.853 444.531 280.551 443.359 281.783C442.185 283.016 417.248 282.266 412.738 278.414Z" fill="#F9DDBF"/>
<path opacity="0.5" d="M420.465 319.713C420.463 319.728 420.463 319.743 420.46 319.755C420.354 321.662 420.048 323.547 419.548 325.383C419.548 325.385 419.546 325.388 419.546 325.393C419.473 325.66 419.398 325.924 419.315 326.188C418.806 327.865 418.136 329.498 417.311 331.062C416.276 333.03 414.999 334.891 413.49 336.598C413.449 336.647 413.408 336.693 413.367 336.739C411.482 338.85 409.245 340.725 406.686 342.278C406.147 342.605 405.594 342.921 405.024 343.219C404.64 343.42 404.255 343.61 403.866 343.794C403.495 344.007 403.105 344.192 402.736 344.42C401.664 345.075 400.327 345.597 398.871 346.011V343.515C398.871 343.493 398.874 343.474 398.874 343.452C398.876 343.411 398.881 343.369 398.886 343.331C398.896 343.285 398.908 343.238 398.922 343.195C399.075 342.671 399.582 342.28 400.186 342.28H393.682C393.078 342.28 392.571 341.887 392.421 341.363C392.406 341.319 392.394 341.273 392.384 341.227C392.379 341.188 392.372 341.147 392.372 341.108C392.37 341.087 392.37 341.067 392.37 341.043V337.838C392.37 337.816 392.37 337.794 392.372 337.773C392.374 337.731 392.379 337.693 392.384 337.654C392.391 337.608 392.406 337.562 392.421 337.518C392.571 336.994 393.078 336.601 393.682 336.601H396.22C395.858 336.424 395.594 336.094 395.528 335.703C395.523 335.677 395.521 335.65 395.516 335.623C395.514 335.606 395.514 335.587 395.514 335.567C395.511 335.546 395.511 335.526 395.511 335.504V332.297C395.511 332.275 395.511 332.256 395.514 332.234C395.516 332.195 395.519 332.152 395.526 332.115C395.533 332.069 395.545 332.025 395.56 331.982C395.708 331.453 396.217 331.062 396.824 331.062H398.282C397.678 331.062 397.168 330.669 397.018 330.145C397.003 330.102 396.991 330.056 396.981 330.009C396.977 329.968 396.969 329.929 396.969 329.891V326.555C397.003 325.956 397.498 325.463 398.127 325.393H393.811C393.11 325.393 392.535 324.871 392.498 324.221C392.496 324.199 392.496 324.18 392.496 324.155V320.951C392.496 320.929 392.496 320.907 392.498 320.885C392.498 320.868 392.501 320.851 392.501 320.834C392.554 320.298 392.974 319.861 393.522 319.745C392.932 319.675 392.462 319.238 392.382 318.69C392.377 318.653 392.372 318.619 392.37 318.583C392.367 318.561 392.367 318.539 392.367 318.517V315.313C392.367 315.291 392.367 315.269 392.37 315.247C392.372 315.208 392.377 315.167 392.382 315.128C392.389 315.082 392.404 315.036 392.418 314.992C392.569 314.468 393.076 314.075 393.68 314.075H396.217C395.856 313.898 395.591 313.568 395.526 313.178C395.521 313.151 395.519 313.124 395.514 313.098C395.511 313.078 395.511 313.061 395.511 313.042C395.509 313.02 395.509 313.001 395.509 312.976V309.772C395.509 309.75 395.509 309.728 395.511 309.706C395.514 309.665 395.516 309.626 395.523 309.587C395.531 309.541 395.543 309.498 395.557 309.456C395.705 308.93 396.215 308.534 396.821 308.534H401.792C401.186 308.534 400.676 308.141 400.528 307.615C400.514 307.571 400.502 307.528 400.494 307.484C400.487 307.443 400.482 307.404 400.482 307.363C400.48 307.341 400.48 307.321 400.48 307.3V304.092C400.48 304.071 400.48 304.051 400.482 304.029C400.514 303.428 401.011 302.938 401.637 302.867H393.808C393.35 302.867 392.945 302.644 392.709 302.307L392.714 302.278L393.539 297.244L393.541 297.215L394.716 290.031C396.079 290.213 397.425 290.485 398.745 290.842C398.823 290.863 398.898 290.883 398.978 290.905C398.983 290.907 398.988 290.909 398.993 290.909C399.762 291.123 400.523 291.368 401.271 291.642C401.278 291.645 401.283 291.647 401.292 291.649C404.74 292.906 407.949 294.769 410.737 297.188C410.785 297.229 410.836 297.273 410.883 297.319C412.331 298.59 413.66 300.014 414.842 301.584C415.08 301.897 415.31 302.212 415.531 302.535C415.606 302.642 415.679 302.748 415.749 302.855C415.754 302.858 415.754 302.86 415.754 302.865C416.113 303.396 416.453 303.937 416.775 304.498C417.537 305.815 418.178 307.164 418.699 308.534C419.395 310.354 419.885 312.207 420.174 314.073C420.184 314.121 420.189 314.165 420.196 314.214C420.48 316.05 420.562 317.892 420.465 319.713Z" fill="#E2810E"/>
<path d="M357.637 331.227C349.66 316.756 354.924 298.559 369.396 290.582C383.867 282.605 402.064 287.87 410.041 302.341C418.018 316.812 412.753 335.009 398.284 342.986C383.811 350.96 365.613 345.696 357.637 331.227Z" fill="#E2810E"/>
<path d="M397.118 343.591C396.749 343.816 396.376 344.032 395.995 344.243C395.866 344.314 395.738 344.384 395.607 344.452C395.311 344.61 395.017 344.76 394.719 344.908C380.471 351.905 363.093 346.536 355.347 332.485C347.96 319.083 351.931 302.485 364.052 293.768C365.02 293.072 366.036 292.426 367.103 291.839C367.487 291.628 367.875 291.424 368.263 291.233C368.639 291.044 369.022 290.866 369.403 290.697C370.575 290.175 371.764 289.734 372.967 289.374C374.753 288.836 376.567 288.474 378.384 288.283C384.02 287.686 389.69 288.715 394.719 291.175C400.053 293.782 404.665 298.001 407.751 303.598C415.517 317.688 410.733 335.308 397.118 343.591Z" fill="#FFB93E"/>
<path d="M381.762 345.175C379.261 345.175 376.746 344.821 374.276 344.108C367.398 342.118 361.704 337.57 358.25 331.298C354.793 325.027 353.985 317.785 355.974 310.908C357.963 304.03 362.512 298.336 368.783 294.882C381.729 287.744 398.065 292.473 405.203 305.415C412.337 318.36 407.612 334.697 394.666 341.834C390.647 344.047 386.229 345.175 381.762 345.175ZM381.68 292.276C377.425 292.276 373.114 293.317 369.13 295.512C363.029 298.875 358.601 304.413 356.665 311.107C354.73 317.8 355.516 324.845 358.878 330.947C362.24 337.048 367.779 341.475 374.472 343.411C381.166 345.347 388.211 344.561 394.312 341.196C406.908 334.253 411.508 318.356 404.562 305.76C399.819 297.15 390.884 292.276 381.68 292.276Z" fill="#FFA412"/>
<path d="M394.903 320.958C394.844 320.81 394.781 320.667 394.718 320.528C394.233 319.461 393.629 318.597 392.903 317.935C392.084 317.188 391.133 316.627 390.046 316.254C388.961 315.88 387.751 315.652 386.416 315.572C385.082 315.489 383.626 315.47 382.057 315.516C381.086 315.545 380.257 315.528 379.568 315.465C378.879 315.402 378.294 315.274 377.816 315.082C377.336 314.89 376.945 314.626 376.647 314.289C376.346 313.954 376.101 313.546 375.904 313.063C375.708 312.581 375.596 312.1 375.567 311.625C375.538 311.152 375.608 310.701 375.781 310.271C375.951 309.844 376.23 309.451 376.615 309.09C376.999 308.728 377.508 308.418 378.141 308.161C379.308 307.685 380.397 307.697 381.409 308.192C382.421 308.687 383.243 309.718 383.879 311.285L389.975 308.811C389.444 307.506 388.779 306.402 387.981 305.502C387.183 304.602 386.283 303.908 385.279 303.415C384.277 302.925 383.185 302.636 382.006 302.554C380.827 302.472 379.599 302.595 378.328 302.93L376.601 298.68L373.226 300.05L374.927 304.243C373.709 304.873 372.678 305.608 371.829 306.448C370.982 307.287 370.332 308.194 369.876 309.17C369.42 310.147 369.182 311.171 369.158 312.246C369.136 313.321 369.349 314.412 369.801 315.521C370.32 316.802 370.989 317.816 371.809 318.563C372.629 319.31 373.58 319.868 374.662 320.235C375.744 320.601 376.955 320.822 378.294 320.892C379.633 320.965 381.091 320.963 382.663 320.887C383.575 320.836 384.369 320.841 385.041 320.904C385.713 320.965 386.293 321.096 386.783 321.292C387.273 321.489 387.678 321.766 388.003 322.12C388.328 322.474 388.602 322.928 388.823 323.476C389.019 323.961 389.117 324.441 389.114 324.922C389.114 325.402 389.005 325.861 388.789 326.297C388.573 326.734 388.25 327.139 387.821 327.513C387.392 327.884 386.846 328.204 386.183 328.473C385.606 328.706 385.012 328.862 384.395 328.939C383.779 329.014 383.178 328.954 382.591 328.757C382.003 328.563 381.455 328.207 380.943 327.692C380.431 327.178 379.985 326.457 379.611 325.531L373.517 328.005C374.153 329.572 374.953 330.815 375.914 331.732C376.877 332.649 377.93 333.306 379.073 333.702C380.215 334.097 381.411 334.269 382.661 334.218C383.91 334.167 385.143 333.966 386.356 333.607L387.93 337.486L391.283 336.125L389.701 332.229C390.919 331.598 391.962 330.868 392.831 330.046C393.636 329.284 394.264 328.461 394.718 327.581C394.755 327.51 394.791 327.438 394.825 327.365C395.283 326.404 395.531 325.383 395.56 324.306C395.587 323.221 395.368 322.108 394.903 320.958Z" fill="#FFA412"/>
<g opacity="0.7">
<g opacity="0.7">
<path opacity="0.7" d="M595.27 314.91C595.27 314.91 601.019 308.202 595.624 303.942C595.624 303.942 591.684 301.558 588.469 301.749C588.469 301.749 593.023 309.384 591.551 310.143C590.078 310.902 587.091 301.269 587.091 301.269C587.091 301.269 578.125 300.4 575.24 301.786C575.24 301.786 582.907 308.059 581.291 308.433C579.678 308.806 571.395 302.649 571.395 302.649C571.395 302.649 563.05 304.068 563.494 309.161C563.938 314.253 566.815 315.825 568.079 315.689C569.343 315.553 576.737 312.732 576.897 313.768C577.057 314.804 572.608 318.188 569.491 318.345C569.491 318.345 575.374 324.835 579.287 322.962C583.198 321.089 583.533 318.12 585.968 317.006C588.406 315.893 590.488 315.895 589.481 317.031C588.474 318.166 584.064 319.27 582.669 321.735C581.274 324.199 580.025 325.864 584.071 325.255C588.118 324.646 594.695 321.686 594.983 318.295C595.27 314.91 595.27 314.91 595.27 314.91Z" fill="#77A4E5"/>
<g opacity="0.7">
<path opacity="0.7" d="M567.594 309.305C567.594 309.305 590.262 308.432 595.27 314.914C595.27 314.914 596.376 318.23 599.784 321.248L600.316 322.696C600.316 322.696 596.388 318.555 594.981 318.303C594.981 318.303 597.179 310.273 567.594 309.305Z" fill="#77A4E5"/>
<path opacity="0.7" d="M599.787 321.25C599.787 321.25 604.654 324.847 604.991 331.276L604.108 331.356C604.108 331.356 602.553 324.709 599.746 322.109C596.936 319.51 599.787 321.25 599.787 321.25Z" fill="#77A4E5"/>
</g>
</g>
<g opacity="0.7">
<path opacity="0.7" d="M612.995 309.429C612.995 309.429 604.933 304.914 608.696 298.786C608.696 298.786 611.707 295.023 614.931 294.055C614.931 294.055 613.211 303.191 614.931 303.407C616.651 303.623 616.112 293.087 616.112 293.087C616.112 293.087 624.603 289.002 627.937 289.324C627.937 289.324 622.67 298.247 624.39 298.031C626.11 297.815 632.022 288.786 632.022 288.786C632.022 288.786 640.729 287.172 642.126 292.332C643.524 297.493 641.267 300.071 639.977 300.394C638.686 300.717 630.409 300.61 630.624 301.685C630.84 302.759 636.43 304.479 639.547 303.512C639.547 303.512 636.107 312.003 631.592 311.573C627.078 311.144 625.68 308.349 622.886 308.133C620.091 307.917 618.048 308.672 619.446 309.424C620.843 310.176 625.574 309.671 627.83 311.59C630.088 313.509 631.915 314.691 627.723 315.552C623.531 316.411 616.005 315.874 614.501 312.65C612.995 309.429 612.995 309.429 612.995 309.429Z" fill="#77A4E5"/>
<g opacity="0.7">
<path opacity="0.7" d="M638.148 293.945C638.148 293.945 615.574 301.255 612.993 309.426C612.993 309.426 613.1 313.082 610.844 317.274V318.887C610.844 318.887 613.209 313.404 614.5 312.652C614.5 312.65 609.449 305.556 638.148 293.945Z" fill="#77A4E5"/>
<path opacity="0.7" d="M610.843 317.269C610.843 317.269 607.361 322.555 609.346 328.991L610.241 328.751C610.241 328.751 609.373 321.662 611.192 318.099C613.014 314.532 610.843 317.269 610.843 317.269Z" fill="#77A4E5"/>
</g>
</g>
<g opacity="0.7">
<path opacity="0.7" d="M600.82 299.413C600.82 299.413 612.875 292.662 607.249 283.499C607.249 283.499 602.748 277.873 597.925 276.427C597.925 276.427 600.497 290.09 597.925 290.413C595.354 290.733 596.157 274.981 596.157 274.981C596.157 274.981 583.459 268.872 578.476 269.355C578.476 269.355 586.353 282.696 583.782 282.375C581.21 282.055 572.37 268.552 572.37 268.552C572.37 268.552 559.349 266.141 557.261 273.858C555.172 281.572 558.546 285.432 560.475 285.913C562.404 286.395 574.781 286.235 574.461 287.841C574.138 289.45 565.781 292.021 561.118 290.573C561.118 290.573 566.261 303.271 573.013 302.628C579.764 301.985 581.853 297.805 586.033 297.485C590.213 297.162 593.267 298.288 591.176 299.413C589.087 300.539 582.013 299.782 578.639 302.652C575.264 305.522 572.53 307.29 578.799 308.576C585.068 309.862 596.319 309.059 598.571 304.236C600.82 299.413 600.82 299.413 600.82 299.413Z" fill="#9FC1F4"/>
<g opacity="0.7">
<path opacity="0.7" d="M563.203 276.266C563.203 276.266 596.959 287.197 600.816 299.412C600.816 299.412 600.656 304.878 604.031 311.147V313.558C604.031 313.558 600.493 305.361 598.565 304.235C598.567 304.235 606.122 293.626 563.203 276.266Z" fill="#9FC1F4"/>
<path opacity="0.7" d="M604.035 311.149C604.035 311.149 609.242 319.055 606.272 328.677L604.933 328.318C604.933 328.318 606.233 317.719 603.509 312.389C600.787 307.056 604.035 311.149 604.035 311.149Z" fill="#9FC1F4"/>
</g>
</g>
<path opacity="0.7" d="M600.529 347.388C589.032 347.388 579.711 338.067 579.711 326.57H621.346C621.346 338.067 612.028 347.388 600.529 347.388Z" fill="#9FC1F4"/>
<path opacity="0.7" d="M579.239 327.211H622.031V326.573H579.239V327.211Z" fill="#77A4E5"/>
<path opacity="0.7" d="M609.42 347.388H589.93C589.93 346.466 590.677 345.719 591.599 345.719H607.751C608.673 345.716 609.42 346.466 609.42 347.388Z" fill="#77A4E5"/>
</g>
<path d="M473.646 207.619C446.86 229.429 414.769 246.193 378.263 257.447C348.61 266.586 315.757 272.185 280.613 274.095C271.031 274.616 261.696 274.842 252.71 274.842C234.541 274.842 217.787 273.917 203.188 272.632L209.095 244.682C229.226 246.322 253.27 247.183 279.245 245.773C312.319 243.983 343.122 238.745 370.791 230.218C404.085 219.951 433.207 204.786 457.338 185.133L473.646 207.619Z" fill="#F77D48"/>
<path d="M273.924 151.883C270.2 149.952 267.213 151.165 267.213 151.165C255.816 149.826 252.492 163.118 252.648 167.691C252.801 172.264 253.325 177.177 248.235 183.118C233.533 200.28 264.324 201.037 264.324 201.037C264.584 187.325 281.022 192.327 280.302 193.717C301.369 198.776 282.395 156.277 273.924 151.883Z" fill="#163560"/>
<path d="M229.962 209.045C229.962 209.045 227.959 205.994 226.343 205.935C224.727 205.875 221.736 205.038 221.976 205.637C222.216 206.236 224.07 206.294 224.249 206.653C224.429 207.012 221.498 207.551 220.659 207.612C219.822 207.672 217.847 207.612 217.908 208.031C217.968 208.451 221.467 210.186 223.934 209.945C226.404 209.705 229.453 210.664 229.453 210.664L229.962 209.045Z" fill="#FFB27D"/>
<path d="M258.948 210.031C258.948 210.031 257.859 212.188 255.881 214.667C253.499 217.651 249.828 221.096 245.217 221.775C243.014 222.1 240.859 221.627 238.88 220.746C238.875 220.744 238.873 220.744 238.873 220.744C233.273 218.257 229.062 212.542 229.062 212.542C228.074 209.849 229.69 208.025 229.69 208.025C229.69 208.025 240.998 210.567 242.075 210.028C243.152 209.49 249.433 191.394 250.93 189.119C252.427 186.846 257.524 185.664 257.524 185.664L258.948 210.031Z" fill="#F99746"/>
<path d="M255.884 214.673C253.502 217.657 249.831 221.102 245.22 221.781C243.017 222.106 240.862 221.633 238.883 220.752C239.101 220.781 244.696 221.473 246.923 217.484C249.196 213.416 251.656 206.956 255.033 209.107C256.491 210.039 256.428 212.349 255.884 214.673Z" fill="#ED7D2B"/>
<path d="M301.133 332.091C301.133 332.091 304.583 335.24 303.911 337.477C303.239 339.714 300.124 341.206 299.704 343.94C299.282 346.674 297.601 348.166 296.084 348.166C294.57 348.166 288.862 348.166 288.862 348.166C288.862 348.166 287.746 346.242 290.439 345.662C293.132 345.082 294.148 341.87 293.979 338.886C293.811 335.902 294.231 331.926 294.231 331.926L299.954 330.602L301.133 332.091Z" fill="#36599E"/>
<path d="M271.934 333.43C271.934 333.43 273.176 346.768 271.66 347.515L252.273 347.476C252.273 347.476 252.273 345.24 255.386 344.742C258.499 344.245 263.969 342.423 264.896 338.362C265.823 334.298 271.934 333.43 271.934 333.43Z" fill="#2B478B"/>
<path d="M285.744 237.73C281.756 228.782 279.316 226.216 279.781 223.438C280.128 221.371 278.726 184.906 278.726 184.906C278.253 184.76 277.304 184.627 276.785 184.513C275.148 184.149 273.794 183.001 273.231 181.422C272.552 179.52 272.013 176.713 272.025 173.195L271.514 173.295L262.921 174.995C262.921 174.995 263.117 177.7 263.122 180.248C263.122 180.27 263.122 180.289 263.122 180.311C263.132 182.523 261.681 184.476 259.556 185.09C258.471 185.403 257.525 185.67 257.525 185.67C257.525 185.67 254.369 194.678 253.767 203.93C253.166 213.183 259.505 217.203 253.719 235.694C247.814 254.581 287.947 242.671 285.744 237.73Z" fill="#FFB27D"/>
<path d="M262.922 174.998C262.922 174.998 263.118 177.702 263.123 180.25C267.932 180.114 270.472 175.728 271.515 173.297L262.922 174.998Z" fill="#E8945B"/>
<path d="M261.313 177.408C261.313 177.408 272.688 177.595 272.696 170.508C272.703 163.422 274.178 158.674 266.915 158.254C259.651 157.835 258.237 160.537 257.659 162.903C257.082 165.268 258.353 177.177 261.313 177.408Z" fill="#FFB27D"/>
<path d="M261.734 158.081C261.734 158.081 264.849 166.395 269.629 167.623C274.408 168.853 276.482 167.572 276.482 167.572C276.482 167.572 272.816 164.658 272.055 159.576C272.055 159.573 264.085 154.124 261.734 158.081Z" fill="#163560"/>
<path d="M262.51 158.762C262.51 158.762 260.201 159.626 259.25 161.31C258.32 162.957 257.527 165.138 257.711 167.814C257.711 167.814 255.365 162.164 258.003 158.966C260.8 155.579 262.51 158.762 262.51 158.762Z" fill="#163560"/>
<path d="M263.787 173.014C263.787 173.014 263.001 174.048 261.431 173.973C260.167 173.912 259.68 172.815 259.68 172.815C259.68 172.815 262.001 172.257 263.787 173.014Z" fill="#EBF3FA"/>
<path d="M286.846 201.039C286.846 201.039 287.135 205.112 286.846 209.998C286.654 213.237 283.377 217.577 282.911 218.65C281.744 221.342 280.429 221.779 280.429 221.779L270.25 224.273L266.671 225.149L255.385 221.779C255.385 221.779 250.245 207.432 252.309 199.356C254.374 191.279 257.528 185.67 257.528 185.67C257.528 185.67 266.737 194.688 278.728 184.906L286.846 201.039Z" fill="#F99746"/>
<path d="M256.106 223.956C256.106 223.956 250.516 241.352 250.157 247.274C249.798 253.196 260.841 331.413 261.285 334.142C261.705 336.714 264.897 338.354 264.897 338.354C264.897 338.354 266.368 339.22 268.464 338.628C271.372 337.806 272.292 336.823 272.292 336.823C272.292 336.823 276.642 281.039 273.951 261.112C271.258 241.185 271.227 223.953 271.227 223.953H256.106V223.956Z" fill="#233862"/>
<path d="M279.778 223.438C279.778 223.438 288.303 234.876 289.098 242.608C289.894 250.339 290.345 277.501 292.039 285.039C293.732 292.576 299.952 307.084 299.952 330.594C299.952 330.594 299.304 331.941 297.308 332.659C296.67 332.889 295.813 333.11 294.984 333.302C293.336 333.68 291.648 332.875 290.896 331.361C286.689 322.892 273.293 295.58 272.606 289.91C272.121 285.897 267.89 259.342 258.662 243.763C256.447 240.022 260.02 225.145 260.02 225.145L279.778 223.438Z" fill="#2B478B"/>
<path d="M263.536 173.206C263.536 173.206 263.339 174.041 261.262 173.912C261.262 173.912 259.518 173.803 259.572 172.886C259.569 172.886 261.26 172.234 263.536 173.206Z" fill="white"/>
<path d="M255.208 221.273C255.208 221.273 257.452 223.049 261.909 223.139C267.234 223.246 280.424 221.783 280.424 221.783C280.424 221.783 281.011 223.42 280.987 225.15C280.987 225.15 264.873 229.214 255.538 225.745C255.54 225.74 254.335 223.476 255.208 221.273Z" fill="#233862"/>
<path d="M260.632 227.724C259.292 227.724 258.203 226.491 258.203 224.975C258.203 223.459 259.292 222.227 260.632 222.227C261.971 222.227 263.06 223.459 263.06 224.975C263.06 226.489 261.971 227.724 260.632 227.724ZM260.632 223.03C259.736 223.03 259.006 223.9 259.006 224.973C259.006 226.045 259.734 226.918 260.632 226.918C261.527 226.918 262.257 226.045 262.257 224.973C262.255 223.9 261.527 223.03 260.632 223.03Z" fill="white"/>
<path d="M278.109 201.83L261.602 216.203L281.277 238.8L297.785 224.426L278.109 201.83Z" fill="#B5453C"/>
<path d="M276.701 224.469C276.701 224.469 270.653 225.175 270.672 226.611C270.691 228.047 272.178 230.997 272.926 231.128C273.673 231.259 277.848 227.14 277.848 227.14L276.701 224.469Z" fill="#FFB27D"/>
<path d="M278.727 184.906C278.727 184.906 286.804 185.472 289.897 192.997C292.992 200.522 298.866 213.155 298.866 215.28C298.866 217.405 295.586 223.958 277.966 227.723C277.966 227.723 276.144 225.806 276.253 224.29C276.253 224.29 287.25 214.843 287.221 213.739C287.165 211.651 285.418 208.895 275.763 199.234C273.14 196.609 278.727 184.906 278.727 184.906Z" fill="#F99746"/>
<path d="M104.058 348.15H103.978C103.507 348.15 103.129 347.764 103.141 347.293L104.41 292.257L108.151 291.82L104.96 347.298C104.934 347.776 104.538 348.15 104.058 348.15Z" fill="#95C0F4"/>
<path d="M164.202 348.15H164.282C164.753 348.15 165.131 347.764 165.119 347.293L163.85 292.257L160.109 291.82L163.3 347.298C163.326 347.776 163.724 348.15 164.202 348.15Z" fill="#B0D4FF"/>
<path d="M101.578 288.84V251.125C101.578 244.49 106.957 239.109 113.594 239.109H140.765C147.401 239.109 152.781 244.488 152.781 251.125V290.281L101.578 288.84Z" fill="#B0D4FF"/>
<path d="M157.65 294.797H105.186C103.194 294.797 101.578 293.181 101.578 291.19V288.844H157.65V294.797Z" fill="#95C0F4"/>
<path d="M163.939 294.792H124.247C122.774 294.792 121.578 293.598 121.578 292.123V291.505C121.578 290.032 122.772 288.836 124.247 288.836H163.939C165.411 288.836 166.607 290.03 166.607 291.505V292.123C166.607 293.598 165.411 294.792 163.939 294.792Z" fill="#B0D4FF"/>
<path d="M162.393 279.438C158.499 286.214 153.603 288.829 153.603 288.829H133.234C133.234 288.829 165.362 274.27 162.393 279.438Z" fill="#233862"/>
<path d="M146.751 331.86C146.22 332.469 146.152 333.149 146.416 333.874C146.416 333.876 146.418 333.881 146.421 333.884C146.906 335.225 148.512 336.725 150.375 338.221C150.613 338.413 150.826 338.588 151.011 338.75C151.059 338.792 151.108 338.835 151.154 338.879C151.19 338.913 151.227 338.947 151.263 338.978C153.003 340.582 152.348 340.948 155.47 344.199C159.031 347.904 161.484 347.971 162.18 347.634C162.77 347.346 161.571 345.381 160.242 343.173C160.176 343.066 160.113 342.959 160.048 342.85C159.871 342.557 159.696 342.258 159.519 341.962C157.961 339.303 158.362 338.056 158.73 334.1C159.031 330.885 163.733 316.138 163.733 316.138L156.908 314.961C156.908 314.961 154.854 326.703 152.588 328.513C151.377 329.476 150.021 329.488 148.857 330.203C148.774 330.254 148.694 330.305 148.614 330.356C147.957 330.798 147.282 331.252 146.751 331.86Z" fill="#FFB27D"/>
<path d="M146.751 331.855C146.22 332.464 146.152 333.143 146.416 333.869C146.416 333.871 146.418 333.876 146.421 333.879C147.015 335.22 148.58 336.712 150.383 338.204C150.618 338.401 150.827 338.58 151.011 338.748C151.059 338.789 151.108 338.832 151.154 338.876C151.19 338.91 151.227 338.944 151.263 338.976C153.003 340.579 152.348 340.946 155.47 344.196C159.031 347.901 161.484 347.969 162.18 347.632C162.77 347.343 161.571 345.378 160.242 343.17C159.548 342.915 156.329 341.608 153.893 338.493C151.748 335.756 150.319 332.241 148.859 330.203C148.777 330.254 148.696 330.305 148.616 330.356C147.957 330.793 147.282 331.246 146.751 331.855Z" fill="#233862"/>
<path d="M201.781 327.597C202.203 329.703 205.204 329.353 208.56 328.533C211.915 327.713 211.117 328.689 215.891 328.16C220.665 327.631 222.111 325.85 222.257 325.142C222.388 324.511 220.027 324.29 217.497 323.999C217.179 323.963 216.859 323.924 216.539 323.885C213.681 323.526 211.59 321.682 208.994 320.169C206.536 318.735 202.868 312.891 202.868 312.891L196.32 313.41C196.32 313.41 199.756 318.628 201.085 320.899C201.866 322.233 201.825 323.999 201.728 325.36C201.682 326.098 201.633 326.855 201.781 327.597Z" fill="#FFB27D"/>
<path d="M208.564 328.534C211.919 327.714 211.121 328.689 215.895 328.161C220.67 327.632 222.115 325.851 222.261 325.143C222.392 324.512 220.032 324.291 217.501 324L217.477 324.049C217.477 324.049 214.614 326.079 210.638 326.174C207.399 326.251 203.967 325.325 201.73 325.361C201.679 326.101 201.63 326.858 201.781 327.6C202.205 329.706 205.209 329.354 208.564 328.534Z" fill="#233862"/>
<path d="M176.684 285.723L170.563 302.196L162.571 323.702C162.571 323.702 160.403 323.911 158.326 323.314C156.414 322.761 154.219 321.315 154.219 321.315C154.219 321.315 156.439 298.222 160.577 284.966C161.637 281.563 162.826 278.812 164.139 277.261C170.555 269.68 176.684 285.723 176.684 285.723Z" fill="#233862"/>
<path d="M170.462 259.563C166.451 258.27 155.013 259.929 143.523 262.181L141.117 258.212L116.298 256.273C116.298 256.273 108.108 274.435 112.592 286.007C113.251 287.707 114.559 288.799 116.791 288.833C116.791 288.835 117.152 288.833 117.155 288.833C117.155 288.833 131.924 288.823 136.723 288.823C149.064 288.823 162.844 280.339 164.625 279.983C167.543 279.398 168.71 285.235 171.626 291.361C174.542 297.486 199.05 318.493 199.05 318.493C199.05 318.493 202.817 318.53 204.372 317.947C206.046 317.319 206.658 316.504 206.658 316.504C206.658 316.504 179.506 262.482 170.462 259.563Z" fill="#2B478B"/>
<path d="M140.146 185.951C136.965 184.282 132.13 184.056 131.344 183.949C121.941 182.685 116.281 196.351 115.946 200.492C115.333 208.125 111.296 209.289 105.612 214.068C94.2165 223.651 97.5572 234.789 103.79 238.928C107.528 241.412 114.117 238.928 114.117 238.928C114.209 238.993 132.137 228.906 140.975 224.039C154.226 222.154 148.249 190.206 140.146 185.951Z" fill="#B5453C"/>
<path d="M133.566 219.896C133.605 219.92 129.219 221.42 126.286 220.119C123.525 218.899 121.436 214.36 121.477 214.358C122.731 214.299 124.112 213.203 125.172 206L125.706 206.192L134.694 209.426C134.694 209.426 134.044 212.31 133.622 215.056C133.268 217.361 133.076 219.571 133.566 219.896Z" fill="#FFB27D"/>
<path d="M134.691 209.429C134.691 209.429 134.041 212.314 133.619 215.06C128.457 214.131 126.431 208.988 125.703 206.195L134.691 209.429Z" fill="#ED975D"/>
<path d="M136.032 212.288C136.032 212.288 123.735 210.638 124.88 202.994C126.025 195.352 125.21 189.991 133.109 190.723C141.008 191.453 142.095 194.597 142.333 197.242C142.573 199.886 139.261 212.521 136.032 212.288Z" fill="#FFB27D"/>
<path d="M141.882 193.057C141.882 193.057 134.01 199.84 128.656 200.388C123.302 200.934 121.273 199.216 121.273 199.216C121.273 199.216 124.43 196.596 126.329 192.368C126.89 191.121 128.071 190.264 129.432 190.148C133.258 189.815 140.504 189.665 141.882 193.057Z" fill="#B5453C"/>
<path d="M136.961 192.448C136.961 192.448 139.596 194.995 140.423 196.882C141.223 198.704 141.464 203.064 140.826 204.796C140.826 204.796 144.928 196.817 142.606 192.94C140.144 188.83 136.961 192.448 136.961 192.448Z" fill="#B5453C"/>
<path d="M143.924 238.013C143.553 262.907 143.822 257.705 141.097 260.066C140.44 260.633 138.596 260.973 136.17 261.133C128.538 261.64 115.12 260.381 114.608 258.972C112.847 254.091 114.091 252.574 112.621 245.102C112.468 244.306 112.279 243.448 112.056 242.511C110.831 237.378 109.639 235.633 113.984 227.388C117.924 219.918 122.019 213.858 122.386 214.076C132.781 220.248 133.62 215.061 133.62 215.061C133.62 215.061 144.106 225.871 143.924 238.013Z" fill="#8C9DF4"/>
<path d="M170.563 302.198L162.571 323.705C162.571 323.705 160.403 323.913 158.326 323.317C156.414 322.763 154.219 321.318 154.219 321.318C154.219 321.318 156.439 298.224 160.577 284.969L170.563 302.198Z" fill="#2B478B"/>
<path d="M133.617 215.055C133.617 215.055 144.313 216.869 145.57 221.474C146.827 226.081 154.219 253.155 154.219 253.155C154.219 253.155 148.78 254.133 146.269 251.619C143.755 249.106 137.528 228.313 137.528 228.313L133.617 215.055Z" fill="#8C9DF4"/>
<path d="M136.166 261.132C128.534 261.639 115.116 260.38 114.604 258.97C112.843 254.089 114.087 252.573 112.617 245.101L116.3 234.734C116.3 234.734 115.691 246.28 119.095 249.315C122.496 252.352 133.034 255.176 134.689 257.714C135.487 258.929 136.014 260.152 136.166 261.132Z" fill="#6980E2"/>
<path d="M127.422 256.275C127.422 256.275 134.952 254.599 136.168 255.266C137.383 255.933 140.352 258.369 140.724 259.216C141.095 260.062 138.019 258.573 137.017 258.304C136.369 258.129 134.661 258.723 133.817 259.005C130.263 260.189 128.084 259.58 128.084 259.58L127.422 256.275Z" fill="#FFB27D"/>
<path d="M122.379 214.07C122.379 214.07 112.267 214.694 108.766 219.575C103.839 226.448 94.0649 255.735 99.6665 259.643C105.974 264.041 128.378 260.793 128.378 260.793C128.378 260.793 129.123 257.309 128.087 255.623C127.049 253.937 110.193 251.215 109.414 250.436C108.635 249.657 119.14 235.264 119.14 232.93C119.14 230.596 122.379 214.07 122.379 214.07Z" fill="#8C9DF4"/>
<path d="M136.531 257.367C136.531 257.367 138.108 259.403 138.627 259.645C139.144 259.888 139.479 259.827 139.479 259.827L138.416 257.913L136.531 257.367Z" fill="#FFB27D"/>
<path d="M136.172 255.266L140.759 257.493C140.759 257.493 140.565 257.813 140 257.786C139.435 257.76 138.011 257.24 138.011 257.24L136.172 255.266Z" fill="#FFB27D"/>
<path d="M136.969 262.762H175.671L187.313 235.617H148.669L136.969 262.762Z" fill="#F77D48"/>
<path d="M176.124 261H125.016V262.715H175.671L176.124 261Z" fill="#F77D48"/>
<path d="M165.9 249.188C166.191 248.235 165.604 247.461 164.585 247.461C163.566 247.461 162.506 248.235 162.215 249.188C161.924 250.142 162.511 250.916 163.53 250.916C164.547 250.918 165.607 250.144 165.9 249.188Z" fill="#EBF3FA"/>
<path d="M232.897 348.902H233.004C233.625 348.902 234.124 348.336 234.11 347.652L232.431 267.349L227.484 266.711L231.703 347.657C231.737 348.356 232.261 348.902 232.897 348.902Z" fill="#233862"/>
<path d="M128.625 348.902H128.521C127.9 348.902 127.4 348.336 127.414 347.652L129.093 267.349L134.04 266.711L129.821 347.657C129.785 348.356 129.261 348.902 128.625 348.902Z" fill="#233862"/>
<path d="M234.848 268.505H122.162C121.167 268.505 120.359 267.697 120.359 266.703V264.56C120.359 263.566 121.167 262.758 122.162 262.758H234.845C235.84 262.758 236.648 263.566 236.648 264.56V266.703C236.648 267.697 235.842 268.505 234.848 268.505Z" fill="#233862"/>
<path d="M646.776 349.996H35.9588C35.4736 349.996 35.0781 349.6 35.0781 349.115V348.263C35.0781 347.778 35.4736 347.383 35.9588 347.383H646.776C647.262 347.383 647.657 347.778 647.657 348.263V349.115C647.657 349.598 647.262 349.996 646.776 349.996Z" fill="#2E3552"/>
</svg>
