<svg width="690" height="350" viewBox="0 0 690 350" fill="none" xmlns="http://www.w3.org/2000/svg">
<g opacity="0.3">
<path d="M444.878 113.419C445.685 108.337 445.433 103.152 444.137 98.1637L454.334 95.7258C452.708 89.4634 449.812 83.5702 445.811 78.3833L437.336 84.3766C434.156 80.2506 430.166 76.762 425.59 74.1077L431.016 65.4642C425.299 62.1583 418.961 59.962 412.363 59H412.238L410.708 68.9733C405.402 68.1977 399.989 68.433 394.778 69.6659L392.248 59.8773C385.723 61.4336 379.581 64.2074 374.173 68.0406L380.406 76.1578C376.106 79.2045 372.472 83.0324 369.709 87.424L360.734 82.1695C357.282 87.6672 354.994 93.7645 354 100.112V100.352L363.552 101.599L364.409 101.728C363.6 106.8 363.846 111.976 365.13 116.956L354.923 119.376C356.531 125.643 359.415 131.543 363.408 136.736L371.874 130.762C375.037 134.896 379.019 138.392 383.59 141.049L378.146 149.674C383.882 153.014 390.251 155.23 396.885 156.194L397.375 156.268H397.876L398.52 146.211C403.806 146.988 409.199 146.759 414.393 145.537L416.904 155.335C423.432 153.792 429.581 151.031 434.998 147.208L428.678 139.119C432.989 136.084 436.636 132.265 439.414 127.881L448.399 133.117C451.901 127.564 454.223 121.399 455.229 114.98L444.878 113.419ZM400.309 134.419C394.787 133.604 389.639 131.236 385.519 127.614C381.398 123.991 378.488 119.277 377.158 114.068C375.828 108.858 376.137 103.387 378.045 98.3458C379.954 93.3046 383.377 88.92 387.882 85.7463C392.386 82.5726 397.77 80.7523 403.352 80.5157C408.934 80.279 414.464 81.6365 419.243 84.4166C424.021 87.1967 427.834 91.2745 430.198 96.1344C432.562 100.994 433.373 106.418 432.526 111.72C431.388 118.831 427.355 125.216 421.314 129.473C415.272 133.729 407.717 135.508 400.309 134.419Z" fill="#003C5E"/>
<path d="M260.808 62.3792C261.134 60.2892 261.033 58.1568 260.508 56.1056L264.638 55.103C263.979 52.5277 262.806 50.1042 261.186 47.9711L257.753 50.4358C256.465 48.739 254.849 47.3044 252.996 46.2129L255.193 42.6583C252.878 41.2988 250.311 40.3956 247.638 40H247.588L246.968 44.1014C244.819 43.7824 242.627 43.8792 240.516 44.3862L239.491 40.3608C236.849 41.0008 234.361 42.1415 232.17 43.7178L234.695 47.0559C232.954 48.3088 231.482 49.883 230.363 51.689L226.727 49.5281C225.329 51.789 224.403 54.2964 224 56.9069V57.0056L227.869 57.5183L228.216 57.5714C227.888 59.6572 227.988 61.7855 228.508 63.8337L224.374 64.8286C225.025 67.406 226.193 69.8324 227.811 71.9681L231.239 69.5111C232.521 71.2114 234.133 72.649 235.985 73.7416L233.78 77.2885C236.103 78.6621 238.683 79.5734 241.369 79.9696L241.568 80H241.771L242.032 75.8644C244.173 76.1839 246.357 76.0897 248.461 75.5872L249.477 79.6165C252.122 78.982 254.612 77.8464 256.806 76.2746L254.246 72.9479C255.992 71.6997 257.47 70.1294 258.595 68.3262L262.234 70.4795C263.652 68.1959 264.593 65.6609 265 63.021L260.808 62.3792ZM242.756 71.0149C240.52 70.68 238.435 69.7062 236.766 68.2165C235.097 66.7269 233.918 64.7883 233.38 62.6459C232.841 60.5035 232.966 58.2535 233.739 56.1804C234.512 54.1073 235.899 52.3042 237.723 50.9991C239.547 49.6939 241.728 48.9454 243.989 48.848C246.25 48.7507 248.489 49.309 250.425 50.4522C252.36 51.5955 253.904 53.2724 254.862 55.271C255.82 57.2696 256.148 59.5001 255.805 61.6804C255.344 64.6046 253.711 67.2306 251.264 68.981C248.817 70.7315 245.757 71.4631 242.756 71.0149Z" fill="#003C5E"/>
<path d="M444.878 113.419C445.685 108.337 445.433 103.152 444.137 98.1637L454.334 95.7258C452.708 89.4634 449.812 83.5702 445.811 78.3833L437.336 84.3766C434.156 80.2506 430.166 76.762 425.59 74.1077L431.016 65.4642C425.299 62.1583 418.961 59.962 412.363 59H412.238L410.708 68.9733C405.402 68.1977 399.989 68.433 394.778 69.6659L392.248 59.8773C385.723 61.4336 379.581 64.2074 374.173 68.0406L380.406 76.1578C376.106 79.2045 372.472 83.0324 369.709 87.424L360.734 82.1695C357.282 87.6672 354.994 93.7645 354 100.112V100.352L363.552 101.599L364.409 101.728C363.6 106.8 363.846 111.976 365.13 116.956L354.923 119.376C356.531 125.643 359.415 131.543 363.408 136.736L371.874 130.762C375.037 134.896 379.019 138.392 383.59 141.049L378.146 149.674C383.882 153.014 390.251 155.23 396.885 156.194L397.375 156.268H397.876L398.52 146.211C403.806 146.988 409.199 146.759 414.393 145.537L416.904 155.335C423.432 153.792 429.581 151.031 434.998 147.208L428.678 139.119C432.989 136.084 436.636 132.265 439.414 127.881L448.399 133.117C451.901 127.564 454.223 121.399 455.229 114.98L444.878 113.419ZM400.309 134.419C394.787 133.604 389.639 131.236 385.519 127.614C381.398 123.991 378.488 119.277 377.158 114.068C375.828 108.858 376.137 103.387 378.045 98.3458C379.954 93.3046 383.377 88.92 387.882 85.7463C392.386 82.5726 397.77 80.7523 403.352 80.5157C408.934 80.279 414.464 81.6365 419.243 84.4166C424.021 87.1967 427.834 91.2745 430.198 96.1344C432.562 100.994 433.373 106.418 432.526 111.72C431.388 118.831 427.355 125.216 421.314 129.473C415.272 133.729 407.717 135.508 400.309 134.419Z" fill="#003C5E"/>
<path d="M260.808 62.3792C261.134 60.2892 261.033 58.1568 260.508 56.1056L264.638 55.103C263.979 52.5277 262.806 50.1042 261.186 47.9711L257.753 50.4358C256.465 48.739 254.849 47.3044 252.996 46.2129L255.193 42.6583C252.878 41.2988 250.311 40.3956 247.638 40H247.588L246.968 44.1014C244.819 43.7824 242.627 43.8792 240.516 44.3862L239.491 40.3608C236.849 41.0008 234.361 42.1415 232.17 43.7178L234.695 47.0559C232.954 48.3088 231.482 49.883 230.363 51.689L226.727 49.5281C225.329 51.789 224.403 54.2964 224 56.9069V57.0056L227.869 57.5183L228.216 57.5714C227.888 59.6572 227.988 61.7855 228.508 63.8337L224.374 64.8286C225.025 67.406 226.193 69.8324 227.811 71.9681L231.239 69.5111C232.521 71.2114 234.133 72.649 235.985 73.7416L233.78 77.2885C236.103 78.6621 238.683 79.5734 241.369 79.9696L241.568 80H241.771L242.032 75.8644C244.173 76.1839 246.357 76.0897 248.461 75.5872L249.477 79.6165C252.122 78.982 254.612 77.8464 256.806 76.2746L254.246 72.9479C255.992 71.6997 257.47 70.1294 258.595 68.3262L262.234 70.4795C263.652 68.1959 264.593 65.6609 265 63.021L260.808 62.3792ZM242.756 71.0149C240.52 70.68 238.435 69.7062 236.766 68.2165C235.097 66.7269 233.918 64.7883 233.38 62.6459C232.841 60.5035 232.966 58.2535 233.739 56.1804C234.512 54.1073 235.899 52.3042 237.723 50.9991C239.547 49.6939 241.728 48.9454 243.989 48.848C246.25 48.7507 248.489 49.309 250.425 50.4522C252.36 51.5955 253.904 53.2724 254.862 55.271C255.82 57.2696 256.148 59.5001 255.805 61.6804C255.344 64.6046 253.711 67.2306 251.264 68.981C248.817 70.7315 245.757 71.4631 242.756 71.0149Z" fill="#003C5E"/>
<path d="M410.796 68.9621C402.834 67.7868 394.689 68.904 387.389 72.1724C380.089 75.4409 373.962 80.7137 369.784 87.3244C365.605 93.935 363.563 101.587 363.914 109.312C364.265 117.037 366.994 124.488 371.757 130.724C376.519 136.961 383.101 141.701 390.67 144.347C398.239 146.992 406.455 147.424 414.279 145.587C422.104 143.75 429.185 139.728 434.628 134.028C440.072 128.328 443.632 121.207 444.859 113.565C445.675 108.489 445.44 103.309 444.169 98.3199C442.899 93.3311 440.616 88.6314 437.453 84.4894C434.29 80.3474 430.308 76.8443 425.734 74.18C421.16 71.5158 416.084 69.7428 410.796 68.9621ZM400.31 134.417C394.788 133.602 389.64 131.234 385.519 127.612C381.398 123.989 378.489 119.275 377.159 114.066C375.829 108.856 376.137 103.385 378.046 98.3438C379.955 93.3027 383.378 88.9181 387.883 85.7444C392.387 82.5707 397.771 80.7504 403.353 80.5137C408.935 80.277 414.465 81.6345 419.243 84.4146C424.022 87.1947 427.834 91.2725 430.199 96.1324C432.563 100.992 433.373 106.416 432.527 111.718C431.389 118.829 427.356 125.214 421.314 129.471C415.273 133.727 407.718 135.506 400.31 134.417Z" fill="#133447"/>
<path d="M247.008 44.1859C243.783 43.705 240.483 44.1621 237.526 45.4996C234.568 46.8371 232.086 48.9949 230.394 51.7001C228.701 54.4052 227.873 57.5364 228.016 60.6976C228.158 63.8588 229.264 66.9082 231.193 69.4601C233.122 72.012 235.789 73.9519 238.855 75.0344C241.921 76.117 245.249 76.2937 248.419 75.5421C251.589 74.7905 254.458 73.1444 256.663 70.812C258.868 68.4795 260.31 65.5654 260.807 62.4382C261.138 60.361 261.043 58.2411 260.528 56.1996C260.013 54.1581 259.088 52.2349 257.807 50.5399C256.526 48.845 254.912 47.4114 253.059 46.3212C251.206 45.2309 249.15 44.5054 247.008 44.1859ZM242.76 70.971C240.523 70.6377 238.438 69.6687 236.768 68.1863C235.099 66.704 233.92 64.775 233.381 62.6431C232.843 60.5112 232.968 58.2723 233.741 56.2094C234.514 54.1465 235.901 52.3522 237.726 51.0535C239.55 49.7548 241.731 49.0099 243.993 48.913C246.254 48.8161 248.494 49.3717 250.43 50.5093C252.366 51.647 253.91 53.3157 254.868 55.3045C255.826 57.2932 256.154 59.5127 255.811 61.6824C255.35 64.5921 253.717 67.2052 251.269 68.9471C248.822 70.6889 245.761 71.4169 242.76 70.971Z" fill="#133447"/>
<path d="M410.796 68.9621C402.834 67.7868 394.689 68.904 387.389 72.1724C380.089 75.4409 373.962 80.7137 369.784 87.3244C365.605 93.935 363.563 101.587 363.914 109.312C364.265 117.037 366.994 124.488 371.757 130.724C376.519 136.961 383.101 141.701 390.67 144.347C398.239 146.992 406.455 147.424 414.279 145.587C422.104 143.75 429.185 139.728 434.628 134.028C440.072 128.328 443.632 121.207 444.859 113.565C445.675 108.489 445.44 103.309 444.169 98.3199C442.899 93.3311 440.616 88.6314 437.453 84.4894C434.29 80.3474 430.308 76.8443 425.734 74.18C421.16 71.5158 416.084 69.7428 410.796 68.9621ZM400.31 134.417C394.788 133.602 389.64 131.234 385.519 127.612C381.398 123.989 378.489 119.275 377.159 114.066C375.829 108.856 376.137 103.385 378.046 98.3438C379.955 93.3027 383.378 88.9181 387.883 85.7444C392.387 82.5707 397.771 80.7504 403.353 80.5137C408.935 80.277 414.465 81.6345 419.243 84.4146C424.022 87.1947 427.834 91.2725 430.199 96.1324C432.563 100.992 433.373 106.416 432.527 111.718C431.389 118.829 427.356 125.214 421.314 129.471C415.273 133.727 407.718 135.506 400.31 134.417Z" fill="#133447"/>
<path d="M247.008 44.1859C243.783 43.705 240.483 44.1621 237.526 45.4996C234.568 46.8371 232.086 48.9949 230.394 51.7001C228.701 54.4052 227.873 57.5364 228.016 60.6976C228.158 63.8588 229.264 66.9082 231.193 69.4601C233.122 72.012 235.789 73.9519 238.855 75.0344C241.921 76.117 245.249 76.2937 248.419 75.5421C251.589 74.7905 254.458 73.1444 256.663 70.812C258.868 68.4795 260.31 65.5654 260.807 62.4382C261.138 60.361 261.043 58.2411 260.528 56.1996C260.013 54.1581 259.088 52.2349 257.807 50.5399C256.526 48.845 254.912 47.4114 253.059 46.3212C251.206 45.2309 249.15 44.5054 247.008 44.1859ZM242.76 70.971C240.523 70.6377 238.438 69.6687 236.768 68.1863C235.099 66.704 233.92 64.775 233.381 62.6431C232.843 60.5112 232.968 58.2723 233.741 56.2094C234.514 54.1465 235.901 52.3522 237.726 51.0535C239.55 49.7548 241.731 49.0099 243.993 48.913C246.254 48.8161 248.494 49.3717 250.43 50.5093C252.366 51.647 253.91 53.3157 254.868 55.3045C255.826 57.2932 256.154 59.5127 255.811 61.6824C255.35 64.5921 253.717 67.2052 251.269 68.9471C248.822 70.6889 245.761 71.4169 242.76 70.971Z" fill="#133447"/>
</g>
<path d="M498.968 264.133L493.598 345.239C493.569 345.651 493.384 346.037 493.082 346.319C492.78 346.601 492.383 346.759 491.97 346.761C491.752 346.761 491.537 346.718 491.337 346.633C491.137 346.548 490.956 346.423 490.805 346.267C490.654 346.111 490.536 345.925 490.458 345.722C490.381 345.519 490.345 345.303 490.353 345.085L492.56 264.133H498.968Z" fill="#444D52"/>
<path d="M512.711 264.133L518.081 345.239C518.108 345.65 518.29 346.036 518.59 346.318C518.89 346.601 519.286 346.759 519.698 346.761C519.916 346.761 520.132 346.718 520.332 346.633C520.533 346.548 520.715 346.424 520.867 346.268C521.019 346.111 521.138 345.926 521.217 345.723C521.296 345.52 521.333 345.303 521.327 345.085L519.096 264.18L512.711 264.133Z" fill="#444D52"/>
<path d="M458.867 264.133L464.237 345.239C464.264 345.65 464.446 346.036 464.746 346.318C465.046 346.601 465.442 346.759 465.854 346.761C466.072 346.761 466.288 346.718 466.489 346.633C466.689 346.548 466.871 346.424 467.023 346.268C467.175 346.111 467.294 345.926 467.373 345.723C467.452 345.52 467.489 345.303 467.483 345.085L465.24 264.18L458.867 264.133Z" fill="#0F2531" stroke="#0F2531" stroke-linecap="round" stroke-linejoin="round"/>
<path d="M436.925 264.133L431.555 345.239C431.525 345.651 431.341 346.037 431.039 346.319C430.737 346.601 430.339 346.759 429.926 346.761C429.709 346.76 429.494 346.715 429.294 346.63C429.094 346.544 428.913 346.42 428.761 346.264C428.609 346.108 428.49 345.924 428.411 345.721C428.331 345.519 428.293 345.303 428.297 345.085L430.54 264.18L436.925 264.133Z" fill="#0F2531" stroke="#0F2531" stroke-linecap="round" stroke-linejoin="round"/>
<path d="M530.49 182.358C530.49 182.358 476.907 180.352 472.375 180.352C467.843 180.352 466.793 182.358 466.793 182.358L459.145 236.283C459.145 236.283 435.363 229.497 430.701 230.382C426.039 231.267 433.002 265.104 433.002 265.104H459.912L460.396 263.074H521.154L537.288 186.217C536.309 182.7 530.49 182.358 530.49 182.358Z" fill="#0F2531" stroke="#0F2531" stroke-linecap="round" stroke-linejoin="round"/>
<path d="M510.087 216.094C510.087 216.094 515.54 251.501 509.285 255.632C508.317 256.269 503.065 259.29 498.155 258.795C494.213 258.394 466.36 258.795 466.36 258.795C466.36 258.795 462.488 251.43 461.709 246.001C460.93 240.572 467.021 217.274 467.021 217.274L510.087 216.094Z" fill="#0F2531" stroke="#0F2531" stroke-linecap="round" stroke-linejoin="round"/>
<path d="M464.467 235.055C464.467 235.055 424.15 239.245 422.25 240.378C420.35 241.511 411.628 249.123 413.127 254.068C414.626 259.014 410.849 259.391 414.307 260.158C417.765 260.926 466.78 260.914 466.78 260.914" fill="#0F2531"/>
<path d="M464.467 235.055C464.467 235.055 424.15 239.245 422.25 240.378C420.35 241.511 411.628 249.123 413.127 254.068C414.626 259.014 410.849 259.391 414.307 260.158C417.765 260.926 466.78 260.914 466.78 260.914" stroke="#0F2531" stroke-linecap="round" stroke-linejoin="round"/>
<path d="M427.802 265.039H523.602V257.887H427.802V265.039Z" fill="#444D52"/>
<path d="M500.98 236.578H443.266C443.266 236.578 440.233 240.001 439.843 247.2C439.454 254.4 440.233 255.946 445.556 257.822C450.879 259.699 498.159 258.743 498.159 258.743" fill="#0F2531"/>
<path d="M500.98 236.578H443.266C443.266 236.578 440.233 240.001 439.843 247.2C439.454 254.4 440.233 255.946 445.556 257.822C450.879 259.699 498.159 258.743 498.159 258.743" stroke="#0F2531" stroke-linecap="round" stroke-linejoin="round"/>
<path d="M455.498 328.16L449.455 313.844L439.553 315.72L447.13 328.491L442.763 337.236L433.322 343.409C433.322 343.409 432.224 344.495 436.945 344.129C441.666 343.763 451.462 344.129 451.462 344.129L457.634 336.87C457.634 336.87 459.877 333.176 455.498 328.16Z" fill="#FFBE9D"/>
<path d="M458.144 334.422L458.392 343.781H456.916L454.945 339.107L458.144 334.422Z" fill="#0F2531" stroke="#0F2531" stroke-linecap="round" stroke-linejoin="round"/>
<path d="M451.485 344.184L457.658 336.926C457.658 336.926 459.251 334.223 457.056 330.328C452.665 337.834 446.823 340.089 446.823 340.089L440.733 338.625L433.345 343.464C433.345 343.464 432.247 344.55 436.968 344.184C441.689 343.818 451.485 344.184 451.485 344.184Z" fill="#0F2531" stroke="#0F2531" stroke-linecap="round" stroke-linejoin="round"/>
<path d="M431.765 255.211L452.006 316.406L437.642 318.956L409.317 255.223C409.317 255.223 407.039 245.71 413.117 242.677C419.195 239.644 437.076 238.109 437.076 238.109" fill="#0F2531"/>
<path d="M431.765 255.211L452.006 316.406L437.642 318.956L409.317 255.223C409.317 255.223 407.039 245.71 413.117 242.677C419.195 239.644 437.076 238.109 437.076 238.109" stroke="#0F2531" stroke-linecap="round" stroke-linejoin="round"/>
<path d="M496.695 265.029C496.695 265.029 489.72 231.144 494.393 230.306C499.067 229.468 522.837 236.207 522.837 236.207L530.485 182.353C530.485 182.353 538.558 181.079 539.408 188.254C540.257 195.43 523.604 265.029 523.604 265.029H496.695Z" fill="#444D52"/>
<path d="M414.561 165.269L410.961 159.368C410.614 158.803 410.126 158.338 409.544 158.019C408.963 157.7 408.308 157.539 407.645 157.55L404.257 157.609L398.462 155.874C398.094 155.767 397.703 155.771 397.337 155.887C396.971 156.002 396.648 156.224 396.409 156.523L396.196 156.795L401.531 159.155L396.208 161.115L390.555 158.247C390.332 158.132 390.076 158.1 389.832 158.157C389.588 158.213 389.372 158.353 389.221 158.553C389.05 158.776 388.973 159.057 389.008 159.336C389.044 159.615 389.188 159.868 389.41 160.041L397.318 166.142C397.565 166.335 397.852 166.473 398.157 166.546C398.462 166.619 398.78 166.626 399.088 166.567L407.833 164.809L410.277 167.476L414.561 165.269Z" fill="#FFBE9D"/>
<path d="M475.53 153.156L443.109 187.065L412.163 162.055L407.891 165.159L441.94 203.741L471.458 187.843L475.53 153.156Z" fill="#5E55D9"/>
<path d="M524.036 161.828L541.031 214.054L526.373 214.479L511.797 189.965C511.797 189.965 519.988 165.239 524.036 161.828Z" fill="#5E55D9"/>
<path d="M505.546 152.85L524.041 161.879L508.556 205.182L510.385 217.256L467.023 217.327L472.193 197.876L468.652 185.413C468.193 183.796 468.168 182.086 468.581 180.456L475.521 153.216L493.744 150.289L505.546 152.85Z" fill="#5E55D9"/>
<path d="M504.662 150.315C504.662 150.315 508.297 152.77 508.415 154.953C508.474 156.239 508.415 158.494 508.297 160.217C508.233 161.563 507.925 162.887 507.389 164.123L500.838 172.031L493.261 166.047L486.971 169.257C486.971 169.257 485.79 159.615 488.54 152.888C491.29 146.16 503.258 148.627 504.662 150.315Z" fill="#0F2531" stroke="#0F2531" stroke-linecap="round" stroke-linejoin="round"/>
<path d="M509.869 131.609C509.869 131.609 508.381 136.956 507.685 140.496C506.989 144.037 505.584 151.118 505.714 153.774C505.844 156.43 494.667 167.736 493.263 166.048C491.858 164.361 490.383 154.553 490.383 154.553L491.775 138.691C491.775 138.691 506.34 122.557 509.869 131.609Z" fill="#FFBE9D" stroke="#0F2531" stroke-linecap="round" stroke-linejoin="round"/>
<path d="M486.508 123.348C486.508 123.348 484.513 126.641 484.513 128.069C484.513 129.497 485.21 132.294 485.092 133.109C484.974 133.923 482.991 136.649 482.731 137.57C482.601 137.945 482.612 138.354 482.761 138.721C482.911 139.088 483.19 139.388 483.546 139.565C484.028 139.811 484.496 140.083 484.95 140.379C484.95 140.379 485.54 147.649 486.484 149.526C487.429 151.402 488.243 152.229 491.052 152.465C493.861 152.701 500.553 149.762 501.485 147.413C502.418 145.064 502.547 142.256 502.665 138.856C502.783 135.457 500.435 130.595 498.676 125.956C496.918 121.318 489.553 118.769 486.508 123.348Z" fill="#FFBE9D"/>
<path d="M516.786 147.354C521.76 147.354 525.792 143.322 525.792 138.349C525.792 133.376 521.76 129.344 516.786 129.344C511.813 129.344 507.781 133.376 507.781 138.349C507.781 143.322 511.813 147.354 516.786 147.354Z" fill="#0F2531" stroke="#0F2531" stroke-linecap="round" stroke-linejoin="round"/>
<path d="M486.461 122.84C486.461 122.84 490.084 119.712 496.599 125.932C503.114 132.152 500.636 141.145 504.991 143.01C509.346 144.875 517.407 135.551 518.339 130.901C519.272 126.251 516.474 116.608 507.776 114.743C499.078 112.879 488.42 114.153 486.461 122.84Z" fill="#0F2531" stroke="#0F2531" stroke-linecap="round" stroke-linejoin="round"/>
<path d="M486.464 122.839C486.387 122.107 486.478 121.368 486.729 120.677C486.98 119.986 487.386 119.361 487.915 118.85C488.444 118.339 489.083 117.956 489.782 117.729C490.482 117.502 491.224 117.437 491.952 117.54C497.854 117.858 498.467 127.17 501.571 130.9C504.675 134.629 506.233 134.004 506.233 134.004C506.233 134.004 500.958 135.55 497.535 133.685C494.112 131.82 492.46 121.305 486.464 122.839Z" fill="#0F2531" stroke="#0F2531" stroke-linecap="round" stroke-linejoin="round"/>
<path d="M518.341 130.898C518.341 130.898 518.07 139.42 511.531 141.214" stroke="#FFBE9D" stroke-width="0.5" stroke-linecap="round" stroke-linejoin="round"/>
<path d="M500.096 139.597C500.096 139.597 506.327 131.442 507.791 137.532C509.254 143.622 504.25 145.109 501.89 144.413C499.529 143.716 499.86 142.453 499.86 142.453" fill="#FFBE9D"/>
<path d="M500.096 139.597C500.096 139.597 506.327 131.442 507.791 137.532C509.254 143.622 504.25 145.109 501.89 144.413C499.529 143.716 499.86 142.453 499.86 142.453" stroke="#0F2531" stroke-linecap="round" stroke-linejoin="round"/>
<path d="M486.218 209.391C486.218 209.391 474.321 211.043 472.338 211.043C470.355 211.043 465.398 217.322 465.398 217.322H487.209L486.218 209.391Z" fill="#FFBE9D"/>
<path d="M536.759 201.383L541.031 211.014C541.223 211.58 541.278 212.185 541.191 212.777C541.105 213.369 540.881 213.932 540.535 214.421C540.19 214.91 539.735 215.311 539.206 215.59C538.676 215.87 538.089 216.02 537.49 216.03L485.914 216.325L486.245 209.385L526.231 203.059" fill="#5E55D9"/>
<path d="M467.737 334.422L467.985 343.781H466.51L464.539 339.107L467.737 334.422Z" fill="#0F2531" stroke="#0F2531" stroke-linecap="round" stroke-linejoin="round"/>
<path d="M465.089 328.167L463.189 314.547L453.299 315.184L456.721 328.592L452.354 337.337L442.912 343.51C442.912 343.51 441.827 344.596 446.548 344.23C451.269 343.864 461.065 344.23 461.065 344.23L467.237 336.971C467.237 336.971 469.468 333.183 465.089 328.167Z" fill="#FFBE9D"/>
<path d="M461.065 344.184L467.237 336.926C467.237 336.926 468.83 334.223 466.623 330.328C462.233 337.834 456.391 340.089 456.391 340.089L450.313 338.625L442.912 343.464C442.912 343.464 441.827 344.55 446.548 344.184C451.269 343.818 461.065 344.184 461.065 344.184Z" fill="#0F2531" stroke="#0F2531" stroke-linecap="round" stroke-linejoin="round"/>
<path d="M460.556 244.675L464.793 317.047L451.374 317.366L438.273 251.615C438.273 251.615 438.521 239.092 442.522 237.653C446.523 236.213 457.145 237.759 457.145 237.759" fill="#0F2531"/>
<path d="M460.556 244.675L464.793 317.047L451.374 317.366L438.273 251.615C438.273 251.615 438.521 239.092 442.522 237.653C446.523 236.213 457.145 237.759 457.145 237.759" stroke="#0F2531" stroke-linecap="round" stroke-linejoin="round"/>
<path d="M463.844 227.539L473.982 348.242C474.009 348.422 474.072 348.594 474.168 348.749C474.264 348.904 474.39 349.037 474.539 349.141C474.688 349.245 474.857 349.317 475.035 349.353C475.214 349.389 475.397 349.389 475.575 349.351C475.879 349.276 476.145 349.094 476.325 348.838C476.505 348.582 476.587 348.27 476.555 347.959L469.651 227.574L463.844 227.539Z" fill="#606669"/>
<path d="M531.984 227.539L542.158 348.643C542.183 348.824 542.245 348.997 542.341 349.153C542.436 349.308 542.562 349.442 542.712 349.547C542.862 349.651 543.031 349.723 543.21 349.758C543.389 349.794 543.573 349.792 543.751 349.753C544.055 349.678 544.321 349.495 544.501 349.239C544.681 348.983 544.763 348.671 544.731 348.36L537.803 227.539H531.984Z" fill="#606669"/>
<path d="M250.805 227.539L245.506 347.192C245.476 347.505 245.56 347.819 245.742 348.077C245.924 348.335 246.192 348.519 246.497 348.596C246.672 348.641 246.855 348.648 247.034 348.616C247.212 348.584 247.381 348.515 247.53 348.412C247.679 348.309 247.804 348.175 247.896 348.019C247.989 347.864 248.047 347.69 248.067 347.51L256.647 227.539H250.805Z" fill="#606669"/>
<path d="M187.996 227.539L182.661 346.743C182.635 347.058 182.721 347.373 182.905 347.63C183.088 347.887 183.358 348.071 183.664 348.148C183.839 348.191 184.022 348.196 184.199 348.164C184.377 348.131 184.545 348.061 184.693 347.958C184.842 347.856 184.967 347.723 185.06 347.568C185.153 347.414 185.212 347.241 185.234 347.062L193.779 227.492L187.996 227.539Z" fill="#606669"/>
<path d="M545.242 220.844H184.219V231.206H545.242V220.844Z" fill="#4E5651"/>
<path d="M545.242 220.844H184.219V224.396H545.242V220.844Z" fill="#606669"/>
<path d="M545.234 220.844H454.898V231.206H545.234V220.844Z" fill="#606669"/>
<path d="M548.455 217.398H181V221.352H548.455V217.398Z" fill="#4E5651"/>
<path d="M548.445 217.398H458.664V221.352H548.445V217.398Z" fill="#606669"/>
<path d="M262.847 217.047H312.157C312.346 217.048 312.53 216.994 312.687 216.891C312.845 216.788 312.968 216.641 313.043 216.468L326.698 185.334C326.761 185.188 326.786 185.028 326.772 184.87C326.758 184.712 326.704 184.56 326.616 184.427C326.528 184.295 326.409 184.187 326.269 184.112C326.128 184.037 325.972 183.999 325.813 184H276.502C276.318 184 276.137 184.053 275.982 184.154C275.827 184.255 275.704 184.398 275.629 184.567L262.021 215.701C261.957 215.843 261.929 215.999 261.94 216.154C261.95 216.309 261.997 216.459 262.079 216.592C262.16 216.725 262.273 216.835 262.407 216.915C262.541 216.994 262.692 217.039 262.847 217.047Z" fill="white"/>
<path d="M267.482 214.622H309.557C309.714 214.622 309.869 214.576 310 214.49C310.132 214.404 310.237 214.282 310.301 214.138L321.95 187.571C322.013 187.446 322.042 187.306 322.035 187.166C322.029 187.026 321.986 186.89 321.911 186.771C321.836 186.652 321.732 186.555 321.609 186.488C321.485 186.422 321.346 186.388 321.206 186.391H279.131C278.97 186.39 278.812 186.436 278.678 186.524C278.543 186.612 278.438 186.739 278.375 186.886L266.75 213.477C266.695 213.6 266.672 213.735 266.682 213.869C266.692 214.003 266.735 214.133 266.808 214.246C266.88 214.36 266.98 214.454 267.097 214.519C267.215 214.585 267.347 214.62 267.482 214.622Z" fill="#FFC305"/>
<path d="M312.841 214.984H238.758V217.404H312.841V214.984Z" fill="white"/>
<path d="M312.852 214.984H276.938V217.404H312.852V214.984Z" fill="white"/>
<path d="M336.651 198.133H323.586V217.441H336.651V198.133Z" fill="white"/>
<path d="M336.075 214.812H334.706C334.421 214.812 334.148 214.698 333.946 214.497C333.745 214.296 333.632 214.022 333.632 213.738C333.632 213.453 333.745 213.18 333.946 212.978C334.148 212.777 334.421 212.664 334.706 212.664H336.075C336.615 212.66 337.133 212.444 337.515 212.062C337.897 211.68 338.113 211.162 338.117 210.622V205.901C338.113 205.36 337.897 204.843 337.515 204.46C337.133 204.078 336.615 203.862 336.075 203.859H334.316C334.175 203.859 334.036 203.831 333.905 203.777C333.775 203.723 333.657 203.644 333.557 203.544C333.457 203.445 333.378 203.326 333.324 203.196C333.27 203.066 333.242 202.926 333.242 202.785C333.242 202.644 333.27 202.504 333.324 202.374C333.378 202.244 333.457 202.125 333.557 202.026C333.657 201.926 333.775 201.847 333.905 201.793C334.036 201.739 334.175 201.711 334.316 201.711H336.075C336.625 201.711 337.17 201.819 337.678 202.03C338.187 202.24 338.648 202.549 339.037 202.938C339.427 203.327 339.735 203.789 339.946 204.297C340.156 204.806 340.265 205.351 340.265 205.901V210.622C340.265 211.172 340.156 211.717 339.946 212.225C339.735 212.733 339.427 213.195 339.037 213.584C338.648 213.973 338.187 214.282 337.678 214.493C337.17 214.703 336.625 214.812 336.075 214.812Z" fill="white"/>
<path d="M438.722 217.047H389.411C389.225 217.046 389.043 216.991 388.888 216.888C388.733 216.785 388.611 216.639 388.538 216.468L374.882 185.334C374.82 185.189 374.795 185.03 374.808 184.873C374.822 184.716 374.874 184.564 374.961 184.432C375.047 184.3 375.165 184.192 375.304 184.116C375.443 184.041 375.598 184.001 375.756 184H425.066C425.253 183.999 425.435 184.052 425.592 184.153C425.749 184.253 425.874 184.397 425.951 184.567L439.607 215.701C439.669 215.848 439.694 216.008 439.679 216.166C439.665 216.325 439.612 216.478 439.524 216.611C439.437 216.744 439.317 216.853 439.177 216.929C439.037 217.005 438.881 217.046 438.722 217.047Z" fill="#FFC305"/>
<path d="M388.737 217.398H462.82V214.979H388.737V217.398Z" fill="white"/>
<path d="M388.732 217.398H439.812V214.979H388.732V217.398Z" fill="white"/>
<path d="M408.072 196.924C408.339 197.429 408.451 198.002 408.394 198.571C408.337 199.14 408.113 199.679 407.751 200.121C407.389 200.563 406.904 200.889 406.357 201.057C405.811 201.224 405.227 201.227 404.679 201.065C404.131 200.902 403.643 200.581 403.277 200.143C402.91 199.704 402.681 199.167 402.619 198.598C402.556 198.03 402.663 197.456 402.926 196.948C403.188 196.44 403.595 196.021 404.094 195.744C404.778 195.374 405.581 195.291 406.327 195.512C407.072 195.733 407.7 196.241 408.072 196.924Z" fill="white"/>
<path d="M230.31 116.065C230.31 116.065 233.272 125.236 233.272 127.018C233.25 128.305 233.152 129.59 232.977 130.866L235.586 134.914C235.738 135.174 235.786 135.483 235.718 135.777C235.65 136.072 235.471 136.328 235.22 136.495L231.195 138.856C231.195 138.856 230.605 148.298 230.015 149.478C229.425 150.658 219.393 150.375 219.393 150.375L216.135 156.583L199.258 150.08L203.696 137.935L202.775 119.606C202.775 119.606 213.137 110.447 230.31 116.065Z" fill="#FFBE9D"/>
<path d="M218.759 138.368C218.759 138.368 215.82 141.129 213.613 141.318C211.406 141.507 204.23 139.843 203.675 139.111C203.121 138.379 198.164 128.076 198.341 123.107C198.518 118.138 198.718 110.785 204.041 108.401C209.364 106.017 217.838 106.737 222.252 103.987C226.666 101.237 233.653 99.0185 237.336 103.798C241.018 108.578 238.256 115.2 235.317 117.961C232.379 120.723 228.696 121.502 229.062 122.682C229.428 123.863 231.635 125.255 230.349 127.096C229.062 128.938 224.447 130.637 224.447 131.322C224.447 132.006 225.557 134.638 224.27 135.004C222.984 135.37 221.686 132.431 220.399 132.431C219.113 132.431 216.375 135.984 218.759 138.368Z" fill="#0F2531" stroke="#0F2531" stroke-linecap="round" stroke-linejoin="round"/>
<path d="M211.08 129.922C210.55 130.515 210.098 131.173 209.734 131.881" stroke="white" stroke-width="0.5" stroke-linecap="round" stroke-linejoin="round"/>
<path d="M235.245 110.867C235.012 112.893 234.273 114.827 233.098 116.494C231.923 118.16 230.348 119.504 228.518 120.403C223.797 122.847 217.506 124.841 213.328 127.91" stroke="white" stroke-width="0.5" stroke-linecap="round" stroke-linejoin="round"/>
<path d="M229.063 122.742C229.063 122.742 224.873 126.283 220.388 129.93C217.328 132.299 213.925 134.189 210.297 135.536" stroke="white" stroke-width="0.5" stroke-linecap="round" stroke-linejoin="round"/>
<path d="M218.469 138.859L220.829 139.449C220.686 140.553 220.771 141.674 221.077 142.744C221.384 143.813 221.906 144.809 222.611 145.669" fill="white"/>
<path d="M218.469 138.859L220.829 139.449C220.686 140.553 220.771 141.674 221.077 142.744C221.384 143.813 221.906 144.809 222.611 145.669" stroke="#0F2531" stroke-linecap="round" stroke-linejoin="round"/>
<path d="M221.203 132.521L237.868 128.391" stroke="#0F2531" stroke-linecap="round" stroke-linejoin="round"/>
<path d="M233.586 128.062L237.386 128.228C237.386 128.228 238.696 132.524 234.743 133.019" stroke="#0F2531" stroke-linecap="round" stroke-linejoin="round"/>
<path d="M216.777 332.113C216.777 332.113 232.12 341.803 234.822 341.803C237.525 341.803 238.871 344.234 237.525 344.506C236.18 344.777 227.824 345.037 222.182 345.308C216.541 345.58 212.74 345.037 209.518 345.037C206.296 345.037 202.508 345.308 200.891 344.506C199.274 343.703 201.976 334.533 201.976 332.916C201.976 331.299 214.888 331.027 216.777 332.113Z" fill="#0F2531" stroke="#0F2531" stroke-linecap="round" stroke-linejoin="round"/>
<path d="M236.553 342.202C230.593 344.161 220.927 342.875 215.12 342.344C210.529 341.931 203.317 341.836 200.379 341.812C200.261 343.193 200.379 344.244 200.839 344.503C202.456 345.306 206.233 345.035 209.466 345.035C212.7 345.035 216.465 345.577 222.13 345.306C227.796 345.035 236.14 344.763 237.474 344.503C238.524 344.291 238.028 342.898 236.553 342.202Z" fill="white" stroke="#0F2531" stroke-linecap="round" stroke-linejoin="round"/>
<path d="M228.9 265.555L216.79 326.278L219.316 332.58C217.504 335.205 214.769 337.051 211.656 337.75C208.195 338.43 204.679 338.794 201.152 338.836C201.152 338.836 199.807 332.097 200.621 331.282C201.436 330.468 201.695 327.246 201.695 327.246L208.694 266.086L228.9 265.555Z" fill="#0F2531" stroke="#0F2531" stroke-linecap="round" stroke-linejoin="round"/>
<path d="M265.813 330.056C265.813 330.056 275.255 337.869 279.562 339.215C283.87 340.56 288.45 341.906 288.45 343.251C288.45 344.597 278.217 345.942 270.404 345.14C262.591 344.337 250.729 340.832 248.038 340.832C245.347 340.832 245.878 333.821 245.878 332.747C245.878 331.673 259.085 323.046 265.813 330.056Z" fill="#0F2531" stroke="#0F2531" stroke-linecap="round" stroke-linejoin="round"/>
<path d="M288.495 343.258C288.495 342.774 287.893 342.291 286.937 341.807C279.225 342.838 271.407 342.783 263.71 341.641C255.956 340.532 249.465 339.045 246.148 338.219C246.432 339.67 246.986 340.839 248.084 340.839C250.775 340.839 262.636 344.38 270.45 345.147C278.263 345.914 288.495 344.604 288.495 343.258Z" fill="white" stroke="#0F2531" stroke-linecap="round" stroke-linejoin="round"/>
<path d="M218.934 238.327C227.012 237.709 235.133 237.891 243.176 238.87C256.914 240.487 287.612 242.411 288.143 245.881C288.674 249.351 264.326 322.278 264.326 324.154C264.326 326.031 266.474 327.931 267.016 329.005C267.359 329.771 267.544 330.598 267.559 331.436C267.559 331.436 260.962 338.518 255.84 340.442C250.717 342.365 246.398 340.56 245.335 340.56C244.273 340.56 244.261 333.289 245.076 329.784C245.89 326.279 247.224 317.391 247.495 316.589C247.767 315.786 262.52 263.927 262.52 263.927C262.52 263.927 222.392 270.394 198.421 267.692C174.45 264.989 172.019 261.236 170.674 255.571C169.328 249.905 172.019 238.599 172.019 238.599L218.934 238.327Z" fill="#0F2531" stroke="#0F2531" stroke-linecap="round" stroke-linejoin="round"/>
<path d="M215.903 255.789C215.359 256.577 214.751 257.319 214.086 258.008" stroke="#0F2531" stroke-linecap="round" stroke-linejoin="round"/>
<path d="M223.253 241.305C221.704 245.183 219.919 248.963 217.906 252.623" stroke="#0F2531" stroke-linecap="round" stroke-linejoin="round"/>
<path d="M220.041 244C216.79 249.363 211.868 253.509 206.031 255.802" stroke="#0F2531" stroke-linecap="round" stroke-linejoin="round"/>
<path d="M281.195 258.863C282.116 258.509 283.001 258.143 283.839 257.766L281.195 258.863Z" fill="white"/>
<path d="M281.195 258.863C282.116 258.509 283.001 258.143 283.839 257.766" stroke="#0F2531" stroke-linecap="round" stroke-linejoin="round"/>
<path d="M262.523 263.93C267.708 262.929 272.83 261.632 277.867 260.047L262.523 263.93Z" fill="white"/>
<path d="M262.523 263.93C267.708 262.929 272.83 261.632 277.867 260.047" stroke="#0F2531" stroke-linecap="round" stroke-linejoin="round"/>
<path d="M293.674 174.462C294.241 172.208 295.185 172.385 294.43 171.641C293.391 170.602 292.553 171.83 289.544 173.518C286.534 175.205 283.536 177.271 283.536 177.271C283.602 176.644 283.862 176.054 284.28 175.583C285.041 174.339 285.449 172.911 285.46 171.452C285.46 170.272 284.516 170.508 284.138 171.641C283.76 172.774 280.385 174.828 280.196 175.772C280.007 176.716 279.335 180.422 279.335 180.422C278.261 182.039 278.261 189.581 278.261 189.581L256.391 206.01L245.344 218.992C245.344 218.992 250.195 226.805 252.885 225.731C255.576 224.657 256.922 223.572 263.39 218.178C268.866 213.61 282.592 192.543 282.592 192.543C284.983 191.042 287.245 189.344 289.355 187.468C291.789 184.715 293.227 181.223 293.438 177.554C293.388 176.517 293.467 175.479 293.674 174.462Z" fill="#FFBE9D"/>
<path d="M192.48 149.531C192.48 149.531 194.557 141.742 203.386 143.3C212.214 144.858 218.965 152.128 220.523 154.724C222.081 157.321 191.961 153.686 191.961 153.686L192.48 149.531Z" fill="#5E55D9"/>
<path d="M243.374 217.559C243.374 217.559 241.32 219.778 243.374 223.271C244.778 225.691 247.257 227.544 252.001 226.729C256.439 225.95 263.107 214.927 263.107 207.173C263.107 199.419 257.395 198.911 255.318 200.422C253.24 201.933 243.374 217.559 243.374 217.559Z" fill="#5E55D9"/>
<path d="M196.298 148.619C196.298 148.619 175.29 158.592 172.327 160.421C169.365 162.25 167.477 185.737 167.477 189.785C167.477 193.834 170.439 233.454 171.242 240.158C172.044 246.862 197.915 251.476 206.542 249.045C215.17 246.614 223.573 240.488 223.573 238.329C223.573 236.169 222.759 217.863 223.302 214.358C223.845 210.853 228.684 196.041 228.684 196.041L243.389 219.504C243.389 219.504 244.936 222.384 250.4 220.118C258.213 216.884 258.862 204.385 258.862 204.385C258.862 204.385 250.247 189.302 247.815 181.76C245.384 174.218 244.275 168.553 243.236 167.207C242.197 165.862 217.908 154.544 213.6 151.581C211.161 149.744 208.318 148.517 205.308 148.001C202.299 147.486 199.209 147.698 196.298 148.619Z" fill="#5E55D9"/>
<path d="M228.632 196.049L221.633 185.805" stroke="#0F2531" stroke-linecap="round" stroke-linejoin="round"/>
<path d="M227.498 194.578L215.164 188.5" stroke="#0F2531" stroke-linecap="round" stroke-linejoin="round"/>
<path d="M190.945 271.849L201.709 348.352C201.734 348.529 201.795 348.699 201.89 348.851C201.984 349.004 202.109 349.134 202.257 349.236C202.404 349.337 202.572 349.406 202.748 349.439C202.924 349.471 203.105 349.467 203.279 349.426C203.581 349.351 203.847 349.171 204.029 348.918C204.211 348.665 204.296 348.355 204.27 348.045L196.681 270.586L190.945 271.849Z" fill="#0F2531" stroke="#0F2531" stroke-linecap="round" stroke-linejoin="round"/>
<path d="M160.021 272.461L142.034 347.595C141.993 347.769 141.989 347.95 142.022 348.126C142.055 348.302 142.124 348.469 142.225 348.617C142.326 348.765 142.457 348.89 142.609 348.984C142.761 349.078 142.931 349.14 143.108 349.165C143.416 349.21 143.73 349.142 143.991 348.973C144.252 348.803 144.442 348.544 144.525 348.244L165.415 275.329L160.021 272.461Z" fill="#0F2531" stroke="#0F2531" stroke-linecap="round" stroke-linejoin="round"/>
<path d="M192.689 271.523L181.241 347.92C181.215 348.096 181.225 348.276 181.27 348.448C181.316 348.62 181.397 348.781 181.508 348.92C181.619 349.06 181.757 349.175 181.914 349.259C182.071 349.343 182.244 349.393 182.421 349.407C182.731 349.424 183.037 349.329 183.283 349.138C183.528 348.947 183.695 348.674 183.755 348.369L198.284 273.919L192.689 271.523Z" fill="#0F2531" stroke="#0F2531" stroke-linecap="round" stroke-linejoin="round"/>
<path d="M233.219 271.857L243.983 348.36C244.007 348.537 244.069 348.707 244.163 348.859C244.257 349.012 244.382 349.142 244.53 349.244C244.678 349.345 244.845 349.414 245.021 349.447C245.197 349.479 245.378 349.475 245.552 349.434C245.855 349.359 246.121 349.179 246.302 348.926C246.484 348.673 246.57 348.363 246.544 348.053L238.919 270.57L233.219 271.857Z" fill="#0F2531" stroke="#0F2531" stroke-linecap="round" stroke-linejoin="round"/>
<path d="M142.986 192.453L156.087 277.63H249.255C249.255 277.63 250.635 253.081 246.528 244.407C242.421 235.732 191.706 254.332 189.877 253.849C188.52 253.506 190.526 209.531 193.016 192.346C193.191 191.137 193.103 189.904 192.759 188.731C192.414 187.558 191.822 186.473 191.022 185.55C190.221 184.626 189.231 183.886 188.12 183.378C187.008 182.871 185.8 182.609 184.578 182.609H151.413C150.181 182.608 148.964 182.874 147.845 183.388C146.726 183.903 145.732 184.653 144.931 185.589C144.13 186.524 143.541 187.623 143.206 188.807C142.87 189.992 142.795 191.236 142.986 192.453Z" fill="#5B5B5B"/>
<path d="M246.534 244.413C242.427 235.738 191.712 254.338 189.883 253.855C188.526 253.512 190.532 209.537 193.022 192.352C193.24 191.158 193.192 189.931 192.881 188.757C192.57 187.583 192.005 186.493 191.225 185.563C190.445 184.632 189.47 183.886 188.368 183.375C187.267 182.865 186.066 182.603 184.852 182.609C183.639 182.616 182.441 182.889 181.345 183.411C180.249 183.932 179.281 184.689 178.51 185.627C177.74 186.565 177.185 187.662 176.887 188.838C176.588 190.015 176.552 191.243 176.782 192.435L189.883 277.613H249.261C249.261 277.613 250.641 253.087 246.534 244.413Z" fill="#0F2531" stroke="#0F2531" stroke-linecap="round" stroke-linejoin="round"/>
<path d="M293.667 174.461C293.667 174.461 292.168 175.96 289.914 178.592L293.667 174.461Z" fill="white"/>
<path d="M293.667 174.461C293.667 174.461 292.168 175.96 289.914 178.592" stroke="#0F2531" stroke-linecap="round" stroke-linejoin="round"/>
<path d="M293.443 177.5C293.443 177.5 291.613 181.218 290.492 182.905L293.443 177.5Z" fill="white"/>
<path d="M293.443 177.5C293.443 177.5 291.613 181.218 290.492 182.905" stroke="#0F2531" stroke-linecap="round" stroke-linejoin="round"/>
<path d="M366.056 159.723C367.303 165.884 359.506 172.352 348.635 174.171C337.764 175.99 327.929 172.423 326.683 166.262C325.436 160.101 333.239 153.513 344.083 151.81C354.927 150.106 364.794 153.538 366.056 159.723Z" fill="#263238"/>
<path d="M370.384 137.805C371.23 136.649 371.563 135.212 371.314 133.801C370.085 127.746 355.675 125.074 339.129 127.819C322.583 130.564 310.175 137.714 311.394 143.808C311.75 145.197 312.648 146.413 313.903 147.203C313.709 147.855 313.673 148.544 313.8 149.218C314.161 150.6 315.075 151.801 316.343 152.561C316.129 153.207 316.087 153.897 316.219 154.57C316.402 155.25 316.724 155.892 317.166 156.456C317.609 157.021 318.163 157.498 318.795 157.86C318.555 158.539 318.497 159.267 318.624 159.981C318.809 160.663 319.138 161.304 319.59 161.865C320.041 162.425 320.607 162.894 321.251 163.241C320.97 163.92 320.894 164.665 321.03 165.391C322.006 170.409 334.033 172.65 347.711 170.361C361.389 168.072 371.784 162.126 370.767 157.099C370.595 156.376 370.226 155.706 369.697 155.158C370.153 154.638 370.491 154.033 370.691 153.378C370.891 152.723 370.948 152.033 370.859 151.351C370.701 150.649 370.359 149.994 369.866 149.448C370.738 148.369 371.133 146.999 370.967 145.627C370.816 144.933 370.489 144.283 370.015 143.734C370.897 142.618 371.278 141.206 371.077 139.801C371.017 139.095 370.779 138.411 370.384 137.805Z" fill="#263238"/>
<path opacity="0.3" d="M370.384 137.805C371.23 136.649 371.563 135.212 371.314 133.801C370.085 127.746 355.675 125.074 339.129 127.819C322.583 130.564 310.175 137.714 311.394 143.808C311.75 145.197 312.648 146.413 313.903 147.203C313.709 147.855 313.673 148.544 313.8 149.218C314.161 150.6 315.075 151.801 316.343 152.561C316.129 153.207 316.087 153.897 316.219 154.57C316.402 155.25 316.724 155.892 317.166 156.456C317.609 157.021 318.163 157.498 318.795 157.86C318.555 158.539 318.497 159.267 318.624 159.981C318.809 160.663 319.138 161.304 319.59 161.865C320.041 162.425 320.607 162.894 321.251 163.241C320.97 163.92 320.894 164.665 321.03 165.391C322.006 170.409 334.033 172.65 347.711 170.361C361.389 168.072 371.784 162.126 370.767 157.099C370.595 156.376 370.226 155.706 369.697 155.158C370.153 154.638 370.491 154.033 370.691 153.378C370.891 152.723 370.948 152.033 370.859 151.351C370.701 150.649 370.359 149.994 369.866 149.448C370.738 148.369 371.133 146.999 370.967 145.627C370.816 144.933 370.489 144.283 370.015 143.734C370.897 142.618 371.278 141.206 371.077 139.801C371.017 139.095 370.779 138.411 370.384 137.805Z" fill="white"/>
<path d="M384.279 79.8957C382.556 71.2763 378.589 63.1677 372.748 56.3262C366.907 49.4847 359.382 44.133 350.875 40.7704C342.367 37.4078 333.155 36.1436 324.097 37.0959C315.039 38.0482 306.431 41.1859 299.074 46.2164C291.717 51.2469 285.852 58.0063 282.025 65.8642C278.199 73.7221 276.535 82.4226 277.191 91.1543C277.846 99.886 280.798 108.364 285.772 115.799C290.746 123.233 297.579 129.382 305.636 133.67C306.925 134.344 308.028 135.307 308.847 136.475C309.666 137.643 310.177 138.98 310.333 140.367C310.339 140.502 310.358 140.636 310.39 140.768C311.637 146.929 326.271 149.653 343.083 146.868C359.895 144.083 372.497 136.835 371.231 130.669C371.213 130.539 371.185 130.41 371.149 130.283C370.754 128.917 370.713 127.487 371.031 126.117C371.349 124.748 372.015 123.481 372.972 122.429C378.051 116.653 381.701 109.84 383.656 102.484C385.611 95.1278 385.824 87.4124 384.279 79.8957Z" fill="#FFC305"/>
<path opacity="0.3" d="M384.279 79.8957C382.556 71.2763 378.589 63.1677 372.748 56.3262C366.907 49.4847 359.382 44.133 350.875 40.7704C342.367 37.4078 333.155 36.1436 324.097 37.0959C315.039 38.0482 306.431 41.1859 299.074 46.2164C291.717 51.2469 285.852 58.0063 282.025 65.8642C278.199 73.7221 276.535 82.4226 277.191 91.1543C277.846 99.886 280.798 108.364 285.772 115.799C290.746 123.233 297.579 129.382 305.636 133.67C306.925 134.344 308.028 135.307 308.847 136.475C309.666 137.643 310.177 138.98 310.333 140.367C310.339 140.502 310.358 140.636 310.39 140.768C311.637 146.929 326.271 149.653 343.083 146.868C359.895 144.083 372.497 136.835 371.231 130.669C371.213 130.539 371.185 130.41 371.149 130.283C370.754 128.917 370.713 127.487 371.031 126.117C371.349 124.748 372.015 123.481 372.972 122.429C378.051 116.653 381.701 109.84 383.656 102.484C385.611 95.1278 385.824 87.4124 384.279 79.8957Z" fill="white"/>
<path d="M330.218 140.351C330.092 140.323 329.977 140.261 329.887 140.171C329.797 140.081 329.737 139.968 329.714 139.847C326.025 121.702 308.142 110.375 307.938 110.328C307.829 110.257 307.744 110.156 307.695 110.039C307.645 109.922 307.634 109.794 307.662 109.672C307.683 109.553 307.742 109.444 307.831 109.359C307.919 109.274 308.034 109.217 308.158 109.196L317.734 107.607L319.436 100.275C319.453 100.159 319.507 100.052 319.592 99.9696C319.676 99.8867 319.787 99.832 319.907 99.8132C320.022 99.7809 320.144 99.7782 320.262 99.8055C320.38 99.8328 320.489 99.8892 320.577 99.9689L328.761 109.636L332.624 97.9739C332.659 97.8667 332.725 97.7715 332.813 97.6986C332.902 97.6257 333.011 97.578 333.127 97.5606C333.244 97.5379 333.366 97.5494 333.478 97.5935C333.59 97.6376 333.686 97.7124 333.755 97.8082L342.231 108.889L345.781 95.8085C345.813 95.694 345.88 95.5921 345.975 95.5158C346.069 95.4395 346.185 95.3924 346.309 95.3805C346.431 95.357 346.558 95.3706 346.673 95.4192C346.789 95.4679 346.886 95.5493 346.952 95.6522L351.372 101.979L360.928 100.384C361.07 100.362 361.217 100.386 361.345 100.452C361.473 100.519 361.575 100.625 361.634 100.752C361.695 100.874 361.711 101.01 361.681 101.14C361.651 101.27 361.576 101.385 361.468 101.468C349.938 110.922 351.156 136.118 351.224 136.378C351.227 136.541 351.164 136.697 351.049 136.814C350.934 136.932 350.776 137.002 350.607 137.01C350.521 137.015 350.435 137.002 350.354 136.974C350.273 136.946 350.199 136.902 350.136 136.845C350.072 136.788 350.022 136.72 349.987 136.644C349.952 136.568 349.934 136.487 349.933 136.405C349.869 135.391 348.756 112.605 359.081 101.974L351.218 103.289C351.093 103.305 350.964 103.288 350.847 103.239C350.73 103.19 350.628 103.112 350.554 103.012L346.702 97.4697L343.17 110.472C343.133 110.582 343.066 110.679 342.976 110.753C342.885 110.828 342.775 110.877 342.656 110.895C342.537 110.914 342.415 110.901 342.302 110.858C342.189 110.816 342.09 110.745 342.014 110.653L333.506 99.5242L329.657 111.128C329.623 111.231 329.561 111.322 329.477 111.392C329.393 111.462 329.29 111.509 329.179 111.527C329.068 111.56 328.948 111.564 328.834 111.537C328.719 111.511 328.614 111.455 328.529 111.376L320.424 101.829L318.92 108.31C318.897 108.431 318.834 108.541 318.742 108.626C318.649 108.71 318.531 108.765 318.404 108.781L309.942 110.181C314.227 113.215 327.795 123.948 330.93 139.68C330.947 139.761 330.948 139.843 330.931 139.922C330.915 140.002 330.882 140.077 330.834 140.144C330.787 140.211 330.726 140.268 330.655 140.311C330.584 140.355 330.505 140.384 330.421 140.398C330.351 140.395 330.282 140.379 330.218 140.351Z" fill="#263238"/>
<path opacity="0.4" d="M338.89 49.8759C346.096 59.0509 340.978 74.2747 327.455 83.9189C313.933 93.5631 297.149 93.8266 289.959 84.6756C282.769 75.5247 287.871 60.2768 301.394 50.6326C314.916 40.9884 331.664 40.6961 338.89 49.8759Z" fill="white"/>
<path opacity="0.4" d="M343.331 87.42C346.226 91.0889 344.162 97.2153 338.748 101.076C333.334 104.936 326.582 105.061 323.691 101.373C320.8 97.6848 322.86 91.5778 328.274 87.7172C333.687 83.8566 340.44 83.7317 343.331 87.42Z" fill="white"/>
</svg>
