<svg width="690" height="350" viewBox="0 0 690 350" fill="none" xmlns="http://www.w3.org/2000/svg">
<path d="M562 280.468C562 392.288 475.591 314.942 369 314.942C262.409 314.942 176 392.288 176 280.468C176 168.648 262.409 78 369 78C475.591 78 562 168.648 562 280.468Z" fill="#F3F3F3"/>
<path d="M444.672 245.105C446.611 243.909 448.233 242.306 449.415 240.421C450.596 238.535 451.304 236.417 451.485 234.23C452.401 224.259 452.377 201.068 432.36 200.427C420.229 200.039 412.077 220.485 419.095 233.773C425.076 245.174 436.002 250.354 444.672 245.105Z" fill="#E8E8F9"/>
<path d="M496.629 317.317C490.939 313.67 476.702 322.674 469.251 333.607L475.862 316.259C479.742 313.231 484.19 310.908 488.979 309.408C499.15 306.031 509.346 300.733 503.656 297.079C498.31 293.65 485.433 301.379 477.718 311.381L486.202 289.103C488.45 287.523 490.951 286.287 493.612 285.441C500.015 283.31 506.417 279.971 502.864 277.667C499.743 275.663 492.556 279.693 487.658 285.306L490.411 278.087C491.986 275.243 493.959 272.608 496.277 270.253C502.808 263.92 507.746 256.791 502.68 255.756C497.614 254.72 489.387 267.139 488.09 278.357L486.674 282.109C487.778 273.953 484.649 264.1 480.271 263.725C475.894 263.35 478.671 269.773 482.184 275.228C484.08 277.999 485.314 281.122 485.801 284.383L479.119 301.941C480.824 289.013 475.862 273.427 468.963 272.872C462.065 272.317 466.434 282.432 472.036 291.091C476.262 297.634 477.446 302.834 477.774 305.558L469.771 326.614C471.188 313.857 466.314 298.332 459.52 298.287C454.278 298.287 455.886 305.183 462.145 314.975C465.275 319.791 467.333 325.152 468.195 330.733L464.417 340.646C464.981 341.042 465.659 341.27 466.362 341.299L467.859 337.352C469.979 335.423 474.405 332.159 482 329.63C492.132 326.254 502.328 321.001 496.629 317.317Z" fill="#6B5EFF"/>
<path d="M465.411 303.334C459.118 305.799 458.049 322.611 462.525 335.061L452.362 319.525C452.189 314.606 452.92 309.641 454.517 304.884C457.755 294.667 459.453 283.303 453.154 285.764C447.239 288.079 445.936 303.04 449.504 315.158L436.449 295.211C436.491 292.463 436.959 289.713 437.836 287.062C439.87 280.628 440.926 273.485 436.975 275.009C433.52 276.359 432.563 284.542 434.231 291.803L430.004 285.336C428.626 282.391 427.651 279.247 427.106 275.988C425.813 266.983 422.942 258.801 419.129 262.294C415.317 265.787 420.54 279.738 428.86 287.373L431.065 290.723C425.111 285.04 415.298 281.789 412.424 285.112C409.55 288.436 416.38 289.959 422.859 290.317C426.216 290.41 429.468 291.244 432.394 292.764L442.684 308.482C433.219 299.512 417.689 294.378 413.19 299.636C408.69 304.895 419.444 307.296 429.743 307.845C437.52 308.266 442.425 310.36 444.823 311.694L457.169 330.534C447.674 321.898 432.245 316.729 428.219 322.203C425.142 326.446 431.668 329.192 443.27 329.875C449.006 330.169 454.554 331.65 459.578 334.229L465.385 343.107C466.036 342.883 466.618 342.468 467.055 341.916L464.738 338.387C464.422 335.538 464.378 330.039 466.79 322.406C470.005 312.222 471.739 300.884 465.411 303.334Z" fill="#6B5EFF"/>
<path d="M388.308 71.4427L388.96 68.2866L385.836 67.7034C385.835 66.9247 385.696 66.1517 385.426 65.4163L388.007 63.7696L386.102 61.0938L383.69 62.6718C382.976 61.9759 382.118 61.427 381.17 61.0594L381.773 58.0977L378.444 57.4688L377.817 60.522C377.127 60.5568 376.445 60.6839 375.791 60.8994L374.055 58.4636L371.233 60.259L372.897 62.546C372.16 63.2255 371.581 64.0434 371.197 64.9475L368.46 64.4329L367.809 67.589L370.63 68.1151C370.676 68.9583 370.88 69.7871 371.233 70.5622L368.822 72.1289L370.715 74.8047L373.283 73.158C374.008 73.7655 374.852 74.2317 375.767 74.5303L375.152 77.5149L378.481 78.1324L379.156 74.8962C379.9 74.824 380.629 74.6427 381.314 74.3588L382.966 76.6458L385.788 74.8505L384.052 72.4147C384.51 71.9238 384.892 71.3731 385.185 70.7795L388.308 71.4427ZM379.94 70.1734C379.429 70.4993 378.828 70.6744 378.213 70.6764C377.597 70.6784 376.995 70.5073 376.482 70.1847C375.97 69.8621 375.569 69.4025 375.332 68.8641C375.094 68.3257 375.031 67.7326 375.149 67.1599C375.267 66.5872 375.562 66.0605 375.995 65.6465C376.429 65.2326 376.982 64.9499 377.586 64.8342C378.189 64.7186 378.815 64.7752 379.384 64.9969C379.953 65.2185 380.44 65.5953 380.784 66.0796C381.244 66.7286 381.414 67.5245 381.256 68.2922C381.097 69.0599 380.624 69.7366 379.94 70.1734Z" fill="#C6C6C9"/>
<path d="M455.087 78.9297H442.027C437.671 78.9297 434.141 82.278 434.141 86.4084V98.7929C434.141 102.923 437.671 106.272 442.027 106.272H455.087C459.442 106.272 462.973 102.923 462.973 98.7929V86.4084C462.973 82.278 459.442 78.9297 455.087 78.9297Z" fill="#FFAA01"/>
<path d="M444.145 91.7187V86.4813C444.145 86.3296 444.186 86.1805 444.265 86.0484C444.344 85.9164 444.457 85.8059 444.594 85.7276C444.731 85.6494 444.887 85.6061 445.047 85.6019C445.207 85.5977 445.366 85.6328 445.507 85.7037L450.909 88.3682L456.083 90.9411C456.235 91.0151 456.362 91.1273 456.451 91.2655C456.54 91.4037 456.587 91.5625 456.587 91.7244C456.587 91.8864 456.54 92.0452 456.451 92.1834C456.362 92.3216 456.235 92.4338 456.083 92.5078L450.909 95.0693L445.507 97.7451C445.364 97.8131 445.206 97.8455 445.046 97.8392C444.887 97.833 444.731 97.7883 444.595 97.7093C444.459 97.6304 444.346 97.5198 444.267 97.388C444.188 97.2562 444.146 97.1076 444.145 96.9561V91.7187Z" fill="white"/>
<path d="M377.603 341.295C411.462 341.295 438.91 337.824 438.91 333.542C438.91 329.26 411.462 325.789 377.603 325.789C343.745 325.789 316.297 329.26 316.297 333.542C316.297 337.824 343.745 341.295 377.603 341.295Z" fill="#E8E8F9"/>
<path d="M396.98 323.547H396.883C396.883 323.547 386.031 322.198 386.031 313.781V255.461H375.757V313.781C375.757 322.198 364.904 323.547 364.904 323.547H364.819C362.295 323.547 359.874 324.497 358.087 326.189C356.301 327.881 355.296 330.175 355.293 332.569H406.543C406.543 331.381 406.295 330.204 405.814 329.106C405.333 328.008 404.627 327.012 403.739 326.173C402.85 325.335 401.796 324.671 400.636 324.221C399.476 323.77 398.233 323.541 396.98 323.547Z" fill="#542BDA"/>
<path d="M438.587 245.695H327.414C328.305 241.63 330.898 237.955 334.737 235.312C338.577 232.67 343.418 231.229 348.414 231.242L383.001 231.321L417.588 231.242C422.583 231.229 427.424 232.67 431.264 235.312C435.104 237.955 437.696 241.63 438.587 245.695Z" fill="#6B5EFF"/>
<path d="M358.008 148.859C358.008 148.859 343.044 167.796 341.054 184.309C339.643 195.973 358.008 213.4 358.008 213.4L364.339 210.404L358.033 196.888C355.79 190.324 353.028 187.74 355.066 181.096L359.636 171.753L358.008 148.859Z" fill="#542BDA"/>
<path d="M405.192 148.539C405.192 148.539 419.964 168.734 421.194 185.315C422.243 199.609 404.155 213.366 404.155 213.366L398.934 210.896L406.169 197.265C408.412 190.701 409.473 186.745 406.422 179.597L402.527 171.73L405.192 148.539Z" fill="#542BDA"/>
<path d="M361.057 191.941L351.133 221.879C351.133 221.879 394.098 227.07 407.242 223.708L400.561 191.163L405.192 148.589C398.77 145.993 391.943 144.409 384.982 143.901C374.816 143.203 368.401 144.793 358.006 148.875L361.057 191.941Z" fill="#6B5EFF"/>
<path d="M371.802 157.844C381.281 156.792 390.095 150.617 390.505 150.342C390.562 150.302 390.609 150.253 390.645 150.195C390.681 150.138 390.704 150.075 390.715 150.009C390.725 149.943 390.721 149.876 390.704 149.812C390.686 149.747 390.656 149.687 390.614 149.633C390.572 149.58 390.519 149.535 390.459 149.501C390.399 149.467 390.332 149.444 390.263 149.435C390.193 149.425 390.123 149.429 390.055 149.445C389.987 149.462 389.923 149.491 389.866 149.53C389.758 149.61 379.387 156.872 369.367 156.998C369.226 156.998 369.091 157.051 368.991 157.145C368.892 157.239 368.836 157.367 368.836 157.501C368.836 157.634 368.892 157.762 368.991 157.857C369.091 157.951 369.226 158.004 369.367 158.004C370.181 157.992 370.994 157.939 371.802 157.844Z" fill="#542BDA"/>
<path d="M379.434 318.234L380.205 324.844L387.621 325.004L388.249 319.527L379.434 318.234Z" fill="#FBA691"/>
<path d="M378.228 213.449C378.228 213.449 359.03 212.443 352.531 217.486C346.031 222.529 347.333 237.017 353.954 240.962C360.574 244.908 371.873 252.684 371.873 252.684L379.108 320.404L388.598 320.701C388.598 320.701 397.341 252.684 392.903 239.51C388.466 226.337 378.228 213.449 378.228 213.449Z" fill="#001030"/>
<path d="M389.467 317.343C389.908 318.872 389.823 320.495 389.226 321.975L378.301 321.746C377.921 320.248 377.852 318.695 378.096 317.172L389.467 317.343Z" fill="#2E3062"/>
<path d="M405.447 212.887H355.065L350.411 187.066C350.316 186.541 350.343 186.003 350.49 185.489C350.638 184.975 350.901 184.498 351.263 184.091C351.625 183.684 352.076 183.356 352.584 183.131C353.093 182.907 353.648 182.79 354.209 182.789H406.291C406.853 182.788 407.409 182.904 407.92 183.128C408.43 183.352 408.883 183.679 409.246 184.087C409.609 184.494 409.873 184.972 410.021 185.487C410.169 186.001 410.196 186.54 410.101 187.066L405.447 212.887Z" fill="#FFAA01"/>
<path d="M355.062 212.898H405.492V214.374C405.492 215.471 405.032 216.524 404.213 217.301C403.395 218.077 402.285 218.513 401.127 218.513H359.428C358.27 218.513 357.16 218.077 356.341 217.301C355.522 216.524 355.062 215.471 355.062 214.374V212.898Z" fill="#F88800"/>
<path d="M384.743 198.94C384.743 199.761 384.486 200.564 384.005 201.246C383.524 201.929 382.841 202.461 382.041 202.775C381.241 203.089 380.361 203.172 379.512 203.011C378.663 202.851 377.883 202.456 377.27 201.875C376.658 201.295 376.241 200.555 376.072 199.75C375.903 198.945 375.99 198.11 376.321 197.352C376.653 196.593 377.214 195.945 377.934 195.489C378.654 195.033 379.5 194.789 380.366 194.789C380.941 194.788 381.511 194.894 382.043 195.102C382.574 195.31 383.058 195.616 383.464 196.002C383.871 196.387 384.194 196.845 384.413 197.35C384.632 197.854 384.744 198.395 384.743 198.94Z" fill="#FDCC50"/>
<path d="M347.953 299.648L346.312 306.189L352.969 307.436L355.67 301.592L347.953 299.648Z" fill="#FBA691"/>
<path d="M388.034 212.32C388.034 212.32 375.167 208.112 367.631 216.894C360.094 225.677 347.48 300.258 347.48 300.258L356.127 303.689L383.946 237.501C383.946 237.501 406.592 249.748 409.342 232.332C411.512 218.541 388.034 212.32 388.034 212.32Z" fill="#2E3062"/>
<path d="M358.092 300.27C357.998 301.905 357.36 303.47 356.272 304.741L345.672 301.173C345.811 299.601 346.265 298.067 347.01 296.656L358.092 300.27Z" fill="#524E84"/>
<path d="M351.384 305.115C349.698 304.279 347.953 303.553 346.163 302.943C344.957 302.725 335.177 309.324 332.392 309.255C327.363 309.141 325.747 316.116 328.605 317.111C336.89 319.867 352.216 319.524 352.216 319.524C352.216 319.524 355.617 310.799 355.677 307.86C355.737 304.921 353.567 306.431 351.384 305.115Z" fill="#FFAA01"/>
<path d="M342.584 311.337C342.658 311.368 342.738 311.384 342.819 311.384C342.9 311.384 342.98 311.368 343.054 311.337C343.2 311.281 343.317 311.173 343.38 311.036C343.443 310.899 343.447 310.745 343.392 310.605C342.811 309.272 341.897 308.095 340.727 307.174C340.117 306.757 339.402 306.501 338.654 306.433C337.906 306.364 337.152 306.486 336.47 306.785C336.333 306.856 336.231 306.974 336.186 307.116C336.14 307.257 336.156 307.41 336.229 307.54C336.307 307.672 336.437 307.769 336.59 307.812C336.743 307.854 336.907 307.839 337.049 307.769C337.534 307.573 338.064 307.499 338.588 307.555C339.113 307.611 339.612 307.795 340.039 308.089C341.013 308.887 341.777 309.889 342.27 311.017C342.296 311.088 342.337 311.153 342.391 311.208C342.445 311.263 342.511 311.307 342.584 311.337Z" fill="white"/>
<path d="M344.586 310.02C344.737 310.078 344.905 310.078 345.056 310.02C345.13 309.995 345.198 309.956 345.256 309.905C345.314 309.854 345.36 309.792 345.391 309.723C345.423 309.655 345.44 309.581 345.44 309.506C345.44 309.431 345.425 309.357 345.394 309.288C344.82 307.952 343.904 306.773 342.729 305.858C342.111 305.443 341.386 305.192 340.632 305.131C339.877 305.071 339.119 305.203 338.436 305.515C338.366 305.55 338.305 305.597 338.255 305.655C338.205 305.712 338.168 305.779 338.146 305.85C338.123 305.921 338.116 305.996 338.124 306.07C338.133 306.144 338.157 306.216 338.195 306.281C338.273 306.412 338.403 306.51 338.556 306.552C338.709 306.595 338.873 306.58 339.015 306.51C339.498 306.306 340.03 306.229 340.556 306.285C341.081 306.341 341.582 306.529 342.005 306.83C342.982 307.617 343.744 308.618 344.224 309.746C344.304 309.877 344.433 309.975 344.586 310.02Z" fill="white"/>
<path d="M339.979 312.285C340.129 312.343 340.298 312.343 340.449 312.285C340.522 312.258 340.589 312.218 340.646 312.167C340.703 312.115 340.748 312.054 340.779 311.986C340.811 311.918 340.828 311.844 340.829 311.77C340.83 311.696 340.816 311.622 340.786 311.553C340.208 310.219 339.293 309.041 338.121 308.122C337.511 307.708 336.796 307.454 336.048 307.386C335.301 307.318 334.548 307.437 333.865 307.733C333.795 307.768 333.734 307.816 333.684 307.873C333.635 307.931 333.598 307.998 333.577 308.07C333.555 308.141 333.549 308.217 333.56 308.29C333.57 308.364 333.596 308.435 333.636 308.5C333.674 308.566 333.725 308.624 333.787 308.672C333.848 308.719 333.919 308.754 333.996 308.776C334.072 308.797 334.152 308.804 334.231 308.795C334.31 308.787 334.386 308.764 334.456 308.728C334.937 308.525 335.467 308.447 335.991 308.504C336.515 308.56 337.013 308.748 337.434 309.048C338.418 309.833 339.183 310.834 339.665 311.964C339.724 312.104 339.836 312.219 339.979 312.285Z" fill="white"/>
<path d="M383.05 324.572C384.779 324.05 386.544 323.645 388.332 323.359C389.538 323.359 397.533 331.078 400.149 331.456C404.901 332.142 405.19 338.98 402.332 339.46C394.072 340.753 379.746 338.019 379.746 338.019C379.746 338.019 378.07 329.283 378.54 326.516C379.011 323.748 380.783 325.463 383.05 324.572Z" fill="#FFAA01"/>
<path d="M390.287 331.821C390.177 331.852 390.06 331.85 389.951 331.815C389.842 331.781 389.747 331.716 389.677 331.63C389.608 331.543 389.568 331.438 389.563 331.33C389.558 331.221 389.588 331.113 389.648 331.021C390.429 329.861 391.497 328.899 392.759 328.219C393.404 327.922 394.121 327.794 394.836 327.848C395.55 327.902 396.237 328.137 396.823 328.528C396.882 328.571 396.932 328.626 396.968 328.688C397.004 328.749 397.027 328.818 397.035 328.888C397.043 328.959 397.036 329.03 397.014 329.098C396.992 329.166 396.956 329.228 396.908 329.283C396.811 329.394 396.672 329.465 396.521 329.48C396.37 329.495 396.219 329.453 396.1 329.363C395.681 329.098 395.197 328.943 394.695 328.913C394.193 328.883 393.692 328.979 393.242 329.191C392.186 329.785 391.293 330.608 390.637 331.593C390.554 331.707 390.429 331.788 390.287 331.821Z" fill="white"/>
<path d="M388.598 330.251C388.447 330.284 388.288 330.264 388.152 330.194C388.087 330.158 388.031 330.109 387.986 330.052C387.942 329.995 387.909 329.93 387.891 329.861C387.873 329.792 387.87 329.72 387.882 329.649C387.893 329.579 387.92 329.511 387.959 329.451C388.736 328.288 389.805 327.325 391.07 326.649C391.713 326.352 392.428 326.223 393.141 326.278C393.853 326.332 394.538 326.567 395.122 326.958C395.181 326.999 395.231 327.052 395.269 327.113C395.306 327.173 395.33 327.24 395.339 327.31C395.348 327.379 395.342 327.45 395.321 327.517C395.301 327.585 395.266 327.647 395.218 327.701C395.122 327.812 394.984 327.883 394.834 327.9C394.683 327.917 394.532 327.879 394.41 327.793C393.99 327.528 393.503 327.373 393 327.343C392.496 327.313 391.993 327.409 391.54 327.621C390.488 328.215 389.597 329.034 388.936 330.011C388.899 330.071 388.851 330.122 388.793 330.164C388.735 330.205 388.668 330.235 388.598 330.251Z" fill="white"/>
<path d="M392.528 333.103C392.453 333.122 392.375 333.127 392.299 333.117C392.222 333.107 392.148 333.083 392.082 333.045C392.016 333.011 391.959 332.965 391.914 332.909C391.868 332.852 391.835 332.788 391.817 332.719C391.799 332.651 391.796 332.579 391.808 332.509C391.821 332.439 391.848 332.373 391.889 332.314C392.664 331.146 393.733 330.18 395 329.5C395.645 329.203 396.362 329.075 397.076 329.129C397.791 329.184 398.477 329.418 399.064 329.809C399.18 329.899 399.255 330.029 399.27 330.17C399.286 330.311 399.242 330.453 399.148 330.564C399.052 330.675 398.913 330.746 398.762 330.761C398.61 330.776 398.459 330.734 398.34 330.644C397.921 330.381 397.437 330.226 396.935 330.196C396.434 330.166 395.933 330.261 395.482 330.472C394.421 331.064 393.523 331.887 392.866 332.874C392.788 332.988 392.667 333.07 392.528 333.103Z" fill="white"/>
<path d="M366.174 124.972C366.174 124.972 360.012 114.989 365.209 107.27C370.406 99.5516 381.44 100.283 384.31 100.889C387.18 101.496 403.604 108.814 393.667 126.573L366.174 124.972Z" fill="#2E3062"/>
<path d="M367.206 122.151C367.206 122.151 364.722 118.995 362.865 121.602C361.008 124.209 363.625 131.894 368.171 130.041L367.206 122.151Z" fill="#FB876B"/>
<path d="M367.182 127.658C367.098 127.659 367.016 127.633 366.949 127.586C366.881 127.538 366.832 127.471 366.808 127.395C366.534 126.645 366.096 125.959 365.522 125.382C364.948 124.805 364.252 124.349 363.48 124.044C363.433 124.028 363.389 124.002 363.352 123.97C363.316 123.937 363.286 123.898 363.266 123.854C363.246 123.81 363.235 123.763 363.234 123.715C363.234 123.667 363.244 123.62 363.263 123.575C363.298 123.484 363.37 123.411 363.463 123.37C363.555 123.329 363.661 123.325 363.757 123.358C364.644 123.7 365.442 124.221 366.096 124.884C366.75 125.548 367.244 126.338 367.544 127.2C367.558 127.246 367.563 127.294 367.557 127.342C367.552 127.389 367.536 127.435 367.512 127.477C367.487 127.519 367.453 127.555 367.413 127.584C367.373 127.613 367.327 127.635 367.278 127.646L367.182 127.658Z" fill="#D45C48"/>
<path d="M364.556 126.463C364.484 126.461 364.413 126.442 364.351 126.406C364.308 126.38 364.271 126.347 364.243 126.307C364.214 126.268 364.194 126.223 364.183 126.176C364.173 126.129 364.173 126.081 364.183 126.034C364.194 125.987 364.214 125.942 364.243 125.903C364.596 125.399 365.094 125.002 365.678 124.759C365.768 124.732 365.865 124.738 365.952 124.774C366.038 124.811 366.107 124.877 366.146 124.958C366.184 125.04 366.19 125.133 366.161 125.218C366.133 125.304 366.073 125.376 365.991 125.422C365.552 125.606 365.17 125.893 364.882 126.257C364.851 126.315 364.805 126.364 364.748 126.401C364.691 126.437 364.625 126.458 364.556 126.463Z" fill="#D45C48"/>
<path d="M392.917 122.151C392.917 122.151 395.414 118.995 397.271 121.602C399.128 124.209 396.499 131.894 391.965 130.041L392.917 122.151Z" fill="#FB876B"/>
<path d="M392.955 127.66C393.039 127.661 393.121 127.635 393.188 127.588C393.256 127.54 393.305 127.473 393.329 127.397C393.603 126.648 394.041 125.962 394.615 125.384C395.188 124.807 395.884 124.351 396.657 124.046C396.753 124.012 396.83 123.942 396.872 123.853C396.914 123.764 396.917 123.663 396.88 123.572C396.843 123.481 396.77 123.407 396.676 123.368C396.582 123.328 396.475 123.325 396.379 123.36C395.491 123.703 394.692 124.224 394.037 124.887C393.381 125.55 392.884 126.34 392.581 127.203C392.558 127.295 392.573 127.392 392.622 127.475C392.671 127.557 392.751 127.619 392.846 127.649L392.955 127.66Z" fill="#D45C48"/>
<path d="M395.584 126.463C395.656 126.458 395.726 126.439 395.789 126.406C395.832 126.38 395.869 126.347 395.898 126.307C395.927 126.268 395.947 126.223 395.957 126.176C395.967 126.129 395.967 126.081 395.957 126.034C395.947 125.987 395.926 125.942 395.897 125.903C395.544 125.399 395.046 125.002 394.462 124.759C394.372 124.732 394.275 124.738 394.189 124.774C394.102 124.811 394.033 124.877 393.995 124.958C393.956 125.04 393.95 125.133 393.979 125.218C394.007 125.304 394.068 125.376 394.149 125.422C394.588 125.606 394.97 125.893 395.258 126.257C395.289 126.315 395.336 126.364 395.393 126.401C395.45 126.437 395.516 126.458 395.584 126.463Z" fill="#D45C48"/>
<path d="M386.212 136.57V144.278C386.212 144.278 383.8 148.177 380.544 148.44C377.289 148.703 374.395 145.09 374.395 145.09V137.153L386.212 136.57Z" fill="#FBA691"/>
<path d="M386.212 136.57V140.001C384.017 142.288 380.183 142.883 374.395 142.071V137.142L386.212 136.57Z" fill="#FB876B"/>
<path d="M394.724 116.899C394.601 120.146 394.251 123.382 393.675 126.585C393.544 127.279 393.375 127.966 393.168 128.643C391.468 134.292 387.211 143.978 375.309 139.941C370.052 138.157 367.616 132.611 366.531 126.962C365.914 123.499 365.648 119.987 365.735 116.476C365.754 115.077 366.159 113.708 366.91 112.504C367.662 111.3 368.732 110.304 370.016 109.615C377.046 105.841 384.486 107.247 389.31 109.02C390.973 109.624 392.393 110.711 393.366 112.126C394.338 113.541 394.814 115.212 394.724 116.899Z" fill="#FBA691"/>
<path d="M376.855 106.001C376.855 106.001 392.532 129.89 394.739 121.13C397.801 108.711 388.42 101.027 376.855 106.001Z" fill="#2E3062"/>
<path d="M376.202 105.977C365.747 106.057 360.526 117.32 365.349 118.658C372.102 120.511 377.951 111.454 379.747 108.367C378.59 107.555 377.372 106.8 376.202 105.977Z" fill="#2E3062"/>
<path d="M388.851 109.666C394.129 107.605 396.646 101.877 394.472 96.8727C392.299 91.8679 386.259 89.4813 380.982 91.5421C375.704 93.6028 373.187 99.3306 375.361 104.335C377.534 109.34 383.574 111.727 388.851 109.666Z" fill="#2E3062"/>
<path d="M367.571 117.588C367.571 117.588 368.379 120.584 367.27 122.596C366.16 124.609 366.763 128.074 367.27 131.95C366.07 130.098 365.424 127.972 365.401 125.798C365.304 122.002 365.955 118.845 365.401 117.336L367.571 117.588Z" fill="#2E3062"/>
<path d="M392.257 117.588C392.257 117.588 391.437 120.584 392.546 122.596C393.655 124.609 393.052 128.074 392.546 131.95C393.752 130.101 394.398 127.972 394.415 125.798C394.524 122.002 393.872 118.845 394.415 117.336L392.257 117.588Z" fill="#2E3062"/>
<path d="M374.83 123.335C374.83 124.158 374.383 124.821 373.829 124.821C373.274 124.821 372.84 124.158 372.84 123.335C372.84 122.511 373.286 121.859 373.829 121.859C374.371 121.859 374.83 122.557 374.83 123.335Z" fill="#2E3062"/>
<path d="M387.079 123.335C387.079 124.158 386.633 124.821 386.09 124.821C385.548 124.821 385.102 124.158 385.102 123.335C385.102 122.511 385.536 121.859 386.09 121.859C386.645 121.859 387.079 122.557 387.079 123.335Z" fill="#2E3062"/>
<path d="M371.861 118.192C373.241 117.811 374.669 117.607 376.106 117.586C376.215 117.584 376.323 117.606 376.422 117.648C376.521 117.691 376.609 117.754 376.679 117.833C376.75 117.911 376.801 118.004 376.829 118.104C376.857 118.203 376.861 118.308 376.842 118.409C376.81 118.576 376.715 118.726 376.575 118.831C376.435 118.936 376.26 118.989 376.082 118.981C374.119 118.911 372.157 119.138 370.27 119.656C370.273 119.372 370.394 119.1 370.607 118.901C370.943 118.554 371.379 118.307 371.861 118.192Z" fill="#2E3062"/>
<path d="M387.875 118.22C386.493 117.847 385.066 117.647 383.63 117.625C383.523 117.626 383.418 117.648 383.32 117.691C383.223 117.733 383.137 117.795 383.067 117.872C382.998 117.949 382.946 118.039 382.916 118.137C382.886 118.234 382.879 118.336 382.895 118.437C382.924 118.602 383.016 118.752 383.154 118.857C383.292 118.963 383.465 119.017 383.642 119.009C385.609 118.949 387.573 119.176 389.467 119.683C389.461 119.403 389.339 119.137 389.129 118.94C388.792 118.591 388.357 118.341 387.875 118.22Z" fill="#2E3062"/>
<path d="M380.197 129.407C379.908 129.416 379.621 129.353 379.365 129.224C379.205 129.127 379.072 128.996 378.975 128.841C378.879 128.686 378.822 128.512 378.81 128.332C378.782 126.424 378.859 124.515 379.039 122.615C379.042 122.567 379.056 122.52 379.078 122.478C379.1 122.435 379.132 122.397 379.17 122.366C379.208 122.335 379.253 122.312 379.301 122.297C379.349 122.283 379.399 122.278 379.449 122.283C379.5 122.286 379.55 122.298 379.595 122.319C379.641 122.341 379.682 122.37 379.716 122.406C379.749 122.442 379.775 122.484 379.791 122.53C379.808 122.575 379.814 122.624 379.811 122.672C379.629 124.523 379.549 126.382 379.57 128.241C379.569 128.309 379.586 128.376 379.62 128.436C379.653 128.496 379.703 128.547 379.763 128.584C380.279 128.711 380.825 128.662 381.306 128.447C381.352 128.428 381.402 128.418 381.452 128.418C381.501 128.418 381.551 128.427 381.597 128.445C381.643 128.463 381.685 128.49 381.72 128.523C381.755 128.557 381.782 128.597 381.801 128.641C381.821 128.685 381.831 128.733 381.832 128.781C381.832 128.829 381.823 128.877 381.803 128.921C381.784 128.966 381.756 129.007 381.721 129.041C381.685 129.075 381.643 129.103 381.596 129.121C381.149 129.289 380.677 129.386 380.197 129.407Z" fill="#FB876B"/>
<path d="M375.32 131.703C375.425 132.772 375.944 133.766 376.777 134.493C377.61 135.22 378.698 135.627 379.83 135.637C383.086 135.637 384.003 133.35 384.316 131.703H375.32Z" fill="#F6F6F6"/>
<path d="M379.787 137.714C379.153 137.693 378.534 137.52 377.99 137.211C377.939 137.19 377.893 137.16 377.855 137.121C377.818 137.082 377.79 137.036 377.773 136.986C377.755 136.936 377.75 136.883 377.757 136.83C377.763 136.778 377.782 136.728 377.811 136.683C377.839 136.638 377.878 136.6 377.924 136.57C377.97 136.541 378.023 136.521 378.078 136.513C378.132 136.504 378.188 136.507 378.242 136.521C378.296 136.535 378.345 136.56 378.388 136.593C378.817 136.823 379.295 136.956 379.787 136.982C380.302 136.963 380.806 136.83 381.258 136.593C381.3 136.56 381.35 136.535 381.404 136.521C381.457 136.507 381.513 136.504 381.568 136.513C381.623 136.521 381.675 136.541 381.721 136.57C381.767 136.6 381.806 136.638 381.835 136.683C381.864 136.728 381.882 136.778 381.889 136.83C381.896 136.883 381.89 136.936 381.873 136.986C381.856 137.036 381.828 137.082 381.79 137.121C381.753 137.16 381.707 137.19 381.656 137.211C381.087 137.523 380.444 137.696 379.787 137.714Z" fill="#FB876B"/>
<circle cx="256.486" cy="79.486" r="73.986" fill="#FFE9E9" stroke="#FFAA01"/>
<circle cx="345.199" cy="90.0508" r="5.55866" fill="#FFAA01"/>
<circle cx="361.878" cy="95.6086" r="3.33519" fill="#FFAA01"/>
<path d="M284.72 69.304C283.24 59.6103 273.95 47.1484 255.999 47.1484C238.048 47.1484 228.752 59.6103 227.278 69.304C225.825 78.8342 228.561 84.3323 233.774 92.0795C239.48 100.552 241.639 112.221 241.639 112.221H255.999H270.36C270.36 112.221 272.518 100.552 278.224 92.0795C283.437 84.3323 286.173 78.8294 284.72 69.304Z" fill="#FFAA01"/>
<path d="M255.997 111.722C249.691 111.722 244.123 111.452 240.867 111.039L243.736 128.956C243.821 129.494 249.31 129.927 255.997 129.927C262.684 129.927 268.172 129.494 268.257 128.956L271.126 111.039C267.87 111.452 262.297 111.722 255.997 111.722Z" fill="#1B2536"/>
<path d="M256.002 133.002C260.322 133.002 263.823 130.739 263.823 127.947C263.823 125.154 260.322 122.891 256.002 122.891C251.682 122.891 248.18 125.154 248.18 127.947C248.18 130.739 251.682 133.002 256.002 133.002Z" fill="#1B2536"/>
<path d="M263.636 89.6762L264.978 81.3474H264.967C265.026 81.0254 265.084 80.6938 265.142 80.3526C266.139 74.1721 265.688 68.0781 263.923 68.0781C262.825 68.0781 261.648 70.5628 260.831 74.0183C260.539 70.5628 259.744 68.0781 258.646 68.0781C257.548 68.0781 256.562 70.5628 256.005 74.0183C255.448 70.5628 254.462 68.0781 253.364 68.0781C252.267 68.0781 251.471 70.5628 251.179 74.0183C250.357 70.5628 249.18 68.0781 248.088 68.0781C246.322 68.0781 245.871 74.1721 246.868 80.3526C246.921 80.6938 246.979 81.0206 247.043 81.3474L248.369 89.6762" stroke="white" stroke-width="2" stroke-miterlimit="10" stroke-linecap="round" stroke-linejoin="round"/>
<path d="M242.671 41.5L237.246 28" stroke="#FF6726" stroke-width="3" stroke-miterlimit="10"/>
<path d="M230.942 47.6307L220.75 36.625" stroke="#FF6726" stroke-width="3" stroke-miterlimit="10"/>
<path d="M222.241 57.0365L208.512 49.8516" stroke="#FF6726" stroke-width="3" stroke-miterlimit="10"/>
<path d="M217.612 68.5646L202 66.0703" stroke="#FF6726" stroke-width="3" stroke-miterlimit="10"/>
<path d="M256 25V39.3651" stroke="#FF6726" stroke-width="3" stroke-miterlimit="10"/>
<path d="M274.756 28L269.336 41.5" stroke="#FF6726" stroke-width="3" stroke-miterlimit="10"/>
<path d="M291.246 36.625L281.059 47.6307" stroke="#FF6726" stroke-width="3" stroke-miterlimit="10"/>
<path d="M303.483 49.8516L289.754 57.0365" stroke="#FF6726" stroke-width="3" stroke-miterlimit="10"/>
<path d="M309.999 66.0703L294.387 68.5646" stroke="#FF6726" stroke-width="3" stroke-miterlimit="10"/>
</svg>
