<svg width="690" height="350" viewBox="0 0 690 350" fill="none" xmlns="http://www.w3.org/2000/svg">
<path d="M356.762 252.704C356.494 248.618 355.866 244.559 354.883 240.567C353.952 236.966 352.626 233.284 350.168 230.307C347.911 227.588 344.68 225.452 340.913 224.999C337.296 224.586 333.889 226.075 331.185 228.179C327.822 230.784 325.258 234.231 322.843 237.573C320.197 241.316 317.79 245.199 315.635 249.201C315.565 249.33 315.784 249.443 315.854 249.306C317.724 245.919 319.879 242.673 322.299 239.596C324.503 236.641 326.986 233.871 329.718 231.318C332.203 229.085 335.364 226.989 338.964 226.884C342.564 226.779 345.857 228.64 348.017 231.181C350.431 234.029 351.66 237.581 352.574 241.044C353.527 244.855 354.149 248.73 354.435 252.631C355.146 260.65 355.313 268.718 355.533 276.752C355.638 281.305 355.711 285.856 355.752 290.403C355.752 292.706 355.773 295.013 355.814 297.321C355.721 299.547 355.818 301.777 356.103 303.989C356.182 304.434 356.981 304.393 357.06 303.989C357.352 301.896 357.463 299.786 357.394 297.677C357.453 295.433 357.482 293.232 357.482 291.075C357.482 286.827 357.543 282.578 357.526 278.33C357.482 269.778 357.394 261.217 356.762 252.704Z" fill="#263238"/>
<path d="M328.374 231.668C327.584 231.959 328.655 223.414 325.003 222.322C319.84 220.776 307.995 223.568 301.436 231.668C300.156 233.32 299.191 235.162 298.583 237.113C301.84 235.657 312.631 231.061 315.309 232.469C317.768 233.755 302.332 238.214 297.582 241.086C297.369 242.273 297.225 243.47 297.151 244.671C299.935 242.907 307.503 238.335 310.884 238.335C314.651 238.335 302.174 244.412 297.125 248.773C297.309 253.019 298.295 257.203 300.04 261.137C301.331 258.888 304.176 254.502 307.855 252.139C312.947 248.854 315.186 254.13 308.733 258.305C305.308 260.538 302.841 262.351 301.278 263.613C302.729 266.179 304.665 268.486 306.994 270.426C309.272 268.059 312.149 266.247 315.371 265.151C316.609 264.746 318.646 264.228 321.095 263.468C321.965 260.604 322.552 257.673 322.851 254.712C322.992 251.241 327.452 253.167 325.643 259.341C325.301 260.498 324.985 261.461 324.695 262.254C326.617 261.638 328.451 260.809 330.157 259.786C330.402 257.771 330.034 253.11 329.129 248.725C328.014 243.255 332.536 242.874 333.519 249.76C333.967 252.932 333.309 256.234 333.098 258.378C338.208 255.627 342.44 250.06 342.44 250.06C341.982 246.982 340.782 244.037 338.928 241.442C336.417 237.947 339.13 236.587 341.65 239.727C343.055 241.483 343.88 244.436 344.346 246.702C349.728 230.065 343.055 226.222 328.374 231.668ZM303.921 249.809C302.525 247.948 307.345 244.533 308.39 245.698C309.69 247.212 305.273 251.71 303.921 249.809ZM336.118 242.162C334.169 243.465 332.29 239.152 333.563 238.408C334.836 237.663 337.743 241.078 336.075 242.195L336.118 242.162Z" fill="#37B34A"/>
<path d="M331.595 239.764C330.927 238.55 330.242 237.337 329.479 236.196C328.787 235.047 327.975 233.963 327.055 232.959C327.266 232.724 327.468 232.482 327.687 232.247C327.707 232.228 327.718 232.202 327.717 232.175C327.716 232.149 327.704 232.124 327.683 232.105C327.662 232.087 327.634 232.077 327.605 232.078C327.576 232.079 327.549 232.09 327.529 232.11C327.283 232.368 327.055 232.635 326.809 232.919C326.764 232.942 326.73 232.979 326.713 233.024C325.835 234.027 324.957 235.063 324.131 236.115C322.69 236.42 321.269 236.798 319.873 237.248C318.433 237.693 317.002 238.154 315.606 238.704C315.456 238.761 315.527 238.979 315.676 238.923C317.063 238.356 318.468 237.806 319.908 237.361C321.348 236.916 322.647 236.608 324.026 236.252C323.578 236.835 323.148 237.426 322.718 238.024C320.124 238.777 317.601 239.724 315.175 240.857C312.629 241.973 310.179 243.284 307.738 244.562C307.717 244.582 307.704 244.607 307.7 244.634C307.697 244.661 307.703 244.688 307.718 244.711C307.733 244.735 307.756 244.753 307.784 244.762C307.812 244.772 307.842 244.773 307.87 244.765C310.269 243.473 312.736 242.293 315.263 241.229C317.625 240.209 320.075 239.376 322.454 238.405C316.457 247.03 312.857 256.975 308.055 266.183C307.984 266.321 308.213 266.434 308.274 266.297C309.74 263.06 311.435 259.92 313.033 256.74C314.464 253.892 315.86 251.02 317.3 248.171C317.722 247.341 318.152 246.507 318.591 245.671C318.328 250.275 318.433 254.96 317.616 259.508C317.616 259.538 317.629 259.567 317.652 259.588C317.675 259.609 317.707 259.621 317.739 259.621C317.772 259.621 317.803 259.609 317.826 259.588C317.849 259.567 317.862 259.538 317.862 259.508C318.205 254.588 319.153 249.749 319.109 244.797C319.109 244.797 319.109 244.757 319.109 244.732C320.127 242.855 321.207 240.994 322.384 239.19C324.368 243.503 326.458 247.872 327.38 252.5C327.38 252.646 327.661 252.581 327.617 252.436C326.265 247.799 324.983 243.155 322.595 238.866C323.867 236.913 325.278 235.04 326.818 233.259C327.477 234.399 328.337 235.484 329.092 236.576C329.847 237.668 330.559 238.728 331.243 239.813C332.717 242.137 333.971 244.573 334.993 247.095C335.045 247.241 335.291 247.168 335.23 247.03C334.062 244.611 332.894 242.143 331.595 239.764Z" fill="#263238"/>
<path d="M378.852 250.244C375.006 246.692 370.528 242.023 364.584 242.031C358.85 242.031 354.627 246.304 352.195 250.689C349.657 255.285 348.753 260.488 348.033 265.545C347.19 271.6 346.683 277.69 346.514 283.792C346.409 287.182 346.426 290.581 346.514 293.971C346.52 297.41 346.814 300.843 347.392 304.239C347.497 304.782 348.454 304.806 348.49 304.239C348.656 301.383 348.533 298.519 348.49 295.654C348.446 292.79 348.49 290.031 348.639 287.215C348.861 281.524 349.327 275.86 350.035 270.222C350.667 265.287 351.176 260.205 352.774 255.431C354.223 251.134 356.936 246.207 361.669 244.321C368.131 241.74 374.435 246.449 378.668 250.43C378.773 250.495 378.966 250.349 378.852 250.244Z" fill="#263238"/>
<path d="M390.555 255.804C385.401 255.327 386.814 252.737 391.512 253.87C394.039 254.498 396.42 255.549 398.536 256.969C398.693 253.126 397.987 249.295 396.464 245.714C392.162 244.719 388.246 246.466 384.224 248.198C380.203 249.93 377.516 245.431 382.24 243.27C384.219 242.372 386.388 241.888 388.593 241.851C390.799 241.815 392.985 242.228 394.998 243.06C394.647 242.486 394.263 241.929 393.847 241.393C392.746 239.883 391.422 238.521 389.914 237.347C386.402 237.606 384.444 239.605 383.408 240.236C381.924 241.134 379.588 240.082 381.072 238.14C382.222 236.619 385.102 235.923 387.482 235.713C383.232 233.407 379.009 233.399 376.612 234.402C372.459 236.15 373.618 246.24 373.618 246.24C373.618 246.24 362.721 240.867 359.148 245.099C358.016 246.575 357.243 248.259 356.882 250.035C360.746 248.732 365.487 248.417 365.926 250.545C366.365 252.673 359.876 252.163 356.487 252.495C356.083 256.986 357.216 262.253 361.114 265.967C364.425 260.101 371.783 255.65 372.827 258.879C373.872 262.108 365.97 262.925 362.739 267.319C364.139 268.264 365.661 269.047 367.269 269.649C369.025 267.221 371.984 263.847 373.416 264.867C374.847 265.886 371.115 268.265 368.718 270.183C372.134 271.323 375.643 272.214 379.211 272.845C380.089 269.463 381.766 266.299 383.381 266.59C384.997 266.882 381.862 270.418 380.51 273.064C385.271 273.929 390.091 274.491 394.936 274.747C395.235 274.674 397.219 269.333 398.106 262.682C395.723 261.801 393.184 261.332 390.616 261.298C386.964 261.145 386.621 257.317 392.074 257.851C394.361 258.168 396.527 259.002 398.378 260.279C398.44 259.583 398.483 258.863 398.51 258.135C396.058 256.867 393.351 256.074 390.555 255.804ZM389.194 250.617C389.756 249.477 393.084 249.881 392.759 251.281C392.434 252.681 388.737 251.548 389.194 250.617ZM361.913 260.109C361.711 259.154 363.942 258.288 364.258 259.049C364.574 259.81 362.194 261.339 361.913 260.068V260.109ZM377.604 267.95C375.848 267.092 378.368 263.37 379.992 263.969C381.318 264.422 379.369 268.759 377.604 267.909V267.95Z" fill="#37B34A"/>
<path d="M394.263 274.081C391.814 270.31 389.399 266.515 386.826 262.809C385.632 261.086 384.377 259.395 383.077 257.736C383.27 257.736 383.464 257.647 383.657 257.606L384.631 257.437C385.386 257.312 386.142 257.215 386.897 257.145C387.617 257.08 388.328 257.04 389.048 257.032C389.817 256.993 390.588 257.031 391.348 257.145C391.436 257.145 391.454 257.032 391.348 257.032C390.584 257.032 389.803 256.967 389.03 256.959C388.258 256.951 387.546 256.959 386.8 257.008C386.054 257.056 385.413 257.113 384.719 257.21C384.342 257.259 383.955 257.323 383.578 257.396C383.347 257.427 383.118 257.47 382.893 257.526C381.57 255.842 380.194 254.197 378.766 252.59C383.004 250.688 387.516 249.359 392.165 248.641C392.244 248.641 392.218 248.52 392.165 248.536C387.442 249.131 382.849 250.406 378.555 252.315C377.774 251.433 376.992 250.551 376.193 249.677C375.394 248.803 374.367 247.735 373.559 246.691C373.507 246.626 373.401 246.691 373.463 246.756C374.565 247.872 375.603 249.042 376.571 250.259C374.823 251.384 373.16 252.617 371.593 253.949C369.959 255.276 368.373 256.649 366.834 258.068C366.772 258.116 366.834 258.197 366.913 258.149C368.44 256.749 370.021 255.414 371.68 254.151C373.34 252.889 375.078 251.724 376.738 250.462L377.871 251.837L378.45 252.533L378.494 252.582C379.126 253.342 379.767 254.111 380.39 254.88C379.652 255.87 379.02 256.924 378.503 258.027C377.95 259.095 377.475 260.196 377.036 261.264C376.158 263.569 375.474 265.934 374.991 268.336C374.991 268.409 375.096 268.441 375.113 268.336C375.637 265.969 376.383 263.649 377.344 261.401C377.818 260.252 378.362 259.128 378.915 258.003C379.469 256.878 380.039 256.004 380.513 254.969L382.155 257C382.305 257.202 382.454 257.404 382.612 257.598C382.612 257.647 382.612 257.704 382.665 257.704C384.342 259.864 385.948 262.081 387.503 264.322C387.409 264.478 387.338 264.644 387.292 264.816C387.186 265.083 387.099 265.358 387.011 265.625C386.835 266.184 386.695 266.742 386.581 267.308C386.466 267.875 386.396 268.376 386.335 268.927C386.328 269.538 386.281 270.149 386.194 270.755C386.194 270.844 386.326 270.852 386.308 270.755C386.268 270.186 386.315 269.613 386.449 269.056C386.537 268.473 386.651 267.891 386.8 267.316C386.949 266.742 387.081 266.289 387.248 265.779C387.336 265.52 387.424 265.269 387.52 265.01C387.573 264.881 387.643 264.743 387.687 264.598C388.416 265.649 389.144 266.71 389.847 267.77C391.26 269.881 392.657 272.001 394.061 274.105C394.149 274.267 394.36 274.17 394.263 274.081Z" fill="#263238"/>
<path d="M356.506 303.038C356.445 300.902 356.076 298.749 355.821 296.621C355.567 294.493 355.312 292.349 355.057 290.213C354.583 286.094 354.32 281.886 353.301 277.849C352.517 274.334 350.608 271.115 347.822 268.608C346.382 267.281 344.492 266.45 342.466 266.253C340.431 266.2 338.433 266.769 336.785 267.872C334.906 269.148 333.286 270.72 332 272.516C330.615 274.289 329.37 276.153 328.277 278.091C328.277 278.164 328.365 278.213 328.409 278.14C330.473 274.901 333.212 272.071 336.469 269.814C337.919 268.717 339.687 268.039 341.553 267.864C343.391 267.843 345.162 268.494 346.479 269.676C349.183 271.845 350.746 275.033 351.677 278.164C352.783 281.878 353.143 285.778 353.696 289.581C354.021 291.847 354.337 294.105 354.662 296.37C354.987 298.636 355.189 300.926 355.707 303.151C355.723 303.249 355.781 303.336 355.868 303.395C355.954 303.453 356.062 303.478 356.168 303.463C356.274 303.448 356.369 303.394 356.433 303.315C356.496 303.235 356.522 303.135 356.506 303.038Z" fill="#263238"/>
<path d="M342.089 270.899C336.759 270.802 331.113 274.467 331.113 274.467C331.113 274.467 334.116 264.903 325.775 265.219C320.823 265.397 314.641 270.187 313.395 277.655C315.309 276.717 319.33 274.92 322.517 274.872C326.837 274.799 327.136 277.914 321.174 278.384C318.473 278.519 315.796 278.929 313.193 279.605C313.094 281.942 313.432 284.277 314.194 286.508C317.513 284.646 323.193 282.672 323.36 285.237C323.483 287.139 317.627 287.292 314.729 287.956C315.954 290.885 317.637 293.633 319.725 296.112C323.793 295.569 327.809 294.736 331.737 293.62C331.752 292.277 331.626 290.935 331.359 289.615C330.657 286.208 333.379 286.143 333.73 289.421C333.854 290.644 333.769 291.879 333.475 293.078C336.181 292.25 338.769 291.125 341.184 289.728C341.112 287.135 340.535 284.575 339.481 282.17C338.418 279.508 340.517 277.979 342.291 281.046C343.441 283.02 342.975 286.71 342.598 288.814C343.554 288.133 344.403 287.332 345.118 286.435C350.79 279.128 347.41 271.004 342.089 270.899ZM319.102 272.663C319.295 271.287 323.018 271.546 322.833 272.622C322.649 273.699 318.847 274.216 319.102 272.663ZM314.957 283.894C315.317 283.004 316.924 283.125 316.845 283.829C316.766 284.533 314.712 284.468 314.957 283.894ZM337.049 288.708C334.889 288.789 335.6 284.663 336.856 284.485C337.927 284.347 338.699 288.652 337.049 288.708Z" fill="#37B34A"/>
<path d="M335.117 289.077C334.915 288.568 334.73 288.042 334.555 287.516C334.713 288.05 334.862 288.584 334.967 289.134C334.971 289.143 334.977 289.151 334.985 289.158C334.992 289.165 335.001 289.171 335.011 289.174C335.021 289.178 335.031 289.18 335.042 289.18C335.052 289.18 335.063 289.178 335.073 289.174C335.083 289.171 335.091 289.165 335.099 289.158C335.106 289.151 335.112 289.143 335.116 289.134C335.121 289.125 335.123 289.116 335.123 289.106C335.123 289.096 335.121 289.086 335.117 289.077Z" fill="#263238"/>
<path d="M332.894 282.423C332.499 281.363 332.06 280.311 331.612 279.275C331.375 278.717 331.129 278.167 330.866 277.616C330.676 277.13 330.426 276.666 330.12 276.233C330.381 275.801 330.607 275.352 330.796 274.89C330.796 274.849 330.796 274.817 330.726 274.849C330.11 275.577 329.567 276.354 329.101 277.171C328.864 277.536 328.645 277.9 328.416 278.264C327.951 278.264 327.477 278.393 327.02 278.466C326.564 278.539 326.019 278.644 325.519 278.749L324.035 279.065C323.543 279.178 323.06 279.324 322.56 279.397C322.548 279.398 322.537 279.401 322.527 279.407C322.518 279.412 322.509 279.42 322.503 279.429C322.496 279.437 322.492 279.448 322.49 279.458C322.489 279.469 322.489 279.479 322.493 279.49C322.496 279.5 322.502 279.509 322.509 279.517C322.517 279.525 322.526 279.532 322.537 279.536C322.547 279.54 322.559 279.542 322.571 279.542C322.582 279.542 322.593 279.539 322.604 279.534C323.111 279.373 323.63 279.249 324.158 279.162C324.641 279.065 325.124 278.992 325.607 278.927C326.09 278.863 326.572 278.806 327.064 278.765C327.556 278.725 327.793 278.709 328.162 278.676C327.96 279 327.758 279.324 327.565 279.647C327.532 279.697 327.503 279.748 327.477 279.801C327.074 279.795 326.673 279.839 326.283 279.931C325.844 280.003 325.405 280.076 324.992 280.165C324.114 280.343 323.236 280.529 322.402 280.748C320.593 281.217 318.811 281.743 317.037 282.285C316.932 282.285 317.037 282.447 317.098 282.423C318.864 281.873 320.661 281.411 322.481 281.039C323.359 280.861 324.184 280.683 325.045 280.521L326.327 280.271C326.664 280.219 326.998 280.152 327.328 280.068C326.403 281.627 325.542 283.216 324.746 284.834C322.99 288.354 321.568 291.987 320.084 295.604C320.084 295.693 320.198 295.75 320.233 295.661C321.667 292.07 323.324 288.558 325.194 285.142C325.528 284.519 325.87 283.896 326.212 283.272C326.212 283.394 326.274 283.523 326.3 283.653C326.388 284.082 326.467 284.511 326.546 284.931C326.704 285.789 326.862 286.647 326.994 287.504C327.389 289.263 327.615 291.05 327.67 292.845C327.67 292.958 327.846 292.95 327.828 292.845C327.713 291.988 327.646 291.127 327.626 290.264C327.565 289.365 327.494 288.467 327.38 287.569C327.266 286.671 327.152 285.846 326.994 284.988C326.915 284.559 326.836 284.13 326.748 283.701C326.724 283.381 326.635 283.068 326.485 282.779C326.976 281.873 327.459 280.966 327.951 280.068C328.443 279.17 328.882 278.385 329.365 277.544C329.567 277.188 329.777 276.832 329.997 276.467C330.15 276.91 330.335 277.342 330.55 277.762L331.191 279.219C331.674 280.287 332.069 281.371 332.561 282.455C333.184 283.993 333.886 285.562 334.404 287.165C333.922 285.571 333.491 283.976 332.894 282.423Z" fill="#263238"/>
<path d="M334.557 287.513C334.557 287.391 334.478 287.262 334.434 287.141C334.469 287.262 334.513 287.391 334.557 287.513Z" fill="#263238"/>
<path d="M370.442 298.875L369.854 310.308L368.344 339.778H335.356L333.846 310.308L333.258 298.875H370.442Z" fill="#37474F"/>
<path d="M370.442 298.875L370.074 306.109L333.67 306.918L333.258 298.875H370.442Z" fill="#263238"/>
<path d="M372.783 294.258H330.91V303.507H372.783V294.258Z" fill="#37474F"/>
<path d="M343.818 339.781H338.023V344.62H343.818V339.781Z" fill="#37474F"/>
<path d="M343.818 339.781H338.023V342.201H343.818V339.781Z" fill="#263238"/>
<path d="M365.673 339.781H359.887V344.62H365.673V339.781Z" fill="#37474F"/>
<path d="M365.673 339.781H359.887V342.201H365.673V339.781Z" fill="#263238"/>
<path d="M437.654 285.484C437.654 285.484 440.551 322.52 440.551 322.552C440.595 329.834 440.49 336.162 440.103 339.447C440.108 339.466 440.108 339.485 440.103 339.504C440.1 340.281 439.905 341.048 439.533 341.745L439.489 341.794C437.153 343.266 374.26 345.249 372.047 344.634C369.835 344.019 371.538 338.161 373.917 336.275C376.297 334.39 400.013 323.725 400.013 323.725L397.501 286.698L437.654 285.484Z" fill="#EB9481"/>
<path d="M440.559 314.766C440.559 314.766 440.559 322.525 440.559 322.558C440.603 329.84 440.498 336.168 440.111 339.453C440.116 339.472 440.116 339.491 440.111 339.51C440.021 340.276 439.829 341.028 439.541 341.751L439.497 341.8C437.161 343.272 374.268 345.255 372.055 344.64C369.842 344.025 371.546 338.166 373.925 336.281C376.305 334.396 400.02 323.731 400.02 323.731L399.897 315.826L440.559 314.766Z" fill="white"/>
<path d="M372.038 344.648C374.26 345.255 437.144 343.273 439.48 341.8C440.358 341.25 440.604 332.786 440.551 322.558C440.551 322.453 440.551 322.34 440.551 322.234L399.968 323.1V323.731C399.968 323.731 376.262 334.412 373.882 336.29C371.503 338.167 369.773 344.041 372.038 344.648Z" fill="#217BB7"/>
<path d="M372.664 342.373C383.253 341.799 426.039 340.407 436.549 340.577C436.637 340.577 436.637 340.633 436.549 340.641C426.066 341.451 383.27 342.494 372.664 342.535C372.409 342.535 372.409 342.389 372.664 342.373Z" fill="#263238"/>
<path d="M396.598 323.949C400.742 323.099 405.861 323.528 409.154 326.166C409.277 326.271 409.154 326.441 408.987 326.401C404.956 325.346 400.815 324.687 396.633 324.435C396.563 324.439 396.494 324.417 396.442 324.375C396.389 324.332 396.357 324.272 396.352 324.208C396.347 324.144 396.371 324.08 396.417 324.032C396.463 323.983 396.528 323.953 396.598 323.949Z" fill="#263238"/>
<path d="M393.645 325.715C397.789 324.865 402.908 325.294 406.201 327.932C406.332 328.029 406.201 328.199 406.034 328.166C402.005 327.104 397.863 326.445 393.68 326.2C393.61 326.204 393.541 326.183 393.489 326.14C393.436 326.098 393.404 326.038 393.399 325.974C393.394 325.909 393.418 325.846 393.464 325.797C393.51 325.749 393.575 325.719 393.645 325.715Z" fill="#263238"/>
<path d="M390.696 327.488C394.84 326.638 399.968 327.067 403.252 329.705C403.383 329.81 403.252 329.972 403.085 329.94C399.055 328.877 394.913 328.218 390.731 327.974C390.661 327.978 390.592 327.956 390.539 327.914C390.487 327.871 390.454 327.811 390.45 327.747C390.445 327.683 390.468 327.619 390.515 327.571C390.561 327.522 390.626 327.492 390.696 327.488Z" fill="#263238"/>
<path d="M442.974 324.151L398.95 323.342C398.95 323.342 393.585 250.34 394.56 226C395.649 199.565 407.967 120.898 407.967 120.898H445.152C445.152 120.898 435.669 199.872 435.467 226.348C435.283 250.841 442.974 324.151 442.974 324.151Z" fill="#37474F"/>
<path d="M407.992 120.898L436.326 208.288C438.96 174.586 445.177 120.898 445.177 120.898H407.992Z" fill="#263238"/>
<path d="M438.121 124.773L435.759 148.239L433.573 171.705C432.168 187.378 430.842 203.043 429.832 218.749C429.586 222.674 429.428 226.614 429.49 230.563C429.551 234.512 429.753 238.428 429.973 242.361C430.412 250.209 430.959 258.056 431.615 265.899C432.27 273.743 432.958 281.597 433.678 289.462L436.058 312.927L434.152 289.462C433.52 281.618 432.935 273.778 432.396 265.939C431.852 258.099 431.281 250.258 430.886 242.409C430.684 238.485 430.526 234.56 430.456 230.636C430.385 226.711 430.57 222.811 430.833 218.887C431.764 203.197 433.107 187.524 434.345 171.85L438.121 124.773Z" fill="#263238"/>
<path d="M400.794 316.577C407.669 316.52 405.693 316.447 412.568 316.463C415.931 316.463 438.031 316.536 441.166 317.054C441.185 317.054 441.202 317.061 441.216 317.073C441.229 317.085 441.236 317.102 441.236 317.119C441.236 317.136 441.229 317.152 441.216 317.164C441.202 317.177 441.185 317.183 441.166 317.183C438.023 317.628 415.923 317.183 412.56 317.135C405.685 316.997 407.66 316.965 400.794 316.763C400.772 316.757 400.753 316.744 400.74 316.728C400.726 316.711 400.719 316.69 400.719 316.67C400.719 316.649 400.726 316.628 400.74 316.612C400.753 316.595 400.772 316.583 400.794 316.577Z" fill="#263238"/>
<path d="M502.594 265.625L523.843 297.457C527.293 303.979 530.191 309.749 531.385 312.831C531.389 312.847 531.389 312.864 531.385 312.88C531.747 313.583 531.933 314.351 531.929 315.129C531.929 315.129 531.929 315.178 531.929 315.194C530.516 317.452 474.778 344.372 472.487 344.712C470.195 345.052 468.975 339.048 470.248 336.427C471.521 333.805 487.852 314.684 487.852 314.684L466.973 282.771L502.594 265.625Z" fill="#EB9481"/>
<path d="M531.938 315.164C531.941 315.182 531.941 315.202 531.938 315.22C530.524 317.478 474.786 344.399 472.495 344.738C470.203 345.078 468.983 339.074 470.247 336.453C471.511 333.831 487.86 314.711 487.86 314.711L484.129 309.046C493.243 304.572 509.802 296.715 520.084 291.844L523.851 297.508C527.302 304.03 530.199 309.799 531.393 312.882C531.398 312.9 531.398 312.92 531.393 312.939C531.764 313.63 531.95 314.393 531.938 315.164Z" fill="white"/>
<path d="M472.505 344.742C474.796 344.403 530.534 317.49 531.947 315.216C532.501 314.367 528.716 306.655 523.852 297.455C523.799 297.358 523.755 297.261 523.703 297.172L487.537 314.164L487.87 314.723C487.87 314.723 471.539 333.819 470.266 336.465C468.993 339.111 470.204 345.082 472.505 344.742Z" fill="#217BB7"/>
<path d="M471.984 342.444C481.265 337.694 519.152 319.343 528.714 315.297C528.793 315.297 528.819 315.297 528.714 315.345C519.635 320.241 481.581 338.309 472.037 342.582C471.87 342.679 471.791 342.541 471.984 342.444Z" fill="#263238"/>
<path d="M484.881 316.278C488.218 313.85 493.038 312.232 497.244 313.26C497.402 313.26 497.341 313.519 497.2 313.543C493.07 314.195 489.028 315.256 485.145 316.707C485.085 316.725 485.019 316.724 484.96 316.703C484.901 316.683 484.852 316.643 484.82 316.593C484.789 316.542 484.778 316.483 484.789 316.425C484.8 316.368 484.833 316.316 484.881 316.278Z" fill="#263238"/>
<path d="M483.038 319.052C486.375 316.624 491.195 314.965 495.401 316.033C495.559 316.074 495.497 316.284 495.357 316.309C491.228 316.964 487.186 318.025 483.302 319.472C483.241 319.505 483.169 319.513 483.102 319.497C483.034 319.48 482.976 319.439 482.942 319.383C482.907 319.328 482.897 319.261 482.915 319.199C482.933 319.137 482.978 319.084 483.038 319.052Z" fill="#263238"/>
<path d="M481.231 321.825C484.567 319.397 489.388 317.779 493.593 318.807C493.751 318.847 493.69 319.065 493.593 319.082C489.463 319.737 485.421 320.8 481.538 322.254C481.476 322.291 481.401 322.305 481.328 322.291C481.256 322.277 481.192 322.238 481.152 322.181C481.111 322.124 481.096 322.054 481.111 321.988C481.126 321.921 481.169 321.862 481.231 321.825Z" fill="#263238"/>
<path d="M407.993 120.86C407.992 120.874 407.992 120.887 407.993 120.901C408.16 121.605 410.759 132.714 413.455 142.262C415.413 149.246 417.432 155.371 418.582 156.018C419.891 156.73 426.283 159.336 428.416 160.153C428.416 160.153 438.391 226.213 445.977 246.733C453.001 265.635 482.161 315.326 482.161 315.326L524.148 295.776C524.148 295.776 491.116 245.285 487.666 236.052C482.319 221.795 466.093 153.016 466.093 153.016C466.093 153.016 466.479 147.158 466.391 145.006C466.215 140.96 460.245 123.773 458.866 120.836L407.993 120.86Z" fill="#37474F"/>
<path d="M481.624 307.524C487.621 304.433 485.856 305.242 491.888 302.216C494.847 300.735 514.269 291.017 517.289 290.078C517.351 290.078 517.412 290.159 517.351 290.191C514.822 291.98 495.216 301.382 492.23 302.814C486.137 305.735 487.84 304.829 481.694 307.669C481.676 307.669 481.659 307.663 481.644 307.654C481.629 307.645 481.617 307.632 481.61 307.616C481.603 307.601 481.6 307.585 481.602 307.568C481.605 307.552 481.612 307.536 481.624 307.524Z" fill="#263238"/>
<path d="M452.107 144.228C451.001 143.775 442.194 142.027 440.07 138.839C438.946 137.148 436.953 127.826 436.847 127.171C436.847 127.074 436.672 127.106 436.698 127.171C436.812 127.608 436.83 136.533 439.543 140.222C441.448 142.82 450.896 144.479 452.02 144.495C452.051 144.491 452.081 144.478 452.105 144.459C452.129 144.44 452.147 144.415 452.156 144.387C452.165 144.359 452.166 144.329 452.157 144.301C452.148 144.273 452.131 144.247 452.107 144.228Z" fill="#263238"/>
<path d="M417.3 155.06C421.861 156.589 426.269 158.485 430.47 160.724C430.488 160.732 430.504 160.742 430.518 160.756C430.531 160.769 430.542 160.784 430.549 160.801C430.556 160.818 430.559 160.836 430.558 160.854C430.558 160.872 430.553 160.89 430.545 160.906C430.537 160.923 430.525 160.938 430.511 160.95C430.497 160.962 430.48 160.972 430.462 160.978C430.443 160.985 430.424 160.988 430.404 160.987C430.385 160.987 430.365 160.983 430.348 160.975C425.913 159.219 421.392 157.536 417.072 155.562C416.999 155.534 416.942 155.481 416.913 155.414C416.883 155.347 416.883 155.272 416.914 155.206C416.944 155.139 417.002 155.087 417.074 155.059C417.146 155.032 417.228 155.032 417.3 155.06Z" fill="#263238"/>
<path d="M415.966 127.069C415.966 126.931 416.247 126.899 416.247 127.069C416.247 131.628 416.496 136.184 416.994 140.719C417.196 142.823 419.031 154.475 422.991 153.601C423.658 153.464 423.992 152.857 424.097 151.942C424.082 150.737 423.905 149.539 423.57 148.374C423.131 145.946 422.78 143.519 422.552 141.035C422.093 136.457 422.149 131.847 422.718 127.279C422.726 127.253 422.742 127.23 422.765 127.214C422.788 127.198 422.817 127.189 422.846 127.189C422.875 127.189 422.903 127.198 422.926 127.214C422.949 127.23 422.966 127.253 422.973 127.279C422.865 133.618 423.278 139.956 424.211 146.238C424.703 149.264 426.362 153.811 422.929 154.281C419.496 154.75 417.169 147.128 416.739 145.04C415.638 139.106 415.378 133.065 415.966 127.069Z" fill="#263238"/>
<path d="M422.884 153.9C423.233 154.69 423.526 155.501 423.762 156.327C424.014 156.962 424.139 157.634 424.13 158.31C424.13 158.439 423.928 158.447 423.858 158.366C423.445 157.769 423.134 157.117 422.936 156.432C422.638 155.688 422.313 154.952 422.058 154.199C422.037 154.149 422.026 154.096 422.027 154.042C422.028 153.988 422.041 153.935 422.064 153.886C422.087 153.837 422.121 153.793 422.163 153.755C422.205 153.718 422.254 153.689 422.308 153.669C422.363 153.649 422.42 153.64 422.479 153.641C422.537 153.642 422.594 153.653 422.648 153.675C422.701 153.696 422.749 153.727 422.79 153.765C422.83 153.804 422.862 153.85 422.884 153.9Z" fill="#263238"/>
<path d="M511.198 288.126C505.219 277.753 500.434 269.516 494.252 259.223C491.206 254.166 488.018 249.165 485.112 244.035C482.371 238.954 480.146 233.651 478.465 228.192C474.769 217.114 463.205 158.717 462.485 155.893C462.046 154.178 462.863 144.517 462.406 141.806C461.95 139.095 458.016 125.234 457.472 123.891C457.466 123.876 457.458 123.861 457.447 123.849C457.436 123.837 457.422 123.826 457.406 123.819C457.391 123.811 457.374 123.807 457.356 123.805C457.339 123.804 457.321 123.805 457.305 123.81C457.288 123.815 457.272 123.823 457.259 123.833C457.246 123.843 457.234 123.856 457.226 123.87C457.218 123.885 457.213 123.9 457.212 123.916C457.21 123.932 457.212 123.949 457.217 123.964C459.026 129.418 461.045 138.828 461.607 141.668C462.169 144.509 461.37 154.914 461.607 156.233C461.906 157.674 472.626 213.578 476.297 224.721C478.053 230.142 479.738 235.644 482.267 240.815C484.796 245.985 488.009 250.889 491.047 255.841C497.29 266.069 502.198 274.249 508.608 284.38C509.416 285.658 510.241 286.937 511.067 288.215C511.137 288.288 511.251 288.207 511.198 288.126Z" fill="#263238"/>
<path d="M405.481 142.451C406.271 142.451 408.598 140.946 408.879 140.558C410.828 137.855 411.302 129.27 411.46 127.013C411.46 126.907 411.53 126.94 411.53 127.013C411.53 129.545 411.434 132.118 411.206 134.554C411.104 136.538 410.765 138.505 410.196 140.42C409.599 141.958 406.333 143.018 405.472 142.67C405.419 142.686 405.419 142.451 405.481 142.451Z" fill="#263238"/>
<path d="M428.822 79.5353C425.6 88.2904 409.505 119.848 399.101 121.563C391.725 122.785 363.979 117.622 357.657 114.661C354.075 112.97 363.435 93.5661 368.255 94.2539C374.217 95.1035 391.084 99.4649 394.596 98.9632C396.502 98.6962 406.415 88.347 420.586 74.4456C427.874 67.3089 431.614 71.9696 428.822 79.5353Z" fill="#EB9481"/>
<path d="M359.184 115.271C356.462 114.745 342.598 110.999 339.428 109.348C336.259 107.698 327.522 102.333 328.646 99.9702C329.77 97.6075 332.465 98.983 332.465 98.983C332.465 98.983 329.164 96.1833 330.534 93.8934C331.904 91.6035 336.021 93.8934 336.021 93.8934C336.021 93.8934 332.861 90.7863 334.397 88.6015C335.934 86.4168 339.665 89.3378 339.665 89.3378C339.665 89.3378 336.627 86.6191 338.726 85.292C341.246 83.7142 346.233 89.3379 349.877 90.8914C350.702 91.2475 367.227 97.0734 367.227 97.0734L359.184 115.271Z" fill="#EB9481"/>
<path d="M339.339 89.0869C343.018 93.1893 345.398 94.395 350.754 96.0376C350.859 96.0376 350.833 96.2156 350.754 96.1913C345.31 95.0342 342.087 93.9176 339.111 89.2406C338.97 89.0059 339.164 88.8846 339.339 89.0869Z" fill="#263238"/>
<path d="M335.731 93.5515C339.955 97.5082 342.527 98.8434 348.024 100.939C348.103 100.939 348.024 101.093 347.971 101.069C342.369 99.4502 339.191 98.2446 335.529 93.7861C335.389 93.5838 335.529 93.3734 335.731 93.5515Z" fill="#263238"/>
<path d="M332.756 99.0796C337.146 102.64 339.885 104.218 345.531 105.618C345.559 105.618 345.586 105.628 345.606 105.646C345.625 105.664 345.636 105.689 345.636 105.715C345.636 105.74 345.625 105.765 345.606 105.783C345.586 105.802 345.559 105.812 345.531 105.812C339.631 104.897 336.18 102.955 332.694 99.2171C332.413 98.9663 332.475 98.8611 332.756 99.0796Z" fill="#263238"/>
<path d="M371.845 94.8865C371.845 94.8865 366.577 89.6107 363.829 88.0572C361.08 86.5036 348.358 84.2136 347.673 86.7058C346.795 89.9425 353.819 92.5804 357.454 93.4623C357.454 93.4623 355.382 100.923 359.992 103.828C364.601 106.733 371.845 94.8865 371.845 94.8865Z" fill="#EB9481"/>
<path d="M347.734 87.6686C349.227 91.148 354.074 92.0219 357.533 93.1224C357.585 93.1362 357.632 93.1613 357.671 93.1955C357.709 93.2297 357.739 93.272 357.756 93.3189C357.773 93.3658 357.778 93.4158 357.77 93.4647C357.761 93.5136 357.741 93.5599 357.709 93.5998C357.068 96.7798 357.164 101.441 359.763 103.868C359.778 103.883 359.786 103.902 359.786 103.921C359.786 103.941 359.779 103.96 359.765 103.975C359.751 103.99 359.731 104 359.71 104.002C359.689 104.005 359.667 104 359.649 103.989C356.48 101.732 355.979 97.1601 356.919 93.7212C353.363 92.645 348.533 91.5769 347.699 87.6767C347.699 87.6605 347.726 87.6444 347.734 87.6686Z" fill="#263238"/>
<path d="M371.846 94.2238L363.32 120.004C363.32 120.004 390.074 124.268 401.163 121.857C409.426 120.052 424.563 92.7835 429.357 80.6542C434.151 68.5248 426.047 68.3387 419.435 74.6906C412.824 81.0426 395.843 97.8083 394.675 98.1563C393.876 98.4314 371.846 94.2238 371.846 94.2238Z" fill="#217BB7"/>
<path d="M374.662 108.323C375.25 106.398 375.821 104.48 376.418 102.546C377.015 100.612 377.621 98.7026 378.042 96.7606C378.042 96.7436 378.037 96.7271 378.026 96.7133C378.015 96.6995 378 96.6892 377.982 96.6838C377.965 96.6785 377.946 96.6783 377.928 96.6834C377.911 96.6884 377.895 96.6985 377.884 96.7121C377.138 98.5003 376.585 100.386 375.97 102.222C375.356 104.059 374.68 106.131 374.047 108.081C372.801 111.949 371.712 115.841 370.676 119.765C370.676 119.862 370.79 119.878 370.825 119.765C372.168 115.986 373.485 112.183 374.662 108.323Z" fill="#263238"/>
<path opacity="0.1" d="M429.355 80.6954C424.561 92.8328 409.423 120.093 401.161 121.898C397.882 122.504 394.537 122.751 391.195 122.634L429.056 70.9531C431.005 71.8998 431.602 74.9585 429.355 80.6954Z" fill="black"/>
<path d="M405.457 135.922C406.95 137.014 464.724 136.545 464.97 136.156C465.216 135.768 457.349 85.9883 440.096 72.4511C435.126 68.559 425.722 68.8665 422.315 73.2602C414.317 83.6337 404.518 135.234 405.457 135.922Z" fill="#217BB7"/>
<path d="M429.463 84.4004L427.03 80.2656L423.281 84.0444L424.352 87.1678L427.935 87.4267L429.463 84.4004Z" fill="#263238"/>
<path d="M427.936 87.4308L428.726 124.685L422.922 135.964L417.109 123.964L424.353 87.1719L427.936 87.4308Z" fill="#263238"/>
<path d="M419.197 109.914C419.197 109.914 416.414 107.147 412.647 107.94C408.88 108.733 408.09 113.822 404.148 115.052C400.205 116.282 395.306 113.968 392.145 115.967C388.984 117.965 389.704 122.925 388.308 123.751C386.912 124.576 401.031 124.997 401.031 124.997C401.031 124.997 417.187 113.766 419.066 110.311" fill="#217BB7"/>
<path opacity="0.4" d="M419.197 109.914C419.197 109.914 416.414 107.147 412.647 107.94C408.88 108.733 408.09 113.822 404.148 115.052C400.205 116.282 395.306 113.968 392.145 115.967C388.984 117.965 389.704 122.925 388.308 123.751C386.912 124.576 401.031 124.997 401.031 124.997C401.031 124.997 417.187 113.766 419.066 110.311" fill="black"/>
<path d="M378.842 182.471C380.308 183.459 385.48 181.031 387.333 181.347C389.185 181.662 398.554 184.438 408.405 184.972C418.257 185.506 427.23 181.654 428.82 181.678C429.531 181.678 433.842 182.431 435.651 181.072C437.459 179.712 435.08 175.691 435.08 175.691C435.08 175.691 440.612 167.081 437.012 158.002C433.227 148.462 420.399 144.247 414.183 137.482C412.119 135.241 410.548 123.726 415.351 117.868C415.509 117.682 415.658 117.488 415.798 117.31C416.114 116.913 416.395 116.501 416.676 116.169L416.729 116.096C419.978 111.565 419.249 109.914 419.249 109.914C418.548 111.004 417.541 111.899 416.334 112.505C415.127 113.112 413.765 113.407 412.392 113.361C407.422 113.361 400.802 110.772 397.579 112.164C394.357 113.555 396.648 119.13 395.99 120.716C395.331 122.302 394.462 122.068 390.897 121.631C387.333 121.194 381.898 124.867 386.735 125.142C391.573 125.418 397.052 134.043 395.182 138.227C394.076 140.703 382.969 146.431 379.149 153.342C373.644 163.319 380.58 175.407 380.159 175.683C379.738 175.958 377.393 181.468 378.842 182.471Z" fill="#217BB7"/>
<path opacity="0.2" d="M378.842 182.471C380.308 183.459 385.48 181.031 387.333 181.347C389.185 181.662 398.554 184.438 408.405 184.972C418.257 185.506 427.23 181.654 428.82 181.678C429.531 181.678 433.842 182.431 435.651 181.072C437.459 179.712 435.08 175.691 435.08 175.691C435.08 175.691 440.612 167.081 437.012 158.002C433.227 148.462 420.399 144.247 414.183 137.482C412.119 135.241 410.548 123.726 415.351 117.868C415.509 117.682 415.658 117.488 415.798 117.31C416.114 116.913 416.395 116.501 416.676 116.169L416.729 116.096C419.978 111.565 419.249 109.914 419.249 109.914C418.548 111.004 417.541 111.899 416.334 112.505C415.127 113.112 413.765 113.407 412.392 113.361C407.422 113.361 400.802 110.772 397.579 112.164C394.357 113.555 396.648 119.13 395.99 120.716C395.331 122.302 394.462 122.068 390.897 121.631C387.333 121.194 381.898 124.867 386.735 125.142C391.573 125.418 397.052 134.043 395.182 138.227C394.076 140.703 382.969 146.431 379.149 153.342C373.644 163.319 380.58 175.407 380.159 175.683C379.738 175.958 377.393 181.468 378.842 182.471Z" fill="black"/>
<path opacity="0.1" d="M427.125 181.888C427.632 181.915 428.139 181.837 428.609 181.662C429.071 181.5 429.51 181.288 429.917 181.03C430.32 180.771 430.691 180.473 431.023 180.14C431.189 179.973 431.344 179.797 431.489 179.614C431.633 179.424 431.762 179.223 431.875 179.016C431.646 179.105 431.423 179.208 431.208 179.323L430.593 179.663C430.189 179.898 429.812 180.14 429.434 180.383L428.293 181.119L427.125 181.888Z" fill="black"/>
<path opacity="0.1" d="M388.089 181.364L386.868 180.652L385.692 179.972C385.297 179.754 384.902 179.527 384.489 179.317C384.278 179.212 384.076 179.107 383.857 179.009C383.634 178.907 383.405 178.815 383.172 178.734C383.297 178.935 383.438 179.127 383.593 179.309C383.746 179.485 383.91 179.653 384.085 179.811C384.44 180.12 384.832 180.391 385.253 180.62C385.673 180.86 386.124 181.051 386.596 181.186C387.073 181.347 387.583 181.408 388.089 181.364Z" fill="black"/>
<g opacity="0.1">
<path opacity="0.1" d="M410.523 138.148C410.944 138.57 411.412 138.95 411.92 139.281C412.408 139.623 412.922 139.934 413.456 140.212C413.992 140.49 414.546 140.736 415.116 140.948C415.68 141.169 416.269 141.335 416.872 141.442C416.393 141.083 415.891 140.751 415.37 140.446C414.861 140.147 414.343 139.856 413.816 139.589C413.289 139.322 412.754 139.047 412.209 138.78C411.66 138.541 411.098 138.33 410.523 138.148Z" fill="black"/>
<path opacity="0.1" d="M408.898 138.148C408.992 138.532 409.143 138.903 409.346 139.249C409.546 139.586 409.778 139.905 410.04 140.204C410.297 140.504 410.592 140.775 410.918 141.013C411.256 141.263 411.648 141.445 412.068 141.547C411.822 141.215 411.594 140.916 411.357 140.616C411.12 140.317 410.874 140.026 410.619 139.742C410.365 139.459 410.101 139.184 409.82 138.933C409.54 138.646 409.232 138.383 408.898 138.148Z" fill="black"/>
<path opacity="0.1" d="M401.191 138.602C400.971 139.144 400.743 139.653 400.488 140.155C400.247 140.654 399.978 141.14 399.681 141.612C399.401 142.092 399.09 142.557 398.75 143.003C398.416 143.465 398.021 143.877 397.652 144.355C398.232 144.116 398.761 143.785 399.215 143.376C399.678 142.972 400.072 142.505 400.383 141.992C400.704 141.487 400.944 140.942 401.094 140.374C401.254 139.795 401.286 139.192 401.191 138.602Z" fill="black"/>
<path opacity="0.1" d="M393.023 143.196C393.481 143.065 393.916 142.874 394.314 142.629C394.71 142.396 395.078 142.125 395.412 141.82C395.744 141.511 396.039 141.169 396.29 140.801C396.549 140.423 396.725 140.003 396.808 139.562C396.448 139.87 396.132 140.161 395.807 140.444L394.85 141.31C394.525 141.602 394.209 141.893 393.901 142.208C393.585 142.519 393.291 142.848 393.023 143.196Z" fill="black"/>
<path opacity="0.1" d="M398.529 139.766C398.116 140.251 397.73 140.72 397.343 141.19L396.202 142.598L395.043 143.989C394.656 144.467 394.253 144.92 393.875 145.43C394.459 145.142 395.001 144.789 395.491 144.378C395.978 143.968 396.425 143.518 396.825 143.035C397.221 142.548 397.571 142.031 397.87 141.489C398.174 140.945 398.395 140.365 398.529 139.766Z" fill="black"/>
<path opacity="0.1" d="M401.232 136.11C400.967 135.505 400.644 134.923 400.266 134.371C399.919 133.85 399.528 133.355 399.099 132.89C398.691 132.46 398.235 132.072 397.738 131.733C397.289 131.42 396.77 131.204 396.219 131.102C396.684 131.466 397.097 131.83 397.545 132.218C397.992 132.607 398.379 133.027 398.783 133.464C399.626 134.322 400.381 135.228 401.232 136.11Z" fill="black"/>
<path opacity="0.1" d="M407.213 135.327C407.315 134.329 407.509 133.341 407.792 132.373C407.933 131.92 408.082 131.467 408.266 131.038C408.451 130.609 408.661 130.172 408.855 129.703C408.482 129.978 408.169 130.316 407.933 130.698C407.661 131.136 407.451 131.603 407.309 132.09C407.153 132.618 407.065 133.161 407.046 133.708C407.009 134.253 407.066 134.799 407.213 135.327Z" fill="black"/>
<path opacity="0.1" d="M405.569 136.008C405.771 135.287 405.877 134.616 406 133.952L406.202 132.957C406.272 132.633 406.36 132.31 406.447 131.938C406.171 132.154 405.959 132.433 405.833 132.747C405.679 133.082 405.568 133.432 405.499 133.79C405.432 134.165 405.399 134.544 405.403 134.923C405.413 135.289 405.469 135.653 405.569 136.008Z" fill="black"/>
</g>
<path d="M415.701 136.528C414.106 137.759 412.253 138.673 410.257 139.214C404.866 140.922 399.01 140.914 393.408 140.363C391.371 140.161 392.152 137.305 394.172 137.499C399.203 138.001 404.498 137.928 409.327 136.399C410.438 136.06 411.504 135.606 412.505 135.047C412.804 134.885 413.076 134.699 413.383 134.521C413.691 134.343 413.102 134.756 413.383 134.521C414.885 133.235 417.22 135.258 415.71 136.544L415.701 136.528Z" fill="#263238"/>
<path d="M413.675 134.674C412.347 135.717 410.802 136.502 409.136 136.98C404.746 138.437 399.82 138.526 395.184 138.105C393.173 137.919 393.059 134.973 395.096 135.159C399.39 135.556 403.876 135.54 407.968 134.237C408.905 133.952 409.803 133.569 410.646 133.096C410.901 132.95 411.138 132.797 411.384 132.635C411.629 132.473 411.103 132.87 411.384 132.635C412.876 131.34 415.212 133.363 413.702 134.658L413.675 134.674Z" fill="#263238"/>
<path d="M397.623 175.802C405.42 175.802 411.741 169.636 411.741 162.03C411.741 154.424 405.42 148.258 397.623 148.258C389.825 148.258 383.504 154.424 383.504 162.03C383.504 169.636 389.825 175.802 397.623 175.802Z" fill="#217BB7"/>
<g opacity="0.1">
<path opacity="0.1" d="M396.63 151.906C396.799 151.906 396.961 151.966 397.084 152.072C397.207 152.179 397.28 152.325 397.289 152.481V153.46C399.023 153.53 400.693 154.08 402.083 155.038C402.193 155.094 402.285 155.174 402.353 155.272C402.42 155.369 402.46 155.481 402.469 155.596C402.47 155.678 402.454 155.759 402.421 155.835C402.388 155.911 402.339 155.98 402.277 156.039C402.215 156.098 402.142 156.144 402.06 156.177C401.978 156.209 401.891 156.226 401.802 156.227C401.714 156.234 401.625 156.223 401.541 156.195C401.458 156.167 401.382 156.123 401.319 156.065C400.152 155.223 398.747 154.709 397.271 154.585L397.5 161.446C401.565 162.118 403.312 163.469 403.391 165.872C403.479 168.47 401.17 170.371 397.851 170.565L397.912 172.475C397.923 172.558 397.914 172.642 397.887 172.721C397.86 172.801 397.815 172.874 397.755 172.937C397.695 172.999 397.621 173.049 397.538 173.083C397.456 173.117 397.366 173.135 397.276 173.135C397.185 173.135 397.096 173.117 397.013 173.083C396.931 173.049 396.857 172.999 396.797 172.937C396.737 172.874 396.691 172.801 396.664 172.721C396.637 172.642 396.629 172.558 396.639 172.475L396.578 170.541C394.343 170.454 392.206 169.676 390.51 168.332C390.419 168.276 390.343 168.2 390.29 168.111C390.237 168.023 390.207 167.924 390.203 167.822C390.207 167.663 390.274 167.51 390.393 167.394C390.511 167.277 390.672 167.205 390.844 167.191C391.024 167.187 391.2 167.244 391.336 167.353C392.78 168.585 394.64 169.322 396.604 169.441L396.376 162.458C392.363 161.754 390.668 160.451 390.589 158.007C390.51 155.564 392.785 153.573 396.033 153.411V152.481C396.039 152.334 396.103 152.195 396.213 152.089C396.323 151.983 396.472 151.918 396.63 151.906ZM396.349 161.236L396.13 154.544C393.548 154.665 391.898 156.162 391.95 157.902C392.003 159.642 392.89 160.556 396.349 161.22V161.236ZM397.57 162.7L397.789 169.465C400.423 169.344 402.127 167.847 402.065 166.01C402.013 164.303 401.047 163.299 397.57 162.684V162.7Z" fill="black"/>
</g>
<path d="M447.083 80.1788C461.307 97.5595 471.317 123.202 467.383 130.589C464.547 135.922 433.614 139.652 415.579 141.367C412.234 141.683 411.637 117.327 415.219 117.198C421.638 116.971 443.518 111.785 443.948 111.744C444.879 111.647 439.918 94.5899 437.644 83.4235C434.747 69.1337 440.709 72.3947 447.083 80.1788Z" fill="#EB9481"/>
<path d="M385.172 120.767C384.983 121.479 385.033 122.228 385.317 122.913C385.601 123.598 386.105 124.188 386.761 124.602C385.751 125.448 385.096 126.593 384.909 127.839C384.68 130.024 388.307 131.318 388.307 131.318C387.457 132.385 386.977 133.662 386.928 134.984C386.928 137.096 390.396 138.876 390.396 138.876C390.205 140.252 390.557 141.645 391.389 142.8C393.751 145.802 399.87 145.422 403.769 145.228C407.667 145.034 418.511 141.069 420.662 140.511L419.433 117.449C419.433 117.449 401.67 113.792 397.131 114.634C393.303 115.297 386.015 118.073 385.172 120.767Z" fill="#EB9481"/>
<path d="M386.796 124.514C390.668 122.855 394.865 122.345 399.018 121.617C399.034 121.622 399.047 121.631 399.057 121.644C399.066 121.656 399.072 121.671 399.072 121.686C399.072 121.701 399.066 121.716 399.057 121.728C399.047 121.74 399.034 121.75 399.018 121.755C394.874 122.434 390.932 123.859 386.831 124.692C386.811 124.688 386.791 124.679 386.777 124.665C386.762 124.651 386.752 124.633 386.748 124.614C386.744 124.595 386.747 124.575 386.755 124.557C386.764 124.539 386.778 124.524 386.796 124.514Z" fill="#263238"/>
<path d="M388.273 131.195C389.194 130.898 390.153 130.713 391.126 130.645C392.145 130.515 393.172 130.402 394.199 130.305C396.254 130.105 398.303 129.952 400.345 129.844C400.433 129.844 400.468 129.973 400.345 129.981C398.3 130.184 396.254 130.41 394.199 130.693C393.181 130.831 392.162 130.985 391.152 131.138C390.203 131.344 389.231 131.45 388.255 131.454C388.227 131.443 388.203 131.424 388.186 131.4C388.17 131.375 388.162 131.347 388.164 131.319C388.166 131.29 388.178 131.263 388.197 131.241C388.216 131.219 388.243 131.203 388.273 131.195Z" fill="#263238"/>
<path d="M390.486 138.837C391.334 138.574 392.225 138.448 393.12 138.465L395.93 138.238C397.809 138.068 399.679 137.906 401.549 137.68C401.637 137.68 401.663 137.801 401.549 137.809C399.653 138.052 397.756 138.311 395.86 138.529C394.929 138.643 393.998 138.748 393.067 138.845C392.225 139.013 391.357 139.04 390.504 138.926C390.493 138.924 390.484 138.919 390.476 138.912C390.469 138.905 390.464 138.896 390.462 138.887C390.46 138.877 390.461 138.867 390.466 138.858C390.47 138.849 390.477 138.842 390.486 138.837Z" fill="#263238"/>
<path d="M417.855 115.639L423.519 142.616C423.519 142.616 462.767 137.146 467.605 131.846C472.443 126.546 463.127 100.451 449.649 82.4874C442.265 72.648 433.932 66.3042 437.427 85.1333C440.921 103.962 443.31 110.808 443.231 111.026C443.152 111.245 417.855 115.639 417.855 115.639Z" fill="#217BB7"/>
<path d="M427.83 127.071C427.409 125.113 426.952 123.154 426.548 121.196C426.144 119.238 425.749 117.264 425.17 115.354C425.17 115.335 425.161 115.316 425.147 115.303C425.132 115.289 425.112 115.281 425.091 115.281C425.07 115.281 425.05 115.289 425.035 115.303C425.02 115.316 425.012 115.335 425.012 115.354C425.222 117.264 425.644 119.173 425.995 121.075C426.346 122.976 426.741 125.121 427.137 127.103C427.909 131.068 428.831 135 429.823 138.925C429.823 139.022 429.981 138.982 429.964 138.925C429.34 134.952 428.664 131.003 427.83 127.071Z" fill="#263238"/>
<path d="M445.282 110.773C444.65 110.773 444.018 110.821 443.386 110.862C442.898 107.59 442.2 104.347 441.296 101.152C440.418 97.8664 439.54 94.5812 438.583 91.3203C438.583 91.3203 438.513 91.3203 438.522 91.3203C438.917 93.4241 439.347 95.5118 439.795 97.5994C439.4 96.6122 439.048 95.6089 438.697 94.6055C438.697 94.5408 438.548 94.6055 438.566 94.6055C438.78 95.5502 439.073 96.4782 439.444 97.3809C439.602 97.7612 439.786 98.1334 439.962 98.5056C440.164 99.4443 440.357 100.383 440.567 101.322C441.213 104.523 442.063 107.687 443.114 110.797C439.947 111.125 436.802 111.611 433.692 112.253C429.855 112.925 421.76 114.389 418.037 115.441C417.458 115.579 417.809 115.773 417.897 115.708C417.984 115.644 429.978 113.572 433.807 112.933C435.703 112.609 437.608 112.31 439.505 112.027C441.402 111.744 443.403 111.493 445.326 111.064C445.484 111.023 445.511 110.773 445.282 110.773Z" fill="#263238"/>
<path d="M456.242 136.431C458.965 135.323 461.773 134.406 464.645 133.688C462.108 135.181 459.234 136.119 456.242 136.431Z" fill="#263238"/>
<path d="M426.504 80.924C429.858 81.6199 435.503 77.1534 437.725 73.3098C437.874 73.0428 437.409 70.2836 437.005 66.9094C436.768 64.8622 436.566 62.5723 436.54 60.4766L422.289 63.8265C423.136 66.4448 423.635 69.1484 423.773 71.8776C423.771 72.1654 423.742 72.4524 423.685 72.7353C423.685 72.7353 423.685 72.8243 423.685 72.881C423.395 74.5236 423.255 80.2524 426.504 80.924Z" fill="#EB9481"/>
<path d="M435.747 60.6641C435.124 64.2163 432.753 72.6963 425.132 72.939C424.642 72.9583 424.152 72.9394 423.666 72.8824C423.666 72.8257 423.666 72.7772 423.666 72.7367C423.722 72.4538 423.752 72.1668 423.753 71.879C423.62 69.1493 423.122 66.4452 422.27 63.8279L435.747 60.6641Z" fill="#263238"/>
<path d="M438.357 44.6162C439.937 49.2689 437.382 62.7738 433.8 65.8082C428.619 70.21 420.067 70.6631 416.002 64.9262C412.06 59.3511 415.73 41.8004 419.734 39.033C425.625 34.9711 436.012 37.7303 438.357 44.6162Z" fill="#EB9481"/>
<path d="M424.677 52.9688C424.677 52.9688 424.747 53.0254 424.738 53.0578C424.572 53.9721 424.545 55.0402 425.397 55.4852C425.397 55.4852 425.397 55.5419 425.397 55.5338C424.299 55.2263 424.352 53.8103 424.677 52.9688Z" fill="#263238"/>
<path d="M425.705 52.1263C427.32 52.2234 426.996 55.1849 425.503 55.104C424.01 55.0231 424.353 52.0535 425.705 52.1263Z" fill="#263238"/>
<path d="M418.943 52.4375C418.943 52.4375 418.864 52.4375 418.864 52.5103C418.794 53.4328 418.548 54.4766 417.617 54.7032V54.7517C418.732 54.7112 419.04 53.3195 418.943 52.4375Z" fill="#263238"/>
<path d="M418.163 51.3989C416.565 51.1399 416.126 54.0934 417.601 54.3361C419.076 54.5789 419.497 51.6174 418.163 51.3989Z" fill="#263238"/>
<path d="M426.934 51.1163C426.508 50.9993 426.089 50.8615 425.679 50.7036C425.218 50.6173 424.801 50.3925 424.493 50.0643C424.416 49.9449 424.385 49.8051 424.404 49.6673C424.423 49.5295 424.492 49.4015 424.599 49.3037C424.845 49.1436 425.132 49.0446 425.432 49.0163C425.732 48.9879 426.034 49.0312 426.311 49.1419C426.899 49.3056 427.402 49.6626 427.724 50.1453C427.789 50.2577 427.817 50.3847 427.806 50.5114C427.795 50.6382 427.745 50.7594 427.663 50.8611C427.58 50.9628 427.467 51.0408 427.338 51.0859C427.21 51.1311 427.069 51.1416 426.934 51.1163Z" fill="#263238"/>
<path d="M417.001 49.8699C417.44 49.8283 417.876 49.7662 418.309 49.6838C418.782 49.6775 419.239 49.5267 419.608 49.255C419.719 49.1471 419.784 49.0062 419.792 48.8579C419.8 48.7095 419.751 48.5634 419.652 48.4458C419.445 48.2426 419.183 48.0942 418.893 48.016C418.602 47.9377 418.295 47.9324 418.001 48.0008C417.384 48.0509 416.81 48.3138 416.395 48.7371C416.291 48.8366 416.223 48.9632 416.2 49.0996C416.177 49.2359 416.2 49.3755 416.266 49.4993C416.333 49.6231 416.439 49.7251 416.57 49.7914C416.701 49.8577 416.852 49.8851 417.001 49.8699Z" fill="#263238"/>
<path d="M420.367 59.6618C420.733 60.1992 421.245 60.6397 421.851 60.9403C422.186 61.09 422.562 61.1435 422.931 61.094C423.739 60.9727 423.809 60.2849 423.739 59.7266C423.689 59.4162 423.6 59.1122 423.475 58.8203C422.564 59.4004 421.474 59.6953 420.367 59.6618Z" fill="#263238"/>
<path d="M421.848 60.9435C422.183 61.0932 422.559 61.1467 422.928 61.0972C423.735 60.9759 423.806 60.2881 423.735 59.7298C423.318 59.7062 422.905 59.8133 422.562 60.0337C422.219 60.254 421.968 60.5746 421.848 60.9435Z" fill="#FF9ABB"/>
<path d="M436.365 55.4036C433.73 55.0799 434.468 49.2054 434.468 49.2054C434.468 49.2054 430.526 48.283 428.972 43.1124C428.972 43.1124 423.607 45.7422 419.357 44.7307C412.693 43.1124 413.509 35.0856 416.161 33.6048C419.919 31.5091 426.03 35.3283 426.03 35.3283C426.03 35.3283 435.873 33.4834 438.279 39.6897C439.522 39.8545 440.651 40.4467 441.439 41.3474C442.227 42.248 442.617 43.3903 442.528 44.5446C442.476 48.9546 438.305 55.6139 436.365 55.4036Z" fill="#263238"/>
<path d="M435.355 49.949C433.439 49.5114 431.735 48.5013 430.508 47.0765C429.856 46.3012 429.416 45.3937 429.222 44.4296C429.028 43.4655 429.086 42.4727 429.393 41.5337C429.397 41.5234 429.4 41.5122 429.399 41.501C429.399 41.4898 429.396 41.4788 429.391 41.4686C429.386 41.4584 429.379 41.4494 429.369 41.442C429.36 41.4346 429.35 41.429 429.338 41.4256C429.326 41.4223 429.314 41.4211 429.302 41.4224C429.29 41.4236 429.278 41.4271 429.268 41.4327C429.257 41.4383 429.248 41.4459 429.241 41.4549C429.234 41.4639 429.228 41.4743 429.226 41.4852C428.844 42.4607 428.701 43.502 428.808 44.5344C428.914 45.5668 429.267 46.5648 429.84 47.4568C430.419 48.3058 431.23 48.9995 432.192 49.4682C433.154 49.937 434.232 50.1642 435.319 50.127C435.425 50.1351 435.469 49.9895 435.355 49.949Z" fill="#263238"/>
<path d="M443.061 42.0092C441.858 40.3909 439.847 39.9944 437.793 39.9297C437.678 39.9297 437.678 40.0915 437.793 40.0915C438.803 40.1147 439.788 40.3895 440.643 40.8866C441.498 41.3838 442.191 42.0849 442.648 42.9155C443.526 44.4448 443.166 46.2654 442.648 47.8514C441.626 50.8999 439.419 53.4932 436.449 55.1338C436.405 55.1338 436.449 55.2309 436.449 55.2066C438.136 54.3767 439.621 53.2382 440.814 51.8607C442.007 50.4833 442.882 48.896 443.386 47.1959C443.877 45.5614 444.176 43.5224 443.061 42.0092Z" fill="#263238"/>
<path d="M426.274 35.6428C425.521 34.325 424.272 33.3062 422.761 32.7784C420.922 32.1895 418.912 32.2471 417.116 32.9402C416.396 33.2314 415.773 33.6934 415.31 34.2791C414.847 34.8648 414.561 35.5532 414.482 36.2739C414.35 37.9469 414.85 39.6103 415.895 40.9832C415.895 40.9832 415.983 40.9832 415.965 40.9832C415.145 39.6991 414.777 38.2121 414.912 36.7271C414.984 36.0229 415.269 35.3516 415.735 34.7895C416.2 34.2273 416.828 33.7968 417.546 33.5471C420.399 32.5922 424.438 33.0454 426.045 35.7642C426.063 35.7921 426.091 35.8124 426.125 35.8208C426.159 35.8291 426.195 35.8248 426.225 35.8087C426.256 35.7926 426.278 35.766 426.287 35.7349C426.296 35.7038 426.291 35.6707 426.274 35.6428Z" fill="#263238"/>
<path d="M434.563 55.294C434.563 55.294 437.934 50.9731 440.068 52.0574C442.201 53.1417 439.629 59.4693 437.091 60.3027C436.775 60.4301 436.433 60.4971 436.088 60.4998C435.742 60.5025 435.399 60.4408 435.08 60.3183C434.761 60.1959 434.472 60.0153 434.231 59.7873C433.99 59.5594 433.801 59.2888 433.676 58.9919L434.563 55.294Z" fill="#EB9481"/>
<path d="M439.277 53.875V53.9397C437.521 54.579 436.546 56.0759 435.87 57.6376C435.975 57.4752 436.117 57.3357 436.286 57.2288C436.455 57.1219 436.647 57.0502 436.85 57.0186C437.052 56.9871 437.259 56.9964 437.457 57.046C437.655 57.0956 437.838 57.1843 437.995 57.3058C437.995 57.3058 437.995 57.4029 437.951 57.3948C437.64 57.2975 437.304 57.2919 436.989 57.379C436.674 57.466 436.397 57.6412 436.195 57.8803C435.852 58.2782 435.558 58.7096 435.317 59.1669C435.238 59.3045 434.948 59.2236 435.019 59.0617V59.0213C435.063 56.9417 436.854 54.0611 439.277 53.875Z" fill="#263238"/>
<path d="M423.684 71.2883L427.337 78.9672L437.487 68.8203L440.569 71.8951C440.569 71.8951 430.849 87.8275 430.761 87.1235L427.047 80.5208L422.191 85.3353V73.6105L423.684 71.2883Z" fill="#217BB7"/>
<path d="M421.839 79.5397C421.909 77.5977 421.918 75.6477 422.085 73.7219C422.085 73.649 422.208 73.6167 422.226 73.7219C422.717 75.5748 422.401 82.9787 422.471 84.7426C422.673 84.5322 426.985 80.5026 427.028 80.5593C427.827 81.6031 430.541 86.4095 430.734 86.8465C432.27 84.3219 438.82 74.3287 440.656 71.9174C440.708 71.8527 440.831 71.9174 440.787 71.9822C439.444 74.6524 430.997 87.8336 430.865 87.8013C429.441 85.5372 428.146 83.2063 426.985 80.8182C426.265 81.6921 421.927 86.2234 421.901 85.9402C421.76 83.8091 421.74 81.6728 421.839 79.5397Z" fill="#263238"/>
<path d="M310.176 344.482C308.06 345.089 246.413 343.859 244.165 342.475C243.287 341.966 248.555 288.148 248.555 288.148L287.654 288.836L283.202 324.836C283.202 324.836 305.979 334.772 308.314 336.512C310.65 338.252 312.283 343.859 310.176 344.482Z" fill="#AD6359"/>
<path d="M310.174 344.485C308.067 345.092 246.412 343.862 244.164 342.478C243.892 342.317 243.813 336.855 244.787 329.742C255.965 331.466 295.871 337.114 298.979 335.406C301.148 334.233 299.225 332.396 297.452 331.158C302.544 333.505 307.303 335.754 308.286 336.507C310.569 338.271 312.282 343.87 310.174 344.485Z" fill="#263238"/>
<path d="M284.334 316.164L245.973 315.695C245.973 315.695 253.577 230.968 253.261 229.341C252.857 227.254 225.629 128.852 225.629 128.852H262.26C262.26 128.852 291.148 220.57 292.184 229.406C293.834 243.679 284.334 316.164 284.334 316.164Z" fill="#263238"/>
<path d="M249.396 307.711C251.661 307.558 253.962 307.582 256.236 307.558C258.51 307.533 260.784 307.558 263.058 307.558C267.615 307.598 272.163 307.663 276.712 307.784C277.958 307.784 279.205 307.849 280.452 307.906C281.699 307.962 283.086 308.173 284.438 308.213C284.456 308.218 284.471 308.229 284.482 308.243C284.493 308.256 284.499 308.273 284.499 308.29C284.499 308.307 284.493 308.324 284.482 308.337C284.471 308.351 284.456 308.361 284.438 308.367C283.323 308.367 282.199 308.529 281.084 308.553C279.969 308.577 278.766 308.593 277.572 308.593C275.289 308.593 273.012 308.593 270.741 308.593C266.193 308.593 261.636 308.504 257.088 308.326C254.515 308.229 251.925 308.205 249.37 307.962C249.352 307.961 249.334 307.956 249.319 307.948C249.303 307.94 249.289 307.93 249.277 307.917C249.266 307.904 249.257 307.889 249.252 307.874C249.247 307.858 249.245 307.841 249.247 307.825C249.248 307.808 249.254 307.792 249.262 307.778C249.271 307.763 249.282 307.75 249.296 307.74C249.31 307.729 249.326 307.721 249.343 307.716C249.36 307.711 249.378 307.71 249.396 307.711Z" fill="#37474F"/>
<path d="M233.679 136.794C236.963 147.491 239.957 158.277 242.89 169.064C245.822 179.85 248.755 190.636 251.67 201.43L256.06 217.613C257.474 222.865 259.125 228.132 259.476 233.578C259.827 239.024 259.072 244.663 258.598 250.158C258.124 255.652 257.588 261.203 257.061 266.721C256.016 277.774 255.007 288.827 253.707 299.856C253.54 301.232 253.382 302.615 253.233 303.999C253.233 304.112 253.022 304.112 253.031 303.999C253.821 292.946 254.647 281.893 255.604 270.824C256.09 265.294 256.578 259.77 257.07 254.252C257.562 248.742 258.264 243.207 258.449 237.68C258.633 232.154 257.571 226.757 256.069 221.368C254.568 215.979 253.198 210.8 251.767 205.524C248.84 194.736 245.913 183.947 242.986 173.158C239.738 161.077 236.489 148.972 233.618 136.802C233.608 136.798 233.6 136.79 233.595 136.781C233.59 136.772 233.589 136.761 233.591 136.751C233.593 136.741 233.598 136.732 233.606 136.725C233.614 136.717 233.624 136.713 233.635 136.711C233.646 136.71 233.657 136.712 233.667 136.717C233.677 136.721 233.685 136.729 233.69 136.738C233.695 136.747 233.696 136.758 233.694 136.768C233.693 136.778 233.687 136.787 233.679 136.794Z" fill="#37474F"/>
<path d="M225.594 128.852C225.594 128.852 237.28 171.065 245.455 200.786L261.04 128.852H225.594Z" fill="#37474F"/>
<path d="M264.139 344.6C262.023 345.207 200.377 343.977 198.12 342.594C197.242 342.084 200.473 288.234 200.473 288.234L239.063 288.93L237.192 324.954C237.192 324.954 259.942 334.882 262.243 336.646C264.543 338.41 266.247 344.002 264.139 344.6Z" fill="#AD6359"/>
<path d="M264.139 344.595C262.023 345.202 200.377 343.972 198.12 342.588C197.848 342.434 197.918 337.11 198.12 329.844C209.298 331.567 249.827 337.223 252.936 335.508C255.096 334.335 253.182 332.498 251.408 331.268C256.501 333.606 261.251 335.856 262.234 336.616C264.526 338.397 266.247 343.996 264.139 344.595Z" fill="#263238"/>
<path d="M261.048 128.836C261.048 128.836 258.975 152.715 254.752 158.702C251.057 160.017 247.5 161.642 244.128 163.557C244.128 163.557 241.494 227.408 241.494 231.244C241.669 245.59 237.692 315.461 237.692 315.461L198.988 315.121C198.988 315.121 203.001 236.107 203.018 230.855C203.018 225.774 205.653 193.707 207.988 165.912C207.988 165.912 204.546 157.011 204.924 152.545C205.846 141.678 211.14 128.828 211.14 128.828L261.048 128.836Z" fill="#263238"/>
<path d="M247.431 151.535C247.572 150.645 247.721 149.747 247.87 148.857C248.143 147.238 248.503 145.62 248.81 144.002C249.521 140.304 250.25 136.598 251.145 132.932C251.145 132.911 251.155 132.89 251.171 132.875C251.188 132.86 251.21 132.852 251.233 132.852C251.257 132.852 251.279 132.86 251.295 132.875C251.312 132.89 251.321 132.911 251.321 132.932C251.163 134.413 250.979 135.886 250.75 137.359C250.522 138.831 250.364 140.32 250.136 141.793C249.688 144.714 249.258 147.643 248.713 150.548C248.503 151.673 247.748 153.679 249.495 154.027C250.882 154.302 251.901 153.048 252.305 151.996C252.739 150.674 253.05 149.321 253.235 147.95C253.525 146.478 253.771 144.997 253.999 143.516C254.502 140.28 255.038 137.043 255.606 133.806C255.606 133.717 255.79 133.742 255.781 133.806C255.704 137.115 255.446 140.418 255.009 143.702C254.781 145.272 254.523 146.839 254.236 148.404C254.062 149.907 253.669 151.382 253.068 152.789C252.819 153.342 252.423 153.828 251.917 154.203C251.411 154.577 250.81 154.829 250.171 154.934H250.083C250.099 154.943 250.113 154.956 250.122 154.972C250.131 154.987 250.136 155.005 250.136 155.023C250.136 155.549 250.136 156.083 250.066 156.641C249.995 157.199 249.899 157.677 249.793 158.186C249.69 158.709 249.544 159.223 249.354 159.724C249.196 160.213 248.94 160.672 248.599 161.075C248.59 161.095 248.573 161.111 248.552 161.121C248.531 161.13 248.506 161.132 248.484 161.126C248.461 161.12 248.441 161.107 248.429 161.088C248.416 161.07 248.411 161.048 248.415 161.027C248.415 160.938 248.415 160.857 248.415 160.768V160.727C248.402 160.576 248.402 160.425 248.415 160.274C248.415 160.023 248.511 159.772 248.573 159.521C248.696 159.028 248.845 158.526 248.986 158.041C249.126 157.555 249.249 157.045 249.381 156.552C249.512 156.058 249.706 155.548 249.837 155.039C249.833 155.031 249.831 155.023 249.831 155.014C249.831 155.006 249.833 154.998 249.837 154.99C249.322 155.012 248.812 154.887 248.376 154.634C247.94 154.381 247.598 154.011 247.396 153.574C247.216 152.903 247.228 152.2 247.431 151.535Z" fill="#37474F"/>
<path d="M240.949 164.357C242.105 163.542 243.323 162.804 244.593 162.148C245.926 161.405 247.31 160.742 248.737 160.166C251.538 159.041 254.427 158.28 257.315 157.398C257.403 157.398 257.465 157.504 257.377 157.536C254.576 158.564 251.898 159.923 249.194 161.145C247.859 161.744 246.559 162.31 245.155 162.868C243.75 163.427 242.459 164.042 241.054 164.535C241.03 164.54 241.004 164.538 240.982 164.529C240.959 164.519 240.94 164.503 240.928 164.483C240.916 164.463 240.912 164.44 240.915 164.417C240.919 164.394 240.931 164.373 240.949 164.357Z" fill="#37474F"/>
<path d="M219.095 144.426C221.07 144.426 227.875 143.964 229.895 141.885C231.019 140.65 231.874 139.227 232.415 137.693C233.046 136.033 233.557 134.335 233.942 132.612C233.942 132.593 233.951 132.574 233.966 132.56C233.98 132.547 234 132.539 234.021 132.539C234.042 132.539 234.062 132.547 234.077 132.56C234.092 132.574 234.1 132.593 234.1 132.612C234.146 134.56 233.88 136.504 233.31 138.381C232.836 140 232.195 141.755 230.799 142.872C229.246 143.942 227.387 144.569 225.452 144.676C223.338 144.905 221.201 144.877 219.095 144.596C218.963 144.62 218.963 144.426 219.095 144.426Z" fill="#37474F"/>
<path d="M265.677 144.913C264.688 144.626 263.786 144.13 263.043 143.464C261.559 141.393 261.199 134.83 261.067 133.099C261.067 133.018 261.023 133.042 261.023 133.099C261.023 135.041 261.094 137.007 261.269 138.876C261.344 140.395 261.603 141.901 262.042 143.367C262.499 144.54 265.001 145.35 265.651 145.083C265.721 145.091 265.721 144.913 265.677 144.913Z" fill="#37474F"/>
<path d="M200.693 308.224C202.949 308.07 205.25 308.07 207.524 308.07C209.798 308.07 212.081 308.07 214.364 308.07C218.912 308.111 223.469 308.175 228.017 308.297C229.264 308.297 230.502 308.362 231.749 308.41C232.995 308.459 234.383 308.677 235.735 308.726C235.756 308.726 235.776 308.733 235.791 308.747C235.806 308.761 235.814 308.779 235.814 308.799C235.814 308.818 235.806 308.836 235.791 308.85C235.776 308.864 235.756 308.871 235.735 308.871C234.611 308.871 233.496 309.033 232.372 309.066C231.248 309.098 230.054 309.066 228.86 309.066H222.029C217.481 309.066 212.924 308.977 208.384 308.799C205.812 308.701 203.213 308.669 200.657 308.434C200.635 308.423 200.618 308.406 200.606 308.385C200.595 308.364 200.591 308.341 200.595 308.318C200.599 308.295 200.61 308.274 200.628 308.257C200.645 308.24 200.668 308.229 200.693 308.224Z" fill="#37474F"/>
<path d="M205.418 303.578C205.356 303.577 205.294 303.564 205.237 303.54C205.181 303.517 205.13 303.483 205.088 303.44C205.046 303.398 205.014 303.348 204.994 303.294C204.973 303.239 204.965 303.182 204.97 303.124L213.68 164.847C213.566 164.24 211.108 156.521 210.888 152.572C210.651 148.405 215.331 132.149 215.533 131.461C215.568 131.351 215.647 131.257 215.755 131.2C215.863 131.143 215.991 131.126 216.112 131.154C216.231 131.184 216.333 131.256 216.395 131.354C216.457 131.452 216.476 131.569 216.446 131.68C216.393 131.85 211.608 148.494 211.828 152.532C212.047 156.569 214.602 164.669 214.62 164.75C214.637 164.831 205.839 303.116 205.839 303.116C205.849 303.229 205.81 303.34 205.731 303.427C205.653 303.513 205.54 303.567 205.418 303.578Z" fill="#37474F"/>
<path d="M257.388 46.9709C257.388 46.9709 249.635 41.9784 240.205 48.1766C229.001 55.5561 228.738 84.7344 227.781 87.2509C226.824 89.7674 225.551 90.2529 224.857 92.5185C224.163 94.7842 226.06 96.5077 226.209 97.3735C226.358 98.2393 223.355 102.188 223.355 102.188C223.355 102.188 236.728 106.938 245.561 106.234C254.394 105.53 264.755 101.079 264.755 101.079C264.755 101.079 263.104 98.3202 263.244 97.1146C263.385 95.9089 265.123 94.4443 265.264 92.2596C265.404 90.0749 262.112 87.0082 261.892 85.7863C261.673 84.5645 266.16 62.9114 265.009 55.0382C263.859 47.1651 257.388 46.9709 257.388 46.9709Z" fill="#263238"/>
<path d="M265.227 100.516C264.551 99.6233 264.013 98.6484 263.629 97.6193C263.536 97.3584 263.515 97.0805 263.567 96.8102C264.208 95.0948 266.069 93.703 265.973 91.7772C265.727 90.2884 264.34 88.9371 263.444 87.7314C262.83 87.0631 262.428 86.2508 262.285 85.3848C262.285 85.0693 262.338 84.8184 262.373 84.5352C263.787 75.4969 265.622 66.3858 265.086 57.218C265.032 55.0369 264.504 52.8879 263.532 50.8984C264.632 52.8277 265.284 54.9468 265.446 57.1209C266.368 66.3129 264.568 75.5131 263.04 84.5595C263.04 84.8184 262.952 85.1016 262.944 85.3282C263.096 86.0659 263.443 86.7579 263.953 87.343C264.884 88.6862 266.245 90.0456 266.456 91.7044C266.517 93.7516 264.603 95.0948 263.822 96.8264C263.752 97.0731 263.752 97.3322 263.822 97.5789C264.151 98.6096 264.623 99.5968 265.227 100.516Z" fill="#263238"/>
<path d="M222.768 100.971C223.461 99.9113 224.436 98.5438 225.033 97.5081V97.4676C224.954 97.2854 224.854 97.1118 224.734 96.9497C223.661 95.6233 223.197 93.9605 223.444 92.3213C223.812 90.3875 225.463 88.8905 226.367 87.2398C226.906 86.1041 227.184 84.8783 227.184 83.6391C228.15 72.9662 230.143 54.922 239.942 48.036C241.061 47.2703 242.314 46.6874 243.647 46.3125C242.352 46.7547 241.143 47.3858 240.065 48.1817C230.758 55.3427 228.993 73.0471 227.843 83.6714C227.831 84.9876 227.507 86.2856 226.894 87.4745C225.893 89.2061 224.313 90.4684 223.865 92.3861C223.619 93.6123 223.833 94.8791 224.471 95.9788C224.69 96.4157 224.971 96.7879 225.2 97.2572C225.237 97.3307 225.255 97.411 225.252 97.4919C224.485 98.6859 223.649 99.8419 222.75 100.955L222.768 100.971Z" fill="#263238"/>
<path d="M251.084 94.1568C261.48 110.656 274.3 128.303 282.746 129.582C289.323 130.585 305.575 128.166 321.801 121.749C324.892 120.527 311.168 99.6914 308.885 100.25C302.809 101.739 285.486 107.079 284.608 106.407C283.414 105.525 269.426 93.9706 259.777 86.6558C246.738 76.8084 245.711 85.6201 251.084 94.1568Z" fill="#AD6359"/>
<path d="M317.717 123.331C320.553 122.967 333.346 120.24 336.726 118.743C340.107 117.246 349.484 112.27 348.51 109.802C347.535 107.334 344.655 108.548 344.655 108.548C344.655 108.548 348.264 105.878 347.026 103.45C345.788 101.023 341.389 103.086 341.389 103.086C341.389 103.086 344.901 100.1 343.461 97.7535C342.021 95.407 337.991 98.1743 337.991 98.1743C337.991 98.1743 341.319 95.5769 339.264 94.1285C336.797 92.3484 331.256 97.7697 327.393 99.1615C326.515 99.4851 309.121 104.405 309.121 104.405L317.717 123.331Z" fill="#AD6359"/>
<path d="M338.341 97.9385C334.258 101.92 331.729 103.012 326.048 104.347C325.943 104.347 325.952 104.525 326.048 104.509C331.729 103.7 335.119 102.729 338.525 98.1165C338.727 97.89 338.543 97.7524 338.341 97.9385Z" fill="#263238"/>
<path d="M341.677 102.764C337.041 106.559 334.301 107.765 328.506 109.561C328.427 109.561 328.506 109.715 328.55 109.699C334.424 108.372 337.778 107.36 341.87 103.015C342.063 102.813 341.923 102.594 341.677 102.764Z" fill="#263238"/>
<path d="M344.356 108.634C339.589 112.008 336.647 113.448 330.747 114.525C330.723 114.531 330.702 114.544 330.687 114.562C330.672 114.581 330.664 114.603 330.664 114.626C330.664 114.649 330.672 114.671 330.687 114.689C330.702 114.707 330.723 114.721 330.747 114.727C336.893 114.169 340.563 112.396 344.427 108.78C344.716 108.537 344.655 108.424 344.356 108.634Z" fill="#263238"/>
<path d="M305.152 103.513C305.152 103.513 309.771 98.1242 312.361 96.1742C314.951 94.2241 327.533 90.2268 328.622 92.6786C330.036 95.8505 323.266 99.4755 319.701 100.851C319.701 100.851 322.968 108.174 318.718 111.742C314.468 115.311 305.152 103.513 305.152 103.513Z" fill="#AD6359"/>
<path d="M328.702 93.6484C327.728 97.3948 322.916 98.9242 319.571 100.494C319.52 100.515 319.476 100.546 319.441 100.586C319.407 100.626 319.384 100.673 319.373 100.723C319.363 100.773 319.366 100.825 319.382 100.874C319.398 100.923 319.427 100.967 319.466 101.004C320.616 104.159 321.222 108.917 318.956 111.741C318.944 111.758 318.939 111.777 318.942 111.797C318.945 111.817 318.956 111.835 318.972 111.848C318.988 111.86 319.009 111.867 319.03 111.867C319.052 111.867 319.072 111.86 319.088 111.846C321.977 109.128 321.775 104.402 320.282 101.028C323.794 99.4582 328.492 97.7347 328.746 93.6565L328.702 93.6484Z" fill="#263238"/>
<path d="M303.782 100.867L316.408 125.757C316.408 125.757 289.698 132.877 281.058 129.948C272.419 127.019 256.509 106.215 249.879 92.6862C243.057 78.8415 252.795 80.5488 259.538 86.0916C266.281 91.6343 284.307 105.657 284.895 105.778C285.484 105.9 303.782 100.867 303.782 100.867Z" fill="#5453A3"/>
<path d="M303.536 114.297C302.711 112.582 301.877 110.872 301.034 109.167C300.156 107.468 299.401 105.72 298.4 104.078C298.356 104.005 298.215 104.078 298.242 104.126C298.856 105.842 299.682 107.509 300.428 109.175C301.174 110.842 302.026 112.711 302.834 114.475C304.432 117.963 306.179 121.386 307.988 124.792C308.032 124.873 308.155 124.792 308.119 124.727C306.697 121.216 305.196 117.736 303.536 114.297Z" fill="#263238"/>
<path opacity="0.1" d="M249.878 92.6891C256.551 106.218 272.426 127.014 281.057 129.911C283.068 130.59 286.062 130.72 289.469 130.534L251.915 82.0972C247.903 81.3609 245.532 83.8855 249.878 92.6891Z" fill="black"/>
<path d="M263.966 119.996L265.678 133.938C265.678 133.938 263.614 133.849 256.792 133.501L255.185 128.436L252.016 133.29L208.887 130.175L215.498 119.26C220.696 108.692 227.29 92.7516 235.965 85.1374C242.858 79.0849 250.383 80.0235 254.878 84.8137C256.011 86.0274 267.1 103.165 268.154 110.027C269.067 116.104 263.966 119.996 263.966 119.996Z" fill="#5453A3"/>
<path d="M246.334 116.188C249.036 116.46 251.711 116.928 254.333 117.588C255.633 117.944 256.906 118.348 258.179 118.785C258.82 119.004 259.452 119.198 260.093 119.392C260.759 119.609 261.453 119.747 262.156 119.805C262.218 119.805 262.218 119.894 262.156 119.902C261.491 119.923 260.826 119.904 260.163 119.845C259.525 119.762 258.894 119.635 258.275 119.465C256.958 119.125 255.641 118.72 254.324 118.364C251.69 117.652 249.003 116.932 246.299 116.414C246.176 116.39 246.211 116.18 246.334 116.188Z" fill="#263238"/>
<path d="M239.652 118.539C241.875 118.329 244.109 118.24 246.343 118.272C247.458 118.272 248.565 118.385 249.68 118.507C250.206 118.563 250.742 118.628 251.269 118.701C251.796 118.774 252.419 118.944 253.025 119.017C253.078 119.017 253.078 119.114 253.025 119.114C252.472 119.057 251.91 119.114 251.357 119.114L249.688 119.057C248.582 119.017 247.467 118.992 246.352 118.944C244.122 118.847 241.9 118.774 239.67 118.758C239.521 118.725 239.538 118.555 239.652 118.539Z" fill="#263238"/>
<path d="M251.875 88.8906C254.272 93.7941 256.546 98.7462 258.434 103.836C260.647 109.791 262.139 114.355 255.343 118.206L255.449 118.045C255.449 119.776 255.449 121.5 255.352 123.231C255.255 124.963 255.247 126.686 255.185 128.418C255.141 126.686 255.08 124.955 255.071 123.231C255.062 121.508 255.071 119.703 255.071 117.939L255.176 117.883C261.718 114.112 260.172 109.678 258.1 103.949C256.248 98.8595 254.114 93.8589 251.901 88.8906H251.875Z" fill="#263238"/>
<path d="M254.875 96.9369C254.87 97.1087 254.793 97.2721 254.661 97.3928C254.528 97.5136 254.35 97.5822 254.163 97.5842C254.07 97.5842 253.978 97.5672 253.893 97.5342C253.807 97.5011 253.729 97.4527 253.664 97.3918C253.598 97.3308 253.547 97.2585 253.512 97.179C253.477 97.0995 253.46 97.0145 253.461 96.9288C253.46 96.8428 253.477 96.7574 253.513 96.6779C253.548 96.5983 253.601 96.5261 253.667 96.4657C253.734 96.4052 253.813 96.3578 253.899 96.3261C253.986 96.2945 254.079 96.2793 254.172 96.2815C254.265 96.2814 254.357 96.2985 254.443 96.3315C254.529 96.3645 254.607 96.4129 254.672 96.4739C254.737 96.5349 254.789 96.6072 254.824 96.6867C254.858 96.7662 254.876 96.8512 254.875 96.9369Z" fill="#263238"/>
<path d="M256.719 104.296C256.717 104.381 256.698 104.465 256.662 104.543C256.625 104.622 256.573 104.692 256.507 104.752C256.441 104.811 256.362 104.858 256.277 104.889C256.191 104.921 256.1 104.937 256.007 104.936C255.914 104.937 255.821 104.92 255.735 104.888C255.649 104.855 255.57 104.807 255.505 104.746C255.439 104.684 255.388 104.612 255.353 104.532C255.319 104.452 255.303 104.366 255.305 104.28C255.305 104.194 255.323 104.11 255.359 104.031C255.395 103.952 255.448 103.88 255.514 103.82C255.58 103.759 255.658 103.712 255.745 103.68C255.831 103.648 255.923 103.632 256.016 103.633C256.204 103.637 256.383 103.709 256.514 103.833C256.645 103.957 256.719 104.123 256.719 104.296Z" fill="#263238"/>
<path d="M258.352 111.015C258.352 111.145 258.31 111.272 258.232 111.38C258.153 111.488 258.041 111.572 257.911 111.621C257.781 111.67 257.637 111.683 257.499 111.657C257.361 111.631 257.234 111.568 257.135 111.475C257.036 111.383 256.969 111.265 256.942 111.138C256.916 111.01 256.931 110.878 256.986 110.758C257.042 110.639 257.134 110.537 257.252 110.466C257.37 110.395 257.509 110.358 257.65 110.359C257.743 110.359 257.835 110.376 257.921 110.409C258.006 110.442 258.084 110.491 258.149 110.552C258.215 110.613 258.266 110.685 258.301 110.765C258.336 110.844 258.353 110.929 258.352 111.015Z" fill="#263238"/>
<path d="M253.875 117.046C253.886 117.138 253.876 117.23 253.846 117.318C253.815 117.406 253.765 117.487 253.698 117.556C253.632 117.624 253.55 117.679 253.459 117.717C253.367 117.755 253.268 117.774 253.168 117.774C253.068 117.774 252.969 117.755 252.878 117.717C252.787 117.679 252.705 117.624 252.638 117.556C252.571 117.487 252.521 117.406 252.491 117.318C252.46 117.23 252.45 117.138 252.461 117.046C252.46 116.96 252.478 116.875 252.513 116.795C252.549 116.715 252.601 116.643 252.668 116.583C252.734 116.522 252.813 116.475 252.9 116.443C252.987 116.412 253.079 116.396 253.173 116.399C253.359 116.399 253.538 116.467 253.669 116.588C253.801 116.71 253.875 116.874 253.875 117.046Z" fill="#263238"/>
<path d="M253.531 123.747C253.53 123.833 253.51 123.918 253.473 123.997C253.437 124.076 253.383 124.148 253.316 124.208C253.25 124.268 253.17 124.316 253.084 124.348C252.997 124.38 252.904 124.395 252.811 124.394C252.719 124.393 252.628 124.376 252.543 124.342C252.458 124.308 252.381 124.26 252.317 124.199C252.252 124.138 252.202 124.066 252.167 123.987C252.133 123.908 252.116 123.824 252.117 123.739C252.137 123.579 252.219 123.431 252.35 123.323C252.48 123.216 252.649 123.156 252.824 123.156C252.999 123.156 253.168 123.216 253.298 123.323C253.429 123.431 253.511 123.579 253.531 123.739V123.747Z" fill="#263238"/>
<path d="M244.113 82.8545C244.219 83.7608 247.994 89.9427 252.358 90.2421C253.78 90.3392 254.694 83.2186 254.694 83.2186L254.887 82.7089L257.653 75.5397L249.004 68.9369L247.74 68.0469C247.74 68.0469 247.125 70.0536 246.387 72.5539L246.282 72.9099C246.282 73.0556 246.185 73.185 246.15 73.3226C246.036 73.6948 245.922 74.0751 245.817 74.4554C245.711 74.8357 245.65 75.0299 245.571 75.3374L245.334 76.2518C244.758 78.4233 244.35 80.6298 244.113 82.8545Z" fill="#AD6359"/>
<path d="M246.387 72.5539C246.919 74.7135 247.955 76.7405 249.423 78.4941C250.89 80.2477 252.755 81.6859 254.886 82.7089L257.652 75.5397L249.003 68.9369L247.739 68.0469C247.739 68.0469 247.124 70.0536 246.387 72.5539Z" fill="#263238"/>
<path d="M268.75 61.6628C272.007 74.666 263.921 77.9269 260.848 78.5742C258.091 79.1568 248.599 80.8156 243.91 68.1927C239.222 55.5698 244.788 50.0675 250.996 48.4249C257.204 46.7823 265.501 48.6596 268.75 61.6628Z" fill="#AD6359"/>
<path d="M266.283 61.0011C265.949 61.0051 265.614 60.9889 265.282 60.9525C264.927 60.986 264.571 60.906 264.273 60.726C264.191 60.6547 264.137 60.5604 264.119 60.4579C264.102 60.3555 264.122 60.2505 264.176 60.1596C264.314 59.9934 264.497 59.8639 264.707 59.7843C264.916 59.7047 265.145 59.6778 265.37 59.7064C265.837 59.703 266.289 59.8553 266.643 60.1353C266.717 60.205 266.768 60.2929 266.79 60.3885C266.812 60.4842 266.803 60.5835 266.765 60.6747C266.727 60.7659 266.661 60.8452 266.576 60.903C266.491 60.9609 266.389 60.9949 266.283 61.0011Z" fill="#263238"/>
<path d="M256.668 62.0882C256.984 61.9959 257.295 61.8878 257.599 61.7645C257.945 61.6887 258.253 61.5095 258.477 61.2547C258.531 61.1633 258.551 61.0574 258.531 60.9546C258.512 60.8517 258.456 60.7578 258.371 60.6883C258.187 60.5676 257.97 60.4955 257.744 60.4798C257.518 60.4641 257.292 60.5054 257.089 60.5993C256.636 60.7345 256.256 61.0239 256.027 61.4085C255.988 61.4949 255.975 61.5897 255.991 61.6823C256.007 61.7749 256.051 61.8615 256.118 61.9322C256.185 62.003 256.272 62.0551 256.369 62.0827C256.466 62.1102 256.57 62.1121 256.668 62.0882Z" fill="#263238"/>
<path d="M259.206 64.3047C259.206 64.3047 259.145 64.3532 259.145 64.3937C259.356 65.2838 259.435 66.3357 258.609 66.7726C258.609 66.7726 258.609 66.8374 258.609 66.8212C259.672 66.5056 259.558 65.1138 259.206 64.3047Z" fill="#263238"/>
<path d="M258.162 63.512C256.572 63.6658 257.02 66.5707 258.486 66.425C259.953 66.2794 259.487 63.3826 258.162 63.512Z" fill="#263238"/>
<path d="M257.564 63.7434C257.309 63.9457 257.089 64.2693 256.756 64.3422C256.422 64.415 256.045 64.1641 255.746 63.9052C255.746 63.9052 255.693 63.9052 255.746 63.9052C255.816 64.4635 256.141 64.9976 256.8 64.9976C257.458 64.9976 257.748 64.4474 257.818 63.8728C257.783 63.8081 257.66 63.7029 257.564 63.7434Z" fill="#263238"/>
<path d="M264.561 63.1641C264.561 63.1641 264.649 63.1641 264.649 63.2369C264.754 64.1431 265.027 65.1627 265.957 65.3488V65.4054C264.86 65.3973 264.5 64.038 264.561 63.1641Z" fill="#263238"/>
<path d="M265.291 62.0854C266.845 61.7779 267.39 64.6666 265.95 64.9498C264.51 65.233 264.001 62.3686 265.291 62.0854Z" fill="#263238"/>
<path d="M265.994 62.2012C266.266 62.3145 266.565 62.5572 266.872 62.5248C267.179 62.4925 267.416 62.1364 267.574 61.8047C267.574 61.8047 267.627 61.8047 267.636 61.8047C267.75 62.3549 267.636 62.9618 267.109 63.156C266.582 63.3502 266.126 62.9294 265.88 62.4035C265.827 62.3225 265.88 62.1607 265.994 62.2012Z" fill="#263238"/>
<path d="M260.345 71.9011C260.599 72.0953 260.863 72.3624 261.223 72.3624C261.585 72.3198 261.935 72.2097 262.25 72.0387C262.25 72.0387 262.32 72.0387 262.303 72.0387C262.181 72.2294 262.006 72.3865 261.796 72.4933C261.586 72.6001 261.348 72.6527 261.109 72.6456C260.899 72.6173 260.704 72.5321 260.547 72.401C260.391 72.2698 260.281 72.0986 260.23 71.9092C260.23 71.9011 260.301 71.8769 260.345 71.9011Z" fill="#263238"/>
<path d="M263.875 68.0839C263.875 68.0839 264.296 69.3947 264.401 70.0259C264.401 70.0825 264.252 70.1392 264.024 70.1796C263.45 70.3634 262.833 70.398 262.24 70.2795C261.647 70.161 261.1 69.8941 260.661 69.508C260.646 69.4973 260.636 69.4814 260.633 69.464C260.631 69.4465 260.636 69.4289 260.648 69.415C260.659 69.401 260.677 69.3919 260.696 69.3896C260.714 69.3873 260.734 69.3921 260.749 69.4028C261.718 69.8316 262.811 69.9594 263.866 69.7669C263.866 69.5889 263.058 67.5417 263.163 67.5175C263.705 67.4867 264.248 67.5221 264.779 67.6227C263.98 64.8634 262.707 62.2498 261.952 59.531C261.952 59.4339 262.083 59.3773 262.127 59.4663C263.585 62.2336 264.738 65.1287 265.569 68.1082C265.657 68.4237 264.164 68.1486 263.875 68.0839Z" fill="#263238"/>
<path d="M263.919 69.9623C263.62 70.5313 263.17 71.0213 262.611 71.3865C262.299 71.5763 261.931 71.6724 261.557 71.6616C260.74 71.6616 260.574 70.9819 260.582 70.3912C260.591 70.0798 260.639 69.7704 260.723 69.4688C261.705 69.9387 262.824 70.1114 263.919 69.9623Z" fill="#263238"/>
<path d="M262.657 71.3821C262.346 71.572 261.977 71.6681 261.604 71.6572C260.787 71.6572 260.62 70.9775 260.629 70.3869C261.04 70.3182 261.463 70.3791 261.831 70.5597C262.199 70.7403 262.49 71.0301 262.657 71.3821Z" fill="#FF9ABB"/>
<path d="M244.052 68.9159C244.946 68.4334 245.689 67.7449 246.208 66.9178C246.727 66.0908 247.003 65.1537 247.011 64.1985C249.453 62.9927 251.504 61.2113 252.955 59.0361C252.885 59.3193 252.349 61.3503 252.077 62.386C261.129 60.1365 263.421 53.4852 263.421 53.4852C265.304 54.8476 266.829 56.5847 267.881 58.5667C267.881 58.5667 267.504 53.3638 264.317 50.1029C263.278 48.9546 261.926 48.0823 260.399 47.576C258.873 47.0697 257.228 46.9476 255.633 47.2223C253.322 46.8802 250.953 47.1181 248.776 47.9112C246.599 48.7043 244.694 50.0232 243.261 51.7293C237.774 58.1541 244.052 68.9159 244.052 68.9159Z" fill="#263238"/>
<path d="M258.907 60.4688C257.494 61.3193 255.953 61.9711 254.332 62.4027C254.332 62.4027 254.332 62.4027 254.332 62.4027C256.859 61.5652 259.082 60.0939 260.75 58.1546C261.461 57.3313 262.052 56.4253 262.507 55.4601C263.059 54.4264 263.382 53.3011 263.455 52.1507C263.455 52.1335 263.462 52.117 263.475 52.1049C263.489 52.0928 263.506 52.0859 263.525 52.0859C263.544 52.0859 263.562 52.0928 263.575 52.1049C263.588 52.117 263.595 52.1335 263.595 52.1507C263.656 53.2928 263.508 54.4363 263.156 55.533C262.754 56.6109 262.141 57.6118 261.347 58.4864C260.639 59.2544 259.817 59.9271 258.907 60.485" fill="#263238"/>
<path d="M246.429 68.7244C246.429 68.7244 242.662 65.0023 240.792 66.2969C238.922 67.5916 242.188 73.2638 244.69 73.7736C245.007 73.859 245.34 73.8847 245.668 73.849C245.996 73.8134 246.313 73.7171 246.6 73.5661C246.887 73.415 247.138 73.2122 247.337 72.9698C247.537 72.7274 247.682 72.4504 247.763 72.1553L246.429 68.7244Z" fill="#AD6359"/>
<path d="M241.777 67.8933V67.9581C243.533 68.3626 244.649 69.6816 245.491 71.0814C245.371 70.9396 245.219 70.8235 245.045 70.7411C244.871 70.6588 244.68 70.6122 244.484 70.6045C244.289 70.5968 244.094 70.6282 243.913 70.6966C243.733 70.765 243.57 70.8686 243.437 71.0005C243.437 71.0005 243.437 71.0976 243.49 71.0814C243.775 70.9488 244.099 70.9032 244.415 70.9512C244.73 70.9992 245.021 71.1383 245.246 71.3484C245.608 71.6894 245.932 72.0635 246.211 72.4651C246.317 72.5945 246.571 72.4651 246.492 72.3356C246.168 70.3289 244.095 67.7962 241.777 67.8933Z" fill="#263238"/>
<path d="M254.913 82.7394L252.05 88.7029L244.148 80.7812L241.777 83.1278C241.777 83.1278 249.293 95.5484 249.364 94.9982L252.27 89.8762L256.028 93.6307V84.5115L254.913 82.7394Z" fill="#EBEBEB"/>
<path d="M256.324 89.1515C256.272 87.6465 256.272 86.1253 256.149 84.6283C256.149 84.5717 256.052 84.5474 256.035 84.6283C255.657 86.0686 255.877 91.8217 255.815 93.1973C255.657 93.0355 252.303 89.8878 252.303 89.9607C251.68 90.7698 249.546 94.5001 249.405 94.8156C248.211 92.8413 243.154 85.0572 241.731 83.1799C241.731 83.1233 241.6 83.1799 241.635 83.2285C242.662 85.2999 249.195 95.5762 249.3 95.552C249.405 95.5277 252.004 91.0045 252.338 90.1306C252.9 90.8184 256.254 94.3544 256.272 94.1279C256.383 92.471 256.4 90.81 256.324 89.1515Z" fill="#263238"/>
<path d="M356.033 31.0721C356 27.3726 356.575 23.6899 357.736 20.1484C357.772 23.8482 357.198 27.5315 356.033 31.0721Z" fill="#263238"/>
<path d="M327.831 33.9862C325.792 30.7987 324.288 27.3448 323.371 23.7422C325.407 26.9313 326.911 30.3846 327.831 33.9862Z" fill="#263238"/>
<path d="M304.976 49.5015C301.481 47.6709 298.305 45.366 295.555 42.6641C299.052 44.4849 302.229 46.7849 304.976 49.4853V49.5015Z" fill="#263238"/>
<path d="M293.607 73.4693C289.594 73.4977 285.598 72.9713 281.754 71.9077C285.768 71.8753 289.764 72.4018 293.607 73.4693Z" fill="#263238"/>
<path d="M296.768 99.4688C293.307 101.341 289.56 102.724 285.652 103.571C289.111 101.693 292.859 100.309 296.768 99.4688Z" fill="#263238"/>
<path d="M390.672 112.578C394.166 114.404 397.342 116.703 400.093 119.399C396.6 117.573 393.424 115.274 390.672 112.578Z" fill="#263238"/>
<path d="M402.043 88.6111C406.057 88.5747 410.054 89.1013 413.896 90.1728C409.882 90.2052 405.886 89.6787 402.043 88.6111Z" fill="#263238"/>
<path d="M398.883 62.6105C402.342 60.7323 406.09 59.3464 409.999 58.5C406.54 60.3789 402.792 61.7648 398.883 62.6105Z" fill="#263238"/>
<path d="M382.066 41.5492C384.034 38.3302 386.521 35.4054 389.442 32.875C387.469 36.0908 384.983 39.0149 382.066 41.5492Z" fill="#263238"/>
<g opacity="0.5">
<path opacity="0.5" d="M394.019 91.3526C386.995 117.715 361.444 122.165 361.444 122.165C358.951 125.96 353.99 137.669 353.99 137.669L322.442 132.952C322.442 132.952 322.082 120.458 321.02 116.129C321.02 116.129 298.288 104.469 300.676 77.4108C302.327 58.6059 321.494 33.3116 355.263 38.3446L355.614 38.4012C389.375 43.4746 398.892 73.0251 394.019 91.3526Z" fill="#FFC727"/>
<path opacity="0.5" d="M394.018 91.3545C390.304 106.34 377.634 118.696 361.53 122.2C358.51 127.119 356.455 132.719 354.014 137.752L322.344 133.067C322.195 128.811 321.984 124.554 321.545 120.322C321.416 118.926 321.202 117.538 320.904 116.163L320.983 116.26C317.334 114.17 314.053 111.578 311.254 108.573C302.623 99.6727 298.962 87.2359 300.718 75.4707C303.203 59.9024 314.96 45.4427 331.194 40.0537C339.255 37.3107 348.105 37.0194 356.508 38.4354C383.832 42.4812 399.839 66.9502 394.044 91.3383L394.018 91.3545ZM394.018 91.3545C399.742 67.0797 383.71 42.5945 356.438 38.6458C348.07 37.2379 339.272 37.5453 331.265 40.2641C315.17 45.6531 303.536 60.04 301.104 75.495C298.707 91.1684 306.372 107.578 321.097 115.953H321.167V116.018C321.464 117.406 321.678 118.808 321.808 120.217C322.23 124.425 322.423 128.649 322.563 132.873L322.449 132.751L353.971 137.582C356.034 132.28 358.499 127.119 361.346 122.135C377.616 118.542 390.233 106.316 393.982 91.3869L394.018 91.3545Z" fill="#263238"/>
</g>
<path d="M329.829 86.6998L327.195 86.7578L328.492 136.733L331.126 136.675L329.829 86.6998Z" fill="#263238"/>
<path d="M363.184 91.6831L344.836 138.727L347.315 139.548L365.663 92.5042L363.184 91.6831Z" fill="#263238"/>
<path d="M344.443 105.612C344.17 105.61 343.897 105.589 343.627 105.547C340.633 105.102 338.358 102.149 336.971 98.5964C336.561 98.9513 336.075 99.2232 335.545 99.3946C335.014 99.566 334.45 99.6332 333.889 99.5917C328.92 98.8473 328.621 89.1293 328.621 88.7166H329.499C329.499 88.8137 329.824 98.1838 334.074 98.8149C334.566 98.8245 335.055 98.7387 335.508 98.5631C335.962 98.3875 336.371 98.1259 336.708 97.7954C335.691 94.8998 335.37 91.8349 335.768 88.8137C336.234 86.1677 337.577 84.8083 339.474 85.0915C340.033 85.1564 340.561 85.3633 341 85.6891C341.439 86.0149 341.771 86.4468 341.958 86.9364C343.038 89.55 341.08 94.3322 338.569 97.1642C338.297 97.4724 338.004 97.7642 337.691 98.0381C338.938 101.477 341.054 104.366 343.785 104.778C345.831 105.078 348.175 103.896 350.326 101.445C350.502 101.242 350.686 101.032 350.862 100.814C349.242 98.2077 348.676 95.1577 349.264 92.2041C349.861 88.8056 351.617 86.9122 353.847 87.2439C354.281 87.3075 354.688 87.4812 355.021 87.7455C355.355 88.0099 355.602 88.3545 355.735 88.7409C356.797 91.3059 355.006 96.7839 351.915 100.878C352.666 101.806 353.776 102.429 355.015 102.618C358.044 103.087 361.881 96.8082 363.101 94.3564L363.9 94.6963C363.707 95.0766 359.177 104.058 354.874 103.419C353.489 103.211 352.238 102.536 351.362 101.526C351.239 101.687 351.099 101.841 350.967 101.995C349.457 103.662 347.139 105.612 344.443 105.612ZM353.346 87.9802C351.529 87.9802 350.467 90.254 350.115 92.3012C349.606 94.9599 350.034 97.699 351.336 100.118C354.119 96.3227 355.796 91.2897 354.848 89.0322C354.767 88.7786 354.61 88.5509 354.396 88.375C354.182 88.1992 353.919 88.082 353.636 88.0369L353.346 87.9802ZM338.973 85.836C337.393 85.836 336.813 87.7294 336.602 88.9108C336.242 91.6688 336.509 94.4656 337.384 97.1238C337.542 96.9619 337.7 96.8001 337.858 96.6221C340.158 94.0166 342.055 89.5096 341.107 87.1954C340.975 86.8369 340.735 86.5208 340.414 86.2842C340.094 86.0476 339.706 85.9005 339.298 85.8603L338.973 85.836Z" fill="#263238"/>
<path d="M359.342 138.454L317.461 132.203L313.728 153.442L355.609 159.693L359.342 138.454Z" fill="#C7C7C7"/>
<path d="M350.847 159.003C347.668 162.652 342.312 165.549 333.286 164.206C324.26 162.863 320.186 158.542 318.43 154.164L350.847 159.003Z" fill="#C7C7C7"/>
<path d="M350.844 159.003C349.9 160.095 348.791 161.057 347.551 161.859L319.077 155.515C318.843 155.075 318.635 154.624 318.453 154.164L350.844 159.003Z" fill="#A6A6A6"/>
<path d="M359.838 142.701L314.848 139.853L315.173 138L360.163 140.848L359.838 142.701Z" fill="#A6A6A6"/>
<path d="M358.855 148.311L313.855 145.462L314.18 143.609L359.18 146.45L358.855 148.311Z" fill="#A6A6A6"/>
<path d="M357.861 153.912L312.871 151.072L313.196 149.219L358.195 152.059L357.861 153.912Z" fill="#A6A6A6"/>
<g opacity="0.7">
<path opacity="0.7" d="M310.947 69.7146C312.44 70.1759 315.706 63.1766 325.716 55.9589C330.167 52.7708 345.349 50.222 345.032 45.7311C344.716 41.2403 331.168 43.7891 323.512 49.7041C311.255 59.2603 309.586 69.2858 310.947 69.7146Z" fill="white"/>
<path opacity="0.7" d="M386.934 85.4124C389.761 85.8331 390.446 81.7873 387.645 81.3666C384.844 80.9458 384.107 84.9916 386.934 85.4124Z" fill="white"/>
<path opacity="0.7" d="M367.765 114.679C369.117 115.998 377.74 110.747 382.455 103.642C386.371 97.7515 388.25 89.8379 386.45 89.0773C384.65 88.3167 381.498 99.1028 378.547 102.833C374.763 107.478 366.325 113.279 367.765 114.679Z" fill="white"/>
</g>
<path d="M236.016 98.8599C241.284 120.003 255.166 146.26 263.279 146.778C272.313 147.361 265.395 118.458 264.157 117.819C263.279 117.357 253.673 107.227 243.83 94.7493C233.987 82.2721 234.716 93.6408 236.016 98.8599Z" fill="#AD6359"/>
<path d="M264.298 117.718C262.744 116.043 249.626 99.8354 243.778 92.9656C237.931 86.0959 233.4 87.431 235.437 98.5003C237.474 109.57 244.928 130.608 254.754 141.281C264.21 151.565 268.96 146.993 268.627 136.426C268.372 127.751 264.298 117.718 264.298 117.718Z" fill="#5453A3"/>
<path d="M266.616 120.613C264.737 118.444 262.884 116.252 261.049 114.059C259.214 111.866 257.397 109.641 255.57 107.432L250.171 100.748L247.536 97.3901C246.658 96.2654 245.78 95.1406 244.902 94.0078C245.851 95.0921 246.773 96.1845 247.712 97.2445L250.478 100.538L255.957 107.157C257.713 109.39 259.565 111.607 261.348 113.84C263.13 116.074 264.878 118.347 266.616 120.613Z" fill="#263238"/>
<path d="M249.179 99.0896C248.755 98.4705 248.379 97.8242 248.055 97.1557C247.891 96.832 247.733 96.5003 247.581 96.1604C247.431 95.8206 247.3 95.4808 247.168 95.1328C247.633 95.7272 248.031 96.3645 248.353 97.0343C248.689 97.6974 248.965 98.3848 249.179 99.0896Z" fill="#263238"/>
<path d="M263.261 146.744C270.005 146.744 276.432 140.32 295.634 123.214C298.268 120.851 285.326 98.2354 282.35 100.63C278.592 103.641 264.736 116.085 263.85 117.113C256.351 125.787 258.696 146.744 263.261 146.744Z" fill="#AD6359"/>
<path d="M276.816 107.134C276.816 107.134 282.085 99.2121 285.851 94.1872C287.932 91.3794 291.998 86.9048 294.526 85.4483C298.346 83.3283 315.775 76.7175 317.61 80.5933C319.269 84.0889 303.5 88.0214 303.5 88.0214C303.5 88.0214 319.032 82.7619 320.182 87.3094C321.333 91.8569 302.894 94.1063 302.894 94.1063C302.894 94.1063 318.971 89.0329 319.357 93.8959C319.656 97.5695 303.07 100.483 303.07 100.483C303.07 100.483 316.925 96.2101 317.399 99.9808C317.926 104.14 302.797 107.708 302.797 107.708C302.262 117.475 297.678 121.925 294.017 124.701C293.113 125.388 276.816 107.134 276.816 107.134Z" fill="#AD6359"/>
<path d="M298.005 89.5001C299.805 88.8284 301.623 88.1245 303.484 87.5985C305.346 87.0726 307.225 86.5952 309.13 86.231C311.605 85.6936 314.139 85.4221 316.681 85.4219C312.168 85.7132 305.486 87.5095 303.625 88.0436C301.763 88.5776 299.884 89.0065 298.032 89.5405C297.979 89.5971 297.97 89.5162 298.005 89.5001Z" fill="#263238"/>
<path d="M299.954 95.7226C302.299 94.9134 304.59 94.1042 306.979 93.4165C309.367 92.7287 311.659 92.2917 314.064 91.7981C314.249 91.7577 314.214 91.8629 314.064 91.9114C311.676 92.5264 309.525 93.2627 307.146 93.902C304.766 94.5412 302.369 95.0914 300.025 95.8116C299.937 95.7873 299.919 95.7388 299.954 95.7226Z" fill="#263238"/>
<path d="M300.586 101.338C304.145 100.073 307.834 99.1456 311.597 98.5703C311.781 98.5703 311.719 98.6674 311.526 98.716C307.847 99.5737 304.959 100.221 300.639 101.451C300.577 101.467 300.516 101.37 300.586 101.338Z" fill="#263238"/>
<path d="M279.697 102.203L287.521 133.048C287.521 133.048 269.96 147.524 263.111 146.974C258.616 146.602 255.499 125.28 264.569 116.274L279.697 102.203Z" fill="#5453A3"/>
<path d="M258.967 130.37C258.889 125.191 260.88 120.166 264.56 116.251C264.604 116.21 264.701 116.251 264.657 116.315C261.224 120.588 259.248 128.048 259.072 130.387C259.072 130.443 258.967 130.435 258.967 130.37Z" fill="#263238"/>
<path d="M280.417 135.535C279.355 132.185 278.494 128.795 277.643 125.388C276.791 121.982 275.931 118.591 275.167 115.169C274.737 113.235 274.289 111.301 273.938 109.351C273.938 109.302 274.017 109.278 274.034 109.351C275.097 112.692 275.975 116.091 276.844 119.481C277.713 122.872 278.6 126.286 279.373 129.701C279.829 131.627 280.251 133.569 280.602 135.511C280.619 135.584 280.452 135.64 280.417 135.535Z" fill="#263238"/>
<path d="M279.443 101.997C278.288 102.842 277.197 103.759 276.177 104.74C275.123 105.687 274.087 106.658 273.069 107.637C271.031 109.579 266.466 113.479 263.41 117.533C263.41 117.533 263.788 117.533 263.823 117.452C265.166 115.453 278.583 103.583 279.522 102.507C279.575 102.604 279.619 102.693 279.68 102.79C279.742 102.887 279.847 102.847 279.847 102.79C279.847 102.733 279.794 102.393 279.785 102.191C279.791 102.152 279.785 102.113 279.767 102.077C279.748 102.041 279.719 102.012 279.683 101.991C279.647 101.97 279.605 101.96 279.562 101.961C279.519 101.962 279.478 101.975 279.443 101.997Z" fill="#263238"/>
<path d="M235.543 105.531C239.933 114.982 252.296 144.994 263.245 147.009C251.172 145.318 239.038 115.613 235.543 105.531Z" fill="#263238"/>
<path d="M235.375 107.398C236.321 108.545 237.13 109.782 237.79 111.088C236.631 110.087 235.795 108.81 235.375 107.398Z" fill="#263238"/>
<path d="M294.414 29.2381C296.136 27.7002 297.96 26.2625 299.875 24.9333C301.781 23.5901 303.765 22.3359 305.793 21.1546C309.877 18.7874 314.172 16.7436 318.63 15.0454C327.612 11.5988 337.219 9.74837 346.947 9.59166C356.677 9.47562 366.338 11.1253 375.377 14.4466C384.318 17.7913 392.618 22.4355 399.962 28.2023L399.848 28.3399C392.027 23.3679 383.557 19.3227 374.64 16.2996C373.551 15.8869 372.401 15.6361 371.286 15.2962C370.171 14.9564 369.047 14.6085 367.897 14.3819L364.463 13.6213C363.322 13.3704 362.154 13.2329 361.004 13.0387C356.369 12.2702 351.664 11.9259 346.955 12.011C337.534 12.1521 328.207 13.7608 319.368 16.7689C314.922 18.2743 310.6 20.0725 306.434 22.1498C302.229 24.2142 298.21 26.5844 294.414 29.2381Z" fill="#455A64"/>
<path d="M391.805 30.2289L391.621 28.7805L399.365 27.9713L397.925 20.9155L399.479 20.6484L401.236 29.2417L391.805 30.2289Z" fill="#455A64"/>
<path d="M401.236 158.445C399.514 159.983 397.69 161.421 395.774 162.75C393.869 164.093 391.885 165.347 389.856 166.529C385.773 168.896 381.478 170.94 377.02 172.638C368.038 176.085 358.431 177.935 348.703 178.092C338.972 178.208 329.312 176.558 320.272 173.237C311.331 169.895 303.03 165.25 295.688 159.481L295.802 159.343C303.621 164.321 312.091 168.369 321.01 171.392C322.099 171.796 323.249 172.055 324.364 172.395C325.479 172.735 326.603 173.083 327.753 173.31L331.186 174.062C332.328 174.321 333.496 174.451 334.646 174.653C339.281 175.417 343.986 175.762 348.694 175.68C358.12 175.536 367.452 173.919 376.291 170.898C380.738 169.399 385.06 167.604 389.224 165.525C393.426 163.463 397.442 161.096 401.236 158.445Z" fill="#455A64"/>
<path d="M303.844 157.461L304.029 158.909L296.284 159.718L297.724 166.774L296.17 167.041L294.414 158.44L303.844 157.461Z" fill="#455A64"/>
</svg>
