<svg width="690" height="350" viewBox="0 0 690 350" fill="none" xmlns="http://www.w3.org/2000/svg">
<g clip-path="url(#clip0_2479_3448)">
<path d="M280.194 22.2215C280.194 22.2215 277.588 25.4243 279.914 30.0307C282.241 34.6371 270.773 33.032 270.773 33.032C270.773 33.032 271.082 23.3136 280.194 22.2215Z" fill="#FECD29"/>
<path d="M422.547 17.6482L158.158 21.3047L155.181 169.3L419.57 165.643L422.547 17.6482Z" fill="#FFFFFB"/>
<path d="M422.535 17.656L158.146 21.3125L157.863 35.3924L422.252 31.736L422.535 17.656Z" fill="#CBDCEB"/>
<path d="M173.466 28.1396C173.446 29.16 172.483 30.0059 171.321 30.0222C170.158 30.0386 169.226 29.2213 169.246 28.2009C169.266 27.1805 170.229 26.3346 171.392 26.3182C172.554 26.3019 173.487 27.1192 173.466 28.1396Z" fill="#FFFFFB"/>
<path d="M180.886 28.0459C180.866 29.0663 179.903 29.9121 178.741 29.9285C177.578 29.9449 176.646 29.1275 176.666 28.1071C176.686 27.0867 177.649 26.2409 178.812 26.2245C179.974 26.2081 180.906 27.0255 180.886 28.0459Z" fill="#FFFFFB"/>
<path d="M188.298 27.9365C188.278 28.9569 187.315 29.8027 186.153 29.8191C184.99 29.8355 184.058 29.0181 184.078 27.9977C184.098 26.9773 185.061 26.1315 186.224 26.1151C187.396 26.0957 188.319 26.9161 188.298 27.9365Z" fill="#FFFFFB"/>
<path d="M410.605 47.7029L304.385 49.1719L303.209 107.628L409.43 106.159L410.605 47.7029Z" fill="#CBDCEB"/>
<path opacity="0.58" d="M285.864 107.858C285.864 107.858 321.077 74.0575 326.052 78.0866C331.027 82.1158 336.121 96.4442 344.255 86.4308C352.388 76.4175 383.33 46.2753 385.985 65.1402C388.643 84.0133 410.025 76.9201 410.025 76.9201L409.434 106.148L285.864 107.858Z" fill="#FFFFFB"/>
<path d="M287.053 49.4089L170.309 51.0234L170.091 61.8169L286.836 60.2024L287.053 49.4089Z" fill="#CBDCEB"/>
<path d="M286.732 65.2995L169.988 66.9141L169.771 77.7075L286.515 76.093L286.732 65.2995Z" fill="#CBDCEB"/>
<path d="M286.406 81.1823L169.662 82.7969L169.445 93.5903L286.189 91.9758L286.406 81.1823Z" fill="#CBDCEB"/>
<path d="M286.086 97.0651L169.342 98.6797L169.125 109.473L285.869 107.859L286.086 97.0651Z" fill="#CBDCEB"/>
<path d="M409.848 118.927L169.541 122.25L169.324 133.043L409.631 129.72L409.848 118.927Z" fill="#CBDCEB"/>
<path d="M409.465 137.927L169.158 141.25L168.941 152.043L409.248 148.72L409.465 137.927Z" fill="#CBDCEB"/>
<path d="M291.185 35.4424C294.131 33.952 295.221 30.687 293.621 28.1498C292.02 25.6126 288.334 24.764 285.389 26.2545C282.443 27.7449 281.352 31.0099 282.953 33.5471C284.553 36.0843 288.239 36.9329 291.185 35.4424Z" fill="#0A5487"/>
<path d="M586 209.023H502V335.023H586V209.023Z" fill="#455A64"/>
<path d="M577.666 247.892C577.666 247.892 577.666 247.685 577.666 247.313C577.666 246.941 577.666 246.351 577.666 245.641C577.666 244.165 577.666 242.034 577.607 239.313C577.607 233.849 577.523 225.947 577.476 216.275L577.714 216.482L509.286 216.548C509 216.788 509.667 216.209 509.608 216.275V232.592C509.608 237.881 509.608 242.996 509.608 247.892L509.31 247.641L558.453 247.761L572.613 247.827H576.415H577.392H577.738H577.428H576.474H572.744L558.643 247.903L509.31 248.023H509V247.772C509 242.898 509 237.783 509 232.472V216.297L509.322 216.023L577.75 216.089H578V216.297C577.94 226.023 577.905 233.947 577.869 239.455C577.869 242.166 577.869 244.286 577.809 245.75C577.809 246.439 577.809 246.985 577.809 247.368C577.809 247.75 577.666 247.892 577.666 247.892Z" fill="#263238"/>
<path d="M531 216.023L534.446 219.023H553.448L557 216.023H531Z" fill="#263238"/>
<path d="M577.666 283.896C577.666 283.896 577.666 283.695 577.666 283.324C577.666 282.954 577.666 282.403 577.666 281.715C577.666 280.285 577.666 278.22 577.607 275.582C577.607 270.287 577.523 262.63 577.476 253.256L577.714 253.458L509.286 253.521C509 253.754 509.667 253.193 509.608 253.256V269.069C509.608 274.195 509.608 279.152 509.608 283.896L509.31 283.653L558.453 283.769L572.613 283.833H576.415H577.392H577.738H577.428H576.474H572.744L558.643 283.907L509.31 284.023H509V283.78C509 279.056 509 274.1 509 268.952V253.288L509.322 253.023L577.75 253.087H578V253.288C577.94 262.714 577.905 270.393 577.869 275.731C577.869 278.357 577.869 280.401 577.809 281.831C577.809 282.498 577.809 283.028 577.809 283.399C577.809 283.769 577.666 283.896 577.666 283.896Z" fill="#263238"/>
<path d="M531 253.023L534.446 256.023H553.448L557 253.023H531Z" fill="#263238"/>
<path d="M577.666 320.892C577.666 320.892 577.666 320.685 577.666 320.302C577.666 319.92 577.666 319.351 577.666 318.641C577.666 317.166 577.666 315.034 577.607 312.313C577.607 306.849 577.523 298.947 577.476 289.275L577.714 289.482L509.286 289.548C509 289.788 509.667 289.209 509.608 289.275V305.592C509.608 310.881 509.608 315.996 509.608 320.892L509.31 320.641L558.453 320.761L572.613 320.827H576.415H577.392H577.738H577.428H576.474H572.744L558.643 320.903L509.31 321.023H509V320.772C509 315.898 509 310.783 509 305.472V289.297L509.322 289.023L577.75 289.089H578V289.297C577.94 299.023 577.905 306.947 577.869 312.455C577.869 315.166 577.869 317.275 577.809 318.75C577.809 319.439 577.809 319.985 577.809 320.368C577.809 320.75 577.666 320.892 577.666 320.892Z" fill="#263238"/>
<path d="M531 290.023L534.446 293.023H553.448L557 290.023H531Z" fill="#263238"/>
<path d="M519 341.534C518.998 342.819 518.556 344.075 517.73 345.142C516.904 346.21 515.732 347.041 514.362 347.532C512.991 348.022 511.483 348.149 510.029 347.897C508.575 347.645 507.24 347.025 506.192 346.116C505.145 345.206 504.432 344.048 504.143 342.788C503.855 341.527 504.004 340.221 504.572 339.034C505.14 337.846 506.101 336.832 507.335 336.118C508.568 335.404 510.017 335.023 511.5 335.023C512.486 335.023 513.462 335.192 514.373 335.519C515.284 335.847 516.111 336.326 516.808 336.931C517.504 337.536 518.056 338.254 518.433 339.043C518.809 339.833 519.002 340.68 519 341.534Z" fill="#263238"/>
<path d="M582 341.534C581.998 342.819 581.585 344.075 580.815 345.142C580.044 346.21 578.95 347.041 577.671 347.532C576.391 348.022 574.984 348.149 573.627 347.897C572.27 347.645 571.024 347.025 570.046 346.116C569.068 345.206 568.403 344.048 568.134 342.788C567.864 341.527 568.004 340.221 568.534 339.034C569.064 337.846 569.961 336.832 571.112 336.118C572.263 335.404 573.616 335.023 575 335.023C575.92 335.023 576.831 335.192 577.681 335.519C578.531 335.847 579.304 336.326 579.954 336.931C580.604 337.536 581.119 338.254 581.47 339.043C581.822 339.833 582.002 340.68 582 341.534Z" fill="#263238"/>
<path d="M515 202.523C514.515 202.959 514.002 203.112 513.494 202.972C512.99 203.114 512.48 202.961 512 202.523C512.48 202.086 512.99 201.933 513.494 202.075C514.002 201.935 514.515 202.088 515 202.523Z" fill="#263238"/>
<path d="M443.713 155.251L458.229 125.595C480.089 124.971 485.269 141.984 485.127 150.568L443.713 155.251Z" fill="#5A72EB"/>
<path d="M474.453 213.783V191.931V151.739L418.096 149.008L420.23 219.246L474.453 213.783Z" fill="#5A72EB"/>
<path d="M371.461 125.119C374.364 124.799 378.898 123.519 382.134 125.47C385.371 127.421 394.687 145.457 394.687 145.457L383.492 153.12L375.875 133.251C372.24 132.966 368.643 132.365 365.133 131.456C361.788 130.434 358.957 128.345 357.158 125.572C357.158 125.572 354.297 120.889 356.765 120.312C357.918 120.054 358.746 121.49 359.498 122.598C360.019 123.37 360.635 124.085 361.334 124.729L363.818 126.539C363.818 126.539 361.854 124.534 362.888 123.66C363.921 122.786 364.519 123.074 365.953 123.488C367.388 123.902 371.461 125.119 371.461 125.119Z" fill="#FFBF9D"/>
<path d="M378.011 125.951C377.287 125.877 376.557 125.877 375.833 125.951C374.493 126.099 372.742 126.833 370.625 127.098C368.832 127.389 366.994 127.346 365.22 126.973C364.686 126.845 364.173 126.657 363.691 126.412C363.35 126.232 363.187 126.107 363.204 126.084C363.888 126.324 364.587 126.527 365.296 126.692C367.036 126.973 368.816 126.973 370.556 126.692C372.597 126.443 374.382 125.748 375.791 125.662C376.344 125.605 376.904 125.631 377.447 125.74C377.832 125.834 378.019 125.928 378.011 125.951Z" fill="#FF9A6C"/>
<path d="M370.273 128.787C370.073 128.872 369.86 128.927 369.641 128.951C369.054 129.038 368.459 129.07 367.865 129.044C365.877 128.942 363.971 128.289 362.4 127.171C361.573 126.537 360.836 125.811 360.205 125.009C359.973 124.704 359.665 124.453 359.305 124.278C358.946 124.103 358.546 124.008 358.139 124.003C357.873 124.027 357.624 124.129 357.427 124.293C357.23 124.458 357.096 124.676 357.046 124.916C357.027 125.103 357.051 125.291 357.114 125.47C357.114 125.47 356.867 125.322 356.875 124.9C356.893 124.65 356.994 124.41 357.166 124.213C357.277 124.078 357.417 123.965 357.577 123.879C357.736 123.793 357.913 123.737 358.096 123.714C358.563 123.693 359.028 123.779 359.45 123.963C359.871 124.146 360.237 124.423 360.513 124.768C361.144 125.535 361.869 126.234 362.673 126.851C364.182 127.916 365.986 128.576 367.882 128.755C369.299 128.888 370.213 128.709 370.273 128.787Z" fill="#FF9A6C"/>
<path d="M432.848 94.7681C431.956 94.8253 431.072 94.5762 430.369 94.0694C429.667 93.5625 429.197 92.8345 429.05 92.0276C428.904 91.2207 429.092 90.3929 429.578 89.7061C430.064 89.0194 430.813 88.523 431.678 88.3141C431.16 87.7736 430.841 87.098 430.767 86.3827C430.692 85.6675 430.865 84.9488 431.261 84.3284C431.658 83.7079 432.258 83.2172 432.976 82.9255C433.695 82.6338 434.495 82.5559 435.265 82.7028C435.335 81.9973 435.604 81.3206 436.047 80.7388C436.489 80.1571 437.089 79.6903 437.788 79.3843C438.487 79.0782 439.261 78.9433 440.034 78.9929C440.807 79.0425 441.553 79.2748 442.199 79.667C443.104 79.0583 444.207 78.7444 445.331 78.7755C446.454 78.8067 447.534 79.181 448.398 79.8387C449.158 79.7476 449.93 79.8817 450.601 80.2212C451.272 80.5606 451.806 81.0877 452.125 81.725C452.444 82.3622 452.531 83.0761 452.374 83.762C452.216 84.4479 451.822 85.0695 451.25 85.5358" fill="#263238"/>
<path d="M448.985 83.1111H448.2C444.367 82.9363 440.603 84.0872 437.656 86.3346C434.71 88.582 432.798 91.761 432.3 95.2388C431.344 101.95 430.37 109.372 430.225 112.986C429.918 120.47 438.047 122.007 438.047 122.007L436.877 130.904L457.14 127.486L460.3 98.7273C461.444 91.0089 457.482 83.9539 448.985 83.1111Z" fill="#FFBF9D"/>
<path d="M438.048 121.966C441.82 122.122 445.561 121.291 448.833 119.57C448.833 119.57 445.887 124.971 437.732 123.925L438.048 121.966Z" fill="#FF9A6C"/>
<path d="M434.155 102.984C434.136 103.264 434.238 103.539 434.439 103.751C434.64 103.963 434.925 104.094 435.23 104.116C435.378 104.133 435.528 104.123 435.672 104.087C435.815 104.051 435.949 103.989 436.066 103.904C436.183 103.82 436.281 103.715 436.353 103.596C436.425 103.477 436.47 103.346 436.486 103.21C436.502 102.932 436.401 102.659 436.202 102.448C436.003 102.237 435.722 102.105 435.418 102.079C435.27 102.061 435.12 102.071 434.976 102.107C434.832 102.143 434.697 102.205 434.579 102.29C434.462 102.374 434.363 102.479 434.291 102.598C434.218 102.717 434.171 102.848 434.155 102.984Z" fill="#263238"/>
<path d="M433.862 98.9166C433.999 99.0649 434.912 98.5108 436.176 98.5655C437.44 98.6201 438.319 99.2444 438.464 99.1117C438.61 98.9791 438.405 98.7918 438.012 98.503C437.485 98.1351 436.847 97.9252 436.185 97.9021C435.533 97.8718 434.888 98.0302 434.34 98.3547C433.939 98.6435 433.794 98.9166 433.862 98.9166Z" fill="#263238"/>
<path d="M445.033 103.421C445.016 103.7 445.118 103.973 445.317 104.184C445.516 104.395 445.797 104.527 446.1 104.553C446.249 104.569 446.4 104.559 446.544 104.521C446.688 104.484 446.823 104.422 446.94 104.337C447.058 104.252 447.156 104.147 447.228 104.027C447.301 103.907 447.347 103.776 447.364 103.64C447.381 103.362 447.279 103.088 447.08 102.877C446.881 102.666 446.6 102.534 446.297 102.508C446.148 102.491 445.997 102.501 445.852 102.538C445.708 102.574 445.573 102.637 445.455 102.722C445.337 102.807 445.239 102.913 445.167 103.033C445.094 103.153 445.049 103.285 445.033 103.421Z" fill="#263238"/>
<path d="M446.211 99.6981C446.347 99.8464 447.27 99.2845 448.525 99.3469C449.78 99.4094 450.677 100.018 450.822 99.8854C450.967 99.7528 450.753 99.5733 450.369 99.2845C449.845 98.912 449.206 98.6991 448.542 98.6758C447.887 98.6444 447.239 98.8028 446.689 99.1284C446.27 99.4172 446.142 99.6981 446.211 99.6981Z" fill="#263238"/>
<path d="M441.148 108.045C440.498 107.821 439.817 107.676 439.124 107.616C438.808 107.569 438.51 107.499 438.467 107.296C438.453 106.99 438.542 106.688 438.723 106.43L439.799 104.237C441.285 101.115 442.361 98.5477 442.25 98.4931C442.139 98.4384 440.79 100.928 439.295 104.05L438.262 106.25C438.044 106.598 437.963 107.002 438.031 107.398C438.072 107.503 438.139 107.599 438.226 107.677C438.313 107.756 438.419 107.815 438.535 107.85C438.712 107.904 438.896 107.936 439.082 107.944C439.763 108.057 440.457 108.091 441.148 108.045Z" fill="#263238"/>
<path d="M445.364 95.2491C445.51 95.5457 446.603 95.2491 447.926 95.3038C449.25 95.3584 450.36 95.5769 450.488 95.3038C450.548 95.1633 450.334 94.8901 449.864 94.6404C449.263 94.3277 448.584 94.1637 447.892 94.1643C447.211 94.1566 446.539 94.3127 445.945 94.617C445.501 94.8355 445.296 95.1086 445.364 95.2491Z" fill="#263238"/>
<path d="M434.061 94.2341C434.309 94.5073 435.359 94.281 436.623 94.3278C437.886 94.3746 438.92 94.6087 439.184 94.3278C439.295 94.2029 439.184 93.9298 438.698 93.6644C438.074 93.3378 437.371 93.1582 436.653 93.1419C435.934 93.1255 435.222 93.2729 434.582 93.5708C434.112 93.8127 433.95 94.0781 434.061 94.2341Z" fill="#263238"/>
<path d="M433.274 91.8088C433.274 91.8088 435.69 87.2278 438.218 86.2444C441.283 85.0582 442.41 88.1174 445.296 87.5165C448.183 86.9156 451.111 85.7762 453.921 87.9223C456.986 90.2636 455.406 91.7542 455.424 95.0788C455.492 108.572 457.985 112.498 459.087 106.2C459.206 105.505 461.341 105.053 461.819 102.134C462.426 98.3488 462.844 93.7365 462.058 90.9894C461.401 88.6481 460.06 87.0405 457.61 85.1987C453.741 82.2799 448.217 81.9677 444.46 82.1394C440.702 82.3111 433.248 85.9323 433.274 91.8088Z" fill="#263238"/>
<path d="M458.576 105.976C458.601 105.702 458.685 105.435 458.826 105.192C458.966 104.949 459.159 104.734 459.393 104.561C459.627 104.388 459.897 104.26 460.187 104.186C460.477 104.111 460.78 104.091 461.078 104.127C462.598 104.33 464.255 105.196 463.999 108.076C463.538 113.18 458.021 111.712 458.021 111.564C458.021 111.416 458.363 108.107 458.576 105.976Z" fill="#FFBF9D"/>
<path d="M459.421 109.73C459.421 109.73 459.506 109.801 459.669 109.886C459.893 109.992 460.153 110.014 460.394 109.949C460.774 109.768 461.094 109.497 461.321 109.165C461.548 108.833 461.673 108.452 461.684 108.06C461.741 107.623 461.686 107.179 461.522 106.765C461.483 106.603 461.403 106.451 461.287 106.323C461.171 106.196 461.023 106.095 460.856 106.031C460.747 105.996 460.628 105.996 460.519 106.032C460.41 106.067 460.318 106.136 460.258 106.226C460.172 106.367 460.198 106.468 460.164 106.476C460.13 106.484 460.053 106.382 460.164 106.172C460.203 106.048 460.291 105.942 460.412 105.875C460.491 105.826 460.58 105.793 460.674 105.777C460.768 105.76 460.865 105.762 460.958 105.781C461.183 105.841 461.388 105.952 461.554 106.103C461.719 106.255 461.84 106.442 461.906 106.648C462.105 107.108 462.178 107.607 462.119 108.099C462.102 108.556 461.94 108.998 461.652 109.371C461.363 109.744 460.962 110.031 460.497 110.199C460.347 110.223 460.193 110.217 460.046 110.182C459.898 110.147 459.761 110.084 459.643 109.996C459.412 109.84 459.395 109.738 459.421 109.73Z" fill="#FF9A6C"/>
<path d="M459.002 96.0584C458.288 96.5374 457.454 96.8459 456.577 96.9558C456.139 96.9956 455.7 96.8896 455.341 96.6573C454.981 96.4251 454.726 96.0822 454.621 95.6916C454.57 95.3326 454.689 94.9111 454.45 94.638C454.211 94.3648 453.596 94.3727 453.118 94.3961C451.487 94.4741 449.703 92.7494 449.336 91.2744C449.107 91.5413 448.776 91.7189 448.41 91.7711C448.044 91.8232 447.669 91.7461 447.363 91.5553C446.864 91.2402 446.428 90.8495 446.074 90.4003C445.872 90.1119 445.596 89.8729 445.27 89.7042C444.944 89.5356 444.578 89.4423 444.204 89.4326C443.803 89.5385 443.39 89.6039 442.974 89.6277C442.24 89.534 441.924 88.7302 441.847 88.0669C441.77 87.4035 441.736 86.6153 441.13 86.2251C440.503 85.963 439.796 85.9105 439.131 86.0768C438.448 86.1392 437.586 85.9519 437.424 85.3432C437.404 85.1799 437.422 85.0147 437.475 84.8577C437.527 84.7008 437.615 84.5553 437.731 84.4301C438.219 83.8322 438.914 83.4022 439.703 83.2096C440.491 83.017 441.328 83.0731 442.077 83.3687C442.4 82.5313 442.987 81.8 443.764 81.267C444.541 80.7341 445.474 80.4234 446.444 80.3741C447.414 80.3249 448.378 80.5393 449.215 80.9903C450.051 81.4413 450.723 82.1087 451.146 82.9083C451.767 82.4428 452.502 82.1211 453.288 81.9705C454.075 81.8199 454.889 81.8448 455.662 82.0432C456.436 82.2416 457.146 82.6075 457.731 83.11C458.317 83.6124 458.762 84.2366 459.027 84.9296C459.721 84.7985 460.441 84.8562 461.099 85.0955C461.757 85.3349 462.324 85.7453 462.729 86.2761C463.135 86.8069 463.361 87.4347 463.38 88.0817C463.399 88.7288 463.209 89.3667 462.836 89.9165C463.344 90.1751 463.772 90.5482 464.078 91.0003C464.384 91.4523 464.559 91.9684 464.586 92.4996C464.586 93.561 463.365 94.5678 462.263 94.2322C462.461 94.6585 462.474 95.1372 462.301 95.5723C462.128 96.0073 461.782 96.3666 461.331 96.5779C460.881 96.7892 460.359 96.837 459.872 96.7117C459.384 96.5864 458.967 96.2973 458.703 95.9023" fill="#263238"/>
<path d="M441.591 84.8672V84.9608C441.584 85.0518 441.584 85.143 441.591 85.234C441.651 85.5849 441.772 85.9248 441.95 86.2407C442.228 86.7389 442.628 87.1716 443.12 87.505C443.769 87.9606 444.564 88.2075 445.382 88.2074L445.288 88.0903C445.084 88.5454 445.084 89.0556 445.288 89.5107C445.499 89.9801 445.787 90.417 446.142 90.8062C446.312 91.0318 446.51 91.2387 446.732 91.4227C446.983 91.5959 447.276 91.7134 447.585 91.7661C447.914 91.8235 448.252 91.8073 448.572 91.7189C448.891 91.6306 449.183 91.4727 449.421 91.2588L449.216 91.1964C449.265 91.7305 449.435 92.2495 449.716 92.7199C449.996 93.1903 450.382 93.6018 450.847 93.9279C451.361 94.3105 451.996 94.5321 452.658 94.56C453.28 94.5607 453.897 94.4658 454.485 94.279L454.34 94.2166C454.598 94.8481 455.023 95.4112 455.578 95.8555C455.834 96.0748 456.139 96.2397 456.473 96.3382C456.807 96.4367 457.16 96.4664 457.508 96.4252C458.102 96.3368 458.654 96.0906 459.096 95.7173C459.538 95.344 459.85 94.8601 459.993 94.3259L459.865 94.3805C460.441 94.6894 461.116 94.8105 461.777 94.7239C462.267 94.6599 462.734 94.4944 463.143 94.24C463.398 94.0727 463.623 93.87 463.81 93.6391C463.872 93.5592 463.923 93.4727 463.963 93.3816C463.735 93.6883 463.445 93.953 463.109 94.162C462.709 94.402 462.253 94.5517 461.777 94.599C461.15 94.6722 460.515 94.5484 459.976 94.2478L459.873 94.1854V94.2947C459.728 94.7912 459.427 95.2385 459.009 95.5821C458.591 95.9257 458.072 96.1508 457.516 96.2301C457.206 96.2632 456.891 96.232 456.595 96.1388C456.3 96.0456 456.031 95.8928 455.809 95.6916C455.283 95.2682 454.881 94.7318 454.639 94.1308V94.0371H454.528C453.977 94.207 453.401 94.2965 452.82 94.3025C452.194 94.2848 451.593 94.076 451.112 93.7093C450.671 93.4036 450.305 93.0162 450.039 92.5724C449.772 92.1286 449.611 91.6384 449.567 91.134V90.892L449.379 91.0715C449.17 91.2609 448.914 91.4005 448.633 91.4781C448.351 91.5556 448.053 91.5688 447.765 91.5164C447.483 91.4783 447.216 91.3764 446.988 91.2198C446.781 91.0456 446.595 90.852 446.433 90.6423C446.08 90.2713 445.792 89.8527 445.579 89.4014C445.376 88.9953 445.357 88.5322 445.528 88.1137L445.579 87.9967H445.417C444.639 88.004 443.881 87.7793 443.256 87.3567C442.767 87.0447 442.364 86.6333 442.078 86.1549C441.839 85.753 441.675 85.3179 441.591 84.8672Z" fill="#455A64"/>
<path d="M441.242 111.99C441.242 111.803 442.651 112.13 443.923 111.295C445.195 110.46 445.426 109.102 445.631 109.141C445.836 109.18 445.81 109.5 445.631 110.062C445.432 110.794 444.957 111.438 444.29 111.881C443.649 112.304 442.854 112.486 442.07 112.388C441.507 112.294 441.216 112.076 441.242 111.99Z" fill="#263238"/>
<path d="M440.865 320.55L445.869 336.377C445.869 336.377 429.944 346.304 430.558 349.325L464.475 341.567L457.798 316.594L440.865 320.55Z" fill="#455A64"/>
<path d="M455.989 332.621C456.341 332.629 456.677 332.757 456.933 332.979C457.188 333.201 457.345 333.501 457.372 333.823C457.368 334.144 457.229 334.451 456.985 334.682C456.74 334.913 456.408 335.049 456.057 335.063C455.685 335.043 455.334 334.898 455.071 334.656C454.808 334.414 454.651 334.093 454.631 333.752C454.676 333.418 454.86 333.113 455.144 332.899C455.429 332.686 455.792 332.581 456.159 332.605" fill="#5A72EB"/>
<g opacity="0.6">
<path opacity="0.6" d="M464.476 341.575L463.699 339.086L431.465 347.452C431.465 347.452 430.124 348.396 430.56 349.333L464.476 341.575Z" fill="white"/>
</g>
<path d="M445.271 336.324C445.322 336.48 446.125 336.324 447.115 336.659C448.106 336.995 448.669 337.494 448.823 337.401C448.977 337.307 448.473 336.488 447.32 336.144C446.168 335.801 445.203 336.199 445.271 336.324Z" fill="#263238"/>
<path d="M442.085 338.509C442.085 338.665 442.871 338.758 443.614 339.289C444.357 339.82 444.698 340.444 444.86 340.397C445.023 340.35 444.86 339.476 443.964 338.836C443.067 338.196 442.043 338.345 442.085 338.509Z" fill="#263238"/>
<path d="M441.146 342.84C441.3 342.84 441.326 342.059 440.677 341.279C440.028 340.499 439.157 340.397 439.122 340.538C439.088 340.678 439.686 341.014 440.215 341.622C440.745 342.231 440.958 342.863 441.146 342.84Z" fill="#263238"/>
<path d="M444.562 332.612C444.673 332.729 445.415 332.346 446.321 332.19C447.226 332.034 448.08 332.136 448.131 331.987C448.182 331.839 447.328 331.457 446.21 331.66C445.091 331.863 444.459 332.51 444.562 332.612Z" fill="#263238"/>
<path d="M452.76 324.258L453.546 340.717C453.546 340.717 435.511 346.96 435.332 350.027L470.299 349.777L470.222 324.094L452.76 324.258Z" fill="#455A64"/>
<path d="M464.346 339.283C464.682 339.375 464.969 339.577 465.154 339.851C465.338 340.124 465.406 340.45 465.345 340.766C465.26 341.077 465.046 341.347 464.749 341.519C464.451 341.69 464.093 341.75 463.748 341.687C463.394 341.59 463.09 341.378 462.897 341.09C462.703 340.802 462.632 340.458 462.698 340.126C462.827 339.812 463.084 339.555 463.415 339.41C463.745 339.265 464.125 339.241 464.474 339.345" fill="#5A72EB"/>
<g opacity="0.6">
<path opacity="0.6" d="M470.299 349.778L470.18 347.188L436.698 348.397C436.698 348.397 435.144 349.029 435.332 350.028L470.299 349.778Z" fill="white"/>
</g>
<path d="M452.982 340.556C452.982 340.712 453.836 340.782 454.69 341.274C455.543 341.765 455.987 342.421 456.15 342.358C456.312 342.296 456.039 341.398 455.005 340.797C453.972 340.197 452.939 340.415 452.982 340.556Z" fill="#263238"/>
<path d="M449.318 341.97C449.318 342.126 450.027 342.383 450.608 343.039C451.188 343.695 451.368 344.397 451.538 344.389C451.709 344.381 451.812 343.492 451.069 342.688C450.326 341.884 449.327 341.822 449.318 341.97Z" fill="#263238"/>
<path d="M447.278 345.992C447.432 345.992 447.662 345.212 447.218 344.393C446.774 343.573 445.971 343.206 445.895 343.339C445.818 343.472 446.322 343.924 446.68 344.627C447.039 345.329 447.124 345.985 447.278 345.992Z" fill="#263238"/>
<path d="M453.254 336.792C453.323 336.932 454.108 336.706 455.073 336.792C456.038 336.878 456.781 337.12 456.883 336.987C456.986 336.854 456.243 336.3 455.099 336.253C453.955 336.207 453.169 336.667 453.254 336.792Z" fill="#263238"/>
<path d="M474.39 203.844V216.853L470.564 267.581C470.564 267.581 472.946 292.164 474.407 306.048C475.679 318.105 473.604 339.098 473.604 339.098H451.343L443.385 269.04L438.441 225.383L429.842 205.514L474.39 203.844Z" fill="#263238"/>
<path d="M420.766 205.889L420.091 272.514C420.061 275.366 420.626 278.198 421.756 280.857L442.557 329.781L443.599 332.965L456.894 330.031L447.006 204.734L420.766 205.889Z" fill="#263238"/>
<path d="M438.499 225.906C438.49 226.005 438.49 226.104 438.499 226.203C438.499 226.414 438.499 226.702 438.499 227.069C438.499 227.849 438.567 228.958 438.61 230.378C438.704 233.258 438.926 237.402 439.251 242.568C439.917 252.846 441.172 267.034 443.127 282.651C445.083 298.267 447.175 312.369 448.72 322.569C449.514 327.65 450.155 331.77 450.599 334.642C450.821 336.055 451 337.155 451.128 337.92C451.188 338.287 451.239 338.568 451.273 338.778C451.308 338.989 451.333 339.067 451.333 339.067C451.343 338.968 451.343 338.869 451.333 338.771C451.333 338.56 451.273 338.279 451.222 337.912C451.12 337.132 450.966 336.039 450.77 334.627C450.36 331.747 449.762 327.603 449.062 322.53C447.585 312.322 445.51 298.22 443.588 282.604C441.667 266.988 440.335 252.823 439.592 242.545C439.233 237.41 438.969 233.25 438.824 230.378C438.747 228.95 438.678 227.842 438.636 227.061C438.636 226.702 438.636 226.414 438.576 226.203C438.56 226.102 438.534 226.003 438.499 225.906Z" fill="#455A64"/>
<path d="M437.09 208.225C437.092 208.432 437.16 208.633 437.287 208.804C437.414 208.975 437.593 209.108 437.802 209.186C438.011 209.264 438.241 209.284 438.462 209.242C438.684 209.201 438.887 209.101 439.046 208.954C439.205 208.808 439.313 208.621 439.357 208.419C439.4 208.216 439.377 208.006 439.29 207.816C439.204 207.625 439.057 207.462 438.869 207.348C438.681 207.233 438.46 207.172 438.234 207.172C438.083 207.172 437.934 207.199 437.794 207.252C437.655 207.305 437.528 207.383 437.422 207.481C437.316 207.579 437.232 207.695 437.175 207.823C437.118 207.951 437.089 208.087 437.09 208.225Z" fill="#455A64"/>
<path d="M417.528 218.097C418.12 217.723 418.646 217.271 419.091 216.754C420.237 215.555 421.181 214.205 421.892 212.751C422.609 211.3 423.082 209.758 423.292 208.178C423.419 207.528 423.439 206.866 423.352 206.211C423.198 206.847 423.081 207.491 423.002 208.139C422.418 211.225 420.997 214.128 418.869 216.583C418.092 217.535 417.477 218.05 417.528 218.097Z" fill="#455A64"/>
<path d="M435.051 128.016L415.479 135.235L409.186 140.877L398 156.033L426.144 153.894L426.802 160.465L435.051 128.016Z" fill="#5A72EB"/>
<path d="M396.589 145.415L389.758 131.711L374.098 137.416L379.665 151.721C381.945 157.691 384.566 164.075 388.99 164.988C395.932 166.447 426.177 153.883 426.177 153.883L431.753 132.741L396.589 145.415Z" fill="#5A72EB"/>
<g opacity="0.3">
<path opacity="0.3" d="M476.337 190.553C475.164 189.762 473.881 189.119 472.52 188.641C464.681 185.402 457.79 180.548 450.319 176.63C442.847 172.712 434.385 169.661 425.846 170.59L418.656 178.808C418.656 178.808 420.449 181.687 422.875 181.89C424.945 182.109 427.034 182.124 429.108 181.937C431.525 181.742 434.129 181.867 436.144 183.108C438.159 184.349 439.372 186.729 441.216 188.352C443.428 190.311 446.527 191.138 449.49 191.895L468.387 196.734C470.274 197.218 472.238 197.709 474.177 197.413C476.115 197.116 478.002 195.789 478.164 194.002C478.181 193.336 478.024 192.676 477.706 192.076C477.389 191.476 476.919 190.954 476.337 190.553Z" fill="black"/>
</g>
<path d="M464.355 148.677L468.3 173.572L451.068 167.329L444.365 184.225C444.365 184.225 466.131 192.966 477.351 194.495C482.782 195.229 490.373 189.165 489.835 183.023C488.426 167.087 483.457 139.257 483.457 139.257C483.457 139.257 479.921 132.639 473.901 133.396C471.823 133.709 469.927 134.672 468.539 136.12C463.783 140.631 464.355 148.677 464.355 148.677Z" fill="#5A72EB"/>
<path d="M472.742 180.399C472.302 179.1 471.712 177.847 470.983 176.661C470.134 175.533 469.162 174.487 468.08 173.539C469.413 174.238 470.536 175.227 471.35 176.418C472.163 177.61 472.642 178.966 472.742 180.368V180.399Z" fill="#263238"/>
<path d="M483.458 139.234C483.458 139.234 483.458 139.367 483.552 139.625C483.646 139.882 483.68 140.28 483.774 140.78C483.962 141.81 484.226 143.293 484.576 145.205C485.251 149.06 486.199 154.64 487.258 161.547C487.787 165.004 488.342 168.789 488.88 172.863C489.136 174.9 489.401 177.007 489.64 179.184C489.768 180.269 489.862 181.377 489.982 182.493C490.033 183.067 490.05 183.642 490.033 184.218C489.974 184.798 489.859 185.373 489.691 185.935C489.522 186.507 489.302 187.065 489.034 187.605C488.755 188.146 488.432 188.668 488.069 189.166C487.703 189.669 487.304 190.151 486.873 190.609C486.427 191.059 485.954 191.487 485.456 191.889C484.436 192.715 483.284 193.393 482.04 193.903C480.778 194.443 479.396 194.71 478.001 194.683C475.219 194.346 472.472 193.8 469.787 193.052C467.055 192.326 464.322 191.491 461.573 190.609C455.535 188.651 449.746 186.528 444.256 184.366L444.076 184.296L444.144 184.124L450.865 167.236L450.933 167.072L451.112 167.134L468.335 173.432L468.122 173.588C466.935 165.909 465.97 159.689 465.304 155.366C464.98 153.227 464.732 151.557 464.553 150.402L464.373 149.114C464.373 148.818 464.331 148.67 464.331 148.67C464.331 148.67 464.331 148.818 464.416 149.107C464.501 149.395 464.553 149.84 464.647 150.394C464.834 151.542 465.116 153.204 465.5 155.342C466.201 159.658 467.208 165.878 468.463 173.549V173.791L468.207 173.698L450.959 167.454L451.215 167.353C449.123 172.629 446.886 178.279 444.529 184.249L444.418 184.007C449.9 186.169 455.681 188.284 461.709 190.25C464.45 191.132 467.174 191.96 469.889 192.685C472.544 193.426 475.26 193.969 478.01 194.309C479.342 194.321 480.66 194.054 481.861 193.528C483.061 193.033 484.169 192.373 485.149 191.569C485.64 191.182 486.104 190.767 486.54 190.328C486.956 189.884 487.344 189.417 487.702 188.932C488.049 188.451 488.363 187.95 488.641 187.433C488.901 186.914 489.112 186.377 489.273 185.825C489.439 185.284 489.55 184.731 489.606 184.171C489.64 183.617 489.64 183.062 489.606 182.509C489.486 181.393 489.401 180.284 489.273 179.2C489.042 177.03 488.786 174.923 488.53 172.886C488.009 168.812 487.471 165.027 486.967 161.57C485.943 154.655 485.046 149.083 484.406 145.181C484.098 143.269 483.851 141.771 483.688 140.741L483.509 139.586C483.466 139.375 483.458 139.234 483.458 139.234Z" fill="#263238"/>
<path d="M474.902 133.741C474.902 133.819 473.886 133.827 472.341 134.264C470.327 134.811 468.519 135.856 467.115 137.285C465.712 138.713 464.769 140.469 464.391 142.357C464.083 143.801 464.177 144.698 464.101 144.698C464.024 144.49 463.99 144.27 463.998 144.051C463.96 143.459 463.991 142.865 464.092 142.279C464.418 140.323 465.367 138.498 466.82 137.031C468.273 135.564 470.166 134.52 472.264 134.03C472.892 133.875 473.536 133.781 474.185 133.749C474.422 133.711 474.664 133.709 474.902 133.741Z" fill="#263238"/>
<path d="M393.953 152.367C394.685 151.213 395.294 149.998 395.772 148.738C396.11 147.442 396.315 146.12 396.387 144.789C396.746 146.132 396.675 147.541 396.182 148.847C395.829 150.194 395.055 151.417 393.953 152.367Z" fill="#263238"/>
<path d="M434.784 173.538C434.688 173.395 434.607 173.244 434.545 173.086C434.4 172.789 434.195 172.344 433.939 171.774C433.427 170.619 432.718 168.934 431.907 166.827C431.095 164.719 430.199 162.144 429.294 159.288C428.85 157.844 428.44 156.322 427.97 154.738C427.765 153.957 427.552 153.122 427.338 152.303C427.125 151.483 426.826 150.672 426.57 149.837L426.519 149.657L426.689 149.587L429.174 148.588L432.052 147.433H432.154L432.282 147.496C432.312 147.52 432.334 147.55 432.348 147.584C432.361 147.618 432.365 147.655 432.359 147.691C432.359 147.776 432.317 147.784 432.3 147.8C432.285 147.817 432.267 147.831 432.247 147.842C432.226 147.853 432.203 147.86 432.18 147.862H431.941H431.762H431.394L430.669 147.769L429.243 147.581L426.493 147.207H426.254L426.322 146.988C428.175 141.674 429.738 137.093 430.916 133.784L432.282 129.975C432.436 129.561 432.564 129.195 432.658 128.961C432.696 128.84 432.75 128.725 432.82 128.617C432.805 128.739 432.777 128.86 432.735 128.976L432.419 130.014C432.112 130.951 431.693 132.246 431.172 133.854C430.054 137.171 428.517 141.775 426.732 147.121L426.561 146.871L429.302 147.238L430.728 147.417L431.446 147.503L431.804 147.542H431.984H432.112C432.106 147.602 432.106 147.662 432.112 147.722L432.206 147.894L429.328 149.056L426.843 150.048L426.963 149.798C427.219 150.648 427.56 151.476 427.74 152.303L428.363 154.738C428.781 156.299 429.217 157.86 429.652 159.28C430.506 162.16 431.36 164.743 432.163 166.827C432.966 168.91 433.606 170.643 434.067 171.813C434.289 172.368 434.46 172.812 434.596 173.156C434.67 173.279 434.733 173.406 434.784 173.538Z" fill="#263238"/>
<path d="M463.424 128.031C463.415 128.179 463.389 128.326 463.347 128.468C463.261 128.788 463.159 129.202 463.022 129.717C462.74 130.794 462.296 132.363 461.699 134.314C460.512 138.216 458.684 143.601 456.242 149.61L456.174 149.766H455.995L451.794 149.071L452.033 148.79L452.195 149.118C453.194 151.132 454.159 153.083 455.064 154.932L455.124 155.049L455.03 155.143C451.475 158.789 447.722 162.269 443.784 165.569C442.307 166.81 441.145 167.723 440.292 168.371L439.327 169.097C439.22 169.187 439.103 169.266 438.977 169.331C439.063 169.224 439.164 169.128 439.275 169.042L440.198 168.262C441.052 167.544 442.187 166.561 443.613 165.351C446.499 162.846 450.444 159.24 454.714 154.839V155.049L451.836 149.251L451.674 148.923L451.495 148.564L451.913 148.634L456.114 149.337L455.875 149.462C458.326 143.468 460.204 138.099 461.46 134.228C462.066 132.324 462.561 130.786 462.92 129.67C463.074 129.163 463.21 128.757 463.304 128.437C463.33 128.299 463.37 128.163 463.424 128.031Z" fill="#263238"/>
<path d="M433.163 277.665C433.151 277.571 433.151 277.477 433.163 277.384V276.557C433.163 275.776 433.163 274.73 433.163 273.365C433.163 270.594 433.163 266.583 433.163 261.658C433.257 251.747 433.555 238.059 434.068 222.95C435.127 192.966 435.929 170.435 436.006 168.211C436.014 168.304 436.014 168.398 436.006 168.492V169.327C436.006 170.107 436.006 171.145 436.006 172.519C436.006 175.289 435.904 179.293 435.776 184.225C435.528 194.136 435.024 207.817 434.512 222.934C433.999 238.051 433.658 251.731 433.479 261.635C433.402 266.575 433.342 270.579 433.308 273.341C433.308 274.707 433.308 275.776 433.257 276.533C433.257 276.877 433.257 277.158 433.257 277.36C433.239 277.465 433.208 277.567 433.163 277.665Z" fill="#263238"/>
<path d="M437.117 123.991L443.692 128.626L457.721 122.453L458.404 125.364L436.16 169.715L434.137 129.266L437.117 123.991Z" fill="white"/>
<path d="M444.41 130.719L442.676 130.516L440.627 133.442L442.138 136.423L444.589 136.517L445.554 133.091L444.41 130.719Z" fill="#FF725E"/>
<path d="M442.189 136.375C442.189 136.375 435.315 152.889 435.358 152.951C435.4 153.014 436.212 169.863 436.212 169.863L446.142 149.892L444.657 136.461L442.189 136.375Z" fill="#FF725E"/>
<path d="M414.404 141.531C414.461 141.651 414.501 141.777 414.524 141.906L414.78 143.006C414.993 143.958 415.275 145.348 415.634 147.057C416.274 150.49 417.034 155.251 417.632 160.534C418.23 165.818 418.546 170.625 418.682 174.106C418.751 175.846 418.785 177.228 418.793 178.227V179.343C418.814 179.472 418.814 179.603 418.793 179.733C418.753 179.609 418.733 179.48 418.734 179.35C418.734 179.046 418.734 178.679 418.657 178.227C418.597 177.196 418.512 175.807 418.409 174.114C418.196 170.649 417.828 165.857 417.231 160.573C416.633 155.29 415.933 150.545 415.369 147.103C415.087 145.433 414.865 144.052 414.695 143.03C414.626 142.585 414.567 142.249 414.524 141.921C414.465 141.797 414.424 141.666 414.404 141.531Z" fill="#263238"/>
<path d="M454.887 131.333C454.725 131.48 454.545 131.608 454.349 131.715L452.778 132.714L447.125 136.179L446.929 136.304L446.835 136.093C445.981 134.017 444.657 131.715 443.547 129.132C443.504 129.046 443.47 128.96 443.436 128.882H443.846C442.539 131.399 440.811 133.713 438.723 135.742L438.577 135.89L438.441 135.734C437.151 134.304 435.984 132.786 434.948 131.192C434.581 130.615 434.308 130.154 434.095 129.834C433.989 129.679 433.909 129.511 433.855 129.335C433.986 129.474 434.101 129.626 434.197 129.787L435.102 131.091C436.201 132.631 437.402 134.109 438.697 135.516H438.415C440.427 133.483 442.099 131.19 443.376 128.71L443.598 128.289L443.786 128.726L443.889 128.976C444.99 131.528 446.288 133.846 447.134 135.961L446.843 135.875L452.581 132.535L454.212 131.614C454.423 131.494 454.65 131.4 454.887 131.333Z" fill="#263238"/>
<path d="M395.189 156.522L400.475 176.633C400.765 177.741 401.858 178.529 403.609 178.974L433.597 179.068C434.316 178.801 434.919 178.326 435.314 177.716C435.709 177.105 435.874 176.393 435.783 175.689L431.855 156.451C431.74 155.891 431.418 155.383 430.942 155.014C430.466 154.645 429.866 154.436 429.242 154.422L397.648 153.759C397.271 153.748 396.897 153.817 396.554 153.96C396.211 154.103 395.909 154.317 395.671 154.584C395.433 154.851 395.266 155.165 395.182 155.501C395.098 155.837 395.101 156.187 395.189 156.522Z" fill="#263238"/>
<path d="M426.785 160.561C426.785 160.561 433.42 160.319 434.539 160.561C435.657 160.803 449.909 169.255 449.909 169.255L445.639 180.454L442.719 176.949C440.72 176.747 438.756 176.323 436.87 175.685C434.786 174.803 432.344 173.851 432.344 173.851L427.964 174.421L423.199 174.507C423.199 174.507 421.568 173.726 422.909 172.782C424.249 171.838 427.451 171.736 427.451 171.736L432.344 170.683C432.344 170.683 426.726 170.3 426.171 170.214C425.616 170.129 421.807 170.995 421.295 170.667C421.019 170.457 420.836 170.161 420.781 169.837C420.726 169.512 420.802 169.18 420.996 168.903C421.423 168.263 425.026 167.249 425.026 167.249L431.285 166.718L425.095 166.585L421.739 166.406C421.739 166.406 420.817 165.797 422.012 164.892C423.208 163.987 428.049 163.331 428.049 163.331L433.036 162.925L427.989 162.441L424.659 162.996C424.451 163.084 424.213 163.092 423.997 163.02C423.782 162.947 423.607 162.8 423.511 162.609C423.414 162.419 423.405 162.201 423.484 162.004C423.563 161.808 423.725 161.648 423.933 161.56C424.779 161.016 425.759 160.673 426.785 160.561Z" fill="#FFBF9D"/>
<path d="M368.86 99.8297C359.173 110.889 345.798 117.837 331.365 119.307C316.932 120.778 302.483 116.665 290.86 107.777C279.236 98.8888 271.278 85.8685 268.549 71.275C265.82 56.6815 268.518 41.5702 276.113 28.911C283.708 16.2519 295.649 6.9604 309.592 2.86279C323.534 -1.23481 338.468 0.15779 351.458 6.7669C364.449 13.376 374.557 24.7236 379.796 38.5795C385.034 52.4354 385.025 67.7974 379.769 81.6463L385.801 98.9537L368.86 99.8297Z" fill="white"/>
<path d="M368.859 99.7977H369.922L373.135 99.6793L385.823 99.1585H386.17L386.054 98.8507C384.437 94.1154 382.426 88.2437 380.138 81.4959V81.7327C383.802 72.2493 385.012 61.9567 383.651 51.8532C383.206 48.9504 382.612 46.0737 381.871 43.235C380.997 40.2893 379.923 37.4096 378.659 34.6168C375.963 28.6427 372.315 23.1698 367.865 18.4222C357.414 7.28554 343.173 0.706317 328.106 0.0536373C313.039 -0.599043 298.306 4.72508 286.974 14.9181C282.039 19.3041 277.866 24.5158 274.632 30.3314C271.535 35.9895 269.321 42.1086 268.069 48.4674C265.789 60.5828 267.176 73.1224 272.044 84.4081C276.474 94.5909 283.569 103.318 292.544 109.623C299.671 114.6 307.788 117.896 316.309 119.271C324.83 120.647 333.542 120.069 341.818 117.579C347.452 115.891 352.799 113.328 357.673 109.979C360.745 107.906 363.61 105.526 366.224 102.876C367.126 101.976 367.773 101.218 368.189 100.721C368.427 100.472 368.643 100.203 368.836 99.9161C368.574 100.135 368.326 100.372 368.096 100.626C367.657 101.1 366.964 101.81 366.04 102.71C363.377 105.309 360.483 107.647 357.396 109.694C352.531 112.938 347.218 115.412 341.634 117.034C333.466 119.393 324.891 119.88 316.518 118.46C308.146 117.04 300.181 113.748 293.191 108.818C284.398 102.601 277.455 94.0137 273.13 84.0056C270.793 78.6234 269.273 72.9065 268.623 67.0534C267.879 60.9558 268.105 54.7749 269.293 48.7516C270.528 42.525 272.704 36.5339 275.742 30.9943C278.911 25.297 282.997 20.1898 287.829 15.8888C294.521 9.85986 302.491 5.50891 311.108 3.18021C319.725 0.851515 328.752 0.608962 337.476 2.47176C346.201 4.33455 354.382 8.25158 361.373 13.9129C368.364 19.5743 373.974 26.8246 377.757 35.0903C379.024 37.8068 380.113 40.6068 381.016 43.4717C381.64 46.3602 382.449 49.1541 382.796 51.9479C384.191 61.9051 383.069 72.0626 379.537 81.4486V81.5906V81.709C381.848 88.4094 383.974 94.2575 385.662 98.9927L385.869 98.6376L373.389 99.4899L370.084 99.703L368.859 99.7977Z" fill="#263238"/>
<path d="M339.416 67.4537C342.041 66.0375 344.303 64.0067 346.019 61.5264C347.734 59.0461 348.853 56.1862 349.286 53.1792C349.719 50.1722 349.454 47.1029 348.511 44.2208C347.568 41.3387 345.975 38.7251 343.861 36.5925C341.747 34.4599 339.171 32.8684 336.344 31.9474C333.516 31.0263 330.516 30.8018 327.588 31.2919C324.66 31.782 321.886 32.9731 319.491 34.7682C317.097 36.5633 315.15 38.9118 313.808 41.6228C312.685 43.8937 312.009 46.3693 311.821 48.9078C311.632 51.4463 311.934 53.998 312.709 56.4169C313.484 58.8359 314.716 61.0746 316.337 63.0049C317.957 64.9353 319.933 66.5194 322.151 67.6668C324.838 69.042 327.806 69.7402 330.809 69.7031C333.812 69.666 336.763 68.8948 339.416 67.4537ZM322.498 34.3069C324.763 33.0932 327.259 32.3991 329.812 32.2729C332.365 32.1466 334.914 32.5911 337.282 33.5756C339.651 34.5601 341.782 36.061 343.527 37.974C345.273 39.8869 346.591 42.1662 347.39 44.6534C348.315 47.4758 348.543 50.4889 348.055 53.424C347.567 56.359 346.378 59.1247 344.594 61.4745C342.809 63.8242 340.484 65.685 337.827 66.8908C335.17 68.0967 332.262 68.6101 329.364 68.3854C326.466 68.1606 323.668 67.2046 321.218 65.6026C318.768 64.0007 316.744 61.8025 315.325 59.2043C313.906 56.606 313.137 53.6884 313.086 50.7116C313.035 47.7348 313.704 44.7913 315.033 42.1437C316.696 38.8102 319.329 36.0883 322.567 34.3542L322.498 34.3069Z" fill="#263238"/>
<path d="M308.398 89.8824C308.664 90.0417 308.959 90.1449 309.265 90.1859C309.57 90.2269 309.881 90.2048 310.178 90.1209C310.475 90.0371 310.753 89.8932 310.995 89.6977C311.237 89.5023 311.439 89.2591 311.588 88.9827L323.144 68.0528C323.194 67.9551 323.205 67.8412 323.175 67.7352C323.145 67.6292 323.075 67.5394 322.982 67.4846L320.301 65.922C320.208 65.8685 320.099 65.8535 319.996 65.8799C319.893 65.9063 319.803 65.9722 319.746 66.064L307.497 86.5204C307.327 86.7981 307.215 87.109 307.169 87.4332C307.123 87.7575 307.142 88.0881 307.227 88.4041C307.312 88.7201 307.46 89.0147 307.661 89.2692C307.863 89.5236 308.114 89.7325 308.398 89.8824Z" fill="#263238"/>
<path d="M338.975 66.5063C342.05 64.8623 344.624 62.3811 346.412 59.3357C348.2 56.2903 349.133 52.7987 349.109 49.245C349.085 45.6913 348.105 42.2132 346.276 39.1933C344.447 36.1734 341.841 33.7287 338.744 32.1283C336.529 30.9734 334.113 30.2777 331.636 30.0812C329.158 29.8846 326.667 30.1911 324.305 30.9829C321.943 31.7748 319.757 33.0365 317.872 34.6957C315.987 36.3549 314.44 38.3789 313.321 40.6518C311.525 44.3061 310.907 48.4496 311.555 52.4865C312.203 56.5234 314.084 60.2459 316.927 63.1189C319.77 65.992 323.429 67.8676 327.378 68.4763C331.327 69.0849 335.363 68.3952 338.905 66.5063H338.975ZM322.08 33.3595C325.383 31.5783 329.153 30.9197 332.845 31.4788C336.537 32.0379 339.96 33.7858 342.618 36.4695C345.277 39.1533 347.033 42.6339 347.633 46.4077C348.232 50.1815 347.645 54.0529 345.954 57.4619C344.942 59.627 343.517 61.5631 341.764 63.1569C340.012 64.7507 337.966 65.9701 335.747 66.7437C333.529 67.5172 331.182 67.8294 328.844 67.6618C326.506 67.4942 324.224 66.8503 322.132 65.7678C320.041 64.6853 318.181 63.186 316.662 61.3577C315.143 59.5294 313.995 57.4089 313.286 55.1205C312.578 52.8321 312.322 50.4217 312.534 48.0308C312.746 45.6398 313.422 43.3163 314.522 41.1963C316.191 37.8593 318.833 35.1369 322.08 33.4068V33.3595Z" fill="#455A64"/>
<path d="M307.984 89.5164C308.429 89.774 308.955 89.8415 309.448 89.7041C309.942 89.5667 310.362 89.2355 310.619 88.7824L322.914 66.6214L319.54 64.6562L307.244 86.8173C307.118 87.0437 307.036 87.2937 307.005 87.5527C306.973 87.8117 306.993 88.0744 307.062 88.3257C307.13 88.577 307.247 88.8117 307.406 89.0161C307.564 89.2205 307.761 89.3906 307.984 89.5164Z" fill="#455A64"/>
<ellipse cx="330.5" cy="63" rx="51.5" ry="44" fill="white"/>
<path d="M342.693 92.3244C340.567 92.6426 339.504 91.1529 340.311 89.0268C340.81 87.8898 341.551 86.8952 342.475 86.1237C343.398 85.3522 344.478 84.8256 345.626 84.5865C347.752 84.2828 348.815 85.758 348.008 87.8842C347.509 89.0212 346.767 90.0158 345.844 90.7873C344.921 91.5588 343.841 92.0854 342.693 92.3244Z" fill="#263238"/>
<path d="M348.257 86.2578L347.638 86.7785C347.219 86.5664 346.749 86.5007 346.293 86.5905C345.36 86.7836 344.483 87.2103 343.733 87.836C342.982 88.4618 342.379 89.2689 341.974 90.1919C341.782 90.6443 341.717 91.1467 341.785 91.6382L341.18 92.1444L342.741 92.7519C343.12 92.873 343.52 92.9027 343.911 92.8387C344.844 92.6408 345.721 92.2106 346.471 91.5827C347.221 90.9547 347.823 90.1465 348.23 89.2228C348.38 88.8337 348.449 88.4141 348.432 87.9934L348.257 86.2578Z" fill="#263238"/>
<path d="M340.643 92.3282C337.508 92.7766 335.934 90.5926 337.145 87.4396C337.885 85.7632 338.982 84.2978 340.347 83.162C341.713 82.0262 343.307 81.252 345.003 80.9021C348.151 80.4537 349.726 82.6377 348.515 85.7907C347.773 87.4688 346.674 88.9353 345.306 90.0712C343.939 91.2071 342.341 91.9804 340.643 92.3282Z" fill="#455A64"/>
<path d="M339.928 91.6632C336.672 92.1405 335.043 89.8698 336.295 86.601C337.063 84.8617 338.202 83.3413 339.618 82.1629C341.035 80.9844 342.69 80.181 344.449 79.8177C347.719 79.3549 349.347 81.6256 348.095 84.8944C347.327 86.6347 346.186 88.1551 344.767 89.3315C343.347 90.5078 341.689 91.3068 339.928 91.6632Z" fill="#37474F"/>
<path d="M339.19 90.8488C335.853 91.3406 334.185 89.012 335.463 85.6564C336.251 83.8726 337.42 82.3141 338.874 81.1077C340.329 79.9013 342.027 79.0811 343.832 78.714C347.169 78.2222 348.851 80.5508 347.573 83.9064C346.783 85.6912 345.612 87.2503 344.155 88.4567C342.698 89.6631 340.997 90.4827 339.19 90.8488Z" fill="#455A64"/>
<path d="M338.462 90.0031C335.031 90.5093 333.322 88.1228 334.627 84.6805C335.438 82.853 336.637 81.2563 338.129 80.02C339.62 78.7836 341.362 77.9424 343.212 77.5645C346.63 77.0728 348.352 79.4448 347.033 82.8871C346.225 84.7136 345.028 86.3097 343.539 87.5461C342.05 88.7824 340.311 89.6242 338.462 90.0031Z" fill="#37474F"/>
<path d="M337.721 89.2743C334.209 89.7805 332.46 87.3506 333.805 83.8215C334.639 81.9624 335.867 80.3395 337.391 79.0835C338.915 77.8275 340.691 76.9734 342.578 76.5898C346.09 76.0836 347.839 78.5279 346.507 82.0425C345.672 83.9034 344.442 85.5273 342.915 86.7835C341.389 88.0396 339.61 88.8928 337.721 89.2743Z" fill="#455A64"/>
<path d="M336.968 88.4739C333.376 88.9946 331.586 86.4925 332.932 82.8911C333.778 80.9746 335.033 79.2998 336.595 78.003C338.157 76.7062 339.981 75.8239 341.92 75.4279C345.513 74.9072 347.302 77.4094 345.957 81.0108C345.11 82.9273 343.855 84.602 342.294 85.8988C340.732 87.1957 338.907 88.0779 336.968 88.4739Z" fill="#37474F"/>
<path d="M343.588 72.8992C343.081 72.3204 342.44 71.8963 341.731 71.6701C341.022 71.444 340.27 71.424 339.551 71.612C337.519 72.023 335.607 72.9448 333.97 74.3022C332.333 75.6596 331.018 77.4141 330.132 79.4222C329.782 80.1234 329.611 80.912 329.637 81.7073C329.663 82.5026 329.885 83.2762 330.28 83.9493L332.029 86.3792C332.534 86.9618 333.174 87.3895 333.884 87.6183C334.593 87.8471 335.346 87.8687 336.066 87.6809C338.096 87.2644 340.006 86.3405 341.642 84.9837C343.279 83.6269 344.595 81.8754 345.485 79.8706C345.835 79.1668 346.006 78.376 345.98 77.5784C345.954 76.7809 345.732 76.0049 345.337 75.3291L343.588 72.8992Z" fill="#00B47F"/>
<path d="M301.851 29.606C296.548 34.0128 293.09 40.5029 292.237 47.6495C291.384 54.7962 293.206 62.0143 297.303 67.7172C309.575 84.7985 324.712 76.7424 329.596 83.627C330.12 84.2345 330.786 84.6807 331.524 84.9197C332.262 85.1587 333.046 85.1818 333.795 84.9865C335.899 84.5515 337.878 83.5903 339.573 82.1808C341.268 80.7712 342.63 78.9528 343.55 76.8725C343.917 76.1458 344.097 75.327 344.071 74.5006C344.045 73.6742 343.814 72.8703 343.402 72.1719C338.45 65.2873 349.524 51.576 337.253 34.567C333.162 28.8755 327.14 25.158 320.505 24.2283C313.87 23.2985 307.163 25.2322 301.851 29.606Z" fill="#FFC305"/>
<path d="M332.931 85.4389C332.276 85.4863 331.62 85.3684 331.015 85.0947C330.41 84.821 329.873 84.399 329.446 83.8624C327.616 81.3169 324.293 80.9697 320.027 80.4057C313.165 79.5668 304.634 78.5254 297.032 67.9671C293.04 62.1695 291.321 54.921 292.244 47.7768C293.166 40.6325 296.657 34.1615 301.967 29.7519C307.277 25.3423 313.984 23.3454 320.648 24.1895C327.312 25.0337 333.403 28.6517 337.614 34.2673C345.203 44.8401 343.978 53.981 342.996 61.3139C342.391 65.8265 341.906 69.399 343.736 71.9446C344.194 72.692 344.454 73.5589 344.49 74.4529C344.525 75.3469 344.335 76.2345 343.938 77.0212C342.991 79.1614 341.589 81.0319 339.846 82.4817C338.102 83.9315 336.065 84.9198 333.9 85.3666C333.578 85.4084 333.255 85.4325 332.931 85.4389ZM302.131 29.9138C299.539 32.0662 297.367 34.7464 295.739 37.8014C294.111 40.8564 293.059 44.2262 292.643 47.7184C292.227 51.2106 292.455 54.7567 293.314 58.1542C294.173 61.5516 295.647 64.7337 297.651 67.5187C305.065 77.8456 313.434 78.8581 320.162 79.6825C324.36 80.1887 327.993 80.6371 329.998 83.4285C330.489 83.9763 331.106 84.3755 331.786 84.5862C332.466 84.7969 333.186 84.8117 333.873 84.629C335.918 84.2104 337.843 83.28 339.491 81.913C341.139 80.546 342.464 78.781 343.359 76.7609C343.697 76.0912 343.865 75.3376 343.847 74.5759C343.828 73.8142 343.622 73.0713 343.252 72.4219C341.233 69.6159 341.758 65.7253 342.364 61.2272C343.319 53.9955 344.517 45.0715 337.103 34.7446C335.097 31.9538 332.6 29.615 329.754 27.8618C326.908 26.1086 323.768 24.9753 320.514 24.5267C317.261 24.0781 313.956 24.3229 310.791 25.2473C307.625 26.1716 304.66 27.7573 302.064 29.9138H302.131Z" fill="#455A64"/>
<path d="M334.273 83.8621C331.003 84.3393 329.375 82.0686 330.627 78.7998C331.396 77.0588 332.537 75.5373 333.956 74.3587C335.375 73.1802 337.033 72.3777 338.794 72.0165C342.05 71.5392 343.678 73.81 342.427 77.0787C341.659 78.818 340.52 80.3384 339.104 81.5169C337.687 82.6953 336.032 83.4987 334.273 83.8621Z" fill="#F5F5F5"/>
<path opacity="0.25" d="M342.89 75.5387C342.829 76.0922 342.693 76.6332 342.486 77.1441C341.718 78.8834 340.579 80.4039 339.163 81.5823C337.746 82.7608 336.091 83.5642 334.332 83.9275C333.815 84.0145 333.289 84.0145 332.771 83.9275C332.84 83.3757 332.976 82.8359 333.175 82.3221C333.945 80.581 335.086 79.0595 336.505 77.881C337.924 76.7024 339.581 75.8999 341.343 75.5387C341.856 75.4663 342.376 75.4663 342.89 75.5387Z" fill="#00B47F"/>
<path d="M342.89 75.5387C342.829 76.0922 342.693 76.6332 342.486 77.1441C341.718 78.8834 340.579 80.4039 339.163 81.5823C337.746 82.7608 336.091 83.5642 334.332 83.9275C333.815 84.0145 333.289 84.0145 332.771 83.9275C332.84 83.3757 332.976 82.8359 333.175 82.3221C333.945 80.581 335.086 79.0595 336.505 77.881C337.924 76.7024 339.581 75.8999 341.343 75.5387C341.856 75.4663 342.376 75.4663 342.89 75.5387Z" fill="#EBEBEB"/>
<path d="M340.09 44.1524C339.812 43.7335 339.402 43.4377 338.937 43.3205C338.471 43.2034 337.982 43.2729 337.56 43.516C337.193 43.7969 336.922 44.1994 336.788 44.6619C336.655 45.1243 336.666 45.621 336.82 46.076C336.955 46.4714 337.167 46.8316 337.44 47.1332C337.714 47.4348 338.044 47.6709 338.408 47.8261C338.809 47.981 339.252 47.9602 339.639 47.7681C340.027 47.576 340.329 47.2281 340.48 46.7992C340.625 46.358 340.666 45.8848 340.598 45.4225C340.53 44.9602 340.355 44.5236 340.09 44.1524ZM337.399 41.3754C337.572 40.8171 337.63 40.2246 337.567 39.6398C337.504 39.055 337.323 38.4921 337.035 37.991C334.637 33.1354 330.55 29.4961 325.665 27.8666C322.974 26.8686 319.799 26.8252 318.238 29.8481C318.07 30.1723 317.939 30.5171 317.848 30.875C317.722 31.5524 317.761 32.2533 317.961 32.9097C318.162 33.566 318.517 34.1556 318.991 34.621C320.768 36.4578 323.566 36.212 325.8 36.9351C328.261 37.7222 330.572 38.9761 332.622 40.6378C333.32 41.2817 334.083 41.8396 334.896 42.3011C335.349 42.526 335.866 42.5554 336.339 42.3832C336.812 42.211 337.206 41.8503 337.439 41.3754H337.399Z" fill="#F5F5F5"/>
<path d="M340.467 78.1452L340.238 78.3332C334.735 70.682 331.694 65.5475 330.093 61.1506C329.674 60.0184 329.354 58.8466 329.137 57.6505C327.053 58.4337 324.838 58.7344 322.638 58.5328C322.268 60.8731 321.437 63.1016 320.203 65.0702C321.226 65.5943 322.199 66.224 323.109 66.9505C326.662 69.7274 330.523 74.1822 336.027 81.8334L335.784 82.0214C330.308 74.3991 326.46 69.9589 322.934 67.1963C322.025 66.474 321.051 65.8491 320.028 65.3306C319.858 65.5837 319.674 65.8252 319.476 66.0537C317.445 68.3968 315.574 68.8018 314.498 68.3968C314.121 68.2696 313.79 68.021 313.549 67.6846C313.309 67.3483 313.17 66.9405 313.152 66.5166C313.136 66.1028 313.233 65.693 313.431 65.3381C313.63 64.9832 313.921 64.6989 314.269 64.5206C315.386 63.8408 317.337 63.7396 319.88 64.94C321.103 62.9986 321.929 60.7998 322.302 58.4894C321.867 58.4427 321.439 58.3457 321.024 58.2001C320.174 57.9882 319.393 57.5357 318.761 56.8897C318.13 56.2437 317.67 55.4277 317.431 54.5264C317.357 54.133 317.386 53.7251 317.517 53.3492C317.648 52.9732 317.875 52.6444 318.171 52.4003C318.468 52.1537 318.822 52.0002 319.195 51.9568C319.568 51.9134 319.945 51.9818 320.284 52.1544C321.035 52.6321 321.653 53.3173 322.074 54.1389C322.495 54.9605 322.704 55.8884 322.679 56.8261C322.728 57.3067 322.728 57.7917 322.679 58.2724C324.848 58.482 327.034 58.1809 329.084 57.3901C328.653 54.4974 329.245 52.4436 330.133 51.4457C330.384 51.1321 330.715 50.9046 331.085 50.7915C331.455 50.6783 331.848 50.6845 332.215 50.8093C332.582 50.9341 332.907 51.172 333.149 51.4934C333.391 51.8147 333.54 52.2055 333.578 52.6172C333.672 53.8321 332.824 55.6835 330.2 57.2021C329.947 57.3465 329.686 57.4768 329.42 57.5926C329.633 58.788 329.948 59.9597 330.362 61.0928C331.963 65.4173 334.977 70.5085 340.467 78.1452ZM329.38 57.2166L330.066 56.8694C332.569 55.4231 333.362 53.702 333.282 52.5304C333.256 52.1769 333.129 51.8405 332.92 51.5664C332.711 51.2923 332.429 51.0937 332.111 50.9973C331.798 50.8953 331.464 50.8944 331.151 50.9947C330.838 51.095 330.558 51.292 330.348 51.5614C329.541 52.5015 328.976 54.3962 329.38 57.2166ZM314.161 64.9979C313.923 65.1905 313.737 65.4488 313.624 65.7455C313.511 66.0422 313.474 66.3663 313.519 66.6834C313.563 67.0006 313.686 67.299 313.875 67.5471C314.064 67.7953 314.311 67.9839 314.592 68.0931C315.588 68.4691 317.283 68.0931 319.261 65.8368C319.433 65.6341 319.595 65.4217 319.745 65.2004C317.323 64.0867 315.467 64.188 314.457 64.7954C314.354 64.8544 314.255 64.9221 314.161 64.9979ZM318.413 52.6461C318.156 52.8564 317.959 53.1401 317.845 53.4649C317.731 53.7897 317.704 54.1425 317.767 54.483C318.015 55.3182 318.458 56.0709 319.054 56.6687C319.65 57.2665 320.379 57.6893 321.172 57.8964C321.57 58.0355 321.98 58.1324 322.396 58.1856C322.435 57.7382 322.435 57.2879 322.396 56.8405C322.398 55.9745 322.195 55.1222 321.807 54.3633C321.418 53.6045 320.857 52.9639 320.176 52.5015C319.898 52.3506 319.587 52.2843 319.276 52.3098C318.965 52.3353 318.667 52.4516 318.413 52.6461Z" fill="#455A64"/>
<path d="M382.704 224.656H321.996V227.356H382.704V224.656Z" fill="#263238"/>
<path d="M312.583 227.354L301.203 188.359H348.596L358.906 227.354H312.583Z" fill="#263238"/>
<path d="M356.066 224.402H313.726L303.875 190.156H346.429L356.066 224.402Z" fill="#F5F5F5"/>
<path d="M304.578 192.624H347.132L346.408 190.156H303.875L304.578 192.624Z" fill="#EBEBEB"/>
<path d="M309.17 191.397C309.17 191.482 309.197 191.565 309.249 191.635C309.3 191.705 309.374 191.76 309.459 191.793C309.545 191.825 309.639 191.834 309.73 191.817C309.821 191.801 309.904 191.76 309.97 191.7C310.035 191.64 310.08 191.564 310.098 191.481C310.116 191.398 310.107 191.311 310.072 191.233C310.036 191.155 309.976 191.088 309.899 191.041C309.822 190.994 309.731 190.969 309.639 190.969C309.514 190.969 309.395 191.014 309.307 191.094C309.219 191.175 309.17 191.283 309.17 191.397Z" fill="#FAFAFA"/>
<path d="M307.57 191.397C307.57 191.482 307.598 191.565 307.649 191.635C307.701 191.705 307.774 191.76 307.86 191.793C307.945 191.825 308.039 191.834 308.13 191.817C308.221 191.801 308.305 191.76 308.37 191.7C308.436 191.64 308.48 191.564 308.499 191.481C308.517 191.398 308.507 191.311 308.472 191.233C308.436 191.155 308.376 191.088 308.299 191.041C308.222 190.994 308.132 190.969 308.039 190.969C307.915 190.969 307.795 191.014 307.708 191.094C307.62 191.175 307.57 191.283 307.57 191.397Z" fill="#FAFAFA"/>
<path d="M305.971 191.397C305.973 191.509 306.024 191.616 306.112 191.694C306.199 191.772 306.317 191.816 306.439 191.816C306.55 191.801 306.652 191.75 306.725 191.672C306.799 191.594 306.839 191.495 306.839 191.392C306.839 191.29 306.799 191.19 306.725 191.113C306.652 191.035 306.55 190.984 306.439 190.969C306.378 190.969 306.317 190.98 306.26 191.001C306.203 191.023 306.151 191.054 306.108 191.094C306.064 191.134 306.03 191.181 306.006 191.233C305.983 191.285 305.971 191.341 305.971 191.397Z" fill="#FAFAFA"/>
<path d="M336.566 207.632L341.232 212.511C342.102 211.962 342.814 211.229 343.309 210.375C343.803 209.521 344.066 208.571 344.075 207.604C344.075 204.197 340.652 201.403 336.526 201.422C332.4 201.441 329.007 204.215 329.027 207.66L336.566 207.632Z" fill="#31C5FF"/>
<path d="M335.973 208.408C336.457 208.777 336.904 209.185 337.307 209.627C338.143 210.447 339.345 211.639 340.751 213.091L340.914 213.259L340.71 213.389C339.579 214.116 338.261 214.563 336.885 214.687C335.508 214.811 334.12 214.608 332.855 214.097C331.559 213.59 330.439 212.769 329.616 211.722C328.894 210.78 328.48 209.669 328.424 208.519V208.343H328.658C330.889 208.343 332.733 208.343 334.017 208.343C334.674 208.322 335.331 208.35 335.983 208.426C335.309 208.522 334.628 208.571 333.946 208.575C332.662 208.631 330.889 208.687 328.668 208.743L328.892 208.519C328.978 209.582 329.38 210.602 330.054 211.471C330.834 212.445 331.891 213.205 333.11 213.668C334.296 214.145 335.594 214.341 336.885 214.238C338.176 214.136 339.418 213.738 340.496 213.082V213.38C339.141 211.937 338.031 210.717 337.256 209.851C336.79 209.4 336.36 208.918 335.973 208.408Z" fill="#263238"/>
<path d="M332.932 203.96C332.934 204.063 332.98 204.161 333.06 204.234C333.14 204.307 333.247 204.349 333.36 204.351C333.471 204.349 333.577 204.306 333.656 204.233C333.734 204.16 333.777 204.062 333.777 203.96C333.777 203.91 333.766 203.86 333.745 203.814C333.724 203.768 333.694 203.726 333.655 203.69C333.616 203.655 333.57 203.626 333.519 203.607C333.469 203.588 333.414 203.578 333.36 203.578C333.304 203.577 333.248 203.586 333.197 203.605C333.145 203.623 333.097 203.651 333.058 203.687C333.018 203.722 332.986 203.765 332.964 203.812C332.943 203.859 332.932 203.909 332.932 203.96Z" fill="#263238"/>
<path d="M324.543 201.171C326.209 200.92 327.9 200.833 329.586 200.91H330.36L330.442 200.975C331.528 201.869 332.505 202.868 333.355 203.955C332.159 203.186 331.056 202.303 330.065 201.32L330.258 201.385H329.586C327.901 201.472 326.211 201.4 324.543 201.171Z" fill="#263238"/>
<path d="M315.015 206.038C314.802 205.452 314.639 204.851 314.526 204.241C314.241 203.059 313.844 201.336 313.375 199.223L313.324 198.99H313.589L324.123 198.906C324.062 198.906 324.622 199.288 324.388 199.111V199.214V199.325V199.558L324.48 200.014C324.541 200.322 324.612 200.619 324.673 200.945C324.795 201.541 324.908 202.128 325.03 202.705C325.264 203.85 325.478 204.949 325.692 205.992L325.743 206.253H325.458C322.289 206.253 319.63 206.206 317.776 206.178L315.647 206.122C315.404 206.131 315.161 206.112 314.924 206.066C315.193 206.026 315.466 206.007 315.739 206.011L317.919 205.945C319.783 205.899 322.381 205.843 325.458 205.815L325.223 206.076L324.612 202.761C324.49 202.193 324.368 201.606 324.245 201.011C324.184 200.713 324.113 200.405 324.052 200.079L323.96 199.623L323.909 199.39V199.279V199.186C323.675 199.009 324.225 199.428 324.164 199.39H313.589L313.803 199.158C314.2 201.197 314.506 202.882 314.72 204.111C314.934 205.34 315.036 206.011 315.015 206.038Z" fill="#263238"/>
<path d="M332.311 211.711C332.326 211.804 332.378 211.888 332.455 211.948C332.533 212.009 332.631 212.042 332.733 212.042C332.836 212.042 332.934 212.009 333.012 211.948C333.089 211.888 333.141 211.804 333.156 211.711C333.156 211.608 333.111 211.508 333.031 211.435C332.951 211.362 332.842 211.32 332.728 211.32C332.673 211.32 332.617 211.33 332.566 211.35C332.515 211.37 332.468 211.399 332.429 211.435C332.39 211.472 332.36 211.515 332.339 211.562C332.319 211.61 332.309 211.66 332.311 211.711Z" fill="#263238"/>
<path d="M325.076 211.726C326.333 211.475 327.623 211.388 328.907 211.465C330.186 211.376 331.472 211.455 332.727 211.698C331.472 211.942 330.187 212.027 328.907 211.949C327.625 212.033 326.336 211.958 325.076 211.726Z" fill="#263238"/>
<path d="M315.048 214.763C314.858 214.347 314.705 213.917 314.589 213.478C314.314 212.622 313.917 211.356 313.438 209.754L313.377 209.531H313.632C316.505 209.484 320.325 209.447 324.502 209.438L324.757 209.614V209.689V209.773V209.94L324.848 210.275L325.032 210.927C325.154 211.365 325.276 211.793 325.388 212.212C325.623 213.05 325.847 213.87 326.061 214.652L326.142 214.931H325.826C322.607 214.931 319.856 214.931 317.941 214.857L315.72 214.801C315.464 214.807 315.208 214.789 314.956 214.745C315.239 214.704 315.525 214.682 315.812 214.68L318.084 214.614C320.009 214.559 322.688 214.512 325.826 214.484L325.582 214.763C325.358 213.981 325.123 213.171 324.889 212.333L324.522 211.048L324.339 210.387L324.247 210.061L324.196 209.894V209.81V209.745C324.135 209.745 324.685 210.089 324.451 209.931C320.274 209.931 316.454 209.931 313.591 209.931L313.774 209.698C314.182 211.225 314.487 212.492 314.701 213.357C314.857 213.817 314.972 214.287 315.048 214.763Z" fill="#263238"/>
<path d="M315.852 201.279C317.031 201.041 318.242 200.956 319.448 201.028C320.656 200.939 321.872 201.017 323.054 201.26C321.871 201.499 320.657 201.584 319.448 201.512C318.243 201.601 317.031 201.522 315.852 201.279Z" fill="#263238"/>
<path d="M315.936 202.363C317.126 202.124 318.346 202.04 319.562 202.111C320.777 202.028 321.998 202.103 323.189 202.335C320.785 202.664 318.34 202.664 315.936 202.335V202.363Z" fill="#263238"/>
<path d="M316.148 203.407C317.295 203.157 318.477 203.069 319.653 203.146C320.824 203.069 322.001 203.147 323.147 203.379C322.004 203.629 320.826 203.717 319.653 203.639C318.479 203.716 317.298 203.638 316.148 203.407Z" fill="#263238"/>
<path d="M316.07 211.646C317.195 211.406 318.352 211.322 319.504 211.395C320.654 211.306 321.813 211.385 322.937 211.627C321.812 211.866 320.655 211.95 319.504 211.879C318.353 211.967 317.194 211.889 316.07 211.646Z" fill="#263238"/>
<path d="M316.488 212.836C318.428 212.513 320.416 212.513 322.356 212.836C320.416 213.159 318.428 213.159 316.488 212.836Z" fill="#263238"/>
<path d="M250.104 227.234V232.346H253.771V335.894H261.29V232.346H301.195V335.894H308.713V232.346H481.832V335.866H489.36V232.346H492.61V227.234H250.104Z" fill="#263238"/>
<path d="M329.904 224.929C329.955 224.929 329.996 224.677 330.363 224.603C330.729 224.528 331.33 224.482 331.952 224.426C332.724 224.413 333.494 224.341 334.254 224.212C333.502 223.972 332.695 223.914 331.911 224.044C331.349 224.089 330.795 224.196 330.261 224.361C330.168 224.392 330.085 224.442 330.016 224.506C329.947 224.57 329.895 224.648 329.863 224.733C329.812 224.864 329.874 224.929 329.904 224.929Z" fill="#AA6550"/>
</g>
<defs>
<clipPath id="clip0_2479_3448">
<rect width="690" height="350" fill="white"/>
</clipPath>
</defs>
</svg>
