<svg width="690" height="350" viewBox="0 0 690 350" fill="none" xmlns="http://www.w3.org/2000/svg">
<path opacity="0.43" d="M397.873 77.4654C376.907 91.4766 360.996 114.73 355.816 140.993C350.637 167.255 356.63 196.169 372.58 216.6C390.615 239.699 420.886 250.453 447.893 243.359C455.732 241.296 463.331 237.815 469.767 232.496C478.699 225.106 485.011 214.499 489.678 203.372C500.394 177.823 503.139 148.366 497.37 120.972C493.997 104.968 487.546 89.321 476.637 78.0314C455.306 55.9795 421.119 61.9422 397.873 77.4654Z" fill="#FFC305"/>
<path d="M497.374 342.664C497.374 343.37 496.389 344.052 494.559 344.696C488.557 346.805 473.414 348.519 453.875 349.325C449.742 349.488 445.415 349.62 440.926 349.713C436.762 349.798 432.482 349.837 428.093 349.837C394.441 349.837 366.396 347.348 360.131 344.045C359.27 343.595 358.82 343.137 358.82 342.657C358.82 342.091 359.441 341.548 360.611 341.028C364.496 339.291 374.444 337.803 388.006 336.802C389.169 336.709 390.371 336.632 391.596 336.554C396.411 336.236 401.614 335.988 407.119 335.818C413.725 335.593 420.773 335.477 428.078 335.477C443.717 335.477 458.147 336.012 469.731 336.919C481.385 337.834 490.17 339.121 494.458 340.602C496.366 341.261 497.374 341.959 497.374 342.664Z" fill="#FFC305"/>
<path d="M279.022 90.6142C279.022 90.6142 238.911 98.1974 235.926 89.769C232.941 81.3406 231.087 54.0859 236.213 50.0151C241.338 45.9443 303.78 41.3075 308.331 48.8908C312.883 56.474 313.169 84.4266 308.897 86.6752C304.632 88.9238 286 90.6064 286 90.6064L287.14 99.0348L279.022 90.6142Z" fill="#FFC305"/>
<path d="M429.335 334.899C429.653 336.667 403.934 348.553 402.809 346.948C401.685 345.343 413.572 331.037 413.572 331.037L411.974 326.881L410.362 322.679L423.543 317.375C423.543 317.375 424.753 320.849 426.063 324.71C427.552 329.083 429.165 333.953 429.335 334.899Z" fill="#FF9C87"/>
<path d="M429.335 334.9C429.653 336.668 403.934 348.555 402.809 346.95C401.685 345.345 413.572 331.039 413.572 331.039L411.974 326.883C412.199 326.464 412.525 326.138 412.975 325.983C413.548 325.782 414.192 325.968 414.696 326.293C415.208 326.627 415.595 327.107 415.968 327.58C416.348 328.046 416.712 328.495 417.092 328.961C418.868 326.852 421.357 324.719 424.109 324.502C424.776 324.448 425.443 324.518 426.063 324.712C427.552 329.085 429.165 333.954 429.335 334.9Z" fill="#5A72EB"/>
<path d="M460.859 344.001C460.503 345.761 432.201 347.204 431.751 345.288C431.302 343.373 447.67 334.542 447.67 334.542L447.74 330.091L447.809 325.594L462.022 325.586C462.022 325.586 461.852 329.261 461.627 333.332C461.371 337.938 461.053 343.063 460.859 344.001Z" fill="#FF9C87"/>
<path d="M460.859 344.004C460.503 345.764 432.201 347.206 431.751 345.291C431.302 343.376 447.67 334.544 447.67 334.544L447.74 330.094C448.104 329.791 448.523 329.605 449.004 329.636C449.608 329.667 450.143 330.07 450.485 330.567C450.833 331.063 451.012 331.652 451.19 332.234C451.368 332.807 451.539 333.358 451.717 333.932C454.152 332.637 457.261 331.59 459.89 332.412C460.534 332.606 461.115 332.924 461.627 333.335C461.371 337.941 461.053 343.066 460.859 344.004Z" fill="#5A72EB"/>
<path d="M411.772 169.07C411.772 169.07 378.826 253.758 382.625 269.808C386.425 285.859 409.237 324.504 409.237 324.504L429.086 317.742L427.396 313.943L409.865 264.101L434.785 226.511L441.33 271.072L445.129 326.613C445.129 326.613 458.435 330.203 465.405 327.667C465.405 327.667 472.585 229.038 469.841 214.678C467.096 200.318 457.589 169.908 457.589 169.908L411.772 169.07Z" fill="#433D3B"/>
<path d="M425.57 200.328L434.79 226.513C434.79 226.513 440.776 262.274 442.466 286.489C444.156 310.704 445.141 326.615 445.141 326.615" stroke="#0E1219" stroke-width="0.5334" stroke-miterlimit="10" stroke-linecap="round" stroke-linejoin="round"/>
<path d="M453.703 171.297C460.999 196.559 463.186 223.03 463.512 249.324C463.837 275.617 462.349 301.902 462.48 328.196" stroke="#0E1219" stroke-width="0.5334" stroke-miterlimit="10" stroke-linecap="round" stroke-linejoin="round"/>
<path d="M432.574 219.867C422.541 232.072 413.872 245.401 406.785 259.52C406.382 260.327 405.971 261.172 405.932 262.071C405.901 262.885 406.18 263.676 406.452 264.444C412.841 282.503 419.23 300.554 425.619 318.612" stroke="#0E1219" stroke-width="0.5334" stroke-miterlimit="10" stroke-linecap="round" stroke-linejoin="round"/>
<path d="M383.477 62.734C383.477 62.734 385.113 59.8496 385.058 56.9264C384.95 50.7001 383.477 51.2273 385.058 48.7926C386.64 46.3657 395.301 37.4953 396.782 38.0225C398.263 38.5498 393.084 44.466 393.084 44.466C393.084 44.466 402.691 42.4577 401 46.1563C401 46.1563 403.427 47.0015 401.419 48.7926C401.419 48.7926 402.481 50.01 400.892 50.514C397.581 51.5685 395.402 52.6928 395.402 52.6928C395.402 52.6928 398.038 58.9191 394.03 64.0987L383.477 62.734Z" fill="#FF9C87"/>
<path d="M389.016 47.6353C389.016 47.6353 391.342 44.999 393.079 44.464C394.482 44.0375 398.382 43.5103 400.29 44.2314C400.995 44.495 401.375 45.3092 401.073 45.9993C401.05 46.0535 401.026 46.1001 400.995 46.1466" stroke="#0E1219" stroke-width="0.3359" stroke-miterlimit="10" stroke-linecap="round" stroke-linejoin="round"/>
<path d="M390.891 49.1429C390.891 49.1429 393.992 46.8245 395.907 46.4523C397.939 46.0568 402.056 45.6846 402.242 47.375" stroke="#0E1219" stroke-width="0.3359" stroke-miterlimit="10" stroke-linecap="round" stroke-linejoin="round"/>
<path d="M391.898 51.246C391.898 51.246 394.752 49.1059 397.311 48.9198C399.869 48.7337 401.11 48.5476 401.591 49.0516" stroke="#0E1219" stroke-width="0.3359" stroke-miterlimit="10" stroke-linecap="round" stroke-linejoin="round"/>
<path d="M448.732 73.125C450.709 74.1562 452.516 75.5287 453.989 77.2268C456.641 80.2895 457.571 84.306 457.548 88.276C457.533 90.5634 456.998 92.8197 456.936 95.1071C456.897 96.5338 457.122 98.0225 457.928 99.1934C459.083 100.86 461.022 101.395 462.728 102.318C464.573 103.318 466.341 104.536 467.62 106.226C470.427 109.932 470.699 115.507 469.086 119.757C468.272 121.904 466.938 123.897 465.069 125.246C462.937 126.782 460.262 127.386 457.633 127.557C449.515 128.076 441.35 126.875 433.348 125.642C427.533 124.742 421.663 123.796 416.127 121.718C411.382 119.943 407.241 117.314 405.939 112.065C404.427 105.962 408.024 99.1003 414.026 97.0921C415.949 96.4485 418.252 96.2392 419.601 94.5411C421.291 92.4088 420.485 89.3848 420.213 86.9346C419.709 82.4761 420.756 77.6067 424.346 74.637C429.479 70.3956 435.217 70.1165 441.505 70.8996C443.994 71.2098 446.476 71.9541 448.732 73.125Z" fill="#240A19"/>
<path d="M449.081 98.4297L447.36 112.045L430.891 112.356L431.449 108.2L431.937 104.547L447.585 98.9569L449.081 98.4297Z" fill="#FF9C87"/>
<path d="M447.581 98.9531C447.713 102.287 445.96 105.606 443.223 107.521C440.409 109.498 436.671 110.018 433.353 109.095C432.663 108.901 431.98 108.638 431.445 108.196L431.934 104.551L447.581 98.9531Z" fill="#FF836D"/>
<path d="M450.209 90.9532C451.551 90.1933 453.117 90.1701 454.327 91.6898C454.505 91.9069 454.645 92.155 454.753 92.4187C455.404 93.9772 455.048 96.0707 453.823 97.2648C452.675 98.3814 450.62 98.9474 449.085 98.4356C447.48 97.9006 447.154 96.1948 447.449 94.7061C447.736 93.2483 448.852 91.7208 450.209 90.9532Z" fill="#FF9C87"/>
<path d="M452.384 93.5859C451.469 93.8728 450.709 94.6327 450.43 95.5477" stroke="#0E1219" stroke-width="0.5" stroke-miterlimit="10" stroke-linecap="round" stroke-linejoin="round"/>
<path d="M423.903 83.5153C423.903 83.5153 423.911 83.5153 423.934 83.5231C425.09 77.0409 430.983 72.1172 438.062 72.1172C438.31 72.1172 438.55 72.1249 438.791 72.1404C446.374 72.5049 452.406 78.5219 452.406 85.8802C452.406 87.4 452.151 88.8577 451.678 90.2224C451.282 91.3777 450.724 92.4633 450.034 93.4635C449.196 102.311 445.164 107.583 432.82 106.273C420.298 104.931 423.903 83.5153 423.903 83.5153Z" fill="#FF9C87"/>
<path d="M436.126 89.5144C436.095 90.2898 436.692 90.9411 437.46 90.9721C438.227 91.0031 438.871 90.3983 438.902 89.6229C438.933 88.8475 438.336 88.1962 437.568 88.1652C436.801 88.1342 436.157 88.739 436.126 89.5144Z" fill="#240A19"/>
<path d="M425.923 88.5075C425.892 89.2208 426.443 89.8179 427.148 89.8489C427.854 89.8799 428.451 89.3216 428.474 88.6083C428.505 87.8949 427.955 87.2979 427.249 87.2669C426.543 87.2358 425.954 87.7941 425.923 88.5075Z" fill="#240A19"/>
<path d="M430.395 88.2812C429.837 89.7235 429.442 91.2199 429.209 92.7475C429.077 93.6236 429.558 94.4843 430.388 94.7867C430.395 94.7867 430.395 94.7867 430.403 94.7945" stroke="#0E1219" stroke-width="0.5" stroke-miterlimit="10" stroke-linecap="round" stroke-linejoin="round"/>
<path d="M432.391 94.6862C432.306 94.5698 432.197 94.4458 432.073 94.3683C431.973 94.3062 431.849 94.2752 431.732 94.314C431.531 94.3838 431.484 94.6319 431.445 94.818" stroke="#0E1219" stroke-width="0.5" stroke-miterlimit="10" stroke-linecap="round" stroke-linejoin="round"/>
<path d="M436.255 85.5474C436.069 85.687 435.899 85.8653 435.899 86.0669C435.891 86.2763 436.069 86.4701 436.302 86.5787C436.527 86.6872 436.798 86.726 437.062 86.7493C437.845 86.8191 438.721 86.726 439.241 86.2608C439.326 86.191 439.396 86.1057 439.427 86.0127C439.489 85.8188 439.365 85.6095 439.171 85.4776C438.287 84.8728 437.077 84.9349 436.255 85.5474Z" fill="#240A19"/>
<path d="M426.146 83.9675C425.968 84.1148 425.797 84.3009 425.797 84.518C425.789 84.7428 425.968 84.9444 426.185 85.053C426.402 85.1615 426.666 85.2081 426.921 85.2313C427.681 85.3011 428.526 85.2081 429.038 84.7196C429.116 84.642 429.186 84.5567 429.217 84.4559C429.279 84.2543 429.155 84.0295 428.968 83.8899C428.123 83.2619 426.945 83.3316 426.146 83.9675Z" fill="#240A19"/>
<path d="M432.023 97.2897C432.745 96.1886 434.21 95.6381 435.474 95.987" stroke="#0E1219" stroke-width="0.5" stroke-miterlimit="10" stroke-linecap="round" stroke-linejoin="round"/>
<path d="M437.291 71.4805C436.763 73.5508 436.949 75.7684 437.601 77.7999C438.252 79.8392 439.338 81.7078 440.601 83.4369C442.54 86.0965 445.006 88.5157 448.092 89.6633C448.061 90.6325 448.231 91.594 448.301 92.5632C448.309 92.6175 448.309 92.6718 448.348 92.7183C448.425 92.8113 448.572 92.757 448.681 92.7028C450.108 91.9196 451.527 91.1365 452.953 90.3534C453.674 88.8956 453.612 87.2828 453.667 85.6545C453.705 84.6543 453.736 83.6463 453.612 82.646C453.248 79.8702 451.573 77.3657 449.387 75.6133C447.2 73.8532 444.54 72.7832 441.834 72.0621C440.353 71.6821 438.803 71.3797 437.291 71.4805Z" fill="#240A19"/>
<path d="M429.94 108.031L448.526 107.612C448.526 107.612 448.526 111.412 449.581 113.102C450.635 114.792 461.832 122.818 463.941 129.362C466.05 135.906 457.606 170.752 457.606 170.752C457.606 170.752 425.924 176.668 411.781 169.062C411.781 169.062 405.02 152.802 407.346 134.852C407.346 134.852 369.329 117.111 365.739 104.86C362.149 92.6087 382.844 60.5078 382.844 60.5078L395.095 64.5321C395.095 64.5321 384.115 91.779 384.96 94.0974C385.806 96.4236 416.216 111.629 421.07 112.683C425.924 113.738 428.289 113.056 429.94 108.031Z" fill="#5A72EB"/>
<path d="M435.852 137.112L448.242 133.312L452.29 144.47L462.85 128.102C462.85 128.102 466.65 131.056 465.277 148.905C463.905 166.754 461.478 174.989 451.762 176.152C436.294 177.997 435.852 137.112 435.852 137.112Z" fill="#5A72EB"/>
<path d="M410.374 126.828C410.374 126.828 404.605 139.358 407.133 151.889C409.661 164.419 411.777 169.063 411.777 169.063" stroke="#0E1219" stroke-width="0.5334" stroke-miterlimit="10" stroke-linecap="round" stroke-linejoin="round"/>
<path d="M438.152 135.916C438.152 135.916 436.501 133.551 435.935 131.256C435.361 128.961 435.935 126.456 435.935 126.456C435.935 126.456 434.57 120.935 438.439 118.787C438.439 118.787 438.222 115.492 439.37 114.849C440.517 114.205 441.091 118.004 441.091 118.004C441.091 118.004 440.804 108.979 442.091 108.545C443.378 108.118 443.665 118.004 444.239 119.222C444.813 120.439 447.395 124.456 447.248 125.743C447.108 127.03 445.813 133.907 445.813 133.907L438.152 135.916Z" fill="#FF9C87"/>
<path d="M441.461 117.609C441.461 117.609 439.096 117.989 437.809 119.168C436.77 120.122 436.119 121.432 435.84 122.804C435.63 123.805 435.274 126.123 436.336 126.782C436.871 127.108 437.398 126.821 437.6 126.263" stroke="#0E1219" stroke-width="0.3419" stroke-miterlimit="10" stroke-linecap="round" stroke-linejoin="round"/>
<path d="M441.995 118.789C441.995 118.789 438.661 119.541 437.963 121.906C437.265 124.271 437.211 126.527 438.343 126.69C439.475 126.853 439.684 125.612 439.684 125.612" stroke="#0E1219" stroke-width="0.3419" stroke-miterlimit="10" stroke-linecap="round" stroke-linejoin="round"/>
<path d="M442.804 120.019C442.804 120.019 441.61 119.593 440.547 122.113C439.446 124.718 439.423 126.114 440.416 126.494C441.113 126.765 441.803 124.873 442.23 123.904" stroke="#0E1219" stroke-width="0.3419" stroke-miterlimit="10" stroke-linecap="round" stroke-linejoin="round"/>
<path d="M442.056 124.242C441.739 125.041 441.428 125.839 441.242 126.669C441.056 127.507 441.002 128.383 441.219 129.212" stroke="#0E1219" stroke-width="0.3419" stroke-miterlimit="10" stroke-linecap="round" stroke-linejoin="round"/>
<path d="M456.898 157.03L448.376 133.164L436.125 136.684C436.125 136.684 438.063 165.792 444.499 172.972" stroke="#0E1219" stroke-width="0.5334" stroke-miterlimit="10" stroke-linecap="round" stroke-linejoin="round"/>
<path d="M480.003 112.43C480.677 111.112 482.29 110.608 483.624 111.29C484.989 111.988 485.5 113.554 484.81 114.896C484.12 116.237 482.546 116.733 481.189 116.035C479.863 115.353 479.328 113.748 480.003 112.43ZM484.151 108.987L483.888 108.925C483.624 108.793 483.484 108.576 483.469 108.243C483.492 107.134 483.701 106.157 484.12 105.327C485.19 103.242 487.229 102.691 489.354 102.117C490.385 101.815 491.145 101.551 491.595 101.311C492.045 101.07 492.394 100.745 492.587 100.373C493.161 99.2561 492.487 98.2248 491.44 97.6898C490.284 97.0928 488.811 97.1005 487.563 97.3254C487.377 97.3409 487.229 97.3331 487.082 97.2634C486.912 97.1703 486.811 97.0152 486.78 96.7826L486.532 94.7744C486.485 94.6426 486.532 94.4875 486.609 94.3402C486.71 94.1386 486.888 94.0145 487.105 93.9447C489.331 93.4562 491.331 93.6888 493.13 94.6115C496.084 96.1235 497.449 99.0312 495.922 102.009C494.952 103.901 493.44 104.637 491.471 105.258L490.641 105.521C489.664 105.777 488.951 106.033 488.47 106.25C487.989 106.475 487.64 106.801 487.431 107.204C487.237 107.576 487.105 108.049 487.059 108.638C487.028 108.77 487.012 108.871 486.981 108.925C486.935 109.01 486.85 109.111 486.749 109.165C486.617 109.204 486.485 109.251 486.384 109.235L484.151 108.987Z" fill="#5A72EB"/>
<path d="M386.15 151.437L385.957 151.623C385.701 151.77 385.445 151.77 385.158 151.6C384.235 150.979 383.53 150.274 383.064 149.467C381.894 147.436 382.537 145.428 383.204 143.334C383.514 142.303 383.7 141.527 383.747 141.016C383.793 140.504 383.708 140.039 383.499 139.674C382.871 138.589 381.638 138.597 380.622 139.186C379.498 139.837 378.707 141.07 378.218 142.249C378.125 142.411 378.048 142.535 377.9 142.613C377.73 142.714 377.544 142.706 377.334 142.605L375.512 141.729C375.38 141.69 375.272 141.574 375.194 141.434C375.078 141.241 375.07 141.023 375.132 140.806C375.931 138.674 377.21 137.116 378.963 136.108C381.839 134.448 385.018 134.875 386.693 137.775C387.755 139.612 387.554 141.287 387.011 143.272L386.778 144.109C386.468 145.071 386.29 145.8 386.212 146.327C386.143 146.854 386.22 147.32 386.445 147.715C386.654 148.079 386.98 148.444 387.453 148.808C387.546 148.901 387.624 148.971 387.655 149.025C387.701 149.111 387.74 149.235 387.732 149.351C387.693 149.483 387.662 149.615 387.593 149.692L386.15 151.437ZM386.794 156.779C386.057 155.5 386.499 153.864 387.802 153.119C389.128 152.352 390.725 152.771 391.477 154.081C392.229 155.391 391.795 156.981 390.469 157.741C389.174 158.493 387.538 158.066 386.794 156.779Z" fill="#5A72EB"/>
<path d="M280.272 287.13L233.79 289.465C230.734 289.62 228.132 287.162 227.983 283.98L227.905 282.272C227.757 279.09 230.117 276.38 233.172 276.226L279.843 273.874C282.898 273.719 285.5 276.177 285.649 279.359L285.719 280.872C285.876 284.168 283.437 286.967 280.272 287.13Z" fill="#8C98E9"/>
<path d="M273.369 299.551L242.899 301.081C239.789 301.235 237.147 298.737 236.991 295.499L236.921 293.985C236.772 290.747 239.171 287.996 242.282 287.833L272.752 286.304C275.862 286.149 278.503 288.647 278.66 291.886L278.73 293.399C278.878 296.638 276.479 299.388 273.369 299.551Z" fill="#8C98E9"/>
<path d="M251.089 256.052C284.827 256.052 312.177 227.574 312.177 192.444C312.177 157.314 284.827 128.836 251.089 128.836C217.35 128.836 190 157.314 190 192.444C190 227.574 217.35 256.052 251.089 256.052Z" fill="#F9CA51"/>
<path d="M226.086 248.366L235.917 271.858L278.281 269.262L287.448 239.188L226.086 248.366Z" fill="#F9CA51"/>
<path d="M244.962 269.778C241.672 259.313 238.905 248.67 236.694 237.896C234.459 227.025 232.56 215.918 231.7 204.835C231.333 200.058 231.77 194.037 236.201 191.311C240.023 188.959 245.032 190.628 247.924 193.777C251.104 197.251 252.503 202.426 252.73 207.13C252.855 209.628 252.48 212.354 250.635 214.136C248.994 215.723 246.462 216.203 244.751 214.453C241.992 211.63 242.774 206.283 243.727 202.85C244.97 198.374 247.814 194.379 252.3 193.142C256.614 191.954 261.326 193.313 264.725 196.242C268.195 199.229 270.407 203.582 271.509 208.074C272.134 210.604 272.532 213.574 271.001 215.853C269.524 218.05 266.867 218.367 264.929 216.593C263.022 214.844 262.631 211.971 262.662 209.465C262.686 207.325 263.077 205.193 263.827 203.208C265.288 199.334 268.305 196.006 272.329 195.201C275.908 194.476 280.152 195.713 282.215 199.017C284.982 203.444 283.036 209.074 281.285 213.485C279.331 218.392 277.393 223.274 275.776 228.311C272.509 238.441 270.157 248.898 268.766 259.492C268.43 262.031 268.156 264.57 267.93 267.125C267.875 267.776 268.852 267.776 268.906 267.125C269.993 254.895 272.345 242.803 275.924 231.094C277.714 225.243 279.894 219.588 282.16 213.924C284.028 209.262 285.951 203.452 283.192 198.724C281.152 195.225 276.987 193.655 273.189 194.053C268.985 194.493 265.562 197.373 263.639 201.214C261.623 205.242 260.748 210.987 262.725 215.21C263.647 217.179 265.538 218.806 267.719 218.831C269.813 218.855 271.563 217.269 272.4 215.356C273.517 212.793 273.001 209.807 272.298 207.203C271.649 204.811 270.712 202.491 269.438 200.392C266.953 196.267 263.147 193.012 258.497 192.043C253.902 191.083 249.072 192.393 245.985 196.177C243.172 199.627 241.742 204.648 241.945 209.148C242.117 212.948 244.297 217.732 248.736 216.439C253.824 214.958 254.089 208.708 253.394 204.249C252.636 199.367 250.706 194.208 246.626 191.327C243.102 188.845 238.092 188.3 234.654 191.23C230.418 194.834 230.34 201.043 230.848 206.218C231.442 212.321 232.278 218.4 233.247 224.454C235.24 236.847 237.952 249.117 241.367 261.169C242.211 264.155 243.102 267.117 244.032 270.071C244.211 270.665 245.157 270.404 244.962 269.778Z" fill="#2C2C2C"/>
<path d="M283.712 274.598L230.532 277.267C227.421 277.422 224.78 274.924 224.624 271.685L224.553 270.172C224.405 266.933 226.804 264.183 229.914 264.02L283.086 261.343C286.197 261.188 288.838 263.686 288.995 266.925L289.065 268.438C289.221 271.685 286.822 274.435 283.712 274.598Z" fill="#8C98E9"/>
<path d="M229.766 277.702C243.661 277.067 257.563 276.432 271.458 275.797C275.404 275.618 279.343 275.439 283.29 275.252C283.915 275.22 283.923 274.203 283.29 274.235C269.395 274.87 255.492 275.505 241.597 276.139C237.651 276.318 233.712 276.497 229.766 276.684C229.141 276.709 229.141 277.726 229.766 277.702Z" fill="#2C2C2C"/>
<path d="M237.956 290.047C251.257 289.282 264.55 288.517 277.851 287.752C278.476 287.72 278.484 286.703 277.851 286.735C264.55 287.5 251.257 288.265 237.956 289.03C237.331 289.062 237.323 290.08 237.956 290.047Z" fill="#2C2C2C"/>
<path d="M287.445 153.172C295.009 157.802 299.675 166.02 302.324 174.516C305.356 184.207 306.153 194.557 304.223 204.574C303.129 210.246 301.214 215.706 298.55 220.783C298.245 221.361 299.089 221.874 299.394 221.296C304.231 212.093 306.63 201.563 306.224 191.075C305.849 181.31 303.262 171.025 298.135 162.757C295.517 158.526 292.11 154.848 287.929 152.293C287.398 151.959 286.905 152.838 287.445 153.172Z" fill="white"/>
<g opacity="0.3">
<path opacity="0.3" d="M232.23 142.209C240.185 142.901 241.24 149.655 240.388 155.457C239.536 161.258 235.692 166.051 231.776 170.283C227.869 174.514 223.618 178.696 221.554 184.156C220.288 187.517 219.929 191.171 218.897 194.613C217.866 198.055 215.912 201.513 212.7 202.856C208.887 204.459 204.323 202.489 201.775 199.137C199.227 195.776 198.352 191.358 198.157 187.078C197.25 167.386 207.535 148.483 225.689 142.917C225.689 142.925 230.252 142.038 232.23 142.209Z" fill="white"/>
</g>
</svg>
