<svg width="690" height="350" viewBox="0 0 690 350" fill="none" xmlns="http://www.w3.org/2000/svg">
<g clip-path="url(#clip0_3146_1797)">
<g style="mix-blend-mode:multiply" opacity="0.25">
<path d="M338.5 334.129C440.12 334.129 512 390.627 512 290.427C512 190.228 429.62 109 328 109C226.38 109 144 190.228 144 290.427C144 390.627 236.88 334.129 338.5 334.129Z" fill="#293ED6"/>
</g>
<path d="M191.368 329.431L233.494 228.855L226.757 226.172L188.422 328.267C188.278 328.469 188.181 328.701 188.14 328.946C188.099 329.191 188.114 329.441 188.184 329.679C188.254 329.917 188.378 330.136 188.545 330.319C188.712 330.502 188.919 330.645 189.15 330.736C189.381 330.827 189.629 330.864 189.877 330.845C190.124 330.826 190.364 330.75 190.578 330.625C190.791 330.499 190.974 330.326 191.111 330.119C191.248 329.912 191.336 329.677 191.368 329.431V329.431Z" fill="#723E24"/>
<path opacity="0.37" d="M225.569 229.352L229.866 231.06L190.273 330.679C190.771 330.424 191.158 329.997 191.362 329.478L233.487 228.902L226.751 226.219L225.569 229.352Z" fill="black"/>
<path d="M258.024 328.793L260.07 219.773H252.789L254.853 328.793C254.794 329.033 254.791 329.284 254.843 329.526C254.895 329.768 255.002 329.995 255.154 330.189C255.307 330.384 255.502 330.541 255.725 330.65C255.947 330.758 256.191 330.814 256.439 330.814C256.686 330.814 256.93 330.758 257.153 330.65C257.375 330.541 257.57 330.384 257.723 330.189C257.876 329.995 257.982 329.768 258.034 329.526C258.087 329.284 258.083 329.033 258.024 328.793V328.793Z" fill="#723E24"/>
<path opacity="0.37" d="M252.789 222.64H258.193L256.167 330.777H256.542C257.009 330.703 257.432 330.455 257.724 330.083C258.016 329.71 258.157 329.241 258.118 328.77L260.163 219.75H252.789V222.64Z" fill="black"/>
<path d="M321.493 329.431L279.367 228.855L286.122 226.172L324.457 328.267C324.595 328.47 324.685 328.701 324.721 328.943C324.757 329.186 324.738 329.433 324.666 329.667C324.593 329.901 324.469 330.116 324.302 330.295C324.136 330.474 323.931 330.614 323.703 330.703C323.475 330.793 323.229 330.83 322.985 330.812C322.741 330.794 322.504 330.721 322.292 330.599C322.079 330.476 321.897 330.308 321.759 330.106C321.621 329.904 321.53 329.673 321.493 329.431V329.431Z" fill="#723E24"/>
<g opacity="0.37">
<path opacity="0.37" d="M324.457 328.267L286.122 226.172L279.367 228.855L280.155 230.732L284.321 229.08L322.431 330.594C322.617 330.717 322.829 330.795 323.051 330.821C323.273 330.847 323.497 330.821 323.707 330.744C324.126 330.507 324.438 330.117 324.577 329.656C324.717 329.195 324.674 328.698 324.457 328.267V328.267Z" fill="black"/>
</g>
<path d="M304.529 228.667C297.173 234.653 286.271 240.17 258.594 240.714C222.173 241.427 203.109 237.299 192.751 218.516C175.469 187.142 197.085 85.7972 231.198 108.258C259.72 127.022 265.443 186.936 269.196 195.211C272.949 203.486 322.373 214.144 304.529 228.667Z" fill="#E8F6F7"/>
<path d="M264.902 232.941C228.481 233.673 209.416 229.526 199.059 210.743C187.275 189.333 193.598 135.33 209.66 110.336C189.114 129.382 179.506 194.474 192.773 218.511C203.13 237.275 222.195 241.422 258.616 240.709C286.293 240.165 297.195 234.648 304.551 228.663C305.559 227.994 306.42 227.126 307.081 226.113C307.743 225.1 308.191 223.963 308.397 222.771C301.004 227.987 289.671 232.453 264.902 232.941Z" fill="#D0E0E2"/>
<path d="M310.764 303.366C311.234 306.03 306.205 313.048 312.96 318.959C319.715 324.869 335.008 331.08 324.856 331.305C316.265 331.598 307.714 330.003 299.806 326.633C294.646 324.081 298.755 320.084 292.301 318.058C283.875 315.393 283.969 314.849 288.041 305.674C293.708 293.139 309.245 294.79 310.764 303.366Z" fill="#0A1828"/>
<path d="M320.537 312.357C321.719 314.646 327.348 319.863 335.173 323.428C342.997 326.993 359.566 328.569 350.334 331.628C341.102 334.686 330.407 332.847 324.984 331.984C319.316 331.19 313.593 330.845 307.871 330.952C299.427 330.952 299.352 330.37 300.497 320.838C302.054 307.722 316.727 304.945 320.537 312.357Z" fill="#132333"/>
<path d="M300.672 307.048L303.937 315.079C303.937 315.079 312.024 317.049 315.89 315.079C319.755 313.109 318.216 311.326 318.216 311.326L314.82 299.43L300.672 307.048Z" fill="#FFADAD"/>
<path d="M263.933 199.492C263.933 199.492 298.628 206.998 311.219 210.113C323.81 213.228 333.604 218.519 327.731 239.497C321.858 260.476 312.063 298.773 312.063 298.773H289.678L301.424 229.834L235.9 222.14L223.891 195.383L263.933 199.492Z" fill="#221C7D"/>
<path d="M212.82 199.494C214.321 210.302 211.15 222.743 227.925 227.641C244.701 232.538 270.933 232.895 270.933 232.895L297.203 311.704C302.687 312.27 308.23 311.708 313.49 310.053C317.243 308.908 318.5 304.217 318.5 304.217L294.726 223.719C293.81 220.623 292.105 217.818 289.78 215.578C287.455 213.338 284.588 211.74 281.459 210.94L241.135 198.688L212.82 199.494Z" fill="#2D24A3"/>
<path d="M218.859 163.219C220.475 167.404 220.834 171.969 219.891 176.354C218.015 185.117 220.154 185.736 220.154 185.736C227 190.048 234.292 193.608 241.902 196.357C248.976 198.571 255.036 198.233 254.849 190.371V190.258C254.849 189.789 254.849 189.339 254.849 188.889C254.511 171.325 258.17 170.443 259.071 150.779C260.009 130.588 254.605 119.33 249.276 114.451C243.947 109.573 236.61 109.404 222.875 112.575C212.554 115.014 209.158 117.754 209.252 125.391C209.368 128.543 209.738 131.68 210.359 134.773C212.362 144.484 215.206 154.002 218.859 163.219V163.219Z" fill="#31C5FF"/>
<path opacity="0.38" d="M218.859 163.226C220.475 167.411 220.834 171.976 219.891 176.361C218.014 185.124 220.153 185.743 220.153 185.743C227 190.055 234.291 193.615 241.901 196.364L251.133 195.501L254.886 192.592V190.266C254.886 189.796 254.886 189.346 254.886 188.896C250.239 189.254 245.567 189.135 240.944 188.539C236.27 187.956 231.683 186.81 227.284 185.124C226.12 184.684 225.146 183.85 224.533 182.767C223.919 181.683 223.704 180.42 223.925 179.195C224.676 175.151 225.103 171.054 225.201 166.942C224.704 161.789 223.601 156.713 221.917 151.818C220.813 148.206 220.393 144.419 220.679 140.653C220.954 136.411 220.954 132.155 220.679 127.912L213.361 123.953L209.289 125.473C209.405 128.625 209.775 131.763 210.396 134.855C212.391 144.539 215.222 154.032 218.859 163.226V163.226Z" fill="#61708E"/>
<path d="M252.036 78.4054C252.287 79.1613 252.376 79.9619 252.295 80.7544C252.214 81.5469 251.966 82.3132 251.567 83.0026L245.938 75.3281H249.897L252.036 78.4054Z" fill="#2E2E2E"/>
<path d="M221.272 88.6127C221.516 98.5014 230.053 104.224 230.053 104.224L229.49 113.231L235.232 116.984L239.191 119.536L241.443 114.807L241.762 109.009C241.799 108.351 242.052 107.723 242.483 107.224C242.915 106.725 243.499 106.383 244.145 106.251C246.323 105.717 248.287 104.532 249.774 102.855C249.902 102.712 250.021 102.562 250.131 102.404V102.404C253.884 97.3005 255.291 77.8045 242.494 72.2504C229.265 66.4335 221.009 78.6302 221.272 88.6127Z" fill="#FFB9B0"/>
<path d="M235.636 111.488L235.242 116.892L239.201 119.444L241.453 114.716L241.772 108.917C241.809 108.259 242.062 107.631 242.493 107.132C242.925 106.633 243.509 106.291 244.155 106.159C246.333 105.625 248.297 104.441 249.784 102.763C249.912 102.62 250.031 102.47 250.141 102.312C247.65 103.67 244.913 104.519 242.091 104.808C240.403 104.988 238.832 105.756 237.652 106.977C236.472 108.198 235.759 109.795 235.636 111.488V111.488Z" fill="#F29E9E"/>
<path d="M235.082 91.5917C234.575 91.7793 234.106 91.01 234.106 91.01C233.041 88.522 231.786 86.1194 230.353 83.8233C228.646 82.097 224.612 82.2471 224.293 87.5761C224.049 91.723 228.946 100.542 230.447 103.15C230.558 103.354 230.592 103.591 230.544 103.818C230.496 104.045 230.368 104.247 230.185 104.389C230.024 104.503 229.837 104.574 229.64 104.595V104.595C229.525 104.602 229.408 104.585 229.299 104.546C229.19 104.508 229.089 104.448 229.002 104.37C225.831 101.593 211.908 88.2517 222.96 75.6797C222.96 75.6797 231.742 76.2614 233.093 80.4833C234.044 83.7648 234.809 87.0977 235.382 90.4658C235.382 90.4658 235.607 91.3477 235.082 91.5917Z" fill="#2E2E2E"/>
<path d="M252.034 78.4012C252.034 78.4012 244.36 72.4155 232.689 79.6959L223.138 77.3504C223.138 77.3504 222.725 77.2191 222.95 75.7742C223.175 74.3294 224.207 60.2938 240.945 63.465C250.571 65.1913 256.538 71.8713 252.034 78.4012Z" fill="#2E2E2E"/>
<path d="M229.55 108.969C228.427 109.705 227.479 110.678 226.773 111.821C227.997 112.377 229.188 113.003 230.339 113.697C231.84 114.617 239.101 119.739 239.101 119.739L241.241 115.367C241.241 115.367 233.66 110.113 229.55 108.969Z" fill="#483A99"/>
<path d="M241.25 115.347C242.66 115.824 243.843 116.807 244.571 118.105C244.977 116.986 245.155 115.796 245.094 114.607C245.033 113.418 244.734 112.253 244.215 111.181C243.478 110.48 242.652 109.881 241.757 109.398L241.25 115.347Z" fill="#483A99"/>
<path d="M221.055 194.299C221.585 194.971 222.168 195.598 222.8 196.175C223.194 196.401 223.269 195.931 223.119 195.594C222.969 195.256 221.111 193.849 221.055 194.299Z" fill="#E5BB98"/>
<path d="M229.664 104.619C229.548 104.625 229.432 104.608 229.322 104.57C229.213 104.531 229.112 104.471 229.026 104.393C225.855 101.616 211.932 88.2751 222.984 75.7031C222.672 77.0173 222.564 78.3717 222.665 79.7186C222.665 79.7186 215.572 91.1085 229.664 104.619Z" fill="#2E2E2E"/>
<path d="M198.747 150.406C198.747 150.406 191.354 184.426 194.826 187.015C198.297 189.605 237.777 189.942 241.53 190.599C245.282 191.256 260.294 193.639 267.931 186.846C268.925 185.964 263.259 186.34 261.926 183.394C260.594 180.448 262.639 180.767 261.926 179.528C259.205 174.743 243.631 180.56 243.631 180.56C243.631 180.56 218.168 176.151 210.775 178.252C215.204 172.886 216.217 152.883 216.217 152.883L198.747 150.406Z" fill="#FFB9B0"/>
<path d="M196.719 152.155C196.719 152.155 201.672 120.969 211.092 116.766C220.512 112.563 227.173 126.035 223.702 139.865C220.23 153.694 219.348 158.779 219.348 158.779C219.348 158.779 205.219 160.186 196.719 152.155Z" fill="#31C5FF"/>
<path d="M191.983 345.908H185.266L190.576 191.93H204.011L191.983 345.908Z" fill="#252627"/>
<path d="M403.723 350.178H410.094L405.058 195.648H392.316L403.723 350.178Z" fill="#252627"/>
<g style="mix-blend-mode:multiply" opacity="0.2">
<path d="M189.922 211.032H202.513L204.014 191.93H190.579L189.922 211.032Z" fill="black"/>
</g>
<path d="M432.554 186.078H175.675C173.727 186.078 172.148 188.593 172.148 191.694V192.77C172.148 195.871 173.727 198.386 175.675 198.386H432.554C434.501 198.386 436.08 195.871 436.08 192.77V191.694C436.08 188.593 434.501 186.078 432.554 186.078Z" fill="#FFE7DB"/>
<path d="M172.148 194.281C172.356 195.46 172.798 196.498 173.408 197.239C174.018 197.979 174.763 198.381 175.529 198.383H432.642C433.418 198.401 434.176 198.009 434.798 197.267C435.419 196.525 435.87 195.475 436.08 194.281H172.148Z" fill="url(#paint0_linear_3146_1797)"/>
<path d="M316.953 186.055H219.886V185.586C219.886 185.003 220.118 184.445 220.529 184.033C220.941 183.621 221.499 183.39 222.082 183.39H316.953V186.055Z" fill="#9A9FB3"/>
<path d="M252.914 186.059H318.589L324.912 145.903C325.016 145.444 325.013 144.966 324.903 144.508C324.793 144.05 324.579 143.623 324.278 143.26C323.977 142.898 323.597 142.609 323.167 142.417C322.737 142.224 322.268 142.133 321.797 142.151H263.628C262.593 142.191 261.604 142.586 260.825 143.27C260.046 143.953 259.526 144.882 259.35 145.903L252.914 186.059Z" fill="#595555"/>
<path opacity="0.2" d="M263.496 142.188H265.372C264.338 142.226 263.349 142.62 262.573 143.304C261.797 143.988 261.281 144.919 261.112 145.94L254.658 186.058H252.875L259.18 145.903C259.364 144.883 259.894 143.957 260.679 143.28C261.465 142.604 262.459 142.218 263.496 142.188V142.188Z" fill="#212226"/>
<path opacity="0.2" d="M282.017 164.121C281.833 165.004 281.85 165.917 282.069 166.792C282.287 167.667 282.701 168.482 283.278 169.175C283.855 169.867 284.582 170.421 285.403 170.794C286.225 171.166 287.119 171.348 288.021 171.327C290.019 171.255 291.932 170.5 293.441 169.189C294.95 167.878 295.964 166.089 296.315 164.121C296.499 163.238 296.481 162.325 296.263 161.45C296.044 160.575 295.631 159.761 295.053 159.068C294.476 158.375 293.75 157.822 292.928 157.449C292.107 157.076 291.212 156.894 290.31 156.916C288.311 156.984 286.397 157.738 284.887 159.049C283.377 160.361 282.364 162.152 282.017 164.121V164.121Z" fill="#212226"/>
<path d="M289.984 130.478V128.602" stroke="#81A7E2" stroke-linecap="round" stroke-linejoin="round"/>
<path d="M404.272 188.294L357.79 190.629C354.734 190.784 352.132 188.326 351.983 185.145L351.905 183.436C351.757 180.254 354.117 177.544 357.172 177.39L403.843 175.038C406.898 174.884 409.5 177.341 409.649 180.523L409.719 182.036C409.876 185.332 407.437 188.131 404.272 188.294Z" fill="#8C98E9"/>
<path d="M397.369 200.715L366.899 202.245C363.789 202.399 361.147 199.901 360.991 196.663L360.921 195.149C360.772 191.911 363.171 189.16 366.282 188.998L396.752 187.468C399.862 187.313 402.503 189.811 402.66 193.05L402.73 194.563C402.878 197.802 400.479 200.552 397.369 200.715Z" fill="#8C98E9"/>
<path d="M375.089 157.216C408.827 157.216 436.177 128.738 436.177 93.6081C436.177 58.4783 408.827 30 375.089 30C341.35 30 314 58.4783 314 93.6081C314 128.738 341.35 157.216 375.089 157.216Z" fill="#F9CA51"/>
<path d="M350.086 149.53L359.917 173.022L402.281 170.426L411.448 140.352L350.086 149.53Z" fill="#F9CA51"/>
<path d="M368.962 170.942C365.672 160.477 362.905 149.834 360.694 139.06C358.459 128.189 356.56 117.082 355.7 105.999C355.333 101.223 355.77 95.2011 360.201 92.4751C364.023 90.1235 369.032 91.7916 371.924 94.9407C375.104 98.4152 376.503 103.59 376.73 108.294C376.855 110.792 376.48 113.518 374.635 115.3C372.994 116.887 370.462 117.367 368.751 115.617C365.992 112.794 366.774 107.447 367.727 104.014C368.97 99.5382 371.814 95.5428 376.3 94.306C380.614 93.118 385.326 94.4769 388.725 97.4062C392.195 100.393 394.407 104.746 395.509 109.238C396.134 111.768 396.532 114.738 395.001 117.017C393.524 119.214 390.867 119.531 388.929 117.757C387.022 116.008 386.631 113.135 386.662 110.629C386.686 108.489 387.077 106.357 387.827 104.372C389.288 100.498 392.305 97.1703 396.329 96.3647C399.908 95.6405 404.152 96.8773 406.215 100.181C408.982 104.608 407.036 110.239 405.285 114.649C403.331 119.556 401.393 124.438 399.776 129.475C396.509 139.605 394.157 150.062 392.766 160.656C392.43 163.195 392.156 165.734 391.93 168.289C391.875 168.94 392.852 168.94 392.906 168.289C393.993 156.059 396.345 143.967 399.924 132.258C401.714 126.407 403.894 120.752 406.16 115.088C408.028 110.426 409.951 104.616 407.192 99.8881C405.152 96.3891 400.987 94.8186 397.189 95.2173C392.985 95.6567 389.562 98.5373 387.639 102.378C385.623 106.406 384.748 112.151 386.725 116.374C387.647 118.343 389.538 119.971 391.719 119.995C393.813 120.019 395.563 118.433 396.4 116.52C397.517 113.957 397.001 110.971 396.298 108.367C395.649 105.975 394.712 103.656 393.438 101.556C390.953 97.4306 387.147 94.1758 382.497 93.2075C377.902 92.2473 373.072 93.5574 369.985 97.3411C367.172 100.791 365.742 105.812 365.945 110.312C366.117 114.112 368.297 118.896 372.736 117.603C377.824 116.122 378.089 109.872 377.394 105.413C376.636 100.531 374.706 95.3719 370.626 92.4914C367.102 90.0096 362.092 89.4644 358.654 92.3938C354.418 95.9985 354.34 102.207 354.848 107.382C355.442 113.485 356.278 119.564 357.247 125.618C359.24 138.011 361.952 150.281 365.367 162.333C366.211 165.319 367.102 168.281 368.032 171.235C368.211 171.829 369.157 171.568 368.962 170.942Z" fill="#2C2C2C"/>
<path d="M407.712 175.762L354.532 178.431C351.421 178.586 348.78 176.088 348.624 172.849L348.553 171.336C348.405 168.097 350.804 165.347 353.914 165.184L407.086 162.507C410.197 162.352 412.838 164.85 412.995 168.089L413.065 169.602C413.221 172.849 410.822 175.599 407.712 175.762Z" fill="#8C98E9"/>
<path d="M353.766 178.866C367.661 178.231 381.563 177.596 395.458 176.962C399.404 176.783 403.343 176.604 407.29 176.416C407.915 176.384 407.923 175.367 407.29 175.399C393.395 176.034 379.492 176.669 365.597 177.303C361.651 177.482 357.712 177.661 353.766 177.849C353.141 177.873 353.141 178.89 353.766 178.866Z" fill="#2C2C2C"/>
<path d="M361.956 191.211C375.257 190.446 388.55 189.681 401.851 188.916C402.476 188.884 402.484 187.867 401.851 187.899C388.55 188.664 375.257 189.429 361.956 190.194C361.331 190.226 361.323 191.244 361.956 191.211Z" fill="#2C2C2C"/>
<path d="M411.445 54.3359C419.009 58.966 423.675 67.1845 426.324 75.6797C429.356 85.371 430.153 95.7215 428.223 105.738C427.129 111.41 425.214 116.87 422.55 121.948C422.245 122.525 423.089 123.038 423.394 122.46C428.231 113.257 430.63 102.728 430.224 92.2388C429.849 82.4742 427.262 72.1888 422.135 63.9215C419.517 59.6902 416.11 56.0122 411.929 53.4571C411.398 53.1235 410.905 54.0023 411.445 54.3359Z" fill="white"/>
<g opacity="0.3">
<path opacity="0.3" d="M356.23 43.3734C364.185 44.0651 365.24 50.8189 364.388 56.6207C363.536 62.4225 359.692 67.2153 355.776 71.4466C351.869 75.6779 347.618 79.8604 345.554 85.3204C344.288 88.6811 343.929 92.3347 342.897 95.7767C341.866 99.2187 339.912 102.677 336.7 104.02C332.887 105.623 328.323 103.653 325.775 100.301C323.227 96.9403 322.352 92.5218 322.157 88.2417C321.25 68.5498 331.535 49.6472 349.689 44.0814C349.689 44.0895 354.252 43.2026 356.23 43.3734Z" fill="white"/>
</g>
<path d="M319.441 90.1659C318.261 99.8898 319.698 109.882 323.528 118.833C327.052 127.068 332.64 134.229 339.548 139.648C343.417 142.683 347.691 145.116 352.224 146.906C352.81 147.142 353.068 146.158 352.482 145.922C336.149 139.453 324.02 124.301 320.847 106.416C319.894 101.053 319.761 95.5608 320.417 90.1578C320.503 89.5149 319.519 89.5231 319.441 90.1659Z" fill="white"/>
</g>
<defs>
<linearGradient id="paint0_linear_3146_1797" x1="304.08" y1="175.236" x2="304.08" y2="219.516" gradientUnits="userSpaceOnUse">
<stop stop-color="#FFE7DB"/>
<stop offset="0.24" stop-color="#FDE4D8"/>
<stop offset="0.41" stop-color="#F5DBD0"/>
<stop offset="0.56" stop-color="#E8CBC2"/>
<stop offset="0.69" stop-color="#D6B5AE"/>
<stop offset="0.82" stop-color="#BE9994"/>
<stop offset="0.94" stop-color="#A27674"/>
<stop offset="1" stop-color="#916262"/>
</linearGradient>
<clipPath id="clip0_3146_1797">
<rect width="690" height="350" fill="white"/>
</clipPath>
</defs>
</svg>
