<svg width="690" height="350" viewBox="0 0 690 350" fill="none" xmlns="http://www.w3.org/2000/svg">
<g clip-path="url(#clip0_2601_6535)">
<path d="M544.901 333.492H511.781V333.742H544.901V333.492Z" fill="#EBEBEB"/>
<path d="M426.221 336.211H417.531V336.461H426.221V336.211Z" fill="#EBEBEB"/>
<path d="M510.784 324.211H491.594V324.461H510.784V324.211Z" fill="#EBEBEB"/>
<path d="M190.651 325.891H147.461V326.141H190.651V325.891Z" fill="#EBEBEB"/>
<path d="M205.893 325.891H199.562V326.141H205.893V325.891Z" fill="#EBEBEB"/>
<path d="M320.149 330.109H226.469V330.359H320.149V330.109Z" fill="#EBEBEB"/>
<path d="M332.001 272.8H138.921C137.407 272.8 135.954 272.198 134.883 271.128C133.813 270.057 133.211 268.604 133.211 267.09V-4.34C133.224 -5.84571 133.832 -7.28525 134.901 -8.34529C135.97 -9.40534 137.415 -10.0001 138.921 -10H332.001C333.515 -10 334.968 -9.39841 336.039 -8.32758C337.109 -7.25675 337.711 -5.80439 337.711 -4.29V267.09C337.711 268.604 337.109 270.057 336.039 271.128C334.968 272.198 333.515 272.8 332.001 272.8ZM138.921 -9.8C137.474 -9.79736 136.086 -9.22126 135.063 -8.19788C134.04 -7.17451 133.464 -5.78727 133.461 -4.34V267.09C133.464 268.537 134.04 269.924 135.063 270.948C136.086 271.971 137.474 272.547 138.921 272.55H332.001C333.448 272.547 334.835 271.971 335.859 270.948C336.882 269.924 337.458 268.537 337.461 267.09V-4.34C337.458 -5.78727 336.882 -7.17451 335.859 -8.19788C334.835 -9.22126 333.448 -9.79736 332.001 -9.8H138.921Z" fill="#EBEBEB"/>
<path d="M548.31 272.8H355.21C353.696 272.797 352.246 272.195 351.175 271.125C350.105 270.054 349.503 268.604 349.5 267.09V-4.34C349.516 -5.84489 350.124 -7.28292 351.193 -8.34241C352.262 -9.40189 353.705 -9.99745 355.21 -10H548.31C549.812 -9.9948 551.252 -9.39775 552.317 -8.33827C553.382 -7.27879 553.987 -5.84225 554 -4.34V267.09C554 268.601 553.401 270.05 552.335 271.121C551.268 272.191 549.821 272.795 548.31 272.8ZM355.21 -9.8C353.763 -9.79736 352.375 -9.22126 351.352 -8.19788C350.329 -7.17451 349.753 -5.78727 349.75 -4.34V267.09C349.753 268.537 350.329 269.924 351.352 270.948C352.375 271.971 353.763 272.547 355.21 272.55H548.31C549.757 272.547 551.145 271.971 552.168 270.948C553.191 269.924 553.767 268.537 553.77 267.09V-4.34C553.767 -5.78727 553.191 -7.17451 552.168 -8.19788C551.145 -9.22126 549.757 -9.79736 548.31 -9.8H355.21Z" fill="#EBEBEB"/>
<path d="M595 317.398H95V317.648H595V317.398Z" fill="#EBEBEB"/>
<path d="M275.737 222.883H194.867V311.223H275.737V222.883Z" fill="#EBEBEB"/>
<path d="M201.767 200.141H194.867V218.131H201.767V200.141Z" fill="#E6E6E6"/>
<path d="M201.773 218.141H203.133V200.151H201.773V218.141Z" fill="#E0E0E0"/>
<path d="M196.59 210.117C198.197 210.117 199.5 208.814 199.5 207.207C199.5 205.6 198.197 204.297 196.59 204.297C194.983 204.297 193.68 205.6 193.68 207.207C193.68 208.814 194.983 210.117 196.59 210.117Z" fill="#E0E0E0"/>
<path d="M198.938 212.25H197.438V215.89H198.938V212.25Z" fill="#E0E0E0"/>
<path d="M198.093 207.211C198.093 208.015 197.855 208.801 197.409 209.47C196.962 210.139 196.328 210.66 195.585 210.969C194.843 211.278 194.025 211.359 193.236 211.204C192.447 211.048 191.722 210.663 191.152 210.096C190.582 209.528 190.193 208.805 190.034 208.017C189.874 207.229 189.952 206.411 190.257 205.667C190.562 204.923 191.081 204.286 191.747 203.836C192.414 203.387 193.199 203.145 194.003 203.141C194.539 203.138 195.071 203.241 195.567 203.445C196.063 203.648 196.514 203.947 196.894 204.326C197.274 204.704 197.576 205.153 197.781 205.649C197.987 206.144 198.093 206.674 198.093 207.211Z" fill="#EBEBEB"/>
<path d="M497.158 253.781H337.898V306.111H497.158V253.781Z" fill="#EBEBEB"/>
<path d="M350.666 309.656H340.656V317.216H350.666V309.656Z" fill="#E6E6E6"/>
<path d="M509.307 247.398H499.297V317.218H509.307V247.398Z" fill="#E6E6E6"/>
<path d="M496.75 247.398H335.32V317.218H340.66V311.438H494.08V317.218H499.42V247.398H496.75ZM340.66 256.738H414.66V302.098H340.66V256.738ZM420.04 256.738H494.04V302.098H420L420.04 256.738Z" fill="#F5F5F5"/>
<path d="M206.263 273.826H194.503C191.52 273.812 188.65 272.681 186.459 270.656C184.267 268.631 182.913 265.859 182.663 262.886L180.523 235.756L185.003 235.406L187.143 262.536C187.301 264.388 188.145 266.114 189.511 267.374C190.877 268.634 192.665 269.338 194.523 269.346H206.283L206.263 273.826Z" fill="#263238"/>
<path d="M200.319 238.649C201.675 238.508 202.919 237.835 203.78 236.777C204.64 235.72 205.046 234.365 204.909 233.009L201.349 198.279C201.281 197.608 201.08 196.958 200.76 196.365C200.44 195.772 200.006 195.248 199.483 194.822C198.961 194.397 198.359 194.079 197.713 193.886C197.067 193.693 196.39 193.63 195.719 193.699H161.719C161.271 193.744 160.836 193.877 160.44 194.09C160.043 194.304 159.692 194.594 159.408 194.943C159.124 195.293 158.911 195.695 158.783 196.126C158.654 196.558 158.612 197.011 158.659 197.459L162.559 235.579C162.604 236.028 162.737 236.463 162.951 236.86C163.164 237.257 163.454 237.608 163.803 237.893C164.152 238.179 164.554 238.392 164.986 238.522C165.418 238.651 165.871 238.695 166.319 238.649H200.319Z" fill="#5A72EB"/>
<path opacity="0.3" d="M200.319 238.649C201.675 238.508 202.919 237.835 203.78 236.777C204.64 235.72 205.046 234.365 204.909 233.009L201.349 198.279C201.281 197.608 201.08 196.958 200.76 196.365C200.44 195.772 200.006 195.248 199.483 194.822C198.961 194.397 198.359 194.079 197.713 193.886C197.067 193.693 196.39 193.63 195.719 193.699H161.719C161.271 193.744 160.836 193.877 160.44 194.09C160.043 194.304 159.692 194.594 159.408 194.943C159.124 195.293 158.911 195.695 158.783 196.126C158.654 196.558 158.612 197.011 158.659 197.459L162.559 235.579C162.604 236.028 162.737 236.463 162.951 236.86C163.164 237.257 163.454 237.608 163.803 237.893C164.152 238.179 164.554 238.392 164.986 238.522C165.418 238.651 165.871 238.695 166.319 238.649H200.319Z" fill="black"/>
<path d="M162.552 235.579L158.652 197.459C158.604 197.011 158.646 196.558 158.775 196.126C158.903 195.695 159.116 195.293 159.4 194.943C159.685 194.594 160.035 194.304 160.432 194.09C160.828 193.877 161.263 193.744 161.712 193.699C162.382 193.63 163.059 193.693 163.705 193.886C164.351 194.079 164.953 194.397 165.476 194.822C165.998 195.248 166.432 195.772 166.752 196.365C167.073 196.958 167.273 197.608 167.341 198.279L170.902 232.999C171.039 234.355 170.632 235.71 169.772 236.767C168.912 237.825 167.667 238.498 166.312 238.639C165.407 238.731 164.503 238.461 163.798 237.887C163.093 237.313 162.645 236.483 162.552 235.579Z" fill="#5A72EB"/>
<path d="M201.002 339.575L201.302 338.655C201.489 338.074 201.854 337.568 202.347 337.208C202.839 336.849 203.433 336.655 204.042 336.655H235.842C236.499 336.655 237.137 336.879 237.649 337.29C238.162 337.7 238.519 338.274 238.662 338.915L238.742 339.285C238.879 339.906 239.225 340.463 239.721 340.861C240.218 341.259 240.836 341.476 241.472 341.475C241.891 341.476 242.305 341.383 242.683 341.202C243.061 341.021 243.393 340.758 243.655 340.432C243.918 340.105 244.103 339.723 244.198 339.315C244.292 338.907 244.294 338.483 244.202 338.075L244.122 337.715C243.708 335.827 242.661 334.138 241.155 332.927C239.649 331.716 237.775 331.055 235.842 331.055H204.042C202.268 331.066 200.541 331.633 199.106 332.677C197.67 333.721 196.599 335.189 196.042 336.875L195.732 337.805C195.595 338.225 195.559 338.672 195.628 339.109C195.696 339.546 195.867 339.96 196.127 340.318C196.386 340.676 196.727 340.967 197.121 341.168C197.514 341.37 197.95 341.474 198.392 341.475C198.97 341.466 199.531 341.279 199.999 340.939C200.466 340.599 200.817 340.122 201.002 339.575Z" fill="#263238"/>
<path opacity="0.7" d="M224.629 331.07H214.789V336.66H224.629V331.07Z" fill="black"/>
<path d="M219.714 340.867C218.971 340.867 218.259 340.572 217.734 340.046C217.209 339.521 216.914 338.809 216.914 338.067V263.727H222.504V338.067C222.504 338.807 222.21 339.518 221.688 340.043C221.165 340.568 220.455 340.864 219.714 340.867Z" fill="#263238"/>
<path d="M223.621 345.933C223.623 346.71 223.395 347.469 222.965 348.115C222.535 348.761 221.923 349.265 221.206 349.563C220.489 349.861 219.7 349.94 218.939 349.789C218.178 349.638 217.478 349.264 216.929 348.715C216.381 348.166 216.007 347.467 215.856 346.706C215.705 345.944 215.784 345.155 216.082 344.439C216.379 343.722 216.883 343.11 217.53 342.68C218.176 342.25 218.935 342.021 219.711 342.023C220.747 342.026 221.74 342.439 222.473 343.172C223.206 343.904 223.619 344.897 223.621 345.933Z" fill="#5A72EB"/>
<path d="M199.481 345.933C199.483 346.709 199.254 347.468 198.825 348.114C198.395 348.76 197.784 349.264 197.068 349.562C196.352 349.86 195.563 349.939 194.802 349.789C194.041 349.639 193.342 349.267 192.792 348.719C192.243 348.171 191.869 347.473 191.717 346.712C191.565 345.951 191.642 345.163 191.938 344.446C192.234 343.729 192.737 343.116 193.382 342.685C194.027 342.254 194.785 342.023 195.561 342.023C196.598 342.026 197.592 342.439 198.326 343.171C199.06 343.903 199.475 344.896 199.481 345.933Z" fill="#5A72EB"/>
<path d="M248.199 345.933C248.201 346.71 247.973 347.469 247.543 348.115C247.113 348.761 246.501 349.265 245.784 349.563C245.067 349.861 244.278 349.94 243.517 349.789C242.756 349.638 242.056 349.264 241.508 348.715C240.959 348.166 240.585 347.467 240.434 346.706C240.283 345.944 240.362 345.155 240.66 344.439C240.958 343.722 241.462 343.11 242.108 342.68C242.754 342.25 243.513 342.021 244.289 342.023C245.326 342.026 246.319 342.439 247.051 343.172C247.784 343.904 248.197 344.897 248.199 345.933Z" fill="#5A72EB"/>
<path opacity="0.7" d="M222.504 268.055H216.914V281.285H222.504V268.055Z" fill="black"/>
<path d="M237.861 274.422H201.001C199.499 274.419 198.042 273.904 196.872 272.963C195.701 272.021 194.886 270.709 194.561 269.242L193.461 264.242H246.001L244.141 269.882C243.707 271.204 242.865 272.356 241.737 273.171C240.609 273.986 239.253 274.424 237.861 274.422Z" fill="#263238"/>
<path opacity="0.5" d="M237.861 274.422H201.001C199.499 274.419 198.042 273.904 196.872 272.963C195.701 272.021 194.886 270.709 194.561 269.242L193.461 264.242H246.001L244.141 269.882C243.707 271.204 242.865 272.356 241.737 273.171C240.609 273.986 239.253 274.424 237.861 274.422Z" fill="white"/>
<path d="M192.299 259.195H247.109C247.712 259.195 248.308 259.314 248.865 259.545C249.422 259.775 249.928 260.113 250.354 260.54C250.781 260.966 251.119 261.472 251.349 262.029C251.58 262.586 251.699 263.183 251.699 263.785V265.095C251.699 265.907 251.376 266.685 250.802 267.259C250.229 267.833 249.45 268.155 248.639 268.155H190.779C190.377 268.155 189.979 268.076 189.608 267.922C189.236 267.769 188.899 267.543 188.615 267.259C188.331 266.975 188.105 266.638 187.952 266.266C187.798 265.895 187.719 265.497 187.719 265.095V263.785C187.719 262.57 188.201 261.404 189.06 260.543C189.918 259.683 191.083 259.198 192.299 259.195Z" fill="#5A72EB"/>
<path d="M258.381 237.1C258.381 237.1 281.381 235.95 283.041 243.63C284.701 251.31 281.201 341.63 281.201 341.63L273.951 342.08C273.951 342.08 261.401 269.72 267.571 257.32L249.281 257.57L258.381 237.1Z" fill="#FF8B7B"/>
<g style="mix-blend-mode:multiply" opacity="0.1">
<path d="M282.584 301.004C278.094 300.954 273.054 301.064 268.094 301.274C268.604 305.714 269.164 310.124 269.734 314.274C273.969 313.472 278.153 312.42 282.264 311.124C282.374 307.894 282.474 304.484 282.584 301.004Z" fill="black"/>
</g>
<path d="M283.002 341.354C282.964 341.35 282.929 341.334 282.901 341.309C282.872 341.284 282.852 341.251 282.842 341.214C282.832 341.177 282.834 341.137 282.849 341.101C282.863 341.065 282.889 341.035 282.922 341.014C283.032 340.934 285.672 339.164 287.012 339.434C287.261 339.481 287.482 339.621 287.632 339.824C287.725 339.936 287.782 340.073 287.794 340.218C287.807 340.363 287.775 340.508 287.702 340.634C287.068 341.165 286.258 341.439 285.432 341.404C284.622 341.463 283.809 341.446 283.002 341.354ZM283.592 341.064C285.072 341.134 287.052 340.984 287.382 340.444C287.382 340.374 287.472 340.264 287.312 340.034C287.272 339.968 287.216 339.913 287.15 339.873C287.084 339.833 287.009 339.809 286.932 339.804C286.812 339.789 286.692 339.789 286.572 339.804C285.49 340.023 284.461 340.451 283.542 341.064H283.592Z" fill="#5A72EB"/>
<path d="M282.848 341.355C282.82 341.338 282.797 341.315 282.781 341.287C282.765 341.259 282.757 341.227 282.758 341.195C282.758 341.095 282.818 338.955 283.758 338.055C283.89 337.926 284.047 337.825 284.218 337.758C284.39 337.691 284.574 337.66 284.758 337.665C285.268 337.665 285.448 337.925 285.488 338.135C285.718 339.015 283.948 340.855 283.038 341.335C283.012 341.345 282.984 341.345 282.958 341.335L282.848 341.355ZM284.678 338.025C284.44 338.035 284.215 338.135 284.048 338.305C283.509 339.026 283.206 339.895 283.178 340.795C284.108 340.145 285.258 338.725 285.178 338.195C285.178 338.145 285.178 338.015 284.788 338.005H284.688L284.678 338.025Z" fill="#5A72EB"/>
<path d="M282.075 340.315L273.485 340.935C273.327 340.945 273.177 341.009 273.06 341.116C272.944 341.224 272.868 341.368 272.845 341.525L271.795 348.625C271.771 348.777 271.778 348.933 271.816 349.083C271.854 349.233 271.921 349.374 272.015 349.497C272.108 349.621 272.225 349.724 272.359 349.801C272.493 349.877 272.642 349.926 272.795 349.945C272.878 349.955 272.962 349.955 273.045 349.945C276.135 349.665 278.885 349.295 282.735 349.025C287.285 348.695 286.175 349.325 291.535 349.025C294.755 348.835 295.085 345.125 293.705 345.025C287.385 344.695 286.605 342.845 284.025 340.785C283.457 340.388 282.761 340.22 282.075 340.315Z" fill="#263238"/>
<path d="M244.368 237.844C244.368 237.844 267.428 238.944 268.688 246.704C269.948 254.464 260.988 342.184 260.988 342.184L253.718 342.284C253.718 342.284 244.668 269.404 251.428 257.284L233.148 256.654L244.368 237.844Z" fill="#FF8B7B"/>
<g style="mix-blend-mode:multiply" opacity="0.1">
<path d="M263.694 314.716C264.104 310.436 264.534 305.896 264.964 301.266C259.464 301.266 254.114 301.266 249.844 301.376C250.164 306.256 250.554 311.086 250.954 315.636C253.564 315.586 258.164 315.386 263.694 314.716Z" fill="black"/>
</g>
<path d="M262.591 342.072C262.554 342.065 262.52 342.047 262.494 342.02C262.467 341.994 262.449 341.959 262.442 341.922C262.434 341.886 262.437 341.849 262.452 341.815C262.466 341.781 262.49 341.752 262.522 341.732C262.642 341.652 265.351 340.002 266.671 340.322C266.921 340.379 267.139 340.529 267.281 340.742C267.364 340.861 267.408 341.003 267.408 341.147C267.408 341.292 267.364 341.433 267.281 341.552C266.619 342.05 265.797 342.288 264.972 342.222C264.175 342.24 263.379 342.19 262.591 342.072ZM263.192 341.802C264.672 341.942 266.651 341.872 267.011 341.342C267.061 341.282 267.101 341.162 267.011 340.932C266.969 340.866 266.913 340.81 266.848 340.767C266.783 340.724 266.709 340.695 266.632 340.682C266.512 340.668 266.391 340.668 266.272 340.682C265.183 340.858 264.138 341.238 263.192 341.802Z" fill="#5A72EB"/>
<path d="M262.495 342.073C262.468 342.054 262.446 342.029 262.432 341.999C262.418 341.969 262.412 341.936 262.415 341.903C262.415 341.803 262.565 339.663 263.545 338.813C263.68 338.692 263.838 338.598 264.01 338.538C264.181 338.478 264.363 338.453 264.545 338.463C265.055 338.463 265.225 338.753 265.255 338.963C265.445 339.843 263.605 341.613 262.675 342.063C262.649 342.073 262.62 342.073 262.595 342.063L262.495 342.073ZM264.495 338.813C264.261 338.823 264.038 338.915 263.865 339.073C263.288 339.768 262.939 340.623 262.865 341.523C263.865 340.913 265.025 339.523 264.965 339.003C264.965 338.953 264.965 338.823 264.585 338.803L264.495 338.813Z" fill="#5A72EB"/>
<path d="M261.751 341.001L253.141 341.271C252.983 341.275 252.832 341.333 252.712 341.434C252.592 341.536 252.51 341.676 252.481 341.831L251.141 348.881C251.11 349.03 251.109 349.184 251.139 349.333C251.168 349.482 251.227 349.624 251.311 349.751C251.396 349.877 251.505 349.986 251.632 350.07C251.759 350.154 251.901 350.212 252.051 350.241C252.13 350.25 252.211 350.25 252.291 350.241C255.391 350.091 258.151 349.841 262.011 349.721C266.581 349.591 265.441 350.171 270.801 350.081C274.031 350.021 274.511 346.331 273.141 346.191C266.841 345.601 266.141 343.721 263.641 341.551C263.099 341.143 262.427 340.947 261.751 341.001Z" fill="#263238"/>
<path d="M194.363 221.523C193.859 224.364 193.116 227.157 192.143 229.873C189.203 238.303 188.543 251.873 194.483 256.743C203.843 264.383 239.913 255.653 245.143 261.273C249.503 265.963 247.143 310.403 247.143 310.403C260.114 309.857 273.047 308.645 285.893 306.773C285.893 306.773 283.893 295.173 284.773 272.923C285.653 250.673 287.833 238.743 274.313 237.213C260.793 235.683 236.693 231.073 233.703 226.473C231.703 223.383 232.633 221.613 232.633 221.613L194.363 221.523Z" fill="#263238"/>
<path opacity="0.5" d="M274.441 308.316C273.601 304.316 272.571 294.426 274.031 270.936C274.971 255.816 278.151 239.836 265.031 239.836C267.114 240.258 268.98 241.402 270.3 243.068C271.619 244.733 272.307 246.812 272.241 248.936C272.241 255.696 268.681 297.476 267.681 309.006C269.881 308.806 272.141 308.576 274.441 308.316Z" fill="black"/>
<path opacity="0.5" d="M233.51 226.093C231.81 223.243 232.67 221.613 232.67 221.613L194.36 221.523C193.986 223.645 193.472 225.74 192.82 227.793C197.76 228.223 207.99 228.923 214.34 228.573C223.23 228.093 234.81 231.073 234.81 231.073C234.81 231.073 230.71 228.053 233.51 226.093Z" fill="black"/>
<path d="M246.689 145.64C246.689 145.64 244.219 151.77 246.009 161.22C247.449 168.78 234.419 165.65 230.139 161.22C225.859 156.79 243.469 145 243.469 145L246.689 145.64Z" fill="#263238"/>
<path opacity="0.4" d="M246.689 145.64C246.689 145.64 244.219 151.77 246.009 161.22C247.449 168.78 234.419 165.65 230.139 161.22C225.859 156.79 243.469 145 243.469 145L246.689 145.64Z" fill="black"/>
<path d="M247.773 209.505L253.143 210.955C253.143 210.955 260.313 206.955 262.813 207.495C264.183 207.805 266.243 210.075 267.743 211.915C267.943 212.176 268.076 212.481 268.131 212.806C268.185 213.13 268.158 213.462 268.054 213.773C267.949 214.085 267.769 214.366 267.53 214.591C267.291 214.816 267 214.979 266.683 215.065C266.356 215.157 266.01 215.157 265.683 215.065L262.003 214.005C262.003 214.005 257.893 215.835 256.273 215.935C253.433 216.115 245.633 213.935 245.633 213.935L247.773 209.505Z" fill="#FF8B7B"/>
<path d="M238.421 166.006C240.711 166.366 245.201 168.836 240.351 189.126C239.591 192.336 238.231 198.436 239.281 201.566C241.171 207.216 251.431 209.746 251.431 209.746L250.271 215.496C250.271 215.496 231.271 211.416 229.361 204.806C227.491 198.426 228.201 164.426 238.421 166.006Z" fill="#5A72EB"/>
<path opacity="0.6" d="M238.421 166.006C240.711 166.366 245.201 168.836 240.351 189.126C239.591 192.336 238.231 198.436 239.281 201.566C241.171 207.216 251.431 209.746 251.431 209.746L250.271 215.496C250.271 215.496 231.271 211.416 229.361 204.806C227.491 198.426 228.201 164.426 238.421 166.006Z" fill="white"/>
<path d="M193.125 223.383C206.399 225.165 219.851 225.165 233.125 223.383C233.125 223.383 231.715 214.863 234.455 200.703C234.795 198.973 237.585 188.703 238.085 187.013C243.485 168.833 246.465 164.223 221.695 162.453C200.405 160.943 197.165 166.273 196.615 178.853C196.065 191.433 193.125 223.383 193.125 223.383Z" fill="#5A72EB"/>
<path opacity="0.4" d="M193.125 223.383C206.399 225.165 219.851 225.165 233.125 223.383C233.125 223.383 231.715 214.863 234.455 200.703C234.795 198.973 237.585 188.703 238.085 187.013C243.485 168.833 246.465 164.223 221.695 162.453C200.405 160.943 197.165 166.273 196.615 178.853C196.065 191.433 193.125 223.383 193.125 223.383Z" fill="white"/>
<path d="M215.37 209.001L220.81 211.391C220.81 211.391 228.06 207.321 230.6 207.891C232.22 208.261 235.28 212.621 235.28 212.621C235.513 212.84 235.681 213.119 235.768 213.428C235.854 213.736 235.854 214.062 235.769 214.371C235.684 214.679 235.516 214.959 235.283 215.179C235.051 215.399 234.762 215.552 234.45 215.621C234.152 215.7 233.838 215.7 233.54 215.621L229.76 214.541C229.76 214.541 225.59 216.391 223.95 216.491C221.08 216.681 213.18 213.561 213.18 213.561L215.37 209.001Z" fill="#FF8B7B"/>
<path d="M218.37 161.63C215.37 162.41 213.62 164.52 214.77 172.55C215.038 172.178 215.39 171.875 215.798 171.666C216.206 171.458 216.657 171.349 217.115 171.349C217.573 171.349 218.025 171.458 218.432 171.666C218.84 171.875 219.192 172.178 219.46 172.55C221.88 175.36 226.21 179.97 226.21 179.97C228.347 178.04 230.351 175.968 232.21 173.77C234.51 170.88 235.87 174.24 235.87 174.24C235.87 174.24 237.8 165.24 233.04 163.24C228.68 161.42 222 160.69 218.37 161.63Z" fill="#5A72EB"/>
<path opacity="0.6" d="M218.37 161.63C215.37 162.41 213.62 164.52 214.77 172.55C215.038 172.178 215.39 171.875 215.798 171.666C216.206 171.458 216.657 171.349 217.115 171.349C217.573 171.349 218.025 171.458 218.432 171.666C218.84 171.875 219.192 172.178 219.46 172.55C221.88 175.36 226.21 179.97 226.21 179.97C228.347 178.04 230.351 175.968 232.21 173.77C234.51 170.88 235.87 174.24 235.87 174.24C235.87 174.24 237.8 165.24 233.04 163.24C228.68 161.42 222 160.69 218.37 161.63Z" fill="white"/>
<path opacity="0.1" d="M196.601 178.853C196.291 185.853 195.261 198.763 194.391 208.853C235.391 225.363 209.531 206.643 209.531 206.643C209.531 206.643 201.321 201.043 205.171 187.643C209.021 174.243 207.851 165.863 207.851 165.863L206.541 163.023C198.631 165.003 197.001 170.203 196.601 178.853Z" fill="black"/>
<path d="M204.402 163.795C209.722 163.515 211.402 165.665 203.562 185.045C202.312 188.135 200.292 194.465 201.352 197.635C203.272 203.355 220.152 210.155 220.152 210.155L217.682 215.885C217.682 215.885 189.502 206.505 190.192 199.795C190.882 193.085 195.672 164.265 204.402 163.795Z" fill="#5A72EB"/>
<path opacity="0.6" d="M204.402 163.795C209.722 163.515 211.402 165.665 203.562 185.045C202.312 188.135 200.292 194.465 201.352 197.635C203.272 203.355 220.152 210.155 220.152 210.155L217.682 215.885C217.682 215.885 189.502 206.505 190.192 199.795C190.882 193.085 195.672 164.265 204.402 163.795Z" fill="white"/>
<path d="M226.61 177.77C226.61 177.77 237.48 168.44 233.33 164.77C231.24 162.91 224.8 161.23 219.14 162.53C217.78 162.83 216.54 166.83 226.61 177.77Z" fill="#FF8B7B"/>
<path d="M233.249 168.243C233.237 167.233 233.117 166.228 232.889 165.243C231.889 164.733 230.159 162.843 232.029 159.883L225.999 149.273C224.859 154.093 223.869 161.853 219.419 163.403C219.419 163.403 218.019 167.053 224.419 174.933L233.249 168.243Z" fill="#FF8B7B"/>
<path opacity="0.2" d="M226.003 149.273C225.623 150.883 225.253 152.823 224.773 154.753C224.85 156.859 225.559 158.894 226.807 160.592C228.056 162.289 229.786 163.572 231.773 164.273C231.113 163.343 230.773 161.863 232.013 159.913L226.003 149.273Z" fill="black"/>
<path d="M224.755 140.145C223.445 148.325 222.755 151.745 225.865 156.795C230.605 164.395 240.935 164.205 244.665 156.595C248.015 149.735 249.605 137.475 242.405 132.545C240.827 131.443 238.994 130.762 237.079 130.566C235.164 130.371 233.231 130.668 231.463 131.429C229.695 132.19 228.151 133.391 226.977 134.916C225.803 136.442 225.038 138.242 224.755 140.145Z" fill="#FF8B7B"/>
<path d="M237.844 146.523C237.644 147.173 237.844 147.803 238.234 147.933C238.624 148.063 239.164 147.653 239.364 147.013C239.564 146.373 239.364 145.743 238.974 145.603C238.584 145.463 238.064 145.933 237.844 146.523Z" fill="#263238"/>
<path d="M245.083 148.833C244.873 149.493 245.083 150.113 245.473 150.243C245.863 150.373 246.403 149.963 246.603 149.323C246.803 148.683 246.603 148.052 246.213 147.922C245.823 147.792 245.283 148.203 245.083 148.833Z" fill="#263238"/>
<path d="M246 147.906H247.68C247.68 147.906 246.52 148.906 246 147.906Z" fill="#263238"/>
<path d="M242.469 149.289C242.581 150.934 242.917 152.556 243.469 154.109C243.066 154.237 242.641 154.277 242.221 154.225C241.802 154.173 241.399 154.031 241.039 153.809L242.469 149.289Z" fill="#FF5652"/>
<path d="M236.76 155.221C237.056 155.368 237.364 155.488 237.68 155.581C237.704 155.591 237.729 155.596 237.755 155.595C237.78 155.595 237.805 155.59 237.829 155.579C237.852 155.569 237.873 155.554 237.89 155.536C237.908 155.517 237.921 155.495 237.93 155.471C237.938 155.446 237.94 155.419 237.937 155.392C237.934 155.366 237.926 155.34 237.913 155.317C237.9 155.293 237.882 155.273 237.861 155.257C237.84 155.24 237.816 155.228 237.79 155.221C236.987 154.985 236.251 154.564 235.641 153.99C235.031 153.417 234.565 152.708 234.28 151.921C234.26 151.878 234.225 151.843 234.182 151.823C234.138 151.803 234.089 151.799 234.043 151.813C233.997 151.826 233.957 151.855 233.931 151.895C233.905 151.936 233.894 151.984 233.9 152.031C234.139 152.727 234.516 153.368 235.007 153.916C235.498 154.464 236.094 154.908 236.76 155.221Z" fill="#263238"/>
<path d="M235.385 144.145C235.459 144.185 235.544 144.199 235.627 144.186C235.71 144.174 235.786 144.135 235.845 144.075C236.352 143.678 236.934 143.39 237.557 143.228C238.18 143.066 238.83 143.035 239.465 143.135C239.571 143.153 239.68 143.128 239.768 143.066C239.856 143.005 239.916 142.911 239.935 142.805C239.95 142.704 239.925 142.6 239.865 142.516C239.806 142.432 239.716 142.375 239.615 142.355C238.852 142.227 238.07 142.266 237.323 142.468C236.575 142.669 235.88 143.03 235.285 143.525C235.213 143.598 235.172 143.697 235.172 143.8C235.172 143.903 235.213 144.002 235.285 144.075C235.309 144.11 235.344 144.135 235.385 144.145Z" fill="#263238"/>
<path d="M248.313 146.186C248.374 146.22 248.443 146.238 248.513 146.238C248.583 146.238 248.652 146.22 248.713 146.186C248.757 146.159 248.796 146.122 248.827 146.08C248.857 146.037 248.879 145.988 248.89 145.937C248.901 145.885 248.902 145.832 248.892 145.781C248.882 145.729 248.862 145.68 248.833 145.636C248.505 145.091 248.048 144.635 247.502 144.308C246.956 143.982 246.338 143.796 245.703 143.766C245.653 143.763 245.604 143.771 245.557 143.787C245.511 143.804 245.468 143.83 245.432 143.864C245.395 143.897 245.366 143.938 245.346 143.983C245.325 144.028 245.314 144.077 245.313 144.126C245.311 144.178 245.32 144.229 245.34 144.277C245.359 144.325 245.387 144.369 245.424 144.405C245.46 144.442 245.504 144.47 245.552 144.489C245.6 144.508 245.651 144.518 245.703 144.516C246.197 144.559 246.674 144.717 247.096 144.977C247.518 145.238 247.873 145.593 248.133 146.016C248.173 146.09 248.236 146.15 248.313 146.186Z" fill="#263238"/>
<path d="M238.742 145.641H240.422C240.422 145.641 239.272 146.601 238.742 145.641Z" fill="#263238"/>
<path d="M224 143.843C224 143.843 228.56 149.733 231 144.463C233.44 139.193 242.86 137.123 241.06 134.063C243.552 135.67 245.703 137.753 247.39 140.193C247.446 140.29 247.534 140.364 247.639 140.404C247.744 140.443 247.859 140.446 247.966 140.41C248.072 140.375 248.164 140.305 248.224 140.211C248.285 140.116 248.312 140.004 248.3 139.893C248.05 136.363 246.66 129.403 239.6 129.673C239.6 129.673 232.21 124.173 225.89 128.553C219.85 132.713 224 143.843 224 143.843Z" fill="#263238"/>
<path d="M237.55 129.492C237.55 129.492 226.69 122.222 219.7 135.732C212.71 149.242 202.54 152.142 208.7 160.162C214.86 168.182 226.2 166.382 226.26 162.062C226.32 157.742 223.48 153.992 225.32 148.122C227.16 142.252 237.55 129.492 237.55 129.492Z" fill="#263238"/>
<path d="M221.17 145.855C221.255 146.634 221.492 147.389 221.87 148.075C222.248 148.762 222.758 149.367 223.37 149.855C225.02 151.125 226.63 149.855 226.84 147.855C227.01 146.075 226.37 143.265 224.41 142.735C223.973 142.632 223.517 142.641 223.084 142.761C222.651 142.88 222.255 143.107 221.932 143.42C221.609 143.732 221.371 144.121 221.238 144.55C221.104 144.979 221.081 145.435 221.17 145.875V145.855Z" fill="#FF8B7B"/>
<path d="M324.29 344.711L304.67 339.321L302.21 220.461H295.21L292.8 339.321L273.18 344.711C272.027 345.036 271.013 345.729 270.291 346.684C269.569 347.639 269.178 348.804 269.18 350.001H328.35C328.347 348.796 327.949 347.625 327.215 346.669C326.481 345.713 325.453 345.025 324.29 344.711Z" fill="#263238"/>
<path opacity="0.5" d="M324.29 344.711L304.67 339.321L302.21 220.461H295.21L292.8 339.321L273.18 344.711C272.027 345.036 271.013 345.729 270.291 346.684C269.569 347.639 269.178 348.804 269.18 350.001H328.35C328.347 348.796 327.949 347.625 327.215 346.669C326.481 345.713 325.453 345.025 324.29 344.711Z" fill="white"/>
<path opacity="0.2" d="M290.715 350.006V346.846C290.715 346.369 290.831 345.899 291.054 345.477C291.277 345.055 291.6 344.694 291.995 344.426L298.735 339.826V225.156H296.735V339.826L286.875 344.496C286.373 344.733 285.948 345.108 285.651 345.577C285.353 346.047 285.195 346.591 285.195 347.146V350.006H290.715Z" fill="white"/>
<path d="M381.886 223.125H231.266V227.185H381.886V223.125Z" fill="#263238"/>
<path opacity="0.3" d="M381.886 223.125H231.266V227.185H381.886V223.125Z" fill="white"/>
<path opacity="0.2" d="M381.873 223.125H306.773V227.185H381.873V223.125Z" fill="black"/>
<path d="M390.962 219.062H222.172V223.122H390.962V219.062Z" fill="#263238"/>
<path opacity="0.3" d="M390.965 219.062H297.695V223.122H390.965V219.062Z" fill="black"/>
<path d="M223.232 216.005H283.552C283.919 216.035 284.262 216.203 284.512 216.474C284.762 216.746 284.901 217.101 284.901 217.47C284.901 217.839 284.762 218.194 284.512 218.466C284.262 218.737 283.919 218.905 283.552 218.935H223.232C223.029 218.952 222.825 218.926 222.633 218.86C222.441 218.794 222.264 218.689 222.115 218.551C221.965 218.414 221.846 218.247 221.764 218.06C221.683 217.874 221.641 217.673 221.641 217.47C221.641 217.267 221.683 217.066 221.764 216.88C221.846 216.693 221.965 216.526 222.115 216.389C222.264 216.251 222.441 216.146 222.633 216.08C222.825 216.014 223.029 215.988 223.232 216.005Z" fill="#1A2E35"/>
<path d="M282.754 218.002H257.754C257.642 218.002 257.532 217.975 257.433 217.924C257.334 217.873 257.248 217.798 257.184 217.707C257.119 217.616 257.077 217.511 257.062 217.401C257.046 217.29 257.057 217.178 257.094 217.072L267.164 188.322C267.3 187.937 267.552 187.603 267.885 187.365C268.217 187.127 268.615 186.997 269.024 186.992H294.024C294.135 186.992 294.245 187.019 294.344 187.071C294.443 187.122 294.529 187.196 294.593 187.287C294.658 187.378 294.7 187.483 294.715 187.594C294.731 187.704 294.72 187.817 294.684 187.922L284.614 216.672C284.477 217.057 284.225 217.391 283.892 217.629C283.56 217.867 283.162 217.997 282.754 218.002Z" fill="#1A2E35"/>
<path d="M283.642 218.002H258.642C258.531 218 258.423 217.972 258.325 217.92C258.227 217.868 258.143 217.794 258.079 217.703C258.016 217.613 257.975 217.508 257.96 217.398C257.945 217.289 257.956 217.177 257.992 217.072L268.052 188.322C268.19 187.935 268.443 187.6 268.777 187.362C269.112 187.124 269.511 186.995 269.922 186.992H294.922C295.033 186.995 295.142 187.023 295.24 187.075C295.337 187.127 295.422 187.201 295.486 187.291C295.55 187.382 295.592 187.486 295.609 187.595C295.626 187.705 295.616 187.817 295.582 187.922L285.502 216.682C285.363 217.066 285.111 217.397 284.779 217.633C284.446 217.869 284.05 217.998 283.642 218.002Z" fill="#1A2E35"/>
<path opacity="0.7" d="M283.642 218.002H258.642C258.531 218 258.423 217.972 258.325 217.92C258.227 217.868 258.143 217.794 258.079 217.703C258.016 217.613 257.975 217.508 257.96 217.398C257.945 217.289 257.956 217.177 257.992 217.072L268.052 188.322C268.19 187.935 268.443 187.6 268.777 187.362C269.112 187.124 269.511 186.995 269.922 186.992H294.922C295.033 186.995 295.142 187.023 295.24 187.075C295.337 187.127 295.422 187.201 295.486 187.291C295.55 187.382 295.592 187.486 295.609 187.595C295.626 187.705 295.616 187.817 295.582 187.922L285.502 216.682C285.363 217.066 285.111 217.397 284.779 217.633C284.446 217.869 284.05 217.998 283.642 218.002Z" fill="white"/>
<path opacity="0.7" d="M255.422 218.904C255.624 218.92 255.828 218.895 256.02 218.829C256.213 218.763 256.389 218.658 256.539 218.52C256.688 218.382 256.807 218.215 256.889 218.029C256.971 217.843 257.013 217.642 257.013 217.439C257.013 217.235 256.971 217.034 256.889 216.848C256.807 216.662 256.688 216.495 256.539 216.357C256.389 216.22 256.213 216.114 256.02 216.048C255.828 215.982 255.624 215.957 255.422 215.974H223.232C223.029 215.957 222.825 215.982 222.633 216.048C222.441 216.114 222.264 216.22 222.115 216.357C221.965 216.495 221.846 216.662 221.764 216.848C221.683 217.034 221.641 217.235 221.641 217.439C221.641 217.642 221.683 217.843 221.764 218.029C221.846 218.215 221.965 218.382 222.115 218.52C222.264 218.658 222.441 218.763 222.633 218.829C222.825 218.895 223.029 218.92 223.232 218.904H255.422Z" fill="white"/>
<path d="M287.184 188.195H294.124L293.544 189.865H286.594L287.184 188.195Z" fill="#31C5FF"/>
<path d="M435.678 158.222C432.948 138.48 415.8 113.102 382.669 113.102C349.539 113.102 332.381 138.48 329.66 158.222C326.979 177.63 332.029 188.827 341.65 204.605C352.181 221.86 356.165 245.624 356.165 245.624H382.669H409.174C409.174 245.624 413.157 221.86 423.689 204.605C433.31 188.827 438.36 177.621 435.678 158.222Z" fill="#FFC305"/>
<path d="M382.666 244.609C371.029 244.609 360.752 244.06 354.742 243.219L360.037 279.706C360.194 280.803 370.324 281.684 382.666 281.684C395.008 281.684 405.138 280.803 405.294 279.706L410.589 243.219C404.58 244.06 394.293 244.609 382.666 244.609Z" fill="#1B2536"/>
<path d="M382.663 287.944C390.636 287.944 397.1 283.335 397.1 277.648C397.1 271.961 390.636 267.352 382.663 267.352C374.69 267.352 368.227 271.961 368.227 277.648C368.227 283.335 374.69 287.944 382.663 287.944Z" fill="#1B2536"/>
<path d="M396.76 199.711L399.236 182.75H399.217C399.324 182.094 399.432 181.419 399.54 180.724C401.38 168.137 400.548 155.727 397.289 155.727C395.263 155.727 393.09 160.787 391.583 167.824C391.044 160.787 389.576 155.727 387.55 155.727C385.524 155.727 383.704 160.787 382.676 167.824C381.648 160.787 379.828 155.727 377.802 155.727C375.776 155.727 374.308 160.787 373.769 167.824C372.252 160.787 370.079 155.727 368.063 155.727C364.804 155.727 363.972 168.137 365.812 180.724C365.91 181.419 366.018 182.084 366.135 182.75L368.582 199.711" stroke="white" stroke-width="2" stroke-miterlimit="10" stroke-linecap="round" stroke-linejoin="round"/>
<path d="M358.059 101.602L348.047 74.1094" stroke="#FF6726" stroke-width="3" stroke-miterlimit="10"/>
<path d="M336.421 114.093L317.609 91.6797" stroke="#FF6726" stroke-width="3" stroke-miterlimit="10"/>
<path d="M320.355 133.234L295.016 118.602" stroke="#FF6726" stroke-width="3" stroke-miterlimit="10"/>
<path d="M311.814 156.713L283 151.633" stroke="#FF6726" stroke-width="3" stroke-miterlimit="10"/>
<path d="M382.664 68V97.2548" stroke="#FF6726" stroke-width="3" stroke-miterlimit="10"/>
<path d="M417.276 74.1094L407.273 101.602" stroke="#FF6726" stroke-width="3" stroke-miterlimit="10"/>
<path d="M447.716 91.6797L428.914 114.093" stroke="#FF6726" stroke-width="3" stroke-miterlimit="10"/>
<path d="M470.301 118.602L444.961 133.234" stroke="#FF6726" stroke-width="3" stroke-miterlimit="10"/>
<path d="M482.33 151.633L453.516 156.713" stroke="#FF6726" stroke-width="3" stroke-miterlimit="10"/>
</g>
<defs>
<clipPath id="clip0_2601_6535">
<rect width="690" height="350" fill="white"/>
</clipPath>
</defs>
</svg>
