<svg width="690" height="350" viewBox="0 0 690 350" fill="none" xmlns="http://www.w3.org/2000/svg">
<g clip-path="url(#clip0_2200_1738)">
<path d="M176.995 10.4042C172.619 12.2153 168.428 14.2593 164.484 16.5102C105.102 50.2486 73.917 114.258 68.6784 172.524C68.1545 178.501 67.908 184.53 68.0313 190.532C69.3563 260.544 119.123 329.988 195.515 358.112C271.876 386.236 370.979 367.4 419.976 310.712C443.396 283.623 454.736 246.547 438.096 216.146C414.799 173.611 353.045 160.571 324.263 121.865C299.179 88.1267 320.195 40.0029 279.21 13.3278C250.429 -5.37834 208.119 -2.5323 176.995 10.4042Z" fill="#B5DDD4"/>
<path d="M434.001 341.267C434.001 347.89 365.954 353.267 282.034 353.267C198.088 353.267 130.066 347.89 130.066 341.267C130.066 334.645 198.114 329.242 282.034 329.242C365.954 329.267 434.001 334.645 434.001 341.267Z" fill="#84AF98"/>
<path d="M190.271 335.293H184.59V237.325L171.652 185.391H177.361L190.271 237.051V335.293Z" fill="#5F505E"/>
<path d="M247.037 332.704H241.329V236.429L228.418 185.391H234.126L247.037 236.18V332.704Z" fill="#5F505E"/>
<path d="M234.126 243.602H228.418V335.321H234.126V243.602Z" fill="#5F505E"/>
<path d="M302.119 243.602H296.41V335.321H302.119V243.602Z" fill="#5F505E"/>
<path d="M219.88 199.409H168.984C159.941 199.409 150.818 192.313 148.658 183.649L136.441 135.001C134.387 126.785 139.775 120.188 148.498 120.188H197.5C206.196 120.188 215.185 126.785 217.559 135.001L231.697 183.649C234.204 192.313 228.949 199.409 219.88 199.409Z" fill="#A59547"/>
<path d="M220.706 199.409H173.225C164.769 199.409 156.286 192.313 154.232 183.649L142.842 135.001C140.921 126.785 145.963 120.188 154.099 120.188H199.82C207.955 120.188 216.331 126.785 218.545 135.001L231.723 183.649C234.097 192.313 229.162 199.409 220.706 199.409Z" fill="#927A35"/>
<path d="M310.23 247.008H185.978C181.95 247.008 178.695 243.97 178.695 240.211C178.695 236.451 181.95 233.414 185.978 233.414H310.256C314.284 233.414 317.539 236.451 317.539 240.211C317.512 243.97 314.258 247.008 310.23 247.008Z" fill="#A59547"/>
<path d="M310.231 247.008H196.169C192.141 247.008 188.887 243.97 188.887 240.211C188.887 236.451 192.141 233.414 196.169 233.414H310.258C314.286 233.414 317.54 236.451 317.54 240.211C317.514 243.97 314.259 247.008 310.231 247.008Z" fill="#927A35"/>
<path d="M194.297 89.5347C194.297 89.5347 171.063 78.9038 168.396 100.788C166.555 115.925 173.784 173.86 184.374 176.673C194.964 179.486 200.246 152.349 200.246 152.349L194.297 89.5347Z" fill="#5F505E"/>
<path d="M202.459 145.804C202.459 145.804 181.119 135.671 171.649 152.751C170.902 159.249 174.023 168.012 179.091 171.149C179.091 171.149 195.043 162.908 201.312 162.908L202.459 145.804Z" fill="#776774"/>
<path d="M244.422 108.355L246.529 91.3756C246.529 91.3756 255.225 88.3134 261.547 93.1184C267.896 97.9484 286.648 142.787 286.648 142.787L264.348 163.427L244.422 108.355Z" fill="#4C404B"/>
<path d="M256.052 156.98C255.919 156.208 266.002 130.365 290.409 134.971C314.817 139.577 305.668 150.905 305.668 150.905L265.548 171.171L256.052 156.98Z" fill="#776774"/>
<path d="M204.675 90.8295C204.675 90.8295 186.803 86.9954 178.027 92.1988C174.079 94.5391 184.696 114.979 190.404 137.934C197.393 165.993 200.274 197.263 200.274 197.263L274.404 186.831C274.404 186.831 258.026 130.166 257.439 109.602C256.825 89.037 251.704 90.0826 237.592 93.1947C223.481 96.2819 204.675 90.8295 204.675 90.8295Z" fill="#5F505E"/>
<path d="M203.316 89.4606C203.316 89.4606 214.893 118.291 227.804 115.328C240.715 112.366 242.129 86 242.129 86L203.316 89.4606Z" fill="#F47567"/>
<path d="M260.054 71.7085C261.895 74.9949 259.041 79.7999 253.652 82.439C248.264 85.078 242.395 84.5552 240.555 81.2439C238.714 77.9576 241.568 73.1525 246.957 70.5135C252.345 67.8993 258.214 68.4222 260.054 71.7085Z" fill="#F47567"/>
<path d="M250.718 73.2562C251.972 91.8789 241.862 107.414 226.311 108.336C210.759 109.232 195.634 95.1653 194.381 76.5426C193.127 57.9198 204.891 43.43 220.282 41.1644C250.825 36.683 249.465 54.6086 250.718 73.2562Z" fill="#FF917B"/>
<path d="M256.984 56.9934C254.797 58.7859 253.063 60.0308 253.063 60.0308L250.796 75.9896C250.022 68.645 249.275 61.425 247.435 58.0639C247.435 58.0639 209.316 60.1304 206.088 60.4042C206.088 60.4042 204.435 72.977 199.98 78.9273H192.564C192.564 78.9273 185.655 60.0308 187.229 50.4456C188.803 40.8603 194.885 30.4535 197.846 31.5988C200.834 32.744 199.42 39.2421 199.42 39.2421C199.42 39.2421 203.368 36.1549 208.836 32.271C208.863 32.271 208.889 32.2461 208.889 32.2461C218.973 25.1256 234.124 15.3413 238.685 17.4575C245.514 20.5945 238.232 30.2793 237.752 30.9266C238.739 30.6029 259.225 23.4078 262.479 28.3373C265.76 33.3664 251.676 45.8895 251.676 45.8895C251.676 45.8895 264.56 43.1259 266.134 46.2131C267.174 48.2297 261.226 53.5576 256.984 56.9934Z" fill="#29150F"/>
<path d="M256.986 56.9963C258.426 54.3822 259.76 51.2701 259.333 49.5522C258.533 46.0916 244.448 50.2991 244.448 50.2991C244.448 50.2991 258.506 35.5105 256.319 31.9254C254.158 28.3402 231.458 36.2574 231.458 36.2574C231.458 36.2574 236.793 26.2987 232.685 23.9833C230.044 22.4895 217.427 28.0913 208.891 32.1992C218.974 25.0788 234.125 15.2944 238.687 17.4106C245.515 20.5476 238.233 30.2324 237.753 30.8797C238.74 30.5561 259.226 23.3609 262.481 28.2905C265.762 33.3196 251.677 45.8426 251.677 45.8426C251.677 45.8426 264.561 43.0791 266.135 46.1663C267.176 48.2327 261.227 53.5606 256.986 56.9963Z" fill="#593A2E"/>
<path d="M203.103 82.7615C201.902 86.2968 196.247 87.7906 190.432 86.0727C184.644 84.3798 180.909 80.1224 182.083 76.5871C183.283 73.0518 188.938 71.558 194.753 73.2758C200.542 74.9688 204.276 79.2261 203.103 82.7615Z" fill="#FF917B"/>
<path d="M218.6 86.0209C218.6 87.3902 218.093 88.5106 217.48 88.5106C216.866 88.5106 216.359 87.3902 216.359 86.0209C216.359 84.6516 216.866 83.5312 217.48 83.5312C218.093 83.5312 218.6 84.6516 218.6 86.0209Z" fill="#333333"/>
<path d="M243.272 84.1069C243.272 85.4762 242.765 86.5965 242.152 86.5965C241.538 86.5965 241.031 85.4762 241.031 84.1069C241.031 82.7375 241.538 81.6172 242.152 81.6172C242.765 81.6172 243.272 82.7375 243.272 84.1069Z" fill="#333333"/>
<path d="M234.736 95.6342C234.736 95.6342 224.387 97.8002 218.598 92.9453C218.598 92.9453 217.558 98.796 224.52 99.9413C231.482 101.087 234.736 95.6342 234.736 95.6342Z" fill="white"/>
<path d="M239.566 71.0595C241.834 69.7898 245.035 70.1882 246.849 72.0056" stroke="#29150F" stroke-width="0.75" stroke-miterlimit="10" stroke-linecap="round" stroke-linejoin="round"/>
<path d="M219.72 72.3554C216.892 71.1354 213.238 71.8325 211.184 73.9985" stroke="#29150F" stroke-width="0.75" stroke-miterlimit="10" stroke-linecap="round" stroke-linejoin="round"/>
<path d="M234.953 84.5312C235.593 87.3695 235.673 88.6392 235.247 91.5023" stroke="#DB4242" stroke-width="0.75" stroke-miterlimit="10" stroke-linecap="round" stroke-linejoin="round"/>
<path d="M200.781 112.59C200.488 111.918 194.166 102.109 193.526 92.947C192.859 83.785 196.113 75.5442 198.621 76.5899C201.128 77.6106 198.567 90.9054 198.567 90.9054C198.567 90.9054 201.021 76.4654 204.302 77.3866C207.583 78.3326 203.582 94.7146 203.582 94.7146C203.582 94.7146 207.13 82.6646 209.531 83.1128C211.931 83.5609 208.224 99.9678 208.224 99.9678C208.224 99.9678 209.771 89.81 212.812 90.0341C215.853 90.2332 211.798 102.881 211.798 102.881C211.798 102.881 219.427 109.976 214.946 118.615L200.781 112.59Z" fill="#FCA590"/>
<path d="M200.78 112.594C200.78 112.594 177.092 160.246 178.773 169.906C179.706 175.259 185.628 178.072 190.537 178.296C195.445 178.52 202.22 176.329 205.261 163.333C208.996 147.374 214.918 118.594 214.918 118.594L200.78 112.594Z" fill="#FCA590"/>
<path d="M310.199 229.481L243.512 233.44L297.529 201.945L310.199 229.481Z" fill="#D8C5BF"/>
<path d="M375.18 255.172C375.34 256.591 389.478 274.093 389.478 274.093L374.06 285.471L359.762 269.288L375.18 255.172Z" fill="#FF917B"/>
<path d="M381.048 300.262C380.275 300.013 379.554 299.49 378.887 298.768C375.126 294.685 373.152 284.427 373.152 284.427L388.09 272.328C388.09 272.328 407.403 265.481 415.566 265.979C416.686 266.029 417.593 266.253 418.233 266.651C423.328 269.863 386.196 301.905 381.048 300.262Z" fill="#5F505E"/>
<path d="M381.047 300.259C380.274 300.01 379.554 299.487 378.887 298.765C385.342 294.633 404.895 281.388 415.565 265.977C416.685 266.026 417.592 266.25 418.232 266.649C423.327 269.86 386.196 301.902 381.047 300.259Z" fill="#837984"/>
<path d="M390.304 279.55H390.277C389.663 279.699 389.023 279.351 388.837 278.778L388.703 278.33C388.65 278.181 388.65 278.031 388.676 277.882C388.303 275.691 388.41 273.425 388.97 271.284C389.13 270.687 389.77 270.313 390.41 270.463C391.051 270.612 391.451 271.21 391.291 271.807C390.73 273.898 390.704 276.139 391.157 278.23C391.291 278.828 390.917 279.401 390.304 279.55Z" fill="#837984"/>
<path d="M395.16 277.78C394.547 277.955 393.88 277.606 393.693 277.033C393.693 277.033 393.693 277.033 393.693 277.009C392.973 274.668 393.026 272.104 393.827 269.789C394.013 269.191 394.707 268.867 395.32 269.067C395.961 269.266 396.281 269.888 396.094 270.461C395.427 272.353 395.4 274.469 395.987 276.386C396.174 277.009 395.8 277.606 395.16 277.78Z" fill="#837984"/>
<path d="M399.481 275.939C399.401 275.964 399.347 275.964 399.267 275.964C398.6 276.014 398.04 275.566 397.96 274.968C397.747 272.902 397.854 270.811 398.334 268.769C398.467 268.172 399.107 267.773 399.748 267.898C400.388 268.022 400.815 268.62 400.681 269.217C400.281 271.035 400.174 272.877 400.361 274.719C400.388 275.317 400.014 275.815 399.481 275.939Z" fill="#837984"/>
<path d="M200.273 197.241C200.273 197.241 207.849 242.304 241.353 233.988C274.883 225.673 321.378 205.009 321.378 205.009L364.618 285.998L387.452 265.781C387.452 265.781 347.813 178.295 333.755 174.585C313.536 169.257 274.377 186.809 274.377 186.809L200.273 197.241Z" fill="#CCB3AC"/>
<path d="M359.815 289.438C359.575 290.832 368.138 311.247 368.138 311.247L349.999 318.343L340.902 299.172L359.815 289.438Z" fill="#FF917B"/>
<path d="M352.478 334.352C351.811 333.929 351.251 333.232 350.824 332.361C348.37 327.481 349.41 317.124 349.41 317.124L367.283 309.231C367.283 309.231 387.849 307.464 395.585 310.003C396.652 310.327 397.479 310.775 397.959 311.323C401.96 315.68 356.986 337.24 352.478 334.352Z" fill="#5F505E"/>
<path d="M352.478 334.357C351.811 333.934 351.251 333.236 350.824 332.365C358.24 330 380.86 322.157 395.612 310.008C396.679 310.331 397.505 310.78 397.986 311.327C401.96 315.684 356.986 337.245 352.478 334.357Z" fill="#837984"/>
<path d="M367.361 316.727H367.335C366.694 316.702 366.188 316.229 366.188 315.632V315.159C366.188 315.009 366.214 314.86 366.268 314.711C366.534 312.52 367.281 310.354 368.455 308.412C368.775 307.864 369.522 307.69 370.082 307.989C370.669 308.287 370.856 308.96 370.536 309.507C369.388 311.399 368.722 313.516 368.562 315.682C368.508 316.279 368.001 316.727 367.361 316.727Z" fill="#837984"/>
<path d="M372.537 316.254C371.897 316.254 371.363 315.781 371.337 315.159C371.337 315.159 371.337 315.159 371.337 315.134C371.31 312.694 372.11 310.229 373.524 308.212C373.897 307.689 374.618 307.565 375.178 307.889C375.738 308.237 375.871 308.909 375.525 309.432C374.351 311.1 373.711 313.117 373.711 315.109C373.737 315.731 373.204 316.254 372.537 316.254C372.564 316.254 372.537 316.254 372.537 316.254Z" fill="#837984"/>
<path d="M377.232 315.559C377.152 315.559 377.099 315.559 377.019 315.534C376.379 315.435 375.925 314.862 376.059 314.24C376.432 312.198 377.152 310.231 378.193 308.364C378.486 307.816 379.233 307.592 379.793 307.891C380.38 308.165 380.593 308.837 380.3 309.385C379.393 311.028 378.753 312.796 378.406 314.613C378.299 315.186 377.819 315.559 377.232 315.559Z" fill="#837984"/>
<path d="M287.527 218.854L299.051 229.559L342.931 315.702L368.139 304.598C368.139 304.598 337.863 198.488 319.404 202.049C300.945 205.609 287.527 218.854 287.527 218.854Z" fill="#D8C5BF"/>
<path d="M338.931 174.734H212.758V178.295H338.931V174.734Z" fill="#BCAF8E"/>
<path d="M261.36 174.734H212.758V178.295H261.36V174.734Z" fill="#D3CCA5"/>
<path d="M258.025 176.554C258.025 177.052 257.571 177.475 257.038 177.475C256.504 177.475 256.051 177.052 256.051 176.554C256.051 176.056 256.504 175.633 257.038 175.633C257.598 175.633 258.025 176.031 258.025 176.554Z" fill="#BCAF8E"/>
<path d="M253.942 176.031H246.66V177.177H253.942V176.031Z" fill="#BCAF8E"/>
<path d="M241.353 175.93H234.07V177.075H241.353V175.93Z" fill="#BCAF8E"/>
<path d="M223.267 175.93H215.984V177.075H223.267V175.93Z" fill="#BCAF8E"/>
<path d="M345.868 175.305L260.508 175.205L279.18 118.565L364.727 118.516L345.868 175.305Z" fill="#E6E6BE"/>
<path d="M345.867 175.306L262.801 175.207L280.886 120.409L364.112 120.359L345.867 175.306Z" fill="#D3CCA5"/>
<path d="M260.505 341.017C258.798 341.017 257.438 339.722 257.438 338.154V186.035C257.438 184.442 258.825 183.172 260.505 183.172C262.212 183.172 263.573 184.466 263.573 186.035V338.154C263.573 339.722 262.186 341.017 260.505 341.017Z" fill="#4C404B"/>
<path d="M168.583 341.017C166.876 341.017 165.516 339.722 165.516 338.154V186.035C165.516 184.442 166.903 183.172 168.583 183.172C170.29 183.172 171.651 184.466 171.651 186.035V338.154C171.651 339.722 170.29 341.017 168.583 341.017Z" fill="#4C404B"/>
<path d="M379.798 341.017C378.091 341.017 376.73 339.722 376.73 338.154V186.035C376.73 184.442 378.118 183.172 379.798 183.172C381.505 183.172 382.866 184.466 382.866 186.035V338.154C382.892 339.722 381.505 341.017 379.798 341.017Z" fill="#4C404B"/>
<path d="M389.88 178.266H151.992V188H389.88V178.266Z" fill="#D28148"/>
<path d="M533.674 107.222C530.944 87.4805 513.796 62.1016 480.665 62.1016C447.535 62.1016 430.377 87.4805 427.656 107.222C424.975 126.63 430.025 137.827 439.646 153.605C450.177 170.86 454.161 194.624 454.161 194.624H480.665H507.17C507.17 194.624 511.153 170.86 521.685 153.605C531.306 137.827 536.356 126.621 533.674 107.222Z" fill="#FFC305"/>
<path d="M480.666 193.609C469.029 193.609 458.752 193.06 452.742 192.219L458.037 228.706C458.194 229.803 468.324 230.684 480.666 230.684C493.008 230.684 503.138 229.803 503.294 228.706L508.589 192.219C502.58 193.06 492.293 193.609 480.666 193.609Z" fill="#1B2536"/>
<path d="M480.667 236.944C488.64 236.944 495.103 232.335 495.103 226.648C495.103 220.961 488.64 216.352 480.667 216.352C472.694 216.352 466.23 220.961 466.23 226.648C466.23 232.335 472.694 236.944 480.667 236.944Z" fill="#1B2536"/>
<path d="M494.76 148.711L497.236 131.75H497.217C497.324 131.094 497.432 130.419 497.54 129.724C499.38 117.137 498.548 104.727 495.289 104.727C493.263 104.727 491.09 109.787 489.583 116.824C489.044 109.787 487.576 104.727 485.55 104.727C483.524 104.727 481.704 109.787 480.676 116.824C479.648 109.787 477.828 104.727 475.802 104.727C473.776 104.727 472.308 109.787 471.769 116.824C470.252 109.787 468.079 104.727 466.063 104.727C462.804 104.727 461.972 117.137 463.812 129.724C463.91 130.419 464.018 131.084 464.135 131.75L466.582 148.711" stroke="white" stroke-width="2" stroke-miterlimit="10" stroke-linecap="round" stroke-linejoin="round"/>
<path d="M456.059 50.6024L446.047 23.1094" stroke="#FF6726" stroke-width="3" stroke-miterlimit="10"/>
<path d="M434.421 63.093L415.609 40.6797" stroke="#FF6726" stroke-width="3" stroke-miterlimit="10"/>
<path d="M418.359 82.2338L393.02 67.6016" stroke="#FF6726" stroke-width="3" stroke-miterlimit="10"/>
<path d="M409.814 105.713L381 100.633" stroke="#FF6726" stroke-width="3" stroke-miterlimit="10"/>
<path d="M480.664 17V46.2548" stroke="#FF6726" stroke-width="3" stroke-miterlimit="10"/>
<path d="M515.276 23.1094L505.273 50.6024" stroke="#FF6726" stroke-width="3" stroke-miterlimit="10"/>
<path d="M545.712 40.6797L526.91 63.093" stroke="#FF6726" stroke-width="3" stroke-miterlimit="10"/>
<path d="M568.305 67.6016L542.965 82.2338" stroke="#FF6726" stroke-width="3" stroke-miterlimit="10"/>
<path d="M580.33 100.633L551.516 105.713" stroke="#FF6726" stroke-width="3" stroke-miterlimit="10"/>
</g>
<defs>
<clipPath id="clip0_2200_1738">
<rect width="690" height="350" fill="white"/>
</clipPath>
</defs>
</svg>
