<svg width="690" height="350" viewBox="0 0 690 350" fill="none" xmlns="http://www.w3.org/2000/svg">
<g clip-path="url(#clip0_3092_1365)">
<path d="M627 286.316C627 405.784 498.73 333.102 340.5 333.102C182.27 333.102 54 405.784 54 286.316C54 166.848 182.27 70 340.5 70C498.73 70 627 166.848 627 286.316Z" fill="#FFF4F4"/>
<g opacity="0.68">
<path opacity="0.68" d="M394.817 77.4149C393.911 74.9412 391.464 74.689 389.456 74.7704L176.377 78.4809C173.681 89.759 186.2 125.164 190.295 135.612C210.223 186.518 227.079 236.447 247.007 287.353L334.869 288.24C355.501 218.188 373.74 153.489 394.372 83.4364C394.934 81.4998 395.497 79.2702 394.817 77.4149Z" fill="url(#paint0_linear_3092_1365)"/>
</g>
<path d="M315.448 215.294L268.965 217.629C265.91 217.784 263.307 215.326 263.159 212.145L263.081 210.436C262.932 207.254 265.292 204.544 268.348 204.39L315.018 202.038C318.074 201.884 320.676 204.341 320.825 207.523L320.895 209.036C321.051 212.332 318.613 215.131 315.448 215.294Z" fill="#8C98E9"/>
<path d="M308.549 227.715L278.079 229.245C274.968 229.399 272.327 226.901 272.171 223.663L272.1 222.149C271.952 218.911 274.351 216.16 277.461 215.998L307.931 214.468C311.042 214.313 313.683 216.811 313.839 220.05L313.91 221.563C314.058 224.802 311.659 227.552 308.549 227.715Z" fill="#8C98E9"/>
<path d="M286.264 184.216C320.003 184.216 347.353 155.738 347.353 120.608C347.353 85.4783 320.003 57 286.264 57C252.526 57 225.176 85.4783 225.176 120.608C225.176 155.738 252.526 184.216 286.264 184.216Z" fill="#F9CA51"/>
<path d="M261.262 176.53L271.093 200.022L313.457 197.426L322.624 167.352L261.262 176.53Z" fill="#F9CA51"/>
<path d="M280.137 197.942C276.847 187.477 274.081 176.834 271.869 166.06C269.634 155.189 267.735 144.082 266.876 132.999C266.508 128.223 266.946 122.201 271.377 119.475C275.199 117.123 280.208 118.792 283.099 121.941C286.28 125.415 287.679 130.59 287.905 135.294C288.03 137.792 287.655 140.518 285.811 142.3C284.17 143.887 281.638 144.367 279.927 142.617C277.168 139.794 277.949 134.447 278.903 131.014C280.145 126.538 282.99 122.543 287.476 121.306C291.789 120.118 296.502 121.477 299.901 124.406C303.371 127.393 305.583 131.746 306.685 136.238C307.31 138.768 307.708 141.738 306.177 144.017C304.7 146.214 302.043 146.531 300.104 144.757C298.198 143.008 297.807 140.135 297.838 137.629C297.862 135.489 298.252 133.357 299.003 131.372C300.464 127.498 303.48 124.17 307.505 123.365C311.084 122.64 315.328 123.877 317.391 127.181C320.157 131.608 318.211 137.239 316.461 141.649C314.507 146.556 312.569 151.438 310.951 156.475C307.685 166.605 305.333 177.062 303.942 187.656C303.605 190.195 303.332 192.734 303.105 195.289C303.051 195.94 304.027 195.94 304.082 195.289C305.168 183.059 307.521 170.967 311.1 159.258C312.889 153.407 315.07 147.752 317.336 142.088C319.204 137.426 321.126 131.616 318.368 126.888C316.328 123.389 312.163 121.819 308.365 122.217C304.16 122.657 300.737 125.537 298.815 129.378C296.799 133.406 295.923 139.151 297.901 143.374C298.823 145.343 300.714 146.971 302.894 146.995C304.989 147.019 306.739 145.433 307.575 143.52C308.693 140.957 308.177 137.971 307.474 135.367C306.825 132.975 305.887 130.656 304.614 128.556C302.128 124.431 298.323 121.176 293.673 120.207C289.078 119.247 284.248 120.557 281.161 124.341C278.348 127.791 276.918 132.812 277.121 137.312C277.293 141.112 279.473 145.896 283.912 144.603C289 143.122 289.265 136.872 288.57 132.413C287.812 127.531 285.881 122.372 281.802 119.491C278.278 117.01 273.268 116.464 269.83 119.394C265.594 122.999 265.516 129.207 266.024 134.382C266.618 140.485 267.454 146.564 268.423 152.618C270.416 165.011 273.128 177.281 276.543 189.333C277.387 192.319 278.278 195.281 279.208 198.235C279.387 198.829 280.333 198.568 280.137 197.942Z" fill="#2C2C2C"/>
<path d="M318.891 202.762L265.711 205.431C262.601 205.586 259.96 203.088 259.803 199.849L259.733 198.336C259.585 195.097 261.984 192.347 265.094 192.184L318.266 189.507C321.376 189.352 324.018 191.85 324.174 195.089L324.245 196.602C324.401 199.849 322.002 202.599 318.891 202.762Z" fill="#8C98E9"/>
<path d="M264.942 205.866C278.836 205.231 292.739 204.596 306.634 203.962C310.58 203.783 314.519 203.604 318.465 203.416C319.091 203.384 319.098 202.367 318.465 202.399C304.571 203.034 290.668 203.669 276.773 204.303C272.827 204.482 268.888 204.661 264.942 204.849C264.316 204.873 264.316 205.89 264.942 205.866Z" fill="#2C2C2C"/>
<path d="M273.132 218.211C286.433 217.446 299.726 216.681 313.027 215.916C313.652 215.884 313.66 214.867 313.027 214.899C299.726 215.664 286.433 216.429 273.132 217.194C272.507 217.226 272.499 218.244 273.132 218.211Z" fill="#2C2C2C"/>
<path d="M322.62 81.3359C330.185 85.966 334.851 94.1845 337.5 102.68C340.532 112.371 341.329 122.721 339.399 132.738C338.305 138.41 336.39 143.87 333.725 148.948C333.421 149.525 334.265 150.038 334.569 149.46C339.407 140.257 341.806 129.728 341.399 119.239C341.024 109.474 338.438 99.1888 333.311 90.9215C330.693 86.6902 327.286 83.0122 323.105 80.4571C322.574 80.1235 322.081 81.0023 322.62 81.3359Z" fill="white"/>
<g opacity="0.3">
<path opacity="0.3" d="M267.405 70.3734C275.361 71.0651 276.416 77.8189 275.564 83.6207C274.712 89.4225 270.867 94.2153 266.952 98.4466C263.045 102.678 258.793 106.86 256.73 112.32C255.464 115.681 255.105 119.335 254.073 122.777C253.042 126.219 251.088 129.677 247.876 131.02C244.062 132.623 239.499 130.653 236.951 127.301C234.403 123.94 233.528 119.522 233.333 115.242C232.426 95.5498 242.71 76.6472 260.864 71.0814C260.864 71.0895 265.428 70.2026 267.405 70.3734Z" fill="white"/>
</g>
<path d="M337.657 286.82H242.777V349.216H337.657V286.82Z" fill="#8C98E9"/>
<path d="M266.199 287.535C266.199 303.362 266.199 319.189 266.199 335.024C266.199 339.491 266.199 343.95 266.199 348.417C266.199 348.808 266.785 348.808 266.785 348.417C266.785 332.591 266.785 316.764 266.785 300.929C266.785 296.462 266.785 292.002 266.785 287.535C266.785 287.145 266.199 287.145 266.199 287.535Z" fill="white"/>
<path d="M304.016 349.214V325.625L337.651 308.594" stroke="white" stroke-miterlimit="10"/>
<path d="M242.57 287.23C242.57 303.269 242.57 319.315 242.57 335.354C242.57 339.935 242.57 344.516 242.57 349.105C242.57 349.496 243.156 349.496 243.156 349.105C243.156 333.067 243.156 317.021 243.156 300.982C243.156 296.401 243.156 291.82 243.156 287.23C243.156 286.84 242.57 286.84 242.57 287.23Z" fill="white"/>
<path d="M275.313 293.439C275.313 294.106 274.797 294.643 274.157 294.643C273.516 294.643 273 294.106 273 293.439C273 292.771 273.516 292.234 274.157 292.234C274.79 292.234 275.313 292.78 275.313 293.439Z" fill="white"/>
<path d="M275.313 310.048C275.313 310.715 274.797 311.252 274.157 311.252C273.516 311.252 273 310.715 273 310.048C273 309.381 273.516 308.844 274.157 308.844C274.79 308.836 275.313 309.381 275.313 310.048Z" fill="white"/>
<path d="M275.313 326.65C275.313 327.317 274.797 327.854 274.157 327.854C273.516 327.854 273 327.317 273 326.65C273 325.982 273.516 325.445 274.157 325.445C274.79 325.437 275.313 325.982 275.313 326.65Z" fill="white"/>
<path d="M275.313 343.243C275.313 343.911 274.797 344.448 274.157 344.448C273.516 344.448 273 343.911 273 343.243C273 342.576 273.516 342.039 274.157 342.039C274.79 342.031 275.313 342.576 275.313 343.243Z" fill="white"/>
<path d="M311.259 342.939C311.259 343.606 310.743 344.143 310.102 344.143C309.461 344.143 308.945 343.606 308.945 342.939C308.945 342.271 309.461 341.734 310.102 341.734C310.735 341.734 311.259 342.271 311.259 342.939Z" fill="white"/>
<path d="M311.259 330.446C311.259 331.114 310.743 331.651 310.102 331.651C309.461 331.651 308.945 331.114 308.945 330.446C308.945 329.779 309.461 329.242 310.102 329.242C310.735 329.242 311.259 329.779 311.259 330.446Z" fill="white"/>
<path d="M230.624 117.166C229.444 126.89 230.882 136.882 234.711 145.833C238.236 154.068 243.823 161.229 250.732 166.648C254.6 169.683 258.875 172.116 263.407 173.906C263.994 174.142 264.251 173.158 263.665 172.922C247.332 166.453 235.204 151.301 232.031 133.416C231.077 128.053 230.945 122.561 231.601 117.158C231.687 116.515 230.702 116.523 230.624 117.166Z" fill="white"/>
<path d="M457.079 240.111C456.362 238.471 455.133 237.149 453.603 236.373L414.845 217.103L393.701 217L372.568 217.103L334.46 236.225C332.741 237.115 331.362 238.613 330.557 240.464C327.785 246.606 313.134 298.4 304.711 328.508C301.747 339.094 308.422 350 317.869 350H468.126C477.445 350 484.119 339.368 481.379 328.849C473.553 298.651 459.755 246.071 457.079 240.111Z" fill="#041C77"/>
<path d="M373.032 217L373 350H415L414.958 217H373.032Z" fill="#041C77"/>
<path d="M373.008 218C373.008 218 372.5 232.172 379.466 237L394 220.646C386.94 220.538 379.907 219.651 373.008 218Z" fill="#AEB7F4"/>
<path d="M414.986 218C408.088 219.642 401.058 220.525 394 220.636L408.651 237C415.611 232.169 414.986 218 414.986 218Z" fill="#AEB7F4"/>
<path d="M373.034 217C373.034 217 372.167 228.331 379.135 233L394 221.023C386.854 220.909 379.773 219.551 373.034 217Z" fill="white"/>
<path d="M414.964 217C408.226 219.538 401.145 220.892 394 221.008L408.869 233C415.843 228.246 414.964 217 414.964 217Z" fill="white"/>
<path d="M442.741 258H344.238C341.257 258 338.399 259.281 336.291 261.561C334.184 263.842 333 266.934 333 270.159L336.029 350H450.971L454 270.159C454 268.56 453.709 266.977 453.143 265.501C452.576 264.024 451.747 262.683 450.701 261.553C449.655 260.424 448.414 259.529 447.048 258.919C445.682 258.309 444.219 257.997 442.741 258Z" fill="#AEB7F4"/>
<path d="M348.795 265.907H447.445C449.798 265.908 452.092 266.71 454 268.199C453.572 265.353 452.221 262.764 450.188 260.896C448.155 259.027 445.574 258.001 442.905 258H344.255C341.27 258 338.407 259.281 336.296 261.561C334.186 263.842 333 266.934 333 270.159L336.034 350H340.277L337.54 278.066C337.54 276.47 337.831 274.888 338.397 273.413C338.962 271.938 339.791 270.598 340.836 269.469C341.882 268.34 343.122 267.444 344.488 266.833C345.853 266.222 347.317 265.907 348.795 265.907Z" fill="#C3CCF4"/>
<path d="M402 296C402 297.582 401.56 299.129 400.736 300.445C399.912 301.76 398.741 302.786 397.37 303.391C396 303.997 394.492 304.155 393.037 303.846C391.582 303.538 390.246 302.776 389.197 301.657C388.148 300.538 387.434 299.113 387.144 297.561C386.855 296.009 387.003 294.4 387.571 292.939C388.139 291.477 389.1 290.227 390.333 289.348C391.567 288.469 393.017 288 394.5 288C396.489 288 398.397 288.843 399.803 290.343C401.21 291.843 402 293.878 402 296Z" fill="white"/>
<path d="M373 184V216.89C379.678 219.492 386.706 220.875 393.799 220.982C401.047 221.179 408.257 219.788 415 216.89V184H373Z" fill="#FFB1A5"/>
<path d="M414.692 191.374L413.863 192.28L413.396 192.756C413.119 193.039 412.854 193.311 412.578 193.572L412.078 194.036L411.271 194.761C411.101 194.908 410.931 195.056 410.75 195.191C410.569 195.327 410.229 195.633 409.964 195.837L409.422 196.245L408.668 196.8L408.094 197.197L407.371 197.672L406.766 198.046L406.096 198.454L405.448 198.817L404.853 199.145L404.152 199.496L403.642 199.757L402.877 200.097L402.463 200.278L401.623 200.629L401.336 200.742L400.37 201.094H400.274C399.211 201.467 398.266 201.728 397.437 201.932C396.189 202.236 394.913 202.388 393.633 202.385C393.208 202.385 392.783 202.385 392.358 202.306C391.678 202.238 391.009 202.147 390.361 202.045H390.191C389.553 201.932 388.937 201.819 388.321 201.683C385.015 200.963 381.844 199.661 378.939 197.831L378.801 197.74C378.238 197.378 377.739 197.004 377.165 196.608H377.101C375.625 195.484 374.251 194.213 373 192.813V196.438C374.254 197.839 375.627 199.113 377.101 200.244H377.165C377.696 200.64 378.227 201.026 378.801 201.377L378.939 201.456C381.842 203.291 385.014 204.593 388.321 205.308C388.937 205.444 389.553 205.568 390.191 205.67H390.361C391.009 205.772 391.678 205.863 392.358 205.931C392.783 205.976 393.208 205.999 393.633 205.999C394.898 206.015 396.16 205.874 397.395 205.58C398.223 205.387 399.18 205.115 400.231 204.753H400.327C400.646 204.639 400.965 204.526 401.294 204.39L401.581 204.277L402.42 203.937L402.835 203.756L403.6 203.405L404.11 203.155L404.811 202.793L405.406 202.476C405.618 202.351 405.841 202.238 406.054 202.102L406.723 201.705L407.329 201.331L408.051 200.844L408.625 200.459L409.379 199.904L409.921 199.485L410.708 198.851L411.228 198.409C411.504 198.182 411.77 197.933 412.036 197.684L412.535 197.231C412.811 196.97 413.077 196.687 413.353 196.415C413.629 196.143 413.672 196.098 413.821 195.928L414.649 195.022L415 194.625V191L414.692 191.374Z" fill="#FF8E89"/>
<path d="M367.375 161.388C366.742 163.037 365.662 164.45 364.27 165.449C362.879 166.448 361.239 166.988 359.558 167C357.878 167.012 356.231 166.496 354.827 165.518C353.423 164.539 352.324 163.142 351.67 161.502C351.016 159.863 350.836 158.055 351.152 156.307C351.468 154.559 352.267 152.949 353.447 151.682C354.627 150.414 356.135 149.546 357.781 149.186C359.428 148.826 361.138 148.991 362.695 149.66C363.73 150.105 364.672 150.761 365.467 151.591C366.262 152.421 366.895 153.408 367.33 154.498C367.765 155.587 367.992 156.756 368 157.938C368.007 159.12 367.795 160.293 367.375 161.388Z" fill="#FF8E89"/>
<path d="M436.408 158.388C435.813 160.037 434.796 161.45 433.487 162.449C432.178 163.448 430.635 163.988 429.053 164C427.472 164.012 425.922 163.496 424.601 162.518C423.28 161.539 422.246 160.142 421.631 158.502C421.015 156.863 420.845 155.055 421.143 153.307C421.44 151.559 422.192 149.949 423.302 148.682C424.413 147.414 425.832 146.546 427.381 146.186C428.93 145.826 430.539 145.991 432.005 146.66C432.98 147.103 433.867 147.759 434.616 148.588C435.365 149.418 435.961 150.406 436.37 151.496C436.779 152.585 436.993 153.755 437 154.938C437.006 156.12 436.805 157.293 436.408 158.388Z" fill="#FF8E89"/>
<path d="M426.523 139.793C430.694 189.861 406.373 200.391 397.574 202.546C395.908 202.968 394.192 203.097 392.488 202.928C353.123 198.839 361.816 135.843 361.816 135.843C361.816 135.843 365.752 109.535 395.553 111.064C395.553 111.064 424.087 110.971 426.523 139.793Z" fill="#FFB1A5"/>
<path d="M394.209 164L392 171H397" stroke="#FF8E89" stroke-width="0.75" stroke-miterlimit="10"/>
<path d="M382 161.011C381.998 161.406 381.879 161.792 381.657 162.119C381.436 162.447 381.123 162.701 380.758 162.851C380.392 163.001 379.99 163.039 379.603 162.96C379.216 162.882 378.86 162.69 378.582 162.41C378.303 162.13 378.114 161.774 378.038 161.386C377.961 160.998 378.002 160.597 378.153 160.232C378.305 159.867 378.561 159.556 378.89 159.336C379.219 159.117 379.605 159 380 159C380.264 159 380.525 159.052 380.768 159.153C381.011 159.255 381.232 159.403 381.418 159.59C381.604 159.777 381.751 159.998 381.851 160.242C381.951 160.486 382.001 160.748 382 161.011Z" fill="#2C3064"/>
<path d="M411 161C411 161.396 410.883 161.782 410.663 162.111C410.443 162.44 410.131 162.696 409.765 162.848C409.4 162.999 408.998 163.039 408.61 162.962C408.222 162.884 407.865 162.694 407.586 162.414C407.306 162.135 407.116 161.778 407.038 161.39C406.961 161.002 407.001 160.6 407.152 160.235C407.304 159.869 407.56 159.557 407.889 159.337C408.218 159.117 408.604 159 409 159C409.263 159 409.523 159.052 409.765 159.152C410.008 159.253 410.229 159.4 410.414 159.586C410.6 159.772 410.747 159.992 410.848 160.235C410.948 160.477 411 160.737 411 161Z" fill="#2C3064"/>
<path d="M372.022 152.976L388 152.584C386.955 151.389 385.698 150.454 384.31 149.838C382.921 149.222 381.432 148.94 379.94 149.01C378.442 149.028 376.964 149.391 375.598 150.077C374.231 150.764 373.006 151.759 372 153" fill="#001B5E"/>
<path d="M416.978 152.936L401 153C402.018 151.713 403.254 150.693 404.628 150.004C406.002 149.315 407.484 148.974 408.978 149.002C410.474 148.98 411.959 149.321 413.338 150.002C414.718 150.683 415.965 151.69 417 152.961" fill="#001B5E"/>
<path d="M401 181C400.344 182.776 399.234 184.294 397.81 185.362C396.386 186.43 394.712 187 393 187C391.288 187 389.614 186.43 388.19 185.362C386.766 184.294 385.656 182.776 385 181H401Z" fill="white"/>
<path d="M397.402 141.921C405.111 139.096 413.171 135.115 418.801 128.819C420.035 127.449 421.109 125.926 422 124.282C421.723 123.839 421.446 123.42 421.158 123C420.457 124.106 419.673 125.149 418.812 126.119C413.182 132.449 405.121 136.408 397.412 139.221C390.141 141.887 382.432 143.861 374.733 143.135C369.911 142.71 365.261 141.031 361.192 138.246C361.128 139.006 361.064 139.879 361 140.843C365.112 143.709 369.834 145.433 374.733 145.857C382.41 146.56 390.119 144.575 397.402 141.921Z" fill="#FF978F"/>
<path d="M413 120.438C417.356 125.649 420.221 132.119 421.248 139.062L425.229 164L427.763 145.697C428.872 137.689 430.16 128.789 427.077 121.01C425.337 116.494 422.031 112.9 417.868 111L413 120.438Z" fill="#001B5E"/>
<path d="M374 120.438C369.647 125.653 366.792 132.124 365.783 139.062L361.791 164L359.25 145.697C358.127 137.689 356.835 128.789 359.927 121.01C361.673 116.491 364.993 112.896 369.171 111L374 120.438Z" fill="#001B5E"/>
<path d="M360.833 139.533C364.954 142.579 369.724 144.409 374.682 144.846C382.286 145.583 389.9 143.578 397.083 140.87C404.697 138.011 412.659 133.954 418.219 127.558C424.749 120.02 425.434 110.154 421.842 100.899C419.799 95.6202 416.145 90.9638 410.668 89.477C404.623 87.8404 397.862 90.5028 394.597 96.1158C393.544 97.8792 392.891 99.8846 391.543 101.383C389.437 103.803 386.277 104.368 383.233 104.38C380.601 104.38 377.968 104.022 375.356 104.138C368.542 104.437 361.896 108.748 357.842 114.418C356.097 116.659 354.894 119.343 354.342 122.224C353.79 125.106 353.907 128.092 354.682 130.911C355.83 134.435 357.987 137.459 360.833 139.533Z" fill="#001B5E"/>
<path d="M604 155H482V207H604V155Z" fill="#143498"/>
<path d="M176 130H54V182H176V130Z" fill="#143498" fill-opacity="0.1"/>
<path d="M589 171H498V176H589V171Z" fill="white"/>
<path d="M162 142H71V147H162V142Z" fill="white"/>
<path d="M589 181H498V186H589V181Z" fill="white"/>
<path d="M162 152H71V157H162V152Z" fill="white"/>
<path d="M560 191H498V196H560V191Z" fill="white"/>
<path d="M133 163H71V167H133V163Z" fill="white"/>
<path d="M299.5 332C301.985 332 304 329.985 304 327.5C304 325.015 301.985 323 299.5 323C297.015 323 295 325.015 295 327.5C295 329.985 297.015 332 299.5 332Z" fill="#143498"/>
<path d="M602.74 89.6743C601.903 87.6316 600.5 85.8703 598.696 84.5972C596.893 83.324 594.764 82.592 592.558 82.487C590.353 82.382 588.164 82.9084 586.248 84.0044C584.331 85.1004 582.768 86.7204 581.74 88.6743C580.855 86.8196 579.463 85.2531 577.725 84.156C575.988 83.0589 573.975 82.4759 571.92 82.4743C570.216 82.4745 568.537 82.8789 567.02 83.6543C566.097 81.5028 564.76 79.5544 563.084 77.9203C561.407 76.2863 559.425 74.9987 557.251 74.1312C555.077 73.2637 552.753 72.8334 550.412 72.8648C548.072 72.8962 545.76 73.3888 543.61 74.3143C543.156 67.5853 540.111 61.2942 535.117 56.7624C530.122 52.2306 523.565 49.8109 516.824 50.0116C510.082 50.2122 503.681 53.0175 498.965 57.8383C494.248 62.6591 491.583 69.1202 491.53 75.8643C489.097 73.3062 486.062 71.3984 482.702 70.3152C479.342 69.232 475.765 69.0078 472.296 69.6632C468.827 70.3185 465.578 71.8326 462.845 74.067C460.112 76.3014 457.982 79.185 456.65 82.4543C454.871 80.9243 452.729 79.8769 450.429 79.4124C448.129 78.9479 445.748 79.082 443.515 79.8016C441.282 80.5213 439.271 81.8025 437.675 83.5225C436.079 85.2424 434.951 87.3435 434.4 89.6243C434.14 90.6882 434.006 91.779 434 92.8743C434 95.2677 434.627 97.6193 435.82 99.6943H602.11C602.967 98.1716 603.468 96.4751 603.577 94.7314C603.686 92.9877 603.4 91.2419 602.74 89.6243V89.6743Z" fill="#E7EBF5"/>
</g>
<defs>
<linearGradient id="paint0_linear_3092_1365" x1="288.166" y1="288.869" x2="285.278" y2="76.1762" gradientUnits="userSpaceOnUse">
<stop stop-color="#DADEF1"/>
<stop offset="1" stop-color="#DADEF1" stop-opacity="0.3"/>
</linearGradient>
<clipPath id="clip0_3092_1365">
<rect width="690" height="350" fill="white"/>
</clipPath>
</defs>
</svg>
