<svg width="690" height="350" viewBox="0 0 690 350" fill="none" xmlns="http://www.w3.org/2000/svg">
<g clip-path="url(#clip0_2474_1737)">
<path opacity="0.5" d="M433.37 30.7266H217.336V174.985H433.37V30.7266Z" stroke="black" stroke-miterlimit="10" stroke-linecap="round" stroke-linejoin="round"/>
<path opacity="0.5" d="M430.47 32.6641H220.236V173.053H430.47V32.6641Z" stroke="black" stroke-miterlimit="10" stroke-linecap="round" stroke-linejoin="round"/>
<path opacity="0.3" d="M245.682 53.6871C245.682 53.6871 247.983 66.114 247.983 69.7943C247.983 73.4746 247.983 82.6787 247.983 82.6787C247.983 82.6787 257.187 83.1362 264.547 82.6787C271.908 82.2212 280.654 77.6191 280.654 77.6191C280.654 77.6191 277.432 65.1923 277.432 61.9695C277.432 58.7467 275.588 50.9219 275.588 50.9219L245.682 53.6871Z" fill="white" stroke="black" stroke-miterlimit="10" stroke-linecap="round" stroke-linejoin="round"/>
<path opacity="0.3" d="M246.602 131C246.602 131 245.223 141.583 245.223 146.185C245.223 150.787 242.922 158.148 242.922 158.148C242.922 158.148 253.969 162.293 256.728 162.293C259.487 162.293 271.456 161.371 271.456 161.371L273.299 134.223C273.293 134.223 250.282 131.922 246.602 131Z" fill="white" stroke="black" stroke-miterlimit="10" stroke-linecap="round" stroke-linejoin="round"/>
<path opacity="0.3" d="M297.684 73.9419L303.207 99.2531C303.207 99.2531 310.11 99.7107 317.471 99.7107C324.832 99.7107 337.258 92.8076 337.258 92.8076C337.258 92.8076 331.277 80.845 331.277 77.6222C331.277 74.3994 329.434 65.1953 329.434 65.1953C329.434 65.1953 310.568 71.1766 307.803 71.6409C305.051 72.0984 297.684 73.9419 297.684 73.9419Z" fill="white" stroke="black" stroke-miterlimit="10" stroke-linecap="round" stroke-linejoin="round"/>
<path opacity="0.3" d="M339.102 67.0391C339.102 67.0391 337.723 83.6037 337.723 85.4472C337.723 87.2907 337.266 94.6513 337.266 94.6513C337.266 94.6513 346.47 96.0306 351.529 96.0306C356.589 96.0306 365.335 95.5731 365.335 95.5731C365.335 95.5731 364.878 79.4659 365.793 78.0867C366.715 76.7074 367.172 69.3401 367.172 69.3401C367.172 69.3401 340.946 67.4966 339.102 67.0391Z" fill="white" stroke="black" stroke-miterlimit="10" stroke-linecap="round" stroke-linejoin="round"/>
<path opacity="0.3" d="M349.228 103.859C349.228 103.859 349.228 113.063 349.228 114.907C349.228 116.75 348.307 130.092 348.307 130.092C348.307 130.092 360.269 130.55 364.871 130.092C369.473 129.635 378.677 126.869 378.677 126.869L377.298 112.141L376.376 102.016C376.376 102.016 354.288 105.238 349.228 103.859Z" fill="white" stroke="black" stroke-miterlimit="10" stroke-linecap="round" stroke-linejoin="round"/>
<path opacity="0.3" d="M418.717 41.7275L408.134 42.185H402.61C402.61 42.185 402.61 47.7088 402.61 50.0099C402.61 52.3109 402.152 59.6715 402.152 61.0575C402.152 62.4367 409.513 63.3585 412.736 63.3585C415.958 63.3585 424.241 63.3585 424.241 63.3585L424.698 40.8125L418.717 41.7275Z" fill="white" stroke="black" stroke-miterlimit="10" stroke-linecap="round" stroke-linejoin="round"/>
<g opacity="0.5">
<path opacity="0.5" d="M392.025 91.4297H411.813" stroke="black" stroke-miterlimit="10" stroke-linecap="round" stroke-linejoin="round"/>
<path opacity="0.5" d="M392.025 96.0312H411.813" stroke="black" stroke-miterlimit="10" stroke-linecap="round" stroke-linejoin="round"/>
<path opacity="0.5" d="M392.025 100.641H411.813" stroke="black" stroke-miterlimit="10" stroke-linecap="round" stroke-linejoin="round"/>
<path opacity="0.5" d="M392.025 105.234H411.813" stroke="black" stroke-miterlimit="10" stroke-linecap="round" stroke-linejoin="round"/>
</g>
<g opacity="0.5">
<path opacity="0.5" d="M289.865 38.9688H355.209" stroke="black" stroke-miterlimit="10" stroke-linecap="round" stroke-linejoin="round"/>
<path opacity="0.5" d="M289.865 43.5703H355.209" stroke="black" stroke-miterlimit="10" stroke-linecap="round" stroke-linejoin="round"/>
</g>
<g opacity="0.5">
<path opacity="0.5" d="M356.588 139.289H376.375" stroke="black" stroke-miterlimit="10" stroke-linecap="round" stroke-linejoin="round"/>
<path opacity="0.5" d="M356.588 143.891H376.375" stroke="black" stroke-miterlimit="10" stroke-linecap="round" stroke-linejoin="round"/>
<path opacity="0.5" d="M356.588 148.5H376.375" stroke="black" stroke-miterlimit="10" stroke-linecap="round" stroke-linejoin="round"/>
<path opacity="0.5" d="M356.588 153.094H376.375" stroke="black" stroke-miterlimit="10" stroke-linecap="round" stroke-linejoin="round"/>
</g>
<g opacity="0.5">
<path opacity="0.5" d="M233.719 108.914H253.506" stroke="black" stroke-miterlimit="10" stroke-linecap="round" stroke-linejoin="round"/>
<path opacity="0.5" d="M233.719 113.516H253.506" stroke="black" stroke-miterlimit="10" stroke-linecap="round" stroke-linejoin="round"/>
<path opacity="0.5" d="M233.719 118.125H253.506" stroke="black" stroke-miterlimit="10" stroke-linecap="round" stroke-linejoin="round"/>
<path opacity="0.5" d="M233.719 122.719H253.506" stroke="black" stroke-miterlimit="10" stroke-linecap="round" stroke-linejoin="round"/>
</g>
<g opacity="0.5">
<path opacity="0.5" d="M373.16 50.9297H392.948" stroke="black" stroke-miterlimit="10" stroke-linecap="round" stroke-linejoin="round"/>
<path opacity="0.5" d="M373.16 55.5312H392.948" stroke="black" stroke-miterlimit="10" stroke-linecap="round" stroke-linejoin="round"/>
<path opacity="0.5" d="M373.16 60.1406H392.948" stroke="black" stroke-miterlimit="10" stroke-linecap="round" stroke-linejoin="round"/>
<path opacity="0.5" d="M373.16 64.7344H392.948" stroke="black" stroke-miterlimit="10" stroke-linecap="round" stroke-linejoin="round"/>
</g>
<path opacity="0.5" d="M300.698 94.8825L289.354 98.1254L292.274 100.655C286.966 104.147 275.73 110.135 268.369 104.053C258.506 95.9051 261.163 88.8608 261.278 88.5647L260.403 88.2082L259.535 87.8516C259.394 88.1947 256.178 96.4232 267.171 105.506C269.869 107.733 272.951 108.581 276.073 108.581C282.942 108.581 290.027 104.49 293.768 101.947L297.455 105.143L300.698 94.8825Z" fill="black"/>
<path opacity="0.5" d="M415.258 75.5124L411.982 64.5859L405.974 73.3258L409.304 74.1063L405.846 86.5802L407.662 87.0848L411.141 74.5436L415.258 75.5124Z" fill="black"/>
<path opacity="0.3" d="M264.554 55.071C264.554 53.5438 263.316 52.3125 261.796 52.3125C260.268 52.3125 259.037 53.5505 259.037 55.071C259.037 56.5983 260.275 57.8296 261.796 57.8296C263.316 57.8296 264.554 56.5916 264.554 55.071Z" fill="white" stroke="black" stroke-miterlimit="10" stroke-linecap="round" stroke-linejoin="round"/>
<path opacity="0.3" d="M315.169 72.5632C315.169 71.0359 313.931 69.8047 312.411 69.8047C310.89 69.8047 309.652 71.0427 309.652 72.5632C309.652 74.0905 310.89 75.3218 312.411 75.3218C313.931 75.3218 315.169 74.0838 315.169 72.5632Z" fill="#92E3A9" stroke="black" stroke-miterlimit="10" stroke-linecap="round" stroke-linejoin="round"/>
<path opacity="0.3" d="M354.288 71.1733C355.811 71.1733 357.046 69.9383 357.046 68.4148C357.046 66.8913 355.811 65.6562 354.288 65.6562C352.764 65.6562 351.529 66.8913 351.529 68.4148C351.529 69.9383 352.764 71.1733 354.288 71.1733Z" fill="white" stroke="black" stroke-miterlimit="10" stroke-linecap="round" stroke-linejoin="round"/>
<path opacity="0.3" d="M366.257 106.61C366.257 105.083 365.019 103.852 363.499 103.852C361.971 103.852 360.74 105.09 360.74 106.61C360.74 108.137 361.978 109.369 363.499 109.369C365.019 109.375 366.257 108.137 366.257 106.61Z" fill="white" stroke="black" stroke-miterlimit="10" stroke-linecap="round" stroke-linejoin="round"/>
<path opacity="0.3" d="M264.554 136.063C264.554 134.536 263.316 133.305 261.796 133.305C260.268 133.305 259.037 134.543 259.037 136.063C259.037 137.584 260.275 138.822 261.796 138.822C263.316 138.822 264.554 137.584 264.554 136.063Z" fill="#92E3A9" stroke="black" stroke-miterlimit="10" stroke-linecap="round" stroke-linejoin="round"/>
<path opacity="0.3" d="M413.655 44.4858C415.178 44.4858 416.414 43.2508 416.414 41.7273C416.414 40.2038 415.178 38.9688 413.655 38.9688C412.132 38.9688 410.896 40.2038 410.896 41.7273C410.896 43.2508 412.132 44.4858 413.655 44.4858Z" fill="#92E3A9" stroke="black" stroke-miterlimit="10" stroke-linecap="round" stroke-linejoin="round"/>
<path d="M466.838 67.6744C466.838 43.5701 445.728 24.2142 420.376 25.8991C399.238 27.3056 382.01 43.6676 380.22 64.04C379.21 75.6396 383.106 86.348 390.119 94.4524C396.511 101.847 400.003 111.176 400.003 120.799V126.536H446.911V120.799C446.911 111.176 450.389 101.861 456.781 94.4803C463.057 87.2253 466.838 77.8815 466.838 67.6744Z" fill="#F9CE80" stroke="#263238" stroke-width="2" stroke-miterlimit="10" stroke-linecap="round" stroke-linejoin="round"/>
<path d="M446.911 126.562H400.002V137.758H446.911V126.562Z" fill="#F9CE80" stroke="#263238" stroke-width="2" stroke-miterlimit="10" stroke-linecap="round" stroke-linejoin="round"/>
<path d="M440.087 148.983H406.813C403.047 148.983 399.988 146.031 399.988 142.397V137.773H446.897V142.397C446.911 146.031 443.852 148.983 440.087 148.983Z" fill="#F9CE80" stroke="#263238" stroke-width="2" stroke-miterlimit="10" stroke-linecap="round" stroke-linejoin="round"/>
<path d="M431.747 160.165H415.183C410.075 160.165 405.934 156.168 405.934 151.239V148.969H440.996V151.239C440.996 156.168 436.855 160.165 431.747 160.165Z" fill="#F9CE80" stroke="#263238" stroke-width="2" stroke-miterlimit="10" stroke-linecap="round" stroke-linejoin="round"/>
<path d="M473 67.8984H492.883" stroke="#263238" stroke-width="2" stroke-miterlimit="10" stroke-linecap="round" stroke-linejoin="round"/>
<path d="M352.172 67.8984H372.3" stroke="#263238" stroke-width="2" stroke-miterlimit="10" stroke-linecap="round" stroke-linejoin="round"/>
<path d="M422.527 19.2306V0" stroke="#263238" stroke-width="2" stroke-miterlimit="10" stroke-linecap="round" stroke-linejoin="round"/>
<path d="M458.557 33.1334L472.279 19.8906" stroke="#263238" stroke-width="2" stroke-miterlimit="10" stroke-linecap="round" stroke-linejoin="round"/>
<path d="M372.777 115.914L386.701 102.477" stroke="#263238" stroke-width="2" stroke-miterlimit="10" stroke-linecap="round" stroke-linejoin="round"/>
<path d="M386.095 32.7435L372.777 19.8906" stroke="#263238" stroke-width="2" stroke-miterlimit="10" stroke-linecap="round" stroke-linejoin="round"/>
<path d="M472.279 115.913L459.004 103.102" stroke="#263238" stroke-width="2" stroke-miterlimit="10" stroke-linecap="round" stroke-linejoin="round"/>
<path d="M222.455 200.146V208.304H267.634V329.879H271.79V208.304L460.467 209.235V329.879H464.547V209.013L493.665 209.243V199.438L222.455 200.146Z" fill="#263238"/>
<path d="M251.368 206.711L269.179 219.537L267.634 221.022L249.67 207.496L251.368 206.711Z" fill="#263238"/>
<path d="M481.333 207.914L460.664 222.635L462.217 224.12L483.032 208.699L481.333 207.914Z" fill="#263238"/>
<path d="M334.848 197.133H288.15V200.572H334.848V197.133Z" fill="#263238"/>
<path d="M196.417 178.809L218.708 254.019C219.19 255.646 220.184 257.075 221.544 258.091C222.903 259.108 224.554 259.658 226.252 259.66L316.712 259.907C317.85 259.91 318.976 259.681 320.022 259.233C321.068 258.786 322.012 258.131 322.797 257.306C323.581 256.482 324.189 255.507 324.584 254.44C324.978 253.373 325.151 252.236 325.092 251.1C324.976 248.962 324.046 246.949 322.492 245.476C320.938 244.003 318.879 243.182 316.737 243.18H282.149L254.448 166.008H205.958C204.407 166.007 202.877 166.368 201.491 167.063C200.104 167.759 198.899 168.768 197.972 170.012C197.045 171.256 196.422 172.699 196.152 174.226C195.882 175.753 195.973 177.323 196.417 178.809Z" fill="#4B5255"/>
<path d="M272.949 249.363C272.949 249.542 263.724 249.678 252.348 249.678C240.973 249.678 231.756 249.542 231.756 249.363C231.756 249.183 240.973 249.047 252.348 249.047C263.724 249.047 272.949 249.183 272.949 249.363Z" fill="#263238"/>
<path d="M203.074 168.383C203.236 168.332 209.398 186.347 216.831 208.629C224.264 230.911 230.144 249.02 229.982 249.072C229.819 249.123 223.658 231.15 216.225 208.825C208.792 186.501 202.903 168.443 203.074 168.383Z" fill="#263238"/>
<path d="M269.187 326.528L263.674 326.4V259.664H269.187V326.528Z" fill="#4B5255"/>
<path d="M240.777 326.222H292.092L268.846 318.141H263.333L240.777 326.222Z" fill="#4B5255"/>
<path d="M227.795 148.741L236.286 191.164L234.767 222.953L291.842 213.463L289.606 185.642L289.538 162.6L303.534 189.721L314.423 168.668L294.479 132.527C290.848 128.732 286.38 125.838 281.431 124.078C278.802 123.131 276.04 122.601 273.247 122.508C266.819 124.543 259.919 124.543 253.491 122.508C252.689 122.61 251.579 122.721 250.171 122.883H249.915C244.045 123.628 238.622 126.412 234.596 130.748C230.57 135.085 228.196 140.698 227.889 146.608L227.795 148.741Z" fill="#4CAF52"/>
<path d="M250.189 122.891C250.189 122.891 226.737 123.07 223.836 147.835L223.443 166.013L243.635 165.842L250.189 122.891Z" fill="#4CAF52"/>
<path d="M306.215 154.745C306.215 154.925 287.765 155.07 265.005 155.07C242.244 155.07 223.828 154.916 223.828 154.745C223.828 154.575 242.27 154.43 265.039 154.43C287.807 154.43 306.215 154.575 306.215 154.745Z" fill="#FAFAFA"/>
<path d="M306.214 158.684C306.214 158.854 287.764 158.999 265.003 158.999C242.243 158.999 223.793 158.854 223.793 158.684C223.793 158.513 242.235 158.359 265.003 158.359C287.772 158.359 306.214 158.504 306.214 158.684Z" fill="#FAFAFA"/>
<path d="M304.901 151.503C304.901 151.682 286.749 151.828 264.356 151.828C241.963 151.828 223.828 151.674 223.828 151.503C223.828 151.333 241.98 151.188 264.382 151.188C286.783 151.188 304.901 151.324 304.901 151.503Z" fill="#FAFAFA"/>
<path d="M289.259 189.712C289.08 189.712 289.157 179.667 289.43 167.293C289.703 154.919 290.07 144.883 290.24 144.883C290.411 144.883 290.343 154.927 290.07 167.302C289.797 179.676 289.43 189.712 289.259 189.712Z" fill="#263238"/>
<path d="M281.236 173.43C281.236 173.43 292.33 174.223 294.327 177.159C296.324 180.095 299.371 188.449 298.219 188.509C297.502 188.536 296.797 188.316 296.222 187.886L293.184 182.493C293.184 182.493 293.67 187.698 291.853 187.801C290.035 187.903 281.006 189.712 281.006 189.712L281.236 173.43Z" fill="#FFBE9D"/>
<path d="M223.453 161.163L223.41 189.76C223.495 191.331 223.921 192.865 224.657 194.256C225.393 195.646 226.422 196.86 227.674 197.814C228.925 198.767 230.369 199.438 231.905 199.779C233.441 200.119 235.032 200.123 236.57 199.788L281.296 190.571L281.202 172.232L242.603 179.665L242.091 160.25L223.453 161.163Z" fill="#4CAF52"/>
<path d="M248.969 197.495C249.16 197.425 249.357 197.371 249.557 197.333L251.264 196.94L257.835 195.549L281.142 190.762L280.911 191.035C280.911 185.283 280.911 178.916 280.911 172.2L281.287 172.516L273.418 174.026L242.696 179.872L242.363 179.94V179.667C242.653 171.133 242.901 164.067 243.072 159.049C243.174 156.609 243.251 154.671 243.311 153.289C243.311 152.666 243.37 152.162 243.396 151.778C243.396 151.603 243.416 151.429 243.456 151.258C243.467 151.431 243.467 151.605 243.456 151.778C243.456 152.171 243.456 152.632 243.456 153.297C243.456 154.68 243.404 156.617 243.37 159.058C243.251 164.084 243.089 171.168 242.892 179.676L242.568 179.411L273.29 173.438L281.159 171.936L281.534 171.859V172.243C281.534 178.959 281.534 185.325 281.534 191.077V191.316L281.304 191.359L257.963 195.882L251.358 197.119L249.609 197.427C249.398 197.473 249.184 197.495 248.969 197.495Z" fill="#263238"/>
<path d="M274.623 122.89C274.623 122.89 274.708 123.026 274.802 123.308C274.95 123.719 275.067 124.142 275.152 124.571C275.461 126.17 275.388 127.819 274.938 129.384C274.246 131.705 272.901 133.779 271.064 135.358C268.828 137.362 265.925 138.46 262.923 138.438C261.43 138.463 259.948 138.186 258.566 137.625C257.183 137.063 255.928 136.228 254.875 135.17C253.204 133.391 252.153 131.119 251.88 128.693C251.679 127.075 251.872 125.432 252.443 123.905C252.594 123.495 252.786 123.1 253.015 122.727C253.168 122.471 253.254 122.343 253.279 122.352C253.305 122.36 253.006 122.924 252.673 123.99C252.22 125.494 252.101 127.078 252.323 128.633C252.647 130.936 253.685 133.08 255.293 134.76C256.299 135.749 257.492 136.527 258.802 137.048C260.112 137.57 261.513 137.825 262.923 137.798C265.771 137.822 268.528 136.798 270.671 134.923C272.457 133.424 273.787 131.455 274.512 129.239C274.978 127.738 275.112 126.154 274.904 124.596C274.759 123.504 274.554 122.907 274.623 122.89Z" fill="#263238"/>
<path d="M276.781 192.093C276.682 191.154 276.682 190.207 276.781 189.268C276.85 187.561 276.935 185.138 276.952 182.492C276.969 179.847 276.952 177.448 276.858 175.708C276.762 174.768 276.762 173.822 276.858 172.883C277.118 173.794 277.261 174.735 277.285 175.682C277.447 177.389 277.575 179.829 277.558 182.509C277.541 185.189 277.387 187.578 277.208 189.336C277.178 190.269 277.034 191.195 276.781 192.093Z" fill="#FAFAFA"/>
<path d="M274.468 192.568C274.348 191.638 274.322 190.697 274.391 189.761C274.391 187.789 274.434 185.494 274.459 183.028V176.26C274.394 175.326 274.428 174.388 274.562 173.461C274.793 174.37 274.91 175.305 274.912 176.243C275.023 177.95 275.116 180.365 275.099 183.002C275.082 185.639 274.98 188.028 274.843 189.761C274.833 190.709 274.707 191.651 274.468 192.568Z" fill="#FAFAFA"/>
<path d="M319.263 306.18L327.712 329.46L339.71 345.939C339.912 346.222 340.054 346.543 340.127 346.882C340.201 347.222 340.205 347.573 340.139 347.913C340.072 348.254 339.937 348.578 339.742 348.865C339.547 349.152 339.295 349.397 339.002 349.583C338.659 349.796 338.271 349.925 337.869 349.959C337.467 349.993 337.063 349.932 336.689 349.78C331.851 347.774 314.1 340.299 313.571 338.566C312.965 336.552 301.504 311.513 301.504 311.513L319.263 306.18Z" fill="#2D3234"/>
<g opacity="0.6">
<path opacity="0.6" d="M339.037 349.587L313 337.008L313.384 337.989C313.706 338.827 314.31 339.527 315.091 339.969C317.224 341.121 323.198 344.168 336.622 349.809C337.007 349.968 337.425 350.032 337.84 349.993C338.255 349.954 338.654 349.815 339.003 349.587H339.037Z" fill="white"/>
</g>
<g opacity="0.6">
<path opacity="0.6" d="M314.81 327.732C315.174 327.828 315.49 328.056 315.696 328.371C315.902 328.686 315.985 329.066 315.928 329.438C315.844 329.81 315.62 330.135 315.301 330.345C314.983 330.555 314.596 330.634 314.221 330.565C313.833 330.462 313.497 330.218 313.279 329.88C313.061 329.542 312.977 329.135 313.044 328.739C313.173 328.365 313.44 328.055 313.792 327.874C314.143 327.693 314.551 327.654 314.93 327.766" fill="white"/>
</g>
<path d="M329.803 341.562C330.079 340.632 330.531 339.763 331.134 339.002C332.218 337.79 333.618 337.611 333.592 337.457C333.566 337.304 333.225 337.329 332.653 337.457C331.914 337.659 331.247 338.066 330.729 338.631C330.211 339.195 329.863 339.895 329.726 340.649C329.649 341.212 329.743 341.562 329.803 341.562Z" fill="#263238"/>
<path d="M332.655 344.005C332.8 344.064 333.252 343.023 334.31 342.213C334.999 341.78 335.714 341.393 336.452 341.052C336.452 340.907 335.172 340.847 333.977 341.786C332.783 342.725 332.51 343.988 332.655 344.005Z" fill="#263238"/>
<path d="M325.203 338.781C325.356 338.849 326.056 337.253 327.575 335.854C329.094 334.454 330.741 333.874 330.69 333.72C330.639 333.567 328.838 333.925 327.208 335.427C325.578 336.929 325.066 338.764 325.203 338.781Z" fill="#263238"/>
<path d="M322.045 331.922C322.156 332.041 323.223 331.008 324.862 330.3C326.5 329.592 327.968 329.447 327.959 329.319C327.951 329.191 326.389 329.029 324.64 329.805C322.89 330.582 321.969 331.845 322.045 331.922Z" fill="#263238"/>
<path d="M319.408 325.159C319.528 325.262 320.509 323.999 322.293 323.393C324.076 322.787 325.621 323.128 325.655 322.975C325.689 322.821 325.305 322.719 324.657 322.616C323.801 322.505 322.931 322.596 322.116 322.88C321.301 323.165 320.564 323.635 319.963 324.255C319.502 324.75 319.332 325.117 319.408 325.159Z" fill="#263238"/>
<path d="M321.739 322.115C321.692 321.812 321.585 321.522 321.423 321.262C321.036 320.493 320.499 319.808 319.844 319.248C319.403 318.787 318.82 318.487 318.189 318.394C317.979 318.386 317.771 318.441 317.594 318.554C317.417 318.667 317.279 318.832 317.199 319.026C317.054 319.405 317.054 319.825 317.199 320.204C317.549 320.973 318.16 321.593 318.924 321.955C319.687 322.318 320.554 322.399 321.372 322.184C322.167 321.965 322.879 321.515 323.417 320.891C323.955 320.266 324.295 319.495 324.393 318.676C324.417 318.47 324.397 318.262 324.333 318.065C324.27 317.867 324.165 317.686 324.026 317.533C323.867 317.394 323.67 317.308 323.46 317.287C323.251 317.265 323.04 317.309 322.857 317.413C322.338 317.76 321.92 318.236 321.645 318.796C321.223 319.542 320.935 320.357 320.791 321.202C320.721 321.511 320.721 321.832 320.791 322.141C321.047 321.038 321.467 319.979 322.037 319C322.298 318.526 322.67 318.122 323.121 317.823C323.22 317.761 323.336 317.733 323.451 317.744C323.567 317.755 323.676 317.804 323.761 317.882C323.846 317.988 323.907 318.11 323.942 318.241C323.978 318.372 323.986 318.508 323.966 318.642C323.858 319.345 323.551 320.003 323.08 320.537C322.61 321.071 321.996 321.459 321.312 321.654C320.629 321.829 319.906 321.766 319.263 321.474C318.621 321.182 318.097 320.68 317.779 320.05C317.651 319.784 317.626 319.48 317.711 319.197C317.754 319.088 317.829 318.996 317.927 318.934C318.025 318.871 318.141 318.84 318.257 318.847C318.785 318.925 319.277 319.163 319.665 319.53C320.502 320.263 321.204 321.138 321.739 322.115Z" fill="#263238"/>
<path d="M354.943 300.086L354.218 319.006C354.218 319.006 373.197 326.106 373.402 329.614L336.706 329.511L336.604 299.992L354.943 300.086Z" fill="#2D3234"/>
<g opacity="0.6">
<path opacity="0.6" d="M342.859 317.383C342.506 317.49 342.205 317.723 342.013 318.038C341.821 318.353 341.751 318.727 341.817 319.09C341.91 319.452 342.14 319.763 342.459 319.959C342.777 320.155 343.159 320.22 343.524 320.139C343.898 320.024 344.217 319.775 344.418 319.44C344.62 319.104 344.691 318.706 344.617 318.322C344.478 317.96 344.206 317.666 343.857 317.499C343.507 317.332 343.107 317.306 342.739 317.426" fill="white"/>
</g>
<g opacity="0.6">
<path opacity="0.6" d="M336.672 329.515V326.57L371.968 327.748C371.968 327.748 373.598 328.465 373.411 329.617L336.672 329.515Z" fill="white"/>
</g>
<path d="M354.807 318.826C354.807 319.005 353.911 319.09 353.024 319.679C352.136 320.268 351.667 321.01 351.505 320.933C351.343 320.857 351.607 319.824 352.691 319.15C353.775 318.476 354.85 318.663 354.807 318.826Z" fill="#263238"/>
<path d="M358.665 320.432C358.708 320.611 357.931 320.91 357.317 321.669C356.702 322.429 356.532 323.231 356.353 323.222C356.173 323.214 356.062 322.198 356.839 321.268C357.616 320.338 358.665 320.261 358.665 320.432Z" fill="#263238"/>
<path d="M360.833 325.041C360.671 325.041 360.423 324.187 360.893 323.206C361.362 322.224 362.19 321.832 362.267 321.985C362.344 322.139 361.823 322.66 361.413 323.47C361.004 324.281 361.012 325.024 360.833 325.041Z" fill="#263238"/>
<path d="M354.5 314.503C354.423 314.665 353.604 314.417 352.589 314.503C351.573 314.588 350.779 314.887 350.685 314.733C350.592 314.579 351.36 313.939 352.554 313.88C353.749 313.82 354.585 314.358 354.5 314.503Z" fill="#263238"/>
<g opacity="0.3">
<path opacity="0.3" d="M354.798 303.836L354.67 307.207L336.621 306.994L336.604 303.955L354.798 303.836Z" fill="black"/>
</g>
<path d="M354.576 310.68C353.972 310.841 353.337 310.841 352.733 310.68C352.072 310.556 351.428 310.356 350.813 310.083C350.447 309.92 350.094 309.732 349.755 309.519C349.55 309.401 349.364 309.254 349.2 309.084C349.083 308.956 349.013 308.792 348.999 308.619C348.985 308.446 349.028 308.274 349.123 308.128C349.213 308.004 349.331 307.902 349.467 307.831C349.604 307.76 349.755 307.721 349.908 307.719C350.142 307.718 350.376 307.752 350.599 307.821C350.991 307.92 351.374 308.051 351.743 308.214C352.368 308.494 352.944 308.871 353.45 309.332C354.303 310.125 354.593 310.791 354.534 310.834C354.474 310.876 354.039 310.33 353.168 309.673C352.665 309.292 352.115 308.979 351.53 308.743C351.19 308.604 350.839 308.496 350.48 308.419C350.087 308.308 349.755 308.308 349.627 308.478C349.499 308.649 349.584 308.572 349.627 308.683C349.748 308.81 349.885 308.919 350.036 309.007C350.349 309.212 350.674 309.397 351.009 309.562C351.579 309.844 352.173 310.072 352.784 310.245C353.392 310.343 353.991 310.488 354.576 310.68Z" fill="#263238"/>
<path d="M354.338 310.937C353.999 310.406 353.832 309.783 353.86 309.154C353.833 308.473 353.92 307.792 354.116 307.14C354.24 306.757 354.397 306.386 354.586 306.03C354.688 305.791 354.85 305.581 355.056 305.421C355.262 305.262 355.506 305.157 355.763 305.117C355.927 305.12 356.086 305.17 356.223 305.26C356.359 305.351 356.466 305.479 356.531 305.629C356.624 305.847 356.687 306.077 356.719 306.312C356.783 306.722 356.783 307.139 356.719 307.549C356.613 308.236 356.34 308.886 355.925 309.444C355.209 310.391 354.458 310.605 354.441 310.545C354.424 310.485 355.012 310.11 355.559 309.196C355.879 308.678 356.08 308.095 356.147 307.49C356.198 307.136 356.198 306.777 356.147 306.423C356.096 306.039 355.951 305.723 355.806 305.757C355.661 305.791 355.311 306.047 355.157 306.363C354.976 306.679 354.822 307.011 354.697 307.353C354.491 307.945 354.37 308.562 354.338 309.188C354.253 310.238 354.441 310.903 354.338 310.937Z" fill="#263238"/>
<path d="M336.638 209.401C314.936 211.645 286.168 214.598 286.168 214.598L290.094 249.92C290.094 249.92 332.354 238.749 332.055 239.679C331.756 240.609 334.018 314.829 334.018 314.829H359.466L359.944 230.744C359.989 227.759 359.401 224.798 358.218 222.056C357.036 219.315 355.286 216.855 353.084 214.838C350.882 212.822 348.278 211.295 345.444 210.358C342.609 209.42 339.608 209.094 336.638 209.401Z" fill="#263238"/>
<path d="M234.248 223.653V234.602C234.248 242.061 242.739 249.963 250.189 249.963H255.958C260.499 249.963 267.616 246.652 271.32 243.99L273.521 242.377L300.028 324.482C300.028 324.482 330.349 319.046 330.349 318.09C330.349 317.134 309.816 250.842 300.335 220.077C296.461 207.515 283.003 200.21 270.569 204.469C270.15 204.614 269.715 204.776 269.297 204.947C255.677 210.391 234.248 223.653 234.248 223.653Z" fill="#263238"/>
<path d="M330.313 318.08C330.261 317.988 330.218 317.891 330.185 317.79C330.092 317.56 329.981 317.27 329.844 316.937C329.554 316.16 329.136 315.017 328.641 313.523C327.625 310.562 326.234 306.235 324.544 300.884C321.131 290.191 316.625 275.368 311.692 258.983C309.235 250.781 306.905 242.973 304.771 235.855C303.713 232.305 302.715 228.926 301.776 225.76C301.298 224.178 300.843 222.656 300.41 221.194C300.025 219.785 299.564 218.397 299.028 217.038C298.068 214.727 296.611 212.656 294.761 210.97C293.357 209.692 291.857 208.525 290.272 207.48C288.975 206.627 287.942 205.97 287.234 205.543L286.44 205.039C286.343 204.991 286.254 204.927 286.176 204.852C286.279 204.883 286.376 204.929 286.466 204.988L287.319 205.432C288.045 205.824 289.103 206.43 290.426 207.275C292.049 208.282 293.585 209.424 295.017 210.689C296.941 212.379 298.463 214.479 299.472 216.833C300.026 218.203 300.505 219.601 300.905 221.023C301.358 222.483 301.819 224.01 302.305 225.589L305.36 235.659C307.502 242.768 309.858 250.577 312.332 258.769C317.265 275.129 321.72 289.944 324.997 300.731L328.905 313.421L329.998 316.834C330.109 317.201 330.194 317.491 330.271 317.73C330.348 317.969 330.331 318.08 330.313 318.08Z" fill="#4B5255"/>
<path d="M336.717 229.066C336.871 229.169 335.428 231.336 334.225 234.28C333.022 237.225 332.476 239.768 332.288 239.734C332.1 239.699 332.373 237.054 333.636 234.033C334.899 231.012 336.589 228.964 336.717 229.066Z" fill="#4B5255"/>
<path d="M341.598 232.473C341.667 232.643 339.482 233.608 337.203 235.408C334.925 237.209 333.457 239.095 333.303 238.984C333.15 238.873 334.43 236.765 336.811 234.913C339.192 233.062 341.539 232.319 341.598 232.473Z" fill="#4B5255"/>
<path d="M300.276 324.47C300.113 324.521 292.953 302.555 284.283 275.399C275.612 248.244 268.734 226.184 268.922 226.133C269.109 226.082 276.244 248.048 284.914 275.212C293.585 302.375 300.446 324.419 300.276 324.47Z" fill="#4B5255"/>
<path d="M267.752 196.389L354.5 197.225L370.68 151.5L307.58 151.927L292.936 193.043L267.752 193.427V196.389Z" fill="#4B5255"/>
<path d="M333.523 178.303C332.834 178.206 332.189 177.908 331.67 177.444C331.15 176.981 330.78 176.375 330.606 175.701C330.432 175.027 330.461 174.317 330.691 173.661C330.921 173.004 331.34 172.43 331.896 172.012C332.452 171.593 333.119 171.349 333.814 171.31C334.508 171.271 335.199 171.439 335.798 171.793C336.397 172.147 336.878 172.671 337.179 173.298C337.48 173.925 337.589 174.627 337.491 175.316C337.36 176.238 336.868 177.07 336.125 177.63C335.381 178.19 334.445 178.432 333.523 178.303Z" fill="white"/>
<path d="M260.668 72.6269C261.522 69.5803 263.783 68.0868 266.761 67.0713C268.261 66.5723 269.86 66.4436 271.42 66.6962C272.98 66.9489 274.456 67.5753 275.722 68.522C277.429 69.8021 278.709 71.654 280.706 72.3453C283.983 73.4803 287.823 71.031 290.947 72.4989C291.897 72.9314 292.666 73.6828 293.12 74.6227C293.574 75.5627 293.686 76.6319 293.434 77.6452C293.183 78.6585 292.585 79.552 291.744 80.1707C290.903 80.7894 289.873 81.0944 288.83 81.0328C290.964 81.818 291.629 84.8646 290.383 86.7677C289.138 88.6707 286.569 89.3876 284.324 88.9694C282.101 88.4275 280.068 87.2885 278.444 85.6753C276.738 84.1563 275.236 82.4324 273.427 81.0499C271.671 79.5641 269.446 78.7479 267.145 78.7457C264.065 78.9079 261.428 81.2291 260.054 83.9941C258.68 86.7591 258.347 89.8996 258.193 92.9804C258.04 96.0612 257.971 99.1846 257.058 102.129C256.947 102.479 256.785 102.863 256.444 102.982C255.94 103.136 255.514 102.607 255.266 102.129C252.461 96.914 250.707 91.1991 250.103 85.3084C249.753 81.8948 249.839 78.6689 251.716 75.793C253.594 72.917 258.33 70.8092 260.651 72.6269" fill="#263238"/>
<path d="M254.722 86.9059L253.143 121.434C252.879 127.306 253.69 135.993 262.992 135.993C271.065 135.379 273.446 127.835 273.693 122.339C273.804 119.779 273.907 117.577 273.941 117.312C273.941 117.312 282.765 116.886 283.797 108.215C284.292 104.025 284.651 95.3033 284.822 87.4179C284.923 83.3385 283.487 79.37 280.8 76.2989C278.113 73.2277 274.371 71.2781 270.314 70.8365L269.46 70.7511C260.355 70.3329 254.901 77.8087 254.722 86.9059Z" fill="#FFBE9D"/>
<path d="M273.965 117.202C269.949 116.852 266.128 115.313 262.99 112.781C262.99 112.781 264.996 119.31 273.743 119.455L273.965 117.202Z" fill="#EB996E"/>
<path d="M281.671 92.9838C281.641 93.3084 281.484 93.6082 281.235 93.8188C280.986 94.0294 280.665 94.134 280.34 94.1103C280.181 94.106 280.025 94.0698 279.88 94.0039C279.735 93.9381 279.606 93.8438 279.498 93.7268C279.391 93.6098 279.308 93.4724 279.254 93.3228C279.201 93.1732 279.178 93.0144 279.188 92.8558C279.218 92.5327 279.373 92.2343 279.62 92.0239C279.867 91.8136 280.187 91.7079 280.51 91.7293C280.67 91.7325 280.827 91.7678 280.973 91.8332C281.118 91.8985 281.249 91.9926 281.357 92.1097C281.466 92.2268 281.549 92.3646 281.603 92.5148C281.657 92.665 281.68 92.8245 281.671 92.9838Z" fill="#263238"/>
<path d="M282.498 91.4964C282.328 91.6414 281.466 90.8478 280.126 90.7112C278.786 90.5747 277.745 91.1379 277.617 90.9587C277.489 90.7795 277.745 90.6003 278.206 90.3357C278.826 89.9977 279.535 89.8577 280.237 89.9347C280.932 90.012 281.585 90.3112 282.097 90.788C282.473 91.1294 282.584 91.4366 282.498 91.4964Z" fill="#263238"/>
<path d="M268.538 92.0458C268.508 92.3704 268.351 92.6702 268.102 92.8808C267.853 93.0914 267.532 93.196 267.207 93.1723C267.048 93.1668 266.892 93.1299 266.747 93.0638C266.603 92.9976 266.473 92.9035 266.365 92.7869C266.257 92.6703 266.173 92.5334 266.119 92.3842C266.064 92.2351 266.039 92.0765 266.046 91.9178C266.081 91.5949 266.238 91.2977 266.486 91.0879C266.734 90.8781 267.053 90.7719 267.377 90.7913C267.536 90.7957 267.693 90.8318 267.838 90.8975C267.983 90.9633 268.114 91.0574 268.222 91.1743C268.33 91.2911 268.414 91.4284 268.468 91.5781C268.522 91.7278 268.546 91.8868 268.538 92.0458Z" fill="#263238"/>
<path d="M269.356 90.3492C269.185 90.4942 268.323 89.7006 266.983 89.5555C265.643 89.4104 264.602 89.9822 264.474 89.803C264.346 89.6238 264.602 89.4531 265.063 89.1885C265.682 88.8478 266.392 88.7077 267.094 88.7874C267.789 88.8689 268.44 89.1675 268.955 89.6408C269.33 89.9737 269.441 90.2809 269.356 90.3492Z" fill="#263238"/>
<path d="M273.146 100.759C273.873 100.611 274.616 100.557 275.357 100.597C275.707 100.597 276.031 100.597 276.116 100.341C276.179 99.9893 276.137 99.6275 275.997 99.2995C275.758 98.4461 275.519 97.5415 275.263 96.6027C274.256 92.7625 273.556 89.6134 273.718 89.5707C273.88 89.5281 274.819 92.6174 275.826 96.4577C276.065 97.4049 276.296 98.3095 276.509 99.1715C276.672 99.609 276.672 100.091 276.509 100.528C276.448 100.644 276.362 100.744 276.257 100.82C276.152 100.897 276.031 100.949 275.903 100.972C275.707 100.997 275.51 100.997 275.314 100.972C274.586 100.988 273.858 100.916 273.146 100.759Z" fill="#263238"/>
<path d="M269.126 101.266C269.339 101.266 269.194 102.726 270.32 103.886C271.447 105.047 273.009 105.047 273 105.252C272.991 105.456 272.625 105.499 271.967 105.448C271.118 105.366 270.323 104.988 269.723 104.381C269.149 103.798 268.825 103.015 268.818 102.196C268.827 101.591 269.057 101.249 269.126 101.266Z" fill="#263238"/>
<path d="M270.263 85.1532C270.092 85.5031 268.778 85.1532 267.19 85.2129C265.603 85.2727 264.297 85.5287 264.118 85.2129C264.05 85.0508 264.306 84.735 264.852 84.4363C265.579 84.0774 266.379 83.8906 267.19 83.8906C268.001 83.8906 268.802 84.0774 269.529 84.4363C270.075 84.6753 270.34 84.991 270.263 85.1532Z" fill="#263238"/>
<path d="M282.422 87.5857C282.158 87.8588 281.27 87.4492 280.169 87.3127C279.068 87.1761 278.104 87.3126 277.925 86.9628C277.84 86.8006 278.019 86.5105 278.463 86.263C279.046 85.9728 279.704 85.8685 280.349 85.9643C280.986 86.05 281.582 86.3301 282.055 86.7665C282.448 87.1164 282.542 87.4492 282.422 87.5857Z" fill="#263238"/>
<path d="M254.746 93.4071C254.601 93.3303 248.969 91.0091 248.525 96.9658C248.081 102.922 254.158 102.137 254.175 101.967C254.192 101.796 254.746 93.4071 254.746 93.4071Z" fill="#FFBE9D"/>
<path d="M252.529 99.5789C252.529 99.5789 252.418 99.6472 252.238 99.7154C251.983 99.7978 251.706 99.7826 251.462 99.6728C251.095 99.3984 250.808 99.0323 250.628 98.6112C250.448 98.1902 250.382 97.7292 250.438 97.2747C250.462 96.7646 250.599 96.2662 250.839 95.8154C250.91 95.6316 251.025 95.4679 251.174 95.3385C251.322 95.2091 251.5 95.118 251.692 95.0729C251.814 95.0526 251.938 95.0746 252.046 95.1352C252.153 95.1957 252.236 95.2913 252.281 95.4058C252.349 95.5765 252.281 95.6959 252.332 95.7045C252.383 95.713 252.469 95.6191 252.443 95.3631C252.42 95.2137 252.345 95.0774 252.23 94.9791C252.154 94.9105 252.065 94.8577 251.968 94.824C251.871 94.7903 251.769 94.7763 251.667 94.7828C251.418 94.8155 251.182 94.9109 250.98 95.0603C250.778 95.2096 250.618 95.4078 250.515 95.6362C250.227 96.1332 250.063 96.6924 250.037 97.2662C249.985 98.4695 250.515 99.6386 251.359 99.9544C251.516 100.011 251.683 100.032 251.848 100.016C252.013 100 252.173 99.9468 252.315 99.8605C252.503 99.724 252.546 99.5874 252.529 99.5789Z" fill="#EB996E"/>
<path d="M286.852 85.7938C284.877 86.0801 282.862 85.8945 280.972 85.2523C279.082 84.61 277.371 83.5293 275.98 82.0986C274.06 80.0846 272.703 77.3367 270.143 76.2358C269.265 75.9005 268.33 75.7422 267.391 75.7701C266.452 75.7979 265.528 76.0113 264.672 76.3979C262.963 77.186 261.434 78.3192 260.183 79.7262C261.387 84.3175 259.74 89.1135 258.11 93.5768C257.978 94.0924 257.678 94.5491 257.256 94.874C256.497 95.3433 255.49 94.8057 254.944 94.0974C254.161 92.8968 253.746 91.4939 253.749 90.0608C253.463 86.8125 253.828 83.5396 254.824 80.4345C255.836 77.3248 257.735 74.5783 260.286 72.5321C263.594 70.0892 267.723 69.0301 271.798 69.5793C275.852 70.132 279.627 71.9509 282.585 74.7765C284.017 76.0165 285.118 77.5947 285.785 79.3678" fill="#263238"/>
</g>
<defs>
<clipPath id="clip0_2474_1737">
<rect width="690" height="350" fill="white"/>
</clipPath>
</defs>
</svg>
