<svg width="690" height="350" viewBox="0 0 690 350" fill="none" xmlns="http://www.w3.org/2000/svg">
<g clip-path="url(#clip0_2454_4339)">
<path d="M501.346 308.839L453.057 334.781C448.864 337.033 441.534 336.752 436.721 334.154L390.781 309.466C385.941 306.867 385.418 302.941 389.602 300.689L437.891 274.763C442.083 272.512 449.414 272.792 454.227 275.39L500.176 300.079C505.006 302.66 505.529 306.587 501.346 308.839Z" fill="#E0E0E0"/>
<path d="M396.202 350.122C417.227 350.122 434.272 340.277 434.272 328.132C434.272 315.986 417.227 306.141 396.202 306.141C375.177 306.141 358.133 315.986 358.133 328.132C358.133 340.277 375.177 350.122 396.202 350.122Z" fill="#E0E0E0"/>
<path d="M211.192 322.878C231.732 322.878 248.384 313.934 248.384 302.9C248.384 291.866 231.732 282.922 211.192 282.922C190.651 282.922 174 291.866 174 302.9C174 313.934 190.651 322.878 211.192 322.878Z" fill="#E0E0E0"/>
<path d="M361.412 191.236L200.023 277.954C198.905 278.555 197.977 279.418 197.332 280.458C196.687 281.497 196.348 282.676 196.348 283.877C196.348 285.078 196.687 286.257 197.332 287.297C197.977 288.336 198.905 289.199 200.023 289.8L288.101 337.122C291.18 338.78 294.675 339.652 298.232 339.652C301.789 339.652 305.284 338.78 308.363 337.122L463.3 253.877C464.417 253.277 465.345 252.413 465.99 251.374C466.635 250.334 466.975 249.155 466.975 247.954C466.975 246.754 466.635 245.574 465.99 244.535C465.345 243.495 464.417 242.632 463.3 242.032L368.769 191.236C367.65 190.636 366.382 190.32 365.09 190.32C363.799 190.32 362.531 190.636 361.412 191.236Z" fill="#E0E0E0"/>
<path d="M313.523 332.838C312.619 333.265 311.62 333.488 310.607 333.488C309.593 333.488 308.594 333.265 307.69 332.838C306.077 331.972 306.077 330.57 307.69 329.704C308.594 329.277 309.593 329.055 310.607 329.055C311.62 329.055 312.619 329.277 313.523 329.704C315.136 330.57 315.136 331.972 313.523 332.838Z" fill="#455A64"/>
<path d="M314.744 245.172H306.492V331.181H314.744V245.172Z" fill="#455A64"/>
<path d="M216.784 281.206C215.881 281.632 214.882 281.855 213.868 281.855C212.855 281.855 211.856 281.632 210.952 281.206C209.339 280.339 209.339 278.937 210.952 278.071C211.856 277.644 212.855 277.422 213.868 277.422C214.882 277.422 215.881 277.644 216.784 278.071C218.398 278.937 218.398 280.339 216.784 281.206Z" fill="#455A64"/>
<path d="M217.998 193.531H209.746V279.54H217.998V193.531Z" fill="#455A64"/>
<path d="M457.237 254.838C456.334 255.265 455.335 255.488 454.321 255.488C453.308 255.488 452.309 255.265 451.405 254.838C449.792 254.014 449.792 252.57 451.405 251.704C452.309 251.277 453.308 251.055 454.321 251.055C455.335 251.055 456.334 251.277 457.237 251.704C458.851 252.57 458.851 253.972 457.237 254.838Z" fill="#455A64"/>
<path d="M458.447 167.18H450.195V253.189H458.447V167.18Z" fill="#455A64"/>
<path d="M360.499 203.198C359.595 203.625 358.596 203.847 357.583 203.847C356.57 203.847 355.571 203.625 354.667 203.198C353.054 202.332 353.054 200.929 354.667 200.063C355.571 199.636 356.57 199.414 357.583 199.414C358.596 199.414 359.595 199.636 360.499 200.063C362.112 200.929 362.112 202.332 360.499 203.198Z" fill="#455A64"/>
<path d="M361.717 115.539H353.465V201.548H361.717V115.539Z" fill="#455A64"/>
<path d="M188.996 194.508V199.589L298.232 258.287V253.197L188.996 194.508Z" fill="#4E4E4E"/>
<path opacity="0.3" d="M188.996 194.508V199.589L298.232 258.287V253.197L188.996 194.508Z" fill="black"/>
<path d="M474.328 158.586L298.234 253.198V258.288L474.328 163.667V158.586Z" fill="#4E4E4E"/>
<path opacity="0.3" d="M474.328 158.586L298.234 253.198V258.288L474.328 163.667V158.586Z" fill="white"/>
<path d="M365.09 99.8984L188.996 194.511L298.232 253.2L474.326 158.588L365.09 99.8984Z" fill="#4E4E4E"/>
<path d="M185.219 250.391V300.056C185.219 303.784 187.878 307.48 193.196 310.375C203.832 316.075 221.001 316.075 231.611 310.375C236.929 307.521 239.588 303.776 239.588 300.056V250.391H185.219Z" fill="#37474F"/>
<path d="M212.386 264.762C227.39 264.762 239.553 258.229 239.553 250.17C239.553 242.111 227.39 235.578 212.386 235.578C197.382 235.578 185.219 242.111 185.219 250.17C185.219 258.229 197.382 264.762 212.386 264.762Z" fill="#455A64"/>
<path d="M231 257.042C230.167 257.679 229.277 258.25 228.341 258.749C228.163 258.848 227.977 258.947 227.782 259.038C226.552 259.651 225.272 260.173 223.953 260.597C223.43 260.762 222.881 260.927 222.331 261.059C221.076 261.411 219.796 261.687 218.502 261.884C217.394 262.057 216.26 262.181 215.134 262.255C214.673 262.255 214.248 262.313 213.76 262.321C212.874 262.321 211.987 262.321 211.172 262.321C210.099 262.321 209.027 262.23 207.972 262.115C206.624 261.978 205.285 261.763 203.966 261.471C203.434 261.356 202.92 261.24 202.406 261.092C200.307 260.559 198.288 259.783 196.396 258.782C195.579 258.346 194.797 257.855 194.056 257.314C188.906 253.503 188.41 248.447 192.54 244.388C193.671 243.292 194.971 242.358 196.396 241.617C197.976 240.777 199.649 240.099 201.386 239.596C201.714 239.488 202.069 239.39 202.406 239.307C203.331 239.057 204.268 238.851 205.216 238.688C206.244 238.507 207.281 238.358 208.344 238.259C211.728 237.927 215.144 238.016 218.502 238.523L218.812 238.565C220.009 238.747 221.193 238.995 222.358 239.307C223.973 239.717 225.543 240.27 227.047 240.957C227.499 241.155 227.933 241.377 228.367 241.608C229.051 241.973 229.711 242.375 230.344 242.813C231.281 243.462 232.129 244.216 232.87 245.056C236.185 248.884 235.591 253.486 231 257.042Z" fill="#263238"/>
<path d="M213.219 185.938V201.346H221.71V190.862C221.71 190.862 218.546 186.564 213.219 185.938Z" fill="#6D65F5"/>
<path opacity="0.3" d="M213.219 185.938V201.346H221.71V190.862C221.71 190.862 218.546 186.564 213.219 185.938Z" fill="white"/>
<path d="M218.518 189.797V261.865C217.41 262.039 216.276 262.162 215.15 262.237C214.689 262.237 214.264 262.294 213.776 262.303C212.89 262.303 212.003 262.303 211.188 262.303C210.116 262.303 209.043 262.212 207.988 262.096C206.64 261.96 205.302 261.745 203.982 261.453C203.45 261.338 202.936 261.222 202.422 261.074V189.797H218.518Z" fill="#6D65F5"/>
<path opacity="0.7" d="M218.518 189.797V261.865C217.41 262.039 216.276 262.162 215.15 262.237C214.689 262.237 214.264 262.294 213.776 262.303C212.89 262.303 212.003 262.303 211.188 262.303C210.116 262.303 209.043 262.212 207.988 262.096C206.64 261.96 205.302 261.745 203.982 261.453C203.45 261.338 202.936 261.222 202.422 261.074V189.797H218.518Z" fill="white"/>
<path d="M222.348 192.211V261.063C221.093 261.415 219.814 261.691 218.519 261.887C217.411 262.061 216.277 262.184 215.151 262.259C214.69 262.259 214.265 262.316 213.777 262.325V198.125C215.445 197.895 217.053 197.381 218.519 196.607C219.85 195.922 220.956 194.912 221.719 193.687C222.015 193.231 222.228 192.732 222.348 192.211Z" fill="#6D65F5"/>
<path opacity="0.5" d="M222.348 192.211V261.063C221.093 261.415 219.814 261.691 218.519 261.887C217.411 262.061 216.277 262.184 215.151 262.259C214.69 262.259 214.265 262.316 213.777 262.325V198.125C215.445 197.895 217.053 197.381 218.519 196.607C219.85 195.922 220.956 194.912 221.719 193.687C222.015 193.231 222.228 192.732 222.348 192.211Z" fill="white"/>
<path d="M214.179 198.428C214.08 198.426 213.985 198.389 213.912 198.325C213.84 198.261 213.795 198.175 213.786 198.082C213.777 197.99 213.805 197.898 213.865 197.823C213.924 197.749 214.011 197.697 214.109 197.678C215.609 197.424 217.053 196.939 218.381 196.243C220.419 195.154 221.536 193.718 221.536 192.217C221.536 190.716 220.419 189.281 218.381 188.184C215.953 186.978 213.234 186.373 210.483 186.427C210.425 186.435 210.366 186.431 210.31 186.416C210.254 186.401 210.201 186.374 210.157 186.339C210.113 186.303 210.077 186.259 210.053 186.209C210.028 186.16 210.016 186.106 210.016 186.051C210.016 185.997 210.028 185.943 210.053 185.893C210.077 185.844 210.113 185.8 210.157 185.764C210.201 185.728 210.254 185.702 210.31 185.687C210.366 185.672 210.425 185.668 210.483 185.676C213.38 185.621 216.243 186.26 218.797 187.532C221.093 188.769 222.343 190.427 222.343 192.217C222.343 194.007 221.075 195.665 218.797 196.902C217.387 197.635 215.857 198.148 214.268 198.42L214.179 198.428Z" fill="#6D65F5"/>
<path opacity="0.5" d="M214.179 198.428C214.08 198.426 213.985 198.389 213.912 198.325C213.84 198.261 213.795 198.175 213.786 198.082C213.777 197.99 213.805 197.898 213.865 197.823C213.924 197.749 214.011 197.697 214.109 197.678C215.609 197.424 217.053 196.939 218.381 196.243C220.419 195.154 221.536 193.718 221.536 192.217C221.536 190.716 220.419 189.281 218.381 188.184C215.953 186.978 213.234 186.373 210.483 186.427C210.425 186.435 210.366 186.431 210.31 186.416C210.254 186.401 210.201 186.374 210.157 186.339C210.113 186.303 210.077 186.259 210.053 186.209C210.028 186.16 210.016 186.106 210.016 186.051C210.016 185.997 210.028 185.943 210.053 185.893C210.077 185.844 210.113 185.8 210.157 185.764C210.201 185.728 210.254 185.702 210.31 185.687C210.366 185.672 210.425 185.668 210.483 185.676C213.38 185.621 216.243 186.26 218.797 187.532C221.093 188.769 222.343 190.427 222.343 192.217C222.343 194.007 221.075 195.665 218.797 196.902C217.387 197.635 215.857 198.148 214.268 198.42L214.179 198.428Z" fill="white"/>
<path d="M216.163 186.948C219.309 188.598 219.309 191.369 216.163 193.06C214.4 193.894 212.45 194.329 210.472 194.329C208.495 194.329 206.545 193.894 204.782 193.06C201.635 191.411 201.635 188.631 204.782 186.948C206.545 186.114 208.495 185.68 210.472 185.68C212.45 185.68 214.4 186.114 216.163 186.948Z" fill="#6D65F5"/>
<path opacity="0.5" d="M216.163 186.948C219.309 188.598 219.309 191.369 216.163 193.06C214.4 193.894 212.45 194.329 210.472 194.329C208.495 194.329 206.545 193.894 204.782 193.06C201.635 191.411 201.635 188.631 204.782 186.948C206.545 186.114 208.495 185.68 210.472 185.68C212.45 185.68 214.4 186.114 216.163 186.948Z" fill="white"/>
<path d="M231.042 212.422L229.27 223.855L235.554 224.679L236.768 216.893C235.547 214.774 233.497 213.173 231.042 212.422Z" fill="#6D65F5"/>
<path opacity="0.3" d="M231.042 212.422L229.27 223.855L235.554 224.679L236.768 216.893C235.547 214.774 233.497 213.173 231.042 212.422Z" fill="white"/>
<path d="M234.531 215.802L233.795 220.512L233.742 220.85V221.155L233.237 224.381L230.383 242.783L227.848 259.033C226.618 259.647 225.337 260.168 224.019 260.592C223.496 260.757 222.946 260.922 222.396 261.054C221.141 261.407 219.862 261.682 218.567 261.879C217.459 262.052 216.325 262.176 215.199 262.25L218.567 240.54L218.878 238.56L222.423 215.926L222.689 214.227L230.666 215.307L234.575 215.835L234.531 215.802Z" fill="#6D65F5"/>
<path opacity="0.7" d="M234.531 215.802L233.795 220.512L233.742 220.85V221.155L233.237 224.381L230.383 242.783L227.848 259.033C226.618 259.647 225.337 260.168 224.019 260.592C223.496 260.757 222.946 260.922 222.396 261.054C221.141 261.407 219.862 261.682 218.567 261.879C217.459 262.052 216.325 262.176 215.199 262.25L218.567 240.54L218.878 238.56L222.423 215.926L222.689 214.227L230.666 215.307L234.575 215.835L234.531 215.802Z" fill="white"/>
<path d="M237.071 217.984L232.861 245.065L231 257.075C230.166 257.712 229.277 258.284 228.341 258.782C228.163 258.881 227.977 258.98 227.782 259.071C226.552 259.684 225.272 260.206 223.953 260.63L227.038 240.94L229.697 223.923L230.069 221.507C231.327 221.5 232.573 221.282 233.747 220.863C234.796 220.488 235.715 219.855 236.407 219.032C236.687 218.718 236.912 218.365 237.071 217.984Z" fill="#6D65F5"/>
<path opacity="0.5" d="M237.071 217.984L232.861 245.065L231 257.075C230.166 257.712 229.277 258.284 228.341 258.782C228.163 258.881 227.977 258.98 227.782 259.071C226.552 259.684 225.272 260.206 223.953 260.63L227.038 240.94L229.697 223.923L230.069 221.507C231.327 221.5 232.573 221.282 233.747 220.863C234.796 220.488 235.715 219.855 236.407 219.032C236.687 218.718 236.912 218.365 237.071 217.984Z" fill="white"/>
<path d="M230.32 221.76C230.25 221.752 230.186 221.721 230.138 221.673C230.091 221.624 230.064 221.562 230.063 221.496C230.06 221.459 230.066 221.423 230.079 221.388C230.092 221.353 230.112 221.321 230.138 221.293C230.165 221.265 230.197 221.243 230.232 221.227C230.268 221.211 230.307 221.201 230.346 221.199C231.487 221.159 232.613 220.945 233.679 220.564C235.31 219.962 236.338 219.013 236.48 217.9C236.622 216.786 235.984 215.615 234.61 214.6C232.946 213.47 231 212.751 228.955 212.514C228.913 212.511 228.872 212.501 228.835 212.483C228.798 212.465 228.765 212.44 228.739 212.41C228.713 212.38 228.693 212.345 228.682 212.307C228.672 212.27 228.669 212.231 228.675 212.192C228.681 212.154 228.696 212.117 228.718 212.084C228.741 212.051 228.77 212.023 228.805 212.001C228.839 211.979 228.878 211.965 228.92 211.958C228.961 211.951 229.003 211.952 229.043 211.961C231.194 212.207 233.239 212.966 234.982 214.163C236.533 215.302 237.278 216.638 237.074 217.982C236.87 219.327 235.744 220.408 233.901 221.092C232.767 221.498 231.569 221.724 230.355 221.76H230.32Z" fill="#6D65F5"/>
<path opacity="0.5" d="M230.32 221.76C230.25 221.752 230.186 221.721 230.138 221.673C230.091 221.624 230.064 221.562 230.063 221.496C230.06 221.459 230.066 221.423 230.079 221.388C230.092 221.353 230.112 221.321 230.138 221.293C230.165 221.265 230.197 221.243 230.232 221.227C230.268 221.211 230.307 221.201 230.346 221.199C231.487 221.159 232.613 220.945 233.679 220.564C235.31 219.962 236.338 219.013 236.48 217.9C236.622 216.786 235.984 215.615 234.61 214.6C232.946 213.47 231 212.751 228.955 212.514C228.913 212.511 228.872 212.501 228.835 212.483C228.798 212.465 228.765 212.44 228.739 212.41C228.713 212.38 228.693 212.345 228.682 212.307C228.672 212.27 228.669 212.231 228.675 212.192C228.681 212.154 228.696 212.117 228.718 212.084C228.741 212.051 228.77 212.023 228.805 212.001C228.839 211.979 228.878 211.965 228.92 211.958C228.961 211.951 229.003 211.952 229.043 211.961C231.194 212.207 233.239 212.966 234.982 214.163C236.533 215.302 237.278 216.638 237.074 217.982C236.87 219.327 235.744 220.408 233.901 221.092C232.767 221.498 231.569 221.724 230.355 221.76H230.32Z" fill="white"/>
<path d="M233.109 213.467C235.236 215.035 234.882 217.056 232.4 217.996C230.999 218.435 229.507 218.561 228.044 218.364C226.581 218.166 225.188 217.65 223.98 216.858C221.852 215.299 222.207 213.269 224.68 212.337C226.081 211.896 227.575 211.768 229.04 211.965C230.504 212.161 231.898 212.676 233.109 213.467Z" fill="#6D65F5"/>
<path opacity="0.5" d="M233.109 213.467C235.236 215.035 234.882 217.056 232.4 217.996C230.999 218.435 229.507 218.561 228.044 218.364C226.581 218.166 225.188 217.65 223.98 216.858C221.852 215.299 222.207 213.269 224.68 212.337C226.081 211.896 227.575 211.768 229.04 211.965C230.504 212.161 231.898 212.676 233.109 213.467Z" fill="white"/>
<path d="M196.77 204.086L198.259 216.739L205.217 216.03L204.206 207.41C204.206 207.41 201.201 204.152 196.77 204.086Z" fill="#6D65F5"/>
<path opacity="0.3" d="M196.77 204.086L198.259 216.739L205.217 216.03L204.206 207.41C204.206 207.41 201.201 204.152 196.77 204.086Z" fill="white"/>
<path d="M207.989 262.08C206.64 261.943 205.302 261.728 203.982 261.436C203.451 261.321 202.936 261.206 202.422 261.057C200.323 260.524 198.304 259.748 196.413 258.747C195.596 258.311 194.814 257.82 194.073 257.279L192.557 244.353L188.32 208.134L197.184 207.234L201.518 206.789L202.13 212.019V212.373V212.728L202.369 214.716L202.546 216.292L205.206 238.654L207.989 262.08Z" fill="#6D65F5"/>
<path opacity="0.7" d="M207.989 262.08C206.64 261.943 205.302 261.728 203.982 261.436C203.451 261.321 202.936 261.206 202.422 261.057C200.323 260.524 198.304 259.748 196.413 258.747C195.596 258.311 194.814 257.82 194.073 257.279L192.557 244.353L188.32 208.134L197.184 207.234L201.518 206.789L202.13 212.019V212.373V212.728L202.369 214.716L202.546 216.292L205.206 238.654L207.989 262.08Z" fill="white"/>
<path d="M207.989 262.087C206.64 261.95 205.302 261.735 203.982 261.443L202.422 248.188L201.403 239.568L198.744 216.703L198.434 214.022C199.784 213.697 201.056 213.138 202.183 212.372C202.28 212.306 202.378 212.248 202.458 212.182C203.352 211.528 204.059 210.678 204.514 209.708C204.711 209.306 204.837 208.877 204.886 208.438L208.432 238.199L211.259 262.26C210.116 262.268 209.043 262.202 207.989 262.087Z" fill="#6D65F5"/>
<path opacity="0.5" d="M207.989 262.087C206.64 261.95 205.302 261.735 203.982 261.443L202.422 248.188L201.403 239.568L198.744 216.703L198.434 214.022C199.784 213.697 201.056 213.138 202.183 212.372C202.28 212.306 202.378 212.248 202.458 212.182C203.352 211.528 204.059 210.678 204.514 209.708C204.711 209.306 204.837 208.877 204.886 208.438L208.432 238.199L211.259 262.26C210.116 262.268 209.043 262.202 207.989 262.087Z" fill="white"/>
<path d="M198.761 214.239C198.684 214.246 198.606 214.227 198.541 214.187C198.477 214.146 198.429 214.086 198.407 214.016C198.393 213.978 198.388 213.937 198.391 213.897C198.394 213.856 198.406 213.817 198.426 213.781C198.446 213.745 198.473 213.713 198.506 213.687C198.54 213.66 198.578 213.641 198.62 213.629C199.827 213.296 200.965 212.777 201.988 212.094C203.557 211.03 204.337 209.768 204.186 208.531C204.035 207.294 202.989 206.221 201.217 205.495C199.107 204.706 196.814 204.436 194.56 204.712C194.517 204.717 194.473 204.715 194.43 204.704C194.388 204.693 194.349 204.675 194.315 204.649C194.281 204.624 194.253 204.592 194.232 204.556C194.212 204.52 194.2 204.48 194.197 204.439C194.189 204.358 194.215 204.277 194.269 204.212C194.324 204.148 194.402 204.105 194.489 204.093C196.858 203.806 199.266 204.09 201.483 204.918C203.486 205.743 204.682 206.988 204.851 208.457C205.019 209.925 204.151 211.385 202.387 212.581C201.311 213.309 200.113 213.867 198.841 214.231L198.761 214.239Z" fill="#6D65F5"/>
<path opacity="0.5" d="M198.761 214.239C198.684 214.246 198.606 214.227 198.541 214.187C198.477 214.146 198.429 214.086 198.407 214.016C198.393 213.978 198.388 213.937 198.391 213.897C198.394 213.856 198.406 213.817 198.426 213.781C198.446 213.745 198.473 213.713 198.506 213.687C198.54 213.66 198.578 213.641 198.62 213.629C199.827 213.296 200.965 212.777 201.988 212.094C203.557 211.03 204.337 209.768 204.186 208.531C204.035 207.294 202.989 206.221 201.217 205.495C199.107 204.706 196.814 204.436 194.56 204.712C194.517 204.717 194.473 204.715 194.43 204.704C194.388 204.693 194.349 204.675 194.315 204.649C194.281 204.624 194.253 204.592 194.232 204.556C194.212 204.52 194.2 204.48 194.197 204.439C194.189 204.358 194.215 204.277 194.269 204.212C194.324 204.148 194.402 204.105 194.489 204.093C196.858 203.806 199.266 204.09 201.483 204.918C203.486 205.743 204.682 206.988 204.851 208.457C205.019 209.925 204.151 211.385 202.387 212.581C201.311 213.309 200.113 213.867 198.841 214.231L198.761 214.239Z" fill="white"/>
<path d="M199.277 204.653C202.016 205.775 202.282 208.019 199.871 209.66C198.505 210.49 196.948 211.009 195.326 211.174C193.704 211.338 192.064 211.145 190.537 210.609C187.798 209.495 187.541 207.243 189.952 205.602C191.317 204.772 192.872 204.253 194.493 204.088C196.113 203.923 197.752 204.117 199.277 204.653Z" fill="#6D65F5"/>
<path opacity="0.5" d="M199.277 204.653C202.016 205.775 202.282 208.019 199.871 209.66C198.505 210.49 196.948 211.009 195.326 211.174C193.704 211.338 192.064 211.145 190.537 210.609C187.798 209.495 187.541 207.243 189.952 205.602C191.317 204.772 192.872 204.253 194.493 204.088C196.113 203.923 197.752 204.117 199.277 204.653Z" fill="white"/>
<path d="M413.076 151.328L402.44 157.028C402.019 157.205 401.559 157.288 401.097 157.27C400.635 157.251 400.184 157.131 399.781 156.92L363.653 137.511C362.864 137.091 362.766 136.455 363.466 136.084L374.103 130.384C374.524 130.207 374.984 130.125 375.446 130.143C375.908 130.162 376.359 130.281 376.762 130.492L412.881 149.901C413.67 150.321 413.75 150.957 413.076 151.328Z" fill="#263238"/>
<path d="M382.256 136.074L374.084 140.462L367.348 136.849L375.52 132.461L382.256 136.074Z" fill="#6D65F5"/>
<path d="M391.134 140.847L382.962 145.236L376.234 141.623L384.398 137.234L391.134 140.847Z" fill="#6D65F5"/>
<path d="M400.005 145.613L391.842 150.009L385.105 146.388L393.278 142L400.005 145.613Z" fill="#6D65F5"/>
<path d="M408.884 150.395L400.712 154.783L393.984 151.162L402.148 146.773L408.884 150.395Z" fill="#6D65F5"/>
<path opacity="0.4" d="M382.256 136.074L374.084 140.462L367.348 136.849L375.52 132.461L382.256 136.074Z" fill="black"/>
<path opacity="0.5" d="M391.134 140.847L382.962 145.236L376.234 141.623L384.398 137.234L391.134 140.847Z" fill="black"/>
<path opacity="0.6" d="M400.005 145.613L391.842 150.009L385.105 146.388L393.278 142L400.005 145.613Z" fill="black"/>
<path opacity="0.8" d="M408.884 150.395L400.712 154.783L393.984 151.162L402.148 146.773L408.884 150.395Z" fill="black"/>
<path d="M415.138 140.856L406.141 148.593C405.767 148.856 405.331 149.034 404.869 149.111C404.407 149.189 403.932 149.164 403.482 149.038L363.649 137.49C362.763 137.243 362.55 136.665 363.126 136.137L372.123 128.4C372.496 128.135 372.932 127.957 373.395 127.88C373.857 127.802 374.332 127.828 374.782 127.955L414.615 139.503C415.475 139.75 415.714 140.352 415.138 140.856Z" fill="#37474F"/>
<path d="M381.452 132.301L374.529 138.265L367.102 136.112L374.033 130.156L381.452 132.301Z" fill="#6D65F5"/>
<path d="M391.245 135.129L384.313 141.085L376.895 138.932L383.817 132.977L391.245 135.129Z" fill="#6D65F5"/>
<path d="M401.034 137.965L394.111 143.921L386.684 141.768L393.615 135.812L401.034 137.965Z" fill="#6D65F5"/>
<path d="M410.819 140.794L403.896 146.749L396.469 144.604L403.4 138.641L410.819 140.794Z" fill="#6D65F5"/>
<path opacity="0.1" d="M381.452 132.301L374.529 138.265L367.102 136.112L374.033 130.156L381.452 132.301Z" fill="white"/>
<path opacity="0.1" d="M401.034 137.965L394.111 143.921L386.684 141.768L393.615 135.812L401.034 137.965Z" fill="black"/>
<path opacity="0.2" d="M410.819 140.794L403.896 146.749L396.469 144.604L403.4 138.641L410.819 140.794Z" fill="black"/>
<path d="M414.776 130.93L407.685 140.226C407.381 140.55 407 140.803 406.572 140.965C406.144 141.127 405.681 141.193 405.221 141.158L363.695 137.512C362.808 137.438 362.427 136.885 362.888 136.291L369.979 126.995C370.283 126.671 370.664 126.417 371.092 126.254C371.52 126.091 371.982 126.023 372.443 126.055L413.969 129.7C414.865 129.783 415.237 130.327 414.776 130.93Z" fill="#455A64"/>
<path d="M379.93 129.005L374.461 136.164L366.723 135.488L372.183 128.328L379.93 129.005Z" fill="#6D65F5"/>
<path d="M390.133 129.911L384.673 137.063L376.926 136.386L382.395 129.227L390.133 129.911Z" fill="#6D65F5"/>
<path d="M400.331 130.801L394.871 137.961L387.133 137.285L392.593 130.125L400.331 130.801Z" fill="#6D65F5"/>
<path d="M410.538 131.692L405.078 138.852L397.34 138.167L402.8 131.016L410.538 131.692Z" fill="#6D65F5"/>
<path opacity="0.8" d="M379.93 129.005L374.461 136.164L366.723 135.488L372.183 128.328L379.93 129.005Z" fill="white"/>
<path opacity="0.6" d="M390.133 129.911L384.673 137.063L376.926 136.386L382.395 129.227L390.133 129.911Z" fill="white"/>
<path opacity="0.4" d="M400.331 130.801L394.871 137.961L387.133 137.285L392.593 130.125L400.331 130.801Z" fill="white"/>
<path opacity="0.2" d="M410.538 131.692L405.078 138.852L397.34 138.167L402.8 131.016L410.538 131.692Z" fill="white"/>
<path d="M361.493 139.698C360.713 139.702 359.953 139.467 359.331 139.028C358.71 138.59 358.261 137.973 358.054 137.273C357.928 136.853 357.891 136.413 357.948 135.98C358.004 135.547 358.151 135.128 358.381 134.748C358.611 134.367 358.919 134.033 359.288 133.764C359.657 133.494 360.08 133.295 360.531 133.177C360.983 133.06 361.455 133.026 361.92 133.079C362.386 133.131 362.836 133.268 363.245 133.482C363.653 133.696 364.013 133.983 364.302 134.326C364.592 134.67 364.806 135.063 364.932 135.483L364.241 135.656C364.036 134.977 363.55 134.401 362.889 134.055C362.229 133.71 361.447 133.622 360.717 133.813C359.987 134.003 359.369 134.455 358.997 135.07C358.626 135.685 358.532 136.412 358.736 137.091C358.839 137.43 359.011 137.746 359.245 138.021C359.479 138.297 359.768 138.528 360.098 138.699C360.427 138.871 360.789 138.98 361.164 139.021C361.539 139.063 361.919 139.035 362.282 138.939C362.644 138.845 362.982 138.685 363.278 138.469C363.573 138.252 363.819 137.983 364.001 137.677L364.622 138.007C364.309 138.519 363.857 138.945 363.311 139.242C362.764 139.539 362.143 139.696 361.511 139.698H361.493Z" fill="#E0E0E0"/>
<path d="M311.254 217.431L281.242 233.557L243.367 213.207L273.415 197.048C273.805 196.838 274.249 196.727 274.7 196.727C275.152 196.727 275.595 196.838 275.985 197.048L311.227 215.979C311.369 216.047 311.489 216.15 311.573 216.277C311.657 216.403 311.703 216.549 311.706 216.698C311.709 216.846 311.668 216.993 311.589 217.122C311.509 217.251 311.393 217.358 311.254 217.431Z" fill="#6D65F5"/>
<path opacity="0.7" d="M311.254 217.431L281.242 233.557L243.367 213.207L273.415 197.048C273.805 196.838 274.249 196.727 274.7 196.727C275.152 196.727 275.595 196.838 275.985 197.048L311.227 215.979C311.369 216.047 311.489 216.15 311.573 216.277C311.657 216.403 311.703 216.549 311.706 216.698C311.709 216.846 311.668 216.993 311.589 217.122C311.509 217.251 311.393 217.358 311.254 217.431Z" fill="black"/>
<path d="M309.177 216.84L281.239 231.869L245.988 212.897L273.98 197.86C274.344 197.665 274.756 197.563 275.176 197.562C275.596 197.563 276.009 197.665 276.373 197.86L309.168 215.487C309.298 215.554 309.406 215.651 309.482 215.77C309.557 215.888 309.598 216.023 309.599 216.161C309.6 216.299 309.561 216.434 309.487 216.554C309.413 216.673 309.306 216.772 309.177 216.84Z" fill="white"/>
<path d="M281.242 231.843V228.915L309.597 213.68V216.179L281.242 231.843Z" fill="white"/>
<path d="M281.239 231.844V228.916L245.988 209.969V212.897L281.239 231.844Z" fill="#E0E0E0"/>
<path d="M311.254 212.79L281.242 228.916L243.367 208.567L273.415 192.408C273.805 192.197 274.249 192.086 274.7 192.086C275.152 192.086 275.595 192.197 275.985 192.408L311.227 211.38C311.359 211.451 311.469 211.553 311.546 211.675C311.623 211.797 311.665 211.936 311.667 212.078C311.67 212.22 311.633 212.36 311.561 212.484C311.489 212.609 311.383 212.715 311.254 212.79Z" fill="#6D65F5"/>
<path opacity="0.5" d="M311.254 212.79L281.242 228.916L243.367 208.567L273.415 192.408C273.805 192.197 274.249 192.086 274.7 192.086C275.152 192.086 275.595 192.197 275.985 192.408L311.227 211.38C311.359 211.451 311.469 211.553 311.546 211.675C311.623 211.797 311.665 211.936 311.667 212.078C311.67 212.22 311.633 212.36 311.561 212.484C311.489 212.609 311.383 212.715 311.254 212.79Z" fill="black"/>
<path d="M277.332 231.458C277.243 231.496 277.147 231.516 277.049 231.516C276.951 231.516 276.854 231.496 276.765 231.458C276.656 231.405 276.566 231.326 276.503 231.228C276.44 231.131 276.408 231.019 276.41 230.905V228.257C276.41 227.657 276.577 227.067 276.896 226.545C277.214 226.023 277.673 225.587 278.227 225.279L278.334 225.222C278.384 225.191 278.442 225.175 278.502 225.175C278.562 225.175 278.62 225.191 278.671 225.222C278.723 225.248 278.767 225.287 278.797 225.335C278.826 225.383 278.841 225.438 278.839 225.494C278.839 225.64 278.902 225.781 279.013 225.885C279.124 225.988 279.275 226.046 279.433 226.046C279.59 226.046 279.741 225.988 279.853 225.885C279.964 225.781 280.027 225.64 280.027 225.494C280.026 225.244 279.955 224.999 279.82 224.783C279.685 224.568 279.491 224.389 279.259 224.265C279.026 224.141 278.762 224.077 278.494 224.078C278.226 224.08 277.962 224.147 277.731 224.273L277.625 224.339C276.894 224.743 276.289 225.316 275.868 226.003C275.447 226.69 275.225 227.466 275.223 228.257V230.905C275.224 231.218 275.316 231.525 275.489 231.794C275.662 232.062 275.91 232.282 276.207 232.431C276.481 232.562 276.785 232.63 277.093 232.629C277.462 232.632 277.824 232.532 278.13 232.34C278.241 232.265 278.322 232.158 278.36 232.035L277.332 231.458Z" fill="white"/>
<path d="M271.723 228.445C271.622 228.476 271.515 228.484 271.411 228.47C271.306 228.455 271.206 228.418 271.12 228.361C271.034 228.304 270.963 228.229 270.914 228.142C270.864 228.054 270.838 227.957 270.836 227.859V225.211C270.833 224.615 270.995 224.028 271.305 223.507C271.615 222.985 272.064 222.547 272.609 222.233L272.724 222.176C272.776 222.149 272.834 222.135 272.893 222.135C272.952 222.135 273.01 222.149 273.061 222.176C273.111 222.204 273.153 222.244 273.182 222.292C273.212 222.339 273.228 222.393 273.23 222.448C273.219 222.525 273.227 222.604 273.252 222.679C273.277 222.754 273.319 222.823 273.374 222.881C273.43 222.94 273.498 222.987 273.575 223.019C273.652 223.051 273.735 223.068 273.819 223.068C273.903 223.068 273.986 223.051 274.063 223.019C274.14 222.987 274.208 222.94 274.264 222.881C274.32 222.823 274.361 222.754 274.386 222.679C274.411 222.604 274.419 222.525 274.409 222.448C274.408 222.199 274.337 221.955 274.203 221.74C274.068 221.525 273.875 221.347 273.643 221.224C273.411 221.101 273.148 221.037 272.881 221.039C272.614 221.041 272.352 221.109 272.122 221.235L272.015 221.293C271.284 221.698 270.679 222.273 270.258 222.961C269.837 223.649 269.615 224.427 269.613 225.219V227.867C269.614 228.181 269.705 228.488 269.879 228.757C270.052 229.026 270.3 229.245 270.597 229.393C270.871 229.525 271.175 229.593 271.484 229.591C271.849 229.59 272.206 229.489 272.512 229.302C272.628 229.232 272.71 229.123 272.742 228.997L271.723 228.445Z" fill="white"/>
<path d="M266.108 225.427C266.021 225.465 265.926 225.485 265.829 225.485C265.733 225.485 265.637 225.465 265.55 225.427C265.44 225.374 265.348 225.293 265.283 225.194C265.219 225.095 265.186 224.982 265.187 224.866V222.218C265.189 221.619 265.358 221.03 265.678 220.509C265.998 219.989 266.458 219.555 267.013 219.249L267.119 219.191C267.17 219.162 267.228 219.147 267.287 219.147C267.347 219.147 267.405 219.162 267.456 219.191C267.507 219.219 267.55 219.258 267.579 219.306C267.609 219.354 267.624 219.408 267.624 219.463C267.614 219.541 267.622 219.62 267.646 219.695C267.671 219.769 267.713 219.838 267.769 219.897C267.825 219.956 267.893 220.003 267.97 220.035C268.046 220.067 268.13 220.083 268.214 220.083C268.298 220.083 268.381 220.067 268.458 220.035C268.534 220.003 268.603 219.956 268.658 219.897C268.714 219.838 268.756 219.769 268.781 219.695C268.806 219.62 268.813 219.541 268.803 219.463C268.803 219.215 268.732 218.971 268.597 218.756C268.463 218.541 268.27 218.363 268.038 218.24C267.806 218.117 267.543 218.053 267.275 218.055C267.008 218.057 266.746 218.124 266.516 218.251L266.41 218.309C265.68 218.713 265.075 219.287 264.654 219.973C264.233 220.66 264.011 221.436 264.008 222.227V224.875C264.007 225.188 264.098 225.496 264.272 225.765C264.445 226.034 264.694 226.254 264.992 226.401C265.263 226.538 265.569 226.609 265.878 226.607C266.244 226.607 266.601 226.506 266.906 226.318C267.02 226.246 267.102 226.137 267.137 226.013L266.108 225.427Z" fill="white"/>
<path d="M260.509 222.411C260.421 222.45 260.324 222.47 260.226 222.47C260.128 222.47 260.031 222.45 259.942 222.411C259.834 222.356 259.744 222.274 259.682 222.176C259.619 222.077 259.587 221.964 259.588 221.85V219.202C259.583 218.607 259.744 218.021 260.055 217.5C260.365 216.98 260.815 216.543 261.36 216.232L261.467 216.166C261.518 216.139 261.576 216.124 261.635 216.124C261.694 216.124 261.752 216.139 261.803 216.166C261.856 216.192 261.9 216.232 261.929 216.28C261.959 216.328 261.974 216.383 261.972 216.439C261.972 216.585 262.034 216.726 262.146 216.829C262.257 216.933 262.408 216.991 262.566 216.991C262.643 216.991 262.72 216.977 262.792 216.949C262.863 216.921 262.928 216.88 262.983 216.829C263.037 216.777 263.08 216.716 263.109 216.649C263.138 216.582 263.152 216.511 263.151 216.439C263.153 216.189 263.084 215.943 262.95 215.727C262.816 215.51 262.623 215.331 262.39 215.207C262.157 215.084 261.892 215.02 261.624 215.024C261.356 215.027 261.093 215.097 260.864 215.226L260.758 215.284C260.028 215.688 259.423 216.262 259.002 216.948C258.581 217.635 258.358 218.411 258.355 219.202V221.85C258.355 222.163 258.446 222.471 258.619 222.74C258.793 223.009 259.042 223.229 259.339 223.376C259.611 223.514 259.916 223.584 260.226 223.582C260.594 223.581 260.955 223.481 261.263 223.293C261.372 223.216 261.452 223.11 261.493 222.988L260.509 222.411Z" fill="white"/>
<path d="M254.898 219.404C254.808 219.441 254.712 219.46 254.614 219.46C254.516 219.46 254.42 219.441 254.33 219.404C254.222 219.349 254.132 219.268 254.07 219.169C254.008 219.071 253.975 218.958 253.976 218.843V216.196C253.978 215.596 254.146 215.007 254.465 214.485C254.783 213.963 255.24 213.527 255.793 213.218L255.908 213.16C255.959 213.132 256.017 213.118 256.077 213.118C256.136 213.118 256.194 213.133 256.245 213.16C256.296 213.188 256.339 213.227 256.368 213.275C256.398 213.323 256.413 213.377 256.413 213.432C256.431 213.566 256.501 213.689 256.609 213.779C256.718 213.868 256.858 213.917 257.003 213.917C257.148 213.917 257.288 213.868 257.396 213.779C257.505 213.689 257.574 213.566 257.592 213.432C257.594 213.183 257.524 212.937 257.39 212.721C257.256 212.505 257.063 212.326 256.83 212.203C256.599 212.075 256.336 212.008 256.068 212.008C255.799 212.008 255.536 212.075 255.305 212.203L255.199 212.261C254.469 212.665 253.864 213.239 253.443 213.926C253.022 214.612 252.8 215.389 252.797 216.179V218.827C252.795 219.141 252.886 219.449 253.06 219.718C253.233 219.987 253.483 220.207 253.781 220.353C254.077 220.502 254.411 220.572 254.747 220.556C255.083 220.54 255.408 220.438 255.686 220.262C255.8 220.193 255.882 220.087 255.917 219.965L254.898 219.404Z" fill="white"/>
<path d="M249.284 216.386C249.184 216.415 249.077 216.423 248.973 216.407C248.869 216.392 248.77 216.354 248.685 216.298C248.599 216.241 248.528 216.167 248.478 216.08C248.429 215.994 248.401 215.898 248.398 215.8V213.152C248.399 212.552 248.568 211.961 248.888 211.439C249.208 210.917 249.668 210.482 250.224 210.175L250.33 210.117C250.38 210.088 250.439 210.072 250.498 210.072C250.558 210.072 250.616 210.088 250.667 210.117C250.719 210.143 250.763 210.183 250.793 210.231C250.823 210.279 250.837 210.334 250.835 210.389C250.853 210.523 250.922 210.646 251.031 210.736C251.14 210.825 251.28 210.874 251.425 210.874C251.57 210.874 251.709 210.825 251.818 210.736C251.927 210.646 251.996 210.523 252.014 210.389C252.017 210.14 251.948 209.894 251.813 209.678C251.679 209.461 251.485 209.283 251.252 209.16C251.02 209.035 250.757 208.969 250.489 208.969C250.222 208.969 249.959 209.035 249.727 209.16L249.621 209.226C248.891 209.631 248.286 210.204 247.865 210.891C247.444 211.577 247.222 212.354 247.219 213.144V215.792C247.22 216.105 247.312 216.412 247.485 216.681C247.658 216.949 247.906 217.17 248.203 217.318C248.476 217.452 248.78 217.523 249.089 217.524C249.456 217.527 249.816 217.423 250.117 217.227C250.231 217.158 250.313 217.052 250.348 216.93L249.284 216.386Z" fill="white"/>
<path d="M315.125 205.496L282.676 222.934L240.449 200.25L272.899 182.812L315.125 205.496Z" fill="#E6E6E6"/>
<path d="M316.986 204.932L283.083 219.779L243.055 193.878L276.958 179.039L316.986 204.932Z" fill="#FAFAFA"/>
<path d="M273.78 194.666C272.49 195.841 271.617 197.354 271.276 199.003C270.936 200.653 271.144 202.36 271.874 203.896C273.39 207.195 277.193 209.06 280.898 209.175C282.804 209.248 284.694 208.823 286.354 207.948C288.014 207.073 289.379 205.784 290.293 204.226C291.176 202.658 291.361 200.83 290.807 199.136C290.189 197.416 288.984 195.931 287.377 194.905C285.248 193.613 282.757 192.935 280.215 192.958C278.061 192.917 275.464 193.098 274.011 194.748C273.718 195.07 274.223 195.573 274.516 195.218C275.739 193.857 277.778 193.651 279.568 193.626C281.705 193.544 283.832 193.938 285.773 194.773C289.026 196.274 291.339 199.64 290.098 203.021C289.453 204.547 288.352 205.869 286.926 206.832C285.5 207.795 283.809 208.359 282.05 208.457C280.319 208.609 278.577 208.327 277.003 207.641C275.429 206.955 274.081 205.89 273.098 204.556C272.122 203.091 271.71 201.361 271.929 199.649C272.148 197.938 272.985 196.346 274.303 195.136C274.64 194.855 274.135 194.385 273.798 194.666H273.78Z" fill="#6D65F5"/>
<path d="M278.773 204.434C279.602 204.66 280.474 204.715 281.328 204.595C282.182 204.475 282.998 204.184 283.719 203.741C284.412 203.298 284.971 202.697 285.342 201.995C285.713 201.293 285.884 200.513 285.838 199.732C285.791 198.847 285.44 198 284.836 197.315C284.543 196.985 284.038 197.456 284.331 197.786C284.879 198.473 285.161 199.313 285.13 200.168C285.099 201.023 284.758 201.844 284.162 202.496C283.511 203.141 282.679 203.605 281.76 203.835C280.841 204.065 279.871 204.053 278.959 203.799C278.871 203.782 278.78 203.798 278.703 203.842C278.627 203.886 278.571 203.955 278.548 204.036C278.524 204.116 278.534 204.202 278.576 204.276C278.618 204.35 278.688 204.407 278.773 204.434Z" fill="#6D65F5"/>
<path d="M271.932 206.031C270.903 205.833 269.933 205.429 269.089 204.848C268.244 204.267 267.545 203.522 267.039 202.666C266.658 201.973 266.365 200.901 266.968 200.191C267.854 199.234 269.237 200.051 269.796 200.843C270.084 201.194 270.279 201.604 270.363 202.039C270.363 202.732 269.193 201.734 268.962 201.527C268.198 200.829 267.663 199.942 267.42 198.97C266.977 197.131 267.854 194.846 270.079 194.549C270.966 194.45 272.171 194.747 272.446 195.654C272.588 196.133 272.322 196.686 271.701 196.347C271.483 196.196 271.3 196.006 271.163 195.788C271.026 195.57 270.938 195.328 270.904 195.077C270.803 194.64 270.797 194.188 270.886 193.748C270.975 193.309 271.157 192.89 271.422 192.517C271.687 192.144 272.029 191.823 272.429 191.575C272.828 191.326 273.277 191.154 273.749 191.068C274.708 190.928 275.688 191.134 276.488 191.646C276.789 191.835 277.587 192.413 277.232 192.784C276.7 193.32 276.133 192.446 276.071 192.033C276.051 191.563 276.196 191.1 276.484 190.713C276.772 190.326 277.187 190.037 277.667 189.889C278.204 189.738 278.772 189.705 279.325 189.792C279.879 189.88 280.403 190.085 280.857 190.392C281.424 190.696 281.916 191.106 282.302 191.596C282.737 192.264 281.85 192.685 281.318 192.248C280.281 191.423 281.389 190.243 282.391 190.062C283.703 189.823 285.05 190.614 286.069 191.274C287.143 191.972 288.091 192.824 288.879 193.798C289.154 194.137 289.765 193.798 289.5 193.46C288.472 192.188 287.194 191.111 285.732 190.285C284.421 189.55 282.71 188.924 281.301 189.757C281.036 189.896 280.808 190.088 280.633 190.32C280.458 190.552 280.342 190.817 280.292 191.096C280.241 191.375 280.259 191.662 280.343 191.934C280.427 192.206 280.576 192.457 280.778 192.668C281.62 193.493 283.499 192.99 283.153 191.687C282.877 191.052 282.389 190.518 281.762 190.161C281.107 189.675 280.344 189.331 279.528 189.154C278.839 188.999 278.116 189.042 277.454 189.277C276.793 189.513 276.224 189.93 275.823 190.474C275.158 191.398 275.14 193.18 276.55 193.551C276.817 193.617 277.101 193.599 277.356 193.499C277.611 193.399 277.823 193.223 277.959 192.998C278.278 192.404 277.808 191.819 277.356 191.431C276.854 191.002 276.249 190.69 275.591 190.521C274.934 190.351 274.243 190.33 273.574 190.458C272.906 190.586 272.28 190.86 271.748 191.257C271.216 191.654 270.793 192.164 270.514 192.743C270.222 193.328 270.096 193.973 270.145 194.616C270.195 195.26 270.419 195.881 270.797 196.422C270.97 196.683 271.23 196.885 271.537 196.996C271.844 197.108 272.182 197.123 272.499 197.04C272.731 196.947 272.927 196.789 273.058 196.588C273.19 196.387 273.252 196.153 273.235 195.918C273.235 194.632 271.808 193.897 270.576 193.873C269.874 193.862 269.182 194.034 268.579 194.37C267.977 194.705 267.486 195.19 267.163 195.77C266.823 196.407 266.633 197.104 266.604 197.815C266.575 198.526 266.708 199.235 266.995 199.894C267.259 200.535 267.64 201.13 268.12 201.651C268.581 202.223 269.191 202.674 269.893 202.963C270.03 203.004 270.175 203.014 270.317 202.992C270.459 202.97 270.593 202.916 270.707 202.835C270.821 202.753 270.912 202.647 270.973 202.526C271.033 202.405 271.061 202.272 271.054 202.138C270.966 201.468 270.681 200.835 270.23 200.307C269.414 199.267 267.73 198.599 266.569 199.581C265.585 200.406 265.816 201.833 266.321 202.831C267.041 204.134 268.173 205.199 269.565 205.883C270.24 206.221 270.962 206.471 271.71 206.625C272.153 206.716 272.348 206.072 271.896 205.982L271.932 206.031Z" fill="#6D65F5"/>
<path d="M276.702 200.517C276.678 200.559 276.648 200.597 276.613 200.632C276.675 200.591 276.613 200.632 276.613 200.632L276.56 200.682C276.532 200.714 276.499 200.741 276.463 200.764C276.463 200.764 276.401 200.83 276.463 200.764L276.374 200.814L276.25 200.888H276.197C276.15 200.91 276.099 200.924 276.046 200.929H275.887C275.887 200.929 275.975 200.929 275.887 200.929H275.594C275.594 200.929 275.665 200.929 275.594 200.929H275.443C275.443 200.929 275.39 200.929 275.372 200.929C275.355 200.929 275.372 200.929 275.372 200.929L275.266 200.863L275.213 200.822V200.781C275.151 200.715 275.213 200.822 275.213 200.781L275.151 200.698V200.641C275.151 200.641 275.151 200.558 275.151 200.525C275.147 200.487 275.147 200.448 275.151 200.41C275.151 200.484 275.151 200.451 275.151 200.41V200.245C275.151 200.245 275.151 200.203 275.151 200.187C275.151 200.17 275.151 200.236 275.151 200.187C275.147 200.14 275.147 200.093 275.151 200.047C275.151 200.047 275.151 200.006 275.151 200.047L275.204 199.948V199.898C275.204 199.857 275.248 199.898 275.204 199.898C275.16 199.898 275.266 199.841 275.293 199.816H275.337C275.293 199.874 275.293 199.816 275.337 199.816L275.443 199.758C275.443 199.758 275.355 199.758 275.443 199.758H275.514H275.603H275.745C275.833 199.758 275.674 199.758 275.745 199.758L275.949 199.816C276.037 199.816 275.887 199.816 275.949 199.816L276.055 199.874L276.215 199.964C276.215 199.964 276.303 200.03 276.215 199.964L276.312 200.047L276.454 200.17L276.613 200.327L276.667 200.393V200.434C276.716 200.508 276.794 200.562 276.884 200.585C276.975 200.608 277.071 200.598 277.154 200.558C277.194 200.536 277.23 200.507 277.258 200.472C277.286 200.437 277.306 200.398 277.318 200.355C277.329 200.313 277.332 200.269 277.325 200.226C277.318 200.183 277.302 200.142 277.278 200.104C276.944 199.593 276.405 199.225 275.78 199.082C275.511 199.036 275.232 199.073 274.988 199.188C274.743 199.302 274.545 199.488 274.424 199.717C274.315 199.922 274.258 200.148 274.258 200.377C274.258 200.606 274.315 200.832 274.424 201.037C274.556 201.248 274.748 201.422 274.98 201.539C275.211 201.655 275.473 201.71 275.736 201.696C276.042 201.687 276.341 201.607 276.606 201.463C276.871 201.319 277.093 201.116 277.252 200.872C277.279 200.834 277.298 200.792 277.308 200.747C277.317 200.702 277.316 200.656 277.306 200.612C277.295 200.568 277.274 200.526 277.245 200.489C277.217 200.452 277.18 200.422 277.137 200.399C277.095 200.376 277.048 200.362 277 200.357C276.951 200.351 276.902 200.356 276.855 200.369C276.808 200.382 276.765 200.405 276.728 200.434C276.691 200.464 276.661 200.501 276.64 200.542L276.702 200.517Z" fill="#6D65F5"/>
<path d="M278.445 196.79C278.47 197.044 278.576 197.285 278.75 197.483C278.924 197.68 279.157 197.824 279.42 197.895C279.676 197.979 279.954 197.982 280.211 197.904C280.469 197.827 280.692 197.673 280.847 197.466C280.972 197.263 281.037 197.033 281.037 196.798C281.037 196.564 280.972 196.334 280.847 196.13C280.72 195.908 280.513 195.733 280.262 195.637C280.012 195.541 279.733 195.529 279.473 195.602C279.163 195.69 278.892 195.869 278.702 196.114C278.518 196.352 278.442 196.648 278.49 196.939C278.518 197.022 278.58 197.092 278.662 197.135C278.745 197.178 278.841 197.19 278.933 197.17C279.021 197.141 279.096 197.083 279.141 197.007C279.187 196.931 279.201 196.842 279.181 196.757C279.181 196.757 279.181 196.831 279.181 196.798V196.708C279.185 196.686 279.185 196.663 279.181 196.642C279.185 196.62 279.185 196.597 279.181 196.576C279.181 196.576 279.181 196.493 279.252 196.46C279.323 196.427 279.305 196.386 279.252 196.46C279.199 196.534 279.252 196.46 279.252 196.46L279.358 196.361C279.358 196.361 279.403 196.361 279.42 196.361L279.544 196.295H279.615H279.677C279.731 196.295 279.677 196.295 279.677 196.295C279.722 196.299 279.766 196.299 279.81 196.295C279.872 196.295 279.81 196.295 279.81 196.295H279.881H279.952C280.014 196.295 279.89 196.295 279.952 196.295C279.988 196.319 280.026 196.339 280.067 196.353C280.005 196.353 280.014 196.353 280.067 196.353V196.394V196.435C280.091 196.466 280.112 196.5 280.129 196.534C280.129 196.534 280.129 196.6 280.129 196.534C280.129 196.468 280.129 196.534 280.129 196.534C280.133 196.573 280.133 196.611 280.129 196.65C280.125 196.666 280.125 196.683 280.129 196.699C280.129 196.609 280.129 196.699 280.129 196.699V196.873C280.129 196.93 280.129 196.79 280.129 196.873V196.98C280.127 196.999 280.127 197.018 280.129 197.038C280.129 197.104 280.129 196.988 280.129 197.038C280.114 197.076 280.093 197.112 280.067 197.145V197.186C280.067 197.186 280.121 197.136 280.067 197.186V197.227C280.067 197.227 279.996 197.277 280.067 197.227C280.138 197.178 280.067 197.227 280.067 197.227H279.996H279.934H279.881H279.837C279.837 197.227 279.926 197.227 279.881 197.227H279.686H279.544C279.521 197.223 279.497 197.223 279.473 197.227L279.349 197.153C279.278 197.112 279.349 197.153 279.349 197.153L279.287 197.103L279.234 197.054C279.234 197.054 279.172 196.98 279.234 197.054C279.296 197.128 279.234 197.054 279.234 197.054L279.19 196.988C279.19 196.947 279.19 196.988 279.19 196.988C279.19 196.988 279.19 196.988 279.19 196.922C279.185 196.9 279.185 196.878 279.19 196.856C279.19 196.856 279.19 196.807 279.19 196.856C279.19 196.906 279.19 196.856 279.19 196.856C279.185 196.768 279.145 196.686 279.078 196.624C279.011 196.563 278.921 196.528 278.826 196.526C278.733 196.528 278.644 196.564 278.578 196.625C278.512 196.686 278.474 196.769 278.472 196.856L278.445 196.79Z" fill="#6D65F5"/>
<path d="M332.719 164.841L318.342 172.479C317.225 173.074 315.96 173.387 314.673 173.387C313.386 173.387 312.121 173.074 311.003 172.479L301.785 167.53L300.739 166.969C299.649 166.384 298.743 165.542 298.112 164.529C297.481 163.516 297.146 162.366 297.141 161.195V136.433L318.724 125V150.208C318.724 151.221 319.011 152.217 319.555 153.094C320.1 153.971 320.883 154.7 321.826 155.207L332.737 161.071C333.096 161.261 333.394 161.536 333.601 161.868C333.808 162.2 333.916 162.577 333.914 162.961C333.912 163.345 333.801 163.721 333.591 164.052C333.381 164.382 333.08 164.655 332.719 164.841Z" fill="#E0E0E0"/>
<path d="M315.268 173.312C316.349 173.234 317.4 172.936 318.343 172.438L332.72 164.816C333.076 164.627 333.371 164.354 333.577 164.025C333.782 163.695 333.891 163.321 333.891 162.94C333.891 162.559 333.782 162.184 333.577 161.855C333.371 161.525 333.076 161.252 332.72 161.063L325.266 157.062H315.25L315.268 173.312Z" fill="#E6E6E6"/>
<path d="M332.462 159.438L332.861 159.734C333.184 159.973 333.444 160.277 333.624 160.623C333.803 160.968 333.897 161.347 333.898 161.731V162.976H332.453L332.462 159.438Z" fill="#E6E6E6"/>
<path d="M320.39 126.914V149.598C320.388 150.581 320.665 151.547 321.193 152.398C321.72 153.25 322.48 153.957 323.394 154.448L332.471 159.397C332.815 159.581 333.101 159.845 333.301 160.165C333.5 160.484 333.605 160.847 333.605 161.216C333.605 161.585 333.5 161.948 333.301 162.268C333.101 162.587 332.815 162.852 332.471 163.035L331.442 163.579L318.546 170.409C317.466 170.984 316.244 171.286 315 171.286C313.757 171.286 312.535 170.984 311.455 170.409L302.52 165.501C301.606 165.011 300.847 164.306 300.32 163.456C299.792 162.605 299.515 161.641 299.516 160.659V137.976L320.39 126.914Z" fill="#F0F0F0"/>
<path d="M320.388 149.598V126.914L299.496 137.976V160.668C299.495 161.649 299.773 162.614 300.3 163.464C300.828 164.314 301.587 165.019 302.501 165.51L323.047 154.267C322.224 153.753 321.551 153.057 321.087 152.243C320.623 151.428 320.383 150.52 320.388 149.598Z" fill="#E6E6E6"/>
<path d="M254.273 177.558L251.897 178.836V182.878C250.374 182.876 248.879 182.492 247.572 181.765L247.386 181.666C246.841 181.364 246.367 180.964 245.994 180.487C245.621 180.011 245.355 179.469 245.214 178.894C245.131 178.646 245.089 178.387 245.09 178.127V172.625L254.273 177.558Z" fill="#E0E0E0"/>
<path d="M357.445 29.119L357.259 29.02C355.952 28.2919 354.457 27.9071 352.934 27.9065C352.445 27.9006 351.963 28.0205 351.542 28.2529L249.229 83.0075C247.971 83.6818 246.925 84.653 246.199 85.8231C245.472 86.9932 245.089 88.321 245.09 89.6725V172.629L254.273 177.578L351.471 125.612C352.73 124.936 353.775 123.963 354.502 122.791C355.228 121.62 355.611 120.291 355.611 118.939V32.8804H359.741C359.742 32.122 359.531 31.3764 359.128 30.717C358.726 30.0575 358.146 29.5068 357.445 29.119Z" fill="#37474F"/>
<path d="M245.933 86.2188C245.353 87.291 245.05 88.4744 245.047 89.6749V172.632L254.23 177.581L257.669 175.733V92.9909L245.933 86.2188Z" fill="#263238"/>
<path d="M249.223 174.851V180.353C249.223 180.796 249.348 181.231 249.586 181.615C249.824 181.999 250.166 182.317 250.579 182.539C250.991 182.76 251.459 182.877 251.935 182.877C252.411 182.877 252.879 182.76 253.291 182.539L355.604 127.784C356.863 127.11 357.908 126.139 358.635 124.968C359.361 123.798 359.744 122.471 359.743 121.119V115.469L249.223 174.851Z" fill="#F0F0F0"/>
<path d="M359.743 32.6521C359.743 32.2103 359.617 31.7764 359.379 31.3938C359.142 31.0113 358.8 30.6935 358.39 30.4722C357.979 30.2509 357.512 30.1339 357.038 30.1328C356.563 30.1318 356.096 30.2468 355.684 30.4662L253.362 85.2209C252.103 85.8972 251.058 86.8699 250.331 88.0413C249.605 89.2127 249.222 90.5415 249.223 91.8941V174.843L359.743 115.452" fill="#455A64"/>
<path d="M353.811 36.4766C353.344 36.4744 352.883 36.5732 352.464 36.7653L256.285 88.2122C255.175 88.8103 254.254 89.6691 253.613 90.7027C252.972 91.7363 252.634 92.9084 252.633 94.1018V164.785C252.632 165.088 252.698 165.389 252.828 165.667C252.964 165.955 253.163 166.214 253.413 166.425C253.663 166.637 253.958 166.798 254.279 166.897C254.6 166.995 254.94 167.03 255.276 166.999C255.612 166.968 255.938 166.871 256.231 166.715L352.384 115.268C353.494 114.67 354.415 113.811 355.056 112.777C355.697 111.744 356.035 110.572 356.036 109.378V38.6955C356.035 38.1324 355.806 37.5905 355.393 37.1788C354.98 36.7671 354.415 36.5162 353.811 36.4766Z" fill="#6D65F5"/>
<path opacity="0.5" d="M353.811 36.4766C353.344 36.4744 352.883 36.5732 352.464 36.7653L256.285 88.2122C255.175 88.8103 254.254 89.6691 253.613 90.7027C252.972 91.7363 252.634 92.9084 252.633 94.1018V164.785C252.632 165.088 252.698 165.389 252.828 165.667C252.964 165.955 253.163 166.214 253.413 166.425C253.663 166.637 253.958 166.798 254.279 166.897C254.6 166.995 254.94 167.03 255.276 166.999C255.612 166.968 255.938 166.871 256.231 166.715L352.384 115.268C353.494 114.67 354.415 113.811 355.056 112.777C355.697 111.744 356.035 110.572 356.036 109.378V38.6955C356.035 38.1324 355.806 37.5905 355.393 37.1788C354.98 36.7671 354.415 36.5162 353.811 36.4766Z" fill="white"/>
<path d="M394.048 179.256L393.294 179.652C392.981 179.348 392.623 179.087 392.231 178.877L362.883 163.113C360.685 161.926 357.352 161.802 355.447 162.825L303.647 190.631C303.511 190.71 303.381 190.798 303.257 190.895L302.371 190.425V192.462C302.453 192.93 302.658 193.372 302.967 193.749C303.276 194.126 303.68 194.426 304.144 194.623L333.527 210.428C335.725 211.607 339.058 211.739 340.963 210.716L392.763 182.885C393.118 182.731 393.422 182.492 393.645 182.192C393.868 181.892 394.001 181.542 394.03 181.178L394.048 179.256Z" fill="#263238"/>
<path d="M392.761 180.95L340.962 208.773C339.056 209.804 335.724 209.672 333.525 208.492L304.178 192.721C301.98 191.541 301.74 189.751 303.646 188.728L355.445 160.93C357.351 159.899 360.684 160.031 362.882 161.211L392.229 176.982C394.436 178.137 394.676 179.902 392.761 180.95Z" fill="#37474F"/>
<path d="M386.503 179.978L345.863 201.812C345.289 202.055 344.662 202.169 344.032 202.145C343.402 202.121 342.788 201.959 342.238 201.672L316.843 188.045C315.771 187.476 315.655 186.602 316.586 186.107L357.261 164.231C357.836 163.99 358.463 163.877 359.092 163.902C359.721 163.926 360.336 164.087 360.887 164.372L386.246 177.998C387.318 178.609 387.433 179.475 386.503 179.978Z" fill="#455A64"/>
<path d="M324.315 199.598C326.18 199.598 327.692 198.786 327.692 197.783C327.692 196.781 326.18 195.969 324.315 195.969C322.449 195.969 320.938 196.781 320.938 197.783C320.938 198.786 322.449 199.598 324.315 199.598Z" fill="#263238"/>
<path d="M332.053 200.021L328.507 201.918C328.285 202.01 328.043 202.053 327.8 202.042C327.556 202.032 327.319 201.97 327.107 201.86C326.699 201.637 326.655 201.299 327.009 201.109L330.555 199.212C330.777 199.12 331.019 199.077 331.262 199.087C331.505 199.097 331.742 199.16 331.955 199.27C332.363 199.493 332.416 199.831 332.053 200.021Z" fill="#263238"/>
<path d="M335.404 201.824L331.859 203.721C331.636 203.813 331.394 203.856 331.151 203.846C330.908 203.836 330.671 203.773 330.458 203.663C330.05 203.44 330.006 203.11 330.361 202.912L333.906 201.024C334.127 200.928 334.369 200.883 334.613 200.892C334.856 200.9 335.094 200.962 335.307 201.073C335.714 201.296 335.759 201.634 335.404 201.824Z" fill="#263238"/>
<path d="M318.306 192.63L314.76 194.519C314.541 194.615 314.3 194.66 314.058 194.652C313.816 194.643 313.579 194.581 313.369 194.469C312.952 194.247 312.908 193.908 313.262 193.719L316.808 191.822C317.03 191.729 317.272 191.687 317.515 191.697C317.758 191.707 317.995 191.769 318.208 191.879C318.616 192.102 318.669 192.432 318.306 192.63Z" fill="#263238"/>
<path d="M321.654 194.435L318.109 196.332C317.886 196.424 317.644 196.467 317.401 196.457C317.158 196.447 316.921 196.384 316.708 196.274C316.3 196.051 316.256 195.713 316.611 195.523L320.156 193.626C320.378 193.534 320.621 193.491 320.864 193.501C321.107 193.511 321.344 193.574 321.557 193.684C321.973 193.923 322.017 194.245 321.654 194.435Z" fill="#263238"/>
<path d="M353.075 146.26L347.065 145.781L341.047 146.243L342.563 154.236V154.319C342.66 154.625 342.825 154.909 343.046 155.153C343.267 155.397 343.54 155.596 343.848 155.737C344.839 156.203 345.933 156.445 347.043 156.445C348.153 156.445 349.248 156.203 350.238 155.737C350.566 155.592 350.854 155.381 351.081 155.118C351.308 154.855 351.468 154.548 351.55 154.22L353.075 146.26Z" fill="#37474F"/>
<path d="M351.334 143.736C353.692 145.006 353.692 147.036 351.334 148.322C350.014 148.949 348.553 149.275 347.071 149.275C345.589 149.275 344.128 148.949 342.807 148.322C340.45 147.06 340.45 145.023 342.807 143.736C344.129 143.113 345.589 142.789 347.071 142.789C348.552 142.789 350.013 143.113 351.334 143.736Z" fill="#455A64"/>
<path d="M347.066 128.453C346.846 128.452 346.627 128.492 346.423 128.57C346.22 128.648 346.034 128.762 345.879 128.907C345.723 129.052 345.6 129.225 345.516 129.414C345.432 129.604 345.389 129.807 345.391 130.012V145.454C345.403 145.59 345.455 145.722 345.541 145.833C345.627 145.945 345.743 146.033 345.878 146.089C346.244 146.264 346.65 146.355 347.061 146.355C347.473 146.355 347.879 146.264 348.245 146.089C348.381 146.034 348.498 145.946 348.586 145.834C348.673 145.722 348.727 145.591 348.741 145.454V130.012C348.741 129.599 348.565 129.202 348.25 128.91C347.936 128.617 347.51 128.453 347.066 128.453Z" fill="#263238"/>
<path d="M302.309 21.5234C301.962 21.5236 301.62 21.5969 301.307 21.7379L230.292 59.7395C229.479 60.1868 228.806 60.824 228.34 61.5879C227.873 62.3519 227.63 63.2161 227.633 64.0948V116.284C227.631 116.509 227.683 116.731 227.784 116.936C227.883 117.149 228.029 117.34 228.213 117.497C228.397 117.654 228.615 117.772 228.851 117.846C229.088 117.919 229.339 117.945 229.587 117.921C229.835 117.898 230.076 117.827 230.292 117.711L301.299 79.7178C302.12 79.2757 302.801 78.6407 303.276 77.8764C303.75 77.1121 304.001 76.2452 304.002 75.3625V23.1732C304.003 22.7482 303.827 22.3395 303.511 22.0321C303.196 21.7248 302.765 21.5426 302.309 21.5234Z" fill="#E0E0E0"/>
<path d="M302.274 22.3492C302.498 22.3638 302.708 22.4571 302.861 22.6103C303.014 22.7634 303.099 22.9649 303.098 23.174V75.3633C303.098 76.1054 302.888 76.8343 302.49 77.4771C302.092 78.12 301.519 78.654 300.829 79.0258L229.813 117.019C229.676 117.095 229.52 117.135 229.361 117.135C229.174 117.147 228.988 117.105 228.829 117.013C228.669 116.921 228.546 116.785 228.475 116.623C228.429 116.515 228.405 116.401 228.404 116.285V64.0957C228.404 63.3537 228.614 62.6247 229.012 61.9819C229.41 61.3391 229.983 60.805 230.673 60.4333L301.777 22.4399C301.947 22.3678 302.131 22.3312 302.318 22.3327L302.274 22.3492ZM302.318 21.5078C301.971 21.5079 301.629 21.5813 301.316 21.7223L230.292 59.7404C229.479 60.1876 228.806 60.8248 228.34 61.5888C227.873 62.3528 227.63 63.217 227.633 64.0957V116.285C227.631 116.51 227.683 116.732 227.784 116.937C227.92 117.232 228.146 117.484 228.434 117.661C228.723 117.838 229.06 117.934 229.406 117.935C229.716 117.931 230.021 117.854 230.292 117.712L301.299 79.7187C302.12 79.2766 302.801 78.6416 303.276 77.8773C303.75 77.1129 304.001 76.246 304.002 75.3633V23.174C304.003 22.7558 303.833 22.3528 303.527 22.0465C303.221 21.7402 302.802 21.5536 302.353 21.5243L302.318 21.5078Z" fill="#E0E0E0"/>
<path d="M228.371 117.644L230.862 119.269V115.508L228.371 117.644Z" fill="#E0E0E0"/>
<path d="M303.108 21.7812L305.635 23.4227L302.523 25.4767L303.108 21.7812Z" fill="#E0E0E0"/>
<path d="M304.739 23.1251C304.394 23.122 304.054 23.1955 303.746 23.3396L232.722 61.3329C231.909 61.7782 231.236 62.4138 230.769 63.1765C230.303 63.9392 230.059 64.8024 230.063 65.68V117.878C230.063 118.101 230.111 118.323 230.204 118.529C230.304 118.742 230.451 118.932 230.636 119.088C230.82 119.244 231.038 119.362 231.274 119.434C231.511 119.506 231.762 119.532 232.009 119.508C232.257 119.484 232.497 119.412 232.713 119.296L303.728 81.3524C304.542 80.9058 305.215 80.2687 305.682 79.5046C306.148 78.7405 306.391 77.876 306.387 76.9971V24.7666C306.386 24.3498 306.216 23.9488 305.91 23.6443C305.604 23.3398 305.186 23.1543 304.739 23.1251Z" fill="white"/>
<path d="M304.703 23.9205C304.927 23.9351 305.137 24.0284 305.29 24.1816C305.443 24.3347 305.528 24.5362 305.528 24.7453V76.9511C305.526 77.6928 305.315 78.4211 304.917 79.0637C304.519 79.7062 303.947 80.2405 303.259 80.6135L232.243 118.607C232.106 118.682 231.95 118.722 231.791 118.722C231.604 118.735 231.418 118.693 231.258 118.601C231.099 118.509 230.975 118.372 230.905 118.211C230.859 118.103 230.835 117.989 230.834 117.873V65.6752C230.835 64.9346 231.046 64.2073 231.444 63.5661C231.842 62.9248 232.414 62.3921 233.103 62.021L304.154 23.9947C304.326 23.9198 304.514 23.8831 304.703 23.8875V23.9205ZM304.703 23.0626C304.359 23.0595 304.018 23.133 303.711 23.2771L232.722 61.3282C231.909 61.7734 231.236 62.4091 230.769 63.1718C230.303 63.9345 230.059 64.7976 230.063 65.6752V117.873C230.063 118.097 230.111 118.318 230.204 118.524C230.343 118.82 230.571 119.07 230.861 119.246C231.151 119.422 231.489 119.515 231.835 119.514C232.147 119.517 232.454 119.44 232.722 119.292L303.737 81.3477C304.551 80.901 305.224 80.264 305.69 79.4998C306.157 78.7357 306.4 77.8712 306.396 76.9924V24.7618C306.398 24.3449 306.229 23.943 305.925 23.6369C305.621 23.3309 305.203 23.1434 304.756 23.1121L304.703 23.0626Z" fill="#E0E0E0"/>
<path d="M265.615 80.0901C265.62 79.3783 265.673 78.6675 265.774 77.962C260.819 79.5457 256.972 77.3021 256.184 72.3281C250.626 76.5267 246.434 84.0577 246.434 90.3927C246.434 97.6185 251.885 100.547 258.612 96.9339C262.512 94.8387 265.969 91.0031 268.203 86.7468C266.581 85.427 265.615 83.1586 265.615 80.0901Z" fill="#6D65F5"/>
<path opacity="0.7" d="M265.615 80.0901C265.62 79.3783 265.673 78.6675 265.774 77.962C260.819 79.5457 256.972 77.3021 256.184 72.3281C250.626 76.5267 246.434 84.0577 246.434 90.3927C246.434 97.6185 251.885 100.547 258.612 96.9339C262.512 94.8387 265.969 91.0031 268.203 86.7468C266.581 85.427 265.615 83.1586 265.615 80.0901Z" fill="white"/>
<path d="M280.213 59.4729C279.184 65.6869 275.779 71.3461 270.623 75.4094C270.731 76.0535 270.787 76.7042 270.791 77.356C270.691 80.6438 269.807 83.8698 268.203 86.8008C270.428 88.665 273.894 88.7804 277.785 86.6853C284.512 83.0724 289.963 74.3123 289.963 67.0535C289.963 60.7102 285.824 57.6747 280.213 59.4729Z" fill="#6D65F5"/>
<path opacity="0.3" d="M280.213 59.4729C279.184 65.6869 275.779 71.3461 270.623 75.4094C270.731 76.0535 270.787 76.7042 270.791 77.356C270.691 80.6438 269.807 83.8698 268.203 86.8008C270.428 88.665 273.894 88.7804 277.785 86.6853C284.512 83.0724 289.963 74.3123 289.963 67.0535C289.963 60.7102 285.824 57.6747 280.213 59.4729Z" fill="black"/>
<path d="M270.621 75.3906C269.858 75.9666 269.049 76.4878 268.201 76.9496C267.428 77.3668 266.615 77.7175 265.773 77.9972C265.672 78.7028 265.619 79.4136 265.613 80.1254C265.613 83.1609 266.579 85.4293 268.201 86.782C269.793 83.8484 270.665 80.6226 270.754 77.3373C270.762 76.6862 270.717 76.0355 270.621 75.3906Z" fill="#6D65F5"/>
<path opacity="0.5" d="M270.621 75.3906C269.858 75.9666 269.049 76.4878 268.201 76.9496C267.428 77.3668 266.615 77.7175 265.773 77.9972C265.672 78.7028 265.619 79.4136 265.613 80.1254C265.613 83.1609 266.579 85.4293 268.201 86.782C269.793 83.8484 270.665 80.6226 270.754 77.3373C270.762 76.6862 270.717 76.0355 270.621 75.3906Z" fill="black"/>
<path d="M268.202 70.6847C270.427 66.4284 273.893 62.5928 277.784 60.4976C278.556 60.0852 279.37 59.7427 280.212 59.4748C280.313 58.7692 280.366 58.0584 280.372 57.3466C280.372 50.1208 274.921 47.1925 268.202 50.8054C261.483 54.4183 256.023 63.1784 256.023 70.429C256.025 71.0834 256.078 71.7369 256.183 72.3839C256.947 71.8025 257.759 71.2784 258.612 70.8167C262.512 68.705 265.968 68.8205 268.202 70.6847Z" fill="#6D65F5"/>
<path d="M265.774 77.9936C266.151 75.4481 266.971 72.9768 268.203 70.677C265.969 68.8128 262.512 68.6973 258.612 70.7925C257.759 71.2542 256.947 71.7783 256.184 72.3597C256.972 77.3337 260.819 79.5773 265.774 77.9936Z" fill="#6D65F5"/>
<path opacity="0.3" d="M265.774 77.9936C266.151 75.4481 266.971 72.9768 268.203 70.677C265.969 68.8128 262.512 68.6973 258.612 70.7925C257.759 71.2542 256.947 71.7783 256.184 72.3597C256.972 77.3337 260.819 79.5773 265.774 77.9936Z" fill="white"/>
<path d="M268.203 70.6709C269.577 71.9289 270.434 73.5957 270.623 75.3809C275.775 71.3218 279.18 65.669 280.213 59.4609C279.37 59.7341 278.557 60.0822 277.785 60.5003C273.894 62.5789 270.428 66.4146 268.203 70.6709Z" fill="#6D65F5"/>
<path opacity="0.7" d="M268.203 70.6709C269.577 71.9289 270.434 73.5957 270.623 75.3809C275.775 71.3218 279.18 65.669 280.213 59.4609C279.37 59.7341 278.557 60.0822 277.785 60.5003C273.894 62.5789 270.428 66.4146 268.203 70.6709Z" fill="black"/>
<path d="M268.202 70.6797C266.971 72.9795 266.15 75.4508 265.773 77.9963C266.616 77.7165 267.428 77.3659 268.202 76.9487C269.05 76.4868 269.859 75.9657 270.622 75.3897C270.433 73.6045 269.576 71.9377 268.202 70.6797Z" fill="#263238"/>
<path d="M345.731 63.586C345.446 63.583 345.164 63.6423 344.907 63.7593L286.23 95.1537C285.549 95.5157 284.983 96.0393 284.591 96.6711C284.198 97.3029 283.993 98.0204 283.996 98.7501V141.882C283.997 142.069 284.036 142.254 284.111 142.427C284.195 142.602 284.317 142.759 284.469 142.887C284.622 143.016 284.801 143.113 284.997 143.173C285.192 143.233 285.399 143.254 285.604 143.235C285.809 143.216 286.007 143.157 286.185 143.062L344.872 111.668C345.551 111.305 346.115 110.78 346.505 110.149C346.896 109.517 347.1 108.8 347.096 108.071V64.9553C347.102 64.6076 346.963 64.2713 346.709 64.0163C346.454 63.7613 346.104 63.6072 345.731 63.586Z" fill="#E0E0E0"/>
<path d="M345.704 64.2623C345.889 64.2788 346.061 64.359 346.185 64.4872C346.31 64.6154 346.379 64.7823 346.378 64.9552V108.129C346.378 108.74 346.205 109.341 345.877 109.871C345.548 110.401 345.076 110.841 344.507 111.148L285.821 142.501C285.71 142.566 285.581 142.6 285.449 142.6C285.302 142.601 285.158 142.562 285.035 142.487C284.912 142.412 284.815 142.305 284.758 142.179C284.715 142.091 284.694 141.995 284.696 141.899V98.7665C284.696 98.1549 284.868 97.554 285.197 97.0241C285.525 96.4943 285.997 96.054 286.566 95.7475L345.252 64.3448C345.394 64.2859 345.549 64.2577 345.704 64.2623ZM345.704 63.6024C345.419 63.5994 345.136 63.6587 344.88 63.7757L286.202 95.1701C285.521 95.532 284.956 96.0557 284.564 96.6875C284.171 97.3193 283.966 98.0367 283.969 98.7665V141.899C283.969 142.085 284.008 142.27 284.084 142.443C284.166 142.619 284.287 142.777 284.44 142.906C284.592 143.036 284.772 143.133 284.968 143.193C285.164 143.253 285.371 143.274 285.576 143.254C285.781 143.234 285.98 143.174 286.158 143.078L344.844 111.684C345.524 111.321 346.087 110.797 346.478 110.165C346.869 109.533 347.073 108.816 347.069 108.087V64.9552C347.075 64.6114 346.94 64.2785 346.691 64.0242C346.442 63.7699 346.099 63.6132 345.731 63.5859L345.704 63.6024Z" fill="#E0E0E0"/>
<path d="M284.633 143.023L286.689 144.368V141.258L284.633 143.023Z" fill="#E0E0E0"/>
<path d="M346.385 63.8203L348.477 65.1731L345.906 66.8641L346.385 63.8203Z" fill="#E0E0E0"/>
<path d="M347.735 64.9219C347.449 64.9196 347.166 64.9818 346.911 65.1034L288.234 96.4978C287.554 96.8591 286.989 97.3814 286.597 98.0117C286.205 98.6419 285.999 99.3576 286 100.086V143.218C285.999 143.406 286.041 143.592 286.124 143.763C286.207 143.938 286.329 144.095 286.482 144.223C286.634 144.352 286.814 144.449 287.01 144.509C287.205 144.569 287.412 144.59 287.617 144.571C287.821 144.552 288.019 144.493 288.198 144.398L346.884 113.003C347.564 112.64 348.127 112.116 348.518 111.485C348.909 110.853 349.113 110.136 349.109 109.407V66.2747C349.11 65.9284 348.968 65.5951 348.712 65.3435C348.456 65.0918 348.107 64.9409 347.735 64.9219Z" fill="white"/>
<path d="M347.708 65.5818C347.894 65.5964 348.067 65.6761 348.192 65.8047C348.317 65.9333 348.385 66.1013 348.382 66.2747V109.407C348.38 110.02 348.207 110.621 347.879 111.152C347.551 111.683 347.08 112.125 346.511 112.434L287.825 143.829C287.711 143.887 287.583 143.919 287.453 143.919C287.306 143.92 287.163 143.88 287.04 143.805C286.917 143.73 286.82 143.624 286.762 143.499C286.719 143.411 286.698 143.315 286.699 143.218V100.086C286.7 99.4736 286.875 98.8722 287.204 98.3422C287.534 97.8123 288.008 97.3725 288.579 97.067L347.256 65.6726C347.398 65.6116 347.552 65.5806 347.708 65.5818ZM347.708 64.9219C347.422 64.9196 347.139 64.9818 346.884 65.1034L288.206 96.4978C287.527 96.8591 286.962 97.3814 286.57 98.0117C286.177 98.6419 285.971 99.3576 285.973 100.086V143.218C285.972 143.406 286.014 143.592 286.097 143.763C286.213 144.006 286.401 144.213 286.64 144.36C286.879 144.506 287.158 144.585 287.444 144.588C287.699 144.588 287.95 144.525 288.171 144.406L346.857 113.012C347.536 112.649 348.1 112.125 348.491 111.493C348.882 110.861 349.086 110.144 349.082 109.415V66.2747C349.083 65.9311 348.943 65.6001 348.691 65.3489C348.439 65.0976 348.094 64.945 347.726 64.9219H347.708Z" fill="#E0E0E0"/>
<path d="M341.765 108.021L297.5 131.802L310.583 100.135L319.633 110.149L328.895 97.875L341.765 108.021Z" fill="#6D65F5"/>
<path opacity="0.4" d="M341.765 108.021L297.5 131.802L310.583 100.135L319.633 110.149L328.895 97.875L341.765 108.021Z" fill="white"/>
<path d="M326.411 88.2684C326.335 89.5716 325.93 90.8399 325.229 91.9705C324.529 93.1012 323.552 94.0624 322.378 94.7766C320.144 95.9726 318.336 94.9993 318.336 92.6071C318.411 91.3027 318.816 90.0332 319.519 88.9022C320.221 87.7712 321.201 86.8107 322.378 86.099C324.603 84.9029 326.411 85.868 326.411 88.2684Z" fill="#6D65F5"/>
<path d="M432.859 213.273L446.155 279.048C446.266 279.563 446.588 280.017 447.052 280.314C447.516 280.612 448.087 280.73 448.643 280.643C449.199 280.556 449.697 280.272 450.032 279.849C450.366 279.427 450.511 278.9 450.436 278.38L440.686 217.439L432.859 213.273Z" fill="#263238"/>
<path d="M458.4 255.913L444.874 332.716C444.775 333.276 444.466 333.785 444.002 334.152C443.538 334.519 442.948 334.721 442.339 334.721C441.977 334.722 441.619 334.651 441.288 334.515C440.957 334.378 440.661 334.177 440.419 333.927C440.177 333.676 439.995 333.38 439.885 333.059C439.774 332.739 439.737 332.4 439.777 332.065L449.27 252.828L458.4 255.913Z" fill="#455A64"/>
<path d="M411.685 230.082L398.159 306.886C398.062 307.447 397.754 307.957 397.29 308.326C396.825 308.695 396.235 308.898 395.624 308.898C395.262 308.898 394.903 308.827 394.572 308.689C394.242 308.551 393.946 308.35 393.704 308.099C393.462 307.847 393.28 307.551 393.17 307.23C393.059 306.909 393.023 306.569 393.063 306.234L402.555 227.047L411.685 230.082Z" fill="#455A64"/>
<path d="M480.078 237.961L493.374 304.14C493.488 304.65 493.81 305.1 494.272 305.395C494.735 305.69 495.301 305.806 495.854 305.721C496.407 305.636 496.903 305.355 497.239 304.938C497.574 304.52 497.723 303.998 497.655 303.48L487.798 242.135L480.078 237.961Z" fill="#263238"/>
<path d="M435.797 208.265C438.852 207.004 441.495 205.014 443.458 202.496C445.421 199.979 446.634 197.023 446.974 193.928C449.127 173.777 456.724 132.253 482.597 146.086C514.506 163.144 503.072 212.694 498.436 228.573C497.398 232.156 495.38 235.427 492.577 238.067C486.807 243.47 474.85 252.774 454.587 260.693C452.096 261.664 449.324 261.818 446.725 261.13C436.647 258.458 410.314 250.25 397.178 234.619C396.432 233.732 396.093 232.607 396.234 231.489C396.376 230.371 396.985 229.349 397.931 228.647C403.258 224.679 415.277 216.777 435.797 208.265Z" fill="#FFC305"/>
<path opacity="0.3" d="M435.797 208.265C438.852 207.004 441.495 205.014 443.458 202.496C445.421 199.979 446.634 197.023 446.974 193.928C449.127 173.777 456.724 132.253 482.597 146.086C514.506 163.144 503.072 212.694 498.436 228.573C497.398 232.156 495.38 235.427 492.577 238.067C486.807 243.47 474.85 252.774 454.587 260.693C452.096 261.664 449.324 261.818 446.725 261.13C436.647 258.458 410.314 250.25 397.178 234.619C396.432 233.732 396.093 232.607 396.234 231.489C396.376 230.371 396.985 229.349 397.931 228.647C403.258 224.679 415.277 216.777 435.797 208.265Z" fill="black"/>
<path d="M396.227 231.74C396.161 232.764 396.498 233.776 397.175 234.586C397.876 235.411 398.62 236.236 399.391 237.06C399.817 237.489 400.278 237.885 400.685 238.339C401.128 238.751 401.572 239.164 402.024 239.568H402.068C402.52 239.972 402.954 240.393 403.451 240.764C403.92 241.16 404.408 241.589 404.895 241.927C412.341 247.751 421.382 252.18 429.457 255.372L430.955 255.95L431.105 256.008C431.575 256.189 431.992 256.362 432.488 256.527L432.727 256.618L434.013 257.08L434.305 257.187L435.502 257.608L435.847 257.732L436.955 258.103L437.354 258.235L438.373 258.573L438.799 258.713L439.738 259.01L440.191 259.159L441.077 259.423L441.564 259.571L442.336 259.802L442.85 259.951L443.514 260.148L444.073 260.305L444.64 260.47L445.323 260.66L445.668 260.751L446.634 261.015C449.233 261.702 452.005 261.548 454.496 260.577C474.785 252.659 486.716 243.354 492.486 237.951C495.303 235.353 497.351 232.123 498.434 228.573C503.069 212.653 514.503 163.103 482.594 146.086C482.027 145.781 481.477 145.517 480.928 145.261L480.564 145.104C480.027 144.862 479.495 144.648 478.969 144.461L478.818 144.411C478.313 144.23 477.826 144.082 477.338 143.95L477.116 143.892C476.585 143.752 476.071 143.644 475.565 143.554H475.441C474.433 143.384 473.407 143.317 472.383 143.356H472.321C471.341 143.394 470.369 143.535 469.423 143.776C474.519 141.681 480.742 141.772 486.911 145.071C518.82 162.138 507.386 211.688 502.75 227.558L501.961 230.288C500.379 235.802 496.879 240.672 492.007 244.138L483.729 250.019C474.779 256.306 464.996 261.494 454.621 265.452C452.121 266.429 449.34 266.586 446.732 265.898C436.663 263.217 410.311 254.968 397.175 239.354C396.617 238.684 396.286 237.874 396.227 237.027V231.732V231.74Z" fill="#FFC305"/>
<path opacity="0.5" d="M396.227 231.74C396.161 232.764 396.498 233.776 397.175 234.586C397.876 235.411 398.62 236.236 399.391 237.06C399.817 237.489 400.278 237.885 400.685 238.339C401.128 238.751 401.572 239.164 402.024 239.568H402.068C402.52 239.972 402.954 240.393 403.451 240.764C403.92 241.16 404.408 241.589 404.895 241.927C412.341 247.751 421.382 252.18 429.457 255.372L430.955 255.95L431.105 256.008C431.575 256.189 431.992 256.362 432.488 256.527L432.727 256.618L434.013 257.08L434.305 257.187L435.502 257.608L435.847 257.732L436.955 258.103L437.354 258.235L438.373 258.573L438.799 258.713L439.738 259.01L440.191 259.159L441.077 259.423L441.564 259.571L442.336 259.802L442.85 259.951L443.514 260.148L444.073 260.305L444.64 260.47L445.323 260.66L445.668 260.751L446.634 261.015C449.233 261.702 452.005 261.548 454.496 260.577C474.785 252.659 486.716 243.354 492.486 237.951C495.303 235.353 497.351 232.123 498.434 228.573C503.069 212.653 514.503 163.103 482.594 146.086C482.027 145.781 481.477 145.517 480.928 145.261L480.564 145.104C480.027 144.862 479.495 144.648 478.969 144.461L478.818 144.411C478.313 144.23 477.826 144.082 477.338 143.95L477.116 143.892C476.585 143.752 476.071 143.644 475.565 143.554H475.441C474.433 143.384 473.407 143.317 472.383 143.356H472.321C471.341 143.394 470.369 143.535 469.423 143.776C474.519 141.681 480.742 141.772 486.911 145.071C518.82 162.138 507.386 211.688 502.75 227.558L501.961 230.288C500.379 235.802 496.879 240.672 492.007 244.138L483.729 250.019C474.779 256.306 464.996 261.494 454.621 265.452C452.121 266.429 449.34 266.586 446.732 265.898C436.663 263.217 410.311 254.968 397.175 239.354C396.617 238.684 396.286 237.874 396.227 237.027V231.732V231.74Z" fill="black"/>
<path d="M493.328 113.33C493.328 113.33 500.419 106.508 508.512 110.855C516.604 115.202 512.766 129.002 510.435 132.92C508.104 136.838 503.787 150.927 516.436 148.073C516.436 148.073 512.11 153.847 503.14 152.271C494.17 150.696 492.433 140.649 494.826 132.334C497.219 124.02 493.364 120.242 493.364 120.242L493.328 113.33Z" fill="#263238"/>
<path d="M456.289 146.802C456.289 146.802 446.903 145.894 443.171 147.453C439.439 149.012 415.773 180.25 415.773 180.25C415.773 180.25 424.637 182.856 438.987 171.795C453.338 160.734 456.289 146.802 456.289 146.802Z" fill="#C98A8A"/>
<path d="M487.541 178.808L488.658 154.887L476.808 149.385L462.688 146.828H456.288C456.288 146.828 443.808 156.727 439.953 166.27C436.097 175.814 444.819 182.933 444.819 182.933C444.819 190.975 439.953 199.785 439.953 199.785C439.953 199.785 448.311 211.151 466.703 209.897C472.624 209.373 478.385 207.805 483.677 205.278C482.895 201.09 481.808 196.956 480.424 192.905L487.541 178.808Z" fill="#FFC305"/>
<path d="M464.056 98.4838C464.056 98.4838 454.439 93.716 450.335 103.045C446.231 112.375 452.294 122.883 440.266 124.426C440.266 124.426 446.133 130.637 453.721 121.737C452.648 122.999 453.907 127.123 454.385 128.476C455.247 130.929 456.773 133.133 458.817 134.877C461.149 136.728 463.864 138.115 466.795 138.952C468.911 139.684 471.149 140.064 473.407 140.074C476.828 139.999 481.136 138.548 484.105 136.956C487.307 135.204 489.917 132.652 491.639 129.589C494.691 123.988 495.568 117.577 494.121 111.442C493.327 108.014 491.5 104.867 488.856 102.369C482.075 96.7598 472.467 96.5041 464.056 98.4838Z" fill="#263238"/>
<path d="M464.058 138.665L462.684 146.839C462.684 146.839 452.048 154.931 460.752 156.969C469.456 159.006 476.804 149.388 476.804 149.388L479.534 133.18L464.058 138.665Z" fill="#C98A8A"/>
<path d="M479.836 130.41L479.756 130.88C474.615 142.041 465.991 143.369 463.234 143.608L466.159 125.609L479.933 127.515L479.836 130.41Z" fill="#703838"/>
<path d="M471.074 102.624C465.755 102.261 454.233 104.274 451.928 117.084C449.624 129.894 450.067 140.04 457.158 141.492C464.249 142.944 481.285 139.257 484.839 122.669C488.393 106.081 476.223 102.979 471.074 102.624Z" fill="#C98A8A"/>
<path d="M460.712 123.656L459.569 131.229L455.004 129.241L460.712 123.656Z" fill="#703838"/>
<path d="M467.87 124.491C467.823 124.794 467.681 125.078 467.461 125.306C467.241 125.534 466.953 125.696 466.634 125.772C466.315 125.848 465.979 125.834 465.668 125.733C465.358 125.631 465.086 125.446 464.889 125.201C464.691 124.956 464.576 124.662 464.557 124.356C464.539 124.05 464.618 123.746 464.786 123.482C464.953 123.218 465.201 123.006 465.497 122.873C465.794 122.74 466.126 122.691 466.452 122.734C466.669 122.762 466.879 122.83 467.068 122.934C467.257 123.037 467.422 123.175 467.553 123.338C467.685 123.501 467.781 123.687 467.835 123.885C467.89 124.083 467.902 124.289 467.87 124.491Z" fill="#263238"/>
<path d="M457.139 121.984C457.094 122.29 456.951 122.576 456.731 122.807C456.51 123.038 456.221 123.202 455.9 123.279C455.578 123.357 455.24 123.343 454.927 123.241C454.613 123.139 454.34 122.953 454.14 122.706C453.941 122.459 453.825 122.163 453.807 121.855C453.789 121.546 453.87 121.24 454.039 120.974C454.209 120.709 454.459 120.496 454.758 120.363C455.058 120.23 455.393 120.183 455.721 120.227C456.159 120.286 456.554 120.504 456.819 120.834C457.085 121.163 457.2 121.576 457.139 121.984Z" fill="#263238"/>
<path d="M453.955 118.275L457.5 116.914C457.5 116.914 456.446 115.544 455.089 116.089C453.733 116.633 453.955 118.275 453.955 118.275Z" fill="#FFC305"/>
<path d="M460.613 133.107C462.404 132.572 464.162 131.944 465.878 131.227C465.878 131.227 466.189 132.249 463.857 132.992C461.526 133.734 460.613 133.107 460.613 133.107Z" fill="#703838"/>
<path d="M453.955 118.275L457.5 116.914C457.5 116.914 456.446 115.544 455.089 116.089C453.733 116.633 453.955 118.275 453.955 118.275Z" fill="#263238"/>
<path d="M476.142 124.984C476.142 124.984 474.901 130.354 478.251 130.84L484.819 131.797L486.592 121.47C488.533 109.922 481.132 96.4269 459.443 103.059C459.407 103.059 455.835 118.377 476.142 124.984Z" fill="#263238"/>
<path d="M478.324 130.212C478.487 129.035 478.933 127.908 479.627 126.912C479.99 126.277 480.545 125.754 481.224 125.41C481.903 125.065 482.676 124.914 483.447 124.974C487.373 125.477 487.267 129.057 486.992 130.294C486.265 133.536 482.791 136.629 477.473 135.945L478.324 130.212Z" fill="#C98A8A"/>
<path d="M374.087 311.307C374.087 311.307 363.255 319.184 362.139 321.412C361.022 323.639 363.858 329.924 379.201 327.639C383.491 327.004 389.66 322.929 392.754 319.019C395.847 315.11 402.096 312.42 403.036 311.018C404.392 309.047 403.629 298.695 401.263 298.505C397.425 298.208 374.087 311.307 374.087 311.307Z" fill="#353533"/>
<path d="M395.149 235.281C395.149 235.281 388.342 287.438 387.216 295.117C386.693 298.713 375.995 309.453 372.299 313.074C372.147 313.224 372.031 313.403 371.96 313.598C371.889 313.794 371.864 314.001 371.887 314.206C371.91 314.411 371.98 314.609 372.092 314.787C372.204 314.964 372.357 315.118 372.538 315.236L372.857 315.442C375.025 316.834 377.622 317.529 380.254 317.418C382.885 317.308 385.405 316.4 387.429 314.831C390.443 312.513 393.572 309.717 395.149 307.127C396.504 304.695 398.249 302.47 400.326 300.528C400.844 300.085 401.161 299.474 401.212 298.821C401.407 296.272 402.036 289.863 403.605 286.274C405.6 281.721 415.757 263.376 415.757 246.78L395.149 235.281Z" fill="#C98A8A"/>
<path d="M415.772 246.817L415.701 246.775L411.119 246.297C412.891 257.754 409.435 273.583 409.426 273.625C412.572 265.962 415.772 256.113 415.772 246.817Z" fill="#703838"/>
<path d="M394.278 322.307C394.278 322.307 383.447 330.184 382.33 332.412C381.213 334.639 384.058 340.924 399.392 338.639C403.682 338.004 409.851 333.929 412.945 330.019C416.038 326.11 422.287 323.42 423.235 322.018C424.583 320.047 423.82 309.695 421.463 309.505C417.616 309.208 394.278 322.307 394.278 322.307Z" fill="#263238"/>
<path d="M415.35 246.297C415.35 246.297 408.534 298.461 407.373 306.133C406.85 309.729 396.151 320.469 392.455 324.09C392.303 324.24 392.188 324.419 392.117 324.614C392.046 324.809 392.021 325.017 392.043 325.222C392.066 325.427 392.136 325.625 392.248 325.802C392.361 325.98 392.513 326.133 392.694 326.251L393.013 326.457C395.181 327.85 397.779 328.544 400.41 328.434C403.041 328.324 405.561 327.415 407.585 325.847C410.599 323.529 413.728 320.733 415.314 318.143C416.667 315.712 418.409 313.486 420.482 311.544C421 311.1 421.317 310.49 421.368 309.836C421.563 307.287 422.193 300.878 423.762 297.29C425.756 292.737 435.914 274.4 435.914 257.796L415.35 246.297Z" fill="#C98A8A"/>
<path d="M439.956 199.758C439.956 199.758 407.417 216.255 400.752 223.605C394.086 230.954 391.25 247.881 391.25 247.881C402.613 261.524 437.341 263.017 437.341 263.017C440.266 254.117 447.437 252.549 458.614 247.518C469.791 242.486 482.28 232.315 484.318 221.345C485.205 216.329 484.664 210.399 483.707 205.251C478.415 207.779 472.654 209.346 466.733 209.871C448.314 211.124 439.956 199.758 439.956 199.758Z" fill="#263238"/>
<path d="M457.828 184.314C457.828 184.314 472.107 187.894 478.277 178.383C478.277 178.383 473.269 190.781 457.828 184.314Z" fill="#FFC305"/>
<path d="M487.106 154.148C487.106 154.148 476.284 158.553 486.557 180.759C493.461 195.689 494.614 199.731 494.614 199.731C494.614 199.731 491.015 201.38 470.434 215.65L476.638 225.227C476.638 225.227 513.201 213.093 512.394 203.657C511.587 194.22 500.942 169.928 499.276 166.455C497.61 162.983 496.776 158.1 487.106 154.148Z" fill="#C98A8A"/>
<path d="M415.774 180.246C419.319 181.665 426.836 175.536 433.093 167.477C436.776 162.753 440.128 157.813 443.127 152.688C445.687 152.871 448.253 152.421 450.565 151.382C452.877 150.343 454.852 148.753 456.29 146.773C457.105 145.668 450.572 138.244 450.572 138.244L454.02 136.809C454.02 136.809 459.507 135.415 459.17 133.146C459.028 132.173 449.97 133.93 446.557 134.631C445.723 134.796 444.969 135.21 444.412 135.811L434.299 146.534C434.299 146.534 423.928 154.783 418.344 159.658C409.773 167.156 408.399 177.293 415.774 180.246Z" fill="#C98A8A"/>
<path d="M450.569 138.57C450.507 138.57 450.446 138.552 450.394 138.52C450.342 138.488 450.301 138.442 450.277 138.388C450.243 138.316 450.241 138.234 450.271 138.161C450.301 138.087 450.36 138.027 450.436 137.992L453.884 136.557C455.364 136.178 459.007 134.907 458.857 133.258C458.644 133.159 457.465 132.936 451.083 134.083C451 134.098 450.913 134.082 450.843 134.038C450.772 133.994 450.723 133.925 450.707 133.848C450.69 133.77 450.708 133.689 450.755 133.624C450.802 133.558 450.876 133.512 450.959 133.497C458.334 132.169 459.007 132.623 459.256 132.788C459.318 132.825 459.371 132.875 459.411 132.933C459.45 132.992 459.476 133.057 459.486 133.126C459.849 135.6 454.336 137.06 454.097 137.118L450.684 138.537C450.65 138.557 450.61 138.568 450.569 138.57Z" fill="#703838"/>
<path d="M429.174 172.39C429.096 172.388 429.021 172.362 428.961 172.315C428.93 172.288 428.906 172.256 428.889 172.22C428.872 172.183 428.863 172.144 428.863 172.105C428.863 172.066 428.872 172.027 428.889 171.99C428.906 171.954 428.93 171.922 428.961 171.895C430.291 170.468 431.62 168.917 432.861 167.3C436.528 162.594 439.871 157.676 442.868 152.576L442.974 152.387H443.196C445.693 152.561 448.195 152.126 450.455 151.124C450.532 151.089 450.62 151.084 450.701 151.11C450.741 151.122 450.777 151.142 450.809 151.168C450.841 151.194 450.867 151.225 450.885 151.261C450.904 151.296 450.915 151.334 450.918 151.373C450.92 151.412 450.915 151.452 450.901 151.489C450.888 151.526 450.866 151.56 450.838 151.59C450.811 151.619 450.777 151.643 450.739 151.661C448.434 152.685 445.887 153.148 443.338 153.005C440.348 158.065 437.024 162.946 433.384 167.622C432.108 169.272 430.787 170.822 429.44 172.266C429.409 172.305 429.369 172.337 429.323 172.358C429.277 172.38 429.226 172.391 429.174 172.39Z" fill="#703838"/>
<path d="M471.509 215.754C471.509 215.754 466.369 214.871 462.336 215.671C460.484 216.013 458.583 216.055 456.716 215.795C454.988 215.581 452.435 215.185 453.561 217.668C454.536 219.829 457.851 220.34 460.022 220.538C460.022 220.538 459.251 223.095 453.33 222.938C447.409 222.782 445.787 223.013 446.239 224.77C446.691 226.527 452.444 232.853 458.427 232.944C462.912 233.01 470.933 230.115 476.642 225.248L471.509 215.754Z" fill="#C98A8A"/>
<path d="M473.144 43.1746C473.734 38.6385 472.365 34.07 469.336 30.4735C466.308 26.8771 461.868 24.5473 456.994 23.9964C456.72 23.9964 456.445 23.9552 456.161 23.9387C456.238 23.6256 456.297 23.309 456.338 22.9901C456.744 19.8685 455.801 16.7248 453.716 14.25C451.632 11.7753 448.577 10.1718 445.223 9.79223C444.523 9.71967 443.818 9.70036 443.114 9.73449C441.296 6.97308 438.74 4.69659 435.697 3.12644C432.653 1.55629 429.224 0.745918 425.745 0.774151C422.265 0.802384 418.852 1.66826 415.838 3.28756C412.824 4.90686 410.312 7.22446 408.546 10.0149C405.245 9.63453 401.894 10.0899 398.848 11.333C395.802 12.5762 393.172 14.5611 391.237 17.0785C389.301 19.5959 388.131 22.5526 387.85 25.6371C387.569 28.7215 388.187 31.8194 389.639 34.6042C386.453 35.4267 383.736 37.3693 382.06 40.0216C380.384 42.674 379.881 45.8287 380.657 48.8196C381.434 51.8105 383.429 54.4036 386.221 56.0514C389.013 57.6992 392.384 58.2728 395.622 57.651C395.956 60.4483 397.056 63.1191 398.816 65.4076C400.577 67.696 402.939 69.5256 405.677 70.7209C408.415 71.9163 411.437 72.4375 414.454 72.2346C417.47 72.0317 420.38 71.1115 422.905 69.562C425.283 72.3416 428.491 74.4047 432.126 75.4919C435.761 76.579 439.66 76.6416 443.333 75.6718C447.006 74.702 450.289 72.7431 452.768 70.0415C455.248 67.3399 456.814 64.0162 457.269 60.4885C457.366 59.711 457.41 58.9286 457.402 58.1459C461.428 57.6051 465.151 55.846 467.996 53.1402C470.841 50.4344 472.65 46.9323 473.144 43.1746Z" fill="white"/>
<path d="M438.064 77.1519C437.231 77.1542 436.399 77.1074 435.573 77.0116C430.576 76.457 425.984 74.1789 422.703 70.6272C420.105 72.0763 417.164 72.9114 414.139 73.0597C411.114 73.208 408.096 72.6649 405.348 71.4779C402.6 70.2908 400.207 68.4959 398.376 66.2498C396.545 64.0038 395.333 61.3748 394.845 58.5924C393.668 58.7418 392.476 58.7418 391.299 58.5924C388.245 58.2459 385.407 56.9482 383.246 54.9102C381.084 52.8721 379.728 50.2137 379.396 47.3671C379.064 44.5205 379.777 41.6532 381.418 39.2314C383.06 36.8095 385.533 34.9756 388.436 34.0279C387.158 31.1555 386.698 28.0246 387.102 24.9384C387.506 21.8523 388.76 18.9156 390.742 16.413C392.725 13.9104 395.368 11.9267 398.416 10.6542C401.464 9.38166 404.814 8.86349 408.14 9.14987C410.022 6.36921 412.626 4.07381 415.711 2.47496C418.796 0.876111 422.264 0.0251973 425.795 0.000551084C429.326 -0.0240951 432.807 0.778317 435.918 2.33392C439.028 3.88953 441.668 6.14834 443.595 8.90242C445.535 8.87853 447.458 9.24246 449.235 9.96963C451.011 10.6968 452.599 11.7703 453.891 13.1175C455.184 14.4648 456.15 16.0545 456.726 17.7792C457.301 19.5038 457.472 21.3234 457.227 23.1149C457.227 23.1149 457.227 23.1809 457.227 23.2138C462.316 23.8157 466.943 26.2661 470.098 30.0305C473.253 33.7949 474.68 38.5677 474.068 43.3076C473.561 47.1246 471.76 50.6918 468.926 53.491C466.092 56.2902 462.373 58.1754 458.308 58.8728C458.296 59.4547 458.252 60.0357 458.175 60.6133C457.577 65.1775 455.207 69.3808 451.511 72.4326C447.816 75.4844 443.049 77.1745 438.108 77.1849L438.064 77.1519ZM422.88 68.7135C423.015 68.7128 423.148 68.7407 423.269 68.795C423.391 68.8493 423.497 68.9286 423.581 69.0269C425.851 71.6766 428.911 73.6431 432.378 74.6796C435.845 75.7161 439.564 75.7763 443.067 74.8528C446.571 73.9293 449.703 72.0632 452.071 69.4888C454.439 66.9143 455.936 63.7463 456.376 60.3823C456.468 59.6403 456.509 58.8938 456.5 58.1469C456.498 57.9468 456.574 57.7527 456.715 57.601C456.855 57.4492 457.05 57.3501 457.263 57.3221C461.483 56.749 465.336 54.7709 468.108 51.7549C470.881 48.7389 472.383 44.8895 472.338 40.9208C472.292 36.9521 470.702 33.1335 467.861 30.1731C465.021 27.2127 461.123 25.3116 456.89 24.8223H456.429H456.101C455.976 24.8127 455.854 24.7782 455.744 24.7213C455.634 24.6645 455.538 24.5864 455.463 24.4924C455.388 24.3991 455.335 24.2921 455.307 24.1784C455.28 24.0646 455.279 23.9467 455.304 23.8325C455.366 23.5438 455.428 23.2468 455.463 22.9499C455.841 20.0438 454.964 17.117 453.024 14.8125C451.085 12.508 448.242 11.0142 445.119 10.6594C444.467 10.5848 443.808 10.5655 443.152 10.6016C442.994 10.6068 442.838 10.5729 442.699 10.5033C442.561 10.4337 442.445 10.331 442.363 10.2057C440.622 7.57084 438.178 5.39945 435.27 3.90213C432.361 2.4048 429.086 1.63238 425.763 1.65976C422.439 1.68715 419.179 2.51342 416.3 4.05844C413.42 5.60345 411.019 7.81477 409.328 10.4779C409.239 10.6179 409.107 10.7303 408.949 10.8007C408.791 10.8712 408.615 10.8966 408.442 10.8738C405.306 10.5183 402.126 10.9535 399.233 12.1338C396.341 13.3142 393.842 15.1965 392 17.5835C390.157 19.9706 389.037 22.7747 388.758 25.7025C388.479 28.6303 389.05 31.5741 390.413 34.2258C390.468 34.3355 390.497 34.4552 390.497 34.5764C390.497 34.6976 390.468 34.8173 390.413 34.927C390.359 35.0374 390.279 35.1353 390.179 35.2137C390.08 35.2921 389.963 35.3491 389.837 35.3806C387.18 36.0472 384.855 37.5528 383.26 39.6395C381.665 41.7262 380.899 44.2641 381.094 46.8185C381.289 49.3728 382.432 51.7846 384.328 53.6407C386.224 55.4967 388.754 56.6816 391.485 56.9921C392.799 57.1416 394.13 57.0802 395.421 56.8107C395.542 56.7874 395.666 56.7879 395.787 56.812C395.907 56.8362 396.021 56.8835 396.121 56.9509C396.222 57.0182 396.306 57.1043 396.369 57.2038C396.431 57.3032 396.471 57.4138 396.485 57.5283C396.803 60.185 397.848 62.7214 399.521 64.8946C401.193 67.0679 403.437 68.8054 406.038 69.9409C408.638 71.0764 411.508 71.572 414.373 71.3802C417.238 71.1884 420.003 70.3157 422.402 68.8455C422.544 68.7597 422.711 68.7139 422.88 68.7135Z" fill="#E0E0E0"/>
<path d="M422.002 53.9764L430.865 53.9059L430.907 58.4837C430.916 59.4616 430.508 60.4027 429.771 61.1001C429.034 61.7974 428.03 62.1939 426.979 62.2023L426.022 62.2099C424.971 62.2183 423.96 61.8378 423.211 61.1523C422.461 60.4668 422.035 59.5323 422.026 58.5544L421.984 53.9766L422.002 53.9764Z" fill="#263238"/>
<path d="M426.496 58.7858C430.324 58.7553 433.412 57.1538 433.395 55.2086C433.377 53.2634 430.259 51.7112 426.431 51.7417C422.603 51.7722 419.514 53.3737 419.532 55.3189C419.55 57.2641 422.668 58.8163 426.496 58.7858Z" fill="#37474F"/>
<path d="M426.476 56.7311C430.304 56.7007 433.393 55.0991 433.375 53.1539C433.357 51.2087 430.24 49.6566 426.412 49.687C422.584 49.7175 419.495 51.3191 419.513 53.2642C419.531 55.2094 422.648 56.7616 426.476 56.7311Z" fill="#455A64"/>
<path d="M441.031 35.0984C441.01 32.7197 440.326 30.3868 439.045 28.3282C437.764 26.2696 435.93 24.5559 433.724 23.355C431.517 22.1542 429.013 21.5072 426.457 21.4776C423.901 21.448 421.381 22.0367 419.143 23.1861C416.905 24.3355 415.026 26.0062 413.69 28.0345C412.355 30.0627 411.608 32.3791 411.524 34.7566C411.439 37.1341 412.02 39.4913 413.208 41.5973C414.397 43.7032 416.153 45.4858 418.305 46.7703C419.101 47.2302 419.761 47.868 420.226 48.6257C420.69 49.3834 420.944 50.237 420.964 51.1091C420.961 51.5564 421.054 51.9997 421.237 52.4134C421.419 52.8272 421.688 53.2032 422.028 53.5199C422.367 53.8366 422.771 54.0876 423.215 54.2585C423.659 54.4294 424.135 54.5169 424.616 54.5158H426.45H428.285C428.764 54.5125 429.237 54.4216 429.677 54.2483C430.118 54.0749 430.518 53.8224 430.853 53.5053C431.189 53.1882 431.455 52.8127 431.634 52.4001C431.814 51.9875 431.905 51.546 431.902 51.1008V50.9523C431.91 50.1291 432.139 49.3208 432.568 48.6006C432.996 47.8804 433.611 47.2712 434.357 46.828C436.444 45.5576 438.151 43.8152 439.319 41.7639C440.486 39.7126 441.075 37.4192 441.031 35.0984Z" fill="#FFC305"/>
<path d="M427.194 54.5184C427.194 54.4689 427.087 53.2398 427.087 42.3516C427.087 41.6092 427.087 40.8998 427.132 40.2317C426.768 40.2317 426.378 40.2812 425.971 40.2812C425.563 40.2812 425.359 40.2812 425.084 40.2812C425.271 41.4446 425.369 42.6188 425.377 43.7951L425.474 54.5184H424.836L424.739 43.7951C424.739 42.5987 424.635 41.4043 424.428 40.2235C420.971 39.8605 419.358 38.186 419.349 36.6023C419.324 36.3691 419.35 36.1336 419.427 35.9103C419.504 35.6871 419.629 35.4811 419.796 35.3053C419.962 35.1294 420.166 34.9875 420.394 34.8885C420.623 34.7895 420.87 34.7354 421.122 34.7298C422.948 34.7298 424.331 36.5775 424.969 39.679C425.288 39.679 425.625 39.679 425.971 39.679C426.316 39.679 426.795 39.679 427.176 39.6213C427.433 35.497 428.364 33.0224 429.933 32.445C430.372 32.3054 430.845 32.2905 431.294 32.4021C431.742 32.5138 432.144 32.7469 432.45 33.0719C432.887 33.616 433.156 34.2609 433.228 34.9368C433.3 35.6128 433.172 36.2942 432.858 36.9075C432.379 37.9716 431.085 39.6625 427.77 40.141C427.77 40.8091 427.726 41.5432 427.726 42.3351C427.726 53.1161 427.832 54.4029 427.832 54.4524L427.194 54.5184ZM421.113 35.3072C420.947 35.316 420.784 35.3568 420.635 35.4273C420.486 35.4977 420.354 35.5961 420.249 35.7163C420.143 35.8365 420.065 35.9759 420.02 36.1255C419.975 36.2752 419.964 36.4319 419.988 36.5858C419.988 37.8808 421.37 39.2584 424.313 39.6131C423.701 36.9157 422.549 35.266 421.113 35.266V35.3072ZM430.659 32.9151C430.49 32.9145 430.322 32.9424 430.163 32.9976C429.374 33.3028 428.133 34.5814 427.796 39.5966C430.739 39.1429 431.847 37.6746 432.228 36.7425C432.493 36.2352 432.609 35.6712 432.562 35.1087C432.515 34.5462 432.308 34.0054 431.962 33.542C431.638 33.1706 431.17 32.931 430.659 32.8739V32.9151Z" fill="#263238"/>
<path opacity="0.4" d="M435.228 28.641C434.687 29.5318 433.012 29.6061 431.496 28.7977C429.981 27.9893 429.174 26.6283 429.724 25.7374C430.273 24.8466 431.94 24.7806 433.455 25.5889C434.971 26.3973 435.769 27.7583 435.228 28.641Z" fill="white"/>
<path opacity="0.4" d="M438.506 32.2463C438.736 33.2032 438.338 34.094 437.62 34.2425C436.902 34.391 436.131 33.7311 435.909 32.7825C435.687 31.8339 436.086 30.9348 436.795 30.7863C437.504 30.6378 438.276 31.306 438.506 32.2463Z" fill="white"/>
<path d="M425.632 18.9721C425.47 18.9722 425.313 18.9139 425.196 18.8094C425.079 18.7049 425.01 18.5622 425.003 18.4112L424.754 11.9855C424.751 11.9085 424.764 11.8317 424.792 11.7594C424.82 11.6871 424.864 11.6206 424.92 11.564C424.976 11.5073 425.043 11.4614 425.118 11.429C425.193 11.3966 425.275 11.3783 425.357 11.3751C425.524 11.3727 425.686 11.4306 425.808 11.5367C425.931 11.6428 426.004 11.7889 426.013 11.9442L426.261 18.3699C426.265 18.4464 426.252 18.5229 426.224 18.5947C426.195 18.6666 426.152 18.7324 426.095 18.7885C426.039 18.8445 425.972 18.8896 425.897 18.9211C425.822 18.9526 425.741 18.97 425.659 18.9721H425.632Z" fill="#FFC305"/>
<path d="M410.898 25.7792C410.793 25.7809 410.69 25.7582 410.597 25.7132L404.507 22.6942C404.359 22.6209 404.249 22.4958 404.2 22.3466C404.15 22.1973 404.167 22.036 404.246 21.8982C404.325 21.7604 404.459 21.6573 404.619 21.6117C404.78 21.566 404.953 21.5816 405.101 21.6548L411.191 24.6821C411.319 24.7397 411.422 24.8367 411.483 24.9567C411.543 25.0767 411.558 25.2125 411.523 25.3412C411.489 25.4699 411.408 25.5837 411.294 25.6635C411.18 25.7432 411.04 25.7841 410.898 25.7792Z" fill="#FFC305"/>
<path d="M439.776 24.8179C439.669 24.8204 439.564 24.7965 439.47 24.7486C439.377 24.7008 439.299 24.6308 439.244 24.5457C439.197 24.4796 439.166 24.4054 439.151 24.3275C439.136 24.2497 439.138 24.1698 439.157 24.0927C439.176 24.0157 439.211 23.943 439.261 23.879C439.311 23.8151 439.375 23.7613 439.448 23.7208L445.316 20.3306C445.387 20.2872 445.466 20.2576 445.55 20.2436C445.634 20.2296 445.72 20.2315 445.802 20.2493C445.885 20.267 445.963 20.3002 446.032 20.3468C446.101 20.3933 446.159 20.4524 446.202 20.5204C446.248 20.5868 446.278 20.661 446.293 20.7386C446.307 20.8162 446.305 20.8957 446.286 20.9725C446.267 21.0493 446.232 21.1218 446.182 21.1857C446.133 21.2497 446.07 21.3039 445.998 21.3452L440.13 24.7354C440.023 24.7932 439.9 24.8218 439.776 24.8179Z" fill="#FFC305"/>
<path d="M463.345 70.799C463.116 72.5309 462.34 74.1608 461.116 75.4823C459.892 76.8039 458.273 77.7576 456.466 78.2228C454.659 78.688 452.744 78.6437 450.964 78.0956C449.184 77.5475 447.618 76.5202 446.466 75.1438C445.313 73.7673 444.626 72.1036 444.49 70.3632C444.354 68.6228 444.776 66.8841 445.702 65.367C446.629 63.8499 448.018 62.6228 449.695 61.841C451.371 61.0591 453.259 60.7577 455.119 60.9748C457.608 61.2653 459.872 62.4627 461.414 64.3044C462.956 66.1461 463.65 68.4816 463.345 70.799Z" fill="white"/>
<path d="M453.954 79.3818C452.483 79.384 451.028 79.0949 449.686 78.5338C448.344 77.9727 447.146 77.1523 446.171 76.1272C445.196 75.1021 444.467 73.8957 444.031 72.5881C443.596 71.2805 443.464 69.9016 443.645 68.543C444.043 66.055 445.469 63.8099 447.619 62.2858C449.77 60.7617 452.474 60.0791 455.157 60.3834C457.84 60.6877 460.29 61.9549 461.984 63.915C463.678 65.8751 464.483 68.3733 464.227 70.8774C463.92 73.2134 462.706 75.3645 460.814 76.9262C458.922 78.4878 456.483 79.3523 453.954 79.357V79.3818ZM453.954 61.7379C451.857 61.7397 449.833 62.4554 448.264 63.7499C446.695 65.0445 445.689 66.8286 445.436 68.7657C445.299 69.8078 445.384 70.8647 445.686 71.8762C445.988 72.8876 446.502 73.8338 447.197 74.6607C447.892 75.4875 448.755 76.1789 449.737 76.6952C450.719 77.2116 451.801 77.5429 452.921 77.6702C454.041 77.7975 455.177 77.7182 456.263 77.437C457.35 77.1559 458.367 76.6782 459.255 76.0313C460.144 75.3845 460.887 74.5811 461.442 73.6671C461.997 72.753 462.353 71.7462 462.489 70.7042C462.762 68.6 462.127 66.481 460.723 64.8124C459.318 63.1437 457.26 62.0617 455 61.8039C454.644 61.7605 454.286 61.7385 453.927 61.7379H453.954Z" fill="#E0E0E0"/>
<path d="M467.889 89.6884C469.955 89.6884 471.629 88.13 471.629 86.2075C471.629 84.285 469.955 82.7266 467.889 82.7266C465.823 82.7266 464.148 84.285 464.148 86.2075C464.148 88.13 465.823 89.6884 467.889 89.6884Z" fill="white"/>
<path d="M467.892 90.5179C466.977 90.5179 466.083 90.2653 465.322 89.7922C464.561 89.3191 463.968 88.6466 463.618 87.8598C463.268 87.073 463.176 86.2073 463.355 85.372C463.533 84.5368 463.974 83.7696 464.621 83.1674C465.268 82.5652 466.092 82.1551 466.99 81.989C467.887 81.8228 468.818 81.9081 469.663 82.234C470.508 82.5599 471.231 83.1118 471.739 83.8199C472.248 84.528 472.519 85.3604 472.519 86.2121C472.519 86.7775 472.4 87.3374 472.167 87.8598C471.935 88.3822 471.594 88.8569 471.164 89.2567C470.734 89.6565 470.224 89.9737 469.663 90.1901C469.102 90.4065 468.5 90.5179 467.892 90.5179ZM467.892 83.5642C467.328 83.5642 466.775 83.7202 466.306 84.0124C465.836 84.3047 465.471 84.72 465.255 85.2058C465.039 85.6916 464.983 86.2261 465.094 86.7415C465.205 87.257 465.477 87.7302 465.877 88.1013C466.277 88.4725 466.787 88.7248 467.341 88.8263C467.895 88.9279 468.469 88.8741 468.991 88.6718C469.512 88.4695 469.957 88.1278 470.27 87.6899C470.582 87.2521 470.748 86.7377 470.747 86.2121C470.747 85.8636 470.673 85.5187 470.529 85.1969C470.386 84.8751 470.175 84.5828 469.91 84.3368C469.645 84.0909 469.33 83.896 468.984 83.7634C468.638 83.6308 468.267 83.5631 467.892 83.5642Z" fill="#E0E0E0"/>
</g>
<defs>
<clipPath id="clip0_2454_4339">
<rect width="690" height="350" fill="white"/>
</clipPath>
</defs>
</svg>
