<svg width="690" height="350" viewBox="0 0 690 350" fill="none" xmlns="http://www.w3.org/2000/svg">
<g clip-path="url(#clip0_2486_33965)">
<path d="M595 311.398H95V311.648H595V311.398Z" fill="#EBEBEB"/>
<path d="M544.9 327.492H511.78V327.742H544.9V327.492Z" fill="#EBEBEB"/>
<path d="M426.22 330.211H417.53V330.461H426.22V330.211Z" fill="#EBEBEB"/>
<path d="M510.78 318.211H491.59V318.461H510.78V318.211Z" fill="#EBEBEB"/>
<path d="M190.65 319.891H147.46V320.141H190.65V319.891Z" fill="#EBEBEB"/>
<path d="M205.89 319.891H199.56V320.141H205.89V319.891Z" fill="#EBEBEB"/>
<path d="M320.15 324.109H226.47V324.359H320.15V324.109Z" fill="#EBEBEB"/>
<path d="M332 266.8H138.91C137.397 266.797 135.948 266.195 134.879 265.124C133.81 264.053 133.21 262.603 133.21 261.09V-10.34C133.223 -11.844 133.829 -13.282 134.896 -14.3418C135.964 -15.4015 137.406 -15.9974 138.91 -16H332C333.514 -16 334.967 -15.3984 336.038 -14.3276C337.108 -13.2567 337.71 -11.8044 337.71 -10.29V261.09C337.71 262.604 337.108 264.057 336.038 265.128C334.967 266.198 333.514 266.8 332 266.8ZM138.91 -15.8C137.464 -15.7974 136.077 -15.2209 135.056 -14.1973C134.034 -13.1736 133.46 -11.7864 133.46 -10.34V261.09C133.46 262.536 134.034 263.924 135.056 264.947C136.077 265.971 137.464 266.547 138.91 266.55H332C333.447 266.547 334.834 265.971 335.858 264.948C336.881 263.924 337.457 262.537 337.46 261.09V-10.34C337.457 -11.7873 336.881 -13.1745 335.858 -14.1979C334.834 -15.2213 333.447 -15.7974 332 -15.8H138.91Z" fill="#EBEBEB"/>
<path d="M548.31 266.8H355.21C353.696 266.797 352.246 266.195 351.175 265.125C350.105 264.054 349.503 262.604 349.5 261.09V-10.34C349.516 -11.8449 350.124 -13.2829 351.193 -14.3424C352.262 -15.4019 353.705 -15.9975 355.21 -16H548.31C549.812 -15.9948 551.252 -15.3978 552.317 -14.3383C553.382 -13.2788 553.987 -11.8422 554 -10.34V261.09C554 262.601 553.401 264.05 552.335 265.121C551.268 266.191 549.821 266.795 548.31 266.8ZM355.21 -15.8C353.763 -15.7974 352.375 -15.2213 351.352 -14.1979C350.329 -13.1745 349.753 -11.7873 349.75 -10.34V261.09C349.753 262.537 350.329 263.924 351.352 264.948C352.375 265.971 353.763 266.547 355.21 266.55H548.31C549.757 266.547 551.145 265.971 552.168 264.948C553.191 263.924 553.767 262.537 553.77 261.09V-10.34C553.767 -11.7873 553.191 -13.1745 552.168 -14.1979C551.145 -15.2213 549.757 -15.7974 548.31 -15.8H355.21Z" fill="#EBEBEB"/>
<path d="M336.77 22.1719H167.25V212.092H336.77V22.1719Z" fill="#EBEBEB"/>
<path d="M176.72 122.633V109.733H180.4V101.143H185.31V88.2531H186.54V101.143H191.45V109.733H195.13V122.633H201.89V126.313H204.96V140.433H205.57V120.173H207.41V133.063H209.25V102.373H210.48V115.263H215.39V110.963H217.23V93.1631H220.92V75.3531H222.15V77.8131H247.32V70.4431H251.61V42.2031H253.46V70.4431H259.59V77.8131H262.05V114.643H274.94V103.593H270.65V101.753H274.94V98.6831H287.22V70.4431H290.29V66.1531H305.02V70.4431H306.87V109.733H313.62V127.543H317.3V113.423H320.37V109.733H327.12V96.8431H330.81V88.2531H335.1V75.3531H336.77V208.723H170.58V122.633H176.72Z" fill="#F0F0F0"/>
<path d="M237.92 79.7266H236.18V81.4666H237.92V79.7266Z" fill="#FAFAFA"/>
<path d="M237.92 82.6484H236.18V84.3884H237.92V82.6484Z" fill="#FAFAFA"/>
<path d="M237.92 94.3125H236.18V96.0525H237.92V94.3125Z" fill="#FAFAFA"/>
<path d="M237.92 97.2266H236.18V98.9666H237.92V97.2266Z" fill="#FAFAFA"/>
<path d="M237.92 100.148H236.18V101.888H237.92V100.148Z" fill="#FAFAFA"/>
<path d="M237.92 108.891H236.18V110.631H237.92V108.891Z" fill="#FAFAFA"/>
<path d="M237.92 111.812H236.18V113.553H237.92V111.812Z" fill="#FAFAFA"/>
<path d="M240.68 91.3984H238.94V93.1384H240.68V91.3984Z" fill="#FAFAFA"/>
<path d="M240.68 94.3125H238.94V96.0525H240.68V94.3125Z" fill="#FAFAFA"/>
<path d="M240.68 97.2266H238.94V98.9666H240.68V97.2266Z" fill="#FAFAFA"/>
<path d="M240.68 100.148H238.94V101.888H240.68V100.148Z" fill="#FAFAFA"/>
<path d="M240.68 103.062H238.94V104.803H240.68V103.062Z" fill="#FAFAFA"/>
<path d="M240.68 108.891H238.94V110.631H240.68V108.891Z" fill="#FAFAFA"/>
<path d="M240.68 111.812H238.94V113.553H240.68V111.812Z" fill="#FAFAFA"/>
<path d="M243.44 79.7266H241.7V81.4666H243.44V79.7266Z" fill="#FAFAFA"/>
<path d="M243.44 82.6484H241.7V84.3884H243.44V82.6484Z" fill="#FAFAFA"/>
<path d="M243.44 85.5703H241.7V87.3103H243.44V85.5703Z" fill="#FAFAFA"/>
<path d="M243.44 88.4766H241.7V90.2166H243.44V88.4766Z" fill="#FAFAFA"/>
<path d="M243.44 91.3984H241.7V93.1384H243.44V91.3984Z" fill="#FAFAFA"/>
<path d="M243.44 94.3125H241.7V96.0525H243.44V94.3125Z" fill="#FAFAFA"/>
<path d="M243.44 97.2266H241.7V98.9666H243.44V97.2266Z" fill="#FAFAFA"/>
<path d="M243.44 100.148H241.7V101.888H243.44V100.148Z" fill="#FAFAFA"/>
<path d="M243.44 103.062H241.7V104.803H243.44V103.062Z" fill="#FAFAFA"/>
<path d="M243.44 105.977H241.7V107.717H243.44V105.977Z" fill="#FAFAFA"/>
<path d="M243.44 111.812H241.7V113.553H243.44V111.812Z" fill="#FAFAFA"/>
<path d="M246.2 79.7266H244.46V81.4666H246.2V79.7266Z" fill="#FAFAFA"/>
<path d="M246.2 82.6484H244.46V84.3884H246.2V82.6484Z" fill="#FAFAFA"/>
<path d="M246.2 85.5703H244.46V87.3103H246.2V85.5703Z" fill="#FAFAFA"/>
<path d="M246.2 88.4766H244.46V90.2166H246.2V88.4766Z" fill="#FAFAFA"/>
<path d="M246.2 91.3984H244.46V93.1384H246.2V91.3984Z" fill="#FAFAFA"/>
<path d="M246.2 94.3125H244.46V96.0525H246.2V94.3125Z" fill="#FAFAFA"/>
<path d="M246.2 97.2266H244.46V98.9666H246.2V97.2266Z" fill="#FAFAFA"/>
<path d="M246.2 123.477H244.46V125.217H246.2V123.477Z" fill="#FAFAFA"/>
<path d="M248.97 79.7266H247.23V81.4666H248.97V79.7266Z" fill="#FAFAFA"/>
<path d="M248.97 82.6484H247.23V84.3884H248.97V82.6484Z" fill="#FAFAFA"/>
<path d="M248.97 85.5703H247.23V87.3103H248.97V85.5703Z" fill="#FAFAFA"/>
<path d="M248.97 88.4766H247.23V90.2166H248.97V88.4766Z" fill="#FAFAFA"/>
<path d="M248.97 91.3984H247.23V93.1384H248.97V91.3984Z" fill="#FAFAFA"/>
<path d="M248.97 94.3125H247.23V96.0525H248.97V94.3125Z" fill="#FAFAFA"/>
<path d="M248.97 97.2266H247.23V98.9666H248.97V97.2266Z" fill="#FAFAFA"/>
<path d="M248.97 100.148H247.23V101.888H248.97V100.148Z" fill="#FAFAFA"/>
<path d="M248.97 117.641H247.23V119.381H248.97V117.641Z" fill="#FAFAFA"/>
<path d="M248.97 120.562H247.23V122.303H248.97V120.562Z" fill="#FAFAFA"/>
<path d="M248.97 123.477H247.23V125.217H248.97V123.477Z" fill="#FAFAFA"/>
<path d="M248.97 126.391H247.23V128.131H248.97V126.391Z" fill="#FAFAFA"/>
<path d="M248.97 138.062H247.23V139.803H248.97V138.062Z" fill="#FAFAFA"/>
<path d="M251.73 79.7266H249.99V81.4666H251.73V79.7266Z" fill="#FAFAFA"/>
<path d="M251.73 82.6484H249.99V84.3884H251.73V82.6484Z" fill="#FAFAFA"/>
<path d="M251.73 85.5703H249.99V87.3103H251.73V85.5703Z" fill="#FAFAFA"/>
<path d="M251.73 88.4766H249.99V90.2166H251.73V88.4766Z" fill="#FAFAFA"/>
<path d="M251.73 91.3984H249.99V93.1384H251.73V91.3984Z" fill="#FAFAFA"/>
<path d="M251.73 94.3125H249.99V96.0525H251.73V94.3125Z" fill="#FAFAFA"/>
<path d="M251.73 97.2266H249.99V98.9666H251.73V97.2266Z" fill="#FAFAFA"/>
<path d="M251.73 100.148H249.99V101.888H251.73V100.148Z" fill="#FAFAFA"/>
<path d="M251.73 103.062H249.99V104.803H251.73V103.062Z" fill="#FAFAFA"/>
<path d="M251.73 105.977H249.99V107.717H251.73V105.977Z" fill="#FAFAFA"/>
<path d="M251.73 114.727H249.99V116.467H251.73V114.727Z" fill="#FAFAFA"/>
<path d="M251.73 117.641H249.99V119.381H251.73V117.641Z" fill="#FAFAFA"/>
<path d="M251.73 120.562H249.99V122.303H251.73V120.562Z" fill="#FAFAFA"/>
<path d="M251.73 123.477H249.99V125.217H251.73V123.477Z" fill="#FAFAFA"/>
<path d="M251.73 126.391H249.99V128.131H251.73V126.391Z" fill="#FAFAFA"/>
<path d="M251.73 138.062H249.99V139.803H251.73V138.062Z" fill="#FAFAFA"/>
<path d="M254.49 79.7266H252.75V81.4666H254.49V79.7266Z" fill="#FAFAFA"/>
<path d="M254.49 82.6484H252.75V84.3884H254.49V82.6484Z" fill="#FAFAFA"/>
<path d="M254.49 85.5703H252.75V87.3103H254.49V85.5703Z" fill="#FAFAFA"/>
<path d="M254.49 88.4766H252.75V90.2166H254.49V88.4766Z" fill="#FAFAFA"/>
<path d="M254.49 91.3984H252.75V93.1384H254.49V91.3984Z" fill="#FAFAFA"/>
<path d="M254.49 94.3125H252.75V96.0525H254.49V94.3125Z" fill="#FAFAFA"/>
<path d="M254.49 97.2266H252.75V98.9666H254.49V97.2266Z" fill="#FAFAFA"/>
<path d="M254.49 100.148H252.75V101.888H254.49V100.148Z" fill="#FAFAFA"/>
<path d="M254.49 103.062H252.75V104.803H254.49V103.062Z" fill="#FAFAFA"/>
<path d="M254.49 105.977H252.75V107.717H254.49V105.977Z" fill="#FAFAFA"/>
<path d="M254.49 108.891H252.75V110.631H254.49V108.891Z" fill="#FAFAFA"/>
<path d="M254.49 111.812H252.75V113.553H254.49V111.812Z" fill="#FAFAFA"/>
<path d="M254.49 114.727H252.75V116.467H254.49V114.727Z" fill="#FAFAFA"/>
<path d="M254.49 117.641H252.75V119.381H254.49V117.641Z" fill="#FAFAFA"/>
<path d="M254.49 120.562H252.75V122.303H254.49V120.562Z" fill="#FAFAFA"/>
<path d="M254.49 123.477H252.75V125.217H254.49V123.477Z" fill="#FAFAFA"/>
<path d="M254.49 126.391H252.75V128.131H254.49V126.391Z" fill="#FAFAFA"/>
<path d="M254.49 129.312H252.75V131.053H254.49V129.312Z" fill="#FAFAFA"/>
<path d="M257.26 79.7266H255.52V81.4666H257.26V79.7266Z" fill="#FAFAFA"/>
<path d="M257.26 82.6484H255.52V84.3884H257.26V82.6484Z" fill="#FAFAFA"/>
<path d="M257.26 85.5703H255.52V87.3103H257.26V85.5703Z" fill="#FAFAFA"/>
<path d="M257.26 88.4766H255.52V90.2166H257.26V88.4766Z" fill="#FAFAFA"/>
<path d="M257.26 91.3984H255.52V93.1384H257.26V91.3984Z" fill="#FAFAFA"/>
<path d="M257.26 94.3125H255.52V96.0525H257.26V94.3125Z" fill="#FAFAFA"/>
<path d="M257.26 97.2266H255.52V98.9666H257.26V97.2266Z" fill="#FAFAFA"/>
<path d="M257.26 100.148H255.52V101.888H257.26V100.148Z" fill="#FAFAFA"/>
<path d="M257.26 103.062H255.52V104.803H257.26V103.062Z" fill="#FAFAFA"/>
<path d="M257.26 105.977H255.52V107.717H257.26V105.977Z" fill="#FAFAFA"/>
<path d="M257.26 114.727H255.52V116.467H257.26V114.727Z" fill="#FAFAFA"/>
<path d="M257.26 117.641H255.52V119.381H257.26V117.641Z" fill="#FAFAFA"/>
<path d="M257.26 120.562H255.52V122.303H257.26V120.562Z" fill="#FAFAFA"/>
<path d="M257.26 123.477H255.52V125.217H257.26V123.477Z" fill="#FAFAFA"/>
<path d="M260.02 79.7266H258.28V81.4666H260.02V79.7266Z" fill="#FAFAFA"/>
<path d="M260.02 82.6484H258.28V84.3884H260.02V82.6484Z" fill="#FAFAFA"/>
<path d="M260.02 85.5703H258.28V87.3103H260.02V85.5703Z" fill="#FAFAFA"/>
<path d="M260.02 88.4766H258.28V90.2166H260.02V88.4766Z" fill="#FAFAFA"/>
<path d="M260.02 91.3984H258.28V93.1384H260.02V91.3984Z" fill="#FAFAFA"/>
<path d="M260.02 94.3125H258.28V96.0525H260.02V94.3125Z" fill="#FAFAFA"/>
<path d="M260.02 97.2266H258.28V98.9666H260.02V97.2266Z" fill="#FAFAFA"/>
<path d="M260.02 100.148H258.28V101.888H260.02V100.148Z" fill="#FAFAFA"/>
<path d="M260.02 103.062H258.28V104.803H260.02V103.062Z" fill="#FAFAFA"/>
<path d="M260.02 105.977H258.28V107.717H260.02V105.977Z" fill="#FAFAFA"/>
<path d="M260.02 114.727H258.28V116.467H260.02V114.727Z" fill="#FAFAFA"/>
<path d="M260.02 117.641H258.28V119.381H260.02V117.641Z" fill="#FAFAFA"/>
<path d="M260.02 120.562H258.28V122.303H260.02V120.562Z" fill="#FAFAFA"/>
<path d="M291.12 72.1562H289.38V73.8962H291.12V72.1562Z" fill="#FAFAFA"/>
<path d="M291.12 75.0781H289.38V76.8181H291.12V75.0781Z" fill="#FAFAFA"/>
<path d="M291.12 77.9922H289.38V79.7322H291.12V77.9922Z" fill="#FAFAFA"/>
<path d="M291.12 80.9062H289.38V82.6462H291.12V80.9062Z" fill="#FAFAFA"/>
<path d="M291.12 83.8281H289.38V85.5681H291.12V83.8281Z" fill="#FAFAFA"/>
<path d="M291.12 86.7422H289.38V88.4822H291.12V86.7422Z" fill="#FAFAFA"/>
<path d="M291.12 89.6562H289.38V91.3962H291.12V89.6562Z" fill="#FAFAFA"/>
<path d="M291.12 92.5703H289.38V94.3103H291.12V92.5703Z" fill="#FAFAFA"/>
<path d="M291.12 101.32H289.38V103.06H291.12V101.32Z" fill="#FAFAFA"/>
<path d="M291.12 104.242H289.38V105.982H291.12V104.242Z" fill="#FAFAFA"/>
<path d="M293.88 72.1562H292.14V73.8962H293.88V72.1562Z" fill="#FAFAFA"/>
<path d="M293.88 75.0781H292.14V76.8181H293.88V75.0781Z" fill="#FAFAFA"/>
<path d="M293.88 77.9922H292.14V79.7322H293.88V77.9922Z" fill="#FAFAFA"/>
<path d="M293.88 80.9062H292.14V82.6462H293.88V80.9062Z" fill="#FAFAFA"/>
<path d="M293.88 83.8281H292.14V85.5681H293.88V83.8281Z" fill="#FAFAFA"/>
<path d="M293.88 86.7422H292.14V88.4822H293.88V86.7422Z" fill="#FAFAFA"/>
<path d="M293.88 89.6562H292.14V91.3962H293.88V89.6562Z" fill="#FAFAFA"/>
<path d="M293.88 92.5703H292.14V94.3103H293.88V92.5703Z" fill="#FAFAFA"/>
<path d="M293.88 104.242H292.14V105.982H293.88V104.242Z" fill="#FAFAFA"/>
<path d="M296.65 72.1562H294.91V73.8962H296.65V72.1562Z" fill="#FAFAFA"/>
<path d="M296.65 75.0781H294.91V76.8181H296.65V75.0781Z" fill="#FAFAFA"/>
<path d="M296.65 77.9922H294.91V79.7322H296.65V77.9922Z" fill="#FAFAFA"/>
<path d="M296.65 80.9062H294.91V82.6462H296.65V80.9062Z" fill="#FAFAFA"/>
<path d="M296.65 83.8281H294.91V85.5681H296.65V83.8281Z" fill="#FAFAFA"/>
<path d="M296.65 86.7422H294.91V88.4822H296.65V86.7422Z" fill="#FAFAFA"/>
<path d="M296.65 89.6562H294.91V91.3962H296.65V89.6562Z" fill="#FAFAFA"/>
<path d="M296.65 92.5703H294.91V94.3103H296.65V92.5703Z" fill="#FAFAFA"/>
<path d="M299.41 72.1562H297.67V73.8962H299.41V72.1562Z" fill="#FAFAFA"/>
<path d="M299.41 75.0781H297.67V76.8181H299.41V75.0781Z" fill="#FAFAFA"/>
<path d="M299.41 77.9922H297.67V79.7322H299.41V77.9922Z" fill="#FAFAFA"/>
<path d="M299.41 80.9062H297.67V82.6462H299.41V80.9062Z" fill="#FAFAFA"/>
<path d="M299.41 83.8281H297.67V85.5681H299.41V83.8281Z" fill="#FAFAFA"/>
<path d="M299.41 86.7422H297.67V88.4822H299.41V86.7422Z" fill="#FAFAFA"/>
<path d="M299.41 92.5703H297.67V94.3103H299.41V92.5703Z" fill="#FAFAFA"/>
<path d="M299.41 95.4922H297.67V97.2322H299.41V95.4922Z" fill="#FAFAFA"/>
<path d="M299.41 104.242H297.67V105.982H299.41V104.242Z" fill="#FAFAFA"/>
<path d="M299.41 107.156H297.67V108.896H299.41V107.156Z" fill="#FAFAFA"/>
<path d="M299.41 110.07H297.67V111.81H299.41V110.07Z" fill="#FAFAFA"/>
<path d="M299.41 112.992H297.67V114.732H299.41V112.992Z" fill="#FAFAFA"/>
<path d="M299.41 115.898H297.67V117.638H299.41V115.898Z" fill="#FAFAFA"/>
<path d="M299.41 118.82H297.67V120.56H299.41V118.82Z" fill="#FAFAFA"/>
<path d="M299.41 121.742H297.67V123.482H299.41V121.742Z" fill="#FAFAFA"/>
<path d="M302.17 72.1562H300.43V73.8962H302.17V72.1562Z" fill="#FAFAFA"/>
<path d="M302.17 75.0781H300.43V76.8181H302.17V75.0781Z" fill="#FAFAFA"/>
<path d="M302.17 77.9922H300.43V79.7322H302.17V77.9922Z" fill="#FAFAFA"/>
<path d="M302.17 80.9062H300.43V82.6462H302.17V80.9062Z" fill="#FAFAFA"/>
<path d="M302.17 83.8281H300.43V85.5681H302.17V83.8281Z" fill="#FAFAFA"/>
<path d="M302.17 86.7422H300.43V88.4822H302.17V86.7422Z" fill="#FAFAFA"/>
<path d="M302.17 95.4922H300.43V97.2322H302.17V95.4922Z" fill="#FAFAFA"/>
<path d="M302.17 98.4062H300.43V100.146H302.17V98.4062Z" fill="#FAFAFA"/>
<path d="M302.17 101.32H300.43V103.06H302.17V101.32Z" fill="#FAFAFA"/>
<path d="M302.17 104.242H300.43V105.982H302.17V104.242Z" fill="#FAFAFA"/>
<path d="M302.17 107.156H300.43V108.896H302.17V107.156Z" fill="#FAFAFA"/>
<path d="M302.17 110.07H300.43V111.81H302.17V110.07Z" fill="#FAFAFA"/>
<path d="M302.17 112.992H300.43V114.732H302.17V112.992Z" fill="#FAFAFA"/>
<path d="M302.17 115.898H300.43V117.638H302.17V115.898Z" fill="#FAFAFA"/>
<path d="M302.17 118.82H300.43V120.56H302.17V118.82Z" fill="#FAFAFA"/>
<path d="M302.17 121.742H300.43V123.482H302.17V121.742Z" fill="#FAFAFA"/>
<path d="M302.17 124.648H300.43V126.388H302.17V124.648Z" fill="#FAFAFA"/>
<path d="M302.17 130.477H300.43V132.217H302.17V130.477Z" fill="#FAFAFA"/>
<path d="M304.94 72.1562H303.2V73.8962H304.94V72.1562Z" fill="#FAFAFA"/>
<path d="M304.94 75.0781H303.2V76.8181H304.94V75.0781Z" fill="#FAFAFA"/>
<path d="M304.94 77.9922H303.2V79.7322H304.94V77.9922Z" fill="#FAFAFA"/>
<path d="M304.94 80.9062H303.2V82.6462H304.94V80.9062Z" fill="#FAFAFA"/>
<path d="M304.94 83.8281H303.2V85.5681H304.94V83.8281Z" fill="#FAFAFA"/>
<path d="M304.94 86.7422H303.2V88.4822H304.94V86.7422Z" fill="#FAFAFA"/>
<path d="M304.94 95.4922H303.2V97.2322H304.94V95.4922Z" fill="#FAFAFA"/>
<path d="M304.94 98.4062H303.2V100.146H304.94V98.4062Z" fill="#FAFAFA"/>
<path d="M304.94 101.32H303.2V103.06H304.94V101.32Z" fill="#FAFAFA"/>
<path d="M304.94 104.242H303.2V105.982H304.94V104.242Z" fill="#FAFAFA"/>
<path d="M304.94 112.992H303.2V114.732H304.94V112.992Z" fill="#FAFAFA"/>
<path d="M304.94 115.898H303.2V117.638H304.94V115.898Z" fill="#FAFAFA"/>
<path d="M304.94 118.82H303.2V120.56H304.94V118.82Z" fill="#FAFAFA"/>
<path d="M304.94 121.742H303.2V123.482H304.94V121.742Z" fill="#FAFAFA"/>
<path d="M304.94 124.648H303.2V126.388H304.94V124.648Z" fill="#FAFAFA"/>
<path d="M304.94 130.477H303.2V132.217H304.94V130.477Z" fill="#FAFAFA"/>
<path d="M304.94 133.398H303.2V135.138H304.94V133.398Z" fill="#FAFAFA"/>
<path d="M330 99.2812H328.26V101.021H330V99.2812Z" fill="#FAFAFA"/>
<path d="M330 102.188H328.26V103.927H330V102.188Z" fill="#FAFAFA"/>
<path d="M330 105.109H328.26V106.849H330V105.109Z" fill="#FAFAFA"/>
<path d="M330 108.031H328.26V109.771H330V108.031Z" fill="#FAFAFA"/>
<path d="M330 110.938H328.26V112.677H330V110.938Z" fill="#FAFAFA"/>
<path d="M330 113.859H328.26V115.599H330V113.859Z" fill="#FAFAFA"/>
<path d="M330 116.773H328.26V118.513H330V116.773Z" fill="#FAFAFA"/>
<path d="M330 125.523H328.26V127.263H330V125.523Z" fill="#FAFAFA"/>
<path d="M330 128.438H328.26V130.177H330V128.438Z" fill="#FAFAFA"/>
<path d="M330 131.352H328.26V133.092H330V131.352Z" fill="#FAFAFA"/>
<path d="M332.77 99.2812H331.03V101.021H332.77V99.2812Z" fill="#FAFAFA"/>
<path d="M332.77 102.188H331.03V103.927H332.77V102.188Z" fill="#FAFAFA"/>
<path d="M332.77 105.109H331.03V106.849H332.77V105.109Z" fill="#FAFAFA"/>
<path d="M332.77 108.031H331.03V109.771H332.77V108.031Z" fill="#FAFAFA"/>
<path d="M332.77 110.938H331.03V112.677H332.77V110.938Z" fill="#FAFAFA"/>
<path d="M332.77 113.859H331.03V115.599H332.77V113.859Z" fill="#FAFAFA"/>
<path d="M332.77 116.773H331.03V118.513H332.77V116.773Z" fill="#FAFAFA"/>
<path d="M336.29 99.2812H333.79V101.021H336.29V99.2812Z" fill="#FAFAFA"/>
<path d="M336.29 102.188H333.79V103.927H336.29V102.188Z" fill="#FAFAFA"/>
<path d="M336.29 105.109H333.79V106.849H336.29V105.109Z" fill="#FAFAFA"/>
<path d="M336.29 108.031H333.79V109.771H336.29V108.031Z" fill="#FAFAFA"/>
<path d="M336.29 110.938H333.79V112.677H336.29V110.938Z" fill="#FAFAFA"/>
<path d="M336.29 113.859H333.79V115.599H336.29V113.859Z" fill="#FAFAFA"/>
<path d="M336.29 116.773H333.79V118.513H336.29V116.773Z" fill="#FAFAFA"/>
<path d="M183.59 103.062H181.85V104.803H183.59V103.062Z" fill="#FAFAFA"/>
<path d="M183.59 105.977H181.85V107.717H183.59V105.977Z" fill="#FAFAFA"/>
<path d="M183.59 108.891H181.85V110.631H183.59V108.891Z" fill="#FAFAFA"/>
<path d="M183.59 111.812H181.85V113.553H183.59V111.812Z" fill="#FAFAFA"/>
<path d="M183.59 114.727H181.85V116.467H183.59V114.727Z" fill="#FAFAFA"/>
<path d="M183.59 117.641H181.85V119.381H183.59V117.641Z" fill="#FAFAFA"/>
<path d="M183.59 120.562H181.85V122.303H183.59V120.562Z" fill="#FAFAFA"/>
<path d="M183.59 123.477H181.85V125.217H183.59V123.477Z" fill="#FAFAFA"/>
<path d="M183.59 126.391H181.85V128.131H183.59V126.391Z" fill="#FAFAFA"/>
<path d="M183.59 129.312H181.85V131.053H183.59V129.312Z" fill="#FAFAFA"/>
<path d="M183.59 132.219H181.85V133.959H183.59V132.219Z" fill="#FAFAFA"/>
<path d="M183.59 135.141H181.85V136.881H183.59V135.141Z" fill="#FAFAFA"/>
<path d="M183.59 138.062H181.85V139.803H183.59V138.062Z" fill="#FAFAFA"/>
<path d="M183.59 140.969H181.85V142.709H183.59V140.969Z" fill="#FAFAFA"/>
<path d="M183.59 143.891H181.85V145.631H183.59V143.891Z" fill="#FAFAFA"/>
<path d="M183.59 146.797H181.85V148.537H183.59V146.797Z" fill="#FAFAFA"/>
<path d="M183.59 149.719H181.85V151.459H183.59V149.719Z" fill="#FAFAFA"/>
<path d="M183.59 152.641H181.85V154.381H183.59V152.641Z" fill="#FAFAFA"/>
<path d="M183.59 155.547H181.85V157.287H183.59V155.547Z" fill="#FAFAFA"/>
<path d="M183.59 158.469H181.85V160.209H183.59V158.469Z" fill="#FAFAFA"/>
<path d="M186.35 103.062H184.61V104.803H186.35V103.062Z" fill="#FAFAFA"/>
<path d="M186.35 105.977H184.61V107.717H186.35V105.977Z" fill="#FAFAFA"/>
<path d="M186.35 108.891H184.61V110.631H186.35V108.891Z" fill="#FAFAFA"/>
<path d="M186.35 111.812H184.61V113.553H186.35V111.812Z" fill="#FAFAFA"/>
<path d="M186.35 114.727H184.61V116.467H186.35V114.727Z" fill="#FAFAFA"/>
<path d="M186.35 117.641H184.61V119.381H186.35V117.641Z" fill="#FAFAFA"/>
<path d="M186.35 120.562H184.61V122.303H186.35V120.562Z" fill="#FAFAFA"/>
<path d="M186.35 123.477H184.61V125.217H186.35V123.477Z" fill="#FAFAFA"/>
<path d="M186.35 126.391H184.61V128.131H186.35V126.391Z" fill="#FAFAFA"/>
<path d="M186.35 129.312H184.61V131.053H186.35V129.312Z" fill="#FAFAFA"/>
<path d="M186.35 132.219H184.61V133.959H186.35V132.219Z" fill="#FAFAFA"/>
<path d="M186.35 135.141H184.61V136.881H186.35V135.141Z" fill="#FAFAFA"/>
<path d="M186.35 138.062H184.61V139.803H186.35V138.062Z" fill="#FAFAFA"/>
<path d="M186.35 140.969H184.61V142.709H186.35V140.969Z" fill="#FAFAFA"/>
<path d="M186.35 143.891H184.61V145.631H186.35V143.891Z" fill="#FAFAFA"/>
<path d="M186.35 146.797H184.61V148.537H186.35V146.797Z" fill="#FAFAFA"/>
<path d="M186.35 149.719H184.61V151.459H186.35V149.719Z" fill="#FAFAFA"/>
<path d="M186.35 152.641H184.61V154.381H186.35V152.641Z" fill="#FAFAFA"/>
<path d="M189.11 103.062H187.37V104.803H189.11V103.062Z" fill="#FAFAFA"/>
<path d="M189.11 105.977H187.37V107.717H189.11V105.977Z" fill="#FAFAFA"/>
<path d="M189.11 108.891H187.37V110.631H189.11V108.891Z" fill="#FAFAFA"/>
<path d="M189.11 111.812H187.37V113.553H189.11V111.812Z" fill="#FAFAFA"/>
<path d="M189.11 114.727H187.37V116.467H189.11V114.727Z" fill="#FAFAFA"/>
<path d="M189.11 117.641H187.37V119.381H189.11V117.641Z" fill="#FAFAFA"/>
<path d="M189.11 120.562H187.37V122.303H189.11V120.562Z" fill="#FAFAFA"/>
<path d="M189.11 123.477H187.37V125.217H189.11V123.477Z" fill="#FAFAFA"/>
<path d="M189.11 126.391H187.37V128.131H189.11V126.391Z" fill="#FAFAFA"/>
<path d="M189.11 129.312H187.37V131.053H189.11V129.312Z" fill="#FAFAFA"/>
<path d="M189.11 132.219H187.37V133.959H189.11V132.219Z" fill="#FAFAFA"/>
<path d="M189.11 135.141H187.37V136.881H189.11V135.141Z" fill="#FAFAFA"/>
<path d="M189.11 138.062H187.37V139.803H189.11V138.062Z" fill="#FAFAFA"/>
<path d="M189.11 140.969H187.37V142.709H189.11V140.969Z" fill="#FAFAFA"/>
<path d="M189.11 143.891H187.37V145.631H189.11V143.891Z" fill="#FAFAFA"/>
<path d="M189.11 146.797H187.37V148.537H189.11V146.797Z" fill="#FAFAFA"/>
<path d="M189.11 149.719H187.37V151.459H189.11V149.719Z" fill="#FAFAFA"/>
<path d="M189.11 152.641H187.37V154.381H189.11V152.641Z" fill="#FAFAFA"/>
<path d="M173.25 124.344H171.51V126.084H173.25V124.344Z" fill="#FAFAFA"/>
<path d="M173.25 127.258H171.51V128.998H173.25V127.258Z" fill="#FAFAFA"/>
<path d="M173.25 130.18H171.51V131.92H173.25V130.18Z" fill="#FAFAFA"/>
<path d="M173.25 133.094H171.51V134.834H173.25V133.094Z" fill="#FAFAFA"/>
<path d="M173.25 136.008H171.51V137.748H173.25V136.008Z" fill="#FAFAFA"/>
<path d="M173.25 138.93H171.51V140.67H173.25V138.93Z" fill="#FAFAFA"/>
<path d="M173.25 141.844H171.51V143.584H173.25V141.844Z" fill="#FAFAFA"/>
<path d="M173.25 144.758H171.51V146.498H173.25V144.758Z" fill="#FAFAFA"/>
<path d="M173.25 147.672H171.51V149.412H173.25V147.672Z" fill="#FAFAFA"/>
<path d="M173.25 150.594H171.51V152.334H173.25V150.594Z" fill="#FAFAFA"/>
<path d="M173.25 153.508H171.51V155.248H173.25V153.508Z" fill="#FAFAFA"/>
<path d="M173.25 156.422H171.51V158.162H173.25V156.422Z" fill="#FAFAFA"/>
<path d="M173.25 159.344H171.51V161.084H173.25V159.344Z" fill="#FAFAFA"/>
<path d="M176.01 124.344H174.27V126.084H176.01V124.344Z" fill="#FAFAFA"/>
<path d="M176.01 127.258H174.27V128.998H176.01V127.258Z" fill="#FAFAFA"/>
<path d="M176.01 130.18H174.27V131.92H176.01V130.18Z" fill="#FAFAFA"/>
<path d="M176.01 133.094H174.27V134.834H176.01V133.094Z" fill="#FAFAFA"/>
<path d="M176.01 136.008H174.27V137.748H176.01V136.008Z" fill="#FAFAFA"/>
<path d="M176.01 138.93H174.27V140.67H176.01V138.93Z" fill="#FAFAFA"/>
<path d="M176.01 141.844H174.27V143.584H176.01V141.844Z" fill="#FAFAFA"/>
<path d="M176.01 144.758H174.27V146.498H176.01V144.758Z" fill="#FAFAFA"/>
<path d="M176.01 147.672H174.27V149.412H176.01V147.672Z" fill="#FAFAFA"/>
<path d="M176.01 150.594H174.27V152.334H176.01V150.594Z" fill="#FAFAFA"/>
<path d="M176.01 153.508H174.27V155.248H176.01V153.508Z" fill="#FAFAFA"/>
<path d="M176.01 156.422H174.27V158.162H176.01V156.422Z" fill="#FAFAFA"/>
<path d="M176.01 159.344H174.27V161.084H176.01V159.344Z" fill="#FAFAFA"/>
<path d="M178.78 124.344H177.04V126.084H178.78V124.344Z" fill="#FAFAFA"/>
<path d="M178.78 127.258H177.04V128.998H178.78V127.258Z" fill="#FAFAFA"/>
<path d="M178.78 130.18H177.04V131.92H178.78V130.18Z" fill="#FAFAFA"/>
<path d="M178.78 133.094H177.04V134.834H178.78V133.094Z" fill="#FAFAFA"/>
<path d="M178.78 136.008H177.04V137.748H178.78V136.008Z" fill="#FAFAFA"/>
<path d="M178.78 138.93H177.04V140.67H178.78V138.93Z" fill="#FAFAFA"/>
<path d="M178.78 141.844H177.04V143.584H178.78V141.844Z" fill="#FAFAFA"/>
<path d="M178.78 144.758H177.04V146.498H178.78V144.758Z" fill="#FAFAFA"/>
<path d="M178.78 147.672H177.04V149.412H178.78V147.672Z" fill="#FAFAFA"/>
<path d="M178.78 150.594H177.04V152.334H178.78V150.594Z" fill="#FAFAFA"/>
<path d="M178.78 153.508H177.04V155.248H178.78V153.508Z" fill="#FAFAFA"/>
<path d="M178.78 156.422H177.04V158.162H178.78V156.422Z" fill="#FAFAFA"/>
<path d="M178.78 159.344H177.04V161.084H178.78V159.344Z" fill="#FAFAFA"/>
<path d="M178.78 162.25H177.04V163.99H178.78V162.25Z" fill="#FAFAFA"/>
<path d="M194.12 125.211H192.38V126.951H194.12V125.211Z" fill="#FAFAFA"/>
<path d="M194.12 128.133H192.38V129.873H194.12V128.133Z" fill="#FAFAFA"/>
<path d="M194.12 131.047H192.38V132.787H194.12V131.047Z" fill="#FAFAFA"/>
<path d="M194.12 133.961H192.38V135.701H194.12V133.961Z" fill="#FAFAFA"/>
<path d="M194.12 136.883H192.38V138.623H194.12V136.883Z" fill="#FAFAFA"/>
<path d="M194.12 139.789H192.38V141.529H194.12V139.789Z" fill="#FAFAFA"/>
<path d="M194.12 142.711H192.38V144.451H194.12V142.711Z" fill="#FAFAFA"/>
<path d="M194.12 145.633H192.38V147.373H194.12V145.633Z" fill="#FAFAFA"/>
<path d="M194.12 148.539H192.38V150.279H194.12V148.539Z" fill="#FAFAFA"/>
<path d="M194.12 151.461H192.38V153.201H194.12V151.461Z" fill="#FAFAFA"/>
<path d="M194.12 160.211H192.38V161.951H194.12V160.211Z" fill="#FAFAFA"/>
<path d="M196.89 125.211H195.15V126.951H196.89V125.211Z" fill="#FAFAFA"/>
<path d="M196.89 128.133H195.15V129.873H196.89V128.133Z" fill="#FAFAFA"/>
<path d="M196.89 131.047H195.15V132.787H196.89V131.047Z" fill="#FAFAFA"/>
<path d="M196.89 133.961H195.15V135.701H196.89V133.961Z" fill="#FAFAFA"/>
<path d="M196.89 136.883H195.15V138.623H196.89V136.883Z" fill="#FAFAFA"/>
<path d="M196.89 139.789H195.15V141.529H196.89V139.789Z" fill="#FAFAFA"/>
<path d="M196.89 142.711H195.15V144.451H196.89V142.711Z" fill="#FAFAFA"/>
<path d="M196.89 145.633H195.15V147.373H196.89V145.633Z" fill="#FAFAFA"/>
<path d="M196.89 148.539H195.15V150.279H196.89V148.539Z" fill="#FAFAFA"/>
<path d="M196.89 157.289H195.15V159.029H196.89V157.289Z" fill="#FAFAFA"/>
<path d="M196.89 160.211H195.15V161.951H196.89V160.211Z" fill="#FAFAFA"/>
<path d="M199.65 125.211H197.91V126.951H199.65V125.211Z" fill="#FAFAFA"/>
<path d="M199.65 128.133H197.91V129.873H199.65V128.133Z" fill="#FAFAFA"/>
<path d="M199.65 131.047H197.91V132.787H199.65V131.047Z" fill="#FAFAFA"/>
<path d="M199.65 133.961H197.91V135.701H199.65V133.961Z" fill="#FAFAFA"/>
<path d="M199.65 136.883H197.91V138.623H199.65V136.883Z" fill="#FAFAFA"/>
<path d="M199.65 139.789H197.91V141.529H199.65V139.789Z" fill="#FAFAFA"/>
<path d="M199.65 142.711H197.91V144.451H199.65V142.711Z" fill="#FAFAFA"/>
<path d="M199.65 145.633H197.91V147.373H199.65V145.633Z" fill="#FAFAFA"/>
<path d="M199.65 154.383H197.91V156.123H199.65V154.383Z" fill="#FAFAFA"/>
<path d="M199.65 157.289H197.91V159.029H199.65V157.289Z" fill="#FAFAFA"/>
<path d="M199.65 160.211H197.91V161.951H199.65V160.211Z" fill="#FAFAFA"/>
<path d="M225.33 80.9062H223.59V82.6462H225.33V80.9062Z" fill="#FAFAFA"/>
<path d="M225.33 83.8281H223.59V85.5681H225.33V83.8281Z" fill="#FAFAFA"/>
<path d="M225.33 86.7422H223.59V88.4822H225.33V86.7422Z" fill="#FAFAFA"/>
<path d="M225.33 89.6562H223.59V91.3962H225.33V89.6562Z" fill="#FAFAFA"/>
<path d="M225.33 92.5703H223.59V94.3103H225.33V92.5703Z" fill="#FAFAFA"/>
<path d="M225.33 95.4922H223.59V97.2322H225.33V95.4922Z" fill="#FAFAFA"/>
<path d="M225.33 98.4062H223.59V100.146H225.33V98.4062Z" fill="#FAFAFA"/>
<path d="M225.33 101.32H223.59V103.06H225.33V101.32Z" fill="#FAFAFA"/>
<path d="M225.33 104.242H223.59V105.982H225.33V104.242Z" fill="#FAFAFA"/>
<path d="M225.33 107.156H223.59V108.896H225.33V107.156Z" fill="#FAFAFA"/>
<path d="M225.33 110.07H223.59V111.81H225.33V110.07Z" fill="#FAFAFA"/>
<path d="M225.33 112.992H223.59V114.732H225.33V112.992Z" fill="#FAFAFA"/>
<path d="M225.33 115.898H223.59V117.638H225.33V115.898Z" fill="#FAFAFA"/>
<path d="M225.33 118.82H223.59V120.56H225.33V118.82Z" fill="#FAFAFA"/>
<path d="M225.33 121.742H223.59V123.482H225.33V121.742Z" fill="#FAFAFA"/>
<path d="M225.33 124.648H223.59V126.388H225.33V124.648Z" fill="#FAFAFA"/>
<path d="M225.33 127.57H223.59V129.31H225.33V127.57Z" fill="#FAFAFA"/>
<path d="M225.33 133.398H223.59V135.138H225.33V133.398Z" fill="#FAFAFA"/>
<path d="M225.33 136.32H223.59V138.06H225.33V136.32Z" fill="#FAFAFA"/>
<path d="M225.33 139.227H223.59V140.967H225.33V139.227Z" fill="#FAFAFA"/>
<path d="M225.33 142.148H223.59V143.888H225.33V142.148Z" fill="#FAFAFA"/>
<path d="M225.33 145.062H223.59V146.803H225.33V145.062Z" fill="#FAFAFA"/>
<path d="M228.09 80.9062H226.35V82.6462H228.09V80.9062Z" fill="#FAFAFA"/>
<path d="M228.09 83.8281H226.35V85.5681H228.09V83.8281Z" fill="#FAFAFA"/>
<path d="M228.09 86.7422H226.35V88.4822H228.09V86.7422Z" fill="#FAFAFA"/>
<path d="M228.09 89.6562H226.35V91.3962H228.09V89.6562Z" fill="#FAFAFA"/>
<path d="M228.09 92.5703H226.35V94.3103H228.09V92.5703Z" fill="#FAFAFA"/>
<path d="M228.09 95.4922H226.35V97.2322H228.09V95.4922Z" fill="#FAFAFA"/>
<path d="M228.09 98.4062H226.35V100.146H228.09V98.4062Z" fill="#FAFAFA"/>
<path d="M228.09 101.32H226.35V103.06H228.09V101.32Z" fill="#FAFAFA"/>
<path d="M228.09 104.242H226.35V105.982H228.09V104.242Z" fill="#FAFAFA"/>
<path d="M228.09 107.156H226.35V108.896H228.09V107.156Z" fill="#FAFAFA"/>
<path d="M228.09 110.07H226.35V111.81H228.09V110.07Z" fill="#FAFAFA"/>
<path d="M228.09 112.992H226.35V114.732H228.09V112.992Z" fill="#FAFAFA"/>
<path d="M228.09 115.898H226.35V117.638H228.09V115.898Z" fill="#FAFAFA"/>
<path d="M228.09 118.82H226.35V120.56H228.09V118.82Z" fill="#FAFAFA"/>
<path d="M228.09 121.742H226.35V123.482H228.09V121.742Z" fill="#FAFAFA"/>
<path d="M228.09 124.648H226.35V126.388H228.09V124.648Z" fill="#FAFAFA"/>
<path d="M228.09 142.148H226.35V143.888H228.09V142.148Z" fill="#FAFAFA"/>
<path d="M228.09 145.062H226.35V146.803H228.09V145.062Z" fill="#FAFAFA"/>
<path d="M230.86 80.9062H229.12V82.6462H230.86V80.9062Z" fill="#FAFAFA"/>
<path d="M230.86 83.8281H229.12V85.5681H230.86V83.8281Z" fill="#FAFAFA"/>
<path d="M230.86 86.7422H229.12V88.4822H230.86V86.7422Z" fill="#FAFAFA"/>
<path d="M230.86 89.6562H229.12V91.3962H230.86V89.6562Z" fill="#FAFAFA"/>
<path d="M230.86 92.5703H229.12V94.3103H230.86V92.5703Z" fill="#FAFAFA"/>
<path d="M230.86 95.4922H229.12V97.2322H230.86V95.4922Z" fill="#FAFAFA"/>
<path d="M230.86 98.4062H229.12V100.146H230.86V98.4062Z" fill="#FAFAFA"/>
<path d="M230.86 101.32H229.12V103.06H230.86V101.32Z" fill="#FAFAFA"/>
<path d="M230.86 104.242H229.12V105.982H230.86V104.242Z" fill="#FAFAFA"/>
<path d="M230.86 107.156H229.12V108.896H230.86V107.156Z" fill="#FAFAFA"/>
<path d="M230.86 110.07H229.12V111.81H230.86V110.07Z" fill="#FAFAFA"/>
<path d="M230.86 112.992H229.12V114.732H230.86V112.992Z" fill="#FAFAFA"/>
<path d="M230.86 115.898H229.12V117.638H230.86V115.898Z" fill="#FAFAFA"/>
<path d="M230.86 118.82H229.12V120.56H230.86V118.82Z" fill="#FAFAFA"/>
<path d="M230.86 121.742H229.12V123.482H230.86V121.742Z" fill="#FAFAFA"/>
<path d="M230.86 124.648H229.12V126.388H230.86V124.648Z" fill="#FAFAFA"/>
<path d="M230.86 130.477H229.12V132.217H230.86V130.477Z" fill="#FAFAFA"/>
<path d="M230.86 133.398H229.12V135.138H230.86V133.398Z" fill="#FAFAFA"/>
<path d="M230.86 136.32H229.12V138.06H230.86V136.32Z" fill="#FAFAFA"/>
<path d="M230.86 139.227H229.12V140.967H230.86V139.227Z" fill="#FAFAFA"/>
<path d="M230.86 145.062H229.12V146.803H230.86V145.062Z" fill="#FAFAFA"/>
<path d="M215.3 117.641H213.56V119.381H215.3V117.641Z" fill="#FAFAFA"/>
<path d="M215.3 120.562H213.56V122.303H215.3V120.562Z" fill="#FAFAFA"/>
<path d="M215.3 123.477H213.56V125.217H215.3V123.477Z" fill="#FAFAFA"/>
<path d="M215.3 126.391H213.56V128.131H215.3V126.391Z" fill="#FAFAFA"/>
<path d="M215.3 129.312H213.56V131.053H215.3V129.312Z" fill="#FAFAFA"/>
<path d="M215.3 132.219H213.56V133.959H215.3V132.219Z" fill="#FAFAFA"/>
<path d="M215.3 135.141H213.56V136.881H215.3V135.141Z" fill="#FAFAFA"/>
<path d="M215.3 140.969H213.56V142.709H215.3V140.969Z" fill="#FAFAFA"/>
<path d="M215.3 143.891H213.56V145.631H215.3V143.891Z" fill="#FAFAFA"/>
<path d="M215.3 146.797H213.56V148.537H215.3V146.797Z" fill="#FAFAFA"/>
<path d="M215.3 149.719H213.56V151.459H215.3V149.719Z" fill="#FAFAFA"/>
<path d="M215.3 152.641H213.56V154.381H215.3V152.641Z" fill="#FAFAFA"/>
<path d="M215.3 155.547H213.56V157.287H215.3V155.547Z" fill="#FAFAFA"/>
<path d="M215.3 158.469H213.56V160.209H215.3V158.469Z" fill="#FAFAFA"/>
<path d="M215.3 161.383H213.56V163.123H215.3V161.383Z" fill="#FAFAFA"/>
<path d="M218.07 117.641H216.33V119.381H218.07V117.641Z" fill="#FAFAFA"/>
<path d="M218.07 120.562H216.33V122.303H218.07V120.562Z" fill="#FAFAFA"/>
<path d="M218.07 123.477H216.33V125.217H218.07V123.477Z" fill="#FAFAFA"/>
<path d="M218.07 126.391H216.33V128.131H218.07V126.391Z" fill="#FAFAFA"/>
<path d="M218.07 129.312H216.33V131.053H218.07V129.312Z" fill="#FAFAFA"/>
<path d="M218.07 132.219H216.33V133.959H218.07V132.219Z" fill="#FAFAFA"/>
<path d="M218.07 140.969H216.33V142.709H218.07V140.969Z" fill="#FAFAFA"/>
<path d="M218.07 143.891H216.33V145.631H218.07V143.891Z" fill="#FAFAFA"/>
<path d="M218.07 146.797H216.33V148.537H218.07V146.797Z" fill="#FAFAFA"/>
<path d="M218.07 149.719H216.33V151.459H218.07V149.719Z" fill="#FAFAFA"/>
<path d="M218.07 152.641H216.33V154.381H218.07V152.641Z" fill="#FAFAFA"/>
<path d="M218.07 155.547H216.33V157.287H218.07V155.547Z" fill="#FAFAFA"/>
<path d="M218.07 158.469H216.33V160.209H218.07V158.469Z" fill="#FAFAFA"/>
<path d="M218.07 161.383H216.33V163.123H218.07V161.383Z" fill="#FAFAFA"/>
<path d="M220.83 117.641H219.09V119.381H220.83V117.641Z" fill="#FAFAFA"/>
<path d="M220.83 120.562H219.09V122.303H220.83V120.562Z" fill="#FAFAFA"/>
<path d="M220.83 123.477H219.09V125.217H220.83V123.477Z" fill="#FAFAFA"/>
<path d="M220.83 126.391H219.09V128.131H220.83V126.391Z" fill="#FAFAFA"/>
<path d="M220.83 129.312H219.09V131.053H220.83V129.312Z" fill="#FAFAFA"/>
<path d="M220.83 132.219H219.09V133.959H220.83V132.219Z" fill="#FAFAFA"/>
<path d="M220.83 138.062H219.09V139.803H220.83V138.062Z" fill="#FAFAFA"/>
<path d="M220.83 140.969H219.09V142.709H220.83V140.969Z" fill="#FAFAFA"/>
<path d="M220.83 143.891H219.09V145.631H220.83V143.891Z" fill="#FAFAFA"/>
<path d="M220.83 146.797H219.09V148.537H220.83V146.797Z" fill="#FAFAFA"/>
<path d="M220.83 149.719H219.09V151.459H220.83V149.719Z" fill="#FAFAFA"/>
<path d="M220.83 152.641H219.09V154.381H220.83V152.641Z" fill="#FAFAFA"/>
<path d="M220.83 155.547H219.09V157.287H220.83V155.547Z" fill="#FAFAFA"/>
<path d="M220.83 158.469H219.09V160.209H220.83V158.469Z" fill="#FAFAFA"/>
<path d="M220.83 161.383H219.09V163.123H220.83V161.383Z" fill="#FAFAFA"/>
<path d="M279.05 101.32H277.31V103.06H279.05V101.32Z" fill="#FAFAFA"/>
<path d="M279.05 104.242H277.31V105.982H279.05V104.242Z" fill="#FAFAFA"/>
<path d="M279.05 107.156H277.31V108.896H279.05V107.156Z" fill="#FAFAFA"/>
<path d="M279.05 110.07H277.31V111.81H279.05V110.07Z" fill="#FAFAFA"/>
<path d="M279.05 112.992H277.31V114.732H279.05V112.992Z" fill="#FAFAFA"/>
<path d="M279.05 115.898H277.31V117.638H279.05V115.898Z" fill="#FAFAFA"/>
<path d="M279.05 118.82H277.31V120.56H279.05V118.82Z" fill="#FAFAFA"/>
<path d="M279.05 121.742H277.31V123.482H279.05V121.742Z" fill="#FAFAFA"/>
<path d="M279.05 124.648H277.31V126.388H279.05V124.648Z" fill="#FAFAFA"/>
<path d="M279.05 127.57H277.31V129.31H279.05V127.57Z" fill="#FAFAFA"/>
<path d="M279.05 130.477H277.31V132.217H279.05V130.477Z" fill="#FAFAFA"/>
<path d="M279.05 133.398H277.31V135.138H279.05V133.398Z" fill="#FAFAFA"/>
<path d="M279.05 136.32H277.31V138.06H279.05V136.32Z" fill="#FAFAFA"/>
<path d="M279.05 142.148H277.31V143.888H279.05V142.148Z" fill="#FAFAFA"/>
<path d="M279.05 145.062H277.31V146.803H279.05V145.062Z" fill="#FAFAFA"/>
<path d="M279.05 147.977H277.31V149.717H279.05V147.977Z" fill="#FAFAFA"/>
<path d="M279.05 150.898H277.31V152.638H279.05V150.898Z" fill="#FAFAFA"/>
<path d="M279.05 156.727H277.31V158.467H279.05V156.727Z" fill="#FAFAFA"/>
<path d="M279.05 159.641H277.31V161.381H279.05V159.641Z" fill="#FAFAFA"/>
<path d="M279.05 162.562H277.31V164.303H279.05V162.562Z" fill="#FAFAFA"/>
<path d="M281.81 101.32H280.07V103.06H281.81V101.32Z" fill="#FAFAFA"/>
<path d="M281.81 104.242H280.07V105.982H281.81V104.242Z" fill="#FAFAFA"/>
<path d="M281.81 107.156H280.07V108.896H281.81V107.156Z" fill="#FAFAFA"/>
<path d="M281.81 110.07H280.07V111.81H281.81V110.07Z" fill="#FAFAFA"/>
<path d="M281.81 112.992H280.07V114.732H281.81V112.992Z" fill="#FAFAFA"/>
<path d="M281.81 115.898H280.07V117.638H281.81V115.898Z" fill="#FAFAFA"/>
<path d="M281.81 118.82H280.07V120.56H281.81V118.82Z" fill="#FAFAFA"/>
<path d="M281.81 121.742H280.07V123.482H281.81V121.742Z" fill="#FAFAFA"/>
<path d="M281.81 124.648H280.07V126.388H281.81V124.648Z" fill="#FAFAFA"/>
<path d="M281.81 127.57H280.07V129.31H281.81V127.57Z" fill="#FAFAFA"/>
<path d="M281.81 130.477H280.07V132.217H281.81V130.477Z" fill="#FAFAFA"/>
<path d="M281.81 133.398H280.07V135.138H281.81V133.398Z" fill="#FAFAFA"/>
<path d="M281.81 136.32H280.07V138.06H281.81V136.32Z" fill="#FAFAFA"/>
<path d="M281.81 145.062H280.07V146.803H281.81V145.062Z" fill="#FAFAFA"/>
<path d="M281.81 147.977H280.07V149.717H281.81V147.977Z" fill="#FAFAFA"/>
<path d="M281.81 153.812H280.07V155.553H281.81V153.812Z" fill="#FAFAFA"/>
<path d="M281.81 156.727H280.07V158.467H281.81V156.727Z" fill="#FAFAFA"/>
<path d="M281.81 159.641H280.07V161.381H281.81V159.641Z" fill="#FAFAFA"/>
<path d="M281.81 162.562H280.07V164.303H281.81V162.562Z" fill="#FAFAFA"/>
<path d="M284.57 101.32H282.83V103.06H284.57V101.32Z" fill="#FAFAFA"/>
<path d="M284.57 104.242H282.83V105.982H284.57V104.242Z" fill="#FAFAFA"/>
<path d="M284.57 107.156H282.83V108.896H284.57V107.156Z" fill="#FAFAFA"/>
<path d="M284.57 110.07H282.83V111.81H284.57V110.07Z" fill="#FAFAFA"/>
<path d="M284.57 112.992H282.83V114.732H284.57V112.992Z" fill="#FAFAFA"/>
<path d="M284.57 115.898H282.83V117.638H284.57V115.898Z" fill="#FAFAFA"/>
<path d="M284.57 118.82H282.83V120.56H284.57V118.82Z" fill="#FAFAFA"/>
<path d="M284.57 121.742H282.83V123.482H284.57V121.742Z" fill="#FAFAFA"/>
<path d="M284.57 124.648H282.83V126.388H284.57V124.648Z" fill="#FAFAFA"/>
<path d="M284.57 127.57H282.83V129.31H284.57V127.57Z" fill="#FAFAFA"/>
<path d="M284.57 130.477H282.83V132.217H284.57V130.477Z" fill="#FAFAFA"/>
<path d="M284.57 133.398H282.83V135.138H284.57V133.398Z" fill="#FAFAFA"/>
<path d="M284.57 136.32H282.83V138.06H284.57V136.32Z" fill="#FAFAFA"/>
<path d="M284.57 139.227H282.83V140.967H284.57V139.227Z" fill="#FAFAFA"/>
<path d="M284.57 145.062H282.83V146.803H284.57V145.062Z" fill="#FAFAFA"/>
<path d="M284.57 150.898H282.83V152.638H284.57V150.898Z" fill="#FAFAFA"/>
<path d="M284.57 153.812H282.83V155.553H284.57V153.812Z" fill="#FAFAFA"/>
<path d="M284.57 156.727H282.83V158.467H284.57V156.727Z" fill="#FAFAFA"/>
<path d="M284.57 159.641H282.83V161.381H284.57V159.641Z" fill="#FAFAFA"/>
<path d="M284.57 162.562H282.83V164.303H284.57V162.562Z" fill="#FAFAFA"/>
<path d="M267.79 117.953H266.05V119.693H267.79V117.953Z" fill="#FAFAFA"/>
<path d="M267.79 120.867H266.05V122.607H267.79V120.867Z" fill="#FAFAFA"/>
<path d="M267.79 123.781H266.05V125.521H267.79V123.781Z" fill="#FAFAFA"/>
<path d="M267.79 126.703H266.05V128.443H267.79V126.703Z" fill="#FAFAFA"/>
<path d="M267.79 129.609H266.05V131.349H267.79V129.609Z" fill="#FAFAFA"/>
<path d="M267.79 132.531H266.05V134.271H267.79V132.531Z" fill="#FAFAFA"/>
<path d="M267.79 141.281H266.05V143.021H267.79V141.281Z" fill="#FAFAFA"/>
<path d="M267.79 144.188H266.05V145.927H267.79V144.188Z" fill="#FAFAFA"/>
<path d="M267.79 147.109H266.05V148.849H267.79V147.109Z" fill="#FAFAFA"/>
<path d="M267.79 150.031H266.05V151.771H267.79V150.031Z" fill="#FAFAFA"/>
<path d="M267.79 152.938H266.05V154.677H267.79V152.938Z" fill="#FAFAFA"/>
<path d="M267.79 155.859H266.05V157.599H267.79V155.859Z" fill="#FAFAFA"/>
<path d="M267.79 158.773H266.05V160.513H267.79V158.773Z" fill="#FAFAFA"/>
<path d="M270.56 117.953H268.82V119.693H270.56V117.953Z" fill="#FAFAFA"/>
<path d="M270.56 120.867H268.82V122.607H270.56V120.867Z" fill="#FAFAFA"/>
<path d="M270.56 123.781H268.82V125.521H270.56V123.781Z" fill="#FAFAFA"/>
<path d="M270.56 126.703H268.82V128.443H270.56V126.703Z" fill="#FAFAFA"/>
<path d="M270.56 129.609H268.82V131.349H270.56V129.609Z" fill="#FAFAFA"/>
<path d="M270.56 132.531H268.82V134.271H270.56V132.531Z" fill="#FAFAFA"/>
<path d="M270.56 141.281H268.82V143.021H270.56V141.281Z" fill="#FAFAFA"/>
<path d="M270.56 144.188H268.82V145.927H270.56V144.188Z" fill="#FAFAFA"/>
<path d="M270.56 147.109H268.82V148.849H270.56V147.109Z" fill="#FAFAFA"/>
<path d="M270.56 150.031H268.82V151.771H270.56V150.031Z" fill="#FAFAFA"/>
<path d="M270.56 152.938H268.82V154.677H270.56V152.938Z" fill="#FAFAFA"/>
<path d="M270.56 155.859H268.82V157.599H270.56V155.859Z" fill="#FAFAFA"/>
<path d="M270.56 161.688H268.82V163.427H270.56V161.688Z" fill="#FAFAFA"/>
<path d="M336.76 22.6016H333.31V212.092H336.76V22.6016Z" fill="#EBEBEB"/>
<path d="M281.31 22.6016H278.39V212.092H281.31V22.6016Z" fill="#EBEBEB"/>
<path d="M226.39 22.6016H223.47V212.092H226.39V22.6016Z" fill="#EBEBEB"/>
<path d="M446.82 52.1134C454.646 52.1134 460.99 45.7693 460.99 37.9434C460.99 30.1176 454.646 23.7734 446.82 23.7734C438.995 23.7734 432.65 30.1176 432.65 37.9434C432.65 45.7693 438.995 52.1134 446.82 52.1134Z" fill="#E0E0E0"/>
<path d="M458.86 37.9375C458.86 40.3109 458.157 42.6309 456.838 44.6043C455.519 46.5777 453.645 48.1158 451.453 49.0241C449.26 49.9323 446.847 50.1699 444.519 49.7069C442.192 49.2439 440.053 48.101 438.375 46.4228C436.697 44.7445 435.554 42.6064 435.091 40.2786C434.628 37.9508 434.866 35.538 435.774 33.3453C436.682 31.1526 438.22 29.2784 440.194 27.9599C442.167 26.6413 444.487 25.9375 446.86 25.9375C450.043 25.9375 453.095 27.2018 455.346 29.4522C457.596 31.7027 458.86 34.7549 458.86 37.9375Z" fill="#F0F0F0"/>
<path d="M446.25 29.6797V38.0997L440.67 34.9397" fill="#F0F0F0"/>
<path d="M446.25 39.0997C446.075 39.1009 445.903 39.0561 445.75 38.9697L440.17 35.8097C439.942 35.6778 439.774 35.4607 439.705 35.2059C439.636 34.9512 439.67 34.6793 439.8 34.4497C439.931 34.2192 440.147 34.0499 440.402 33.9786C440.657 33.9074 440.929 33.9401 441.16 34.0697L445.25 36.3897V29.6797C445.25 29.4145 445.356 29.1601 445.543 28.9726C445.731 28.785 445.985 28.6797 446.25 28.6797C446.516 28.6797 446.77 28.785 446.957 28.9726C447.145 29.1601 447.25 29.4145 447.25 29.6797V38.0997C447.249 38.2742 447.203 38.4454 447.115 38.5963C447.027 38.7471 446.901 38.8724 446.75 38.9597C446.601 39.0545 446.427 39.1032 446.25 39.0997Z" fill="#E0E0E0"/>
<path d="M379.28 153.859H441.92V78.1894L379.28 78.1894V153.859Z" fill="#F5F5F5"/>
<path d="M420.61 86.25V119.51L406.13 118.77L404.46 86.25H420.61Z" fill="#EBEBEB"/>
<path d="M408.88 92.6797H386.6L386.8 121.81L398.34 121.97L408.88 92.6797Z" fill="#E0E0E0"/>
<path d="M430.58 88.3906H424.71L426.77 114.371L434.1 116.031L430.58 88.3906Z" fill="#E6E6E6"/>
<path d="M513.53 77.8828H451.09V153.863H513.53V77.8828Z" fill="#E6E6E6"/>
<path d="M499.25 135.048L466.43 102.787L501.94 96.9375L499.25 135.048Z" fill="#E0E0E0"/>
<path d="M467.23 127.402L465.6 102.672L490.31 108.742L492.1 127.662L467.23 127.402Z" fill="#F0F0F0"/>
<path d="M506.603 99.6514C510.496 95.7579 510.496 89.4452 506.603 85.5517C502.709 81.6582 496.397 81.6582 492.503 85.5517C488.609 89.4452 488.609 95.7579 492.503 99.6514C496.397 103.545 502.709 103.545 506.603 99.6514Z" fill="#FAFAFA"/>
<path d="M470.45 136.223C470.45 135.265 470.165 134.329 469.633 133.533C469.101 132.737 468.344 132.116 467.459 131.75C466.574 131.384 465.601 131.289 464.662 131.477C463.722 131.664 462.86 132.126 462.184 132.804C461.507 133.482 461.047 134.345 460.861 135.285C460.676 136.224 460.773 137.198 461.141 138.082C461.509 138.966 462.131 139.721 462.928 140.252C463.725 140.783 464.662 141.065 465.62 141.063C466.901 141.06 468.13 140.549 469.035 139.642C469.941 138.734 470.45 137.505 470.45 136.223Z" fill="#E0E0E0"/>
<path d="M466.76 144.719L480.73 136.219L468.99 126.539L466.76 144.719Z" fill="#F5F5F5"/>
<path d="M483.26 148.219H486.01V87.5488H483.26V148.219Z" fill="#E0E0E0"/>
<path d="M456.95 145.539H460.5V87.5491H456.95V145.539Z" fill="#EBEBEB"/>
<path d="M489.11 145.812H507.26V127.663H489.11V145.812Z" fill="#EBEBEB"/>
<path d="M187.48 302.508H253.1V242.878H187.48V302.508Z" fill="#E6E6E6"/>
<path d="M177.46 311.672H185.71V237.622H177.46V311.672Z" fill="#E6E6E6"/>
<path d="M237.28 269.844H242.66V248.454H237.28V269.844Z" fill="#FAFAFA"/>
<path d="M214.99 269.844H220.37V248.454H214.99V269.844Z" fill="#F5F5F5"/>
<path d="M231.9 269.828H237.28V250.288H231.9V269.828Z" fill="#F5F5F5"/>
<path d="M220.36 269.828H225.74V250.288H220.36V269.828Z" fill="#FAFAFA"/>
<path d="M225.75 269.844H229.22V248.454H225.75V269.844Z" fill="#EBEBEB"/>
<path d="M229.22 269.828H231.91V250.288H229.22V269.828Z" fill="#FAFAFA"/>
<path d="M209.62 269.844H215V248.454H209.62V269.844Z" fill="#EBEBEB"/>
<path d="M204.23 269.828H209.61V250.288H204.23V269.828Z" fill="#E6E6E6"/>
<path d="M192.69 269.828H198.07V250.288H192.69V269.828Z" fill="#E6E6E6"/>
<path d="M198.08 269.844H201.55V248.454H198.08V269.844Z" fill="#FAFAFA"/>
<path d="M201.55 269.828H204.24V250.288H201.55V269.828Z" fill="#EBEBEB"/>
<path d="M190.01 269.828H192.7V249.058H190.01V269.828Z" fill="#FAFAFA"/>
<path d="M195.39 278.82H190.01V299.21H195.39V278.82Z" fill="#FAFAFA"/>
<path d="M217.68 278.82H212.3V299.21H217.68V278.82Z" fill="#FAFAFA"/>
<path d="M200.77 280.672H195.39V299.212H200.77V280.672Z" fill="#F0F0F0"/>
<path d="M212.31 280.672H206.93V299.212H212.31V280.672Z" fill="#EBEBEB"/>
<path d="M206.92 278.82H203.45V299.21H206.92V278.82Z" fill="#FAFAFA"/>
<path d="M203.45 280.672H200.76V299.212H203.45V280.672Z" fill="#F5F5F5"/>
<path d="M223.06 278.82H217.68V299.21H223.06V278.82Z" fill="#EBEBEB"/>
<path d="M228.44 280.672H223.06V299.212H228.44V280.672Z" fill="#F5F5F5"/>
<path d="M239.98 280.672H234.6V299.212H239.98V280.672Z" fill="#E6E6E6"/>
<path d="M234.59 278.82H231.12V299.21H234.59V278.82Z" fill="#FAFAFA"/>
<path d="M246.13 278.82H242.66V299.21H246.13V278.82Z" fill="#FAFAFA"/>
<path d="M231.12 280.672H228.43V299.212H231.12V280.672Z" fill="#EBEBEB"/>
<path d="M242.66 279.438H239.97V299.207H242.66V279.438Z" fill="#F0F0F0"/>
<path d="M185.62 237.633V311.633H190V306.873H255.17V237.633H185.62ZM190 274.263H251V299.213H190V274.263ZM190 245.333H251V269.863H190V245.333Z" fill="#F0F0F0"/>
<path d="M318.84 242.883H253.22V302.513H318.84V242.883Z" fill="#E6E6E6"/>
<path d="M316.32 306.039H308.07V311.669H316.32V306.039Z" fill="#E6E6E6"/>
<path d="M260.81 248.438H255.43V269.827H260.81V248.438Z" fill="#FAFAFA"/>
<path d="M283.1 248.438H277.72V269.827H283.1V248.438Z" fill="#F5F5F5"/>
<path d="M266.18 250.297H260.8V269.837H266.18V250.297Z" fill="#F5F5F5"/>
<path d="M277.72 250.297H272.34V269.837H277.72V250.297Z" fill="#FAFAFA"/>
<path d="M272.34 248.438H268.87V269.827H272.34V248.438Z" fill="#EBEBEB"/>
<path d="M268.87 250.297H266.18V269.837H268.87V250.297Z" fill="#FAFAFA"/>
<path d="M284.93 248.438H279.55V269.827H284.93V248.438Z" fill="#EBEBEB"/>
<path d="M290.31 250.297H284.93V269.837H290.31V250.297Z" fill="#E6E6E6"/>
<path d="M301.85 250.297H296.47V269.837H301.85V250.297Z" fill="#E6E6E6"/>
<path d="M296.47 248.438H293V269.827H296.47V248.438Z" fill="#FAFAFA"/>
<path d="M293 250.297H290.31V269.837H293V250.297Z" fill="#EBEBEB"/>
<path d="M304.54 249.07H301.85V269.84H304.54V249.07Z" fill="#F5F5F5"/>
<path d="M301.69 299.211H307.07V278.821H301.69V299.211Z" fill="#FAFAFA"/>
<path d="M279.39 299.211H284.77V278.821H279.39V299.211Z" fill="#FAFAFA"/>
<path d="M296.3 299.211H301.68V280.671H296.3V299.211Z" fill="#F5F5F5"/>
<path d="M284.76 299.211H290.14V280.671H284.76V299.211Z" fill="#EBEBEB"/>
<path d="M290.15 299.211H293.62V278.821H290.15V299.211Z" fill="#FAFAFA"/>
<path d="M293.62 299.211H296.31V280.671H293.62V299.211Z" fill="#F5F5F5"/>
<path d="M277.55 299.211H282.93V278.821H277.55V299.211Z" fill="#EBEBEB"/>
<path d="M272.18 299.211H277.56V280.671H272.18V299.211Z" fill="#F5F5F5"/>
<path d="M260.64 299.211H266.02V280.671H260.64V299.211Z" fill="#E6E6E6"/>
<path d="M266.02 299.211H269.49V278.821H266.02V299.211Z" fill="#FAFAFA"/>
<path d="M255.19 299.211H258.66V278.821H255.19V299.211Z" fill="#FAFAFA"/>
<path d="M269.49 299.211H272.18V280.671H269.49V299.211Z" fill="#EBEBEB"/>
<path d="M257.95 299.211H260.64V279.441H257.95V299.211Z" fill="#EBEBEB"/>
<path d="M318.51 237.633H251.14V306.913H316.31V311.673H320.71V237.673L318.51 237.633ZM316.31 299.213H255.31V274.263H316.31V299.213ZM316.31 269.863H255.31V245.333H316.31V269.863Z" fill="#F0F0F0"/>
<path d="M348.89 349.561C484.139 349.561 593.78 342.807 593.78 334.476C593.78 326.144 484.139 319.391 348.89 319.391C213.641 319.391 104 326.144 104 334.476C104 342.807 213.641 349.561 348.89 349.561Z" fill="#F5F5F5"/>
<path d="M486.232 5.00006H446.573C443.334 5.00006 440.227 6.35772 437.937 8.77438C435.646 11.191 434.359 14.4687 434.359 17.8864V54.3066C434.359 57.7242 435.646 61.0019 437.937 63.4186C440.227 65.8352 443.334 67.1929 446.573 67.1929H462.083L465.872 76.0681L470.331 67.1929H486.27C489.509 67.1929 492.616 65.8352 494.906 63.4186C497.197 61.0019 498.484 57.7242 498.484 54.3066V17.8731C498.482 16.1786 498.164 14.501 497.547 12.9365C496.93 11.372 496.027 9.95122 494.889 8.75551C493.751 7.55979 492.4 6.61261 490.915 5.9682C489.429 5.32379 487.838 4.9948 486.232 5.00006Z" fill="#407BFF"/>
<path opacity="0.7" d="M486.232 5.00006H446.573C443.334 5.00006 440.227 6.35772 437.937 8.77438C435.646 11.191 434.359 14.4687 434.359 17.8864V54.3066C434.359 57.7242 435.646 61.0019 437.937 63.4186C440.227 65.8352 443.334 67.1929 446.573 67.1929H462.083L465.872 76.0681L470.331 67.1929H486.27C489.509 67.1929 492.616 65.8352 494.906 63.4186C497.197 61.0019 498.484 57.7242 498.484 54.3066V17.8731C498.482 16.1786 498.164 14.501 497.547 12.9365C496.93 11.372 496.027 9.95122 494.889 8.75551C493.751 7.55979 492.4 6.61261 490.915 5.9682C489.429 5.32379 487.838 4.9948 486.232 5.00006Z" fill="white"/>
<path d="M364.033 328.203H416.26C421.17 328.203 425.151 324.003 425.151 318.822V227.365C425.151 222.183 421.17 217.983 416.26 217.983H364.033C359.122 217.983 355.141 222.183 355.141 227.365V318.822C355.141 324.003 359.122 328.203 364.033 328.203Z" fill="#263238"/>
<path opacity="0.5" d="M364.033 328.203H416.26C421.17 328.203 425.151 324.003 425.151 318.822V227.365C425.151 222.183 421.17 217.983 416.26 217.983H364.033C359.122 217.983 355.141 222.183 355.141 227.365V318.822C355.141 324.003 359.122 328.203 364.033 328.203Z" fill="white"/>
<path opacity="0.1" d="M369.503 328.206H416.235C418.58 328.206 420.829 327.223 422.487 325.474C424.145 323.724 425.076 321.352 425.076 318.878V227.367C425.076 224.893 424.145 222.521 422.487 220.771C420.829 219.022 418.58 218.039 416.235 218.039H369.503C371.848 218.039 374.097 219.022 375.755 220.771C377.413 222.521 378.344 224.893 378.344 227.367V318.824C378.351 320.054 378.127 321.272 377.686 322.41C377.244 323.548 376.594 324.583 375.773 325.455C374.951 326.327 373.974 327.019 372.898 327.491C371.822 327.963 370.668 328.206 369.503 328.206Z" fill="black"/>
<path d="M515.484 325.336H365.89V335.704H515.484V325.336Z" fill="#263238"/>
<path opacity="0.2" d="M515.484 325.336H365.89V335.704H515.484V325.336Z" fill="white"/>
<path opacity="0.2" d="M450.702 325.336H365.89V335.704H450.702V325.336Z" fill="white"/>
<path d="M411.397 266.352H521.787L538.61 174.682C539.043 172.328 538.976 169.901 538.414 167.577C537.852 165.253 536.809 163.09 535.36 161.242C533.911 159.394 532.091 157.908 530.033 156.891C527.974 155.874 525.727 155.351 523.454 155.359H444.464C440.882 155.349 437.408 156.657 434.642 159.058C431.876 161.459 429.989 164.802 429.307 168.512L411.397 266.352Z" fill="#263238"/>
<path opacity="0.6" d="M411.397 266.352H521.787L538.61 174.682C539.043 172.328 538.976 169.901 538.414 167.577C537.852 165.253 536.809 163.09 535.36 161.242C533.911 159.394 532.091 157.908 530.033 156.891C527.974 155.874 525.727 155.351 523.454 155.359H444.464C440.882 155.349 437.408 156.657 434.642 159.058C431.876 161.459 429.989 164.802 429.307 168.512L411.397 266.352Z" fill="white"/>
<path opacity="0.1" d="M490.438 266.352H521.787L538.611 174.682C539.044 172.328 538.977 169.901 538.415 167.577C537.853 165.253 536.809 163.09 535.36 161.242C533.911 159.394 532.091 157.908 530.033 156.891C527.974 155.874 525.727 155.351 523.454 155.359C519.872 155.349 516.399 156.657 513.632 159.058C510.866 161.459 508.979 164.802 508.298 168.512L490.438 266.352Z" fill="black"/>
<path d="M518.211 265.242H361.822C357.539 265.242 354.067 268.905 354.067 273.424V320.026C354.067 324.545 357.539 328.208 361.822 328.208H518.211C522.494 328.208 525.967 324.545 525.967 320.026V273.424C525.967 268.905 522.494 265.242 518.211 265.242Z" fill="#263238"/>
<path opacity="0.6" d="M518.211 265.242H361.822C357.539 265.242 354.067 268.905 354.067 273.424V320.026C354.067 324.545 357.539 328.208 361.822 328.208H518.211C522.494 328.208 525.967 324.545 525.967 320.026V273.424C525.967 268.905 522.494 265.242 518.211 265.242Z" fill="white"/>
<path opacity="0.1" d="M518.212 265.242H451.283C447 265.242 443.528 268.905 443.528 273.424V320.026C443.528 324.545 447 328.208 451.283 328.208H518.212C522.495 328.208 525.967 324.545 525.967 320.026V273.424C525.967 268.905 522.495 265.242 518.212 265.242Z" fill="black"/>
<path d="M439.134 163.172C421.54 161.386 398.389 155.669 386.68 139.824C385.651 138.324 384.803 136.695 384.154 134.974C381.35 126.871 380.845 118.889 380.58 110.56C380.48 106.719 380.594 102.874 380.921 99.0466C381.045 97.6448 381.611 96.3276 382.53 95.3066C383.449 94.2856 384.666 93.6201 385.987 93.4171C387.307 93.2142 388.654 93.4855 389.81 94.1874C390.967 94.8894 391.867 95.9813 392.364 97.2876C394.89 104.097 397.088 111.147 399.424 117.583C400.523 120.248 401.673 124.246 403.315 126.139C403.285 126.052 403.252 125.968 403.214 125.885L403.39 126.059C408.619 130.856 415.92 133.015 422.791 134.92C427.931 136.253 433.741 137.372 439.046 138.212L441.193 138.532L441.673 138.612C456.539 141.384 454.19 163.811 439.147 163.172H439.134Z" fill="#DC897C"/>
<path d="M384.255 101.074L390.57 98.2753C395.623 93.0781 388.208 87.2812 388.208 87.2812L385.682 82.9636C385.19 82.2323 384.468 81.7098 383.644 81.49C382.82 81.2702 381.948 81.3674 381.186 81.7642L376.816 83.6832C375.906 84.0342 375.159 84.7393 374.726 85.6538C374.294 86.5684 374.21 87.6228 374.492 88.6005L376.083 92.705C376.552 93.8959 377.289 94.948 378.231 95.7699L384.255 101.074Z" fill="#E4897B"/>
<path d="M449.932 160.731C441.091 167.061 420.781 162.237 407.999 156.6L419.366 129.281C419.366 129.281 443.97 133.985 450.273 141.968C456.575 149.95 449.932 160.731 449.932 160.731Z" fill="#5A72EB"/>
<path d="M405.815 156.42L409.731 158.192L421.224 129.341L418.673 128.328L405.815 156.42Z" fill="#407BFF"/>
<path opacity="0.5" d="M405.815 156.42L409.731 158.192L421.224 129.341L418.673 128.328L405.815 156.42Z" fill="white"/>
<path d="M363.881 308.5L347.854 309.739L348.346 329.742L361.734 328.729L363.881 308.5Z" fill="#E4897B"/>
<path opacity="0.2" d="M363.881 308.508L347.841 309.747L348.131 320.941L362.682 319.835L363.881 308.508Z" fill="black"/>
<path d="M451.701 222.048C451.701 222.048 475.573 268.983 447.268 268.983C411.638 268.983 377.738 259.535 377.738 259.535C377.738 259.535 379.67 279.524 365.903 317.583L346.667 317.41C346.667 317.41 339.177 235.748 353.538 222.048C365.095 211.014 406.131 214.546 406.131 214.546L451.701 222.048Z" fill="#404041"/>
<path opacity="0.2" d="M373.506 286.674C373.746 287.66 373.986 288.633 374.239 289.579C378.723 269.789 377.737 259.528 377.737 259.528C377.737 259.528 411.65 268.99 447.268 268.99C464.483 268.99 462.424 251.666 458.117 238.02C445.979 229.891 433.172 222.522 424.015 217.498L406.105 214.553C406.105 214.553 398.729 213.913 389.345 214.02C375.489 220.563 362.152 238.58 373.506 286.674Z" fill="black"/>
<path d="M407.191 215.205C427.893 227.278 480.561 218.523 489.983 216.831C491.158 200.386 492.737 179.517 497.701 160.061C498.247 157.978 498.386 155.8 498.108 153.658C497.83 151.517 497.14 149.457 496.082 147.606C495.024 145.756 493.62 144.152 491.954 142.893C490.289 141.634 488.398 140.747 486.396 140.285C471.746 137.255 456.823 135.941 441.9 136.368C436.671 136.568 431.05 139.246 429.37 144.483C421.666 168.603 409.44 188.206 407.191 215.205Z" fill="#5A72EB"/>
<path d="M394.586 310.089L378.608 308.344L375.779 328.133L389.13 329.612L394.586 310.089Z" fill="#E4897B"/>
<path opacity="0.2" d="M394.585 310.113L378.595 308.367L377.017 319.441L391.529 321.04L394.585 310.113Z" fill="black"/>
<path d="M489.617 222.046C489.617 222.046 499.582 256.693 472.768 266.302C445.954 275.91 419.468 258.999 419.468 258.999C419.468 258.999 419.468 266.302 395.584 320.006L375.779 316.075C375.779 316.075 382.764 235.692 391.454 222.046C400.143 208.4 444.034 214.543 444.034 214.543L489.617 222.046Z" fill="#404041"/>
<path opacity="0.1" d="M461.553 220.583C474.865 219.437 486.106 217.531 489.984 216.838C490.994 202.606 492.321 185.042 495.882 167.971C490.83 164.773 475.585 160.695 475.585 160.695C475.585 160.695 475.143 180.591 489.933 192.678C489.933 192.678 483.479 203.858 465.671 214C462.399 215.879 461.225 218.211 461.553 220.583Z" fill="black"/>
<path d="M454.845 148.917C463.534 149.384 471.075 141.575 475.142 138.869C471.795 136.404 471.517 127.356 471.58 123.171C471.58 121.839 471.643 121.039 471.643 121.039L453.039 126.796C453.603 129.419 453.71 132.128 453.354 134.792C453.295 135.692 453.155 136.584 452.938 137.457C451.092 138.328 449.633 139.911 448.858 141.881C448.863 141.925 448.863 141.97 448.858 142.014C447.721 145.186 446.281 148.504 454.845 148.917Z" fill="#E4897B"/>
<path d="M454.327 148.909L457.598 145.844L462.651 148.509C462.651 148.509 459.885 151.574 454.327 148.909Z" fill="#407BFF"/>
<path opacity="0.6" d="M454.327 148.909L457.598 145.844L462.651 148.509C462.651 148.509 459.885 151.574 454.327 148.909Z" fill="white"/>
<path d="M473.047 136.625C473.047 136.625 466.82 145.607 457.6 145.86C459.335 146.817 460.866 148.139 462.099 149.743C463.333 151.347 464.243 153.2 464.774 155.188C464.774 155.188 475.977 151.723 476.911 138.744C476.458 138.109 475.875 137.589 475.206 137.222C474.538 136.856 473.8 136.652 473.047 136.625Z" fill="#407BFF"/>
<path d="M454.327 148.92L449.907 144.922L444.854 146.428C444.854 146.428 449.237 151.265 454.327 148.92Z" fill="#407BFF"/>
<path opacity="0.6" d="M454.327 148.92L449.907 144.922L444.854 146.428C444.854 146.428 449.237 151.265 454.327 148.92Z" fill="white"/>
<path d="M452.951 137.464C452.951 137.464 449.768 141.795 449.907 144.98C445.689 146.179 444.249 152.855 444.249 152.855C444.249 152.855 442.544 143.221 448.834 138.197C450.101 137.507 451.54 137.25 452.951 137.464Z" fill="#407BFF"/>
<path opacity="0.5" d="M473.047 136.625C473.047 136.625 466.82 145.607 457.6 145.86C459.335 146.817 460.866 148.139 462.099 149.743C463.333 151.347 464.243 153.2 464.774 155.188C464.774 155.188 475.977 151.723 476.911 138.744C476.458 138.109 475.875 137.589 475.206 137.222C474.538 136.856 473.8 136.652 473.047 136.625Z" fill="white"/>
<path opacity="0.5" d="M452.951 137.464C452.951 137.464 449.768 141.795 449.907 144.98C445.689 146.179 444.249 152.855 444.249 152.855C444.249 152.855 442.544 143.221 448.834 138.197C450.101 137.507 451.54 137.25 452.951 137.464Z" fill="white"/>
<path opacity="0.2" d="M453.355 134.833C462.36 133.5 468.385 127.464 471.58 123.226C471.58 121.893 471.644 121.094 471.644 121.094L453.039 126.851C453.601 129.469 453.708 132.174 453.355 134.833Z" fill="black"/>
<path d="M455.591 91.2387C455.591 91.2387 444.148 96.4492 448.139 109.282C452.13 122.115 472.023 117.011 474.663 109.282C477.302 101.553 472.667 85.4952 455.591 91.2387Z" fill="#263238"/>
<path d="M478.388 110.656C474.599 120.237 471.884 126.647 464.735 128.979C450.526 133.59 445.272 126.101 446.004 115.573C446.648 106.098 452.673 92.0259 463.687 91.2796C474.7 90.5334 482.127 101.074 478.388 110.656Z" fill="#E4897B"/>
<path d="M471.872 99.7805C468.626 102.339 465.632 119.77 470.053 120.169C473.065 120.373 476.087 120.351 479.096 120.103C479.096 120.103 484.906 112.92 482.885 103.685C480.865 94.45 471.872 99.7805 471.872 99.7805Z" fill="#263238"/>
<path d="M460.213 107.007C459.961 107.873 459.317 108.42 458.786 108.233C458.256 108.046 458.028 107.207 458.281 106.341C458.534 105.474 459.19 104.928 459.721 105.115C460.251 105.301 460.479 106.141 460.213 107.007Z" fill="#263238"/>
<path d="M451.701 104.413C451.436 105.279 450.791 105.826 450.261 105.639C449.73 105.453 449.503 104.613 449.768 103.747C450.034 102.881 450.665 102.334 451.196 102.521C451.726 102.707 451.953 103.6 451.701 104.413Z" fill="#263238"/>
<path d="M454.302 106.023L452.193 113.299C451.347 113.214 450.519 112.984 449.742 112.62C449.588 112.537 449.459 112.412 449.369 112.256C449.278 112.101 449.23 111.923 449.23 111.74C449.23 111.558 449.278 111.379 449.369 111.224C449.459 111.069 449.588 110.943 449.742 110.861C451.546 109.576 453.094 107.933 454.302 106.023Z" fill="#DE5753"/>
<path d="M464.205 102.699C464.283 102.725 464.366 102.725 464.445 102.699C464.505 102.67 464.56 102.629 464.605 102.578C464.651 102.527 464.686 102.467 464.71 102.401C464.733 102.336 464.744 102.266 464.742 102.196C464.74 102.126 464.725 102.057 464.697 101.993C464.375 101.217 463.885 100.532 463.267 99.9931C462.648 99.4538 461.918 99.0752 461.135 98.8878C461.002 98.8686 460.866 98.9052 460.758 98.9898C460.649 99.0744 460.576 99.2004 460.554 99.3409C460.536 99.4804 460.571 99.6218 460.652 99.7342C460.732 99.8465 460.852 99.9207 460.984 99.9406C461.604 100.093 462.182 100.399 462.669 100.832C463.156 101.265 463.54 101.813 463.788 102.433C463.83 102.51 463.891 102.576 463.964 102.622C464.037 102.669 464.119 102.695 464.205 102.699Z" fill="#263238"/>
<path d="M454.543 99.3558C454.465 99.3225 454.381 99.3124 454.298 99.3265C454.216 99.3406 454.139 99.3784 454.075 99.4357C453.587 99.857 453.009 100.148 452.392 100.285C451.774 100.422 451.134 100.4 450.526 100.222C450.463 100.199 450.396 100.189 450.33 100.194C450.263 100.198 450.198 100.216 450.138 100.247C450.078 100.278 450.025 100.321 449.981 100.374C449.937 100.427 449.903 100.488 449.882 100.555C449.841 100.689 449.851 100.835 449.91 100.962C449.969 101.089 450.072 101.186 450.198 101.235C450.963 101.465 451.77 101.498 452.55 101.331C453.331 101.164 454.061 100.802 454.682 100.275C454.735 100.233 454.78 100.181 454.814 100.12C454.847 100.059 454.869 99.9919 454.877 99.9221C454.885 99.8523 454.88 99.7815 454.862 99.714C454.843 99.6464 454.812 99.5835 454.77 99.529C454.712 99.4487 454.633 99.3883 454.543 99.3558Z" fill="#263238"/>
<path d="M449.123 116.94C449.039 116.936 448.956 116.969 448.884 117.035C448.812 117.1 448.753 117.195 448.716 117.309C448.678 117.423 448.663 117.551 448.671 117.678C448.68 117.805 448.713 117.925 448.765 118.025C451.788 124.008 457.248 118.928 457.308 118.874C457.407 118.775 457.476 118.62 457.5 118.445C457.525 118.269 457.503 118.086 457.439 117.934C457.41 117.857 457.371 117.791 457.324 117.738C457.276 117.685 457.223 117.647 457.166 117.627C457.109 117.606 457.049 117.604 456.992 117.62C456.934 117.635 456.879 117.668 456.83 117.717C456.627 117.898 452.051 122.2 449.482 117.193C449.437 117.115 449.382 117.053 449.32 117.009C449.258 116.966 449.191 116.942 449.123 116.94Z" fill="#263238"/>
<path d="M478.983 122.514C477.982 123.406 476.825 124.081 475.576 124.5C474.328 124.918 473.013 125.072 471.708 124.953C468.209 124.593 467.691 120.955 469.7 118.17C471.493 115.651 475.484 112.839 478.541 114.545C479.192 114.939 479.74 115.499 480.135 116.172C480.53 116.846 480.759 117.613 480.803 118.403C480.847 119.194 480.704 119.984 480.386 120.702C480.068 121.419 479.586 122.042 478.983 122.514Z" fill="#E4897B"/>
<path d="M471.404 102.701C471.404 102.701 462.259 97.8632 460.504 93.4789V96.2907C460.504 96.2907 452.749 95.5844 451.751 92.2929C450.753 89.0013 467.804 84.4571 475.294 90.0807C482.784 95.7043 480.738 101.488 480.738 101.488L471.404 102.701Z" fill="#263238"/>
<path d="M497.145 147.885C507.439 163.104 518.49 185.571 514.764 205.041C511.822 218.74 487.432 222.365 476.444 222.458C475.134 222.441 473.866 221.971 472.835 221.119C471.804 220.267 471.066 219.081 470.736 217.744C470.406 216.407 470.501 214.992 471.008 213.718C471.514 212.443 472.404 211.38 473.539 210.691C480.726 206.347 489.289 202.855 495.453 197.152C495.92 196.632 496.16 196.152 495.743 196.526L493.962 200.95C493.994 198.159 493.611 195.38 492.825 192.714C489.782 182.053 483.883 171.779 478.149 162.371L477.821 161.824C470.091 148.099 487.824 135.332 497.145 147.885Z" fill="#DC897C"/>
<path d="M471.845 211.969L477.403 216.047C481.419 222.23 472.982 226.308 472.982 226.308L469.673 229.986C469.053 230.581 468.255 230.928 467.417 230.967C466.579 231.006 465.755 230.734 465.088 230.199L461.185 227.374C460.356 226.836 459.755 225.983 459.505 224.991C459.256 223.999 459.378 222.943 459.846 222.043L462.196 218.379C462.875 217.305 463.8 216.429 464.886 215.833L471.845 211.969Z" fill="#E4897B"/>
<path d="M488.329 140.922C498.673 143.854 508.537 163.19 512.832 177.076L485.803 185.857C485.803 185.857 473.059 163.203 474.65 152.915C476.242 142.628 488.329 140.922 488.329 140.922Z" fill="#5A72EB"/>
<path d="M514.12 178.871L512.831 174.594L484.628 184.308L485.575 187.014L514.12 178.871Z" fill="#407BFF"/>
<path opacity="0.5" d="M514.12 178.871L512.831 174.594L484.628 184.308L485.575 187.014L514.12 178.871Z" fill="white"/>
<path d="M379.556 90.1172C380.326 93.2222 385 94.6081 389.976 93.2088C394.952 91.8096 398.35 88.1849 397.554 85.0799C396.758 81.975 392.111 80.5891 387.134 81.975C382.158 83.3609 378.773 87.0122 379.556 90.1172Z" fill="#263238"/>
<path d="M373.076 80.957C372.472 80.6078 372.019 80.0251 371.813 79.3312C371.043 76.2796 376.562 72.0952 384.14 70.003C391.718 67.9108 398.463 68.6704 399.297 71.682C399.44 72.3955 399.318 73.1399 398.956 73.7609C399.174 74.0273 399.333 74.3413 399.423 74.6804C399.562 75.3887 399.43 76.1262 399.057 76.7326C399.294 76.9963 399.467 77.3163 399.562 77.6655C399.691 78.3772 399.55 79.1139 399.17 79.7177C399.417 79.9754 399.596 80.2971 399.688 80.6505C399.758 81.0022 399.756 81.3654 399.684 81.7165C399.613 82.0677 399.472 82.3991 399.271 82.6894C399.534 82.9461 399.726 83.273 399.827 83.6355C400.459 86.1675 395.874 89.6456 389.571 91.4046C383.269 93.1637 377.661 92.5374 377.017 90.072C376.923 89.71 376.923 89.328 377.017 88.966C376.709 88.8156 376.432 88.6012 376.204 88.3356C375.977 88.07 375.802 87.7586 375.691 87.4202C375.602 87.0619 375.602 86.6857 375.691 86.3274C375.392 86.1669 375.126 85.9452 374.909 85.6752C374.692 85.4052 374.529 85.0924 374.427 84.7549C374.345 84.4049 374.345 84.0389 374.427 83.6889C374.126 83.5253 373.859 83.2995 373.642 83.0248C373.425 82.75 373.263 82.4321 373.164 82.0897C373.037 81.7278 373.007 81.336 373.076 80.957Z" fill="#263238"/>
<path opacity="0.3" d="M373.076 80.957C372.472 80.6078 372.019 80.0251 371.813 79.3312C371.043 76.2796 376.562 72.0952 384.14 70.003C391.718 67.9108 398.463 68.6704 399.297 71.682C399.44 72.3955 399.318 73.1399 398.956 73.7609C399.174 74.0273 399.333 74.3413 399.423 74.6804C399.562 75.3887 399.43 76.1262 399.057 76.7326C399.294 76.9963 399.467 77.3163 399.562 77.6655C399.691 78.3772 399.55 79.1139 399.17 79.7177C399.417 79.9754 399.596 80.2971 399.688 80.6505C399.758 81.0022 399.756 81.3654 399.684 81.7165C399.613 82.0677 399.472 82.3991 399.271 82.6894C399.534 82.9461 399.726 83.273 399.827 83.6355C400.459 86.1675 395.874 89.6456 389.571 91.4046C383.269 93.1637 377.661 92.5374 377.017 90.072C376.923 89.71 376.923 89.328 377.017 88.966C376.709 88.8156 376.432 88.6012 376.204 88.3356C375.977 88.07 375.802 87.7586 375.691 87.4202C375.602 87.0619 375.602 86.6857 375.691 86.3274C375.392 86.1669 375.126 85.9452 374.909 85.6752C374.692 85.4052 374.529 85.0924 374.427 84.7549C374.345 84.4049 374.345 84.0389 374.427 83.6889C374.126 83.5253 373.859 83.2995 373.642 83.0248C373.425 82.75 373.263 82.4321 373.164 82.0897C373.037 81.7278 373.007 81.336 373.076 80.957Z" fill="white"/>
<path d="M354.914 57.057C353.826 52.7384 353.791 48.1996 354.812 43.8628C355.833 39.526 357.877 35.5322 360.755 32.253C363.632 28.9738 367.248 26.5158 371.268 25.1076C375.287 23.6994 379.579 23.3869 383.744 24.1991C387.909 25.0112 391.811 26.9217 395.088 29.7528C398.365 32.5838 400.91 36.2434 402.486 40.3911C404.062 44.5387 404.618 49.0396 404.103 53.475C403.587 57.9104 402.017 62.1361 399.537 65.759C399.142 66.3265 398.884 66.9877 398.787 67.6848C398.69 68.3818 398.757 69.0933 398.982 69.7568V69.9567C399.752 73.0616 394.157 77.3127 386.465 79.4582C378.773 81.6037 371.902 80.7908 371.132 77.7524C371.126 77.6859 371.126 77.619 371.132 77.5525C371.011 76.8422 370.727 76.1741 370.304 75.607C369.881 75.04 369.333 74.5914 368.707 74.301C365.344 72.679 362.363 70.2917 359.978 67.3102C357.594 64.3288 355.864 60.8273 354.914 57.057Z" fill="#FFC305"/>
<path d="M381.173 76.6084C381.095 76.6095 381.018 76.586 380.953 76.5409C380.888 76.4958 380.837 76.4311 380.807 76.3552C380.807 76.2353 375.957 64.3618 369.123 62.4295C369.041 62.404 368.969 62.3516 368.916 62.2797C368.864 62.2078 368.835 62.1202 368.833 62.0297C368.834 61.9368 368.864 61.8468 368.919 61.7743C368.974 61.7017 369.05 61.6509 369.136 61.6299L373.443 60.4172L373.961 56.6593C373.971 56.581 374.003 56.5076 374.052 56.4483C374.101 56.389 374.166 56.3465 374.239 56.3261C374.312 56.3008 374.39 56.2986 374.464 56.3199C374.538 56.3413 374.605 56.3851 374.656 56.4461L378.798 61.5899L379.986 54.9269C380.002 54.8528 380.036 54.7844 380.085 54.7283C380.133 54.6722 380.195 54.6305 380.263 54.6071C380.335 54.5861 380.41 54.5862 380.481 54.6073C380.553 54.6285 380.617 54.6699 380.668 54.727L384.646 59.1779L386.023 53.2211C386.039 53.1442 386.077 53.0741 386.131 53.0196C386.184 52.965 386.253 52.9285 386.326 52.9147C386.398 52.8994 386.472 52.905 386.541 52.9308C386.61 52.9566 386.671 53.0017 386.718 53.0612L388.928 56.0596L393.247 54.8602C393.323 54.8397 393.402 54.8426 393.476 54.8686C393.55 54.8946 393.616 54.9426 393.664 55.0068C393.707 55.0762 393.73 55.1572 393.73 55.24C393.73 55.3229 393.707 55.4039 393.664 55.4733C393.664 55.5665 388.473 64.415 390.759 73.4768C390.767 73.5769 390.742 73.6769 390.687 73.759C390.632 73.8411 390.551 73.9001 390.459 73.9256C390.367 73.9511 390.269 73.9414 390.183 73.8983C390.097 73.8552 390.028 73.7814 389.989 73.69C388.056 65.9609 391.252 58.4183 392.515 55.913L388.839 56.9391C388.764 56.9597 388.685 56.9568 388.611 56.9308C388.537 56.9048 388.471 56.8568 388.423 56.7925L386.591 54.3006L385.24 60.164C385.227 60.2381 385.194 60.3066 385.144 60.3611C385.095 60.4156 385.032 60.4536 384.962 60.4705C384.893 60.492 384.819 60.4921 384.75 60.4709C384.68 60.4496 384.618 60.4079 384.57 60.3506L380.617 55.9397L379.417 62.6027C379.403 62.6788 379.368 62.749 379.318 62.8053C379.267 62.8617 379.203 62.9019 379.132 62.9214C379.06 62.9408 378.986 62.9388 378.915 62.9154C378.845 62.8921 378.783 62.8483 378.735 62.7893L374.618 57.6854L374.188 60.8037C374.178 60.8854 374.145 60.9621 374.093 61.0238C374.042 61.0856 373.973 61.1296 373.898 61.1502L370.563 62.083C377.068 65.0547 381.35 75.5557 381.539 76.0354C381.577 76.1362 381.575 76.2486 381.535 76.3483C381.495 76.448 381.419 76.527 381.324 76.5684L381.173 76.6084Z" fill="#263238"/>
<path opacity="0.2" d="M367.722 33.92C366.623 39.6235 372.017 45.607 379.759 47.2461C387.501 48.8852 394.675 45.6336 395.774 39.93C396.873 34.2265 391.493 28.2431 383.737 26.604C375.982 24.9649 368.821 28.2164 367.722 33.92Z" fill="white"/>
<path opacity="0.2" d="M373.809 52.1475C373.367 54.4395 375.527 56.8382 378.634 57.4779C381.741 58.1175 384.634 56.8249 385.076 54.5328C385.518 52.2407 383.345 49.842 380.238 49.2024C377.131 48.5627 374.251 49.8554 373.809 52.1475Z" fill="white"/>
<path d="M391.454 335.705H364.097C364.025 335.296 364.004 334.88 364.034 334.466C364.098 333.446 364.473 332.475 365.104 331.699C365.735 330.923 366.587 330.384 367.532 330.161C369.566 329.655 372.319 328.655 373.746 326.71C373.833 326.585 373.951 326.488 374.088 326.431C374.224 326.375 374.373 326.36 374.517 326.39C376.614 326.856 384.95 328.535 389.547 326.803C389.659 326.755 389.781 326.737 389.902 326.751C390.022 326.764 390.138 326.808 390.238 326.878C390.339 326.949 390.422 327.045 390.48 327.157C390.538 327.27 390.569 327.395 390.57 327.523C390.663 330.27 390.959 333.006 391.454 335.705Z" fill="#263238"/>
<path d="M371.863 328.616C371.439 328.659 371.011 328.597 370.613 328.438C370.214 328.279 369.856 328.025 369.565 327.697C369.362 327.351 369.363 326.831 369.981 326.364C370.482 326.07 371.071 325.994 371.623 326.151C371.131 325.565 370.79 324.992 370.916 324.579C371.042 324.166 371.333 324.072 371.851 324.059C372.134 324.04 372.419 324.087 372.683 324.197C372.947 324.308 373.185 324.479 373.379 324.699C373.972 325.597 374.245 326.687 374.149 327.777V327.937L374.01 328.03C373.356 328.422 372.616 328.625 371.863 328.616ZM371.118 326.738C370.836 326.73 370.558 326.814 370.322 326.977C370.007 327.191 370.07 327.311 370.095 327.35C370.552 327.695 371.087 327.906 371.646 327.963C372.205 328.019 372.768 327.918 373.278 327.67H373.202C372.607 327.154 371.883 326.83 371.118 326.738ZM371.939 324.712C371.661 324.712 371.585 324.779 371.585 324.779C371.585 325.058 372.444 326.111 373.594 327.057C373.59 326.366 373.378 325.694 372.987 325.138C372.856 324.987 372.693 324.869 372.511 324.795C372.329 324.721 372.133 324.693 371.939 324.712Z" fill="#263238"/>
<path d="M363.642 335.706H336.297C336.227 335.297 336.202 334.881 336.221 334.467C336.285 333.447 336.661 332.476 337.292 331.7C337.922 330.924 338.774 330.385 339.72 330.162C341.766 329.656 344.519 328.656 345.934 326.711C346.022 326.585 346.143 326.487 346.282 326.431C346.42 326.374 346.571 326.36 346.717 326.391C348.814 326.857 357.15 328.536 361.735 326.804C361.848 326.757 361.97 326.739 362.091 326.752C362.212 326.766 362.328 326.809 362.43 326.88C362.531 326.951 362.615 327.046 362.674 327.158C362.734 327.27 362.767 327.395 362.77 327.524C362.862 330.271 363.154 333.006 363.642 335.706Z" fill="#263238"/>
<path d="M343.838 328.621C343.414 328.663 342.986 328.602 342.587 328.443C342.189 328.283 341.83 328.03 341.539 327.701C341.337 327.355 341.337 326.835 341.956 326.369C342.204 326.207 342.481 326.099 342.769 326.051C343.058 326.003 343.352 326.016 343.636 326.089C343.143 325.503 342.802 324.93 342.929 324.517C343.055 324.103 343.345 324.01 343.863 323.997C344.147 323.976 344.432 324.023 344.696 324.134C344.96 324.245 345.198 324.416 345.391 324.636C345.985 325.534 346.257 326.625 346.162 327.715V327.875L346.023 327.968C345.364 328.39 344.609 328.616 343.838 328.621ZM343.093 326.742C342.811 326.735 342.533 326.818 342.297 326.982C341.981 327.195 342.044 327.315 342.07 327.355C342.526 327.7 343.061 327.911 343.62 327.967C344.179 328.023 344.742 327.923 345.253 327.675H345.177C344.578 327.157 343.85 326.832 343.08 326.742H343.093ZM343.914 324.716C343.636 324.716 343.56 324.783 343.56 324.783C343.56 325.063 344.419 326.116 345.568 327.062C345.565 326.37 345.352 325.698 344.962 325.143C344.829 324.989 344.664 324.871 344.48 324.797C344.295 324.723 344.097 324.695 343.901 324.716H343.914Z" fill="#263238"/>
<path d="M477.769 328.203H529.996C534.907 328.203 538.888 324.003 538.888 318.822V227.365C538.888 222.183 534.907 217.983 529.996 217.983H477.769C472.859 217.983 468.878 222.183 468.878 227.365V318.822C468.878 324.003 472.859 328.203 477.769 328.203Z" fill="#263238"/>
<path opacity="0.6" d="M477.769 328.203H529.996C534.907 328.203 538.888 324.003 538.888 318.822V227.365C538.888 222.183 534.907 217.983 529.996 217.983H477.769C472.859 217.983 468.878 222.183 468.878 227.365V318.822C468.878 324.003 472.859 328.203 477.769 328.203Z" fill="white"/>
<path opacity="0.2" d="M483.251 328.206H529.983C532.328 328.206 534.577 327.223 536.235 325.474C537.893 323.724 538.825 321.352 538.825 318.878V227.367C538.825 224.893 537.893 222.521 536.235 220.771C534.577 219.022 532.328 218.039 529.983 218.039H483.251C485.596 218.039 487.845 219.022 489.503 220.771C491.161 222.521 492.092 224.893 492.092 227.367V318.824C492.099 320.054 491.875 321.272 491.434 322.41C490.992 323.548 490.342 324.583 489.521 325.455C488.699 326.327 487.722 327.019 486.646 327.491C485.57 327.963 484.416 328.206 483.251 328.206Z" fill="black"/>
<path d="M547.59 303.502C547.59 303.502 541.591 289.683 548.449 276.063C555.307 262.444 557.29 259.246 552.92 256.461C548.55 253.676 546.542 267.348 546.542 267.348C544.38 261.167 544.155 254.418 545.898 248.092C548.942 238.231 550.849 222.199 546.693 220.467C542.538 218.735 545.91 240.456 542.298 247.892C540.467 242.692 539.282 237.263 538.774 231.741C538.282 223.825 539.052 211.192 535.781 207.954C532.509 204.716 530.4 206.954 533.621 224.412C535.557 234.843 536.626 245.433 536.816 256.061C536.816 256.061 529.693 233.167 524.919 232.487C520.144 231.807 520.144 239.243 524.237 245.68C528.329 252.116 536.21 263.63 537.511 269.56C537.511 269.56 529.693 252.33 522.67 257.567C515.648 262.804 528.784 273.265 534.644 277.023C540.504 280.781 544.571 304.368 544.571 304.368L547.59 303.502Z" fill="#00B47F"/>
<path opacity="0.2" d="M547.59 303.502C547.59 303.502 541.591 289.683 548.449 276.063C555.307 262.444 557.29 259.246 552.92 256.461C548.55 253.676 546.542 267.348 546.542 267.348C544.38 261.167 544.155 254.418 545.898 248.092C548.942 238.231 550.849 222.199 546.693 220.467C542.538 218.735 545.91 240.456 542.298 247.892C540.467 242.692 539.282 237.263 538.774 231.741C538.282 223.825 539.052 211.192 535.781 207.954C532.509 204.716 530.4 206.954 533.621 224.412C535.557 234.843 536.626 245.433 536.816 256.061C536.816 256.061 529.693 233.167 524.919 232.487C520.144 231.807 520.144 239.243 524.237 245.68C528.329 252.116 536.21 263.63 537.511 269.56C537.511 269.56 529.693 252.33 522.67 257.567C515.648 262.804 528.784 273.265 534.644 277.023C540.504 280.781 544.571 304.368 544.571 304.368L547.59 303.502Z" fill="black"/>
<path d="M542.853 309.196C542.853 309.196 548.701 295.284 541.691 281.784C534.681 268.285 532.66 265.1 536.993 262.235C541.325 259.37 543.497 273.029 543.497 273.029C545.591 266.819 545.737 260.064 543.914 253.76C540.756 243.965 538.672 227.947 542.803 226.161C546.933 224.376 543.826 246.151 547.514 253.507C549.289 248.281 550.414 242.834 550.861 237.302C551.265 229.386 550.343 216.766 553.589 213.462C556.835 210.157 558.957 212.382 555.926 229.893C554.111 240.354 553.16 250.961 553.084 261.595C553.084 261.595 559.942 238.581 564.716 237.835C569.491 237.089 569.566 244.498 565.55 251.001C561.533 257.504 553.778 269.151 552.553 275.108C552.553 275.108 560.131 257.784 567.255 262.915C574.379 268.045 561.319 278.706 555.496 282.557C549.673 286.409 545.922 310.049 545.922 310.049L542.853 309.196Z" fill="#00B47F"/>
<path d="M569.794 299.281H521.533L525.449 335.715H565.891L569.794 299.281Z" fill="#263238"/>
<path d="M341 246H136V252.853H341V246Z" fill="#34495E"/>
<path d="M341 250.172H136V252.848H341V250.172Z" fill="#455A64"/>
<path d="M143.353 348.995H140.408L148.985 252.844H156.503L143.353 348.995Z" fill="#455A64"/>
<path d="M156.505 252.844L155.624 259.277H148.414L148.986 252.844H156.505Z" fill="#34495E"/>
<path d="M333.648 348.995H336.592L328.016 252.844H320.497L333.648 348.995Z" fill="#455A64"/>
<path d="M320.497 252.844L321.378 259.277H328.588L328.016 252.844H320.497Z" fill="#34495E"/>
<path d="M277.551 246.236H337V239.978L277.551 237.367V246.236Z" fill="#455A64"/>
<path d="M230.832 246.113H269.986C273.339 246.113 268.499 233.214 256.282 228.261C244.065 223.309 226.977 241.274 230.832 246.113Z" fill="#37474F"/>
<path d="M246.213 246.127C246.287 244.642 246.178 243.15 245.888 241.714C245.594 240.267 245.161 238.878 244.599 237.585C244.023 236.288 243.294 235.128 242.441 234.151C241.6 233.174 240.619 232.445 239.559 232.008C240.388 232.902 241.162 233.884 241.875 234.945C242.56 235.991 243.17 237.121 243.698 238.323C244.748 240.79 245.591 243.407 246.213 246.127Z" fill="#34495E"/>
<path d="M241.573 233.828C240.376 234.203 239.213 234.755 238.105 235.474C236.985 236.178 235.912 237.014 234.899 237.972C233.866 238.936 232.944 240.103 232.165 241.434C231.331 242.732 230.861 244.384 230.834 246.103C231.242 244.596 231.91 243.244 232.783 242.158C233.626 241.048 234.537 240.036 235.507 239.135C237.435 237.248 239.509 235.616 241.573 233.828Z" fill="#34495E"/>
<path d="M202.693 221.126H298.026L282.866 125H187.532L202.693 221.126Z" fill="#455A64"/>
<path d="M199.161 221.126H294.494L279.333 125H184L199.161 221.126Z" fill="#37474F"/>
<path d="M250.584 186.663H252.815L249.421 165.094H247.189L250.584 186.663Z" fill="#34495E"/>
<path d="M246.172 186.663H248.403L245.009 165.094H242.777L246.172 186.663Z" fill="#34495E"/>
<path d="M241.761 186.663H243.992L240.598 165.094H238.366L241.761 186.663Z" fill="#34495E"/>
<path d="M237.341 186.663H239.583L236.188 165.094H233.957L237.341 186.663Z" fill="#34495E"/>
<path d="M232.929 186.663H235.171L231.776 165.094H229.534L232.929 186.663Z" fill="#34495E"/>
<path d="M228.517 186.663H230.759L227.364 165.094H225.122L228.517 186.663Z" fill="#34495E"/>
<path d="M224.105 186.663H226.348L222.953 165.094H220.711L224.105 186.663Z" fill="#34495E"/>
<path d="M226.121 246.254H273.018V241.315L226.121 239.258V246.254Z" fill="#455A64"/>
<path d="M213.378 246.226H238.555L253.716 192.359H228.539L213.378 246.226Z" fill="#455A64"/>
<path d="M209.23 246.226H234.407L249.567 192.359H224.39L209.23 246.226Z" fill="#34495E"/>
</g>
<defs>
<clipPath id="clip0_2486_33965">
<rect width="690" height="350" fill="white"/>
</clipPath>
</defs>
</svg>
