<svg width="690" height="350" viewBox="0 0 690 350" fill="none" xmlns="http://www.w3.org/2000/svg">
<g clip-path="url(#clip0_3196_3334)">
<path d="M396.149 342.201C396.149 342.958 395.081 343.706 393.096 344.404C386.586 346.692 370.169 348.551 348.967 349.45C344.476 349.627 339.783 349.77 334.922 349.871C330.414 349.955 325.763 350.005 321.012 350.005C284.511 350.005 254.091 347.306 247.296 343.723C246.362 343.235 245.883 342.739 245.883 342.218C245.883 341.696 246.556 341.015 247.826 340.451C252.031 338.559 262.829 336.944 277.539 335.859L281.433 335.59C286.656 335.254 292.299 334.985 298.253 334.791C305.419 334.556 313.064 334.43 320.961 334.43C337.925 334.43 353.568 335.01 366.141 335.986C378.714 336.961 388.352 338.357 393.012 339.93C395.081 340.67 396.149 341.427 396.149 342.201Z" fill="#FFB990"/>
<path opacity="0.43" d="M409.647 115.361C462.299 142.912 502.393 188.664 515.42 240.351C528.446 292.037 513.47 348.895 473.259 389.11C427.9 434.556 351.769 455.716 283.847 441.742C263.742 437.839 244.968 430.55 228.835 420.384C206.371 405.845 190.497 384.991 178.757 363.083C151.684 311.758 144.964 255.251 159.471 200.899C167.954 169.427 184.179 138.626 211.616 116.428C265.224 73.0259 351.203 84.7575 409.647 115.361Z" fill="#FF9C87"/>
<path d="M306.26 314.698C306.26 314.698 306.041 318.844 305.789 323.427C305.486 328.76 305.133 334.664 304.998 335.252C304.754 336.362 275.377 350.34 274.377 348.154C273.376 345.967 284.418 330.879 285.167 328.945C285.529 328.003 285.907 324.512 286.193 321.174C286.479 317.7 286.681 314.445 286.681 314.445L306.26 314.698Z" fill="#FEE9E8"/>
<path d="M305.789 323.434C305.486 328.766 305.133 334.67 304.998 335.259C304.754 336.369 275.377 350.347 274.377 348.16C273.376 345.974 284.418 330.886 285.167 328.951C285.529 328.009 285.907 324.519 286.193 321.18C286.505 321.055 286.84 320.997 287.177 321.01C287.513 321.023 287.843 321.107 288.144 321.256C289.692 322.055 289.742 324.216 290.482 325.789C295.65 325.516 300.778 324.727 305.789 323.434Z" fill="#324D63"/>
<path d="M341.258 316.323L341.695 324.002L342.435 337.13C342.435 337.13 377.758 342.277 378.423 340.873C379.087 339.468 360.433 325.675 360.433 325.675L359.945 322.235L359.02 315.625L341.258 316.323Z" fill="#FEE9E8"/>
<path d="M341.672 323.997L342.412 337.126C342.412 337.126 377.735 342.273 378.399 340.868C379.064 339.464 360.41 325.671 360.41 325.671L359.922 322.231C359.615 322.119 359.284 322.095 358.964 322.162C358.644 322.229 358.35 322.384 358.114 322.609C357.391 323.4 357.735 324.662 357.407 325.671C356.81 325.318 355.81 325.469 355.111 325.393L341.672 323.997Z" fill="#324D63"/>
<path d="M307.542 53.9297C305.37 54.9988 303.659 56.8173 302.724 59.0494C301.789 61.2815 301.693 63.7766 302.453 66.0741C302.856 67.1916 303.372 68.2652 303.992 69.2784C306.986 74.4242 310.705 79.112 315.035 83.1973C316.004 78.8488 316.533 74.414 316.616 69.9596C316.692 66.687 316.069 63.4359 314.791 60.4224C313.297 57.4083 310.702 55.0837 307.542 53.9297Z" fill="#240A19"/>
<path d="M307.612 53.9827C307.362 53.0369 307.359 52.0429 307.602 51.0955C307.845 50.148 308.327 49.2787 309.002 48.5704C309.676 47.862 310.521 47.3383 311.456 47.049C312.39 46.7598 313.383 46.7147 314.34 46.918C314.603 45.8488 315.114 44.8564 315.832 44.0209C316.549 43.1853 317.452 42.5298 318.469 42.1074C320.565 41.1814 322.893 40.9124 325.145 41.3358C327.397 41.7592 329.468 42.8551 331.085 44.4791C332.653 43.9625 334.316 43.8016 335.954 44.0081C337.525 44.2112 338.968 44.9832 340.008 46.1779C340.732 47.151 341.174 48.3047 341.285 49.5123C341.396 50.72 341.173 51.9349 340.639 53.0239C339.52 55.1915 337.679 56.8994 335.433 57.8514C333.198 58.7857 330.842 59.3974 328.435 59.668C325.744 60.1479 323.001 60.2723 320.278 60.038C315.585 59.5082 311.371 56.7833 307.612 53.9827Z" fill="#240A19"/>
<path d="M311.961 78.6875L313.971 91.7066L332.97 91.1767L331.851 86.837L330.884 83.0356L313.601 79.066L311.961 78.6875Z" fill="#FF836D"/>
<g style="mix-blend-mode:color-burn" opacity="0.33">
<path d="M313.594 79.0703C313.769 80.8534 314.38 82.566 315.373 84.0575C316.366 85.5489 317.71 86.7735 319.288 87.6235C320.923 88.4675 322.724 88.9433 324.564 89.0174C326.403 89.0915 328.236 88.7621 329.935 88.0524C330.648 87.793 331.299 87.386 331.844 86.8582L330.877 83.0568L313.594 79.0703Z" fill="#FF836D"/>
</g>
<path d="M336.76 59.7564C335.664 56.3918 333.425 53.5172 330.431 51.6321C327.436 49.7469 323.876 48.9702 320.368 49.437L319.595 49.5463C311.605 50.8836 305.97 58.007 306.887 65.8118C307.233 68.6819 308.441 71.3797 310.352 73.5492C312.337 82.8004 319.544 88.4269 330.377 85.3992C343.539 81.7408 336.76 59.7564 336.76 59.7564Z" fill="#FF836D"/>
<path d="M324.562 67.643C324.604 67.9325 324.559 68.2279 324.433 68.4919C324.307 68.7558 324.106 68.9765 323.854 69.1261C323.603 69.2757 323.313 69.3474 323.021 69.3323C322.729 69.3172 322.448 69.2158 322.213 69.0411C321.979 68.8663 321.801 68.626 321.703 68.3505C321.605 68.0749 321.591 67.7764 321.662 67.4928C321.733 67.2091 321.887 66.953 322.104 66.7567C322.321 66.5604 322.591 66.4328 322.88 66.3899C323.269 66.3345 323.665 66.4351 323.98 66.6699C324.295 66.9046 324.504 67.2544 324.562 67.643Z" fill="#240A19"/>
<path d="M335.25 65.2932C335.288 65.5589 335.247 65.83 335.131 66.0724C335.016 66.3148 334.831 66.5176 334.601 66.6555C334.371 66.7933 334.105 66.86 333.836 66.8471C333.568 66.8343 333.31 66.7425 333.094 66.5833C332.877 66.424 332.713 66.2045 332.621 65.9521C332.529 65.6998 332.514 65.426 332.577 65.1651C332.641 64.9041 332.78 64.6677 332.977 64.4855C333.174 64.3033 333.421 64.1834 333.686 64.141C333.864 64.1135 334.046 64.1215 334.222 64.1646C334.397 64.2077 334.562 64.285 334.707 64.3921C334.853 64.4991 334.976 64.6339 335.069 64.7885C335.162 64.9431 335.224 65.1146 335.25 65.2932Z" fill="#240A19"/>
<path d="M329.172 65.6328C330.6 66.5184 331.763 67.7737 332.536 69.266C332.686 69.56 332.772 69.8824 332.788 70.212C332.805 70.5416 332.751 70.871 332.631 71.1784C332.511 71.4859 332.328 71.7644 332.092 71.9958C331.857 72.2272 331.575 72.4061 331.266 72.5208" stroke="#0E1219" stroke-width="0.49" stroke-linecap="round" stroke-linejoin="round"/>
<path d="M329.164 72.64C329.24 72.4981 329.34 72.3702 329.458 72.2615C329.507 72.221 329.564 72.1911 329.624 72.1737C329.685 72.1563 329.749 72.1519 329.812 72.1606C330.03 72.211 330.114 72.4718 330.173 72.6652" stroke="#0E1219" stroke-width="0.49" stroke-linecap="round" stroke-linejoin="round"/>
<path d="M331.165 75.35C330.711 75.0356 330.173 74.8672 329.621 74.8672C329.07 74.8672 328.531 75.0356 328.078 75.35" stroke="#0E1219" stroke-width="0.38" stroke-linecap="round" stroke-linejoin="round"/>
<path d="M319.299 65.0463C319.289 65.194 319.314 65.342 319.373 65.478C319.431 65.614 319.521 65.7341 319.635 65.8284C319.788 65.9202 319.957 65.9802 320.134 66.0048C320.31 66.0293 320.49 66.018 320.661 65.9714C321.604 65.8017 322.48 65.3671 323.185 64.7183C323.415 64.5425 323.566 64.2823 323.605 63.995C323.605 63.0362 322.083 62.3718 321.284 62.6241C320.777 62.8304 320.33 63.16 319.984 63.5831C319.637 64.0061 319.402 64.5091 319.299 65.0463Z" fill="#240A19"/>
<path d="M335.611 61.6456C335.673 61.7651 335.706 61.8978 335.706 62.0324C335.706 62.1671 335.673 62.2998 335.611 62.4193C335.427 62.6855 335.147 62.8695 334.829 62.9323C334.005 63.173 333.13 63.173 332.306 62.9323C332.179 62.9073 332.059 62.8572 331.952 62.785C331.845 62.7127 331.754 62.6199 331.684 62.5118C331.288 61.7465 332.281 60.6027 333.021 60.4934C333.514 60.4549 334.01 60.5402 334.462 60.7413C334.914 60.9425 335.309 61.2533 335.611 61.6456Z" fill="#240A19"/>
<path d="M309.043 69.411C307.268 69.5203 305.392 70.1763 304.425 71.6733C303.256 73.4899 303.879 76.0803 305.46 77.5605C306.29 78.2546 307.253 78.774 308.289 79.0875C309.325 79.4011 310.414 79.5025 311.49 79.3855C311.979 79.405 312.466 79.3137 312.914 79.1186C313.363 78.9234 313.761 78.6294 314.08 78.2585C314.28 77.9313 314.414 77.5686 314.476 77.1904C314.852 75.1555 314.576 73.0536 313.685 71.1855C312.92 69.5371 310.657 69.31 309.043 69.411Z" fill="#FF836D"/>
<path d="M308.352 73.3203C308.902 73.4755 309.41 73.7527 309.838 74.1313C310.266 74.5099 310.603 74.9801 310.824 75.507" stroke="#0E1219" stroke-width="0.49" stroke-linecap="round" stroke-linejoin="round"/>
<path d="M307.135 69.7042C309.176 69.6121 311.213 69.974 313.098 70.7638C313.578 69.7223 313.782 68.5744 313.689 67.4312C313.596 66.2879 313.21 65.1879 312.568 64.2375C314.191 63.4469 314.965 61.7144 315.427 59.9735C315.615 59.3277 315.719 58.6608 315.739 57.9887C315.758 57.0195 315.497 56.0654 314.988 55.2404C314.479 54.4154 313.743 53.7544 312.868 53.3366C311.994 52.9187 311.017 52.7617 310.056 52.8842C309.094 53.0067 308.188 53.4036 307.446 54.0275C305.823 55.3563 305.175 57.5429 304.965 59.6287C304.62 63.0685 305.655 66.6008 307.135 69.7042Z" fill="#240A19"/>
<path d="M310.375 69.7296C311.261 70.7192 311.964 71.8582 312.452 73.0937C313.037 71.9619 313.437 70.7439 313.638 69.4857C313.763 68.932 313.763 68.3574 313.638 67.8037C313.576 67.5309 313.446 67.278 313.261 67.068C313.076 66.858 312.841 66.6975 312.578 66.601C312.264 66.5401 311.939 66.5702 311.641 66.6879C311.343 66.8056 311.084 67.006 310.896 67.2654C310.476 67.77 310.526 69.1241 310.375 69.7296Z" fill="#240A19"/>
<path d="M311.742 52.8769C312.074 53.2121 312.484 53.4581 312.936 53.5917C314.366 54.1579 315.89 54.4434 317.428 54.4327C318.974 54.4153 320.465 53.849 321.633 52.8348C324.331 54.3931 327.442 55.0887 330.548 54.828C331.767 54.7187 333.155 54.3234 333.642 53.1964C333.806 52.6441 333.809 52.0566 333.651 51.5027C333.493 50.9487 333.181 50.451 332.751 50.0678C331.761 49.086 330.558 48.3462 329.236 47.9064C326.194 46.7931 322.892 46.5971 319.74 47.3429C316.62 48.041 313.937 50.5304 311.742 52.8769Z" fill="#240A19"/>
<path d="M313.863 90.2367C313.863 90.2367 323.787 93.6008 332.24 88.5547C339.681 90.5808 346.793 93.6652 353.358 97.7134L355.326 161.497C355.326 161.497 313.367 168.957 298.136 160.656L295.672 102.356L313.863 90.2367Z" fill="#FEE9E8"/>
<path d="M296.199 157.992C296.199 157.992 287.183 244.525 286.906 256.594C286.628 268.663 284.383 320.453 284.383 320.453L308.041 321.042L324.357 210.413L338.999 318.729L362.657 319.023L355.332 161.752L296.199 157.992Z" fill="#FF8F33"/>
<path d="M293.359 162.18C315.232 165.759 337.443 166.817 359.556 165.334" stroke="#0E1219" stroke-width="0.38" stroke-linecap="round" stroke-linejoin="round"/>
<path d="M333.599 160.242L333.423 166.02C333.322 169.157 333.557 172.16 333.633 175.271C333.666 175.785 333.626 176.3 333.515 176.802C333.346 177.416 332.965 177.949 332.439 178.307C332.134 178.529 331.764 178.641 331.388 178.627C331.099 178.584 330.828 178.464 330.603 178.279C330.377 178.093 330.207 177.85 330.109 177.576C329.914 177.023 329.823 176.438 329.84 175.852L329.672 170.805" stroke="#0E1219" stroke-width="0.38" stroke-linecap="round" stroke-linejoin="round"/>
<path d="M331.507 162.886C331.509 163.201 331.417 163.509 331.243 163.771C331.07 164.034 330.822 164.239 330.532 164.36C330.241 164.482 329.922 164.515 329.613 164.454C329.304 164.394 329.02 164.243 328.797 164.021C328.574 163.799 328.421 163.516 328.359 163.207C328.297 162.899 328.328 162.579 328.448 162.288C328.568 161.997 328.772 161.748 329.034 161.573C329.295 161.398 329.603 161.305 329.918 161.305C330.338 161.305 330.741 161.471 331.039 161.767C331.336 162.064 331.505 162.466 331.507 162.886Z" stroke="#0E1219" stroke-width="0.38" stroke-linecap="round" stroke-linejoin="round"/>
<path d="M333.086 190.102L324.356 210.37L308.023 321.041" stroke="#0E1219" stroke-width="0.52" stroke-linecap="round" stroke-linejoin="round"/>
<path d="M327.172 204.602L343.008 318.653" stroke="#0E1219" stroke-width="0.38" stroke-linecap="round" stroke-linejoin="round"/>
<path d="M315.055 174.746C314.214 192.349 312.801 202.635 312.801 202.635C307.922 203.971 302.81 204.222 297.823 203.37C292.837 202.519 288.097 200.585 283.938 197.706C283.938 197.706 296.048 151.66 294.921 141.097C293.794 130.534 293.794 103.932 293.794 103.932C297.146 100.807 300.74 97.9526 304.543 95.3957L304.837 95.1938C307.177 93.6167 309.681 92.297 312.305 91.2578C312.305 91.2578 315.896 157.152 315.055 174.746Z" fill="#324D63"/>
<path d="M323.758 145.005L299.889 146.166C299.992 146.32 300.057 146.495 300.08 146.679C300.103 146.862 300.084 147.049 300.022 147.223C299.961 147.398 299.86 147.555 299.728 147.684C299.595 147.813 299.435 147.91 299.259 147.966C297.888 148.597 292.53 148.067 293.657 144.602C293.423 144.146 293.293 143.645 293.275 143.133C293.258 142.621 293.354 142.112 293.556 141.641C293.412 141.117 293.394 140.567 293.504 140.035C293.614 139.503 293.848 139.004 294.187 138.58C294.187 138.58 293.868 136.578 295.138 135.939C296.407 135.3 322.891 133.938 322.891 133.938L323.758 145.005Z" fill="#FF836D"/>
<path d="M362.369 201.918C349.274 208.116 338.82 201.783 338.82 201.783L336.213 129.674V129.043L334.758 88.9766L343.387 92.8369L343.967 93.0976L354.505 97.8073L362.369 201.918Z" fill="#324D63"/>
<path d="M308.765 98.5522C306.549 100.688 304.724 103.196 303.374 105.962L305.947 109.048L308.605 112.236C308.62 112.25 308.632 112.267 308.64 112.286C308.648 112.304 308.652 112.325 308.652 112.345C308.652 112.365 308.648 112.386 308.64 112.404C308.632 112.423 308.62 112.44 308.605 112.454C308.57 112.466 308.531 112.466 308.496 112.454C308.472 112.455 308.448 112.45 308.426 112.439C308.404 112.429 308.385 112.414 308.37 112.395L305.72 109.208L303.088 106.054C303.071 106.029 303.063 106 303.062 105.97C303.062 105.94 303.071 105.911 303.088 105.886C304.291 102.993 306.452 100.478 308.471 98.3924C307.309 97.2313 306.006 96.2198 304.593 95.3815L304.888 95.1797C306.315 96.0483 307.631 97.0876 308.807 98.2747C308.83 98.292 308.848 98.3152 308.858 98.3418C308.869 98.3685 308.873 98.3975 308.868 98.4259C308.864 98.4543 308.852 98.481 308.834 98.5033C308.816 98.5255 308.792 98.5424 308.765 98.5522Z" fill="#0E1219"/>
<path d="M317.555 148.172C317.555 148.172 344.838 153.941 358.285 149.299" stroke="#0E1219" stroke-width="0.38" stroke-linecap="round" stroke-linejoin="round"/>
<path d="M293.802 103.93C293.802 103.93 277.613 119.581 286.763 138C294.87 154.341 312.246 140.674 315.206 137.579C318.167 134.484 325.484 117.722 325.484 117.722L312.952 107.866L303.239 115.191L293.802 103.93Z" fill="#324D63"/>
<path d="M313.125 108.294C313.125 108.294 321.779 98.2604 322.099 97.411C322.418 96.5616 323.579 84.3162 324.622 83.4752C325.665 82.6342 332.864 79.6738 333.705 81.3642C333.705 81.3642 336.135 81.154 336.346 82.9454C336.346 82.9454 338.987 82.9454 338.869 84.5265C339.524 85.5454 339.954 86.6923 340.13 87.8906C340.13 89.2699 338.129 91.5911 336.968 91.4818C336.968 91.4818 336.968 96.1326 335.168 98.6641C333.368 101.196 328.095 105.392 328.095 105.392L322.074 114.997L313.125 108.294Z" fill="#FF836D"/>
<path d="M322.102 97.7123C322.102 97.7123 323.531 84.8278 324.625 83.5074C325.718 82.1869 333.035 78.6462 334.027 81.2366C334.027 81.2366 336.138 81.0768 336.349 82.9775C336.349 82.9775 338.67 82.8766 338.872 84.5586C338.872 84.5586 340.402 86.8883 340.083 88.3685C339.763 89.8487 338.502 91.5307 336.971 91.5307" stroke="#0E1219" stroke-width="0.38" stroke-linecap="round" stroke-linejoin="round"/>
<path d="M334.148 81.1719C332.119 81.5364 330.157 82.2056 328.328 83.1567" stroke="#0E1219" stroke-width="0.38" stroke-linecap="round" stroke-linejoin="round"/>
<path d="M336.522 82.9922C334.442 83.1678 332.405 83.6849 330.492 84.5229" stroke="#0E1219" stroke-width="0.38" stroke-linecap="round" stroke-linejoin="round"/>
<path d="M338.96 84.6406C336.738 84.9188 334.561 85.4842 332.484 86.3227" stroke="#0E1219" stroke-width="0.38" stroke-linecap="round" stroke-linejoin="round"/>
<path d="M334.117 99.9327C335.047 99.0534 335.751 97.9629 336.169 96.7536C336.851 94.7772 336.716 92.6074 337.195 90.5805C337.3 89.9371 337.613 89.3461 338.087 88.8984" stroke="#0E1219" stroke-width="0.38" stroke-linecap="round" stroke-linejoin="round"/>
<path d="M297.281 122.552L313.017 108.188L325.481 117.725" stroke="#0E1219" stroke-width="0.38" stroke-linecap="round" stroke-linejoin="round"/>
<path d="M307.375 113.305C313.262 115.962 318.83 119.402 322.404 124.793" stroke="#0E1219" stroke-width="0.38" stroke-linecap="round" stroke-linejoin="round"/>
<path d="M285.68 135.839C289.003 135.429 292.372 136.073 295.309 137.681C296.763 138.494 298.04 139.588 299.066 140.899C300.093 142.21 300.849 143.712 301.289 145.317" stroke="#0E1219" stroke-width="0.38" stroke-linecap="round" stroke-linejoin="round"/>
<path d="M354.45 97.8438C354.45 97.8438 364.164 102.772 367.259 118.398C370.354 134.025 366.973 145.824 356.561 150.214C347.546 154.016 317.555 148.213 317.555 148.213L318.261 133.074L349.665 126.985L354.45 97.8438Z" fill="#324D63"/>
<path d="M318.266 133.033L349.35 127.297" stroke="#0E1219" stroke-width="0.38" stroke-linecap="round" stroke-linejoin="round"/>
<path d="M347.648 127.444C347.71 122.785 347.951 118.137 348.372 113.5" stroke="#0E1219" stroke-width="0.38" stroke-linecap="round" stroke-linejoin="round"/>
<path d="M354.211 150.189C355.163 147.235 356.863 144.578 359.146 142.475C361.429 140.372 364.216 138.895 367.238 138.188" stroke="#0E1219" stroke-width="0.38" stroke-linecap="round" stroke-linejoin="round"/>
<path d="M347.026 105.97L336.328 129.628C336.321 129.647 336.309 129.663 336.295 129.676C336.28 129.689 336.263 129.699 336.244 129.704H336.176C336.155 129.711 336.131 129.711 336.109 129.704C336.089 129.695 336.072 129.682 336.057 129.666C336.043 129.65 336.032 129.631 336.024 129.611C336.017 129.59 336.014 129.569 336.016 129.547C336.018 129.526 336.024 129.505 336.033 129.485L336.227 129.073L346.689 105.937L340.138 98.6871C340.11 98.6539 340.096 98.6123 340.096 98.5693C340.106 98.5245 340.13 98.4837 340.163 98.4516L344.831 94.8184L343.401 92.8672L343.981 93.1279L345.175 94.7511C345.19 94.7659 345.202 94.7836 345.21 94.8031C345.219 94.8226 345.223 94.8435 345.223 94.8646C345.223 94.8857 345.219 94.9066 345.21 94.9261C345.202 94.9456 345.19 94.9633 345.175 94.9782L340.525 98.603L347.026 105.794C347.042 105.82 347.051 105.851 347.051 105.882C347.051 105.913 347.042 105.944 347.026 105.97Z" fill="#0E1219"/>
<path d="M474.694 48.0968C478.703 29.5511 466.92 11.2663 448.374 7.2566C429.828 3.24688 411.543 15.0306 407.534 33.5763C403.524 52.122 415.308 70.4068 433.853 74.4165C452.399 78.4262 470.684 66.6425 474.694 48.0968Z" fill="#FEE9E8"/>
<path d="M368.152 46.7812C369.458 46.7812 370.516 45.7232 370.516 44.418C370.516 43.1128 369.458 42.0547 368.152 42.0547C366.847 42.0547 365.789 43.1128 365.789 44.418C365.789 45.7232 366.847 46.7812 368.152 46.7812Z" fill="#FEE9E8"/>
<path d="M337.504 43.8047C338.809 43.8047 339.867 42.7466 339.867 41.4414C339.867 40.1362 338.809 39.0781 337.504 39.0781C336.199 39.0781 335.141 40.1362 335.141 41.4414C335.141 42.7466 336.199 43.8047 337.504 43.8047Z" fill="#FEE9E8"/>
<path d="M332.842 49.5283C334.106 49.5283 335.13 48.5041 335.13 47.2407C335.13 45.9773 334.106 44.9531 332.842 44.9531C331.579 44.9531 330.555 45.9773 330.555 47.2407C330.555 48.5041 331.579 49.5283 332.842 49.5283Z" fill="#FEE9E8"/>
<path d="M276.691 83.0783L276.464 83.2634C276.328 83.3225 276.178 83.3442 276.03 83.3265C275.882 83.3088 275.742 83.2522 275.623 83.1624C274.753 82.4893 274.049 81.6263 273.563 80.6394C272.486 78.3265 273.378 76.224 274.303 74.0289C274.656 73.2372 274.938 72.4153 275.144 71.5731C275.244 71.0793 275.195 70.5666 275.001 70.1013C274.429 68.865 273.092 68.7557 271.94 69.2603C270.673 69.9498 269.66 71.0252 269.047 72.33C268.956 72.4854 268.825 72.6133 268.668 72.7001C268.569 72.7437 268.461 72.7611 268.353 72.7508C268.246 72.7405 268.143 72.7028 268.054 72.6412L266.17 71.5143C266.024 71.4401 265.91 71.3142 265.851 71.161C265.805 71.0518 265.781 70.9346 265.781 70.8162C265.781 70.6978 265.805 70.5806 265.851 70.4714C266.771 68.4045 268.4 66.7343 270.443 65.7616C273.706 64.2478 277.104 65.0131 278.634 68.2847C279.601 70.3705 279.223 72.1618 278.449 74.256L278.113 75.1391C277.769 75.8942 277.488 76.6762 277.272 77.4771C277.142 77.9836 277.184 78.5188 277.389 78.9994C277.633 79.4844 277.967 79.9184 278.373 80.2777C278.449 80.3527 278.514 80.4376 278.567 80.53C278.623 80.6418 278.641 80.7689 278.617 80.8917C278.582 81.0214 278.519 81.1419 278.432 81.2449L276.691 83.0783ZM276.868 88.915C276.709 88.5672 276.619 88.1913 276.605 87.809C276.591 87.4266 276.653 87.0452 276.786 86.6866C276.92 86.328 277.123 85.9993 277.384 85.7193C277.645 85.4393 277.958 85.2135 278.306 85.0547C278.654 84.8699 279.036 84.7579 279.429 84.7255C279.822 84.6932 280.217 84.7413 280.591 84.8668C280.965 84.9923 281.309 85.1927 281.603 85.4556C281.896 85.7185 282.133 86.0385 282.299 86.3961C282.465 86.7536 282.556 87.1412 282.568 87.5352C282.579 87.9292 282.509 88.3214 282.364 88.6877C282.219 89.0541 282 89.387 281.722 89.6661C281.443 89.9452 281.111 90.1647 280.745 90.3111C280.399 90.4746 280.024 90.5681 279.642 90.5864C279.259 90.6046 278.877 90.5473 278.517 90.4176C278.157 90.2879 277.826 90.0884 277.543 89.8306C277.26 89.5728 277.031 89.2616 276.868 88.915Z" fill="#FEE9E8"/>
<path d="M376.299 173.234C376.606 172.53 377.179 171.977 377.893 171.694C378.607 171.412 379.404 171.425 380.109 171.729C380.471 171.867 380.801 172.076 381.081 172.344C381.36 172.612 381.583 172.933 381.736 173.289C381.889 173.645 381.969 174.027 381.972 174.415C381.974 174.802 381.899 175.185 381.75 175.543C381.601 175.901 381.383 176.225 381.106 176.496C380.83 176.767 380.502 176.981 380.142 177.123C379.782 177.265 379.397 177.334 379.01 177.325C378.623 177.315 378.242 177.229 377.889 177.069C377.529 176.927 377.201 176.713 376.925 176.441C376.65 176.17 376.431 175.846 376.283 175.488C376.135 175.13 376.06 174.747 376.063 174.36C376.065 173.972 376.146 173.59 376.299 173.234ZM380.504 169.155L380.21 169.113C380.069 169.053 379.948 168.955 379.859 168.83C379.77 168.706 379.717 168.559 379.705 168.407C379.604 167.315 379.76 166.215 380.159 165.194C381.135 162.848 383.288 162.074 385.534 161.275C386.347 160.988 387.135 160.634 387.888 160.215C388.313 159.952 388.649 159.568 388.856 159.114C389.377 157.852 388.553 156.801 387.375 156.305C386.014 155.846 384.542 155.828 383.17 156.254C383 156.305 382.819 156.305 382.649 156.254C382.551 156.209 382.465 156.14 382.401 156.053C382.336 155.966 382.294 155.865 382.279 155.758L381.833 153.613C381.776 153.459 381.776 153.289 381.833 153.134C381.882 153.026 381.951 152.928 382.038 152.848C382.125 152.767 382.226 152.704 382.338 152.663C384.481 151.945 386.811 152.016 388.906 152.865C392.27 154.244 393.952 157.272 392.573 160.619C391.69 162.747 390.117 163.68 388.048 164.513L387.207 164.875C386.42 165.132 385.658 165.459 384.928 165.85C384.465 166.096 384.098 166.489 383.885 166.969C383.692 167.473 383.598 168.01 383.608 168.55C383.601 168.658 383.584 168.765 383.557 168.869C383.506 168.982 383.424 169.078 383.322 169.147C383.203 169.212 383.07 169.249 382.935 169.256L380.504 169.155Z" fill="#FEE9E8"/>
<path opacity="0.43" d="M392.648 259.944L401.521 246.773L408.106 260.81L392.648 259.944Z" fill="#FFB990"/>
<path d="M400.367 46.252C400.966 42.3449 398.284 38.6918 394.377 38.0925C390.47 37.4933 386.817 40.1748 386.218 44.0819C385.619 47.9889 388.3 51.642 392.207 52.2413C396.114 52.8406 399.767 50.1591 400.367 46.252Z" fill="#FEE9E8"/>
<path d="M428.587 36.9098C428.587 30.891 434.731 26.0579 442.11 26.4787C448.263 26.8333 453.277 30.9154 453.798 36.0058C454.092 38.9022 452.958 41.576 450.917 43.5997C449.056 45.446 448.04 47.7756 448.04 50.1783V51.6108H434.387V50.1783C434.387 47.7756 433.375 45.4495 431.514 43.6066C429.687 41.7916 428.587 39.4585 428.587 36.9098Z" fill="#FFB701" stroke="#263238" stroke-miterlimit="10"/>
<path opacity="0.44" d="M441.226 44.2615C436.802 44.2615 433.217 41.2928 433.217 37.6307C433.217 33.9687 436.802 31 441.226 31C445.649 31 449.234 33.9687 449.234 37.6307C449.234 41.2928 445.649 44.2615 441.226 44.2615Z" fill="white"/>
<path d="M434.378 51.625H448.031V54.4206H434.378V51.625Z" fill="#7D7D7D" stroke="#263238" stroke-miterlimit="10" stroke-linecap="round" stroke-linejoin="round"/>
<path d="M436.376 57.2131H446.06C447.157 57.2131 448.047 56.476 448.047 55.5684V54.4141H434.394V55.5684C434.389 56.476 435.28 57.2131 436.376 57.2131Z" fill="#7D7D7D" stroke="#263238" stroke-miterlimit="10" stroke-linecap="round" stroke-linejoin="round"/>
<path d="M438.799 60.0065H443.621C445.107 60.0065 446.312 59.0086 446.312 57.7777V57.2109H436.107V57.7777C436.107 59.0086 437.313 60.0065 438.799 60.0065Z" fill="white" stroke="#263238" stroke-miterlimit="10" stroke-linecap="round" stroke-linejoin="round"/>
<path d="M426.789 36.9531H421.002" stroke="#263238" stroke-miterlimit="10" stroke-linecap="round" stroke-linejoin="round"/>
<path d="M461.953 36.9531H456.095" stroke="#263238" stroke-miterlimit="10" stroke-linecap="round" stroke-linejoin="round"/>
<path d="M441.469 24.8018V20" stroke="#263238" stroke-miterlimit="10" stroke-linecap="round" stroke-linejoin="round"/>
<path d="M430.992 28.2754L426.998 24.9688" stroke="#263238" stroke-miterlimit="10" stroke-linecap="round" stroke-linejoin="round"/>
<path d="M455.953 48.9491L451.9 45.5938" stroke="#263238" stroke-miterlimit="10" stroke-linecap="round" stroke-linejoin="round"/>
<path d="M452.073 28.1816L455.953 24.9688" stroke="#263238" stroke-miterlimit="10" stroke-linecap="round" stroke-linejoin="round"/>
<path d="M427.003 48.9489L430.867 45.75" stroke="#263238" stroke-miterlimit="10" stroke-linecap="round" stroke-linejoin="round"/>
</g>
<defs>
<clipPath id="clip0_3196_3334">
<rect width="690" height="350" fill="white"/>
</clipPath>
</defs>
</svg>
