<svg width="690" height="350" viewBox="0 0 690 350" fill="none" xmlns="http://www.w3.org/2000/svg">
<g clip-path="url(#clip0_2194_221)">
<path d="M274.457 142.137C291.147 130.983 306.595 117.535 326.15 111.958C384.241 95.3483 430.299 152.301 461.649 192.571C480.536 216.81 503.815 249.185 495.124 281.971C473.396 363.839 343.842 354.978 282.169 340.541C237.281 330.039 174.176 307.369 155.695 259.929C144.784 231.899 159.468 202.059 181.028 183.976C203.711 164.927 232.196 164.082 257.6 151.963C263.474 149.162 269.037 145.782 274.457 142.137Z" fill="#B5DDD4"/>
<path d="M398.457 148.137C415.147 136.983 430.595 123.535 450.15 117.958C508.241 101.348 554.299 158.301 585.649 198.571C604.536 222.81 627.815 255.185 619.124 287.971C597.396 369.839 467.842 360.978 406.169 346.541C361.281 336.039 298.176 313.369 279.695 265.929C268.784 237.899 283.468 208.059 305.028 189.976C327.711 170.927 356.196 170.082 381.6 157.963C387.474 155.162 393.037 151.782 398.457 148.137Z" fill="#B5DDD4"/>
<path d="M152.457 159.137C169.147 147.983 184.595 134.535 204.15 128.958C262.241 112.348 308.299 169.301 339.649 209.571C358.536 233.81 381.815 266.185 373.124 298.971C351.396 380.839 221.842 371.978 160.169 357.541C115.281 347.039 52.1757 324.369 33.6953 276.929C22.7837 248.899 37.4678 219.059 59.0283 200.976C81.711 181.927 110.196 181.082 135.6 168.963C141.474 166.162 147.037 162.782 152.457 159.137Z" fill="#B5DDD4"/>
<path d="M365.178 215.96C364.131 214.617 344.095 166.461 344.095 166.461C344.095 166.461 334.737 166.962 328.566 183.56C322.419 200.159 299.172 272.7 299.172 272.7L321.667 286.725L335.647 280.942L365.178 215.96Z" fill="#EF8425"/>
<path d="M472.916 288.934H357.911C357.911 288.934 341.495 255.691 339.036 226.32C337.328 206.101 339.036 169.215 344.091 166.438C346.276 165.231 353.062 163.068 360.074 160.859C360.279 172.722 371.8 191.574 387.374 196.31C401.491 200.591 427.401 177.572 438.74 166.734C449.191 173.542 459.505 180.486 461.509 183.947C464.719 189.502 472.916 288.934 472.916 288.934Z" fill="#F79429"/>
<path d="M438.74 166.747C427.401 177.585 401.491 200.604 387.374 196.323C371.777 191.587 360.279 172.735 360.074 160.872C367.406 158.505 374.942 156.045 377.72 154.497H377.743C378.403 154.133 378.79 153.814 378.813 153.564C379.154 151.241 375.011 131.159 375.011 131.159L408.913 123.281C408.913 123.281 409.027 130.021 411.008 137.603C412.716 144.183 415.835 151.423 421.527 155.385C426.104 158.55 432.433 162.626 438.74 166.747Z" fill="#FF917B"/>
<path d="M378.81 153.548C379.152 151.226 375.008 131.144 375.008 131.144L408.91 123.266C408.91 123.266 409.024 130.005 411.005 137.587C385.345 164.136 378.765 153.799 378.81 153.548Z" fill="#F47567"/>
<path d="M348.779 111.445C346.821 116.705 338.601 118.526 330.405 115.475C322.208 112.447 317.153 105.707 319.089 100.448C321.047 95.1882 329.266 93.3667 337.463 96.4177C345.682 99.446 350.737 106.186 348.779 111.445Z" fill="#F47567"/>
<path d="M353.542 53.0938L334.621 56.9872C334.621 56.9872 323.578 84.0593 331.319 102.206C337.034 115.594 353.542 53.0938 353.542 53.0938Z" fill="#29150F"/>
<path d="M431.315 96.0618C430.382 100.843 428.947 105.42 427.08 109.746C415.924 135.748 384.776 152.528 361.62 148.043C334.594 142.806 326.966 110.588 333.478 77.0726C334.548 71.6081 336.165 66.3941 338.259 61.5671C348.892 36.8175 371.593 21.4714 394.179 25.8658C421.206 31.1026 437.827 62.5462 431.315 96.0618Z" fill="#FF917B"/>
<path d="M416.816 44.2465C416.816 44.2465 424.444 33.9323 432.732 35.2301C441.02 36.528 448.465 46.4096 448.465 46.4096C448.465 46.4096 435.578 39.8522 428.565 40.7629C428.565 40.7629 440.45 44.8385 442.591 56.1318C442.591 56.1318 431.275 44.9524 416.816 44.2465Z" fill="#190B09"/>
<path d="M430.338 35.2495C422.71 47.7723 409.436 53.5784 400.693 48.2505C391.949 42.9226 391.061 28.4644 398.689 15.9416C406.316 3.41883 415.788 -4.64132 428.334 2.94067C441.722 11.0236 437.965 22.7267 430.338 35.2495Z" fill="#190B09"/>
<path d="M434.781 96.1929C433.506 100.883 431.639 106.279 429.772 110.583C424.603 114.385 414.722 115.273 414.722 115.273C414.722 114.34 406.798 71.3523 406.593 70.2138C406.593 71.6255 368.957 59.1254 338.31 61.5844C337.991 61.3568 337.695 61.1291 337.376 60.9242C335.509 59.467 334.098 57.8959 333.141 56.211C333.141 56.211 333.141 56.211 333.141 56.1883C323.897 40.2729 354.362 16.935 388.128 21.6481C388.743 21.7164 389.312 21.8075 389.927 21.9213C391.133 22.1262 392.34 22.3539 393.547 22.6271C407.163 25.7464 417.431 31.598 424.603 39.3166C437.969 53.6609 440.701 74.4943 434.781 96.1929Z" fill="#29150F"/>
<path d="M424.576 39.3166C401.534 29.3667 351.898 14.9996 333.114 56.1883C323.87 40.2729 354.335 16.935 388.101 21.6481C388.715 21.7164 389.285 21.8075 389.899 21.9213C391.106 22.1262 392.313 22.3539 393.52 22.6271C407.135 25.7464 417.404 31.598 424.576 39.3166Z" fill="#44331C"/>
<path d="M382.023 104.908C382.023 107.367 381.112 109.371 380.019 109.371C378.926 109.371 378.016 107.367 378.016 104.908C378.016 102.449 378.926 100.445 380.019 100.445C381.112 100.445 382.023 102.449 382.023 104.908Z" fill="#333333"/>
<path d="M345.07 101.478C345.07 103.937 344.159 105.941 343.066 105.941C341.95 105.941 341.062 103.937 341.062 101.478C341.062 99.0193 341.973 97.0156 343.066 97.0156C344.182 97.0156 345.07 99.0193 345.07 101.478Z" fill="#333333"/>
<path d="M356.088 102.062C354.472 106.32 354.107 111.056 355.087 115.496" stroke="#DB4242" stroke-width="0.75" stroke-miterlimit="10" stroke-linecap="round" stroke-linejoin="round"/>
<path d="M379.582 81.107C383.771 80.4467 388.234 81.6535 391.513 84.3402" stroke="#29150F" stroke-miterlimit="10" stroke-linecap="round" stroke-linejoin="round"/>
<path d="M339.559 72.5323C343.589 71.6899 347.983 72.76 351.171 75.3784" stroke="#29150F" stroke-miterlimit="10" stroke-linecap="round" stroke-linejoin="round"/>
<path d="M362.504 127.676C369.084 128.815 376.097 127.084 381.402 123.031" stroke="#DB4242" stroke-width="0.75" stroke-miterlimit="10" stroke-linecap="round" stroke-linejoin="round"/>
<path d="M442.385 112.255C443.455 117.765 437.353 123.571 428.769 125.233C420.185 126.895 412.376 123.753 411.305 118.243C410.235 112.733 416.337 106.927 424.921 105.265C433.505 103.625 441.315 106.745 442.385 112.255Z" fill="#FF917B"/>
<path d="M444.838 177.32C451.737 177.138 458.34 180.166 463.053 185.221C468.176 190.708 476.737 200.977 489.715 219.647C513.736 254.188 522.366 271.811 514.852 281.578C507.338 291.346 419.451 288.955 419.451 288.955L411.527 265.39L455.721 256.464C455.721 256.464 432.156 220.809 429.196 206.1C426.737 193.828 428.923 177.73 444.838 177.32Z" fill="#FCA338"/>
<path d="M420.064 288.702C420.064 288.702 413.484 291.685 400.164 290.182C386.822 288.656 383.68 279.708 383.68 279.708C383.68 279.708 374.254 282.053 371.612 278.661C370.36 277.067 370.702 275.473 371.066 274.585C371.248 274.13 371.453 273.857 371.453 273.857C371.453 273.857 370.815 274.266 369.791 274.403C368.675 274.562 367.127 274.358 365.488 272.969C362.482 270.396 365.192 266.184 365.419 265.819H365.397C365.237 265.865 364.531 266.161 363.598 266.161C362.3 266.161 360.592 265.614 359.431 263.246C357.291 258.898 368.561 252.978 369.472 252.5C368.356 252.818 350.46 258.101 348.639 258.351C346.772 258.579 343.06 258.511 345.406 254.139C347.751 249.79 366.876 239.681 382.382 243.051C397.865 246.42 411.549 265.387 411.549 265.387L420.064 288.702Z" fill="#FF917B"/>
<path d="M365.396 265.784C370.929 259.636 377.35 255.766 385.456 252.942C386.207 252.669 385.911 251.599 385.137 251.758C376.69 253.443 368.63 259.09 363.598 266.148L365.396 265.784Z" fill="#F47567"/>
<path d="M389.214 261.305C381.769 264.492 375.689 268.295 371.045 274.579C371.227 274.124 371.432 273.85 371.432 273.85C371.432 273.85 370.794 274.26 369.77 274.397C374.005 267.612 380.903 261.783 388.781 260.28C389.373 260.144 389.852 261.009 389.214 261.305Z" fill="#F47567"/>
<path d="M518.93 286.711H136.711V301.397H518.93V286.711Z" fill="#D68149"/>
<path d="M391.239 275.172H159.977V286.738H391.239V275.172Z" fill="#3D313B"/>
<path d="M391.236 275.172H317.738V286.738H391.236V275.172Z" fill="#4F414D"/>
<path d="M351.621 278.586H333.27V283.276H351.621V278.586Z" fill="#3D313B"/>
<path d="M383.523 278.586H365.172V283.276H383.523V278.586Z" fill="#3D313B"/>
<path d="M330.109 280.931C330.109 282.092 329.107 283.025 327.9 283.025C326.67 283.025 325.691 282.092 325.691 280.931C325.691 279.769 326.693 278.836 327.9 278.836C329.107 278.859 330.109 279.792 330.109 280.931Z" fill="#3D313B"/>
<path d="M317.747 273.792L311.44 278.642H143.247L120 180.941L126.102 174.406H298.439L317.747 273.792Z" fill="#5F505E"/>
<path d="M311.44 278.638H143.247L120 180.938H291.426L311.44 278.638Z" fill="#4F414D"/>
<path d="M246.204 228.375C246.204 233.794 234.341 238.211 219.678 238.211C205.038 238.211 193.152 233.817 193.152 228.375C193.152 222.933 205.015 218.539 219.678 218.539C234.318 218.562 246.204 222.956 246.204 228.375Z" fill="#5F505E"/>
<path d="M485.822 114.634C484.411 118.778 477.307 120.098 469.952 117.594C462.598 115.089 457.771 109.716 459.16 105.595C460.572 101.451 467.676 100.13 475.03 102.635C482.384 105.117 487.234 110.49 485.822 114.634Z" fill="#3F3744"/>
<path d="M507.841 72.1818L501.284 86.3895L500.35 88.4159L498.574 92.2638L497.641 94.2903L495.865 98.1382L494.931 100.165L493.133 104.012L492.222 106.039L490.446 109.887L489.513 111.913L487.919 115.351L457.09 104.9L457.841 101.166L458.297 99.0034L459.116 94.8139L459.572 92.6281L460.391 88.4614L460.847 86.2757L461.666 82.0862L462.099 79.9004L462.964 75.7337L463.374 73.5479L466.471 58.1562L507.841 72.1818Z" fill="#5F5260"/>
<path d="M501.277 86.3806L500.343 88.407L462.957 75.7248L463.367 73.5391L501.277 86.3806Z" fill="#3F3744"/>
<path d="M462.093 79.8906L498.568 92.254L497.635 94.2805L461.66 82.0764L462.093 79.8906Z" fill="#3F3744"/>
<path d="M495.86 98.1359L494.927 100.162L460.387 88.4592L460.842 86.2734L495.86 98.1359Z" fill="#3F3744"/>
<path d="M493.126 104.009L492.215 106.036L459.109 94.8108L459.565 92.625L493.126 104.009Z" fill="#3F3744"/>
<path d="M490.441 109.876L489.507 111.902L457.836 101.155L458.291 98.9922L490.441 109.876Z" fill="#3F3744"/>
<path d="M528.134 58.4128C522.442 75.2161 506.277 81.6141 489.496 78.2899C488.79 78.1533 488.062 78.0167 487.356 77.8345C485.99 77.493 484.646 77.1059 483.28 76.6278C481.299 75.9675 479.409 75.1706 477.611 74.3054C476.928 73.9866 476.267 73.6223 475.63 73.2808C461.604 65.5394 454.318 51.4 459.805 35.257C466.203 16.3817 486.673 6.27239 505.548 12.6704C524.423 19.0684 534.533 39.5603 528.134 58.4128Z" fill="#F9AB4E"/>
<path d="M512.818 53.8648C510.86 59.7619 502.731 65.7956 493.715 68.0497L489.48 78.2957C488.774 78.1591 488.045 78.0225 487.34 77.8403L492.167 66.2055L492.713 66.0689C501.092 64.1335 509.038 58.4641 510.769 53.1818C511.52 50.9277 511.11 48.8557 509.562 47.0342C508.469 45.7819 507.148 45.1216 505.486 45.0305C499.407 44.7345 491.552 52.1117 491.483 52.18L489.89 53.7055L489.685 51.4969C489.662 51.4058 488.706 41.5014 484.015 38.6553C482.467 37.7218 480.714 37.699 478.619 38.5642C476.82 39.2928 475.682 40.5224 475.113 42.2528C472.881 49.0151 479.985 60.9232 480.076 61.037L480.281 61.4013L477.595 74.2884C476.911 73.9696 476.251 73.6053 475.614 73.2638L478.004 61.7883C476.752 59.6253 470.741 48.6508 473.064 41.6152C473.838 39.2701 475.432 37.5852 477.799 36.6289C480.532 35.4905 483.013 35.5588 485.154 36.8794C489.343 39.3839 490.983 45.9641 491.552 49.3339C494.33 47.0342 500.318 42.6626 505.6 42.9358C507.854 43.0724 509.744 43.9832 511.178 45.6909C513.228 48.0588 513.797 50.8821 512.818 53.8648Z" fill="#FFE19F"/>
<path d="M469.796 25.6248C471.503 22.9836 473.849 20.7978 476.513 19.1357C481.909 15.7887 492.565 10.8024 505.292 15.8115C519.591 21.4354 501.353 16.4262 487.624 19.9554C475.26 23.143 464.354 34.0948 469.796 25.6248Z" fill="#FCD772"/>
</g>
<defs>
<clipPath id="clip0_2194_221">
<rect width="690" height="350" fill="white"/>
</clipPath>
</defs>
</svg>
