<svg width="690" height="350" viewBox="0 0 690 350" fill="none" xmlns="http://www.w3.org/2000/svg">
<g clip-path="url(#clip0_1992_6138)">
<path d="M595 304.453H95V304.703H595V304.453Z" fill="#EBEBEB"/>
<path d="M544.9 320.539H511.78V320.789H544.9V320.539Z" fill="#EBEBEB"/>
<path d="M426.22 323.258H417.53V323.508H426.22V323.258Z" fill="#EBEBEB"/>
<path d="M510.78 311.258H491.59V311.508H510.78V311.258Z" fill="#EBEBEB"/>
<path d="M190.65 312.938H147.46V313.188H190.65V312.938Z" fill="#EBEBEB"/>
<path d="M205.89 312.938H199.56V313.188H205.89V312.938Z" fill="#EBEBEB"/>
<path d="M320.15 317.156H226.47V317.406H320.15V317.156Z" fill="#EBEBEB"/>
<path d="M332.01 259.85H138.92C135.77 259.85 133.21 257.29 133.21 254.14V-17.29C133.21 -20.44 135.77 -23 138.92 -23H332.02C335.17 -23 337.73 -20.44 337.73 -17.29V254.14C337.72 257.29 335.16 259.85 332.01 259.85ZM138.92 -22.75C135.91 -22.75 133.46 -20.3 133.46 -17.29V254.14C133.46 257.15 135.91 259.6 138.92 259.6H332.02C335.03 259.6 337.48 257.15 337.48 254.14V-17.29C337.48 -20.3 335.03 -22.75 332.02 -22.75H138.92Z" fill="#EBEBEB"/>
<path d="M548.31 259.85H355.21C352.06 259.85 349.5 257.29 349.5 254.14V-17.29C349.5 -20.44 352.06 -23 355.21 -23H548.31C551.46 -23 554.02 -20.44 554.02 -17.29V254.14C554.02 257.29 551.46 259.85 548.31 259.85ZM355.21 -22.75C352.2 -22.75 349.75 -20.3 349.75 -17.29V254.14C349.75 257.15 352.2 259.6 355.21 259.6H548.31C551.32 259.6 553.77 257.15 553.77 254.14V-17.29C553.77 -20.3 551.32 -22.75 548.31 -22.75H355.21Z" fill="#EBEBEB"/>
<path d="M337.116 33.5694C337.116 30.8694 334.926 28.6794 332.226 28.6794C331.736 28.6794 331.266 28.7494 330.826 28.8894C330.896 28.3994 330.936 27.8994 330.936 27.3894C330.936 21.6694 326.296 17.0294 320.576 17.0294C319.926 17.0294 319.286 17.0894 318.666 17.2094C317.076 14.6094 314.216 12.8594 310.936 12.8594C305.976 12.8594 301.956 16.8394 301.886 21.7794C301.836 21.7794 301.786 21.7694 301.736 21.7694C297.126 21.7694 293.396 25.4994 293.396 30.1094C293.396 34.7194 297.126 38.4494 301.736 38.4494H332.366L332.356 38.4394C334.996 38.3794 337.116 36.2294 337.116 33.5694Z" fill="#F0F0F0"/>
<path d="M319.136 40.8894V31.3594H311.366V40.8894H305.036L315.256 49.5294L325.476 40.8894H319.136Z" fill="#E0E0E0"/>
<path d="M183.866 47.99C183.866 42.25 179.216 37.6 173.476 37.6C172.436 37.6 171.436 37.76 170.496 38.04C170.646 37 170.726 35.93 170.726 34.85C170.726 22.7 160.876 12.86 148.736 12.86C147.356 12.86 145.996 12.99 144.686 13.24C141.306 7.71 135.226 4 128.276 4C117.746 4 109.206 12.46 109.046 22.95C108.936 22.95 108.836 22.93 108.726 22.93C98.9463 22.93 91.0063 30.86 91.0063 40.65C91.0063 50.43 98.9363 58.37 108.726 58.37H173.786L173.776 58.36C179.376 58.21 183.866 53.63 183.866 47.99Z" fill="#F0F0F0"/>
<path d="M129.186 48.8009V69.0509H145.696V48.8009H159.146L137.436 30.4609L115.736 48.8009H129.186Z" fill="#E0E0E0"/>
<path d="M192.156 98.5738V71.3438H275.536V98.2938" stroke="#E6E6E6" stroke-miterlimit="10"/>
<path d="M235.076 45.6797V98.4897" stroke="#E6E6E6" stroke-miterlimit="10"/>
<path d="M249.266 35.3125H220.906C220.246 35.3125 219.716 35.8425 219.716 36.5025V53.3825C219.716 54.0425 220.246 54.5725 220.906 54.5725H249.266C249.926 54.5725 250.456 54.0425 250.456 53.3825V36.4925C250.446 35.8425 249.916 35.3125 249.266 35.3125Z" fill="#F0F0F0"/>
<path d="M248.966 53.7903H221.196C220.966 53.7903 220.776 53.6003 220.776 53.3703V37.9903C220.776 37.7603 220.966 37.5703 221.196 37.5703H248.966C249.196 37.5703 249.386 37.7603 249.386 37.9903V53.3703C249.386 53.6003 249.196 53.7903 248.966 53.7903Z" fill="#E0E0E0"/>
<path d="M206.336 96.1016H177.976C177.316 96.1016 176.786 96.6316 176.786 97.2916V114.172C176.786 114.832 177.316 115.362 177.976 115.362H206.336C206.996 115.362 207.526 114.832 207.526 114.172V97.2916C207.526 96.6316 206.996 96.1016 206.336 96.1016Z" fill="#F0F0F0"/>
<path d="M206.046 114.595H178.276C178.046 114.595 177.856 114.405 177.856 114.175V98.795C177.856 98.565 178.046 98.375 178.276 98.375H206.046C206.276 98.375 206.466 98.565 206.466 98.795V114.175C206.466 114.405 206.276 114.595 206.046 114.595Z" fill="#E0E0E0"/>
<path d="M249.266 96.1016H220.906C220.246 96.1016 219.716 96.6316 219.716 97.2916V114.172C219.716 114.832 220.246 115.362 220.906 115.362H249.266C249.926 115.362 250.456 114.832 250.456 114.172V97.2916C250.446 96.6316 249.916 96.1016 249.266 96.1016Z" fill="#F0F0F0"/>
<path d="M248.966 114.595H221.196C220.966 114.595 220.776 114.405 220.776 114.175V98.795C220.776 98.565 220.966 98.375 221.196 98.375H248.966C249.196 98.375 249.386 98.565 249.386 98.795V114.175C249.386 114.405 249.196 114.595 248.966 114.595Z" fill="#E0E0E0"/>
<path d="M289.786 96.1016H261.426C260.766 96.1016 260.236 96.6316 260.236 97.2916V114.172C260.236 114.832 260.766 115.362 261.426 115.362H289.786C290.446 115.362 290.976 114.832 290.976 114.172V97.2916C290.976 96.6316 290.446 96.1016 289.786 96.1016Z" fill="#F0F0F0"/>
<path d="M289.496 114.595H261.726C261.496 114.595 261.306 114.405 261.306 114.175V98.795C261.306 98.565 261.496 98.375 261.726 98.375H289.496C289.726 98.375 289.916 98.565 289.916 98.795V114.175C289.916 114.405 289.726 114.595 289.496 114.595Z" fill="#E0E0E0"/>
<path d="M234.506 63.0841L226.816 70.7741C226.506 71.0841 226.506 71.5941 226.816 71.9141L234.506 79.6041C234.816 79.9141 235.326 79.9141 235.646 79.6041L243.336 71.9141C243.646 71.6041 243.646 71.0941 243.336 70.7741L235.646 63.0841C235.336 62.7741 234.826 62.7741 234.506 63.0841Z" fill="#E0E0E0"/>
<path opacity="0.8" d="M72.2664 71.1238H52.2664C51.7864 71.1238 51.3964 70.7338 51.3964 70.2538V58.9638C51.3964 58.4838 51.7864 58.0938 52.2664 58.0938H72.2764C72.7564 58.0938 73.1464 58.4838 73.1464 58.9638V70.2538C73.1464 70.7338 72.7564 71.1238 72.2664 71.1238Z" fill="#E0E0E0"/>
<path d="M57.0064 96.075H41.1564C40.6764 96.075 40.2864 95.685 40.2864 95.205V86.995C40.2864 86.515 40.6764 86.125 41.1564 86.125H57.0064C57.4864 86.125 57.8764 86.515 57.8764 86.995V95.205C57.8764 95.685 57.4864 96.075 57.0064 96.075Z" fill="#E0E0E0"/>
<path d="M83.6964 96.075H67.8464C67.3664 96.075 66.9764 95.685 66.9764 95.205V86.995C66.9764 86.515 67.3664 86.125 67.8464 86.125H83.6964C84.1764 86.125 84.5664 86.515 84.5664 86.995V95.205C84.5664 95.685 84.1764 96.075 83.6964 96.075Z" fill="#E0E0E0"/>
<path d="M67.2864 115.688H59.7964C59.3164 115.688 58.9264 115.297 58.9264 114.817V108.058C58.9264 107.578 59.3164 107.188 59.7964 107.188H67.2864C67.7664 107.188 68.1564 107.578 68.1564 108.058V114.817C68.1564 115.287 67.7664 115.688 67.2864 115.688Z" fill="#E0E0E0"/>
<path d="M79.0164 115.688H71.5264C71.0464 115.688 70.6564 115.297 70.6564 114.817V108.058C70.6564 107.578 71.0464 107.188 71.5264 107.188H79.0164C79.4964 107.188 79.8864 107.578 79.8864 108.058V114.817C79.8864 115.287 79.4964 115.688 79.0164 115.688Z" fill="#E0E0E0"/>
<path d="M90.7363 115.688H83.2463C82.7663 115.688 82.3763 115.297 82.3763 114.817V108.058C82.3763 107.578 82.7663 107.188 83.2463 107.188H90.7363C91.2163 107.188 91.6063 107.578 91.6063 108.058V114.817C91.6063 115.287 91.2163 115.688 90.7363 115.688Z" fill="#E0E0E0"/>
<path d="M40.1564 115.688H32.6664C32.1864 115.688 31.7964 115.297 31.7964 114.817V108.058C31.7964 107.578 32.1864 107.188 32.6664 107.188H40.1564C40.6364 107.188 41.0264 107.578 41.0264 108.058V114.817C41.0264 115.287 40.6364 115.688 40.1564 115.688Z" fill="#E0E0E0"/>
<path d="M52.8764 115.688H45.3864C44.9064 115.688 44.5164 115.297 44.5164 114.817V108.058C44.5164 107.578 44.9064 107.188 45.3864 107.188H52.8764C53.3564 107.188 53.7464 107.578 53.7464 108.058V114.817C53.7564 115.287 53.3664 115.688 52.8764 115.688Z" fill="#E0E0E0"/>
<path d="M74.7664 86.125H75.7664V79.125H62.7664V71.125H61.7664V79.125H48.7664V86.125H49.7664V80.125H74.7664V86.125Z" fill="#E0E0E0"/>
<path d="M48.7664 102.125H35.7664V107.125H36.7664V103.125H48.7664V107.125H49.7664V96.125H48.7664V102.125Z" fill="#E0E0E0"/>
<path d="M75.7664 103.125V96.125H74.7664V103.125H62.7664V107.125H63.7664V104.125H74.7664V107.125H75.7664V104.125H86.7664V107.125H87.7664V103.125H75.7664Z" fill="#E0E0E0"/>
<path d="M364.176 61.2231V68.4031L367.876 68.7531C368.376 71.1631 369.326 73.4031 370.636 75.3931L368.256 78.2631L373.336 83.3431L376.206 80.9631C378.196 82.2731 380.436 83.2231 382.846 83.7231L383.196 87.4231H390.376L390.726 83.7231C393.136 83.2231 395.376 82.2731 397.366 80.9631L400.236 83.3431L405.316 78.2631L402.936 75.3931C404.236 73.4031 405.196 71.1631 405.696 68.7531L409.396 68.4031V61.2231L405.696 60.8731C405.196 58.4631 404.246 56.2231 402.936 54.2331L405.316 51.3631L400.236 46.2831L397.366 48.6631C395.376 47.3631 393.136 46.4031 390.726 45.9031L390.376 42.2031H383.196L382.846 45.9031C380.436 46.4031 378.196 47.3531 376.206 48.6631L373.336 46.2831L368.256 51.3631L370.636 54.2331C369.326 56.2231 368.376 58.4631 367.876 60.8731L364.176 61.2231ZM386.786 55.0831C392.156 55.0831 396.516 59.4331 396.516 64.8131C396.516 70.1831 392.166 74.5331 386.786 74.5331C381.416 74.5331 377.056 70.1831 377.056 64.8131C377.056 59.4431 381.416 55.0831 386.786 55.0831Z" fill="#F5F5F5"/>
<path d="M368.816 113.632C370.706 113.242 372.456 112.492 374.016 111.472L376.266 113.332L380.246 109.352L378.386 107.102C379.406 105.542 380.156 103.792 380.546 101.902L383.446 101.632V96.0016L380.546 95.7316C380.156 93.8416 379.406 92.0916 378.386 90.5316L380.246 88.2816L376.266 84.3016L374.016 86.1616C372.456 85.1416 370.706 84.3916 368.816 84.0016L368.546 81.1016H362.916L362.646 84.0016C360.756 84.3916 359.006 85.1416 357.446 86.1616L355.196 84.3016L351.216 88.2816L353.076 90.5316C352.056 92.0916 351.306 93.8416 350.916 95.7316L348.016 96.0016V101.632L350.916 101.902C351.306 103.792 352.056 105.542 353.076 107.102L351.216 109.352L355.196 113.332L357.446 111.472C359.006 112.492 360.756 113.242 362.646 113.632L362.916 116.532H368.546L368.816 113.632ZM358.106 98.8216C358.106 94.6116 361.516 91.2016 365.726 91.2016C369.936 91.2016 373.346 94.6116 373.346 98.8216C373.346 103.032 369.936 106.442 365.726 106.442C361.526 106.442 358.106 103.032 358.106 98.8216Z" fill="#F5F5F5"/>
<path d="M356.256 83.1762L358.146 84.7362L361.486 81.3962L359.926 79.5062C360.786 78.1962 361.416 76.7262 361.746 75.1362L364.176 74.9062V70.1762L361.746 69.9463C361.416 68.3563 360.786 66.8862 359.926 65.5762L361.486 63.6862L358.146 60.3462L356.256 61.9062C354.946 61.0462 353.476 60.4163 351.886 60.0863L351.656 57.6562H346.926L346.696 60.0863C345.106 60.4163 343.636 61.0462 342.326 61.9062L340.436 60.3462L337.096 63.6862L338.656 65.5762C337.796 66.8862 337.166 68.3563 336.836 69.9463L334.406 70.1762V74.9062L336.836 75.1362C337.166 76.7162 337.796 78.1962 338.656 79.5062L337.106 81.3962L340.446 84.7362L342.336 83.1762C343.646 84.0362 345.116 84.6662 346.706 84.9962L346.936 87.4262H351.666L351.896 84.9862C353.476 84.6562 354.946 84.0262 356.256 83.1762ZM342.896 72.5462C342.896 69.0062 345.766 66.1462 349.296 66.1462C352.826 66.1462 355.696 69.0162 355.696 72.5462C355.696 76.0863 352.826 78.9463 349.296 78.9463C345.766 78.9463 342.896 76.0763 342.896 72.5462Z" fill="#F5F5F5"/>
<path d="M422.576 259.469H355.426V303.139H422.576V259.469Z" fill="#F5F5F5"/>
<path d="M420.106 267.656H357.876V300.956H420.106V267.656Z" fill="#E0E0E0"/>
<path d="M408.986 272.625H362.946V274.055H408.986V272.625Z" fill="#F5F5F5"/>
<path d="M385.036 277.016H362.946V278.446H385.036V277.016Z" fill="#F5F5F5"/>
<path d="M390.766 281.406H362.946V282.836H390.766V281.406Z" fill="#F5F5F5"/>
<path d="M372.746 285.797H362.946V287.227H372.746V285.797Z" fill="#F5F5F5"/>
<path d="M369.296 290.172H362.946V291.602H369.296V290.172Z" fill="#F5F5F5"/>
<path d="M78.78 259.228L31 259.445L31.1343 288.915L78.9143 288.698L78.78 259.228Z" fill="#EBEBEB"/>
<path d="M49.3263 281.506C49.1263 281.506 48.9163 281.446 48.7363 281.316L40.0163 274.946C39.7563 274.756 39.6063 274.456 39.6063 274.146C39.6063 273.826 39.7563 273.526 40.0063 273.336L48.6663 266.886C49.1063 266.556 49.7363 266.646 50.0663 267.086C50.3963 267.526 50.3063 268.156 49.8563 268.486L42.2863 274.126L49.9063 279.696C50.3563 280.026 50.4463 280.646 50.1263 281.096C49.9363 281.366 49.6363 281.506 49.3263 281.506Z" fill="#FAFAFA"/>
<path d="M60.6463 281.453C60.3363 281.453 60.0364 281.313 59.8464 281.053C59.5164 280.613 59.6064 279.983 60.0564 279.653L67.6264 274.013L60.0063 268.443C59.5563 268.113 59.4663 267.493 59.7863 267.043C60.1163 266.593 60.7363 266.503 61.1863 266.823L69.9063 273.193C70.1663 273.383 70.3163 273.683 70.3163 273.993C70.3163 274.313 70.1664 274.613 69.9164 274.803L61.2563 281.253C61.0563 281.383 60.8463 281.453 60.6463 281.453Z" fill="#FAFAFA"/>
<path d="M52.7063 281.48C52.5963 281.48 52.4863 281.46 52.3763 281.42C51.8563 281.24 51.5763 280.67 51.7663 280.15L56.2563 267.31C56.4363 266.79 57.0063 266.51 57.5263 266.7C58.0463 266.88 58.3263 267.45 58.1363 267.97L53.6463 280.81C53.5063 281.23 53.1263 281.48 52.7063 281.48Z" fill="#FAFAFA"/>
<path d="M345 349.609C452.082 349.609 538.89 344.541 538.89 338.289C538.89 332.037 452.082 326.969 345 326.969C237.917 326.969 151.11 332.037 151.11 338.289C151.11 344.541 237.917 349.609 345 349.609Z" fill="#F5F5F5"/>
<path d="M429.38 338.287H436.73L446.73 283.047H439.38L429.38 338.287Z" fill="#263238"/>
<path opacity="0.2" d="M429.38 338.287H436.73L446.73 283.047H439.38L429.38 338.287Z" fill="white"/>
<path opacity="0.2" d="M429.38 338.287H434.73L444.73 283.047H439.38L429.38 338.287Z" fill="white"/>
<path d="M408.69 299.482H438.08C438.98 299.482 439.7 298.752 439.7 297.862C439.7 296.962 438.97 296.242 438.08 296.242H408.69C407.79 296.242 407.07 296.972 407.07 297.862C407.07 298.752 407.79 299.482 408.69 299.482Z" fill="#263238"/>
<path d="M405.42 317.967H434.81C435.71 317.967 436.43 317.237 436.43 316.347C436.43 315.447 435.7 314.727 434.81 314.727H405.42C404.52 314.727 403.8 315.457 403.8 316.347C403.8 317.247 404.53 317.967 405.42 317.967Z" fill="#263238"/>
<path d="M399.38 338.287H406.73L416.73 283.047H409.38L399.38 338.287Z" fill="#263238"/>
<path opacity="0.2" d="M399.38 338.287H406.73L416.73 283.047H409.38L399.38 338.287Z" fill="white"/>
<path opacity="0.2" d="M399.38 338.287H404.73L414.73 283.047H409.38L399.38 338.287Z" fill="white"/>
<path d="M467.73 338.287H460.38L450.38 283.047H457.73L467.73 338.287Z" fill="#263238"/>
<path opacity="0.4" d="M467.73 338.287H460.38L450.38 283.047H457.73L467.73 338.287Z" fill="white"/>
<path opacity="0.2" d="M465.73 338.287H460.38L450.38 283.047H455.73L465.73 338.287Z" fill="white"/>
<path d="M454.82 299.482H425.43C424.53 299.482 423.81 298.752 423.81 297.862C423.81 296.962 424.54 296.242 425.43 296.242H454.82C455.72 296.242 456.44 296.972 456.44 297.862C456.44 298.752 455.71 299.482 454.82 299.482Z" fill="#263238"/>
<path d="M458.08 317.967H428.69C427.79 317.967 427.07 317.237 427.07 316.347C427.07 315.447 427.8 314.727 428.69 314.727H458.08C458.98 314.727 459.7 315.457 459.7 316.347C459.7 317.247 458.98 317.967 458.08 317.967Z" fill="#263238"/>
<path opacity="0.2" d="M454.82 299.482H425.43C424.53 299.482 423.81 298.752 423.81 297.862C423.81 296.962 424.54 296.242 425.43 296.242H454.82C455.72 296.242 456.44 296.972 456.44 297.862C456.44 298.752 455.71 299.482 454.82 299.482Z" fill="white"/>
<path opacity="0.2" d="M458.08 317.967H428.69C427.79 317.967 427.07 317.237 427.07 316.347C427.07 315.447 427.8 314.727 428.69 314.727H458.08C458.98 314.727 459.7 315.457 459.7 316.347C459.7 317.247 458.98 317.967 458.08 317.967Z" fill="white"/>
<path d="M437.73 338.287H430.38L420.38 283.047H427.73L437.73 338.287Z" fill="#263238"/>
<path opacity="0.4" d="M437.73 338.287H430.38L420.38 283.047H427.73L437.73 338.287Z" fill="white"/>
<path opacity="0.2" d="M435.73 338.287H430.38L420.38 283.047H425.73L435.73 338.287Z" fill="white"/>
<path d="M460.59 285.678H407.49C406.83 285.678 406.3 285.148 406.3 284.488V281.588C406.3 280.928 406.83 280.398 407.49 280.398H460.59C461.25 280.398 461.78 280.928 461.78 281.588V284.488C461.78 285.148 461.25 285.678 460.59 285.678Z" fill="#263238"/>
<path opacity="0.2" d="M427.68 285.678H407.49C406.83 285.678 406.3 285.148 406.3 284.488V281.588C406.3 280.928 406.83 280.398 407.49 280.398H427.68C428.34 280.398 428.87 280.928 428.87 281.588V284.488C428.87 285.148 428.34 285.678 427.68 285.678Z" fill="white"/>
<path d="M289.35 293.891H222.2V337.561H289.35V293.891Z" fill="#407BFF"/>
<path opacity="0.6" d="M289.35 293.891H222.2V337.561H289.35V293.891Z" fill="white"/>
<path d="M286.9 302.078H224.66V335.378H286.9V302.078Z" fill="#407BFF"/>
<path d="M275.77 307.062H229.73V308.492H275.77V307.062Z" fill="white"/>
<path d="M251.82 311.453H229.73V312.883H251.82V311.453Z" fill="white"/>
<path d="M257.55 315.836H229.73V317.266H257.55V315.836Z" fill="white"/>
<path d="M239.54 320.219H229.73V321.649H239.54V320.219Z" fill="white"/>
<path d="M236.08 324.609H229.73V326.039H236.08V324.609Z" fill="white"/>
<path d="M405.505 338.287H335.495L347.343 253.375H393.657L405.505 338.287Z" fill="#407BFF"/>
<path opacity="0.6" d="M405.505 338.287H335.495L343.603 280.191L347.356 253.375H393.644L399.178 292.939L405.505 338.287Z" fill="white"/>
<path opacity="0.1" d="M399.178 292.939L343.603 280.191L347.355 253.375H393.644L399.178 292.939Z" fill="black"/>
<path d="M535.559 44H528.566H212.447H205.453C200.791 44 197 47.447 197 51.7119V255.586C197 259.839 200.778 263.298 205.453 263.298H212.447H528.553H535.547C540.209 263.298 544 259.851 544 255.586V51.7002C544 47.447 540.222 44 535.559 44Z" fill="#407BFF"/>
<path opacity="0.7" d="M535.559 44H528.566H212.447H205.453C200.791 44 197 47.447 197 51.7119V255.586C197 259.839 200.778 263.298 205.453 263.298H212.447H528.553H535.547C540.209 263.298 544 259.851 544 255.586V51.7002C544 47.447 540.222 44 535.559 44Z" fill="white"/>
<path d="M532.895 51.5469H208.118V248.141H532.895V51.5469Z" fill="#407BFF"/>
<path d="M429.303 331.906H311.698C310.967 331.906 310.365 332.444 310.365 333.121V336.977C310.365 337.643 310.955 338.193 311.698 338.193H429.303C430.033 338.193 430.635 337.655 430.635 336.977V333.121C430.635 332.444 430.033 331.906 429.303 331.906Z" fill="#407BFF"/>
<path opacity="0.7" d="M429.303 331.906H311.698C310.967 331.906 310.365 332.444 310.365 333.121V336.977C310.365 337.643 310.955 338.193 311.698 338.193H429.303C430.033 338.193 430.635 337.655 430.635 336.977V333.121C430.635 332.444 430.033 331.906 429.303 331.906Z" fill="white"/>
<path opacity="0.2" d="M532.895 51.7266H208.118V81.0317H532.895V51.7266Z" fill="black"/>
<path opacity="0.4" d="M347.292 81.3672H208.118V248.119H347.292V81.3672Z" fill="white"/>
<path d="M482.905 123.906V126.827H479.703" stroke="white" stroke-miterlimit="10"/>
<path d="M472.94 126.836H368.041" stroke="white" stroke-miterlimit="10" stroke-dasharray="5.28 5.28"/>
<path d="M364.66 126.827H361.458V123.906" stroke="white" stroke-miterlimit="10"/>
<path d="M361.458 118.607V68.3281" stroke="white" stroke-miterlimit="10" stroke-dasharray="4.53 4.53"/>
<path d="M361.458 65.6946V62.7734H364.66" stroke="white" stroke-miterlimit="10"/>
<path d="M371.422 62.7734H476.322" stroke="white" stroke-miterlimit="10" stroke-dasharray="5.28 5.28"/>
<path d="M479.703 62.7734H482.905V65.6946" stroke="white" stroke-miterlimit="10"/>
<path d="M482.905 70.9844V121.263" stroke="white" stroke-miterlimit="10" stroke-dasharray="4.53 4.53"/>
<path d="M484.941 60.9062H480.881V64.6103H484.941V60.9062Z" fill="#407BFF" stroke="white" stroke-miterlimit="10"/>
<path d="M484.941 124.969H480.881V128.673H484.941V124.969Z" fill="#407BFF" stroke="white" stroke-miterlimit="10"/>
<path d="M363.481 60.9062H359.421V64.6103H363.481V60.9062Z" fill="#407BFF" stroke="white" stroke-miterlimit="10"/>
<path d="M363.481 124.969H359.421V128.673H363.481V124.969Z" fill="#407BFF" stroke="white" stroke-miterlimit="10"/>
<path d="M424.218 60.9062H420.157V64.6103H424.218V60.9062Z" fill="#407BFF" stroke="white" stroke-miterlimit="10"/>
<path d="M424.218 124.969H420.157V128.673H424.218V124.969Z" fill="#407BFF" stroke="white" stroke-miterlimit="10"/>
<path d="M484.941 92.9375H480.881V96.6415H484.941V92.9375Z" fill="#407BFF" stroke="white" stroke-miterlimit="10"/>
<path d="M363.481 92.9375H359.421V96.6415H363.481V92.9375Z" fill="#407BFF" stroke="white" stroke-miterlimit="10"/>
<path opacity="0.7" d="M471.877 95.9738H442.162C440.817 95.9738 439.741 94.9806 439.741 93.7654V86.5209C439.741 85.294 440.83 84.3125 442.162 84.3125H471.877C473.222 84.3125 474.298 85.3057 474.298 86.5209V93.7654C474.298 94.9806 473.222 95.9738 471.877 95.9738Z" fill="white"/>
<path opacity="0.7" d="M420.644 95.9738H390.929C389.584 95.9738 388.508 94.9806 388.508 93.7654V86.5209C388.508 85.294 389.597 84.3125 390.929 84.3125H420.644C421.989 84.3125 423.065 85.3057 423.065 86.5209V93.7654C423.065 94.9806 421.989 95.9738 420.644 95.9738Z" fill="white"/>
<path opacity="0.7" d="M354.682 238.028H324.967C323.622 238.028 322.546 237.035 322.546 235.82V228.576C322.546 227.349 323.635 226.367 324.967 226.367H354.682C356.027 226.367 357.103 227.36 357.103 228.576V235.82C357.115 237.047 356.027 238.028 354.682 238.028Z" fill="white"/>
<path d="M511.454 62.1484H522.265" stroke="white" stroke-width="1.5" stroke-miterlimit="10" stroke-linecap="round" stroke-linejoin="round"/>
<path d="M511.454 66.8203H522.265" stroke="white" stroke-width="1.5" stroke-miterlimit="10" stroke-linecap="round" stroke-linejoin="round"/>
<path d="M511.454 71.5H522.265" stroke="white" stroke-width="1.5" stroke-miterlimit="10" stroke-linecap="round" stroke-linejoin="round"/>
<path opacity="0.5" d="M339.069 107.227H230.135V206.605H339.069V107.227Z" fill="white"/>
<path d="M275.732 115.352V201.07" stroke="#407BFF" stroke-miterlimit="10"/>
<path d="M322.713 201.07C296.763 201.07 275.732 181.884 275.732 158.211C275.732 134.538 296.763 115.352 322.713 115.352" stroke="#407BFF" stroke-miterlimit="10"/>
<path d="M324.749 113.508H320.689V117.212H324.749V113.508Z" fill="white" stroke="#407BFF" stroke-miterlimit="10"/>
<path d="M324.749 199.227H320.689V202.931H324.749V199.227Z" fill="white" stroke="#407BFF" stroke-miterlimit="10"/>
<path d="M277.769 156.367H273.708V160.071H277.769V156.367Z" fill="white" stroke="#407BFF" stroke-miterlimit="10"/>
<path d="M276.782 115.349C276.782 115.875 276.309 116.307 275.732 116.307C275.156 116.307 274.682 115.875 274.682 115.349C274.682 114.823 275.156 114.391 275.732 114.391C276.309 114.391 276.782 114.823 276.782 115.349Z" fill="white" stroke="#407BFF" stroke-miterlimit="10"/>
<path d="M276.782 201.075C276.782 201.601 276.309 202.033 275.732 202.033C275.156 202.033 274.682 201.601 274.682 201.075C274.682 200.55 275.156 200.117 275.732 200.117C276.309 200.117 276.782 200.55 276.782 201.075Z" fill="white" stroke="#407BFF" stroke-miterlimit="10"/>
<path opacity="0.7" d="M456.226 227.777H423.244C417.98 227.777 413.715 223.886 413.715 219.084C413.715 214.282 417.98 210.391 423.244 210.391H456.226C461.49 210.391 465.755 214.282 465.755 219.084C465.755 223.886 461.49 227.777 456.226 227.777Z" fill="white"/>
<path opacity="0.7" d="M485.198 153.645H383.321C382.168 153.645 381.233 152.792 381.233 151.741C381.233 150.689 382.168 149.836 383.321 149.836H485.198C486.35 149.836 487.285 150.689 487.285 151.741C487.285 152.792 486.35 153.645 485.198 153.645Z" fill="white"/>
<path opacity="0.7" d="M485.198 167.505H383.321C382.168 167.505 381.233 166.652 381.233 165.6C381.233 164.548 382.168 163.695 383.321 163.695H485.198C486.35 163.695 487.285 164.548 487.285 165.6C487.285 166.652 486.35 167.505 485.198 167.505Z" fill="white"/>
<path opacity="0.7" d="M485.198 181.387H421.746C420.593 181.387 419.658 180.534 419.658 179.483C419.658 178.431 420.593 177.578 421.746 177.578H485.198C486.351 177.578 487.286 178.431 487.286 179.483C487.286 180.534 486.351 181.387 485.198 181.387Z" fill="white"/>
<path opacity="0.4" d="M225.575 59.8438H218.377V66.4105H225.575V59.8438Z" fill="black"/>
<path opacity="0.4" d="M237.717 66.4105H234.208C233.183 66.4105 232.364 65.6627 232.364 64.7279V61.5263C232.364 60.6033 233.183 59.8438 234.208 59.8438H237.717C238.742 59.8438 239.562 60.5916 239.562 61.5263V64.7279C239.562 65.651 238.742 66.4105 237.717 66.4105Z" fill="black"/>
<path opacity="0.4" d="M250.256 66.4105H249.642C247.823 66.4105 246.35 65.0668 246.35 63.4076V62.8467C246.35 61.1875 247.823 59.8438 249.642 59.8438H250.256C252.075 59.8438 253.548 61.1875 253.548 62.8467V63.4076C253.561 65.0668 252.075 66.4105 250.256 66.4105Z" fill="black"/>
<path opacity="0.9" d="M240.433 221.75V219.191L238.986 219.063C238.793 218.21 238.422 217.403 237.91 216.702L238.832 215.686L236.847 213.875L235.732 214.716C234.951 214.249 234.08 213.91 233.145 213.734L233.004 212.414H230.199L230.058 213.734C229.123 213.91 228.239 214.249 227.471 214.716L226.357 213.875L224.371 215.686L225.294 216.702C224.781 217.415 224.41 218.21 224.218 219.063L222.77 219.191V221.75L224.218 221.879C224.41 222.732 224.781 223.538 225.294 224.239L224.371 225.255L226.357 227.067L227.471 226.225C228.252 226.693 229.123 227.032 230.058 227.207L230.199 228.527H233.004L233.145 227.207C234.08 227.032 234.964 226.693 235.732 226.225L236.847 227.067L238.832 225.255L237.91 224.239C238.422 223.526 238.793 222.732 238.986 221.879L240.433 221.75ZM231.608 223.935C229.507 223.935 227.817 222.381 227.817 220.476C227.817 218.572 229.52 217.018 231.608 217.018C233.709 217.018 235.399 218.572 235.399 220.476C235.399 222.381 233.709 223.935 231.608 223.935Z" fill="white"/>
<path opacity="0.6" d="M251.807 228.963V226.953L250.68 226.86C250.526 226.182 250.231 225.563 249.834 225.002L250.564 224.196L249.014 222.782L248.131 223.448C247.529 223.086 246.837 222.817 246.107 222.677L246.005 221.648H243.802L243.699 222.677C242.956 222.817 242.277 223.086 241.663 223.448L240.779 222.782L239.229 224.196L239.959 225.002C239.562 225.563 239.267 226.182 239.114 226.86L237.987 226.953V228.963L239.114 229.057C239.267 229.734 239.562 230.354 239.959 230.903L239.229 231.709L240.779 233.123L241.663 232.457C242.277 232.819 242.956 233.088 243.699 233.228L243.802 234.256H246.005L246.107 233.228C246.85 233.088 247.529 232.819 248.143 232.457L249.027 233.123L250.577 231.709L249.847 230.903C250.244 230.342 250.539 229.723 250.692 229.057L251.807 228.963ZM244.89 230.681C243.251 230.681 241.919 229.465 241.919 227.97C241.919 226.474 243.251 225.259 244.89 225.259C246.53 225.259 247.862 226.474 247.862 227.97C247.862 229.454 246.53 230.681 244.89 230.681Z" fill="white"/>
<path opacity="0.4" d="M240.433 234.658V232.975L239.485 232.893C239.357 232.333 239.114 231.807 238.781 231.339L239.396 230.662L238.089 229.47L237.346 230.031C236.834 229.727 236.258 229.505 235.643 229.388L235.553 228.523H233.709L233.619 229.388C233.004 229.505 232.428 229.727 231.916 230.031L231.173 229.47L229.866 230.662L230.481 231.339C230.148 231.807 229.905 232.333 229.777 232.893L228.829 232.975V234.658L229.777 234.74C229.905 235.301 230.148 235.826 230.481 236.294L229.866 236.971L231.173 238.163L231.916 237.602C232.428 237.906 233.004 238.128 233.619 238.245L233.709 239.11H235.553L235.643 238.245C236.258 238.128 236.834 237.906 237.346 237.602L238.089 238.163L239.396 236.971L238.781 236.294C239.114 235.826 239.357 235.301 239.485 234.74L240.433 234.658ZM234.631 236.095C233.248 236.095 232.133 235.079 232.133 233.817C232.133 232.555 233.248 231.538 234.631 231.538C236.014 231.538 237.128 232.555 237.128 233.817C237.128 235.079 236.014 236.095 234.631 236.095Z" fill="white"/>
<path d="M482.162 62.1094L487.593 75.3598L496.686 67.0637L482.162 62.1094Z" fill="#407BFF"/>
<path d="M490.903 68.243L488.874 70.0938L493.375 74.2001L495.404 72.3493L490.903 68.243Z" fill="#407BFF"/>
<path opacity="0.4" d="M496.686 67.0637L482.162 62.1094L487.593 75.3598L491.128 72.1348L493.369 74.1913L495.393 72.3451L493.151 70.2886L496.686 67.0637Z" fill="white"/>
<path d="M259.658 109.46L273.324 114.122L266.164 107.591C265.626 107.859 264.948 107.813 264.487 107.392C263.936 106.889 263.936 106.072 264.487 105.569C265.037 105.067 265.934 105.067 266.485 105.569C266.946 105.99 266.997 106.609 266.702 107.1L273.862 113.632L268.752 101.164L264.23 102.075L264.051 100.58L263.193 99.7969L258.172 104.377L259.03 105.16L260.67 105.324L259.658 109.46Z" fill="#263238"/>
<path opacity="0.2" d="M259.658 109.46L273.324 114.122L266.164 107.591C265.626 107.859 264.948 107.813 264.487 107.392C263.936 106.889 263.936 106.072 264.487 105.569C265.037 105.067 265.934 105.067 266.485 105.569C266.946 105.99 266.997 106.609 266.702 107.1L273.862 113.632L268.752 101.164L264.23 102.075L264.051 100.58L263.193 99.7969L258.172 104.377L259.03 105.16L260.67 105.324L259.658 109.46Z" fill="white"/>
<g opacity="0.1">
<path opacity="0.1" d="M255.611 51.5547L207.477 215.631V51.5547H255.611Z" fill="white"/>
<path opacity="0.1" d="M309.93 51.5547L252.255 248.149H212.524L270.186 51.5547H309.93Z" fill="white"/>
<path opacity="0.1" d="M367.695 51.5547L310.02 248.149H292.05L349.725 51.5547H367.695Z" fill="white"/>
<path opacity="0.1" d="M420.888 51.5547L363.212 248.149H356.782L414.458 51.5547H420.888Z" fill="white"/>
</g>
<path d="M611.818 124.914C615.368 129.014 633.428 163.804 629.938 171.924C626.448 180.044 597.508 170.684 597.508 170.684L599.238 159.224C599.238 159.224 610.488 159.624 611.558 158.554C612.638 157.484 596.348 141.224 596.348 141.224L611.818 124.914Z" fill="#263238"/>
<g opacity="0.2">
<path opacity="0.2" d="M629.938 171.924C629.538 172.854 628.808 173.554 627.828 174.064C627.818 174.064 627.808 174.074 627.798 174.084C627.618 174.174 627.418 174.264 627.218 174.344C627.198 174.354 627.168 174.364 627.138 174.374C626.968 174.444 626.778 174.514 626.588 174.564C625.838 174.814 624.998 174.984 624.088 175.084C623.848 175.114 623.608 175.134 623.358 175.154C622.998 175.184 622.638 175.204 622.268 175.214C621.958 175.224 621.638 175.234 621.318 175.234C611.618 175.244 597.508 170.684 597.508 170.684L599.238 159.214C599.238 159.214 610.478 159.614 611.558 158.544C611.818 158.284 611.048 157.124 609.738 155.514C609.728 155.504 609.728 155.504 609.718 155.494C606.538 151.584 600.168 145.074 597.538 142.414C596.798 141.664 596.348 141.214 596.348 141.214L611.818 124.914C615.368 129.004 633.428 163.794 629.938 171.924Z" fill="white"/>
</g>
<path opacity="0.2" d="M627.828 174.062C627.818 174.062 627.808 174.072 627.798 174.082C627.618 174.172 627.417 174.262 627.217 174.342C627.197 174.352 627.168 174.362 627.138 174.372C626.968 174.442 626.778 174.512 626.588 174.562C625.838 174.812 624.998 174.982 624.088 175.082C623.848 175.112 623.608 175.132 623.358 175.152C622.998 175.182 622.638 175.202 622.268 175.212C621.958 175.222 621.638 175.232 621.318 175.232C611.618 175.242 597.508 170.682 597.508 170.682L599.238 159.212C599.238 159.212 611.898 160.282 612.978 159.212C612.998 159.192 612.998 159.182 613.008 159.162C613.208 158.742 611.808 157.322 609.738 155.512C609.728 155.502 609.727 155.502 609.717 155.492C606.537 151.582 600.168 145.072 597.538 142.412L604.858 134.592L610.428 133.992C610.428 133.992 622.728 153.902 627.828 174.062Z" fill="black"/>
<path d="M575.328 123.762C573.328 125.212 572.338 127.272 573.128 128.362L625.968 201.212C626.758 202.302 629.018 202.002 631.028 200.552C633.028 199.102 634.018 197.042 633.228 195.952L580.388 123.102C579.598 122.012 577.338 122.312 575.328 123.762Z" fill="#263238"/>
<path opacity="0.7" d="M580.388 123.105L633.228 195.955C634.018 197.035 633.028 199.105 631.028 200.555C629.018 202.015 626.758 202.305 625.978 201.215L573.138 128.365C572.708 127.765 572.808 126.875 573.328 125.935C573.568 125.505 573.908 125.045 574.328 124.625C574.618 124.325 574.958 124.035 575.328 123.765C577.338 122.315 579.598 122.025 580.388 123.105Z" fill="white"/>
<path opacity="0.3" d="M633.228 195.963C634.018 197.043 633.027 199.113 631.027 200.563C629.017 202.023 626.758 202.313 625.978 201.223C625.548 200.623 626.638 199.723 627.268 198.403L573.328 125.943C573.568 125.513 573.908 125.053 574.328 124.633L627.178 197.493C627.478 197.193 627.808 196.893 628.178 196.623C630.178 195.173 632.438 194.873 633.228 195.963Z" fill="black"/>
<path d="M568.787 121.743C567.097 123.553 566.517 125.763 567.497 126.673L633.197 188.183C634.177 189.103 636.347 188.383 638.037 186.573C639.727 184.763 640.307 182.553 639.327 181.643L573.627 120.133C572.647 119.213 570.477 119.943 568.787 121.743Z" fill="#407BFF"/>
<path opacity="0.7" d="M573.628 120.136L639.328 181.646C640.308 182.566 639.728 184.776 638.038 186.576C636.348 188.386 634.178 189.106 633.198 188.186L567.498 126.676C566.958 126.166 566.888 125.276 567.228 124.256C567.378 123.786 567.628 123.276 567.968 122.786C568.198 122.436 568.478 122.086 568.788 121.746C570.478 119.946 572.648 119.226 573.628 120.136Z" fill="white"/>
<path opacity="0.3" d="M639.328 181.641C640.308 182.561 639.728 184.771 638.038 186.571C636.348 188.381 634.178 189.101 633.198 188.181C632.658 187.671 633.558 186.581 633.928 185.171L567.228 124.251C567.378 123.781 567.628 123.271 567.968 122.781L633.678 184.301C633.918 183.951 634.178 183.591 634.488 183.251C636.178 181.451 638.348 180.731 639.328 181.641Z" fill="black"/>
<path d="M584.577 318.053L579.567 318.133C574.477 294.223 570.877 264.633 568.637 242.313C568.287 238.813 567.967 235.503 567.687 232.413C567.557 230.943 567.427 229.533 567.307 228.173C566.707 221.463 566.297 216.143 566.047 212.853C565.867 210.453 565.777 209.133 565.777 209.133H583.877L583.707 213.743L583.147 228.963L583.087 230.703L582.707 240.753L582.077 257.863C588.287 281.953 584.577 318.053 584.577 318.053Z" fill="#EBB376"/>
<path d="M625.178 316.775L620.248 317.705C610.378 293.035 601.108 261.445 595.078 239.375C594.148 235.955 593.288 232.755 592.518 229.855C592.478 229.705 592.448 229.565 592.408 229.425C590.888 223.665 589.718 219.075 588.988 216.165C588.428 213.885 588.118 212.635 588.118 212.635L605.958 209.555L606.968 217.055L608.458 228.075L608.748 230.235L609.758 237.745L612.468 257.885C622.688 280.565 625.178 316.775 625.178 316.775Z" fill="#EBB376"/>
<path opacity="0.2" d="M608.458 228.074L592.518 229.854C592.478 229.704 592.448 229.564 592.408 229.424C590.888 223.664 589.718 219.074 588.988 216.164L606.968 217.054L608.458 228.074Z" fill="black"/>
<path opacity="0.2" d="M583.707 213.742L583.147 228.962L583.087 230.702L567.687 232.412C567.557 230.942 567.427 229.532 567.307 228.172C566.707 221.462 566.297 216.142 566.047 212.852L583.707 213.742Z" fill="black"/>
<path d="M569.788 334.671C570.718 333.921 571.778 333.341 572.928 332.971C572.928 332.971 576.338 329.591 577.978 319.401L582.438 318.241C583.988 317.861 585.608 318.501 586.498 319.831C586.618 320.011 586.718 320.211 586.778 320.421C587.008 321.511 587.168 322.621 587.258 323.731C587.708 327.181 587.318 334.911 587.318 334.911H586.508L586.188 327.891C586.068 325.511 584.248 328.301 583.718 330.871C583.188 333.441 582.088 336.171 576.858 336.301C570.778 336.401 568.248 336.161 569.788 334.671Z" fill="#263238"/>
<path d="M586.658 319.905C586.948 317.525 587.048 313.375 587.048 313.375L577.128 314.475C577.128 314.475 578.328 319.185 577.338 322.725C582.328 321.415 586.658 319.905 586.658 319.905Z" fill="#263238"/>
<path d="M610.148 334.671C611.078 333.921 612.138 333.341 613.288 332.971C613.288 332.971 616.698 329.591 618.338 319.401L622.798 318.241C624.348 317.861 625.968 318.501 626.858 319.831C626.978 320.011 627.078 320.211 627.138 320.421C627.368 321.511 627.528 322.621 627.618 323.731C628.068 327.181 627.678 334.911 627.678 334.911H626.868L626.548 327.891C626.428 325.511 624.608 328.301 624.078 330.871C623.548 333.441 622.448 336.171 617.218 336.301C611.138 336.401 608.608 336.161 610.148 334.671Z" fill="#263238"/>
<path d="M627.008 319.905C627.298 317.525 627.398 313.375 627.398 313.375L617.478 314.475C617.478 314.475 618.678 319.185 617.688 322.725C622.688 321.415 627.008 319.905 627.008 319.905Z" fill="#263238"/>
<path d="M610.178 223.166L591.308 225.576L590.578 225.666L586.698 211.446L585.678 226.686L565.458 225.626C556.448 172.756 571.848 160.266 571.848 160.266L599.278 165.786C611.698 186.906 608.748 211.446 608.748 211.446L610.178 223.166Z" fill="#407BFF"/>
<path d="M584.198 94.3928C584.198 96.4728 583.278 98.1528 582.138 98.1528C580.998 98.1528 580.078 96.4728 580.078 94.3928C580.078 92.3128 580.998 90.6328 582.138 90.6328C583.278 90.6328 584.198 92.3128 584.198 94.3928Z" stroke="#263238" stroke-width="0.5" stroke-miterlimit="10" stroke-linecap="round" stroke-linejoin="round"/>
<path d="M597.747 106.981C597.677 107.041 597.588 107.111 597.508 107.151C596.398 107.941 595.128 108.691 593.678 109.021C589.628 109.961 586.858 109.401 585.048 107.571C585.038 107.571 585.038 107.571 585.038 107.571C582.508 104.821 581.878 99.9508 582.228 94.0708C582.388 91.3808 582.768 89.0308 583.508 87.2108C583.518 87.1908 583.517 87.1208 583.527 87.1108C583.567 87.0408 583.587 86.9308 583.627 86.8608C584.737 84.3108 586.578 82.6608 589.518 81.9608C590.538 81.7208 591.688 81.5908 592.988 81.5708C604.468 81.4608 606.527 100.441 597.747 106.981Z" fill="#EBB376"/>
<path opacity="0.2" d="M597.507 107.166C596.397 107.956 595.127 108.546 593.677 108.876C589.627 109.816 586.857 109.126 585.047 107.266C587.037 107.706 589.717 107.876 592.317 106.666C593.957 105.916 595.787 106.296 597.507 107.166Z" fill="black"/>
<path d="M598.668 117.503C599.378 120.763 595.148 122.093 595.148 122.093C588.238 119.143 586.958 115.463 586.958 115.463C592.728 112.453 591.058 103.953 591.058 103.953L592.228 104.533L600.458 106.143C600.458 106.143 598.178 110.523 597.868 111.523C597.868 111.533 597.858 111.543 597.858 111.553C596.318 116.783 598.668 117.503 598.668 117.503Z" fill="#EBB376"/>
<path d="M583.517 87.1401C583.517 87.1401 582.887 95.1801 590.497 98.6301C590.497 98.6301 593.767 106.98 598.577 107.1C605.137 107.26 610.927 97.9201 608.647 88.4101C605.707 76.0701 587.017 75.0701 583.517 87.1401Z" fill="#263238"/>
<path d="M586.638 96.3236C586.638 95.0736 587.648 92.9636 589.598 93.2536C591.618 93.5536 592.727 98.5236 587.777 99.6336C587.067 99.7836 586.638 98.9336 586.638 96.3236Z" fill="#EBB376"/>
<path d="M597.508 78.6029C597.508 78.6029 589.838 76.6629 585.608 79.7429C580.658 83.3429 578.778 87.0629 584.638 92.8429C584.638 92.8429 597.508 88.6729 601.788 89.5529C606.068 90.4329 609.128 91.6829 609.128 91.6829C610.028 83.1929 601.788 76.8629 597.508 78.6029Z" fill="#263238"/>
<path d="M586.638 94.3841C586.638 94.3841 588.687 103.654 585.497 111.544C585.497 111.544 603.697 117.854 610.027 114.434C616.357 111.004 610.558 99.4941 610.288 92.8541C610.028 86.2141 607.138 76.4041 597.508 78.6041C587.878 80.8041 586.638 94.3841 586.638 94.3841Z" fill="#263238"/>
<path d="M580.088 93.7891H587.777" stroke="#263238" stroke-width="0.5" stroke-miterlimit="10" stroke-linecap="round" stroke-linejoin="round"/>
<path opacity="0.2" d="M591.308 225.576L590.578 225.666L586.698 211.446C586.698 211.446 595.018 197.236 592.418 189.836C592.788 190.356 601.748 203.646 591.308 225.576Z" fill="black"/>
<path d="M575.728 116.796C575.728 116.796 584.878 113.536 598.668 117.516C612.458 121.496 612.968 127.376 612.968 127.376C612.968 127.376 604.228 147.186 602.858 169.606L566.918 168.256C566.918 168.256 562.628 136.606 575.728 116.796Z" fill="#263238"/>
<path opacity="0.2" d="M612.978 127.366C612.978 127.366 604.238 147.176 602.858 169.606L566.918 168.266C566.918 168.266 566.318 163.856 566.258 157.306C566.208 152.736 566.418 147.116 567.258 141.216C568.458 132.916 570.928 124.056 575.728 116.796C575.728 116.796 584.878 113.536 598.668 117.516C612.468 121.496 612.978 127.366 612.978 127.366Z" fill="white"/>
<path opacity="0.2" d="M575.228 142.561C575.228 142.561 573.738 151.681 566.258 157.301C566.208 152.731 566.418 147.111 567.258 141.211L575.228 142.561Z" fill="black"/>
<path d="M535.518 116.166L530.988 109.446C530.988 109.446 530.288 106.526 529.418 105.856C528.548 105.186 519.827 101.496 518.787 101.516C517.738 101.536 517.738 108.296 518.787 109.446C519.837 110.596 525.328 113.056 526.758 113.306C528.198 113.556 527.497 113.306 527.497 113.306L531.508 121.296L535.518 116.166Z" fill="#EBB376"/>
<path d="M575.728 116.795C575.728 116.795 563.118 121.755 547.708 131.255L533.088 111.305C533.088 111.305 529.138 112.535 527.688 119.385C527.688 119.385 535.198 148.005 544.958 150.835C554.718 153.675 575.238 142.575 575.238 142.575C575.238 142.575 581.188 127.655 575.728 116.795Z" fill="#263238"/>
<path opacity="0.2" d="M575.728 116.795C575.728 116.795 563.118 121.755 547.708 131.255L533.088 111.305C533.088 111.305 529.138 112.535 527.688 119.385C527.688 119.385 535.198 148.005 544.958 150.835C554.718 153.675 575.238 142.575 575.238 142.575C575.238 142.575 581.188 127.655 575.728 116.795Z" fill="white"/>
<path d="M584.978 115.535C584.978 115.535 588.168 138.375 598.278 139.295C608.388 140.215 612.918 123.345 611.198 121.295C609.488 119.245 596.468 115.385 584.978 115.535Z" fill="#263238"/>
<path opacity="0.3" d="M584.978 115.535C584.978 115.535 588.168 138.375 598.278 139.295C608.388 140.215 612.918 123.345 611.198 121.295C609.488 119.245 596.468 115.385 584.978 115.535Z" fill="white"/>
<path d="M118.062 329.064H125.472L126.082 311.914H118.672L118.062 329.064Z" fill="#B97964"/>
<path d="M126.492 328.211H117.492C117.192 328.211 116.922 328.421 116.862 328.721L115.402 335.311C115.282 335.901 115.652 336.481 116.242 336.611C116.322 336.631 116.402 336.631 116.482 336.631C119.392 336.581 121.512 336.401 125.172 336.401C127.422 336.401 134.212 336.641 137.322 336.641C140.432 336.641 140.832 333.571 139.562 333.291C133.852 332.051 129.562 330.321 127.732 328.681C127.402 328.371 126.952 328.201 126.492 328.211Z" fill="#263238"/>
<path d="M127.002 329.232C126.932 329.212 126.882 329.152 126.872 329.082C126.862 329.012 126.892 328.942 126.952 328.912C127.212 328.742 129.612 327.272 130.432 327.692C130.622 327.782 130.742 327.972 130.732 328.182C130.782 328.542 130.642 328.892 130.362 329.122C129.942 329.402 129.442 329.542 128.942 329.502C128.292 329.492 127.642 329.402 127.002 329.232ZM127.512 328.992C128.372 329.282 129.322 329.232 130.152 328.862C130.332 328.702 130.422 328.472 130.392 328.232C130.382 328.092 130.322 328.022 130.282 328.022C130.212 327.982 130.132 327.972 130.052 327.972C129.142 328.152 128.282 328.492 127.512 328.992Z" fill="#407BFF"/>
<path d="M126.952 329.271C126.902 329.231 126.862 329.171 126.872 329.111C126.882 329.011 127.062 326.881 127.922 326.181C128.122 326.001 128.402 325.921 128.662 325.951C128.932 325.951 129.172 326.141 129.232 326.411C129.382 327.191 127.902 328.821 127.142 329.241H127.062C127.022 329.261 126.992 329.271 126.952 329.271ZM128.142 326.391C127.622 327.061 127.312 327.861 127.262 328.711C128.022 328.141 128.962 326.901 128.872 326.421C128.862 326.371 128.842 326.241 128.622 326.241H128.542C128.392 326.241 128.252 326.291 128.142 326.391Z" fill="#407BFF"/>
<path opacity="0.2" d="M118.672 311.922H126.082L125.762 320.762H118.352L118.672 311.922Z" fill="black"/>
<path d="M156.192 329.621L163.842 330.431L165.272 313.951L157.632 313.141L156.192 329.621Z" fill="#B97964"/>
<path d="M164.642 327.969H155.642C155.342 327.969 155.072 328.179 155.012 328.479L153.552 335.069C153.432 335.659 153.802 336.239 154.392 336.369C154.472 336.389 154.552 336.389 154.632 336.389C157.542 336.339 159.662 336.159 163.322 336.159C165.572 336.159 172.362 336.399 175.472 336.399C178.582 336.399 178.982 333.329 177.712 333.049C172.002 331.809 167.712 330.079 165.882 328.439C165.552 328.129 165.102 327.959 164.642 327.969Z" fill="#263238"/>
<path d="M165.152 329.006C165.082 328.986 165.032 328.926 165.022 328.856C165.012 328.786 165.042 328.716 165.102 328.686C165.362 328.516 167.762 327.046 168.582 327.466C168.772 327.556 168.892 327.746 168.882 327.956C168.932 328.316 168.792 328.666 168.512 328.896C168.092 329.176 167.592 329.316 167.092 329.276C166.442 329.256 165.792 329.166 165.152 329.006ZM165.662 328.756C166.522 329.046 167.472 328.996 168.302 328.626C168.482 328.466 168.572 328.236 168.542 327.996C168.532 327.856 168.472 327.786 168.432 327.786C168.362 327.746 168.282 327.736 168.202 327.736C167.292 327.916 166.432 328.256 165.662 328.756Z" fill="#407BFF"/>
<path d="M165.112 329.045C165.062 329.005 165.022 328.945 165.032 328.885C165.042 328.785 165.222 326.655 166.082 325.955C166.282 325.775 166.562 325.695 166.822 325.725C167.092 325.725 167.332 325.915 167.392 326.185C167.542 326.965 166.062 328.595 165.302 329.015H165.222C165.172 329.035 165.142 329.045 165.112 329.045ZM166.292 326.155C165.772 326.825 165.462 327.625 165.412 328.475C166.172 327.905 167.122 326.665 167.022 326.185C167.012 326.135 166.992 326.005 166.772 326.005H166.692C166.542 326.005 166.402 326.065 166.292 326.155Z" fill="#407BFF"/>
<path opacity="0.2" d="M157.632 313.141L165.272 313.951L164.522 322.451L156.882 321.641L157.632 313.141Z" fill="black"/>
<path d="M121.722 161.453H161.022C164.762 181.863 176.452 254.073 168.062 318.413L154.752 316.763C154.752 316.763 155.982 231.343 144.232 199.763C142.882 216.663 141.272 234.643 139.882 244.213C136.462 267.763 129.142 319.233 129.142 319.233H115.612C115.612 319.233 118.382 269.973 119.662 246.823C121.062 221.703 121.672 166.613 121.722 161.453Z" fill="#263238"/>
<path d="M169.592 321.51L153.122 319.06L153.632 314.5L170.762 316.75L169.592 321.51Z" fill="#407BFF"/>
<path d="M130.792 319.346H114.812V314.576L131.392 314.266L130.792 319.346Z" fill="#407BFF"/>
<path opacity="0.2" d="M144.252 199.771C145.982 204.421 147.422 210.241 148.642 216.771C149.742 201.731 145.342 185.781 145.342 185.781L144.252 199.771Z" fill="black"/>
<path d="M120.612 168.289L119.712 173.039C119.712 173.039 147.212 176.599 164.322 176.499L163.732 173.239L120.612 168.289Z" fill="#407BFF"/>
<path d="M176.442 127.165C176.442 127.165 185.962 157.155 192.462 159.115C198.962 161.075 215.512 136.325 215.512 136.325C215.512 136.325 230.342 136.185 231.002 135.165C231.662 134.155 227.152 123.715 226.062 123.695C224.982 123.675 212.072 128.555 211.572 129.365C211.072 130.175 196.262 144.345 195.532 143.945C194.812 143.545 189.212 125.695 189.212 125.695L176.442 127.165Z" fill="#B97964"/>
<path d="M217.402 134.755C217.532 134.725 217.652 134.705 217.762 134.665C217.702 134.625 217.642 134.595 217.592 134.555C217.522 134.625 217.472 134.685 217.402 134.755Z" fill="#B97964"/>
<path d="M171.042 123.693L172.202 125.833L177.622 135.843L178.742 137.903L193.932 132.623C193.932 132.623 187.622 109.043 185.432 106.633L171.042 123.693Z" fill="#407BFF"/>
<path opacity="0.4" d="M171.042 123.693L172.202 125.833L177.622 135.843L178.742 137.903L193.932 132.623C193.932 132.623 187.622 109.043 185.432 106.633L171.042 123.693Z" fill="white"/>
<path opacity="0.2" d="M172.202 125.833L177.622 135.843C180.962 129.263 179.992 120.273 179.992 120.273L172.202 125.833Z" fill="black"/>
<path d="M185.422 106.631C185.422 106.631 177.432 96.2311 162.542 95.5311C147.652 94.8311 142.982 96.3111 137.532 101.171C129.582 108.271 119.712 169.421 119.712 169.421C119.712 169.421 140.512 175.851 164.332 174.271C164.332 174.271 164.512 157.301 169.882 145.851C180.332 123.601 185.422 106.631 185.422 106.631Z" fill="#407BFF"/>
<path opacity="0.4" d="M119.712 169.412C119.712 169.412 140.512 175.842 164.332 174.272C164.332 174.272 164.352 172.182 164.612 168.962C164.732 167.442 164.912 165.662 165.172 163.752C165.432 161.772 165.772 159.632 166.222 157.462C166.462 156.292 166.732 155.112 167.032 153.932C167.762 151.132 168.692 148.352 169.872 145.852C170.532 144.442 171.172 143.062 171.792 141.692C172.872 139.322 173.882 137.002 174.832 134.792C176.822 130.142 178.532 125.892 179.952 122.172C180.972 119.502 181.852 117.112 182.582 115.062C183.392 112.782 184.032 110.902 184.502 109.502C185.112 107.652 185.412 106.632 185.412 106.632C185.412 106.632 184.872 105.932 183.802 104.872C180.832 101.922 173.762 96.2219 163.022 95.5619C162.862 95.5419 162.692 95.5319 162.532 95.5219C151.192 94.9919 145.772 95.7219 141.432 98.2519C140.072 99.0419 138.822 100.002 137.522 101.162C136.632 101.952 135.712 103.422 134.802 105.422C133.282 108.692 131.742 113.352 130.262 118.682C130.042 119.472 129.822 120.292 129.602 121.112C128.622 124.822 127.662 128.772 126.762 132.772C126.502 133.902 126.252 135.042 126.002 136.182C125.632 137.922 125.262 139.652 124.902 141.362C124.002 145.672 123.192 149.852 122.482 153.612C121.472 159.022 120.672 163.542 120.202 166.342C119.892 168.302 119.712 169.412 119.712 169.412ZM163.412 96.1119C164.462 96.1519 165.482 96.2319 166.392 96.3519C170.432 96.8919 176.542 100.092 176.382 101.622C176.222 103.152 173.892 107.022 167.912 106.082C165.852 105.762 163.852 104.822 162.112 103.662C158.802 101.482 156.402 98.5319 156.162 97.5719C155.892 96.4319 159.772 96.0019 163.412 96.1119Z" fill="white"/>
<path d="M150.582 116.484C150.582 116.484 142.672 135.554 141.092 151.384L162.392 154.104C162.392 154.104 171.962 128.344 173.932 120.284C173.932 120.274 156.912 118.574 150.582 116.484Z" fill="#407BFF"/>
<path opacity="0.4" d="M169.772 121.016L172.732 121.316L170.562 122.996L169.772 121.016Z" fill="white"/>
<path d="M158.172 97.6C159.782 102.2 165.772 104.3 168.912 104.57C173.322 104.94 174.612 101.48 174.612 101.48C174.612 101.48 171.032 99.7 171.382 97.68C171.592 96.51 172.142 95.36 172.862 94.26C173.232 93.68 173.652 93.11 174.092 92.57L168.342 80.25C167.052 85.62 163.122 95.88 158.172 97.6Z" fill="#B97964"/>
<path opacity="0.2" d="M168.102 85.9688C165.362 91.9387 169.232 96.0987 171.372 97.6787C171.582 96.5087 172.132 95.3588 172.852 94.2588L168.102 85.9688Z" fill="black"/>
<path d="M187.382 69.9613C187.382 69.9613 189.222 80.1212 183.922 84.1912C178.622 88.2712 178.082 69.2812 178.082 69.2812L187.382 69.9613Z" fill="#B97964"/>
<path opacity="0.4" d="M187.382 69.9613C187.382 69.9613 189.222 80.1212 183.922 84.1912C178.622 88.2712 178.082 69.2812 178.082 69.2812L187.382 69.9613Z" fill="black"/>
<path d="M168.432 92.7451C171.162 96.4451 175.482 97.3151 179.162 96.0351C181.532 95.2151 183.642 93.4951 184.912 91.0751C185.082 90.7551 185.232 90.4251 185.372 90.0851C187.862 83.7751 188.422 68.3751 181.692 68.9451C176.182 69.4151 170.772 67.7051 167.962 72.4851C167.152 73.8351 166.682 75.3651 166.582 76.9451C165.982 84.2551 165.282 88.5251 168.432 92.7451Z" fill="#B97964"/>
<path d="M177.312 80.5303C177.192 81.1103 177.472 81.6403 177.862 81.7003C178.252 81.7603 178.632 81.3103 178.712 80.7303C178.802 80.1403 178.542 79.6203 178.162 79.5603C177.782 79.5003 177.402 79.9303 177.312 80.5303Z" fill="#263238"/>
<path d="M184.002 81.4831C183.882 82.0631 184.172 82.5931 184.552 82.6531C184.932 82.7031 185.322 82.2631 185.402 81.6831C185.492 81.0931 185.232 80.5731 184.852 80.5131C184.472 80.4531 184.082 80.9131 184.002 81.4831Z" fill="#263238"/>
<path d="M181.832 81.4688C182.282 83.3787 182.992 85.2187 183.942 86.9287C183.032 87.3987 181.972 87.4487 181.022 87.0587L181.832 81.4688Z" fill="#A24E3F"/>
<path d="M175.552 78.0733C175.682 78.1133 175.812 78.0733 175.912 77.9833C176.532 77.3433 177.412 77.0233 178.302 77.1333C178.492 77.1733 178.672 77.0533 178.712 76.8633C178.752 76.6733 178.632 76.4933 178.442 76.4533C177.322 76.2833 176.202 76.6733 175.422 77.4833C175.282 77.6133 175.272 77.8333 175.402 77.9733C175.402 77.9733 175.402 77.9733 175.412 77.9833C175.452 78.0233 175.502 78.0533 175.552 78.0733Z" fill="#263238"/>
<path d="M187.202 79.5815C187.262 79.6215 187.332 79.6315 187.402 79.6215C187.582 79.5615 187.692 79.3715 187.632 79.1915C187.632 79.1915 187.632 79.1915 187.632 79.1815C187.312 78.1015 186.482 77.2415 185.412 76.8715C185.222 76.8215 185.032 76.9315 184.982 77.1115C184.932 77.3015 185.042 77.4815 185.232 77.5415C186.072 77.8515 186.712 78.5415 186.962 79.3915C187.012 79.4915 187.102 79.5615 187.202 79.5815Z" fill="#263238"/>
<path d="M176.382 87.3203C176.382 87.3203 177.612 89.9603 180.112 89.8603" stroke="#263238" stroke-width="0.5" stroke-miterlimit="10" stroke-linecap="round" stroke-linejoin="round"/>
<path d="M173.192 68.6328L173.282 71.8928C172.172 72.3528 171.422 73.4928 171.792 74.8028C172.582 77.6028 170.652 81.6628 168.412 83.1428C168.412 83.1428 168.462 81.9628 167.442 82.1528C166.422 82.3428 166.132 88.4728 167.782 91.5628C167.782 91.5628 164.242 88.3128 163.192 81.7428C162.222 75.6728 162.392 71.8228 163.252 68.9128L173.192 68.6328Z" fill="#B97964"/>
<path opacity="0.4" d="M173.192 68.6328L173.282 71.8928C172.172 72.3528 171.422 73.4928 171.792 74.8028C172.582 77.6028 170.652 81.6628 168.412 83.1428C168.412 83.1428 168.462 81.9628 167.442 82.1528C166.422 82.3428 166.132 88.4728 167.782 91.5628C167.782 91.5628 164.242 88.3128 163.192 81.7428C162.222 75.6728 162.392 71.8228 163.252 68.9128L173.192 68.6328Z" fill="black"/>
<path d="M162.622 72.5425C162.622 72.5425 166.782 73.1825 173.292 71.8925C183.372 69.8825 187.652 73.5924 187.652 73.5924C187.652 73.5924 190.042 71.5324 189.752 68.6324C189.452 65.7324 185.432 65.2324 185.432 65.2324C185.432 65.2324 184.222 61.9724 181.542 60.9824C178.872 59.9924 176.192 62.4625 176.192 62.4625C176.192 62.4625 172.862 59.2524 168.982 60.1624C164.222 61.2824 164.332 65.8225 164.332 65.8225C164.332 65.8225 159.782 66.2924 159.882 68.6224C159.972 70.9724 162.622 72.5425 162.622 72.5425Z" fill="#263238"/>
<path d="M178.092 84.7822C179.898 84.7822 181.362 83.0943 181.362 81.0122C181.362 78.9301 179.898 77.2422 178.092 77.2422C176.286 77.2422 174.822 78.9301 174.822 81.0122C174.822 83.0943 176.286 84.7822 178.092 84.7822Z" stroke="#263238" stroke-width="0.5" stroke-miterlimit="10" stroke-linecap="round" stroke-linejoin="round"/>
<path d="M189.582 81.5747C189.582 83.6547 188.122 85.3447 186.312 85.3447C184.512 85.3447 183.042 83.6547 183.042 81.5747C183.042 79.4947 184.502 77.8047 186.312 77.8047C188.112 77.8147 189.582 79.4947 189.582 81.5747Z" stroke="#263238" stroke-width="0.5" stroke-miterlimit="10" stroke-linecap="round" stroke-linejoin="round"/>
<path d="M181.352 81.4742C181.352 81.4742 182.402 80.8142 183.042 81.5842" stroke="#263238" stroke-width="0.5" stroke-miterlimit="10" stroke-linecap="round" stroke-linejoin="round"/>
<path d="M174.822 81.011L169.082 80.251C168.332 80.151 167.572 80.361 166.982 80.821L166.732 81.011" stroke="#263238" stroke-width="0.5" stroke-miterlimit="10" stroke-linecap="round" stroke-linejoin="round"/>
<path d="M162.562 82.4387C163.132 84.1987 164.382 85.6587 166.032 86.4987C168.222 87.5987 169.782 85.7487 169.572 83.4387C169.362 81.3887 167.992 78.2787 165.602 78.1687C163.202 78.0487 161.892 80.2687 162.562 82.4387Z" fill="#B97964"/>
<path opacity="0.2" d="M126.022 136.194C135.452 132.274 142.922 116.084 142.922 116.084L137.562 112.844L130.282 118.694C130.062 119.484 129.842 120.304 129.622 121.124C128.642 124.834 127.682 128.784 126.782 132.784C126.522 133.914 126.272 135.064 126.022 136.194Z" fill="black"/>
<path d="M178.012 137.912L194.292 131.922L194.752 133.312L178.472 139.112L178.012 137.912Z" fill="#407BFF"/>
<path d="M135.81 179.081L88.6179 171.594L84 200.701L131.192 208.188L135.81 179.081Z" fill="#407BFF"/>
<path d="M105.322 182.664L95.7422 187.634L103.322 195.324" stroke="white" stroke-width="2" stroke-miterlimit="10" stroke-linecap="round" stroke-linejoin="round"/>
<path d="M114.492 197.098L124.072 192.128L116.502 184.438" stroke="white" stroke-width="2" stroke-miterlimit="10" stroke-linecap="round" stroke-linejoin="round"/>
<path d="M106.662 195.856L113.162 183.906" stroke="white" stroke-width="2" stroke-miterlimit="10" stroke-linecap="round" stroke-linejoin="round"/>
<path d="M131.912 103.773C131.912 103.773 114.132 121.623 111.702 125.103C109.272 128.573 104.642 167.043 104.642 167.043C104.642 167.043 103.662 167.383 103.582 168.213C103.502 169.043 103.422 179.843 103.582 180.343C103.742 180.843 111.932 185.893 113.132 184.693C114.332 183.493 116.022 171.263 116.022 171.263L111.712 167.043C111.712 167.043 116.732 138.713 119.872 134.123C123.012 129.543 135.972 119.713 135.972 119.713L131.912 103.773Z" fill="#B97964"/>
<path d="M145.582 96.5938C148.172 102.084 146.202 113.644 141.432 117.724C134.202 123.894 125.442 129.194 125.442 129.194L116.702 117.764C116.702 117.764 125.982 108.704 131.602 103.484C138.432 97.1338 145.582 96.5938 145.582 96.5938Z" fill="#407BFF"/>
<path opacity="0.4" d="M145.582 96.5938C148.172 102.084 146.202 113.644 141.432 117.724C134.202 123.894 125.442 129.194 125.442 129.194L116.702 117.764C116.702 117.764 125.982 108.704 131.602 103.484C138.432 97.1338 145.582 96.5938 145.582 96.5938Z" fill="white"/>
<path d="M116.702 117.023L115.622 118.503L124.732 130.413L126.022 129.493L116.702 117.023Z" fill="#407BFF"/>
</g>
<defs>
<clipPath id="clip0_1992_6138">
<rect width="690" height="350" fill="white"/>
</clipPath>
</defs>
</svg>
