<svg width="690" height="350" viewBox="0 0 690 350" fill="none" xmlns="http://www.w3.org/2000/svg">
<g clip-path="url(#clip0_2638_7596)">
<path d="M591.507 0H99.1875V19.7492H591.507V0Z" fill="url(#paint0_linear_2638_7596)"/>
<path d="M591.516 19.7578H99.1875V281.621H591.516V19.7578Z" fill="url(#paint1_linear_2638_7596)"/>
<path d="M591.516 19.7578H99.1875V43.6978H591.516V19.7578Z" fill="url(#paint2_linear_2638_7596)"/>
<path d="M591.516 43.6953H99.1875V127.906H591.516V43.6953Z" fill="#3A0CA3"/>
<path d="M116.1 9.87827C116.1 10.8834 115.801 11.866 115.242 12.7012C114.683 13.5363 113.888 14.1866 112.958 14.5693C112.029 14.9521 111.007 15.0501 110.022 14.851C109.036 14.6519 108.132 14.1645 107.424 13.4509C106.717 12.7372 106.237 11.8294 106.046 10.8425C105.855 9.85568 105.961 8.8343 106.351 7.90801C106.742 6.98171 107.398 6.19224 108.238 5.63975C109.078 5.08727 110.063 4.79668 111.068 4.80486C112.406 4.81574 113.686 5.35505 114.629 6.30533C115.571 7.2556 116.1 8.53983 116.1 9.87827Z" fill="url(#paint3_linear_2638_7596)"/>
<path d="M135.398 9.87811C135.399 10.8835 135.103 11.8668 134.545 12.7036C133.988 13.5403 133.195 14.193 132.266 14.5788C131.338 14.9647 130.316 15.0665 129.33 14.8714C128.343 14.6762 127.437 14.1929 126.726 13.4826C126.014 12.7722 125.529 11.8668 125.333 10.8808C125.136 9.89481 125.236 8.87264 125.62 7.9436C126.005 7.01457 126.656 6.22043 127.492 5.66168C128.328 5.10294 129.311 4.8047 130.316 4.80469C130.983 4.80361 131.644 4.93403 132.26 5.18851C132.877 5.44299 133.437 5.81652 133.909 6.28774C134.381 6.75896 134.755 7.31862 135.011 7.93469C135.266 8.55076 135.398 9.21116 135.398 9.87811Z" fill="url(#paint4_linear_2638_7596)"/>
<path d="M154.686 9.8781C154.686 10.8815 154.388 11.8624 153.831 12.6967C153.273 13.5311 152.481 14.1813 151.554 14.5653C150.627 14.9493 149.607 15.0498 148.623 14.854C147.639 14.6583 146.735 14.1751 146.025 13.4656C145.316 12.756 144.832 11.852 144.637 10.8679C144.441 9.88373 144.541 8.86364 144.925 7.93659C145.309 7.00954 145.96 6.21719 146.794 5.65971C147.628 5.10224 148.609 4.80469 149.612 4.80469C150.958 4.80469 152.248 5.33921 153.2 6.29066C154.151 7.24211 154.686 8.53255 154.686 9.8781Z" fill="url(#paint5_linear_2638_7596)"/>
<path opacity="0.36" d="M192.942 142.82H113.648V222.114H192.942V142.82Z" fill="url(#paint6_linear_2638_7596)"/>
<path opacity="0.36" d="M288.981 142.82H209.688V222.114H288.981V142.82Z" fill="url(#paint7_linear_2638_7596)"/>
<path opacity="0.36" d="M385.005 142.82H305.711V222.114H385.005V142.82Z" fill="url(#paint8_linear_2638_7596)"/>
<path opacity="0.36" d="M481.036 142.82H401.742V222.114H481.036V142.82Z" fill="url(#paint9_linear_2638_7596)"/>
<path opacity="0.36" d="M577.059 142.82H497.766V222.114H577.059V142.82Z" fill="url(#paint10_linear_2638_7596)"/>
<path opacity="0.36" d="M192.942 239.18H113.648V281.623H192.942V239.18Z" fill="url(#paint11_linear_2638_7596)"/>
<path opacity="0.36" d="M288.973 239.18H209.688V281.623H288.973V239.18Z" fill="url(#paint12_linear_2638_7596)"/>
<path opacity="0.36" d="M385.005 239.18H305.711V281.623H385.005V239.18Z" fill="url(#paint13_linear_2638_7596)"/>
<path opacity="0.36" d="M481.028 239.18H401.742V281.623H481.028V239.18Z" fill="url(#paint14_linear_2638_7596)"/>
<path opacity="0.36" d="M577.059 239.18H497.766V281.623H577.059V239.18Z" fill="url(#paint15_linear_2638_7596)"/>
<path d="M540.359 28H486.746C485.32 28 484.164 29.156 484.164 30.5821V32.8672C484.164 34.2932 485.32 35.4493 486.746 35.4493H540.359C541.785 35.4493 542.941 34.2932 542.941 32.8672V30.5821C542.941 29.156 541.785 28 540.359 28Z" fill="url(#paint16_linear_2638_7596)"/>
<path d="M162.203 28H108.59C107.164 28 106.008 29.156 106.008 30.5821V32.8672C106.008 34.2932 107.164 35.4493 108.59 35.4493H162.203C163.629 35.4493 164.785 34.2932 164.785 32.8672V30.5821C164.785 29.156 163.629 28 162.203 28Z" fill="url(#paint17_linear_2638_7596)"/>
<path d="M570.186 28H552.293C550.867 28 549.711 29.156 549.711 30.5821V32.8672C549.711 34.2932 550.867 35.4493 552.293 35.4493H570.186C571.612 35.4493 572.768 34.2932 572.768 32.8672V30.5821C572.768 29.156 571.612 28 570.186 28Z" fill="url(#paint18_linear_2638_7596)"/>
<path d="M654.71 335.523H36V350.001H654.71V335.523Z" fill="#212121"/>
<path style="mix-blend-mode:multiply" d="M512.627 69.6876L160.148 108.602L161.917 124.624L514.395 85.7097L512.627 69.6876Z" fill="url(#paint19_linear_2638_7596)"/>
<path d="M512.627 64.0939L160.148 103.008L161.917 119.03L514.395 80.116L512.627 64.0939Z" fill="white"/>
<path d="M174.593 113.32C173.61 113.428 172.618 113.242 171.741 112.787C170.863 112.331 170.141 111.625 169.665 110.758C169.189 109.892 168.98 108.904 169.066 107.919C169.151 106.934 169.526 105.996 170.145 105.225C170.763 104.453 171.596 103.882 172.538 103.584C173.481 103.286 174.491 103.274 175.44 103.55C176.39 103.826 177.236 104.377 177.872 105.133C178.509 105.89 178.906 106.818 179.015 107.801C179.156 109.118 178.771 110.438 177.942 111.472C177.114 112.506 175.91 113.171 174.593 113.32ZM173.603 104.163C172.781 104.253 172.003 104.585 171.369 105.117C170.735 105.649 170.273 106.357 170.042 107.151C169.811 107.946 169.82 108.791 170.07 109.58C170.319 110.369 170.796 111.067 171.442 111.584C172.088 112.102 172.873 112.416 173.697 112.488C174.522 112.559 175.349 112.384 176.074 111.985C176.799 111.586 177.389 110.981 177.77 110.247C178.151 109.512 178.306 108.681 178.215 107.859C178.09 106.758 177.535 105.752 176.671 105.06C175.807 104.367 174.704 104.045 173.603 104.163Z" fill="#231F20" stroke="#959DB3" stroke-miterlimit="10"/>
<path d="M171.436 112.11L168.852 115.336L169.495 115.852L172.079 112.626L171.436 112.11Z" fill="#231F20" stroke="#959DB3" stroke-miterlimit="10"/>
<path d="M460.195 88.2266L456.07 92.9865L472.652 128.517C473.361 129.078 484.613 124.252 485.414 124.623L460.195 88.2266Z" fill="url(#paint20_linear_2638_7596)"/>
<path d="M460.198 88.229L458.969 86.2656L452.139 86.8266L437.529 88.4765C436.939 88.5435 436.385 88.7946 435.945 89.1942L435.508 89.5902L447.882 90.1676L456.082 93.0302L460.198 88.229Z" fill="url(#paint21_linear_2638_7596)"/>
<path d="M507.651 328.719L507.535 323.959L498.016 321.047L498.28 326.821C499.765 328.001 501.134 329.42 502.817 330.121C504.341 329.394 505.974 328.92 507.651 328.719Z" fill="url(#paint22_linear_2638_7596)"/>
<path d="M507.809 335.521L507.652 328.715C507.097 328.787 506.547 328.889 506.003 329.02C503.528 329.614 500.772 328.822 498.331 326.867H498.281V327.04L478.994 333.962C478.408 334.259 478.73 335.529 479.39 335.521H507.809Z" fill="#3A0CA3"/>
<path d="M503.833 191.367L507.537 323.961L495.625 323.804L472.18 191.367H503.833Z" fill="#272727"/>
<path d="M467.764 328.714L468.399 323.954L458.5 323.797L458.723 326.833C460.01 328.012 461.198 329.431 462.732 330.132C464.329 329.411 466.025 328.933 467.764 328.714Z" fill="url(#paint23_linear_2638_7596)"/>
<path d="M468.397 335.521L467.762 328.715C467.201 328.789 466.631 328.888 466.112 329.02C464.805 329.299 463.45 329.247 462.169 328.872C460.887 328.496 459.719 327.807 458.77 326.867V327.04L438.377 333.995C437.742 334.292 437.866 335.562 438.534 335.554L468.397 335.521Z" fill="#3A0CA3"/>
<path d="M483.318 194.469L470.762 323.961L458.471 323.804L452.094 194.469H483.318Z" fill="#272727"/>
<path d="M469.574 78.3619C469.664 78.9312 470.209 79.3024 470.696 79.5994C471.182 79.8963 471.735 80.1521 472.156 79.8469C472.29 79.7135 472.396 79.5538 472.465 79.3777C472.535 79.2017 472.567 79.0131 472.56 78.8239C472.626 78.1062 473.311 75.4746 471.925 75.5241C471.108 75.5241 469.409 77.5287 469.574 78.3619Z" fill="#FF8A65"/>
<path d="M471.713 75.5366C471.124 78.0216 470.812 80.5641 470.781 83.1178C470.905 86.5166 471.771 86.6486 474.955 88.1913C475.307 88.3655 475.675 88.5063 476.053 88.612C476.492 88.7344 476.943 88.8145 477.397 88.8512H477.62C477.837 88.8678 478.055 88.8678 478.272 88.8512H478.775C478.857 88.8512 478.94 88.8512 479.023 88.81C479.122 89.7752 479.204 90.7733 479.295 91.7715C479.451 93.5534 479.6 95.3518 479.773 97.0759C483.18 98.3629 487.074 98.6268 490.3 96.9357C489.428 92.9473 488.808 88.9081 488.443 84.842C487.618 77.566 487.165 69.7785 487.618 68.2028C485.193 66.0579 479.468 64.3998 476.201 64.2266C475.382 65.5012 474.689 66.8522 474.131 68.2606C473.677 69.333 473.256 70.4797 472.868 71.6511C472.786 71.8903 472.72 72.1213 472.637 72.3688C472.637 72.41 472.637 72.4595 472.637 72.5008C472.258 73.5237 471.961 74.5549 471.713 75.5366Z" fill="url(#paint24_linear_2638_7596)"/>
<path style="mix-blend-mode:multiply" d="M481.231 87.0703C479.111 87.7385 477.18 88.8274 474.953 88.1922C476.215 88.805 477.637 89.0097 479.02 88.778C479.119 89.7431 479.21 90.7413 479.292 91.7395C480.085 90.2481 480.734 88.6847 481.231 87.0703Z" fill="url(#paint25_linear_2638_7596)"/>
<path d="M472.617 72.3674C473.212 72.3608 473.793 72.5523 474.267 72.9119C474.338 72.9829 474.435 73.0228 474.535 73.0228C474.636 73.0228 474.732 72.9829 474.803 72.9119C474.838 72.8774 474.866 72.8363 474.885 72.791C474.904 72.7457 474.913 72.697 474.913 72.6479C474.913 72.5988 474.904 72.5502 474.885 72.5049C474.866 72.4596 474.838 72.4185 474.803 72.3839C474.245 71.9412 473.567 71.6768 472.856 71.625C472.766 71.889 472.7 72.12 472.617 72.3674Z" fill="url(#paint26_linear_2638_7596)"/>
<path d="M505.83 194.463L504.725 181.306C503.743 169.336 490.297 151.558 490.297 151.558C487.046 136.321 509.444 115.524 504.717 104.033C499.585 91.5679 487.393 95.7257 473.781 97.8128C469.978 98.3902 449.264 121.695 460.78 132.906L452.102 194.463H505.83Z" fill="url(#paint27_linear_2638_7596)"/>
<path d="M497.321 103.343C500.461 102.962 503.579 102.411 506.66 101.693C507.74 98.7484 508.945 95.8033 507.592 93.18C506.346 90.7712 503.384 89.7647 501.768 87.5951C500.151 85.4255 500.118 82.431 500.58 79.7499C501.042 77.0688 501.809 74.3795 501.528 71.6819C500.992 66.5177 496.579 62.4425 491.629 60.7679C486.679 59.0932 478.075 57.4681 474.693 62.1785C471.476 66.6662 470.733 72.9028 473.464 77.803C474.874 80.3438 477.135 82.7032 477.052 85.607C476.953 89.212 473.373 91.5879 471.533 94.6814C470.202 96.9841 469.812 99.7121 470.444 102.296C479.115 104.54 488.544 104.309 497.321 103.343Z" fill="#272727"/>
<path d="M468.907 101.57L443.523 110.092C444.893 115.132 445.792 120.437 447.302 125.634L473.04 119.034L468.907 101.57Z" fill="url(#paint28_linear_2638_7596)"/>
<path d="M416.783 119.018L380.898 97.1484L376.773 101.908L408.971 130.567C410.424 131.7 412.117 132.485 413.92 132.861C415.724 133.237 417.589 133.195 419.374 132.737L447.265 125.617C445.755 120.42 444.856 115.116 443.487 110.075L416.783 119.018Z" fill="url(#paint29_linear_2638_7596)"/>
<path d="M380.902 97.1678L378.592 94.627C378.021 94.0007 377.315 93.5126 376.527 93.1996C375.74 92.8866 374.891 92.7569 374.046 92.8204L364.799 93.5051C365.077 93.9619 365.457 94.3484 365.909 94.6346C366.361 94.9207 366.873 95.0988 367.405 95.155L372.85 95.7654L358.232 97.4153C357.641 97.4802 357.086 97.7316 356.648 98.133L356.211 98.529L368.585 99.1065L376.785 101.969L380.902 97.1678Z" fill="url(#paint30_linear_2638_7596)"/>
<path d="M206.039 329.181L206.171 323.852L216.829 320.594L216.532 327.078C214.882 328.398 213.34 329.99 211.459 330.79C209.75 329.968 207.92 329.425 206.039 329.181Z" fill="url(#paint31_linear_2638_7596)"/>
<path d="M205.867 336.802L206.04 329.18C206.667 329.271 207.286 329.378 207.897 329.526C210.693 330.186 213.745 329.304 216.484 327.109H216.534V327.299L238.164 335.095C238.816 335.425 238.453 336.844 237.718 336.835L205.867 336.802Z" fill="#3A0CA3"/>
<path d="M227.773 217.609H194.602L195.072 223.879C195.297 226.899 196.137 229.841 197.542 232.524C198.946 235.206 200.885 237.573 203.239 239.479L225.397 257.421L206.167 323.846L216.826 323.673L246.796 257.421L227.773 217.609Z" fill="#272727"/>
<path d="M227.984 329.181L228.116 323.852L238.783 320.594L238.478 327.078C236.828 328.398 235.285 329.99 233.404 330.79C231.695 329.968 229.865 329.425 227.984 329.181Z" fill="url(#paint32_linear_2638_7596)"/>
<path d="M227.805 336.802L227.978 329.18C228.605 329.271 229.224 329.378 229.834 329.526C232.631 330.186 235.683 329.304 238.422 327.109H238.471V327.299L260.101 335.095C260.753 335.425 260.39 336.844 259.656 336.835L227.805 336.802Z" fill="#3A0CA3"/>
<path d="M249.718 217.609H216.547L216.893 223.054C217.091 226.072 217.9 229.018 219.273 231.713C220.646 234.407 222.553 236.794 224.879 238.728L252.341 261.505L228.113 323.846L238.779 323.673L273.732 261.505L249.718 217.609Z" fill="#272727"/>
<path d="M245.2 109.851C244.886 109.851 245.2 111.624 245.29 111.831C245.536 112.533 245.825 113.219 246.156 113.885C246.891 115.576 246.66 116.615 246.016 118.282L240.992 131.299L240.695 132.124L249.102 148.978C251.032 138.526 252.921 127.909 254.876 117.531C255.505 116.881 255.982 116.101 256.275 115.245C256.567 114.389 256.667 113.48 256.567 112.581C256.501 110.568 256.138 109.752 256.163 108.688L245.2 109.851Z" fill="url(#paint33_linear_2638_7596)"/>
<path d="M245.927 100.339C245.849 100.652 245.707 100.946 245.51 101.202C245.313 101.458 245.064 101.669 244.78 101.824C244.302 102.17 243.667 102.525 243.13 102.22C242.969 102.083 242.837 101.914 242.743 101.724C242.649 101.533 242.596 101.326 242.586 101.114C242.454 100.289 241.456 97.4432 243.007 97.3524C243.964 97.3029 246.026 99.39 245.927 100.339Z" fill="#E66800"/>
<path d="M243.281 97.3794C243.842 99.0293 244.296 100.63 244.593 101.941C244.84 102.912 244.959 103.91 244.947 104.911C244.952 104.991 244.952 105.071 244.947 105.15C244.947 105.266 244.947 105.39 244.906 105.497C244.731 106.787 244.27 108.022 243.556 109.111C242.843 110.2 241.895 111.116 240.781 111.791C240.403 112.013 240.005 112.201 239.594 112.352C239.116 112.53 238.621 112.657 238.117 112.732H237.869C237.626 112.764 237.381 112.781 237.135 112.781C236.954 112.781 236.772 112.781 236.582 112.781H236.294C236.294 113.87 236.294 114.984 236.244 116.081C236.244 118.077 236.244 120.098 236.17 122.045C232.474 123.778 228.152 124.405 224.406 122.796C225.032 118.268 225.374 113.705 225.429 109.135C225.668 100.943 225.536 92.2152 224.909 90.4911C227.384 87.8843 233.67 85.5414 237.284 85.0547C238.3 86.4111 239.189 87.8581 239.94 89.3774C240.542 90.5323 241.12 91.778 241.648 93.0484C241.755 93.3042 241.854 93.5599 241.961 93.8239C241.961 93.8734 242.011 93.9311 242.027 93.9724C242.506 95.1768 242.926 96.307 243.281 97.3794Z" fill="url(#paint34_linear_2638_7596)"/>
<path style="mix-blend-mode:multiply" d="M233.664 111.078C236.089 111.639 238.342 112.728 240.767 111.788C239.409 112.575 237.843 112.926 236.279 112.794C236.279 113.883 236.279 114.997 236.23 116.094C235.217 114.507 234.358 112.828 233.664 111.078Z" fill="url(#paint35_linear_2638_7596)"/>
<path style="mix-blend-mode:multiply" d="M240.026 103.998C241.393 105.096 243.128 105.63 244.877 105.492C244.877 105.376 244.877 105.261 244.918 105.145C243.224 105.299 241.538 104.787 240.216 103.718C240.042 103.578 239.861 103.858 240.026 103.998Z" fill="url(#paint36_linear_2638_7596)"/>
<path d="M218.125 95.5756C220.459 100.096 224.361 107.042 225.401 109.847C227.876 109.27 230.268 109.022 232.743 108.445C233.832 106.209 234.995 103.743 236.043 101.507C234.943 101.615 233.845 101.289 232.982 100.6C232.613 100.246 232.336 99.8086 232.175 99.3241C232.014 98.8396 231.974 98.3231 232.058 97.8195C232.153 97.3182 232.384 96.8527 232.726 96.4743C233.068 96.0958 233.508 95.8191 233.997 95.6746C234.987 95.4189 236.521 95.6746 237.057 96.5738C237.148 94.7837 236.051 91.8799 236.084 90.6095C237.841 89.6195 238.418 89.4545 239.384 88.2419C240.209 76.5689 225.904 83.6387 218.999 90.0238C218.267 90.7265 217.785 91.6498 217.627 92.6524C217.469 93.655 217.644 94.6818 218.125 95.5756Z" fill="#272727"/>
<path style="mix-blend-mode:multiply" d="M236.756 98.005C236.711 98.0203 236.663 98.0206 236.618 98.0057C236.573 97.9907 236.535 97.9615 236.508 97.9225C236.212 97.4538 235.754 97.1103 235.221 96.9573C234.962 96.8847 234.69 96.8707 234.424 96.9164C234.159 96.962 233.907 97.0662 233.687 97.2213C233.47 97.3718 233.297 97.5771 233.186 97.8162C233.074 98.0553 233.028 98.3196 233.052 98.5824C233.054 98.6106 233.051 98.639 233.043 98.6661C233.035 98.6931 233.021 98.7183 233.003 98.7401C232.985 98.762 232.963 98.78 232.938 98.7933C232.913 98.8066 232.886 98.8148 232.858 98.8175C232.83 98.8202 232.801 98.8174 232.774 98.8091C232.747 98.8008 232.722 98.7873 232.7 98.7693C232.678 98.7513 232.66 98.7292 232.647 98.7042C232.634 98.6792 232.625 98.6518 232.623 98.6237C232.597 98.2857 232.66 97.9471 232.805 97.6406C232.949 97.3342 233.171 97.0703 233.448 96.8748C233.719 96.6839 234.029 96.556 234.356 96.5004C234.683 96.4447 235.018 96.4627 235.337 96.5531C235.971 96.7298 236.518 97.1354 236.871 97.6915C236.888 97.7137 236.899 97.7392 236.906 97.7663C236.912 97.7934 236.912 97.8215 236.907 97.8487C236.901 97.8759 236.89 97.9017 236.874 97.9244C236.858 97.947 236.837 97.9661 236.813 97.9802C236.813 97.9802 236.772 97.9967 236.756 98.005Z" fill="url(#paint37_linear_2638_7596)"/>
<path d="M241.995 93.9022C241.331 93.9515 240.702 94.2182 240.205 94.6611C240.13 94.7453 240.026 94.7974 239.914 94.8067C239.801 94.8159 239.69 94.7815 239.603 94.7106C239.56 94.6749 239.525 94.6313 239.5 94.5821C239.475 94.5329 239.459 94.4791 239.455 94.4239C239.45 94.3688 239.456 94.3132 239.473 94.2605C239.49 94.2078 239.517 94.1589 239.553 94.1167C240.139 93.5723 240.875 93.216 241.665 93.0938C241.789 93.3825 241.888 93.6382 241.995 93.9022Z" fill="url(#paint38_linear_2638_7596)"/>
<path d="M205.3 128.495C205.3 128.495 196.292 202.154 193.157 216.211L192.844 217.614L250.342 218.752L256.554 130.021C256.584 127.85 255.981 125.718 254.819 123.884C253.658 122.05 251.988 120.594 250.013 119.693C235.832 113.522 226.32 112.062 212.329 117.729C210.222 118.625 208.43 120.127 207.178 122.044C205.927 123.96 205.273 126.206 205.3 128.495Z" fill="url(#paint39_linear_2638_7596)"/>
<path d="M268.376 117.078C260.877 118.844 248.874 121.492 245.055 121.714C246.908 127.226 248.075 132.944 248.528 138.741C257.425 137.064 266.215 134.86 274.852 132.142C274.514 126.441 272.55 120.98 268.376 117.078Z" fill="url(#paint40_linear_2638_7596)"/>
<path d="M293.915 89.1776C291.671 88.3729 289.273 88.0908 286.903 88.3527C287.027 94.7047 279.346 112.276 279.561 114.883C278.827 115.089 271.386 116.376 268.383 117.077C272.557 120.979 274.52 126.416 274.859 132.116C281.062 130.161 286.177 128.198 287.695 126.82C290.401 122.835 293.874 105.033 293.915 89.1776Z" fill="url(#paint41_linear_2638_7596)"/>
<path d="M287.65 91.5469C284.779 85.3931 283.625 78.5781 284.309 71.8224C284.366 71.2944 284.531 70.6592 285.051 70.5602C285.711 70.4282 286.066 71.3027 286.165 71.9709L287.155 78.9004C287.98 77.7785 288.648 76.7473 289.448 75.6006C291.506 75.4837 293.568 75.7637 295.52 76.4256C296.749 76.8711 298.044 77.5888 298.44 78.8344C298.528 79.1738 298.546 79.5275 298.493 79.8741C298.44 80.2206 298.317 80.5528 298.132 80.8505C297.947 81.1482 297.703 81.4053 297.416 81.6061C297.129 81.8069 296.803 81.9473 296.46 82.0187C296.537 83.6321 296.387 85.2483 296.015 86.8199C295.826 87.8928 295.39 88.9067 294.739 89.7805C294.089 90.6543 293.243 91.3638 292.269 91.8521" fill="url(#paint42_linear_2638_7596)"/>
<path d="M160 81.4295C158.581 81.7802 157.704 81.4449 156.917 80.2954L151.318 72.7635L150.508 71.7206L143.97 80.3203C143.223 81.3548 142.439 81.8051 141.045 81.4389L149.418 70.5107L141.622 60.6396C142.963 60.386 143.889 60.5151 144.712 61.6824L150.519 69.3079L156.369 61.7238C157.119 60.6893 157.924 60.2959 159.27 60.6775L156.247 64.5738L152.152 69.7583C151.665 70.3508 151.732 70.756 152.181 71.3284L160 81.4295ZM121.01 70.3282L121.695 67.0529C123.559 60.5708 131.201 57.8773 136.471 61.8826C139.551 64.2385 140.316 67.5707 140.164 71.3035H122.804C122.543 78.0226 127.517 82.0777 133.858 80.0086C136.082 79.2822 137.392 77.5888 138.048 75.47C138.381 74.4083 138.931 74.2424 139.958 74.5457C139.434 77.1954 138.251 79.409 135.753 80.7943C132.02 82.8681 126.692 82.1974 123.888 79.3154C122.219 77.6433 121.529 75.5245 121.219 73.2588C121.171 72.8843 121.073 72.5276 121 72.1686C121.007 71.5555 121.01 70.9425 121.01 70.3294V70.3282ZM122.835 69.8779H138.523C138.421 65.0194 135.309 61.5686 131.057 61.539C126.389 61.5034 123.038 64.8724 122.835 69.8779Z" fill="white"/>
</g>
<defs>
<linearGradient id="paint0_linear_2638_7596" x1="345.352" y1="60.9553" x2="345.352" y2="12.3" gradientUnits="userSpaceOnUse">
<stop stop-color="#7209B7"/>
<stop offset="1" stop-color="#F72585"/>
</linearGradient>
<linearGradient id="paint1_linear_2638_7596" x1="345.352" y1="13.8429" x2="345.352" y2="341.322" gradientUnits="userSpaceOnUse">
<stop stop-color="#3A0CA3"/>
<stop offset="0.07" stop-color="#3C24AD"/>
<stop offset="0.24" stop-color="#4156C1"/>
<stop offset="0.41" stop-color="#457FD2"/>
<stop offset="0.57" stop-color="#489FDF"/>
<stop offset="0.73" stop-color="#4AB6E8"/>
<stop offset="0.87" stop-color="#4CC4EE"/>
<stop offset="1" stop-color="#4CC9F0"/>
</linearGradient>
<linearGradient id="paint2_linear_2638_7596" x1="184722" y1="3936.09" x2="184722" y2="343.665" gradientUnits="userSpaceOnUse">
<stop stop-color="#3A0CA3"/>
<stop offset="0.07" stop-color="#3C24AD"/>
<stop offset="0.24" stop-color="#4156C1"/>
<stop offset="0.41" stop-color="#457FD2"/>
<stop offset="0.57" stop-color="#489FDF"/>
<stop offset="0.73" stop-color="#4AB6E8"/>
<stop offset="0.87" stop-color="#4CC4EE"/>
<stop offset="1" stop-color="#4CC9F0"/>
</linearGradient>
<linearGradient id="paint3_linear_2638_7596" x1="111.027" y1="36.1281" x2="111.027" y2="11.1239" gradientUnits="userSpaceOnUse">
<stop offset="0.13" stop-color="#4CC9F0"/>
<stop offset="1" stop-color="white"/>
</linearGradient>
<linearGradient id="paint4_linear_2638_7596" x1="1287.21" y1="1219.53" x2="1287.21" y2="911.477" gradientUnits="userSpaceOnUse">
<stop offset="0.13" stop-color="#4CC9F0"/>
<stop offset="1" stop-color="white"/>
</linearGradient>
<linearGradient id="paint5_linear_2638_7596" x1="1541.96" y1="1217.55" x2="1541.96" y2="910.004" gradientUnits="userSpaceOnUse">
<stop offset="0.13" stop-color="#4CC9F0"/>
<stop offset="1" stop-color="white"/>
</linearGradient>
<linearGradient id="paint6_linear_2638_7596" x1="153.295" y1="387.508" x2="153.295" y2="192.21" gradientUnits="userSpaceOnUse">
<stop offset="0.13" stop-color="#4CC9F0"/>
<stop offset="1" stop-color="#4CFFDE"/>
</linearGradient>
<linearGradient id="paint7_linear_2638_7596" x1="20714.3" y1="43395.2" x2="20714.3" y2="24623.2" gradientUnits="userSpaceOnUse">
<stop offset="0.13" stop-color="#4CC9F0"/>
<stop offset="1" stop-color="#4CFFDE"/>
</linearGradient>
<linearGradient id="paint8_linear_2638_7596" x1="30040.9" y1="43395.2" x2="30040.9" y2="24623.2" gradientUnits="userSpaceOnUse">
<stop offset="0.13" stop-color="#4CC9F0"/>
<stop offset="1" stop-color="#4CFFDE"/>
</linearGradient>
<linearGradient id="paint9_linear_2638_7596" x1="39367.5" y1="43395.2" x2="39367.5" y2="24623.2" gradientUnits="userSpaceOnUse">
<stop offset="0.13" stop-color="#4CC9F0"/>
<stop offset="1" stop-color="#4CFFDE"/>
</linearGradient>
<linearGradient id="paint10_linear_2638_7596" x1="48693.4" y1="43395.2" x2="48693.4" y2="24623.2" gradientUnits="userSpaceOnUse">
<stop offset="0.13" stop-color="#4CC9F0"/>
<stop offset="1" stop-color="#4CFFDE"/>
</linearGradient>
<linearGradient id="paint11_linear_2638_7596" x1="11388.4" y1="22497.8" x2="11388.4" y2="17119" gradientUnits="userSpaceOnUse">
<stop offset="0.13" stop-color="#4CC9F0"/>
<stop offset="1" stop-color="#4CFFDE"/>
</linearGradient>
<linearGradient id="paint12_linear_2638_7596" x1="20712.2" y1="22497.8" x2="20712.2" y2="17119" gradientUnits="userSpaceOnUse">
<stop offset="0.13" stop-color="#4CC9F0"/>
<stop offset="1" stop-color="#4CFFDE"/>
</linearGradient>
<linearGradient id="paint13_linear_2638_7596" x1="30040.9" y1="22497.8" x2="30040.9" y2="17119" gradientUnits="userSpaceOnUse">
<stop offset="0.13" stop-color="#4CC9F0"/>
<stop offset="1" stop-color="#4CFFDE"/>
</linearGradient>
<linearGradient id="paint14_linear_2638_7596" x1="39362.7" y1="22497.8" x2="39362.7" y2="17119" gradientUnits="userSpaceOnUse">
<stop offset="0.13" stop-color="#4CC9F0"/>
<stop offset="1" stop-color="#4CFFDE"/>
</linearGradient>
<linearGradient id="paint15_linear_2638_7596" x1="48693.4" y1="22497.8" x2="48693.4" y2="17119" gradientUnits="userSpaceOnUse">
<stop offset="0.13" stop-color="#4CC9F0"/>
<stop offset="1" stop-color="#4CFFDE"/>
</linearGradient>
<linearGradient id="paint16_linear_2638_7596" x1="32415.6" y1="878.632" x2="36602.9" y2="878.632" gradientUnits="userSpaceOnUse">
<stop offset="0.13" stop-color="#4CC9F0"/>
<stop offset="1" stop-color="#4CFFDE"/>
</linearGradient>
<linearGradient id="paint17_linear_2638_7596" x1="5093.86" y1="878.632" x2="9281.75" y2="878.632" gradientUnits="userSpaceOnUse">
<stop offset="0.13" stop-color="#4CC9F0"/>
<stop offset="1" stop-color="#4CFFDE"/>
</linearGradient>
<linearGradient id="paint18_linear_2638_7596" x1="14907.9" y1="878.632" x2="15552.4" y2="878.632" gradientUnits="userSpaceOnUse">
<stop offset="0.13" stop-color="#4CC9F0"/>
<stop offset="1" stop-color="#4CFFDE"/>
</linearGradient>
<linearGradient id="paint19_linear_2638_7596" x1="53526.7" y1="3208.54" x2="205804" y2="3208.55" gradientUnits="userSpaceOnUse">
<stop stop-color="#3A0CA3"/>
<stop offset="0.07" stop-color="#3C24AD"/>
<stop offset="0.24" stop-color="#4156C1"/>
<stop offset="0.41" stop-color="#457FD2"/>
<stop offset="0.57" stop-color="#489FDF"/>
<stop offset="0.73" stop-color="#4AB6E8"/>
<stop offset="0.87" stop-color="#4CC4EE"/>
<stop offset="1" stop-color="#4CC9F0"/>
</linearGradient>
<linearGradient id="paint20_linear_2638_7596" x1="459.18" y1="101.005" x2="488.004" y2="130.39" gradientUnits="userSpaceOnUse">
<stop stop-color="#FFCCBC"/>
<stop offset="1" stop-color="#FFAB91"/>
</linearGradient>
<linearGradient id="paint21_linear_2638_7596" x1="13125.3" y1="1425.92" x2="13250.5" y2="1892" gradientUnits="userSpaceOnUse">
<stop stop-color="#FFCCBC"/>
<stop offset="1" stop-color="#FFAB91"/>
</linearGradient>
<linearGradient id="paint22_linear_2638_7596" x1="7864.08" y1="8801.91" x2="7986.45" y2="8876.27" gradientUnits="userSpaceOnUse">
<stop stop-color="#FFCCBC"/>
<stop offset="1" stop-color="#FFAB91"/>
</linearGradient>
<linearGradient id="paint23_linear_2638_7596" x1="6934.87" y1="8203.73" x2="7033.96" y2="8278.99" gradientUnits="userSpaceOnUse">
<stop stop-color="#FFCCBC"/>
<stop offset="1" stop-color="#FFAB91"/>
</linearGradient>
<linearGradient id="paint24_linear_2638_7596" x1="-13814.7" y1="6927.84" x2="-13973.1" y2="6866.36" gradientUnits="userSpaceOnUse">
<stop stop-color="#FFCCBC"/>
<stop offset="1" stop-color="#FFAB91"/>
</linearGradient>
<linearGradient id="paint25_linear_2638_7596" x1="-1107.46" y1="1143.23" x2="-1095.83" y2="1144.67" gradientUnits="userSpaceOnUse">
<stop stop-color="#FFCCBC"/>
<stop offset="1" stop-color="#FFAB91"/>
</linearGradient>
<linearGradient id="paint26_linear_2638_7596" x1="-950.786" y1="7.52337" x2="-951.379" y2="-5.77423" gradientUnits="userSpaceOnUse">
<stop stop-color="#7209B7"/>
<stop offset="1" stop-color="#F72585"/>
</linearGradient>
<linearGradient id="paint27_linear_2638_7596" x1="29050.3" y1="24719.2" x2="25083.3" y2="20484.2" gradientUnits="userSpaceOnUse">
<stop offset="0.13" stop-color="#4CC9F0"/>
<stop offset="1" stop-color="#4CFFDE"/>
</linearGradient>
<linearGradient id="paint28_linear_2638_7596" x1="16090.9" y1="6111.72" x2="15407.6" y2="4462.7" gradientUnits="userSpaceOnUse">
<stop offset="0.13" stop-color="#4CC9F0"/>
<stop offset="1" stop-color="#4CFFDE"/>
</linearGradient>
<linearGradient id="paint29_linear_2638_7596" x1="31276.1" y1="6886.16" x2="32339.8" y2="9011.51" gradientUnits="userSpaceOnUse">
<stop stop-color="#FFCCBC"/>
<stop offset="1" stop-color="#FFAB91"/>
</linearGradient>
<linearGradient id="paint30_linear_2638_7596" x1="10668.8" y1="2008.52" x2="10886.5" y2="2606.41" gradientUnits="userSpaceOnUse">
<stop stop-color="#FFCCBC"/>
<stop offset="1" stop-color="#FFAB91"/>
</linearGradient>
<linearGradient id="paint31_linear_2638_7596" x1="212.8" y1="322.48" x2="201.062" y2="329.612" gradientUnits="userSpaceOnUse">
<stop stop-color="#E6883B"/>
<stop offset="1" stop-color="#E67315"/>
</linearGradient>
<linearGradient id="paint32_linear_2638_7596" x1="14851.8" y1="1230.92" x2="15016.5" y2="1230.92" gradientUnits="userSpaceOnUse">
<stop stop-color="#E6883B"/>
<stop offset="1" stop-color="#E67315"/>
</linearGradient>
<linearGradient id="paint33_linear_2638_7596" x1="4617.35" y1="8636.55" x2="2562.43" y2="9522.4" gradientUnits="userSpaceOnUse">
<stop stop-color="#E6883B"/>
<stop offset="1" stop-color="#E67315"/>
</linearGradient>
<linearGradient id="paint34_linear_2638_7596" x1="7057.1" y1="5911.01" x2="7237.77" y2="5826.56" gradientUnits="userSpaceOnUse">
<stop stop-color="#E6883B"/>
<stop offset="1" stop-color="#E67315"/>
</linearGradient>
<linearGradient id="paint35_linear_2638_7596" x1="-40.2551" y1="1441.81" x2="-54.7436" y2="1444.53" gradientUnits="userSpaceOnUse">
<stop stop-color="#E6883B"/>
<stop offset="1" stop-color="#E67315"/>
</linearGradient>
<linearGradient id="paint36_linear_2638_7596" x1="1465.48" y1="474.998" x2="1495.28" y2="474.998" gradientUnits="userSpaceOnUse">
<stop stop-color="#E6883B"/>
<stop offset="1" stop-color="#E67315"/>
</linearGradient>
<linearGradient id="paint37_linear_2638_7596" x1="1255.85" y1="552.535" x2="1278.18" y2="552.535" gradientUnits="userSpaceOnUse">
<stop stop-color="#E6883B"/>
<stop offset="1" stop-color="#E67315"/>
</linearGradient>
<linearGradient id="paint38_linear_2638_7596" x1="943.633" y1="192.277" x2="943.634" y2="174.253" gradientUnits="userSpaceOnUse">
<stop offset="0.13" stop-color="#4CC9F0"/>
<stop offset="1" stop-color="#4CFFDE"/>
</linearGradient>
<linearGradient id="paint39_linear_2638_7596" x1="12922.4" y1="28930.2" x2="28003.1" y2="29826.3" gradientUnits="userSpaceOnUse">
<stop stop-color="#3A0CA3"/>
<stop offset="0.07" stop-color="#3C24AD"/>
<stop offset="0.24" stop-color="#4156C1"/>
<stop offset="0.41" stop-color="#457FD2"/>
<stop offset="0.57" stop-color="#489FDF"/>
<stop offset="0.73" stop-color="#4AB6E8"/>
<stop offset="0.87" stop-color="#4CC4EE"/>
<stop offset="1" stop-color="#4CC9F0"/>
</linearGradient>
<linearGradient id="paint40_linear_2638_7596" x1="6346.9" y1="4979.36" x2="13281.3" y2="5910.09" gradientUnits="userSpaceOnUse">
<stop stop-color="#3A0CA3"/>
<stop offset="0.07" stop-color="#3C24AD"/>
<stop offset="0.24" stop-color="#4156C1"/>
<stop offset="0.41" stop-color="#457FD2"/>
<stop offset="0.57" stop-color="#489FDF"/>
<stop offset="0.73" stop-color="#4AB6E8"/>
<stop offset="0.87" stop-color="#4CC4EE"/>
<stop offset="1" stop-color="#4CC9F0"/>
</linearGradient>
<linearGradient id="paint41_linear_2638_7596" x1="8685.04" y1="8221.77" x2="6764.45" y2="9146.22" gradientUnits="userSpaceOnUse">
<stop stop-color="#E6883B"/>
<stop offset="1" stop-color="#E67315"/>
</linearGradient>
<linearGradient id="paint42_linear_2638_7596" x1="6673.95" y1="-2560.4" x2="6682.44" y2="-1267.41" gradientUnits="userSpaceOnUse">
<stop stop-color="#E6883B"/>
<stop offset="1" stop-color="#E67315"/>
</linearGradient>
<clipPath id="clip0_2638_7596">
<rect width="690" height="350" fill="white"/>
</clipPath>
</defs>
</svg>
