<svg width="690" height="350" viewBox="0 0 690 350" fill="none" xmlns="http://www.w3.org/2000/svg">
<g clip-path="url(#clip0_2233_217)">
<path d="M575.74 267.592C575.74 135.312 468.5 28.0625 336.21 28.0625C203.92 28.0625 96.6602 135.312 96.6602 267.592C96.659 275.674 97.0628 283.751 97.8702 291.792H574.51C575.324 283.751 575.735 275.675 575.74 267.592Z" fill="#FFD0CE"/>
<path d="M496.86 242.597L506.56 240.027L503.11 227.027L493.41 229.607C492.391 227.886 491.173 226.292 489.78 224.857L494.78 216.177L483.16 209.427L478.16 218.117C476.226 217.612 474.238 217.346 472.24 217.327L469.67 207.617L456.67 211.067L459.25 220.767C457.528 221.785 455.934 223.004 454.5 224.397L445.82 219.397L439.09 231.017L447.77 236.017C447.264 237.951 446.999 239.939 446.98 241.937L437.27 244.507L440.72 257.507L450.43 254.927C451.441 256.65 452.656 258.245 454.05 259.677L449.05 268.357L460.67 275.107L465.67 266.417C467.603 266.922 469.591 267.187 471.59 267.207L474.17 276.917L487.17 273.467L484.6 263.767C486.318 262.749 487.909 261.53 489.34 260.137L498.02 265.137L504.74 253.557L496.05 248.557C496.56 246.611 496.832 244.609 496.86 242.597ZM474.74 252.917C472.637 253.472 470.417 253.392 468.361 252.686C466.304 251.98 464.503 250.681 463.184 248.952C461.865 247.223 461.089 245.142 460.953 242.972C460.816 240.801 461.326 238.639 462.418 236.759C463.51 234.878 465.134 233.364 467.086 232.406C469.039 231.448 471.231 231.091 473.386 231.378C475.542 231.666 477.563 232.586 479.196 234.022C480.829 235.458 481.999 237.346 482.56 239.447C482.932 240.845 483.026 242.303 482.834 243.737C482.643 245.171 482.171 246.553 481.444 247.805C480.718 249.056 479.752 250.151 478.601 251.029C477.451 251.906 476.138 252.548 474.74 252.917Z" fill="#FF4800"/>
<path d="M602.109 16.1759L606.989 14.8859L605.259 8.34594L600.369 9.64594C599.866 8.77547 599.254 7.97238 598.549 7.25594L601.089 2.88594L595.239 -0.504059L592.739 3.86594C591.759 3.60951 590.752 3.47516 589.739 3.46593L588.439 -1.41406L581.909 0.315941L583.199 5.19594C582.331 5.70756 581.526 6.31833 580.799 7.01594L576.439 4.47594L573.039 10.3259L577.409 12.8659C577.157 13.8466 577.023 14.8536 577.009 15.8659L572.129 17.1659L573.869 23.6959L578.749 22.4059C579.258 23.2694 579.869 24.0684 580.569 24.7859L578.039 29.1559L583.879 32.5559L586.419 28.1859C587.4 28.4373 588.407 28.5715 589.419 28.5859L590.709 33.4659L597.249 31.7259L595.949 26.8459C596.817 26.3395 597.62 25.7283 598.339 25.0259L602.709 27.5559L606.099 21.7159L601.739 19.1559C601.983 18.1814 602.108 17.1807 602.109 16.1759ZM590.979 21.3659C589.919 21.6461 588.801 21.6058 587.764 21.2502C586.728 20.8945 585.82 20.2395 585.156 19.3679C584.492 18.4963 584.101 17.4473 584.033 16.3536C583.965 15.2599 584.223 14.1706 584.774 13.2235C585.325 12.2764 586.145 11.514 587.13 11.0328C588.114 10.5516 589.219 10.3732 590.305 10.5201C591.391 10.667 592.409 11.1327 593.23 11.8582C594.052 12.5837 594.639 13.5364 594.919 14.5959C595.106 15.2992 595.152 16.0324 595.055 16.7536C594.959 17.4748 594.72 18.1698 594.354 18.7988C593.988 19.4277 593.502 19.9782 592.922 20.4187C592.343 20.8593 591.683 21.1812 590.979 21.3659Z" fill="#FFB600"/>
<path d="M623.25 290.328H46.4805V303.288H623.25V290.328Z" fill="#FFB600"/>
<path d="M623.25 303.297H46.4805V352.677H623.25V303.297Z" fill="#FFB600"/>
<g style="mix-blend-mode:multiply" opacity="0.26">
<path d="M623.25 303.297H46.4805V314.807H623.25V303.297Z" fill="#FFB600"/>
</g>
<path d="M565.579 111.883H504.599C496.094 111.883 489.199 118.778 489.199 127.283V276.093C489.199 284.598 496.094 291.493 504.599 291.493H565.579C574.084 291.493 580.979 284.598 580.979 276.093V127.283C580.979 118.778 574.084 111.883 565.579 111.883Z" fill="#143498"/>
<path d="M577.211 125.727H492.961V272.987H577.211V125.727Z" fill="#E1E6FF"/>
<path d="M545.481 118.195H524.691V119.985H545.481V118.195Z" fill="#FDFEF7"/>
<path d="M540.742 281.012C540.742 282.131 540.41 283.225 539.788 284.156C539.166 285.087 538.282 285.812 537.248 286.241C536.214 286.669 535.076 286.781 533.978 286.563C532.88 286.344 531.871 285.805 531.08 285.014C530.288 284.222 529.749 283.214 529.531 282.116C529.312 281.018 529.424 279.88 529.853 278.846C530.281 277.811 531.007 276.927 531.937 276.305C532.868 275.684 533.962 275.352 535.082 275.352C536.582 275.354 538.02 275.951 539.081 277.012C540.142 278.073 540.739 279.511 540.742 281.012Z" fill="#0078C6"/>
<path d="M577.211 202.853L492.961 167.233V151.703L577.211 187.323V202.853Z" fill="white"/>
<path d="M577.211 247.801L492.961 212.181V196.641L577.211 232.261V247.801Z" fill="white"/>
<path d="M249.639 114.331L256.149 88.1409L239.739 84.0609C239.578 78.768 238.662 73.5251 237.019 68.4909L251.899 59.4909L237.929 36.4109L222.739 45.5809C219.063 42.0037 214.911 38.9515 210.399 36.5109L214.699 19.2209L188.469 12.7109L184.249 29.7109C179.001 29.6461 173.77 30.3193 168.709 31.7109L159.859 17.0109L136.739 30.9309L145.179 44.9309C141.116 48.7531 137.647 53.1619 134.889 58.0109L119.549 54.2009L113.039 80.3909L127.519 84.0109C127.327 89.9284 128.076 95.8387 129.739 101.521L117.339 109.011L131.249 132.131L143.339 124.851C147.571 129.238 152.497 132.897 157.919 135.681L154.529 149.321L180.739 155.821L184.199 141.901C190.178 141.845 196.11 140.833 201.769 138.901L209.359 151.511L232.479 137.591L224.479 124.301C228.366 120.2 231.604 115.53 234.079 110.451L249.639 114.331ZM208.739 98.2509C207.822 100.065 206.713 101.775 205.429 103.351C201.828 107.814 196.94 111.061 191.429 112.651C189.824 113.136 188.177 113.471 186.509 113.651C180.302 114.454 174.014 112.991 168.799 109.531C167.49 108.712 166.25 107.789 165.089 106.771C162.115 104.181 159.731 100.984 158.099 97.3934C156.467 93.8033 155.625 89.9046 155.629 85.9609C155.645 82.1146 156.434 78.3107 157.949 74.7753C159.465 71.24 161.675 68.0452 164.449 65.3809C167.999 62.0932 172.34 59.7814 177.049 58.6709C179.446 58.0535 181.914 57.7609 184.389 57.8009C186.412 57.8478 188.423 58.1127 190.389 58.5909C195.167 59.8712 199.541 62.3454 203.099 65.7809C206.256 68.8338 208.653 72.5841 210.099 76.7309C210.86 79.0315 211.318 81.4218 211.459 83.8409C211.721 86.7758 211.508 89.7337 210.829 92.6009C210.338 94.554 209.637 96.4483 208.739 98.2509Z" fill="#143498"/>
<path d="M297.472 93.1172H84.9317C77.9343 93.1172 72.2617 98.7897 72.2617 105.787V212.757C72.2617 219.755 77.9343 225.427 84.9317 225.427H297.472C304.469 225.427 310.142 219.755 310.142 212.757V105.787C310.142 98.7897 304.469 93.1172 297.472 93.1172Z" fill="#5C1F4E"/>
<path d="M302.049 114.938H80.3594V216.988H302.049V114.938Z" fill="#E1E6FF"/>
<path d="M226.892 130.414H89.5117V133.934H226.892V130.414Z" fill="white"/>
<path d="M226.892 138.867H89.5117V142.387H226.892V138.867Z" fill="white"/>
<path d="M226.892 147.305H89.5117V150.825H226.892V147.305Z" fill="white"/>
<path d="M226.892 155.758H89.5117V159.278H226.892V155.758Z" fill="white"/>
<path d="M226.892 164.203H89.5117V167.723H226.892V164.203Z" fill="white"/>
<path d="M186.822 179.336H89.5117V182.856H186.822V179.336Z" fill="white"/>
<path d="M186.822 185.203H89.5117V188.723H186.822V185.203Z" fill="white"/>
<path d="M186.822 191.078H89.5117V194.598H186.822V191.078Z" fill="white"/>
<path d="M186.822 196.953H89.5117V200.473H186.822V196.953Z" fill="white"/>
<path d="M288.83 179.336H191.52V182.856H288.83V179.336Z" fill="white"/>
<path d="M288.83 185.203H191.52V188.723H288.83V185.203Z" fill="white"/>
<path d="M288.83 191.078H191.52V194.598H288.83V191.078Z" fill="white"/>
<path d="M288.83 196.953H191.52V200.473H288.83V196.953Z" fill="white"/>
<path d="M92.8484 105.254C92.8504 105.918 92.6554 106.567 92.288 107.119C91.9207 107.671 91.3976 108.102 90.785 108.357C90.1725 108.612 89.4981 108.679 88.8473 108.55C88.1966 108.421 87.5987 108.102 87.1296 107.633C86.6605 107.164 86.3413 106.566 86.2123 105.915C86.0834 105.264 86.1506 104.59 86.4054 103.977C86.6601 103.365 87.0911 102.842 87.6435 102.474C88.1959 102.107 88.845 101.912 89.5084 101.914C90.3934 101.917 91.2415 102.269 91.8673 102.895C92.4931 103.521 92.8458 104.369 92.8484 105.254Z" fill="#FFB600"/>
<path d="M107.102 105.254C107.102 105.914 106.906 106.559 106.54 107.108C106.174 107.656 105.654 108.085 105.045 108.338C104.435 108.591 103.765 108.659 103.118 108.531C102.47 108.404 101.875 108.088 101.407 107.623C100.939 107.158 100.62 106.564 100.489 105.918C100.357 105.271 100.421 104.6 100.67 103.99C100.92 103.379 101.345 102.856 101.892 102.487C102.438 102.117 103.082 101.918 103.742 101.914C104.182 101.911 104.619 101.996 105.026 102.163C105.434 102.329 105.804 102.575 106.117 102.885C106.429 103.196 106.677 103.565 106.846 103.971C107.015 104.378 107.102 104.814 107.102 105.254Z" fill="#FFB600"/>
<path d="M121.352 105.254C121.352 105.915 121.156 106.56 120.789 107.11C120.422 107.659 119.9 108.087 119.29 108.34C118.68 108.593 118.008 108.659 117.36 108.53C116.712 108.401 116.117 108.083 115.65 107.616C115.183 107.149 114.865 106.554 114.736 105.906C114.607 105.258 114.673 104.586 114.926 103.976C115.179 103.366 115.607 102.844 116.156 102.477C116.706 102.11 117.351 101.914 118.012 101.914C118.45 101.914 118.885 102 119.29 102.168C119.695 102.336 120.063 102.582 120.374 102.892C120.684 103.202 120.93 103.571 121.098 103.976C121.265 104.381 121.352 104.815 121.352 105.254Z" fill="#FFB600"/>
<path d="M288.839 129.641H231.719V168.261H288.839V129.641Z" fill="#FFB600"/>
<path d="M394.961 194.014C394.289 192.575 393.136 191.415 391.701 190.734L355.351 173.824L335.521 173.734L315.701 173.824L279.961 190.604C278.349 191.386 277.057 192.7 276.301 194.324C273.701 199.714 259.961 245.164 252.061 271.584C249.281 280.874 255.541 290.444 264.401 290.444H405.321C414.061 290.444 420.321 281.114 417.751 271.884C410.411 245.384 397.471 199.244 394.961 194.014Z" fill="#041C77"/>
<path d="M315.69 173.844L315.66 290.474H355.39L355.35 173.844H315.69Z" fill="white"/>
<path d="M315.738 175.281C315.738 175.281 315.258 187.491 321.838 191.651L335.568 177.561C328.899 177.468 322.255 176.704 315.738 175.281Z" fill="#AEB7F4"/>
<path d="M355.349 175.297C348.838 176.711 342.201 177.471 335.539 177.567L349.369 191.657C355.939 187.497 355.349 175.297 355.349 175.297Z" fill="#AEB7F4"/>
<path d="M315.74 173.844C315.74 173.844 314.92 183.844 321.51 187.964L335.57 177.394C328.811 177.294 322.113 176.095 315.74 173.844Z" fill="white"/>
<path d="M355.349 173.844C348.981 176.091 342.291 177.29 335.539 177.394L349.589 188.014C356.179 183.804 355.349 173.844 355.349 173.844Z" fill="white"/>
<path d="M315.739 173.844L291.539 194.784L308.059 202.484L298.619 218.484C298.619 218.484 314.469 231.054 315.619 246.484L315.739 173.844Z" fill="#113598"/>
<path d="M355.391 173.844L379.551 194.784L363.031 202.484L372.471 218.484C372.471 218.484 356.621 231.054 355.471 246.484L355.391 173.844Z" fill="#113598"/>
<path d="M339.432 194.826L345.672 184.846L335.522 177.406L325.242 184.966L331.952 194.826L317.262 271.206L325.182 290.476H345.872L353.792 271.206L339.432 194.826Z" fill="#FF4800"/>
<path d="M381.969 210.195H288.969C286.155 210.195 283.457 211.313 281.467 213.303C279.477 215.293 278.359 217.991 278.359 220.805L281.219 290.475H389.739L392.599 220.805C392.599 219.41 392.324 218.029 391.79 216.74C391.255 215.452 390.472 214.281 389.485 213.296C388.497 212.31 387.325 211.529 386.036 210.997C384.746 210.465 383.364 210.193 381.969 210.195Z" fill="#AEB7F4"/>
<path d="M293.242 217.095H386.242C388.461 217.096 390.623 217.796 392.422 219.095C392.018 216.612 390.744 214.353 388.828 212.722C386.912 211.092 384.478 210.196 381.962 210.195H288.962C286.148 210.195 283.449 211.313 281.459 213.303C279.469 215.293 278.352 217.991 278.352 220.805L281.212 290.475H285.212L282.632 227.705C282.632 226.312 282.906 224.932 283.439 223.645C283.972 222.358 284.754 221.188 285.739 220.203C286.724 219.218 287.894 218.436 289.181 217.903C290.469 217.37 291.848 217.095 293.242 217.095Z" fill="#C3CCF4"/>
<path d="M343.071 243.233C343.071 244.637 342.655 246.01 341.875 247.177C341.094 248.345 339.986 249.255 338.688 249.792C337.391 250.33 335.963 250.47 334.586 250.196C333.209 249.922 331.944 249.246 330.951 248.253C329.958 247.26 329.281 245.995 329.008 244.618C328.734 243.241 328.874 241.813 329.412 240.516C329.949 239.218 330.859 238.11 332.027 237.329C333.194 236.549 334.567 236.133 335.971 236.133C337.854 236.133 339.66 236.881 340.992 238.212C342.323 239.544 343.071 241.35 343.071 243.233Z" fill="white"/>
<path d="M315.738 145.305V173.845C322.038 176.102 328.667 177.302 335.358 177.395C342.196 177.566 348.998 176.359 355.358 173.845V145.305H315.738Z" fill="#FFB1A5"/>
<path d="M355.021 151.471L354.241 152.271L353.801 152.691C353.541 152.941 353.291 153.181 353.031 153.411L352.561 153.821L351.801 154.461C351.641 154.591 351.481 154.721 351.311 154.841C351.141 154.961 350.821 155.231 350.571 155.411L350.061 155.771L349.351 156.261L348.811 156.611L348.131 157.031L347.561 157.361L346.931 157.721L346.321 158.041L345.761 158.331L345.101 158.641L344.621 158.871L343.901 159.171L343.511 159.331L342.721 159.641L342.451 159.741L341.541 160.051H341.451C340.451 160.381 339.561 160.611 338.781 160.791C337.607 161.059 336.406 161.193 335.201 161.191C334.801 161.191 334.401 161.191 334.001 161.121C333.361 161.061 332.731 160.981 332.121 160.891H331.961C331.361 160.791 330.781 160.691 330.201 160.571C327.09 159.935 324.105 158.786 321.371 157.171L321.241 157.091C320.711 156.771 320.241 156.441 319.701 156.091H319.641C318.252 155.099 316.959 153.977 315.781 152.741V155.941C316.961 157.177 318.254 158.302 319.641 159.301H319.701C320.201 159.651 320.701 159.991 321.241 160.301L321.371 160.371C324.103 161.99 327.088 163.14 330.201 163.771C330.781 163.891 331.361 164.001 331.961 164.091H332.121C332.731 164.181 333.361 164.261 334.001 164.321C334.401 164.361 334.801 164.381 335.201 164.381C336.392 164.395 337.58 164.271 338.741 164.011C339.521 163.841 340.421 163.601 341.411 163.281H341.501C341.801 163.181 342.101 163.081 342.411 162.961L342.681 162.861L343.471 162.561L343.861 162.401L344.581 162.091L345.061 161.871L345.721 161.551L346.281 161.271C346.481 161.161 346.691 161.061 346.891 160.941L347.521 160.591L348.091 160.261L348.771 159.831L349.311 159.491L350.021 159.001L350.531 158.631L351.271 158.071L351.761 157.681C352.021 157.481 352.271 157.261 352.521 157.041L352.991 156.641C353.251 156.411 353.501 156.161 353.761 155.921C354.021 155.681 354.061 155.641 354.201 155.491L354.981 154.691L355.311 154.341V151.141L355.021 151.471Z" fill="#FF8E89"/>
<path d="M310.439 125.407C309.864 126.822 308.883 128.034 307.619 128.891C306.355 129.748 304.866 130.211 303.34 130.221C301.813 130.232 300.317 129.789 299.042 128.95C297.767 128.111 296.769 126.912 296.175 125.506C295.581 124.099 295.417 122.548 295.704 121.049C295.991 119.55 296.717 118.169 297.789 117.082C298.86 115.994 300.23 115.249 301.726 114.941C303.221 114.632 304.774 114.774 306.189 115.347C307.128 115.729 307.984 116.291 308.706 117.003C309.428 117.715 310.003 118.563 310.398 119.497C310.793 120.431 310.999 121.434 311.006 122.448C311.013 123.462 310.82 124.468 310.439 125.407Z" fill="#FF8E89"/>
<path d="M375.739 122.736C375.165 124.15 374.183 125.362 372.92 126.219C371.656 127.076 370.167 127.539 368.64 127.549C367.114 127.56 365.618 127.117 364.343 126.278C363.068 125.439 362.07 124.24 361.476 122.834C360.882 121.427 360.718 119.876 361.005 118.377C361.292 116.878 362.018 115.497 363.089 114.41C364.161 113.323 365.531 112.577 367.026 112.269C368.521 111.96 370.075 112.102 371.489 112.676C372.43 113.056 373.286 113.618 374.009 114.33C374.732 115.041 375.308 115.889 375.702 116.823C376.097 117.758 376.304 118.761 376.31 119.776C376.316 120.79 376.122 121.796 375.739 122.736Z" fill="#FF8E89"/>
<path d="M366.028 106.894C369.948 150.114 347.088 159.204 338.818 161.064C337.253 161.428 335.639 161.54 334.038 161.394C297.038 157.864 305.208 103.484 305.208 103.484C305.208 103.484 308.908 80.7745 336.918 82.0945C336.918 82.0945 363.738 82.0145 366.028 106.894Z" fill="#FFB1A5"/>
<path d="M335.95 127.406L334.09 134.306H338.3" stroke="#FF8E89" stroke-width="0.75" stroke-miterlimit="10"/>
<path d="M359.499 136.284C359.501 137.533 359.132 138.755 358.44 139.794C357.747 140.833 356.762 141.643 355.608 142.122C354.455 142.601 353.185 142.727 351.96 142.484C350.735 142.24 349.61 141.639 348.727 140.756C347.844 139.873 347.243 138.748 347 137.523C346.757 136.298 346.882 135.028 347.361 133.875C347.84 132.722 348.65 131.736 349.689 131.044C350.729 130.351 351.95 129.982 353.199 129.984C354.87 129.984 356.472 130.648 357.654 131.83C358.835 133.011 359.499 134.614 359.499 136.284Z" fill="#FF8E89"/>
<path d="M324.081 136.286C324.089 137.534 323.726 138.757 323.039 139.799C322.352 140.841 321.371 141.656 320.22 142.141C319.07 142.625 317.801 142.758 316.576 142.521C315.35 142.285 314.222 141.69 313.334 140.812C312.446 139.934 311.839 138.813 311.589 137.59C311.339 136.367 311.457 135.097 311.929 133.941C312.401 132.785 313.205 131.795 314.239 131.097C315.274 130.398 316.492 130.022 317.741 130.016C319.413 130.008 321.019 130.664 322.208 131.839C323.397 133.015 324.07 134.614 324.081 136.286Z" fill="#FF8E89"/>
<path d="M324.459 125.347C324.457 125.7 324.35 126.046 324.152 126.339C323.954 126.632 323.674 126.86 323.347 126.993C323.02 127.127 322.66 127.161 322.314 127.091C321.967 127.021 321.649 126.85 321.4 126.599C321.15 126.348 320.981 126.029 320.913 125.682C320.844 125.335 320.88 124.976 321.016 124.65C321.152 124.323 321.381 124.044 321.675 123.848C321.97 123.652 322.315 123.547 322.669 123.547C322.905 123.547 323.138 123.594 323.356 123.684C323.574 123.775 323.772 123.907 323.938 124.075C324.105 124.242 324.236 124.44 324.326 124.659C324.415 124.877 324.46 125.111 324.459 125.347Z" fill="#2C3064"/>
<path d="M351.26 125.274C351.26 125.628 351.155 125.974 350.958 126.269C350.761 126.563 350.482 126.793 350.155 126.928C349.828 127.064 349.468 127.099 349.12 127.03C348.773 126.961 348.454 126.79 348.204 126.54C347.954 126.29 347.783 125.971 347.714 125.624C347.645 125.276 347.68 124.916 347.816 124.589C347.951 124.262 348.181 123.983 348.475 123.786C348.77 123.589 349.116 123.484 349.47 123.484C349.705 123.484 349.938 123.531 350.155 123.621C350.372 123.711 350.569 123.842 350.735 124.009C350.902 124.175 351.033 124.372 351.123 124.589C351.213 124.807 351.26 125.039 351.26 125.274Z" fill="#2C3064"/>
<path d="M315.122 118.014L329.732 117.694C328.776 116.718 327.627 115.954 326.357 115.45C325.087 114.947 323.726 114.717 322.362 114.774C320.992 114.788 319.64 115.085 318.391 115.646C317.142 116.207 316.022 117.02 315.102 118.034" fill="#001B5E"/>
<path d="M356.972 117.764L342.352 117.814C343.283 116.814 344.414 116.02 345.671 115.484C346.929 114.948 348.285 114.683 349.652 114.704C351.021 114.688 352.379 114.953 353.641 115.483C354.904 116.012 356.044 116.796 356.992 117.784" fill="#001B5E"/>
<path d="M342.352 142.633C341.736 144.115 340.696 145.382 339.361 146.274C338.026 147.165 336.457 147.641 334.852 147.641C333.246 147.641 331.677 147.165 330.342 146.274C329.008 145.382 327.967 144.115 327.352 142.633H342.352Z" fill="white"/>
<path d="M338.742 108.922C345.972 106.432 353.532 102.922 358.812 97.3722C359.969 96.1643 360.976 94.8213 361.812 93.3722C361.552 92.9822 361.292 92.6122 361.022 92.2422C360.364 93.2173 359.629 94.1371 358.822 94.9922C353.542 100.572 345.982 104.062 338.752 106.542C331.932 108.892 324.702 110.632 317.482 109.992C312.959 109.618 308.598 108.137 304.782 105.682C304.722 106.352 304.662 107.122 304.602 107.972C308.458 110.499 312.886 112.019 317.482 112.392C324.682 113.012 331.912 111.262 338.742 108.922Z" fill="#FF978F"/>
<path d="M353.93 90.1719C358.055 94.7277 360.768 100.383 361.74 106.452L365.51 128.252L367.91 112.252C368.96 105.252 370.18 97.4719 367.26 90.6719C365.613 86.7247 362.481 83.5824 358.54 81.9219L353.93 90.1719Z" fill="#001B5E"/>
<path d="M316.739 90.1719C312.628 94.7311 309.932 100.387 308.979 106.452L305.209 128.252L302.809 112.252C301.749 105.252 300.529 97.4719 303.449 90.6719C305.098 86.7222 308.233 83.5793 312.179 81.9219L316.739 90.1719Z" fill="#001B5E"/>
<path d="M304.3 106.094C308.214 108.737 312.743 110.325 317.45 110.704C324.67 111.344 331.9 109.604 338.72 107.254C345.95 104.774 353.51 101.254 358.79 95.7039C364.99 89.1639 365.64 80.6039 362.23 72.5739C360.29 67.9939 356.82 63.9539 351.62 62.6639C345.88 61.2439 339.46 63.5539 336.36 68.4239C335.36 69.9539 334.74 71.6939 333.46 72.9939C331.46 75.0939 328.46 75.5839 325.57 75.5939C323.07 75.5939 320.57 75.2839 318.09 75.3839C311.62 75.6439 305.31 79.3839 301.46 84.3039C299.804 86.2483 298.662 88.5769 298.138 91.0768C297.614 93.5766 297.724 96.168 298.46 98.6139C299.55 101.671 301.598 104.295 304.3 106.094Z" fill="#001B5E"/>
<path d="M494.781 54.7344H379.781V100.024H494.781V54.7344Z" fill="#143498"/>
<path d="M480.618 68.9766H394.898V72.8966H480.618V68.9766Z" fill="white"/>
<path d="M480.618 77.7578H394.898V81.6778H480.618V77.7578Z" fill="white"/>
<path d="M453.308 86.5312H394.898V90.4512H453.308V86.5312Z" fill="white"/>
<path d="M240.209 179.664H188.679C183.582 179.664 179.449 183.796 179.449 188.894V240.424C179.449 245.522 183.582 249.654 188.679 249.654H240.209C245.307 249.654 249.439 245.522 249.439 240.424V188.894C249.439 183.796 245.307 179.664 240.209 179.664Z" fill="#133596"/>
<path d="M243.909 193.555H184.969V242.205H243.909V193.555Z" fill="#F3F6FF"/>
<path d="M188.469 186.947C188.467 187.293 188.362 187.631 188.169 187.917C187.975 188.203 187.701 188.426 187.382 188.557C187.062 188.688 186.71 188.721 186.371 188.653C186.032 188.584 185.722 188.417 185.478 188.171C185.234 187.926 185.068 187.614 185.002 187.275C184.935 186.936 184.97 186.585 185.103 186.266C185.236 185.946 185.46 185.674 185.748 185.482C186.035 185.29 186.373 185.188 186.719 185.188C186.949 185.187 187.178 185.233 187.391 185.322C187.604 185.41 187.797 185.54 187.96 185.704C188.122 185.867 188.251 186.061 188.338 186.275C188.426 186.488 188.47 186.717 188.469 186.947Z" fill="#FFC154"/>
<path d="M194.981 186.948C194.981 187.296 194.877 187.637 194.684 187.926C194.49 188.216 194.214 188.442 193.892 188.574C193.57 188.707 193.216 188.742 192.874 188.673C192.532 188.604 192.219 188.436 191.973 188.188C191.727 187.941 191.56 187.627 191.494 187.285C191.427 186.943 191.463 186.588 191.598 186.267C191.733 185.946 191.96 185.671 192.25 185.479C192.541 185.287 192.882 185.186 193.231 185.188C193.696 185.19 194.141 185.377 194.469 185.707C194.797 186.036 194.981 186.482 194.981 186.948Z" fill="#FFC154"/>
<path d="M201.48 186.947C201.478 187.293 201.374 187.631 201.181 187.917C200.987 188.203 200.713 188.426 200.393 188.557C200.073 188.688 199.722 188.721 199.383 188.653C199.044 188.584 198.733 188.417 198.49 188.171C198.246 187.926 198.08 187.614 198.013 187.275C197.947 186.936 197.982 186.585 198.115 186.266C198.247 185.946 198.472 185.674 198.759 185.482C199.047 185.29 199.385 185.188 199.73 185.188C199.961 185.187 200.189 185.233 200.402 185.322C200.615 185.41 200.809 185.54 200.971 185.704C201.134 185.867 201.263 186.061 201.35 186.275C201.437 186.488 201.482 186.717 201.48 186.947Z" fill="#FFC154"/>
<path d="M203.729 231.457L191.359 219.087L203.899 206.547L206.009 208.647L195.569 219.087L205.839 229.357L203.729 231.457Z" fill="#FFB600"/>
<path d="M224.971 231.457L222.871 229.357L233.311 218.917L223.041 208.647L225.141 206.547L237.511 218.917L224.971 231.457Z" fill="#FFB600"/>
<path d="M217.597 207.994L208.539 229.852L211.283 230.989L220.341 209.131L217.597 207.994Z" fill="#FFB600"/>
<path d="M320.27 67.5822C319.861 67.581 319.458 67.4888 319.09 67.3122C318.304 66.9571 317.452 66.7735 316.59 66.7735C315.728 66.7735 314.875 66.9571 314.09 67.3122C313.452 67.6331 312.713 67.6875 312.035 67.4634C311.357 67.2393 310.796 66.7551 310.475 66.1172C310.154 65.4794 310.099 64.7402 310.324 64.0622C310.548 63.3843 311.032 62.8231 311.67 62.5022C313.194 61.7957 314.854 61.4297 316.535 61.4297C318.215 61.4297 319.875 61.7957 321.4 62.5022C321.948 62.7682 322.389 63.2123 322.652 63.7619C322.915 64.3115 322.983 64.9339 322.846 65.5275C322.709 66.121 322.375 66.6504 321.898 67.0292C321.42 67.4079 320.829 67.6135 320.22 67.6122L320.27 67.5822Z" fill="#FF4800"/>
<path d="M326.801 60.2859C326.246 60.2864 325.705 60.1152 325.251 59.7959C316.601 53.7359 308.321 59.6959 308.251 59.7959C307.968 60.0164 307.643 60.1778 307.296 60.2707C306.949 60.3636 306.587 60.3861 306.231 60.3369C305.876 60.2876 305.533 60.1677 305.225 59.9841C304.916 59.8005 304.647 59.5569 304.434 59.2678C304.221 58.9787 304.068 58.6498 303.985 58.3006C303.901 57.9514 303.888 57.589 303.946 57.2347C304.004 56.8803 304.133 56.5413 304.325 56.2375C304.516 55.9337 304.767 55.6714 305.061 55.4659C308.477 53.0777 312.544 51.7969 316.711 51.7969C320.879 51.7969 324.946 53.0777 328.361 55.4659C328.832 55.793 329.187 56.2621 329.373 56.8047C329.558 57.3474 329.566 57.9353 329.394 58.4825C329.222 59.0297 328.879 59.5076 328.417 59.8465C327.954 60.1853 327.395 60.3673 326.821 60.366L326.801 60.2859Z" fill="#FF4800"/>
<path d="M333.331 53.4558C332.734 53.4581 332.153 53.261 331.681 52.8958C315.681 40.5058 302.601 52.2358 302.051 52.7358C301.792 52.9767 301.488 53.1644 301.157 53.288C300.826 53.4117 300.474 53.4688 300.12 53.4563C299.767 53.4438 299.419 53.3618 299.098 53.215C298.776 53.0682 298.487 52.8595 298.246 52.6008C298.005 52.3421 297.817 52.0384 297.693 51.7072C297.57 51.376 297.513 51.0236 297.525 50.6703C297.538 50.317 297.62 49.9696 297.766 49.648C297.913 49.3263 298.122 49.0367 298.381 48.7958C298.551 48.6458 315.281 33.4058 334.981 48.6358C335.426 48.9791 335.752 49.4531 335.914 49.9914C336.076 50.5297 336.065 51.1052 335.883 51.637C335.701 52.1688 335.357 52.6302 334.899 52.9564C334.441 53.2826 333.893 53.4572 333.331 53.4558Z" fill="#FF4800"/>
<g style="mix-blend-mode:overlay">
<g style="mix-blend-mode:overlay">
<path d="M158.746 267.312C168.971 247.992 161.598 224.04 142.277 213.815C122.957 203.59 99.0055 210.963 88.7802 230.283C78.5549 249.603 85.9279 273.555 105.248 283.78C124.569 294.005 148.52 286.632 158.746 267.312Z" fill="#191919"/>
</g>
</g>
<path d="M147.403 276.128C162.86 260.671 162.86 235.61 147.403 220.153C131.946 204.696 106.886 204.696 91.4287 220.153C75.9717 235.61 75.9717 260.671 91.4287 276.128C106.886 291.585 131.946 291.585 147.403 276.128Z" fill="#00DBFF"/>
<path d="M147.398 230.297H91.6484V265.627H147.398V230.297Z" fill="#FBFFFD"/>
<path d="M119.151 255.774C117.087 255.776 115.069 255.166 113.353 254.02C111.636 252.875 110.297 251.246 109.507 249.34C108.716 247.434 108.509 245.336 108.911 243.312C109.313 241.288 110.307 239.428 111.766 237.969C113.225 236.51 115.084 235.516 117.109 235.114C119.133 234.712 121.231 234.919 123.137 235.71C125.043 236.501 126.672 237.839 127.817 239.556C128.963 241.272 129.573 243.29 129.571 245.354C129.566 248.116 128.466 250.763 126.513 252.716C124.56 254.669 121.913 255.769 119.151 255.774ZM119.151 235.874C117.276 235.872 115.442 236.426 113.881 237.467C112.321 238.507 111.104 239.987 110.385 241.719C109.666 243.451 109.477 245.358 109.842 247.197C110.207 249.037 111.109 250.727 112.434 252.054C113.759 253.381 115.449 254.285 117.288 254.651C119.127 255.018 121.034 254.831 122.766 254.113C124.499 253.396 125.98 252.181 127.023 250.622C128.065 249.063 128.621 247.229 128.621 245.354C128.618 242.842 127.62 240.434 125.845 238.657C124.07 236.88 121.663 235.879 119.151 235.874Z" fill="#FF4800"/>
<path d="M125.499 245.352L115.969 239.422V251.272L125.499 245.352Z" fill="#FF4800"/>
<path d="M146.051 260.016H93.0508V263.856H146.051V260.016Z" fill="#00DBFF"/>
<path d="M96.3802 261.962L94.4102 260.742V263.192L96.3802 261.962Z" fill="#FBFFFD"/>
<path d="M123.161 261.936C123.163 262.169 123.095 262.399 122.967 262.594C122.838 262.789 122.655 262.942 122.439 263.033C122.224 263.124 121.986 263.149 121.757 263.104C121.527 263.06 121.316 262.948 121.15 262.784C120.984 262.619 120.871 262.409 120.824 262.18C120.778 261.95 120.801 261.713 120.89 261.496C120.979 261.28 121.13 261.095 121.324 260.965C121.518 260.835 121.747 260.766 121.981 260.766C122.292 260.766 122.591 260.889 122.812 261.108C123.033 261.327 123.158 261.624 123.161 261.936Z" fill="#FBFFFD"/>
<path d="M170.888 276.216L170.948 284.306L161.648 285.436C162.338 286.417 163.155 287.301 164.078 288.066C165.436 289.254 167.086 290.059 168.858 290.396H169.118H169.288C169.461 290.411 169.635 290.411 169.808 290.396C171.296 290.369 172.755 289.984 174.062 289.273C175.369 288.563 176.486 287.549 177.318 286.316C177.932 285.434 178.408 284.462 178.728 283.436C179.108 283.576 220.248 283.026 220.568 282.916C221.08 284.981 222.257 286.82 223.918 288.148C225.579 289.477 227.632 290.221 229.758 290.266C232.898 290.266 236.008 287.496 237.758 284.946L228.578 283.816L228.518 275.726L237.818 274.596C237.129 273.616 236.311 272.731 235.388 271.966C234.031 270.778 232.381 269.974 230.608 269.636H230.348H230.178C230.009 269.621 229.838 269.621 229.668 269.636C228.179 269.662 226.719 270.047 225.41 270.757C224.101 271.467 222.982 272.482 222.148 273.716C221.535 274.599 221.059 275.57 220.738 276.596C220.358 276.456 179.218 277.006 178.898 277.116C178.387 275.052 177.21 273.213 175.549 271.884C173.887 270.556 171.835 269.811 169.708 269.766C166.568 269.766 163.458 272.536 161.708 275.086L170.888 276.216Z" fill="#5C1F4E"/>
<path d="M571.271 36.6743C570.434 34.6316 569.031 32.8703 567.228 31.5972C565.424 30.324 563.295 29.592 561.09 29.487C558.885 29.382 556.695 29.9084 554.779 31.0044C552.863 32.1004 551.299 33.7204 550.271 35.6743C549.386 33.8196 547.994 32.2531 546.257 31.156C544.519 30.0589 542.506 29.4759 540.451 29.4743C538.748 29.4745 537.068 29.8789 535.551 30.6543C534.629 28.5028 533.291 26.5544 531.615 24.9203C529.939 23.2863 527.957 21.9987 525.783 21.1312C523.608 20.2637 521.284 19.8334 518.944 19.8648C516.603 19.8962 514.291 20.3888 512.141 21.3143C511.687 14.5853 508.643 8.29415 503.648 3.76239C498.653 -0.769373 492.096 -3.18908 485.355 -2.98845C478.614 -2.78781 472.212 0.0175467 467.496 4.83834C462.779 9.65913 460.114 16.1202 460.061 22.8643C457.628 20.3062 454.593 18.3984 451.234 17.3152C447.874 16.232 444.296 16.0078 440.827 16.6632C437.358 17.3185 434.109 18.8326 431.376 21.067C428.643 23.3014 426.513 26.185 425.181 29.4543C423.402 27.9243 421.26 26.8769 418.96 26.4124C416.66 25.9479 414.279 26.082 412.046 26.8016C409.813 27.5213 407.802 28.8025 406.206 30.5225C404.61 32.2424 403.482 34.3435 402.931 36.6243C402.671 37.6882 402.537 38.779 402.531 39.8743C402.531 42.2677 403.158 44.6193 404.351 46.6943H570.641C571.498 45.1716 571.999 43.4751 572.108 41.7314C572.218 39.9877 571.931 38.2419 571.271 36.6243V36.6743Z" fill="white"/>
<path d="M538.559 69.8638H481.789V13.0938H538.559V69.8638ZM484.629 67.0137H535.739V15.9337H484.629V67.0137Z" fill="#FF4800"/>
<path d="M503.209 56.1559C502.996 56.1519 502.787 56.1004 502.596 56.0052C502.406 55.9101 502.24 55.7737 502.109 55.6059L491.829 42.3559C491.597 42.0589 491.492 41.6818 491.538 41.3077C491.584 40.9336 491.777 40.593 492.074 40.3609C492.371 40.1289 492.748 40.0243 493.122 40.0703C493.496 40.1162 493.837 40.3089 494.069 40.6059L503.279 52.4759L527.279 24.0259C527.525 23.7514 527.869 23.5836 528.237 23.5581C528.605 23.5326 528.969 23.6513 529.251 23.8892C529.533 24.127 529.711 24.4653 529.748 24.8324C529.785 25.1995 529.678 25.5666 529.449 25.8559L504.309 55.6459C504.174 55.8063 504.005 55.9352 503.815 56.0233C503.625 56.1114 503.418 56.1567 503.209 56.1559Z" fill="#FF4800"/>
<path d="M78.7389 255.844C78.7389 256.671 78.4935 257.48 78.0338 258.167C77.574 258.855 76.9206 259.391 76.1562 259.707C75.3918 260.023 74.5509 260.105 73.7397 259.943C72.9286 259.781 72.1838 259.382 71.5997 258.796C71.0155 258.211 70.6182 257.465 70.458 256.653C70.2979 255.842 70.3821 255.001 70.7 254.238C71.0179 253.474 71.5552 252.822 72.2439 252.364C72.9326 251.906 73.7418 251.662 74.5689 251.664C75.1174 251.664 75.6604 251.772 76.167 251.982C76.6736 252.193 77.1337 252.501 77.5211 252.889C77.9084 253.277 78.2154 253.738 78.4244 254.245C78.6333 254.752 78.7402 255.296 78.7389 255.844Z" fill="#143498"/>
<path d="M66.2308 159.274C68.5393 159.274 70.4108 157.403 70.4108 155.094C70.4108 152.786 68.5393 150.914 66.2308 150.914C63.9222 150.914 62.0508 152.786 62.0508 155.094C62.0508 157.403 63.9222 159.274 66.2308 159.274Z" fill="#143498"/>
<path d="M74.58 257.435H46V154.625H66.23V155.575H46.95V256.485H74.58V257.435Z" fill="#143498"/>
<path d="M283.649 86.2816C283.649 87.1087 283.404 87.9173 282.944 88.6049C282.484 89.2925 281.831 89.8283 281.066 90.1443C280.302 90.4604 279.461 90.5426 278.65 90.3805C277.839 90.2184 277.094 89.8193 276.51 89.2337C275.926 88.6481 275.528 87.9024 275.368 87.0909C275.208 86.2794 275.292 85.4386 275.61 84.675C275.928 83.9114 276.465 83.2593 277.154 82.8012C277.843 82.3431 278.652 82.0996 279.479 82.1016C280.028 82.1016 280.571 82.2098 281.077 82.4199C281.584 82.6301 282.044 82.9382 282.431 83.3265C282.819 83.7148 283.126 84.1756 283.335 84.6827C283.544 85.1898 283.65 85.7331 283.649 86.2816Z" fill="#143498"/>
<path d="M389.41 49.8366C391.719 49.8366 393.59 47.9651 393.59 45.6566C393.59 43.348 391.719 41.4766 389.41 41.4766C387.102 41.4766 385.23 43.348 385.23 45.6566C385.23 47.9651 387.102 49.8366 389.41 49.8366Z" fill="#143498"/>
<path d="M279.95 86.2813H279V25.2812H389.88V45.6513H388.93V26.2313H279.95V86.2813Z" fill="#143498"/>
<path d="M395.032 112.186C395.034 113.013 394.79 113.823 394.332 114.512C393.873 115.201 393.22 115.738 392.456 116.056C391.692 116.373 390.851 116.457 390.039 116.296C389.227 116.135 388.481 115.737 387.896 115.151C387.311 114.566 386.913 113.82 386.752 113.009C386.591 112.197 386.674 111.356 386.992 110.591C387.31 109.827 387.847 109.174 388.536 108.716C389.225 108.257 390.034 108.014 390.862 108.016C391.967 108.018 393.026 108.458 393.808 109.24C394.589 110.021 395.029 111.08 395.032 112.186Z" fill="#143498"/>
<path d="M489.199 133.458H390.379V112.188H391.329V132.508H489.199V133.458Z" fill="#143498"/>
<g style="mix-blend-mode:overlay">
<g style="mix-blend-mode:overlay">
<path d="M453.175 199.806C472.734 190.046 480.678 166.277 470.918 146.718C461.157 127.159 437.389 119.215 417.829 128.976C398.27 138.736 390.326 162.504 400.087 182.064C409.847 201.623 433.616 209.567 453.175 199.806Z" fill="#191919"/>
</g>
</g>
<path d="M464.098 185.751C476.223 167.563 471.308 142.989 453.12 130.863C434.932 118.738 410.358 123.653 398.232 141.841C386.107 160.029 391.022 184.603 409.21 196.728C427.398 208.854 451.972 203.939 464.098 185.751Z" fill="#00DBFF"/>
<path d="M599.032 259.625C599.032 260.452 598.787 261.26 598.327 261.948C597.868 262.635 597.215 263.171 596.451 263.487C595.688 263.803 594.847 263.886 594.036 263.725C593.226 263.564 592.481 263.166 591.896 262.581C591.312 261.996 590.913 261.252 590.752 260.441C590.591 259.63 590.674 258.789 590.99 258.026C591.306 257.262 591.842 256.609 592.53 256.15C593.217 255.69 594.025 255.445 594.852 255.445C595.96 255.445 597.024 255.886 597.808 256.67C598.592 257.454 599.032 258.517 599.032 259.625Z" fill="#143498"/>
<path d="M600.13 154.711C600.13 155.538 599.884 156.347 599.424 157.035C598.965 157.722 598.311 158.258 597.547 158.574C596.782 158.89 595.941 158.972 595.13 158.81C594.319 158.648 593.574 158.249 592.99 157.663C592.406 157.078 592.009 156.332 591.849 155.521C591.688 154.709 591.773 153.868 592.091 153.105C592.408 152.341 592.946 151.689 593.635 151.231C594.323 150.773 595.132 150.529 595.959 150.531C597.066 150.534 598.127 150.975 598.909 151.759C599.69 152.543 600.13 153.604 600.13 154.711Z" fill="#143498"/>
<path d="M546.469 57.6334C548.778 57.6334 550.649 55.762 550.649 53.4534C550.649 51.1449 548.778 49.2734 546.469 49.2734C544.161 49.2734 542.289 51.1449 542.289 53.4534C542.289 55.762 544.161 57.6334 546.469 57.6334Z" fill="#143498"/>
<path d="M596.429 260.494H579.709V259.544H595.479V154.244H615.539V52.1844H546.469V51.2344H616.489V155.184H596.429V260.494Z" fill="#143498"/>
<g style="mix-blend-mode:overlay">
<g style="mix-blend-mode:overlay">
<path d="M616.388 132.378C631.845 116.921 631.845 91.8603 616.388 76.4034C600.931 60.9464 575.87 60.9464 560.413 76.4034C544.956 91.8603 544.956 116.921 560.413 132.378C575.87 147.835 600.931 147.835 616.388 132.378Z" fill="#191919"/>
</g>
</g>
<path d="M612.04 131.706C627.497 116.249 627.497 91.1884 612.04 75.7314C596.583 60.2745 571.522 60.2745 556.065 75.7315C540.608 91.1884 540.608 116.249 556.065 131.706C571.522 147.163 596.583 147.163 612.04 131.706Z" fill="#00DBFF"/>
<path d="M612.078 86.3828H556.238V121.773H612.078V86.3828Z" fill="#FBFFFD"/>
<path d="M607.619 90.3359H560.289V117.886H607.619V90.3359Z" fill="#E1E6FF"/>
<path d="M560.289 117.887C560.289 117.887 564.149 95.6372 570.289 95.3472C576.969 95.0172 583.459 118.637 584.699 117.887C585.359 117.487 588.619 112.327 591.529 107.577C592.041 106.739 592.759 106.047 593.616 105.567C594.472 105.086 595.437 104.834 596.419 104.834C597.401 104.834 598.366 105.086 599.223 105.567C600.079 106.047 600.797 106.739 601.309 107.577L607.599 117.877L560.289 117.887Z" fill="#5C1F4E"/>
<path d="M588.981 100.586C588.983 101.33 588.764 102.059 588.351 102.679C587.939 103.299 587.352 103.782 586.664 104.068C585.977 104.354 585.22 104.429 584.49 104.284C583.76 104.139 583.089 103.781 582.562 103.255C582.036 102.728 581.677 102.057 581.533 101.327C581.388 100.597 581.463 99.8399 581.749 99.1524C582.035 98.465 582.518 97.8778 583.138 97.4655C583.758 97.0531 584.486 96.834 585.231 96.836C586.226 96.836 587.179 97.231 587.883 97.9343C588.586 98.6376 588.981 99.5914 588.981 100.586Z" fill="#FFAB00"/>
<path d="M455.59 163.98L465.29 161.41L461.84 148.41L452.14 150.99C451.122 149.269 449.903 147.674 448.51 146.24L453.51 137.56L441.89 130.81L436.89 139.5C434.957 138.995 432.968 138.729 430.97 138.71L428.4 129L415.4 132.45L417.98 142.15C416.259 143.168 414.664 144.387 413.23 145.78L404.55 140.78L397.82 152.4L406.5 157.4C405.995 159.333 405.729 161.322 405.71 163.32L396 165.89L399.45 178.89L409.16 176.31C410.171 178.033 411.387 179.628 412.78 181.06L407.78 189.74L419.4 196.49L424.4 187.8C426.334 188.305 428.322 188.57 430.32 188.59L432.9 198.3L445.9 194.85L443.33 185.15C445.048 184.132 446.639 182.913 448.07 181.52L456.75 186.52L463.47 174.94L454.78 169.94C455.29 167.993 455.562 165.992 455.59 163.98ZM433.47 174.3C431.368 174.855 429.148 174.775 427.091 174.069C425.034 173.363 423.233 172.064 421.914 170.335C420.596 168.606 419.819 166.525 419.683 164.354C419.547 162.184 420.057 160.022 421.148 158.142C422.24 156.261 423.865 154.746 425.817 153.789C427.769 152.831 429.961 152.474 432.117 152.761C434.272 153.049 436.294 153.969 437.926 155.405C439.559 156.841 440.73 158.729 441.29 160.83C441.663 162.228 441.756 163.686 441.565 165.12C441.373 166.554 440.901 167.936 440.175 169.187C439.448 170.439 438.482 171.534 437.332 172.412C436.181 173.289 434.869 173.931 433.47 174.3Z" fill="white"/>
</g>
<defs>
<clipPath id="clip0_2233_217">
<rect width="690" height="350" fill="white"/>
</clipPath>
</defs>
</svg>
