<svg width="690" height="350" viewBox="0 0 690 350" fill="none" xmlns="http://www.w3.org/2000/svg">
<g clip-path="url(#clip0_1873_3323)">
<path d="M486.642 244.78C486.642 299.49 457.682 347.44 414.262 374.15C391.162 388.35 363.972 396.55 334.862 396.55C312.472 396.55 291.212 391.7 272.072 382.99C219.582 359.11 183.082 306.21 183.082 244.78C183.082 160.95 251.042 93 334.862 93C418.682 93 486.642 160.95 486.642 244.78Z" fill="#F5F5F5"/>
<path fill-rule="evenodd" clip-rule="evenodd" d="M350.412 283.347C337.582 288.607 324.892 289.487 312.322 286.827L318.162 256.297C331.012 250.417 342.252 252.997 342.252 252.997L342.582 254.217L346.072 267.217L350.412 283.347Z" fill="#E2AF81"/>
<path fill-rule="evenodd" clip-rule="evenodd" d="M346.072 267.219L319.422 258.439C328.742 261.189 342.582 254.219 342.582 254.219L346.072 267.219Z" fill="#D2D5D8"/>
<path d="M367.049 211.588C380.07 211.588 390.625 200.585 390.625 187.013C390.625 173.44 380.07 162.438 367.049 162.438C354.028 162.438 343.472 173.44 343.472 187.013C343.472 200.585 354.028 211.588 367.049 211.588Z" fill="#A04C4A"/>
<path fill-rule="evenodd" clip-rule="evenodd" d="M292.452 192.846C289.622 207.096 286.022 243.706 303.752 253.426C321.032 262.906 352.102 258.876 358.412 235.966C365.102 211.656 365.622 191.366 348.422 178.566C330.572 165.276 297.522 167.306 292.452 192.846Z" fill="#E2AF81"/>
<path fill-rule="evenodd" clip-rule="evenodd" d="M346.292 177.027C346.292 177.027 336.922 194.607 316.382 197.557C316.382 197.557 327.072 192.767 329.592 187.487C329.592 187.487 314.752 198.237 296.512 202.647C296.512 202.647 303.772 198.677 305.382 195.807C307.042 192.837 295.082 203.187 286.732 203.867C286.732 203.867 287.672 169.067 318.612 163.037C321.572 162.457 343.652 157.867 346.292 177.027Z" fill="#A04C4A"/>
<path fill-rule="evenodd" clip-rule="evenodd" d="M345.802 175.496C338.752 181.996 349.572 228.596 360.872 224.496C367.172 222.216 370.932 176.886 345.802 175.496Z" fill="#A04C4A"/>
<path fill-rule="evenodd" clip-rule="evenodd" d="M290.262 202.966C290.262 202.966 280.762 237.676 294.202 274.646C294.202 274.646 287.162 229.726 291.052 202.656L290.262 202.966Z" fill="#A04C4A"/>
<path fill-rule="evenodd" clip-rule="evenodd" d="M344.582 193.738L349.462 274.128C349.462 274.128 354.762 214.898 344.582 193.738Z" fill="#A04C4A"/>
<path d="M363.566 235.139C368.923 235.139 373.266 230.64 373.266 225.089C373.266 219.539 368.923 215.039 363.566 215.039C358.209 215.039 353.866 219.539 353.866 225.089C353.866 230.64 358.209 235.139 363.566 235.139Z" fill="#E2AF81"/>
<path d="M366.572 219.766C366.632 219.716 366.182 219.796 366.162 219.806C365.902 219.896 365.662 220.026 365.422 220.166C364.702 220.586 364.062 221.156 363.462 221.726C361.672 223.436 360.492 225.856 359.792 228.206" stroke="#E2AF81" stroke-miterlimit="10" stroke-linecap="round" stroke-linejoin="round"/>
<path d="M362.742 222.927C362.622 222.697 363.032 223.357 363.152 223.587C363.392 224.087 363.612 224.617 363.782 225.147C364.262 226.657 364.352 228.277 364.262 229.857" stroke="#E2AF81" stroke-miterlimit="10" stroke-linecap="round" stroke-linejoin="round"/>
<path d="M317.142 198.027C317.232 198.437 317.302 198.847 317.362 199.267C317.552 200.487 317.622 201.707 317.622 202.937C317.622 205.747 317.282 208.567 316.912 211.347C316.762 212.487 316.772 213.757 316.422 214.857C316.252 215.397 315.892 214.607 315.742 214.407C315.102 213.497 314.392 212.647 313.422 212.077C311.542 210.987 309.082 211.587 307.732 213.247C305.702 215.747 306.132 220.587 309.102 222.227C309.742 222.577 310.542 222.747 311.262 222.647C311.412 222.627 312.352 222.217 312.402 222.357C313.052 223.997 312.382 227.057 311.952 228.677C311.872 228.997 310.882 230.727 310.982 230.907C311.772 232.337 314.192 233.097 315.642 233.387C320.642 234.377 325.672 232.447 328.482 228.157" stroke="#272525" stroke-miterlimit="10" stroke-linecap="round" stroke-linejoin="round"/>
<path d="M325.212 199.797C325.092 199.737 325.452 199.677 325.582 199.637C325.802 199.557 326.022 199.477 326.252 199.417C326.992 199.217 327.732 199.137 328.482 199.137C330.712 199.127 332.902 199.737 334.862 201.127" stroke="#272525" stroke-miterlimit="10" stroke-linecap="round" stroke-linejoin="round"/>
<path d="M299.142 201.127C301.092 199.737 303.292 199.127 305.522 199.137C306.272 199.137 307.022 199.217 307.752 199.417C307.982 199.477 308.202 199.557 308.422 199.637C308.552 199.687 308.912 199.737 308.792 199.797" stroke="#272525" stroke-miterlimit="10" stroke-linecap="round" stroke-linejoin="round"/>
<path fill-rule="evenodd" clip-rule="evenodd" d="M328.81 205.703C330.01 205.703 330.98 206.873 330.98 208.313C330.98 209.753 330.01 210.923 328.81 210.923C327.61 210.923 326.64 209.753 326.64 208.313C326.64 206.873 327.61 205.703 328.81 205.703Z" fill="#272525"/>
<path d="M304.511 210.181C305.71 210.181 306.681 209.012 306.681 207.571C306.681 206.129 305.71 204.961 304.511 204.961C303.313 204.961 302.341 206.129 302.341 207.571C302.341 209.012 303.313 210.181 304.511 210.181Z" fill="#272525"/>
<path fill-rule="evenodd" clip-rule="evenodd" d="M343.401 195.111C339.848 191.307 325.624 191.307 322.071 195.111C318.517 198.914 318.517 214.147 322.071 217.951C325.624 221.755 339.848 221.755 343.401 217.951C346.955 214.147 346.955 198.914 343.401 195.111Z" stroke="#272525" stroke-width="0.902867" stroke-miterlimit="10" stroke-linecap="round" stroke-linejoin="round"/>
<path fill-rule="evenodd" clip-rule="evenodd" d="M312.682 195.223C309.11 192.296 296.275 191.634 292.995 195.223C289.715 198.811 289.715 213.183 292.995 216.771C295.162 219.146 307.821 224.27 306.708 219.189C305.353 212.987 310.892 209.204 314.439 212.784C316.565 214.93 316.255 198.15 312.682 195.223Z" stroke="#272525" stroke-width="0.842496" stroke-miterlimit="10" stroke-linecap="round" stroke-linejoin="round"/>
<path d="M315.232 203.589C315.232 203.589 317.762 201.629 319.582 203.579" stroke="#272525" stroke-miterlimit="10" stroke-linecap="round" stroke-linejoin="round"/>
<path fill-rule="evenodd" clip-rule="evenodd" d="M338.652 170.496C338.652 170.496 317.582 157.436 298.862 179.886C298.872 179.876 319.552 165.886 338.652 170.496Z" fill="#BC6F6F"/>
<path fill-rule="evenodd" clip-rule="evenodd" d="M354.762 173.297C354.762 173.297 364.312 158.377 381.342 172.237C381.332 172.237 365.602 163.137 354.762 173.297Z" fill="#BC6F6F"/>
<path fill-rule="evenodd" clip-rule="evenodd" d="M414.262 374.149C391.162 388.349 363.972 396.549 334.862 396.549C312.472 396.549 291.212 391.699 272.072 382.989C271.742 380.329 271.472 377.689 271.272 375.079C267.352 323.449 289.142 281.349 289.142 281.349C334.532 287.399 374.302 271.699 374.302 271.699C374.312 271.709 374.312 271.729 374.322 271.739C381.002 283.619 387.422 298.119 393.122 312.559C394.672 316.469 396.172 320.379 397.602 324.229C405.602 345.759 411.682 365.499 414.262 374.149Z" fill="#D8A821"/>
<path fill-rule="evenodd" clip-rule="evenodd" d="M307.272 283.248L309.442 272.098L352.042 268.348L354.132 277.918C339.382 282.358 324.492 283.108 307.272 283.248Z" fill="#D8A821"/>
<path d="M313.252 272.297L312.412 282.827" stroke="#D8A821" stroke-miterlimit="10" stroke-linecap="round" stroke-linejoin="round"/>
<path d="M320.549 271.442L320.74 282.003" stroke="#D8A821" stroke-miterlimit="10" stroke-linecap="round" stroke-linejoin="round"/>
<path d="M328.24 270.87L328.797 281.418" stroke="#D8A821" stroke-miterlimit="10" stroke-linecap="round" stroke-linejoin="round"/>
<path d="M336.245 269.819L336.608 280.376" stroke="#D8A821" stroke-miterlimit="10" stroke-linecap="round" stroke-linejoin="round"/>
<path d="M343.165 269.338L344.025 279.866" stroke="#D8A821" stroke-miterlimit="10" stroke-linecap="round" stroke-linejoin="round"/>
<path d="M350.387 268.604L351.652 278.051" stroke="#D8A821" stroke-width="1.01002" stroke-miterlimit="10" stroke-linecap="round" stroke-linejoin="round"/>
<path d="M290.022 306.007L295.612 299.047" stroke="#EACE88" stroke-width="2" stroke-miterlimit="10" stroke-linecap="round" stroke-linejoin="round"/>
<path d="M316.808 304.236L323.411 310.243" stroke="#EACE88" stroke-width="2" stroke-miterlimit="10" stroke-linecap="round" stroke-linejoin="round"/>
<path d="M316.927 331.077L310.525 337.299" stroke="#EACE88" stroke-width="2" stroke-miterlimit="10" stroke-linecap="round" stroke-linejoin="round"/>
<path d="M290.129 329.542L284.313 322.77" stroke="#EACE88" stroke-width="2" stroke-miterlimit="10" stroke-linecap="round" stroke-linejoin="round"/>
<path d="M345.44 299.188L352.557 293.799" stroke="#EACE88" stroke-width="2" stroke-miterlimit="10" stroke-linecap="round" stroke-linejoin="round"/>
<path d="M290.733 351.075L283.009 355.55" stroke="#EACE88" stroke-width="2" stroke-miterlimit="10" stroke-linecap="round" stroke-linejoin="round"/>
<path d="M372.438 317.412L368.445 309.428" stroke="#EACE88" stroke-width="2" stroke-miterlimit="10" stroke-linecap="round" stroke-linejoin="round"/>
<path d="M371.701 293.604L367.708 285.619" stroke="#EACE88" stroke-width="2" stroke-miterlimit="10" stroke-linecap="round" stroke-linejoin="round"/>
<path d="M385.991 346.08L394.205 342.586" stroke="#EACE88" stroke-width="2" stroke-miterlimit="10" stroke-linecap="round" stroke-linejoin="round"/>
<path d="M350.45 332.811L341.869 335.271" stroke="#EACE88" stroke-width="2" stroke-miterlimit="10" stroke-linecap="round" stroke-linejoin="round"/>
<path fill-rule="evenodd" clip-rule="evenodd" d="M521.812 165.459L525.282 144.189C516.362 133.909 518.082 132.709 519.152 133.169C521.342 134.109 526.852 140.419 530.162 140.519C534.452 140.659 557.162 125.039 558.242 127.269C559.442 129.739 542.112 138.969 542.112 138.969C542.112 138.969 559.622 130.519 560.352 131.889C561.792 134.569 537.582 147.129 537.582 147.129L538.782 168.209L521.812 165.459Z" fill="#E2AF81"/>
<path fill-rule="evenodd" clip-rule="evenodd" d="M530.243 141.168C530.243 141.168 544.977 127.348 548.474 124.951C554.661 120.727 553.701 124.127 552.089 125.921C541.646 137.479 534.546 143.085 530.243 141.168Z" fill="#E2AF81"/>
<path fill-rule="evenodd" clip-rule="evenodd" d="M498.022 266.698C497.762 267.138 497.432 267.588 497.052 268.068C484.502 283.518 407.162 319.778 397.602 324.228C396.972 324.528 396.632 324.678 396.632 324.678C396.632 324.678 394.122 319.908 390.722 313.018C384.812 301.078 376.232 282.778 373.482 272.048C373.482 272.048 373.772 271.938 374.322 271.738C381.882 268.948 438.562 248.118 468.032 239.868C469.142 239.558 470.212 239.268 471.232 238.998C485.622 235.178 498.732 239.778 501.542 249.778C502.832 254.378 501.952 260.108 498.022 266.698Z" fill="#D8A821"/>
<path d="M423.141 269.729L414.56 272.189" stroke="#EACE88" stroke-width="2" stroke-miterlimit="10" stroke-linecap="round" stroke-linejoin="round"/>
<path d="M414.04 294.175L409.506 301.865" stroke="#EACE88" stroke-width="2" stroke-miterlimit="10" stroke-linecap="round" stroke-linejoin="round"/>
<path d="M394.433 288.216L391.847 279.672" stroke="#EACE88" stroke-width="2" stroke-miterlimit="10" stroke-linecap="round" stroke-linejoin="round"/>
<path d="M436.347 282.725L437.596 291.564" stroke="#EACE88" stroke-width="2" stroke-miterlimit="10" stroke-linecap="round" stroke-linejoin="round"/>
<path d="M439.404 257.277L448.331 257.263" stroke="#EACE88" stroke-width="2" stroke-miterlimit="10" stroke-linecap="round" stroke-linejoin="round"/>
<path fill-rule="evenodd" clip-rule="evenodd" d="M543.112 167.549C537.122 204.429 519.852 236.189 497.132 268.139L497.052 268.069L490.152 261.709L467.452 240.809C467.642 240.499 467.832 240.179 468.032 239.869C478.782 222.489 498.842 200.129 515.912 162.109L543.112 167.549Z" fill="#D8A821"/>
<path d="M503.462 187.02C503.462 187.02 519.712 199.69 536.322 194.98" stroke="#D8A821" stroke-miterlimit="10" stroke-linecap="round" stroke-linejoin="round"/>
<path d="M520.272 163.531L508.832 190.471" stroke="#D8A821" stroke-miterlimit="10" stroke-linecap="round" stroke-linejoin="round"/>
<path d="M527.842 164.988L516.972 194.188" stroke="#D8A821" stroke-miterlimit="10" stroke-linecap="round" stroke-linejoin="round"/>
<path d="M534.114 166.145L525.154 196.095" stroke="#D8A821" stroke-miterlimit="10" stroke-linecap="round" stroke-linejoin="round"/>
<path d="M540.262 167.109C540.262 167.109 535.142 189.469 532.312 195.829" stroke="#D8A821" stroke-miterlimit="10" stroke-linecap="round" stroke-linejoin="round"/>
<path d="M482.034 257.277L490.96 257.263" stroke="#EACE88" stroke-width="2" stroke-miterlimit="10" stroke-linecap="round" stroke-linejoin="round"/>
<path d="M499.788 202.668L508.715 202.654" stroke="#EACE88" stroke-width="2" stroke-miterlimit="10" stroke-linecap="round" stroke-linejoin="round"/>
<path d="M503.282 232.715L512.209 232.7" stroke="#EACE88" stroke-width="2" stroke-miterlimit="10" stroke-linecap="round" stroke-linejoin="round"/>
<path d="M514.951 218.654L517.093 209.987" stroke="#EACE88" stroke-width="2" stroke-miterlimit="10" stroke-linecap="round" stroke-linejoin="round"/>
<path d="M487.398 226.382L494.544 221.032" stroke="#EACE88" stroke-width="2" stroke-miterlimit="10" stroke-linecap="round" stroke-linejoin="round"/>
<path d="M466.981 261.401L467.246 270.324" stroke="#EACE88" stroke-width="2" stroke-miterlimit="10" stroke-linecap="round" stroke-linejoin="round"/>
<path fill-rule="evenodd" clip-rule="evenodd" d="M407.122 264.418C407.122 264.418 456.562 243.168 466.982 243.408C466.982 243.398 428.312 258.688 407.122 264.418Z" fill="#E5BB51"/>
<path fill-rule="evenodd" clip-rule="evenodd" d="M131.632 178.357L132.832 157.277C132.832 157.277 108.622 144.707 110.062 142.037C110.802 140.667 128.302 149.117 128.302 149.117C128.302 149.117 110.972 139.887 112.172 137.417C113.252 135.187 135.972 150.807 140.252 150.667C143.562 150.557 149.072 144.247 151.262 143.317C152.332 142.857 154.052 144.057 145.132 154.337L148.602 175.607L131.632 178.357Z" fill="#E2AF81"/>
<path fill-rule="evenodd" clip-rule="evenodd" d="M118.333 136.053C116.721 134.258 115.761 130.87 121.948 135.083C125.445 137.468 140.179 151.3 140.179 151.3C135.864 153.217 128.764 147.611 118.333 136.053Z" fill="#E2AF81"/>
<path fill-rule="evenodd" clip-rule="evenodd" d="M296.942 282.178C292.602 299.088 273.792 334.808 273.792 334.808C273.742 334.788 273.692 334.768 273.642 334.738C273.542 334.698 273.392 334.628 273.202 334.538C272.972 334.438 272.722 334.308 272.452 334.178C261.442 329.058 185.742 293.458 173.362 278.198C172.982 277.728 172.662 277.268 172.402 276.838C167.982 269.438 167.412 263.118 169.452 258.278C173.172 249.418 185.612 245.528 199.192 249.138C200.212 249.408 201.282 249.698 202.392 250.008C234.012 258.858 296.942 282.178 296.942 282.178Z" fill="#D8A821"/>
<path d="M255.854 282.317L247.272 279.855" stroke="#EACE88" stroke-width="2" stroke-miterlimit="10" stroke-linecap="round" stroke-linejoin="round"/>
<path d="M260.903 312L256.362 304.312" stroke="#EACE88" stroke-width="2" stroke-miterlimit="10" stroke-linecap="round" stroke-linejoin="round"/>
<path d="M278.562 289.809L275.983 298.357" stroke="#EACE88" stroke-width="2" stroke-miterlimit="10" stroke-linecap="round" stroke-linejoin="round"/>
<path d="M232.824 301.702L234.072 292.861" stroke="#EACE88" stroke-width="2" stroke-miterlimit="10" stroke-linecap="round" stroke-linejoin="round"/>
<path d="M222.087 267.401L231.011 267.415" stroke="#EACE88" stroke-width="2" stroke-miterlimit="10" stroke-linecap="round" stroke-linejoin="round"/>
<path fill-rule="evenodd" clip-rule="evenodd" d="M202.962 250.938L183.642 268.728L173.362 278.198L173.292 278.268C157.822 256.518 144.882 234.858 136.312 211.618V211.608C132.282 200.708 129.222 189.458 127.312 177.688L154.512 172.238C171.582 210.268 191.652 232.638 202.392 250.008L202.962 250.938Z" fill="#D8A821"/>
<path d="M134.102 205.12C150.712 209.83 166.962 197.16 166.962 197.16" stroke="#D8A821" stroke-miterlimit="10" stroke-linecap="round" stroke-linejoin="round"/>
<path d="M161.582 200.608L150.142 173.668" stroke="#D8A821" stroke-miterlimit="10" stroke-linecap="round" stroke-linejoin="round"/>
<path d="M153.442 204.329L142.572 175.129" stroke="#D8A821" stroke-miterlimit="10" stroke-linecap="round" stroke-linejoin="round"/>
<path d="M145.264 206.223L136.304 176.273" stroke="#D8A821" stroke-miterlimit="10" stroke-linecap="round" stroke-linejoin="round"/>
<path d="M138.102 205.97C135.272 199.61 130.152 177.25 130.152 177.25" stroke="#D8A821" stroke-miterlimit="10" stroke-linecap="round" stroke-linejoin="round"/>
<path d="M179.459 267.405L188.383 267.419" stroke="#EACE88" stroke-width="2" stroke-miterlimit="10" stroke-linecap="round" stroke-linejoin="round"/>
<path d="M161.698 212.784L170.621 212.798" stroke="#EACE88" stroke-width="2" stroke-miterlimit="10" stroke-linecap="round" stroke-linejoin="round"/>
<path d="M158.207 242.835L167.131 242.849" stroke="#EACE88" stroke-width="2" stroke-miterlimit="10" stroke-linecap="round" stroke-linejoin="round"/>
<path d="M153.319 220.128L155.464 228.79" stroke="#EACE88" stroke-width="2" stroke-miterlimit="10" stroke-linecap="round" stroke-linejoin="round"/>
<path d="M175.87 231.164L183.014 236.51" stroke="#EACE88" stroke-width="2" stroke-miterlimit="10" stroke-linecap="round" stroke-linejoin="round"/>
<path d="M203.175 280.455L203.434 271.531" stroke="#EACE88" stroke-width="2" stroke-miterlimit="10" stroke-linecap="round" stroke-linejoin="round"/>
<path fill-rule="evenodd" clip-rule="evenodd" d="M543.112 167.547C537.122 204.427 519.852 236.187 497.132 268.137L497.052 268.067C484.502 283.517 407.162 319.777 397.602 324.227C405.602 345.757 411.682 365.497 414.262 374.147C391.162 388.347 363.972 396.547 334.862 396.547C312.472 396.547 291.212 391.697 272.072 382.987C271.742 380.327 271.472 377.687 271.272 375.077C348.272 376.807 388.092 313.417 388.092 313.417C388.942 313.317 389.822 313.187 390.722 313.017C391.502 312.887 392.302 312.727 393.122 312.557C423.832 305.797 476.982 270.647 490.152 261.707C492.102 260.387 493.172 259.637 493.172 259.637C495.362 258.297 498.252 254.747 501.542 249.777C517.602 225.537 543.112 167.547 543.112 167.547Z" fill="#D2D5D8"/>
<path fill-rule="evenodd" clip-rule="evenodd" d="M272.452 334.177C261.442 329.057 185.742 293.457 173.362 278.197L173.292 278.267C157.822 256.517 144.882 234.857 136.312 211.617C136.312 211.617 153.132 241.487 169.452 258.277C174.392 263.357 179.282 267.237 183.642 268.727C184.552 269.037 185.442 269.247 186.302 269.337C186.302 269.337 256.842 326.017 272.452 334.177Z" fill="#D2D5D8"/>
<path d="M301.98 71.5452C322.072 71.5452 338.36 55.2573 338.36 35.1652C338.36 15.073 322.072 -1.21484 301.98 -1.21484C281.887 -1.21484 265.6 15.073 265.6 35.1652C265.6 55.2573 281.887 71.5452 301.98 71.5452Z" fill="#D67976"/>
<path d="M292.63 16.9745C292.17 17.2945 291.74 17.6645 291.36 18.0845C290.56 17.8545 289.75 17.7445 288.93 17.7445C284.4 17.7445 280.64 21.0945 280.05 25.5045C276.28 26.6145 273.62 30.1245 273.62 34.1145C273.62 35.9845 274.21 37.8045 275.29 39.3245C274.88 40.3645 274.68 41.4445 274.68 42.5645C274.68 47.5145 278.71 51.5445 283.66 51.5445C284.06 51.5445 284.45 51.5045 284.84 51.4545C284.91 51.4445 284.99 51.4345 285.06 51.4245C285.45 51.3645 285.83 51.2845 286.21 51.1745C287.66 52.1145 289.33 52.6045 291.06 52.6045C293 52.6045 294.84 51.9945 296.37 50.8645C298.03 53.2645 300.75 54.7145 303.73 54.7145C306.5 54.7145 309.05 53.4645 310.74 51.3245C312.13 52.1645 313.7 52.5945 315.34 52.5945C320.29 52.5945 324.32 48.5645 324.32 43.6145C324.32 42.5445 324.13 41.5045 323.76 40.5045C325.47 38.8245 326.43 36.5345 326.43 34.1145C326.43 33.5745 326.38 33.0445 326.28 32.5345L325.62 30.4245C324.56 28.0945 322.54 26.2745 320.01 25.5145C319.55 21.1845 316.63 17.6545 312.69 16.2745L310.58 15.7645C310.06 15.6945 309.54 15.6445 309 15.6445C306.54 15.6445 304.18 16.4645 302.24 17.9745C300.85 16.4945 298.91 15.6445 296.85 15.6445C296.13 15.6445 295.42 15.7645 294.74 15.9645L292.63 16.9745ZM317.95 26.3945L317.98 27.2245L318.8 27.3845C320.7 27.7645 322.27 28.9345 323.25 30.4945L324.1 32.5245C324.22 33.0345 324.31 33.5645 324.31 34.1045C324.31 35.7845 323.7 37.3645 322.61 38.6045C321.09 36.5145 318.69 35.2345 315.93 35.0545L315.79 37.0345C319.3 37.2645 322.06 39.7945 322.18 43.8445C322.05 47.5145 319.03 50.4745 315.33 50.4745C313.79 50.4745 312.33 49.9745 311.11 49.0145L310.69 48.6845C309.39 47.5045 308.59 45.8545 308.47 44.0645L306.36 44.2045C306.51 46.4445 307.48 48.4945 309.04 50.0245C307.74 51.6445 305.81 52.5845 303.7 52.5845C301.08 52.5845 298.72 51.1145 297.55 48.7545L296.9 47.4445L295.86 48.4745C294.57 49.7545 292.85 50.4645 291.02 50.4645C290.18 50.4645 289.38 50.2945 288.61 50.0045C291.02 48.3945 292.61 45.6545 292.61 42.5445C292.61 42.3245 292.58 42.1045 292.56 41.8745C292.9 39.1845 289.93 35.7045 287.81 34.5945L286.83 36.4645C289.1 37.6545 290.5 39.9845 290.5 42.5445C290.5 45.5045 288.61 48.0345 285.97 48.9945C285.6 49.1245 285.22 49.2345 284.84 49.3045C284.81 49.3045 284.79 49.3145 284.76 49.3145C284.38 49.3745 284 49.4145 283.63 49.4145C279.85 49.4145 276.77 46.3345 276.77 42.5545C276.77 41.5345 276.99 40.5545 277.44 39.6145L277.73 39.0045L277.3 38.4845C276.28 37.2545 275.72 35.7045 275.72 34.1045C275.72 30.8445 278.04 28.0145 281.23 27.3745L282.04 27.2145L282.08 26.3945C282.19 24.0845 283.42 22.0945 285.23 20.9345L287.34 20.0445C287.85 19.9245 288.38 19.8545 288.92 19.8545C289.74 19.8545 290.55 20.0045 291.34 20.3045L292.1 20.5945L292.57 19.9445C292.59 19.9245 292.6 19.9045 292.62 19.8845L294.73 18.2145C295.39 17.9245 296.11 17.7545 296.84 17.7545C298.3 17.7545 299.68 18.3645 300.66 19.4045C298.89 21.4145 297.63 24.0245 297.63 26.7245C297.63 32.8345 303.17 37.8145 308.45 37.8145V35.7045C304.23 35.7045 299.74 31.6745 299.74 26.7245C299.74 24.5245 300.69 22.3945 302.14 20.7545L302.75 20.2445C304.44 18.6345 306.66 17.7445 308.95 17.7445C309.49 17.7445 310.05 17.7945 310.57 17.8945V21.9745C310.57 24.8845 308.2 27.2545 305.29 27.2545H304.23V29.3645H305.29C309.37 29.3645 312.68 26.0445 312.68 21.9745V18.5445C315.7 19.9045 317.82 22.8645 317.95 26.3945Z" fill="#A04C4A"/>
<path d="M551.872 53.3453C556.504 29.8345 541.2 7.02022 517.689 2.38805C494.179 -2.24412 471.364 13.06 466.732 36.5707C462.1 60.0814 477.404 82.8957 500.915 87.5279C524.426 92.1601 547.24 76.856 551.872 53.3453Z" fill="#D67976"/>
<path d="M535.17 20.9241C535.08 20.1341 534.46 19.5141 533.68 19.4341C520.3 17.9441 508.9 23.3041 499.6 32.8741C496.94 35.6141 494.63 38.5141 492.66 41.3141C489.32 41.1741 485.63 42.6841 483 45.3141L478.22 50.0941C477.68 50.6341 477.57 51.4741 477.95 52.1341C478.33 52.7941 479.11 53.1241 479.85 52.9241C480.96 52.6241 482.76 52.2841 484.49 52.2041C485.12 52.1741 485.65 52.1841 486.09 52.2141C485.03 54.2441 484.23 55.9441 483.96 56.3741C483.54 57.0441 483.64 57.9141 484.2 58.4741L486.97 61.2441C482.94 66.7341 482.88 69.5441 482.89 69.9441C482.92 70.7841 483.58 71.5741 484.67 71.5741C485.61 71.5741 488.32 71.1741 493.25 67.5141L496.16 70.4241C496.72 70.9841 497.6 71.0841 498.27 70.6541C498.73 70.3641 500.33 69.5841 502.24 68.5841C502.27 70.0141 502.08 72.1141 501.66 74.9641C501.42 76.5741 503.38 77.5541 504.53 76.4041L509.31 71.6241C511.78 69.1541 513.21 65.4941 513.1 62.0641C516.05 60.0041 519.12 57.5741 521.98 54.7641C531.45 45.4441 536.64 34.1241 535.17 20.9241ZM531.94 22.6641C532.21 26.3141 531.92 29.8441 531.08 33.2641C529 32.6041 526.96 31.3241 525.12 29.4841C523.27 27.6341 521.98 25.5941 521.33 23.5041C524.75 22.6741 528.29 22.3941 531.94 22.6641ZM484.27 48.8141L485.39 47.6941C486.74 46.3441 488.49 45.3741 490.24 44.9341C489.33 46.3841 488.52 47.7641 487.8 49.0341C486.69 48.8041 485.46 48.7541 484.27 48.8141ZM487.47 56.9541C487.84 56.2341 488.28 55.3241 489.09 53.7941L491.32 56.0241C490.49 56.9141 489.74 57.7541 489.07 58.5541L487.47 56.9541ZM495.74 56.3041C496.97 55.0741 498.15 54.8441 499.62 54.8141C499.59 56.2441 499.36 57.4641 498.13 58.6941C492.88 63.9441 489.28 66.2841 487.13 67.3341C488.2 65.1441 490.55 61.5041 495.74 56.3041ZM497.64 67.1241L495.9 65.3841C496.7 64.7041 497.54 63.9541 498.42 63.1241L500.79 65.4941C499.23 66.3241 498.58 66.6341 497.64 67.1241ZM506.91 69.2141L505.56 70.5641C505.67 68.9241 505.63 67.7341 505.48 66.8041C506.72 66.1041 508.07 65.3141 509.49 64.4241C509.08 66.2141 508.17 67.9541 506.91 69.2141ZM503.87 63.7841L500.84 60.7541C503.08 58.2841 503 55.9041 503 53.1341C503 52.2041 502.24 51.4441 501.31 51.4441C498.71 51.4441 496.22 51.3041 493.69 53.6041L490.8 50.7141C498.7 36.8541 507.84 28.0841 518.1 24.4641C518.91 27.0941 520.49 29.6241 522.74 31.8741C524.98 34.1141 527.5 35.6941 530.12 36.5041C526.48 46.7141 517.7 55.8441 503.87 63.7841Z" fill="#A04C4A"/>
<path d="M520.34 34.2641C517.04 30.9641 511.68 30.9641 508.39 34.2641C505.09 37.5641 505.09 42.9241 508.39 46.2141C511.69 49.5141 517.05 49.5141 520.34 46.2141C523.64 42.9241 523.64 37.5541 520.34 34.2641ZM517.95 43.8241C515.97 45.8041 512.75 45.8041 510.78 43.8241C508.8 41.8441 508.8 38.6341 510.78 36.6541C512.76 34.6741 515.97 34.6741 517.95 36.6541C519.93 38.6341 519.93 41.8441 517.95 43.8241Z" fill="#A04C4A"/>
<path d="M431.572 122.27C436.261 102.733 424.225 83.0928 404.687 78.4033C385.149 73.7138 365.509 85.7506 360.82 105.288C356.13 124.826 368.167 144.466 387.705 149.155C407.242 153.845 426.882 141.808 431.572 122.27Z" fill="#486472"/>
<path fill-rule="evenodd" clip-rule="evenodd" d="M384.12 103.267C384.69 103.457 385.3 103.147 385.49 102.577C387.19 97.4269 391.98 93.9669 397.41 93.9669C404.33 93.9669 409.96 99.5969 409.96 106.517C409.96 111.867 407.56 115.057 405.64 117.627C404.24 119.497 403.03 121.107 403.03 123.067C403.03 123.197 403.03 123.327 403.03 123.447H398.5V120.957C398.5 120.357 398.01 119.877 397.42 119.877C396.83 119.877 396.34 120.367 396.34 120.957V123.447H391.81C391.81 123.317 391.81 123.197 391.81 123.067C391.81 121.107 390.6 119.497 389.2 117.627C387.78 115.737 386.18 113.587 385.38 110.547C385.23 109.967 384.64 109.617 384.06 109.777C383.48 109.927 383.13 110.517 383.29 111.097C384.19 114.557 386.01 116.977 387.47 118.927C388.69 120.547 389.65 121.827 389.65 123.067C389.65 123.587 389.67 124.097 389.71 124.577V133.747C389.71 133.777 389.71 133.807 389.71 133.837C389.71 133.847 389.71 133.847 389.71 133.857C389.71 133.897 389.72 133.937 389.73 133.977C390.11 135.747 391.07 137.347 392.45 138.497C393.85 139.667 395.62 140.317 397.44 140.317C399.25 140.317 401.02 139.667 402.43 138.497C403.8 137.347 404.77 135.737 405.15 133.977C405.16 133.937 405.16 133.897 405.17 133.857C405.17 133.847 405.17 133.847 405.17 133.837C405.17 133.807 405.17 133.777 405.17 133.747V124.577C405.21 124.097 405.24 123.587 405.24 123.067C405.24 121.837 406.2 120.547 407.42 118.927C409.43 116.247 412.17 112.587 412.17 106.517C412.17 98.3969 405.57 91.7969 397.45 91.7969C391.09 91.7969 385.47 95.8569 383.47 101.897C383.25 102.457 383.56 103.077 384.12 103.267ZM397.41 138.147C395.2 138.147 393.22 136.817 392.27 134.837H402.54C401.61 136.817 399.62 138.147 397.41 138.147ZM402.97 132.667H391.86V130.227H402.97V132.667ZM402.97 128.057H391.86V125.617H402.97V128.057Z" fill="#F5F5F5"/>
<path fill-rule="evenodd" clip-rule="evenodd" d="M397.41 89.8469C398.01 89.8469 398.49 89.3569 398.49 88.7669V85.8769C398.49 85.2769 398 84.7969 397.41 84.7969C396.82 84.7969 396.33 85.2869 396.33 85.8769V88.7669C396.33 89.3669 396.81 89.8469 397.41 89.8469Z" fill="#F5F5F5"/>
<path fill-rule="evenodd" clip-rule="evenodd" d="M376.77 107.597H379.66C380.26 107.597 380.74 107.108 380.74 106.518C380.74 105.928 380.25 105.438 379.66 105.438H376.77C376.17 105.438 375.69 105.928 375.69 106.518C375.69 107.108 376.17 107.597 376.77 107.597Z" fill="#F5F5F5"/>
<path fill-rule="evenodd" clip-rule="evenodd" d="M384.1 94.7366C384.31 94.9466 384.59 95.0566 384.87 95.0566C385.15 95.0566 385.42 94.9466 385.64 94.7366C386.06 94.3166 386.06 93.6266 385.64 93.2066L383.6 91.1666C383.18 90.7466 382.49 90.7466 382.07 91.1666C381.65 91.5866 381.65 92.2766 382.07 92.6966L384.1 94.7366Z" fill="#F5F5F5"/>
<path fill-rule="evenodd" clip-rule="evenodd" d="M382.07 122.947C382.35 122.947 382.62 122.837 382.84 122.627L384.88 120.587C385.3 120.167 385.3 119.477 384.88 119.057C384.46 118.637 383.77 118.637 383.35 119.057L381.31 121.097C380.89 121.517 380.89 122.207 381.31 122.627C381.52 122.837 381.79 122.947 382.07 122.947Z" fill="#F5F5F5"/>
<path fill-rule="evenodd" clip-rule="evenodd" d="M409.97 95.0487C410.25 95.0487 410.52 94.9387 410.74 94.7287L412.78 92.6887C413.2 92.2687 413.2 91.5788 412.78 91.1587C412.36 90.7388 411.67 90.7388 411.25 91.1587L409.21 93.1987C408.79 93.6187 408.79 94.3087 409.21 94.7287C409.41 94.9487 409.69 95.0487 409.97 95.0487Z" fill="#F5F5F5"/>
<path fill-rule="evenodd" clip-rule="evenodd" d="M409.95 119.045C409.53 119.465 409.53 120.155 409.95 120.575L411.99 122.615C412.2 122.825 412.48 122.935 412.76 122.935C413.04 122.935 413.31 122.825 413.53 122.615C413.95 122.195 413.95 121.505 413.53 121.085L411.49 119.045C411.06 118.625 410.37 118.625 409.95 119.045Z" fill="#F5F5F5"/>
<path fill-rule="evenodd" clip-rule="evenodd" d="M415.16 107.597H418.05C418.65 107.597 419.13 107.108 419.13 106.518C419.13 105.928 418.64 105.438 418.05 105.438H415.16C414.56 105.438 414.08 105.928 414.08 106.518C414.08 107.108 414.57 107.597 415.16 107.597Z" fill="#F5F5F5"/>
<path d="M199.173 139.509C213.38 125.302 213.38 102.268 199.173 88.0609C184.966 73.8537 161.931 73.8537 147.724 88.0609C133.517 102.268 133.517 125.302 147.724 139.509C161.931 153.717 184.966 153.717 199.173 139.509Z" fill="#486472"/>
<path d="M193.06 128.514C195.16 126.104 196.32 123.024 196.34 119.824C196.34 112.344 189.77 106.054 181.22 105.124C181.4 104.264 181.49 103.384 181.49 102.504C181.49 94.3241 173.72 87.6641 164.17 87.6641C154.62 87.6641 146.85 94.3241 146.85 102.504C146.86 105.444 147.85 108.294 149.67 110.604L146.91 117.874C146.81 118.124 146.85 118.414 147 118.634C147.15 118.854 147.41 118.994 147.68 118.994C147.79 118.994 147.91 118.974 148.01 118.924L155.8 115.494C157.75 116.404 159.83 116.984 161.97 117.194C161.79 118.054 161.7 118.934 161.7 119.814C161.7 127.994 169.47 134.654 179.02 134.654C181.66 134.664 184.28 134.134 186.72 133.114L195.16 137.054C195.47 137.194 195.84 137.134 196.08 136.904C196.33 136.664 196.4 136.304 196.26 135.984L193.06 128.514ZM155.5 113.844L149.16 116.634L151.39 110.764C151.49 110.484 151.44 110.174 151.26 109.954C149.51 107.874 148.54 105.244 148.52 102.514C148.52 95.2441 155.55 89.3241 164.19 89.3241C172.83 89.3241 179.86 95.2441 179.86 102.514C179.86 103.564 179.71 104.614 179.41 105.624C177.71 111.564 171.45 115.704 164.19 115.704C163.82 115.704 163.45 115.694 163.07 115.664C160.68 115.544 158.35 114.924 156.21 113.864C155.98 113.754 155.72 113.744 155.5 113.844ZM187.08 131.474C186.86 131.374 186.61 131.374 186.39 131.474C184.07 132.504 181.56 133.034 179.02 133.024C170.38 133.024 163.35 127.104 163.35 119.834C163.35 119.004 163.44 118.164 163.63 117.354C163.81 117.364 163.99 117.364 164.17 117.364C164.66 117.364 165.15 117.344 165.63 117.314C165.8 117.304 165.95 117.274 166.12 117.264C166.44 117.234 166.75 117.204 167.07 117.164C167.26 117.134 167.45 117.094 167.64 117.064C167.92 117.014 168.19 116.974 168.46 116.914C168.66 116.874 168.86 116.814 169.06 116.764C169.31 116.704 169.57 116.644 169.82 116.564C170.02 116.504 170.22 116.434 170.42 116.364C170.66 116.284 170.9 116.214 171.13 116.124C171.33 116.054 171.52 115.964 171.72 115.884C171.94 115.794 172.17 115.704 172.38 115.604C172.58 115.514 172.77 115.414 172.96 115.314C173.17 115.214 173.38 115.104 173.58 114.994C173.78 114.884 173.95 114.774 174.14 114.664C174.32 114.554 174.53 114.434 174.72 114.314C174.91 114.194 175.08 114.064 175.25 113.944C175.43 113.824 175.61 113.694 175.78 113.554C175.95 113.424 176.12 113.284 176.28 113.144C176.45 113.004 176.61 112.864 176.77 112.724C176.93 112.584 177.08 112.424 177.24 112.274C177.39 112.124 177.54 111.974 177.69 111.824C177.83 111.674 177.98 111.504 178.12 111.344C178.26 111.184 178.39 111.024 178.52 110.864C178.65 110.704 178.78 110.524 178.9 110.354C179.02 110.184 179.15 110.014 179.26 109.834C179.37 109.664 179.49 109.474 179.59 109.294C179.69 109.114 179.8 108.934 179.9 108.744C180 108.554 180.09 108.374 180.18 108.184C180.27 107.994 180.36 107.794 180.44 107.604C180.52 107.404 180.6 107.224 180.67 107.024C180.71 106.924 180.75 106.834 180.79 106.734C188.65 107.474 194.7 113.124 194.7 119.844C194.68 122.814 193.54 125.664 191.5 127.824C191.28 128.064 191.22 128.404 191.35 128.704L193.91 134.674L187.08 131.474Z" fill="#F5F5F5"/>
<path d="M187.27 56.1739C197.189 56.1739 205.23 48.1329 205.23 38.2139C205.23 28.2949 197.189 20.2539 187.27 20.2539C177.351 20.2539 169.31 28.2949 169.31 38.2139C169.31 48.1329 177.351 56.1739 187.27 56.1739Z" fill="#D8A821"/>
<path d="M261.96 99.5852C266.046 99.5852 269.36 96.2721 269.36 92.1852C269.36 88.0983 266.046 84.7852 261.96 84.7852C257.873 84.7852 254.56 88.0983 254.56 92.1852C254.56 96.2721 257.873 99.5852 261.96 99.5852Z" fill="#F5F5F5"/>
<path d="M247.4 26.9716C252.541 26.9716 256.71 22.8033 256.71 17.6616C256.71 12.5198 252.541 8.35156 247.4 8.35156C242.258 8.35156 238.09 12.5198 238.09 17.6616C238.09 22.8033 242.258 26.9716 247.4 26.9716Z" fill="#F5F5F5"/>
<path d="M384.2 45.3034C397.67 45.3034 408.59 34.3837 408.59 20.9134C408.59 7.44321 397.67 -3.47656 384.2 -3.47656C370.729 -3.47656 359.81 7.44321 359.81 20.9134C359.81 34.3837 370.729 45.3034 384.2 45.3034Z" fill="#73AAC3"/>
<path d="M268.969 176.102C271.582 160.15 260.77 145.099 244.818 142.485C228.866 139.871 213.815 150.684 211.201 166.636C208.587 182.588 219.4 197.639 235.352 200.252C251.304 202.866 266.355 192.054 268.969 176.102Z" fill="#73AAC3"/>
<path d="M444.95 76.103C449.799 76.103 453.73 72.172 453.73 67.323C453.73 62.4739 449.799 58.543 444.95 58.543C440.101 58.543 436.17 62.4739 436.17 67.323C436.17 72.172 440.101 76.103 444.95 76.103Z" fill="#D8A821"/>
<path d="M459.1 11.7537C459.1 15.0138 456.45 17.6638 453.19 17.6638C449.93 17.6638 447.28 15.0138 447.28 11.7537C447.28 8.49375 449.93 5.84375 453.19 5.84375C456.45 5.84375 459.1 8.48375 459.1 11.7537Z" fill="#F5F5F5"/>
<path d="M505.32 142.885C507.293 131.697 499.823 121.028 488.636 119.054C477.448 117.081 466.779 124.551 464.805 135.739C462.832 146.927 470.302 157.596 481.49 159.569C492.677 161.542 503.347 154.073 505.32 142.885Z" fill="#73AAC3"/>
<path d="M327.906 118.182C334.241 111.313 333.808 100.609 326.938 94.274C320.069 87.9392 309.365 88.3725 303.03 95.2418C296.696 102.111 297.129 112.815 303.998 119.15C310.867 125.484 321.571 125.051 327.906 118.182Z" fill="#D8A821"/>
<path d="M144.63 3.64297C144.63 6.32297 142.46 8.49297 139.78 8.49297C137.1 8.49297 134.93 6.32297 134.93 3.64297C134.93 0.962969 137.1 -1.20703 139.78 -1.20703C142.45 -1.20703 144.63 0.962969 144.63 3.64297Z" fill="#F5F5F5"/>
<path d="M142.9 7.34375L172.56 27.9138" stroke="#567562" stroke-miterlimit="10" stroke-linecap="round" stroke-linejoin="round" stroke-dasharray="7 7"/>
<path d="M205.97 97.4848L240.29 24.4648" stroke="#567562" stroke-miterlimit="10" stroke-linecap="round" stroke-linejoin="round" stroke-dasharray="7 7"/>
<path d="M254.56 11.7539H274.15" stroke="#567562" stroke-miterlimit="10" stroke-linecap="round" stroke-linejoin="round" stroke-dasharray="7 7"/>
<path d="M281.34 65.125L265.6 85.755" stroke="#567562" stroke-miterlimit="10" stroke-linecap="round" stroke-linejoin="round" stroke-dasharray="7 7"/>
<path d="M258.61 98.7734L247.4 143.003" stroke="#567562" stroke-miterlimit="10" stroke-linecap="round" stroke-linejoin="round" stroke-dasharray="7 7"/>
<path d="M269.36 168.112L304.91 119.922" stroke="#567562" stroke-miterlimit="10" stroke-linecap="round" stroke-linejoin="round" stroke-dasharray="7 7"/>
<path d="M326.42 93.8131L367.28 91.7031" stroke="#567562" stroke-miterlimit="10" stroke-linecap="round" stroke-linejoin="round" stroke-dasharray="7 7"/>
<path d="M391.86 77.6633L388.83 44.8633" stroke="#567562" stroke-miterlimit="10" stroke-linecap="round" stroke-linejoin="round" stroke-dasharray="7 7"/>
<path d="M453.19 17.6641L444.95 58.5541" stroke="#567562" stroke-miterlimit="10" stroke-linecap="round" stroke-linejoin="round" stroke-dasharray="7 7"/>
<path d="M458.02 8.34375L481.36 11.7537" stroke="#567562" stroke-miterlimit="10" stroke-linecap="round" stroke-linejoin="round" stroke-dasharray="7 7"/>
<path d="M436.17 67.3242L417.36 84.7942" stroke="#567562" stroke-miterlimit="10" stroke-linecap="round" stroke-linejoin="round" stroke-dasharray="7 7"/>
<path d="M338 26.9748L360.39 26.2148" stroke="#567562" stroke-miterlimit="10" stroke-linecap="round" stroke-linejoin="round" stroke-dasharray="7 7"/>
<path d="M406.03 31.793L439.35 60.573" stroke="#567562" stroke-miterlimit="10" stroke-linecap="round" stroke-linejoin="round" stroke-dasharray="7 7"/>
<path d="M495.9 84.793L485.04 118.733" stroke="#567562" stroke-miterlimit="10" stroke-linecap="round" stroke-linejoin="round" stroke-dasharray="7 7"/>
<path d="M465.91 136.482L430.15 126.832" stroke="#567562" stroke-miterlimit="10" stroke-linecap="round" stroke-linejoin="round" stroke-dasharray="7 7"/>
<path d="M138.61 8.34375L156.07 81.8138" stroke="#567562" stroke-miterlimit="10" stroke-linecap="round" stroke-linejoin="round" stroke-dasharray="7 7"/>
<path d="M200.05 25.6028L238.31 15.6328" stroke="#567562" stroke-miterlimit="10" stroke-linecap="round" stroke-linejoin="round" stroke-dasharray="7 7"/>
</g>
<defs>
<clipPath id="clip0_1873_3323">
<rect width="690" height="350" fill="white"/>
</clipPath>
</defs>
</svg>
