<svg width="690" height="350" viewBox="0 0 690 350" fill="none" xmlns="http://www.w3.org/2000/svg">
<g clip-path="url(#clip0_1842_515)">
<path d="M352.209 340.918V349.413H383.069C383.108 340.595 390.292 333.43 399.12 333.43C407.949 333.43 415.133 340.595 415.172 349.413H446.032V340.918H431.145C430.382 338.079 429.266 335.388 427.817 332.892L438.349 322.361L426.241 310.253L415.71 320.785C413.224 319.336 410.533 318.22 407.684 317.457V302.57H390.566V317.457C387.728 318.22 385.036 319.336 382.54 320.785L372.009 310.253L359.902 322.361L370.433 332.892C368.985 335.378 367.869 338.069 367.106 340.918H352.209Z" fill="#BEDCE0"/>
<path d="M99.311 348.767C99.311 348.767 103.05 118.624 148.053 116.892C193.065 115.159 164.691 305.956 191.166 305.956C217.642 305.956 219.041 195.054 247.807 195.054C276.572 195.054 263.711 314.295 286.164 314.295C308.616 314.295 299.024 176.067 323.875 176.067C352.601 176.067 341.835 294.534 359.384 294.534C386.75 294.534 368.506 108.562 419.038 108.562C473.075 108.562 452.492 325.286 476.716 325.286C500.95 325.286 492.718 162.129 534.834 162.129C569.922 162.129 574.131 348.767 574.131 348.767" stroke="#BEDCE0" stroke-width="0.8315" stroke-miterlimit="10"/>
<path d="M122.126 168.393C122.126 170.987 120.021 173.091 117.428 173.091C114.834 173.091 112.73 170.987 112.73 168.393C112.73 165.8 114.834 163.695 117.428 163.695C120.021 163.705 122.126 165.809 122.126 168.393Z" fill="#4A75C9"/>
<path d="M273.968 254.237C273.968 256.831 271.864 258.935 269.27 258.935C266.677 258.935 264.573 256.831 264.573 254.237C264.573 251.643 266.677 249.539 269.27 249.539C271.864 249.539 273.968 251.643 273.968 254.237Z" fill="#4A75C9"/>
<path d="M365.863 294.71C365.863 297.303 363.759 299.408 361.165 299.408C358.571 299.408 356.467 297.303 356.467 294.71C356.467 292.116 358.571 290.012 361.165 290.012C363.759 290.012 365.863 292.116 365.863 294.71Z" fill="#4A75C9"/>
<path d="M406.119 118.768C406.119 121.362 404.015 123.466 401.421 123.466C398.827 123.466 396.723 121.362 396.723 118.768C396.723 116.175 398.827 114.07 401.421 114.07C404.015 114.07 406.119 116.175 406.119 118.768Z" fill="#4A75C9"/>
<path d="M507.997 217.635C507.997 220.229 505.892 222.333 503.299 222.333C500.705 222.333 498.601 220.229 498.601 217.635C498.601 215.042 500.705 212.938 503.299 212.938C505.892 212.938 507.997 215.042 507.997 217.635Z" fill="#4A75C9"/>
<path d="M563.492 231.951C566.086 231.951 568.19 229.847 568.19 227.253C568.19 224.658 566.086 222.555 563.492 222.555C560.897 222.555 558.794 224.658 558.794 227.253C558.794 229.847 560.897 231.951 563.492 231.951Z" fill="#4A75C9"/>
<path d="M552.828 158.776H492.205C489.249 158.776 486.861 156.388 486.861 153.432V112.344C486.861 109.388 489.249 107 492.205 107H552.828C555.784 107 558.172 109.388 558.172 112.344V153.432C558.172 156.388 555.784 158.776 552.828 158.776Z" fill="#1B2536"/>
<path d="M532.569 117.993H546.917C547.494 117.993 547.964 117.523 547.964 116.946C547.964 116.368 547.494 115.898 546.917 115.898H532.569C531.991 115.898 531.521 116.368 531.521 116.946C531.521 117.523 531.991 117.993 532.569 117.993Z" fill="#D68D8D"/>
<path d="M521.362 121.977H546.917C547.494 121.977 547.964 121.508 547.964 120.93C547.964 120.353 547.494 119.883 546.917 119.883H521.362C520.785 119.883 520.315 120.353 520.315 120.93C520.315 121.508 520.785 121.977 521.362 121.977Z" fill="white"/>
<path d="M504.899 121.977H517.153C517.731 121.977 518.2 121.508 518.2 120.93C518.2 120.353 517.731 119.883 517.153 119.883H504.899C504.322 119.883 503.852 120.353 503.852 120.93C503.852 121.508 504.322 121.977 504.899 121.977Z" fill="#BEDCE0"/>
<path d="M503.138 125.962H546.917C547.494 125.962 547.964 125.492 547.964 124.914C547.964 124.337 547.494 123.867 546.917 123.867H503.138C502.56 123.867 502.09 124.337 502.09 124.914C502.09 125.492 502.56 125.962 503.138 125.962Z" fill="#EBBC3B"/>
<path d="M543.697 129.954H546.917C547.494 129.954 547.964 129.484 547.964 128.907C547.964 128.329 547.494 127.859 546.917 127.859H543.697C543.119 127.859 542.65 128.329 542.65 128.907C542.65 129.484 543.11 129.954 543.697 129.954Z" fill="#4A75C9"/>
<path d="M517.496 129.954H539.459C540.036 129.954 540.506 129.484 540.506 128.907C540.506 128.329 540.036 127.859 539.459 127.859H517.496C516.918 127.859 516.448 128.329 516.448 128.907C516.439 129.484 516.908 129.954 517.496 129.954Z" fill="#BEDCE0"/>
<path d="M532.569 133.934H546.917C547.494 133.934 547.964 133.465 547.964 132.887C547.964 132.31 547.494 131.84 546.917 131.84H532.569C531.991 131.84 531.521 132.31 531.521 132.887C531.521 133.465 531.991 133.934 532.569 133.934Z" fill="white"/>
<path d="M511.545 137.919H546.907C547.485 137.919 547.954 137.449 547.954 136.871C547.954 136.294 547.485 135.824 546.907 135.824H511.545C510.968 135.824 510.498 136.294 510.498 136.871C510.498 137.449 510.968 137.919 511.545 137.919Z" fill="#EBBC3B"/>
<path d="M502.609 141.915H546.917C547.494 141.915 547.964 141.445 547.964 140.868C547.964 140.29 547.494 139.82 546.917 139.82H502.609C502.032 139.82 501.562 140.29 501.562 140.868C501.562 141.445 502.032 141.915 502.609 141.915Z" fill="white"/>
<path d="M523.456 145.899H546.907C547.485 145.899 547.954 145.429 547.954 144.852C547.954 144.274 547.485 143.805 546.907 143.805H523.456C522.879 143.805 522.409 144.274 522.409 144.852C522.409 145.429 522.879 145.899 523.456 145.899Z" fill="#4A75C9"/>
<path d="M502.609 145.899H517.672C518.249 145.899 518.719 145.429 518.719 144.852C518.719 144.274 518.249 143.805 517.672 143.805H502.609C502.032 143.805 501.562 144.274 501.562 144.852C501.562 145.429 502.032 145.899 502.609 145.899Z" fill="#BEDCE0"/>
<path d="M532.569 149.88H546.917C547.494 149.88 547.964 149.41 547.964 148.832C547.964 148.255 547.494 147.785 546.917 147.785H532.569C531.991 147.785 531.521 148.255 531.521 148.832C531.521 149.41 531.991 149.88 532.569 149.88Z" fill="#D68D8D"/>
<path d="M208.122 111.925C211.636 110.741 212.899 107.354 211.949 104.428C211 101.511 206.233 100.836 197.356 104.193C188.479 107.55 182.088 107.188 181.539 110.065C180.991 112.943 183.35 114.362 187.696 113.814L191.542 122.809L208.122 111.925Z" fill="#365896"/>
<path d="M214.279 203.605L240.313 336.226H222.559L192.267 225.441L155.427 334.307H138.749L167.661 203.605H214.279Z" fill="#1B2536"/>
<path d="M196.965 111.213L208.367 109.363C208.367 109.363 209.16 113.19 209.121 116.577C209.121 116.577 211.215 118.808 211.088 122.733C210.97 126.638 208.837 130.152 204.932 130.896L205.01 138.07H191.082L193.098 120.325C193.098 120.325 197.748 119.18 196.965 111.213Z" fill="#D9956A"/>
<path d="M195.604 123.515C194.733 125.531 192.149 126.363 189.83 125.365C187.51 124.366 186.335 121.919 187.207 119.893C188.078 117.877 190.661 117.045 192.981 118.044C195.301 119.052 196.475 121.499 195.604 123.515Z" fill="#D9956A"/>
<path d="M188.685 120.399C188.685 120.399 192.316 118.266 194.4 122.807" stroke="#422424" stroke-width="0.3868" stroke-miterlimit="10"/>
<path d="M190.495 122.572L191.082 119.93" stroke="#422424" stroke-width="0.3868" stroke-miterlimit="10"/>
<path d="M204.061 130.931C204.061 130.931 200.39 131.479 197.16 128.68" stroke="#422424" stroke-width="0.3868" stroke-miterlimit="10"/>
<path d="M203.434 114.996C203.434 114.996 203.424 117.335 204.755 118.901C204.971 119.156 204.902 119.547 204.609 119.704L203.434 120.32" stroke="#422424" stroke-width="0.3868" stroke-miterlimit="10"/>
<path d="M201.34 121.703H207.134C207.134 121.703 205.284 126.714 203.904 126.753C202.524 126.793 201.34 121.703 201.34 121.703Z" fill="#422424"/>
<path d="M203.64 123.492C203.033 123.492 202.446 123.58 201.927 123.727C202.407 125.146 203.121 126.781 203.904 126.751C204.628 126.732 205.49 125.332 206.136 124.011C205.431 123.688 204.57 123.492 203.64 123.492Z" fill="#943232"/>
<path d="M199.891 114.676C199.353 114.744 199.069 115.742 199.255 116.888C199.314 117.24 199.412 117.563 199.529 117.847L200.322 117.318C200.322 117.318 200.126 117.925 199.921 118.503C200.126 118.737 200.351 118.874 200.576 118.845C201.115 118.777 201.398 117.778 201.212 116.633C201.017 115.478 200.43 114.607 199.891 114.676Z" fill="#1B2536"/>
<path d="M206.028 113.852C205.49 113.921 205.206 114.919 205.392 116.064C205.45 116.417 205.548 116.74 205.666 117.024L206.459 116.495C206.459 116.495 206.263 117.102 206.057 117.679C206.263 117.914 206.488 118.051 206.713 118.022C207.251 117.953 207.535 116.955 207.349 115.81C207.153 114.655 206.566 113.774 206.028 113.852Z" fill="#1B2536"/>
<path d="M197.532 113.381C197.532 113.381 199.548 112.726 201.085 113.381" stroke="#365896" stroke-width="0.75" stroke-miterlimit="10" stroke-linecap="round" stroke-linejoin="round"/>
<path d="M204.491 112.814C204.491 112.814 205.705 111.943 207.672 112.217" stroke="#365896" stroke-width="0.75" stroke-miterlimit="10" stroke-linecap="round" stroke-linejoin="round"/>
<path d="M191.67 135.188H205.108C206.086 135.188 206.948 135.863 207.173 136.822L207.672 138.897L225.642 145.239L241.184 171.156L247.967 163.101L258.851 167.75L252.244 184.653C249.347 192.062 240.303 194.842 233.746 190.34L219.202 180.337L216.402 197.739C216.402 197.739 226.347 206.235 215.218 206.235H168.052C166.78 206.235 165.821 205.06 166.075 203.817L178.613 142.616L189.105 138.574L189.614 136.734C189.878 135.824 190.72 135.188 191.67 135.188Z" fill="#D65353"/>
<path d="M241.175 171.168L234.333 179.938" stroke="#1B2536" stroke-width="0.4299" stroke-miterlimit="10"/>
<path d="M219.202 180.347L221.296 166.449" stroke="#1B2536" stroke-width="0.4299" stroke-miterlimit="10"/>
<path d="M246.9 173.382H202.759L210.139 138.078H254.27L246.9 173.382Z" fill="#EDD1C2"/>
<path d="M247.008 145.244H214.396C213.672 145.244 213.212 144.657 213.368 143.933C213.515 143.208 214.23 142.621 214.944 142.621H247.556C248.28 142.621 248.74 143.208 248.584 143.933C248.437 144.657 247.732 145.244 247.008 145.244Z" stroke="white" stroke-width="0.4299" stroke-miterlimit="10"/>
<path d="M245.765 151.205H213.153C212.429 151.205 211.969 150.618 212.125 149.894C212.272 149.169 212.987 148.582 213.701 148.582H246.313C247.037 148.582 247.497 149.169 247.341 149.894C247.194 150.618 246.489 151.205 245.765 151.205Z" stroke="white" stroke-width="0.4299" stroke-miterlimit="10"/>
<path d="M236.046 157.158H211.91C211.186 157.158 210.726 156.571 210.882 155.847C211.029 155.122 211.744 154.535 212.458 154.535H236.594C237.318 154.535 237.778 155.122 237.622 155.847C237.475 156.581 236.77 157.158 236.046 157.158Z" stroke="white" stroke-width="0.4299" stroke-miterlimit="10"/>
<path d="M243.279 163.119H210.667C209.943 163.119 209.483 162.532 209.639 161.808C209.786 161.083 210.501 160.496 211.215 160.496H243.827C244.551 160.496 245.011 161.083 244.855 161.808C244.708 162.532 244.003 163.119 243.279 163.119Z" stroke="white" stroke-width="0.4299" stroke-miterlimit="10"/>
<path d="M229.302 169.068H209.424C208.7 169.068 208.24 168.481 208.396 167.757C208.543 167.033 209.258 166.445 209.972 166.445H229.85C230.575 166.445 231.035 167.033 230.878 167.757C230.731 168.491 230.017 169.068 229.302 169.068Z" stroke="white" stroke-width="0.4299" stroke-miterlimit="10"/>
<path d="M169.57 186.779C169.57 186.779 189.164 177.863 201.575 174.555C196.71 183.481 182.352 194.58 173.318 200.991C170.529 202.968 166.761 200.511 167.446 197.154L169.57 186.779Z" fill="#1B2536"/>
<path d="M178.623 142.629C173.494 144.195 169.158 147.425 162.454 155.079C155.75 162.732 141.382 176.895 148.732 188.689C157.335 202.489 189.438 184.03 201.584 174.565L195.271 162.654L174.835 168.654L182.567 157.173L178.623 142.629Z" fill="#D65353"/>
<path d="M162.924 166.452C162.924 166.452 166.301 165.757 172.623 167.764" stroke="#1B2536" stroke-width="0.4299" stroke-miterlimit="10"/>
<path d="M195.271 162.644L200.322 160.833L205 150.958C205.48 149.94 206.4 149.196 207.486 148.932L213.956 147.346C215.13 147.062 216.295 147.865 216.442 149.069L216.97 153.483C217.058 154.217 216.638 154.912 215.952 155.186L210.853 157.163C210.853 157.163 215.267 157.878 217.117 158.113C217.381 158.142 217.381 159.13 217.117 159.179C215.306 159.493 210.853 159.297 210.853 159.297C210.853 159.297 207.888 165.032 203.806 165.15L198.668 169.065L195.271 162.644Z" fill="#D9956A"/>
<path d="M207.32 152.199L216.442 149.723" stroke="#422424" stroke-width="0.3868" stroke-miterlimit="10"/>
<path d="M207.995 154.539L216.814 152.141" stroke="#422424" stroke-width="0.3868" stroke-miterlimit="10"/>
<path d="M256.463 166.745V159.591L257.637 153.65C257.892 152.377 257.353 151.076 256.277 150.342L250.962 146.75C250.326 146.319 249.455 146.652 249.269 147.396L247.194 155.539C247.076 155.999 247.272 156.478 247.674 156.723L250.071 158.191L248.956 163.545L256.463 166.745Z" fill="#D9956A"/>
<path d="M250.072 158.18L252.695 159.765" stroke="#422424" stroke-width="0.3868" stroke-miterlimit="10"/>
<path d="M247.654 153.746L253.487 157.152" stroke="#422424" stroke-width="0.3868" stroke-miterlimit="10"/>
<path d="M248.222 151.203L254.065 154.619" stroke="#422424" stroke-width="0.3868" stroke-miterlimit="10"/>
<path d="M248.966 148.777L254.809 152.193" stroke="#422424" stroke-width="0.3868" stroke-miterlimit="10"/>
<path d="M210.853 183.754L194.273 194.207" stroke="#1B2536" stroke-width="0.4299" stroke-miterlimit="10"/>
<path d="M152.51 332.406L153.978 338.563L170.499 345.815L171.282 349.427H135.47L141.626 332.406H152.51Z" fill="#1B2536"/>
<path d="M187.696 113.812C189.937 113.724 193.578 112.168 193.578 112.168L189.135 117.179L187.696 113.812Z" fill="#1B2536"/>
<path d="M159.136 173.401L195.271 162.645L201.574 174.556" stroke="#1B2536" stroke-width="0.4299" stroke-miterlimit="10"/>
<path d="M174.835 168.647L183.947 155.453" stroke="#1B2536" stroke-width="0.4299" stroke-miterlimit="10"/>
<path d="M586.497 296.144V275.737H568.752C567.842 272.35 566.511 269.14 564.788 266.174L577.336 253.627L562.909 239.2L550.362 251.748C547.396 250.025 544.186 248.694 540.799 247.784V230.039H520.393V247.784C517.006 248.694 513.796 250.025 510.83 251.748L498.283 239.2L483.856 253.627L496.403 266.174C494.681 269.14 493.35 272.35 492.44 275.737H474.695V296.144H492.44C493.35 299.53 494.681 302.74 496.403 305.706L483.856 318.254L498.283 332.68L510.83 320.133C513.796 321.855 517.006 323.186 520.393 324.097V341.841H540.799V324.097C544.186 323.186 547.396 321.855 550.362 320.133L562.909 332.68L577.336 318.254L564.788 305.706C566.511 302.74 567.842 299.53 568.752 296.144H586.497ZM549.726 285.935C549.726 296.486 541.142 305.07 530.591 305.07C520.04 305.07 511.457 296.486 511.457 285.935C511.457 275.384 520.04 266.801 530.591 266.801C541.142 266.811 549.726 275.394 549.726 285.935Z" fill="#FF6726"/>
<path d="M476.643 127.99L474.274 137.298C474.274 137.298 468.999 131.436 469.371 127.07L476.643 127.99Z" fill="#1B2536"/>
<path d="M427.118 326.719L425.816 335.077L412.133 341.449C410.92 342.007 409.99 343.025 409.52 344.277L407.475 349.778H439.705L437.943 335.831L438.902 326.719H427.118Z" fill="#D68D8D"/>
<path d="M430.534 335.232C430.534 333.402 429.046 331.914 427.216 331.914H426.306L425.816 335.066L412.133 341.437C410.92 341.995 409.99 343.013 409.52 344.266L407.475 349.766H439.705L437.943 335.819L438.002 335.232H430.534Z" fill="#1B2536"/>
<path d="M407.465 349.763H439.695L439.294 346.582H408.649L407.465 349.763Z" fill="#4A6CAB"/>
<path d="M500.191 326.719L500.779 335.087L487.027 341.312C485.814 341.86 484.864 342.868 484.385 344.111L482.28 349.925H514.51L512.895 335.958L511.975 326.836L500.191 326.719Z" fill="#D68D8D"/>
<path d="M512.895 335.953L512.807 335.111H504.615L504.547 334.641C504.312 333.007 502.912 331.793 501.268 331.793H500.553L500.788 335.072L487.037 341.297C485.823 341.845 484.874 342.853 484.394 344.096L482.29 349.91H514.52L512.895 335.953Z" fill="#1B2536"/>
<path d="M482.28 349.922H514.51L514.138 346.731L483.494 346.418L482.28 349.922Z" fill="#4A6CAB"/>
<path d="M433.5 246.633H412.036L414.796 236.199H430.74L433.5 246.633ZM415.324 244.107H430.231L428.811 238.724H416.753L415.324 244.107Z" fill="#1B2536"/>
<path d="M442.073 275.554H402.796C400.496 275.554 398.636 273.694 398.636 271.394V249.715H446.223V271.394C446.233 273.694 444.364 275.554 442.073 275.554Z" fill="#6E9296"/>
<path d="M445.47 255.197H399.41C398.128 255.197 397.08 254.15 397.08 252.868V247.955C397.08 245.146 399.351 242.875 402.16 242.875H442.729C445.538 242.875 447.809 245.146 447.809 247.955V252.868C447.799 254.16 446.752 255.197 445.47 255.197Z" fill="#496163"/>
<path d="M408.845 249.719H404.832V255.2H408.845V249.719Z" fill="white"/>
<path d="M440.038 249.719H436.025V255.2H440.038V249.719Z" fill="white"/>
<path d="M408.845 249.719H404.832V260.651H408.845V249.719Z" stroke="#1B2536" stroke-width="0.4299" stroke-miterlimit="10"/>
<path d="M440.038 249.719H436.025V260.651H440.038V249.719Z" stroke="#1B2536" stroke-width="0.4299" stroke-miterlimit="10"/>
<path d="M453.172 205.187V215.758L433.382 263.315C431.963 266.731 431.023 270.323 430.583 273.983L423.986 329.195H441.975L450.226 283.771C450.931 279.885 452.057 276.078 453.583 272.437L470.212 230.038H473.932L497.04 329.195H514.236L498.302 214.965L497.353 204.395L453.172 205.187Z" fill="#4A6CAB"/>
<path d="M453.172 209.922H497.842" stroke="#1B2536" stroke-width="0.4299" stroke-miterlimit="10"/>
<path d="M472.072 230.037L470.653 206.371" stroke="#1B2536" stroke-width="0.4299" stroke-miterlimit="10"/>
<path d="M466.748 206.84L467.54 218.409C467.677 220.386 469.312 221.913 471.289 221.913H471.583" stroke="#1B2536" stroke-width="0.4299" stroke-miterlimit="10"/>
<path d="M488.593 206.84C488.593 206.84 487.213 221.433 499.262 221.903" stroke="#1B2536" stroke-width="0.4299" stroke-miterlimit="10"/>
<path d="M458.781 207.32C458.781 207.32 459.104 221.727 450.461 222.295" stroke="#1B2536" stroke-width="0.4299" stroke-miterlimit="10"/>
<path d="M461.139 230.035L482.447 230.348" stroke="#1B2536" stroke-width="0.4299" stroke-miterlimit="10"/>
<path d="M465.955 230.352L446.546 275.56L438.501 326.044" stroke="#1B2536" stroke-width="0.4299" stroke-miterlimit="10"/>
<path d="M495.875 221.316L509.343 326.042" stroke="#1B2536" stroke-width="0.4299" stroke-miterlimit="10"/>
<path d="M453.172 208.405L498.244 214.376L497.353 204.402L453.172 205.185V208.405Z" fill="#1B2536"/>
<path d="M439.764 181.754L437.317 193.9L420.59 227.422L417.526 238.051C417.203 239.167 418.045 240.283 419.21 240.283H426.247C427.363 240.283 428.224 239.324 428.107 238.218L427.373 231.21L454.357 199.107L454.513 181.754H439.764Z" fill="#D68D8D"/>
<path d="M422.175 230.035C422.175 230.035 423.702 233.431 421.901 238.394H423.663C424.681 238.394 425.493 239.226 425.484 240.234V240.283" stroke="#422424" stroke-width="0.3868" stroke-miterlimit="10"/>
<path d="M422.763 235.164H427.686" stroke="#422424" stroke-width="0.3868" stroke-miterlimit="10"/>
<path d="M425.679 235.164L426.795 240.205" stroke="#422424" stroke-width="0.3868" stroke-miterlimit="10"/>
<path d="M423.692 235.164L424.446 238.58" stroke="#422424" stroke-width="0.3868" stroke-miterlimit="10"/>
<path d="M438.55 187.793C438.55 187.793 442.709 190.749 454.415 193.274L454.523 181.754H439.773L438.55 187.793Z" fill="#1B2536"/>
<path d="M469.351 148.098C469.351 148.098 485.089 148.235 492.782 152.336C500.475 156.437 513.13 181.287 513.13 181.287L497.979 182.236L501.102 204.327C501.327 205.912 500.093 207.322 498.498 207.322H450.804C445.988 207.322 452.301 203.377 452.301 203.377L450.882 185.946C450.882 185.946 440.312 188.001 434.155 185.319L443.845 160.332C445.773 155.37 450.119 151.748 455.355 150.76L469.351 148.098Z" fill="#6E9296"/>
<path d="M474.186 144.328L478.473 148.713L471.064 157.502L467.159 152.951L464.673 157.15L459.26 149.692L462.725 146.256L474.186 144.328Z" fill="#496163"/>
<path d="M489.68 182.701L486.861 165.426" stroke="#1B2536" stroke-width="0.4299" stroke-miterlimit="10"/>
<path d="M450.892 185.94L449.111 165.426" stroke="#1B2536" stroke-width="0.4299" stroke-miterlimit="10"/>
<path d="M467.775 154.848L472.072 205.185" stroke="#1B2536" stroke-width="0.4299" stroke-miterlimit="10"/>
<path d="M487.047 201.64H460.533L457.097 170.281H483.611L487.047 201.64Z" fill="white"/>
<path d="M472.062 169.568C471.876 168.648 471.034 167.934 470.095 167.934C469.155 167.934 468.47 168.658 468.49 169.568H465.808L466.053 171.76H474.989L474.744 169.568H472.062Z" fill="#D4780E"/>
<path d="M497.04 329.193H514.236L513.541 324.23H495.875L497.04 329.193Z" fill="#6B89BF"/>
<path d="M442.876 324.23H424.583L423.986 329.193H441.975L442.876 324.23Z" fill="#6B89BF"/>
<path d="M509.94 181.482L489.689 182.706L490.198 186.738L470.819 183.342C470.819 183.342 468.597 178.154 462.578 177.42C462.245 177.381 462.089 177.831 462.373 178.017C463.322 178.624 464.536 179.623 464.966 180.924L459.799 181.12L457.342 180.562C456.921 180.464 456.529 180.807 456.569 181.237L457.097 187.169C457.166 187.903 457.704 188.5 458.438 188.637C459.319 188.803 460.758 188.97 463.038 189.009C466.943 190.859 469.899 190.31 469.899 190.31C469.899 190.31 481.302 198.747 496.404 202.222C511.515 205.706 512.573 194.265 509.94 181.482Z" fill="#D68D8D"/>
<path d="M456.667 182.559C456.667 182.559 459.515 183.567 462.343 183.4" stroke="#422424" stroke-width="0.3868" stroke-miterlimit="10"/>
<path d="M456.833 184.438C456.833 184.438 459.681 185.446 462.51 185.279" stroke="#422424" stroke-width="0.3868" stroke-miterlimit="10"/>
<path d="M456.999 186.32C456.999 186.32 459.847 187.328 462.676 187.162" stroke="#422424" stroke-width="0.3868" stroke-miterlimit="10"/>
<path d="M490.198 186.738L500.074 188.187" stroke="#422424" stroke-width="0.3868" stroke-miterlimit="10"/>
<path d="M457.988 125.516C457.988 125.516 457.038 131.75 456.177 136.164C455.306 140.579 457.126 144.523 462.725 144.288V147.841L467.139 152.333L474.636 146.177L474.166 133.952C474.166 133.952 470.222 132.768 470.692 127.013L457.988 125.516Z" fill="#D68D8D"/>
<path d="M463.469 144.326C463.469 144.326 467.687 144.365 469.86 140.852" stroke="#422424" stroke-width="0.3868" stroke-miterlimit="10"/>
<path d="M476.437 137.057C475.155 138.652 473.119 139.131 471.876 138.133C470.633 137.135 470.663 135.04 471.945 133.445C473.227 131.85 475.263 131.37 476.506 132.368C477.749 133.367 477.719 135.471 476.437 137.057Z" fill="#D68D8D"/>
<path d="M472.072 135.892C472.307 134.228 475.067 132.564 476.153 134.228" stroke="#422424" stroke-width="0.3868" stroke-miterlimit="10"/>
<path d="M474.695 136.075L473.178 134.195" stroke="#422424" stroke-width="0.3868" stroke-miterlimit="10"/>
<path d="M460.425 132.161L461.012 132.445C461.071 132.25 461.11 132.034 461.139 131.809C461.257 130.752 460.934 129.881 460.415 129.871C459.906 129.861 459.397 130.713 459.28 131.77C459.162 132.827 459.485 133.698 460.004 133.708C460.327 133.718 460.64 133.385 460.865 132.886L460.425 132.161Z" fill="#28364F"/>
<path d="M465.935 132.286L466.522 132.57C466.581 132.375 466.62 132.159 466.65 131.934C466.767 130.877 466.444 130.006 465.925 129.996C465.416 129.986 464.907 130.838 464.79 131.895C464.673 132.952 464.996 133.823 465.514 133.833C465.837 133.843 466.15 133.51 466.376 133.011L465.935 132.286Z" fill="#28364F"/>
<path d="M462.48 132.094L461.394 136.322L464.32 136.077" stroke="#422424" stroke-width="0.3868" stroke-miterlimit="10"/>
<path d="M460.65 138.269C460.65 138.269 463.939 139.16 466.532 136.762" stroke="#422424" stroke-width="0.3868" stroke-miterlimit="10"/>
<path d="M457.9 125.623L476.848 128.021C476.848 128.021 479.138 119.124 468.871 117.744C460.591 116.628 458.242 123.44 457.9 125.623Z" fill="#4A75C9"/>
<path d="M469.253 117.802C469.126 117.783 468.999 117.753 468.871 117.744C460.591 116.628 458.242 123.44 457.9 125.632L467.031 126.787L469.253 117.802Z" fill="#6E9296"/>
<path d="M467.022 126.78L449.228 124.529C449.355 123.628 450.187 123.002 451.088 123.11L467.364 125.155L467.022 126.78Z" fill="#1B2536"/>
<path d="M156.533 197.469C156.533 197.469 154.203 194.023 149.29 195.325C144.377 196.627 144.142 200.767 144.142 202.724C144.142 204.672 144.377 207.462 141.01 207.638C137.633 207.814 136.811 210.594 136.811 212.189C136.811 213.784 136.576 216.329 134.442 217.455H151.776L156.533 197.469Z" fill="#6E4C2E"/>
<path d="M152.598 213.997L156.278 198.543C155.348 199.032 154.458 199.688 153.636 200.54C148.478 205.835 150.484 211.198 152.598 213.997Z" fill="#1B2536"/>
<path d="M158.715 201.159C158.715 203.332 157.042 205.104 154.977 205.104C152.911 205.104 151.238 203.342 151.238 201.159C151.238 198.977 152.911 197.215 154.977 197.215C157.042 197.215 158.715 198.986 158.715 201.159Z" fill="#1B2536"/>
<path d="M172.966 204.087C171.312 197.695 161.016 192.43 154.507 199.115C147.998 205.799 152.912 212.602 155.035 214.197L172.966 204.087Z" fill="#6E4C2E"/>
<path d="M165.41 303.418H158.5L173.348 343.224H109.935L124.782 303.418H117.872L100.705 349.429H182.577L165.41 303.418Z" fill="#496163"/>
<path d="M178.349 323.023L174.561 337.303L188.998 344.243L190.603 344.644C192.746 345.182 194.156 347.228 193.882 349.42H158.314C157.267 349.42 156.562 348.353 156.973 347.394L161.387 337.147L165.097 323.023H178.349Z" fill="#DE6767"/>
<path d="M163.149 330.441L161.387 337.146L156.973 347.393C156.562 348.352 157.267 349.419 158.314 349.419H193.892C194.166 347.227 192.756 345.172 190.613 344.643L189.008 344.242L174.571 337.302L176.392 330.441H163.149Z" fill="#1B2536"/>
<path d="M206.929 282.737L227.815 325.312H203.356C203.356 325.312 199.412 319.949 199.412 314.585C199.412 309.222 191.778 305.649 190.613 301.333C189.448 297.017 181.579 286.349 181.579 286.349L176.832 275.465H195.242C200.205 275.455 204.736 278.274 206.929 282.737Z" fill="#1B2536"/>
<path d="M124.782 303.418H117.872L112.616 317.502C114.31 318.882 116.257 319.939 118.362 320.605L124.782 303.418Z" fill="#1B2536"/>
<path d="M165.41 303.418H158.5L165.214 321.407H172.124L165.41 303.418Z" fill="#1B2536"/>
<path d="M143.927 240.602L171.527 314.585H123.901C116.972 314.585 110.776 310.279 108.359 303.789L88.4707 250.487C86.6796 245.701 90.2227 240.602 95.3317 240.602H143.927Z" fill="#496163"/>
<path d="M168.669 306.912L143.927 240.602H95.3317C94.49 240.602 93.6972 240.748 92.9631 241.003C93.0219 241.61 93.1687 242.216 93.3938 242.814L113.282 296.116C115.699 302.605 121.895 306.912 128.824 306.912H168.669Z" fill="#1B2536"/>
<path d="M112.499 301.051H128.56" stroke="#1B2536" stroke-width="0.4299" stroke-miterlimit="10"/>
<path d="M159.254 275.456H180.659C188.44 275.456 193.96 283.041 191.572 290.44L180.316 325.313H156.494C156.494 325.313 157.756 320.419 160.438 318.051C163.12 315.682 159.665 312.374 161.152 308.743C162.474 305.523 163.991 304.661 164.539 301.647H123.794C115.513 301.647 105.1 289.227 120.123 266.5H156.807L156.092 272.539L159.254 275.456Z" fill="#4A6CAB"/>
<path d="M120.28 267.332C120.28 267.332 145.541 268.448 151.561 275.456H159.254L156.102 272.539L156.817 266.5L120.28 267.332Z" fill="#1B2536"/>
<path d="M144.739 275.457H158.392" stroke="#1B2536" stroke-width="0.4299" stroke-miterlimit="10"/>
<path d="M133.307 266.5L129.49 278.744C128.805 280.946 130.449 283.178 132.759 283.178H170.323C174.023 283.178 176.695 286.731 175.658 290.284L166.291 322.621" stroke="#1B2536" stroke-width="0.4299" stroke-miterlimit="10"/>
<path d="M181.579 282.59L170.539 289.813" stroke="#1B2536" stroke-width="0.4299" stroke-miterlimit="10"/>
<path d="M182.724 284.844L169.041 299.515" stroke="#1B2536" stroke-width="0.4299" stroke-miterlimit="10"/>
<path d="M140.618 276.562L124.782 287.446" stroke="#1B2536" stroke-width="0.4299" stroke-miterlimit="10"/>
<path d="M134.687 277.504L123.089 281.057" stroke="#1B2536" stroke-width="0.4299" stroke-miterlimit="10"/>
<path d="M140.618 248.218C137.741 242.512 135.509 237.863 135.509 237.863" stroke="black" stroke-width="0.4392" stroke-miterlimit="10"/>
<path d="M176.842 243.039C176.842 243.039 172.985 235.904 171.733 233.496C170.441 231.01 169.178 227.448 159.117 224.13C149.055 220.812 135.568 219.872 130.899 232.234C126.221 244.595 122.257 261.166 122.257 261.166L119.066 264.454C118.029 265.521 118.782 267.322 120.28 267.322H157.521L176.842 243.039Z" fill="#FF6726"/>
<path d="M176.842 243.039L183.223 254.97L205.705 264.738C205.705 264.738 217.998 264.072 220.063 270.787H171.723L161.143 248.735L176.842 243.039Z" fill="#D65353"/>
<path d="M147.577 261.408C145.571 257.845 137.31 241.559 137.31 241.559L142.038 261.417C142.86 264.872 145.953 267.319 149.505 267.319H152.158C150.592 265.939 149.065 264.04 147.577 261.408Z" fill="#1B2536"/>
<path d="M138.064 256.918L124.782 263.153" stroke="#1B2536" stroke-width="0.4299" stroke-miterlimit="10"/>
<path d="M162.611 232.656L161.72 239.341C161.72 239.341 163.139 244.294 161.72 248.532" stroke="#1B2536" stroke-width="0.4299" stroke-miterlimit="10"/>
<path d="M159.469 209.644L162.161 203.605L172.956 204.075C172.956 204.075 173.426 205.494 172.956 207.628C172.486 209.762 171.743 210.701 171.527 213.305C171.302 215.908 171.713 223.543 162.611 222.534L158.715 229.454C158.715 229.454 152.187 231.01 149.29 222.065L159.469 209.644Z" fill="#DE6767"/>
<path d="M160.389 212.492C159.988 214.371 157.942 215.516 155.808 215.066C153.675 214.616 152.275 212.727 152.667 210.848C153.068 208.969 155.114 207.823 157.247 208.274C159.381 208.724 160.79 210.623 160.389 212.492Z" fill="#DE6767"/>
<path d="M155.035 209.937C155.035 209.937 157.316 209.311 158.715 212.658" stroke="#422424" stroke-width="0.3868" stroke-miterlimit="10"/>
<path d="M155.632 212.189L157.149 210.477" stroke="#422424" stroke-width="0.3868" stroke-miterlimit="10"/>
<path d="M161.72 216.795C162.936 216.795 163.922 215.809 163.922 214.593C163.922 213.377 162.936 212.391 161.72 212.391C160.504 212.391 159.518 213.377 159.518 214.593C159.518 215.809 160.504 216.795 161.72 216.795Z" fill="#D65353"/>
<path d="M161.955 222.37C161.955 222.37 158.05 221.753 156.601 219.531" stroke="#422424" stroke-width="0.3868" stroke-miterlimit="10"/>
<path d="M141.108 212.387L139.219 217.457" stroke="white" stroke-width="0.4392" stroke-miterlimit="10"/>
<path d="M144.377 212.387L142.488 217.457" stroke="white" stroke-width="0.4392" stroke-miterlimit="10"/>
<path d="M147.646 212.387L145.747 217.457" stroke="white" stroke-width="0.4392" stroke-miterlimit="10"/>
<path d="M150.915 212.387L149.016 217.457" stroke="white" stroke-width="0.4392" stroke-miterlimit="10"/>
<path d="M169.491 211.081L168.894 211.316C168.875 211.121 168.875 210.915 168.894 210.7C168.982 209.682 169.452 208.86 169.932 208.879C170.411 208.899 170.725 209.741 170.636 210.768C170.548 211.786 170.079 212.598 169.599 212.589C169.296 212.579 169.061 212.246 168.953 211.747L169.491 211.081Z" fill="#1B2536"/>
<path d="M164.324 210.886L163.727 211.121C163.707 210.925 163.707 210.719 163.727 210.504C163.815 209.486 164.284 208.674 164.764 208.684C165.244 208.703 165.557 209.545 165.469 210.573C165.381 211.591 164.911 212.413 164.431 212.393C164.128 212.383 163.893 212.051 163.785 211.551L164.324 210.886Z" fill="#1B2536"/>
<path d="M167.847 209.586C167.847 209.586 167.397 211.651 168.131 212.963C168.307 213.276 168.062 213.667 167.7 213.638L166.369 213.53" stroke="black" stroke-width="0.4392" stroke-miterlimit="10"/>
<path d="M168.464 215.625C168.464 215.625 165.978 216.457 162.992 214.91" stroke="#422424" stroke-width="0.3868" stroke-miterlimit="10"/>
<path d="M162.993 206.716C163.355 206.158 166.761 207.019 166.8 207.558C166.839 208.106 162.493 207.479 162.993 206.716Z" fill="#6E4C2E"/>
<path d="M172.565 207.625C172.261 207.038 168.787 207.547 168.699 208.085C168.601 208.633 172.995 208.447 172.565 207.625Z" fill="#6E4C2E"/>
<path d="M164.695 300.384C165.009 296.283 162.17 291.076 167.064 287.445" stroke="#1B2536" stroke-width="0.4299" stroke-miterlimit="10"/>
<path d="M156.973 347.394C156.562 348.353 157.267 349.42 158.314 349.42H193.892C194.009 348.432 193.784 347.482 193.314 346.68H157.277L156.973 347.394Z" fill="#6B89BF"/>
<path d="M158.001 321.406C156.983 323.413 156.494 325.311 156.494 325.311H180.316L181.579 321.406H158.001Z" fill="#6B89BF"/>
<path d="M158.715 241.57L166.271 256.917L198.218 267.096C198.218 267.096 208.984 264.493 214.788 271.001C214.788 271.001 170.411 271.001 164.5 271.001C158.588 271.001 152.784 270.649 147.577 261.419C145.336 257.446 142.791 252.532 140.618 248.226L158.715 241.57Z" fill="#DE6767"/>
<path d="M150.778 225.441L158.715 241.571" stroke="#1B2536" stroke-width="0.4299" stroke-miterlimit="10"/>
<path d="M155.29 216.204C155.895 216.204 156.386 215.713 156.386 215.108C156.386 214.502 155.895 214.012 155.29 214.012C154.684 214.012 154.194 214.502 154.194 215.108C154.194 215.713 154.684 216.204 155.29 216.204Z" stroke="#943232" stroke-miterlimit="10"/>
<path d="M265.516 348.913H177.194L203.826 277.504H265.516V348.913Z" fill="#496163"/>
<path d="M202.201 281.869L265.516 304.958V277.504H203.826L202.201 281.869Z" fill="#1B2536"/>
<path d="M265.516 278.767H170.167C168.023 278.767 166.281 277.025 166.281 274.882C166.281 272.738 168.023 270.996 170.167 270.996H265.516V278.767Z" fill="#496163"/>
<path d="M89 349.926H602.862" stroke="#28364F" stroke-width="1.2517" stroke-miterlimit="10"/>
<path d="M145.343 41H85.2869C82.9183 41 81 42.9183 81 45.2869V86.5705C81 88.939 82.9183 90.8574 85.2869 90.8574H113.436C114.542 90.8574 115.56 91.4446 116.117 92.394L125.122 107.809C125.611 108.651 126.903 108.299 126.903 107.33V93.96C126.903 92.2472 128.293 90.8574 130.006 90.8574H145.333C147.702 90.8574 149.62 88.939 149.62 86.5705V45.2869C149.63 42.9183 147.711 41 145.343 41Z" stroke="#BEDCE0" stroke-width="1.2362" stroke-miterlimit="10"/>
<path d="M127.588 60.8905C130.055 68.0256 126.267 75.8066 119.122 78.2731C111.977 80.7395 104.206 76.9518 101.739 69.8069C99.273 62.6718 103.061 54.8908 110.206 52.4244C117.341 49.9677 125.132 53.7555 127.588 60.8905Z" fill="#EBBC3B"/>
<path d="M124.564 55.9357C125.181 56.5817 125.729 57.2864 126.218 58.0596C133.891 56.2489 138.668 56.0629 139.676 56.7187C139.098 58.3923 130.984 63.6776 115.882 68.8845C100.78 74.1012 91.1397 74.9429 89.652 73.9838C90.0435 72.8484 93.9193 70.0492 101.074 66.741C100.976 65.8406 100.976 64.9402 101.064 64.0495C93.8508 67.2696 86.1383 71.5565 87.2639 74.8059C89.2703 80.6197 115.579 71.6152 116.695 71.2335C117.811 70.8518 144.08 61.7103 142.064 55.8867C140.948 52.6373 132.227 54.0173 124.564 55.9357Z" fill="#4A75C9"/>
<path d="M274.379 255.401C274.379 255.401 285.263 228.183 318.638 208.539C318.638 208.539 327.153 186.341 339.358 178.619C343.439 176.035 348.441 180.302 346.669 184.795L334.503 215.703H370.247L274.379 255.401Z" fill="#365896"/>
<path d="M369.513 90.2179C366.782 70.4766 349.635 45.0977 316.504 45.0977C283.374 45.0977 266.216 70.4766 263.495 90.2179C260.814 109.626 265.864 120.823 275.485 136.601C286.016 153.856 290 177.62 290 177.62H316.504H343.009C343.009 177.62 346.992 153.856 357.524 136.601C367.145 120.823 372.195 109.617 369.513 90.2179Z" fill="#FFC305"/>
<path d="M316.504 176.605C304.867 176.605 294.59 176.057 288.581 175.215L293.876 211.703C294.032 212.799 304.162 213.68 316.504 213.68C328.846 213.68 338.976 212.799 339.133 211.703L344.428 175.215C338.418 176.057 328.132 176.605 316.504 176.605Z" fill="#1B2536"/>
<path d="M316.504 219.944C324.477 219.944 330.941 215.335 330.941 209.648C330.941 203.961 324.477 199.352 316.504 199.352C308.531 199.352 302.068 203.961 302.068 209.648C302.068 215.335 308.531 219.944 316.504 219.944Z" fill="#1B2536"/>
<path d="M330.598 131.708L333.074 114.746H333.055C333.162 114.09 333.27 113.415 333.378 112.72C335.218 100.133 334.386 87.7227 331.127 87.7227C329.101 87.7227 326.928 92.7828 325.42 99.82C324.882 92.7828 323.414 87.7227 321.388 87.7227C319.362 87.7227 317.542 92.7828 316.514 99.82C315.486 92.7828 313.666 87.7227 311.64 87.7227C309.614 87.7227 308.146 92.7828 307.607 99.82C306.09 92.7828 303.917 87.7227 301.901 87.7227C298.642 87.7227 297.81 100.133 299.65 112.72C299.748 113.415 299.856 114.08 299.973 114.746L302.42 131.708" stroke="white" stroke-width="2" stroke-miterlimit="10" stroke-linecap="round" stroke-linejoin="round"/>
<path d="M291.899 33.5985L281.886 6.10547" stroke="#FF6726" stroke-width="3" stroke-miterlimit="10"/>
<path d="M270.258 46.0891L251.447 23.6758" stroke="#FF6726" stroke-width="3" stroke-miterlimit="10"/>
<path d="M254.197 65.2338L228.857 50.6016" stroke="#FF6726" stroke-width="3" stroke-miterlimit="10"/>
<path d="M245.653 88.7125L216.838 83.6328" stroke="#FF6726" stroke-width="3" stroke-miterlimit="10"/>
<path d="M316.504 0V29.2548" stroke="#FF6726" stroke-width="3" stroke-miterlimit="10"/>
<path d="M351.113 6.10547L341.11 33.5985" stroke="#FF6726" stroke-width="3" stroke-miterlimit="10"/>
<path d="M381.552 23.6758L362.75 46.0891" stroke="#FF6726" stroke-width="3" stroke-miterlimit="10"/>
<path d="M404.141 50.6016L378.802 65.2338" stroke="#FF6726" stroke-width="3" stroke-miterlimit="10"/>
<path d="M416.17 83.6328L387.356 88.7125" stroke="#FF6726" stroke-width="3" stroke-miterlimit="10"/>
<path d="M319.578 295.877V267.719L381.904 230.096C390.879 224.683 397.075 215.659 398.905 205.343L405.1 170.539C405.502 168.298 403.926 166.174 401.665 165.949C398.005 165.586 392.582 166.595 388.452 174.013L389.02 155.642C389.098 153.235 387.003 151.326 384.605 151.62L383.284 151.786C375.826 152.716 370.237 159.058 370.237 166.565V197.435L363.68 167.358C363.19 165.126 360.587 164.118 358.727 165.44L356.457 167.045C351.074 170.862 348.451 177.508 349.772 183.977L355.556 212.234L339.172 185.954C338.252 184.476 336.177 184.3 335.022 185.602C331.694 189.341 330.911 194.704 333.055 199.236L341.599 217.333L329.052 228.931C329.052 228.931 268.232 233.903 268.232 269.402C268.232 284.788 268.232 295.907 268.232 295.907H319.578V295.877Z" fill="#4A75C9"/>
<path d="M268.223 282.145L319.578 285.932V295.876H268.223V282.145Z" fill="#1B2536"/>
<path d="M356.633 213.684L357.543 214.907C360.254 218.577 359.804 223.686 356.486 226.818L333.065 248.938" stroke="#1B2536" stroke-width="0.7511" stroke-miterlimit="10" stroke-linecap="round" stroke-linejoin="round"/>
<path d="M370.932 201.918L371.735 205.745C373.467 213.966 370.932 222.501 364.982 228.432L347.188 246.187" stroke="#1B2536" stroke-width="0.7511" stroke-miterlimit="10" stroke-linecap="round" stroke-linejoin="round"/>
<path d="M388.442 176.832L387.669 205.881C387.463 213.741 383.881 221.14 377.852 226.19L361.625 239.785" stroke="#1B2536" stroke-width="0.7511" stroke-miterlimit="10" stroke-linecap="round" stroke-linejoin="round"/>
<path d="M335.198 288.539H259.463V317.647H335.198V288.539Z" fill="#BEDCE0"/>
<path d="M338.536 311.527H256.115V350.002H338.536V311.527Z" fill="#1B2536"/>
<path d="M304.231 338.913V311.527" stroke="#BEDCE0" stroke-miterlimit="10"/>
<path d="M317.503 319.702C317.503 321.924 315.702 323.725 313.48 323.725C311.258 323.725 309.457 321.924 309.457 319.702C309.457 317.481 311.258 315.68 313.48 315.68C315.702 315.68 317.503 317.481 317.503 319.702Z" stroke="#BEDCE0" stroke-miterlimit="10"/>
<path d="M317.503 334.089C317.503 336.311 315.702 338.112 313.48 338.112C311.258 338.112 309.457 336.311 309.457 334.089C309.457 331.867 311.258 330.066 313.48 330.066C315.702 330.066 317.503 331.867 317.503 334.089Z" stroke="#BEDCE0" stroke-miterlimit="10"/>
<path d="M188.391 212.844L171.733 257.484H233.423L250.081 212.844H188.391Z" fill="#BEDCE0"/>
<path d="M191.552 212.844L174.894 257.484" stroke="#4A75C9" stroke-width="0.7511" stroke-miterlimit="10"/>
<path d="M221.884 232.576C220.748 236.932 216.285 240.465 211.93 240.465C207.574 240.465 204.961 236.932 206.106 232.576C207.242 228.221 211.705 224.688 216.06 224.688C220.415 224.688 223.029 228.221 221.884 232.576Z" stroke="white" stroke-width="0.7511" stroke-miterlimit="10"/>
<path d="M200.909 244.684L202.201 257.74H233.423L218.938 244.684H200.909Z" fill="#4A75C9"/>
<path d="M218.938 244.684L228.676 270.787H210.648L200.909 244.684H218.938Z" fill="#BEDCE0"/>
<path d="M202.837 244.684L212.899 271.002" stroke="#4A75C9" stroke-width="0.7511" stroke-miterlimit="10"/>
<path d="M484.036 76.9679C484.036 64.6161 471.959 54.5938 457.072 54.5938C442.185 54.5938 430.107 64.6063 430.107 76.9679C430.107 86.6184 437.477 94.8496 447.803 97.9816C450.387 98.7646 452.482 100.693 453.617 103.149L457.072 110.588L460.527 103.149C461.662 100.693 463.757 98.7744 466.341 97.9816C476.666 94.8496 484.036 86.6184 484.036 76.9679Z" fill="#4A75C9"/>
<path d="M447.167 76.6851C447.167 78.0358 446.071 79.132 444.72 79.132C443.369 79.132 442.273 78.0358 442.273 76.6851C442.273 75.3345 443.369 74.2383 444.72 74.2383C446.071 74.2383 447.167 75.3345 447.167 76.6851Z" fill="white"/>
<path d="M455.398 76.6851C455.398 78.0358 454.302 79.132 452.951 79.132C451.601 79.132 450.504 78.0358 450.504 76.6851C450.504 75.3345 451.601 74.2383 452.951 74.2383C454.302 74.2383 455.398 75.3345 455.398 76.6851Z" fill="white"/>
<path d="M463.63 76.6851C463.63 78.0358 462.533 79.132 461.183 79.132C459.832 79.132 458.736 78.0358 458.736 76.6851C458.736 75.3345 459.832 74.2383 461.183 74.2383C462.533 74.2383 463.63 75.3345 463.63 76.6851Z" fill="white"/>
<path d="M471.861 76.6851C471.861 78.0358 470.765 79.132 469.414 79.132C468.063 79.132 466.967 78.0358 466.967 76.6851C466.967 75.3345 468.063 74.2383 469.414 74.2383C470.774 74.2383 471.861 75.3345 471.861 76.6851Z" fill="white"/>
</g>
<defs>
<clipPath id="clip0_1842_515">
<rect width="690" height="350" fill="white"/>
</clipPath>
</defs>
</svg>
