<svg width="690" height="350" viewBox="0 0 690 350" fill="none" xmlns="http://www.w3.org/2000/svg">
<g clip-path="url(#clip0_1794_25276)">
<rect x="-42" y="212" width="741" height="166" fill="#393737" fill-opacity="0.09"/>
<path d="M183.417 33.2305L185.523 43.1642L190.394 40.7034L189.907 56.7229L186.868 47.3837L182.17 50.3894L178 35.5013L183.417 33.2305Z" fill="#FF6726"/>
<path d="M245.438 3.26254L239.848 11.7429L245.026 13.4687L233.292 24.3933L237.792 15.6652L232.359 14.4348L240.013 1L245.438 3.26254Z" fill="#FF6726"/>
<path d="M263.885 64.3651L256.198 71.0288L260.723 74.0923L246.446 81.4497L253.159 74.2492L248.246 71.5903L259.27 60.707L263.885 64.3651Z" fill="#FF6726"/>
<path d="M430.702 51.0633C430.702 45.407 426.078 40.8324 420.405 40.9232C415.128 41.0058 410.719 45.2336 410.43 50.5018C410.248 53.7718 411.619 56.7279 413.873 58.7015C415.913 60.4933 417.003 63.1274 417.003 65.8441H424.104C424.104 63.0944 425.269 60.4685 427.316 58.6271C429.397 56.761 430.702 54.0608 430.702 51.0633Z" fill="#FF6726"/>
<path opacity="0.3" d="M424.162 41.5742C427.061 47.6021 425.632 56.2972 419.199 58.568C417.853 59.146 416.499 59.7241 415.153 60.0791C416.367 61.7224 417.003 63.7537 417.003 65.8263H424.104C424.104 63.0766 425.269 60.4507 427.317 58.6093C429.389 56.7514 430.694 54.0595 430.694 51.0538C430.702 46.7269 427.985 43.0275 424.162 41.5742Z" fill="#1D1D1B"/>
<path d="M419.001 65.4739C419.001 65.4739 419.133 49.504 417.044 49.5866C414.955 49.6692 416.664 54.3759 418.819 54.3759C420.975 54.3759 424.195 44.5 420.752 44.5" stroke="#292935" stroke-width="0.75" stroke-miterlimit="10" stroke-linecap="round" stroke-linejoin="round"/>
<path d="M422.494 65.4739C422.494 65.4739 422.362 49.504 424.451 49.5866C426.54 49.6774 424.831 54.3759 422.676 54.3759C420.52 54.3759 417.3 44.5 420.743 44.5" stroke="#292935" stroke-width="0.75" stroke-miterlimit="10" stroke-linecap="round" stroke-linejoin="round"/>
<path opacity="0.3" d="M420.966 42.6091C418.365 42.0311 415.145 43.4679 413.592 45.5818C411.71 48.1498 411.611 51.3042 412.882 54.1612C413.27 55.0283 414.517 54.3842 414.344 53.5502C413.824 51.1142 413.972 48.4306 415.649 46.4488C417.077 44.756 419.174 44.0624 421.008 42.9394C421.131 42.8568 421.115 42.6421 420.966 42.6091Z" fill="white"/>
<path d="M416.846 62.5117H424.236C424.889 62.5117 425.409 63.0402 425.409 63.6843C425.409 64.3366 424.88 64.8568 424.236 64.8568H416.846C416.194 64.8568 415.673 64.3284 415.673 63.6843C415.665 63.0402 416.194 62.5117 416.846 62.5117Z" fill="#323850"/>
<path d="M416.846 64.8633H424.236C424.889 64.8633 425.409 65.3918 425.409 66.0358C425.409 66.6882 424.88 67.2084 424.236 67.2084H416.846C416.194 67.2084 415.673 66.6799 415.673 66.0358C415.665 65.3835 416.194 64.8633 416.846 64.8633Z" fill="#323850"/>
<path d="M416.846 67.2109H424.236C424.889 67.2109 425.409 67.7394 425.409 68.3835C425.409 69.0358 424.88 69.5561 424.236 69.5561H416.846C416.194 69.5561 415.673 69.0276 415.673 68.3835C415.665 67.7394 416.194 67.2109 416.846 67.2109Z" fill="#323850"/>
<path opacity="0.3" d="M425.409 66.0411C425.409 65.3888 424.88 64.8686 424.236 64.8686C424.889 64.8686 425.409 64.3401 425.409 63.696C425.409 63.0437 424.88 62.5234 424.236 62.5234H423.749C422.717 65.7273 419.447 67.1889 416.053 67.544C415.822 67.7587 415.673 68.0642 415.673 68.4027C415.673 69.0551 416.202 69.5753 416.846 69.5753H424.236C424.889 69.5753 425.409 69.0468 425.409 68.4027C425.409 67.7504 424.88 67.2302 424.236 67.2302C424.88 67.2137 425.409 66.6852 425.409 66.0411Z" fill="#1D1D1B"/>
<g opacity="0.3">
<path opacity="0.3" d="M424.005 64.866C424.005 64.866 423.567 65.0064 422.923 65.1055C422.271 65.2128 421.404 65.2789 420.537 65.2789C419.67 65.2789 418.803 65.2046 418.151 65.1055C417.498 65.0064 417.069 64.866 417.069 64.866C417.069 64.866 417.506 64.7256 418.151 64.6265C418.803 64.5192 419.67 64.4531 420.537 64.4531C421.404 64.4531 422.271 64.5274 422.923 64.6265C423.576 64.7256 424.005 64.866 424.005 64.866Z" fill="white"/>
</g>
<g opacity="0.3">
<path opacity="0.3" d="M424.005 67.2097C424.005 67.2097 423.567 67.3501 422.923 67.4492C422.271 67.5566 421.404 67.6226 420.537 67.6226C419.67 67.6226 418.803 67.5483 418.151 67.4492C417.498 67.3501 417.069 67.2097 417.069 67.2097C417.069 67.2097 417.506 67.0694 418.151 66.9703C418.803 66.8629 419.67 66.7969 420.537 66.7969C421.404 66.7969 422.271 66.8712 422.923 66.9703C423.576 67.0694 424.005 67.2097 424.005 67.2097Z" fill="white"/>
</g>
<path d="M379.597 92.1205C373.726 94.54 385.823 111.567 387.359 110.939C388.894 110.303 385.476 89.6929 379.597 92.1205Z" fill="#EC825E"/>
<path d="M388.853 116.149C389.738 116.149 390.455 115.432 390.455 114.547C390.455 113.663 389.738 112.945 388.853 112.945C387.968 112.945 387.251 113.663 387.251 114.547C387.251 115.432 387.968 116.149 388.853 116.149Z" fill="#EC825E"/>
<path d="M458.249 51.2493C452.344 48.8959 449.182 69.5477 450.726 70.1588C452.262 70.7698 464.153 53.5944 458.249 51.2493Z" fill="#EC825E"/>
<path d="M449.281 75.3875C450.166 75.3875 450.883 74.6703 450.883 73.7855C450.883 72.9008 450.166 72.1836 449.281 72.1836C448.396 72.1836 447.679 72.9008 447.679 73.7855C447.679 74.6703 448.396 75.3875 449.281 75.3875Z" fill="#EC825E"/>
<path d="M434.252 27.4681C433.352 28.9049 432.675 30.4904 432.006 32.0428C431.42 33.4052 430.702 34.8007 430.405 36.2623C430.372 36.4275 430.586 36.5926 430.71 36.444C431.734 35.2301 432.436 33.7355 433.179 32.34C433.947 30.9032 434.723 29.4417 435.276 27.9058C435.499 27.2782 434.575 26.9397 434.252 27.4681Z" fill="#FF6726"/>
<path d="M421.09 24.4728C420.818 26.1491 420.801 27.8666 420.784 29.5594C420.768 31.0457 420.652 32.6064 420.941 34.068C420.974 34.2331 421.23 34.2992 421.296 34.1175C421.775 32.6064 421.841 30.9549 421.982 29.3777C422.13 27.751 422.287 26.1078 422.205 24.4811C422.172 23.8205 421.189 23.8618 421.09 24.4728Z" fill="#FF6726"/>
<path d="M442.204 35.5961C440.867 36.6366 439.686 37.8834 438.513 39.1055C437.489 40.179 436.333 41.2442 435.549 42.5076C435.458 42.648 435.598 42.8792 435.772 42.7801C437.151 41.9956 438.323 40.8313 439.504 39.7826C440.726 38.7009 441.957 37.6027 443.005 36.3475C443.443 35.8521 442.691 35.2163 442.204 35.5961Z" fill="#FF6726"/>
<path d="M407.928 27.4681C408.828 28.9049 409.505 30.4904 410.174 32.0428C410.76 33.4052 411.479 34.8007 411.776 36.2623C411.809 36.4275 411.594 36.5926 411.47 36.444C410.446 35.2301 409.744 33.7355 409.001 32.34C408.233 30.9032 407.457 29.4417 406.904 27.9058C406.681 27.2782 407.606 26.9397 407.928 27.4681Z" fill="#FF6726"/>
<path d="M399.976 35.5961C401.313 36.6366 402.494 37.8834 403.667 39.1055C404.691 40.179 405.847 41.2442 406.631 42.5076C406.722 42.648 406.582 42.8792 406.408 42.7801C405.029 41.9956 403.857 40.8313 402.676 39.7826C401.454 38.7009 400.223 37.6027 399.175 36.3475C398.745 35.8521 399.489 35.2163 399.976 35.5961Z" fill="#FF6726"/>
<path d="M531.664 8.41863C518.014 6.92404 494.208 7.71675 490.583 40.8538C486.958 73.9909 500.525 82.5869 523.282 85.0806C546.04 87.5661 561.143 82.1079 564.768 48.9709C568.393 15.8338 545.313 9.91323 531.664 8.41863Z" fill="#D4E5EA"/>
<path d="M519.088 110.661C523.922 110.661 527.84 107.345 527.84 103.255C527.84 99.1638 523.922 95.8477 519.088 95.8477C514.254 95.8477 510.335 99.1638 510.335 103.255C510.335 107.345 514.254 110.661 519.088 110.661Z" fill="#D4E5EA"/>
<path d="M516.363 129.214C519.373 129.214 521.813 127.318 521.813 124.978C521.813 122.639 519.373 120.742 516.363 120.742C513.353 120.742 510.913 122.639 510.913 124.978C510.913 127.318 513.353 129.214 516.363 129.214Z" fill="#D4E5EA"/>
<path d="M511.458 145.779C513.578 145.779 515.298 144.603 515.298 143.153C515.298 141.703 513.578 140.527 511.458 140.527C509.337 140.527 507.618 141.703 507.618 143.153C507.618 144.603 509.337 145.779 511.458 145.779Z" fill="#D4E5EA"/>
<path d="M514.1 22.418L554.124 26.7944" stroke="white" stroke-width="2" stroke-miterlimit="10" stroke-linecap="round" stroke-linejoin="round"/>
<path d="M505.843 26.957L553.538 32.1757" stroke="white" stroke-width="2" stroke-miterlimit="10" stroke-linecap="round" stroke-linejoin="round"/>
<path d="M505.248 32.3398L537.807 35.8988" stroke="white" stroke-width="2" stroke-miterlimit="10" stroke-linecap="round" stroke-linejoin="round"/>
<path d="M513.572 38.6836L552.357 42.9279" stroke="white" stroke-width="2" stroke-miterlimit="10" stroke-linecap="round" stroke-linejoin="round"/>
<path d="M504.076 43.0938L551.771 48.3042" stroke="white" stroke-width="2" stroke-miterlimit="10" stroke-linecap="round" stroke-linejoin="round"/>
<path d="M503.489 48.4727L551.184 53.6914" stroke="white" stroke-width="2" stroke-miterlimit="10" stroke-linecap="round" stroke-linejoin="round"/>
<path d="M502.903 53.8438L527.89 56.577" stroke="white" stroke-width="2" stroke-miterlimit="10" stroke-linecap="round" stroke-linejoin="round"/>
<path d="M510.302 60.0938L550.003 64.4372" stroke="white" stroke-width="2" stroke-miterlimit="10" stroke-linecap="round" stroke-linejoin="round"/>
<path d="M501.722 64.6055L549.417 69.8159" stroke="white" stroke-width="2" stroke-miterlimit="10" stroke-linecap="round" stroke-linejoin="round"/>
<path d="M501.136 69.9805L540.507 74.2826" stroke="white" stroke-width="2" stroke-miterlimit="10" stroke-linecap="round" stroke-linejoin="round"/>
<path d="M359.775 335.939L364.646 321.402H354.274L359.775 335.939Z" fill="#717F87"/>
<path opacity="0.3" d="M359.775 335.939L364.646 321.402H354.274L359.775 335.939Z" fill="#1D1D1B"/>
<path d="M359.775 340.429C362.813 340.429 365.276 338.177 365.276 335.4C365.276 332.623 362.813 330.371 359.775 330.371C356.737 330.371 354.274 332.623 354.274 335.4C354.274 338.177 356.737 340.429 359.775 340.429Z" fill="#536269"/>
<path d="M367.471 261.094H352.08V316.268H367.471V261.094Z" fill="#717F87"/>
<path opacity="0.3" d="M358.646 261.094H352.089V316.268H367.48V300.826C356.738 290.649 357.858 275.351 358.646 261.094Z" fill="#1D1D1B"/>
<path d="M351.959 312.738L310.037 335.402L359.775 324.066V312.738H351.959Z" fill="#717F87"/>
<path d="M367.6 312.738L409.523 335.402L359.775 324.066V312.738H367.6Z" fill="#717F87"/>
<path d="M315.535 340.427C318.572 337.65 318.572 333.147 315.535 330.37C312.497 327.593 307.571 327.593 304.534 330.37C301.496 333.147 301.496 337.65 304.534 340.427C307.571 343.204 312.497 343.204 315.535 340.427Z" fill="#5F7077"/>
<path d="M409.523 342.512C413.819 342.512 417.302 339.328 417.302 335.401C417.302 331.473 413.819 328.289 409.523 328.289C405.227 328.289 401.744 331.473 401.744 335.401C401.744 339.328 405.227 342.512 409.523 342.512Z" fill="#2F6169"/>
<path d="M347.792 150.324C333.892 150.324 320.918 153.956 310.851 161.483C312.481 161.051 314.111 160.611 315.713 160.17C314.111 160.619 312.481 161.051 310.851 161.483C297.34 171.591 289.08 188.753 290.941 213.703C294.182 257.228 331.512 271.696 355.858 271.696C380.204 271.696 428.887 258.083 428.887 213.703C428.877 169.322 408.3 150.324 347.792 150.324Z" fill="#263238"/>
<path opacity="0.3" d="M349.866 160.805C322.918 160.805 300.155 177.221 302.841 213.228C305.526 249.235 336.401 265.075 356.534 265.075C376.666 265.075 416.94 249.937 416.94 213.228C416.94 176.518 399.91 160.805 349.866 160.805Z" fill="#1D1D1B"/>
<path d="M378.009 116.326C377.25 116.681 374.536 121.406 375.314 124.716C375.314 124.716 384.038 124.301 390.835 127.341C397.632 130.371 376.898 138.431 364.618 137.102C352.339 135.773 346.921 127.781 346.088 123.59L353.579 121.304C353.579 121.304 357.098 112.736 359.127 98.8516L378.009 116.326Z" fill="#F6AD84"/>
<path opacity="0.3" d="M390.835 127.341C384.037 124.31 375.314 124.716 375.314 124.716C374.536 121.406 377.249 116.681 378.009 116.326L359.145 98.8516C358.812 101.154 358.432 103.305 358.034 105.294C358.691 118.942 368.1 135.011 381.463 135.011C389.251 132.683 394.854 129.135 390.835 127.341Z" fill="#1D1D1B"/>
<path d="M396.975 87.3593C397.151 87.9943 389.65 124.12 372.175 119.861C354.7 115.603 359.701 87.3593 359.701 87.3593C359.701 87.3593 362.637 71.265 379.889 74.897C397.141 78.529 396.975 87.3593 396.975 87.3593Z" fill="#F6AD84"/>
<path d="M377.472 89.6804C376.425 90.0867 374.675 90.4677 373.267 89.3163C372.971 89.0793 373.045 88.6305 373.397 88.4697C374.156 88.131 375.592 87.7924 377.5 88.7321C377.926 88.9438 377.916 89.511 377.472 89.6804Z" fill="#292935"/>
<path d="M389.39 92.5429C390.224 93.2456 391.733 94.143 393.483 93.4996C393.845 93.3641 393.946 92.9239 393.678 92.6699C393.085 92.1111 391.863 91.3576 389.714 91.6455C389.233 91.7132 389.038 92.2381 389.39 92.5429Z" fill="#292935"/>
<path d="M382.917 97.2969C382.852 97.3223 381.908 102.631 382.037 104.79C382.176 106.948 378.528 105.899 378.528 105.899" stroke="#DD8D6B" stroke-width="0.75" stroke-miterlimit="10" stroke-linecap="round" stroke-linejoin="round"/>
<path d="M376.576 95.0955C376.848 94.3061 376.736 93.5706 376.326 93.4526C375.916 93.3347 375.364 93.879 375.092 94.6684C374.82 95.4577 374.932 96.1933 375.342 96.3112C375.751 96.4292 376.304 95.8849 376.576 95.0955Z" fill="#102237"/>
<path d="M389.122 98.6971C389.394 97.9077 389.282 97.1721 388.873 97.0542C388.463 96.9362 387.91 97.4806 387.638 98.2699C387.367 99.0593 387.478 99.7948 387.888 99.9128C388.298 100.031 388.851 99.4864 389.122 98.6971Z" fill="#102237"/>
<path opacity="0.3" d="M396.975 87.3612C396.975 87.3612 397.151 78.5224 379.889 74.8988C362.636 71.2753 359.701 87.3612 359.701 87.3612C359.701 87.3612 359.312 89.5793 359.127 92.8558C359.108 93.1606 362.201 92.5256 362.46 92.4325C367.461 90.6376 370.211 84.8721 370.85 80.3172C370.776 81.0877 371.443 81.9512 371.721 82.6793C372.017 83.4752 372.378 84.2541 372.832 84.9822C373.721 86.413 375.064 87.7083 376.916 87.9707C378.435 88.1909 380.046 87.4966 380.583 86.142C380.352 86.7262 381.213 87.7168 381.528 88.1909C382.408 89.5116 383.695 90.7815 385.445 91.0779C387.779 91.4758 389.798 90.1042 390.362 88.0469C391.279 90.9847 392.946 93.2368 395.085 95.1755C396.41 90.7985 397.021 87.5474 396.975 87.3612Z" fill="#1D1D1B"/>
<path d="M369.888 106.637C369.888 106.637 369.749 112.504 373.666 113.731" stroke="#DD8D6B" stroke-width="0.75" stroke-miterlimit="10" stroke-linecap="round" stroke-linejoin="round"/>
<path d="M370.091 77.3118C370.091 77.3118 373.286 85.7442 377.722 86.5569C382.158 87.3697 379.648 79.8262 379.648 79.8262C379.648 79.8262 382.297 89.427 387.029 90.0789C391.761 90.7308 389.214 81.2486 389.214 81.2486C389.214 81.2486 391.52 93.0759 397.947 93.931C401.355 94.3797 407.495 85.2785 400.577 76.5244C393.659 67.7703 382.334 63.7065 373.286 70.1747C373.286 70.1747 365.415 68.9894 361.692 73.2056C357.969 77.4218 356.589 80.9269 355.913 87.5221C354.959 96.7334 369.563 89.9604 370.091 77.3118Z" fill="black"/>
<path opacity="0.3" d="M379.787 80.3237C379.703 80.0105 379.639 79.8242 379.639 79.8242C379.639 79.8242 379.694 80.0105 379.787 80.3237Z" fill="#1D1D1B"/>
<path opacity="0.3" d="M389.436 82.2568C389.307 81.6473 389.205 81.2578 389.205 81.2578C389.205 81.2578 389.279 81.6303 389.436 82.2568Z" fill="#1D1D1B"/>
<path opacity="0.3" d="M402.04 78.7357C400.716 81.7243 398.29 83.8239 394.604 83.4006C391.215 83.4006 388.668 80.302 387.816 76.4244C387.733 79.6416 387.862 81.2248 386.168 81.9952C381.074 82.7741 379.333 77.9737 379.333 74.8751C378.481 77.9737 376.953 83.7901 372.545 78.7526C371.36 77.398 369.999 74.8751 369.999 72.5469C367.591 77.6859 363.655 88.3788 356.052 86.2114C355.997 86.6432 355.95 87.0834 355.904 87.5406C354.959 96.7434 369.563 89.9704 370.091 77.3218C370.091 77.3218 373.286 85.7542 377.722 86.567C381.454 87.2528 380.269 82.0037 379.796 80.3358C379.694 80.0226 379.648 79.8363 379.648 79.8363C379.648 79.8363 379.713 80.0226 379.796 80.3358C380.417 82.3085 382.945 89.5302 387.029 90.089C390.807 90.6054 389.946 84.679 389.446 82.2661C389.288 81.6481 389.214 81.2671 389.214 81.2671C389.214 81.2671 389.316 81.6566 389.446 82.2661C390.168 85.1362 392.669 93.2469 397.947 93.9496C401.068 94.3475 406.476 86.7448 402.04 78.7357Z" fill="#1D1D1B"/>
<path d="M362.46 93.038C361.08 89.7277 360.951 89.0927 359.034 88.8388C357.117 88.5848 352.551 95.5948 359.673 99.0237L362.46 93.038Z" fill="#F6AD84"/>
<path opacity="0.3" d="M357.941 91.8195C358.126 91.3962 358.441 90.939 358.941 90.8798C359.432 90.829 359.858 91.193 360.08 91.5909C360.423 92.2005 360.478 92.9117 360.441 93.589C360.414 94.1139 360.339 94.6472 360.071 95.1044C359.802 95.5701 359.312 95.951 358.747 95.9934C356.552 96.1966 357.524 92.7593 357.941 91.8195Z" fill="#1D1D1B"/>
<path d="M360.442 93.3049C360.405 92.7461 360.358 92.1789 360.127 91.6625C359.895 91.146 359.451 90.6804 358.867 90.5195C358.284 90.3587 357.562 90.5872 357.321 91.1037" stroke="#DD8D6B" stroke-width="0.75" stroke-miterlimit="10" stroke-linecap="round" stroke-linejoin="round"/>
<path d="M359.136 90.7109C357.849 91.7015 357.182 93.327 357.441 94.8425" stroke="#DD8D6B" stroke-width="0.75" stroke-miterlimit="10" stroke-linecap="round" stroke-linejoin="round"/>
<path d="M447.195 140.172C447.491 138.394 447.862 136.625 447.806 134.813C447.741 132.459 447.214 129.979 448.158 127.71C448.223 127.566 448.288 127.413 448.353 127.269C449.01 125.932 449.51 125.635 450.51 125.373C451.223 123.984 451.464 120.183 451.946 118.701C452.325 117.525 452.724 116.322 453.335 115.23C453.557 114.832 454.011 113.952 454.631 114.028C457.66 114.409 454.854 125.652 454.854 125.652C454.854 125.652 463.623 124.89 464.179 128.455C464.735 132.019 457.067 143.347 457.067 143.347L447.195 140.172Z" fill="#F6AD84"/>
<path d="M454.863 125.664C454.863 125.664 452.992 129.931 454.863 130.227C456.734 130.524 457.706 125.664 457.706 125.664C457.706 125.664 456.039 130.515 457.706 130.668C459.373 130.812 461.086 126.037 461.086 126.037C461.086 126.037 459.669 130.812 461.086 131.066C462.503 131.311 463.531 127.23 463.531 127.23" stroke="#DD8D6B" stroke-width="0.75" stroke-miterlimit="10" stroke-linecap="round" stroke-linejoin="round"/>
<path d="M449.519 128.145H454.029" stroke="#DD8D6B" stroke-width="0.75" stroke-miterlimit="10" stroke-linecap="round" stroke-linejoin="round"/>
<path d="M455.937 129.785C455.956 129.768 457.78 132.113 448.899 131.064" stroke="#DD8D6B" stroke-width="0.75" stroke-miterlimit="10" stroke-linecap="round" stroke-linejoin="round"/>
<path d="M423.756 326.6L424.321 334.305C424.321 334.305 434.452 340.341 434.795 340.341C435.137 340.341 448.537 335.863 448.537 335.863L444.815 323.832L423.756 326.6Z" fill="#F6AD84"/>
<path d="M423.395 331.122C422.904 333.729 422.07 339.537 422.858 345.65C422.858 345.65 454.538 349.951 473.596 344.363C473.596 344.363 475.958 340.485 473.244 339.3C470.531 338.115 447.361 331.782 445.583 325.398C445.583 325.398 440.268 334.11 433.387 333.645C428.905 333.34 426.145 331.748 424.775 330.673C424.274 330.292 423.506 330.529 423.395 331.122Z" fill="#EC6759"/>
<path d="M473.605 344.359C470.114 345.383 466.188 346.077 462.122 346.526C462.28 341.184 463.382 338.085 464.484 336.324C468.744 337.823 472.3 338.889 473.263 339.313C475.958 340.481 473.605 344.359 473.605 344.359Z" fill="#FBE7D4"/>
<path d="M474.55 341.375C474.541 342.806 473.596 344.364 473.596 344.364C454.538 349.951 422.857 345.65 422.857 345.65C422.709 344.558 422.626 343.475 422.589 342.416C446.009 346.074 465.965 343.111 474.55 341.375Z" fill="#FBE7D4"/>
<path d="M464.475 336.325C464.475 336.325 453.242 333.7 445.555 327.012" stroke="#C93A2F" stroke-miterlimit="10" stroke-linecap="round" stroke-linejoin="round"/>
<path d="M448.074 335.942C448.806 334.223 450.093 332.708 451.741 331.633" stroke="#C93A2F" stroke-miterlimit="10" stroke-linecap="round" stroke-linejoin="round"/>
<path d="M451.473 337.38C451.89 335.602 452.983 333.96 454.52 332.809" stroke="#C93A2F" stroke-miterlimit="10" stroke-linecap="round" stroke-linejoin="round"/>
<path d="M454.621 338.288C454.936 336.73 455.779 335.265 457.001 334.131C457.112 334.029 457.335 333.936 457.4 334.072" stroke="#C93A2F" stroke-miterlimit="10" stroke-linecap="round" stroke-linejoin="round"/>
<path d="M423.089 335.008C425.126 335.313 427.043 336.295 428.395 337.725C429.747 339.156 430.525 341.027 430.562 342.924" stroke="#C93A2F" stroke-miterlimit="10" stroke-linecap="round" stroke-linejoin="round"/>
<path d="M423.941 330.333C426.191 332.729 429.646 334.143 433.091 334.092C436.536 334.041 439.934 332.526 442.11 330.07" stroke="#C93A2F" stroke-miterlimit="10" stroke-linecap="round" stroke-linejoin="round"/>
<path d="M398.234 327.37L398.799 335.074C398.799 335.074 408.93 341.111 409.273 341.111C409.615 341.111 423.015 336.632 423.015 336.632L419.292 324.602L398.234 327.37Z" fill="#F6AD84"/>
<path d="M397.863 331.879C397.373 334.487 396.539 340.295 397.326 346.408C397.326 346.408 429.007 350.708 448.065 345.121C448.065 345.121 450.427 341.243 447.713 340.058C445 338.881 421.83 332.54 420.052 326.156C420.052 326.156 414.736 334.868 407.856 334.402C403.374 334.098 400.614 332.506 399.243 331.431C398.743 331.05 397.975 331.287 397.863 331.879Z" fill="#EC6759"/>
<path d="M448.074 345.128C444.583 346.153 440.656 346.847 436.591 347.296C436.748 341.953 437.85 338.855 438.953 337.094C443.212 338.592 446.768 339.659 447.732 340.082C450.436 341.251 448.074 345.128 448.074 345.128Z" fill="#FBE7D4"/>
<path d="M449.019 342.145C449.009 343.575 448.065 345.133 448.065 345.133C429.007 350.721 397.326 346.42 397.326 346.42C397.178 345.328 397.095 344.244 397.058 343.186C420.478 346.843 440.434 343.872 449.019 342.145Z" fill="#FBE7D4"/>
<path d="M438.944 337.094C438.944 337.094 427.71 334.47 420.024 327.781" stroke="#C93A2F" stroke-miterlimit="10" stroke-linecap="round" stroke-linejoin="round"/>
<path d="M422.543 336.708C423.275 334.989 424.562 333.474 426.21 332.398" stroke="#C93A2F" stroke-miterlimit="10" stroke-linecap="round" stroke-linejoin="round"/>
<path d="M425.942 338.142C426.358 336.364 427.451 334.722 428.988 333.57" stroke="#C93A2F" stroke-miterlimit="10" stroke-linecap="round" stroke-linejoin="round"/>
<path d="M429.09 339.057C429.405 337.5 430.248 336.035 431.47 334.9C431.581 334.799 431.803 334.706 431.868 334.841" stroke="#C93A2F" stroke-miterlimit="10" stroke-linecap="round" stroke-linejoin="round"/>
<path d="M397.558 335.773C399.595 336.078 401.512 337.06 402.864 338.491C404.216 339.922 404.994 341.793 405.031 343.689" stroke="#C93A2F" stroke-miterlimit="10" stroke-linecap="round" stroke-linejoin="round"/>
<path d="M398.41 331.102C400.66 333.498 404.114 334.912 407.559 334.861C411.004 334.811 414.403 333.295 416.579 330.84" stroke="#C93A2F" stroke-miterlimit="10" stroke-linecap="round" stroke-linejoin="round"/>
<path d="M445.722 325.184C445.722 325.184 454.093 249.217 443.231 233.867C432.359 218.51 400.752 213.091 400.752 213.091V196.734H344.226C344.226 196.734 326.89 251.155 405.633 246.228C405.633 246.228 411.856 284.03 419.459 328.715C419.45 328.715 432.674 331.195 445.722 325.184Z" fill="#455A64"/>
<path opacity="0.3" d="M431.933 262.546C429.395 233.185 397.391 225.379 370.313 221.484C363.154 224.117 356.052 226.835 349.625 230.467C357.506 240.432 373.637 248.229 405.633 246.223C405.633 246.223 411.856 284.025 419.459 328.71C419.459 328.71 428.923 330.479 439.74 327.389C436.804 324.045 434.6 320.133 433.637 315.274C430.229 297.444 432.776 280.384 431.933 262.546Z" fill="#1D1D1B"/>
<path d="M422.339 328.419C422.339 328.419 428.155 260.452 417.283 245.094C406.411 229.736 374.804 224.318 374.804 224.318V207.961H318.278C318.278 207.961 300.942 262.382 379.685 257.455C379.685 257.455 387.028 284.267 394.631 328.952C394.622 328.961 409.291 334.43 422.339 328.419Z" fill="#455A64"/>
<path opacity="0.3" d="M402.244 312.171C397.15 289.685 411.578 254.779 386.973 248.581C363.96 241.817 325.816 236.508 331.178 207.969H318.269C318.269 207.969 300.933 262.39 379.676 257.462C379.676 257.462 387.019 284.275 394.622 328.96C394.622 328.96 403.633 332.321 413.819 330.873C408.244 326.081 404.04 320.003 402.244 312.171Z" fill="#1D1D1B"/>
<path opacity="0.3" d="M449.732 210.055H303.748V231.144H449.732V210.055Z" fill="#1D1D1B"/>
<path d="M384.89 206.725H321.112L340.467 124.721L353.58 121.301C353.58 121.301 359.108 127.938 366.86 127.735C369.453 127.676 372.314 126.838 375.296 124.713C375.296 124.713 375.389 124.704 375.555 124.687C375.629 124.679 375.722 124.67 375.824 124.662H375.852C377.037 124.569 379.954 124.425 383.362 124.797C383.38 124.806 383.399 124.806 383.408 124.806C383.982 124.865 384.566 124.941 385.168 125.043C385.39 125.077 385.612 125.111 385.835 125.153C385.872 125.161 385.909 125.17 385.955 125.178C386.131 125.221 386.307 125.246 386.492 125.288C388.205 125.644 389.955 126.169 391.595 126.905C391.78 126.99 391.965 127.083 392.15 127.176C392.234 127.219 392.298 127.261 392.373 127.312C393.15 127.71 393.901 128.142 394.604 128.658C401.781 133.966 404.485 173.148 403.393 192.35C402.457 209.054 384.89 206.725 384.89 206.725Z" fill="#FF6726"/>
<path d="M376.129 125.61C375.361 128.48 372.453 130.63 369.277 131.172C366.1 131.714 362.776 130.825 360.081 129.208C357.386 127.582 355.265 125.271 353.459 122.824" stroke="#DB8321" stroke-miterlimit="10" stroke-linecap="round" stroke-linejoin="round"/>
<path opacity="0.3" d="M388.316 179.107C385.14 176.271 382.047 174.764 377.278 173.833C367.036 171.826 354.923 172.554 347.94 164.046C341.291 156.231 337.837 146.715 337.568 136.996L321.112 206.724C342.375 206.724 363.628 206.724 384.89 206.724C387.872 206.724 390.845 206.724 393.826 206.724C396.271 206.724 398.41 207.08 400.012 205.031C400.763 204.066 401.17 202.923 401.531 201.788C403.68 195.066 404.661 187.921 403.346 181.021C400.818 181.258 398.707 182.773 396.021 182.815C393.576 182.858 391.289 182.003 389.622 180.352C389.187 179.912 388.752 179.497 388.316 179.107Z" fill="#1D1D1B"/>
<path d="M445.834 135.756L461.179 140.006C461.179 140.006 453.53 186.392 434.064 192.717C414.598 199.041 383.427 153.154 383.686 143.815C383.945 134.477 387.844 125.528 389.409 126.053C401.911 130.219 424.738 154.864 430.452 165.811C430.434 165.811 436.898 149.564 445.834 135.756Z" fill="#FF6726"/>
<path opacity="0.3" d="M448.872 136.586C454.233 157.201 443.463 177.08 427.683 193.081C429.906 193.445 432.045 193.361 434.064 192.709C453.539 186.384 461.179 139.998 461.179 139.998L448.872 136.586Z" fill="#1D1D1B"/>
<path opacity="0.3" d="M381.464 135.005C375.518 134.582 370.619 131.805 366.869 127.741C369.462 127.682 372.323 126.844 375.305 124.718C375.305 124.718 375.398 124.71 375.565 124.693C375.639 124.685 375.731 124.676 375.833 124.668H375.861C377.046 124.583 379.991 124.448 383.371 124.803C383.39 124.812 383.408 124.812 383.418 124.812C383.992 124.871 384.575 124.947 385.177 125.049C385.399 125.083 385.622 125.116 385.844 125.159C385.881 125.167 385.918 125.176 385.964 125.184C386.14 125.226 386.316 125.252 386.501 125.294C388.242 125.641 389.993 126.158 391.604 126.911C391.789 126.996 391.974 127.089 392.16 127.182C396.086 129.172 389.631 135.589 381.464 135.005Z" fill="#1D1D1B"/>
<path d="M365.007 174.486C347.459 174.816 328.956 178.346 328.956 178.346C336.133 168.144 346.097 123.578 346.097 123.578C346.097 123.578 333.596 125.703 324.77 130.419C320.936 132.468 313.815 142.763 308.305 154.725C310.222 154.218 312.129 153.71 314.009 153.185C312.129 153.71 310.222 154.218 308.305 154.725C301.137 170.286 296.711 188.658 305.832 195.33C321.964 207.132 369.128 188.641 369.128 188.641L365.007 174.486Z" fill="#FF6726"/>
<path opacity="0.3" d="M366.86 180.854C352.543 188.897 335.994 195.128 321.649 185.756C309.212 177.527 306.758 165.928 309.657 154.363C309.212 154.482 308.759 154.6 308.305 154.719C301.137 170.28 296.701 188.652 305.832 195.323C321.964 207.125 369.128 188.635 369.128 188.635L366.86 180.854Z" fill="#1D1D1B"/>
<path d="M369.138 188.652C369.138 188.652 348.727 199.819 322.881 199.277" stroke="#DB8321" stroke-miterlimit="10" stroke-linecap="round" stroke-linejoin="round"/>
<path d="M329.614 178.048C334.577 169.243 337.754 159.6 338.939 149.754" stroke="#DB8321" stroke-miterlimit="10" stroke-linecap="round" stroke-linejoin="round"/>
<path d="M395.447 148.828C402.846 163.796 405.319 179.527 403.041 195.816" stroke="#DB8321" stroke-miterlimit="10" stroke-linecap="round" stroke-linejoin="round"/>
<path d="M387.224 171.534C387.816 171.475 397.549 172.338 397.03 173.795C396.512 175.251 383.38 174.675 383.38 174.675L387.224 171.534Z" fill="#F6AD84"/>
<path opacity="0.3" d="M387.224 171.534C387.816 171.475 397.549 172.338 397.03 173.795C396.512 175.251 383.38 174.675 383.38 174.675L387.224 171.534Z" fill="#1D1D1B"/>
<path d="M377.982 170.352C377.982 170.352 394.78 168.599 397.151 170.318C399.522 172.036 385.298 173.425 385.298 173.425L377.982 170.352Z" fill="#F6AD84"/>
<path opacity="0.3" d="M377.982 170.352C377.982 170.352 394.78 168.599 397.151 170.318C399.522 172.036 385.298 173.425 385.298 173.425L377.982 170.352Z" fill="#1D1D1B"/>
<path d="M361.489 177.941C361.489 177.941 370.879 174.301 375.528 171.092C380.176 167.883 395.104 174.986 394.345 176.612C393.586 178.238 383.519 175.012 383.519 175.012C383.519 175.012 379.899 181.15 377.426 182.107C374.963 183.063 371.286 183.487 368.888 184.452C366.489 185.408 364.433 187.313 364.433 187.313L361.489 177.941Z" fill="#F6AD84"/>
<path d="M389.048 172.881C389.048 172.881 382.918 170.265 377.982 170.35" stroke="#DD8D6B" stroke-width="0.75" stroke-miterlimit="10" stroke-linecap="round" stroke-linejoin="round"/>
<path d="M394.345 176.608C394.345 176.608 394.642 178.386 383.52 175.008C383.52 175.008 381.427 179.715 377.991 181.815" stroke="#DD8D6B" stroke-width="0.75" stroke-miterlimit="10" stroke-linecap="round" stroke-linejoin="round"/>
<path d="M514.234 203.379H267.766V210.042H514.234V203.379Z" fill="#BBE4EA"/>
<path opacity="0.6" d="M514.234 206.715H267.766V210.042H514.234V206.715Z" fill="#1D1D1B"/>
<path d="M262 340.652L305.146 210.043H289.344L262 340.652Z" fill="#BBE4EA"/>
<path d="M492.666 210.043L520 340.652L476.864 210.043H492.666Z" fill="#BBE4EA"/>
<g opacity="0.6">
<g opacity="0.6">
<path opacity="0.6" d="M262 340.652L305.146 210.043H298.792L262 340.652Z" fill="#1D1D1B"/>
<path opacity="0.6" d="M484.167 210.043L520 340.652L476.864 210.043H484.167Z" fill="#1D1D1B"/>
</g>
</g>
<path d="M494.665 157.698L472.977 203.391H398.188L401.216 196.736L420.303 156.784C420.775 155.725 421.914 155.031 423.173 155.031H492.72C494.221 155.031 495.239 156.428 494.665 157.698Z" fill="#717F87"/>
<path d="M408.597 196.734V203.389H371.564L375.805 196.734H408.597Z" fill="#717F87"/>
<path d="M494.665 157.698H423.331L404.8 196.736L401.791 203.391H371.564L375.805 196.736H401.216L420.302 156.784C420.775 155.725 421.914 155.031 423.173 155.031H492.72C494.22 155.031 495.239 156.428 494.665 157.698Z" fill="#5F7077"/>
<path d="M450.992 180.31C453.764 180.31 456.011 178.256 456.011 175.722C456.011 173.187 453.764 171.133 450.992 171.133C448.22 171.133 445.973 173.187 445.973 175.722C445.973 178.256 448.22 180.31 450.992 180.31Z" fill="#5F7077"/>
<path opacity="0.3" d="M454.742 172.659C454.687 172.591 454.576 172.65 454.613 172.726C455.576 174.428 455.483 176.316 454.196 177.882C453.122 179.186 451.918 179.372 449.945 179.66C449.806 179.677 449.732 179.923 449.899 179.973C451.547 180.422 453.844 179.813 454.9 178.382C456.28 176.545 456.178 174.377 454.742 172.659Z" fill="white"/>
<path d="M191.245 327.788L192.62 335.673H208.394L209.582 321.363L192.229 322.148L191.245 327.788Z" fill="#F6AD84"/>
<path d="M230.684 336.393C228.453 335.361 210.719 329.688 209.242 324.098C209.242 324.098 204.898 331.711 199.23 331.273C193.57 330.852 191.245 327.789 191.245 327.789C191.245 327.789 190.134 332.644 190.354 338.548C190.388 339.589 190.473 340.662 190.6 341.744C190.6 341.744 215.097 343.346 232.33 342.256C232.33 342.256 232.475 341.042 232.347 339.688C232.22 338.358 231.804 336.905 230.684 336.393Z" fill="#717F87"/>
<path d="M232.339 342.254C215.105 343.344 190.609 341.742 190.609 341.742C190.473 340.661 190.388 339.587 190.363 338.547C214.987 340.603 227.053 340.198 232.356 339.686C232.483 341.041 232.339 342.254 232.339 342.254Z" fill="#5F7077"/>
<path d="M215.657 330.125L214.681 331.661" stroke="#5F7077" stroke-miterlimit="10" stroke-linecap="round" stroke-linejoin="round"/>
<path d="M218.084 331.488L217.108 333.016" stroke="#5F7077" stroke-miterlimit="10" stroke-linecap="round" stroke-linejoin="round"/>
<path d="M220.672 332.684L219.696 334.211" stroke="#5F7077" stroke-miterlimit="10" stroke-linecap="round" stroke-linejoin="round"/>
<path d="M124.543 338.865C124.042 340.789 124 341.995 124 341.995C134.267 344.497 146.969 341.995 146.969 341.995C147.275 341.235 147.555 340.277 147.809 339.196C148.98 334.15 149.583 326.578 149.108 325.893L134.479 325.249C133.86 327.412 133.24 329.576 132.629 331.756C133.24 329.584 133.86 327.412 134.479 325.249L133.274 325.199C127.598 330.195 125.392 335.587 124.543 338.865Z" fill="#717F87"/>
<path d="M147.809 339.197C147.555 340.279 147.275 341.237 146.969 341.997C146.969 341.997 134.267 344.499 124 341.997C124 341.997 124.042 340.783 124.543 338.867C134.615 341.039 143.024 340.139 147.809 339.197Z" fill="#5F7077"/>
<path d="M139.519 333.02C139.519 333.02 136.846 331.806 133.936 332.689" stroke="#5F7077" stroke-miterlimit="10" stroke-linecap="round" stroke-linejoin="round"/>
<path d="M140.266 330.664C140.266 330.664 137.593 329.45 134.683 330.334" stroke="#5F7077" stroke-miterlimit="10" stroke-linecap="round" stroke-linejoin="round"/>
<path d="M184.703 169.886C189.37 172.908 182.37 183.502 187.809 185.773C200.248 191.066 218.898 191.826 225.899 182.751C228.028 180.067 230.345 177.722 232.797 175.65C232.5 165.906 232.161 159.027 232.161 159.027L169.769 163.346C167.996 198.415 128.446 325.745 128.446 325.745C130.203 326.818 131.934 327.661 133.597 328.305C147.402 279.668 163.931 233.716 173.036 181.983C173.825 175.939 178.483 166.104 184.703 169.886Z" fill="#457799"/>
<path d="M225.899 182.746C218.907 191.821 200.248 191.07 187.809 185.768C182.37 183.498 189.361 172.912 184.703 169.881C178.483 166.099 173.825 175.934 173.044 181.986C163.931 233.711 147.402 279.664 133.605 328.308C145.535 332.965 154.725 327.937 154.725 327.937C164.542 311.479 200.367 201.978 200.367 201.978C201.962 231.82 190.015 328.465 190.015 328.465C206.459 331.545 214.07 327.937 214.07 327.937C214.07 327.937 229.768 251.729 232.161 229.723C233.654 215.982 233.281 191.846 232.797 175.653C230.345 177.726 228.028 180.071 225.899 182.746Z" fill="#455A64"/>
<path opacity="0.3" d="M184.703 169.886C189.37 172.908 182.37 183.502 187.809 185.773C200.248 191.066 218.898 191.826 225.899 182.751C228.028 180.067 230.345 177.722 232.797 175.65C232.5 165.906 232.161 159.027 232.161 159.027L169.769 163.346C167.996 198.415 128.446 325.745 128.446 325.745C130.203 326.818 131.934 327.661 133.597 328.305C147.402 279.668 163.931 233.716 173.036 181.983C173.825 175.939 178.483 166.104 184.703 169.886Z" fill="#1D1D1B"/>
<path d="M185.305 165.004C183.625 171.081 178.483 176.135 172.255 177.828" stroke="#455A64" stroke-miterlimit="10" stroke-linecap="round" stroke-linejoin="round"/>
<path d="M173.935 165.062C173.935 165.062 154.742 258.016 130.754 325.744" stroke="#455A64" stroke-miterlimit="10" stroke-linecap="round" stroke-linejoin="round"/>
<path d="M200.367 201.977C200.367 201.977 204.414 232.504 202.743 247.591C201.079 262.677 191.245 327.787 191.245 327.787" stroke="#455A64" stroke-miterlimit="10" stroke-linecap="round" stroke-linejoin="round"/>
<path d="M223.913 71.9508C223.913 71.9508 220.29 78.9035 221.987 82.5533C223.684 86.2031 220.68 100.72 205.05 96.9378C189.412 93.1558 201.784 79.2503 201.784 79.2503C201.784 79.2503 205.941 62.4052 205.551 57.5663C205.161 52.7275 223.913 71.9508 223.913 71.9508Z" fill="#F6AD84"/>
<path opacity="0.3" d="M221.987 82.5531C220.29 78.9034 223.913 71.9506 223.913 71.9506C223.913 71.9506 205.153 52.7356 205.543 57.5744C205.696 59.4571 205.153 63.1564 204.448 66.9796C206.026 75.4683 210.702 83.1229 219.679 85.179C220.579 85.4102 221.478 85.6249 222.369 85.8314C222.479 84.4606 222.327 83.2881 221.987 82.5531Z" fill="#1D1D1B"/>
<path d="M242.284 49.0513C242.317 49.6871 228.47 82.9233 213.604 75.7889C198.738 68.6544 208.793 42.5279 208.793 42.5279C208.793 42.5279 214.596 27.648 229.386 34.1466C244.176 40.6452 242.284 49.0513 242.284 49.0513Z" fill="#F6AD84"/>
<path opacity="0.3" d="M219.679 39.0364C223.658 46.7819 231.601 51.7528 240.595 53.0575C241.681 50.7454 242.283 49.1848 242.275 49.0527C242.275 49.0527 244.167 40.6301 229.378 34.1397C214.588 27.6494 208.784 42.521 208.784 42.521C208.784 42.521 207.647 45.4772 206.705 49.6637C212.085 48.3095 216.938 44.701 219.679 39.0364Z" fill="#1D1D1B"/>
<path d="M225.288 48.7112C224.252 48.6369 221.766 47.9102 221.147 46.3413C221.02 46.011 221.283 45.6559 221.639 45.6642C222.42 45.6807 224.617 46.3165 225.746 47.9102C226 48.2653 225.729 48.7442 225.288 48.7112Z" fill="#292935"/>
<path d="M233.96 50.9659C234.91 51.3788 237.218 51.8907 238.525 50.7925C238.796 50.5613 238.745 50.1319 238.423 49.9668C237.736 49.6199 235.716 49.1658 233.943 50.0411C233.552 50.2475 233.552 50.7925 233.96 50.9659Z" fill="#292935"/>
<path d="M223.391 54.1882C223.791 53.4809 223.835 52.7579 223.49 52.5734C223.145 52.3888 222.542 52.8127 222.142 53.52C221.743 54.2274 221.698 54.9504 222.043 55.1349C222.388 55.3194 222.992 54.8956 223.391 54.1882Z" fill="#102237"/>
<path d="M234.472 55.9304C234.871 55.2231 234.915 54.5001 234.571 54.3156C234.226 54.131 233.622 54.5548 233.222 55.2622C232.823 55.9695 232.779 56.6926 233.124 56.8771C233.469 57.0616 234.072 56.6378 234.472 55.9304Z" fill="#102237"/>
<path d="M229.963 53.8477C229.963 53.8477 229.751 61.4032 228.758 62.4684C227.766 63.5336 225.101 62.4684 225.101 62.4684" stroke="#DD8D6B" stroke-width="0.75" stroke-miterlimit="10" stroke-linecap="round" stroke-linejoin="round"/>
<path d="M223.234 68.0442C223.005 68.614 222.522 69.0021 221.902 69.2415C220.069 69.9352 217.023 69.2333 215.419 67.5901C213.273 65.3936 212.526 63.032 213.621 60.6125C213.858 60.0758 214.121 59.696 214.376 59.44C214.579 59.217 214.792 59.0849 214.978 59.0023C215.445 58.7959 215.937 59.2253 215.835 59.7042C215.742 60.1419 215.725 60.7281 216.064 61.2318C216.701 62.1814 224.159 65.7899 223.234 68.0442Z" fill="#F2826E"/>
<path d="M221.121 27.8488C221.121 27.8488 232.381 24.7192 241.308 28.5176C252.016 33.0757 252.754 40.8873 251.38 43.7856C250.005 46.684 243.709 53.1743 230.54 47.196C217.371 41.2176 213.536 32.8611 221.121 27.8488Z" fill="black"/>
<path d="M219.688 25.6001C224.872 27.4993 220.697 36.2687 215.199 42.7342C209.701 49.1998 206.926 47.6557 206.926 47.6557C206.926 47.6557 202.751 42.6269 207.69 32.9822C212.178 24.2211 216.361 24.3862 219.688 25.6001Z" fill="black"/>
<path opacity="0.3" d="M249.216 42.8171C239.11 48.1101 223.565 45.0879 219.679 33.7422C215.64 37.0204 211.007 44.8402 205.288 42.4207C205.449 45.8806 206.926 47.656 206.926 47.656C206.926 47.656 209.7 49.2001 215.199 42.7345C216.429 41.2895 217.592 39.7206 218.601 38.1517C220.544 41.2977 224.583 44.4851 230.54 47.1935C243.709 53.1719 250.005 46.6816 251.38 43.7832C251.736 43.0401 251.948 41.9666 251.88 40.7115C251.151 41.4546 250.268 42.1317 249.216 42.8171Z" fill="#1D1D1B"/>
<path d="M223.234 68.0442C223.005 68.614 222.522 69.0021 221.902 69.2415C219.917 67.4827 216.769 63.8577 216.438 63.3788C215.623 62.1401 214.919 60.819 214.376 59.44C214.579 59.217 214.792 59.0849 214.978 59.0023C215.445 58.7959 215.937 59.2253 215.835 59.7042C215.742 60.1419 215.725 60.7281 216.064 61.2318C216.701 62.1814 224.159 65.7899 223.234 68.0442Z" fill="white"/>
<path d="M208.317 49.028C206.374 45.7415 206.145 45.0892 204.194 45.1139C202.242 45.1387 198.916 53.2475 206.578 55.7743L208.317 49.028Z" fill="#F6AD84"/>
<path opacity="0.3" d="M203.803 49.8591C203.871 49.0498 204.279 48.2323 205 47.8112C205.212 47.6874 205.484 47.5965 205.713 47.7039C205.899 47.7947 206.01 47.9846 206.094 48.1745C206.298 48.6122 206.468 49.0581 206.595 49.5205C206.739 50.0407 206.833 50.594 206.739 51.1307C206.638 51.6674 206.315 52.1794 205.806 52.4023C205.331 52.6088 204.542 52.4849 204.228 52.039C203.82 51.4775 203.744 50.5114 203.803 49.8591Z" fill="#1D1D1B"/>
<path d="M203.778 46.6488C204.618 46.6323 205.39 47.1855 205.857 47.8709C206.315 48.5563 206.527 49.3737 206.731 50.1665" stroke="#DD8D6B" stroke-width="0.75" stroke-miterlimit="10" stroke-linecap="round" stroke-linejoin="round"/>
<path d="M205.509 47.5859C204.567 47.9988 203.914 48.9649 203.905 49.9723" stroke="#DD8D6B" stroke-width="0.75" stroke-miterlimit="10" stroke-linecap="round" stroke-linejoin="round"/>
<path d="M229.182 86.3427C242.148 100.232 236.598 135.227 236.174 143.402C235.691 152.848 228.122 160.544 228.122 160.544L229.573 163.343L233.646 171.163C239.823 167.959 244.023 168.322 248.877 155.623C253.739 142.914 252.729 101.206 247.205 92.255C245.584 89.6126 242.699 87.606 239.433 86.0867C232.152 82.6764 222.988 81.7102 221.8 81.5946C221.715 81.5864 221.665 81.5781 221.665 81.5781C224.685 82.5195 227.163 84.1792 229.182 86.3427Z" fill="#EE9F67"/>
<path d="M233.349 163.347C233.349 163.347 244.091 114.322 242.369 99.2361C241.673 93.1174 238.134 89.0547 234.18 86.3958C228.852 82.8038 222.759 81.7469 221.817 81.59C221.733 81.5817 221.682 81.5735 221.682 81.5735C221.682 81.5735 221.071 83.3323 219.374 85.0829C217.668 86.8417 214.885 88.5758 210.532 88.4849C201.86 88.3115 201.784 79.2531 201.784 79.2531C191.551 78.4522 185.637 98.9884 172.731 123.364C159.825 147.732 169.761 163.355 169.761 163.355H233.349V163.347Z" fill="#EE9F67"/>
<path opacity="0.3" d="M234.486 115.629C228.945 144.117 197.864 162.349 169.073 162.027C169.481 162.886 169.769 163.349 169.769 163.349H228.869C233.815 147.866 235.911 131.599 234.486 115.629Z" fill="#1D1D1B"/>
<path d="M189.904 182.018H218.084C219.204 182.018 220.213 181.341 220.612 180.317L234.833 144.017C235.156 143.2 234.536 142.324 233.637 142.324H205.212C204.287 142.324 203.455 142.877 203.124 143.72L188.759 180.399C188.462 181.184 189.047 182.018 189.904 182.018Z" fill="#717F87"/>
<path opacity="0.3" d="M233.637 142.332H230.32C227.299 163.38 210.846 180.102 189.294 181.86C189.472 181.959 189.676 182.017 189.896 182.017H218.075C219.196 182.017 220.205 181.34 220.604 180.316L234.825 144.017C235.156 143.207 234.537 142.332 233.637 142.332Z" fill="#1D1D1B"/>
<path d="M212.288 141.598H228.139L226.586 144.859H210.736L212.288 141.598Z" fill="#717F87"/>
<path opacity="0.3" d="M212.288 141.598H228.139L226.586 144.859H210.736L212.288 141.598Z" fill="#1D1D1B"/>
<path d="M222.089 168.162C222.089 168.162 212.874 168.129 213.12 169.855C213.374 171.581 222.623 171.878 222.623 171.878C222.623 171.878 215.674 172.869 215.861 174.661C215.928 175.305 230.744 175.429 235.589 169.525C239.941 164.223 229.954 161.821 229.954 161.821C229.954 161.821 215.139 159.409 214.435 161.243C213.731 163.076 222.199 164.455 222.199 164.455C222.199 164.455 212.424 163.018 212.195 164.455C211.805 166.924 222.089 168.162 222.089 168.162Z" fill="#F6AD84"/>
<path opacity="0.3" d="M239.432 86.0789C237.557 86.2523 235.801 86.3431 234.172 86.3927C232.356 86.4339 230.693 86.4174 229.182 86.3514C223.124 86.1036 219.687 85.1706 219.687 85.1706L219.365 85.0797C221.062 83.3291 221.673 81.5703 221.673 81.5703C221.673 81.5703 221.715 81.5786 221.809 81.5868C222.988 81.6942 232.152 82.6603 239.432 86.0789Z" fill="#1D1D1B"/>
<path d="M210.006 118.271C210.557 118.345 211.117 118.453 211.567 118.766C212.017 119.08 212.331 119.642 212.186 120.162C211.991 120.897 211.1 121.186 210.337 121.31C208.334 121.632 206.272 121.623 204.278 121.268C203.71 121.169 202.437 120.88 202.276 120.203C202.106 119.485 203.735 119.072 204.295 118.874C206.12 118.246 208.088 118.023 210.006 118.271Z" fill="#F6AD84"/>
<path opacity="0.3" d="M210.006 118.271C210.557 118.345 211.117 118.453 211.567 118.766C212.017 119.08 212.331 119.642 212.186 120.162C211.991 120.897 211.1 121.186 210.337 121.31C208.334 121.632 206.272 121.623 204.278 121.268C203.71 121.169 202.437 120.88 202.276 120.203C202.106 119.485 203.735 119.072 204.295 118.874C206.12 118.246 208.088 118.023 210.006 118.271Z" fill="#1D1D1B"/>
<path d="M203.472 110.582L221.843 134.842V137.353L219.764 136.287L201.775 111.903L203.472 110.582Z" fill="#717F87"/>
<path opacity="0.3" d="M203.277 110.73L201.775 111.903L219.764 136.287L221.851 137.352V134.842L218.915 130.969C212.28 126.626 207.791 117.518 203.277 110.73Z" fill="#1D1D1B"/>
<path d="M188.683 129.803C188.683 129.803 199.001 119.201 203.947 119.077C208.894 118.953 216.412 119.903 216.412 122.141C216.412 124.378 216.412 124.378 216.412 124.378C216.412 124.378 216.412 132.041 213.629 133.453C210.846 134.865 204.329 133.693 201.775 134.51C199.221 135.336 192.314 138.986 192.314 138.986L188.683 129.803Z" fill="#F6AD84"/>
<path d="M216.141 123.956C214.096 123.254 211.949 122.85 209.785 122.742" stroke="#DD8D6B" stroke-width="0.75" stroke-miterlimit="10" stroke-linecap="round" stroke-linejoin="round"/>
<path d="M215.979 126.708C214.52 126.345 213.001 126.237 211.508 126.394" stroke="#DD8D6B" stroke-width="0.75" stroke-miterlimit="10" stroke-linecap="round" stroke-linejoin="round"/>
<path d="M215.462 129.566C214.266 129.45 213.044 129.533 211.881 129.83" stroke="#DD8D6B" stroke-width="0.75" stroke-miterlimit="10" stroke-linecap="round" stroke-linejoin="round"/>
<path d="M199.391 80.8281C199.442 84.6431 201.758 88.3011 205.152 90.2168C208.538 92.1243 212.865 92.2894 216.472 90.8114C220.078 89.3333 222.937 86.2863 224.303 82.7108" stroke="#D34439" stroke-width="0.75" stroke-miterlimit="10" stroke-linecap="round" stroke-linejoin="round"/>
<path d="M197.134 138.996L190.626 126.362L167.767 137.105C167.767 137.105 189.955 82.7134 201.775 79.2453C201.775 79.2453 188.674 78.9893 184.169 81.5657C172.332 88.3285 146.927 117.907 150.058 149.301C153.206 180.704 197.134 138.996 197.134 138.996Z" fill="#EE9F67"/>
<path opacity="0.3" d="M159.519 145.622C153.104 133.698 155.675 119.792 161.233 106.68C153.936 118.769 148.531 133.814 150.075 149.313C153.206 180.708 197.142 139.008 197.142 139.008L196.116 137.017C183.719 145.622 166.961 160.832 159.519 145.622Z" fill="#1D1D1B"/>
<path d="M197.134 138.996C197.134 138.996 180.783 154.619 167.096 159.029" stroke="#D34439" stroke-miterlimit="10" stroke-linecap="round" stroke-linejoin="round"/>
<path d="M190.626 126.363L167.767 137.106" stroke="#D34439" stroke-miterlimit="10" stroke-linecap="round" stroke-linejoin="round"/>
<path d="M233.23 110.172C233.23 110.172 235.945 125.366 232.797 139.329" stroke="#D34439" stroke-miterlimit="10" stroke-linecap="round" stroke-linejoin="round"/>
<path d="M232.797 162.176C232.797 162.176 239.611 165.091 235.597 169.517" stroke="#D34439" stroke-width="0.75" stroke-miterlimit="10" stroke-linecap="round" stroke-linejoin="round"/>
<path d="M188.682 129.035L193.909 139.885" stroke="#D34439" stroke-width="0.75" stroke-miterlimit="10" stroke-linecap="round" stroke-linejoin="round"/>
<path d="M233.552 159.852C233.552 159.852 240.866 162.37 238.185 167.63" stroke="#D34439" stroke-width="0.75" stroke-miterlimit="10" stroke-linecap="round" stroke-linejoin="round"/>
<path d="M172.094 133.391C175.14 125.051 179.111 117.033 183.939 109.535" stroke="#D34439" stroke-miterlimit="10" stroke-linecap="round" stroke-linejoin="round"/>
</g>
<defs>
<clipPath id="clip0_1794_25276">
<rect width="690" height="350" fill="white"/>
</clipPath>
</defs>
</svg>
