<svg width="690" height="350" viewBox="0 0 690 350" fill="none" xmlns="http://www.w3.org/2000/svg">
<g clip-path="url(#clip0_2502_2425)">
<path d="M579.723 312.578H110V312.813H579.723V312.578Z" fill="#EBEBEB"/>
<path d="M532.657 327.688H501.542V327.922H532.657V327.688Z" fill="#EBEBEB"/>
<path d="M421.163 330.242H413V330.477H421.163V330.242Z" fill="#EBEBEB"/>
<path d="M500.603 318.969H482.575V319.204H500.603V318.969Z" fill="#EBEBEB"/>
<path d="M199.858 320.547H159.283V320.782H199.858V320.547Z" fill="#EBEBEB"/>
<path d="M214.175 320.547H208.229V320.782H214.175V320.547Z" fill="#EBEBEB"/>
<path d="M321.516 324.516H233.509V324.75H321.516V324.516Z" fill="#EBEBEB"/>
<path d="M332.648 270.675H151.251C149.83 270.673 148.468 270.107 147.464 269.101C146.46 268.095 145.896 266.732 145.896 265.311V10.3173C145.908 8.90436 146.478 7.55339 147.48 6.55781C148.483 5.56222 149.838 5.00242 151.251 5H332.648C334.071 5 335.436 5.56516 336.442 6.57115C337.448 7.57714 338.013 8.94155 338.013 10.3642V265.311C338.013 266.734 337.448 268.098 336.442 269.104C335.436 270.11 334.071 270.675 332.648 270.675ZM151.251 5.18789C149.892 5.19038 148.59 5.73189 147.63 6.69356C146.67 7.65524 146.131 8.9585 146.131 10.3173V265.311C146.131 266.67 146.67 267.973 147.63 268.935C148.59 269.896 149.892 270.438 151.251 270.44H332.648C334.008 270.438 335.311 269.897 336.273 268.935C337.234 267.974 337.775 266.671 337.778 265.311V10.3173C337.775 8.95763 337.234 7.6544 336.273 6.69299C335.311 5.73158 334.008 5.19037 332.648 5.18789H151.251Z" fill="#EBEBEB"/>
<path d="M535.86 270.675H354.453C353.031 270.673 351.668 270.107 350.663 269.101C349.657 268.096 349.091 266.733 349.089 265.311V10.3173C349.104 8.9035 349.675 7.55255 350.679 6.55722C351.683 5.56189 353.039 5.00239 354.453 5H535.86C537.271 5.00489 538.624 5.56578 539.625 6.5611C540.625 7.55643 541.193 8.90598 541.206 10.3173V265.311C541.206 266.73 540.643 268.092 539.641 269.098C538.639 270.103 537.28 270.67 535.86 270.675ZM354.453 5.18789C353.093 5.19037 351.79 5.73158 350.829 6.69299C349.867 7.6544 349.326 8.95763 349.324 10.3173V265.311C349.326 266.671 349.867 267.974 350.829 268.935C351.79 269.897 353.093 270.438 354.453 270.44H535.86C537.22 270.438 538.523 269.897 539.484 268.935C540.446 267.974 540.987 266.671 540.989 265.311V10.3173C540.987 8.95763 540.446 7.6544 539.484 6.69299C538.523 5.73158 537.22 5.19037 535.86 5.18789H354.453Z" fill="#EBEBEB"/>
<path d="M530.158 83.5469H407.616V89.8412H530.158V83.5469Z" fill="#E0E0E0"/>
<path d="M418.655 60.3438H413.253V83.5481H418.655V60.3438Z" fill="#EBEBEB"/>
<path d="M444.762 60.3438H439.36V83.5481H444.762V60.3438Z" fill="#EBEBEB"/>
<path d="M474.4 59.7465L469.077 60.6641L473.019 83.5312L478.342 82.6136L474.4 59.7465Z" fill="#EBEBEB"/>
<path d="M425.344 63.4062H419.942V83.5574H425.344V63.4062Z" fill="#EBEBEB"/>
<path d="M437.754 63.4062H432.352V83.5574H437.754V63.4062Z" fill="#EBEBEB"/>
<path d="M469.075 63.4062H463.673V83.5574H469.075V63.4062Z" fill="#EBEBEB"/>
<path d="M451.851 62.6953L446.578 63.8672L450.95 83.5384L456.223 82.3664L451.851 62.6953Z" fill="#EBEBEB"/>
<path d="M430.013 59.1875H427.317V83.5473H430.013V59.1875Z" fill="#EBEBEB"/>
<path d="M462.123 59.1875H459.427V83.5473H462.123V59.1875Z" fill="#EBEBEB"/>
<path d="M518.396 65.1797H492.091V83.3392H518.396V65.1797Z" fill="#EBEBEB"/>
<path d="M407.616 136.844L530.158 136.844V130.549L407.616 130.549V136.844Z" fill="#E0E0E0"/>
<path d="M519.11 130.555H524.512V107.35H519.11V130.555Z" fill="#EBEBEB"/>
<path d="M493.012 130.555H498.414V107.35H493.012V130.555Z" fill="#EBEBEB"/>
<path d="M459.44 129.637L464.764 130.555L468.705 107.688L463.382 106.77L459.44 129.637Z" fill="#EBEBEB"/>
<path d="M512.421 130.547H517.823V110.396H512.421V130.547Z" fill="#EBEBEB"/>
<path d="M500.021 130.547H505.422V110.396H500.021V130.547Z" fill="#EBEBEB"/>
<path d="M468.699 130.547H474.101V110.396H468.699V130.547Z" fill="#EBEBEB"/>
<path d="M481.565 129.367L486.838 130.539L491.21 110.868L485.937 109.696L481.565 129.367Z" fill="#EBEBEB"/>
<path d="M507.761 130.547H510.458V106.187H507.761V130.547Z" fill="#EBEBEB"/>
<path d="M475.651 130.547H478.347V106.187H475.651V130.547Z" fill="#EBEBEB"/>
<path d="M419.369 130.352H445.673V112.192H419.369V130.352Z" fill="#EBEBEB"/>
<path d="M159.791 203.227V313.142H165.427V214.5H265.008V313.142H271.585V203.227H159.791Z" fill="#E0E0E0"/>
<path d="M221.794 203.227V313.142H227.431V214.5H327.012V313.142H333.588V203.227H221.794Z" fill="#F5F5F5"/>
<path d="M257.38 162.267C256.122 160.2 254.055 162.004 254.055 162.004C254.346 158.03 250.701 155.324 250.701 155.324C250.701 155.324 254.938 155.324 255.53 151.275C256.122 147.226 254.055 149.115 252.11 149.087C250.165 149.058 248.136 154.723 250.701 157.917C253.266 161.111 252.58 166.56 246.661 171.793C245.245 173.116 244.182 174.773 243.571 176.612C244.021 171.802 244.275 165.02 242.857 160.501C240.452 152.807 245.036 150.74 246.361 146.898C247.685 143.055 242.857 139.795 242.857 139.795C242.857 139.795 247.403 137.729 245.177 135.361C242.951 132.994 238.385 133.313 238.385 136.413C238.385 139.514 241.485 140.688 241.485 140.688C241.485 140.688 245.036 144.38 245.036 146.325C245.036 148.269 241.485 152.384 241.485 152.384C241.485 152.384 243.11 148.842 239.86 148.692C236.609 148.542 235.566 152.826 236.9 154.751C238.234 156.677 240.452 155.043 240.452 155.043C240.587 157.286 240.927 159.512 241.466 161.694C241.795 162.802 241.645 167.143 241.363 171.652C240.745 170.024 239.757 168.56 238.479 167.378C232.57 162.145 231.903 156.696 234.439 153.502C236.976 150.308 234.975 144.643 233.03 144.671C231.085 144.699 229.019 142.792 229.61 146.86C230.202 150.928 234.439 150.909 234.439 150.909C234.439 150.909 230.794 153.615 231.095 157.589C231.095 157.589 229.019 155.785 227.76 157.852C225.524 161.553 230.719 163.845 231.593 162.023C231.593 162.023 242.622 169.829 239.963 181.065L240.583 182.005C240.499 182.944 240.452 183.461 240.452 183.461L241.316 183.094L242.255 184.541C242.222 186.174 242.307 187.806 242.509 189.426L245.139 185.528C242.481 174.254 253.51 166.485 253.51 166.485C254.421 168.261 259.626 165.968 257.38 162.267Z" fill="#E0E0E0"/>
<path d="M250.701 203.226L247.14 182.85L248.146 176.922H236.938L237.943 182.85L234.392 203.226H250.701Z" fill="#EBEBEB"/>
<path d="M344.862 355.003C445.46 355.003 527.011 350.242 527.011 344.369C527.011 338.496 445.46 333.734 344.862 333.734C244.263 333.734 162.712 338.496 162.712 344.369C162.712 350.242 244.263 355.003 344.862 355.003Z" fill="#F5F5F5"/>
<path d="M392.525 54.1203L363.585 38.4922L343.176 76.2851L372.116 91.9132L392.525 54.1203Z" fill="#FF9900"/>
<path opacity="0.6" d="M392.525 54.1203L363.585 38.4922L343.176 76.2851L372.116 91.9132L392.525 54.1203Z" fill="white"/>
<path d="M385.319 57.143L365.017 46.1797L363.915 48.2214L384.216 59.1848L385.319 57.143Z" fill="#FF9900"/>
<path d="M383.389 60.7212L363.087 49.7578L361.985 51.7996L382.287 62.7629L383.389 60.7212Z" fill="#FF9900"/>
<path d="M381.455 64.2993L361.154 53.3359L360.051 55.3777L380.353 66.341L381.455 64.2993Z" fill="#FF9900"/>
<path d="M379.518 67.8696L359.216 56.9062L358.113 58.948L378.415 69.9113L379.518 67.8696Z" fill="#FF9900"/>
<path d="M377.592 71.4399L357.291 60.4766L356.188 62.5183L376.49 73.4817L377.592 71.4399Z" fill="#FF9900"/>
<path d="M375.664 75.018L355.362 64.0547L354.259 66.0964L374.561 77.0598L375.664 75.018Z" fill="#FF9900"/>
<path d="M373.738 78.5883L353.437 67.625L352.334 69.6667L372.636 80.6301L373.738 78.5883Z" fill="#FF9900"/>
<path d="M364.638 78.3007L351.495 71.2031L350.393 73.2449L363.536 80.3425L364.638 78.3007Z" fill="#FF9900"/>
<path d="M315.636 54.4C311.541 53.981 307.663 52.3573 304.492 49.7343C301.321 47.1113 298.998 43.6068 297.818 39.6639C296.639 35.721 296.655 31.5169 297.864 27.5831C299.074 23.6493 301.423 20.1626 304.614 17.5639C307.806 14.9651 311.696 13.371 315.793 12.9832C319.891 12.5954 324.011 13.4313 327.633 15.3852C331.255 17.339 334.217 20.3231 336.143 23.9601C338.069 27.5971 338.874 31.7235 338.455 35.8177C337.886 41.3049 335.164 46.3424 330.886 49.8258C326.609 53.3092 321.124 54.9542 315.636 54.4Z" fill="#FF9900"/>
<path opacity="0.3" d="M319.217 52.607C329.672 51.8026 337.495 42.6751 336.691 32.2202C335.886 21.7653 326.759 13.9421 316.304 14.7465C305.849 15.551 298.026 24.6785 298.83 35.1334C299.635 45.5883 308.762 53.4115 319.217 52.607Z" fill="white"/>
<path d="M324.194 27.5408C322.005 25.9907 318.952 20.6922 318.952 20.6641L316.979 39.8663C317.026 39.4342 315.316 38.9927 314.161 38.9269C311.408 38.6357 309.088 39.9321 308.9 41.7452C308.712 43.5584 310.779 45.3621 313.597 45.6439C316.416 45.9258 318.642 44.6293 318.839 42.7692C318.839 42.4874 318.642 42.1868 318.67 41.9331L320.183 27.1368C321.313 28.4381 322.702 29.4906 324.26 30.2276C326.336 31.1671 327.078 34.0512 327.078 34.0512C327.18 32.8114 326.969 31.5659 326.466 30.4286C325.962 29.2912 325.181 28.2984 324.194 27.5408Z" fill="white"/>
<path opacity="0.5" d="M321.28 40.351C328.622 36.5437 332.016 28.5248 328.86 22.4404C325.705 16.3559 317.196 14.5099 309.854 18.3172C302.512 22.1245 299.118 30.1434 302.273 36.2278C305.428 42.3122 313.938 44.1582 321.28 40.351Z" fill="white"/>
<path d="M277.022 6.68369L232.312 10.3203L235.034 43.795L279.745 40.1583L277.022 6.68369Z" fill="#FF9900"/>
<path d="M275.035 9.03763L234.772 12.3125L237.133 41.3395L277.396 38.0646L275.035 9.03763Z" fill="#FF9900"/>
<path opacity="0.5" d="M275.035 9.03763L234.772 12.3125L237.133 41.3395L277.396 38.0646L275.035 9.03763Z" fill="white"/>
<path d="M277.071 34.1151L277.391 38.0608L237.126 41.3394L235.98 27.229L243.693 19.2812L257.005 30.301L263.149 25.0119L277.071 34.1151Z" fill="#FF9900"/>
<path opacity="0.3" d="M277.071 34.1151L277.391 38.0608L237.126 41.3394L235.98 27.229L243.693 19.2812L257.005 30.301L263.149 25.0119L277.071 34.1151Z" fill="white"/>
<path d="M268.945 17.2075C268.997 17.8482 268.857 18.4899 268.545 19.0514C268.232 19.6129 267.759 20.069 267.187 20.3621C266.615 20.6552 265.969 20.7721 265.331 20.6981C264.692 20.624 264.09 20.3623 263.6 19.9461C263.11 19.5298 262.755 18.9777 262.579 18.3595C262.403 17.7413 262.414 17.0848 262.611 16.4729C262.808 15.8611 263.182 15.3214 263.686 14.9221C264.189 14.5228 264.8 14.2818 265.441 14.2295C265.867 14.1948 266.295 14.2443 266.701 14.3752C267.108 14.5061 267.485 14.7158 267.81 14.9924C268.135 15.269 268.403 15.607 268.598 15.987C268.793 16.3671 268.911 16.7819 268.945 17.2075Z" fill="#FF9900"/>
<path opacity="0.3" d="M268.945 17.2075C268.997 17.8482 268.857 18.4899 268.545 19.0514C268.232 19.6129 267.759 20.069 267.187 20.3621C266.615 20.6552 265.969 20.7721 265.331 20.6981C264.692 20.624 264.09 20.3623 263.6 19.9461C263.11 19.5298 262.755 18.9777 262.579 18.3595C262.403 17.7413 262.414 17.0848 262.611 16.4729C262.808 15.8611 263.182 15.3214 263.686 14.9221C264.189 14.5228 264.8 14.2818 265.441 14.2295C265.867 14.1948 266.295 14.2443 266.701 14.3752C267.108 14.5061 267.485 14.7158 267.81 14.9924C268.135 15.269 268.403 15.607 268.598 15.987C268.793 16.3671 268.911 16.7819 268.945 17.2075Z" fill="white"/>
<path d="M191.159 46.2059L189.43 45.1443C189.124 44.9548 188.777 44.84 188.418 44.809C188.059 44.778 187.698 44.8317 187.364 44.9658L179.688 48.2069C179.366 48.338 179.083 48.5506 178.867 48.824C178.651 49.0974 178.51 49.4221 178.458 49.7664L178.176 51.6453C178.128 51.9888 177.99 52.3134 177.775 52.5858C177.561 52.8582 177.277 53.0686 176.955 53.1953L172.37 55.0742C172.108 55.1806 171.872 55.3407 171.676 55.5442C171.479 55.7478 171.328 55.9902 171.232 56.2558C171.135 56.5215 171.096 56.8044 171.115 57.0863C171.135 57.3683 171.214 57.6429 171.346 57.8926L183.559 82.9194C183.817 83.4381 184.261 83.8408 184.802 84.0479C185.343 84.2549 185.942 84.2512 186.481 84.0374L222.8 68.8747C223.063 68.7705 223.302 68.6117 223.5 68.4088C223.698 68.2058 223.85 67.9633 223.948 67.6972C224.046 67.431 224.086 67.1472 224.066 66.8645C224.046 66.5817 223.967 66.3063 223.833 66.0564L211.62 41.0389C211.364 40.5186 210.921 40.1138 210.379 39.9049C209.838 39.6961 209.238 39.6985 208.698 39.9116L193.226 46.3844C192.891 46.5185 192.53 46.5722 192.171 46.5412C191.812 46.5102 191.466 46.3953 191.159 46.2059Z" fill="#FF9900"/>
<path d="M213.339 40.8492L180.073 54.7906C179.395 55.0841 178.848 55.6165 178.536 56.2867C178.224 56.9569 178.17 57.7184 178.382 58.4263L185.663 81.4709C185.766 81.8011 185.937 82.1059 186.166 82.3649C186.395 82.6239 186.677 82.8313 186.992 82.9734C187.307 83.1155 187.649 83.189 187.995 83.1891C188.341 83.1892 188.683 83.1159 188.998 82.974L222.273 69.0514C222.949 68.7547 223.494 68.2219 223.805 67.5527C224.116 66.8835 224.173 66.1238 223.964 65.4158L216.674 42.3711C216.575 42.0383 216.406 41.7306 216.178 41.4687C215.95 41.2067 215.668 40.9966 215.353 40.8524C215.037 40.7082 214.694 40.6334 214.346 40.6328C213.999 40.6323 213.656 40.7061 213.339 40.8492Z" fill="#FF9900"/>
<path opacity="0.5" d="M213.339 40.8492L180.073 54.7906C179.395 55.0841 178.848 55.6165 178.536 56.2867C178.224 56.9569 178.17 57.7184 178.382 58.4263L185.663 81.4709C185.766 81.8011 185.937 82.1059 186.166 82.3649C186.395 82.6239 186.677 82.8313 186.992 82.9734C187.307 83.1155 187.649 83.189 187.995 83.1891C188.341 83.1892 188.683 83.1159 188.998 82.974L222.273 69.0514C222.949 68.7547 223.494 68.2219 223.805 67.5527C224.116 66.8835 224.173 66.1238 223.964 65.4158L216.674 42.3711C216.575 42.0383 216.406 41.7306 216.178 41.4687C215.95 41.2067 215.668 40.9966 215.353 40.8524C215.037 40.7082 214.694 40.6334 214.346 40.6328C213.999 40.6323 213.656 40.7061 213.339 40.8492Z" fill="white"/>
<path d="M334.039 96.1256C334.452 94.1861 334.66 92.2087 334.659 90.2258C334.659 86.547 333.934 82.9041 332.527 79.5052C331.119 76.1064 329.055 73.0181 326.454 70.4168C323.853 67.8154 320.764 65.7519 317.365 64.344C313.967 62.9362 310.324 62.2116 306.645 62.2116C304.908 62.2134 303.176 62.3737 301.468 62.6907C300.754 62.5592 300.031 62.6907 299.289 62.6061C296.649 56.869 292.408 52.016 287.077 48.6298C281.746 45.2436 275.551 43.4681 269.236 43.5166H258.902C254.577 43.4956 250.29 44.3281 246.288 45.9663C242.285 47.6046 238.645 50.0166 235.575 53.0639C232.506 56.1113 230.068 59.7343 228.402 63.7253C226.735 67.7163 225.872 71.997 225.862 76.322C225.862 76.5663 225.862 76.6884 225.862 76.9327C219.028 78.1397 212.897 81.8718 208.687 87.3885C204.476 92.9052 202.493 99.8032 203.132 106.714C203.771 113.624 206.984 120.042 212.134 124.694C217.284 129.345 223.995 131.89 230.935 131.825H332.395C337.129 132.04 341.755 130.366 345.255 127.171C348.754 123.976 350.842 119.522 351.057 114.788C351.273 110.054 349.599 105.428 346.404 101.928C343.209 98.4283 338.754 96.3411 334.02 96.1256H334.039Z" fill="#58595A"/>
<path opacity="0.5" d="M334.039 96.1256C334.452 94.1861 334.66 92.2087 334.659 90.2258C334.659 86.547 333.934 82.9041 332.527 79.5052C331.119 76.1064 329.055 73.0181 326.454 70.4168C323.853 67.8154 320.764 65.7519 317.365 64.344C313.967 62.9362 310.324 62.2116 306.645 62.2116C304.908 62.2134 303.176 62.3737 301.468 62.6907C300.754 62.5592 300.031 62.6907 299.289 62.6061C296.649 56.869 292.408 52.016 287.077 48.6298C281.746 45.2436 275.551 43.4681 269.236 43.5166H258.902C254.577 43.4956 250.29 44.3281 246.288 45.9663C242.285 47.6046 238.645 50.0166 235.575 53.0639C232.506 56.1113 230.068 59.7343 228.402 63.7253C226.735 67.7163 225.872 71.997 225.862 76.322C225.862 76.5663 225.862 76.6884 225.862 76.9327C219.028 78.1397 212.897 81.8718 208.687 87.3885C204.476 92.9052 202.493 99.8032 203.132 106.714C203.771 113.624 206.984 120.042 212.134 124.694C217.284 129.345 223.995 131.89 230.935 131.825H332.395C337.129 132.04 341.755 130.366 345.255 127.171C348.754 123.976 350.842 119.522 351.057 114.788C351.273 110.054 349.599 105.428 346.404 101.928C343.209 98.4283 338.754 96.3411 334.02 96.1256H334.039Z" fill="white"/>
<path opacity="0.4" d="M334.039 96.1256C334.452 94.1861 334.66 92.2087 334.659 90.2258C334.659 86.547 333.935 82.9041 332.527 79.5052C331.119 76.1064 329.055 73.0181 326.454 70.4168C323.853 67.8154 320.764 65.7519 317.365 64.344C313.967 62.9362 310.324 62.2116 306.645 62.2116C304.908 62.2134 303.176 62.3737 301.469 62.6907C300.755 62.5592 300.031 62.6907 299.289 62.6061C296.649 56.869 292.408 52.016 287.078 48.6298C281.747 45.2436 275.551 43.4681 269.236 43.5166C264.911 43.4956 260.624 44.3281 256.622 45.9663C252.619 47.6046 248.979 50.0166 245.909 53.0639C242.84 56.1113 240.402 59.7343 238.736 63.7253C237.069 67.7163 236.206 71.997 236.196 76.322C236.196 76.5663 236.196 76.6884 236.196 76.9327C229.362 78.1397 223.231 81.8718 219.021 87.3885C214.81 92.9052 212.827 99.8032 213.466 106.714C214.105 113.624 217.318 120.042 222.468 124.694C227.618 129.345 234.329 131.89 241.269 131.825H332.395C337.129 132.04 341.755 130.366 345.255 127.171C348.754 123.976 350.842 119.522 351.057 114.788C351.273 110.054 349.599 105.428 346.404 101.928C343.209 98.4283 338.754 96.3411 334.02 96.1256H334.039Z" fill="white"/>
<path d="M361.461 177.859H329.83C317.377 177.844 305.438 172.89 296.632 164.085C287.826 155.279 282.873 143.34 282.858 130.887V121.492H273.463V130.887C273.481 145.831 279.425 160.158 289.992 170.725C300.559 181.292 314.886 187.236 329.83 187.253H361.461V177.859Z" fill="#58595A"/>
<path d="M278.048 115.234L269.903 123.37H286.184L278.048 115.234Z" fill="#58595A"/>
<path d="M459.85 263.352L460.188 277.979L461.729 344.144H466.811L468.343 277.979L468.681 263.352H459.85Z" fill="#407BFF"/>
<path opacity="0.4" d="M459.85 263.352L460.188 277.979L461.729 344.144H466.811L468.343 277.979L468.681 263.352H459.85Z" fill="white"/>
<path opacity="0.2" d="M459.85 263.352L460.188 278.383H468.343L468.681 263.352H459.85Z" fill="black"/>
<path d="M432.249 343.907L436.946 264.383H444.622L438.045 343.907H432.249Z" fill="#407BFF"/>
<path opacity="0.5" d="M438.064 343.907H432.258L436.523 271.523L436.946 264.289H444.621L444.03 271.523L438.064 343.907Z" fill="white"/>
<path opacity="0.2" d="M444.621 264.289L444.03 271.805H436.523L436.946 264.289H444.621Z" fill="black"/>
<path d="M490.495 343.907L483.918 264.383H491.594L496.291 343.907H490.495Z" fill="#407BFF"/>
<path opacity="0.5" d="M490.476 343.907L484.51 271.523L483.918 264.289H491.594L492.017 271.523L496.282 343.907H490.476Z" fill="white"/>
<path opacity="0.2" d="M483.918 264.289L484.51 271.805H492.017L491.594 264.289H483.918Z" fill="black"/>
<path d="M495.699 267.137H432.831V260.871C432.831 259.626 433.326 258.431 434.207 257.55C435.088 256.669 436.283 256.174 437.529 256.174H491.002C492.248 256.174 493.443 256.669 494.323 257.55C495.204 258.431 495.699 259.626 495.699 260.871V267.156V267.137Z" fill="#407BFF"/>
<path d="M431.714 267.125H496.827C497.869 267.125 498.715 266.28 498.715 265.237V263.527C498.715 262.484 497.869 261.639 496.827 261.639H431.714C430.671 261.639 429.825 262.484 429.825 263.527V265.237C429.825 266.28 430.671 267.125 431.714 267.125Z" fill="#407BFF"/>
<path opacity="0.6" d="M431.714 267.125H496.827C497.869 267.125 498.715 266.28 498.715 265.237V263.527C498.715 262.484 497.869 261.639 496.827 261.639H431.714C430.671 261.639 429.825 262.484 429.825 263.527V265.237C429.825 266.28 430.671 267.125 431.714 267.125Z" fill="white"/>
<path d="M441.709 167.056C441.709 167.056 441.446 167.77 440.967 168.935C440.487 170.1 439.755 171.875 438.862 173.811C436.701 178.508 433.564 184.483 430.285 187.705C429.462 188.571 428.471 189.262 427.373 189.734C423.878 191.078 415.113 191.322 407.287 191.247C399.462 191.171 392.773 190.777 392.773 190.777V184.849L418.504 177.991C418.504 177.991 432.07 153.509 440.112 149.883L441.709 167.056Z" fill="#FF9900"/>
<path opacity="0.2" d="M440.966 168.948C440.478 170.17 439.755 171.889 438.862 173.824C436.701 178.521 433.564 184.496 430.285 187.718C426.95 175.43 439.285 163.734 439.285 163.734L440.966 168.948Z" fill="black"/>
<path d="M437.641 337.356L430.154 336.332L429.12 318.539L436.589 319.572L437.641 337.356Z" fill="#EBB376"/>
<path opacity="0.2" d="M436.589 319.579L429.12 318.555L429.712 328.719L437.181 329.377L436.589 319.579Z" fill="black"/>
<path d="M437.34 232.779L439.163 221.336L481.081 218.828C481.081 218.828 485.543 242.634 482.114 248.975C475.998 260.295 443.024 254.612 433.366 255.692C439.172 279.319 438.608 325.352 438.608 325.352L424.827 326.404C424.827 326.404 414.23 276.736 412.079 253.127C410.622 237.232 423.831 237.626 437.34 232.779Z" fill="#252F3E"/>
<path d="M440.224 326.036L423.662 327.116L422.243 320.024L440.44 319.188L440.224 326.036Z" fill="#252F3E"/>
<path d="M420.374 330.72L412.84 331.274L408.124 314.092L415.649 313.547L420.374 330.72Z" fill="#EBB376"/>
<path d="M411.825 331.523H411.693C411.693 331.411 411.308 329.297 410.397 328.799C410.28 328.741 410.151 328.711 410.021 328.711C409.891 328.711 409.762 328.741 409.645 328.799C409.502 328.844 409.378 328.936 409.294 329.061C409.21 329.185 409.172 329.335 409.185 329.485C409.367 330.108 409.759 330.649 410.293 331.016C409.608 330.782 408.861 330.802 408.189 331.072C408.098 331.141 408.027 331.231 407.981 331.334C407.935 331.438 407.916 331.551 407.926 331.664C407.914 331.842 407.953 332.019 408.038 332.175C408.122 332.332 408.25 332.461 408.405 332.547C408.876 332.731 409.399 332.731 409.871 332.547C410.524 332.353 411.154 332.089 411.75 331.758H411.815C411.815 331.758 411.815 331.758 411.815 331.702C411.836 331.677 411.848 331.646 411.849 331.614C411.851 331.582 411.842 331.55 411.825 331.523ZM409.561 329.419C409.561 329.316 409.561 329.184 409.814 329.09H409.899C409.965 329.067 410.036 329.06 410.106 329.068C410.176 329.076 410.243 329.1 410.303 329.137C410.848 329.428 411.242 330.575 411.402 331.26L411.233 331.213C410.491 330.772 409.626 329.926 409.561 329.419ZM408.574 332.181C408.481 332.118 408.406 332.032 408.355 331.932C408.304 331.832 408.279 331.72 408.283 331.608C408.278 331.553 408.287 331.498 408.308 331.447C408.329 331.396 408.363 331.352 408.405 331.317C408.837 330.997 410.209 331.27 411.223 331.57C409.974 332.19 409.016 332.416 408.574 332.181Z" fill="#252F3E"/>
<path opacity="0.2" d="M415.649 313.547L408.124 314.101L410.82 323.918L418.26 323.007L415.649 313.547Z" fill="black"/>
<path d="M405.568 322.703L418.833 318.776C418.833 318.776 410.914 274.078 402.863 258.577C403.464 258.379 404.262 258.126 405.249 257.834C407.024 257.299 409.382 256.632 412.154 255.862C431.431 250.516 470.503 240.492 470.503 240.492L452.653 223.836C452.653 223.836 381.556 234.677 380.081 253.41C379.395 262.41 405.568 322.703 405.568 322.703Z" fill="#252F3E"/>
<path d="M420.543 319.095L404.572 323.614L401.707 316.972L419.331 312.359L420.543 319.095Z" fill="#252F3E"/>
<path opacity="0.2" d="M405.268 257.861C407.043 257.325 409.401 256.658 412.173 255.888C411.618 251.341 411.609 246.127 413.798 243.468C418.147 238.17 429.336 235.06 435.706 233.933C441.032 232.993 458.929 231.115 458.929 231.115C458.929 231.115 435.706 228.888 411.956 235.812C400.232 239.25 402.515 250.721 405.268 257.861Z" fill="black"/>
<path d="M483.448 230.786C486.266 228.635 483.561 208.625 484.998 188.944C487.187 158.975 484.998 149.346 482.791 148.416C478.714 147.709 474.591 147.301 470.456 147.195C464.406 146.978 458.349 147.11 452.315 147.589C448.185 148.095 444.102 148.925 440.102 150.069C440.102 150.069 430.219 181.541 436.532 226.869L483.448 230.786Z" fill="#FF9900"/>
<path d="M468.229 126.859C467.205 132.722 466.294 143.431 470.456 147.245C468.766 149.06 466.734 150.522 464.477 151.547C462.22 152.573 459.782 153.141 457.304 153.22C449.788 153.549 452.325 147.584 452.325 147.584C458.807 145.893 458.525 141.064 457.294 136.554L468.229 126.859Z" fill="#EBB376"/>
<path opacity="0.2" d="M463.767 130.828L457.294 136.596C457.597 137.644 457.808 138.716 457.923 139.8C460.404 139.396 463.757 136.587 463.973 133.975C464.098 132.922 464.028 131.856 463.767 130.828Z" fill="black"/>
<path d="M454.015 111.688C457.256 113.887 455.781 117.607 448.454 123.441C445.485 119.617 444.987 112.102 447.354 110.223C449.722 108.344 451.197 109.781 454.015 111.688Z" fill="#263238"/>
<path d="M467.929 117.732C467.581 125.652 467.769 130.293 463.852 134.426C457.952 140.636 448.125 137.179 446.105 129.316C444.302 122.251 445.166 110.527 452.86 107.21C454.55 106.478 456.4 106.19 458.233 106.375C460.066 106.559 461.821 107.21 463.332 108.264C464.842 109.319 466.058 110.743 466.862 112.4C467.667 114.057 468.034 115.893 467.929 117.732Z" fill="#EBB376"/>
<path d="M456.176 120.084C456.176 120.732 455.857 121.258 455.434 121.267C455.011 121.277 454.673 120.76 454.664 120.112C454.654 119.464 454.974 118.947 455.397 118.938C455.819 118.928 456.12 119.454 456.176 120.084Z" fill="#263238"/>
<path d="M448.858 120.226C448.858 120.865 448.539 121.391 448.116 121.4C447.693 121.41 447.346 120.902 447.336 120.245C447.327 119.587 447.656 119.07 448.078 119.07C448.501 119.07 448.849 119.615 448.858 120.226Z" fill="#263238"/>
<path d="M451.253 120.484C450.521 122.463 449.519 124.332 448.275 126.037C448.721 126.34 449.227 126.544 449.759 126.635C450.29 126.726 450.835 126.701 451.357 126.563L451.253 120.484Z" fill="#D58745"/>
<path d="M458.139 117.737C458.222 117.748 458.306 117.727 458.374 117.68C458.414 117.651 458.447 117.614 458.472 117.571C458.497 117.529 458.514 117.482 458.521 117.433C458.528 117.384 458.525 117.334 458.513 117.287C458.501 117.239 458.479 117.194 458.449 117.154C458.09 116.672 457.62 116.282 457.079 116.019C456.538 115.756 455.941 115.627 455.34 115.642C455.292 115.644 455.245 115.656 455.202 115.677C455.159 115.698 455.121 115.727 455.089 115.763C455.058 115.799 455.034 115.841 455.019 115.886C455.004 115.931 454.998 115.979 455.002 116.027C455.013 116.124 455.062 116.213 455.137 116.276C455.212 116.339 455.308 116.371 455.406 116.365C455.881 116.36 456.35 116.468 456.775 116.68C457.199 116.893 457.567 117.203 457.848 117.586C457.884 117.63 457.928 117.666 457.978 117.692C458.028 117.718 458.083 117.733 458.139 117.737Z" fill="#263238"/>
<path d="M445.485 117.812C445.558 117.812 445.629 117.792 445.69 117.754C445.752 117.716 445.801 117.661 445.833 117.596C446.018 117.159 446.304 116.772 446.668 116.468C447.033 116.164 447.465 115.952 447.928 115.849C448.027 115.833 448.116 115.778 448.175 115.698C448.235 115.617 448.261 115.516 448.247 115.417C448.233 115.318 448.181 115.23 448.102 115.17C448.023 115.11 447.923 115.084 447.824 115.097C447.236 115.22 446.686 115.482 446.221 115.861C445.755 116.24 445.387 116.726 445.147 117.277C445.105 117.366 445.1 117.469 445.134 117.562C445.167 117.656 445.236 117.732 445.326 117.775C445.374 117.802 445.43 117.815 445.485 117.812Z" fill="#263238"/>
<path d="M464.678 110.765C461.005 112.099 461.531 116.072 467.205 123.513C471.038 120.497 473.359 113.348 471.508 110.952C469.657 108.557 467.929 109.609 464.678 110.765Z" fill="#263238"/>
<path d="M471.827 123.984C471.572 124.938 471.131 125.832 470.53 126.615C469.929 127.399 469.179 128.056 468.323 128.549C466.022 129.846 464.246 127.939 464.35 125.449C464.453 123.195 465.768 119.813 468.333 119.531C470.897 119.249 472.448 121.616 471.827 123.984Z" fill="#EBB376"/>
<path d="M457.294 127.875C456.738 128.726 455.958 129.407 455.039 129.843C454.121 130.279 453.1 130.453 452.089 130.346" stroke="#263238" stroke-width="0.526291" stroke-linecap="round" stroke-linejoin="round"/>
<path d="M456.655 109.506C456.655 109.506 457.839 117.435 465.477 117.961C473.114 118.487 474.749 113.743 474.749 113.743C474.126 113.834 473.499 113.884 472.87 113.893C472.87 113.893 475.106 110.051 472.87 106.378C470.634 102.705 463.025 98.7777 457.378 100.741C455.622 100.167 453.765 99.9625 451.925 100.14C450.085 100.318 448.302 100.875 446.688 101.774C441.399 104.846 442.338 111.545 442.338 111.545C442.338 111.545 442.103 107.477 444.574 106.34C444.574 106.34 441.521 114.711 446.096 116.947C446.086 116.918 446.537 108.679 456.655 109.506Z" fill="#263238"/>
<path d="M443.663 184.433C443.663 184.433 416.419 183.813 414.878 183.663C413.337 183.513 406.883 179.905 405.483 179.708C404.084 179.511 400.429 185.345 399.969 186.697C399.509 188.05 410.303 191.714 411.346 191.554C412.553 191.233 413.726 190.795 414.85 190.249L442.657 193.828L443.663 184.433Z" fill="#EBB376"/>
<path d="M364.589 190.07V192.56C364.589 193.302 365.867 193.828 366.609 193.828H424.658C425.409 193.828 426.593 193.302 426.593 192.56V190.07H364.589Z" fill="#263238"/>
<path opacity="0.6" d="M364.589 190.07V192.56C364.589 193.302 365.867 193.828 366.609 193.828H424.658C425.409 193.828 426.593 193.302 426.593 192.56V190.07H364.589Z" fill="white"/>
<path opacity="0.2" d="M364.589 190.07V192.56C364.589 193.302 365.867 193.828 366.609 193.828H404.892C405.643 193.828 406.864 193.302 406.864 192.56V190.07H364.589Z" fill="black"/>
<path d="M355.28 159.551L362.194 191.013C362.316 191.526 362.601 191.985 363.005 192.324C363.41 192.662 363.913 192.861 364.439 192.891H402.167C402.41 192.87 402.644 192.795 402.853 192.671C403.063 192.547 403.242 192.379 403.378 192.177C403.514 191.975 403.603 191.746 403.639 191.506C403.675 191.265 403.657 191.02 403.586 190.787L396.681 159.673C396.54 159.197 396.24 158.785 395.832 158.504C395.423 158.224 394.93 158.092 394.436 158.132H356.708C355.693 158.132 355.054 158.527 355.28 159.551Z" fill="#263238"/>
<path opacity="0.6" d="M355.28 159.551L362.194 191.013C362.316 191.526 362.601 191.985 363.005 192.324C363.41 192.662 363.913 192.861 364.439 192.891H402.167C402.41 192.87 402.644 192.795 402.853 192.671C403.063 192.547 403.242 192.379 403.378 192.177C403.514 191.975 403.603 191.746 403.639 191.506C403.675 191.265 403.657 191.02 403.586 190.787L396.681 159.673C396.54 159.197 396.24 158.785 395.832 158.504C395.423 158.224 394.93 158.092 394.436 158.132H356.708C355.693 158.132 355.054 158.527 355.28 159.551Z" fill="white"/>
<path opacity="0.4" d="M355.28 159.551L362.194 191.013C362.316 191.526 362.601 191.985 363.005 192.324C363.41 192.662 363.913 192.861 364.439 192.891H400.899C401.141 192.87 401.376 192.794 401.585 192.671C401.795 192.547 401.975 192.379 402.111 192.177C402.248 191.976 402.338 191.747 402.375 191.506C402.413 191.266 402.396 191.02 402.327 190.787L395.422 159.673C395.281 159.197 394.982 158.785 394.573 158.504C394.164 158.224 393.671 158.092 393.177 158.132H356.708C355.693 158.132 355.054 158.527 355.28 159.551Z" fill="white"/>
<path opacity="0.2" d="M377.488 179.736C375.731 179.736 373.928 177.857 373.467 175.528C373.007 173.198 374.068 171.281 375.863 171.281C376.185 171.288 376.503 171.352 376.802 171.469C376.965 172.3 377.321 173.081 377.842 173.748C378.362 174.416 379.033 174.951 379.799 175.311C379.819 175.373 379.835 175.436 379.846 175.499C380.316 177.857 379.254 179.736 377.488 179.736Z" fill="black"/>
<path opacity="0.2" d="M485.778 173.517C481.729 180.093 476.064 187.092 470.418 186.763C464.509 186.415 470.465 174.353 476.816 163.85C477.052 164.33 477.262 164.822 477.445 165.325C478.883 169.346 483.27 164.385 485.506 157.922C485.886 163.111 485.977 168.317 485.778 173.517Z" fill="black"/>
<path d="M482.791 148.414C496.723 153.431 472.269 191.159 464.669 195.048C457.069 198.937 437.096 194.456 437.096 194.456L438.336 182.798C438.336 182.798 454.147 183.869 457.294 183.07C460.441 182.272 467.919 166.16 472.222 158.598C474.61 154.194 478.302 150.637 482.791 148.414Z" fill="#FF9900"/>
<path opacity="0.2" d="M440.224 326.036L423.662 327.116L422.243 320.024L440.44 319.188L440.224 326.036Z" fill="white"/>
<path opacity="0.2" d="M420.543 319.095L404.572 323.614L401.707 316.972L419.331 312.359L420.543 319.095Z" fill="white"/>
<path d="M412.107 330.501L420.261 328.228C420.396 328.186 420.541 328.198 420.668 328.261C420.794 328.324 420.891 328.433 420.938 328.566L423.145 334.917C423.237 335.259 423.19 335.625 423.014 335.933C422.838 336.241 422.548 336.466 422.206 336.561C419.34 337.303 417.941 337.5 414.343 338.496C412.135 339.107 407.832 340.516 404.685 340.873C401.538 341.23 401.275 338.111 402.571 337.688C405.653 336.655 409.345 333.442 410.942 331.262C411.234 330.886 411.644 330.618 412.107 330.501Z" fill="#263238"/>
<path d="M429.411 336.343C429.411 336.211 429.28 334.079 428.472 333.403C428.352 333.313 428.215 333.25 428.07 333.216C427.924 333.182 427.773 333.178 427.626 333.205C427.474 333.219 427.33 333.282 427.215 333.383C427.1 333.484 427.021 333.619 426.988 333.769C427.021 334.415 427.284 335.028 427.73 335.497C427.101 335.129 426.363 334.992 425.644 335.112C425.542 335.162 425.453 335.236 425.386 335.327C425.319 335.419 425.275 335.526 425.259 335.638C425.215 335.806 425.218 335.982 425.268 336.148C425.317 336.314 425.412 336.462 425.541 336.578C425.965 336.848 426.474 336.948 426.969 336.86C427.639 336.804 428.301 336.672 428.942 336.465C428.952 336.47 428.963 336.473 428.975 336.473C428.986 336.473 428.997 336.47 429.007 336.465V336.409C429.007 336.409 429.186 336.409 429.195 336.343C429.205 336.277 429.355 336.343 429.355 336.343H429.411ZM427.335 333.806C427.335 333.703 427.401 333.572 427.645 333.525H427.73C427.8 333.518 427.872 333.527 427.938 333.552C428.005 333.576 428.065 333.615 428.115 333.666C428.594 334.06 428.726 335.253 428.754 335.967L428.604 335.883C427.949 335.361 427.5 334.626 427.335 333.806ZM425.795 336.296C425.722 336.214 425.671 336.115 425.647 336.009C425.622 335.902 425.624 335.791 425.654 335.685C425.659 335.63 425.68 335.577 425.713 335.533C425.746 335.488 425.79 335.453 425.842 335.432C426.321 335.206 427.608 335.76 428.519 336.258C427.166 336.625 426.17 336.625 425.795 336.334V336.296Z" fill="#252F3E"/>
<path d="M429.59 335.437L438.045 334.911C438.115 334.902 438.186 334.907 438.254 334.925C438.322 334.944 438.385 334.976 438.44 335.02C438.496 335.064 438.541 335.119 438.575 335.18C438.609 335.242 438.63 335.31 438.637 335.38L439.464 342.05C439.476 342.224 439.455 342.398 439.399 342.563C439.344 342.729 439.257 342.881 439.142 343.012C439.028 343.143 438.889 343.25 438.733 343.327C438.576 343.404 438.407 343.449 438.233 343.46C435.283 343.601 433.864 343.516 430.144 343.723C427.861 343.854 423.361 344.343 420.205 344.033C417.048 343.723 417.443 340.623 418.805 340.472C422.027 340.106 426.321 337.738 428.322 335.935C428.678 335.633 429.124 335.458 429.59 335.437Z" fill="#263238"/>
<path d="M391.937 344.142H397.687L398.636 200.172H390.998L391.937 344.142Z" fill="black"/>
<path opacity="0.4" d="M390.988 200.406L391.139 223.639L391.928 344.141H397.687L398.476 223.639L398.626 200.406H390.988Z" fill="white"/>
<path opacity="0.2" d="M390.988 200.406L391.139 223.892H398.476L398.626 200.406H390.988Z" fill="black"/>
<path d="M330.836 344.142H336.585L346.929 200.172H339.291L330.836 344.142Z" fill="black"/>
<path opacity="0.5" d="M330.826 344.141H336.585L346.421 207.33L346.928 200.406H339.291L338.877 207.33L330.826 344.141Z" fill="white"/>
<path opacity="0.2" d="M338.877 206.982H346.421L346.928 200.406H339.291L338.877 206.982Z" fill="black"/>
<path d="M453.039 344.142H458.788L450.333 200.172H442.696L453.039 344.142Z" fill="black"/>
<path opacity="0.5" d="M442.696 200.406L443.203 207.33L453.039 344.141H458.788L450.747 207.33L450.333 200.406H442.696Z" fill="white"/>
<path opacity="0.2" d="M450.333 200.406H442.696L443.203 206.982H450.747L450.333 200.406Z" fill="black"/>
<path d="M454.354 203.781L335.27 203.781C335.003 203.781 334.74 203.729 334.493 203.627C334.247 203.525 334.023 203.375 333.835 203.187C333.647 202.998 333.497 202.775 333.395 202.529C333.293 202.282 333.241 202.019 333.241 201.752V196.576L456.383 196.576V201.752C456.383 202.29 456.17 202.806 455.789 203.187C455.408 203.567 454.892 203.781 454.354 203.781Z" fill="black"/>
<path opacity="0.6" d="M454.354 203.781L335.27 203.781C335.003 203.781 334.74 203.729 334.493 203.627C334.247 203.525 334.023 203.375 333.835 203.187C333.647 202.998 333.497 202.775 333.395 202.529C333.293 202.282 333.241 202.019 333.241 201.752V196.576L456.383 196.576V201.752C456.383 202.29 456.17 202.806 455.789 203.187C455.408 203.567 454.892 203.781 454.354 203.781Z" fill="white"/>
<path opacity="0.2" d="M333.241 200.172L456.383 200.172V196.564L333.241 196.564V200.172Z" fill="black"/>
<path d="M329.671 197.513H459.953C460.492 197.511 461.008 197.295 461.389 196.913C461.769 196.531 461.982 196.014 461.982 195.475C461.982 194.936 461.769 194.42 461.388 194.04C461.007 193.659 460.491 193.445 459.953 193.445H329.671C329.133 193.445 328.616 193.659 328.236 194.04C327.855 194.42 327.642 194.936 327.642 195.475C327.642 196.014 327.855 196.531 328.235 196.913C328.616 197.295 329.132 197.511 329.671 197.513Z" fill="black"/>
<path opacity="0.6" d="M329.671 197.513H459.953C460.492 197.511 461.008 197.295 461.389 196.913C461.769 196.531 461.982 196.014 461.982 195.475C461.982 194.936 461.769 194.42 461.388 194.04C461.007 193.659 460.491 193.445 459.953 193.445H329.671C329.133 193.445 328.616 193.659 328.236 194.04C327.855 194.42 327.642 194.936 327.642 195.475C327.642 196.014 327.855 196.531 328.235 196.913C328.616 197.295 329.132 197.511 329.671 197.513Z" fill="white"/>
<path d="M263.85 88.5273C263.85 89.3504 263.939 90.0178 264.095 90.5072C264.273 90.9967 264.495 91.5306 264.807 92.109C264.918 92.287 264.963 92.465 264.963 92.6207C264.963 92.8432 264.829 93.0656 264.54 93.2881L263.138 94.2225C262.938 94.356 262.738 94.4227 262.56 94.4227C262.337 94.4227 262.115 94.3115 261.892 94.1112C261.581 93.7775 261.314 93.4216 261.092 93.0656C260.869 92.6874 260.647 92.2647 260.402 91.7531C258.667 93.7998 256.486 94.8231 253.861 94.8231C251.993 94.8231 250.502 94.2892 249.412 93.2214C248.322 92.1535 247.766 90.7297 247.766 88.9499C247.766 87.059 248.433 85.5239 249.79 84.3671C251.147 83.2102 252.949 82.6318 255.241 82.6318C255.997 82.6318 256.776 82.6986 257.599 82.8098C258.422 82.921 259.267 83.099 260.157 83.2992V81.6752C260.157 79.9844 259.801 78.8053 259.112 78.1157C258.4 77.426 257.198 77.0923 255.485 77.0923C254.707 77.0923 253.906 77.1813 253.083 77.3815C252.26 77.5818 251.459 77.8265 250.68 78.1379C250.324 78.2937 250.057 78.3826 249.901 78.4271C249.746 78.4716 249.634 78.4939 249.545 78.4939C249.234 78.4939 249.078 78.2714 249.078 77.8042V76.7141C249.078 76.3582 249.123 76.0912 249.234 75.9355C249.345 75.7798 249.545 75.624 249.857 75.4683C250.635 75.0679 251.57 74.7341 252.66 74.4672C253.75 74.178 254.907 74.0445 256.13 74.0445C258.778 74.0445 260.713 74.6452 261.959 75.8465C263.183 77.0478 263.806 78.8721 263.806 81.3192V88.5273H263.85ZM254.818 91.9088C255.552 91.9088 256.308 91.7753 257.109 91.5083C257.91 91.2414 258.622 90.7519 259.223 90.0845C259.579 89.6618 259.846 89.1947 259.979 88.6607C260.113 88.1268 260.202 87.4816 260.202 86.7253V85.7909C259.557 85.6352 258.867 85.5017 258.155 85.4127C257.443 85.3237 256.753 85.2792 256.064 85.2792C254.573 85.2792 253.483 85.5684 252.749 86.1691C252.015 86.7697 251.659 87.6151 251.659 88.7275C251.659 89.7731 251.926 90.5517 252.482 91.0857C253.016 91.6418 253.795 91.9088 254.818 91.9088ZM272.682 94.3115C272.282 94.3115 272.015 94.2447 271.837 94.089C271.659 93.9555 271.503 93.6441 271.37 93.2214L266.142 76.0245C266.008 75.5795 265.941 75.2903 265.941 75.1346C265.941 74.7786 266.119 74.5784 266.475 74.5784H268.656C269.078 74.5784 269.367 74.6452 269.523 74.8009C269.701 74.9344 269.835 75.2458 269.968 75.6685L273.706 90.396L277.176 75.6685C277.287 75.2236 277.421 74.9344 277.599 74.8009C277.777 74.6674 278.088 74.5784 278.489 74.5784H280.268C280.691 74.5784 280.98 74.6452 281.158 74.8009C281.336 74.9344 281.492 75.2458 281.581 75.6685L285.096 90.574L288.945 75.6685C289.078 75.2236 289.234 74.9344 289.39 74.8009C289.568 74.6674 289.857 74.5784 290.257 74.5784H292.326C292.682 74.5784 292.882 74.7564 292.882 75.1346C292.882 75.2458 292.86 75.3571 292.838 75.4905C292.816 75.624 292.771 75.802 292.682 76.0467L287.321 93.2436C287.187 93.6885 287.031 93.9778 286.854 94.1112C286.676 94.2447 286.386 94.3337 286.008 94.3337H284.095C283.672 94.3337 283.383 94.267 283.205 94.1112C283.027 93.9555 282.871 93.6663 282.782 93.2214L279.334 78.8721L275.908 93.1991C275.797 93.6441 275.663 93.9333 275.485 94.089C275.307 94.2447 274.996 94.3115 274.595 94.3115H272.682ZM301.27 94.9121C300.113 94.9121 298.956 94.7786 297.843 94.5117C296.731 94.2447 295.864 93.9555 295.285 93.6218C294.929 93.4216 294.684 93.1991 294.595 92.9989C294.506 92.7987 294.462 92.5762 294.462 92.376V91.2414C294.462 90.7742 294.64 90.5517 294.974 90.5517C295.107 90.5517 295.241 90.574 295.374 90.6185C295.508 90.663 295.708 90.7519 295.93 90.8409C296.687 91.1746 297.51 91.4416 298.377 91.6196C299.267 91.7976 300.135 91.8865 301.025 91.8865C302.426 91.8865 303.516 91.6418 304.273 91.1524C305.029 90.663 305.43 89.9511 305.43 89.0389C305.43 88.416 305.229 87.9043 304.829 87.4816C304.429 87.059 303.672 86.6808 302.582 86.3248L299.356 85.3237C297.732 84.812 296.531 84.0556 295.797 83.0545C295.063 82.0756 294.684 80.9855 294.684 79.8287C294.684 78.8943 294.885 78.0712 295.285 77.3593C295.686 76.6474 296.219 76.0245 296.887 75.535C297.554 75.0234 298.311 74.6452 299.201 74.3782C300.09 74.1112 301.025 74 302.004 74C302.493 74 303.005 74.0222 303.494 74.089C304.006 74.1557 304.473 74.2447 304.94 74.3337C305.385 74.4449 305.808 74.5562 306.208 74.6897C306.609 74.8231 306.92 74.9566 307.143 75.0901C307.454 75.2681 307.677 75.4461 307.81 75.6463C307.944 75.8242 308.01 76.069 308.01 76.3804V77.426C308.01 77.8932 307.832 78.1379 307.499 78.1379C307.321 78.1379 307.031 78.0489 306.653 77.871C305.385 77.2925 303.961 77.0033 302.382 77.0033C301.114 77.0033 300.113 77.2036 299.423 77.6263C298.733 78.0489 298.377 78.6941 298.377 79.6062C298.377 80.2291 298.6 80.7631 299.045 81.1858C299.49 81.6085 300.313 82.0311 301.492 82.4093L304.651 83.4105C306.253 83.9221 307.41 84.634 308.099 85.5462C308.789 86.4583 309.123 87.5039 309.123 88.6607C309.123 89.6174 308.922 90.485 308.544 91.2414C308.144 91.9978 307.61 92.6652 306.92 93.1991C306.231 93.7553 305.407 94.1557 304.451 94.4449C303.45 94.7564 302.404 94.9121 301.27 94.9121Z" fill="#252F3E"/>
<path fill-rule="evenodd" clip-rule="evenodd" d="M305.474 105.721C298.155 111.127 287.521 113.997 278.378 113.997C265.563 113.997 254.017 109.258 245.296 101.383C244.607 100.76 245.23 99.9146 246.053 100.404C255.485 105.877 267.121 109.192 279.156 109.192C287.276 109.192 296.197 107.501 304.406 104.03C305.63 103.474 306.676 104.831 305.474 105.721Z" fill="#FF9900"/>
<path fill-rule="evenodd" clip-rule="evenodd" d="M308.522 102.254C307.588 101.053 302.338 101.676 299.957 101.965C299.245 102.054 299.134 101.431 299.779 100.964C303.962 98.0271 310.836 98.8725 311.637 99.8513C312.438 100.852 311.414 107.727 307.499 111.019C306.898 111.531 306.32 111.264 306.587 110.597C307.477 108.394 309.457 103.433 308.522 102.254Z" fill="#FF9900"/>
</g>
<defs>
<clipPath id="clip0_2502_2425">
<rect width="690" height="350" fill="white"/>
</clipPath>
</defs>
</svg>
