<svg width="690" height="350" viewBox="0 0 690 350" fill="none" xmlns="http://www.w3.org/2000/svg">
<path d="M593.575 15H431V164.507H593.575V15Z" fill="#D1D1D1"/>
<path d="M466.456 41.6953H450.531V57.6205H466.456V41.6953Z" fill="#F9CE80"/>
<path d="M497.167 41.6953H481.242V57.6205H497.167V41.6953Z" fill="#F9CE80"/>
<path d="M569.902 111.539H553.977V127.464H569.902V111.539Z" fill="#4CAF52"/>
<path d="M468.902 74.5391H452.977V90.4643H468.902V74.5391Z" fill="#4CAF52"/>
<path d="M492.589 97.9844H476.664V113.91H492.589V97.9844Z" fill="#F9CE80"/>
<path d="M550.371 66.3984H534.445V82.3236H550.371V66.3984Z" fill="#F9CE80"/>
<path d="M511.953 33.7422V146.488" stroke="#EBEFF2" stroke-miterlimit="10"/>
<path d="M416.531 231.711L432.494 348.322" stroke="#213033" stroke-width="1.0124" stroke-miterlimit="10"/>
<path d="M368.771 234.328L353.07 349.072" stroke="#213033" stroke-width="1.0124" stroke-miterlimit="10"/>
<path d="M427.059 235.893H359.382C356.059 235.893 353.352 233.205 353.352 229.863V229.788C353.352 226.465 356.04 223.758 359.382 223.758H427.059C430.383 223.758 433.09 226.446 433.09 229.788V229.863C433.09 233.205 430.383 235.893 427.059 235.893Z" fill="#000103"/>
<path d="M279.174 295.969L267.375 322.554L283.3 328.267L298.385 299.945L279.174 295.969Z" fill="#FFAD9E"/>
<path d="M266.578 318.227L239.283 320.691C237.285 320.859 235.642 322.39 235.344 324.406L283.792 344.289L285.154 325.564L266.578 318.227Z" fill="#000103"/>
<path d="M282.631 349.48L232.82 329.037L234.762 324.164L284.591 344.589L282.631 349.48Z" fill="#FEFEFF"/>
<path d="M340.267 243.005L294.713 318.897L267.586 306.034L306.96 227.005C311.422 216.438 324.211 212.424 333.807 218.567C341.91 223.775 344.71 234.398 340.267 243.005Z" fill="#3A933C"/>
<path d="M426.743 190.562C426.743 190.562 438.262 212.91 421.068 223.122C418.566 224.597 415.728 225.4 412.853 225.605L339.276 238.6L313.68 204.023L368.568 190.693L426.743 190.562Z" fill="#4CAF52"/>
<path d="M340.922 292.458L355.951 317.307L369.598 307.263L355.017 278.68L340.922 292.458Z" fill="#FFAD9E"/>
<path d="M351.955 315.534L338.531 339.692C337.542 341.466 337.859 343.688 339.334 345.069L382.928 315.87L368.421 304.164L351.955 315.534Z" fill="#000103"/>
<path d="M386.532 319.809L341.706 349.811L338.812 345.424L383.638 315.422L386.532 319.809Z" fill="#FEFEFF"/>
<path d="M334.013 213.488L370.195 294.384L344.375 309.749L302.125 232.251C296.02 222.543 299.96 209.624 310.415 205.087C319.245 201.241 329.514 204.9 334.013 213.488Z" fill="#4CAF52"/>
<path d="M344.808 237.629L332.766 231.711" stroke="#3A933C" stroke-width="0.7475" stroke-miterlimit="10"/>
<path d="M307.367 168.146L320.081 167.156L319.689 180.001H308.693L307.367 168.146Z" fill="#FCC3CB"/>
<path d="M308.317 168.145C308.317 168.145 279.192 156.794 282.422 179.982H310.37L308.317 168.145Z" fill="#FFC9BD"/>
<path d="M351.404 115.273C351.404 115.273 338.279 142.624 335.46 170.629C335.142 173.765 338.297 176.883 340.743 178.862C346.251 183.306 355.492 178.862 357.546 172.403C357.546 172.403 373.415 119.791 371.697 118.578C371.287 118.279 351.404 115.273 351.404 115.273Z" fill="#736153"/>
<path d="M343.099 160.808L302.922 159.781L305.928 180.411L346.123 180.617C347.636 180.691 349.167 180.355 350.492 179.59C354.992 176.92 356.915 171.02 354.338 166.036C352.21 161.928 347.598 159.763 343.099 160.808Z" fill="#736153"/>
<path d="M382.628 104.703L355.52 112.04C352.757 112.395 350.778 114.915 351.058 117.716L368.57 190.714C368.57 190.714 378.483 201.897 426.744 190.565L420.005 116.054C420.341 113.179 416.812 108.68 413.974 108.362L382.628 104.703Z" fill="#736153"/>
<path d="M361.419 159.315C361.98 161.761 355.819 134.821 355.781 134.578" stroke="#5E4C3F" stroke-width="0.7625" stroke-miterlimit="10"/>
<path d="M367.596 181.699H321.688V176.453H367.596C369.034 176.453 370.191 177.629 370.191 179.067C370.191 180.523 369.034 181.699 367.596 181.699Z" fill="#9198AA"/>
<path d="M327.736 181.696H263.139C259.629 181.696 256.567 179.344 255.615 175.927L243.199 130.821C242.434 128.021 244.506 125.258 247.381 125.258H309.085C311.418 125.258 313.472 126.845 314.069 129.141L327.736 181.696Z" fill="#AFB4C3"/>
<path d="M280.032 159.408C283.207 159.408 285.782 156.8 285.782 153.583C285.782 150.366 283.207 147.758 280.032 147.758C276.856 147.758 274.281 150.366 274.281 153.583C274.281 156.8 276.856 159.408 280.032 159.408Z" stroke="white" stroke-width="0.6139" stroke-miterlimit="10"/>
<path d="M395.352 123.169C395.352 123.169 410.119 152.741 426.81 176.582C428.677 179.252 433.102 180.578 436.331 180.447C443.631 180.13 446.73 172.176 443.967 165.717C443.967 165.717 420.388 111.015 417.139 110.118C416.635 109.969 395.352 123.169 395.352 123.169Z" fill="#736153"/>
<path d="M378.477 169.849L391.191 168.859L390.78 181.723H379.783L378.477 169.849Z" fill="#FFC9BD"/>
<path d="M379.41 169.848C379.41 169.848 350.286 158.497 353.516 181.685H381.464L379.41 169.848Z" fill="#FFC9BD"/>
<path d="M433.174 160.55L387.508 161.932L388.404 182.599L435.844 181.591C442.602 180.676 446.709 173.582 444.208 167.178C442.453 162.679 437.916 159.953 433.174 160.55Z" fill="#736153"/>
<path d="M404.164 134.578L416.243 161.052L387.53 161.929L387.492 168.856" stroke="#5E4C3F" stroke-width="0.7625" stroke-miterlimit="10"/>
<path d="M416.242 161.055L422.609 164.229" stroke="#5E4C3F" stroke-width="0.7625" stroke-miterlimit="10"/>
<path d="M352.121 54.4453C351.86 54.744 338.455 59.6728 352.159 75.486L362.67 56.555L352.121 54.4453Z" fill="black"/>
<path d="M358.149 57.915C358.149 57.915 351.97 60.2673 351.391 64.356L350.831 57.5789C350.831 57.5789 346.63 48.9349 353.613 43.9314C362.107 37.8451 370.341 42.5312 372.861 44.4541C375.382 46.3958 386.863 54.1997 386.863 54.1997C386.863 54.1997 396.292 56.9815 388.264 71.0771L381.3 72.0479L377.174 61.6676L366.681 58.083L358.149 57.915Z" fill="black"/>
<path d="M361.827 78.3618C362.462 81.797 360.203 85.1202 356.805 85.755C353.407 86.3898 350.121 84.1121 349.505 80.6769C348.871 77.2417 351.13 73.9185 354.527 73.2837C357.925 72.6303 361.193 74.9079 361.827 78.3618Z" fill="#EFB2A8"/>
<path d="M365.281 87.7714L370.005 109.988C371.106 116.243 375.157 115.981 380.833 114.917C385.687 114.002 389.552 111.687 389.216 106.366L384.922 82.2266L365.281 87.7714Z" fill="#FFC9BD"/>
<path d="M368.814 104.385C368.814 104.385 383.601 97.7201 382.518 86.4062L366.312 92.7166L368.814 104.385Z" fill="#DD9790"/>
<path d="M375.779 94.9935L368.647 96.3377C361.366 97.7006 354.402 92.6971 353.3 85.2853L350.799 68.6133C349.566 60.3613 355.018 52.6134 363.139 51.0824C371.447 49.5329 380.875 54.7977 382.425 63.199L384.945 82.2234C385.73 88.2537 381.716 93.8733 375.779 94.9935Z" fill="#FFC9BD"/>
<path d="M360.148 79.5547L360.223 82.7099C360.242 83.3633 360.802 83.8674 361.437 83.8114L363.061 83.6807" stroke="#131314" stroke-width="0.4495" stroke-miterlimit="10" stroke-linecap="round" stroke-linejoin="round"/>
<path d="M367.506 67.55C367.506 67.55 364.09 67.662 364.333 69.473C364.333 69.473 364.538 70.7052 367.506 70.5185C370.475 70.3505 371.203 69.9584 371.278 68.7635C371.371 67.5873 369.093 67.3446 367.506 67.55Z" fill="black"/>
<path d="M354.492 71.714C354.492 71.714 357.199 70.9299 357.703 72.6101C357.703 72.6101 358.02 73.749 355.63 74.3464C353.241 74.9625 352.382 74.6638 352.008 73.7677C351.579 72.7408 353.185 71.938 354.492 71.714Z" fill="black"/>
<path d="M365.747 76.6444C365.897 77.3351 366.569 77.7459 367.241 77.5965C367.913 77.4472 368.342 76.7751 368.193 76.0843C368.044 75.3935 367.372 74.9828 366.7 75.1321C366.009 75.3002 365.579 75.9723 365.747 76.6444Z" fill="black"/>
<path d="M354.64 78.285C354.789 78.9758 355.461 79.3865 356.134 79.2372C356.806 79.0878 357.235 78.4157 357.086 77.7249C356.936 77.0341 356.264 76.6234 355.592 76.7728C354.901 76.9221 354.491 77.6129 354.64 78.285Z" fill="black"/>
<path d="M358.094 88.4951L358.486 86.2734C358.897 85.6013 359.662 85.1532 360.521 85.0785L366.532 84.5744C367.335 84.4997 368.101 84.7798 368.623 85.3025L370.285 87.4682L358.094 88.4951Z" fill="black"/>
<path d="M379.476 75.0517C379.476 75.0517 373.278 74.3983 376.246 63.0284C376.246 63.0284 361.609 66.0716 357.969 55.6166L364.652 48.5781L379.588 51.2479L384.554 60.7507L383.864 69.1334L379.476 75.0517Z" fill="black"/>
<path d="M391.796 72.739C392.431 76.1742 390.172 79.4974 386.774 80.1322C383.376 80.7669 380.09 78.4892 379.474 75.054C378.839 71.6188 381.098 68.2956 384.496 67.6608C387.894 67.0261 391.18 69.3038 391.796 72.739Z" fill="#FFC9BD"/>
<path d="M383.826 76.1583C383.826 76.1583 383.005 71.6402 387.411 71.5469" stroke="#131314" stroke-width="0.4495" stroke-miterlimit="10" stroke-linecap="round" stroke-linejoin="round"/>
<path d="M357.967 55.6036C357.967 55.6036 353.393 56.4437 351.414 61.3725L353.356 47.8743L362.317 44.8125L369.094 47.0342L367.937 55.6969L357.967 55.6036Z" fill="black"/>
<path d="M366.329 109.128L375.906 106.29L388.321 105.375L392.279 105.842C392.279 105.842 391.719 115.513 374.711 117.249C359.869 118.761 366.329 109.128 366.329 109.128Z" fill="#FFC9BD"/>
<path d="M560.831 349.07H115" stroke="#213033" stroke-width="1.0124" stroke-miterlimit="10"/>
<path d="M217.458 188.452L192.18 349.011H199.76L235.661 185.391L217.458 188.452Z" fill="#435D60"/>
<path d="M450.026 188.452L475.305 349.011H467.725L431.805 185.391L450.026 188.452Z" fill="#435D60"/>
<path d="M499.615 181.695H165.391V195.642H499.615V181.695Z" fill="#213033"/>
<path d="M239.31 156.904C239.31 156.904 243.062 180.147 225.718 181.006C208.355 181.865 212.463 156.68 212.463 156.68L239.31 156.904Z" fill="#FEFEFF"/>
<path d="M210.575 175.871C206.057 176.002 202.267 172.399 202.136 167.825C202.006 163.25 205.572 159.423 210.09 159.293C214.608 159.162 218.398 162.765 218.528 167.339C218.678 171.895 215.112 175.722 210.575 175.871ZM210.164 161.925C207.084 162.018 204.657 164.632 204.75 167.731C204.843 170.849 207.42 173.295 210.5 173.201C213.581 173.108 216.008 170.494 215.914 167.395C215.821 164.296 213.245 161.832 210.164 161.925Z" fill="#FEFEFF"/>
<path d="M229 140.436C229 140.436 237.196 128.338 227.114 121.02C214.848 112.133 232.193 95.125 232.193 95.125" stroke="#FEFEFF" stroke-width="0.7927" stroke-miterlimit="10"/>
<path d="M214.066 106.102C214.066 106.102 203.947 122.419 215.915 129.607C226.762 136.122 218.79 145.495 218.79 145.495" stroke="#FEFEFF" stroke-width="0.7927" stroke-miterlimit="10"/>
<path d="M217.57 108.442C217.57 108.442 217.11 108.462 216.2 108.472C215.28 108.482 213.94 108.492 212.19 108.502C208.66 108.512 203.47 108.532 196.8 108.552C183.45 108.572 164.18 108.602 140.5 108.642H140.3V108.442C140.29 84.9722 140.27 56.6522 140.25 25.5022V25.2522H140.5C159.35 25.2522 179.68 25.2422 200.69 25.2422C229.7 25.2522 257.4 25.2522 282.56 25.2622H282.8V25.5022C282.77 57.8722 282.75 86.2122 282.73 108.442V108.612H282.56C265.19 108.582 251.34 108.552 241.82 108.532C237.07 108.512 233.41 108.502 230.92 108.482C229.69 108.472 228.75 108.462 228.1 108.462C227.47 108.452 227.14 108.442 227.14 108.442C227.14 108.442 227.46 108.422 228.1 108.422C228.74 108.412 229.68 108.412 230.92 108.402C233.41 108.392 237.08 108.372 241.82 108.352C251.34 108.332 265.19 108.312 282.56 108.272L282.39 108.442C282.37 86.2122 282.35 57.8722 282.32 25.5022L282.56 25.7422C257.4 25.7522 229.7 25.7522 200.69 25.7622C179.67 25.7622 159.34 25.7522 140.5 25.7522L140.75 25.5022C140.73 56.6622 140.71 84.9722 140.7 108.442L140.5 108.242C164.19 108.282 183.45 108.312 196.8 108.332C203.46 108.352 208.65 108.372 212.19 108.382C213.94 108.392 215.29 108.402 216.2 108.412C217.11 108.422 217.57 108.442 217.57 108.442Z" fill="black"/>
<path d="M197.16 117.44H252.57V34.5H110.5V117.44H187.57" fill="#AFB4C3"/>
<path d="M253.07 117.94H197.16V116.94H252.07V35H111V116.94H187.57V117.94H110V34H253.07V117.94Z" fill="black"/>
<path d="M252.57 34.5H110.5V40.63H252.57V34.5Z" fill="#F5F5F5"/>
<path d="M253.07 41.13H110V34H253.07V41.13ZM111 40.13H252.07V35H111V40.13Z" fill="black"/>
<path d="M114.819 37.6672C114.819 38.1072 114.459 38.4672 114.019 38.4672C113.579 38.4672 113.219 38.1072 113.219 37.6672C113.219 37.2272 113.579 36.8672 114.019 36.8672C114.459 36.8672 114.819 37.2272 114.819 37.6672Z" fill="#263238"/>
<path d="M114.027 38.9672C113.317 38.9672 112.727 38.3872 112.727 37.6672C112.727 36.9572 113.307 36.3672 114.027 36.3672C114.737 36.3672 115.327 36.9472 115.327 37.6672C115.317 38.3872 114.737 38.9672 114.027 38.9672ZM114.027 37.3772C113.867 37.3772 113.727 37.5072 113.727 37.6772C113.727 37.8372 113.857 37.9772 114.027 37.9772C114.187 37.9772 114.327 37.8472 114.327 37.6772C114.317 37.5072 114.187 37.3772 114.027 37.3772Z" fill="black"/>
<path d="M117.788 37.6672C117.788 38.1072 117.427 38.4672 116.987 38.4672C116.547 38.4672 116.188 38.1072 116.188 37.6672C116.188 37.2272 116.547 36.8672 116.987 36.8672C117.427 36.8672 117.788 37.2272 117.788 37.6672Z" fill="#263238"/>
<path d="M116.987 38.9672C116.277 38.9672 115.688 38.3872 115.688 37.6672C115.688 36.9572 116.267 36.3672 116.987 36.3672C117.697 36.3672 118.288 36.9472 118.288 37.6672C118.288 38.3872 117.697 38.9672 116.987 38.9672ZM116.987 37.3772C116.827 37.3772 116.688 37.5072 116.688 37.6772C116.688 37.8372 116.817 37.9772 116.987 37.9772C117.147 37.9772 117.288 37.8472 117.288 37.6772C117.288 37.5072 117.147 37.3772 116.987 37.3772Z" fill="black"/>
<path d="M120.748 37.6672C120.748 38.1072 120.388 38.4672 119.948 38.4672C119.508 38.4672 119.148 38.1072 119.148 37.6672C119.148 37.2272 119.508 36.8672 119.948 36.8672C120.388 36.8672 120.748 37.2272 120.748 37.6672Z" fill="#263238"/>
<path d="M119.948 38.9672C119.238 38.9672 118.648 38.3872 118.648 37.6672C118.648 36.9572 119.228 36.3672 119.948 36.3672C120.658 36.3672 121.248 36.9472 121.248 37.6672C121.248 38.3872 120.668 38.9672 119.948 38.9672ZM119.948 37.3772C119.788 37.3772 119.648 37.5072 119.648 37.6772C119.648 37.8372 119.778 37.9772 119.948 37.9772C120.108 37.9772 120.248 37.8472 120.248 37.6772C120.248 37.5072 120.118 37.3772 119.948 37.3772Z" fill="black"/>
<path d="M181.731 47.6987C181.731 47.7487 178.931 47.7787 175.471 47.7787C172.011 47.7787 169.211 47.7387 169.211 47.6987C169.211 47.6487 172.011 47.6187 175.471 47.6187C178.931 47.6087 181.731 47.6487 181.731 47.6987Z" fill="#263238"/>
<path d="M175.473 48.2772C171.743 48.2772 170.073 48.2772 169.323 48.1772C169.313 48.1772 169.313 48.1772 169.303 48.1772C168.703 48.0972 168.703 47.9572 168.703 47.6972C168.703 47.4372 168.703 47.2972 169.303 47.2172C169.303 47.2172 169.313 47.2172 169.323 47.2172C170.073 47.1172 171.743 47.1172 175.473 47.1172C179.193 47.1172 180.873 47.1172 181.623 47.2172C181.633 47.2172 181.633 47.2172 181.643 47.2172C182.243 47.2972 182.243 47.4372 182.243 47.6972C182.243 47.9572 182.243 48.0972 181.643 48.1772C181.643 48.1772 181.633 48.1772 181.623 48.1772C180.873 48.2772 179.203 48.2772 175.473 48.2772Z" fill="black"/>
<path d="M198.387 47.6987C198.387 47.7487 195.587 47.7787 192.127 47.7787C188.667 47.7787 185.867 47.7387 185.867 47.6987C185.867 47.6487 188.667 47.6187 192.127 47.6187C195.587 47.6087 198.387 47.6487 198.387 47.6987Z" fill="#263238"/>
<path d="M192.129 48.2772C188.399 48.2772 186.729 48.2772 185.979 48.1772C185.969 48.1772 185.969 48.1772 185.959 48.1772C185.359 48.0972 185.359 47.9572 185.359 47.6972C185.359 47.4372 185.359 47.2972 185.959 47.2172C185.959 47.2172 185.969 47.2172 185.979 47.2172C186.729 47.1172 188.399 47.1172 192.129 47.1172C195.849 47.1172 197.529 47.1172 198.279 47.2172C198.289 47.2172 198.289 47.2172 198.299 47.2172C198.899 47.2972 198.899 47.4372 198.899 47.6972C198.899 47.9572 198.899 48.0972 198.299 48.1772C198.299 48.1772 198.289 48.1772 198.279 48.1772C197.529 48.2772 195.849 48.2772 192.129 48.2772Z" fill="black"/>
<path d="M215.051 47.6987C215.051 47.7487 212.251 47.7787 208.791 47.7787C205.331 47.7787 202.531 47.7387 202.531 47.6987C202.531 47.6487 205.331 47.6187 208.791 47.6187C212.251 47.6087 215.051 47.6487 215.051 47.6987Z" fill="#263238"/>
<path d="M208.793 48.2772C205.063 48.2772 203.393 48.2772 202.643 48.1772C202.633 48.1772 202.633 48.1772 202.623 48.1772C202.023 48.0972 202.023 47.9572 202.023 47.6972C202.023 47.4372 202.023 47.2972 202.623 47.2172C202.623 47.2172 202.633 47.2172 202.643 47.2172C203.393 47.1172 205.063 47.1172 208.793 47.1172C212.513 47.1172 214.193 47.1172 214.943 47.2172C214.953 47.2172 214.953 47.2172 214.963 47.2172C215.563 47.2972 215.563 47.4372 215.563 47.6972C215.563 47.9572 215.563 48.0972 214.963 48.1772C214.963 48.1772 214.953 48.1772 214.943 48.1772C214.193 48.2772 212.513 48.2772 208.793 48.2772Z" fill="black"/>
<path d="M231.864 47.6987C231.864 47.7487 229.064 47.7787 225.604 47.7787C222.144 47.7787 219.344 47.7387 219.344 47.6987C219.344 47.6487 222.144 47.6187 225.604 47.6187C229.054 47.6087 231.864 47.6487 231.864 47.6987Z" fill="#263238"/>
<path d="M225.606 48.2772C221.876 48.2772 220.206 48.2772 219.456 48.1772C219.446 48.1772 219.446 48.1772 219.436 48.1772C218.836 48.0972 218.836 47.9572 218.836 47.6972C218.836 47.4372 218.836 47.2972 219.436 47.2172C219.436 47.2172 219.446 47.2172 219.456 47.2172C220.206 47.1172 221.876 47.1172 225.606 47.1172C229.326 47.1172 231.006 47.1172 231.756 47.2172C231.766 47.2172 231.766 47.2172 231.776 47.2172C232.376 47.2972 232.376 47.4372 232.376 47.6972C232.376 47.9572 232.376 48.0972 231.776 48.1772C231.776 48.1772 231.766 48.1772 231.756 48.1772C231.006 48.2772 229.326 48.2772 225.606 48.2772Z" fill="black"/>
<path d="M240.036 91.2206C240.036 91.2706 226.436 91.3006 209.656 91.3006C192.876 91.3006 179.266 91.2606 179.266 91.2206C179.266 91.1806 192.866 91.1406 209.656 91.1406C226.426 91.1406 240.036 91.1706 240.036 91.2206Z" fill="#263238"/>
<path d="M209.648 91.8006C201.258 91.8006 193.658 91.7906 188.158 91.7806C185.408 91.7706 183.188 91.7606 181.648 91.7506C180.558 91.7406 179.878 91.7406 179.458 91.7106C179.388 91.7106 179.338 91.7106 179.318 91.7206V91.7006C178.758 91.6406 178.758 91.5206 178.758 91.2206C178.758 90.9206 178.758 90.8006 179.318 90.7406V90.7206C179.338 90.7206 179.388 90.7206 179.458 90.7306C179.878 90.7006 180.558 90.6906 181.648 90.6906C183.188 90.6806 185.408 90.6706 188.158 90.6606C193.658 90.6406 201.258 90.6406 209.648 90.6406C218.038 90.6406 225.638 90.6506 231.128 90.6606C233.878 90.6706 236.108 90.6806 237.638 90.6906C238.728 90.7006 239.408 90.7006 239.828 90.7306C239.898 90.7306 239.938 90.7306 239.968 90.7206V90.7406C240.528 90.8006 240.528 90.9206 240.528 91.2206C240.528 91.5206 240.528 91.6406 239.968 91.7006V91.7206C239.948 91.7206 239.898 91.7206 239.828 91.7106C239.408 91.7406 238.728 91.7406 237.638 91.7506C236.098 91.7606 233.878 91.7706 231.128 91.7806C225.638 91.7906 218.038 91.8006 209.648 91.8006Z" fill="black"/>
<path d="M239.707 100.472C239.707 100.522 226.107 100.552 209.327 100.552C192.547 100.552 178.938 100.512 178.938 100.472C178.938 100.422 192.537 100.392 209.327 100.392C226.097 100.382 239.707 100.422 239.707 100.472Z" fill="#E0E0E0"/>
<path d="M209.327 101.051C200.937 101.051 193.337 101.041 187.837 101.031C185.087 101.021 182.857 101.011 181.327 101.001C180.237 100.991 179.557 100.991 179.137 100.961C179.067 100.961 179.027 100.961 178.997 100.971V100.951C178.437 100.891 178.438 100.771 178.438 100.471C178.438 100.171 178.437 100.051 178.997 99.9906V99.9706C179.017 99.9706 179.067 99.9706 179.137 99.9806C179.557 99.9506 180.237 99.9406 181.327 99.9406C182.867 99.9306 185.087 99.9206 187.837 99.9106C193.337 99.8906 200.937 99.8906 209.327 99.8906C217.717 99.8906 225.317 99.9006 230.807 99.9106C233.557 99.9206 235.788 99.9306 237.318 99.9406C238.408 99.9506 239.088 99.9506 239.508 99.9806C239.578 99.9806 239.617 99.9806 239.647 99.9706V99.9906C240.207 100.051 240.207 100.171 240.207 100.471C240.207 100.771 240.207 100.891 239.647 100.951V100.971C239.627 100.971 239.578 100.971 239.508 100.961C239.088 100.991 238.408 101.001 237.318 101.001C235.778 101.011 233.557 101.021 230.807 101.031C225.307 101.041 217.717 101.051 209.327 101.051Z" fill="black"/>
<path d="M239.707 102.908C239.707 102.958 226.107 102.988 209.327 102.988C192.547 102.988 178.938 102.948 178.938 102.908C178.938 102.868 192.537 102.828 209.327 102.828C226.097 102.828 239.707 102.858 239.707 102.908Z" fill="#E0E0E0"/>
<path d="M209.327 103.488C200.937 103.488 193.337 103.478 187.837 103.468C185.087 103.458 182.857 103.448 181.327 103.438C180.237 103.428 179.557 103.428 179.137 103.398C179.067 103.398 179.027 103.398 178.997 103.408V103.388C178.437 103.328 178.438 103.208 178.438 102.908C178.438 102.608 178.437 102.488 178.997 102.428V102.408C179.017 102.408 179.067 102.408 179.137 102.418C179.557 102.388 180.237 102.378 181.327 102.378C182.867 102.368 185.087 102.358 187.837 102.348C193.337 102.328 200.937 102.328 209.327 102.328C217.717 102.328 225.317 102.338 230.807 102.348C233.557 102.358 235.788 102.368 237.318 102.378C238.408 102.388 239.088 102.388 239.508 102.418C239.578 102.418 239.617 102.418 239.647 102.408V102.428C240.207 102.488 240.207 102.608 240.207 102.908C240.207 103.208 240.207 103.328 239.647 103.388V103.408C239.627 103.408 239.578 103.408 239.508 103.398C239.088 103.428 238.408 103.438 237.318 103.438C235.778 103.448 233.557 103.458 230.807 103.468C225.307 103.478 217.717 103.488 209.327 103.488Z" fill="black"/>
<path d="M210.046 94.4237C210.046 94.4737 203.156 94.5037 194.656 94.5037C186.156 94.5037 179.266 94.4637 179.266 94.4237C179.266 94.3737 186.156 94.3438 194.656 94.3438C203.156 94.3438 210.046 94.3737 210.046 94.4237Z" fill="#263238"/>
<path d="M194.653 95.0072C190.403 95.0072 186.553 94.9972 183.773 94.9872C181.463 94.9772 180.223 94.9672 179.553 94.9172C179.443 94.9172 179.373 94.9272 179.343 94.9272V94.8972C178.773 94.8272 178.773 94.6972 178.773 94.4372C178.773 94.1772 178.773 94.0472 179.343 93.9772V93.9472C179.373 93.9472 179.443 93.9572 179.553 93.9572C180.223 93.8972 181.463 93.8972 183.773 93.8872C186.563 93.8672 190.403 93.8672 194.653 93.8672C198.903 93.8672 202.753 93.8772 205.533 93.8872C207.843 93.8972 209.083 93.9072 209.753 93.9572C209.863 93.9572 209.933 93.9472 209.963 93.9472V93.9772C210.533 94.0472 210.533 94.1772 210.533 94.4372C210.533 94.6972 210.533 94.8272 209.963 94.8972V94.9272C209.933 94.9272 209.863 94.9172 209.753 94.9172C209.083 94.9772 207.843 94.9772 205.533 94.9872C202.753 94.9972 198.903 95.0072 194.653 95.0072Z" fill="black"/>
<path d="M246.458 49.6928C246.458 49.6828 246.568 49.6828 246.758 49.6428C246.948 49.5928 247.228 49.4828 247.478 49.2028C247.598 49.0628 247.708 48.8828 247.768 48.6628C247.828 48.4428 247.808 48.2028 247.808 47.9228C247.778 47.4028 247.928 46.7128 247.458 46.2128C247.238 45.9728 246.918 45.8028 246.568 45.7728C246.208 45.7628 245.818 45.7728 245.418 45.7728C244.618 45.7728 243.768 45.7728 242.868 45.7828C241.068 45.7828 239.098 45.7828 237.028 45.7928C236.538 45.7928 236.068 46.0828 235.858 46.5128C235.748 46.7228 235.708 46.9528 235.718 47.2028C235.718 47.4528 235.718 47.6928 235.718 47.9428C235.718 48.1928 235.698 48.4328 235.768 48.6428C235.828 48.8628 235.948 49.0628 236.098 49.2228C236.258 49.3828 236.448 49.5028 236.658 49.5628C236.868 49.6328 237.078 49.6228 237.308 49.6228C239.098 49.6328 240.718 49.6328 242.078 49.6428C243.428 49.6528 244.518 49.6628 245.298 49.6728C245.668 49.6828 245.958 49.6828 246.168 49.6928C246.258 49.6928 246.338 49.7028 246.398 49.7028C246.428 49.6828 246.458 49.6828 246.458 49.6928C246.458 49.6928 246.428 49.7028 246.378 49.7028C246.318 49.7028 246.238 49.7028 246.148 49.7128C245.938 49.7128 245.638 49.7228 245.278 49.7328C244.508 49.7428 243.408 49.7528 242.058 49.7628C240.698 49.7728 239.078 49.7728 237.288 49.7828C237.068 49.7828 236.828 49.7928 236.588 49.7228C236.358 49.6528 236.138 49.5228 235.968 49.3428C235.798 49.1628 235.658 48.9428 235.598 48.6928C235.558 48.5728 235.548 48.4428 235.548 48.3128C235.548 48.1928 235.548 48.0728 235.548 47.9428C235.548 47.7028 235.548 47.4528 235.548 47.2028C235.538 46.9528 235.588 46.6728 235.708 46.4428C235.948 45.9628 236.468 45.6328 237.028 45.6328C239.098 45.6328 241.068 45.6328 242.868 45.6428C243.768 45.6428 244.618 45.6528 245.418 45.6528C245.818 45.6528 246.198 45.6528 246.578 45.6628C246.968 45.6928 247.318 45.8828 247.548 46.1528C247.778 46.4228 247.908 46.7528 247.908 47.0728C247.908 47.3828 247.908 47.6628 247.908 47.9428C247.908 48.2128 247.918 48.4728 247.848 48.7028C247.788 48.9328 247.668 49.1228 247.538 49.2628C247.268 49.5528 246.968 49.6528 246.778 49.6928C246.558 49.7128 246.458 49.6928 246.458 49.6928Z" fill="#263238"/>
<path d="M237.17 50.2628C236.92 50.2628 236.69 50.2528 236.44 50.1728C236.13 50.0728 235.84 49.9028 235.61 49.6728C235.36 49.4228 235.19 49.1128 235.11 48.8028C235.06 48.6428 235.05 48.4628 235.04 48.3228V47.2028C235.03 46.8528 235.11 46.4928 235.26 46.2028C235.58 45.5628 236.28 45.1328 237.01 45.1328H237.02L245.83 45.1528C246.08 45.1528 246.33 45.1528 246.58 45.1628C247.1 45.2028 247.58 45.4428 247.91 45.8228C248.21 46.1628 248.39 46.6128 248.39 47.0628L248.38 48.0828C248.38 48.3128 248.38 48.5828 248.3 48.8428C248.23 49.1028 248.08 49.3628 247.88 49.5928C247.57 49.9328 247.21 50.0928 246.94 50.1528V50.1728L246.79 50.1828C246.64 50.2028 246.53 50.2028 246.46 50.2028L244.45 50.2428L237.27 50.2828C237.25 50.2628 237.21 50.2628 237.17 50.2628ZM237.22 49.1128L246.46 49.1828C246.5 49.1828 246.56 49.1728 246.65 49.1528C246.83 49.1128 246.98 49.0128 247.11 48.8728C247.2 48.7728 247.26 48.6528 247.29 48.5428C247.33 48.4228 247.32 48.2528 247.32 48.0828V47.9328C247.31 47.8328 247.32 47.6828 247.32 47.5328C247.33 47.0728 247.32 46.7828 247.11 46.5628C246.96 46.3928 246.75 46.2928 246.54 46.2728C246.34 46.2728 246.1 46.2728 245.86 46.2728L237.03 46.2928C237.03 46.2928 237.03 46.2928 237.02 46.2928C236.73 46.2928 236.43 46.4728 236.3 46.7328C236.23 46.8628 236.2 47.0128 236.21 47.1828V48.1028C236.21 48.2528 236.21 48.4028 236.24 48.4928C236.28 48.6328 236.35 48.7628 236.45 48.8628C236.54 48.9528 236.66 49.0328 236.79 49.0728C236.9 49.1128 237.05 49.1128 237.22 49.1128Z" fill="black"/>
<path d="M164.978 63.9219H124.398V103.182H164.978V63.9219Z" fill="#F9CE80"/>
<path d="M165.478 103.682H123.898V63.4219H165.478V103.682ZM124.898 102.682H164.478V64.4219H124.898V102.682Z" fill="black"/>
<g opacity="0.3">
<g opacity="0.3">
<g opacity="0.3">
<g opacity="0.3">
<g opacity="0.3">
<g opacity="0.3">
<path opacity="0.3" d="M127.547 99.8172L138.777 79.6172L147.957 92.5272L153.537 85.6772L161.837 99.8172H127.547Z" fill="black"/>
<path opacity="0.3" d="M162.705 100.32H126.695L138.715 78.6797L147.975 91.6997L153.595 84.7897L162.705 100.32ZM128.395 99.3197H160.965L153.475 86.5497L147.935 93.3597L138.835 80.5597L128.395 99.3197Z" fill="black"/>
</g>
</g>
</g>
</g>
</g>
</g>
<g opacity="0.3">
<g opacity="0.3">
<g opacity="0.3">
<g opacity="0.3">
<g opacity="0.3">
<g opacity="0.3">
<path opacity="0.3" d="M151.871 75.6934C151.871 77.3034 150.561 78.6134 148.951 78.6134C147.341 78.6134 146.031 77.3034 146.031 75.6934C146.031 74.0834 147.341 72.7734 148.951 72.7734C150.561 72.7734 151.871 74.0834 151.871 75.6934Z" fill="black"/>
<path opacity="0.3" d="M148.951 79.1134C147.061 79.1134 145.531 77.5834 145.531 75.6934C145.531 73.8034 147.061 72.2734 148.951 72.2734C150.841 72.2734 152.371 73.8034 152.371 75.6934C152.371 77.5834 150.841 79.1134 148.951 79.1134ZM148.951 73.2734C147.621 73.2734 146.531 74.3634 146.531 75.6934C146.531 77.0234 147.621 78.1134 148.951 78.1134C150.281 78.1134 151.371 77.0234 151.371 75.6934C151.371 74.3634 150.281 73.2734 148.951 73.2734Z" fill="black"/>
</g>
</g>
</g>
</g>
</g>
</g>
<g opacity="0.3">
<g opacity="0.3">
<path opacity="0.3" d="M161.844 67.0171C151.914 67.0071 140.144 66.9971 127.554 66.9871C127.594 66.9471 127.184 67.3571 127.354 67.1871V67.1971V67.2171V67.2571V67.3271V67.4671V67.7471V68.3071V69.4271C127.354 70.1671 127.354 70.9071 127.354 71.6471C127.354 73.1171 127.354 74.5771 127.354 76.0171C127.354 78.9071 127.354 81.7271 127.354 84.4771C127.364 89.9771 127.364 95.1771 127.374 99.9571V100.127H127.544C137.824 100.087 146.404 100.067 152.444 100.037C155.424 100.017 157.774 100.007 159.394 99.9971C160.174 99.9871 160.784 99.9771 161.214 99.9771C161.404 99.9771 161.554 99.9671 161.674 99.9671C161.774 99.9671 161.824 99.9571 161.824 99.9571C161.824 99.9571 161.764 99.9471 161.654 99.9471C161.534 99.9471 161.374 99.9371 161.174 99.9371C160.734 99.9371 160.114 99.9271 159.314 99.9171C157.684 99.9071 155.314 99.8871 152.324 99.8771C146.344 99.8571 137.864 99.8271 127.704 99.7871C127.714 95.0471 127.714 89.9071 127.724 84.4771C127.724 81.7271 127.724 78.8971 127.724 76.0171C127.724 74.5771 127.724 73.1171 127.724 71.6471C127.724 70.9071 127.724 70.1771 127.724 69.4271V68.3071V67.7471V67.4671V67.3871C140.164 67.3771 151.804 67.3671 161.654 67.3571C161.684 77.0871 161.714 85.1971 161.734 90.8971C161.754 93.7571 161.764 96.0071 161.774 97.5671C161.784 98.3271 161.784 98.9171 161.794 99.3371C161.794 99.5271 161.804 99.6771 161.804 99.7971C161.804 99.8971 161.814 99.9571 161.814 99.9571C161.814 99.9571 161.824 99.9071 161.824 99.8171C161.824 99.7071 161.834 99.5571 161.834 99.3771C161.834 98.9671 161.844 98.3871 161.854 97.6371C161.864 96.0871 161.874 93.8471 161.894 91.0071C161.914 85.2471 161.944 77.0471 161.974 67.1971V67.0271L161.844 67.0171Z" fill="black"/>
<path opacity="0.3" d="M126.881 100.605L126.851 67.4747H126.461L126.641 67.2647L126.611 67.2347L126.951 66.8747C127.041 66.7847 127.141 66.6747 127.241 66.5947L127.811 66.0547L127.821 66.4847L162.491 66.5147L162.471 73.0947L162.341 99.7647L162.411 99.8447L162.301 100.125C162.261 100.235 162.191 100.305 162.121 100.355C162.091 100.375 162.061 100.395 162.021 100.405L161.691 100.535L161.621 100.445L157.941 100.485L152.451 100.515L126.881 100.605ZM128.221 99.2747L161.321 99.4247L161.301 97.5647L161.261 90.8947L161.181 67.8547L128.251 67.8847L128.221 99.2747Z" fill="black"/>
</g>
</g>
<path d="M121.848 50.4C123.34 50.4 124.548 49.1912 124.548 47.7C124.548 46.2088 123.34 45 121.848 45C120.357 45 119.148 46.2088 119.148 47.7C119.148 49.1912 120.357 50.4 121.848 50.4Z" fill="#455A64"/>
<path d="M121.848 50.9C120.078 50.9 118.648 49.46 118.648 47.7C118.648 45.93 120.088 44.5 121.848 44.5C123.618 44.5 125.058 45.94 125.058 47.7C125.048 49.46 123.608 50.9 121.848 50.9ZM121.848 45.49C120.628 45.49 119.648 46.48 119.648 47.69C119.648 48.91 120.638 49.89 121.848 49.89C123.058 49.89 124.058 48.9 124.058 47.69C124.048 46.48 123.058 45.49 121.848 45.49Z" fill="black"/>
<path d="M211.04 76.3387C211.04 76.4787 204.2 76.5987 195.77 76.5987C187.34 76.5987 180.5 76.4787 180.5 76.3387C180.5 76.1987 187.33 76.0787 195.77 76.0787C204.21 76.0687 211.04 76.1887 211.04 76.3387Z" fill="black"/>
</svg>
