<svg width="690" height="350" viewBox="0 0 690 350" fill="none" xmlns="http://www.w3.org/2000/svg">
<g clip-path="url(#clip0_2415_218)">
<path d="M327.898 198.54L332.781 202.087L367.298 172.501L451.37 125.365L446.831 122.023L389.166 140.016L327.898 198.54Z" fill="#454041"/>
<path d="M339.83 124.747L326.135 193.803C325.542 196.765 327.773 199.521 330.736 199.521H429.267C431.482 199.521 433.401 197.953 433.869 195.751L448.421 126.695C449.045 123.717 446.815 120.93 443.82 120.93H344.431C342.201 120.914 340.267 122.529 339.83 124.747Z" fill="#454041"/>
<path d="M344.275 128.013L330.58 197.069C329.988 200.03 332.218 202.786 335.182 202.786H433.713C435.927 202.786 437.846 201.218 438.314 199.017L452.867 129.961C453.491 126.983 451.26 124.195 448.265 124.195H348.876C346.646 124.18 344.712 125.779 344.275 128.013Z" fill="#716E6E"/>
<path d="M380.137 184.523L378.297 202.785H386.299L380.137 184.523Z" fill="#454041"/>
<path d="M380.133 184.141L388.29 225.02H418.035L404.091 184.141H380.133Z" fill="#F6DAE0"/>
<path d="M395.762 159.384C399.406 159.384 402.36 156.384 402.36 152.684C402.36 148.984 399.406 145.984 395.762 145.984C392.118 145.984 389.164 148.984 389.164 152.684C389.164 156.384 392.118 159.384 395.762 159.384Z" fill="white"/>
<path d="M435.632 221.219H365.52C364.444 221.219 363.57 222.106 363.57 223.199C363.57 224.291 364.444 225.178 365.52 225.178H435.632C436.708 225.178 437.582 224.291 437.582 223.199C437.582 222.106 436.708 221.219 435.632 221.219Z" fill="#716E6E"/>
<path d="M348.221 221.219H311.083C310.006 221.219 309.133 222.106 309.133 223.199C309.133 224.291 310.006 225.178 311.083 225.178H348.221C349.297 225.178 350.171 224.291 350.171 223.199C350.171 222.106 349.297 221.219 348.221 221.219Z" fill="#716E6E"/>
<path d="M302.336 231.469V348.056" stroke="#55382E" stroke-width="1.1607" stroke-miterlimit="10"/>
<path d="M229.555 231.469V348.056" stroke="#55382E" stroke-width="1.1607" stroke-miterlimit="10"/>
<path d="M478.961 231.469V348.056" stroke="#55382E" stroke-width="1.1607" stroke-miterlimit="10"/>
<path d="M406.188 231.469V348.056" stroke="#55382E" stroke-width="1.1607" stroke-miterlimit="10"/>
<path d="M281.481 225.023H212.633V234.4H281.481V225.023Z" fill="#716E6E"/>
<path d="M497.669 225.023H281.359V234.4H497.669V225.023Z" fill="#40484C"/>
<path d="M532.73 348.055H149.82" stroke="#55382E" stroke-width="1.1607" stroke-miterlimit="10"/>
<path d="M408.29 75.611C408.001 75.6342 407.723 75.7362 407.488 75.9059C407.252 76.0756 407.068 76.3065 406.954 76.5736L404.074 83.6702C403.984 83.8905 403.946 84.1288 403.964 84.3662C403.981 84.6036 404.054 84.8336 404.176 85.0381C404.298 85.2426 404.466 85.4159 404.666 85.5444C404.867 85.6729 405.094 85.753 405.331 85.7784C405.978 85.8617 406.602 86.077 407.163 86.4109C407.724 86.7448 408.211 87.1902 408.593 87.7197C408.954 88.1822 409.217 88.7135 409.366 89.2812C409.515 89.8488 409.547 90.4409 409.46 91.0213C409.333 91.5986 409.091 92.1445 408.75 92.6268C408.408 93.1092 407.973 93.5182 407.471 93.8297C406.388 94.5422 405.067 94.7994 403.795 94.5457C402.545 94.1768 401.457 93.3942 400.71 92.326C399.962 91.2578 399.6 89.9674 399.682 88.6664C399.685 88.2754 399.539 87.898 399.274 87.6104C399.009 87.3229 398.644 87.1467 398.255 87.1174C397.865 87.0881 397.478 87.2079 397.173 87.4526C396.868 87.6973 396.667 88.0487 396.611 88.4357C396.483 90.4686 397.058 92.4837 398.241 94.1426C399.423 95.8014 401.14 97.0028 403.103 97.545C404.147 97.7683 405.226 97.7791 406.274 97.5768C407.322 97.3745 408.319 96.9632 409.205 96.3676C410.053 95.8257 410.784 95.119 411.354 94.2895C411.924 93.4599 412.321 92.5244 412.523 91.5384C412.686 90.5433 412.644 89.5252 412.399 88.547C412.154 87.5687 411.712 86.6509 411.099 85.8501C410.214 84.6512 409.013 83.7228 407.63 83.169L409.85 77.6954C410.002 77.3166 409.998 76.8929 409.838 76.5172C409.679 76.1415 409.377 75.8442 408.998 75.6905C408.771 75.6124 408.529 75.5852 408.29 75.611Z" fill="#E0E0E0"/>
<path d="M411.466 73.4262C411.564 73.1983 411.593 72.9465 411.548 72.7025C411.503 72.4584 411.388 72.233 411.215 72.0548C411.042 71.8765 410.821 71.7532 410.579 71.7005C410.336 71.6479 410.084 71.6681 409.853 71.7587C409.622 71.8493 409.423 72.0063 409.281 72.2098C409.139 72.4133 409.06 72.6542 409.055 72.9022C409.05 73.1503 409.118 73.3943 409.251 73.6037C409.384 73.813 409.576 73.9782 409.803 74.0786C410.11 74.212 410.458 74.2183 410.77 74.096C411.081 73.9737 411.332 73.7328 411.466 73.4262Z" fill="#E0E0E0"/>
<path d="M363.758 19.8211C363.872 19.5603 363.911 19.2726 363.868 18.9911C363.826 18.7096 363.705 18.4457 363.52 18.2299L358.579 12.4461C358.422 12.2695 358.228 12.1301 358.011 12.0379C357.793 11.9457 357.558 11.903 357.322 11.913C357.087 11.9328 356.86 12.0045 356.656 12.1228C356.453 12.2411 356.278 12.4032 356.145 12.5972C355.778 13.1273 355.306 13.5766 354.759 13.9173C354.211 14.2581 353.6 14.483 352.962 14.5782C352.389 14.6888 351.8 14.6801 351.231 14.5528C350.661 14.4255 350.124 14.1823 349.653 13.8383C349.196 13.4669 348.82 13.0068 348.547 12.4858C348.273 11.9648 348.108 11.3937 348.062 10.8072C347.985 10.1653 348.036 9.5146 348.214 8.89305C348.392 8.27149 348.691 7.69159 349.096 7.1873C349.991 6.25071 351.178 5.6467 352.462 5.47463C353.746 5.30256 355.05 5.57268 356.161 6.24056C356.331 6.35967 356.525 6.44257 356.729 6.48417C356.933 6.52577 357.143 6.5252 357.347 6.48247C357.551 6.43975 357.744 6.3558 357.914 6.23576C358.085 6.11572 358.228 5.96213 358.337 5.78445C358.446 5.60676 358.517 5.40872 358.546 5.20251C358.576 4.9963 358.562 4.78627 358.508 4.58533C358.453 4.38439 358.357 4.19679 358.227 4.03405C358.097 3.87132 357.936 3.73689 357.752 3.63903C356.014 2.60041 353.972 2.19163 351.968 2.48139C349.964 2.77115 348.121 3.74179 346.749 5.23018C346.075 6.0485 345.573 6.99465 345.273 8.01182C344.974 9.02898 344.883 10.0962 345.007 11.1493C345.095 12.1446 345.383 13.1119 345.853 13.9935C346.323 14.8752 346.966 15.6531 347.743 16.2807C348.548 16.8788 349.466 17.306 350.441 17.5358C351.417 17.7657 352.429 17.7934 353.416 17.6173C354.887 17.3914 356.265 16.7575 357.394 15.7875L361.205 20.2427C361.468 20.5488 361.842 20.7382 362.244 20.7695C362.647 20.8008 363.045 20.6715 363.353 20.4098C363.533 20.2492 363.673 20.0472 363.758 19.8211Z" fill="#E0E0E0"/>
<path d="M364.238 23.6209C364.449 23.8783 364.753 24.0414 365.084 24.0742C365.416 24.107 365.746 24.0069 366.004 23.7959C366.261 23.5849 366.424 23.2803 366.457 22.9491C366.49 22.6178 366.39 22.2872 366.179 22.0297C366.074 21.9023 365.946 21.7966 365.8 21.7189C365.655 21.6411 365.496 21.5927 365.332 21.5764C365.168 21.5602 365.002 21.5764 364.845 21.6241C364.687 21.6719 364.54 21.7502 364.413 21.8547C364.285 21.9592 364.179 22.0877 364.102 22.233C364.024 22.3783 363.975 22.5375 363.959 22.7015C363.943 22.8656 363.959 23.0312 364.007 23.1889C364.055 23.3466 364.133 23.4934 364.238 23.6209Z" fill="#E0E0E0"/>
<path d="M536.515 24.0312H465.844V126.47H536.515V24.0312Z" fill="#E0E0E0"/>
<path d="M532.976 24.0312H462.305V126.47H532.976V24.0312Z" fill="#F5F5F5"/>
<path d="M524.199 35.1172H471.086V115.367H524.199V35.1172Z" fill="white"/>
<path d="M524.201 115.373C524.201 115.373 524.201 115.238 524.201 114.983C524.201 114.729 524.201 114.339 524.201 113.846C524.201 112.835 524.201 111.364 524.201 109.446C524.201 105.596 524.201 99.9948 524.153 92.9142C524.153 78.7609 524.105 58.7044 524.073 35.1235L524.248 35.3065H471.136L471.327 35.1076C471.327 65.3872 471.327 93.296 471.287 115.357L471.136 115.206L509.793 115.286H520.469H523.278H524.248C524.248 115.286 523.93 115.286 523.31 115.286H520.533H509.888L471.136 115.373H470.977V115.214C470.977 93.1528 470.977 65.244 470.977 34.9644V34.7734H471.167H524.28H524.455V34.9485C524.415 58.593 524.392 78.7052 524.368 92.8505C524.368 99.9152 524.328 105.508 524.32 109.343C524.32 111.244 524.32 112.708 524.32 113.711C524.32 114.196 524.32 114.57 524.32 114.832C524.32 115.095 524.201 115.373 524.201 115.373Z" fill="#E0E0E0"/>
<path d="M533.174 24.0312C532.81 24.6776 532.39 25.29 531.917 25.8611C531.121 26.959 529.928 28.4547 528.599 30.0697C527.271 31.6847 526.03 33.1088 525.107 34.1271C524.629 34.7073 524.096 35.2402 523.516 35.7183C523.914 35.0957 524.364 34.5076 524.86 33.96L528.265 29.831L531.662 25.702C532.118 25.1035 532.624 24.5446 533.174 24.0312Z" fill="#E0E0E0"/>
<path d="M524.469 115.117C527.108 119.316 530.215 123.202 533.729 126.701L524.469 115.117Z" fill="white"/>
<path d="M533.729 126.701C533.147 126.269 532.613 125.775 532.138 125.229C530.907 123.976 529.742 122.662 528.645 121.291C527.544 119.92 526.516 118.491 525.566 117.011C525.14 116.421 524.78 115.786 524.492 115.117C524.969 115.663 525.403 116.246 525.789 116.859C526.585 117.957 527.667 119.453 528.971 121.052C530.276 122.651 531.461 124.044 532.36 125.03C532.855 125.554 533.312 126.112 533.729 126.701Z" fill="#E0E0E0"/>
<path d="M462.297 126.37L471.549 114.945L462.297 126.37Z" fill="white"/>
<path d="M471.549 114.961C470.163 116.985 468.668 118.931 467.07 120.793C465.576 122.73 463.983 124.588 462.297 126.362C463.681 124.336 465.176 122.389 466.776 120.53C468.27 118.593 469.864 116.734 471.549 114.961Z" fill="#E0E0E0"/>
<path d="M462.305 24.0312C463.897 25.7407 465.397 27.5332 466.8 29.4014C468.294 31.1828 469.694 33.0417 470.992 34.9704C469.395 33.2658 467.894 31.4729 466.497 29.6003C465 27.8213 463.6 25.9622 462.305 24.0312Z" fill="#E0E0E0"/>
<path d="M507.641 51.4141H489.859V101.909H507.641V51.4141Z" fill="#E0E0E0"/>
<path d="M264.094 28.5241L258.438 28.5547L258.59 56.6859L264.246 56.6553L264.094 28.5241Z" fill="#E0E0E0"/>
<path d="M224.092 28.6005L209.453 28.6797L209.537 44.2091L224.176 44.1299L224.092 28.6005Z" fill="#EBEBEB"/>
<path d="M238.67 28.5224L224.031 28.6016L224.115 44.131L238.754 44.0518L238.67 28.5224Z" fill="#F5F5F5"/>
<path d="M209.475 32.9686C219.208 33.0481 228.945 33.003 238.689 32.8333C238.724 32.8253 238.755 32.8056 238.778 32.7774C238.8 32.7492 238.812 32.7142 238.812 32.6782C238.812 32.6421 238.8 32.6071 238.778 32.579C238.755 32.5508 238.724 32.5311 238.689 32.523C228.951 32.4912 219.221 32.4912 209.475 32.706C209.44 32.706 209.407 32.7199 209.382 32.7445C209.358 32.7691 209.344 32.8025 209.344 32.8373C209.344 32.8721 209.358 32.9055 209.382 32.9301C209.407 32.9547 209.44 32.9686 209.475 32.9686Z" fill="#E0E0E0"/>
<path d="M226.932 43.8717L200.328 44.0156L200.397 56.6731L227 56.5291L226.932 43.8717Z" fill="#EBEBEB"/>
<path d="M253.401 43.7311L226.797 43.875L226.865 56.5324L253.469 56.3885L253.401 43.7311Z" fill="#F5F5F5"/>
<path d="M200.342 47.5357C218.012 47.7346 235.745 47.5357 253.415 47.2732C253.45 47.2652 253.482 47.2455 253.504 47.2173C253.527 47.1891 253.539 47.1541 253.539 47.1181C253.539 47.082 253.527 47.047 253.504 47.0188C253.482 46.9906 253.45 46.9709 253.415 46.9629C235.745 46.8675 218.004 46.8834 200.342 47.2732C200.307 47.2732 200.274 47.287 200.249 47.3116C200.225 47.3363 200.211 47.3697 200.211 47.4045C200.211 47.4393 200.225 47.4727 200.249 47.4973C200.274 47.5219 200.307 47.5357 200.342 47.5357Z" fill="#E0E0E0"/>
<path d="M293.45 56.6797H190.391V61.2145H293.45V56.6797Z" fill="#E0E0E0"/>
<path d="M211.45 58.8594H207.266V74.3333H211.45V58.8594Z" fill="#E0E0E0"/>
<path d="M273.903 58.8594H269.719V74.3333H273.903V58.8594Z" fill="#E0E0E0"/>
<path d="M269.602 18.0319L263.945 18.0625L264.155 56.7588L269.811 56.7282L269.602 18.0319Z" fill="#EBEBEB"/>
<path d="M278.431 25.2415L269.648 25.2891L269.818 56.6423L278.601 56.5948L278.431 25.2415Z" fill="#F5F5F5"/>
<path d="M278.377 31.2885C276.918 31.4418 275.451 31.4923 273.985 31.4397C272.52 31.4923 271.052 31.4418 269.594 31.2885C271.052 31.1352 272.52 31.0847 273.985 31.1374C275.451 31.0847 276.918 31.1352 278.377 31.2885Z" fill="#E0E0E0"/>
<path d="M278.377 29.9655C276.919 30.1241 275.451 30.1773 273.985 30.1246C272.52 30.1773 271.052 30.1241 269.594 29.9655C271.053 29.817 272.52 29.7665 273.985 29.8144C275.451 29.7665 276.918 29.817 278.377 29.9655Z" fill="#E0E0E0"/>
<path d="M278.377 51.8823C276.918 52.0356 275.451 52.0861 273.985 52.0334C272.52 52.0861 271.052 52.0356 269.594 51.8823C271.052 51.729 272.52 51.6784 273.985 51.7311C275.451 51.6784 276.918 51.729 278.377 51.8823Z" fill="#E0E0E0"/>
<path d="M278.377 50.5593C276.919 50.7179 275.451 50.771 273.985 50.7184C272.52 50.771 271.052 50.7179 269.594 50.5593C271.053 50.4107 272.52 50.3602 273.985 50.4081C275.451 50.3602 276.918 50.4107 278.377 50.5593Z" fill="#E0E0E0"/>
<path d="M274.12 47.6919C274.04 47.6919 273.969 44.5096 273.969 40.6272C273.969 36.7448 274.04 33.5625 274.12 33.5625C274.199 33.5625 274.271 36.7448 274.271 40.6272C274.271 44.5096 274.215 47.6919 274.12 47.6919Z" fill="#E0E0E0"/>
<path d="M288.032 32.9453H278.469V56.6137H288.032V32.9453Z" fill="#EBEBEB"/>
<path d="M268.315 24.6537C268.315 24.9684 268.222 25.276 268.047 25.5376C267.872 25.7993 267.624 26.0033 267.333 26.1237C267.042 26.2441 266.722 26.2756 266.414 26.2142C266.105 26.1528 265.821 26.0013 265.599 25.7788C265.376 25.5562 265.225 25.2727 265.163 24.9641C265.102 24.6554 265.134 24.3355 265.254 24.0447C265.374 23.754 265.578 23.5055 265.84 23.3307C266.102 23.1558 266.409 23.0625 266.724 23.0625C267.146 23.0625 267.551 23.2301 267.849 23.5285C268.147 23.8269 268.315 24.2317 268.315 24.6537Z" fill="#E0E0E0"/>
<path d="M267.198 29.125H266.195V52.141H267.198V29.125Z" fill="#E0E0E0"/>
<path d="M420.507 346.894C420.507 347.014 344.275 347.101 250.253 347.101C156.232 347.101 80 347.046 80 346.894C80 346.743 156.216 346.688 250.253 346.688C344.291 346.688 420.507 346.783 420.507 346.894Z" fill="#263238"/>
<path d="M148.494 350.213L141 350.181V165.703H148.494V350.213Z" fill="#E0E0E0"/>
<path d="M217.016 91.3125C217.016 91.3125 258.226 134.488 257.503 144.075C256.779 153.662 247.55 155.73 244.543 155.356C241.535 154.982 218.869 129.755 218.869 129.755L217.016 91.3125Z" fill="#407BFF"/>
<g opacity="0.4">
<path opacity="0.4" d="M217.016 91.3125C217.016 91.3125 258.226 134.488 257.503 144.075C256.779 153.662 247.55 155.73 244.543 155.356C241.535 154.982 218.869 129.755 218.869 129.755L217.016 91.3125Z" fill="black"/>
</g>
<path d="M238.977 304.621L250.154 342.005L262.709 335.187L255.572 300.961L238.977 304.621Z" fill="#FFBE9D"/>
<path d="M261.174 318.734L265.017 336.46C265.017 336.46 284.302 338.496 285.328 341.695L251.285 350.359L244.125 323.03L261.174 318.734Z" fill="#407BFF"/>
<path d="M254.113 337.649C253.811 337.832 253.587 338.12 253.484 338.458C253.381 338.795 253.407 339.159 253.556 339.479C253.726 339.788 254.009 340.019 254.345 340.124C254.682 340.229 255.046 340.2 255.362 340.044C255.682 339.85 255.918 339.544 256.025 339.185C256.133 338.826 256.103 338.441 255.942 338.103C255.73 337.799 255.408 337.59 255.045 337.519C254.681 337.448 254.305 337.52 253.993 337.721" fill="#E0E0E0"/>
<g opacity="0.4">
<path opacity="0.4" d="M251.285 350.361L250.648 347.6L283.522 340.305C283.522 340.305 285.2 340.583 285.304 341.689L251.285 350.361Z" fill="black"/>
</g>
<path d="M265.524 336.115C265.564 336.282 264.728 336.569 264.068 337.317C263.408 338.064 263.129 338.868 262.962 338.836C262.795 338.804 262.795 337.786 263.631 336.903C264.466 336.02 265.524 335.956 265.524 336.115Z" fill="#263238"/>
<path d="M269.467 336.687C269.546 336.838 268.902 337.307 268.512 338.15C268.122 338.994 268.154 339.781 267.987 339.821C267.82 339.861 267.478 338.938 267.987 337.896C268.496 336.854 269.427 336.527 269.467 336.687Z" fill="#263238"/>
<path d="M272.586 340.436C272.443 340.508 272.005 339.736 272.196 338.718C272.387 337.699 273.079 337.127 273.182 337.262C273.286 337.397 272.928 337.994 272.785 338.853C272.641 339.712 272.753 340.38 272.586 340.436Z" fill="#263238"/>
<path d="M264.171 332.178C264.171 332.353 263.312 332.314 262.389 332.616C261.466 332.918 260.798 333.412 260.686 333.284C260.575 333.157 261.116 332.393 262.214 332.051C263.312 331.709 264.25 332.027 264.171 332.178Z" fill="#263238"/>
<path d="M263.376 328.625C262.856 328.923 262.264 329.072 261.665 329.055C261.022 329.102 260.375 329.07 259.74 328.959C259.364 328.901 258.994 328.811 258.634 328.689C258.414 328.636 258.205 328.547 258.013 328.426C257.874 328.336 257.768 328.202 257.714 328.045C257.659 327.888 257.658 327.717 257.711 327.559C257.764 327.422 257.848 327.3 257.958 327.201C258.067 327.103 258.198 327.032 258.34 326.994C258.557 326.936 258.783 326.909 259.008 326.915C259.392 326.913 259.775 326.945 260.154 327.01C260.796 327.12 261.417 327.332 261.991 327.639C262.97 328.172 263.4 328.721 263.352 328.769C263.304 328.816 262.771 328.418 261.816 328.021C261.257 327.792 260.672 327.635 260.074 327.551C259.723 327.507 259.369 327.491 259.016 327.504C258.634 327.504 258.324 327.575 258.276 327.758C258.228 327.941 258.276 327.854 258.364 327.941C258.504 328.03 258.657 328.097 258.817 328.14C259.153 328.253 259.496 328.346 259.843 328.418C260.44 328.545 261.047 328.616 261.657 328.633C262.229 328.594 262.803 328.591 263.376 328.625Z" fill="#263238"/>
<path d="M263.198 328.917C263.15 328.957 262.665 328.448 262.33 327.39C262.138 326.767 262.055 326.116 262.084 325.465C262.102 325.076 262.158 324.689 262.251 324.311C262.288 324.063 262.388 323.828 262.541 323.629C262.694 323.43 262.896 323.273 263.126 323.173C263.273 323.142 263.426 323.154 263.566 323.206C263.707 323.258 263.83 323.349 263.922 323.468C264.06 323.644 264.173 323.84 264.256 324.049C264.417 324.414 264.516 324.804 264.55 325.202C264.621 325.862 264.525 326.53 264.272 327.143C263.834 328.201 263.19 328.575 263.166 328.52C263.432 328.03 263.668 327.525 263.874 327.008C264.044 326.444 264.09 325.849 264.009 325.266C263.959 324.928 263.863 324.599 263.723 324.287C263.58 323.937 263.365 323.683 263.245 323.754C263.126 323.826 262.856 324.144 262.792 324.462C262.695 324.8 262.631 325.146 262.601 325.496C262.551 326.092 262.586 326.692 262.704 327.279C262.943 328.297 263.285 328.87 263.198 328.917Z" fill="#263238"/>
<path d="M208.641 198.033C209.054 199.687 238.236 318.761 238.236 318.761L264.737 310.758L239.716 190.148L208.641 198.033Z" fill="#263238"/>
<path d="M204.734 45.877L200.104 81.4552C199.918 82.8887 200.026 84.345 200.42 85.7357C200.814 87.1265 201.486 88.4228 202.396 89.5461C203.305 90.6694 204.434 91.5962 205.712 92.2704C206.991 92.9446 208.393 93.3522 209.834 93.4684C212.567 93.6871 215.28 92.8458 217.41 91.1188C219.54 89.3918 220.923 86.9115 221.274 84.192C221.616 81.5109 221.911 79.2833 221.966 79.0048C221.966 79.0048 231.139 79.339 232.953 70.4603C233.836 66.1642 234.926 57.1821 235.825 49.0434C236.287 44.8256 235.144 40.5886 232.623 37.1757C230.102 33.7629 226.388 31.4244 222.221 30.6258L221.362 30.4587C211.998 29.2176 205.721 36.4812 204.734 45.877Z" fill="#FFBE9D"/>
<path d="M222.002 78.8815C217.874 78.1545 214.055 76.216 211.031 73.3125C211.031 73.3125 212.543 80.242 221.581 81.1489L222.002 78.8815Z" fill="#EB996E"/>
<path d="M233.276 54.0727C233.214 54.4034 233.026 54.697 232.751 54.8915C232.476 55.086 232.137 55.1661 231.804 55.1149C231.48 55.0676 231.187 54.8938 230.99 54.6314C230.794 54.369 230.709 54.0395 230.754 53.7147C230.814 53.383 231.002 53.0881 231.277 52.8933C231.553 52.6984 231.893 52.6192 232.226 52.6725C232.551 52.7197 232.843 52.8936 233.04 53.1559C233.237 53.4183 233.322 53.7479 233.276 54.0727Z" fill="#263238"/>
<path d="M233.349 52.5317C233.166 52.6669 232.339 51.7361 230.963 51.5134C229.586 51.2906 228.457 51.7441 228.345 51.5134C228.234 51.2826 228.504 51.1553 228.998 50.9246C229.671 50.6315 230.417 50.551 231.138 50.6939C231.849 50.8242 232.5 51.1815 232.991 51.7122C233.357 52.1498 233.445 52.476 233.349 52.5317Z" fill="#263238"/>
<path d="M219.526 52.1105C219.464 52.4433 219.275 52.739 218.999 52.9349C218.723 53.1309 218.381 53.2118 218.047 53.1607C217.882 53.142 217.723 53.0908 217.579 53.0099C217.435 52.9291 217.309 52.8202 217.207 52.6898C217.106 52.5594 217.031 52.41 216.988 52.2504C216.945 52.0908 216.934 51.9242 216.957 51.7604C217.019 51.4297 217.207 51.1361 217.482 50.9416C217.756 50.7471 218.096 50.667 218.428 50.7182C218.593 50.7359 218.752 50.7862 218.896 50.8661C219.041 50.9461 219.168 51.054 219.27 51.1837C219.372 51.3133 219.447 51.4621 219.492 51.6212C219.536 51.7804 219.547 51.9467 219.526 52.1105Z" fill="#263238"/>
<path d="M219.672 50.3835C219.481 50.5188 218.654 49.5879 217.286 49.3652C215.917 49.1424 214.78 49.5959 214.66 49.3652C214.541 49.1344 214.819 49.0151 215.321 48.7764C215.991 48.483 216.735 48.4024 217.453 48.5457C218.165 48.6798 218.817 49.0363 219.314 49.5641C219.68 50.0016 219.768 50.3278 219.672 50.3835Z" fill="#263238"/>
<path d="M222.594 61.8096C223.357 61.713 224.13 61.713 224.893 61.8096C225.243 61.8096 225.593 61.8096 225.689 61.6027C225.795 61.2526 225.795 60.8788 225.689 60.5287L225.163 57.6646C224.455 53.6072 224.018 50.2896 224.177 50.2658C224.336 50.2419 225.052 53.5117 225.768 57.5691C225.927 58.5716 226.086 59.5263 226.237 60.4412C226.377 60.9027 226.349 61.3986 226.158 61.8414C226.083 61.9556 225.983 62.0514 225.866 62.1216C225.749 62.1919 225.618 62.2348 225.482 62.2471C225.281 62.2685 225.078 62.2685 224.877 62.2471C224.101 62.1908 223.335 62.0439 222.594 61.8096Z" fill="#263238"/>
<path d="M220.61 47.6063C220.403 47.9564 219.074 47.5188 217.427 47.3995C215.78 47.2801 214.404 47.4711 214.245 47.0971C214.173 46.9221 214.468 46.6118 215.041 46.3573C215.821 46.0387 216.667 45.9132 217.507 45.9913C218.351 46.0468 219.169 46.3032 219.894 46.7391C220.458 47.0971 220.705 47.4392 220.61 47.6063Z" fill="#263238"/>
<path d="M233.985 47.5653C233.682 47.8278 232.799 47.3187 231.67 47.0879C230.54 46.8572 229.538 46.897 229.378 46.531C229.315 46.356 229.522 46.0696 229.999 45.8548C230.627 45.6081 231.313 45.552 231.973 45.6935C232.632 45.835 233.235 46.1679 233.706 46.6504C234.048 47.0879 234.12 47.43 233.985 47.5653Z" fill="#263238"/>
<path d="M204.201 52.6074C204.057 52.512 198.433 49.624 197.454 55.742C196.476 61.86 202.824 61.5815 202.864 61.4065C202.904 61.2315 204.201 52.6074 204.201 52.6074Z" fill="#FFBE9D"/>
<path d="M201.357 58.8016C201.357 58.8016 201.245 58.8573 201.046 58.913C200.913 58.9484 200.774 58.9568 200.637 58.9377C200.501 58.9186 200.369 58.8723 200.251 58.8016C199.638 58.4675 199.256 57.3537 199.407 56.2399C199.475 55.7123 199.659 55.2066 199.948 54.7601C200.035 54.5783 200.166 54.4207 200.328 54.3014C200.49 54.1821 200.68 54.1046 200.879 54.0759C201.006 54.0632 201.134 54.0952 201.24 54.1663C201.346 54.2375 201.424 54.3434 201.46 54.4657C201.516 54.6487 201.46 54.7681 201.46 54.784C201.46 54.7999 201.603 54.6964 201.595 54.4419C201.584 54.2822 201.52 54.131 201.412 54.0123C201.261 53.8637 201.06 53.7759 200.847 53.7656C200.586 53.7788 200.332 53.8589 200.111 53.9982C199.889 54.1375 199.707 54.3313 199.582 54.5612C199.239 55.0498 199.02 55.6153 198.946 56.208C198.787 57.4491 199.232 58.7062 200.076 59.1039C200.233 59.1766 200.404 59.2143 200.577 59.2143C200.75 59.2143 200.921 59.1766 201.078 59.1039C201.317 58.9369 201.38 58.8016 201.357 58.8016Z" fill="#EB996E"/>
<path d="M200.855 51.7476C201.441 51.8208 201.997 52.0519 202.462 52.4162C202.927 52.7805 203.285 53.2644 203.496 53.8161C203.727 54.7548 203.623 55.7573 203.846 56.704C204.069 57.6507 204.817 58.6054 205.787 58.5656C206.121 58.5261 206.439 58.3994 206.708 58.1983C206.978 57.9973 207.19 57.7288 207.323 57.42C207.579 56.7989 207.714 56.1347 207.721 55.4629C207.904 52.5511 207.848 49.6154 208.286 46.7116C208.604 43.783 209.784 41.0147 211.675 38.7558C213.648 36.6077 216.75 35.3507 219.559 36.1304C221.42 36.6396 222.964 37.9602 224.794 38.5887C225.884 38.9512 227.042 39.0609 228.18 38.9092C229.319 38.7576 230.408 38.3487 231.365 37.7136C231.471 37.645 231.583 37.5864 231.699 37.5386C232.032 37.3861 232.305 37.1279 232.477 36.8043C232.648 36.4806 232.707 36.1095 232.646 35.7485C232.615 35.5149 232.531 35.2917 232.399 35.0961C229.336 30.9591 222.805 28.7315 217.649 29.0259C212.494 29.3203 207.204 31.9059 204.196 36.1145C201.189 40.3231 200.584 46.8548 200.855 51.7476Z" fill="#263238"/>
<path d="M225.349 65.9623C224.02 65.7684 222.747 65.2996 221.609 64.5859C222.284 64.6134 222.945 64.7814 223.551 65.0792C224.204 65.2466 224.816 65.5473 225.349 65.9623Z" fill="#263238"/>
<path d="M232.001 72.8214C231.883 73.425 231.624 73.9921 231.245 74.4762C230.381 75.683 229.241 76.6651 227.92 77.3403C226.611 78.0041 225.216 78.4808 223.775 78.7564C223.189 78.9195 222.584 78.9972 221.977 78.9872C222.537 78.767 223.114 78.594 223.703 78.47C225.094 78.1151 226.443 77.6138 227.729 76.9744C228.996 76.3225 230.113 75.4118 231.006 74.3012C231.683 73.434 231.937 72.7896 232.001 72.8214Z" fill="#EB996E"/>
<path d="M227.688 77.3672C225.532 78.4412 223.948 81.3451 222.58 83.2704C222.115 83.8214 221.783 84.4719 221.609 85.1718C221.545 85.9329 221.679 86.6977 221.999 87.3914C222.389 88.4496 222.795 89.4918 223.272 90.526C223.399 90.8283 223.567 91.1545 223.885 91.2261C224.203 91.2977 224.617 90.9238 224.784 90.5499C225.088 89.5807 225.257 88.574 225.285 87.5585C225.312 87.0517 225.462 86.5591 225.722 86.1237C225.983 85.6882 226.346 85.3232 226.781 85.0604" fill="#EB996E"/>
<path d="M231.094 85.3036L229.002 83.7125C228.876 83.6078 228.713 83.5567 228.55 83.5701C228.386 83.5835 228.235 83.6603 228.127 83.7841L227.013 85.0729L227.602 88.3268C228.286 92.5036 225.215 91.8512 225.215 91.8512L224.969 91.0556L223.608 85.964C223.338 83.5295 223.529 83.2431 224.714 81.4849L227.308 77.7775C227.568 77.3877 227.952 77.0972 228.399 76.9528C228.845 76.8085 229.326 76.8187 229.766 76.9819C233.489 78.3582 241.517 80.8404 242.423 83.9989C244.07 89.7429 245.399 104.405 245.423 104.684L234.054 105.742L234.11 95.9644C233.11 95.3412 232.356 94.3911 231.978 93.2753C231.5 91.5489 231.094 85.3195 231.094 85.3195" fill="#FFBE9D"/>
<path d="M238.945 87.2186C238.945 87.2186 238.826 87.4175 238.515 87.6801C238.073 88.066 237.543 88.339 236.972 88.4756C236.566 88.567 236.145 88.567 235.739 88.4756C235.258 88.3542 234.832 88.0739 234.529 87.6801C233.861 86.8845 233.734 85.7548 233.177 84.9353C232.835 84.5603 232.441 84.2362 232.008 83.9727C231.599 83.7096 231.174 83.473 230.735 83.2646C230.383 83.0541 229.982 82.9414 229.573 82.9384C229.228 83.0489 228.912 83.2367 228.65 83.4874C227.624 84.4341 227.059 85.1501 227.003 85.0785C226.948 85.0069 227.107 84.8796 227.345 84.5534C227.681 84.0943 228.051 83.6609 228.451 83.2567C228.743 82.9546 229.103 82.728 229.501 82.5963C229.628 82.5721 229.757 82.5721 229.883 82.5963C230.002 82.6171 230.119 82.6463 230.233 82.6838C230.46 82.7499 230.681 82.8351 230.894 82.9384C231.355 83.1383 231.799 83.3751 232.222 83.6465C232.705 83.9286 233.14 84.2858 233.511 84.7046C234.179 85.6752 234.259 86.7811 234.824 87.4573C235.077 87.7531 235.404 87.9756 235.772 88.1016C236.14 88.2275 236.535 88.2523 236.916 88.1733C237.455 88.0722 237.967 87.861 238.42 87.5528C238.714 87.33 238.921 87.1948 238.945 87.2186Z" fill="#EB996E"/>
<path d="M237.69 90.6729C235.516 90.545 233.399 89.9334 231.492 88.8828C232.554 89.0756 233.597 89.3577 234.611 89.7261C235.661 89.9565 236.691 90.2732 237.69 90.6729Z" fill="#EB996E"/>
<path d="M233.654 85.3528C230.679 85.3528 230.329 85.2176 226.963 85.4005C226.461 85.4035 225.962 85.484 225.484 85.6392C225.244 85.7185 225.027 85.8536 224.85 86.0335C224.673 86.2133 224.541 86.4327 224.465 86.6735C224.235 87.5963 225.165 88.4317 226.056 88.6465C226.948 88.8613 227.966 88.6942 228.889 88.909C230.354 89.1686 231.678 89.9448 232.62 91.0969C234.561 93.8416 236.598 92.521 237.919 93.4836L241.387 91.2878L240.162 86.1643L233.622 85.3687" fill="#FFBE9D"/>
<path d="M238.25 93.5097C237.948 93.3704 237.63 93.2714 237.303 93.2153C236.365 93.2036 235.436 93.0397 234.55 92.73C233.96 92.4315 233.443 92.0048 233.039 91.4809C232.633 90.8927 232.11 90.3944 231.503 90.0171C230.825 89.6173 230.09 89.3222 229.323 89.1419C228.473 89.0102 227.614 88.9358 226.754 88.9192C226.277 88.891 225.818 88.7259 225.433 88.4437C225.048 88.1614 224.752 87.7741 224.582 87.328C224.518 87.0953 224.515 86.85 224.573 86.6158C224.632 86.3816 224.75 86.1665 224.916 85.9915C225.212 85.6716 225.597 85.4473 226.022 85.347C226.758 85.2277 227.503 85.1665 228.249 85.1641C228.934 85.1641 229.578 85.1641 230.167 85.1641C231.344 85.1641 232.283 85.2436 232.935 85.2754C233.277 85.2691 233.618 85.2957 233.954 85.355C233.619 85.4244 233.277 85.4511 232.935 85.4346C232.283 85.4346 231.344 85.4346 230.167 85.4346C229.586 85.4346 228.949 85.4346 228.265 85.5062C227.545 85.517 226.826 85.5862 226.117 85.713C225.441 85.8562 224.749 86.5086 224.972 87.2087C225.126 87.5729 225.381 87.8859 225.706 88.1112C226.031 88.3365 226.414 88.4649 226.809 88.4816C227.684 88.4987 228.556 88.5785 229.419 88.7203C230.228 88.9167 231.001 89.2388 231.71 89.675C232.347 90.0865 232.89 90.6289 233.301 91.2661C233.666 91.7627 234.136 92.1728 234.678 92.4674C235.529 92.7849 236.421 92.983 237.327 93.0562C237.584 93.1025 237.829 93.197 238.051 93.3346C238.194 93.438 238.258 93.4937 238.25 93.5097Z" fill="#EB996E"/>
<path d="M233.321 83.0292C233.321 82.9814 233.535 82.9416 233.846 83.0769C234.046 83.174 234.22 83.319 234.352 83.4992C234.484 83.6793 234.569 83.8891 234.6 84.1099C234.632 84.3308 234.608 84.556 234.532 84.7657C234.456 84.9754 234.33 85.1632 234.164 85.3125C233.909 85.5352 233.694 85.5511 233.671 85.5034C233.647 85.4557 233.798 85.3443 233.949 85.1215C234.142 84.8425 234.229 84.5042 234.196 84.1668C234.129 83.8502 233.951 83.568 233.694 83.3713C233.488 83.1565 233.313 83.0928 233.321 83.0292Z" fill="#EB996E"/>
<path d="M239.98 216.391L225.469 252.613L239.55 255.087L255.255 223.845L239.98 216.391Z" fill="#FFBE9D"/>
<path d="M248.571 241.248L240.615 257.501C240.615 257.501 254.442 271.082 253.257 274.208L221.195 259.832L232.612 234.008L248.571 241.248Z" fill="#407BFF"/>
<path d="M231.293 251.671C230.941 251.62 230.582 251.702 230.287 251.903C229.993 252.103 229.784 252.406 229.702 252.753C229.638 253.104 229.713 253.465 229.91 253.762C230.107 254.059 230.412 254.268 230.76 254.344C231.132 254.391 231.508 254.298 231.815 254.084C232.123 253.869 232.339 253.548 232.423 253.183C232.447 252.813 232.326 252.447 232.086 252.165C231.845 251.883 231.503 251.706 231.134 251.671" fill="#E0E0E0"/>
<g opacity="0.4">
<path opacity="0.4" d="M221.164 259.852L222.318 257.25L252.693 272.016C252.693 272.016 253.838 273.273 253.226 274.212L221.164 259.852Z" fill="black"/>
</g>
<path d="M241.173 257.565C241.101 257.724 240.282 257.446 239.287 257.605C238.293 257.764 237.585 258.233 237.474 258.106C237.362 257.979 237.991 257.183 239.2 257.008C240.409 256.833 241.268 257.438 241.173 257.565Z" fill="#263238"/>
<path d="M243.905 260.464C243.905 260.631 243.11 260.591 242.251 261.013C241.391 261.435 240.954 262.071 240.803 261.992C240.652 261.912 240.946 260.989 241.988 260.48C243.03 259.971 243.969 260.313 243.905 260.464Z" fill="#263238"/>
<path d="M244.016 265.342C243.857 265.342 244.016 264.435 244.812 263.751C245.608 263.066 246.491 263.058 246.499 263.218C246.507 263.377 245.846 263.631 245.21 264.196C244.573 264.761 244.175 265.397 244.016 265.342Z" fill="#263238"/>
<path d="M242.577 253.666C242.45 253.778 241.829 253.237 240.914 252.871C239.999 252.505 239.188 252.505 239.172 252.33C239.156 252.155 240.063 251.9 241.129 252.33C242.195 252.759 242.689 253.571 242.577 253.666Z" fill="#263238"/>
<path d="M244.137 250.357C243.551 250.258 243.002 250.006 242.546 249.625C242.012 249.265 241.526 248.84 241.098 248.36C240.842 248.076 240.608 247.773 240.398 247.453C240.258 247.274 240.151 247.072 240.079 246.857C240.025 246.7 240.026 246.53 240.081 246.374C240.135 246.218 240.242 246.085 240.382 245.997C240.508 245.923 240.65 245.879 240.797 245.869C240.943 245.86 241.09 245.884 241.225 245.942C241.429 246.035 241.619 246.155 241.79 246.3C242.096 246.54 242.381 246.806 242.641 247.095C243.072 247.584 243.424 248.137 243.683 248.734C243.982 249.257 244.107 249.862 244.041 250.461C243.946 250.461 243.803 249.824 243.301 248.917C243.013 248.389 242.654 247.902 242.235 247.469C241.987 247.218 241.721 246.984 241.44 246.769C241.137 246.53 240.851 246.395 240.7 246.514C240.549 246.634 240.628 246.578 240.652 246.705C240.707 246.862 240.785 247.009 240.883 247.143C241.078 247.442 241.287 247.732 241.511 248.01C241.902 248.477 242.334 248.908 242.8 249.299C243.588 249.959 244.177 250.27 244.137 250.357Z" fill="#263238"/>
<path d="M243.827 250.484C243.728 249.892 243.823 249.284 244.097 248.75C244.336 248.141 244.677 247.579 245.108 247.087C245.362 246.794 245.644 246.528 245.951 246.291C246.134 246.119 246.358 245.996 246.602 245.935C246.845 245.874 247.101 245.876 247.343 245.941C247.483 246.011 247.6 246.118 247.683 246.25C247.765 246.381 247.81 246.533 247.813 246.689C247.81 246.916 247.775 247.141 247.709 247.357C247.606 247.74 247.445 248.105 247.232 248.439C246.868 248.997 246.377 249.46 245.8 249.792C245.552 249.967 245.272 250.091 244.975 250.157C244.679 250.222 244.372 250.228 244.074 250.174C244.588 249.955 245.09 249.708 245.577 249.434C246.059 249.093 246.463 248.654 246.763 248.145C246.931 247.851 247.06 247.535 247.145 247.206C247.248 246.848 247.24 246.514 247.097 246.49C246.953 246.478 246.808 246.495 246.671 246.542C246.534 246.588 246.408 246.663 246.301 246.761C246.017 246.968 245.75 247.2 245.506 247.453C245.097 247.891 244.751 248.383 244.479 248.917C244.018 249.84 243.922 250.54 243.827 250.484Z" fill="#263238"/>
<path d="M212.202 172.952L256.882 151.09C260.711 149.214 265.043 148.624 269.235 149.408C273.426 150.192 277.252 152.308 280.144 155.441C282.845 158.37 284.601 162.045 285.181 165.986C285.762 169.927 285.14 173.952 283.398 177.535L253.755 238.492L228.957 230.647L250.764 184.186L226.228 202.882C219.603 207.925 211.523 210.689 203.196 210.758L196.768 210.814C191.475 210.593 186.328 209.014 181.823 206.227C177.318 203.44 173.607 199.54 171.047 194.902L212.202 172.952Z" fill="#263238"/>
<path d="M253.756 238.474C253.756 238.474 253.597 238.474 253.295 238.354L251.982 237.964L246.978 236.437L228.903 230.812L228.728 230.757L228.807 230.582C233.183 221.226 238.64 209.57 244.536 196.96C246.628 192.521 248.657 188.209 250.582 184.104L250.884 184.351C239.635 192.736 229.563 199.697 222.132 204.28C219.247 206.114 216.243 207.757 213.142 209.196C212.303 209.575 211.429 209.871 210.533 210.079C210.3 210.134 210.063 210.166 209.825 210.175H209.586C209.586 210.175 209.912 210.175 210.517 210C211.399 209.762 212.259 209.448 213.086 209.061C216.156 207.574 219.132 205.9 221.997 204.049C229.38 199.411 239.412 192.41 250.638 184.024L251.29 183.539L250.948 184.271C249.023 188.368 246.97 192.688 244.917 197.127C238.99 209.729 233.509 221.369 229.109 230.717L229.006 230.486L247.034 236.246L252.014 237.837L253.311 238.275L253.756 238.474Z" fill="#455A64"/>
<path d="M259.171 174.102C257.27 175.349 255.539 176.838 254.023 178.533C252.616 180.321 251.453 182.287 250.562 184.38C250.659 183.71 250.857 183.058 251.151 182.447C252.437 179.41 254.601 176.825 257.365 175.024C257.915 174.624 258.524 174.313 259.171 174.102Z" fill="#455A64"/>
<path d="M164.444 260.359H228.71C229.139 260.357 229.552 260.522 229.861 260.819C230.17 261.116 230.351 261.522 230.365 261.951C230.37 262.172 230.332 262.391 230.251 262.597C230.17 262.803 230.049 262.991 229.895 263.149C229.741 263.308 229.557 263.434 229.354 263.521C229.15 263.607 228.931 263.652 228.71 263.653H164.444C164.006 263.651 163.587 263.476 163.279 263.166C162.97 262.855 162.797 262.436 162.797 261.998C162.799 261.563 162.973 261.146 163.282 260.839C163.591 260.532 164.008 260.359 164.444 260.359Z" fill="#E0E0E0"/>
<path d="M220.265 219.441H169.992C169.992 218.162 170.244 216.896 170.733 215.714C171.223 214.533 171.94 213.46 172.844 212.555C173.749 211.651 174.822 210.934 176.004 210.444C177.185 209.955 178.451 209.703 179.73 209.703H210.519C211.798 209.702 213.065 209.953 214.248 210.442C215.43 210.931 216.505 211.648 217.41 212.552C218.315 213.457 219.033 214.531 219.523 215.713C220.013 216.895 220.265 218.162 220.265 219.441Z" fill="#455A64"/>
<path d="M221.838 219.438H168.805V222.389H221.838V219.438Z" fill="#E0E0E0"/>
<path d="M173.523 222.398L160.555 350.216H163.61L179.434 222.398H173.523Z" fill="#E0E0E0"/>
<path d="M216.723 222.398L229.683 350.152L226.636 350.168L210.82 222.446L216.723 222.398Z" fill="#E0E0E0"/>
<path d="M198.667 221.272L196.479 350.211H193.353L191.984 220.922L198.667 221.272Z" fill="#E0E0E0"/>
<path d="M197.648 81.1331L200.799 71.5703L221.587 81.1888L220.633 91.3086L210.274 94.2522L200.107 88.0228L197.648 81.1331Z" fill="#407BFF"/>
<path d="M171.086 194.925C170.162 194.271 169.414 193.4 168.906 192.389C168.398 191.378 168.147 190.257 168.174 189.126C168.174 185.291 171.595 184.973 171.706 182.849C172.844 160.93 175.326 115.527 176.965 101.199C179.026 83.1389 200.188 79.3281 200.188 79.3281L217.651 83.6163V84.9369C223.697 92.7097 226.315 104.429 226.323 114.278L225.527 166.452L171.086 194.925Z" fill="#407BFF"/>
<path d="M190.684 165.703C190.494 166.02 190.276 166.318 190.031 166.594C189.602 167.151 188.941 167.939 188.114 168.893C186.459 170.811 184.08 173.38 181.28 176.054C178.479 178.727 175.806 180.986 173.817 182.545C172.815 183.341 172.003 183.946 171.431 184.359C171.146 184.593 170.836 184.796 170.508 184.964C170.748 184.694 171.014 184.449 171.303 184.232L173.603 182.323C175.544 180.732 178.185 178.416 180.97 175.751C183.754 173.086 186.165 170.564 187.875 168.702L189.888 166.483C190.125 166.196 190.392 165.934 190.684 165.703Z" fill="#263238"/>
<g opacity="0.2">
<path opacity="0.2" d="M173.477 182.777C173.54 179.476 176.014 176.755 178.465 174.535C181.328 171.933 184.375 169.54 187.582 167.375C187.741 168.966 186.643 170.422 185.577 171.647C181.994 175.739 178.03 179.482 173.739 182.825" fill="black"/>
</g>
<path d="M204.047 79.5508C204.124 78.5987 204.341 77.6631 204.691 76.7743C204.906 75.8458 205.254 74.9534 205.726 74.125C205.648 75.0772 205.431 76.0128 205.081 76.9016C204.862 77.8287 204.514 78.7206 204.047 79.5508Z" fill="#263238"/>
<path d="M212.155 76.8438C212.154 77.7799 212.012 78.7106 211.733 79.6044C211.599 80.5267 211.331 81.4245 210.938 82.2696C210.939 81.3334 211.081 80.4028 211.359 79.5089C211.494 78.5867 211.762 77.6889 212.155 76.8438Z" fill="#263238"/>
<path d="M218.192 79.8516C218.218 80.6924 218.146 81.5334 217.978 82.3576C217.951 83.2015 217.828 84.0396 217.612 84.8557C217.432 84.0167 217.432 83.1489 217.612 82.3099C217.634 81.4591 217.831 80.6221 218.192 79.8516Z" fill="#263238"/>
<path d="M197.209 130.918C196.921 130.976 196.627 130.997 196.334 130.981C195.761 130.981 194.941 130.981 193.947 130.981C191.918 130.981 189.118 130.981 185.991 130.894C182.865 130.806 180.088 130.759 178.035 130.679C177.017 130.679 176.198 130.607 175.649 130.568C175.351 130.575 175.054 130.543 174.766 130.472C175.057 130.42 175.353 130.399 175.649 130.408C176.222 130.408 177.041 130.408 178.035 130.408C180.064 130.408 182.865 130.408 185.991 130.496C189.118 130.583 191.894 130.623 193.947 130.703L196.334 130.814C196.629 130.809 196.923 130.844 197.209 130.918Z" fill="#FAFAFA"/>
<path d="M192.774 124.237C192.774 124.357 188.796 124.357 183.863 124.237C178.931 124.118 174.969 123.959 174.969 123.84C174.969 123.72 178.947 123.72 183.871 123.84C188.796 123.959 192.774 124.126 192.774 124.237Z" fill="#FAFAFA"/>
<g opacity="0.2">
<path opacity="0.2" d="M185.211 113.953C191.576 127.812 199.356 140.255 208.402 152.523C210.733 155.705 213.231 158.887 216.596 160.868C219.962 162.849 222.165 162.324 225.563 160.295C221.799 159.094 220.789 158.704 217.607 156.405C214.504 153.981 211.796 151.091 209.579 147.837C201.624 136.89 193.859 125.616 185.887 114.669" fill="black"/>
</g>
<path d="M251.375 133.66C251.461 132.74 251.712 131.843 252.115 131.011C252.319 130.595 252.63 130.24 253.015 129.983C253.401 129.726 253.848 129.575 254.311 129.547C254.539 129.545 254.765 129.592 254.974 129.685C255.182 129.778 255.368 129.915 255.519 130.086C255.67 130.257 255.782 130.459 255.848 130.678C255.914 130.896 255.933 131.127 255.902 131.353C255.703 131.859 255.403 132.32 255.019 132.705C254.008 134.09 254.104 135.959 254.112 137.67C254.12 139.38 253.905 141.337 252.521 142.364" fill="#FFBE9D"/>
<path d="M188.258 93.7228C186.664 94.8372 185.31 96.2622 184.28 97.9123C183.249 99.5625 182.562 101.404 182.261 103.326C181.959 105.248 182.049 107.211 182.524 109.097C183 110.984 183.852 112.755 185.028 114.304L214.099 152.588C217.162 156.572 221.508 159.375 226.402 160.522C231.295 161.669 236.435 161.089 240.949 158.881C244.789 156.998 247.99 154.028 250.154 150.341C252.319 146.653 253.351 142.41 253.122 138.14L246.717 97.8837L231.076 98.8543L232.556 131.64L208.355 97.2472C206.152 94.1212 202.801 91.9951 199.034 91.3346C195.268 90.674 191.393 91.5328 188.258 93.7228Z" fill="#407BFF"/>
<path d="M250.914 149.556C247.063 148.657 246.411 147.965 242.568 147.097C241.422 146.827 239.951 146.087 240.46 144.87C240.601 144.561 240.835 144.304 241.128 144.133C241.421 143.962 241.76 143.886 242.099 143.915C243.594 144.042 246.005 144.933 247.453 145.069C247.811 145.069 247.803 144.742 247.644 144.496C245.303 143.789 242.908 143.273 240.484 142.952C240.142 142.907 239.822 142.762 239.561 142.537C239.301 142.311 239.112 142.014 239.018 141.683C238.924 141.352 238.929 141 239.033 140.671C239.136 140.343 239.334 140.052 239.601 139.834C239.92 139.67 240.269 139.57 240.627 139.539C242.17 139.762 242.17 139.762 243.809 140.049C248.415 140.844 247.787 139.937 247.787 139.937C247.787 139.587 242.544 139.078 239.831 138.752C239.244 138.757 238.676 138.541 238.24 138.147C238.046 137.855 237.958 137.505 237.991 137.156C238.025 136.807 238.177 136.48 238.423 136.23C238.655 135.96 238.938 135.738 239.257 135.578C239.575 135.419 239.922 135.324 240.277 135.299C243.276 135.243 253.125 136.341 253.125 136.341C253.125 136.341 254.414 138.091 254.016 141.679C253.611 145.61 250.914 149.556 250.914 149.556Z" fill="#FFBE9D"/>
<path d="M236.983 160.298C236.983 160.298 236.839 160.298 236.569 160.362L235.344 160.489C234.262 160.585 232.671 160.736 230.57 160.76C228.059 160.824 225.555 160.478 223.155 159.733C220.02 158.56 217.212 156.65 214.969 154.164C212.241 151.222 209.678 148.13 207.292 144.904C204.674 141.459 201.937 137.744 199.089 133.806C196.241 129.868 193.297 125.707 190.266 121.371L185.676 114.744C185.286 114.179 184.88 113.614 184.514 113.041L183.957 112.158C183.77 111.862 183.603 111.553 183.456 111.235C182.822 109.969 182.382 108.615 182.151 107.217C181.907 105.822 181.88 104.397 182.072 102.993C182.161 102.298 182.294 101.61 182.47 100.932C182.665 100.266 182.902 99.6125 183.178 98.9753C183.455 98.3446 183.774 97.7333 184.132 97.1455C184.499 96.5663 184.906 96.0134 185.35 95.4907C186.216 94.4509 187.226 93.5401 188.349 92.7857C189.456 92.0473 190.654 91.4563 191.913 91.0275C193.155 90.6287 194.445 90.3959 195.748 90.3354C198.282 90.2201 200.802 90.7686 203.059 91.9265C205.194 93.0408 207.026 94.6571 208.398 96.6363C209.713 98.5245 210.983 100.36 212.208 102.142L219.05 112.023L228.931 126.343L231.604 130.249C231.899 130.687 232.122 131.045 232.289 131.268L232.511 131.626C232.418 131.519 232.33 131.408 232.249 131.292L231.533 130.297L228.844 126.431L218.82 112.198L211.938 102.341L208.103 96.8511C206.761 94.9278 204.973 93.3582 202.892 92.2766C199.525 90.5868 195.626 90.3007 192.048 91.481C190.825 91.9016 189.662 92.4792 188.588 93.1994C187.491 93.927 186.507 94.8115 185.668 95.8248C185.24 96.328 184.847 96.8596 184.49 97.416C184.141 97.9872 183.832 98.5827 183.568 99.1981C183.293 99.8152 183.062 100.451 182.875 101.1C182.701 101.758 182.571 102.428 182.486 103.104C182.15 105.831 182.62 108.597 183.838 111.06C184.482 112.264 185.211 113.42 186.018 114.521L190.608 121.156C193.632 125.492 196.575 129.653 199.408 133.591C202.24 137.529 204.977 141.26 207.57 144.729C209.941 147.954 212.486 151.048 215.192 153.997C217.393 156.466 220.15 158.375 223.235 159.566C225.609 160.319 228.088 160.685 230.578 160.648C232.631 160.648 234.222 160.521 235.304 160.45L236.529 160.37C236.839 160.298 236.983 160.298 236.983 160.298Z" fill="#263238"/>
<path d="M234.216 143.656C235.216 139.36 234.496 134.843 232.211 131.07C232.673 131.533 233.052 132.071 233.333 132.661C234.094 134.044 234.608 135.549 234.852 137.109C235.101 138.665 235.079 140.253 234.789 141.803C234.704 142.448 234.51 143.075 234.216 143.656Z" fill="#263238"/>
<path d="M234.606 103.125C234.235 102.471 234.043 101.73 234.049 100.977C233.919 100.236 233.985 99.4736 234.24 98.7656C234.395 99.4817 234.47 100.213 234.463 100.946C234.593 101.664 234.641 102.396 234.606 103.125Z" fill="#263238"/>
<path d="M238.918 102.725C238.249 101.407 238.052 99.899 238.361 98.4531C238.549 99.1491 238.656 99.8646 238.679 100.585C238.839 101.287 238.919 102.005 238.918 102.725Z" fill="#263238"/>
<path d="M243.192 101.767C242.954 101.215 242.85 100.615 242.89 100.016C242.791 99.4242 242.829 98.8173 243.001 98.2422C243.235 98.7947 243.338 99.3936 243.303 99.9925C243.397 100.585 243.359 101.191 243.192 101.767Z" fill="#263238"/>
<path d="M216.847 110.666C216.911 110.754 211.978 114.286 205.828 118.55C199.679 122.814 194.643 126.196 194.571 126.1C194.499 126.005 199.44 122.472 205.59 118.208C211.74 113.944 216.784 110.571 216.847 110.666Z" fill="#FAFAFA"/>
<path d="M213.002 104.891C212.737 105.142 212.446 105.366 212.135 105.559L209.709 107.261C207.648 108.693 204.824 110.698 201.753 112.966C198.682 115.233 195.945 117.365 193.972 118.909C193.033 119.649 192.254 120.261 191.633 120.739C191.359 120.981 191.061 121.195 190.742 121.375C190.978 121.082 191.245 120.815 191.538 120.579C192.063 120.11 192.835 119.45 193.797 118.646C195.722 117.055 198.435 114.875 201.514 112.6C204.593 110.324 207.449 108.351 209.55 106.975C210.6 106.291 211.451 105.742 212.056 105.384C212.354 105.189 212.671 105.023 213.002 104.891Z" fill="#FAFAFA"/>
<path d="M586.928 304.203H532.797V311.642H586.928V304.203Z" fill="#263238"/>
<path d="M587.017 311.731H532.703V304.109H587.017V311.731ZM532.918 311.548H586.866V304.292H532.886L532.918 311.548Z" fill="#263238"/>
<path d="M537.812 309.156L545.609 347.599H574.441L581.967 311.638L537.812 309.156Z" fill="#263238"/>
<path d="M537.812 343.969L541.973 349.681H577.019L581.967 343.969H537.812Z" fill="#455A64"/>
<path d="M557.828 310.292C557.725 310.292 557.59 292.479 557.526 270.513C557.462 248.547 557.526 230.734 557.606 230.734C557.685 230.734 557.852 248.539 557.908 270.513C557.964 292.487 557.94 310.284 557.828 310.292Z" fill="#263238"/>
<path d="M569.887 265.719C569.851 265.861 569.803 265.999 569.744 266.132L569.258 267.286C569.147 267.541 569.028 267.811 568.9 268.082L568.542 269.092C568.415 269.458 568.272 269.848 568.129 270.254C567.985 270.659 567.866 271.113 567.723 271.574C567.082 273.75 566.577 275.963 566.211 278.201C565.803 280.949 565.538 283.716 565.416 286.491C565.219 291.534 565.36 296.584 565.837 301.607C566.012 303.54 566.187 305.1 566.323 306.182C566.378 306.683 566.418 307.097 566.458 307.423C566.477 307.568 566.477 307.715 566.458 307.86C566.417 307.722 566.385 307.581 566.362 307.439C566.307 307.113 566.243 306.699 566.156 306.198C565.981 305.124 565.766 303.564 565.551 301.631C564.988 296.592 564.807 291.518 565.01 286.451C565.149 283.661 565.441 280.88 565.885 278.122C566.265 275.871 566.796 273.649 567.476 271.471C567.627 271.009 567.747 270.564 567.906 270.15C568.065 269.736 568.208 269.355 568.351 268.997L568.741 267.986C568.877 267.684 569.012 267.413 569.131 267.191L569.68 266.069C569.734 265.944 569.803 265.826 569.887 265.719Z" fill="#263238"/>
<path d="M568.503 251.312C568.459 251.513 568.401 251.71 568.328 251.901L567.763 253.556C567.644 253.922 567.501 254.352 567.349 254.749C567.198 255.147 567.071 255.672 566.92 256.189C566.602 257.224 566.236 258.393 565.909 259.706L565.36 261.766C565.201 262.49 565.034 263.238 564.859 264.018C564.477 265.569 564.207 267.256 563.857 269.014C563.26 272.546 562.735 276.461 562.369 280.582C562.003 284.703 561.884 288.657 561.828 292.245C561.772 295.833 561.828 299.063 562.011 301.792C562.059 303.152 562.146 304.377 562.218 305.451C562.29 306.525 562.345 307.456 562.417 308.212C562.488 308.968 562.512 309.517 562.544 309.954C562.565 310.158 562.565 310.363 562.544 310.567C562.493 310.369 562.461 310.167 562.449 309.962C562.393 309.533 562.329 308.952 562.242 308.228C562.154 307.504 562.059 306.541 561.979 305.467C561.9 304.393 561.78 303.168 561.717 301.808C561.534 299.095 561.462 295.857 561.446 292.261C561.43 288.665 561.621 284.703 561.963 280.566C562.305 276.429 562.862 272.507 563.483 268.966C563.841 267.2 564.127 265.514 564.517 263.962C564.7 263.167 564.883 262.435 565.05 261.711L565.623 259.65C565.965 258.337 566.347 257.168 566.689 256.142C566.856 255.632 567.007 255.155 567.151 254.71L567.604 253.524L568.233 251.893C568.306 251.692 568.397 251.498 568.503 251.312Z" fill="#263238"/>
<path d="M554.404 313.439C554.396 313.367 554.396 313.295 554.404 313.224C554.404 313.065 554.404 312.866 554.348 312.611C554.348 312.046 554.261 311.259 554.189 310.225C554.062 308.148 553.879 305.189 553.648 301.553C553.179 294.226 552.503 284.106 551.262 272.984C550.633 267.415 549.901 262.14 549.145 257.351C548.74 254.964 548.35 252.681 547.96 250.564C547.57 248.448 547.164 246.475 546.79 244.685C546.417 242.895 546.035 241.272 545.716 239.848C545.398 238.424 545.096 237.207 544.849 236.212L544.284 233.921C544.229 233.674 544.181 233.475 544.149 233.324C544.131 233.254 544.118 233.182 544.109 233.109C544.142 233.173 544.169 233.24 544.189 233.308C544.229 233.467 544.284 233.658 544.356 233.897L544.992 236.18C545.271 237.167 545.589 238.384 545.923 239.8C546.257 241.216 546.679 242.823 547.053 244.621C547.427 246.419 547.849 248.384 548.27 250.509C548.692 252.633 549.066 254.9 549.495 257.295C550.291 262.068 551.015 267.375 551.643 272.944C552.877 284.082 553.513 294.202 553.911 301.537C554.11 305.197 554.253 308.164 554.333 310.217C554.372 311.219 554.404 312.007 554.42 312.603V313.216C554.424 313.291 554.418 313.365 554.404 313.439Z" fill="#263238"/>
<path d="M557.39 239.299C557.151 236.777 554.606 234.868 552.068 234.844C550.799 234.901 549.559 235.246 548.443 235.852C547.326 236.459 546.362 237.311 545.624 238.344C544.164 240.425 543.112 242.762 542.521 245.234C540.81 251.177 539.879 257.422 540.611 263.532C541.343 269.642 543.833 275.713 548.241 280.056C548.957 280.756 549.88 281.465 550.866 281.258C551.395 281.096 551.872 280.8 552.251 280.398C556.57 276.457 559.995 271.637 562.298 266.262C564.6 260.887 565.726 255.082 565.6 249.236C565.537 246.905 565.227 244.462 563.938 242.529C562.649 240.596 559.626 238.551 557.43 239.299" fill="#27DEBF"/>
<path d="M538.459 219.088L534.895 225.548C534.808 225.699 534.704 225.867 534.529 225.882C534.354 225.898 534.203 225.723 534.1 225.564L524.664 211.085L526.836 209.852L538.459 219.088Z" fill="#27DEBF"/>
<g opacity="0.2">
<path opacity="0.2" d="M538.459 219.088L534.895 225.548C534.808 225.699 534.704 225.867 534.529 225.882C534.354 225.898 534.203 225.723 534.1 225.564L524.664 211.085L526.836 209.852L538.459 219.088Z" fill="black"/>
</g>
<path d="M557.644 230.739L525.423 211.748C525.067 211.593 524.783 211.309 524.628 210.953C524.501 210.475 524.859 210.022 525.201 209.664C527.413 207.367 530.095 205.575 533.064 204.409C536.032 203.244 539.217 202.732 542.401 202.909C545.582 203.137 548.66 204.137 551.369 205.821C554.077 207.505 556.335 209.823 557.947 212.576C561.057 218.145 561.129 225.464 557.597 230.739" fill="#27DEBF"/>
<path d="M530.062 205.685C530.2 205.648 530.342 205.629 530.484 205.629C530.763 205.629 531.168 205.566 531.701 205.573C533.197 205.549 534.691 205.666 536.165 205.924C541.073 206.751 545.641 208.965 549.332 212.304C553.023 215.644 555.681 219.97 556.993 224.771C557.396 226.214 557.663 227.693 557.788 229.186C557.824 229.495 557.842 229.806 557.844 230.117C557.815 230.37 557.728 230.612 557.589 230.825C557.69 230.301 557.708 229.764 557.645 229.234C557.458 227.761 557.152 226.306 556.73 224.882C555.385 220.155 552.74 215.9 549.096 212.601C545.452 209.303 540.955 207.094 536.117 206.226C534.657 205.949 533.178 205.79 531.693 205.749C530.643 205.701 530.062 205.717 530.062 205.685Z" fill="#263238"/>
<path d="M553.247 217.625C552.747 217.932 552.213 218.18 551.656 218.365C550.63 218.771 549.198 219.288 547.591 219.797C545.983 220.306 544.52 220.712 543.454 220.974C542.881 221.147 542.292 221.259 541.695 221.309C542.235 221.049 542.8 220.847 543.382 220.704L547.479 219.431L551.56 218.11C552.105 217.893 552.67 217.731 553.247 217.625Z" fill="#263238"/>
<path d="M548.176 204.016C548.621 206.377 548.682 208.795 548.359 211.176C548.204 209.984 548.143 208.781 548.176 207.58C548.087 206.393 548.087 205.202 548.176 204.016Z" fill="#263238"/>
<path d="M525.141 211.399C525.897 211.071 526.68 210.805 527.48 210.604C528.943 210.15 530.98 209.585 533.248 209.013C535.515 208.44 537.591 208.042 539.103 207.779C539.909 207.602 540.729 207.49 541.553 207.445C540.774 207.707 539.976 207.909 539.167 208.05C537.679 208.376 535.618 208.846 533.359 209.387C531.099 209.928 529.047 210.461 527.575 210.842C526.779 211.089 525.965 211.275 525.141 211.399Z" fill="#263238"/>
<path d="M544.032 233.822C541.264 231.721 538.336 231.308 534.859 231.435C531.386 231.668 527.986 232.548 524.835 234.029C519.401 236.415 514.302 239.908 511.064 244.864C507.826 249.821 506.728 256.392 509.114 261.802C509.304 262.368 509.699 262.842 510.22 263.131C510.822 263.304 511.465 263.256 512.034 262.995C518.208 260.983 524.421 258.946 530.094 255.795C535.766 252.645 540.937 248.261 543.984 242.525C544.771 241.172 545.269 239.672 545.448 238.118C545.533 237.342 545.45 236.557 545.206 235.816C544.961 235.075 544.561 234.395 544.032 233.822Z" fill="#27DEBF"/>
<path d="M544.122 233.172C543.984 233.25 543.838 233.312 543.685 233.355L542.388 233.792L541.449 234.111C541.115 234.23 540.749 234.381 540.359 234.532C539.564 234.851 538.673 235.169 537.718 235.63L536.198 236.322C535.681 236.561 535.156 236.855 534.607 237.118C533.486 237.667 532.356 238.367 531.155 239.083C525.976 242.287 521.372 246.337 517.534 251.064C516.675 252.17 515.832 253.197 515.148 254.247C514.797 254.764 514.431 255.241 514.129 255.734C513.827 256.228 513.532 256.697 513.246 257.143C512.665 258.034 512.236 258.893 511.83 259.625C511.623 259.999 511.432 260.341 511.265 260.659L510.835 261.55L510.231 262.775C510.17 262.923 510.09 263.063 509.992 263.189C510.036 263.036 510.092 262.887 510.159 262.743L510.7 261.486L511.098 260.579C511.257 260.253 511.44 259.903 511.639 259.529C512.029 258.781 512.435 257.938 513.015 257.007C513.286 256.546 513.58 256.069 513.875 255.575C514.169 255.082 514.535 254.589 514.885 254.064C515.561 253.014 516.397 251.963 517.272 250.881C519.215 248.51 521.343 246.297 523.636 244.262C525.944 242.256 528.411 240.438 531.011 238.828C532.229 238.12 533.398 237.42 534.504 236.879C535.069 236.601 535.602 236.314 536.095 236.084L537.631 235.415C538.601 234.962 539.516 234.66 540.304 234.365C540.701 234.222 541.099 234.079 541.417 233.967L542.364 233.689L543.685 233.307C543.825 233.246 543.972 233.201 544.122 233.172Z" fill="#263238"/>
<path d="M522.455 244.883C520.254 245.728 518.007 246.451 515.725 247.047C513.477 247.768 511.194 248.371 508.883 248.853C511.085 248.006 513.332 247.281 515.613 246.681C517.86 245.957 520.144 245.357 522.455 244.883Z" fill="#263238"/>
<path d="M522.189 259.734C522.064 259.044 522.014 258.343 522.038 257.642C521.998 256.345 521.998 254.547 522.038 252.566C522.077 250.585 522.197 248.803 522.308 247.506C522.323 246.804 522.411 246.106 522.571 245.422C522.635 246.121 522.635 246.824 522.571 247.522C522.523 248.946 522.475 250.705 522.412 252.582C522.348 254.46 522.324 256.218 522.284 257.642C522.309 258.341 522.277 259.041 522.189 259.734Z" fill="#263238"/>
<path d="M534.906 253.254C534.803 253.254 534.461 249.619 534.151 245.124C533.84 240.629 533.673 236.961 533.785 236.953C533.896 236.945 534.23 240.589 534.54 245.092C534.851 249.595 535.018 253.247 534.906 253.254Z" fill="#263238"/>
<path d="M519.07 236.601C519.786 236.515 520.507 236.494 521.226 236.538C522.555 236.538 524.409 236.586 526.421 236.649C528.434 236.713 530.288 236.8 531.617 236.88C532.337 236.883 533.056 236.953 533.765 237.087C533.049 237.174 532.328 237.195 531.609 237.15C530.28 237.15 528.426 237.103 526.413 237.039C524.401 236.975 522.547 236.888 521.218 236.808C520.498 236.805 519.779 236.736 519.07 236.601Z" fill="#263238"/>
<path d="M549.619 280.928C549.587 280.787 549.571 280.643 549.571 280.498C549.571 280.172 549.571 279.766 549.515 279.257C549.468 278.183 549.46 276.624 549.515 274.698C549.571 272.773 549.682 270.49 549.913 267.952C550.144 265.414 550.526 262.638 551.043 259.742C551.56 256.846 552.22 254.117 552.873 251.659C553.525 249.2 554.241 247.004 554.886 245.183C555.53 243.361 556.087 241.905 556.477 240.918L556.97 239.773C557.02 239.637 557.084 239.506 557.161 239.383C557.139 239.528 557.099 239.669 557.042 239.804C556.93 240.107 556.787 240.489 556.62 240.966C556.238 241.976 555.721 243.448 555.108 245.27C554.496 247.092 553.843 249.288 553.191 251.746C552.539 254.204 551.926 256.925 551.393 259.813C550.86 262.701 550.486 265.494 550.247 267.984C550.009 270.474 549.842 272.757 549.77 274.714C549.698 276.671 549.69 278.223 549.69 279.257C549.69 279.758 549.69 280.172 549.69 280.498C549.685 280.644 549.661 280.788 549.619 280.928Z" fill="#263238"/>
<path d="M551.317 259.859C550.938 260.375 550.506 260.85 550.028 261.276C549.193 262.071 548.015 263.217 546.663 264.402C545.31 265.588 544.053 266.606 543.122 267.33C542.636 267.751 542.102 268.114 541.531 268.412C541.956 267.94 542.422 267.506 542.924 267.115L546.384 264.108L549.821 261.077C550.281 260.625 550.782 260.218 551.317 259.859Z" fill="#263238"/>
<path d="M561.5 268.064C560.993 267.47 560.536 266.837 560.131 266.17C559.256 264.881 558.158 263.29 556.949 261.524L553.703 256.933C553.22 256.322 552.786 255.673 552.406 254.992C552.964 255.537 553.473 256.131 553.926 256.766C554.817 257.904 556.01 259.503 557.267 261.309C558.524 263.115 559.606 264.794 560.362 266.019C560.806 266.662 561.187 267.347 561.5 268.064Z" fill="#263238"/>
<path d="M556.167 242.26C556.223 242.348 552.842 244.647 548.609 247.352C544.377 250.057 540.9 252.205 540.844 252.126C540.789 252.046 544.17 249.739 548.402 247.042C552.635 244.345 556.112 242.173 556.167 242.26Z" fill="#263238"/>
<path d="M565.711 252.558C562.21 249.5 558.882 246.249 555.742 242.82C559.243 245.879 562.571 249.13 565.711 252.558Z" fill="#263238"/>
<path d="M568.109 252.357L571.013 252.11C573.076 251.942 575.079 251.331 576.885 250.32C577.764 249.803 578.675 249.343 579.613 248.944C583.209 247.504 587.211 247.758 591.078 247.568C597.422 247.251 603.639 245.666 609.36 242.905C609.693 242.752 609.971 242.499 610.156 242.182C610.76 241.092 609.646 240.129 608.692 239.54C603.799 236.525 598.819 233.47 593.266 231.974C587.712 230.479 581.419 230.725 576.686 233.987C571.117 237.814 569.096 245.674 568.157 252.357" fill="#27DEBF"/>
<path d="M610.155 241.82C609.981 241.764 609.816 241.686 609.662 241.589L608.285 240.873C607.092 240.244 605.373 239.282 603.202 238.271C600.669 237.034 598.034 236.02 595.325 235.24C592.012 234.302 588.545 234.032 585.126 234.445C581.699 234.825 578.461 236.209 575.818 238.423C573.76 240.338 572.114 242.652 570.981 245.225C570.186 246.953 569.483 248.722 568.872 250.523L568.355 251.987C568.308 252.162 568.238 252.331 568.148 252.488C568.179 252.31 568.224 252.134 568.284 251.963C568.395 251.589 568.546 251.096 568.729 250.476C569.289 248.65 569.959 246.859 570.734 245.113C571.847 242.481 573.5 240.112 575.587 238.16C578.267 235.873 581.57 234.441 585.07 234.047C588.541 233.636 592.059 233.931 595.413 234.914C598.138 235.711 600.783 236.761 603.313 238.049C605.477 239.123 607.171 240.085 608.349 240.754L609.693 241.549C609.854 241.627 610.009 241.717 610.155 241.82Z" fill="#263238"/>
<path d="M603.201 245.604C603.137 245.692 599.342 243.217 594.712 240.115C590.082 237.012 586.382 234.394 586.446 234.307C586.51 234.219 590.305 236.694 594.927 239.796C599.549 242.899 603.257 245.477 603.201 245.604Z" fill="#263238"/>
<path d="M599.14 234.071C598.251 234.381 597.32 234.55 596.379 234.572C595.441 234.702 594.489 234.688 593.555 234.533C594.476 234.362 595.41 234.267 596.347 234.246C597.273 234.121 598.206 234.063 599.14 234.071Z" fill="#263238"/>
<path d="M582.512 231.906C582.198 232.614 581.777 233.269 581.263 233.847C580.819 234.518 580.284 235.123 579.672 235.645C579.98 234.932 580.402 234.274 580.921 233.696C581.358 233.023 581.894 232.419 582.512 231.906Z" fill="#263238"/>
<path d="M585.919 247.811C585.278 247.542 584.665 247.208 584.089 246.817C582.992 246.149 581.512 245.178 579.921 244.024C578.329 242.871 576.945 241.781 575.943 240.985C575.369 240.587 574.837 240.134 574.352 239.633C574.966 239.958 575.549 240.339 576.094 240.771L580.143 243.714C581.735 244.86 583.175 245.862 584.233 246.586C584.826 246.949 585.39 247.359 585.919 247.811Z" fill="#263238"/>
<path d="M572.387 264.705C569.618 263.973 566.308 266.67 565.744 269.478C565.179 272.287 566.221 275.159 567.454 277.744C570.092 283.542 574.009 288.666 578.91 292.733C583.85 296.796 590.018 299.07 596.413 299.185C595.236 293.743 596.723 288.047 596.063 282.534C595.487 277.664 593.276 273.134 589.792 269.683C586.308 266.232 581.757 264.065 576.882 263.535C575.115 263.344 573.071 263.074 572.363 264.705" fill="#27DEBF"/>
<path d="M596.433 299.176C596.295 299.127 596.162 299.065 596.035 298.993C595.67 298.791 595.324 298.557 595.001 298.293C593.838 297.285 592.905 296.04 592.264 294.641C591.819 293.782 591.325 292.851 590.848 291.817L589.352 288.523C588.818 287.311 588.207 286.133 587.523 284.999C586.771 283.793 585.928 282.646 585.001 281.57C583.107 279.342 581.071 277.417 579.304 275.571C577.707 273.964 576.254 272.221 574.96 270.36C574.091 269.096 573.378 267.731 572.836 266.295C572.661 265.778 572.534 265.38 572.47 265.101C572.422 264.966 572.392 264.824 572.383 264.68C572.383 264.68 572.574 265.245 572.979 266.271C573.567 267.673 574.306 269.007 575.183 270.249C576.5 272.07 577.963 273.781 579.559 275.364C581.333 277.186 583.378 279.111 585.295 281.363C586.234 282.454 587.088 283.617 587.849 284.84C588.531 285.992 589.142 287.185 589.679 288.412C590.188 289.581 590.681 290.687 591.135 291.721C591.588 292.756 592.081 293.686 592.503 294.554C593.111 295.939 593.993 297.187 595.097 298.221C595.908 298.913 596.449 299.136 596.433 299.176Z" fill="#263238"/>
<path d="M582.109 294.652C582.116 294.02 582.202 293.392 582.364 292.782C582.579 291.644 582.937 290.077 583.414 288.367C583.891 286.656 584.409 285.144 584.822 284.055C585.006 283.452 585.26 282.872 585.578 282.328C585.465 282.946 585.297 283.553 585.077 284.142C584.735 285.248 584.281 286.775 583.788 288.478C583.295 290.18 582.913 291.724 582.626 292.846C582.504 293.461 582.331 294.065 582.109 294.652Z" fill="#263238"/>
<path d="M595.912 281.299C595.247 281.21 594.592 281.061 593.954 280.853C592.761 280.535 591.114 280.113 589.276 279.7C587.439 279.286 585.776 278.96 584.559 278.737C583.895 278.65 583.24 278.504 582.602 278.299C583.274 278.284 583.946 278.34 584.606 278.466C585.832 278.626 587.518 278.904 589.38 279.318C591.242 279.731 592.872 280.209 594.05 280.591C594.694 280.758 595.319 280.996 595.912 281.299Z" fill="#263238"/>
<path d="M571.82 285.18C571.852 284.451 571.953 283.726 572.123 283.016C572.369 281.696 572.751 279.882 573.268 277.893C573.785 275.904 574.342 274.13 574.772 272.857C574.973 272.157 575.239 271.478 575.567 270.828C575.45 271.545 575.271 272.25 575.034 272.936C574.668 274.225 574.159 276.007 573.642 277.988C573.125 279.969 572.703 281.767 572.385 283.072C572.256 283.789 572.067 284.495 571.82 285.18Z" fill="#263238"/>
<path d="M589.559 269.654C589.559 269.758 586.082 269.479 581.834 269.026C577.585 268.572 574.133 268.127 574.148 268.023C576.732 268.101 579.311 268.308 581.874 268.644C586.13 269.097 589.567 269.551 589.559 269.654Z" fill="#263238"/>
<path d="M587.017 311.644C587.017 311.748 574.861 311.835 559.864 311.835C544.868 311.835 532.703 311.748 532.703 311.644C532.703 311.541 544.86 311.445 559.864 311.445C574.869 311.445 587.017 311.501 587.017 311.644Z" fill="#455A64"/>
<path d="M578.557 327.253C578.557 327.365 570.363 327.452 560.259 327.452C550.155 327.452 541.961 327.365 541.961 327.253C541.961 327.142 550.155 327.062 560.259 327.062C570.363 327.062 578.557 327.15 578.557 327.253Z" fill="#455A64"/>
<path d="M578.241 329.496C578.241 329.599 570.19 329.687 560.261 329.687C550.332 329.687 542.281 329.599 542.281 329.496C542.281 329.392 550.332 329.297 560.261 329.297C570.19 329.297 578.241 329.384 578.241 329.496Z" fill="#455A64"/>
<path d="M578.877 325.41C578.877 325.513 570.404 325.601 559.95 325.601C549.496 325.601 541.023 325.513 541.023 325.41C541.023 325.306 549.496 325.211 559.95 325.211C570.404 325.211 578.877 325.298 578.877 325.41Z" fill="#455A64"/>
<path d="M332.949 15.4503C325.853 13.8592 316.743 18.7917 314.293 25.4268C311.843 32.062 314.5 40.2723 319.862 44.9105C315.693 50.2727 315.518 58.2444 319.066 64.0521C322.615 69.8598 329.409 73.3444 336.211 73.3046C339.615 73.2122 342.961 72.4002 346.028 70.922C349.095 69.4438 351.815 67.333 354.008 64.7283C356.903 66.1547 360.138 66.7477 363.351 66.4411C366.563 66.1345 369.628 64.9404 372.201 62.9923C374.774 61.0441 376.754 58.4187 377.921 55.4096C379.087 52.4004 379.394 49.1261 378.806 45.9527C386.826 43.017 391.249 32.7302 387.844 24.8381C384.439 16.946 373.906 13.167 366.26 17.0335C366.427 8.46515 358.957 0.469609 350.396 0.0559092C341.836 -0.35779 333.626 6.90582 332.949 15.4503Z" fill="#FAFAFA"/>
<path d="M332.953 15.4501H332.833C332.833 15.4103 332.833 15.4501 332.833 15.4501H332.881H332.992H333.12C333.12 15.5137 333.032 15.4501 332.984 15.5058C333.097 13.7884 333.498 12.1021 334.17 10.5175C334.8 9.08859 335.618 7.75068 336.604 6.53964C337.864 4.97233 339.378 3.62768 341.083 2.56176C343.13 1.25715 345.439 0.420443 347.846 0.11138L348.824 0H349.835C350.524 0.00370259 351.213 0.0542041 351.895 0.151158C353.319 0.359599 354.708 0.761078 356.024 1.34452C356.373 1.48308 356.711 1.64797 357.035 1.83778C357.361 2.02076 357.703 2.19579 358.029 2.39469C358.685 2.81227 359.314 3.26924 359.915 3.76308C360.531 4.26189 361.121 4.79302 361.681 5.35423C362.229 5.96246 362.744 6.59985 363.224 7.26361C365.297 10.096 366.411 13.5157 366.407 17.0253L366.168 16.8742C369.713 15.204 373.75 14.9009 377.505 16.0229C381.591 17.1123 385.1 19.7371 387.298 23.3502C388.374 25.3092 389.011 27.4782 389.166 29.7075C389.321 31.9368 388.991 34.1733 388.197 36.2624C387.423 38.4472 386.222 40.4565 384.665 42.1735C383.073 43.9422 381.082 45.3058 378.857 46.1514L378.993 45.9207C379.579 49.3009 379.179 52.7786 377.839 55.937C376.487 59.2016 374.173 61.9768 371.204 63.8927C368.634 65.4955 365.703 66.4266 362.679 66.6004C359.655 66.7742 356.637 66.185 353.9 64.8872L354.147 64.8395C350.412 69.2169 345.275 72.1636 339.611 73.1771C334.254 74.0805 328.755 72.8621 324.281 69.78C322.182 68.3418 320.395 66.4934 319.03 64.3462C317.747 62.2747 316.913 59.9576 316.58 57.5441C316.245 55.2501 316.359 52.9131 316.914 50.6623C317.449 48.5344 318.409 46.537 319.738 44.791V45.0058C317.293 42.82 315.438 40.0539 314.344 36.9625C313.832 35.5508 313.498 34.081 313.35 32.5868C313.185 31.1817 313.21 29.761 313.421 28.3623C313.756 25.8248 314.826 23.4409 316.5 21.5044C317.899 19.886 319.571 18.5261 321.441 17.4868C322.929 16.6495 324.52 16.0103 326.174 15.5853C327.387 15.2797 328.631 15.1142 329.882 15.0921C330.652 15.0799 331.422 15.1411 332.181 15.2751C332.69 15.3626 332.976 15.4262 332.976 15.4262L332.181 15.3228C331.423 15.2098 330.656 15.1645 329.89 15.1876C328.648 15.2259 327.415 15.4047 326.214 15.7206C324.579 16.1681 323.009 16.8259 321.544 17.6777C319.705 18.711 318.06 20.0572 316.683 21.6556C315.049 23.5672 314.009 25.915 313.692 28.41C313.487 29.7854 313.465 31.1819 313.628 32.5629C313.794 34.0418 314.138 35.4951 314.654 36.8909C315.738 39.9307 317.572 42.648 319.985 44.791L320.096 44.8864L320.009 45.0058C318.711 46.7201 317.775 48.6795 317.256 50.7657C316.718 52.9761 316.61 55.2691 316.938 57.5202C317.263 59.8813 318.076 62.1489 319.324 64.1792C320.667 66.2798 322.421 68.0875 324.48 69.4936C328.877 72.5098 334.274 73.6993 339.532 72.8112C345.113 71.8121 350.174 68.9075 353.852 64.5929L353.956 64.4735L354.099 64.5451C356.773 65.8084 359.721 66.3807 362.673 66.2098C365.625 66.0388 368.487 65.13 370.997 63.5666C373.899 61.6841 376.158 58.9615 377.473 55.762C378.789 52.6812 379.182 49.2841 378.603 45.9843V45.8173L378.77 45.7616C380.887 44.9049 382.793 43.6013 384.36 41.9399C385.927 40.2785 387.116 38.2985 387.847 36.1351C388.627 34.1011 388.955 31.9217 388.808 29.7483C388.661 27.5749 388.043 25.4596 386.996 23.5491C384.852 20.0243 381.433 17.4603 377.449 16.3889C373.78 15.285 369.833 15.5768 366.367 17.2083L366.12 17.3277V17.0572C366.122 13.6268 365.036 10.2842 363.017 7.51024C362.546 6.85451 362.038 6.22506 361.498 5.62472C360.953 5.06155 360.377 4.53028 359.771 4.03357C359.182 3.54514 358.563 3.09346 357.918 2.68109C357.592 2.4822 357.265 2.30717 356.939 2.12419C356.62 1.93609 356.288 1.77124 355.945 1.63093C354.651 1.03884 353.284 0.624044 351.879 0.397788C351.21 0.304815 350.535 0.254327 349.859 0.246628H348.864L347.893 0.350053C345.519 0.641747 343.239 1.45694 341.219 2.73678C338.184 4.58243 335.768 7.29152 334.281 10.5175C333.58 12.0812 333.132 13.746 332.953 15.4501C333.008 15.4501 333.08 15.3944 333.104 15.4501H332.968H332.865H332.809H332.953Z" fill="#263238"/>
<path d="M343.871 24.9584C345.537 24.0732 347.463 23.7113 349.366 23.9262C350.506 24.0943 351.597 24.4742 352.577 25.0434C353.557 25.6126 354.404 26.3594 355.069 27.2399C355.717 28.0525 356.183 28.9786 356.439 29.9631C356.695 30.9475 356.736 31.97 356.559 32.9696C356.34 33.9639 355.905 34.9058 355.281 35.737C354.657 36.5681 353.857 37.2709 352.93 37.8017C351.436 38.6982 349.682 39.1423 347.908 39.0733L348.052 45.8053C348.035 46.1066 347.896 46.3906 347.664 46.6004C347.432 46.8103 347.124 46.9306 346.801 46.9372C346.478 46.9438 346.164 46.8363 345.922 46.6361C345.68 46.436 345.529 46.1579 345.497 45.8577L345.313 37.6895C345.31 37.5045 345.352 37.3213 345.437 37.1541C345.522 36.9868 345.646 36.8399 345.801 36.7246C345.956 36.6098 346.137 36.5304 346.33 36.4927C346.524 36.455 346.724 36.4602 346.915 36.5076C347.703 36.6881 348.522 36.7149 349.321 36.5862C350.121 36.4575 350.883 36.1761 351.561 35.7596C352.189 35.4047 352.734 34.9338 353.161 34.3756C353.588 33.8174 353.888 33.1837 354.044 32.5133C354.158 31.8307 354.123 31.1336 353.942 30.4638C353.76 29.7941 353.435 29.1656 352.986 28.6162C352.523 27.9931 351.93 27.4643 351.241 27.0619C350.553 26.6594 349.784 26.3917 348.981 26.2749C345.938 25.8785 342.573 27.9879 341.676 30.8752C341.579 31.1797 341.357 31.4359 341.058 31.5874C340.759 31.7389 340.408 31.7733 340.082 31.683C339.756 31.5927 339.482 31.3852 339.319 31.106C339.157 30.8269 339.12 30.499 339.217 30.1945C339.984 27.9522 341.652 26.0751 343.871 24.9584Z" fill="#FF725E"/>
<path d="M349.19 51.6271C349.204 51.3441 349.134 51.0632 348.988 50.8202C348.842 50.5771 348.628 50.3829 348.371 50.2619C348.115 50.141 347.828 50.0988 347.548 50.1408C347.268 50.1828 347.006 50.307 346.797 50.4977C346.587 50.6884 346.439 50.937 346.37 51.2121C346.302 51.4872 346.317 51.7764 346.413 52.043C346.509 52.3096 346.682 52.5417 346.911 52.7098C347.139 52.878 347.412 52.9746 347.695 52.9876C348.073 53.0049 348.443 52.8714 348.724 52.6164C349.004 52.3614 349.172 52.0057 349.19 51.6271Z" fill="#FF725E"/>
<path d="M303.703 55.2454C302.338 55.0941 300.958 55.3508 299.738 55.9829C298.519 56.6151 297.513 57.5944 296.85 58.7973C296.186 60.0002 295.893 61.3727 296.009 62.7417C296.125 64.1107 296.643 65.4147 297.499 66.4892C298.355 67.5637 299.511 68.3606 300.819 68.7792C302.128 69.1978 303.531 69.2194 304.852 68.8412C306.172 68.4631 307.352 67.7021 308.24 66.6545C309.129 65.6068 309.687 64.3193 309.845 62.9545C309.986 61.1311 309.431 59.322 308.291 57.8916C307.151 56.4611 305.512 55.5156 303.703 55.2454Z" fill="#FAFAFA"/>
<path d="M303.749 55.2498C304.322 55.2695 304.888 55.3907 305.419 55.6078C306.66 56.1114 307.743 56.9389 308.554 58.0039C309.366 59.0689 309.877 60.3323 310.034 61.6621C310.148 62.9254 309.891 64.1945 309.294 65.3138C308.976 65.9167 308.574 66.4713 308.1 66.9606C307.613 67.4793 307.053 67.9241 306.438 68.2813C305.158 69.0918 303.639 69.4399 302.134 69.2677C300.628 69.0954 299.227 68.4133 298.164 67.3346C297.64 66.8516 297.195 66.2908 296.843 65.6718C296.485 65.0923 296.217 64.462 296.047 63.8022C295.713 62.5782 295.749 61.2824 296.151 60.0789C296.6 58.8174 297.381 57.7003 298.411 56.8449C299.442 55.9895 300.684 55.4275 302.006 55.2179C302.569 55.1149 303.146 55.1149 303.709 55.2179C303.709 55.2736 303.096 55.1702 302.03 55.3532C300.525 55.6431 299.147 56.397 298.092 57.5092C297.37 58.2619 296.826 59.1673 296.501 60.1585C296.136 61.2992 296.114 62.5217 296.437 63.6749C296.795 64.9532 297.497 66.1088 298.466 67.0163C299.47 68.028 300.788 68.6675 302.204 68.8295C303.62 68.9914 305.048 68.6662 306.255 67.9074C306.844 67.5729 307.381 67.1519 307.846 66.6583C308.298 66.1991 308.681 65.6765 308.983 65.1069C309.564 64.0595 309.822 62.8636 309.723 61.6701C309.617 60.6264 309.283 59.6188 308.745 58.7185C307.964 57.401 306.794 56.3585 305.395 55.735C304.857 55.5397 304.307 55.3777 303.749 55.2498Z" fill="#263238"/>
<path d="M290.165 70.3776C289.576 70.3124 288.981 70.4231 288.455 70.6957C287.929 70.9684 287.495 71.3908 287.209 71.9097C286.923 72.4285 286.797 73.0206 286.847 73.6111C286.896 74.2016 287.12 74.7641 287.489 75.2276C287.859 75.6911 288.357 76.0348 288.921 76.2154C289.486 76.396 290.091 76.4053 290.661 76.2422C291.23 76.0791 291.739 75.7509 292.122 75.299C292.506 74.8471 292.747 74.2918 292.815 73.7031C292.876 72.9165 292.636 72.136 292.145 71.5189C291.653 70.9018 290.946 70.494 290.165 70.3776Z" fill="#FAFAFA"/>
<path d="M290.182 70.3857C290.434 70.3498 290.692 70.3885 290.922 70.4971C291.475 70.7072 291.959 71.0643 292.324 71.5298C292.688 71.9952 292.919 72.5515 292.991 73.1384C293.045 73.7048 292.932 74.2749 292.664 74.7773C292.368 75.3507 291.904 75.8204 291.335 76.1242C290.765 76.4279 290.117 76.5513 289.476 76.4779C288.834 76.4046 288.23 76.1379 287.744 75.7134C287.258 75.2889 286.912 74.7265 286.753 74.101C286.607 73.5507 286.626 72.9696 286.809 72.4303C286.981 71.973 287.252 71.5598 287.604 71.221C288.099 70.7288 288.742 70.4129 289.434 70.322C289.684 70.275 289.942 70.2942 290.182 70.3777C290.182 70.4175 289.912 70.3777 289.466 70.4811C288.835 70.6254 288.262 70.9551 287.819 71.4279C287.49 71.7583 287.253 72.1701 287.134 72.6215C287.016 73.0729 287.019 73.5477 287.143 73.9976C287.271 74.5577 287.57 75.0643 287.998 75.4476C288.426 75.8308 288.963 76.0718 289.533 76.1372C290.104 76.2027 290.681 76.0894 291.185 75.8131C291.689 75.5367 292.095 75.1109 292.346 74.5943C292.569 74.1839 292.679 73.7217 292.665 73.2549C292.651 72.7881 292.514 72.3334 292.267 71.937C291.949 71.3719 291.462 70.921 290.874 70.6482C290.445 70.4493 290.174 70.4175 290.182 70.3857Z" fill="#263238"/>
</g>
<defs>
<clipPath id="clip0_2415_218">
<rect width="690" height="350" fill="white"/>
</clipPath>
</defs>
</svg>
