<svg width="690" height="350" viewBox="0 0 690 350" fill="none" xmlns="http://www.w3.org/2000/svg">
<g clip-path="url(#clip0_2010_219)">
<g opacity="0.3">
<path opacity="0.3" d="M462.773 295.926V283.568C462.773 282.217 461.712 281.104 460.372 281.032L454.239 280.723C453.456 277.806 452.301 275.054 450.827 272.498L455.146 267.726C455.94 266.839 455.909 265.499 455.064 264.654L445.921 255.501C445.076 254.666 443.726 254.625 442.85 255.419L438.077 259.738C435.521 258.264 432.769 257.109 429.852 256.326L429.564 250.657C429.481 249.049 428.152 247.781 426.544 247.781H415.113C413.505 247.781 412.175 249.049 412.093 250.657L411.804 256.326C408.887 257.109 406.135 258.264 403.579 259.738L399.075 255.666C398.044 254.728 396.457 254.77 395.478 255.759L386.84 264.396C385.851 265.376 385.82 266.963 386.748 267.994L390.819 272.498C389.345 275.054 388.191 277.806 387.407 280.723L381.481 281.022C380.017 281.094 378.873 282.3 378.873 283.764V295.71C378.873 297.173 380.017 298.379 381.481 298.451L387.407 298.75C388.191 301.667 389.345 304.419 390.819 306.975L386.562 311.686C385.738 312.603 385.769 314.005 386.645 314.881L395.674 323.91C396.55 324.786 397.952 324.817 398.869 323.992L403.579 319.735C406.135 321.209 408.887 322.364 411.804 323.147L412.114 329.331C412.175 330.651 413.268 331.681 414.587 331.681H427.049C428.368 331.681 429.45 330.651 429.522 329.331L429.832 323.147C432.738 322.364 435.501 321.209 438.057 319.735L442.705 323.941C443.654 324.796 445.107 324.765 446.014 323.858L454.93 314.943C455.837 314.036 455.867 312.582 455.012 311.634L450.807 306.986C452.281 304.429 453.435 301.677 454.218 298.76L460.351 298.451C461.712 298.389 462.773 297.276 462.773 295.926ZM422.39 309.171C410.403 310.109 400.467 300.183 401.405 288.185C402.136 278.744 409.784 271.096 419.215 270.344C431.233 269.385 441.19 279.342 440.232 291.36C439.479 300.791 431.831 308.429 422.39 309.171Z" fill="url(#paint0_linear_2010_219)"/>
</g>
<g opacity="0.3">
<path opacity="0.3" d="M193.071 282.679L189.572 285.713C187.56 284.598 185.429 283.762 183.233 283.205L182.985 278.581C182.931 277.631 182.124 276.898 181.134 276.898H171.436C170.446 276.898 169.639 277.642 169.585 278.581L169.337 283.205C167.141 283.773 165.01 284.609 163.008 285.713L159.467 282.658C158.714 282.008 157.562 282.028 156.841 282.72L150.06 289.233C149.339 289.924 149.317 291.029 149.995 291.751L153.192 295.137C152.03 297.067 151.158 299.111 150.576 301.216L145.701 301.454C144.753 301.505 144 302.248 144 303.167V312.591C144 313.499 144.743 314.252 145.701 314.304L150.576 314.541C151.168 316.647 152.04 318.691 153.192 320.621L150.135 323.872C149.382 324.677 149.414 325.906 150.211 326.669L156.712 332.904C157.508 333.667 158.789 333.698 159.629 332.976L163.019 330.044C165.032 331.159 167.163 331.995 169.348 332.553L169.585 337.032C169.639 338.054 170.521 338.859 171.587 338.859H180.994C182.06 338.859 182.942 338.054 182.996 337.032L183.233 332.553C185.429 331.985 187.56 331.149 189.572 330.044L192.812 332.852C193.738 333.647 195.137 333.616 196.02 332.769L202.241 326.803C203.113 325.967 203.156 324.615 202.327 323.728L199.4 320.621C200.562 318.691 201.434 316.647 202.015 314.541L206.966 314.304C207.881 314.263 208.592 313.54 208.592 312.663V303.115C208.592 302.238 207.87 301.516 206.966 301.474L202.015 301.237C201.423 299.131 200.551 297.088 199.4 295.168L202.564 291.803C203.264 291.06 203.231 289.935 202.499 289.222L195.772 282.771C195.019 282.039 193.835 282.008 193.071 282.679ZM185.977 296.902C193.038 302.672 193.038 313.065 185.977 318.835C180.424 323.366 172.103 323.366 166.56 318.825C159.521 313.055 159.521 302.692 166.56 296.922C172.103 292.371 180.424 292.371 185.977 296.902Z" fill="url(#paint1_linear_2010_219)"/>
</g>
<path d="M219.431 42C219.162 47.904 224.016 51.9088 227.353 56.1509C230.087 59.6293 231.292 63.6341 231.066 68.0208C230.786 73.6255 225.943 79.7565 219.657 79.4675C216.03 79.3023 212.639 79.5501 210.303 76.629C207.903 73.6255 208.129 69.6516 208.829 66.0907C210.454 57.823 215.405 49.5761 219.431 42Z" fill="url(#paint2_linear_2010_219)"/>
<path d="M213.845 27.7109C213.845 27.7109 222.455 29.8785 220.356 41.3252C218.365 52.1732 204.836 36.8559 204.836 36.8559L213.845 27.7109Z" fill="url(#paint3_linear_2010_219)"/>
<path d="M181.038 42.2108C181.457 50.241 181.856 55.9696 176.205 62.2864C172.943 65.9299 169.585 67.2614 164.763 69.7696C160.512 71.9784 151.438 79.379 155.98 92.3842C160.156 104.347 176.269 106.401 187.84 101.003C191.64 99.2275 195.062 98.3192 197.829 95.1608C200.089 92.5907 202.349 89.8141 203.792 86.7073C206.978 79.8435 209.195 71.101 207.709 63.5663C206.106 55.4225 200.95 49.0231 193.48 44.9873C191.338 43.8313 189.186 43.0469 186.818 42.5205C185.634 42.2624 183.954 41.6741 181.038 42.2108Z" fill="url(#paint4_linear_2010_219)"/>
<path d="M214.307 28.4522C214.307 28.4522 211.595 20.8245 196.817 22.156C191.941 22.5999 186.215 26.5737 183.578 30.7436C178.207 39.228 180.79 51.6862 190.574 58.8081C193.254 63.0503 196.397 62.7097 196.623 62.0388C196.86 61.3679 193.717 34.1394 193.717 34.1394L214.307 28.4522Z" fill="url(#paint5_linear_2010_219)"/>
<path d="M213.565 70.2306C213.565 70.2306 224.769 68.125 233.036 68.9095C236.545 69.2398 281.418 145.785 281.418 145.785L245.952 176.358C245.952 176.358 231.486 166.139 219.42 153.454C199.82 132.842 178.282 105.283 178.088 99.7505C177.776 90.8223 194.244 75.0715 197.968 74.4728C201.693 73.8742 213.565 70.2306 213.565 70.2306Z" fill="url(#paint6_linear_2010_219)"/>
<path opacity="0.3" d="M233.036 68.9098C231.733 68.786 230.367 68.7344 228.967 68.7344C230.076 75.1338 230.388 81.657 229.893 88.1287C228.461 106.966 220.087 125.957 204.76 137.177C209.528 142.73 214.533 148.304 219.42 153.444C231.486 166.129 245.952 176.348 245.952 176.348L281.418 145.775C281.418 145.785 236.545 69.2401 233.036 68.9098Z" fill="url(#paint7_linear_2010_219)"/>
<path d="M191.188 56.4385C191.188 56.4385 196.623 65.8106 194.137 77.3398C198.442 82.4697 210.314 79.1667 215.438 74.1401C213.048 70.5172 212.058 60.7426 212.058 60.7426L194.481 53.1562L191.188 56.4385Z" fill="url(#paint8_linear_2010_219)"/>
<path opacity="0.3" d="M200.423 63.2153C201.219 65.8886 202.898 68.2109 204.491 70.5023C206.235 73.0311 208.624 74.2078 211.799 74.3317C212.93 74.3729 214.157 74.3213 215.373 74.1871C215.394 74.1665 215.416 74.1459 215.427 74.1355C213.037 70.5126 212.047 60.7381 212.047 60.7381L199.874 55.4844C199.583 58.0751 199.68 60.7071 200.423 63.2153Z" fill="url(#paint9_linear_2010_219)"/>
<path d="M193.803 52.9386C193.803 52.9386 192.91 51.9994 191.661 51.5658C190.057 51.0085 187.819 51.4729 187.27 53.2689C186.279 56.448 189.498 61.423 193.34 61.5881C197.183 61.7533 196.429 58.8529 196.429 58.8529L193.803 52.9386Z" fill="url(#paint10_linear_2010_219)"/>
<path opacity="0.3" d="M193.308 54.023C193.308 54.023 192.705 53.3934 191.855 53.0941C190.768 52.7225 189.347 52.7741 188.97 53.9817C188.303 56.139 190.391 59.7618 192.985 59.8754C195.59 59.9889 195.073 58.0278 195.073 58.0278L193.308 54.023Z" fill="url(#paint11_linear_2010_219)"/>
<path d="M215.9 35.1961C218.925 39.0667 221.368 50.7817 220.152 59.1319C218.785 68.4523 207.419 70.3309 199.82 64.8501C195.493 61.7329 185.418 48.0258 190.542 37.6526C195.644 27.2691 212.876 31.3255 215.9 35.1961Z" fill="url(#paint12_linear_2010_219)"/>
<path d="M177.27 99.543C173.17 112.187 165.452 152.287 176.872 153.277C184.407 153.938 188.949 147.982 191.306 144.122C196.838 135.08 200.057 112.579 201.467 100.905C202.834 89.6136 184.977 75.8239 177.27 99.543Z" fill="url(#paint13_linear_2010_219)"/>
<path opacity="0.3" d="M188.777 127.035C187.054 132.341 189.778 136.17 193.965 138.348C196.365 131.794 198.195 122.886 199.518 114.742C194.212 115.496 190.154 122.803 188.777 127.035Z" fill="url(#paint14_linear_2010_219)"/>
<path d="M194.277 43.1046C194.277 43.1046 191.295 44.6425 192.888 49.215C194.406 53.5913 194.858 56.564 194.578 56.9149C193.782 57.8851 190.477 53.323 188.852 48.8434C187.302 44.5599 184.331 37.2212 190.789 30.8012C197.247 24.3811 212.682 22.4097 215.459 30.5225C221.153 47.1713 194.277 43.1046 194.277 43.1046Z" fill="url(#paint15_linear_2010_219)"/>
<path d="M525.965 263H255.035C244.519 263 236 255.822 236 246.983V67.0173C236 58.1681 244.531 51 255.035 51H525.965C536.481 51 545 58.1681 545 67.0173V246.972C545 255.822 536.481 263 525.965 263Z" fill="url(#paint16_linear_2010_219)"/>
<path opacity="0.5" d="M402.681 229.953H273.778C267.847 229.953 263.047 225.349 263.047 219.662V139.525C263.047 133.838 267.847 129.234 273.778 129.234H402.692C408.623 129.234 413.423 133.838 413.423 139.525V219.662C413.412 225.339 408.612 229.953 402.681 229.953Z" fill="url(#paint17_linear_2010_219)"/>
<path d="M405.028 228.406H276.114C270.194 228.406 265.383 223.802 265.383 218.115V137.978C265.383 132.291 270.194 127.688 276.114 127.688H405.028C410.958 127.688 415.759 132.291 415.759 137.978V218.115C415.759 223.802 410.958 228.406 405.028 228.406Z" fill="white"/>
<path d="M403.316 179.393C403.316 199.076 386.676 215.044 366.139 215.044C345.613 215.044 328.962 199.087 328.962 179.393C328.962 159.71 345.603 143.742 366.139 143.742C386.676 143.742 403.316 159.699 403.316 179.393Z" fill="#EDE5FC"/>
<path d="M368.54 142.094C348.014 142.094 331.363 158.051 331.363 177.745C331.363 197.428 348.003 213.396 368.54 213.396C377.301 213.396 385.341 210.485 391.703 205.623L368.54 177.755V142.094V142.094Z" fill="url(#paint18_linear_2010_219)"/>
<path d="M398.161 156.214C391.369 147.636 380.627 142.094 368.54 142.094V177.745L398.161 156.214Z" fill="url(#paint19_linear_2010_219)"/>
<path d="M398.161 156.214C391.369 147.636 380.627 142.094 368.54 142.094V177.745L398.161 156.214Z" fill="url(#paint20_linear_2010_219)"/>
<path d="M405.706 177.75C405.706 169.658 402.886 162.205 398.161 156.219L368.54 177.75L391.703 205.618C400.238 199.095 405.706 189.031 405.706 177.75Z" fill="url(#paint21_linear_2010_219)"/>
<path d="M332.848 143.336H271.528C271.001 143.336 270.581 142.933 270.581 142.427V141.963C270.581 141.457 271.012 141.055 271.528 141.055H332.848C333.375 141.055 333.795 141.468 333.795 141.963V142.427C333.806 142.923 333.375 143.336 332.848 143.336Z" fill="#EDE5FC"/>
<path d="M332.848 151.5H271.528C271.001 151.5 270.581 151.087 270.581 150.592V150.127C270.581 149.621 271.012 149.219 271.528 149.219H332.848C333.375 149.219 333.795 149.632 333.795 150.127V150.592C333.806 151.087 333.375 151.5 332.848 151.5Z" fill="#EDE5FC"/>
<path d="M309.803 159.666H271.528C271.001 159.666 270.581 159.264 270.581 158.758V158.283C270.581 157.778 271.012 157.375 271.528 157.375H309.803C310.331 157.375 310.75 157.788 310.75 158.283V158.748C310.75 159.264 310.32 159.666 309.803 159.666Z" fill="#EDE5FC"/>
<path d="M309.803 167.828H271.528C271.001 167.828 270.581 167.415 270.581 166.92V166.455C270.581 165.949 271.012 165.547 271.528 165.547H309.803C310.331 165.547 310.75 165.96 310.75 166.455V166.92C310.75 167.425 310.32 167.828 309.803 167.828Z" fill="#EDE5FC"/>
<path d="M333.634 141.867H272.314C271.787 141.867 271.367 141.454 271.367 140.959V140.494C271.367 139.988 271.797 139.586 272.314 139.586H333.634C334.161 139.586 334.591 139.999 334.591 140.494V140.959C334.581 141.454 334.15 141.867 333.634 141.867Z" fill="url(#paint22_linear_2010_219)"/>
<path d="M333.634 150.031H272.314C271.787 150.031 271.367 149.618 271.367 149.123V148.658C271.367 148.153 271.797 147.75 272.314 147.75H333.634C334.161 147.75 334.591 148.163 334.591 148.658V149.123C334.581 149.618 334.15 150.031 333.634 150.031Z" fill="url(#paint23_linear_2010_219)"/>
<path d="M310.578 158.195H272.314C271.787 158.195 271.367 157.782 271.367 157.287V156.822C271.367 156.317 271.797 155.914 272.314 155.914H310.589C311.116 155.914 311.536 156.327 311.536 156.822V157.287C311.536 157.782 311.106 158.195 310.578 158.195Z" fill="url(#paint24_linear_2010_219)"/>
<path d="M310.578 166.359H272.314C271.787 166.359 271.367 165.957 271.367 165.451V164.986C271.367 164.481 271.797 164.078 272.314 164.078H310.589C311.116 164.078 311.536 164.491 311.536 164.986V165.451C311.536 165.946 311.106 166.359 310.578 166.359Z" fill="url(#paint25_linear_2010_219)"/>
<path d="M508 66H235V61.8265C235 55.2919 240.51 50 247.314 50H495.686C502.49 50 508 55.2919 508 61.8265V66Z" fill="white"/>
<path d="M497.034 285.083H462.155C460.732 285.083 459.578 283.929 459.578 282.506C459.578 281.084 460.732 279.93 462.155 279.93H497.034C498.457 279.93 499.611 281.084 499.611 282.506C499.601 283.929 498.457 285.083 497.034 285.083Z" fill="white"/>
<path d="M285 49.1124C285 49.1124 297.836 40.2837 312.199 48.4981C326.562 56.723 313.918 61.7204 312.605 62.876C311.291 64.0317 306.475 56.7438 298.968 56.0983C291.461 55.4528 301.381 59.8776 300.409 61.5642C299.448 63.2612 287.061 60.0338 285 49.1124Z" fill="url(#paint26_linear_2010_219)"/>
<g opacity="0.4">
<path opacity="0.4" d="M526.739 129.405H483.48C482.852 129.405 482.336 128.89 482.336 128.261C482.336 127.633 482.852 127.117 483.48 127.117H526.739C527.368 127.117 527.884 127.633 527.884 128.261C527.884 128.89 527.368 129.405 526.739 129.405Z" fill="url(#paint27_linear_2010_219)"/>
<path opacity="0.4" d="M526.739 136.319H483.48C482.852 136.319 482.336 135.804 482.336 135.175C482.336 134.547 482.852 134.031 483.48 134.031H526.739C527.368 134.031 527.884 134.547 527.884 135.175C527.884 135.804 527.368 136.319 526.739 136.319Z" fill="url(#paint28_linear_2010_219)"/>
<path opacity="0.4" d="M526.739 143.241H483.48C482.852 143.241 482.336 142.726 482.336 142.097C482.336 141.468 482.852 140.953 483.48 140.953H526.739C527.368 140.953 527.884 141.468 527.884 142.097C527.884 142.726 527.368 143.241 526.739 143.241Z" fill="url(#paint29_linear_2010_219)"/>
<path opacity="0.4" d="M514.402 150.14H483.48C482.852 150.14 482.336 149.624 482.336 148.996C482.336 148.367 482.852 147.852 483.48 147.852H514.402C515.03 147.852 515.546 148.367 515.546 148.996C515.546 149.635 515.041 150.14 514.402 150.14Z" fill="url(#paint30_linear_2010_219)"/>
<path opacity="0.4" d="M505.95 157.062H483.48C482.852 157.062 482.336 156.546 482.336 155.918C482.336 155.289 482.852 154.773 483.48 154.773H505.95C506.579 154.773 507.094 155.289 507.094 155.918C507.094 156.546 506.579 157.062 505.95 157.062Z" fill="url(#paint31_linear_2010_219)"/>
</g>
<path d="M257.975 58.6713C257.975 61.0453 255.962 62.9754 253.486 62.9754C251.011 62.9754 248.998 61.0453 248.998 58.6713C248.998 56.2973 251.011 54.3672 253.486 54.3672C255.962 54.3672 257.975 56.287 257.975 58.6713Z" fill="url(#paint32_linear_2010_219)"/>
<path d="M269.158 58.6713C269.158 61.0453 267.145 62.9754 264.67 62.9754C262.194 62.9754 260.181 61.0453 260.181 58.6713C260.181 56.2973 262.194 54.3672 264.67 54.3672C267.145 54.3672 269.158 56.287 269.158 58.6713Z" fill="url(#paint33_linear_2010_219)"/>
<path d="M280.341 58.6713C280.341 61.0453 278.328 62.9754 275.853 62.9754C273.377 62.9754 271.365 61.0453 271.365 58.6713C271.365 56.2973 273.377 54.3672 275.853 54.3672C278.328 54.3672 280.341 56.287 280.341 58.6713Z" fill="url(#paint34_linear_2010_219)"/>
<path opacity="0.5" d="M286.67 120.789H251.151C248.514 120.789 246.372 118.735 246.372 116.207V82.1453C246.372 79.6165 248.514 77.5625 251.151 77.5625H286.67C289.307 77.5625 291.449 79.6165 291.449 82.1453V116.207C291.449 118.735 289.307 120.789 286.67 120.789Z" fill="url(#paint35_linear_2010_219)"/>
<path d="M289.199 119.102H253.68C251.043 119.102 248.901 117.048 248.901 114.519V80.4578C248.901 77.929 251.043 75.875 253.68 75.875H289.199C291.836 75.875 293.978 77.929 293.978 80.4578V114.519C293.989 117.058 291.847 119.102 289.199 119.102Z" fill="white"/>
<path d="M251.42 111.618H290.394L279.814 89.5196C279.329 88.5184 277.876 88.4359 277.284 89.3855L268.996 102.638L262.947 96.6416C262.302 95.9913 261.182 96.1152 260.698 96.8893L251.42 111.618Z" fill="url(#paint36_linear_2010_219)"/>
<path d="M270.374 87.7712C270.374 89.629 268.803 91.136 266.865 91.136C264.928 91.136 263.356 89.629 263.356 87.7712C263.356 85.9133 264.928 84.4063 266.865 84.4063C268.803 84.396 270.374 85.9029 270.374 87.7712Z" fill="url(#paint37_linear_2010_219)"/>
<path opacity="0.5" d="M338.625 120.789H303.117C300.48 120.789 298.338 118.735 298.338 116.207V82.1453C298.338 79.6165 300.48 77.5625 303.117 77.5625H338.625C341.262 77.5625 343.404 79.6165 343.404 82.1453V116.207C343.404 118.735 341.262 120.789 338.625 120.789Z" fill="url(#paint38_linear_2010_219)"/>
<path d="M341.155 119.102H305.635C302.998 119.102 300.856 117.048 300.856 114.519V80.4578C300.856 77.929 302.998 75.875 305.635 75.875H341.155C343.792 75.875 345.934 77.929 345.934 80.4578V114.519C345.945 117.058 343.803 119.102 341.155 119.102Z" fill="white"/>
<path d="M332.404 111.392C332.404 112.579 328.379 113.538 323.406 113.538C318.433 113.538 314.408 112.579 314.408 111.392C314.408 110.205 318.433 109.234 323.406 109.234C328.368 109.234 332.404 110.194 332.404 111.392Z" fill="url(#paint39_linear_2010_219)"/>
<path d="M331.166 103.104L323.406 110.608L315.645 103.104C311.362 98.9548 311.362 92.2457 315.645 88.0964C319.929 83.9574 326.882 83.9574 331.166 88.0964C335.45 92.2457 335.45 98.9651 331.166 103.104Z" fill="url(#paint40_linear_2010_219)"/>
<path d="M330.467 95.3067C330.467 98.9296 327.248 101.871 323.266 101.871C319.294 101.871 316.065 98.9296 316.065 95.3067C316.065 91.6839 319.283 88.7422 323.266 88.7422C327.248 88.7525 330.467 91.6839 330.467 95.3067Z" fill="white"/>
<path d="M228.44 121.34C228.44 121.34 230.313 118.842 233.434 116.241C240.097 110.698 251.14 103.328 252.518 103.855C254.466 104.608 253.626 105.661 253.013 106.507C252.399 107.354 242.798 115.198 242.798 115.198C242.798 115.198 248.244 123.187 248.223 125.695C248.201 128.204 241.496 134.314 231.443 133.158C221.379 132.012 228.44 121.34 228.44 121.34Z" fill="url(#paint41_linear_2010_219)"/>
<path d="M178.088 158.034C173.632 156.331 168.842 148.703 174.073 139.878C179.487 130.744 210.153 125.067 217.935 123.26C221.863 122.352 228.461 121 228.461 121C226.879 126.016 229.538 130.104 234.069 133.788C234.069 133.788 219.075 144.977 205.438 151.8C193.146 157.941 188.131 161.863 178.088 158.034Z" fill="url(#paint42_linear_2010_219)"/>
<path d="M414.175 43.846H380.161C377.636 43.846 375.585 41.7949 375.585 39.2697V5.25606C375.585 2.73081 377.636 0.679688 380.161 0.679688H414.175C416.711 0.679688 418.751 2.73081 418.751 5.25606V39.2697C418.751 41.7949 416.7 43.846 414.175 43.846Z" fill="#EDE5FC"/>
<path d="M416.608 42.1664H382.604C380.079 42.1664 378.028 40.1152 378.028 37.59V3.57638C378.028 1.05112 380.079 -1 382.604 -1H416.608C419.133 -1 421.184 1.05112 421.184 3.57638V37.59C421.184 40.1152 419.133 42.1664 416.608 42.1664Z" fill="white"/>
<path d="M398.611 42.2578V94.9995C398.611 97.5557 396.54 99.6274 393.983 99.6274H382.728" stroke="white" stroke-width="1.0878" stroke-miterlimit="10"/>
<path d="M386.469 99.763C386.469 101.927 384.717 103.69 382.542 103.69C380.378 103.69 378.615 101.938 378.615 99.763C378.615 97.5985 380.378 95.8359 382.542 95.8359C384.717 95.8462 386.469 97.5985 386.469 99.763Z" fill="white"/>
<path d="M390.407 24.9432H387.294C384.851 24.9432 382.872 22.9642 382.872 20.5214V19.8515C382.872 17.4087 384.851 15.4297 387.294 15.4297H390.407V24.9432Z" fill="url(#paint43_linear_2010_219)"/>
<path d="M403.827 33.1491L391.912 24.9343V15.4414L403.827 7.22656V33.1491Z" fill="url(#paint44_linear_2010_219)"/>
<path d="M411.083 29.3582L409.403 27.6369C411.402 25.6785 412.516 23.0605 412.516 20.2776C412.516 17.5565 411.454 14.9797 409.537 13.0419L411.248 11.3516C413.618 13.7428 414.917 16.9174 414.917 20.2776C414.927 23.7098 413.557 26.936 411.083 29.3582Z" fill="url(#paint45_linear_2010_219)"/>
<path d="M407.475 25.5843L405.785 23.8733C406.754 22.9147 407.29 21.6366 407.29 20.2658C407.29 18.9774 406.795 17.7405 405.888 16.7923L407.64 15.1328C408.97 16.5346 409.702 18.359 409.702 20.2658C409.702 22.2757 408.908 24.1619 407.475 25.5843Z" fill="url(#paint46_linear_2010_219)"/>
<path d="M550.914 306.379H444.555C438.721 306.379 434 301.648 434 295.824V104.555C434 98.7207 438.731 94 444.565 94H550.914C556.748 94 561.469 98.7207 561.469 104.555V295.814C561.469 301.648 556.748 306.379 550.914 306.379Z" fill="white"/>
<path d="M548.914 286.307H446.554C442.689 286.307 439.545 283.174 439.545 279.308V107.499C439.545 103.633 442.679 100.5 446.554 100.5H548.914C552.78 100.5 555.913 103.633 555.913 107.499V279.308C555.913 283.174 552.78 286.307 548.914 286.307Z" fill="url(#paint47_linear_2010_219)"/>
<path opacity="0.4" d="M479.795 281.84H449.894C447.1 281.84 444.843 279.583 444.843 276.8V248.579C444.843 245.796 447.1 243.539 449.894 243.539H479.795C482.578 243.539 484.835 245.796 484.835 248.579V276.8C484.845 279.583 482.588 281.84 479.795 281.84Z" fill="url(#paint48_linear_2010_219)"/>
<path d="M481.196 280.859H451.295C448.512 280.859 446.255 278.601 446.255 275.818V247.597C446.255 244.814 448.512 242.547 451.295 242.547H481.196C483.979 242.547 486.247 244.804 486.247 247.597V275.818C486.247 278.601 483.99 280.859 481.196 280.859Z" fill="white"/>
<path opacity="0.4" d="M526.496 281.335H496.606C493.823 281.335 491.555 279.078 491.555 276.285V248.064C491.555 245.281 493.812 243.023 496.606 243.023H526.507C529.29 243.023 531.547 245.281 531.547 248.064V276.285C531.547 279.068 529.29 281.335 526.496 281.335Z" fill="url(#paint49_linear_2010_219)"/>
<path d="M527.898 280.859H497.997C495.204 280.859 492.947 278.601 492.947 275.818V247.597C492.947 244.814 495.204 242.547 497.997 242.547H527.898C530.681 242.547 532.938 244.804 532.938 247.597V275.818C532.949 278.601 530.691 280.859 527.898 280.859Z" fill="white"/>
<path opacity="0.4" d="M537.845 232.09H449.306C446.894 232.09 444.946 230.142 444.946 227.73V189.079C444.946 186.667 446.894 184.719 449.306 184.719H537.845C540.257 184.719 542.205 186.677 542.205 189.079V227.73C542.215 230.142 540.257 232.09 537.845 232.09Z" fill="url(#paint50_linear_2010_219)"/>
<path d="M539.154 231.161H450.615C448.203 231.161 446.255 229.213 446.255 226.801V188.149C446.255 185.737 448.203 183.789 450.615 183.789H539.154C541.555 183.789 543.514 185.737 543.514 188.149V226.801C543.514 229.202 541.566 231.161 539.154 231.161Z" fill="white"/>
<path d="M538.205 192.569H494.946C494.317 192.569 493.802 192.054 493.802 191.425C493.802 190.797 494.317 190.281 494.946 190.281H538.205C538.834 190.281 539.349 190.797 539.349 191.425C539.349 192.054 538.834 192.569 538.205 192.569Z" fill="url(#paint51_linear_2010_219)"/>
<path d="M538.205 199.483H494.946C494.317 199.483 493.802 198.968 493.802 198.339C493.802 197.711 494.317 197.195 494.946 197.195H538.205C538.834 197.195 539.349 197.711 539.349 198.339C539.349 198.968 538.834 199.483 538.205 199.483Z" fill="url(#paint52_linear_2010_219)"/>
<path d="M525.868 206.405H494.936C494.307 206.405 493.792 205.89 493.792 205.261C493.792 204.633 494.307 204.117 494.936 204.117H525.868C526.496 204.117 527.012 204.633 527.012 205.261C527.012 205.89 526.496 206.405 525.868 206.405Z" fill="url(#paint53_linear_2010_219)"/>
<path d="M485.484 224.224H456.707C454.862 224.224 453.367 222.73 453.367 220.885V191.55C453.367 189.705 454.862 188.211 456.707 188.211H485.484C487.329 188.211 488.824 189.705 488.824 191.55V220.885C488.824 222.73 487.329 224.224 485.484 224.224Z" fill="url(#paint54_linear_2010_219)"/>
<path d="M455.418 218.064H486.855L478.331 199.47C477.939 198.625 476.764 198.563 476.29 199.357L469.611 210.509L464.736 205.469C464.21 204.922 463.314 205.025 462.922 205.675L455.418 218.064Z" fill="url(#paint55_linear_2010_219)"/>
<path d="M470.704 197.991C470.704 199.557 469.436 200.825 467.869 200.825C466.303 200.825 465.035 199.557 465.035 197.991C465.035 196.424 466.303 195.156 467.869 195.156C469.436 195.156 470.704 196.424 470.704 197.991Z" fill="url(#paint56_linear_2010_219)"/>
<path opacity="0.4" d="M545.647 122.485H448.162C446.338 122.485 444.854 121.001 444.854 119.176V110.652C444.854 108.828 446.338 107.344 448.162 107.344H545.647C547.472 107.344 548.956 108.828 548.956 110.652V119.176C548.966 121.011 547.482 122.485 545.647 122.485Z" fill="url(#paint57_linear_2010_219)"/>
<path d="M547.049 121.415H449.564C447.739 121.415 446.255 119.93 446.255 118.106V109.582C446.255 107.758 447.739 106.273 449.564 106.273H547.049C548.873 106.273 550.358 107.758 550.358 109.582V118.106C550.358 119.93 548.884 121.415 547.049 121.415Z" fill="white"/>
<path d="M547.307 141.374H504.047C503.419 141.374 502.903 140.859 502.903 140.23C502.903 139.601 503.419 139.086 504.047 139.086H547.307C547.935 139.086 548.451 139.601 548.451 140.23C548.451 140.859 547.946 141.374 547.307 141.374Z" fill="white"/>
<path d="M547.307 148.28H504.047C503.419 148.28 502.903 147.765 502.903 147.136C502.903 146.508 503.419 145.992 504.047 145.992H547.307C547.935 145.992 548.451 146.508 548.451 147.136C548.451 147.775 547.946 148.28 547.307 148.28Z" fill="white"/>
<path d="M547.307 155.194H504.047C503.419 155.194 502.903 154.679 502.903 154.05C502.903 153.422 503.419 152.906 504.047 152.906H547.307C547.935 152.906 548.451 153.422 548.451 154.05C548.451 154.679 547.946 155.194 547.307 155.194Z" fill="white"/>
<path d="M534.979 162.108H504.058C503.429 162.108 502.914 161.593 502.914 160.964C502.914 160.336 503.429 159.82 504.058 159.82H534.979C535.608 159.82 536.123 160.336 536.123 160.964C536.123 161.593 535.608 162.108 534.979 162.108Z" fill="white"/>
<path d="M526.527 169.03H504.058C503.429 169.03 502.914 168.515 502.914 167.886C502.914 167.258 503.429 166.742 504.058 166.742H526.527C527.156 166.742 527.671 167.258 527.671 167.886C527.671 168.515 527.156 169.03 526.527 169.03Z" fill="white"/>
<path opacity="0.4" d="M488.04 176.961H449.729C447.1 176.961 444.967 174.828 444.967 172.199V136.887C444.967 134.259 447.1 132.125 449.729 132.125H488.04C490.669 132.125 492.802 134.259 492.802 136.887V172.199C492.813 174.828 490.679 176.961 488.04 176.961Z" fill="url(#paint58_linear_2010_219)"/>
<path d="M489.329 176.031H451.017C448.389 176.031 446.255 173.898 446.255 171.27V135.957C446.255 133.329 448.389 131.195 451.017 131.195H489.329C491.957 131.195 494.091 133.329 494.091 135.957V171.27C494.091 173.898 491.957 176.031 489.329 176.031Z" fill="white"/>
<path d="M487.834 153.601C487.834 163.352 479.929 171.258 470.178 171.258C460.428 171.258 452.522 163.352 452.522 153.601C452.522 143.851 460.428 135.945 470.178 135.945C479.929 135.945 487.834 143.851 487.834 153.601Z" fill="url(#paint59_linear_2010_219)"/>
<path d="M476.105 146.294C476.105 149.572 473.445 152.231 470.178 152.231C466.9 152.231 464.251 149.572 464.251 146.294C464.251 143.016 466.911 140.367 470.178 140.367C473.445 140.357 476.105 143.016 476.105 146.294Z" fill="url(#paint60_linear_2010_219)"/>
<path d="M479.001 166.039H461.345C460.613 166.039 460.015 165.442 460.015 164.72V162.504C460.015 157.433 464.128 153.32 469.199 153.32H471.137C476.208 153.32 480.32 157.433 480.32 162.504V164.72C480.331 165.452 479.733 166.039 479.001 166.039Z" fill="url(#paint61_linear_2010_219)"/>
<path opacity="0.5" d="M123.73 272.552H70.7512C67.02 272.552 64 269.532 64 265.801V220.212C64 216.481 67.02 213.461 70.7512 213.461H123.73C127.461 213.461 130.481 216.481 130.481 220.212V265.801C130.481 269.532 127.461 272.552 123.73 272.552Z" fill="url(#paint62_linear_2010_219)"/>
<path d="M159.382 221.966C159.382 224.131 157.63 225.893 155.455 225.893C153.291 225.893 151.528 224.141 151.528 221.966C151.528 219.802 153.281 218.039 155.455 218.039C157.62 218.039 159.382 219.791 159.382 221.966Z" fill="white"/>
<path d="M127.616 269.359H73.2248C69.4936 269.359 66.4736 266.339 66.4736 262.607V215.751C66.4736 212.02 69.4936 209 73.2248 209H128.059C131.543 209 134.367 211.824 134.367 215.308V262.607C134.377 266.339 131.347 269.359 127.616 269.359Z" fill="white"/>
<path d="M92.695 228H87.9743L75.9355 239.431L87.9743 250.861H92.695L80.6562 239.431L92.695 228Z" fill="url(#paint63_linear_2010_219)"/>
<path d="M108.083 250.861H112.804L124.843 239.431L112.804 228H108.083L120.133 239.431L108.083 250.861Z" fill="url(#paint64_linear_2010_219)"/>
<path d="M97.8176 256.142H93.5608L102.961 222.727H107.218L97.8176 256.142Z" fill="url(#paint65_linear_2010_219)"/>
<path opacity="0.3" d="M559.095 86.4794H502.478C498.499 86.4794 495.283 83.2533 495.283 79.285V27.5225C495.283 23.5543 498.499 20.3281 502.478 20.3281H559.095C563.063 20.3281 566.289 23.5543 566.289 27.5225V79.285C566.289 83.2636 563.063 86.4794 559.095 86.4794Z" fill="url(#paint66_linear_2010_219)"/>
<path d="M560.816 84.141H505.601C501.241 84.141 497.706 80.6057 497.706 76.2457V25.8953C497.706 21.5354 501.241 18 505.601 18H560.816C565.176 18 568.712 21.5354 568.712 25.8953V76.256C568.712 80.616 565.176 84.141 560.816 84.141Z" fill="white"/>
<path d="M552.973 65.4648H513.455C512.187 65.4648 511.167 64.4444 511.167 63.1766V33.5538C511.167 32.286 512.197 31.2656 513.455 31.2656H552.973C554.24 31.2656 555.261 32.286 555.261 33.5538V63.1663C555.261 64.434 554.24 65.4648 552.973 65.4648Z" fill="url(#paint67_linear_2010_219)"/>
<path d="M528.153 48.918V42.208C528.153 41.2495 529.225 40.6826 530.019 41.2289L539.769 47.9388C540.46 48.413 540.46 49.4231 539.769 49.8972L530.019 56.6071C529.225 57.1534 528.153 56.5865 528.153 55.628V48.918Z" fill="white"/>
<path d="M497.52 49.2891H478.462C475.885 49.2891 473.793 51.3814 473.793 53.9582V85.9104" stroke="white" stroke-width="1.0878" stroke-miterlimit="10"/>
<path d="M477.854 85.7786C477.854 87.9431 476.102 89.7056 473.927 89.7056C471.763 89.7056 470 87.9534 470 85.7786C470 83.6141 471.763 81.8516 473.927 81.8516C476.102 81.8516 477.854 83.6141 477.854 85.7786Z" fill="white"/>
<path d="M195.281 256.738C195.281 256.738 174.034 306.973 186.627 315.839C198.532 324.231 206.583 315.55 209.672 310.957C216.937 300.192 221.468 275.637 225.559 261.837C229.659 248.047 207.907 228.178 195.281 256.738Z" fill="url(#paint68_linear_2010_219)"/>
<path d="M288.417 243.477C288.417 243.477 327.166 296.137 315.261 307.089C301.312 319.919 269.527 270.767 260.841 256.554C252.155 242.341 266.417 215.082 288.417 243.477Z" fill="url(#paint69_linear_2010_219)"/>
<path d="M226.463 232.365C226.463 232.365 209.23 238.32 205.549 243.667C201.265 249.901 208.649 279.277 208.315 291.27C207.971 303.264 207.282 350.764 207.282 350.764H285.834C281.604 327.107 282.583 234.285 272.261 232.22C272.261 232.22 260.464 229.124 251.165 228.959C241.865 228.794 226.463 232.365 226.463 232.365Z" fill="url(#paint70_linear_2010_219)"/>
<path d="M249.238 215.499C249.238 215.499 246.504 223.488 253.081 232.24C244.599 243.77 227.593 239.445 225.225 236.111C226.495 228.328 223.815 218.234 220.511 214.219C228.034 215.581 249.238 215.499 249.238 215.499Z" fill="url(#paint71_linear_2010_219)"/>
<path opacity="0.3" d="M235.902 227.708C240.283 231.413 246.278 231.568 251.606 230.009C246.989 222.186 249.249 215.507 249.249 215.507C249.249 215.507 240.337 215.538 232.027 215.188C232.027 219.615 232.221 224.59 235.902 227.708Z" fill="url(#paint72_linear_2010_219)"/>
<path d="M215.204 208.045C215.204 208.045 213.773 207.313 212.158 207.313C210.07 207.302 207.681 208.211 207.81 210.502C208.025 214.558 213.87 219.523 218.369 218.202C222.868 216.891 220.758 213.836 220.758 213.836L215.204 208.045Z" fill="url(#paint73_linear_2010_219)"/>
<path opacity="0.3" d="M214.957 209.589C214.957 209.589 213.988 209.094 212.89 209.094C211.48 209.084 209.855 209.703 209.941 211.251C210.092 213.997 214.042 217.362 217.088 216.464C220.134 215.576 218.702 213.512 218.702 213.512L214.957 209.589Z" fill="url(#paint74_linear_2010_219)"/>
<path d="M242.619 181.887C248 187.069 251.854 195.739 253.888 206.112C255.115 212.346 252.521 219.086 249.55 221.842C246.203 224.949 241.079 225.62 235.784 224.815C228.874 223.762 221.867 219.097 218.229 214.607C210.996 205.689 209.08 199.651 209.177 191.548C209.349 177.686 231.543 171.215 242.619 181.887Z" fill="url(#paint75_linear_2010_219)"/>
<path d="M194.893 319.908C187.897 319.753 180.901 316.182 185.648 301.659C189.307 290.481 214.365 280.077 222.222 275.989L232.06 272.016C231.672 277.847 235.644 281.646 241.531 284.536C241.531 284.536 232.77 292.979 222.028 303.92C211.437 314.726 203.719 320.114 194.893 319.908Z" fill="url(#paint76_linear_2010_219)"/>
<path d="M315.251 307.092C318.62 301.208 319.76 288.141 304.885 286.799C293.379 285.757 274.489 301.549 266.169 304.676L259.496 307.081C264.404 310.549 264.878 315.906 263.392 322.089C263.392 322.089 268.44 321.769 285.371 319.127C300.655 316.753 311.58 313.512 315.251 307.092Z" fill="url(#paint77_linear_2010_219)"/>
<path d="M251.735 179.425C252.887 182.067 251.122 184.782 247.053 188.085C243.577 190.913 230.661 197.323 223.826 195.331C222.674 203.134 219.424 206.829 217.443 206.746C217.034 209.451 219.822 213.476 218.218 214.612C217.335 215.231 213.353 208.625 211.728 208.243C207.788 207.314 208.402 203.867 206.4 198.592C204.678 194.041 204.258 187.404 207.067 183.254C208.079 181.758 210.651 177.97 217.152 177.051C220.123 169.114 233.33 168.464 238.841 171.219C242.899 173.253 244.868 176.783 245.654 177.051C247.032 177.526 251.133 178.032 251.735 179.425Z" fill="url(#paint78_linear_2010_219)"/>
<path d="M254.017 323.563L238.938 324.11C238.475 324.131 238.012 323.976 237.635 323.687C236.86 323.089 236.516 322.015 236.785 321.024L244.147 294.064C244.416 293.094 245.202 292.433 246.117 292.392L261.186 291.845C262.671 291.793 263.769 293.373 263.349 294.931L255.998 321.891C255.729 322.861 254.932 323.522 254.017 323.563Z" fill="url(#paint79_linear_2010_219)"/>
<path d="M256.288 323.451L241.316 323.988C239.81 324.04 238.679 322.43 239.11 320.84L246.429 293.983C246.698 292.992 247.505 292.311 248.442 292.28L263.414 291.743C264.921 291.692 266.051 293.292 265.62 294.892L258.301 321.748C258.032 322.729 257.225 323.41 256.288 323.451Z" fill="white"/>
<path d="M265.599 307.306C263.694 305.045 261.552 304.385 258.796 304.282C257.537 304.24 256.267 304.282 254.997 304.282C253.92 304.282 252.553 303.817 252.532 305.149C252.51 306.903 255.406 307.368 256.783 307.667C257.505 307.822 259.055 308.132 259.291 308.947C259.496 309.639 258.796 309.742 258.323 309.804C256.601 310 254.868 309.453 253.156 309.339C250.67 309.164 247.914 309.246 245.493 309.711C244.976 309.804 243.189 310.382 243.157 312.405C243.103 315.47 245.363 317.741 247.753 319.496C253.608 323.789 262.919 324.275 264.824 322.706C267.708 320.321 270.345 312.941 265.599 307.306Z" fill="url(#paint80_linear_2010_219)"/>
<path d="M232.038 271.489C232.038 271.489 246.924 264.749 249.475 266.101C252.015 267.453 263.263 282.915 261.003 284.267C258.699 285.65 251.456 276.134 251.456 276.134C251.456 276.134 248.065 287.384 238.873 283.865C229.681 280.335 232.038 271.489 232.038 271.489Z" fill="url(#paint81_linear_2010_219)"/>
<path d="M582.438 213.297C582.438 213.297 586.932 218.162 580.985 234.396C580.985 234.396 599.867 242.632 610.669 233.932C609.092 225.821 604.959 213.39 607.02 207.515C602.527 205.887 582.438 213.297 582.438 213.297Z" fill="url(#paint82_linear_2010_219)"/>
<path opacity="0.3" d="M605.176 207.039C604.557 212.193 593.807 222.603 583.108 227.375C585.582 216.728 582.438 213.306 582.438 213.306C582.438 213.306 597.198 207.379 605.176 207.039Z" fill="url(#paint83_linear_2010_219)"/>
<path d="M587.911 169.77C582.788 173.172 580.521 177.944 583.293 182.129C586.076 186.313 597.589 189.137 602.702 185.736C607.824 182.335 612.957 174.11 610.174 169.925C607.412 165.74 593.034 166.369 587.911 169.77Z" fill="url(#paint84_linear_2010_219)"/>
<path d="M591.817 174.632C584.86 177.301 579.305 187.814 577.789 197.4C577.367 200.07 576.109 211.036 579.098 213.562C583.036 216.881 592.013 215.561 595.714 214.376C600.661 212.789 603.918 209.387 606.639 204.749C614.4 191.587 615.751 185.732 610.185 178.311C604.629 170.89 596.497 172.838 591.817 174.632Z" fill="url(#paint85_linear_2010_219)"/>
<path d="M625.491 252.054C625.491 252.054 639.375 306.878 625.151 313.742C611.958 320.112 605.629 310.588 603.279 305.455C597.765 293.406 596.992 267.638 595.044 252.94C593.085 238.242 617.379 221.04 625.491 252.054Z" fill="url(#paint86_linear_2010_219)"/>
<path d="M603.887 228.936C610.927 230.75 621.615 234.11 623.821 254.044C626.542 278.606 614.122 301.323 613.844 305.549C612.751 322.298 619.873 345.757 619.873 345.757H553.722C551.516 330.348 548.868 300.519 558.329 268.701C567.791 236.872 575.048 233.997 580.459 231.255C587.406 227.73 598.053 227.431 603.887 228.936Z" fill="url(#paint87_linear_2010_219)"/>
<path opacity="0.3" d="M578.913 321.234C561.339 307.845 560.978 287.107 558.835 267.039C558.67 267.585 558.505 268.132 558.33 268.698C548.868 300.527 551.516 330.346 553.722 345.755H619.874C619.874 345.755 617.544 338.076 615.751 328.377C602.65 330.129 589.704 329.449 578.913 321.234Z" fill="url(#paint88_linear_2010_219)"/>
<path d="M582.026 265.718C570.75 276.241 546.002 303.937 532.273 296.124C526.604 292.898 531.933 281.199 535.324 276.674C543.271 266.068 559.206 243.537 571.894 235.868C584.407 228.303 605.454 243.846 582.026 265.718Z" fill="url(#paint89_linear_2010_219)"/>
<path d="M514.287 226.937C514.287 226.937 514.256 223.381 513.164 218.949C510.834 209.477 506.866 196.923 505.268 196.542C503.011 196.006 502.743 197.655 502.733 198.84C502.733 200.025 504.66 212.538 504.66 212.538C504.66 212.538 495.167 216.053 493.518 218.424C491.869 220.805 493.869 230.823 503.722 236.152C513.576 241.491 514.287 226.937 514.287 226.937Z" fill="url(#paint90_linear_2010_219)"/>
<path d="M533.314 296.51C539.88 298.726 545.878 298.983 547.157 283.306C548.136 271.237 524.543 238.944 518.915 232.1L514.503 226.586C512.597 232.317 506.196 237.089 499.661 237.676C499.661 237.676 514.802 290.264 533.314 296.51Z" fill="url(#paint91_linear_2010_219)"/>
<path d="M587.138 176.018C586.138 178.358 587.89 182.944 589.684 185.284C592.312 188.737 594.745 190.551 598.208 192.819C598.249 194.169 597.064 199.405 599.445 201.858C601.125 203.59 605.99 197.003 606.711 196.313C607.598 198.786 605.186 201.848 604.639 204.239C604.042 206.836 604.835 220.102 608.103 217.453C609.144 216.607 614.4 210.506 615.544 209.145C621.512 202.033 626.202 196.519 624.986 187.077C624.079 180.058 619.09 173.575 612.37 170.772C594.652 163.371 588.375 173.122 587.138 176.018Z" fill="url(#paint92_linear_2010_219)"/>
<path d="M602.691 197.587C602.743 197.463 602.815 197.36 602.908 197.268C603.227 196.958 604.073 196.206 605.155 195.814C606.948 195.165 609.36 195.701 609.979 197.793C611.081 201.504 607.577 207.307 603.279 207.503C598.981 207.698 599.826 204.318 599.826 204.318L602.691 197.587Z" fill="url(#paint93_linear_2010_219)"/>
<path opacity="0.3" d="M603.475 198.732C603.475 198.732 604.145 197.99 605.093 197.65C606.309 197.207 607.907 197.269 608.319 198.681C609.072 201.196 606.732 205.422 603.825 205.556C600.919 205.69 601.485 203.391 601.485 203.391L603.475 198.732Z" fill="url(#paint94_linear_2010_219)"/>
<path d="M144 237.821H161.007C163.223 237.821 165.027 236.018 165.027 233.801V221" stroke="white" stroke-width="1.0878" stroke-miterlimit="10"/>
<path d="M111.247 78.8295C111.247 73.2018 106.568 68.6461 100.806 68.6461C99.6308 68.6461 98.497 68.8419 97.4457 69.1923C96.8376 69.2954 96.281 69.5016 95.7656 69.9035C95.6316 69.9757 95.5182 70.0478 95.3842 70.1303C94.9513 64.3789 89.8699 59.8438 83.6341 59.8438C77.12 59.8438 71.8427 64.8015 71.8427 70.9239C71.8427 71.3053 71.8633 71.697 71.9046 72.068C70.6059 71.2435 69.0701 70.759 67.4106 70.759C62.7724 70.759 59 74.5211 59 79.1697C59 82.1175 60.5255 84.7149 62.824 86.2094C62.8755 86.261 62.9167 86.3022 62.9476 86.3331H107.835C109.938 84.4675 111.247 81.798 111.247 78.8295Z" fill="#EDE5FC"/>
<path d="M88.9938 90.8033V76.7031H81.284V90.8033H78.2434L85.1389 96.699L92.0241 90.8033H88.9938Z" fill="#EDE5FC"/>
<path d="M112.37 77.9858C112.37 72.3581 107.691 67.8023 101.929 67.8023C100.754 67.8023 99.6205 67.9981 98.5692 68.3486C97.9611 68.4517 97.4045 68.6578 96.8891 69.0598C96.7552 69.1319 96.6418 69.2041 96.5078 69.2865C96.0749 63.5351 90.9935 59 84.7576 59C78.2435 59 72.9662 63.9577 72.9662 70.0802C72.9662 70.4719 72.9869 70.8532 73.0281 71.2243C71.7294 70.3997 70.1936 69.9153 68.5342 69.9153C63.896 69.9153 60.1235 73.6774 60.1235 78.3259C60.1235 81.2738 61.649 83.8712 63.9475 85.3657C63.999 85.4172 64.0403 85.4585 64.0712 85.4894H108.959C111.061 83.6238 112.37 80.9542 112.37 77.9858Z" fill="white"/>
<path d="M90.107 89.9596V75.8594H82.4076V89.9596H79.3669L86.2521 95.8553L93.1476 89.9596H90.107Z" fill="url(#paint95_linear_2010_219)"/>
</g>
<defs>
<linearGradient id="paint0_linear_2010_219" x1="420.827" y1="303.253" x2="420.827" y2="248.505" gradientUnits="userSpaceOnUse">
<stop stop-color="#B493F9"/>
<stop offset="1" stop-color="#651AEC"/>
</linearGradient>
<linearGradient id="paint1_linear_2010_219" x1="168.932" y1="300.819" x2="197.487" y2="330.597" gradientUnits="userSpaceOnUse">
<stop stop-color="#B493F9"/>
<stop offset="1" stop-color="#651AEC"/>
</linearGradient>
<linearGradient id="paint2_linear_2010_219" x1="230.835" y1="14.8363" x2="220.775" y2="67.6204" gradientUnits="userSpaceOnUse">
<stop stop-color="#651AEC"/>
<stop offset="1" stop-color="#1E0233"/>
</linearGradient>
<linearGradient id="paint3_linear_2010_219" x1="218.131" y1="12.4112" x2="208.071" y2="65.1956" gradientUnits="userSpaceOnUse">
<stop stop-color="#651AEC"/>
<stop offset="1" stop-color="#1E0233"/>
</linearGradient>
<linearGradient id="paint4_linear_2010_219" x1="195.937" y1="8.09549" x2="185.854" y2="61.0033" gradientUnits="userSpaceOnUse">
<stop stop-color="#651AEC"/>
<stop offset="1" stop-color="#1E0233"/>
</linearGradient>
<linearGradient id="paint5_linear_2010_219" x1="202.546" y1="9.4399" x2="192.486" y2="62.2243" gradientUnits="userSpaceOnUse">
<stop stop-color="#651AEC"/>
<stop offset="1" stop-color="#1E0233"/>
</linearGradient>
<linearGradient id="paint6_linear_2010_219" x1="220.132" y1="105.871" x2="254.42" y2="158.995" gradientUnits="userSpaceOnUse">
<stop stop-color="#F9B546"/>
<stop offset="1" stop-color="#F4642C"/>
</linearGradient>
<linearGradient id="paint7_linear_2010_219" x1="220.9" y1="105.375" x2="255.188" y2="158.499" gradientUnits="userSpaceOnUse">
<stop stop-color="#F9B546"/>
<stop offset="1" stop-color="#F4642C"/>
</linearGradient>
<linearGradient id="paint8_linear_2010_219" x1="207.089" y1="88.1477" x2="203.545" y2="67.4274" gradientUnits="userSpaceOnUse">
<stop stop-color="#FCCAC0"/>
<stop offset="1" stop-color="#F76F54"/>
</linearGradient>
<linearGradient id="paint9_linear_2010_219" x1="211.358" y1="87.3707" x2="207.818" y2="66.6734" gradientUnits="userSpaceOnUse">
<stop stop-color="#FCCAC0"/>
<stop offset="1" stop-color="#F76F54"/>
</linearGradient>
<linearGradient id="paint10_linear_2010_219" x1="190.398" y1="51.3129" x2="193.337" y2="64.7265" gradientUnits="userSpaceOnUse">
<stop stop-color="#FCCAC0"/>
<stop offset="1" stop-color="#F76F54"/>
</linearGradient>
<linearGradient id="paint11_linear_2010_219" x1="191.033" y1="52.8079" x2="193.051" y2="62.0213" gradientUnits="userSpaceOnUse">
<stop stop-color="#FCCAC0"/>
<stop offset="1" stop-color="#F76F54"/>
</linearGradient>
<linearGradient id="paint12_linear_2010_219" x1="200.935" y1="31.3251" x2="211.163" y2="78.0043" gradientUnits="userSpaceOnUse">
<stop stop-color="#FCCAC0"/>
<stop offset="1" stop-color="#F76F54"/>
</linearGradient>
<linearGradient id="paint13_linear_2010_219" x1="184.028" y1="111.577" x2="195.629" y2="165.514" gradientUnits="userSpaceOnUse">
<stop stop-color="#F9B546"/>
<stop offset="1" stop-color="#F4642C"/>
</linearGradient>
<linearGradient id="paint14_linear_2010_219" x1="190.885" y1="110.097" x2="202.486" y2="164.034" gradientUnits="userSpaceOnUse">
<stop stop-color="#F9B546"/>
<stop offset="1" stop-color="#F4642C"/>
</linearGradient>
<linearGradient id="paint15_linear_2010_219" x1="207.098" y1="10.3137" x2="197.039" y2="63.097" gradientUnits="userSpaceOnUse">
<stop stop-color="#651AEC"/>
<stop offset="1" stop-color="#1E0233"/>
</linearGradient>
<linearGradient id="paint16_linear_2010_219" x1="391.876" y1="84.195" x2="390.098" y2="216.89" gradientUnits="userSpaceOnUse">
<stop stop-color="#B493F9"/>
<stop offset="1" stop-color="#651AEC"/>
</linearGradient>
<linearGradient id="paint17_linear_2010_219" x1="335.252" y1="137.465" x2="341.983" y2="241.076" gradientUnits="userSpaceOnUse">
<stop stop-color="#B493F9"/>
<stop offset="1" stop-color="#651AEC"/>
</linearGradient>
<linearGradient id="paint18_linear_2010_219" x1="360.941" y1="161.589" x2="361.659" y2="201.822" gradientUnits="userSpaceOnUse">
<stop stop-color="#B493F9"/>
<stop offset="1" stop-color="#651AEC"/>
</linearGradient>
<linearGradient id="paint19_linear_2010_219" x1="382.061" y1="81.8247" x2="384.485" y2="256.294" gradientUnits="userSpaceOnUse">
<stop stop-color="#B493F9"/>
<stop offset="1" stop-color="#651AEC"/>
</linearGradient>
<linearGradient id="paint20_linear_2010_219" x1="382.327" y1="99.4753" x2="383.768" y2="203.158" gradientUnits="userSpaceOnUse">
<stop stop-color="#23D0DC"/>
<stop offset="1" stop-color="#2790F1"/>
</linearGradient>
<linearGradient id="paint21_linear_2010_219" x1="388.803" y1="152.832" x2="385.931" y2="200.189" gradientUnits="userSpaceOnUse">
<stop stop-color="#F9B546"/>
<stop offset="1" stop-color="#F4642C"/>
</linearGradient>
<linearGradient id="paint22_linear_2010_219" x1="271.357" y1="140.718" x2="334.582" y2="140.718" gradientUnits="userSpaceOnUse">
<stop stop-color="#23D0DC"/>
<stop offset="1" stop-color="#2790F1"/>
</linearGradient>
<linearGradient id="paint23_linear_2010_219" x1="271.357" y1="148.882" x2="334.582" y2="148.882" gradientUnits="userSpaceOnUse">
<stop stop-color="#23D0DC"/>
<stop offset="1" stop-color="#2790F1"/>
</linearGradient>
<linearGradient id="paint24_linear_2010_219" x1="271.357" y1="157.048" x2="311.532" y2="157.048" gradientUnits="userSpaceOnUse">
<stop stop-color="#23D0DC"/>
<stop offset="1" stop-color="#2790F1"/>
</linearGradient>
<linearGradient id="paint25_linear_2010_219" x1="271.357" y1="165.212" x2="311.532" y2="165.212" gradientUnits="userSpaceOnUse">
<stop stop-color="#23D0DC"/>
<stop offset="1" stop-color="#2790F1"/>
</linearGradient>
<linearGradient id="paint26_linear_2010_219" x1="301.662" y1="45.6453" x2="302.415" y2="61.3931" gradientUnits="userSpaceOnUse">
<stop stop-color="#FCCAC0"/>
<stop offset="1" stop-color="#F76F54"/>
</linearGradient>
<linearGradient id="paint27_linear_2010_219" x1="482.333" y1="128.261" x2="527.881" y2="128.261" gradientUnits="userSpaceOnUse">
<stop stop-color="#23D0DC"/>
<stop offset="1" stop-color="#2790F1"/>
</linearGradient>
<linearGradient id="paint28_linear_2010_219" x1="482.333" y1="135.172" x2="527.881" y2="135.172" gradientUnits="userSpaceOnUse">
<stop stop-color="#23D0DC"/>
<stop offset="1" stop-color="#2790F1"/>
</linearGradient>
<linearGradient id="paint29_linear_2010_219" x1="482.333" y1="142.092" x2="527.881" y2="142.092" gradientUnits="userSpaceOnUse">
<stop stop-color="#23D0DC"/>
<stop offset="1" stop-color="#2790F1"/>
</linearGradient>
<linearGradient id="paint30_linear_2010_219" x1="482.333" y1="148.999" x2="515.548" y2="148.999" gradientUnits="userSpaceOnUse">
<stop stop-color="#23D0DC"/>
<stop offset="1" stop-color="#2790F1"/>
</linearGradient>
<linearGradient id="paint31_linear_2010_219" x1="482.333" y1="155.918" x2="507.093" y2="155.918" gradientUnits="userSpaceOnUse">
<stop stop-color="#23D0DC"/>
<stop offset="1" stop-color="#2790F1"/>
</linearGradient>
<linearGradient id="paint32_linear_2010_219" x1="253.482" y1="38.4542" x2="253.482" y2="70.6447" gradientUnits="userSpaceOnUse">
<stop stop-color="#EDE5FC"/>
<stop offset="1" stop-color="#DCD0F7"/>
</linearGradient>
<linearGradient id="paint33_linear_2010_219" x1="264.665" y1="38.4542" x2="264.665" y2="70.6447" gradientUnits="userSpaceOnUse">
<stop stop-color="#EDE5FC"/>
<stop offset="1" stop-color="#DCD0F7"/>
</linearGradient>
<linearGradient id="paint34_linear_2010_219" x1="275.848" y1="38.4542" x2="275.848" y2="70.6447" gradientUnits="userSpaceOnUse">
<stop stop-color="#EDE5FC"/>
<stop offset="1" stop-color="#DCD0F7"/>
</linearGradient>
<linearGradient id="paint35_linear_2010_219" x1="246.372" y1="99.172" x2="291.446" y2="99.172" gradientUnits="userSpaceOnUse">
<stop stop-color="#B493F9"/>
<stop offset="1" stop-color="#651AEC"/>
</linearGradient>
<linearGradient id="paint36_linear_2010_219" x1="270.409" y1="95.4468" x2="270.997" y2="116.101" gradientUnits="userSpaceOnUse">
<stop stop-color="#23D0DC"/>
<stop offset="1" stop-color="#2790F1"/>
</linearGradient>
<linearGradient id="paint37_linear_2010_219" x1="266.635" y1="80.397" x2="267.263" y2="102.759" gradientUnits="userSpaceOnUse">
<stop stop-color="#FC8190"/>
<stop offset="1" stop-color="#F9394A"/>
</linearGradient>
<linearGradient id="paint38_linear_2010_219" x1="298.327" y1="99.172" x2="343.403" y2="99.172" gradientUnits="userSpaceOnUse">
<stop stop-color="#B493F9"/>
<stop offset="1" stop-color="#651AEC"/>
</linearGradient>
<linearGradient id="paint39_linear_2010_219" x1="323.62" y1="118.827" x2="323.257" y2="105.446" gradientUnits="userSpaceOnUse">
<stop stop-color="#FC8190"/>
<stop offset="1" stop-color="#F9394A"/>
</linearGradient>
<linearGradient id="paint40_linear_2010_219" x1="323.284" y1="97.9185" x2="322.793" y2="108.404" gradientUnits="userSpaceOnUse">
<stop stop-color="#FC8190"/>
<stop offset="1" stop-color="#F9394A"/>
</linearGradient>
<linearGradient id="paint41_linear_2010_219" x1="251.525" y1="112.492" x2="228.712" y2="133.864" gradientUnits="userSpaceOnUse">
<stop stop-color="#FCCAC0"/>
<stop offset="1" stop-color="#F76F54"/>
</linearGradient>
<linearGradient id="paint42_linear_2010_219" x1="205.638" y1="127.084" x2="200.026" y2="156.226" gradientUnits="userSpaceOnUse">
<stop stop-color="#F9B546"/>
<stop offset="1" stop-color="#F4642C"/>
</linearGradient>
<linearGradient id="paint43_linear_2010_219" x1="386.599" y1="12.2161" x2="386.75" y2="36.4818" gradientUnits="userSpaceOnUse">
<stop stop-color="#F9B546"/>
<stop offset="1" stop-color="#F4642C"/>
</linearGradient>
<linearGradient id="paint44_linear_2010_219" x1="397.845" y1="12.1501" x2="397.996" y2="36.4103" gradientUnits="userSpaceOnUse">
<stop stop-color="#F9B546"/>
<stop offset="1" stop-color="#F4642C"/>
</linearGradient>
<linearGradient id="paint45_linear_2010_219" x1="412.089" y1="12.0635" x2="412.24" y2="36.324" gradientUnits="userSpaceOnUse">
<stop stop-color="#F9B546"/>
<stop offset="1" stop-color="#F4642C"/>
</linearGradient>
<linearGradient id="paint46_linear_2010_219" x1="407.678" y1="12.0901" x2="407.829" y2="36.3491" gradientUnits="userSpaceOnUse">
<stop stop-color="#F9B546"/>
<stop offset="1" stop-color="#F4642C"/>
</linearGradient>
<linearGradient id="paint47_linear_2010_219" x1="492.281" y1="124.567" x2="504.054" y2="273.123" gradientUnits="userSpaceOnUse">
<stop stop-color="#23D0DC"/>
<stop offset="1" stop-color="#2790F1"/>
</linearGradient>
<linearGradient id="paint48_linear_2010_219" x1="444.854" y1="262.691" x2="484.843" y2="262.691" gradientUnits="userSpaceOnUse">
<stop stop-color="#23D0DC"/>
<stop offset="1" stop-color="#2790F1"/>
</linearGradient>
<linearGradient id="paint49_linear_2010_219" x1="491.555" y1="262.178" x2="531.544" y2="262.178" gradientUnits="userSpaceOnUse">
<stop stop-color="#23D0DC"/>
<stop offset="1" stop-color="#2790F1"/>
</linearGradient>
<linearGradient id="paint50_linear_2010_219" x1="444.947" y1="208.41" x2="542.21" y2="208.41" gradientUnits="userSpaceOnUse">
<stop stop-color="#23D0DC"/>
<stop offset="1" stop-color="#2790F1"/>
</linearGradient>
<linearGradient id="paint51_linear_2010_219" x1="493.798" y1="191.426" x2="539.347" y2="191.426" gradientUnits="userSpaceOnUse">
<stop stop-color="#EDE5FC"/>
<stop offset="1" stop-color="#DCD0F7"/>
</linearGradient>
<linearGradient id="paint52_linear_2010_219" x1="493.798" y1="198.338" x2="539.347" y2="198.338" gradientUnits="userSpaceOnUse">
<stop stop-color="#EDE5FC"/>
<stop offset="1" stop-color="#DCD0F7"/>
</linearGradient>
<linearGradient id="paint53_linear_2010_219" x1="493.798" y1="205.258" x2="527.012" y2="205.258" gradientUnits="userSpaceOnUse">
<stop stop-color="#EDE5FC"/>
<stop offset="1" stop-color="#DCD0F7"/>
</linearGradient>
<linearGradient id="paint54_linear_2010_219" x1="471.257" y1="188.326" x2="470.883" y2="229.624" gradientUnits="userSpaceOnUse">
<stop stop-color="#EDE5FC"/>
<stop offset="1" stop-color="#DCD0F7"/>
</linearGradient>
<linearGradient id="paint55_linear_2010_219" x1="470.737" y1="204.46" x2="471.253" y2="221.832" gradientUnits="userSpaceOnUse">
<stop stop-color="#23D0DC"/>
<stop offset="1" stop-color="#2790F1"/>
</linearGradient>
<linearGradient id="paint56_linear_2010_219" x1="467.694" y1="191.79" x2="468.244" y2="210.601" gradientUnits="userSpaceOnUse">
<stop stop-color="#FC8190"/>
<stop offset="1" stop-color="#F9394A"/>
</linearGradient>
<linearGradient id="paint57_linear_2010_219" x1="444.854" y1="114.92" x2="548.961" y2="114.92" gradientUnits="userSpaceOnUse">
<stop stop-color="#23D0DC"/>
<stop offset="1" stop-color="#2790F1"/>
</linearGradient>
<linearGradient id="paint58_linear_2010_219" x1="444.972" y1="154.541" x2="492.809" y2="154.541" gradientUnits="userSpaceOnUse">
<stop stop-color="#23D0DC"/>
<stop offset="1" stop-color="#2790F1"/>
</linearGradient>
<linearGradient id="paint59_linear_2010_219" x1="468.913" y1="143.867" x2="472.276" y2="169.841" gradientUnits="userSpaceOnUse">
<stop stop-color="#EDE5FC"/>
<stop offset="1" stop-color="#DCD0F7"/>
</linearGradient>
<linearGradient id="paint60_linear_2010_219" x1="470.118" y1="142.483" x2="470.575" y2="173.969" gradientUnits="userSpaceOnUse">
<stop stop-color="#B493F9"/>
<stop offset="1" stop-color="#651AEC"/>
</linearGradient>
<linearGradient id="paint61_linear_2010_219" x1="469.868" y1="142.474" x2="470.324" y2="173.947" gradientUnits="userSpaceOnUse">
<stop stop-color="#B493F9"/>
<stop offset="1" stop-color="#651AEC"/>
</linearGradient>
<linearGradient id="paint62_linear_2010_219" x1="64.0038" y1="243.007" x2="130.485" y2="243.007" gradientUnits="userSpaceOnUse">
<stop stop-color="#B493F9"/>
<stop offset="1" stop-color="#651AEC"/>
</linearGradient>
<linearGradient id="paint63_linear_2010_219" x1="85.8407" y1="220.292" x2="83.0379" y2="265.885" gradientUnits="userSpaceOnUse">
<stop stop-color="#B493F9"/>
<stop offset="1" stop-color="#651AEC"/>
</linearGradient>
<linearGradient id="paint64_linear_2010_219" x1="117.17" y1="222.269" x2="114.367" y2="267.862" gradientUnits="userSpaceOnUse">
<stop stop-color="#B493F9"/>
<stop offset="1" stop-color="#651AEC"/>
</linearGradient>
<linearGradient id="paint65_linear_2010_219" x1="101.486" y1="221.616" x2="98.6911" y2="267.075" gradientUnits="userSpaceOnUse">
<stop stop-color="#B493F9"/>
<stop offset="1" stop-color="#651AEC"/>
</linearGradient>
<linearGradient id="paint66_linear_2010_219" x1="530.783" y1="18.3694" x2="530.783" y2="100.215" gradientUnits="userSpaceOnUse">
<stop stop-color="#B493F9"/>
<stop offset="1" stop-color="#651AEC"/>
</linearGradient>
<linearGradient id="paint67_linear_2010_219" x1="532.365" y1="38.7342" x2="535.355" y2="72.7431" gradientUnits="userSpaceOnUse">
<stop stop-color="#FC8190"/>
<stop offset="1" stop-color="#F9394A"/>
</linearGradient>
<linearGradient id="paint68_linear_2010_219" x1="189.947" y1="269.278" x2="241.632" y2="317.462" gradientUnits="userSpaceOnUse">
<stop stop-color="#FC8190"/>
<stop offset="1" stop-color="#F9394A"/>
</linearGradient>
<linearGradient id="paint69_linear_2010_219" x1="297.838" y1="255.041" x2="260.355" y2="308.428" gradientUnits="userSpaceOnUse">
<stop stop-color="#FC8190"/>
<stop offset="1" stop-color="#F9394A"/>
</linearGradient>
<linearGradient id="paint70_linear_2010_219" x1="245.771" y1="238.936" x2="244.8" y2="326.281" gradientUnits="userSpaceOnUse">
<stop stop-color="#FC8190"/>
<stop offset="1" stop-color="#F9394A"/>
</linearGradient>
<linearGradient id="paint71_linear_2010_219" x1="240.19" y1="247.969" x2="236.303" y2="217.146" gradientUnits="userSpaceOnUse">
<stop stop-color="#FCCAC0"/>
<stop offset="1" stop-color="#F76F54"/>
</linearGradient>
<linearGradient id="paint72_linear_2010_219" x1="244.936" y1="246.962" x2="241.092" y2="216.484" gradientUnits="userSpaceOnUse">
<stop stop-color="#FCCAC0"/>
<stop offset="1" stop-color="#F76F54"/>
</linearGradient>
<linearGradient id="paint73_linear_2010_219" x1="210.574" y1="207.294" x2="219.521" y2="221.986" gradientUnits="userSpaceOnUse">
<stop stop-color="#FCCAC0"/>
<stop offset="1" stop-color="#F76F54"/>
</linearGradient>
<linearGradient id="paint74_linear_2010_219" x1="211.823" y1="209.081" x2="217.882" y2="219.031" gradientUnits="userSpaceOnUse">
<stop stop-color="#FCCAC0"/>
<stop offset="1" stop-color="#F76F54"/>
</linearGradient>
<linearGradient id="paint75_linear_2010_219" x1="228.855" y1="192.042" x2="241.544" y2="238.096" gradientUnits="userSpaceOnUse">
<stop stop-color="#FCCAC0"/>
<stop offset="1" stop-color="#F76F54"/>
</linearGradient>
<linearGradient id="paint76_linear_2010_219" x1="167.728" y1="300.551" x2="230.574" y2="293.813" gradientUnits="userSpaceOnUse">
<stop stop-color="#FC8190"/>
<stop offset="1" stop-color="#F9394A"/>
</linearGradient>
<linearGradient id="paint77_linear_2010_219" x1="320.84" y1="276.363" x2="277.667" y2="319.966" gradientUnits="userSpaceOnUse">
<stop stop-color="#FC8190"/>
<stop offset="1" stop-color="#F9394A"/>
</linearGradient>
<linearGradient id="paint78_linear_2010_219" x1="226.865" y1="173.272" x2="230.068" y2="200.543" gradientUnits="userSpaceOnUse">
<stop stop-color="#651AEC"/>
<stop offset="1" stop-color="#1E0233"/>
</linearGradient>
<linearGradient id="paint79_linear_2010_219" x1="236.165" y1="308.475" x2="263.946" y2="307.385" gradientUnits="userSpaceOnUse">
<stop stop-color="#23D0DC"/>
<stop offset="1" stop-color="#2790F1"/>
</linearGradient>
<linearGradient id="paint80_linear_2010_219" x1="243.151" y1="313.859" x2="268.208" y2="313.859" gradientUnits="userSpaceOnUse">
<stop stop-color="#FCCAC0"/>
<stop offset="1" stop-color="#F76F54"/>
</linearGradient>
<linearGradient id="paint81_linear_2010_219" x1="262.534" y1="272.126" x2="228.6" y2="284.729" gradientUnits="userSpaceOnUse">
<stop stop-color="#FCCAC0"/>
<stop offset="1" stop-color="#F76F54"/>
</linearGradient>
<linearGradient id="paint82_linear_2010_219" x1="595.497" y1="239.979" x2="597.201" y2="209.116" gradientUnits="userSpaceOnUse">
<stop stop-color="#FCCAC0"/>
<stop offset="1" stop-color="#F76F54"/>
</linearGradient>
<linearGradient id="paint83_linear_2010_219" x1="592.017" y1="242.541" x2="593.894" y2="208.557" gradientUnits="userSpaceOnUse">
<stop stop-color="#FCCAC0"/>
<stop offset="1" stop-color="#F76F54"/>
</linearGradient>
<linearGradient id="paint84_linear_2010_219" x1="597.995" y1="159.364" x2="592.98" y2="215.156" gradientUnits="userSpaceOnUse">
<stop stop-color="#651AEC"/>
<stop offset="1" stop-color="#1E0233"/>
</linearGradient>
<linearGradient id="paint85_linear_2010_219" x1="582.917" y1="228.666" x2="603.962" y2="169.337" gradientUnits="userSpaceOnUse">
<stop stop-color="#FCCAC0"/>
<stop offset="1" stop-color="#F76F54"/>
</linearGradient>
<linearGradient id="paint86_linear_2010_219" x1="632.08" y1="253.169" x2="589.461" y2="291.949" gradientUnits="userSpaceOnUse">
<stop stop-color="#B493F9"/>
<stop offset="1" stop-color="#651AEC"/>
</linearGradient>
<linearGradient id="paint87_linear_2010_219" x1="592.909" y1="248.318" x2="585.669" y2="327.959" gradientUnits="userSpaceOnUse">
<stop stop-color="#B493F9"/>
<stop offset="1" stop-color="#651AEC"/>
</linearGradient>
<linearGradient id="paint88_linear_2010_219" x1="592.909" y1="248.318" x2="585.669" y2="327.959" gradientUnits="userSpaceOnUse">
<stop stop-color="#B493F9"/>
<stop offset="1" stop-color="#651AEC"/>
</linearGradient>
<linearGradient id="paint89_linear_2010_219" x1="596.493" y1="236.356" x2="528.476" y2="290.921" gradientUnits="userSpaceOnUse">
<stop stop-color="#B493F9"/>
<stop offset="1" stop-color="#651AEC"/>
</linearGradient>
<linearGradient id="paint90_linear_2010_219" x1="514.289" y1="216.885" x2="492.997" y2="216.885" gradientUnits="userSpaceOnUse">
<stop stop-color="#FCCAC0"/>
<stop offset="1" stop-color="#F76F54"/>
</linearGradient>
<linearGradient id="paint91_linear_2010_219" x1="502.874" y1="230.632" x2="548.842" y2="303.508" gradientUnits="userSpaceOnUse">
<stop stop-color="#B493F9"/>
<stop offset="1" stop-color="#651AEC"/>
</linearGradient>
<linearGradient id="paint92_linear_2010_219" x1="608.159" y1="160.28" x2="603.177" y2="215.702" gradientUnits="userSpaceOnUse">
<stop stop-color="#651AEC"/>
<stop offset="1" stop-color="#1E0233"/>
</linearGradient>
<linearGradient id="paint93_linear_2010_219" x1="606.536" y1="195.513" x2="602.977" y2="211.089" gradientUnits="userSpaceOnUse">
<stop stop-color="#FCCAC0"/>
<stop offset="1" stop-color="#F76F54"/>
</linearGradient>
<linearGradient id="paint94_linear_2010_219" x1="606.008" y1="197.308" x2="603.562" y2="208.012" gradientUnits="userSpaceOnUse">
<stop stop-color="#FCCAC0"/>
<stop offset="1" stop-color="#F76F54"/>
</linearGradient>
<linearGradient id="paint95_linear_2010_219" x1="86.1139" y1="71.4751" x2="86.3557" y2="102.795" gradientUnits="userSpaceOnUse">
<stop stop-color="#B493F9"/>
<stop offset="1" stop-color="#651AEC"/>
</linearGradient>
<clipPath id="clip0_2010_219">
<rect width="690" height="350" fill="white"/>
</clipPath>
</defs>
</svg>
