<svg width="34" height="50" viewBox="0 0 34 50" fill="none" xmlns="http://www.w3.org/2000/svg">
<path d="M33.2158 43.8965H0.78418V2.29492C0.78418 1.64766 1.30879 1.12305 1.95605 1.12305H32.0437C32.691 1.12305 33.2156 1.64766 33.2156 2.29492L33.2158 43.8965Z" fill="#4671C6"/>
<path d="M30.4814 3.85742V41.1621H3.51875V3.85742H30.4814Z" fill="#A4C9FF"/>
<path d="M31.5508 43.8965V47.1191H2.44922V43.8965H0.78418V47.7051C0.78418 48.3521 1.30879 48.877 1.95605 48.877H32.0437C32.691 48.877 33.2156 48.3521 33.2156 47.7051V43.8965H31.5508Z" fill="#A4C9FF"/>
<path d="M24.0312 21.3434H9.96875C9.10586 21.3434 8.40625 20.6438 8.40625 19.7809C8.40625 18.918 9.10586 18.2184 9.96875 18.2184H24.0312C24.8941 18.2184 25.5938 18.918 25.5938 19.7809C25.5938 20.6438 24.8941 21.3434 24.0312 21.3434Z" fill="#E0EBFC"/>
<path d="M9.67889 11.733C10.2443 12.7316 13.7252 18.4769 16.9996 14.7217C17.4166 9.75663 10.8687 11.2566 9.75799 11.5459C9.67655 11.5672 9.63729 11.6596 9.67889 11.733Z" fill="#F9A7A7"/>
<path d="M14.6404 16.3715C14.5402 16.3715 14.4394 16.3666 14.3379 16.3562C11.8863 16.1078 9.89197 12.9019 9.33924 11.9254C9.25916 11.7838 9.24959 11.6168 9.31306 11.4672C9.37635 11.3175 9.5031 11.2086 9.66033 11.1677C10.7459 10.8847 14.4357 10.0853 16.3205 11.6724C17.1431 12.3652 17.5027 13.4019 17.3892 14.7541C17.3822 14.8371 17.349 14.9154 17.2945 14.9781C16.4871 15.9041 15.5957 16.3715 14.6404 16.3715ZM10.1957 11.8414C10.8076 12.8513 12.5226 15.3869 14.4166 15.5789C15.2002 15.6584 15.9209 15.325 16.6197 14.5609C16.682 13.5269 16.4187 12.7767 15.8172 12.2701C14.3607 11.0439 11.3467 11.5777 10.1957 11.8414ZM10.0189 11.5406C10.0189 11.5406 10.0189 11.5406 10.0191 11.541C10.0191 11.5408 10.0191 11.5408 10.0189 11.5406Z" fill="#3762CC"/>
<path d="M13.199 8.39496C12.901 9.55336 11.2322 16.8811 17.0012 15.8887C21.3082 11.9246 14.4853 8.77406 13.3857 8.30297C13.3082 8.26977 13.2199 8.31313 13.199 8.39496Z" fill="#F9A7A7"/>
<path d="M15.9949 16.3712C14.9133 16.3712 14.0564 16.0341 13.4388 15.3642C11.6716 13.4468 12.5189 9.47046 12.8205 8.29742C12.8205 8.29722 12.8205 8.29722 12.8205 8.29702C12.859 8.14761 12.9603 8.0232 13.0986 7.95503C13.2369 7.88726 13.3974 7.88335 13.5392 7.94351C14.6529 8.42027 18.3197 10.1759 18.7599 12.7464C18.9617 13.9238 18.459 15.0777 17.2656 16.1759C17.2103 16.2269 17.1414 16.2609 17.0673 16.2734C16.6886 16.3386 16.3308 16.3712 15.9949 16.3712ZM13.5064 8.78296C13.233 9.96558 12.6177 13.3207 14.0132 14.8347C14.6136 15.4859 15.5582 15.7177 16.8209 15.5222C17.7465 14.6408 18.1396 13.7519 17.99 12.8787C17.7062 11.2212 15.458 9.6689 13.5064 8.78296Z" fill="#3762CC"/>
<path d="M24.3212 11.7332C23.7558 12.7319 20.2749 18.4772 17.0005 14.7219C16.5835 9.75688 23.1314 11.2569 24.2421 11.5461C24.3236 11.5672 24.3628 11.6598 24.3212 11.7332Z" fill="#F9A7A7"/>
<path d="M19.3599 16.3717C18.4046 16.3717 17.5132 15.9039 16.7062 14.9783C16.6515 14.9156 16.6183 14.8371 16.6113 14.7543C16.4978 13.4024 16.8572 12.3656 17.6798 11.6729C19.5646 10.0858 23.2544 10.8854 24.3406 11.168C24.4982 11.2092 24.6245 11.3186 24.6876 11.468C24.7507 11.6174 24.7413 11.784 24.6615 11.9254L24.6613 11.9256C24.1081 12.9024 22.1132 16.1082 19.6622 16.3565C19.5607 16.3666 19.4601 16.3717 19.3599 16.3717ZM17.3804 14.561C18.0794 15.325 18.8021 15.6588 19.5833 15.5791C21.4769 15.3875 23.1925 12.8516 23.8046 11.8414C22.6538 11.5781 19.6388 11.0445 18.1829 12.2703C17.5816 12.7772 17.3183 13.5272 17.3804 14.561Z" fill="#3762CC"/>
<path d="M20.7605 8.24219C20.7605 8.24219 23.2605 16.9656 16.9991 15.8887C12.3245 11.5863 20.7605 8.24219 20.7605 8.24219Z" fill="#F9A7A7"/>
<path d="M18.0065 16.3715C17.6703 16.3715 17.3125 16.3389 16.9336 16.2736C16.8596 16.2611 16.7906 16.2272 16.7352 16.1762C15.5275 15.0648 15.0272 13.8971 15.2481 12.7057C15.7816 9.82657 20.4197 7.95703 20.617 7.87891C20.7193 7.83828 20.8344 7.84258 20.9334 7.89141C21.0324 7.94004 21.1061 8.02832 21.1365 8.13438C21.1949 8.33828 22.5451 13.1531 20.59 15.3332C19.9709 16.0242 19.1045 16.3715 18.0065 16.3715ZM17.1801 15.5225C18.4574 15.7195 19.4088 15.4809 20.0086 14.8119C21.3723 13.2912 20.7686 9.97403 20.4943 8.78496C19.3848 9.29434 16.3871 10.843 16.016 12.8492C15.8527 13.7322 16.2443 14.6313 17.1801 15.5225Z" fill="#3762CC"/>
<path d="M16.8908 6.96169C16.118 7.96541 11.6449 14.1344 16.9996 15.8892C22.3545 14.1345 17.8812 7.9656 17.1084 6.96169C17.0535 6.89021 16.9459 6.89021 16.8908 6.96169Z" fill="#F9A7A7"/>
<path d="M16.9996 16.2799C16.9585 16.2799 16.9175 16.2734 16.8779 16.2604C15.439 15.7889 14.5306 14.9699 14.1781 13.8264C13.3648 11.1885 15.8117 7.72266 16.581 6.72344C16.581 6.72324 16.5812 6.72324 16.5812 6.72305C16.682 6.59238 16.8343 6.51758 16.9994 6.51758C17.1642 6.51758 17.3168 6.59238 17.4175 6.72305C18.1871 7.72266 20.6341 11.1883 19.8209 13.8264C19.4683 14.9699 18.5601 15.7889 17.1212 16.2604C17.0816 16.2732 17.0406 16.2799 16.9996 16.2799ZM16.9996 7.46797C16.2373 8.51289 14.2744 11.4867 14.9246 13.5961C15.1886 14.4525 15.8865 15.0848 16.9996 15.4766C18.1125 15.0848 18.8103 14.4525 19.0744 13.5961C19.7246 11.4869 17.7617 8.51289 16.9996 7.46797ZM17.2 7.2002C17.1998 7.2002 17.1998 7.2002 17.2 7.2002V7.2002Z" fill="#3762CC"/>
<path d="M18.4564 26.6113H7.7793C7.29395 26.6113 6.90039 26.2178 6.90039 25.7324C6.90039 25.2471 7.29395 24.8535 7.7793 24.8535H18.4564C18.9418 24.8535 19.3354 25.2471 19.3354 25.7324C19.3354 26.2178 18.9418 26.6113 18.4564 26.6113Z" fill="#E0EBFC"/>
<path d="M26.2195 26.6113H22.8857C22.4004 26.6113 22.0068 26.2178 22.0068 25.7324C22.0068 25.2471 22.4004 24.8535 22.8857 24.8535H26.2195C26.7049 24.8535 27.0984 25.2471 27.0984 25.7324C27.0984 26.2178 26.7049 26.6113 26.2195 26.6113Z" fill="#E0EBFC"/>
<path d="M18.4564 30.4525H7.7793C7.29395 30.4525 6.90039 30.059 6.90039 29.5736C6.90039 29.0883 7.29395 28.6947 7.7793 28.6947H18.4564C18.9418 28.6947 19.3354 29.0883 19.3354 29.5736C19.3354 30.059 18.9418 30.4525 18.4564 30.4525Z" fill="#E0EBFC"/>
<path d="M26.2195 30.4525H22.8857C22.4004 30.4525 22.0068 30.059 22.0068 29.5736C22.0068 29.0883 22.4004 28.6947 22.8857 28.6947H26.2195C26.7049 28.6947 27.0984 29.0883 27.0984 29.5736C27.0984 30.059 26.7049 30.4525 26.2195 30.4525Z" fill="#E0EBFC"/>
<path d="M18.4564 34.2936H7.7793C7.29395 34.2936 6.90039 33.9 6.90039 33.4147C6.90039 32.9293 7.29395 32.5358 7.7793 32.5358H18.4564C18.9418 32.5358 19.3354 32.9293 19.3354 33.4147C19.3354 33.9 18.9418 34.2936 18.4564 34.2936Z" fill="#E0EBFC"/>
<path d="M26.2195 34.2936H22.8857C22.4004 34.2936 22.0068 33.9 22.0068 33.4147C22.0068 32.9293 22.4004 32.5358 22.8857 32.5358H26.2195C26.7049 32.5358 27.0984 32.9293 27.0984 33.4147C27.0984 33.9 26.7049 34.2936 26.2195 34.2936Z" fill="#E0EBFC"/>
<path d="M18.4564 38.1348H7.7793C7.29395 38.1348 6.90039 37.7412 6.90039 37.2559C6.90039 36.7705 7.29395 36.377 7.7793 36.377H18.4564C18.9418 36.377 19.3354 36.7705 19.3354 37.2559C19.3354 37.7412 18.9418 38.1348 18.4564 38.1348Z" fill="#E0EBFC"/>
<path d="M26.2195 38.1348H22.8857C22.4004 38.1348 22.0068 37.7412 22.0068 37.2559C22.0068 36.7705 22.4004 36.377 22.8857 36.377H26.2195C26.7049 36.377 27.0984 36.7705 27.0984 37.2559C27.0984 37.7412 26.7049 38.1348 26.2195 38.1348Z" fill="#E0EBFC"/>
<path d="M33.2154 44.2871H0.78418C0.568555 44.2871 0.393555 44.1121 0.393555 43.8965V2.29492C0.393555 1.4334 1.09453 0.732422 1.95605 0.732422H32.0438C32.9053 0.732422 33.6063 1.4334 33.6063 2.29492V43.8965C33.6061 44.1121 33.4313 44.2871 33.2154 44.2871ZM1.1748 43.5059H32.825V2.29492C32.825 1.86406 32.4746 1.51367 32.0438 1.51367H1.95605C1.5252 1.51367 1.1748 1.86406 1.1748 2.29492V43.5059Z" fill="#3762CC"/>
<path d="M30.4811 41.5527H3.51855C3.30293 41.5527 3.12793 41.3777 3.12793 41.1621V3.85742C3.12793 3.6418 3.30293 3.4668 3.51855 3.4668H30.4812C30.6969 3.4668 30.8719 3.6418 30.8719 3.85742V41.1621C30.8717 41.3777 30.6969 41.5527 30.4811 41.5527ZM3.90918 40.7715H30.0906V4.24805H3.90918V40.7715Z" fill="#3762CC"/>
<path d="M32.0436 49.2676H1.95605C1.09453 49.2676 0.393555 48.5666 0.393555 47.7051V43.8965C0.393555 43.6809 0.568555 43.5059 0.78418 43.5059H2.44902C2.66465 43.5059 2.83965 43.6809 2.83965 43.8965V46.7285H31.16V43.8965C31.16 43.6809 31.335 43.5059 31.5506 43.5059H33.2154C33.4311 43.5059 33.6061 43.6809 33.6061 43.8965V47.7051C33.6061 48.5666 32.9053 49.2676 32.0436 49.2676ZM1.1748 44.2871V47.7051C1.1748 48.1359 1.5252 48.4863 1.95605 48.4863H32.0437C32.4746 48.4863 32.825 48.1359 32.825 47.7051V44.2871H31.9412V47.1191C31.9412 47.3348 31.7662 47.5098 31.5506 47.5098H2.44902C2.2334 47.5098 2.0584 47.3348 2.0584 47.1191V44.2871H1.1748Z" fill="#3762CC"/>
</svg>
