<svg width="100" height="150" viewBox="0 0 100 150" fill="none" xmlns="http://www.w3.org/2000/svg">
<path d="M62.4184 15.7774C63.7146 22.1268 66.5216 28.1627 70.5421 33.2455C71.1614 27.0383 71.347 20.7878 71.0972 14.5551C71.0315 12.9118 70.9244 11.2242 70.2353 9.73076C69.5462 8.23733 68.1399 6.96306 66.4961 6.90648C64.6148 6.84175 62.9751 8.40707 62.3863 10.1951C61.7976 11.9832 62.0418 13.9328 62.4184 15.7774Z" fill="#67AB41"/>
<path d="M88.1045 28.8468C89.5352 28.3508 91.019 27.8478 92.5272 27.9834C94.0354 28.1184 95.5808 29.0757 95.8994 30.5558C96.4611 33.1655 93.2581 34.895 90.6372 35.3985C84.4331 36.5902 77.9435 36.2686 71.8877 34.4689C77.2931 32.5947 82.6986 30.721 88.1045 28.8468Z" fill="#67AB41"/>
<path d="M51.6394 36.2777C55.4964 40.2875 60.3635 43.3183 65.664 45.0105C65.1329 38.9618 61.7337 33.2271 56.682 29.858C54.5952 28.4665 51.4081 27.6407 49.8677 29.6204C48.3243 31.6037 49.8973 34.4667 51.6394 36.2777Z" fill="#67AB41"/>
<path d="M85.7674 49.0475C82.9737 51.1877 78.998 51.0756 75.6793 49.9038C72.3606 48.732 69.4512 46.655 66.3252 45.0377C71.1592 41.6808 77.3924 40.4106 83.1546 41.6084C85.0736 42.0069 87.2114 42.9499 87.6681 44.8557C88.0463 46.4342 87.0564 48.0602 85.7674 49.0475Z" fill="#67AB41"/>
<path d="M45.6062 54.91C50.1421 58.2063 55.39 60.5183 60.8841 61.6396C58.9661 55.464 55.178 49.8833 50.1472 45.8204C48.0905 44.1593 45.2143 42.7127 42.9211 44.0277C40.9852 45.1379 40.4709 47.8607 41.2554 49.95C42.0398 52.0393 43.8008 53.598 45.6062 54.91Z" fill="#67AB41"/>
<path d="M75.9509 66.2988C70.8324 66.9859 65.4494 65.3813 61.542 62.0045C66.4494 59.168 71.9848 57.4259 77.6324 56.9407C78.7705 56.8428 79.9791 56.8096 80.9842 57.353C82.9853 58.4351 83.2045 61.4699 81.8772 63.3171C80.5499 65.1647 78.2058 65.9961 75.9509 66.2988Z" fill="#67AB41"/>
<path d="M88.206 1.91453C81.6492 6.05588 76.9614 14.2224 77.8631 21.9251C80.3061 19.1451 84.8231 17.7536 88.3299 16.5711C91.8367 15.3886 95.5137 14.0893 97.9424 11.2967C100.371 8.50449 100.923 3.7194 98.0994 1.32736C95.3985 -0.961219 91.1995 0.0235197 88.206 1.91453Z" fill="#67AB41"/>
<path d="M57.804 85.9088C57.7606 85.9088 57.7163 85.9057 57.6719 85.8996C57.1729 85.8272 56.8268 85.3644 56.8992 84.8654C59.0461 70.0422 61.2659 54.7143 66.8105 40.4334C71.1608 29.2285 77.4164 19.5976 84.9019 12.5826C85.2694 12.237 85.8469 12.2559 86.192 12.6244C86.5366 12.9919 86.5182 13.5699 86.1502 13.9144C78.8629 20.744 72.7638 30.1424 68.5124 41.0939C63.0432 55.1812 60.8387 70.4045 58.7066 85.1274C58.6399 85.581 58.2499 85.9088 57.804 85.9088Z" fill="#1E541D"/>
<path d="M27.7262 117.667C30.1463 121.287 31.7025 125.481 32.23 129.803C28.973 127.165 25.8999 124.3 23.041 121.235C22.2871 120.427 21.5318 119.578 21.1444 118.543C20.757 117.508 20.8126 116.234 21.5628 115.423C22.4212 114.494 23.9437 114.45 25.0763 115.014C26.2078 115.578 27.0233 116.615 27.7262 117.667Z" fill="#67AB41"/>
<path d="M21.8297 136.112C20.9168 136.561 19.9754 137.032 19.327 137.816C18.6792 138.6 18.4055 139.791 18.9621 140.642C19.9427 142.144 22.2828 141.431 23.762 140.418C27.2631 138.017 30.1766 134.766 32.1792 131.023C28.7295 132.719 25.2794 134.416 21.8297 136.112Z" fill="#67AB41"/>
<path d="M42.6124 122.207C42.7047 125.944 41.852 129.702 40.1552 133.033C37.517 129.921 36.3849 125.587 37.1632 121.582C37.4849 119.927 38.5965 118.016 40.2704 118.215C41.9468 118.415 42.5707 120.52 42.6124 122.207Z" fill="#67AB41"/>
<path d="M32.5821 144.543C34.9247 144.22 36.7499 142.268 37.7586 140.129C38.7673 137.99 39.1501 135.619 39.8551 133.362C35.967 134.084 32.4149 136.461 30.2634 139.779C29.5473 140.884 28.9872 142.35 29.6814 143.469C30.2568 144.396 31.5015 144.691 32.5821 144.543Z" fill="#67AB41"/>
<path d="M54.3624 128.132C53.7931 131.856 52.4168 135.455 50.3561 138.609C48.3132 134.775 47.4375 130.328 47.8744 126.005C48.0528 124.238 48.7215 122.18 50.4336 121.706C51.8786 121.306 53.4225 122.348 54.0494 123.71C54.6769 125.072 54.5892 126.649 54.3624 128.132Z" fill="#67AB41"/>
<path d="M45.4614 148.007C48.2087 145.887 49.9861 142.558 50.22 139.096C46.5461 140.099 43.0979 141.92 40.1972 144.388C39.6126 144.885 39.0254 145.446 38.8103 146.183C38.3816 147.65 39.7272 149.189 41.237 149.429C42.7462 149.668 44.2513 148.941 45.4614 148.007Z" fill="#67AB41"/>
<path d="M8.91818 123.432C13.9948 122.258 20.1108 123.878 23.3638 127.949C20.8815 127.802 18.0822 129.302 15.8604 130.418C13.6381 131.534 11.2796 132.677 8.7984 132.517C6.31665 132.358 3.77069 130.36 3.96233 127.881C4.14532 125.508 6.60055 123.968 8.91818 123.432Z" fill="#67AB41"/>
<path d="M62.9675 149.088C62.7789 149.088 62.5888 149.03 62.4257 148.909C54.3994 142.979 46.0993 136.848 36.8191 132.817C29.62 129.69 22.293 128.164 15.6327 128.421C15.1261 128.434 14.7051 128.047 14.6862 127.543C14.6673 127.039 15.0603 126.615 15.5639 126.596C22.5015 126.334 30.0981 127.907 37.5465 131.142C47.0173 135.256 55.402 141.451 63.5109 147.441C63.9161 147.74 64.0022 148.312 63.7025 148.717C63.5231 148.96 63.2473 149.088 62.9675 149.088Z" fill="#1E541D"/>
<path d="M59.0416 100.107L27.1968 100.054C24.6773 100.05 22.6385 98.0048 22.6426 95.4854L22.7196 48.6476C22.7318 41.1212 28.8432 35.0303 36.3695 35.0425L50.0825 35.0649C57.6088 35.0771 63.6998 41.1885 63.6876 48.7148L63.6106 95.5526C63.6065 98.0721 61.5611 100.111 59.0416 100.107Z" fill="#FFE4C9"/>
<path d="M50.0827 35.0653L41.8076 35.0515C49.3339 35.0637 55.4249 41.1751 55.4127 48.7014L55.3357 95.5392C55.3316 98.0587 53.2862 100.098 50.7667 100.093L59.0418 100.107C61.5612 100.111 63.6067 98.0725 63.6108 95.5535L63.6877 48.7157C63.7 41.1889 57.609 35.0775 50.0827 35.0653Z" fill="#F8C086"/>
<path d="M51.8617 35.0679L34.5898 35.0394L34.6087 23.6424C34.6128 21.2987 36.5156 19.4022 38.8592 19.4063L47.6444 19.4205C49.9881 19.4246 51.8847 21.3273 51.8806 23.6709L51.8617 35.0679Z" fill="#1E541D"/>
<path d="M24.6969 51.3317C25.0191 52.9893 33.4643 53.1952 43.6396 51.7854C53.402 50.4331 61.2285 48.0828 61.7239 46.408L61.6444 94.9528C61.6408 97.0176 59.9644 98.6884 57.9001 98.6848L28.3444 98.6364C26.2796 98.6329 24.6087 96.9564 24.6123 94.8921L24.6837 51.3332L24.6969 51.3317Z" fill="#FFCE9D"/>
<path d="M42.7947 45.6903C52.7956 44.3049 61.1252 44.4797 61.7139 46.0598C61.717 46.0685 61.721 46.0772 61.7241 46.0858L61.7236 46.4079C61.2282 48.0828 53.4016 50.4326 43.6393 51.7854C33.4635 53.1947 25.0182 52.9893 24.6966 51.3317C24.6946 51.3225 24.692 51.3133 24.6905 51.3041C24.457 49.6211 32.5629 47.1078 42.7947 45.6903Z" fill="#D38E51"/>
<path d="M47.6444 19.4209L40.8164 19.4097C43.16 19.4137 45.0567 21.3165 45.0526 23.6601L45.0337 35.0571L51.8617 35.0683L51.8806 23.6713C51.8847 21.3272 49.988 19.4244 47.6444 19.4209Z" fill="#A4E09B"/>
<path d="M24.6755 57.0569C24.3136 57.0564 24.021 56.7623 24.0215 56.4005L24.0322 50.0256C24.0388 45.9194 25.8157 42.0115 28.906 39.3029C29.1782 39.0644 29.5921 39.0914 29.8306 39.3641C30.0692 39.6363 30.0416 40.0501 29.77 40.2887C26.9625 42.7485 25.3488 46.2986 25.3427 50.0276L25.332 56.4025C25.3314 56.7649 25.0374 57.0574 24.6755 57.0569Z" fill="white"/>
<path d="M24.6661 62.8231C24.3043 62.8226 24.0112 62.5285 24.0117 62.1667L24.0168 59.1523C24.0173 58.7904 24.3114 58.4973 24.6733 58.4983C25.0352 58.4988 25.3283 58.7929 25.3272 59.1548L25.3221 62.1692C25.3216 62.5311 25.028 62.8236 24.6661 62.8231Z" fill="white"/>
<path d="M22.6723 62.9897L22.6406 82.8076L63.6087 82.8732L63.6404 63.0553L22.6723 62.9897Z" fill="#1E541D"/>
<path d="M55.4145 63.0389L55.3828 82.8567L63.6049 82.8698L63.6366 63.052L55.4145 63.0389Z" fill="#A4E09B"/>
<path d="M43.2449 22.8512C39.7712 22.8456 36.5387 22.416 35.0463 21.7727C34.9209 22.0265 34.82 22.2942 34.7471 22.573C36.3827 23.2595 39.6484 23.6989 43.2439 23.705C46.8465 23.7106 50.1081 23.282 51.7463 22.6005C51.6744 22.3212 51.574 22.053 51.4496 21.7992C49.9557 22.4384 46.7277 22.8568 43.2449 22.8512Z" fill="#407639"/>
<path d="M43.2442 23.2784C42.2156 23.2768 41.2263 23.2167 40.3012 23.1086C40.2349 23.2136 40.1992 23.3242 40.1992 23.4379C40.1982 24.1474 41.5602 24.7254 43.2422 24.728C44.9237 24.7305 46.2876 24.1576 46.2892 23.4481C46.2892 23.3339 46.254 23.2239 46.1883 23.1183C45.2621 23.2233 44.2728 23.2799 43.2442 23.2784Z" fill="#407639"/>
<path d="M39.7174 73.0211C39.7113 76.8235 36.624 79.9006 32.8216 79.8944C29.0192 79.8883 25.9421 76.801 25.9483 72.9986C25.9544 69.1962 29.0417 66.1191 32.8441 66.1253C36.6465 66.1319 39.7236 69.2192 39.7174 73.0211Z" fill="white"/>
<path d="M38.6585 66.9743C38.5214 68.375 37.9464 69.7012 37.0861 70.8083C36.1329 72.0351 34.8321 72.8654 33.4957 73.6193C31.0776 74.9838 28.0576 76.5904 27.8599 79.7287C27.8435 79.9866 28.2437 79.9855 28.26 79.7292C28.4644 76.4879 31.9166 75.0205 34.3276 73.603C35.6003 72.8542 36.7461 71.9628 37.6187 70.7604C38.4225 69.6523 38.9256 68.3368 39.0586 66.9753C39.0841 66.7179 38.6835 66.7194 38.6585 66.9743Z" fill="#DA8E4C"/>
<path d="M28.3978 71.2809C28.2261 71.0877 27.9437 71.3712 28.1144 71.5633C29.2924 72.8896 29.7134 74.7816 29.2236 76.484C29.1522 76.7327 29.538 76.8388 29.6094 76.5911C30.1395 74.7475 29.6701 72.7132 28.3978 71.2809Z" fill="#DA8E4C"/>
<path d="M32.2873 69.5347C32.1696 69.3048 31.824 69.5066 31.9413 69.736C32.769 71.3553 32.5794 73.3677 31.4958 74.8209C31.3413 75.0278 31.6884 75.2276 31.8408 75.0232C33.0111 73.4543 33.1757 71.2728 32.2873 69.5347Z" fill="#DA8E4C"/>
<path d="M37.1318 68.5096C36.9412 68.0601 36.537 67.7604 36.0375 67.8236C35.2098 67.9281 34.4284 69.1075 35.2332 69.7375C35.5569 69.9909 36.0034 69.8859 36.2128 69.5464C36.4305 69.1942 36.0936 68.7691 35.7271 68.7655C35.4692 68.763 35.4687 69.1631 35.7266 69.1657C35.9748 69.1682 35.8408 69.4292 35.6904 69.4771C35.4947 69.5393 35.3545 69.3084 35.3081 69.1611C35.2113 68.8532 35.4957 68.5321 35.722 68.3695C36.0023 68.1682 36.3398 68.1544 36.5951 68.397C36.8413 68.631 36.8597 69.0153 36.8525 69.3313C36.8276 70.4674 36.2755 71.5745 35.4681 72.3549C35.2826 72.5348 35.565 72.8177 35.7506 72.6383C36.4794 71.9334 36.9728 71.0256 37.1706 70.0311C37.268 69.5464 37.3296 68.976 37.1318 68.5096Z" fill="#DA8E4C"/>
<path d="M33.8484 70.8029C33.6991 69.6367 32.7989 68.653 31.6801 68.3329C31.5833 68.3053 31.4523 68.3649 31.4334 68.472C31.1322 70.2116 30.8646 72.1791 32.1047 73.6338C32.1393 73.6741 32.1786 73.6934 32.2179 73.698C32.2734 73.7612 32.3626 73.7907 32.4559 73.7316C33.432 73.1113 33.9962 71.9558 33.8484 70.8029ZM32.359 73.3152C31.3116 72.0491 31.5262 70.3054 31.7836 68.79C32.6373 69.1158 33.2658 69.8701 33.4422 70.7738C33.6292 71.7336 33.1409 72.7597 32.359 73.3152Z" fill="#DA8E4C"/>
<path d="M29.9625 71.3022C29.4757 70.1783 28.3911 69.344 27.2081 69.0789C27.1082 69.0565 26.9833 69.1074 26.9619 69.218C26.7183 70.4495 26.73 71.7202 27.2244 72.89C27.6245 73.836 28.3906 74.6214 29.3432 75.0057C29.3988 75.1235 29.5655 75.1939 29.6664 75.0726C29.6883 75.0461 29.7108 75.0195 29.7327 74.993C29.7582 74.9625 29.7719 74.9293 29.778 74.8967C30.4009 73.7972 30.4656 72.4644 29.9625 71.3022ZM27.6046 72.7666C27.1332 71.7666 27.124 70.5933 27.3116 69.5188C28.2759 69.7961 29.0787 70.4566 29.5446 71.3527C30.0737 72.3695 30.0013 73.6296 29.4686 74.6271C28.621 74.2851 27.991 73.5867 27.6046 72.7666Z" fill="#DA8E4C"/>
<path d="M36.2363 76.4626C35.1083 77.4871 33.4436 76.9943 32.1229 76.7532C30.9236 76.5345 29.5153 76.5171 28.6161 77.4795C28.4403 77.6675 28.7222 77.952 28.8986 77.7629C29.9236 76.665 31.5694 77.0503 32.8579 77.3021C34.0965 77.5442 35.512 77.6594 36.5186 76.746C36.7103 76.5722 36.4269 76.2893 36.2363 76.4626Z" fill="#DA8E4C"/>
<path d="M37.8257 75.262C37.7926 75.1341 37.6438 75.0806 37.5322 75.1417C35.6615 76.1657 33.0712 75.0449 31.484 76.7534C31.3795 76.8661 31.4376 77.0119 31.539 77.0715C31.5365 77.097 31.539 77.1245 31.5487 77.1546C31.7868 77.8804 32.4504 78.2617 33.164 78.4095C33.9407 78.571 34.7915 78.5496 35.5631 78.3748C36.9455 78.0619 38.2136 76.7641 37.8257 75.262ZM35.4576 77.9894C34.8261 78.1485 34.1508 78.1342 33.5075 78.0623C32.8673 77.9905 32.1527 77.7137 31.9346 77.0495C31.9187 77.0016 31.8912 76.9675 31.8576 76.9451C32.5645 76.2631 33.5911 76.1193 34.5386 76.0699C35.5382 76.0179 36.5632 76.024 37.4852 75.6096C37.6336 76.8049 36.5407 77.7172 35.4576 77.9894Z" fill="#DA8E4C"/>
<path d="M39.6126 71.8845C38.9102 72.7255 37.7853 72.9365 36.7471 73.0216C35.6089 73.1149 34.4325 73.1215 33.4131 73.7046C33.1893 73.8325 33.3901 74.1792 33.6144 74.0507C35.5401 72.9487 38.3266 74.0456 39.895 72.1678C40.0596 71.9716 39.7782 71.6862 39.6126 71.8845Z" fill="#DA8E4C"/>
<path d="M36.2993 72.9883C36.0414 72.9878 36.0404 73.3878 36.2988 73.3884C36.5568 73.3884 36.5573 72.9883 36.2993 72.9883Z" fill="#DA8E4C"/>
<path d="M40.7486 70.7503C40.7084 70.6025 40.5223 70.5582 40.4143 70.6616C39.1864 71.8339 37.012 71.4451 36.0818 73.0313C35.986 73.1087 35.9544 73.2805 36.091 73.3697C37.1201 74.042 38.5003 74.2092 39.5809 73.5552C40.5121 72.9915 41.0351 71.8079 40.7486 70.7503ZM39.3113 73.2499C38.4489 73.7718 37.3341 73.6179 36.4855 73.1403C36.9238 72.4905 37.7062 72.2122 38.4336 71.9991C39.1273 71.7962 39.8373 71.6041 40.4199 71.1754C40.4984 72.0057 40.0264 72.8177 39.3113 73.2499Z" fill="#DA8E4C"/>
<path d="M59.2274 71.4453H43.4434V72.7119H59.2274V71.4453Z" fill="#7FD174"/>
<path d="M59.2274 74.1133H43.4434V75.3805H59.2274V74.1133Z" fill="#7FD174"/>
<path d="M36.4952 82.645C36.3194 82.5314 36.1425 82.4208 35.9651 82.3117C26.3689 78.5761 21.9136 78.4512 11.6344 81.5767C12.9402 80.6134 13.6962 80.622 14.5667 80.0395C15.4373 79.4569 16.0688 79.0068 15.8971 77.8181C15.5866 75.6687 12.899 74.8501 10.7327 74.8817C10.1807 75.0606 10.089 75.0999 10.0538 75.2742C9.91313 75.5749 10.1394 75.8293 10.2429 75.997C10.3367 76.1483 10.1838 76.3976 10.1216 76.523C9.48344 77.809 7.89775 78.4767 6.8814 79.045C5.38899 79.8809 4.04897 81.2943 4.14989 82.9845C4.14887 83.2169 4.14785 83.4499 4.14734 83.6823C4.14632 83.9891 4.34256 84.1874 4.57855 84.2134C11.3265 84.9622 18.6387 85.2144 26.5488 84.8597C30.3038 84.691 34.0849 84.5279 36.3745 83.7103C36.7557 83.5737 36.874 82.8902 36.4952 82.645Z" fill="white"/>
<path d="M15.8968 77.8176C16.0685 79.0067 15.437 79.4562 14.5664 80.0388C13.6959 80.6214 12.9399 80.6128 11.6341 81.5762C21.9153 78.4501 26.3712 78.576 35.9648 82.3111C32.1517 79.9659 27.9982 78.7157 23.7223 78.4975C19.4234 78.2778 19.8174 79.0031 17.5293 76.7666C15.7041 74.9821 13.1724 74.0906 10.7324 74.8812C12.9012 74.8496 15.5864 75.6697 15.8968 77.8176Z" fill="#8CAF87"/>
<path d="M36.4948 82.6451C35.4316 81.9861 33.2557 80.6058 29.9981 79.6583C25.4363 78.3412 22.2771 78.726 20.4254 78.7143C18.7128 78.6918 18.2127 77.7367 16.8483 76.6439C15.9925 75.9242 14.6494 75.2799 13.3731 75.1372C12.8292 75.0811 12.6233 75.0852 12.0738 75.1249C12.109 75.1214 12.0795 75.1244 12.0856 75.1239C11.3863 75.2305 11.163 75.287 10.3831 75.5888C10.4061 75.5776 10.323 75.6174 10.4336 75.5638C9.74907 75.9675 10.5269 75.418 10.5289 75.3986L10.4836 75.5378C10.4968 75.5302 10.5044 75.442 10.4978 75.4334C10.4963 75.4288 10.6548 75.6673 10.6936 75.7473C10.8929 76.202 10.6946 76.65 10.2944 77.2591C9.63999 78.2265 8.55688 78.8223 7.56194 79.3586C5.35084 80.5553 4.93593 81.4774 4.69535 82.6385L4.69127 83.6778C4.69025 83.6549 4.6933 83.7436 4.68922 83.6284C4.69024 83.6401 4.69587 83.715 4.6974 83.7349C4.70505 83.7237 4.68975 83.6636 4.68415 83.6503C4.68262 83.6401 4.65101 83.5993 4.63674 83.5973C4.63572 83.5952 4.63215 83.5988 4.63266 83.5973C4.63266 83.5958 4.63213 83.5963 4.63213 83.5978C4.62958 83.5978 4.63825 83.5988 4.62551 83.5978C5.17853 83.6554 4.60104 83.5947 7.19136 83.8679L8.27501 83.9867C9.63694 84.0989 8.92385 84.0381 11.5157 84.2624C11.796 84.2915 15.7987 84.6396 22.9168 84.7614C28.6688 84.7313 33.3051 84.6845 36.3164 83.7257C36.7752 83.6003 36.8654 82.8918 36.4948 82.6451ZM36.4948 82.6451C36.871 82.8929 36.7741 83.605 36.3174 83.7319C36.1538 83.7849 36.2532 83.7528 35.9245 83.8593C32.669 85.0051 18.3723 85.4398 13.6504 85.3588C8.81684 85.2757 4.57354 84.8471 4.37476 84.7997C4.09901 84.7355 3.60356 84.4102 3.60305 83.6538C3.60305 82.6319 3.58827 82.5233 3.65198 82.2649L3.63416 82.3516C4.21318 78.3728 8.538 78.4182 9.6828 76.2366C9.86782 75.8773 9.69658 76.1265 9.82248 76.308C9.78476 76.231 9.8612 76.3737 9.8352 76.3273C9.71644 76.1377 9.33368 75.6413 9.62319 75.0108L9.5773 75.1499C9.65784 74.8171 9.85661 74.6162 10.0783 74.5383C10.69 74.3237 11.3598 74.1106 12.0856 74.0897C16.7035 74.0026 18.0787 77.5358 19.6343 78.0262C20.5625 78.334 22.9606 78.0751 25.712 78.5405C30.149 79.2291 33.3556 80.6777 36.4948 82.6451Z" fill="#8CAF87"/>
<path d="M37.5755 106.977L2.31154 106.764C1.02708 106.756 -0.00760348 105.709 4.20997e-05 104.424L0.118789 84.7152C0.121337 84.2661 0.487824 83.9037 0.937384 83.9068L39.2254 84.1372C39.6745 84.1397 40.0368 84.5062 40.0338 84.9557L39.915 104.665C39.9074 105.949 38.8599 106.984 37.5755 106.977Z" fill="#67AB41"/>
<path d="M2.41977 97.4152C2.15727 97.4137 1.94574 97.1997 1.94727 96.9372L1.99876 88.4271C2.00029 88.1646 2.21436 87.9531 2.47686 87.9546C2.73936 87.9561 2.95088 88.1702 2.94936 88.4327L2.8984 96.9428C2.89687 97.2053 2.68278 97.4168 2.41977 97.4152Z" fill="white"/>
<path d="M2.40024 100.553C2.13774 100.552 1.92621 100.337 1.92774 100.075L1.93487 98.8863C1.9364 98.6238 2.15047 98.4123 2.41296 98.4138C2.67546 98.4154 2.88699 98.6294 2.88546 98.8919L2.87834 100.081C2.87732 100.343 2.66325 100.555 2.40024 100.553Z" fill="white"/>
<path d="M39.2254 84.1372L32.6894 84.0979C33.139 84.1004 33.5009 84.467 33.4983 84.9165L33.3796 104.626C33.3719 105.91 32.3245 106.945 31.04 106.937L37.576 106.977C38.8604 106.984 39.9079 105.95 39.9155 104.665L40.0343 84.9552C40.0368 84.5062 39.6749 84.1397 39.2254 84.1372Z" fill="#8BD680"/>
<path d="M38.2372 84.1311L1.9248 83.9124L1.9309 82.9129C1.93294 82.6091 2.17301 82.3639 2.46711 82.366L37.7132 82.578C38.0078 82.5796 38.2449 82.8277 38.2433 83.1315L38.2372 84.1311Z" fill="#2F5E2E"/>
<path d="M26.2108 95.4663C26.1884 99.1892 23.1521 102.189 19.4292 102.167C15.7063 102.145 12.7062 99.1082 12.7286 95.3853C12.7511 91.6624 15.7874 88.6623 19.5103 88.6847C23.2331 88.7066 26.2332 91.743 26.2108 95.4663Z" fill="white"/>
<path d="M25.2002 89.5405C25.06 90.9116 24.4917 92.2072 23.6441 93.2883C22.7057 94.4856 21.4284 95.2929 20.1164 96.0254C17.7427 97.3511 14.7788 98.9114 14.5718 101.983C14.555 102.236 14.9469 102.237 14.9638 101.985C15.1778 98.8125 18.5643 97.3904 20.9309 96.0127C22.1807 95.2853 23.3061 94.4168 24.1655 93.2429C24.9576 92.1613 25.4555 90.8753 25.5916 89.5425C25.6181 89.2912 25.2257 89.2912 25.2002 89.5405Z" fill="#2F5E2E"/>
<path d="M15.1336 93.7133C14.9665 93.5232 14.6887 93.8 14.8548 93.9886C16.0022 95.2924 16.4064 97.1467 15.9201 98.8119C15.8493 99.055 16.2264 99.1605 16.2973 98.9184C16.8238 97.1156 16.3727 95.1216 15.1336 93.7133Z" fill="#2F5E2E"/>
<path d="M18.9502 92.0201C18.8361 91.7943 18.4971 91.991 18.6108 92.2158C19.4141 93.8051 19.2204 95.774 18.1526 97.1931C18.0007 97.3954 18.3396 97.5922 18.4895 97.3929C19.6429 95.8612 19.8127 93.7261 18.9502 92.0201Z" fill="#2F5E2E"/>
<path d="M23.6977 91.0374C23.5127 90.5965 23.1182 90.3014 22.6294 90.3606C21.8185 90.4594 21.0483 91.6109 21.8337 92.2317C22.1498 92.4814 22.5871 92.38 22.794 92.0487C23.0086 91.7047 22.6809 91.2873 22.322 91.2822C22.0692 91.2786 22.0672 91.6705 22.3195 91.6741C22.5626 91.6776 22.4301 91.9325 22.2828 91.9789C22.0911 92.039 21.9546 91.8122 21.9097 91.6675C21.8164 91.3657 22.0962 91.0527 22.3184 90.8942C22.5937 90.698 22.9245 90.6863 23.1732 90.9248C23.4133 91.1552 23.4296 91.5314 23.4215 91.8408C23.3924 92.9529 22.847 94.0345 22.0529 94.7955C21.8704 94.9709 22.1462 95.2492 22.3286 95.0743C23.0453 94.3872 23.532 93.5004 23.7303 92.5274C23.8267 92.0533 23.8899 91.4952 23.6977 91.0374Z" fill="#2F5E2E"/>
<path d="M20.4735 93.269C20.3323 92.1267 19.4551 91.1593 18.3613 90.8413C18.2665 90.8138 18.138 90.8719 18.1197 90.9769C17.8174 92.6788 17.5468 94.6044 18.7548 96.0341C18.7884 96.0739 18.8267 96.0928 18.8654 96.0979C18.9194 96.16 19.0066 96.1891 19.0983 96.1315C20.0561 95.5275 20.6132 94.3985 20.4735 93.269ZM19.0046 95.7227C17.9846 94.478 18.2023 92.772 18.4602 91.2893C19.2951 91.6114 19.9072 92.3531 20.0754 93.2389C20.2549 94.1793 19.7727 95.1819 19.0046 95.7227Z" fill="#2F5E2E"/>
<path d="M16.6666 93.7413C16.1947 92.6388 15.1365 91.8172 13.979 91.5527C13.8811 91.5302 13.7593 91.5797 13.7369 91.6882C13.4927 92.8932 13.4988 94.1373 13.978 95.2847C14.3653 96.2128 15.1126 96.9851 16.0438 97.3653C16.0978 97.481 16.2604 97.5503 16.3598 97.4321C16.3817 97.4061 16.4031 97.3801 16.425 97.3546C16.45 97.3245 16.4638 97.2924 16.4699 97.2603C17.0851 96.1864 17.1539 94.881 16.6666 93.7413ZM14.3516 95.1649C13.8944 94.1837 13.8903 93.0349 14.0784 91.9833C15.0213 92.2586 15.8047 92.9095 16.2574 93.7887C16.7711 94.7867 16.6947 96.0202 16.1687 96.9942C15.3404 96.6558 14.7262 95.9697 14.3516 95.1649Z" fill="#2F5E2E"/>
<path d="M22.7874 98.821C21.6783 99.819 20.0503 99.3292 18.7582 99.0881C17.5843 98.8689 16.2056 98.846 15.3217 99.7843C15.1484 99.9678 15.4237 100.248 15.597 100.063C16.6057 98.9928 18.2148 99.3771 19.4758 99.6289C20.6874 99.871 22.0733 99.9902 23.0627 99.0998C23.2512 98.9301 22.975 98.6523 22.7874 98.821Z" fill="#2F5E2E"/>
<path d="M24.3487 97.6523C24.3171 97.5269 24.1713 97.4739 24.0617 97.5335C22.2258 98.5279 19.6941 97.4199 18.1328 99.0861C18.0299 99.1957 18.0865 99.3389 18.1853 99.3981C18.1828 99.423 18.1853 99.4501 18.1945 99.4796C18.4244 100.191 19.0727 100.567 19.771 100.716C20.531 100.877 21.3644 100.86 22.1203 100.692C23.4746 100.39 24.7218 99.1248 24.3487 97.6523ZM22.0178 100.312C21.3985 100.465 20.7374 100.449 20.1085 100.375C19.4815 100.302 18.7832 100.028 18.5727 99.3767C18.5574 99.3298 18.5304 99.2961 18.4983 99.2742C19.1935 98.6095 20.1992 98.473 21.1268 98.4286C22.1054 98.3817 23.1091 98.3924 24.0143 97.9908C24.1535 99.1621 23.08 100.051 22.0178 100.312Z" fill="#2F5E2E"/>
<path d="M26.113 94.3524C25.4219 95.1725 24.3194 95.3749 23.302 95.4539C22.1873 95.54 21.0353 95.5416 20.0348 96.1084C19.8151 96.2327 20.0103 96.5727 20.2305 96.4478C22.121 95.3769 24.8449 96.4631 26.3882 94.6312C26.5498 94.4396 26.2761 94.1592 26.113 94.3524Z" fill="#2F5E2E"/>
<path d="M22.8645 95.4194C22.6117 95.4179 22.6097 95.8099 22.862 95.8114C23.1148 95.8124 23.1173 95.421 22.8645 95.4194Z" fill="#2F5E2E"/>
<path d="M27.2307 93.247C27.1919 93.1022 27.01 93.0578 26.904 93.1582C25.6965 94.301 23.569 93.9111 22.651 95.4601C22.5567 95.536 22.5256 95.7037 22.6586 95.7914C23.6633 96.454 25.0145 96.6237 26.0752 95.9881C26.9896 95.4402 27.5069 94.2837 27.2307 93.247ZM25.8127 95.6884C24.9661 96.1956 23.8748 96.0401 23.046 95.5686C23.4777 94.9341 24.2453 94.665 24.9584 94.4596C25.6384 94.2638 26.3346 94.0788 26.907 93.6619C26.9799 94.4748 26.5145 95.2679 25.8127 95.6884Z" fill="#2F5E2E"/>
</svg>
