<svg width="100" height="92" viewBox="0 0 100 92" fill="none" xmlns="http://www.w3.org/2000/svg">
<path d="M58.7799 84.0642H41.2223C37.9843 84.0642 35.3594 86.6892 35.3594 89.9272H64.6429C64.6429 86.6892 62.0179 84.0642 58.7799 84.0642Z" fill="#B6E6FA"/>
<path d="M45.6148 84.0642H41.2223C37.9843 84.0642 35.3594 86.6892 35.3594 89.9272H39.7519C39.7519 86.6892 42.3769 84.0642 45.6148 84.0642Z" fill="#8AD8F6"/>
<path d="M55.8579 69.4131H44.1445V84.0642H55.8579V69.4131Z" fill="#00ADEB"/>
<path d="M48.5089 79.6998V69.4131H44.1445V84.0642H55.8579V79.6998H48.5089Z" fill="#009DE6"/>
<path d="M98.5365 2.07349H1.46484V57.7121H98.5365V2.07349Z" fill="#E3EDF6"/>
<path d="M6.10042 53.0765V2.07349H1.46484V57.7121H98.5365V53.0765H6.10042Z" fill="#C5D9EC"/>
<path d="M98.5365 57.7122H1.46484V69.4131H98.5365V57.7122Z" fill="#54C9F3"/>
<path d="M6.15176 65.0252V57.7122H1.46484V69.4131H98.5365V65.0252H6.15176Z" fill="#2EC2F1"/>
<path d="M42.6797 63.5625H45.608" stroke="white" stroke-width="2.25483" stroke-miterlimit="10"/>
<path d="M48.5361 63.5625H51.4645" stroke="white" stroke-width="2.25483" stroke-miterlimit="10"/>
<path d="M54.3936 63.5625H57.3219" stroke="white" stroke-width="2.25483" stroke-miterlimit="10"/>
<path d="M37.9383 22.2424L26.556 10.8601L15.1737 22.2424C8.91834 28.4505 8.90077 38.7837 15.1737 45.0072C21.4601 51.2936 31.6521 51.2936 37.9385 45.0072C44.2247 38.7208 44.2247 28.5288 37.9383 22.2424Z" fill="#F696C3"/>
<path d="M18.3088 41.8722C12.0359 35.6487 12.0534 25.3155 18.3088 19.1074L15.1737 22.2425C8.91834 28.4506 8.90077 38.7838 15.1737 45.0073C21.4601 51.2937 31.6521 51.2937 37.9385 45.0073C38.4707 44.4751 38.9538 43.9131 39.396 43.3298C33.0878 48.1096 24.063 47.6264 18.3088 41.8722Z" fill="#F072AE"/>
<path d="M22.25 22.5735V25.5018" stroke="white" stroke-width="2.25483" stroke-miterlimit="10"/>
<path d="M63.178 26.9683H57.3213V41.6473H63.178V26.9683Z" fill="#FEEF8F"/>
<path d="M63.178 37.6304H57.3213V41.6471H63.178V37.6304Z" fill="#FEE95D"/>
<path d="M86.6047 21.1238H80.748V41.6472H86.6047V21.1238Z" fill="#57758D"/>
<path d="M86.6047 37.6304H80.748V41.6471H86.6047V37.6304Z" fill="#4B6276"/>
<path d="M74.8919 18.1953H69.0352V41.6471H74.8919V18.1953Z" fill="#B6F600"/>
<path d="M74.8919 37.6304H69.0352V41.6471H74.8919V37.6304Z" fill="#ABE700"/>
<path d="M61.71 2.07349H1.46484V25.5018V57.7121H98.5365V2.07349H64.6424" stroke="black" stroke-width="2.25483" stroke-miterlimit="10"/>
<path d="M1.46484 57.7122V69.4131H98.5365V57.7122" stroke="black" stroke-width="2.25483" stroke-miterlimit="10"/>
<path d="M44.1445 69.4131V84.0642H55.8579V69.4131" stroke="black" stroke-width="2.25483" stroke-miterlimit="10"/>
<path d="M54.3936 89.9272H64.6428C64.6428 86.6892 62.0178 84.0642 58.7798 84.0642H55.8577" stroke="black" stroke-width="2.25483" stroke-miterlimit="10"/>
<path d="M48.5244 89.927H51.4403" stroke="black" stroke-width="2.25483" stroke-miterlimit="10"/>
<path d="M44.1444 84.0642H41.2223C37.9843 84.0642 35.3594 86.6892 35.3594 89.9272H45.6086" stroke="black" stroke-width="2.25483" stroke-miterlimit="10"/>
<path d="M7.55859 6.46753V9.39588" stroke="black" stroke-width="2.25483" stroke-miterlimit="10"/>
<path d="M13.415 6.46753V9.39588" stroke="black" stroke-width="2.25483" stroke-miterlimit="10"/>
<path d="M10.5654 31.7697C10.967 28.2883 12.503 24.9131 15.1734 22.2424L26.5557 10.8601L37.938 22.2424C44.2244 28.5288 44.2244 38.7208 37.938 45.0072C31.6517 51.2936 21.4596 51.2936 15.1733 45.0072C12.3033 42.1372 10.7434 38.453 10.4941 34.6982" stroke="black" stroke-width="2.25483" stroke-miterlimit="10"/>
<path d="M51.4648 10.8601V47.5287H90.9978" stroke="black" stroke-width="2.25483" stroke-miterlimit="10"/>
<path d="M63.178 26.9683H57.3213V41.6473H63.178V26.9683Z" stroke="black" stroke-width="2.25483" stroke-miterlimit="10"/>
<path d="M74.8919 18.1953H69.0352V41.6471H74.8919V18.1953Z" stroke="black" stroke-width="2.25483" stroke-miterlimit="10"/>
<path d="M86.6047 21.1238H80.748V41.6472H86.6047V21.1238Z" stroke="black" stroke-width="2.25483" stroke-miterlimit="10"/>
</svg>
