<svg width="100" height="100" viewBox="0 0 100 100" fill="none" xmlns="http://www.w3.org/2000/svg">
<g clip-path="url(#clip0_63_3571)">
<path d="M1.70898 66.5027H87.1633V74.8694H1.70898V66.5027Z" fill="white"/>
<path d="M1.70898 13.7991H32.9889V66.5029H1.70898V13.7991Z" fill="#CDE7FC"/>
<path d="M27.6706 63.3132H21.9941V66.5027H32.9888V35.6266C32.9888 34.7459 32.2745 34.032 31.3933 34.032C30.5121 34.032 29.7978 34.7459 29.7978 35.6266V61.1869C29.798 62.3613 28.8456 63.3132 27.6706 63.3132Z" fill="#9FD1F9"/>
<path d="M4.90001 63.3132V19.1149C4.90001 17.9405 5.85236 16.9886 7.02736 16.9886H27.6705C28.8455 16.9886 29.7979 17.9405 29.7979 19.1149V22.2559C29.7979 23.1367 30.5122 23.8506 31.3934 23.8506C32.2746 23.8506 32.9889 23.1367 32.9889 22.2559V13.7991H1.70898V66.5029H10.9994V63.3134H4.90001V63.3132Z" fill="#B4DBFA"/>
<path d="M5.96387 5.40039H28.7344V13.7989H5.96387V5.40039Z" fill="white"/>
<path d="M23.4462 66.5028H11.2528C11.113 66.5028 11 66.3895 11 66.25V50.4387C11 46.9318 13.8427 44.0891 17.3496 44.0891C20.8564 44.0891 23.6991 46.9318 23.6991 50.4387V66.25C23.6989 66.3895 23.5857 66.5028 23.4462 66.5028Z" fill="white"/>
<path d="M17.1904 47.2825C18.6323 47.2113 19.8782 48.1126 20.3286 49.3861C20.5521 50.0181 21.1564 50.4354 21.8271 50.4354C22.9252 50.4354 23.703 49.35 23.3363 48.3154C22.4635 45.8528 20.1126 44.0889 17.3496 44.0889C13.8427 44.0889 11 46.9303 11 50.4354V66.5025H14.191V50.5269C14.1908 48.8293 15.4936 47.3662 17.1904 47.2825Z" fill="#F5F5F5"/>
<path d="M15.2217 27.0369H19.4764V31.2896H15.2217V27.0369Z" fill="white"/>
<path d="M15.2217 35.1172H19.4764V39.37H15.2217V35.1172Z" fill="white"/>
<path d="M22.8799 27.0369H27.1346V31.2896H22.8799V27.0369Z" fill="white"/>
<path d="M22.8799 35.1172H27.1346V39.37H22.8799V35.1172Z" fill="white"/>
<path d="M7.56348 27.0369H11.8182V31.2896H7.56348V27.0369Z" fill="white"/>
<path d="M15.2217 18.957H19.4764V23.2098H15.2217V18.957Z" fill="white"/>
<path d="M22.8799 18.957H27.1346V23.2098H22.8799V18.957Z" fill="white"/>
<path d="M7.56348 18.957H11.8182V23.2098H7.56348V18.957Z" fill="white"/>
<path d="M7.56348 35.1172H11.8182V39.37H7.56348V35.1172Z" fill="white"/>
<path d="M67.0107 13.7991H98.2907V66.5029H67.0107V13.7991Z" fill="#CDE7FC"/>
<path d="M72.3291 63.3132H78.0056V66.5027H67.0107V35.6266C67.0107 34.7459 67.7251 34.032 68.6063 34.032C69.4875 34.032 70.2018 34.7459 70.2018 35.6266V61.1869C70.2018 62.3613 71.1541 63.3132 72.3291 63.3132Z" fill="#B4DBFA"/>
<path d="M95.0994 61.1771V19.1149C95.0994 17.9405 94.1471 16.9886 92.9725 16.9886H72.3289C71.1539 16.9886 70.2016 17.9407 70.2016 19.1153V22.2559C70.2016 23.1367 69.4875 23.8506 68.6065 23.8506H68.6058C67.7248 23.8506 67.0107 23.1367 67.0107 22.2559V13.7991H98.2904V66.5029H89.0001V63.3134H92.9627C94.1428 63.3132 95.0994 62.3568 95.0994 61.1771Z" fill="#9FD1F9"/>
<path d="M94.0361 13.7991H71.2656V5.40057H94.0361V13.7991Z" fill="white"/>
<path d="M76.301 66.5028H89.0001V50.1857C89.0001 46.8186 86.2707 44.0889 82.9033 44.0889H82.3976C79.0305 44.0889 76.3008 46.8184 76.3008 50.1857L76.301 66.5028Z" fill="white"/>
<path d="M82.81 47.2825C81.3682 47.2113 80.1222 48.1126 79.6718 49.3861C79.4483 50.0181 78.844 50.4354 78.1733 50.4354C77.0752 50.4354 76.2974 49.35 76.6641 48.3154C77.537 45.8528 79.8878 44.0889 82.6508 44.0889C86.1577 44.0889 89.0004 46.9303 89.0004 50.4354V66.5025H85.8094V50.5269C85.8096 48.8293 84.5068 47.3662 82.81 47.2825Z" fill="#F5F5F5"/>
<path d="M84.7783 31.2896H80.5236V27.0368H84.7783V31.2896Z" fill="white"/>
<path d="M84.7783 39.3696H80.5236V35.1169H84.7783V39.3696Z" fill="white"/>
<path d="M77.1201 31.2896H72.8654V27.0368H77.1201V31.2896Z" fill="white"/>
<path d="M77.1201 39.3696H72.8654V35.1169H77.1201V39.3696Z" fill="white"/>
<path d="M92.4375 31.2896H88.1828V27.0368H92.4375V31.2896Z" fill="white"/>
<path d="M84.7783 23.2095H80.5236V18.9567H84.7783V23.2095Z" fill="white"/>
<path d="M77.1201 23.2095H72.8654V18.9567H77.1201V23.2095Z" fill="white"/>
<path d="M92.4375 23.2095H88.1828V18.9567H92.4375V23.2095Z" fill="white"/>
<path d="M92.4375 39.3696H88.1828V35.1169H92.4375V39.3696Z" fill="white"/>
<path d="M32.9893 21.6648H67.0106V66.5026H32.9893V21.6648Z" fill="#CDE7FC"/>
<path d="M32.9893 30.1702L34.9044 32.7213C43.7922 26.0552 56.2074 26.0552 65.0952 32.7213L67.0104 30.1702C56.9311 22.6106 43.0687 22.6106 32.9893 30.1702Z" fill="#9FD1F9"/>
<path d="M32.9893 40.8018L34.9044 43.3529C43.7922 36.6868 56.2074 36.6868 65.0952 43.3529L67.0104 40.8018C56.9311 33.2422 43.0687 33.2422 32.9893 40.8018Z" fill="#9FD1F9"/>
<path d="M32.9893 51.4336L34.9044 53.9847C43.7922 47.3187 56.2074 47.3187 65.0952 53.9847L67.0104 51.4336C56.9311 43.874 43.0687 43.874 32.9893 51.4336Z" fill="#9FD1F9"/>
<path d="M32.9893 62.0652L34.9044 64.6163C43.7922 57.9503 56.2074 57.9503 65.0952 64.6163L67.0104 62.0652C56.9311 54.5056 43.0687 54.5056 32.9893 62.0652Z" fill="#9FD1F9"/>
<path d="M67.0104 19.5142C56.9309 11.9546 43.0685 11.9546 32.9893 19.5142V30.1702C43.0687 22.6106 56.9311 22.6106 67.0104 30.1702V19.5142Z" fill="#CDE7FC"/>
<path d="M81.2266 86.8904H88.8204V96.1647H81.2266V86.8904Z" fill="white"/>
<path d="M73.558 85.9179L79.3285 78.3762H76.2548C74.8813 78.3762 74.1108 76.7625 74.9573 75.6593L80.7432 68.1196H79.171C77.8199 68.1196 77.043 66.5521 77.8441 65.442L83.5663 57.5145C84.2249 56.6023 85.5614 56.6023 86.2199 57.5145L91.9422 65.442C92.7432 66.5519 91.9665 68.1196 90.6152 68.1196H89.043L94.8289 75.6593C95.6755 76.7625 94.905 78.3762 93.5315 78.3762H90.4578L96.2283 85.9179C97.0727 87.0215 96.3018 88.6328 94.9293 88.6328H74.8561C73.4843 88.6331 72.7135 87.0215 73.558 85.9179Z" fill="#A7DBD6"/>
<path d="M86.7889 68.1193H87.6354C88.4461 68.1193 88.9122 67.1787 88.4316 66.5129L83.5752 59.7851L85.2143 57.5144C85.3551 57.3195 85.5278 57.1687 85.7173 57.0571C85.9068 57.1687 86.0795 57.3195 86.2203 57.5144L91.9425 65.442C92.7436 66.5518 91.9669 68.1195 90.6156 68.1195H89.0434L94.8295 75.6593C95.676 76.7625 94.9055 78.3761 93.532 78.3761H92.6303L86.0102 69.7496C85.5023 69.0877 85.9647 68.1193 86.7889 68.1193Z" fill="white"/>
<path d="M88.2004 78.3762H90.4587L96.2292 85.9179C97.0736 87.0215 96.3027 88.6328 94.9303 88.6328H94.0226L87.4211 80.0051C86.9145 79.3431 87.3769 78.3762 88.2004 78.3762Z" fill="white"/>
<path d="M98.2906 12.0896H95.7453V5.40032C95.7453 4.4563 94.9799 3.69092 94.0359 3.69092H71.2652C70.3212 3.69092 69.5558 4.4563 69.5558 5.40032V12.0896H67.0107C66.0667 12.0896 65.3013 12.855 65.3013 13.799V16.3176C60.6795 13.573 55.4502 12.1351 50 12.1351C44.5496 12.1351 39.3207 13.574 34.6987 16.3189V13.799C34.6987 12.855 33.9333 12.0896 32.9893 12.0896H30.444V5.40032C30.444 4.4563 29.6786 3.69092 28.7346 3.69092H5.9641C5.02009 3.69092 4.2547 4.4563 4.2547 5.40032V12.0896H1.7094C0.765385 12.0896 0 12.855 0 13.799V74.8696C0 75.8136 0.765385 76.579 1.7094 76.579H72.9162C72.8833 78.239 74.0585 79.8646 75.884 80.0655L72.2006 84.8794C70.547 87.0403 72.1714 90.3426 74.857 90.3426H79.5169V96.1653C79.5169 97.1093 80.2823 97.8747 81.2263 97.8747H88.8201C89.7641 97.8747 90.5295 97.1093 90.5295 96.1653V90.3426H94.9303C97.6233 90.3426 99.2451 87.0465 97.5868 84.8794L93.9034 80.0655C96.4759 79.7824 97.7603 76.6702 96.1861 74.6189L92.2032 69.4287C92.7404 69.1381 93.165 68.7112 93.4628 68.2125H98.2906C99.2346 68.2125 100 67.4471 100 66.5031V13.799C100 12.8548 99.2346 12.0896 98.2906 12.0896ZM72.9746 7.10972H92.3263V12.0896H72.9746V7.10972ZM34.6987 20.3858C43.8254 13.9881 56.1746 13.9881 65.3013 20.3858V26.9717C60.6797 24.2277 55.4498 22.7909 50 22.7909C44.5502 22.7909 39.3205 24.2277 34.6987 26.9717V20.3858ZM57.4532 55.6183V48.5663C60.216 49.3629 62.8731 50.6078 65.3013 52.3102V58.8685C62.8387 57.4061 60.2024 56.3187 57.4532 55.6183ZM65.3013 62.9418V64.7933H57.4532V59.198C60.2158 59.9946 62.8731 61.2394 65.3013 62.9418ZM57.4532 44.9864V37.9345C60.216 38.7311 62.8731 39.976 65.3013 41.6783V48.2366C62.8387 46.7745 60.2024 45.6871 57.4532 44.9864ZM57.4532 34.3548V27.3027C60.216 28.0993 62.8731 29.3439 65.3013 31.0463V37.6052C62.8387 36.1428 60.2024 35.0555 57.4532 34.3548ZM50 54.6862C48.4934 54.6862 47.0047 54.8001 45.5402 55.0172V47.8862C48.3489 47.4155 51.2197 47.3886 54.0344 47.814V54.9529C52.7073 54.7757 51.3605 54.6862 50 54.6862ZM54.0344 58.4458V64.7935H45.5402V58.5181C48.3489 58.0471 51.2197 58.0202 54.0344 58.4458ZM50 44.0544C48.4934 44.0544 47.0047 44.1683 45.5402 44.3854V37.2544C48.3489 36.7837 51.2197 36.7567 54.0344 37.1822V44.321C52.7073 44.1441 51.3605 44.0544 50 44.0544ZM50 33.4228C48.4934 33.4228 47.0047 33.5366 45.5402 33.7537V26.6228C48.3489 26.1518 51.2197 26.1249 54.0344 26.5503V33.6894C52.7073 33.5125 51.3605 33.4228 50 33.4228ZM34.6987 31.0467C37.0021 29.4317 39.5111 28.2255 42.1214 27.4257V34.4642C39.5254 35.1672 37.0344 36.2196 34.6987 37.6065V31.0467ZM34.6987 41.6785C37.0021 40.0636 39.5111 38.8574 42.1214 38.0576V45.0961C39.5254 45.799 37.0344 46.8514 34.6987 48.2384V41.6785ZM34.6987 52.3102C37.0021 50.6952 39.5111 49.489 42.1214 48.6892V55.7277C39.5254 56.4307 37.0344 57.483 34.6987 58.87V52.3102ZM34.6987 62.9418C37.0021 61.3268 39.5111 60.1206 42.1214 59.3208V64.7933H34.6987V62.9418ZM7.6735 7.10972H27.0252V12.0896H7.6735V7.10972ZM3.4188 15.5084H31.2799V64.7935H25.4083V50.5651C25.4083 46.0516 21.7363 42.3796 17.2229 42.3796C12.8487 42.3796 9.29017 45.9381 9.29017 50.3121V64.7933H3.4188V15.5084ZM21.9895 50.5651V64.7935H12.7092V50.3123C12.7092 47.8234 14.7342 45.7986 17.2231 45.7986C19.8513 45.7984 21.9895 47.9366 21.9895 50.5651ZM74.7207 73.1599H3.4188V68.2121H76.3248C76.6227 68.711 77.0472 69.1379 77.5844 69.4283L74.7207 73.1599ZM87.2908 56.1437C85.8835 54.7005 83.4024 54.8221 82.1808 56.5142L78.0103 62.2918V50.4386C78.0103 47.88 80.0919 45.7984 82.6504 45.7984C85.2092 45.7984 87.2906 47.88 87.2906 50.4386V56.1437H87.2908ZM87.1107 94.4557H82.9359V90.3424H87.1109L87.1107 94.4557ZM93.4457 76.6668H90.4588C89.0686 76.6668 88.2564 78.3108 89.1011 79.4149L94.8436 86.9236H74.941L80.6861 79.4149C81.5308 78.3108 80.7188 76.6668 79.3284 76.6668H76.3389L82.0994 69.1602C82.9464 68.0563 82.1346 66.4102 80.7432 66.4102H79.2536L84.8934 58.5971L90.5312 66.4102H89.0434C87.6521 66.4102 86.8402 68.0565 87.6872 69.1602L93.4457 76.6668ZM96.5812 64.7933H93.5487C93.4831 64.6732 90.7096 60.8127 90.7096 60.8127V50.4386C90.7096 45.995 87.0944 42.3796 82.6506 42.3796C78.2071 42.3796 74.5917 45.9948 74.5917 50.4386V64.7935H68.7201V15.5084H96.5812V64.7933Z" fill="#B4C1CD"/>
<path d="M86.4612 85.1281C87.1156 85.1281 87.646 84.5863 87.646 83.918C87.646 83.2498 87.1156 82.708 86.4612 82.708C85.8068 82.708 85.2764 83.2498 85.2764 83.918C85.2764 84.5863 85.8068 85.1281 86.4612 85.1281Z" fill="white"/>
<path d="M80.4641 85.1281C81.1185 85.1281 81.649 84.5863 81.649 83.918C81.649 83.2498 81.1185 82.708 80.4641 82.708C79.8098 82.708 79.2793 83.2498 79.2793 83.918C79.2793 84.5863 79.8098 85.1281 80.4641 85.1281Z" fill="white"/>
<path d="M83.7864 66.6003C84.4408 66.6003 84.9712 66.0585 84.9712 65.3902C84.9712 64.7219 84.4408 64.1802 83.7864 64.1802C83.132 64.1802 82.6016 64.7219 82.6016 65.3902C82.6016 66.0585 83.132 66.6003 83.7864 66.6003Z" fill="white"/>
<path d="M83.7864 76.0661C84.4408 76.0661 84.9712 75.5243 84.9712 74.856C84.9712 74.1877 84.4408 73.646 83.7864 73.646C83.132 73.646 82.6016 74.1877 82.6016 74.856C82.6016 75.5243 83.132 76.0661 83.7864 76.0661Z" fill="#B2DFDB"/>
<path d="M13.9482 76.2166V96.3425C13.9482 97.5275 14.9089 98.4882 16.0942 98.4882H62.0168C63.2021 98.4882 64.1628 97.5275 64.1628 96.3425V76.2166C64.1628 62.3521 52.922 51.1125 39.0555 51.1125C25.1893 51.1125 13.9482 62.3521 13.9482 76.2166Z" fill="#F06292"/>
<path d="M24.6777 98.4879V85.614L25.235 86.0179C33.6867 92.1414 45.16 91.977 53.4331 85.614V98.4879H24.6777Z" fill="#E02D76"/>
<path d="M40.7721 51.1125C40.9157 51.1125 41.0584 51.1155 41.2016 51.1179C28.7185 51.3467 18.6693 61.5346 18.6693 74.0709V98.488H17.811C16.6257 98.488 15.665 97.5273 15.665 96.3422V76.2164C15.665 62.3521 26.9059 51.1125 40.7721 51.1125Z" fill="#F48FB1"/>
<path d="M39.0553 51.1125C39.1989 51.1125 39.3416 51.1155 39.4848 51.1179C27.0017 51.3467 16.9525 61.5346 16.9525 74.0709V98.488H16.0942C14.9089 98.488 13.9482 97.5273 13.9482 96.3422V76.2164C13.948 62.3521 25.1891 51.1125 39.0553 51.1125Z" fill="#F8BBD0"/>
<path d="M56.9018 58.5601C56.9018 58.5603 56.9021 58.5603 56.9018 58.5601C52.8952 64.0752 46.395 67.6622 39.0559 67.6622C31.7168 67.6622 25.2166 64.0754 21.2097 58.5603L21.21 58.5601L18.6055 60.4517C23.3497 66.9819 30.9948 70.8806 39.0559 70.8806C47.117 70.8806 54.7619 66.9819 59.5063 60.4517L56.9018 58.5601Z" fill="#F48FB1"/>
<path d="M35.4072 73.2565C35.4072 71.1324 39.0553 67.6619 39.0553 67.6619C39.0553 67.6619 42.7034 71.1322 42.7034 73.2565C42.7034 75.3809 41.0701 77.1027 39.0553 77.1027C37.0406 77.1029 35.4072 75.3809 35.4072 73.2565Z" fill="#F9C0AA"/>
<path d="M41.2742 65.3305C40.0312 64.148 38.0795 64.148 36.8368 65.3305C35.4391 66.6599 32.1885 70.0937 32.1885 73.2567C32.1885 77.1523 35.269 80.3215 39.0554 80.3215C42.8417 80.3215 45.9222 77.1523 45.9222 73.2567C45.9225 70.0935 42.6718 66.6599 41.2742 65.3305ZM39.0554 77.1029C37.0406 77.1029 35.4073 75.3809 35.4073 73.2567C35.4073 71.1326 39.0554 67.6621 39.0554 67.6621C39.0554 67.6621 42.7034 71.1324 42.7034 73.2567C42.7034 75.3809 41.0701 77.1029 39.0554 77.1029Z" fill="#F48FB1"/>
<path d="M46.5658 52.2555V31.8713H31.5445V52.2555C27.5887 53.4942 24.0541 55.6854 21.209 58.5602C25.2158 64.0752 31.716 67.6622 39.0551 67.6622C46.3942 67.6622 52.8945 64.0754 56.9013 58.5602C54.0562 55.6854 50.5216 53.4944 46.5658 52.2555Z" fill="#F9C0AA"/>
<path d="M23.1475 77.4492C24.4157 83.4947 24.1467 89.7618 22.3652 95.6766L21.8268 97.1255C21.3937 98.2909 22.1056 99.5672 23.3249 99.811C24.4142 100.029 25.4751 99.3268 25.7003 98.2392C26.974 92.0892 26.4191 85.7007 24.1041 79.8625L23.1475 77.4492Z" fill="#133B63"/>
<path d="M54.9633 77.4492C53.6951 83.4947 53.9641 89.7618 55.7456 95.6766L56.284 97.1255C56.7171 98.2909 56.0052 99.5672 54.7859 99.811C53.6966 100.029 52.6357 99.3268 52.4105 98.2392C51.1368 92.0892 51.6917 85.7007 54.0067 79.8625L54.9633 77.4492Z" fill="#133B63"/>
<path d="M44.733 61.746C41.1183 59.3896 39.9679 54.6242 42.1095 50.8785L43.6587 48.1691C44.3627 46.9379 44.733 45.5441 44.733 44.1259V24.1064H56.5704V43.3874C56.5704 51.2994 51.9407 58.4797 44.733 61.746Z" fill="#133B63"/>
<path d="M52.2781 24.1064V43.3874C52.2781 50.2891 48.7548 56.6332 43.0713 60.309C43.5476 60.849 44.7326 61.7462 44.7326 61.7462C44.7326 61.7462 55.2527 57.0368 56.57 43.3874V24.1064H52.2781Z" fill="#164870"/>
<path d="M56.3576 21.7461C55.4091 21.7461 54.6403 22.5149 54.6403 23.4632V44.0309C54.6403 51.1493 50.52 58.1296 44.5195 61.7459C44.6388 61.8865 44.7898 61.9965 44.9526 62.0824C45.5588 62.4021 46.2907 62.3781 46.9041 62.0726C53.7291 58.6747 58.0747 51.6963 58.0747 44.0307V23.463C58.0749 22.5149 57.3059 21.7461 56.3576 21.7461Z" fill="#133B63"/>
<path d="M42.2358 45.7063C41.9822 44.446 42.9407 43.2676 44.2264 43.2676C45.4926 43.2676 46.4429 44.4112 46.2275 45.6586C46.0149 46.8892 41.5755 51.6379 41.1465 53.5691C41.1465 53.5689 42.361 46.3274 42.2358 45.7063Z" fill="#164870"/>
<path d="M25.8361 30.1682C28.2422 30.1682 30.1927 28.2179 30.1927 25.812C30.1927 23.4061 28.2422 21.4558 25.8361 21.4558C23.43 21.4558 21.4795 23.4061 21.4795 25.812C21.4795 28.2179 23.43 30.1682 25.8361 30.1682Z" fill="#E58077"/>
<path d="M52.0969 32.3137C54.503 32.3137 56.4535 30.3634 56.4535 27.9575C56.4535 25.5517 54.503 23.6013 52.0969 23.6013C49.6908 23.6013 47.7402 25.5517 47.7402 27.9575C47.7402 30.3634 49.6908 32.3137 52.0969 32.3137Z" fill="#E58077"/>
<path d="M39.1148 45.6204H38.9975C31.4449 45.6204 25.3223 39.4977 25.3223 31.9452V17.3355C25.3223 13.7952 28.1921 10.9253 31.7325 10.9253H46.3797C49.9201 10.9253 52.79 13.7952 52.79 17.3355V31.9452C52.79 39.4977 46.6674 45.6204 39.1148 45.6204Z" fill="#EDB298"/>
<path d="M46.3519 10.9253H39.9141C43.4696 10.9253 46.3519 13.8071 46.3519 17.3623V31.8883C46.3519 38.3635 41.8683 43.7883 35.8369 45.2373C36.8698 45.4853 37.9467 45.6204 39.0557 45.6204C46.6408 45.6204 52.7895 39.4723 52.7895 31.8883V17.3623C52.7897 13.8071 49.9074 10.9253 46.3519 10.9253Z" fill="#F9C0AA"/>
<path d="M46.3522 10.9253H42.0604C45.6159 10.9253 48.4982 13.8071 48.4982 17.3623V31.8883C48.4982 38.7424 43.4758 44.4223 36.9102 45.4524C37.6095 45.5623 38.326 45.6204 39.0561 45.6204C46.6411 45.6204 52.7899 39.4723 52.7899 31.8883V17.3623C52.7901 13.8071 49.9078 10.9253 46.3522 10.9253Z" fill="#FED9C9"/>
<path d="M32.1889 29.3253C33.133 29.3253 33.8983 28.3686 33.8983 27.1885C33.8983 26.0084 33.133 25.0518 32.1889 25.0518C31.2448 25.0518 30.4795 26.0084 30.4795 27.1885C30.4795 28.3686 31.2448 29.3253 32.1889 29.3253Z" fill="#133B63"/>
<path d="M45.9233 29.3253C46.8673 29.3253 47.6327 28.3686 47.6327 27.1885C47.6327 26.0084 46.8673 25.0518 45.9233 25.0518C44.9792 25.0518 44.2139 26.0084 44.2139 27.1885C44.2139 28.3686 44.9792 29.3253 45.9233 29.3253Z" fill="#133B63"/>
<path d="M39.0557 39.2605C37.2779 39.2605 35.8369 37.8195 35.8369 36.0421V34.9692H42.2747V36.0421C42.2747 37.8195 40.8335 39.2605 39.0557 39.2605Z" fill="#BF5377"/>
<path d="M35.8369 34.9692H42.2747V36.0421H35.8369V34.9692Z" fill="white"/>
<path d="M40.0211 12.4024L37.4014 14.887C29.3563 22.5176 25.9104 33.812 28.326 44.6332C10.9076 31.2332 15.636 1.49707 39.0433 1.49707C48.579 1.49707 56.3068 9.21716 56.2971 18.7342L56.5704 24.2958V24.6701C49.3858 24.5112 42.9845 19.7195 40.2871 13.0595L40.0211 12.4024Z" fill="#133B63"/>
<path d="M43.3353 5.78831C47.0086 5.78831 50.4108 6.93724 53.2086 8.88981C50.0917 4.42314 44.9116 1.49707 39.0437 1.49707C15.7996 1.49707 10.9789 30.8167 27.9689 44.3475C16.3661 29.7507 22.3221 5.78831 43.3353 5.78831Z" fill="#164870"/>
<path d="M28.3246 46.1292C28.0062 46.1292 27.6855 46.028 27.4137 45.819C17.9654 38.5502 13.9727 25.8119 17.7041 14.8416C20.865 5.54911 28.8421 0.00146484 39.043 0.00146484C44.0543 0.00146484 48.7648 1.95018 52.3067 5.48886C55.8398 9.01834 57.787 13.7066 57.7928 18.6946L58.0641 23.7871C58.1082 24.6119 57.475 25.3164 56.65 25.3602C55.8255 25.4066 55.121 24.7711 55.077 23.9461L54.8037 18.8139C54.8024 18.7869 54.8015 18.7598 54.8015 18.7329C54.8058 14.5303 53.1688 10.5784 50.1928 7.6051C47.2156 4.63095 43.2562 2.99292 39.0434 2.99292C30.0518 2.99292 23.3062 7.66279 20.5366 15.8051C17.2112 25.5812 20.7896 36.9483 29.2381 43.4478C29.8928 43.9515 30.0152 44.8906 29.5116 45.5453C29.2165 45.9282 28.7731 46.1292 28.3246 46.1292Z" fill="#133B63"/>
<path d="M51.7468 79.7354L51.6641 98.5027H67.3818V79.7354H51.7468Z" fill="#9575CD"/>
<path d="M56.6944 82.6428H67.382V79.7351H51.747L51.6641 98.5024H54.6504L54.7119 84.5727C54.7168 83.5056 55.603 82.6428 56.6944 82.6428Z" fill="#B39DDB"/>
<path d="M66.1427 82.7368C65.4585 82.7368 64.9038 83.2793 64.9038 83.9484V90.2644C64.9038 93.4761 62.2412 96.0796 58.9568 96.0796H55.8893C55.2051 96.0796 54.6504 96.6219 54.6504 97.2911C54.6504 97.9601 55.2051 98.5026 55.8893 98.5026H67.3818V83.9484C67.3816 83.2791 66.8269 82.7368 66.1427 82.7368Z" fill="#7E57C2"/>
<path d="M83.0998 79.7354H67.3818V98.5027H83.0171L83.0998 79.7354Z" fill="#9575CD"/>
<path d="M67.3818 79.7354V82.643H78.1353C79.2333 82.643 80.1224 83.5161 80.1175 84.5898L80.0562 98.5029H83.0169L83.0998 79.7356H67.3818V79.7354Z" fill="#B39DDB"/>
<path d="M68.6209 82.7368C69.3051 82.7368 69.8598 83.2793 69.8598 83.9484V90.2644C69.8598 93.4761 72.5224 96.0796 75.8068 96.0796H78.8744C79.5585 96.0796 80.1132 96.6219 80.1132 97.2911C80.1132 97.9601 79.5585 98.5026 78.8744 98.5026H67.3818V83.9484C67.3818 83.2791 67.9365 82.7368 68.6209 82.7368Z" fill="#7E57C2"/>
<path d="M48.7129 71.397H86.0518V79.7354H48.7129V71.397Z" fill="#E0E0E0"/>
<path d="M86.052 71.397H75.2413C75.2413 72.819 76.3943 73.9718 77.8163 73.9718H81.8821C82.7629 73.9718 83.4768 74.6856 83.4768 75.5662C83.4768 76.4468 82.7629 77.1606 81.8821 77.1606H48.7129V79.7354H86.0518V71.397H86.052Z" fill="#BDBDBD"/>
<path d="M52.1462 74.8299H63.224C65.1202 74.8299 66.6575 73.2929 66.6575 71.3967H48.7129V75.0147C48.7129 75.9628 49.4815 76.7311 50.4296 76.7311C51.3776 76.7311 52.1462 75.9625 52.1462 75.0147V74.8299Z" fill="white"/>
<path d="M77.3126 69.4154C75.103 71.6248 67.3948 71.3306 67.3948 71.3306C67.3948 71.3306 67.1006 63.6237 69.3104 61.4141C71.5203 59.2047 75.1028 59.2047 77.3126 61.4141C79.5222 63.6237 79.5222 67.2058 77.3126 69.4154Z" fill="white"/>
<path d="M57.4513 69.4154C59.6611 71.6248 67.369 71.3306 67.369 71.3306C67.369 71.3306 67.6633 63.6237 65.4535 61.4141C63.2436 59.2047 59.6611 59.2047 57.4513 61.4141C55.2415 63.6237 55.2415 67.2058 57.4513 69.4154Z" fill="white"/>
<path d="M86.0518 69.9012H78.8803C81.0976 67.1226 80.9232 62.9089 78.3707 60.3564C75.5813 57.5675 71.0427 57.5673 68.2533 60.3564C67.9177 60.6921 67.6298 61.1085 67.3811 61.5792C67.1328 61.1091 66.8467 60.6916 66.5115 60.3564C64.4937 58.3388 61.5608 57.7818 59.0367 58.6831C58.7209 58.3232 58.3989 57.9694 58.064 57.6273C58.0318 57.5871 58.0023 57.5453 57.9653 57.5079C55.1764 54.6901 51.7711 52.5175 48.0625 51.1812V44.1859C51.832 41.423 54.2858 36.9662 54.2858 31.945V17.3354C54.2858 12.976 50.7392 9.42944 46.3798 9.42944H31.7326C27.3732 9.42944 23.8266 12.976 23.8266 17.3354V31.945C23.8266 36.9662 26.2803 41.423 30.0499 44.1859V51.1812C26.3414 52.5175 22.936 54.6901 20.1471 57.5081C20.1106 57.545 20.0818 57.5863 20.0497 57.626C15.3533 62.425 12.4531 68.988 12.4531 76.2166V96.3425C12.4531 98.3502 14.0869 99.9839 16.0948 99.9839L83.0172 99.9987C83.8407 99.9987 84.5093 99.3331 84.513 98.5096L84.5892 81.2314H86.0516C86.8777 81.2314 87.5474 80.5617 87.5474 79.7356V71.3974C87.5476 70.5709 86.8779 69.9012 86.0518 69.9012ZM70.3685 62.472C71.9726 60.8679 74.6514 60.8681 76.2555 62.472C77.891 64.1072 77.7365 66.7089 76.2555 68.3577C75.2341 69.379 71.7102 69.8113 68.8754 69.8508C68.9149 67.0162 69.3471 63.4929 70.3685 62.472ZM64.3963 62.472C65.9638 64.0391 65.9021 67.8337 65.882 69.8493C63.0848 69.8042 59.5181 69.3664 58.5093 68.3577C57.7232 67.5715 57.2901 66.5265 57.2901 65.4149C57.2901 63.144 59.1826 61.2549 61.4527 61.2549C62.5185 61.2547 63.5845 61.6604 64.3963 62.472ZM26.8181 31.945V17.3354C26.8181 14.6256 29.0228 12.4209 31.7326 12.4209H46.3798C49.0897 12.4209 51.2944 14.6256 51.2944 17.3354V31.945C51.2944 38.6609 45.8307 44.1245 39.1149 44.1245H38.9976C32.2818 44.1243 26.8181 38.6609 26.8181 31.945ZM31.9924 53.6829C32.6164 53.4874 33.0412 52.9094 33.0412 52.2555V45.8961C34.8709 46.6803 36.8841 47.116 38.9974 47.116H39.1147C41.2281 47.116 43.2412 46.6803 45.0709 45.8961V52.2555C45.0709 52.9094 45.4956 53.4876 46.1196 53.6829C49.3565 54.6965 52.3657 56.4235 54.8937 58.7089C51.0057 63.4008 45.1779 66.1662 39.0557 66.1662C32.9335 66.1662 27.1059 63.4008 23.2179 58.7089C25.7463 56.4237 28.7555 54.6965 31.9924 53.6829ZM41.2085 73.2566C41.2085 74.5527 40.2429 75.607 39.0561 75.607C37.8694 75.607 36.9038 74.5525 36.9038 73.2566C36.9038 72.5846 37.9059 71.1145 39.0561 69.8186C40.2065 71.1147 41.2085 72.5848 41.2085 73.2566ZM15.4446 96.3425V76.2166C15.4446 70.3621 17.589 65.0008 21.1315 60.8713C24.8937 65.2812 30.1706 68.1555 35.8807 68.9401C34.8638 70.2476 33.9125 71.8459 33.9125 73.2566C33.9125 76.2021 36.22 78.5985 39.0563 78.5985C41.8927 78.5985 44.2001 76.2021 44.2001 73.2566C44.2001 71.8457 43.2489 70.2474 42.232 68.9401C46.8365 68.3074 51.1572 66.3132 54.6311 63.2532C54.4132 63.9433 54.2989 64.67 54.2989 65.4147C54.2989 67.0673 54.8566 68.6337 55.8813 69.9012H48.7132C47.8871 69.9012 47.2174 70.5709 47.2174 71.397V79.7352C47.2174 80.5613 47.8871 81.2309 48.7132 81.2309H50.2452L50.1756 96.9923H16.0948C15.7365 96.9923 15.4446 96.7008 15.4446 96.3425ZM65.8867 97.007H53.1668L53.2365 81.2309H65.8867V97.007ZM81.5281 97.007H68.8779V81.2309H81.5978L81.5281 97.007ZM84.5561 78.2397H50.2085V72.8929H84.5561V78.2397Z" fill="#133B63"/>
</g>
<defs>
<clipPath id="clip0_63_3571">
<rect width="100" height="100" fill="white"/>
</clipPath>
</defs>
</svg>
