<svg width="512" height="512" viewBox="0 0 512 512" fill="none" xmlns="http://www.w3.org/2000/svg">
<g clip-path="url(#clip0_1995_8321)">
<path d="M238.104 1.68437C208.704 10.2844 189.804 35.3844 189.804 65.6844C189.804 77.2844 191.704 85.5844 196.304 95.1844C204.704 112.284 221.004 125.584 239.304 130.284C247.204 132.384 264.504 132.384 272.304 130.284C294.304 124.484 311.604 108.184 318.904 86.2844C321.004 80.1844 321.304 77.3844 321.304 65.2844C321.204 52.0844 321.104 50.7844 318.104 43.0844C310.704 23.5844 295.504 8.78437 276.804 2.58437C267.604 -0.415627 246.904 -0.915627 238.104 1.68437Z" fill="#5A72EB"/>
<path d="M184.604 152.981C167.704 164.181 151.104 183.081 141.904 201.581C137.204 210.881 132.104 226.981 130.304 237.781C129.204 244.881 128.804 255.081 128.804 277.881C128.804 306.281 128.904 308.581 130.604 310.081C132.304 311.681 142.404 311.781 256.004 311.781C376.404 311.781 379.504 311.781 381.204 309.881C382.804 308.081 382.904 305.081 382.504 273.081C382.104 239.381 382.104 237.981 379.504 228.281C376.404 216.381 374.104 210.281 368.904 199.981C358.704 179.881 340.404 160.281 321.704 149.481L317.104 146.781L309.304 151.281C289.704 162.381 265.404 167.481 244.204 164.781C228.004 162.781 209.604 156.481 199.204 149.381C197.104 147.981 195.004 146.781 194.604 146.781C194.204 146.781 189.704 149.581 184.604 152.981Z" fill="#5A72EB"/>
<path d="M76.2038 333.478C70.4038 345.378 65.5038 355.378 65.3038 355.578C65.1038 355.778 54.2038 357.578 41.1038 359.478C28.0038 361.378 17.1038 363.078 17.0038 363.278C16.8038 363.478 24.5038 371.378 34.2038 380.978L51.7038 398.278L47.8038 420.778C45.6038 433.178 43.9038 444.078 43.8038 445.078C43.8038 446.678 45.5038 446.078 54.1038 441.478C59.7038 438.478 69.5038 433.378 75.8038 429.978L87.3038 423.878L108.804 435.278C120.604 441.578 130.404 446.378 130.604 445.878C130.804 445.378 129.104 434.478 126.804 421.678L122.804 398.278L140.504 380.578C150.304 370.778 157.704 362.778 157.004 362.778C155.904 362.778 118.804 357.378 112.204 356.278C109.304 355.778 108.504 354.478 98.4038 333.778C92.5038 321.678 87.4038 311.778 87.2038 311.778C86.9038 311.778 82.0038 321.578 76.2038 333.478Z" fill="#FFC305"/>
<path d="M413.304 333.783C403.904 352.683 402.104 355.783 399.904 356.283C396.604 356.883 356.004 362.783 354.404 362.783C353.804 362.783 361.304 370.783 371.104 380.583L388.804 398.283L384.804 421.683C382.504 434.483 380.804 445.383 381.004 445.883C381.204 446.283 391.004 441.583 402.804 435.283L424.304 423.983L435.804 429.983C442.104 433.283 451.904 438.483 457.604 441.483C466.104 446.083 467.804 446.683 467.804 445.083C467.704 444.083 466.004 433.183 463.804 420.783L459.904 398.283L477.404 380.983C487.104 371.383 494.804 363.483 494.604 363.283C494.504 363.083 483.604 361.383 470.404 359.483C457.304 357.483 446.404 355.783 446.304 355.583C446.104 355.383 441.204 345.483 435.504 333.483C429.704 321.583 424.704 311.783 424.504 311.783C424.204 311.783 419.204 321.683 413.304 333.783Z" fill="#FFC305"/>
<path d="M242.904 381.181C233.404 400.781 230.104 406.781 228.404 407.181C227.304 407.381 214.604 409.281 200.304 411.381C186.004 413.381 174.104 415.181 173.904 415.381C173.704 415.581 182.804 424.681 194.004 435.681L214.504 455.781L210.204 480.981C207.804 494.881 205.704 507.481 205.404 508.981C205.104 510.681 205.304 511.781 205.904 511.781C206.504 511.781 218.004 505.981 231.404 498.881L255.804 485.881L280.304 498.881C293.704 505.981 305.204 511.781 305.704 511.781C306.304 511.781 306.504 510.581 306.204 508.981C305.904 507.481 303.804 494.881 301.404 480.981L297.104 455.681L317.604 435.781C328.904 424.781 337.904 415.581 337.704 415.381C337.504 415.181 325.804 413.381 311.804 411.381C297.804 409.381 285.104 407.481 283.704 407.181C281.404 406.781 279.604 403.481 268.804 381.281C262.004 367.281 256.204 355.781 255.804 355.781C255.504 355.781 249.604 367.181 242.904 381.181Z" fill="#FFC305"/>
</g>
<defs>
<clipPath id="clip0_1995_8321">
<rect width="512" height="512" fill="white"/>
</clipPath>
</defs>
</svg>
