<svg width="512" height="512" viewBox="0 0 512 512" fill="none" xmlns="http://www.w3.org/2000/svg">
<g filter="url(#filter0_d_1818_1517)">
<path fill-rule="evenodd" clip-rule="evenodd" d="M100.103 56.7701C102.039 56.8623 105.207 56.8623 107.142 56.7701C109.078 56.6778 107.494 56.6025 103.623 56.6025C99.7514 56.6025 98.1677 56.6778 100.103 56.7701ZM115.175 56.7713C117.39 56.8611 120.885 56.8611 122.942 56.7701C124.999 56.679 123.186 56.6049 118.914 56.6062C114.642 56.6062 112.96 56.6814 115.175 56.7713ZM131.195 56.7713C133.41 56.8611 136.905 56.8611 138.962 56.7701C141.019 56.679 139.206 56.6049 134.934 56.6062C130.662 56.6062 128.98 56.6814 131.195 56.7713ZM147.191 56.7713C149.394 56.8611 152.998 56.8611 155.201 56.7713C157.404 56.6802 155.601 56.6074 151.196 56.6074C146.791 56.6074 144.988 56.6802 147.191 56.7713ZM163.719 56.7713C165.934 56.8611 169.429 56.8611 171.486 56.7701C173.543 56.679 171.73 56.6049 167.458 56.6062C163.186 56.6062 161.504 56.6814 163.719 56.7713ZM179.739 56.7713C181.954 56.8611 185.449 56.8611 187.506 56.7701C189.563 56.679 187.75 56.6049 183.478 56.6062C179.206 56.6062 177.524 56.6814 179.739 56.7713ZM195.735 56.7713C197.938 56.8611 201.542 56.8611 203.745 56.7713C205.948 56.6802 204.146 56.6074 199.74 56.6074C195.335 56.6074 193.533 56.6802 195.735 56.7713ZM212.263 56.7713C214.478 56.8611 217.973 56.8611 220.03 56.7701C222.087 56.679 220.274 56.6049 216.002 56.6062C211.731 56.6062 210.049 56.6814 212.263 56.7713ZM228.283 56.7713C230.498 56.8611 233.993 56.8611 236.05 56.7701C238.107 56.679 236.294 56.6049 232.022 56.6062C227.75 56.6062 226.068 56.6814 228.283 56.7713ZM244.279 56.7713C246.482 56.8611 250.087 56.8611 252.289 56.7713C254.492 56.6802 252.69 56.6074 248.284 56.6074C243.879 56.6074 242.077 56.6802 244.279 56.7713ZM260.808 56.7713C263.022 56.8611 266.518 56.8611 268.575 56.7701C270.632 56.679 268.819 56.6049 264.547 56.6062C260.275 56.6062 258.593 56.6814 260.808 56.7713ZM276.827 56.7713C279.042 56.8611 282.537 56.8611 284.594 56.7701C286.651 56.679 284.838 56.6049 280.566 56.6062C276.294 56.6062 274.612 56.6814 276.827 56.7713ZM292.824 56.7713C295.026 56.8611 298.631 56.8611 300.833 56.7713C303.036 56.6802 301.234 56.6074 296.828 56.6074C292.423 56.6074 290.621 56.6802 292.824 56.7713ZM309.352 56.7713C311.566 56.8611 315.062 56.8611 317.119 56.7701C319.176 56.679 317.363 56.6049 313.091 56.6062C308.819 56.6062 307.137 56.6814 309.352 56.7713ZM325.371 56.7713C327.586 56.8611 331.081 56.8611 333.138 56.7701C335.195 56.679 333.382 56.6049 329.11 56.6062C324.838 56.6062 323.156 56.6814 325.371 56.7713ZM341.368 56.7713C343.57 56.8611 347.175 56.8611 349.378 56.7713C351.58 56.6802 349.778 56.6074 345.373 56.6074C340.967 56.6074 339.165 56.6802 341.368 56.7713ZM357.896 56.7713C360.111 56.8611 363.606 56.8611 365.663 56.7701C367.72 56.679 365.907 56.6049 361.635 56.6062C357.363 56.6062 355.681 56.6814 357.896 56.7713ZM373.915 56.7713C376.13 56.8611 379.625 56.8611 381.682 56.7701C383.739 56.679 381.926 56.6049 377.654 56.6062C373.383 56.6062 371.701 56.6814 373.915 56.7713ZM389.912 56.7713C392.115 56.8611 395.719 56.8611 397.922 56.7713C400.124 56.6802 398.322 56.6074 393.917 56.6074C389.511 56.6074 387.709 56.6802 389.912 56.7713ZM405.709 56.7701C407.522 56.8635 410.362 56.8635 412.02 56.7688C413.677 56.6741 412.194 56.5977 408.723 56.5977C405.252 56.5989 403.895 56.6766 405.709 56.7701ZM455.233 99.3862C455.235 100.989 455.326 101.586 455.434 100.713C455.542 99.8402 455.54 98.5291 455.429 97.7994C455.319 97.0698 455.23 97.7837 455.233 99.3862ZM455.255 116.383C455.253 118.786 455.335 119.83 455.437 118.704C455.539 117.577 455.54 115.61 455.44 114.333C455.34 113.056 455.256 113.979 455.255 116.383ZM455.255 132.408C455.253 134.812 455.335 135.856 455.437 134.729C455.539 133.602 455.54 131.636 455.44 130.359C455.34 129.081 455.256 130.004 455.255 132.408ZM237.478 141.756C237.378 141.956 237.312 149.149 237.332 157.74L237.368 173.36L230.084 173.57C219.636 173.871 214.524 176.783 210.822 184.544L209.334 187.663L209.319 211.043C209.308 228.149 209.459 234.712 209.88 235.497C210.587 236.821 222.009 236.645 132.385 236.692L56.0496 236.732V325.544C56.0496 418.417 56.0702 419.407 58.0192 421.847C58.2389 422.123 58.5326 422.976 58.6722 423.742C60.3773 433.154 71.7524 445.74 83.5814 451.308C92.4734 455.494 74.2111 455.092 255.783 455.1C439.522 455.107 419.645 455.61 429.354 450.705C440.422 445.113 451.332 432.644 452.945 423.742C453.085 422.976 453.378 422.123 453.598 421.847C455.547 419.406 455.568 418.418 455.568 325.541V236.725L380.784 236.704C302.212 236.682 305.18 236.743 306.03 235.156C306.414 234.439 306.531 227.222 306.433 210.469L306.295 186.796L304.966 184.095C301.411 176.87 295.328 173.447 286.025 173.436C277.65 173.425 278.571 175.222 278.6 158.964C278.614 151.302 278.547 144.214 278.452 143.213L278.28 141.392H257.971C246.801 141.392 237.579 141.556 237.478 141.756ZM455.252 148.676C455.252 150.946 455.336 151.875 455.438 150.74C455.54 149.605 455.54 147.747 455.438 146.612C455.336 145.477 455.252 146.406 455.252 148.676ZM455.255 164.944C455.253 167.348 455.335 168.392 455.437 167.265C455.539 166.138 455.54 164.172 455.44 162.895C455.34 161.617 455.256 162.54 455.255 164.944ZM455.255 180.969C455.253 183.373 455.335 184.417 455.437 183.29C455.539 182.164 455.54 180.197 455.44 178.92C455.34 177.643 455.256 178.565 455.255 180.969ZM264.548 191.773C265.081 192.06 266.501 192.642 267.702 193.066C282.29 198.211 285.503 221.106 273.042 231.099C266.991 235.953 256.919 238.302 252.334 235.929C251.51 235.503 250.731 235.257 250.606 235.383C250.208 235.781 246.201 233.77 243.579 231.856C233.942 224.822 231.566 211.311 238.305 201.864C241.485 197.406 246.312 193.713 250.123 192.823C251.381 192.529 253.027 192.011 253.782 191.672C255.423 190.935 263.124 191.007 264.548 191.773ZM455.252 197.237C455.252 199.507 455.336 200.436 455.438 199.301C455.54 198.166 455.54 196.308 455.438 195.173C455.336 194.038 455.252 194.967 455.252 197.237ZM455.255 213.505C455.253 215.909 455.335 216.953 455.437 215.826C455.539 214.7 455.54 212.733 455.44 211.456C455.34 210.179 455.256 211.101 455.255 213.505ZM455.255 229.53C455.253 231.934 455.335 232.978 455.437 231.852C455.539 230.725 455.54 228.758 455.44 227.481C455.34 226.204 455.256 227.127 455.255 229.53ZM381.781 239.901C381.781 242.645 380.914 253.733 380.561 255.511C380.428 256.178 380.22 257.489 380.099 258.424C377.231 280.493 364.839 304.861 346.449 324.59L343.846 327.382L345.425 330.175C346.293 331.709 347.91 334.495 349.018 336.365C351.027 339.752 353.05 343.252 356.827 349.875C357.921 351.793 361.384 357.841 364.522 363.316C367.66 368.792 370.72 374.146 371.319 375.214C371.92 376.282 373.317 378.635 374.426 380.443C375.534 382.251 376.441 383.839 376.441 383.973C376.441 384.107 376.949 385.032 377.569 386.029C378.191 387.025 379.635 389.588 380.778 391.725C381.923 393.862 383.162 395.955 383.533 396.376C383.905 396.798 384.208 397.292 384.208 397.474C384.208 397.657 385.383 399.716 386.82 402.049C389.434 406.297 391.633 410.205 393.716 414.306C394.871 416.578 395.599 422.86 396.163 435.43C396.294 438.368 396.613 442.272 396.872 444.105C397.412 447.943 397.036 448.784 394.777 448.784C393.362 448.784 392.625 448.361 386.15 443.83C384.414 442.616 382.503 441.471 381.902 441.285C381.301 441.101 380.81 440.756 380.81 440.519C380.81 440.282 380.045 439.726 379.111 439.282C378.176 438.839 377.412 438.305 377.412 438.095C377.412 437.885 376.483 437.229 375.349 436.638C374.214 436.045 372.489 434.931 371.516 434.16C370.544 433.389 369.506 432.759 369.21 432.759C368.915 432.759 368.674 432.541 368.674 432.273C368.674 432.006 368.346 431.788 367.946 431.788C367.545 431.788 367.217 431.547 367.217 431.254C367.217 430.96 366.483 429.485 365.585 427.976C362.069 422.062 360.037 418.414 360.028 418.003C360.023 417.765 359.827 417.437 359.592 417.274C359.13 416.951 343.699 390.326 343.166 388.933C342.988 388.465 342.583 388.083 342.267 388.083C341.95 388.083 341.091 386.935 340.358 385.533C339.624 384.131 338.824 382.656 338.583 382.255C337.977 381.255 333.345 373.225 331.999 370.844C331.394 369.775 330.125 367.59 329.178 365.987C328.23 364.385 326.869 361.981 326.153 360.646C325.437 359.31 324.156 357.125 323.306 355.79C322.456 354.454 320.934 351.787 319.925 349.861L318.09 346.361L312.429 349.201C285.98 362.464 250.139 365.72 223.527 357.278C216.96 355.193 209.49 352.263 204.182 349.684C200.885 348.084 197.987 346.726 197.741 346.669C197.495 346.61 196.588 347.874 195.726 349.477C194.864 351.079 194.033 352.5 193.881 352.633C193.729 352.767 192.95 354.078 192.149 355.547C191.349 357.016 188.982 361.168 186.888 364.773C180.062 376.53 179.625 377.289 176.961 381.983C175.512 384.537 173.94 387.041 173.467 387.549C172.995 388.056 171.995 389.586 171.246 390.948C170.498 392.31 166.936 398.486 163.332 404.671C159.728 410.858 156.559 416.376 156.29 416.933C156.02 417.491 155.243 418.822 154.563 419.89C153.882 420.959 152.939 422.598 152.468 423.532C150.181 428.068 149.402 429.215 147.145 431.37C144.453 433.939 143.558 434.658 141.644 435.788C139.697 436.937 136.01 439.431 127.257 445.52C119.857 450.666 117.107 450.724 118.364 445.71C118.521 445.088 118.765 442.52 118.907 440.004C119.049 437.488 119.272 434.665 119.402 433.73C119.533 432.796 119.86 428.376 120.128 423.909L120.617 415.787L127.048 404.632C130.584 398.497 134.106 392.317 134.873 390.901C135.641 389.485 137.089 387.014 138.092 385.412C139.094 383.809 140.564 381.296 141.36 379.827C142.155 378.358 143.309 376.282 143.924 375.214C147.667 368.715 150.678 363.506 152.904 359.674C155.976 354.386 163.966 340.481 166.436 336.122C167.421 334.386 168.429 332.638 168.678 332.237C168.926 331.837 170.58 328.996 172.353 325.924C174.126 322.853 176.399 318.919 177.404 317.183C178.409 315.447 180.534 311.732 182.125 308.928C183.715 306.124 186.73 300.879 188.824 297.273C190.919 293.668 195.897 285.036 199.886 278.092C203.876 271.147 207.956 264.045 208.954 262.309C209.951 260.573 212.034 256.967 213.58 254.297C215.127 251.626 216.943 248.457 217.615 247.255C218.286 246.053 218.918 244.97 219.016 244.849C219.364 244.419 241.523 266.939 241.795 268.002C242.071 269.076 240.377 272.562 236.889 278.092C236.046 279.427 234.727 281.721 233.957 283.19C233.185 284.659 232.302 286.189 231.994 286.59C231.687 286.99 230.806 288.52 230.037 289.989C229.267 291.458 227.925 293.796 227.054 295.186C226.181 296.575 225.469 297.835 225.469 297.987C225.469 298.138 224.376 300.023 223.041 302.177C221.706 304.329 220.614 306.25 220.614 306.443C220.614 306.637 219.915 307.877 219.06 309.197C218.205 310.518 216.973 312.582 216.322 313.784C215.671 314.986 214.847 316.393 214.489 316.911C213.647 318.134 217.047 320.135 225.347 323.3C248.587 332.162 274.914 331.046 297.125 320.257L301.547 318.11L297.196 310.483C294.804 306.29 292.541 302.513 292.167 302.092C291.794 301.669 291.489 301.118 291.489 300.864C291.489 300.612 290.544 298.881 289.389 297.018C288.235 295.155 286.628 292.429 285.819 290.96C283.936 287.544 280.9 282.19 280.309 281.248C277.134 276.186 273.515 269.253 273.621 268.439C273.766 267.322 295.717 244.842 296.671 244.832C296.984 244.83 297.879 245.974 298.661 247.377C299.441 248.779 301.16 251.783 302.479 254.054C303.798 256.324 305.305 258.918 305.829 259.819C306.352 260.719 307.888 263.341 309.242 265.647C310.596 267.951 314.626 274.971 318.198 281.248C321.77 287.525 325.179 293.377 325.774 294.254C326.369 295.13 326.946 296.114 327.057 296.439C327.421 297.511 331.768 291.838 336.277 284.405C341.142 276.385 344.55 267.822 346.811 257.939C348.175 251.974 348.409 250.294 349.063 241.792L349.39 237.543H365.585H381.781V239.901Z" fill="#707B68"/>
<path fill-rule="evenodd" clip-rule="evenodd" d="M94.2779 56.5616C93.0097 56.8372 91.972 57.2233 91.972 57.4212C91.972 57.6178 91.5011 57.6567 90.9247 57.5061C90.2548 57.3301 89.9926 57.4175 90.1977 57.7489C90.4028 58.0792 90.1407 58.1666 89.4696 57.9918C88.7366 57.7999 88.529 57.891 88.779 58.2965C89.0327 58.7044 88.7693 58.8076 87.8846 58.6473C87.1953 58.5223 86.6322 58.5878 86.6322 58.793C86.6322 58.9982 86.3482 59.1657 86.0023 59.1657C84.9926 59.1657 79.1685 62.2324 78.4804 63.1259C78.1345 63.5739 77.7498 63.881 77.626 63.8094C77.1212 63.518 74.535 65.2104 73.3711 66.5944C72.6891 67.4054 71.9451 68.0682 71.7158 68.0682C71.1211 68.0682 67.4087 72.0332 67.0555 73.0457C66.8929 73.5131 66.5385 73.8956 66.2691 73.8956C65.9985 73.8956 65.1538 74.9882 64.3917 76.3224C63.6295 77.6578 62.8856 78.6303 62.7387 78.4834C62.5919 78.3365 62.24 78.8828 61.956 79.6986C61.672 80.5132 61.5919 81.1834 61.7788 81.187C61.9645 81.1907 61.8989 81.3546 61.6319 81.5512C60.5178 82.3695 58.9074 86.0723 59.2047 87.1309C59.405 87.8436 59.3601 88.005 59.0761 87.5971C58.5482 86.8408 57.5057 89.9535 57.5057 92.2833C57.5057 93.121 57.3079 93.8057 57.0651 93.8057C56.8236 93.8057 56.7338 94.2184 56.8649 94.7223C56.9972 95.2261 56.8673 95.7858 56.5773 95.9642C55.7569 96.4717 55.8358 236.561 56.6562 236.617C57.4401 236.669 209.005 236.668 209.83 236.616C210.323 236.584 210.334 236.35 209.88 235.501C209.459 234.716 209.308 228.153 209.319 211.047L209.334 187.667L210.821 184.548C214.524 176.787 219.636 173.875 230.083 173.574L237.368 173.364L237.364 157.501L237.362 141.638L257.821 141.512L278.278 141.385L278.452 143.212C278.547 144.216 278.613 151.306 278.6 158.968C278.571 175.226 277.65 173.429 286.025 173.44C295.328 173.451 301.411 176.875 304.966 184.099L306.294 186.8L306.433 210.473C306.531 227.226 306.413 234.443 306.03 235.16C305.731 235.717 305.603 236.288 305.743 236.429C305.938 236.623 452.46 236.805 454.839 236.615C455.418 236.568 455.532 96.2337 454.954 96.2337C454.749 96.2337 454.61 95.6328 454.645 94.8983C454.792 91.7989 452.596 84.936 450.92 83.2594C450.54 82.8794 450.2 82.3646 450.167 82.1158C450.134 81.8681 450.052 81.4468 449.985 81.1797C449.918 80.9127 449.837 80.4137 449.803 80.0713C449.741 79.44 448.258 77.3701 446.708 75.753C446.241 75.2662 445.859 74.6713 445.859 74.4334C445.859 74.1942 445.531 73.8737 445.131 73.7195C444.73 73.5666 444.403 73.1332 444.403 72.758C444.403 72.1316 443.555 71.2927 437.784 66.1974C434.912 63.6637 434.008 62.9511 433.851 63.098C433.775 63.1696 433.178 62.877 432.525 62.4497C431.872 62.0211 431.076 61.8329 430.757 62.0308C430.421 62.2384 430.302 62.1862 430.475 61.9046C430.771 61.4262 426.13 58.9703 425.374 59.2058C425.16 59.2726 424.985 59.1548 424.985 58.9448C424.985 58.5939 424.073 58.3705 421.986 58.2103C421.539 58.1763 421.3 57.942 421.456 57.6895C421.617 57.4284 421.288 57.3495 420.691 57.5061C420.115 57.6567 419.748 57.6106 419.876 57.4042C420.003 57.1978 419.185 56.8931 418.056 56.7279C416.928 56.5616 415.458 56.2958 414.791 56.1355C413.842 55.9073 413.736 55.957 414.305 56.3637C414.835 56.7425 413.321 56.8615 408.723 56.8008C402.628 56.7207 402.553 56.7073 406.538 56.4135L410.664 56.1088L405.567 56.0262C402.127 55.9692 400.707 56.0954 401.198 56.4135C401.681 56.7267 399.236 56.8566 393.917 56.8008C387.216 56.7316 386.582 56.6685 390.033 56.4135L394.159 56.1088L389.397 56.019C386.326 55.9595 384.742 56.1003 384.936 56.4135C385.133 56.7304 382.577 56.8676 377.562 56.8081C370.942 56.7304 370.454 56.6757 374.014 56.4135L378.14 56.1088L373.043 56.0262C369.602 55.9692 368.182 56.0954 368.674 56.4135C369.158 56.7267 366.797 56.8566 361.635 56.8008C355.018 56.7304 354.478 56.6733 357.994 56.4135L362.12 56.1088L357.023 56.0262C353.582 55.9692 352.163 56.0954 352.654 56.4135C353.137 56.7267 350.692 56.8566 345.372 56.8008C338.672 56.7316 338.037 56.6685 341.489 56.4135L345.615 56.1088L340.853 56.019C337.781 55.9595 336.198 56.1003 336.392 56.4135C336.588 56.7304 334.033 56.8676 329.018 56.8081C322.398 56.7304 321.91 56.6757 325.469 56.4135L329.596 56.1088L324.498 56.0262C321.058 55.9692 319.638 56.0954 320.13 56.4135C320.614 56.7267 318.253 56.8566 313.091 56.8008C306.474 56.7304 305.934 56.6733 309.45 56.4135L313.576 56.1088L308.479 56.0262C305.038 55.9692 303.618 56.0954 304.11 56.4135C304.593 56.7267 302.148 56.8566 296.828 56.8008C290.128 56.7316 289.493 56.6685 292.945 56.4135L297.071 56.1088L292.309 56.019C289.237 55.9595 287.653 56.1003 287.848 56.4135C288.044 56.7304 285.488 56.8676 280.474 56.8081C273.854 56.7304 273.366 56.6757 276.925 56.4135L281.051 56.1088L275.954 56.0262C272.514 55.9692 271.094 56.0954 271.585 56.4135C272.07 56.7267 269.709 56.8566 264.546 56.8008C257.93 56.7304 257.39 56.6733 260.906 56.4135L265.032 56.1088L259.935 56.0262C256.494 55.9692 255.074 56.0954 255.566 56.4135C256.049 56.7267 253.603 56.8566 248.284 56.8008C241.584 56.7316 240.949 56.6685 244.401 56.4135L248.527 56.1088L243.765 56.019C240.693 55.9595 239.109 56.1003 239.303 56.4135C239.5 56.7304 236.944 56.8676 231.93 56.8081C225.309 56.7304 224.822 56.6757 228.381 56.4135L232.507 56.1088L227.41 56.0262C223.97 55.9692 222.55 56.0954 223.041 56.4135C223.525 56.7267 221.165 56.8566 216.002 56.8008C209.386 56.7304 208.846 56.6733 212.361 56.4135L216.488 56.1088L211.391 56.0262C207.95 55.9692 206.53 56.0954 207.022 56.4135C207.505 56.7267 205.059 56.8566 199.74 56.8008C193.04 56.7316 192.405 56.6685 195.856 56.4135L199.983 56.1088L195.221 56.019C192.149 55.9595 190.565 56.1003 190.759 56.4135C190.956 56.7304 188.4 56.8676 183.385 56.8081C176.765 56.7304 176.277 56.6757 179.837 56.4135L183.963 56.1088L178.866 56.0262C175.425 55.9692 174.006 56.0954 174.497 56.4135C174.981 56.7267 172.621 56.8566 167.458 56.8008C160.842 56.7304 160.302 56.6733 163.817 56.4135L167.944 56.1088L162.846 56.0262C159.406 55.9692 157.986 56.0954 158.478 56.4135C158.961 56.7267 156.515 56.8566 151.196 56.8008C144.496 56.7316 143.861 56.6685 147.312 56.4135L151.439 56.1088L146.676 56.019C143.605 55.9595 142.021 56.1003 142.215 56.4135C142.412 56.7304 139.856 56.8676 134.841 56.8081C128.221 56.7304 127.733 56.6757 131.293 56.4135L135.419 56.1088L130.322 56.0262C126.881 55.9692 125.461 56.0954 125.953 56.4135C126.437 56.7267 124.077 56.8566 118.914 56.8008C112.297 56.7304 111.757 56.6733 115.273 56.4135L119.399 56.1088L114.302 56.0262C110.862 55.9692 109.442 56.0954 109.933 56.4135C110.419 56.7279 108.318 56.8591 103.623 56.8081C98.1699 56.7486 97.2949 56.66 99.7391 56.4135L102.894 56.0954L99.7391 56.0784C98.0036 56.0687 95.5461 56.2873 94.2779 56.5616ZM106.657 56.263C107.124 56.3844 107.888 56.3844 108.356 56.263C108.823 56.1404 108.441 56.0408 107.506 56.0408C106.572 56.0408 106.189 56.1404 106.657 56.263ZM155.201 56.263C155.668 56.3844 156.433 56.3844 156.9 56.263C157.367 56.1404 156.985 56.0408 156.05 56.0408C155.116 56.0408 154.734 56.1404 155.201 56.263ZM203.745 56.263C204.212 56.3844 204.977 56.3844 205.444 56.263C205.911 56.1404 205.529 56.0408 204.594 56.0408C203.66 56.0408 203.278 56.1404 203.745 56.263ZM252.289 56.263C252.756 56.3844 253.521 56.3844 253.988 56.263C254.455 56.1404 254.073 56.0408 253.139 56.0408C252.204 56.0408 251.822 56.1404 252.289 56.263ZM300.833 56.263C301.3 56.3844 302.065 56.3844 302.532 56.263C302.999 56.1404 302.617 56.0408 301.683 56.0408C300.748 56.0408 300.366 56.1404 300.833 56.263ZM349.377 56.263C349.845 56.3844 350.609 56.3844 351.076 56.263C351.544 56.1404 351.161 56.0408 350.227 56.0408C349.292 56.0408 348.91 56.1404 349.377 56.263ZM397.921 56.263C398.389 56.3844 399.153 56.3844 399.621 56.263C400.088 56.1404 399.706 56.0408 398.771 56.0408C397.837 56.0408 397.454 56.1404 397.921 56.263ZM253.782 191.676C253.027 192.015 251.381 192.533 250.123 192.827C246.312 193.717 241.484 197.41 238.305 201.868C232.863 209.497 233.216 219.897 239.176 227.592C241.841 231.031 249.641 236.351 250.606 235.387C250.731 235.261 251.51 235.507 252.334 235.933C256.919 238.306 266.991 235.957 273.042 231.103C285.503 221.11 282.289 198.215 267.702 193.07C266.5 192.646 265.08 192.064 264.548 191.777C263.124 191.011 255.423 190.939 253.782 191.676ZM348.883 243.86C348.883 244.795 348.983 245.177 349.105 244.71C349.227 244.242 349.227 243.477 349.105 243.01C348.983 242.543 348.883 242.925 348.883 243.86ZM224.255 250.173C226.647 252.577 228.712 254.543 228.846 254.543C228.979 254.543 227.132 252.577 224.74 250.173C222.348 247.769 220.283 245.802 220.149 245.802C220.016 245.802 221.863 247.769 224.255 250.173ZM231.273 257.093C232.464 258.361 233.501 259.399 233.579 259.399C233.944 259.399 233.558 258.964 231.415 256.951L229.109 254.786L231.273 257.093ZM346.904 257.532C346.586 258.907 346.415 260.119 346.523 260.226C346.631 260.334 346.987 259.307 347.314 257.943C347.642 256.578 347.813 255.365 347.694 255.247C347.576 255.13 347.221 256.158 346.904 257.532ZM305.809 260.371C306.223 261.172 306.672 261.828 306.805 261.828C306.939 261.828 306.708 261.172 306.294 260.371C305.881 259.569 305.432 258.914 305.298 258.914C305.165 258.914 305.395 259.569 305.809 260.371ZM236.127 261.949C238.14 264.093 238.575 264.479 238.575 264.114C238.575 264.036 237.538 262.998 236.269 261.807L233.964 259.642L236.127 261.949ZM377.972 266.759C377.654 268.133 377.483 269.346 377.591 269.453C377.699 269.561 378.055 268.534 378.382 267.169C378.71 265.805 378.881 264.592 378.762 264.474C378.645 264.356 378.289 265.385 377.972 266.759ZM205.993 267.291C205.675 267.892 205.098 268.93 204.711 269.597C204.035 270.762 204.04 270.771 204.823 269.84C205.791 268.689 207.149 266.198 206.808 266.198C206.677 266.198 206.31 266.69 205.993 267.291ZM309.873 267.412C310.135 267.946 310.705 268.82 311.14 269.355L311.93 270.326L311.453 269.355C311.191 268.82 310.622 267.946 310.186 267.412L309.396 266.441L309.873 267.412ZM342.539 271.803C341.726 273.589 341.881 273.97 342.76 272.347C343.171 271.588 343.416 270.877 343.304 270.766C343.194 270.655 342.849 271.122 342.539 271.803ZM238.333 274.939C237.919 275.74 237.688 276.396 237.822 276.396C237.955 276.396 238.404 275.74 238.818 274.939C239.232 274.138 239.462 273.482 239.329 273.482C239.195 273.482 238.746 274.138 238.333 274.939ZM278.208 277.599C278.883 278.807 279.531 279.795 279.646 279.795C279.987 279.795 277.954 276.004 277.446 275.689C277.19 275.532 277.533 276.39 278.208 277.599ZM374.067 279.849C373.768 280.707 373.608 281.495 373.713 281.598C373.817 281.702 374.146 281.085 374.446 280.227C374.744 279.369 374.904 278.581 374.8 278.478C374.696 278.374 374.367 278.992 374.067 279.849ZM372.611 283.734C372.312 284.592 372.152 285.38 372.256 285.483C372.361 285.587 372.689 284.969 372.989 284.112C373.288 283.254 373.448 282.466 373.344 282.363C373.239 282.258 372.91 282.876 372.611 283.734ZM282.977 285.865C283.725 287.201 284.561 288.512 284.837 288.779C285.112 289.046 284.726 288.172 283.98 286.837C283.232 285.501 282.396 284.19 282.121 283.923C281.845 283.656 282.231 284.53 282.977 285.865ZM369.378 291.013C368.687 292.375 368.204 293.571 368.303 293.67C368.403 293.77 369.07 292.655 369.788 291.194C370.504 289.732 370.987 288.536 370.861 288.536C370.734 288.536 370.067 289.651 369.378 291.013ZM228.987 291.086C228.244 292.017 226.748 295.158 227.309 294.606C227.888 294.038 229.903 290.479 229.646 290.479C229.55 290.479 229.252 290.752 228.987 291.086ZM287.704 294.162C288.317 295.253 289.211 296.674 289.69 297.319C290.168 297.963 290.059 297.599 289.447 296.508C288.834 295.416 287.941 293.996 287.462 293.351C286.984 292.706 287.093 293.071 287.704 294.162ZM325.517 294.577C326.077 295.528 326.63 296.306 326.744 296.306C327.088 296.306 325.513 293.476 324.986 293.151C324.717 292.984 324.956 293.627 325.517 294.577ZM327.988 296.063C327.407 296.731 327.123 297.277 327.359 297.277C327.593 297.277 328.143 296.731 328.58 296.063C329.018 295.395 329.301 294.849 329.208 294.849C329.117 294.849 328.568 295.395 327.988 296.063ZM223.746 300.227C222.601 302.044 221.592 304.167 222.15 303.59C222.681 303.041 225.442 298.248 225.227 298.248C225.099 298.248 224.433 299.14 223.746 300.227ZM364.641 300.07C362.901 302.867 362.774 303.105 363.021 303.105C363.147 303.105 363.922 302.012 364.744 300.677C365.566 299.341 366.134 298.248 366.005 298.248C365.878 298.248 365.263 299.068 364.641 300.07ZM291.334 300.53C291.771 301.727 293.43 303.844 293.43 303.205C293.43 302.921 293.103 302.36 292.702 301.96C292.302 301.559 291.974 301.01 291.974 300.74C291.974 300.469 291.758 300.114 291.495 299.952C291.207 299.775 291.143 300.006 291.334 300.53ZM219.585 307.597C219.267 308.197 218.69 309.235 218.303 309.903C217.627 311.067 217.632 311.077 218.415 310.146C219.383 308.995 220.741 306.504 220.4 306.504C220.269 306.504 219.903 306.996 219.585 307.597ZM297.637 311.333C298.378 312.654 299.065 313.655 299.163 313.556C299.373 313.347 296.84 308.932 296.512 308.932C296.388 308.932 296.894 310.012 297.637 311.333ZM354.349 315.124C353.044 316.659 352.479 317.479 353.096 316.945C354.267 315.93 357.245 312.331 356.914 312.331C356.808 312.331 355.654 313.588 354.349 315.124ZM214.563 316.016C214.11 316.707 213.824 317.355 213.926 317.457C214.028 317.56 214.495 316.994 214.963 316.202C216.01 314.429 215.696 314.285 214.563 316.016ZM213.858 318.339C214.358 318.786 217.216 320.101 217.216 319.884C217.216 319.603 214.524 318.159 214.004 318.159C213.813 318.159 213.747 318.24 213.858 318.339ZM347.888 322.491C345.704 324.873 343.916 326.934 343.916 327.068C343.916 327.283 346.091 325.006 350.914 319.737C351.709 318.869 352.246 318.159 352.109 318.159C351.972 318.159 350.073 320.108 347.888 322.491ZM248.648 329.184C249.249 329.301 250.232 329.301 250.833 329.184C251.433 329.069 250.942 328.974 249.74 328.974C248.539 328.974 248.048 329.069 248.648 329.184ZM264.674 329.186C265.277 329.302 266.151 329.297 266.616 329.176C267.079 329.055 266.585 328.959 265.517 328.965C264.449 328.97 264.07 329.069 264.674 329.186ZM254.978 329.688C256.657 329.783 259.278 329.782 260.804 329.686C262.328 329.59 260.954 329.512 257.75 329.513C254.546 329.513 253.299 329.592 254.978 329.688ZM167.458 334.184C167.044 334.985 166.814 335.641 166.947 335.641C167.081 335.641 167.53 334.985 167.944 334.184C168.357 333.383 168.588 332.727 168.455 332.727C168.321 332.727 167.872 333.383 167.458 334.184ZM197.019 346.449C196.827 346.781 196.843 346.898 197.052 346.709C197.262 346.521 198.28 346.798 199.315 347.326C200.349 347.854 201.196 348.177 201.196 348.043C201.196 347.349 197.347 345.88 197.019 346.449ZM194.609 350.436C194.177 351.095 193.899 351.831 193.99 352.071C194.082 352.312 194.512 351.773 194.945 350.873C195.873 348.949 195.716 348.745 194.609 350.436ZM206.051 350.532C206.051 350.874 211.467 353.18 211.902 353.022C212.116 352.944 210.888 352.303 209.172 351.598C207.455 350.893 206.051 350.413 206.051 350.532ZM307.508 351.18C306.574 351.693 306.027 352.11 306.294 352.11C306.561 352.11 307.544 351.693 308.479 351.18C309.413 350.668 309.96 350.25 309.693 350.25C309.426 350.25 308.442 350.668 307.508 351.18ZM321.251 352.394C321.661 353.195 322.36 354.288 322.804 354.822C323.248 355.356 323.121 354.919 322.52 353.851C321.197 351.493 320.207 350.357 321.251 352.394ZM220.675 356.222C221.08 356.676 227.921 358.602 228.187 358.336C228.301 358.22 226.917 357.732 225.112 357.249C223.306 356.767 221.5 356.262 221.099 356.127C220.699 355.993 220.508 356.035 220.675 356.222ZM292.217 356.783C290.294 357.448 290.292 357.452 291.974 357.175C292.908 357.022 294.001 356.709 294.401 356.481C295.47 355.871 294.438 356.014 292.217 356.783ZM189.765 358.986C188.62 360.803 187.611 362.926 188.17 362.349C188.7 361.801 191.461 357.008 191.246 357.008C191.119 357.008 190.452 357.899 189.765 358.986ZM325.955 360.107C325.955 360.628 327.399 363.321 327.679 363.321C327.813 363.321 327.56 362.61 327.119 361.742C326.218 359.97 325.955 359.601 325.955 360.107ZM239.668 360.742C240.135 360.863 240.899 360.863 241.367 360.742C241.834 360.619 241.452 360.52 240.517 360.52C239.583 360.52 239.2 360.619 239.668 360.742ZM274.134 360.742C274.601 360.863 275.366 360.863 275.833 360.742C276.3 360.619 275.918 360.52 274.983 360.52C274.049 360.52 273.667 360.619 274.134 360.742ZM245.372 361.405C247.556 361.792 254.936 362.019 254.555 361.689C254.443 361.592 251.84 361.402 248.77 361.266C245.278 361.111 244.005 361.163 245.372 361.405ZM265.76 361.378L262.119 361.689L265.275 361.74C267.01 361.769 269.413 361.617 270.614 361.402C273.368 360.913 271.335 360.902 265.76 361.378ZM185.547 366.356C184.502 367.961 183.048 370.926 183.585 370.362C184.219 369.694 186.723 365.263 186.467 365.263C186.353 365.263 185.939 365.755 185.547 366.356ZM330.312 367.914C330.882 368.837 331.681 370.258 332.086 371.071C332.971 372.846 333.393 373.022 332.758 371.351C332.255 370.026 329.833 366.234 329.491 366.234C329.372 366.234 329.741 366.991 330.312 367.914ZM367.704 369.431C367.706 369.976 369.539 373.033 369.864 373.033C369.992 373.033 369.629 372.213 369.055 371.212C367.771 368.968 367.703 368.877 367.704 369.431ZM180.322 375.461C179.777 376.529 179.441 377.403 179.575 377.403C179.708 377.403 180.263 376.529 180.808 375.461C181.353 374.392 181.689 373.518 181.555 373.518C181.422 373.518 180.867 374.392 180.322 375.461ZM336.196 378.103C336.757 379.053 337.309 379.831 337.423 379.831C337.768 379.831 336.193 377.001 335.666 376.676C335.397 376.51 335.636 377.152 336.196 378.103ZM373.27 379.315C373.675 380.1 374.227 380.877 374.497 381.044C374.766 381.21 374.527 380.568 373.966 379.618C372.737 377.533 372.236 377.316 373.27 379.315ZM175.41 383.838C175.092 384.439 174.515 385.477 174.128 386.144C173.452 387.309 173.457 387.318 174.24 386.387C175.208 385.236 176.566 382.745 176.225 382.745C176.094 382.745 175.728 383.237 175.41 383.838ZM340.67 386.105C341.246 387.158 341.792 387.946 341.882 387.855C342.118 387.621 340.612 384.803 340.074 384.47C339.825 384.316 340.093 385.052 340.67 386.105ZM169.584 393.119C168.171 395.35 166.705 398.276 167.813 396.653C169.831 393.696 171.195 391.422 171.037 391.276C170.938 391.184 170.283 392.013 169.584 393.119ZM345.684 393.66C346.359 394.868 347.007 395.857 347.122 395.857C347.464 395.857 345.431 392.065 344.922 391.751C344.666 391.593 345.01 392.451 345.684 393.66ZM351.024 402.887C351.699 404.095 352.347 405.083 352.462 405.083C352.803 405.083 350.771 401.292 350.262 400.977C350.006 400.82 350.349 401.678 351.024 402.887ZM164.06 402.655C163.646 403.456 163.416 404.112 163.549 404.112C163.683 404.112 164.132 403.456 164.546 402.655C164.959 401.854 165.19 401.198 165.056 401.198C164.923 401.198 164.474 401.854 164.06 402.655ZM387.544 403.869C387.806 404.403 388.375 405.277 388.811 405.812L389.601 406.783L389.124 405.812C388.862 405.277 388.293 404.403 387.857 403.869L387.067 402.898L387.544 403.869ZM393.267 413.946C393.725 414.814 394.25 416.398 394.432 417.466C394.754 419.342 394.769 419.354 394.827 417.811C394.881 416.381 393.299 412.367 392.681 412.367C392.545 412.367 392.81 413.078 393.267 413.946ZM120.266 421.351C120.27 422.687 120.364 423.176 120.476 422.438C120.588 421.698 120.585 420.606 120.47 420.01C120.355 419.412 120.262 420.016 120.266 421.351ZM365.051 427.3C366.678 429.831 367.217 430.55 367.217 430.189C367.217 429.723 364.736 425.965 364.427 425.965C364.299 425.965 364.579 426.565 365.051 427.3ZM395.505 428.878C395.505 430.08 395.6 430.572 395.715 429.971C395.832 429.37 395.832 428.387 395.715 427.786C395.6 427.185 395.505 427.676 395.505 428.878ZM119.755 429.364C119.755 430.299 119.855 430.681 119.977 430.214C120.099 429.746 120.099 428.981 119.977 428.514C119.855 428.047 119.755 428.429 119.755 429.364ZM147.039 431.428L145.613 433.006L147.191 431.579C148.662 430.25 148.992 429.849 148.617 429.849C148.533 429.849 147.823 430.56 147.039 431.428ZM371.344 433.976C372.145 434.67 373.237 435.467 373.771 435.744C374.305 436.022 374.086 435.68 373.285 434.985C372.484 434.29 371.392 433.494 370.858 433.216C370.324 432.939 370.543 433.28 371.344 433.976ZM395.991 435.191C395.991 436.393 396.085 436.885 396.201 436.284C396.317 435.683 396.317 434.699 396.201 434.099C396.085 433.498 395.991 433.989 395.991 435.191ZM119.148 436.018C119.02 437.407 119.092 438.366 119.31 438.147C119.527 437.93 119.631 436.792 119.543 435.621L119.381 433.492L119.148 436.018ZM141.972 435.235C141.167 435.894 141.085 436.059 141.73 435.725C143.314 434.907 144.191 434.234 143.672 434.238C143.405 434.241 142.64 434.689 141.972 435.235ZM118.794 443.204C118.799 444.272 118.898 444.652 119.015 444.048C119.131 443.444 119.126 442.57 119.005 442.105C118.884 441.641 118.788 442.135 118.794 443.204ZM386.15 443.581C386.15 443.674 386.859 444.27 387.727 444.905C388.703 445.62 389.043 445.737 388.617 445.213C387.97 444.417 386.15 443.212 386.15 443.581ZM437.842 445.282C437.037 446.008 435.836 446.995 435.172 447.474C434.01 448.312 434.025 448.312 435.565 447.478C436.445 447.001 437.741 446.008 438.447 445.271C440.086 443.561 439.742 443.567 437.842 445.282ZM118.259 446.442C118.158 448.23 118.632 449.274 119.544 449.274C120.234 449.274 120.232 449.212 119.522 448.667C119.088 448.333 118.642 447.404 118.532 446.603C118.341 445.22 118.328 445.213 118.259 446.442ZM396.789 446.846C396.566 448.183 393.81 448.876 392.787 447.852C392.5 447.566 392.05 447.331 391.785 447.331C391.52 447.331 391.727 447.652 392.247 448.044C394.311 449.607 397.668 448.562 397.193 446.505C397.04 445.841 396.945 445.922 396.789 446.846ZM175.871 455.466C219.746 455.533 291.397 455.533 335.096 455.466C378.795 455.398 342.897 455.342 255.323 455.342C167.749 455.342 131.997 455.398 175.871 455.466Z" fill="#6CAC34"/>
<path fill-rule="evenodd" clip-rule="evenodd" d="M80.2321 61.2864C79.2479 61.806 78.3146 62.4397 78.1568 62.6934C78.0003 62.9484 78.8595 62.6036 80.0683 61.9286C81.2758 61.2536 82.2637 60.6102 82.2637 60.4997C82.2637 60.218 82.2297 60.2302 80.2321 61.2864ZM70.8473 68.3496L66.9723 72.0306L70.9772 68.4989C74.6192 65.289 75.2466 64.6687 74.8522 64.6687C74.7806 64.6687 72.9784 66.3246 70.8473 68.3496ZM436.636 64.7707C436.636 64.8799 438.438 66.5832 440.641 68.556C442.844 70.5288 444.1 71.5316 443.432 70.785C442.091 69.2844 436.636 64.4562 436.636 64.7707ZM65.9225 73.5311C64.579 75.0353 62.846 77.603 62.846 78.0898C62.846 78.3107 63.4237 77.6212 64.1288 76.5577C64.8339 75.4942 65.8557 74.132 66.3982 73.5311C66.9407 72.9302 67.2744 72.4385 67.141 72.4385C67.0075 72.4385 66.4601 72.9302 65.9225 73.5311ZM445.183 73.4243C445.746 74.0835 446.784 75.4942 447.489 76.5577C448.194 77.6212 448.772 78.3156 448.772 78.1019C448.772 77.4864 446.035 73.6683 445.051 72.9107C444.371 72.3875 444.403 72.5101 445.183 73.4243ZM59.6676 83.6525C59.2404 84.4792 58.977 85.2404 59.0826 85.3461C59.1882 85.4517 59.6372 84.7755 60.0814 83.8443C61.079 81.7501 60.7331 81.5898 59.6676 83.6525ZM452.334 85.7564C453.179 87.7401 453.93 89.1957 454.005 88.9906C454.159 88.5681 451.358 82.1507 451.02 82.1507C450.898 82.1507 451.489 83.7739 452.334 85.7564ZM58.0729 87.4682C57.7889 88.2828 57.6603 88.9493 57.7865 88.9493C58.1142 88.9493 59.0304 86.4265 58.7889 86.1862C58.6797 86.0757 58.3569 86.6523 58.0729 87.4682ZM455.706 239.246C455.71 240.582 455.805 241.071 455.916 240.333C456.028 239.594 456.026 238.501 455.91 237.905C455.795 237.307 455.703 237.911 455.706 239.246ZM349.462 238.199C349.321 238.564 349.284 240.26 349.38 241.968L349.555 245.074L349.648 241.553L349.742 238.032H365.564H381.385L381.219 240.68C381.128 242.137 381.23 243.151 381.446 242.933C381.663 242.716 381.773 241.469 381.689 240.164L381.538 237.789L365.628 237.662C352.521 237.556 349.671 237.651 349.462 238.199ZM380.961 247.016C380.963 248.619 381.054 249.216 381.162 248.343C381.27 247.47 381.268 246.159 381.157 245.429C381.047 244.7 380.958 245.414 380.961 247.016ZM296.419 245.438C296.829 245.772 297.654 246.864 298.25 247.866C298.847 248.868 299.439 249.687 299.567 249.687C299.694 249.687 299.637 249.414 299.44 249.08C297.665 246.074 296.729 244.831 296.245 244.831C295.898 244.831 295.967 245.07 296.419 245.438ZM348.894 247.016C348.898 248.084 348.998 248.464 349.114 247.86C349.231 247.257 349.226 246.382 349.105 245.917C348.983 245.454 348.888 245.948 348.894 247.016ZM380.162 253.047C379.984 254.759 379.929 256.251 380.041 256.364C380.342 256.664 380.95 251.321 380.701 250.573C380.583 250.221 380.342 251.334 380.162 253.047ZM455.738 254.057C455.738 256.328 455.822 257.256 455.924 256.121C456.026 254.986 456.026 253.129 455.924 251.994C455.822 250.859 455.738 251.787 455.738 254.057ZM378.652 262.097C378.47 263.072 378.417 263.966 378.536 264.085C378.655 264.203 378.901 263.504 379.084 262.529C379.266 261.554 379.32 260.659 379.201 260.54C379.082 260.423 378.836 261.122 378.652 262.097ZM209.338 261.949C208.276 263.586 207.323 265.537 207.856 264.984C208.537 264.276 210.539 260.856 210.273 260.856C210.148 260.856 209.727 261.348 209.338 261.949ZM344.985 265.566C344.681 266.555 344.514 267.443 344.612 267.541C344.71 267.639 345.053 266.925 345.373 265.955C345.693 264.985 345.861 264.096 345.745 263.981C345.63 263.864 345.288 264.578 344.985 265.566ZM455.738 270.083C455.738 272.353 455.822 273.282 455.924 272.147C456.026 271.011 456.026 269.154 455.924 268.019C455.822 266.884 455.738 267.812 455.738 270.083ZM274.023 268.655C274.028 269.307 274.894 271.26 275.946 272.996C277 274.732 278.657 277.683 279.632 279.552C280.605 281.422 281.688 283.279 282.037 283.68C282.387 284.08 283.473 285.921 284.451 287.77C285.429 289.619 287.523 293.272 289.102 295.887C290.682 298.503 291.974 300.869 291.974 301.146C291.974 301.422 292.178 301.648 292.427 301.648C292.676 301.648 293.035 302.139 293.224 302.74C293.415 303.341 294.849 305.942 296.413 308.518C297.977 311.095 299.256 313.339 299.256 313.505C299.256 313.671 299.815 314.693 300.499 315.776C301.547 317.437 301.642 317.867 301.105 318.518C300.54 319.202 300.589 319.225 301.535 318.72C303.023 317.928 303.406 317.134 302.607 316.499C302.232 316.201 301.291 314.759 300.514 313.295C299.738 311.83 298.408 309.539 297.557 308.203C296.706 306.868 295.405 304.573 294.666 303.104C293.927 301.635 293.045 300.106 292.707 299.705C292.369 299.304 291.159 297.228 290.019 295.092C288.878 292.955 287.103 289.87 286.074 288.236C285.045 286.602 283.963 284.581 283.672 283.744C283.38 282.908 282.978 282.223 282.778 282.223C282.577 282.223 281.641 280.748 280.695 278.945C279.75 277.142 278.188 274.47 277.223 273.007C276.258 271.544 275.462 270.124 275.454 269.851C275.415 268.579 274.013 267.407 274.023 268.655ZM239.934 270.447C238.47 273.367 234.95 279.445 233.253 281.98C232.538 283.049 231.664 284.641 231.314 285.52C230.962 286.399 230.09 287.929 229.377 288.92C228.663 289.91 227.31 292.142 226.371 293.878C225.431 295.614 223.828 298.455 222.81 300.191C221.792 301.927 220.625 304.003 220.218 304.804C219.81 305.605 219.338 306.37 219.168 306.504C218.998 306.637 218.026 308.276 217.009 310.146C215.993 312.015 214.62 314.35 213.961 315.332C213.021 316.734 212.873 317.311 213.276 318.003C213.695 318.725 213.792 318.747 213.804 318.122C213.815 317.516 218.845 308.516 221.112 305.047C221.373 304.646 221.814 303.793 222.089 303.149C222.364 302.507 223.249 301.005 224.054 299.812C224.858 298.618 226.277 296.194 227.206 294.424C228.134 292.655 229.533 290.175 230.315 288.914C231.096 287.652 232.43 285.358 233.278 283.815C235.287 280.162 238.024 275.503 239.072 273.953C240.003 272.578 241.974 268.807 241.974 268.402C241.974 267.435 240.907 268.504 239.934 270.447ZM376.004 272.802C375.413 274.837 375.016 276.59 375.123 276.697C375.23 276.804 375.802 275.225 376.393 273.191C376.984 271.156 377.38 269.403 377.274 269.296C377.167 269.189 376.595 270.767 376.004 272.802ZM312.104 271.782C312.852 273.118 313.688 274.429 313.964 274.696C314.239 274.963 313.853 274.089 313.107 272.754C312.359 271.418 311.523 270.107 311.248 269.84C310.972 269.573 311.358 270.447 312.104 271.782ZM340.494 276.929C339.936 278.022 339.563 279.001 339.665 279.103C339.767 279.205 340.326 278.309 340.906 277.113C342.228 274.389 341.872 274.229 340.494 276.929ZM374.014 277.985C374.014 279.806 367.388 294.386 364.815 298.228C364.36 298.906 362.094 302.303 359.778 305.775C352.88 316.124 334.136 335.569 330.98 335.651C330.753 335.657 330.021 336.107 329.353 336.649C324.729 340.409 312.45 347.33 305.567 350.056C303.831 350.743 301.51 351.708 300.409 352.199C298.206 353.181 291.778 355.093 287.605 356.007C286.137 356.329 284.499 356.778 283.965 357.006C283.115 357.37 281.474 357.688 275.227 358.701C264.027 360.516 236.662 359.482 231.89 357.063C231.429 356.829 228.649 356.056 225.712 355.343C218.114 353.502 217.703 353.381 215.254 352.258C214.04 351.702 211.637 350.708 209.914 350.048C208.19 349.389 204.827 347.845 202.441 346.616C200.055 345.387 197.942 344.381 197.744 344.381C197.386 344.381 192.944 351.432 192.944 352.002C192.944 352.168 191.579 354.619 189.91 357.448C188.242 360.277 186.507 363.247 186.056 364.049C183.464 368.652 181.453 372.047 180.303 373.761C179.586 374.829 178.86 376.14 178.691 376.675C178.519 377.209 177.391 379.176 176.181 381.045C174.97 382.915 173.854 384.936 173.7 385.537C173.547 386.138 173.227 386.63 172.989 386.63C172.75 386.63 172.556 386.859 172.556 387.138C172.556 387.419 171.779 388.862 170.829 390.348C169.879 391.833 169.2 393.147 169.32 393.267C169.44 393.387 170.234 392.271 171.082 390.787C171.932 389.302 172.83 388.087 173.076 388.087C173.324 388.087 173.527 387.851 173.527 387.563C173.527 387.104 179.103 377.318 181.252 374.004C181.686 373.336 182.676 371.588 183.453 370.119C184.229 368.65 185.591 366.386 186.477 365.087C187.364 363.788 188.091 362.477 188.094 362.173C188.095 361.87 189.069 360.11 190.259 358.265C191.448 356.421 192.307 354.727 192.169 354.502C192.029 354.277 192.155 354.094 192.448 354.094C192.739 354.094 193.414 353.165 193.947 352.03C195.213 349.329 196.997 346.423 197.839 345.693C198.209 345.372 198.347 345.313 198.148 345.561C197.666 346.161 204.113 349.786 205.203 349.529C205.67 349.418 205.944 349.503 205.812 349.717C205.68 349.932 205.909 350.237 206.322 350.396C206.816 350.584 206.969 350.477 206.768 350.081C206.601 349.751 206.767 349.848 207.137 350.297C207.506 350.747 208.779 351.497 209.964 351.963C211.15 352.43 212.228 352.942 212.362 353.099C212.789 353.602 217.843 355.036 218.265 354.773C218.489 354.635 218.673 354.778 218.673 355.093C218.673 355.424 219.079 355.558 219.645 355.41C220.179 355.27 220.514 355.32 220.39 355.521C220.266 355.722 221.502 356.258 223.138 356.714C225.544 357.382 226.186 357.42 226.51 356.91C226.812 356.434 226.912 356.48 226.918 357.096C226.926 358.004 233.575 359.783 234.965 359.248C235.402 359.081 235.588 359.165 235.411 359.451C235.235 359.735 235.683 359.95 236.477 359.962C240.321 360.018 241.974 360.203 241.974 360.575C241.974 360.801 243.066 360.91 244.401 360.818C245.736 360.725 246.883 360.795 246.95 360.974C247.118 361.426 255.695 361.656 256.389 361.226C256.701 361.034 257.093 361.099 257.262 361.372C257.467 361.703 257.895 361.69 258.567 361.33C259.117 361.037 259.436 361.008 259.276 361.266C259.097 361.557 260.053 361.678 261.765 361.582C269.921 361.122 273.505 360.762 273.297 360.426C273.17 360.22 273.961 360.154 275.057 360.282C276.151 360.408 276.929 360.319 276.785 360.086C276.64 359.852 277.406 359.745 278.486 359.848C279.985 359.99 280.361 359.888 280.07 359.417C279.813 359.002 279.883 358.919 280.281 359.166C281.514 359.928 288.802 358.1 289.661 356.813C289.92 356.426 290.019 356.427 290.025 356.818C290.03 357.209 290.561 357.217 291.945 356.847C292.997 356.567 293.762 356.179 293.644 355.989C293.527 355.797 293.866 355.756 294.4 355.895C294.966 356.043 295.372 355.91 295.372 355.578C295.372 355.264 295.591 355.143 295.858 355.308C296.125 355.473 296.343 355.361 296.343 355.061C296.343 354.732 296.737 354.639 297.328 354.826C299.176 355.413 318.043 346.797 317.369 345.674C317.183 345.364 317.401 345.41 317.852 345.776C318.303 346.143 318.676 346.689 318.68 346.99C318.682 347.291 320.211 350.045 322.078 353.109C323.943 356.173 325.47 358.86 325.47 359.078C325.47 359.297 325.693 359.74 325.966 360.063C326.804 361.052 331.312 368.697 333.319 372.53C334.363 374.523 335.515 376.49 335.88 376.9C336.244 377.311 337.255 379.055 338.125 380.778C341.525 387.503 345.442 392.286 342.719 386.386C342.102 385.05 341.718 383.761 341.862 383.519C342.006 383.278 341.881 383.232 341.583 383.415C341.258 383.616 340.636 382.955 340.027 381.761C339.469 380.668 338.288 378.638 337.402 377.252C336.516 375.866 334.914 373.086 333.842 371.074C332.772 369.063 331.301 366.55 330.575 365.49C329.849 364.43 328.73 362.47 328.086 361.135C327.443 359.8 325.91 357.07 324.679 355.07C323.448 353.069 322.412 350.957 322.378 350.375C322.342 349.795 322.115 349.355 321.87 349.4C321.626 349.444 320.919 348.606 320.297 347.538L319.166 345.595L320.214 344.725C320.79 344.245 321.601 343.983 322.016 344.143C322.431 344.302 322.62 344.283 322.437 344.1C322.051 343.714 324.522 341.645 325.132 341.844C325.358 341.917 325.403 341.753 325.234 341.48C325.066 341.205 325.301 340.982 325.76 340.982C326.217 340.982 327.295 340.445 328.156 339.789C329.015 339.133 329.89 338.751 330.1 338.939C330.308 339.128 330.322 339.008 330.129 338.672C329.915 338.303 330.124 337.934 330.658 337.736C331.142 337.557 331.647 337.266 331.781 337.087C331.914 336.91 333.006 336.018 334.208 335.105C338.673 331.713 344.727 325.948 344.511 325.291C344.438 325.067 344.566 325.001 344.796 325.144C345.027 325.286 346.06 324.537 347.091 323.479C348.124 322.423 348.813 321.558 348.625 321.558C348.437 321.558 349.157 320.767 350.226 319.801C351.294 318.836 352.169 317.795 352.169 317.491C352.169 317.185 352.565 316.688 353.048 316.386C356.951 313.948 368.934 293.778 373.055 282.709C373.8 280.705 374.564 278.684 374.749 278.217C374.95 277.715 374.868 277.367 374.552 277.367C374.255 277.367 374.014 277.645 374.014 277.985ZM455.734 286.351C455.737 288.487 455.822 289.301 455.924 288.158C456.027 287.017 456.026 285.269 455.921 284.273C455.817 283.279 455.733 284.214 455.734 286.351ZM335.963 285.38C335.532 286.047 334.826 287.194 334.393 287.929L333.607 289.264L334.584 288.082C335.737 286.686 337.267 284.165 336.961 284.165C336.842 284.165 336.393 284.712 335.963 285.38ZM189.32 296.591C188.868 297.282 188.581 297.93 188.683 298.032C188.785 298.135 189.253 297.57 189.721 296.777C190.767 295.004 190.454 294.86 189.32 296.591ZM455.738 302.619C455.738 304.889 455.822 305.818 455.924 304.683C456.026 303.547 456.026 301.69 455.924 300.555C455.822 299.42 455.738 300.348 455.738 302.619ZM455.738 318.644C455.738 320.914 455.822 321.843 455.924 320.708C456.026 319.573 456.026 317.715 455.924 316.58C455.822 315.445 455.738 316.374 455.738 318.644ZM221.585 322.273C221.585 322.658 225.105 324.026 225.382 323.749C225.519 323.612 225.511 323.5 225.367 323.5C225.221 323.5 224.311 323.17 223.344 322.766C222.377 322.361 221.585 322.139 221.585 322.273ZM236.391 327.385C236.925 327.614 237.799 327.795 238.333 327.788C239.113 327.777 239.066 327.697 238.09 327.385C236.43 326.853 235.155 326.853 236.391 327.385ZM171.041 328.478C170.723 329.079 170.147 330.117 169.76 330.784C169.084 331.948 169.089 331.958 169.871 331.027C170.84 329.876 172.198 327.385 171.857 327.385C171.726 327.385 171.359 327.877 171.041 328.478ZM268.916 328.842L266.974 329.189L268.673 329.201C269.608 329.207 271.028 329.046 271.829 328.842C273.804 328.339 271.723 328.339 268.916 328.842ZM245.493 329.177C245.961 329.298 246.725 329.298 247.192 329.177C247.66 329.054 247.277 328.955 246.343 328.955C245.408 328.955 245.026 329.054 245.493 329.177ZM249.862 329.662C250.33 329.784 251.094 329.784 251.561 329.662C252.029 329.54 251.646 329.44 250.712 329.44C249.777 329.44 249.395 329.54 249.862 329.662ZM345.373 331.27C345.918 332.338 346.472 333.212 346.606 333.212C346.739 333.212 346.403 332.338 345.858 331.27C345.313 330.202 344.759 329.327 344.625 329.327C344.492 329.327 344.828 330.202 345.373 331.27ZM455.734 334.912C455.737 337.049 455.822 337.862 455.924 336.72C456.027 335.578 456.026 333.83 455.921 332.835C455.817 331.84 455.733 332.775 455.734 334.912ZM355.337 348.509C356.083 349.845 357.004 351.265 357.385 351.666C357.766 352.066 357.384 351.192 356.536 349.723C355.686 348.254 354.765 346.834 354.487 346.567C354.209 346.3 354.591 347.174 355.337 348.509ZM455.738 351.18C455.738 353.45 455.822 354.379 455.924 353.244C456.026 352.109 456.026 350.251 455.924 349.116C455.822 347.981 455.738 348.91 455.738 351.18ZM360.346 357.166C360.928 358.189 361.301 359.19 361.176 359.392C361.051 359.593 361.263 359.76 361.646 359.76C362.187 359.76 362.111 359.371 361.304 358.019C359.868 355.612 359.044 354.879 360.346 357.166ZM151.252 362.84C150.653 363.905 150.266 364.777 150.389 364.777C150.718 364.777 152.724 361.288 152.516 361.079C152.42 360.982 151.85 361.775 151.252 362.84ZM363.827 362.928C363.817 363.368 365.795 366.72 366.065 366.72C366.179 366.72 365.947 366.119 365.549 365.384C364.56 363.557 363.835 362.524 363.827 362.928ZM455.738 367.205C455.738 369.475 455.822 370.404 455.924 369.269C456.026 368.134 456.026 366.276 455.924 365.141C455.822 364.006 455.738 364.935 455.738 367.205ZM455.734 383.473C455.737 385.61 455.822 386.423 455.924 385.281C456.027 384.14 456.026 382.391 455.921 381.396C455.817 380.402 455.733 381.336 455.734 383.473ZM374.978 382.623C375.828 384.026 376.633 385.173 376.765 385.173C377.093 385.173 375.007 381.708 374.133 380.802C373.747 380.402 374.127 381.221 374.978 382.623ZM343.917 389.963C343.917 390.194 344.324 390.904 344.823 391.542C345.321 392.179 346.437 394.12 347.304 395.856C348.169 397.592 349.364 399.668 349.959 400.47C350.554 401.271 351.991 403.737 353.152 405.949C355.372 410.177 356.538 411.656 356.538 410.241C356.538 409.808 356.323 409.453 356.06 409.453C355.797 409.453 354.895 408.088 354.056 406.418C353.218 404.749 351.815 402.291 350.939 400.955C350.063 399.62 348.854 397.544 348.25 396.342C346.227 392.308 343.917 388.907 343.917 389.963ZM131.826 396.614C131.265 397.564 131.026 398.207 131.296 398.04C131.822 397.715 133.398 394.885 133.053 394.885C132.939 394.885 132.387 395.663 131.826 396.614ZM455.738 399.741C455.738 402.011 455.822 402.94 455.924 401.805C456.026 400.67 456.026 398.812 455.924 397.677C455.822 396.542 455.738 397.471 455.738 399.741ZM127.466 404.117C126.866 405.182 126.479 406.054 126.603 406.054C126.932 406.054 128.938 402.565 128.729 402.356C128.633 402.259 128.064 403.052 127.466 404.117ZM161.171 407.051C159.501 409.901 158.792 411.625 160.088 409.683C161.376 407.753 163.366 404.112 163.133 404.112C163.001 404.112 162.119 405.435 161.171 407.051ZM389.585 407.754C390.184 408.822 390.883 409.915 391.138 410.182C391.865 410.944 390.202 407.868 389.301 406.783C388.856 406.248 388.984 406.685 389.585 407.754ZM356.538 411.663C356.538 412.007 365.104 426.78 366.237 428.392C366.707 429.06 367.23 430.056 367.399 430.603C367.568 431.152 368.635 432.083 369.769 432.674C370.902 433.264 373.467 434.946 375.468 436.411C377.469 437.876 379.37 439.076 379.691 439.076C380.013 439.076 380.451 439.351 380.664 439.688C380.878 440.024 382.473 441.155 384.208 442.203C385.944 443.251 388.237 444.787 389.305 445.618C392.714 448.271 396.15 449.163 396.684 447.535C396.791 447.21 396.316 447.09 395.443 447.217C393.791 447.46 391.799 446.552 392.28 445.775C392.466 445.473 392.39 445.374 392.108 445.55C391.633 445.844 389.24 444.314 388.463 443.221C388.267 442.944 388.103 442.881 388.099 443.078C388.095 443.276 386.29 442.162 384.087 440.602C381.884 439.042 379.554 437.487 378.91 437.147C376.702 435.981 371.829 432.158 371.963 431.696C372.036 431.442 371.873 431.372 371.601 431.539C370.195 432.41 362.395 422.992 363.068 421.237C363.208 420.871 363.106 420.706 362.84 420.871C362.575 421.035 362.213 420.773 362.037 420.289C361.247 418.112 356.538 410.726 356.538 411.663ZM455.681 413.338C455.681 414.273 455.78 414.656 455.903 414.188C456.024 413.721 456.024 412.956 455.903 412.488C455.78 412.021 455.681 412.404 455.681 413.338ZM155.523 416.859C154.408 418.795 153.087 421.061 152.588 421.894C152.09 422.726 151.685 423.601 151.69 423.836C151.695 424.072 152.586 422.735 153.67 420.865C154.753 418.996 156.178 416.537 156.837 415.402C157.495 414.267 157.925 413.338 157.792 413.338C157.659 413.338 156.638 414.923 155.523 416.859ZM120.746 417.709C120.746 418.911 120.84 419.402 120.956 418.801C121.072 418.201 121.072 417.217 120.956 416.616C120.84 416.015 120.746 416.507 120.746 417.709ZM394.779 424.75C394.917 427.955 395.179 430.994 395.361 431.501C395.776 432.661 395.416 424.624 394.906 421.351C394.672 419.852 394.623 421.152 394.779 424.75ZM58.0802 424.43C58.6494 426.012 59.522 427.824 60.0195 428.457C60.6785 429.293 60.6021 428.946 59.7392 427.178C59.0863 425.843 58.4018 424.147 58.2185 423.41C58.0341 422.673 57.6955 421.953 57.4649 421.811C57.2331 421.668 57.511 422.847 58.0802 424.43ZM120.241 424.993C120.241 425.928 120.34 426.31 120.463 425.843C120.584 425.375 120.584 424.611 120.463 424.143C120.34 423.676 120.241 424.058 120.241 424.993ZM150.479 425.721C150.073 426.389 149.405 427.487 148.995 428.159C148.585 428.832 147.329 430.056 146.204 430.876C145.079 431.698 144.217 432.584 144.291 432.845C144.364 433.106 144.211 433.189 143.951 433.029C143.418 432.698 137.795 436.348 126.51 444.346C121.047 448.217 119.434 448.563 118.997 445.954C118.876 445.23 118.81 445.515 118.848 446.603C118.91 448.402 119.016 448.544 120.288 448.523C121.531 448.503 121.581 448.561 120.803 449.13C120.33 449.476 120.103 449.759 120.298 449.759C120.76 449.759 123.72 447.682 123.93 447.21C124.02 447.009 124.277 446.846 124.503 446.846C125.106 446.846 137.742 438.141 138.454 437.235C138.787 436.81 139.06 436.621 139.06 436.815C139.06 437.011 140.371 436.279 141.973 435.191C143.575 434.103 144.886 432.989 144.886 432.715C144.886 432.444 145.069 432.333 145.295 432.473C145.892 432.842 148.456 429.992 150.168 427.057C151.639 424.538 151.91 423.372 150.479 425.721ZM451.806 427.543C451.284 428.969 451.296 429.031 451.942 428.179C452.56 427.363 452.924 425.964 452.52 425.964C452.444 425.964 452.123 426.674 451.806 427.543ZM64.7878 436.483C64.7878 436.747 65.3885 437.494 66.1227 438.141L67.4577 439.319L66.2441 437.862C65.5766 437.061 64.9759 436.314 64.9091 436.202C64.8424 436.092 64.7878 436.217 64.7878 436.483ZM441.959 441.868L439.306 444.66L442.097 442.006C444.691 439.54 445.11 439.076 444.75 439.076C444.675 439.076 443.419 440.332 441.959 441.868ZM70.1276 442.718C71.033 443.653 71.8837 444.418 72.0172 444.418C72.1507 444.418 71.5184 443.653 70.6131 442.718C69.7077 441.783 68.857 441.018 68.7235 441.018C68.59 441.018 69.2223 441.783 70.1276 442.718ZM86.4069 453.121C87.0028 453.724 94.1084 455.605 95.5696 455.545C96.1279 455.523 94.8366 455.106 92.7007 454.618C90.5647 454.13 88.1618 453.479 87.3608 453.172C86.4457 452.82 86.0914 452.802 86.4069 453.121ZM418.675 454.767C417.454 455.153 371.931 455.379 256.78 455.57L96.5842 455.834L255.413 455.953C419.224 456.076 419.809 456.07 421.519 454.359C421.889 453.989 420.507 454.187 418.675 454.767Z" fill="#B4C4AC"/>
</g>
<defs>
<filter id="filter0_d_1818_1517" x="52" y="56" width="408" height="408" filterUnits="userSpaceOnUse" color-interpolation-filters="sRGB">
<feFlood flood-opacity="0" result="BackgroundImageFix"/>
<feColorMatrix in="SourceAlpha" type="matrix" values="0 0 0 0 0 0 0 0 0 0 0 0 0 0 0 0 0 0 127 0" result="hardAlpha"/>
<feOffset dy="4"/>
<feGaussianBlur stdDeviation="2"/>
<feComposite in2="hardAlpha" operator="out"/>
<feColorMatrix type="matrix" values="0 0 0 0 0 0 0 0 0 0 0 0 0 0 0 0 0 0 0.25 0"/>
<feBlend mode="normal" in2="BackgroundImageFix" result="effect1_dropShadow_1818_1517"/>
<feBlend mode="normal" in="SourceGraphic" in2="effect1_dropShadow_1818_1517" result="shape"/>
</filter>
</defs>
</svg>
