<svg width="512" height="512" viewBox="0 0 512 512" fill="none" xmlns="http://www.w3.org/2000/svg">
<path d="M107.828 59.2297C107.828 59.384 109.339 64.0129 111.152 69.6447C115.006 81.294 116.668 84.0713 120.974 86.0772C123.921 87.3887 126.943 87.543 173.938 87.543C205.368 87.543 224.786 87.2344 226.599 86.7715C231.435 85.3828 234.154 81.294 238.008 69.4904L241.483 58.9983H174.618C137.898 58.9983 107.828 59.0754 107.828 59.2297Z" fill="#31C5FF"/>
<path d="M86.7482 63.2446C79.7972 66.6391 72.0151 74.3539 68.6907 80.9886C63.6286 91.3264 64.0064 77.054 64.0064 256.5C64.0064 403.698 64.1575 419.359 65.2152 423.216C69.4463 437.566 80.0994 448.444 94.1525 452.764C97.8546 453.844 106.543 453.998 174.315 453.998C258.105 453.998 254.478 454.23 263.772 449.138C269.665 445.975 276.767 438.723 279.865 432.706C284.171 424.374 284.625 420.979 284.625 392.743V367.361L278.656 360.958C272.234 354.246 271.176 351.777 272.007 346.3C272.838 340.977 276.994 336.734 283.189 334.882C284.247 334.574 284.398 329.482 284.851 286.896C285.153 260.743 285.38 207.125 285.38 167.857C285.38 88.4719 285.531 91.3264 280.242 81.0657C276.465 73.7367 269.816 67.0248 262.563 63.3989C259.465 61.8559 256.367 60.5444 255.763 60.5444C254.856 60.5444 253.496 63.7075 250.625 72.4252C248.51 78.9056 245.865 85.7717 244.656 87.6233C241.936 92.0207 236.95 96.5724 232.568 98.6554C229.168 100.276 228.412 100.276 175.751 100.507C123.392 100.661 122.259 100.661 118.179 99.1183C112.739 97.0353 107.828 93.1779 104.957 88.6262C103.672 86.6975 100.801 79.5228 98.6102 72.8109C95.7391 64.0161 94.3036 60.5444 93.4725 60.5444C92.7925 60.5444 89.7703 61.7787 86.7482 63.2446ZM109.112 180.509C110.019 181.204 111.152 182.978 111.606 184.598C112.059 186.45 112.361 209.054 112.361 249.171V310.889L168.271 253.8C198.946 222.478 223.955 196.633 223.803 196.479C223.652 196.325 218.741 196.942 212.848 197.945C200.684 199.873 198.795 199.642 196.831 195.707C195.168 192.236 196.226 188.918 199.551 187.375C201.591 186.45 240.879 179.352 244.128 179.352C246.167 179.352 249.87 183.209 249.87 185.37C249.87 186.527 248.283 197.25 246.394 209.285C243.296 228.032 242.541 231.35 241.105 232.97C237.857 236.519 231.737 234.821 230.603 230.038C230.301 229.035 230.83 224.098 231.661 218.929C232.568 213.837 233.248 208.823 233.248 207.82C233.248 206.354 221.235 218.235 177.715 262.672C147.192 293.839 122.183 319.607 122.183 319.915C122.183 320.301 150.063 320.533 184.138 320.533H246.167L247.981 322.461C251.154 325.624 250.323 330.562 246.319 332.722C245.11 333.416 226.297 333.648 174.013 333.648H103.37L101.255 331.796L99.1391 329.945V256.5V183.055L101.255 181.204C103.672 179.121 106.77 178.812 109.112 180.509ZM241.181 414.267C243.825 416.89 243.674 420.285 240.879 423.216L238.688 425.454H175.071C105.259 425.454 108.054 425.608 106.392 420.825C105.486 417.97 106.317 415.27 108.734 413.573C110.246 412.493 117.045 412.339 174.92 412.339H239.368L241.181 414.267Z" fill="#FFB931"/>
<path d="M336.228 103.825C319.682 122.032 305.855 137.847 305.402 138.927C304.949 140.238 304.949 141.319 305.477 142.167C306.157 143.247 308.046 143.556 317.717 143.864C328.37 144.25 329.277 144.404 330.864 146.025L332.601 147.799L332.979 218.003L333.357 288.285L335.472 290.137C337.361 291.757 338.344 291.988 344.161 291.988H350.734L354.059 285.431C355.948 281.496 358.29 278.102 359.725 277.022C362.143 275.093 367.205 273.319 368.716 273.859C369.245 274.013 370.53 274.321 371.663 274.553C375.138 275.324 378.992 279.567 382.165 285.971L385.112 291.988H391.836C400.298 291.988 401.733 291.063 402.565 284.968C402.867 282.653 403.093 250.946 403.169 214.455L403.245 148.108L405.511 145.947C407.778 143.864 407.853 143.864 418.733 143.864C428.706 143.864 429.689 143.71 430.444 142.399C430.822 141.55 431.2 140.316 431.2 139.698C431.2 138.618 378.992 80.1403 371.814 73.0427C370.454 71.7312 368.565 70.574 367.81 70.574C366.827 70.574 356.25 81.6832 336.228 103.825Z" fill="#020B58"/>
<path d="M365.997 292.063C365.241 292.526 359.574 303.249 353.379 315.902C342.801 337.426 341.97 338.969 339.628 339.74C338.268 340.126 327.313 341.9 315.224 343.675C303.211 345.372 292.558 346.992 291.651 347.147C289.611 347.609 288.176 350.155 288.78 352.084C289.007 352.778 297.167 361.187 306.913 370.754C316.886 380.397 324.895 388.806 325.197 389.886C325.424 390.889 323.837 402.307 321.646 415.191C319.455 428.075 317.717 439.493 317.717 440.573C317.717 443.041 318.775 444.199 321.117 444.121C322.175 444.121 332.904 438.875 345.068 432.395C361.463 423.677 367.508 420.823 368.868 421.131C369.774 421.363 380.201 426.686 391.912 432.858C403.547 439.107 414.049 444.121 415.107 444.121C417.222 444.199 418.356 442.887 418.356 440.341C418.356 439.415 416.693 428.692 414.578 416.425C412.538 404.236 410.8 392.972 410.8 391.584C410.8 388.652 408.911 390.735 436.337 363.425C446.915 352.855 448.048 351.081 446.386 348.381C445.933 347.687 437.924 346.144 420.698 343.598C406.645 341.592 395.085 339.509 394.48 338.969C393.8 338.429 388.209 327.628 382.014 314.976C375.819 302.324 370.454 291.986 370.076 291.986C369.699 291.986 368.943 291.832 368.339 291.6C367.81 291.446 366.752 291.6 365.997 292.063Z" fill="#020B58"/>
</svg>
