<svg width="512" height="512" viewBox="0 0 512 512" fill="none" xmlns="http://www.w3.org/2000/svg">
<path d="M24.5583 49.4963C22.6083 50.7988 19.7917 53.6207 18.4917 55.5744C16 59.2646 16 59.4817 16 97.578V136H256.5H497V97.578C497 59.4817 497 59.2646 494.508 55.5744C493.208 53.6207 490.392 50.7988 488.442 49.4963L484.758 47H256.5H28.2417L24.5583 49.4963ZM75.5833 80.2122C86.9583 87.05 82.3 104.524 68.975 104.959C63.8833 105.067 59.55 102.028 56.7333 96.4927C55 93.0195 54.8917 91.7171 55.975 88.2439C58.4667 79.778 68.1083 75.8707 75.5833 80.2122ZM146.433 80.7549C155.642 88.0268 153.258 100.834 141.992 104.633C134.842 106.912 125.417 99.5317 125.417 91.5C125.417 84.8793 132.025 78.4756 138.958 78.4756C141.992 78.4756 144.483 79.2354 146.433 80.7549ZM217.392 81.2976C219.233 82.8171 221.292 85.9646 221.942 88.2439C223.025 91.7171 222.917 93.0195 221.183 96.4927C218.475 101.92 214.358 104.85 209.158 104.85C195.833 104.85 190.85 87.3756 202.225 80.3207C206.667 77.4988 213.492 77.9329 217.392 81.2976Z" fill="#1B446D"/>
<path d="M16 271.438V406.75L18.4917 411.038C19.7917 413.308 22.6083 416.586 24.5583 418.1L28.2417 421H256.5H484.758L488.442 418.1C490.392 416.586 493.208 413.308 494.508 411.038L497 406.75V271.438V136H256.5H16V271.438ZM299.183 215.069C301.892 215.573 304.6 217.339 306.983 220.113C310.125 223.77 310.667 225.157 310.667 230.58C310.667 236.002 310.125 237.389 306.983 241.046C304.6 243.821 301.892 245.586 299.183 246.091C293.658 247.226 94.7583 247.226 89.2333 246.091C86.525 245.586 83.8167 243.821 81.4333 241.046C78.2917 237.389 77.75 236.002 77.75 230.58C77.75 225.157 78.1833 223.77 81.5417 219.987C83.6 217.591 86.6333 215.447 88.2583 215.069C93.2417 214.186 294.633 214.186 299.183 215.069ZM427.017 311.792C432.217 314.314 435.25 319.485 435.25 325.664C435.142 331.969 433.408 335.878 429.183 339.157C426.15 341.427 422.25 341.553 256.5 341.553C90.75 341.553 86.85 341.427 83.8167 339.157C74.825 332.221 75.9083 316.836 85.7667 311.792C90.8583 309.27 421.708 309.27 427.017 311.792Z" fill="#D2EDF8"/>
<rect x="41" y="192" width="430.958" height="218.486" fill="#D2EDF8"/>
<path d="M209.534 193.304C207.577 194.312 206.51 195.379 205.561 197.336C204.257 199.826 204.198 200.715 204.198 211.98V224.016L197.261 227.514C193.407 229.411 187.775 232.672 184.751 234.628L179.178 238.304L169.217 232.613C163.763 229.47 158.427 226.625 157.3 226.328C154.573 225.439 150.482 226.565 148.585 228.64C147.814 229.53 137.498 247.02 125.581 267.593C104.652 303.877 104.059 305.063 104 308.087C104 313.719 104.949 314.549 122.972 324.747L127.419 327.237V342V356.763L122.972 359.253C104.949 369.451 104 370.281 104 375.913C104.059 378.937 104.652 380.123 125.581 416.407C137.498 436.921 147.814 454.47 148.585 455.36C150.482 457.435 154.573 458.561 157.3 457.672C158.427 457.375 163.763 454.53 169.217 451.387L179.178 445.696L184.751 449.372C187.775 451.328 193.407 454.589 197.261 456.486L204.198 459.984V472.02C204.198 483.285 204.257 484.174 205.561 486.664C206.51 488.621 207.577 489.688 209.534 490.636L212.142 492H255.779H299.415L302.024 490.636C303.98 489.688 305.047 488.621 306.055 486.664C307.3 484.174 307.36 483.285 307.36 472.02V459.984L314.356 456.486C318.15 454.589 323.783 451.328 326.866 449.312L332.379 445.696L342.34 451.387C347.794 454.53 353.19 457.375 354.316 457.731C356.984 458.561 361.075 457.435 362.972 455.36C363.743 454.47 374.119 436.921 385.976 416.407C406.964 380.004 407.557 378.996 407.557 375.854C407.557 370.696 406.609 369.747 394.692 362.81L384.138 356.644V342V327.356L394.692 321.19C406.609 314.253 407.557 313.304 407.557 308.146C407.557 305.004 406.964 303.996 385.976 267.593C374.119 247.02 363.743 229.53 362.972 228.64C361.075 226.565 356.984 225.439 354.316 226.269C353.19 226.625 347.794 229.47 342.34 232.613L332.379 238.304L326.866 234.688C323.783 232.672 318.15 229.411 314.356 227.514L307.36 224.016V211.98C307.36 200.715 307.3 199.826 306.055 197.336C305.047 195.379 303.98 194.312 302.024 193.304L299.415 192H255.779H212.142L209.534 193.304ZM288.387 296.051C304.81 301.15 314.119 316.98 310.028 332.81C307.893 340.933 301.549 348.522 293.723 352.257C288.091 354.925 284.119 355.636 274.929 355.636H267.636V368.502C267.636 379.945 267.458 381.723 266.451 383.917C263.783 389.846 255.897 390.617 251.925 385.399C250.739 383.858 250.739 382.85 250.739 341.881V299.905L252.874 297.771C254.059 296.585 255.957 295.399 257.024 295.103C258.15 294.866 264.909 294.688 272.083 294.806C282.221 294.984 285.838 295.281 288.387 296.051ZM204.079 295.992C207.992 298.008 208.466 299.134 223.704 339.569C231.885 361.209 238.585 379.648 238.585 380.656C238.585 384.866 234.672 388.838 230.522 388.838C225.601 388.838 223.407 386.941 221.036 380.834C220.206 378.522 218.96 375.261 218.308 373.542L217.123 370.458L199.632 370.577L182.083 370.755L179.534 377.455C178.111 381.13 176.51 384.806 175.976 385.636C172.893 390.261 164.415 389.727 161.806 384.688C161.332 383.739 160.917 381.96 160.917 380.656C160.917 377.81 190.087 300.854 191.925 298.779C195.126 295.281 200.403 294.095 204.079 295.992ZM335.937 296.17C336.885 296.763 338.249 298.186 338.96 299.312L340.265 301.387V342C340.265 381.545 340.206 382.672 339.079 384.569C335.64 390.261 327.696 390.261 324.257 384.569C323.13 382.672 323.071 381.545 323.071 342C323.071 303.996 323.13 301.269 324.138 299.431C326.273 295.458 332.024 293.917 335.937 296.17Z" fill="#45B1DB"/>
<path d="M267.636 325.394V338.438H274.929C283.348 338.438 286.609 337.607 289.514 334.762C296.332 328.121 294.672 317.331 286.312 313.477C284.356 312.588 282.459 312.351 275.818 312.351H267.636V325.394Z" fill="#45B1DB"/>
<path d="M199.277 325.815C198.98 326.23 191.391 346.151 189.613 351.013L188.842 353.266H199.454C207.458 353.266 210.126 353.088 210.126 352.554C210.126 351.606 200.64 326.408 200.047 325.815C199.81 325.519 199.454 325.519 199.277 325.815Z" fill="#45B1DB"/>
</svg>
