<svg width="572" height="572" viewBox="0 0 572 572" fill="none" xmlns="http://www.w3.org/2000/svg">
<g filter="url(#filter0_d_1352_278)">
<path d="M30 29C30 21.268 36.268 15 44 15H528C535.732 15 542 21.268 542 29V513C542 520.732 535.732 527 528 527H44C36.268 527 30 520.732 30 513V29Z" fill="#1F675E"/>
</g>
<path d="M202.375 112.313C195.375 115.438 191.75 122.063 191.75 131.438V134.125H283.625H375.5V130.188C375.5 122.5 372.75 116.938 367.188 113.375L363.938 111.313L284.562 111.188C205.75 111 205.188 111 202.375 112.313Z" fill="#CECECE"/>
<path d="M191.75 265.062V385.375L270.5 385.25L349.25 385.062L352 378.438C354.375 372.5 358.062 365.125 361.5 359.312L362.688 357.312L342.25 336.812C324.062 318.562 321.625 315.875 319.938 312.25C310.75 292.625 324.812 270.5 346.438 270.375C355 270.375 361.562 273.312 369.25 280.75C372.25 283.625 374.875 286 375.125 286C375.312 286 375.5 254.188 375.5 215.375V144.75H283.625H191.75V265.062ZM244.438 159.312C248.688 162.5 248.938 163.5 249.125 178.188C249.375 192.625 249.062 194.75 246.062 198.188C242.75 201.938 240.562 202.375 225.438 202.125C210.5 201.938 209.562 201.688 206.312 197.438L204.562 195.188L204.375 181.375C204.25 173.75 204.375 166.625 204.562 165.5C205 163.062 208.188 159.25 210.812 158.125C212.25 157.438 216.188 157.312 227.438 157.438L242.188 157.562L244.438 159.312ZM299.062 157.938C300 158.25 301.625 159.312 302.625 160.25C305.875 163.312 306.125 164.75 306.125 179.562C306.125 195.375 305.688 197.125 301.062 200.188L298.438 201.938L284.688 202.125C271.125 202.312 271 202.312 267.812 200.75C265.812 199.812 263.938 198.25 263 196.875C261.5 194.562 261.438 194.25 261.25 181.062C261.125 172.5 261.312 166.688 261.75 165.25C262.562 162.312 265.188 159.188 267.688 158.125C270.062 157.062 296.375 156.875 299.062 157.938ZM357.375 158.5C362.875 161.312 363.812 164.875 363.5 181.375C363.312 191.625 363.125 194.188 362.25 195.75C360.812 198.438 357.812 200.812 355 201.625C351.875 202.438 329.625 202.438 326.438 201.562C325.062 201.188 322.938 199.812 321.688 198.562C318.438 195.312 317.812 191.688 318.125 177.312C318.312 166.312 318.438 165.562 319.875 163C320.75 161.438 322.5 159.625 323.938 158.75C326.375 157.312 326.75 157.25 340.688 157.25C353.625 157.25 355.125 157.375 357.375 158.5ZM243.875 216C245.25 216.938 246.812 218.812 247.75 220.812C249.312 224 249.312 224.125 249.125 237.688L248.938 251.438L247.188 254.062C244.125 258.688 242.375 259.125 226.625 259.125C218.562 259.125 212.375 258.875 211.312 258.438C208.938 257.562 206.125 254.875 205.125 252.438C204.062 249.938 203.875 223.938 204.938 221.188C205.875 218.688 207.938 216.625 210.812 215.312C213.062 214.25 214.75 214.125 227.438 214.25C241.312 214.438 241.562 214.438 243.875 216ZM299.062 215.062C302.062 216.312 303.5 217.625 304.938 220.5C306 222.562 306.125 224.312 306.125 236.625C306.125 251.625 305.875 253.062 302.625 256.125C299.625 258.875 298.125 259.125 283.562 259.125C271.125 259.125 269.625 259 267.438 257.875C261.688 255 261 252.438 261.25 235.312C261.438 221.938 261.438 221.812 263.125 219.312C264.062 217.875 265.875 216.25 267.5 215.438C270 214.25 271.125 214.125 283.5 214.125C294.062 214.125 297.25 214.312 299.062 215.062ZM358.438 216.375C363.188 220.25 363.312 220.812 363.312 236.625V250.688L361.625 253.625C360.375 255.625 359.062 256.875 357.125 257.875C354.5 259.125 353.625 259.188 340 259C325.938 258.812 325.688 258.812 323.438 257.25C322.188 256.438 320.562 254.562 319.75 253.188C318.375 250.812 318.312 250.125 318.312 237.25C318.312 229.875 318.5 223.062 318.75 222.125C319.5 219.625 322.312 216.625 325.188 215.25C327.438 214.25 329.125 214.125 341.875 214.25L356 214.438L358.438 216.375ZM240 271.688C244 272.562 247.5 275.75 248.562 279.438C249.438 282.625 249.438 304.875 248.625 308C247.812 310.812 245.438 313.812 242.75 315.25C241.188 316.125 238.625 316.312 228.375 316.5C211.875 316.812 208.312 315.875 205.5 310.375C204.375 308.125 204.25 306.625 204.25 293.75C204.25 280.312 204.312 279.5 205.625 277.125C207.188 274.375 210.25 272.25 213.562 271.562C217.312 270.875 236.438 270.938 240 271.688ZM300.188 272.75C301.562 273.562 303.438 275.188 304.25 276.438C305.812 278.688 305.812 278.938 306 293C306.188 306.625 306.125 307.5 304.875 310.125C303.875 312.062 302.625 313.375 300.625 314.625L297.688 316.312H283.625C267.812 316.312 267.25 316.188 263.375 311.438L261.438 309L261.25 295.188C261.062 283.625 261.188 281 262.062 278.75C263.188 275.875 266.562 272.438 268.812 272C269.562 271.812 270.75 271.562 271.438 271.375C272.125 271.188 278.312 271.125 285.188 271.188C296.938 271.312 297.812 271.438 300.188 272.75ZM242.875 329.812C244.5 330.625 246.25 332.188 247.25 333.688L248.938 336.25V351V365.75L247.25 368.312C246.25 369.875 244.5 371.375 242.75 372.188C240.125 373.5 239.312 373.562 225.625 373.375L211.25 373.188L208.812 371.25C204.438 367.75 204.25 366.812 204.25 351.125C204.25 336.25 204.562 334.5 207.438 331.812C210.875 328.688 211.812 328.5 226.375 328.5C239.062 328.5 240.312 328.625 242.875 329.812ZM299.625 329.688C301.062 330.312 303 331.938 304 333.25L305.812 335.562V351V366.438L304 368.75C300.75 373.062 298.938 373.5 283.625 373.5C268 373.5 266.25 373.062 263.188 368.438L261.438 365.75V351V336.25L263.188 333.562C266.25 328.938 268 328.5 283.625 328.5C295.438 328.5 297.375 328.688 299.625 329.688Z" fill="#B0E7C9"/>
<path d="M214.875 179.438V191H226.438H238V179.438V167.875H226.438H214.875V179.438Z" fill="#F8F6F6"/>
<path d="M271.75 179.438V191H283.625H295.5V179.438V167.875H283.625H271.75V179.438Z" fill="#FEDBA6"/>
<path d="M329.25 179.438V191H340.812H352.375V179.438V167.875H340.812H329.25V179.438Z" fill="#F8F6F6"/>
<path d="M214.875 236.625V248.5H226.438H238V236.625V224.75H226.438H214.875V236.625Z" fill="#FEDBA6"/>
<path d="M271.75 236.625V248.5H283.625H295.5V236.625V224.75H283.625H271.75V236.625Z" fill="#F8F6F6"/>
<path d="M329.25 236.625V248.5H340.813H352.375V236.625V224.75H340.813H329.25V236.625Z" fill="#FEDBA6"/>
<path d="M214.875 293.812V305.375H226.438H238V293.812V282.25H226.438H214.875V293.812Z" fill="#F8F6F6"/>
<path d="M271.75 293.812V305.375H283.625H295.5V293.812V282.25H283.625H271.75V293.812Z" fill="#FEDBA6"/>
<path d="M214.875 351V362.875H226.438H238V351V339.125H226.438H214.875V351Z" fill="#FEDBA6"/>
<path d="M271.75 351V362.875H283.625H295.5V351V339.125H283.625H271.75V351Z" fill="#F8F6F6"/>
<path d="M386.125 264.875V297.562L405.188 316.625L424.25 335.688L420.5 339.438L416.75 343.188L387.188 313.688C355.313 281.75 355.375 281.812 348 281.188C340.313 280.5 333.563 284.188 330.063 290.938C328.313 294.25 328 295.562 328 299.062C328 307.5 327.625 307 351.75 331.312C363.688 343.312 373.813 353.875 374.25 354.625C375.25 356.688 374.75 358.25 370.688 364.875C359.75 382.812 353.25 404.625 352.188 426.812L352 431H398.125H444.313L444.063 363.625C443.875 311.875 443.688 295.562 443.063 293.188C441.438 286.938 437.563 279.938 432.875 275C428.25 270.125 387.75 232.688 386.75 232.375C386.375 232.25 386.125 244.188 386.125 264.875Z" fill="#FEDBA6"/>
<path d="M191.75 404.938C191.75 409.5 192.063 414.938 192.438 416.938C193.5 422.75 197 427.25 202.375 429.688C205.125 430.938 206.125 431 273.063 431H341L341.375 425.5C342.063 417.125 343 409.875 344 405.062C344.5 402.625 345.125 399.75 345.313 398.625L345.688 396.625H268.688H191.75V404.938ZM289.25 413.812V419.125H283.625H278V413.812V408.5H283.625H289.25V413.812Z" fill="#CECECE"/>
<defs>
<filter id="filter0_d_1352_278" x="0" y="0" width="572" height="572" filterUnits="userSpaceOnUse" color-interpolation-filters="sRGB">
<feFlood flood-opacity="0" result="BackgroundImageFix"/>
<feColorMatrix in="SourceAlpha" type="matrix" values="0 0 0 0 0 0 0 0 0 0 0 0 0 0 0 0 0 0 127 0" result="hardAlpha"/>
<feOffset dy="15"/>
<feGaussianBlur stdDeviation="15"/>
<feColorMatrix type="matrix" values="0 0 0 0 0 0 0 0 0 0 0 0 0 0 0 0 0 0 0.14 0"/>
<feBlend mode="normal" in2="BackgroundImageFix" result="effect1_dropShadow_1352_278"/>
<feBlend mode="normal" in="SourceGraphic" in2="effect1_dropShadow_1352_278" result="shape"/>
</filter>
</defs>
</svg>
