<svg width="512" height="512" viewBox="0 0 512 512" fill="none" xmlns="http://www.w3.org/2000/svg">
<path d="M122.5 33.4C115.8 35.5 110 39 104.8 43.8C98.9 49.3 95.4 54.9 92.9 63.1C91.1 68.9 91 75.1 91 222.6V376H235.5H380V340.5C380 321 379.8 305 379.5 305C379.2 305 375.5 306 371.3 307.2C364.9 309.1 361 309.5 349.5 309.5C334.5 309.5 326.9 308.1 315.9 303.3L310.3 300.8L293.2 305.9C283.8 308.7 274.4 311 272.4 311C267.6 311 263.3 307.8 262 303.2C261 299.9 261.5 297.5 266.3 281.1L271.8 262.7L268.8 255.2C264.7 244.9 262.9 235.3 262.9 223.6C262.9 198.9 271 179.6 288.9 162C299.9 151.1 308.4 145.9 323 140.8C332.2 137.6 333 137.5 349 137.5C364.9 137.5 369.3 138.1 378.5 141.6C379.8 142.1 380 138.3 380 107.7C380 88.5 379.5 70.9 379 67.9C376.4 54.1 367.2 42.2 354.5 35.9L347.5 32.5L237 32.3C149.7 32.2 125.7 32.4 122.5 33.4ZM299 96.5V108H235.5H172V96.5V85H235.5H299V96.5ZM205 302.5V314H171H137V302.5V291H171H205V302.5ZM235.3 294C238.4 296.4 240.3 301.8 239.4 305.4C239.1 306.9 237.4 309.4 235.8 311C233.4 313.4 232 314 228.3 314C224.5 314 223.3 313.5 220.4 310.6C217.6 307.8 217 306.4 217 303C217 299.6 217.6 298.2 220.4 295.4C223.3 292.5 224.5 292 228.3 292C231.2 292 233.6 292.7 235.3 294ZM295 346.5V358H216H137V346.5V335H216H295V346.5Z" fill="#FF6726"/>
<path d="M331.5 153.599C316.8 157.199 300.2 168.299 291.6 180.299C281.7 194.099 277.6 206.799 277.6 223.499C277.6 234.499 279.9 246.199 283.4 252.699C284.5 254.899 284.2 256.999 280.2 270.699C275.5 287.299 275.4 289.499 279.5 293.599C282.9 296.999 287.7 296.699 303.7 291.999C312.8 289.299 317.7 288.299 318.8 288.899C329.2 294.399 351.5 296.599 365.4 293.499C369.7 292.599 377.3 289.799 382.3 287.199C389.8 283.499 393.1 280.999 400.1 274.099C407.1 266.999 409.4 263.899 413.3 255.999C421.7 238.799 423.3 219.199 417.7 201.799C410.1 178.199 391 159.999 367.4 153.999C358.1 151.599 340.6 151.399 331.5 153.599ZM359 202.499V213.999H370.5H382V223.499V232.999H370.5H359V244.499V255.999H350H341V244.499V232.999H329.5H318V223.499V213.999H329.5H341V202.499V190.999H350H359V202.499Z" fill="#263238"/>
<path d="M91 421.4C91 439.6 91.3 443.7 92.9 448.9C96.8 461.4 104.9 470.7 116.8 476.3L123.5 479.5H235.5H347.5L354.5 476.1C367.2 469.8 376.4 457.9 379 444.1C379.5 441.1 380 430 380 419.4V400H235.5H91V421.4ZM238.3 431C246.8 437.7 242 451 231 451C227.6 451 226.2 450.4 223.4 447.6C220.6 444.8 220 443.4 220 440C220 436.6 220.6 435.2 223.4 432.4C226.3 429.5 227.5 429 231.3 429C234.2 429 236.6 429.7 238.3 431Z" fill="#263238"/>
</svg>
