<svg width="520" height="520" viewBox="0 0 520 520" fill="none" xmlns="http://www.w3.org/2000/svg">
<g clip-path="url(#clip0_2186_10883)" filter="url(#filter0_d_2186_10883)">
<path d="M152.751 344.008H89.1821C77.4802 344.008 67.9922 334.521 67.9922 322.818V149.19C67.9922 137.488 77.4792 128 89.1821 128H152.752C164.454 128 173.942 137.487 173.942 149.19V322.818C173.941 334.52 164.454 344.008 152.751 344.008Z" fill="#55D4BE"/>
<path d="M89.1821 312.222V128C77.4802 128 67.9922 137.487 67.9922 149.19V322.818C67.9922 334.52 77.4792 344.008 89.1821 344.008H152.752C164.454 344.008 173.942 334.521 173.942 322.818H99.7761C93.9251 322.818 89.1821 318.074 89.1821 312.222Z" fill="#24BFB2"/>
<path d="M120.971 312.223C129.749 312.223 136.864 305.108 136.864 296.33C136.864 287.553 129.749 280.438 120.971 280.438C112.194 280.438 105.078 287.553 105.078 296.33C105.078 305.108 112.194 312.223 120.971 312.223Z" fill="#F2EDEC"/>
<path d="M460.007 152.99C460.007 138.362 448.149 126.502 433.52 126.502H300.002C300.002 126.502 311.337 112.65 316.003 79.9951C324.003 23.9932 303.92 2.48425 284.002 0.0542528C279.046 -0.550746 274.688 3.34525 274.688 8.33824C274.688 8.33824 269.659 60.6801 260.002 79.9941C236.001 127.996 173.945 151.996 173.945 151.996V322.609C173.945 322.609 187.999 338.4 216.324 338.4C284.002 338.4 412.331 338.4 412.331 338.4C426.959 338.4 438.818 326.542 438.818 311.913C438.818 297.284 426.96 285.425 412.331 285.425H422.926C437.554 285.425 449.413 273.567 449.413 258.937C449.413 244.309 437.555 232.45 422.926 232.45H433.521C448.149 232.45 460.008 220.592 460.008 205.962C460.008 191.334 448.15 179.474 433.521 179.474C448.149 179.477 460.007 167.619 460.007 152.99Z" fill="#FCE780"/>
<path d="M460.007 152.99C460.007 138.362 448.149 126.502 433.52 126.502H300.002C300.002 126.502 311.337 112.65 316.003 79.9951C324.003 23.9932 303.92 2.48425 284.002 0.0542528C279.046 -0.550746 274.688 3.34525 274.688 8.33824C274.688 8.33824 269.659 60.6801 260.002 79.9941C236.001 127.996 173.945 151.996 173.945 151.996V322.609C173.945 322.609 187.999 338.4 216.324 338.4C284.002 338.4 412.331 338.4 412.331 338.4C426.959 338.4 438.818 326.542 438.818 311.913C438.818 297.284 426.96 285.425 412.331 285.425H422.926C437.554 285.425 449.413 273.567 449.413 258.937C449.413 244.309 437.555 232.45 422.926 232.45H433.521C448.149 232.45 460.008 220.592 460.008 205.962C460.008 191.334 448.15 179.474 433.521 179.474C448.149 179.477 460.007 167.619 460.007 152.99Z" fill="#FEE2CA"/>
<path d="M412.323 322.408C412.323 322.408 283.995 322.408 216.316 322.408C187.991 322.408 173.938 306.617 173.938 306.617V322.618C173.938 322.618 187.991 338.409 216.316 338.409C283.994 338.409 412.323 338.409 412.323 338.409C426.951 338.409 438.81 326.551 438.81 311.922C438.81 309.133 438.376 306.446 437.577 303.922C434.185 314.639 424.163 322.408 412.323 322.408Z" fill="#FDD0AB"/>
<path d="M433.51 158.29H407.023V179.48H433.51C448.138 179.48 459.997 167.622 459.997 152.993C459.997 149.223 459.198 145.645 457.778 142.398C453.69 151.749 444.369 158.29 433.51 158.29Z" fill="#FDD0AB"/>
<path d="M433.51 211.267H407.023V232.457H433.51C448.138 232.457 459.997 220.599 459.997 205.97C459.997 202.2 459.198 198.622 457.778 195.375C453.69 204.726 444.369 211.267 433.51 211.267Z" fill="#FDD0AB"/>
<path d="M422.909 264.243H407.016V285.433H422.909C437.537 285.433 449.397 273.575 449.397 258.947C449.397 255.177 448.598 251.599 447.178 248.352C443.088 257.703 433.768 264.243 422.909 264.243Z" fill="#FDD0AB"/>
<path d="M325.457 420.077H280.906L267.139 377.706C266.135 374.615 263.255 372.523 260.006 372.523C256.757 372.523 253.877 374.615 252.873 377.706L239.106 420.077H194.555C191.306 420.077 188.426 422.169 187.422 425.26C186.418 428.35 187.518 431.736 190.147 433.645L226.19 459.833L212.423 502.204C211.462 505.159 212.472 508.488 214.913 510.411C217.521 512.466 221.278 512.541 223.964 510.589L260.007 484.401L296.05 510.589C298.869 512.637 302.831 512.44 305.436 510.13C307.645 508.171 308.504 505.013 307.591 502.205L293.824 459.834L329.867 433.646C332.496 431.737 333.596 428.351 332.592 425.261C331.585 422.168 328.706 420.077 325.457 420.077Z" fill="#FA892D"/>
<path d="M515.142 425.253C514.138 422.162 511.258 420.07 508.009 420.07H463.458L449.691 377.699C448.699 374.644 445.77 372.516 442.558 372.516C439.346 372.516 436.418 374.643 435.425 377.699L421.658 420.07H377.106C373.857 420.07 370.977 422.162 369.973 425.253C368.969 428.343 370.069 431.729 372.698 433.638L408.741 459.825L394.971 502.197C394.01 505.152 395.02 508.481 397.461 510.404C400.069 512.459 403.826 512.534 406.512 510.582L442.555 484.394L478.598 510.582C481.417 512.63 485.379 512.433 487.985 510.123C490.194 508.164 491.053 505.006 490.14 502.198L476.373 459.827L512.416 433.639C515.046 431.729 516.147 428.343 515.142 425.253Z" fill="#FA892D"/>
<path d="M142.895 420.077H98.3417L84.5747 377.706C83.5707 374.615 80.6907 372.523 77.4417 372.523C74.1927 372.523 71.3127 374.615 70.3087 377.706L56.5417 420.077H11.9888C8.73981 420.077 5.85982 422.169 4.85582 425.26C3.85182 428.35 4.95182 431.736 7.58082 433.645L43.6238 459.833L29.8568 502.205C28.8958 505.16 29.9058 508.489 32.3468 510.412C34.9548 512.467 38.7118 512.542 41.3988 510.59L77.4417 484.402L113.485 510.59C116.304 512.638 120.266 512.441 122.871 510.131C125.08 508.172 125.939 505.014 125.026 502.206L111.259 459.835L147.302 433.647C149.931 431.738 151.031 428.352 150.027 425.262C149.024 422.168 146.144 420.077 142.895 420.077Z" fill="#FA892D"/>
</g>
<defs>
<filter id="filter0_d_2186_10883" x="0" y="0" width="520" height="520" filterUnits="userSpaceOnUse" color-interpolation-filters="sRGB">
<feFlood flood-opacity="0" result="BackgroundImageFix"/>
<feColorMatrix in="SourceAlpha" type="matrix" values="0 0 0 0 0 0 0 0 0 0 0 0 0 0 0 0 0 0 127 0" result="hardAlpha"/>
<feOffset dy="4"/>
<feGaussianBlur stdDeviation="2"/>
<feColorMatrix type="matrix" values="0 0 0 0 0 0 0 0 0 0 0 0 0 0 0 0 0 0 0.25 0"/>
<feBlend mode="normal" in2="BackgroundImageFix" result="effect1_dropShadow_2186_10883"/>
<feBlend mode="normal" in="SourceGraphic" in2="effect1_dropShadow_2186_10883" result="shape"/>
</filter>
<clipPath id="clip0_2186_10883">
<rect width="512" height="512" fill="white" transform="translate(4)"/>
</clipPath>
</defs>
</svg>
