<svg width="512" height="512" viewBox="0 0 512 512" fill="none" xmlns="http://www.w3.org/2000/svg">
<path d="M329.3 36.7L325.4 49.5L319.6 52.3L313.8 55.1L302.5 49C296.2 45.7 290.4 43 289.5 43C287.3 43 275 55.3 275 57.5C275 58.4 277.7 64.2 281 70.5L287.1 81.8L284.3 87.6L281.5 93.4L268.8 97.3L256 101.3V112V122.7L268.8 126.7L281.5 130.6L284.3 136.4L287.1 142.2L281 153.6C277.7 159.9 275 165.7 275 166.6C275 168.7 287.4 181 289.5 181C290.4 181 296.2 178.3 302.5 175L313.8 168.9L319.6 171.7L325.4 174.5L329.3 187.2L333.3 200H344H354.7L358.7 187.2L362.6 174.5L368.4 171.7L374.2 168.9L385.6 175C391.9 178.3 397.7 181 398.6 181C400.7 181 413 168.6 413 166.5C413 165.6 410.3 159.8 407 153.5L400.9 142.2L403.7 136.4L406.5 130.6L419.3 126.7L432 122.7V112V101.3L419.3 97.3L406.5 93.3L403.7 87.5L400.9 81.8L407 70.5C410.3 64.2 413 58.4 413 57.5C413 55.4 400.7 43 398.6 43C397.7 43 391.9 45.7 385.6 49L374.2 55.1L368.4 52.3L362.6 49.5L358.7 36.7L354.7 24H344H333.3L329.3 36.7ZM358.8 84.5C364.7 87.7 368.9 92 372.2 98.3C374.1 101.8 374.5 104.1 374.5 112C374.5 120.7 374.2 122 371.5 126.9C368.5 132.3 363.3 137.2 357 140.6C351.6 143.5 336 143.3 330.3 140.2C319.7 134.6 314 126 313.2 114.6C312.7 106 314 100.7 318.3 94.3C321.6 89.3 329 83.7 334.4 82C336.1 81.5 341.1 81.2 345.5 81.3C352.1 81.6 354.4 82.1 358.8 84.5Z" fill="#E89D43"/>
<path d="M436.5 54C433.9 67.2 431.9 78.2 432.2 78.5C433.2 79.5 447.4 82 448 81.3C448.4 80.8 449.5 76.3 450.5 71.1L452.3 61.8L454.8 67.6C456.1 70.9 458.4 77.8 459.8 83C462.1 91.6 462.4 94.3 462.4 111.5C462.5 131.9 461.7 137.4 456.4 152.2C452.8 162 449.2 169 442.6 179C439.5 183.6 437.1 187.4 437.2 187.5C437.4 187.5 440 189.7 443.1 192.3C446.2 194.9 449.2 197 449.9 197C451.8 197 459.5 185.6 465.3 174.3C471.7 161.6 476.4 147.7 478.5 134.8C480.4 122.8 480.4 99.7 478.5 88.6C476.8 79.2 471.9 62.6 468.9 56.7C466.6 52.3 466.4 52.4 477.8 54.6C482.3 55.5 486.3 56.1 486.5 55.8C487.5 54.8 490 40.6 489.3 40C488.8 39.6 478.8 37.4 467 35.1C455.2 32.8 444.6 30.6 443.4 30.4C441.4 29.9 441.1 31.1 436.5 54Z" fill="#454A6D"/>
<path d="M183.5 111.997L177.6 117.997L182.5 122.997L187.4 127.997H173C126.2 128.097 82.8 143.597 44.6 173.997C35.9 180.897 16 200.697 16 202.497C16 203.097 18.8 205.897 22.3 208.697L28.5 213.797L36.8 204.997C74.1 164.997 125.3 143.797 181.5 144.897L186.4 144.997L182 149.497L177.6 153.997L183.8 160.297L190 166.497L205.2 151.197L220.5 135.997L205.5 120.997C197.3 112.797 190.3 105.997 190 105.997C189.7 105.997 186.8 108.697 183.5 111.997Z" fill="#454A6D"/>
<path d="M160.1 199.2C158.4 207.6 156.6 215.1 156.2 215.9C155.6 217 139.5 221.9 134.9 222.4C134 222.4 128.4 217.1 122.1 210.2L110.9 198L107.7 199.6C99.4 203.8 89 210.5 89.3 211.5C89.5 212 91.8 219.2 94.4 227.5L99.2 242.5L90.8 250.8L82.5 259.2L67.5 254.4C59.3 251.8 52 249.5 51.5 249.3C50.5 249 44.1 258.7 40.1 266.7L38 270.9L49.3 281.1C55.4 286.7 61.1 291.9 61.9 292.6C63 293.6 62.9 294.8 61.1 300.2C60 303.6 58.8 308.4 58.4 310.7C58 313.1 57.2 315.4 56.6 315.8C56 316.3 48.4 318.2 39.8 320L24 323.3V336V348.7L39.8 352C48.4 353.8 56 355.7 56.6 356.2C57.2 356.6 58 358.9 58.4 361.3C58.8 363.6 60 368.4 61.1 371.8C62.9 377.2 63 378.4 61.9 379.4C61.1 380.1 55.4 385.3 49.3 390.9L38 401.1L40.1 405.3C44.1 413.3 50.5 423 51.5 422.7C52 422.5 59.3 420.2 67.5 417.6L82.5 412.8L90.8 421.2L99.2 429.5L94.1 445.4C91.3 454.1 89.1 461.4 89.2 461.5C90.7 462.8 101.6 469.3 105.7 471.4L110.9 474L122.1 461.7C128.4 454.9 134 449.6 134.9 449.6C139.5 450.1 155.6 455 156.2 456.1C156.6 456.9 158.4 464.4 160.1 472.7L163.3 488H176H188.7L191.9 472.7C193.6 464.4 195.4 456.8 195.9 456C196.3 455.2 199.1 454.1 202.1 453.4C205.1 452.8 209.9 451.5 212.9 450.6C217.4 449.1 218.4 449 219.4 450.1C220.1 450.9 225.3 456.6 230.9 462.7L241.1 474L245.3 471.9C253.3 467.9 263 461.5 262.7 460.5C262.5 460 260.2 452.7 257.6 444.5L252.8 429.5L261.2 421.2L269.5 412.8L284.5 417.6C292.8 420.2 300 422.5 300.5 422.7C301.5 423 307.9 413.3 311.9 405.3L314 401.1L302.7 390.9C296.6 385.3 290.9 380.1 290.1 379.4C289 378.4 289.1 377.4 290.6 372.9C291.5 369.9 292.8 365.1 293.4 362.1C294.1 359.1 295.2 356.3 296 355.9C296.8 355.4 304.4 353.6 312.8 351.9L328 348.7V336V323.3L312.8 320.1C304.4 318.4 296.8 316.6 296 316.1C295.2 315.7 294 312.7 293.4 309.4C292.7 306.2 291.4 301.3 290.5 298.6C289.1 294.6 289.1 293.5 290.2 292.5C290.9 291.9 296.6 286.7 302.7 281.1L314 270.9L311.9 266.7C307.9 258.6 301.5 249 300.5 249.3C300 249.6 292.8 251.8 284.5 254.4L269.5 259.2L261.2 250.8L252.8 242.5L257.9 226.6C260.7 217.9 262.9 210.6 262.8 210.5C261.3 209.3 250.4 202.7 246.3 200.7L241.1 198L230.9 209.3C225.3 215.4 220.1 221.1 219.4 221.9C218.4 223 217.4 222.9 212.9 221.4C209.9 220.5 205.1 219.2 202.1 218.6C199.1 217.9 196.3 216.8 195.9 216C195.4 215.2 193.6 207.6 191.9 199.2L188.7 184H176H163.3L160.1 199.2ZM194.8 259.1C212.6 263.2 230.6 275.4 240.9 290.4C245.8 297.5 251.6 310.6 253.4 318.7C255.5 327.9 255.5 344.1 253.4 353.3C251.6 361.4 245.8 374.5 240.9 381.6C226.7 402.2 201.8 415.1 176.1 415.1C163.3 415.1 153.6 412.9 141.5 407C124.3 398.6 113.4 387.7 105 370.5C99.1 358.3 97 349.3 97 335.8C97 314.1 104.8 295.2 120 280C127.2 272.8 133.1 268.8 143.3 264C159.8 256.3 176.1 254.8 194.8 259.1Z" fill="#454A6D"/>
<path d="M406 226.6C405.4 228 404 232 402.8 235.5C400.6 241.6 400.5 241.8 395.2 243.5C392.3 244.5 389.7 245.7 389.4 246.2C389.1 246.6 385.3 245.2 381 243C376.6 240.8 372.5 239 371.8 239C370.1 239 359 250.1 359 251.7C359 252.5 360.8 256.6 363 261C365.2 265.3 366.6 269.1 366.2 269.4C365.7 269.7 364.5 272.3 363.5 275.2L361.7 280.6L353.1 283.6L344.5 286.7V296V305.3L353.2 308.4C358.1 310.1 362 311.9 362 312.5C362 313 363.1 315.7 364.4 318.5L366.7 323.5L362.9 331.2C360.7 335.5 359 339.5 359 340.3C359 341.9 370.1 353 371.8 353C372.5 353 376.6 351.2 381 349C385.3 346.8 389.1 345.4 389.4 345.8C389.7 346.3 392.3 347.5 395.2 348.5L400.6 350.3L403.6 358.9L406.7 367.5H416H425.3L428.4 358.9L431.4 350.3L436.8 348.5C439.7 347.5 442.3 346.3 442.6 345.8C442.9 345.4 446.7 346.8 451 349C455.4 351.2 459.5 353 460.2 353C461.9 353 473 341.9 473 340.3C473 339.5 471.2 335.4 469 331C466.8 326.7 465.4 322.9 465.8 322.6C466.3 322.3 467.5 319.7 468.5 316.8L470.3 311.4L478.9 308.4L487.5 305.3V296V286.7L478.9 283.6L470.3 280.6L468.5 275.2C467.5 272.3 466.3 269.7 465.8 269.4C465.4 269.1 466.8 265.3 469 261C471.2 256.6 473 252.5 473 251.8C473 250.1 461.9 239 460.3 239C459.5 239 455.4 240.8 451 243C446.7 245.2 442.9 246.6 442.6 246.2C442.3 245.7 439.7 244.5 436.8 243.5L431.4 241.7L428.4 233.1L425.3 224.5L416.2 224.2C407.1 223.9 407 223.9 406 226.6ZM425.8 274.9C434.2 279.2 439 286.8 439 296C439 309 428.9 319 415.8 319C391.5 318.9 384.3 286.4 406 274.9C410.8 272.4 420.8 272.4 425.8 274.9Z" fill="#4AC3ED"/>
</svg>
