<svg width="512" height="512" viewBox="0 0 512 512" fill="none" xmlns="http://www.w3.org/2000/svg">
<g clip-path="url(#clip0_1896_220)">
<path fill-rule="evenodd" clip-rule="evenodd" d="M500.48 140.238H11.52V462.798H500.48V140.238ZM173.768 261.092L116.946 309.528L173.862 358.903C179.72 363.984 179.72 372.223 173.862 377.305C170.934 379.847 167.094 381.117 163.256 381.117C159.418 381.117 155.579 379.846 152.65 377.305L85.0341 318.648C82.2041 316.194 80.6232 312.861 80.6402 309.39C80.6572 305.919 82.2731 302.598 85.1272 300.166L152.743 242.529C158.652 237.492 168.15 237.565 173.955 242.691C179.761 247.817 179.677 256.055 173.768 261.092ZM359.629 242.61C353.772 237.528 344.274 237.528 338.416 242.61C332.558 247.691 332.558 255.93 338.416 261.012L395.332 310.387L338.51 358.823C332.601 363.86 332.517 372.099 338.323 377.225C341.26 379.818 345.139 381.117 349.023 381.117C352.817 381.117 356.615 379.876 359.535 377.386L427.151 319.749C430.005 317.317 431.621 313.996 431.638 310.525C431.655 307.054 430.074 303.722 427.244 301.267L359.629 242.61ZM260.772 247.465C263.541 240.691 272.113 237.149 279.923 239.55C287.731 241.951 291.816 249.389 289.048 256.163L241.509 372.457C239.327 377.793 233.544 381.124 227.371 381.124C225.707 381.124 224.015 380.882 222.357 380.372C214.549 377.97 210.464 370.533 213.233 363.759L260.772 247.465Z" fill="#4219BC"/>
<path d="M497 35.2812H15C6.716 35.2812 0 41.1074 0 48.2937V466.074C0 473.26 6.716 479.086 15 479.086H497C505.284 479.086 512 473.26 512 466.074V48.2937C512 41.1074 505.284 35.2812 497 35.2812ZM482 61.3062V123.164H30V61.3062H482ZM30 453.062V149.544H482V453.061H30V453.062Z" fill="#4219BC"/>
<path d="M445.232 105.775C453.373 105.775 461.172 99.6287 460.796 92.4129C460.418 85.1736 453.957 79.0508 445.232 79.0508C437.091 79.0508 429.292 85.197 429.668 92.4129C430.046 99.6522 436.507 105.775 445.232 105.775Z" fill="#4219BC"/>
<path d="M388.768 105.775C396.909 105.775 404.708 99.6287 404.332 92.4129C403.954 85.1736 397.493 79.0508 388.768 79.0508C380.626 79.0508 372.827 85.197 373.203 92.4129C373.581 99.6522 380.042 105.775 388.768 105.775Z" fill="#4219BC"/>
</g>
<defs>
<clipPath id="clip0_1896_220">
<rect width="512" height="444.16" fill="white" transform="translate(0 34)"/>
</clipPath>
</defs>
</svg>
