<svg width="512" height="512" viewBox="0 0 512 512" fill="none" xmlns="http://www.w3.org/2000/svg">
<g clip-path="url(#clip0_1792_23883)">
<path d="M180.9 2.3C169.6 6.2 159.6 15.1 154.8 25.7L152.9 30H127.4C99 30 97.3 30.3 93.3 36.3C89.3 42.1 90 45.5 102.7 85.2L114.5 122H196H277.5L289.3 85.2C302 45.5 302.7 42.1 298.8 36.3C294.7 30.3 293 30 264.6 30H239L236.9 25.7C231 13.9 221.3 5.5 209.8 1.8C201.3 -0.800003 189.4 -0.599998 180.9 2.3Z" fill="#3F3F3F"/>
<path d="M108.4 154.401C101.8 157.501 96.3999 163.001 93.2999 169.701C91.0999 174.401 90.8999 176.201 91.1999 182.801C91.4999 188.201 92.2999 192.001 93.9999 195.401L96.3999 200.301L94.2999 201.901C93.0999 202.801 88.1999 206.401 83.2999 210.001C78.4999 213.601 69.2999 221.701 62.9999 228.001C31.0999 259.901 10.7999 298.601 2.29994 343.501C-0.100061 356.401 -0.600061 389.201 1.49994 402.501C10.9999 464.501 55.1999 499.001 138.8 509.601C156 511.801 215.1 512.701 235.5 511.101C260.4 509.101 277.1 506.501 294.1 501.901L301.8 499.801L302.2 488.701C302.8 474.101 305.7 466.401 315.2 454.801L317.4 452.001L315.2 449.301C310.8 443.801 307 437.501 304.8 432.001C302.9 427.401 302.5 424.601 302.5 414.501C302.5 404.401 302.9 401.601 304.8 397.001C307 391.501 310.8 385.201 315.2 379.701L317.4 377.001L315.2 374.201C310.8 368.801 307 362.501 304.8 357.001C302.9 352.401 302.5 349.601 302.5 339.501C302.5 329.401 302.9 326.601 304.8 322.001C307 316.501 310.8 310.201 315.2 304.701L317.4 302.001L315.2 299.201C306.1 288.101 302.8 279.801 302.2 266.801C301.5 251.101 305.9 239.701 317.4 228.001C320.7 224.701 323.1 221.801 322.9 221.701C322.7 221.501 319.3 218.701 315.5 215.401C311.6 212.201 305.5 207.501 301.9 205.001L295.3 200.501L297.9 195.601C301.8 188.201 302.1 177.101 298.7 169.701C295.6 163.001 290.2 157.501 283.6 154.401L278.5 152.001H196H113.5L108.4 154.401ZM203.2 244.701C209.1 248.201 210.4 252.001 210.8 266.701L211.2 279.901L216.6 282.601C228.7 288.701 238.8 303.801 239.8 317.101C240.3 325.001 239.1 328.901 234.8 332.501C226.2 339.801 213 334.001 211.5 322.301C210.3 312.401 205.6 307.001 197.2 306.201C182.6 304.801 174.9 322.101 185.4 332.601C187.4 334.601 190 336.001 192.1 336.301C194 336.601 198.6 337.301 202.4 337.801C223.7 341.001 240 359.701 240 381.101C240 397.401 230.5 413.101 216.3 420.401L211.3 422.901L210.8 431.901C210 445.101 205.5 451.001 196 451.001C186.5 451.001 182 445.101 181.2 431.801L180.7 422.801L177.5 421.401C173.5 419.801 165.9 414.001 162 409.701C155 402.001 149.9 385.501 152.1 377.801C153.3 373.501 154.8 371.701 159 369.101C168.3 363.501 178.8 369.801 180.4 381.901C182 394.201 193.3 400.501 203.5 394.701C213 389.401 213.6 374.401 204.7 368.501C203.3 367.701 197.8 366.301 192.4 365.501C185.8 364.501 180.5 363.001 176.5 361.101C152.1 349.101 144.3 318.601 159.8 296.101C163.5 290.601 172.2 283.401 177.8 281.101L180.8 279.901L181.2 266.601C181.6 252.101 182.7 248.801 188.6 244.901C192.3 242.501 199.2 242.401 203.2 244.701Z" fill="#FFC305"/>
<path d="M343.5 243.9C335.4 247.7 331 255 331 264.7C331.1 274.4 335.9 282 344.2 285.4C347.5 286.8 357.2 287 421.7 287C491.4 287 495.7 286.9 499.5 285.1C507.5 281.4 512 274 512 264.5C512 255 507.5 247.6 499.5 243.9C495.7 242.1 491.4 242 421.5 242C351.6 242 347.3 242.1 343.5 243.9Z" fill="#FFC305"/>
<path d="M343.5 318.9C335.4 322.7 331 330 331 339.7C331.1 349.4 335.9 357 344.2 360.4C347.5 361.8 357.2 362 421.7 362C491.4 362 495.7 361.9 499.5 360.1C507.5 356.4 512 349 512 339.5C512 330 507.5 322.6 499.5 318.9C495.7 317.1 491.4 317 421.5 317C351.6 317 347.3 317.1 343.5 318.9Z" fill="#3F3F3F"/>
<path d="M465.481 353.099C450.025 357.379 439.136 358.722 420.256 358.722C401.464 358.806 392.683 357.799 376.964 353.854C372.398 352.679 368.534 351.756 368.358 351.756C368.183 351.756 368.007 359.142 368.007 368.122V384.488H352.025C337.887 384.488 335.692 384.656 333.496 386.083C330.247 388.097 328.403 390.699 327.525 394.476C325.856 401.358 325.505 400.938 369.588 443.826C392.156 465.731 411.651 484.196 412.968 484.867C416.041 486.378 422.715 486.378 425.789 484.867C428.335 483.524 508.246 407.233 510.617 403.792C512.461 401.106 512.461 394.392 510.617 390.699C507.895 385.244 505.348 384.488 488.839 384.488H474.262V367.702C474.262 358.47 473.999 350.917 473.647 351.001C473.208 351.001 469.608 352.008 465.481 353.099Z" fill="#3F3F3F"/>
</g>
<defs>
<clipPath id="clip0_1792_23883">
<rect width="512" height="512" fill="white"/>
</clipPath>
</defs>
</svg>
