<svg width="512" height="512" viewBox="0 0 512 512" fill="none" xmlns="http://www.w3.org/2000/svg">
<g clip-path="url(#clip0_1970_263)">
<path d="M40.4001 15C32.1 16.2 25.4 18.9 19.2 23.4C12 28.7 7.90005 33.8 3.80005 42.7C0.800049 48.8 0.500049 50.6 0.200049 60.7L-0.199951 72H101.7H203.7L206.8 74.2C208.5 75.5 219.7 87.4 231.6 100.7L253.2 125H382.6H512V89C512 55.4 511.9 52.5 510 46.9C505 32.2 494.6 21.7 479.7 16.6L473.5 14.5L259.5 14.4C141.8 14.3 43.2001 14.6 40.4001 15ZM309 72.9C310.4 73.9 312.1 76.5 312.9 78.6C314.1 82.2 314.1 83 312.5 86.3C310.4 90.7 306.6 93 301.4 93C296.1 93 291 87.7 291 82.2C291 77.6 293.9 73.4 298.4 71.4C301.9 69.9 305.4 70.4 309 72.9ZM367.5 71C368.2 71 370.2 72.4 371.9 74.1C374.5 76.6 375 78 375 81.7C375 85.5 374.5 86.7 371.6 89.6C368.8 92.4 367.4 93 364 93C360.6 93 359.2 92.4 356.4 89.6C353.7 86.9 353 85.4 353 82.3C353 78.4 355 74.4 357.9 72.5C360.3 71 363.3 70.2 364.8 70.6C365.6 70.8 366.8 71 367.5 71ZM429.4 71.4C434.1 73.4 437 77.5 437 82.2C437 87.7 431.9 93 426.6 93C418.4 93 414.2 88.1 414.8 79.3C415 76.6 420.3 71.3 423.3 70.7C424.5 70.5 425.6 70.2 425.8 70.1C425.9 70.1 427.5 70.6 429.4 71.4Z" fill="#162C47"/>
<path d="M0.2 278.698L0.5 462.498L3.7 469.298C5.5 473.098 8.4 477.998 10.2 480.298C14.9 486.198 24.2 492.698 31.8 495.198L38.5 497.498L250.5 497.798C387.8 497.998 465.2 497.698 470.1 497.098C480.5 495.698 487.5 492.898 494.5 487.298C501.7 481.398 507.2 473.498 509.9 465.198C512 458.998 512 457.798 512 303.498V147.998H378.1H244.1L240.8 144.698C238.9 142.998 228.1 130.998 216.6 118.198L195.8 94.9977H97.9H0L0.2 278.698ZM275.6 195.498C301 199.998 323.3 211.998 341.3 230.898C355.7 246.098 365.2 263.298 370.6 284.498C373.1 294.398 373.4 297.198 373.4 311.498C373.4 328.498 372.3 335.298 367.5 349.598C356.2 383.198 328.5 411.098 294.8 422.898C281.4 427.598 270.3 429.398 255.5 429.398C224.1 429.298 195.3 417.298 173 394.998C130.9 352.998 126.5 287.198 162.5 239.998C168.6 232.098 182.4 219.198 190.5 213.798C204.3 204.798 219.9 198.398 235.6 195.598C246.3 193.698 264.8 193.698 275.6 195.498Z" fill="#31C5FF"/>
<path d="M247.1 223.5C245.3 224.3 241 227.8 237.6 231.3C225.3 243.8 216.8 266.8 213.7 295.7L213.2 300H256H298.8L298.3 295.2C296.6 277.3 290.5 256 283.4 243.3C279 235.4 269.7 225.6 264.6 223.5C260.1 221.6 251.5 221.6 247.1 223.5Z" fill="#162C47"/>
<path d="M203 232.794C183.8 245.794 168.9 267.394 163.5 290.194C161 300.794 160 299.994 176 299.994H189.9L190.4 296.694C190.7 294.994 191.2 290.794 191.5 287.494C193.2 271.794 199 251.794 205.9 237.894C208.2 233.394 210 229.594 210 229.394C210 228.394 208.1 229.394 203 232.794Z" fill="#162C47"/>
<path d="M302.2 229.701C302.4 230.201 304.3 234.101 306.4 238.501C313.5 253.201 319.2 273.101 320.5 288.501C321.6 301.201 320 300.001 336 300.001C352 300.001 351 300.801 348.5 290.201C344.3 272.501 334.6 255.601 321.5 243.101C312.9 235.001 300.7 226.501 302.2 229.701Z" fill="#162C47"/>
<path d="M162 325.102C162 329.402 166.3 343.802 170 351.602C175 362.502 181 371.102 188.9 379.002C195 385.002 209 395.402 209.9 394.402C210.1 394.202 208.7 391.002 206.7 387.202C199.6 373.802 193.2 351.702 191.5 335.502C191.2 332.202 190.7 328.002 190.4 326.202L189.9 323.002H176C162.5 323.002 162 323.102 162 325.102Z" fill="#162C47"/>
<path d="M213.5 326.698C215.5 342.198 216.4 346.998 218.6 355.198C221.5 366.198 229.3 382.598 234.7 389.098C248.7 405.998 263.3 405.998 277.3 389.098C282.7 382.598 290.5 366.198 293.4 355.198C295.6 346.998 296.5 342.198 298.5 326.698L299 322.998H256H213L213.5 326.698Z" fill="#162C47"/>
<path d="M321.6 326.197C321.3 327.997 320.8 332.197 320.5 335.497C318.9 351.497 312.7 372.797 305.5 386.997C303.5 390.997 302.1 394.397 302.3 394.597C303.1 395.497 317.8 384.297 323.6 378.397C334.9 366.997 343.8 351.297 347.9 335.597C351.5 322.097 352.3 322.997 336 322.997H322.1L321.6 326.197Z" fill="#162C47"/>
</g>
<defs>
<clipPath id="clip0_1970_263">
<rect width="512" height="512" fill="white"/>
</clipPath>
</defs>
</svg>
