<svg width="512" height="512" viewBox="0 0 512 512" fill="none" xmlns="http://www.w3.org/2000/svg">
<path d="M314 26C312.1 27.9 312 29.3 312 46V64H301.3C289.1 64 285.6 65.3 282 71.2C279.3 75.7 279.3 84.3 282 88.8C285.6 94.7 289.1 96 301.3 96H312V116V136H328.4H344.7L345.3 131C346.4 121.5 352.8 112.8 362.3 107.8C365.8 105.9 368.1 105.5 376 105.5C384 105.5 386.2 105.9 389.8 107.8C398.9 112.7 405.6 121.9 406.7 131.1L407.3 136H421.6C434.7 136 436.2 135.8 438 134C439.9 132.1 440 130.7 440 80C440 29.3 439.9 27.9 438 26C436 24 434.7 24 376 24C317.3 24 316 24 314 26Z" fill="#FBB040"/>
<path d="M186.5 73.6C173.7 75.8 159.4 80.7 146.9 87.1C114.1 104.1 90.2 132 78.6 167.1C75.6 176.3 72 193.1 72 198.2C72 199.9 73.5 200 96.4 200H120.7L121.3 195.1C122.4 185.7 128.3 177.4 137.2 172.4C142 169.8 143.4 169.5 152 169.5C160 169.5 162.2 169.9 165.8 171.8C174.9 176.7 181.6 185.9 182.7 195.1L183.3 200H199.6H216V187.6V175.3L211.1 174.7C201.9 173.6 192.7 166.9 187.8 157.8C185.9 154.2 185.5 152 185.5 144C185.5 135.4 185.8 134 188.4 129.2C193.4 120.3 201.7 114.4 211.1 113.3L216 112.7V92.4V72L205.3 72.1C199.3 72.1 190.9 72.8 186.5 73.6Z" fill="#7CD1FF"/>
<path d="M143.2 186C137.3 189.6 136 193.1 136 205.2V216H104H72V220.2C72 227.4 74.8 242.5 78.1 252.8C84.5 272.7 95.3 291.1 109.5 305.9C113.9 310.5 127.1 322.1 138.8 331.7L160 349.1V362.5V376H188H216V343.6V311.3L211.1 310.7C201.9 309.6 192.7 302.9 187.8 293.8C185.9 290.2 185.5 288 185.5 280C185.5 271.4 185.8 270 188.4 265.2C193.4 256.3 201.7 250.4 211.1 249.3L216 248.7V232.4V216H192H168V205.2C168 196.3 167.7 194 166 191.2C163 186.4 158.5 184 152 184C148.3 184 145.4 184.6 143.2 186Z" fill="#B2876D"/>
<path d="M287.2 186C281.3 189.6 280 193.1 280 205.2V216H256H232V240V264H221.3C209.1 264 205.6 265.3 202 271.2C199.3 275.7 199.3 284.3 202 288.8C205.6 294.7 209.1 296 221.3 296H232V336V376H252H272V362.5V349.1L293.3 331.6C305.1 322 318.3 310.3 322.8 305.6C337.1 290.5 347.5 272.7 353.9 252.8C357.2 242.5 360 227.4 360 220.2V216H336H312V205.2C312 196.3 311.7 194 310 191.2C307 186.4 302.5 184 296 184C292.3 184 289.4 184.6 287.2 186Z" fill="#95E8C8"/>
<path d="M146 394C144.7 395.3 144 397.3 144 400C144 402.7 144.7 404.7 146 406C148 408 149.3 408 216 408C282.7 408 284 408 286 406C287.3 404.7 288 402.7 288 400C288 397.3 287.3 395.3 286 394C284 392 282.7 392 216 392C149.3 392 148 392 146 394Z" fill="#162C47"/>
<path d="M162 426C160.7 427.3 160 429.3 160 432C160 434.7 160.7 436.7 162 438C163.9 439.9 165.3 440 216 440C266.7 440 268.1 439.9 270 438C271.3 436.7 272 434.7 272 432C272 429.3 271.3 427.3 270 426C268.1 424.1 266.7 424 216 424C165.3 424 163.9 424.1 162 426Z" fill="#162C47"/>
<path d="M177 459.1C180.1 469.7 188.4 479.6 198.5 484.6C204.1 487.3 205.3 487.5 216 487.5C226.5 487.5 228 487.3 233 484.8C243.5 479.6 251.5 470.6 254.5 460.5L255.9 456H216H176.1L177 459.1Z" fill="#162C47"/>
</svg>
