<svg width="512" height="512" viewBox="0 0 512 512" fill="none" xmlns="http://www.w3.org/2000/svg">
<path d="M85.2 18.1011C78.2 21.6011 74.8 25.2011 71.1 33.0011L68.5 38.5011V256.001V473.501L71.1 479.001C74.8 486.801 78.2 490.401 85.2 493.901L91.3 497.001H207C336.2 497.001 327.8 497.501 336.4 489.901C338.9 487.701 342.1 483.401 343.7 480.201L346.5 474.501L346.8 434.201L347.1 394.001H350.9C355.9 394.001 360.8 392.201 362 390.001C362.6 389.001 363.5 383.701 364.1 378.201L365.3 368.201L371.4 365.801L377.6 363.301L386 369.201C396.5 376.501 399 376.701 405.3 370.801C417.2 359.401 427 348.101 427 345.701C427 343.401 424.7 339.701 416.8 329.901L413.9 326.301L416.1 320.401C417.4 317.201 418.4 314.401 418.5 314.201C418.6 314.101 423.3 313.201 428.9 312.201C444 309.501 443.5 310.301 443.5 287.501C443.5 264.501 444 265.301 428.9 263.601L418.7 262.501L415.9 256.301L413.2 250.201L419.1 241.701C427.8 229.201 427.8 229.401 412.2 213.801C396.3 197.901 396.1 197.801 384.3 207.401L376.4 213.801L370.4 211.301C367.2 209.901 364.4 208.701 364.2 208.601C364.1 208.401 363.2 203.701 362.1 198.001C360 186.001 358.5 184.001 351.4 184.001H347.1L346.8 110.701C346.5 38.701 346.5 37.4011 344.4 32.9011C341.3 26.201 336.6 21.5011 329.8 18.0011L323.7 15.0011H207.5H91.3L85.2 18.1011ZM250.9 46.6011C253.6 50.1011 253.5 52.5011 250.5 55.5011C248.1 58.0011 248 58.0011 227.2 58.0011C207.5 58.0011 206.1 57.9011 203.6 55.9011C200.4 53.4011 200.1 48.9011 203 46.0011C204.9 44.1011 206.3 44.0011 226.9 44.0011H248.9L250.9 46.6011ZM331 135.501V184.001H326C320.1 184.001 316.6 185.401 315.2 188.401C314.7 189.601 313.9 194.501 313.5 199.201C313.1 203.901 312.5 208.201 312.1 208.701C311 210.401 300.2 214.201 298.8 213.401C298.1 213.001 294.4 210.401 290.6 207.601C279.9 199.901 279.6 199.901 264 215.501C247.4 232.101 247.4 231.201 261 247.801L263.8 251.201L261.3 257.401L258.8 263.701L248.6 265.401C233.7 267.801 234 267.401 234 290.101C234 313.401 233.1 312.301 253.2 314.601L259 315.201L261.5 320.701C262.9 323.801 264 326.701 264 327.201C264 327.701 261.5 331.601 258.5 335.901C250 348.001 250.1 348.401 265.4 363.901C277 375.601 278.2 376.501 281.7 376.401C284.9 376.401 286.8 375.401 293.3 370.201C297.6 366.801 301.3 364.001 301.4 364.001C301.5 364.001 304.3 365.101 307.6 366.401L313.5 368.801L314.7 375.101C315.3 378.601 316.1 383.201 316.5 385.201C317.4 390.801 319.7 393.001 325.8 393.701L331 394.301V401.601V409.001H207.5H84V248.001V87.0011H207.5H331V135.501ZM346.5 202.201C346.7 203.501 347.4 207.401 348 211.001C349.5 220.201 350.5 221.701 356.4 223.601C359.2 224.501 365 226.801 369.4 228.701C378.6 232.801 378.7 232.801 388.8 224.801L395.1 219.701L400.6 225.101C403.6 228.001 406 230.801 406 231.201C406 231.601 403.8 235.101 401 239.001C395.4 246.901 394.6 251.001 397.9 256.401C398.9 258.101 401 263.001 402.5 267.201C404 271.501 405.9 275.501 406.6 276.101C407.4 276.801 412.4 277.801 417.8 278.401L427.5 279.501L427.8 287.701L428.1 295.801L425.3 296.401C423.8 296.701 419.6 297.401 416 298.001C407.2 299.501 405.5 300.901 403.5 307.701C402.6 310.801 400.5 316.001 398.9 319.201C397.3 322.301 396 326.001 396 327.401C396 328.801 398.3 332.801 401.5 336.901C404.5 340.801 407 344.401 407 344.801C407 345.201 404.6 348.001 401.6 350.901L396.2 356.301L389.7 351.601C379.4 344.301 379.2 344.301 369.1 349.001C364.3 351.201 359 353.301 357.3 353.601C352 354.701 350.3 357.501 349.1 367.501C348.5 372.401 348 376.901 348 377.301C348 377.701 344.3 378.001 339.8 377.801L331.6 377.501L329.9 368.501C329 363.501 327.9 358.701 327.5 357.801C327.1 356.901 324.7 355.301 322.2 354.401C319.6 353.501 314.2 351.201 310.1 349.401C306.1 347.501 301.6 346.001 300.1 346.001C298.4 346.001 294.9 348.101 290 352.001L282.5 358.001L276.8 352.301C272.4 347.901 271.3 346.301 272.1 345.101C272.6 344.201 275 340.601 277.5 337.101C280 333.601 282 329.701 282 328.401C282 327.001 280.7 323.401 279.1 320.201C277.5 317.101 275.4 311.901 274.4 308.601C273.4 305.401 271.7 302.201 270.5 301.401C269 300.401 255.1 298.001 250.8 298.001C250.3 298.001 250 294.201 250 289.601V281.301L259.1 280.001C269.3 278.501 272.5 276.701 273.5 271.701C273.9 270.001 276 264.601 278.2 259.801C280.9 254.001 282 250.301 281.6 248.801C281.3 247.501 278.5 243.401 275.5 239.601L269.9 232.601L275.6 226.901L281.3 221.101L289.1 226.601C293.7 229.801 297.9 232.001 299.4 232.001C300.9 232.001 304.4 230.801 307.3 229.401C310.2 227.901 315.4 225.701 318.9 224.401C322.4 223.101 325.4 222.001 325.5 221.801C327 220.001 327.9 216.201 328.5 209.501C328.9 205.101 329.4 201.201 329.7 200.701C329.9 200.301 333.7 200.001 338 200.001C345.4 200.001 346 200.101 346.5 202.201ZM245.8 450.701C249.3 453.701 249.6 457.501 246.6 460.401L244.1 463.001H207.5C172.3 463.001 170.9 462.901 169 461.001C167 459.001 166.4 454.501 167.8 452.401C169.9 449.301 172.9 449.101 208.1 449.001C240.7 449.001 244 449.201 245.8 450.701Z" fill="#414141"/>
<path d="M221.7 106.198C218.6 109.098 175 218.898 175 223.698C175 225.598 175.8 227.798 177 228.998C179.5 231.498 185.1 231.598 187.8 229.198C190.7 226.698 234.3 116.598 234.4 111.598C234.5 104.698 226.8 101.498 221.7 106.198Z" fill="#FF6726"/>
<path d="M134.5 145.999C118.3 162.199 116.6 164.199 116.6 167.299C116.6 170.399 118.4 172.599 133.4 188.299C142.7 197.999 150.9 206.099 151.7 206.399C155.4 207.899 159.9 206.999 161.9 204.399C166.3 198.899 164.7 195.999 148.6 179.999L136 167.599L150 153.499C162.2 141.199 164 138.899 164 136.099C164 131.799 160.2 127.999 155.8 127.999C152.8 127.999 150.6 129.899 134.5 145.999Z" fill="#FF6726"/>
<path d="M255.2 128.7C253 129.6 250.8 135 251.5 137.9C251.9 139.4 258 146.4 265.8 154.3L279.4 168L265.5 182C253 194.6 251.6 196.3 251.6 199.4C251.6 204.3 254.3 207 259.3 207C263.2 207 264 206.4 280.1 190.3C297 173.6 299.7 169.9 298.6 165.8C298.3 164.5 290.2 155.5 280.6 145.7C264.7 129.5 263 128 259.9 128.1C258 128.1 255.9 128.4 255.2 128.7Z" fill="#FF6726"/>
<path d="M330 249.3C309.4 254 295.8 274.1 299.1 295C301.2 308.5 309.3 319.4 321.8 325.3C328 328.3 329.3 328.5 339 328.5C348.8 328.5 350 328.3 356 325.3C364.3 321.3 371.2 314.3 375.2 306.2C381.2 294.1 380.1 277.9 372.4 266.3C363.6 252.8 345.8 245.7 330 249.3Z" fill="#FF6726"/>
</svg>
