<svg width="512" height="512" viewBox="0 0 512 512" fill="none" xmlns="http://www.w3.org/2000/svg">
<path d="M115.5 32.5C115 32.7 113.3 33.1 111.8 33.4C107.9 34.3 102 39.8 99.9 44.5C98.3 48 98 51.4 98 71.2V94H255.4H412.8L413.2 71.2C413.7 46.5 413.3 44 408.2 38.7C401.9 32 414.2 32.5 258 32.3C180.2 32.2 116.1 32.3 115.5 32.5ZM149.5 56.5C150.9 57.8 152 59.6 152 60.5C152 62.9 149.3 67.7 147.5 68.4C144.5 69.5 127.6 69 125.9 67.7C122.8 65.3 121.7 62.1 123 58.9C124.8 54.6 126.4 54.1 137.3 54C146.4 54 147.3 54.2 149.5 56.5ZM241.7 56.2C245 59.2 244.8 64.2 241.4 66.9C239.1 68.7 237.3 69 229.2 69C220.7 69 219.4 68.7 217.3 66.8C214.3 64 214.2 58.8 217.2 56C219.1 54.3 220.7 54 229.4 54C238.3 54 239.6 54.2 241.7 56.2ZM195.5 57.5C196.9 58.8 198 60.8 198 62C198 63.1 196.9 65.2 195.5 66.5C193.3 68.8 192.4 69 183.3 69C173.3 68.9 171.4 68.3 169.3 64.6C168 62.3 169.2 58.2 171.7 56.2C172.8 55.4 176.9 55 183.2 55C192.4 55 193.3 55.2 195.5 57.5Z" fill="#31C5FF"/>
<path d="M98 230.296V352.696L100.3 357.096C101.6 359.496 104.6 362.796 106.9 364.496L111.2 367.496L252.3 367.796C357.8 367.996 394.6 367.796 397.8 366.896C403.1 365.396 409.6 359.196 411 354.196C411.6 351.796 412 308.196 412 229.196V107.996H255H98V230.296ZM267.3 142.496C268.6 142.996 269 144.396 269 148.496C269 155.796 270 160.096 271.9 160.696C272.8 160.996 275.8 162.396 278.7 163.796L283.9 166.296L290.2 161.096C293.7 158.296 296.8 155.996 297.2 155.996C299.8 155.996 317 173.396 317 175.996C317 176.496 314.8 179.496 312 182.796C309.3 186.096 307 189.296 307 189.896C307 190.496 308.3 193.696 310 196.896C313.2 203.296 313.2 203.296 324.3 204.596C331.3 205.396 331.2 205.096 330.8 221.896L330.5 234.396L327.5 235.096C325.9 235.496 322 236.096 318.9 236.496L313.3 237.096L310.6 244.096C308.3 249.996 308.1 251.396 309.2 252.796C309.9 253.696 312.2 256.596 314.2 259.096C316.3 261.596 318 264.196 318 264.796C318 266.496 300.2 283.996 298.4 283.996C297.5 283.996 294.2 281.696 291 278.896L285.1 273.796L278.4 276.596C271 279.796 270.6 280.496 269.6 290.196L268.9 296.896L262.2 297.496C254 298.396 254 298.396 245.8 298.196L239.2 297.996L238.6 292.696C237 279.896 237.1 280.196 233.3 278.896C231.3 278.296 228.2 276.796 226.3 275.796L223 273.796L216.4 279.396L209.8 284.996L203.9 279.896C200.7 277.196 196.2 272.596 193.9 269.796C189.1 264.096 189 264.396 196.3 255.796L200.3 251.096L198.2 245.796C197.1 242.896 196 239.696 195.7 238.796C195.3 237.596 193.5 236.996 189.3 236.496C186.1 236.196 182.2 235.596 180.5 235.196L177.5 234.396L176.7 221.196C176.2 213.896 176.1 207.296 176.3 206.496C176.7 205.696 179.3 204.896 183.7 204.496C187.4 204.096 191.2 203.596 192.1 203.396C192.9 203.196 194.9 199.796 196.4 195.896L199.1 188.896L194.1 183.096C191.3 179.896 189 176.596 189 175.696C189 173.996 207.5 155.996 209.3 155.996C210 155.996 213.2 158.296 216.5 160.996C219.8 163.796 223 165.996 223.8 165.996C224.5 165.996 227.7 164.696 230.9 162.996C237.3 159.796 237.6 159.296 238.7 148.996C239.2 143.496 239.5 142.896 241.9 142.396C243.3 142.096 245 141.596 245.5 141.396C247.1 140.796 265.3 141.696 267.3 142.496Z" fill="#31C5FF"/>
<path d="M245.3 185.397C235.3 188.697 228.4 194.597 223.2 204.297C220.8 208.997 220.5 210.497 220.5 219.997C220.5 228.897 220.8 231.197 222.8 235.097C226.4 242.497 231.5 247.597 238.8 251.197C244.5 254.097 246.7 254.497 254.5 254.797C261.8 255.097 264.6 254.797 269.2 252.997C276.8 250.197 285.1 242.597 288.7 235.197C291.2 230.097 291.5 228.497 291.5 218.997C291.5 209.397 291.2 207.997 288.7 203.197C285.1 196.397 279.2 190.697 272.2 187.397C265.3 184.097 252.2 183.097 245.3 185.397Z" fill="#31C5FF"/>
<path d="M428.8 248.7L428.5 352.5L426.2 358.1C421.9 368.8 414.8 375.8 403.9 380.3L398.5 382.5L260.6 382.8C178.1 382.9 119.9 382.7 115.8 382.1C98.3 379.7 85.8 367.8 83 350.9C82.4 346.8 82 308.6 82 245.1V145.8L70.6 146.1C59.8 146.5 58.9 146.7 54.8 149.5C52.5 151.2 49.5 154.4 48.3 156.5L46 160.5V286.2V412H255H464L464.2 286.2C464.5 161.2 464.5 160.5 462.4 156C461.2 153.2 458.8 150.4 456.1 148.5C452.1 145.7 451.2 145.5 440.4 145.2L429.1 144.8L428.8 248.7Z" fill="#1B446D"/>
<path d="M14.9 428.898C13.1 430.798 12 432.898 12 434.698C12 438.998 25 473.098 27.7 475.998L30 478.498L251.8 478.798C373.7 478.898 474.9 478.798 476.7 478.498C478.4 478.198 480.8 477.198 482 476.198C484.8 473.898 498.3 438.698 498.4 433.598C498.4 430.798 497.8 429.198 496.1 427.898C493.8 426.098 486.7 425.998 255.8 425.998H17.8L14.9 428.898ZM280.5 447.498C283.5 450.498 283.7 453.898 280.9 457.398L278.9 459.998H255.7C233.4 459.998 232.6 459.898 230.3 457.798C227.2 454.898 227.3 450.598 230.5 447.498L232.9 444.998H255.5H278.1L280.5 447.498Z" fill="#1B446D"/>
</svg>
