<svg width="512" height="512" viewBox="0 0 512 512" fill="none" xmlns="http://www.w3.org/2000/svg">
<path d="M82 34C80.1 35.9 80 37.3 80 58V80H200H320V58C320 37.3 319.9 35.9 318 34C316 32 314.7 32 200 32C85.3 32 84 32 82 34ZM242.5 49.4C246.2 51 247.7 54.2 246.6 58.6C245.4 63.3 241.5 64 216 64C190.5 64 186.6 63.3 185.4 58.6C184.4 54.3 185.8 51 189.3 49.5C194 47.4 237.6 47.4 242.5 49.4ZM165 51C166.1 52.1 167 54.3 167 56C167 57.7 166.1 59.9 165 61C163.9 62.1 161.7 63 160 63C158.3 63 156.1 62.1 155 61C153.9 59.9 153 57.7 153 56C153 54.3 153.9 52.1 155 51C156.1 49.9 158.3 49 160 49C161.7 49 163.9 49.9 165 51Z" fill="#1B446D"/>
<path d="M80 248V400H152H224V380.6C224 368.8 224.4 360 225.1 358C226.8 353.3 230.8 352 243.9 352C254.9 352 255 352 255.6 349.4C256.2 347.3 255.2 345.8 248.6 339.1C240.2 330.4 239.2 327.5 243.1 322.6L245.1 320H231C214.6 320 210.9 319 209.1 314C208.4 311.9 208 302.3 208 287.8C208 261.9 208.6 259 214 257.1C218.5 255.6 261.5 255.6 266 257.1C271 258.9 272 262.6 272 279V293.1L274.6 291.1C279.5 287.2 282.4 288.2 291.1 296.6C297.8 303.2 299.3 304.2 301.4 303.6C304 303 304 302.9 304 291.9C304 275.7 306.3 272 316.6 272H320V184V96H200H80V248ZM221 116.4C238.8 122.5 253.6 137.5 260.1 156C262.1 161.5 262.5 164.5 262.5 175.5C262.5 186.6 262.1 189.6 260.1 195.8C254.1 214.2 238.2 230.1 219.9 236.1C213.6 238.1 210.6 238.5 199.5 238.5C188.5 238.5 185.5 238.1 180 236.1C161.5 229.6 146.7 214.9 140.3 197C136.8 187.2 135.9 170.7 138.4 161C147.7 124.7 185.8 104.1 221 116.4ZM186 257.1C191.4 259 192 261.9 192 287.8C192 313.7 191.5 316.5 186.4 318.6C181.6 320.6 138.4 320.6 133.6 318.6C128.5 316.5 128 313.7 128 288C128 262.6 128.5 259.5 133.4 257.4C137.4 255.7 181 255.4 186 257.1ZM186.5 337.4C190.2 339 191.7 342.2 190.6 346.6C189.4 351.3 185.5 352 160 352C134.5 352 130.6 351.3 129.4 346.6C128.4 342.3 129.8 339 133.3 337.5C138 335.4 181.6 335.4 186.5 337.4ZM186.5 369.4C190.2 371 191.7 374.2 190.6 378.6C189.4 383.3 185.5 384 160 384C134.5 384 130.6 383.3 129.4 378.6C128.4 374.3 129.8 371 133.3 369.5C138 367.4 181.6 367.4 186.5 369.4Z" fill="#718BAB"/>
<path d="M193.5 128.097C182.1 129.497 172.7 134.297 164.8 142.797C155.6 152.597 152 162.197 152 176.397C152.1 189.297 155.8 199.497 163.8 208.197L166.2 210.797L172.1 204.797L177.9 198.897L174.5 193.897C170.3 187.697 169 183.397 169 174.897C169 158.297 182.9 144.797 200 144.797C212.3 144.797 222.4 151.197 228 162.197C230.4 167.197 231 169.597 231 174.897C231 183.397 229.7 187.697 225.5 193.897L222.1 198.897L227.9 204.797L233.8 210.797L236.2 208.197C250 193.097 252.2 167.397 241.1 150.097C230.8 133.997 212.9 125.797 193.5 128.097Z" fill="#2D58E0"/>
<path d="M191.2 162C186.4 165 184 169.5 184 176C184 186 190 192 200 192C210 192 216 186 216 176C216 166 210 160 200 160C196.3 160 193.4 160.6 191.2 162Z" fill="#2D58E0"/>
<path d="M189.5 209.9C184.6 212.2 178.2 218.6 179.6 219.9C181.7 222 191.8 224 200 224C208.2 224 218.3 222 220.4 219.9C221.8 218.6 215.4 212.2 210.5 209.9C207.9 208.7 204.2 208 200 208C195.8 208 192.1 208.7 189.5 209.9Z" fill="#2D58E0"/>
<path d="M144 288V304H160H176V288V272H160H144V288Z" fill="#FF7EB8"/>
<path d="M224 288V304H240H256V288V272H240H224V288Z" fill="#02FFB3"/>
<path d="M319.8 298.9C319.5 308.8 319.2 310.1 317.1 312.4C315.7 313.8 314.2 315 313.6 315C313 315 309.6 316.4 306.2 318C296.9 322.4 296 322.1 287.4 313.8L279.9 306.6L269.3 317.3L258.6 327.9L265.8 335.4C274.1 344 274.4 344.9 270 354.2C268.4 357.6 267 361 267 361.6C267 362.2 265.8 363.7 264.4 365.1C262.1 367.3 260.9 367.5 250.9 367.8L240 368.2V384V399.8L250.9 400.2C260.9 400.5 262.1 400.7 264.4 402.9C265.8 404.3 267 405.8 267 406.4C267 407 268.4 410.4 270 413.8C274.4 423.1 274.1 424 265.8 432.6L258.6 440.1L269.3 450.7L279.9 461.4L287.4 454.2C296 445.9 296.9 445.6 306.2 450C309.6 451.6 313 453 313.6 453C314.2 453 315.7 454.2 317.1 455.6C319.2 457.9 319.5 459.2 319.8 469.1L320.2 480H336.1H352V471.2C352 460.6 353.2 455.7 356.3 454.3C365.9 449.6 372.6 447 374.7 447C376.5 447 379.5 449.2 384.6 454.2L392.1 461.4L402.7 450.7L413.4 440.1L406.2 432.6C401.2 427.5 399 424.5 399 422.7C399 420.6 401.6 414 406.2 404.3C407.8 401.1 412 400 422.6 400H432V384.1V368.2L421.1 367.8C411.1 367.5 409.9 367.3 407.6 365.1C406.2 363.7 405 362.2 405 361.6C405 361 403.6 357.6 402 354.2C397.6 344.9 397.9 344 406.2 335.4L413.4 327.9L402.7 317.3L392.1 306.6L384.6 313.8C376 322.1 375.1 322.4 365.8 318C362.4 316.4 359 315 358.4 315C357.8 315 356.3 313.8 354.9 312.4C352.8 310.1 352.5 308.8 352.2 298.9L351.8 288H336H320.2L319.8 298.9ZM357.6 324.5C375.6 331.3 390.3 346.4 396.1 364.2C399.6 374.8 399.6 393.2 396.1 403.8C390.1 422.2 374.2 438.1 355.9 444.1C349.6 446.1 346.6 446.5 335.5 446.5C324.5 446.5 321.5 446.1 316 444.1C297.5 437.6 282.8 423 276.1 404.7C273.8 398.2 273.5 396.1 273.5 384C273.5 368.8 275.1 362.6 281.6 351.8C297.4 325.7 329.8 314.1 357.6 324.5Z" fill="#2D58E0"/>
<path d="M320.8 337.9C313.4 340.3 306.4 344.8 300.8 350.8C291.7 360.5 288 370.2 288 384C288 397.8 291.7 407.5 300.8 417.2C310.3 427.3 321.4 432 336 432C350.6 432 361.7 427.3 371.2 417.2C380.3 407.5 384 397.8 384 384C384 370.2 380.3 360.5 371.2 350.8C365.5 344.7 358.5 340.3 350.9 337.9C342.8 335.4 328.7 335.4 320.8 337.9ZM349.8 355.9C355.2 358.7 361.3 364.7 364.2 370.2C366.1 373.8 366.5 376 366.5 384C366.5 392.6 366.2 394 363.6 398.8C353.6 416.8 330.3 420.7 314.8 407.1C312.7 405.3 309.7 401.1 308 397.8C305.4 392.6 305 390.6 305 384.1C305 371.3 310.9 361.7 322.3 356C328.1 353 329.1 352.9 337 353.2C343.2 353.5 346.6 354.2 349.8 355.9Z" fill="#2D58E0"/>
<path d="M327.2 370C322.4 373 320 377.5 320 384C320 394 326 400 336 400C346 400 352 394 352 384C352 377.5 349.6 373 344.8 370C340.3 367.3 331.7 367.3 327.2 370Z" fill="#2D58E0"/>
<path d="M80 446C80 474.7 80.1 476.1 82 478C84 480 85.3 480 194 480H304V472.5C304 465.3 303.9 465 301.4 464.4C299.3 463.8 297.8 464.8 291.1 471.4C279.5 482.7 280.6 483 258.8 461.2C237 439.4 237.3 440.5 248.6 428.9C255.2 422.2 256.2 420.7 255.6 418.6L255 416H167.5H80V446ZM208.8 426.6C217.3 430.1 223 438.6 223 448C223 460.9 212.9 471 200 471C179.8 471 169.4 446.8 183.3 432.1C189.7 425.4 200.4 423.1 208.8 426.6Z" fill="#1B446D"/>
<path d="M194 442C192.7 443.3 192 445.3 192 448C192 453.3 194.7 456 200 456C205.3 456 208 453.3 208 448C208 442.7 205.3 440 200 440C197.3 440 195.3 440.7 194 442Z" fill="#1B446D"/>
</svg>
