<svg width="512" height="512" viewBox="0 0 512 512" fill="none" xmlns="http://www.w3.org/2000/svg">
<g clip-path="url(#clip0_1822_4461)">
<path d="M115.505 1.12265C101.105 5.72266 90.2054 17.0226 86.6054 31.2227C85.2054 36.5226 85.0054 61.4226 85.0054 255.723C85.0054 495.023 84.6054 480.323 90.7054 490.723C94.8054 497.623 102.305 504.523 109.805 508.023L116.505 511.223H256.005H395.505L402.205 508.023C409.705 504.523 417.205 497.623 421.305 490.723C427.405 480.323 427.005 495.023 427.005 255.723C427.005 16.4226 427.405 31.1227 421.305 20.7227C417.205 13.8227 409.705 6.92264 402.205 3.42264L395.505 0.222656L257.505 0.022644C148.005 -0.0773621 118.705 0.12265 115.505 1.12265ZM384.005 223.723V404.723H256.005H128.005V223.723V42.7227H256.005H384.005V223.723ZM293.105 450.023C298.605 453.723 299.405 460.123 295.105 464.923L292.205 468.223H256.005H219.805L216.905 464.923C211.405 458.723 214.105 451.423 223.005 448.323C223.805 448.023 239.405 447.923 257.505 448.023C287.205 448.223 290.805 448.423 293.105 450.023Z" fill="#7A8C98"/>
<path d="M238.205 66.2227C234.405 69.4227 233.305 74.5227 235.505 79.1227C238.105 84.5227 241.805 85.7227 256.005 85.7227C270.205 85.7227 273.905 84.5227 276.505 79.1227C278.705 74.5227 277.605 69.4227 273.805 66.2227C270.905 63.8227 270.405 63.7227 256.005 63.7227C241.605 63.7227 241.105 63.8227 238.205 66.2227Z" fill="#00BCA8"/>
<path d="M345.405 65.5221C335.705 73.3221 343.805 88.6221 355.605 84.7221C361.605 82.7221 364.805 75.0221 361.905 69.4221C359.905 65.5221 356.805 63.7221 352.005 63.7221C349.205 63.7221 346.705 64.4221 345.405 65.5221Z" fill="#00BCA8"/>
<path d="M153.405 129.523C149.105 132.923 149.005 134.223 149.005 170.223C149.005 208.723 149.105 209.623 155.505 212.323C160.505 214.423 223.505 214.423 228.505 212.323C234.905 209.623 235.005 208.723 235.005 170.223C235.005 134.223 234.905 132.923 230.605 129.523C228.705 127.923 225.105 127.723 192.005 127.723C158.905 127.723 155.305 127.923 153.405 129.523Z" fill="#00BCA8"/>
<path d="M281.405 129.523C277.105 132.923 277.005 134.223 277.005 170.223C277.005 208.723 277.105 209.623 283.505 212.323C288.505 214.423 351.505 214.423 356.505 212.323C362.905 209.623 363.005 208.723 363.005 170.223C363.005 134.223 362.905 132.923 358.605 129.523C356.705 127.923 353.105 127.723 320.005 127.723C286.905 127.723 283.305 127.923 281.405 129.523Z" fill="#00BCA8"/>
<path d="M153.405 257.523C149.105 260.923 149.005 262.223 149.005 298.223C149.005 336.723 149.105 337.623 155.505 340.323C160.505 342.423 223.505 342.423 228.505 340.323C234.905 337.623 235.005 336.723 235.005 298.223C235.005 262.223 234.905 260.923 230.605 257.523C228.705 255.923 225.105 255.723 192.005 255.723C158.905 255.723 155.305 255.923 153.405 257.523Z" fill="#00BCA8"/>
<path d="M281.405 257.523C277.105 260.923 277.005 262.223 277.005 298.223C277.005 336.723 277.105 337.623 283.505 340.323C288.505 342.423 351.505 342.423 356.505 340.323C362.905 337.623 363.005 336.723 363.005 298.223C363.005 262.223 362.905 260.923 358.605 257.523C356.705 255.923 353.105 255.723 320.005 255.723C286.905 255.723 283.305 255.923 281.405 257.523Z" fill="#00BCA8"/>
</g>
<defs>
<clipPath id="clip0_1822_4461">
<rect width="512" height="512" fill="white"/>
</clipPath>
</defs>
</svg>
