<svg width="512" height="512" viewBox="0 0 512 512" fill="none" xmlns="http://www.w3.org/2000/svg">
<path d="M18.5 10C12.1 12.5 5.5 18.8 2.4 25.4L0 30.5V174.7V319H256H512V174.7V30.5L509.6 25.4C506.5 18.7 499.9 12.5 493.3 10C488 8 485.3 8 255.7 8.10001C28.4 8.10001 23.4 8.10001 18.5 10ZM80.9 70.5C86 73.1 89 77.6 89 82.6C89 91.4 83.3 97.4 75 97.4C66.7 97.4 61 91.4 61 82.7C61 72.9 72.3 66 80.9 70.5ZM203.9 70.5C209 73.1 212 77.6 212 82.6C212 88.2 210 92.1 205.8 95.2L202.5 97.5H166.5H130.5L127.2 95.2C118.3 88.8 118.8 76.7 128.4 70.9C131.3 69.1 134 69 166.3 69C194.9 69 201.6 69.3 203.9 70.5ZM80.9 130.5C86 133.1 89 137.6 89 142.6C89 151.4 83.3 157.4 75 157.4C66.7 157.4 61 151.4 61 142.7C61 132.9 72.3 126 80.9 130.5ZM351.1 133.7C354.5 137.3 355 138.6 355 142.5C355 148.2 353 152.1 348.8 155.2L345.5 157.5H258H170.5L167.2 155.2C158.3 148.8 158.8 136.8 168.4 130.9C171.4 129.1 174.7 129 259.3 129.2L347.1 129.5L351.1 133.7ZM442.9 130.5C448 133.1 451 137.6 451 142.6C451 148.2 449 152.1 444.8 155.2C441.6 157.4 441 157.5 419 157.5C397 157.5 396.4 157.4 393.2 155.2C384.3 148.8 384.8 136.7 394.4 130.9C397.2 129.2 399.7 129 418.8 129C435.6 129 440.7 129.3 442.9 130.5ZM80.9 190.5C86 193.1 89 197.6 89 202.6C89 211.4 83.3 217.4 75 217.4C66.7 217.4 61 211.4 61 202.7C61 192.9 72.3 186 80.9 190.5ZM250.9 190.5C256 193.1 259 197.6 259 202.6C259 208.2 257 212.1 252.8 215.2L249.5 217.5H210H170.5L167.2 215.2C158.3 208.8 158.8 196.7 168.4 190.9C171.3 189.1 174.1 189 209.8 189C241.5 189 248.6 189.3 250.9 190.5ZM356.1 191.3C360.1 193.9 363 199.2 363 203.6C363 207.2 359.8 212.4 355.7 215.4C353 217.4 351.4 217.5 324.7 217.8C306.6 218 295.2 217.7 292.8 217.1C288.2 215.7 283.3 210.2 282.4 205.3C281.9 202.4 282.2 200.6 284.1 197C288.3 189.2 289 189 323.1 189C352.2 189 352.8 189 356.1 191.3ZM442.9 190.5C448 193.1 451 197.6 451 202.6C451 208.2 449 212.1 444.8 215.2C441.6 217.4 441 217.5 419 217.5C397 217.5 396.4 217.4 393.2 215.2C384.3 208.8 384.8 196.7 394.4 190.9C397.2 189.2 399.7 189 418.8 189C435.6 189 440.7 189.3 442.9 190.5ZM80.9 250.5C86 253.1 89 257.6 89 262.6C89 271.4 83.3 277.4 75 277.4C66.7 277.4 61 271.4 61 262.7C61 252.9 72.3 246 80.9 250.5ZM203.9 250.5C209 253.1 212 257.6 212 262.6C212 268.2 210 272.1 205.8 275.2L202.5 277.5H166.5H130.5L127.2 275.2C118.3 268.8 118.8 256.7 128.4 250.9C131.3 249.1 134 249 166.3 249C194.9 249 201.6 249.3 203.9 250.5Z" fill="#3A8CFF"/>
<path d="M0 366.3C0 387.4 0.9 391.3 7.1 398.4C9.3 400.9 13.6 404.1 16.8 405.7L22.5 408.5H256H489.5L495.2 405.7C498.4 404.1 502.7 400.9 504.9 398.4C511.1 391.3 512 387.4 512 366.3V348H256H0V366.3Z" fill="#162C47"/>
<path d="M166 455.497V472.997H146.3C128.9 472.997 126 473.297 122.3 474.997C111.6 479.797 110.9 495.697 121.2 501.997C124.4 503.997 126.5 503.997 255.8 503.997C398.3 503.997 389.6 504.297 395 498.597C398.4 494.797 399 484.997 396 480.197C392.2 473.997 388.1 472.997 365.8 472.997H346V455.497V437.997H256H166V455.497Z" fill="#162C47"/>
</svg>
