<svg width="512" height="512" viewBox="0 0 512 512" fill="none" xmlns="http://www.w3.org/2000/svg">
<path d="M361.5 109.5V333.5C361.5 337.213 360.025 340.774 357.4 343.4C354.774 346.025 351.213 347.5 347.5 347.5H74.5001C70.7871 347.5 67.2261 346.025 64.6006 343.4C61.9751 340.774 60.5001 337.213 60.5001 333.5V109.5L361.5 109.5Z" fill="#C2C2C2"/>
<path d="M347.5 351H74.5C69.8587 351 65.4075 349.156 62.1256 345.875C58.8437 342.593 57 338.141 57 333.5V109.5C57 108.572 57.3687 107.682 58.0251 107.025C58.6815 106.369 59.5717 106 60.5 106H361.5C362.428 106 363.319 106.369 363.975 107.025C364.631 107.682 365 108.572 365 109.5V333.5C365 338.141 363.156 342.593 359.875 345.875C356.593 349.156 352.141 351 347.5 351ZM64 113V333.5C64 336.285 65.1063 338.956 67.0754 340.925C69.0445 342.894 71.7152 344 74.5 344H347.5C350.285 344 352.956 342.894 354.925 340.925C356.894 338.956 358 336.285 358 333.5V113H64Z" fill="#212A41"/>
<path d="M382.501 109.5V333.5C382.501 337.213 381.026 340.774 378.4 343.4C375.775 346.025 372.214 347.5 368.501 347.5H95.5007C91.7877 347.5 88.2267 346.025 85.6012 343.4C82.9757 340.774 81.5007 337.213 81.5007 333.5V109.5L382.501 109.5Z" fill="#FF6726"/>
<path d="M368.5 351H95.5C90.8587 351 86.4075 349.156 83.1256 345.875C79.8437 342.593 77.9999 338.141 77.9999 333.5V109.5C77.9999 108.572 78.3687 107.682 79.0251 107.025C79.6814 106.369 80.5717 106 81.4999 106H382.5C383.428 106 384.319 106.369 384.975 107.025C385.631 107.682 386 108.572 386 109.5V333.5C386 338.141 384.156 342.593 380.875 345.875C377.593 349.156 373.141 351 368.5 351ZM84.9999 113V333.5C84.9999 336.285 86.1062 338.956 88.0753 340.925C90.0445 342.894 92.7152 344 95.5 344H368.5C371.285 344 373.956 342.894 375.925 340.925C377.894 338.956 379 336.285 379 333.5V113H84.9999Z" fill="#212A41"/>
<path d="M368.5 337C367.572 337 366.682 336.631 366.025 335.975C365.369 335.319 365 334.428 365 333.5V123.5C365 122.572 365.369 121.682 366.025 121.025C366.682 120.369 367.572 120 368.5 120C369.428 120 370.319 120.369 370.975 121.025C371.631 121.682 372 122.572 372 123.5V333.5C372 334.428 371.631 335.319 370.975 335.975C370.319 336.631 369.428 337 368.5 337Z" fill="#C2C2C2"/>
<path d="M330.001 277.5H246L253 193.5H323.001L330.001 277.5Z" fill="#0079A8"/>
<path d="M329.998 281H245.998C245.512 281.002 245.032 280.902 244.587 280.708C244.142 280.515 243.742 280.23 243.413 279.873C243.084 279.516 242.832 279.095 242.675 278.636C242.517 278.177 242.457 277.69 242.498 277.206L249.498 193.206C249.571 192.33 249.973 191.513 250.621 190.919C251.27 190.325 252.118 189.997 252.998 190H322.998C323.877 189.997 324.726 190.325 325.374 190.919C326.023 191.513 326.424 192.33 326.498 193.206L333.498 277.206C333.538 277.69 333.478 278.177 333.321 278.636C333.163 279.095 332.912 279.516 332.583 279.873C332.253 280.23 331.854 280.515 331.409 280.708C330.964 280.902 330.483 281.002 329.998 281ZM249.799 274H326.197L319.778 197H256.218L249.799 274Z" fill="#212A41"/>
<path d="M302.001 197C301.072 197 300.182 196.631 299.526 195.975C298.869 195.319 298.501 194.428 298.501 193.5V179.5C298.501 178.572 298.132 177.682 297.476 177.025C296.819 176.369 295.929 176 295.001 176H281.001C280.072 176 279.182 176.369 278.526 177.025C277.869 177.682 277.501 178.572 277.501 179.5V193.5C277.501 194.428 277.132 195.319 276.475 195.975C275.819 196.631 274.929 197 274.001 197C273.072 197 272.182 196.631 271.526 195.975C270.869 195.319 270.501 194.428 270.501 193.5V179.5C270.501 176.715 271.607 174.045 273.576 172.075C275.545 170.106 278.216 169 281.001 169H295.001C297.785 169 300.456 170.106 302.425 172.075C304.394 174.045 305.501 176.715 305.501 179.5V193.5C305.501 194.428 305.132 195.319 304.476 195.975C303.819 196.631 302.929 197 302.001 197Z" fill="#212A41"/>
<path d="M74.4997 67.5H347.5C351.213 67.5 354.774 68.975 357.399 71.6005C360.025 74.226 361.5 77.787 361.5 81.5V109.5H60.4997V81.5C60.4997 77.787 61.9747 74.226 64.6002 71.6005C67.2257 68.975 70.7867 67.5 74.4997 67.5Z" fill="#C2C2C2"/>
<path d="M361.5 113H60.5C59.5717 113 58.6815 112.631 58.0251 111.975C57.3687 111.319 57 110.428 57 109.5V81.5C57 76.8587 58.8437 72.4075 62.1256 69.1256C65.4075 65.8437 69.8587 64 74.5 64H347.5C352.141 64 356.593 65.8437 359.875 69.1256C363.156 72.4075 365 76.8587 365 81.5V109.5C365 110.428 364.631 111.319 363.975 111.975C363.319 112.631 362.428 113 361.5 113ZM64 106H358V81.5C358 78.7152 356.894 76.0445 354.925 74.0754C352.956 72.1062 350.285 71 347.5 71H74.5C71.7152 71 69.0445 72.1062 67.0754 74.0754C65.1063 76.0445 64 78.7152 64 81.5V106Z" fill="#212A41"/>
<path d="M95.4999 337C94.5716 337 93.6814 336.631 93.025 335.975C92.3686 335.319 91.9999 334.428 91.9999 333.5V123.5C91.9999 122.572 92.3686 121.682 93.025 121.025C93.6814 120.369 94.5716 120 95.4999 120C96.4281 120 97.3184 120.369 97.9748 121.025C98.6311 121.682 98.9999 122.572 98.9999 123.5V333.5C98.9999 334.428 98.6311 335.319 97.9748 335.975C97.3184 336.631 96.4281 337 95.4999 337Z" fill="#FEFEFE"/>
<path d="M95.5002 67.5H368.5C372.213 67.5 375.774 68.975 378.4 71.6005C381.025 74.226 382.5 77.787 382.5 81.5V109.5H81.5002V81.5C81.5002 77.787 82.9752 74.226 85.6007 71.6005C88.2262 68.975 91.7872 67.5 95.5002 67.5Z" fill="#E0E0E0"/>
<path d="M382.5 113H81.4999C80.5717 113 79.6814 112.631 79.0251 111.975C78.3687 111.319 77.9999 110.428 77.9999 109.5V81.5C77.9999 76.8587 79.8437 72.4075 83.1256 69.1256C86.4075 65.8437 90.8587 64 95.5 64H368.5C373.141 64 377.593 65.8437 380.875 69.1256C384.156 72.4075 386 76.8587 386 81.5V109.5C386 110.428 385.631 111.319 384.975 111.975C384.319 112.631 383.428 113 382.5 113ZM84.9999 106H379V81.5C379 78.7152 377.894 76.0445 375.925 74.0754C373.956 72.1062 371.285 71 368.5 71H95.5C92.7152 71 90.0445 72.1062 88.0753 74.0754C86.1062 76.0445 84.9999 78.7152 84.9999 81.5V106Z" fill="#212A41"/>
<path d="M326.5 92H312.5C311.572 92 310.682 91.6313 310.025 90.9749C309.369 90.3185 309 89.4283 309 88.5C309 87.5717 309.369 86.6815 310.025 86.0251C310.682 85.3687 311.572 85 312.5 85H326.5C327.429 85 328.319 85.3687 328.975 86.0251C329.632 86.6815 330 87.5717 330 88.5C330 89.4283 329.632 90.3185 328.975 90.9749C328.319 91.6313 327.429 92 326.5 92Z" fill="#212A41"/>
<path d="M361.5 99.0005C361.04 99.0013 360.584 98.9115 360.159 98.7361C359.734 98.5608 359.347 98.3033 359.022 97.9785L345.022 83.9785C344.365 83.3213 343.995 82.4299 343.995 81.5005C343.995 80.5711 344.365 79.6797 345.022 79.0225C345.679 78.3653 346.57 77.9961 347.5 77.9961C348.429 77.9961 349.321 78.3653 349.978 79.0225L363.978 93.0225C364.469 93.512 364.803 94.1362 364.938 94.816C365.074 95.4957 365.005 96.2005 364.739 96.8408C364.474 97.4811 364.024 98.0282 363.448 98.4127C362.871 98.7972 362.193 99.0018 361.5 99.0005Z" fill="#212A41"/>
<path d="M347.502 99.0005C346.808 99.0018 346.131 98.7972 345.554 98.4127C344.977 98.0282 344.528 97.4811 344.262 96.8408C343.997 96.2005 343.927 95.4957 344.063 94.816C344.199 94.1362 344.533 93.512 345.024 93.0225L359.024 79.0225C359.681 78.3653 360.572 77.9961 361.502 77.9961C362.431 77.9961 363.322 78.3653 363.98 79.0225C364.637 79.6797 365.006 80.5711 365.006 81.5005C365.006 82.4299 364.637 83.3213 363.98 83.9785L349.98 97.9785C349.654 98.3033 349.268 98.5608 348.842 98.7361C348.417 98.9115 347.962 99.0013 347.502 99.0005Z" fill="#212A41"/>
<path d="M424.5 249.5H326.5C322.634 249.5 319.5 252.634 319.5 256.5V438.5C319.5 442.366 322.634 445.5 326.5 445.5H424.5C428.366 445.5 431.5 442.366 431.5 438.5V256.5C431.5 252.634 428.366 249.5 424.5 249.5Z" fill="#4E4B51"/>
<path d="M424.5 449H326.5C323.715 449 321.045 447.894 319.076 445.925C317.106 443.956 316 441.285 316 438.5V256.5C316 253.715 317.106 251.045 319.076 249.075C321.045 247.106 323.715 246 326.5 246H424.5C427.285 246 429.956 247.106 431.925 249.075C433.894 251.045 435 253.715 435 256.5V438.5C435 441.285 433.894 443.956 431.925 445.925C429.956 447.894 427.285 449 424.5 449ZM326.5 253C325.572 253 324.682 253.369 324.025 254.025C323.369 254.682 323 255.572 323 256.5V438.5C323 439.428 323.369 440.319 324.025 440.975C324.682 441.631 325.572 442 326.5 442H424.5C425.429 442 426.319 441.631 426.975 440.975C427.632 440.319 428 439.428 428 438.5V256.5C428 255.572 427.632 254.682 426.975 254.025C426.319 253.369 425.429 253 424.5 253H326.5Z" fill="#212A41"/>
<path d="M445.5 249.5H347.5C343.634 249.5 340.5 252.634 340.5 256.5V438.5C340.5 442.366 343.634 445.5 347.5 445.5H445.5C449.366 445.5 452.5 442.366 452.5 438.5V256.5C452.5 252.634 449.366 249.5 445.5 249.5Z" fill="#FF6726"/>
<path d="M445.5 449H347.5C344.715 449 342.045 447.894 340.075 445.925C338.106 443.956 337 441.285 337 438.5V256.5C337 253.715 338.106 251.045 340.075 249.075C342.045 247.106 344.715 246 347.5 246H445.5C448.285 246 450.956 247.106 452.925 249.075C454.894 251.045 456 253.715 456 256.5V438.5C456 441.285 454.894 443.956 452.925 445.925C450.956 447.894 448.285 449 445.5 449ZM347.5 253C346.572 253 345.682 253.369 345.025 254.025C344.369 254.682 344 255.572 344 256.5V438.5C344 439.428 344.369 440.319 345.025 440.975C345.682 441.631 346.572 442 347.5 442H445.5C446.428 442 447.319 441.631 447.975 440.975C448.631 440.319 449 439.428 449 438.5V256.5C449 255.572 448.631 254.682 447.975 254.025C447.319 253.369 446.428 253 445.5 253H347.5Z" fill="#212A41"/>
<path d="M396.5 382.5C415.83 382.5 431.5 366.83 431.5 347.5C431.5 328.17 415.83 312.5 396.5 312.5C377.17 312.5 361.5 328.17 361.5 347.5C361.5 366.83 377.17 382.5 396.5 382.5Z" fill="#BED38E"/>
<path d="M396.501 386C388.886 386 381.442 383.742 375.111 379.512C368.78 375.281 363.845 369.268 360.931 362.233C358.017 355.198 357.255 347.457 358.74 339.989C360.226 332.521 363.893 325.661 369.277 320.276C374.661 314.892 381.521 311.225 388.99 309.74C396.458 308.254 404.199 309.017 411.234 311.931C418.269 314.845 424.282 319.779 428.512 326.111C432.743 332.442 435.001 339.885 435.001 347.5C434.99 357.707 430.93 367.494 423.712 374.711C416.494 381.929 406.708 385.989 396.501 386ZM396.501 316C390.271 316 384.18 317.847 379 321.309C373.82 324.77 369.783 329.69 367.398 335.445C365.014 341.201 364.39 347.535 365.606 353.645C366.821 359.756 369.821 365.369 374.227 369.774C378.632 374.179 384.245 377.179 390.355 378.395C396.466 379.61 402.799 378.986 408.555 376.602C414.311 374.218 419.231 370.181 422.692 365C426.153 359.82 428.001 353.73 428.001 347.5C427.991 339.149 424.67 331.142 418.764 325.236C412.859 319.331 404.852 316.009 396.501 316Z" fill="#212A41"/>
<path d="M452.5 270.5H340.5V256.5C340.5 254.643 341.238 252.863 342.551 251.55C343.863 250.237 345.644 249.5 347.5 249.5H445.5C447.357 249.5 449.137 250.237 450.45 251.55C451.763 252.863 452.5 254.643 452.5 256.5V270.5Z" fill="#6C696F"/>
<path d="M452.5 274H340.5C339.572 274 338.682 273.631 338.025 272.975C337.369 272.319 337 271.428 337 270.5V256.5C337 253.715 338.106 251.045 340.075 249.075C342.045 247.106 344.715 246 347.5 246H445.5C448.285 246 450.956 247.106 452.925 249.075C454.894 251.045 456 253.715 456 256.5V270.5C456 271.428 455.631 272.319 454.975 272.975C454.319 273.631 453.428 274 452.5 274ZM344 267H449V256.5C449 255.572 448.631 254.682 447.975 254.025C447.319 253.369 446.428 253 445.5 253H347.5C346.572 253 345.682 253.369 345.025 254.025C344.369 254.682 344 255.572 344 256.5V267Z" fill="#212A41"/>
<path d="M340.5 424.5H452.5V438.5C452.5 440.357 451.763 442.137 450.45 443.45C449.137 444.763 447.357 445.5 445.5 445.5H347.5C345.644 445.5 343.863 444.763 342.551 443.45C341.238 442.137 340.5 440.357 340.5 438.5V424.5Z" fill="#6C696F"/>
<path d="M445.5 449H347.5C344.715 449 342.045 447.894 340.075 445.925C338.106 443.956 337 441.285 337 438.5V424.5C337 423.572 337.369 422.682 338.025 422.025C338.682 421.369 339.572 421 340.5 421H452.5C453.428 421 454.319 421.369 454.975 422.025C455.631 422.682 456 423.572 456 424.5V438.5C456 441.285 454.894 443.956 452.925 445.925C450.956 447.894 448.285 449 445.5 449ZM344 428V438.5C344 439.428 344.369 440.319 345.025 440.975C345.682 441.631 346.572 442 347.5 442H445.5C446.428 442 447.319 441.631 447.975 440.975C448.631 440.319 449 439.428 449 438.5V428H344Z" fill="#212A41"/>
<path d="M396.5 358.001C396.04 358.001 395.584 357.912 395.159 357.736C394.734 357.561 394.347 357.303 394.022 356.979L380.022 342.979C379.364 342.321 378.995 341.43 378.995 340.501C378.995 339.571 379.364 338.68 380.022 338.023C380.679 337.365 381.57 336.996 382.5 336.996C383.429 336.996 384.32 337.365 384.978 338.023L396.5 349.552L422.022 324.023C422.679 323.365 423.57 322.996 424.5 322.996C425.429 322.996 426.32 323.365 426.978 324.023C427.635 324.68 428.004 325.571 428.004 326.501C428.004 327.43 427.635 328.321 426.978 328.979L398.978 356.979C398.652 357.303 398.265 357.561 397.84 357.736C397.415 357.912 396.96 358.001 396.5 358.001Z" fill="#212A41"/>
<path d="M274 277.5H190L197 193.5H267L274 277.5Z" fill="#D32E5E"/>
<path d="M273.999 281H189.998C189.513 281.002 189.033 280.902 188.588 280.708C188.142 280.515 187.743 280.23 187.414 279.873C187.084 279.516 186.833 279.095 186.676 278.636C186.518 278.177 186.458 277.69 186.498 277.206L193.498 193.206C193.572 192.33 193.973 191.513 194.622 190.919C195.271 190.325 196.119 189.997 196.998 190H266.999C267.878 189.997 268.726 190.325 269.375 190.919C270.024 191.513 270.425 192.33 270.499 193.206L277.499 277.206C277.539 277.69 277.479 278.177 277.321 278.636C277.164 279.095 276.913 279.516 276.583 279.873C276.254 280.23 275.854 280.515 275.409 280.708C274.964 280.902 274.484 281.002 273.999 281ZM193.799 274H270.198L263.779 197H200.218L193.799 274Z" fill="#212A41"/>
<path d="M246 197C245.071 197 244.181 196.631 243.525 195.975C242.868 195.319 242.5 194.428 242.5 193.5V179.5C242.5 178.572 242.131 177.682 241.475 177.025C240.818 176.369 239.928 176 239 176H225C224.071 176 223.181 176.369 222.525 177.025C221.868 177.682 221.5 178.572 221.5 179.5V193.5C221.5 194.428 221.131 195.319 220.475 195.975C219.818 196.631 218.928 197 218 197C217.071 197 216.181 196.631 215.525 195.975C214.868 195.319 214.5 194.428 214.5 193.5V179.5C214.5 176.715 215.606 174.045 217.575 172.075C219.544 170.106 222.215 169 225 169H239C241.784 169 244.455 170.106 246.424 172.075C248.393 174.045 249.5 176.715 249.5 179.5V193.5C249.5 194.428 249.131 195.319 248.475 195.975C247.818 196.631 246.928 197 246 197Z" fill="#212A41"/>
<path d="M218 277.5H134L141 193.5H211L218 277.5Z" fill="#F9AC2F"/>
<path d="M217.998 281H133.997C133.512 281.002 133.032 280.902 132.587 280.708C132.142 280.515 131.742 280.23 131.413 279.873C131.083 279.516 130.832 279.095 130.675 278.636C130.517 278.177 130.457 277.69 130.497 277.206L137.497 193.206C137.571 192.33 137.972 191.513 138.621 190.919C139.27 190.325 140.118 189.997 140.997 190H210.998C211.877 189.997 212.725 190.325 213.374 190.919C214.023 191.513 214.424 192.33 214.498 193.206L221.498 277.206C221.538 277.69 221.478 278.177 221.32 278.636C221.163 279.095 220.912 279.516 220.582 279.873C220.253 280.23 219.853 280.515 219.408 280.708C218.963 280.902 218.483 281.002 217.998 281ZM137.798 274H214.197L207.778 197H144.217L137.798 274Z" fill="#212A41"/>
<path d="M190.001 197C189.072 197 188.182 196.631 187.526 195.975C186.869 195.319 186.501 194.428 186.501 193.5V179.5C186.501 178.572 186.132 177.682 185.475 177.025C184.819 176.369 183.929 176 183.001 176H169C168.072 176 167.182 176.369 166.526 177.025C165.869 177.682 165.5 178.572 165.5 179.5V193.5C165.5 194.428 165.132 195.319 164.475 195.975C163.819 196.631 162.929 197 162 197C161.072 197 160.182 196.631 159.526 195.975C158.869 195.319 158.5 194.428 158.5 193.5V179.5C158.5 176.715 159.607 174.045 161.576 172.075C163.545 170.106 166.216 169 169 169H183.001C185.785 169 188.456 170.106 190.425 172.075C192.394 174.045 193.501 176.715 193.501 179.5V193.5C193.501 194.428 193.132 195.319 192.475 195.975C191.819 196.631 190.929 197 190.001 197Z" fill="#212A41"/>
<path d="M167.828 475.989H162.154C155.888 475.989 150.808 470.909 150.808 464.643C150.808 458.377 155.888 453.297 162.154 453.297H167.828C174.094 453.297 179.174 458.377 179.174 464.643C179.174 470.909 174.094 475.989 167.828 475.989Z" fill="#CD3232"/>
<path d="M173.501 453.3H77.0582C75.4917 453.3 74.2217 452.03 74.2217 450.463C74.2217 434.822 86.9465 422.098 102.587 422.098H122.443C124.01 422.098 125.28 423.368 125.28 424.934C125.28 426.501 124.01 427.771 122.443 427.771H102.587C91.0354 427.771 81.4716 436.448 80.0714 447.627H173.501C175.068 447.627 176.338 448.897 176.338 450.463C176.338 452.03 175.068 453.3 173.501 453.3Z" fill="#32283C"/>
<path d="M173.501 453.3H43.0195C41.453 453.3 40.1829 452.03 40.1829 450.463C40.1829 434.822 52.9077 422.098 68.5485 422.098H88.4044C89.9709 422.098 91.2409 423.368 91.2409 424.934C91.2409 426.501 89.9709 427.771 88.4044 427.771H68.5485C56.9966 427.771 47.4328 436.448 46.0326 447.627H173.501C175.068 447.627 176.338 448.897 176.338 450.463C176.338 452.03 175.068 453.3 173.501 453.3Z" fill="#463C4B"/>
<path d="M87.0065 347.449L91.0876 359.692H97.0674L92.3885 345.654C91.228 342.174 87.9837 339.836 84.3153 339.836H71.3849V345.509H84.3153C85.5382 345.509 86.6197 346.288 87.0065 347.449Z" fill="#32283C"/>
<path d="M79.8944 348.346H71.3847C68.2514 348.346 65.7116 345.806 65.7116 342.673C65.7116 339.54 68.2514 337 71.3847 337H79.8944C83.0277 337 85.5675 339.54 85.5675 342.673C85.5675 345.806 83.0277 348.346 79.8944 348.346Z" fill="#32283C"/>
<path d="M57.3886 359.791L52.6767 345.654C51.5162 342.174 48.2719 339.836 44.6035 339.836H31.6731V345.509H44.6035C45.8264 345.509 46.9079 346.288 47.2947 347.449L52.8919 364.241C53.3397 362.044 55.0789 360.225 57.3886 359.791Z" fill="#463C4B"/>
<path d="M85.2211 367.159L102.839 420.011C104.383 424.644 108.719 427.769 113.603 427.769H165.324C170.208 427.769 174.543 424.644 176.088 420.011L193.705 367.159C194.93 363.485 192.196 359.691 188.323 359.691H90.6031C86.7308 359.692 83.9967 363.485 85.2211 367.159Z" fill="#CD3232"/>
<path d="M53.0732 367.159L70.6907 420.011C72.2352 424.644 76.5709 427.769 81.4548 427.769H133.176C138.06 427.769 142.396 424.644 143.94 420.011L161.558 367.159C162.782 363.485 160.048 359.691 156.176 359.691H58.4553C54.583 359.692 51.8489 363.485 53.0732 367.159Z" fill="#FF4646"/>
<path d="M132.843 388.058H127.17C125.603 388.058 124.333 386.788 124.333 385.222V373.876C124.333 372.309 125.603 371.039 127.17 371.039H132.843C134.41 371.039 135.68 372.309 135.68 373.876V385.222C135.68 386.788 134.41 388.058 132.843 388.058Z" fill="#E6E6EB"/>
<path d="M110.151 388.058H104.477C102.911 388.058 101.641 386.788 101.641 385.222V373.876C101.641 372.309 102.911 371.039 104.477 371.039H110.151C111.717 371.039 112.987 372.309 112.987 373.876V385.222C112.987 386.788 111.717 388.058 110.151 388.058Z" fill="#E6E6EB"/>
<path d="M87.4581 388.058H81.785C80.2185 388.058 78.9484 386.788 78.9484 385.222V373.876C78.9484 372.309 80.2185 371.039 81.785 371.039H87.4581C89.0246 371.039 90.2946 372.309 90.2946 373.876V385.222C90.2946 386.788 89.0246 388.058 87.4581 388.058Z" fill="#E6E6EB"/>
<path d="M132.843 416.422H127.17C125.604 416.422 124.333 415.152 124.333 413.585V402.239C124.333 400.672 125.604 399.402 127.17 399.402H132.843C134.41 399.402 135.68 400.672 135.68 402.239V413.585C135.68 415.152 134.41 416.422 132.843 416.422Z" fill="#E6E6EB"/>
<path d="M110.151 416.422H104.477C102.911 416.422 101.641 415.152 101.641 413.585V402.239C101.641 400.672 102.911 399.402 104.477 399.402H110.151C111.717 399.402 112.987 400.672 112.987 402.239V413.585C112.987 415.152 111.717 416.422 110.151 416.422Z" fill="#E6E6EB"/>
<path d="M87.4581 416.422H81.785C80.2185 416.422 78.9484 415.152 78.9484 413.585V402.239C78.9484 400.672 80.2185 399.402 81.785 399.402H87.4581C89.0246 399.402 90.2946 400.672 90.2946 402.239V413.585C90.2946 415.152 89.0246 416.422 87.4581 416.422Z" fill="#E6E6EB"/>
<path d="M40.1828 348.346H31.6731C28.5398 348.346 26 345.806 26 342.673C26 339.54 28.5398 337 31.6731 337H40.1828C43.3161 337 45.8559 339.54 45.8559 342.673C45.8559 345.806 43.3161 348.346 40.1828 348.346Z" fill="#FF4646"/>
<path d="M162.154 475.989C168.421 475.989 173.501 470.909 173.501 464.643C173.501 458.377 168.421 453.297 162.154 453.297C155.888 453.297 150.808 458.377 150.808 464.643C150.808 470.909 155.888 475.989 162.154 475.989Z" fill="#FF4646"/>
<path d="M162.155 470.319C165.288 470.319 167.828 467.779 167.828 464.646C167.828 461.513 165.288 458.973 162.155 458.973C159.022 458.973 156.482 461.513 156.482 464.646C156.482 467.779 159.022 470.319 162.155 470.319Z" fill="#E6E6EB"/>
<path d="M57.2023 475.989H51.5291C45.2628 475.989 40.1829 470.909 40.1829 464.643C40.1829 458.377 45.2628 453.297 51.5291 453.297H57.2023C63.4686 453.297 68.5485 458.377 68.5485 464.643C68.5485 470.909 63.4686 475.989 57.2023 475.989Z" fill="#CD3232"/>
<path d="M51.5291 475.989C57.7955 475.989 62.8754 470.909 62.8754 464.643C62.8754 458.377 57.7955 453.297 51.5291 453.297C45.2628 453.297 40.1829 458.377 40.1829 464.643C40.1829 470.909 45.2628 475.989 51.5291 475.989Z" fill="#FF4646"/>
<path d="M51.5289 470.319C54.6621 470.319 57.2021 467.779 57.2021 464.646C57.2021 461.513 54.6621 458.973 51.5289 458.973C48.3958 458.973 45.8558 461.513 45.8558 464.646C45.8558 467.779 48.3958 470.319 51.5289 470.319Z" fill="#E6E6EB"/>
<path d="M467.739 167.847L418.565 143.739C417.033 142.988 415.207 142.996 413.679 143.76L401.168 150.022C399.284 148.458 397.138 147.066 394.756 145.898C385.471 141.347 376.266 141.733 373.79 146.776C371.318 151.819 376.654 159.335 385.939 163.887C386.043 163.937 386.145 163.981 386.248 164.03L380.123 181.984C379.573 183.594 379.81 185.4 380.755 186.816L411.16 232.377C412.844 234.901 416.269 235.584 418.793 233.899L451.07 212.359C451.11 212.333 451.144 212.303 451.183 212.276C451.221 212.252 451.262 212.233 451.299 212.208C452.097 211.676 452.743 210.94 453.177 210.055L470.258 175.212C470.905 173.892 471 172.399 470.523 171.008C470.049 169.616 469.06 168.494 467.739 167.847ZM386.679 162.374C378.525 158.376 373.314 151.572 375.303 147.517C377.291 143.465 385.859 143.413 394.015 147.41C396.036 148.402 397.871 149.561 399.513 150.85L391.803 154.709C391.021 155.1 390.371 155.669 389.869 156.342C389.024 156.988 388.351 157.865 387.991 158.921L386.795 162.426C386.756 162.409 386.717 162.393 386.679 162.374Z" fill="#E6E7E8"/>
<path d="M413.232 156.641L388.816 155.114C386.718 154.983 384.792 156.272 384.113 158.262L376.247 181.322C375.778 182.695 375.976 184.208 376.781 185.415L407.186 230.975C408.615 233.116 411.51 233.694 413.651 232.265L445.929 210.724C448.071 209.295 448.648 206.4 447.219 204.259L416.819 158.705C416.011 157.496 414.684 156.731 413.232 156.641Z" fill="#6DC9F7"/>
<path d="M409.289 229.573L376.546 180.51C376.541 180.503 376.537 180.494 376.533 180.487L376.247 181.323C375.779 182.696 375.977 184.209 376.782 185.416L407.187 230.976C408.616 233.117 411.511 233.695 413.652 232.266L415.754 230.863C413.613 232.292 410.718 231.715 409.289 229.573Z" fill="white"/>
<path d="M409.382 143.58L387.506 154.529C385.626 155.47 384.608 157.552 385.021 159.614L389.809 183.504C390.094 184.927 391.025 186.135 392.328 186.774L441.51 210.885C443.822 212.018 446.614 211.062 447.747 208.751L464.828 173.907C465.961 171.595 465.006 168.803 462.694 167.67L413.52 143.563C412.213 142.922 410.683 142.928 409.382 143.58ZM404.384 164.607C403.452 168.454 398.946 169.996 395.854 167.524C394.296 166.279 393.577 164.178 394.046 162.239C394.979 158.393 399.482 156.852 402.574 159.322C404.134 160.566 404.853 162.668 404.384 164.607Z" fill="#FA759E"/>
<path d="M417.129 189.696C418.052 189.867 418.903 189.851 419.68 189.647C420.457 189.442 421.144 189.075 421.743 188.543C422.341 188.012 422.858 187.303 423.293 186.417C424.195 184.576 424.294 182.958 423.59 181.562C422.885 180.166 421.426 178.925 419.209 177.839C417.823 177.159 416.545 176.818 415.376 176.816C414.206 176.814 413.196 177.107 412.343 177.698C411.49 178.287 410.81 179.1 410.303 180.134C409.49 181.793 409.377 183.36 409.967 184.832C410.555 186.304 411.935 187.573 414.106 188.638C415.196 189.172 416.205 189.525 417.129 189.696ZM412.68 183.414C412.109 182.753 412.027 182.007 412.434 181.178C412.835 180.36 413.467 179.961 414.331 179.983C415.194 180.004 416.387 180.388 417.91 181.135C418.899 181.619 419.671 182.079 420.226 182.514C420.782 182.948 421.14 183.402 421.303 183.877C421.465 184.351 421.407 184.872 421.128 185.44C420.733 186.247 420.118 186.644 419.286 186.631C418.454 186.617 417.305 186.252 415.839 185.533C414.305 184.781 413.252 184.074 412.68 183.414Z" fill="white"/>
<path d="M430.849 173.413C431.438 174.886 432.818 176.154 434.988 177.219C436.08 177.753 437.084 178.105 438.003 178.274C438.921 178.442 439.776 178.431 440.566 178.241C441.357 178.051 442.054 177.687 442.655 177.151C443.257 176.613 443.775 175.902 444.209 175.016C444.811 173.789 445.049 172.654 444.925 171.613C444.801 170.573 444.331 169.634 443.515 168.797C442.699 167.96 441.552 167.179 440.076 166.455C438.7 165.781 437.424 165.437 436.247 165.423C435.069 165.409 434.057 165.699 433.209 166.291C432.362 166.884 431.687 167.692 431.187 168.715C430.373 170.375 430.26 171.941 430.849 173.413ZM436.208 168.735C436.902 168.928 437.756 169.272 438.767 169.768C439.744 170.247 440.519 170.701 441.092 171.129C441.664 171.557 442.032 172.014 442.198 172.495C442.363 172.978 442.312 173.493 442.044 174.038C441.649 174.845 441.035 175.241 440.202 175.229C439.369 175.215 438.209 174.843 436.72 174.114C435.175 173.356 434.118 172.652 433.55 171.999C432.981 171.346 432.904 170.6 433.316 169.759C433.588 169.202 433.965 168.844 434.445 168.685C434.926 168.526 435.513 168.543 436.208 168.735Z" fill="white"/>
<path d="M435.975 191.534C436.757 191.042 436.992 190.011 436.501 189.23L420.346 163.526C419.855 162.745 418.823 162.51 418.041 163C417.769 163.172 417.563 163.409 417.431 163.678C417.184 164.181 417.196 164.796 417.515 165.305L433.67 191.008C434.161 191.79 435.193 192.026 435.975 191.534Z" fill="white"/>
<path d="M434.302 217.47L426.945 222.38C426.557 222.639 426.453 223.161 426.712 223.548C426.97 223.936 427.493 224.04 427.88 223.781L435.237 218.872C435.625 218.613 435.729 218.091 435.47 217.703C435.212 217.316 434.69 217.212 434.302 217.47Z" fill="#3A2C60"/>
<path d="M463.066 166.913L413.891 142.806C412.358 142.054 410.532 142.062 409.005 142.826L396.494 149.087C394.61 147.523 392.463 146.132 390.082 144.965C385.742 142.837 381.215 141.718 377.335 141.814C373.256 141.915 370.337 143.346 369.115 145.843C366.643 150.886 371.98 158.402 381.265 162.953C381.368 163.003 381.471 163.047 381.574 163.096L375.451 181.049C374.902 182.661 375.137 184.467 376.082 185.883L406.486 231.443C408.171 233.967 411.596 234.65 414.12 232.966L424.113 226.297C424.5 226.038 424.605 225.516 424.346 225.128C424.087 224.741 423.565 224.637 423.178 224.895L413.185 231.564C411.434 232.733 409.057 232.259 407.888 230.507L377.483 184.946C376.828 183.964 376.665 182.71 377.046 181.592L383.119 163.788C383.802 164.076 384.482 164.339 385.156 164.573L388.983 183.668C389.316 185.337 390.428 186.78 391.957 187.529L441.14 211.638C441.543 211.836 441.964 211.976 442.392 212.07L437.977 215.017C437.589 215.276 437.485 215.798 437.744 216.185C438.002 216.573 438.524 216.677 438.912 216.419L446.399 211.422C446.433 211.399 446.462 211.371 446.495 211.347C446.538 211.32 446.585 211.3 446.627 211.272C447.425 210.739 448.072 210.004 448.505 209.119L465.587 174.276C466.234 172.956 466.328 171.463 465.851 170.071C465.375 168.68 464.387 167.56 463.066 166.913ZM382.007 161.44C373.852 157.442 368.641 150.638 370.629 146.583C371.563 144.68 373.96 143.583 377.377 143.499C380.991 143.409 385.24 144.467 389.342 146.478C391.361 147.467 393.197 148.626 394.839 149.915L387.129 153.775C386.356 154.161 385.715 154.721 385.217 155.38C384.358 156.026 383.681 156.919 383.317 157.988L382.122 161.492C382.084 161.474 382.045 161.459 382.007 161.44ZM383.664 162.191L384.303 160.317L384.766 162.628C384.4 162.49 384.032 162.346 383.664 162.191ZM464.258 170.619C464.589 171.585 464.523 172.62 464.075 173.537L446.993 208.381C446.545 209.295 445.764 209.981 444.8 210.312C443.834 210.642 442.799 210.577 441.883 210.128L392.699 186.018C391.638 185.497 390.867 184.496 390.636 183.338L386.991 165.15C389.367 165.815 391.637 166.133 393.684 166.118C394.069 166.906 394.621 167.616 395.328 168.182C397.007 169.523 399.203 169.915 401.202 169.23C401.709 169.057 402.185 168.82 402.621 168.53C403.897 167.678 404.825 166.362 405.203 164.804C405.752 162.531 404.926 160.12 403.101 158.662C402.92 158.517 402.731 158.39 402.539 158.268C402.438 158.171 402.319 158.101 402.183 158.063C400.664 157.229 398.88 157.048 397.228 157.614C395.23 158.299 393.735 159.952 393.228 162.04C393.038 162.822 393.023 163.619 393.144 164.39C391.148 164.342 388.922 163.975 386.613 163.266L385.847 159.447C385.541 157.92 386.201 156.367 387.473 155.518C387.603 155.431 387.74 155.352 387.882 155.28L409.758 144.331C410.818 143.801 412.085 143.797 413.149 144.318L462.325 168.426C463.241 168.875 463.928 169.654 464.258 170.619ZM400.082 164.482C401.019 163.857 401.752 163.054 402.231 162.077C402.452 161.626 402.605 161.148 402.703 160.65C403.533 161.692 403.882 163.101 403.566 164.408C403.196 165.934 402.109 167.141 400.657 167.637C399.205 168.134 397.607 167.844 396.381 166.866C396.071 166.619 395.804 166.326 395.576 166.006C397.345 165.791 398.882 165.282 400.082 164.482ZM394.853 164.356C394.718 163.727 394.712 163.071 394.865 162.438C395.141 161.299 395.819 160.336 396.748 159.716C397.063 159.506 397.406 159.336 397.774 159.21C398.887 158.829 400.085 158.913 401.136 159.413C401.136 160.111 401.001 160.757 400.718 161.335C399.843 163.122 397.687 164.129 394.853 164.356Z" fill="#3A2C60"/>
</svg>
