<svg width="512" height="512" viewBox="0 0 512 512" fill="none" xmlns="http://www.w3.org/2000/svg">
<path d="M101.4 18.0016C80.6 21.0016 63.8 36.0016 58.5 56.1016C56.3 64.2016 56.3 447.802 58.5 455.902C62.9 472.702 76 486.502 92.9 492.202L99.5 494.502L217.5 494.802C293.1 495.002 338.6 494.702 344 494.102C363.5 491.702 380.1 478.402 387.2 459.502C389.3 453.702 389.4 452.102 389.8 411.802L390.1 370.002H370.6H351V395.502V421.002H223.5H96V252.502V84.0016H223.5H351V93.5016V103.002H370.5H390V84.2016C390 62.2016 389.1 56.0016 384.4 46.4016C377 31.2016 362.2 20.5016 345.3 18.0016C337.3 16.9016 109.3 16.8015 101.4 18.0016ZM239.5 48.4016C243.4 50.1016 244.9 53.7016 243.2 57.5016C241.5 61.2016 236.2 62.2016 220.8 61.8015C208.3 61.5016 206.9 61.3015 204.9 59.3015C201.2 55.7016 202.5 50.0016 207.5 48.0016C211.1 46.5016 235.7 46.8015 239.5 48.4016ZM257.7 449.202C260.8 452.102 260.7 456.302 257.4 458.902C254.8 460.902 253.6 461.002 223 461.002C193.6 461.002 191.1 460.902 188.9 459.202C187.4 457.902 186.7 456.202 186.7 454.002C186.7 451.802 187.4 450.102 188.9 448.802C191.1 447.102 193.6 447.002 223.3 447.002C254.9 447.002 255.4 447.002 257.7 449.202Z" fill="#1B446D"/>
<path d="M188.3 118.103C186.6 118.603 184 120.403 182.6 122.103L180 125.203V218.003V310.803L182.6 313.903C184 315.603 186.8 317.503 188.8 318.003C191.3 318.803 206.6 319.003 235.5 318.803L278.5 318.503L284.2 315.703C290.3 312.703 295.3 307.603 297.2 302.203C297.9 300.503 298.7 299.003 299 299.003C299.3 299.003 300.1 300.503 300.8 302.203C302.6 307.303 307.7 312.803 313.4 315.803L318.5 318.503L362 318.803C410.5 319.103 411.7 319.003 415.7 313.103L418 309.703V218.003V126.303L415.7 122.903C411.8 117.003 410.4 116.903 362.5 117.203C319.6 117.503 319.5 117.503 314.2 119.903C308.4 122.503 302.7 128.403 300.8 133.703C299.3 137.803 298.7 137.803 297.2 133.703C295.3 128.403 290.3 123.303 284.2 120.303L278.5 117.503L235 117.303C210.1 117.203 190.1 117.503 188.3 118.103ZM269.9 156.403C272.4 158.703 272.6 162.703 270.4 165.803C268.9 168.003 268.7 168.003 239.9 168.003C212.3 168.003 210.9 167.903 209 166.003C205.4 162.403 206.9 156.603 212 154.703C212.8 154.403 225.7 154.203 240.6 154.303C265.8 154.503 267.9 154.603 269.9 156.403ZM389.1 156.903C391.6 159.903 391.5 163.503 389 166.003C387.1 167.903 385.7 168.003 358.2 168.003C330.7 168.003 329.2 167.903 327.5 166.003C324.2 162.403 325.7 156.903 330.5 154.903C331.6 154.503 344.8 154.203 359.8 154.303L387.2 154.503L389.1 156.903ZM269.4 194.103C272.6 196.603 272.9 201.103 270 204.003C268.1 205.903 266.7 206.003 239.5 206.003C212.3 206.003 210.9 205.903 209 204.003C206.1 201.103 206.4 196.603 209.6 194.103C212.2 192.103 213.5 192.003 239.5 192.003C265.5 192.003 266.8 192.103 269.4 194.103ZM388.5 194.503C391.6 197.503 391.7 200.703 388.8 203.703C386.7 206.003 386.6 206.003 358.8 206.003C341 206.003 330.1 205.603 328.9 204.903C324.4 202.503 324.7 195.403 329.4 193.203C330.7 192.503 342.2 192.103 358.8 192.103L386.1 192.003L388.5 194.503ZM270 232.003C272.9 234.903 272.6 239.403 269.4 241.903C266.8 243.903 265.5 244.003 239.5 244.003C213.5 244.003 212.2 243.903 209.6 241.903C206.4 239.403 206.1 234.903 209 232.003C210.9 230.103 212.3 230.003 239.5 230.003C266.7 230.003 268.1 230.103 270 232.003ZM388.7 232.203C391.7 235.003 391.6 238.503 388.5 241.503L386.1 244.003H358.3C329.1 243.903 328.6 243.903 326.2 239.303C324.8 236.703 326 232.703 328.7 231.103C329.8 230.403 340.8 230.003 358.4 230.003C385.8 230.003 386.4 230.003 388.7 232.203ZM270.4 270.203C272.6 273.303 272.4 277.303 269.9 279.603C267.9 281.403 265.9 281.503 239.5 281.503C213.1 281.503 211.1 281.403 209.1 279.603C206.4 277.203 206.4 272.603 209 270.003C210.9 268.103 212.3 268.003 239.9 268.003C268.7 268.003 268.9 268.003 270.4 270.203ZM389 270.003C391.5 272.503 391.6 276.103 389.1 279.103L387.2 281.503L359.2 281.803L331.2 282.103L328.5 279.703C325.3 277.003 324.9 272.903 327.5 270.003C329.2 268.103 330.7 268.003 358.2 268.003C385.7 268.003 387.1 268.103 389 270.003Z" fill="#31C5FF"/>
<path d="M151.3 148.601C149.6 149.501 147.4 151.001 146.5 152.001C142.1 156.901 142.1 156.9 142 250.501C142 309.701 142.4 340.801 143.1 343.301C144.5 348.501 149.1 353.401 153.8 354.801C156.6 355.701 173.3 356.001 211.7 356.001H265.8L266.9 360.701C271.4 378.701 290 389.601 307.5 384.601C319.7 381.001 327.4 373.301 330.4 361.701L331.7 356.501L387.6 356.001C441.7 355.501 443.6 355.401 447 353.401C448.9 352.301 451.5 349.901 452.7 348.001L455 344.701V251.8C455 168.1 454.8 158.501 453.4 155.401C450.8 150.001 446.6 147.601 438.8 147.201L432 146.801V229.1V311.501L429.6 316.501C426.4 323.401 419.5 329.501 412.6 331.501C407.8 332.901 401.1 333.101 362.3 332.801C318.8 332.501 317.3 332.401 312.1 330.301C309.2 329.101 305 326.901 302.9 325.601L299.1 323.001L294.4 326.001C284.1 332.501 284.3 332.501 233 332.501C187.7 332.501 186.4 332.401 181.9 330.401C176.4 327.801 171.1 322.701 168.4 317.401C166.6 313.701 166.5 310.3 166.2 230.201L166 147.001H160.2C157.1 147.001 153.1 147.801 151.3 148.601Z" fill="#31C5FF"/>
</svg>
