<svg width="512" height="512" viewBox="0 0 512 512" fill="none" xmlns="http://www.w3.org/2000/svg">
<path d="M225.5 0.97641C200 3.8764 158.5 15.7764 151.7 22.1764C144 29.3764 145 41.4764 153.7 46.8764C158.6 49.9764 165.5 48.9764 182.6 42.9764C207.5 34.1764 228.4 30.7764 256.4 30.7764C291.6 30.8764 322.8 38.0764 354 53.3764C422.3 86.8764 468.8 151.476 479 227.276C481.6 246.276 480.7 278.376 477.2 296.876C473.2 317.376 466.5 337.776 458.3 354.376C453.8 363.376 442.3 382.876 441.5 382.876C441.2 382.876 440.2 381.076 439.3 379.076C434.3 368.276 417.3 368.376 412.1 379.276C410.8 382.076 410.5 386.576 410.5 406.376C410.5 428.876 410.6 430.276 412.7 433.976C414.1 436.476 416.4 438.576 419.1 439.976C423.1 441.876 424.8 441.976 447.4 441.676C469.8 441.376 471.5 441.276 474.1 439.276C481.1 434.076 483.1 426.876 479.6 419.676C477.1 414.376 472.7 411.576 465.8 410.876L460.6 410.376L467.1 400.876C490.3 367.076 504.7 328.976 509.9 288.076C512 271.976 512 240.276 510 223.876C504.3 178.176 485.4 132.876 456.8 96.5764C449.5 87.2764 424.1 61.8764 414.8 54.5764C378.4 25.8764 333.3 7.07642 287.5 1.3764C274 -0.223602 238.6 -0.52359 225.5 0.97641Z" fill="#31C5FF"/>
<path d="M39 71.2781C33.5 73.7781 29.5 79.7781 29.5 85.5781C29.5 89.7781 33.2 96.2781 36.7 98.3781C38.5 99.4781 42.3 100.578 45.2 100.878L50.4 101.378L43.9 110.878C22.5 142.078 9.4 174.678 2.3 214.078C0.3 224.878 0.1 229.878 0 255.378C0 286.978 0.8 294.278 6.5 317.678C13.2 344.778 26.2 374.578 41.1 396.878C78.6 452.978 134.9 491.878 199.5 506.278C233 513.678 276.3 513.878 309.4 506.778C329.3 502.478 354.9 493.578 359.3 489.578C367 482.378 366 470.278 357.3 464.878C352.4 461.778 345.5 462.778 328.4 468.778C303.5 477.578 282.6 480.978 254.6 480.978C194.5 480.778 139.3 457.778 96.5 414.878C60.6 379.078 39 335.478 32 284.378C29.4 266.178 30.3 233.078 33.8 214.878C37.8 194.278 44.5 173.978 52.7 157.378C57.2 148.378 68.7 128.878 69.5 128.878C69.8 128.878 70.8 130.678 71.7 132.678C76.7 143.478 93.7 143.378 98.9 132.478C100.2 129.678 100.5 125.178 100.5 105.378C100.5 82.8781 100.4 81.4781 98.3 77.7781C96.9 75.2781 94.6 73.1781 92 71.8781C88.2 70.0781 85.9 69.8781 64.9 69.8781C48.1 69.9781 41.2 70.2781 39 71.2781Z" fill="#31C5FF"/>
<path d="M217.1 82.7789C211.5 86.4789 210.5 89.2789 210.5 101.379V112.379L203.9 114.679C200.3 115.979 194.9 118.179 191.9 119.579L186.4 122.179L178.7 114.579C170 106.179 166.4 104.679 159.2 106.879C155.7 107.879 150.9 112.079 131.3 131.679C111.7 151.279 107.5 156.079 106.5 159.579C104.3 166.779 105.8 170.379 114.2 179.079L121.8 186.879L118.3 194.579C116.3 198.879 114.1 204.279 113.4 206.579L112.2 210.879H101.1C88.9 210.879 86.1 211.879 82.4 217.479C80.6 220.179 80.5 222.779 80.5 255.879C80.5 288.979 80.6 291.579 82.4 294.279C86.1 299.879 88.9 300.879 101.1 300.879H112.2L113.4 305.179C114.1 307.479 116.3 312.879 118.3 317.179L121.8 324.879L114.2 332.679C105.8 341.379 104.3 344.979 106.5 352.179C107.5 355.679 111.7 360.479 131.3 380.079C150.9 399.679 155.7 403.879 159.2 404.879C166.4 407.079 170 405.579 178.7 397.179L186.5 389.579L194.2 393.079C198.5 395.079 203.9 397.279 206.3 397.979L210.5 399.179V410.279C210.5 422.479 211.5 425.279 217.1 428.979C219.8 430.779 222.4 430.879 255.5 430.879C288.6 430.879 291.2 430.779 293.9 428.979C299.5 425.279 300.5 422.479 300.5 410.279V399.179L304.8 397.979C307.1 397.279 312.5 395.179 316.8 393.179L324.6 389.679L332.5 397.279C341.3 405.679 344.7 406.979 351.8 404.879C355.3 403.879 360.1 399.679 379.7 380.079C399.3 360.479 403.5 355.679 404.5 352.179C406.6 345.079 405.2 341.679 397 332.979L389.6 325.179L394 314.279C396.5 308.279 398.5 302.779 398.5 302.079C398.5 301.179 401.4 300.879 409.8 300.879C422.1 300.879 424.9 299.879 428.6 294.279C430.4 291.579 430.5 288.979 430.5 255.879C430.5 222.779 430.4 220.179 428.6 217.479C424.9 211.879 422.1 210.879 409.8 210.879C401.4 210.879 398.5 210.579 398.5 209.579C398.5 208.979 396.5 203.479 394 197.479L389.6 186.579L397 178.779C405.2 170.079 406.6 166.679 404.5 159.579C403.5 156.079 399.3 151.279 379.7 131.679C360.1 112.079 355.3 107.879 351.8 106.879C344.7 104.779 341.3 106.079 332.5 114.479L324.6 122.079L316.8 118.579C312.5 116.579 307.1 114.479 304.8 113.779L300.5 112.579V101.479C300.5 89.2789 299.5 86.4789 293.9 82.7789C291.2 80.9789 288.6 80.8789 255.5 80.8789C222.4 80.8789 219.8 80.9789 217.1 82.7789ZM274.4 178.979C289.8 182.479 306.1 192.679 316.7 205.479C322.9 212.879 330.9 229.179 332.9 238.579C335 247.879 334.9 263.979 332.9 273.179C329.2 289.779 317.7 307.979 304.3 318.179C289.9 329.179 273.1 334.979 255.5 334.979C242.8 334.979 233.1 332.679 221 326.879C203.8 318.479 192.9 307.579 184.5 290.379C178.6 278.179 176.5 269.179 176.5 255.879C176.5 242.579 178.6 233.579 184.5 221.379C192.9 204.179 203.8 193.279 221 184.879C238.8 176.179 254.7 174.479 274.4 178.979Z" fill="#1B446D"/>
</svg>
