<svg width="512" height="512" viewBox="0 0 512 512" fill="none" xmlns="http://www.w3.org/2000/svg">
<g clip-path="url(#clip0_1874_6902)">
<path d="M6.6 1.9C0 6.3 0 6.3 0 40C0 68.2 0.2 70.7 1.9 73.4C5 78 8.8 80 15 80C21.2 80 25 78 28.1 73.4C29.8 70.8 30 68.4 30 50.2V30H50.3C72.5 30 74 29.6 78.1 23.4C80.7 19.5 80.7 10.5 78.1 6.6C73.7 0 73.7 0 40 0C11.8 0 9.3 0.199997 6.6 1.9Z" fill="#162C47"/>
<path d="M184.2 2C179.7 4.8 177 9.6 177 15C177 20.4 179.7 25.2 184.2 28C187.4 29.9 189.4 30 256 30C322.6 30 324.6 29.9 327.8 28C337.4 22.1 337.4 7.9 327.8 2C324.6 0.1 322.6 0 256 0C189.4 0 187.4 0.1 184.2 2Z" fill="#162C47"/>
<path d="M438.6 1.90078C434 5.00078 432 8.80078 432 15.0008C432 21.2008 434 25.0008 438.6 28.1008C441.2 29.8008 443.6 30.0008 461.8 30.0008H482V50.2008C482 72.5008 482.4 74.0008 488.6 78.1008C492.5 80.7008 501.5 80.7008 505.4 78.1008C512 73.7008 512 73.7008 512 40.0008C512 11.8008 511.8 9.30078 510.1 6.60078C505.7 0.000778198 505.7 0.000778198 472 0.000778198C443.8 0.000778198 441.3 0.200783 438.6 1.90078Z" fill="#162C47"/>
<path d="M346.2 74.0023C336.8 79.7023 336.6 93.6023 345.9 99.7023C349.1 101.902 350.2 102.002 368.4 102.002H387.5L334.8 154.702C277.9 211.802 278.8 210.702 280.5 219.602C281.4 224.702 287.3 230.602 292.4 231.502C301.3 233.202 300.2 234.102 357.3 177.202L410 124.502V143.602C410 161.802 410.1 162.902 412.3 166.102C418.7 175.702 432.5 175.102 438.4 165.002C440.4 161.602 440.5 160.002 440.5 122.002C440.5 83.1023 440.5 82.4023 438.3 79.0023C433.9 71.9023 434.9 72.0023 389.8 72.0023C351.4 72.0023 349.4 72.1023 346.2 74.0023Z" fill="#162C47"/>
<path d="M7.2 179C5.4 180.1 3.1 182.4 2 184.2C0 187.5 0 189.6 0 345C0 497.6 0.0999999 502.6 1.9 505.4C2.9 506.9 5.1 509.1 6.6 510.1C9.4 511.9 14.4 512 167 512C322.4 512 324.5 512 327.8 510C337.4 504.1 337.4 489.9 327.8 484C324.7 482.1 322.7 482 291.8 482H259V372.7C259 265.5 259 263.4 257 260.2C255.9 258.4 253.6 256.1 251.8 255C248.6 253 246.5 253 139.3 253H30V220.2C30 189.3 29.9 187.3 28 184.2C25.2 179.7 20.4 177 15 177C12.3 177 9.2 177.8 7.2 179Z" fill="#FF5F5F"/>
<path d="M489.2 179C487.4 180.1 485.1 182.4 484 184.2C482.1 187.4 482 189.4 482 256C482 322.6 482.1 324.6 484 327.8C489.9 337.4 504.1 337.4 510 327.8C511.9 324.6 512 322.6 512 256C512 189.4 511.9 187.4 510 184.2C507.2 179.7 502.4 177 497 177C494.3 177 491.2 177.8 489.2 179Z" fill="#162C47"/>
<path d="M488.6 433.902C482.4 438.002 482 439.502 482 461.702V482.002H461.8C443.6 482.002 441.2 482.202 438.6 483.902C434 487.002 432 490.802 432 497.002C432 503.202 434 507.002 438.6 510.102C441.3 511.802 443.8 512.002 472 512.002C515 512.002 512 515.002 512 472.002C512 443.802 511.8 441.302 510.1 438.602C507 434.002 503.2 432.002 497 432.002C493.3 432.002 490.6 432.602 488.6 433.902Z" fill="#162C47"/>
</g>
<defs>
<clipPath id="clip0_1874_6902">
<rect width="512" height="512" fill="white"/>
</clipPath>
</defs>
</svg>
