<svg width="512" height="512" viewBox="0 0 512 512" fill="none" xmlns="http://www.w3.org/2000/svg">
<g clip-path="url(#clip0_2000_10403)">
<path d="M25.4 2.57343C14.7 6.27344 4.6 16.6734 1.5 27.2734C0.3 31.0734 0 39.4734 0 67.9734V103.773H256H512.1L511.8 65.9734L511.5 28.2734L508.7 22.4734C505 15.0734 497.7 7.77344 490.3 4.07343L484.5 1.27344L257.5 1.07343C43.1 0.873436 30.2 0.973434 25.4 2.57343ZM82 37.7734C84.9 40.6734 85.2 42.7734 84.8 62.5734C84.4 86.7734 86 85.1734 61.8 85.5734C42 85.9734 39.9 85.6734 37 82.7734C35.1 80.8734 35 79.3734 35 60.5734C35 33.6734 32.9 35.7734 59.7 35.7734C78.6 35.7734 80.1 35.8734 82 37.7734ZM150.5 38.2734C153 40.6734 153 40.7734 153 60.5734V80.4734L150.4 82.8734C147.9 85.2734 147.6 85.2734 128 85.2734C108.4 85.2734 108.1 85.2734 105.6 82.8734L103 80.4734V60.5734C103 33.8734 101.1 35.7734 128 35.7734C148 35.7734 148.1 35.7734 150.5 38.2734ZM218.7 37.9734C221 40.0734 221 40.4734 221 60.4734C221 87.6734 222.7 86.0734 194.2 85.5734C170 85.1734 171.6 86.7734 171.2 62.5734C170.8 42.7734 171.1 40.6734 174 37.7734C175.9 35.8734 177.4 35.7734 196.2 35.7734C215.5 35.7734 216.5 35.8734 218.7 37.9734Z" fill="#162C47"/>
<path d="M51 60.7734V69.7734H60H69V60.7734V51.7734H60H51V60.7734Z" fill="#FFC305"/>
<path d="M119 60.7734V69.7734H128H137V60.7734V51.7734H128H119V60.7734Z" fill="#FFC305"/>
<path d="M187 60.7734V69.7734H196H205V60.7734V51.7734H196H187V60.7734Z" fill="#FFC305"/>
<path d="M0.2 302.473L0.5 485.273L3.3 491.073C7 498.473 14.3 505.773 21.7 509.473L27.5 512.273H256H484.5L490.3 509.473C497.7 505.773 505 498.473 508.7 491.073L511.5 485.273L511.8 302.473L512 119.773H256H0L0.2 302.473ZM286.7 140.173C289.4 142.573 289.5 142.773 290 156.473C290.6 173.273 291.2 174.473 300.2 177.773C303.6 178.973 310.1 181.973 314.6 184.373C320.8 187.773 323.7 188.773 327.3 188.773C331.9 188.773 332.3 188.473 341.9 179.273C355.9 165.873 354 165.473 376.2 187.573C397.9 209.173 397.7 208.673 387.4 218.773C373.8 232.073 372.3 236.573 378.2 246.773C379.9 249.773 382.9 256.273 385 261.273C389.9 273.373 391.1 274.073 408.8 274.773C427.4 275.473 426 272.673 426 308.173C425.9 329.673 425.6 336.673 424.6 337.973C422.4 340.973 418.3 341.773 406 341.773C394.8 341.773 394 341.873 391.2 344.273C389.6 345.673 387.2 349.373 386 352.473C384.7 355.673 381.7 362.173 379.3 366.873C374.9 375.573 374.1 380.073 376.1 384.073C376.7 385.273 381 390.173 385.6 394.873C397.8 407.373 398.2 405.973 376.2 428.073C354.2 450.173 355.7 449.773 343.1 437.473C330.2 424.873 328.5 424.473 314.2 431.673C308.9 434.273 302.4 437.273 299.8 438.273C291.3 441.473 290.6 442.873 290 458.773C289.5 471.673 289.3 472.773 287.1 475.173L284.7 477.773H256H227.3L224.9 475.173C222.7 472.773 222.5 471.673 222 458.773C221.5 445.873 221.3 444.773 219.1 442.373C217.8 440.973 215.1 439.273 213.1 438.673C211.1 437.973 204.7 435.073 198.8 432.173C183.4 424.473 181.9 424.673 169 437.273C156.4 449.673 157.8 450.073 135.8 427.973C113.8 405.973 114.2 407.473 126.4 394.873C131 390.173 135.3 385.273 135.9 384.073C137.9 380.073 137.1 375.573 132.7 366.873C130.3 362.173 127.3 355.673 126 352.473C124.8 349.373 122.4 345.673 120.8 344.273C118 341.873 117.2 341.773 105.4 341.773C92.9 341.773 89.8 341.073 87.3 337.873C86.4 336.673 86.1 328.673 86 308.173C86 272.573 84.4 275.473 103.9 274.673C121.4 273.973 121.9 273.773 127 261.273C129 256.273 132.1 249.773 133.8 246.773C139.7 236.573 138.2 232.073 124.6 218.773C114.3 208.673 114.1 209.173 135.8 187.573C157.8 165.573 156.4 165.973 168.9 178.173C173.6 182.773 178.5 187.073 179.7 187.673C183.9 189.773 188.8 188.873 197.8 184.373C202.6 181.873 209.1 178.973 212.3 177.773C220.7 174.573 221.4 173.173 222 156.473C222.5 142.773 222.6 142.573 225.3 140.173L228.1 137.773H256H283.9L286.7 140.173Z" fill="#5A72EB"/>
<path d="M237.8 163.973C237.5 171.273 236.9 175.273 235.6 177.573C232.6 183.273 227.3 188.273 221.8 190.673C218.9 191.973 211 195.673 204.2 198.973C193.1 204.373 191.4 204.873 185.4 204.873C176.9 204.873 170.5 201.873 163 194.273L157.6 188.773L147.3 198.973L137.1 209.173L142.9 215.273C150.3 223.173 152.3 227.573 152.8 236.273C153.1 242.973 152.9 243.673 148.1 253.573C145.3 259.173 141.6 267.173 139.9 271.273C134.6 284.073 126.4 289.473 111 290.473L102 291.073V308.273V325.573L111.7 325.973C119.3 326.273 122.5 326.873 125.8 328.673C132.6 332.173 137.5 337.973 140.6 346.073C142.1 349.973 145.6 357.473 148.3 362.773C153.2 372.073 153.2 372.373 152.8 379.773C152.2 388.973 150.6 392.273 142.6 400.573L136.6 406.873L146.8 416.973L156.9 427.173L162.7 421.573C171.5 413.273 175.8 411.273 185.5 411.273C193.2 411.273 193.8 411.473 203 416.373C208.2 419.173 214.8 422.273 217.6 423.273C225.9 426.173 231.3 430.773 234.9 437.873C237.7 443.473 238 445.073 238 452.973V461.773H256H274V453.273C274 437.273 280.2 428.573 295.5 422.873C298.8 421.673 305.3 418.573 310 415.973C318.1 411.473 318.8 411.273 326.5 411.273C336.2 411.273 340.5 413.273 349.3 421.573L355.1 427.173L365.2 417.073L375.4 406.873L368.8 399.973C357.2 387.673 355.9 376.973 364.2 361.573C366.6 356.973 369.7 350.573 371 347.273C377.2 331.673 385.4 325.873 401.8 325.773H410V308.373V291.073L401 290.473C385.6 289.473 377.4 284.073 372.1 271.273C370.4 267.173 366.7 259.273 364 253.673C359.7 244.773 359 242.673 359 237.373C359 229.373 362.2 222.473 369.4 214.873L374.9 209.173L364.7 198.973L354.5 188.773L348.6 194.673C341.2 202.173 335 204.973 326.3 204.973C320.8 204.973 318.7 204.273 307.8 198.973C301 195.673 293.1 191.973 290.1 190.673C283.7 187.873 277.8 181.473 275.6 175.073C274.6 172.273 274 167.073 274 162.073V153.773H256.1H238.2L237.8 163.973ZM276.7 208.373C301.9 213.473 325.8 229.673 340.4 251.573C368 293.073 362.2 346.273 326.3 380.873C301.9 404.373 268.9 414.273 236.8 407.773C216.6 403.573 200.6 395.173 185.7 380.873C168.3 364.073 158.1 343.873 155 319.773C150.5 285.273 166.6 247.773 194.8 226.873C219.3 208.873 247.3 202.473 276.7 208.373Z" fill="#FFC305"/>
<path d="M246.3 222.773C215.4 226.073 187.2 247.673 176.1 276.673C171.7 288.173 170.6 294.973 170.7 308.773C170.8 323.173 172.9 332.673 178.5 344.673C187.4 363.273 201.2 376.873 220.3 385.773C233.2 391.673 240.4 393.273 256 393.273C271.6 393.273 278.8 391.673 291.8 385.673C315.7 374.573 332.3 354.873 339.1 329.273C341.7 319.673 342.2 299.673 340.1 290.273C330.6 247.073 290.3 218.073 246.3 222.773ZM269.4 267.873C271.3 269.373 272 270.873 272 273.373C272 276.473 257.6 329.073 254.8 336.073C254.2 337.673 252.2 339.673 250.4 340.473C247.4 341.973 246.9 341.873 243.8 340.073C241.2 338.573 240.4 337.473 240.2 334.573C239.9 331.073 254.4 277.973 257.5 270.973C259.9 265.773 265 264.373 269.4 267.873ZM225.5 275.373C227.8 276.273 230.2 281.473 229.5 284.073C229.1 285.273 224 291.073 218.2 296.973L207.6 307.773L218.2 318.573C224.3 324.673 229.1 330.473 229.5 332.073C230.9 337.673 224.4 342.973 219 340.773C215.4 339.273 190.4 313.973 189.1 310.473C188.5 308.873 188.4 306.873 188.9 305.473C189.4 304.273 196.3 296.873 204.2 288.973C218.8 274.573 220.5 273.473 225.5 275.373ZM307.8 288.973C315.7 296.873 322.6 304.273 323.1 305.473C323.6 306.873 323.5 308.873 322.9 310.473C321.6 313.973 296.6 339.273 293 340.773C287.6 342.973 281.1 337.673 282.5 332.073C282.9 330.473 287.7 324.673 293.8 318.573L304.4 307.773L293.8 296.973C288 291.073 282.9 285.273 282.5 284.073C281.8 281.673 284.1 276.273 286.2 275.473C286.9 275.173 288.8 274.873 290.4 274.873C292.9 274.773 295.6 276.973 307.8 288.973Z" fill="#FFC305"/>
</g>
<defs>
<clipPath id="clip0_2000_10403">
<rect width="512" height="512" fill="white"/>
</clipPath>
</defs>
</svg>
