<svg width="512" height="512" viewBox="0 0 512 512" fill="none" xmlns="http://www.w3.org/2000/svg">
<path d="M126.49 61.2277C108.09 68.9277 106.59 71.1277 109.29 87.0277L110.89 96.1277L105.09 102.028L99.1905 108.028L89.8905 106.728C79.1905 105.228 74.6905 105.828 71.4905 109.128C68.5905 112.128 58.9905 135.928 58.9905 140.028C58.9905 145.128 61.5905 148.628 69.9905 154.628L77.9905 160.428V168.428L77.8905 176.528L69.4905 182.928C60.4905 189.628 58.1905 193.328 59.3905 199.128C59.6905 200.828 62.2905 207.528 65.0905 214.128C72.5905 231.628 74.2905 232.628 92.0905 229.928L99.6905 228.728L105.49 234.428L111.19 240.128L109.99 250.528C108.59 262.128 109.29 265.528 113.69 269.028C117.39 271.928 136.79 279.128 142.69 279.728C149.19 280.428 151.09 279.128 158.39 269.028L163.79 261.628L171.79 261.428L179.79 261.228L185.59 269.228C194.99 282.028 197.89 282.528 216.29 274.928C228.79 269.728 233.39 266.428 234.59 261.628C234.89 260.228 234.49 254.728 233.69 249.428L232.09 239.728L237.89 233.928L243.69 228.028L253.09 229.328C263.39 230.728 268.29 230.228 271.09 227.328C273.89 224.628 283.89 200.128 283.99 196.228C283.99 190.928 281.59 187.628 272.99 181.528L264.99 175.728V167.628V159.528L272.99 153.528C280.79 147.628 283.99 143.528 283.99 139.028C283.99 134.828 273.79 111.628 270.39 108.228C266.69 104.528 263.69 104.228 250.79 106.228L243.09 107.328L237.39 101.628L231.69 96.0277L232.99 85.2277C234.09 75.7277 234.09 74.1277 232.69 71.4277C230.39 67.0277 229.59 66.5277 215.89 61.0277C203.99 56.2277 197.79 55.0277 193.49 56.7277C192.49 57.0277 188.89 61.1277 185.49 65.8277L179.19 74.3277L171.19 74.5277L163.19 74.7277L157.29 66.8277C147.99 54.0277 144.79 53.4277 126.49 61.2277ZM186.49 106.628C216.19 113.828 236.49 141.128 234.69 171.428C233.19 197.328 217.29 218.428 192.19 227.828C183.19 231.128 166.49 232.028 156.99 229.628C145.29 226.728 136.29 221.528 127.29 212.528C120.69 205.928 118.29 202.628 114.99 195.928C107.19 179.528 106.09 164.128 111.79 147.728C122.49 116.528 154.59 98.9277 186.49 106.628Z" fill="#17AF27"/>
<path d="M155.79 122.33C114.79 136.33 111.59 192.83 150.69 211.63C157.89 215.13 159.29 215.43 169.09 215.83C178.19 216.23 180.69 215.93 186.39 214.03C219.09 203.23 230.49 164.23 208.89 137.13C197.09 122.33 174.39 116.03 155.79 122.33Z" fill="#17AF27"/>
<path d="M359.99 82.7312C357.69 84.8313 356.49 87.3313 355.09 92.4312C353.39 99.3313 353.29 99.4312 348.79 101.331L344.09 103.231L338.19 99.6312C333.59 96.8313 331.19 96.0312 327.59 96.0312C323.19 96.0312 322.59 96.4312 314.89 103.731C306.39 111.931 303.99 115.331 303.99 119.531C303.99 122.031 307.39 129.631 310.29 133.431C311.49 135.131 311.49 135.931 309.69 140.131C307.69 144.831 307.59 144.931 300.59 146.631C295.69 147.831 292.59 149.231 290.79 151.131C287.99 153.831 287.99 153.931 287.99 167.431C287.99 180.831 287.99 181.031 290.79 184.031C292.79 186.331 295.29 187.531 300.39 188.931C307.29 190.631 307.39 190.731 309.29 195.231L311.19 199.931L307.59 205.831C304.79 210.431 303.99 212.831 303.99 216.431C303.99 220.831 304.39 221.431 311.69 229.131C323.49 241.531 326.19 242.231 336.99 236.431L343.69 232.731L348.29 234.531C352.79 236.231 352.89 236.331 354.59 243.331C355.79 248.331 357.19 251.431 359.09 253.231C361.79 256.031 361.89 256.031 375.39 256.031C388.79 256.031 388.99 256.031 391.99 253.231C394.29 251.231 395.49 248.731 396.89 243.631C398.59 236.731 398.69 236.631 403.19 234.731L407.89 232.831L413.79 236.431C420.09 240.231 425.19 241.031 429.29 238.931C432.49 237.331 444.89 225.031 446.59 221.831C447.39 220.331 447.99 217.931 447.99 216.531C447.99 214.031 444.59 206.431 441.69 202.631C440.49 200.931 440.49 200.131 442.29 195.931C444.29 191.231 444.39 191.131 451.39 189.431C456.29 188.231 459.39 186.831 461.19 184.931C463.99 182.231 463.99 182.131 463.99 168.631C463.99 155.231 463.99 155.031 461.29 152.031C459.19 149.731 456.69 148.531 451.59 147.131C444.69 145.431 444.59 145.331 442.69 140.831L440.79 136.131L444.39 130.231C448.29 123.731 448.99 118.831 446.59 114.231C444.89 111.031 432.49 98.7312 429.29 97.1312C425.49 95.2312 421.69 95.9312 414.99 99.8313L408.49 103.631L403.79 101.631C399.19 99.7312 399.09 99.6312 397.39 92.6312C396.19 87.7312 394.79 84.6312 392.89 82.8313C390.19 80.0312 390.09 80.0312 376.59 80.0312C363.19 80.0312 362.99 80.0312 359.99 82.7312ZM392.99 119.531C407.89 124.831 420.39 137.831 424.99 152.831C427.69 161.531 427.69 174.531 424.99 183.131C420.09 199.031 406.09 212.731 390.09 217.431C382.29 219.731 368.79 219.531 360.79 217.031C344.99 212.231 331.79 198.931 326.99 183.131C324.29 174.531 324.29 161.431 326.99 152.831C331.59 137.831 344.09 124.931 358.99 119.531C368.49 116.031 383.39 116.131 392.99 119.531Z" fill="#FF6726"/>
<path d="M361.99 134.231C358.19 135.731 354.59 138.231 350.39 142.431C342.59 150.231 339.99 156.731 339.99 168.031C339.99 179.331 342.59 185.831 350.39 193.631C358.19 201.431 364.69 204.031 375.99 204.031C387.29 204.031 393.79 201.431 401.59 193.631C409.39 185.831 411.99 179.331 411.99 168.031C411.99 156.731 409.39 150.231 401.59 142.431C393.69 134.531 387.29 132.031 375.69 132.131C369.89 132.131 365.89 132.731 361.99 134.231Z" fill="#FF6726"/>
<path d="M119.19 301.83C105.09 305.03 94.0905 307.93 94.2905 308.53C94.4905 309.03 101.59 334.93 109.99 366.03C118.49 397.13 125.39 422.63 125.49 422.73C125.59 422.93 157.99 430.43 197.59 439.53C273.79 457.03 277.79 457.63 285.49 454.13C289.09 452.53 455.39 348.93 465.69 341.83C468.69 339.83 470.19 337.93 470.89 335.33C472.79 328.73 470.99 325.13 461.09 315.83C453.79 308.83 451.29 307.03 446.39 305.53C438.69 303.13 427.29 303.13 419.99 305.53C415.29 307.03 363.39 330.23 362.39 331.23C362.29 331.43 362.49 333.23 362.89 335.23C364.69 342.83 360.39 354.43 353.29 361.23C342.39 371.63 323.49 375.13 278.09 375.13C245.79 375.13 224.39 374.13 220.19 372.43C215.09 370.33 213.99 364.13 218.09 360.43C219.69 358.93 221.59 358.73 230.29 359.13C235.89 359.33 257.39 359.53 277.99 359.53C318.79 359.43 329.99 358.33 338.39 353.73C348.59 348.13 350.09 332.33 341.09 324.73C335.19 319.83 332.89 319.63 282.99 319.53L236.49 319.43L201.99 308.03L167.49 296.73L155.99 296.43C145.09 296.13 143.19 296.43 119.19 301.83Z" fill="#2F2F31"/>
<path d="M55.4905 308.231C49.4905 309.831 43.8905 311.731 43.0905 312.331C39.1905 315.631 39.1905 316.131 56.9905 381.531C72.6905 439.131 74.3905 444.731 77.0905 447.331C78.6905 448.831 80.9905 450.031 82.1905 450.031C83.2905 450.031 89.7905 448.631 96.3905 446.931C110.19 443.331 112.99 441.531 112.99 436.131C112.89 434.131 105.39 404.931 96.0905 371.231C82.8905 323.331 78.7905 309.431 76.9905 307.531C73.8905 304.231 69.7905 304.431 55.4905 308.231Z" fill="#2F2F31"/>
</svg>
