<svg width="512" height="512" viewBox="0 0 512 512" fill="none" xmlns="http://www.w3.org/2000/svg">
<path d="M363.913 492.485H49.4707C33.7471 492.485 21 480.414 21 465.524V45.9609C21 31.0711 33.7461 19 49.4707 19H363.913C379.637 19 392.384 31.0711 392.384 45.9609V465.524C392.384 480.414 379.638 492.485 363.913 492.485Z" fill="#FFE8D2"/>
<path d="M363.907 19H337.647V141.633C337.647 304.424 198.229 436.394 26.2461 436.394H21V465.53C21 480.417 33.749 492.485 49.4766 492.485H363.907C379.635 492.485 392.384 480.417 392.384 465.53V45.9553C392.384 31.0683 379.634 19 363.907 19V19Z" fill="#F7D4AD"/>
<path d="M351.353 346.183H87.7686C83.584 346.183 80.1924 342.972 80.1924 339.011C80.1924 335.051 83.584 331.84 87.7686 331.84H351.354C355.538 331.84 358.93 335.051 358.93 339.011C358.93 342.972 355.538 346.183 351.353 346.183Z" fill="#E2A876"/>
<path d="M351.353 384.71H87.7686C83.584 384.71 80.1924 381.5 80.1924 377.539C80.1924 373.578 83.584 370.367 87.7686 370.367H351.354C355.538 370.367 358.93 373.578 358.93 377.539C358.93 381.5 355.538 384.71 351.353 384.71Z" fill="#E2A876"/>
<path d="M351.353 423.238H87.7686C83.584 423.238 80.1924 420.027 80.1924 416.066C80.1924 412.105 83.584 408.895 87.7686 408.895H351.354C355.538 408.895 358.93 412.105 358.93 416.066C358.93 420.028 355.538 423.238 351.353 423.238Z" fill="#E2A876"/>
<path d="M351.353 461.765H87.7686C83.584 461.765 80.1924 458.554 80.1924 454.594C80.1924 450.633 83.584 447.422 87.7686 447.422H351.354C355.538 447.422 358.93 450.633 358.93 454.594C358.93 458.554 355.538 461.765 351.353 461.765Z" fill="#E2A876"/>
<path d="M351.353 269.128H87.7686C83.584 269.128 80.1924 265.918 80.1924 261.957C80.1924 257.996 83.584 254.785 87.7686 254.785H351.354C355.538 254.785 358.93 257.996 358.93 261.957C358.93 265.918 355.538 269.128 351.353 269.128Z" fill="#E2A876"/>
<path d="M351.353 307.656H87.7686C83.584 307.656 80.1924 304.445 80.1924 300.484C80.1924 296.523 83.584 293.312 87.7686 293.312H351.354C355.538 293.312 358.93 296.523 358.93 300.484C358.93 304.446 355.538 307.656 351.353 307.656Z" fill="#E2A876"/>
<path d="M59.8984 346.183C64.0827 346.183 67.4746 342.972 67.4746 339.011C67.4746 335.051 64.0827 331.84 59.8984 331.84C55.7142 331.84 52.3223 335.051 52.3223 339.011C52.3223 342.972 55.7142 346.183 59.8984 346.183Z" fill="#E2A876"/>
<path d="M59.8984 269.128C64.0827 269.128 67.4746 265.918 67.4746 261.957C67.4746 257.996 64.0827 254.785 59.8984 254.785C55.7142 254.785 52.3223 257.996 52.3223 261.957C52.3223 265.918 55.7142 269.128 59.8984 269.128Z" fill="#E2A876"/>
<path d="M59.8984 307.656C64.0827 307.656 67.4746 304.445 67.4746 300.484C67.4746 296.523 64.0827 293.312 59.8984 293.312C55.7142 293.312 52.3223 296.523 52.3223 300.484C52.3223 304.445 55.7142 307.656 59.8984 307.656Z" fill="#E2A876"/>
<path d="M59.8984 384.71C64.0827 384.71 67.4746 381.5 67.4746 377.539C67.4746 373.578 64.0827 370.367 59.8984 370.367C55.7142 370.367 52.3223 373.578 52.3223 377.539C52.3223 381.5 55.7142 384.71 59.8984 384.71Z" fill="#E2A876"/>
<path d="M59.8984 423.234C64.0827 423.234 67.4746 420.023 67.4746 416.062C67.4746 412.101 64.0827 408.891 59.8984 408.891C55.7142 408.891 52.3223 412.101 52.3223 416.062C52.3223 420.023 55.7142 423.234 59.8984 423.234Z" fill="#E2A876"/>
<path d="M59.8984 461.761C64.0827 461.761 67.4746 458.55 67.4746 454.59C67.4746 450.629 64.0827 447.418 59.8984 447.418C55.7142 447.418 52.3223 450.629 52.3223 454.59C52.3223 458.55 55.7142 461.761 59.8984 461.761Z" fill="#E2A876"/>
<path d="M244.281 216.681H168.747C157.078 216.681 148.293 206.623 150.489 195.777L153.456 181.103C154.308 176.893 156.034 172.969 158.482 169.521C162.349 164.027 168.024 159.734 174.804 157.404L206.729 146.441L238.409 157.32C245.223 159.663 250.917 163.988 254.791 169.527V169.534C257.273 173.066 259.006 177.081 259.824 181.393L262.58 195.983C264.619 206.772 255.862 216.681 244.281 216.681Z" fill="#B8B6FF"/>
<path d="M224.199 152.481L206.337 167.241L188.486 152.481V129.824H224.199V152.481Z" fill="#ECBD83"/>
<path d="M234.704 89.8591V109.062C234.704 124.12 221.685 136.803 205.779 136.512C190.365 136.231 177.967 124.316 177.967 109.663V89.8591C177.967 75.0285 190.668 67.2891 206.335 67.2891C222.004 67.2891 234.704 75.0285 234.704 89.8591Z" fill="#F7D4AD"/>
<path d="M176.849 190.752V216.679H168.747C157.078 216.679 148.293 206.622 150.489 195.776L153.456 181.101C154.308 176.892 156.034 172.967 158.482 169.52C168.965 171.501 176.849 180.255 176.849 190.752Z" fill="#A09EEF"/>
<path d="M244.281 216.678H236.471V190.751C236.471 180.273 244.335 171.526 254.79 169.531C257.273 173.063 259.005 177.078 259.824 181.391L262.579 195.981C264.618 206.769 255.862 216.678 244.281 216.678Z" fill="#A09EEF"/>
<path d="M234.705 88.551C233.642 89.3223 232.852 89.8762 232.852 89.8762C230.842 90.9749 228.661 91.981 226.322 92.8697C215.683 96.8999 205.282 97.0479 200.25 93.7113C200.25 93.7113 194.997 90.0011 193.029 87.6318C191.061 85.2625 184.802 84.6623 179.615 89.8762C179.071 90.4218 178.519 90.7807 177.968 90.9906V89.8762C177.968 75.0354 190.674 63.0078 206.353 63.0078C214.193 63.0078 221.291 66.0161 226.42 70.8804C231.254 75.4479 234.351 81.6522 234.705 88.551Z" fill="#6E4848"/>
<path d="M420.63 341.335L394.879 322.251C393.415 321.165 391.355 321.165 389.89 322.251L364.139 341.335C361.483 343.304 357.597 341.513 357.597 338.318V201.491C357.597 199.375 359.409 197.66 361.644 197.66H423.126C425.361 197.66 427.172 199.376 427.172 201.491V338.319C427.172 341.513 423.287 343.304 420.63 341.335Z" fill="#FF445C"/>
<path d="M491.938 148.604C491.938 160.631 478.138 169.972 473.556 180.431C468.806 191.271 471.403 207.078 462.771 215.247C454.142 223.414 437.45 220.944 425.999 225.439C414.954 229.773 405.086 242.84 392.385 242.84C379.684 242.84 369.815 229.773 358.771 225.439C347.319 220.945 330.629 223.414 321.998 215.247C313.366 207.078 315.965 191.271 311.215 180.431C306.632 169.972 292.832 160.63 292.832 148.604C292.832 136.576 306.633 127.235 311.216 116.777C315.966 105.936 313.368 90.1292 322 81.9606C330.63 73.793 347.321 76.2631 358.772 71.7687C369.817 67.4343 379.686 54.3672 392.387 54.3672C405.088 54.3672 414.956 67.4343 426.001 71.7687C437.452 76.2622 454.143 73.793 462.773 81.9606C471.405 90.1292 468.807 105.936 473.557 116.777C478.138 127.235 491.938 136.576 491.938 148.604Z" fill="#FF8B59"/>
<path d="M394.033 101.995L410.022 124.601C410.284 124.971 410.677 125.242 411.131 125.364L438.785 132.771C440.146 133.135 440.68 134.691 439.805 135.742L422.032 157.121C421.74 157.472 421.59 157.91 421.609 158.356L422.711 185.54C422.766 186.877 421.367 187.839 420.041 187.376L393.069 177.983C392.626 177.829 392.14 177.829 391.697 177.983L364.725 187.376C363.398 187.839 362 186.877 362.054 185.54L363.156 158.356C363.175 157.91 363.025 157.472 362.733 157.121L344.96 135.742C344.086 134.691 344.619 133.135 345.98 132.771L373.634 125.364C374.088 125.242 374.482 124.971 374.743 124.601L390.732 101.995C391.52 100.882 393.247 100.882 394.033 101.995Z" fill="#FEE07D"/>
</svg>
