<svg width="512" height="512" viewBox="0 0 512 512" fill="none" xmlns="http://www.w3.org/2000/svg">
<path d="M336 160H328V168C327.981 174.359 325.446 180.453 320.95 184.95C316.453 189.446 310.359 191.981 304 192H208C201.641 191.981 195.547 189.446 191.05 184.95C186.554 180.453 184.019 174.359 184 168V160H176C173.878 160 171.843 160.843 170.343 162.343C168.843 163.843 168 165.878 168 168V472C168 474.122 168.843 476.157 170.343 477.657C171.843 479.157 173.878 480 176 480H336C338.122 480 340.157 479.157 341.657 477.657C343.157 476.157 344 474.122 344 472V168C344 165.878 343.157 163.843 341.657 162.343C340.157 160.843 338.122 160 336 160ZM216 408H184V392H216V408ZM280 416C280 418.122 279.157 420.157 277.657 421.657C276.157 423.157 274.122 424 272 424H240C237.878 424 235.843 423.157 234.343 421.657C232.843 420.157 232 418.122 232 416V384C232 381.878 232.843 379.843 234.343 378.343C235.843 376.843 237.878 376 240 376H272C274.122 376 276.157 376.843 277.657 378.343C279.157 379.843 280 381.878 280 384V416ZM328 408H296V392H328V408ZM312 328C312.001 313.523 306.369 299.614 296.296 289.216L262.312 332.912L249.688 323.088L283.68 279.384C275.171 274.515 265.531 271.969 255.728 272.002C245.924 272.034 236.301 274.643 227.825 279.568C219.348 284.493 212.315 291.56 207.431 300.061C202.548 308.561 199.985 318.196 200 328H184C183.973 315.199 187.366 302.624 193.829 291.574C200.291 280.525 209.589 271.403 220.759 265.151C231.929 258.899 244.567 255.746 257.365 256.016C270.162 256.286 282.656 259.971 293.552 266.688L305.688 251.088L318.312 260.912L306.2 276.488C313.098 283.177 318.582 291.183 322.327 300.032C326.072 308.881 328.001 318.391 328 328H312Z" fill="#293D7C"/>
<path d="M264 392H248V408H264V392Z" fill="#37C47A"/>
<path d="M432 295.996C444.73 295.996 456.939 290.939 465.941 281.937C474.943 272.936 480 260.727 480 247.996C480 235.266 474.943 223.057 465.941 214.055C456.939 205.053 444.73 199.996 432 199.996H409.84C408.333 200.004 406.855 199.587 405.576 198.792C404.296 197.997 403.266 196.857 402.606 195.503C401.946 194.149 401.681 192.636 401.843 191.138C402.005 189.64 402.586 188.218 403.52 187.036C416.841 170.246 424.063 149.429 424 127.996C424.021 103.69 414.816 80.2821 398.243 62.5017C381.671 44.7213 358.967 33.8941 334.72 32.2079C310.472 30.5216 286.488 38.102 267.614 53.4173C248.741 68.7326 236.383 90.6411 233.04 114.716C232.816 116.295 232.124 117.771 231.055 118.954C229.986 120.137 228.588 120.973 227.04 121.356C225.489 121.744 223.856 121.654 222.357 121.097C220.858 120.54 219.562 119.543 218.64 118.236C209.785 105.807 197.21 96.5133 182.73 91.6956C168.25 86.8779 152.613 86.7857 138.077 91.4322C123.541 96.0787 110.858 105.224 101.857 117.547C92.8561 129.871 88.0037 144.736 88 159.996C87.9618 169.919 90.0343 179.736 94.08 188.796C94.591 190.021 94.7996 191.352 94.6882 192.674C94.5768 193.997 94.1487 195.274 93.44 196.396C92.7011 197.501 91.7017 198.408 90.5297 199.036C89.3578 199.664 88.0495 199.993 86.72 199.996H80C67.2696 199.996 55.0606 205.053 46.0589 214.055C37.0571 223.057 32 235.266 32 247.996C32 260.727 37.0571 272.936 46.0589 281.937C55.0606 290.939 67.2696 295.996 80 295.996H152V167.996C152.019 161.637 154.554 155.543 159.05 151.047C163.547 146.55 169.641 144.015 176 143.996H336C342.359 144.015 348.453 146.55 352.95 151.047C357.446 155.543 359.981 161.637 360 167.996V295.996H432Z" fill="#31C5FF"/>
<path d="M496 464C496.01 471.781 493.179 479.297 488.04 485.139C482.901 490.98 475.806 494.745 468.088 495.727C460.37 496.709 452.558 494.841 446.12 490.472C439.682 486.103 435.059 479.535 433.12 472H416C409.641 471.981 403.547 469.446 399.051 464.95C394.554 460.453 392.019 454.359 392 448V304H408V448C408 450.122 408.843 452.157 410.343 453.657C411.844 455.157 413.878 456 416 456H433.12C435.059 448.465 439.682 441.897 446.12 437.528C452.558 433.159 460.37 431.291 468.088 432.273C475.806 433.255 482.901 437.02 488.04 442.861C493.179 448.703 496.01 456.22 496 464Z" fill="#E87F24"/>
<path d="M120.016 304V448C119.997 454.359 117.462 460.453 112.966 464.95C108.469 469.446 102.375 471.981 96.016 472H78.896C76.9488 479.541 72.3181 486.114 65.8719 490.485C59.4257 494.856 51.6065 496.726 43.88 495.745C36.1535 494.764 29.0501 490.998 23.9014 485.154C18.7527 479.31 15.9121 471.789 15.9121 464C15.9121 456.211 18.7527 448.69 23.9014 442.846C29.0501 437.002 36.1535 433.236 43.88 432.255C51.6065 431.274 59.4257 433.144 65.8719 437.515C72.3181 441.886 76.9488 448.459 78.896 456H96.016C98.1377 456 100.173 455.157 101.673 453.657C103.173 452.157 104.016 450.122 104.016 448V304H120.016Z" fill="#E87F24"/>
<path d="M304 176C306.122 176 308.157 175.157 309.657 173.657C311.157 172.157 312 170.122 312 168V160H200V168C200 170.122 200.843 172.157 202.343 173.657C203.843 175.157 205.878 176 208 176H304Z" fill="#37C47A"/>
</svg>
