<svg width="512" height="512" viewBox="0 0 512 512" fill="none" xmlns="http://www.w3.org/2000/svg">
<path d="M210.699 24.5516C177.299 28.4516 152.999 35.2516 124.999 48.5516C119.599 51.1516 115.199 53.4516 115.199 53.7516C115.199 54.0516 117.699 55.4516 120.699 56.7516C137.999 64.2516 145.899 82.3516 140.199 101.552C138.699 106.752 138.199 110.252 138.599 113.052C138.999 115.152 142.599 123.652 146.699 131.952L154.199 146.852L158.499 144.252C160.799 142.752 172.799 134.752 185.199 126.352C213.299 107.352 218.399 104.452 229.499 100.752C236.299 98.4516 241.899 97.4516 253.999 96.3516C277.499 94.3516 282.999 91.9516 304.699 74.8516C316.899 65.1516 319.599 63.8516 323.599 65.4516C325.499 66.1516 346.099 96.6516 350.099 104.752C353.699 111.952 357.099 121.852 357.899 127.452C358.199 129.952 358.799 132.152 359.199 132.352C360.399 133.052 368.199 110.252 369.899 101.352C372.299 87.9516 370.099 73.6516 363.399 59.8516C358.299 49.2516 344.799 35.8516 333.999 30.5516C320.299 23.9516 319.499 23.8516 263.699 24.0516C236.199 24.0516 212.399 24.3516 210.699 24.5516Z" fill="#162C47"/>
<path d="M311.699 88.0516C292.899 103.852 278.499 109.752 254.699 111.352C241.999 112.252 233.599 114.052 226.199 117.752C222.999 119.352 208.699 128.452 194.299 138.052L168.199 155.352V161.552V167.852H203.699C243.399 167.852 244.999 168.052 247.099 173.852C247.699 175.652 248.199 178.652 248.199 180.452V183.852H256.199H264.199V180.352C264.199 174.652 266.499 170.252 270.199 168.952C272.399 168.252 285.099 167.852 308.799 167.852H344.199V150.552C344.199 131.352 342.699 122.752 337.599 112.652C334.399 106.252 319.199 82.8516 318.299 82.9516C317.999 82.9516 314.999 85.2516 311.699 88.0516Z" fill="#162C47"/>
<path d="M140.099 187.754C135.599 192.254 134.699 197.354 137.299 204.054C138.299 206.554 154.799 220.554 155.699 219.654C155.999 219.454 155.499 214.354 154.699 208.254C153.899 202.254 153.199 194.354 153.199 190.554V183.854H148.599C144.599 183.854 143.499 184.354 140.099 187.754Z" fill="#162C47"/>
<path d="M168.199 190.152C168.199 213.852 177.299 248.952 190.099 274.352L196.699 287.352H256.199H315.699L322.299 274.352C335.099 248.952 344.199 213.852 344.199 190.152V183.852H336.299H328.499L327.999 198.052C327.499 214.552 326.099 219.052 319.499 224.952C313.599 230.252 309.599 231.352 295.699 231.352C285.699 231.252 282.899 230.952 279.199 229.252C270.299 225.052 265.799 218.152 264.599 206.552L263.899 199.852H256.199H248.499L247.799 206.552C246.899 215.152 244.499 220.452 239.499 224.952C233.599 230.252 229.599 231.352 215.699 231.352C202.399 231.252 197.399 229.852 191.799 224.252C186.299 218.752 184.899 213.852 184.399 198.052L183.899 183.852H176.099H168.199V190.152Z" fill="#162C47"/>
<path d="M200.2 197.851C200.2 216.251 199.8 215.851 216.2 215.851C232.6 215.851 232.2 216.251 232.2 197.851V183.851H216.2H200.2V197.851Z" fill="#162C47"/>
<path d="M280.2 197.851C280.2 216.251 279.8 215.851 296.2 215.851C312.6 215.851 312.2 216.251 312.2 197.851V183.851H296.2H280.2V197.851Z" fill="#162C47"/>
<path d="M359.201 190.551C359.201 194.351 358.501 202.251 357.701 208.251C356.901 214.351 356.401 219.451 356.701 219.651C357.401 220.351 372.501 207.851 374.401 205.051C375.601 203.351 376.201 200.451 376.201 196.951C376.201 192.051 375.901 191.251 372.301 187.751C368.901 184.351 367.801 183.851 363.801 183.851H359.201V190.551Z" fill="#162C47"/>
<path d="M101.701 305.752C99.5013 306.752 96.3013 309.152 94.5013 310.952C87.9013 317.952 88.2013 313.252 88.2013 404.852V487.852H256.201H424.201V404.552C424.201 325.652 424.101 321.152 422.301 317.352C421.301 315.152 418.901 311.952 417.101 310.152C409.901 303.352 421.901 303.852 256.001 303.852C111.701 303.852 105.501 303.952 101.701 305.752ZM200.001 338.552L186.701 351.852L200.001 365.152L213.201 378.352L207.901 383.652L202.601 388.852L185.901 372.052C170.901 356.952 169.201 354.852 169.201 351.852C169.201 348.852 170.901 346.752 185.901 331.652L202.601 314.852L207.901 320.052L213.201 325.352L200.001 338.552ZM343.201 351.852C343.201 354.852 341.501 356.952 326.501 372.052L309.801 388.852L304.501 383.652L299.201 378.352L312.401 365.152L325.701 351.852L312.401 338.552L299.201 325.352L304.501 320.052L309.701 314.852L326.501 331.652C341.501 346.752 343.201 348.852 343.201 351.852ZM280.501 320.752C283.101 322.652 285.201 324.452 285.201 324.852C285.201 325.252 274.701 339.552 261.801 356.652L238.501 387.752L233.101 383.752C230.101 381.552 227.701 379.252 227.701 378.652C227.701 376.552 273.701 316.052 274.801 316.752C275.401 317.052 277.901 318.852 280.501 320.752ZM268.701 403.352C275.501 406.352 280.201 410.652 283.801 417.052C286.401 421.852 286.701 423.252 286.701 431.852C286.701 440.552 286.401 441.852 283.701 446.752C278.201 456.752 269.501 461.952 257.601 462.652C250.401 463.052 248.701 462.752 244.001 460.652C236.501 457.152 231.801 452.752 228.201 445.652C225.601 440.452 225.201 438.452 225.201 431.852C225.201 425.252 225.601 423.252 228.201 418.052C235.901 402.652 253.201 396.452 268.701 403.352Z" fill="#31C5FF"/>
<path d="M247.399 417.85C242.599 420.85 240.199 425.35 240.199 431.85C240.199 438.35 242.599 442.85 247.399 445.85C251.899 448.55 260.499 448.55 264.999 445.85C269.799 442.85 272.199 438.35 272.199 431.85C272.199 425.35 269.799 420.85 264.999 417.85C260.499 415.15 251.899 415.15 247.399 417.85Z" fill="#162C47"/>
<path d="M63.6 381.952C46.1 393.352 33.5 410.452 27 431.452C25.2 437.452 24.8 441.452 24.5 463.052L24 487.852H48.1H72.2V432.352C72.2 401.852 72 376.852 71.8 376.852C71.6 376.852 67.9 379.152 63.6 381.952Z" fill="#162C47"/>
<path d="M440.199 432.352V487.852H464.299H488.399L487.999 463.052C487.599 439.252 487.499 438.052 484.799 429.852C479.799 414.852 473.299 404.052 462.799 393.452C457.299 387.852 448.599 381.152 442.499 377.952L440.199 376.752V432.352Z" fill="#162C47"/>
<rect x="146" y="304" width="225" height="158" fill="#31C5FF"/>
<path d="M262.239 313L181 340.816L193.837 444.375L262.326 481L331.167 443.879L344 340.324L262.239 313Z" fill="#B3B3B3"/>
<path d="M335.899 346.309L262.051 321.808V472.25L323.939 438.926L335.899 346.309Z" fill="#AF2B2D"/>
<path d="M190.117 346.752L201.118 439.368L262.05 472.25V321.805L190.117 346.752Z" fill="#DF2E31"/>
<path d="M279.167 396.63L262.184 362.124L247.234 396.63H279.167ZM285.642 411.139H240.625L230.554 435.647L211.82 435.984L262.05 327.265L314.031 435.984H296.668L285.642 411.139Z" fill="#F2F2F2"/>
<path d="M262.051 327.266L262.185 362.124L279.15 396.657H262.089L262.051 411.117L285.642 411.139L296.668 435.989L314.593 436.312L262.051 327.266Z" fill="#B3B3B3"/>
</svg>
