<svg width="512" height="512" viewBox="0 0 512 512" fill="none" xmlns="http://www.w3.org/2000/svg">
<path d="M0 31.3V62.5L16 78.5L32 94.5V223.7V353H16H0V432.5V512H63.5H127V480V448H151.5H176V480V512H256H336V480V448H360.5H385V480V512H448.5H512V432.5V353H496H480V223.7V94.5L496 78.5L512 62.5V31.3V0H496.5H481V24.8V49.5L465 65.5L449 81.5V113.2V145H432.5H416V129V113H399.6H383.3L381.5 108.4L379.8 103.8L391.1 92.4L402.5 81L368.7 47.3L335 13.5L323.6 24.9L312.1 36.3L308.3 34.9L304.5 33.4L304.2 17.2L304 1H256H208L207.8 17.2L207.5 33.4L203.7 34.9L199.9 36.3L188.4 24.9L177 13.5L143.3 47.3L109.5 81L120.9 92.4L132.2 103.8L130.5 108.4L128.7 113H112.4H96V129V145H79.5H63V113.2V81.5L47 65.5L31 49.5V24.8V0H15.5H0V31.3ZM271.9 91.6C287 95.3 302.5 105.2 311.5 117.2C321.6 130.5 326.4 144.5 326.3 160.5C326.3 172.6 324.4 180.5 318.7 192C315.4 198.9 312.9 202.2 305.5 209.5C290.7 224.4 276.2 230.5 256 230.5C235.8 230.5 221.3 224.4 206.5 209.5C199.1 202.2 196.6 198.9 193.3 192C191 187.3 188.4 180.6 187.4 177C185.2 168.3 185.1 152.5 187.4 144C194.1 118.4 213.4 98.8 238.6 92C247.4 89.6 263 89.4 271.9 91.6ZM96 192V208H112.4H128.8L130.5 212.2L132.1 216.3L121.1 227.4C115 233.5 110 239 110 239.5C110 240 125 255.5 143.2 273.7L176.5 307L188 295.5L199.5 284L203.8 285.6L208 287.3V303.7V320H224H240V336.5V353H208H176V385V417H151.5H127V385V353H95H63V264.5V176H79.5H96V192ZM449 264.5V353H417H385V385V417H360.5H336V385V353H304H272V336.5V320H288H304V303.7V287.3L308.2 285.6L312.5 284L324 295.5L335.5 307L368.8 273.7C387 255.5 402 240 402 239.5C402 239 397 233.5 390.9 227.4L379.9 216.3L381.5 212.2L383.2 208H399.6H416V192V176H432.5H449V264.5ZM271 432.5V447H256H241V432.5V418H256H271V432.5Z" fill="#31B791"/>
<path d="M242.9 120.899C214 130.099 205 167.599 226.4 189.499C250.1 213.699 292.2 200.099 296.9 166.699C300.5 140.599 281.7 118.899 255.6 119.099C251.7 119.099 246 119.899 242.9 120.899Z" fill="#347584"/>
</svg>
