<svg width="512" height="512" viewBox="0 0 512 512" fill="none" xmlns="http://www.w3.org/2000/svg">
<path d="M114.375 19.2676C104.175 22.0676 96.575 29.3676 93.575 39.3676C91.475 46.4676 91.475 465.068 93.575 472.168C95.475 478.568 99.675 484.268 104.775 487.868C113.775 493.968 109.975 493.868 232.275 493.568L343.675 493.268L349.375 490.468C355.475 487.468 359.875 483.068 363.375 476.468C365.675 472.368 365.675 471.468 365.975 435.068L366.275 397.768H357.475C352.475 397.668 346.975 397.068 344.675 396.268C342.475 395.468 340.375 394.768 339.975 394.768C339.475 394.768 339.175 397.468 339.175 400.768V406.768H229.175H119.175V248.268V89.7675H229.175H339.175V135.368C339.175 178.468 339.275 180.968 340.975 180.168C341.875 179.768 347.975 179.168 354.475 178.968L366.275 178.568L365.975 108.968L365.675 39.2676L362.675 33.8676C359.375 27.9676 355.075 23.9676 348.175 20.5676L343.675 18.2676L231.675 18.0676C136.775 17.8676 118.875 18.0676 114.375 19.2676ZM252.675 49.2676C254.075 50.5676 255.175 52.5676 255.175 53.7676C255.175 54.8676 254.075 56.9676 252.675 58.2676C250.275 60.7676 250.175 60.7676 229.775 60.7676C218.575 60.7676 208.575 60.4676 207.675 60.1676C206.875 59.7676 205.475 58.2676 204.575 56.6676C203.275 54.0676 203.275 53.4676 204.675 50.8676C205.475 49.2676 206.675 47.7676 207.375 47.4676C208.075 47.1676 218.075 46.8676 229.475 46.8676C250.275 46.7676 250.275 46.7676 252.675 49.2676ZM258.175 447.768C259.275 448.868 260.175 451.068 260.175 452.768C260.175 454.468 259.275 456.668 258.175 457.768C256.275 459.668 254.875 459.768 229.775 459.768C204.675 459.768 203.275 459.668 200.775 457.668C199.075 456.368 198.175 454.668 198.175 452.768C198.175 450.868 199.075 449.168 200.775 447.868C203.275 445.868 204.675 445.768 229.775 445.768C254.875 445.768 256.275 445.868 258.175 447.768Z" fill="#58595B"/>
<path d="M244.675 107.166C241.875 108.366 240.275 111.966 219.475 164.566C205.675 199.266 197.175 221.866 197.175 224.066C197.175 226.166 197.875 228.166 199.175 229.266C201.975 231.766 207.675 231.766 210.075 229.166C211.575 227.666 254.375 121.666 255.975 115.566C256.775 112.466 254.175 107.966 250.975 106.866C249.275 106.266 247.875 105.766 247.775 105.766C247.675 105.866 246.375 106.466 244.675 107.166Z" fill="#0090FF"/>
<path d="M158.375 145.966C149.375 154.966 141.375 163.566 140.575 165.066C137.775 170.266 139.275 172.466 157.575 190.566C173.275 206.266 175.075 207.766 178.275 207.766C182.875 207.766 186.175 204.366 186.175 199.766C186.175 196.766 184.575 194.866 172.475 182.566L158.775 168.766L172.475 154.966C184.075 143.266 186.175 140.666 186.175 138.066C186.175 133.366 182.775 129.766 178.375 129.766C175.075 129.766 173.475 131.066 158.375 145.966Z" fill="#0090FF"/>
<path d="M274.675 132.266C269.575 137.266 270.875 139.766 286.975 155.966L299.675 168.766L286.975 181.466C274.075 194.566 272.175 197.066 272.175 200.766C272.175 204.066 276.575 207.766 280.375 207.766C283.375 207.766 285.575 205.966 301.475 189.966C317.475 173.866 319.175 171.766 319.175 168.766C319.175 165.666 317.475 163.666 301.375 147.566C285.575 131.766 283.275 129.766 280.375 129.766C278.175 129.766 276.275 130.666 274.675 132.266Z" fill="#0090FF"/>
<path d="M343.275 194.866C342.075 196.166 341.175 199.066 340.775 202.566C339.275 216.066 339.575 215.366 333.875 217.266C331.075 218.166 326.675 219.966 324.175 221.266L319.675 223.566L312.175 218.166C308.075 215.166 303.675 212.766 302.375 212.766C298.575 212.766 294.875 215.266 288.375 222.266C280.075 231.066 279.975 233.466 287.675 243.166C290.675 246.966 293.175 250.166 293.175 250.266C293.175 250.366 291.875 253.366 290.275 256.866C288.675 260.366 287.075 264.666 286.775 266.466C285.975 269.866 286.275 269.766 273.775 271.866C263.575 273.566 263.175 274.266 263.175 288.666C263.175 304.366 263.375 304.666 276.375 306.066L285.875 307.166L287.575 312.266C288.475 315.166 290.275 319.566 291.575 321.966L293.975 326.466L288.575 334.266C281.075 345.266 281.175 346.166 291.475 356.466C302.075 366.966 303.075 367.166 313.475 358.866L320.775 353.066L324.275 354.866C326.175 355.866 330.475 357.666 333.875 358.766C340.675 361.066 340.075 360.166 342.275 373.066C343.875 382.766 345.475 383.766 358.775 383.766C369.275 383.766 373.475 382.766 374.775 379.866C375.175 378.966 375.975 374.266 376.575 369.466L377.675 360.566L383.075 358.766C385.975 357.666 390.375 355.866 392.775 354.766L397.175 352.566L404.375 357.666C414.675 364.966 417.275 364.766 425.875 356.466C432.575 350.066 435.175 346.266 435.175 342.866C435.175 341.866 432.575 337.466 429.375 333.266L423.575 325.566L426.275 319.866C427.775 316.766 429.475 312.366 430.075 310.166L431.175 306.066L439.275 304.866C453.475 302.666 454.175 301.766 454.175 286.166C454.175 272.466 453.375 271.566 440.675 269.966C435.775 269.266 431.475 268.466 431.075 268.066C430.775 267.566 429.875 265.466 429.175 263.266C428.475 261.066 426.775 257.066 425.475 254.366L422.975 249.466L428.075 242.166C432.075 236.466 433.175 234.066 433.175 230.966C433.175 227.466 432.475 226.466 425.275 219.466C415.075 209.566 413.475 209.366 403.175 217.366L396.075 222.966L389.275 219.866C385.575 218.166 381.175 216.566 379.475 216.166C376.475 215.566 376.375 215.466 375.175 206.566C374.375 200.866 373.175 196.766 371.975 195.166C370.075 192.866 369.575 192.766 357.675 192.766C346.375 192.766 345.075 192.966 343.275 194.866ZM371.575 259.666C395.475 271.366 395.375 304.766 371.375 316.466C351.375 326.266 327.175 310.466 327.175 287.666C327.175 275.066 336.175 262.866 349.075 258.066C354.575 256.066 365.675 256.866 371.575 259.666Z" fill="#FF6726"/>
</svg>
