<svg width="512" height="512" viewBox="0 0 512 512" fill="none" xmlns="http://www.w3.org/2000/svg">
<path d="M272.826 90.8145C280.189 80.807 289.65 72.5107 300.553 66.4996C311.456 60.4884 323.542 56.9059 335.974 56C337.036 67.5022 335.743 79.0993 332.172 90.09C328.6 101.081 322.826 111.236 315.197 119.943C308.447 129.305 299.402 136.794 288.922 141.697C278.442 146.601 266.876 148.756 255.324 147.958C254.107 137.746 255.035 127.395 258.048 117.558C261.06 107.722 266.093 98.6154 272.826 90.8145Z" fill="black" fill-opacity="0.78"/>
<path d="M258.742 170.764C272.325 170.764 297.509 152.192 330.375 152.192C345.854 151.528 361.242 154.863 375.041 161.873C388.839 168.883 400.579 179.328 409.115 192.192C395.803 199.879 384.77 210.931 377.135 224.228C369.5 237.525 365.534 252.594 365.639 267.907C365.717 285.253 370.883 302.198 380.504 316.663C390.125 331.129 403.782 342.484 419.798 349.336C419.798 349.336 381.935 455.365 330.777 455.365C307.287 455.365 289.023 439.651 264.284 439.651C239.057 439.651 214.03 455.994 197.734 455.994C151.055 455.994 92 355.408 92 274.564C92 195.021 141.938 153.292 188.774 153.292C219.228 153.292 242.847 170.764 258.742 170.764Z" fill="black" fill-opacity="0.78"/>
</svg>
