<svg width="512" height="512" viewBox="0 0 512 512" fill="none" xmlns="http://www.w3.org/2000/svg">
<g clip-path="url(#clip0_1943_3073)">
<path d="M81.1 1.5976C72.7 3.79761 66.2 7.89761 58.3 15.5976C50.1 23.5976 45 32.8976 43.1 43.3976C41.6 51.7976 41.6 460.198 43.1 468.598C45 479.098 50.1 488.398 58.3 496.398C62.3 500.298 67.8 504.698 70.6 506.198C81.9 512.298 73.6 511.998 235 511.998C367.2 511.998 383.2 511.798 388.1 510.398C407 504.898 422.5 488.098 426 469.498C426.7 465.698 427 453.898 426.8 436.798L426.5 409.998L423.7 407.298C421.2 404.698 420.3 404.498 414.2 404.698C407.2 404.798 387.9 403.298 385.6 402.398C384.6 401.998 384.2 403.798 383.8 410.198C383.3 419.198 381.8 422.898 377.4 424.798C375.6 425.698 338.3 425.998 233.9 425.998H92.8L89.4 422.598L86 419.198V234.598V49.9976L88.9 46.7976L91.8 43.4976L233 43.1976C357.3 42.9976 374.5 43.1976 377.3 44.4976C383.2 47.2976 383.5 48.3976 383.8 71.6976C384 83.3976 384.3 92.9976 384.5 92.9976C384.8 92.9976 387.3 92.0976 390.1 90.9976C396.5 88.3976 407.8 85.9976 413.1 85.9976C418.7 85.9976 423.6 83.6976 425.4 80.0976C427.3 76.4976 427.7 50.2976 425.9 41.7976C422.2 23.4976 406.6 6.99759 388.1 1.5976C383.2 0.197601 367.3 -0.00238037 234.6 0.0975952C108.5 0.0975952 85.7 0.297607 81.1 1.5976ZM245.6 441.398C251.3 445.098 254.3 450.098 254.8 456.598C255.9 470.298 246.2 479.898 232.5 478.798C216 477.398 208.3 457.798 219.3 445.298C226.1 437.598 237.4 435.898 245.6 441.398Z" fill="#58595B"/>
<path d="M404.5 107.5C383 112.1 366.5 129.8 362.9 151.9C360.7 164.9 364.8 171 375.5 171C397.6 171 419.6 153.1 425.5 130.3C428.6 118.4 426.8 110.1 420.5 107.4C416.4 105.7 412.5 105.7 404.5 107.5Z" fill="#FF6726"/>
<path d="M307.4 193.3C298.4 196.3 290.4 201.6 281.4 210.5C264 227.7 255.9 247.8 255.9 273.5C255.9 298.4 265.7 328.7 281.6 353.2C288.2 363.4 302 376.9 309.5 380.6C315.1 383.3 316.2 383.5 327.5 383.5C338.9 383.4 340 383.3 350 379.6C363.6 374.5 367.4 374.5 381 379.6C391 383.3 392.1 383.4 403.5 383.5C414.8 383.5 415.9 383.3 421.5 380.6C429.3 376.7 441.9 364.2 449.3 352.9C460.5 335.9 470.9 311.3 469.5 305.1C468.6 300.7 464.5 297.3 458.9 296.1C449.1 294 441.3 288.2 436.8 279.7C435.1 276.5 434.5 273.8 434.5 268C434.5 261.4 434.9 259.8 437.6 255C441 248.9 447.7 243.3 454.2 240.9C459.9 238.8 463.4 233.9 462.7 228.8C461.6 220.4 445.1 203.6 431.2 196.7L422.6 192.5L410.6 192.6C399.4 192.6 397.5 193 384.5 196.9C376 199.5 368.5 201.1 365.4 201.1C362.3 201.1 354.9 199.5 346.4 196.9C334.7 193.4 330.8 192.7 322 192.4C315.1 192.1 310.1 192.5 307.4 193.3Z" fill="#FF6726"/>
</g>
<defs>
<clipPath id="clip0_1943_3073">
<rect width="512" height="512" fill="white"/>
</clipPath>
</defs>
</svg>
