<svg width="512" height="512" viewBox="0 0 512 512" fill="none" xmlns="http://www.w3.org/2000/svg">
<g clip-path="url(#clip0_1902_343)">
<path d="M0 2.79999C0 4.29999 9.4 109.5 21 236.5C32.6 363.5 42 467.9 42 468.6C42 469.3 82.5 477.8 149 491.1L256 512.5L363 491.1C429.5 477.8 470 469.3 470 468.6C470 467.9 479.5 363.5 491 236.5C502.6 109.5 512 4.29999 512 2.79999V0H256H0V2.79999ZM234 253.1C234 411.7 233.9 420.1 232.3 419.6C231.3 419.4 206.2 414.4 176.4 408.5L122.4 397.8L119.1 361.2C117.4 341 115.7 323.5 115.4 322.2L115 320H135.9H156.9L157.4 324.2C157.7 326.6 158.7 336.1 159.5 345.4C160.3 354.7 161.1 362.5 161.4 362.8C161.9 363.3 188.5 368.9 190.8 369C191.7 369 192 340.1 192 227.5V86H213H234V253.1ZM417.6 90.7C417.3 93.4 416.6 100.9 416 107.5C415.4 114.1 414.7 121.4 414.4 123.7L413.9 128H366.9H320V181.5V235H362C394.9 235 404 235.3 404 236.2C404.1 236.9 400.8 273.6 396.9 317.7L389.6 397.8L335.6 408.5C305.8 414.4 280.7 419.4 279.7 419.7C278.1 420.1 278 418.8 278.2 398.9L278.5 377.6L314.3 370.4C333.9 366.5 350.3 363.1 350.5 362.8C350.8 362.6 352.6 344.8 354.5 323.4C356.4 302 358.2 282.8 358.5 280.7L359 277H318.5H278V181.5V86H348.1H418.2L417.6 90.7Z" fill="#FF6726"/>
</g>
<defs>
<clipPath id="clip0_1902_343">
<rect width="512" height="512" fill="white"/>
</clipPath>
</defs>
</svg>
