<svg width="512" height="512" viewBox="0 0 512 512" fill="none" xmlns="http://www.w3.org/2000/svg">
<path d="M376 36V48H364H352V56V64H364H376V76V88H384H392V76V64H404H416V56V48H404H392V36V24H384H376V36ZM392 56V64H384H376V56V48H384H392V56Z" fill="#E00000"/>
<path d="M98 33.9992C96 35.9992 96 36.9992 96 122.699V209.499L102.5 209.199C110.9 208.699 117.5 210.899 123.4 216.099L128 220.199V182.099V143.999H216H304V89.9992C304 37.0992 304 35.9992 302 33.9992C300.1 32.0992 298.9 31.9992 284.8 32.1992L269.7 32.4992L267.5 40.4992C264.9 50.2992 263 53.8992 258.8 57.4992C251.5 63.6992 253 63.4992 200 63.4992C147 63.4992 148.5 63.6992 141.2 57.4992C137 53.8992 135.1 50.2992 132.5 40.4992L130.3 32.4992L115.2 32.1992C101.1 31.9992 99.9 32.0992 98 33.9992ZM151.1 82.5992C158.2 86.7992 160.9 94.9992 159.7 109.199C158.4 124.099 150.3 129.299 130.8 127.699C115.9 126.399 110.7 118.299 112.3 98.7992C112.9 91.2992 115 86.8992 119.1 83.7992C123 80.7992 127.5 79.9992 138.1 80.3992C145.5 80.5992 148.6 81.0992 151.1 82.5992ZM215.1 82.5992C222.2 86.7992 224.9 94.9992 223.7 109.199C222.4 124.099 214.3 129.299 194.8 127.699C179.9 126.399 174.7 118.299 176.3 98.7992C176.9 91.2992 179 86.8992 183.1 83.7992C187 80.7992 191.5 79.9992 202.1 80.3992C209.5 80.5992 212.6 81.0992 215.1 82.5992ZM279.1 82.5992C286.2 86.7992 288.9 94.9992 287.7 109.199C286.4 124.099 278.3 129.299 258.8 127.699C243.9 126.399 238.7 118.299 240.3 98.7992C240.9 91.2992 243 86.8992 247.1 83.7992C251 80.7992 255.5 79.9992 266.1 80.3992C273.5 80.5992 276.6 81.0992 279.1 82.5992Z" fill="#E00000"/>
<path d="M128 104V112H136.5H145V108.6C145 106.8 144.7 103.2 144.4 100.6L143.7 96H135.9H128V104Z" fill="#E00000"/>
<path d="M192 104V112H200.5H209V108.6C209 106.8 208.7 103.2 208.4 100.6L207.7 96H199.9H192V104Z" fill="#E00000"/>
<path d="M256 104V112H264.5H273V108.6C273 106.8 272.7 103.2 272.4 100.6L271.7 96H263.9H256V104Z" fill="#E00000"/>
<path d="M146 32.7001C146 33.2001 146.7 35.9001 147.4 38.9001C150.1 48.8001 145.6 48.0001 200 48.0001C254.4 48.0001 249.9 48.8001 252.6 38.9001C253.3 35.9001 254 33.2001 254 32.7001C254 32.3001 229.7 32.0001 200 32.0001C170.3 32.0001 146 32.3001 146 32.7001Z" fill="#E00000"/>
<path d="M448 100V112H436H424V120V128H436H448V140V152H456H464V140V128H476H488V120V112H476H464V100V88H456H448V100ZM464 120V128H456H448V120V112H456H464V120Z" fill="#E00000"/>
<path d="M144.3 252.201C144.6 343.301 144.6 344.601 146.8 353.501C153.8 382.201 166 406.301 183.7 426.201C207.9 453.501 240.9 471.901 276.4 478.001C293.3 480.901 330.7 480.901 347.6 478.001C414.2 466.601 466.7 413.901 478.1 346.901C479.9 336.201 480.2 331.901 479.7 315.001C479.1 293.601 477.3 283.401 471 265.501C459.8 234.101 437.7 205.801 409.5 186.801C393.2 175.801 376.4 168.601 355 163.201L344.5 160.601L244.2 160.301L143.9 159.901L144.3 252.201ZM409 210.601C414.4 213.101 420.3 219.301 422.1 224.601C423.2 227.801 423.5 243.801 423.5 312.001C423.5 404.601 423.8 400.001 416.8 407.601C409 416.001 416.4 415.501 304 415.501C191.6 415.501 199 416.001 191.2 407.601C184.2 400.001 184.5 404.601 184.5 312.001C184.5 220.101 184.2 224.101 190.8 216.801C194.9 212.301 198.5 210.201 204.3 209.001C206.6 208.601 252.6 208.301 306.5 208.301C403.6 208.501 404.5 208.501 409 210.601Z" fill="black"/>
<path d="M202 226C200 228 200 229.3 200 290V352H304H408V290C408 229.3 408 228 406 226C404 224 402.7 224 304 224C205.3 224 204 224 202 226ZM295.8 243C297.6 244.1 308.9 252.4 320.9 261.4C343.7 278.5 346 281 346 288C346 295 343.7 297.5 320.9 314.6C308.9 323.6 297.6 331.9 295.8 333C288.6 337.3 279 334.6 274.6 327C272.6 323.6 272.5 322 272.5 288C272.5 254 272.6 252.4 274.6 249C279 241.4 288.6 238.7 295.8 243Z" fill="#E00000"/>
<path d="M288 288C288 305.6 288.2 320 288.5 320C289.6 320 330.5 288.8 330.5 288C330.5 287.2 289.6 256 288.5 256C288.2 256 288 270.4 288 288Z" fill="#E00000"/>
<path d="M200 382.001C200 401.501 197.4 400.001 230 400.001H256V384.001V368.001H228H200V382.001Z" fill="#E00000"/>
<path d="M272 384V400H304H336V384V368H304H272V384Z" fill="#E00000"/>
<path d="M352 384.001V400.001H378C410.6 400.001 408 401.501 408 382.001V368.001H380H352V384.001Z" fill="#E00000"/>
<path d="M72.8 248.7L48 273.4V308C47.9 327 47.5 345.5 47.1 349.2C46 357.6 42.4 365.6 36.5 372.4L32 377.7V428.9V480H38.7H45.4L65.9 459.7C88.6 437.2 92.1 434.8 104.5 433C108.4 432.5 115.5 432 120.3 432C131.3 432 134.4 430.7 142.7 422.8L149.2 416.5L124.3 416C102 415.5 99 415.3 95 413.4C89.6 410.9 83.7 404.7 81.9 399.4C79.9 393.7 79.9 291.3 81.9 285.5C82.9 282.6 87.7 277 100.1 264.5C109.3 255.1 117.4 246.2 117.9 244.7C120.5 238 118.6 231.4 113 226.6C110.3 224.4 108.9 224 103.7 224H97.6L72.8 248.7Z" fill="black"/>
<path d="M111.8 273.6L96 289.7V342.8C96 394.7 96.1 396.1 98 398C99.9 399.9 101.3 400 124 400H148L145.6 395.2C142.1 388.2 136.4 372.6 134 363.2C129.7 346.1 128.8 336.1 128.1 296L127.5 257.5L111.8 273.6Z" fill="#E00000"/>
</svg>
