<svg width="512" height="512" viewBox="0 0 512 512" fill="none" xmlns="http://www.w3.org/2000/svg">
<path d="M235 1.5C197.1 9.10001 166.9 37.2 155.4 75.6C151.6 88.2 150.9 111 153.8 125C157.9 144.7 166.6 161.5 180.4 175.7C192.6 188.5 205.7 197 221.5 202.5L228.5 204.9L228.8 222.5L229 240H218.2C208.2 240 207.2 240.2 205.2 242.3C203.8 243.8 203 245.9 203 248.1C203 251.2 205 253.5 227.8 276.3C250.7 299.2 252.8 301 256 301C259.3 301 261.4 299.2 284.3 276.2C307.3 253.2 309 251.2 309 247.9C309 245.5 308.3 243.7 306.7 242.2C304.6 240.2 303.3 240 293.7 240H283L283.2 222.4L283.5 204.8L289 203C317 194.2 342.5 170.1 353.1 142.6C358.8 127.9 360.2 118.6 359.7 100.5C359.3 86.9 358.9 83.2 356.6 75.6C344.9 36.7 314.6 8.79999 276.2 1.39999C267.1 -0.300018 243.9 -0.300018 235 1.5ZM275.5 27C283.2 28.9 299.9 37.3 306.4 42.8C314.9 49.9 321.5 58.2 326.6 68.5C332.7 80.8 335 90.7 335 104C335 135.1 317.7 162.2 289.5 175.6C278 181 268.4 183.1 255.6 183.1C242.9 183 232.6 180.5 220.5 174.6C204.1 166.4 192 153.9 184.2 137C179 125.9 177 116.6 177 103.7C177 52.5 225 15.1 275.5 27Z" fill="#FA412C"/>
<path d="M239.7 41.6C218.4 46.7 199.2 65.9 193.6 87.6C191.6 95.4 191.5 111.4 193.5 119.9C197.5 136.5 210.2 152.8 225.6 160.8C235.8 166 243.9 168 256 168C268.1 168 276.2 166 286.4 160.8C301.8 152.8 314.5 136.5 318.5 119.9C320.5 111.4 320.4 95.4 318.4 87.6C312.7 65.6 293.6 46.6 271.9 41.5C263.9 39.7 247.5 39.7 239.7 41.6ZM260 50C262.2 51.2 264 56.1 264 61.1C264 64.5 264.3 65 266.3 65C267.5 65 270 65.9 271.8 67C281.2 72.8 281.4 87 272 87C268.8 87 265 84 265 81.5C265 80.3 263.4 80 256.5 80H248V87.9V95.7L257.9 96.2C269 96.7 273 98.4 276.7 103.9C280.7 109.9 281.1 128.8 277.2 135.3C275 139.2 269.6 143 266.4 143C264.3 143 264 143.5 264 147C264 155.8 259.9 160.2 253.4 158.6C250.3 157.8 248 152.8 248 147C248 143.5 247.7 143 245.8 143C244.5 143 242 142.1 240.2 141C230.8 135.2 230.6 121 240 121C243.2 121 247 124 247 126.5C247 127.7 248.6 128 255.5 128H264V120.1V112.3L254.1 111.8C243 111.3 239 109.6 235.3 104.1C231.3 98.1 230.9 79.2 234.8 72.7C237 68.8 242.4 65 245.6 65C247.7 65 248 64.5 248 61.1C248 51.5 253.4 46.5 260 50Z" fill="#CEA910"/>
<path d="M89.5001 276.898C83.8001 278.298 79.9001 281.098 76.9001 285.798C73.3001 291.598 72.9001 299.998 76.0001 306.498C78.3001 311.298 158.3 391.298 172.5 403.098C208.1 432.498 251.9 452.398 296 459.098L304.1 460.398L339.3 425.198L374.5 389.898L353 368.598C324 339.898 329.1 342.298 266.5 327.998C240.1 321.998 216.6 316.798 214.4 316.398C204.9 314.898 193.7 321.198 189.4 330.398C183.7 342.498 188.6 357.698 199.9 363.398C201.3 364.098 218.9 369.098 239 374.498C264.9 381.398 276.2 384.798 277.8 386.298C281.5 389.798 280.2 396.198 275.4 397.998C273.5 398.798 265.1 396.798 235.9 388.998C215.5 383.498 196.9 378.198 194.4 377.098C184.8 372.798 174.7 359.898 172.5 348.998C171.9 346.098 166.2 339.898 139.7 313.198C122 295.398 105.9 279.998 104 279.098C99.7001 276.798 93.5001 275.898 89.5001 276.898Z" fill="#FBD18C"/>
<path d="M350.7 433.7C328.8 455.6 310 475 308.8 476.8C307.4 479.1 307 480.9 307.5 482.8C307.9 484.4 313.4 490.8 321.3 498.7C333.9 511.4 334.7 512 338.5 512C342.5 512 343.1 511.4 384.3 470.2C425 429.5 426 428.3 426 424.5C426 420.9 425.2 419.9 412.7 407.3C399.6 394.3 399.3 394 395 394H390.6L350.7 433.7Z" fill="#333847"/>
</svg>
