<svg width="512" height="512" viewBox="0 0 512 512" fill="none" xmlns="http://www.w3.org/2000/svg">
<path fill-rule="evenodd" clip-rule="evenodd" d="M44.0241 346.424H58.0071V291.03L79.8446 339.326C82.3182 345.132 85.8718 347.282 92.7524 347.282C99.633 347.282 102.974 345.129 105.53 339.326L127.259 291.03V346.424H141.35V291.03C141.35 285.653 139.198 283.066 134.68 281.668C124.031 278.442 116.931 281.239 113.705 288.443L92.3015 336.202L71.6477 288.443C68.5281 281.239 61.3196 278.442 50.5648 281.668C46.1529 283.066 44.0024 285.651 44.0024 291.03L44 346.424H44.0241ZM152.99 301.355H167.082V331.797C166.975 333.516 167.619 337.39 175.278 337.494C179.256 337.602 205.612 337.494 205.824 337.494V301.138H219.915V350.942C219.915 363.203 204.727 365.889 197.649 366H153.337V356.646H197.762C206.798 355.677 205.723 351.161 205.723 349.654V345.995H175.925C162.048 345.886 153.118 339.755 153.014 332.764V301.35L152.99 301.355ZM455.249 266.072C446.647 265.855 439.974 266.718 434.381 269.086C432.77 269.737 430.186 269.737 429.974 271.776C430.834 272.632 430.938 274.033 431.692 275.219C432.982 277.372 435.244 280.272 437.286 281.777C439.547 283.5 441.806 285.219 444.169 286.726C448.364 289.306 453.096 290.813 457.183 293.395C459.55 294.901 461.915 296.837 464.282 298.453C465.488 299.313 466.218 300.714 467.725 301.249V300.924C466.973 299.959 466.756 298.561 466.006 297.481C464.929 296.408 463.853 295.437 462.776 294.364C459.658 290.169 455.784 286.509 451.589 283.5C448.147 281.133 440.62 277.907 439.222 273.929L439.009 273.712C441.372 273.495 444.169 272.635 446.43 271.989C450.09 271.024 453.422 271.236 457.183 270.27C458.906 269.836 460.625 269.3 462.349 268.763V267.798C460.413 265.863 459.015 263.281 456.973 261.453C451.488 256.721 445.461 252.094 439.222 248.222C435.887 246.072 431.584 244.671 428.035 242.846C426.741 242.2 424.593 241.877 423.84 240.802C421.9 238.439 420.827 235.317 419.428 232.518C416.311 226.602 413.298 220.042 410.61 213.803C408.674 209.608 407.487 205.413 405.125 201.541C394.045 183.255 381.995 172.177 363.494 161.311C359.516 159.052 354.784 158.08 349.752 156.899L341.686 156.465C339.962 155.713 338.243 153.668 336.736 152.699C330.605 148.827 314.792 140.438 310.272 151.518C307.367 158.509 314.575 165.392 317.022 168.944C318.855 171.417 321.217 174.214 322.512 177.01C323.235 178.838 323.476 180.776 324.231 182.712C325.95 187.445 327.565 192.717 329.824 197.129C331.03 199.388 332.295 201.758 333.802 203.8C334.663 204.981 336.169 205.521 336.49 207.457C334.983 209.61 334.88 212.833 334.019 215.526C330.145 227.682 331.652 242.74 337.136 251.665C338.86 254.353 342.922 260.272 348.434 258.01C353.275 256.074 352.194 249.944 353.593 244.565C353.918 243.275 353.701 242.415 354.345 241.551V241.768L358.757 250.696C362.091 255.966 367.901 261.453 372.74 265.113C375.319 267.049 377.364 270.385 380.59 271.567V271.241H380.377C379.731 270.277 378.762 269.843 377.901 269.091C375.966 267.155 373.815 264.787 372.308 262.637C367.793 256.615 363.815 249.944 360.264 243.061C358.54 239.726 357.033 236.069 355.64 232.735C354.989 231.443 354.989 229.504 353.916 228.863C352.301 231.226 349.938 233.275 348.749 236.178C346.705 240.802 346.493 246.503 345.741 252.42C345.307 252.528 345.5 252.42 345.307 252.637C341.869 251.778 340.683 248.225 339.393 245.216C336.167 237.578 335.627 225.317 338.424 216.495C339.176 214.236 342.406 207.136 341.117 204.986C340.466 202.942 338.32 201.76 337.134 200.145C335.736 198.101 334.234 195.521 333.264 193.262C330.685 187.235 329.395 180.569 326.596 174.544C325.301 171.747 323.045 168.842 321.215 166.263C319.171 163.358 316.916 161.313 315.301 157.873C314.763 156.692 314.011 154.753 314.872 153.461C315.084 152.6 315.518 152.28 316.374 152.063C317.772 150.882 321.755 152.386 323.153 153.027C327.131 154.642 330.465 156.147 333.8 158.403C335.306 159.479 336.922 161.523 338.858 162.063H341.119C344.562 162.815 348.431 162.28 351.654 163.244C357.356 165.077 362.518 167.762 367.147 170.67C381.236 179.597 392.856 192.29 400.706 207.46C401.996 209.933 402.533 212.192 403.719 214.774C405.981 220.047 408.777 225.423 411.031 230.589C413.293 235.645 415.443 240.811 418.669 245.006C420.284 247.265 426.736 248.447 429.638 249.63C431.791 250.595 435.123 251.463 437.064 252.644C440.719 254.903 444.376 257.485 447.816 259.958C449.535 261.246 454.916 263.936 455.237 266.082L455.249 266.072ZM345.555 172.599C344.069 172.585 342.587 172.766 341.148 173.136V173.353H341.36C342.221 175.074 343.728 176.258 344.803 177.765L347.279 182.929L347.491 182.712C348.998 181.637 349.752 179.915 349.752 177.336C349.106 176.584 349 175.829 348.462 175.077C347.816 174.002 346.418 173.462 345.555 172.603V172.599Z" fill="#00678C"/>
<path fill-rule="evenodd" clip-rule="evenodd" d="M230.654 346.431H271.099C275.831 346.431 280.352 345.466 284.007 343.742C290.137 340.946 293.042 337.185 293.042 332.235V321.91C293.042 317.932 289.708 314.164 283.042 311.584C279.6 310.294 275.296 309.54 271.101 309.54H254.105C248.403 309.54 245.715 307.816 244.96 304.055C244.854 303.626 244.854 303.194 244.854 302.765V296.417C244.854 296.092 244.854 295.665 244.96 295.236C245.713 292.331 247.219 291.576 252.193 291.041H293.604V281.68H254.235C248.533 281.68 245.522 282.005 242.832 282.866C234.548 285.445 230.891 289.534 230.891 296.738V304.918C230.891 311.259 237.991 316.642 250.038 317.932C251.327 318.04 252.726 318.04 254.124 318.04H268.647C269.185 318.04 269.72 318.04 270.149 318.149C274.561 318.578 276.497 319.33 277.787 320.941C278.647 321.801 278.864 322.556 278.864 323.525V331.698C278.864 332.662 278.218 333.959 276.928 335.032C275.639 336.105 273.589 336.859 270.901 336.968C270.364 336.968 270.045 337.076 269.503 337.076H230.654V346.431ZM380.598 330.191C380.598 339.762 387.83 345.138 402.223 346.218C403.621 346.327 404.911 346.431 406.309 346.431H442.882V337.076H405.989C397.809 337.076 394.692 335.032 394.692 330.085V281.68H380.571V330.193L380.598 330.191ZM301.967 330.618V297.276C301.967 288.777 307.99 283.611 319.719 282C321.008 281.892 322.298 281.783 323.48 281.783H350.153C351.552 281.783 352.738 281.892 354.136 282C365.86 283.611 371.774 288.775 371.774 297.276V330.618C371.774 337.501 369.303 341.16 363.49 343.636L377.256 356.11H361.017L349.83 346.001L338.533 346.647H323.475C320.715 346.634 317.969 346.273 315.3 345.575C306.379 343.096 301.967 338.366 301.967 330.618ZM317.132 329.87C317.132 330.299 317.373 330.726 317.457 331.269C318.209 335.138 321.864 337.291 327.457 337.291H340.153L328.538 326.748H344.777L354.994 336.001C356.935 334.923 358.116 333.417 358.546 331.481C358.654 331.052 358.654 330.516 358.654 330.082V298.134C358.654 297.705 358.654 297.278 358.546 296.844C357.793 293.189 354.138 291.147 348.651 291.147H327.46C321.221 291.147 317.134 293.835 317.134 298.134L317.132 329.87Z" fill="#CE8B2C"/>
</svg>
