<svg width="512" height="512" viewBox="0 0 512 512" fill="none" xmlns="http://www.w3.org/2000/svg">
<path d="M256 480.002C249.956 480.004 244.018 478.415 238.784 475.394L184 442.962C175.824 438.386 179.808 436.77 182.512 435.826C191.208 433.139 199.533 429.377 207.296 424.626C207.946 424.325 208.661 424.195 209.375 424.248C210.089 424.302 210.778 424.536 211.376 424.93L253.472 449.938C254.256 450.352 255.129 450.569 256.016 450.569C256.903 450.569 257.776 450.352 258.56 449.938L422.72 355.186C423.488 354.725 424.124 354.073 424.564 353.294C425.004 352.514 425.235 351.633 425.232 350.738V161.202C425.233 160.292 424.999 159.397 424.553 158.604C424.108 157.811 423.465 157.146 422.688 156.674L258.528 62.0016C257.754 61.5656 256.88 61.3366 255.992 61.3366C255.104 61.3366 254.23 61.5656 253.456 62.0016L89.392 156.706C88.6094 157.168 87.9596 157.825 87.5055 158.613C87.0514 159.401 86.8084 160.292 86.8 161.202V350.658C86.8022 351.551 87.0419 352.428 87.4946 353.198C87.9472 353.969 88.5965 354.605 89.376 355.042L134.4 381.026C158.8 393.218 173.744 378.85 173.744 364.418V177.362C173.744 176.089 174.25 174.868 175.15 173.967C176.05 173.067 177.271 172.562 178.544 172.562H199.344C200.617 172.562 201.838 173.067 202.738 173.967C203.638 174.868 204.144 176.089 204.144 177.362V364.434C204.144 396.994 186.416 415.634 155.536 415.634C142.214 415.866 129.101 412.303 117.728 405.362L74.576 380.61C69.3374 377.559 64.9906 373.188 61.9697 367.932C58.9488 362.676 57.3593 356.72 57.36 350.658V161.202C57.3444 155.13 58.9271 149.161 61.9492 143.895C64.9712 138.629 69.326 134.251 74.576 131.202L238.752 36.4176C244.04 33.5243 249.972 32.0078 256 32.0078C262.028 32.0078 267.959 33.5243 273.248 36.4176L437.408 131.202C442.646 134.246 446.994 138.611 450.017 143.862C453.041 149.112 454.635 155.063 454.64 161.122V350.658C454.631 356.72 453.036 362.674 450.013 367.928C446.99 373.183 442.644 377.555 437.408 380.61L273.248 475.394C268.004 478.419 262.054 480.009 256 480.002Z" fill="#83CD29"/>
<path d="M224.864 287.25C224.864 285.977 225.369 284.756 226.27 283.856C227.17 282.956 228.391 282.45 229.664 282.45H250.896C252.03 282.454 253.127 282.859 253.991 283.594C254.855 284.329 255.43 285.347 255.616 286.466C258.816 308.082 268.416 318.978 311.824 318.978C346.4 318.978 361.136 311.154 361.136 292.802C361.136 282.226 356.96 274.37 303.216 269.106C258.288 264.658 230.512 254.706 230.512 218.802C230.512 185.682 258.432 165.922 305.232 165.922C357.824 165.922 383.856 184.178 387.152 223.346C387.202 224 387.118 224.657 386.904 225.277C386.691 225.897 386.352 226.467 385.91 226.951C385.468 227.436 384.931 227.824 384.333 228.093C383.735 228.362 383.088 228.505 382.432 228.514H361.056C359.983 228.499 358.947 228.125 358.112 227.452C357.277 226.78 356.691 225.846 356.448 224.802C351.344 202.066 338.848 194.802 305.248 194.802C267.488 194.802 263.104 207.954 263.104 217.81C263.104 229.746 268.288 233.234 319.264 239.97C369.712 246.642 393.68 256.082 393.68 291.538C393.68 327.314 363.856 347.794 311.84 347.794C239.92 347.89 224.864 314.914 224.864 287.25Z" fill="#83CD29"/>
</svg>
