<svg width="420" height="420" viewBox="0 0 420 420" fill="none" xmlns="http://www.w3.org/2000/svg">
<path d="M165.867 1.55859C162.586 2.37891 156.68 4.67578 152.742 6.5625C146.836 9.51562 144.211 11.4844 137.73 17.9648C131.004 24.6914 129.363 26.9883 126.164 33.6328C120.258 45.7734 119.766 48.8086 119.766 73.6641V95.0742L166.359 95.3203C211.23 95.5664 212.953 95.6484 215.578 97.207C223.453 101.965 223.535 112.711 215.742 117.551L212.871 119.355L130.84 119.766C39.1289 120.258 46.2656 119.848 32.8125 126.41C27.0703 129.281 24.4453 131.332 17.9649 137.73C11.3203 144.457 9.59767 146.754 6.39845 153.398C-0.0820197 166.688 -0.164051 167.016 0.164074 212.461L0.410168 252.246L2.70704 258.316C6.48048 268.652 10.336 274.641 18.375 282.598C24.2813 288.504 27.3164 290.719 32.8125 293.508C44.7891 299.496 49.4649 300.234 73.9102 300.234H94.9922L95.3203 267.996C95.6485 240.105 95.8946 235.266 97.2071 231.328C102.211 215.578 112.875 204.914 128.789 199.664C132.973 198.27 138.633 198.105 210.082 197.695L286.863 197.285L290.883 194.824C293.344 193.266 295.805 190.805 297.363 188.344L299.824 184.324L300.07 118.617C300.316 44.1328 300.481 46.8398 293.508 32.8125C290.719 27.1523 288.586 24.3633 282.188 18.0469C275.871 11.6484 273.082 9.51562 267.422 6.72656C254.215 0.164062 252.656 0 209.672 0.0820312C176.203 0.0820312 171.199 0.328125 165.867 1.55859ZM187.359 40.1133C190.887 42.4922 192.773 45.8555 192.773 50.0391C192.773 61.6875 177.844 65.8711 171.363 56.1094C169.477 53.2383 169.313 47.5781 171.035 44.2148C173.824 38.8828 182.273 36.75 187.359 40.1133Z" fill="#4A8ABD"/>
<path d="M324.68 151.922C324.352 179.895 324.105 184.734 322.793 188.672C317.789 204.422 307.125 215.086 291.211 220.336C287.027 221.73 281.367 221.895 209.918 222.305L133.137 222.715L129.117 225.176C126.656 226.734 124.195 229.195 122.637 231.656L120.176 235.676L119.93 301.383C119.684 375.785 119.437 372.586 126.164 386.367C129.363 393.094 131.004 395.227 137.73 401.953C144.129 408.352 146.918 410.484 152.578 413.273C165.703 419.836 167.344 420 210 420C252.656 420 254.297 419.836 267.422 413.273C273.082 410.484 275.871 408.352 282.188 401.953C288.586 395.637 290.719 392.848 293.508 387.188C299.496 375.211 300.234 370.535 300.234 346.09V324.926L253.723 324.68C208.77 324.434 207.047 324.352 204.422 322.793C200.73 320.578 198.516 316.805 198.516 312.621C198.516 308.109 200.238 304.91 204.012 302.531L207.129 300.645L289.16 300.234L371.191 299.824L377.508 297.691C387.844 294.164 394.242 290.062 402.363 281.859C408.27 275.953 410.484 272.918 413.273 267.422C419.836 254.297 420 252.656 420 209.672C420 166.688 419.836 165.621 413.273 152.578C410.484 146.918 408.27 144.129 401.953 137.812C395.637 131.414 392.848 129.281 387.188 126.492C375.211 120.504 370.453 119.766 346.09 119.766H325.008L324.68 151.922ZM244.781 360.035C248.309 362.414 250.195 365.777 250.195 369.961C250.195 381.609 235.266 385.793 228.785 376.031C226.898 373.16 226.734 367.5 228.457 364.301C231.164 358.969 239.695 356.754 244.781 360.035Z" fill="#FFE467"/>
</svg>
