<svg width="512" height="512" viewBox="0 0 512 512" fill="none" xmlns="http://www.w3.org/2000/svg">
<g clip-path="url(#clip0_1958_221)">
<g clip-path="url(#clip1_1958_221)">
<path d="M323.123 433.242H167.453C161.582 433.242 156.821 438.002 156.821 443.875C156.821 449.746 161.58 454.506 167.453 454.506H323.123C328.994 454.506 333.754 449.746 333.754 443.875C333.754 438.002 328.994 433.242 323.123 433.242Z" fill="#EDF4FC"/>
<path d="M202.306 384.516H288.265V433.24H202.306V384.516Z" fill="#C7D7E5"/>
<path d="M478.08 221.5H379.908C368.15 221.5 358.529 231.121 358.529 242.879V433.125C358.529 444.883 368.15 454.504 379.908 454.504H478.08C489.838 454.504 499.459 444.883 499.459 433.125V242.879C499.459 231.121 489.84 221.5 478.08 221.5Z" fill="#5290DB"/>
<path d="M358.527 242.881C358.527 231.121 368.148 221.502 379.906 221.502H461.691V78.082C461.691 65.5977 451.477 55.3828 438.992 55.3828H51.582C39.0977 55.3828 28.8828 65.5977 28.8828 78.082V361.82C28.8828 374.305 39.0977 384.52 51.582 384.52H358.527V242.881Z" fill="#5290DB"/>
<path d="M358.527 323.984H28.8828V361.816C28.8828 374.301 39.0977 384.516 51.582 384.516H358.527V323.984Z" fill="#EDF4FC"/>
<path d="M245.289 343.055C239.105 343.055 234.094 348.066 234.094 354.25C234.094 360.434 239.105 365.445 245.289 365.445C251.473 365.445 256.484 360.434 256.484 354.25C256.484 348.068 251.473 343.055 245.289 343.055Z" fill="#C7D7E5"/>
<path d="M358.526 242.879C358.526 231.119 368.147 221.5 379.905 221.5H442.776V78.0801C442.776 76 441.073 74.2969 438.992 74.2969H51.5803C49.5002 74.2969 47.7971 76 47.7971 78.0801V323.986H358.526V242.879Z" fill="#EDF4FC"/>
<path d="M319.897 285.926V240.289H292.553V285.926C292.553 290.928 288.498 294.98 283.498 294.98H209.811C204.811 294.98 200.756 290.926 200.756 285.926V240.289H171.459V285.926C171.459 290.928 167.405 294.98 162.405 294.98H88.717C83.717 294.98 79.6624 290.926 79.6624 285.926V240.289H47.7971V323.984H358.526V294.98H328.953C323.951 294.98 319.897 290.926 319.897 285.926Z" fill="#70D6F9"/>
<path d="M474.398 240.289H452.404C449.369 240.289 446.588 242.098 445.467 244.918C442.863 251.467 436.47 256.1 428.994 256.1C421.515 256.1 415.123 251.469 412.521 244.918C411.4 242.096 408.621 240.289 405.584 240.289H383.59C380.127 240.289 377.32 243.096 377.32 246.559V429.443C377.32 432.906 380.127 435.713 383.59 435.713H474.4C477.863 435.713 480.67 432.906 480.67 429.443V246.559C480.668 243.096 477.861 240.289 474.398 240.289Z" fill="#EDF4FC"/>
<path d="M446.853 293.031C446.853 302.738 438.984 310.609 429.275 310.609C419.566 310.609 411.697 302.738 411.697 293.031H377.32V429.447C377.32 432.91 380.127 435.717 383.59 435.717H474.4C477.863 435.717 480.67 432.91 480.67 429.447V293.031H446.853Z" fill="#70D6F9"/>
<path d="M404.717 349.996H453.273C459.324 349.996 464.228 345.092 464.228 339.041C464.228 332.99 459.324 328.086 453.273 328.086H404.717C398.666 328.086 393.762 332.99 393.762 339.041C393.76 345.092 398.666 349.996 404.717 349.996Z" fill="#FCDD86"/>
<path d="M453.268 368.266H404.712C398.661 368.266 393.757 373.17 393.757 379.221C393.757 385.271 398.661 390.176 404.712 390.176H453.268C459.319 390.176 464.223 385.271 464.223 379.221C464.225 373.17 459.319 368.266 453.268 368.266Z" fill="#FCDD86"/>
<path d="M429.273 310.609C438.982 310.609 446.852 302.739 446.852 293.031C446.852 283.323 438.982 275.453 429.273 275.453C419.565 275.453 411.695 283.323 411.695 293.031C411.695 302.739 419.565 310.609 429.273 310.609Z" fill="#FC657E"/>
<path d="M415.603 328.086H404.717C398.666 328.086 393.762 332.99 393.762 339.041C393.762 345.092 398.666 349.996 404.717 349.996H415.603V328.086Z" fill="#EDB311"/>
<path d="M415.603 368.266H404.717C398.666 368.266 393.762 373.17 393.762 379.221C393.762 385.271 398.666 390.176 404.717 390.176H415.603V368.266Z" fill="#EDB311"/>
<path d="M162.406 193.422H88.7188C83.7188 193.422 79.6641 197.477 79.6641 202.477V285.93C79.6641 290.932 83.7188 294.984 88.7188 294.984H162.406C167.408 294.984 171.461 290.93 171.461 285.93V202.477C171.461 197.477 167.406 193.422 162.406 193.422Z" fill="#FCDD86"/>
<path d="M358.527 242.881C358.527 231.121 368.148 221.502 379.906 221.502H411.695V202.477C411.695 197.475 407.641 193.422 402.641 193.422H328.953C323.953 193.422 319.898 197.477 319.898 202.477V285.93C319.898 290.932 323.953 294.984 328.953 294.984H358.525V242.881H358.527Z" fill="#FCDD86"/>
<path d="M283.5 193.422H209.813C204.813 193.422 200.758 197.477 200.758 202.477V285.93C200.758 290.932 204.813 294.984 209.813 294.984H283.5C288.502 294.984 292.555 290.93 292.555 285.93V202.477C292.555 197.477 288.5 193.422 283.5 193.422Z" fill="#FCDD86"/>
<path d="M178.154 166.691H314.601C320.652 166.691 325.557 161.787 325.557 155.736C325.557 149.686 320.652 144.781 314.601 144.781H178.154C172.103 144.781 167.199 149.686 167.199 155.736C167.197 161.787 172.103 166.691 178.154 166.691Z" fill="#FCDD86"/>
<path d="M403.883 128.969C413.591 128.969 421.461 121.099 421.461 111.391C421.461 101.682 413.591 93.8125 403.883 93.8125C394.175 93.8125 386.305 101.682 386.305 111.391C386.305 121.099 394.175 128.969 403.883 128.969Z" fill="#FC657E"/>
<path d="M190.994 144.781H178.154C172.103 144.781 167.199 149.686 167.199 155.736C167.199 161.787 172.103 166.691 178.154 166.691H190.994V144.781Z" fill="#EDB311"/>
<path d="M112.293 121.156H89.4297C84.0371 121.156 79.6641 116.783 79.6641 111.391C79.6641 105.998 84.0371 101.625 89.4297 101.625H112.293C117.686 101.625 122.059 105.998 122.059 111.391C122.059 116.783 117.686 121.156 112.293 121.156Z" fill="#70D6F9"/>
<path d="M523.78 188.11C514.997 186.465 508.081 179.674 506.42 171.067C506.336 170.635 505.733 170.633 505.649 171.067C503.969 179.67 497.04 186.446 488.252 188.073C487.811 188.155 487.811 188.744 488.252 188.828C497.036 190.473 503.952 197.264 505.614 205.871C505.698 206.303 506.301 206.305 506.385 205.871C508.065 197.268 514.995 190.492 523.782 188.865C524.221 188.783 524.221 188.192 523.78 188.11Z" fill="#F5C84C"/>
<path d="M334.357 28.5923C329.306 27.6509 325.324 23.7505 324.365 18.8032C324.316 18.5552 323.97 18.5552 323.921 18.8032C322.96 23.7524 318.98 27.6528 313.927 28.5923C313.673 28.6392 313.673 28.979 313.927 29.0259C318.978 29.9673 322.96 33.8677 323.921 38.8149C323.97 39.063 324.316 39.063 324.365 38.8149C325.325 33.8657 329.306 29.9653 334.357 29.0259C334.609 28.979 334.609 28.6392 334.357 28.5923Z" fill="#87D147"/>
<path d="M99.0815 419.959H103.632V415.408C103.632 412.002 106.392 409.242 109.798 409.242C113.205 409.242 115.964 412.002 115.964 415.408V419.959H120.513C123.919 419.959 126.679 422.719 126.679 426.125C126.679 429.531 123.919 432.291 120.513 432.291H115.964V436.842C115.964 440.248 113.205 443.008 109.798 443.008C106.392 443.008 103.632 440.248 103.632 436.842V432.291H99.0815C95.6753 432.291 92.9155 429.531 92.9155 426.125C92.9155 422.721 95.6753 419.959 99.0815 419.959Z" fill="#70D6F9"/>
<path d="M60.4457 416.332C64.0884 416.332 67.0414 413.379 67.0414 409.736C67.0414 406.094 64.0884 403.141 60.4457 403.141C56.803 403.141 53.85 406.094 53.85 409.736C53.85 413.379 56.803 416.332 60.4457 416.332Z" fill="#F5C84C"/>
<path d="M486.346 150.949C489.989 150.949 492.942 147.996 492.942 144.354C492.942 140.711 489.989 137.758 486.346 137.758C482.704 137.758 479.751 140.711 479.751 144.354C479.751 147.996 482.704 150.949 486.346 150.949Z" fill="#FC657E"/>
<path d="M436.303 413.148H422.241C419.544 413.148 417.358 410.963 417.358 408.266C417.358 405.568 419.544 403.383 422.241 403.383H436.303C439.001 403.383 441.186 405.568 441.186 408.266C441.186 410.963 439.001 413.148 436.303 413.148Z" fill="black"/>
<path d="M362.445 116.273H352.894C350.197 116.273 348.011 114.088 348.011 111.391C348.011 108.693 350.197 106.508 352.894 106.508H362.445C365.142 106.508 367.328 108.693 367.328 111.391C367.328 114.088 365.142 116.273 362.445 116.273Z" fill="black"/>
<path d="M332.731 116.273H323.181C320.483 116.273 318.298 114.088 318.298 111.391C318.298 108.693 320.483 106.508 323.181 106.508H332.731C335.429 106.508 337.614 108.693 337.614 111.391C337.614 114.088 335.429 116.273 332.731 116.273Z" fill="black"/>
<path d="M303.013 116.273H293.462C290.765 116.273 288.58 114.088 288.58 111.391C288.58 108.693 290.765 106.508 293.462 106.508H303.013C305.71 106.508 307.896 108.693 307.896 111.391C307.896 114.088 305.71 116.273 303.013 116.273Z" fill="black"/>
<path d="M168.565 296.658C167.231 296.658 165.905 296.115 164.942 295.049L79.1901 200.174C77.3815 198.174 77.5377 195.086 79.5377 193.277C81.5377 191.466 84.6276 191.625 86.4342 193.625L172.186 288.5C173.995 290.5 173.839 293.588 171.839 295.396C170.903 296.242 169.731 296.658 168.565 296.658Z" fill="black"/>
<path d="M82.5611 296.658C81.3931 296.658 80.2232 296.242 79.2896 295.396C77.2896 293.588 77.1333 290.502 78.9419 288.5L164.94 193.351C166.747 191.351 169.834 191.193 171.836 193.004C173.836 194.812 173.993 197.898 172.184 199.9L86.1861 295.049C85.2232 296.115 83.895 296.658 82.5611 296.658Z" fill="black"/>
<path d="M289.659 296.658C288.325 296.658 286.999 296.115 286.036 295.049L200.284 200.174C198.475 198.174 198.631 195.086 200.631 193.277C202.631 191.466 205.721 191.625 207.528 193.625L293.28 288.5C295.089 290.5 294.932 293.588 292.932 295.396C291.997 296.242 290.825 296.658 289.659 296.658Z" fill="black"/>
<path d="M203.655 296.658C202.487 296.658 201.317 296.242 200.383 295.396C198.383 293.588 198.227 290.502 200.036 288.5L286.034 193.351C287.84 191.351 290.93 191.193 292.93 193.004C294.93 194.812 295.086 197.898 293.278 199.9L207.28 295.049C206.317 296.115 204.989 296.658 203.655 296.658Z" fill="black"/>
<path d="M359.018 241.58C357.684 241.58 356.358 241.037 355.395 239.97L319.424 200.174C317.616 198.174 317.772 195.086 319.772 193.277C321.772 191.466 324.86 191.625 326.669 193.625L362.639 233.422C364.448 235.422 364.292 238.509 362.292 240.318C361.356 241.164 360.184 241.58 359.018 241.58Z" fill="black"/>
<path d="M322.796 296.662C321.628 296.662 320.458 296.246 319.524 295.4C317.524 293.591 317.368 290.506 319.176 288.504L354.506 249.414C356.313 247.414 359.401 247.256 361.403 249.066C363.403 250.875 363.559 253.961 361.751 255.963L326.421 295.052C325.458 296.119 324.13 296.662 322.796 296.662Z" fill="black"/>
<path d="M386.668 225.992C385.5 225.992 384.33 225.576 383.397 224.73C381.397 222.922 381.24 219.836 383.049 217.834L405.176 193.351C406.983 191.351 410.07 191.193 412.072 193.004C414.072 194.812 414.229 197.898 412.42 199.9L390.293 224.383C389.328 225.449 388 225.992 386.668 225.992Z" fill="black"/>
<path d="M323.123 459.389H167.453C158.899 459.389 151.938 452.43 151.938 443.875C151.938 435.32 158.897 428.359 167.453 428.359H323.123C331.678 428.359 338.637 435.318 338.637 443.875C338.637 452.428 331.678 459.389 323.123 459.389ZM167.453 438.125C164.283 438.125 161.703 440.705 161.703 443.875C161.703 447.045 164.283 449.623 167.453 449.623H323.123C326.293 449.623 328.871 447.045 328.871 443.875C328.871 440.705 326.293 438.125 323.123 438.125H167.453Z" fill="black"/>
<path d="M288.265 438.123H202.306C199.609 438.123 197.423 435.938 197.423 433.24V384.516C197.423 381.818 199.609 379.633 202.306 379.633H288.265C290.962 379.633 293.148 381.818 293.148 384.516V433.24C293.148 435.938 290.962 438.123 288.265 438.123ZM207.189 428.357H283.382V389.398H207.189V428.357Z" fill="black"/>
<path d="M478.08 459.387H379.908C365.428 459.387 353.646 447.605 353.646 433.125V242.879C353.646 228.396 365.428 216.617 379.908 216.617H478.08C492.563 216.617 504.342 228.398 504.342 242.879V433.125C504.344 447.605 492.563 459.387 478.08 459.387ZM379.908 226.381C370.813 226.381 363.412 233.781 363.412 242.877V433.123C363.412 442.219 370.813 449.619 379.908 449.619H478.08C487.176 449.619 494.576 442.219 494.576 433.123V242.877C494.576 233.781 487.176 226.381 478.08 226.381H379.908Z" fill="black"/>
<path d="M357.008 389.402H51.582C36.373 389.402 24 377.029 24 361.82V78.082C24 62.8731 36.373 50.5 51.582 50.5H438.992C454.201 50.5 466.574 62.8731 466.574 78.082V219.951C466.574 222.648 464.389 224.834 461.691 224.834C458.994 224.834 456.809 222.648 456.809 219.951V78.082C456.809 68.2578 448.816 60.2656 438.992 60.2656H51.582C41.7578 60.2656 33.7656 68.2578 33.7656 78.082V361.82C33.7656 371.645 41.7578 379.637 51.582 379.637H357.008C359.705 379.637 361.891 381.822 361.891 384.52C361.891 387.217 359.705 389.402 357.008 389.402Z" fill="black"/>
<path d="M356.926 328.867H30.1035C27.4062 328.867 25.2207 326.682 25.2207 323.984C25.2207 321.287 27.4062 319.102 30.1035 319.102H356.926C359.623 319.102 361.809 321.287 361.809 323.984C361.809 326.682 359.623 328.867 356.926 328.867Z" fill="black"/>
<path d="M245.289 370.328C236.422 370.328 229.211 363.115 229.211 354.25C229.211 345.385 236.424 338.172 245.289 338.172C254.154 338.172 261.367 345.385 261.367 354.25C261.367 363.115 254.154 370.328 245.289 370.328ZM245.289 347.936C241.808 347.936 238.976 350.768 238.976 354.248C238.976 357.729 241.808 360.561 245.289 360.561C248.769 360.561 251.601 357.729 251.601 354.248C251.601 350.768 248.771 347.936 245.289 347.936Z" fill="black"/>
<path d="M47.7971 327.625C45.0999 327.625 42.9143 325.439 42.9143 322.742V78.0801C42.9143 73.3027 46.801 69.4141 51.5803 69.4141H438.99C443.77 69.4141 447.656 73.3008 447.656 78.0801V220.244C447.656 222.941 445.471 225.127 442.774 225.127C440.076 225.127 437.891 222.941 437.891 220.244V79.1797H52.6799V322.742C52.6799 325.439 50.4944 327.625 47.7971 327.625Z" fill="black"/>
<path d="M77.4639 245.172H49.4697C46.7725 245.172 44.5869 242.986 44.5869 240.289C44.5869 237.592 46.7725 235.406 49.4697 235.406H77.4639C80.1611 235.406 82.3467 237.592 82.3467 240.289C82.3467 242.986 80.1611 245.172 77.4639 245.172Z" fill="black"/>
<path d="M199.351 245.172H172.597C169.899 245.172 167.714 242.986 167.714 240.289C167.714 237.592 169.899 235.406 172.597 235.406H199.351C202.048 235.406 204.233 237.592 204.233 240.289C204.233 242.986 202.048 245.172 199.351 245.172Z" fill="black"/>
<path d="M318.596 245.172H294.508C291.811 245.172 289.625 242.986 289.625 240.289C289.625 237.592 291.811 235.406 294.508 235.406H318.596C321.293 235.406 323.479 237.592 323.479 240.289C323.479 242.986 321.293 245.172 318.596 245.172Z" fill="black"/>
<path d="M474.4 440.596H383.59C377.441 440.596 372.437 435.592 372.437 429.443V246.559C372.437 240.41 377.441 235.406 383.59 235.406H405.584C410.693 235.406 415.197 238.434 417.058 243.117C419.013 248.037 423.699 251.217 428.994 251.217C434.289 251.217 438.972 248.037 440.929 243.115C442.791 238.432 447.295 235.406 452.404 235.406H474.398C480.547 235.406 485.551 240.41 485.551 246.559V429.443C485.551 435.592 480.549 440.596 474.4 440.596ZM383.59 245.172C382.824 245.172 382.203 245.793 382.203 246.559V429.443C382.203 430.209 382.824 430.83 383.59 430.83H474.4C475.166 430.83 475.787 430.209 475.787 429.443V246.559C475.787 245.793 475.166 245.172 474.4 245.172H452.406C451.34 245.172 450.375 245.795 450.006 246.723C446.562 255.387 438.314 260.982 428.994 260.982C419.674 260.982 411.426 255.385 407.982 246.723C407.615 245.795 406.65 245.172 405.584 245.172H383.59Z" fill="black"/>
<path d="M409.989 297.914H379.146C376.448 297.914 374.263 295.729 374.263 293.031C374.263 290.334 376.448 288.148 379.146 288.148H409.989C412.687 288.148 414.872 290.334 414.872 293.031C414.872 295.729 412.687 297.914 409.989 297.914Z" fill="black"/>
<path d="M479.015 297.914H448.396C445.698 297.914 443.513 295.729 443.513 293.031C443.513 290.334 445.698 288.148 448.396 288.148H479.015C481.712 288.148 483.897 290.334 483.897 293.031C483.897 295.729 481.712 297.914 479.015 297.914Z" fill="black"/>
<path d="M453.273 354.879H404.717C395.982 354.879 388.879 347.773 388.879 339.041C388.879 330.307 395.984 323.203 404.717 323.203H453.273C462.006 323.203 469.111 330.309 469.111 339.041C469.111 347.773 462.006 354.879 453.273 354.879ZM404.717 332.967C401.369 332.967 398.644 335.691 398.644 339.039C398.644 342.387 401.369 345.111 404.717 345.111H453.273C456.621 345.111 459.346 342.387 459.346 339.039C459.346 335.691 456.621 332.967 453.273 332.967H404.717Z" fill="black"/>
<path d="M453.273 395.059H404.717C395.982 395.059 388.879 387.953 388.879 379.221C388.879 370.486 395.984 363.383 404.717 363.383H453.273C462.006 363.383 469.111 370.488 469.111 379.221C469.111 387.953 462.006 395.059 453.273 395.059ZM404.717 373.148C401.369 373.148 398.644 375.873 398.644 379.221C398.644 382.568 401.369 385.293 404.717 385.293H453.273C456.621 385.293 459.346 382.568 459.346 379.221C459.346 375.873 456.621 373.148 453.273 373.148H404.717Z" fill="black"/>
<path d="M429.273 315.492C416.889 315.492 406.812 305.416 406.812 293.031C406.812 280.646 416.889 270.57 429.273 270.57C441.658 270.57 451.734 280.646 451.734 293.031C451.734 305.416 441.658 315.492 429.273 315.492ZM429.273 280.336C422.273 280.336 416.578 286.031 416.578 293.031C416.578 300.031 422.273 305.727 429.273 305.727C436.273 305.727 441.969 300.031 441.969 293.031C441.969 286.031 436.273 280.336 429.273 280.336Z" fill="black"/>
<path d="M415.602 353.875C412.904 353.875 410.719 351.689 410.719 348.992V329.094C410.719 326.396 412.904 324.211 415.602 324.211C418.299 324.211 420.484 326.396 420.484 329.094V348.992C420.484 351.689 418.299 353.875 415.602 353.875Z" fill="black"/>
<path d="M415.602 394.279C412.904 394.279 410.719 392.094 410.719 389.396V369.437C410.719 366.74 412.904 364.555 415.602 364.555C418.299 364.555 420.484 366.74 420.484 369.437V389.396C420.484 392.094 418.299 394.279 415.602 394.279Z" fill="black"/>
<path d="M162.406 299.867H88.7188C81.0332 299.867 74.7812 293.615 74.7812 285.93V202.477C74.7812 194.791 81.0332 188.539 88.7188 188.539H162.406C170.092 188.539 176.344 194.791 176.344 202.477V285.93C176.344 293.615 170.092 299.867 162.406 299.867ZM88.7188 198.305C86.418 198.305 84.5469 200.176 84.5469 202.477V285.93C84.5469 288.23 86.418 290.102 88.7188 290.102H162.406C164.707 290.102 166.578 288.23 166.578 285.93V202.477C166.578 200.176 164.707 198.305 162.406 198.305H88.7188Z" fill="black"/>
<path d="M356.926 299.867H328.953C321.268 299.867 315.016 293.615 315.016 285.93V202.477C315.016 194.791 321.268 188.539 328.953 188.539H402.641C410.326 188.539 416.578 194.791 416.578 202.477V219.951C416.578 222.648 414.393 224.834 411.695 224.834C408.998 224.834 406.812 222.648 406.812 219.951V202.477C406.812 200.176 404.941 198.305 402.641 198.305H328.953C326.652 198.305 324.781 200.176 324.781 202.477V285.93C324.781 288.23 326.652 290.102 328.953 290.102H356.926C359.623 290.102 361.809 292.287 361.809 294.984C361.809 297.682 359.623 299.867 356.926 299.867Z" fill="black"/>
<path d="M283.5 299.867H209.813C202.127 299.867 195.875 293.615 195.875 285.93V202.477C195.875 194.791 202.127 188.539 209.813 188.539H283.5C291.186 188.539 297.438 194.791 297.438 202.477V285.93C297.438 293.615 291.186 299.867 283.5 299.867ZM209.813 198.305C207.512 198.305 205.641 200.176 205.641 202.477V285.93C205.641 288.23 207.512 290.102 209.813 290.102H283.5C285.801 290.102 287.672 288.23 287.672 285.93V202.477C287.672 200.176 285.801 198.305 283.5 198.305H209.813Z" fill="black"/>
<path d="M314.601 171.574H178.154C169.42 171.574 162.316 164.469 162.316 155.736C162.316 147.004 169.422 139.898 178.154 139.898H314.601C323.334 139.898 330.439 147.004 330.439 155.736C330.439 164.469 323.334 171.574 314.601 171.574ZM178.154 149.664C174.807 149.664 172.082 152.389 172.082 155.736C172.082 159.084 174.807 161.809 178.154 161.809H314.601C317.949 161.809 320.674 159.084 320.674 155.736C320.674 152.389 317.949 149.664 314.601 149.664H178.154Z" fill="black"/>
<path d="M403.883 133.852C391.498 133.852 381.422 123.775 381.422 111.391C381.422 99.0059 391.498 88.9297 403.883 88.9297C416.268 88.9297 426.344 99.0059 426.344 111.391C426.344 123.775 416.268 133.852 403.883 133.852ZM403.883 98.6953C396.883 98.6953 391.188 104.391 391.188 111.391C391.188 118.391 396.883 124.086 403.883 124.086C410.883 124.086 416.578 118.391 416.578 111.391C416.578 104.391 410.883 98.6953 403.883 98.6953Z" fill="black"/>
<path d="M190.992 169.996C188.295 169.996 186.109 167.811 186.109 165.113V145.906C186.109 143.209 188.295 141.023 190.992 141.023C193.689 141.023 195.875 143.209 195.875 145.906V165.113C195.875 167.811 193.689 169.996 190.992 169.996Z" fill="black"/>
<path d="M112.293 126.039H89.4297C81.3516 126.039 74.7812 119.469 74.7812 111.391C74.7812 103.312 81.3516 96.7422 89.4297 96.7422H112.293C120.371 96.7422 126.941 103.312 126.941 111.391C126.941 119.469 120.369 126.039 112.293 126.039ZM89.4297 106.508C86.7383 106.508 84.5469 108.699 84.5469 111.391C84.5469 114.082 86.7383 116.273 89.4297 116.273H112.293C114.984 116.273 117.176 114.082 117.176 111.391C117.176 108.699 114.984 106.508 112.293 106.508H89.4297Z" fill="black"/>
</g>
</g>
<defs>
<clipPath id="clip0_1958_221">
<rect width="512" height="512" fill="white"/>
</clipPath>
<clipPath id="clip1_1958_221">
<rect width="500" height="500" fill="white" transform="translate(24 -11)"/>
</clipPath>
</defs>
</svg>
