<svg width="512" height="512" viewBox="0 0 512 512" fill="none" xmlns="http://www.w3.org/2000/svg">
<path d="M415.935 319.938C437.097 236.22 386.197 138.078 299.607 86C338.066 138.016 353.462 199.662 339.988 254.53C338.832 259.488 337.227 264.33 335.194 268.996C318.661 257.527 241.929 210.264 149.635 116.854C146.762 113.961 199.626 191.954 258.275 253.58C230.397 237.274 152.528 181.332 103.509 136.011C109.274 145.642 116.962 155.272 124.65 165.874C165.982 218.84 218.866 282.388 283.26 331.511C238.085 359.43 174.641 361.352 110.225 331.511C93.8783 324.753 80.4248 315.143 66 304.645C92.8657 347.01 134.197 384.581 184.25 405.763C243.851 431.761 304.898 432.05 354.413 401.899C375.554 391.318 417.857 379.745 440.941 424.053C445.736 436.576 457.267 378.794 414.076 325.828C415.026 323.906 415.026 321.984 415.997 320.041L415.935 319.938Z" fill="url(#paint0_linear_1826_5236)"/>
<defs>
<linearGradient id="paint0_linear_1826_5236" x1="255.552" y1="86.129" x2="255.552" y2="426.075" gradientUnits="userSpaceOnUse">
<stop stop-color="#F68A38"/>
<stop offset="1" stop-color="#EE2E2B"/>
</linearGradient>
</defs>
</svg>
