<svg width="512" height="512" viewBox="0 0 512 512" fill="none" xmlns="http://www.w3.org/2000/svg">
<path d="M137.9 11.8C127 14.7 117.7 21.9 111.7 32.1C109.2 36.4 106 47.2 106 51.7V54H256H406V51.7C406 50.5 405.3 46.6 404.4 43C401.8 32 395.6 23.3 385.7 16.9C374.7 9.8 379.3 10 255.3 10.1C154.1 10.1 143.9 10.3 137.9 11.8Z" fill="#7A8C98"/>
<path d="M106 256V438H145.9H185.8L185.3 434C185 431.8 185.3 427.2 186 423.8C189.6 405.2 205.4 391.2 223.9 390.2C230.5 389.9 233 390.3 243 393.4C249.3 395.4 254.8 397 255.3 397C255.7 397 256 377.2 256 353V309H213.1C188.7 309 169.1 308.6 167.7 308.1C158.2 304.5 159 291.8 168.8 289C171.1 288.4 188.9 288 214.8 288H257V284.2C257 279.1 260.2 270.1 263.9 264.7C278.9 242.9 308.2 239.9 327.5 258.1C338.7 268.6 340.2 273.3 340.9 300L341.5 320.5L347.4 321.2C354.4 322.1 362.3 325.5 367.2 329.9L370.9 333.1L377.2 332C386.2 330.3 391.9 331.3 404.3 336.5C405.9 337.2 406 330.6 406 205.6V74H256H106V256ZM177.2 120.9L180.5 123.8L181 156.2C181.5 191.4 181.5 191.4 187.7 197.2C197 206 213.3 204.4 220.6 193.8L223.5 189.7L224 157.6C224.4 134.4 224.9 124.9 225.8 123.3C229.2 117.4 236.1 116.3 241.2 120.9L244.5 123.8L244.8 153.2C245.1 184.8 244.6 190.8 240.3 199.8C236.8 207.3 228.5 215.4 220.7 219C194.5 231.3 164.7 214.8 161 186C159.7 175.9 159.7 130.5 161 125.8C163.2 118 171.3 115.6 177.2 120.9ZM281.9 118.9C282.9 119.5 289.2 127.3 296.1 136.4C302.9 145.5 308.8 153 309.2 153C309.6 153 315.3 145.8 321.9 137.1C328.5 128.3 334.9 120.5 336.2 119.6C342.3 115.3 351 120.1 351 127.8C351 131.2 349.4 133.8 336.5 151C328.5 161.6 322 170.5 322 170.7C322 170.9 328.5 179.7 336.5 190.3C349.1 207.2 351 210.2 351 213.4C351 218.7 346.6 223 341.3 223C336.4 223 333 219.6 319.5 201.2C314.2 194 309.5 188 309.2 188.1C308.8 188.1 304.2 194 299 201.2C284.6 221 282.6 223 277.9 223C275.7 223 272.9 222.3 271.6 221.5C268.6 219.5 266.6 214.8 267.4 211.5C267.7 210.2 274.1 200.9 281.6 190.9C289 181 295.4 172.2 295.7 171.4C296 170.6 290.2 162 281.9 150.8C269.1 133.8 267.5 131.3 267.5 127.7C267.5 120.8 275.9 115.7 281.9 118.9ZM241.2 248.9C243.9 251.3 244.5 252.5 244.5 256C244.5 259.5 243.9 260.7 241.2 263.1L238 266H202.4H166.8L163.9 263.1C161.6 260.8 161 259.3 161 256C161 252.7 161.6 251.2 163.9 248.9L166.8 246H202.4H238L241.2 248.9ZM216.3 331.9C225.8 335.5 225 348.2 215.2 351C213.2 351.5 202.7 352 192 352C170.7 352 166.1 351.3 163 347.3C160.7 344.4 160.4 338.4 162.4 335.8C165.6 331.5 168.5 331 191.7 331C203.9 331 215 331.4 216.3 331.9Z" fill="#01C0FA"/>
<path d="M291.7 267.4C286.3 269.4 281.6 273.3 279.4 277.7C277.6 281.3 277.5 285.2 277.2 353.7L277 425.8L254.8 418.4C228.4 409.6 223.5 409 215.7 413.9C205.9 420.2 203.2 434.6 210.1 443.4C211.3 444.9 226.8 458.7 244.7 474.1L277.1 502H362.5H447.9L448.5 498.7C449.7 492.4 448.4 379.8 447.1 375.8C444.5 367.6 432.4 360.9 423 362.5C417.7 363.4 410.1 368.6 407.8 373L406 376.5V373.6C406 372 405.5 369 404.9 366.9C399.4 348.8 373.4 346.6 364.6 363.5L363 366.5V362C362.9 346.9 346.4 336.6 332.4 342.9C330.2 343.9 326.8 346.6 324.8 348.9L321.2 353.1L320.8 317.8C320.4 278.1 320.4 278 313.1 271.8C306.8 266.4 299 264.8 291.7 267.4Z" fill="#FE7701"/>
<path d="M106 460.1C106 461.2 106.7 465.2 107.6 469C110.1 480.3 117.6 490.2 128.2 496.4C137.2 501.6 141.2 502 195.3 502C222.6 502 245 501.7 244.9 501.2C244.9 500.8 233.6 490.9 219.9 479.2L194.9 458H150.5C106.3 458 106 458 106 460.1Z" fill="#7A8C98"/>
</svg>
