<svg width="1000" height="169" viewBox="0 0 1000 169" fill="none" xmlns="http://www.w3.org/2000/svg">
<path d="M679.199 0.0273438H785.645L788.574 1.00391L797.363 3.44531L804.199 6.375L810.059 10.2812L815.43 14.6758L819.824 19.5586L823.73 26.3945L827.148 35.1836L828.613 43.9727V63.9922L826.66 75.7109L822.266 88.8945L818.359 96.2188L814.453 101.59L809.082 107.938L804.688 112.332L805.176 116.238L811.035 131.375L819.824 154.324L824.219 166.531L823.73 167.508H774.414L770.996 160.672L765.625 146.512L759.766 131.375L754.395 117.703L753.906 115.75H713.867L712.891 127.469L709.473 165.066L708.984 167.02H664.062V160.184L666.504 132.352L670.898 84.0117L676.758 20.5352L678.711 1.00391L679.199 0.0273438ZM748.047 42.0195L721.191 42.5078L718.75 65.9453V70.3398L746.094 70.8281H774.902L779.297 70.3398L784.18 67.4102L787.109 63.0156L788.574 58.6211V51.2969L787.109 47.8789L784.668 44.9492L779.297 42.5078L769.531 42.0195H748.047Z" fill="#083A7F"/>
<path d="M568.359 0.0273438H670.898L671.387 1.00391V5.88672L668.945 33.2305L667.969 41.043L667.48 41.5312L569.824 42.0195L564.941 44.4609L562.5 49.3438L560.059 58.1328L559.57 61.5508H642.09L665.527 62.0391L666.016 64.4805L664.062 87.4297L662.598 101.102L661.621 102.566H624.023L556.641 102.078L556.152 103.543V112.332L557.617 119.168L559.57 122.098L561.523 123.074L660.156 123.562V130.398L657.227 163.602L656.25 167.02H544.922L537.598 165.066L530.762 161.648L525.391 157.254L520.02 149.93L516.113 142.117L513.184 132.84L511.23 120.633L510.254 109.891V98.6602L511.719 79.6172L513.672 64.9688L517.09 49.832L519.531 41.5312L523.926 31.2773L527.344 24.9297L532.227 18.0938L537.598 12.2344L543.945 7.35156L551.758 3.44531L559.57 1.49219L568.359 0.515625V0.0273438Z" fill="#083A7F"/>
<path d="M882.324 1.00391H991.211L990.723 10.7695L987.793 41.043L981.934 41.5312L889.16 42.0195L885.254 43.9727L883.301 46.4141L881.348 51.2969L879.883 57.6445L879.395 61.5508H959.473L985.352 62.0391L985.84 63.0156L984.375 80.5938L981.934 102.078L981.445 102.566H953.613L875.977 102.078V112.82L876.953 118.191L879.395 122.098L881.348 123.074L979.492 123.562L979.98 124.051L979.492 134.793L976.562 165.555L976.074 167.02H864.258L855.957 164.578L850.098 161.16L845.215 156.766L841.309 152.371L836.914 144.559L833.496 135.281L831.055 122.586L830.078 113.309V93.2891L832.52 70.8281L834.473 59.1094L836.914 48.8555L840.82 37.1367L844.727 28.8359L849.121 21.5117L853.516 16.1406L857.91 11.7461L864.258 6.86328L871.582 3.44531L878.906 1.49219L882.324 1.00391Z" fill="#083A7F"/>
<path d="M32.2266 0.0273438H81.543L81.0547 8.81641L78.6133 34.6953L76.1719 63.0156L75.6836 71.3164L78.125 65.457L81.543 59.5977L85.9375 54.2266L92.7734 45.9258L99.1211 38.1133L103.027 33.2305L109.863 24.9297L113.77 20.0469L119.629 13.2109L128.418 2.46875L130.371 0.0273438H189.941L188.477 3.44531L182.129 11.7461L170.41 27.3711L156.738 45.9258L150.391 54.2266L143.555 63.5039L135.742 73.7578L132.324 79.1289L131.348 82.5469V86.9414L133.301 92.3125L141.602 106.473L148.438 118.191L154.785 128.934L163.086 143.094L170.898 156.277L175.293 164.09L175.781 167.02H118.164L115.723 166.043L108.887 155.301L103.027 145.535L96.6797 135.281L84.9609 116.727L79.1016 106.961L75.1953 98.1719L73.7305 93.2891L72.7539 99.6367L66.8945 165.555L66.4062 166.531L18.5547 167.02L17.5781 166.531V156.277L23.9258 87.918L26.8555 54.7148L30.2734 17.6055L31.7383 1.00391L32.2266 0.0273438Z" fill="#083A7F"/>
<path d="M368.164 0.0273438H413.086V6.86328L408.691 57.1562L408.203 61.0625L463.867 60.5742L464.355 52.2734L466.309 30.3008L468.75 6.375L469.727 0.0273438H514.648V5.88672L509.277 64.4805L506.348 97.6836L501.465 152.371L500 167.02L499.512 167.508H454.59L454.102 167.02V162.625L458.008 122.098L459.473 105.496L459.961 103.055H404.297L403.32 113.797L400.391 146.512L398.926 164.578L398.438 167.02H353.516V159.695L355.469 135.77L358.887 98.6602L361.816 65.457L364.746 34.6953L367.676 1.98047L368.164 0.0273438Z" fill="#083A7F"/>
<path d="M255.859 45.9258L257.812 46.9023L260.742 48.8555L262.207 50.8086L264.648 50.3203L270.02 48.3672H273.926L284.668 53.7383L290.039 55.2031L294.922 55.6914L299.805 55.2031L302.246 54.2266H303.711L316.406 85.9648L319.824 94.7539L319.336 97.1953L307.129 104.52L300.781 108.914L300.293 109.891L299.316 116.238L297.363 118.68L295.41 119.656H290.527L289.551 123.562L287.109 126.492L285.645 126.98H280.273L279.297 129.91L277.344 131.863L274.902 132.84L270.02 133.328L268.066 135.281L267.09 135.77H261.719L259.277 135.281H255.859L253.906 135.77H250L246.582 134.305L242.188 130.398L237.305 128.934L233.887 125.027L231.445 121.121L226.562 119.168L224.121 116.238L221.68 110.379L217.773 108.426L215.332 105.008L214.844 103.055V97.1953L211.914 95.7305L212.402 91.8242L222.168 67.4102L226.074 57.1562L227.539 54.2266L236.816 53.7383L243.164 51.7852L253.418 47.3906L255.859 45.9258ZM242.676 62.5273L237.793 66.9219L234.375 70.8281L233.398 72.7812V76.1992L235.84 78.6406H239.746L248.047 76.1992L253.418 73.7578L257.812 72.7812L261.719 71.8047L266.113 72.293L271.484 75.2227L276.367 79.6172L281.738 84.9883L285.156 88.8945V87.4297L280.762 81.5703L276.367 76.6875L272.461 72.7812L267.578 69.8516L266.113 69.3633H260.254L250.488 72.293L240.723 75.7109L236.328 76.6875L235.84 76.1992V72.7812L238.77 68.3867L243.164 63.5039L243.652 62.5273H242.676ZM227.539 97.1953L228.516 101.59H230.469L230.957 100.125L229.492 99.6367L228.027 97.1953H227.539ZM232.91 98.6602L230.957 99.6367L231.934 100.125H235.84L238.281 102.078L239.258 104.52L238.77 110.867L239.746 111.355L242.676 109.402H246.582L248.047 110.867L249.023 118.68H250.977L252.441 118.191L254.395 118.68L253.418 116.727L251.465 114.773L250.488 110.379L246.582 106.961L244.629 106.473L242.188 106.961L241.211 103.055L238.77 100.125L235.352 98.6602H232.91ZM254.395 118.68V119.656L255.371 119.168L254.395 118.68Z" fill="#083A7F"/>
<path d="M268.066 0.0273438H288.574L298.828 3.44531L308.105 8.32812L315.43 13.6992L320.801 18.582L323.73 21.0234L328.125 26.3945L333.008 33.2305L337.402 41.043L340.82 48.3672L344.238 59.1094L346.191 67.8984L347.168 77.6641V89.8711L345.703 102.566L342.773 113.797L339.355 122.586L335.449 130.398L331.055 137.723L327.148 142.605L322.754 147.488L317.871 152.371L311.523 157.254L305.176 161.16L297.852 164.578L290.527 167.02L285.156 167.996L275.879 168.484L268.555 167.996L267.578 167.02L276.367 165.066L285.645 161.648L294.922 156.766L301.758 151.883L307.617 146.512L312.988 141.141L318.359 133.816L324.219 124.051L328.613 113.797L330.566 105.008H328.125L325.684 101.59L311.035 64.9688L307.129 55.6914L306.641 54.2266V50.8086L311.523 47.8789L321.289 42.9961L322.266 42.0195L321.777 39.0898L317.383 32.2539L313.477 27.3711L308.105 21.5117L303.223 17.1172L295.898 11.7461L288.086 7.35156L277.832 3.44531L268.066 0.515625V0.0273438Z" fill="#083A7F"/>
<path d="M242.188 0.0273438H263.672V0.515625L257.812 1.98047L247.559 5.39844L239.258 9.30469L231.934 14.1875L226.562 18.582L220.703 23.9531L215.332 30.3008L209.961 38.6016L208.984 40.5547L209.473 42.5078L221.68 48.8555L224.609 51.2969L224.121 55.6914L214.844 78.1523L208.984 93.2891L204.59 103.543L203.613 104.52L200.684 105.496L202.637 113.309L205.566 120.633L209.473 128.445L213.379 134.793L216.797 139.188L222.656 146.023L228.516 151.395L236.816 157.254L244.141 161.16L251.465 164.09L262.207 167.02L263.184 167.996L257.812 168.484L247.07 167.996L239.258 166.531L229.98 163.113L222.168 158.719L214.355 152.859L208.008 147L202.148 140.164L197.266 132.84L191.895 122.586L187.988 111.844L185.059 99.1484L184.082 91.8242V76.6875L185.547 65.9453L188.477 54.2266L192.383 44.4609L196.289 36.6484L200.684 29.8125L205.566 23.4648L210.449 18.0938L215.82 13.6992L223.145 8.32812L230.469 4.42188L239.746 1.00391L242.188 0.0273438Z" fill="#083A7F"/>
</svg>
