<svg width="64" height="64" viewBox="0 0 64 64" fill="none" xmlns="http://www.w3.org/2000/svg">
<g clip-path="url(#clip0_8894_10582)">
<path d="M51.2597 0H12.7403C5.70401 0 0 5.70401 0 12.7403V51.2597C0 58.296 5.70401 64 12.7403 64H51.2597C58.296 64 64 58.296 64 51.2597V12.7403C64 5.70401 58.296 0 51.2597 0Z" fill="white"/>
<path d="M27.4686 49.8346V24.3541H16.9727V14.1653H35.8569V49.8346H27.4686Z" fill="url(#paint0_linear_8894_10582)"/>
<path d="M47.027 24.5247H37.9561V22.4255H44.9278V20.4031H37.9561V14.1567H47.027V16.2559H40.0553V18.3039H47.027V24.5247Z" fill="url(#paint1_linear_8894_10582)"/>
</g>
<defs>
<linearGradient id="paint0_linear_8894_10582" x1="26.4148" y1="14.1653" x2="26.4148" y2="49.8346" gradientUnits="userSpaceOnUse">
<stop stop-color="#FF9413"/>
<stop offset="1" stop-color="#FF6B0B"/>
</linearGradient>
<linearGradient id="paint1_linear_8894_10582" x1="42.4915" y1="14.1567" x2="42.4915" y2="24.5247" gradientUnits="userSpaceOnUse">
<stop stop-color="#FF9413"/>
<stop offset="1" stop-color="#FF6B0B"/>
</linearGradient>
<clipPath id="clip0_8894_10582">
<rect width="64" height="64" rx="32" fill="white"/>
</clipPath>
</defs>
</svg>
