<svg width="48" height="48" viewBox="0 0 48 48" fill="none" xmlns="http://www.w3.org/2000/svg">
<path d="M36.5 3.6875C37.2277 3.44491 37.8889 3.03623 38.4313 2.49383C38.9737 1.95143 39.3824 1.2902 39.625 0.5625C39.8676 1.2902 40.2763 1.95143 40.8187 2.49383C41.3611 3.03623 42.0223 3.44491 42.75 3.6875C42.0223 3.93009 41.3611 4.33877 40.8187 4.88117C40.2763 5.42357 39.8676 6.0848 39.625 6.8125C39.3824 6.0848 38.9737 5.42357 38.4313 4.88117C37.8889 4.33877 37.2277 3.93009 36.5 3.6875Z" fill="#E0747C"/>
<path d="M5.25 6.8125C5.9777 6.56991 6.63893 6.16123 7.18133 5.61883C7.72373 5.07643 8.13241 4.4152 8.375 3.6875C8.61759 4.4152 9.02627 5.07643 9.56867 5.61883C10.1111 6.16123 10.7723 6.56991 11.5 6.8125C10.7723 7.05509 10.1111 7.46377 9.56867 8.00617C9.02627 8.54857 8.61759 9.2098 8.375 9.9375C8.13241 9.2098 7.72373 8.54857 7.18133 8.00617C6.63893 7.46377 5.9777 7.05509 5.25 6.8125Z" fill="#E0747C"/>
<path d="M3.6875 13.0625H44.3125C44.7269 13.0625 45.1243 13.2271 45.4174 13.5201C45.7104 13.8132 45.875 14.2106 45.875 14.625V41.1875H2.125V14.625C2.125 14.2106 2.28962 13.8132 2.58265 13.5201C2.87567 13.2271 3.2731 13.0625 3.6875 13.0625Z" fill="#758190"/>
<path d="M5.25 16.1875H42.75V38.0625H5.25V16.1875Z" fill="#8BD2F5"/>
<path d="M5.25 16.1875V35.032C7.3018 35.4897 9.39777 35.72 11.5 35.7188C24.5633 35.7188 35.2047 27.0469 35.6953 16.1875H5.25Z" fill="#D1EDFB"/>
<path d="M24 20.875C28.7462 20.875 32.5938 17.0274 32.5938 12.2812C32.5938 7.53505 28.7462 3.6875 24 3.6875C19.2538 3.6875 15.4062 7.53505 15.4062 12.2812C15.4062 17.0274 19.2538 20.875 24 20.875Z" fill="#F7D881"/>
<path d="M28.6875 10.7188H25.5625V7.59375H22.4375V10.7188H19.3125V13.8438H22.4375V16.9688H25.5625V13.8438H28.6875V10.7188Z" fill="#EBF7FE"/>
<path d="M33.5836 20.875H33.3555C32.8627 20.875 32.3851 21.0456 32.0039 21.3578L24 27.9062H22.9891C23.4194 27.9067 23.8356 27.7522 24.1614 27.471C24.4872 27.1899 24.7009 26.8008 24.7634 26.375C24.8259 25.9492 24.733 25.5151 24.5017 25.1522C24.2705 24.7892 23.9163 24.5217 23.5039 24.3984L17.957 22.7344C17.3017 22.5375 16.621 22.4375 15.9367 22.4375H15.7445C14.5001 22.4378 13.278 22.7683 12.2031 23.3953L5.25 27.9062V38.0625L13.0625 32.5938H25.5625L34.9625 24.6398C35.2963 24.3573 35.5353 23.979 35.6471 23.5562C35.759 23.1334 35.7383 22.6865 35.5879 22.2758C35.4375 21.8652 35.1646 21.5106 34.8062 21.2601C34.4477 21.0095 34.0209 20.8751 33.5836 20.875Z" fill="#EFBE9A"/>
<path d="M0.5625 41.1875H47.4375V44.3125C47.4375 45.1413 47.1083 45.9362 46.5222 46.5222C45.9362 47.1083 45.1413 47.4375 44.3125 47.4375H3.6875C2.8587 47.4375 2.06384 47.1083 1.47779 46.5222C0.89174 45.9362 0.5625 45.1413 0.5625 44.3125V41.1875Z" fill="#58616C"/>
<path d="M17.75 41.1875V42.75C17.75 43.1644 17.9146 43.5618 18.2076 43.8549C18.5007 44.1479 18.8981 44.3125 19.3125 44.3125H28.6875C29.1019 44.3125 29.4993 44.1479 29.7924 43.8549C30.0854 43.5618 30.25 43.1644 30.25 42.75V41.1875H17.75Z" fill="#ACB3BC"/>
<path d="M2.90625 43.5312H4.46875V45.0938H2.90625V43.5312Z" fill="white"/>
<path d="M6.03125 43.5312H7.59375V45.0938H6.03125V43.5312Z" fill="white"/>
</svg>
